<?xml version="1.0" encoding="UTF-8" standalone="no"?>
<svg
   width="32"
   height="32"
   version="1"
   id="svg1010"
   sodipodi:docname="kdeconnect.svg"
   inkscape:version="1.1 (c68e22c387, 2021-05-23)"
   xmlns:inkscape="http://www.inkscape.org/namespaces/inkscape"
   xmlns:sodipodi="http://sodipodi.sourceforge.net/DTD/sodipodi-0.dtd"
   xmlns="http://www.w3.org/2000/svg"
   xmlns:svg="http://www.w3.org/2000/svg">
  <sodipodi:namedview
     id="namedview1012"
     pagecolor="#ffffff"
     bordercolor="#666666"
     borderopacity="1.0"
     inkscape:pageshadow="2"
     inkscape:pageopacity="0.0"
     inkscape:pagecheckerboard="0"
     showgrid="true"
     inkscape:zoom="5.15625"
     inkscape:cx="51.975758"
     inkscape:cy="2.6181818"
     inkscape:window-width="1600"
     inkscape:window-height="871"
     inkscape:window-x="0"
     inkscape:window-y="0"
     inkscape:window-maximized="1"
     inkscape:current-layer="svg1010">
    <inkscape:grid
       type="xygrid"
       id="grid827" />
  </sodipodi:namedview>
  <defs
     id="rounded">
    <style
       type="text/css"
       id="current-color-scheme">
        .ColorScheme-Text {
        color:#eff0f1;
        }
        .ColorScheme-NegativeText {
        color:#da4453;
        }
        .ColorScheme-Highlight {
        color:#3daee9;
        }
        .ColorScheme-Background {
        color:#31363b;
      }
      .ColorScheme-ButtonBackground {
        color:#444c53;
      }
    </style>
  </defs>
  <g
     id="22-22-kdeconnect"
     transform="translate(32,10)">
    <rect
       id="rect23-7"
       style="opacity:0.00100002"
       width="22"
       height="22"
       x="0"
       y="0" />
    <path
       style="opacity:1;fill:currentColor"
       class="ColorScheme-Text"
       d="M 8,3 C 6.892,3 6,3.892 6,5 v 12 c 0,1.108 0.892,2 2,2 h 5 2 c 1.108,0 2,-0.892 2,-2 V 5 C 17,3.892 16.107927,3 15,3 h -2 -3 z m 0,1 h 1 v 1 c 5.52e-5,0.5522619 0.4477381,0.9999448 1,1 h 3 c 0.552262,-5.52e-5 0.999945,-0.4477381 1,-1 V 4 h 1 c 0.571189,0 1,0.4287467 1,1 V 18 H 7 V 5 C 7,4.4287028 7.4287028,4 8,4 Z m 3,0 h 1 v 1 h -1 z"
       id="path1002"
       sodipodi:nodetypes="sssscssssccssccccccssccssccccc" />
  </g>
  <g
     id="kdeconnect">
    <rect
       style="opacity:0.00100002"
       width="32"
       height="32"
       x="0"
       y="0"
       id="rect1005" />
    <path
       style="opacity:1;fill:currentColor"
       class="ColorScheme-Text"
       d="M 11.091797,4 C 9.3794325,4 8,5.3379999 8,7 v 18 c 0,1.662 1.3794325,3 3.091797,3 h 7.726562 3.089844 C 23.620567,28 25,26.662 25,25 V 7 C 25,5.3379999 23.620454,4 21.908203,4 h -3.089844 -4.636718 z m 0,1 H 13 V 5.3007812 5.5 5.6992188 C 13,6.4194185 13.580581,7 14.300781,7 h 4.398438 C 19.419419,7 20,6.4194187 20,5.6992188 V 5.5 5.3007812 5 h 1.908203 C 23.099502,5 24,5.8910119 24,7 V 26 H 9 V 7 C 9,5.8909662 9.9003497,5 11.091797,5 Z M 16,5 h 1 v 1 h -1 z"
       id="path1007"
       sodipodi:nodetypes="sssscssssccsscccsssscccssccssccccc" />
  </g>
</svg>
