<?xml version="1.0" encoding="UTF-8" standalone="no"?>
<svg
   version="1.1"
   viewBox="0 0 22 22"
   id="svg40"
   sodipodi:docname="notification.svg"
   inkscape:version="1.1 (c68e22c387, 2021-05-23)"
   xmlns:inkscape="http://www.inkscape.org/namespaces/inkscape"
   xmlns:sodipodi="http://sodipodi.sourceforge.net/DTD/sodipodi-0.dtd"
   xmlns="http://www.w3.org/2000/svg"
   xmlns:svg="http://www.w3.org/2000/svg">
  <sodipodi:namedview
     id="namedview42"
     pagecolor="#ffffff"
     bordercolor="#666666"
     borderopacity="1.0"
     inkscape:pageshadow="2"
     inkscape:pageopacity="0.0"
     inkscape:pagecheckerboard="0"
     showgrid="false"
     inkscape:zoom="10.606602"
     inkscape:cx="37.335238"
     inkscape:cy="23.240243"
     inkscape:window-width="1600"
     inkscape:window-height="871"
     inkscape:window-x="0"
     inkscape:window-y="0"
     inkscape:window-maximized="1"
     inkscape:current-layer="svg40" />
  <defs
     id="rounded">
    <style
       type="text/css"
       id="current-color-scheme">
        .ColorScheme-Text {
        color:#eff0f1;
        }
        .ColorScheme-NegativeText {
        color:#da4453;
        }
        .ColorScheme-Highlight {
        color:#3daee9;
        }
        .ColorScheme-Background {
        color:#31363b;
      }
      .ColorScheme-ButtonBackground {
        color:#444c53;
      }
    </style>
  </defs>
  <g
     id="notification-progress-active"
     transform="translate(39,-1)">
    <path
       style="opacity:0.00100002"
       d="M 1,1 H 23 V 23 H 1 Z"
       id="path4" />
    <circle
       style="opacity:1;fill:#3c78ff;fill-opacity:1"
       class="ColorScheme-Highlight"
       cx="12"
       cy="12"
       r="8"
       id="circle6" />
  </g>
  <g
     id="notification-inactive"
     transform="translate(-1 -1)">
    <path
       style="opacity:0.001"
       d="m1 1h22v22h-22z"
       id="path9" />
    <path
       style="opacity:1;fill:currentColor"
       class="ColorScheme-Text"
       d="m10.269531 17a2 2 0 0 0-0.2695312 1 2 2 0 0 0 2 2 2 2 0 0 0 2-2 2 2 0 0 0-0.271484-1zm1.7304688-13a1 1 0 0 0-1 1 1 1 0 0 0 0.0098 0.1289062 3.9999999 3.9999999 0 0 0-3.0098 3.8710938c0 3-1 4-3 6v1h14v-1c-2-2-3-3-3-6a3.9999999 3.9999999 0 0 0-3.009766-3.8710938 1 1 0 0 0 0.009766-0.1289062 1 1 0 0 0-1-1zm0 2a3 3 0 0 1 3 3c0 3 0.585938 4 2.585938 6h-11.171876c2-2 2.5859375-3 2.5859375-6a3 3 0 0 1 3-3z"
       id="path11" />
  </g>
  <g
     id="notification-progress-inactive"
     transform="translate(39 39)">
    <path
       style="opacity:0.001"
       d="m1 1h22v22h-22z"
       id="path14" />
    <circle
       style="opacity:0.5;fill:currentColor"
       class="ColorScheme-Text"
       cx="12"
       cy="12"
       r="8"
       id="circle16" />
  </g>
  <g
     id="notification-active"
     transform="translate(-1,39)">
    <path
       style="opacity:0.00100002"
       d="M 1,1 H 23 V 23 H 1 Z"
       id="path19" />
    <path
       style="opacity:1;fill:currentColor"
       class="ColorScheme-Text"
       transform="translate(1,-39)"
       d="M 5.3457031,42.345703 A 7.9999995,7.9999995 0 0 0 3,48 h 1 a 7,7 0 0 1 2.0527344,-4.947266 z m 11.3085939,0 -0.707031,0.707031 A 7,7 0 0 1 18,48 h 1 A 7.9999995,7.9999995 0 0 0 16.654297,42.345703 Z M 11,43 a 1,1 0 0 0 -1,1 1,1 0 0 0 0.0098,0.128906 A 3.9999999,3.9999999 0 0 0 7,48 c 0,3 -1,4 -3,6 v 1 H 18 V 54 C 16,52 15,51 15,48 A 3.9999999,3.9999999 0 0 0 11.990234,44.128906 1,1 0 0 0 12,44 1,1 0 0 0 11,43 Z m 4.238281,0.761719 -0.708984,0.708984 A 5,5 0 0 1 16,48 h 1 a 6,6 0 0 0 -1.761719,-4.238281 z m -8.472656,0.0039 A 6,6 0 0 0 5,48 H 6 A 5,5 0 0 1 7.4667969,44.466797 Z M 11,45 a 3,3 0 0 1 3,3 c 0,3 0.585938,4 2.585938,6 H 5.4140625 C 7.4140625,52 8,51 8,48 a 3,3 0 0 1 3,-3 z M 9.2695312,56 A 2,2 0 0 0 9,57 a 2,2 0 0 0 2,2 2,2 0 0 0 2,-2 2,2 0 0 0 -0.271484,-1 z"
       id="path21" />
  </g>
  <path
     id="expander-bottom"
     style="opacity:1;fill:currentColor"
     class="ColorScheme-Text"
     d="m-18 23 2-2 2 2z" />
  <path
     id="expander-top"
     style="opacity:1;fill:currentColor"
     class="ColorScheme-Text"
     d="m-18 17 2 2 2-2z" />
  <path
     id="expander-right"
     style="opacity:1;fill:currentColor"
     class="ColorScheme-Text"
     d="m-13 18-2 2 2 2z" />
  <path
     id="expander-left"
     style="opacity:1;fill:currentColor"
     class="ColorScheme-Text"
     d="m-19 18 2 2-2 2z" />
  <g
     id="notification-disabled"
     transform="translate(-1,-41)">
    <path
       style="opacity:0.00100002"
       d="M 1,1 H 23 V 23 H 1 Z"
       id="path28" />
    <path
       style="opacity:1;fill:#ff00cf;fill-opacity:1"
       class="ColorScheme-NegativeText"
       d="M 4,4.707031 19.292969,20 20,19.292969 4.7070312,4 Z"
       id="path30" />
    <path
       style="opacity:1;fill:currentColor"
       class="ColorScheme-Text"
       d="m 12,4 a 1,1 0 0 0 -1,1 1,1 0 0 0 0.0098,0.128906 3.9999999,3.9999999 0 0 0 -2.2402348,1.519532 L 9.4863281,7.365234 A 3,3 0 0 1 12,6 3,3 0 0 1 15,9 c 0,3 0.585938,4 2.585938,6 h -0.464844 l 1,1 H 19 V 15 C 17,13 16,12 16,9 A 3.9999999,3.9999999 0 0 0 12.990234,5.128906 1,1 0 0 0 13,5 1,1 0 0 0 12,4 Z M 7.9472656,10.068359 C 7.7219031,12.273085 6.7411309,13.258869 5,15 v 1 h 8.878906 l -1,-1 H 6.4140625 C 7.8937066,13.520356 8.5962396,12.584141 8.8632812,10.984375 Z M 10.269531,17 A 2,2 0 0 0 10,18 a 2,2 0 0 0 2,2 2,2 0 0 0 2,-2 2,2 0 0 0 -0.271484,-1 z"
       id="path32" />
  </g>
  <g
     id="notification-empty"
     transform="translate(39 -41)">
    <path
       style="opacity:0.001"
       d="m1 1h22v22h-22z"
       id="path35" />
    <path
       style="opacity:1;fill:currentColor"
       class="ColorScheme-Text"
       d="m12 4a8 8 0 0 0-8 8 8 8 0 0 0 8 8 8 8 0 0 0 8-8 8 8 0 0 0-8-8zm0 1a7 7 0 0 1 7 7 7 7 0 0 1-7 7 7 7 0 0 1-7-7 7 7 0 0 1 7-7z"
       id="path37" />
  </g>
</svg>
