<?xml version="1.0" encoding="UTF-8" standalone="no"?>
<svg
   width="32"
   height="32"
   version="1.1"
   id="svg14"
   sodipodi:docname="plasmavault_error.svg"
   inkscape:version="1.1 (c68e22c387, 2021-05-23)"
   xmlns:inkscape="http://www.inkscape.org/namespaces/inkscape"
   xmlns:sodipodi="http://sodipodi.sourceforge.net/DTD/sodipodi-0.dtd"
   xmlns="http://www.w3.org/2000/svg"
   xmlns:svg="http://www.w3.org/2000/svg">
  <sodipodi:namedview
     id="namedview16"
     pagecolor="#ffffff"
     bordercolor="#666666"
     borderopacity="1.0"
     inkscape:pageshadow="2"
     inkscape:pageopacity="0.0"
     inkscape:pagecheckerboard="0"
     showgrid="false"
     inkscape:zoom="10.3125"
     inkscape:cx="31.612121"
     inkscape:cy="21.284848"
     inkscape:window-width="1600"
     inkscape:window-height="871"
     inkscape:window-x="0"
     inkscape:window-y="0"
     inkscape:window-maximized="1"
     inkscape:current-layer="svg14" />
  <defs
     id="rounded">
    <style
       type="text/css"
       id="current-color-scheme">
        .ColorScheme-Text {
        color:#eff0f1;
        }
        .ColorScheme-NegativeText {
        color:#da4453;
        }
        .ColorScheme-Highlight {
        color:#3daee9;
        }
        .ColorScheme-Background {
        color:#31363b;
      }
      .ColorScheme-ButtonBackground {
        color:#444c53;
      }
    </style>
  </defs>
  <g
     id="22-22-plasmavault_error"
     transform="translate(32,10)">
    <rect
       style="opacity:0.00100002"
       width="22"
       height="22"
       x="0"
       y="0"
       id="rect4" />
    <path
       style="opacity:1;fill:#ff00cf;fill-opacity:1"
       class="ColorScheme-NegativeText"
       d="M 5,4 C 3.892,4 3,4.892 3,6 v 1 3 5 c 0,1.662 1.338,3 3,3 h 10 c 1.662,0 3,-1.338 3,-3 V 12 10 8 C 19,6.338 17.662,5 16,5 H 11.724609 C 11.379048,4.4042011 10.74107,4 10,4 Z M 4,8 h 8 4 c 1.125297,0 2,0.8747028 2,2 v 2 3 c 0,1.125297 -0.874703,2 -2,2 H 6 C 4.8747028,17 4,16.125297 4,15 v -5 z m 7,1 a 2,2 0 0 0 -2,2 v 1 c -0.554,0 -1,0.446 -1,1 v 2 c 0,0.554 0.446,1 1,1 h 4 c 0.554,0 1,-0.446 1,-1 v -2 c 0,-0.554 -0.446,-1 -1,-1 V 11 A 2,2 0 0 0 11,9 Z m 0,1 a 1,1 0 0 1 1,1 v 1 h -2 v -1 a 1,1 0 0 1 1,-1 z"
       id="path6" />
  </g>
  <g
     id="plasmavault_error">
    <rect
       style="opacity:0.00100002"
       width="32"
       height="32"
       x="0"
       y="0"
       id="rect9" />
    <path
       style="opacity:1;fill:#ff00cf;fill-opacity:1"
       class="ColorScheme-NegativeText"
       d="M 7,5 C 5.3379999,5 4,6.338 4,8 V 9.5 14 21.5 C 4,23.993001 6.007,26 8.5,26 h 15 C 25.993,26 28,23.993001 28,21.5 V 17 14 11.400391 C 28,8.9073902 25.993,7 23.5,7 H 17.085938 C 16.567597,6.1063016 15.611605,5 14.5,5 Z M 5,11 H 26.960938 C 26.97577,11.133028 27,11.261898 27,11.400391 V 14 17 21.5 C 27,23.456299 25.456297,25 23.5,25 H 8.5 C 6.5437028,25 5,23.456298 5,21.5 V 14 Z m 11,1 c -1.840948,10e-7 -3,1.534187 -3,3.427734 V 17 c -1.523617,0 -2,0.808098 -2,1.757812 v 3.527344 C 11,23.234871 11.742681,24 12.666016,24 h 6.667968 C 20.257318,24 21,23.234871 21,22.285156 V 18.757812 C 21,17.808098 20.558927,17 19,17 V 15.427734 C 19,13.534187 17.840949,12 16,12 Z m 0,1 a 1.9999995,2.0000002 0 0 1 2,2 v 2 h -4 v -2 a 1.9999995,2.0000002 0 0 1 2,-2 z"
       id="path11" />
  </g>
</svg>
