<?xml version="1.0" encoding="UTF-8" standalone="no"?>
<svg
   width="32"
   height="32"
   version="1.1"
   id="svg34"
   sodipodi:docname="quassel.svg"
   inkscape:version="1.1 (c68e22c387, 2021-05-23)"
   xmlns:inkscape="http://www.inkscape.org/namespaces/inkscape"
   xmlns:sodipodi="http://sodipodi.sourceforge.net/DTD/sodipodi-0.dtd"
   xmlns="http://www.w3.org/2000/svg"
   xmlns:svg="http://www.w3.org/2000/svg">
  <sodipodi:namedview
     id="namedview36"
     pagecolor="#ffffff"
     bordercolor="#666666"
     borderopacity="1.0"
     inkscape:pageshadow="2"
     inkscape:pageopacity="0.0"
     inkscape:pagecheckerboard="0"
     showgrid="false"
     inkscape:zoom="5.15625"
     inkscape:cx="21.139394"
     inkscape:cy="4.7515151"
     inkscape:window-width="1600"
     inkscape:window-height="871"
     inkscape:window-x="0"
     inkscape:window-y="0"
     inkscape:window-maximized="1"
     inkscape:current-layer="svg34" />
  <defs
     id="rounded">
    <style
       type="text/css"
       id="current-color-scheme">
        .ColorScheme-Text {
        color:#eff0f1;
        }
        .ColorScheme-NegativeText {
        color:#da4453;
        }
        .ColorScheme-Highlight {
        color:#3daee9;
        }
        .ColorScheme-Background {
        color:#31363b;
      }
      .ColorScheme-ButtonBackground {
        color:#444c53;
      }
    </style>
  </defs>
  <g
     id="22-22-quassel"
     transform="translate(0,-22)">
    <rect
       style="opacity:0.001"
       width="22"
       height="22"
       x="0"
       y="0"
       id="rect4" />
    <path
       style="opacity:1;fill:currentColor"
       class="ColorScheme-Text"
       d="m 11,3 a 8,8 0 0 0 -8,8 8,8 0 0 0 8,8 8,8 0 0 0 8,-8 8,8 0 0 0 -8,-8 z m 0,1 a 7,7 0 0 1 7,7 7,7 0 0 1 -1.101562,3.753906 A 3,3 0 0 0 17,14 3,3 0 0 0 14,11 3,3 0 0 0 11,14 3,3 0 0 0 14,17 3,3 0 0 0 14.767578,16.898438 7,7 0 0 1 11,18 7,7 0 0 1 4,11 7,7 0 0 1 11,4 Z"
       id="path6" />
  </g>
  <g
     id="22-22-quassel-message"
     transform="translate(32,-22)">
    <rect
       style="opacity:0.00100002"
       width="22"
       height="22"
       x="0"
       y="0"
       id="rect9" />
    <path
       style="opacity:1;fill:#3c78ff;fill-opacity:1"
       class="ColorScheme-Highlight"
       d="m 11,3 a 8,8 0 0 0 -8,8 8,8 0 0 0 8,8 8,8 0 0 0 8,-8 8,8 0 0 0 -8,-8 z m 0,1 a 7,7 0 0 1 7,7 7,7 0 0 1 -1.101562,3.753906 A 3,3 0 0 0 17,14 3,3 0 0 0 14,11 3,3 0 0 0 11,14 3,3 0 0 0 14,17 3,3 0 0 0 14.767578,16.898438 7,7 0 0 1 11,18 7,7 0 0 1 4,11 7,7 0 0 1 11,4 Z"
       id="path11" />
  </g>
  <g
     id="22-22-quassel-inactive"
     transform="translate(64,-22)">
    <rect
       style="opacity:0.001"
       width="22"
       height="22"
       x="0"
       y="0"
       id="rect14" />
    <path
       style="opacity:0.5;fill:currentColor"
       class="ColorScheme-Text"
       d="m 11,3 a 8,8 0 0 0 -8,8 8,8 0 0 0 8,8 8,8 0 0 0 8,-8 8,8 0 0 0 -8,-8 z m 0,1 a 7,7 0 0 1 7,7 7,7 0 0 1 -1.101562,3.753906 A 3,3 0 0 0 17,14 3,3 0 0 0 14,11 3,3 0 0 0 11,14 3,3 0 0 0 14,17 3,3 0 0 0 14.767578,16.898438 7,7 0 0 1 11,18 7,7 0 0 1 4,11 7,7 0 0 1 11,4 Z"
       id="path16" />
  </g>
  <g
     id="quassel">
    <rect
       style="opacity:0.001"
       width="32"
       height="32"
       x="0"
       y="0"
       id="rect19" />
    <path
       style="opacity:1;fill:currentColor"
       class="ColorScheme-Text"
       d="M 16 4 A 12 12 0 0 0 4 16 A 12 12 0 0 0 16 28 A 12 12 0 0 0 28 16 A 12 12 0 0 0 16 4 z M 16 5 A 11 11 0 0 1 27 16 A 11 11 0 0 1 24.849609 22.511719 A 3.5 3.5 0 0 0 25 21.5 A 3.5 3.5 0 0 0 21.5 18 A 3.5 3.5 0 0 0 18 21.5 A 3.5 3.5 0 0 0 21.5 25 A 3.5 3.5 0 0 0 22.517578 24.845703 A 11 11 0 0 1 16 27 A 11 11 0 0 1 5 16 A 11 11 0 0 1 16 5 z"
       id="path21" />
  </g>
  <g
     id="quassel-message"
     transform="translate(32)">
    <rect
       style="opacity:0.00100002"
       width="32"
       height="32"
       x="0"
       y="0"
       id="rect24" />
    <path
       style="opacity:1;fill:#3c78ff;fill-opacity:1"
       class="ColorScheme-Highlight"
       d="M 16,4 A 12,12 0 0 0 4,16 12,12 0 0 0 16,28 12,12 0 0 0 28,16 12,12 0 0 0 16,4 Z m 0,1 A 11,11 0 0 1 27,16 11,11 0 0 1 24.849609,22.511719 3.5,3.5 0 0 0 25,21.5 3.5,3.5 0 0 0 21.5,18 3.5,3.5 0 0 0 18,21.5 3.5,3.5 0 0 0 21.5,25 3.5,3.5 0 0 0 22.517578,24.845703 11,11 0 0 1 16,27 11,11 0 0 1 5,16 11,11 0 0 1 16,5 Z"
       id="path26" />
  </g>
  <g
     id="quassel-inactive"
     transform="translate(64)">
    <rect
       style="opacity:0.001"
       width="32"
       height="32"
       x="0"
       y="0"
       id="rect29" />
    <path
       style="opacity:0.5;fill:currentColor"
       class="ColorScheme-Text"
       d="M 16,4 A 12,12 0 0 0 4,16 12,12 0 0 0 16,28 12,12 0 0 0 28,16 12,12 0 0 0 16,4 Z m 0,1 A 11,11 0 0 1 27,16 11,11 0 0 1 24.849609,22.511719 3.5,3.5 0 0 0 25,21.5 3.5,3.5 0 0 0 21.5,18 3.5,3.5 0 0 0 18,21.5 3.5,3.5 0 0 0 21.5,25 3.5,3.5 0 0 0 22.517578,24.845703 11,11 0 0 1 16,27 11,11 0 0 1 5,16 11,11 0 0 1 16,5 Z"
       id="path31" />
  </g>
</svg>
