<svg xmlns="http://www.w3.org/2000/svg" height="64" width="64"><path style="fill:#ebebeb;fill-opacity:1;fill-rule:nonzero;stroke:#4aaee6;stroke-width:3.49796152;stroke-linecap:butt;stroke-linejoin:miter;stroke-miterlimit:4;stroke-opacity:1" d="M10.348 3.352h43.304a6.992 6.992 0 0 1 6.996 6.996v43.304a6.992 6.992 0 0 1-6.996 6.996H10.348a6.992 6.992 0 0 1-6.996-6.996V10.348a6.992 6.992 0 0 1 6.996-6.996zm0 0"/><path style="fill:#6b787d;fill-opacity:1;fill-rule:nonzero;stroke:none" d="M16.434 9.457h31.132c1.106 0 2.004.898 2.004 2.008v38.629c0 1.11-.898 2.008-2.004 2.008H16.434a2.007 2.007 0 0 1-2.008-2.008v-38.63c0-1.109.898-2.007 2.008-2.007zm0 0"/><path style="fill:#14475c;fill-opacity:1;fill-rule:nonzero;stroke:none" d="M17.566 48.254H46.29c.594 0 1.074.246 1.074.55v1.09c0 .305-.48.551-1.074.551H17.566c-.59 0-1.07-.246-1.07-.55v-1.09c0-.305.48-.551 1.07-.551zm0 0"/><path style="fill:#25aedf;fill-opacity:1;fill-rule:nonzero;stroke:none" d="M16.434 9.344h31.132c1.11 0 2.008.785 2.008 1.758V44.96c0 .969-.898 1.758-2.008 1.758H16.434c-1.106 0-2.004-.79-2.004-1.758V11.1c0-.972.898-1.757 2.004-1.757zm0 0"/><path style="fill:#3dccf5;fill-opacity:1;fill-rule:nonzero;stroke:none" d="M20.055 48.969a14.675 14.675 0 0 0 11.57 5.687 14.684 14.684 0 0 0 11.578-5.687zm0 0"/><path style="fill:#f9f9f9;stroke-width:.16080239" d="M29.106 50.454v2.478a.609.609 0 0 0-.419-.163c-.324 0-.586.241-.586.54 0 .3.262.54.586.54.32 0 .576-.232.585-.524h.002v-2.1h2.344v1.243a.609.609 0 0 0-.418-.163c-.325 0-.587.241-.587.54 0 .3.262.541.587.541.324 0 .586-.24.586-.54v-2.393h-2.512zm.168.308h2.344v.31h-2.344z"/><path style="fill:#f55;stroke-width:.50737172" d="M21.689 17.736v7.82a1.921 1.921 0 0 0-1.321-.514c-1.025 0-1.85.76-1.85 1.705 0 .945.825 1.705 1.85 1.705 1.007 0 1.816-.735 1.844-1.656h.005V20.17h7.398v3.922a1.921 1.921 0 0 0-1.32-.513c-1.025 0-1.85.76-1.85 1.705 0 .945.825 1.705 1.85 1.705 1.024 0 1.849-.76 1.849-1.705v-7.55h-7.927zm.528.974h7.398v.975h-7.398z"/><path style="fill:#0f0;stroke-width:.50737172" d="M29.087 23.118v7.819a1.921 1.921 0 0 0-1.321-.513c-1.025 0-1.85.76-1.85 1.705 0 .945.825 1.705 1.85 1.705 1.006 0 1.816-.735 1.844-1.656h.005v-6.626h7.398v3.922a1.921 1.921 0 0 0-1.321-.513c-1.025 0-1.85.76-1.85 1.705 0 .945.825 1.705 1.85 1.705 1.024 0 1.85-.76 1.85-1.705v-7.551h-7.927zm.528.974h7.398v.975h-7.398z"/><path style="fill:#ff0;stroke-width:.50737172" d="M36.485 28.5v7.819a1.921 1.921 0 0 0-1.321-.513c-1.025 0-1.85.76-1.85 1.705 0 .945.825 1.705 1.85 1.705 1.006 0 1.816-.735 1.844-1.656h.005v-6.626h7.398v3.922a1.921 1.921 0 0 0-1.321-.513c-1.025 0-1.85.76-1.85 1.705 0 .945.825 1.705 1.85 1.705 1.024 0 1.85-.76 1.85-1.705v-7.551h-7.927zm.528.974h7.398v.974h-7.398z"/></svg>