<svg xmlns="http://www.w3.org/2000/svg" height="64" width="64"><path style="fill:#ebebeb;fill-opacity:1;fill-rule:nonzero;stroke:#4aaee6;stroke-width:3.49796152;stroke-linecap:butt;stroke-linejoin:miter;stroke-miterlimit:4;stroke-opacity:1" d="M10.641 4.122h43.305a6.992 6.992 0 0 1 6.996 6.996v43.305a6.992 6.992 0 0 1-6.996 6.996H10.64a6.992 6.992 0 0 1-6.996-6.996V11.118a6.992 6.992 0 0 1 6.996-6.996zm0 0" transform="translate(-.293 -.77)"/><path style="fill:#6b787d;fill-opacity:1;fill-rule:nonzero;stroke:none" d="M16.727 10.228H47.86c1.105 0 2.004.898 2.004 2.008v38.629a2.006 2.006 0 0 1-2.004 2.007H16.727a2.007 2.007 0 0 1-2.008-2.007v-38.63c0-1.109.899-2.007 2.008-2.007zm0 0" transform="translate(-.293 -.77)"/><path style="fill:#14475c;fill-opacity:1;fill-rule:nonzero;stroke:none" d="M17.86 49.025h28.722c.594 0 1.075.246 1.075.55v1.09c0 .305-.48.551-1.075.551H17.86c-.59 0-1.07-.246-1.07-.55v-1.09c0-.305.48-.551 1.07-.551zm0 0" transform="translate(-.293 -.77)"/><path style="fill:#25aedf;fill-opacity:1;fill-rule:nonzero;stroke:none" d="M16.727 10.115H47.86c1.11 0 2.008.785 2.008 1.757v33.86c0 .968-.899 1.758-2.008 1.758H16.727c-1.106 0-2.004-.79-2.004-1.758v-33.86c0-.972.898-1.757 2.004-1.757zm0 0" transform="translate(-.293 -.77)"/><path style="fill:#3dccf5;fill-opacity:1;fill-rule:nonzero;stroke:none" d="M20.348 49.74a14.675 14.675 0 0 0 11.57 5.687 14.684 14.684 0 0 0 11.578-5.687zm0 0" transform="translate(-.293 -.77)"/><path style="fill:#f9f9f9;stroke-width:.82742679" d="M26.648 20.025v13.28a2.884 2.884 0 0 0-2.069-.872 2.89 2.89 0 0 0-2.896 2.896 2.89 2.89 0 0 0 2.896 2.896 2.884 2.884 0 0 0 2.888-2.813h.008V24.16H39.06v6.661a2.884 2.884 0 0 0-2.068-.871 2.89 2.89 0 0 0-2.896 2.896 2.89 2.89 0 0 0 2.896 2.896 2.89 2.89 0 0 0 2.896-2.896V20.02H27.475zm.827 1.654H39.06v1.655H27.475z" transform="translate(-.293 -.77)"/></svg>