
<svg xmlns="http://www.w3.org/2000/svg" xmlns:xlink="http://www.w3.org/1999/xlink" width="16px" height="16px" viewBox="0 0 16 16" version="1.1">
<defs>
<filter id="alpha" filterUnits="objectBoundingBox" x="0%" y="0%" width="100%" height="100%">
  <feColorMatrix type="matrix" in="SourceGraphic" values="0 0 0 0 1 0 0 0 0 1 0 0 0 0 1 0 0 0 1 0"/>
</filter>
<mask id="mask0">
  <g filter="url(#alpha)">
<rect x="0" y="0" width="16" height="16" style="fill:rgb(0%,0%,0%);fill-opacity:0.682353;stroke:none;"/>
  </g>
</mask>
<clipPath id="clip1">
  <rect x="0" y="0" width="16" height="16"/>
</clipPath>
<g id="surface5" clip-path="url(#clip1)">
<path style=" stroke:none;fill-rule:nonzero;fill:rgb(100%,100%,100%);fill-opacity:1;" d="M 8.222656 0.574219 L 8.222656 0.9375 C 8.222656 0.960938 8.226562 0.988281 8.230469 1.011719 L 8.5625 1.164062 L 8.5625 1.371094 L 8.273438 1.371094 C 8.34375 1.679688 8.488281 1.960938 8.683594 2.195312 L 8.683594 1.5 L 9.3125 1.5 L 9.992188 1.808594 L 9.992188 2.878906 C 10.054688 2.882812 10.113281 2.886719 10.175781 2.886719 L 12.054688 2.886719 L 12.054688 2.832031 L 12.183594 2.886719 L 13.605469 2.886719 Z M 10.972656 0.640625 C 11.019531 0.679688 11.0625 0.722656 11.105469 0.769531 C 11.0625 0.722656 11.019531 0.679688 10.972656 0.640625 Z M 10.972656 0.640625 "/>
</g>
<mask id="mask1">
  <g filter="url(#alpha)">
<rect x="0" y="0" width="16" height="16" style="fill:rgb(0%,0%,0%);fill-opacity:0.682353;stroke:none;"/>
  </g>
</mask>
<clipPath id="clip2">
  <rect x="0" y="0" width="16" height="16"/>
</clipPath>
<g id="surface8" clip-path="url(#clip2)">
<path style=" stroke:none;fill-rule:nonzero;fill:rgb(100%,100%,100%);fill-opacity:1;" d="M 13.605469 2.886719 L 8.222656 0.574219 L 8.222656 0.9375 C 8.222656 2.015625 9.09375 2.886719 10.175781 2.886719 Z M 13.605469 2.886719 "/>
</g>
</defs>
<g id="surface1">
<path style=" stroke:none;fill-rule:nonzero;fill:rgb(60%,60%,60%);fill-opacity:1;" d="M 4.234375 0.574219 C 3.152344 0.574219 2.28125 1.445312 2.28125 2.523438 L 2.28125 12.894531 C 2.28125 13.976562 3.152344 14.847656 4.234375 14.847656 L 11.65625 14.847656 C 12.734375 14.847656 13.605469 13.976562 13.605469 12.894531 L 13.605469 2.886719 L 8.222656 0.574219 Z M 11.855469 0.585938 C 11.988281 0.597656 12.113281 0.625 12.238281 0.660156 C 12.113281 0.625 11.988281 0.597656 11.855469 0.585938 Z M 12.238281 0.660156 C 12.421875 0.71875 12.589844 0.800781 12.746094 0.90625 C 12.589844 0.800781 12.421875 0.71875 12.238281 0.660156 Z M 12.898438 1.019531 C 12.945312 1.058594 12.992188 1.101562 13.035156 1.144531 C 12.992188 1.101562 12.945312 1.058594 12.898438 1.019531 Z M 12.898438 1.019531 "/>
<path style=" stroke:none;fill-rule:nonzero;fill:rgb(92.54902%,91.372549%,84.705882%);fill-opacity:1;" d="M 4.234375 0.574219 C 3.152344 0.574219 2.28125 1.445312 2.28125 2.523438 L 2.28125 12.894531 C 2.28125 13.976562 3.152344 14.847656 4.234375 14.847656 L 7.25 14.847656 L 7.25 14.085938 L 8.5625 14.085938 L 8.5625 14.847656 L 11.65625 14.847656 C 12.734375 14.847656 13.605469 13.976562 13.605469 12.894531 L 13.605469 3.527344 L 12.054688 3.527344 L 12.054688 2.832031 L 13.605469 3.527344 L 13.605469 2.886719 L 8.222656 0.574219 L 7.25 0.574219 L 8.5625 1.164062 L 8.5625 1.371094 L 7.25 1.371094 L 7.25 0.574219 Z M 10.972656 0.640625 C 11.019531 0.679688 11.0625 0.722656 11.105469 0.769531 C 11.0625 0.722656 11.019531 0.679688 10.972656 0.640625 Z M 12.898438 1.019531 C 12.945312 1.058594 12.992188 1.101562 13.035156 1.144531 C 12.992188 1.101562 12.945312 1.058594 12.898438 1.019531 Z M 8.683594 1.5 L 9.3125 1.5 L 9.992188 1.808594 L 9.992188 2.910156 L 8.683594 2.910156 Z M 7.25 3.039062 L 8.5625 3.039062 L 8.5625 4.28125 L 7.25 4.28125 Z M 10.117188 3.039062 L 11.222656 3.039062 L 11.222656 4.28125 L 10.117188 4.28125 Z M 8.683594 4.410156 L 9.992188 4.410156 L 9.992188 6.421875 L 8.683594 6.421875 Z M 7.25 6.550781 L 8.5625 6.550781 L 8.5625 8.308594 L 7.25 8.308594 Z M 10.117188 6.550781 L 11.222656 6.550781 L 11.222656 8.308594 L 10.117188 8.308594 Z M 12.1875 6.949219 L 13.292969 6.949219 L 13.292969 8.957031 L 12.1875 8.957031 Z M 8.683594 8.433594 L 9.992188 8.433594 L 9.992188 10.191406 L 8.683594 10.191406 Z M 7.25 10.316406 L 8.5625 10.316406 L 8.5625 12.246094 L 7.25 12.246094 Z M 10.117188 10.316406 L 11.222656 10.316406 L 11.222656 12.246094 L 10.117188 12.246094 Z M 11.902344 11.324219 L 13.003906 11.324219 L 13.003906 12.910156 L 11.902344 12.910156 Z M 8.683594 12.375 L 9.992188 12.375 L 9.992188 13.957031 L 8.683594 13.957031 Z M 8.683594 12.375 "/>
<use xlink:href="#surface5" mask="url(#mask0)"/>
<use xlink:href="#surface8" mask="url(#mask1)"/>
<path style=" stroke:none;fill-rule:nonzero;fill:rgb(0%,0%,0%);fill-opacity:0.352941;" d="M 5.101562 6.550781 L 5.101562 6.839844 L 8.5625 6.839844 L 8.5625 6.550781 Z M 5.101562 7.710938 L 5.101562 8 L 9.800781 8 L 9.800781 7.710938 Z M 5.101562 8.871094 L 5.101562 9.160156 L 8.5625 9.160156 L 8.5625 8.871094 Z M 5.101562 10.03125 L 5.101562 10.320312 L 9.09375 10.320312 L 9.09375 10.03125 Z M 5.101562 11.1875 L 5.101562 11.480469 L 8.527344 11.480469 L 8.527344 11.1875 Z M 5.101562 11.1875 "/>
</g>
</svg>
