<?xml version="1.0" encoding="UTF-8"?>
<svg xmlns="http://www.w3.org/2000/svg" xmlns:xlink="http://www.w3.org/1999/xlink" width="16pt" height="16pt" viewBox="0 0 16 16" version="1.1">
<g id="surface1">
<path style=" stroke:none;fill-rule:nonzero;fill:rgb(52.54902%,56.470588%,58.039216%);fill-opacity:1;" d="M 4.289062 0.863281 L 11.710938 0.863281 C 12.789062 0.863281 13.660156 1.738281 13.660156 2.8125 L 13.660156 13.1875 C 13.660156 14.261719 12.789062 15.136719 11.710938 15.136719 L 4.289062 15.136719 C 3.210938 15.136719 2.339844 14.261719 2.339844 13.1875 L 2.339844 2.8125 C 2.339844 1.738281 3.210938 0.863281 4.289062 0.863281 Z M 4.289062 0.863281 "/>
<path style=" stroke:none;fill-rule:nonzero;fill:rgb(92.54902%,91.372549%,84.705882%);fill-opacity:1;" d="M 4.289062 0.863281 C 3.207031 0.863281 2.339844 1.734375 2.339844 2.8125 L 2.339844 10.6875 C 2.429688 10.726562 2.59375 10.804688 2.605469 10.804688 C 2.628906 10.808594 2.738281 10.726562 2.863281 10.609375 C 2.984375 10.496094 3.167969 10.339844 3.273438 10.261719 C 3.414062 10.15625 3.464844 10.101562 3.472656 10.046875 C 3.476562 10.007812 3.414062 9.714844 3.332031 9.398438 C 3.171875 8.785156 3.160156 8.683594 3.242188 8.511719 C 3.335938 8.324219 3.410156 8.289062 4.183594 8.046875 L 4.886719 7.828125 L 5.023438 7.867188 C 5.25 7.929688 5.300781 8 5.558594 8.65625 C 5.683594 8.972656 5.800781 9.253906 5.820312 9.28125 C 5.84375 9.324219 5.910156 9.335938 6.121094 9.339844 C 6.269531 9.34375 6.511719 9.367188 6.660156 9.390625 C 6.808594 9.414062 6.941406 9.429688 6.953125 9.425781 C 6.96875 9.421875 7.113281 9.175781 7.28125 8.878906 C 7.449219 8.582031 7.625 8.304688 7.667969 8.257812 C 7.773438 8.148438 7.964844 8.089844 8.125 8.113281 C 8.203125 8.121094 8.492188 8.253906 8.867188 8.449219 C 9.511719 8.78125 9.566406 8.824219 9.640625 9.046875 C 9.691406 9.203125 9.652344 9.328125 9.382812 9.921875 C 9.238281 10.242188 9.121094 10.515625 9.125 10.527344 C 9.128906 10.542969 9.230469 10.65625 9.351562 10.785156 C 9.472656 10.910156 9.628906 11.09375 9.695312 11.191406 C 9.78125 11.3125 9.835938 11.367188 9.878906 11.371094 C 9.910156 11.375 10.210938 11.308594 10.546875 11.222656 C 11.210938 11.054688 11.324219 11.046875 11.484375 11.164062 C 11.632812 11.277344 11.679688 11.382812 11.902344 12.09375 L 12.109375 12.773438 L 12.070312 12.914062 C 11.992188 13.160156 11.957031 13.183594 11.25 13.460938 C 10.90625 13.597656 10.617188 13.71875 10.613281 13.730469 C 10.609375 13.738281 10.601562 13.867188 10.597656 14.011719 C 10.59375 14.15625 10.570312 14.398438 10.546875 14.546875 C 10.523438 14.695312 10.515625 14.832031 10.527344 14.851562 C 10.535156 14.867188 10.757812 15 10.996094 15.136719 L 11.710938 15.136719 C 12.792969 15.136719 13.660156 14.265625 13.660156 13.1875 L 13.660156 7.535156 C 13.589844 7.5625 13.535156 7.578125 13.425781 7.628906 C 13.25 7.710938 12.992188 7.816406 12.851562 7.863281 C 12.65625 7.925781 12.59375 7.964844 12.582031 8.015625 C 12.570312 8.050781 12.542969 8.40625 12.515625 8.804688 C 12.457031 9.675781 12.425781 9.769531 12.121094 9.925781 C 12.035156 9.96875 11.886719 9.976562 11.148438 9.976562 C 10.496094 9.976562 10.257812 9.964844 10.183594 9.929688 C 10.058594 9.875 9.925781 9.730469 9.863281 9.589844 C 9.832031 9.515625 9.804688 9.230469 9.777344 8.777344 C 9.753906 8.394531 9.726562 8.050781 9.710938 8.015625 C 9.695312 7.964844 9.605469 7.917969 9.386719 7.839844 C 9.222656 7.78125 8.972656 7.679688 8.832031 7.609375 C 8.695312 7.539062 8.550781 7.480469 8.511719 7.480469 C 8.472656 7.480469 8.246094 7.667969 7.921875 7.964844 C 7.632812 8.230469 7.351562 8.46875 7.292969 8.5 C 7.175781 8.558594 6.910156 8.570312 6.773438 8.519531 C 6.667969 8.476562 5.519531 7.347656 5.445312 7.207031 C 5.371094 7.070312 5.382812 6.8125 5.460938 6.65625 C 5.5 6.585938 5.742188 6.296875 6 6.015625 C 6.28125 5.710938 6.472656 5.476562 6.472656 5.441406 C 6.472656 5.402344 6.417969 5.261719 6.347656 5.121094 C 6.277344 4.984375 6.171875 4.734375 6.113281 4.570312 C 6.058594 4.40625 5.988281 4.261719 5.957031 4.246094 C 5.929688 4.230469 5.59375 4.199219 5.210938 4.179688 C 4.765625 4.15625 4.464844 4.125 4.378906 4.09375 C 4.210938 4.035156 4.023438 3.832031 3.996094 3.683594 C 3.984375 3.625 3.980469 3.191406 3.984375 2.714844 L 3.996094 1.851562 L 4.09375 1.726562 C 4.269531 1.507812 4.351562 1.484375 5.191406 1.433594 C 5.664062 1.402344 5.953125 1.371094 5.976562 1.347656 C 5.996094 1.328125 6.070312 1.164062 6.132812 0.984375 C 6.148438 0.945312 6.167969 0.910156 6.1875 0.863281 Z M 8.527344 0.863281 C 8.25 1.238281 8.046875 1.667969 7.949219 2.136719 C 7.722656 3.214844 8.054688 4.320312 8.84375 5.113281 C 9.253906 5.527344 9.792969 5.832031 10.371094 5.980469 C 10.539062 6.023438 10.773438 6.058594 11.109375 6.085938 C 11.132812 6.085938 11.292969 6.074219 11.464844 6.054688 C 12.246094 5.972656 12.902344 5.660156 13.460938 5.105469 C 13.53125 5.03125 13.597656 4.953125 13.660156 4.875 L 13.660156 2.8125 C 13.660156 1.734375 12.792969 0.863281 11.710938 0.863281 L 11.386719 0.863281 C 11.796875 0.914062 12.195312 1.09375 12.507812 1.40625 C 13.128906 2.023438 13.277344 2.902344 12.890625 3.675781 C 12.566406 4.332031 11.960938 4.71875 11.21875 4.75 C 10.96875 4.757812 10.84375 4.746094 10.660156 4.699219 C 9.832031 4.472656 9.253906 3.769531 9.203125 2.925781 C 9.167969 2.339844 9.359375 1.839844 9.777344 1.421875 C 10.101562 1.101562 10.507812 0.914062 10.925781 0.863281 Z M 11.203125 1.65625 C 10.847656 1.640625 10.632812 1.714844 10.371094 1.953125 C 10.046875 2.25 9.914062 2.667969 10.019531 3.078125 C 10.113281 3.433594 10.304688 3.675781 10.628906 3.839844 C 10.933594 3.996094 11.246094 4.007812 11.585938 3.878906 C 11.8125 3.796875 12.085938 3.542969 12.199219 3.308594 C 12.363281 2.929688 12.277344 2.578125 12.179688 2.273438 C 11.964844 1.878906 11.652344 1.679688 11.203125 1.65625 Z M 5.914062 11.113281 C 5.675781 11.117188 5.613281 11.128906 5.191406 11.265625 C 4.785156 11.394531 4.703125 11.429688 4.523438 11.546875 C 3.625 12.132812 3.128906 13.164062 3.238281 14.210938 C 3.265625 14.460938 3.328125 14.703125 3.414062 14.929688 C 3.679688 15.0625 3.972656 15.136719 4.289062 15.136719 L 4.886719 15.136719 C 4.710938 14.96875 4.5625 14.765625 4.46875 14.527344 C 4.285156 14.054688 4.308594 13.597656 4.542969 13.148438 C 4.859375 12.535156 5.496094 12.195312 6.136719 12.242188 C 6.347656 12.257812 6.5625 12.3125 6.765625 12.417969 C 7.433594 12.757812 7.785156 13.433594 7.675781 14.164062 C 7.617188 14.554688 7.441406 14.890625 7.167969 15.136719 L 8.53125 15.136719 C 8.75 14.691406 8.84375 14.246094 8.820312 13.726562 C 8.808594 13.394531 8.585938 12.714844 8.402344 12.429688 C 7.839844 11.570312 6.9375 11.09375 5.914062 11.113281 Z M 6.035156 12.925781 C 5.949219 12.925781 5.859375 12.941406 5.769531 12.964844 C 5.472656 13.042969 5.316406 13.164062 5.167969 13.421875 C 4.980469 13.753906 4.980469 14.128906 5.175781 14.4375 C 5.34375 14.703125 5.566406 14.847656 5.871094 14.898438 C 6.160156 14.941406 6.417969 14.871094 6.664062 14.675781 C 6.828125 14.546875 6.980469 14.269531 7.011719 14.050781 C 7.046875 13.699219 6.882812 13.433594 6.722656 13.207031 C 6.515625 13.011719 6.289062 12.917969 6.035156 12.925781 Z M 6.035156 12.925781 "/>
</g>
</svg>
