
<svg xmlns="http://www.w3.org/2000/svg" xmlns:xlink="http://www.w3.org/1999/xlink" width="16px" height="16px" viewBox="0 0 16 16" version="1.1">
<defs>
<filter id="alpha" filterUnits="objectBoundingBox" x="0%" y="0%" width="100%" height="100%">
  <feColorMatrix type="matrix" in="SourceGraphic" values="0 0 0 0 1 0 0 0 0 1 0 0 0 0 1 0 0 0 1 0"/>
</filter>
<mask id="mask0">
  <g filter="url(#alpha)">
<rect x="0" y="0" width="16" height="16" style="fill:rgb(0%,0%,0%);fill-opacity:0.682353;stroke:none;"/>
  </g>
</mask>
<clipPath id="clip1">
  <rect x="0" y="0" width="16" height="16"/>
</clipPath>
<g id="surface5" clip-path="url(#clip1)">
<path style=" stroke:none;fill-rule:nonzero;fill:rgb(100%,100%,100%);fill-opacity:1;" d="M 13.976562 2.910156 L 8.253906 0.449219 L 8.253906 0.835938 C 8.253906 1.988281 9.175781 2.910156 10.328125 2.910156 Z M 13.976562 2.910156 "/>
</g>
</defs>
<g id="surface1">
<path style=" stroke:none;fill-rule:nonzero;fill:rgb(94.117647%,66.666667%,25.490196%);fill-opacity:1;" d="M 4.007812 0.449219 C 2.855469 0.449219 1.933594 1.375 1.933594 2.527344 L 1.933594 13.558594 C 1.933594 14.707031 2.855469 15.632812 4.007812 15.632812 L 11.902344 15.632812 C 13.050781 15.632812 13.976562 14.707031 13.976562 13.558594 L 13.976562 2.910156 L 8.253906 0.449219 Z M 12.113281 0.460938 C 12.253906 0.476562 12.390625 0.503906 12.519531 0.542969 C 12.390625 0.503906 12.253906 0.476562 12.113281 0.460938 Z M 12.519531 0.542969 C 12.714844 0.605469 12.898438 0.691406 13.0625 0.804688 C 12.898438 0.691406 12.714844 0.605469 12.519531 0.542969 Z M 13.222656 0.921875 C 13.273438 0.964844 13.324219 1.011719 13.371094 1.058594 C 13.324219 1.011719 13.273438 0.964844 13.222656 0.921875 Z M 13.222656 0.921875 "/>
<use xlink:href="#surface5" mask="url(#mask0)"/>
<path style=" stroke:none;fill-rule:nonzero;fill:rgb(60%,41.568627%,13.333333%);fill-opacity:1;" d="M 3.96875 0.460938 L 3.96875 1.414062 L 5.199219 1.414062 L 5.199219 2.363281 L 3.96875 2.363281 L 3.96875 3.316406 L 5.199219 3.316406 L 5.199219 4.265625 L 3.96875 4.265625 L 3.96875 5.21875 L 5.199219 5.21875 L 5.199219 6.644531 L 3.96875 6.644531 L 3.96875 8.546875 L 6.433594 8.546875 L 6.433594 6.644531 L 5.199219 6.644531 L 5.199219 6.167969 L 6.433594 6.167969 L 6.433594 5.21875 L 5.199219 5.21875 L 5.199219 4.265625 L 6.433594 4.265625 L 6.433594 3.316406 L 5.199219 3.316406 L 5.199219 2.363281 L 6.433594 2.363281 L 6.433594 1.414062 L 5.199219 1.414062 L 5.199219 0.460938 Z M 3.96875 0.460938 "/>
<path style=" stroke:none;fill-rule:nonzero;fill:rgb(60%,41.568627%,13.333333%);fill-opacity:1;" d="M 5.246094 8.289062 C 5.160156 8.289062 4.988281 8.292969 4.859375 8.292969 L 4.628906 8.296875 L 4.628906 8.527344 C 4.628906 8.527344 4.554688 8.601562 4.535156 8.648438 C 4.386719 9.054688 4.367188 9.511719 4.46875 9.929688 C 4.484375 9.992188 4.570312 10.101562 4.570312 10.101562 L 4.589844 9.800781 C 4.628906 9.585938 4.605469 9.351562 4.820312 9.351562 L 4.878906 9.351562 L 4.878906 9.140625 C 4.878906 8.96875 5.023438 8.828125 5.207031 8.828125 L 5.242188 8.828125 C 5.425781 8.828125 5.574219 8.96875 5.574219 9.140625 L 5.574219 9.351562 L 5.632812 9.351562 C 5.863281 9.355469 5.859375 9.710938 5.863281 9.800781 L 5.882812 10.101562 C 5.882812 10.101562 5.980469 9.980469 5.996094 9.910156 C 6.101562 9.511719 6.085938 9.066406 5.9375 8.679688 C 5.925781 8.640625 5.863281 8.582031 5.863281 8.582031 L 5.863281 8.296875 L 5.632812 8.292969 C 5.503906 8.292969 5.332031 8.289062 5.246094 8.289062 Z M 5.210938 8.90625 C 5.050781 8.90625 4.921875 9.027344 4.921875 9.179688 L 4.921875 9.808594 C 4.921875 9.960938 5.050781 10.082031 5.210938 10.082031 L 5.242188 10.082031 C 5.398438 10.082031 5.527344 9.960938 5.527344 9.808594 L 5.527344 9.179688 C 5.527344 9.027344 5.398438 8.90625 5.242188 8.90625 Z M 4.875 9.421875 C 4.863281 9.421875 4.820312 9.4375 4.78125 9.457031 L 4.703125 9.492188 L 4.703125 11.484375 L 4.726562 11.515625 L 4.757812 11.535156 L 5.695312 11.519531 L 5.730469 11.492188 L 5.738281 10.511719 L 5.75 9.507812 L 5.683594 9.464844 C 5.648438 9.441406 5.605469 9.421875 5.585938 9.421875 L 5.574219 9.421875 L 5.574219 9.863281 C 5.574219 10.035156 5.425781 10.175781 5.242188 10.175781 L 5.207031 10.175781 C 5.023438 10.175781 4.878906 10.035156 4.878906 9.863281 L 4.878906 9.421875 Z M 5.210938 10.757812 C 5.386719 10.757812 5.53125 10.890625 5.53125 11.050781 C 5.53125 11.214844 5.386719 11.347656 5.210938 11.347656 C 5.03125 11.347656 4.886719 11.214844 4.886719 11.050781 C 4.886719 10.890625 5.03125 10.757812 5.210938 10.757812 Z M 5.210938 10.757812 "/>
</g>
</svg>
