
<svg xmlns="http://www.w3.org/2000/svg" xmlns:xlink="http://www.w3.org/1999/xlink" width="16px" height="16px" viewBox="0 0 16 16" version="1.1">
<defs>
<filter id="alpha" filterUnits="objectBoundingBox" x="0%" y="0%" width="100%" height="100%">
  <feColorMatrix type="matrix" in="SourceGraphic" values="0 0 0 0 1 0 0 0 0 1 0 0 0 0 1 0 0 0 1 0"/>
</filter>
<mask id="mask0">
  <g filter="url(#alpha)">
<rect x="0" y="0" width="16" height="16" style="fill:rgb(0%,0%,0%);fill-opacity:0.682353;stroke:none;"/>
  </g>
</mask>
<clipPath id="clip1">
  <rect x="0" y="0" width="16" height="16"/>
</clipPath>
<g id="surface5" clip-path="url(#clip1)">
<path style=" stroke:none;fill-rule:nonzero;fill:rgb(92.54902%,92.54902%,92.54902%);fill-opacity:1;" d="M 13.660156 3.175781 L 8.28125 0.863281 L 8.28125 1.226562 C 8.28125 2.308594 9.148438 3.175781 10.230469 3.175781 Z M 13.660156 3.175781 "/>
</g>
</defs>
<g id="surface1">
<path style=" stroke:none;fill-rule:nonzero;fill:rgb(100%,66.666667%,66.666667%);fill-opacity:1;" d="M 4.289062 0.863281 C 3.207031 0.863281 2.339844 1.734375 2.339844 2.8125 L 2.339844 13.1875 C 2.339844 14.265625 3.207031 15.136719 4.289062 15.136719 L 11.710938 15.136719 C 12.792969 15.136719 13.660156 14.265625 13.660156 13.1875 L 13.660156 3.175781 L 8.28125 0.863281 Z M 11.910156 0.875 C 12.042969 0.886719 12.171875 0.914062 12.292969 0.949219 C 12.171875 0.914062 12.042969 0.886719 11.910156 0.875 Z M 12.292969 0.949219 C 12.476562 1.007812 12.648438 1.089844 12.800781 1.195312 C 12.648438 1.089844 12.476562 1.007812 12.292969 0.949219 Z M 12.953125 1.308594 C 13 1.347656 13.046875 1.390625 13.089844 1.433594 C 13.046875 1.390625 13 1.347656 12.953125 1.308594 Z M 12.953125 1.308594 "/>
<use xlink:href="#surface5" mask="url(#mask0)"/>
</g>
</svg>
