
<svg xmlns="http://www.w3.org/2000/svg" xmlns:xlink="http://www.w3.org/1999/xlink" width="16px" height="16px" viewBox="0 0 16 16" version="1.1">
<g id="surface1">
<path style=" stroke:none;fill-rule:nonzero;fill:rgb(93.333333%,81.960784%,50.980392%);fill-opacity:1;" d="M 4.160156 0.394531 C 3.011719 0.394531 2.089844 1.316406 2.089844 2.460938 L 2.089844 13.457031 C 2.089844 14.601562 3.011719 15.523438 4.160156 15.523438 L 12.027344 15.523438 C 13.175781 15.523438 14.09375 14.601562 14.09375 13.457031 L 14.09375 2.847656 L 8.390625 0.394531 Z M 12.238281 0.40625 C 12.378906 0.417969 12.515625 0.445312 12.644531 0.484375 C 12.515625 0.445312 12.378906 0.417969 12.238281 0.40625 Z M 12.644531 0.484375 C 12.839844 0.546875 13.019531 0.632812 13.183594 0.746094 C 13.019531 0.632812 12.839844 0.546875 12.644531 0.484375 Z M 13.34375 0.863281 C 13.394531 0.90625 13.445312 0.953125 13.492188 1 C 13.445312 0.949219 13.394531 0.90625 13.34375 0.863281 Z M 13.34375 0.863281 "/>
<path style=" stroke:none;fill-rule:nonzero;fill:rgb(99.607843%,75.686275%,9.019608%);fill-opacity:1;" d="M 3.128906 0.679688 C 3.125 0.683594 3.121094 0.683594 3.117188 0.6875 L 3.117188 1.445312 L 3.882812 1.445312 L 3.882812 0.679688 Z M 4.25 0.679688 L 4.25 1.445312 L 5.015625 1.445312 L 5.015625 0.679688 Z M 5.382812 0.679688 L 5.382812 1.445312 L 6.148438 1.445312 L 6.148438 0.679688 Z M 6.519531 0.679688 L 6.519531 1.445312 L 7.28125 1.445312 L 7.28125 0.679688 Z M 7.652344 0.679688 L 7.652344 1.445312 L 8.414062 1.445312 L 8.414062 0.679688 Z M 8.785156 0.679688 L 8.785156 1.445312 L 9.550781 1.445312 L 9.550781 0.902344 L 9.03125 0.679688 Z M 13.34375 0.875 C 13.394531 0.917969 13.445312 0.960938 13.492188 1.007812 C 13.445312 0.960938 13.394531 0.917969 13.34375 0.875 Z M 2.746094 0.960938 C 2.597656 1.101562 2.46875 1.265625 2.363281 1.445312 L 2.746094 1.445312 Z M 9.917969 1.0625 L 9.917969 1.445312 L 10.683594 1.445312 L 10.683594 1.390625 Z M 2.199219 1.8125 C 2.132812 2.019531 2.089844 2.242188 2.089844 2.472656 L 2.089844 2.578125 L 2.746094 2.578125 L 2.746094 1.8125 Z M 3.117188 1.8125 L 3.117188 2.578125 L 3.882812 2.578125 L 3.882812 1.8125 Z M 4.25 1.8125 L 4.25 2.578125 L 5.015625 2.578125 L 5.015625 1.8125 Z M 5.382812 1.8125 L 5.382812 2.578125 L 6.148438 2.578125 L 6.148438 1.8125 Z M 6.519531 1.8125 L 6.519531 2.578125 L 7.28125 2.578125 L 7.28125 1.8125 Z M 7.652344 1.8125 L 7.652344 2.578125 L 8.414062 2.578125 L 8.414062 1.8125 Z M 8.785156 1.8125 L 8.785156 2.578125 L 9.550781 2.578125 L 9.550781 1.8125 Z M 9.917969 1.8125 L 9.917969 2.578125 L 10.683594 2.578125 L 10.683594 1.8125 Z M 11.050781 1.8125 L 11.050781 2.578125 L 11.816406 2.578125 L 11.816406 1.878906 L 11.667969 1.8125 Z M 12.1875 2.035156 L 12.1875 2.578125 L 12.949219 2.578125 L 12.949219 2.363281 Z M 13.320312 2.523438 L 13.320312 2.578125 L 13.449219 2.578125 Z M 2.089844 2.949219 L 2.089844 3.710938 L 2.746094 3.710938 L 2.746094 2.949219 Z M 3.117188 2.949219 L 3.117188 3.710938 L 3.882812 3.710938 L 3.882812 2.949219 Z M 4.25 2.949219 L 4.25 3.710938 L 5.015625 3.710938 L 5.015625 2.949219 Z M 5.382812 2.949219 L 5.382812 3.710938 L 6.148438 3.710938 L 6.148438 2.949219 Z M 6.519531 2.949219 L 6.519531 3.710938 L 7.28125 3.710938 L 7.28125 2.949219 Z M 7.652344 2.949219 L 7.652344 3.710938 L 8.414062 3.710938 L 8.414062 2.949219 Z M 8.785156 2.949219 L 8.785156 3.710938 L 9.550781 3.710938 L 9.550781 2.949219 Z M 9.917969 2.949219 L 9.917969 3.710938 L 10.683594 3.710938 L 10.683594 2.949219 Z M 11.050781 2.949219 L 11.050781 3.710938 L 11.816406 3.710938 L 11.816406 2.949219 Z M 12.1875 2.949219 L 12.1875 3.710938 L 12.949219 3.710938 L 12.949219 2.949219 Z M 13.320312 2.949219 L 13.320312 3.710938 L 14.085938 3.710938 L 14.085938 2.949219 Z M 2.089844 4.082031 L 2.089844 4.847656 L 2.746094 4.847656 L 2.746094 4.082031 Z M 3.117188 4.082031 L 3.117188 4.847656 L 3.882812 4.847656 L 3.882812 4.082031 Z M 4.25 4.082031 L 4.25 4.847656 L 5.015625 4.847656 L 5.015625 4.082031 Z M 5.382812 4.082031 L 5.382812 4.847656 L 6.148438 4.847656 L 6.148438 4.082031 Z M 6.519531 4.082031 L 6.519531 4.847656 L 7.28125 4.847656 L 7.28125 4.082031 Z M 7.652344 4.082031 L 7.652344 4.847656 L 8.414062 4.847656 L 8.414062 4.082031 Z M 8.785156 4.082031 L 8.785156 4.847656 L 9.550781 4.847656 L 9.550781 4.082031 Z M 9.917969 4.082031 L 9.917969 4.847656 L 10.683594 4.847656 L 10.683594 4.082031 Z M 11.050781 4.082031 L 11.050781 4.847656 L 11.816406 4.847656 L 11.816406 4.082031 Z M 12.1875 4.082031 L 12.1875 4.847656 L 12.949219 4.847656 L 12.949219 4.082031 Z M 13.320312 4.082031 L 13.320312 4.847656 L 14.085938 4.847656 L 14.085938 4.082031 Z M 2.089844 5.214844 L 2.089844 5.980469 L 2.746094 5.980469 L 2.746094 5.214844 Z M 3.117188 5.214844 L 3.117188 5.980469 L 3.882812 5.980469 L 3.882812 5.214844 Z M 4.25 5.214844 L 4.25 5.980469 L 5.015625 5.980469 L 5.015625 5.214844 Z M 5.382812 5.214844 L 5.382812 5.980469 L 6.148438 5.980469 L 6.148438 5.214844 Z M 6.519531 5.214844 L 6.519531 5.980469 L 7.28125 5.980469 L 7.28125 5.214844 Z M 7.652344 5.214844 L 7.652344 5.980469 L 8.414062 5.980469 L 8.414062 5.214844 Z M 8.785156 5.214844 L 8.785156 5.980469 L 9.550781 5.980469 L 9.550781 5.214844 Z M 9.917969 5.214844 L 9.917969 5.980469 L 10.683594 5.980469 L 10.683594 5.214844 Z M 11.050781 5.214844 L 11.050781 5.980469 L 11.816406 5.980469 L 11.816406 5.214844 Z M 12.1875 5.214844 L 12.1875 5.980469 L 12.949219 5.980469 L 12.949219 5.214844 Z M 13.320312 5.214844 L 13.320312 5.980469 L 14.085938 5.980469 L 14.085938 5.214844 Z M 2.089844 6.347656 L 2.089844 7.113281 L 2.746094 7.113281 L 2.746094 6.347656 Z M 3.117188 6.347656 L 3.117188 7.113281 L 3.882812 7.113281 L 3.882812 6.347656 Z M 4.25 6.347656 L 4.25 7.113281 L 5.015625 7.113281 L 5.015625 6.347656 Z M 5.382812 6.347656 L 5.382812 7.113281 L 6.148438 7.113281 L 6.148438 6.347656 Z M 6.519531 6.347656 L 6.519531 7.113281 L 7.28125 7.113281 L 7.28125 6.347656 Z M 7.652344 6.347656 L 7.652344 7.113281 L 8.414062 7.113281 L 8.414062 6.347656 Z M 8.785156 6.347656 L 8.785156 7.113281 L 9.550781 7.113281 L 9.550781 6.347656 Z M 9.917969 6.347656 L 9.917969 7.113281 L 10.683594 7.113281 L 10.683594 6.347656 Z M 11.050781 6.347656 L 11.050781 7.113281 L 11.816406 7.113281 L 11.816406 6.347656 Z M 12.1875 6.347656 L 12.1875 7.113281 L 12.949219 7.113281 L 12.949219 6.347656 Z M 13.320312 6.347656 L 13.320312 7.113281 L 14.085938 7.113281 L 14.085938 6.347656 Z M 2.089844 7.480469 L 2.089844 8.246094 L 2.746094 8.246094 L 2.746094 7.480469 Z M 3.117188 7.480469 L 3.117188 8.246094 L 3.882812 8.246094 L 3.882812 7.480469 Z M 4.25 7.480469 L 4.25 8.246094 L 5.015625 8.246094 L 5.015625 7.480469 Z M 5.382812 7.480469 L 5.382812 8.246094 L 6.148438 8.246094 L 6.148438 7.480469 Z M 6.519531 7.480469 L 6.519531 8.246094 L 7.28125 8.246094 L 7.28125 7.480469 Z M 7.652344 7.480469 L 7.652344 8.246094 L 8.414062 8.246094 L 8.414062 7.480469 Z M 8.785156 7.480469 L 8.785156 8.246094 L 9.550781 8.246094 L 9.550781 7.480469 Z M 9.917969 7.480469 L 9.917969 8.246094 L 10.683594 8.246094 L 10.683594 7.480469 Z M 11.050781 7.480469 L 11.050781 8.246094 L 11.816406 8.246094 L 11.816406 7.480469 Z M 12.1875 7.480469 L 12.1875 8.246094 L 12.949219 8.246094 L 12.949219 7.480469 Z M 13.320312 7.480469 L 13.320312 8.246094 L 14.085938 8.246094 L 14.085938 7.480469 Z M 2.089844 8.617188 L 2.089844 9.378906 L 2.746094 9.378906 L 2.746094 8.617188 Z M 3.117188 8.617188 L 3.117188 9.378906 L 3.882812 9.378906 L 3.882812 8.617188 Z M 4.25 8.617188 L 4.25 9.378906 L 5.015625 9.378906 L 5.015625 8.617188 Z M 5.382812 8.617188 L 5.382812 9.378906 L 6.148438 9.378906 L 6.148438 8.617188 Z M 6.519531 8.617188 L 6.519531 9.378906 L 7.28125 9.378906 L 7.28125 8.617188 Z M 7.652344 8.617188 L 7.652344 9.378906 L 8.414062 9.378906 L 8.414062 8.617188 Z M 8.785156 8.617188 L 8.785156 9.378906 L 9.550781 9.378906 L 9.550781 8.617188 Z M 9.917969 8.617188 L 9.917969 9.378906 L 10.683594 9.378906 L 10.683594 8.617188 Z M 11.050781 8.617188 L 11.050781 9.378906 L 11.816406 9.378906 L 11.816406 8.617188 Z M 12.1875 8.617188 L 12.1875 9.378906 L 12.949219 9.378906 L 12.949219 8.617188 Z M 13.320312 8.617188 L 13.320312 9.378906 L 14.085938 9.378906 L 14.085938 8.617188 Z M 2.089844 9.75 L 2.089844 10.515625 L 2.746094 10.515625 L 2.746094 9.75 Z M 3.117188 9.75 L 3.117188 10.515625 L 3.882812 10.515625 L 3.882812 9.75 Z M 4.25 9.75 L 4.25 10.515625 L 5.015625 10.515625 L 5.015625 9.75 Z M 5.382812 9.75 L 5.382812 10.515625 L 6.148438 10.515625 L 6.148438 9.75 Z M 6.519531 9.75 L 6.519531 10.515625 L 7.28125 10.515625 L 7.28125 9.75 Z M 7.652344 9.75 L 7.652344 10.515625 L 8.414062 10.515625 L 8.414062 9.75 Z M 8.785156 9.75 L 8.785156 10.515625 L 9.550781 10.515625 L 9.550781 9.75 Z M 9.917969 9.75 L 9.917969 10.515625 L 10.683594 10.515625 L 10.683594 9.75 Z M 11.050781 9.75 L 11.050781 10.515625 L 11.816406 10.515625 L 11.816406 9.75 Z M 12.1875 9.75 L 12.1875 10.515625 L 12.949219 10.515625 L 12.949219 9.75 Z M 13.320312 9.75 L 13.320312 10.515625 L 14.085938 10.515625 L 14.085938 9.75 Z M 2.089844 10.882812 L 2.089844 11.648438 L 2.746094 11.648438 L 2.746094 10.882812 Z M 3.117188 10.882812 L 3.117188 11.648438 L 3.882812 11.648438 L 3.882812 10.882812 Z M 4.25 10.882812 L 4.25 11.648438 L 5.015625 11.648438 L 5.015625 10.882812 Z M 5.382812 10.882812 L 5.382812 11.648438 L 6.148438 11.648438 L 6.148438 10.882812 Z M 6.519531 10.882812 L 6.519531 11.648438 L 7.28125 11.648438 L 7.28125 10.882812 Z M 7.652344 10.882812 L 7.652344 11.648438 L 8.414062 11.648438 L 8.414062 10.882812 Z M 8.785156 10.882812 L 8.785156 11.648438 L 9.550781 11.648438 L 9.550781 10.882812 Z M 9.917969 10.882812 L 9.917969 11.648438 L 10.683594 11.648438 L 10.683594 10.882812 Z M 11.050781 10.882812 L 11.050781 11.648438 L 11.816406 11.648438 L 11.816406 10.882812 Z M 12.1875 10.882812 L 12.1875 11.648438 L 12.949219 11.648438 L 12.949219 10.882812 Z M 13.320312 10.882812 L 13.320312 11.648438 L 14.085938 11.648438 L 14.085938 10.882812 Z M 2.089844 12.015625 L 2.089844 12.78125 L 2.746094 12.78125 L 2.746094 12.015625 Z M 3.117188 12.015625 L 3.117188 12.78125 L 3.882812 12.78125 L 3.882812 12.015625 Z M 4.25 12.015625 L 4.25 12.78125 L 5.015625 12.78125 L 5.015625 12.015625 Z M 5.382812 12.015625 L 5.382812 12.78125 L 6.148438 12.78125 L 6.148438 12.015625 Z M 6.519531 12.015625 L 6.519531 12.78125 L 7.28125 12.78125 L 7.28125 12.015625 Z M 7.652344 12.015625 L 7.652344 12.78125 L 8.414062 12.78125 L 8.414062 12.015625 Z M 8.785156 12.015625 L 8.785156 12.78125 L 9.550781 12.78125 L 9.550781 12.015625 Z M 9.917969 12.015625 L 9.917969 12.78125 L 10.683594 12.78125 L 10.683594 12.015625 Z M 11.050781 12.015625 L 11.050781 12.78125 L 11.816406 12.78125 L 11.816406 12.015625 Z M 12.1875 12.015625 L 12.1875 12.78125 L 12.949219 12.78125 L 12.949219 12.015625 Z M 13.320312 12.015625 L 13.320312 12.78125 L 14.085938 12.78125 L 14.085938 12.015625 Z M 2.089844 13.148438 L 2.089844 13.46875 C 2.089844 13.621094 2.109375 13.769531 2.140625 13.914062 L 2.746094 13.914062 L 2.746094 13.148438 Z M 3.117188 13.148438 L 3.117188 13.914062 L 3.882812 13.914062 L 3.882812 13.148438 Z M 4.25 13.148438 L 4.25 13.914062 L 5.015625 13.914062 L 5.015625 13.148438 Z M 5.382812 13.148438 L 5.382812 13.914062 L 6.148438 13.914062 L 6.148438 13.148438 Z M 6.519531 13.148438 L 6.519531 13.914062 L 7.28125 13.914062 L 7.28125 13.148438 Z M 7.652344 13.148438 L 7.652344 13.914062 L 8.414062 13.914062 L 8.414062 13.148438 Z M 8.785156 13.148438 L 8.785156 13.914062 L 9.550781 13.914062 L 9.550781 13.148438 Z M 9.917969 13.148438 L 9.917969 13.914062 L 10.683594 13.914062 L 10.683594 13.148438 Z M 11.050781 13.148438 L 11.050781 13.914062 L 11.816406 13.914062 L 11.816406 13.148438 Z M 12.1875 13.148438 L 12.1875 13.914062 L 12.949219 13.914062 L 12.949219 13.148438 Z M 13.320312 13.148438 L 13.320312 13.914062 L 14.046875 13.914062 C 14.0625 13.839844 14.074219 13.765625 14.085938 13.6875 L 14.085938 13.148438 Z M 2.257812 14.285156 C 2.371094 14.550781 2.539062 14.785156 2.746094 14.976562 L 2.746094 14.285156 Z M 3.117188 14.285156 L 3.117188 15.046875 L 3.882812 15.046875 L 3.882812 14.285156 Z M 4.25 14.285156 L 4.25 15.046875 L 5.015625 15.046875 L 5.015625 14.285156 Z M 5.382812 14.285156 L 5.382812 15.046875 L 6.148438 15.046875 L 6.148438 14.285156 Z M 6.519531 14.285156 L 6.519531 15.046875 L 7.28125 15.046875 L 7.28125 14.285156 Z M 7.652344 14.285156 L 7.652344 15.046875 L 8.414062 15.046875 L 8.414062 14.285156 Z M 8.785156 14.285156 L 8.785156 15.046875 L 9.550781 15.046875 L 9.550781 14.285156 Z M 9.917969 14.285156 L 9.917969 15.046875 L 10.683594 15.046875 L 10.683594 14.285156 Z M 11.050781 14.285156 L 11.050781 15.046875 L 11.816406 15.046875 L 11.816406 14.285156 Z M 12.1875 14.285156 L 12.1875 15.046875 L 12.949219 15.046875 L 12.949219 14.285156 Z M 13.320312 14.285156 L 13.320312 15.046875 L 13.363281 15.046875 C 13.605469 14.84375 13.800781 14.582031 13.929688 14.285156 Z M 3.476562 15.417969 C 3.605469 15.464844 3.742188 15.496094 3.882812 15.515625 L 3.882812 15.417969 Z M 4.25 15.417969 L 4.25 15.535156 L 5.015625 15.535156 L 5.015625 15.417969 Z M 5.382812 15.417969 L 5.382812 15.535156 L 6.148438 15.535156 L 6.148438 15.417969 Z M 6.519531 15.417969 L 6.519531 15.535156 L 7.28125 15.535156 L 7.28125 15.417969 Z M 7.652344 15.417969 L 7.652344 15.535156 L 8.414062 15.535156 L 8.414062 15.417969 Z M 8.785156 15.417969 L 8.785156 15.535156 L 9.550781 15.535156 L 9.550781 15.417969 Z M 9.917969 15.417969 L 9.917969 15.535156 L 10.683594 15.535156 L 10.683594 15.417969 Z M 11.050781 15.417969 L 11.050781 15.535156 L 11.816406 15.535156 L 11.816406 15.417969 Z M 12.1875 15.417969 L 12.1875 15.527344 C 12.371094 15.511719 12.546875 15.476562 12.710938 15.417969 Z M 12.1875 15.417969 "/>
<path style=" stroke:none;fill-rule:nonzero;fill:rgb(100%,100%,100%);fill-opacity:1;" d="M 14.09375 2.847656 L 8.390625 0.394531 L 8.390625 0.777344 C 8.390625 1.925781 9.3125 2.847656 10.457031 2.847656 Z M 14.09375 2.847656 "/>
<path style=" stroke:none;fill-rule:nonzero;fill:rgb(100%,100%,100%);fill-opacity:1;" d="M 9.765625 6.117188 C 9.589844 6.117188 9.4375 6.207031 9.355469 6.347656 L 7.617188 6.347656 C 7.617188 6.347656 7.269531 6.339844 6.914062 6.511719 C 6.558594 6.683594 6.179688 7.074219 6.179688 7.726562 C 6.179688 8.382812 6.558594 8.773438 6.914062 8.945312 C 7.082031 9.027344 7.246094 9.0625 7.375 9.082031 L 7.375 9.183594 L 6.71875 9.816406 C 6.699219 9.8125 6.679688 9.804688 6.660156 9.804688 C 6.527344 9.804688 6.421875 9.90625 6.421875 10.03125 C 6.421875 10.160156 6.527344 10.265625 6.660156 10.265625 C 6.792969 10.265625 6.898438 10.160156 6.898438 10.03125 C 6.898438 10.011719 6.890625 9.996094 6.882812 9.976562 L 7.539062 9.34375 L 8.332031 9.34375 L 8.332031 9.113281 L 8.570312 9.113281 C 8.570312 9.113281 8.824219 9.117188 9.066406 9.234375 C 9.304688 9.351562 9.527344 9.535156 9.527344 10.03125 C 9.527344 10.53125 9.304688 10.714844 9.066406 10.832031 C 8.824219 10.949219 8.570312 10.957031 8.570312 10.957031 L 6.832031 10.957031 C 6.75 10.816406 6.597656 10.722656 6.421875 10.722656 C 6.15625 10.722656 5.941406 10.933594 5.941406 11.1875 C 5.941406 11.441406 6.15625 11.648438 6.421875 11.648438 C 6.597656 11.648438 6.75 11.554688 6.832031 11.417969 L 8.570312 11.417969 C 8.570312 11.417969 8.917969 11.421875 9.273438 11.25 C 9.628906 11.078125 10.003906 10.6875 10.003906 10.03125 C 10.003906 9.378906 9.628906 8.988281 9.273438 8.816406 C 8.917969 8.644531 8.570312 8.652344 8.570312 8.652344 L 8.332031 8.652344 L 8.332031 8.578125 L 8.988281 7.945312 C 9.011719 7.949219 9.027344 7.960938 9.050781 7.960938 C 9.183594 7.960938 9.289062 7.855469 9.289062 7.726562 C 9.289062 7.601562 9.183594 7.5 9.050781 7.5 C 8.917969 7.5 8.8125 7.601562 8.8125 7.726562 C 8.8125 7.75 8.820312 7.765625 8.824219 7.785156 L 8.167969 8.421875 L 7.378906 8.421875 L 7.378906 8.613281 C 7.296875 8.597656 7.210938 8.570312 7.121094 8.527344 C 6.882812 8.410156 6.660156 8.226562 6.660156 7.726562 C 6.660156 7.230469 6.882812 7.046875 7.121094 6.929688 C 7.363281 6.8125 7.617188 6.808594 7.617188 6.808594 L 9.355469 6.808594 C 9.4375 6.945312 9.589844 7.039062 9.765625 7.039062 C 10.03125 7.039062 10.242188 6.832031 10.242188 6.574219 C 10.242188 6.324219 10.03125 6.117188 9.765625 6.117188 Z M 9.765625 6.117188 "/>
</g>
</svg>
