
<svg xmlns="http://www.w3.org/2000/svg" xmlns:xlink="http://www.w3.org/1999/xlink" width="16px" height="16px" viewBox="0 0 16 16" version="1.1">
<defs>
<filter id="alpha" filterUnits="objectBoundingBox" x="0%" y="0%" width="100%" height="100%">
  <feColorMatrix type="matrix" in="SourceGraphic" values="0 0 0 0 1 0 0 0 0 1 0 0 0 0 1 0 0 0 1 0"/>
</filter>
<mask id="mask0">
  <g filter="url(#alpha)">
<rect x="0" y="0" width="16" height="16" style="fill:rgb(0%,0%,0%);fill-opacity:0.682353;stroke:none;"/>
  </g>
</mask>
<clipPath id="clip1">
  <rect x="0" y="0" width="16" height="16"/>
</clipPath>
<g id="surface5" clip-path="url(#clip1)">
<path style=" stroke:none;fill-rule:nonzero;fill:rgb(36.862745%,36.470588%,33.72549%);fill-opacity:1;" d="M 13.660156 3.175781 L 8.28125 0.863281 L 8.28125 1.226562 C 8.28125 2.308594 9.148438 3.175781 10.230469 3.175781 Z M 13.660156 3.175781 "/>
</g>
<mask id="mask1">
  <g filter="url(#alpha)">
<rect x="0" y="0" width="16" height="16" style="fill:rgb(0%,0%,0%);fill-opacity:0.6;stroke:none;"/>
  </g>
</mask>
<clipPath id="clip2">
  <rect x="0" y="0" width="16" height="16"/>
</clipPath>
<g id="surface8" clip-path="url(#clip2)">
<path style=" stroke:none;fill-rule:nonzero;fill:rgb(0%,0%,0%);fill-opacity:1;" d="M 4.144531 4.21875 L 4.144531 7.316406 L 9.175781 7.316406 L 9.175781 4.21875 Z M 4.339844 4.414062 L 8.984375 4.414062 L 8.984375 7.121094 L 4.339844 7.121094 Z M 4.53125 4.605469 L 4.53125 6.929688 L 4.917969 6.929688 L 4.917969 5.152344 L 5.691406 5.925781 L 6.46875 5.152344 L 6.46875 6.929688 L 6.855469 6.929688 L 6.855469 4.605469 L 6.46875 4.605469 L 5.695312 5.378906 L 4.917969 4.605469 Z M 7.820312 4.605469 L 7.820312 6.15625 L 7.242188 6.15625 L 8.015625 6.929688 L 8.789062 6.15625 L 8.207031 6.15625 L 8.207031 4.605469 Z M 7.820312 4.605469 "/>
</g>
</defs>
<g id="surface1">
<path style=" stroke:none;fill-rule:nonzero;fill:rgb(92.54902%,91.372549%,84.705882%);fill-opacity:1;" d="M 4.289062 0.863281 C 3.207031 0.863281 2.339844 1.734375 2.339844 2.8125 L 2.339844 13.183594 C 2.339844 14.265625 3.207031 15.136719 4.289062 15.136719 L 11.710938 15.136719 C 12.792969 15.136719 13.660156 14.265625 13.660156 13.183594 L 13.660156 3.175781 L 8.28125 0.863281 Z M 11.910156 0.875 C 12.042969 0.886719 12.171875 0.914062 12.292969 0.953125 C 12.171875 0.914062 12.042969 0.886719 11.910156 0.875 Z M 12.292969 0.953125 C 12.476562 1.007812 12.648438 1.089844 12.800781 1.195312 C 12.648438 1.089844 12.476562 1.007812 12.292969 0.953125 Z M 12.953125 1.308594 C 13 1.347656 13.046875 1.390625 13.089844 1.433594 C 13.046875 1.390625 13 1.347656 12.953125 1.308594 Z M 12.953125 1.308594 "/>
<use xlink:href="#surface5" mask="url(#mask0)"/>
<path style=" stroke:none;fill-rule:nonzero;fill:rgb(54.509804%,53.72549%,50.196078%);fill-opacity:1;" d="M 7.738281 8.140625 L 9.722656 8.140625 C 9.8125 8.140625 9.890625 8.21875 9.890625 8.316406 L 9.890625 9.996094 C 9.890625 10.089844 9.8125 10.167969 9.722656 10.167969 L 7.738281 10.167969 C 7.644531 10.167969 7.570312 10.089844 7.570312 9.996094 L 7.570312 8.316406 C 7.570312 8.21875 7.644531 8.140625 7.738281 8.140625 Z M 7.738281 8.140625 "/>
<path style="fill:none;stroke-width:0.869565;stroke-linecap:round;stroke-linejoin:round;stroke:rgb(0%,0%,0%);stroke-opacity:0.298039;stroke-miterlimit:4;" d="M 31.839844 24.855469 L 36.1875 24.855469 " transform="matrix(0.333333,0,0,0.333333,0,0)"/>
<path style="fill:none;stroke-width:0.869565;stroke-linecap:round;stroke-linejoin:round;stroke:rgb(0%,0%,0%);stroke-opacity:0.298039;stroke-miterlimit:4;" d="M 31.839844 27.46875 L 36.1875 27.46875 " transform="matrix(0.333333,0,0,0.333333,0,0)"/>
<path style="fill:none;stroke-width:0.869565;stroke-linecap:round;stroke-linejoin:round;stroke:rgb(0%,0%,0%);stroke-opacity:0.298039;stroke-miterlimit:4;" d="M 31.839844 30.070312 L 36.1875 30.070312 " transform="matrix(0.333333,0,0,0.333333,0,0)"/>
<path style="fill:none;stroke-width:0.869565;stroke-linecap:round;stroke-linejoin:round;stroke:rgb(0%,0%,0%);stroke-opacity:0.298039;stroke-miterlimit:4;" d="M 22.710938 32.683594 L 36.621094 32.683594 " transform="matrix(0.333333,0,0,0.333333,0,0)"/>
<path style="fill:none;stroke-width:0.869565;stroke-linecap:round;stroke-linejoin:round;stroke:rgb(0%,0%,0%);stroke-opacity:0.298039;stroke-miterlimit:4;" d="M 22.710938 35.296875 L 36.621094 35.296875 " transform="matrix(0.333333,0,0,0.333333,0,0)"/>
<path style="fill:none;stroke-width:0.869565;stroke-linecap:round;stroke-linejoin:round;stroke:rgb(0%,0%,0%);stroke-opacity:0.298039;stroke-miterlimit:4;" d="M 22.710938 37.898438 L 36.621094 37.898438 " transform="matrix(0.333333,0,0,0.333333,0,0)"/>
<path style="fill:none;stroke-width:0.869565;stroke-linecap:round;stroke-linejoin:round;stroke:rgb(0%,0%,0%);stroke-opacity:0.298039;stroke-miterlimit:4;" d="M 22.710938 40.511719 L 36.621094 40.511719 " transform="matrix(0.333333,0,0,0.333333,0,0)"/>
<use xlink:href="#surface8" mask="url(#mask1)"/>
</g>
</svg>
