<svg xmlns="http://www.w3.org/2000/svg" width="16" height="16"><path style="fill:#ccc;fill-opacity:1" d="M9.75 1037.446c-.738 0-1.346.677-1.467 1.572h5.84c-.12-.895-.728-1.572-1.466-1.572H9.75z" transform="translate(0 -1036.362)"/><path style="opacity:1;fill:gray;fill-opacity:1" d="M1.83 2.908c-.98 0-1.768.789-1.768 1.768v8.472c0 .98.789 1.768 1.768 1.768h12.34c.98 0 1.768-.788 1.768-1.768V4.676c0-.98-.789-1.768-1.768-1.768H1.83zm.772.75h10.796c.857 0 1.547.69 1.547 1.547v7.414c0 .857-.69 1.547-1.547 1.547H2.602c-.857 0-1.547-.69-1.547-1.547V5.205c0-.857.69-1.547 1.547-1.547z"/></svg>