<svg xmlns="http://www.w3.org/2000/svg" width="16" height="16"><path style="color:#000;clip-rule:nonzero;display:inline;overflow:visible;visibility:visible;opacity:1;isolation:auto;mix-blend-mode:normal;color-interpolation:sRGB;color-interpolation-filters:linearRGB;solid-color:#000;solid-opacity:1;fill:#bebebe;fill-opacity:1;fill-rule:nonzero;stroke:none;stroke-width:1;stroke-linecap:butt;stroke-linejoin:miter;stroke-miterlimit:4;stroke-dasharray:none;stroke-dashoffset:0;stroke-opacity:1;color-rendering:auto;image-rendering:auto;shape-rendering:auto;text-rendering:auto;enable-background:accumulate" d="M6 2C3.784 2 2 3.784 2 6s1.784 4 4 4c.926 0 1.767-.325 2.443-.85l4.85 4.85.707-.707-4.85-4.85C9.675 7.767 10 6.926 10 6c0-2.216-1.784-4-4-4zm0 1a2.993 2.993 0 0 1 2.443 4.736c-.019.027-.044.048-.064.075a2.98 2.98 0 0 1-.568.568c-.027.02-.048.045-.075.064A2.986 2.986 0 0 1 6 9C4.338 9 3 7.662 3 6s1.338-3 3-3z"/></svg>