<svg xmlns="http://www.w3.org/2000/svg" width="16" height="16"><path style="fill:#ccc;fill-opacity:1" d="M9.75 1037.446c-.738 0-1.346.677-1.467 1.572h5.84c-.12-.895-.728-1.572-1.466-1.572H9.75z" transform="translate(0 -1036.362)"/><path style="opacity:1;fill:#333;fill-opacity:1;stroke:none;stroke-opacity:1" d="M2 1041.362h3v2H2zm9.023-.039h3v2h-3zm-6.97 6.042h3v2h-3z" transform="translate(0 -1036.362)"/><path style="opacity:1;fill:#333;fill-opacity:1;stroke:none;stroke-opacity:1" d="M4.109 1042.098h8.239v.613H4.109z" transform="translate(0 -1036.362)"/><path style="opacity:1;fill:#333;fill-opacity:1;stroke:none;stroke-opacity:1" transform="rotate(60 897.516 -518.181)" d="M903.765 518.35h7.658v.613h-7.658z"/><path style="opacity:1;fill:#333;fill-opacity:1;stroke:none;stroke-opacity:1" transform="rotate(135 214.638 -518.181)" d="M729.563-744.969h8.239v.613h-8.239z"/><path d="M9.75 1033.446c-.738 0-1.346.677-1.467 1.572h5.84c-.12-.895-.728-1.572-1.466-1.572H9.75z" style="fill:#ccc;fill-opacity:1" transform="translate(0 -1032.362)"/><path d="M1.83 1035.27c-.98 0-1.768.789-1.768 1.768v8.472c0 .98.789 1.768 1.768 1.768h12.34c.98 0 1.767-.788 1.767-1.767v-8.473c0-.98-.788-1.768-1.767-1.768H1.83zm.772.75h10.796c.857 0 1.547.69 1.547 1.547v7.414c0 .857-.69 1.547-1.547 1.547H2.602c-.857 0-1.547-.69-1.547-1.547v-7.414c0-.857.69-1.547 1.547-1.547z" style="opacity:1;fill:gray;fill-opacity:1" transform="translate(0 -1032.362)"/></svg>