<svg xmlns="http://www.w3.org/2000/svg" width="16" height="16"><path style="color:#000;clip-rule:nonzero;display:inline;overflow:visible;visibility:visible;opacity:1;isolation:auto;mix-blend-mode:normal;color-interpolation:sRGB;color-interpolation-filters:linearRGB;solid-color:#000;solid-opacity:1;fill:#bebebe;fill-opacity:1;fill-rule:nonzero;stroke:none;stroke-width:1;stroke-linecap:butt;stroke-linejoin:miter;stroke-miterlimit:4;stroke-dasharray:none;stroke-dashoffset:0;stroke-opacity:1;color-rendering:auto;image-rendering:auto;shape-rendering:auto;text-rendering:auto;enable-background:accumulate" d="M2 2v9h4v1H2v1h4v1h4v-1h4v-1h-4v-1h4V2H2zm9.5 1a.499.499 0 1 1 0 1 .499.499 0 1 1 0-1zM3 5h10v1H3V5zm8.5 2a.499.499 0 1 1 0 1 .499.499 0 1 1 0-1zM3 9h10v1H3V9zm4 3h2v1H7v-1z"/></svg>