<svg xmlns="http://www.w3.org/2000/svg" width="16" height="16"><g style="fill:#bebebe;fill-opacity:1"><path d="M24 36.429c-1.262 0-2.387.53-3.214 1.357L24 41l3.214-3.214c-.827-.828-1.952-1.357-3.214-1.357zm0-9.143c-3.785 0-7.196 1.553-9.679 4.035l3.215 3.215A9.115 9.115 0 0 1 24 31.857a9.115 9.115 0 0 1 6.464 2.679l3.215-3.215c-2.483-2.482-5.894-4.035-9.679-4.035z" style="color:#303030;display:inline;overflow:visible;visibility:visible;fill:#bebebe;fill-opacity:1;fill-rule:nonzero;stroke:none;stroke-width:3.125;marker:none;enable-background:accumulate" transform="translate(-.116 -.455) scale(.33818)"/><path d="M24 18.143c-6.309 0-12.006 2.577-16.143 6.714l3.214 3.214A18.23 18.23 0 0 1 24 22.714a18.23 18.23 0 0 1 12.929 5.357l3.214-3.214C36.006 20.72 30.309 18.143 24 18.143z" style="color:#303030;display:inline;overflow:visible;visibility:visible;fill:#bebebe;fill-opacity:1;fill-rule:nonzero;stroke:none;stroke-width:3.125;marker:none;enable-background:accumulate" transform="translate(-.116 -.455) scale(.33818)"/><path d="M24 9c-8.832 0-16.815 3.6-22.607 9.393l3.214 3.214C9.572 16.643 16.43 13.571 24 13.571s14.428 3.072 19.393 8.036l3.214-3.214C40.815 12.6 32.832 9 24 9z" style="color:#303030;display:inline;overflow:visible;visibility:visible;fill:#bebebe;fill-opacity:1;fill-rule:nonzero;stroke:none;stroke-width:3.125;marker:none;enable-background:accumulate" transform="translate(-.116 -.455) scale(.33818)"/></g></svg>