<svg height="16" style="enable-background:new" width="16" xmlns="http://www.w3.org/2000/svg"><g style="display:inline"><path d="M526 207c-1.031.063-1 1-1 1v12s-.031.938 1 1h12c1 0 1-1 1-1v-12s0-1-1-1h-5.531l.312.375 1.313 1.625H537v7h-3c0 1.108-.892 2-2 2s-2-.892-2-2h-3v-7h2.906l1.313-1.625.312-.375H526z" style="fill:#555;fill-opacity:1;fill-rule:evenodd;stroke:none" transform="translate(-524 -206)"/><path d="M530 215v-2h-2l4-5 4 5h-2v2z" style="fill:#555;fill-opacity:1;stroke:none" transform="translate(-524 -206)"/></g></svg>