<svg xmlns="http://www.w3.org/2000/svg" width="16" height="16"><path style="fill:#bebebe;fill-opacity:1;fill-rule:evenodd;stroke:none;stroke-width:1px;stroke-linecap:butt;stroke-linejoin:miter;stroke-opacity:1" d="m8 1037.689-6.673 8.342h1.668L8 1039.357l5.005 6.674h-1.501v5.005h1.668v-5.005h1.501L8 1037.689zm-5.005 8.342v5.005h1.668v-5.005H2.995zm8.342-8.342v3.336l1.668 2.002v-5.338h-1.668zM8 1042.527a1.168 1.168 0 0 0-1.168 1.168A1.168 1.168 0 0 0 8 1044.863a1.168 1.168 0 0 0 1.168-1.168A1.168 1.168 0 0 0 8 1042.527zm-2.503 6.84v1.669h5.006v-1.669H5.497z" transform="translate(0 -1036.362)"/></svg>