<svg xmlns="http://www.w3.org/2000/svg" width="22" height="22"><g style="opacity:.3"><path d="M7.995 6 4.997 9v6l2.998 3L8 14l2-2-2-2z"/><path d="M2 9c-.524 0-1 .498-1 1v4c0 .58.433 1 1 1h3.996V9z"/></g><path style="fill:#dcdcdc" d="M8 5 4.997 8v6L8 17v-4l2-2-2-2z"/><path style="fill:#dcdcdc" d="M2 8c-.523 0-1 .498-1 1v4c0 .58.434 1 1 1h3.996V8z"/><path d="M12.492 7 11 8.492 14.508 12 11 15.508 12.492 17 16 13.492 19.508 17 21 15.508 17.492 12 21 8.492 19.508 7 16 10.508z" style="opacity:.15;color:#000;fill:#000;fill-opacity:1"/><path style="opacity:.5;color:#000;fill:#dcdcdc" d="M12.492 6 11 7.492 14.508 11 11 14.508 12.492 16 16 12.492 19.508 16 21 14.508 17.492 11 21 7.492 19.508 6 16 9.508z"/></svg>