<svg xmlns="http://www.w3.org/2000/svg" width="22" height="22"><path d="m11.992 8.5-1 1M13.49 8c2.026 2.027 2.026 5.973 0 8l1.5 1.5c2.902-2.905 2.902-8.095 0-11z" style="opacity:.3;color:#000"/><path d="M15.988 6c3.561 3.372 3.509 8.628 0 12l1.5 1.5c4.657-4.5 4.71-10.5 0-15z" style="opacity:.3;color:#000"/><path d="m11.992 7.5-1 1M13.49 7c2.026 2.027 2.026 5.973 0 8l1.5 1.5c2.902-2.905 2.902-8.095 0-11z" style="color:#000;fill:#dcdcdc"/><path d="M15.988 5c3.561 3.372 3.509 8.628 0 12l1.5 1.5c4.657-4.5 4.71-10.5 0-15z" style="color:#000;fill:#dcdcdc"/><g style="opacity:.3"><path d="M7.995 6 4.997 9v6l2.998 3L8 14l2-2-2-2z"/><path d="M2 9c-.524 0-1 .498-1 1v4c0 .58.433 1 1 1h3.996V9z"/></g><path d="M8 5 4.997 8v6L8 17v-4l2-2-2-2z" style="fill:#dcdcdc"/><path d="M2 8c-.523 0-1 .498-1 1v4c0 .58.434 1 1 1h3.996V8z" style="fill:#dcdcdc"/></svg>