<svg xmlns="http://www.w3.org/2000/svg" width="22" height="22"><path style="stroke:none;fill-rule:nonzero;fill:#ccc;fill-opacity:1" d="M13.332 1.563c-.98 0-1.793.906-1.953 2.101h7.789c-.164-1.195-.973-2.102-1.957-2.102zm0 0"/><path style="stroke:none;fill-rule:nonzero;fill:#25aedf;fill-opacity:1" d="M2.77 4h16.46a2.36 2.36 0 0 1 2.36 2.363v8.293a2.36 2.36 0 0 1-2.36 2.364H2.77a2.36 2.36 0 0 1-2.36-2.364V6.363A2.36 2.36 0 0 1 2.77 4zm0 0"/><path style="stroke:none;fill-rule:nonzero;fill:#25aedf;fill-opacity:1" d="M2.77 7.043h16.46a2.358 2.358 0 0 1 2.36 2.363V17.7a2.36 2.36 0 0 1-2.36 2.363H2.77A2.36 2.36 0 0 1 .41 17.7V9.406a2.358 2.358 0 0 1 2.36-2.363zm0 0"/><path style="stroke:none;fill-rule:nonzero;fill:#4caf50;fill-opacity:1" d="M20.625 11.844H16.5V7.375h-4.469v4.469H7.562v4.469h4.47v4.125H16.5v-4.125h4.125zm0 0"/></svg>