<svg viewBox="0 0 22 22" xmlns="http://www.w3.org/2000/svg"><path d="M6 3a2 2 0 0 0-2 2 2 2 0 0 0 .68 1.5A2 2 0 0 0 4 8a2 2 0 0 0 2 2 2 2 0 0 0 2-2 2 2 0 0 0-.68-1.5A2 2 0 0 0 8 5a2 2 0 0 0-2-2m0 1a1 1 0 0 1 1 1 1 1 0 0 1-1 1 1 1 0 0 1-1-1 1 1 0 0 1 1-1m0 3a1 1 0 0 1 1 1 1 1 0 0 1-1 1 1 1 0 0 1-1-1 1 1 0 0 1 1-1" fill="#da4453"/><path d="M17 12a2 2 0 0 0-2 2v3a2 2 0 0 0 2 2 2 2 0 0 0 2-2 2 2 0 0 0-2-2 2 2 0 0 0-1 .27V14a1 1 0 0 1 1-1 1 1 0 0 1 1 1h1a2 2 0 0 0-2-2m0 4a1 1 0 0 1 1 1 1 1 0 0 1-1 1 1 1 0 0 1-1-1 1 1 0 0 1 1-1m-5-4v1h1v6h1v-7h-1z" fill="#1d99f3"/><path d="M11 3v1a7 7 0 0 1 6.309 4H14v1h5V4h-1v3.17A8 8 0 0 0 11 3zM3 13v5h1v-3.17A8 8 0 0 0 11 19v-1a7 7 0 0 1-6.309-4H8v-1H3z" style="fill:currentColor;fill-opacity:1;stroke:none;color:#dedede"/></svg>