<svg viewBox="0 0 22 22" xmlns="http://www.w3.org/2000/svg"><defs><style type="text/css" id="current-color-scheme">.ColorScheme-Text{color:#dedede}</style></defs><path class="ColorScheme-Text" d="M11 3c-4.432 0-8 3.568-8 8s3.568 8 8 8h1V3h-1m0 1v14c-3.878 0-7-3.122-7-7s3.122-7 7-7" fill="currentColor"/><path d="M9.95 18.246c-1.955-.369-3.86-1.59-4.976-3.186-1.2-1.717-1.596-3.959-1.057-5.966.406-1.51 1.543-3.14 2.818-4.038C7.95 4.2 9.83 3.528 11.012 3.528h.426v14.869l-.394-.01a8.796 8.796 0 0 1-1.094-.14z" class="ColorScheme-Text" fill="currentColor" fill-opacity=".502"/></svg>