<svg viewBox="0 0 22 22" xmlns="http://www.w3.org/2000/svg"><defs><style type="text/css" id="current-color-scheme">.ColorScheme-Text{color:#dedede}</style></defs><path class="ColorScheme-Text" d="M19 11c0 4.432-3.568 8-8 8s-8-3.568-8-8v-1h16v1m-1 0H4c0 3.878 3.122 7 7 7s7-3.122 7-7" fill="currentColor"/><path d="M10.543 18.326a21.438 21.438 0 0 0-.283-.028 7.175 7.175 0 0 1-1.519-.325c-2.146-.711-3.878-2.407-4.704-4.606a8.162 8.162 0 0 1-.517-2.6l-.012-.292H18.51l-.011.255c-.006.14-.023.38-.037.533-.217 2.326-1.41 4.42-3.267 5.738a7.297 7.297 0 0 1-3.346 1.29c-.223.028-1.157.052-1.307.035z" class="ColorScheme-Text" fill="currentColor" fill-opacity=".502"/></svg>