<svg viewBox="0 0 22 22" xmlns="http://www.w3.org/2000/svg"><defs><style type="text/css" id="current-color-scheme">.ColorScheme-Text{color:#dedede}</style></defs><path class="ColorScheme-Text" d="M11 5a8 6 0 0 0-8 6 8 6 0 0 0 8 6 8 6 0 0 0 8-6 8 6 0 0 0-8-6m0 1a7 5 0 0 1 7 5 7 5 0 0 1-7 5 7 5 0 0 1-7-5 7 5 0 0 1 7-5" fill="currentColor"/><path d="M10.095 16.359c-3.301-.286-5.962-2.211-6.438-4.657-.461-2.376 1.358-4.673 4.487-5.667 2.369-.753 5.095-.544 7.3.56 1.093.547 2.34 1.746 2.786 2.681.265.557.292.71.292 1.688 0 1.04-.012 1.103-.378 1.854-1.167 2.39-4.482 3.85-8.049 3.54z" class="ColorScheme-Text" fill="currentColor" fill-opacity=".502"/></svg>