<svg viewBox="0 0 22 22" xmlns="http://www.w3.org/2000/svg"><defs><style type="text/css" id="current-color-scheme">.ColorScheme-Text{color:#dedede}</style></defs><path class="ColorScheme-Text" d="M11 3c-4.432 0-8 3.568-8 8s3.568 8 8 8 8-3.568 8-8-3.568-8-8-8m0 1c3.878 0 7 3.122 7 7s-3.122 7-7 7-7-3.122-7-7 3.122-7 7-7m0 4a3 3 0 0 0-3 3 3 3 0 0 0 3 3 3 3 0 0 0 3-3 3 3 0 0 0-3-3m0 1a2 2 0 0 1 2 2 2 2 0 0 1-2 2 2 2 0 0 1-2-2 2 2 0 0 1 2-2" fill="currentColor"/><path d="M10.4 18.73c-1.809-.185-3.422-.94-4.678-2.19a7.842 7.842 0 0 1-2.12-3.841c-.132-.575-.187-2.049-.1-2.674.453-3.22 2.805-5.765 5.991-6.483.74-.167 2.01-.192 2.799-.056a7.657 7.657 0 0 1 5.954 5.07c1.47 4.26-1.032 8.894-5.384 9.972-.798.198-1.742.275-2.462.201zm3.334-7.817c-.842-1.897-1.76-3.273-2.848-2.554-1.644 1.087-2.276 1.259-2.198 2.994.059 1.293.844 1.804 2.277 2.214 1.406-.57 2.1-1.337 2.769-2.654z" class="ColorScheme-Text" fill="currentColor" fill-opacity=".502"/></svg>