<svg viewBox="0 0 22 22" xmlns="http://www.w3.org/2000/svg"><defs><style type="text/css" id="current-color-scheme">.ColorScheme-Text{color:#dedede}</style></defs><path class="ColorScheme-Text" d="M7 3v2.5C7 6.331 6.331 7 5.5 7H3v8h2.5c.831 0 1.5.669 1.5 1.5V19h8v-2.5c0-.831.669-1.5 1.5-1.5H19V7h-2.5c-.831 0-1.5-.669-1.5-1.5V3H7m1 1h6v1.5C14 6.885 15.115 8 16.5 8H18v6h-1.5a2.495 2.495 0 0 0-2.5 2.5V18H8v-1.5C8 15.115 6.885 14 5.5 14H4V8h1.5C6.885 8 8 6.885 8 5.5V4" fill="currentColor"/><path d="M7.701 17.48c-.016-1.178-.029-1.255-.292-1.79a2.625 2.625 0 0 0-1.248-1.23c-.503-.234-.632-.254-1.754-.273l-1.006-.017V7.734h.953c1.022-.002 1.241-.027 1.646-.19.795-.321 1.377-.975 1.623-1.823.05-.173.064-.407.077-1.254l.016-1.041h6.439v.917c0 .754.013.973.067 1.237.186.897.79 1.62 1.643 1.964.405.163.624.188 1.646.19h.952v6.444h-.81c-1.19 0-1.58.069-2.14.378-.35.193-.839.7-1.027 1.064-.281.543-.305.679-.322 1.86l-.015 1.04H7.716z" class="ColorScheme-Text" fill="currentColor" fill-opacity=".502"/></svg>