<svg viewBox="0 0 22 22" xmlns="http://www.w3.org/2000/svg"><defs><style type="text/css" id="current-color-scheme">.ColorScheme-Text{color:#dedede}</style></defs><path class="ColorScheme-Text" d="M11 3C9.895 3 8.656 5.344 8.656 5.344s-2.531-.781-3.312 0 0 3.312 0 3.312S3 9.896 3 11s2.344 2.344 2.344 2.344-.781 2.531 0 3.312 3.312 0 3.312 0S9.896 19 11 19s2.344-2.344 2.344-2.344 2.531.781 3.312 0 0-3.312 0-3.312S19 12.104 19 11s-2.344-2.344-2.344-2.344.781-2.531 0-3.312-3.312 0-3.312 0S12.104 3 11 3zm0 4a4 4 0 1 1 0 8 4 4 0 0 1 0-8z" fill="currentColor"/><path d="M9.527 15.295C8.368 14.865 7.45 14 6.895 12.818c-.31-.66-.335-.802-.335-1.85 0-1.049.025-1.188.338-1.855.574-1.227 1.56-2.115 2.797-2.52.428-.14.82-.175 1.56-.142.85.037 1.086.092 1.7.398 3.416 1.701 3.414 6.539-.004 8.24-.65.324-.821.36-1.792.385-.841.021-1.196-.018-1.632-.18z" class="ColorScheme-Text" fill="currentColor" fill-opacity=".5"/></svg>