<svg xmlns="http://www.w3.org/2000/svg" width="22" height="22"><path style="stroke:none;fill-rule:nonzero;fill:#25aedf;fill-opacity:1" d="M4.066.512h13.868a3.553 3.553 0 0 1 3.554 3.554v13.868a3.553 3.553 0 0 1-3.554 3.554H4.066a3.553 3.553 0 0 1-3.554-3.554V4.066A3.553 3.553 0 0 1 4.066.512zm0 0"/><path style="stroke:none;fill-rule:evenodd;fill:#fff;fill-opacity:1" d="m11 4.371-6.629 8.285h1.656L11 6.027l4.973 6.63H14.48v4.972h1.66v-4.973h1.489zm-4.973 8.285v4.973h1.657v-4.973zm8.29-8.285v3.313l1.656 1.988v-5.3zM11 9.176a1.16 1.16 0 1 0 0 2.32 1.16 1.16 0 0 0 0-2.32zm-2.488 6.797v1.656h4.976v-1.656zm0 0"/></svg>