<svg xmlns="http://www.w3.org/2000/svg" width="22" height="22"><path style="stroke:none;fill-rule:nonzero;fill:#ccc;fill-opacity:1" d="M13.332 1.75c-.98 0-1.793.906-1.953 2.105h7.789c-.164-1.199-.973-2.105-1.957-2.105zm0 0"/><path style="stroke:none;fill-rule:nonzero;fill:#00d455;fill-opacity:1" d="M2.77 4.188h16.46a2.36 2.36 0 0 1 2.36 2.363v8.293a2.361 2.361 0 0 1-2.36 2.367H2.77a2.361 2.361 0 0 1-2.36-2.367V6.55a2.36 2.36 0 0 1 2.36-2.364zm0 0"/><path style="stroke:none;fill-rule:nonzero;fill:#00d455;fill-opacity:1" d="M2.77 7.23h16.46a2.36 2.36 0 0 1 2.36 2.364v8.293a2.36 2.36 0 0 1-2.36 2.363H2.77a2.36 2.36 0 0 1-2.36-2.363V9.594A2.36 2.36 0 0 1 2.77 7.23zm0 0"/><path style="stroke:none;fill-rule:evenodd;fill:#4caf50;fill-opacity:1" d="M20.625 14.781a4.027 4.027 0 0 1-2.04 3.57 4.206 4.206 0 0 1-4.17 0 4.027 4.027 0 0 1-2.04-3.57 4.022 4.022 0 0 1 2.04-3.57 4.206 4.206 0 0 1 4.17 0 4.022 4.022 0 0 1 2.04 3.57zm0 0"/><path style="stroke:none;fill-rule:nonzero;fill:#fff;fill-opacity:1" d="M18.758 12.188a.432.432 0 0 0-.215.164l-2.246 2.18-1.402-1.34a.426.426 0 0 0-.43-.297.416.416 0 0 0-.395.343.425.425 0 0 0 .25.457l1.688 1.672c.16.149.414.149.574 0l2.535-2.512a.418.418 0 0 0-.36-.668zm0 0"/></svg>