<svg xmlns="http://www.w3.org/2000/svg" width="22" height="22"><path style="stroke:none;fill-rule:nonzero;fill:#c19553;fill-opacity:1" d="M1.375 0C.777 0 0 .777 0 1.375V19.25c0 .563.809 1.375 1.375 1.375H19.25c.563 0 1.375-.813 1.375-1.375V1.375C20.625.809 19.812 0 19.25 0zm0 0"/><path style="stroke:none;fill-rule:nonzero;fill:#fff;fill-opacity:.196078" d="M1.375 0C.777 0 0 .777 0 1.375v5.5h20.625v-5.5C20.625.809 19.812 0 19.25 0zm0 0"/><path style="stroke:none;fill-rule:nonzero;fill:#fff;fill-opacity:.392157" d="M8.25 2.75V11h4.125V2.75zm0 0"/><path style="stroke:none;fill-rule:evenodd;fill:#25aedf;fill-opacity:1" d="M22 17.703A4.294 4.294 0 0 1 17.703 22a4.294 4.294 0 0 1-4.297-4.297 4.294 4.294 0 0 1 4.297-4.297A4.294 4.294 0 0 1 22 17.703zm0 0"/><path style="stroke:none;fill-rule:nonzero;fill:#fff;fill-opacity:1" d="M17.426 15.164v.367a2.06 2.06 0 0 0-1.207.582 2.066 2.066 0 0 0-.586 1.61l.672.18a1.41 1.41 0 0 1 .37-1.337c.204-.203.466-.34.75-.386v.453h.067l1.242-.715zm1.664.93-.586.336a1.408 1.408 0 0 1 .45 1.707l-.345-.196-.03.059v.633c-.013.008-.02.02-.032.027l.031.02v.754l1.309-.754-.383-.223a2.045 2.045 0 0 0-.387-2.344c-.008-.008-.02-.011-.027-.02zm-3.434 1.976.39 1.461.36-.363c.524.41 1.207.543 1.844.352v-.68a1.4 1.4 0 0 1-1.387-.13l.227-.222-.047-.05zm0 0"/></svg>