<svg xmlns="http://www.w3.org/2000/svg" width="22" height="22"><path style="stroke:none;fill-rule:nonzero;fill:#c19553;fill-opacity:1" d="M1.375 0C.777 0 0 .777 0 1.375V19.25c0 .566.809 1.375 1.375 1.375H19.25c.566 0 1.375-.809 1.375-1.375V1.375C20.625.809 19.816 0 19.25 0zm0 0"/><path style="stroke:none;fill-rule:nonzero;fill:#fff;fill-opacity:.196078" d="M1.375 0C.777 0 0 .777 0 1.375v5.5h20.625v-5.5C20.625.809 19.816 0 19.25 0zm0 0"/><path style="stroke:none;fill-rule:nonzero;fill:#fff;fill-opacity:.392157" d="M8.25 2.75V11h4.125V2.75zm0 0"/><path style="stroke:none;fill-rule:evenodd;fill:#dc322f;fill-opacity:1" d="M22 17.703A4.294 4.294 0 0 1 17.703 22a4.294 4.294 0 0 1-4.297-4.297 4.294 4.294 0 0 1 4.297-4.297A4.294 4.294 0 0 1 22 17.703zm0 0"/><path style="stroke:none;fill-rule:nonzero;fill:#fff;fill-opacity:1" d="m15.8 15.027-.773.774 1.907 1.902-1.907 1.902.774.774 1.902-1.906 1.902 1.906.774-.774-1.906-1.902 1.906-1.902-.774-.774-1.902 1.907zm0 0"/></svg>