<svg xmlns="http://www.w3.org/2000/svg" width="22" height="22"><path style="stroke:none;fill-rule:nonzero;fill:#ccc;fill-opacity:1" d="M13.332 1.75c-.98 0-1.793.906-1.953 2.105h7.789c-.164-1.199-.973-2.105-1.957-2.105zm0 0"/><path style="stroke:none;fill-rule:nonzero;fill:#ab37c8;fill-opacity:1" d="M2.77 4.188h16.46a2.36 2.36 0 0 1 2.36 2.363v8.293a2.361 2.361 0 0 1-2.36 2.367H2.77a2.361 2.361 0 0 1-2.36-2.367V6.55a2.36 2.36 0 0 1 2.36-2.364zm0 0"/><path style="stroke:none;fill-rule:nonzero;fill:#ab37c8;fill-opacity:1" d="M2.77 7.23h16.46a2.36 2.36 0 0 1 2.36 2.364v8.293a2.36 2.36 0 0 1-2.36 2.363H2.77a2.36 2.36 0 0 1-2.36-2.363V9.594A2.36 2.36 0 0 1 2.77 7.23zm0 0"/><path style="stroke:none;fill-rule:nonzero;fill:#4caf50;fill-opacity:1" d="M20.625 12.031H16.5V7.562h-4.469v4.47H7.562V16.5h4.47v4.125H16.5V16.5h4.125zm0 0"/></svg>