<svg viewBox="0 0 22 22" xmlns="http://www.w3.org/2000/svg"><defs><style type="text/css" id="current-color-scheme">.ColorScheme-Text{color:#dedede}</style></defs><path d="M4.92 15.519v-2.637h3.246v5.273H4.919zm7.855 1.573c.008-.014.512-.808 1.121-1.764.976-1.532 1.11-1.735 1.131-1.708.045.06 2.219 3.476 2.219 3.487 0 .005-1.01.01-2.243.01-1.917 0-2.24-.004-2.228-.025zm.087-10.571V3.818h5.323v5.406h-5.323zM6.276 9.164c-.653-.076-1.198-.327-1.634-.75a2.597 2.597 0 0 1-.791-1.54 3.388 3.388 0 0 1 0-.706 2.684 2.684 0 0 1 2.477-2.28c.828-.051 1.558.221 2.13.795.363.366.595.793.712 1.314.057.255.058.796.001 1.052a2.685 2.685 0 0 1-2.127 2.073c-.181.036-.614.06-.768.042z" class="ColorScheme-Text" fill="currentColor" fill-opacity=".5"/><path d="M6.5 3C4.561 3 3 4.561 3 6.5S4.561 10 6.5 10 10 8.439 10 6.5 8.439 3 6.5 3zM12 3v7h7V3h-7zM6.5 4A2.5 2.5 0 0 1 9 6.5 2.5 2.5 0 0 1 6.5 9 2.5 2.5 0 0 1 4 6.5 2.5 2.5 0 0 1 6.5 4zM13 4h5v5h-5V4zm-9 8v7h5v-7H4zm11 0-4 6h8l-4-6zM5 13h3v5H5v-5zm10 .72 1.064 1.64L17.13 17h-4.26l1.065-1.64L15 13.72z" class="ColorScheme-Text" fill="currentColor"/></svg>