<svg xmlns="http://www.w3.org/2000/svg" width="22" height="22"><path style="stroke:none;fill-rule:nonzero;fill:#c19553;fill-opacity:1" d="M1.375 0C.777 0 0 .777 0 1.375V19.25c0 .563.809 1.375 1.375 1.375H19.25c.563 0 1.375-.813 1.375-1.375V1.375C20.625.809 19.812 0 19.25 0zm0 0"/><path style="stroke:none;fill-rule:nonzero;fill:#fff;fill-opacity:.196078" d="M1.375 0C.777 0 0 .777 0 1.375v5.5h20.625v-5.5C20.625.809 19.812 0 19.25 0zm0 0"/><path style="stroke:none;fill-rule:nonzero;fill:#fff;fill-opacity:.392157" d="M8.25 2.75V11h4.125V2.75zm0 0"/><path style="stroke:none;fill-rule:nonzero;fill:#859900;fill-opacity:1" d="m15.715 9.625 6.285 5.5h-4.125V22H13.75v-6.875H9.625zm0 0"/></svg>