<svg xmlns="http://www.w3.org/2000/svg" width="22" height="22"><path style="stroke:none;fill-rule:evenodd;fill:#00d455;fill-opacity:1" d="M11 2.406A8.591 8.591 0 0 1 19.594 11 8.591 8.591 0 0 1 11 19.594 8.591 8.591 0 0 1 2.406 11 8.591 8.591 0 0 1 11 2.406zm0 0"/><path style="stroke:none;fill-rule:nonzero;fill:#fff;fill-opacity:1" d="m16.293 11-3.508-2.473V9.54L14.86 11l-2.074 1.46v1.013zM9.5 6.758H7.977v8.484H9.5zm0 0"/><path style="stroke:none;fill-rule:nonzero;fill:#fff;fill-opacity:1" d="M15.012 10.074H10.84v1.852h4.172zm0 0"/><path style="stroke:none;fill-rule:nonzero;fill:#fff;fill-opacity:1" d="M13.637 9.316h-.864v3.18h.864zm0 0"/></svg>