<svg xmlns="http://www.w3.org/2000/svg" width="22" height="22"><path style="stroke:none;fill-rule:nonzero;fill:#c19553;fill-opacity:1" d="M2.48 1.375c-.554 0-1.105.55-1.105 1.105v17.075c0 .52.55 1.07 1.07 1.07h17.11c.52 0 1.07-.55 1.07-1.07V2.445c0-.52-.55-1.07-1.07-1.07zm0 0"/><path style="stroke:none;fill-rule:nonzero;fill:#fff;fill-opacity:.196078" d="M2.48 1.375c-.554 0-1.105.55-1.105 1.105v5.77h19.25V2.445c0-.52-.55-1.07-1.07-1.07zm0 0"/><path style="stroke:none;fill-rule:nonzero;fill:#fff;fill-opacity:1" d="M9.625 1.375V2.75H11v1.375H9.625V5.5H11v1.375H9.625V8.25L11 8.262v2.75L9.625 11v2.75h2.75V11L11 11.012V9.625h1.375V8.25L11 8.262V6.875h1.375V5.5H11V4.125h1.375V2.75H11V1.375zm0 0"/><path style="stroke:none;fill-rule:nonzero;fill:#859900;fill-opacity:1" d="M22 13.75h-4.125V9.625H13.75v4.125H9.625v4.125h4.125V22h4.125v-4.125H22zm0 0"/></svg>