<svg xmlns="http://www.w3.org/2000/svg" width="22" height="22"><path style="stroke:none;fill-rule:nonzero;fill:#c19553;fill-opacity:1" d="M2.48 1.375c-.554 0-1.105.55-1.105 1.105v17.075c0 .52.55 1.07 1.07 1.07h17.11c.52 0 1.07-.55 1.07-1.07V2.445c0-.52-.55-1.07-1.07-1.07zm0 0"/><path style="stroke:none;fill-rule:nonzero;fill:#fff;fill-opacity:.196078" d="M2.48 1.375c-.554 0-1.105.55-1.105 1.105v5.77h19.25V2.445c0-.52-.55-1.07-1.07-1.07zm0 0"/><path style="stroke:none;fill-rule:nonzero;fill:#fff;fill-opacity:1" d="M9.625 1.375V2.75H11v1.375H9.625V5.5H11v1.375H9.625V8.25L11 8.262v2.75L9.625 11v2.75h2.75V11L11 11.012V9.625h1.375V8.25L11 8.262V6.875h1.375V5.5H11V4.125h1.375V2.75H11V1.375zm0 0"/><path style="stroke:none;fill-rule:evenodd;fill:#859900;fill-opacity:1" d="M13.273 7.219c.196 0 .473.172.817.515l6.875 5.5c1.383 1.38 1.375 1.375 0 2.75l-6.875 5.5c-1.031 1.032-1.309.516-1.375-1.547-.02-.687 0-1.546 0-2.578h-.043c-6.832 0-9.582-4.125-9.54-9.668 2.708 2.793 5.458 4.168 9.583 4.082 0-.984-.02-1.828 0-2.492.043-1.375.172-2.062.558-2.062zm0 0"/></svg>