<svg xmlns="http://www.w3.org/2000/svg" width="64" height="64"><path style="fill-rule:nonzero;fill:#fff;fill-opacity:1;stroke-width:18.73;stroke-linecap:butt;stroke-linejoin:miter;stroke:#0093b8;stroke-opacity:1;stroke-miterlimit:4" d="M83.022 37.218h354.687c26.313 0 47.657 21.344 47.657 47.657v354.687c0 26.313-21.344 47.656-47.657 47.656H83.022c-26.313 0-47.656-21.343-47.656-47.656V84.875c0-26.313 21.343-47.657 47.656-47.657zm0 0" transform="matrix(.125 0 0 .125 -.546 -.777)"/><path style="stroke:none;fill-rule:nonzero;fill:#333;fill-opacity:1" d="M32 12.191c-10.21 0-18.488 8.278-18.488 18.489v6.601c0 .73.59 1.32 1.32 1.32.73 0 1.32-.59 1.32-1.32V30.68c0-8.75 7.094-15.848 15.848-15.848 8.754 0 15.848 7.098 15.848 15.848v6.601c0 .73.59 1.32 1.32 1.32.73 0 1.32-.59 1.32-1.32V30.68c0-10.211-8.277-18.489-18.488-18.489zm0 0"/><path style="stroke:none;fill-rule:evenodd;fill:#0cf;fill-opacity:1" d="M15.492 34.64c-4.012 0-4.62 3.255-4.62 7.262 0 4.012.608 7.262 4.62 7.262 4.012 0 1.98-3.25 1.98-7.262 0-4.007 2.032-7.261-1.98-7.261zm33.414 0c-3.793 0-1.87 3.255-1.87 7.262 0 4.012-1.923 7.262 1.87 7.262s4.223-3.25 4.223-7.262c0-4.007-.43-7.261-4.223-7.261zm0 0"/><path style="stroke:none;fill-rule:evenodd;fill:#ccc;fill-opacity:1" d="m14.648 44.902.696-.379c2.937 4.946 6.035 8.872 11.722 7.094l.149.688c-6.63 1.8-9.777-2.47-12.567-7.403zm0 0"/><path style="stroke:none;fill-rule:evenodd;fill:#000;fill-opacity:1" d="M18.793 32a3.961 3.961 0 0 0-3.961 3.96v11.884a3.964 3.964 0 0 0 3.961 3.965 3.964 3.964 0 0 0 3.96-3.965V35.96A3.961 3.961 0 0 0 18.794 32zm26.414 0a3.961 3.961 0 0 0-3.96 3.96v11.884a3.964 3.964 0 0 0 3.96 3.965 3.964 3.964 0 0 0 3.961-3.965V35.96A3.961 3.961 0 0 0 45.207 32zM26.793 51.055l4.57-1.086.617 1.93-4.57 1.085zm0 0"/></svg>