<svg xmlns="http://www.w3.org/2000/svg" width="64" height="64"><path style="fill-rule:nonzero;fill:#fff;fill-opacity:1;stroke-width:18.73;stroke-linecap:butt;stroke-linejoin:miter;stroke:#0093b8;stroke-opacity:1;stroke-miterlimit:4" d="M78.656 31h354.688C459.656 31 481 52.344 481 78.656v354.688C481 459.656 459.656 481 433.344 481H78.656C52.344 481 31 459.656 31 433.344V78.656C31 52.344 52.344 31 78.656 31zm0 0" transform="scale(.125)"/><path style="stroke:none;fill-rule:evenodd;fill:#c4cbcf;fill-opacity:1" d="m31.969 18.566-6.703-4.308 6.191-4.492 6.703 4.308zm0 0"/><path style="stroke:none;fill-rule:evenodd;fill:#f9de69;fill-opacity:1" d="M26.715 27.281V16.203h9.996v11.078zm0 0"/><path style="stroke:none;fill-rule:evenodd;fill:#c4cbcf;fill-opacity:1" d="M24.836 44.125V27.258H38.59v16.867zm0-20.066V19.39H38.59v4.668zm0 0"/><path style="stroke:none;fill-rule:evenodd;fill:#34495e;fill-opacity:1" d="M21.684 54.234v-10.23h20.632v10.23zm0 0"/></svg>