<svg xmlns="http://www.w3.org/2000/svg" width="64" height="64"><path style="fill-rule:nonzero;fill:#fff;fill-opacity:1;stroke-width:28.191782;stroke-linecap:butt;stroke-linejoin:miter;stroke:#223656;stroke-opacity:1;stroke-miterlimit:4" d="M81.469 25.094H430.53c31.125 0 56.375 25.25 56.375 56.375V430.53c0 31.125-25.25 56.375-56.375 56.375H81.47c-31.125 0-56.375-25.25-56.375-56.375V81.47c0-31.125 25.25-56.375 56.375-56.375zm0 0" transform="scale(.125)"/><path style="stroke:none;fill-rule:evenodd;fill:#223656;fill-opacity:1" d="M32.016 7.965c3.644 0 6.601 3.742 6.601 8.363V30.5c0 4.621-2.957 8.367-6.601 8.367-3.649 0-6.606-3.746-6.606-8.367V16.328c0-4.621 2.957-8.363 6.606-8.363zm0 0"/><path style="stroke:none;fill-rule:evenodd;fill:#223656;fill-opacity:1" d="m22.07 32.125-4.14.02c.367 8.57 6.015 13.375 12.164 14.214v5.516a12.259 12.259 0 0 0-7.258 4.102l18.418.058a11.757 11.757 0 0 0-6.938-4.125v-5.6c5.891-.942 11.23-5.602 11.754-14.16l-4.207-.024c-.707 13.375-19.004 13.469-19.793 0zm0 0"/></svg>