<svg xmlns="http://www.w3.org/2000/svg" width="64" height="64"><path style="fill-rule:nonzero;fill:#fff;fill-opacity:1;stroke-width:7.459075;stroke-linecap:butt;stroke-linejoin:miter;stroke:#000506;stroke-opacity:1;stroke-miterlimit:4" d="M-180.356 209.211H-88c8.235 0 14.916 6.68 14.916 14.916v92.356c0 8.235-6.68 14.916-14.916 14.916h-92.356c-8.235 0-14.916-6.68-14.916-14.916v-92.356c0-8.235 6.681-14.916 14.916-14.916zm0 0" transform="translate(95.391 -95.703) scale(.47244)"/><path style="stroke:none;fill-rule:evenodd;fill:#000;fill-opacity:1" d="M19.04 14.582a4.441 4.441 0 1 1-8.883 0 4.441 4.441 0 0 1 8.882 0zm0 0"/><path style="stroke:none;fill-rule:evenodd;fill:#000;fill-opacity:1" d="M56.64 32c0 13.61-11.03 24.64-24.64 24.64C18.39 56.64 7.36 45.61 7.36 32 7.36 18.39 18.39 7.36 32 7.36c13.61 0 24.64 11.03 24.64 24.64zm0 0"/><path style="stroke:none;fill-rule:evenodd;fill:#000;fill-opacity:1" d="M53.703 14.582a4.441 4.441 0 1 1-8.882 0 4.441 4.441 0 0 1 8.882 0zm0 34.785a4.441 4.441 0 1 1-8.882 0 4.441 4.441 0 0 1 8.882 0zm-34.663 0a4.441 4.441 0 1 1-8.883 0 4.441 4.441 0 0 1 8.882 0zm0 0"/><path style="stroke:none;fill-rule:evenodd;fill:#f9de69;fill-opacity:1" d="M52.531 32c0 11.34-9.191 20.531-20.531 20.531-11.34 0-20.531-9.191-20.531-20.531 0-11.34 9.191-20.531 20.531-20.531 11.34 0 20.531 9.191 20.531 20.531zm0 0"/><path style="stroke:none;fill-rule:evenodd;fill:#ccc;fill-opacity:1" d="M42.645 32c0 5.879-4.766 10.645-10.645 10.645S21.355 37.879 21.355 32 26.121 21.355 32 21.355 42.645 26.121 42.645 32zm0 0"/><path style="stroke:none;fill-rule:evenodd;fill:#f9f9f9;fill-opacity:1" d="M36.543 32A4.545 4.545 0 0 1 32 36.543 4.545 4.545 0 0 1 27.457 32 4.545 4.545 0 0 1 32 27.457 4.545 4.545 0 0 1 36.543 32zm0 0"/></svg>