<svg xmlns="http://www.w3.org/2000/svg" width="64" height="64"><path style="fill-rule:nonzero;fill:#58785b;fill-opacity:1;stroke-width:18.73;stroke-linecap:butt;stroke-linejoin:miter;stroke:#3f5641;stroke-opacity:1;stroke-miterlimit:4" d="M78.656 31h354.688C459.656 31 481 52.344 481 78.656v354.688C481 459.656 459.656 481 433.344 481H78.656C52.344 481 31 459.656 31 433.344V78.656C31 52.344 52.344 31 78.656 31zm0 0" transform="scale(.125)"/><path style="stroke:none;fill-rule:nonzero;fill:#fff;fill-opacity:1" d="M42.254 14.371h2.492c1.113 0 2.016.867 2.016 1.941v1.106c0 1.07-.903 1.941-2.016 1.941h-2.492c-1.113 0-2.016-.87-2.016-1.941v-1.105c0-1.075.903-1.942 2.016-1.942zm0 7.25h2.492c1.113 0 2.016.867 2.016 1.942v1.105c0 1.07-.903 1.941-2.016 1.941h-2.492c-1.113 0-2.016-.87-2.016-1.941v-1.105c0-1.075.903-1.942 2.016-1.942zm0 7.75h2.492c1.113 0 2.016.867 2.016 1.942v1.105c0 1.07-.903 1.941-2.016 1.941h-2.492c-1.113 0-2.016-.87-2.016-1.941v-1.105c0-1.075.903-1.942 2.016-1.942zm0 7.25h2.492c1.113 0 2.016.867 2.016 1.941v1.106c0 1.07-.903 1.941-2.016 1.941h-2.492c-1.113 0-2.016-.87-2.016-1.941v-1.105c0-1.075.903-1.942 2.016-1.942zm0 7.5h2.492c1.113 0 2.016.867 2.016 1.941v1.106c0 1.07-.903 1.941-2.016 1.941h-2.492c-1.113 0-2.016-.87-2.016-1.941v-1.105c0-1.075.903-1.942 2.016-1.942zm-23-29.75h2.492c1.113 0 2.016.867 2.016 1.941v1.106c0 1.07-.903 1.941-2.016 1.941h-2.492c-1.113 0-2.016-.87-2.016-1.941v-1.105c0-1.075.903-1.942 2.016-1.942zm0 7.25h2.492c1.113 0 2.016.867 2.016 1.942v1.105c0 1.07-.903 1.941-2.016 1.941h-2.492c-1.113 0-2.016-.87-2.016-1.941v-1.105c0-1.075.903-1.942 2.016-1.942zm0 7.75h2.492c1.113 0 2.016.867 2.016 1.942v1.105c0 1.07-.903 1.941-2.016 1.941h-2.492c-1.113 0-2.016-.87-2.016-1.941v-1.105c0-1.075.903-1.942 2.016-1.942zm0 7.25h2.492c1.113 0 2.016.867 2.016 1.941v1.106c0 1.07-.903 1.941-2.016 1.941h-2.492c-1.113 0-2.016-.87-2.016-1.941v-1.105c0-1.075.903-1.942 2.016-1.942zm0 7.5h2.492c1.113 0 2.016.867 2.016 1.941v1.106c0 1.07-.903 1.941-2.016 1.941h-2.492c-1.113 0-2.016-.87-2.016-1.941v-1.105c0-1.075.903-1.942 2.016-1.942zm0 0"/><path style="stroke:none;fill-rule:nonzero;fill:#49494c;fill-opacity:1" d="M40.406 54.035a4.67 4.67 0 0 1-1.023.41c-.692.164-15.375.024-15.922-.152-.691-.223-1.516-.961-1.941-1.738-.332-.602-.368-.836-.332-2.22.019-.847.03-2.452.023-3.565-.004-1.11-.008-2.73-.004-3.598.004-.867.008-2.531.008-3.695V28.293c0-.875.02-2.523.047-3.664.027-1.14.008-2.117-.047-2.172-.055-.05-.074-.793-.047-1.64.07-2.055.07-5.598 0-6.938-.098-1.895.523-3.149 1.941-3.93.649-.355.844-.363 8.407-.433 8.629-.082 8.543-.09 9.664 1.023.804.805 1.062 1.559 1.07 3.129.004.7-.035 1.316-.09 1.371-.086.086-.07 2.016.05 5.781.028.848.009 1.586-.046 1.64-.055.052-.074 1.048-.047 2.212.028 1.164.051 2.781.047 3.598v14.828c0 4.941.004 6.254.023 7.238.04 1.7-.605 3.039-1.78 3.7zm0 0"/><path style="stroke:none;fill-rule:nonzero;fill:#ccc;fill-opacity:1" d="M39.762 51.574c0 .848-.688 1.531-1.535 1.531a1.532 1.532 0 1 1 0-3.066c.847 0 1.535.688 1.535 1.535zM30.844 9.738h1.726v3.465h-1.726zm0 0"/><path style="stroke:none;fill-rule:nonzero;fill:#fff;fill-opacity:1" d="M26.285 38.61c-.11-.106-.14-.337-.14-1.024 0-.758.027-.922.187-1.145.16-.226.23-.257.55-.234.34.027.368.047.391.313.016.164-.011.289-.066.289-.05 0-.172.078-.27.175-.144.145-.175.293-.175.832 0 .36-.024.715-.055.793-.066.18-.246.18-.422 0zm11 .081c-.078-.03-.113-.277-.113-.796 0-.723-.008-.762-.262-1-.285-.262-.328-.43-.16-.598.188-.188.574-.125.773.129.168.215.184.332.16 1.258-.027 1.046-.066 1.144-.398 1.007zm0 0"/><path style="stroke:none;fill-rule:nonzero;fill:#fff;fill-opacity:1" d="M25.324 37.988c-.035-.035-.062-.484-.058-.996v-.933l.386-.414.391-.415.512.047c.695.063.754.086.722.317-.023.168-.097.207-.445.246a1.175 1.175 0 0 0-.707.308c-.16.145-.309.278-.332.293-.023.016-.066.371-.09.793-.035.594-.074.77-.18.79-.074.015-.164 0-.199-.036zm12.93-.082c-.047-.078-.063-.32-.043-.535.066-.68-.035-.98-.438-1.273-.222-.16-.472-.262-.648-.262-.313 0-.527-.188-.45-.395.04-.101.2-.132.665-.132h.613l.363.41c.438.5.461.582.426 1.531-.023.691-.039.75-.215.777-.109.016-.226-.035-.273-.12zm0 0"/><path style="stroke:none;fill-rule:nonzero;fill:#fff;fill-opacity:1" d="M24.402 37.324c-.074-.074-.109-.41-.109-.996v-.887l.582-.644.582-.64.852.023.851.027v.262c0 .265-.004.265-.574.293-.625.027-.684.062-1.258.75-.336.398-.36.465-.41 1.148-.047.633-.074.723-.23.746a.372.372 0 0 1-.286-.082zm0 0"/><path style="stroke:none;fill-rule:nonzero;fill:#fff;fill-opacity:1" d="M27.754 37.324c-.082-.082-.11-.636-.11-2.129 0-1.886-.011-2.035-.175-2.246-.137-.172-.176-.355-.176-.793v-.57l-.84-.867-.84-.864v-.824c0-.453-.035-.879-.078-.945-.039-.066-.207-.145-.37-.18l-.298-.062v-2.551h.39c.388 0 .4.012.493.348.055.195.168.37.262.402.093.035.207.207.261.406.118.418.344.465.387.078.035-.324.145-.465.395-.5.152-.023.203-.101.238-.379.043-.355.043-.355.437-.355.395 0 .399.004.457.355.036.192.067.735.07 1.207.005.926-.081 1.13-.476 1.13-.23 0-.308.19-.312.765 0 .414.297.84 1.18 1.703l.496.48v.755c0 .414.035.804.078.87.047.075.336.137.797.169l.726.05.625.692c.348.379.688.691.758.691.07 0 .434-.328.809-.726l.683-.727.621.023c.848.036.903-.027.903-1.062v-.805l.835-.851c.805-.82.84-.871.84-1.242-.004-.586-.082-.782-.34-.84-.437-.106-.453-.16-.453-1.356 0-1.254.043-1.355.543-1.308.254.023.301.07.387.379.074.257.156.363.313.402.16.035.222.125.265.375.063.39.113.457.297.387.086-.036.137-.164.137-.356 0-.258.039-.316.258-.394.218-.075.261-.145.285-.426.027-.317.05-.34.336-.367.472-.047.53.109.53 1.394 0 1.172-.046 1.324-.401 1.324-.25 0-.301.196-.301 1.192v.793l-.809.765-.808.762-.055.598c-.05.586-.059.601-.332.672-.266.07-.281.101-.336.582-.031.277-.063.562-.074.636-.012.106-.196.137-.899.157-.484.015-.906.054-.941.09-.086.09-.121 2.203-.04 2.289.04.035.454.085.923.113l.855.043.055.75h-1.363c-.985 0-1.387-.031-1.454-.11-.046-.062-.101-.554-.12-1.097-.02-.543-.063-1.016-.094-1.051-.036-.031-.246.145-.473.395-.223.246-.469.453-.547.453-.078 0-.324-.2-.55-.442-.223-.242-.454-.441-.509-.441-.07 0-.109.344-.128 1.125l-.024 1.125-.601.023c-.36.016-.657-.011-.727-.07-.063-.055-.129-.266-.145-.469-.023-.3-.07-.387-.27-.48-.19-.094-.241-.18-.241-.41 0-.36-.203-.567-.395-.407-.094.078-.137.344-.156.961l-.023.852-.266.023c-.145.016-.313-.023-.375-.082zm0 0"/><path style="stroke:none;fill-rule:nonzero;fill:#fff;fill-opacity:1" d="M29.395 34.36c-.036-.184-.657-.27-.813-.114-.14.145.09.266.504.266.273.004.332-.028.309-.153zm9.742 3.007c-.075-.031-.11-.262-.11-.722 0-.66-.011-.688-.359-1.118-.531-.656-.668-.746-1.129-.757-.644-.012-.852-.098-.852-.348 0-.215.016-.219.852-.242l.852-.024.582.668c.32.367.582.715.586.774 0 .058.023.433.054.836.063.875-.05 1.105-.476.933zm-15.668-.617c-.032-.031-.059-.488-.059-1.012v-.949l1.367-1.602 2.47.047v.223c0 .219 0 .219-1.028.262-.567.027-1.047.066-1.07.09-.762.855-1.122 1.375-1.122 1.629 0 .156-.027.53-.058.828-.047.48-.078.543-.25.543-.106 0-.219-.028-.25-.059zm0 0"/><path style="stroke:none;fill-rule:nonzero;fill:#fff;fill-opacity:1" d="M39.969 36.75c-.035-.031-.059-.43-.059-.879v-.816l-.531-.614c-.29-.34-.59-.636-.668-.668-.078-.027-.484-.054-.906-.054-1.02 0-1.176-.047-1.145-.34.031-.258-.113-.238 1.563-.207l.875.02.715.843c.39.465.718.93.722 1.035.004.106.024.434.043.723.047.805-.016 1.016-.308 1.016-.133 0-.27-.028-.301-.059zm-9.164-4.71c-.192-.044-.207-.095-.23-.837-.024-.7-.052-.816-.243-1.015a1.22 1.22 0 0 1-.27-.504c-.046-.235-.011-.325.211-.547.149-.149.332-.27.415-.27.269 0 .636.258.746.52.128.312.058.59-.23.902-.188.2-.212.3-.188.75l.027.52h2.203l.027-.555c.024-.488 0-.59-.199-.824-.336-.403-.332-.809.016-1.121.285-.258.683-.207.972.12.262.298.254.669-.019.997-.195.23-.223.344-.223.953 0 .383-.035.75-.078.812-.058.094-.39.125-1.406.133-.73.008-1.422-.008-1.531-.035zm0 0"/></svg>