<svg xmlns="http://www.w3.org/2000/svg" width="64" height="64"><path style="fill-rule:nonzero;fill:#fff;fill-opacity:1;stroke-width:27.200571;stroke-linecap:butt;stroke-linejoin:miter;stroke:#4eaa07;stroke-opacity:1;stroke-miterlimit:4" d="M81.746-39.408h336.75c30.063 0 54.407 24.344 54.407 54.406v336.75c0 30.063-24.344 54.407-54.407 54.407H81.746c-30.062 0-54.406-24.344-54.406-54.407V14.998c0-30.062 24.344-54.406 54.406-54.406zm0 0" transform="matrix(.125 0 0 .125 .735 9.078)"/><path style="stroke:none;fill-rule:nonzero;fill:#fff;fill-opacity:1" d="M23.504 8.465c-.957 0-1.727.52-1.727 1.16v2.762h-6.304c-1.364 0-2.457.738-2.457 1.652v39.844c0 .914 1.093 1.652 2.457 1.652h33.054c1.364 0 2.457-.738 2.457-1.652V14.039c0-.914-1.093-1.652-2.457-1.652h-6.304V9.625c0-.64-.77-1.16-1.727-1.16zm0 0"/><path style="stroke:none;fill-rule:nonzero;fill:#2ca05a;fill-opacity:1" d="M25.242 9.852c-.762 0-1.375.41-1.375.921v2.836c0 .012 0 .024.004.036h-6.758c-1.226 0-2.21.69-2.21 1.554v37.524c0 .863.984 1.554 2.21 1.554h29.774c1.226 0 2.21-.691 2.21-1.554V15.199c0-.863-.984-1.554-2.21-1.554h-6.758a.108.108 0 0 0 .004-.036v-2.836c0-.511-.613-.921-1.375-.921zm0 0"/><path style="stroke:none;fill-rule:evenodd;fill:#fff;fill-opacity:1" d="M32.176 20.102 22.28 36.71h9.895v11.074l9.898-16.613h-9.898zm0 0"/></svg>