<svg xmlns="http://www.w3.org/2000/svg" width="64" height="64"><path style="fill-rule:nonzero;fill:#fff;fill-opacity:1;stroke-width:28.191782;stroke-linecap:butt;stroke-linejoin:miter;stroke:#25aedf;stroke-opacity:1;stroke-miterlimit:4" d="M81.469 25.094H430.53c31.125 0 56.375 25.25 56.375 56.375V430.53c0 31.125-25.25 56.375-56.375 56.375H81.47c-31.125 0-56.375-25.25-56.375-56.375V81.47c0-31.125 25.25-56.375 56.375-56.375zm0 0" transform="scale(.125)"/><path style="stroke:none;fill-rule:nonzero;fill:#25aedf;fill-opacity:1" d="m18.73 21.79 9.95 10.062-9.95 10.062 3.165 3.191 8.273-8.183v19.207L45.27 41.887l-9.157-10.035 9.133-10.024L30.25 7.871l-.074 19.117-8.274-8.379zm15.993-4.509 4.59 4.367-4.59 5.657zm0 20.078 4.597 4.692-4.586 4.37zm0 0"/></svg>