<svg xmlns="http://www.w3.org/2000/svg" width="64" height="64"><path style="fill-rule:nonzero;fill:#fff;fill-opacity:1;stroke-width:7.459076;stroke-linecap:butt;stroke-linejoin:miter;stroke:#25aedf;stroke-opacity:1;stroke-miterlimit:4" d="M21.555 168.173h92.356c8.236 0 14.916 6.68 14.916 14.916v92.356c0 8.235-6.68 14.916-14.916 14.916H21.555c-8.235 0-14.916-6.681-14.916-14.916v-92.356c0-8.236 6.681-14.916 14.916-14.916zm0 0" transform="translate(0 -76.315) scale(.47244)"/><path style="stroke:none;fill-rule:nonzero;fill:#2d2d2d;fill-opacity:1" d="M51.387 31.008c0 10.754-8.719 19.472-19.473 19.472-10.758 0-19.473-8.718-19.473-19.472 0-10.754 8.715-19.473 19.473-19.473 10.754 0 19.473 8.719 19.473 19.473zm0 0"/><path style="stroke:none;fill-rule:nonzero;fill:#2d2d2d;fill-opacity:1" d="M55.063 30.992c0 12.735-10.329 23.059-23.063 23.059-12.734 0-23.063-10.324-23.063-23.059C8.938 18.254 19.267 7.93 32 7.93c12.734 0 23.063 10.324 23.063 23.062zm0 0"/><path style="stroke:none;fill-rule:nonzero;fill:#173f7e;fill-opacity:1" d="M50.633 30.992c0 10.29-8.344 18.63-18.633 18.63-10.29 0-18.629-8.34-18.629-18.63C13.371 20.7 21.711 12.36 32 12.36c10.29 0 18.633 8.34 18.633 18.633zm0 0"/><path style="stroke:none;fill-rule:evenodd;fill:#2980b9;fill-opacity:1" d="M32.453 15.89c-8.316 0-15.055 6.743-15.055 15.055C17.398 39.262 24.137 46 32.453 46c8.313 0 15.055-6.738 15.055-15.055 0-8.312-6.742-15.054-15.055-15.054zm.2 7.672a7.229 7.229 0 0 1 7.226 7.231 7.225 7.225 0 0 1-7.227 7.227 7.225 7.225 0 0 1-7.226-7.227 7.229 7.229 0 0 1 7.226-7.23zm0 0"/><path style="stroke:none;fill-rule:evenodd;fill:#bdc3c7;fill-opacity:1" d="M41.496 26.527a5.286 5.286 0 0 0-5.281-5.285 5.283 5.283 0 1 0 5.281 5.285"/></svg>