<svg xmlns="http://www.w3.org/2000/svg" xmlns:xlink="http://www.w3.org/1999/xlink" width="64" height="64"><defs><clipPath id="c"><path d="M0 0h64v64H0z"/></clipPath><clipPath id="b"><path d="M0 0h64v64H0z"/></clipPath><clipPath id="h"><path d="M0 0h64v64H0z"/></clipPath><clipPath id="d"><path d="M0 0h64v64H0z"/></clipPath><clipPath id="f"><path d="M0 0h64v64H0z"/></clipPath><mask id="n"><g filter="url(#a)"><path style="fill:#000;fill-opacity:.8;stroke:none" d="M0 0h64v64H0z"/></g></mask><mask id="t"><g filter="url(#a)"><path style="fill:#000;fill-opacity:.8;stroke:none" d="M0 0h64v64H0z"/></g></mask><mask id="p"><g filter="url(#a)"><path style="fill:#000;fill-opacity:.6;stroke:none" d="M0 0h64v64H0z"/></g></mask><mask id="k"><g filter="url(#a)"><path style="fill:#000;fill-opacity:.8;stroke:none" d="M0 0h64v64H0z"/></g></mask><mask id="r"><g filter="url(#a)"><path style="fill:#000;fill-opacity:.6;stroke:none" d="M0 0h64v64H0z"/></g></mask><g id="j" clip-path="url(#b)"><path style="stroke:none;fill-rule:nonzero;fill:#aab3be;fill-opacity:1" d="M6.36 25.469h51.292v14.129H6.36zm0 0"/></g><g id="o" clip-path="url(#c)"><path style="stroke:none;fill-rule:nonzero;fill:#26282a;fill-opacity:1" d="M41.277 25.422c-4.804-.192-8.726 4.976-7.574 9.57.695 2.938 3.336 5.133 6.274 5.606 2.796.554 5.87-.61 7.464-2.985 2.266-3.226 1.727-8.347-1.652-10.605-1.293-.961-2.879-1.617-4.512-1.586zm0 0"/></g><g id="m" clip-path="url(#d)"><path style="stroke:none;fill-rule:nonzero;fill:url(#e)" d="M31.363 33.098c0 5.433 4.407 9.836 9.84 9.836 5.43 0 9.836-4.403 9.836-9.836a9.834 9.834 0 0 0-9.836-9.836c-5.433 0-9.84 4.402-9.84 9.836zm0 0"/></g><g id="q" clip-path="url(#f)"><path style="stroke:none;fill-rule:nonzero;fill:url(#g)" d="M40.988 26.406c-4.597.016-7.996 5.707-5.812 9.754 1.902 3.672 7.515 4.813 10.562 1.942 3.055-2.75 2.715-8.45-.879-10.567-1.148-.742-2.496-1.168-3.87-1.129zm0 0"/></g><g id="s" clip-path="url(#h)"><path style="fill-rule:nonzero;fill:#d41a1a;fill-opacity:1;stroke-width:1.016941;stroke-linecap:butt;stroke-linejoin:miter;stroke:url(#i);stroke-miterlimit:4" d="M399.375 163.594c0-3.719 1.688-7.063 4.344-9.344a13.918 13.918 0 0 1 3.125-1.969 13.257 13.257 0 0 1 5.25-1.094c1.844 0 3.625.407 5.219 1.094 1.156.531 2.218 1.188 3.125 1.969 2.656 2.281 4.343 5.625 4.343 9.344 0 6.844-5.687 12.406-12.687 12.406-7.031 0-12.719-5.563-12.719-12.406zm0 0" transform="scale(.125)"/></g><radialGradient id="g" gradientUnits="userSpaceOnUse" cx="297.172" cy="131.448" fx="297.172" fy="131.448" r="69.473" gradientTransform="matrix(.1102 0 0 .11023 4.804 15.395)"><stop offset="0" style="stop-color:#646464;stop-opacity:1"/><stop offset="1" style="stop-color:#4d4d4d;stop-opacity:1"/></radialGradient><radialGradient id="e" gradientUnits="userSpaceOnUse" cx="290.603" cy="111.369" fx="290.603" fy="111.369" r="89.267" gradientTransform="matrix(.1015 .12081 -.08437 .07088 16.573 -14.643)"><stop offset="0" style="stop-color:#828996;stop-opacity:1"/><stop offset="1" style="stop-color:#5a5c64;stop-opacity:1"/></radialGradient><linearGradient id="i" gradientUnits="userSpaceOnUse" x1="272.797" y1="91.316" x2="397.094" y2="220.285" gradientTransform="matrix(.10522 0 0 .1027 377.37 147.093)"><stop offset="0" style="stop-color:#f55;stop-opacity:1"/><stop offset="1" style="stop-color:#ff0505;stop-opacity:1"/></linearGradient><linearGradient id="l" gradientUnits="userSpaceOnUse" x1="272.797" y1="91.316" x2="397.094" y2="220.285" gradientTransform="translate(38.43 123.193) scale(.88158)"><stop offset="0" style="stop-color:#fff;stop-opacity:1"/><stop offset="1" style="stop-color:#828282;stop-opacity:1"/></linearGradient><filter id="a" filterUnits="objectBoundingBox" x="0%" y="0%" width="100%" height="100%"><feColorMatrix in="SourceGraphic" values="0 0 0 0 1 0 0 0 0 1 0 0 0 0 1 0 0 0 1 0"/></filter></defs><path style="fill-rule:nonzero;fill:#fff;fill-opacity:1;stroke-width:18.73;stroke-linecap:butt;stroke-linejoin:miter;stroke:#707c8a;stroke-opacity:1;stroke-miterlimit:4" d="M78.656 31h354.688C459.656 31 481 52.344 481 78.656v354.688C481 459.656 459.656 481 433.344 481H78.656C52.344 481 31 459.656 31 433.344V78.656C31 52.344 52.344 31 78.656 31zm0 0" transform="scale(.125)"/><path style="stroke:none;fill-rule:nonzero;fill:#333;fill-opacity:1" d="M14.875 14.059h9.059c.375 0 .675.3.675.671v1.153c0 .375-.3.676-.675.676h-9.059a.676.676 0 0 1-.676-.676V14.73c0-.37.305-.671.676-.671zm0 0"/><path style="stroke:none;fill-rule:nonzero;fill:#707c8a;fill-opacity:1" d="M11.227 15.863c-5.922 0-4.868 3.098-4.868 6.946v19.449c0 3.847-.484 6.945 5.438 6.945h39.73c5.922 0 6.125-3.098 6.125-6.945v-19.45c0-3.847 1.164-6.945-4.754-6.945zm0 0"/><use xlink:href="#j" mask="url(#k)"/><path style="fill-rule:nonzero;fill:#ececec;fill-opacity:1;stroke-width:2.644728;stroke-linecap:butt;stroke-linejoin:miter;stroke:url(#l);stroke-miterlimit:4" d="M250.906 264.781c0 43.469 35.25 78.688 78.719 78.688 43.438 0 78.688-35.219 78.688-78.688s-35.22-78.687-78.688-78.687c-43.469 0-78.719 35.219-78.719 78.687zm-28.125 0c0-31.875 14.094-60.5 36.375-80.031a107.805 107.805 0 0 1 26.188-16.938 105.768 105.768 0 0 1 43.906-9.5 105.93 105.93 0 0 1 43.938 9.5 107.805 107.805 0 0 1 26.187 16.938c22.281 19.531 36.375 48.156 36.375 80.031 0 58.719-47.781 106.469-106.5 106.469-58.688 0-106.469-47.75-106.469-106.469zm0 0" transform="scale(.125)"/><use xlink:href="#m" mask="url(#n)"/><use xlink:href="#o" mask="url(#p)"/><use xlink:href="#q" mask="url(#r)"/><path style="stroke:none;fill-rule:nonzero;fill:#ccc;fill-opacity:1" d="M38.55 28.621a2.203 2.203 0 1 1-4.405 0 2.203 2.203 0 0 1 4.406 0zm0 0"/><use xlink:href="#s" mask="url(#t)"/></svg>