<svg xmlns="http://www.w3.org/2000/svg" width="64" height="64"><path style="stroke:none;fill-rule:nonzero;fill:gray;fill-opacity:1" d="M12.215 9.691h39.55a2.509 2.509 0 0 1 2.508 2.512v29.012a2.508 2.508 0 0 1-2.507 2.508H12.215a2.508 2.508 0 0 1-2.508-2.508V12.203a2.509 2.509 0 0 1 2.508-2.512zm0 0"/><path style="stroke:none;fill-rule:nonzero;fill:#25aedf;fill-opacity:1" d="M13.879 12.879h36.223v27.656H13.879zm0 0"/><path style="stroke:none;fill-rule:nonzero;fill:gray;fill-opacity:1" d="M9.707 45.04h44.566l9.004 9.269H18.711zm0 0"/><path style="stroke:none;fill-rule:nonzero;fill:gray;fill-opacity:1" d="M54.293 45.04H9.727L.723 54.308h44.566zm0 0"/><path style="stroke:none;fill-rule:nonzero;fill:#fff;fill-opacity:1" d="M11.031 46.332H52.95v.543H11.031zm-1.472 1.551h44.863v.547H9.559zm-1.711 1.633h48.28v.543H7.849zm0 0"/><path style="stroke:none;fill-rule:nonzero;fill:#fff;fill-opacity:1" d="m52.7 46.605.32-.32 3.542 3.54-.324.32zm0 0"/><path style="stroke:none;fill-rule:nonzero;fill:#fff;fill-opacity:1" d="m52.7 46.605.32-.32 3.542 3.54-.324.32zm-3.567 0 .32-.32 3.54 3.54-.321.32zm-3.843 0 .32-.32 3.542 3.54-.324.32zm-3.622 0 .32-.32 3.54 3.54-.321.32zm-3.789 0 .324-.32 3.54 3.54-.325.32zm-4.555 0 .32-.32 3.544 3.54-.325.32zm-21.941 0-.32-.32-3.54 3.54.32.32zm0 0"/><path style="stroke:none;fill-rule:nonzero;fill:#fff;fill-opacity:1" d="m11.383 46.605-.32-.32-3.54 3.54.32.32zm3.57 0-.324-.32-3.54 3.54.321.32zm3.84 0-.32-.32-3.54 3.54.32.32zm3.625 0-.324-.32-3.54 3.54.321.32zm3.785 0-.32-.32-3.543 3.54.324.32zm4.555 0-.32-.32-3.54 3.54.32.32zm4.004 3.137.402-.21 2.332 4.429-.402.21zm-5.375 0-.407-.21-2.328 4.429.403.21zm0 0"/><path style="stroke:none;fill-rule:nonzero;fill:#fff;fill-opacity:1" d="M26.766 53.707h10.476v.387H26.766zm.694-1.398h9.083v.386h-9.082zm0 0"/><path style="stroke:none;fill-rule:nonzero;fill:#fff;fill-opacity:1" d="M32.313 52.582v1.242h-.387v-1.242zm0 0"/></svg>