<svg xmlns="http://www.w3.org/2000/svg" width="64" height="64"><path style="fill-rule:nonzero;fill:#fff;fill-opacity:1;stroke-width:28.191782;stroke-linecap:butt;stroke-linejoin:miter;stroke:#25aedf;stroke-opacity:1;stroke-miterlimit:4" d="M81.469 25.094H430.53c31.125 0 56.375 25.25 56.375 56.375V430.53c0 31.125-25.25 56.375-56.375 56.375H81.47c-31.125 0-56.375-25.25-56.375-56.375V81.47c0-31.125 25.25-56.375 56.375-56.375zm0 0" transform="scale(.125)"/><path style="stroke:none;fill-rule:evenodd;fill:gray;fill-opacity:1" d="m28.191 50.043-6.082 3.988h19.766l-6.082-3.988zm0 0"/><path style="stroke:none;fill-rule:evenodd;fill:gray;fill-opacity:1" d="m28.191 48.836-6.082 3.988h19.766l-6.082-3.988zm0 0"/><path style="stroke:none;fill-rule:nonzero;fill:#4d4d4d;fill-opacity:1" d="M27.77 41.512h8.46v9.41h-8.46zm0 0"/><path style="stroke:none;fill-rule:nonzero;fill:gray;fill-opacity:1" d="M11.012 9.969h41.976c1.473 0 2.664 1.136 2.664 2.543V41.91c0 1.403-1.191 2.54-2.664 2.54H11.012c-1.473 0-2.664-1.138-2.664-2.54V12.512c0-1.407 1.191-2.543 2.664-2.543zm0 0"/><path style="stroke:none;fill-rule:nonzero;fill:#25aedf;fill-opacity:1" d="M12.777 13.195h38.446v28.028H12.777zm0 0"/><path style="stroke:none;fill-rule:evenodd;fill:#000;fill-opacity:1" d="M22.11 52.824v1.207h19.78v-1.207zm0 0"/></svg>