<svg xmlns="http://www.w3.org/2000/svg" width="64" height="64"><path style="fill-rule:nonzero;fill:#ececec;fill-opacity:1;stroke-width:27.983692;stroke-linecap:butt;stroke-linejoin:miter;stroke:#25aedf;stroke-opacity:1;stroke-miterlimit:4" d="M82.781 26.813H429.22c30.937 0 55.969 25.03 55.969 55.968V429.22c0 30.937-25.032 55.969-55.97 55.969H82.782c-30.937 0-55.969-25.032-55.969-55.97V82.782c0-30.937 25.032-55.969 55.97-55.969zm0 0" transform="scale(.125)"/><path style="stroke:none;fill-rule:nonzero;fill:#6d7a7f;fill-opacity:1" d="M15.11 8.93h33.78c1.2 0 2.176.972 2.176 2.175V53.02a2.176 2.176 0 0 1-2.175 2.175H15.109a2.174 2.174 0 0 1-2.175-2.175V11.105c0-1.203.972-2.175 2.175-2.175zm0 0"/><path style="stroke:none;fill-rule:nonzero;fill:#15495d;fill-opacity:1" d="M15.777 51.023H31.81c.332 0 .597.27.597.598v1.184a.598.598 0 0 1-.597.597H15.777a.598.598 0 0 1-.597-.597V51.62c0-.328.265-.598.597-.598zm0 0"/><path style="stroke:none;fill-rule:nonzero;fill:#25aedf;fill-opacity:1" d="M15.11 8.805h33.78c1.204 0 2.176.851 2.176 1.906v36.738c0 1.055-.972 1.906-2.175 1.906H15.109c-1.199 0-2.175-.851-2.175-1.906V10.711c0-1.055.976-1.906 2.175-1.906zm0 0"/><path style="stroke:none;fill-rule:nonzero;fill:#d1d2d3;fill-opacity:1" d="M43.582 52.21c0 .587-.477 1.067-1.066 1.067a1.068 1.068 0 0 1 0-2.136c.59 0 1.066.48 1.066 1.07zm3.293-.003a1.065 1.065 0 1 1-2.133 0 1.068 1.068 0 0 1 2.133 0zm0 0"/><path style="stroke:none;fill-rule:nonzero;fill:#ebebeb;fill-opacity:1" d="M41.844 38.934c2.715-2.72 4.074-5.996 4.074-9.84 0-3.848-1.36-7.125-4.074-9.844-2.719-2.719-6-4.078-9.844-4.078-3.844 0-7.125 1.36-9.844 4.078-2.718 2.719-4.074 5.996-4.074 9.844 0 3.843 1.355 7.12 4.074 9.84 2.719 2.718 6 4.078 9.844 4.078 3.844 0 7.125-1.36 9.844-4.078zm0 0"/><path style="fill-rule:nonzero;fill:#367bf0;fill-opacity:1;stroke-width:5.063694;stroke-linecap:butt;stroke-linejoin:miter;stroke:#367bf0;stroke-opacity:1;stroke-miterlimit:0" d="M272.01-857.088h23.151v23.265H272.01zm0 0" transform="rotate(-90 87.764 -34.163) scale(.1031)"/><path style="fill-rule:nonzero;fill:#367bf0;fill-opacity:1;stroke-width:5.063694;stroke-linecap:butt;stroke-linejoin:miter;stroke:#367bf0;stroke-opacity:1;stroke-miterlimit:0" d="M-874.707-184.521c9.321 0 16.861 7.54 16.861 16.86 0 9.322-7.54 16.862-16.86 16.862-9.322 0-16.862-7.54-16.862-16.861 0-9.321 7.54-16.861 16.861-16.861zm-29.175-83.814a11.19 11.19 0 0 1 11.215 11.216c0 6.176-5.001 11.215-11.215 11.177-6.177 0-11.216-5.001-11.216-11.177 0-6.214 5.04-11.216 11.216-11.216zm0 0" transform="translate(121.927 53.601) scale(.1031)"/><path style="fill-rule:evenodd;fill:#367bf0;fill-opacity:1;stroke-width:5.063694;stroke-linecap:butt;stroke-linejoin:miter;stroke:#367bf0;stroke-opacity:1;stroke-miterlimit:0" d="M-885.392-309.18s10.571-22.659 10.799-22.318c.265.341 10.457 22.318 10.457 22.318zm0 0" transform="translate(121.927 53.601) scale(.1031)"/><path style="fill:none;stroke-width:9.140924;stroke-linecap:butt;stroke-linejoin:miter;stroke:#367bf0;stroke-opacity:1;stroke-miterlimit:0" d="M-875.124-189.485c-1.856-19.968-28.796-30.01-28.796-41.604 0-7.805.34-11.215.34-21.18m28.684 39.216c0-20.65 19.437-25.5 29.061-40.77 1.478-2.576.53-25.917.53-27.394m-29.629 113.027v-146.75" transform="translate(121.927 53.601) scale(.1031)"/></svg>