<svg xmlns="http://www.w3.org/2000/svg" width="64" height="64"><path style="fill-rule:nonzero;fill:#ececec;fill-opacity:1;stroke-width:27.983692;stroke-linecap:butt;stroke-linejoin:miter;stroke:#25aedf;stroke-opacity:1;stroke-miterlimit:4" d="M82.781 26.813H429.22c30.937 0 55.969 25.03 55.969 55.968V429.22c0 30.937-25.032 55.969-55.97 55.969H82.782c-30.937 0-55.969-25.032-55.969-55.97V82.782c0-30.937 25.032-55.969 55.97-55.969zm0 0" transform="scale(.125)"/><path style="stroke:none;fill-rule:nonzero;fill:#6d7a7f;fill-opacity:1" d="M16.11 19.758h31.78c1.13 0 2.047.734 2.047 1.64v31.61c0 .906-.917 1.64-2.046 1.64H16.109c-1.132 0-2.047-.734-2.047-1.64v-31.61c0-.906.915-1.64 2.047-1.64zm0 0"/><path style="stroke:none;fill-rule:nonzero;fill:#15495d;fill-opacity:1" d="M16.734 51.5H31.82c.309 0 .563.203.563.453v.89c0 .25-.254.45-.563.45H16.734c-.308 0-.562-.2-.562-.45v-.89c0-.25.254-.453.562-.453zm0 0"/><path style="stroke:none;fill-rule:nonzero;fill:#d1d2d3;fill-opacity:1" d="M42.898 52.395c0 .445-.449.804-1.003.804-.555 0-1.004-.36-1.004-.804 0-.446.449-.805 1.004-.805.554 0 1.003.36 1.003.805zm3.098 0c0 .445-.45.804-1.004.804s-1.004-.36-1.004-.804c0-.446.45-.805 1.004-.805.555 0 1.004.36 1.004.805zm0 0"/><path style="stroke:none;fill-rule:nonzero;fill:#6d7a7f;fill-opacity:1" d="M16.11 16.3h31.78c1.13 0 2.047.735 2.047 1.641v31.61c0 .906-.917 1.64-2.046 1.64H16.109c-1.132 0-2.047-.734-2.047-1.64V17.94c0-.906.915-1.64 2.047-1.64zm0 0"/><path style="stroke:none;fill-rule:nonzero;fill:#15495d;fill-opacity:1" d="M16.734 48.043H31.82c.309 0 .563.203.563.453v.89c0 .25-.254.454-.563.454H16.734c-.308 0-.562-.203-.562-.453v-.89c0-.25.254-.454.562-.454zm0 0"/><path style="stroke:none;fill-rule:nonzero;fill:#d1d2d3;fill-opacity:1" d="M42.898 48.938c0 .445-.449.804-1.003.804-.555 0-1.004-.36-1.004-.804 0-.442.449-.805 1.004-.805.554 0 1.003.363 1.003.804zm3.098 0c0 .445-.45.804-1.004.804s-1.004-.36-1.004-.804c0-.442.45-.805 1.004-.805.555 0 1.004.363 1.004.804zm0 0"/><path style="stroke:none;fill-rule:nonzero;fill:#6d7a7f;fill-opacity:1" d="M16.11 12.902h31.78c1.13 0 2.047.735 2.047 1.641v31.61c0 .906-.917 1.64-2.046 1.64H16.109c-1.132 0-2.047-.734-2.047-1.64v-31.61c0-.906.915-1.64 2.047-1.64zm0 0"/><path style="stroke:none;fill-rule:nonzero;fill:#15495d;fill-opacity:1" d="M16.734 44.645H31.82c.309 0 .563.203.563.453v.89c0 .25-.254.453-.563.453H16.734c-.308 0-.562-.203-.562-.453v-.89c0-.25.254-.453.562-.453zm0 0"/><path style="stroke:none;fill-rule:nonzero;fill:#d1d2d3;fill-opacity:1" d="M42.898 45.54c0 .444-.449.804-1.003.804-.555 0-1.004-.36-1.004-.805 0-.441.449-.8 1.004-.8.554 0 1.003.359 1.003.8zm3.098 0c0 .444-.45.804-1.004.804s-1.004-.36-1.004-.805c0-.441.45-.805 1.004-.805.555 0 1.004.364 1.004.805zm0 0"/><path style="stroke:none;fill-rule:nonzero;fill:#6d7a7f;fill-opacity:1" d="M16.11 9.445h31.78c1.13 0 2.047.735 2.047 1.64v31.61c0 .907-.917 1.64-2.046 1.64H16.109c-1.132 0-2.047-.733-2.047-1.64v-31.61c0-.905.915-1.64 2.047-1.64zm0 0"/><path style="stroke:none;fill-rule:nonzero;fill:#15495d;fill-opacity:1" d="M16.734 41.191H31.82c.309 0 .563.204.563.45v.89c0 .25-.254.453-.563.453H16.734c-.308 0-.562-.203-.562-.453v-.89c0-.246.254-.45.562-.45zm0 0"/><path style="stroke:none;fill-rule:nonzero;fill:#d1d2d3;fill-opacity:1" d="M42.898 42.086c0 .441-.449.805-1.003.805-.555 0-1.004-.364-1.004-.805 0-.445.449-.805 1.004-.805.554 0 1.003.36 1.003.805zm3.098 0c0 .441-.45.805-1.004.805s-1.004-.364-1.004-.805c0-.445.45-.805 1.004-.805.555 0 1.004.36 1.004.805zm0 0"/><path style="stroke:none;fill-rule:nonzero;fill:#25aedf;fill-opacity:1" d="M16.11 9.352h31.78c1.133 0 2.047.644 2.047 1.441v27.703c0 .793-.914 1.438-2.046 1.438H16.109c-1.129 0-2.047-.645-2.047-1.438V10.793c0-.797.918-1.441 2.047-1.441zm0 0"/><path style="stroke:none;fill-rule:nonzero;fill:#ebebeb;fill-opacity:1" d="M41.262 32.066c2.554-2.05 3.836-4.523 3.836-7.421 0-2.899-1.278-5.375-3.836-7.422-2.559-2.051-5.645-3.075-9.262-3.075-3.617 0-6.703 1.024-9.258 3.075-2.558 2.047-3.836 4.523-3.836 7.422 0 2.898 1.278 5.37 3.836 7.421 2.555 2.051 5.64 3.075 9.258 3.075 3.617 0 6.703-1.024 9.262-3.075zm0 0"/></svg>