<svg xmlns="http://www.w3.org/2000/svg" width="64" height="64"><path style="fill-rule:nonzero;fill:#ececec;fill-opacity:1;stroke-width:27.983692;stroke-linecap:butt;stroke-linejoin:miter;stroke:#25aedf;stroke-opacity:1;stroke-miterlimit:4" d="M82.781 26.813H429.22c30.937 0 55.969 25.03 55.969 55.968V429.22c0 30.937-25.032 55.969-55.97 55.969H82.782c-30.937 0-55.969-25.032-55.969-55.97V82.782c0-30.937 25.032-55.969 55.97-55.969zm0 0" transform="scale(.125)"/><path style="stroke:none;fill-rule:nonzero;fill:#6d7a7f;fill-opacity:1" d="M17.473 12.156h29.054a1.87 1.87 0 0 1 1.871 1.871v36.051c0 1.035-.84 1.871-1.87 1.871H17.472a1.869 1.869 0 0 1-1.871-1.87V14.026c0-1.035.835-1.87 1.87-1.87zm0 0"/><path style="stroke:none;fill-rule:nonzero;fill:#15495d;fill-opacity:1" d="M18.047 48.363h13.789c.285 0 .516.23.516.512v1.016c0 .285-.23.515-.516.515h-13.79a.515.515 0 0 1-.515-.515v-1.016c0-.281.23-.512.516-.512zm0 0"/><path style="stroke:none;fill-rule:nonzero;fill:#25aedf;fill-opacity:1" d="M17.473 12.05h29.054c1.035 0 1.871.735 1.871 1.641V45.29c0 .906-.836 1.64-1.87 1.64H17.472c-1.032 0-1.871-.734-1.871-1.64V13.691c0-.906.84-1.64 1.87-1.64zm0 0"/><path style="stroke:none;fill-rule:nonzero;fill:#d1d2d3;fill-opacity:1" d="M41.96 49.383a.916.916 0 1 1-1.831-.004.916.916 0 0 1 1.832.004zm2.833 0a.915.915 0 1 1-1.83-.003.915.915 0 0 1 1.83.003zm0 0"/><path style="stroke:none;fill-rule:nonzero;fill:#ebebeb;fill-opacity:1" d="M40.695 38.043c2.34-2.336 3.508-5.156 3.508-8.465 0-3.305-1.168-6.125-3.508-8.465-2.336-2.336-5.156-3.504-8.465-3.504-3.304 0-6.125 1.168-8.464 3.504-2.336 2.34-3.504 5.16-3.504 8.465 0 3.309 1.168 6.129 3.504 8.465 2.34 2.34 5.16 3.508 8.464 3.508 3.31 0 6.13-1.168 8.465-3.508zm0 0"/><path style="stroke:none;fill-rule:nonzero;fill:#367bf0;fill-opacity:1" d="M29.742 36.598v-.805h4.32v1.61h-4.32zm0-2.395v-.781h4.32v1.566h-4.32zm1.274-1.715a3.093 3.093 0 0 1-2.211-2.183c-.137-.48-.137-1.336 0-1.817.308-1.097 1.136-1.91 2.226-2.183.426-.11 1.262-.117 1.672-.02.922.223 1.766.938 2.129 1.8.32.763.328 1.813.023 2.567a3.165 3.165 0 0 1-2.152 1.852c-.402.101-1.273.09-1.687-.016zm1.285-1.207c.742-.195 1.308-.793 1.488-1.574.086-.363.04-.668-.172-1.105-.367-.774-1.234-1.258-1.996-1.118-1.137.211-1.902 1.352-1.601 2.383.203.695.746 1.215 1.48 1.414.281.078.504.078.8 0zm-5.473-4.226c-.285-.285-.476-.508-.476-.563 0-.113 2.789-2.898 2.902-2.898.133 0 1.039.926 1.039 1.058 0 .157-2.727 2.88-2.883 2.88-.078 0-.226-.122-.582-.477zm7.945-.934c-.93-.918-1.218-1.226-1.218-1.305 0-.078.363-.464 1.535-1.636 1.246-1.242 1.555-1.535 1.648-1.535.09 0 .336.23 1.313 1.23.746.77 1.203 1.27 1.215 1.328.015.14-2.989 3.09-3.16 3.106-.102.007-.294-.16-1.333-1.188zm-9.808-.887c-.356-.355-.434-.457-.434-.562 0-.11.184-.309 1.387-1.512 1.086-1.086 1.41-1.387 1.496-1.387.148 0 1.016.864 1.016 1.016 0 .082-.309.414-1.39 1.492-1.208 1.207-1.403 1.387-1.513 1.387-.105 0-.203-.074-.562-.434zm0 0"/></svg>