<svg xmlns="http://www.w3.org/2000/svg" width="64" height="64"><defs><clipPath id="a"><path d="M32 29h13v14H32zm0 0"/></clipPath><clipPath id="b"><path d="M38.469 19.008c-6.188-3.57-14.098-1.45-17.672 4.738-3.57 6.184-1.453 14.098 4.734 17.668 6.188 3.574 14.098 1.453 17.672-4.734 3.57-6.188 1.453-14.098-4.734-17.672zm-4.703 8.148a3.53 3.53 0 0 1-3.531 6.113 3.53 3.53 0 0 1 3.531-6.113zm0 0"/></clipPath><clipPath id="c"><path d="M19 18h13v13H19zm0 0"/></clipPath><clipPath id="d"><path d="M25.586 41.535c6.187 3.574 14.098 1.453 17.668-4.734 3.574-6.188 1.453-14.098-4.734-17.668-6.188-3.574-14.098-1.453-17.672 4.734-3.57 6.188-1.45 14.098 4.738 17.668zm4.703-8.144a3.531 3.531 0 0 1-1.293-4.82 3.531 3.531 0 0 1 4.82-1.294 3.531 3.531 0 0 1 1.293 4.82 3.531 3.531 0 0 1-4.82 1.294zm0 0"/></clipPath></defs><path style="fill-rule:nonzero;fill:#ececec;fill-opacity:1;stroke-width:27.983692;stroke-linecap:butt;stroke-linejoin:miter;stroke:#25aedf;stroke-opacity:1;stroke-miterlimit:4" d="M82.781 26.813H429.22c30.937 0 55.969 25.03 55.969 55.968V429.22c0 30.937-25.032 55.969-55.97 55.969H82.782c-30.937 0-55.969-25.032-55.969-55.97V82.782c0-30.937 25.032-55.969 55.97-55.969zm0 0" transform="scale(.125)"/><path style="stroke:none;fill-rule:nonzero;fill:#6d7a7f;fill-opacity:1" d="M15.125 8.95h33.75c1.2 0 2.176.972 2.176 2.171V53a2.176 2.176 0 0 1-2.176 2.176h-33.75A2.174 2.174 0 0 1 12.949 53V11.121c0-1.2.973-2.172 2.176-2.172zm0 0"/><path style="stroke:none;fill-rule:nonzero;fill:#15495d;fill-opacity:1" d="M15.79 51.008h16.019c.332 0 .597.265.597.597v1.18a.595.595 0 0 1-.597.598h-16.02a.598.598 0 0 1-.598-.598v-1.18c0-.332.27-.597.598-.597zm0 0"/><path style="stroke:none;fill-rule:nonzero;fill:#25aedf;fill-opacity:1" d="M15.125 8.824h33.75c1.203 0 2.176.852 2.176 1.906v36.707c0 1.051-.973 1.907-2.176 1.907h-33.75c-1.2 0-2.176-.856-2.176-1.907V10.73c0-1.054.977-1.906 2.176-1.906zm0 0"/><path style="stroke:none;fill-rule:nonzero;fill:#d1d2d3;fill-opacity:1" d="M43.57 52.191a1.064 1.064 0 1 1-2.129 0 1.065 1.065 0 1 1 2.13 0zm3.293 0a1.065 1.065 0 1 1-2.133 0 1.065 1.065 0 1 1 2.133 0zm0 0"/><path style="fill-rule:nonzero;fill:gray;fill-opacity:1;stroke-width:1.569832;stroke-linecap:butt;stroke-linejoin:miter;stroke:#d4d4d4;stroke-opacity:1;stroke-miterlimit:4" d="M255.999 113.042c-69.353.017-125.562 56.247-125.578 125.619-.001 69.32 56.215 125.58 125.567 125.563 69.372.016 125.581-56.214 125.597-125.586-.017-69.352-56.215-125.58-125.586-125.596zm.011 91.338c18.929.02 34.256 15.342 34.237 34.27.013 18.91-15.342 34.255-34.251 34.269-18.928-.02-34.256-15.342-34.236-34.27-.014-18.91 15.341-34.255 34.25-34.269zm0 0" transform="rotate(30 18.677 37.902) scale(.103)"/><g clip-path="url(#a)"><g clip-path="url(#b)"><path style="stroke:none;fill-rule:evenodd;fill:#f2f2f2;fill-opacity:1" d="m34.059 29.934 12.98 2.191-5.96 10.324-8.622-11.136zm0 0"/></g></g><g clip-path="url(#c)"><g clip-path="url(#d)"><path style="stroke:none;fill-rule:evenodd;fill:#f2f2f2;fill-opacity:1" d="m29.996 30.613-12.98-2.191 5.96-10.324 8.618 11.136zm0 0"/></g></g><path style="fill-rule:nonzero;fill:#fff;fill-opacity:1;stroke-width:2.780315;stroke-linecap:butt;stroke-linejoin:miter;stroke:#e7e7e7;stroke-opacity:1;stroke-miterlimit:4" d="M256.004 185.029c-29.615-.024-53.624 23.997-53.615 53.593-.004 29.648 23.998 53.625 53.613 53.648 29.596-.01 53.625-23.997 53.596-53.626.023-29.616-23.998-53.625-53.594-53.615zm0 25.179c15.715-.009 28.458 12.733 28.467 28.449-.01 15.682-12.753 28.425-28.468 28.434-15.716.009-28.458-12.733-28.467-28.449-.01-15.715 12.733-28.458 28.467-28.434zm0 0" transform="rotate(30 18.677 37.902) scale(.103)"/></svg>