<svg xmlns="http://www.w3.org/2000/svg" xmlns:xlink="http://www.w3.org/1999/xlink" width="64" height="64"><defs><symbol overflow="visible" id="a"><path style="stroke:none" d="M.844-7.11h.969v4.313c0 .774.132 1.324.406 1.656.281.336.734.5 1.36.5.612 0 1.054-.164 1.327-.5.282-.332.422-.882.422-1.656v-4.312h.953v4.437c0 .93-.23 1.633-.687 2.11C5.133-.094 4.46.14 3.578.14c-.906 0-1.59-.235-2.047-.704-.46-.476-.687-1.18-.687-2.109zm0 0"/></symbol><symbol overflow="visible" id="b"><path style="stroke:none" d="M5.219-6.875v.938a6.01 6.01 0 0 0-1.032-.391 3.824 3.824 0 0 0-.937-.125c-.523 0-.93.105-1.219.312-.281.2-.422.485-.422.86 0 .312.094.554.282.718.187.157.546.282 1.078.375l.578.125c.719.137 1.242.375 1.578.72.344.343.516.804.516 1.374 0 .7-.23 1.227-.688 1.578-.46.356-1.137.532-2.031.532A5.17 5.17 0 0 1 1.844.016 7.395 7.395 0 0 1 .672-.313v-.984c.383.219.765.387 1.14.5.375.106.743.156 1.11.156.55 0 .973-.109 1.265-.328.301-.219.454-.523.454-.922 0-.343-.11-.613-.329-.812-.21-.195-.558-.348-1.046-.453l-.579-.11c-.718-.144-1.242-.367-1.562-.671C.801-4.239.641-4.66.641-5.204c0-.633.218-1.129.656-1.484.445-.364 1.062-.547 1.844-.547.332 0 .671.03 1.015.093a6.43 6.43 0 0 1 1.063.266zm0 0"/></symbol><symbol overflow="visible" id="c"><path style="stroke:none" d="M1.922-3.39v2.593h1.547c.508 0 .89-.101 1.14-.312.25-.22.375-.547.375-.985 0-.445-.125-.773-.375-.984-.25-.207-.632-.313-1.14-.313zm0-2.922v2.14h1.422c.469 0 .816-.086 1.047-.266.226-.175.343-.445.343-.812 0-.352-.117-.617-.343-.797-.23-.176-.579-.266-1.047-.266zM.953-7.11h2.453c.739 0 1.305.156 1.703.468.395.305.594.735.594 1.297 0 .43-.105.774-.312 1.032-.2.261-.496.421-.891.484.477.094.848.305 1.11.625.257.324.39.73.39 1.219 0 .636-.219 1.125-.656 1.468-.43.344-1.04.516-1.828.516H.953zm0 0"/></symbol></defs><path style="stroke:none;fill-rule:nonzero;fill:#637a82;fill-opacity:1" d="M22.844 14.277h18.312V2.832H22.844zm0 0"/><path style="stroke:none;fill-rule:nonzero;fill:#fff;fill-opacity:.654902" d="M25.492 10.063h4.578V5.484h-4.578zm0 0"/><path style="stroke:none;fill-rule:nonzero;fill:#05353f;fill-opacity:.654902" d="M25.133 9.7h4.578V5.12h-4.578zm0 0"/><path style="stroke:none;fill-rule:nonzero;fill:#fff;fill-opacity:.654902" d="M34.648 10.063h4.579V5.484h-4.579zm0 0"/><path style="stroke:none;fill-rule:nonzero;fill:#05353f;fill-opacity:.654902" d="M34.29 9.7h4.577V5.12H34.29zm0 0"/><path style="fill-rule:nonzero;fill:#25aedf;fill-opacity:1;stroke-width:9.766254;stroke-linecap:butt;stroke-linejoin:miter;stroke:#25aedf;stroke-opacity:1;stroke-miterlimit:4" d="M155.281 119.094H356.72c8.312 0 15.062 6.75 15.062 15.062v336.156c0 8.313-6.75 15.063-15.062 15.063H155.28c-8.312 0-15.062-6.75-15.062-15.063V134.156c0-8.312 6.75-15.062 15.062-15.062zm0 0" transform="scale(.125)"/><g style="fill:#666;fill-opacity:1"><use xlink:href="#a" x="22.859" y="57.179"/><use xlink:href="#b" x="29.984" y="57.179"/><use xlink:href="#c" x="36.234" y="57.179"/></g><g style="fill:#fff;fill-opacity:1"><use xlink:href="#a" x="22.297" y="56.734"/><use xlink:href="#b" x="29.422" y="56.734"/><use xlink:href="#c" x="35.672" y="56.734"/></g><path style="stroke:none;fill-rule:nonzero;fill:#ecf0f1;fill-opacity:1" d="M35.8 27.652V23.91h3.755v3.742zm-3.445 14.133a2.548 2.548 0 1 1 .001 5.094 2.548 2.548 0 0 1-2.551-2.547 2.55 2.55 0 0 1 2.55-2.547zM27.574 27.2a2.256 2.256 0 1 1 0 4.51 2.256 2.256 0 1 1 0-4.51zm0 0"/><path style="stroke:none;fill-rule:evenodd;fill:#ecf0f1;fill-opacity:1" d="M30.348 21.648s2.011-4.539 2.058-4.472c.051.07 1.996 4.472 1.996 4.472zm0 0"/><path style="fill:none;stroke-width:6.079651;stroke-linecap:butt;stroke-linejoin:miter;stroke:#ecf0f1;stroke-opacity:1;stroke-miterlimit:2.012602" d="M256.75 269.528c-3-28.021-43.634-41.861-43.736-58.121-.068-11.011.409-15.818.34-29.794m43.396 58.121c0-27.577 30.305-34.054 45.304-54.474 2.318-3.443.818-34.6.818-36.577m-46.191 154.252V96.118" transform="translate(2.927 9.665) scale(.11459)"/></svg>