<svg xmlns="http://www.w3.org/2000/svg" width="64" height="64"><defs><clipPath id="a"><path d="M32 28h13v13H32zm0 0"/></clipPath><clipPath id="b"><path d="M38.324 17.746c-6.05-3.492-13.785-1.422-17.277 4.629-3.492 6.047-1.418 13.781 4.629 17.273 6.05 3.493 13.785 1.418 17.277-4.628 3.492-6.047 1.418-13.782-4.629-17.274zm-4.601 7.965a3.45 3.45 0 0 1 1.265 4.71 3.45 3.45 0 0 1-5.976-3.448 3.45 3.45 0 0 1 4.71-1.262zm0 0"/></clipPath><clipPath id="c"><path d="M19 16h13v14H19zm0 0"/></clipPath><clipPath id="d"><path d="M25.727 39.766c6.05 3.492 13.785 1.422 17.277-4.63 3.492-6.046 1.418-13.78-4.629-17.273-6.05-3.492-13.785-1.418-17.273 4.63-3.493 6.046-1.422 13.78 4.625 17.273zm4.601-7.965a3.444 3.444 0 0 1-1.262-4.711 3.45 3.45 0 1 1 1.262 4.71zm0 0"/></clipPath></defs><path style="fill-rule:nonzero;fill:#ececec;fill-opacity:1;stroke-width:27.983692;stroke-linecap:butt;stroke-linejoin:miter;stroke:#25aedf;stroke-opacity:1;stroke-miterlimit:4" d="M82.781 26.813H429.22c30.937 0 55.969 25.03 55.969 55.968V429.22c0 30.937-25.032 55.969-55.97 55.969H82.782c-30.937 0-55.969-25.032-55.969-55.97V82.782c0-30.937 25.032-55.969 55.97-55.969zm0 0" transform="scale(.125)"/><path style="stroke:none;fill-rule:nonzero;fill:#6d7a7f;fill-opacity:1" d="M16.434 9.457h31.132c1.106 0 2.004.898 2.004 2.008v38.629c0 1.11-.898 2.008-2.004 2.008H16.434a2.007 2.007 0 0 1-2.008-2.008v-38.63c0-1.109.898-2.007 2.008-2.007zm0 0"/><path style="stroke:none;fill-rule:nonzero;fill:#15495d;fill-opacity:1" d="M17.566 48.254H46.29c.594 0 1.074.246 1.074.55v1.09c0 .305-.48.551-1.074.551H17.566c-.59 0-1.07-.246-1.07-.55v-1.09c0-.305.48-.551 1.07-.551zm0 0"/><path style="stroke:none;fill-rule:nonzero;fill:#25aedf;fill-opacity:1" d="M16.434 9.344h31.132c1.11 0 2.008.785 2.008 1.758V44.96c0 .969-.898 1.758-2.008 1.758H16.434c-1.106 0-2.004-.79-2.004-1.758V11.1c0-.972.898-1.757 2.004-1.757zm0 0"/><path style="stroke:none;fill-rule:nonzero;fill:#3ecdf6;fill-opacity:1" d="M20.055 48.969a14.675 14.675 0 0 0 11.57 5.687 14.684 14.684 0 0 0 11.578-5.687zm0 0"/><path style="fill-rule:nonzero;fill:gray;fill-opacity:1;stroke-width:1.569832;stroke-linecap:butt;stroke-linejoin:miter;stroke:#d4d4d4;stroke-opacity:1;stroke-miterlimit:4" d="M256.017 113.063c-69.38.01-125.619 56.22-125.608 125.6-.009 69.347 56.235 125.567 125.581 125.575 69.38-.01 125.6-56.254 125.609-125.6.009-69.347-56.236-125.567-125.582-125.575zm-.026 91.35c18.944-.007 34.236 15.308 34.277 34.232-.012 18.91-15.341 34.255-34.251 34.243-18.944.008-34.256-15.341-34.277-34.232.012-18.91 15.34-34.255 34.25-34.243zm0 0" transform="rotate(30 20.183 37.976) scale(.1007)"/><g clip-path="url(#a)"><g clip-path="url(#b)"><path style="stroke:none;fill-rule:evenodd;fill:#f2f2f2;fill-opacity:1" d="m34.012 28.422 12.687 2.144-5.824 10.09-8.43-10.883zm0 0"/></g></g><g clip-path="url(#c)"><g clip-path="url(#d)"><path style="stroke:none;fill-rule:evenodd;fill:#f2f2f2;fill-opacity:1" d="m30.04 29.09-12.688-2.145 5.824-10.09 8.43 10.887zm0 0"/></g></g><path style="fill-rule:nonzero;fill:#fff;fill-opacity:1;stroke-width:2.780315;stroke-linecap:butt;stroke-linejoin:miter;stroke:#e7e7e7;stroke-opacity:1;stroke-miterlimit:4" d="M255.991 185.017c-29.597.021-53.601 24.004-53.614 53.62-.012 29.616 24.023 53.635 53.62 53.614 29.616.012 53.601-24.004 53.614-53.62.012-29.616-24.004-53.602-53.62-53.614zm.016 25.165c15.73.012 28.45 12.735 28.439 28.465.022 15.71-12.735 28.45-28.445 28.472-15.73-.012-28.47-12.769-28.44-28.464-.021-15.71 12.736-28.451 28.446-28.473zm0 0" transform="rotate(30 20.183 37.976) scale(.1007)"/></svg>