<svg xmlns="http://www.w3.org/2000/svg" width="64" height="64"><defs><clipPath id="a"><path d="M32 29h13v14H32zm0 0"/></clipPath><clipPath id="b"><path d="M38.285 19.379c-6.012-3.469-13.7-1.41-17.168 4.601-3.472 6.008-1.41 13.696 4.598 17.168 6.012 3.47 13.7 1.41 17.168-4.601 3.472-6.012 1.41-13.7-4.598-17.168zm-4.57 7.914a3.433 3.433 0 0 1 1.254 4.684 3.428 3.428 0 1 1-1.254-4.684zm0 0"/></clipPath><clipPath id="c"><path d="M19 18h13v13H19zm0 0"/></clipPath><clipPath id="d"><path d="M25.766 41.266c6.011 3.468 13.699 1.41 17.168-4.602 3.472-6.008 1.414-13.695-4.598-17.168-6.012-3.469-13.7-1.41-17.168 4.602-3.473 6.011-1.41 13.699 4.598 17.168zm4.57-7.914a3.433 3.433 0 0 1-1.254-4.684 3.425 3.425 0 0 1 4.684-1.254 3.43 3.43 0 0 1-3.43 5.938zm0 0"/></clipPath></defs><path style="fill-rule:nonzero;fill:#ececec;fill-opacity:1;stroke-width:27.983692;stroke-linecap:butt;stroke-linejoin:miter;stroke:#25aedf;stroke-opacity:1;stroke-miterlimit:4" d="M82.781 26.813H429.22c30.937 0 55.969 25.03 55.969 55.968V429.22c0 30.937-25.032 55.969-55.97 55.969H82.782c-30.937 0-55.969-25.032-55.969-55.97V82.782c0-30.937 25.032-55.969 55.97-55.969zm0 0" transform="scale(.125)"/><path style="stroke:none;fill-rule:nonzero;fill:#6d7a7f;fill-opacity:1" d="M15.605 9.605h32.79c1.167 0 2.113.946 2.113 2.11v40.687a2.112 2.112 0 0 1-2.113 2.114h-32.79a2.112 2.112 0 0 1-2.113-2.114V11.715c0-1.164.945-2.11 2.113-2.11zm0 0"/><path style="stroke:none;fill-rule:nonzero;fill:#15495d;fill-opacity:1" d="M16.25 50.465h15.563c.324 0 .582.262.582.582v1.144a.579.579 0 0 1-.583.582H16.25a.578.578 0 0 1-.578-.582v-1.144a.58.58 0 0 1 .578-.582zm0 0"/><path style="stroke:none;fill-rule:nonzero;fill:#25aedf;fill-opacity:1" d="M15.605 9.484h32.79c1.167 0 2.113.829 2.113 1.852v35.66c0 1.024-.946 1.852-2.113 1.852h-32.79c-1.168 0-2.113-.828-2.113-1.852v-35.66c0-1.024.945-1.852 2.113-1.852zm0 0"/><path style="stroke:none;fill-rule:nonzero;fill:#d1d2d3;fill-opacity:1" d="M43.242 51.617c0 .57-.465 1.035-1.035 1.035-.57 0-1.035-.465-1.035-1.035 0-.57.465-1.035 1.035-1.035.57 0 1.035.465 1.035 1.035zm3.199 0a1.034 1.034 0 1 1-2.072.001 1.034 1.034 0 0 1 2.072 0zm0 0"/><path style="fill-rule:nonzero;fill:gray;fill-opacity:1;stroke-width:1.569832;stroke-linecap:butt;stroke-linejoin:miter;stroke:#d4d4d4;stroke-opacity:1;stroke-miterlimit:4" d="M256.01 113.05c-69.357.018-125.598 56.242-125.58 125.599-.035 69.342 56.223 125.564 125.565 125.599 69.357-.018 125.599-56.243 125.58-125.6.016-69.375-56.243-125.598-125.565-125.599zm-.01 91.322c18.907.037 34.236 15.346 34.252 34.267.017 18.921-15.326 34.27-34.266 34.252-18.888-.003-34.236-15.345-34.233-34.233-.017-18.92 15.326-34.27 34.247-34.286zm0 0" transform="rotate(30 16.901 38.98) scale(.10007)"/><g clip-path="url(#a)"><g clip-path="url(#b)"><path style="stroke:none;fill-rule:evenodd;fill:#f2f2f2;fill-opacity:1" d="m34 29.992 12.61 2.13-5.79 10.03-8.375-10.82zm0 0"/></g></g><g clip-path="url(#c)"><g clip-path="url(#d)"><path style="stroke:none;fill-rule:evenodd;fill:#f2f2f2;fill-opacity:1" d="m30.05 30.652-12.609-2.129 5.79-10.03 8.374 10.82zm0 0"/></g></g><path style="fill-rule:nonzero;fill:#fff;fill-opacity:1;stroke-width:2.780315;stroke-linecap:butt;stroke-linejoin:miter;stroke:#e7e7e7;stroke-opacity:1;stroke-miterlimit:4" d="M256.01 185.03c-29.625-.023-53.61 24.011-53.633 53.637.01 29.607 24.01 53.611 53.617 53.6 29.607-.01 53.611-24.01 53.634-53.637-.01-29.606-24.01-53.61-53.617-53.6zm-.028 25.167c15.721-.017 28.482 12.718 28.465 28.458-.003 15.687-12.737 28.448-28.424 28.445-15.74-.017-28.502-12.751-28.465-28.458-.017-15.72 12.738-28.448 28.424-28.445zm0 0" transform="rotate(30 16.901 38.98) scale(.10007)"/></svg>