<svg xmlns="http://www.w3.org/2000/svg" width="64" height="64"><path style="fill-rule:nonzero;fill:#fff;fill-opacity:1;stroke-width:28.191782;stroke-linecap:butt;stroke-linejoin:miter;stroke:#666;stroke-opacity:1;stroke-miterlimit:4" d="M81.469 25.094H430.53c31.125 0 56.375 25.25 56.375 56.375V430.53c0 31.125-25.25 56.375-56.375 56.375H81.47c-31.125 0-56.375-25.25-56.375-56.375V81.47c0-31.125 25.25-56.375 56.375-56.375zm0 0" transform="scale(.125)"/><path style="stroke:none;fill-rule:nonzero;fill:#000;fill-opacity:.0980392" d="m53.598 16.23-7.723-7.722H12.992c-.39 0-.726.14-1.004.414a1.374 1.374 0 0 0-.418 1.008v45.316c0 .39.14.723.418 1 .278.277.614.418 1.004.418h39.184c.39 0 .726-.14 1.004-.418.277-.277.418-.61.418-1zm0 0"/><path style="stroke:none;fill-rule:nonzero;fill:#333;fill-opacity:1" d="m52.426 13.02-5.684-5.684h-2.808v13.691c-.016.532-.297.797-.848.797H15.668c-.55 0-.832-.265-.852-.797V7.336H11.82c-.39 0-.726.14-1.004.418a1.368 1.368 0 0 0-.414 1.004v45.316c0 .055 0 .106.012.153.031.328.168.609.402.851.282.277.618.418 1.008.418h2.785V33.41c0-.57.282-.855.852-.855h31.91c.57 0 .856.285.856.855v22.086h2.785c.39 0 .722-.14 1-.418a1.37 1.37 0 0 0 .41-.851c0-.047.008-.098.008-.153V13.02zm0 0"/><path style="stroke:none;fill-rule:nonzero;fill:#ccc;fill-opacity:1" d="M43.086 21.824c.55 0 .832-.265.848-.797V7.336H24.059v14.488zm0 0"/><path style="stroke:none;fill-rule:nonzero;fill:#fff;fill-opacity:1" d="M48.223 33.41c0-.57-.285-.855-.856-.855h-31.91c-.57 0-.852.285-.852.855v20.207h33.618zm0 0"/><path style="stroke:none;fill-rule:nonzero;fill:#666;fill-opacity:1" d="M24.059 21.824V7.336h-9.243v13.691c.02.532.301.797.852.797zm0 0"/><path style="stroke:none;fill-rule:nonzero;fill:#a8babe;fill-opacity:1" d="M14.605 53.617v1.88h33.618v-1.88zm0 0"/><path style="stroke:none;fill-rule:nonzero;fill:#666;fill-opacity:1" d="M40.66 11.262c0-.57-.285-.852-.851-.852h-1.93c-.57 0-.856.281-.856.852v6.925c0 .57.286.856.856.856h1.93c.566 0 .851-.285.851-.855zm0 0"/><path style="stroke:none;fill-rule:nonzero;fill:#fff;fill-opacity:1" d="M13.559 15.09v-4.176c0-.34-.172-.512-.508-.512h-.969c-.34 0-.512.172-.512.512v4.176c0 .34.172.512.512.512h.969c.336 0 .508-.172.508-.512zm0 0"/><path style="stroke:none;fill-rule:nonzero;fill:#f9d346;fill-opacity:1" d="M12.586 51.68c-.336 0-.625.117-.86.355a1.173 1.173 0 0 0-.359.86c0 .335.121.625.36.863.234.234.523.355.859.355.336 0 .625-.12.86-.355a1.18 1.18 0 0 0 .359-.863 1.17 1.17 0 0 0-.36-.86 1.162 1.162 0 0 0-.86-.355zm36.91.355a1.168 1.168 0 0 0-.355.86c0 .335.117.625.355.863.238.234.524.355.86.355.34 0 .624-.12.863-.355.234-.238.355-.528.355-.863 0-.336-.12-.622-.355-.86a1.17 1.17 0 0 0-.864-.355c-.335 0-.62.117-.859.355zm0 0"/></svg>