<svg xmlns="http://www.w3.org/2000/svg" width="64" height="64"><path style="fill-rule:nonzero;fill:#fff;fill-opacity:1;stroke-width:28.282129;stroke-linecap:butt;stroke-linejoin:miter;stroke:#223656;stroke-opacity:1;stroke-miterlimit:4" d="M80.906 24.344h350.188c31.219 0 56.562 25.343 56.562 56.562v350.188c0 31.219-25.344 56.562-56.562 56.562H80.906c-31.219 0-56.562-25.344-56.562-56.562V80.906c0-31.219 25.343-56.562 56.562-56.562zm0 0" transform="scale(.125)"/><path style="stroke:none;fill-rule:evenodd;fill:#223656;fill-opacity:1" d="M24.133 26.234h15.789v28.11h-15.79zm0 0"/><path style="fill:none;stroke-width:26.238472;stroke-linecap:square;stroke-linejoin:miter;stroke:#fff;stroke-opacity:1;stroke-miterlimit:2.012602" d="M302.813 291.094c0-23.156-18-41.938-40.157-41.938-22.187 0-40.187 18.781-40.187 41.938 0 23.187 18 41.969 40.187 41.969 22.156 0 40.156-18.782 40.156-41.97" transform="scale(.125)"/><path style="fill:none;stroke-width:26.394171;stroke-linecap:square;stroke-linejoin:miter;stroke:#d41a1a;stroke-opacity:1;stroke-miterlimit:2.012602" d="M326 163.969a90.963 90.963 0 0 0-69.688-31.719c-26.75.188-52.093 12.125-69.25 32.656" transform="scale(.125)"/><path style="fill:none;stroke-width:26.394171;stroke-linecap:square;stroke-linejoin:miter;stroke:#d41a1a;stroke-opacity:1;stroke-miterlimit:2" d="M370.25 125.281c-28.688-33.375-70.625-52.437-114.625-52.156a149.853 149.853 0 0 0-113.875 53.719" transform="scale(.125)"/></svg>