<svg xmlns="http://www.w3.org/2000/svg" width="64" height="64"><path style="fill-rule:nonzero;fill:#fff;fill-opacity:1;stroke-width:19.492001;stroke-linecap:butt;stroke-linejoin:miter;stroke:#95a5a6;stroke-opacity:1;stroke-miterlimit:4" d="M81.469 25.094H430.53c31.125 0 56.375 25.25 56.375 56.375V430.53c0 31.125-25.25 56.375-56.375 56.375H81.47c-31.125 0-56.375-25.25-56.375-56.375V81.47c0-31.125 25.25-56.375 56.375-56.375zm0 0" transform="scale(.125)"/><path style="fill:none;stroke-width:26.157541;stroke-linecap:butt;stroke-linejoin:miter;stroke:#223656;stroke-opacity:1;stroke-miterlimit:4" d="M232.844 209.75c-39.813-15-42.5-67.844 0-82.031 44.656-14.875 72.531 55.562 126.344 19.687 16.875-11.25 22.968-24.687 22.968-44.281" transform="scale(.125)"/><path style="fill-rule:nonzero;fill:#ecf0f1;fill-opacity:1;stroke-width:15.738544;stroke-linecap:butt;stroke-linejoin:miter;stroke:#95a5a6;stroke-opacity:1;stroke-miterlimit:4" d="M116.375 203.188h278.906c30.813 0 55.781 25 55.781 55.78v80.407c0 30.813-24.968 55.781-55.78 55.781H116.374c-30.813 0-55.781-24.969-55.781-55.781v-80.406c0-30.781 24.968-55.781 55.781-55.781zm0 0" transform="scale(.125)"/><path style="stroke:none;fill-rule:evenodd;fill:#7f8c8d;fill-opacity:1" d="M38.367 37.39c0 4.325 3.207 7.891 7.305 8.13 4.098.234 7.66-2.942 8.11-7.235.448-4.297-2.368-8.215-6.415-8.926-4.047-.707-7.918 2.036-8.812 6.254"/><path style="stroke:none;fill-rule:evenodd;fill:#223656;fill-opacity:1" d="M15.477 31.652v3.59h-4.07v4.207h4.07v4.297h4.285V39.45h4.097v-4.207h-4.097v-3.59zm14.398 3.871a.885.885 0 0 0-.625.262l-1.883 1.883a.884.884 0 0 0 0 1.254.884.884 0 0 0 1.254 0l1.883-1.883a.884.884 0 0 0 0-1.254.901.901 0 0 0-.629-.262zm5.09.075a.884.884 0 0 0-.63.261l-1.878 1.88a.889.889 0 0 0 1.254 1.257l1.883-1.883a.884.884 0 0 0 0-1.254.884.884 0 0 0-.63-.261zm0 0"/><path style="stroke:none;fill-rule:evenodd;fill:#ecf0f1;fill-opacity:1" d="m39.742 35.45 4.903-4.903a2.645 2.645 0 0 1 3.738 0 2.645 2.645 0 0 1 0 3.738l-4.903 4.899a2.638 2.638 0 0 1-3.738 0 2.64 2.64 0 0 1 0-3.735zm0 0"/><path style="stroke:none;fill-rule:evenodd;fill:#1ba389;fill-opacity:1" d="M43.184 35.777a2.155 2.155 0 0 0-3.051 0 2.155 2.155 0 0 0 0 3.051c.844.844 2.21.844 3.05 0a2.155 2.155 0 0 0 0-3.05"/><path style="stroke:none;fill-rule:evenodd;fill:#2980b9;fill-opacity:1" d="M48.047 30.887a2.155 2.155 0 0 0-3.05 0 2.155 2.155 0 0 0 0 3.05 2.155 2.155 0 0 0 3.05 0 2.155 2.155 0 0 0 0-3.05"/><path style="stroke:none;fill-rule:evenodd;fill:#ecf0f1;fill-opacity:1" d="m44.031 40.344 4.903-4.903a2.64 2.64 0 0 1 3.734 0 2.638 2.638 0 0 1 0 3.739l-4.898 4.902a2.645 2.645 0 0 1-3.739 0 2.645 2.645 0 0 1 0-3.738zm0 0"/><path style="stroke:none;fill-rule:evenodd;fill:#f9de69;fill-opacity:1" d="M47.473 40.64a2.155 2.155 0 0 0-3.051 0 2.155 2.155 0 0 0 0 3.051c.84.844 2.207.844 3.05 0a2.155 2.155 0 0 0 0-3.05"/><path style="stroke:none;fill-rule:evenodd;fill:#ba174e;fill-opacity:1" d="M52.332 35.785a2.155 2.155 0 0 0-3.05 0 2.155 2.155 0 0 0 0 3.05c.843.845 2.21.845 3.05 0a2.155 2.155 0 0 0 0-3.05"/></svg>