<svg xmlns="http://www.w3.org/2000/svg" xmlns:xlink="http://www.w3.org/1999/xlink" width="64" height="64"><defs><symbol overflow="visible" id="a"><path style="stroke:none" d="M.625-.422h.797v-2.781l-.875.187v-.453l.875-.172h.5v3.22h.797V0H.625zm0 0"/></symbol><symbol overflow="visible" id="b"><path style="stroke:none" d="M.953-.422h1.735V0H.358v-.422l.766-.766c.32-.332.523-.546.61-.64a2.17 2.17 0 0 0 .343-.453.795.795 0 0 0 .094-.36.597.597 0 0 0-.203-.468.754.754 0 0 0-.532-.188 1.81 1.81 0 0 0-.5.078 2.872 2.872 0 0 0-.546.25v-.5c.195-.082.379-.144.546-.187.176-.04.336-.063.485-.063.375 0 .672.102.89.297a.927.927 0 0 1 .344.75c0 .149-.027.29-.078.422a1.896 1.896 0 0 1-.312.484c-.043.043-.172.18-.391.407-.21.23-.516.543-.922.937zm0 0"/></symbol><symbol overflow="visible" id="c"><path style="stroke:none" d="M2.031-1.969a.918.918 0 0 1 .547.328.87.87 0 0 1 .203.579c0 .367-.125.648-.375.843-.25.2-.601.297-1.047.297-.156 0-.32-.015-.484-.047a3.626 3.626 0 0 1-.5-.14v-.485c.145.086.297.149.453.188.164.043.336.062.516.062.3 0 .535-.054.703-.172.164-.125.25-.304.25-.546a.61.61 0 0 0-.235-.5c-.148-.125-.355-.188-.624-.188h-.422v-.406h.437c.238 0 .422-.047.547-.14a.485.485 0 0 0 .203-.423A.485.485 0 0 0 2-3.14c-.125-.101-.313-.156-.563-.156-.136 0-.28.016-.437.047a4.334 4.334 0 0 0-.516.14v-.453a4.58 4.58 0 0 1 .532-.109c.164-.031.32-.047.468-.047.375 0 .672.09.891.266a.822.822 0 0 1 .328.687c0 .2-.062.371-.187.516a.896.896 0 0 1-.485.281zm0 0"/></symbol><symbol overflow="visible" id="d"><path style="stroke:none" d="M1.89-3.219.64-1.266h1.25zm-.124-.422h.609v2.375h.531v.407h-.531V0h-.484v-.86H.25v-.468zm0 0"/></symbol><symbol overflow="visible" id="e"><path style="stroke:none" d="M.547-3.64h1.922v.406H.984v.89c.07-.02.145-.035.22-.047.07-.007.144-.015.218-.015.406 0 .726.117.969.344.238.218.359.515.359.89 0 .399-.125.703-.375.922-.242.219-.586.328-1.031.328-.157 0-.313-.015-.469-.047a2.862 2.862 0 0 1-.484-.11v-.5a2.121 2.121 0 0 0 .937.235c.29 0 .516-.07.672-.219.164-.144.25-.347.25-.609A.76.76 0 0 0 2-1.766C1.844-1.922 1.617-2 1.328-2a1.72 1.72 0 0 0-.39.047 2.15 2.15 0 0 0-.391.14zm0 0"/></symbol><symbol overflow="visible" id="f"><path style="stroke:none" d="M1.656-2.016c-.23 0-.406.079-.531.235-.125.148-.188.351-.188.61 0 .26.063.468.188.624.125.156.3.235.531.235.219 0 .39-.079.516-.235.133-.156.203-.363.203-.625 0-.258-.07-.46-.203-.61a.624.624 0 0 0-.516-.234zm.969-1.546v.453a1.832 1.832 0 0 0-.375-.141 1.541 1.541 0 0 0-.375-.047c-.324 0-.574.11-.75.328-.168.219-.262.555-.281 1a.906.906 0 0 1 .36-.328c.144-.07.304-.11.484-.11.363 0 .648.11.859.329.207.219.312.523.312.906 0 .375-.109.68-.328.906-.219.23-.511.344-.875.344-.43 0-.758-.16-.984-.484C.453-.738.344-1.207.344-1.812c0-.583.133-1.047.406-1.391.281-.344.648-.516 1.11-.516.124 0 .25.016.374.047.125.024.254.059.391.11zm0 0"/></symbol><symbol overflow="visible" id="g"><path style="stroke:none" d="M.406-3.64H2.75v.203L1.437 0H.922l1.234-3.234H.406zm0 0"/></symbol><symbol overflow="visible" id="h"><path style="stroke:none" d="M1.594-1.734c-.242 0-.43.062-.563.187-.136.125-.203.297-.203.516 0 .218.067.398.203.531.133.125.32.188.563.188.226 0 .41-.063.547-.188a.725.725 0 0 0 .203-.531c0-.219-.07-.39-.203-.516-.137-.125-.32-.187-.547-.187zm-.5-.204a.905.905 0 0 1-.5-.296.811.811 0 0 1-.172-.532c0-.289.101-.52.312-.687.207-.176.493-.266.86-.266.363 0 .644.09.843.266a.841.841 0 0 1 .313.687.838.838 0 0 1-.172.532.853.853 0 0 1-.5.296.997.997 0 0 1 .563.329.87.87 0 0 1 .203.578c0 .355-.11.633-.328.828-.22.187-.528.281-.922.281-.407 0-.719-.094-.938-.281-.21-.195-.312-.473-.312-.828a.9.9 0 0 1 .187-.578.971.971 0 0 1 .563-.329zm-.172-.78c0 .187.055.335.172.437.113.105.281.156.5.156.207 0 .367-.05.484-.156a.536.536 0 0 0 .188-.438.54.54 0 0 0-.188-.437c-.117-.114-.277-.172-.484-.172-.219 0-.387.058-.5.172-.117.105-.172.25-.172.437zm0 0"/></symbol><symbol overflow="visible" id="i"><path style="stroke:none" d="M.547-.078v-.453c.125.062.25.11.375.14.125.032.25.047.375.047.32 0 .566-.11.734-.328.176-.219.281-.55.313-1a.875.875 0 0 1-.36.328c-.148.074-.308.11-.484.11-.367 0-.656-.11-.875-.329-.21-.218-.313-.519-.313-.906 0-.375.11-.676.329-.906.226-.227.523-.344.89-.344.414 0 .735.168.953.5.227.324.344.793.344 1.406 0 .575-.137 1.032-.406 1.375-.274.344-.637.516-1.094.516a1.72 1.72 0 0 1-.39-.047 1.963 1.963 0 0 1-.391-.11zm.984-1.547c.219 0 .39-.07.516-.219.133-.156.203-.363.203-.625 0-.258-.07-.469-.203-.625a.624.624 0 0 0-.516-.234.666.666 0 0 0-.531.234c-.125.156-.188.367-.188.625 0 .262.063.469.188.625a.679.679 0 0 0 .531.219zm0 0"/></symbol><symbol overflow="visible" id="j"><path style="stroke:none" d="M1.594-3.328c-.262 0-.453.125-.578.375-.125.25-.188.633-.188 1.14 0 .5.063.875.188 1.125s.316.375.578.375c.25 0 .437-.124.562-.374.133-.25.203-.625.203-1.125 0-.508-.07-.891-.203-1.141-.125-.25-.312-.375-.562-.375zm0-.39c.406 0 .71.167.922.5.218.323.328.792.328 1.405 0 .606-.11 1.075-.328 1.407-.211.324-.516.484-.922.484-.407 0-.719-.16-.938-.484C.437-.738.328-1.207.328-1.812c0-.614.11-1.083.328-1.407.219-.332.531-.5.938-.5zm0 0"/></symbol></defs><path style="fill-rule:nonzero;fill:#fff;fill-opacity:1;stroke-width:7.317885;stroke-linecap:butt;stroke-linejoin:miter;stroke:#909090;stroke-opacity:1;stroke-miterlimit:4" d="M22.432 169.33h90.603c8.086 0 14.635 6.549 14.635 14.635v90.603c0 8.087-6.549 14.635-14.635 14.635H22.432c-8.087 0-14.635-6.548-14.635-14.635v-90.603c0-8.086 6.548-14.635 14.635-14.635zm0 0" transform="translate(0 -76.315) scale(.47244)"/><path style="stroke:none;fill-rule:evenodd;fill:#ccdade;fill-opacity:1" d="M23.422 38.434a4.291 4.291 0 0 1-4.29 4.289 4.291 4.291 0 0 1-4.288-4.29 4.291 4.291 0 0 1 4.289-4.288 4.291 4.291 0 0 1 4.289 4.289zm0-12.868a4.291 4.291 0 0 1-4.29 4.29 4.291 4.291 0 0 1-4.288-4.29 4.291 4.291 0 0 1 4.289-4.289 4.291 4.291 0 0 1 4.289 4.29zm0-12.866a4.291 4.291 0 0 1-4.29 4.288 4.289 4.289 0 1 1 4.29-4.29zM36.29 38.434A4.291 4.291 0 0 1 32 42.723a4.291 4.291 0 0 1-4.29-4.29A4.291 4.291 0 0 1 32 34.146a4.291 4.291 0 0 1 4.29 4.289zm0-12.868a4.291 4.291 0 0 1-4.29 4.29 4.291 4.291 0 0 1-4.29-4.29A4.291 4.291 0 0 1 32 21.277a4.291 4.291 0 0 1 4.29 4.29zm0-12.866A4.291 4.291 0 0 1 32 16.987a4.289 4.289 0 1 1 4.29-4.29zm12.866 25.734a4.291 4.291 0 0 1-4.289 4.289 4.291 4.291 0 0 1-4.289-4.29 4.291 4.291 0 0 1 4.29-4.288 4.291 4.291 0 0 1 4.288 4.289zm0-13.426a4.289 4.289 0 1 1-8.577 0 4.289 4.289 0 0 1 8.577 0zm0-12.308a4.291 4.291 0 0 1-4.289 4.288 4.289 4.289 0 1 1 4.29-4.29zM36.29 51.3a4.289 4.289 0 1 1-8.578.002 4.289 4.289 0 0 1 8.577-.001zm0 0"/><use xlink:href="#a" x="17.5" y="14.52" style="fill:#000;fill-opacity:1"/><use xlink:href="#b" x="30.477" y="14.555" style="fill:#000;fill-opacity:1"/><use xlink:href="#c" x="43.285" y="14.52" style="fill:#000;fill-opacity:1"/><use xlink:href="#d" x="17.559" y="27.387" style="fill:#000;fill-opacity:1"/><use xlink:href="#e" x="30.434" y="27.352" style="fill:#000;fill-opacity:1"/><use xlink:href="#f" x="43.258" y="26.828" style="fill:#000;fill-opacity:1"/><use xlink:href="#g" x="17.551" y="40.258" style="fill:#000;fill-opacity:1"/><use xlink:href="#h" x="30.41" y="40.254" style="fill:#000;fill-opacity:1"/><use xlink:href="#i" x="43.297" y="40.254" style="fill:#000;fill-opacity:1"/><use xlink:href="#j" x="30.41" y="53.121" style="fill:#000;fill-opacity:1"/></svg>