<svg xmlns="http://www.w3.org/2000/svg" width="64" height="64"><path style="fill-rule:nonzero;fill:#ecf0f1;fill-opacity:1;stroke-width:7.956348;stroke-linecap:butt;stroke-linejoin:miter;stroke:#95a5a6;stroke-opacity:1;stroke-miterlimit:4" d="M-15.127 273.976h98.513c8.785 0 15.91 7.126 15.91 15.91V388.4c0 8.784-7.125 15.91-15.91 15.91h-98.513c-8.784 0-15.91-7.126-15.91-15.91v-98.513c0-8.784 7.126-15.91 15.91-15.91zm0 0" transform="translate(16.883 -118.21) scale(.44291)"/><path style="stroke:none;fill-rule:nonzero;fill:#7f8c8d;fill-opacity:1" d="M21.766 24.77c-1.024 0-1.965.187-2.82.562a6.492 6.492 0 0 0-2.22 1.54 6.85 6.85 0 0 0-1.394 2.308 8.122 8.122 0 0 0-.488 2.82c0 .996.164 1.938.488 2.82a6.855 6.855 0 0 0 1.395 2.309 6.71 6.71 0 0 0 2.218 1.559c.856.363 1.797.542 2.82.542.88 0 1.696-.128 2.446-.386a5.975 5.975 0 0 0 1.965-1.11 5.197 5.197 0 0 0 1.34-1.789c.34-.71.535-1.508.586-2.39h-3.614c-.066.804-.34 1.433-.82 1.886-.48.454-1.14.68-1.98.68-.56 0-1.047-.11-1.461-.332a2.831 2.831 0 0 1-1.008-.93 4.358 4.358 0 0 1-.586-1.32A6.64 6.64 0 0 1 18.457 32c0-.531.059-1.043.176-1.535.129-.492.328-.934.586-1.32a2.73 2.73 0 0 1 1.008-.918c.414-.23.902-.348 1.46-.348.778 0 1.41.191 1.903.566.504.364.805.887.898 1.575h3.614v-.004c-.028-.805-.227-1.528-.602-2.176a5.211 5.211 0 0 0-1.46-1.672 6.5 6.5 0 0 0-2.02-1.047 7.42 7.42 0 0 0-2.254-.351zm24.086.289V38.94h3.304V25.06zM30.64 25.8v3.05h-1.672v2.141h1.672v4.488c0 .715.054 1.293.156 1.747.117.441.308.8.566 1.074.258.258.614.445 1.07.562.454.114 1.036.172 1.75.172.231 0 .57-.015 1.028-.058.348-.028.61-.04.777-.04v-2.433c-.105 0-.254.012-.449.023-.18.012-.316.02-.406.02-.403 0-.7-.067-.895-.195-.195-.141-.293-.403-.293-.778v-4.586h2.043v-2.136h-2.043V25.8zm13.214 2.855c-.714 0-1.335.168-1.867.508-.531.336-.922.82-1.168 1.453h-.039v-1.765h-3.207v10.09h3.305v-4.997c0-.675.223-1.238.664-1.691.441-.469 1.047-.7 1.824-.7.363 0 .785.063 1.266.192v-3.012a3.482 3.482 0 0 0-.778-.078zm0 0"/></svg>