<svg xmlns="http://www.w3.org/2000/svg" width="64" height="64"><path style="fill-rule:nonzero;fill:#1ba389;fill-opacity:.984314;stroke-width:27.910587;stroke-linecap:butt;stroke-linejoin:miter;stroke:#2a7063;stroke-opacity:.984314;stroke-miterlimit:4" d="M83.219 27.406H428.78c30.813 0 55.813 25 55.813 55.813V428.78c0 30.813-25 55.813-55.813 55.813H83.22c-30.813 0-55.813-25-55.813-55.813V83.22c0-30.813 25-55.813 55.813-55.813zm0 0" transform="scale(.125)"/><path style="stroke:none;fill-rule:nonzero;fill:#b3b3b3;fill-opacity:1" d="M31.863 16.805V29.94h-9.847V26c0-3.941 4.922-9.195 9.847-9.195"/><path style="stroke:none;fill-rule:nonzero;fill:#f9f9f9;fill-opacity:1" d="M31.816 16.805v10.03h-9.8v12.161c0 5.34 3.691 9.344 9.847 9.344 6.153 0 9.848-4.004 9.848-9.344V26.36c0-4.093-4.945-9.554-9.895-9.554zm0 0"/><path style="stroke:none;fill-rule:nonzero;fill:#4d4d4d;fill-opacity:1" d="M31.863 23.371c.676 0 1.23.656 1.23 1.465v3.906c0 .809-.554 1.465-1.23 1.465-.68 0-1.23-.656-1.23-1.465v-3.906c0-.809.55-1.465 1.23-1.465m0 0"/></svg>