<svg xmlns="http://www.w3.org/2000/svg" width="64" height="64"><path style="fill-rule:nonzero;fill:#fff;fill-opacity:1;stroke-width:28.191782;stroke-linecap:butt;stroke-linejoin:miter;stroke:gray;stroke-opacity:1;stroke-miterlimit:4" d="M81.469 25.094H430.53c31.125 0 56.375 25.25 56.375 56.375V430.53c0 31.125-25.25 56.375-56.375 56.375H81.47c-31.125 0-56.375-25.25-56.375-56.375V81.47c0-31.125 25.25-56.375 56.375-56.375zm0 0" transform="scale(.125)"/><path style="stroke:none;fill-rule:nonzero;fill:#f9de69;fill-opacity:1" d="M32.54 11.566c-.196-.004-.415 0-.65 0-1.519.02-1.519.02-1.69.164a.972.972 0 0 0-.231.286c-.067.152-.082 9.93-.016 10.222.047.227.293.461.563.535.117.036.804.047 1.625.036 1.316-.02 1.445-.032 1.648-.145.121-.066.242-.184.266-.254.054-.148.144-4.703.152-8l.008-2.23-.176-.254c-.125-.18-.242-.274-.402-.317-.102-.027-.508-.043-1.098-.043zm-7.868.211-.277.227-.278.23-.02 5.016c-.015 3.352 0 5.086.048 5.223.093.28.343.472.683.523.152.024.887.04 1.629.035 1.273-.008 1.367-.02 1.586-.14.453-.246.426.086.426-5.473 0-2.766-.024-5.098-.051-5.176-.027-.082-.156-.219-.29-.305l-.241-.16zm11.273.055-.554.445-.02 4.891c-.012 2.691-.004 4.969.016 5.066.02.094.12.262.222.368.149.152.254.199.512.234.18.023.918.035 1.645.031 1.46-.012 1.601-.043 1.851-.402.121-.168.125-.38.125-5.137 0-4.68-.008-4.965-.12-5.144-.204-.325-.38-.352-2.122-.352zm-15.297.105c-.824-.003-1.652.016-1.816.063-.145.043-.27.148-.39.336l-.184.277.008 3.114c.004 1.714.027 3.957.05 4.988l.047 1.875.219.18c.129.109.324.199.48.226.34.05 2.028.059 2.774.004.52-.035.586-.055.793-.223l.226-.187.02-5.043c.02-5.625.04-5.36-.445-5.527-.14-.051-.961-.079-1.782-.082zm22.762 2.626c-1.441 0-1.523.007-1.683.124-.325.243-.317.153-.317 3.895 0 1.914.024 3.582.055 3.711.066.285.156.379.46.488.286.102 2.45.121 2.798.024.129-.035.316-.14.422-.235l.19-.172.04-1.726c.02-.953.04-2.574.043-3.606.008-1.875.008-1.875-.133-2.101-.265-.414-.2-.402-1.875-.402zm0 0"/><path style="stroke:none;fill-rule:nonzero;fill:gray;fill-opacity:1" d="M16.477 23.094h31.175v30.715H16.477zm0 0"/><path style="stroke:none;fill-rule:nonzero;fill:#000;fill-opacity:1" d="M15.355 55.61a1.362 1.362 0 0 1-.812-.637l-.152-.274V9.316l.109-.203c.16-.297.387-.52.656-.64l.239-.114 28.617-.023 5.597 5.598v20.28c0 13.653-.015 20.345-.05 20.47a1.45 1.45 0 0 1-.653.816l-.277.152-16.516.012c-13.39.008-16.562-.004-16.758-.055zm29.043-3.633c.606-.301 1.012-.79 1.176-1.418.078-.305.082-1.2.047-12.5-.02-6.692-.047-12.188-.059-12.211-.03-.055-27.218-.055-27.25 0-.011.02-.039 5.46-.058 12.086-.027 9.066-.024 12.14.023 12.418.13.82.676 1.468 1.446 1.714.28.09.703.094 12.316.082l12.023-.007zm-22.421-29.41a1.42 1.42 0 0 0 .242-.243c.101-.137.105-.18.117-4.918.012-4.476.008-4.789-.074-4.949a.95.95 0 0 0-.23-.277c-.134-.098-.22-.106-1.481-.117-1.543-.016-1.602-.004-1.805.39l-.113.223v4.644c0 2.871.02 4.711.05 4.817a.842.842 0 0 0 .16.297c.231.246.321.261 1.708.246 1.21-.012 1.297-.016 1.426-.114zm5.695.011a.75.75 0 0 0 .32-.312c.102-.2.106-.239.106-4.953 0-4.743 0-4.754-.106-4.895a1.318 1.318 0 0 0-.273-.254c-.16-.11-.2-.113-1.48-.113-1.282 0-1.321.004-1.481.113-.09.063-.215.176-.27.254-.105.14-.105.164-.12 4.812-.009 3.067.003 4.735.038 4.86.028.105.098.25.16.328.2.254.313.273 1.653.273 1.191.004 1.242 0 1.453-.113zm5.808-.027c.364-.254.34.094.352-5.153l.016-4.718-.114-.223c-.207-.398-.261-.41-1.804-.395-1.266.012-1.348.02-1.485.118a.94.94 0 0 0-.226.277c-.082.16-.09.496-.09 4.887 0 4.652.004 4.718.105 4.93a.63.63 0 0 0 .313.316c.2.101.273.105 1.492.094 1.246-.016 1.281-.016 1.441-.133zm5.57.09a.848.848 0 0 0 .45-.43c.055-.133.066-1.04.07-4.887.004-4.465-.004-4.738-.086-4.883a1.073 1.073 0 0 0-.234-.261c-.133-.098-.207-.106-1.48-.117-1.329-.016-1.344-.016-1.512.097a1.48 1.48 0 0 0-.274.258c-.105.14-.105.164-.12 4.812-.009 3.067.003 4.735.038 4.86.067.242.227.45.422.531.2.086 2.508.102 2.727.02zm5.84-.059a.813.813 0 0 0 .325-.289c.097-.172.101-.27.117-3.39l.012-3.212-.114-.222c-.203-.399-.261-.41-1.804-.395-1.274.012-1.348.02-1.48.121a1.006 1.006 0 0 0-.235.262c-.086.145-.09.348-.086 3.406.004 3.66-.012 3.492.383 3.719.187.105.246.11 1.43.113 1.175 0 1.238-.008 1.453-.113zm0 0"/></svg>