<svg xmlns="http://www.w3.org/2000/svg" width="64" height="64"><path style="fill-rule:nonzero;fill:#f2f2f2;fill-opacity:1;stroke-width:3.042594;stroke-linecap:butt;stroke-linejoin:miter;stroke:#d4d4d4;stroke-opacity:1;stroke-miterlimit:4" d="M377.719-338.813C261.28-406 112.406-366.125 45.188-249.719-22-133.28 17.875 15.594 134.28 82.812 250.72 150 399.594 110.126 466.812-6.28 534-122.72 494.125-271.594 377.72-338.812zM289.188-185.5c31.75 18.344 42.625 58.938 24.312 90.688-18.344 31.75-58.938 42.624-90.688 24.312-31.75-18.344-42.625-58.938-24.312-90.688 18.344-31.75 58.938-42.625 90.688-24.312zm0 0" transform="matrix(.125 0 0 .125 0 48)"/><path style="fill-rule:nonzero;fill:gray;fill-opacity:1;stroke-width:3.042594;stroke-linecap:butt;stroke-linejoin:miter;stroke:#d4d4d4;stroke-opacity:1;stroke-miterlimit:4" d="M256.656-371.438c-51.875-.093-102.906 16.438-145 47.375l108.5 140.188c20.219-12.938 46.813-14.438 69.031-1.625 21.094 12.188 32.97 34.219 33.188 56.906l175.344 29.625c11.219-93.812-33.031-189.594-120.031-239.812-38.188-22.063-79.875-32.594-121.032-32.656zM14.281-157.03c-11.219 93.81 33.032 189.624 120 239.843 86.375 49.843 190.563 40.75 266.063-14.75l-108.5-140.188c-20.219 12.969-46.813 14.469-69.031 1.625-21.094-12.188-32.97-34.188-33.188-56.906zm0 0" transform="matrix(.125 0 0 .125 0 48)"/><path style="fill-rule:nonzero;fill:#fff;fill-opacity:1;stroke-width:5.388712;stroke-linecap:butt;stroke-linejoin:miter;stroke:#e7e7e7;stroke-opacity:1;stroke-miterlimit:4" d="M307.969-218C258.25-246.688 194.688-229.656 166-179.969 137.312-130.25 154.344-66.688 204.031-38 253.75-9.312 317.312-26.344 346-76.031 374.688-125.75 357.656-189.312 307.969-218zm-24.406 42.25c26.375 15.219 35.437 48.938 20.187 75.313C288.531-74.064 254.812-65 228.437-80.25 202.063-95.469 193-129.188 208.25-155.563c15.219-26.375 48.938-35.437 75.313-20.187zm0 0" transform="matrix(.125 0 0 .125 0 48)"/></svg>