<svg xmlns="http://www.w3.org/2000/svg" width="64" height="64"><path style="stroke:none;fill-rule:nonzero;fill:#637a82;fill-opacity:1" d="M33.047 14.195h18.312V2.75H33.047zm0 0"/><path style="stroke:none;fill-rule:nonzero;fill:#fff;fill-opacity:.654902" d="M35.695 9.977h4.578V5.398h-4.578zm0 0"/><path style="stroke:none;fill-rule:nonzero;fill:#05353f;fill-opacity:.654902" d="M35.336 9.617h4.578V5.04h-4.578zm0 0"/><path style="stroke:none;fill-rule:nonzero;fill:#fff;fill-opacity:.654902" d="M44.852 9.977h4.578V5.398h-4.578zm0 0"/><path style="stroke:none;fill-rule:nonzero;fill:#05353f;fill-opacity:.654902" d="M44.492 9.617h4.578V5.04h-4.578zm0 0"/><path style="fill-rule:nonzero;fill:#25aedf;fill-opacity:1;stroke-width:9.766254;stroke-linecap:butt;stroke-linejoin:miter;stroke:#25aedf;stroke-opacity:1;stroke-miterlimit:4" d="M155.258 119.105h201.469c8.312 0 15.03 6.75 15.03 15.031v336.188c0 8.312-6.718 15.03-15.03 15.03h-201.47c-8.28 0-15.03-6.718-15.03-15.03V134.136c0-8.281 6.75-15.031 15.03-15.031zm0 0" transform="matrix(.125 0 0 .125 10.202 -.083)"/><path style="stroke:none;fill-rule:nonzero;fill:#ecf0f1;fill-opacity:1" d="M46.004 32.488v-3.742h3.75v3.742zm-3.445 14.137a2.55 2.55 0 0 1 2.55 2.547 2.55 2.55 0 0 1-5.101 0 2.548 2.548 0 0 1 2.55-2.547zM37.777 32.04a2.253 2.253 0 1 1 0 4.507 2.253 2.253 0 1 1 0-4.508zm0 0"/><path style="stroke:none;fill-rule:evenodd;fill:#ecf0f1;fill-opacity:1" d="M40.55 26.488s2.009-4.543 2.06-4.472c.05.066 1.995 4.472 1.995 4.472zm0 0"/><path style="fill:none;stroke-width:6.079651;stroke-linecap:butt;stroke-linejoin:miter;stroke:#ecf0f1;stroke-opacity:1;stroke-miterlimit:2.012602" d="M256.758 269.518c-3-27.987-43.633-41.86-43.77-58.121-.068-10.977.443-15.783.341-29.794m43.429 58.122c0-27.578 30.305-34.055 45.304-54.44 2.284-3.477.818-34.634.818-36.611m-46.19 154.251V96.143" transform="translate(13.129 14.502) scale(.11459)"/><path style="stroke:none;fill-rule:nonzero;fill:#333;fill-opacity:1" d="M12.426 26.082h21.851v24.637H12.426zm0 0"/><path style="stroke:none;fill-rule:nonzero;fill:#f9de69;fill-opacity:1" d="M23.918 20.664c-.137 0-.29 0-.453.004-1.063.012-1.063.012-1.18.113a.714.714 0 0 0-.164.196c-.047.109-.058 6.945-.012 7.152.036.156.207.32.395.371.082.023.562.035 1.137.027.922-.015 1.011-.023 1.152-.101a.49.49 0 0 0 .187-.18c.04-.101.098-3.289.106-5.59l.004-1.562-.121-.176c-.09-.129-.172-.191-.282-.223-.074-.02-.355-.03-.769-.03zm-5.5.148-.195.16-.192.157-.015 3.508c-.008 2.347 0 3.558.035 3.656.062.195.238.328.476.363.106.02.621.028 1.141.024.887-.004.953-.012 1.11-.094.312-.172.296.055.296-3.828 0-1.938-.015-3.567-.035-3.621a.63.63 0 0 0-.203-.215l-.168-.11zm7.883.04-.196.156-.19.156-.017 3.418c-.007 1.883-.003 3.477.012 3.543a.7.7 0 0 0 .156.254c.102.11.18.144.356.164.125.02.644.027 1.152.023 1.02-.007 1.117-.027 1.293-.28.086-.118.09-.266.09-3.59 0-3.274-.008-3.473-.086-3.602-.14-.223-.266-.242-1.484-.242zm-10.696.074c-.578-.004-1.156.008-1.273.043-.098.027-.184.101-.273.234l-.125.195.004 2.176c.003 1.2.019 2.766.039 3.488l.027 1.31.156.128c.09.074.227.137.336.156.238.04 1.418.04 1.938.004.363-.023.414-.039.554-.156l.16-.133.012-3.523c.016-3.934.031-3.75-.308-3.868-.102-.035-.672-.054-1.247-.054zm15.918 1.836c-1.011 0-1.066.004-1.18.086-.226.168-.222.105-.222 2.722 0 1.336.02 2.504.04 2.594.046.2.109.266.32.344.203.07 1.714.082 1.956.015a.857.857 0 0 0 .297-.164l.133-.12.028-1.208c.011-.664.027-1.8.03-2.52.005-1.312.005-1.312-.093-1.468-.184-.293-.14-.281-1.309-.281zm0 0"/><path style="stroke:none;fill-rule:nonzero;fill:#000;fill-opacity:1" d="M11.902 51.46a.947.947 0 0 1-.566-.444l-.106-.192V19.09l.075-.14c.113-.208.273-.364.46-.45l.165-.078 10.004-.008 10.007-.008 3.914 3.914v14.184c0 9.543-.011 14.223-.035 14.309a1.013 1.013 0 0 1-.457.57l-.191.11-11.55.007c-9.364.004-11.583-.004-11.72-.04zm20.309-2.538c.426-.211.707-.55.82-.992.055-.211.059-.84.035-8.739-.011-4.683-.03-8.523-.043-8.539-.02-.039-19.027-.039-19.05 0-.012.012-.032 3.817-.043 8.45-.02 6.34-.016 8.488.015 8.683.09.574.473 1.028 1.012 1.2.195.062.492.066 8.613.058l8.407-.008zM16.535 28.355c.05-.039.13-.117.168-.168.07-.097.074-.125.082-3.437.008-3.133.004-3.352-.055-3.465a.635.635 0 0 0-.16-.191c-.093-.07-.152-.074-1.035-.082-1.078-.012-1.117-.004-1.262.273l-.078.156v3.247c0 2.007.012 3.296.035 3.37.02.063.07.157.114.204.16.175.222.183 1.191.175.848-.007.906-.011 1-.082zm3.98.012a.532.532 0 0 0 .223-.222c.075-.137.075-.165.075-3.461 0-3.317 0-3.325-.075-3.422a.915.915 0 0 0-.187-.18c-.113-.078-.14-.078-1.04-.078-.894 0-.921 0-1.034.078a.915.915 0 0 0-.188.18c-.074.097-.074.113-.082 3.363-.008 2.145 0 3.309.023 3.398.02.075.07.176.114.23.14.177.218.188 1.156.192.832 0 .867-.004 1.016-.078zm4.063-.02c.254-.179.235.063.246-3.605l.008-3.3-.078-.153c-.145-.281-.184-.289-1.262-.277-.883.008-.941.011-1.035.082a.635.635 0 0 0-.16.191c-.059.113-.063.352-.063 3.418 0 3.254 0 3.3.07 3.45a.463.463 0 0 0 .223.222c.137.07.188.074 1.04.063.874-.008.898-.012 1.011-.09zm3.895.063a.595.595 0 0 0 .312-.305c.04-.09.047-.722.05-3.414 0-3.12-.003-3.312-.062-3.414a.796.796 0 0 0-.16-.183c-.093-.07-.148-.074-1.039-.082-.926-.012-.937-.012-1.054.07a.847.847 0 0 0-.192.18c-.074.097-.074.113-.082 3.363-.008 2.145 0 3.309.024 3.398a.56.56 0 0 0 .296.372c.137.062 1.754.07 1.907.015zm4.082-.043a.552.552 0 0 0 .226-.203c.07-.117.074-.187.082-2.367l.008-2.25-.078-.152c-.145-.282-.184-.29-1.262-.278-.89.012-.941.016-1.035.086a.72.72 0 0 0-.164.18c-.059.105-.062.246-.059 2.383.004 2.558-.007 2.441.266 2.601.133.074.172.078 1 .078.824 0 .867-.004 1.016-.078zm0 0"/></svg>