<svg xmlns="http://www.w3.org/2000/svg" width="64" height="64"><path style="fill-rule:nonzero;fill:#fff;fill-opacity:1;stroke-width:28.191782;stroke-linecap:butt;stroke-linejoin:miter;stroke:gray;stroke-opacity:1;stroke-miterlimit:4" d="M81.469 25.094H430.53c31.125 0 56.375 25.25 56.375 56.375V430.53c0 31.125-25.25 56.375-56.375 56.375H81.47c-31.125 0-56.375-25.25-56.375-56.375V81.47c0-31.125 25.25-56.375 56.375-56.375zm0 0" transform="scale(.125)"/><path style="stroke:none;fill-rule:nonzero;fill:#4d4d4d;fill-opacity:1" d="M13.586 14.676h36.828a5.055 5.055 0 0 1 5.055 5.054v24.54a5.055 5.055 0 0 1-5.055 5.054H13.586A5.055 5.055 0 0 1 8.53 44.27V19.73a5.055 5.055 0 0 1 5.055-5.054zm0 0"/><path style="stroke:none;fill-rule:nonzero;fill:gray;fill-opacity:1" d="M14.813 15.828h34.374a4.72 4.72 0 0 1 4.72 4.719v22.906a4.72 4.72 0 0 1-4.72 4.719H14.813a4.72 4.72 0 0 1-4.72-4.719V20.547a4.72 4.72 0 0 1 4.72-4.719zm0 0"/><path style="stroke:none;fill-rule:nonzero;fill:#4d4d4d;fill-opacity:1" d="M28.676 31.75a7.82 7.82 0 0 1-7.817 7.82 7.821 7.821 0 0 1 0-15.64c4.317 0 7.817 3.5 7.817 7.82zm20.742 0a5.907 5.907 0 0 1-5.91 5.906 5.907 5.907 0 0 1-5.906-5.906 5.91 5.91 0 0 1 5.906-5.91 5.91 5.91 0 0 1 5.91 5.91zm0 0"/><path style="stroke:none;fill-rule:nonzero;fill:#fff;fill-opacity:1" d="M48.375 31.75a4.865 4.865 0 0 1-4.867 4.863 4.861 4.861 0 0 1-4.863-4.863 4.865 4.865 0 1 1 9.73 0zm-21.523 0a5.997 5.997 0 0 1-5.993 5.996 5.997 5.997 0 0 1-5.996-5.996 5.995 5.995 0 1 1 11.989 0zm0 0"/><path style="stroke:none;fill-rule:evenodd;fill:#4d4d4d;fill-opacity:1" d="m23.266 15.676 2.496 4.32h10.277l2.598-4.5zm0 0"/><path style="fill:none;stroke-width:8.033507;stroke-linecap:butt;stroke-linejoin:miter;stroke:#4d4d4d;stroke-opacity:1;stroke-miterlimit:4" d="m160.026 199.474 187.656 13.907" transform="matrix(.125 0 0 .125 .31 -.31)"/></svg>