<svg xmlns="http://www.w3.org/2000/svg" width="64" height="64"><path style="stroke:none;fill-rule:nonzero;fill:#333;fill-opacity:1" d="M15.512 9.363h.726c.23 0 .418.028.418.063v2.566c0 .035-.187.063-.418.063h-.726c-.23 0-.418-.028-.418-.063V9.426c0-.035.187-.063.418-.063zm0 12.578h.726c.23 0 .418.036.418.082v3.372c0 .046-.187.082-.418.082h-.726c-.23 0-.418-.036-.418-.082v-3.372c0-.046.187-.082.418-.082zM42.336 3.355v.73c0 .231-.047.419-.11.419h-4.59c-.058 0-.109-.188-.109-.418v-.73c0-.231.051-.415.11-.415h4.59c.062 0 .109.184.109.414zM15.512 15.941h.726c.23 0 .418.036.418.082v3.372c0 .046-.187.082-.418.082h-.726c-.23 0-.418-.036-.418-.082v-3.372c0-.046.187-.082.418-.082zm0 0"/><path style="stroke:none;fill-rule:nonzero;fill:#333;fill-opacity:1" d="M18.719 3.45h26.597c1.7 0 3.079 1.472 3.079 3.288v50.524c0 1.816-1.38 3.289-3.079 3.289H18.72c-1.703 0-3.078-1.473-3.078-3.29V6.739c0-1.816 1.375-3.289 3.078-3.289zm0 0"/><path style="stroke:none;fill-rule:nonzero;fill:#b3b3b3;fill-opacity:1" d="M18.836 3.707h26.36c1.687 0 3.05 1.461 3.05 3.262V57.03c0 1.801-1.363 3.262-3.05 3.262h-26.36c-1.684 0-3.05-1.461-3.05-3.262V6.97c0-1.801 1.366-3.262 3.05-3.262zm0 0"/><path style="stroke:none;fill-rule:nonzero;fill:#fff;fill-opacity:1" d="M19.469 4.328h25.093c1.606 0 2.907 1.426 2.907 3.188v48.968c0 1.762-1.301 3.188-2.907 3.188H19.47c-1.602 0-2.903-1.426-2.903-3.188V7.516c0-1.762 1.301-3.188 2.903-3.188zm0 0"/><path style="stroke:none;fill-rule:nonzero;fill:#000;fill-opacity:1" d="M17.68 11.098h28.675v38.984H17.68zm0 0"/><path style="stroke:none;fill-rule:nonzero;fill:#333;fill-opacity:1" d="M28.148 7.121h7.735c.215 0 .387.254.387.57v.114c0 .316-.172.57-.387.57h-7.735c-.21 0-.382-.254-.382-.57V7.69c0-.316.172-.57.382-.57zm0 0"/><path style="stroke:none;fill-rule:nonzero;fill:#666;fill-opacity:1" d="M26.719 7.672a1.384 1.384 0 1 1-1.383-1.383c.766 0 1.383.621 1.383 1.383zm0 0"/><path style="stroke:none;fill-rule:nonzero;fill:#666;fill-opacity:1" d="M26.719 7.672a1.384 1.384 0 1 1-1.383-1.383c.766 0 1.383.621 1.383 1.383zm0 0"/><path style="stroke:none;fill-rule:nonzero;fill:#ccc;fill-opacity:1" d="M26.313 7.672a.977.977 0 1 1-1.954 0 .977.977 0 0 1 1.953 0zm0 0"/><path style="stroke:none;fill-rule:nonzero;fill:#fff;fill-opacity:1" d="M25.398 7.41a.327.327 0 0 1-.652 0c0-.18.145-.328.324-.328a.33.33 0 0 1 .328.328zm0 0"/><path style="stroke:none;fill-rule:nonzero;fill:#003380;fill-opacity:1" d="M18.148 11.438h27.739v38.304H18.148zm0 0"/><path style="stroke:none;fill-rule:nonzero;fill:#b3b3b3;fill-opacity:1" d="M35.816 54.574A3.82 3.82 0 0 1 32 58.391a3.817 3.817 0 1 1 3.816-3.816zm0 0"/><path style="stroke:none;fill-rule:nonzero;fill:#333;fill-opacity:1" d="M30.023 5.922h3.989c.11 0 .199.133.199.297v.058c0 .164-.09.293-.2.293h-3.988c-.109 0-.199-.129-.199-.293V6.22c0-.164.09-.297.2-.297zm.239 46.812c-.114 0-.2.133-.2.297v3.285c0 .164.086.293.2.293h3.476c.114 0 .2-.129.2-.293v-3.285c0-.164-.086-.297-.2-.297zm.304.344h2.868c.09 0 .16.11.16.242v2.707c0 .133-.07.243-.16.243h-2.868c-.09 0-.16-.11-.16-.243V53.32c0-.133.07-.242.16-.242zm0 0"/></svg>