<svg xmlns="http://www.w3.org/2000/svg" width="64" height="64"><path style="fill-rule:nonzero;fill:#fff;fill-opacity:1;stroke-width:2.611469;stroke-linecap:butt;stroke-linejoin:miter;stroke:#909090;stroke-opacity:1;stroke-miterlimit:4" d="M7.834 2.61h32.332a5.223 5.223 0 0 1 5.224 5.224v32.332a5.223 5.223 0 0 1-5.224 5.224H7.834a5.223 5.223 0 0 1-5.224-5.224V7.834A5.223 5.223 0 0 1 7.834 2.61zm0 0" transform="scale(1.33333)"/><path style="stroke:none;fill-rule:evenodd;fill:#4d4d4d;fill-opacity:1" d="M32.414 35.29a3.91 3.91 0 0 0 3.645-4.099 3.909 3.909 0 0 0-7.813.258 3.909 3.909 0 0 0 3.91 3.848"/><path style="fill:none;stroke-width:3.131226;stroke-linecap:square;stroke-linejoin:bevel;stroke:#4d4d4d;stroke-opacity:1;stroke-miterlimit:4" d="M-.002-.001V23.27" transform="translate(32.162 31.33) scale(.96346)"/><path style="fill:none;stroke-width:3.131226;stroke-linecap:square;stroke-linejoin:miter;stroke:#4d4d4d;stroke-opacity:1;stroke-miterlimit:2.012602" d="M17.904 16.143A10.002 10.002 0 0 0 16.59 2.475a9.998 9.998 0 0 0-13.72.52 9.999 9.999 0 0 0-.28 13.727" transform="translate(22.52 22.045) scale(.96346)"/><path style="fill:none;stroke-width:3.131226;stroke-linecap:square;stroke-linejoin:miter;stroke:#4d4d4d;stroke-opacity:1;stroke-miterlimit:2.012602" d="M28.705 25.883c5.246-6.755 4.273-16.44-2.218-22.012C20-1.703 10.277-1.2 4.395 5.007c-5.883 6.21-5.859 15.945.057 22.124" transform="translate(16.629 16.372) scale(.96346)"/><path style="fill:none;stroke-width:3.131226;stroke-linecap:square;stroke-linejoin:miter;stroke:#4d4d4d;stroke-opacity:1;stroke-miterlimit:2.012602" d="M39.25 35.392c7.163-9.216 5.854-22.421-2.977-30.051C27.447-2.29 14.19-1.673 6.108 6.748c-8.08 8.416-8.153 21.69-.166 30.197" transform="translate(10.95 10.894) scale(.96346)"/></svg>