<svg xmlns="http://www.w3.org/2000/svg" width="64" height="64"><path style="fill-rule:nonzero;fill:#fff;fill-opacity:1;stroke-width:2.611469;stroke-linecap:butt;stroke-linejoin:miter;stroke:#909090;stroke-opacity:1;stroke-miterlimit:4" d="M7.834 2.61h32.332a5.223 5.223 0 0 1 5.224 5.224v32.332a5.223 5.223 0 0 1-5.224 5.224H7.834a5.223 5.223 0 0 1-5.224-5.224V7.834A5.223 5.223 0 0 1 7.834 2.61zm0 0" transform="scale(1.33333)"/><path style="stroke:none;fill-rule:evenodd;fill:#7f8c8d;fill-opacity:1" d="M32.332 34.96a3.909 3.909 0 0 0-.39-7.808 3.912 3.912 0 0 0-3.782 3.973 3.913 3.913 0 0 0 3.91 3.844"/><path style="fill:none;stroke-width:2.26261;stroke-linecap:square;stroke-linejoin:bevel;stroke:#7f8c8d;stroke-opacity:1;stroke-miterlimit:4" d="M24.059 23.253v16.816" transform="scale(1.33333)"/><path style="fill:none;stroke-width:2.26261;stroke-linecap:square;stroke-linejoin:miter;stroke:#7f8c8d;stroke-opacity:1;stroke-miterlimit:2.012602" d="M29.766 27.955a7.23 7.23 0 1 0-11.065.419" transform="scale(1.33333)"/><path style="fill:none;stroke-width:2.26261;stroke-linecap:square;stroke-linejoin:miter;stroke:#7f8c8d;stroke-opacity:1;stroke-miterlimit:2.012602" d="M33.152 30.735c3.791-4.878 3.088-11.877-1.602-15.902-4.688-4.028-11.713-3.665-15.964.82-4.251 4.489-4.233 11.52.041 15.985" transform="scale(1.33333)"/><path style="fill:none;stroke-width:2.26261;stroke-linecap:square;stroke-linejoin:miter;stroke:#7f8c8d;stroke-opacity:1;stroke-miterlimit:2.012602" d="M36.513 33.501c5.174-6.66 4.23-16.204-2.15-21.718-6.38-5.513-15.96-5.065-21.799 1.017-5.838 6.085-5.891 15.677-.12 21.823" transform="scale(1.33333)"/></svg>