<svg xmlns="http://www.w3.org/2000/svg" width="64" height="64"><path style="fill-rule:nonzero;fill:#fff;fill-opacity:1;stroke-width:2.611469;stroke-linecap:butt;stroke-linejoin:miter;stroke:#909090;stroke-opacity:1;stroke-miterlimit:4" d="M7.834 2.61h32.332a5.223 5.223 0 0 1 5.224 5.224v32.332a5.223 5.223 0 0 1-5.224 5.224H7.834a5.223 5.223 0 0 1-5.224-5.224V7.834A5.223 5.223 0 0 1 7.834 2.61zm0 0" transform="scale(1.33333)"/><path style="stroke:none;fill-rule:evenodd;fill:#4d4d4d;fill-opacity:1" d="M32.332 34.96a3.909 3.909 0 0 0-.39-7.808 3.912 3.912 0 0 0-3.782 3.973 3.913 3.913 0 0 0 3.91 3.844"/><path style="fill:none;stroke-width:2.26261;stroke-linecap:square;stroke-linejoin:bevel;stroke:#4d4d4d;stroke-opacity:1;stroke-miterlimit:4" d="M24.059 23.253v16.816" transform="scale(1.33333)"/><path style="fill-rule:evenodd;fill:#de6143;fill-opacity:1;stroke-width:1.164577;stroke-linecap:square;stroke-linejoin:miter;stroke:#de6143;stroke-opacity:1;stroke-miterlimit:2.012602" d="m21.152 12.032.217-.22L24 14.444l2.616-2.616.217.22-2.613 2.616 2.628 2.63-.217.218L24 14.88l-2.616 2.616-.217-.22 2.613-2.616zm0 0" transform="scale(1.33333)"/></svg>