<svg xmlns="http://www.w3.org/2000/svg" width="64" height="64"><path style="fill-rule:nonzero;fill:#fff;fill-opacity:1;stroke-width:2.611469;stroke-linecap:butt;stroke-linejoin:miter;stroke:#909090;stroke-opacity:1;stroke-miterlimit:4" d="M7.834 1006.973h32.332a5.223 5.223 0 0 1 5.224 5.223v32.332a5.223 5.223 0 0 1-5.224 5.224H7.834a5.223 5.223 0 0 1-5.224-5.224v-32.332a5.223 5.223 0 0 1 5.224-5.223zm0 0" transform="translate(0 -1339.15) scale(1.33333)"/><path style="stroke:none;fill-rule:evenodd;fill:#e74c3c;fill-opacity:1" d="M21.629 28.23a9.975 9.975 0 0 0 0 14.141 9.975 9.975 0 0 0 14.14 0l6.602-6.601a9.975 9.975 0 0 0 0-14.141 9.975 9.975 0 0 0-14.14 0zm3.77 3.942 6.773-6.774a4.54 4.54 0 0 1 6.43 0 4.538 4.538 0 0 1 0 6.426l-6.774 6.774a4.536 4.536 0 0 1-6.43 0 4.54 4.54 0 0 1 0-6.43zm0 0"/><path style="stroke:none;fill-rule:evenodd;fill:#e74c3c;fill-opacity:1" d="M12 48.23 15.77 52l10.898-10.895-3.773-3.773zm25.332-25.335 3.773 3.773L52 15.77 48.23 12zm0 0"/></svg>