<svg xmlns="http://www.w3.org/2000/svg" width="64" height="64"><path style="fill-rule:nonzero;fill:#fff;fill-opacity:1;stroke-width:2.611469;stroke-linecap:butt;stroke-linejoin:miter;stroke:#909090;stroke-opacity:1;stroke-miterlimit:4" d="M7.834 2.61h32.332a5.223 5.223 0 0 1 5.224 5.224v32.332a5.223 5.223 0 0 1-5.224 5.224H7.834a5.223 5.223 0 0 1-5.224-5.224V7.834A5.223 5.223 0 0 1 7.834 2.61zm0 0" transform="scale(1.33333)"/><path style="stroke:none;fill-rule:evenodd;fill:#2980b9;fill-opacity:1" d="M54.871 31.934C54.836 19.309 44.578 9.102 31.95 9.129 19.324 9.156 9.11 19.406 9.13 32.03c.016 12.63 10.262 22.852 22.887 22.84C44.64 54.863 54.87 44.625 54.87 32"/><path style="stroke:none;fill-rule:evenodd;fill:#4d4d4d;fill-opacity:1" d="M32.332 34.96a3.909 3.909 0 0 0-.39-7.808 3.912 3.912 0 0 0-3.782 3.973 3.913 3.913 0 0 0 3.91 3.844"/><path style="fill:none;stroke-width:3.131226;stroke-linecap:square;stroke-linejoin:bevel;stroke:#4d4d4d;stroke-opacity:1;stroke-miterlimit:4" d="M-.001 0v23.273" transform="translate(32.08 31.004) scale(.96346)"/><path style="fill:none;stroke-width:3.131226;stroke-linecap:square;stroke-linejoin:miter;stroke:#4d4d4d;stroke-opacity:1;stroke-miterlimit:2.012602" d="M17.904 16.144a10.008 10.008 0 0 0-1.313-13.671 10.006 10.006 0 0 0-14 14.25" transform="translate(22.437 21.72) scale(.96346)"/><path style="fill:none;stroke-width:3.131226;stroke-linecap:square;stroke-linejoin:miter;stroke:#4d4d4d;stroke-opacity:1;stroke-miterlimit:2.012602" d="M28.706 25.88c5.246-6.75 4.273-16.436-2.218-22.007C20-1.702 10.278-1.2 4.396 5.008c-5.883 6.211-5.86 15.942.056 22.12" transform="translate(16.546 16.046) scale(.96346)"/><path style="fill:none;stroke-width:3.131226;stroke-linecap:square;stroke-linejoin:miter;stroke:#4d4d4d;stroke-opacity:1;stroke-miterlimit:2.012602" d="M39.25 35.393c7.16-9.215 5.854-22.425-2.976-30.055-8.827-7.63-22.085-7.01-30.165 1.407-8.08 8.42-8.153 21.695-.166 30.201" transform="translate(10.868 10.568) scale(.96346)"/></svg>