<svg xmlns="http://www.w3.org/2000/svg" width="64" height="64"><path style="fill-rule:nonzero;fill:#fff;fill-opacity:1;stroke-width:27.583374;stroke-linecap:butt;stroke-linejoin:miter;stroke:#909090;stroke-opacity:1;stroke-miterlimit:4" d="M85.25 30.094h341.5c30.469 0 55.156 24.687 55.156 55.156v341.5c0 30.469-24.687 55.156-55.156 55.156H85.25c-30.469 0-55.156-24.687-55.156-55.156V85.25c0-30.469 24.687-55.156 55.156-55.156zm0 0" transform="scale(.125)"/><path style="stroke:none;fill-rule:nonzero;fill:#25aedf;fill-opacity:1" d="M26.219 55.16c-2.465-.347-5.223-.98-6.942-1.59-3.59-1.277-6.535-3.355-7.504-5.297-.48-.964-.5-1.128-.5-4.433 0-1.922.079-3.434.176-3.434.098 0 .399.38.672.848 2.527 4.312 11.52 7.18 21.332 6.797 9.078-.352 16.274-3.082 18.242-6.922.258-.504.551-.918.649-.918.328 0 .441 1.332.351 4.207-.078 2.57-.129 2.922-.578 3.797-1.57 3.055-6.086 5.414-12.77 6.68-2.8.527-10.195.675-13.128.265zm1.062-9.379c-5.957-.597-11.476-2.629-14.078-5.183-1.715-1.684-1.82-2.024-1.89-6.028-.043-2.3.003-3.422.14-3.422.113 0 .418.344.684.762 1.675 2.652 6.043 4.875 11.75 5.977 11.383 2.195 24.699-.73 27.722-6.09.32-.57.657-1.035.746-1.035.293 0 .43 1.73.344 4.336-.078 2.297-.144 2.672-.613 3.632-2.426 4.961-13.703 8.168-24.805 7.051zm.578-9.449c-7.64-.672-14.144-3.523-15.964-6.992-.485-.926-.52-1.172-.586-4.012-.082-3.695.043-4.05.933-2.656 1.625 2.527 5.445 4.473 10.973 5.586 12.133 2.441 25.707-.555 28.633-6.317.175-.343.39-.628.476-.628.246 0 .422 5.203.219 6.449-.922 5.668-12.41 9.656-24.684 8.57zm.946-9.445c-7.953-.504-15.203-3.602-16.883-7.207-2.3-4.942 4.648-9.766 15.723-10.918 3.117-.325 9.156-.13 11.894.383 3.215.601 5.348 1.273 7.746 2.437 3.508 1.711 5.258 3.75 5.258 6.137 0 5.687-11.098 9.972-23.738 9.168zm0 0"/></svg>