<svg xmlns="http://www.w3.org/2000/svg" width="64" height="64"><path style="fill-rule:nonzero;fill:#fff;fill-opacity:1;stroke-width:28.191782;stroke-linecap:butt;stroke-linejoin:miter;stroke:#666;stroke-opacity:1;stroke-miterlimit:4" d="M529.943-48.398h349.063c31.125 0 56.375 25.25 56.375 56.375V357.04c0 31.125-25.25 56.375-56.375 56.375H529.943c-31.125 0-56.375-25.25-56.375-56.375V7.977c0-31.125 25.25-56.375 56.375-56.375zm0 0" transform="matrix(.125 0 0 .125 -56.06 9.186)"/><path style="stroke:none;fill-rule:nonzero;fill:#666;fill-opacity:1" d="M7.344 20.676v21.957h13.43V31.5h22.453v11.133h13.43V20.676zm14.308-10.633h20.696v9.754H21.652zm0 0"/><path style="stroke:none;fill-rule:nonzero;fill:#666;fill-opacity:1" d="M23 33.977h18v19.98H23zm0 0"/><path style="stroke:none;fill-rule:nonzero;fill:#ccc;fill-opacity:1" d="M24.469 49.797H39.53v.41H24.47zm0-1.965H39.53v.41H24.47zm0-1.965H39.53v.41H24.47zm0-1.965H39.53v.41H24.47zm0-1.961H39.53v.407H24.47zm0-1.964H39.53v.406H24.47zm0-1.965H39.53v.406H24.47zm0-1.965H39.53v.406H24.47zm0 15.715H39.53v.406H24.47zm30.16-27.535c0 .867-.719 1.574-1.606 1.574-.886 0-1.609-.707-1.609-1.574 0-.872.723-1.575 1.61-1.575.886 0 1.605.703 1.605 1.575zm0 0"/><path style="stroke:none;fill-rule:nonzero;fill:#f55;fill-opacity:1" d="M54.629 28.375c0 .871-.719 1.574-1.606 1.574-.886 0-1.609-.703-1.609-1.574 0-.871.723-1.574 1.61-1.574.886 0 1.605.703 1.605 1.574zm0 0"/><path style="stroke:none;fill-rule:nonzero;fill:#0f0;fill-opacity:1" d="M54.629 32.523c0 .872-.719 1.575-1.606 1.575-.886 0-1.609-.703-1.609-1.575 0-.867.723-1.574 1.61-1.574.886 0 1.605.707 1.605 1.574zm0 0"/></svg>