<svg xmlns="http://www.w3.org/2000/svg" width="64" height="64"><path style="fill-rule:nonzero;fill:#58785b;fill-opacity:1;stroke-width:18.73;stroke-linecap:butt;stroke-linejoin:miter;stroke:#3f5641;stroke-opacity:1;stroke-miterlimit:4" d="M71.272 35.923h354.687c26.313 0 47.656 21.344 47.656 47.656v354.688c0 26.312-21.343 47.656-47.656 47.656H71.272c-26.313 0-47.657-21.344-47.657-47.656V83.579c0-26.312 21.344-47.656 47.657-47.656zm0 0" transform="matrix(.125 0 0 .125 .923 -.615)"/><path style="stroke:none;fill-rule:nonzero;fill:#fff;fill-opacity:1" d="M42.57 14.813h2.492c1.114 0 2.016.87 2.016 1.94v1.106c0 1.075-.902 1.942-2.016 1.942H42.57c-1.113 0-2.011-.867-2.011-1.942v-1.105c0-1.07.898-1.942 2.011-1.942zm0 7.25h2.492c1.114 0 2.016.87 2.016 1.94v1.106c0 1.075-.902 1.942-2.016 1.942H42.57c-1.113 0-2.011-.867-2.011-1.942v-1.105c0-1.07.898-1.942 2.011-1.942zm0 7.75h2.492c1.114 0 2.016.87 2.016 1.94v1.106c0 1.075-.902 1.942-2.016 1.942H42.57c-1.113 0-2.011-.867-2.011-1.942v-1.105c0-1.07.898-1.942 2.011-1.942zm0 7.25h2.492c1.114 0 2.016.87 2.016 1.94v1.106c0 1.075-.902 1.942-2.016 1.942H42.57c-1.113 0-2.011-.867-2.011-1.942v-1.105c0-1.07.898-1.941 2.011-1.941zm0 7.5h2.492c1.114 0 2.016.87 2.016 1.94v1.106c0 1.075-.902 1.942-2.016 1.942H42.57c-1.113 0-2.011-.867-2.011-1.942v-1.105c0-1.07.898-1.941 2.011-1.941zm-23-29.75h2.492c1.114 0 2.016.87 2.016 1.94v1.106c0 1.075-.902 1.942-2.015 1.942H19.57c-1.113 0-2.011-.867-2.011-1.942v-1.105c0-1.07.898-1.942 2.011-1.942zm0 7.25h2.492c1.114 0 2.016.87 2.016 1.94v1.106c0 1.075-.902 1.942-2.015 1.942H19.57c-1.113 0-2.011-.867-2.011-1.942v-1.105c0-1.07.898-1.942 2.011-1.942zm0 7.75h2.492c1.114 0 2.016.87 2.016 1.94v1.106c0 1.075-.902 1.942-2.015 1.942H19.57c-1.113 0-2.011-.867-2.011-1.942v-1.105c0-1.07.898-1.942 2.011-1.942zm0 7.25h2.492c1.114 0 2.016.87 2.016 1.94v1.106c0 1.075-.902 1.942-2.015 1.942H19.57c-1.113 0-2.011-.867-2.011-1.942v-1.105c0-1.07.898-1.941 2.011-1.941zm0 7.5h2.492c1.114 0 2.016.87 2.016 1.94v1.106c0 1.075-.902 1.942-2.015 1.942H19.57c-1.113 0-2.011-.867-2.011-1.942v-1.105c0-1.07.898-1.941 2.011-1.941zm0 0"/><path style="stroke:none;fill-rule:nonzero;fill:#49494c;fill-opacity:1" d="M40.723 54.477a4.67 4.67 0 0 1-1.024.41c-.691.164-15.375.023-15.922-.153-.691-.222-1.515-.957-1.941-1.738-.332-.601-.367-.832-.332-2.219.02-.847.031-2.453.023-3.566-.004-1.11-.007-2.73-.004-3.598.004-.867.008-2.531.008-3.695V28.739c0-.876.024-2.528.047-3.665.027-1.14.008-2.12-.047-2.172-.054-.054-.074-.793-.047-1.644.07-2.055.07-5.598 0-6.938-.097-1.894.524-3.148 1.942-3.925.648-.36.844-.368 8.41-.438 8.625-.082 8.539-.09 9.66 1.023.805.805 1.063 1.56 1.07 3.13.004.703-.035 1.316-.09 1.37-.085.09-.07 2.02.051 5.782.032.847.008 1.586-.047 1.64-.054.055-.074 1.051-.046 2.211.027 1.164.05 2.785.046 3.598v14.828c0 4.941.004 6.254.024 7.238.039 1.7-.606 3.04-1.781 3.7zm0 0"/><path style="stroke:none;fill-rule:nonzero;fill:#ccc;fill-opacity:1" d="M40.078 52.016a1.535 1.535 0 1 1-3.07 0 1.535 1.535 0 0 1 3.07 0zM31.16 10.18h1.727v3.465H31.16zm0 0"/></svg>