<svg xmlns="http://www.w3.org/2000/svg" width="64" height="64"><path style="fill-rule:nonzero;fill:#fff;fill-opacity:1;stroke-width:7.717832;stroke-linecap:butt;stroke-linejoin:miter;stroke:#909090;stroke-opacity:1;stroke-miterlimit:4" d="M-13.645 275.934h95.55c8.528 0 15.434 6.905 15.434 15.434v95.55c0 8.528-6.906 15.434-15.434 15.434h-95.55c-8.529 0-15.434-6.906-15.434-15.434v-95.55c0-8.529 6.905-15.434 15.434-15.434zm0 0" transform="translate(16.883 -118.21) scale(.44291)"/><path style="stroke:none;fill-rule:nonzero;fill:#e6e6e6;fill-opacity:1" d="M32 14.273a11.938 11.938 0 0 0-11.965 11.965v23.489h2.66V26.238A9.282 9.282 0 0 1 32 16.934a9.282 9.282 0 0 1 9.305 9.304v23.489h2.66V26.238A11.938 11.938 0 0 0 32 14.273zm0 0"/><path style="stroke:none;fill-rule:nonzero;fill:#f9de69;fill-opacity:1" d="M16.934 49.727h30.132V32H16.934zm0 0"/><path style="stroke:none;fill-rule:nonzero;fill:#223656;fill-opacity:1" d="M32 35.547a2.216 2.216 0 0 0-2.215 2.215c0 .879.524 1.675 1.328 2.027v6.39h1.774v-6.39a2.216 2.216 0 0 0 1.328-2.027A2.216 2.216 0 0 0 32 35.547zm0 0"/></svg>