<svg xmlns="http://www.w3.org/2000/svg" width="64" height="64"><path style="stroke:none;fill-rule:nonzero;fill:#333;fill-opacity:1" d="M47.742 8.555h.73c.231 0 .419.047.419.11v4.589c0 .062-.188.11-.418.11h-.73c-.231 0-.419-.048-.419-.11v-4.59c0-.062.188-.11.418-.11zm-32.25 5.261h.73c.231 0 .419.157.419.348v14.59c0 .191-.188.348-.418.348h-.73c-.231 0-.419-.157-.419-.348v-14.59c0-.191.188-.348.418-.348zm0 0"/><path style="stroke:none;fill-rule:nonzero;fill:#333;fill-opacity:1" d="M18.7 3.45h26.6c1.7 0 3.079 1.472 3.079 3.288v50.524c0 1.816-1.379 3.289-3.078 3.289H18.699c-1.699 0-3.078-1.473-3.078-3.29V6.739C15.621 4.922 17 3.45 18.7 3.45zm0 0"/><path style="stroke:none;fill-rule:nonzero;fill:#b3b3b3;fill-opacity:1" d="M18.82 3.707h26.36c1.683 0 3.05 1.461 3.05 3.262V57.03c0 1.801-1.367 3.262-3.05 3.262H18.82c-1.683 0-3.05-1.461-3.05-3.262V6.97c0-1.801 1.367-3.262 3.05-3.262zm0 0"/><path style="stroke:none;fill-rule:nonzero;fill:#fff;fill-opacity:1" d="M19.453 4.328h25.094c1.605 0 2.906 1.426 2.906 3.188v48.968c0 1.762-1.3 3.188-2.906 3.188H19.453c-1.605 0-2.906-1.426-2.906-3.188V7.516c0-1.762 1.3-3.188 2.906-3.188zm0 0"/><path style="stroke:none;fill-rule:nonzero;fill:#000;fill-opacity:1" d="M19.238 12.508h25.524v41.164H19.238zm0 0"/><path style="stroke:none;fill-rule:nonzero;fill:gray;fill-opacity:1" d="M26.262 7.121h11.476a.57.57 0 0 1 .57.57v.114a.57.57 0 0 1-.57.57H26.262a.571.571 0 0 1-.57-.57V7.69a.57.57 0 0 1 .57-.57zm0 0"/><path style="stroke:none;fill-rule:nonzero;fill:#1a1a1a;fill-opacity:1" d="M36.54 7.746a.305.305 0 0 1-.61 0 .3.3 0 0 1 .304-.3c.168 0 .305.132.305.3zm-1.06 0a.305.305 0 0 1-.609 0c0-.168.137-.3.305-.3a.3.3 0 0 1 .304.3zm-1.058 0a.305.305 0 0 1-.61 0c0-.168.137-.3.305-.3.168 0 .305.132.305.3zm-1.059 0a.305.305 0 0 1-.61 0c0-.168.138-.3.306-.3a.3.3 0 0 1 .304.3zm-1.058 0a.305.305 0 0 1-.61 0c0-.168.137-.3.305-.3.168 0 .305.132.305.3zm-1.059 0a.305.305 0 0 1-.61 0c0-.168.137-.3.305-.3.168 0 .305.132.305.3zm-1.058 0a.305.305 0 0 1-.61 0c0-.168.137-.3.305-.3.168 0 .305.132.305.3zm-1.059 0a.305.305 0 0 1-.61 0c0-.168.137-.3.305-.3.168 0 .305.132.305.3zm-1.059 0a.305.305 0 0 1-.61 0c0-.168.138-.3.306-.3a.3.3 0 0 1 .304.3zm-1.058 0a.305.305 0 0 1-.61 0c0-.168.137-.3.305-.3.168 0 .305.132.305.3zm10.586 0a.305.305 0 0 1-.61 0c0-.168.137-.3.305-.3.168 0 .305.132.305.3zm0 0"/><path style="stroke:none;fill-rule:nonzero;fill:#666;fill-opacity:1" d="M40.355 7.719a.628.628 0 0 1-.628.629.625.625 0 0 1-.625-.63c0-.347.277-.624.625-.624.347 0 .628.277.628.625zm0 0"/><path style="stroke:none;fill-rule:nonzero;fill:#666;fill-opacity:1" d="M40.355 7.719a.628.628 0 0 1-.628.629.625.625 0 0 1-.625-.63c0-.347.277-.624.625-.624.347 0 .628.277.628.625zm0 0"/><path style="stroke:none;fill-rule:nonzero;fill:#ccc;fill-opacity:1" d="M40.168 7.719a.44.44 0 1 1-.884 0 .44.44 0 0 1 .884 0zm0 0"/><path style="stroke:none;fill-rule:nonzero;fill:#fff;fill-opacity:1" d="M39.754 7.598a.148.148 0 0 1-.149.148.147.147 0 1 1 .148-.148zm0 0"/><path style="stroke:none;fill-rule:nonzero;fill:#666;fill-opacity:1" d="M42.105 7.719a.628.628 0 0 1-.628.629.625.625 0 0 1-.625-.63c0-.347.277-.624.625-.624.347 0 .628.277.628.625zm0 0"/><path style="stroke:none;fill-rule:nonzero;fill:#666;fill-opacity:1" d="M42.105 7.719a.628.628 0 0 1-.628.629.625.625 0 0 1-.625-.63c0-.347.277-.624.625-.624.347 0 .628.277.628.625zm0 0"/><path style="stroke:none;fill-rule:nonzero;fill:#ccc;fill-opacity:1" d="M41.918 7.719a.44.44 0 1 1-.884 0 .44.44 0 0 1 .884 0zm0 0"/><path style="stroke:none;fill-rule:nonzero;fill:#fff;fill-opacity:1" d="M41.504 7.598a.148.148 0 0 1-.149.148.147.147 0 1 1 .148-.148zm0 0"/><path style="stroke:none;fill-rule:nonzero;fill:#666;fill-opacity:1" d="M45.703 8.422a1.384 1.384 0 1 1-2.766 0 1.383 1.383 0 0 1 2.766 0zm0 0"/><path style="stroke:none;fill-rule:nonzero;fill:#666;fill-opacity:1" d="M45.703 8.422a1.384 1.384 0 1 1-2.766 0 1.383 1.383 0 0 1 2.766 0zm0 0"/><path style="stroke:none;fill-rule:nonzero;fill:#ccc;fill-opacity:1" d="M45.297 8.422a.977.977 0 1 1-1.954 0 .977.977 0 0 1 1.954 0zm0 0"/><path style="stroke:none;fill-rule:nonzero;fill:#fff;fill-opacity:1" d="M44.383 8.16a.327.327 0 0 1-.653 0c0-.18.145-.328.325-.328a.33.33 0 0 1 .328.328zm0 0"/><path style="stroke:none;fill-rule:nonzero;fill:#4d4d4d;fill-opacity:1" d="M27.383 54.871h9.867c.402 0 .73.445.73.996v1.086c0 .55-.328.996-.73.996h-9.867c-.403 0-.73-.445-.73-.996v-1.086c0-.55.327-.996.73-.996zm0 0"/><path style="stroke:none;fill-rule:nonzero;fill:#999;fill-opacity:1" d="M27.578 55.055h9.48c.387 0 .704.394.704.875v.96c0 .481-.317.876-.703.876h-9.48c-.392 0-.708-.395-.708-.875v-.961c0-.48.317-.875.707-.875zm0 0"/><path style="stroke:none;fill-rule:nonzero;fill:#ececec;fill-opacity:1" d="M27.77 55.352h9.093c.375 0 .676.304.676.683v.75c0 .38-.3.684-.676.684H27.77a.678.678 0 0 1-.676-.684v-.75c0-.379.3-.683.676-.683zm0 0"/><path style="stroke:none;fill-rule:nonzero;fill:#003380;fill-opacity:1" d="M19.656 12.867h24.688v40.446H19.656zm0 0"/></svg>