<svg xmlns="http://www.w3.org/2000/svg" width="64" height="64"><path style="fill-rule:nonzero;fill:#fff;fill-opacity:1;stroke-width:18.591999;stroke-linecap:butt;stroke-linejoin:miter;stroke:#979797;stroke-opacity:1;stroke-miterlimit:4" d="M81.469 25.094H430.53c31.125 0 56.375 25.25 56.375 56.375V430.53c0 31.125-25.25 56.375-56.375 56.375H81.47c-31.125 0-56.375-25.25-56.375-56.375V81.47c0-31.125 25.25-56.375 56.375-56.375zm0 0" transform="scale(.125)"/><path style="stroke:none;fill-rule:nonzero;fill:#4d4d4d;fill-opacity:1" d="M9.79 11.762h41.94a3.544 3.544 0 0 1 3.547 3.547v30.574a3.547 3.547 0 0 1-3.547 3.547H9.79a3.55 3.55 0 0 1-3.548-3.547V15.309a3.547 3.547 0 0 1 3.547-3.547zm0 0"/><path style="stroke:none;fill-rule:nonzero;fill:#e6e6e6;fill-opacity:1" d="M15.934 14.137h33.894c1.582 0 2.867 1.386 2.867 3.101v26.715c0 1.711-1.285 3.102-2.867 3.102H15.934c-1.582 0-2.868-1.39-2.868-3.102V17.238c0-1.715 1.286-3.101 2.868-3.101zm0 0"/><path style="stroke:none;fill-rule:nonzero;fill:#fff;fill-opacity:1" d="M10.996 30.594a1.772 1.772 0 1 1-3.544.002 1.772 1.772 0 0 1 3.544-.002zm0 0"/><path style="stroke:none;fill-rule:nonzero;fill:#333;fill-opacity:1" d="M57.207 21.84c-.332-.332-1.164-.02-1.883.7l-3.578 3.585-8.883 8.883-13.015 13.02-1.856 4.98 4.98-1.856 13.016-13.02 6.43-6.429 2.457-2.453 3.582-3.574c.723-.723 1.035-1.555.703-1.883l-1.953-1.957zm0 0"/></svg>