<svg xmlns="http://www.w3.org/2000/svg" width="64" height="64"><path style="fill-rule:nonzero;fill:#fff;fill-opacity:1;stroke-width:7.598406;stroke-linecap:butt;stroke-linejoin:miter;stroke:#909090;stroke-opacity:1;stroke-miterlimit:4" d="M20.695 167.032h94.076c8.393 0 15.197 6.804 15.197 15.197v94.076c0 8.392-6.804 15.197-15.197 15.197H20.695c-8.392 0-15.197-6.805-15.197-15.197v-94.076c0-8.393 6.805-15.197 15.197-15.197zm0 0" transform="translate(0 -76.315) scale(.47244)"/><path style="stroke:none;fill-rule:evenodd;fill:#4d4d4d;fill-opacity:1" d="M21.383 8.316h21.234c.008 0 .012.004.016.004s.008 0 .012.004c0 0 .003 0 .007.004.004 0 .008.004.008.008.004 0 .008.004.008.008.004 0 .004.004.008.008 0 .003 0 .007.004.011v.012c.468 2.035 1.75 3.844 2.105 5.906.336 1.938 0 5.906 0 5.906v35.454c-.004 0-.004.004-.004.007-.004.004-.004.008-.008.012l-.007.008s-.004.004-.008.004c-.004.004-.008.004-.012.008h-.008c-.004.004-.011.004-.015.004H19.277c-.004 0-.007 0-.015-.004h-.008c-.004-.004-.008-.004-.012-.008-.004 0-.008-.004-.008-.004l-.007-.008c-.004-.004-.004-.008-.008-.012 0-.003 0-.007-.004-.007V20.188s-.336-3.97 0-5.907c.355-2.062 2.105-5.906 2.105-5.906v-.012c.004-.004.004-.008.004-.011.004-.004.004-.008.008-.008 0-.004.004-.008.008-.008 0-.004.004-.008.008-.008.004-.004.007-.004.007-.004.004-.004.008-.004.012-.004s.008-.004.016-.004zm0 0"/><path style="stroke:none;fill-rule:evenodd;fill:#0fa15f;fill-opacity:1" d="M25.348 16.156h13.304a1.37 1.37 0 0 1 1.371 1.371v.594c0 .754-.613 1.371-1.37 1.371H25.347a1.373 1.373 0 0 1-1.371-1.37v-.595a1.37 1.37 0 0 1 1.37-1.37zm0 0"/><path style="stroke:none;fill-rule:evenodd;fill:#999;fill-opacity:1" d="M34.203 46.484A2.206 2.206 0 0 1 32 48.687a2.206 2.206 0 0 1-2.203-2.203c0-1.214.988-2.203 2.203-2.203 1.215 0 2.203.989 2.203 2.203zm0 0"/><path style="stroke:none;fill-rule:nonzero;fill:#fff;fill-opacity:1" d="M30.516 49.766h.53v1.023a.897.897 0 0 1-.046.29.58.58 0 0 1-.152.233.6.6 0 0 1-.211.145 1.144 1.144 0 0 1-.371.055 2.27 2.27 0 0 1-.274-.016.704.704 0 0 1-.246-.07.654.654 0 0 1-.183-.149.514.514 0 0 1-.114-.199 1.1 1.1 0 0 1-.05-.289v-1.023h.53v1.047c0 .093.028.167.079.222.05.05.125.078.215.078a.29.29 0 0 0 .215-.078c.054-.055.078-.125.078-.222zm.882 0h.883c.192 0 .336.043.43.136.098.09.144.223.144.391 0 .172-.05.309-.156.406-.105.098-.265.145-.476.145h-.293v.636h-.532zm.532.73h.133c.101 0 .171-.016.214-.05a.189.189 0 0 0 .008-.273c-.035-.04-.105-.06-.203-.06h-.152zm1.113.418.504-.031a.378.378 0 0 0 .066.187.28.28 0 0 0 .235.106.27.27 0 0 0 .175-.055.17.17 0 0 0 .063-.125.156.156 0 0 0-.059-.117c-.039-.035-.132-.07-.273-.102-.234-.05-.399-.12-.496-.207a.419.419 0 0 1-.153-.332.45.45 0 0 1 .079-.25.5.5 0 0 1 .23-.183c.102-.047.242-.07.422-.07.219 0 .387.042.5.124.117.082.187.211.207.387l-.5.031a.257.257 0 0 0-.086-.168c-.039-.035-.098-.054-.176-.054a.228.228 0 0 0-.136.039.124.124 0 0 0-.047.097c0 .028.011.051.039.075.023.02.082.043.175.062.235.05.399.102.5.152a.539.539 0 0 1 .22.188.52.52 0 0 1-.023.559.574.574 0 0 1-.255.214c-.11.047-.25.07-.414.07-.293 0-.496-.054-.606-.167a.654.654 0 0 1-.191-.43zm0 0"/><path style="stroke:none;fill-rule:evenodd;fill:#f2f2f2;fill-opacity:1" d="M33.563 46.484a1.562 1.562 0 1 1-3.125.001 1.562 1.562 0 0 1 3.125 0zm0 0"/><path style="stroke:none;fill-rule:nonzero;fill:#0f0;fill-opacity:1" d="M29.871 30.34h4.258c.2 0 .36.25.36.558v.418c0 .305-.16.555-.36.555H29.87c-.2 0-.36-.25-.36-.555v-.418c0-.308.16-.558.36-.558zm0 0"/><path style="stroke:none;fill-rule:nonzero;fill:red;fill-opacity:1" d="M29.871 32.637h4.258c.2 0 .36.25.36.558v.418c0 .309-.16.559-.36.559H29.87c-.2 0-.36-.25-.36-.559v-.418c0-.308.16-.558.36-.558zm0 0"/><path style="stroke:none;fill-rule:nonzero;fill:#f60;fill-opacity:1" d="M29.871 34.742h4.258c.2 0 .36.25.36.559v.418c0 .308-.16.558-.36.558H29.87c-.2 0-.36-.25-.36-.558V35.3c0-.309.16-.559.36-.559zm0 0"/><path style="stroke:none;fill-rule:nonzero;fill:#fff;fill-opacity:1" d="M21.945 14.18h19.657c1.062 0 1.925.066 1.925.152 0 .082-.863.152-1.925.152H21.945c-1.066 0-1.925-.07-1.925-.152 0-.086.859-.152 1.925-.152zm0 0"/></svg>