<svg xmlns="http://www.w3.org/2000/svg" width="22" height="22"><path style="fill-rule:nonzero;fill:#fff;fill-opacity:1;stroke-width:7.459075;stroke-linecap:butt;stroke-linejoin:miter;stroke:#000506;stroke-opacity:1;stroke-miterlimit:4" d="M-180.36 209.21h92.364c8.226 0 14.913 6.687 14.913 14.913v92.364c0 8.226-6.687 14.913-14.913 14.913h-92.364c-8.226 0-14.913-6.687-14.913-14.913v-92.364c0-8.226 6.687-14.913 14.913-14.913zm0 0" transform="translate(32.79 -32.898) scale(.1624)"/><path style="stroke:none;fill-rule:evenodd;fill:#000;fill-opacity:1" d="M6.543 5.012a1.526 1.526 0 1 1-3.052.002 1.526 1.526 0 0 1 3.052-.002zm0 0"/><path style="stroke:none;fill-rule:evenodd;fill:#000;fill-opacity:1" d="M19.469 11c0 4.68-3.79 8.469-8.469 8.469A8.466 8.466 0 0 1 2.531 11c0-4.68 3.79-8.469 8.469-8.469 4.68 0 8.469 3.79 8.469 8.469zm0 0"/><path style="stroke:none;fill-rule:evenodd;fill:#000;fill-opacity:1" d="M18.46 5.012a1.527 1.527 0 1 1-3.054 0c0-.844.684-1.524 1.528-1.524.843 0 1.527.68 1.527 1.524zm0 11.957a1.527 1.527 0 1 1-3.054 0c0-.844.684-1.524 1.528-1.524.843 0 1.527.68 1.527 1.524zm-11.917 0a1.526 1.526 0 1 1-3.052.002 1.526 1.526 0 0 1 3.052-.002zm0 0"/><path style="stroke:none;fill-rule:evenodd;fill:#f9de69;fill-opacity:1" d="M18.059 11a7.058 7.058 0 1 1-14.117 0 7.058 7.058 0 0 1 14.117 0zm0 0"/><path style="stroke:none;fill-rule:evenodd;fill:#ccc;fill-opacity:1" d="M14.66 11c0 2.02-1.64 3.66-3.66 3.66-2.02 0-3.66-1.64-3.66-3.66 0-2.02 1.64-3.66 3.66-3.66 2.02 0 3.66 1.64 3.66 3.66zm0 0"/><path style="stroke:none;fill-rule:evenodd;fill:#f9f9f9;fill-opacity:1" d="M12.563 11a1.562 1.562 0 1 1-3.125 0 1.562 1.562 0 0 1 3.124 0zm0 0"/></svg>