<svg xmlns="http://www.w3.org/2000/svg" width="22" height="22"><path style="fill-rule:nonzero;fill:#fff;fill-opacity:1;stroke-width:18.73;stroke-linecap:butt;stroke-linejoin:miter;stroke:#0093b8;stroke-opacity:1;stroke-miterlimit:4" d="M78.636 31h354.728C459.636 31 481 52.364 481 78.636v354.728C481 459.636 459.636 481 433.364 481H78.636C52.364 481 31 459.636 31 433.364V78.636C31 52.364 52.364 31 78.636 31zm0 0" transform="rotate(.428) scale(.04297)"/><path style="stroke:none;fill-rule:nonzero;fill:#333;fill-opacity:1" d="M11 4.191a6.353 6.353 0 0 0-6.355 6.356v2.27a.453.453 0 0 0 .906 0v-2.27A5.451 5.451 0 0 1 11 5.097a5.451 5.451 0 0 1 5.45 5.45v2.27a.453.453 0 0 0 .905 0v-2.27A6.353 6.353 0 0 0 11 4.19zm0 0"/><path style="stroke:none;fill-rule:evenodd;fill:#0cf;fill-opacity:1" d="M5.324 11.906c-1.379 0-1.586 1.121-1.586 2.496 0 1.38.207 2.5 1.586 2.5 1.38 0 .684-1.12.684-2.5 0-1.375.695-2.496-.684-2.496zm11.489 0c-1.305 0-.645 1.121-.645 2.496 0 1.38-.66 2.5.645 2.5 1.3 0 1.449-1.12 1.449-2.5 0-1.375-.149-2.496-1.45-2.496zm0 0"/><path style="stroke:none;fill-rule:evenodd;fill:#000;fill-opacity:1" d="M6.46 11c-.753 0-1.362.61-1.362 1.363v4.082a1.362 1.362 0 1 0 2.722 0v-4.082C7.82 11.61 7.21 11 6.46 11zm9.08 0c-.75 0-1.36.61-1.36 1.363v4.082a1.361 1.361 0 1 0 2.722 0v-4.082c0-.754-.609-1.363-1.363-1.363zm0 0"/></svg>