<svg xmlns="http://www.w3.org/2000/svg" width="22" height="22"><path style="fill-rule:nonzero;fill:#fff;fill-opacity:1;stroke-width:18.73;stroke-linecap:butt;stroke-linejoin:miter;stroke:#0093b8;stroke-opacity:1;stroke-miterlimit:4" d="M78.636 31h354.728C459.636 31 481 52.364 481 78.636v354.728C481 459.636 459.636 481 433.364 481H78.636C52.364 481 31 459.636 31 433.364V78.636C31 52.364 52.364 31 78.636 31zm0 0" transform="rotate(.428) scale(.04297)"/><path style="stroke:none;fill-rule:evenodd;fill:#c4cbcf;fill-opacity:1" d="m10.988 6.383-2.304-1.48 2.129-1.544 2.304 1.477zm0 0"/><path style="stroke:none;fill-rule:evenodd;fill:#f9de69;fill-opacity:1" d="M9.184 9.379V5.57h3.433v3.81zm0 0"/><path style="stroke:none;fill-rule:evenodd;fill:#c4cbcf;fill-opacity:1" d="M8.535 15.168V9.371h4.73v5.797zm0-6.898V6.668h4.73V8.27zm0 0"/><path style="stroke:none;fill-rule:evenodd;fill:#34495e;fill-opacity:1" d="M7.453 18.64v-3.51h7.094v3.512zm0 0"/></svg>