<svg xmlns="http://www.w3.org/2000/svg" width="22" height="22"><path style="fill-rule:nonzero;fill:#fff;fill-opacity:1;stroke-width:28.191782;stroke-linecap:butt;stroke-linejoin:miter;stroke:#223656;stroke-opacity:1;stroke-miterlimit:4" d="M81.455 25.09h349.09c31.091 0 56.364 25.274 56.364 56.365v349.09c0 31.091-25.273 56.364-56.364 56.364H81.455c-31.091 0-56.364-25.273-56.364-56.364V81.455c0-31.091 25.273-56.364 56.364-56.364zm0 0" transform="rotate(.428) scale(.04297)"/><path style="stroke:none;fill-rule:evenodd;fill:#223656;fill-opacity:1" d="M11.004 2.738c1.254 0 2.27 1.285 2.27 2.875v4.871c0 1.59-1.016 2.875-2.27 2.875s-2.27-1.285-2.27-2.875v-4.87c0-1.59 1.016-2.876 2.27-2.876zm0 0"/><path style="stroke:none;fill-rule:evenodd;fill:#223656;fill-opacity:1" d="m7.586 11.043-1.422.008c.125 2.945 2.066 4.597 4.18 4.886v1.895a4.209 4.209 0 0 0-2.492 1.41l6.328.02a4.042 4.042 0 0 0-2.383-1.418v-1.926c2.023-.324 3.86-1.926 4.039-4.867l-1.445-.008c-.243 4.598-6.532 4.629-6.805 0zm0 0"/></svg>