<svg xmlns="http://www.w3.org/2000/svg" width="22" height="22"><path style="fill-rule:nonzero;fill:#58785b;fill-opacity:1;stroke-width:18.73;stroke-linecap:butt;stroke-linejoin:miter;stroke:#3f5641;stroke-opacity:1;stroke-miterlimit:4" d="M78.636 31h354.728C459.636 31 481 52.364 481 78.636v354.728C481 459.636 459.636 481 433.364 481H78.636C52.364 481 31 459.636 31 433.364V78.636C31 52.364 52.364 31 78.636 31zm0 0" transform="rotate(.428) scale(.04297)"/><path style="stroke:none;fill-rule:nonzero;fill:#fff;fill-opacity:1" d="M14.523 4.941h.86c.383 0 .691.297.691.664v.383a.677.677 0 0 1-.691.664h-.86a.677.677 0 0 1-.691-.664v-.383c0-.367.309-.664.691-.664zm0 2.493h.86c.383 0 .691.296.691.664v.382a.677.677 0 0 1-.691.665h-.86a.677.677 0 0 1-.691-.665v-.382c0-.368.309-.664.691-.664zm0 2.664h.86c.383 0 .691.297.691.664v.383a.677.677 0 0 1-.691.664h-.86a.677.677 0 0 1-.691-.664v-.383c0-.367.309-.664.691-.664zm0 2.492h.86c.383 0 .691.297.691.664v.383a.677.677 0 0 1-.691.664h-.86a.677.677 0 0 1-.691-.664v-.383c0-.367.309-.664.691-.664zm0 2.578h.86c.383 0 .691.297.691.664v.383a.677.677 0 0 1-.691.664h-.86a.677.677 0 0 1-.691-.664v-.383c0-.367.309-.664.691-.664zM6.617 4.941h.86c.382 0 .691.297.691.664v.383a.677.677 0 0 1-.691.664h-.86a.677.677 0 0 1-.691-.664v-.383c0-.367.308-.664.691-.664zm0 2.493h.86c.382 0 .691.296.691.664v.382a.677.677 0 0 1-.691.665h-.86a.677.677 0 0 1-.691-.665v-.382c0-.368.308-.664.691-.664zm0 2.664h.86c.382 0 .691.297.691.664v.383a.677.677 0 0 1-.691.664h-.86a.677.677 0 0 1-.691-.664v-.383c0-.367.308-.664.691-.664zm0 2.492h.86c.382 0 .691.297.691.664v.383a.677.677 0 0 1-.691.664h-.86a.677.677 0 0 1-.691-.664v-.383c0-.367.308-.664.691-.664zm0 2.578h.86c.382 0 .691.297.691.664v.383a.677.677 0 0 1-.691.664h-.86a.677.677 0 0 1-.691-.664v-.383c0-.367.308-.664.691-.664zm0 0"/><path style="stroke:none;fill-rule:nonzero;fill:#49494c;fill-opacity:1" d="M13.89 18.574a1.737 1.737 0 0 1-.35.14c-.24.06-5.286.009-5.474-.05-.238-.078-.523-.332-.668-.598-.117-.207-.128-.289-.117-.761.008-.293.012-.844.012-1.227-.004-.383-.004-.941-.004-1.238.004-.297.004-.871.004-1.27V9.727c0-.301.008-.868.016-1.262.011-.39.003-.727-.016-.746-.02-.016-.027-.27-.016-.563.024-.707.024-1.926 0-2.386-.035-.649.18-1.082.668-1.348.223-.125.29-.129 2.89-.152 2.966-.028 2.935-.032 3.321.355.278.273.364.531.367 1.074 0 .239-.011.453-.03.469-.032.031-.024.695.019 1.988.008.293 0 .547-.02.563-.015.02-.023.363-.015.761.011.403.02.957.02 1.239-.005.277-.005.851-.005 1.27v3.827c0 1.696.004 2.149.012 2.485.012.586-.211 1.047-.613 1.273zm0 0"/><path style="stroke:none;fill-rule:nonzero;fill:#ccc;fill-opacity:1" d="M13.668 17.727a.525.525 0 0 1-.527.527.528.528 0 1 1 .527-.527zM10.602 3.348h.593v1.191h-.593zm0 0"/><path style="stroke:none;fill-rule:nonzero;fill:#fff;fill-opacity:1" d="M9.035 13.273c-.039-.039-.047-.117-.047-.351 0-.262.008-.317.063-.395.054-.078.082-.09.191-.082.117.008.125.016.133.11.008.054-.004.097-.023.097-.016 0-.059.028-.09.063-.051.047-.063.101-.063.285 0 .121-.008.246-.02.273-.023.059-.081.059-.144 0zm3.781.027c-.027-.01-.039-.097-.039-.273 0-.25-.004-.261-.09-.343-.097-.09-.113-.149-.054-.207.066-.063.195-.043.265.046.059.07.063.114.055.43-.008.36-.023.395-.137.348zm0 0"/><path style="stroke:none;fill-rule:nonzero;fill:#fff;fill-opacity:1" d="M8.707 13.059c-.012-.012-.023-.168-.023-.344v-.32l.132-.141.137-.145.176.016c.238.023.258.031.246.11-.008.058-.031.074-.152.085a.405.405 0 0 0-.243.106c-.054.05-.105.094-.113.101a1.356 1.356 0 0 0-.031.274c-.012.203-.027.261-.063.27-.027.003-.054 0-.066-.012zm4.441-.028a.418.418 0 0 1-.011-.183c.023-.235-.016-.34-.153-.438a.432.432 0 0 0-.222-.09c-.11 0-.184-.066-.157-.136.016-.036.07-.047.23-.047h.212l.125.14c.148.172.156.2.144.528-.007.238-.011.258-.074.265a.093.093 0 0 1-.094-.039zm0 0"/><path style="stroke:none;fill-rule:nonzero;fill:#fff;fill-opacity:1" d="M8.387 12.828c-.024-.023-.035-.137-.035-.34v-.304l.199-.223.199-.219.586.016v.09c0 .093 0 .093-.195.101-.215.012-.235.024-.434.258-.117.137-.125.16-.14.395-.016.218-.028.25-.079.257a.133.133 0 0 1-.101-.03zm0 0"/><path style="stroke:none;fill-rule:nonzero;fill:#fff;fill-opacity:1" d="M9.54 12.828c-.028-.027-.036-.215-.036-.73 0-.649-.004-.7-.063-.77-.046-.062-.058-.125-.058-.273v-.196l-.29-.3-.288-.297V9.98c0-.156-.012-.304-.028-.324-.011-.023-.07-.05-.129-.062l-.101-.024v-.875h.137c.132 0 .136.004.168.117.02.07.058.13.09.141.03.012.07.07.09.137.038.144.116.16.132.031.012-.113.05-.16.137-.176.05-.008.07-.035.082-.129.015-.12.015-.12.148-.12.137 0 .137 0 .16.12.012.067.02.254.024.414 0 .32-.027.391-.164.391-.082 0-.11.063-.11.262 0 .14.102.289.407.586l.172.164v.262c0 .14.011.273.027.296.015.028.113.047.273.059l.246.016.22.238c.116.133.234.238.257.238.023 0 .152-.113.281-.25l.235-.25.21.008c.293.012.313-.008.313-.363v-.278l.285-.293c.278-.28.29-.3.29-.425 0-.204-.028-.27-.118-.29-.148-.035-.156-.054-.156-.468 0-.43.015-.465.187-.45.09.012.106.028.133.133.027.086.055.125.11.137.054.012.074.043.09.129.023.133.038.156.1.133.032-.012.048-.055.048-.121 0-.09.015-.11.09-.137.074-.023.09-.05.097-.145.008-.109.016-.117.114-.128.164-.016.183.039.183.48 0 .402-.015.457-.137.457-.085 0-.105.066-.105.406v.274l-.277.261-.278.266-.02.203c-.015.203-.019.207-.113.235-.09.023-.097.03-.113.195l-.027.223c-.004.035-.067.046-.309.054-.168.004-.312.016-.324.028-.027.03-.043.757-.012.789.012.011.157.027.317.039l.293.011.008.13.011.128h-.469c-.34 0-.476-.008-.5-.035-.015-.023-.035-.191-.043-.379a1.733 1.733 0 0 0-.03-.36c-.012-.01-.087.048-.16.134-.079.086-.165.156-.192.156-.024 0-.11-.066-.188-.152-.078-.082-.156-.149-.176-.149-.023 0-.035.117-.043.387l-.007.387-.207.007c-.125.004-.227-.004-.25-.027-.024-.016-.043-.09-.051-.16-.008-.102-.024-.133-.09-.164s-.086-.063-.086-.14c0-.126-.07-.196-.133-.141-.035.027-.047.117-.054.332l-.008.293-.094.007c-.047.004-.105-.007-.129-.03zm0 0"/><path style="stroke:none;fill-rule:nonzero;fill:#fff;fill-opacity:1" d="M10.105 11.813c-.011-.063-.226-.094-.28-.04-.048.047.03.09.171.09.098 0 .117-.008.11-.05zm3.348 1.031c-.027-.008-.039-.09-.039-.246 0-.227 0-.239-.121-.387-.184-.223-.23-.254-.39-.258-.22-.004-.29-.035-.29-.121 0-.074.004-.074.29-.082l.292-.008.203.227c.11.129.2.246.2.27 0 .019.007.148.02.284.023.301-.02.38-.165.32zm-5.387-.211c-.011-.012-.02-.168-.02-.348v-.328l.235-.273.235-.278.425.012.426.008v.074c0 .074 0 .074-.355.09a2.44 2.44 0 0 0-.367.031c-.262.293-.387.473-.387.563 0 .05-.008.18-.02.28-.015.169-.023.188-.086.188-.035 0-.074-.007-.086-.02zm0 0"/><path style="stroke:none;fill-rule:nonzero;fill:#fff;fill-opacity:1" d="M13.738 12.633a1.323 1.323 0 0 1-.02-.301v-.281l-.183-.211a1.517 1.517 0 0 0-.226-.23 1.59 1.59 0 0 0-.313-.02c-.351 0-.406-.016-.394-.117.011-.086-.04-.082.539-.07l.296.007.247.29c.136.16.25.32.25.355.004.039.007.148.015.25.016.277-.008.347-.105.347-.047 0-.094-.007-.106-.02zm-3.148-1.617c-.067-.016-.07-.036-.078-.29-.008-.242-.02-.28-.086-.347a.452.452 0 0 1-.094-.176c-.016-.078-.004-.11.074-.187.051-.051.114-.094.14-.094.095 0 .224.09.259.18.047.109.02.203-.078.308-.067.07-.075.106-.067.258l.012.18h.758l.008-.192c.007-.168 0-.203-.067-.281-.117-.137-.117-.277.004-.387.098-.09.234-.07.336.043.086.102.086.23-.008.34-.066.082-.078.121-.078.328 0 .133-.012.258-.027.281-.02.032-.133.043-.48.047-.255 0-.49-.004-.528-.011zm0 0"/></svg>