<svg xmlns="http://www.w3.org/2000/svg" width="22" height="22"><path style="fill-rule:nonzero;fill:#fff;fill-opacity:1;stroke-width:27.200571;stroke-linecap:butt;stroke-linejoin:miter;stroke:#4eaa07;stroke-opacity:1;stroke-miterlimit:4" d="M81.758-39.445h336.727c30.09 0 54.455 24.364 54.455 54.455v336.727c0 30.09-24.364 54.455-54.455 54.455H81.758c-30.091 0-54.455-24.364-54.455-54.455V15.01c0-30.091 24.364-54.455 54.455-54.455zm0 0" transform="translate(.253 3.12) scale(.04297)"/><path style="stroke:none;fill-rule:nonzero;fill:#fff;fill-opacity:1" d="M8.078 2.91c-.328 0-.594.18-.594.399v.949H5.32c-.468 0-.847.254-.847.566v13.7c0 .312.379.566.847.566h11.36c.468 0 .847-.254.847-.567V4.824c0-.312-.379-.566-.847-.566h-2.164v-.95c0-.218-.266-.398-.594-.398zm0 0"/><path style="stroke:none;fill-rule:nonzero;fill:#2ca05a;fill-opacity:1" d="M8.676 3.387c-.262 0-.473.14-.473.316v.977c0 .004 0 .008.004.011H5.883c-.422 0-.762.239-.762.532v12.902c0 .293.34.531.762.531h10.234c.422 0 .762-.238.762-.531V5.223c0-.293-.34-.532-.762-.532h-2.324c.004-.003.004-.007.004-.011v-.977c0-.176-.211-.316-.473-.316zm0 0"/><path style="stroke:none;fill-rule:evenodd;fill:#fff;fill-opacity:1" d="M11.063 6.91 7.66 12.617h3.402v3.809l3.399-5.711h-3.399zm0 0"/></svg>