<svg xmlns="http://www.w3.org/2000/svg" width="22" height="22"><path style="fill-rule:nonzero;fill:#fff;fill-opacity:1;stroke-width:28.191782;stroke-linecap:butt;stroke-linejoin:miter;stroke:#25aedf;stroke-opacity:1;stroke-miterlimit:4" d="M81.455 25.09h349.09c31.091 0 56.364 25.274 56.364 56.365v349.09c0 31.091-25.273 56.364-56.364 56.364H81.455c-31.091 0-56.364-25.273-56.364-56.364V81.455c0-31.091 25.273-56.364 56.364-56.364zm0 0" transform="rotate(.428) scale(.04297)"/><path style="stroke:none;fill-rule:nonzero;fill:#25aedf;fill-opacity:1" d="m6.438 7.488 3.421 3.461-3.421 3.457 1.09 1.098 2.843-2.813v6.602l5.191-4.895-3.148-3.449 3.14-3.445-5.156-4.797-.023 6.57-2.844-2.882zm5.5-1.547 1.574 1.5-1.575 1.946zm0 6.903 1.578 1.613-1.575 1.5zm0 0"/></svg>