<svg xmlns="http://www.w3.org/2000/svg" xmlns:xlink="http://www.w3.org/1999/xlink" width="22" height="22"><defs><clipPath id="c"><path d="M0 0h22v22H0z"/></clipPath><clipPath id="b"><path d="M0 0h22v22H0z"/></clipPath><clipPath id="h"><path d="M0 0h22v22H0z"/></clipPath><clipPath id="d"><path d="M0 0h22v22H0z"/></clipPath><clipPath id="f"><path d="M0 0h22v22H0z"/></clipPath><mask id="n"><g filter="url(#a)"><path style="fill:#000;fill-opacity:.8;stroke:none" d="M0 0h22v22H0z"/></g></mask><mask id="t"><g filter="url(#a)"><path style="fill:#000;fill-opacity:.8;stroke:none" d="M0 0h22v22H0z"/></g></mask><mask id="p"><g filter="url(#a)"><path style="fill:#000;fill-opacity:.6;stroke:none" d="M0 0h22v22H0z"/></g></mask><mask id="k"><g filter="url(#a)"><path style="fill:#000;fill-opacity:.8;stroke:none" d="M0 0h22v22H0z"/></g></mask><mask id="r"><g filter="url(#a)"><path style="fill:#000;fill-opacity:.6;stroke:none" d="M0 0h22v22H0z"/></g></mask><g id="j" clip-path="url(#b)"><path style="stroke:none;fill-rule:nonzero;fill:#aab3be;fill-opacity:1" d="M2.184 8.754h17.632v4.855H2.184zm0 0"/></g><g id="o" clip-path="url(#c)"><path style="stroke:none;fill-rule:nonzero;fill:#26282a;fill-opacity:1" d="M14.188 8.738c-1.649-.066-3 1.711-2.602 3.29.238 1.011 1.148 1.765 2.156 1.925.961.192 2.02-.207 2.567-1.023.777-1.11.593-2.871-.567-3.645-.445-.332-.992-.558-1.555-.547zm0 0"/></g><g id="m" clip-path="url(#d)"><path style="stroke:none;fill-rule:nonzero;fill:url(#e)" d="M10.781 11.379a3.38 3.38 0 1 0 6.762-.004 3.38 3.38 0 0 0-6.762.004zm0 0"/></g><g id="q" clip-path="url(#f)"><path style="stroke:none;fill-rule:nonzero;fill:url(#g)" d="M14.09 9.078c-1.578.004-2.75 1.961-1.996 3.352.652 1.261 2.582 1.656 3.629.668 1.05-.946.933-2.907-.301-3.633a2.338 2.338 0 0 0-1.332-.387zm0 0"/></g><g id="s" clip-path="url(#h)"><path style="fill-rule:nonzero;fill:#d41a1a;fill-opacity:1;stroke-width:1.016941;stroke-linecap:butt;stroke-linejoin:miter;stroke:url(#i);stroke-miterlimit:4" d="M399.364 163.545c0-3.636 1.727-7 4.363-9.272.91-.818 2-1.455 3.091-2 1.637-.728 3.364-1.091 5.273-1.091 1.818 0 3.636.363 5.273 1.09 1.09.546 2.181 1.183 3.09 2 2.637 2.273 4.364 5.637 4.364 9.273 0 6.91-5.727 12.455-12.727 12.455s-12.727-5.545-12.727-12.455zm0 0" transform="rotate(.428) scale(.04297)"/></g><radialGradient id="g" gradientUnits="userSpaceOnUse" cx="297.172" cy="131.448" fx="297.172" fy="131.448" r="69.473" gradientTransform="matrix(.03788 0 0 .03789 1.651 5.292)"><stop offset="0" style="stop-color:#646464;stop-opacity:1"/><stop offset="1" style="stop-color:#4d4d4d;stop-opacity:1"/></radialGradient><radialGradient id="e" gradientUnits="userSpaceOnUse" cx="290.603" cy="111.369" fx="290.603" fy="111.369" r="89.267" gradientTransform="matrix(.03489 .04153 -.029 .02437 5.697 -5.033)"><stop offset="0" style="stop-color:#828996;stop-opacity:1"/><stop offset="1" style="stop-color:#5a5c64;stop-opacity:1"/></radialGradient><linearGradient id="i" gradientUnits="userSpaceOnUse" x1="272.797" y1="91.316" x2="397.094" y2="220.285" gradientTransform="matrix(.10522 0 0 .1027 377.37 147.093)"><stop offset="0" style="stop-color:#f55;stop-opacity:1"/><stop offset="1" style="stop-color:#ff0505;stop-opacity:1"/></linearGradient><linearGradient id="l" gradientUnits="userSpaceOnUse" x1="272.797" y1="91.316" x2="397.094" y2="220.285" gradientTransform="translate(38.43 123.193) scale(.88158)"><stop offset="0" style="stop-color:#fff;stop-opacity:1"/><stop offset="1" style="stop-color:#828282;stop-opacity:1"/></linearGradient><filter id="a" filterUnits="objectBoundingBox" x="0%" y="0%" width="100%" height="100%"><feColorMatrix in="SourceGraphic" values="0 0 0 0 1 0 0 0 0 1 0 0 0 0 1 0 0 0 1 0"/></filter></defs><path style="fill-rule:nonzero;fill:#fff;fill-opacity:1;stroke-width:18.73;stroke-linecap:butt;stroke-linejoin:miter;stroke:#707c8a;stroke-opacity:1;stroke-miterlimit:4" d="M78.636 31h354.728C459.636 31 481 52.364 481 78.636v354.728C481 459.636 459.636 481 433.364 481H78.636C52.364 481 31 459.636 31 433.364V78.636C31 52.364 52.364 31 78.636 31zm0 0" transform="rotate(.428) scale(.04297)"/><path style="stroke:none;fill-rule:nonzero;fill:#333;fill-opacity:1" d="M5.113 4.832h3.114c.128 0 .234.106.234.23v.399c0 .129-.106.23-.234.23H5.113a.228.228 0 0 1-.23-.23v-.399a.23.23 0 0 1 .23-.23zm0 0"/><path style="stroke:none;fill-rule:nonzero;fill:#707c8a;fill-opacity:1" d="M3.86 5.453c-2.036 0-1.676 1.067-1.676 2.387v6.687c0 1.32-.164 2.387 1.87 2.387h13.657c2.035 0 2.105-1.066 2.105-2.387V7.84c0-1.32.403-2.387-1.632-2.387zm0 0"/><use xlink:href="#j" mask="url(#k)"/><path style="fill-rule:nonzero;fill:#ececec;fill-opacity:1;stroke-width:2.644728;stroke-linecap:butt;stroke-linejoin:miter;stroke:url(#l);stroke-miterlimit:4" d="M250.91 264.818c0 43.455 35.272 78.637 78.726 78.637 43.455 0 78.637-35.182 78.637-78.637 0-43.545-35.182-78.727-78.637-78.727-43.454 0-78.727 35.182-78.727 78.727zm-28.092 0c0-31.909 14.091-60.545 36.364-80.09 7.818-6.819 16.545-12.546 26.182-16.91a105.778 105.778 0 0 1 43.909-9.545c15.636 0 30.545 3.454 43.909 9.545a108.531 108.531 0 0 1 26.182 16.91c22.272 19.545 36.363 48.181 36.363 80.09 0 58.637-47.727 106.455-106.454 106.455-58.728 0-106.455-47.818-106.455-106.455zm0 0" transform="rotate(.428) scale(.04297)"/><use xlink:href="#m" mask="url(#n)"/><use xlink:href="#o" mask="url(#p)"/><use xlink:href="#q" mask="url(#r)"/><path style="stroke:none;fill-rule:nonzero;fill:#ccc;fill-opacity:1" d="M13.254 9.84a.759.759 0 1 1-1.517-.002.759.759 0 0 1 1.517.002zm0 0"/><use xlink:href="#s" mask="url(#t)"/></svg>