<svg xmlns="http://www.w3.org/2000/svg" width="22" height="22"><path style="fill-rule:nonzero;fill:#fff;fill-opacity:1;stroke-width:7.459076;stroke-linecap:butt;stroke-linejoin:miter;stroke:#25aedf;stroke-opacity:1;stroke-miterlimit:4" d="M21.552 168.172h92.363c8.226 0 14.913 6.687 14.913 14.913v92.363c0 8.227-6.687 14.913-14.913 14.913H21.552c-8.227 0-14.913-6.686-14.913-14.913v-92.363c0-8.226 6.686-14.913 14.913-14.913zm0 0" transform="translate(0 -26.233) scale(.1624)"/><path style="stroke:none;fill-rule:nonzero;fill:#2d2d2d;fill-opacity:1" d="M17.664 10.66a6.693 6.693 0 0 1-6.695 6.692 6.692 6.692 0 0 1-6.692-6.692 6.693 6.693 0 1 1 13.387 0zm0 0"/><path style="stroke:none;fill-rule:nonzero;fill:#2d2d2d;fill-opacity:1" d="M18.926 10.652A7.927 7.927 0 0 1 11 18.582a7.927 7.927 0 0 1-7.926-7.93A7.924 7.924 0 0 1 11 2.727a7.924 7.924 0 0 1 7.926 7.925zm0 0"/><path style="stroke:none;fill-rule:nonzero;fill:#173f7e;fill-opacity:1" d="M17.406 10.652a6.407 6.407 0 0 1-12.812 0 6.407 6.407 0 0 1 12.812 0zm0 0"/><path style="stroke:none;fill-rule:evenodd;fill:#2980b9;fill-opacity:1" d="M11.156 5.46a5.177 5.177 0 0 0-5.176 5.177 5.175 5.175 0 0 0 5.176 5.175 5.177 5.177 0 0 0 5.176-5.175 5.18 5.18 0 0 0-5.176-5.176zm.067 2.642a2.48 2.48 0 0 1 2.484 2.484 2.483 2.483 0 1 1-4.969 0 2.483 2.483 0 0 1 2.485-2.484zm0 0"/><path style="stroke:none;fill-rule:evenodd;fill:#bdc3c7;fill-opacity:1" d="M14.266 9.117c0-1-.817-1.816-1.817-1.816a1.815 1.815 0 1 0 1.816 1.816"/></svg>