<svg xmlns="http://www.w3.org/2000/svg" width="22" height="22"><path style="stroke:none;fill-rule:nonzero;fill:gray;fill-opacity:1" d="M4.2 3.332h13.593c.477 0 .863.387.863.863v9.973a.864.864 0 0 1-.863.863H4.199a.864.864 0 0 1-.863-.863V4.195c0-.476.387-.863.863-.863zm0 0"/><path style="stroke:none;fill-rule:nonzero;fill:#25aedf;fill-opacity:1" d="M4.77 4.426h12.453v9.508H4.77zm0 0"/><path style="stroke:none;fill-rule:nonzero;fill:gray;fill-opacity:1" d="M3.336 15.48h15.32l3.094 3.188H6.43zm0 0"/><path style="stroke:none;fill-rule:nonzero;fill:gray;fill-opacity:1" d="M18.664 15.48H3.344L.25 18.668h15.32zm0 0"/><path style="stroke:none;fill-rule:nonzero;fill:#fff;fill-opacity:1" d="M3.793 15.926h14.406v.187H3.793zm-.508.534h15.422v.188H3.285zm-.585.56h16.593v.187H2.699zm0 0"/><path style="stroke:none;fill-rule:nonzero;fill:#fff;fill-opacity:1" d="m18.117 16.02.11-.11 1.214 1.215-.109.113zm0 0"/><path style="stroke:none;fill-rule:nonzero;fill:#fff;fill-opacity:1" d="m18.117 16.02.11-.11 1.214 1.215-.109.113zm-1.227 0 .11-.11 1.215 1.215-.11.113zm-1.324 0 .114-.11 1.215 1.215-.11.113zm-1.242 0 .11-.11 1.218 1.215-.113.113zm-1.304 0 .113-.11 1.215 1.215-.11.113zm-1.563 0 .11-.11 1.214 1.215-.11.113zm-7.543 0-.113-.11-1.215 1.215.11.113zm0 0"/><path style="stroke:none;fill-rule:nonzero;fill:#fff;fill-opacity:1" d="m3.914 16.02-.113-.11-1.215 1.215.11.113zm1.226 0-.113-.11-1.215 1.215.11.113zm1.32 0-.108-.11-1.22 1.215.11.113zm1.247 0-.113-.11-1.215 1.215.11.113zm1.301 0-.11-.11-1.218 1.215.11.113zm1.566 0-.113-.11-1.215 1.215.11.113zm1.376 1.078.136-.07.805 1.523-.141.07zm-1.848 0-.141-.07-.8 1.523.14.07zm0 0"/><path style="stroke:none;fill-rule:nonzero;fill:#fff;fill-opacity:1" d="M9.2 18.46h3.6v.134H9.2zm.241-.48h3.121v.133h-3.12zm0 0"/><path style="stroke:none;fill-rule:nonzero;fill:#fff;fill-opacity:1" d="M11.11 18.074v.426h-.137v-.426zm0 0"/></svg>