<svg xmlns="http://www.w3.org/2000/svg" width="22" height="22"><path style="fill-rule:nonzero;fill:#fff;fill-opacity:1;stroke-width:28.191782;stroke-linecap:butt;stroke-linejoin:miter;stroke:#25aedf;stroke-opacity:1;stroke-miterlimit:4" d="M81.455 25.09h349.09c31.091 0 56.364 25.274 56.364 56.365v349.09c0 31.091-25.273 56.364-56.364 56.364H81.455c-31.091 0-56.364-25.273-56.364-56.364V81.455c0-31.091 25.273-56.364 56.364-56.364zm0 0" transform="rotate(.428) scale(.04297)"/><path style="stroke:none;fill-rule:evenodd;fill:gray;fill-opacity:1" d="m9.691 17.203-2.09 1.371h6.794l-2.09-1.37zm0 0"/><path style="stroke:none;fill-rule:evenodd;fill:gray;fill-opacity:1" d="m9.691 16.785-2.09 1.371h6.794l-2.09-1.37zm0 0"/><path style="stroke:none;fill-rule:nonzero;fill:#4d4d4d;fill-opacity:1" d="M9.547 14.27h2.906v3.234H9.547zm0 0"/><path style="stroke:none;fill-rule:nonzero;fill:gray;fill-opacity:1" d="M3.785 3.426h14.43c.504 0 .914.39.914.875v10.105c0 .485-.41.875-.914.875H3.785c-.504 0-.914-.39-.914-.875V4.301c0-.485.41-.875.914-.875zm0 0"/><path style="stroke:none;fill-rule:nonzero;fill:#25aedf;fill-opacity:1" d="M4.39 4.535h13.22v9.637H4.39zm0 0"/><path style="stroke:none;fill-rule:evenodd;fill:#000;fill-opacity:1" d="M7.602 18.156v.418h6.796v-.418zm0 0"/></svg>