<svg xmlns="http://www.w3.org/2000/svg" width="22" height="22"><defs><clipPath id="a"><path d="M11 10h5v5h-5zm0 0"/></clipPath><clipPath id="b"><path d="M13.223 6.535A4.445 4.445 0 0 0 7.148 8.16a4.451 4.451 0 0 0 1.63 6.078 4.45 4.45 0 0 0 6.074-1.629 4.446 4.446 0 0 0-1.63-6.074zm-1.618 2.8a1.21 1.21 0 0 1 .446 1.657 1.214 1.214 0 1 1-2.102-1.215 1.213 1.213 0 0 1 1.656-.441zm0 0"/></clipPath><clipPath id="c"><path d="M6 6h5v5H6zm0 0"/></clipPath><clipPath id="d"><path d="M8.793 14.277a4.444 4.444 0 0 0 6.074-1.625 4.444 4.444 0 0 0-1.625-6.074 4.444 4.444 0 0 0-6.074 1.625 4.444 4.444 0 0 0 1.625 6.074zm1.617-2.8a1.211 1.211 0 1 1 1.215-2.098 1.211 1.211 0 1 1-1.215 2.098zm0 0"/></clipPath></defs><path style="fill-rule:nonzero;fill:#ececec;fill-opacity:1;stroke-width:27.983692;stroke-linecap:butt;stroke-linejoin:miter;stroke:#25aedf;stroke-opacity:1;stroke-miterlimit:4" d="M82.727 26.818h346.546c30.909 0 55.909 25 55.909 55.91v346.545c0 30.909-25 55.909-55.91 55.909H82.728c-30.909 0-55.909-25-55.909-55.91V82.728c0-30.909 25-55.909 55.91-55.909zm0 0" transform="rotate(.428) scale(.04297)"/><path style="stroke:none;fill-rule:nonzero;fill:#6d7a7f;fill-opacity:1" d="M5.2 3.074h11.6c.415 0 .747.336.747.75V18.22c0 .414-.332.75-.746.75H5.199a.747.747 0 0 1-.746-.75V3.824c0-.414.332-.75.746-.75zm0 0"/><path style="stroke:none;fill-rule:nonzero;fill:#15495d;fill-opacity:1" d="M5.43 17.535h5.504c.113 0 .207.09.207.203v.407a.208.208 0 0 1-.207.207H5.43a.206.206 0 0 1-.207-.207v-.407c0-.113.09-.203.207-.203zm0 0"/><path style="stroke:none;fill-rule:nonzero;fill:#25aedf;fill-opacity:1" d="M5.2 3.031h11.6c.415 0 .747.297.747.656v12.618c0 .363-.332.656-.746.656H5.199c-.414 0-.746-.293-.746-.656V3.688c0-.36.332-.657.746-.657zm0 0"/><path style="stroke:none;fill-rule:nonzero;fill:#d1d2d3;fill-opacity:1" d="M14.977 17.941a.366.366 0 1 1-.73 0 .366.366 0 1 1 .73 0zm1.133 0a.367.367 0 1 1-.734.001.367.367 0 0 1 .733 0zm0 0"/><path style="fill-rule:nonzero;fill:gray;fill-opacity:1;stroke-width:1.569832;stroke-linecap:butt;stroke-linejoin:miter;stroke:#d4d4d4;stroke-opacity:1;stroke-miterlimit:4" d="M255.992 113.085c-69.35-.088-125.626 56.225-125.619 125.52.063 69.39 56.225 125.626 125.67 125.66 69.295-.008 125.572-56.321 125.564-125.616-.062-69.39-56.225-125.626-125.615-125.564zm-.004 91.34c18.98-.003 34.278 15.241 34.28 34.22-.053 18.884-15.392 34.237-34.22 34.28-18.98.003-34.333-15.337-34.336-34.316.053-18.884 15.393-34.237 34.276-34.184zm0 0" transform="rotate(30.005 6.422 13.03) scale(.03541)"/><g clip-path="url(#a)"><g clip-path="url(#b)"><path style="stroke:none;fill-rule:evenodd;fill:#f2f2f2;fill-opacity:1" d="m11.707 10.29 4.461.753-2.047 3.547-2.965-3.828zm0 0"/></g></g><g clip-path="url(#c)"><g clip-path="url(#d)"><path style="stroke:none;fill-rule:evenodd;fill:#f2f2f2;fill-opacity:1" d="M10.313 10.523 5.848 9.77l2.05-3.547 2.961 3.828zm0 0"/></g></g><path style="fill-rule:nonzero;fill:#fff;fill-opacity:1;stroke-width:2.780315;stroke-linecap:butt;stroke-linejoin:miter;stroke:#e7e7e7;stroke-opacity:1;stroke-miterlimit:4" d="M256.012 185.048c-29.557-.005-53.67 23.98-53.62 53.633-.006 29.557 24.02 53.52 53.632 53.62 29.557.006 53.615-24.075 53.62-53.632-.05-29.653-24.075-53.616-53.632-53.62zm-.025 25.11c15.723.094 28.491 12.722 28.452 28.54.001 15.669-12.777 28.397-28.445 28.398-15.668.001-28.492-12.722-28.397-28.445-.057-15.764 12.722-28.492 28.39-28.493zm0 0" transform="rotate(30.005 6.422 13.03) scale(.03541)"/></svg>