<svg xmlns="http://www.w3.org/2000/svg" width="22" height="22"><path style="fill-rule:nonzero;fill:#ececec;fill-opacity:1;stroke-width:27.983692;stroke-linecap:butt;stroke-linejoin:miter;stroke:#25aedf;stroke-opacity:1;stroke-miterlimit:4" d="M82.727 26.818h346.546c30.909 0 55.909 25 55.909 55.91v346.545c0 30.909-25 55.909-55.91 55.909H82.728c-30.909 0-55.909-25-55.909-55.91V82.728c0-30.909 25-55.909 55.91-55.909zm0 0" transform="rotate(.428) scale(.04297)"/><path style="stroke:none;fill-rule:nonzero;fill:#6d7a7f;fill-opacity:1" d="M5.54 6.793h10.92c.392 0 .708.25.708.562v10.868c0 .308-.316.562-.707.562H5.539c-.39 0-.707-.254-.707-.562V7.355c0-.312.316-.562.707-.562zm0 0"/><path style="stroke:none;fill-rule:nonzero;fill:#15495d;fill-opacity:1" d="M5.754 17.703h5.184c.109 0 .195.07.195.156v.305c0 .086-.086.156-.195.156H5.753c-.11 0-.195-.07-.195-.156v-.305c0-.086.086-.156.195-.156zm0 0"/><path style="stroke:none;fill-rule:nonzero;fill:#d1d2d3;fill-opacity:1" d="M14.746 18.012c0 .152-.156.277-.344.277-.191 0-.347-.125-.347-.277 0-.153.156-.278.347-.278.188 0 .344.125.344.278zm1.067 0c0 .152-.157.273-.348.273-.188 0-.344-.12-.344-.273 0-.153.156-.278.344-.278.191 0 .348.125.348.278zm0 0"/><path style="stroke:none;fill-rule:nonzero;fill:#6d7a7f;fill-opacity:1" d="M5.54 5.602h10.92c.392 0 .708.253.708.566v10.863c0 .313-.316.567-.707.567H5.539c-.39 0-.707-.254-.707-.567V6.168c0-.313.316-.566.707-.566zm0 0"/><path style="stroke:none;fill-rule:nonzero;fill:#15495d;fill-opacity:1" d="M5.754 16.516h5.184c.109 0 .195.07.195.156v.305c0 .085-.086.156-.195.156H5.753c-.11 0-.195-.07-.195-.156v-.305c0-.086.086-.156.195-.156zm0 0"/><path style="stroke:none;fill-rule:nonzero;fill:#d1d2d3;fill-opacity:1" d="M14.746 16.824c0 .153-.156.274-.344.274-.191 0-.347-.121-.347-.274 0-.152.156-.277.347-.277.188 0 .344.125.344.277zm1.067 0c0 .153-.157.274-.348.274-.188 0-.344-.121-.344-.274 0-.156.156-.277.344-.277.191 0 .348.121.348.277zm0 0"/><path style="stroke:none;fill-rule:nonzero;fill:#6d7a7f;fill-opacity:1" d="M5.54 4.434h10.92c.392 0 .708.253.708.566v10.863c0 .313-.316.567-.707.567H5.539c-.39 0-.707-.254-.707-.567V5c0-.313.316-.566.707-.566zm0 0"/><path style="stroke:none;fill-rule:nonzero;fill:#15495d;fill-opacity:1" d="M5.754 15.348h5.184c.109 0 .195.07.195.156v.305c0 .086-.086.156-.195.156H5.753c-.11 0-.195-.07-.195-.156v-.305c0-.086.086-.156.195-.156zm0 0"/><path style="stroke:none;fill-rule:nonzero;fill:#d1d2d3;fill-opacity:1" d="M14.746 15.656c0 .153-.156.274-.344.274-.191 0-.347-.121-.347-.274 0-.156.156-.277.347-.277.188 0 .344.121.344.277zm1.067 0c0 .153-.157.274-.348.274-.188 0-.344-.121-.344-.274 0-.156.156-.277.344-.277.191 0 .348.121.348.277zm0 0"/><path style="stroke:none;fill-rule:nonzero;fill:#6d7a7f;fill-opacity:1" d="M5.54 3.246h10.92c.392 0 .708.254.708.567v10.863c0 .312-.316.566-.707.566H5.539c-.39 0-.707-.254-.707-.566V3.812c0-.312.316-.566.707-.566zm0 0"/><path style="stroke:none;fill-rule:nonzero;fill:#15495d;fill-opacity:1" d="M5.754 14.16h5.184c.109 0 .195.07.195.152v.31c0 .085-.086.155-.195.155H5.753c-.11 0-.195-.07-.195-.156v-.309c0-.082.086-.152.195-.152zm0 0"/><path style="stroke:none;fill-rule:nonzero;fill:#d1d2d3;fill-opacity:1" d="M14.746 14.465c0 .156-.156.277-.344.277-.191 0-.347-.12-.347-.277 0-.152.156-.274.347-.274.188 0 .344.121.344.274zm1.067 0c0 .156-.157.277-.348.277-.188 0-.344-.12-.344-.277 0-.152.156-.274.344-.274.191 0 .348.121.348.274zm0 0"/><path style="stroke:none;fill-rule:nonzero;fill:#25aedf;fill-opacity:1" d="M5.54 3.215h10.92c.392 0 .708.223.708.496v9.523c0 .274-.316.493-.707.493H5.539c-.39 0-.707-.22-.707-.493V3.711c0-.273.316-.496.707-.496zm0 0"/><path style="stroke:none;fill-rule:nonzero;fill:#ebebeb;fill-opacity:1" d="M14.184 11.023c.879-.707 1.316-1.554 1.316-2.55 0-1-.438-1.848-1.316-2.555-.88-.703-1.942-1.055-3.184-1.055-1.242 0-2.305.352-3.184 1.055C6.938 6.625 6.5 7.473 6.5 8.473c0 .996.438 1.843 1.316 2.55.88.704 1.942 1.055 3.184 1.055 1.242 0 2.305-.351 3.184-1.055zm0 0"/></svg>