<svg xmlns="http://www.w3.org/2000/svg" width="22" height="22"><defs><clipPath id="a"><path d="M11 9h5v5h-5zm0 0"/></clipPath><clipPath id="b"><path d="M13.172 6.102a4.345 4.345 0 1 0-4.344 7.527 4.345 4.345 0 1 0 4.344-7.527zm-1.578 2.734a1.188 1.188 0 0 1-1.188 2.055 1.183 1.183 0 0 1-.433-1.618 1.189 1.189 0 0 1 1.62-.437zm0 0"/></clipPath><clipPath id="c"><path d="M6 5h5v5H6zm0 0"/></clipPath><clipPath id="d"><path d="M8.844 13.672A4.349 4.349 0 0 0 13.19 6.14a4.348 4.348 0 0 0-4.347 7.53zm1.582-2.738a1.188 1.188 0 0 1-.434-1.621 1.182 1.182 0 0 1 1.617-.434 1.187 1.187 0 0 1-1.183 2.055zm0 0"/></clipPath></defs><path style="fill-rule:nonzero;fill:#ececec;fill-opacity:1;stroke-width:27.983692;stroke-linecap:butt;stroke-linejoin:miter;stroke:#25aedf;stroke-opacity:1;stroke-miterlimit:4" d="M82.727 26.818h346.546c30.909 0 55.909 25 55.909 55.91v346.545c0 30.909-25 55.909-55.91 55.909H82.728c-30.909 0-55.909-25-55.909-55.91V82.728c0-30.909 25-55.909 55.91-55.909zm0 0" transform="rotate(.428) scale(.04297)"/><path style="stroke:none;fill-rule:nonzero;fill:#6d7a7f;fill-opacity:1" d="M5.648 3.25h10.704a.69.69 0 0 1 .687.691V17.22a.69.69 0 0 1-.687.691H5.648a.69.69 0 0 1-.687-.691V3.94a.69.69 0 0 1 .687-.691zm0 0"/><path style="stroke:none;fill-rule:nonzero;fill:#15495d;fill-opacity:1" d="M6.04 16.586h9.87c.207 0 .371.086.371.191v.375c0 .106-.164.188-.37.188H6.038c-.203 0-.367-.082-.367-.188v-.375c0-.105.164-.191.367-.191zm0 0"/><path style="stroke:none;fill-rule:nonzero;fill:#25aedf;fill-opacity:1" d="M5.648 3.21h10.704c.378 0 .687.274.687.606v11.641c0 .332-.309.602-.687.602H5.648c-.378 0-.687-.27-.687-.602V3.817c0-.333.309-.606.687-.606zm0 0"/><path style="stroke:none;fill-rule:nonzero;fill:#3ecdf6;fill-opacity:1" d="M6.895 16.832a5.049 5.049 0 0 0 3.976 1.957 5.05 5.05 0 0 0 3.98-1.957zm0 0"/><path style="fill-rule:nonzero;fill:gray;fill-opacity:1;stroke-width:1.569832;stroke-linecap:butt;stroke-linejoin:miter;stroke:#d4d4d4;stroke-opacity:1;stroke-miterlimit:4" d="M255.985 113.126c-69.373-.083-125.505 56.172-125.588 125.545.014 69.316 56.228 125.603 125.642 125.531 69.316-.014 125.505-56.171 125.588-125.544-.071-69.414-56.228-125.603-125.642-125.532zm.014 91.209c18.91.028 34.293 15.385 34.265 34.296-.028 18.91-15.385 34.293-34.296 34.265-18.91-.028-34.236-15.287-34.208-34.198-.03-19.009 15.384-34.293 34.239-34.363zm0 0" transform="matrix(.02998 .0173 -.0173 .02998 7.456 -1.72)"/><g clip-path="url(#a)"><g clip-path="url(#b)"><path style="stroke:none;fill-rule:evenodd;fill:#f2f2f2;fill-opacity:1" d="m11.691 9.77 4.364.738-2.004 3.469-2.899-3.743zm0 0"/></g></g><g clip-path="url(#c)"><g clip-path="url(#d)"><path style="stroke:none;fill-rule:evenodd;fill:#f2f2f2;fill-opacity:1" d="m10.328 10-4.363-.738 2.004-3.469 2.894 3.742zm0 0"/></g></g><path style="fill-rule:nonzero;fill:#fff;fill-opacity:1;stroke-width:2.780315;stroke-linecap:butt;stroke-linejoin:miter;stroke:#e7e7e7;stroke-opacity:1;stroke-miterlimit:4" d="M256.053 185.018c-29.675.062-53.673 23.951-53.61 53.626-.093 29.633 23.95 53.672 53.528 53.667 29.674-.063 53.616-24.05 53.61-53.626.092-29.634-23.951-53.673-53.528-53.667zm-.056 25.182c15.775.014 28.472 12.751 28.402 28.429.084 15.719-12.654 28.416-28.373 28.5-15.775-.014-28.472-12.752-28.458-28.527-.027-15.621 12.653-28.416 28.429-28.402zm0 0" transform="matrix(.02998 .0173 -.0173 .02998 7.456 -1.72)"/></svg>