<svg xmlns="http://www.w3.org/2000/svg" width="22" height="22"><path style="fill-rule:nonzero;fill:#ececec;fill-opacity:1;stroke-width:27.983692;stroke-linecap:butt;stroke-linejoin:miter;stroke:#25aedf;stroke-opacity:1;stroke-miterlimit:4" d="M82.727 26.818h346.546c30.909 0 55.909 25 55.909 55.91v346.545c0 30.909-25 55.909-55.91 55.909H82.728c-30.909 0-55.909-25-55.909-55.91V82.728c0-30.909 25-55.909 55.91-55.909zm0 0" transform="rotate(.428) scale(.04297)"/><path style="stroke:none;fill-rule:nonzero;fill:#6d7a7f;fill-opacity:1" d="M5.195 3.07h11.61c.414 0 .75.332.75.746v14.41a.747.747 0 0 1-.75.747H5.195a.747.747 0 0 1-.75-.746V3.817c0-.415.336-.747.75-.747zm0 0"/><path style="stroke:none;fill-rule:nonzero;fill:#15495d;fill-opacity:1" d="M5.422 17.54h5.512c.113 0 .207.093.207.206v.406a.205.205 0 0 1-.207.203H5.422a.202.202 0 0 1-.203-.203v-.406c0-.113.09-.207.203-.207zm0 0"/><path style="stroke:none;fill-rule:nonzero;fill:#25aedf;fill-opacity:1" d="M5.195 3.027h11.61c.414 0 .75.293.75.657v12.629c0 .359-.336.652-.75.652H5.195c-.414 0-.75-.293-.75-.652V3.682c0-.363.336-.656.75-.656zm0 0"/><path style="stroke:none;fill-rule:nonzero;fill:#d1d2d3;fill-opacity:1" d="M14.98 17.945a.366.366 0 1 1-.367-.363c.203 0 .367.164.367.363zm1.133 0a.367.367 0 1 1-.733.001.367.367 0 0 1 .733 0zm0 0"/><path style="stroke:none;fill-rule:nonzero;fill:#ebebeb;fill-opacity:1" d="M14.383 13.383c.933-.934 1.402-2.063 1.402-3.383 0-1.32-.469-2.45-1.402-3.383-.934-.933-2.063-1.402-3.383-1.402-1.32 0-2.45.469-3.383 1.402C6.684 7.551 6.215 8.68 6.215 10c0 1.32.469 2.45 1.402 3.383.934.933 2.063 1.402 3.383 1.402 1.32 0 2.45-.469 3.383-1.402zm0 0"/><path style="fill-rule:nonzero;fill:#367bf0;fill-opacity:1;stroke-width:5.063694;stroke-linecap:butt;stroke-linejoin:miter;stroke:#367bf0;stroke-opacity:1;stroke-miterlimit:0" d="M272.027-857.07h23.148v23.257h-23.148zm0 0" transform="rotate(-90 30.17 -11.743) scale(.03544)"/><path style="fill-rule:nonzero;fill:#367bf0;fill-opacity:1;stroke-width:5.063694;stroke-linecap:butt;stroke-linejoin:miter;stroke:#367bf0;stroke-opacity:1;stroke-miterlimit:0" d="M-874.707-184.508c9.26 0 16.865 7.496 16.865 16.865 0 9.259-7.606 16.865-16.865 16.865-9.259 0-16.865-7.606-16.865-16.865 0-9.37 7.606-16.865 16.865-16.865zm-29.21-83.882c6.283 0 11.243 5.07 11.243 11.243s-4.96 11.243-11.243 11.243c-6.173 0-11.133-5.07-11.133-11.243 0-6.172 4.96-11.243 11.133-11.243zm0 0" transform="translate(41.912 18.425) scale(.03544)"/><path style="fill-rule:evenodd;fill:#367bf0;fill-opacity:1;stroke-width:5.063694;stroke-linecap:butt;stroke-linejoin:miter;stroke:#367bf0;stroke-opacity:1;stroke-miterlimit:0" d="M-885.399-309.173s10.582-22.597 10.802-22.266c.331.33 10.472 22.266 10.472 22.266zm0 0" transform="translate(41.912 18.425) scale(.03544)"/><path style="fill:none;stroke-width:9.140924;stroke-linecap:butt;stroke-linejoin:miter;stroke:#367bf0;stroke-opacity:1;stroke-miterlimit:0" d="M-875.148-189.468c-1.874-19.95-28.769-29.981-28.769-41.555 0-7.826.33-11.243.33-21.274m28.66 39.241c0-20.613 19.51-25.462 29.1-40.784 1.432-2.535.55-25.903.55-27.446m-29.65 113.092v-146.711" transform="translate(41.912 18.425) scale(.03544)"/></svg>