<svg xmlns="http://www.w3.org/2000/svg" width="22" height="22"><path style="fill-rule:nonzero;fill:#ececec;fill-opacity:1;stroke-width:27.983692;stroke-linecap:butt;stroke-linejoin:miter;stroke:#25aedf;stroke-opacity:1;stroke-miterlimit:4" d="M82.727 26.818h346.546c30.909 0 55.909 25 55.909 55.91v346.545c0 30.909-25 55.909-55.91 55.909H82.728c-30.909 0-55.909-25-55.909-55.91V82.728c0-30.909 25-55.909 55.91-55.909zm0 0" transform="rotate(.428) scale(.04297)"/><path style="stroke:none;fill-rule:nonzero;fill:#6d7a7f;fill-opacity:1" d="M6.008 4.18h9.984c.356 0 .645.285.645.64v12.395c0 .355-.29.644-.645.644H6.008a.645.645 0 0 1-.645-.644V4.82c0-.355.29-.64.645-.64zm0 0"/><path style="stroke:none;fill-rule:nonzero;fill:#15495d;fill-opacity:1" d="M6.203 16.625h4.742c.098 0 .176.078.176.176v.351a.175.175 0 0 1-.176.176H6.203a.175.175 0 0 1-.176-.176v-.351c0-.098.078-.176.176-.176zm0 0"/><path style="stroke:none;fill-rule:nonzero;fill:#25aedf;fill-opacity:1" d="M6.008 4.14h9.984c.356 0 .645.255.645.567v10.86c0 .312-.29.566-.645.566H6.008c-.356 0-.645-.254-.645-.567V4.707c0-.312.29-.566.645-.566zm0 0"/><path style="stroke:none;fill-rule:nonzero;fill:#d1d2d3;fill-opacity:1" d="M14.426 16.977a.317.317 0 0 1-.633 0c0-.176.14-.317.316-.317.172 0 .317.14.317.317zm.972 0a.317.317 0 0 1-.633 0c0-.176.145-.317.317-.317.176 0 .316.14.316.317zm0 0"/><path style="stroke:none;fill-rule:nonzero;fill:#ebebeb;fill-opacity:1" d="M13.988 13.078c.805-.805 1.207-1.773 1.207-2.91 0-1.137-.402-2.105-1.207-2.91-.8-.805-1.773-1.207-2.91-1.207-1.137 0-2.105.402-2.91 1.207-.8.804-1.203 1.773-1.203 2.91 0 1.137.402 2.105 1.203 2.91.805.805 1.773 1.203 2.91 1.203 1.137 0 2.11-.398 2.91-1.203zm0 0"/><path style="stroke:none;fill-rule:nonzero;fill:#367bf0;fill-opacity:1" d="M10.223 12.582v-.277h1.484v.55h-1.484zm0-.824v-.27h1.484v.54h-1.484zm.437-.59a1.059 1.059 0 0 1-.758-.75 1.406 1.406 0 0 1 0-.625 1.05 1.05 0 0 1 .766-.75c.145-.04.434-.04.574-.008.317.078.606.32.73.621.11.262.114.621.008.88a1.072 1.072 0 0 1-.738.636 1.62 1.62 0 0 1-.582-.004zm.445-.414a.718.718 0 0 0 .512-.543c.028-.125.012-.23-.062-.379-.125-.266-.422-.434-.684-.383-.39.07-.656.461-.55.817.07.242.253.418.507.488a.479.479 0 0 0 .277 0zM9.223 9.3c-.098-.098-.164-.176-.164-.196 0-.039.957-.996.996-.996.047 0 .36.32.36.364 0 .054-.938.992-.993.992-.027 0-.078-.043-.2-.164zm2.73-.32c-.32-.317-.418-.422-.418-.45 0-.027.125-.16.527-.562.426-.43.536-.528.567-.528.031 0 .117.079.45.422.257.266.417.438.417.457.008.047-1.027 1.063-1.086 1.067-.031.004-.098-.055-.457-.407zm-3.371-.305c-.121-.125-.148-.16-.148-.196 0-.035.062-.105.476-.52.371-.37.485-.476.512-.476.055 0 .351.297.351.348 0 .031-.105.145-.476.516-.418.414-.485.476-.524.476-.035 0-.07-.027-.191-.148zm0 0"/></svg>