<svg xmlns="http://www.w3.org/2000/svg" width="22" height="22"><defs><clipPath id="a"><path d="M11 10h5v5h-5zm0 0"/></clipPath><clipPath id="b"><path d="M13.16 6.66a4.323 4.323 0 0 0-5.902 1.582 4.322 4.322 0 0 0 1.582 5.903 4.323 4.323 0 0 0 5.902-1.582A4.323 4.323 0 0 0 13.16 6.66zm-1.57 2.723c.562.324.758 1.047.43 1.61a1.176 1.176 0 0 1-1.61.429 1.175 1.175 0 0 1-.43-1.61 1.18 1.18 0 0 1 1.61-.43zm0 0"/></clipPath><clipPath id="c"><path d="M6 6h5v5H6zm0 0"/></clipPath><clipPath id="d"><path d="M8.86 14.184a4.319 4.319 0 1 0 4.316-7.48 4.315 4.315 0 0 0-5.899 1.581 4.314 4.314 0 0 0 1.582 5.899zm1.57-2.72a1.178 1.178 0 1 1 1.174-2.042 1.178 1.178 0 0 1-1.174 2.043zm0 0"/></clipPath></defs><path style="fill-rule:nonzero;fill:#ececec;fill-opacity:1;stroke-width:27.983692;stroke-linecap:butt;stroke-linejoin:miter;stroke:#25aedf;stroke-opacity:1;stroke-miterlimit:4" d="M82.727 26.818h346.546c30.909 0 55.909 25 55.909 55.91v346.545c0 30.909-25 55.909-55.91 55.909H82.728c-30.909 0-55.909-25-55.909-55.91V82.728c0-30.909 25-55.909 55.91-55.909zm0 0" transform="rotate(.428) scale(.04297)"/><path style="stroke:none;fill-rule:nonzero;fill:#6d7a7f;fill-opacity:1" d="M5.363 3.3h11.274c.398 0 .726.325.726.727v13.989a.727.727 0 0 1-.726.722H5.363a.727.727 0 0 1-.726-.722V4.027c0-.402.328-.726.726-.726zm0 0"/><path style="stroke:none;fill-rule:nonzero;fill:#15495d;fill-opacity:1" d="M5.586 17.348h5.351c.11 0 .2.09.2.199v.394a.2.2 0 0 1-.2.2h-5.35a.2.2 0 0 1-.2-.2v-.394c0-.11.09-.2.2-.2zm0 0"/><path style="stroke:none;fill-rule:nonzero;fill:#25aedf;fill-opacity:1" d="M5.363 3.262h11.274c.398 0 .726.285.726.636v12.258c0 .352-.328.637-.726.637H5.363c-.398 0-.726-.285-.726-.637V3.898c0-.351.328-.636.726-.636zm0 0"/><path style="stroke:none;fill-rule:nonzero;fill:#d1d2d3;fill-opacity:1" d="M14.863 17.742c0 .2-.156.356-.355.356a.354.354 0 0 1-.356-.356c0-.195.16-.355.356-.355.199 0 .355.16.355.355zm1.102 0c0 .2-.16.356-.356.356a.355.355 0 1 1 0-.711c.196 0 .356.16.356.355zm0 0"/><path style="fill-rule:nonzero;fill:gray;fill-opacity:1;stroke-width:1.569832;stroke-linecap:butt;stroke-linejoin:miter;stroke:#d4d4d4;stroke-opacity:1;stroke-miterlimit:4" d="M255.981 113.02c-69.339.042-125.54 56.223-125.598 125.619.041 69.339 56.279 125.639 125.618 125.598 69.34-.042 125.54-56.222 125.598-125.618-.041-69.34-56.222-125.541-125.618-125.598zm.04 91.368c18.874-.013 34.295 15.341 34.21 34.271.014 18.874-15.34 34.295-34.27 34.21-18.874.013-34.238-15.242-34.21-34.271-.014-18.873 15.397-34.196 34.27-34.21zm0 0" transform="rotate(30 5.81 13.4) scale(.0344)"/><g clip-path="url(#a)"><g clip-path="url(#b)"><path style="stroke:none;fill-rule:evenodd;fill:#f2f2f2;fill-opacity:1" d="m11.688 10.309 4.335.734-1.992 3.445-2.879-3.718zm0 0"/></g></g><g clip-path="url(#c)"><g clip-path="url(#d)"><path style="stroke:none;fill-rule:evenodd;fill:#f2f2f2;fill-opacity:1" d="m10.332 10.535-4.336-.73 1.988-3.45 2.88 3.723zm0 0"/></g></g><path style="fill-rule:nonzero;fill:#fff;fill-opacity:1;stroke-width:2.780315;stroke-linecap:butt;stroke-linejoin:miter;stroke:#e7e7e7;stroke-opacity:1;stroke-miterlimit:4" d="M255.978 185.008c-29.606.047-53.655 24.028-53.608 53.634.048 29.606 24.029 53.655 53.634 53.607 29.606-.047 53.655-24.028 53.608-53.634-.048-29.606-23.972-53.556-53.634-53.607zm-.015 25.184c15.719-.028 28.494 12.789 28.465 28.409.028 15.718-12.69 28.437-28.409 28.465-15.718.027-28.437-12.69-28.465-28.41-.028-15.718 12.69-28.437 28.409-28.464zm0 0" transform="rotate(30 5.81 13.4) scale(.0344)"/></svg>