<svg xmlns="http://www.w3.org/2000/svg" xmlns:xlink="http://www.w3.org/1999/xlink" width="22" height="22"><defs><symbol overflow="visible" id="a"><path style="stroke:none" d="M.297-2.453h.328V-.97c0 .274.047.465.14.578.094.118.25.172.47.172.206 0 .359-.054.452-.172.094-.113.141-.304.141-.578v-1.484h.344v1.531c0 .324-.086.57-.25.735-.156.156-.387.234-.688.234-.312 0-.546-.078-.703-.234C.375-.353.297-.597.297-.922zm0 0"/></symbol><symbol overflow="visible" id="b"><path style="stroke:none" d="M1.797-2.375v.328a1.463 1.463 0 0 0-.36-.125 1.103 1.103 0 0 0-.312-.047c-.188 0-.336.04-.438.11a.315.315 0 0 0-.14.28c0 .118.031.2.094.25.07.056.195.102.375.141l.203.032c.25.054.43.14.547.265a.612.612 0 0 1 .187.47c0 .241-.086.421-.25.546-.156.117-.39.172-.703.172A1.64 1.64 0 0 1 .625 0a1.732 1.732 0 0 1-.39-.11v-.343c.132.074.265.133.39.172.125.043.25.062.375.062.195 0 .344-.035.438-.11.101-.07.156-.179.156-.327a.341.341 0 0 0-.11-.266.717.717 0 0 0-.359-.156l-.203-.047c-.25-.05-.434-.129-.547-.234-.105-.102-.156-.25-.156-.438 0-.219.07-.39.218-.516.157-.124.368-.187.641-.187.113 0 .227.012.344.031.125.024.25.055.375.094zm0 0"/></symbol><symbol overflow="visible" id="c"><path style="stroke:none" d="M.656-1.172v.906h.531c.176 0 .305-.035.391-.109a.43.43 0 0 0 .14-.344c0-.156-.046-.27-.14-.344-.086-.07-.215-.109-.39-.109zm0-1v.735h.5c.157 0 .27-.032.344-.094.082-.063.125-.157.125-.282 0-.125-.043-.21-.125-.265-.074-.063-.188-.094-.344-.094zm-.328-.281h.844c.258 0 .457.055.594.156a.55.55 0 0 1 .203.453c0 .149-.04.266-.11.36a.49.49 0 0 1-.312.156.664.664 0 0 1 .375.234.59.59 0 0 1 .14.407c0 .218-.074.39-.218.515-.149.117-.36.172-.64.172H.327zm0 0"/></symbol></defs><path style="stroke:none;fill-rule:nonzero;fill:#637a82;fill-opacity:1" d="M7.852 4.906h6.296V.973H7.852zm0 0"/><path style="stroke:none;fill-rule:nonzero;fill:#fff;fill-opacity:.654902" d="M8.762 3.457h1.574v-1.57H8.762zm0 0"/><path style="stroke:none;fill-rule:nonzero;fill:#05353f;fill-opacity:.654902" d="M8.64 3.336h1.575V1.762H8.64zm0 0"/><path style="stroke:none;fill-rule:nonzero;fill:#fff;fill-opacity:.654902" d="M11.91 3.457h1.574v-1.57H11.91zm0 0"/><path style="stroke:none;fill-rule:nonzero;fill:#05353f;fill-opacity:.654902" d="M11.785 3.336h1.574V1.762h-1.574zm0 0"/><path style="fill-rule:nonzero;fill:#25aedf;fill-opacity:1;stroke-width:9.766254;stroke-linecap:butt;stroke-linejoin:miter;stroke:#25aedf;stroke-opacity:1;stroke-miterlimit:4" d="M155.273 119.09h201.454c8.273 0 15 6.728 15 15.092v336.182c0 8.272-6.727 15-15 15H155.273c-8.273 0-15-6.728-15-15V134.182c0-8.364 6.727-15.091 15-15.091zm0 0" transform="rotate(.428) scale(.04297)"/><g style="fill:#666;fill-opacity:1"><use xlink:href="#a" x="7.859" y="19.655"/><use xlink:href="#b" x="10.309" y="19.655"/><use xlink:href="#c" x="12.457" y="19.655"/></g><g style="fill:#fff;fill-opacity:1"><use xlink:href="#a" x="7.664" y="19.503"/><use xlink:href="#b" x="10.113" y="19.503"/><use xlink:href="#c" x="12.262" y="19.503"/></g><path style="stroke:none;fill-rule:nonzero;fill:#ecf0f1;fill-opacity:1" d="M12.305 9.504V8.219h1.293v1.285zm-1.184 4.859a.874.874 0 1 1 0 1.75.876.876 0 0 1 0-1.75zM9.48 9.352a.776.776 0 1 1-.005 1.55.776.776 0 0 1 .005-1.55zm0 0"/><path style="stroke:none;fill-rule:evenodd;fill:#ecf0f1;fill-opacity:1" d="M10.434 7.441s.691-1.558.707-1.535c.015.024.683 1.535.683 1.535zm0 0"/><path style="fill:none;stroke-width:6.079651;stroke-linecap:butt;stroke-linejoin:miter;stroke:#ecf0f1;stroke-opacity:1;stroke-miterlimit:2.012602" d="M256.79 269.481c-3.074-27.965-43.634-41.848-43.832-58.112 0-11.007.496-15.767.397-29.75m43.435 58.112c0-27.568 30.246-34.113 45.32-54.443 2.28-3.47.793-34.61.793-36.592M256.69 302.9V96.138" transform="translate(1.006 3.322) scale(.0394)"/></svg>