<svg xmlns="http://www.w3.org/2000/svg" width="22" height="22"><path style="fill-rule:nonzero;fill:#fff;fill-opacity:1;stroke-width:28.191782;stroke-linecap:butt;stroke-linejoin:miter;stroke:#666;stroke-opacity:1;stroke-miterlimit:4" d="M81.455 25.09h349.09c31.091 0 56.364 25.274 56.364 56.365v349.09c0 31.091-25.273 56.364-56.364 56.364H81.455c-31.091 0-56.364-25.273-56.364-56.364V81.455c0-31.091 25.273-56.364 56.364-56.364zm0 0" transform="rotate(.428) scale(.04297)"/><path style="stroke:none;fill-rule:nonzero;fill:#000;fill-opacity:.0980392" d="M18.426 5.578 15.77 2.926H4.465a.472.472 0 0 0-.344.14.469.469 0 0 0-.144.348v15.574c0 .137.046.25.144.348a.47.47 0 0 0 .344.14h13.469a.484.484 0 0 0 .492-.488zm0 0"/><path style="stroke:none;fill-rule:nonzero;fill:#333;fill-opacity:1" d="m18.02 4.477-1.954-1.954h-.964v4.704c-.004.183-.102.273-.293.273H5.387c-.192 0-.285-.09-.293-.273V2.523H4.062a.472.472 0 0 0-.343.141.469.469 0 0 0-.145.348V18.59a.472.472 0 0 0 .145.344c.094.093.21.144.347.144h.957v-7.594c0-.195.094-.293.29-.293h10.972c.195 0 .293.098.293.293v7.594h.957c.133 0 .25-.05.344-.144a.472.472 0 0 0 .14-.293c0-.016.004-.036.004-.051V4.477zm0 0"/><path style="stroke:none;fill-rule:nonzero;fill:#ccc;fill-opacity:1" d="M14.809 7.5c.191 0 .289-.09.293-.273V2.523H8.27V7.5zm0 0"/><path style="stroke:none;fill-rule:nonzero;fill:#fff;fill-opacity:1" d="M16.578 11.484c0-.195-.101-.293-.297-.293H5.313c-.196 0-.293.098-.293.293v6.946h11.558zm0 0"/><path style="stroke:none;fill-rule:nonzero;fill:#666;fill-opacity:1" d="M8.27 7.5V2.523H5.094v4.704c.008.183.101.273.293.273zm0 0"/><path style="stroke:none;fill-rule:nonzero;fill:#a8babe;fill-opacity:1" d="M5.02 18.43v.648h11.558v-.648zm0 0"/><path style="stroke:none;fill-rule:nonzero;fill:#666;fill-opacity:1" d="M13.977 3.871c0-.195-.098-.293-.293-.293h-.664c-.196 0-.293.098-.293.293v2.383c0 .195.097.293.293.293h.664c.195 0 .293-.098.293-.293zm0 0"/><path style="stroke:none;fill-rule:nonzero;fill:#fff;fill-opacity:1" d="M4.66 5.188V3.75c0-.113-.058-.172-.176-.172h-.332c-.117 0-.175.059-.175.172v1.438c0 .117.058.175.175.175h.332c.118 0 .176-.058.176-.176zm0 0"/><path style="stroke:none;fill-rule:nonzero;fill:#f9d346;fill-opacity:1" d="M4.328 17.766a.4.4 0 0 0-.297.12.404.404 0 0 0-.125.298.41.41 0 0 0 .125.296.416.416 0 0 0 .59 0 .41.41 0 0 0 .125-.296.404.404 0 0 0-.125-.297.398.398 0 0 0-.293-.121zm12.688.12a.404.404 0 0 0-.125.298.41.41 0 0 0 .125.296.416.416 0 0 0 .59 0 .41.41 0 0 0 .124-.296.404.404 0 0 0-.125-.297.4.4 0 0 0-.296-.121.4.4 0 0 0-.293.12zm0 0"/></svg>