<svg xmlns="http://www.w3.org/2000/svg" width="22" height="22"><path style="fill-rule:nonzero;fill:#fff;fill-opacity:1;stroke-width:28.282129;stroke-linecap:butt;stroke-linejoin:miter;stroke:#223656;stroke-opacity:1;stroke-miterlimit:4" d="M80.91 24.364h350.18c31.274 0 56.546 25.272 56.546 56.545v350.182c0 31.273-25.272 56.545-56.545 56.545H80.909c-31.273 0-56.545-25.272-56.545-56.545V80.909c0-31.273 25.272-56.545 56.545-56.545zm0 0" transform="rotate(.428) scale(.04297)"/><path style="stroke:none;fill-rule:evenodd;fill:#223656;fill-opacity:1" d="M8.297 9.02h5.426v9.66H8.297zm0 0"/><path style="fill:none;stroke-width:26.238472;stroke-linecap:square;stroke-linejoin:miter;stroke:#fff;stroke-opacity:1;stroke-miterlimit:2.012602" d="M302.818 291.09c0-23.18-18-41.908-40.182-41.908-22.181 0-40.181 18.727-40.181 41.909s18 42 40.181 42c22.182 0 40.182-18.818 40.182-42" transform="rotate(.428) scale(.04297)"/><path style="fill:none;stroke-width:26.394171;stroke-linecap:square;stroke-linejoin:miter;stroke:#d41a1a;stroke-opacity:1;stroke-miterlimit:2.012602" d="M326 164c-17.455-20.364-42.91-31.91-69.727-31.727-26.728.182-52.091 12.09-69.182 32.636" transform="rotate(.428) scale(.04297)"/><path style="fill:none;stroke-width:26.394171;stroke-linecap:square;stroke-linejoin:miter;stroke:#d41a1a;stroke-opacity:1;stroke-miterlimit:2" d="M370.273 125.273c-28.728-33.364-70.637-52.455-114.637-52.091-44 .273-85.636 19.909-113.909 53.636" transform="rotate(.428) scale(.04297)"/></svg>