<svg xmlns="http://www.w3.org/2000/svg" width="22" height="22"><path style="fill-rule:nonzero;fill:#fff;fill-opacity:1;stroke-width:19.492001;stroke-linecap:butt;stroke-linejoin:miter;stroke:#95a5a6;stroke-opacity:1;stroke-miterlimit:4" d="M81.455 25.09h349.09c31.091 0 56.364 25.274 56.364 56.365v349.09c0 31.091-25.273 56.364-56.364 56.364H81.455c-31.091 0-56.364-25.273-56.364-56.364V81.455c0-31.091 25.273-56.364 56.364-56.364zm0 0" transform="rotate(.428) scale(.04297)"/><path style="fill:none;stroke-width:26.157541;stroke-linecap:butt;stroke-linejoin:miter;stroke:#223656;stroke-opacity:1;stroke-miterlimit:4" d="M232.818 209.727c-39.727-15-42.454-67.818 0-82 44.637-14.909 72.546 55.546 126.364 19.728 16.909-11.273 23-24.728 23-44.364" transform="rotate(.428) scale(.04297)"/><path style="fill-rule:nonzero;fill:#ecf0f1;fill-opacity:1;stroke-width:15.738544;stroke-linecap:butt;stroke-linejoin:miter;stroke:#95a5a6;stroke-opacity:1;stroke-miterlimit:4" d="M116.364 203.182h278.909c30.818 0 55.818 25 55.818 55.818v80.364c0 30.818-25 55.818-55.818 55.818h-278.91c-30.818 0-55.818-25-55.818-55.818V259c0-30.818 25-55.818 55.819-55.818zm0 0" transform="rotate(.428) scale(.04297)"/><path style="stroke:none;fill-rule:evenodd;fill:#7f8c8d;fill-opacity:1" d="M13.188 12.855c0 1.485 1.105 2.711 2.511 2.793 1.41.079 2.633-1.011 2.79-2.488.152-1.476-.813-2.824-2.208-3.066-1.39-.246-2.718.699-3.027 2.148"/><path style="stroke:none;fill-rule:evenodd;fill:#223656;fill-opacity:1" d="M5.32 10.879v1.234H3.922v1.45H5.32v1.476h1.473v-1.476h1.41v-1.45h-1.41V10.88zm4.95 1.332a.305.305 0 0 0-.215.09l-.649.648a.307.307 0 0 0 0 .43.304.304 0 0 0 .434 0l.644-.649a.3.3 0 0 0 0-.43.305.305 0 0 0-.214-.09zm1.75.023a.305.305 0 0 0-.215.09l-.649.649a.304.304 0 0 0 0 .433.311.311 0 0 0 .434 0l.644-.648a.304.304 0 0 0 0-.434.305.305 0 0 0-.214-.09zm0 0"/><path style="stroke:none;fill-rule:evenodd;fill:#ecf0f1;fill-opacity:1" d="m13.66 12.184 1.688-1.684a.908.908 0 1 1 1.285 1.285l-1.688 1.684a.908.908 0 1 1-1.285-1.285zm0 0"/><path style="stroke:none;fill-rule:evenodd;fill:#1ba389;fill-opacity:1" d="M14.844 12.297a.74.74 0 0 0-1.047 0 .745.745 0 0 0 0 1.05.74.74 0 0 0 1.047 0 .745.745 0 0 0 0-1.05"/><path style="stroke:none;fill-rule:evenodd;fill:#2980b9;fill-opacity:1" d="M16.516 10.617a.74.74 0 0 0-1.047 0 .738.738 0 0 0 0 1.051.74.74 0 0 0 1.047 0 .745.745 0 0 0 0-1.05"/><path style="stroke:none;fill-rule:evenodd;fill:#ecf0f1;fill-opacity:1" d="m15.137 13.867 1.683-1.683a.908.908 0 1 1 1.285 1.285l-1.683 1.683a.908.908 0 1 1-1.285-1.285zm0 0"/><path style="stroke:none;fill-rule:evenodd;fill:#f9de69;fill-opacity:1" d="M16.32 13.969a.745.745 0 0 0-1.05 0 .745.745 0 0 0 0 1.05c.289.29.757.29 1.05 0a.745.745 0 0 0 0-1.05"/><path style="stroke:none;fill-rule:evenodd;fill:#ba174e;fill-opacity:1" d="M17.988 12.3a.74.74 0 0 0-1.047 1.048.733.733 0 0 0 1.047 0 .733.733 0 0 0 0-1.047"/></svg>