<svg xmlns="http://www.w3.org/2000/svg" xmlns:xlink="http://www.w3.org/1999/xlink" width="22" height="22"><defs><symbol overflow="visible" id="a"><path style="stroke:none" d="M.219-.14h.265v-.954l-.296.063v-.157l.296-.062h.172v1.11h.281V0H.22zm0 0"/></symbol><symbol overflow="visible" id="b"><path style="stroke:none" d="M.328-.14h.594V0H.125v-.14C.188-.21.273-.3.391-.407.504-.52.57-.594.594-.625a.717.717 0 0 0 .125-.156.282.282 0 0 0 .031-.125.198.198 0 0 0-.078-.156.233.233 0 0 0-.188-.079.573.573 0 0 0-.171.032c-.055.023-.11.054-.172.093v-.171a.706.706 0 0 1 .187-.063.549.549 0 0 1 .156-.031.44.44 0 0 1 .313.11.304.304 0 0 1 .125.25.429.429 0 0 1-.031.155 1.068 1.068 0 0 1-.11.157.722.722 0 0 1-.14.14 8.795 8.795 0 0 0-.313.329zm0 0"/></symbol><symbol overflow="visible" id="c"><path style="stroke:none" d="M.703-.672c.07.012.129.047.172.11.05.054.078.12.078.203a.375.375 0 0 1-.125.296.596.596 0 0 1-.36.094C.415.031.36.023.298.016a1.185 1.185 0 0 1-.173-.047v-.172a.41.41 0 0 0 .156.062.906.906 0 0 0 .172.016c.113 0 .195-.02.25-.063a.207.207 0 0 0 .078-.171.217.217 0 0 0-.078-.172A.34.34 0 0 0 .5-.594H.344v-.14H.5a.316.316 0 0 0 .188-.047.192.192 0 0 0 .078-.156.156.156 0 0 0-.079-.141.27.27 0 0 0-.187-.063c-.055 0-.105.008-.156.016-.055.012-.11.027-.172.047v-.14c.062-.02.117-.036.172-.048.062-.007.117-.015.172-.015.125 0 .222.031.296.093.07.063.11.141.11.235a.3.3 0 0 1-.063.187.28.28 0 0 1-.156.094zm0 0"/></symbol><symbol overflow="visible" id="d"><path style="stroke:none" d="M.656-1.11.22-.436h.437zM.61-1.25h.204v.813H1v.14H.812V0H.656v-.297H.078v-.156zm0 0"/></symbol><symbol overflow="visible" id="e"><path style="stroke:none" d="M.188-1.25h.656v.14h-.5v.313a.164.164 0 0 1 .062-.015C.437-.82.461-.829.484-.829c.145 0 .254.043.329.125a.38.38 0 0 1 .125.297.445.445 0 0 1-.125.328.505.505 0 0 1-.344.11C.414.031.359.022.297.015a1.08 1.08 0 0 1-.172-.046v-.172a.41.41 0 0 0 .156.062.906.906 0 0 0 .172.016c.102 0 .18-.02.234-.063a.267.267 0 0 0 .094-.218.257.257 0 0 0-.094-.203.333.333 0 0 0-.234-.079c-.043 0-.09.008-.14.016a.686.686 0 0 0-.126.047zm0 0"/></symbol><symbol overflow="visible" id="f"><path style="stroke:none" d="M.563-.688a.257.257 0 0 0-.188.079.315.315 0 0 0-.063.203c0 .094.02.168.063.219.05.054.113.078.188.078.082 0 .144-.024.187-.079a.355.355 0 0 0 .063-.218A.34.34 0 0 0 .75-.61a.233.233 0 0 0-.188-.079zm.343-.53v.14c-.043-.008-.09-.02-.14-.031a.299.299 0 0 0-.375.094c-.063.074-.102.187-.11.343a.4.4 0 0 1 .125-.11.325.325 0 0 1 .172-.046.38.38 0 0 1 .297.125c.07.074.11.172.11.297a.445.445 0 0 1-.126.328.398.398 0 0 1-.296.11C.413.031.304-.024.233-.142.16-.254.125-.414.125-.625c0-.195.047-.352.14-.469a.445.445 0 0 1 .376-.187c.039 0 .082.008.125.015.039.012.086.028.14.047zm0 0"/></symbol><symbol overflow="visible" id="g"><path style="stroke:none" d="M.14-1.25h.813v.063L.484 0H.313L.75-1.11H.14zm0 0"/></symbol><symbol overflow="visible" id="h"><path style="stroke:none" d="M.547-.594a.323.323 0 0 0-.203.063.233.233 0 0 0-.063.172c0 .086.02.148.063.187a.3.3 0 0 0 .203.063c.082 0 .144-.02.187-.063.051-.039.079-.101.079-.187a.217.217 0 0 0-.079-.172.27.27 0 0 0-.187-.063zM.375-.672a.231.231 0 0 1-.172-.094.279.279 0 0 1-.062-.187c0-.094.035-.172.109-.235a.436.436 0 0 1 .297-.093c.125 0 .223.031.297.093.07.063.11.141.11.235a.3.3 0 0 1-.063.187.246.246 0 0 1-.172.094.322.322 0 0 1 .25.313c0 .125-.04.226-.11.296a.474.474 0 0 1-.312.094.528.528 0 0 1-.328-.093.395.395 0 0 1-.11-.298c0-.07.02-.133.063-.188a.376.376 0 0 1 .203-.125zM.312-.937c0 .062.02.117.063.156.04.031.098.047.172.047.07 0 .129-.016.172-.047A.218.218 0 0 0 .78-.937a.172.172 0 0 0-.062-.141.25.25 0 0 0-.172-.063.237.237 0 0 0-.172.063c-.043.031-.063.078-.063.14zm0 0"/></symbol><symbol overflow="visible" id="i"><path style="stroke:none" d="M.188-.031v-.157c.039.024.082.04.124.047a.62.62 0 0 0 .141.016.312.312 0 0 0 .25-.11c.063-.07.094-.187.094-.343a.348.348 0 0 1-.125.125.32.32 0 0 1-.156.031c-.125 0-.227-.035-.297-.11a.449.449 0 0 1-.11-.312c0-.133.036-.238.11-.312a.427.427 0 0 1 .312-.125c.145 0 .254.058.328.172.07.117.11.277.11.484 0 .2-.047.36-.14.484a.453.453 0 0 1-.376.172.644.644 0 0 1-.125-.015C.285.004.238-.008.188-.031zM.53-.562c.07 0 .13-.024.172-.079A.274.274 0 0 0 .78-.844a.305.305 0 0 0-.078-.219.217.217 0 0 0-.172-.078c-.086 0-.148.028-.187.079a.339.339 0 0 0-.063.218.3.3 0 0 0 .063.203c.039.055.101.079.187.079zm0 0"/></symbol><symbol overflow="visible" id="j"><path style="stroke:none" d="M.547-1.14c-.086 0-.152.042-.203.124C.3-.93.28-.8.28-.625c0 .168.02.297.063.39.05.087.117.126.203.126.082 0 .144-.04.187-.125a.823.823 0 0 0 .079-.391c0-.176-.028-.305-.079-.39-.043-.083-.105-.126-.187-.126zm0-.141c.133 0 .238.058.312.172.082.117.125.277.125.484 0 .21-.043.371-.125.484a.348.348 0 0 1-.312.172C.398.031.289-.023.219-.14.145-.254.109-.414.109-.625c0-.207.036-.367.11-.484a.36.36 0 0 1 .328-.172zm0 0"/></symbol></defs><path style="fill-rule:nonzero;fill:#fff;fill-opacity:1;stroke-width:7.317885;stroke-linecap:butt;stroke-linejoin:miter;stroke:#909090;stroke-opacity:1;stroke-miterlimit:4" d="M22.441 169.327h90.584c8.082 0 14.648 6.566 14.648 14.648v90.584c0 8.081-6.566 14.648-14.648 14.648H22.441c-8.081 0-14.648-6.567-14.648-14.648v-90.584c0-8.082 6.567-14.648 14.648-14.648zm0 0" transform="translate(0 -26.233) scale(.1624)"/><path style="stroke:none;fill-rule:evenodd;fill:#ccdade;fill-opacity:1" d="M8.05 13.21a1.475 1.475 0 1 1-2.948.005 1.475 1.475 0 0 1 2.949-.004zm0-4.42a1.474 1.474 0 1 1-2.947-.003 1.474 1.474 0 0 1 2.948.002zm0-4.423a1.474 1.474 0 1 1-2.947-.002 1.474 1.474 0 0 1 2.948.002zm4.423 8.843c0 .817-.66 1.477-1.473 1.477a1.475 1.475 0 0 1 0-2.949c.813 0 1.473.66 1.473 1.473zm0-4.42a1.474 1.474 0 1 1-2.948-.003 1.474 1.474 0 0 1 2.948.002zm0-4.423a1.474 1.474 0 1 1-2.948-.002 1.474 1.474 0 0 1 2.948.002zm4.425 8.843a1.475 1.475 0 1 1-2.95.003 1.475 1.475 0 0 1 2.95-.002zm0-4.612a1.475 1.475 0 1 1-2.949-.004 1.475 1.475 0 0 1 2.95.004zm0-4.231a1.475 1.475 0 1 1-2.949-.004 1.475 1.475 0 0 1 2.95.004zm-4.425 13.27a1.474 1.474 0 1 1-2.948-.002 1.474 1.474 0 0 1 2.948.002zm0 0"/><use xlink:href="#a" x="6.016" y="4.99" style="fill:#000;fill-opacity:1"/><use xlink:href="#b" x="10.477" y="5.002" style="fill:#000;fill-opacity:1"/><use xlink:href="#c" x="14.879" y="4.99" style="fill:#000;fill-opacity:1"/><use xlink:href="#d" x="6.035" y="9.416" style="fill:#000;fill-opacity:1"/><use xlink:href="#e" x="10.461" y="9.404" style="fill:#000;fill-opacity:1"/><use xlink:href="#f" x="14.871" y="9.224" style="fill:#000;fill-opacity:1"/><use xlink:href="#g" x="6.031" y="13.837" style="fill:#000;fill-opacity:1"/><use xlink:href="#h" x="10.453" y="13.837" style="fill:#000;fill-opacity:1"/><use xlink:href="#i" x="14.883" y="13.837" style="fill:#000;fill-opacity:1"/><use xlink:href="#j" x="10.453" y="18.259" style="fill:#000;fill-opacity:1"/></svg>