<svg xmlns="http://www.w3.org/2000/svg" width="22" height="22"><path style="fill-rule:nonzero;fill:#1ba389;fill-opacity:.984314;stroke-width:27.910587;stroke-linecap:butt;stroke-linejoin:miter;stroke:#2a7063;stroke-opacity:.984314;stroke-miterlimit:4" d="M83.182 27.364h345.636c30.818 0 55.818 25 55.818 55.818v345.636c0 30.818-25 55.818-55.818 55.818H83.182c-30.818 0-55.818-25-55.818-55.818V83.182c0-30.818 25-55.818 55.818-55.818zm0 0" transform="rotate(.428) scale(.04297)"/><path style="stroke:none;fill-rule:nonzero;fill:#b3b3b3;fill-opacity:1" d="M10.953 5.777v4.516H7.566V8.938c0-1.356 1.696-3.16 3.387-3.16"/><path style="stroke:none;fill-rule:nonzero;fill:#f9f9f9;fill-opacity:1" d="M10.938 5.777v3.446H7.566v4.183c0 1.832 1.27 3.211 3.387 3.211s3.383-1.379 3.383-3.21V9.061c0-1.41-1.7-3.285-3.399-3.285zm0 0"/><path style="stroke:none;fill-rule:nonzero;fill:#4d4d4d;fill-opacity:1" d="M10.953 8.035c.235 0 .422.227.422.504v1.34c0 .281-.188.504-.422.504-.234 0-.422-.223-.422-.504v-1.34c0-.277.188-.504.422-.504m0 0"/></svg>