<svg xmlns="http://www.w3.org/2000/svg" width="22" height="22"><path style="fill-rule:nonzero;fill:#ecf0f1;fill-opacity:1;stroke-width:7.956348;stroke-linecap:butt;stroke-linejoin:miter;stroke:#95a5a6;stroke-opacity:1;stroke-miterlimit:4" d="M-15.13 273.975h98.52c8.775 0 15.907 7.133 15.907 15.907v98.521c0 8.775-7.132 15.907-15.907 15.907h-98.52c-8.775 0-15.908-7.132-15.908-15.907v-98.52c0-8.775 7.133-15.908 15.907-15.908zm0 0" transform="translate(5.804 -40.635) scale(.15225)"/><path style="stroke:none;fill-rule:nonzero;fill:#7f8c8d;fill-opacity:1" d="M7.48 8.516c-.351 0-.671.062-.968.191a2.21 2.21 0 0 0-.762.531c-.21.227-.367.489-.48.793-.11.305-.168.625-.168.969s.058.664.168.969c.113.304.27.566.48.793.215.23.469.406.762.535.297.125.617.187.968.187.305 0 .582-.043.844-.132.258-.09.485-.215.676-.38.195-.171.348-.374.46-.617.114-.242.18-.52.2-.82H8.418c-.023.277-.117.492-.281.649-.164.156-.39.234-.684.234a1.09 1.09 0 0 1-.5-.113 1.052 1.052 0 0 1-.348-.32 1.463 1.463 0 0 1-.199-.458A2.32 2.32 0 0 1 6.344 11c0-.184.023-.36.062-.527.043-.168.11-.32.2-.453.09-.133.207-.239.347-.317a1.03 1.03 0 0 1 .5-.121c.27 0 .488.066.656.195a.762.762 0 0 1 .309.543H9.66v-.004a1.558 1.558 0 0 0-.207-.746 1.774 1.774 0 0 0-.504-.574 2.162 2.162 0 0 0-.691-.36 2.505 2.505 0 0 0-.778-.12zm8.282.097v4.774h1.136V8.613zm-5.23.254v1.051h-.575v.734h.574v1.543c0 .246.02.446.055.602a.808.808 0 0 0 .195.367c.09.09.211.156.367.195.157.04.356.059.602.059.082 0 .2-.004.352-.02.12-.007.21-.015.27-.015v-.836c-.036 0-.087.004-.153.008-.063.008-.11.008-.14.008a.575.575 0 0 1-.31-.067c-.066-.05-.101-.137-.101-.266v-1.578h.703v-.734h-.703v-1.05zm4.542.985a1.19 1.19 0 0 0-.64.171 1.025 1.025 0 0 0-.403.5h-.011v-.605h-1.106v3.469h1.137v-1.719c0-.23.078-.426.23-.582.153-.16.36-.238.625-.238.125 0 .27.02.438.066V9.88a1.123 1.123 0 0 0-.27-.027zm0 0"/></svg>