<svg xmlns="http://www.w3.org/2000/svg" width="22" height="22"><path style="stroke:none;fill-rule:nonzero;fill:#637a82;fill-opacity:1" d="M11.36 4.879h6.296V.945H11.36zm0 0"/><path style="stroke:none;fill-rule:nonzero;fill:#fff;fill-opacity:.654902" d="M12.27 3.43h1.574V1.855H12.27zm0 0"/><path style="stroke:none;fill-rule:nonzero;fill:#05353f;fill-opacity:.654902" d="M12.148 3.305h1.57V1.73h-1.57zm0 0"/><path style="stroke:none;fill-rule:nonzero;fill:#fff;fill-opacity:.654902" d="M15.418 3.43h1.574V1.855h-1.574zm0 0"/><path style="stroke:none;fill-rule:nonzero;fill:#05353f;fill-opacity:.654902" d="M15.293 3.305h1.574V1.73h-1.574zm0 0"/><path style="fill-rule:nonzero;fill:#25aedf;fill-opacity:1;stroke-width:9.766254;stroke-linecap:butt;stroke-linejoin:miter;stroke:#25aedf;stroke-opacity:1;stroke-miterlimit:4" d="M155.292 119.122h201.455c8.272 0 15 6.727 15 15v336.182c0 8.363-6.728 15.09-15 15.09H155.292a15.054 15.054 0 0 1-15.09-15.09V134.122c0-8.273 6.726-15 15.09-15zm0 0" transform="translate(3.507 -.029) scale(.04297)"/><path style="stroke:none;fill-rule:nonzero;fill:#ecf0f1;fill-opacity:1" d="M15.813 11.168V9.883h1.289v1.285zm-1.184 4.859c.484 0 .879.391.879.875a.877.877 0 0 1-1.754 0c0-.484.39-.875.875-.875zm-1.645-5.015a.776.776 0 1 1 .003 1.55.776.776 0 0 1-.003-1.55zm0 0"/><path style="stroke:none;fill-rule:evenodd;fill:#ecf0f1;fill-opacity:1" d="M13.938 9.105s.69-1.562.71-1.539c.016.024.684 1.54.684 1.54zm0 0"/><path style="fill:none;stroke-width:6.079651;stroke-linecap:butt;stroke-linejoin:miter;stroke:#ecf0f1;stroke-opacity:1;stroke-miterlimit:2.012602" d="M256.712 269.515c-2.975-27.965-43.634-41.848-43.733-58.112 0-11.007.496-15.767.397-29.75m43.434 58.112c0-27.568 30.247-34.113 45.221-54.443 2.281-3.47.794-34.61.794-36.692m-46.113 154.305V96.17" transform="translate(4.513 4.985) scale(.0394)"/><path style="stroke:none;fill-rule:nonzero;fill:#333;fill-opacity:1" d="M4.27 8.965h7.511v8.469H4.27zm0 0"/><path style="stroke:none;fill-rule:nonzero;fill:#f9de69;fill-opacity:1" d="M8.223 7.102c-.047 0-.102 0-.157.003-.363.004-.363.004-.406.04a.205.205 0 0 0-.055.066c-.015.039-.02 2.387-.003 2.457.011.055.07.11.132.129.028.008.196.012.391.008.316-.004.348-.008.398-.035.028-.016.059-.043.063-.06.016-.034.035-1.132.039-1.92v-.54l-.043-.059a.183.183 0 0 0-.098-.078 3.876 3.876 0 0 0-.261-.011zm-1.891.05-.066.055-.067.059-.008 1.203c0 .808.004 1.222.012 1.258a.2.2 0 0 0 .164.125c.04.003.215.007.395.007.304-.004.328-.004.379-.035.109-.058.101.024.101-1.312 0-.668-.004-1.227-.012-1.246-.003-.02-.035-.051-.07-.075l-.055-.039zm2.707.016-.066.055-.067.05-.004 1.176c-.004.649 0 1.196.004 1.219a.212.212 0 0 0 .055.086c.035.039.062.05.121.059.043.003.223.007.395.007.351-.004.386-.011.445-.097.031-.04.031-.09.031-1.235 0-1.125 0-1.195-.027-1.238-.051-.074-.094-.082-.512-.082zm-3.676.023c-.199 0-.398.004-.437.016a.197.197 0 0 0-.094.082l-.043.066.004.75c0 .41.004.95.012 1.196l.011.453.051.043a.27.27 0 0 0 .117.055 6.2 6.2 0 0 0 .664 0c.125-.008.141-.012.192-.055l.055-.043.003-1.211c.004-1.352.012-1.29-.105-1.332a3.717 3.717 0 0 0-.43-.02zm5.473.633c-.348 0-.367 0-.406.031-.078.06-.075.036-.075.934 0 .461.004.863.012.895.016.066.04.09.11.117.07.023.59.027.675.004a.346.346 0 0 0 .098-.055l.047-.043.012-.414c.004-.23.007-.621.007-.867.004-.45.004-.45-.03-.504-.063-.102-.048-.098-.45-.098zm0 0"/><path style="stroke:none;fill-rule:nonzero;fill:#000;fill-opacity:1" d="M4.09 17.688a.307.307 0 0 1-.192-.153l-.039-.062V6.563l.028-.047a.355.355 0 0 1 .156-.157l.059-.027 3.437-.004h3.441l1.344 1.344v4.875c0 3.281-.004 4.89-.011 4.922a.363.363 0 0 1-.157.195l-.066.035-3.969.004c-3.219 0-3.984 0-4.031-.015zm6.98-.872a.506.506 0 0 0 .285-.34c.02-.074.02-.288.012-3.003a281.18 281.18 0 0 0-.015-2.938c-.008-.012-6.543-.012-6.551 0 0 .008-.008 1.313-.012 2.906-.008 2.18-.004 2.918.004 2.985a.52.52 0 0 0 .348.414c.07.02.171.02 2.96.02l2.891-.005zm-5.386-7.07a.278.278 0 0 0 .058-.059c.024-.03.024-.042.028-1.18.003-1.077 0-1.152-.02-1.19a.226.226 0 0 0-.055-.067c-.03-.023-.05-.023-.355-.027-.371-.004-.383 0-.434.093l-.027.055v1.117c0 .688.004 1.133.012 1.157a.205.205 0 0 0 .039.07c.054.058.078.062.41.058.293 0 .312-.003.344-.027zm1.367.004a.16.16 0 0 0 .078-.074c.023-.047.023-.059.023-1.192 0-1.14 0-1.14-.023-1.175a.34.34 0 0 0-.066-.063c-.04-.023-.047-.027-.356-.027s-.316 0-.355.027a.34.34 0 0 0-.067.063c-.023.035-.023.039-.027 1.156 0 .738 0 1.137.008 1.168a.365.365 0 0 0 .039.078c.047.062.078.066.398.066.285 0 .297 0 .348-.027zm1.398-.004c.086-.062.082.02.086-1.242V7.37l-.027-.055c-.047-.093-.063-.097-.434-.093-.3.004-.324.004-.355.027a.226.226 0 0 0-.055.066c-.02.04-.02.122-.02 1.176 0 1.117 0 1.133.024 1.184a.148.148 0 0 0 .074.078c.051.023.067.023.36.023.3-.004.308-.004.347-.03zm1.34.02a.213.213 0 0 0 .106-.106c.011-.031.015-.246.015-1.172.004-1.074 0-1.14-.02-1.175a.274.274 0 0 0-.054-.063c-.031-.023-.05-.023-.356-.027-.32-.004-.324-.004-.363.023a.256.256 0 0 0-.066.063c-.028.035-.028.039-.031 1.156 0 .738.003 1.137.011 1.168.016.058.055.11.102.129.047.02.601.023.656.004zm1.402-.016a.22.22 0 0 0 .079-.066c.023-.043.023-.067.027-.817l.004-.773-.028-.051c-.05-.098-.062-.102-.433-.098-.309.004-.324.008-.356.032a.224.224 0 0 0-.058.062c-.02.035-.02.082-.02.82 0 .88-.004.836.09.891.047.027.063.027.344.027.285 0 .3 0 .351-.027zm0 0"/></svg>