<svg xmlns="http://www.w3.org/2000/svg" width="22" height="22"><path style="fill-rule:nonzero;fill:#f2f2f2;fill-opacity:1;stroke-width:3.042594;stroke-linecap:butt;stroke-linejoin:miter;stroke:#d4d4d4;stroke-opacity:1;stroke-miterlimit:4" d="M377.727-338.818C261.273-406 112.455-366.091 45.182-249.728-22-133.272 17.909 15.546 134.272 82.819 250.728 150 399.546 110.091 466.819-6.272c67.182-116.455 27.273-265.273-89.09-332.546zm-88.545 153.363c31.727 18.273 42.636 58.91 24.273 90.637-18.273 31.727-58.91 42.636-90.637 24.273-31.727-18.273-42.636-58.91-24.273-90.637 18.273-31.727 58.91-42.636 90.637-24.273zm0 0" transform="translate(0 16.5) scale(.04297)"/><path style="fill-rule:nonzero;fill:gray;fill-opacity:1;stroke-width:3.042594;stroke-linecap:butt;stroke-linejoin:miter;stroke:#d4d4d4;stroke-opacity:1;stroke-miterlimit:4" d="M256.636-371.455c-51.818-.09-102.909 16.455-145 47.364l108.546 140.182c20.182-12.91 46.727-14.455 69-1.546 21.09 12.182 33 34.182 33.182 56.91L497.727-99c11.182-93.727-33-189.545-120-239.818-38.182-22-79.909-32.546-121.09-32.637zM14.273-157c-11.182 93.818 33 189.545 120 239.818 86.363 49.818 190.545 40.727 266.09-14.727L291.819-72.091c-20.182 12.91-46.727 14.455-69 1.546a66.22 66.22 0 0 1-33.182-56.819zm0 0" transform="translate(0 16.5) scale(.04297)"/><path style="fill-rule:nonzero;fill:#fff;fill-opacity:1;stroke-width:5.388712;stroke-linecap:butt;stroke-linejoin:miter;stroke:#e7e7e7;stroke-opacity:1;stroke-miterlimit:4" d="M308-218c-49.727-28.727-113.273-11.636-142 38-28.727 49.727-11.636 113.273 38 142 49.727 28.727 113.273 11.636 142-38 28.727-49.727 11.636-113.273-38-142zm-24.455 42.273c26.364 15.182 35.455 48.909 20.182 75.272C288.545-74.09 254.818-65 228.455-80.273 202.09-95.455 193-129.182 208.273-155.545c15.182-26.364 48.909-35.455 75.272-20.182zm0 0" transform="translate(0 16.5) scale(.04297)"/></svg>