<svg xmlns="http://www.w3.org/2000/svg" width="22" height="22"><path style="fill-rule:nonzero;fill:#fff;fill-opacity:1;stroke-width:28.191782;stroke-linecap:butt;stroke-linejoin:miter;stroke:gray;stroke-opacity:1;stroke-miterlimit:4" d="M81.455 25.09h349.09c31.091 0 56.364 25.274 56.364 56.365v349.09c0 31.091-25.273 56.364-56.364 56.364H81.455c-31.091 0-56.364-25.273-56.364-56.364V81.455c0-31.091 25.273-56.364 56.364-56.364zm0 0" transform="rotate(.428) scale(.04297)"/><path style="stroke:none;fill-rule:nonzero;fill:#4d4d4d;fill-opacity:1" d="M4.672 5.043h12.656a1.74 1.74 0 0 1 1.738 1.738v8.438a1.74 1.74 0 0 1-1.738 1.738H4.672a1.74 1.74 0 0 1-1.738-1.738V6.78a1.74 1.74 0 0 1 1.738-1.738zm0 0"/><path style="stroke:none;fill-rule:nonzero;fill:gray;fill-opacity:1" d="M5.094 5.441h11.812c.899 0 1.625.727 1.625 1.622v7.875c0 .894-.726 1.62-1.625 1.62H5.094a1.623 1.623 0 0 1-1.625-1.62V7.061c0-.894.726-1.62 1.625-1.62zm0 0"/><path style="stroke:none;fill-rule:nonzero;fill:#4d4d4d;fill-opacity:1" d="M9.86 10.914a2.688 2.688 0 0 1-2.692 2.688 2.687 2.687 0 1 1 0-5.375 2.688 2.688 0 0 1 2.691 2.687zm7.128 0a2.032 2.032 0 0 1-4.062 0 2.032 2.032 0 0 1 4.062 0zm0 0"/><path style="stroke:none;fill-rule:nonzero;fill:#fff;fill-opacity:1" d="M16.629 10.914a1.671 1.671 0 1 1-3.345.001 1.671 1.671 0 0 1 3.345 0zm-7.399 0a2.06 2.06 0 1 1-4.119-.002 2.06 2.06 0 0 1 4.12.002zm0 0"/><path style="stroke:none;fill-rule:evenodd;fill:#4d4d4d;fill-opacity:1" d="m7.996 5.387.86 1.488h3.53l.895-1.547zm0 0"/><path style="fill:none;stroke-width:8.033507;stroke-linecap:butt;stroke-linejoin:miter;stroke:#4d4d4d;stroke-opacity:1;stroke-miterlimit:4" d="m159.98 199.474 187.727 13.91" transform="translate(.106 -.106) scale(.04297)"/></svg>