<svg xmlns="http://www.w3.org/2000/svg" width="22" height="22"><path style="fill-rule:nonzero;fill:#fff;fill-opacity:1;stroke-width:28.191782;stroke-linecap:butt;stroke-linejoin:miter;stroke:gray;stroke-opacity:1;stroke-miterlimit:4" d="M81.455 25.09h349.09c31.091 0 56.364 25.274 56.364 56.365v349.09c0 31.091-25.273 56.364-56.364 56.364H81.455c-31.091 0-56.364-25.273-56.364-56.364V81.455c0-31.091 25.273-56.364 56.364-56.364zm0 0" transform="rotate(.428) scale(.04297)"/><path style="stroke:none;fill-rule:nonzero;fill:#f9de69;fill-opacity:1" d="M11.184 3.977h-.22c-.523.007-.523.007-.581.054a.35.35 0 0 0-.082.098c-.02.055-.028 3.414-.004 3.516.015.078.101.156.191.183.043.012.278.016.563.012.449-.008.496-.012.562-.05.043-.024.086-.063.094-.087.02-.05.047-1.617.05-2.75l.005-.766-.063-.09a.248.248 0 0 0-.136-.105 2.296 2.296 0 0 0-.38-.015zm-2.704.07-.093.078-.098.078-.004 1.727c-.008 1.152 0 1.746.016 1.797.031.093.117.16.234.18.05.007.305.011.559.011.437-.004.472-.008.547-.047.156-.086.144.027.144-1.883 0-.953-.008-1.754-.015-1.781-.008-.027-.055-.074-.102-.105l-.082-.055zm3.875.02-.093.078-.098.074-.004 1.683a62.93 62.93 0 0 0 .004 1.743c.008.03.043.09.078.125.051.05.086.07.176.082.059.007.312.011.562.007.504-.004.551-.011.637-.136.043-.059.043-.13.043-1.766 0-1.61 0-1.707-.039-1.77-.07-.109-.133-.12-.73-.12zm-5.257.035c-.285 0-.567.007-.625.023a.26.26 0 0 0-.133.117l-.063.094v1.07c.004.59.012 1.36.02 1.715l.016.645.074.062a.383.383 0 0 0 .168.074c.113.02.695.024.949.004.18-.011.203-.02.273-.078l.078-.062.008-1.735c.008-1.933.016-1.843-.152-1.898-.05-.02-.332-.028-.613-.031zm7.824.906c-.496 0-.524 0-.578.043-.114.082-.11.05-.11 1.336 0 .656.008 1.23.02 1.277.023.098.055.129.156.168.102.035.844.04.965.008a.49.49 0 0 0 .145-.082l.066-.059.012-.594c.007-.328.015-.882.015-1.238 0-.644 0-.644-.047-.722-.09-.145-.066-.137-.644-.137zm0 0"/><path style="stroke:none;fill-rule:nonzero;fill:gray;fill-opacity:1" d="M5.664 7.938H16.38v10.558H5.664zm0 0"/><path style="stroke:none;fill-rule:nonzero;fill:#000;fill-opacity:1" d="M5.277 19.113A.455.455 0 0 1 5 18.895l-.055-.09V3.203l.04-.07a.499.499 0 0 1 .226-.223l.082-.035 4.918-.004 4.918-.008.96.965.966.961v6.973c0 4.691-.008 6.992-.02 7.035a.511.511 0 0 1-.223.281l-.097.055h-5.676c-4.601.004-5.695 0-5.762-.02zm9.985-1.246a.74.74 0 0 0 .402-.488c.027-.106.031-.41.02-4.297-.008-2.3-.016-4.187-.024-4.195-.008-.02-9.355-.02-9.363 0-.008.004-.016 1.875-.024 4.152-.007 3.117-.007 4.172.008 4.27a.737.737 0 0 0 .496.59c.098.03.246.03 4.235.027l4.136-.004zM7.555 7.757a.428.428 0 0 0 .082-.085c.035-.047.035-.059.043-1.688.004-1.539 0-1.648-.028-1.703a.304.304 0 0 0-.078-.093c-.047-.036-.074-.036-.511-.043-.528-.004-.551 0-.618.136l-.039.074v1.598c0 .988.004 1.621.016 1.656a.319.319 0 0 0 .055.102c.082.086.109.09.585.086.418-.004.45-.008.493-.04zm1.957.005a.268.268 0 0 0 .11-.11c.034-.066.034-.078.034-1.699 0-1.633 0-1.637-.035-1.683a.516.516 0 0 0-.094-.09c-.054-.035-.066-.04-.507-.04-.442 0-.454.005-.508.04a.516.516 0 0 0-.094.09c-.035.046-.035.054-.043 1.652 0 1.055.004 1.629.016 1.672a.38.38 0 0 0 .054.113c.067.086.106.094.567.094.41 0 .43 0 .5-.04zm1.996-.008c.125-.09.117.031.12-1.774l.009-1.62-.04-.079c-.07-.136-.09-.14-.62-.136-.438.007-.465.007-.512.043a.304.304 0 0 0-.078.093c-.028.055-.032.172-.032 1.68 0 1.601.004 1.625.036 1.695a.247.247 0 0 0 .109.11c.07.035.094.035.512.03.43-.003.441-.003.496-.042zm1.914.027a.278.278 0 0 0 .156-.148c.02-.043.024-.356.024-1.68 0-1.531 0-1.625-.028-1.676a.363.363 0 0 0-.082-.09c-.047-.035-.07-.035-.508-.042-.457-.004-.464-.004-.52.035a.414.414 0 0 0-.093.09c-.039.046-.039.054-.043 1.652-.004 1.055 0 1.629.012 1.672a.284.284 0 0 0 .148.183c.067.028.86.035.934.004zm2.008-.02a.283.283 0 0 0 .113-.097c.035-.059.035-.094.039-1.164l.004-1.105-.04-.079c-.07-.136-.089-.14-.62-.132-.434.003-.461.003-.508.039a.34.34 0 0 0-.078.09c-.031.05-.031.12-.031 1.171 0 1.258-.004 1.2.132 1.278.063.039.082.039.489.039.406 0 .43 0 .5-.04zm0 0"/></svg>