<svg xmlns="http://www.w3.org/2000/svg" width="22" height="22"><path style="stroke:none;fill-rule:nonzero;fill:#333;fill-opacity:1" d="M5.332 3.219h.25c.078 0 .145.011.145.023v.88c0 .01-.067.023-.145.023h-.25c-.078 0-.144-.012-.144-.024v-.879c0-.012.066-.023.144-.023zm0 4.324h.25c.078 0 .145.012.145.027v1.16c0 .016-.067.028-.145.028h-.25c-.078 0-.144-.012-.144-.028V7.57c0-.015.066-.027.144-.027zm9.223-6.391v.254c0 .078-.02.14-.04.14h-1.578c-.019 0-.039-.062-.039-.14v-.254c0-.078.02-.14.04-.14h1.578c.02 0 .039.062.039.14zM5.332 5.48h.25c.078 0 .145.012.145.028v1.16c0 .016-.067.027-.145.027h-.25c-.078 0-.144-.011-.144-.027v-1.16c0-.016.066-.028.144-.028zm0 0"/><path style="stroke:none;fill-rule:nonzero;fill:#333;fill-opacity:1" d="M6.434 1.188h9.144c.582 0 1.059.503 1.059 1.128v17.368c0 .625-.477 1.128-1.059 1.128H6.434c-.586 0-1.059-.503-1.059-1.128V2.316c0-.625.473-1.128 1.059-1.128zm0 0"/><path style="stroke:none;fill-rule:nonzero;fill:#b3b3b3;fill-opacity:1" d="M6.477 1.273h9.058c.582 0 1.05.504 1.05 1.122v17.21c0 .618-.468 1.122-1.05 1.122H6.477c-.582 0-1.051-.504-1.051-1.122V2.395c0-.618.469-1.122 1.05-1.122zm0 0"/><path style="stroke:none;fill-rule:nonzero;fill:#fff;fill-opacity:1" d="M6.691 1.488h8.63c.55 0 .995.489.995 1.094v16.836c0 .605-.445 1.094-.996 1.094H6.691c-.55 0-.996-.489-.996-1.094V2.582c0-.605.446-1.094.996-1.094zm0 0"/><path style="stroke:none;fill-rule:nonzero;fill:#000;fill-opacity:1" d="M6.078 3.813h9.856v13.402H6.078zm0 0"/><path style="stroke:none;fill-rule:nonzero;fill:#333;fill-opacity:1" d="M9.676 2.45h2.66c.07 0 .133.085.133.195v.039c0 .109-.063.195-.133.195h-2.66c-.074 0-.133-.086-.133-.195v-.04c0-.109.059-.195.133-.195zm0 0"/><path style="stroke:none;fill-rule:nonzero;fill:#666;fill-opacity:1" d="M9.184 2.637a.473.473 0 0 1-.473.476.473.473 0 1 1 0-.949c.262 0 .473.211.473.473zm0 0"/><path style="stroke:none;fill-rule:nonzero;fill:#666;fill-opacity:1" d="M9.184 2.637a.473.473 0 0 1-.473.476.473.473 0 1 1 0-.949c.262 0 .473.211.473.473zm0 0"/><path style="stroke:none;fill-rule:nonzero;fill:#ccc;fill-opacity:1" d="M9.047 2.637a.336.336 0 1 1-.672 0 .336.336 0 0 1 .672 0zm0 0"/><path style="stroke:none;fill-rule:nonzero;fill:#fff;fill-opacity:1" d="M8.73 2.547c0 .062-.05.113-.113.113a.113.113 0 0 1-.11-.113c0-.063.052-.113.11-.113.063 0 .113.05.113.113zm0 0"/><path style="stroke:none;fill-rule:nonzero;fill:#003380;fill-opacity:1" d="M6.238 3.93h9.535v13.168H6.238zm0 0"/><path style="stroke:none;fill-rule:nonzero;fill:#b3b3b3;fill-opacity:1" d="M12.313 18.758a1.313 1.313 0 0 1-2.626 0 1.312 1.312 0 0 1 2.626 0zm0 0"/><path style="stroke:none;fill-rule:nonzero;fill:#333;fill-opacity:1" d="M10.32 2.035h1.371c.04 0 .067.047.067.102v.02c0 .058-.028.1-.067.1h-1.37c-.04 0-.071-.042-.071-.1v-.02c0-.055.031-.102.07-.102zm.082 16.094c-.039 0-.07.043-.07.101v1.13c0 .054.031.1.07.1h1.196c.039 0 .07-.046.07-.1v-1.13c0-.058-.031-.101-.07-.101zm.106.117h.984c.031 0 .055.035.055.082v.93c0 .047-.024.086-.055.086h-.984c-.031 0-.055-.04-.055-.086v-.93c0-.047.024-.082.055-.082zm0 0"/></svg>