<svg xmlns="http://www.w3.org/2000/svg" width="22" height="22"><path style="fill-rule:nonzero;fill:#fff;fill-opacity:1;stroke-width:2.611469;stroke-linecap:butt;stroke-linejoin:miter;stroke:#909090;stroke-opacity:1;stroke-miterlimit:4" d="M7.832 1006.97h32.336a5.23 5.23 0 0 1 5.224 5.225v32.335a5.23 5.23 0 0 1-5.224 5.224H7.832a5.23 5.23 0 0 1-5.224-5.224v-32.335a5.23 5.23 0 0 1 5.224-5.225zm0 0" transform="translate(0 -460.333) scale(.45833)"/><path style="stroke:none;fill-rule:evenodd;fill:#e74c3c;fill-opacity:1" d="M7.434 9.703a3.437 3.437 0 0 0 0 4.863 3.437 3.437 0 0 0 4.863 0l2.27-2.27a3.437 3.437 0 0 0 0-4.862 3.437 3.437 0 0 0-4.864 0zM8.73 11.06l2.33-2.33a1.562 1.562 0 0 1 2.21 0c.61.614.61 1.598 0 2.211l-2.328 2.329a1.562 1.562 0 1 1-2.21-2.21zm0 0"/><path style="stroke:none;fill-rule:evenodd;fill:#e74c3c;fill-opacity:1" d="m4.125 16.578 1.297 1.297 3.746-3.746-1.297-1.297zm8.707-8.707 1.297 1.297 3.746-3.746-1.297-1.297zm0 0"/></svg>