<svg xmlns="http://www.w3.org/2000/svg" width="22" height="22"><path style="fill-rule:nonzero;fill:#fff;fill-opacity:1;stroke-width:2.611469;stroke-linecap:butt;stroke-linejoin:miter;stroke:#909090;stroke-opacity:1;stroke-miterlimit:4" d="M7.832 2.608h32.336a5.23 5.23 0 0 1 5.224 5.224v32.336a5.23 5.23 0 0 1-5.224 5.224H7.832a5.23 5.23 0 0 1-5.224-5.224V7.832a5.23 5.23 0 0 1 5.224-5.224zm0 0" transform="scale(.45833)"/><path style="stroke:none;fill-rule:evenodd;fill:#4d4d4d;fill-opacity:1" d="M11.14 12.129a1.34 1.34 0 0 0 1.255-1.406 1.342 1.342 0 0 0-2.684.09c.012.73.61 1.32 1.344 1.32"/><path style="fill:none;stroke-width:3.131226;stroke-linecap:square;stroke-linejoin:bevel;stroke:#4d4d4d;stroke-opacity:1;stroke-miterlimit:4" d="M-.003 0v23.271" transform="translate(11.056 10.77) scale(.33119)"/><path style="fill:none;stroke-width:3.131226;stroke-linecap:square;stroke-linejoin:miter;stroke:#4d4d4d;stroke-opacity:1;stroke-miterlimit:2.012602" d="M17.907 16.147a10.004 10.004 0 0 0-1.31-13.67C12.6-1.013 6.585-.79 2.87 2.997c-3.715 3.774-3.833 9.8-.283 13.728" transform="translate(7.741 7.578) scale(.33119)"/><path style="fill:none;stroke-width:3.131226;stroke-linecap:square;stroke-linejoin:miter;stroke:#4d4d4d;stroke-opacity:1;stroke-miterlimit:2.012602" d="M28.704 25.88c5.249-6.758 4.27-16.44-2.217-22.008C20-1.707 10.28-1.2 4.395 5.004c-5.885 6.216-5.862 15.947.06 22.127" transform="translate(5.716 5.628) scale(.33119)"/><path style="fill:none;stroke-width:3.131226;stroke-linecap:square;stroke-linejoin:miter;stroke:#4d4d4d;stroke-opacity:1;stroke-miterlimit:2.012602" d="M39.256 35.388c7.16-9.211 5.85-22.421-2.984-30.053-8.822-7.63-22.08-7.006-30.158 1.416-8.091 8.41-8.162 21.69-.166 30.194" transform="translate(3.764 3.745) scale(.33119)"/></svg>