<svg xmlns="http://www.w3.org/2000/svg" width="22" height="22"><path style="fill-rule:nonzero;fill:#fff;fill-opacity:1;stroke-width:2.611469;stroke-linecap:butt;stroke-linejoin:miter;stroke:#909090;stroke-opacity:1;stroke-miterlimit:4" d="M7.832 2.608h32.336a5.23 5.23 0 0 1 5.224 5.224v32.336a5.23 5.23 0 0 1-5.224 5.224H7.832a5.23 5.23 0 0 1-5.224-5.224V7.832a5.23 5.23 0 0 1 5.224-5.224zm0 0" transform="scale(.45833)"/><path style="stroke:none;fill-rule:evenodd;fill:#4d4d4d;fill-opacity:1" d="M11.113 12.02a1.346 1.346 0 0 0-.133-2.688 1.344 1.344 0 0 0 .043 2.688"/><path style="fill:none;stroke-width:2.26261;stroke-linecap:square;stroke-linejoin:bevel;stroke:#4d4d4d;stroke-opacity:1;stroke-miterlimit:4" d="M24.06 23.25v16.815" transform="scale(.45833)"/><path style="fill-rule:evenodd;fill:#de6143;fill-opacity:1;stroke-width:1.164577;stroke-linecap:square;stroke-linejoin:miter;stroke:#de6143;stroke-opacity:1;stroke-miterlimit:2.012602" d="m21.153 12.034.213-.222L24 14.447l2.616-2.616.222.213-2.616 2.616 2.625 2.634-.213.221L24 14.881l-2.616 2.616-.222-.221 2.616-2.617zm0 0" transform="scale(.45833)"/></svg>