<svg xmlns="http://www.w3.org/2000/svg" width="22" height="22"><path style="fill-rule:nonzero;fill:#fff;fill-opacity:1;stroke-width:2.611469;stroke-linecap:butt;stroke-linejoin:miter;stroke:#909090;stroke-opacity:1;stroke-miterlimit:4" d="M7.832 2.608h32.336a5.23 5.23 0 0 1 5.224 5.224v32.336a5.23 5.23 0 0 1-5.224 5.224H7.832a5.23 5.23 0 0 1-5.224-5.224V7.832a5.23 5.23 0 0 1 5.224-5.224zm0 0" transform="scale(.45833)"/><path style="stroke:none;fill-rule:evenodd;fill:#f2f2f2;fill-opacity:1" d="M11.113 12.02a1.346 1.346 0 0 0-.133-2.688 1.344 1.344 0 0 0 .043 2.688"/><path style="fill:none;stroke-width:2.26261;stroke-linecap:square;stroke-linejoin:bevel;stroke:#f2f2f2;stroke-opacity:1;stroke-miterlimit:4" d="M24.06 23.25v16.815" transform="scale(.45833)"/><path style="fill:none;stroke-width:2.26261;stroke-linecap:square;stroke-linejoin:miter;stroke:#f2f2f2;stroke-opacity:1;stroke-miterlimit:2.012602" d="M29.77 27.955a7.239 7.239 0 0 0-.955-9.878 7.219 7.219 0 0 0-9.912.375 7.226 7.226 0 0 0-.204 9.92" transform="scale(.45833)"/><path style="fill:none;stroke-width:2.26261;stroke-linecap:square;stroke-linejoin:miter;stroke:#4d4d4d;stroke-opacity:1;stroke-miterlimit:2.012602" d="M33.153 30.733a11.589 11.589 0 0 0-17.565-15.077c-4.253 4.483-4.236 11.514.043 15.98" transform="scale(.45833)"/><path style="fill:none;stroke-width:2.26261;stroke-linecap:square;stroke-linejoin:miter;stroke:#4d4d4d;stroke-opacity:1;stroke-miterlimit:2.012602" d="M36.511 33.503c5.174-6.665 4.228-16.202-2.147-21.716C27.98 6.273 18.4 6.716 12.563 12.8c-5.839 6.085-5.89 15.673-.12 21.818" transform="scale(.45833)"/></svg>