<svg xmlns="http://www.w3.org/2000/svg" width="22" height="22"><path style="fill-rule:nonzero;fill:#b3b3b3;fill-opacity:1;stroke-width:2.611469;stroke-linecap:butt;stroke-linejoin:miter;stroke:#5a5a5a;stroke-opacity:1;stroke-miterlimit:4" d="M7.832 2.608h32.336a5.23 5.23 0 0 1 5.224 5.224v32.336a5.23 5.23 0 0 1-5.224 5.224H7.832a5.23 5.23 0 0 1-5.224-5.224V7.832a5.23 5.23 0 0 1 5.224-5.224zm0 0" transform="scale(.45833)"/><path style="stroke:none;fill-rule:evenodd;fill:#4d4d4d;fill-opacity:1" d="M11.113 12.02a1.346 1.346 0 0 0-.133-2.688 1.344 1.344 0 0 0 .043 2.688"/><path style="fill:none;stroke-width:3.131226;stroke-linecap:square;stroke-linejoin:bevel;stroke:#4d4d4d;stroke-opacity:1;stroke-miterlimit:4" d="M0-.004v23.271" transform="translate(11.027 10.657) scale(.33119)"/><path style="fill:none;stroke-width:3.131226;stroke-linecap:square;stroke-linejoin:miter;stroke:#4d4d4d;stroke-opacity:1;stroke-miterlimit:2.012602" d="M17.91 16.143a10.018 10.018 0 0 0-1.32-13.67 9.99 9.99 0 0 0-13.718.52c-3.715 3.785-3.845 9.8-.283 13.728" transform="translate(7.713 7.466) scale(.33119)"/><path style="fill:none;stroke-width:3.131226;stroke-linecap:square;stroke-linejoin:miter;stroke:#4d4d4d;stroke-opacity:1;stroke-miterlimit:2.012602" d="M28.707 25.877c5.249-6.747 4.27-16.43-2.217-22.009-6.487-5.567-16.206-5.072-22.092 1.144-5.885 6.204-5.861 15.935.06 22.115" transform="translate(5.688 5.516) scale(.33119)"/><path style="fill:none;stroke-width:3.131226;stroke-linecap:square;stroke-linejoin:miter;stroke:#4d4d4d;stroke-opacity:1;stroke-miterlimit:2.012602" d="M39.248 35.396c7.16-9.224 5.85-22.422-2.972-30.053-8.835-7.63-22.092-7.018-30.171 1.404-8.08 8.421-8.15 21.69-.165 30.194" transform="translate(3.736 3.633) scale(.33119)"/></svg>