<svg xmlns="http://www.w3.org/2000/svg" width="22" height="22"><path style="fill-rule:nonzero;fill:#fff;fill-opacity:1;stroke-width:27.583374;stroke-linecap:butt;stroke-linejoin:miter;stroke:#909090;stroke-opacity:1;stroke-miterlimit:4" d="M85.273 30.09h341.454c30.455 0 55.182 24.728 55.182 55.183v341.454c0 30.455-24.727 55.182-55.182 55.182H85.273c-30.455 0-55.182-24.727-55.182-55.182V85.273c0-30.455 24.727-55.182 55.182-55.182zm0 0" transform="rotate(.428) scale(.04297)"/><path style="stroke:none;fill-rule:nonzero;fill:#25aedf;fill-opacity:1" d="M9.012 18.96c-.848-.12-1.793-.335-2.387-.546-1.234-.437-2.246-1.152-2.578-1.82-.164-.332-.172-.387-.172-1.524 0-.66.027-1.18.063-1.18.03 0 .136.13.23.29.867 1.484 3.957 2.468 7.332 2.34 3.121-.122 5.594-1.063 6.27-2.383.09-.172.19-.313.222-.313.113 0 .153.457.121 1.446-.027.882-.043 1.003-.199 1.304-.539 1.051-2.09 1.86-4.39 2.297-.961.18-3.504.23-4.512.09zm.367-3.222c-2.047-.207-3.945-.906-4.84-1.781-.59-.582-.625-.7-.652-2.074-.012-.79.004-1.176.05-1.176.04 0 .145.117.235.262.574.914 2.078 1.676 4.039 2.054 3.914.754 8.488-.25 9.531-2.093.11-.196.223-.356.254-.356.102 0 .149.594.117 1.489-.023.792-.047.921-.207 1.25-.836 1.707-4.71 2.808-8.527 2.425zm.2-3.25c-2.63-.23-4.864-1.21-5.49-2.402-.167-.32-.179-.402-.202-1.379-.028-1.27.015-1.39.32-.914.559.871 1.871 1.539 3.773 1.922 4.172.84 8.836-.192 9.844-2.172.059-.121.133-.215.164-.215.082 0 .145 1.785.075 2.215-.317 1.95-4.266 3.32-8.485 2.945zm.323-3.246C7.168 9.07 4.676 8.004 4.098 6.766c-.79-1.7 1.597-3.36 5.406-3.754 1.07-.11 3.148-.043 4.086.133 1.105.207 1.84.437 2.664.835 1.207.59 1.808 1.29 1.808 2.11 0 1.957-3.816 3.43-8.16 3.152zm0 0"/></svg>