<svg xmlns="http://www.w3.org/2000/svg" width="22" height="22"><path style="fill-rule:nonzero;fill:#fff;fill-opacity:1;stroke-width:28.191782;stroke-linecap:butt;stroke-linejoin:miter;stroke:#666;stroke-opacity:1;stroke-miterlimit:4" d="M529.93-48.4h349.09c31.09 0 56.364 25.272 56.364 56.363v349.09c0 31.092-25.273 56.365-56.364 56.365H529.93c-31.092 0-56.365-25.273-56.365-56.364V7.963c0-31.09 25.273-56.364 56.364-56.364zm0 0" transform="translate(-19.27 3.158) scale(.04297)"/><path style="stroke:none;fill-rule:nonzero;fill:#666;fill-opacity:1" d="M2.523 7.105v7.551h4.618v-3.828h7.718v3.828h4.618v-7.55zm4.922-3.652h7.11v3.352h-7.11zm0 0"/><path style="stroke:none;fill-rule:nonzero;fill:#666;fill-opacity:1" d="M7.906 11.68h6.188v6.867H7.906zm0 0"/><path style="stroke:none;fill-rule:nonzero;fill:#ccc;fill-opacity:1" d="M8.41 17.117h5.18v.14H8.41zm0-.676h5.18v.141H8.41zm0-.675h5.18v.14H8.41zm0-.672h5.18v.136H8.41zm0-.676h5.18v.14H8.41zm0-.676h5.18v.14H8.41zm0-.676h5.18v.141H8.41zm0-.676h5.18v.141H8.41zm0 5.403h5.18v.14H8.41zm10.367-9.465c0 .297-.246.54-.55.54a.545.545 0 0 1-.551-.54c0-.3.246-.543.55-.543.305 0 .551.242.551.543zm0 0"/><path style="stroke:none;fill-rule:nonzero;fill:#f55;fill-opacity:1" d="M18.777 9.754c0 .3-.246.543-.55.543a.546.546 0 0 1-.551-.543c0-.3.246-.543.55-.543.305 0 .551.242.551.543zm0 0"/><path style="stroke:none;fill-rule:nonzero;fill:#0f0;fill-opacity:1" d="M18.777 11.18c0 .3-.246.543-.55.543a.546.546 0 0 1-.551-.543c0-.297.246-.54.55-.54.305 0 .551.243.551.54zm0 0"/></svg>