<svg xmlns="http://www.w3.org/2000/svg" width="22" height="22"><path style="fill-rule:nonzero;fill:#58785b;fill-opacity:1;stroke-width:18.73;stroke-linecap:butt;stroke-linejoin:miter;stroke:#3f5641;stroke-opacity:1;stroke-miterlimit:4" d="M71.252 35.923h354.727c26.273 0 47.636 21.364 47.636 47.636v354.728c0 26.272-21.363 47.636-47.636 47.636H71.252c-26.273 0-47.637-21.364-47.637-47.636V83.559c0-26.272 21.364-47.636 47.637-47.636zm0 0" transform="translate(.317 -.212) scale(.04297)"/><path style="stroke:none;fill-rule:nonzero;fill:#fff;fill-opacity:1" d="M14.633 5.094h.86c.378 0 .69.297.69.664v.383c0 .367-.312.664-.69.664h-.86a.677.677 0 0 1-.692-.664v-.383c0-.367.309-.664.692-.664zm0 2.492h.86c.378 0 .69.297.69.664v.383c0 .367-.312.664-.69.664h-.86a.677.677 0 0 1-.692-.664V8.25c0-.367.309-.664.692-.664zm0 2.664h.86c.378 0 .69.297.69.664v.383c0 .367-.312.664-.69.664h-.86a.677.677 0 0 1-.692-.664v-.383c0-.367.309-.664.692-.664zm0 2.492h.86c.378 0 .69.297.69.664v.383c0 .367-.312.664-.69.664h-.86a.677.677 0 0 1-.692-.664v-.383c0-.367.309-.664.692-.664zm0 2.578h.86c.378 0 .69.297.69.664v.383c0 .367-.312.664-.69.664h-.86a.677.677 0 0 1-.692-.664v-.383c0-.367.309-.664.692-.664zM6.727 5.094h.859c.379 0 .691.297.691.664v.383c0 .367-.312.664-.691.664h-.86a.677.677 0 0 1-.69-.664v-.383c0-.367.308-.664.69-.664zm0 2.492h.859c.379 0 .691.297.691.664v.383c0 .367-.312.664-.691.664h-.86a.677.677 0 0 1-.69-.664V8.25c0-.367.308-.664.69-.664zm0 2.664h.859c.379 0 .691.297.691.664v.383c0 .367-.312.664-.691.664h-.86a.677.677 0 0 1-.69-.664v-.383c0-.367.308-.664.69-.664zm0 2.492h.859c.379 0 .691.297.691.664v.383c0 .367-.312.664-.691.664h-.86a.677.677 0 0 1-.69-.664v-.383c0-.367.308-.664.69-.664zm0 2.578h.859c.379 0 .691.297.691.664v.383c0 .367-.312.664-.691.664h-.86a.677.677 0 0 1-.69-.664v-.383c0-.367.308-.664.69-.664zm0 0"/><path style="stroke:none;fill-rule:nonzero;fill:#49494c;fill-opacity:1" d="M14 18.727a1.68 1.68 0 0 1-.355.14c-.235.055-5.286.008-5.473-.05-.235-.079-.52-.333-.668-.598-.113-.207-.125-.29-.113-.762.007-.293.011-.844.011-1.227-.004-.382-.004-.94-.004-1.238.004-.297.004-.87.004-1.27V9.88c0-.3.008-.867.016-1.262.008-.39 0-.726-.016-.746-.02-.016-.027-.27-.015-.562a41.05 41.05 0 0 0 0-2.387c-.035-.649.18-1.082.664-1.348.226-.125.293-.129 2.89-.152 2.97-.027 2.938-.031 3.325.351.277.278.363.536.367 1.079 0 .238-.012.453-.031.468-.032.032-.024.696.02 1.989.007.293 0 .546-.02.562-.016.02-.024.363-.016.762.012.398.016.957.016 1.238v5.098c0 1.695.003 2.148.011 2.484.012.586-.21 1.047-.613 1.274zm0 0"/><path style="stroke:none;fill-rule:nonzero;fill:#ccc;fill-opacity:1" d="M13.777 17.879a.528.528 0 1 1-1.055 0 .528.528 0 0 1 1.055 0zM10.71 3.5h.595v1.191h-.594zm0 0"/></svg>