<svg xmlns="http://www.w3.org/2000/svg" width="22" height="22"><path style="fill-rule:nonzero;fill:#fff;fill-opacity:1;stroke-width:7.717832;stroke-linecap:butt;stroke-linejoin:miter;stroke:#909090;stroke-opacity:1;stroke-miterlimit:4" d="M-13.643 275.925h95.545c8.518 0 15.446 6.927 15.446 15.445v95.545c0 8.518-6.928 15.446-15.446 15.446h-95.545c-8.518 0-15.445-6.928-15.445-15.446V291.37c0-8.518 6.927-15.445 15.445-15.445zm0 0" transform="translate(5.804 -40.635) scale(.15225)"/><path style="stroke:none;fill-rule:nonzero;fill:#e6e6e6;fill-opacity:1" d="M11 4.906A4.106 4.106 0 0 0 6.887 9.02v8.074H7.8V9.02a3.19 3.19 0 0 1 3.2-3.2 3.19 3.19 0 0 1 3.2 3.2v8.074h.913V9.02A4.106 4.106 0 0 0 11 4.906zm0 0"/><path style="stroke:none;fill-rule:nonzero;fill:#f9de69;fill-opacity:1" d="M5.82 17.094h10.36V11H5.82zm0 0"/><path style="stroke:none;fill-rule:nonzero;fill:#223656;fill-opacity:1" d="M11 12.219a.76.76 0 0 0-.762.761c0 .301.18.579.457.7v2.195h.61V13.68a.766.766 0 0 0 .457-.7.76.76 0 0 0-.762-.761zm0 0"/></svg>