<svg xmlns="http://www.w3.org/2000/svg" width="22" height="22"><path style="stroke:none;fill-rule:nonzero;fill:#333;fill-opacity:1" d="M16.41 2.941h.254c.078 0 .14.016.14.036v1.578c0 .023-.062.039-.14.039h-.254c-.078 0-.14-.016-.14-.04V2.978c0-.02.062-.036.14-.036zM5.324 4.75h.254c.078 0 .14.055.14.117v5.016c0 .066-.062.12-.14.12h-.254c-.078 0-.14-.054-.14-.12V4.867c0-.062.062-.117.14-.117zm0 0"/><path style="stroke:none;fill-rule:nonzero;fill:#333;fill-opacity:1" d="M6.43 1.188h9.14c.586 0 1.059.503 1.059 1.128v17.368c0 .625-.473 1.128-1.059 1.128H6.43c-.586 0-1.059-.503-1.059-1.128V2.316c0-.625.473-1.128 1.059-1.128zm0 0"/><path style="stroke:none;fill-rule:nonzero;fill:#b3b3b3;fill-opacity:1" d="M6.469 1.273h9.062c.578 0 1.047.504 1.047 1.122v17.21c0 .618-.469 1.122-1.047 1.122H6.47c-.578 0-1.047-.504-1.047-1.122V2.395c0-.618.469-1.122 1.047-1.122zm0 0"/><path style="stroke:none;fill-rule:nonzero;fill:#fff;fill-opacity:1" d="M6.688 1.488h8.625c.55 0 1 .489 1 1.094v16.836c0 .605-.45 1.094-1 1.094H6.687c-.55 0-1-.489-1-1.094V2.582c0-.605.45-1.094 1-1.094zm0 0"/><path style="stroke:none;fill-rule:nonzero;fill:#000;fill-opacity:1" d="M6.613 4.3h8.774v14.15H6.613zm0 0"/><path style="stroke:none;fill-rule:nonzero;fill:gray;fill-opacity:1" d="M9.027 2.45h3.946c.109 0 .195.085.195.195v.039a.193.193 0 0 1-.195.195H9.027a.193.193 0 0 1-.195-.195v-.04c0-.109.086-.195.195-.195zm0 0"/><path style="stroke:none;fill-rule:nonzero;fill:#1a1a1a;fill-opacity:1" d="M12.559 2.664a.104.104 0 0 1-.102.106.105.105 0 0 1-.105-.106.104.104 0 1 1 .207 0zm-.364 0a.105.105 0 0 1-.105.106.104.104 0 0 1-.102-.106c0-.059.047-.105.102-.105.058 0 .105.046.105.105zm-.363 0a.105.105 0 0 1-.105.106.104.104 0 0 1-.102-.106c0-.059.047-.105.102-.105.058 0 .105.046.105.105zm-.363 0a.105.105 0 0 1-.106.106.105.105 0 0 1-.105-.106c0-.059.047-.105.105-.105.059 0 .106.046.106.105zm-.364 0A.105.105 0 0 1 11 2.77a.105.105 0 0 1-.105-.106c0-.059.046-.105.105-.105s.105.046.105.105zm-.363 0a.105.105 0 0 1-.105.106.105.105 0 0 1-.106-.106c0-.059.047-.105.106-.105.058 0 .105.046.105.105zm-.367 0a.104.104 0 0 1-.102.106.105.105 0 0 1-.105-.106c0-.059.047-.105.105-.105.055 0 .102.046.102.105zm-.363 0a.104.104 0 0 1-.102.106.105.105 0 0 1-.105-.106c0-.059.047-.105.105-.105.055 0 .102.046.102.105zm-.364 0a.105.105 0 0 1-.105.106.104.104 0 0 1-.102-.106.104.104 0 1 1 .207 0zm-.363 0a.105.105 0 0 1-.105.106.105.105 0 0 1-.106-.106c0-.059.047-.105.106-.105.058 0 .105.046.105.105zm3.641 0a.105.105 0 0 1-.106.106.105.105 0 0 1-.105-.106c0-.059.047-.105.105-.105.059 0 .106.046.106.105zm0 0"/><path style="stroke:none;fill-rule:nonzero;fill:#666;fill-opacity:1" d="M13.871 2.652a.214.214 0 0 1-.215.215.212.212 0 0 1-.215-.215.215.215 0 1 1 .43 0zm0 0"/><path style="stroke:none;fill-rule:nonzero;fill:#666;fill-opacity:1" d="M13.871 2.652a.214.214 0 0 1-.215.215.212.212 0 0 1-.215-.215.215.215 0 1 1 .43 0zm0 0"/><path style="stroke:none;fill-rule:nonzero;fill:#ccc;fill-opacity:1" d="M13.809 2.652c0 .086-.07.153-.153.153a.15.15 0 0 1-.152-.153c0-.082.066-.152.152-.152.082 0 .153.07.153.152zm0 0"/><path style="stroke:none;fill-rule:nonzero;fill:#fff;fill-opacity:1" d="M13.664 2.613a.05.05 0 0 1-.05.051.052.052 0 0 1-.052-.05c0-.028.024-.051.051-.051a.05.05 0 0 1 .051.05zm0 0"/><path style="stroke:none;fill-rule:nonzero;fill:#666;fill-opacity:1" d="M14.473 2.652a.214.214 0 0 1-.215.215.212.212 0 0 1-.215-.215.215.215 0 1 1 .43 0zm0 0"/><path style="stroke:none;fill-rule:nonzero;fill:#666;fill-opacity:1" d="M14.473 2.652a.214.214 0 0 1-.215.215.212.212 0 0 1-.215-.215.215.215 0 1 1 .43 0zm0 0"/><path style="stroke:none;fill-rule:nonzero;fill:#ccc;fill-opacity:1" d="M14.41 2.652c0 .086-.07.153-.152.153a.15.15 0 0 1-.153-.153c0-.082.067-.152.153-.152.082 0 .152.07.152.152zm0 0"/><path style="stroke:none;fill-rule:nonzero;fill:#fff;fill-opacity:1" d="M14.266 2.613a.05.05 0 0 1-.051.051.052.052 0 0 1-.05-.05c0-.028.023-.051.05-.051a.05.05 0 0 1 .05.05zm0 0"/><path style="stroke:none;fill-rule:nonzero;fill:#666;fill-opacity:1" d="M15.71 2.895a.476.476 0 1 1-.952 0c0-.262.215-.473.476-.473.262 0 .477.21.477.473zm0 0"/><path style="stroke:none;fill-rule:nonzero;fill:#666;fill-opacity:1" d="M15.71 2.895a.476.476 0 1 1-.952 0c0-.262.215-.473.476-.473.262 0 .477.21.477.473zm0 0"/><path style="stroke:none;fill-rule:nonzero;fill:#ccc;fill-opacity:1" d="M15.57 2.895a.336.336 0 1 1-.672 0 .336.336 0 0 1 .672 0zm0 0"/><path style="stroke:none;fill-rule:nonzero;fill:#fff;fill-opacity:1" d="M15.258 2.805a.113.113 0 1 1-.227 0 .113.113 0 0 1 .227 0zm0 0"/><path style="stroke:none;fill-rule:nonzero;fill:#4d4d4d;fill-opacity:1" d="M9.414 18.863h3.39c.141 0 .25.153.25.34v.375c0 .188-.109.34-.25.34h-3.39c-.14 0-.254-.152-.254-.34v-.375c0-.187.113-.34.254-.34zm0 0"/><path style="stroke:none;fill-rule:nonzero;fill:#999;fill-opacity:1" d="M9.48 18.926h3.258c.133 0 .242.133.242.3v.329c0 .168-.109.3-.242.3H9.48c-.136 0-.242-.132-.242-.3v-.328c0-.168.106-.301.242-.301zm0 0"/><path style="stroke:none;fill-rule:nonzero;fill:#ececec;fill-opacity:1" d="M9.547 19.027h3.125c.129 0 .23.106.23.235v.258a.232.232 0 0 1-.23.234H9.547a.235.235 0 0 1-.235-.234v-.258c0-.13.106-.235.235-.235zm0 0"/><path style="stroke:none;fill-rule:nonzero;fill:#003380;fill-opacity:1" d="M6.758 4.422h8.484v13.902H6.758zm0 0"/></svg>