<svg xmlns="http://www.w3.org/2000/svg" width="22" height="22"><path style="fill-rule:nonzero;fill:#fff;fill-opacity:1;stroke-width:18.591999;stroke-linecap:butt;stroke-linejoin:miter;stroke:#979797;stroke-opacity:1;stroke-miterlimit:4" d="M81.455 25.09h349.09c31.091 0 56.364 25.274 56.364 56.365v349.09c0 31.091-25.273 56.364-56.364 56.364H81.455c-31.091 0-56.364-25.273-56.364-56.364V81.455c0-31.091 25.273-56.364 56.364-56.364zm0 0" transform="rotate(.428) scale(.04297)"/><path style="stroke:none;fill-rule:nonzero;fill:#4d4d4d;fill-opacity:1" d="M3.367 4.043h14.414c.676 0 1.223.547 1.223 1.219v10.511c0 .672-.547 1.22-1.223 1.22H3.367a1.221 1.221 0 0 1-1.222-1.22V5.262a1.22 1.22 0 0 1 1.222-1.219zm0 0"/><path style="stroke:none;fill-rule:nonzero;fill:#e6e6e6;fill-opacity:1" d="M5.477 4.86h11.652c.543 0 .984.476.984 1.066v9.183c0 .59-.441 1.067-.984 1.067H5.477c-.543 0-.985-.477-.985-1.067V5.926c0-.59.442-1.067.985-1.067zm0 0"/><path style="stroke:none;fill-rule:nonzero;fill:#fff;fill-opacity:1" d="M3.781 10.516a.61.61 0 1 1-1.22-.002.61.61 0 0 1 1.22.002zm0 0"/><path style="stroke:none;fill-rule:nonzero;fill:#333;fill-opacity:1" d="M19.664 7.508c-.113-.113-.398-.008-.648.242l-1.227 1.23-7.527 7.528-.64 1.715 1.714-.641 8.758-8.758c.25-.246.355-.531.242-.644zm0 0"/></svg>