<svg xmlns="http://www.w3.org/2000/svg" width="22" height="22"><path style="fill-rule:nonzero;fill:#fff;fill-opacity:1;stroke-width:7.598406;stroke-linecap:butt;stroke-linejoin:miter;stroke:#909090;stroke-opacity:1;stroke-miterlimit:4" d="M20.686 167.041h94.095c8.395 0 15.178 6.783 15.178 15.178v94.095c0 8.395-6.783 15.178-15.178 15.178H20.686c-8.395 0-15.178-6.783-15.178-15.178V182.22c0-8.395 6.783-15.178 15.178-15.178zm0 0" transform="translate(0 -26.233) scale(.1624)"/><path style="stroke:none;fill-rule:evenodd;fill:#4d4d4d;fill-opacity:1" d="M7.352 2.86h7.308v.003h.004c0 .004.004.004.004.004v.004c.004 0 .004.004.004.004v.004c.16.7.601 1.32.723 2.031.117.664 0 2.027 0 2.027V19.13l-.004.004v.004h-.004c-.004 0-.004.004-.004.004H6.617s0-.004-.004-.004H6.61v-.004l-.004-.004V6.938s-.117-1.364 0-2.028c.122-.71.723-2.031.723-2.031v-.004s0-.004.004-.004v-.004s.004 0 .004-.004h.004V2.86h.012zm0 0"/><path style="stroke:none;fill-rule:evenodd;fill:#0fa15f;fill-opacity:1" d="M8.71 5.555h4.58a.47.47 0 0 1 .468.468v.207a.47.47 0 0 1-.469.47H8.711a.47.47 0 0 1-.469-.47v-.207a.47.47 0 0 1 .469-.468zm0 0"/><path style="stroke:none;fill-rule:evenodd;fill:#999;fill-opacity:1" d="M11.758 15.98c0 .418-.34.754-.758.754a.755.755 0 1 1 0-1.511c.418 0 .758.34.758.757zm0 0"/><path style="stroke:none;fill-rule:nonzero;fill:#fff;fill-opacity:1" d="M10.488 17.105h.184v.352a.29.29 0 0 1-.016.102.223.223 0 0 1-.05.082.215.215 0 0 1-.075.047.407.407 0 0 1-.129.019c-.027 0-.058 0-.093-.004a.17.17 0 0 1-.082-.027.201.201 0 0 1-.067-.051.157.157 0 0 1-.035-.066.355.355 0 0 1-.02-.102v-.352h.184v.364a.1.1 0 0 0 .027.074c.016.02.043.027.075.027a.097.097 0 0 0 .074-.027.113.113 0 0 0 .023-.074zm.305 0h.305c.066 0 .113.016.148.047a.19.19 0 0 1 .047.137c0 .059-.016.106-.055.137-.035.035-.09.05-.164.05h-.097v.22h-.184zm.184.254h.043c.035 0 .062-.007.074-.02a.056.056 0 0 0 .023-.046.065.065 0 0 0-.02-.047c-.011-.012-.034-.02-.07-.02h-.05zm.383.141.171-.008a.131.131 0 0 0 .024.063.1.1 0 0 0 .082.035.094.094 0 0 0 .058-.016c.016-.012.02-.027.02-.043a.05.05 0 0 0-.02-.043.24.24 0 0 0-.093-.035.338.338 0 0 1-.168-.07.144.144 0 0 1-.055-.113c0-.032.012-.06.027-.086a.18.18 0 0 1 .078-.063.38.38 0 0 1 .149-.023c.074 0 .133.011.172.043.039.027.062.07.07.132l-.172.008a.107.107 0 0 0-.031-.058c-.012-.012-.031-.016-.059-.016-.023 0-.039.004-.047.012a.044.044 0 0 0-.015.035c0 .008.004.016.011.023.008.008.028.016.063.024a.732.732 0 0 1 .168.05.19.19 0 0 1 .078.067.167.167 0 0 1 .024.086.191.191 0 0 1-.032.105.242.242 0 0 1-.09.075.351.351 0 0 1-.14.023c-.102 0-.172-.02-.211-.059a.235.235 0 0 1-.063-.148zm0 0"/><path style="stroke:none;fill-rule:evenodd;fill:#f2f2f2;fill-opacity:1" d="M11.54 15.98a.537.537 0 0 1-.54.536.537.537 0 1 1 0-1.075.54.54 0 0 1 .54.54zm0 0"/><path style="stroke:none;fill-rule:nonzero;fill:#0f0;fill-opacity:1" d="M10.27 10.43h1.46c.07 0 .125.086.125.191v.145c0 .105-.054.191-.125.191h-1.46c-.07 0-.125-.086-.125-.191v-.145c0-.105.054-.191.125-.191zm0 0"/><path style="stroke:none;fill-rule:nonzero;fill:red;fill-opacity:1" d="M10.27 11.219h1.46c.07 0 .125.086.125.191v.145c0 .105-.054.191-.125.191h-1.46c-.07 0-.125-.086-.125-.191v-.145c0-.105.054-.191.125-.191zm0 0"/><path style="stroke:none;fill-rule:nonzero;fill:#f60;fill-opacity:1" d="M10.27 11.941h1.46c.07 0 .125.086.125.192v.144c0 .106-.054.192-.125.192h-1.46c-.07 0-.125-.086-.125-.192v-.144c0-.106.054-.192.125-.192zm0 0"/><path style="stroke:none;fill-rule:nonzero;fill:#fff;fill-opacity:1" d="M7.543 4.875h6.758c.363 0 .66.023.66.05 0 .032-.297.055-.66.055H7.543c-.367 0-.66-.023-.66-.054 0-.028.293-.051.66-.051zm0 0"/></svg>