<svg xmlns="http://www.w3.org/2000/svg" width="16" height="16"><path style="stroke:none;fill-rule:nonzero;fill:#ccc;fill-opacity:1" d="M9.695 1.273c-.71 0-1.304.66-1.418 1.532h5.664c-.12-.871-.707-1.532-1.425-1.532zm0 0"/><path style="stroke:none;fill-rule:nonzero;fill:#a05a2c;fill-opacity:1" d="M2.016 3.047h11.968c.95 0 1.72.77 1.72 1.719v6.03c0 .95-.77 1.72-1.72 1.72H2.016c-.95 0-1.72-.77-1.72-1.72v-6.03c0-.95.77-1.72 1.72-1.72zm0 0"/><path style="stroke:none;fill-rule:nonzero;fill:#a05a2c;fill-opacity:1" d="M2.016 5.258h11.968c.95 0 1.72.77 1.72 1.719v6.03c0 .95-.77 1.72-1.72 1.72H2.016c-.95 0-1.72-.77-1.72-1.72v-6.03c0-.95.77-1.72 1.72-1.72zm0 0"/><path style="stroke:none;fill-rule:evenodd;fill:#4caf50;fill-opacity:1" d="M15 10.75a2.928 2.928 0 0 1-1.484 2.598 3.062 3.062 0 0 1-3.032 0A2.928 2.928 0 0 1 9 10.75a2.928 2.928 0 0 1 1.484-2.598 3.062 3.062 0 0 1 3.032 0A2.928 2.928 0 0 1 15 10.75zm0 0"/><path style="stroke:none;fill-rule:nonzero;fill:#fff;fill-opacity:1" d="M13.64 8.863a.34.34 0 0 0-.156.121l-1.632 1.582-1.02-.972a.312.312 0 0 0-.312-.215.296.296 0 0 0-.286.25.31.31 0 0 0 .18.332l1.227 1.215c.117.11.3.11.418 0l1.843-1.828a.297.297 0 0 0 .028-.325.31.31 0 0 0-.29-.16zm0 0"/></svg>