<svg xmlns="http://www.w3.org/2000/svg" width="16" height="16"><path style="stroke:none;fill-rule:nonzero;fill:#ccc;fill-opacity:1" d="M9.695 1.137c-.71 0-1.304.66-1.418 1.527h5.664c-.12-.867-.707-1.527-1.425-1.527zm0 0"/><path style="stroke:none;fill-rule:nonzero;fill:#25aedf;fill-opacity:1" d="M2.016 2.91h11.968c.95 0 1.72.77 1.72 1.719v6.031c0 .95-.77 1.719-1.72 1.719H2.016c-.95 0-1.72-.77-1.72-1.719V4.63c0-.95.77-1.719 1.72-1.719zm0 0"/><path style="stroke:none;fill-rule:nonzero;fill:#25aedf;fill-opacity:1" d="M2.016 5.121h11.968c.95 0 1.72.77 1.72 1.719v6.031c0 .95-.77 1.719-1.72 1.719H2.016c-.95 0-1.72-.77-1.72-1.719V6.84c0-.95.77-1.719 1.72-1.719zm0 0"/><path style="stroke:none;fill-rule:nonzero;fill:#4caf50;fill-opacity:1" d="M15 8.613h-3v-3.25H8.75v3.25H5.5v3.25h3.25v3H12v-3h3zm0 0"/></svg>