<svg viewBox="0 0 16 16" xmlns="http://www.w3.org/2000/svg"><defs><style type="text/css" id="current-color-scheme">.ColorScheme-Text{color:#dedede}</style></defs><path class="ColorScheme-Text" fill="currentColor" d="M5.094 3.447A6 5.086 0 0 0 2 7.883a6 5.086 0 0 0 6 5.086 6 5.086 0 0 0 6-5.086 6 5.086 0 0 0-.09-.847h-1.015a5 4.238 0 0 1 .105.847 5 4.238 0 0 1-5 4.239 5 4.238 0 0 1-5-4.239 5 4.238 0 0 1 2.725-3.768z"/><path class="ColorScheme-Text" d="M5.72 4.111c-1.669.726-2.719 2.182-2.719 3.772 0 2.34 2.239 4.238 5 4.238s5-1.898 5-4.238a3.558 3.558 0 0 0-.104-.84S5.716 4.096 5.719 4.111" fill="currentColor" fill-opacity=".5"/></svg>