<svg viewBox="0 0 16 16" xmlns="http://www.w3.org/2000/svg"><defs><style type="text/css" id="current-color-scheme">.ColorScheme-Text{color:#dedede}</style></defs><path class="ColorScheme-Text" d="M8 3a6 5 0 0 0-6 5 6 5 0 0 0 6 5 6 5 0 0 0 6-5 6 5 0 0 0-6-5zm0 1a5 4 0 0 1 5 4 5 4 0 0 1-5 4 5 4 0 0 1-5-4 5 4 0 0 1 5-4z" fill="currentColor"/><path d="M6.72 12.268c-1.244-.29-2.08-.731-2.866-1.514-.652-.649-.986-1.24-1.153-2.037-.438-2.095 1.197-4.16 3.799-4.8.779-.192 2.168-.226 2.89-.07 1.67.359 3.086 1.366 3.72 2.644 1.132 2.28-.313 4.782-3.277 5.674-.671.202-2.44.26-3.114.103z" class="ColorScheme-Text" fill="currentColor" fill-opacity=".502"/></svg>