<svg viewBox="0 0 16 16" xmlns="http://www.w3.org/2000/svg"><defs><style type="text/css" id="current-color-scheme">.ColorScheme-Text{color:#dedede}</style></defs><path class="ColorScheme-Text" d="m5.098 3.64-.027.013c-1.891.88-3.065 2.541-3.07 4.344 0 2.758 2.686 4.993 6 4.993s6-2.235 6-4.993a4.17 4.17 0 0 0-.09-.832H8.483L5.729 4.297s-.632-.655-.631-.657m-.219 1.114L8 7.997h5c0 2.298-2.239 4.16-5 4.16s-5-1.862-5-4.16c.002-1.262.694-2.455 1.879-3.243" fill="currentColor"/><path class="ColorScheme-Text" d="M7.696 12.733c-1.891-.154-3.518-1.169-4.386-2.737a4.74 4.74 0 0 1-.434-3.448 4.99 4.99 0 0 1 1.536-2.47c.285-.25.327-.278.363-.231.015.019.774.902 1.688 1.963l1.66 1.93h5.4l-.016.262c-.14 2.286-1.92 4.196-4.328 4.646a6.242 6.242 0 0 1-1.482.086" fill="currentColor" fill-opacity=".5"/></svg>