<svg viewBox="0 0 16 16" xmlns="http://www.w3.org/2000/svg"><defs><style type="text/css" id="current-color-scheme">.ColorScheme-Text{color:#dedede}</style></defs><path class="ColorScheme-Text" d="M6.984 2 2 5.838 3.936 12l2.29-.012-.312 1.862 3.09-1.698 3.092 1.692-.604-3.565L14 7.758l-2.488-.365L12 5.79 6.984 2zm.002 1 1.83 1.383-1.355 2.869L4 7.766l2.512 2.517-.12.71L4.55 11 3 6.07 6.986 3zm2.395 1.809L11 6.033l-.375 1.229-.086-.012-1.158-2.441zm-.383.691 1.08 2.275 2.422.356-1.756 1.765.422 2.495-2.164-1.184-2.162 1.188.418-2.497L5.5 8.135l2.422-.36L8.998 5.5z" fill="currentColor"/><g class="ColorScheme-Text" fill="currentColor" fill-opacity=".502"><path d="M2.874 5.89C4.912 4.22 5.02 4.162 7.102 2.532c.626.473 1.249.952 1.87 1.432.036.033-.257.749-.66 1.612l-.725 1.876c-1.16.159-1.85.232-3.132.37.686.722 1.137 1.147 2.272 2.313-.092.39-.204.743-.29 1.12h-1.94C3.942 9.47 3.377 7.683 2.874 5.89z"/><path d="M6.59 12.83c0-.03.427-2.62.445-2.697.008-.034-.165-.217-.966-1.026l-.976-.984 1.332-.197c.732-.108 1.34-.203 1.35-.21.011-.009.284-.575.608-1.26.323-.683.593-1.243.599-1.243.006 0 .278.564.605 1.252.47.99.603 1.255.635 1.262.021.005.623.095 1.338.199a54.99 54.99 0 0 1 1.307.199c.005.004-.43.448-.965.986l-.974.977.233 1.377c.128.757.23 1.38.226 1.383-.003.004-.545-.288-1.204-.647l-1.197-.654-1.137.624c-1.387.762-1.26.695-1.26.658z"/><path d="M9.902 6.011a55.549 55.549 0 0 1-.678-1.383 62.01 62.01 0 0 1 1.897 1.365l-.203.639-.22.69c-.014.048-.031.064-.065.064-.04 0-.13-.169-.731-1.375z"/></g></svg>