<svg viewBox="0 0 16 16" xmlns="http://www.w3.org/2000/svg"><defs><style type="text/css" id="current-color-scheme">.ColorScheme-Text{color:#dedede}</style></defs><g fill="currentColor"><path class="ColorScheme-Text" d="M8.275 13.953c.008 0 1.15-.754 2.536-1.675l2.52-1.675v-2.6c0-1.43-.007-2.601-.017-2.601-.009 0-1.15.755-2.536 1.677L8.26 8.757v2.598c0 1.43.007 2.598.016 2.598z" fill-opacity=".2"/><path class="ColorScheme-Text" d="M7.941 8.355c.075-.003 5.048-3.359 5.02-3.387-.015-.014-1.132-.765-2.483-1.668-1.35-.903-2.464-1.638-2.473-1.631-.42.272-4.995 3.367-5 3.383-.01.032 4.88 3.303 4.936 3.303z" fill-opacity=".4"/><path class="ColorScheme-Text" d="M7.719 13.994c.008 0 .016-1.15.015-2.556l-.001-2.556-2.518-1.685a728.965 728.965 0 0 0-2.524-1.686 214.64 214.64 0 0 0-.008 2.562v2.563l2.51 1.68c1.381.923 2.518 1.678 2.526 1.678z" fill-opacity=".6"/><path class="ColorScheme-Text" d="M8 15c5.77-3.758 4.078-2.72 6-4V5c-1.293-.856-3.97-2.658-6-4-3 2-3.643 2.386-6 4v6zm.508-1.588L8.496 9C10.411 7.652 11.772 6.834 13 6v4.594zm-.992-.012L3 10.57V6l4.528 3zM8 8 3.449 5 8 2l4.478 3C10.956 6.087 9.537 6.935 8 8z"/></g></svg>