<svg viewBox="0 0 16 16" xmlns="http://www.w3.org/2000/svg"><defs><style type="text/css" id="current-color-scheme">.ColorScheme-Text{color:#dedede}</style></defs><path class="ColorScheme-Text" d="M5 2v2a1 1 0 0 1-1 1H2v6h2a1 1 0 0 1 1 1v2h6v-2a1 1 0 0 1 1-1h2V5h-2a1 1 0 0 1-1-1V2zm1 1h4v1a2 2 0 0 0 2 2h1v4h-1a2 2 0 0 0-2 2v1H6v-1a2 2 0 0 0-2-2H3V6h1a2 2 0 0 0 2-2z" fill="currentColor"/><path d="M5.766 12.737c-.007-.534-.016-.718-.04-.827a2.192 2.192 0 0 0-.58-1.096 1.971 1.971 0 0 0-.628-.458c-.407-.2-.67-.24-1.569-.242h-.514V5.718h.669c.581 0 .692-.004.853-.035a2.234 2.234 0 0 0 1.771-1.75c.022-.1.031-.304.038-.829l.01-.696H10.2v.634c0 .674.012.827.087 1.084.235.807.925 1.42 1.758 1.565.118.02.324.027.825.027h.666v4.39l-.683.011c-.586.01-.708.016-.858.048a2.232 2.232 0 0 0-1.775 1.863c-.01.08-.02.425-.02.77v.625H5.775z" class="ColorScheme-Text" fill="currentColor" fill-opacity=".502"/></svg>