<svg viewBox="0 0 16 16" xmlns="http://www.w3.org/2000/svg"><defs><style type="text/css" id="current-color-scheme">.ColorScheme-Text{color:#dedede}</style></defs><path class="ColorScheme-Text" d="M2 7v1c0 3.314 2.684 6 5.996 6a5.998 5.998 0 0 0 5.996-6c.019-.069 0-1 0-1H3zm.999 1h9.993c0 2.761-2.237 5-4.997 5s-4.997-2.239-4.997-5" fill="currentColor"/><path d="M7.356 13.32a5.524 5.524 0 0 1-2.628-1.15 7.428 7.428 0 0 1-.93-.948c-.703-.9-1.206-2.2-1.263-3.266-.008-.147-.02-.322-.026-.389l-.012-.121h11.169v.213c0 .318-.07.828-.173 1.253-.563 2.342-2.43 4.099-4.683 4.41a6.382 6.382 0 0 1-1.454-.001z" class="ColorScheme-Text" fill="currentColor" fill-opacity=".502"/></svg>