<svg viewBox="0 0 16 16" xmlns="http://www.w3.org/2000/svg"><defs><style type="text/css" id="current-color-scheme">.ColorScheme-Text{color:#dedede}</style></defs><path class="ColorScheme-Text" d="M2 9V8c0-3.314 2.684-6 5.996-6a5.998 5.998 0 0 1 5.996 6c.019.069 0 1 0 1H3zm.999-1h9.993c0-2.761-2.237-5-4.997-5S2.998 5.239 2.998 8" fill="currentColor"/><path d="M2.406 8.393c0-.05.013-.231.028-.401.162-1.803 1.094-3.395 2.57-4.386a5.607 5.607 0 0 1 4.273-.83c1.772.366 3.344 1.677 4.062 3.387.29.693.477 1.537.477 2.165v.156H2.406z" class="ColorScheme-Text" fill="currentColor" fill-opacity=".502"/></svg>