<svg viewBox="0 0 16 16" xmlns="http://www.w3.org/2000/svg"><defs><style type="text/css" id="current-color-scheme">.ColorScheme-Text{color:#dedede}</style></defs><path class="ColorScheme-Text" d="M8 2 2 6.604 4.32 14h7.418L14 6.551zm0 1 5 3.793L11.115 13H4.933L2.999 6.836z" fill="currentColor"/><path d="M4.591 13.53c-.06-.1-2.089-6.546-2.089-6.636 0-.048 1.228-1.019 2.727-2.157 2.373-1.801 2.745-2.059 2.867-1.984.076.048 1.324.976 2.773 2.063l2.634 1.977-.143.467-1.037 3.378-.893 2.91-3.403.02c-1.871.01-3.417-.006-3.436-.037z" class="ColorScheme-Text" fill="currentColor" fill-opacity=".502"/></svg>