<svg viewBox="0 0 16 16" xmlns="http://www.w3.org/2000/svg"><defs><style type="text/css" id="current-color-scheme">.ColorScheme-Text{color:#dedede}</style></defs><path class="ColorScheme-Text" d="M8 2a6 6 0 0 0-6 6 6 6 0 0 0 6 6 6 6 0 0 0 6-6 6 6 0 0 0-6-6zm0 1a5 5 0 0 1 5 5 5 5 0 0 1-5 5 5 5 0 0 1-5-5 5 5 0 0 1 5-5zm0 3a2 2 0 0 0-2 2 2 2 0 0 0 2 2 2 2 0 0 0 2-2 2 2 0 0 0-2-2zm0 1a1 1 0 0 1 1 1 1 1 0 0 1-1 1 1 1 0 0 1-1-1 1 1 0 0 1 1-1z" fill="currentColor"/><path d="M7.519 13.635C6.156 13.498 4.94 12.934 3.995 12a5.84 5.84 0 0 1-1.596-2.867c-.1-.43-.142-1.53-.076-1.996.34-2.404 2.112-4.304 4.513-4.84.557-.125 1.514-.144 2.108-.042a5.753 5.753 0 0 1 4.485 3.786c1.108 3.18-.777 6.64-4.055 7.444-.602.148-1.313.205-1.855.15zm2.248-5.609c-.88-1.381-.992-1.339-1.847-1.82-1.098 1.003-1.75.627-1.69 1.923.043.965.635 1.346 1.714 1.652 1.06-.425 1.32-.772 1.823-1.755z" class="ColorScheme-Text" fill="currentColor" fill-opacity=".502"/></svg>