<svg viewBox="0 0 16 16" xmlns="http://www.w3.org/2000/svg"><defs><style type="text/css" id="current-color-scheme">.ColorScheme-Text{color:#dedede}</style></defs><path class="ColorScheme-Text" d="M7 2h1c3.314 0 6 2.684 6 5.996a5.998 5.998 0 0 1-6 5.996c-.069.019-1 0-1 0V3zm1 .999v9.993c2.761 0 5-2.237 5-4.997s-2.239-4.997-5-4.997" fill="currentColor"/><path d="M7.558 7.953V2.43l.513.048c2.007.191 3.872 1.357 4.75 2.971.477.875.613 1.448.607 2.561-.005.902-.03 1.081-.228 1.616-.327.884-.796 1.57-1.542 2.255-1.009.925-2.222 1.436-3.715 1.563l-.385.033z" class="ColorScheme-Text" fill="currentColor" fill-opacity=".502"/></svg>