<svg xmlns="http://www.w3.org/2000/svg" width="16" height="16"><path style="stroke:none;fill-rule:nonzero;fill:#25aedf;fill-opacity:1" d="M2.957.371h10.086a2.584 2.584 0 0 1 2.586 2.586v10.086a2.584 2.584 0 0 1-2.586 2.586H2.957a2.584 2.584 0 0 1-2.586-2.586V2.957A2.584 2.584 0 0 1 2.957.371zm0 0"/><path style="stroke:none;fill-rule:evenodd;fill:#fff;fill-opacity:1" d="M8 3.18 3.18 9.203h1.203L8 4.383l3.617 4.82h-1.086v3.617h1.207V9.203h1.082zM4.383 9.203v3.617H5.59V9.203zM10.41 3.18v2.41l1.207 1.445V3.18zM8 6.672a.843.843 0 1 0-.002 1.69A.843.843 0 0 0 8 6.671zm-1.809 4.945v1.203H9.81v-1.203zm0 0"/></svg>