<svg xmlns="http://www.w3.org/2000/svg" width="16" height="16"><path style="stroke:none;fill-rule:nonzero;fill:#ccc;fill-opacity:1" d="M9.695 1.273c-.71 0-1.304.66-1.418 1.532h5.664c-.12-.871-.707-1.532-1.425-1.532zm0 0"/><path style="stroke:none;fill-rule:nonzero;fill:gray;fill-opacity:1" d="M2.016 3.047h11.968c.95 0 1.72.77 1.72 1.719v6.03c0 .95-.77 1.72-1.72 1.72H2.016c-.95 0-1.72-.77-1.72-1.72v-6.03c0-.95.77-1.72 1.72-1.72zm0 0"/><path style="stroke:none;fill-rule:nonzero;fill:gray;fill-opacity:1" d="M2.016 5.258h11.968c.95 0 1.72.77 1.72 1.719v6.03c0 .95-.77 1.72-1.72 1.72H2.016c-.95 0-1.72-.77-1.72-1.72v-6.03c0-.95.77-1.72 1.72-1.72zm0 0"/></svg>