<svg viewBox="0 0 16 16" xmlns="http://www.w3.org/2000/svg"><path d="M1 2v12h8v-1H2.656l3.986-4.65 1.357 1.357c-.013-.024 6-6 6-6V8h1V2zm1.707 1h10.586L8 8.293zM2 3.707l3.934 3.934L2 12.231z" fill="currentColor" style="color:#dedede"/><path d="M15 11.5A2.5 2.5 0 0 0 12.5 9a2.5 2.5 0 0 0-2.5 2.5 2.5 2.5 0 0 0 2.5 2.5 2.5 2.5 0 0 0 2.5-2.5m-1 0a1.5 1.5 0 0 1-.148.645l-1.997-1.997A1.5 1.5 0 0 1 12.5 10a1.5 1.5 0 0 1 1.5 1.5m-.855 1.352A1.5 1.5 0 0 1 12.5 13a1.5 1.5 0 0 1-1.5-1.5 1.5 1.5 0 0 1 .148-.645z" fill="currentColor" style="color:#da4453"/></svg>