<svg xmlns="http://www.w3.org/2000/svg" width="16" height="16"><path style="stroke:none;fill-rule:nonzero;fill:#c19553;fill-opacity:1" d="M1 0C.566 0 0 .566 0 1v13c0 .41.59 1 1 1h13c.41 0 1-.59 1-1V1c0-.41-.59-1-1-1zm0 0"/><path style="stroke:none;fill-rule:nonzero;fill:#fff;fill-opacity:.196078" d="M1 0C.566 0 0 .566 0 1v4h15V1c0-.41-.59-1-1-1zm0 0"/><path style="stroke:none;fill-rule:nonzero;fill:#fff;fill-opacity:.392157" d="M6 2v6h3V2zm0 0"/><path style="stroke:none;fill-rule:evenodd;fill:#25aedf;fill-opacity:1" d="M16 12.875a3.124 3.124 0 1 1-6.25 0 3.124 3.124 0 1 1 6.25 0zm0 0"/><path style="stroke:none;fill-rule:nonzero;fill:#fff;fill-opacity:1" d="M12.672 11.027v.27a1.488 1.488 0 0 0-.875.422 1.492 1.492 0 0 0-.426 1.172l.488.129a1.022 1.022 0 0 1 .813-1.254v.332h.05l.903-.52zm1.21.676-.425.246a1.031 1.031 0 0 1 .328 1.242l-.25-.144-.023.043v.46a.085.085 0 0 1-.024.02l.024.016v.547l.953-.547-.281-.164a1.487 1.487 0 0 0-.282-1.703l-.02-.016zm-2.495 1.438.285 1.062.262-.262c.379.297.875.395 1.34.254v-.492a1.022 1.022 0 0 1-1.008-.094l.164-.164-.035-.035zm0 0"/></svg>