<svg xmlns="http://www.w3.org/2000/svg" width="16" height="16"><path style="stroke:none;fill-rule:nonzero;fill:#c19553;fill-opacity:1" d="M1 0C.566 0 0 .566 0 1v13c0 .41.59 1 1 1h13c.41 0 1-.59 1-1V1c0-.41-.59-1-1-1zm0 0"/><path style="stroke:none;fill-rule:nonzero;fill:#fff;fill-opacity:.196078" d="M1 0C.566 0 0 .566 0 1v4h15V1c0-.41-.59-1-1-1zm0 0"/><path style="stroke:none;fill-rule:nonzero;fill:#fff;fill-opacity:.392157" d="M6 2v6h3V2zm0 0"/><path style="stroke:none;fill-rule:nonzero;fill:#859900;fill-opacity:1" d="M11.43 16 16 12h-3V7h-3v5H7zm0 0"/></svg>