<svg xmlns="http://www.w3.org/2000/svg" width="16" height="16"><path style="stroke:none;fill-rule:nonzero;fill:#c19553;fill-opacity:1" d="M1 0C.566 0 0 .566 0 1v13c0 .41.59 1 1 1h13c.41 0 1-.59 1-1V1c0-.41-.59-1-1-1zm0 0"/><path style="stroke:none;fill-rule:nonzero;fill:#fff;fill-opacity:.196078" d="M1 0C.566 0 0 .566 0 1v4h15V1c0-.41-.59-1-1-1zm0 0"/><path style="stroke:none;fill-rule:nonzero;fill:#fff;fill-opacity:.392157" d="M6 2v6h3V2zm0 0"/><path style="stroke:none;fill-rule:evenodd;fill:#dc322f;fill-opacity:1" d="M16 12.875a3.124 3.124 0 1 1-6.25 0 3.124 3.124 0 1 1 6.25 0zm0 0"/><path style="stroke:none;fill-rule:nonzero;fill:#fff;fill-opacity:1" d="m11.492 10.93-.562.562 1.386 1.383-1.386 1.383.562.562 1.383-1.386 1.383 1.386.562-.562-1.386-1.383 1.386-1.383-.562-.562-1.383 1.386zm0 0"/></svg>