<svg viewBox="0 0 16 16" xmlns="http://www.w3.org/2000/svg"><defs><style type="text/css" id="current-color-scheme">.ColorScheme-Text{color:#dedede}</style></defs><path d="M4 6.166a1.74 1.74 0 0 1-1.162-1.902c.076-.56.438-1.05.968-1.308.278-.137.31-.143.7-.142.47.002.705.076 1.029.326 1.028.796.85 2.387-.33 2.954-.217.105-.304.123-.622.133-.276.008-.423-.007-.583-.061zm-.072 4.823V8.856h1.177v4.266H3.928zm5.863-6.497V2.724h3.524v3.537H9.791zm.251 7.058c.515-1.02.945-1.854.955-1.854.018 0 1.865 3.655 1.865 3.69 0 .01-.845.019-1.878.019H9.105z" class="ColorScheme-Text" fill="currentColor" fill-opacity=".5"/><path d="M4.5 2A2.5 2.5 0 0 0 2 4.5 2.5 2.5 0 0 0 4.5 7 2.5 2.5 0 0 0 7 4.5 2.5 2.5 0 0 0 4.5 2zM9 2v5h5V2H9zM4.5 3A1.5 1.5 0 0 1 6 4.5 1.5 1.5 0 0 1 4.5 6 1.5 1.5 0 0 1 3 4.5 1.5 1.5 0 0 1 4.5 3zM10 3h3v3h-3V3zM3 8v6h3V8H3zm8 0-3 6h6l-3-6zM4 9h1v4H4V9zm7 .729.89 1.775.891 1.775H9.22l.89-1.775.89-1.775z" class="ColorScheme-Text" fill="currentColor"/></svg>