<svg xmlns="http://www.w3.org/2000/svg" width="16" height="16"><path style="stroke:none;fill-rule:evenodd;fill:#00d455;fill-opacity:1" d="M8 1.75A6.248 6.248 0 0 1 14.25 8 6.248 6.248 0 0 1 8 14.25 6.248 6.248 0 0 1 1.75 8 6.248 6.248 0 0 1 8 1.75zm0 0"/><path style="stroke:none;fill-rule:nonzero;fill:#fff;fill-opacity:1" d="M11.848 8 9.297 6.203v.734L10.809 8 9.297 9.063v.734zM6.91 4.914H5.8v6.172h1.11zm0 0"/><path style="stroke:none;fill-rule:nonzero;fill:#fff;fill-opacity:1" d="M10.918 7.328H7.883v1.344h3.035zm0 0"/><path style="stroke:none;fill-rule:nonzero;fill:#fff;fill-opacity:1" d="M9.918 6.777h-.629V9.09h.629zm0 0"/></svg>