<svg xmlns="http://www.w3.org/2000/svg" width="16" height="16"><path style="stroke:none;fill-rule:nonzero;fill:#c19553;fill-opacity:1" d="M1.805 1C1.402 1 1 1.402 1 1.805v12.418c0 .375.402.777.777.777h12.446c.375 0 .777-.402.777-.777V1.777c0-.375-.402-.777-.777-.777zm0 0"/><path style="stroke:none;fill-rule:nonzero;fill:#fff;fill-opacity:.196078" d="M1.805 1C1.402 1 1 1.402 1 1.805V6h14V1.777c0-.375-.402-.777-.777-.777zm0 0"/><path style="stroke:none;fill-rule:nonzero;fill:#fff;fill-opacity:1" d="M7 1v1h1v1H7v1h1v1H7v1l1 .008v2L7 8v2h2V8l-1 .008V7h1V6l-1 .008V5h1V4H8V3h1V2H8V1zm0 0"/><path style="stroke:none;fill-rule:nonzero;fill:#859900;fill-opacity:1" d="M16 10h-3V7h-3v3H7v3h3v3h3v-3h3zm0 0"/></svg>