<svg xmlns="http://www.w3.org/2000/svg" width="16" height="16"><path style="stroke:none;fill-rule:nonzero;fill:#c19553;fill-opacity:1" d="M1.805 1C1.402 1 1 1.402 1 1.805v12.418c0 .375.402.777.777.777h12.446c.375 0 .777-.402.777-.777V1.777c0-.375-.402-.777-.777-.777zm0 0"/><path style="stroke:none;fill-rule:nonzero;fill:#fff;fill-opacity:.196078" d="M1.805 1C1.402 1 1 1.402 1 1.805V6h14V1.777c0-.375-.402-.777-.777-.777zm0 0"/><path style="stroke:none;fill-rule:nonzero;fill:#fff;fill-opacity:1" d="M7 1v1h1v1H7v1h1v1H7v1l1 .008v2L7 8v2h2V8l-1 .008V7h1V6l-1 .008V5h1V4H8V3h1V2H8V1zm0 0"/><path style="stroke:none;fill-rule:evenodd;fill:#25aedf;fill-opacity:1" d="M9.652 5.25c.145 0 .344.125.594.375l5 4c1.008 1.004 1 1 0 2l-5 4c-.75.75-.95.375-1-1.125-.012-.5 0-1.125 0-1.875h-.031c-4.969 0-6.969-3-6.938-7.031 1.97 2.031 3.97 3.031 6.97 2.968 0-.714-.013-1.328 0-1.812.03-1 .124-1.5.405-1.5zm0 0"/></svg>