<svg viewBox="0 0 16 16" xmlns="http://www.w3.org/2000/svg"><path fill="currentColor" d="M14 8a5.96 5.96 0 0 1-.844 3.031L10.47 8.344l.719-.719 1.624 1.625c.052-.195.098-.39.126-.594.007-.052.025-.103.03-.156a4.58 4.58 0 0 0 .032-.5 5 5 0 0 0-5-5c-.243 0-.486.028-.719.063-.136.02-.274.031-.406.062a4.737 4.737 0 0 0-.813.281c-.03.014-.063.018-.093.031-.092.041-.164.109-.25.157-.008.004-.023-.005-.032 0l-.718-.75A5.96 5.96 0 0 1 8 2a6 6 0 0 1 6 6zm-2.969 5.156A5.96 5.96 0 0 1 8 14a6 6 0 0 1-6-6c0-1.109.32-2.14.844-3.031l.75.75L5.5 7.656l-.688.688L3.188 6.75c-.05.195-.097.39-.124.594-.008.052-.026.103-.032.156C3.014 7.668 3 7.827 3 8s.014.332.031.5c.017.168.03.337.063.5.466 2.278 2.49 4 4.906 4 .248 0 .48-.028.719-.063.136-.02.274-.031.406-.062.287-.067.548-.167.813-.281.03-.013.063-.018.093-.031.09-.041.165-.11.25-.157h.031z" style="color:#dedede"/></svg>