<svg xmlns="http://www.w3.org/2000/svg" width="24" height="24"><path style="fill-rule:nonzero;fill:#fff;fill-opacity:1;stroke-width:28.191782;stroke-linecap:butt;stroke-linejoin:miter;stroke:#223656;stroke-opacity:1;stroke-miterlimit:4" d="M81.5 25.167h349c31.167 0 56.333 25.166 56.333 56.333v349c0 31.167-25.166 56.333-56.333 56.333h-349c-31.167 0-56.333-25.166-56.333-56.333v-349c0-31.167 25.166-56.333 56.333-56.333zm0 0" transform="scale(.04688)"/><path style="stroke:none;fill-rule:evenodd;fill:#223656;fill-opacity:1" d="M12.004 2.984c1.371 0 2.476 1.407 2.476 3.137v5.316c0 1.735-1.105 3.137-2.476 3.137-1.367 0-2.473-1.402-2.473-3.136V6.12c0-1.73 1.106-3.137 2.473-3.137zm0 0"/><path style="stroke:none;fill-rule:evenodd;fill:#223656;fill-opacity:1" d="m8.277 12.047-1.554.004c.14 3.219 2.257 5.02 4.562 5.336v2.066a4.572 4.572 0 0 0-2.723 1.54l6.91.023a4.387 4.387 0 0 0-2.605-1.547v-2.102c2.207-.355 4.215-2.105 4.41-5.312l-1.578-.008c-.265 5.015-7.125 5.05-7.422 0zm0 0"/></svg>