<svg xmlns="http://www.w3.org/2000/svg" width="24" height="24"><path style="fill-rule:nonzero;fill:#fff;fill-opacity:1;stroke-width:7.459075;stroke-linecap:butt;stroke-linejoin:miter;stroke:#000506;stroke-opacity:1;stroke-miterlimit:4" d="M-180.348 209.209h92.34c8.246 0 14.927 6.68 14.927 14.927v92.34c0 8.246-6.681 14.904-14.927 14.904h-92.34a14.886 14.886 0 0 1-14.905-14.905v-92.34c0-8.246 6.659-14.926 14.905-14.926zm0 0" transform="translate(35.772 -35.889) scale(.17716)"/><path style="stroke:none;fill-rule:evenodd;fill:#000;fill-opacity:1" d="M7.14 5.469c0 .922-.745 1.664-1.667 1.664a1.663 1.663 0 0 1-1.664-1.664c0-.918.746-1.668 1.664-1.668.922 0 1.668.75 1.668 1.668zm0 0"/><path style="stroke:none;fill-rule:evenodd;fill:#000;fill-opacity:1" d="M21.238 12A9.234 9.234 0 0 1 12 21.238 9.234 9.234 0 0 1 2.762 12 9.234 9.234 0 0 1 12 2.762 9.234 9.234 0 0 1 21.238 12zm0 0"/><path style="stroke:none;fill-rule:evenodd;fill:#000;fill-opacity:1" d="M20.137 5.469c0 .922-.746 1.664-1.664 1.664a1.666 1.666 0 0 1 0-3.332c.918 0 1.664.75 1.664 1.668zm0 13.043c0 .922-.746 1.664-1.664 1.664a1.66 1.66 0 0 1-1.664-1.664 1.663 1.663 0 1 1 3.328 0zm-12.997 0c0 .922-.745 1.664-1.667 1.664a1.663 1.663 0 1 1 0-3.328c.922 0 1.668.746 1.668 1.664zm0 0"/><path style="stroke:none;fill-rule:evenodd;fill:#f9de69;fill-opacity:1" d="M19.7 12c0 4.25-3.45 7.7-7.7 7.7S4.3 16.25 4.3 12 7.75 4.3 12 4.3s7.7 3.45 7.7 7.7zm0 0"/><path style="stroke:none;fill-rule:evenodd;fill:#ccc;fill-opacity:1" d="M15.992 12A3.99 3.99 0 0 1 12 15.992 3.99 3.99 0 0 1 8.008 12 3.99 3.99 0 0 1 12 8.008 3.99 3.99 0 0 1 15.992 12zm0 0"/><path style="stroke:none;fill-rule:evenodd;fill:#f9f9f9;fill-opacity:1" d="M13.703 12a1.702 1.702 0 1 1-3.406 0 1.702 1.702 0 1 1 3.406 0zm0 0"/></svg>