<svg xmlns="http://www.w3.org/2000/svg" width="24" height="24"><path style="fill-rule:nonzero;fill:#58785b;fill-opacity:1;stroke-width:18.73;stroke-linecap:butt;stroke-linejoin:miter;stroke:#3f5641;stroke-opacity:1;stroke-miterlimit:4" d="M78.583 31h354.75C459.667 31 481 52.333 481 78.583v354.75C481 459.667 459.667 481 433.333 481H78.583C52.333 481 31 459.667 31 433.333V78.583C31 52.333 52.333 31 78.583 31zm0 0" transform="scale(.04688)"/><path style="stroke:none;fill-rule:nonzero;fill:#fff;fill-opacity:1" d="M15.844 5.39h.937a.74.74 0 0 1 .754.727v.418a.741.741 0 0 1-.754.727h-.937a.741.741 0 0 1-.754-.727v-.418c0-.402.336-.726.754-.726zm0 2.72h.937c.418 0 .754.324.754.726v.418a.741.741 0 0 1-.754.726h-.937a.741.741 0 0 1-.754-.726v-.418a.74.74 0 0 1 .754-.727zm0 2.906h.937c.418 0 .754.324.754.726v.418a.741.741 0 0 1-.754.727h-.937a.741.741 0 0 1-.754-.727v-.418c0-.402.336-.726.754-.726zm0 2.718h.937a.74.74 0 0 1 .754.727v.418a.741.741 0 0 1-.754.726h-.937a.741.741 0 0 1-.754-.726v-.418a.74.74 0 0 1 .754-.727zm0 2.813h.937c.418 0 .754.324.754.726v.418a.741.741 0 0 1-.754.727h-.937a.741.741 0 0 1-.754-.727v-.418c0-.402.336-.726.754-.726zM7.219 5.39h.937a.74.74 0 0 1 .754.727v.418a.741.741 0 0 1-.754.727H7.22a.741.741 0 0 1-.754-.727v-.418c0-.402.336-.726.754-.726zm0 2.72h.937c.418 0 .754.324.754.726v.418a.741.741 0 0 1-.754.726H7.22a.741.741 0 0 1-.754-.726v-.418a.74.74 0 0 1 .754-.727zm0 2.906h.937c.418 0 .754.324.754.726v.418a.741.741 0 0 1-.754.727H7.22a.741.741 0 0 1-.754-.727v-.418c0-.402.336-.726.754-.726zm0 2.718h.937a.74.74 0 0 1 .754.727v.418a.741.741 0 0 1-.754.726H7.22a.741.741 0 0 1-.754-.726v-.418a.74.74 0 0 1 .754-.727zm0 2.813h.937c.418 0 .754.324.754.726v.418a.741.741 0 0 1-.754.727H7.22a.741.741 0 0 1-.754-.727v-.418c0-.402.336-.726.754-.726zm0 0"/><path style="stroke:none;fill-rule:nonzero;fill:#49494c;fill-opacity:1" d="M15.152 20.266a1.737 1.737 0 0 1-.382.152c-.262.062-5.766.008-5.973-.059-.258-.082-.567-.359-.73-.652-.122-.227-.133-.312-.122-.832.004-.316.012-.918.008-1.336a77.286 77.286 0 0 1 0-1.348c0-.328.004-.953.004-1.386v-2.793c0-.442-.004-1.07-.004-1.399 0-.328.012-.949.02-1.375.011-.43 0-.797-.02-.816-.016-.02-.027-.297-.012-.613.024-.774.024-2.102 0-2.602-.039-.71.192-1.18.727-1.477.242-.132.312-.136 3.148-.164 3.235-.03 3.207-.03 3.625.387.305.3.399.582.403 1.172 0 .262-.016.496-.031.516-.036.03-.032.754.015 2.168.012.316.004.593-.015.613-.02.02-.032.394-.02.832.008.434.02 1.039.02 1.348v5.562c0 1.852 0 2.344.007 2.711.016.637-.23 1.14-.668 1.39zm0 0"/><path style="stroke:none;fill-rule:nonzero;fill:#ccc;fill-opacity:1" d="M14.91 19.34c0 .32-.258.578-.574.578a.576.576 0 0 1 0-1.152c.316 0 .574.257.574.574zM11.566 3.652h.649V4.95h-.649zm0 0"/><path style="stroke:none;fill-rule:nonzero;fill:#fff;fill-opacity:1" d="M9.855 14.48c-.039-.043-.05-.128-.05-.386 0-.285.011-.344.066-.426.063-.09.09-.098.211-.09.129.012.137.016.145.117.007.059-.004.106-.024.106s-.062.031-.101.07c-.051.055-.067.11-.067.309 0 .136-.008.27-.02.3-.027.067-.093.067-.16 0zm4.125.032c-.027-.012-.039-.106-.039-.301 0-.27-.004-.285-.101-.375-.106-.098-.125-.16-.059-.223.07-.07.215-.047.29.047.062.078.066.125.058.469-.008.394-.024.43-.149.383zm0 0"/><path style="stroke:none;fill-rule:nonzero;fill:#fff;fill-opacity:1" d="M9.496 14.246c-.012-.016-.023-.18-.023-.375v-.351l.148-.153.145-.152.191.012c.262.023.281.035.27.12-.008.063-.036.079-.168.094a.445.445 0 0 0-.262.114.804.804 0 0 1-.125.11c-.012.003-.024.14-.035.3-.008.219-.024.285-.067.293a.092.092 0 0 1-.074-.012zm4.848-.031a.496.496 0 0 1-.016-.203c.027-.25-.012-.367-.164-.473a.45.45 0 0 0-.242-.101c-.117 0-.2-.07-.168-.145.012-.04.074-.055.246-.055h.23l.137.157c.164.187.172.218.16.574-.007.261-.015.281-.082.289a.101.101 0 0 1-.101-.043zm0 0"/><path style="stroke:none;fill-rule:nonzero;fill:#fff;fill-opacity:1" d="M9.148 13.996c-.027-.027-.039-.152-.039-.375l.004-.332.215-.238.219-.242.32.007.317.008v.102c0 .101 0 .101-.215.11-.235.01-.254.023-.473.28-.125.153-.133.176-.148.43-.02.242-.032.274-.09.281a.136.136 0 0 1-.11-.03zm0 0"/><path style="stroke:none;fill-rule:nonzero;fill:#fff;fill-opacity:1" d="M10.41 13.996c-.031-.031-.047-.238-.047-.797 0-.71 0-.765-.062-.844-.051-.062-.067-.132-.067-.296v-.215l-.629-.649v-.308c0-.172-.015-.332-.027-.356a.295.295 0 0 0-.14-.066l-.114-.024v-.953h.149c.14 0 .148 0 .183.125.02.075.067.14.098.157.039.007.078.074.098.148.043.156.128.176.144.031.016-.125.055-.176.149-.191.054-.004.078-.035.09-.14.015-.13.015-.13.167-.13.145 0 .145 0 .168.13.016.073.028.277.028.452 0 .348-.032.426-.18.426-.086 0-.117.07-.117.285 0 .156.11.317.441.637l.184.184.004.28c0 .157.011.302.027.325.016.031.129.055.3.066l.27.016.239.262c.129.144.257.261.28.261.028 0 .165-.124.306-.277l.253-.273.235.011c.32.012.336-.011.336-.398v-.3l.32-.321c.3-.305.313-.328.313-.469 0-.219-.032-.289-.13-.312-.16-.04-.171-.059-.171-.508 0-.469.02-.508.207-.492.094.011.113.027.144.144.028.094.059.137.114.153.062.011.086.046.101.14.024.145.043.168.11.14.035-.01.054-.062.054-.132 0-.094.016-.117.098-.145.082-.027.098-.054.105-.16.012-.117.02-.129.125-.14.18-.016.204.043.204.527 0 .438-.02.496-.153.496-.094 0-.113.07-.113.445v.297l-.305.29-.304.28-.016.227c-.024.219-.024.227-.125.25-.102.027-.11.04-.129.219l-.027.242c-.004.04-.07.05-.336.055-.18.008-.344.023-.352.039-.035.031-.047.824-.015.851.015.016.168.04.343.047l.32.016.012.14.008.141h-.508c-.37 0-.523-.012-.547-.043-.015-.02-.035-.207-.043-.41-.007-.203-.023-.383-.039-.39-.011-.016-.09.05-.175.144-.082.094-.176.168-.204.168-.03 0-.124-.074-.207-.164-.085-.094-.168-.164-.19-.164-.028 0-.044.129-.048.422l-.012.422-.222.007c-.137.008-.246-.007-.274-.027-.023-.02-.05-.098-.054-.176-.008-.11-.028-.144-.102-.18-.074-.035-.09-.066-.09-.152 0-.137-.078-.21-.148-.152-.031.027-.05.129-.055.36l-.015.32-.094.007c-.055.008-.121-.007-.14-.03zm0 0"/><path style="stroke:none;fill-rule:nonzero;fill:#fff;fill-opacity:1" d="M11.02 12.887c-.008-.07-.243-.102-.301-.043-.055.05.035.097.187.097.106 0 .125-.007.114-.054zm3.656 1.125c-.028-.012-.043-.098-.043-.27 0-.246-.004-.262-.13-.422-.202-.242-.253-.277-.425-.28-.242-.005-.32-.036-.32-.13 0-.082.004-.086.32-.094l.317-.007.222.25c.121.136.215.27.215.293.004.02.012.16.023.308.024.332-.02.418-.18.352zM8.8 13.781a1.974 1.974 0 0 1-.023-.379v-.355l.258-.3.254-.302.465.008.465.012v.078c0 .086-.004.086-.387.102a3.08 3.08 0 0 0-.402.03c-.285.325-.422.52-.422.614 0 .059-.008.2-.02.309-.015.183-.031.203-.093.203-.04 0-.082-.008-.094-.02zm0 0"/><path style="stroke:none;fill-rule:nonzero;fill:#fff;fill-opacity:1" d="M14.988 13.781c-.011-.011-.023-.16-.023-.328v-.308l-.195-.23c-.114-.126-.223-.24-.254-.25a1.835 1.835 0 0 0-.34-.02c-.383 0-.442-.016-.426-.13.008-.097-.043-.09.586-.074l.324.004.27.317c.144.175.27.347.273.39 0 .04.008.16.012.274.02.3-.004.375-.117.375-.047 0-.098-.008-.11-.02zm-3.438-1.765c-.07-.02-.073-.036-.085-.317-.008-.258-.02-.304-.09-.379a.491.491 0 0 1-.102-.187c-.02-.09-.003-.121.079-.207.058-.055.128-.102.156-.102.097 0 .238.098.281.196.047.117.02.222-.09.34-.07.074-.078.109-.07.28l.012.192h.828l.008-.207c.011-.184 0-.219-.075-.309-.125-.148-.125-.304.008-.421.106-.094.254-.075.363.046.098.114.094.254-.007.375-.075.086-.082.13-.082.36 0 .14-.016.277-.032.304-.02.032-.144.043-.527.047a6.095 6.095 0 0 1-.574-.011zm0 0"/></svg>