<svg xmlns="http://www.w3.org/2000/svg" width="24" height="24"><path style="fill-rule:nonzero;fill:#fff;fill-opacity:1;stroke-width:18.73;stroke-linecap:butt;stroke-linejoin:miter;stroke:#0093b8;stroke-opacity:1;stroke-miterlimit:4" d="M78.583 31h354.75C459.667 31 481 52.333 481 78.583v354.75C481 459.667 459.667 481 433.333 481H78.583C52.333 481 31 459.667 31 433.333V78.583C31 52.333 52.333 31 78.583 31zm0 0" transform="scale(.04688)"/><path style="stroke:none;fill-rule:nonzero;fill:#333;fill-opacity:1" d="M12 4.574a6.932 6.932 0 0 0-6.934 6.93v2.476a.496.496 0 1 0 .993 0v-2.476a5.942 5.942 0 0 1 11.882 0v2.476a.496.496 0 1 0 .992 0v-2.476A6.932 6.932 0 0 0 12 4.574zm0 0"/><path style="stroke:none;fill-rule:evenodd;fill:#0cf;fill-opacity:1" d="M5.809 12.988c-1.5 0-1.735 1.219-1.735 2.727 0 1.504.235 2.723 1.735 2.723 1.503 0 .746-1.22.746-2.723 0-1.508.758-2.727-.746-2.727zm12.53 0c-1.421 0-.702 1.219-.702 2.727 0 1.504-.719 2.723.703 2.723s1.586-1.22 1.586-2.723c0-1.508-.164-2.727-1.586-2.727zm0 0"/><path style="stroke:none;fill-rule:evenodd;fill:#000;fill-opacity:1" d="M7.05 12a1.49 1.49 0 0 0-1.491 1.484v4.457c0 .82.671 1.485 1.492 1.485.82 0 1.484-.664 1.484-1.485v-4.457c0-.82-.664-1.484-1.484-1.484zm9.9 0c-.821 0-1.485.664-1.485 1.484v4.457c0 .82.664 1.485 1.484 1.485a1.49 1.49 0 0 0 1.492-1.485v-4.457A1.49 1.49 0 0 0 16.95 12zm0 0"/></svg>