<svg xmlns="http://www.w3.org/2000/svg" width="24" height="24"><path style="fill-rule:nonzero;fill:#fff;fill-opacity:1;stroke-width:18.73;stroke-linecap:butt;stroke-linejoin:miter;stroke:#0093b8;stroke-opacity:1;stroke-miterlimit:4" d="M78.583 31h354.75C459.667 31 481 52.333 481 78.583v354.75C481 459.667 459.667 481 433.333 481H78.583C52.333 481 31 459.667 31 433.333V78.583C31 52.333 52.333 31 78.583 31zm0 0" transform="scale(.04688)"/><path style="stroke:none;fill-rule:evenodd;fill:#c4cbcf;fill-opacity:1" d="M11.988 6.96 9.473 5.349l2.32-1.688 2.516 1.617zm0 0"/><path style="stroke:none;fill-rule:evenodd;fill:#f9de69;fill-opacity:1" d="M10.02 10.23V6.074h3.746v4.156zm0 0"/><path style="stroke:none;fill-rule:evenodd;fill:#c4cbcf;fill-opacity:1" d="M9.313 16.547v-6.324h5.16v6.324zm0-7.527V7.27h5.16v1.75zm0 0"/><path style="stroke:none;fill-rule:evenodd;fill:#34495e;fill-opacity:1" d="M8.129 20.34v-3.836h7.742v3.836zm0 0"/></svg>