<svg xmlns="http://www.w3.org/2000/svg" width="24" height="24"><path style="fill-rule:nonzero;fill:#fff;fill-opacity:1;stroke-width:27.200571;stroke-linecap:butt;stroke-linejoin:miter;stroke:#4eaa07;stroke-opacity:1;stroke-miterlimit:4" d="M81.788-39.46h336.75c30 0 54.417 24.417 54.417 54.417v336.75c0 30.083-24.417 54.5-54.417 54.5H81.788c-30.083 0-54.5-24.417-54.5-54.5V14.957c0-30 24.417-54.417 54.5-54.417zm0 0" transform="translate(.276 3.404) scale(.04688)"/><path style="stroke:none;fill-rule:nonzero;fill:#fff;fill-opacity:1" d="M8.816 3.176c-.359 0-.648.195-.648.433v1.036H5.801c-.508 0-.922.277-.922.62v14.942c0 .344.414.617.922.617h12.398c.508 0 .922-.273.922-.617V5.266c0-.344-.414-.621-.922-.621h-2.367V3.609c0-.238-.289-.433-.648-.433zm0 0"/><path style="stroke:none;fill-rule:nonzero;fill:#2ca05a;fill-opacity:1" d="M9.465 3.695c-.285 0-.516.153-.516.344v1.078H6.418c-.461 0-.832.258-.832.582v14.074c0 .32.371.582.832.582h11.164c.461 0 .832-.261.832-.582V5.7c0-.324-.371-.582-.832-.582h-2.531V4.04c0-.191-.23-.344-.516-.344zm0 0"/><path style="stroke:none;fill-rule:evenodd;fill:#fff;fill-opacity:1" d="m12.066 7.54-3.71 6.226h3.71v4.152l3.711-6.227h-3.71zm0 0"/></svg>