<svg xmlns="http://www.w3.org/2000/svg" width="24" height="24"><path style="fill-rule:nonzero;fill:#fff;fill-opacity:1;stroke-width:28.191782;stroke-linecap:butt;stroke-linejoin:miter;stroke:#25aedf;stroke-opacity:1;stroke-miterlimit:4" d="M81.5 25.167h349c31.167 0 56.333 25.166 56.333 56.333v349c0 31.167-25.166 56.333-56.333 56.333h-349c-31.167 0-56.333-25.166-56.333-56.333v-349c0-31.167 25.166-56.333 56.333-56.333zm0 0" transform="scale(.04688)"/><path style="stroke:none;fill-rule:nonzero;fill:#25aedf;fill-opacity:1" d="m7.023 8.172 3.73 3.773-3.73 3.774 1.184 1.195 3.105-3.066v7.203l5.665-5.344-3.434-3.762 3.426-3.761-5.625-5.235-.028 7.172-3.101-3.14zm6-1.692 1.72 1.637-1.72 2.121zm0 7.532 1.723 1.758-1.719 1.64zm0 0"/></svg>