<svg xmlns="http://www.w3.org/2000/svg" width="24" height="24"><path style="fill-rule:nonzero;fill:#fff;fill-opacity:1;stroke-width:7.459076;stroke-linecap:butt;stroke-linejoin:miter;stroke:#25aedf;stroke-opacity:1;stroke-miterlimit:4" d="M21.564 168.17h92.34c8.246 0 14.904 6.681 14.904 14.927v92.34a14.886 14.886 0 0 1-14.905 14.905h-92.34c-8.246 0-14.926-6.659-14.926-14.905v-92.34c0-8.246 6.68-14.927 14.927-14.927zm0 0" transform="translate(0 -28.618) scale(.17716)"/><path style="stroke:none;fill-rule:nonzero;fill:#2d2d2d;fill-opacity:1" d="M19.27 11.629c0 4.031-3.27 7.3-7.301 7.3a7.303 7.303 0 1 1 7.3-7.3zm0 0"/><path style="stroke:none;fill-rule:nonzero;fill:#2d2d2d;fill-opacity:1" d="M20.648 11.621A8.647 8.647 0 0 1 12 20.27a8.647 8.647 0 0 1-8.648-8.649A8.65 8.65 0 0 1 12 2.973a8.65 8.65 0 0 1 8.648 8.648zm0 0"/><path style="stroke:none;fill-rule:nonzero;fill:#173f7e;fill-opacity:1" d="M18.988 11.621a6.988 6.988 0 0 1-13.976 0A6.985 6.985 0 0 1 12 4.637a6.985 6.985 0 0 1 6.988 6.984zm0 0"/><path style="stroke:none;fill-rule:evenodd;fill:#2980b9;fill-opacity:1" d="M12.168 5.957a5.648 5.648 0 0 0-5.645 5.648 5.645 5.645 0 0 0 5.645 5.645 5.648 5.648 0 0 0 5.648-5.645 5.651 5.651 0 0 0-5.648-5.648zm.074 2.879a2.716 2.716 0 0 1 2.715 2.71 2.716 2.716 0 0 1-2.715 2.712 2.712 2.712 0 0 1 0-5.422zm0 0"/><path style="stroke:none;fill-rule:evenodd;fill:#bdc3c7;fill-opacity:1" d="M15.559 9.945a1.98 1.98 0 0 0-3.961 0c0 1.098.89 1.985 1.98 1.985 1.098 0 1.98-.887 1.98-1.985"/></svg>