<svg xmlns="http://www.w3.org/2000/svg" width="24" height="24"><path style="stroke:none;fill-rule:nonzero;fill:gray;fill-opacity:1" d="M4.582 3.637H19.41c.52 0 .942.418.942.937v10.88a.94.94 0 0 1-.942.94H4.582a.94.94 0 0 1-.945-.94V4.573a.94.94 0 0 1 .945-.937zm0 0"/><path style="stroke:none;fill-rule:nonzero;fill:#25aedf;fill-opacity:1" d="M5.203 4.828H18.79v10.375H5.203zm0 0"/><path style="stroke:none;fill-rule:nonzero;fill:gray;fill-opacity:1" d="M3.637 16.89h16.715l3.378 3.473H7.016zm0 0"/><path style="stroke:none;fill-rule:nonzero;fill:gray;fill-opacity:1" d="M20.363 16.89H3.648L.27 20.364h16.714zm0 0"/><path style="stroke:none;fill-rule:nonzero;fill:#fff;fill-opacity:1" d="M4.137 17.375h15.718v.203H4.137zm-.555.582H20.41v.203H3.582zm-.637.609h18.106v.204H2.945zm0 0"/><path style="stroke:none;fill-rule:nonzero;fill:#fff;fill-opacity:1" d="m19.762 17.477.12-.122 1.329 1.329-.121.12zm0 0"/><path style="stroke:none;fill-rule:nonzero;fill:#fff;fill-opacity:1" d="m19.762 17.477.12-.122 1.329 1.329-.121.12zm-1.336 0 .117-.122 1.328 1.329-.117.12zm-1.442 0 .121-.122 1.325 1.329-.121.12zm-1.359 0 .121-.122 1.328 1.329-.125.12zm-1.418 0 .117-.122 1.328 1.329-.117.12zm-1.711 0 .121-.122 1.328 1.329-.12.12zm-8.226 0-.122-.122-1.328 1.329.121.12zm0 0"/><path style="stroke:none;fill-rule:nonzero;fill:#fff;fill-opacity:1" d="m4.27 17.477-.122-.122-1.328 1.329.121.12zm1.335 0-.117-.122-1.332 1.329.125.12zm1.445 0-.124-.122-1.328 1.329.12.12zm1.356 0-.12-.122-1.329 1.329.121.12zm1.418 0-.117-.122-1.328 1.329.121.12zm1.711 0-.12-.122-1.33 1.329.122.12zm1.5 1.175.152-.078.872 1.66-.149.082zm-2.015 0-.149-.078-.879 1.66.153.082zm0 0"/><path style="stroke:none;fill-rule:nonzero;fill:#fff;fill-opacity:1" d="M10.035 20.137h3.93v.148h-3.93zm.262-.52h3.41v.145h-3.41zm0 0"/><path style="stroke:none;fill-rule:nonzero;fill:#fff;fill-opacity:1" d="M12.117 19.715v.469h-.144v-.47zm0 0"/></svg>