<svg xmlns="http://www.w3.org/2000/svg" width="24" height="24"><path style="fill-rule:nonzero;fill:#fff;fill-opacity:1;stroke-width:28.191782;stroke-linecap:butt;stroke-linejoin:miter;stroke:#25aedf;stroke-opacity:1;stroke-miterlimit:4" d="M81.5 25.167h349c31.167 0 56.333 25.166 56.333 56.333v349c0 31.167-25.166 56.333-56.333 56.333h-349c-31.167 0-56.333-25.166-56.333-56.333v-349c0-31.167 25.166-56.333 56.333-56.333zm0 0" transform="scale(.04688)"/><path style="stroke:none;fill-rule:evenodd;fill:gray;fill-opacity:1" d="m10.574 18.77-2.281 1.492h7.41l-2.277-1.492zm0 0"/><path style="stroke:none;fill-rule:evenodd;fill:gray;fill-opacity:1" d="m10.574 18.313-2.281 1.496h7.41l-2.277-1.497zm0 0"/><path style="stroke:none;fill-rule:nonzero;fill:#4d4d4d;fill-opacity:1" d="M10.414 15.566h3.172v3.532h-3.172zm0 0"/><path style="stroke:none;fill-rule:nonzero;fill:gray;fill-opacity:1" d="M4.129 3.738H19.87c.55 0 .996.43.996.953v11.024c0 .527-.445.953-.996.953H4.13c-.55 0-.996-.426-.996-.953V4.69c0-.523.445-.953.996-.953zm0 0"/><path style="stroke:none;fill-rule:nonzero;fill:#25aedf;fill-opacity:1" d="M4.79 4.95h14.42v10.51H4.79zm0 0"/><path style="stroke:none;fill-rule:evenodd;fill:#000;fill-opacity:1" d="M8.293 19.809v.453h7.414v-.453zm0 0"/></svg>