<svg xmlns="http://www.w3.org/2000/svg" width="24" height="24"><path style="fill-rule:nonzero;fill:#ececec;fill-opacity:1;stroke-width:27.983692;stroke-linecap:butt;stroke-linejoin:miter;stroke:#25aedf;stroke-opacity:1;stroke-miterlimit:4" d="M82.75 26.833h346.5c30.917 0 55.917 25 55.917 55.917v346.5c0 30.917-25 55.917-55.917 55.917H82.75c-30.917 0-55.917-25-55.917-55.917V82.75c0-30.917 25-55.917 55.917-55.917zm0 0" transform="scale(.04688)"/><path style="stroke:none;fill-rule:nonzero;fill:#6d7a7f;fill-opacity:1" d="M6.555 4.559h10.89a.7.7 0 0 1 .703.703v13.515a.7.7 0 0 1-.703.703H6.555a.7.7 0 0 1-.703-.703V5.262a.7.7 0 0 1 .703-.703zm0 0"/><path style="stroke:none;fill-rule:nonzero;fill:#15495d;fill-opacity:1" d="M6.77 18.137h5.168c.105 0 .195.086.195.191v.379c0 .11-.09.195-.195.195H6.77a.193.193 0 0 1-.196-.195v-.379c0-.105.086-.191.196-.191zm0 0"/><path style="stroke:none;fill-rule:nonzero;fill:#25aedf;fill-opacity:1" d="M6.555 4.52h10.89c.39 0 .703.273.703.613v11.851c0 .34-.312.614-.703.614H6.555c-.39 0-.703-.274-.703-.614V5.133c0-.34.312-.613.703-.613zm0 0"/><path style="stroke:none;fill-rule:nonzero;fill:#d1d2d3;fill-opacity:1" d="M15.734 18.52a.343.343 0 1 1-.687 0c0-.192.156-.348.348-.348.187 0 .34.156.34.348zm1.066 0a.348.348 0 0 1-.347.343.345.345 0 1 1 .348-.344zm0 0"/><path style="stroke:none;fill-rule:nonzero;fill:#ebebeb;fill-opacity:1" d="M15.262 14.27c.875-.883 1.312-1.938 1.312-3.18 0-1.238-.437-2.297-1.312-3.172-.875-.879-1.934-1.313-3.172-1.313-1.242 0-2.3.434-3.18 1.313-.875.875-1.312 1.934-1.312 3.172 0 1.242.437 2.297 1.312 3.18.88.875 1.938 1.312 3.18 1.312 1.238 0 2.297-.437 3.172-1.312zm0 0"/><path style="stroke:none;fill-rule:nonzero;fill:#367bf0;fill-opacity:1" d="M11.152 13.723v-.301h1.621v.601h-1.62zm0-.899v-.289h1.621v.586h-1.62zm.477-.64a1.178 1.178 0 0 1-.828-.82 1.53 1.53 0 0 1 0-.68c.117-.414.43-.72.836-.82.156-.04.472-.044.625-.005.347.082.664.348.797.672.12.285.129.68.011.961a1.184 1.184 0 0 1-.808.7 1.815 1.815 0 0 1-.633-.008zm.484-.454a.775.775 0 0 0 .559-.593c.031-.133.012-.246-.067-.41-.136-.293-.46-.473-.746-.418-.425.078-.714.504-.601.89a.778.778 0 0 0 .555.531.494.494 0 0 0 .3 0zm-2.054-1.585c-.106-.11-.176-.188-.176-.211 0-.043 1.043-1.086 1.09-1.086.047 0 .386.343.386.398 0 .055-1.023 1.078-1.078 1.078-.035 0-.09-.043-.222-.18zm2.98-.352c-.348-.344-.457-.457-.457-.484 0-.032.137-.176.574-.618.469-.464.586-.574.621-.574.032 0 .125.086.493.461.28.285.453.473.453.496.007.055-1.118 1.164-1.184 1.168-.035.004-.11-.062-.5-.449zm-3.676-.328c-.133-.137-.164-.176-.164-.211 0-.043.07-.117.524-.57.402-.407.523-.52.558-.52.055 0 .38.324.38.383 0 .031-.118.152-.52.558-.454.454-.528.524-.57.524-.036 0-.075-.031-.208-.164zm0 0"/></svg>