<svg xmlns="http://www.w3.org/2000/svg" width="24" height="24"><defs><clipPath id="a"><path d="M12 10.5h5v5.25h-5zm0 0"/></clipPath><clipPath id="b"><path d="M14.371 6.652a4.74 4.74 0 0 0-6.476 1.739 4.736 4.736 0 0 0 1.734 6.476 4.737 4.737 0 0 0 6.476-1.738 4.738 4.738 0 0 0-1.734-6.477zm-1.723 2.989c.618.359.829 1.148.473 1.77a1.294 1.294 0 0 1-1.77.468 1.293 1.293 0 1 1 1.297-2.238zm0 0"/></clipPath><clipPath id="c"><path d="M7 6h5v5H7zm0 0"/></clipPath><clipPath id="d"><path d="M9.648 14.91a4.737 4.737 0 0 0 6.477-1.734 4.741 4.741 0 1 0-6.477 1.734zm1.723-2.984a1.294 1.294 0 1 1 1.299-2.24 1.294 1.294 0 0 1-1.299 2.24zm0 0"/></clipPath></defs><path style="fill-rule:nonzero;fill:#ececec;fill-opacity:1;stroke-width:27.983692;stroke-linecap:butt;stroke-linejoin:miter;stroke:#25aedf;stroke-opacity:1;stroke-miterlimit:4" d="M82.75 26.833h346.5c30.917 0 55.917 25 55.917 55.917v346.5c0 30.917-25 55.917-55.917 55.917H82.75c-30.917 0-55.917-25-55.917-55.917V82.75c0-30.917 25-55.917 55.917-55.917zm0 0" transform="scale(.04688)"/><path style="stroke:none;fill-rule:nonzero;fill:#6d7a7f;fill-opacity:1" d="M6.164 3.547h11.672c.418 0 .754.34.754.75v14.488a.754.754 0 0 1-.754.754H6.164a.754.754 0 0 1-.754-.754V4.297c0-.41.336-.75.754-.75zm0 0"/><path style="stroke:none;fill-rule:nonzero;fill:#15495d;fill-opacity:1" d="M6.59 18.098h10.77c.222 0 .402.09.402.203v.406c0 .117-.18.211-.403.211H6.59c-.222 0-.402-.094-.402-.211v-.406c0-.113.18-.203.403-.203zm0 0"/><path style="stroke:none;fill-rule:nonzero;fill:#25aedf;fill-opacity:1" d="M6.164 3.504h11.672c.418 0 .754.297.754.66V16.86c0 .364-.336.66-.754.66H6.164c-.418 0-.754-.296-.754-.66V4.164c0-.363.336-.66.754-.66zm0 0"/><path style="stroke:none;fill-rule:nonzero;fill:#3ecdf6;fill-opacity:1" d="M7.52 18.363a5.498 5.498 0 0 0 4.34 2.133 5.5 5.5 0 0 0 4.34-2.133zm0 0"/><path style="fill-rule:nonzero;fill:gray;fill-opacity:1;stroke-width:1.569832;stroke-linecap:butt;stroke-linejoin:miter;stroke:#d4d4d4;stroke-opacity:1;stroke-miterlimit:4" d="M255.974 113.013c-69.379.04-125.56 56.247-125.61 125.677-.012 69.288 56.247 125.56 125.625 125.52 69.378-.04 125.611-56.157 125.52-125.625.102-69.34-56.157-125.611-125.535-125.572zm.06 91.345c18.913.07 34.2 15.374 34.13 34.287.071 18.952-15.322 34.29-34.236 34.22-18.861.02-34.147-15.284-34.219-34.236.07-18.913 15.374-34.2 34.325-34.27zm0 0" transform="rotate(29.998 7.568 14.24) scale(.03776)"/><g clip-path="url(#a)"><g clip-path="url(#b)"><path style="stroke:none;fill-rule:evenodd;fill:#f2f2f2;fill-opacity:1" d="m12.754 10.66 4.758.8-2.184 3.786-3.16-4.082zm0 0"/></g></g><g clip-path="url(#c)"><g clip-path="url(#d)"><path style="stroke:none;fill-rule:evenodd;fill:#f2f2f2;fill-opacity:1" d="m11.266 10.906-4.758-.8L8.69 6.32l3.16 4.082zm0 0"/></g></g><path style="fill-rule:nonzero;fill:#fff;fill-opacity:1;stroke-width:2.780315;stroke-linecap:butt;stroke-linejoin:miter;stroke:#e7e7e7;stroke-opacity:1;stroke-miterlimit:4" d="M255.986 185.035c-29.614.016-53.617 24.027-53.6 53.642-.036 29.525 24.027 53.617 53.552 53.652 29.704-.068 53.707-24.08 53.69-53.693-.016-29.615-24.027-53.618-53.642-53.601zm-.016 25.213c15.757-.019 28.478 12.704 28.497 28.461-.033 15.667-12.756 28.388-28.423 28.355-15.757.02-28.478-12.704-28.586-28.409.07-15.808 12.794-28.53 28.512-28.407zm0 0" transform="rotate(29.998 7.568 14.24) scale(.03776)"/></svg>