<svg xmlns="http://www.w3.org/2000/svg" width="24" height="24"><path style="fill-rule:nonzero;fill:#ececec;fill-opacity:1;stroke-width:27.983692;stroke-linecap:butt;stroke-linejoin:miter;stroke:#25aedf;stroke-opacity:1;stroke-miterlimit:4" d="M82.75 26.833h346.5c30.917 0 55.917 25 55.917 55.917v346.5c0 30.917-25 55.917-55.917 55.917H82.75c-30.917 0-55.917-25-55.917-55.917V82.75c0-30.917 25-55.917 55.917-55.917zm0 0" transform="scale(.04688)"/><path style="stroke:none;fill-rule:nonzero;fill:#6d7a7f;fill-opacity:1" d="M5.668 3.348h12.664c.453 0 .816.363.816.816v15.719a.816.816 0 0 1-.816.816H5.668a.82.82 0 0 1-.82-.816V4.164c0-.453.367-.816.82-.816zm0 0"/><path style="stroke:none;fill-rule:nonzero;fill:#15495d;fill-opacity:1" d="M5.914 19.133h6.012c.125 0 .226.101.226.226v.442a.223.223 0 0 1-.226.222H5.914a.223.223 0 0 1-.223-.222v-.442c0-.125.102-.226.223-.226zm0 0"/><path style="stroke:none;fill-rule:nonzero;fill:#25aedf;fill-opacity:1" d="M5.668 3.3h12.664c.453 0 .82.321.82.716v13.777c0 .395-.367.719-.82.719H5.668c-.453 0-.816-.325-.816-.719V4.016c0-.395.363-.715.816-.715zm0 0"/><path style="stroke:none;fill-rule:nonzero;fill:#d1d2d3;fill-opacity:1" d="M16.344 19.578a.4.4 0 0 1-.403.399.401.401 0 1 1 .402-.398zm1.234 0c0 .223-.18.399-.398.399a.398.398 0 0 1-.403-.399.401.401 0 1 1 .8 0zm0 0"/><path style="stroke:none;fill-rule:nonzero;fill:#ebebeb;fill-opacity:1" d="M15.691 14.602c1.02-1.02 1.532-2.25 1.532-3.692 0-1.441-.512-2.672-1.532-3.691-1.02-1.02-2.25-1.528-3.691-1.528-1.441 0-2.672.508-3.691 1.528-1.02 1.02-1.532 2.25-1.532 3.691 0 1.442.512 2.672 1.532 3.692s2.25 1.527 3.691 1.527c1.441 0 2.672-.508 3.691-1.527zm0 0"/><path style="fill-rule:nonzero;fill:#367bf0;fill-opacity:1;stroke-width:5.063694;stroke-linecap:butt;stroke-linejoin:miter;stroke:#367bf0;stroke-opacity:1;stroke-miterlimit:0" d="M271.972-857.025h23.24v23.138h-23.24zm0 0" transform="matrix(0 -.03866 .03866 0 45.723 20.1)"/><path style="fill-rule:nonzero;fill:#367bf0;fill-opacity:1;stroke-width:5.063694;stroke-linecap:butt;stroke-linejoin:miter;stroke:#367bf0;stroke-opacity:1;stroke-miterlimit:0" d="M-874.707-184.572c9.296 0 16.874 7.578 16.874 16.975 0 9.195-7.578 16.773-16.874 16.773s-16.874-7.578-16.874-16.773c0-9.397 7.578-16.975 16.874-16.975zm-29.201-83.763c6.265 0 11.216 4.951 11.216 11.216 0 6.264-4.951 11.215-11.216 11.215-6.163 0-11.215-4.95-11.215-11.215s5.052-11.216 11.215-11.216zm0 0" transform="translate(45.723 20.1) scale(.03866)"/><path style="fill-rule:evenodd;fill:#367bf0;fill-opacity:1;stroke-width:5.063694;stroke-linecap:butt;stroke-linejoin:miter;stroke:#367bf0;stroke-opacity:1;stroke-miterlimit:0" d="M-885.417-309.155s10.609-22.633 10.912-22.33c.202.303 10.407 22.33 10.407 22.33zm0 0" transform="translate(45.723 20.1) scale(.03866)"/><path style="fill:none;stroke-width:9.140924;stroke-linecap:butt;stroke-linejoin:miter;stroke:#367bf0;stroke-opacity:1;stroke-miterlimit:0" d="M-875.111-189.523c-1.819-19.905-28.898-30.009-28.898-41.528 0-7.88.404-11.316.404-21.218m28.797 39.305c0-20.714 19.4-25.564 28.999-40.82 1.414-2.628.505-25.968.505-27.484m-29.605 113.065v-146.711" transform="translate(45.723 20.1) scale(.03866)"/></svg>