<svg xmlns="http://www.w3.org/2000/svg" width="24" height="24"><defs><clipPath id="a"><path d="M12 11h5v5h-5zm0 0"/></clipPath><clipPath id="b"><path d="M14.355 7.27a4.709 4.709 0 0 0-6.437 1.722 4.71 4.71 0 0 0 1.727 6.438 4.71 4.71 0 1 0 4.71-8.16zm-1.714 2.968a1.28 1.28 0 0 1 .472 1.754 1.289 1.289 0 0 1-1.754.473 1.287 1.287 0 0 1-.472-1.758 1.28 1.28 0 0 1 1.754-.469zm0 0"/></clipPath><clipPath id="c"><path d="M7 6.75h5V12H7zm0 0"/></clipPath><clipPath id="d"><path d="M9.66 15.473a4.713 4.713 0 0 0 6.442-1.723 4.714 4.714 0 0 0-1.727-6.438 4.709 4.709 0 0 0-6.438 1.723 4.714 4.714 0 0 0 1.723 6.438zm1.715-2.965a1.288 1.288 0 0 1-.469-1.758 1.284 1.284 0 0 1 1.754-.469c.617.356.828 1.137.469 1.754a1.28 1.28 0 0 1-1.754.473zm0 0"/></clipPath></defs><path style="fill-rule:nonzero;fill:#ececec;fill-opacity:1;stroke-width:27.983692;stroke-linecap:butt;stroke-linejoin:miter;stroke:#25aedf;stroke-opacity:1;stroke-miterlimit:4" d="M82.75 26.833h346.5c30.917 0 55.917 25 55.917 55.917v346.5c0 30.917-25 55.917-55.917 55.917H82.75c-30.917 0-55.917-25-55.917-55.917V82.75c0-30.917 25-55.917 55.917-55.917zm0 0" transform="scale(.04688)"/><path style="stroke:none;fill-rule:nonzero;fill:#6d7a7f;fill-opacity:1" d="M5.852 3.602h12.293c.44 0 .796.355.796.793v15.257c0 .438-.355.79-.796.79H5.852a.79.79 0 0 1-.793-.79V4.395c0-.438.355-.793.793-.793zm0 0"/><path style="stroke:none;fill-rule:nonzero;fill:#15495d;fill-opacity:1" d="M6.094 18.926h5.836c.12 0 .218.097.218.219v.43a.218.218 0 0 1-.218.214H6.094a.214.214 0 0 1-.215-.215v-.43c0-.12.094-.218.215-.218zm0 0"/><path style="stroke:none;fill-rule:nonzero;fill:#25aedf;fill-opacity:1" d="M5.855 3.559h12.293c.438 0 .793.308.793.691v13.375c0 .383-.355.695-.793.695H5.855c-.44 0-.796-.312-.796-.695V4.25c0-.383.355-.691.796-.691zm0 0"/><path style="stroke:none;fill-rule:nonzero;fill:#d1d2d3;fill-opacity:1" d="M16.215 19.355a.385.385 0 0 1-.387.387.385.385 0 0 1-.387-.387c0-.21.172-.39.387-.39.215 0 .387.18.387.39zm1.199 0a.388.388 0 0 1-.777 0c0-.21.175-.39.39-.39.215 0 .387.18.387.39zm0 0"/><path style="fill-rule:nonzero;fill:gray;fill-opacity:1;stroke-width:1.569832;stroke-linecap:butt;stroke-linejoin:miter;stroke:#d4d4d4;stroke-opacity:1;stroke-miterlimit:4" d="M256.009 113.125c-69.397-.078-125.62 56.18-125.608 125.525.012 69.345 56.18 125.62 125.616 125.556 69.345-.012 125.567-56.27 125.607-125.525-.012-69.346-56.27-125.568-125.615-125.556zm-.071 91.268c18.979-.02 34.308 15.29 34.328 34.268-.032 18.89-15.431 34.27-34.23 34.186-18.98.02-34.308-15.289-34.328-34.268.032-18.889 15.393-34.128 34.23-34.186zm0 0" transform="matrix(.0325 .01876 -.01876 .0325 8.158 -1.21)"/><g clip-path="url(#a)"><g clip-path="url(#b)"><path style="stroke:none;fill-rule:evenodd;fill:#f2f2f2;fill-opacity:1" d="m12.75 11.246 4.73.8-2.171 3.759-3.141-4.059zm0 0"/></g></g><g clip-path="url(#c)"><g clip-path="url(#d)"><path style="stroke:none;fill-rule:evenodd;fill:#f2f2f2;fill-opacity:1" d="m11.27 11.496-4.73-.8 2.175-3.762 3.14 4.058zm0 0"/></g></g><path style="fill-rule:nonzero;fill:#fff;fill-opacity:1;stroke-width:2.780315;stroke-linecap:butt;stroke-linejoin:miter;stroke:#e7e7e7;stroke-opacity:1;stroke-miterlimit:4" d="M255.942 185.04c-29.567.002-53.59 23.969-53.588 53.535.055 29.657 24.021 53.68 53.678 53.626 29.566-.003 53.59-23.97 53.587-53.536-.002-29.566-23.969-53.59-53.677-53.625zm-.03 25.138c15.854-.02 28.512 12.745 28.57 28.457-.086 15.675-12.798 28.423-28.51 28.48-15.713.057-28.423-12.797-28.48-28.51.085-15.674 12.797-28.422 28.42-28.427zm0 0" transform="matrix(.0325 .01876 -.01876 .0325 8.158 -1.21)"/></svg>