<svg xmlns="http://www.w3.org/2000/svg" width="24" height="24"><path style="fill-rule:nonzero;fill:#ececec;fill-opacity:1;stroke-width:27.983692;stroke-linecap:butt;stroke-linejoin:miter;stroke:#25aedf;stroke-opacity:1;stroke-miterlimit:4" d="M82.75 26.833h346.5c30.917 0 55.917 25 55.917 55.917v346.5c0 30.917-25 55.917-55.917 55.917H82.75c-30.917 0-55.917-25-55.917-55.917V82.75c0-30.917 25-55.917 55.917-55.917zm0 0" transform="scale(.04688)"/><path style="stroke:none;fill-rule:nonzero;fill:#6d7a7f;fill-opacity:1" d="M6.043 7.41h11.914c.426 0 .77.274.77.613V19.88c0 .34-.344.613-.77.613H6.043c-.426 0-.77-.273-.77-.613V8.023c0-.34.344-.613.77-.613zm0 0"/><path style="stroke:none;fill-rule:nonzero;fill:#15495d;fill-opacity:1" d="M6.277 19.313h5.657c.117 0 .21.074.21.167v.336c0 .094-.093.172-.21.172H6.277c-.117 0-.21-.078-.21-.172v-.336c0-.093.093-.168.21-.168zm0 0"/><path style="stroke:none;fill-rule:nonzero;fill:#d1d2d3;fill-opacity:1" d="M16.086 19.648c0 .165-.168.301-.379.301-.207 0-.375-.137-.375-.3 0-.169.168-.301.375-.301.211 0 .379.132.379.3zm1.164-.003c0 .168-.168.304-.379.304-.207 0-.375-.137-.375-.304 0-.165.168-.297.375-.297.211 0 .379.132.379.297zm0 0"/><path style="stroke:none;fill-rule:nonzero;fill:#6d7a7f;fill-opacity:1" d="M6.043 6.113h11.914c.426 0 .77.274.77.617v11.852c0 .336-.344.617-.77.617H6.043c-.426 0-.77-.281-.77-.617V6.73c0-.343.344-.617.77-.617zm0 0"/><path style="stroke:none;fill-rule:nonzero;fill:#15495d;fill-opacity:1" d="M6.277 18.02h5.657c.117 0 .21.074.21.164v.336c0 .093-.093.168-.21.168H6.277c-.117 0-.21-.075-.21-.168v-.336c0-.09.093-.164.21-.164zm0 0"/><path style="stroke:none;fill-rule:nonzero;fill:#d1d2d3;fill-opacity:1" d="M16.086 18.352c0 .168-.168.3-.379.3-.207 0-.375-.132-.375-.3 0-.168.168-.301.375-.301.211 0 .379.133.379.3zm1.164 0c0 .168-.168.3-.379.3-.207 0-.375-.132-.375-.3 0-.168.168-.301.375-.301.211 0 .379.133.379.3zm0 0"/><path style="stroke:none;fill-rule:nonzero;fill:#6d7a7f;fill-opacity:1" d="M6.043 4.836h11.914c.426 0 .77.277.77.621v11.848c0 .34-.344.62-.77.62H6.043c-.426 0-.77-.28-.77-.62V5.457c0-.344.344-.621.77-.621zm0 0"/><path style="stroke:none;fill-rule:nonzero;fill:#15495d;fill-opacity:1" d="M6.277 16.742h5.657c.117 0 .21.078.21.172v.332c0 .094-.093.168-.21.168H6.277c-.117 0-.21-.074-.21-.168v-.332c0-.094.093-.172.21-.172zm0 0"/><path style="stroke:none;fill-rule:nonzero;fill:#d1d2d3;fill-opacity:1" d="M16.086 17.078c0 .168-.168.3-.379.3-.207 0-.375-.132-.375-.3 0-.168.168-.3.375-.3.211 0 .379.132.379.3zm1.164 0c0 .168-.168.3-.379.3-.207 0-.375-.132-.375-.3 0-.168.168-.3.375-.3.211 0 .379.132.379.3zm0 0"/><path style="stroke:none;fill-rule:nonzero;fill:#6d7a7f;fill-opacity:1" d="M6.043 3.543h11.914c.426 0 .77.273.77.613v11.856c0 .34-.344.613-.77.613H6.043c-.426 0-.77-.273-.77-.613V4.156c0-.34.344-.613.77-.613zm0 0"/><path style="stroke:none;fill-rule:nonzero;fill:#15495d;fill-opacity:1" d="M6.277 15.445h5.657c.117 0 .21.075.21.168v.336c0 .094-.093.172-.21.172H6.277c-.117 0-.21-.078-.21-.172v-.336c0-.093.093-.168.21-.168zm0 0"/><path style="stroke:none;fill-rule:nonzero;fill:#d1d2d3;fill-opacity:1" d="M16.086 15.781c0 .168-.168.301-.379.301-.207 0-.375-.133-.375-.3 0-.169.168-.302.375-.302.211 0 .379.133.379.301zm1.164 0c0 .168-.168.301-.379.301-.207 0-.375-.133-.375-.3 0-.169.168-.302.375-.302.211 0 .379.133.379.301zm0 0"/><path style="stroke:none;fill-rule:nonzero;fill:#25aedf;fill-opacity:1" d="M6.043 3.508h11.914c.426 0 .77.242.77.539v10.387c0 .3-.344.543-.77.543H6.043c-.426 0-.77-.243-.77-.543V4.047c0-.297.344-.54.77-.54zm0 0"/><path style="stroke:none;fill-rule:nonzero;fill:#ebebeb;fill-opacity:1" d="M15.473 12.023c.96-.77 1.437-1.695 1.437-2.785 0-1.086-.476-2.011-1.437-2.781-.961-.766-2.118-1.152-3.473-1.152s-2.512.386-3.473 1.152c-.96.77-1.437 1.695-1.437 2.781 0 1.094.476 2.016 1.437 2.785.961.77 2.118 1.153 3.473 1.153s2.512-.383 3.473-1.153zm0 0"/></svg>