<svg xmlns="http://www.w3.org/2000/svg" width="24" height="24"><path style="stroke:none;fill-rule:nonzero;fill:#637a82;fill-opacity:1" d="M8.566 5.355h6.868V1.062H8.566zm0 0"/><path style="stroke:none;fill-rule:nonzero;fill:#fff;fill-opacity:.654902" d="M9.559 3.773h1.718V2.06H9.56zm0 0"/><path style="stroke:none;fill-rule:nonzero;fill:#05353f;fill-opacity:.654902" d="M9.426 3.637h1.715V1.922H9.426zm0 0"/><path style="stroke:none;fill-rule:nonzero;fill:#fff;fill-opacity:.654902" d="M12.992 3.773h1.719V2.06h-1.719zm0 0"/><path style="stroke:none;fill-rule:nonzero;fill:#05353f;fill-opacity:.654902" d="M12.86 3.637h1.714V1.922H12.86zm0 0"/><path style="fill-rule:nonzero;fill:#25aedf;fill-opacity:1;stroke-width:9.766254;stroke-linecap:butt;stroke-linejoin:miter;stroke:#25aedf;stroke-opacity:1;stroke-miterlimit:4" d="M155.25 119.083h201.5c8.333 0 15 6.75 15 15.084v336.166c0 8.334-6.667 15-15 15h-201.5c-8.333 0-15-6.666-15-15V134.167c0-8.334 6.667-15.084 15-15.084zm0 0" transform="scale(.04688)"/><path style="stroke:none;fill-rule:nonzero;fill:#666;fill-opacity:1" d="M8.89 18.781h.364v1.617c0 .282.047.489.152.61.106.125.274.187.504.187.235 0 .399-.062.504-.187.098-.121.152-.328.152-.61v-1.617h.364v1.664c0 .348-.09.606-.258.785-.176.172-.43.258-.762.258-.34 0-.594-.086-.762-.258-.175-.18-.257-.437-.257-.785zm4.313.082v.352a2.589 2.589 0 0 0-.398-.14 1.091 1.091 0 0 0-.34-.06c-.2 0-.352.044-.457.118a.371.371 0 0 0-.164.328c0 .117.035.207.105.27.074.054.211.101.41.14l.211.047c.27.047.47.137.598.27a.72.72 0 0 1 .2.515c0 .258-.095.453-.27.586-.176.137-.422.2-.75.2-.137 0-.27-.016-.41-.048a2.597 2.597 0 0 1-.446-.117v-.375a1.656 1.656 0 0 0 .856.246c.199 0 .355-.039.468-.117a.379.379 0 0 0 .176-.34.383.383 0 0 0-.129-.304c-.082-.075-.21-.133-.386-.176l-.223-.047c-.277-.047-.469-.129-.586-.246-.117-.117-.176-.274-.176-.48 0-.235.082-.415.246-.551.164-.141.387-.211.68-.211.121 0 .25.011.387.035.129.023.261.058.398.105zm1.102 1.301v.984h.586c.191 0 .336-.039.43-.117.093-.086.14-.21.14-.375 0-.164-.047-.285-.14-.363-.094-.086-.239-.129-.43-.129zm0-1.09v.797h.539c.168 0 .297-.027.383-.094a.354.354 0 0 0 .14-.304c0-.133-.047-.227-.14-.293-.086-.07-.215-.106-.383-.106zm-.352-.293h.914c.27 0 .48.059.633.176.152.113.234.27.234.48a.608.608 0 0 1-.117.387.551.551 0 0 1-.344.176c.18.043.32.125.415.246a.673.673 0 0 1 .148.445c0 .243-.078.43-.242.563-.16.125-.39.187-.696.187h-.945zm0 0"/><path style="stroke:none;fill-rule:nonzero;fill:#fff;fill-opacity:1" d="M8.68 18.613h.363v1.617c0 .282.047.489.152.61.106.129.274.187.504.187.235 0 .399-.058.504-.187.098-.121.152-.328.152-.61v-1.617h.364v1.664c0 .348-.09.61-.258.785-.176.176-.43.258-.762.258-.34 0-.594-.082-.761-.258-.176-.175-.258-.437-.258-.785zm4.312.082v.352a3.81 3.81 0 0 0-.398-.14 1.218 1.218 0 0 0-.34-.06c-.2 0-.352.044-.457.118a.376.376 0 0 0-.164.328c0 .117.035.21.105.27.075.058.211.105.41.14l.211.047c.27.047.47.14.598.27a.72.72 0 0 1 .2.515c0 .258-.095.457-.27.586-.176.137-.422.2-.75.2-.137 0-.27-.016-.41-.048a2.282 2.282 0 0 1-.446-.117v-.375c.145.09.293.153.434.188.14.043.281.058.422.058.199 0 .355-.035.468-.117a.375.375 0 0 0 .176-.34.388.388 0 0 0-.129-.304c-.082-.075-.21-.133-.386-.176l-.223-.047c-.277-.047-.469-.129-.586-.246-.117-.117-.176-.274-.176-.48 0-.235.082-.415.246-.551.164-.141.387-.211.68-.211.121 0 .25.011.387.035.129.023.261.058.398.105zm1.102 1.301v.984h.586c.191 0 .336-.035.43-.117.093-.082.14-.21.14-.375 0-.164-.047-.281-.14-.363-.094-.082-.239-.129-.43-.129zm0-1.09v.797h.539c.168 0 .297-.027.383-.094a.354.354 0 0 0 .14-.304.336.336 0 0 0-.14-.293c-.086-.07-.215-.106-.383-.106zm-.352-.293h.914c.27 0 .48.059.633.176.152.113.234.27.234.48a.608.608 0 0 1-.117.387.551.551 0 0 1-.344.176c.18.043.32.125.415.246a.68.68 0 0 1 .148.445c0 .247-.078.434-.242.563-.16.129-.39.187-.695.187h-.946zm0 0"/><path style="stroke:none;fill-rule:nonzero;fill:#ecf0f1;fill-opacity:1" d="M13.426 10.367V8.965h1.406v1.402zm-1.289 5.305a.954.954 0 0 1 0 1.91.96.96 0 0 1-.961-.957c0-.527.43-.953.96-.953zM10.34 10.2a.846.846 0 1 1 .003 1.691.846.846 0 0 1-.003-1.692zm0 0"/><path style="stroke:none;fill-rule:evenodd;fill:#ecf0f1;fill-opacity:1" d="M11.379 8.117s.758-1.699.773-1.676c.016.024.746 1.676.746 1.676zm0 0"/><path style="fill:none;stroke-width:6.079651;stroke-linecap:butt;stroke-linejoin:miter;stroke:#ecf0f1;stroke-opacity:1;stroke-miterlimit:2.012602" d="M256.807 269.449c-3-27.908-43.725-41.816-43.816-58.088-.09-10.908.455-15.817.364-29.725m43.452 58.087c0-27.544 30.27-34.089 45.27-54.451 2.272-3.454.818-34.634.818-36.634m-46.27 154.263V96.096" transform="translate(1.097 3.625) scale(.04297)"/></svg>