<svg xmlns="http://www.w3.org/2000/svg" width="24" height="24"><defs><clipPath id="a"><path d="M12 11h5v5h-5zm0 0"/></clipPath><clipPath id="b"><path d="M14.426 7.129A4.847 4.847 0 0 0 7.8 8.902a4.848 4.848 0 1 0 8.398 4.852 4.847 4.847 0 0 0-1.773-6.625zm-1.766 3.055c.633.367.852 1.175.485 1.808a1.318 1.318 0 0 1-1.805.48 1.317 1.317 0 0 1-.485-1.804 1.319 1.319 0 0 1 1.805-.484zm0 0"/></clipPath><clipPath id="c"><path d="M7 6.75h5V12H7zm0 0"/></clipPath><clipPath id="d"><path d="M9.594 15.578a4.852 4.852 0 1 0 4.85-8.401 4.852 4.852 0 0 0-4.85 8.401zm1.765-3.058a1.322 1.322 0 1 1 1.324-2.29 1.322 1.322 0 1 1-1.324 2.29zm0 0"/></clipPath></defs><path style="fill-rule:nonzero;fill:#ececec;fill-opacity:1;stroke-width:27.983692;stroke-linecap:butt;stroke-linejoin:miter;stroke:#25aedf;stroke-opacity:1;stroke-miterlimit:4" d="M82.75 26.833h346.5c30.917 0 55.917 25 55.917 55.917v346.5c0 30.917-25 55.917-55.917 55.917H82.75c-30.917 0-55.917-25-55.917-55.917V82.75c0-30.917 25-55.917 55.917-55.917zm0 0" transform="scale(.04688)"/><path style="stroke:none;fill-rule:nonzero;fill:#6d7a7f;fill-opacity:1" d="M5.672 3.355h12.656a.82.82 0 0 1 .817.817v15.703c0 .45-.368.816-.817.816H5.672a.819.819 0 0 1-.817-.816V4.172a.82.82 0 0 1 .817-.817zm0 0"/><path style="stroke:none;fill-rule:nonzero;fill:#15495d;fill-opacity:1" d="M5.922 19.129h6.008c.12 0 .222.098.222.223v.441a.226.226 0 0 1-.222.227H5.922a.223.223 0 0 1-.223-.227v-.441a.22.22 0 0 1 .223-.223zm0 0"/><path style="stroke:none;fill-rule:nonzero;fill:#25aedf;fill-opacity:1" d="M5.672 3.309h12.656c.45 0 .817.32.817.714V17.79c0 .395-.368.715-.817.715H5.672c-.45 0-.817-.32-.817-.715V4.023c0-.394.368-.714.817-.714zm0 0"/><path style="stroke:none;fill-rule:nonzero;fill:#d1d2d3;fill-opacity:1" d="M16.34 19.574a.4.4 0 1 1-.8-.003.4.4 0 0 1 .8.003zm1.234-.004a.398.398 0 1 1-.797 0 .398.398 0 1 1 .797 0zm0 0"/><path style="fill-rule:nonzero;fill:gray;fill-opacity:1;stroke-width:1.569832;stroke-linecap:butt;stroke-linejoin:miter;stroke:#d4d4d4;stroke-opacity:1;stroke-miterlimit:4" d="M256.012 113.064c-69.366-.005-125.661 56.202-125.579 125.517-.004 69.365 56.203 125.66 125.568 125.665 69.315-.082 125.61-56.29 125.615-125.655-.083-69.314-56.29-125.61-125.604-125.527zm.042 91.29c18.941.042 34.225 15.39 34.183 34.33.047 18.89-15.3 34.174-34.242 34.133-18.89.047-34.261-15.25-34.22-34.191.041-18.941 15.338-34.312 34.28-34.271zm0 0" transform="rotate(30 7.005 14.215) scale(.03863)"/><g clip-path="url(#a)"><g clip-path="url(#b)"><path style="stroke:none;fill-rule:evenodd;fill:#f2f2f2;fill-opacity:1" d="m12.77 11.223 4.87.824-2.238 3.871-3.23-4.176zm0 0"/></g></g><g clip-path="url(#c)"><g clip-path="url(#d)"><path style="stroke:none;fill-rule:evenodd;fill:#f2f2f2;fill-opacity:1" d="m11.246 11.48-4.867-.82 2.238-3.87 3.23 4.175zm0 0"/></g></g><path style="fill-rule:nonzero;fill:#fff;fill-opacity:1;stroke-width:2.780315;stroke-linecap:butt;stroke-linejoin:miter;stroke:#e7e7e7;stroke-opacity:1;stroke-miterlimit:4" d="M255.98 185.013c-29.627.057-53.603 24.059-53.597 53.599.056 29.627 23.97 53.654 53.598 53.598 29.678.03 53.655-23.972 53.649-53.511-.057-29.628-24.022-53.742-53.65-53.686zm.012 25.1c15.68.055 28.405 12.793 28.488 28.51-.056 15.679-12.743 28.492-28.51 28.487-15.68-.056-28.405-12.793-28.437-28.422.005-15.767 12.743-28.493 28.46-28.575zm0 0" transform="rotate(30 7.005 14.215) scale(.03863)"/></svg>