<svg xmlns="http://www.w3.org/2000/svg" width="24" height="24"><path style="fill-rule:nonzero;fill:#fff;fill-opacity:1;stroke-width:28.191782;stroke-linecap:butt;stroke-linejoin:miter;stroke:#666;stroke-opacity:1;stroke-miterlimit:4" d="M81.5 25.167h349c31.167 0 56.333 25.166 56.333 56.333v349c0 31.167-25.166 56.333-56.333 56.333h-349c-31.167 0-56.333-25.166-56.333-56.333v-349c0-31.167 25.166-56.333 56.333-56.333zm0 0" transform="scale(.04688)"/><path style="stroke:none;fill-rule:nonzero;fill:#000;fill-opacity:.0980392" d="M20.098 6.086 17.203 3.19H4.871a.504.504 0 0 0-.375.157.504.504 0 0 0-.156.375v16.992c0 .148.05.273.156.375a.51.51 0 0 0 .375.16h14.695c.149 0 .27-.055.375-.16a.498.498 0 0 0 .157-.375zm0 0"/><path style="stroke:none;fill-rule:nonzero;fill:#333;fill-opacity:1" d="M19.66 4.883 17.527 2.75h-1.05v5.133c-.008.203-.114.3-.32.3H5.878c-.211 0-.316-.097-.32-.3V2.75H4.434a.528.528 0 0 0-.532.535v16.992c0 .02 0 .04.004.059a.486.486 0 0 0 .153.316.498.498 0 0 0 .375.157H5.48v-8.282c0-.21.102-.32.317-.32h11.969c.21 0 .32.11.32.32v8.282h1.043a.498.498 0 0 0 .375-.157c.09-.09.14-.195.156-.316v-.059zm0 0"/><path style="stroke:none;fill-rule:nonzero;fill:#ccc;fill-opacity:1" d="M16.156 8.184c.207 0 .313-.098.32-.301V2.75H9.02v5.434zm0 0"/><path style="stroke:none;fill-rule:nonzero;fill:#fff;fill-opacity:1" d="M18.082 12.527c0-.21-.105-.32-.32-.32H5.793c-.211 0-.316.11-.316.32v7.578h12.605zm0 0"/><path style="stroke:none;fill-rule:nonzero;fill:#666;fill-opacity:1" d="M9.02 8.184V2.75H5.559v5.133c.003.203.109.3.32.3zm0 0"/><path style="stroke:none;fill-rule:nonzero;fill:#a8babe;fill-opacity:1" d="M5.477 20.105v.704h12.605v-.704zm0 0"/><path style="stroke:none;fill-rule:nonzero;fill:#666;fill-opacity:1" d="M15.246 4.223c0-.211-.105-.32-.316-.32h-.727c-.21 0-.32.109-.32.32V6.82c0 .215.11.32.32.32h.727c.21 0 .316-.105.316-.32zm0 0"/><path style="stroke:none;fill-rule:nonzero;fill:#fff;fill-opacity:1" d="M5.086 5.66V4.094c0-.13-.066-.192-.191-.192h-.368c-.125 0-.187.063-.187.192V5.66c0 .125.062.192.187.192h.368c.125 0 .19-.067.19-.192zm0 0"/><path style="stroke:none;fill-rule:nonzero;fill:#f9d346;fill-opacity:1" d="M4.719 19.379a.442.442 0 0 0-.32.133.445.445 0 0 0-.137.324.44.44 0 0 0 .136.324.442.442 0 0 0 .32.133.451.451 0 0 0 .458-.457.451.451 0 0 0-.457-.457zm13.843.133a.444.444 0 0 0-.136.324.44.44 0 0 0 .137.324c.09.086.195.133.324.133a.451.451 0 0 0 .453-.457.458.458 0 0 0-.133-.324.442.442 0 0 0-.32-.133.451.451 0 0 0-.325.133zm0 0"/></svg>