<svg xmlns="http://www.w3.org/2000/svg" width="24" height="24"><path style="fill-rule:nonzero;fill:#fff;fill-opacity:1;stroke-width:28.282129;stroke-linecap:butt;stroke-linejoin:miter;stroke:#223656;stroke-opacity:1;stroke-miterlimit:4" d="M80.917 24.333h350.166c31.25 0 56.584 25.334 56.584 56.584v350.166c0 31.25-25.334 56.584-56.584 56.584H80.917c-31.25 0-56.584-25.334-56.584-56.584V80.917c0-31.25 25.334-56.584 56.584-56.584zm0 0" transform="scale(.04688)"/><path style="stroke:none;fill-rule:evenodd;fill:#223656;fill-opacity:1" d="M9.05 9.84h5.923v10.539H9.05zm0 0"/><path style="fill:none;stroke-width:26.238472;stroke-linecap:square;stroke-linejoin:miter;stroke:#fff;stroke-opacity:1;stroke-miterlimit:2.012602" d="M302.833 291.167c0-23.25-18-42-40.166-42-22.25 0-40.167 18.75-40.167 42 0 23.083 17.917 41.916 40.167 41.916 22.166 0 40.166-18.833 40.166-41.916" transform="scale(.04688)"/><path style="fill:none;stroke-width:26.394171;stroke-linecap:square;stroke-linejoin:miter;stroke:#d41a1a;stroke-opacity:1;stroke-miterlimit:2.012602" d="M326 163.917c-17.417-20.25-42.917-31.834-69.667-31.667-26.75.167-52.166 12.083-69.25 32.667" transform="scale(.04688)"/><path style="fill:none;stroke-width:26.394171;stroke-linecap:square;stroke-linejoin:miter;stroke:#d41a1a;stroke-opacity:1;stroke-miterlimit:2" d="M370.25 125.333c-28.667-33.416-70.583-52.5-114.583-52.25-44 .334-85.75 20-113.917 53.75" transform="scale(.04688)"/></svg>