<svg xmlns="http://www.w3.org/2000/svg" width="24" height="24"><path style="fill-rule:nonzero;fill:#fff;fill-opacity:1;stroke-width:7.317885;stroke-linecap:butt;stroke-linejoin:miter;stroke:#909090;stroke-opacity:1;stroke-miterlimit:4" d="M22.446 169.317h90.575c8.092 0 14.663 6.57 14.663 14.662v90.576c0 8.092-6.57 14.662-14.663 14.662H22.446c-8.092 0-14.663-6.57-14.663-14.662V183.98c0-8.092 6.57-14.662 14.663-14.662zm0 0" transform="translate(0 -28.618) scale(.17716)"/><path style="stroke:none;fill-rule:evenodd;fill:#ccdade;fill-opacity:1" d="M8.785 14.414a1.61 1.61 0 1 1-3.218 0 1.61 1.61 0 0 1 3.218 0zm0-4.828a1.61 1.61 0 1 1-3.219 0 1.61 1.61 0 0 1 3.22 0zm0-4.824a1.61 1.61 0 1 1-3.219 0 1.61 1.61 0 0 1 3.22 0zm4.825 9.652c0 .887-.723 1.61-1.61 1.61a1.61 1.61 0 1 1 1.61-1.61zm0-4.828a1.61 1.61 0 1 1-3.22 0 1.61 1.61 0 0 1 3.22 0zm0-4.824a1.61 1.61 0 1 1-3.22 0 1.61 1.61 0 0 1 3.22 0zm4.824 9.652a1.61 1.61 0 1 1-3.22 0 1.61 1.61 0 0 1 3.22 0zm0-5.035a1.61 1.61 0 1 1-3.22 0 1.61 1.61 0 0 1 3.22 0zm0-4.617a1.61 1.61 0 1 1-3.218 0 1.61 1.61 0 0 1 3.218 0zM13.61 19.238a1.61 1.61 0 1 1-3.22 0 1.61 1.61 0 0 1 3.22 0zm0 0"/><path style="stroke:none;fill-rule:nonzero;fill:#000;fill-opacity:1" d="M6.797 5.293h.305V4.25l-.329.059v-.164l.317-.07h.187v1.218h.305v.152h-.785zm4.996.012h.645v.152h-.868v-.152c.07-.075.164-.176.282-.293l.234-.235c.05-.07.094-.129.117-.175a.279.279 0 0 0 .035-.13.223.223 0 0 0-.082-.175.26.26 0 0 0-.187-.07.5.5 0 0 0-.188.035c-.066.02-.129.047-.199.082v-.188c.07-.027.133-.05.2-.07.07-.012.128-.024.175-.024.145 0 .258.036.34.106.082.07.129.172.129.293a.387.387 0 0 1-.035.164.633.633 0 0 1-.106.164c-.02.024-.07.082-.152.164-.082.082-.195.2-.34.352zm5.203-.598a.371.371 0 0 1 .2.129c.05.055.081.125.081.21a.39.39 0 0 1-.14.317c-.094.07-.23.106-.399.106a.877.877 0 0 1-.175-.024.733.733 0 0 1-.188-.047v-.175c.05.03.105.054.164.07a.796.796 0 0 0 .2.023c.116 0 .198-.023.257-.07a.245.245 0 0 0 .094-.2.247.247 0 0 0-.082-.187.364.364 0 0 0-.235-.07h-.164v-.152h.176a.367.367 0 0 0 .2-.047.2.2 0 0 0 .081-.164.17.17 0 0 0-.082-.153c-.047-.039-.117-.058-.21-.058a1.08 1.08 0 0 0-.352.058V4.11c.07-.015.129-.027.187-.035a.68.68 0 0 1 .176-.023.48.48 0 0 1 .328.105.3.3 0 0 1 .13.246.296.296 0 0 1-.071.2.292.292 0 0 1-.176.105zM7.29 9.066l-.458.727h.457zm-.048-.164h.235v.891h.199v.152h-.2v.328H7.29v-.328h-.61V9.77zm4.371-.015h.727v.164h-.55v.328a.221.221 0 0 1 .07-.012.497.497 0 0 1 .445.117c.093.079.14.192.14.34a.44.44 0 0 1-.14.34.586.586 0 0 1-.387.117c-.055 0-.113-.008-.176-.011a.776.776 0 0 1-.187-.047v-.188a.67.67 0 0 0 .363.094c.102 0 .18-.027.246-.082a.28.28 0 0 0 .094-.223c0-.101-.031-.18-.094-.234a.367.367 0 0 0-.246-.082.479.479 0 0 0-.152.023.67.67 0 0 0-.153.047zm5.231.413a.23.23 0 0 0-.2.095.35.35 0 0 0-.07.234.38.38 0 0 0 .07.234c.047.055.11.082.2.082a.24.24 0 0 0 .187-.082.363.363 0 0 0 .082-.234.334.334 0 0 0-.082-.234.228.228 0 0 0-.187-.094zm.363-.573v.164a.497.497 0 0 0-.14-.047.854.854 0 0 0-.141-.012.345.345 0 0 0-.281.129c-.067.078-.102.2-.106.363a.237.237 0 0 1 .129-.117.361.361 0 0 1 .187-.047c.13 0 .235.043.317.13a.45.45 0 0 1 .129.339c0 .14-.047.254-.13.34a.483.483 0 0 1-.327.117.415.415 0 0 1-.364-.176c-.09-.125-.128-.3-.128-.527 0-.219.046-.39.152-.516a.492.492 0 0 1 .55-.176c.051.008.106.02.153.036zm-10.473 5h.88v.082l-.493 1.289h-.2l.47-1.207h-.657zm5.27.723a.3.3 0 0 0-.211.07.26.26 0 0 0-.07.187c0 .09.023.152.07.2a.3.3 0 0 0 .21.07.276.276 0 0 0 .2-.07.255.255 0 0 0 .082-.2.254.254 0 0 0-.082-.187.276.276 0 0 0-.2-.07zm-.188-.083a.369.369 0 0 1-.187-.117.302.302 0 0 1-.059-.2c0-.109.035-.19.117-.257a.478.478 0 0 1 .317-.094c.129 0 .234.031.316.094a.33.33 0 0 1 .117.258.289.289 0 0 1-.07.199.351.351 0 0 1-.176.117.371.371 0 0 1 .2.13c.05.054.082.124.082.21a.377.377 0 0 1-.13.305.506.506 0 0 1-.34.105c-.151 0-.269-.035-.35-.105-.083-.07-.118-.168-.118-.305 0-.086.024-.156.07-.21a.389.389 0 0 1 .211-.13zm-.07-.293c0 .07.024.125.07.164.047.043.106.059.188.059.074 0 .14-.016.187-.059a.202.202 0 0 0 .07-.164.207.207 0 0 0-.07-.164.29.29 0 0 0-.187-.058c-.082 0-.14.02-.188.058a.207.207 0 0 0-.07.164zm4.699.996v-.175c.047.023.094.043.14.058a.854.854 0 0 0 .142.012.34.34 0 0 0 .273-.117c.07-.086.105-.211.117-.375a.562.562 0 0 1-.14.117.475.475 0 0 1-.18.035c-.14 0-.25-.04-.328-.117a.486.486 0 0 1-.117-.34c0-.14.039-.25.117-.34a.469.469 0 0 1 .343-.129c.153 0 .274.067.36.188.086.117.133.293.133.527a.81.81 0 0 1-.164.516.514.514 0 0 1-.414.187.854.854 0 0 1-.141-.012.542.542 0 0 1-.14-.035zm.367-.586a.245.245 0 0 0 .196-.082c.047-.05.07-.132.07-.234a.357.357 0 0 0-.07-.234.258.258 0 0 0-.195-.082.264.264 0 0 0-.204.082.357.357 0 0 0-.07.234c0 .102.023.184.07.234.047.055.114.082.203.082zm-4.808 4.192a.245.245 0 0 0-.223.14c-.047.094-.07.235-.07.422 0 .188.023.328.07.422.051.094.13.14.223.14.094 0 .164-.046.21-.14.048-.094.071-.234.071-.422 0-.187-.023-.328-.07-.422-.047-.093-.117-.14-.211-.14zm0-.153c.144 0 .258.067.34.188.082.117.129.293.129.527 0 .23-.047.407-.13.528a.392.392 0 0 1-.34.175c-.16 0-.276-.058-.35-.175-.083-.121-.118-.297-.118-.528 0-.234.035-.41.117-.527a.387.387 0 0 1 .352-.188zm0 0"/></svg>