<svg xmlns="http://www.w3.org/2000/svg" width="24" height="24"><path style="fill-rule:nonzero;fill:#1ba389;fill-opacity:.984314;stroke-width:27.910587;stroke-linecap:butt;stroke-linejoin:miter;stroke:#2a7063;stroke-opacity:.984314;stroke-miterlimit:4" d="M83.25 27.333h345.5c30.917 0 55.917 25 55.917 55.917v345.5c0 30.917-25 55.917-55.917 55.917H83.25c-30.917 0-55.917-25-55.917-55.917V83.25c0-30.917 25-55.917 55.917-55.917zm0 0" transform="scale(.04688)"/><path style="stroke:none;fill-rule:nonzero;fill:#b3b3b3;fill-opacity:1" d="M11.95 6.3v4.93H8.253V9.75c0-1.477 1.848-3.45 3.695-3.45"/><path style="stroke:none;fill-rule:nonzero;fill:#f9f9f9;fill-opacity:1" d="M11.934 6.3v3.763h-3.68v4.558c0 2.004 1.387 3.504 3.695 3.504 2.305 0 3.692-1.5 3.692-3.504V9.887c0-1.54-1.856-3.586-3.707-3.586zm0 0"/><path style="stroke:none;fill-rule:nonzero;fill:#4d4d4d;fill-opacity:1" d="M11.95 8.766c.253 0 .46.246.46.546v1.465c0 .305-.207.551-.46.551-.255 0-.462-.246-.462-.55V9.311c0-.3.207-.546.461-.546m0 0"/></svg>