<svg xmlns="http://www.w3.org/2000/svg" width="24" height="24"><path style="fill-rule:nonzero;fill:#ecf0f1;fill-opacity:1;stroke-width:7.956348;stroke-linecap:butt;stroke-linejoin:miter;stroke:#95a5a6;stroke-opacity:1;stroke-miterlimit:4" d="M-15.118 273.996h98.495c8.796 0 15.922 7.103 15.922 15.899v98.495c0 8.796-7.126 15.922-15.922 15.922h-98.495c-8.796 0-15.922-7.126-15.922-15.922v-98.495c0-8.796 7.126-15.899 15.922-15.899zm0 0" transform="translate(6.331 -44.33) scale(.1661)"/><path style="stroke:none;fill-rule:nonzero;fill:#7f8c8d;fill-opacity:1" d="M8.16 9.29a2.59 2.59 0 0 0-1.055.206 2.55 2.55 0 0 0-.832.578c-.23.25-.402.54-.527.867A3.16 3.16 0 0 0 5.566 12c0 .375.063.727.18 1.059.125.328.297.617.527.867.235.246.512.441.832.582.32.137.672.203 1.055.203.332 0 .637-.047.918-.145.281-.097.527-.238.738-.414a1.93 1.93 0 0 0 .5-.672c.13-.265.204-.566.223-.898H9.184c-.024.305-.13.54-.309.707-.18.168-.426.258-.742.258-.207 0-.395-.043-.547-.125a1.118 1.118 0 0 1-.379-.348 1.627 1.627 0 0 1-.219-.496A2.343 2.343 0 0 1 6.922 12c0-.2.02-.39.066-.574.047-.184.121-.352.219-.5a1.06 1.06 0 0 1 .379-.34c.152-.09.34-.133.547-.133.289 0 .527.074.71.215a.817.817 0 0 1 .34.586h1.356a1.72 1.72 0 0 0-.226-.813 1.913 1.913 0 0 0-.547-.625c-.23-.18-.48-.308-.762-.398a2.798 2.798 0 0 0-.844-.129zm9.035.108v5.204h1.239V9.398zm-5.707.278v1.144h-.625v.801h.625v1.688c0 .265.024.48.063.652a.922.922 0 0 0 .21.402.883.883 0 0 0 .4.211c.171.043.39.067.655.067.09 0 .22-.012.387-.024.133-.012.23-.015.293-.015v-.91c-.039 0-.094 0-.168.007-.066.004-.121.008-.152.008-.153 0-.266-.023-.336-.074-.07-.055-.11-.153-.11-.293v-1.72h.766v-.8h-.766V9.675zm4.957 1.07c-.27 0-.5.063-.699.191-.2.126-.348.31-.437.543h-.016v-.66H14.09v3.782h1.242V12.73c0-.253.082-.468.246-.636.168-.172.39-.262.684-.262.136 0 .297.023.476.074v-1.129a1.086 1.086 0 0 0-.293-.03zm0 0"/></svg>