<svg xmlns="http://www.w3.org/2000/svg" width="24" height="24"><path style="fill-rule:nonzero;fill:#fff;fill-opacity:1;stroke-width:19.492001;stroke-linecap:butt;stroke-linejoin:miter;stroke:#95a5a6;stroke-opacity:1;stroke-miterlimit:4" d="M81.5 25.167h349c31.167 0 56.333 25.166 56.333 56.333v349c0 31.167-25.166 56.333-56.333 56.333h-349c-31.167 0-56.333-25.166-56.333-56.333v-349c0-31.167 25.166-56.333 56.333-56.333zm0 0" transform="scale(.04688)"/><path style="fill:none;stroke-width:26.157541;stroke-linecap:butt;stroke-linejoin:miter;stroke:#223656;stroke-opacity:1;stroke-miterlimit:4" d="M232.833 209.75c-39.75-15-42.5-67.917 0-82 44.667-14.917 72.5 55.583 126.334 19.667 16.916-11.25 23-24.667 23-44.334" transform="scale(.04688)"/><path style="fill-rule:nonzero;fill:#ecf0f1;fill-opacity:1;stroke-width:15.738544;stroke-linecap:butt;stroke-linejoin:miter;stroke:#95a5a6;stroke-opacity:1;stroke-miterlimit:4" d="M116.333 203.167H395.25c30.833 0 55.833 25 55.833 55.833v80.333c0 30.834-25 55.834-55.833 55.834H116.333c-30.75 0-55.75-25-55.75-55.834V259c0-30.833 25-55.833 55.75-55.833zm0 0" transform="scale(.04688)"/><path style="stroke:none;fill-rule:evenodd;fill:#7f8c8d;fill-opacity:1" d="M14.387 14.02c0 1.62 1.203 2.96 2.742 3.046 1.535.094 2.867-1.101 3.039-2.71.172-1.61-.887-3.079-2.406-3.344-1.516-.27-2.969.761-3.305 2.343"/><path style="stroke:none;fill-rule:evenodd;fill:#223656;fill-opacity:1" d="M5.805 11.867v1.348H4.277v1.578h1.528v1.613H7.41v-1.613h1.54v-1.578H7.41v-1.348zm5.398 1.453a.33.33 0 0 0-.234.102l-.707.703a.337.337 0 0 0 0 .473.34.34 0 0 0 .468 0l.707-.707a.326.326 0 0 0 0-.47.33.33 0 0 0-.234-.1zm1.91.028a.338.338 0 0 0-.238.101l-.707.703a.34.34 0 0 0 0 .47.33.33 0 0 0 .473 0l.707-.704a.332.332 0 0 0 0-.469.323.323 0 0 0-.235-.101zm0 0"/><path style="stroke:none;fill-rule:evenodd;fill:#ecf0f1;fill-opacity:1" d="m14.902 13.293 1.84-1.836a.986.986 0 0 1 1.403 0 .988.988 0 0 1 0 1.398l-1.836 1.84a.993.993 0 1 1-1.406-1.402zm0 0"/><path style="stroke:none;fill-rule:evenodd;fill:#1ba389;fill-opacity:1" d="M16.195 13.414a.809.809 0 1 0-1.145 1.145c.317.32.829.32 1.145 0a.809.809 0 0 0 0-1.145"/><path style="stroke:none;fill-rule:evenodd;fill:#2980b9;fill-opacity:1" d="M18.02 11.582a.82.82 0 0 0-1.149 0 .816.816 0 0 0 0 1.145.813.813 0 0 0 1.149 0 .816.816 0 0 0 0-1.145"/><path style="stroke:none;fill-rule:evenodd;fill:#ecf0f1;fill-opacity:1" d="m16.512 15.129 1.836-1.836a.99.99 0 0 1 1.406 0 .995.995 0 0 1 0 1.398l-1.844 1.836a.98.98 0 0 1-1.398 0 .988.988 0 0 1 0-1.398zm0 0"/><path style="stroke:none;fill-rule:evenodd;fill:#f9de69;fill-opacity:1" d="M17.8 15.238a.811.811 0 0 0-1.14 0 .806.806 0 0 0 0 1.149.811.811 0 0 0 1.14 0 .813.813 0 0 0 0-1.149"/><path style="stroke:none;fill-rule:evenodd;fill:#ba174e;fill-opacity:1" d="M19.625 13.418a.809.809 0 1 0-1.145 1.143.809.809 0 0 0 1.145-1.143"/></svg>