<svg xmlns="http://www.w3.org/2000/svg" width="24" height="24"><path style="fill-rule:nonzero;fill:#f2f2f2;fill-opacity:1;stroke-width:3.042594;stroke-linecap:butt;stroke-linejoin:miter;stroke:#d4d4d4;stroke-opacity:1;stroke-miterlimit:4" d="M377.667-338.833c-116.334-67.167-265.25-27.334-332.5 89.166C-22-133.333 17.833 15.583 134.333 82.833c116.334 67.167 265.25 27.334 332.5-89.166 67.167-116.334 27.334-265.25-89.166-332.5zm-88.5 153.333c31.75 18.333 42.666 58.917 24.333 90.667S254.583-52.167 222.833-70.5s-42.666-58.917-24.333-90.667 58.917-42.666 90.667-24.333zm0 0" transform="translate(0 18) scale(.04688)"/><path style="fill-rule:nonzero;fill:gray;fill-opacity:1;stroke-width:3.042594;stroke-linecap:butt;stroke-linejoin:miter;stroke:#d4d4d4;stroke-opacity:1;stroke-miterlimit:4" d="M256.667-371.417C204.75-371.583 153.75-355 111.583-324.083l108.584 140.25c20.166-13 46.75-14.5 69-1.667 21.166 12.167 33 34.167 33.166 56.917L497.75-99c11.167-93.75-33.083-189.583-120.083-239.833-38.167-22-79.834-32.5-121-32.584zM14.25-157C3.083-63.25 47.333 32.583 134.333 82.833c86.334 49.834 190.5 40.75 266-14.75l-108.5-140.25c-20.166 13-46.75 14.5-69 1.667-21.166-12.167-33-34.167-33.166-56.917zm0 0" transform="translate(0 18) scale(.04688)"/><path style="fill-rule:nonzero;fill:#fff;fill-opacity:1;stroke-width:5.388712;stroke-linecap:butt;stroke-linejoin:miter;stroke:#e7e7e7;stroke-opacity:1;stroke-miterlimit:4" d="M307.917-218C258.25-246.667 194.667-229.667 166-179.917 137.333-130.25 154.333-66.667 204.083-38 253.75-9.333 317.333-26.333 346-76.083c28.667-49.667 11.667-113.25-38.083-141.917zm-24.334 42.25c26.334 15.167 35.417 48.917 20.167 75.333C288.583-74.083 254.833-65 228.417-80.25 202.083-95.417 193-129.167 208.25-155.583c15.167-26.334 48.917-35.417 75.333-20.167zm0 0" transform="translate(0 18) scale(.04688)"/></svg>