<svg xmlns="http://www.w3.org/2000/svg" width="24" height="24"><path style="fill-rule:nonzero;fill:#fff;fill-opacity:1;stroke-width:28.191782;stroke-linecap:butt;stroke-linejoin:miter;stroke:gray;stroke-opacity:1;stroke-miterlimit:4" d="M81.5 25.167h349c31.167 0 56.333 25.166 56.333 56.333v349c0 31.167-25.166 56.333-56.333 56.333h-349c-31.167 0-56.333-25.166-56.333-56.333v-349c0-31.167 25.166-56.333 56.333-56.333zm0 0" transform="scale(.04688)"/><path style="stroke:none;fill-rule:nonzero;fill:#4d4d4d;fill-opacity:1" d="M5.094 5.504h13.812c1.043 0 1.895.848 1.895 1.898v9.196c0 1.05-.852 1.898-1.895 1.898H5.094a1.897 1.897 0 0 1-1.895-1.898V7.402c0-1.05.852-1.898 1.895-1.898zm0 0"/><path style="stroke:none;fill-rule:nonzero;fill:gray;fill-opacity:1" d="M5.555 5.934h12.89c.977 0 1.77.796 1.77 1.773v8.586c0 .977-.793 1.773-1.77 1.773H5.555c-.977 0-1.77-.796-1.77-1.773V7.707c0-.977.793-1.773 1.77-1.773zm0 0"/><path style="stroke:none;fill-rule:nonzero;fill:#4d4d4d;fill-opacity:1" d="M10.754 11.906a2.932 2.932 0 1 1-5.863 0 2.932 2.932 0 1 1 5.863 0zm7.777 0a2.216 2.216 0 1 1-4.43-.001 2.216 2.216 0 0 1 4.43.001zm0 0"/><path style="stroke:none;fill-rule:nonzero;fill:#fff;fill-opacity:1" d="M18.14 11.906a1.827 1.827 0 0 1-3.652 0 1.827 1.827 0 0 1 3.653 0zm-8.07 0a2.244 2.244 0 0 1-2.246 2.246 2.247 2.247 0 1 1 2.246-2.246zm0 0"/><path style="stroke:none;fill-rule:evenodd;fill:#4d4d4d;fill-opacity:1" d="M8.723 5.879 9.66 7.5h3.856l.972-1.688zm0 0"/><path style="fill:none;stroke-width:8.033507;stroke-linecap:butt;stroke-linejoin:miter;stroke:#4d4d4d;stroke-opacity:1;stroke-miterlimit:4" d="m160.026 199.474 187.666 13.917" transform="translate(.116 -.116) scale(.04688)"/></svg>