<svg xmlns="http://www.w3.org/2000/svg" width="24" height="24"><path style="fill-rule:nonzero;fill:#fff;fill-opacity:1;stroke-width:28.191782;stroke-linecap:butt;stroke-linejoin:miter;stroke:gray;stroke-opacity:1;stroke-miterlimit:4" d="M81.5 25.167h349c31.167 0 56.333 25.166 56.333 56.333v349c0 31.167-25.166 56.333-56.333 56.333h-349c-31.167 0-56.333-25.166-56.333-56.333v-349c0-31.167 25.166-56.333 56.333-56.333zm0 0" transform="scale(.04688)"/><path style="stroke:none;fill-rule:nonzero;fill:#f9de69;fill-opacity:1" d="M12.203 4.336c-.074 0-.156 0-.246.004-.566.004-.566.004-.633.062a.33.33 0 0 0-.086.102c-.023.062-.031 3.726-.008 3.836.02.082.114.172.211.2.047.01.305.019.61.01.496-.003.543-.01.62-.05.044-.027.09-.066.099-.094.023-.058.054-1.765.058-3l.004-.84-.066-.093c-.047-.07-.09-.102-.153-.118a3.073 3.073 0 0 0-.41-.02zm-2.95.078-.105.09-.105.086-.008 1.879c-.004 1.258.004 1.906.02 1.96a.307.307 0 0 0 .254.196c.058.008.332.016.613.012.476-.004.512-.008.598-.055.164-.09.156.035.156-2.047 0-1.043-.008-1.914-.016-1.945a.385.385 0 0 0-.113-.113l-.09-.063zm4.227.02-.21.171-.008 1.836c0 1.008 0 1.86.008 1.899a.427.427 0 0 0 .085.137c.055.054.094.074.192.085.066.012.344.016.613.012.55 0 .602-.015.695-.148.047-.063.047-.145.047-1.93 0-1.754 0-1.86-.043-1.93-.074-.117-.144-.132-.796-.132zm-5.738.043c-.308-.004-.62.003-.683.023-.051.016-.098.055-.145.125l-.066.105v1.168c.004.641.015 1.485.023 1.872l.016.699.078.07a.43.43 0 0 0 .183.082c.125.024.762.024 1.04.004.199-.012.222-.02.3-.086l.082-.07.008-1.887c.008-2.11.016-2.012-.168-2.078-.05-.016-.36-.027-.668-.027zm8.54.984c-.544 0-.575.004-.634.047-.12.09-.12.058-.117 1.457 0 .719.008 1.348.02 1.394.023.106.054.145.172.184.105.039.918.043 1.05.008a.395.395 0 0 0 .153-.086L17 8.398l.016-.644c.007-.36.015-.969.02-1.356 0-.699 0-.703-.056-.785-.097-.156-.074-.152-.699-.152zm0 0"/><path style="stroke:none;fill-rule:nonzero;fill:gray;fill-opacity:1" d="M6.18 8.66h11.69v11.516H6.18zm0 0"/><path style="stroke:none;fill-rule:nonzero;fill:#000;fill-opacity:1" d="M5.758 20.855a.501.501 0 0 1-.301-.242l-.062-.101V3.492l.043-.074a.545.545 0 0 1 .246-.242l.09-.04 5.363-.007 5.367-.004 1.05 1.05 1.051 1.048v7.609c0 5.117-.007 7.629-.023 7.676a.562.562 0 0 1-.242.305l-.102.058-6.195.004c-5.02.004-6.211 0-6.285-.02zm10.89-1.363a.806.806 0 0 0 .442-.535c.027-.11.031-.445.02-4.684-.008-2.511-.02-4.574-.024-4.578-.012-.02-10.207-.02-10.219-.004-.004.008-.015 2.047-.023 4.536-.008 3.398-.004 4.55.008 4.656.05.308.253.55.543.64.105.036.265.036 4.62.032l4.508-.004zM8.242 8.461a.49.49 0 0 0 .09-.09c.04-.05.04-.07.043-1.844.008-1.68.004-1.797-.027-1.859a.424.424 0 0 0-.086-.102c-.051-.039-.082-.039-.555-.043-.578-.003-.602-.003-.68.145l-.039.086v1.742c0 1.078.004 1.766.016 1.805a.316.316 0 0 0 .062.11c.086.093.122.1.641.093.453 0 .484-.004.535-.043zm2.137.004a.244.244 0 0 0 .117-.117c.04-.07.04-.086.04-1.856 0-1.777 0-1.781-.04-1.832a.405.405 0 0 0-.101-.098c-.06-.042-.075-.042-.555-.042-.48 0-.492 0-.555.043a.484.484 0 0 0-.101.097c-.04.05-.04.055-.047 1.8 0 1.153.004 1.774.015 1.821.012.043.04.098.059.125.074.098.121.102.621.106.45 0 .465-.004.547-.047zm2.18-.008c.132-.094.125.035.129-1.934l.003-1.77-.039-.085c-.078-.148-.101-.148-.68-.145-.472.004-.507.004-.554.043a.35.35 0 0 0-.086.102c-.031.062-.031.187-.031 1.836 0 1.746 0 1.77.039 1.848.023.058.058.09.117.12.074.04.102.04.559.032.468 0 .48-.004.543-.047zm2.086.031a.306.306 0 0 0 .168-.16c.019-.05.027-.387.027-1.832 0-1.672 0-1.777-.031-1.832-.024-.027-.063-.074-.09-.098-.051-.039-.078-.039-.559-.043-.496-.003-.5-.003-.562.04a.405.405 0 0 0-.102.097c-.043.05-.043.055-.047 1.8 0 1.153 0 1.774.016 1.821a.304.304 0 0 0 .156.203c.074.032.941.04 1.024.004zm2.187-.023a.306.306 0 0 0 .125-.106c.035-.062.04-.101.04-1.27l.007-1.206-.043-.082c-.078-.149-.098-.156-.676-.149-.476.004-.508.008-.555.047a.342.342 0 0 0-.09.094c-.03.059-.035.133-.03 1.281.003 1.371-.005 1.309.144 1.39.07.044.094.048.535.048.441 0 .465-.004.543-.047zm0 0"/></svg>