<svg xmlns="http://www.w3.org/2000/svg" width="24" height="24"><path style="stroke:none;fill-rule:nonzero;fill:#637a82;fill-opacity:1" d="M12.395 5.324h6.867V1.031h-6.867zm0 0"/><path style="stroke:none;fill-rule:nonzero;fill:#fff;fill-opacity:.654902" d="M13.387 3.742h1.715V2.023h-1.715zm0 0"/><path style="stroke:none;fill-rule:nonzero;fill:#05353f;fill-opacity:.654902" d="M13.25 3.605h1.719V1.891H13.25zm0 0"/><path style="stroke:none;fill-rule:nonzero;fill:#fff;fill-opacity:.654902" d="M16.82 3.742h1.715V2.023H16.82zm0 0"/><path style="stroke:none;fill-rule:nonzero;fill:#05353f;fill-opacity:.654902" d="M16.684 3.605h1.718V1.891h-1.718zm0 0"/><path style="fill-rule:nonzero;fill:#25aedf;fill-opacity:1;stroke-width:9.766254;stroke-linecap:butt;stroke-linejoin:miter;stroke:#25aedf;stroke-opacity:1;stroke-miterlimit:4" d="M155.216 119.084h201.5c8.25 0 15 6.75 15 15.083v336.084c0 8.333-6.75 15.083-15 15.083h-201.5c-8.25 0-15-6.75-15-15.083V134.167c0-8.333 6.75-15.083 15-15.083zm0 0" transform="translate(3.826 -.031) scale(.04688)"/><path style="stroke:none;fill-rule:nonzero;fill:#ecf0f1;fill-opacity:1" d="M17.25 12.184V10.78h1.41v1.403zm-1.293 5.3c.531 0 .961.426.961.957a.96.96 0 0 1-.961.954.954.954 0 0 1 0-1.91zm-1.793-5.468a.85.85 0 0 1 .852.843.85.85 0 0 1-1.7 0c0-.464.383-.843.848-.843zm0 0"/><path style="stroke:none;fill-rule:evenodd;fill:#ecf0f1;fill-opacity:1" d="M15.207 9.934s.754-1.704.773-1.68c.016.027.747 1.68.747 1.68zm0 0"/><path style="fill:none;stroke-width:6.079651;stroke-linecap:butt;stroke-linejoin:miter;stroke:#ecf0f1;stroke-opacity:1;stroke-miterlimit:2.012602" d="M256.679 269.507c-3-27.998-43.634-41.815-43.634-58.087-.09-11 .364-15.817.273-29.816m43.452 58.086c0-27.543 30.27-33.997 45.27-54.45 2.363-3.455.818-34.635.818-36.544M256.679 302.96V96.063" transform="translate(4.923 5.438) scale(.04297)"/><path style="stroke:none;fill-rule:nonzero;fill:#333;fill-opacity:1" d="M4.66 9.781h8.192v9.239H4.66zm0 0"/><path style="stroke:none;fill-rule:nonzero;fill:#f9de69;fill-opacity:1" d="M8.973 7.75H8.8c-.399.004-.399.004-.446.043-.023.02-.054.055-.058.074-.02.04-.024 2.606-.004 2.68.012.062.078.121.148.14.028.008.207.012.422.008.348-.004.38-.008.434-.035a.204.204 0 0 0 .07-.066c.012-.043.035-1.235.04-2.098l.003-.586-.047-.066a.176.176 0 0 0-.105-.082 1.914 1.914 0 0 0-.285-.012zm-2.063.055-.074.058-.074.063-.008 1.312c0 .883 0 1.336.016 1.371.023.075.09.125.175.137.043.008.235.012.43.008.332 0 .36 0 .414-.035.121-.063.113.02.113-1.434 0-.726-.007-1.336-.011-1.36a.246.246 0 0 0-.079-.077l-.062-.043zm2.953.015-.144.117L9.71 9.22c-.004.703 0 1.3.008 1.328a.222.222 0 0 0 .058.098c.04.039.063.05.133.062.047.004.238.008.43.008.383-.004.422-.012.484-.106.031-.046.031-.101.031-1.347 0-1.227 0-1.305-.027-1.352-.055-.086-.098-.09-.558-.09zm-4.011.028c-.215 0-.434.004-.477.015a.204.204 0 0 0-.102.086l-.05.074.004.817c.003.45.007 1.039.015 1.308l.012.493.055.046a.334.334 0 0 0 .128.06c.09.015.532.015.727.003.137-.012.152-.016.207-.063l.059-.046.008-1.32c.003-1.477.007-1.407-.118-1.45-.039-.016-.254-.023-.468-.023zm5.968.687c-.379 0-.402 0-.441.035-.086.059-.082.035-.082 1.02 0 .5.004.937.012.973.015.074.039.097.125.128.07.024.64.032.73.004a.393.393 0 0 0 .113-.058l.047-.047.008-.453c.008-.25.016-.672.016-.946 0-.492 0-.492-.04-.55-.066-.11-.046-.106-.488-.106zm0 0"/><path style="stroke:none;fill-rule:nonzero;fill:#000;fill-opacity:1" d="M4.465 19.297a.342.342 0 0 1-.215-.168l-.04-.07V7.16l.028-.055a.394.394 0 0 1 .172-.168l.063-.027 3.754-.004 3.75-.004 1.468 1.47v5.316c0 3.582-.004 5.335-.011 5.367a.389.389 0 0 1-.172.215l-.07.039-4.337.003c-3.507.004-4.34 0-4.39-.015zm7.613-.95c.16-.081.27-.21.309-.374.02-.078.02-.313.015-3.278a422.549 422.549 0 0 0-.02-3.203c-.007-.012-7.136-.012-7.144 0-.004.008-.008 1.434-.015 3.172-.004 2.379-.004 3.18.007 3.254.036.219.18.387.375.453.079.024.188.024 3.235.02l3.152-.004zM6.2 10.638c.02-.02.051-.047.063-.067.027-.035.027-.047.031-1.289.008-1.176.004-1.258-.016-1.297a.3.3 0 0 0-.062-.074c-.035-.027-.055-.027-.387-.031-.41-.004-.422 0-.476.105l-.028.055v1.219c0 .754.004 1.238.012 1.262a.214.214 0 0 0 .043.078c.059.066.086.07.45.066.316-.004.339-.004.37-.027zm1.492 0c.04-.02.07-.047.086-.082.028-.051.028-.063.028-1.301 0-1.242 0-1.242-.028-1.281a.284.284 0 0 0-.07-.067c-.043-.027-.055-.031-.39-.031-.337 0-.344.004-.387.031a.23.23 0 0 0-.07.067c-.028.039-.032.043-.036 1.261 0 .805.004 1.243.016 1.274a.216.216 0 0 0 .039.086c.055.066.082.074.434.074.312 0 .324 0 .378-.031zm1.524-.008c.094-.066.09.027.094-1.352l.004-1.234-.032-.059c-.05-.105-.066-.109-.472-.105-.329.004-.352.004-.391.031a.176.176 0 0 0-.055.074c-.023.04-.023.13-.023 1.278 0 1.222 0 1.242.023 1.293a.195.195 0 0 0 .082.086c.055.027.075.027.395.023.328-.004.336-.004.375-.035zm1.46.023a.192.192 0 0 0 .118-.109c.016-.04.02-.273.02-1.285 0-1.168 0-1.242-.024-1.281a.311.311 0 0 0-.059-.067c-.039-.027-.054-.027-.39-.031-.348-.004-.352-.004-.399.023a.4.4 0 0 0-.07.07c-.023.04-.027.044-.031 1.262 0 .805.004 1.243.012 1.274a.21.21 0 0 0 .113.14c.047.02.656.028.71.004zm1.532-.015a.202.202 0 0 0 .086-.075c.027-.042.027-.07.031-.886l.004-.844-.031-.062c-.055-.102-.067-.102-.473-.102-.336.004-.355.008-.39.031a.256.256 0 0 0-.059.07c-.023.04-.027.094-.023.891 0 .961-.004.918.101.977.05.031.063.031.375.031.309 0 .324 0 .379-.031zm0 0"/></svg>