<svg xmlns="http://www.w3.org/2000/svg" width="24" height="24"><path style="stroke:none;fill-rule:nonzero;fill:#333;fill-opacity:1" d="M5.816 3.512h.274c.086 0 .156.008.156.023v.961c0 .012-.07.024-.156.024h-.274c-.086 0-.156-.012-.156-.024v-.96c0-.016.07-.024.156-.024zm0 4.715h.274c.086 0 .156.015.156.03v1.266c0 .016-.07.032-.156.032h-.274c-.086 0-.156-.016-.156-.032V8.258c0-.016.07-.031.156-.031zm10.059-6.965v.27c0 .09-.016.16-.04.16h-1.722c-.023 0-.043-.07-.043-.16v-.27c0-.09.02-.16.043-.16h1.723c.023 0 .039.07.039.16zM5.816 5.977h.274c.086 0 .156.015.156.03v1.266c0 .016-.07.032-.156.032h-.274c-.086 0-.156-.016-.156-.032V6.008c0-.016.07-.031.156-.031zm0 0"/><path style="stroke:none;fill-rule:nonzero;fill:#333;fill-opacity:1" d="M7.02 1.293h9.976c.633 0 1.149.555 1.149 1.234v18.946c0 .68-.516 1.234-1.149 1.234H7.02c-.641 0-1.157-.555-1.157-1.234V2.527c0-.68.516-1.234 1.157-1.234zm0 0"/><path style="stroke:none;fill-rule:nonzero;fill:#b3b3b3;fill-opacity:1" d="M7.063 1.387h9.886c.633 0 1.145.55 1.145 1.226v18.774c0 .675-.512 1.226-1.145 1.226H7.062c-.632 0-1.14-.55-1.14-1.226V2.613c0-.675.508-1.226 1.14-1.226zm0 0"/><path style="stroke:none;fill-rule:nonzero;fill:#fff;fill-opacity:1" d="M7.3 1.621h9.41c.602 0 1.09.54 1.09 1.195v18.368c0 .656-.488 1.195-1.09 1.195H7.3c-.6 0-1.09-.54-1.09-1.195V2.816c0-.656.49-1.195 1.09-1.195zm0 0"/><path style="stroke:none;fill-rule:nonzero;fill:#000;fill-opacity:1" d="M6.629 4.16h10.754v14.617H6.629zm0 0"/><path style="stroke:none;fill-rule:nonzero;fill:#333;fill-opacity:1" d="M10.555 2.668h2.902c.078 0 .14.098.14.219v.039c0 .117-.062.215-.14.215h-2.902c-.078 0-.145-.098-.145-.215v-.04c0-.12.067-.218.145-.218zm0 0"/><path style="stroke:none;fill-rule:nonzero;fill:#666;fill-opacity:1" d="M10.02 2.879c0 .285-.23.516-.52.516a.518.518 0 1 1 .52-.516zm0 0"/><path style="stroke:none;fill-rule:nonzero;fill:#666;fill-opacity:1" d="M10.02 2.879c0 .285-.23.516-.52.516a.518.518 0 1 1 .52-.516zm0 0"/><path style="stroke:none;fill-rule:nonzero;fill:#ccc;fill-opacity:1" d="M9.867 2.879a.366.366 0 0 1-.73 0 .366.366 0 1 1 .73 0zm0 0"/><path style="stroke:none;fill-rule:nonzero;fill:#fff;fill-opacity:1" d="M9.523 2.777a.125.125 0 0 1-.12.125.123.123 0 0 1-.122-.125.12.12 0 0 1 .121-.12.12.12 0 0 1 .121.12zm0 0"/><path style="stroke:none;fill-rule:nonzero;fill:#003380;fill-opacity:1" d="M6.805 4.29h10.402v14.362H6.805zm0 0"/><path style="stroke:none;fill-rule:nonzero;fill:#b3b3b3;fill-opacity:1" d="M13.43 20.465c0 .789-.637 1.43-1.43 1.43-.793 0-1.43-.641-1.43-1.43 0-.79.637-1.43 1.43-1.43.793 0 1.43.64 1.43 1.43zm0 0"/><path style="stroke:none;fill-rule:nonzero;fill:#333;fill-opacity:1" d="M11.258 2.223h1.496c.039 0 .074.047.074.109v.02c0 .062-.035.113-.074.113h-1.496c-.04 0-.074-.05-.074-.113v-.02c0-.062.035-.11.074-.11zm.09 17.554c-.043 0-.075.047-.075.11v1.23c0 .063.032.113.075.113h1.304c.043 0 .075-.05.075-.113v-1.23c0-.063-.032-.11-.075-.11zm.117.125h1.07c.035 0 .063.043.063.094v1.012c0 .055-.028.09-.063.09h-1.07c-.035 0-.063-.035-.063-.09v-1.012c0-.05.028-.094.063-.094zm0 0"/></svg>