<svg xmlns="http://www.w3.org/2000/svg" width="24" height="24"><path style="fill-rule:nonzero;fill:#fff;fill-opacity:1;stroke-width:2.611469;stroke-linecap:butt;stroke-linejoin:miter;stroke:#909090;stroke-opacity:1;stroke-miterlimit:4" d="M7.836 2.617h32.328a5.225 5.225 0 0 1 5.227 5.219v32.328a5.231 5.231 0 0 1-5.227 5.227H7.836a5.225 5.225 0 0 1-5.219-5.227V7.836a5.218 5.218 0 0 1 5.219-5.219zm0 0" transform="scale(.5)"/><path style="stroke:none;fill-rule:evenodd;fill:#4d4d4d;fill-opacity:1" d="M12.156 13.234a1.468 1.468 0 1 0-.097.004"/><path style="fill:none;stroke-width:3.131226;stroke-linecap:square;stroke-linejoin:bevel;stroke:#4d4d4d;stroke-opacity:1;stroke-miterlimit:4" d="M.005-.007v23.278" transform="translate(12.06 11.748) scale(.3613)"/><path style="fill:none;stroke-width:3.131226;stroke-linecap:square;stroke-linejoin:miter;stroke:#4d4d4d;stroke-opacity:1;stroke-miterlimit:2.012602" d="M17.905 16.15a10.011 10.011 0 0 0-1.308-13.677C12.607-1.01 6.585-.782 2.866 2.99c-3.708 3.785-3.838 9.807-.281 13.731" transform="translate(8.445 8.267) scale(.3613)"/><path style="fill:none;stroke-width:3.131226;stroke-linecap:square;stroke-linejoin:miter;stroke:#4d4d4d;stroke-opacity:1;stroke-miterlimit:2.012602" d="M28.701 25.876c5.255-6.757 4.27-16.434-2.216-22.002-6.487-5.568-16.207-5.081-22.089 1.135-5.881 6.206-5.86 15.937.054 22.121" transform="translate(6.236 6.14) scale(.3613)"/><path style="fill:none;stroke-width:3.131226;stroke-linecap:square;stroke-linejoin:miter;stroke:#4d4d4d;stroke-opacity:1;stroke-miterlimit:2.012602" d="M39.244 35.39c7.168-9.212 5.86-22.424-2.974-30.047C27.437-2.29 14.182-1.673 6.106 6.738c-8.077 8.433-8.141 21.7-.162 30.208" transform="translate(4.107 4.085) scale(.3613)"/></svg>