<svg xmlns="http://www.w3.org/2000/svg" width="24" height="24"><path style="fill-rule:nonzero;fill:#fff;fill-opacity:1;stroke-width:2.611469;stroke-linecap:butt;stroke-linejoin:miter;stroke:#909090;stroke-opacity:1;stroke-miterlimit:4" d="M7.836 2.617h32.328a5.225 5.225 0 0 1 5.227 5.219v32.328a5.231 5.231 0 0 1-5.227 5.227H7.836a5.225 5.225 0 0 1-5.219-5.227V7.836a5.218 5.218 0 0 1 5.219-5.219zm0 0" transform="scale(.5)"/><path style="stroke:none;fill-rule:evenodd;fill:#f2f2f2;fill-opacity:1" d="M12.121 13.11c.8-.051 1.41-.735 1.371-1.536a1.472 1.472 0 0 0-1.512-1.394 1.47 1.47 0 0 0-1.418 1.492c.012.8.665 1.441 1.465 1.441"/><path style="fill:none;stroke-width:2.26261;stroke-linecap:square;stroke-linejoin:bevel;stroke:#f2f2f2;stroke-opacity:1;stroke-miterlimit:4" d="M24.062 23.25v16.82" transform="scale(.5)"/><path style="fill:none;stroke-width:2.26261;stroke-linecap:square;stroke-linejoin:miter;stroke:#f2f2f2;stroke-opacity:1;stroke-miterlimit:2.012602" d="M29.766 27.953a7.224 7.224 0 0 0-.946-9.875 7.222 7.222 0 0 0-9.914.375c-2.687 2.727-2.773 7.086-.21 9.922" transform="scale(.5)"/><path style="fill:none;stroke-width:2.26261;stroke-linecap:square;stroke-linejoin:miter;stroke:#4d4d4d;stroke-opacity:1;stroke-miterlimit:2.012602" d="M33.156 30.742c3.79-4.883 3.086-11.883-1.601-15.914-4.696-4.023-11.711-3.656-15.97.828-4.25 4.485-4.226 11.524.04 15.985" transform="scale(.5)"/><path style="fill:none;stroke-width:2.26261;stroke-linecap:square;stroke-linejoin:miter;stroke:#4d4d4d;stroke-opacity:1;stroke-miterlimit:2.012602" d="M36.516 33.5c5.171-6.656 4.226-16.203-2.149-21.719-6.383-5.508-15.96-5.062-21.805 1.024-5.835 6.078-5.89 15.672-.117 21.82" transform="scale(.5)"/></svg>