<svg xmlns="http://www.w3.org/2000/svg" width="24" height="24"><path style="fill-rule:nonzero;fill:#fff;fill-opacity:1;stroke-width:2.611469;stroke-linecap:butt;stroke-linejoin:miter;stroke:#909090;stroke-opacity:1;stroke-miterlimit:4" d="M7.836 2.617h32.328a5.225 5.225 0 0 1 5.227 5.219v32.328a5.231 5.231 0 0 1-5.227 5.227H7.836a5.225 5.225 0 0 1-5.219-5.227V7.836a5.218 5.218 0 0 1 5.219-5.219zm0 0" transform="scale(.5)"/><path style="stroke:none;fill-rule:evenodd;fill:#4d4d4d;fill-opacity:1" d="M12.121 13.11c.8-.051 1.41-.735 1.371-1.536a1.472 1.472 0 0 0-1.512-1.394 1.47 1.47 0 0 0-1.418 1.492c.012.8.665 1.441 1.465 1.441"/><path style="fill:none;stroke-width:2.26261;stroke-linecap:square;stroke-linejoin:bevel;stroke:#4d4d4d;stroke-opacity:1;stroke-miterlimit:4" d="M24.062 23.25v16.82" transform="scale(.5)"/><path style="fill-rule:evenodd;fill:#de6143;fill-opacity:1;stroke-width:1.164577;stroke-linecap:square;stroke-linejoin:miter;stroke:#de6143;stroke-opacity:1;stroke-miterlimit:2.012602" d="m21.156 12.031.211-.219L24 14.445l2.617-2.617.219.219-2.617 2.617 2.633 2.625-.22.219L24 14.883 21.39 17.5l-.226-.219 2.617-2.617zm0 0" transform="scale(.5)"/></svg>