<svg xmlns="http://www.w3.org/2000/svg" width="24" height="24"><path style="fill-rule:nonzero;fill:#fff;fill-opacity:1;stroke-width:2.611469;stroke-linecap:butt;stroke-linejoin:miter;stroke:#909090;stroke-opacity:1;stroke-miterlimit:4" d="M7.836 1006.979h32.328a5.225 5.225 0 0 1 5.227 5.219v32.328a5.231 5.231 0 0 1-5.227 5.226H7.836a5.225 5.225 0 0 1-5.219-5.226v-32.328a5.218 5.218 0 0 1 5.219-5.22zm0 0" transform="matrix(.5 0 0 .5 0 -502.181)"/><path style="stroke:none;fill-rule:evenodd;fill:#e74c3c;fill-opacity:1" d="M8.113 10.586a3.732 3.732 0 0 0 0 5.3 3.732 3.732 0 0 0 5.301 0l2.473-2.472a3.732 3.732 0 0 0 0-5.3 3.732 3.732 0 0 0-5.301 0zm1.41 1.48 2.543-2.543a1.7 1.7 0 0 1 2.41 0 1.7 1.7 0 0 1 0 2.41l-2.542 2.544a1.707 1.707 0 0 1-2.41 0 1.7 1.7 0 0 1 0-2.41zm0 0"/><path style="stroke:none;fill-rule:evenodd;fill:#e74c3c;fill-opacity:1" d="M4.5 18.086 5.914 19.5 10 15.414 8.586 14zm9.5-9.5L15.414 10 19.5 5.914 18.086 4.5zm0 0"/></svg>