<svg xmlns="http://www.w3.org/2000/svg" width="24" height="24"><path style="fill-rule:nonzero;fill:#b3b3b3;fill-opacity:1;stroke-width:2.611469;stroke-linecap:butt;stroke-linejoin:miter;stroke:#5a5a5a;stroke-opacity:1;stroke-miterlimit:4" d="M7.836 2.617h32.328a5.225 5.225 0 0 1 5.227 5.219v32.328a5.231 5.231 0 0 1-5.227 5.227H7.836a5.225 5.225 0 0 1-5.219-5.227V7.836a5.218 5.218 0 0 1 5.219-5.219zm0 0" transform="scale(.5)"/><path style="stroke:none;fill-rule:evenodd;fill:#4d4d4d;fill-opacity:1" d="M12.121 13.11c.8-.051 1.41-.735 1.371-1.536a1.472 1.472 0 0 0-1.512-1.394 1.47 1.47 0 0 0-1.418 1.492c.012.8.665 1.441 1.465 1.441"/><path style="fill:none;stroke-width:3.131226;stroke-linecap:square;stroke-linejoin:bevel;stroke:#4d4d4d;stroke-opacity:1;stroke-miterlimit:4" d="M-.007-.004v23.267" transform="translate(12.03 11.626) scale(.3613)"/><path style="fill:none;stroke-width:3.131226;stroke-linecap:square;stroke-linejoin:miter;stroke:#4d4d4d;stroke-opacity:1;stroke-miterlimit:2.012602" d="M17.904 16.141c3.255-4.184 2.67-10.173-1.319-13.666a9.995 9.995 0 0 0-13.72.52c-3.708 3.773-3.827 9.795-.28 13.72" transform="translate(8.414 8.145) scale(.3613)"/><path style="fill:none;stroke-width:3.131226;stroke-linecap:square;stroke-linejoin:miter;stroke:#4d4d4d;stroke-opacity:1;stroke-miterlimit:2.012602" d="M28.7 25.879c5.255-6.747 4.282-16.445-2.205-22.013-6.498-5.568-16.218-5.06-22.1 1.146-5.881 6.206-5.849 15.937.055 22.12" transform="translate(6.205 6.017) scale(.3613)"/><path style="fill:none;stroke-width:3.131226;stroke-linecap:square;stroke-linejoin:miter;stroke:#4d4d4d;stroke-opacity:1;stroke-miterlimit:2.012602" d="M39.254 35.392c7.157-9.212 5.849-22.424-2.973-30.057C27.447-2.287 14.192-1.67 6.105 6.752c-8.076 8.411-8.152 21.688-.162 30.197" transform="translate(4.076 3.963) scale(.3613)"/></svg>