<svg xmlns="http://www.w3.org/2000/svg" width="24" height="24"><path style="fill-rule:nonzero;fill:#fff;fill-opacity:1;stroke-width:27.583374;stroke-linecap:butt;stroke-linejoin:miter;stroke:#909090;stroke-opacity:1;stroke-miterlimit:4" d="M85.25 30.083h341.5c30.5 0 55.167 24.667 55.167 55.167v341.5c0 30.5-24.667 55.167-55.167 55.167H85.25c-30.5 0-55.167-24.667-55.167-55.167V85.25c0-30.5 24.667-55.167 55.167-55.167zm0 0" transform="scale(.04688)"/><path style="stroke:none;fill-rule:nonzero;fill:#25aedf;fill-opacity:1" d="M9.832 20.684c-.926-.13-1.96-.368-2.602-.594-1.347-.48-2.453-1.262-2.816-1.988-.176-.364-.187-.426-.187-1.665 0-.714.03-1.285.066-1.285.039 0 .152.145.254.32.945 1.618 4.316 2.688 7.996 2.548 3.406-.133 6.105-1.157 6.844-2.598.093-.188.203-.344.242-.344.125 0 .164.504.133 1.578-.032.965-.051 1.098-.219 1.426-.586 1.14-2.281 2.031-4.79 2.5-1.046.203-3.82.258-4.921.102zm.398-3.516c-2.234-.227-4.304-.988-5.28-1.941-.641-.633-.68-.762-.708-2.262-.015-.863.004-1.285.051-1.285.043 0 .16.129.258.285.629.996 2.265 1.828 4.406 2.242 4.266.82 9.262-.273 10.398-2.281.118-.215.243-.39.282-.39.105 0 .16.648.125 1.624-.032.863-.055 1-.23 1.367-.91 1.86-5.137 3.059-9.302 2.641zm.22-3.543c-2.868-.254-5.31-1.32-5.99-2.621-.183-.348-.194-.438-.218-1.508-.031-1.383.016-1.516.348-.992.61.945 2.043 1.676 4.117 2.094 4.55.914 9.64-.211 10.738-2.371.063-.13.145-.235.176-.235.094 0 .16 1.95.086 2.418-.348 2.125-4.656 3.621-9.258 3.215zm.35-3.543c-2.98-.187-5.698-1.348-6.327-2.703-.864-1.852 1.742-3.66 5.89-4.094 1.172-.12 3.438-.047 4.465.14 1.203.227 2.004.481 2.902.919 1.32.64 1.973 1.406 1.973 2.3 0 2.133-4.16 3.739-8.902 3.438zm0 0"/></svg>