<svg xmlns="http://www.w3.org/2000/svg" width="24" height="24"><path style="fill-rule:nonzero;fill:#fff;fill-opacity:1;stroke-width:28.191782;stroke-linecap:butt;stroke-linejoin:miter;stroke:#666;stroke-opacity:1;stroke-miterlimit:4" d="M529.975-48.408h349c31.166 0 56.416 25.25 56.416 56.416v349c0 31.167-25.25 56.334-56.416 56.334h-349c-31.167 0-56.334-25.167-56.334-56.334v-349c0-31.166 25.167-56.416 56.334-56.416zm0 0" transform="translate(-21.022 3.445) scale(.04688)"/><path style="stroke:none;fill-rule:nonzero;fill:#666;fill-opacity:1" d="M2.754 7.754v8.234h5.035v-4.175h8.422v4.175h5.035V7.754zM8.121 3.77h7.758v3.656H8.12zm0 0"/><path style="stroke:none;fill-rule:nonzero;fill:#666;fill-opacity:1" d="M8.625 12.742h6.75v7.488h-6.75zm0 0"/><path style="stroke:none;fill-rule:nonzero;fill:#ccc;fill-opacity:1" d="M9.176 18.676h5.648v.148H9.176zm0-.738h5.648v.152H9.176zm0-.738h5.648v.152H9.176zm0-.735h5.648v.152H9.176zm0-.738h5.648v.156H9.176zm0-.735h5.648v.153H9.176zm0-.738h5.648v.156H9.176zm0-.734h5.648v.148H9.176zm0 5.89h5.648v.156H9.176zM20.488 9.086c0 .324-.27.59-.605.59a.597.597 0 0 1-.602-.59.6.6 0 0 1 .602-.594c.336 0 .605.27.605.594zm0 0"/><path style="stroke:none;fill-rule:nonzero;fill:#f55;fill-opacity:1" d="M20.488 10.64c0 .325-.27.59-.605.59a.597.597 0 0 1-.602-.59c0-.324.27-.59.602-.59.336 0 .605.266.605.59zm0 0"/><path style="stroke:none;fill-rule:nonzero;fill:#0f0;fill-opacity:1" d="M20.488 12.195c0 .325-.27.594-.605.594a.6.6 0 0 1-.602-.594c0-.324.27-.59.602-.59.336 0 .605.266.605.59zm0 0"/></svg>