<svg xmlns="http://www.w3.org/2000/svg" width="24" height="24"><path style="fill-rule:nonzero;fill:#58785b;fill-opacity:1;stroke-width:18.73;stroke-linecap:butt;stroke-linejoin:miter;stroke:#3f5641;stroke-opacity:1;stroke-miterlimit:4" d="M71.282 35.923h354.75c26.25 0 47.583 21.333 47.583 47.667v354.75c0 26.25-21.333 47.583-47.583 47.583H71.282c-26.333 0-47.667-21.333-47.667-47.583V83.59c0-26.334 21.334-47.667 47.667-47.667zm0 0" transform="translate(.346 -.23) scale(.04688)"/><path style="stroke:none;fill-rule:nonzero;fill:#fff;fill-opacity:1" d="M15.965 5.555h.933c.418 0 .754.324.754.726V6.7a.741.741 0 0 1-.754.727h-.933c-.418 0-.758-.328-.758-.727v-.418c0-.402.34-.726.758-.726zm0 2.718h.933a.74.74 0 0 1 .754.727v.418a.741.741 0 0 1-.754.727h-.933c-.418 0-.758-.329-.758-.727V9c0-.402.34-.727.758-.727zm0 2.907h.933c.418 0 .754.324.754.726v.418a.741.741 0 0 1-.754.727h-.933c-.418 0-.758-.328-.758-.727v-.418c0-.402.34-.726.758-.726zm0 2.718h.933a.74.74 0 0 1 .754.727v.418a.741.741 0 0 1-.754.727h-.933c-.418 0-.758-.329-.758-.727v-.418c0-.402.34-.727.758-.727zm0 2.812h.933a.74.74 0 0 1 .754.727v.418a.741.741 0 0 1-.754.727h-.933c-.418 0-.758-.328-.758-.727v-.418c0-.402.34-.726.758-.726zM7.34 5.555h.933c.418 0 .754.324.754.726V6.7a.741.741 0 0 1-.754.727H7.34c-.418 0-.758-.328-.758-.727v-.418c0-.402.34-.726.758-.726zm0 2.718h.933A.74.74 0 0 1 9.027 9v.418a.741.741 0 0 1-.754.727H7.34c-.418 0-.758-.329-.758-.727V9c0-.402.34-.727.758-.727zm0 2.907h.933c.418 0 .754.324.754.726v.418a.741.741 0 0 1-.754.727H7.34c-.418 0-.758-.328-.758-.727v-.418c0-.402.34-.726.758-.726zm0 2.718h.933a.74.74 0 0 1 .754.727v.418a.741.741 0 0 1-.754.727H7.34c-.418 0-.758-.329-.758-.727v-.418c0-.402.34-.727.758-.727zm0 2.812h.933a.74.74 0 0 1 .754.727v.418a.741.741 0 0 1-.754.727H7.34c-.418 0-.758-.328-.758-.727v-.418c0-.402.34-.726.758-.726zm0 0"/><path style="stroke:none;fill-rule:nonzero;fill:#49494c;fill-opacity:1" d="M15.273 20.43c-.109.058-.28.129-.386.152-.258.063-5.766.008-5.969-.055-.262-.086-.57-.363-.73-.652-.122-.227-.137-.313-.126-.832.008-.32.012-.922.012-1.34-.004-.414-.004-1.02-.004-1.348.004-.324.004-.949.004-1.386v-4.192c0-.328.008-.949.016-1.375.015-.43.004-.797-.016-.816-.02-.02-.031-.293-.015-.613a47.84 47.84 0 0 0 0-2.602c-.04-.71.195-1.18.726-1.476.242-.13.313-.137 3.152-.165 3.235-.027 3.204-.03 3.622.391.304.3.402.582.406 1.172 0 .262-.016.492-.035.512-.035.035-.028.758.02 2.168.007.32 0 .593-.016.613-.024.02-.032.394-.024.832.012.437.024 1.043.024 1.348 0 .304-.004.93-.004 1.386v4.176c0 1.856.004 2.348.011 2.711.016.64-.23 1.145-.668 1.39zm0 0"/><path style="stroke:none;fill-rule:nonzero;fill:#ccc;fill-opacity:1" d="M15.027 19.504a.575.575 0 1 1-1.15.006.575.575 0 0 1 1.15-.006zM11.688 3.816h.644v1.297h-.645zm0 0"/></svg>