<svg xmlns="http://www.w3.org/2000/svg" width="24" height="24"><path style="fill-rule:nonzero;fill:#fff;fill-opacity:1;stroke-width:7.717832;stroke-linecap:butt;stroke-linejoin:miter;stroke:#909090;stroke-opacity:1;stroke-miterlimit:4" d="M-13.66 275.925h95.58c8.513 0 15.427 6.914 15.427 15.428v95.579c0 8.513-6.914 15.428-15.428 15.428H-13.66c-8.514 0-15.428-6.915-15.428-15.428v-95.58c0-8.513 6.914-15.427 15.428-15.427zm0 0" transform="translate(6.331 -44.33) scale(.1661)"/><path style="stroke:none;fill-rule:nonzero;fill:#e6e6e6;fill-opacity:1" d="M12 5.352A4.481 4.481 0 0 0 7.512 9.84v8.808h1V9.84A3.483 3.483 0 0 1 12 6.348a3.483 3.483 0 0 1 3.488 3.492v8.808h1V9.84A4.481 4.481 0 0 0 12 5.352zm0 0"/><path style="stroke:none;fill-rule:nonzero;fill:#f9de69;fill-opacity:1" d="M6.348 18.648h11.304V12H6.348zm0 0"/><path style="stroke:none;fill-rule:nonzero;fill:#223656;fill-opacity:1" d="M12 13.332a.83.83 0 0 0-.332 1.59v2.394h.664v-2.394a.83.83 0 0 0-.332-1.59zm0 0"/></svg>