<svg xmlns="http://www.w3.org/2000/svg" width="24" height="24"><path style="stroke:none;fill-rule:nonzero;fill:#333;fill-opacity:1" d="M17.902 3.207h.278c.082 0 .152.02.152.043v1.723c0 .02-.07.039-.152.039h-.278c-.086 0-.156-.02-.156-.04V3.25c0-.023.07-.043.156-.043zM5.809 5.18h.277c.082 0 .152.058.152.133v5.468c0 .074-.07.133-.152.133h-.277c-.086 0-.157-.059-.157-.133V5.312c0-.074.07-.132.157-.132zm0 0"/><path style="stroke:none;fill-rule:nonzero;fill:#333;fill-opacity:1" d="M7.012 1.293h9.976c.637 0 1.153.555 1.153 1.234v18.946c0 .68-.516 1.234-1.153 1.234H7.012c-.637 0-1.153-.555-1.153-1.234V2.527c0-.68.516-1.234 1.153-1.234zm0 0"/><path style="stroke:none;fill-rule:nonzero;fill:#b3b3b3;fill-opacity:1" d="M7.059 1.387h9.882c.633 0 1.145.55 1.145 1.226v18.774c0 .675-.512 1.226-1.145 1.226H7.06c-.633 0-1.145-.55-1.145-1.226V2.613c0-.675.512-1.226 1.145-1.226zm0 0"/><path style="stroke:none;fill-rule:nonzero;fill:#fff;fill-opacity:1" d="M7.293 1.621h9.414c.598 0 1.086.54 1.086 1.195v18.368c0 .656-.488 1.195-1.086 1.195H7.293c-.598 0-1.086-.54-1.086-1.195V2.816c0-.656.488-1.195 1.086-1.195zm0 0"/><path style="stroke:none;fill-rule:nonzero;fill:#000;fill-opacity:1" d="M7.215 4.691h9.57V20.13h-9.57zm0 0"/><path style="stroke:none;fill-rule:nonzero;fill:gray;fill-opacity:1" d="M9.848 2.668h4.304c.118 0 .211.098.211.219v.039a.213.213 0 0 1-.21.215H9.847a.213.213 0 0 1-.211-.215v-.04c0-.12.093-.218.21-.218zm0 0"/><path style="stroke:none;fill-rule:nonzero;fill:#1a1a1a;fill-opacity:1" d="M13.703 2.906c0 .063-.05.114-.113.114a.117.117 0 0 1-.117-.114c0-.066.054-.113.117-.113a.11.11 0 0 1 .113.113zm-.398 0a.113.113 0 0 1-.227 0 .11.11 0 0 1 .113-.113.11.11 0 0 1 .114.113zm-.395 0c0 .063-.05.114-.117.114a.113.113 0 0 1-.113-.114.11.11 0 0 1 .113-.113c.066 0 .117.047.117.113zm-.398 0a.114.114 0 0 1-.114.114.11.11 0 0 1-.113-.114c0-.066.047-.113.113-.113a.11.11 0 0 1 .114.113zm-.399 0A.11.11 0 0 1 12 3.02a.11.11 0 0 1-.113-.114c0-.066.047-.113.113-.113s.113.047.113.113zm-.398 0a.11.11 0 0 1-.113.114.113.113 0 0 1-.114-.114.11.11 0 0 1 .114-.113c.066 0 .113.047.113.113zm-.395 0c0 .063-.05.114-.113.114a.114.114 0 0 1-.117-.114c0-.066.05-.113.117-.113a.11.11 0 0 1 .113.113zm-.398 0a.113.113 0 0 1-.227 0 .11.11 0 0 1 .114-.113.11.11 0 0 1 .113.113zm-.395 0a.117.117 0 0 1-.117.114.113.113 0 0 1-.113-.114.11.11 0 0 1 .113-.113c.063 0 .117.047.117.113zm-.398 0c0 .063-.05.114-.117.114a.113.113 0 0 1-.11-.114.11.11 0 0 1 .11-.113c.066 0 .117.047.117.113zm3.969 0a.113.113 0 0 1-.11.114.114.114 0 0 1-.117-.114c0-.066.05-.113.117-.113a.11.11 0 0 1 .11.113zm0 0"/><path style="stroke:none;fill-rule:nonzero;fill:#666;fill-opacity:1" d="M15.133 2.895a.235.235 0 0 1-.235.234.235.235 0 0 1-.234-.234c0-.13.106-.235.234-.235.13 0 .235.106.235.235zm0 0"/><path style="stroke:none;fill-rule:nonzero;fill:#666;fill-opacity:1" d="M15.133 2.895a.235.235 0 0 1-.235.234.235.235 0 0 1-.234-.234c0-.13.106-.235.234-.235.13 0 .235.106.235.235zm0 0"/><path style="stroke:none;fill-rule:nonzero;fill:#ccc;fill-opacity:1" d="M15.066 2.895a.17.17 0 0 1-.168.167.172.172 0 0 1-.168-.167c0-.09.079-.168.168-.168.09 0 .168.078.168.168zm0 0"/><path style="stroke:none;fill-rule:nonzero;fill:#fff;fill-opacity:1" d="M14.91 2.852a.059.059 0 0 1-.055.054.057.057 0 0 1-.058-.054c0-.036.023-.059.058-.059.028 0 .055.023.055.059zm0 0"/><path style="stroke:none;fill-rule:nonzero;fill:#666;fill-opacity:1" d="M15.79 2.895a.235.235 0 0 1-.235.234.235.235 0 0 1-.235-.234.235.235 0 0 1 .469 0zm0 0"/><path style="stroke:none;fill-rule:nonzero;fill:#666;fill-opacity:1" d="M15.79 2.895a.235.235 0 0 1-.235.234.235.235 0 0 1-.235-.234.235.235 0 0 1 .469 0zm0 0"/><path style="stroke:none;fill-rule:nonzero;fill:#ccc;fill-opacity:1" d="M15.723 2.895a.17.17 0 0 1-.168.167.172.172 0 0 1-.168-.167c0-.09.078-.168.168-.168.09 0 .168.078.168.168zm0 0"/><path style="stroke:none;fill-rule:nonzero;fill:#fff;fill-opacity:1" d="M15.566 2.852a.059.059 0 0 1-.054.054.057.057 0 0 1-.059-.054c0-.036.024-.059.059-.059.027 0 .054.023.054.059zm0 0"/><path style="stroke:none;fill-rule:nonzero;fill:#666;fill-opacity:1" d="M17.137 3.16c0 .285-.23.516-.516.516a.517.517 0 1 1 .516-.516zm0 0"/><path style="stroke:none;fill-rule:nonzero;fill:#666;fill-opacity:1" d="M17.137 3.16c0 .285-.23.516-.516.516a.517.517 0 1 1 .516-.516zm0 0"/><path style="stroke:none;fill-rule:nonzero;fill:#ccc;fill-opacity:1" d="M16.988 3.16c0 .2-.164.363-.367.363a.366.366 0 1 1 0-.73c.203 0 .367.164.367.367zm0 0"/><path style="stroke:none;fill-rule:nonzero;fill:#fff;fill-opacity:1" d="M16.645 3.059a.126.126 0 0 1-.125.125.125.125 0 0 1-.122-.125c0-.067.055-.122.122-.122.07 0 .125.055.125.122zm0 0"/><path style="stroke:none;fill-rule:nonzero;fill:#4d4d4d;fill-opacity:1" d="M10.27 20.574h3.699c.152 0 .277.172.277.375v.406c0 .207-.125.375-.277.375h-3.7c-.152 0-.277-.168-.277-.375v-.406c0-.203.125-.375.278-.375zm0 0"/><path style="stroke:none;fill-rule:nonzero;fill:#999;fill-opacity:1" d="M10.34 20.645h3.555c.148 0 .265.148.265.328v.359c0 .184-.117.328-.265.328H10.34c-.145 0-.262-.144-.262-.328v-.36c0-.179.117-.327.262-.327zm0 0"/><path style="stroke:none;fill-rule:nonzero;fill:#ececec;fill-opacity:1" d="M10.41 20.758h3.414c.14 0 .254.113.254.258v.277a.254.254 0 0 1-.254.258H10.41a.254.254 0 0 1-.25-.258v-.277c0-.145.113-.258.25-.258zm0 0"/><path style="stroke:none;fill-rule:nonzero;fill:#003380;fill-opacity:1" d="M7.371 4.824h9.258v15.168H7.37zm0 0"/></svg>