<svg xmlns="http://www.w3.org/2000/svg" width="24" height="24"><path style="fill-rule:nonzero;fill:#fff;fill-opacity:1;stroke-width:18.591999;stroke-linecap:butt;stroke-linejoin:miter;stroke:#979797;stroke-opacity:1;stroke-miterlimit:4" d="M81.5 25.167h349c31.167 0 56.333 25.166 56.333 56.333v349c0 31.167-25.166 56.333-56.333 56.333h-349c-31.167 0-56.333-25.166-56.333-56.333v-349c0-31.167 25.166-56.333 56.333-56.333zm0 0" transform="scale(.04688)"/><path style="stroke:none;fill-rule:nonzero;fill:#4d4d4d;fill-opacity:1" d="M3.672 4.41h15.726c.735 0 1.332.598 1.332 1.332v11.465a1.33 1.33 0 0 1-1.332 1.328H3.672a1.328 1.328 0 0 1-1.332-1.328V5.742c0-.734.594-1.332 1.332-1.332zm0 0"/><path style="stroke:none;fill-rule:nonzero;fill:#e6e6e6;fill-opacity:1" d="M5.977 5.3h12.707c.597 0 1.078.52 1.078 1.165V16.48c0 .645-.48 1.165-1.078 1.165H5.977c-.594 0-1.075-.52-1.075-1.165V6.465c0-.645.48-1.164 1.075-1.164zm0 0"/><path style="stroke:none;fill-rule:nonzero;fill:#fff;fill-opacity:1" d="M4.125 11.473a.666.666 0 0 1-1.332 0 .666.666 0 0 1 1.332 0zm0 0"/><path style="stroke:none;fill-rule:nonzero;fill:#333;fill-opacity:1" d="M21.45 8.188c-.122-.122-.43-.004-.704.265l-1.34 1.344-3.332 3.332-4.883 4.879-.695 1.87 1.867-.698 4.883-4.88 3.332-3.331 1.344-1.34c.27-.274.387-.582.262-.707zm0 0"/></svg>