<svg xmlns="http://www.w3.org/2000/svg" width="24" height="24"><path style="fill-rule:nonzero;fill:#fff;fill-opacity:1;stroke-width:7.598406;stroke-linecap:butt;stroke-linejoin:miter;stroke:#909090;stroke-opacity:1;stroke-miterlimit:4" d="M20.704 167.046h94.06c8.4 0 15.19 6.79 15.19 15.191v94.06c0 8.4-6.79 15.191-15.19 15.191h-94.06c-8.4 0-15.192-6.79-15.192-15.191v-94.06c0-8.4 6.791-15.191 15.192-15.191zm0 0" transform="translate(0 -28.618) scale(.17716)"/><path style="stroke:none;fill-rule:evenodd;fill:#4d4d4d;fill-opacity:1" d="M8.02 3.121h7.976s0 .004.004.004l.004.004v.012c.176.761.656 1.441.789 2.214.125.727 0 2.215 0 2.215v13.297l-.004.004c0 .004 0 .004-.004.004v.004h-9.57v-.004c-.004 0-.004 0-.004-.004l-.004-.004V7.57s-.125-1.488 0-2.215c.133-.773.79-2.214.79-2.214v-.012L8 3.125c.004 0 .004-.004.004-.004h.016zm0 0"/><path style="stroke:none;fill-rule:evenodd;fill:#0fa15f;fill-opacity:1" d="M9.504 6.059h4.992c.285 0 .512.23.512.515v.219a.512.512 0 0 1-.512.516H9.504a.512.512 0 0 1-.512-.516v-.219c0-.285.227-.515.512-.515zm0 0"/><path style="stroke:none;fill-rule:evenodd;fill:#999;fill-opacity:1" d="M12.824 17.434a.824.824 0 0 1-1.648 0 .823.823 0 1 1 1.648 0zm0 0"/><path style="stroke:none;fill-rule:nonzero;fill:#fff;fill-opacity:1" d="M11.441 18.66h.204v.387a.316.316 0 0 1-.02.105.265.265 0 0 1-.055.09.189.189 0 0 1-.082.051.365.365 0 0 1-.14.023c-.032 0-.063 0-.102-.007-.039 0-.066-.012-.094-.024a.232.232 0 0 1-.066-.058.205.205 0 0 1-.043-.075.38.38 0 0 1-.02-.105v-.387h.2v.395c0 .035.007.062.03.082.02.02.048.031.083.031a.11.11 0 0 0 .078-.031c.02-.016.027-.047.027-.082zm.332 0h.332c.07 0 .125.02.16.05a.204.204 0 0 1 .055.15c0 .066-.02.117-.058.152-.04.039-.098.054-.18.054h-.11v.243h-.199zm.2.277h.05c.04 0 .067-.007.079-.019.02-.016.023-.031.023-.055 0-.02-.004-.035-.02-.047-.011-.015-.039-.023-.078-.023h-.054zm.417.157.192-.012a.106.106 0 0 0 .109.11c.032 0 .055-.008.067-.02.015-.016.023-.027.023-.047s-.008-.031-.023-.047c-.012-.012-.047-.023-.102-.035a.428.428 0 0 1-.183-.078.15.15 0 0 1-.055-.125c0-.035.008-.063.023-.094a.233.233 0 0 1 .09-.07.41.41 0 0 1 .156-.024c.083 0 .145.012.188.047.043.028.07.078.082.145l-.187.008c-.008-.028-.02-.051-.036-.059-.015-.016-.035-.023-.066-.023a.112.112 0 0 0-.055.015.058.058 0 0 0-.015.035c0 .012.007.02.015.028.012.011.032.015.067.023.09.02.148.04.187.059.04.02.067.043.082.074a.167.167 0 0 1 .028.094.2.2 0 0 1-.036.113.218.218 0 0 1-.097.078.362.362 0 0 1-.156.027c-.106 0-.184-.023-.223-.062a.229.229 0 0 1-.074-.16zm0 0"/><path style="stroke:none;fill-rule:evenodd;fill:#f2f2f2;fill-opacity:1" d="M12.586 17.434c0 .32-.262.586-.586.586a.588.588 0 0 1-.586-.586c0-.329.262-.586.586-.586.324 0 .586.257.586.586zm0 0"/><path style="stroke:none;fill-rule:nonzero;fill:#0f0;fill-opacity:1" d="M11.203 11.379h1.594c.074 0 .137.09.137.207v.156c0 .117-.063.211-.137.211h-1.594c-.074 0-.137-.094-.137-.21v-.157c0-.117.063-.207.137-.207zm0 0"/><path style="stroke:none;fill-rule:nonzero;fill:red;fill-opacity:1" d="M11.203 12.238h1.594c.074 0 .137.094.137.211v.156c0 .118-.063.211-.137.211h-1.594c-.074 0-.137-.093-.137-.21v-.157c0-.117.063-.21.137-.21zm0 0"/><path style="stroke:none;fill-rule:nonzero;fill:#f60;fill-opacity:1" d="M11.203 13.027h1.594c.074 0 .137.094.137.211v.157c0 .113-.063.207-.137.207h-1.594c-.074 0-.137-.094-.137-.207v-.157c0-.117.063-.21.137-.21zm0 0"/><path style="stroke:none;fill-rule:nonzero;fill:#fff;fill-opacity:1" d="M8.23 5.316h7.372c.398 0 .718.028.718.055 0 .035-.32.063-.718.063H8.23c-.398 0-.726-.028-.726-.063 0-.027.328-.055.726-.055zm0 0"/></svg>