
<svg xmlns="http://www.w3.org/2000/svg" xmlns:xlink="http://www.w3.org/1999/xlink" width="64px" height="64px" viewBox="0 0 64 64" version="1.1">
<g id="surface1">
<path style="fill-rule:nonzero;fill:rgb(100%,100%,100%);fill-opacity:1;stroke-width:27.910587;stroke-linecap:butt;stroke-linejoin:miter;stroke:rgb(0%,67.058824%,93.333333%);stroke-opacity:1;stroke-miterlimit:4;" d="M 83.21875 27.40625 L 428.78125 27.40625 C 459.59375 27.40625 484.59375 52.375 484.59375 83.21875 L 484.59375 428.78125 C 484.59375 459.59375 459.59375 484.59375 428.78125 484.59375 L 83.21875 484.59375 C 52.375 484.59375 27.40625 459.59375 27.40625 428.78125 L 27.40625 83.21875 C 27.40625 52.375 52.375 27.40625 83.21875 27.40625 Z M 83.21875 27.40625 " transform="matrix(0.125,0,0,0.125,0,0)"/>
<path style=" stroke:none;fill-rule:nonzero;fill:rgb(22.745098%,20.784314%,21.960784%);fill-opacity:1;" d="M 31.335938 33.441406 C 32.476562 33.871094 33.570312 33.507812 34.363281 32.4375 C 34.65625 32.039062 34.726562 31.769531 34.730469 31.015625 L 34.738281 30.085938 L 39.703125 25.097656 L 44.664062 20.109375 L 44.679688 19.652344 C 44.6875 19.402344 44.640625 19.097656 44.578125 18.980469 C 44.441406 18.710938 43.722656 18.46875 43.445312 18.59375 C 43.332031 18.644531 41.007812 20.914062 38.285156 23.636719 L 33.332031 28.589844 L 32.789062 28.519531 L 32.246094 28.445312 L 23.972656 20.167969 L 23.460938 20.070312 C 22.660156 19.917969 22.097656 20.054688 21.644531 20.507812 C 21.140625 21.011719 21.039062 21.601562 21.304688 22.425781 C 21.503906 23.039062 21.519531 23.058594 25.53125 27.058594 L 29.5625 31.078125 L 29.726562 31.707031 C 29.925781 32.476562 30.546875 33.144531 31.335938 33.441406 Z M 31.335938 33.441406 "/>
<path style="fill:none;stroke-width:35.849998;stroke-linecap:butt;stroke-linejoin:miter;stroke:rgb(0%,67.058824%,93.333333%);stroke-opacity:1;stroke-miterlimit:4;" d="M 425.5 256 C 425.5 349.625 349.625 425.5 256 425.5 C 162.375 425.5 86.5 349.625 86.5 256 C 86.5 162.375 162.375 86.5 256 86.5 C 349.625 86.5 425.5 162.375 425.5 256 Z M 425.5 256 " transform="matrix(0.125,0,0,0.125,0,0)"/>
</g>
</svg>
