
<svg xmlns="http://www.w3.org/2000/svg" xmlns:xlink="http://www.w3.org/1999/xlink" width="64px" height="64px" viewBox="0 0 64 64" version="1.1">
<g id="surface1">
<path style="fill-rule:nonzero;fill:rgb(100%,100%,100%);fill-opacity:1;stroke-width:23.5;stroke-linecap:butt;stroke-linejoin:miter;stroke:rgb(0%,0%,0%);stroke-opacity:1;stroke-miterlimit:4;" d="M 87.125 23.875 L 427.03125 23.875 C 460.78125 23.875 488.125 51.21875 488.125 84.96875 L 488.125 431.375 C 488.125 465.125 460.78125 492.46875 427.03125 492.46875 L 87.125 492.46875 C 53.375 492.46875 26.03125 465.125 26.03125 431.375 L 26.03125 84.96875 C 26.03125 51.21875 53.375 23.875 87.125 23.875 Z M 87.125 23.875 " transform="matrix(0.125,0,0,0.125,0,0)"/>
<path style=" stroke:none;fill-rule:nonzero;fill:rgb(20.784314%,30.588235%,34.901961%);fill-opacity:1;" d="M 12.175781 35.707031 L 52.066406 35.707031 C 54.285156 35.707031 56.085938 37.222656 56.085938 39.09375 L 56.085938 48.25 C 56.085938 50.121094 54.285156 51.636719 52.066406 51.636719 L 12.175781 51.636719 C 9.957031 51.636719 8.15625 50.121094 8.15625 48.25 L 8.15625 39.09375 C 8.15625 37.222656 9.957031 35.707031 12.175781 35.707031 Z M 12.175781 35.707031 "/>
<path style="fill-rule:nonzero;fill:rgb(60.784314%,81.568627%,94.117647%);fill-opacity:1;stroke-width:0.75;stroke-linecap:butt;stroke-linejoin:miter;stroke:rgb(0%,0%,0%);stroke-opacity:1;stroke-miterlimit:4;" d="M -26.217877 -1131.627165 L 35.295887 -1082.643982 L 88.972343 -1099.548876 L 102.778766 -1163.204231 L 11.510565 -1150.901478 Z M -26.217877 -1131.627165 " transform="matrix(0.0857278,0,0,0.0857278,24.509319,120.78921)"/>
<path style="fill-rule:nonzero;fill:rgb(60.784314%,81.568627%,94.117647%);fill-opacity:1;stroke-width:0.75;stroke-linecap:butt;stroke-linejoin:miter;stroke:rgb(0%,0%,0%);stroke-opacity:1;stroke-miterlimit:4;" d="M 35.295887 -1082.643982 L 35.295887 -1043.548567 L -19.975369 -1011.606975 L -49.091885 -1127.161721 L -16.102281 -1123.288632 Z M 35.295887 -1082.643982 " transform="matrix(0.0857278,0,0,0.0857278,24.509319,120.78921)"/>
<path style="fill-rule:nonzero;fill:rgb(60.784314%,81.568627%,94.117647%);fill-opacity:1;stroke-width:0.75;stroke-linecap:butt;stroke-linejoin:miter;stroke:rgb(0%,0%,0%);stroke-opacity:1;stroke-miterlimit:4;" d="M 35.295887 -1043.548567 L 107.790998 -1024.091991 L 105.102619 -961.484648 L -28.359468 -956.882507 L -41.436838 -994.428686 L -32.232557 -1005.956822 Z M 35.295887 -1043.548567 " transform="matrix(0.0857278,0,0,0.0857278,24.509319,120.78921)"/>
<path style=" stroke:none;fill-rule:nonzero;fill:rgb(16.862745%,60.392157%,85.098039%);fill-opacity:1;" d="M 36.785156 7.152344 L 19.300781 17.566406 L 19.300781 41.1875 L 36.785156 48.441406 Z M 31.390625 22.492188 L 31.390625 35.144531 L 24.695312 32.921875 L 24.695312 25.683594 Z M 31.390625 22.492188 "/>
<path style="fill-rule:nonzero;fill:rgb(60.784314%,81.568627%,94.117647%);fill-opacity:1;stroke-width:0.75;stroke-linecap:butt;stroke-linejoin:miter;stroke:rgb(0%,0%,0%);stroke-opacity:1;stroke-miterlimit:4;" d="M 143.560114 -1325.372741 L 213.002319 -1251.601789 L 213.002319 -874.135102 L 143.560114 -843.742745 Z M 143.560114 -1325.372741 " transform="matrix(0.0857278,0,0,0.0857278,24.509319,120.78921)"/>
</g>
</svg>
