
<svg xmlns="http://www.w3.org/2000/svg" xmlns:xlink="http://www.w3.org/1999/xlink" width="64px" height="64px" viewBox="0 0 64 64" version="1.1">
<g id="surface1">
<path style="fill-rule:nonzero;fill:rgb(100%,100%,100%);fill-opacity:1;stroke-width:26.401737;stroke-linecap:butt;stroke-linejoin:miter;stroke:rgb(18.823529%,27.843137%,32.941176%);stroke-opacity:1;stroke-miterlimit:4;" d="M 92.5625 39.75 L 419.4375 39.75 C 448.59375 39.75 472.25 63.40625 472.25 92.5625 L 472.25 419.4375 C 472.25 448.59375 448.59375 472.25 419.4375 472.25 L 92.5625 472.25 C 63.40625 472.25 39.75 448.59375 39.75 419.4375 L 39.75 92.5625 C 39.75 63.40625 63.40625 39.75 92.5625 39.75 Z M 92.5625 39.75 " transform="matrix(0.125,0,0,0.125,0,0)"/>
<path style=" stroke:none;fill-rule:nonzero;fill:rgb(13.72549%,36.078431%,76.078431%);fill-opacity:1;" d="M 11.570312 4.96875 C 11.046875 4.96875 10.539062 5.03125 10.050781 5.148438 L 22.921875 26.753906 L 22.914062 26.75 C 22.320312 27.980469 21.785156 29.222656 21.625 30.519531 C 21.425781 32.113281 21.554688 33.699219 21.960938 35.226562 C 22.371094 36.75 23.078125 38.242188 24.046875 39.523438 C 25.015625 40.808594 26.265625 41.890625 27.738281 42.742188 C 29.421875 43.71875 31.230469 44.265625 33.050781 44.382812 C 34.867188 44.5 36.554688 43.324219 38.238281 42.667969 L 29.160156 59.03125 L 52.429688 59.03125 C 56.074219 59.03125 59.03125 56.074219 59.03125 52.429688 L 59.03125 11.570312 C 59.03125 7.925781 56.074219 4.96875 52.429688 4.96875 Z M 11.570312 4.96875 "/>
<path style=" stroke:none;fill-rule:nonzero;fill:rgb(31.764706%,54.117647%,90.196078%);fill-opacity:1;" d="M 11.570312 4.96875 C 7.925781 4.96875 4.96875 7.925781 4.96875 11.570312 L 4.96875 52.429688 C 4.96875 56.074219 7.925781 59.03125 11.570312 59.03125 L 23.046875 59.03125 L 31.554688 44.21875 L 31.554688 44.277344 C 32.917969 44.164062 34.257812 44.011719 35.464844 43.507812 C 36.941406 42.871094 38.253906 41.964844 39.371094 40.84375 C 40.492188 39.703125 41.425781 38.34375 42.050781 36.863281 C 42.675781 35.410156 42.992188 33.765625 42.992188 32.058594 C 42.992188 30.113281 42.566406 28.28125 41.761719 26.652344 C 40.953125 24.996094 39.664062 23.519531 38.253906 22.390625 L 59.03125 22.390625 L 59.03125 11.570312 C 59.03125 7.925781 56.074219 4.96875 52.429688 4.96875 Z M 11.570312 4.96875 "/>
<path style=" stroke:none;fill-rule:nonzero;fill:rgb(56.078431%,69.019608%,90.196078%);fill-opacity:1;" d="M 6.597656 7.234375 C 5.585938 8.394531 4.96875 9.910156 4.96875 11.570312 L 4.96875 52.429688 C 4.96875 56.074219 7.925781 59.03125 11.570312 59.03125 L 29.160156 59.03125 L 38.546875 42.484375 C 36.859375 43.140625 35.066406 43.972656 33.050781 44.382812 C 31.230469 44.265625 29.421875 43.71875 27.738281 42.742188 C 26.265625 41.890625 25.015625 40.808594 24.046875 39.523438 C 23.078125 38.242188 22.371094 36.75 21.960938 35.226562 C 21.554688 33.699219 21.425781 32.113281 21.625 30.519531 C 21.785156 29.222656 22.320312 27.980469 22.914062 26.75 L 22.921875 26.753906 L 21.808594 24.882812 C 21.78125 24.917969 21.757812 24.953125 21.730469 24.988281 C 20.722656 26.5 20.082031 28.222656 19.800781 30.011719 Z M 6.597656 7.234375 "/>
<path style=" stroke:none;fill-rule:nonzero;fill:rgb(97.254902%,97.254902%,97.254902%);fill-opacity:1;" d="M 44.355469 32 C 44.355469 38.828125 38.824219 44.359375 32 44.359375 C 25.175781 44.359375 19.644531 38.824219 19.644531 32 C 19.644531 25.175781 25.175781 19.644531 32 19.644531 C 38.828125 19.644531 44.355469 25.175781 44.355469 32 M 44.355469 32 "/>
<path style=" stroke:none;fill-rule:nonzero;fill:rgb(22.745098%,49.019608%,89.019608%);fill-opacity:1;" d="M 41.609375 32 C 41.609375 37.308594 37.308594 41.613281 32 41.613281 C 26.691406 41.613281 22.390625 37.308594 22.390625 32 C 22.390625 26.691406 26.691406 22.390625 32 22.390625 C 37.308594 22.390625 41.609375 26.691406 41.609375 32 M 41.609375 32 "/>
</g>
</svg>
