
<svg xmlns="http://www.w3.org/2000/svg" xmlns:xlink="http://www.w3.org/1999/xlink" width="64px" height="64px" viewBox="0 0 64 64" version="1.1">
<g id="surface1">
<path style="fill-rule:nonzero;fill:rgb(74.117647%,76.078431%,78.039216%);fill-opacity:1;stroke-width:27.27438;stroke-linecap:butt;stroke-linejoin:miter;stroke:rgb(48.627451%,53.333333%,57.647059%);stroke-opacity:1;stroke-miterlimit:4;" d="M -506.92742 0.288137 L -165.61492 0.288137 C -135.14617 0.288137 -110.48992 24.444387 -110.48992 54.256887 L -110.48992 388.319387 C -110.48992 418.131887 -135.14617 442.288137 -165.61492 442.288137 L -506.92742 442.288137 C -537.39617 442.288137 -562.05242 418.131887 -562.05242 388.319387 L -562.05242 54.256887 C -562.05242 24.444387 -537.39617 0.288137 -506.92742 0.288137 Z M -506.92742 0.288137 " transform="matrix(0.125,0,0,0.125,74.033896,4.338983)"/>
<path style=" stroke:none;fill-rule:nonzero;fill:rgb(29.803922%,29.803922%,29.803922%);fill-opacity:1;" d="M 26.554688 21.105469 C 35.578125 21.105469 42.894531 28.421875 42.894531 37.445312 C 42.894531 46.46875 35.578125 53.785156 26.554688 53.785156 C 17.53125 53.785156 10.214844 46.46875 10.214844 37.445312 C 10.214844 28.421875 17.53125 21.105469 26.554688 21.105469 Z M 26.554688 21.105469 "/>
<path style=" stroke:none;fill-rule:nonzero;fill:rgb(29.803922%,29.803922%,29.803922%);fill-opacity:1;" d="M 36.6875 10.214844 C 32.347656 13.089844 29.757812 15.703125 28.769531 19.070312 C 35.804688 19.90625 41.59375 24.652344 43.933594 31.089844 C 50.078125 27.96875 53.785156 17.824219 53.785156 17.824219 C 53.785156 17.824219 45.609375 15.566406 38.734375 18.421875 C 39.253906 15.246094 36.6875 10.214844 36.6875 10.214844 Z M 36.6875 10.214844 "/>
</g>
</svg>
