
<svg xmlns="http://www.w3.org/2000/svg" xmlns:xlink="http://www.w3.org/1999/xlink" width="64px" height="64px" viewBox="0 0 64 64" version="1.1">
<g id="surface1">
<path style="fill-rule:nonzero;fill:rgb(74.117647%,76.078431%,78.039216%);fill-opacity:1;stroke-width:27.27438;stroke-linecap:butt;stroke-linejoin:miter;stroke:rgb(48.627451%,53.333333%,57.647059%);stroke-opacity:1;stroke-miterlimit:4;" d="M 85.34375 35 L 426.65625 35 C 457.125 35 481.78125 59.15625 481.78125 88.96875 L 481.78125 423.03125 C 481.78125 452.84375 457.125 477 426.65625 477 L 85.34375 477 C 54.875 477 30.21875 452.84375 30.21875 423.03125 L 30.21875 88.96875 C 30.21875 59.15625 54.875 35 85.34375 35 Z M 85.34375 35 " transform="matrix(0.125,0,0,0.125,0,0)"/>
<path style=" stroke:none;fill-rule:nonzero;fill:rgb(100%,100%,100%);fill-opacity:1;" d="M 26.554688 21.105469 C 35.578125 21.105469 42.894531 28.421875 42.894531 37.445312 C 42.894531 46.46875 35.578125 53.785156 26.554688 53.785156 C 17.53125 53.785156 10.214844 46.46875 10.214844 37.445312 C 10.214844 28.421875 17.53125 21.105469 26.554688 21.105469 Z M 26.554688 21.105469 "/>
<path style=" stroke:none;fill-rule:nonzero;fill:rgb(100%,100%,100%);fill-opacity:1;" d="M 36.6875 10.214844 C 32.347656 13.089844 29.757812 15.703125 28.769531 19.070312 C 35.804688 19.90625 41.59375 24.652344 43.933594 31.089844 C 50.078125 27.96875 53.785156 17.824219 53.785156 17.824219 C 53.785156 17.824219 45.609375 15.566406 38.734375 18.421875 C 39.253906 15.246094 36.6875 10.214844 36.6875 10.214844 Z M 36.6875 10.214844 "/>
</g>
</svg>
