
<svg xmlns="http://www.w3.org/2000/svg" xmlns:xlink="http://www.w3.org/1999/xlink" width="64px" height="64px" viewBox="0 0 64 64" version="1.1">
<g id="surface1">
<path style="fill-rule:nonzero;fill:rgb(40%,40%,40%);fill-opacity:1;stroke-width:1.199;stroke-linecap:butt;stroke-linejoin:miter;stroke:rgb(0%,0%,0%);stroke-opacity:1;stroke-miterlimit:4;" d="M 68.375 11.9375 L 443.625 11.9375 C 474.8125 11.9375 500.0625 37.1875 500.0625 68.375 L 500.0625 443.625 C 500.0625 474.8125 474.8125 500.0625 443.625 500.0625 L 68.375 500.0625 C 37.1875 500.0625 11.9375 474.8125 11.9375 443.625 L 11.9375 68.375 C 11.9375 37.1875 37.1875 11.9375 68.375 11.9375 Z M 68.375 11.9375 " transform="matrix(0.125,0,0,0.125,0,0)"/>
<path style="fill-rule:nonzero;fill:rgb(20%,20%,20%);fill-opacity:1;stroke-width:1.175939;stroke-linecap:butt;stroke-linejoin:miter;stroke:rgb(0%,0%,0%);stroke-opacity:1;stroke-miterlimit:4;" d="M 56.46875 35.34375 L 455.53125 35.34375 C 467.21875 35.34375 476.65625 44.78125 476.65625 56.46875 L 476.65625 455.53125 C 476.65625 467.21875 467.21875 476.6875 455.53125 476.6875 L 56.46875 476.6875 C 44.78125 476.6875 35.3125 467.21875 35.3125 455.53125 L 35.3125 56.46875 C 35.3125 44.78125 44.78125 35.34375 56.46875 35.34375 Z M 56.46875 35.34375 " transform="matrix(0.125,0,0,0.125,0,0)"/>
<path style=" stroke:none;fill-rule:nonzero;fill:rgb(100%,100%,100%);fill-opacity:1;" d="M 10.09375 8.371094 L 10.09375 11.472656 C 10.117188 11.484375 10.136719 11.496094 10.160156 11.507812 L 15.527344 15.007812 C 15.773438 15.171875 15.773438 15.433594 15.527344 15.59375 L 10.160156 19.09375 C 10.136719 19.109375 10.117188 19.121094 10.09375 19.132812 L 10.09375 22.230469 C 10.246094 22.195312 10.386719 22.140625 10.511719 22.058594 L 19.414062 16.25 L 19.414062 14.4375 C 19.414062 14.410156 19.417969 14.382812 19.417969 14.355469 L 10.511719 8.542969 C 10.386719 8.464844 10.246094 8.40625 10.09375 8.371094 Z M 10.09375 8.371094 "/>
<path style=" stroke:none;fill-rule:nonzero;fill:rgb(100%,100%,100%);fill-opacity:1;" d="M 14.683594 23.101562 L 24.847656 23.101562 L 24.847656 25.980469 L 14.683594 25.980469 Z M 14.683594 23.101562 "/>
<path style=" stroke:none;fill-rule:nonzero;fill:rgb(100%,100%,100%);fill-opacity:1;" d="M 33.441406 8.507812 L 33.441406 55.492188 L 30.558594 55.492188 L 30.558594 8.507812 Z M 33.441406 8.507812 "/>
<path style=" stroke:none;fill-rule:nonzero;fill:rgb(100%,100%,100%);fill-opacity:1;" d="M 40.636719 8.371094 L 40.636719 11.472656 C 40.660156 11.484375 40.683594 11.496094 40.703125 11.507812 L 46.070312 15.007812 C 46.316406 15.171875 46.316406 15.433594 46.070312 15.59375 L 40.703125 19.09375 C 40.683594 19.109375 40.660156 19.121094 40.636719 19.132812 L 40.636719 22.230469 C 40.789062 22.195312 40.929688 22.140625 41.054688 22.058594 L 49.957031 16.25 L 49.957031 14.4375 C 49.957031 14.410156 49.960938 14.382812 49.960938 14.355469 L 41.054688 8.542969 C 40.929688 8.464844 40.789062 8.40625 40.636719 8.371094 Z M 40.636719 8.371094 "/>
<path style=" stroke:none;fill-rule:nonzero;fill:rgb(100%,100%,100%);fill-opacity:1;" d="M 45.226562 23.101562 L 55.394531 23.101562 L 55.394531 25.980469 L 45.226562 25.980469 Z M 45.226562 23.101562 "/>
</g>
</svg>
