
<svg xmlns="http://www.w3.org/2000/svg" xmlns:xlink="http://www.w3.org/1999/xlink" width="64px" height="64px" viewBox="0 0 64 64" version="1.1">
<g id="surface1">
<path style="fill-rule:nonzero;fill:rgb(20%,20%,20%);fill-opacity:1;stroke-width:28.191782;stroke-linecap:butt;stroke-linejoin:miter;stroke:rgb(29.019608%,68.235294%,90.196078%);stroke-opacity:1;stroke-miterlimit:4;" d="M 81.46875 25.09375 L 430.53125 25.09375 C 461.65625 25.09375 486.90625 50.34375 486.90625 81.46875 L 486.90625 430.53125 C 486.90625 461.65625 461.65625 486.90625 430.53125 486.90625 L 81.46875 486.90625 C 50.34375 486.90625 25.09375 461.65625 25.09375 430.53125 L 25.09375 81.46875 C 25.09375 50.34375 50.34375 25.09375 81.46875 25.09375 Z M 81.46875 25.09375 " transform="matrix(0.125,0,0,0.125,0,0)"/>
<path style=" stroke:none;fill-rule:nonzero;fill:rgb(100%,100%,100%);fill-opacity:1;" d="M 49.234375 32 C 49.234375 22.484375 41.515625 14.773438 32 14.773438 C 22.480469 14.773438 14.765625 22.484375 14.765625 32 C 14.765625 41.511719 22.480469 49.222656 32 49.222656 C 41.515625 49.222656 49.234375 41.511719 49.234375 32 Z M 49.234375 32 "/>
<path style=" stroke:none;fill-rule:nonzero;fill:rgb(20%,20%,20%);fill-opacity:1;" d="M 30.152344 51.878906 C 27.363281 51.632812 24.308594 50.644531 21.855469 49.1875 C 16.476562 45.996094 13 40.707031 12.183594 34.464844 C 11.90625 32.355469 12.046875 29.554688 12.53125 27.5 C 13.046875 25.332031 14.117188 22.804688 15.257812 21.078125 C 18.609375 16 23.992188 12.734375 30.058594 12.109375 C 31.410156 11.96875 33.917969 12.054688 35.269531 12.285156 C 42.710938 13.558594 48.664062 18.679688 51.023438 25.839844 C 51.660156 27.777344 51.957031 29.730469 51.957031 32.003906 C 51.957031 34.421875 51.621094 36.421875 50.835938 38.691406 C 50.191406 40.546875 48.796875 43.035156 47.558594 44.546875 C 43.292969 49.753906 36.847656 52.464844 30.152344 51.878906 Z M 34.441406 44.285156 C 35.691406 44.03125 36.496094 43.753906 37.636719 43.183594 C 39.714844 42.152344 41.507812 40.496094 42.75 38.472656 C 44.09375 36.273438 44.75 33.441406 44.5 30.910156 C 44.1875 27.75 42.925781 25.117188 40.6875 22.964844 C 38.917969 21.261719 36.789062 20.148438 34.375 19.660156 C 33.28125 19.441406 30.660156 19.441406 29.625 19.664062 C 27.066406 20.207031 24.921875 21.355469 23.152344 23.128906 C 21.003906 25.28125 19.75 27.972656 19.503906 30.953125 L 19.4375 31.742188 L 18.347656 31.785156 C 17.363281 31.824219 17.25 31.84375 17.222656 31.992188 C 17.179688 32.214844 20.753906 35.804688 21.015625 35.804688 C 21.238281 35.804688 24.941406 32.113281 24.886719 31.945312 C 24.855469 31.855469 24.546875 31.824219 23.605469 31.804688 L 22.367188 31.78125 L 22.367188 31.492188 C 22.367188 30.570312 22.878906 28.65625 23.394531 27.632812 C 24.359375 25.726562 26.285156 23.929688 28.21875 23.121094 C 29.523438 22.582031 30.398438 22.40625 31.902344 22.398438 C 33.332031 22.390625 33.808594 22.457031 35.007812 22.84375 C 36.484375 23.320312 37.660156 24.054688 38.8125 25.21875 C 40.71875 27.144531 41.609375 29.304688 41.609375 32 C 41.609375 33.691406 41.296875 34.988281 40.546875 36.433594 C 39.574219 38.304688 38.089844 39.738281 36.179688 40.648438 C 32.480469 42.421875 28.253906 41.734375 25.261719 38.875 C 24.953125 38.582031 24.671875 38.339844 24.632812 38.339844 C 24.59375 38.339844 24.128906 38.722656 23.597656 39.191406 C 22.992188 39.722656 22.628906 40.101562 22.628906 40.210938 C 22.628906 40.582031 24.550781 42.1875 25.910156 42.953125 C 27.167969 43.664062 29.027344 44.273438 30.488281 44.453125 C 31.507812 44.578125 33.382812 44.5 34.441406 44.285156 Z M 34.441406 44.285156 "/>
</g>
</svg>
