<!-- color: #d6e4eb -->
<svg xmlns="http://www.w3.org/2000/svg" xmlns:xlink="http://www.w3.org/1999/xlink" width="64px" height="64px" viewBox="0 0 64 64" version="1.1">
<defs>
<clipPath id="clip1">
  <path d="M 13.496094 15.738281 L 34.664062 15.738281 L 34.664062 30.839844 L 13.496094 30.839844 Z M 13.496094 15.738281 "/>
</clipPath>
<clipPath id="clip2">
  <path d="M 9.78125 6.734375 L 38.378906 6.734375 C 40.042969 6.734375 41.390625 8.082031 41.390625 9.742188 L 41.390625 38.34375 C 41.390625 40.007812 40.042969 41.355469 38.378906 41.355469 L 9.78125 41.355469 C 8.117188 41.355469 6.769531 40.007812 6.769531 38.34375 L 6.769531 9.742188 C 6.769531 8.082031 8.117188 6.734375 9.78125 6.734375 Z M 9.78125 6.734375 "/>
</clipPath>
</defs>
<g id="surface1">
<path style="fill-rule:nonzero;fill:rgb(92.156863%,92.156863%,92.156863%);fill-opacity:1;stroke-width:28.032269;stroke-linecap:butt;stroke-linejoin:miter;stroke:rgb(90.980392%,13.72549%,13.72549%);stroke-opacity:1;stroke-miterlimit:4;" d="M 82.46875 26.40625 L 429.53125 26.40625 C 460.5 26.40625 485.59375 51.5 485.59375 82.46875 L 485.59375 429.53125 C 485.59375 460.5 460.5 485.59375 429.53125 485.59375 L 82.46875 485.59375 C 51.5 485.59375 26.40625 460.5 26.40625 429.53125 L 26.40625 82.46875 C 26.40625 51.5 51.5 26.40625 82.46875 26.40625 Z M 82.46875 26.40625 " transform="matrix(0.125,0,0,0.125,0,0)"/>
<g clip-path="url(#clip1)" clip-rule="nonzero">
<g clip-path="url(#clip2)" clip-rule="nonzero">
<path style=" stroke:none;fill-rule:nonzero;fill:rgb(90.980392%,13.72549%,13.72549%);fill-opacity:1;" d="M 34.617188 17.769531 C 32.035156 20.066406 24.320312 28.726562 23.011719 28.726562 C 22.152344 28.726562 21.429688 28.125 21.1875 27.207031 C 21.050781 26.640625 21.261719 27.355469 13.542969 30.816406 C 14.316406 30.320312 19.730469 26.164062 20.433594 25.660156 C 21.136719 25.15625 24.609375 22.71875 25.625 21.941406 C 27.480469 20.496094 28.207031 19.328125 28.207031 17.742188 C 28.207031 16.503906 27.445312 15.761719 26.246094 15.761719 C 25.492188 15.761719 24.9375 15.9375 24.144531 16.398438 C 22.839844 17.175781 21.671875 18.128906 20.949219 18.976562 C 19.640625 20.601562 18.472656 24.484375 18.472656 27.34375 C 18.472656 29.429688 19.539062 30.734375 21.292969 30.734375 C 23.320312 30.734375 30.457031 23.789062 33.171875 21 L 34.617188 17.765625 M 21.121094 23.957031 C 21.707031 20.179688 23.289062 17.246094 24.765625 17.246094 C 25.351562 17.246094 25.730469 17.847656 25.730469 18.695312 C 25.730469 20.464844 24.800781 21.519531 21.121094 23.957031 "/>
</g>
</g>
<path style=" stroke:none;fill-rule:nonzero;fill:rgb(60%,60%,60%);fill-opacity:1;" d="M 40.585938 36.273438 L 38.460938 36.273438 L 37.707031 35.546875 C 40.34375 32.484375 41.929688 28.503906 41.929688 24.175781 C 41.929688 14.523438 34.105469 6.699219 24.453125 6.699219 C 14.800781 6.699219 6.976562 14.523438 6.976562 24.175781 C 6.976562 33.828125 14.800781 41.652344 24.453125 41.652344 C 28.78125 41.652344 32.761719 40.066406 35.824219 37.429688 L 36.550781 38.183594 L 36.550781 40.308594 L 49.996094 53.722656 L 54 49.71875 Z M 24.453125 36.273438 C 17.757812 36.273438 12.351562 30.871094 12.351562 24.175781 C 12.351562 17.480469 17.757812 12.078125 24.453125 12.078125 C 31.148438 12.078125 36.550781 17.480469 36.550781 24.175781 C 36.550781 30.871094 31.148438 36.273438 24.453125 36.273438 Z M 24.453125 36.273438 "/>
</g>
</svg>
