
<svg xmlns="http://www.w3.org/2000/svg" xmlns:xlink="http://www.w3.org/1999/xlink" width="64px" height="64px" viewBox="0 0 64 64" version="1.1">
<g id="surface1">
<path style="fill-rule:nonzero;fill:rgb(100%,33.333333%,33.333333%);fill-opacity:1;stroke-width:28.191782;stroke-linecap:butt;stroke-linejoin:miter;stroke:rgb(60%,61.176471%,65.098039%);stroke-opacity:1;stroke-miterlimit:4;" d="M 81.46875 25.09375 L 430.53125 25.09375 C 461.65625 25.09375 486.90625 50.34375 486.90625 81.46875 L 486.90625 430.53125 C 486.90625 461.65625 461.65625 486.90625 430.53125 486.90625 L 81.46875 486.90625 C 50.34375 486.90625 25.09375 461.65625 25.09375 430.53125 L 25.09375 81.46875 C 25.09375 50.34375 50.34375 25.09375 81.46875 25.09375 Z M 81.46875 25.09375 " transform="matrix(0.125,0,0,0.125,0,0)"/>
<path style=" stroke:none;fill-rule:nonzero;fill:rgb(100%,100%,100%);fill-opacity:1;" d="M 11.199219 4.480469 C 7.488281 4.480469 4.480469 7.488281 4.480469 11.199219 L 4.480469 52.800781 C 4.480469 56.511719 7.488281 59.519531 11.199219 59.519531 L 52.800781 59.519531 C 56.511719 59.519531 59.519531 56.511719 59.519531 52.800781 L 59.519531 11.199219 C 59.519531 7.488281 56.511719 4.480469 52.800781 4.480469 Z M 15.84375 13.871094 L 37.515625 13.871094 L 37.515625 18.164062 L 20.945312 18.164062 L 20.945312 29.277344 L 35.898438 29.277344 L 35.898438 33.574219 L 20.945312 33.574219 L 20.945312 51.582031 L 15.84375 51.582031 Z M 15.84375 13.871094 "/>
<path style=" stroke:none;fill-rule:nonzero;fill:rgb(15.686275%,49.019608%,100%);fill-opacity:1;" d="M 40.023438 59.21875 C 39.769531 59.105469 39.503906 58.816406 39.382812 58.53125 C 39.320312 58.382812 39.257812 57.8125 39.207031 56.90625 C 39.160156 56.136719 39.101562 55.445312 39.074219 55.371094 C 39.039062 55.273438 38.863281 55.179688 38.425781 55.027344 C 38.09375 54.910156 37.59375 54.699219 37.316406 54.5625 C 37.035156 54.421875 36.75 54.304688 36.675781 54.304688 C 36.589844 54.304688 36.136719 54.675781 35.488281 55.273438 C 34.910156 55.800781 34.339844 56.285156 34.226562 56.34375 C 33.992188 56.464844 33.460938 56.484375 33.1875 56.382812 C 32.96875 56.300781 30.667969 54.035156 30.523438 53.753906 C 30.375 53.480469 30.390625 52.960938 30.554688 52.648438 C 30.628906 52.507812 31.117188 51.929688 31.636719 51.363281 C 32.195312 50.757812 32.582031 50.285156 32.582031 50.210938 C 32.582031 50.136719 32.46875 49.851562 32.328125 49.574219 C 32.1875 49.292969 31.980469 48.796875 31.863281 48.46875 C 31.75 48.136719 31.609375 47.84375 31.550781 47.8125 C 31.492188 47.785156 30.816406 47.726562 30.046875 47.683594 C 29.15625 47.632812 28.554688 47.570312 28.378906 47.507812 C 28.046875 47.390625 27.664062 46.984375 27.613281 46.691406 C 27.589844 46.574219 27.582031 45.695312 27.59375 44.742188 L 27.613281 43.011719 L 27.8125 42.761719 C 28.164062 42.320312 28.328125 42.277344 30.007812 42.171875 C 30.960938 42.113281 31.539062 42.054688 31.585938 42.003906 C 31.628906 41.960938 31.769531 41.636719 31.902344 41.277344 C 32.035156 40.921875 32.242188 40.429688 32.363281 40.191406 C 32.484375 39.949219 32.582031 39.703125 32.582031 39.636719 C 32.582031 39.570312 32.183594 39.082031 31.699219 38.550781 C 31.210938 38.015625 30.746094 37.492188 30.664062 37.382812 C 30.433594 37.074219 30.355469 36.699219 30.445312 36.328125 C 30.515625 36.046875 30.640625 35.894531 31.699219 34.824219 C 32.347656 34.167969 32.984375 33.574219 33.117188 33.507812 C 33.425781 33.347656 33.914062 33.347656 34.21875 33.503906 C 34.347656 33.566406 34.910156 34.042969 35.472656 34.558594 C 36.035156 35.074219 36.53125 35.515625 36.578125 35.542969 C 36.625 35.570312 36.929688 35.464844 37.296875 35.289062 C 37.644531 35.125 38.167969 34.910156 38.457031 34.8125 C 38.847656 34.679688 39 34.59375 39.054688 34.480469 C 39.09375 34.394531 39.164062 33.695312 39.207031 32.929688 C 39.292969 31.449219 39.34375 31.214844 39.648438 30.898438 C 39.988281 30.542969 40.179688 30.515625 42.074219 30.535156 L 43.800781 30.554688 L 44.070312 30.734375 C 44.535156 31.042969 44.59375 31.234375 44.703125 32.878906 C 44.753906 33.675781 44.8125 34.386719 44.828125 34.460938 C 44.855469 34.570312 44.996094 34.648438 45.460938 34.808594 C 45.789062 34.925781 46.3125 35.148438 46.628906 35.304688 C 46.941406 35.464844 47.226562 35.59375 47.257812 35.59375 C 47.289062 35.59375 47.792969 35.152344 48.378906 34.613281 C 48.964844 34.074219 49.554688 33.578125 49.6875 33.507812 C 50 33.34375 50.464844 33.347656 50.808594 33.511719 C 50.972656 33.589844 51.523438 34.09375 52.21875 34.796875 C 53.410156 36 53.503906 36.136719 53.503906 36.683594 C 53.507812 37.066406 53.335938 37.320312 52.308594 38.445312 C 51.753906 39.054688 51.296875 39.582031 51.296875 39.613281 C 51.296875 39.644531 51.441406 39.972656 51.621094 40.34375 C 51.796875 40.714844 52.007812 41.234375 52.089844 41.496094 C 52.191406 41.824219 52.28125 41.996094 52.367188 42.03125 C 52.441406 42.0625 53.160156 42.128906 53.964844 42.179688 C 55.566406 42.277344 55.824219 42.34375 56.09375 42.722656 C 56.347656 43.078125 56.375 43.347656 56.351562 45.089844 L 56.332031 46.757812 L 56.136719 47.035156 C 55.785156 47.535156 55.699219 47.558594 53.921875 47.675781 C 53.054688 47.730469 52.328125 47.792969 52.3125 47.8125 C 52.292969 47.832031 52.183594 48.109375 52.070312 48.429688 C 51.957031 48.75 51.738281 49.269531 51.578125 49.585938 C 51.417969 49.902344 51.296875 50.199219 51.308594 50.246094 C 51.320312 50.292969 51.753906 50.792969 52.269531 51.359375 C 52.789062 51.925781 53.277344 52.515625 53.359375 52.675781 C 53.53125 53.011719 53.546875 53.367188 53.40625 53.707031 C 53.28125 54.003906 51.171875 56.148438 50.828125 56.324219 C 50.542969 56.472656 50.019531 56.488281 49.71875 56.359375 C 49.605469 56.308594 49.027344 55.828125 48.4375 55.289062 C 47.847656 54.75 47.320312 54.304688 47.261719 54.304688 C 47.203125 54.304688 46.871094 54.4375 46.523438 54.601562 C 46.175781 54.765625 45.65625 54.976562 45.375 55.066406 C 44.984375 55.195312 44.851562 55.269531 44.828125 55.371094 C 44.8125 55.445312 44.753906 56.160156 44.703125 56.957031 C 44.585938 58.707031 44.519531 58.894531 43.910156 59.203125 C 43.730469 59.292969 43.4375 59.308594 41.960938 59.308594 C 40.648438 59.304688 40.167969 59.28125 40.023438 59.21875 Z M 42.589844 51.445312 C 44.160156 51.28125 45.472656 50.652344 46.589844 49.535156 C 47.441406 48.683594 47.992188 47.726562 48.320312 46.519531 C 48.53125 45.765625 48.527344 44.09375 48.320312 43.328125 C 47.6875 41.007812 46.023438 39.296875 43.726562 38.605469 C 43.191406 38.445312 43.046875 38.429688 42.003906 38.421875 C 41.007812 38.417969 40.800781 38.4375 40.316406 38.570312 C 37.898438 39.230469 36.046875 41.171875 35.542969 43.585938 C 35.085938 45.75 35.75 47.960938 37.332031 49.550781 C 38.160156 50.382812 39.234375 50.996094 40.402344 51.296875 C 40.734375 51.382812 41.203125 51.445312 41.875 51.5 C 41.929688 51.507812 42.25 51.480469 42.589844 51.445312 Z M 40.976562 48.722656 C 39.320312 48.269531 38.160156 46.863281 38.058594 45.171875 C 37.988281 43.988281 38.367188 42.988281 39.207031 42.152344 C 40.734375 40.628906 43.175781 40.617188 44.683594 42.121094 C 45.929688 43.359375 46.226562 45.125 45.453125 46.671875 C 44.796875 47.988281 43.585938 48.765625 42.101562 48.824219 C 41.597656 48.84375 41.347656 48.820312 40.976562 48.722656 Z M 42.832031 47.082031 C 43.289062 46.910156 43.835938 46.402344 44.066406 45.9375 C 44.226562 45.605469 44.246094 45.496094 44.246094 44.917969 C 44.246094 44.300781 44.234375 44.246094 44.023438 43.855469 C 43.597656 43.070312 42.964844 42.671875 42.070312 42.625 C 41.351562 42.589844 40.921875 42.742188 40.402344 43.214844 C 39.746094 43.816406 39.484375 44.652344 39.695312 45.476562 C 39.878906 46.191406 40.265625 46.675781 40.917969 47.003906 C 41.523438 47.3125 42.148438 47.335938 42.832031 47.082031 Z M 42.832031 47.082031 "/>
</g>
</svg>
