
<svg xmlns="http://www.w3.org/2000/svg" xmlns:xlink="http://www.w3.org/1999/xlink" width="64px" height="64px" viewBox="0 0 64 64" version="1.1">
<g id="surface1">
<path style="fill-rule:nonzero;fill:rgb(29.803922%,29.803922%,29.803922%);fill-opacity:1;stroke-width:27.27438;stroke-linecap:butt;stroke-linejoin:miter;stroke:rgb(90.196078%,90.196078%,90.196078%);stroke-opacity:1;stroke-miterlimit:4;" d="M 85.34375 35 L 426.65625 35 C 457.125 35 481.78125 59.15625 481.78125 88.96875 L 481.78125 423.03125 C 481.78125 452.84375 457.125 477 426.65625 477 L 85.34375 477 C 54.875 477 30.21875 452.84375 30.21875 423.03125 L 30.21875 88.96875 C 30.21875 59.15625 54.875 35 85.34375 35 Z M 85.34375 35 " transform="matrix(0.125,0,0,0.125,0,0)"/>
<path style=" stroke:none;fill-rule:nonzero;fill:rgb(90.196078%,90.196078%,90.196078%);fill-opacity:1;" d="M 12.078125 57.523438 C 11.964844 56.71875 11.246094 54.929688 10.917969 54.644531 C 10.671875 54.429688 10.492188 54.390625 9.796875 54.390625 C 9.339844 54.390625 8.578125 54.355469 8.097656 54.316406 L 7.230469 54.242188 L 7.121094 53.832031 C 7.003906 53.390625 6.816406 51.910156 6.738281 50.804688 L 6.6875 50.117188 L 8.480469 49.679688 L 10.277344 49.238281 L 10.410156 48.152344 C 10.480469 47.554688 10.574219 46.457031 10.621094 45.714844 C 10.6875 44.5625 10.675781 44.355469 10.527344 44.304688 C 9.761719 44.035156 7.554688 42.894531 7.496094 42.738281 C 7.351562 42.363281 8.476562 39.089844 8.792969 38.972656 C 8.886719 38.933594 9.699219 39.042969 10.601562 39.210938 C 11.5 39.378906 12.285156 39.484375 12.347656 39.449219 C 12.507812 39.351562 13.257812 38.210938 13.753906 37.320312 C 14.125 36.652344 14.160156 36.523438 14.027344 36.355469 C 13.945312 36.246094 13.472656 35.675781 12.980469 35.082031 C 11.804688 33.667969 11.773438 33.597656 12.160156 33.097656 C 12.566406 32.5625 14.027344 30.984375 14.363281 30.71875 C 14.65625 30.484375 14.644531 30.476562 16.96875 32.121094 L 17.675781 32.621094 L 18.21875 32.238281 C 20.078125 30.921875 20.40625 30.640625 20.40625 30.382812 C 20.40625 30.238281 20.277344 29.691406 20.117188 29.164062 C 19.558594 27.316406 19.496094 26.9375 19.714844 26.738281 C 20.027344 26.457031 22.746094 25.195312 23.042969 25.195312 C 23.253906 25.195312 23.40625 25.34375 23.707031 25.832031 C 24.671875 27.398438 25.1875 28.160156 25.328125 28.214844 C 25.671875 28.34375 29.234375 27.398438 29.375 27.136719 C 29.425781 27.039062 29.527344 26.472656 29.601562 25.878906 C 29.675781 25.285156 29.785156 24.527344 29.851562 24.199219 L 29.964844 23.601562 L 32.03125 23.632812 L 34.09375 23.664062 L 34.21875 24.796875 C 34.414062 26.597656 34.492188 26.988281 34.699219 27.234375 C 34.839844 27.402344 35.308594 27.550781 36.527344 27.804688 C 37.425781 27.996094 38.304688 28.148438 38.476562 28.148438 C 38.796875 28.148438 39.121094 27.71875 40.292969 25.734375 C 40.507812 25.375 40.746094 25.082031 40.828125 25.082031 C 41.050781 25.082031 43.335938 26.125 43.894531 26.480469 C 44.507812 26.871094 44.507812 26.984375 43.910156 28.882812 L 43.441406 30.363281 L 43.933594 30.796875 C 44.199219 31.035156 44.832031 31.503906 45.332031 31.839844 C 46.398438 32.550781 46.207031 32.589844 48.085938 31.316406 C 48.722656 30.886719 49.320312 30.535156 49.414062 30.535156 C 49.726562 30.535156 52.101562 33.1875 52.101562 33.535156 C 52.101562 33.652344 50.972656 35.082031 49.976562 36.230469 C 49.832031 36.394531 49.851562 36.492188 50.117188 37.027344 C 50.402344 37.59375 51.601562 39.507812 51.671875 39.507812 C 51.6875 39.507812 52.445312 39.355469 53.351562 39.167969 C 54.257812 38.980469 55.058594 38.828125 55.136719 38.828125 C 55.214844 38.828125 55.375 39.019531 55.492188 39.253906 C 55.777344 39.808594 56.53125 42.195312 56.53125 42.535156 C 56.53125 42.761719 56.308594 42.90625 54.992188 43.554688 C 54.148438 43.96875 53.410156 44.398438 53.351562 44.503906 C 53.238281 44.71875 53.617188 48.585938 53.796875 49 C 53.875 49.191406 54.128906 49.289062 55.070312 49.496094 C 57.335938 49.992188 57.265625 49.960938 57.308594 50.472656 C 57.347656 50.949219 57.167969 52.6875 56.976562 53.664062 L 56.863281 54.246094 L 55.304688 54.324219 C 53.039062 54.4375 53.027344 54.4375 52.773438 55.03125 C 52.367188 55.984375 51.859375 57.625 51.914062 57.824219 C 51.960938 58.011719 51.8125 58.023438 49.667969 58.023438 L 47.367188 58.023438 L 47.960938 56.820312 C 48.664062 55.398438 49.148438 53.988281 49.5 52.34375 C 49.847656 50.722656 49.875 47.503906 49.558594 45.8125 C 48.722656 41.324219 46.238281 37.3125 42.613281 34.59375 C 41.5 33.757812 38.9375 32.425781 37.558594 31.96875 C 35.640625 31.328125 34.507812 31.167969 31.992188 31.167969 C 29.363281 31.171875 28.328125 31.332031 26.183594 32.078125 C 20.546875 34.03125 16.140625 38.882812 14.683594 44.742188 C 13.714844 48.640625 14.402344 54.066406 16.273438 57.265625 C 16.484375 57.625 16.65625 57.945312 16.65625 57.972656 C 16.65625 58.003906 15.644531 58.023438 14.402344 58.023438 L 12.144531 58.023438 Z M 12.078125 57.523438 "/>
</g>
</svg>
