
<svg xmlns="http://www.w3.org/2000/svg" xmlns:xlink="http://www.w3.org/1999/xlink" width="64px" height="64px" viewBox="0 0 64 64" version="1.1">
<g id="surface1">
<path style="fill-rule:nonzero;fill:rgb(41.960784%,61.176471%,67.058824%);fill-opacity:1;stroke-width:28.191782;stroke-linecap:butt;stroke-linejoin:miter;stroke:rgb(9.803922%,9.803922%,9.803922%);stroke-opacity:1;stroke-miterlimit:4;" d="M -659.26388 -125.89847 L -310.20138 -125.89847 C -279.07638 -125.89847 -253.82638 -100.64847 -253.82638 -69.52347 L -253.82638 279.53903 C -253.82638 310.66403 -279.07638 335.91403 -310.20138 335.91403 L -659.26388 335.91403 C -690.38888 335.91403 -715.63888 310.66403 -715.63888 279.53903 L -715.63888 -69.52347 C -715.63888 -100.64847 -690.38888 -125.89847 -659.26388 -125.89847 Z M -659.26388 -125.89847 " transform="matrix(0.125,0,0,0.125,92.591579,18.874028)"/>
<path style="fill-rule:nonzero;fill:rgb(100%,33.333333%,33.333333%);fill-opacity:1;stroke-width:28.191753;stroke-linecap:butt;stroke-linejoin:miter;stroke:rgb(9.803922%,9.803922%,9.803922%);stroke-opacity:1;stroke-miterlimit:4;" d="M -659.26388 -125.89847 C -690.38888 -125.89847 -715.63888 -100.64847 -715.63888 -69.52347 L -715.63888 105.00778 L -484.73263 105.00778 L -484.73263 -125.89847 Z M -484.73263 105.00778 L -484.73263 335.91403 L -310.20138 335.91403 C -279.07638 335.91403 -253.82638 310.66403 -253.82638 279.53903 L -253.82638 105.00778 Z M -484.73263 105.00778 " transform="matrix(0.125,0,0,0.125,92.591579,18.874028)"/>
</g>
</svg>
