
<svg xmlns="http://www.w3.org/2000/svg" xmlns:xlink="http://www.w3.org/1999/xlink" width="64px" height="64px" viewBox="0 0 64 64" version="1.1">
<g id="surface1">
<path style="fill-rule:nonzero;fill:rgb(100%,100%,100%);fill-opacity:1;stroke-width:26.401737;stroke-linecap:butt;stroke-linejoin:miter;stroke:rgb(18.823529%,27.843137%,32.941176%);stroke-opacity:1;stroke-miterlimit:4;" d="M -48.442 -16.65258 L 278.433 -16.65258 C 307.58925 -16.65258 331.21425 7.00367 331.21425 36.15992 L 331.21425 363.03492 C 331.21425 392.19117 307.58925 415.84742 278.433 415.84742 L -48.442 415.84742 C -77.6295 415.84742 -101.2545 392.19117 -101.2545 363.03492 L -101.2545 36.15992 C -101.2545 7.00367 -77.6295 -16.65258 -48.442 -16.65258 Z M -48.442 -16.65258 " transform="matrix(0.125,0,0,0.125,18.039625,7.366729)"/>
<path style=" stroke:none;fill-rule:nonzero;fill:rgb(100%,78.039216%,18.823529%);fill-opacity:1;" d="M 11.984375 5.285156 C 11.460938 5.285156 10.953125 5.347656 10.464844 5.464844 L 23.335938 27.070312 L 23.328125 27.0625 C 22.734375 28.296875 22.195312 29.539062 22.035156 30.835938 C 21.835938 32.425781 21.964844 34.015625 22.375 35.542969 C 22.78125 37.066406 23.488281 38.558594 24.460938 39.839844 C 25.425781 41.121094 26.675781 42.207031 28.152344 43.058594 C 29.835938 44.035156 31.644531 44.582031 33.460938 44.699219 C 35.277344 44.816406 36.964844 43.640625 38.652344 42.984375 L 29.574219 59.347656 L 52.84375 59.347656 C 56.488281 59.347656 59.441406 56.390625 59.441406 52.746094 L 59.441406 11.886719 C 59.441406 8.242188 56.488281 5.285156 52.84375 5.285156 Z M 11.984375 5.285156 "/>
<path style=" stroke:none;fill-rule:nonzero;fill:rgb(83.137255%,9.803922%,9.803922%);fill-opacity:1;" d="M 11.984375 5.285156 C 8.335938 5.285156 5.382812 8.242188 5.382812 11.886719 L 5.382812 52.746094 C 5.382812 56.390625 8.335938 59.347656 11.984375 59.347656 L 23.457031 59.347656 L 31.96875 44.535156 L 31.96875 44.59375 C 33.332031 44.480469 34.671875 44.328125 35.878906 43.824219 C 37.351562 43.1875 38.667969 42.28125 39.78125 41.160156 C 40.902344 40.015625 41.835938 38.660156 42.464844 37.179688 C 43.085938 35.726562 43.402344 34.082031 43.402344 32.375 C 43.402344 30.429688 42.980469 28.597656 42.175781 26.96875 C 41.363281 25.3125 40.078125 23.835938 38.667969 22.703125 L 59.441406 22.703125 L 59.441406 11.886719 C 59.441406 8.242188 56.488281 5.285156 52.84375 5.285156 Z M 11.984375 5.285156 "/>
<path style=" stroke:none;fill-rule:nonzero;fill:rgb(4.705882%,63.137255%,36.862745%);fill-opacity:1;" d="M 7.007812 7.550781 C 5.996094 8.710938 5.382812 10.226562 5.382812 11.886719 L 5.382812 52.746094 C 5.382812 56.390625 8.335938 59.347656 11.984375 59.347656 L 29.574219 59.347656 L 38.957031 42.800781 C 37.273438 43.453125 35.476562 44.289062 33.460938 44.699219 C 31.644531 44.582031 29.835938 44.035156 28.152344 43.058594 C 26.675781 42.207031 25.425781 41.121094 24.460938 39.839844 C 23.488281 38.558594 22.78125 37.066406 22.375 35.542969 C 21.964844 34.015625 21.835938 32.425781 22.035156 30.835938 C 22.195312 29.535156 22.734375 28.296875 23.328125 27.0625 L 23.335938 27.070312 L 22.21875 25.199219 C 22.195312 25.234375 22.167969 25.269531 22.144531 25.304688 C 21.136719 26.816406 20.492188 28.539062 20.214844 30.324219 Z M 7.007812 7.550781 "/>
<path style=" stroke:none;fill-rule:nonzero;fill:rgb(97.254902%,97.254902%,97.254902%);fill-opacity:1;" d="M 44.769531 32.316406 C 44.769531 39.144531 39.238281 44.671875 32.414062 44.671875 C 25.589844 44.671875 20.054688 39.140625 20.054688 32.316406 C 20.054688 25.492188 25.589844 19.957031 32.414062 19.957031 C 39.242188 19.957031 44.769531 25.492188 44.769531 32.316406 M 44.769531 32.316406 "/>
<path style=" stroke:none;fill-rule:nonzero;fill:rgb(22.745098%,49.019608%,89.019608%);fill-opacity:1;" d="M 42.023438 32.316406 C 42.023438 37.625 37.722656 41.925781 32.414062 41.925781 C 27.101562 41.925781 22.800781 37.625 22.800781 32.316406 C 22.800781 27.007812 27.101562 22.703125 32.414062 22.703125 C 37.722656 22.703125 42.023438 27.007812 42.023438 32.316406 M 42.023438 32.316406 "/>
<path style=" stroke:none;fill-rule:nonzero;fill:rgb(23.921569%,23.921569%,24.705882%);fill-opacity:1;" d="M 58.691406 58.582031 C 58.769531 58.457031 59.269531 57.773438 59.804688 57.058594 C 60.339844 56.347656 60.78125 55.632812 60.78125 55.476562 C 60.78125 55.214844 60.125 55.191406 52.832031 55.191406 C 48.460938 55.191406 44.851562 55.226562 44.804688 55.273438 C 44.671875 55.40625 27.75 55.574219 27.183594 55.449219 L 26.671875 55.335938 L 26.714844 47.519531 L 26.757812 39.699219 L 45.722656 39.664062 L 64.6875 39.625 L 64.640625 47.535156 C 64.613281 52.671875 64.539062 55.445312 64.429688 55.445312 C 64.335938 55.441406 63.039062 56.195312 61.550781 57.121094 C 58.863281 58.789062 58.429688 59.007812 58.691406 58.582031 Z M 58.691406 58.582031 "/>
<path style=" stroke:none;fill-rule:nonzero;fill:rgb(100%,100%,100%);fill-opacity:1;" d="M 36.691406 51.648438 C 37.015625 51.457031 37.449219 51.042969 37.660156 50.726562 C 38.289062 49.78125 38.109375 48.148438 37.300781 47.46875 C 37.082031 47.285156 37.101562 47.175781 37.476562 46.625 C 38.230469 45.5 37.804688 44.015625 36.507812 43.246094 C 36.058594 42.976562 35.527344 42.894531 33.910156 42.835938 C 32.089844 42.769531 31.851562 42.796875 31.652344 43.074219 C 31.476562 43.316406 31.425781 44.34375 31.425781 47.472656 C 31.425781 51.070312 31.457031 51.589844 31.710938 51.84375 C 32.148438 52.289062 35.859375 52.140625 36.691406 51.648438 Z M 36.691406 51.648438 "/>
<path style=" stroke:none;fill-rule:nonzero;fill:rgb(23.921569%,23.921569%,24.705882%);fill-opacity:1;" d="M 33.589844 50.277344 C 33.519531 50.207031 33.460938 49.695312 33.460938 49.140625 L 33.460938 48.140625 L 34.355469 48.140625 C 35.507812 48.140625 36.007812 48.472656 36.007812 49.246094 C 36.007812 49.558594 35.898438 49.910156 35.761719 50.019531 C 35.472656 50.265625 33.769531 50.464844 33.589844 50.277344 Z M 33.589844 50.277344 "/>
<path style=" stroke:none;fill-rule:nonzero;fill:rgb(23.921569%,23.921569%,24.705882%);fill-opacity:1;" d="M 33.460938 45.558594 L 33.460938 44.699219 L 34.445312 44.699219 C 35.503906 44.699219 35.835938 44.890625 35.835938 45.496094 C 35.835938 46.140625 35.394531 46.417969 34.382812 46.417969 L 33.460938 46.417969 Z M 33.460938 45.558594 "/>
<path style=" stroke:none;fill-rule:nonzero;fill:rgb(100%,100%,100%);fill-opacity:1;" d="M 44.625 51.984375 C 44.964844 51.890625 45.011719 51.785156 44.964844 51.167969 L 44.914062 50.460938 L 42.964844 50.375 L 41.011719 50.289062 L 41.011719 48.226562 L 42.617188 48.175781 C 44.316406 48.121094 44.484375 48.039062 44.488281 47.269531 C 44.492188 46.539062 44.207031 46.417969 42.503906 46.417969 L 40.925781 46.417969 L 40.925781 44.699219 L 42.636719 44.699219 C 44.648438 44.699219 45 44.5625 45 43.78125 C 45 42.855469 44.851562 42.808594 41.917969 42.808594 C 39.402344 42.808594 39.230469 42.828125 39.058594 43.15625 C 38.9375 43.386719 38.890625 44.898438 38.925781 47.632812 C 38.96875 51.078125 39.019531 51.789062 39.230469 51.925781 C 39.511719 52.105469 44.003906 52.152344 44.625 51.984375 Z M 44.625 51.984375 "/>
<path style=" stroke:none;fill-rule:nonzero;fill:rgb(100%,100%,100%);fill-opacity:1;" d="M 49.59375 51.917969 C 49.898438 51.75 49.921875 51.523438 49.921875 48.21875 L 49.921875 44.699219 L 50.8125 44.695312 C 51.300781 44.695312 51.867188 44.648438 52.070312 44.59375 C 52.511719 44.472656 52.695312 43.855469 52.46875 43.25 L 52.304688 42.808594 L 49.035156 42.808594 C 47.234375 42.8125 45.660156 42.878906 45.535156 42.960938 C 45.300781 43.109375 45.210938 44.285156 45.414062 44.492188 C 45.476562 44.550781 46.058594 44.632812 46.707031 44.671875 L 47.882812 44.738281 L 47.882812 48.234375 C 47.882812 51.386719 47.914062 51.75 48.179688 51.910156 C 48.566406 52.136719 49.179688 52.140625 49.59375 51.917969 Z M 49.59375 51.917969 "/>
<path style=" stroke:none;fill-rule:nonzero;fill:rgb(100%,100%,100%);fill-opacity:1;" d="M 53.308594 51.925781 C 53.476562 51.835938 53.753906 51.367188 53.925781 50.890625 L 54.234375 50.019531 L 55.753906 50.066406 L 57.273438 50.117188 L 57.546875 50.941406 C 57.84375 51.851562 58.097656 52.089844 58.773438 52.09375 C 59.398438 52.097656 59.761719 51.929688 59.761719 51.640625 C 59.761719 51.234375 56.679688 43.074219 56.476562 42.9375 C 56.152344 42.726562 55.21875 42.792969 54.96875 43.042969 C 54.839844 43.175781 54.027344 45.164062 53.160156 47.464844 C 51.6875 51.378906 51.605469 51.660156 51.886719 51.871094 C 52.246094 52.136719 52.875 52.160156 53.308594 51.925781 Z M 53.308594 51.925781 "/>
<path style=" stroke:none;fill-rule:nonzero;fill:rgb(23.921569%,23.921569%,24.705882%);fill-opacity:1;" d="M 54.972656 48.214844 C 54.921875 48.164062 55.027344 47.71875 55.207031 47.226562 C 55.386719 46.734375 55.574219 46.21875 55.625 46.074219 C 55.707031 45.855469 56.527344 47.761719 56.535156 48.183594 C 56.539062 48.328125 55.117188 48.359375 54.972656 48.214844 Z M 54.972656 48.214844 "/>
</g>
</svg>
