
<svg xmlns="http://www.w3.org/2000/svg" xmlns:xlink="http://www.w3.org/1999/xlink" width="64px" height="64px" viewBox="0 0 64 64" version="1.1">
<g id="surface1">
<path style="fill-rule:nonzero;fill:rgb(12.54902%,43.921569%,56.862745%);fill-opacity:1;stroke-width:27.285545;stroke-linecap:butt;stroke-linejoin:miter;stroke:rgb(16.470588%,49.803922%,100%);stroke-opacity:1;stroke-miterlimit:4;" d="M 63.40625 20.5625 L 448.59375 20.5625 C 469.28125 20.5625 486.0625 37.34375 486.0625 58.0625 L 486.0625 453.9375 C 486.0625 474.65625 469.28125 491.40625 448.59375 491.40625 L 63.40625 491.40625 C 42.71875 491.40625 25.9375 474.65625 25.9375 453.9375 L 25.9375 58.0625 C 25.9375 37.34375 42.71875 20.5625 63.40625 20.5625 Z M 63.40625 20.5625 " transform="matrix(0.125,0,0,0.125,0,0)"/>
<path style=" stroke:none;fill-rule:nonzero;fill:rgb(100%,100%,100%);fill-opacity:1;" d="M 39.359375 26.476562 C 42.546875 24.324219 42.757812 20.855469 39.828125 18.730469 C 36.902344 16.609375 31.945312 16.636719 28.757812 18.789062 C 25.570312 20.945312 25.359375 24.414062 28.289062 26.535156 C 31.214844 28.660156 36.171875 28.632812 39.359375 26.476562 Z M 39.359375 26.476562 "/>
<path style=" stroke:none;fill-rule:nonzero;fill:rgb(100%,100%,100%);fill-opacity:1;" d="M 29.761719 28.5625 C 31.726562 29.660156 32.171875 31.96875 30.753906 33.71875 L 18.128906 49.308594 C 16.710938 51.058594 13.964844 51.585938 12 50.488281 C 10.03125 49.390625 9.589844 47.082031 11.003906 45.332031 L 23.632812 29.746094 C 25.050781 27.996094 27.792969 27.464844 29.761719 28.5625 Z M 29.761719 28.5625 "/>
<path style=" stroke:none;fill-rule:nonzero;fill:rgb(100%,100%,100%);fill-opacity:1;" d="M 37.777344 35.179688 C 37.648438 35.148438 37.515625 35.121094 37.382812 35.097656 C 36.605469 34.972656 35.730469 34.996094 34.816406 35.171875 C 34.683594 35.035156 34.496094 34.9375 34.261719 34.886719 L 33.449219 34.714844 C 32.535156 34.515625 31.222656 35.125 30.511719 36.078125 L 21.285156 48.367188 C 20.570312 49.316406 20.738281 50.242188 21.652344 50.4375 L 22.464844 50.613281 C 23.378906 50.808594 24.679688 50.199219 25.402344 49.25 L 28.3125 45.410156 C 30.269531 46.558594 33.597656 46.082031 36.425781 44.246094 C 38.085938 43.167969 39.382812 41.746094 40.03125 40.285156 C 40.679688 38.828125 40.628906 37.453125 39.886719 36.464844 C 39.417969 35.84375 38.691406 35.398438 37.777344 35.179688 Z M 35.808594 37.375 C 36.445312 37.480469 36.949219 37.753906 37.261719 38.167969 C 38.15625 39.363281 37.257812 41.382812 35.253906 42.6875 C 33.246094 43.988281 30.894531 44.078125 29.996094 42.882812 C 29.097656 41.691406 30 39.667969 32.003906 38.367188 C 33.242188 37.5625 34.671875 37.191406 35.808594 37.375 Z M 35.808594 37.375 "/>
<path style=" stroke:none;fill-rule:nonzero;fill:rgb(100%,100%,100%);fill-opacity:1;" d="M 34.664062 6.5 C 23.6875 6.832031 12.914062 12.949219 7.53125 21.898438 C 7.453125 22.039062 7.375 22.179688 7.300781 22.320312 C 15.195312 11.90625 30.023438 6.871094 41.910156 10.566406 C 50.726562 14.980469 54.46875 24.125 51.324219 33.570312 L 55.019531 36.019531 C 61.40625 24.257812 56.578125 11.820312 44.050781 7.765625 C 41.144531 6.828125 37.960938 6.398438 34.664062 6.5 Z M 34.664062 6.5 "/>
</g>
</svg>
