
<svg xmlns="http://www.w3.org/2000/svg" xmlns:xlink="http://www.w3.org/1999/xlink" width="64px" height="64px" viewBox="0 0 64 64" version="1.1">
<g id="surface1">
<path style="fill-rule:nonzero;fill:rgb(100%,100%,100%);fill-opacity:1;stroke-width:3.131993;stroke-linecap:butt;stroke-linejoin:miter;stroke:rgb(27.058824%,27.058824%,27.058824%);stroke-opacity:0.627451;stroke-miterlimit:4;" d="M 9.894531 4.976562 L 54.105469 4.976562 C 56.484375 4.976562 58.410156 6.902344 58.410156 9.277344 L 58.410156 54.722656 C 58.410156 57.097656 56.484375 59.023438 54.105469 59.023438 L 9.894531 59.023438 C 7.515625 59.023438 5.589844 57.097656 5.589844 54.722656 L 5.589844 9.277344 C 5.589844 6.902344 7.515625 4.976562 9.894531 4.976562 Z M 9.894531 4.976562 "/>
<path style="fill-rule:nonzero;fill:rgb(100%,100%,100%);fill-opacity:1;stroke-width:3.131993;stroke-linecap:butt;stroke-linejoin:miter;stroke:rgb(27.058824%,27.058824%,27.058824%);stroke-opacity:0.627451;stroke-miterlimit:4;" d="M 9.894531 4.976562 C 7.515625 4.976562 5.589844 6.902344 5.589844 9.277344 L 5.589844 54.722656 C 5.589844 57.097656 7.515625 59.023438 9.894531 59.023438 L 54.105469 59.023438 C 56.484375 59.023438 58.410156 57.097656 58.410156 54.722656 L 58.410156 9.277344 C 58.410156 6.902344 56.484375 4.976562 54.105469 4.976562 Z M 22.414062 19.351562 L 25.769531 19.351562 L 34.105469 41.222656 L 31.027344 41.222656 L 29.035156 35.609375 L 19.175781 35.609375 L 17.183594 41.222656 L 14.066406 41.222656 Z M 24.085938 22.265625 L 20.070312 33.148438 L 28.113281 33.148438 Z M 42.921875 24.417969 C 45.296875 24.417969 47.066406 25.035156 48.238281 26.265625 C 49.410156 27.496094 49.996094 29.359375 49.996094 31.859375 L 49.996094 41.222656 L 47.300781 41.222656 L 47.300781 38.730469 C 46.6875 39.726562 45.921875 40.464844 45.003906 40.941406 C 44.085938 41.410156 42.960938 41.644531 41.632812 41.644531 C 39.953125 41.644531 38.617188 41.175781 37.621094 40.238281 C 36.632812 39.292969 36.140625 38.027344 36.140625 36.445312 C 36.140625 34.601562 36.753906 33.207031 37.984375 32.269531 C 39.226562 31.332031 41.070312 30.863281 43.523438 30.863281 L 47.300781 30.863281 L 47.300781 30.601562 C 47.300781 29.359375 46.890625 28.402344 46.070312 27.730469 C 45.261719 27.046875 44.117188 26.703125 42.644531 26.703125 C 41.707031 26.703125 40.792969 26.816406 39.90625 27.042969 C 39.015625 27.265625 38.160156 27.601562 37.339844 28.050781 L 37.339844 25.5625 C 38.328125 25.179688 39.285156 24.898438 40.210938 24.710938 C 41.140625 24.515625 42.042969 24.417969 42.921875 24.417969 Z M 44.621094 32.972656 C 42.445312 32.972656 40.933594 33.222656 40.09375 33.722656 C 39.253906 34.21875 38.835938 35.070312 38.835938 36.269531 C 38.835938 37.226562 39.148438 37.988281 39.773438 38.554688 C 40.40625 39.113281 41.265625 39.390625 42.351562 39.390625 C 43.84375 39.390625 45.042969 38.863281 45.941406 37.808594 C 46.847656 36.742188 47.300781 35.332031 47.300781 33.574219 L 47.300781 32.972656 Z M 44.621094 32.972656 "/>
</g>
</svg>
