<!-- color: #54d160 -->
<svg xmlns="http://www.w3.org/2000/svg" xmlns:xlink="http://www.w3.org/1999/xlink" width="64px" height="64px" viewBox="0 0 64 64" version="1.1">
<g id="surface1">
<path style="fill-rule:nonzero;fill:rgb(100%,100%,100%);fill-opacity:1;stroke-width:28.178816;stroke-linecap:butt;stroke-linejoin:miter;stroke:rgb(56.078431%,85.098039%,0.784314%);stroke-opacity:1;stroke-miterlimit:4;" d="M 81.5625 25.21875 L 430.4375 25.21875 C 461.5625 25.21875 486.8125 50.4375 486.8125 81.5625 L 486.8125 430.4375 C 486.8125 461.5625 461.5625 486.8125 430.4375 486.8125 L 81.5625 486.8125 C 50.4375 486.8125 25.21875 461.5625 25.21875 430.4375 L 25.21875 81.5625 C 25.21875 50.4375 50.4375 25.21875 81.5625 25.21875 Z M 81.5625 25.21875 " transform="matrix(0.125,0,0,0.125,0,0)"/>
<path style="fill-rule:nonzero;fill:rgb(56.078431%,85.098039%,0.784314%);fill-opacity:1;stroke-width:40.818562;stroke-linecap:butt;stroke-linejoin:miter;stroke:rgb(56.078431%,85.098039%,0.784314%);stroke-opacity:1;stroke-miterlimit:4;" d="M 411.84375 256 C 411.84375 342.0625 342.09375 411.8125 256.03125 411.8125 C 169.96875 411.8125 100.21875 342.0625 100.21875 256 C 100.21875 169.9375 169.96875 100.1875 256.03125 100.1875 C 342.09375 100.1875 411.84375 169.9375 411.84375 256 Z M 411.84375 256 " transform="matrix(0.125,0,0,0.125,0,0)"/>
<path style="fill-rule:nonzero;fill:rgb(56.078431%,85.098039%,0.784314%);fill-opacity:1;stroke-width:40.818562;stroke-linecap:butt;stroke-linejoin:miter;stroke:rgb(56.078431%,85.098039%,0.784314%);stroke-opacity:1;stroke-miterlimit:4;" d="M 411.84375 256 C 411.84375 342.0625 342.09375 411.8125 256.03125 411.8125 C 169.96875 411.8125 100.21875 342.0625 100.21875 256 C 100.21875 169.9375 169.96875 100.1875 256.03125 100.1875 C 342.09375 100.1875 411.84375 169.9375 411.84375 256 Z M 411.84375 256 " transform="matrix(0.125,0,0,0.125,0,0)"/>
<path style=" stroke:none;fill-rule:nonzero;fill:rgb(30.196078%,30.196078%,30.196078%);fill-opacity:1;" d="M 9.976562 26.339844 L 9.976562 37.660156 L 18.246094 37.660156 L 18.246094 34.59375 L 54.089844 34.59375 L 54.089844 29.40625 L 18.246094 29.40625 L 18.246094 26.339844 Z M 9.976562 26.339844 "/>
<path style=" stroke:none;fill-rule:nonzero;fill:rgb(56.078431%,85.098039%,0.784314%);fill-opacity:1;" d="M 15.394531 54.027344 L 9.976562 54.027344 L 9.976562 48.609375 L 15.394531 48.609375 Z M 15.394531 54.027344 "/>
<path style=" stroke:none;fill-rule:nonzero;fill:rgb(56.078431%,85.098039%,0.784314%);fill-opacity:1;" d="M 54.03125 54.027344 L 48.613281 54.027344 L 48.613281 48.609375 L 54.03125 48.609375 Z M 54.03125 54.027344 "/>
<path style=" stroke:none;fill-rule:nonzero;fill:rgb(56.078431%,85.098039%,0.784314%);fill-opacity:1;" d="M 54.03125 15.390625 L 48.613281 15.390625 L 48.613281 9.972656 L 54.03125 9.972656 Z M 54.03125 15.390625 "/>
<path style=" stroke:none;fill-rule:nonzero;fill:rgb(56.078431%,85.098039%,0.784314%);fill-opacity:1;" d="M 15.394531 15.390625 L 9.976562 15.390625 L 9.976562 9.972656 L 15.394531 9.972656 Z M 15.394531 15.390625 "/>
</g>
</svg>
