
<svg xmlns="http://www.w3.org/2000/svg" xmlns:xlink="http://www.w3.org/1999/xlink" width="64px" height="64px" viewBox="0 0 64 64" version="1.1">
<g id="surface1">
<path style="fill-rule:nonzero;fill:rgb(16.862745%,23.921569%,30.980392%);fill-opacity:1;stroke-width:27.27438;stroke-linecap:butt;stroke-linejoin:miter;stroke:rgb(16.862745%,23.921569%,30.980392%);stroke-opacity:1;stroke-miterlimit:4;" d="M 83.15625 43.65625 L 424.5 43.65625 C 454.9375 43.65625 479.625 67.84375 479.625 97.625 L 479.625 431.71875 C 479.625 461.53125 454.9375 485.6875 424.5 485.6875 L 83.15625 485.6875 C 52.71875 485.6875 28.03125 461.53125 28.03125 431.71875 L 28.03125 97.625 C 28.03125 67.84375 52.71875 43.65625 83.15625 43.65625 Z M 83.15625 43.65625 " transform="matrix(0.125,0,0,0.125,0,0)"/>
<path style=" stroke:none;fill-rule:nonzero;fill:rgb(49.019608%,72.156863%,0%);fill-opacity:1;" d="M 32.945312 9.71875 L 32.945312 31.894531 L 55.597656 31.894531 L 55.597656 15.136719 C 55.597656 12.144531 53.121094 9.71875 50.066406 9.71875 Z M 32.945312 9.71875 "/>
<path style=" stroke:none;fill-rule:nonzero;fill:rgb(0%,63.137255%,93.333333%);fill-opacity:1;" d="M 30.511719 56.449219 L 30.511719 34.277344 L 7.859375 34.277344 L 7.859375 51.035156 C 7.859375 54.023438 10.335938 56.449219 13.390625 56.449219 Z M 30.511719 56.449219 "/>
<path style=" stroke:none;fill-rule:nonzero;fill:rgb(94.117647%,29.803922%,11.764706%);fill-opacity:1;" d="M 7.859375 31.894531 L 30.511719 31.894531 L 30.511719 9.71875 L 13.390625 9.71875 C 10.335938 9.71875 7.859375 12.144531 7.859375 15.136719 Z M 7.859375 31.894531 "/>
<path style=" stroke:none;fill-rule:nonzero;fill:rgb(99.215686%,72.156863%,0%);fill-opacity:1;" d="M 55.597656 34.277344 L 32.945312 34.277344 L 32.945312 56.449219 L 50.066406 56.449219 C 53.121094 56.449219 55.597656 54.023438 55.597656 51.035156 Z M 55.597656 34.277344 "/>
</g>
</svg>
