
<svg xmlns="http://www.w3.org/2000/svg" xmlns:xlink="http://www.w3.org/1999/xlink" width="64px" height="64px" viewBox="0 0 64 64" version="1.1">
<g id="surface1">
<path style="fill-rule:nonzero;fill:rgb(98.039216%,94.117647%,94.117647%);fill-opacity:1;stroke-width:27.285545;stroke-linecap:butt;stroke-linejoin:miter;stroke:rgb(60%,60%,60%);stroke-opacity:1;stroke-miterlimit:4;" d="M 63.40625 20.5625 L 448.59375 20.5625 C 469.28125 20.5625 486.0625 37.34375 486.0625 58.0625 L 486.0625 453.9375 C 486.0625 474.65625 469.28125 491.40625 448.59375 491.40625 L 63.40625 491.40625 C 42.71875 491.40625 25.9375 474.65625 25.9375 453.9375 L 25.9375 58.0625 C 25.9375 37.34375 42.71875 20.5625 63.40625 20.5625 Z M 63.40625 20.5625 " transform="matrix(0.125,0,0,0.125,0,0)"/>
<path style=" stroke:none;fill-rule:nonzero;fill:rgb(21.568627%,78.431373%,21.568627%);fill-opacity:1;" d="M 28.253906 20.816406 C 28.253906 17.269531 25.984375 14.390625 23.183594 14.390625 C 20.382812 14.390625 18.113281 17.269531 18.113281 20.816406 C 18.113281 24.367188 20.382812 27.246094 23.183594 27.246094 C 25.984375 27.246094 28.253906 24.367188 28.253906 20.816406 Z M 28.253906 20.816406 "/>
<path style=" stroke:none;fill-rule:nonzero;fill:rgb(21.568627%,78.431373%,21.568627%);fill-opacity:1;" d="M 23.183594 27.246094 C 28.269531 27.246094 33.40625 30.492188 32.363281 34.199219 L 28.359375 48.40625 C 27.3125 52.113281 28.269531 55.363281 23.183594 55.363281 C 18.101562 55.363281 19.296875 52.101562 18.207031 48.40625 L 14.007812 34.199219 C 12.914062 30.503906 18.101562 27.246094 23.183594 27.246094 Z M 23.183594 27.246094 "/>
<path style=" stroke:none;fill-rule:nonzero;fill:rgb(16.470588%,49.803922%,100%);fill-opacity:1;" d="M 43.597656 14.597656 C 43.597656 10.308594 40.855469 6.832031 37.476562 6.832031 C 34.09375 6.832031 31.351562 10.308594 31.351562 14.597656 C 31.351562 18.882812 34.09375 22.359375 37.476562 22.359375 C 40.855469 22.359375 43.597656 18.882812 43.597656 14.597656 Z M 43.597656 14.597656 "/>
<path style=" stroke:none;fill-rule:nonzero;fill:rgb(16.470588%,49.803922%,100%);fill-opacity:1;" d="M 37.476562 22.359375 C 43.617188 22.359375 49.824219 26.28125 48.558594 30.761719 L 43.726562 47.921875 C 42.464844 52.402344 43.617188 56.324219 37.476562 56.324219 C 31.335938 56.324219 32.78125 52.382812 31.460938 47.921875 L 26.390625 30.761719 C 25.070312 26.296875 31.335938 22.359375 37.476562 22.359375 Z M 37.476562 22.359375 "/>
</g>
</svg>
