<!-- color: #474747 -->
<svg xmlns="http://www.w3.org/2000/svg" xmlns:xlink="http://www.w3.org/1999/xlink" width="64px" height="64px" viewBox="0 0 64 64" version="1.1">
<defs>
<clipPath id="clip1">
  <path d="M 16.5 13.5 L 47.875 13.5 L 47.875 47.5 L 16.5 47.5 Z M 16.5 13.5 "/>
</clipPath>
<clipPath id="clip2">
  <path d="M 62.089844 31.757812 C 62.089844 48.300781 48.679688 61.699219 32.152344 61.699219 C 15.625 61.699219 2.210938 48.300781 2.210938 31.757812 C 2.210938 15.21875 15.625 1.820312 32.152344 1.820312 C 48.679688 1.820312 62.089844 15.21875 62.089844 31.757812 Z M 62.089844 31.757812 "/>
</clipPath>
</defs>
<g id="surface1">
<path style="fill-rule:nonzero;fill:rgb(100%,100%,100%);fill-opacity:1;stroke-width:28.797188;stroke-linecap:butt;stroke-linejoin:miter;stroke:rgb(50.196078%,50.196078%,50.196078%);stroke-opacity:1;stroke-miterlimit:4;" d="M 77.71875 20.125 L 434.28125 20.125 C 466.0625 20.125 491.875 45.9375 491.875 77.71875 L 491.875 434.28125 C 491.875 466.0625 466.0625 491.875 434.28125 491.875 L 77.71875 491.875 C 45.9375 491.875 20.125 466.0625 20.125 434.28125 L 20.125 77.71875 C 20.125 45.9375 45.9375 20.125 77.71875 20.125 Z M 77.71875 20.125 " transform="matrix(0.125,0,0,0.125,0,0)"/>
<g clip-path="url(#clip1)" clip-rule="nonzero">
<g clip-path="url(#clip2)" clip-rule="nonzero">
<path style=" stroke:none;fill-rule:nonzero;fill:rgb(50.196078%,50.196078%,50.196078%);fill-opacity:1;" d="M 32.152344 13.535156 C 32.152344 13.535156 43.867188 13.535156 43.867188 21.148438 L 43.867188 27.855469 C 43.867188 27.855469 47.773438 27.855469 47.773438 30.457031 L 47.773438 43.992188 C 47.773438 47.378906 43.867188 47.378906 43.867188 47.378906 L 20.4375 47.378906 C 20.4375 47.378906 16.53125 47.378906 16.53125 43.992188 L 16.53125 30.457031 C 16.53125 27.855469 20.4375 27.855469 20.4375 27.855469 L 20.4375 21.148438 C 20.4375 13.535156 32.152344 13.535156 32.152344 13.535156 M 32.152344 17.765625 C 32.152344 17.765625 25.644531 17.566406 25.644531 22.648438 L 25.644531 27.855469 L 38.660156 27.855469 L 38.660156 22.648438 C 38.660156 17.566406 32.152344 17.765625 32.152344 17.765625 M 32.152344 17.765625 "/>
</g>
</g>
</g>
</svg>
