
<svg xmlns="http://www.w3.org/2000/svg" xmlns:xlink="http://www.w3.org/1999/xlink" width="64px" height="64px" viewBox="0 0 64 64" version="1.1">
<g id="surface1">
<path style="fill-rule:nonzero;fill:rgb(12.941176%,12.941176%,12.941176%);fill-opacity:1;stroke-width:27.27438;stroke-linecap:butt;stroke-linejoin:miter;stroke:rgb(48.627451%,53.333333%,57.647059%);stroke-opacity:1;stroke-miterlimit:4;" d="M 85.34375 35 L 426.65625 35 C 457.125 35 481.78125 59.15625 481.78125 88.96875 L 481.78125 423.03125 C 481.78125 452.84375 457.125 477 426.65625 477 L 85.34375 477 C 54.875 477 30.21875 452.84375 30.21875 423.03125 L 30.21875 88.96875 C 30.21875 59.15625 54.875 35 85.34375 35 Z M 85.34375 35 " transform="matrix(0.125,0,0,0.125,0,0)"/>
<path style=" stroke:none;fill-rule:nonzero;fill:rgb(12.941176%,12.941176%,12.941176%);fill-opacity:1;" d="M 6.914062 15.089844 L 57.324219 15.089844 L 57.324219 29.285156 L 6.914062 29.285156 Z M 6.914062 15.089844 "/>
<path style=" stroke:none;fill-rule:nonzero;fill:rgb(11.764706%,18.039216%,21.960784%);fill-opacity:0.992157;" d="M 6.921875 14.832031 L 6.921875 30.003906 L 57.101562 30.003906 L 57.101562 14.832031 Z M 6.929688 34.058594 L 6.929688 49.230469 L 57.113281 49.230469 L 57.113281 34.058594 Z M 6.929688 34.058594 "/>
<path style="fill-rule:evenodd;fill:rgb(15.686275%,21.960784%,27.058824%);fill-opacity:1;stroke-width:1.871346;stroke-linecap:butt;stroke-linejoin:miter;stroke:rgb(12.941176%,12.941176%,12.941176%);stroke-opacity:1;stroke-miterlimit:4;" d="M 54.856397 119.584078 L 54.856397 240.959078 M 72.325147 119.584078 L 72.325147 240.959078 M 89.793897 119.584078 L 89.793897 240.959078 M 107.262647 119.584078 L 107.262647 240.959078 M 124.731397 119.584078 L 124.731397 240.959078 M 142.200147 119.584078 L 142.200147 240.959078 M 159.668897 119.584078 L 159.668897 240.959078 M 177.137647 119.584078 L 177.137647 240.959078 M 194.606397 119.584078 L 194.606397 240.959078 M 212.075147 119.584078 L 212.075147 240.959078 M 229.543897 119.584078 L 229.543897 240.959078 M 246.981397 119.584078 L 246.981397 240.959078 M 264.450147 119.584078 L 264.450147 240.959078 M 281.918897 119.584078 L 281.918897 240.959078 M 299.387647 119.584078 L 299.387647 240.959078 M 316.856397 119.584078 L 316.856397 240.959078 M 334.325147 119.584078 L 334.325147 240.959078 M 351.793897 119.584078 L 351.793897 240.959078 M 369.262647 119.584078 L 369.262647 240.959078 M 386.731397 119.584078 L 386.731397 240.959078 M 404.200147 119.584078 L 404.200147 240.959078 M 421.668897 119.584078 L 421.668897 240.959078 M 439.106397 119.584078 L 439.106397 240.959078 M 456.575147 119.584078 L 456.575147 240.959078 M 54.856397 119.584078 L 458.168897 119.584078 M 54.856397 136.865328 L 458.168897 136.865328 M 54.856397 154.115328 L 458.168897 154.115328 M 54.856397 171.396578 L 458.168897 171.396578 M 54.856397 188.646578 L 458.168897 188.646578 M 54.856397 205.927828 L 458.168897 205.927828 M 54.856397 223.177828 L 458.168897 223.177828 M 54.856397 240.459078 L 458.168897 240.459078 " transform="matrix(0.125,0,0,0.125,-0.0679871,-0.115978)"/>
<path style="fill-rule:evenodd;fill:rgb(43.137255%,45.098039%,45.098039%);fill-opacity:0.905882;stroke-width:1.871346;stroke-linecap:butt;stroke-linejoin:miter;stroke:rgb(12.941176%,12.941176%,12.941176%);stroke-opacity:1;stroke-miterlimit:4;" d="M 54.950147 273.396578 L 54.950147 394.771578 M 72.418897 273.396578 L 72.418897 394.771578 M 89.887647 273.396578 L 89.887647 394.771578 M 107.356397 273.396578 L 107.356397 394.771578 M 124.825147 273.396578 L 124.825147 394.771578 M 142.293897 273.396578 L 142.293897 394.771578 M 159.762647 273.396578 L 159.762647 394.771578 M 177.200147 273.396578 L 177.200147 394.771578 M 194.668897 273.396578 L 194.668897 394.771578 M 212.137647 273.396578 L 212.137647 394.771578 M 229.606397 273.396578 L 229.606397 394.771578 M 247.075147 273.396578 L 247.075147 394.771578 M 264.543897 273.396578 L 264.543897 394.771578 M 282.012647 273.396578 L 282.012647 394.771578 M 299.481397 273.396578 L 299.481397 394.771578 M 316.950147 273.396578 L 316.950147 394.771578 M 334.418897 273.396578 L 334.418897 394.771578 M 351.887647 273.396578 L 351.887647 394.771578 M 369.325147 273.396578 L 369.325147 394.771578 M 386.793897 273.396578 L 386.793897 394.771578 M 404.262647 273.396578 L 404.262647 394.771578 M 421.731397 273.396578 L 421.731397 394.771578 M 439.200147 273.396578 L 439.200147 394.771578 M 456.668897 273.396578 L 456.668897 394.771578 M 54.950147 273.396578 L 458.262647 273.396578 M 54.950147 290.677828 L 458.262647 290.677828 M 54.950147 307.927828 L 458.262647 307.927828 M 54.950147 325.209078 L 458.262647 325.209078 M 54.950147 342.459078 L 458.262647 342.459078 M 54.950147 359.740328 L 458.262647 359.740328 M 54.950147 376.990328 L 458.262647 376.990328 M 54.950147 394.271578 L 458.262647 394.271578 " transform="matrix(0.125,0,0,0.125,-0.0679871,-0.115978)"/>
<path style=" stroke:none;fill-rule:nonzero;fill:rgb(29.019608%,68.235294%,90.196078%);fill-opacity:0.992157;" d="M 9.101562 17.152344 L 9.101562 19.003906 L 10.953125 19.003906 L 10.953125 17.152344 Z M 11.34375 17.152344 L 11.34375 19.003906 L 13.195312 19.003906 L 13.195312 17.152344 Z M 17.871094 17.152344 L 17.871094 19.003906 L 19.722656 19.003906 L 19.722656 17.152344 Z M 20.015625 17.152344 L 20.015625 19.003906 L 21.867188 19.003906 L 21.867188 17.152344 Z M 22.257812 17.152344 L 22.257812 19.003906 L 24.109375 19.003906 L 24.109375 17.152344 Z M 28.789062 17.152344 L 28.789062 19.003906 L 30.640625 19.003906 L 30.640625 17.152344 Z M 30.933594 17.152344 L 30.933594 19.003906 L 32.785156 19.003906 L 32.785156 17.152344 Z M 33.175781 17.152344 L 33.175781 19.003906 L 35.027344 19.003906 L 35.027344 17.152344 Z M 37.558594 17.152344 L 37.558594 19.003906 L 39.414062 19.003906 L 39.414062 17.152344 Z M 44.089844 17.152344 L 44.089844 19.003906 L 45.941406 19.003906 L 45.941406 17.152344 Z M 50.621094 17.152344 L 50.621094 19.003906 L 52.472656 19.003906 L 52.472656 17.152344 Z M 52.765625 17.152344 L 52.765625 19.003906 L 54.617188 19.003906 L 54.617188 17.152344 Z M 6.957031 19.296875 L 6.957031 21.148438 L 8.808594 21.148438 L 8.808594 19.296875 Z M 13.488281 19.296875 L 13.488281 21.148438 L 15.339844 21.148438 L 15.339844 19.296875 Z M 17.871094 19.296875 L 17.871094 21.148438 L 19.722656 21.148438 L 19.722656 19.296875 Z M 24.402344 19.296875 L 24.402344 21.148438 L 26.253906 21.148438 L 26.253906 19.296875 Z M 30.933594 19.296875 L 30.933594 21.148438 L 32.785156 21.148438 L 32.785156 19.296875 Z M 37.558594 19.296875 L 37.558594 21.148438 L 39.414062 21.148438 L 39.414062 19.296875 Z M 44.089844 19.296875 L 44.089844 21.148438 L 45.941406 21.148438 L 45.941406 19.296875 Z M 48.476562 19.296875 L 48.476562 21.148438 L 50.328125 21.148438 L 50.328125 19.296875 Z M 55.007812 19.296875 L 55.007812 21.148438 L 56.859375 21.148438 L 56.859375 19.296875 Z M 6.957031 21.441406 L 6.957031 23.292969 L 8.808594 23.292969 L 8.808594 21.441406 Z M 13.488281 21.441406 L 13.488281 23.292969 L 15.339844 23.292969 L 15.339844 21.441406 Z M 17.871094 21.441406 L 17.871094 23.292969 L 19.722656 23.292969 L 19.722656 21.441406 Z M 24.402344 21.441406 L 24.402344 23.292969 L 26.253906 23.292969 L 26.253906 21.441406 Z M 30.933594 21.441406 L 30.933594 23.292969 L 32.785156 23.292969 L 32.785156 21.441406 Z M 37.558594 21.441406 L 37.558594 23.292969 L 39.414062 23.292969 L 39.414062 21.441406 Z M 44.089844 21.441406 L 44.089844 23.292969 L 45.941406 23.292969 L 45.941406 21.441406 Z M 48.476562 21.441406 L 48.476562 23.292969 L 50.328125 23.292969 L 50.328125 21.441406 Z M 55.007812 21.441406 L 55.007812 23.292969 L 56.859375 23.292969 L 56.859375 21.441406 Z M 6.957031 23.585938 L 6.957031 25.4375 L 8.808594 25.4375 L 8.808594 23.585938 Z M 9.101562 23.585938 L 9.101562 25.4375 L 10.953125 25.4375 L 10.953125 23.585938 Z M 11.34375 23.585938 L 11.34375 25.4375 L 13.195312 25.4375 L 13.195312 23.585938 Z M 13.488281 23.585938 L 13.488281 25.4375 L 15.339844 25.4375 L 15.339844 23.585938 Z M 17.871094 23.585938 L 17.871094 25.4375 L 19.722656 25.4375 L 19.722656 23.585938 Z M 20.015625 23.585938 L 20.015625 25.4375 L 21.867188 25.4375 L 21.867188 23.585938 Z M 22.257812 23.585938 L 22.257812 25.4375 L 24.109375 25.4375 L 24.109375 23.585938 Z M 30.933594 23.585938 L 30.933594 25.4375 L 32.785156 25.4375 L 32.785156 23.585938 Z M 37.558594 23.585938 L 37.558594 25.4375 L 39.414062 25.4375 L 39.414062 23.585938 Z M 44.089844 23.585938 L 44.089844 25.4375 L 45.941406 25.4375 L 45.941406 23.585938 Z M 48.476562 23.585938 L 48.476562 25.4375 L 50.328125 25.4375 L 50.328125 23.585938 Z M 50.621094 23.585938 L 50.621094 25.4375 L 52.472656 25.4375 L 52.472656 23.585938 Z M 52.765625 23.585938 L 52.765625 25.4375 L 54.617188 25.4375 L 54.617188 23.585938 Z M 55.007812 23.585938 L 55.007812 25.4375 L 56.859375 25.4375 L 56.859375 23.585938 Z M 6.957031 25.824219 L 6.957031 27.582031 L 8.808594 27.582031 L 8.808594 25.824219 Z M 13.488281 25.824219 L 13.488281 27.582031 L 15.339844 27.582031 L 15.339844 25.824219 Z M 17.871094 25.824219 L 17.871094 27.582031 L 19.722656 27.582031 L 19.722656 25.824219 Z M 24.402344 25.824219 L 24.402344 27.582031 L 26.253906 27.582031 L 26.253906 25.824219 Z M 30.933594 25.824219 L 30.933594 27.582031 L 32.785156 27.582031 L 32.785156 25.824219 Z M 39.703125 25.824219 L 39.703125 27.582031 L 41.558594 27.582031 L 41.558594 25.824219 Z M 41.847656 25.824219 L 41.847656 27.582031 L 43.699219 27.582031 L 43.699219 25.824219 Z M 48.476562 25.824219 L 48.476562 27.582031 L 50.328125 27.582031 L 50.328125 25.824219 Z M 55.007812 25.824219 L 55.007812 27.582031 L 56.859375 27.582031 L 56.859375 25.824219 Z M 6.980469 36.375 L 6.980469 38.226562 L 8.832031 38.226562 L 8.832031 36.375 Z M 9.125 36.375 L 9.125 38.226562 L 10.976562 38.226562 L 10.976562 36.375 Z M 15.65625 36.375 L 15.65625 38.226562 L 17.507812 38.226562 L 17.507812 36.375 Z M 22.285156 36.375 L 22.285156 38.226562 L 24.136719 38.226562 L 24.136719 36.375 Z M 28.8125 36.375 L 28.8125 38.226562 L 30.664062 38.226562 L 30.664062 36.375 Z M 30.957031 36.375 L 30.957031 38.226562 L 32.808594 38.226562 L 32.808594 36.375 Z M 41.875 36.375 L 41.875 38.226562 L 43.726562 38.226562 L 43.726562 36.375 Z M 44.117188 36.375 L 44.117188 38.226562 L 45.96875 38.226562 L 45.96875 36.375 Z M 48.40625 36.375 L 48.40625 38.226562 L 50.257812 38.226562 L 50.257812 36.375 Z M 50.644531 36.375 L 50.644531 38.226562 L 52.5 38.226562 L 52.5 36.375 Z M 52.789062 36.375 L 52.789062 38.226562 L 54.640625 38.226562 L 54.640625 36.375 Z M 55.03125 36.375 L 55.03125 38.226562 L 56.882812 38.226562 L 56.882812 36.375 Z M 11.367188 38.519531 L 11.367188 40.371094 L 13.21875 40.371094 L 13.21875 38.519531 Z M 15.65625 38.519531 L 15.65625 40.371094 L 17.507812 40.371094 L 17.507812 38.519531 Z M 22.285156 38.519531 L 22.285156 40.371094 L 24.136719 40.371094 L 24.136719 38.519531 Z M 26.570312 38.519531 L 26.570312 40.371094 L 28.425781 40.371094 L 28.425781 38.519531 Z M 33.199219 38.519531 L 33.199219 40.371094 L 35.050781 40.371094 L 35.050781 38.519531 Z M 37.488281 38.519531 L 37.488281 40.371094 L 39.339844 40.371094 L 39.339844 38.519531 Z M 44.117188 38.519531 L 44.117188 40.371094 L 45.96875 40.371094 L 45.96875 38.519531 Z M 55.03125 38.519531 L 55.03125 40.371094 L 56.882812 40.371094 L 56.882812 38.519531 Z M 11.367188 40.664062 L 11.367188 42.515625 L 13.21875 42.515625 L 13.21875 40.664062 Z M 17.898438 40.664062 L 17.898438 42.515625 L 19.75 42.515625 L 19.75 40.664062 Z M 20.042969 40.664062 L 20.042969 42.515625 L 21.894531 42.515625 L 21.894531 40.664062 Z M 28.8125 40.664062 L 28.8125 42.515625 L 30.664062 42.515625 L 30.664062 40.664062 Z M 30.957031 40.664062 L 30.957031 42.515625 L 32.808594 42.515625 L 32.808594 40.664062 Z M 44.117188 40.664062 L 44.117188 42.515625 L 45.96875 42.515625 L 45.96875 40.664062 Z M 52.789062 40.664062 L 52.789062 42.515625 L 54.640625 42.515625 L 54.640625 40.664062 Z M 6.980469 42.90625 L 6.980469 44.660156 L 8.832031 44.660156 L 8.832031 42.90625 Z M 9.125 42.90625 L 9.125 44.660156 L 10.976562 44.660156 L 10.976562 42.90625 Z M 11.367188 42.90625 L 11.367188 44.660156 L 13.21875 44.660156 L 13.21875 42.90625 Z M 20.042969 42.90625 L 20.042969 44.660156 L 21.894531 44.660156 L 21.894531 42.90625 Z M 26.570312 42.90625 L 26.570312 44.660156 L 28.425781 44.660156 L 28.425781 42.90625 Z M 33.199219 42.90625 L 33.199219 44.660156 L 35.050781 44.660156 L 35.050781 42.90625 Z M 37.488281 42.90625 L 37.488281 44.660156 L 39.339844 44.660156 L 39.339844 42.90625 Z M 44.117188 42.90625 L 44.117188 44.660156 L 45.96875 44.660156 L 45.96875 42.90625 Z M 50.644531 42.90625 L 50.644531 44.660156 L 52.5 44.660156 L 52.5 42.90625 Z M 11.367188 45.050781 L 11.367188 46.804688 L 13.21875 46.804688 L 13.21875 45.050781 Z M 17.898438 45.050781 L 17.898438 46.804688 L 19.75 46.804688 L 19.75 45.050781 Z M 28.8125 45.050781 L 28.8125 46.804688 L 30.664062 46.804688 L 30.664062 45.050781 Z M 30.957031 45.050781 L 30.957031 46.804688 L 32.808594 46.804688 L 32.808594 45.050781 Z M 44.117188 45.050781 L 44.117188 46.804688 L 45.96875 46.804688 L 45.96875 45.050781 Z M 50.644531 45.050781 L 50.644531 46.804688 L 52.5 46.804688 L 52.5 45.050781 Z M 50.644531 45.050781 "/>
<path style=" stroke:none;fill-rule:nonzero;fill:rgb(29.803922%,74.117647%,93.333333%);fill-opacity:1;" d="M 39.703125 26.703125 L 39.703125 25.824219 L 41.554688 25.824219 L 41.554688 27.578125 L 39.703125 27.578125 Z M 39.703125 26.703125 "/>
</g>
</svg>
