
<svg xmlns="http://www.w3.org/2000/svg" xmlns:xlink="http://www.w3.org/1999/xlink" width="64px" height="64px" viewBox="0 0 64 64" version="1.1">
<defs>
<clipPath id="clip1">
  <path d="M 4 4 L 60 4 L 60 60 L 4 60 Z M 4 4 "/>
</clipPath>
<clipPath id="clip2">
  <path d="M 11.292969 4.601562 L 52.707031 4.601562 C 56.402344 4.601562 59.398438 7.597656 59.398438 11.292969 L 59.398438 52.707031 C 59.398438 56.402344 56.402344 59.398438 52.707031 59.398438 L 11.292969 59.398438 C 7.597656 59.398438 4.601562 56.402344 4.601562 52.707031 L 4.601562 11.292969 C 4.601562 7.597656 7.597656 4.601562 11.292969 4.601562 Z M 11.292969 4.601562 "/>
</clipPath>
<clipPath id="clip3">
  <path d="M 4 32 L 32 32 L 32 60 L 4 60 Z M 4 32 "/>
</clipPath>
<clipPath id="clip4">
  <path d="M 11.292969 4.601562 L 52.707031 4.601562 C 56.402344 4.601562 59.398438 7.597656 59.398438 11.292969 L 59.398438 52.707031 C 59.398438 56.402344 56.402344 59.398438 52.707031 59.398438 L 11.292969 59.398438 C 7.597656 59.398438 4.601562 56.402344 4.601562 52.707031 L 4.601562 11.292969 C 4.601562 7.597656 7.597656 4.601562 11.292969 4.601562 Z M 11.292969 4.601562 "/>
</clipPath>
<clipPath id="clip5">
  <path d="M 4 53 L 11 53 L 11 60 L 4 60 Z M 4 53 "/>
</clipPath>
<clipPath id="clip6">
  <path d="M 11.292969 4.601562 L 52.707031 4.601562 C 56.402344 4.601562 59.398438 7.597656 59.398438 11.292969 L 59.398438 52.707031 C 59.398438 56.402344 56.402344 59.398438 52.707031 59.398438 L 11.292969 59.398438 C 7.597656 59.398438 4.601562 56.402344 4.601562 52.707031 L 4.601562 11.292969 C 4.601562 7.597656 7.597656 4.601562 11.292969 4.601562 Z M 11.292969 4.601562 "/>
</clipPath>
<clipPath id="clip7">
  <path d="M 10 53 L 18 53 L 18 60 L 10 60 Z M 10 53 "/>
</clipPath>
<clipPath id="clip8">
  <path d="M 11.292969 4.601562 L 52.707031 4.601562 C 56.402344 4.601562 59.398438 7.597656 59.398438 11.292969 L 59.398438 52.707031 C 59.398438 56.402344 56.402344 59.398438 52.707031 59.398438 L 11.292969 59.398438 C 7.597656 59.398438 4.601562 56.402344 4.601562 52.707031 L 4.601562 11.292969 C 4.601562 7.597656 7.597656 4.601562 11.292969 4.601562 Z M 11.292969 4.601562 "/>
</clipPath>
<clipPath id="clip9">
  <path d="M 17 53 L 25 53 L 25 60 L 17 60 Z M 17 53 "/>
</clipPath>
<clipPath id="clip10">
  <path d="M 11.292969 4.601562 L 52.707031 4.601562 C 56.402344 4.601562 59.398438 7.597656 59.398438 11.292969 L 59.398438 52.707031 C 59.398438 56.402344 56.402344 59.398438 52.707031 59.398438 L 11.292969 59.398438 C 7.597656 59.398438 4.601562 56.402344 4.601562 52.707031 L 4.601562 11.292969 C 4.601562 7.597656 7.597656 4.601562 11.292969 4.601562 Z M 11.292969 4.601562 "/>
</clipPath>
<clipPath id="clip11">
  <path d="M 24 53 L 32 53 L 32 60 L 24 60 Z M 24 53 "/>
</clipPath>
<clipPath id="clip12">
  <path d="M 11.292969 4.601562 L 52.707031 4.601562 C 56.402344 4.601562 59.398438 7.597656 59.398438 11.292969 L 59.398438 52.707031 C 59.398438 56.402344 56.402344 59.398438 52.707031 59.398438 L 11.292969 59.398438 C 7.597656 59.398438 4.601562 56.402344 4.601562 52.707031 L 4.601562 11.292969 C 4.601562 7.597656 7.597656 4.601562 11.292969 4.601562 Z M 11.292969 4.601562 "/>
</clipPath>
<clipPath id="clip13">
  <path d="M 32 53 L 40 53 L 40 60 L 32 60 Z M 32 53 "/>
</clipPath>
<clipPath id="clip14">
  <path d="M 11.292969 4.601562 L 52.707031 4.601562 C 56.402344 4.601562 59.398438 7.597656 59.398438 11.292969 L 59.398438 52.707031 C 59.398438 56.402344 56.402344 59.398438 52.707031 59.398438 L 11.292969 59.398438 C 7.597656 59.398438 4.601562 56.402344 4.601562 52.707031 L 4.601562 11.292969 C 4.601562 7.597656 7.597656 4.601562 11.292969 4.601562 Z M 11.292969 4.601562 "/>
</clipPath>
<clipPath id="clip15">
  <path d="M 39 53 L 47 53 L 47 60 L 39 60 Z M 39 53 "/>
</clipPath>
<clipPath id="clip16">
  <path d="M 11.292969 4.601562 L 52.707031 4.601562 C 56.402344 4.601562 59.398438 7.597656 59.398438 11.292969 L 59.398438 52.707031 C 59.398438 56.402344 56.402344 59.398438 52.707031 59.398438 L 11.292969 59.398438 C 7.597656 59.398438 4.601562 56.402344 4.601562 52.707031 L 4.601562 11.292969 C 4.601562 7.597656 7.597656 4.601562 11.292969 4.601562 Z M 11.292969 4.601562 "/>
</clipPath>
<clipPath id="clip17">
  <path d="M 46 53 L 54 53 L 54 60 L 46 60 Z M 46 53 "/>
</clipPath>
<clipPath id="clip18">
  <path d="M 11.292969 4.601562 L 52.707031 4.601562 C 56.402344 4.601562 59.398438 7.597656 59.398438 11.292969 L 59.398438 52.707031 C 59.398438 56.402344 56.402344 59.398438 52.707031 59.398438 L 11.292969 59.398438 C 7.597656 59.398438 4.601562 56.402344 4.601562 52.707031 L 4.601562 11.292969 C 4.601562 7.597656 7.597656 4.601562 11.292969 4.601562 Z M 11.292969 4.601562 "/>
</clipPath>
<clipPath id="clip19">
  <path d="M 53 53 L 60 53 L 60 60 L 53 60 Z M 53 53 "/>
</clipPath>
<clipPath id="clip20">
  <path d="M 11.292969 4.601562 L 52.707031 4.601562 C 56.402344 4.601562 59.398438 7.597656 59.398438 11.292969 L 59.398438 52.707031 C 59.398438 56.402344 56.402344 59.398438 52.707031 59.398438 L 11.292969 59.398438 C 7.597656 59.398438 4.601562 56.402344 4.601562 52.707031 L 4.601562 11.292969 C 4.601562 7.597656 7.597656 4.601562 11.292969 4.601562 Z M 11.292969 4.601562 "/>
</clipPath>
<clipPath id="clip21">
  <path d="M 4 46 L 11 46 L 11 54 L 4 54 Z M 4 46 "/>
</clipPath>
<clipPath id="clip22">
  <path d="M 11.292969 4.601562 L 52.707031 4.601562 C 56.402344 4.601562 59.398438 7.597656 59.398438 11.292969 L 59.398438 52.707031 C 59.398438 56.402344 56.402344 59.398438 52.707031 59.398438 L 11.292969 59.398438 C 7.597656 59.398438 4.601562 56.402344 4.601562 52.707031 L 4.601562 11.292969 C 4.601562 7.597656 7.597656 4.601562 11.292969 4.601562 Z M 11.292969 4.601562 "/>
</clipPath>
<clipPath id="clip23">
  <path d="M 10 46 L 18 46 L 18 54 L 10 54 Z M 10 46 "/>
</clipPath>
<clipPath id="clip24">
  <path d="M 11.292969 4.601562 L 52.707031 4.601562 C 56.402344 4.601562 59.398438 7.597656 59.398438 11.292969 L 59.398438 52.707031 C 59.398438 56.402344 56.402344 59.398438 52.707031 59.398438 L 11.292969 59.398438 C 7.597656 59.398438 4.601562 56.402344 4.601562 52.707031 L 4.601562 11.292969 C 4.601562 7.597656 7.597656 4.601562 11.292969 4.601562 Z M 11.292969 4.601562 "/>
</clipPath>
<clipPath id="clip25">
  <path d="M 17 46 L 25 46 L 25 54 L 17 54 Z M 17 46 "/>
</clipPath>
<clipPath id="clip26">
  <path d="M 11.292969 4.601562 L 52.707031 4.601562 C 56.402344 4.601562 59.398438 7.597656 59.398438 11.292969 L 59.398438 52.707031 C 59.398438 56.402344 56.402344 59.398438 52.707031 59.398438 L 11.292969 59.398438 C 7.597656 59.398438 4.601562 56.402344 4.601562 52.707031 L 4.601562 11.292969 C 4.601562 7.597656 7.597656 4.601562 11.292969 4.601562 Z M 11.292969 4.601562 "/>
</clipPath>
<clipPath id="clip27">
  <path d="M 24 46 L 32 46 L 32 54 L 24 54 Z M 24 46 "/>
</clipPath>
<clipPath id="clip28">
  <path d="M 11.292969 4.601562 L 52.707031 4.601562 C 56.402344 4.601562 59.398438 7.597656 59.398438 11.292969 L 59.398438 52.707031 C 59.398438 56.402344 56.402344 59.398438 52.707031 59.398438 L 11.292969 59.398438 C 7.597656 59.398438 4.601562 56.402344 4.601562 52.707031 L 4.601562 11.292969 C 4.601562 7.597656 7.597656 4.601562 11.292969 4.601562 Z M 11.292969 4.601562 "/>
</clipPath>
<clipPath id="clip29">
  <path d="M 32 46 L 40 46 L 40 54 L 32 54 Z M 32 46 "/>
</clipPath>
<clipPath id="clip30">
  <path d="M 11.292969 4.601562 L 52.707031 4.601562 C 56.402344 4.601562 59.398438 7.597656 59.398438 11.292969 L 59.398438 52.707031 C 59.398438 56.402344 56.402344 59.398438 52.707031 59.398438 L 11.292969 59.398438 C 7.597656 59.398438 4.601562 56.402344 4.601562 52.707031 L 4.601562 11.292969 C 4.601562 7.597656 7.597656 4.601562 11.292969 4.601562 Z M 11.292969 4.601562 "/>
</clipPath>
<clipPath id="clip31">
  <path d="M 39 46 L 47 46 L 47 54 L 39 54 Z M 39 46 "/>
</clipPath>
<clipPath id="clip32">
  <path d="M 11.292969 4.601562 L 52.707031 4.601562 C 56.402344 4.601562 59.398438 7.597656 59.398438 11.292969 L 59.398438 52.707031 C 59.398438 56.402344 56.402344 59.398438 52.707031 59.398438 L 11.292969 59.398438 C 7.597656 59.398438 4.601562 56.402344 4.601562 52.707031 L 4.601562 11.292969 C 4.601562 7.597656 7.597656 4.601562 11.292969 4.601562 Z M 11.292969 4.601562 "/>
</clipPath>
<clipPath id="clip33">
  <path d="M 46 46 L 54 46 L 54 54 L 46 54 Z M 46 46 "/>
</clipPath>
<clipPath id="clip34">
  <path d="M 11.292969 4.601562 L 52.707031 4.601562 C 56.402344 4.601562 59.398438 7.597656 59.398438 11.292969 L 59.398438 52.707031 C 59.398438 56.402344 56.402344 59.398438 52.707031 59.398438 L 11.292969 59.398438 C 7.597656 59.398438 4.601562 56.402344 4.601562 52.707031 L 4.601562 11.292969 C 4.601562 7.597656 7.597656 4.601562 11.292969 4.601562 Z M 11.292969 4.601562 "/>
</clipPath>
<clipPath id="clip35">
  <path d="M 53 46 L 60 46 L 60 54 L 53 54 Z M 53 46 "/>
</clipPath>
<clipPath id="clip36">
  <path d="M 11.292969 4.601562 L 52.707031 4.601562 C 56.402344 4.601562 59.398438 7.597656 59.398438 11.292969 L 59.398438 52.707031 C 59.398438 56.402344 56.402344 59.398438 52.707031 59.398438 L 11.292969 59.398438 C 7.597656 59.398438 4.601562 56.402344 4.601562 52.707031 L 4.601562 11.292969 C 4.601562 7.597656 7.597656 4.601562 11.292969 4.601562 Z M 11.292969 4.601562 "/>
</clipPath>
<clipPath id="clip37">
  <path d="M 4 39 L 11 39 L 11 47 L 4 47 Z M 4 39 "/>
</clipPath>
<clipPath id="clip38">
  <path d="M 11.292969 4.601562 L 52.707031 4.601562 C 56.402344 4.601562 59.398438 7.597656 59.398438 11.292969 L 59.398438 52.707031 C 59.398438 56.402344 56.402344 59.398438 52.707031 59.398438 L 11.292969 59.398438 C 7.597656 59.398438 4.601562 56.402344 4.601562 52.707031 L 4.601562 11.292969 C 4.601562 7.597656 7.597656 4.601562 11.292969 4.601562 Z M 11.292969 4.601562 "/>
</clipPath>
<clipPath id="clip39">
  <path d="M 10 39 L 18 39 L 18 47 L 10 47 Z M 10 39 "/>
</clipPath>
<clipPath id="clip40">
  <path d="M 11.292969 4.601562 L 52.707031 4.601562 C 56.402344 4.601562 59.398438 7.597656 59.398438 11.292969 L 59.398438 52.707031 C 59.398438 56.402344 56.402344 59.398438 52.707031 59.398438 L 11.292969 59.398438 C 7.597656 59.398438 4.601562 56.402344 4.601562 52.707031 L 4.601562 11.292969 C 4.601562 7.597656 7.597656 4.601562 11.292969 4.601562 Z M 11.292969 4.601562 "/>
</clipPath>
<clipPath id="clip41">
  <path d="M 17 39 L 25 39 L 25 47 L 17 47 Z M 17 39 "/>
</clipPath>
<clipPath id="clip42">
  <path d="M 11.292969 4.601562 L 52.707031 4.601562 C 56.402344 4.601562 59.398438 7.597656 59.398438 11.292969 L 59.398438 52.707031 C 59.398438 56.402344 56.402344 59.398438 52.707031 59.398438 L 11.292969 59.398438 C 7.597656 59.398438 4.601562 56.402344 4.601562 52.707031 L 4.601562 11.292969 C 4.601562 7.597656 7.597656 4.601562 11.292969 4.601562 Z M 11.292969 4.601562 "/>
</clipPath>
<clipPath id="clip43">
  <path d="M 24 39 L 32 39 L 32 47 L 24 47 Z M 24 39 "/>
</clipPath>
<clipPath id="clip44">
  <path d="M 11.292969 4.601562 L 52.707031 4.601562 C 56.402344 4.601562 59.398438 7.597656 59.398438 11.292969 L 59.398438 52.707031 C 59.398438 56.402344 56.402344 59.398438 52.707031 59.398438 L 11.292969 59.398438 C 7.597656 59.398438 4.601562 56.402344 4.601562 52.707031 L 4.601562 11.292969 C 4.601562 7.597656 7.597656 4.601562 11.292969 4.601562 Z M 11.292969 4.601562 "/>
</clipPath>
<clipPath id="clip45">
  <path d="M 32 39 L 40 39 L 40 47 L 32 47 Z M 32 39 "/>
</clipPath>
<clipPath id="clip46">
  <path d="M 11.292969 4.601562 L 52.707031 4.601562 C 56.402344 4.601562 59.398438 7.597656 59.398438 11.292969 L 59.398438 52.707031 C 59.398438 56.402344 56.402344 59.398438 52.707031 59.398438 L 11.292969 59.398438 C 7.597656 59.398438 4.601562 56.402344 4.601562 52.707031 L 4.601562 11.292969 C 4.601562 7.597656 7.597656 4.601562 11.292969 4.601562 Z M 11.292969 4.601562 "/>
</clipPath>
<clipPath id="clip47">
  <path d="M 39 39 L 47 39 L 47 47 L 39 47 Z M 39 39 "/>
</clipPath>
<clipPath id="clip48">
  <path d="M 11.292969 4.601562 L 52.707031 4.601562 C 56.402344 4.601562 59.398438 7.597656 59.398438 11.292969 L 59.398438 52.707031 C 59.398438 56.402344 56.402344 59.398438 52.707031 59.398438 L 11.292969 59.398438 C 7.597656 59.398438 4.601562 56.402344 4.601562 52.707031 L 4.601562 11.292969 C 4.601562 7.597656 7.597656 4.601562 11.292969 4.601562 Z M 11.292969 4.601562 "/>
</clipPath>
<clipPath id="clip49">
  <path d="M 46 39 L 54 39 L 54 47 L 46 47 Z M 46 39 "/>
</clipPath>
<clipPath id="clip50">
  <path d="M 11.292969 4.601562 L 52.707031 4.601562 C 56.402344 4.601562 59.398438 7.597656 59.398438 11.292969 L 59.398438 52.707031 C 59.398438 56.402344 56.402344 59.398438 52.707031 59.398438 L 11.292969 59.398438 C 7.597656 59.398438 4.601562 56.402344 4.601562 52.707031 L 4.601562 11.292969 C 4.601562 7.597656 7.597656 4.601562 11.292969 4.601562 Z M 11.292969 4.601562 "/>
</clipPath>
<clipPath id="clip51">
  <path d="M 53 39 L 60 39 L 60 47 L 53 47 Z M 53 39 "/>
</clipPath>
<clipPath id="clip52">
  <path d="M 11.292969 4.601562 L 52.707031 4.601562 C 56.402344 4.601562 59.398438 7.597656 59.398438 11.292969 L 59.398438 52.707031 C 59.398438 56.402344 56.402344 59.398438 52.707031 59.398438 L 11.292969 59.398438 C 7.597656 59.398438 4.601562 56.402344 4.601562 52.707031 L 4.601562 11.292969 C 4.601562 7.597656 7.597656 4.601562 11.292969 4.601562 Z M 11.292969 4.601562 "/>
</clipPath>
<clipPath id="clip53">
  <path d="M 4 32 L 11 32 L 11 40 L 4 40 Z M 4 32 "/>
</clipPath>
<clipPath id="clip54">
  <path d="M 11.292969 4.601562 L 52.707031 4.601562 C 56.402344 4.601562 59.398438 7.597656 59.398438 11.292969 L 59.398438 52.707031 C 59.398438 56.402344 56.402344 59.398438 52.707031 59.398438 L 11.292969 59.398438 C 7.597656 59.398438 4.601562 56.402344 4.601562 52.707031 L 4.601562 11.292969 C 4.601562 7.597656 7.597656 4.601562 11.292969 4.601562 Z M 11.292969 4.601562 "/>
</clipPath>
<clipPath id="clip55">
  <path d="M 10 32 L 18 32 L 18 40 L 10 40 Z M 10 32 "/>
</clipPath>
<clipPath id="clip56">
  <path d="M 11.292969 4.601562 L 52.707031 4.601562 C 56.402344 4.601562 59.398438 7.597656 59.398438 11.292969 L 59.398438 52.707031 C 59.398438 56.402344 56.402344 59.398438 52.707031 59.398438 L 11.292969 59.398438 C 7.597656 59.398438 4.601562 56.402344 4.601562 52.707031 L 4.601562 11.292969 C 4.601562 7.597656 7.597656 4.601562 11.292969 4.601562 Z M 11.292969 4.601562 "/>
</clipPath>
<clipPath id="clip57">
  <path d="M 17 32 L 25 32 L 25 40 L 17 40 Z M 17 32 "/>
</clipPath>
<clipPath id="clip58">
  <path d="M 11.292969 4.601562 L 52.707031 4.601562 C 56.402344 4.601562 59.398438 7.597656 59.398438 11.292969 L 59.398438 52.707031 C 59.398438 56.402344 56.402344 59.398438 52.707031 59.398438 L 11.292969 59.398438 C 7.597656 59.398438 4.601562 56.402344 4.601562 52.707031 L 4.601562 11.292969 C 4.601562 7.597656 7.597656 4.601562 11.292969 4.601562 Z M 11.292969 4.601562 "/>
</clipPath>
<clipPath id="clip59">
  <path d="M 24 32 L 32 32 L 32 40 L 24 40 Z M 24 32 "/>
</clipPath>
<clipPath id="clip60">
  <path d="M 11.292969 4.601562 L 52.707031 4.601562 C 56.402344 4.601562 59.398438 7.597656 59.398438 11.292969 L 59.398438 52.707031 C 59.398438 56.402344 56.402344 59.398438 52.707031 59.398438 L 11.292969 59.398438 C 7.597656 59.398438 4.601562 56.402344 4.601562 52.707031 L 4.601562 11.292969 C 4.601562 7.597656 7.597656 4.601562 11.292969 4.601562 Z M 11.292969 4.601562 "/>
</clipPath>
<clipPath id="clip61">
  <path d="M 32 32 L 40 32 L 40 40 L 32 40 Z M 32 32 "/>
</clipPath>
<clipPath id="clip62">
  <path d="M 11.292969 4.601562 L 52.707031 4.601562 C 56.402344 4.601562 59.398438 7.597656 59.398438 11.292969 L 59.398438 52.707031 C 59.398438 56.402344 56.402344 59.398438 52.707031 59.398438 L 11.292969 59.398438 C 7.597656 59.398438 4.601562 56.402344 4.601562 52.707031 L 4.601562 11.292969 C 4.601562 7.597656 7.597656 4.601562 11.292969 4.601562 Z M 11.292969 4.601562 "/>
</clipPath>
<clipPath id="clip63">
  <path d="M 39 32 L 47 32 L 47 40 L 39 40 Z M 39 32 "/>
</clipPath>
<clipPath id="clip64">
  <path d="M 11.292969 4.601562 L 52.707031 4.601562 C 56.402344 4.601562 59.398438 7.597656 59.398438 11.292969 L 59.398438 52.707031 C 59.398438 56.402344 56.402344 59.398438 52.707031 59.398438 L 11.292969 59.398438 C 7.597656 59.398438 4.601562 56.402344 4.601562 52.707031 L 4.601562 11.292969 C 4.601562 7.597656 7.597656 4.601562 11.292969 4.601562 Z M 11.292969 4.601562 "/>
</clipPath>
<clipPath id="clip65">
  <path d="M 46 32 L 54 32 L 54 40 L 46 40 Z M 46 32 "/>
</clipPath>
<clipPath id="clip66">
  <path d="M 11.292969 4.601562 L 52.707031 4.601562 C 56.402344 4.601562 59.398438 7.597656 59.398438 11.292969 L 59.398438 52.707031 C 59.398438 56.402344 56.402344 59.398438 52.707031 59.398438 L 11.292969 59.398438 C 7.597656 59.398438 4.601562 56.402344 4.601562 52.707031 L 4.601562 11.292969 C 4.601562 7.597656 7.597656 4.601562 11.292969 4.601562 Z M 11.292969 4.601562 "/>
</clipPath>
<clipPath id="clip67">
  <path d="M 53 32 L 60 32 L 60 40 L 53 40 Z M 53 32 "/>
</clipPath>
<clipPath id="clip68">
  <path d="M 11.292969 4.601562 L 52.707031 4.601562 C 56.402344 4.601562 59.398438 7.597656 59.398438 11.292969 L 59.398438 52.707031 C 59.398438 56.402344 56.402344 59.398438 52.707031 59.398438 L 11.292969 59.398438 C 7.597656 59.398438 4.601562 56.402344 4.601562 52.707031 L 4.601562 11.292969 C 4.601562 7.597656 7.597656 4.601562 11.292969 4.601562 Z M 11.292969 4.601562 "/>
</clipPath>
<clipPath id="clip69">
  <path d="M 4 4 L 32 4 L 32 32 L 4 32 Z M 4 4 "/>
</clipPath>
<clipPath id="clip70">
  <path d="M 11.292969 4.601562 L 52.707031 4.601562 C 56.402344 4.601562 59.398438 7.597656 59.398438 11.292969 L 59.398438 52.707031 C 59.398438 56.402344 56.402344 59.398438 52.707031 59.398438 L 11.292969 59.398438 C 7.597656 59.398438 4.601562 56.402344 4.601562 52.707031 L 4.601562 11.292969 C 4.601562 7.597656 7.597656 4.601562 11.292969 4.601562 Z M 11.292969 4.601562 "/>
</clipPath>
<clipPath id="clip71">
  <path d="M 4 24 L 11 24 L 11 32 L 4 32 Z M 4 24 "/>
</clipPath>
<clipPath id="clip72">
  <path d="M 11.292969 4.601562 L 52.707031 4.601562 C 56.402344 4.601562 59.398438 7.597656 59.398438 11.292969 L 59.398438 52.707031 C 59.398438 56.402344 56.402344 59.398438 52.707031 59.398438 L 11.292969 59.398438 C 7.597656 59.398438 4.601562 56.402344 4.601562 52.707031 L 4.601562 11.292969 C 4.601562 7.597656 7.597656 4.601562 11.292969 4.601562 Z M 11.292969 4.601562 "/>
</clipPath>
<clipPath id="clip73">
  <path d="M 10 24 L 18 24 L 18 32 L 10 32 Z M 10 24 "/>
</clipPath>
<clipPath id="clip74">
  <path d="M 11.292969 4.601562 L 52.707031 4.601562 C 56.402344 4.601562 59.398438 7.597656 59.398438 11.292969 L 59.398438 52.707031 C 59.398438 56.402344 56.402344 59.398438 52.707031 59.398438 L 11.292969 59.398438 C 7.597656 59.398438 4.601562 56.402344 4.601562 52.707031 L 4.601562 11.292969 C 4.601562 7.597656 7.597656 4.601562 11.292969 4.601562 Z M 11.292969 4.601562 "/>
</clipPath>
<clipPath id="clip75">
  <path d="M 17 24 L 25 24 L 25 32 L 17 32 Z M 17 24 "/>
</clipPath>
<clipPath id="clip76">
  <path d="M 11.292969 4.601562 L 52.707031 4.601562 C 56.402344 4.601562 59.398438 7.597656 59.398438 11.292969 L 59.398438 52.707031 C 59.398438 56.402344 56.402344 59.398438 52.707031 59.398438 L 11.292969 59.398438 C 7.597656 59.398438 4.601562 56.402344 4.601562 52.707031 L 4.601562 11.292969 C 4.601562 7.597656 7.597656 4.601562 11.292969 4.601562 Z M 11.292969 4.601562 "/>
</clipPath>
<clipPath id="clip77">
  <path d="M 24 24 L 32 24 L 32 32 L 24 32 Z M 24 24 "/>
</clipPath>
<clipPath id="clip78">
  <path d="M 11.292969 4.601562 L 52.707031 4.601562 C 56.402344 4.601562 59.398438 7.597656 59.398438 11.292969 L 59.398438 52.707031 C 59.398438 56.402344 56.402344 59.398438 52.707031 59.398438 L 11.292969 59.398438 C 7.597656 59.398438 4.601562 56.402344 4.601562 52.707031 L 4.601562 11.292969 C 4.601562 7.597656 7.597656 4.601562 11.292969 4.601562 Z M 11.292969 4.601562 "/>
</clipPath>
<clipPath id="clip79">
  <path d="M 32 24 L 40 24 L 40 32 L 32 32 Z M 32 24 "/>
</clipPath>
<clipPath id="clip80">
  <path d="M 11.292969 4.601562 L 52.707031 4.601562 C 56.402344 4.601562 59.398438 7.597656 59.398438 11.292969 L 59.398438 52.707031 C 59.398438 56.402344 56.402344 59.398438 52.707031 59.398438 L 11.292969 59.398438 C 7.597656 59.398438 4.601562 56.402344 4.601562 52.707031 L 4.601562 11.292969 C 4.601562 7.597656 7.597656 4.601562 11.292969 4.601562 Z M 11.292969 4.601562 "/>
</clipPath>
<clipPath id="clip81">
  <path d="M 39 24 L 47 24 L 47 32 L 39 32 Z M 39 24 "/>
</clipPath>
<clipPath id="clip82">
  <path d="M 11.292969 4.601562 L 52.707031 4.601562 C 56.402344 4.601562 59.398438 7.597656 59.398438 11.292969 L 59.398438 52.707031 C 59.398438 56.402344 56.402344 59.398438 52.707031 59.398438 L 11.292969 59.398438 C 7.597656 59.398438 4.601562 56.402344 4.601562 52.707031 L 4.601562 11.292969 C 4.601562 7.597656 7.597656 4.601562 11.292969 4.601562 Z M 11.292969 4.601562 "/>
</clipPath>
<clipPath id="clip83">
  <path d="M 46 24 L 54 24 L 54 32 L 46 32 Z M 46 24 "/>
</clipPath>
<clipPath id="clip84">
  <path d="M 11.292969 4.601562 L 52.707031 4.601562 C 56.402344 4.601562 59.398438 7.597656 59.398438 11.292969 L 59.398438 52.707031 C 59.398438 56.402344 56.402344 59.398438 52.707031 59.398438 L 11.292969 59.398438 C 7.597656 59.398438 4.601562 56.402344 4.601562 52.707031 L 4.601562 11.292969 C 4.601562 7.597656 7.597656 4.601562 11.292969 4.601562 Z M 11.292969 4.601562 "/>
</clipPath>
<clipPath id="clip85">
  <path d="M 53 24 L 60 24 L 60 32 L 53 32 Z M 53 24 "/>
</clipPath>
<clipPath id="clip86">
  <path d="M 11.292969 4.601562 L 52.707031 4.601562 C 56.402344 4.601562 59.398438 7.597656 59.398438 11.292969 L 59.398438 52.707031 C 59.398438 56.402344 56.402344 59.398438 52.707031 59.398438 L 11.292969 59.398438 C 7.597656 59.398438 4.601562 56.402344 4.601562 52.707031 L 4.601562 11.292969 C 4.601562 7.597656 7.597656 4.601562 11.292969 4.601562 Z M 11.292969 4.601562 "/>
</clipPath>
<clipPath id="clip87">
  <path d="M 4 17 L 11 17 L 11 25 L 4 25 Z M 4 17 "/>
</clipPath>
<clipPath id="clip88">
  <path d="M 11.292969 4.601562 L 52.707031 4.601562 C 56.402344 4.601562 59.398438 7.597656 59.398438 11.292969 L 59.398438 52.707031 C 59.398438 56.402344 56.402344 59.398438 52.707031 59.398438 L 11.292969 59.398438 C 7.597656 59.398438 4.601562 56.402344 4.601562 52.707031 L 4.601562 11.292969 C 4.601562 7.597656 7.597656 4.601562 11.292969 4.601562 Z M 11.292969 4.601562 "/>
</clipPath>
<clipPath id="clip89">
  <path d="M 10 17 L 18 17 L 18 25 L 10 25 Z M 10 17 "/>
</clipPath>
<clipPath id="clip90">
  <path d="M 11.292969 4.601562 L 52.707031 4.601562 C 56.402344 4.601562 59.398438 7.597656 59.398438 11.292969 L 59.398438 52.707031 C 59.398438 56.402344 56.402344 59.398438 52.707031 59.398438 L 11.292969 59.398438 C 7.597656 59.398438 4.601562 56.402344 4.601562 52.707031 L 4.601562 11.292969 C 4.601562 7.597656 7.597656 4.601562 11.292969 4.601562 Z M 11.292969 4.601562 "/>
</clipPath>
<clipPath id="clip91">
  <path d="M 17 17 L 25 17 L 25 25 L 17 25 Z M 17 17 "/>
</clipPath>
<clipPath id="clip92">
  <path d="M 11.292969 4.601562 L 52.707031 4.601562 C 56.402344 4.601562 59.398438 7.597656 59.398438 11.292969 L 59.398438 52.707031 C 59.398438 56.402344 56.402344 59.398438 52.707031 59.398438 L 11.292969 59.398438 C 7.597656 59.398438 4.601562 56.402344 4.601562 52.707031 L 4.601562 11.292969 C 4.601562 7.597656 7.597656 4.601562 11.292969 4.601562 Z M 11.292969 4.601562 "/>
</clipPath>
<clipPath id="clip93">
  <path d="M 24 17 L 32 17 L 32 25 L 24 25 Z M 24 17 "/>
</clipPath>
<clipPath id="clip94">
  <path d="M 11.292969 4.601562 L 52.707031 4.601562 C 56.402344 4.601562 59.398438 7.597656 59.398438 11.292969 L 59.398438 52.707031 C 59.398438 56.402344 56.402344 59.398438 52.707031 59.398438 L 11.292969 59.398438 C 7.597656 59.398438 4.601562 56.402344 4.601562 52.707031 L 4.601562 11.292969 C 4.601562 7.597656 7.597656 4.601562 11.292969 4.601562 Z M 11.292969 4.601562 "/>
</clipPath>
<clipPath id="clip95">
  <path d="M 32 17 L 40 17 L 40 25 L 32 25 Z M 32 17 "/>
</clipPath>
<clipPath id="clip96">
  <path d="M 11.292969 4.601562 L 52.707031 4.601562 C 56.402344 4.601562 59.398438 7.597656 59.398438 11.292969 L 59.398438 52.707031 C 59.398438 56.402344 56.402344 59.398438 52.707031 59.398438 L 11.292969 59.398438 C 7.597656 59.398438 4.601562 56.402344 4.601562 52.707031 L 4.601562 11.292969 C 4.601562 7.597656 7.597656 4.601562 11.292969 4.601562 Z M 11.292969 4.601562 "/>
</clipPath>
<clipPath id="clip97">
  <path d="M 39 17 L 47 17 L 47 25 L 39 25 Z M 39 17 "/>
</clipPath>
<clipPath id="clip98">
  <path d="M 11.292969 4.601562 L 52.707031 4.601562 C 56.402344 4.601562 59.398438 7.597656 59.398438 11.292969 L 59.398438 52.707031 C 59.398438 56.402344 56.402344 59.398438 52.707031 59.398438 L 11.292969 59.398438 C 7.597656 59.398438 4.601562 56.402344 4.601562 52.707031 L 4.601562 11.292969 C 4.601562 7.597656 7.597656 4.601562 11.292969 4.601562 Z M 11.292969 4.601562 "/>
</clipPath>
<clipPath id="clip99">
  <path d="M 46 17 L 54 17 L 54 25 L 46 25 Z M 46 17 "/>
</clipPath>
<clipPath id="clip100">
  <path d="M 11.292969 4.601562 L 52.707031 4.601562 C 56.402344 4.601562 59.398438 7.597656 59.398438 11.292969 L 59.398438 52.707031 C 59.398438 56.402344 56.402344 59.398438 52.707031 59.398438 L 11.292969 59.398438 C 7.597656 59.398438 4.601562 56.402344 4.601562 52.707031 L 4.601562 11.292969 C 4.601562 7.597656 7.597656 4.601562 11.292969 4.601562 Z M 11.292969 4.601562 "/>
</clipPath>
<clipPath id="clip101">
  <path d="M 53 17 L 60 17 L 60 25 L 53 25 Z M 53 17 "/>
</clipPath>
<clipPath id="clip102">
  <path d="M 11.292969 4.601562 L 52.707031 4.601562 C 56.402344 4.601562 59.398438 7.597656 59.398438 11.292969 L 59.398438 52.707031 C 59.398438 56.402344 56.402344 59.398438 52.707031 59.398438 L 11.292969 59.398438 C 7.597656 59.398438 4.601562 56.402344 4.601562 52.707031 L 4.601562 11.292969 C 4.601562 7.597656 7.597656 4.601562 11.292969 4.601562 Z M 11.292969 4.601562 "/>
</clipPath>
<clipPath id="clip103">
  <path d="M 4 10 L 11 10 L 11 18 L 4 18 Z M 4 10 "/>
</clipPath>
<clipPath id="clip104">
  <path d="M 11.292969 4.601562 L 52.707031 4.601562 C 56.402344 4.601562 59.398438 7.597656 59.398438 11.292969 L 59.398438 52.707031 C 59.398438 56.402344 56.402344 59.398438 52.707031 59.398438 L 11.292969 59.398438 C 7.597656 59.398438 4.601562 56.402344 4.601562 52.707031 L 4.601562 11.292969 C 4.601562 7.597656 7.597656 4.601562 11.292969 4.601562 Z M 11.292969 4.601562 "/>
</clipPath>
<clipPath id="clip105">
  <path d="M 10 10 L 18 10 L 18 18 L 10 18 Z M 10 10 "/>
</clipPath>
<clipPath id="clip106">
  <path d="M 11.292969 4.601562 L 52.707031 4.601562 C 56.402344 4.601562 59.398438 7.597656 59.398438 11.292969 L 59.398438 52.707031 C 59.398438 56.402344 56.402344 59.398438 52.707031 59.398438 L 11.292969 59.398438 C 7.597656 59.398438 4.601562 56.402344 4.601562 52.707031 L 4.601562 11.292969 C 4.601562 7.597656 7.597656 4.601562 11.292969 4.601562 Z M 11.292969 4.601562 "/>
</clipPath>
<clipPath id="clip107">
  <path d="M 17 10 L 25 10 L 25 18 L 17 18 Z M 17 10 "/>
</clipPath>
<clipPath id="clip108">
  <path d="M 11.292969 4.601562 L 52.707031 4.601562 C 56.402344 4.601562 59.398438 7.597656 59.398438 11.292969 L 59.398438 52.707031 C 59.398438 56.402344 56.402344 59.398438 52.707031 59.398438 L 11.292969 59.398438 C 7.597656 59.398438 4.601562 56.402344 4.601562 52.707031 L 4.601562 11.292969 C 4.601562 7.597656 7.597656 4.601562 11.292969 4.601562 Z M 11.292969 4.601562 "/>
</clipPath>
<clipPath id="clip109">
  <path d="M 24 10 L 32 10 L 32 18 L 24 18 Z M 24 10 "/>
</clipPath>
<clipPath id="clip110">
  <path d="M 11.292969 4.601562 L 52.707031 4.601562 C 56.402344 4.601562 59.398438 7.597656 59.398438 11.292969 L 59.398438 52.707031 C 59.398438 56.402344 56.402344 59.398438 52.707031 59.398438 L 11.292969 59.398438 C 7.597656 59.398438 4.601562 56.402344 4.601562 52.707031 L 4.601562 11.292969 C 4.601562 7.597656 7.597656 4.601562 11.292969 4.601562 Z M 11.292969 4.601562 "/>
</clipPath>
<clipPath id="clip111">
  <path d="M 32 10 L 40 10 L 40 18 L 32 18 Z M 32 10 "/>
</clipPath>
<clipPath id="clip112">
  <path d="M 11.292969 4.601562 L 52.707031 4.601562 C 56.402344 4.601562 59.398438 7.597656 59.398438 11.292969 L 59.398438 52.707031 C 59.398438 56.402344 56.402344 59.398438 52.707031 59.398438 L 11.292969 59.398438 C 7.597656 59.398438 4.601562 56.402344 4.601562 52.707031 L 4.601562 11.292969 C 4.601562 7.597656 7.597656 4.601562 11.292969 4.601562 Z M 11.292969 4.601562 "/>
</clipPath>
<clipPath id="clip113">
  <path d="M 39 10 L 47 10 L 47 18 L 39 18 Z M 39 10 "/>
</clipPath>
<clipPath id="clip114">
  <path d="M 11.292969 4.601562 L 52.707031 4.601562 C 56.402344 4.601562 59.398438 7.597656 59.398438 11.292969 L 59.398438 52.707031 C 59.398438 56.402344 56.402344 59.398438 52.707031 59.398438 L 11.292969 59.398438 C 7.597656 59.398438 4.601562 56.402344 4.601562 52.707031 L 4.601562 11.292969 C 4.601562 7.597656 7.597656 4.601562 11.292969 4.601562 Z M 11.292969 4.601562 "/>
</clipPath>
<clipPath id="clip115">
  <path d="M 46 10 L 54 10 L 54 18 L 46 18 Z M 46 10 "/>
</clipPath>
<clipPath id="clip116">
  <path d="M 11.292969 4.601562 L 52.707031 4.601562 C 56.402344 4.601562 59.398438 7.597656 59.398438 11.292969 L 59.398438 52.707031 C 59.398438 56.402344 56.402344 59.398438 52.707031 59.398438 L 11.292969 59.398438 C 7.597656 59.398438 4.601562 56.402344 4.601562 52.707031 L 4.601562 11.292969 C 4.601562 7.597656 7.597656 4.601562 11.292969 4.601562 Z M 11.292969 4.601562 "/>
</clipPath>
<clipPath id="clip117">
  <path d="M 53 10 L 60 10 L 60 18 L 53 18 Z M 53 10 "/>
</clipPath>
<clipPath id="clip118">
  <path d="M 11.292969 4.601562 L 52.707031 4.601562 C 56.402344 4.601562 59.398438 7.597656 59.398438 11.292969 L 59.398438 52.707031 C 59.398438 56.402344 56.402344 59.398438 52.707031 59.398438 L 11.292969 59.398438 C 7.597656 59.398438 4.601562 56.402344 4.601562 52.707031 L 4.601562 11.292969 C 4.601562 7.597656 7.597656 4.601562 11.292969 4.601562 Z M 11.292969 4.601562 "/>
</clipPath>
<clipPath id="clip119">
  <path d="M 4 4 L 11 4 L 11 11 L 4 11 Z M 4 4 "/>
</clipPath>
<clipPath id="clip120">
  <path d="M 11.292969 4.601562 L 52.707031 4.601562 C 56.402344 4.601562 59.398438 7.597656 59.398438 11.292969 L 59.398438 52.707031 C 59.398438 56.402344 56.402344 59.398438 52.707031 59.398438 L 11.292969 59.398438 C 7.597656 59.398438 4.601562 56.402344 4.601562 52.707031 L 4.601562 11.292969 C 4.601562 7.597656 7.597656 4.601562 11.292969 4.601562 Z M 11.292969 4.601562 "/>
</clipPath>
<clipPath id="clip121">
  <path d="M 10 4 L 18 4 L 18 11 L 10 11 Z M 10 4 "/>
</clipPath>
<clipPath id="clip122">
  <path d="M 11.292969 4.601562 L 52.707031 4.601562 C 56.402344 4.601562 59.398438 7.597656 59.398438 11.292969 L 59.398438 52.707031 C 59.398438 56.402344 56.402344 59.398438 52.707031 59.398438 L 11.292969 59.398438 C 7.597656 59.398438 4.601562 56.402344 4.601562 52.707031 L 4.601562 11.292969 C 4.601562 7.597656 7.597656 4.601562 11.292969 4.601562 Z M 11.292969 4.601562 "/>
</clipPath>
<clipPath id="clip123">
  <path d="M 17 4 L 25 4 L 25 11 L 17 11 Z M 17 4 "/>
</clipPath>
<clipPath id="clip124">
  <path d="M 11.292969 4.601562 L 52.707031 4.601562 C 56.402344 4.601562 59.398438 7.597656 59.398438 11.292969 L 59.398438 52.707031 C 59.398438 56.402344 56.402344 59.398438 52.707031 59.398438 L 11.292969 59.398438 C 7.597656 59.398438 4.601562 56.402344 4.601562 52.707031 L 4.601562 11.292969 C 4.601562 7.597656 7.597656 4.601562 11.292969 4.601562 Z M 11.292969 4.601562 "/>
</clipPath>
<clipPath id="clip125">
  <path d="M 24 4 L 32 4 L 32 11 L 24 11 Z M 24 4 "/>
</clipPath>
<clipPath id="clip126">
  <path d="M 11.292969 4.601562 L 52.707031 4.601562 C 56.402344 4.601562 59.398438 7.597656 59.398438 11.292969 L 59.398438 52.707031 C 59.398438 56.402344 56.402344 59.398438 52.707031 59.398438 L 11.292969 59.398438 C 7.597656 59.398438 4.601562 56.402344 4.601562 52.707031 L 4.601562 11.292969 C 4.601562 7.597656 7.597656 4.601562 11.292969 4.601562 Z M 11.292969 4.601562 "/>
</clipPath>
<clipPath id="clip127">
  <path d="M 32 4 L 40 4 L 40 11 L 32 11 Z M 32 4 "/>
</clipPath>
<clipPath id="clip128">
  <path d="M 11.292969 4.601562 L 52.707031 4.601562 C 56.402344 4.601562 59.398438 7.597656 59.398438 11.292969 L 59.398438 52.707031 C 59.398438 56.402344 56.402344 59.398438 52.707031 59.398438 L 11.292969 59.398438 C 7.597656 59.398438 4.601562 56.402344 4.601562 52.707031 L 4.601562 11.292969 C 4.601562 7.597656 7.597656 4.601562 11.292969 4.601562 Z M 11.292969 4.601562 "/>
</clipPath>
<clipPath id="clip129">
  <path d="M 39 4 L 47 4 L 47 11 L 39 11 Z M 39 4 "/>
</clipPath>
<clipPath id="clip130">
  <path d="M 11.292969 4.601562 L 52.707031 4.601562 C 56.402344 4.601562 59.398438 7.597656 59.398438 11.292969 L 59.398438 52.707031 C 59.398438 56.402344 56.402344 59.398438 52.707031 59.398438 L 11.292969 59.398438 C 7.597656 59.398438 4.601562 56.402344 4.601562 52.707031 L 4.601562 11.292969 C 4.601562 7.597656 7.597656 4.601562 11.292969 4.601562 Z M 11.292969 4.601562 "/>
</clipPath>
<clipPath id="clip131">
  <path d="M 46 4 L 54 4 L 54 11 L 46 11 Z M 46 4 "/>
</clipPath>
<clipPath id="clip132">
  <path d="M 11.292969 4.601562 L 52.707031 4.601562 C 56.402344 4.601562 59.398438 7.597656 59.398438 11.292969 L 59.398438 52.707031 C 59.398438 56.402344 56.402344 59.398438 52.707031 59.398438 L 11.292969 59.398438 C 7.597656 59.398438 4.601562 56.402344 4.601562 52.707031 L 4.601562 11.292969 C 4.601562 7.597656 7.597656 4.601562 11.292969 4.601562 Z M 11.292969 4.601562 "/>
</clipPath>
<clipPath id="clip133">
  <path d="M 53 4 L 60 4 L 60 11 L 53 11 Z M 53 4 "/>
</clipPath>
<clipPath id="clip134">
  <path d="M 11.292969 4.601562 L 52.707031 4.601562 C 56.402344 4.601562 59.398438 7.597656 59.398438 11.292969 L 59.398438 52.707031 C 59.398438 56.402344 56.402344 59.398438 52.707031 59.398438 L 11.292969 59.398438 C 7.597656 59.398438 4.601562 56.402344 4.601562 52.707031 L 4.601562 11.292969 C 4.601562 7.597656 7.597656 4.601562 11.292969 4.601562 Z M 11.292969 4.601562 "/>
</clipPath>
<clipPath id="clip135">
  <path d="M 4 17 L 60 17 L 60 60 L 4 60 Z M 4 17 "/>
</clipPath>
<clipPath id="clip136">
  <path d="M 11.292969 4.601562 L 52.707031 4.601562 C 56.402344 4.601562 59.398438 7.597656 59.398438 11.292969 L 59.398438 52.707031 C 59.398438 56.402344 56.402344 59.398438 52.707031 59.398438 L 11.292969 59.398438 C 7.597656 59.398438 4.601562 56.402344 4.601562 52.707031 L 4.601562 11.292969 C 4.601562 7.597656 7.597656 4.601562 11.292969 4.601562 Z M 11.292969 4.601562 "/>
</clipPath>
</defs>
<g id="surface1">
<path style="fill-rule:nonzero;fill:rgb(40.784314%,27.843137%,15.686275%);fill-opacity:1;stroke-width:28.071352;stroke-linecap:butt;stroke-linejoin:miter;stroke:rgb(40.784314%,27.843137%,15.686275%);stroke-opacity:1;stroke-miterlimit:4;" d="M 82.21875 26.09375 L 429.78125 26.09375 C 460.78125 26.09375 485.90625 51.21875 485.90625 82.21875 L 485.90625 429.78125 C 485.90625 460.78125 460.78125 485.90625 429.78125 485.90625 L 82.21875 485.90625 C 51.21875 485.90625 26.09375 460.78125 26.09375 429.78125 L 26.09375 82.21875 C 26.09375 51.21875 51.21875 26.09375 82.21875 26.09375 Z M 82.21875 26.09375 " transform="matrix(0.125,0,0,0.125,0,0)"/>
<g clip-path="url(#clip1)" clip-rule="nonzero">
<g clip-path="url(#clip2)" clip-rule="nonzero">
<path style=" stroke:none;fill-rule:nonzero;fill:rgb(45.882353%,74.117647%,45.098039%);fill-opacity:1;" d="M 3.410156 3.046875 L 60.589844 3.046875 L 60.589844 60.953125 L 3.410156 60.953125 Z M 3.410156 3.046875 "/>
</g>
</g>
<g clip-path="url(#clip3)" clip-rule="nonzero">
<g clip-path="url(#clip4)" clip-rule="nonzero">
<path style=" stroke:none;fill-rule:nonzero;fill:rgb(34.901961%,69.019608%,34.117647%);fill-opacity:1;" d="M 3.410156 32 L 32 32 L 32 60.953125 L 3.410156 60.953125 Z M 3.410156 32 "/>
</g>
</g>
<g clip-path="url(#clip5)" clip-rule="nonzero">
<g clip-path="url(#clip6)" clip-rule="nonzero">
<path style=" stroke:none;fill-rule:nonzero;fill:rgb(56.078431%,38.039216%,20%);fill-opacity:1;" d="M 3.410156 53.714844 L 10.558594 53.714844 L 10.558594 60.953125 L 3.410156 60.953125 Z M 3.410156 53.714844 "/>
</g>
</g>
<g clip-path="url(#clip7)" clip-rule="nonzero">
<g clip-path="url(#clip8)" clip-rule="nonzero">
<path style=" stroke:none;fill-rule:nonzero;fill:rgb(63.137255%,43.137255%,22.745098%);fill-opacity:1;" d="M 10.558594 53.714844 L 17.707031 53.714844 L 17.707031 60.953125 L 10.558594 60.953125 Z M 10.558594 53.714844 "/>
</g>
</g>
<g clip-path="url(#clip9)" clip-rule="nonzero">
<g clip-path="url(#clip10)" clip-rule="nonzero">
<path style=" stroke:none;fill-rule:nonzero;fill:rgb(52.156863%,36.078431%,18.823529%);fill-opacity:1;" d="M 17.707031 53.714844 L 24.851562 53.714844 L 24.851562 60.953125 L 17.707031 60.953125 Z M 17.707031 53.714844 "/>
</g>
</g>
<g clip-path="url(#clip11)" clip-rule="nonzero">
<g clip-path="url(#clip12)" clip-rule="nonzero">
<path style=" stroke:none;fill-rule:nonzero;fill:rgb(70.980392%,47.058824%,21.960784%);fill-opacity:1;" d="M 24.851562 53.714844 L 32 53.714844 L 32 60.953125 L 24.851562 60.953125 Z M 24.851562 53.714844 "/>
</g>
</g>
<g clip-path="url(#clip13)" clip-rule="nonzero">
<g clip-path="url(#clip14)" clip-rule="nonzero">
<path style=" stroke:none;fill-rule:nonzero;fill:rgb(58.039216%,40%,20.784314%);fill-opacity:1;" d="M 32 53.714844 L 39.148438 53.714844 L 39.148438 60.953125 L 32 60.953125 Z M 32 53.714844 "/>
</g>
</g>
<g clip-path="url(#clip15)" clip-rule="nonzero">
<g clip-path="url(#clip16)" clip-rule="nonzero">
<path style=" stroke:none;fill-rule:nonzero;fill:rgb(63.137255%,43.137255%,22.745098%);fill-opacity:1;" d="M 39.148438 53.714844 L 46.292969 53.714844 L 46.292969 60.953125 L 39.148438 60.953125 Z M 39.148438 53.714844 "/>
</g>
</g>
<g clip-path="url(#clip17)" clip-rule="nonzero">
<g clip-path="url(#clip18)" clip-rule="nonzero">
<path style=" stroke:none;fill-rule:nonzero;fill:rgb(58.039216%,40%,20.784314%);fill-opacity:1;" d="M 46.292969 53.714844 L 53.441406 53.714844 L 53.441406 60.953125 L 46.292969 60.953125 Z M 46.292969 53.714844 "/>
</g>
</g>
<g clip-path="url(#clip19)" clip-rule="nonzero">
<g clip-path="url(#clip20)" clip-rule="nonzero">
<path style=" stroke:none;fill-rule:nonzero;fill:rgb(63.137255%,43.137255%,22.745098%);fill-opacity:1;" d="M 53.441406 53.714844 L 60.589844 53.714844 L 60.589844 60.953125 L 53.441406 60.953125 Z M 53.441406 53.714844 "/>
</g>
</g>
<g clip-path="url(#clip21)" clip-rule="nonzero">
<g clip-path="url(#clip22)" clip-rule="nonzero">
<path style=" stroke:none;fill-rule:nonzero;fill:rgb(63.137255%,43.137255%,22.745098%);fill-opacity:1;" d="M 3.410156 46.476562 L 10.558594 46.476562 L 10.558594 53.714844 L 3.410156 53.714844 Z M 3.410156 46.476562 "/>
</g>
</g>
<g clip-path="url(#clip23)" clip-rule="nonzero">
<g clip-path="url(#clip24)" clip-rule="nonzero">
<path style=" stroke:none;fill-rule:nonzero;fill:rgb(58.039216%,43.137255%,16.862745%);fill-opacity:1;" d="M 10.558594 46.476562 L 17.707031 46.476562 L 17.707031 53.714844 L 10.558594 53.714844 Z M 10.558594 46.476562 "/>
</g>
</g>
<g clip-path="url(#clip25)" clip-rule="nonzero">
<g clip-path="url(#clip26)" clip-rule="nonzero">
<path style=" stroke:none;fill-rule:nonzero;fill:rgb(56.078431%,38.039216%,20%);fill-opacity:1;" d="M 17.707031 46.476562 L 24.851562 46.476562 L 24.851562 53.714844 L 17.707031 53.714844 Z M 17.707031 46.476562 "/>
</g>
</g>
<g clip-path="url(#clip27)" clip-rule="nonzero">
<g clip-path="url(#clip28)" clip-rule="nonzero">
<path style=" stroke:none;fill-rule:nonzero;fill:rgb(65.882353%,43.137255%,20%);fill-opacity:1;" d="M 24.851562 46.476562 L 32 46.476562 L 32 53.714844 L 24.851562 53.714844 Z M 24.851562 46.476562 "/>
</g>
</g>
<g clip-path="url(#clip29)" clip-rule="nonzero">
<g clip-path="url(#clip30)" clip-rule="nonzero">
<path style=" stroke:none;fill-rule:nonzero;fill:rgb(58.039216%,40%,20.784314%);fill-opacity:1;" d="M 32 46.476562 L 39.148438 46.476562 L 39.148438 53.714844 L 32 53.714844 Z M 32 46.476562 "/>
</g>
</g>
<g clip-path="url(#clip31)" clip-rule="nonzero">
<g clip-path="url(#clip32)" clip-rule="nonzero">
<path style=" stroke:none;fill-rule:nonzero;fill:rgb(56.078431%,38.039216%,20%);fill-opacity:1;" d="M 39.148438 46.476562 L 46.292969 46.476562 L 46.292969 53.714844 L 39.148438 53.714844 Z M 39.148438 46.476562 "/>
</g>
</g>
<g clip-path="url(#clip33)" clip-rule="nonzero">
<g clip-path="url(#clip34)" clip-rule="nonzero">
<path style=" stroke:none;fill-rule:nonzero;fill:rgb(56.078431%,38.039216%,20%);fill-opacity:1;" d="M 46.292969 46.476562 L 53.441406 46.476562 L 53.441406 53.714844 L 46.292969 53.714844 Z M 46.292969 46.476562 "/>
</g>
</g>
<g clip-path="url(#clip35)" clip-rule="nonzero">
<g clip-path="url(#clip36)" clip-rule="nonzero">
<path style=" stroke:none;fill-rule:nonzero;fill:rgb(67.058824%,45.882353%,24.705882%);fill-opacity:1;" d="M 53.441406 46.476562 L 60.589844 46.476562 L 60.589844 53.714844 L 53.441406 53.714844 Z M 53.441406 46.476562 "/>
</g>
</g>
<g clip-path="url(#clip37)" clip-rule="nonzero">
<g clip-path="url(#clip38)" clip-rule="nonzero">
<path style=" stroke:none;fill-rule:nonzero;fill:rgb(63.137255%,40.784314%,18.039216%);fill-opacity:1;" d="M 3.410156 39.238281 L 10.558594 39.238281 L 10.558594 46.476562 L 3.410156 46.476562 Z M 3.410156 39.238281 "/>
</g>
</g>
<g clip-path="url(#clip39)" clip-rule="nonzero">
<g clip-path="url(#clip40)" clip-rule="nonzero">
<path style=" stroke:none;fill-rule:nonzero;fill:rgb(63.137255%,43.137255%,22.745098%);fill-opacity:1;" d="M 10.558594 39.238281 L 17.707031 39.238281 L 17.707031 46.476562 L 10.558594 46.476562 Z M 10.558594 39.238281 "/>
</g>
</g>
<g clip-path="url(#clip41)" clip-rule="nonzero">
<g clip-path="url(#clip42)" clip-rule="nonzero">
<path style=" stroke:none;fill-rule:nonzero;fill:rgb(47.843137%,30.980392%,18.039216%);fill-opacity:1;" d="M 17.707031 39.238281 L 24.851562 39.238281 L 24.851562 46.476562 L 17.707031 46.476562 Z M 17.707031 39.238281 "/>
</g>
</g>
<g clip-path="url(#clip43)" clip-rule="nonzero">
<g clip-path="url(#clip44)" clip-rule="nonzero">
<path style=" stroke:none;fill-rule:nonzero;fill:rgb(63.137255%,43.137255%,22.745098%);fill-opacity:1;" d="M 24.851562 39.238281 L 32 39.238281 L 32 46.476562 L 24.851562 46.476562 Z M 24.851562 39.238281 "/>
</g>
</g>
<g clip-path="url(#clip45)" clip-rule="nonzero">
<g clip-path="url(#clip46)" clip-rule="nonzero">
<path style=" stroke:none;fill-rule:nonzero;fill:rgb(72.941176%,50.980392%,29.019608%);fill-opacity:1;" d="M 32 39.238281 L 39.148438 39.238281 L 39.148438 46.476562 L 32 46.476562 Z M 32 39.238281 "/>
</g>
</g>
<g clip-path="url(#clip47)" clip-rule="nonzero">
<g clip-path="url(#clip48)" clip-rule="nonzero">
<path style=" stroke:none;fill-rule:nonzero;fill:rgb(63.137255%,43.137255%,22.745098%);fill-opacity:1;" d="M 39.148438 39.238281 L 46.292969 39.238281 L 46.292969 46.476562 L 39.148438 46.476562 Z M 39.148438 39.238281 "/>
</g>
</g>
<g clip-path="url(#clip49)" clip-rule="nonzero">
<g clip-path="url(#clip50)" clip-rule="nonzero">
<path style=" stroke:none;fill-rule:nonzero;fill:rgb(52.156863%,40.784314%,22.745098%);fill-opacity:1;" d="M 46.292969 39.238281 L 53.441406 39.238281 L 53.441406 46.476562 L 46.292969 46.476562 Z M 46.292969 39.238281 "/>
</g>
</g>
<g clip-path="url(#clip51)" clip-rule="nonzero">
<g clip-path="url(#clip52)" clip-rule="nonzero">
<path style=" stroke:none;fill-rule:nonzero;fill:rgb(63.137255%,43.137255%,22.745098%);fill-opacity:1;" d="M 53.441406 39.238281 L 60.589844 39.238281 L 60.589844 46.476562 L 53.441406 46.476562 Z M 53.441406 39.238281 "/>
</g>
</g>
<g clip-path="url(#clip53)" clip-rule="nonzero">
<g clip-path="url(#clip54)" clip-rule="nonzero">
<path style=" stroke:none;fill-rule:nonzero;fill:rgb(63.137255%,43.137255%,22.745098%);fill-opacity:1;" d="M 3.410156 32 L 10.558594 32 L 10.558594 39.238281 L 3.410156 39.238281 Z M 3.410156 32 "/>
</g>
</g>
<g clip-path="url(#clip55)" clip-rule="nonzero">
<g clip-path="url(#clip56)" clip-rule="nonzero">
<path style=" stroke:none;fill-rule:nonzero;fill:rgb(58.039216%,40%,20.784314%);fill-opacity:1;" d="M 10.558594 32 L 17.707031 32 L 17.707031 39.238281 L 10.558594 39.238281 Z M 10.558594 32 "/>
</g>
</g>
<g clip-path="url(#clip57)" clip-rule="nonzero">
<g clip-path="url(#clip58)" clip-rule="nonzero">
<path style=" stroke:none;fill-rule:nonzero;fill:rgb(63.137255%,40.784314%,18.039216%);fill-opacity:1;" d="M 17.707031 32 L 24.851562 32 L 24.851562 39.238281 L 17.707031 39.238281 Z M 17.707031 32 "/>
</g>
</g>
<g clip-path="url(#clip59)" clip-rule="nonzero">
<g clip-path="url(#clip60)" clip-rule="nonzero">
<path style=" stroke:none;fill-rule:nonzero;fill:rgb(67.058824%,43.137255%,20%);fill-opacity:1;" d="M 24.851562 32 L 32 32 L 32 39.238281 L 24.851562 39.238281 Z M 24.851562 32 "/>
</g>
</g>
<g clip-path="url(#clip61)" clip-rule="nonzero">
<g clip-path="url(#clip62)" clip-rule="nonzero">
<path style=" stroke:none;fill-rule:nonzero;fill:rgb(56.078431%,38.039216%,20%);fill-opacity:1;" d="M 32 32 L 39.148438 32 L 39.148438 39.238281 L 32 39.238281 Z M 32 32 "/>
</g>
</g>
<g clip-path="url(#clip63)" clip-rule="nonzero">
<g clip-path="url(#clip64)" clip-rule="nonzero">
<path style=" stroke:none;fill-rule:nonzero;fill:rgb(50.980392%,32.941176%,18.823529%);fill-opacity:1;" d="M 39.148438 32 L 46.292969 32 L 46.292969 39.238281 L 39.148438 39.238281 Z M 39.148438 32 "/>
</g>
</g>
<g clip-path="url(#clip65)" clip-rule="nonzero">
<g clip-path="url(#clip66)" clip-rule="nonzero">
<path style=" stroke:none;fill-rule:nonzero;fill:rgb(63.137255%,43.137255%,22.745098%);fill-opacity:1;" d="M 46.292969 32 L 53.441406 32 L 53.441406 39.238281 L 46.292969 39.238281 Z M 46.292969 32 "/>
</g>
</g>
<g clip-path="url(#clip67)" clip-rule="nonzero">
<g clip-path="url(#clip68)" clip-rule="nonzero">
<path style=" stroke:none;fill-rule:nonzero;fill:rgb(67.058824%,45.882353%,24.705882%);fill-opacity:1;" d="M 53.441406 32 L 60.589844 32 L 60.589844 39.238281 L 53.441406 39.238281 Z M 53.441406 32 "/>
</g>
</g>
<g clip-path="url(#clip69)" clip-rule="nonzero">
<g clip-path="url(#clip70)" clip-rule="nonzero">
<path style=" stroke:none;fill-rule:nonzero;fill:rgb(34.901961%,69.019608%,34.117647%);fill-opacity:1;" d="M 3.410156 3.046875 L 32 3.046875 L 32 32 L 3.410156 32 Z M 3.410156 3.046875 "/>
</g>
</g>
<g clip-path="url(#clip71)" clip-rule="nonzero">
<g clip-path="url(#clip72)" clip-rule="nonzero">
<path style=" stroke:none;fill-rule:nonzero;fill:rgb(23.921569%,63.137255%,22.745098%);fill-opacity:1;" d="M 3.410156 24.761719 L 10.558594 24.761719 L 10.558594 32 L 3.410156 32 Z M 3.410156 24.761719 "/>
</g>
</g>
<g clip-path="url(#clip73)" clip-rule="nonzero">
<g clip-path="url(#clip74)" clip-rule="nonzero">
<path style=" stroke:none;fill-rule:nonzero;fill:rgb(40%,27.058824%,13.72549%);fill-opacity:1;" d="M 10.558594 24.761719 L 17.707031 24.761719 L 17.707031 32 L 10.558594 32 Z M 10.558594 24.761719 "/>
</g>
</g>
<g clip-path="url(#clip75)" clip-rule="nonzero">
<g clip-path="url(#clip76)" clip-rule="nonzero">
<path style=" stroke:none;fill-rule:nonzero;fill:rgb(63.137255%,40.784314%,18.039216%);fill-opacity:1;" d="M 17.707031 24.761719 L 24.851562 24.761719 L 24.851562 32 L 17.707031 32 Z M 17.707031 24.761719 "/>
</g>
</g>
<g clip-path="url(#clip77)" clip-rule="nonzero">
<g clip-path="url(#clip78)" clip-rule="nonzero">
<path style=" stroke:none;fill-rule:nonzero;fill:rgb(59.215686%,43.137255%,27.058824%);fill-opacity:1;" d="M 24.851562 24.761719 L 32 24.761719 L 32 32 L 24.851562 32 Z M 24.851562 24.761719 "/>
</g>
</g>
<g clip-path="url(#clip79)" clip-rule="nonzero">
<g clip-path="url(#clip80)" clip-rule="nonzero">
<path style=" stroke:none;fill-rule:nonzero;fill:rgb(63.137255%,40.784314%,18.039216%);fill-opacity:1;" d="M 32 24.761719 L 39.148438 24.761719 L 39.148438 32 L 32 32 Z M 32 24.761719 "/>
</g>
</g>
<g clip-path="url(#clip81)" clip-rule="nonzero">
<g clip-path="url(#clip82)" clip-rule="nonzero">
<path style=" stroke:none;fill-rule:nonzero;fill:rgb(22.745098%,50.980392%,21.960784%);fill-opacity:1;" d="M 39.148438 24.761719 L 46.292969 24.761719 L 46.292969 32 L 39.148438 32 Z M 39.148438 24.761719 "/>
</g>
</g>
<g clip-path="url(#clip83)" clip-rule="nonzero">
<g clip-path="url(#clip84)" clip-rule="nonzero">
<path style=" stroke:none;fill-rule:nonzero;fill:rgb(69.019608%,47.058824%,24.705882%);fill-opacity:1;" d="M 46.292969 24.761719 L 53.441406 24.761719 L 53.441406 32 L 46.292969 32 Z M 46.292969 24.761719 "/>
</g>
</g>
<g clip-path="url(#clip85)" clip-rule="nonzero">
<g clip-path="url(#clip86)" clip-rule="nonzero">
<path style=" stroke:none;fill-rule:nonzero;fill:rgb(63.137255%,43.137255%,22.745098%);fill-opacity:1;" d="M 53.441406 24.761719 L 60.589844 24.761719 L 60.589844 32 L 53.441406 32 Z M 53.441406 24.761719 "/>
</g>
</g>
<g clip-path="url(#clip87)" clip-rule="nonzero">
<g clip-path="url(#clip88)" clip-rule="nonzero">
<path style=" stroke:none;fill-rule:nonzero;fill:rgb(29.803922%,72.156863%,29.019608%);fill-opacity:1;" d="M 3.410156 17.523438 L 10.558594 17.523438 L 10.558594 24.761719 L 3.410156 24.761719 Z M 3.410156 17.523438 "/>
</g>
</g>
<g clip-path="url(#clip89)" clip-rule="nonzero">
<g clip-path="url(#clip90)" clip-rule="nonzero">
<path style=" stroke:none;fill-rule:nonzero;fill:rgb(58.039216%,40%,20.784314%);fill-opacity:1;" d="M 10.558594 17.523438 L 17.707031 17.523438 L 17.707031 24.761719 L 10.558594 24.761719 Z M 10.558594 17.523438 "/>
</g>
</g>
<g clip-path="url(#clip91)" clip-rule="nonzero">
<g clip-path="url(#clip92)" clip-rule="nonzero">
<path style=" stroke:none;fill-rule:nonzero;fill:rgb(47.843137%,30.980392%,18.039216%);fill-opacity:1;" d="M 17.707031 17.523438 L 24.851562 17.523438 L 24.851562 24.761719 L 17.707031 24.761719 Z M 17.707031 17.523438 "/>
</g>
</g>
<g clip-path="url(#clip93)" clip-rule="nonzero">
<g clip-path="url(#clip94)" clip-rule="nonzero">
<path style=" stroke:none;fill-rule:nonzero;fill:rgb(30.980392%,65.098039%,36.862745%);fill-opacity:1;" d="M 24.851562 17.523438 L 32 17.523438 L 32 24.761719 L 24.851562 24.761719 Z M 24.851562 17.523438 "/>
</g>
</g>
<g clip-path="url(#clip95)" clip-rule="nonzero">
<g clip-path="url(#clip96)" clip-rule="nonzero">
<path style=" stroke:none;fill-rule:nonzero;fill:rgb(25.882353%,76.078431%,24.705882%);fill-opacity:1;" d="M 32 17.523438 L 39.148438 17.523438 L 39.148438 24.761719 L 32 24.761719 Z M 32 17.523438 "/>
</g>
</g>
<g clip-path="url(#clip97)" clip-rule="nonzero">
<g clip-path="url(#clip98)" clip-rule="nonzero">
<path style=" stroke:none;fill-rule:nonzero;fill:rgb(22.745098%,50.980392%,21.960784%);fill-opacity:1;" d="M 39.148438 17.523438 L 46.292969 17.523438 L 46.292969 24.761719 L 39.148438 24.761719 Z M 39.148438 17.523438 "/>
</g>
</g>
<g clip-path="url(#clip99)" clip-rule="nonzero">
<g clip-path="url(#clip100)" clip-rule="nonzero">
<path style=" stroke:none;fill-rule:nonzero;fill:rgb(60%,47.058824%,21.960784%);fill-opacity:1;" d="M 46.292969 17.523438 L 53.441406 17.523438 L 53.441406 24.761719 L 46.292969 24.761719 Z M 46.292969 17.523438 "/>
</g>
</g>
<g clip-path="url(#clip101)" clip-rule="nonzero">
<g clip-path="url(#clip102)" clip-rule="nonzero">
<path style=" stroke:none;fill-rule:nonzero;fill:rgb(20.784314%,47.843137%,20.784314%);fill-opacity:1;" d="M 53.441406 17.523438 L 60.589844 17.523438 L 60.589844 24.761719 L 53.441406 24.761719 Z M 53.441406 17.523438 "/>
</g>
</g>
<g clip-path="url(#clip103)" clip-rule="nonzero">
<g clip-path="url(#clip104)" clip-rule="nonzero">
<path style=" stroke:none;fill-rule:nonzero;fill:rgb(27.843137%,58.039216%,27.843137%);fill-opacity:1;" d="M 3.410156 10.285156 L 10.558594 10.285156 L 10.558594 17.523438 L 3.410156 17.523438 Z M 3.410156 10.285156 "/>
</g>
</g>
<g clip-path="url(#clip105)" clip-rule="nonzero">
<g clip-path="url(#clip106)" clip-rule="nonzero">
<path style=" stroke:none;fill-rule:nonzero;fill:rgb(27.058824%,65.882353%,25.882353%);fill-opacity:1;" d="M 10.558594 10.285156 L 17.707031 10.285156 L 17.707031 17.523438 L 10.558594 17.523438 Z M 10.558594 10.285156 "/>
</g>
</g>
<g clip-path="url(#clip107)" clip-rule="nonzero">
<g clip-path="url(#clip108)" clip-rule="nonzero">
<path style=" stroke:none;fill-rule:nonzero;fill:rgb(22.745098%,50.980392%,21.960784%);fill-opacity:1;" d="M 17.707031 10.285156 L 24.851562 10.285156 L 24.851562 17.523438 L 17.707031 17.523438 Z M 17.707031 10.285156 "/>
</g>
</g>
<g clip-path="url(#clip109)" clip-rule="nonzero">
<g clip-path="url(#clip110)" clip-rule="nonzero">
<path style=" stroke:none;fill-rule:nonzero;fill:rgb(29.803922%,72.156863%,29.019608%);fill-opacity:1;" d="M 24.851562 10.285156 L 32 10.285156 L 32 17.523438 L 24.851562 17.523438 Z M 24.851562 10.285156 "/>
</g>
</g>
<g clip-path="url(#clip111)" clip-rule="nonzero">
<g clip-path="url(#clip112)" clip-rule="nonzero">
<path style=" stroke:none;fill-rule:nonzero;fill:rgb(27.843137%,58.039216%,27.843137%);fill-opacity:1;" d="M 32 10.285156 L 39.148438 10.285156 L 39.148438 17.523438 L 32 17.523438 Z M 32 10.285156 "/>
</g>
</g>
<g clip-path="url(#clip113)" clip-rule="nonzero">
<g clip-path="url(#clip114)" clip-rule="nonzero">
<path style=" stroke:none;fill-rule:nonzero;fill:rgb(27.058824%,65.882353%,25.882353%);fill-opacity:1;" d="M 39.148438 10.285156 L 46.292969 10.285156 L 46.292969 17.523438 L 39.148438 17.523438 Z M 39.148438 10.285156 "/>
</g>
</g>
<g clip-path="url(#clip115)" clip-rule="nonzero">
<g clip-path="url(#clip116)" clip-rule="nonzero">
<path style=" stroke:none;fill-rule:nonzero;fill:rgb(22.745098%,63.137255%,22.745098%);fill-opacity:1;" d="M 46.292969 10.285156 L 53.441406 10.285156 L 53.441406 17.523438 L 46.292969 17.523438 Z M 46.292969 10.285156 "/>
</g>
</g>
<g clip-path="url(#clip117)" clip-rule="nonzero">
<g clip-path="url(#clip118)" clip-rule="nonzero">
<path style=" stroke:none;fill-rule:nonzero;fill:rgb(27.843137%,58.039216%,27.843137%);fill-opacity:1;" d="M 53.441406 10.285156 L 60.589844 10.285156 L 60.589844 17.523438 L 53.441406 17.523438 Z M 53.441406 10.285156 "/>
</g>
</g>
<g clip-path="url(#clip119)" clip-rule="nonzero">
<g clip-path="url(#clip120)" clip-rule="nonzero">
<path style=" stroke:none;fill-rule:nonzero;fill:rgb(23.921569%,69.019608%,22.745098%);fill-opacity:1;" d="M 3.410156 3.046875 L 10.558594 3.046875 L 10.558594 10.285156 L 3.410156 10.285156 Z M 3.410156 3.046875 "/>
</g>
</g>
<g clip-path="url(#clip121)" clip-rule="nonzero">
<g clip-path="url(#clip122)" clip-rule="nonzero">
<path style=" stroke:none;fill-rule:nonzero;fill:rgb(27.843137%,58.039216%,27.843137%);fill-opacity:1;" d="M 10.558594 3.046875 L 17.707031 3.046875 L 17.707031 10.285156 L 10.558594 10.285156 Z M 10.558594 3.046875 "/>
</g>
</g>
<g clip-path="url(#clip123)" clip-rule="nonzero">
<g clip-path="url(#clip124)" clip-rule="nonzero">
<path style=" stroke:none;fill-rule:nonzero;fill:rgb(31.764706%,54.117647%,31.764706%);fill-opacity:1;" d="M 17.707031 3.046875 L 24.851562 3.046875 L 24.851562 10.285156 L 17.707031 10.285156 Z M 17.707031 3.046875 "/>
</g>
</g>
<g clip-path="url(#clip125)" clip-rule="nonzero">
<g clip-path="url(#clip126)" clip-rule="nonzero">
<path style=" stroke:none;fill-rule:nonzero;fill:rgb(22.745098%,50.980392%,21.960784%);fill-opacity:1;" d="M 24.851562 3.046875 L 32 3.046875 L 32 10.285156 L 24.851562 10.285156 Z M 24.851562 3.046875 "/>
</g>
</g>
<g clip-path="url(#clip127)" clip-rule="nonzero">
<g clip-path="url(#clip128)" clip-rule="nonzero">
<path style=" stroke:none;fill-rule:nonzero;fill:rgb(22.745098%,50.980392%,21.960784%);fill-opacity:1;" d="M 32 3.046875 L 39.148438 3.046875 L 39.148438 10.285156 L 32 10.285156 Z M 32 3.046875 "/>
</g>
</g>
<g clip-path="url(#clip129)" clip-rule="nonzero">
<g clip-path="url(#clip130)" clip-rule="nonzero">
<path style=" stroke:none;fill-rule:nonzero;fill:rgb(27.843137%,58.039216%,27.843137%);fill-opacity:1;" d="M 39.148438 3.046875 L 46.292969 3.046875 L 46.292969 10.285156 L 39.148438 10.285156 Z M 39.148438 3.046875 "/>
</g>
</g>
<g clip-path="url(#clip131)" clip-rule="nonzero">
<g clip-path="url(#clip132)" clip-rule="nonzero">
<path style=" stroke:none;fill-rule:nonzero;fill:rgb(27.058824%,69.019608%,25.882353%);fill-opacity:1;" d="M 46.292969 3.046875 L 53.441406 3.046875 L 53.441406 10.285156 L 46.292969 10.285156 Z M 46.292969 3.046875 "/>
</g>
</g>
<g clip-path="url(#clip133)" clip-rule="nonzero">
<g clip-path="url(#clip134)" clip-rule="nonzero">
<path style=" stroke:none;fill-rule:nonzero;fill:rgb(27.058824%,65.882353%,25.882353%);fill-opacity:1;" d="M 53.441406 3.046875 L 60.589844 3.046875 L 60.589844 10.285156 L 53.441406 10.285156 Z M 53.441406 3.046875 "/>
</g>
</g>
<g clip-path="url(#clip135)" clip-rule="nonzero">
<g clip-path="url(#clip136)" clip-rule="nonzero">
<path style=" stroke:none;fill-rule:nonzero;fill:rgb(61.176471%,41.960784%,24.705882%);fill-opacity:0.756863;" d="M 3.417969 32.003906 L 3.417969 60.953125 L 60.59375 60.953125 L 60.59375 24.761719 L 53.441406 24.753906 L 53.441406 17.519531 L 46.300781 17.519531 L 46.300781 32 L 39.148438 32 L 39.148438 24.746094 L 24.859375 24.757812 L 24.867188 17.5 L 10.574219 17.515625 L 10.5625 31.996094 Z M 3.417969 32.003906 "/>
</g>
</g>
</g>
</svg>
