
<svg xmlns="http://www.w3.org/2000/svg" xmlns:xlink="http://www.w3.org/1999/xlink" width="64px" height="64px" viewBox="0 0 64 64" version="1.1">
<g id="surface1">
<path style="fill-rule:nonzero;fill:rgb(100%,100%,100%);fill-opacity:1;stroke-width:27.389011;stroke-linecap:butt;stroke-linejoin:miter;stroke:rgb(59.215686%,85.098039%,31.764706%);stroke-opacity:1;stroke-miterlimit:4;" d="M 86.4375 31.6875 L 425.5625 31.6875 C 455.8125 31.6875 480.34375 56.1875 480.34375 86.4375 L 480.34375 425.5625 C 480.34375 455.8125 455.8125 480.34375 425.5625 480.34375 L 86.4375 480.34375 C 56.1875 480.34375 31.6875 455.8125 31.6875 425.5625 L 31.6875 86.4375 C 31.6875 56.1875 56.1875 31.6875 86.4375 31.6875 Z M 86.4375 31.6875 " transform="matrix(0.125,0,0,0.125,0,0)"/>
<path style="fill-rule:nonzero;fill:rgb(100%,100%,100%);fill-opacity:1;stroke-width:3.6;stroke-linecap:butt;stroke-linejoin:miter;stroke:rgb(58.039216%,85.098039%,31.764706%);stroke-opacity:1;stroke-miterlimit:4;" d="M 50.853558 112.025619 C 38.472464 108.777268 29.485015 100.82763 25.634733 89.712667 L 24.762971 86.038814 L 24.067638 63.663593 C 23.299657 39.337287 23.735538 39.243884 21.317437 37.344688 C 20.352272 36.576708 19.605047 36.431414 16.740687 36.431414 C 14.85187 36.421036 12.319609 36.306877 11.094991 36.161583 L 8.884452 35.891752 L 8.884452 16.069548 L 48.850581 16.266732 C 92.449051 16.474295 91.048005 16.39127 97.565463 18.944287 C 105.774553 22.171881 112.966589 28.886523 116.464014 36.607842 C 119.141568 42.512991 119.079299 41.776144 119.286862 74.695532 C 119.452912 101.948467 119.411399 104.85434 118.778334 106.06858 C 117.605607 108.351765 115.073346 110.832135 112.862807 111.859569 L 110.75605 112.84549 L 82.278496 112.824734 C 56.032238 112.803978 53.572624 112.741709 50.853558 112.025619 Z M 92.033926 98.938813 C 101.094023 97.984026 108.088873 90.989175 109.334248 81.638492 C 109.635213 79.344928 109.728616 73.076545 109.604079 63.912668 C 109.365382 46.882178 109.282357 46.5397 104.674473 41.879925 C 101.249694 38.413634 98.592896 37.272041 93.933122 37.272041 C 90.24889 37.272041 87.623227 37.99851 84.852269 39.783546 L 82.80778 41.091189 L 79.341489 39.295774 C 75.885576 37.50036 75.844064 37.489982 71.381473 37.489982 C 67.510436 37.489982 66.60754 37.624897 64.864016 38.486281 C 61.86474 39.959974 58.844708 43.135678 57.267234 46.446297 L 55.918079 49.310657 L 55.669004 75.276706 L 65.403678 75.276706 L 65.414056 63.341872 C 65.414056 52.185396 65.465947 51.33439 66.244305 50.047504 C 68.153879 46.92369 72.554201 45.948147 75.096839 48.096418 C 77.597966 50.203175 77.639478 50.462628 77.639478 63.435275 L 77.639478 75.276706 L 87.259993 75.276706 L 87.405286 63.061662 C 87.55058 51.427793 87.592092 50.794728 88.443098 49.653135 C 91.162165 46.000038 96.205929 45.979282 98.800459 49.622001 C 99.78638 50.991912 99.78638 51.064559 99.910917 66.092073 L 100.045833 81.192233 L 98.883484 83.330125 C 97.575841 85.737848 95.552108 87.512506 92.542454 88.903174 C 90.518721 89.837204 90.342293 89.837204 71.640926 89.764558 C 50.697886 89.671155 51.362086 89.75418 48.300541 86.77566 C 47.439157 85.945411 46.297564 84.29529 45.747524 83.122563 L 44.751225 80.974292 L 44.740847 28.95917 L 41.513252 28.67896 C 39.738594 28.533667 37.652593 28.409129 36.874234 28.409129 L 35.46281 28.409129 L 35.483566 50.888131 C 35.504323 63.258847 35.659994 76.127712 35.826044 79.5006 C 36.12701 85.322724 36.210035 85.748226 37.528055 88.228596 C 39.126285 91.227872 42.789761 95.09891 45.560718 96.728274 C 49.62894 99.115241 51.299817 99.291669 70.675761 99.312425 C 80.420813 99.312425 90.03095 99.156754 92.033926 98.938813 Z M 92.033926 98.938813 " transform="matrix(0.376393,0,0,0.376393,7.862986,7.740598)"/>
<path style="fill-rule:nonzero;fill:rgb(58.039216%,85.098039%,31.764706%);fill-opacity:1;stroke-width:0.3;stroke-linecap:butt;stroke-linejoin:miter;stroke:rgb(58.039216%,85.098039%,31.764706%);stroke-opacity:1;stroke-miterlimit:4;" d="M 58.439961 99.104863 C 51.517757 98.949191 49.608184 98.648226 46.868361 97.299071 C 44.88614 96.323528 43.661523 95.410253 41.700059 93.438411 C 39.188554 90.926907 37.144065 87.854984 36.552512 85.706714 C 35.857179 83.226344 35.722263 78.348629 35.62886 51.791027 L 35.545835 28.429886 L 35.971338 28.429886 C 36.645916 28.429886 42.997323 28.855388 43.848329 28.95917 L 44.605931 29.042195 L 44.605931 80.860133 L 45.280509 82.302691 C 45.643743 83.091428 46.297564 84.274534 46.723067 84.917977 C 47.64672 86.298267 49.545915 88.166328 50.542214 88.674855 C 52.4933 89.671155 56.18791 89.826826 75.553476 89.75418 C 92.096195 89.702289 90.96498 89.774936 93.134007 88.685233 C 96.185173 87.149272 97.897563 85.416127 99.651464 82.095129 L 100.139236 81.171477 L 99.962808 66.9327 C 99.869405 58.754744 99.724111 52.268421 99.641086 51.687246 C 99.443902 50.389981 99.080668 49.694648 98.063612 48.68797 C 95.614377 46.238735 91.919767 46.228356 89.294103 48.656836 C 88.277048 49.601245 87.944948 50.182419 87.71663 51.417415 C 87.540202 52.424092 87.280749 62.532378 87.280749 69.039458 C 87.270371 71.447181 87.228858 73.82377 87.176968 74.321919 L 87.083565 75.214437 L 77.68099 75.214437 L 77.618722 63.881534 C 77.556453 52.102371 77.525319 51.552331 76.91301 50.12015 C 76.539398 49.269145 75.107217 47.868099 74.079784 47.380327 C 73.124997 46.92369 71.205045 46.809531 70.063453 47.141631 C 68.371819 47.629402 66.586783 49.040826 66.005609 50.338091 C 65.476325 51.541952 65.414056 52.756192 65.331031 64.099474 L 65.248006 75.214437 L 55.669004 75.214437 L 55.741651 74.301163 C 55.783163 73.803014 55.85581 67.98089 55.897323 61.370029 L 55.980348 49.341792 L 57.049294 47.162387 C 58.647524 43.89328 60.577853 41.464801 62.954442 39.773168 C 63.992254 39.036321 65.61124 38.185316 66.524515 37.894728 C 67.302873 37.656032 74.225077 37.531494 75.408183 37.739057 C 76.020492 37.842838 77.224353 38.361744 79.507539 39.503337 C 81.271819 40.385477 82.776646 41.111945 82.838915 41.111945 C 82.901183 41.111945 83.565383 40.707198 84.322985 40.219427 C 87.093943 38.424012 89.055407 37.728679 92.199976 37.438091 C 95.323789 37.137126 98.146637 37.573007 100.377933 38.704222 C 102.235615 39.64863 104.674473 41.734632 106.490643 43.955549 C 109.20971 47.276546 109.448407 49.18612 109.469163 68.074293 C 109.479541 76.781533 109.427651 80.175177 109.292735 81.254502 C 108.099252 90.605185 101.509147 97.537767 92.666992 98.762385 C 89.823387 99.156754 69.534169 99.364316 58.439961 99.104863 Z M 58.439961 99.104863 " transform="matrix(0.376393,0,0,0.376393,7.862986,7.740598)"/>
</g>
</svg>
