
<svg xmlns="http://www.w3.org/2000/svg" xmlns:xlink="http://www.w3.org/1999/xlink" width="64px" height="64px" viewBox="0 0 64 64" version="1.1">
<g id="surface1">
<path style="fill-rule:nonzero;fill:rgb(100%,100%,100%);fill-opacity:0.976471;stroke-width:28.636707;stroke-linecap:butt;stroke-linejoin:miter;stroke:rgb(9.803922%,72.941176%,61.176471%);stroke-opacity:1;stroke-miterlimit:4;" d="M 78.71875 21.46875 L 433.28125 21.46875 C 464.90625 21.46875 490.5625 47.09375 490.5625 78.71875 L 490.5625 433.28125 C 490.5625 464.90625 464.90625 490.5625 433.28125 490.5625 L 78.71875 490.5625 C 47.09375 490.5625 21.46875 464.90625 21.46875 433.28125 L 21.46875 78.71875 C 21.46875 47.09375 47.09375 21.46875 78.71875 21.46875 Z M 78.71875 21.46875 " transform="matrix(0.125,0,0,0.125,0,0)"/>
<path style=" stroke:none;fill-rule:nonzero;fill:rgb(9.803922%,72.941176%,61.176471%);fill-opacity:1;" d="M 49.515625 17.269531 C 49.15625 16.960938 48.734375 16.804688 48.246094 16.804688 L 15.757812 16.804688 C 15.265625 16.804688 14.84375 16.960938 14.488281 17.269531 C 14.128906 17.578125 13.953125 17.949219 13.953125 18.371094 L 13.953125 37.179688 C 13.953125 38.585938 14.265625 39.976562 14.894531 41.359375 C 15.527344 42.738281 16.304688 43.960938 17.238281 45.03125 C 18.167969 46.101562 19.277344 47.140625 20.5625 48.15625 C 21.851562 49.167969 23.042969 50.007812 24.132812 50.675781 C 25.222656 51.347656 26.359375 51.980469 27.542969 52.574219 C 28.726562 53.171875 29.570312 53.574219 30.066406 53.789062 C 30.566406 54 30.964844 54.164062 31.265625 54.277344 C 31.492188 54.375 31.734375 54.425781 32 54.425781 C 32.261719 54.425781 32.507812 54.375 32.734375 54.277344 C 33.035156 54.164062 33.433594 54 33.929688 53.789062 C 34.429688 53.574219 35.269531 53.171875 36.457031 52.574219 C 37.640625 51.980469 38.777344 51.347656 39.867188 50.675781 C 40.957031 50.007812 42.148438 49.167969 43.433594 48.15625 C 44.722656 47.140625 45.832031 46.101562 46.761719 45.03125 C 47.691406 43.960938 48.472656 42.738281 49.105469 41.359375 C 49.734375 39.976562 50.046875 38.585938 50.046875 37.179688 L 50.046875 18.371094 C 50.046875 17.945312 49.871094 17.582031 49.515625 17.269531 Z M 44.632812 37.179688 C 44.632812 40.054688 42.425781 42.992188 38.007812 46 C 36.238281 47.207031 34.238281 48.324219 32 49.355469 L 32 21.507812 L 44.632812 21.507812 Z M 44.632812 37.179688 "/>
<path style=" stroke:none;fill-rule:nonzero;fill:rgb(9.803922%,72.941176%,61.176471%);fill-opacity:1;" d="M 31.992188 9.574219 C 31.230469 9.578125 30.46875 9.835938 29.882812 10.351562 L 14.835938 16.675781 C 13.664062 17.699219 13.65625 19.34375 14.816406 20.355469 L 15.207031 20.699219 L 48.792969 20.699219 L 49.164062 20.375 C 50.335938 19.351562 50.34375 17.707031 49.183594 16.691406 L 34.097656 10.332031 C 33.515625 9.824219 32.753906 9.574219 31.992188 9.574219 Z M 31.992188 9.574219 "/>
<path style=" stroke:none;fill-rule:nonzero;fill:rgb(0%,50.196078%,0%);fill-opacity:1;" d="M 26.804688 36.785156 L 40.566406 24.832031 C 41.316406 24.179688 42.425781 24.089844 43.046875 24.625 L 43.550781 25.0625 C 44.167969 25.601562 44.0625 26.566406 43.3125 27.214844 L 29.550781 39.167969 C 28.800781 39.820312 27.691406 39.910156 27.074219 39.375 L 26.570312 38.9375 C 25.949219 38.398438 26.054688 37.433594 26.804688 36.785156 Z M 26.804688 36.785156 "/>
<path style=" stroke:none;fill-rule:nonzero;fill:rgb(0%,50.196078%,0%);fill-opacity:1;" d="M 23.289062 31.316406 L 29.128906 36.386719 C 29.800781 36.972656 29.785156 37.933594 29.089844 38.539062 L 28.855469 38.742188 C 28.164062 39.34375 27.054688 39.359375 26.382812 38.773438 L 20.542969 33.703125 C 19.867188 33.117188 19.886719 32.15625 20.578125 31.550781 L 20.8125 31.347656 C 21.507812 30.746094 22.613281 30.730469 23.289062 31.316406 Z M 23.289062 31.316406 "/>
<path style=" stroke:none;fill-rule:nonzero;fill:rgb(0%,50.196078%,0%);fill-opacity:1;" d="M 42.023438 24.273438 C 41.851562 24.273438 41.675781 24.296875 41.5 24.34375 C 42.742188 24.566406 43.699219 25.332031 43.910156 26.289062 C 44.023438 25.835938 43.910156 25.378906 43.550781 25.0625 L 43.046875 24.625 C 42.773438 24.390625 42.410156 24.273438 42.023438 24.273438 Z M 32 32.273438 L 26.804688 36.785156 C 26.050781 37.4375 25.949219 38.394531 26.570312 38.9375 L 27.074219 39.375 C 27.695312 39.914062 28.796875 39.820312 29.550781 39.167969 L 32 37.042969 Z M 32 32.273438 "/>
<path style=" stroke:none;fill-rule:nonzero;fill:rgb(0%,50.196078%,0%);fill-opacity:1;" d="M 23.289062 31.316406 L 29.128906 36.386719 C 29.800781 36.972656 29.785156 37.933594 29.089844 38.539062 L 28.855469 38.742188 C 28.164062 39.34375 27.054688 39.359375 26.382812 38.773438 L 20.542969 33.703125 C 19.867188 33.117188 19.886719 32.15625 20.578125 31.550781 L 20.8125 31.347656 C 21.507812 30.746094 22.613281 30.730469 23.289062 31.316406 Z M 23.289062 31.316406 "/>
</g>
</svg>
