
<svg xmlns="http://www.w3.org/2000/svg" xmlns:xlink="http://www.w3.org/1999/xlink" width="64px" height="64px" viewBox="0 0 64 64" version="1.1">
<g id="surface1">
<path style="fill-rule:nonzero;fill:rgb(100%,100%,100%);fill-opacity:1;stroke-width:18.73;stroke-linecap:butt;stroke-linejoin:miter;stroke:rgb(23.921569%,32.941176%,24.705882%);stroke-opacity:1;stroke-miterlimit:4;" d="M 78.65625 31 L 433.34375 31 C 459.65625 31 481 52.34375 481 78.65625 L 481 433.34375 C 481 459.65625 459.65625 481 433.34375 481 L 78.65625 481 C 52.34375 481 31 459.65625 31 433.34375 L 31 78.65625 C 31 52.34375 52.34375 31 78.65625 31 Z M 78.65625 31 " transform="matrix(0.125,0,0,0.125,0,0)"/>
<path style=" stroke:none;fill-rule:nonzero;fill:rgb(84.313725%,84.313725%,84.313725%);fill-opacity:1;" d="M 16.492188 45.058594 L 19.542969 45.058594 L 19.542969 50.402344 L 16.492188 50.402344 Z M 16.492188 45.058594 "/>
<path style=" stroke:none;fill-rule:nonzero;fill:rgb(84.313725%,84.313725%,84.313725%);fill-opacity:1;" d="M 19.097656 45.046875 L 22.152344 45.046875 L 22.152344 50.386719 L 19.097656 50.386719 Z M 19.097656 45.046875 "/>
<path style=" stroke:none;fill-rule:nonzero;fill:rgb(84.313725%,84.313725%,84.313725%);fill-opacity:1;" d="M 21.183594 45.046875 L 24.234375 45.046875 L 24.234375 50.386719 L 21.183594 50.386719 Z M 21.183594 45.046875 "/>
<path style=" stroke:none;fill-rule:nonzero;fill:rgb(97.254902%,87.058824%,40.784314%);fill-opacity:1;" d="M 16.898438 45.046875 L 19.949219 45.046875 L 19.949219 50.386719 L 16.898438 50.386719 Z M 16.898438 45.046875 "/>
<path style=" stroke:none;fill-rule:nonzero;fill:rgb(97.254902%,87.058824%,40.784314%);fill-opacity:1;" d="M 20.742188 45.046875 L 23.792969 45.046875 L 23.792969 50.386719 L 20.742188 50.386719 Z M 20.742188 45.046875 "/>
<path style=" stroke:none;fill-rule:nonzero;fill:rgb(43.921569%,80%,70.196078%);fill-opacity:1;" d="M 14.617188 22.621094 L 54.625 22.621094 C 55.957031 22.621094 57.039062 23.703125 57.039062 25.035156 L 57.039062 44.152344 C 57.039062 45.484375 55.957031 46.566406 54.625 46.566406 L 14.617188 46.566406 C 13.285156 46.566406 12.203125 45.484375 12.203125 44.152344 L 12.203125 25.035156 C 12.203125 23.703125 13.285156 22.621094 14.617188 22.621094 Z M 14.617188 22.621094 "/>
<path style=" stroke:none;fill-rule:nonzero;fill:rgb(84.313725%,84.313725%,84.313725%);fill-opacity:1;" d="M 6.128906 15.808594 L 6.128906 17.890625 L 11.941406 17.890625 L 11.941406 46.566406 L 14.113281 46.566406 L 14.113281 15.8125 L 13.167969 15.8125 L 13.167969 15.808594 Z M 6.128906 15.808594 "/>
<path style=" stroke:none;fill-rule:nonzero;fill:rgb(9.803922%,63.137255%,52.941176%);fill-opacity:1;" d="M 37.46875 29.660156 L 37.46875 28.613281 L 35.507812 28.613281 L 35.507812 25.097656 L 17.574219 25.097656 L 17.574219 28.613281 L 15.617188 28.613281 L 15.617188 29.660156 L 17.574219 29.660156 L 17.574219 32.082031 L 15.617188 32.082031 L 15.617188 33.128906 L 17.574219 33.128906 L 17.574219 35.757812 L 15.617188 35.757812 L 15.617188 36.808594 L 17.574219 36.808594 L 17.574219 38.902344 L 15.617188 38.902344 L 15.617188 39.953125 L 17.574219 39.953125 L 17.574219 43.035156 L 35.507812 43.035156 L 35.507812 39.953125 L 37.464844 39.953125 L 37.464844 38.902344 L 35.507812 38.902344 L 35.507812 36.808594 L 37.464844 36.808594 L 37.464844 35.757812 L 35.507812 35.757812 L 35.507812 33.128906 L 37.464844 33.128906 L 37.464844 32.082031 L 35.507812 32.082031 L 35.507812 29.660156 Z M 37.46875 29.660156 "/>
<path style=" stroke:none;fill-rule:nonzero;fill:rgb(9.803922%,63.137255%,52.941176%);fill-opacity:1;" d="M 42.265625 27.894531 L 41.925781 27.90625 C 41.628906 27.917969 41.566406 27.929688 41.414062 28.003906 C 41.191406 28.109375 40.953125 28.351562 40.84375 28.570312 L 40.757812 28.746094 L 40.75 34.320312 C 40.742188 38.335938 40.75 39.941406 40.773438 40.050781 C 40.84375 40.382812 41.167969 40.734375 41.515625 40.859375 C 41.628906 40.898438 41.757812 40.914062 41.976562 40.917969 L 42.28125 40.917969 L 42.320312 40.824219 C 42.394531 40.652344 42.527344 40.554688 42.703125 40.542969 C 42.898438 40.527344 43.039062 40.609375 43.125 40.792969 L 43.183594 40.917969 L 51.703125 40.917969 L 51.761719 40.796875 C 51.839844 40.632812 51.949219 40.558594 52.125 40.542969 C 52.367188 40.519531 52.605469 40.6875 52.605469 40.875 C 52.605469 40.917969 52.632812 40.925781 52.765625 40.914062 C 53.101562 40.886719 53.488281 40.597656 53.660156 40.25 L 53.746094 40.074219 L 53.753906 34.46875 C 53.761719 28.945312 53.757812 28.859375 53.703125 28.691406 C 53.558594 28.261719 53.101562 27.902344 52.703125 27.902344 C 52.628906 27.902344 52.605469 27.914062 52.605469 27.960938 C 52.605469 28.03125 52.476562 28.1875 52.367188 28.242188 C 52.261719 28.296875 52.09375 28.300781 51.992188 28.246094 C 51.886719 28.191406 51.761719 28.054688 51.734375 27.96875 L 51.714844 27.902344 L 43.183594 27.902344 L 43.125 28.027344 C 42.960938 28.371094 42.496094 28.371094 42.332031 28.03125 Z M 42.265625 27.894531 "/>
<path style=" stroke:none;fill-rule:nonzero;fill:rgb(90.196078%,90.196078%,90.196078%);fill-opacity:1;" d="M 45.460938 30.839844 L 49.03125 30.839844 C 49.515625 30.839844 49.910156 31.234375 49.910156 31.71875 L 49.910156 32.023438 C 49.910156 32.507812 49.515625 32.902344 49.03125 32.902344 L 45.460938 32.902344 C 44.972656 32.902344 44.582031 32.507812 44.582031 32.023438 L 44.582031 31.71875 C 44.582031 31.234375 44.972656 30.839844 45.460938 30.839844 Z M 45.460938 30.839844 "/>
<path style=" stroke:none;fill-rule:nonzero;fill:rgb(90.196078%,90.196078%,90.196078%);fill-opacity:1;" d="M 45.925781 28.566406 L 45.925781 30.824219 C 45.925781 30.960938 45.8125 31.074219 45.675781 31.074219 L 45.589844 31.074219 C 45.449219 31.074219 45.335938 30.960938 45.335938 30.824219 L 45.335938 28.566406 C 45.335938 28.429688 45.449219 28.316406 45.589844 28.316406 L 45.675781 28.316406 C 45.8125 28.316406 45.925781 28.429688 45.925781 28.566406 Z M 45.925781 28.566406 "/>
<path style=" stroke:none;fill-rule:nonzero;fill:rgb(90.196078%,90.196078%,90.196078%);fill-opacity:1;" d="M 47 28.5625 L 47 30.824219 C 47 30.960938 46.886719 31.074219 46.75 31.074219 L 46.664062 31.074219 C 46.523438 31.074219 46.410156 30.960938 46.410156 30.824219 L 46.410156 28.5625 C 46.410156 28.425781 46.523438 28.3125 46.664062 28.3125 L 46.75 28.3125 C 46.886719 28.3125 47 28.425781 47 28.5625 Z M 47 28.5625 "/>
<path style=" stroke:none;fill-rule:nonzero;fill:rgb(90.196078%,90.196078%,90.196078%);fill-opacity:1;" d="M 48.0625 28.5625 L 48.0625 30.824219 C 48.0625 30.960938 47.949219 31.074219 47.808594 31.074219 L 47.722656 31.074219 C 47.585938 31.074219 47.472656 30.960938 47.472656 30.824219 L 47.472656 28.5625 C 47.472656 28.425781 47.585938 28.3125 47.722656 28.3125 L 47.808594 28.3125 C 47.949219 28.3125 48.0625 28.425781 48.0625 28.5625 Z M 48.0625 28.5625 "/>
<path style=" stroke:none;fill-rule:nonzero;fill:rgb(90.196078%,90.196078%,90.196078%);fill-opacity:1;" d="M 49.128906 28.558594 L 49.128906 30.820312 C 49.128906 30.957031 49.019531 31.070312 48.878906 31.070312 L 48.792969 31.070312 C 48.652344 31.070312 48.542969 30.957031 48.542969 30.820312 L 48.542969 28.558594 C 48.542969 28.421875 48.652344 28.308594 48.792969 28.308594 L 48.878906 28.308594 C 49.019531 28.308594 49.128906 28.421875 49.128906 28.558594 Z M 49.128906 28.558594 "/>
<path style=" stroke:none;fill-rule:nonzero;fill:rgb(90.196078%,90.196078%,90.196078%);fill-opacity:1;" d="M 50.804688 32.5625 L 50.804688 36.132812 C 50.804688 36.617188 50.414062 37.011719 49.929688 37.011719 L 49.625 37.011719 C 49.140625 37.011719 48.746094 36.617188 48.746094 36.132812 L 48.746094 32.5625 C 48.746094 32.074219 49.140625 31.683594 49.625 31.683594 L 49.929688 31.683594 C 50.414062 31.683594 50.804688 32.074219 50.804688 32.5625 Z M 50.804688 32.5625 "/>
<path style=" stroke:none;fill-rule:nonzero;fill:rgb(90.196078%,90.196078%,90.196078%);fill-opacity:1;" d="M 53.082031 33.027344 L 50.824219 33.027344 C 50.6875 33.027344 50.574219 32.914062 50.574219 32.777344 L 50.574219 32.691406 C 50.574219 32.550781 50.6875 32.4375 50.824219 32.4375 L 53.082031 32.4375 C 53.21875 32.4375 53.332031 32.550781 53.332031 32.691406 L 53.332031 32.777344 C 53.332031 32.914062 53.21875 33.027344 53.082031 33.027344 Z M 53.082031 33.027344 "/>
<path style=" stroke:none;fill-rule:nonzero;fill:rgb(90.196078%,90.196078%,90.196078%);fill-opacity:1;" d="M 53.085938 34.101562 L 50.824219 34.101562 C 50.6875 34.101562 50.574219 33.988281 50.574219 33.851562 L 50.574219 33.765625 C 50.574219 33.625 50.6875 33.511719 50.824219 33.511719 L 53.085938 33.511719 C 53.222656 33.511719 53.335938 33.625 53.335938 33.765625 L 53.335938 33.851562 C 53.335938 33.988281 53.222656 34.101562 53.085938 34.101562 Z M 53.085938 34.101562 "/>
<path style=" stroke:none;fill-rule:nonzero;fill:rgb(90.196078%,90.196078%,90.196078%);fill-opacity:1;" d="M 53.085938 35.164062 L 50.824219 35.164062 C 50.6875 35.164062 50.574219 35.050781 50.574219 34.910156 L 50.574219 34.824219 C 50.574219 34.6875 50.6875 34.574219 50.824219 34.574219 L 53.085938 34.574219 C 53.222656 34.574219 53.335938 34.6875 53.335938 34.824219 L 53.335938 34.910156 C 53.335938 35.050781 53.222656 35.164062 53.085938 35.164062 Z M 53.085938 35.164062 "/>
<path style=" stroke:none;fill-rule:nonzero;fill:rgb(90.196078%,90.196078%,90.196078%);fill-opacity:1;" d="M 53.089844 36.230469 L 50.828125 36.230469 C 50.691406 36.230469 50.578125 36.121094 50.578125 35.980469 L 50.578125 35.894531 C 50.578125 35.757812 50.691406 35.644531 50.828125 35.644531 L 53.089844 35.644531 C 53.226562 35.644531 53.339844 35.757812 53.339844 35.894531 L 53.339844 35.980469 C 53.339844 36.121094 53.226562 36.230469 53.089844 36.230469 Z M 53.089844 36.230469 "/>
<path style=" stroke:none;fill-rule:nonzero;fill:rgb(90.196078%,90.196078%,90.196078%);fill-opacity:1;" d="M 43.6875 32.585938 L 43.6875 36.15625 C 43.6875 36.640625 44.082031 37.035156 44.566406 37.035156 L 44.867188 37.035156 C 45.351562 37.035156 45.746094 36.640625 45.746094 36.15625 L 45.746094 32.585938 C 45.746094 32.097656 45.351562 31.707031 44.867188 31.707031 L 44.566406 31.707031 C 44.082031 31.707031 43.6875 32.097656 43.6875 32.585938 Z M 43.6875 32.585938 "/>
<path style=" stroke:none;fill-rule:nonzero;fill:rgb(90.196078%,90.196078%,90.196078%);fill-opacity:1;" d="M 41.414062 33.050781 L 43.667969 33.050781 C 43.808594 33.050781 43.917969 32.9375 43.917969 32.800781 L 43.917969 32.714844 C 43.917969 32.574219 43.808594 32.460938 43.667969 32.460938 L 41.414062 32.460938 C 41.273438 32.460938 41.160156 32.574219 41.160156 32.714844 L 41.160156 32.800781 C 41.160156 32.9375 41.273438 33.050781 41.414062 33.050781 Z M 41.414062 33.050781 "/>
<path style=" stroke:none;fill-rule:nonzero;fill:rgb(90.196078%,90.196078%,90.196078%);fill-opacity:1;" d="M 41.410156 34.125 L 43.667969 34.125 C 43.808594 34.125 43.917969 34.011719 43.917969 33.875 L 43.917969 33.789062 C 43.917969 33.648438 43.808594 33.535156 43.667969 33.535156 L 41.410156 33.535156 C 41.269531 33.535156 41.15625 33.648438 41.15625 33.789062 L 41.15625 33.875 C 41.15625 34.011719 41.269531 34.125 41.410156 34.125 Z M 41.410156 34.125 "/>
<path style=" stroke:none;fill-rule:nonzero;fill:rgb(90.196078%,90.196078%,90.196078%);fill-opacity:1;" d="M 41.410156 35.183594 L 43.667969 35.183594 C 43.808594 35.183594 43.917969 35.074219 43.917969 34.933594 L 43.917969 34.847656 C 43.917969 34.710938 43.808594 34.597656 43.667969 34.597656 L 41.410156 34.597656 C 41.269531 34.597656 41.15625 34.710938 41.15625 34.847656 L 41.15625 34.933594 C 41.15625 35.074219 41.269531 35.183594 41.410156 35.183594 Z M 41.410156 35.183594 "/>
<path style=" stroke:none;fill-rule:nonzero;fill:rgb(90.196078%,90.196078%,90.196078%);fill-opacity:1;" d="M 41.40625 36.253906 L 43.664062 36.253906 C 43.804688 36.253906 43.914062 36.144531 43.914062 36.003906 L 43.914062 35.917969 C 43.914062 35.777344 43.804688 35.667969 43.664062 35.667969 L 41.40625 35.667969 C 41.265625 35.667969 41.152344 35.777344 41.152344 35.917969 L 41.152344 36.003906 C 41.152344 36.144531 41.265625 36.253906 41.40625 36.253906 Z M 41.40625 36.253906 "/>
<path style=" stroke:none;fill-rule:nonzero;fill:rgb(90.196078%,90.196078%,90.196078%);fill-opacity:1;" d="M 45.476562 37.992188 L 49.046875 37.992188 C 49.535156 37.992188 49.925781 37.597656 49.925781 37.113281 L 49.925781 36.8125 C 49.925781 36.328125 49.535156 35.933594 49.046875 35.933594 L 45.476562 35.933594 C 44.992188 35.933594 44.601562 36.328125 44.601562 36.8125 L 44.601562 37.113281 C 44.601562 37.597656 44.992188 37.992188 45.476562 37.992188 Z M 45.476562 37.992188 "/>
<path style=" stroke:none;fill-rule:nonzero;fill:rgb(90.196078%,90.196078%,90.196078%);fill-opacity:1;" d="M 45.945312 40.265625 L 45.945312 38.011719 C 45.945312 37.871094 45.832031 37.757812 45.695312 37.757812 L 45.605469 37.757812 C 45.46875 37.757812 45.355469 37.871094 45.355469 38.011719 L 45.355469 40.265625 C 45.355469 40.40625 45.46875 40.519531 45.605469 40.519531 L 45.695312 40.519531 C 45.832031 40.519531 45.945312 40.40625 45.945312 40.265625 Z M 45.945312 40.265625 "/>
<path style=" stroke:none;fill-rule:nonzero;fill:rgb(90.196078%,90.196078%,90.196078%);fill-opacity:1;" d="M 47.019531 40.269531 L 47.019531 38.011719 C 47.019531 37.871094 46.90625 37.757812 46.765625 37.757812 L 46.679688 37.757812 C 46.542969 37.757812 46.429688 37.871094 46.429688 38.011719 L 46.429688 40.269531 C 46.429688 40.410156 46.542969 40.523438 46.679688 40.523438 L 46.765625 40.523438 C 46.90625 40.523438 47.019531 40.410156 47.019531 40.269531 Z M 47.019531 40.269531 "/>
<path style=" stroke:none;fill-rule:nonzero;fill:rgb(90.196078%,90.196078%,90.196078%);fill-opacity:1;" d="M 48.078125 40.269531 L 48.078125 38.011719 C 48.078125 37.871094 47.96875 37.757812 47.828125 37.757812 L 47.742188 37.757812 C 47.601562 37.757812 47.492188 37.871094 47.492188 38.011719 L 47.492188 40.269531 C 47.492188 40.410156 47.601562 40.523438 47.742188 40.523438 L 47.828125 40.523438 C 47.96875 40.523438 48.078125 40.410156 48.078125 40.269531 Z M 48.078125 40.269531 "/>
<path style=" stroke:none;fill-rule:nonzero;fill:rgb(90.196078%,90.196078%,90.196078%);fill-opacity:1;" d="M 49.148438 40.273438 L 49.148438 38.015625 C 49.148438 37.875 49.035156 37.761719 48.898438 37.761719 L 48.8125 37.761719 C 48.671875 37.761719 48.558594 37.875 48.558594 38.015625 L 48.558594 40.273438 C 48.558594 40.414062 48.671875 40.527344 48.8125 40.527344 L 48.898438 40.527344 C 49.035156 40.527344 49.148438 40.414062 49.148438 40.273438 Z M 49.148438 40.273438 "/>
<path style=" stroke:none;fill-rule:nonzero;fill:rgb(12.941176%,20.784314%,32.941176%);fill-opacity:1;" d="M 44.574219 37.195312 C 44.390625 37.105469 44.398438 37.273438 44.402344 34.378906 L 44.40625 31.738281 L 44.472656 31.667969 C 44.507812 31.628906 44.5625 31.585938 44.589844 31.570312 C 44.65625 31.53125 49.832031 31.53125 49.902344 31.570312 C 49.929688 31.585938 49.984375 31.628906 50.019531 31.667969 L 50.089844 31.742188 L 50.089844 34.378906 C 50.089844 37.25 50.097656 37.097656 49.925781 37.191406 C 49.8125 37.25 44.699219 37.253906 44.574219 37.195312 Z M 49.648438 36.734375 C 49.691406 36.640625 49.652344 36.515625 49.574219 36.484375 C 49.371094 36.410156 49.238281 36.699219 49.433594 36.796875 C 49.519531 36.84375 49.609375 36.816406 49.648438 36.734375 Z M 45.109375 36.773438 C 45.175781 36.707031 45.152344 36.546875 45.070312 36.496094 C 44.921875 36.398438 44.765625 36.5625 44.84375 36.738281 C 44.871094 36.792969 44.902344 36.808594 44.976562 36.808594 C 45.03125 36.808594 45.089844 36.792969 45.109375 36.773438 Z M 45.109375 32.246094 C 45.167969 32.1875 45.152344 32.023438 45.085938 31.988281 C 44.957031 31.917969 44.820312 31.992188 44.820312 32.132812 C 44.820312 32.234375 44.871094 32.28125 44.980469 32.28125 C 45.03125 32.28125 45.089844 32.265625 45.109375 32.246094 Z M 49.625 32.234375 C 49.683594 32.175781 49.683594 32.078125 49.621094 32.011719 C 49.488281 31.863281 49.25 32.042969 49.359375 32.210938 C 49.414062 32.292969 49.554688 32.308594 49.625 32.234375 Z M 49.625 32.234375 "/>
<path style=" stroke:none;fill-rule:evenodd;fill:rgb(97.254902%,87.058824%,40.784314%);fill-opacity:1;" d="M 44.722656 39.753906 L 45.640625 39.753906 L 45.640625 40.917969 L 44.722656 40.917969 Z M 44.722656 39.753906 "/>
<path style=" stroke:none;fill-rule:evenodd;fill:rgb(97.254902%,87.058824%,40.784314%);fill-opacity:1;" d="M 45.128906 38.894531 L 45.238281 38.894531 C 45.460938 38.894531 45.640625 39.078125 45.640625 39.300781 L 45.640625 39.734375 C 45.640625 39.957031 45.460938 40.136719 45.238281 40.136719 L 45.128906 40.136719 C 44.90625 40.136719 44.722656 39.957031 44.722656 39.734375 L 44.722656 39.300781 C 44.722656 39.078125 44.90625 38.894531 45.128906 38.894531 Z M 45.128906 38.894531 "/>
<path style=" stroke:none;fill-rule:evenodd;fill:rgb(97.254902%,87.058824%,40.784314%);fill-opacity:1;" d="M 45.96875 39.753906 L 46.886719 39.753906 L 46.886719 40.917969 L 45.96875 40.917969 Z M 45.96875 39.753906 "/>
<path style=" stroke:none;fill-rule:evenodd;fill:rgb(97.254902%,87.058824%,40.784314%);fill-opacity:1;" d="M 46.371094 38.894531 L 46.480469 38.894531 C 46.703125 38.894531 46.886719 39.074219 46.886719 39.296875 L 46.886719 39.734375 C 46.886719 39.957031 46.703125 40.136719 46.480469 40.136719 L 46.371094 40.136719 C 46.148438 40.136719 45.964844 39.957031 45.964844 39.734375 L 45.964844 39.296875 C 45.964844 39.074219 46.148438 38.894531 46.371094 38.894531 Z M 46.371094 38.894531 "/>
<path style=" stroke:none;fill-rule:evenodd;fill:rgb(97.254902%,87.058824%,40.784314%);fill-opacity:1;" d="M 47.621094 39.753906 L 48.542969 39.753906 L 48.542969 40.917969 L 47.621094 40.917969 Z M 47.621094 39.753906 "/>
<path style=" stroke:none;fill-rule:evenodd;fill:rgb(97.254902%,87.058824%,40.784314%);fill-opacity:1;" d="M 48.027344 38.894531 L 48.136719 38.894531 C 48.359375 38.894531 48.539062 39.078125 48.539062 39.300781 L 48.539062 39.734375 C 48.539062 39.957031 48.359375 40.136719 48.136719 40.136719 L 48.027344 40.136719 C 47.804688 40.136719 47.621094 39.957031 47.621094 39.734375 L 47.621094 39.300781 C 47.621094 39.078125 47.804688 38.894531 48.027344 38.894531 Z M 48.027344 38.894531 "/>
<path style=" stroke:none;fill-rule:evenodd;fill:rgb(97.254902%,87.058824%,40.784314%);fill-opacity:1;" d="M 48.835938 39.753906 L 49.753906 39.753906 L 49.753906 40.917969 L 48.835938 40.917969 Z M 48.835938 39.753906 "/>
<path style=" stroke:none;fill-rule:evenodd;fill:rgb(97.254902%,87.058824%,40.784314%);fill-opacity:1;" d="M 49.238281 38.894531 L 49.351562 38.894531 C 49.574219 38.894531 49.753906 39.078125 49.753906 39.300781 L 49.753906 39.734375 C 49.753906 39.957031 49.574219 40.136719 49.351562 40.136719 L 49.238281 40.136719 C 49.015625 40.136719 48.835938 39.957031 48.835938 39.734375 L 48.835938 39.300781 C 48.835938 39.078125 49.015625 38.894531 49.238281 38.894531 Z M 49.238281 38.894531 "/>
<path style=" stroke:none;fill-rule:nonzero;fill:rgb(90.196078%,90.196078%,90.196078%);fill-opacity:1;" d="M 22.359375 29.8125 L 22.359375 39.304688 L 23.488281 39.304688 L 23.488281 29.8125 Z M 24.066406 29.8125 L 24.066406 39.304688 L 25.195312 39.304688 L 25.195312 29.8125 Z M 25.78125 29.8125 L 25.78125 39.304688 L 26.910156 39.304688 L 26.910156 29.8125 Z M 27.539062 29.8125 L 27.539062 39.304688 L 28.664062 39.304688 L 28.664062 29.8125 Z M 29.289062 29.8125 L 29.289062 39.304688 L 30.414062 39.304688 L 30.414062 29.8125 Z M 29.289062 29.8125 "/>
</g>
</svg>
