
<svg xmlns="http://www.w3.org/2000/svg" xmlns:xlink="http://www.w3.org/1999/xlink" width="64px" height="64px" viewBox="0 0 64 64" version="1.1">
<g id="surface1">
<path style=" stroke:none;fill-rule:nonzero;fill:rgb(100%,100%,100%);fill-opacity:1;" d="M 23.503906 8.464844 C 22.546875 8.464844 21.777344 8.984375 21.777344 9.625 L 21.777344 12.386719 L 15.472656 12.386719 C 14.109375 12.386719 13.015625 13.125 13.015625 14.039062 L 13.015625 53.882812 C 13.015625 54.796875 14.109375 55.535156 15.472656 55.535156 L 48.527344 55.535156 C 49.886719 55.535156 50.984375 54.796875 50.984375 53.882812 L 50.984375 14.039062 C 50.984375 13.125 49.886719 12.386719 48.527344 12.386719 L 42.222656 12.386719 L 42.222656 9.625 C 42.222656 8.984375 41.453125 8.464844 40.496094 8.464844 Z M 23.503906 8.464844 "/>
<path style=" stroke:none;fill-rule:evenodd;fill:rgb(100%,100%,100%);fill-opacity:1;" d="M 32 18.15625 L 22.105469 34.769531 L 32 34.769531 L 32 45.839844 L 41.894531 29.230469 L 32 29.230469 Z M 32 18.15625 "/>
<path style="fill-rule:nonzero;fill:rgb(100%,100%,100%);fill-opacity:1;stroke-width:28.448776;stroke-linecap:butt;stroke-linejoin:miter;stroke:rgb(16.862745%,61.960784%,34.901961%);stroke-opacity:1;stroke-miterlimit:4;" d="M 79.875 23 L 432.125 23 C 463.53125 23 489 48.46875 489 79.875 L 489 432.125 C 489 463.53125 463.53125 489 432.125 489 L 79.875 489 C 48.46875 489 23 463.53125 23 432.125 L 23 79.875 C 23 48.46875 48.46875 23 79.875 23 Z M 79.875 23 " transform="matrix(0.125,0,0,0.125,0,0)"/>
<path style=" stroke:none;fill-rule:nonzero;fill:rgb(16.862745%,61.960784%,34.901961%);fill-opacity:1;" d="M 25.242188 9.785156 C 24.480469 9.785156 23.867188 10.199219 23.867188 10.710938 L 23.867188 13.546875 C 23.867188 13.554688 23.867188 13.566406 23.871094 13.578125 L 17.113281 13.578125 C 15.886719 13.578125 14.898438 14.273438 14.898438 15.132812 L 14.898438 52.660156 C 14.898438 53.519531 15.886719 54.210938 17.113281 54.210938 L 46.886719 54.210938 C 48.113281 54.210938 49.097656 53.519531 49.097656 52.660156 L 49.097656 15.132812 C 49.097656 14.273438 48.113281 13.578125 46.886719 13.578125 L 40.128906 13.578125 C 40.132812 13.566406 40.132812 13.554688 40.132812 13.546875 L 40.132812 10.710938 C 40.132812 10.199219 39.519531 9.785156 38.757812 9.785156 Z M 25.242188 9.785156 "/>
<path style=" stroke:none;fill-rule:nonzero;fill:rgb(0%,100%,0%);fill-opacity:1;" d="M 34.515625 47.699219 C 34.082031 47.15625 33.566406 45.382812 30.335938 33.308594 C 26.855469 20.300781 27.101562 21.113281 26.808594 21.679688 C 26.683594 21.910156 25.914062 24.59375 25.089844 27.632812 C 24.242188 30.769531 23.402344 33.320312 23.148438 33.519531 C 22.824219 33.777344 21.046875 33.875 16.539062 33.875 C 11.125 33.875 10.316406 33.816406 9.894531 33.394531 C 9.441406 32.941406 9.453125 32.882812 10.046875 32.402344 C 10.609375 31.945312 11.300781 31.886719 16.308594 31.886719 L 21.941406 31.886719 L 22.261719 30.683594 C 26.242188 15.761719 26.441406 15.21875 27.484375 16.320312 C 27.6875 16.539062 28.835938 20.351562 30.03125 24.796875 C 35.417969 44.785156 34.871094 42.898438 35.167969 42.601562 C 35.253906 42.515625 35.953125 40.101562 36.71875 37.238281 C 37.488281 34.375 38.265625 31.742188 38.453125 31.390625 C 38.792969 30.753906 38.800781 30.753906 46.390625 30.753906 C 53.609375 30.753906 54.007812 30.78125 54.285156 31.300781 C 54.507812 31.714844 54.46875 31.957031 54.132812 32.292969 C 53.753906 32.675781 52.675781 32.738281 46.757812 32.738281 C 42.949219 32.738281 39.832031 32.796875 39.832031 32.871094 C 39.832031 33.207031 36.109375 46.855469 35.867188 47.417969 C 35.558594 48.121094 34.949219 48.25 34.515625 47.699219 Z M 34.515625 47.699219 "/>
</g>
</svg>
