
<svg xmlns="http://www.w3.org/2000/svg" xmlns:xlink="http://www.w3.org/1999/xlink" width="64px" height="64px" viewBox="0 0 64 64" version="1.1">
<g id="surface1">
<path style=" stroke:none;fill-rule:evenodd;fill:rgb(80%,61.176471%,41.960784%);fill-opacity:1;" d="M 9.558594 3.0625 L 54.441406 3.0625 C 58.027344 3.0625 60.9375 5.972656 60.9375 9.5625 L 60.9375 54.441406 C 60.9375 58.027344 58.027344 60.9375 54.441406 60.9375 L 9.558594 60.9375 C 5.972656 60.9375 3.0625 58.027344 3.0625 54.441406 L 3.0625 9.5625 C 3.0625 5.972656 5.972656 3.0625 9.558594 3.0625 Z M 9.558594 3.0625 "/>
<path style=" stroke:none;fill-rule:nonzero;fill:rgb(0%,0%,0%);fill-opacity:0.25098;" d="M 17.453125 13.265625 C 17.453125 14.851562 16.164062 16.140625 14.574219 16.140625 C 12.984375 16.140625 11.695312 14.851562 11.695312 13.265625 C 11.695312 11.675781 12.984375 10.386719 14.574219 10.386719 C 16.164062 10.386719 17.453125 11.675781 17.453125 13.265625 M 17.453125 13.265625 "/>
<path style=" stroke:none;fill-rule:nonzero;fill:rgb(0%,0%,0%);fill-opacity:0.25098;" d="M 52.304688 13.464844 C 52.304688 15.054688 51.015625 16.34375 49.425781 16.34375 C 47.835938 16.34375 46.546875 15.054688 46.546875 13.464844 C 46.546875 11.878906 47.835938 10.585938 49.425781 10.585938 C 51.015625 10.585938 52.304688 11.878906 52.304688 13.464844 M 52.304688 13.464844 "/>
<path style="fill-rule:nonzero;fill:rgb(0%,47.058824%,67.058824%);fill-opacity:1;stroke-width:7.9095;stroke-linecap:butt;stroke-linejoin:miter;stroke:rgb(100%,97.254902%,92.156863%);stroke-opacity:1;stroke-miterlimit:10;" d="M 1567.654697 96.172158 C 1567.654697 199.446697 1483.930621 283.12624 1380.656082 283.12624 C 1277.426076 283.12624 1193.702 199.446697 1193.702 96.172158 C 1193.702 -7.057847 1277.426076 -90.781924 1380.656082 -90.781924 C 1483.930621 -90.781924 1567.654697 -7.057847 1567.654697 96.172158 Z M 1567.654697 96.172158 " transform="matrix(0.0877137,0,0,0.0877137,-76.918884,33.90032)"/>
<path style=" stroke:none;fill-rule:nonzero;fill:rgb(100%,97.254902%,92.156863%);fill-opacity:1;" d="M 45.777344 30.59375 L 41.855469 30.984375 L 41.855469 47.066406 L 45.734375 46.503906 L 45.734375 39.628906 L 50.902344 47.238281 L 54.953125 45.941406 L 49.65625 38.636719 L 54.996094 31.71875 L 50.859375 30.765625 L 45.734375 37.683594 Z M 36.945312 34.527344 C 36.902344 34.527344 36.847656 34.550781 36.816406 34.574219 L 35.308594 36.128906 C 35.242188 36.195312 35.21875 36.308594 35.265625 36.386719 L 37.03125 39.328125 C 36.714844 39.863281 36.480469 40.449219 36.296875 41.058594 L 33.023438 41.75 C 32.933594 41.773438 32.851562 41.828125 32.851562 41.921875 L 32.851562 44.082031 C 32.851562 44.175781 32.9375 44.277344 33.023438 44.300781 L 36.210938 45.078125 C 36.382812 45.78125 36.640625 46.453125 36.988281 47.066406 L 35.132812 49.875 C 35.082031 49.957031 35.109375 50.070312 35.179688 50.136719 L 36.6875 51.648438 C 36.75 51.710938 36.867188 51.742188 36.945312 51.695312 L 39.832031 49.921875 C 40.398438 50.25 40.992188 50.523438 41.640625 50.699219 L 42.332031 53.941406 C 42.351562 54.035156 42.410156 54.113281 42.503906 54.113281 L 44.65625 54.113281 C 44.746094 54.113281 44.851562 54.03125 44.871094 53.941406 L 45.648438 50.699219 C 46.316406 50.519531 46.960938 50.222656 47.542969 49.878906 L 50.386719 51.78125 C 50.464844 51.828125 50.578125 51.804688 50.644531 51.734375 L 52.152344 50.222656 C 52.21875 50.15625 52.246094 50.042969 52.195312 49.964844 L 51.164062 48.234375 L 50.816406 48.363281 C 50.769531 48.386719 50.71875 48.363281 50.6875 48.316406 C 50.6875 48.316406 50.039062 47.328125 49.179688 46.070312 C 48.15625 48.082031 46.070312 49.441406 43.664062 49.441406 C 40.25 49.441406 37.460938 46.6875 37.460938 43.257812 C 37.460938 40.738281 38.972656 38.566406 41.125 37.597656 L 41.125 35.996094 C 40.730469 36.136719 40.363281 36.277344 40.003906 36.472656 C 40.003906 36.472656 39.960938 36.472656 39.960938 36.472656 L 37.074219 34.570312 C 37.035156 34.546875 36.988281 34.523438 36.945312 34.527344 Z M 36.945312 34.527344 "/>
<path style=" stroke:none;fill-rule:nonzero;fill:rgb(40%,40%,40%);fill-opacity:1;" d="M 14.121094 15.121094 C 19.878906 45.824219 44.824219 45.824219 50.574219 15.121094 C 50.976562 12.542969 49.207031 12.488281 48.660156 15.121094 C 44.824219 43.09375 19.878906 42.945312 16.039062 15.121094 C 15.6875 12.59375 13.777344 12.699219 14.128906 15.121094 M 14.128906 15.121094 "/>
</g>
</svg>
