
<svg xmlns="http://www.w3.org/2000/svg" xmlns:xlink="http://www.w3.org/1999/xlink" width="64px" height="64px" viewBox="0 0 64 64" version="1.1">
<g id="surface1">
<path style="fill-rule:nonzero;fill:rgb(29.019608%,68.235294%,90.196078%);fill-opacity:1;stroke-width:27.064299;stroke-linecap:butt;stroke-linejoin:miter;stroke:rgb(29.019608%,68.235294%,90.196078%);stroke-opacity:1;stroke-miterlimit:4;" d="M 88.46875 34.34375 L 423.53125 34.34375 C 453.4375 34.34375 477.65625 58.5625 477.65625 88.46875 L 477.65625 423.53125 C 477.65625 453.4375 453.4375 477.65625 423.53125 477.65625 L 88.46875 477.65625 C 58.5625 477.65625 34.34375 453.4375 34.34375 423.53125 L 34.34375 88.46875 C 34.34375 58.5625 58.5625 34.34375 88.46875 34.34375 Z M 88.46875 34.34375 " transform="matrix(0.125,0,0,0.125,0,0)"/>
<path style=" stroke:none;fill-rule:nonzero;fill:rgb(100%,100%,100%);fill-opacity:1;" d="M 56.339844 36.527344 C 56.050781 36.816406 55.734375 37.078125 55.394531 37.308594 C 55.222656 37.421875 55.046875 37.53125 54.867188 37.628906 C 55.410156 37.332031 55.90625 36.960938 56.339844 36.527344 Z M 56.339844 36.527344 "/>
<path style=" stroke:none;fill-rule:nonzero;fill:rgb(100%,100%,100%);fill-opacity:1;" d="M 57.445312 35.050781 C 57.347656 35.234375 57.238281 35.410156 57.125 35.578125 C 56.894531 35.917969 56.632812 36.238281 56.339844 36.527344 C 56.777344 36.09375 57.148438 35.597656 57.445312 35.050781 Z M 57.445312 35.050781 "/>
<path style=" stroke:none;fill-rule:nonzero;fill:rgb(100%,100%,100%);fill-opacity:1;" d="M 57.929688 33.902344 C 57.867188 34.105469 57.792969 34.300781 57.714844 34.492188 C 57.632812 34.683594 57.542969 34.871094 57.445312 35.050781 C 57.640625 34.6875 57.804688 34.304688 57.929688 33.902344 Z M 57.929688 33.902344 "/>
<path style=" stroke:none;fill-rule:nonzero;fill:rgb(100%,100%,100%);fill-opacity:1;" d="M 58.21875 32 C 58.21875 32.222656 58.207031 32.4375 58.183594 32.65625 C 58.160156 32.871094 58.128906 33.082031 58.085938 33.289062 C 58.042969 33.5 57.992188 33.703125 57.929688 33.902344 C 58.117188 33.300781 58.21875 32.664062 58.21875 32 Z M 58.21875 32 "/>
<path style=" stroke:none;fill-rule:nonzero;fill:rgb(52.156863%,81.176471%,89.019608%);fill-opacity:1;" d="M 32 5.78125 L 32 32 L 58.21875 32 L 58.21875 12.183594 C 58.21875 8.648438 55.351562 5.78125 51.816406 5.78125 Z M 32 5.78125 "/>
<path style=" stroke:none;fill-rule:nonzero;fill:rgb(14.901961%,65.882353%,78.039216%);fill-opacity:1;" d="M 32 58.21875 L 32 32 L 5.78125 32 L 5.78125 51.816406 C 5.78125 55.351562 8.648438 58.21875 12.183594 58.21875 Z M 32 58.21875 "/>
<path style=" stroke:none;fill-rule:nonzero;fill:rgb(29.019608%,74.117647%,83.137255%);fill-opacity:1;" d="M 5.78125 32 L 32 32 L 32 5.78125 L 12.183594 5.78125 C 8.648438 5.78125 5.78125 8.648438 5.78125 12.183594 Z M 5.78125 32 "/>
<path style=" stroke:none;fill-rule:nonzero;fill:rgb(95.294118%,72.156863%,36.862745%);fill-opacity:1;" d="M 58.21875 32 L 32 32 L 32 58.21875 L 51.816406 58.21875 C 55.351562 58.21875 58.21875 55.351562 58.21875 51.816406 Z M 58.21875 32 "/>
<path style=" stroke:none;fill-rule:nonzero;fill:rgb(97.254902%,97.254902%,97.254902%);fill-opacity:1;" d="M 47.902344 15.996094 L 47.902344 20.945312 L 40.351562 20.945312 L 39.695312 31.25 C 39.5625 33.035156 39.5 34.589844 39.5 35.894531 C 39.5 39.035156 39.84375 40.953125 40.542969 41.660156 C 41.261719 42.335938 42.113281 42.675781 43.109375 42.675781 C 45.195312 42.675781 46.433594 41.308594 46.824219 38.574219 L 47.996094 38.574219 C 47.277344 44.859375 44.875 48 40.765625 48 C 38.859375 48 37.316406 47.390625 36.144531 46.171875 C 35 44.953125 34.421875 43.140625 34.421875 40.75 C 34.421875 39.164062 34.652344 35.816406 35.109375 30.714844 L 35.984375 20.953125 L 29.082031 20.953125 C 28.628906 29.179688 28.074219 35.171875 27.425781 38.984375 C 26.796875 42.78125 26.09375 45.234375 25.308594 46.34375 C 24.546875 47.449219 23.507812 48.003906 22.1875 48.003906 C 21.1875 48.003906 20.34375 47.699219 19.652344 47.089844 C 18.980469 46.480469 18.636719 45.675781 18.636719 44.683594 C 18.636719 43.734375 19.222656 42.429688 20.394531 40.785156 C 22.109375 38.390625 23.390625 35.90625 24.234375 33.320312 C 25.082031 30.726562 25.722656 26.601562 26.160156 20.953125 L 23.941406 20.953125 C 22.160156 20.953125 20.796875 21.371094 19.84375 22.203125 C 18.90625 23.015625 18.019531 24.191406 17.175781 25.730469 L 16.003906 25.730469 C 16.636719 23.308594 17.445312 21.324219 18.445312 19.761719 C 19.445312 18.203125 20.46875 17.1875 21.507812 16.707031 C 22.574219 16.238281 24.445312 15.996094 27.140625 15.996094 L 47.910156 15.996094 "/>
</g>
</svg>
