<!-- color: #5dac36 -->
<svg xmlns="http://www.w3.org/2000/svg" xmlns:xlink="http://www.w3.org/1999/xlink" width="64px" height="64px" viewBox="0 0 64 64" version="1.1">
<g id="surface1">
<path style=" stroke:none;fill-rule:nonzero;fill:rgb(0%,0%,0%);fill-opacity:0.0196078;" d="M 1.332031 28.667969 L 1.332031 29 C 1.332031 31.953125 3.710938 34.332031 6.667969 34.332031 L 57.332031 34.332031 C 60.289062 34.332031 62.667969 31.953125 62.667969 29 L 62.667969 28.667969 C 62.667969 31.621094 60.289062 34 57.332031 34 L 6.667969 34 C 3.710938 34 1.332031 31.621094 1.332031 28.667969 Z M 1.332031 29.332031 L 1.332031 30 C 1.332031 32.953125 3.710938 35.332031 6.667969 35.332031 L 57.332031 35.332031 C 60.289062 35.332031 62.667969 32.953125 62.667969 30 L 62.667969 29.332031 C 62.667969 32.289062 60.289062 34.667969 57.332031 34.667969 L 6.667969 34.667969 C 3.710938 34.667969 1.332031 32.289062 1.332031 29.332031 Z M 1.332031 29.332031 "/>
<path style=" stroke:none;fill-rule:nonzero;fill:rgb(0%,0%,0%);fill-opacity:0.0509804;" d="M 1.332031 29.167969 L 1.332031 29.5 C 1.332031 32.453125 3.710938 34.832031 6.667969 34.832031 L 57.332031 34.832031 C 60.289062 34.832031 62.667969 32.453125 62.667969 29.5 L 62.667969 29.167969 C 62.667969 32.121094 60.289062 34.5 57.332031 34.5 L 6.667969 34.5 C 3.710938 34.5 1.332031 32.121094 1.332031 29.167969 Z M 1.332031 29.167969 "/>
<path style=" stroke:none;fill-rule:nonzero;fill:rgb(0%,0%,0%);fill-opacity:0.101961;" d="M 1.332031 29.167969 L 1.332031 29.5 C 1.332031 32.453125 3.710938 34.832031 6.667969 34.832031 L 57.332031 34.832031 C 60.289062 34.832031 62.667969 32.453125 62.667969 29.5 L 62.667969 29.167969 C 62.667969 32.121094 60.289062 34.5 57.332031 34.5 L 6.667969 34.5 C 3.710938 34.5 1.332031 32.121094 1.332031 29.167969 Z M 1.332031 29.167969 "/>
<path style="fill-rule:nonzero;fill:rgb(36.078431%,66.666667%,20.784314%);fill-opacity:1;stroke-width:25.912724;stroke-linecap:butt;stroke-linejoin:miter;stroke:rgb(0%,50.196078%,0%);stroke-opacity:1;stroke-miterlimit:4;" d="M 28.96875 443.5625 L 28.96875 68.4375 C 28.96875 46.625 46.625 28.96875 68.4375 28.96875 L 443.5625 28.96875 C 465.375 28.96875 483.03125 46.625 483.03125 68.4375 L 483.03125 443.5625 C 483.03125 465.375 465.375 483.03125 443.5625 483.03125 L 68.4375 483.03125 C 46.625 483.03125 28.96875 465.375 28.96875 443.5625 Z M 28.96875 443.5625 " transform="matrix(0.125,0,0,0.125,0,0)"/>
<path style="fill-rule:nonzero;fill:rgb(100%,100%,100%);fill-opacity:1;stroke-width:4.266667;stroke-linecap:butt;stroke-linejoin:miter;stroke:rgb(100%,100%,100%);stroke-opacity:1;stroke-miterlimit:4;" d="M -152.659818 178.717095 C -152.659818 303.95573 -254.18584 405.481752 -379.424475 405.481752 C -504.66311 405.481752 -606.189132 303.95573 -606.189132 178.717095 C -606.189132 53.47846 -504.66311 -48.047562 -379.424475 -48.047562 C -254.18584 -48.047562 -152.659818 53.47846 -152.659818 178.717095 Z M -152.659818 178.717095 " transform="matrix(0.0953804,0,0,0.0953804,68.189662,14.95389)"/>
<path style="fill-rule:nonzero;fill:rgb(36.078431%,66.666667%,20.784314%);fill-opacity:1;stroke-width:4.266667;stroke-linecap:butt;stroke-linejoin:miter;stroke:rgb(100%,100%,100%);stroke-opacity:1;stroke-miterlimit:4;" d="M -379.424475 -48.047562 C -398.468283 -48.047562 -416.93873 -45.672206 -434.631042 -41.249128 L -446.262099 -35.597417 L -456.623569 -32.935379 L -463.258186 -25.932172 L -470.957618 -18.60133 L -478.943731 -19.911872 L -479.762819 -24.662585 C -489.469018 -19.870917 -498.806627 -14.383024 -507.652783 -8.321769 L -507.652783 -0.499474 L -498.64281 -1.810015 L -500.649577 6.913277 L -497.332268 15.554661 C -497.332268 15.554661 -498.192311 18.953879 -500.199078 19.895831 C -502.205845 20.960646 -508.471872 14.940345 -508.471872 14.940345 L -509.127143 6.913277 L -515.720805 5.602736 L -523.420237 10.230586 C -523.420237 10.230586 -526.573728 13.547895 -524.526007 16.906157 C -522.51924 20.26442 -521.167744 23.950319 -523.215465 24.892271 C -525.181278 26.079949 -535.215112 27.595263 -535.215112 27.595263 L -541.76782 34.967059 L -551.801655 40.291135 L -554.709419 46.270481 L -561.139264 54.051822 L -566.463339 60.481667 C -566.463339 60.481667 -573.179865 65.150471 -572.48364 67.157238 C -571.623597 69.164005 -571.37787 76.822483 -571.37787 76.822483 L -572.074096 81.491287 L -577.070536 77.191073 L -576.415265 70.515501 L -577.766761 68.713506 C -582.10793 76.576756 -586.039555 84.726687 -589.479727 93.122344 L -586.244327 96.808243 L -591.814129 102.828543 L -591.814129 107.497348 L -584.442332 114.131965 L -583.418472 118.514088 L -580.756434 128.138379 L -572.442685 126.131612 L -571.951232 131.865231 L -571.336916 126.623065 L -562.654578 121.913306 L -562.531714 121.380898 L -553.194105 121.380898 L -548.525301 123.756255 L -534.068388 126.704974 L -530.300581 133.626272 L -524.730779 139.237028 C -524.730779 139.237028 -518.833342 138.909393 -517.850435 138.909393 C -516.908484 138.909393 -511.78918 147.591731 -511.78918 147.591731 L -508.881416 154.594938 L -494.465458 162.826777 L -485.373576 162.130552 L -480.336181 168.150853 L -474.315881 171.91866 L -475.380696 179.290457 L -483.407763 190.184334 C -483.407763 190.184334 -484.513533 205.009836 -484.513533 206.443241 C -484.513533 207.794737 -487.830841 217.787617 -487.830841 217.787617 L -498.233265 222.784057 L -503.229705 234.537978 L -510.232912 251.615973 L -518.219025 252.721743 L -520.225792 258.045818 L -515.270307 260.38022 L -516.580848 266.769111 L -524.894597 268.816832 L -530.218672 275.697176 L -528.170951 280.775525 C -528.170951 280.775525 -526.491819 284.870967 -527.188045 285.853873 C -527.802361 286.83678 -532.51212 289.867407 -532.51212 289.867407 L -525.508913 293.553305 L -528.211905 301.334646 L -525.508913 308.706443 L -520.184838 315.136288 L -533.290254 309.484577 L -542.627863 294.822893 C -542.627863 294.822893 -547.296668 286.263418 -546.600443 285.280511 C -545.945172 284.379514 -549.016754 272.584639 -549.016754 272.584639 L -553.972239 252.353153 L -555.118963 216.108486 L -555.774234 208.122373 L -569.821602 194.115959 L -575.145678 179.167593 L -580.224026 166.840311 L -580.469753 154.840664 L -574.449452 146.854551 L -572.442685 136.165446 L -572.156004 133.585317 L -576.00572 130.55469 L -581.329796 134.527269 L -590.667405 125.599204 L -592.223673 117.817863 L -597.138204 115.155826 C -603.035642 135.305403 -606.189132 156.642659 -606.189132 178.717095 C -606.189132 253.213196 -570.231146 319.313639 -514.778854 360.67761 L -508.389963 357.524119 L -513.714038 350.848548 L -504.376429 346.507378 L -499.420944 339.135582 C -499.502853 339.053673 -499.66667 338.889855 -499.66667 338.889855 L -499.257126 338.848901 L -499.420944 339.135582 C -498.724718 339.749898 -494.342595 343.722477 -494.342595 345.524472 C -494.342595 347.490285 -487.339388 361.496698 -487.339388 361.496698 L -487.667023 362.192924 L -479.353275 366.247412 L -455.722571 363.831101 L -421.320853 366.247412 L -418.413089 365.878822 L -406.454397 355.599261 L -361.117847 353.55154 L -334.784151 354.5754 C -334.784151 354.5754 -330.361073 348.514145 -327.00281 348.514145 C -323.726456 348.514145 -310.784857 347.531239 -310.784857 347.531239 L -301.119613 340.896622 L -291.454368 348.882735 L -276.096458 347.899829 C -276.096458 347.899829 -284.696888 358.425116 -282.77203 358.875615 C -280.888126 359.285159 -265.120672 350.848548 -265.120672 350.848548 L -232.43904 344.213931 L -224.084337 343.886295 C -180.140238 302.563279 -152.659818 243.834632 -152.659818 178.717095 L -158.311529 172.328204 L -179.648785 140.342798 L -174.97998 139.646572 L -175.102844 139.851344 L -163.348923 153.530123 L -155.977127 159.550423 L -152.823636 171.140526 C -153.315089 155.946434 -155.280902 141.161886 -158.639164 126.909746 L -161.424065 123.838164 L -164.782328 118.800769 L -165.478554 115.483461 L -169.123498 113.108104 L -170.188313 116.466367 L -173.096077 115.811096 L -174.119938 111.797563 L -173.792302 106.145852 L -174.488527 102.459953 L -177.84679 101.763728 L -177.519155 105.736308 L -181.246008 107.415439 L -182.187959 104.425766 L -182.187959 101.763728 L -187.512035 94.883385 L -189.150212 90.542216 L -189.846437 86.897272 L -191.525569 86.897272 L -195.498148 89.231674 L -198.856411 91.197486 L -201.846084 94.965294 C -201.846084 94.965294 -208.030202 101.763728 -208.521655 101.886592 C -208.972154 102.091364 -211.879918 105.900125 -211.879918 105.900125 L -214.58291 109.258388 L -214.255275 116.630185 L -215.565817 124.82107 L -216.548723 128.220287 L -219.94794 130.227054 L -222.323297 127.31929 L -225.272016 120.316083 L -227.278783 112.944287 L -231.04659 104.261948 L -232.602858 95.251974 L -233.708627 90.255535 L -234.691534 93.613797 L -237.681207 93.613797 L -238.868885 90.624124 L -243.210054 84.644778 L -249.271309 79.320703 L -248.943674 78.911159 L -267.946528 79.320703 L -270.608565 76.290075 L -274.826871 77.313936 L -281.297671 73.628038 L -284.983569 67.935372 L -287.973242 62.283662 L -287.973242 70.966 L -283.263483 75.307169 L -280.396673 79.648338 L -279.086132 83.006601 L -274.704008 85.013368 L -273.065831 82.310376 L -270.403793 80.631244 L -266.390259 85.300049 L -263.52345 88.658312 L -263.728222 94.023342 L -267.496029 100.330323 L -273.884919 104.016222 L -278.553724 109.667932 L -284.942614 111.347064 L -290.594325 116.671139 L -296.942261 110.282249 L -301.611066 102.582817 L -305.952235 94.596704 L -309.924814 87.224907 L -315.289844 77.232027 L -317.992836 71.539362 L -322.620686 72.235587 L -321.63778 77.232027 L -317.255657 84.931459 L -313.938348 91.279395 L -310.989629 96.31679 L -309.310498 104.958173 L -302.307291 110.323203 L -299.317618 116.343504 L -295.672674 122.363805 L -289.652373 124.001982 L -286.6627 121.012308 L -280.314764 121.012308 L -280.970035 128.384105 L -283.713982 133.380545 L -285.352159 139.07321 L -289.693328 143.373425 L -301.037704 157.379839 L -307.426594 167.413673 L -306.075098 179.41332 L -304.068331 188.095658 L -304.068331 197.433268 L -312.709715 205.706062 L -316.395614 213.774084 L -316.764204 221.760197 L -323.685502 228.763403 L -324.381727 235.111339 L -334.702242 251.083566 L -340.353953 251.083566 L -349.732516 252.066472 L -353.418415 255.711416 L -354.360367 248.380574 L -355.056592 242.032637 L -361.076893 234.046524 L -361.404528 229.00913 L -364.353247 217.337119 L -366.400968 215.330352 L -368.73537 203.003069 L -368.407735 196.327498 L -365.418062 189.324291 L -365.745697 181.092452 L -367.752464 168.396579 L -372.093633 163.400139 L -375.410942 157.338884 L -374.182309 153.69394 L -372.830813 148.984181 L -372.830813 143.41438 L -376.516711 140.752342 L -382.168422 140.383752 L -383.765645 137.025489 L -389.130674 136.370218 L -393.430889 138.376985 L -410.140295 138.376985 L -411.164156 142.349564 L -415.792006 141.366658 L -420.46081 137.353124 L -428.446923 127.68788 L -430.781326 121.012308 L -434.794859 114.131965 L -434.139589 107.70212 L -432.091867 102.378045 L -431.764232 85.013368 L -425.129615 76.044349 L -415.792006 68.672552 L -412.106107 58.270128 L -406.085807 52.946052 L -397.075833 52.700326 L -392.447983 48.400111 L -377.786298 49.055382 L -377.417709 45.738073 L -371.397408 45.410438 L -371.397408 55.444272 L -362.059799 60.97312 L -352.72219 66.33815 L -349.077246 61.300755 L -345.718983 58.311082 L -343.056945 61.669345 L -328.395261 64.372337 L -326.347539 59.416852 L -322.00637 60.072123 L -318.361426 60.399758 L -317.00993 52.126964 L -317.337565 47.826749 L -321.351099 47.130524 L -324.340772 49.464926 L -326.019904 46.557162 L -332.654521 48.932519 L -336.299465 44.591349 L -338.306232 39.594909 L -333.678381 38.571049 L -332.36784 36.523328 L -326.019904 33.206019 L -319.344332 33.206019 L -311.685855 34.762287 L -306.361779 33.451746 L -308.696182 28.782941 L -312.668761 26.776174 L -317.337565 22.76264 L -315.003163 18.790061 L -322.00637 18.790061 L -320.368193 22.435005 L -323.030231 24.769407 L -325.364633 23.13123 L -326.347539 19.772967 L -332.408794 18.790061 L -334.006017 26.120903 L -336.668055 31.117343 L -336.381374 36.441419 L -338.019551 35.786148 L -342.72931 34.107016 L -344.736077 36.441419 L -345.678028 40.127317 L -343.998897 46.147618 L -347.029524 47.171478 L -351.002104 43.157945 L -353.008871 41.847403 L -353.008871 34.475606 L -357.022404 29.806802 L -365.049472 21.779734 L -368.73537 22.10737 L -369.718276 24.114136 L -358.3739 34.803242 L -357.022404 37.506234 L -359.070126 37.506234 L -358.046265 41.478813 L -361.404528 43.157945 L -362.756024 38.48914 L -374.428035 24.810362 L -376.762438 26.817129 L -387.123907 28.49626 L -392.734664 35.458512 L -399.123554 46.802888 L -405.512445 49.178245 L -413.498558 44.837076 L -413.498558 38.448186 L -411.491791 30.789708 L -406.782032 26.120903 L -405.47149 29.110576 L -398.509238 27.75908 L -397.444423 27.75908 L -395.437656 25.097043 C -395.437656 25.097043 -396.133881 22.76264 -396.461517 22.76264 C -396.789152 22.76264 -398.099694 20.387284 -398.099694 20.387284 L -400.106461 17.11093 L -403.096134 15.063208 L -401.417002 12.687852 L -398.754964 12.360216 C -398.754964 12.360216 -396.748198 11.868763 -396.092927 11.623036 C -395.355747 11.37731 -392.734664 10.64013 -392.734664 10.64013 L -389.08972 9.698178 L -386.345773 6.954232 L -384.707596 4.947465 C -384.707596 4.947465 -383.397055 2.899744 -383.397055 1.998746 C -383.397055 1.097749 -385.48573 0.114843 -385.731457 -0.990927 C -386.018138 -2.055742 -384.09328 -1.646198 -384.09328 -1.646198 L -379.424475 0.688205 C -379.424475 0.688205 -376.434802 -0.253747 -376.107167 -0.663291 C -375.779531 -1.072836 -375.124261 -2.997694 -375.124261 -2.997694 C -375.124261 -2.997694 -376.516711 -5.414005 -376.434802 -5.987367 C -376.352893 -6.519774 -374.428035 -8.97704 -374.428035 -8.97704 L -371.438362 -6.601683 L -373.117494 -3.939645 L -373.445129 -1.523334 L -371.110727 -1.523334 C -370.783091 -1.523334 -366.810512 -1.318562 -364.762791 -1.523334 C -362.71507 -1.728106 -362.100753 -2.260514 -361.404528 -2.792921 C -360.585439 -3.407238 -359.029171 -3.530101 -359.029171 -3.530101 L -356.367134 -2.506241 L -356.039498 -2.506241 L -352.066919 -5.495914 L -351.370694 -6.028321 C -351.24783 -6.560729 -351.084013 -7.011227 -351.206876 -7.216 C -351.452602 -7.912225 -351.206876 -10.574262 -351.206876 -10.574262 C -351.206876 -10.574262 -348.872474 -13.60489 -347.889567 -13.932525 C -346.742843 -14.301115 -343.220763 -13.318209 -342.565492 -13.60489 C -341.869267 -13.932525 -339.8625 -15.980247 -339.8625 -15.980247 L -339.166275 -18.314649 L -342.114993 -19.99378 L -345.473256 -19.297555 L -349.159155 -19.051829 L -351.165921 -20.608097 L -351.165921 -24.416858 L -350.469696 -27.078896 L -348.135294 -29.740934 L -348.135294 -31.051475 L -350.797332 -33.058242 L -353.131734 -31.46102 L -354.810865 -29.413298 L -357.145268 -26.46458 C -357.145268 -26.46458 -359.192989 -24.826403 -359.192989 -24.457813 C -359.192989 -24.048269 -360.462576 -23.352043 -360.462576 -23.352043 L -361.158801 -19.99378 L -359.520624 -19.297555 C -359.520624 -19.297555 -357.595766 -17.208879 -357.472903 -16.963153 C -357.390994 -16.717426 -358.169128 -15.284021 -358.169128 -15.284021 L -361.158801 -13.277255 C -361.158801 -13.277255 -361.24071 -9.222766 -361.404528 -8.895131 C -361.568346 -8.60845 -365.418062 -6.233093 -365.418062 -6.233093 L -366.482877 -8.895131 L -368.858233 -12.253394 L -370.865 -16.266928 C -370.865 -16.266928 -372.134588 -15.980247 -373.527038 -15.570702 C -374.878534 -15.161158 -375.124261 -13.932525 -375.124261 -13.932525 C -375.124261 -13.932525 -377.622481 -12.581029 -377.868207 -12.581029 C -378.072979 -12.581029 -379.46543 -14.260161 -379.46543 -14.260161 L -380.816926 -17.905105 L -379.83402 -21.591003 L -377.131028 -21.918638 L -370.127821 -29.577116 L -365.418062 -34.286875 L -355.056592 -42.559669 L -345.022757 -44.60739 L -335.685148 -42.928259 L -326.347539 -39.610951 L -319.671968 -36.252688 L -323.071185 -34.901192 L -330.442982 -35.269781 L -331.098253 -32.566789 L -329.419121 -29.904752 L -326.101813 -27.529395 L -314.593619 -33.672559 L -313.897394 -34.204966 L -313.446895 -34.286875 L -313.078305 -34.491647 L -313.324032 -34.286875 L -305.296964 -35.638371 C -305.419827 -35.679326 -305.542691 -35.72028 -305.6246 -35.761234 L -313.364986 -34.450693 L -313.11926 -34.655465 C -312.832579 -34.696419 -310.25245 -35.72028 -307.959002 -36.539369 C -330.402027 -43.993074 -354.442275 -48.047562 -379.424475 -48.047562 Z M -428.856468 -33.426832 L -428.856468 -33.385878 L -416.57014 -33.385878 L -414.194783 -30.396205 L -417.921636 -26.710306 L -423.532392 -25.399765 C -423.532392 -25.399765 -425.375341 -25.35881 -430.207964 -29.044709 Z M -399.246418 -14.383024 L -397.690149 -10.082809 L -393.963297 -6.069276 L -392.898482 0.811068 L -389.990717 4.824602 L -395.314793 7.281867 L -401.335093 8.264774 L -402.891362 6.626597 L -400.47505 2.613063 L -397.813013 -0.0899294 L -398.509238 -3.038648 L -403.546632 -5.454959 C -403.546632 -5.454959 -402.604681 -8.813222 -401.908455 -12.048622 Z M -407.723984 -1.85097 L -405.061946 1.834929 L -406.618214 4.824602 L -410.631748 3.14547 Z M -290.430508 18.093836 C -290.63528 18.093836 -290.840052 18.13479 -291.044824 18.216699 L -291.126733 18.585289 C -292.519183 19.035788 -297.106079 22.803595 -297.106079 22.803595 L -298.457575 28.373397 C -298.457575 28.373397 -297.351806 30.62589 -295.795537 31.322115 C -294.362132 32.141204 -291.126733 36.35951 -291.126733 36.35951 L -288.792331 43.321762 L -283.099665 47.048615 L -278.799451 45.000894 L -282.812984 38.571049 L -285.720749 33.574609 L -288.628513 25.588496 L -289.693328 22.189278 L -287.03129 19.772967 C -287.03129 19.772967 -288.956148 18.13479 -290.430508 18.093836 Z M -375.329033 31.240207 L -373.445129 36.154738 L -373.772765 39.553955 L -376.434802 41.929312 L -379.342567 39.021548 Z M -388.803039 39.144411 L -387.246771 40.946406 L -388.803039 41.192132 Z M -365.909515 44.345623 L -361.568346 48.236293 L -364.558019 50.570696 L -367.957236 45.000894 Z M -580.674525 88.863084 L -571.992187 88.863084 L -564.62039 94.187159 L -563.924165 97.135878 L -568.183425 99.797916 L -571.951232 94.678613 L -578.381077 93.409025 L -583.950879 90.542216 L -580.592616 88.904038 Z M -173.833257 126.623065 L -160.441159 141.899066 L -157.533395 151.031903 C -157.533395 151.031903 -163.267015 150.294723 -164.168012 150.294723 C -165.150918 150.294723 -172.686533 128.015515 -173.833257 126.623065 Z M -212.207554 127.237381 L -210.897012 128.875558 L -210.241741 133.994862 L -213.886685 138.008395 L -215.565817 131.537596 Z M -287.072245 191.740602 L -284.082572 191.986329 L -283.099665 196.696088 L -283.099665 202.675434 L -284.287344 205.665107 L -288.464695 212.013043 L -287.76847 217.337119 L -290.471462 221.678288 L -294.771677 228.353859 L -298.457575 227.329999 L -300.136707 220.900154 L -300.136707 214.879853 L -295.795537 211.112046 L -297.474669 209.555778 L -300.136707 205.78797 L -296.409854 202.880206 L -291.290551 200.463895 C -291.290551 200.463895 -287.277017 197.146587 -287.072245 196.450361 Z M -506.014606 292.816126 L -505.76888 292.85708 L -505.932697 292.938989 L -504.007839 297.525885 L -509.331915 294.822893 L -508.226145 294.495257 L -505.932697 292.938989 Z M -515.311261 294.822893 L -515.106489 294.822893 L -515.188398 295.027665 L -512.853995 299.082153 L -517.5228 300.187922 L -515.188398 295.027665 Z M -496.103635 372.922983 L -496.472225 372.963938 C -493.810187 374.56116 -491.14815 376.117428 -488.404203 377.591788 L -481.646723 377.591788 Z M -496.103635 372.922983 " transform="matrix(0.0953804,0,0,0.0953804,68.189662,14.95389)"/>
</g>
</svg>
