
<svg xmlns="http://www.w3.org/2000/svg" xmlns:xlink="http://www.w3.org/1999/xlink" width="64px" height="64px" viewBox="0 0 64 64" version="1.1">
<g id="surface1">
<path style="fill-rule:nonzero;fill:rgb(92.156863%,94.117647%,94.117647%);fill-opacity:1;stroke-width:24.505194;stroke-linecap:butt;stroke-linejoin:miter;stroke:rgb(27.058824%,27.058824%,27.058824%);stroke-opacity:0.627451;stroke-miterlimit:4;" d="M 83.03125 44.5625 L 428.96875 44.5625 C 447.5625 44.5625 462.625 59.625 462.625 78.21875 L 462.625 433.78125 C 462.625 452.375 447.5625 467.4375 428.96875 467.4375 L 83.03125 467.4375 C 64.4375 467.4375 49.375 452.375 49.375 433.78125 L 49.375 78.21875 C 49.375 59.625 64.4375 44.5625 83.03125 44.5625 Z M 83.03125 44.5625 " transform="matrix(0.125,0,0,0.125,0,0)"/>
<path style=" stroke:none;fill-rule:nonzero;fill:rgb(49.019608%,54.117647%,54.901961%);fill-opacity:1;" d="M 32 17.175781 L 17.175781 32 L 17.175781 35.292969 L 24.585938 35.292969 L 24.585938 46.824219 L 39.414062 46.824219 L 39.414062 35.292969 L 46.824219 35.292969 L 46.824219 32 Z M 32 21.832031 L 42.167969 32 L 36.117188 32 L 36.117188 43.53125 L 27.882812 43.53125 L 27.882812 32 L 21.832031 32 Z M 32 21.832031 "/>
</g>
</svg>
