
<svg xmlns="http://www.w3.org/2000/svg" xmlns:xlink="http://www.w3.org/1999/xlink" width="64px" height="64px" viewBox="0 0 64 64" version="1.1">
<g id="surface1">
<path style="fill-rule:nonzero;fill:rgb(12.941176%,12.941176%,12.941176%);fill-opacity:1;stroke-width:28.448774;stroke-linecap:butt;stroke-linejoin:miter;stroke:rgb(90.196078%,90.196078%,90.196078%);stroke-opacity:1;stroke-miterlimit:4;" d="M 82.044489 27.338977 L 434.294489 27.338977 C 465.700739 27.338977 491.169489 52.807727 491.169489 84.213977 L 491.169489 436.463977 C 491.169489 467.870227 465.700739 493.338977 434.294489 493.338977 L 82.044489 493.338977 C 50.638239 493.338977 25.169489 467.870227 25.169489 436.463977 L 25.169489 84.213977 C 25.169489 52.807727 50.638239 27.338977 82.044489 27.338977 Z M 82.044489 27.338977 " transform="matrix(0.125,0,0,0.125,-0.271186,-0.542372)"/>
<path style=" stroke:none;fill-rule:nonzero;fill:rgb(0%,100%,0%);fill-opacity:1;" d="M 33.847656 47.492188 C 33.417969 46.945312 32.902344 45.175781 29.671875 33.097656 C 26.191406 20.09375 26.4375 20.902344 26.140625 21.46875 C 26.019531 21.703125 25.246094 24.382812 24.425781 27.425781 C 23.578125 30.5625 22.734375 33.109375 22.484375 33.3125 C 22.160156 33.570312 20.378906 33.664062 15.875 33.664062 C 10.460938 33.664062 9.648438 33.605469 9.226562 33.183594 C 8.777344 32.734375 8.785156 32.675781 9.378906 32.191406 C 9.945312 31.738281 10.636719 31.679688 15.644531 31.679688 L 21.273438 31.679688 L 21.597656 30.476562 C 25.578125 15.554688 25.777344 15.011719 26.816406 16.113281 C 27.023438 16.328125 28.167969 20.144531 29.367188 24.589844 C 34.75 44.574219 34.207031 42.6875 34.5 42.394531 C 34.589844 42.308594 35.285156 39.894531 36.054688 37.03125 C 36.820312 34.164062 37.601562 31.535156 37.789062 31.183594 C 38.125 30.546875 38.132812 30.546875 45.726562 30.546875 C 52.945312 30.546875 53.339844 30.574219 53.621094 31.09375 C 53.839844 31.507812 53.804688 31.75 53.46875 32.085938 C 53.085938 32.464844 52.011719 32.53125 46.09375 32.53125 C 42.28125 32.53125 39.164062 32.589844 39.164062 32.660156 C 39.164062 32.996094 35.445312 46.648438 35.199219 47.207031 C 34.894531 47.914062 34.28125 48.039062 33.847656 47.492188 Z M 33.847656 47.492188 "/>
</g>
</svg>
