
<svg xmlns="http://www.w3.org/2000/svg" xmlns:xlink="http://www.w3.org/1999/xlink" width="64px" height="64px" viewBox="0 0 64 64" version="1.1">
<g id="surface1">
<path style="fill-rule:nonzero;fill:rgb(81.960784%,85.098039%,90.196078%);fill-opacity:1;stroke-width:27.954165;stroke-linecap:butt;stroke-linejoin:miter;stroke:rgb(0%,25.882353%,32.941176%);stroke-opacity:1;stroke-miterlimit:4;" d="M 82.9375 27.03125 L 429.0625 27.03125 C 459.9375 27.03125 484.96875 52.0625 484.96875 82.9375 L 484.96875 429.0625 C 484.96875 459.9375 459.9375 484.96875 429.0625 484.96875 L 82.9375 484.96875 C 52.0625 484.96875 27.03125 459.9375 27.03125 429.0625 L 27.03125 82.9375 C 27.03125 52.0625 52.0625 27.03125 82.9375 27.03125 Z M 82.9375 27.03125 " transform="matrix(0.125,0,0,0.125,0,0)"/>
<path style="fill-rule:nonzero;fill:rgb(74.901961%,86.27451%,69.019608%);fill-opacity:1;stroke-width:3.441855;stroke-linecap:butt;stroke-linejoin:miter;stroke:rgb(0%,25.882353%,32.941176%);stroke-opacity:1;stroke-miterlimit:4;" d="M 435.65625 263.59375 C 435.65625 364.625 353.78125 446.5 252.75 446.5 C 151.71875 446.5 69.8125 364.625 69.8125 263.59375 C 69.8125 162.5625 151.71875 80.65625 252.75 80.65625 C 353.78125 80.65625 435.65625 162.5625 435.65625 263.59375 Z M 435.65625 263.59375 " transform="matrix(0.125,0,0,0.125,0,0)"/>
<path style="fill-rule:nonzero;fill:rgb(0%,25.882353%,32.941176%);fill-opacity:1;stroke-width:3.441855;stroke-linecap:butt;stroke-linejoin:miter;stroke:rgb(100%,100%,100%);stroke-opacity:1;stroke-miterlimit:4;" d="M 252.75 80.65625 C 237.375 80.65625 222.46875 82.5625 208.21875 86.125 L 198.8125 90.71875 L 190.5 92.875 L 185.09375 98.5 L 178.90625 104.4375 L 172.46875 103.34375 L 171.78125 99.53125 C 163.96875 103.40625 156.4375 107.8125 149.28125 112.71875 L 149.28125 119 L 156.5625 117.96875 L 154.9375 125 L 157.625 131.96875 C 157.625 131.96875 156.9375 134.71875 155.3125 135.46875 C 153.6875 136.3125 148.65625 131.46875 148.65625 131.46875 L 148.125 125 L 142.8125 123.9375 L 136.59375 127.6875 C 136.59375 127.6875 134.03125 130.375 135.6875 133.0625 C 137.3125 135.78125 138.40625 138.75 136.75 139.5 C 135.1875 140.4375 127.09375 141.6875 127.09375 141.6875 L 121.78125 147.65625 L 113.6875 151.90625 L 111.34375 156.75 L 106.15625 163.03125 L 101.875 168.21875 C 101.875 168.21875 96.46875 171.96875 97 173.59375 C 97.6875 175.21875 97.90625 181.40625 97.90625 181.40625 L 97.34375 185.15625 L 93.28125 181.6875 L 93.84375 176.3125 L 92.75 174.875 C 89.21875 181.21875 86.0625 187.78125 83.3125 194.5625 L 85.90625 197.53125 L 81.4375 202.375 L 81.4375 206.15625 L 87.34375 211.5 L 88.1875 215.03125 L 90.34375 222.78125 L 97.03125 221.15625 L 97.4375 225.78125 L 97.9375 221.5625 L 104.9375 217.78125 L 105.0625 217.34375 L 112.5625 217.34375 L 116.34375 219.28125 L 128 221.65625 L 131.03125 227.21875 L 135.53125 231.71875 C 135.53125 231.71875 140.28125 231.5 141.09375 231.5 C 141.84375 231.5 145.96875 238.5 145.96875 238.5 L 148.3125 244.125 L 159.9375 250.75 L 167.28125 250.21875 L 171.34375 255.0625 L 176.21875 258.125 L 175.34375 264.0625 L 168.875 272.84375 C 168.875 272.84375 167.96875 284.8125 167.96875 285.9375 C 167.96875 287.0625 165.28125 295.09375 165.28125 295.09375 L 156.90625 299.125 L 152.875 308.625 L 147.21875 322.375 L 140.78125 323.28125 L 139.15625 327.59375 L 143.15625 329.46875 L 142.125 334.625 L 135.40625 336.28125 L 131.09375 341.8125 L 132.75 345.9375 C 132.75 345.9375 134.125 349.21875 133.5625 350.03125 C 133.03125 350.8125 129.25 353.25 129.25 353.25 L 134.90625 356.25 L 132.71875 362.5 L 134.90625 368.4375 L 139.1875 373.625 L 128.625 369.09375 L 121.09375 357.25 C 121.09375 357.25 117.34375 350.34375 117.875 349.5625 C 118.40625 348.8125 115.9375 339.3125 115.9375 339.3125 L 111.9375 323 L 111.03125 293.78125 L 110.46875 287.3125 L 99.15625 276.03125 L 94.84375 263.9375 L 90.75 254 L 90.5625 244.3125 L 95.4375 237.875 L 97.03125 229.28125 L 97.28125 227.1875 L 94.1875 224.71875 L 89.875 227.96875 L 82.34375 220.71875 L 81.0625 214.4375 L 77.125 212.3125 C 72.375 228.59375 69.8125 245.78125 69.8125 263.59375 C 69.8125 323.6875 98.8125 377.03125 143.5625 410.375 L 148.71875 407.8125 L 144.4375 402.4375 L 151.96875 398.9375 L 155.9375 393 C 155.90625 392.9375 155.71875 392.8125 155.71875 392.8125 L 156.09375 392.75 L 155.9375 393 C 156.5 393.5 160.03125 396.71875 160.03125 398.15625 C 160.03125 399.71875 165.6875 411.0625 165.6875 411.0625 L 165.40625 411.625 L 172.125 414.875 L 191.1875 412.9375 L 218.96875 414.875 L 221.3125 414.59375 L 230.9375 406.28125 L 267.53125 404.625 L 288.78125 405.4375 C 288.78125 405.4375 292.34375 400.5625 295.0625 400.5625 C 297.6875 400.5625 308.125 399.75 308.125 399.75 L 315.9375 394.40625 L 323.71875 400.875 L 336.09375 400.0625 C 336.09375 400.0625 329.15625 408.5625 330.71875 408.9375 C 332.21875 409.28125 344.96875 402.4375 344.96875 402.4375 L 371.3125 397.09375 L 378.03125 396.84375 C 413.5 363.5 435.65625 316.125 435.65625 263.59375 L 431.09375 258.4375 L 413.875 232.625 L 417.6875 232.0625 L 417.5625 232.25 L 427.0625 243.25 L 432.96875 248.125 L 435.5625 257.46875 C 435.15625 245.25 433.5625 233.3125 430.875 221.78125 L 428.59375 219.34375 L 425.90625 215.25 L 425.34375 212.5625 L 422.375 210.6875 L 421.53125 213.375 L 419.1875 212.84375 L 418.34375 209.59375 L 418.625 205.03125 L 418.0625 202.0625 L 415.34375 201.5 L 415.625 204.75 L 412.625 206.09375 L 411.84375 203.65625 L 411.84375 201.5 L 407.5625 195.96875 L 406.25 192.46875 L 405.65625 189.5 L 404.3125 189.5 L 401.09375 191.40625 L 398.40625 193 L 396 196.03125 C 396 196.03125 391.03125 201.5 390.625 201.625 C 390.25 201.78125 387.90625 204.84375 387.90625 204.84375 L 385.71875 207.5625 L 385.96875 213.5 L 384.9375 220.125 L 384.125 222.84375 L 381.40625 224.46875 L 379.5 222.125 L 377.09375 216.46875 L 375.5 210.53125 L 372.4375 203.53125 L 371.1875 196.28125 L 370.3125 192.21875 L 369.5 194.9375 L 367.0625 194.9375 L 366.15625 192.53125 L 362.625 187.6875 L 357.75 183.40625 L 358 183.09375 L 342.6875 183.40625 L 340.53125 180.96875 L 337.09375 181.78125 L 331.90625 178.84375 L 328.9375 174.21875 L 326.53125 169.65625 L 326.53125 176.6875 L 330.3125 180.15625 L 332.65625 183.65625 L 333.6875 186.375 L 337.21875 188 L 338.5625 185.8125 L 340.71875 184.46875 L 343.9375 188.25 L 346.25 190.96875 L 346.09375 195.25 L 343.03125 200.375 L 337.875 203.34375 L 334.125 207.90625 L 328.96875 209.25 L 324.40625 213.5625 L 319.28125 208.40625 L 315.53125 202.1875 L 312.03125 195.71875 L 308.8125 189.78125 L 304.5 181.71875 L 302.3125 177.15625 L 298.59375 177.71875 L 299.34375 181.75 L 302.875 187.9375 L 305.5625 193.03125 L 307.96875 197.125 L 309.3125 204.09375 L 314.9375 208.40625 L 317.375 213.28125 L 320.3125 218.125 L 325.15625 219.46875 L 327.59375 217.0625 L 332.6875 217.0625 L 332.15625 223 L 329.96875 227.03125 L 328.625 231.59375 L 325.125 235.09375 L 316 246.40625 L 310.84375 254.5 L 311.90625 264.15625 L 313.53125 271.15625 L 313.53125 278.6875 L 306.5625 285.375 L 303.5625 291.875 L 303.3125 298.3125 L 297.6875 303.96875 L 297.125 309.0625 L 288.84375 321.96875 L 284.25 321.96875 L 276.6875 322.75 L 273.75 325.71875 L 272.96875 319.78125 L 272.40625 314.6875 L 267.5625 308.21875 L 267.28125 304.15625 L 264.90625 294.75 L 263.25 293.125 L 261.375 283.1875 L 261.625 277.8125 L 264.0625 272.15625 L 263.78125 265.5 L 262.15625 255.25 L 258.65625 251.21875 L 256 246.34375 L 257 243.40625 L 258.0625 239.59375 L 258.0625 235.09375 L 255.09375 232.9375 L 250.53125 232.6875 L 249.21875 229.96875 L 244.9375 229.4375 L 241.4375 231.03125 L 227.96875 231.03125 L 227.15625 234.28125 L 223.40625 233.46875 L 219.65625 230.21875 L 213.1875 222.4375 L 211.3125 217.0625 L 208.09375 211.5 L 208.625 206.3125 L 210.25 202 L 210.5 188.03125 L 215.875 180.75 L 223.40625 174.84375 L 226.375 166.4375 L 231.25 162.125 L 238.5 161.9375 L 242.25 158.46875 L 254.0625 159 L 254.375 156.3125 L 259.21875 156.0625 L 259.21875 164.15625 L 266.75 168.625 L 274.28125 172.9375 L 277.25 168.875 L 279.9375 166.46875 L 282.09375 169.1875 L 293.90625 171.34375 L 295.5625 167.34375 L 299.0625 167.875 L 302 168.15625 L 303.09375 161.46875 L 302.8125 158 L 299.59375 157.4375 L 297.1875 159.3125 L 295.84375 157 L 290.5 158.875 L 287.53125 155.375 L 285.90625 151.34375 L 289.65625 150.53125 L 290.71875 148.90625 L 295.84375 146.21875 L 301.21875 146.21875 L 307.40625 147.46875 L 311.6875 146.40625 L 309.8125 142.65625 L 306.59375 141.03125 L 302.8125 137.8125 L 304.71875 134.5625 L 299.0625 134.5625 L 300.40625 137.53125 L 298.25 139.40625 L 296.375 138.0625 L 295.5625 135.375 L 290.6875 134.5625 L 289.375 140.5 L 287.21875 144.53125 L 287.46875 148.84375 L 286.15625 148.28125 L 282.34375 146.9375 L 280.75 148.84375 L 279.96875 151.78125 L 281.3125 156.65625 L 278.875 157.46875 L 275.65625 154.25 L 274.03125 153.15625 L 274.03125 147.25 L 270.8125 143.46875 L 264.34375 137 L 261.375 137.28125 L 260.5625 138.875 L 269.71875 147.5 L 270.8125 149.6875 L 269.15625 149.6875 L 269.96875 152.90625 L 267.28125 154.25 L 266.21875 150.46875 L 256.78125 139.4375 L 254.90625 141.0625 L 246.53125 142.40625 L 242 148.03125 L 236.84375 157.1875 L 231.71875 159.09375 L 225.25 155.59375 L 225.25 150.4375 L 226.875 144.25 L 230.65625 140.5 L 231.75 142.90625 L 237.34375 141.8125 L 238.1875 141.8125 L 239.8125 139.6875 C 239.8125 139.6875 239.28125 137.78125 239 137.78125 C 238.75 137.78125 237.65625 135.875 237.65625 135.875 L 236.0625 133.21875 L 233.65625 131.5625 L 235 129.65625 L 237.15625 129.375 C 237.15625 129.375 238.78125 129 239.3125 128.8125 C 239.875 128.625 242 128 242 128 L 244.96875 127.25 L 247.15625 125.0625 L 248.5 123.4375 C 248.5 123.4375 249.53125 121.75 249.53125 121.03125 C 249.53125 120.3125 247.84375 119.5 247.65625 118.625 C 247.4375 117.75 249 118.09375 249 118.09375 L 252.75 119.96875 C 252.75 119.96875 255.15625 119.21875 255.40625 118.90625 C 255.6875 118.5625 256.21875 117 256.21875 117 C 256.21875 117 255.09375 115.0625 255.15625 114.59375 C 255.21875 114.15625 256.78125 112.1875 256.78125 112.1875 L 259.1875 114.09375 L 257.84375 116.25 L 257.5625 118.1875 L 259.46875 118.1875 C 259.71875 118.1875 262.9375 118.375 264.5625 118.1875 C 266.21875 118.03125 266.71875 117.59375 267.28125 117.15625 C 267.9375 116.65625 269.1875 116.59375 269.1875 116.59375 L 271.34375 117.40625 L 271.59375 117.40625 L 274.84375 114.96875 L 275.40625 114.5625 C 275.46875 114.125 275.59375 113.78125 275.5 113.59375 C 275.3125 113.0625 275.5 110.90625 275.5 110.90625 C 275.5 110.90625 277.375 108.4375 278.1875 108.1875 C 279.09375 107.875 281.96875 108.6875 282.5 108.4375 C 283.03125 108.1875 284.65625 106.53125 284.65625 106.53125 L 285.21875 104.65625 L 282.84375 103.3125 L 280.125 103.875 L 277.1875 104.03125 L 275.53125 102.8125 L 275.53125 99.75 L 276.09375 97.59375 L 278 95.4375 L 278 94.375 L 275.84375 92.75 L 273.9375 94.0625 L 272.59375 95.6875 L 270.71875 98.09375 C 270.71875 98.09375 269.09375 99.40625 269.09375 99.6875 C 269.09375 100.03125 268.03125 100.59375 268.03125 100.59375 L 267.5 103.28125 L 268.8125 103.875 C 268.8125 103.875 270.34375 105.5625 270.4375 105.75 C 270.53125 105.9375 269.875 107.09375 269.875 107.09375 L 267.5 108.71875 C 267.5 108.71875 267.40625 111.96875 267.28125 112.25 C 267.15625 112.46875 264.03125 114.375 264.03125 114.375 L 263.1875 112.25 L 261.28125 109.53125 L 259.65625 106.3125 C 259.65625 106.3125 258.625 106.53125 257.5 106.84375 C 256.40625 107.1875 256.1875 108.1875 256.1875 108.1875 C 256.1875 108.1875 254.1875 109.28125 254 109.28125 C 253.84375 109.28125 252.71875 107.9375 252.71875 107.9375 L 251.625 104.96875 L 252.40625 102 L 254.59375 101.75 L 260.25 95.5625 L 264.03125 91.78125 L 272.40625 85.09375 L 280.5 83.4375 L 288.03125 84.78125 L 295.5625 87.46875 L 300.9375 90.1875 L 298.21875 91.28125 L 292.28125 90.96875 L 291.71875 93.15625 L 293.0625 95.3125 L 295.75 97.21875 L 305.03125 92.25 L 305.625 91.8125 L 305.96875 91.78125 L 306.25 91.625 L 306.0625 91.75 L 312.53125 90.6875 C 312.4375 90.65625 312.34375 90.625 312.28125 90.59375 L 306.03125 91.65625 L 306.25 91.46875 C 306.46875 91.4375 308.53125 90.625 310.40625 89.96875 C 292.28125 83.9375 272.90625 80.65625 252.75 80.65625 Z M 212.84375 92.46875 L 212.84375 92.5 L 222.78125 92.5 L 224.6875 94.90625 L 221.6875 97.875 L 217.15625 98.9375 C 217.15625 98.9375 215.6875 98.96875 211.78125 95.96875 Z M 236.75 107.8125 L 238 111.3125 L 241.03125 114.53125 L 241.875 120.09375 L 244.21875 123.3125 L 239.90625 125.28125 L 235.0625 126.09375 L 233.8125 124.75 L 235.75 121.53125 L 237.90625 119.34375 L 237.375 116.96875 L 233.28125 115.03125 C 233.28125 115.03125 234.03125 112.3125 234.59375 109.6875 Z M 229.9375 117.9375 L 232.09375 120.90625 L 230.8125 123.3125 L 227.59375 121.96875 Z M 324.53125 134.03125 C 324.375 134.03125 324.21875 134.0625 324.0625 134.125 L 324 134.40625 C 322.84375 134.78125 319.15625 137.8125 319.15625 137.8125 L 318.0625 142.3125 C 318.0625 142.3125 318.9375 144.125 320.21875 144.6875 C 321.375 145.34375 324 148.75 324 148.75 L 325.875 154.375 L 330.4375 157.375 L 333.9375 155.71875 L 330.6875 150.53125 L 328.3125 146.5 L 325.96875 140.0625 L 325.125 137.34375 L 327.28125 135.375 C 327.28125 135.375 325.75 134.03125 324.53125 134.03125 Z M 256.0625 144.625 L 257.5625 148.59375 L 257.3125 151.3125 L 255.15625 153.25 L 252.8125 150.90625 Z M 245.15625 151.03125 L 246.4375 152.46875 L 245.15625 152.65625 Z M 263.65625 155.1875 L 267.15625 158.34375 L 264.71875 160.21875 L 262 155.71875 Z M 90.40625 191.125 L 97.40625 191.125 L 103.34375 195.40625 L 103.90625 197.78125 L 100.46875 199.90625 L 97.4375 195.78125 L 92.25 194.78125 L 87.75 192.46875 L 90.46875 191.15625 Z M 418.59375 221.59375 L 429.40625 233.875 L 431.71875 241.25 C 431.71875 241.25 427.125 240.6875 426.375 240.6875 C 425.59375 240.6875 419.53125 222.6875 418.59375 221.59375 Z M 387.65625 222.0625 L 388.6875 223.40625 L 389.25 227.53125 L 386.28125 230.75 L 384.9375 225.5625 Z M 327.25 274.125 L 329.65625 274.28125 L 330.4375 278.09375 L 330.4375 282.9375 L 329.5 285.34375 L 326.125 290.46875 L 326.6875 294.75 L 324.5 298.25 L 321.03125 303.625 L 318.0625 302.8125 L 316.71875 297.625 L 316.71875 292.78125 L 320.21875 289.75 L 318.875 288.46875 L 316.71875 285.4375 L 319.71875 283.09375 L 323.84375 281.125 C 323.84375 281.125 327.0625 278.4375 327.25 277.90625 Z M 150.625 355.625 L 150.8125 355.65625 L 150.6875 355.75 L 152.25 359.40625 L 147.9375 357.28125 L 148.84375 357 L 150.6875 355.75 Z M 143.15625 357.28125 L 143.28125 357.28125 L 143.21875 357.40625 L 145.09375 360.6875 L 141.34375 361.5625 L 143.21875 357.40625 Z M 158.625 420.25 L 158.3125 420.28125 C 160.46875 421.5625 162.625 422.8125 164.8125 424.03125 L 170.28125 424.03125 Z M 158.625 420.25 " transform="matrix(0.125,0,0,0.125,0,0)"/>
</g>
</svg>
