
<svg xmlns="http://www.w3.org/2000/svg" xmlns:xlink="http://www.w3.org/1999/xlink" width="64px" height="64px" viewBox="0 0 64 64" version="1.1">
<g id="surface1">
<path style="fill-rule:nonzero;fill:rgb(100%,100%,100%);fill-opacity:1;stroke-width:28.808744;stroke-linecap:butt;stroke-linejoin:miter;stroke:rgb(0%,80%,100%);stroke-opacity:1;stroke-miterlimit:4;" d="M 77.65625 20.03125 L 434.34375 20.03125 C 466.15625 20.03125 491.96875 45.84375 491.96875 77.65625 L 491.96875 434.34375 C 491.96875 466.15625 466.15625 491.96875 434.34375 491.96875 L 77.65625 491.96875 C 45.84375 491.96875 20.03125 466.15625 20.03125 434.34375 L 20.03125 77.65625 C 20.03125 45.84375 45.84375 20.03125 77.65625 20.03125 Z M 77.65625 20.03125 " transform="matrix(0.125,0,0,0.125,0,0)"/>
<path style="fill-rule:nonzero;fill:rgb(0%,80%,100%);fill-opacity:1;stroke-width:2.441739;stroke-linecap:butt;stroke-linejoin:miter;stroke:rgb(100%,100%,100%);stroke-opacity:1;stroke-miterlimit:4;" d="M -247.714699 112.805254 C -247.714699 184.484179 -305.822899 242.592379 -377.501824 242.592379 C -449.157979 242.592379 -507.266179 184.484179 -507.266179 112.805254 C -507.266179 41.149099 -449.157979 -16.959101 -377.501824 -16.959101 C -305.822899 -16.959101 -247.714699 41.149099 -247.714699 112.805254 Z M -247.714699 112.805254 " transform="matrix(0.171555,0,0,0.171555,96.086529,15.632074)"/>
<path style="fill-rule:nonzero;fill:rgb(7.843137%,25.882353%,30.980392%);fill-opacity:1;stroke-width:2.441739;stroke-linecap:butt;stroke-linejoin:miter;stroke:rgb(100%,100%,100%);stroke-opacity:1;stroke-miterlimit:4;" d="M -377.501824 -16.959101 C -388.385727 -16.959101 -398.973624 -15.615691 -409.083358 -13.065488 L -415.754871 -9.832194 L -421.652216 -8.306626 L -425.477521 -4.299164 L -429.872067 -0.109545 L -434.448771 -0.860944 L -434.926934 -3.570535 C -440.482734 -0.838174 -445.810837 2.30404 -450.888474 5.7878 L -450.888474 10.250656 L -445.719758 9.499256 L -446.881012 14.485814 L -444.968359 19.449603 C -444.968359 19.449603 -445.469292 21.385025 -446.607776 21.931497 C -447.746259 22.523508 -451.343867 19.085288 -451.343867 19.085288 L -451.708182 14.485814 L -455.487947 13.757185 L -459.905264 16.398467 C -459.905264 16.398467 -461.704068 18.311119 -460.542814 20.201002 C -459.381561 22.136424 -458.607392 24.231234 -459.768645 24.777706 C -460.907129 25.460796 -466.645086 26.348813 -466.645086 26.348813 L -470.402082 30.561202 L -476.140039 33.589568 L -477.802225 37.027789 L -481.468142 41.467875 L -484.519278 45.156561 C -484.519278 45.156561 -488.367352 47.820613 -487.980268 48.959096 C -487.479335 50.09758 -487.342717 54.492126 -487.342717 54.492126 L -487.752571 57.178948 L -490.59878 54.719823 L -490.234465 50.894518 L -490.985865 49.869883 C -493.490528 54.378278 -495.721956 59.023291 -497.680148 63.827692 L -495.858574 65.945271 L -499.023558 69.383491 L -499.023558 72.070313 L -494.833939 75.850078 L -494.219158 78.354742 L -492.69359 83.865002 L -487.957498 82.726519 L -487.661493 85.982582 L -487.319947 82.999755 L -482.356159 80.312933 L -482.265081 80.016928 L -476.936977 80.016928 L -474.250156 81.360338 L -465.984766 83.068064 L -463.844417 87.007217 L -460.633893 90.21774 C -460.633893 90.21774 -457.286751 90.035583 -456.69474 90.035583 C -456.171037 90.035583 -453.25652 94.999371 -453.25652 94.999371 L -451.594334 99.006833 L -443.328943 103.720155 L -438.137458 103.333071 L -435.24571 106.771291 L -431.78472 108.93441 L -432.399501 113.146799 L -436.998974 119.385689 C -436.998974 119.385689 -437.636525 127.856007 -437.636525 128.675715 C -437.636525 129.449884 -439.549178 135.165071 -439.549178 135.165071 L -445.469292 138.03405 L -448.338271 144.773872 L -452.345733 154.519291 L -456.922437 155.156842 L -458.06092 158.207978 L -455.237481 159.551389 L -455.96611 163.194536 L -460.747741 164.378559 L -463.798877 168.317712 L -462.637624 171.20946 C -462.637624 171.20946 -461.658528 173.554736 -462.045613 174.123978 C -462.409927 174.67045 -465.096749 176.423715 -465.096749 176.423715 L -461.089286 178.541294 L -462.660394 182.98138 L -461.089286 187.193769 L -458.03815 190.882456 L -465.529372 187.649163 L -470.880245 179.269924 C -470.880245 179.269924 -473.544296 174.351675 -473.157212 173.805203 C -472.792897 173.2815 -474.546162 166.518908 -474.546162 166.518908 L -477.392371 154.974685 L -478.029922 134.231515 L -478.417006 129.632041 L -486.4547 121.617117 L -489.505836 113.07849 L -492.420354 106.019892 L -492.556972 99.143451 L -489.095982 94.566748 L -487.957498 88.464476 L -487.775341 86.984447 L -489.983999 85.253952 L -493.035135 87.530919 L -498.386008 82.407743 L -499.274025 77.944888 L -502.074694 76.442089 C -505.444606 87.986313 -507.266179 100.190856 -507.266179 112.805254 C -507.266179 155.452848 -486.705166 193.273272 -454.941475 216.93096 L -451.275558 215.132156 L -454.326694 211.306851 L -448.998591 208.847727 L -446.175152 204.612568 C -446.197922 204.589798 -446.31177 204.47595 -446.31177 204.47595 L -446.061304 204.45318 L -446.175152 204.612568 C -445.765298 204.954113 -443.260634 207.25385 -443.260634 208.255715 C -443.260634 209.394199 -439.253172 217.431893 -439.253172 217.431893 L -439.458099 217.818977 L -434.676468 220.141483 L -421.151283 218.752533 L -401.455518 220.141483 L -399.793332 219.936556 L -392.962431 214.039212 L -367.005006 212.877958 L -351.931483 213.4472 C -351.931483 213.4472 -349.40405 209.98621 -347.491397 209.98621 C -345.624284 209.98621 -338.201372 209.416968 -338.201372 209.416968 L -332.668342 205.614433 L -327.135312 210.191137 L -318.368988 209.621895 C -318.368988 209.621895 -323.287237 215.655858 -322.171523 215.929094 C -321.101349 216.156791 -312.061789 211.306851 -312.061789 211.306851 L -293.367889 207.527086 L -288.609028 207.344928 C -263.448542 183.68724 -247.714699 150.079206 -247.714699 112.805254 L -250.970762 109.162107 L -263.175306 90.855291 L -260.488484 90.445437 L -260.579563 90.559285 L -253.816971 98.392052 L -249.627351 101.853042 L -247.805778 108.479017 C -248.079014 99.803772 -249.217497 91.333454 -251.13015 83.159142 L -252.724027 81.405878 L -254.636679 78.514129 L -255.046533 76.624247 L -257.141343 75.280836 L -257.756124 77.193488 L -259.41831 76.806404 L -260.010321 74.506667 L -259.828164 71.273374 L -260.215248 69.178564 L -262.127901 68.76871 L -261.945743 71.068447 L -264.063323 72.002003 L -264.609795 70.294278 L -264.609795 68.76871 L -267.660931 64.829557 L -268.594487 62.347663 L -269.004341 60.252853 L -269.960668 60.252853 L -272.237635 61.596264 L -274.150287 62.734747 L -275.880782 64.897866 C -275.880782 64.897866 -279.410081 68.76871 -279.683317 68.837019 C -279.956553 68.973637 -281.618739 71.136756 -281.618739 71.136756 L -283.167077 73.049408 L -282.984919 77.284567 L -283.713549 81.975119 L -284.282791 83.910541 L -286.218213 85.049025 L -287.584393 83.386839 L -289.269349 79.379377 L -290.407832 75.166988 L -292.593721 70.203199 L -293.458968 65.057254 L -294.096519 62.188275 L -294.665761 64.100928 L -296.373486 64.100928 L -297.056576 62.415972 L -299.53847 58.977752 L -302.99946 55.926616 L -302.817303 55.698919 L -313.678436 55.926616 L -315.204004 54.196121 L -317.640359 54.788132 L -321.329045 52.670553 L -323.446625 49.41449 L -325.15435 46.181197 L -325.15435 51.144985 L -322.467529 53.626879 L -320.805343 56.108773 L -320.076714 58.044195 L -317.57205 59.182679 L -316.615724 57.634341 L -315.090156 56.678015 L -312.790419 59.364836 L -311.151002 61.277488 L -311.264851 64.328624 L -313.450739 67.971772 L -317.093887 70.066581 L -319.757938 73.299875 L -323.423855 74.256201 L -326.657148 77.307337 L -330.277526 73.664189 L -332.964347 69.246873 L -335.446241 64.670169 L -337.723209 60.45778 L -340.774345 54.719823 L -342.322682 51.48653 L -344.986734 51.896384 L -344.417492 54.742593 L -341.935598 59.137139 L -340.022945 62.757517 L -338.31522 65.649265 L -337.381664 70.613054 L -333.374201 73.664189 L -331.643706 77.125179 L -329.548897 80.5634 L -326.110676 81.519726 L -324.402951 79.789231 L -320.782573 79.789231 L -321.146888 84.00162 L -322.717995 86.870599 L -323.651552 90.126662 L -326.133446 92.585786 L -332.622802 100.60071 L -336.288719 106.361437 L -335.514551 113.215108 L -334.376067 118.178896 L -334.376067 123.529769 L -339.317086 128.265861 L -341.434665 132.865334 L -341.616822 137.442038 L -345.601515 141.4495 L -346.011369 145.069878 L -351.885944 154.246055 L -355.142007 154.246055 L -360.49288 154.792527 L -362.610459 156.887337 L -363.156931 152.674948 L -363.544016 149.05457 L -366.982236 144.477866 L -367.187163 141.586118 L -368.872119 134.914605 L -370.033372 133.776121 L -371.376782 126.717523 L -371.171855 122.892218 L -369.46413 118.884756 L -369.669057 114.171434 L -370.807541 106.907909 L -373.312204 104.038931 L -375.202087 100.577941 L -374.473458 98.483131 L -373.722059 95.79631 L -373.722059 92.608556 L -375.816868 91.082988 L -379.050162 90.878061 L -379.983718 88.965408 L -383.034854 88.578324 L -385.516748 89.716808 L -395.08001 89.716808 L -395.649252 92.016544 L -398.290534 91.424533 L -400.977355 89.147566 L -405.554059 83.614536 L -406.897469 79.789231 L -409.174436 75.872848 L -408.787352 72.161391 L -407.648868 69.110255 L -407.466711 59.205448 L -403.641406 54.036733 L -398.290534 49.847114 L -396.195724 43.88146 L -392.734734 40.830324 L -387.588788 40.693706 L -384.947506 38.234581 L -376.545498 38.621666 L -376.340571 36.709013 L -372.90235 36.526856 L -372.90235 42.264813 L -367.551478 45.429797 L -362.223375 48.480933 L -360.105795 45.634724 L -358.215913 43.904229 L -356.690345 45.839651 L -348.288336 47.365219 L -347.127083 44.519011 L -344.645189 44.906095 L -342.550379 45.111022 L -341.77621 40.352161 L -341.958367 37.915806 L -344.258104 37.505952 L -345.96583 38.849362 L -346.922156 37.187176 L -350.724691 38.530587 L -352.819501 36.048693 L -353.957984 33.179714 L -351.316702 32.610473 L -350.542533 31.449219 L -346.922156 29.536567 L -343.119621 29.536567 L -338.725074 30.424584 L -335.673938 29.673185 L -336.994579 27.009133 L -339.294316 25.87065 L -341.958367 23.570913 L -340.637726 21.293946 L -344.645189 21.293946 L -343.688862 23.388756 L -345.21443 24.709397 L -346.535071 23.77584 L -347.127083 21.863188 L -350.565303 21.293946 L -351.49886 25.483566 L -353.024428 28.352544 L -352.86504 31.40368 L -353.798596 31.016596 L -356.485418 30.060269 L -357.623901 31.40368 L -358.170373 33.49849 L -357.236817 36.95948 L -358.944542 37.528722 L -361.221509 35.228985 L -362.382762 34.477586 L -362.382762 30.265196 L -364.659729 27.578375 L -369.281973 23.001671 L -371.376782 23.206598 L -371.946024 24.345082 L -365.433898 30.447354 L -364.682499 31.995691 L -365.843752 31.995691 L -365.274511 34.295428 L -367.187163 35.228985 L -367.938562 32.564933 L -374.610076 24.754936 L -375.953486 25.89342 L -381.89637 26.849746 L -385.106894 30.834438 L -388.772811 37.323794 L -392.415958 38.667205 L -396.992662 36.185311 L -396.992662 32.542164 L -395.854179 28.147617 L -393.144588 25.483566 L -392.393189 27.191291 L -388.408496 26.439892 L -387.816485 26.439892 L -386.655232 24.914324 C -386.655232 24.914324 -387.042316 23.570913 -387.247243 23.570913 C -387.429401 23.570913 -388.1808 22.204733 -388.1808 22.204733 L -389.342053 20.31485 L -391.027009 19.153597 L -390.070682 17.787417 L -388.545114 17.605259 C -388.545114 17.605259 -387.406631 17.332023 -387.019546 17.195405 C -386.609692 17.058787 -385.106894 16.626163 -385.106894 16.626163 L -383.012084 16.079691 L -381.463747 14.531354 L -380.507421 13.370101 C -380.507421 13.370101 -379.778791 12.186078 -379.778791 11.685145 C -379.778791 11.161442 -380.962814 10.592201 -381.099432 9.97742 C -381.25882 9.339869 -380.165875 9.590335 -380.165875 9.590335 L -377.479054 10.933746 C -377.479054 10.933746 -375.794099 10.410043 -375.589172 10.159577 C -375.407014 9.93188 -375.01993 8.816166 -375.01993 8.816166 C -375.01993 8.816166 -375.839638 7.449986 -375.794099 7.108441 C -375.72579 6.789666 -374.632845 5.400716 -374.632845 5.400716 L -372.92512 6.766896 L -373.881446 8.292464 L -374.063604 9.658644 L -372.720193 9.658644 C -372.538036 9.658644 -370.261069 9.795262 -369.099815 9.658644 C -367.938562 9.544796 -367.574247 9.24879 -367.187163 8.930015 C -366.709 8.5657 -365.820983 8.520161 -365.820983 8.520161 L -364.295415 9.089402 L -364.113257 9.089402 L -361.83629 7.381677 L -361.426436 7.085671 C -361.380897 6.789666 -361.289818 6.51643 -361.358127 6.402581 C -361.494745 6.015497 -361.358127 4.489929 -361.358127 4.489929 C -361.358127 4.489929 -360.014717 2.759434 -359.445475 2.554507 C -358.807924 2.34958 -356.781423 2.918821 -356.394339 2.759434 C -356.007254 2.554507 -354.868771 1.393254 -354.868771 1.393254 L -354.458917 0.0498429 L -356.143872 -0.906483 L -358.056525 -0.496629 L -360.151335 -0.382781 L -361.335357 -1.248028 L -361.335357 -3.433917 L -360.925503 -4.959485 L -359.582093 -6.485053 L -359.582093 -7.236452 L -361.107661 -8.397705 L -362.451071 -7.464149 L -363.407398 -6.302895 L -364.728038 -4.59517 C -364.728038 -4.59517 -365.912061 -3.661613 -365.912061 -3.456686 C -365.912061 -3.22899 -366.640691 -2.819136 -366.640691 -2.819136 L -367.027775 -0.906483 L -366.094219 -0.496629 C -366.094219 -0.496629 -365.001275 0.687394 -364.932966 0.824012 C -364.887426 0.983399 -365.34282 1.780338 -365.34282 1.780338 L -367.027775 2.941591 C -367.027775 2.941591 -367.096084 5.241328 -367.187163 5.446255 C -367.255472 5.605643 -369.4869 6.971823 -369.4869 6.971823 L -370.078911 5.446255 L -371.445091 3.533603 L -372.583575 1.233866 C -372.583575 1.233866 -373.334974 1.393254 -374.109143 1.62095 C -374.906081 1.871417 -375.042699 2.577276 -375.042699 2.577276 C -375.042699 2.577276 -376.477189 3.328676 -376.591037 3.328676 C -376.704885 3.328676 -377.524594 2.395119 -377.524594 2.395119 L -378.275993 0.27754 L -377.729521 -1.81727 L -376.181183 -1.999427 L -372.173721 -6.393974 L -369.4869 -9.080795 L -363.544016 -13.839656 L -357.806058 -15.00091 L -352.455186 -14.044583 L -347.127083 -12.131931 L -343.301778 -10.196509 L -345.2372 -9.44511 L -349.449589 -9.650037 L -349.836674 -8.101699 L -348.880347 -6.576131 L -346.967695 -5.209951 L -340.38726 -8.73925 L -339.977406 -9.035256 L -339.749709 -9.080795 L -339.522013 -9.194644 L -339.658631 -9.103565 L -335.081927 -9.854964 C -335.150236 -9.877734 -335.195775 -9.900503 -335.264084 -9.923273 L -339.70417 -9.171874 L -339.544782 -9.285722 C -339.385395 -9.331262 -337.905366 -9.900503 -336.584725 -10.378666 C -349.449589 -14.636595 -363.202471 -16.959101 -377.501824 -16.959101 Z M -405.781755 -8.602632 L -405.781755 -8.579862 L -398.768697 -8.579862 L -397.402516 -6.849367 L -399.520096 -4.754558 L -402.730619 -4.003159 C -402.730619 -4.003159 -403.778024 -3.980389 -406.555924 -6.097968 Z M -388.84112 2.30404 L -387.953103 4.785935 L -385.812754 7.062902 L -385.197973 11.002055 L -383.535787 13.301791 L -386.586923 14.690741 L -390.025143 15.259983 L -390.93593 14.326427 L -389.54698 12.02669 L -388.021412 10.478352 L -388.408496 8.793397 L -391.300245 7.427216 C -391.300245 7.427216 -390.776542 5.491794 -390.366688 3.647451 Z M -393.66829 9.476487 L -392.142722 11.571296 L -393.053509 13.301791 L -395.353246 12.345465 Z M -326.56607 20.906862 C -326.679918 20.906862 -326.793766 20.906862 -326.907615 20.952401 L -326.953154 21.157328 C -327.772862 21.430564 -330.391375 23.570913 -330.391375 23.570913 L -331.142774 26.781437 C -331.142774 26.781437 -330.527993 28.056538 -329.617206 28.466392 C -328.820267 28.921786 -326.953154 31.358141 -326.953154 31.358141 L -325.609744 35.320063 L -322.37645 37.460412 L -319.894556 36.299159 L -322.217063 32.610473 L -323.879249 29.741494 L -325.541435 25.16479 L -326.133446 23.252138 L -324.607878 21.863188 C -324.607878 21.863188 -325.700822 20.906862 -326.56607 20.906862 Z M -375.133778 28.420853 L -374.063604 31.244292 L -374.268531 33.156945 L -375.794099 34.523125 L -377.433515 32.883709 Z M -382.875466 32.952018 L -381.964679 33.976653 L -382.875466 34.113271 Z M -369.760136 35.912075 L -367.278242 38.143503 L -368.985967 39.486913 L -370.921389 36.299159 Z M -492.648051 61.391337 L -487.684262 61.391337 L -483.471873 64.442473 L -483.084789 66.104659 L -485.521143 67.630227 L -487.661493 64.715709 L -491.350179 63.987079 L -494.537933 62.347663 L -492.602511 61.414106 Z M -259.850934 82.999755 L -252.154785 91.743308 L -250.515368 96.957563 C -250.515368 96.957563 -253.794201 96.547709 -254.317903 96.547709 C -254.864376 96.547709 -259.167843 83.796693 -259.850934 82.999755 Z M -281.778127 83.3413 L -281.049497 84.297626 L -280.662413 87.234913 L -282.757223 89.511881 L -283.713549 85.823194 Z M -324.653417 120.273706 L -322.922922 120.410324 L -322.37645 123.097145 L -322.37645 126.535366 L -323.036771 128.243091 L -325.427586 131.863469 L -325.040502 134.914605 L -326.588839 137.396499 L -329.047964 141.221804 L -331.165543 140.652562 L -332.0991 136.941105 L -332.0991 133.502885 L -329.639975 131.362536 L -330.573532 130.451749 L -332.0991 128.3114 L -329.98152 126.649214 L -327.044233 125.260264 C -327.044233 125.260264 -324.767266 123.347612 -324.653417 122.960527 Z M -449.932148 178.108671 L -449.818299 178.13144 L -449.886608 178.199749 L -448.770894 180.795492 L -451.8448 179.269924 L -451.18448 179.087767 L -449.886608 178.199749 Z M -455.237481 179.269924 L -455.146402 179.269924 L -455.191942 179.361003 L -453.848531 181.706279 L -456.535352 182.32106 L -455.191942 179.361003 Z M -444.2625 223.944018 L -444.467427 223.966788 C -442.964628 224.900345 -441.416291 225.765592 -439.867953 226.63084 L -435.997109 226.63084 Z M -444.2625 223.944018 " transform="matrix(0.171555,0,0,0.171555,96.086529,15.632074)"/>
<path style=" stroke:none;fill-rule:nonzero;fill:rgb(60%,60%,60%);fill-opacity:1;" d="M 21.617188 24.480469 L 21.316406 23.230469 L 21.144531 22.992188 C 20.914062 22.671875 20.910156 22.667969 20.804688 22.769531 C 20.636719 22.929688 20.609375 22.945312 20.484375 22.945312 C 20.207031 22.945312 19.789062 22.644531 19.5 22.238281 L 19.332031 22 L 18.984375 22 L 18.96875 22.160156 C 18.929688 22.625 18.820312 23.164062 18.847656 24.265625 C 18.867188 24.9375 18.863281 25.484375 18.875 25.5 C 18.894531 25.53125 19.707031 25.722656 20.089844 25.808594 C 20.492188 25.894531 20.582031 26.59375 20.792969 26.175781 C 20.851562 26.058594 20.941406 26.027344 21.011719 25.992188 C 21.96875 25.46875 21.671875 25.117188 21.617188 24.480469 Z M 21.617188 24.480469 "/>
<path style=" stroke:none;fill-rule:nonzero;fill:rgb(59.215686%,59.215686%,59.215686%);fill-opacity:1;" d="M 24.0625 56.675781 C 22.070312 54.035156 21.203125 51.421875 21.222656 46.144531 C 21.234375 42.332031 22.566406 37.644531 22.765625 36.992188 C 22.8125 36.839844 23.371094 36.277344 23.734375 36.320312 C 24.058594 36.363281 24.277344 36.863281 24.390625 37.152344 C 24.453125 37.308594 24.9375 37.988281 24.945312 40.308594 C 24.960938 45.238281 25.5 49.238281 26.59375 52.492188 C 27.132812 54.109375 27.582031 54.933594 28.371094 55.757812 C 29.042969 56.457031 30.101562 56.714844 32.328125 56.71875 C 33.566406 56.71875 33.714844 56.753906 33.714844 57.058594 C 30.699219 60.488281 25.820312 58.199219 24.0625 56.675781 Z M 24.0625 56.675781 "/>
<path style=" stroke:none;fill-rule:nonzero;fill:rgb(59.215686%,59.215686%,59.215686%);fill-opacity:1;" d="M 49.832031 47.261719 C 49.601562 46.984375 51.871094 43.816406 51.613281 42.222656 C 51.480469 41.398438 51.148438 40.875 50.753906 40.875 C 50.683594 40.875 50.246094 41.234375 49.785156 41.671875 C 49.324219 42.113281 48.292969 43.078125 47.496094 43.816406 C 46.699219 44.554688 45.675781 45.519531 45.222656 45.960938 C 44.769531 46.398438 44.429688 46.496094 44.300781 46.496094 C 44 46.496094 43.152344 45.851562 43.183594 45.617188 C 43.210938 45.390625 43.226562 45.3125 43.449219 44.839844 C 44.457031 42.699219 45.230469 41.035156 45.726562 39.949219 C 46.019531 39.304688 46.488281 38.316406 46.761719 37.757812 L 47.261719 36.738281 L 47.214844 35.886719 L 46.613281 35.226562 L 42.769531 34.761719 C 40.65625 34.503906 39.207031 34.386719 38.714844 34.019531 C 38.445312 33.816406 38.167969 33.863281 38.167969 33.253906 C 38.167969 32.816406 38.519531 32.570312 38.660156 32.453125 C 38.792969 32.339844 40.300781 31.660156 42.316406 31.109375 C 45.871094 30.132812 52.085938 28.175781 52.320312 27.957031 C 52.625 27.671875 50.65625 23.765625 49.472656 22.304688 C 48.285156 20.839844 47.796875 20.277344 47.433594 19.960938 C 46.605469 19.238281 45.710938 18.203125 45.867188 18.25 C 51.203125 19.074219 55.316406 24.179688 56.363281 30.082031 C 56.53125 33.257812 56.167969 33.671875 56.179688 36.308594 C 55.800781 39.191406 55.734375 39.195312 55.496094 40.292969 C 55.203125 41.414062 55.148438 42.109375 53.875 43.714844 L 51.515625 46.683594 L 50.800781 47.085938 C 50.492188 47.292969 50.242188 47.386719 50.027344 47.320312 Z M 49.832031 47.261719 "/>
<path style=" stroke:none;fill-rule:nonzero;fill:rgb(59.215686%,59.215686%,59.215686%);fill-opacity:1;" d="M 8.601562 39.398438 C 8.5 39.265625 8.496094 37.945312 8.589844 35.828125 C 8.75 32.136719 8.984375 34.929688 8.292969 35.0625 C 7.660156 35.183594 8.671875 31.324219 8.785156 29.207031 C 8.859375 27.808594 9.085938 26.277344 10.214844 24.015625 C 12.386719 19.660156 12.023438 20.207031 12.386719 19.660156 C 13.375 18.003906 14.453125 16.367188 15.574219 15.882812 C 18.070312 14.722656 21.722656 13.542969 24.421875 14.328125 C 24.453125 14.421875 24.042969 14.699219 23.511719 14.949219 C 22.015625 15.648438 21.90625 15.761719 22.128906 16.347656 C 22.367188 16.972656 22.5625 17.09375 23.335938 17.097656 C 23.828125 17.101562 23.976562 17.027344 24.070312 16.722656 C 26.089844 12.214844 31.148438 9.683594 35.925781 9.9375 C 38.625 10.335938 40.132812 12.734375 40.703125 14.890625 C 40.765625 15.132812 40.875 15.113281 40.746094 15.054688 C 40.601562 14.984375 40.214844 14.808594 39.609375 14.597656 C 37.714844 13.933594 35.234375 15.082031 33.382812 17.667969 L 32.800781 18.484375 L 32.859375 21.039062 L 32.640625 23.484375 L 31.28125 26.945312 C 29.636719 31.128906 28.289062 31.046875 27.671875 31.8125 C 27.605469 31.890625 27.296875 32.191406 26.917969 32.390625 L 26.246094 32.742188 L 24.996094 33.074219 C 19.566406 34.296875 19.125 29.914062 18.886719 25.148438 C 19.058594 24.976562 20.164062 25.351562 20.578125 25.722656 C 20.8125 25.933594 21.125 25.886719 21.234375 25.871094 C 21.394531 25.847656 21.285156 25.730469 21.214844 25.210938 C 21.015625 23.742188 20.933594 23.515625 20.507812 23.234375 C 20.105469 22.972656 20.109375 23.03125 19.796875 22.953125 C 19.183594 22.710938 19.398438 22.898438 19.082031 22.597656 C 19.113281 19.066406 18.328125 18.621094 17.210938 19.882812 C 17 19.96875 15.5625 21.929688 15.132812 22.722656 C 14.355469 24.15625 14.386719 24.035156 14.671875 24.492188 C 14.816406 24.726562 15.132812 25.433594 15.527344 25.808594 C 16.140625 26.386719 16.535156 26.804688 16.445312 27.183594 C 16.210938 28.160156 15.960938 27.726562 14.582031 27.664062 L 13.324219 27.605469 L 13.183594 28.160156 C 13.089844 28.515625 13.160156 30.007812 13.386719 32.359375 C 13.976562 38.585938 14.011719 38.28125 13.566406 38.820312 C 13.308594 39.132812 13.082031 39.257812 12.898438 39.1875 C 12.75 39.128906 12.339844 38.40625 11.992188 37.574219 C 11.644531 36.746094 11.289062 36.09375 11.195312 36.125 C 11.105469 36.152344 10.757812 36.855469 10.425781 37.683594 C 10.089844 38.515625 9.753906 39.285156 9.679688 39.398438 C 9.503906 39.671875 8.808594 39.667969 8.601562 39.398438 Z M 8.601562 39.398438 "/>
<path style=" stroke:none;fill-rule:nonzero;fill:rgb(60%,60%,60%);fill-opacity:1;" d="M 25.078125 26.84375 C 25.054688 26.195312 25.019531 25.65625 25.003906 25.648438 C 24.988281 25.636719 24.644531 25.578125 24.238281 25.515625 L 23.496094 25.398438 L 23.597656 26.609375 C 23.710938 27.921875 23.855469 28.128906 24.628906 28.0625 L 25.121094 28.019531 Z M 25.078125 26.84375 "/>
<path style=" stroke:none;fill-rule:nonzero;fill:rgb(60%,60%,60%);fill-opacity:1;" d="M 27.761719 27.367188 C 28.164062 26.859375 28.503906 26.800781 28.730469 27.207031 C 28.867188 27.449219 29.011719 27.46875 29.707031 27.335938 L 30.523438 27.175781 L 30.574219 26.015625 C 30.601562 25.378906 30.574219 24.738281 30.519531 24.589844 C 30.429688 24.359375 30.371094 24.375 30.105469 24.695312 C 29.710938 25.183594 28.933594 25.488281 28.695312 25.25 C 28.425781 24.980469 27.652344 25.046875 27.289062 25.371094 C 26.980469 25.648438 26.066406 27.527344 26.066406 27.890625 C 26.066406 28.230469 27.40625 27.820312 27.761719 27.367188 Z M 27.761719 27.367188 "/>
<path style=" stroke:none;fill-rule:nonzero;fill:rgb(60%,60%,60%);fill-opacity:1;" d="M 25.621094 26.558594 C 25.621094 26.519531 25.730469 26.347656 25.914062 26.097656 C 26.195312 25.722656 26.230469 25.6875 26.621094 25.378906 L 27.035156 25.054688 L 27.347656 24.152344 L 27.53125 23.984375 C 27.769531 23.753906 27.777344 23.75 27.886719 23.820312 C 28.824219 26.003906 28.679688 24.777344 27.574219 25.753906 C 27.222656 25.894531 26.765625 26.226562 26.488281 26.363281 C 26.183594 26.511719 25.839844 26.625 25.691406 26.625 C 25.632812 26.625 25.621094 26.613281 25.621094 26.558594 Z M 25.621094 26.558594 "/>
<path style=" stroke:none;fill-rule:nonzero;fill:rgb(60%,60%,60%);fill-opacity:1;" d="M 25.394531 26.597656 C 25.367188 26.582031 25.347656 26.535156 25.347656 26.492188 C 25.347656 26.1875 26.117188 24.554688 26.476562 24.101562 C 26.652344 23.875 27.003906 23.730469 27.382812 23.726562 C 27.503906 23.722656 27.628906 23.730469 27.664062 23.742188 C 27.726562 23.761719 27.71875 23.773438 27.527344 23.960938 L 27.324219 24.152344 L 27.027344 25.023438 L 26.605469 25.359375 C 26.207031 25.675781 26.171875 25.710938 25.886719 26.09375 C 25.699219 26.347656 25.59375 26.515625 25.59375 26.558594 C 25.59375 26.613281 25.578125 26.625 25.519531 26.625 C 25.476562 26.625 25.421875 26.613281 25.394531 26.597656 Z M 25.394531 26.597656 "/>
<path style=" stroke:none;fill-rule:nonzero;fill:rgb(56.862745%,47.843137%,47.843137%);fill-opacity:1;" d="M 16.390625 10.171875 C 16.195312 8.347656 16.074219 6.746094 16.125 6.613281 C 16.179688 6.476562 16.328125 5.671875 16.863281 5.5625 C 17.703125 5.386719 18.179688 6.003906 18.347656 6.234375 C 18.453125 6.382812 19.128906 8.109375 19.847656 10.078125 C 20.566406 12.042969 21.226562 13.742188 21.316406 13.855469 C 21.609375 15.105469 21.375 14.300781 22.125 16.34375 C 22.363281 16.96875 22.5625 17.09375 23.332031 17.09375 C 23.828125 17.097656 26.597656 17.882812 26.695312 17.582031 C 28.480469 14.871094 28.328125 15.296875 30.957031 9.535156 L 31.832031 7.769531 C 32.457031 6.515625 32.828125 6.125 33.007812 6.011719 C 33.179688 5.898438 33.816406 5.46875 34.222656 5.570312 C 35.277344 6.132812 34.890625 7.511719 34.8125 7.921875 C 33.867188 11.890625 33.734375 12.128906 32.796875 18.480469 L 32.855469 21.035156 L 32.722656 23.632812 C 31.386719 26.800781 30.195312 30.597656 27.289062 32.367188 C 26.703125 32.75 25.660156 32.890625 24.992188 33.070312 C 19.765625 34.792969 18.996094 29.488281 18.84375 25.253906 C 18.851562 24.667969 20.710938 25.289062 21.125 25.664062 C 21.359375 25.871094 21.125 25.882812 21.234375 25.867188 C 21.394531 25.84375 21.285156 25.726562 21.214844 25.207031 C 21.011719 23.742188 20.929688 23.511719 20.503906 23.234375 C 20.101562 22.96875 20.105469 23.027344 19.796875 22.949219 C 19.183594 22.707031 19.398438 22.894531 19.082031 22.59375 C 18.957031 21.636719 18.539062 20.59375 18.257812 19.738281 C 17.78125 16.105469 16.777344 13.601562 16.390625 10.171875 Z M 16.390625 10.171875 "/>
<path style=" stroke:none;fill-rule:nonzero;fill:rgb(56.862745%,47.843137%,47.843137%);fill-opacity:1;" d="M 21.640625 24.246094 L 21.492188 23.621094 L 21.339844 22.996094 L 21.167969 22.757812 C 20.9375 22.4375 20.933594 22.433594 20.828125 22.535156 C 20.660156 22.695312 20.632812 22.710938 20.507812 22.710938 C 20.230469 22.710938 19.8125 22.410156 19.527344 22.003906 L 19.355469 21.761719 L 19.007812 21.761719 L 18.992188 21.925781 C 18.953125 22.390625 18.84375 22.929688 18.871094 24.03125 C 18.890625 24.703125 18.886719 25.25 18.898438 25.265625 C 18.917969 25.296875 19.730469 25.488281 20.113281 25.574219 C 20.515625 25.660156 20.605469 26.359375 20.816406 25.941406 C 20.875 25.824219 20.964844 25.792969 21.039062 25.757812 C 21.992188 25.234375 21.695312 24.882812 21.640625 24.246094 Z M 21.640625 24.246094 "/>
<path style=" stroke:none;fill-rule:nonzero;fill:rgb(56.862745%,47.843137%,47.843137%);fill-opacity:1;" d="M 25.101562 26.605469 C 25.078125 25.960938 25.042969 25.421875 25.027344 25.410156 C 25.011719 25.402344 24.667969 25.339844 24.261719 25.277344 L 23.519531 25.164062 L 23.621094 26.375 C 23.734375 27.6875 23.878906 27.894531 24.652344 27.828125 L 25.144531 27.78125 Z M 25.101562 26.605469 "/>
<path style=" stroke:none;fill-rule:nonzero;fill:rgb(56.862745%,47.843137%,47.843137%);fill-opacity:1;" d="M 27.785156 27.132812 C 28.1875 26.625 28.527344 26.566406 28.753906 26.972656 C 28.890625 27.214844 29.035156 27.234375 29.730469 27.101562 L 30.546875 26.941406 L 30.597656 25.78125 C 30.625 25.144531 30.601562 24.5 30.542969 24.355469 C 30.453125 24.125 30.394531 24.140625 30.128906 24.460938 C 29.734375 24.949219 28.957031 25.253906 28.71875 25.015625 C 28.449219 24.746094 27.675781 24.808594 27.3125 25.136719 C 27.003906 25.410156 26.09375 27.292969 26.09375 27.65625 C 26.09375 27.996094 27.429688 27.585938 27.785156 27.132812 Z M 27.785156 27.132812 "/>
<path style=" stroke:none;fill-rule:nonzero;fill:rgb(56.862745%,47.843137%,47.843137%);fill-opacity:1;" d="M 25.644531 26.324219 C 25.644531 26.28125 25.753906 26.113281 25.9375 25.863281 C 26.21875 25.488281 26.253906 25.453125 26.644531 25.144531 L 27.058594 24.820312 L 27.375 23.917969 L 27.554688 23.746094 C 27.792969 23.515625 27.800781 23.515625 27.910156 23.585938 C 28.847656 25.765625 28.703125 24.542969 27.597656 25.515625 C 27.246094 25.660156 26.792969 25.992188 26.511719 26.128906 C 26.210938 26.277344 25.863281 26.390625 25.71875 26.390625 C 25.65625 26.390625 25.644531 26.378906 25.644531 26.324219 Z M 25.644531 26.324219 "/>
<path style=" stroke:none;fill-rule:nonzero;fill:rgb(56.862745%,47.843137%,47.843137%);fill-opacity:1;" d="M 25.417969 26.363281 C 25.390625 26.347656 25.371094 26.300781 25.371094 26.253906 C 25.371094 25.953125 26.144531 24.320312 26.5 23.867188 C 26.679688 23.640625 27.027344 23.496094 27.40625 23.488281 C 27.527344 23.488281 27.652344 23.496094 27.6875 23.507812 C 27.75 23.527344 27.742188 23.539062 27.550781 23.722656 L 27.347656 23.917969 L 27.199219 24.355469 L 27.050781 24.789062 L 26.628906 25.125 C 26.230469 25.441406 26.195312 25.476562 25.914062 25.855469 C 25.722656 26.113281 25.617188 26.28125 25.617188 26.324219 C 25.617188 26.378906 25.601562 26.390625 25.542969 26.390625 C 25.5 26.390625 25.445312 26.378906 25.417969 26.363281 Z M 25.417969 26.363281 "/>
<path style=" stroke:none;fill-rule:nonzero;fill:rgb(56.862745%,47.843137%,47.843137%);fill-opacity:1;" d="M 25.242188 26.386719 L 25.527344 25.261719 L 25.996094 24.5 L 26.636719 24.140625 L 27.386719 24.003906 L 28.085938 24.085938 L 28.367188 24.292969 L 28.390625 25.101562 L 28.113281 25.742188 L 27.917969 26.078125 L 27.230469 26.492188 L 26.539062 26.617188 L 25.839844 26.574219 Z M 25.242188 26.386719 "/>
<path style=" stroke:none;fill-rule:nonzero;fill:rgb(56.862745%,47.843137%,47.843137%);fill-opacity:1;" d="M 25.328125 25.898438 C 25.328125 25.898438 25.878906 24.785156 26.746094 24.570312 C 27.484375 24.386719 28.410156 24.339844 28.410156 24.339844 L 28.15625 24.210938 L 27.371094 23.960938 L 26.273438 24.324219 L 25.800781 24.75 L 25.519531 25.277344 Z M 25.328125 25.898438 "/>
<path style=" stroke:none;fill-rule:nonzero;fill:rgb(56.862745%,47.843137%,47.843137%);fill-opacity:1;" d="M 25.371094 25.835938 C 25.371094 25.835938 25.808594 24.730469 26.660156 24.402344 C 27.371094 24.125 28.386719 24.269531 28.386719 24.269531 L 28.144531 24.179688 L 27.371094 23.960938 L 26.273438 24.324219 L 25.796875 24.734375 L 25.417969 25.527344 Z M 25.371094 25.835938 "/>
<path style=" stroke:none;fill-rule:evenodd;fill:rgb(56.862745%,47.843137%,47.843137%);fill-opacity:1;" d="M 26.476562 24.09375 C 27.566406 23.617188 28.535156 24.089844 28.535156 24.089844 L 28.421875 24.195312 C 28.679688 24.90625 28.429688 25.726562 27.820312 26.210938 C 27.210938 26.695312 26.128906 26.890625 25.253906 26.414062 L 25.195312 26.386719 C 25.28125 25.546875 25.519531 24.511719 26.476562 24.09375 Z M 26.5625 24.285156 C 26.066406 24.464844 25.734375 24.980469 25.535156 25.464844 C 25.347656 25.914062 25.28125 26.292969 25.273438 26.34375 C 26.257812 26.765625 27.109375 26.589844 27.667969 26.144531 C 28.226562 25.703125 28.488281 24.980469 28.253906 24.316406 C 28.214844 24.292969 27.601562 23.917969 26.5625 24.285156 Z M 26.5625 24.285156 "/>
<path style=" stroke:none;fill-rule:evenodd;fill:rgb(56.862745%,47.843137%,47.843137%);fill-opacity:1;" d="M 27.753906 25.15625 C 27.617188 24.738281 27.105469 24.53125 26.609375 24.695312 C 26.113281 24.859375 25.824219 25.332031 25.960938 25.746094 C 26.097656 26.164062 26.609375 26.371094 27.105469 26.207031 C 27.601562 26.042969 27.890625 25.574219 27.753906 25.15625 Z M 27.753906 25.15625 "/>
<path style=" stroke:none;fill-rule:evenodd;fill:rgb(56.862745%,47.843137%,47.843137%);fill-opacity:1;" d="M 27.175781 25.355469 C 27.121094 25.1875 26.910156 25.105469 26.703125 25.171875 C 26.5 25.242188 26.378906 25.429688 26.433594 25.597656 C 26.488281 25.765625 26.699219 25.847656 26.902344 25.777344 C 27.109375 25.710938 27.230469 25.519531 27.175781 25.355469 Z M 27.175781 25.355469 "/>
<path style=" stroke:none;fill-rule:evenodd;fill:rgb(56.862745%,47.843137%,47.843137%);fill-opacity:1;" d="M 26.828125 25.339844 C 26.804688 25.269531 26.714844 25.234375 26.628906 25.261719 C 26.539062 25.292969 26.488281 25.375 26.511719 25.445312 C 26.535156 25.515625 26.625 25.550781 26.710938 25.519531 C 26.800781 25.492188 26.851562 25.410156 26.828125 25.339844 Z M 26.828125 25.339844 "/>
<path style=" stroke:none;fill-rule:nonzero;fill:rgb(56.862745%,47.843137%,47.843137%);fill-opacity:1;" d="M 21.769531 25.886719 L 21.894531 25.046875 L 21.769531 24.402344 L 21.375 23.976562 L 20.828125 23.675781 L 20.25 23.535156 L 19.964844 23.59375 L 19.691406 24.136719 L 19.710938 24.644531 L 19.757812 24.925781 L 20.171875 25.398438 L 20.675781 25.679688 L 21.238281 25.84375 Z M 21.769531 25.886719 "/>
<path style=" stroke:none;fill-rule:nonzero;fill:rgb(56.862745%,47.843137%,47.843137%);fill-opacity:1;" d="M 21.855469 25.53125 C 21.855469 25.53125 21.769531 24.625 21.15625 24.238281 C 20.628906 23.910156 19.914062 23.617188 19.914062 23.617188 L 20.15625 23.601562 L 20.851562 23.652344 L 21.605469 24.203125 L 21.839844 24.625 L 21.898438 25.058594 Z M 21.855469 25.53125 "/>
<path style=" stroke:none;fill-rule:nonzero;fill:rgb(56.862745%,47.843137%,47.843137%);fill-opacity:1;" d="M 21.839844 25.480469 C 21.839844 25.480469 21.84375 24.609375 21.277344 24.148438 C 20.800781 23.765625 19.953125 23.574219 19.953125 23.574219 L 20.175781 23.582031 L 20.851562 23.652344 L 21.605469 24.203125 L 21.851562 24.613281 L 21.902344 25.253906 Z M 21.839844 25.480469 "/>
<path style=" stroke:none;fill-rule:evenodd;fill:rgb(56.862745%,47.843137%,47.843137%);fill-opacity:1;" d="M 21.515625 23.992188 C 20.808594 23.363281 19.898438 23.414062 19.898438 23.414062 L 19.953125 23.515625 C 19.523438 23.921875 19.464844 24.542969 19.792969 25.042969 C 20.121094 25.539062 20.914062 25.976562 21.75 25.898438 L 21.804688 25.898438 C 22.003906 25.308594 22.140625 24.542969 21.515625 23.992188 Z M 21.386719 24.097656 C 21.722656 24.355469 21.824219 24.800781 21.828125 25.179688 C 21.835938 25.535156 21.769531 25.808594 21.757812 25.847656 C 20.847656 25.855469 20.234375 25.5 19.933594 25.042969 C 19.632812 24.585938 19.652344 24.027344 20.046875 23.644531 C 20.085938 23.640625 20.6875 23.558594 21.386719 24.097656 Z M 21.386719 24.097656 "/>
<path style=" stroke:none;fill-rule:evenodd;fill:rgb(56.862745%,47.843137%,47.843137%);fill-opacity:1;" d="M 20.117188 24.554688 C 20.183594 24.269531 20.484375 24.109375 20.792969 24.195312 C 21.101562 24.285156 21.296875 24.589844 21.234375 24.875 C 21.167969 25.160156 20.867188 25.320312 20.558594 25.230469 C 20.25 25.140625 20.054688 24.839844 20.117188 24.554688 Z M 20.117188 24.554688 "/>
<path style=" stroke:none;fill-rule:evenodd;fill:rgb(56.862745%,47.843137%,47.843137%);fill-opacity:1;" d="M 20.40625 24.660156 C 20.4375 24.546875 20.570312 24.484375 20.710938 24.519531 C 20.851562 24.558594 20.941406 24.679688 20.910156 24.792969 C 20.882812 24.90625 20.75 24.972656 20.609375 24.933594 C 20.46875 24.898438 20.378906 24.773438 20.40625 24.660156 Z M 20.40625 24.660156 "/>
<path style=" stroke:none;fill-rule:evenodd;fill:rgb(56.862745%,47.843137%,47.843137%);fill-opacity:1;" d="M 20.632812 24.667969 C 20.644531 24.617188 20.699219 24.589844 20.761719 24.605469 C 20.820312 24.621094 20.859375 24.675781 20.84375 24.722656 C 20.832031 24.773438 20.777344 24.800781 20.714844 24.785156 C 20.65625 24.769531 20.621094 24.714844 20.632812 24.667969 Z M 20.632812 24.667969 "/>
<path style=" stroke:none;fill-rule:nonzero;fill:rgb(81.960784%,89.019608%,95.294118%);fill-opacity:1;" d="M 25.21875 26.621094 L 25.503906 25.5 L 25.972656 24.734375 L 26.613281 24.375 L 27.363281 24.242188 L 28.0625 24.320312 L 28.34375 24.527344 L 28.367188 25.335938 L 28.085938 25.976562 L 27.894531 26.3125 L 27.207031 26.726562 L 26.515625 26.855469 L 25.816406 26.8125 Z M 25.21875 26.621094 "/>
<path style=" stroke:none;fill-rule:evenodd;fill:rgb(0%,0%,0%);fill-opacity:1;" d="M 26.453125 24.328125 C 27.542969 23.851562 28.511719 24.324219 28.511719 24.324219 L 28.398438 24.429688 C 28.65625 25.140625 28.40625 25.960938 27.796875 26.445312 C 27.1875 26.929688 26.105469 27.125 25.230469 26.648438 L 25.171875 26.621094 C 25.257812 25.785156 25.496094 24.746094 26.453125 24.328125 Z M 26.539062 24.519531 C 26.042969 24.699219 25.710938 25.214844 25.507812 25.699219 C 25.324219 26.148438 25.257812 26.527344 25.25 26.582031 C 26.234375 27 27.085938 26.824219 27.644531 26.382812 C 28.203125 25.9375 28.464844 25.21875 28.226562 24.554688 C 28.191406 24.527344 27.574219 24.152344 26.539062 24.519531 Z M 26.539062 24.519531 "/>
<path style=" stroke:none;fill-rule:nonzero;fill:rgb(81.960784%,89.019608%,95.294118%);fill-opacity:1;" d="M 21.746094 26.121094 L 21.871094 25.28125 L 21.746094 24.636719 L 21.351562 24.214844 L 20.804688 23.910156 L 20.226562 23.769531 L 19.941406 23.832031 L 19.667969 24.371094 L 19.6875 24.878906 L 19.734375 25.160156 L 20.148438 25.632812 L 20.652344 25.914062 L 21.214844 26.082031 Z M 21.746094 26.121094 "/>
<path style=" stroke:none;fill-rule:evenodd;fill:rgb(0%,0%,0%);fill-opacity:1;" d="M 21.492188 24.226562 C 20.785156 23.601562 19.871094 23.648438 19.871094 23.648438 L 19.929688 23.75 C 19.5 24.15625 19.441406 24.78125 19.769531 25.277344 C 20.097656 25.773438 20.890625 26.210938 21.726562 26.132812 L 21.78125 26.132812 C 21.980469 25.542969 22.117188 24.777344 21.492188 24.226562 Z M 21.363281 24.332031 C 21.699219 24.589844 21.800781 25.035156 21.804688 25.414062 C 21.8125 25.773438 21.746094 26.042969 21.734375 26.082031 C 20.824219 26.089844 20.210938 25.734375 19.910156 25.277344 C 19.609375 24.820312 19.628906 24.261719 20.023438 23.882812 C 20.0625 23.875 20.664062 23.792969 21.363281 24.332031 Z M 21.363281 24.332031 "/>
</g>
</svg>
