<?xml version="1.0" encoding="UTF-8"?>
<svg xmlns="http://www.w3.org/2000/svg" xmlns:xlink="http://www.w3.org/1999/xlink" width="64pt" height="64pt" viewBox="0 0 64 64" version="1.1">
<defs>
<clipPath id="clip1">
  <path d="M 2.347656 3 L 37 3 L 37 54 L 2.347656 54 Z M 2.347656 3 "/>
</clipPath>
</defs>
<g id="surface1">
<path style="fill-rule:nonzero;fill:rgb(80%,80%,80%);fill-opacity:1;stroke-width:28.191782;stroke-linecap:butt;stroke-linejoin:miter;stroke:rgb(35.294118%,49.803922%,53.333333%);stroke-opacity:1;stroke-miterlimit:4;" d="M 294.6116 58.02737 L 643.6741 58.02737 C 674.7991 58.02737 700.0491 83.27737 700.0491 114.40237 L 700.0491 463.46487 C 700.0491 494.58987 674.7991 519.83987 643.6741 519.83987 L 294.6116 519.83987 C 263.4866 519.83987 238.2366 494.58987 238.2366 463.46487 L 238.2366 114.40237 C 238.2366 83.27737 263.4866 58.02737 294.6116 58.02737 Z M 294.6116 58.02737 " transform="matrix(0.125,0,0,0.125,-26.642856,-4.116702)"/>
<path style=" stroke:none;fill-rule:nonzero;fill:rgb(20%,20%,20%);fill-opacity:1;" d="M 56.53125 32 C 56.53125 45.214844 45.816406 55.929688 32.601562 55.929688 C 19.382812 55.929688 8.667969 45.214844 8.667969 32 C 8.667969 18.785156 19.382812 8.070312 32.601562 8.070312 C 45.816406 8.070312 56.53125 18.785156 56.53125 32 Z M 56.53125 32 "/>
<path style=" stroke:none;fill-rule:nonzero;fill:rgb(29.803922%,29.803922%,29.803922%);fill-opacity:1;" d="M 42.570312 32 C 42.570312 37.507812 38.105469 41.972656 32.601562 41.972656 C 27.09375 41.972656 22.628906 37.507812 22.628906 32 C 22.628906 26.492188 27.09375 22.027344 32.601562 22.027344 C 38.105469 22.027344 42.570312 26.492188 42.570312 32 Z M 42.570312 32 "/>
<path style=" stroke:none;fill-rule:nonzero;fill:rgb(9.803922%,72.941176%,61.176471%);fill-opacity:1;" d="M 39.914062 32 C 39.914062 36.039062 36.640625 39.3125 32.601562 39.3125 C 28.5625 39.3125 25.289062 36.039062 25.289062 32 C 25.289062 27.960938 28.5625 24.6875 32.601562 24.6875 C 36.640625 24.6875 39.914062 27.960938 39.914062 32 Z M 39.914062 32 "/>
<path style=" stroke:none;fill-rule:nonzero;fill:rgb(20%,20%,20%);fill-opacity:1;" d="M 33.265625 32 C 33.265625 32.367188 32.96875 32.664062 32.601562 32.664062 C 32.234375 32.664062 31.9375 32.367188 31.9375 32 C 31.9375 31.632812 32.234375 31.335938 32.601562 31.335938 C 32.96875 31.335938 33.265625 31.632812 33.265625 32 Z M 33.265625 32 "/>
<path style="fill:none;stroke-width:0.814285;stroke-linecap:butt;stroke-linejoin:miter;stroke:rgb(29.803922%,29.803922%,29.803922%);stroke-opacity:1;stroke-miterlimit:4;" d="M 82.068278 116.362195 C 82.068278 197.037363 16.657273 262.424443 -63.99397 262.424443 C -144.669138 262.424443 -210.056218 197.037363 -210.056218 116.362195 C -210.056218 35.687027 -144.669138 -29.700053 -63.99397 -29.700053 C 16.657273 -29.700053 82.068278 35.687027 82.068278 116.362195 Z M 82.068278 116.362195 " transform="matrix(0.163271,0,0,0.163271,43.04989,13.001486)"/>
<path style="fill:none;stroke-width:0.814286;stroke-linecap:butt;stroke-linejoin:miter;stroke:rgb(29.803922%,29.803922%,29.803922%);stroke-opacity:1;stroke-miterlimit:4;" d="M 73.933771 116.362195 C 73.933771 192.539459 12.183294 254.289936 -63.99397 254.289936 C -140.171234 254.289936 -201.921711 192.539459 -201.921711 116.362195 C -201.921711 40.184931 -140.171234 -21.565546 -63.99397 -21.565546 C 12.183294 -21.565546 73.933771 40.184931 73.933771 116.362195 Z M 73.933771 116.362195 " transform="matrix(0.163271,0,0,0.163271,43.04989,13.001486)"/>
<path style="fill:none;stroke-width:0.814286;stroke-linecap:butt;stroke-linejoin:miter;stroke:rgb(29.803922%,29.803922%,29.803922%);stroke-opacity:1;stroke-miterlimit:4;" d="M 69.842593 116.362195 C 69.842593 190.290507 9.934342 250.222683 -63.99397 250.222683 C -137.922282 250.222683 -197.854458 190.290507 -197.854458 116.362195 C -197.854458 42.433883 -137.922282 -17.498293 -63.99397 -17.498293 C 9.934342 -17.498293 69.842593 42.433883 69.842593 116.362195 Z M 69.842593 116.362195 " transform="matrix(0.163271,0,0,0.163271,43.04989,13.001486)"/>
<path style="fill:none;stroke-width:0.814286;stroke-linecap:butt;stroke-linejoin:miter;stroke:rgb(29.803922%,29.803922%,29.803922%);stroke-opacity:1;stroke-miterlimit:4;" d="M 65.775339 116.362195 C 65.775339 188.041555 7.68539 246.131504 -63.99397 246.131504 C -135.67333 246.131504 -193.787204 188.041555 -193.787204 116.362195 C -193.787204 44.682835 -135.67333 -13.407114 -63.99397 -13.407114 C 7.68539 -13.407114 65.775339 44.682835 65.775339 116.362195 Z M 65.775339 116.362195 " transform="matrix(0.163271,0,0,0.163271,43.04989,13.001486)"/>
<path style="fill:none;stroke-width:0.814286;stroke-linecap:butt;stroke-linejoin:miter;stroke:rgb(29.803922%,29.803922%,29.803922%);stroke-opacity:1;stroke-miterlimit:4;" d="M 61.708086 116.362195 C 61.708086 185.792603 5.436438 242.064251 -63.99397 242.064251 C -133.424379 242.064251 -189.719951 185.792603 -189.719951 116.362195 C -189.719951 46.931787 -133.424379 -9.339861 -63.99397 -9.339861 C 5.436438 -9.339861 61.708086 46.931787 61.708086 116.362195 Z M 61.708086 116.362195 " transform="matrix(0.163271,0,0,0.163271,43.04989,13.001486)"/>
<path style="fill:none;stroke-width:0.814286;stroke-linecap:butt;stroke-linejoin:miter;stroke:rgb(29.803922%,29.803922%,29.803922%);stroke-opacity:1;stroke-miterlimit:4;" d="M 57.640832 116.362195 C 57.640832 183.543651 3.187486 237.996997 -63.99397 237.996997 C -131.175427 237.996997 -185.628772 183.543651 -185.628772 116.362195 C -185.628772 49.180738 -131.175427 -5.272607 -63.99397 -5.272607 C 3.187486 -5.272607 57.640832 49.180738 57.640832 116.362195 Z M 57.640832 116.362195 " transform="matrix(0.163271,0,0,0.163271,43.04989,13.001486)"/>
<path style="fill:none;stroke-width:4.071427;stroke-linecap:butt;stroke-linejoin:miter;stroke:rgb(29.803922%,29.803922%,29.803922%);stroke-opacity:1;stroke-miterlimit:4;" d="M 53.573579 116.362195 C 53.573579 181.2947 0.938535 233.929744 -63.99397 233.929744 C -128.926475 233.929744 -181.561519 181.2947 -181.561519 116.362195 C -181.561519 51.42969 -128.926475 -1.205354 -63.99397 -1.205354 C 0.938535 -1.205354 53.573579 51.42969 53.573579 116.362195 Z M 53.573579 116.362195 " transform="matrix(0.163271,0,0,0.163271,43.04989,13.001486)"/>
<path style="fill:none;stroke-width:0.814286;stroke-linecap:butt;stroke-linejoin:miter;stroke:rgb(29.803922%,29.803922%,29.803922%);stroke-opacity:1;stroke-miterlimit:4;" d="M 49.4824 116.362195 C 49.4824 179.045748 -1.310417 229.86249 -63.99397 229.86249 C -126.677523 229.86249 -177.494266 179.045748 -177.494266 116.362195 C -177.494266 53.678642 -126.677523 2.861899 -63.99397 2.861899 C -1.310417 2.861899 49.4824 53.678642 49.4824 116.362195 Z M 49.4824 116.362195 " transform="matrix(0.163271,0,0,0.163271,43.04989,13.001486)"/>
<path style="fill:none;stroke-width:0.814286;stroke-linecap:butt;stroke-linejoin:miter;stroke:rgb(29.803922%,29.803922%,29.803922%);stroke-opacity:1;stroke-miterlimit:4;" d="M 45.415147 116.362195 C 45.415147 176.796796 -3.559369 225.795237 -63.99397 225.795237 C -124.428571 225.795237 -173.427012 176.796796 -173.427012 116.362195 C -173.427012 55.927594 -124.428571 6.929153 -63.99397 6.929153 C -3.559369 6.929153 45.415147 55.927594 45.415147 116.362195 Z M 45.415147 116.362195 " transform="matrix(0.163271,0,0,0.163271,43.04989,13.001486)"/>
<path style="fill:none;stroke-width:0.814286;stroke-linecap:butt;stroke-linejoin:miter;stroke:rgb(29.803922%,29.803922%,29.803922%);stroke-opacity:1;stroke-miterlimit:4;" d="M 41.347894 116.362195 C 41.347894 174.547844 -5.808321 221.704059 -63.99397 221.704059 C -122.179619 221.704059 -169.359759 174.547844 -169.359759 116.362195 C -169.359759 58.176546 -122.179619 11.020331 -63.99397 11.020331 C -5.808321 11.020331 41.347894 58.176546 41.347894 116.362195 Z M 41.347894 116.362195 " transform="matrix(0.163271,0,0,0.163271,43.04989,13.001486)"/>
<path style="fill:none;stroke-width:0.814286;stroke-linecap:butt;stroke-linejoin:miter;stroke:rgb(29.803922%,29.803922%,29.803922%);stroke-opacity:1;stroke-miterlimit:4;" d="M 37.28064 116.362195 C 37.28064 172.298892 -8.057273 217.636805 -63.99397 217.636805 C -119.930667 217.636805 -165.26858 172.298892 -165.26858 116.362195 C -165.26858 60.425498 -119.930667 15.087585 -63.99397 15.087585 C -8.057273 15.087585 37.28064 60.425498 37.28064 116.362195 Z M 37.28064 116.362195 " transform="matrix(0.163271,0,0,0.163271,43.04989,13.001486)"/>
<path style="fill:none;stroke-width:0.814286;stroke-linecap:butt;stroke-linejoin:miter;stroke:rgb(29.803922%,29.803922%,29.803922%);stroke-opacity:1;stroke-miterlimit:4;" d="M 33.213387 116.362195 C 33.213387 170.04994 -10.306225 213.569552 -63.99397 213.569552 C -117.681715 213.569552 -161.201327 170.04994 -161.201327 116.362195 C -161.201327 62.67445 -117.681715 19.154838 -63.99397 19.154838 C -10.306225 19.154838 33.213387 62.67445 33.213387 116.362195 Z M 33.213387 116.362195 " transform="matrix(0.163271,0,0,0.163271,43.04989,13.001486)"/>
<path style="fill:none;stroke-width:0.814285;stroke-linecap:butt;stroke-linejoin:miter;stroke:rgb(29.803922%,29.803922%,29.803922%);stroke-opacity:1;stroke-miterlimit:4;" d="M 29.146133 116.362195 C 29.146133 167.800988 -12.555177 209.502298 -63.99397 209.502298 C -115.432763 209.502298 -157.134074 167.800988 -157.134074 116.362195 C -157.134074 64.923402 -115.432763 23.222092 -63.99397 23.222092 C -12.555177 23.222092 29.146133 64.923402 29.146133 116.362195 Z M 29.146133 116.362195 " transform="matrix(0.163271,0,0,0.163271,43.04989,13.001486)"/>
<path style="fill:none;stroke-width:4.071428;stroke-linecap:butt;stroke-linejoin:miter;stroke:rgb(29.803922%,29.803922%,29.803922%);stroke-opacity:1;stroke-miterlimit:4;" d="M 25.07888 116.362195 C 25.07888 165.552036 -14.804129 205.435045 -63.99397 205.435045 C -113.183812 205.435045 -153.06682 165.552036 -153.06682 116.362195 C -153.06682 67.172354 -113.183812 27.289345 -63.99397 27.289345 C -14.804129 27.289345 25.07888 67.172354 25.07888 116.362195 Z M 25.07888 116.362195 " transform="matrix(0.163271,0,0,0.163271,43.04989,13.001486)"/>
<path style="fill:none;stroke-width:0.814286;stroke-linecap:butt;stroke-linejoin:miter;stroke:rgb(29.803922%,29.803922%,29.803922%);stroke-opacity:1;stroke-miterlimit:4;" d="M 20.987701 116.362195 C 20.987701 163.303084 -17.053081 201.367791 -63.99397 201.367791 C -110.93486 201.367791 -148.999567 163.303084 -148.999567 116.362195 C -148.999567 69.421305 -110.93486 31.356598 -63.99397 31.356598 C -17.053081 31.356598 20.987701 69.421305 20.987701 116.362195 Z M 20.987701 116.362195 " transform="matrix(0.163271,0,0,0.163271,43.04989,13.001486)"/>
<path style="fill:none;stroke-width:0.814286;stroke-linecap:butt;stroke-linejoin:miter;stroke:rgb(29.803922%,29.803922%,29.803922%);stroke-opacity:1;stroke-miterlimit:4;" d="M 16.920448 116.362195 C 16.920448 161.054133 -19.302033 197.276613 -63.99397 197.276613 C -108.685908 197.276613 -144.932313 161.054133 -144.932313 116.362195 C -144.932313 71.670257 -108.685908 35.447777 -63.99397 35.447777 C -19.302033 35.447777 16.920448 71.670257 16.920448 116.362195 Z M 16.920448 116.362195 " transform="matrix(0.163271,0,0,0.163271,43.04989,13.001486)"/>
<path style="fill:none;stroke-width:0.814286;stroke-linecap:butt;stroke-linejoin:miter;stroke:rgb(29.803922%,29.803922%,29.803922%);stroke-opacity:1;stroke-miterlimit:4;" d="M 12.853195 116.362195 C 12.853195 158.805181 -21.550984 193.20936 -63.99397 193.20936 C -106.436956 193.20936 -140.86506 158.805181 -140.86506 116.362195 C -140.86506 73.919209 -106.436956 39.51503 -63.99397 39.51503 C -21.550984 39.51503 12.853195 73.919209 12.853195 116.362195 Z M 12.853195 116.362195 " transform="matrix(0.163271,0,0,0.163271,43.04989,13.001486)"/>
<path style="fill:none;stroke-width:0.814286;stroke-linecap:butt;stroke-linejoin:miter;stroke:rgb(29.803922%,29.803922%,29.803922%);stroke-opacity:1;stroke-miterlimit:4;" d="M 8.785941 116.362195 C 8.785941 156.556229 -23.799936 189.142106 -63.99397 189.142106 C -104.188004 189.142106 -136.797806 156.556229 -136.797806 116.362195 C -136.797806 76.168161 -104.188004 43.582284 -63.99397 43.582284 C -23.799936 43.582284 8.785941 76.168161 8.785941 116.362195 Z M 8.785941 116.362195 " transform="matrix(0.163271,0,0,0.163271,43.04989,13.001486)"/>
<path style="fill:none;stroke-width:0.814286;stroke-linecap:butt;stroke-linejoin:miter;stroke:rgb(29.803922%,29.803922%,29.803922%);stroke-opacity:1;stroke-miterlimit:4;" d="M 4.718688 116.362195 C 4.718688 154.307277 -26.048888 185.074853 -63.99397 185.074853 C -101.939052 185.074853 -132.706628 154.307277 -132.706628 116.362195 C -132.706628 78.417113 -101.939052 47.649537 -63.99397 47.649537 C -26.048888 47.649537 4.718688 78.417113 4.718688 116.362195 Z M 4.718688 116.362195 " transform="matrix(0.163271,0,0,0.163271,43.04989,13.001486)"/>
<path style="fill:none;stroke-width:0.814286;stroke-linecap:butt;stroke-linejoin:miter;stroke:rgb(29.803922%,29.803922%,29.803922%);stroke-opacity:1;stroke-miterlimit:4;" d="M 0.651434 116.362195 C 0.651434 152.058325 -28.29784 181.007599 -63.99397 181.007599 C -99.6901 181.007599 -128.639375 152.058325 -128.639375 116.362195 C -128.639375 80.666065 -99.6901 51.716791 -63.99397 51.716791 C -28.29784 51.716791 0.651434 80.666065 0.651434 116.362195 Z M 0.651434 116.362195 " transform="matrix(0.163271,0,0,0.163271,43.04989,13.001486)"/>
<path style="fill:none;stroke-width:4.071428;stroke-linecap:butt;stroke-linejoin:miter;stroke:rgb(29.803922%,29.803922%,29.803922%);stroke-opacity:1;stroke-miterlimit:4;" d="M 80.537077 116.362195 C 80.537077 196.176062 15.819897 260.893242 -63.99397 260.893242 C -143.831762 260.893242 -208.525017 196.176062 -208.525017 116.362195 C -208.525017 36.548328 -143.831762 -28.168852 -63.99397 -28.168852 C 15.819897 -28.168852 80.537077 36.548328 80.537077 116.362195 Z M 80.537077 116.362195 " transform="matrix(0.163271,0,0,0.163271,43.04989,13.001486)"/>
<path style=" stroke:none;fill-rule:nonzero;fill:rgb(29.019608%,68.235294%,90.196078%);fill-opacity:0.980392;" d="M 14.835938 12.242188 C 14.835938 14.277344 13.1875 15.925781 11.152344 15.925781 C 9.117188 15.925781 7.46875 14.277344 7.46875 12.242188 C 7.46875 10.207031 9.117188 8.558594 11.152344 8.558594 C 13.1875 8.558594 14.835938 10.207031 14.835938 12.242188 Z M 14.835938 12.242188 "/>
<path style=" stroke:none;fill-rule:nonzero;fill:rgb(0%,0%,0%);fill-opacity:0.301961;" d="M 7.488281 11.871094 C 7.476562 11.996094 7.46875 12.117188 7.46875 12.242188 C 7.46875 14.277344 9.117188 15.925781 11.152344 15.925781 C 13.1875 15.925781 14.835938 14.277344 14.835938 12.242188 C 14.835938 12.128906 14.828125 12.015625 14.816406 11.902344 C 14.628906 13.785156 13.042969 15.21875 11.152344 15.21875 C 9.25 15.214844 7.660156 13.765625 7.488281 11.871094 Z M 7.488281 11.871094 "/>
<g clip-path="url(#clip1)" clip-rule="nonzero">
<path style="fill:none;stroke-width:15;stroke-linecap:round;stroke-linejoin:miter;stroke:rgb(0%,0%,0%);stroke-opacity:1;stroke-miterlimit:4;" d="M 722.136173 354.204833 L 754.826876 534.747423 C 754.826876 534.747423 760.479161 570.181633 783.947715 582.940593 C 807.416268 595.699553 842.652153 610.772314 842.652153 610.772314 " transform="matrix(0.118177,0,0,0.118177,-73.285022,-28.425184)"/>
</g>
<path style=" stroke:none;fill-rule:nonzero;fill:rgb(0%,0%,0%);fill-opacity:0.996078;" d="M 19.519531 42.511719 L 21.058594 39.300781 L 25.742188 41.550781 L 24.203125 44.761719 Z M 19.519531 42.511719 "/>
<path style=" stroke:none;fill-rule:nonzero;fill:rgb(0%,0%,0%);fill-opacity:0.996078;" d="M 9.242188 11.585938 L 10.421875 17.574219 L 12.503906 21.683594 L 14.121094 21.390625 L 14.550781 16.695312 L 13.375 10.710938 C 11.964844 10.328125 9.941406 10.953125 9.242188 11.585938 Z M 9.242188 11.585938 "/>
<path style="fill:none;stroke-width:10.857144;stroke-linecap:round;stroke-linejoin:miter;stroke:rgb(29.019608%,68.235294%,90.196078%);stroke-opacity:1;stroke-miterlimit:4;" d="M -194.361405 -1.683854 L -170.69956 128.994606 C -170.69956 128.994606 -166.608381 154.642227 -149.621617 163.877285 C -132.634853 173.112343 -107.130781 184.022152 -107.130781 184.022152 " transform="matrix(0.163271,0,0,0.163271,43.04989,13.001486)"/>
<path style=" stroke:none;fill-rule:nonzero;fill:rgb(0%,0%,0%);fill-opacity:1;" d="M 19.015625 42.277344 L 20.558594 39.066406 L 25.242188 41.316406 L 23.699219 44.527344 Z M 19.015625 42.277344 "/>
<path style=" stroke:none;fill-rule:nonzero;fill:rgb(16.862745%,60%,84.313725%);fill-opacity:0.996078;" d="M 18.78125 41.804688 L 20.320312 38.59375 L 25.003906 40.84375 L 23.464844 44.054688 Z M 18.78125 41.804688 "/>
<path style=" stroke:none;fill-rule:nonzero;fill:rgb(0%,0%,0%);fill-opacity:0.996078;" d="M 8.917969 11.792969 L 10.09375 17.78125 L 12.179688 21.890625 L 13.792969 21.597656 L 14.226562 16.902344 L 13.046875 10.914062 C 11.636719 10.535156 9.613281 11.160156 8.917969 11.792969 Z M 8.917969 11.792969 "/>
<path style=" stroke:none;fill-rule:nonzero;fill:rgb(16.862745%,60%,84.313725%);fill-opacity:0.996078;" d="M 8.734375 10.9375 L 9.910156 16.925781 L 11.996094 21.039062 L 13.613281 20.742188 L 14.042969 16.050781 L 12.863281 10.0625 C 11.453125 9.683594 9.429688 10.304688 8.734375 10.9375 Z M 8.734375 10.9375 "/>
</g>
</svg>
