
<svg xmlns="http://www.w3.org/2000/svg" xmlns:xlink="http://www.w3.org/1999/xlink" width="64px" height="64px" viewBox="0 0 64 64" version="1.1">
<defs>
<filter id="alpha" filterUnits="objectBoundingBox" x="0%" y="0%" width="100%" height="100%">
  <feColorMatrix type="matrix" in="SourceGraphic" values="0 0 0 0 1 0 0 0 0 1 0 0 0 0 1 0 0 0 1 0"/>
</filter>
<mask id="mask0">
  <g filter="url(#alpha)">
<rect x="0" y="0" width="64" height="64" style="fill:rgb(0%,0%,0%);fill-opacity:0.2;stroke:none;"/>
  </g>
</mask>
<clipPath id="clip1">
  <rect x="0" y="0" width="64" height="64"/>
</clipPath>
<g id="surface5" clip-path="url(#clip1)">
<path style=" stroke:none;fill-rule:nonzero;fill:rgb(0%,0%,0%);fill-opacity:1;" d="M 32.390625 16.527344 C 19.449219 16.527344 8.957031 24.019531 8.957031 33.261719 C 8.957031 42.507812 19.449219 50 32.390625 50 C 45.332031 50 55.820312 42.507812 55.820312 33.261719 C 55.820312 24.019531 45.332031 16.527344 32.390625 16.527344 Z M 35.738281 19.875 C 44.980469 19.875 52.472656 25.867188 52.472656 33.261719 C 52.472656 40.65625 44.980469 46.652344 35.738281 46.652344 C 26.492188 46.652344 19 40.65625 19 33.261719 C 19 25.867188 26.492188 19.875 35.738281 19.875 Z M 35.738281 19.875 "/>
</g>
</defs>
<g id="surface1">
<path style="fill-rule:nonzero;fill:rgb(100%,100%,100%);fill-opacity:1;stroke-width:27.910587;stroke-linecap:butt;stroke-linejoin:miter;stroke:rgb(0%,67.058824%,93.333333%);stroke-opacity:1;stroke-miterlimit:4;" d="M 83.21875 27.40625 L 428.78125 27.40625 C 459.59375 27.40625 484.59375 52.375 484.59375 83.21875 L 484.59375 428.78125 C 484.59375 459.59375 459.59375 484.59375 428.78125 484.59375 L 83.21875 484.59375 C 52.375 484.59375 27.40625 459.59375 27.40625 428.78125 L 27.40625 83.21875 C 27.40625 52.375 52.375 27.40625 83.21875 27.40625 Z M 83.21875 27.40625 " transform="matrix(0.125,0,0,0.125,0,0)"/>
<use xlink:href="#surface5" mask="url(#mask0)"/>
<path style=" stroke:none;fill-rule:evenodd;fill:rgb(11.764706%,38.431373%,69.803922%);fill-opacity:1;" d="M 46.449219 39.289062 C 46.449219 39.289062 47.1875 39.078125 47.929688 39.453125 C 48.183594 39.582031 48.628906 39.84375 48.949219 40.1875 C 49.261719 40.523438 49.414062 40.863281 49.414062 40.863281 L 52.472656 49.902344 L 44.105469 49.902344 C 44.105469 49.902344 42.207031 43.65625 40.207031 40.980469 C 39.808594 40.65625 39.472656 39.804688 39.082031 39.863281 L 35.734375 39.863281 L 35.734375 49.898438 L 29.039062 49.898438 L 29.039062 23.125 L 43.535156 23.125 C 45.109375 23.125 50.566406 24.796875 50.800781 31.492188 C 50.566406 38.1875 46.449219 39.382812 46.449219 39.382812 Z M 35.738281 29.722656 L 35.738281 34.746094 L 42.433594 34.746094 C 42.433594 34.746094 44.160156 34.597656 44.105469 32.066406 C 44.054688 29.664062 42.433594 29.726562 42.433594 29.726562 Z M 35.738281 29.722656 "/>
</g>
</svg>
