
<svg xmlns="http://www.w3.org/2000/svg" xmlns:xlink="http://www.w3.org/1999/xlink" width="64px" height="64px" viewBox="0 0 64 64" version="1.1">
<g id="surface3">
<path style="fill-rule:nonzero;fill:rgb(19.215686%,63.921569%,76.862745%);fill-opacity:1;stroke-width:28.016188;stroke-linecap:butt;stroke-linejoin:miter;stroke:rgb(23.921569%,80%,96.078431%);stroke-opacity:1;stroke-miterlimit:4;" d="M 82.5625 26.53125 L 429.4375 26.53125 C 460.375 26.53125 485.46875 51.625 485.46875 82.5625 L 485.46875 429.4375 C 485.46875 460.375 460.375 485.46875 429.4375 485.46875 L 82.5625 485.46875 C 51.625 485.46875 26.53125 460.375 26.53125 429.4375 L 26.53125 82.5625 C 26.53125 51.625 51.625 26.53125 82.5625 26.53125 Z M 82.5625 26.53125 " transform="matrix(0.125,0,0,0.125,0,0)"/>
<path style=" stroke:none;fill-rule:nonzero;fill:rgb(100%,100%,100%);fill-opacity:1;" d="M 35.417969 14.042969 L 28.203125 14.082031 L 28.402344 37.742188 L 22.425781 32.5 L 18.101562 36.382812 L 27.789062 44.878906 L 17.773438 44.878906 L 17.773438 49.957031 L 46.226562 49.957031 L 46.226562 44.878906 L 36.273438 44.878906 L 45.898438 36.242188 L 41.523438 32.402344 L 35.617188 37.703125 Z M 35.417969 14.042969 "/>
</g>
</svg>
