
<svg xmlns="http://www.w3.org/2000/svg" xmlns:xlink="http://www.w3.org/1999/xlink" width="64px" height="64px" viewBox="0 0 64 64" version="1.1">
<g id="surface1">
<path style="fill-rule:nonzero;fill:rgb(18.823529%,20.784314%,27.058824%);fill-opacity:1;stroke-width:27.936749;stroke-linecap:butt;stroke-linejoin:miter;stroke:rgb(18.823529%,20.784314%,27.058824%);stroke-opacity:1;stroke-miterlimit:4;" d="M 83.0625 27.1875 L 428.9375 27.1875 C 459.8125 27.1875 484.8125 52.1875 484.8125 83.0625 L 484.8125 428.9375 C 484.8125 459.8125 459.8125 484.8125 428.9375 484.8125 L 83.0625 484.8125 C 52.1875 484.8125 27.1875 459.8125 27.1875 428.9375 L 27.1875 83.0625 C 27.1875 52.1875 52.1875 27.1875 83.0625 27.1875 Z M 83.0625 27.1875 " transform="matrix(0.125,0,0,0.125,0,0)"/>
<path style=" stroke:none;fill-rule:nonzero;fill:rgb(18.823529%,20.784314%,27.058824%);fill-opacity:1;" d="M 8.691406 4.890625 L 53.910156 4.890625 C 56.402344 4.890625 58.425781 6.910156 58.425781 9.40625 L 58.425781 54.625 C 58.425781 57.117188 56.402344 59.140625 53.910156 59.140625 L 8.691406 59.140625 C 6.195312 59.140625 4.171875 57.117188 4.171875 54.625 L 4.171875 9.40625 C 4.171875 6.910156 6.195312 4.890625 8.691406 4.890625 Z M 8.691406 4.890625 "/>
<path style=" stroke:none;fill-rule:nonzero;fill:rgb(90.196078%,49.019608%,12.941176%);fill-opacity:1;" d="M 57.933594 8.960938 C 58 9.09375 58.054688 9.230469 58.105469 9.367188 C 58.054688 9.230469 58 9.09375 57.933594 8.960938 Z M 58.378906 19.558594 L 4.128906 34.09375 L 4.128906 43.988281 L 58.378906 29.453125 Z M 58.378906 19.558594 "/>
<path style=" stroke:none;fill-rule:nonzero;fill:rgb(95.294118%,61.176471%,6.666667%);fill-opacity:1;" d="M 49.296875 4.890625 L 29.039062 25.148438 L 39.699219 28.003906 L 58.425781 9.277344 C 58.359375 6.835938 56.371094 4.890625 53.910156 4.890625 Z M 49.296875 4.890625 "/>
<path style=" stroke:none;fill-rule:nonzero;fill:rgb(74.901961%,21.960784%,15.686275%);fill-opacity:1;" d="M 26.519531 34.300781 L 26.519531 59.140625 L 36.078125 59.140625 L 36.078125 34.300781 Z M 26.519531 34.300781 "/>
<path style=" stroke:none;fill-rule:nonzero;fill:rgb(94.117647%,76.078431%,4.705882%);fill-opacity:1;" d="M 34.988281 4.859375 L 27.425781 33.085938 C 29.234375 32.628906 31.121094 32.363281 33.078125 32.363281 C 34.558594 32.363281 36 32.515625 37.402344 32.78125 L 44.882812 4.859375 Z M 59.722656 6.179688 C 59.773438 6.230469 59.824219 6.28125 59.871094 6.335938 C 59.824219 6.28125 59.773438 6.230469 59.722656 6.179688 Z M 59.722656 6.179688 "/>
<path style=" stroke:none;fill-rule:nonzero;fill:rgb(90.196078%,49.019608%,12.941176%);fill-opacity:1;" d="M 18.5625 4.898438 L 26.042969 32.820312 C 27.445312 32.554688 28.886719 32.402344 30.367188 32.402344 C 32.324219 32.402344 34.210938 32.671875 36.019531 33.128906 L 28.457031 4.898438 Z M 57.011719 6.21875 C 57.0625 6.269531 57.113281 6.324219 57.160156 6.375 C 57.113281 6.324219 57.0625 6.269531 57.011719 6.21875 Z M 57.160156 57.675781 C 57.113281 57.730469 57.0625 57.78125 57.011719 57.832031 C 57.0625 57.78125 57.113281 57.730469 57.160156 57.675781 Z M 57.160156 57.675781 "/>
<path style=" stroke:none;fill-rule:nonzero;fill:rgb(95.294118%,61.176471%,6.666667%);fill-opacity:1;" d="M 8.691406 4.890625 C 6.1875 4.890625 4.171875 6.902344 4.171875 9.40625 L 4.171875 10.953125 L 26.042969 32.820312 C 27.472656 32.542969 28.949219 32.394531 30.460938 32.394531 C 34.941406 32.394531 39.105469 33.6875 42.628906 35.890625 L 11.628906 4.890625 Z M 57.105469 6.210938 C 57.15625 6.261719 57.207031 6.3125 57.253906 6.367188 C 57.207031 6.3125 57.15625 6.261719 57.105469 6.210938 Z M 57.253906 57.664062 C 57.207031 57.71875 57.15625 57.769531 57.105469 57.820312 C 57.15625 57.769531 57.207031 57.71875 57.253906 57.664062 Z M 57.253906 57.664062 "/>
<path style=" stroke:none;fill-rule:nonzero;fill:rgb(90.196078%,49.019608%,12.941176%);fill-opacity:1;" d="M 8.691406 7.460938 C 8.539062 7.460938 8.390625 7.46875 8.246094 7.480469 C 8.390625 7.46875 8.539062 7.460938 8.691406 7.460938 Z M 53.910156 7.460938 C 54.066406 7.460938 54.21875 7.46875 54.371094 7.484375 C 54.21875 7.46875 54.066406 7.460938 53.910156 7.460938 Z M 4.175781 21.058594 L 4.175781 30.957031 L 58.425781 45.492188 L 58.425781 35.597656 Z M 4.175781 21.058594 "/>
</g>
</svg>
