
<svg xmlns="http://www.w3.org/2000/svg" xmlns:xlink="http://www.w3.org/1999/xlink" width="64px" height="64px" viewBox="0 0 64 64" version="1.1">
<g id="surface1">
<path style="fill-rule:nonzero;fill:rgb(92.156863%,92.156863%,92.156863%);fill-opacity:1;stroke-width:28.520006;stroke-linecap:butt;stroke-linejoin:miter;stroke:rgb(92.156863%,92.156863%,92.156863%);stroke-opacity:1;stroke-miterlimit:4;" d="M 79.4375 22.40625 L 432.5625 22.40625 C 464.0625 22.40625 489.59375 47.9375 489.59375 79.4375 L 489.59375 432.5625 C 489.59375 464.0625 464.0625 489.59375 432.5625 489.59375 L 79.4375 489.59375 C 47.9375 489.59375 22.40625 464.0625 22.40625 432.5625 L 22.40625 79.4375 C 22.40625 47.9375 47.9375 22.40625 79.4375 22.40625 Z M 79.4375 22.40625 " transform="matrix(0.125,0,0,0.125,0,0)"/>
<path style=" stroke:none;fill-rule:nonzero;fill:rgb(25.490196%,25.490196%,25.490196%);fill-opacity:1;" d="M 11.699219 5.136719 C 8.074219 5.136719 5.136719 8.074219 5.136719 11.699219 L 5.136719 22.066406 L 16.332031 20.160156 L 14.222656 5.136719 Z M 19.230469 5.136719 L 21.226562 19.328125 L 35.773438 16.855469 L 42.285156 5.136719 Z M 47.960938 5.136719 L 40.316406 18.890625 L 47.992188 32.179688 L 58.863281 27.429688 L 58.863281 11.699219 C 58.863281 8.074219 55.925781 5.136719 52.300781 5.136719 Z M 36.269531 21.800781 L 20.816406 24.433594 L 18.816406 39.105469 L 33.121094 46.777344 L 44 35.191406 Z M 16.160156 25.222656 L 5.136719 27.101562 L 5.136719 51.242188 L 14.0625 40.601562 Z M 58.863281 32.84375 L 50.523438 36.488281 L 58.863281 50.933594 Z M 46.355469 39.269531 L 36.050781 50.238281 L 35.609375 58.863281 L 52.300781 58.863281 C 53.992188 58.863281 55.53125 58.222656 56.691406 57.175781 Z M 17.910156 43.734375 L 6.941406 56.816406 C 8.136719 58.074219 9.824219 58.863281 11.699219 58.863281 L 30.640625 58.863281 L 31.054688 50.785156 Z M 17.910156 43.734375 "/>
<path style="fill:none;stroke-width:12;stroke-linecap:butt;stroke-linejoin:miter;stroke:rgb(93.333333%,0%,0%);stroke-opacity:1;stroke-miterlimit:4;" d="M 11.379794 69.986038 L 30.634423 50.73141 C 36.097881 45.267952 46.075745 45.002902 51.829904 50.75706 L 61.705168 60.632324 " transform="matrix(0.456871,0,0,0.456871,3.101687,5.646525)"/>
<path style="fill:none;stroke-width:12;stroke-linecap:butt;stroke-linejoin:miter;stroke:rgb(93.333333%,0%,0%);stroke-opacity:1;stroke-miterlimit:4;" d="M 111.303791 50.54331 L 92.040613 69.806488 C 86.585705 75.261396 76.60784 75.534996 70.845132 69.772288 L 60.978417 59.905573 " transform="matrix(0.456871,0,0,0.456871,3.101687,5.646525)"/>
<path style="fill-rule:nonzero;fill:rgb(100%,0%,0%);fill-opacity:1;stroke-width:14;stroke-linecap:round;stroke-linejoin:round;stroke:rgb(93.333333%,0%,0%);stroke-opacity:1;stroke-miterlimit:4;" d="M 102.51275 45.032178 C 102.505691 39.067971 99.851313 34.225879 96.582757 34.23268 C 93.314201 34.225879 90.652764 39.061171 90.652764 45.032178 C 90.652764 51.003184 93.307142 55.845277 96.582757 55.845277 C 99.858372 55.845277 102.51275 51.003184 102.51275 45.032178 Z M 102.51275 45.032178 " transform="matrix(0.276666,0.276666,-0.287195,0.287195,37.778302,-8.654144)"/>
</g>
</svg>
