
<svg xmlns="http://www.w3.org/2000/svg" xmlns:xlink="http://www.w3.org/1999/xlink" width="64px" height="64px" viewBox="0 0 64 64" version="1.1">
<g id="surface1">
<path style="fill-rule:nonzero;fill:rgb(9.019608%,36.078431%,60%);fill-opacity:1;stroke-width:27.910587;stroke-linecap:butt;stroke-linejoin:miter;stroke:rgb(9.019608%,36.078431%,60%);stroke-opacity:1;stroke-miterlimit:4;" d="M 83.21875 27.40625 L 428.78125 27.40625 C 459.59375 27.40625 484.59375 52.375 484.59375 83.21875 L 484.59375 428.78125 C 484.59375 459.59375 459.59375 484.59375 428.78125 484.59375 L 83.21875 484.59375 C 52.375 484.59375 27.40625 459.59375 27.40625 428.78125 L 27.40625 83.21875 C 27.40625 52.375 52.375 27.40625 83.21875 27.40625 Z M 83.21875 27.40625 " transform="matrix(0.125,0,0,0.125,0,0)"/>
<path style=" stroke:none;fill-rule:nonzero;fill:rgb(100%,100%,100%);fill-opacity:1;" d="M 19.910156 7.863281 L 43.546875 7.863281 C 46.90625 7.863281 49.628906 10.074219 49.628906 12.796875 L 49.628906 49.847656 C 49.628906 52.570312 46.90625 54.78125 43.546875 54.78125 L 19.910156 54.78125 C 16.554688 54.78125 13.832031 52.570312 13.832031 49.847656 L 13.832031 12.796875 C 13.832031 10.074219 16.554688 7.863281 19.910156 7.863281 Z M 19.910156 7.863281 "/>
<path style=" stroke:none;fill-rule:nonzero;fill:rgb(13.72549%,54.117647%,81.176471%);fill-opacity:1;" d="M 12.042969 5.59375 C 8.480469 5.59375 5.59375 8.480469 5.59375 12.042969 L 5.59375 51.957031 C 5.59375 55.519531 8.480469 58.40625 12.042969 58.40625 L 51.957031 58.40625 C 55.519531 58.40625 58.40625 55.519531 58.40625 51.957031 L 58.40625 12.042969 C 58.40625 8.480469 55.519531 5.59375 51.957031 5.59375 Z M 31.792969 13.671875 C 34.753906 13.671875 37.125 14.453125 38.910156 16.011719 C 40.710938 17.570312 41.609375 19.628906 41.609375 22.1875 C 41.609375 23.40625 41.320312 24.574219 40.742188 25.683594 C 40.164062 26.773438 39.148438 28.011719 37.703125 29.394531 L 35.582031 31.46875 C 34.824219 32.226562 34.285156 32.820312 33.964844 33.253906 C 33.660156 33.671875 33.441406 34.082031 33.3125 34.484375 C 33.21875 34.820312 33.144531 35.230469 33.097656 35.714844 C 33.050781 36.195312 33.023438 36.855469 33.023438 37.691406 L 33.023438 40.65625 L 28.417969 40.65625 L 28.417969 36.941406 C 28.417969 35.320312 28.644531 33.984375 29.09375 32.941406 C 29.542969 31.894531 30.492188 30.683594 31.941406 29.300781 L 34.109375 27.152344 C 35.027344 26.300781 35.683594 25.496094 36.085938 24.742188 C 36.503906 23.984375 36.714844 23.214844 36.714844 22.425781 C 36.714844 20.996094 36.183594 19.839844 35.121094 18.953125 C 34.078125 18.070312 32.6875 17.628906 30.949219 17.628906 C 29.679688 17.628906 28.324219 17.910156 26.875 18.472656 C 25.445312 19.035156 23.949219 19.855469 22.390625 20.933594 L 22.390625 16.398438 C 23.902344 15.480469 25.429688 14.800781 26.972656 14.347656 C 28.53125 13.898438 30.140625 13.671875 31.792969 13.671875 Z M 28.273438 44.203125 L 33.167969 44.203125 L 33.167969 50.328125 L 28.273438 50.328125 Z M 28.273438 44.203125 "/>
</g>
</svg>
