
<svg xmlns="http://www.w3.org/2000/svg" xmlns:xlink="http://www.w3.org/1999/xlink" width="64px" height="64px" viewBox="0 0 64 64" version="1.1">
<g id="surface1">
<path style="fill-rule:nonzero;fill:rgb(20%,27.843137%,36.078431%);fill-opacity:1;stroke-width:27.537834;stroke-linecap:butt;stroke-linejoin:miter;stroke:rgb(20%,27.843137%,36.078431%);stroke-opacity:1;stroke-miterlimit:4;" d="M 85.53125 30.46875 L 426.46875 30.46875 C 456.875 30.46875 481.53125 55.125 481.53125 85.53125 L 481.53125 426.46875 C 481.53125 456.875 456.875 481.53125 426.46875 481.53125 L 85.53125 481.53125 C 55.125 481.53125 30.46875 456.875 30.46875 426.46875 L 30.46875 85.53125 C 30.46875 55.125 55.125 30.46875 85.53125 30.46875 Z M 85.53125 30.46875 " transform="matrix(0.125,0,0,0.125,0,0)"/>
<path style=" stroke:none;fill-rule:nonzero;fill:rgb(74.117647%,76.078431%,78.039216%);fill-opacity:1;" d="M 12.089844 5.65625 L 51.910156 5.65625 C 55.460938 5.65625 58.34375 8.539062 58.34375 12.089844 L 58.34375 51.910156 C 58.34375 55.460938 55.460938 58.34375 51.910156 58.34375 L 12.089844 58.34375 C 8.539062 58.34375 5.65625 55.460938 5.65625 51.910156 L 5.65625 12.089844 C 5.65625 8.539062 8.539062 5.65625 12.089844 5.65625 Z M 12.089844 5.65625 "/>
<path style="fill-rule:nonzero;fill:rgb(58.039216%,63.921569%,65.098039%);fill-opacity:1;stroke-width:10.50525;stroke-linecap:butt;stroke-linejoin:miter;stroke:rgb(20%,27.843137%,36.078431%);stroke-opacity:1;stroke-miterlimit:4;" d="M 96.71875 45.25 C 68.3125 45.25 45.25 68.3125 45.25 96.71875 L 45.25 162.5 L 466.75 162.5 L 466.75 96.71875 C 466.75 68.3125 443.6875 45.25 415.28125 45.25 Z M 96.71875 45.25 " transform="matrix(0.125,0,0,0.125,0,0)"/>
<path style=" stroke:none;fill-rule:nonzero;fill:rgb(20%,27.843137%,36.078431%);fill-opacity:1;" d="M 31.332031 5.652344 L 32.667969 5.652344 L 32.667969 20.316406 L 31.332031 20.316406 Z M 31.332031 5.652344 "/>
</g>
</svg>
