
<svg xmlns="http://www.w3.org/2000/svg" xmlns:xlink="http://www.w3.org/1999/xlink" width="64px" height="64px" viewBox="0 0 64 64" version="1.1">
<g id="surface1">
<path style="fill-rule:nonzero;fill:rgb(20%,20%,20%);fill-opacity:1;stroke-width:27.910587;stroke-linecap:butt;stroke-linejoin:miter;stroke:rgb(20%,20%,20%);stroke-opacity:1;stroke-miterlimit:4;" d="M -493.86598 -81.06832 L -148.30348 -81.06832 C -117.49098 -81.06832 -92.49098 -56.09957 -92.49098 -25.25582 L -92.49098 320.30668 C -92.49098 351.11918 -117.49098 376.11918 -148.30348 376.11918 L -493.86598 376.11918 C -524.70973 376.11918 -549.67848 351.11918 -549.67848 320.30668 L -549.67848 -25.25582 C -549.67848 -56.09957 -524.70973 -81.06832 -493.86598 -81.06832 Z M -493.86598 -81.06832 " transform="matrix(0.125,0,0,0.125,72.135591,13.559321)"/>
<path style=" stroke:none;fill-rule:nonzero;fill:rgb(95.294118%,87.058824%,77.254902%);fill-opacity:1;" d="M 11.835938 5.324219 L 52.164062 5.324219 C 55.761719 5.324219 58.675781 8.238281 58.675781 11.835938 L 58.675781 52.164062 C 58.675781 55.761719 55.761719 58.675781 52.164062 58.675781 L 11.835938 58.675781 C 8.238281 58.675781 5.324219 55.761719 5.324219 52.164062 L 5.324219 11.835938 C 5.324219 8.238281 8.238281 5.324219 11.835938 5.324219 Z M 11.835938 5.324219 "/>
<path style=" stroke:none;fill-rule:nonzero;fill:rgb(81.176471%,61.176471%,40.784314%);fill-opacity:1;" d="M 5.324219 13.234375 L 58.148438 13.234375 L 58.148438 13.691406 L 5.324219 13.691406 Z M 5.324219 13.234375 "/>
<path style=" stroke:none;fill-rule:nonzero;fill:rgb(81.176471%,61.176471%,40.784314%);fill-opacity:1;" d="M 5.324219 21.394531 L 58.148438 21.394531 L 58.148438 21.851562 L 5.324219 21.851562 Z M 5.324219 21.394531 "/>
<path style=" stroke:none;fill-rule:nonzero;fill:rgb(81.176471%,61.176471%,40.784314%);fill-opacity:1;" d="M 5.324219 29.554688 L 58.148438 29.554688 L 58.148438 30.007812 L 5.324219 30.007812 Z M 5.324219 29.554688 "/>
<path style=" stroke:none;fill-rule:nonzero;fill:rgb(81.176471%,61.176471%,40.784314%);fill-opacity:1;" d="M 5.324219 37.714844 L 58.148438 37.714844 L 58.148438 38.167969 L 5.324219 38.167969 Z M 5.324219 37.714844 "/>
<path style=" stroke:none;fill-rule:nonzero;fill:rgb(81.176471%,61.176471%,40.784314%);fill-opacity:1;" d="M 5.324219 45.871094 L 58.148438 45.871094 L 58.148438 46.328125 L 5.324219 46.328125 Z M 5.324219 45.871094 "/>
<path style=" stroke:none;fill-rule:nonzero;fill:rgb(90.196078%,49.803922%,45.098039%);fill-opacity:1;" d="M 17.363281 58.675781 L 17.363281 5.324219 L 18.140625 5.324219 L 18.140625 58.675781 Z M 17.363281 58.675781 "/>
<path style=" stroke:none;fill-rule:nonzero;fill:rgb(7.843137%,9.019608%,9.019608%);fill-opacity:1;" d="M 24.925781 22.335938 L 8.898438 22.335938 L 8.429688 28.167969 L 8.929688 28.167969 C 9.289062 23.800781 9.683594 23.035156 13.984375 23.035156 C 14.484375 23.035156 15.292969 23.035156 15.519531 23.035156 C 16.046875 23.113281 16.046875 23.433594 16.046875 24.042969 L 16.046875 38.390625 C 16.046875 39.34375 15.964844 39.632812 13.625 39.632812 L 12.839844 39.632812 L 12.839844 40.269531 C 14.167969 40.246094 15.558594 40.21875 16.917969 40.21875 C 18.277344 40.21875 19.667969 40.246094 20.996094 40.269531 L 20.996094 39.632812 L 20.222656 39.632812 C 17.921875 39.632812 17.835938 39.34375 17.835938 38.390625 L 17.835938 24.042969 C 17.835938 23.460938 17.835938 23.144531 18.335938 23.035156 L 19.859375 23.035156 C 24.105469 23.035156 24.523438 23.796875 24.882812 28.167969 L 25.378906 28.167969 "/>
<path style=" stroke:none;fill-rule:nonzero;fill:rgb(7.843137%,9.019608%,9.019608%);fill-opacity:1;" d="M 38.847656 39.351562 L 38.351562 39.351562 C 37.742188 43.261719 37.382812 45.382812 32.503906 45.382812 L 28.652344 45.382812 C 27.542969 45.382812 27.488281 45.25 27.488281 44.34375 L 27.488281 36.976562 L 30.109375 36.976562 C 32.726562 36.976562 32.976562 37.886719 32.976562 40.113281 L 33.421875 40.113281 L 33.421875 33.253906 L 32.976562 33.253906 C 32.976562 35.441406 32.726562 36.335938 30.109375 36.335938 L 27.488281 36.335938 L 27.488281 29.804688 C 27.488281 28.914062 27.542969 28.78125 28.652344 28.78125 L 32.445312 28.78125 C 36.738281 28.78125 37.238281 30.402344 37.628906 33.886719 L 38.128906 33.886719 L 37.460938 28.058594 L 23.410156 28.058594 L 23.410156 28.78125 C 25.375 28.78125 25.691406 28.78125 25.691406 29.964844 L 25.691406 44.191406 C 25.691406 45.375 25.378906 45.375 23.410156 45.375 L 23.410156 46.011719 L 37.851562 46.011719 "/>
<path style=" stroke:none;fill-rule:nonzero;fill:rgb(7.843137%,9.019608%,9.019608%);fill-opacity:1;" d="M 46.332031 30.296875 L 50.4375 24.65625 C 50.847656 24.101562 51.683594 22.964844 53.960938 22.9375 L 53.960938 22.300781 C 53.328125 22.347656 52.273438 22.347656 51.605469 22.347656 C 50.691406 22.347656 49.554688 22.347656 48.863281 22.300781 L 48.863281 22.9375 C 49.75 23.015625 49.96875 23.542969 49.96875 23.96875 C 49.96875 24.28125 49.832031 24.496094 49.636719 24.757812 L 45.972656 29.804688 L 41.867188 24.097656 C 41.671875 23.808594 41.648438 23.726562 41.648438 23.648438 C 41.648438 23.410156 41.949219 22.960938 42.867188 22.9375 L 42.867188 22.300781 C 41.980469 22.347656 40.621094 22.347656 39.707031 22.347656 C 38.988281 22.347656 37.601562 22.347656 36.933594 22.300781 L 36.933594 22.9375 C 38.457031 22.9375 38.953125 22.992188 39.566406 23.808594 L 44.921875 31.277344 L 40.09375 37.976562 C 38.902344 39.613281 37.097656 39.640625 36.570312 39.640625 L 36.570312 40.277344 C 37.203125 40.226562 38.257812 40.226562 38.925781 40.226562 C 39.671875 40.226562 40.976562 40.226562 41.667969 40.277344 L 41.667969 39.640625 C 40.8125 39.5625 40.5625 39.035156 40.5625 38.609375 C 40.5625 38.269531 40.699219 38.082031 40.835938 37.894531 L 45.277344 31.742188 L 50.105469 38.480469 C 50.324219 38.773438 50.324219 38.851562 50.324219 38.929688 C 50.324219 39.136719 50.074219 39.589844 49.101562 39.644531 L 49.101562 40.28125 C 49.992188 40.234375 51.347656 40.234375 52.261719 40.234375 C 52.980469 40.234375 54.367188 40.234375 55.042969 40.28125 L 55.042969 39.644531 C 53.265625 39.644531 52.984375 39.515625 52.433594 38.773438 "/>
<path style=" stroke:none;fill-rule:nonzero;fill:rgb(20%,20%,20%);fill-opacity:1;" d="M 9.597656 4.542969 L 14.027344 4.542969 L 14.027344 11.921875 L 9.597656 11.921875 Z M 9.597656 4.542969 "/>
<path style=" stroke:none;fill-rule:nonzero;fill:rgb(20%,20%,20%);fill-opacity:1;" d="M 22.882812 4.542969 L 27.308594 4.542969 L 27.308594 11.921875 L 22.882812 11.921875 Z M 22.882812 4.542969 "/>
<path style=" stroke:none;fill-rule:nonzero;fill:rgb(20%,20%,20%);fill-opacity:1;" d="M 36.164062 4.542969 L 40.589844 4.542969 L 40.589844 11.921875 L 36.164062 11.921875 Z M 36.164062 4.542969 "/>
<path style=" stroke:none;fill-rule:nonzero;fill:rgb(20%,20%,20%);fill-opacity:1;" d="M 49.445312 4.542969 L 53.875 4.542969 L 53.875 11.921875 L 49.445312 11.921875 Z M 49.445312 4.542969 "/>
</g>
</svg>
