<!-- color: #41afd2 -->
<svg xmlns="http://www.w3.org/2000/svg" xmlns:xlink="http://www.w3.org/1999/xlink" width="64px" height="64px" viewBox="0 0 64 64" version="1.1">
<defs>
<clipPath id="clip1">
  <path d="M 9.300781 11.695312 L 38.402344 11.695312 L 38.402344 46.828125 L 9.300781 46.828125 Z M 9.300781 11.695312 "/>
</clipPath>
<clipPath id="clip2">
  <path d="M 51.558594 29.203125 C 51.558594 47.738281 39.15625 62.753906 23.871094 62.753906 C 8.589844 62.753906 -3.816406 47.738281 -3.816406 29.203125 C -3.816406 10.664062 8.589844 -4.351562 23.871094 -4.351562 C 39.15625 -4.351562 51.558594 10.664062 51.558594 29.203125 Z M 51.558594 29.203125 "/>
</clipPath>
<clipPath id="clip3">
  <path d="M 9.300781 11.695312 L 23.984375 11.695312 L 23.984375 46.828125 L 9.300781 46.828125 Z M 9.300781 11.695312 "/>
</clipPath>
<clipPath id="clip4">
  <path d="M 51.558594 29.203125 C 51.558594 47.738281 39.15625 62.753906 23.871094 62.753906 C 8.589844 62.753906 -3.816406 47.738281 -3.816406 29.203125 C -3.816406 10.664062 8.589844 -4.351562 23.871094 -4.351562 C 39.15625 -4.351562 51.558594 10.664062 51.558594 29.203125 Z M 51.558594 29.203125 "/>
</clipPath>
<clipPath id="clip5">
  <path d="M 9.300781 11.695312 L 13.101562 11.695312 L 13.101562 46.828125 L 9.300781 46.828125 Z M 9.300781 11.695312 "/>
</clipPath>
<clipPath id="clip6">
  <path d="M 51.558594 29.203125 C 51.558594 47.738281 39.15625 62.753906 23.871094 62.753906 C 8.589844 62.753906 -3.816406 47.738281 -3.816406 29.203125 C -3.816406 10.664062 8.589844 -4.351562 23.871094 -4.351562 C 39.15625 -4.351562 51.558594 10.664062 51.558594 29.203125 Z M 51.558594 29.203125 "/>
</clipPath>
<clipPath id="clip7">
  <path d="M 34.601562 11.695312 L 38.402344 11.695312 L 38.402344 46.828125 L 34.601562 46.828125 Z M 34.601562 11.695312 "/>
</clipPath>
<clipPath id="clip8">
  <path d="M 51.558594 29.203125 C 51.558594 47.738281 39.15625 62.753906 23.871094 62.753906 C 8.589844 62.753906 -3.816406 47.738281 -3.816406 29.203125 C -3.816406 10.664062 8.589844 -4.351562 23.871094 -4.351562 C 39.15625 -4.351562 51.558594 10.664062 51.558594 29.203125 Z M 51.558594 29.203125 "/>
</clipPath>
<clipPath id="clip9">
  <path d="M 13 14.578125 L 21.492188 14.578125 L 21.492188 17.59375 L 13 17.59375 Z M 13 14.578125 "/>
</clipPath>
<clipPath id="clip10">
  <path d="M 51.558594 29.203125 C 51.558594 47.738281 39.15625 62.753906 23.871094 62.753906 C 8.589844 62.753906 -3.816406 47.738281 -3.816406 29.203125 C -3.816406 10.664062 8.589844 -4.351562 23.871094 -4.351562 C 39.15625 -4.351562 51.558594 10.664062 51.558594 29.203125 Z M 51.558594 29.203125 "/>
</clipPath>
<clipPath id="clip11">
  <path d="M 26.210938 40.796875 L 34.734375 40.796875 L 34.734375 43.8125 L 26.210938 43.8125 Z M 26.210938 40.796875 "/>
</clipPath>
<clipPath id="clip12">
  <path d="M 51.558594 29.203125 C 51.558594 47.738281 39.15625 62.753906 23.871094 62.753906 C 8.589844 62.753906 -3.816406 47.738281 -3.816406 29.203125 C -3.816406 10.664062 8.589844 -4.351562 23.871094 -4.351562 C 39.15625 -4.351562 51.558594 10.664062 51.558594 29.203125 Z M 51.558594 29.203125 "/>
</clipPath>
<clipPath id="clip13">
  <path d="M 13 21.789062 L 34.734375 21.789062 L 34.734375 23.492188 L 13 23.492188 Z M 13 21.789062 "/>
</clipPath>
<clipPath id="clip14">
  <path d="M 51.558594 29.203125 C 51.558594 47.738281 39.15625 62.753906 23.871094 62.753906 C 8.589844 62.753906 -3.816406 47.738281 -3.816406 29.203125 C -3.816406 10.664062 8.589844 -4.351562 23.871094 -4.351562 C 39.15625 -4.351562 51.558594 10.664062 51.558594 29.203125 Z M 51.558594 29.203125 "/>
</clipPath>
<clipPath id="clip15">
  <path d="M 13 26.246094 L 34.734375 26.246094 L 34.734375 27.820312 L 13 27.820312 Z M 13 26.246094 "/>
</clipPath>
<clipPath id="clip16">
  <path d="M 51.558594 29.203125 C 51.558594 47.738281 39.15625 62.753906 23.871094 62.753906 C 8.589844 62.753906 -3.816406 47.738281 -3.816406 29.203125 C -3.816406 10.664062 8.589844 -4.351562 23.871094 -4.351562 C 39.15625 -4.351562 51.558594 10.664062 51.558594 29.203125 Z M 51.558594 29.203125 "/>
</clipPath>
<clipPath id="clip17">
  <path d="M 13 30.570312 L 34.734375 30.570312 L 34.734375 32.144531 L 13 32.144531 Z M 13 30.570312 "/>
</clipPath>
<clipPath id="clip18">
  <path d="M 51.558594 29.203125 C 51.558594 47.738281 39.15625 62.753906 23.871094 62.753906 C 8.589844 62.753906 -3.816406 47.738281 -3.816406 29.203125 C -3.816406 10.664062 8.589844 -4.351562 23.871094 -4.351562 C 39.15625 -4.351562 51.558594 10.664062 51.558594 29.203125 Z M 51.558594 29.203125 "/>
</clipPath>
<clipPath id="clip19">
  <path d="M 13 35.027344 L 34.734375 35.027344 L 34.734375 36.601562 L 13 36.601562 Z M 13 35.027344 "/>
</clipPath>
<clipPath id="clip20">
  <path d="M 51.558594 29.203125 C 51.558594 47.738281 39.15625 62.753906 23.871094 62.753906 C 8.589844 62.753906 -3.816406 47.738281 -3.816406 29.203125 C -3.816406 10.664062 8.589844 -4.351562 23.871094 -4.351562 C 39.15625 -4.351562 51.558594 10.664062 51.558594 29.203125 Z M 51.558594 29.203125 "/>
</clipPath>
</defs>
<g id="surface1">
<path style="fill-rule:nonzero;fill:rgb(100%,100%,100%);fill-opacity:1;stroke-width:28.025423;stroke-linecap:butt;stroke-linejoin:miter;stroke:rgb(36.078431%,36.078431%,36.078431%);stroke-opacity:1;stroke-miterlimit:4;" d="M 82.5 26.46875 L 429.5 26.46875 C 460.4375 26.46875 485.53125 51.5625 485.53125 82.5 L 485.53125 429.5 C 485.53125 460.4375 460.4375 485.53125 429.5 485.53125 L 82.5 485.53125 C 51.5625 485.53125 26.46875 460.4375 26.46875 429.5 L 26.46875 82.5 C 26.46875 51.5625 51.5625 26.46875 82.5 26.46875 Z M 82.5 26.46875 " transform="matrix(0.125,0,0,0.125,0,0)"/>
<path style=" stroke:none;fill-rule:nonzero;fill:rgb(78.039216%,43.921569%,20.784314%);fill-opacity:1;" d="M 10.511719 7.570312 L 37.230469 7.570312 C 39.265625 7.570312 40.914062 9.21875 40.914062 11.253906 L 40.914062 44.976562 C 40.914062 47.011719 39.265625 48.660156 37.230469 48.660156 L 10.511719 48.660156 C 8.480469 48.660156 6.828125 47.011719 6.828125 44.976562 L 6.828125 11.253906 C 6.828125 9.21875 8.480469 7.570312 10.511719 7.570312 Z M 10.511719 7.570312 "/>
<g clip-path="url(#clip1)" clip-rule="nonzero">
<g clip-path="url(#clip2)" clip-rule="nonzero">
<path style=" stroke:none;fill-rule:nonzero;fill:rgb(100%,100%,100%);fill-opacity:1;" d="M 11.835938 11.695312 L 35.910156 11.695312 C 37.238281 11.695312 38.316406 13.003906 38.316406 14.613281 L 38.316406 43.789062 C 38.316406 45.402344 37.238281 46.707031 35.910156 46.707031 L 11.835938 46.707031 C 10.503906 46.707031 9.425781 45.402344 9.425781 43.789062 L 9.425781 14.613281 C 9.425781 13.003906 10.503906 11.695312 11.835938 11.695312 M 11.835938 11.695312 "/>
</g>
</g>
<g clip-path="url(#clip3)" clip-rule="nonzero">
<g clip-path="url(#clip4)" clip-rule="nonzero">
<path style=" stroke:none;fill-rule:nonzero;fill:rgb(98.039216%,92.156863%,81.176471%);fill-opacity:1;" d="M 11.835938 11.695312 C 10.5 11.695312 9.425781 12.996094 9.425781 14.613281 L 9.425781 43.789062 C 9.425781 45.40625 10.5 46.707031 11.835938 46.707031 L 23.871094 46.707031 L 23.871094 11.695312 M 11.835938 11.695312 "/>
</g>
</g>
<g clip-path="url(#clip5)" clip-rule="nonzero">
<g clip-path="url(#clip6)" clip-rule="nonzero">
<path style=" stroke:none;fill-rule:nonzero;fill:rgb(100%,100%,100%);fill-opacity:1;" d="M 11.835938 11.695312 C 10.5 11.695312 9.425781 12.996094 9.425781 14.613281 L 9.425781 43.789062 C 9.425781 45.40625 10.5 46.707031 11.835938 46.707031 L 13.039062 46.707031 C 11.703125 46.707031 10.628906 45.40625 10.628906 43.789062 L 10.628906 14.613281 C 10.628906 12.996094 11.703125 11.695312 13.039062 11.695312 M 11.835938 11.695312 "/>
</g>
</g>
<g clip-path="url(#clip7)" clip-rule="nonzero">
<g clip-path="url(#clip8)" clip-rule="nonzero">
<path style=" stroke:none;fill-rule:nonzero;fill:rgb(98.039216%,92.156863%,81.176471%);fill-opacity:1;" d="M 34.707031 11.695312 C 36.042969 11.695312 37.113281 12.996094 37.113281 14.613281 L 37.113281 43.789062 C 37.113281 45.40625 36.042969 46.707031 34.707031 46.707031 L 35.910156 46.707031 C 37.246094 46.707031 38.316406 45.40625 38.316406 43.789062 L 38.316406 14.613281 C 38.316406 12.996094 37.246094 11.695312 35.910156 11.695312 M 34.707031 11.695312 "/>
</g>
</g>
<g clip-path="url(#clip9)" clip-rule="nonzero">
<g clip-path="url(#clip10)" clip-rule="nonzero">
<path style=" stroke:none;fill-rule:nonzero;fill:rgb(16.862745%,16.862745%,16.862745%);fill-opacity:0.4;" d="M 13.039062 14.613281 L 21.464844 14.613281 L 21.464844 17.53125 L 13.039062 17.53125 M 13.039062 14.613281 "/>
</g>
</g>
<g clip-path="url(#clip11)" clip-rule="nonzero">
<g clip-path="url(#clip12)" clip-rule="nonzero">
<path style=" stroke:none;fill-rule:nonzero;fill:rgb(16.862745%,16.862745%,16.862745%);fill-opacity:0.4;" d="M 26.28125 40.871094 L 34.707031 40.871094 L 34.707031 43.789062 L 26.28125 43.789062 M 26.28125 40.871094 "/>
</g>
</g>
<g clip-path="url(#clip13)" clip-rule="nonzero">
<g clip-path="url(#clip14)" clip-rule="nonzero">
<path style=" stroke:none;fill-rule:nonzero;fill:rgb(16.862745%,16.862745%,16.862745%);fill-opacity:0.4;" d="M 13.039062 21.90625 L 34.707031 21.90625 L 34.707031 23.367188 L 13.039062 23.367188 M 13.039062 21.90625 "/>
</g>
</g>
<g clip-path="url(#clip15)" clip-rule="nonzero">
<g clip-path="url(#clip16)" clip-rule="nonzero">
<path style=" stroke:none;fill-rule:nonzero;fill:rgb(16.862745%,16.862745%,16.862745%);fill-opacity:0.4;" d="M 13.039062 26.285156 L 34.707031 26.285156 L 34.707031 27.742188 L 13.039062 27.742188 M 13.039062 26.285156 "/>
</g>
</g>
<g clip-path="url(#clip17)" clip-rule="nonzero">
<g clip-path="url(#clip18)" clip-rule="nonzero">
<path style=" stroke:none;fill-rule:nonzero;fill:rgb(16.862745%,16.862745%,16.862745%);fill-opacity:0.4;" d="M 13.039062 30.660156 L 34.707031 30.660156 L 34.707031 32.121094 L 13.039062 32.121094 M 13.039062 30.660156 "/>
</g>
</g>
<g clip-path="url(#clip19)" clip-rule="nonzero">
<g clip-path="url(#clip20)" clip-rule="nonzero">
<path style=" stroke:none;fill-rule:nonzero;fill:rgb(16.862745%,16.862745%,16.862745%);fill-opacity:0.4;" d="M 13.039062 35.039062 L 34.707031 35.039062 L 34.707031 36.496094 L 13.039062 36.496094 M 13.039062 35.039062 "/>
</g>
</g>
<path style=" stroke:none;fill-rule:nonzero;fill:rgb(27.843137%,20.784314%,20.784314%);fill-opacity:1;" d="M 17.726562 8.976562 L 29.210938 8.976562 L 29.210938 10.828125 L 17.726562 10.828125 Z M 17.726562 8.976562 "/>
<path style=" stroke:none;fill-rule:nonzero;fill:rgb(65.882353%,61.960784%,54.901961%);fill-opacity:1;" d="M 20.574219 5.917969 L 26.765625 5.917969 L 26.765625 9.902344 L 20.574219 9.902344 Z M 20.574219 5.917969 "/>
<path style=" stroke:none;fill-rule:nonzero;fill:rgb(20%,20%,20%);fill-opacity:1;" d="M 42.882812 30.339844 C 38.859375 30.339844 35.570312 33.785156 35.1875 38.226562 L 50.578125 38.226562 C 50.195312 33.785156 46.90625 30.339844 42.882812 30.339844 Z M 31.28125 39.453125 C 30.425781 39.453125 29.734375 40.238281 29.734375 41.207031 C 29.734375 42.179688 30.425781 42.960938 31.28125 42.960938 L 54.484375 42.960938 C 55.34375 42.960938 56.03125 42.179688 56.03125 41.207031 C 56.03125 40.238281 55.34375 39.453125 54.484375 39.453125 Z M 32.054688 46.117188 C 31.199219 46.117188 30.507812 46.898438 30.507812 47.871094 C 30.507812 48.839844 31.199219 49.621094 32.054688 49.621094 L 38.929688 49.621094 L 33.214844 53.363281 C 32.472656 53.847656 32.222656 54.914062 32.648438 55.757812 C 33.078125 56.597656 34.019531 56.882812 34.761719 56.398438 L 41.722656 51.84375 L 41.722656 46.117188 Z M 44.042969 46.117188 L 44.042969 51.84375 L 51.003906 56.398438 C 51.746094 56.882812 52.6875 56.597656 53.117188 55.757812 C 53.542969 54.914062 53.292969 53.847656 52.550781 53.363281 L 46.835938 49.621094 L 53.710938 49.621094 C 54.566406 49.621094 55.257812 48.839844 55.257812 47.871094 C 55.257812 46.898438 54.566406 46.117188 53.710938 46.117188 Z M 44.042969 46.117188 "/>
<path style=" stroke:none;fill-rule:nonzero;fill:rgb(83.137255%,9.803922%,9.803922%);fill-opacity:1;" d="M 33.601562 39.453125 L 33.601562 47.34375 L 33.605469 47.34375 C 33.605469 47.375 33.601562 47.402344 33.601562 47.429688 C 33.601562 52.53125 36.945312 56.636719 41.097656 56.636719 L 41.722656 56.636719 L 41.722656 44.363281 L 44.042969 44.363281 L 44.042969 56.636719 L 44.667969 56.636719 C 48.820312 56.636719 52.164062 52.53125 52.164062 47.429688 C 52.164062 47.402344 52.160156 47.375 52.160156 47.34375 L 52.164062 47.34375 L 52.164062 39.453125 Z M 33.601562 39.453125 "/>
<path style=" stroke:none;fill-rule:nonzero;fill:rgb(97.254902%,97.254902%,97.254902%);fill-opacity:1;" d="M 48.722656 43.167969 C 48.722656 43.785156 48.222656 44.285156 47.605469 44.285156 C 46.984375 44.285156 46.484375 43.785156 46.484375 43.167969 C 46.484375 42.546875 46.984375 42.046875 47.605469 42.046875 C 48.222656 42.046875 48.722656 42.546875 48.722656 43.167969 Z M 48.722656 43.167969 "/>
<path style=" stroke:none;fill-rule:nonzero;fill:rgb(97.254902%,97.254902%,97.254902%);fill-opacity:1;" d="M 39.601562 51.886719 C 39.601562 52.507812 39.101562 53.007812 38.480469 53.007812 C 37.863281 53.007812 37.363281 52.507812 37.363281 51.886719 C 37.363281 51.269531 37.863281 50.769531 38.480469 50.769531 C 39.101562 50.769531 39.601562 51.269531 39.601562 51.886719 Z M 39.601562 51.886719 "/>
<path style=" stroke:none;fill-rule:nonzero;fill:rgb(97.254902%,97.254902%,97.254902%);fill-opacity:1;" d="M 43.761719 41.40625 C 43.761719 42.023438 43.261719 42.527344 42.644531 42.527344 C 42.023438 42.527344 41.523438 42.023438 41.523438 41.40625 C 41.523438 40.789062 42.023438 40.285156 42.644531 40.285156 C 43.261719 40.285156 43.761719 40.789062 43.761719 41.40625 Z M 43.761719 41.40625 "/>
<path style=" stroke:none;fill-rule:nonzero;fill:rgb(97.254902%,97.254902%,97.254902%);fill-opacity:1;" d="M 49.042969 51.488281 C 49.042969 52.105469 48.542969 52.609375 47.921875 52.609375 C 47.304688 52.609375 46.804688 52.105469 46.804688 51.488281 C 46.804688 50.871094 47.304688 50.367188 47.921875 50.367188 C 48.542969 50.367188 49.042969 50.871094 49.042969 51.488281 Z M 49.042969 51.488281 "/>
<path style=" stroke:none;fill-rule:nonzero;fill:rgb(97.254902%,97.254902%,97.254902%);fill-opacity:1;" d="M 51.285156 46.207031 C 51.285156 46.828125 50.78125 47.328125 50.164062 47.328125 C 49.546875 47.328125 49.042969 46.828125 49.042969 46.207031 C 49.042969 45.589844 49.546875 45.085938 50.164062 45.085938 C 50.78125 45.085938 51.285156 45.589844 51.285156 46.207031 Z M 51.285156 46.207031 "/>
<path style=" stroke:none;fill-rule:nonzero;fill:rgb(97.254902%,97.254902%,97.254902%);fill-opacity:1;" d="M 47.125 48.128906 C 47.125 48.746094 46.621094 49.246094 46.003906 49.246094 C 45.386719 49.246094 44.882812 48.746094 44.882812 48.128906 C 44.882812 47.507812 45.386719 47.007812 46.003906 47.007812 C 46.621094 47.007812 47.125 47.507812 47.125 48.128906 Z M 47.125 48.128906 "/>
<path style=" stroke:none;fill-rule:nonzero;fill:rgb(97.254902%,97.254902%,97.254902%);fill-opacity:1;" d="M 38.320312 42.445312 C 38.320312 43.066406 37.820312 43.566406 37.203125 43.566406 C 36.582031 43.566406 36.082031 43.066406 36.082031 42.445312 C 36.082031 41.828125 36.582031 41.328125 37.203125 41.328125 C 37.820312 41.328125 38.320312 41.828125 38.320312 42.445312 Z M 38.320312 42.445312 "/>
<path style=" stroke:none;fill-rule:nonzero;fill:rgb(97.254902%,97.254902%,97.254902%);fill-opacity:1;" d="M 40.402344 46.765625 C 40.402344 47.386719 39.902344 47.886719 39.28125 47.886719 C 38.664062 47.886719 38.160156 47.386719 38.160156 46.765625 C 38.160156 46.148438 38.664062 45.648438 39.28125 45.648438 C 39.902344 45.648438 40.402344 46.148438 40.402344 46.765625 Z M 40.402344 46.765625 "/>
<path style=" stroke:none;fill-rule:nonzero;fill:rgb(97.254902%,97.254902%,97.254902%);fill-opacity:1;" d="M 48.722656 43.167969 C 48.722656 43.785156 48.222656 44.285156 47.605469 44.285156 C 46.984375 44.285156 46.484375 43.785156 46.484375 43.167969 C 46.484375 42.546875 46.984375 42.046875 47.605469 42.046875 C 48.222656 42.046875 48.722656 42.546875 48.722656 43.167969 Z M 48.722656 43.167969 "/>
<path style=" stroke:none;fill-rule:nonzero;fill:rgb(97.254902%,97.254902%,97.254902%);fill-opacity:1;" d="M 37.042969 48.449219 C 37.042969 49.066406 36.539062 49.566406 35.921875 49.566406 C 35.304688 49.566406 34.800781 49.066406 34.800781 48.449219 C 34.800781 47.828125 35.304688 47.328125 35.921875 47.328125 C 36.539062 47.328125 37.042969 47.828125 37.042969 48.449219 Z M 37.042969 48.449219 "/>
</g>
</svg>
