<!-- color: #70bdea -->
<svg xmlns="http://www.w3.org/2000/svg" xmlns:xlink="http://www.w3.org/1999/xlink" width="64px" height="64px" viewBox="0 0 64 64" version="1.1">
<g id="surface1">
<path style="fill-rule:nonzero;fill:rgb(29.019608%,68.235294%,90.196078%);fill-opacity:1;stroke-width:28.480503;stroke-linecap:butt;stroke-linejoin:miter;stroke:rgb(18.039216%,45.098039%,60%);stroke-opacity:1;stroke-miterlimit:4;" d="M 79.6875 22.71875 L 432.3125 22.71875 C 463.75 22.71875 489.28125 48.25 489.28125 79.6875 L 489.28125 432.3125 C 489.28125 463.75 463.75 489.28125 432.3125 489.28125 L 79.6875 489.28125 C 48.25 489.28125 22.71875 463.75 22.71875 432.3125 L 22.71875 79.6875 C 22.71875 48.25 48.25 22.71875 79.6875 22.71875 Z M 79.6875 22.71875 " transform="matrix(0.125,0,0,0.125,0,0)"/>
<path style=" stroke:none;fill-rule:nonzero;fill:rgb(40%,40%,40%);fill-opacity:1;" d="M 50.597656 33.660156 C 50.597656 24.113281 42.671875 16.378906 32.894531 16.378906 C 23.117188 16.378906 15.191406 24.113281 15.191406 33.660156 C 15.191406 43.207031 23.117188 50.945312 32.894531 50.945312 C 42.671875 50.945312 50.597656 43.207031 50.597656 33.660156 Z M 50.597656 33.660156 "/>
<path style=" stroke:none;fill-rule:nonzero;fill:rgb(40%,40%,40%);fill-opacity:1;" d="M 29.097656 60.527344 C 28.621094 60.3125 28.117188 59.769531 27.890625 59.230469 C 27.773438 58.949219 27.65625 57.878906 27.558594 56.164062 C 27.472656 54.714844 27.363281 53.414062 27.3125 53.273438 C 27.242188 53.085938 26.910156 52.90625 26.082031 52.617188 C 25.457031 52.402344 24.515625 52.007812 23.992188 51.742188 C 23.464844 51.476562 22.921875 51.261719 22.78125 51.261719 C 22.625 51.261719 21.765625 51.960938 20.539062 53.082031 C 19.449219 54.085938 18.378906 54.996094 18.164062 55.105469 C 17.71875 55.332031 16.71875 55.371094 16.203125 55.179688 C 15.792969 55.023438 11.453125 50.75 11.175781 50.222656 C 10.898438 49.703125 10.929688 48.726562 11.238281 48.136719 C 11.378906 47.867188 12.296875 46.777344 13.277344 45.710938 C 14.335938 44.566406 15.0625 43.679688 15.0625 43.535156 C 15.0625 43.398438 14.847656 42.859375 14.582031 42.332031 C 14.316406 41.808594 13.925781 40.871094 13.707031 40.25 C 13.488281 39.625 13.222656 39.070312 13.113281 39.015625 C 13.003906 38.957031 11.730469 38.847656 10.28125 38.765625 C 8.59375 38.675781 7.460938 38.554688 7.132812 38.4375 C 6.507812 38.214844 5.785156 37.449219 5.683594 36.898438 C 5.644531 36.675781 5.625 35.019531 5.644531 33.222656 L 5.683594 29.957031 L 6.058594 29.484375 C 6.722656 28.652344 7.035156 28.570312 10.207031 28.375 C 12 28.265625 13.09375 28.148438 13.183594 28.054688 C 13.261719 27.976562 13.53125 27.359375 13.78125 26.6875 C 14.03125 26.011719 14.421875 25.089844 14.648438 24.636719 C 14.875 24.183594 15.0625 23.710938 15.0625 23.589844 C 15.0625 23.46875 14.3125 22.546875 13.394531 21.539062 C 12.476562 20.535156 11.597656 19.542969 11.445312 19.335938 C 11.007812 18.761719 10.859375 18.046875 11.03125 17.347656 C 11.164062 16.816406 11.402344 16.53125 13.394531 14.511719 C 14.617188 13.273438 15.816406 12.15625 16.066406 12.027344 C 16.648438 11.730469 17.570312 11.726562 18.148438 12.019531 C 18.390625 12.140625 19.457031 13.039062 20.515625 14.011719 C 21.574219 14.980469 22.511719 15.816406 22.597656 15.867188 C 22.691406 15.921875 23.261719 15.71875 23.953125 15.390625 C 24.613281 15.078125 25.597656 14.671875 26.144531 14.488281 C 26.882812 14.242188 27.171875 14.082031 27.273438 13.863281 C 27.347656 13.703125 27.476562 12.386719 27.5625 10.9375 C 27.71875 8.148438 27.816406 7.707031 28.390625 7.109375 C 29.027344 6.441406 29.398438 6.386719 32.972656 6.425781 L 36.226562 6.460938 L 36.734375 6.800781 C 37.613281 7.378906 37.71875 7.738281 37.925781 10.839844 C 38.023438 12.34375 38.132812 13.6875 38.167969 13.832031 C 38.214844 14.03125 38.480469 14.179688 39.355469 14.484375 C 39.972656 14.699219 40.964844 15.121094 41.558594 15.417969 C 42.152344 15.71875 42.6875 15.960938 42.746094 15.960938 C 42.800781 15.960938 43.753906 15.128906 44.859375 14.113281 C 45.96875 13.101562 47.078125 12.160156 47.328125 12.03125 C 47.917969 11.722656 48.800781 11.726562 49.445312 12.039062 C 49.753906 12.1875 50.796875 13.136719 52.105469 14.457031 C 54.355469 16.730469 54.53125 16.988281 54.535156 18.019531 C 54.535156 18.746094 54.210938 19.222656 52.277344 21.339844 C 51.226562 22.492188 50.367188 23.484375 50.367188 23.546875 C 50.367188 23.605469 50.640625 24.226562 50.976562 24.925781 C 51.3125 25.625 51.710938 26.601562 51.863281 27.101562 C 52.054688 27.71875 52.222656 28.039062 52.390625 28.109375 C 52.523438 28.164062 53.878906 28.289062 55.402344 28.386719 C 58.421875 28.574219 58.90625 28.699219 59.414062 29.410156 C 59.890625 30.082031 59.949219 30.589844 59.90625 33.875 L 59.867188 37.023438 L 59.496094 37.546875 C 58.835938 38.484375 58.671875 38.535156 55.320312 38.753906 C 53.683594 38.859375 52.316406 38.976562 52.28125 39.011719 C 52.246094 39.046875 52.042969 39.570312 51.828125 40.171875 C 51.617188 40.777344 51.195312 41.761719 50.898438 42.355469 C 50.597656 42.953125 50.371094 43.511719 50.390625 43.601562 C 50.410156 43.691406 51.226562 44.636719 52.203125 45.703125 C 53.183594 46.769531 54.105469 47.886719 54.257812 48.183594 C 54.582031 48.820312 54.609375 49.492188 54.34375 50.128906 C 54.109375 50.691406 50.128906 54.734375 49.484375 55.070312 C 48.941406 55.351562 47.957031 55.382812 47.390625 55.136719 C 47.171875 55.039062 46.085938 54.128906 44.972656 53.113281 C 43.859375 52.09375 42.863281 51.261719 42.753906 51.261719 C 42.644531 51.261719 42.019531 51.511719 41.359375 51.820312 C 40.703125 52.128906 39.726562 52.523438 39.195312 52.699219 C 38.457031 52.941406 38.210938 53.078125 38.164062 53.273438 C 38.132812 53.414062 38.023438 54.757812 37.925781 56.257812 C 37.703125 59.5625 37.578125 59.917969 36.429688 60.5 C 36.09375 60.667969 35.542969 60.699219 32.75 60.695312 C 30.28125 60.691406 29.375 60.648438 29.097656 60.527344 Z M 33.941406 45.863281 C 36.902344 45.554688 39.378906 44.371094 41.488281 42.261719 C 43.09375 40.652344 44.132812 38.851562 44.753906 36.574219 C 45.144531 35.148438 45.144531 32 44.75 30.554688 C 43.558594 26.175781 40.421875 22.949219 36.085938 21.644531 C 35.074219 21.339844 34.800781 21.3125 32.835938 21.300781 C 30.957031 21.292969 30.5625 21.328125 29.648438 21.578125 C 25.085938 22.824219 21.597656 26.488281 20.644531 31.039062 C 19.789062 35.125 21.039062 39.296875 24.023438 42.292969 C 25.585938 43.863281 27.613281 45.015625 29.808594 45.582031 C 30.4375 45.746094 31.324219 45.867188 32.589844 45.972656 C 32.691406 45.980469 33.300781 45.933594 33.941406 45.863281 Z M 30.898438 40.726562 C 27.773438 39.878906 25.585938 37.21875 25.394531 34.03125 C 25.257812 31.800781 25.976562 29.914062 27.558594 28.335938 C 30.441406 25.464844 35.046875 25.4375 37.894531 28.277344 C 40.238281 30.613281 40.800781 33.941406 39.34375 36.859375 C 38.105469 39.34375 35.820312 40.8125 33.019531 40.921875 C 32.066406 40.957031 31.597656 40.914062 30.898438 40.726562 Z M 34.398438 37.636719 C 35.261719 37.3125 36.289062 36.355469 36.722656 35.472656 C 37.027344 34.851562 37.066406 34.644531 37.066406 33.550781 C 37.066406 32.386719 37.042969 32.285156 36.644531 31.550781 C 35.839844 30.066406 34.648438 29.3125 32.960938 29.226562 C 31.605469 29.160156 30.792969 29.445312 29.816406 30.339844 C 28.574219 31.472656 28.082031 33.050781 28.480469 34.605469 C 28.824219 35.949219 29.554688 36.863281 30.785156 37.488281 C 31.929688 38.070312 33.109375 38.117188 34.398438 37.636719 Z M 34.398438 37.636719 "/>
<path style=" stroke:none;fill-rule:nonzero;fill:rgb(94.117647%,94.117647%,94.117647%);fill-opacity:1;" d="M 49.792969 32.050781 C 49.792969 22.503906 41.863281 14.765625 32.085938 14.765625 C 22.3125 14.765625 14.382812 22.503906 14.382812 32.050781 C 14.382812 41.59375 22.3125 49.332031 32.085938 49.332031 C 41.863281 49.332031 49.792969 41.59375 49.792969 32.050781 Z M 49.792969 32.050781 "/>
<path style=" stroke:none;fill-rule:nonzero;fill:rgb(94.117647%,94.117647%,94.117647%);fill-opacity:1;" d="M 28.292969 58.914062 C 27.816406 58.703125 27.3125 58.160156 27.085938 57.617188 C 26.96875 57.339844 26.851562 56.265625 26.753906 54.554688 C 26.667969 53.105469 26.558594 51.804688 26.507812 51.660156 C 26.4375 51.472656 26.105469 51.296875 25.277344 51.007812 C 24.652344 50.789062 23.710938 50.394531 23.183594 50.132812 C 22.660156 49.867188 22.117188 49.652344 21.976562 49.652344 C 21.820312 49.652344 20.960938 50.347656 19.734375 51.472656 C 18.644531 52.472656 17.574219 53.382812 17.359375 53.496094 C 16.914062 53.722656 15.914062 53.757812 15.398438 53.566406 C 14.988281 53.414062 10.648438 49.136719 10.371094 48.613281 C 10.09375 48.089844 10.121094 47.113281 10.433594 46.523438 C 10.574219 46.253906 11.492188 45.164062 12.472656 44.101562 C 13.527344 42.957031 14.257812 42.066406 14.257812 41.921875 C 14.257812 41.789062 14.039062 41.25 13.777344 40.722656 C 13.511719 40.199219 13.117188 39.257812 12.902344 38.636719 C 12.683594 38.015625 12.417969 37.460938 12.308594 37.40625 C 12.199219 37.347656 10.925781 37.238281 9.476562 37.15625 C 7.789062 37.0625 6.65625 36.945312 6.328125 36.828125 C 5.703125 36.605469 4.980469 35.835938 4.878906 35.285156 C 4.835938 35.0625 4.820312 33.410156 4.839844 31.613281 L 4.878906 28.347656 L 5.253906 27.875 C 5.917969 27.042969 6.230469 26.960938 9.402344 26.765625 C 11.195312 26.65625 12.285156 26.539062 12.375 26.445312 C 12.457031 26.367188 12.722656 25.75 12.972656 25.074219 C 13.222656 24.402344 13.613281 23.480469 13.84375 23.027344 C 14.070312 22.570312 14.257812 22.101562 14.257812 21.980469 C 14.257812 21.859375 13.507812 20.933594 12.589844 19.929688 C 11.671875 18.921875 10.792969 17.933594 10.636719 17.726562 C 10.203125 17.148438 10.054688 16.433594 10.226562 15.734375 C 10.359375 15.207031 10.597656 14.921875 12.589844 12.898438 C 13.808594 11.664062 15.011719 10.546875 15.261719 10.417969 C 15.84375 10.117188 16.765625 10.113281 17.34375 10.40625 C 17.585938 10.53125 18.652344 11.429688 19.710938 12.398438 C 20.765625 13.371094 21.707031 14.207031 21.792969 14.257812 C 21.886719 14.308594 22.457031 14.109375 23.148438 13.78125 C 23.808594 13.46875 24.792969 13.0625 25.339844 12.878906 C 26.078125 12.628906 26.367188 12.472656 26.46875 12.253906 C 26.542969 12.089844 26.671875 10.773438 26.753906 9.324219 C 26.914062 6.539062 27.011719 6.097656 27.585938 5.496094 C 28.222656 4.828125 28.589844 4.773438 32.164062 4.816406 L 35.421875 4.851562 L 35.929688 5.1875 C 36.804688 5.769531 36.914062 6.128906 37.117188 9.230469 C 37.21875 10.730469 37.328125 12.078125 37.359375 12.21875 C 37.410156 12.421875 37.675781 12.570312 38.546875 12.875 C 39.167969 13.089844 40.160156 13.511719 40.753906 13.808594 C 41.347656 14.105469 41.878906 14.351562 41.9375 14.351562 C 41.996094 14.351562 42.949219 13.519531 44.054688 12.503906 C 45.164062 11.488281 46.273438 10.550781 46.523438 10.421875 C 47.113281 10.113281 47.992188 10.113281 48.640625 10.429688 C 48.945312 10.574219 49.992188 11.527344 51.300781 12.847656 C 53.550781 15.121094 53.726562 15.378906 53.726562 16.40625 C 53.730469 17.136719 53.40625 17.613281 51.472656 19.730469 C 50.421875 20.882812 49.5625 21.875 49.5625 21.933594 C 49.5625 21.996094 49.835938 22.617188 50.171875 23.316406 C 50.507812 24.011719 50.90625 24.992188 51.058594 25.488281 C 51.25 26.109375 51.417969 26.425781 51.582031 26.5 C 51.71875 26.554688 53.074219 26.679688 54.59375 26.773438 C 57.617188 26.964844 58.101562 27.089844 58.609375 27.800781 C 59.085938 28.472656 59.140625 28.976562 59.101562 32.265625 L 59.0625 35.414062 L 58.691406 35.9375 C 58.03125 36.875 57.867188 36.921875 54.515625 37.140625 C 52.878906 37.25 51.511719 37.363281 51.476562 37.398438 C 51.441406 37.433594 51.238281 37.957031 51.023438 38.5625 C 50.808594 39.167969 50.390625 40.148438 50.089844 40.746094 C 49.792969 41.339844 49.5625 41.902344 49.585938 41.992188 C 49.605469 42.082031 50.421875 43.027344 51.398438 44.09375 C 52.378906 45.160156 53.300781 46.277344 53.453125 46.574219 C 53.777344 47.210938 53.804688 47.882812 53.539062 48.519531 C 53.304688 49.078125 49.324219 53.125 48.675781 53.460938 C 48.136719 53.742188 47.152344 53.769531 46.585938 53.523438 C 46.367188 53.429688 45.28125 52.519531 44.167969 51.503906 C 43.054688 50.484375 42.054688 49.652344 41.949219 49.652344 C 41.839844 49.652344 41.214844 49.902344 40.554688 50.210938 C 39.898438 50.515625 38.921875 50.914062 38.390625 51.089844 C 37.652344 51.332031 37.40625 51.46875 37.359375 51.664062 C 37.328125 51.804688 37.21875 53.148438 37.117188 54.648438 C 36.898438 57.949219 36.773438 58.308594 35.625 58.890625 C 35.289062 59.058594 34.738281 59.089844 31.945312 59.085938 C 29.472656 59.082031 28.570312 59.039062 28.292969 58.914062 Z M 33.132812 44.253906 C 36.097656 43.945312 38.574219 42.761719 40.683594 40.652344 C 42.289062 39.042969 43.324219 37.238281 43.949219 34.964844 C 44.339844 33.539062 44.339844 30.390625 43.945312 28.945312 C 42.75 24.5625 39.613281 21.339844 35.28125 20.03125 C 34.269531 19.730469 33.996094 19.699219 32.03125 19.691406 C 30.148438 19.683594 29.757812 19.71875 28.84375 19.964844 C 24.28125 21.210938 20.792969 24.878906 19.839844 29.425781 C 18.980469 33.515625 20.234375 37.683594 23.21875 40.683594 C 24.78125 42.253906 26.808594 43.40625 29.003906 43.972656 C 29.632812 44.132812 30.519531 44.257812 31.785156 44.359375 C 31.886719 44.371094 32.492188 44.320312 33.132812 44.253906 Z M 30.09375 39.117188 C 26.96875 38.269531 24.78125 35.609375 24.585938 32.417969 C 24.453125 30.191406 25.167969 28.304688 26.753906 26.726562 C 29.636719 23.855469 34.242188 23.828125 37.089844 26.667969 C 39.433594 29.003906 39.996094 32.328125 38.539062 35.246094 C 37.300781 37.734375 35.015625 39.199219 32.214844 39.308594 C 31.261719 39.347656 30.789062 39.304688 30.09375 39.117188 Z M 33.59375 36.023438 C 34.457031 35.703125 35.484375 34.746094 35.917969 33.863281 C 36.222656 33.238281 36.261719 33.03125 36.261719 31.941406 C 36.261719 30.777344 36.238281 30.675781 35.839844 29.9375 C 35.035156 28.453125 33.839844 27.703125 32.152344 27.617188 C 30.796875 27.550781 29.988281 27.835938 29.007812 28.730469 C 27.769531 29.863281 27.273438 31.441406 27.671875 32.996094 C 28.019531 34.339844 28.75 35.253906 29.976562 35.878906 C 31.125 36.457031 32.304688 36.507812 33.59375 36.023438 Z M 33.59375 36.023438 "/>
<path style=" stroke:none;fill-rule:nonzero;fill:rgb(100%,100%,100%);fill-opacity:1;" d="M 50.875 32 C 50.875 42.167969 42.824219 50.507812 32.660156 50.863281 C 22.5 51.21875 13.882812 43.464844 13.171875 33.320312 C 12.457031 23.179688 19.90625 14.296875 30.019531 13.230469 C 40.128906 12.160156 49.269531 19.296875 50.691406 29.363281 "/>
<path style=" stroke:none;fill-rule:evenodd;fill:rgb(20.784314%,78.039216%,43.921569%);fill-opacity:1;" d="M 32.019531 19.398438 C 31.953125 19.398438 31.882812 19.402344 31.8125 19.40625 C 29.6875 19.574219 28.492188 22.164062 29.386719 25.007812 C 28.300781 23.179688 26.886719 21.777344 25.097656 21.789062 C 24.957031 21.792969 24.808594 21.800781 24.660156 21.820312 C 22.519531 22.109375 22.21875 24.792969 24.460938 26.046875 C 24.949219 26.316406 25.425781 26.644531 25.890625 27.011719 C 25.109375 26.574219 24.320312 26.300781 23.550781 26.300781 C 23.03125 26.300781 22.519531 26.429688 22.035156 26.710938 C 20.484375 27.617188 21.011719 29.710938 22.988281 30.132812 C 22.460938 30.265625 21.984375 30.527344 21.582031 30.949219 C 20.328125 32.273438 21.554688 34.191406 23.691406 33.824219 C 23.886719 33.792969 24.089844 33.765625 24.296875 33.746094 C 23.785156 33.976562 23.375 34.335938 23.121094 34.867188 C 22.492188 36.164062 23.875 37.316406 25.398438 36.53125 C 26.585938 35.917969 28.132812 35.628906 29.460938 35.488281 L 29.675781 35.609375 L 29.445312 35.738281 C 29.445312 35.738281 29.441406 35.738281 29.445312 35.738281 L 29.78125 36.300781 L 29.445312 36.859375 C 29.441406 36.859375 29.445312 36.863281 29.445312 36.863281 L 29.675781 36.992188 L 29.445312 37.121094 C 29.445312 37.121094 29.441406 37.125 29.445312 37.125 L 29.78125 37.683594 L 29.445312 38.246094 C 29.441406 38.246094 29.445312 38.246094 29.445312 38.25 L 29.675781 38.378906 L 29.445312 38.507812 C 29.445312 38.507812 29.441406 38.507812 29.445312 38.511719 L 29.78125 39.070312 L 29.445312 39.628906 C 29.441406 39.632812 29.445312 39.632812 29.445312 39.632812 L 29.675781 39.761719 L 29.445312 39.890625 C 29.445312 39.890625 29.441406 39.894531 29.445312 39.894531 L 29.78125 40.457031 L 29.445312 41.015625 C 29.441406 41.015625 29.445312 41.015625 29.445312 41.019531 L 29.675781 41.148438 L 29.445312 41.277344 C 29.445312 41.277344 29.441406 41.277344 29.445312 41.28125 L 29.78125 41.839844 L 29.445312 42.398438 C 29.441406 42.402344 29.445312 42.402344 29.445312 42.402344 L 29.675781 42.53125 L 29.445312 42.664062 C 29.445312 42.664062 29.441406 42.664062 29.445312 42.664062 L 29.78125 43.226562 L 29.445312 43.785156 C 29.441406 43.785156 29.445312 43.789062 29.445312 43.789062 L 29.675781 43.917969 L 29.445312 44.046875 C 29.445312 44.046875 29.441406 44.050781 29.445312 44.050781 L 29.78125 44.609375 L 29.730469 44.691406 L 34.207031 44.691406 L 34.160156 44.609375 L 34.496094 44.050781 C 34.496094 44.050781 34.496094 44.046875 34.496094 44.046875 L 34.261719 43.917969 L 34.496094 43.789062 C 34.496094 43.789062 34.496094 43.785156 34.496094 43.785156 L 34.160156 43.226562 L 34.496094 42.664062 L 34.261719 42.53125 L 34.496094 42.402344 C 34.496094 42.402344 34.496094 42.402344 34.496094 42.398438 L 34.160156 41.839844 L 34.496094 41.28125 C 34.496094 41.277344 34.496094 41.277344 34.496094 41.277344 L 34.261719 41.148438 L 34.496094 41.019531 C 34.496094 41.015625 34.496094 41.015625 34.496094 41.015625 L 34.160156 40.453125 L 34.496094 39.894531 C 34.496094 39.894531 34.496094 39.890625 34.496094 39.890625 L 34.261719 39.761719 L 34.496094 39.632812 C 34.496094 39.632812 34.496094 39.632812 34.496094 39.628906 L 34.160156 39.070312 L 34.496094 38.511719 C 34.496094 38.507812 34.496094 38.507812 34.496094 38.507812 L 34.261719 38.378906 L 34.496094 38.25 C 34.496094 38.246094 34.496094 38.246094 34.496094 38.246094 L 34.160156 37.683594 L 34.496094 37.125 C 34.496094 37.125 34.496094 37.121094 34.496094 37.121094 L 34.261719 36.992188 L 34.496094 36.863281 C 34.496094 36.863281 34.496094 36.859375 34.496094 36.859375 L 34.160156 36.300781 L 34.496094 35.738281 L 34.261719 35.609375 L 34.488281 35.480469 C 35.828125 35.621094 37.398438 35.910156 38.601562 36.53125 C 40.125 37.316406 41.507812 36.164062 40.878906 34.867188 C 40.625 34.335938 40.214844 33.976562 39.703125 33.746094 C 39.910156 33.765625 40.113281 33.792969 40.308594 33.824219 C 42.445312 34.191406 43.671875 32.273438 42.417969 30.949219 C 42.015625 30.527344 41.539062 30.265625 41.011719 30.132812 C 42.988281 29.710938 43.511719 27.617188 41.964844 26.710938 C 40.765625 26.011719 39.417969 26.277344 38.109375 27.011719 C 38.574219 26.644531 39.050781 26.316406 39.539062 26.046875 C 41.78125 24.792969 41.480469 22.109375 39.339844 21.820312 C 37.21875 21.539062 35.589844 23.226562 34.390625 25.390625 C 35.414062 21.9375 34.003906 19.417969 32.019531 19.398438 Z M 32.019531 19.398438 "/>
<path style=" stroke:none;fill-rule:evenodd;fill:rgb(22.745098%,77.254902%,90.196078%);fill-opacity:1;" d="M 25.21875 15.605469 C 18.609375 18.347656 14.300781 24.796875 14.296875 31.949219 C 14.304688 41.0625 21.230469 48.679688 30.300781 49.554688 L 30.300781 46.148438 C 23.109375 45.285156 17.695312 39.191406 17.691406 31.949219 C 17.695312 26.691406 20.585938 21.859375 25.21875 19.367188 Z M 38.78125 15.617188 L 38.78125 19.355469 C 43.417969 21.851562 46.308594 26.6875 46.308594 31.949219 C 46.300781 39.1875 40.886719 45.28125 33.699219 46.140625 L 33.699219 49.570312 C 42.777344 48.691406 49.703125 41.066406 49.703125 31.949219 C 49.695312 24.800781 45.386719 18.355469 38.78125 15.617188 Z M 38.78125 15.617188 "/>
</g>
</svg>
