
<svg xmlns="http://www.w3.org/2000/svg" xmlns:xlink="http://www.w3.org/1999/xlink" width="64px" height="64px" viewBox="0 0 64 64" version="1.1">
<g id="surface1">
<path style="fill-rule:nonzero;fill:rgb(100%,100%,100%);fill-opacity:1;stroke-width:27.910587;stroke-linecap:butt;stroke-linejoin:miter;stroke:rgb(9.803922%,63.137255%,52.941176%);stroke-opacity:1;stroke-miterlimit:4;" d="M 85.38824 29.57574 L 430.95074 29.57574 C 461.76324 29.57574 486.76324 54.54449 486.76324 85.38824 L 486.76324 430.95074 C 486.76324 461.76324 461.76324 486.76324 430.95074 486.76324 L 85.38824 486.76324 C 54.54449 486.76324 29.57574 461.76324 29.57574 430.95074 L 29.57574 85.38824 C 29.57574 54.54449 54.54449 29.57574 85.38824 29.57574 Z M 85.38824 29.57574 " transform="matrix(0.125,0,0,0.125,-0.271186,-0.271186)"/>
<path style=" stroke:none;fill-rule:nonzero;fill:rgb(84.313725%,84.313725%,84.313725%);fill-opacity:1;" d="M 16.316406 41.609375 L 19.324219 41.609375 L 19.324219 46.871094 L 16.316406 46.871094 Z M 16.316406 41.609375 "/>
<path style=" stroke:none;fill-rule:nonzero;fill:rgb(84.313725%,84.313725%,84.313725%);fill-opacity:1;" d="M 18.886719 41.59375 L 21.894531 41.59375 L 21.894531 46.855469 L 18.886719 46.855469 Z M 18.886719 41.59375 "/>
<path style=" stroke:none;fill-rule:nonzero;fill:rgb(84.313725%,84.313725%,84.313725%);fill-opacity:1;" d="M 20.941406 41.59375 L 23.945312 41.59375 L 23.945312 46.855469 L 20.941406 46.855469 Z M 20.941406 41.59375 "/>
<path style=" stroke:none;fill-rule:nonzero;fill:rgb(97.254902%,87.058824%,40.784314%);fill-opacity:1;" d="M 16.71875 41.59375 L 19.726562 41.59375 L 19.726562 46.855469 L 16.71875 46.855469 Z M 16.71875 41.59375 "/>
<path style=" stroke:none;fill-rule:nonzero;fill:rgb(97.254902%,87.058824%,40.784314%);fill-opacity:1;" d="M 20.503906 41.59375 L 23.511719 41.59375 L 23.511719 46.855469 L 20.503906 46.855469 Z M 20.503906 41.59375 "/>
<path style=" stroke:none;fill-rule:nonzero;fill:rgb(43.921569%,80%,70.196078%);fill-opacity:1;" d="M 14.472656 19.503906 L 53.886719 19.503906 C 55.199219 19.503906 56.265625 20.570312 56.265625 21.882812 L 56.265625 40.714844 C 56.265625 42.027344 55.199219 43.09375 53.886719 43.09375 L 14.472656 43.09375 C 13.160156 43.09375 12.09375 42.027344 12.09375 40.714844 L 12.09375 21.882812 C 12.09375 20.570312 13.160156 19.503906 14.472656 19.503906 Z M 14.472656 19.503906 "/>
<path style=" stroke:none;fill-rule:nonzero;fill:rgb(84.313725%,84.313725%,84.313725%);fill-opacity:1;" d="M 6.109375 12.789062 L 6.109375 14.84375 L 11.835938 14.84375 L 11.835938 43.09375 L 13.972656 43.09375 L 13.972656 12.796875 L 13.046875 12.796875 L 13.046875 12.789062 Z M 6.109375 12.789062 "/>
<path style=" stroke:none;fill-rule:nonzero;fill:rgb(9.803922%,63.137255%,52.941176%);fill-opacity:1;" d="M 36.984375 26.4375 L 36.984375 25.40625 L 35.054688 25.40625 L 35.054688 21.941406 L 17.386719 21.941406 L 17.386719 25.40625 L 15.457031 25.40625 L 15.457031 26.4375 L 17.386719 26.4375 L 17.386719 28.824219 L 15.457031 28.824219 L 15.457031 29.855469 L 17.386719 29.855469 L 17.386719 32.445312 L 15.457031 32.445312 L 15.457031 33.480469 L 17.386719 33.480469 L 17.386719 35.542969 L 15.457031 35.542969 L 15.457031 36.578125 L 17.386719 36.578125 L 17.386719 39.613281 L 35.050781 39.613281 L 35.050781 36.578125 L 36.980469 36.578125 L 36.980469 35.542969 L 35.050781 35.542969 L 35.050781 33.480469 L 36.980469 33.480469 L 36.980469 32.445312 L 35.050781 32.445312 L 35.050781 29.855469 L 36.980469 29.855469 L 36.980469 28.824219 L 35.050781 28.824219 L 35.050781 26.4375 Z M 36.984375 26.4375 "/>
<path style=" stroke:none;fill-rule:nonzero;fill:rgb(9.803922%,63.137255%,52.941176%);fill-opacity:1;" d="M 41.710938 24.699219 L 41.375 24.710938 C 41.082031 24.722656 41.019531 24.734375 40.871094 24.804688 C 40.652344 24.910156 40.414062 25.148438 40.308594 25.367188 L 40.226562 25.535156 L 40.214844 31.03125 C 40.210938 34.984375 40.214844 36.566406 40.238281 36.675781 C 40.308594 37 40.628906 37.347656 40.972656 37.46875 C 41.085938 37.507812 41.210938 37.527344 41.425781 37.527344 L 41.726562 37.53125 L 41.765625 37.433594 C 41.835938 37.269531 41.96875 37.171875 42.140625 37.15625 C 42.332031 37.140625 42.472656 37.222656 42.554688 37.40625 L 42.613281 37.527344 L 43.761719 37.527344 L 44.144531 37.53125 L 44.144531 37.527344 L 45.046875 37.527344 L 45.046875 37.53125 L 45.367188 37.53125 L 45.367188 37.527344 L 46.242188 37.527344 L 46.242188 37.53125 L 47 37.53125 L 47 37.527344 L 47.875 37.527344 L 47.875 37.53125 L 48.195312 37.53125 L 48.195312 37.527344 L 49.097656 37.527344 L 49.097656 37.53125 L 51.007812 37.53125 L 51.066406 37.410156 C 51.144531 37.25 51.25 37.175781 51.425781 37.15625 C 51.660156 37.136719 51.898438 37.300781 51.898438 37.488281 C 51.898438 37.527344 51.921875 37.535156 52.054688 37.523438 C 52.382812 37.496094 52.769531 37.210938 52.9375 36.871094 L 53.019531 36.699219 L 53.027344 31.175781 C 53.035156 25.730469 53.035156 25.652344 52.976562 25.480469 C 52.835938 25.058594 52.386719 24.707031 51.996094 24.707031 C 51.917969 24.707031 51.898438 24.71875 51.898438 24.761719 C 51.898438 24.832031 51.769531 24.988281 51.664062 25.042969 C 51.558594 25.097656 51.394531 25.097656 51.292969 25.042969 C 51.191406 24.992188 51.0625 24.855469 51.039062 24.769531 L 51.019531 24.707031 L 42.613281 24.707031 L 42.554688 24.832031 C 42.398438 25.167969 41.9375 25.167969 41.777344 24.832031 Z M 41.710938 24.699219 "/>
<path style=" stroke:none;fill-rule:nonzero;fill:rgb(90.196078%,90.196078%,90.196078%);fill-opacity:1;" d="M 44.855469 27.601562 L 48.375 27.601562 C 48.851562 27.601562 49.238281 27.988281 49.238281 28.46875 L 49.238281 28.765625 C 49.238281 29.242188 48.851562 29.628906 48.375 29.628906 L 44.855469 29.628906 C 44.378906 29.628906 43.992188 29.242188 43.992188 28.765625 L 43.992188 28.46875 C 43.992188 27.988281 44.378906 27.601562 44.855469 27.601562 Z M 44.855469 27.601562 "/>
<path style=" stroke:none;fill-rule:nonzero;fill:rgb(90.196078%,90.196078%,90.196078%);fill-opacity:1;" d="M 45.316406 25.359375 L 45.316406 27.582031 C 45.316406 27.71875 45.207031 27.832031 45.070312 27.832031 L 44.984375 27.832031 C 44.847656 27.832031 44.738281 27.71875 44.738281 27.582031 L 44.738281 25.359375 C 44.738281 25.222656 44.847656 25.113281 44.984375 25.113281 L 45.070312 25.113281 C 45.207031 25.113281 45.316406 25.222656 45.316406 25.359375 Z M 45.316406 25.359375 "/>
<path style=" stroke:none;fill-rule:nonzero;fill:rgb(90.196078%,90.196078%,90.196078%);fill-opacity:1;" d="M 46.375 25.359375 L 46.375 27.582031 C 46.375 27.71875 46.261719 27.832031 46.125 27.832031 L 46.042969 27.832031 C 45.90625 27.832031 45.792969 27.71875 45.792969 27.582031 L 45.792969 25.359375 C 45.792969 25.222656 45.90625 25.109375 46.042969 25.109375 L 46.125 25.109375 C 46.261719 25.109375 46.375 25.222656 46.375 25.359375 Z M 46.375 25.359375 "/>
<path style=" stroke:none;fill-rule:nonzero;fill:rgb(90.196078%,90.196078%,90.196078%);fill-opacity:1;" d="M 47.417969 25.359375 L 47.417969 27.582031 C 47.417969 27.71875 47.308594 27.832031 47.171875 27.832031 L 47.085938 27.832031 C 46.949219 27.832031 46.839844 27.71875 46.839844 27.582031 L 46.839844 25.359375 C 46.839844 25.222656 46.949219 25.109375 47.085938 25.109375 L 47.171875 25.109375 C 47.308594 25.109375 47.417969 25.222656 47.417969 25.359375 Z M 47.417969 25.359375 "/>
<path style=" stroke:none;fill-rule:nonzero;fill:rgb(90.196078%,90.196078%,90.196078%);fill-opacity:1;" d="M 48.472656 25.351562 L 48.472656 27.578125 C 48.472656 27.714844 48.363281 27.828125 48.226562 27.828125 L 48.140625 27.828125 C 48.003906 27.828125 47.894531 27.714844 47.894531 27.578125 L 47.894531 25.351562 C 47.894531 25.214844 48.003906 25.105469 48.140625 25.105469 L 48.226562 25.105469 C 48.363281 25.105469 48.472656 25.214844 48.472656 25.351562 Z M 48.472656 25.351562 "/>
<path style=" stroke:none;fill-rule:nonzero;fill:rgb(90.196078%,90.196078%,90.196078%);fill-opacity:1;" d="M 50.125 29.296875 L 50.125 32.8125 C 50.125 33.292969 49.738281 33.679688 49.257812 33.679688 L 48.960938 33.679688 C 48.484375 33.679688 48.097656 33.292969 48.097656 32.8125 L 48.097656 29.296875 C 48.097656 28.816406 48.484375 28.429688 48.960938 28.429688 L 49.257812 28.429688 C 49.738281 28.429688 50.125 28.816406 50.125 29.296875 Z M 50.125 29.296875 "/>
<path style=" stroke:none;fill-rule:nonzero;fill:rgb(90.196078%,90.196078%,90.196078%);fill-opacity:1;" d="M 52.363281 29.753906 L 50.144531 29.753906 C 50.007812 29.753906 49.894531 29.644531 49.894531 29.507812 L 49.894531 29.421875 C 49.894531 29.285156 50.007812 29.175781 50.144531 29.175781 L 52.363281 29.175781 C 52.5 29.175781 52.613281 29.285156 52.613281 29.421875 L 52.613281 29.507812 C 52.613281 29.644531 52.5 29.753906 52.363281 29.753906 Z M 52.363281 29.753906 "/>
<path style=" stroke:none;fill-rule:nonzero;fill:rgb(90.196078%,90.196078%,90.196078%);fill-opacity:1;" d="M 52.367188 30.8125 L 50.144531 30.8125 C 50.007812 30.8125 49.894531 30.703125 49.894531 30.566406 L 49.894531 30.480469 C 49.894531 30.34375 50.007812 30.234375 50.144531 30.234375 L 52.367188 30.234375 C 52.503906 30.234375 52.617188 30.34375 52.617188 30.480469 L 52.617188 30.566406 C 52.617188 30.703125 52.503906 30.8125 52.367188 30.8125 Z M 52.367188 30.8125 "/>
<path style=" stroke:none;fill-rule:nonzero;fill:rgb(90.196078%,90.196078%,90.196078%);fill-opacity:1;" d="M 52.367188 31.859375 L 50.144531 31.859375 C 50.007812 31.859375 49.894531 31.746094 49.894531 31.609375 L 49.894531 31.527344 C 49.894531 31.390625 50.007812 31.277344 50.144531 31.277344 L 52.367188 31.277344 C 52.503906 31.277344 52.617188 31.390625 52.617188 31.527344 L 52.617188 31.609375 C 52.617188 31.746094 52.503906 31.859375 52.367188 31.859375 Z M 52.367188 31.859375 "/>
<path style=" stroke:none;fill-rule:nonzero;fill:rgb(90.196078%,90.196078%,90.196078%);fill-opacity:1;" d="M 52.371094 32.914062 L 50.148438 32.914062 C 50.011719 32.914062 49.898438 32.800781 49.898438 32.664062 L 49.898438 32.578125 C 49.898438 32.441406 50.011719 32.332031 50.148438 32.332031 L 52.371094 32.332031 C 52.507812 32.332031 52.621094 32.441406 52.621094 32.578125 L 52.621094 32.664062 C 52.621094 32.800781 52.507812 32.914062 52.371094 32.914062 Z M 52.371094 32.914062 "/>
<path style=" stroke:none;fill-rule:nonzero;fill:rgb(90.196078%,90.196078%,90.196078%);fill-opacity:1;" d="M 43.109375 29.320312 L 43.109375 32.835938 C 43.109375 33.316406 43.496094 33.703125 43.976562 33.703125 L 44.273438 33.703125 C 44.75 33.703125 45.140625 33.316406 45.140625 32.835938 L 45.140625 29.320312 C 45.140625 28.839844 44.75 28.453125 44.273438 28.453125 L 43.976562 28.453125 C 43.496094 28.453125 43.109375 28.839844 43.109375 29.320312 Z M 43.109375 29.320312 "/>
<path style=" stroke:none;fill-rule:nonzero;fill:rgb(90.196078%,90.196078%,90.196078%);fill-opacity:1;" d="M 40.871094 29.777344 L 43.09375 29.777344 C 43.230469 29.777344 43.339844 29.667969 43.339844 29.53125 L 43.339844 29.445312 C 43.339844 29.308594 43.230469 29.199219 43.09375 29.199219 L 40.871094 29.199219 C 40.734375 29.199219 40.621094 29.308594 40.621094 29.445312 L 40.621094 29.53125 C 40.621094 29.667969 40.734375 29.777344 40.871094 29.777344 Z M 40.871094 29.777344 "/>
<path style=" stroke:none;fill-rule:nonzero;fill:rgb(90.196078%,90.196078%,90.196078%);fill-opacity:1;" d="M 40.867188 30.835938 L 43.09375 30.835938 C 43.230469 30.835938 43.339844 30.726562 43.339844 30.589844 L 43.339844 30.503906 C 43.339844 30.367188 43.230469 30.257812 43.09375 30.257812 L 40.867188 30.257812 C 40.730469 30.257812 40.617188 30.367188 40.617188 30.503906 L 40.617188 30.589844 C 40.617188 30.726562 40.730469 30.835938 40.867188 30.835938 Z M 40.867188 30.835938 "/>
<path style=" stroke:none;fill-rule:nonzero;fill:rgb(90.196078%,90.196078%,90.196078%);fill-opacity:1;" d="M 40.867188 31.882812 L 43.09375 31.882812 C 43.230469 31.882812 43.339844 31.769531 43.339844 31.632812 L 43.339844 31.546875 C 43.339844 31.410156 43.230469 31.300781 43.09375 31.300781 L 40.867188 31.300781 C 40.730469 31.300781 40.617188 31.410156 40.617188 31.546875 L 40.617188 31.632812 C 40.617188 31.769531 40.730469 31.882812 40.867188 31.882812 Z M 40.867188 31.882812 "/>
<path style=" stroke:none;fill-rule:nonzero;fill:rgb(90.196078%,90.196078%,90.196078%);fill-opacity:1;" d="M 40.863281 32.933594 L 43.089844 32.933594 C 43.226562 32.933594 43.335938 32.824219 43.335938 32.6875 L 43.335938 32.601562 C 43.335938 32.464844 43.226562 32.355469 43.089844 32.355469 L 40.863281 32.355469 C 40.726562 32.355469 40.613281 32.464844 40.613281 32.601562 L 40.613281 32.6875 C 40.613281 32.824219 40.726562 32.933594 40.863281 32.933594 Z M 40.863281 32.933594 "/>
<path style=" stroke:none;fill-rule:nonzero;fill:rgb(90.196078%,90.196078%,90.196078%);fill-opacity:1;" d="M 44.875 34.644531 L 48.394531 34.644531 C 48.871094 34.644531 49.257812 34.257812 49.257812 33.78125 L 49.257812 33.484375 C 49.257812 33.003906 48.871094 32.617188 48.394531 32.617188 L 44.875 32.617188 C 44.398438 32.617188 44.007812 33.003906 44.007812 33.484375 L 44.007812 33.78125 C 44.007812 34.257812 44.398438 34.644531 44.875 34.644531 Z M 44.875 34.644531 "/>
<path style=" stroke:none;fill-rule:nonzero;fill:rgb(90.196078%,90.196078%,90.196078%);fill-opacity:1;" d="M 45.335938 36.886719 L 45.335938 34.664062 C 45.335938 34.527344 45.222656 34.417969 45.085938 34.417969 L 45.003906 34.417969 C 44.867188 34.417969 44.753906 34.527344 44.753906 34.664062 L 44.753906 36.886719 C 44.753906 37.023438 44.867188 37.132812 45.003906 37.132812 L 45.085938 37.132812 C 45.222656 37.132812 45.335938 37.023438 45.335938 36.886719 Z M 45.335938 36.886719 "/>
<path style=" stroke:none;fill-rule:nonzero;fill:rgb(90.196078%,90.196078%,90.196078%);fill-opacity:1;" d="M 46.394531 36.890625 L 46.394531 34.664062 C 46.394531 34.527344 46.28125 34.417969 46.144531 34.417969 L 46.058594 34.417969 C 45.921875 34.417969 45.8125 34.527344 45.8125 34.664062 L 45.8125 36.890625 C 45.8125 37.027344 45.921875 37.136719 46.058594 37.136719 L 46.144531 37.136719 C 46.28125 37.136719 46.394531 37.027344 46.394531 36.890625 Z M 46.394531 36.890625 "/>
<path style=" stroke:none;fill-rule:nonzero;fill:rgb(90.196078%,90.196078%,90.196078%);fill-opacity:1;" d="M 47.4375 36.890625 L 47.4375 34.664062 C 47.4375 34.527344 47.328125 34.417969 47.191406 34.417969 L 47.105469 34.417969 C 46.96875 34.417969 46.859375 34.527344 46.859375 34.664062 L 46.859375 36.890625 C 46.859375 37.027344 46.96875 37.136719 47.105469 37.136719 L 47.191406 37.136719 C 47.328125 37.136719 47.4375 37.027344 47.4375 36.890625 Z M 47.4375 36.890625 "/>
<path style=" stroke:none;fill-rule:nonzero;fill:rgb(90.196078%,90.196078%,90.196078%);fill-opacity:1;" d="M 48.492188 36.894531 L 48.492188 34.667969 C 48.492188 34.53125 48.378906 34.421875 48.242188 34.421875 L 48.160156 34.421875 C 48.023438 34.421875 47.910156 34.53125 47.910156 34.667969 L 47.910156 36.894531 C 47.910156 37.03125 48.023438 37.140625 48.160156 37.140625 L 48.242188 37.140625 C 48.378906 37.140625 48.492188 37.03125 48.492188 36.894531 Z M 48.492188 36.894531 "/>
<path style=" stroke:none;fill-rule:nonzero;fill:rgb(12.941176%,20.784314%,32.941176%);fill-opacity:1;" d="M 43.984375 33.863281 C 43.804688 33.773438 43.8125 33.9375 43.816406 31.085938 L 43.816406 28.488281 L 43.882812 28.414062 C 43.917969 28.378906 43.972656 28.332031 44 28.316406 C 44.066406 28.28125 49.167969 28.28125 49.234375 28.316406 C 49.261719 28.332031 49.3125 28.378906 49.351562 28.417969 L 49.417969 28.488281 L 49.417969 31.085938 C 49.417969 33.917969 49.425781 33.765625 49.257812 33.859375 C 49.148438 33.917969 44.105469 33.921875 43.984375 33.863281 Z M 48.984375 33.40625 C 49.023438 33.3125 48.988281 33.191406 48.910156 33.160156 C 48.710938 33.085938 48.582031 33.371094 48.769531 33.46875 C 48.859375 33.511719 48.945312 33.488281 48.984375 33.40625 Z M 44.511719 33.445312 C 44.578125 33.378906 44.554688 33.222656 44.472656 33.171875 C 44.328125 33.074219 44.175781 33.238281 44.25 33.410156 C 44.277344 33.464844 44.304688 33.480469 44.378906 33.480469 C 44.433594 33.480469 44.492188 33.464844 44.511719 33.445312 Z M 44.511719 28.984375 C 44.570312 28.929688 44.554688 28.765625 44.492188 28.730469 C 44.363281 28.664062 44.226562 28.738281 44.226562 28.875 C 44.226562 28.976562 44.277344 29.019531 44.386719 29.019531 C 44.4375 29.019531 44.492188 29.003906 44.511719 28.984375 Z M 48.960938 28.976562 C 49.019531 28.914062 49.019531 28.820312 48.957031 28.753906 C 48.824219 28.605469 48.589844 28.785156 48.699219 28.953125 C 48.753906 29.035156 48.890625 29.046875 48.960938 28.976562 Z M 48.960938 28.976562 "/>
<path style=" stroke:none;fill-rule:evenodd;fill:rgb(97.254902%,87.058824%,40.784314%);fill-opacity:1;" d="M 44.132812 36.382812 L 45.035156 36.382812 L 45.035156 37.53125 L 44.132812 37.53125 Z M 44.132812 36.382812 "/>
<path style=" stroke:none;fill-rule:evenodd;fill:rgb(97.254902%,87.058824%,40.784314%);fill-opacity:1;" d="M 44.527344 35.535156 L 44.640625 35.535156 C 44.859375 35.535156 45.035156 35.714844 45.035156 35.933594 L 45.035156 36.363281 C 45.035156 36.582031 44.859375 36.761719 44.640625 36.761719 L 44.527344 36.761719 C 44.308594 36.761719 44.132812 36.582031 44.132812 36.363281 L 44.132812 35.933594 C 44.132812 35.714844 44.308594 35.535156 44.527344 35.535156 Z M 44.527344 35.535156 "/>
<path style=" stroke:none;fill-rule:evenodd;fill:rgb(97.254902%,87.058824%,40.784314%);fill-opacity:1;" d="M 45.355469 36.382812 L 46.261719 36.382812 L 46.261719 37.53125 L 45.355469 37.53125 Z M 45.355469 36.382812 "/>
<path style=" stroke:none;fill-rule:evenodd;fill:rgb(97.254902%,87.058824%,40.784314%);fill-opacity:1;" d="M 45.753906 35.535156 L 45.863281 35.535156 C 46.082031 35.535156 46.261719 35.714844 46.261719 35.933594 L 46.261719 36.363281 C 46.261719 36.582031 46.082031 36.757812 45.863281 36.757812 L 45.753906 36.757812 C 45.535156 36.757812 45.355469 36.582031 45.355469 36.363281 L 45.355469 35.933594 C 45.355469 35.714844 45.535156 35.535156 45.753906 35.535156 Z M 45.753906 35.535156 "/>
<path style=" stroke:none;fill-rule:evenodd;fill:rgb(97.254902%,87.058824%,40.784314%);fill-opacity:1;" d="M 46.988281 36.382812 L 47.894531 36.382812 L 47.894531 37.53125 L 46.988281 37.53125 Z M 46.988281 36.382812 "/>
<path style=" stroke:none;fill-rule:evenodd;fill:rgb(97.254902%,87.058824%,40.784314%);fill-opacity:1;" d="M 47.386719 35.535156 L 47.496094 35.535156 C 47.714844 35.535156 47.890625 35.714844 47.890625 35.933594 L 47.890625 36.363281 C 47.890625 36.582031 47.714844 36.761719 47.496094 36.761719 L 47.386719 36.761719 C 47.164062 36.761719 46.988281 36.582031 46.988281 36.363281 L 46.988281 35.933594 C 46.988281 35.714844 47.164062 35.535156 47.386719 35.535156 Z M 47.386719 35.535156 "/>
<path style=" stroke:none;fill-rule:evenodd;fill:rgb(97.254902%,87.058824%,40.784314%);fill-opacity:1;" d="M 48.183594 36.382812 L 49.085938 36.382812 L 49.085938 37.53125 L 48.183594 37.53125 Z M 48.183594 36.382812 "/>
<path style=" stroke:none;fill-rule:evenodd;fill:rgb(97.254902%,87.058824%,40.784314%);fill-opacity:1;" d="M 48.578125 35.535156 L 48.691406 35.535156 C 48.910156 35.535156 49.085938 35.714844 49.085938 35.933594 L 49.085938 36.363281 C 49.085938 36.582031 48.910156 36.761719 48.691406 36.761719 L 48.578125 36.761719 C 48.359375 36.761719 48.183594 36.582031 48.183594 36.363281 L 48.183594 35.933594 C 48.183594 35.714844 48.359375 35.535156 48.578125 35.535156 Z M 48.578125 35.535156 "/>
<path style=" stroke:none;fill-rule:nonzero;fill:rgb(90.196078%,90.196078%,90.196078%);fill-opacity:1;" d="M 22.101562 26.585938 L 22.101562 35.9375 L 23.210938 35.9375 L 23.210938 26.585938 Z M 23.78125 26.585938 L 23.78125 35.9375 L 24.890625 35.9375 L 24.890625 26.585938 Z M 25.472656 26.585938 L 25.472656 35.9375 L 26.582031 35.9375 L 26.582031 26.585938 Z M 27.203125 26.585938 L 27.203125 35.9375 L 28.3125 35.9375 L 28.3125 26.585938 Z M 28.925781 26.585938 L 28.925781 35.9375 L 30.035156 35.9375 L 30.035156 26.585938 Z M 28.925781 26.585938 "/>
</g>
</svg>
