
<svg xmlns="http://www.w3.org/2000/svg" xmlns:xlink="http://www.w3.org/1999/xlink" width="64px" height="64px" viewBox="0 0 64 64" version="1.1">
<g id="surface1">
<path style="fill-rule:nonzero;fill:rgb(100%,100%,100%);fill-opacity:1;stroke-width:27.910587;stroke-linecap:butt;stroke-linejoin:miter;stroke:rgb(9.019608%,36.078431%,60%);stroke-opacity:1;stroke-miterlimit:4;" d="M 83.21875 27.40625 L 428.78125 27.40625 C 459.59375 27.40625 484.59375 52.375 484.59375 83.21875 L 484.59375 428.78125 C 484.59375 459.59375 459.59375 484.59375 428.78125 484.59375 L 83.21875 484.59375 C 52.375 484.59375 27.40625 459.59375 27.40625 428.78125 L 27.40625 83.21875 C 27.40625 52.375 52.375 27.40625 83.21875 27.40625 Z M 83.21875 27.40625 " transform="matrix(0.125,0,0,0.125,0,0)"/>
<path style=" stroke:none;fill-rule:nonzero;fill:rgb(12.941176%,39.607843%,69.019608%);fill-opacity:1;" d="M 51.125 8.34375 L 39.335938 13.382812 L 39.335938 33.761719 C 39.347656 38.027344 51.125 37.078125 51.125 33.988281 Z M 51.125 8.34375 "/>
<path style=" stroke:none;fill-rule:nonzero;fill:rgb(12.941176%,39.607843%,69.019608%);fill-opacity:1;" d="M 21.644531 22.125 L 9.851562 27.367188 L 9.851562 34.550781 C 9.851562 37.636719 10.253906 40.464844 11.058594 43.023438 C 11.855469 45.578125 13.089844 47.78125 14.765625 49.625 C 16.183594 51.195312 17.933594 52.46875 20.003906 53.453125 L 22.933594 54.375 C 32.351562 53.371094 35.703125 46.636719 36.773438 44.515625 L 36.777344 44.515625 L 37.054688 43.828125 C 35.390625 45.578125 33.066406 46.667969 30.488281 46.667969 C 25.40625 46.667969 21.644531 42.460938 21.644531 37.234375 Z M 21.644531 22.125 "/>
<path style=" stroke:none;fill-rule:nonzero;fill:rgb(49.411765%,75.686275%,51.372549%);fill-opacity:1;" d="M 39.328125 15.453125 L 39.328125 16.550781 C 39.328125 16.566406 39.332031 16.582031 39.332031 16.597656 L 39.332031 37.234375 C 39.332031 39.914062 38.578125 42.316406 36.84375 44.027344 C 36.910156 43.957031 36.988281 43.898438 37.054688 43.828125 L 36.777344 44.515625 L 36.773438 44.515625 C 35.703125 46.636719 30.78125 52.414062 21.363281 53.417969 L 20.144531 53.449219 C 20.445312 53.632812 20.765625 53.804688 21.132812 53.953125 C 23.707031 54.988281 26.769531 55.511719 30.304688 55.511719 L 30.296875 55.496094 C 33.894531 55.496094 36.996094 55 39.621094 53.980469 C 42.242188 52.972656 44.394531 51.542969 46.097656 49.695312 C 47.792969 47.851562 49.058594 45.636719 49.882812 43.054688 C 50.707031 40.476562 51.121094 37.636719 51.121094 34.546875 L 51.121094 30.863281 C 50.359375 23.828125 43.992188 17.351562 39.328125 15.453125 Z M 36.769531 44.097656 C 36.546875 44.3125 36.316406 44.515625 36.074219 44.707031 C 36.316406 44.515625 36.546875 44.3125 36.769531 44.097656 Z M 36.769531 44.097656 "/>
</g>
</svg>
