
<svg xmlns="http://www.w3.org/2000/svg" xmlns:xlink="http://www.w3.org/1999/xlink" width="64px" height="64px" viewBox="0 0 64 64" version="1.1">
<g id="surface1">
<path style="fill-rule:nonzero;fill:rgb(100%,100%,100%);fill-opacity:1;stroke-width:27.478176;stroke-linecap:butt;stroke-linejoin:miter;stroke:rgb(100%,80%,0%);stroke-opacity:1;stroke-miterlimit:4;" d="M 85.90625 30.9375 L 426.09375 30.9375 C 456.46875 30.9375 481.0625 55.53125 481.0625 85.90625 L 481.0625 426.09375 C 481.0625 456.46875 456.46875 481.0625 426.09375 481.0625 L 85.90625 481.0625 C 55.53125 481.0625 30.9375 456.46875 30.9375 426.09375 L 30.9375 85.90625 C 30.9375 55.53125 55.53125 30.9375 85.90625 30.9375 Z M 85.90625 30.9375 " transform="matrix(0.125,0,0,0.125,0,0)"/>
<path style=" stroke:none;fill-rule:nonzero;fill:rgb(100%,80%,0%);fill-opacity:1;" d="M 32.292969 52.839844 C 33.015625 52.820312 33.914062 52.765625 35.117188 52.625 C 39.445312 52.128906 41.695312 50.386719 42.691406 49.804688 C 43.691406 49.222656 47.1875 46.058594 47.1875 41.980469 L 47.1875 18.324219 L 48.234375 18.324219 C 48.609375 18.328125 48.980469 18.199219 49.171875 17.996094 C 49.363281 17.796875 49.363281 17.535156 49.175781 17.335938 L 43.667969 11.503906 C 43.488281 11.3125 43.144531 11.183594 42.785156 11.171875 C 42.753906 11.167969 42.714844 11.164062 42.679688 11.160156 C 42.675781 11.160156 42.671875 11.160156 42.667969 11.160156 C 42.308594 11.171875 41.964844 11.300781 41.785156 11.492188 L 36.269531 17.324219 C 36.074219 17.527344 36.066406 17.792969 36.257812 17.996094 C 36.449219 18.199219 36.828125 18.328125 37.210938 18.324219 L 38.199219 18.324219 L 38.199219 42.96875 C 38.199219 44.550781 38.035156 45.726562 36.871094 47.390625 C 35.859375 48.835938 33.414062 49.144531 32.292969 49.203125 L 31.707031 49.203125 C 30.585938 49.144531 28.140625 48.835938 27.128906 47.390625 C 25.964844 45.726562 25.800781 44.550781 25.800781 42.96875 L 25.800781 18.324219 L 26.789062 18.324219 C 27.171875 18.328125 27.550781 18.199219 27.742188 17.996094 C 27.933594 17.792969 27.925781 17.527344 27.730469 17.324219 L 22.214844 11.492188 C 22.03125 11.296875 21.683594 11.167969 21.320312 11.160156 C 21.285156 11.164062 21.246094 11.167969 21.214844 11.171875 C 20.855469 11.183594 20.511719 11.3125 20.332031 11.503906 L 14.824219 17.335938 C 14.636719 17.535156 14.636719 17.796875 14.828125 17.996094 C 15.019531 18.199219 15.390625 18.328125 15.765625 18.324219 L 16.8125 18.324219 L 16.8125 41.980469 C 16.8125 46.058594 20.308594 49.222656 21.308594 49.804688 C 22.304688 50.386719 24.554688 52.128906 28.882812 52.625 C 30.085938 52.765625 30.984375 52.820312 31.707031 52.839844 Z M 32.292969 52.839844 "/>
</g>
</svg>
