
<svg xmlns="http://www.w3.org/2000/svg" xmlns:xlink="http://www.w3.org/1999/xlink" width="64px" height="64px" viewBox="0 0 64 64" version="1.1">
<g id="surface1">
<path style=" stroke:none;fill-rule:nonzero;fill:rgb(100%,100%,100%);fill-opacity:1;" d="M 60.339844 32 C 60.339844 47.265625 48.25 59.785156 32.992188 60.320312 C 17.738281 60.855469 4.800781 49.210938 3.730469 33.984375 C 2.660156 18.757812 13.84375 5.417969 29.027344 3.816406 C 44.207031 2.214844 57.929688 12.925781 60.0625 28.039062 "/>
<path style=" stroke:none;fill-rule:evenodd;fill:rgb(20.784314%,78.039216%,43.921569%);fill-opacity:1;" d="M 32.03125 13.082031 C 31.925781 13.082031 31.824219 13.085938 31.71875 13.09375 C 28.527344 13.34375 26.734375 17.230469 28.078125 21.503906 C 26.445312 18.757812 24.320312 16.652344 21.640625 16.671875 C 21.421875 16.671875 21.203125 16.6875 20.980469 16.71875 C 17.769531 17.148438 17.316406 21.175781 20.683594 23.058594 C 21.414062 23.46875 22.128906 23.960938 22.828125 24.511719 C 21.65625 23.855469 20.46875 23.445312 19.316406 23.445312 C 18.53125 23.445312 17.769531 23.632812 17.039062 24.058594 C 14.714844 25.421875 15.503906 28.566406 18.46875 29.195312 C 17.679688 29.394531 16.960938 29.789062 16.359375 30.425781 C 14.480469 32.410156 16.320312 35.289062 19.523438 34.742188 C 19.820312 34.691406 20.125 34.652344 20.433594 34.621094 C 19.667969 34.96875 19.050781 35.507812 18.667969 36.300781 C 17.722656 38.25 19.804688 39.984375 22.089844 38.800781 C 23.871094 37.882812 26.191406 37.449219 28.1875 37.234375 L 28.511719 37.417969 L 28.164062 37.609375 C 28.160156 37.613281 28.160156 37.613281 28.164062 37.613281 L 28.667969 38.457031 L 28.164062 39.296875 C 28.160156 39.296875 28.160156 39.300781 28.164062 39.300781 L 28.511719 39.496094 L 28.164062 39.691406 C 28.160156 39.691406 28.160156 39.691406 28.164062 39.695312 L 28.667969 40.535156 L 28.164062 41.375 C 28.160156 41.378906 28.160156 41.378906 28.164062 41.378906 L 28.511719 41.574219 L 28.164062 41.769531 C 28.160156 41.769531 28.160156 41.773438 28.164062 41.773438 L 28.667969 42.613281 L 28.164062 43.457031 C 28.160156 43.457031 28.160156 43.460938 28.164062 43.460938 L 28.511719 43.65625 L 28.164062 43.847656 C 28.160156 43.847656 28.160156 43.851562 28.164062 43.851562 L 28.667969 44.695312 L 28.164062 45.535156 C 28.160156 45.535156 28.160156 45.539062 28.164062 45.539062 L 28.511719 45.734375 L 28.164062 45.929688 C 28.160156 45.929688 28.160156 45.929688 28.164062 45.933594 L 28.667969 46.773438 L 28.164062 47.613281 C 28.160156 47.617188 28.160156 47.617188 28.164062 47.617188 L 28.511719 47.8125 L 28.164062 48.007812 C 28.160156 48.007812 28.160156 48.011719 28.164062 48.011719 L 28.667969 48.851562 L 28.164062 49.695312 C 28.160156 49.695312 28.160156 49.695312 28.164062 49.699219 L 28.511719 49.890625 L 28.164062 50.085938 C 28.160156 50.085938 28.160156 50.089844 28.164062 50.089844 L 28.667969 50.933594 L 28.59375 51.054688 L 35.316406 51.054688 L 35.242188 50.933594 L 35.746094 50.089844 C 35.746094 50.089844 35.746094 50.085938 35.746094 50.085938 L 35.394531 49.890625 L 35.746094 49.699219 C 35.746094 49.695312 35.746094 49.695312 35.746094 49.695312 L 35.242188 48.851562 L 35.746094 48.011719 C 35.746094 48.011719 35.746094 48.007812 35.746094 48.007812 L 35.394531 47.8125 L 35.746094 47.617188 C 35.746094 47.617188 35.746094 47.617188 35.746094 47.613281 L 35.242188 46.773438 L 35.746094 45.933594 C 35.746094 45.929688 35.746094 45.929688 35.746094 45.929688 L 35.394531 45.734375 L 35.746094 45.539062 C 35.746094 45.539062 35.746094 45.535156 35.746094 45.535156 L 35.242188 44.695312 L 35.746094 43.851562 C 35.746094 43.851562 35.746094 43.847656 35.746094 43.847656 L 35.394531 43.65625 L 35.746094 43.460938 C 35.746094 43.460938 35.746094 43.457031 35.746094 43.457031 L 35.242188 42.613281 L 35.746094 41.773438 C 35.746094 41.773438 35.746094 41.769531 35.746094 41.769531 L 35.394531 41.574219 L 35.746094 41.378906 C 35.746094 41.378906 35.746094 41.378906 35.746094 41.375 L 35.242188 40.535156 L 35.746094 39.695312 C 35.746094 39.691406 35.746094 39.691406 35.746094 39.691406 L 35.394531 39.496094 L 35.746094 39.300781 C 35.746094 39.300781 35.746094 39.296875 35.746094 39.296875 L 35.242188 38.457031 L 35.746094 37.613281 C 35.746094 37.613281 35.746094 37.613281 35.746094 37.609375 L 35.394531 37.417969 L 35.734375 37.226562 C 37.746094 37.4375 40.105469 37.871094 41.910156 38.800781 C 44.195312 39.984375 46.277344 38.25 45.332031 36.300781 C 44.949219 35.507812 44.332031 34.96875 43.566406 34.621094 C 43.875 34.652344 44.179688 34.691406 44.476562 34.742188 C 47.679688 35.289062 49.519531 32.410156 47.640625 30.425781 C 47.039062 29.789062 46.324219 29.394531 45.53125 29.195312 C 48.496094 28.566406 49.285156 25.421875 46.960938 24.058594 C 45.160156 23.007812 43.140625 23.40625 41.175781 24.507812 C 41.871094 23.960938 42.589844 23.46875 43.316406 23.058594 C 46.683594 21.175781 46.230469 17.148438 43.019531 16.71875 C 39.832031 16.292969 37.390625 18.828125 35.59375 22.078125 C 37.125 16.894531 35.011719 13.109375 32.03125 13.082031 Z M 32.03125 13.082031 "/>
<path style=" stroke:none;fill-rule:evenodd;fill:rgb(22.745098%,77.254902%,90.196078%);fill-opacity:1;" d="M 21.816406 7.382812 C 11.894531 11.5 5.425781 21.183594 5.421875 31.925781 C 5.433594 45.605469 15.828125 57.042969 29.445312 58.355469 L 29.445312 53.242188 C 18.652344 51.949219 10.523438 42.796875 10.515625 31.925781 C 10.523438 24.03125 14.863281 16.773438 21.816406 13.03125 Z M 42.183594 7.402344 L 42.183594 13.015625 C 49.140625 16.761719 53.480469 24.023438 53.484375 31.925781 C 53.46875 42.792969 45.34375 51.9375 34.554688 53.230469 L 34.554688 58.378906 C 48.179688 57.0625 58.578125 45.613281 58.578125 31.925781 C 58.570312 21.191406 52.101562 11.515625 42.183594 7.402344 Z M 42.183594 7.402344 "/>
</g>
</svg>
