<?xml version="1.0" encoding="UTF-8" standalone="no"?>
<svg
   xmlns:dc="http://purl.org/dc/elements/1.1/"
   xmlns:cc="http://creativecommons.org/ns#"
   xmlns:rdf="http://www.w3.org/1999/02/22-rdf-syntax-ns#"
   xmlns:svg="http://www.w3.org/2000/svg"
   xmlns="http://www.w3.org/2000/svg"
   xmlns:sodipodi="http://sodipodi.sourceforge.net/DTD/sodipodi-0.dtd"
   xmlns:inkscape="http://www.inkscape.org/namespaces/inkscape"
   width="16px"
   height="16px"
   viewBox="0 0 16 16"
   version="1.1"
   id="svg17"
   sodipodi:docname="urukupdater.svg"
   inkscape:version="0.92.5 (2060ec1f9f, 2020-04-08)">
  <metadata
     id="metadata23">
    <rdf:RDF>
      <cc:Work
         rdf:about="">
        <dc:format>image/svg+xml</dc:format>
        <dc:type
           rdf:resource="http://purl.org/dc/dcmitype/StillImage" />
        <dc:title></dc:title>
      </cc:Work>
    </rdf:RDF>
  </metadata>
  <defs
     id="defs21" />
  <sodipodi:namedview
     pagecolor="#ffffff"
     bordercolor="#666666"
     borderopacity="1"
     objecttolerance="10"
     gridtolerance="10"
     guidetolerance="10"
     inkscape:pageopacity="0"
     inkscape:pageshadow="2"
     inkscape:window-width="1280"
     inkscape:window-height="735"
     id="namedview19"
     showgrid="false"
     inkscape:zoom="14.75"
     inkscape:cx="8"
     inkscape:cy="8"
     inkscape:window-x="0"
     inkscape:window-y="0"
     inkscape:window-maximized="1"
     inkscape:current-layer="svg17" />
  <path
     inkscape:connector-curvature="0"
     id="path2"
     d="M 2.4609375,0.671875 H 13.539063 c 0.988281,0 1.789062,0.8007812 1.789062,1.7890625 V 13.539063 c 0,0.988281 -0.800781,1.789062 -1.789062,1.789062 H 2.4609375 c -0.9882813,0 -1.7890625,-0.800781 -1.7890625,-1.789062 V 2.4609375 c 0,-0.9882813 0.8007812,-1.7890625 1.7890625,-1.7890625 z m 0,0"
     style="fill:#ffffff;fill-opacity:0.97647101;fill-rule:nonzero;stroke:#00d455;stroke-width:0.8948971;stroke-linecap:butt;stroke-linejoin:miter;stroke-miterlimit:4;stroke-opacity:1" />
  <g
     id="g852"
     transform="matrix(0.43015859,0,0,0.43015859,9.7206344,6.7168148)">
    <path
       id="rect2515"
       d="M -12.750779,-4.2700516 V 6.5623491 c -2e-6,1.98637 1.528631,4.0188259 4.5884386,6.0954419 1.223978,0.834986 2.6129424,1.608259 4.1623434,2.31926 1.5494,-0.711001 2.938362,-1.484274 4.16234196,-2.31926 C 3.222153,10.581175 4.750784,8.5487191 4.750784,6.5623491 V -4.2700516 h -8.750781 z m -1.96873,15.5969256 v 0.06693 l 0.07496,0.03151 c -0.02404,-0.03371 -0.0505,-0.06514 -0.07496,-0.09844 z m 21.439023,0 c -0.02446,0.03331 -0.05092,0.06474 -0.07496,0.09844 l 0.07496,-0.03151 z"
       style="opacity:1;fill:#00d455;fill-opacity:1;stroke:none;stroke-width:34.01963425;stroke-miterlimit:4;stroke-dasharray:none;stroke-opacity:1;enable-background:new"
       inkscape:connector-curvature="0" />
    <g
       id="g4564"
       transform="matrix(0.06840925,0,0,0.05929463,40.304136,-17.652484)"
       style="fill:#999999;fill-opacity:1;enable-background:new">
      <path
         style="fill:#999999;fill-opacity:1"
         id="path2-3"
         d="m -470.32543,176.3044 c -3.621,-3.617 -7.905,-5.424 -12.853,-5.424 h -328.903 c -4.952,0 -9.235,1.807 -12.852,5.424 -3.615,3.615 -5.424,7.898 -5.424,12.847 v 219.268 c 0,16.371 3.186,32.596 9.563,48.681 6.374,16.084 14.274,30.361 23.697,42.828 9.423,12.47 20.651,24.605 33.689,36.405 13.04,11.806 25.078,21.6 36.116,29.409 11.038,7.803 22.554,15.181 34.545,22.121 11.991,6.943 20.511,11.663 25.553,14.134 5.043,2.478 9.088,4.38 12.132,5.708 2.286,1.143 4.758,1.718 7.426,1.718 2.671,0 5.14,-0.575 7.428,-1.718 3.042,-1.328 7.087,-3.23 12.128,-5.708 5.041,-2.471 13.565,-7.19 25.557,-14.134 11.984,-6.94 23.504,-14.318 34.54,-22.121 11.043,-7.81 23.079,-17.604 36.121,-29.409 13.031,-11.8 24.263,-23.936 33.685,-36.405 9.421,-12.467 17.319,-26.744 23.705,-42.828 6.379,-16.085 9.562,-32.31 9.562,-48.681 v -219.268 c -10e-4,-4.952 -1.808,-9.231 -5.415,-12.847 z m -49.402,232.115 c 0,33.5 -22.367,67.759 -67.095,102.781 -17.892,14.082 -38.164,27.124 -60.813,39.115 v -324.622 h 127.908 z"
         inkscape:connector-curvature="0" />
      <path
         sodipodi:nodetypes="sccccccccs"
         inkscape:connector-curvature="0"
         id="rect4554"
         transform="matrix(1.0188182,0,0,1.0188182,-128.48514,-128.48517)"
         d="m -509.62109,211.12305 c -7.57188,0.0376 -15.15768,2.99274 -20.98829,8.85742 l -149.49218,72.36719 c -11.6612,11.72935 -11.75369,30.52257 -0.20703,42.13672 l 3.89453,3.91796 h 333.70703 l 3.68945,-3.71093 c 11.6612,-11.72936 11.75369,-30.52258 0.20703,-42.13672 L -488.7168,219.77344 c -5.77333,-5.80707 -13.33242,-8.68798 -20.90429,-8.65039 z"
         style="opacity:1;fill:#999999;fill-opacity:1;stroke:none;stroke-width:38.62493515;stroke-miterlimit:4;stroke-dasharray:none;stroke-dashoffset:0;stroke-opacity:1" />
    </g>
    <path
       style="fill:#80ffb3;fill-opacity:1;stroke:none;stroke-width:32.05149841;stroke-miterlimit:4;stroke-dasharray:none;stroke-opacity:1;enable-background:new"
       d="M -3.95781,-3.220043 V 14.931264 C -5.416137,14.260743 -6.7234604,13.531494 -7.8754924,12.744045 -10.755448,10.785657 -12.194226,8.8689181 -12.194226,6.9956401 V -3.220043 Z m -10.089427,14.708945 c 0.02304,0.03141 0.04794,0.06105 0.07056,0.09284 l -0.07056,-0.02971 z"
       id="path2554-3"
       inkscape:connector-curvature="0" />
    <path
       inkscape:connector-curvature="0"
       id="path6369"
       d="M -12.750779,-4.2700516 V 6.5623481 c -2e-6,1.986373 1.528633,4.0188269 4.5884406,6.0954429 1.223978,0.834986 2.6129404,1.608259 4.1623414,2.31926 1.5494,-0.711001 2.938362,-1.484274 4.16234396,-2.31926 C 3.222155,10.581175 4.750784,8.5487191 4.750784,6.5623481 V -4.2700516 h -8.750781 z m 1.341419,1.4726716 h 7.409363 7.409363 v 9.1746621 c 0,1.681841 -1.295455,3.400034 -3.88616704,5.1582849 C -1.513133,12.242542 -2.688135,12.898444 -3.999997,13.500442 -5.31186,12.898444 -6.486862,12.242542 -7.5231924,11.535567 -10.113904,9.7773161 -11.409362,8.0591231 -11.40936,6.3772821 Z m -3.310147,14.124254 v 0.06693 l 0.07496,0.03151 c -0.02404,-0.03371 -0.0505,-0.06514 -0.07496,-0.09844 z m 21.439021,0 c -0.02446,0.03331 -0.05092,0.06474 -0.07496,0.09844 l 0.07496,-0.03151 z"
       style="opacity:1;fill:#00d455;fill-opacity:1;stroke:none;stroke-width:34.01963425;stroke-miterlimit:4;stroke-dasharray:none;stroke-opacity:1;enable-background:new" />
  </g>
</svg>
