
<svg xmlns="http://www.w3.org/2000/svg" xmlns:xlink="http://www.w3.org/1999/xlink" width="64px" height="64px" viewBox="0 0 64 64" version="1.1">
<g id="surface1">
<path style=" stroke:none;fill-rule:evenodd;fill:rgb(80%,61.176471%,41.960784%);fill-opacity:1;" d="M 9.558594 3.0625 L 54.441406 3.0625 C 58.027344 3.0625 60.9375 5.972656 60.9375 9.5625 L 60.9375 54.441406 C 60.9375 58.027344 58.027344 60.9375 54.441406 60.9375 L 9.558594 60.9375 C 5.972656 60.9375 3.0625 58.027344 3.0625 54.441406 L 3.0625 9.5625 C 3.0625 5.972656 5.972656 3.0625 9.558594 3.0625 Z M 9.558594 3.0625 "/>
<path style=" stroke:none;fill-rule:nonzero;fill:rgb(0%,0%,0%);fill-opacity:0.25098;" d="M 17.453125 13.265625 C 17.453125 14.851562 16.164062 16.140625 14.574219 16.140625 C 12.984375 16.140625 11.695312 14.851562 11.695312 13.265625 C 11.695312 11.675781 12.984375 10.386719 14.574219 10.386719 C 16.164062 10.386719 17.453125 11.675781 17.453125 13.265625 M 17.453125 13.265625 "/>
<path style=" stroke:none;fill-rule:nonzero;fill:rgb(0%,0%,0%);fill-opacity:0.25098;" d="M 52.304688 13.464844 C 52.304688 15.054688 51.015625 16.34375 49.425781 16.34375 C 47.835938 16.34375 46.546875 15.054688 46.546875 13.464844 C 46.546875 11.878906 47.835938 10.585938 49.425781 10.585938 C 51.015625 10.585938 52.304688 11.878906 52.304688 13.464844 M 52.304688 13.464844 "/>
<path style=" stroke:none;fill-rule:nonzero;fill:rgb(100%,100%,100%);fill-opacity:1;" d="M 62.496094 43.507812 C 62.496094 53.542969 54.546875 61.773438 44.515625 62.125 C 34.488281 62.476562 25.980469 54.820312 25.277344 44.8125 C 24.578125 34.800781 31.929688 26.03125 41.910156 24.976562 C 51.890625 23.925781 60.910156 30.964844 62.3125 40.902344 "/>
<path style=" stroke:none;fill-rule:evenodd;fill:rgb(20.784314%,78.039216%,43.921569%);fill-opacity:1;" d="M 43.882812 31.070312 C 43.816406 31.070312 43.75 31.070312 43.679688 31.078125 C 41.582031 31.238281 40.402344 33.796875 41.285156 36.605469 C 40.214844 34.800781 38.816406 33.414062 37.054688 33.429688 C 36.910156 33.429688 36.765625 33.441406 36.621094 33.460938 C 34.507812 33.742188 34.210938 36.390625 36.421875 37.628906 C 36.902344 37.898438 37.375 38.222656 37.835938 38.582031 C 37.066406 38.152344 36.28125 37.882812 35.523438 37.882812 C 35.011719 37.882812 34.507812 38.003906 34.027344 38.285156 C 32.5 39.179688 33.019531 41.25 34.96875 41.664062 C 34.449219 41.792969 33.976562 42.050781 33.582031 42.46875 C 32.34375 43.773438 33.554688 45.667969 35.664062 45.308594 C 35.855469 45.273438 36.058594 45.25 36.257812 45.230469 C 35.757812 45.457031 35.351562 45.8125 35.097656 46.335938 C 34.480469 47.613281 35.847656 48.753906 37.351562 47.976562 C 38.519531 47.375 40.046875 47.089844 41.359375 46.949219 L 41.570312 47.066406 L 41.34375 47.195312 C 41.339844 47.195312 41.339844 47.195312 41.339844 47.199219 L 41.671875 47.75 L 41.339844 48.304688 C 41.339844 48.304688 41.339844 48.304688 41.34375 48.304688 L 41.570312 48.433594 L 41.34375 48.5625 C 41.339844 48.5625 41.339844 48.5625 41.339844 48.566406 L 41.671875 49.117188 L 41.339844 49.671875 C 41.339844 49.671875 41.339844 49.671875 41.34375 49.671875 L 41.570312 49.800781 L 41.34375 49.929688 C 41.339844 49.929688 41.339844 49.929688 41.339844 49.929688 L 41.671875 50.484375 L 41.339844 51.039062 C 41.339844 51.039062 41.339844 51.039062 41.34375 51.039062 L 41.570312 51.167969 L 41.34375 51.296875 C 41.339844 51.296875 41.339844 51.296875 41.339844 51.296875 L 41.671875 51.851562 L 41.339844 52.40625 C 41.339844 52.40625 41.339844 52.40625 41.34375 52.40625 L 41.570312 52.535156 L 41.34375 52.664062 C 41.339844 52.664062 41.339844 52.664062 41.339844 52.664062 L 41.671875 53.21875 L 41.339844 53.769531 C 41.339844 53.773438 41.339844 53.773438 41.34375 53.773438 L 41.570312 53.902344 L 41.34375 54.03125 C 41.339844 54.03125 41.339844 54.03125 41.339844 54.03125 L 41.671875 54.585938 L 41.339844 55.136719 C 41.339844 55.140625 41.339844 55.140625 41.34375 55.140625 L 41.570312 55.269531 L 41.34375 55.398438 C 41.339844 55.398438 41.339844 55.398438 41.339844 55.398438 L 41.671875 55.953125 L 41.625 56.035156 L 46.042969 56.035156 L 45.996094 55.953125 L 46.328125 55.398438 L 46.097656 55.269531 L 46.328125 55.140625 C 46.328125 55.140625 46.328125 55.140625 46.328125 55.136719 L 45.996094 54.585938 L 46.328125 54.03125 L 46.097656 53.902344 L 46.328125 53.773438 C 46.328125 53.773438 46.328125 53.773438 46.328125 53.769531 L 45.996094 53.21875 L 46.328125 52.664062 L 46.097656 52.535156 L 46.328125 52.40625 L 45.996094 51.851562 L 46.328125 51.296875 L 46.097656 51.167969 L 46.328125 51.039062 L 45.996094 50.484375 L 46.328125 49.929688 L 46.097656 49.800781 L 46.328125 49.671875 L 45.996094 49.117188 L 46.328125 48.566406 C 46.328125 48.5625 46.328125 48.5625 46.328125 48.5625 L 46.097656 48.433594 L 46.328125 48.304688 L 45.996094 47.75 L 46.328125 47.199219 C 46.328125 47.195312 46.328125 47.195312 46.328125 47.195312 L 46.097656 47.066406 L 46.320312 46.941406 C 47.644531 47.082031 49.195312 47.367188 50.378906 47.976562 C 51.882812 48.753906 53.25 47.613281 52.628906 46.335938 C 52.378906 45.8125 51.972656 45.457031 51.46875 45.230469 C 51.671875 45.25 51.871094 45.273438 52.066406 45.308594 C 54.171875 45.667969 55.382812 43.773438 54.148438 42.46875 C 53.753906 42.050781 53.28125 41.792969 52.761719 41.664062 C 54.710938 41.246094 55.230469 39.179688 53.699219 38.285156 C 52.515625 37.59375 51.1875 37.855469 49.898438 38.582031 C 50.355469 38.21875 50.824219 37.898438 51.304688 37.628906 C 53.515625 36.390625 53.222656 33.742188 51.109375 33.460938 C 49.015625 33.179688 47.40625 34.847656 46.226562 36.984375 C 47.234375 33.574219 45.84375 31.085938 43.882812 31.070312 Z M 43.882812 31.070312 "/>
<path style=" stroke:none;fill-rule:evenodd;fill:rgb(22.745098%,77.254902%,90.196078%);fill-opacity:1;" d="M 37.167969 27.324219 C 30.644531 30.027344 26.394531 36.394531 26.390625 43.457031 C 26.398438 52.453125 33.234375 59.96875 42.1875 60.832031 L 42.1875 57.46875 C 35.089844 56.621094 29.746094 50.605469 29.742188 43.457031 C 29.746094 38.265625 32.597656 33.496094 37.167969 31.035156 Z M 50.558594 27.332031 L 50.558594 31.027344 C 55.132812 33.488281 57.988281 38.261719 57.988281 43.457031 C 57.980469 50.601562 52.636719 56.613281 45.542969 57.464844 L 45.542969 60.847656 C 54.5 59.984375 61.335938 52.457031 61.339844 43.457031 C 61.332031 36.398438 57.078125 30.039062 50.558594 27.332031 Z M 50.558594 27.332031 "/>
<path style=" stroke:none;fill-rule:nonzero;fill:rgb(40%,40%,40%);fill-opacity:1;" d="M 14.121094 15.121094 C 19.878906 45.824219 44.824219 45.824219 50.574219 15.121094 C 50.976562 12.542969 49.207031 12.488281 48.660156 15.121094 C 44.824219 43.09375 19.878906 42.945312 16.039062 15.121094 C 15.6875 12.59375 13.777344 12.699219 14.128906 15.121094 M 14.128906 15.121094 "/>
</g>
</svg>
