
<svg xmlns="http://www.w3.org/2000/svg" xmlns:xlink="http://www.w3.org/1999/xlink" width="64px" height="64px" viewBox="0 0 64 64" version="1.1">
<g id="surface1">
<path style=" stroke:none;fill-rule:nonzero;fill:rgb(22.745098%,77.254902%,90.196078%);fill-opacity:1;" d="M 9.703125 2.75 L 54.589844 2.75 C 58.429688 2.75 61.542969 5.863281 61.542969 9.703125 L 61.542969 54.589844 C 61.542969 58.429688 58.429688 61.542969 54.589844 61.542969 L 9.703125 61.542969 C 5.863281 61.542969 2.75 58.429688 2.75 54.589844 L 2.75 9.703125 C 2.75 5.863281 5.863281 2.75 9.703125 2.75 Z M 9.703125 2.75 "/>
<path style=" stroke:none;fill-rule:nonzero;fill:rgb(100%,100%,100%);fill-opacity:1;" d="M 59.621094 32 C 59.621094 46.878906 47.835938 59.082031 32.96875 59.601562 C 18.097656 60.125 5.488281 48.773438 4.449219 33.933594 C 3.40625 19.09375 14.304688 6.09375 29.101562 4.53125 C 43.898438 2.972656 57.269531 13.410156 59.347656 28.140625 "/>
<path style=" stroke:none;fill-rule:evenodd;fill:rgb(20.784314%,78.039216%,43.921569%);fill-opacity:1;" d="M 32.027344 13.5625 C 31.929688 13.5625 31.828125 13.566406 31.726562 13.574219 C 28.613281 13.816406 26.871094 17.605469 28.179688 21.769531 C 26.589844 19.09375 24.515625 17.042969 21.902344 17.0625 C 21.691406 17.0625 21.476562 17.078125 21.261719 17.105469 C 18.128906 17.523438 17.691406 21.453125 20.96875 23.289062 C 21.679688 23.683594 22.378906 24.164062 23.058594 24.699219 C 21.921875 24.0625 20.757812 23.664062 19.636719 23.664062 C 18.875 23.664062 18.128906 23.847656 17.417969 24.261719 C 15.152344 25.589844 15.921875 28.652344 18.8125 29.269531 C 18.042969 29.460938 17.34375 29.84375 16.753906 30.464844 C 14.921875 32.398438 16.71875 35.207031 19.839844 34.671875 C 20.128906 34.621094 20.425781 34.585938 20.726562 34.554688 C 19.980469 34.894531 19.378906 35.417969 19.003906 36.191406 C 18.085938 38.089844 20.113281 39.78125 22.34375 38.628906 C 24.078125 37.734375 26.339844 37.3125 28.285156 37.101562 L 28.601562 37.277344 L 28.261719 37.46875 C 28.257812 37.46875 28.257812 37.472656 28.257812 37.472656 L 28.75 38.292969 L 28.257812 39.113281 C 28.257812 39.113281 28.257812 39.113281 28.261719 39.117188 L 28.601562 39.304688 L 28.261719 39.496094 C 28.257812 39.496094 28.257812 39.496094 28.257812 39.5 L 28.75 40.320312 L 28.257812 41.136719 C 28.257812 41.140625 28.257812 41.140625 28.261719 41.144531 L 28.601562 41.332031 L 28.261719 41.523438 C 28.257812 41.523438 28.257812 41.523438 28.257812 41.527344 L 28.75 42.34375 L 28.257812 43.164062 C 28.257812 43.167969 28.257812 43.167969 28.261719 43.167969 L 28.601562 43.359375 L 28.261719 43.546875 C 28.257812 43.550781 28.257812 43.550781 28.257812 43.550781 L 28.75 44.371094 L 28.257812 45.191406 C 28.257812 45.191406 28.257812 45.195312 28.261719 45.195312 L 28.601562 45.386719 L 28.261719 45.574219 C 28.257812 45.574219 28.257812 45.578125 28.257812 45.578125 L 28.75 46.398438 L 28.257812 47.21875 C 28.257812 47.21875 28.257812 47.222656 28.261719 47.222656 L 28.601562 47.410156 L 28.261719 47.601562 C 28.257812 47.601562 28.257812 47.605469 28.257812 47.605469 L 28.75 48.425781 L 28.257812 49.246094 C 28.257812 49.246094 28.257812 49.25 28.261719 49.25 L 28.601562 49.4375 L 28.261719 49.628906 C 28.257812 49.628906 28.257812 49.628906 28.257812 49.632812 L 28.75 50.453125 L 28.679688 50.574219 L 35.230469 50.574219 L 35.160156 50.453125 L 35.652344 49.632812 C 35.652344 49.628906 35.652344 49.628906 35.648438 49.628906 L 35.308594 49.4375 L 35.648438 49.25 C 35.652344 49.25 35.652344 49.246094 35.652344 49.246094 L 35.160156 48.425781 L 35.652344 47.605469 C 35.652344 47.605469 35.652344 47.601562 35.648438 47.601562 L 35.308594 47.414062 L 35.648438 47.222656 C 35.652344 47.222656 35.652344 47.21875 35.652344 47.21875 L 35.160156 46.398438 L 35.652344 45.578125 C 35.652344 45.578125 35.652344 45.574219 35.648438 45.574219 L 35.308594 45.386719 L 35.648438 45.195312 C 35.652344 45.195312 35.652344 45.191406 35.652344 45.191406 L 35.160156 44.371094 L 35.652344 43.550781 C 35.652344 43.550781 35.652344 43.550781 35.648438 43.546875 L 35.308594 43.359375 L 35.648438 43.167969 C 35.652344 43.167969 35.652344 43.167969 35.652344 43.164062 L 35.160156 42.34375 L 35.652344 41.527344 C 35.652344 41.523438 35.652344 41.523438 35.648438 41.523438 L 35.308594 41.332031 L 35.648438 41.144531 C 35.652344 41.140625 35.652344 41.140625 35.652344 41.136719 L 35.160156 40.320312 L 35.652344 39.5 C 35.652344 39.496094 35.652344 39.496094 35.648438 39.496094 L 35.308594 39.304688 L 35.648438 39.117188 C 35.652344 39.113281 35.652344 39.113281 35.652344 39.113281 L 35.160156 38.292969 L 35.652344 37.472656 C 35.652344 37.472656 35.652344 37.46875 35.648438 37.46875 L 35.308594 37.277344 L 35.640625 37.09375 C 37.601562 37.300781 39.898438 37.722656 41.65625 38.628906 C 43.886719 39.78125 45.914062 38.089844 44.996094 36.191406 C 44.621094 35.417969 44.019531 34.894531 43.273438 34.554688 C 43.574219 34.585938 43.871094 34.621094 44.160156 34.671875 C 47.28125 35.207031 49.078125 32.398438 47.246094 30.464844 C 46.65625 29.84375 45.960938 29.460938 45.1875 29.269531 C 48.078125 28.652344 48.847656 25.589844 46.582031 24.261719 C 44.828125 23.234375 42.855469 23.625 40.941406 24.699219 C 41.621094 24.164062 42.320312 23.683594 43.03125 23.289062 C 46.308594 21.453125 45.871094 17.523438 42.738281 17.105469 C 39.636719 16.691406 37.253906 19.160156 35.5 22.332031 C 36.996094 17.277344 34.933594 13.589844 32.027344 13.5625 Z M 32.027344 13.5625 "/>
<path style=" stroke:none;fill-rule:evenodd;fill:rgb(22.745098%,77.254902%,90.196078%);fill-opacity:1;" d="M 22.074219 8.007812 C 12.40625 12.019531 6.097656 21.457031 6.09375 31.929688 C 6.109375 45.261719 16.238281 56.40625 29.511719 57.6875 L 29.511719 52.703125 C 18.992188 51.441406 11.070312 42.523438 11.0625 31.929688 C 11.070312 24.230469 15.296875 17.160156 22.074219 13.511719 Z M 41.925781 8.023438 L 41.925781 13.5 C 48.707031 17.148438 52.9375 24.226562 52.9375 31.929688 C 52.925781 42.519531 45.003906 51.433594 34.488281 52.691406 L 34.488281 57.707031 C 47.765625 56.425781 57.902344 45.269531 57.90625 31.929688 C 57.894531 21.464844 51.589844 12.035156 41.925781 8.023438 Z M 41.925781 8.023438 "/>
</g>
</svg>
