
<svg xmlns="http://www.w3.org/2000/svg" xmlns:xlink="http://www.w3.org/1999/xlink" width="64px" height="64px" viewBox="0 0 64 64" version="1.1">
<g id="surface1">
<path style=" stroke:none;fill-rule:nonzero;fill:rgb(38.039216%,47.058824%,49.803922%);fill-opacity:1;" d="M 18.289062 14.710938 L 36.601562 14.710938 L 36.601562 3.265625 L 18.289062 3.265625 Z M 18.289062 14.710938 "/>
<path style=" stroke:none;fill-rule:nonzero;fill:rgb(100%,100%,100%);fill-opacity:0.654902;" d="M 20.9375 10.492188 L 25.515625 10.492188 L 25.515625 5.917969 L 20.9375 5.917969 Z M 20.9375 10.492188 "/>
<path style=" stroke:none;fill-rule:nonzero;fill:rgb(0.784314%,20%,23.921569%);fill-opacity:0.654902;" d="M 20.578125 10.132812 L 25.15625 10.132812 L 25.15625 5.554688 L 20.578125 5.554688 Z M 20.578125 10.132812 "/>
<path style=" stroke:none;fill-rule:nonzero;fill:rgb(100%,100%,100%);fill-opacity:0.654902;" d="M 30.09375 10.492188 L 34.671875 10.492188 L 34.671875 5.917969 L 30.09375 5.917969 Z M 30.09375 10.492188 "/>
<path style=" stroke:none;fill-rule:nonzero;fill:rgb(0.784314%,20%,23.921569%);fill-opacity:0.654902;" d="M 29.734375 10.132812 L 34.3125 10.132812 L 34.3125 5.554688 L 29.734375 5.554688 Z M 29.734375 10.132812 "/>
<path style="fill-rule:nonzero;fill:rgb(13.72549%,68.235294%,87.058824%);fill-opacity:1;stroke-width:9.766254;stroke-linecap:butt;stroke-linejoin:miter;stroke:rgb(13.72549%,68.235294%,87.058824%);stroke-opacity:1;stroke-miterlimit:4;" d="M 118.8125 122.5625 L 320.28125 122.5625 C 328.59375 122.5625 335.3125 129.3125 335.3125 137.59375 L 335.3125 473.78125 C 335.3125 482.09375 328.59375 488.8125 320.28125 488.8125 L 118.8125 488.8125 C 110.53125 488.8125 103.78125 482.09375 103.78125 473.78125 L 103.78125 137.59375 C 103.78125 129.3125 110.53125 122.5625 118.8125 122.5625 Z M 118.8125 122.5625 " transform="matrix(0.125,0,0,0.125,0,0)"/>
<path style=" stroke:none;fill-rule:nonzero;fill:rgb(92.156863%,94.117647%,94.117647%);fill-opacity:1;" d="M 31.246094 28.085938 L 31.246094 24.34375 L 34.996094 24.34375 L 34.996094 28.085938 Z M 31.246094 28.085938 "/>
<path style=" stroke:none;fill-rule:nonzero;fill:rgb(92.156863%,94.117647%,94.117647%);fill-opacity:1;" d="M 27.800781 42.21875 C 29.207031 42.21875 30.351562 43.359375 30.351562 44.765625 C 30.351562 46.171875 29.207031 47.3125 27.800781 47.3125 C 26.390625 47.3125 25.25 46.171875 25.25 44.765625 C 25.25 43.359375 26.390625 42.21875 27.800781 42.21875 Z M 27.800781 42.21875 "/>
<path style=" stroke:none;fill-rule:nonzero;fill:rgb(92.156863%,94.117647%,94.117647%);fill-opacity:1;" d="M 23.019531 27.632812 C 24.265625 27.632812 25.277344 28.640625 25.277344 29.886719 C 25.277344 31.132812 24.265625 32.144531 23.019531 32.144531 C 21.773438 32.144531 20.761719 31.132812 20.761719 29.886719 C 20.761719 28.640625 21.773438 27.632812 23.019531 27.632812 Z M 23.019531 27.632812 "/>
<path style=" stroke:none;fill-rule:evenodd;fill:rgb(92.156863%,94.117647%,94.117647%);fill-opacity:1;" d="M 25.792969 22.082031 C 25.792969 22.082031 27.800781 17.542969 27.851562 17.609375 C 27.902344 17.679688 29.847656 22.082031 29.847656 22.082031 Z M 25.792969 22.082031 "/>
<path style="fill:none;stroke-width:5.573362;stroke-linecap:butt;stroke-linejoin:miter;stroke:rgb(92.156863%,94.117647%,94.117647%);stroke-opacity:1;stroke-miterlimit:2.012602;" d="M 222.34375 327.875 C 219.59375 302.1875 182.34375 289.5 182.25 274.59375 C 182.15625 264.5 182.625 260.09375 182.5625 247.28125 " transform="matrix(0.125,0,0,0.125,0,0)"/>
<path style="fill:none;stroke-width:5.573362;stroke-linecap:butt;stroke-linejoin:miter;stroke:rgb(92.156863%,94.117647%,94.117647%);stroke-opacity:1;stroke-miterlimit:2.012602;" d="M 222.34375 300.53125 C 222.34375 275.28125 250.125 269.3125 263.875 250.625 C 266 247.46875 264.625 218.90625 264.625 217.0625 " transform="matrix(0.125,0,0,0.125,0,0)"/>
<path style="fill:none;stroke-width:5.573362;stroke-linecap:butt;stroke-linejoin:miter;stroke:rgb(92.156863%,94.117647%,94.117647%);stroke-opacity:1;stroke-miterlimit:2.012602;" d="M 222.28125 358.5 L 222.28125 168.90625 " transform="matrix(0.125,0,0,0.125,0,0)"/>
<path style=" stroke:none;fill-rule:nonzero;fill:rgb(100%,100%,100%);fill-opacity:1;" d="M 58.496094 47.730469 C 58.496094 54.84375 52.859375 60.679688 45.75 60.929688 C 38.640625 61.175781 32.609375 55.75 32.113281 48.652344 C 31.613281 41.558594 36.828125 35.339844 43.902344 34.59375 C 50.976562 33.847656 57.371094 38.839844 58.367188 45.882812 "/>
<path style=" stroke:none;fill-rule:evenodd;fill:rgb(20.784314%,78.039216%,43.921569%);fill-opacity:1;" d="M 45.300781 38.914062 C 45.253906 38.914062 45.207031 38.914062 45.15625 38.917969 C 43.667969 39.03125 42.835938 40.847656 43.460938 42.835938 C 42.699219 41.558594 41.710938 40.574219 40.460938 40.585938 C 40.359375 40.585938 40.257812 40.59375 40.152344 40.605469 C 38.65625 40.808594 38.445312 42.683594 40.011719 43.5625 C 40.355469 43.753906 40.6875 43.984375 41.011719 44.238281 C 40.46875 43.933594 39.914062 43.742188 39.375 43.742188 C 39.011719 43.742188 38.65625 43.828125 38.316406 44.027344 C 37.230469 44.664062 37.601562 46.128906 38.984375 46.421875 C 38.613281 46.515625 38.277344 46.699219 37.996094 46.996094 C 37.121094 47.917969 37.980469 49.261719 39.472656 49.007812 C 39.613281 48.984375 39.753906 48.964844 39.898438 48.949219 C 39.539062 49.113281 39.253906 49.363281 39.074219 49.734375 C 38.636719 50.640625 39.605469 51.449219 40.667969 50.898438 C 41.5 50.46875 42.582031 50.269531 43.511719 50.167969 L 43.664062 50.253906 L 43.5 50.34375 C 43.5 50.34375 43.5 50.34375 43.5 50.347656 L 43.734375 50.738281 L 43.5 51.128906 C 43.5 51.128906 43.5 51.132812 43.5 51.132812 L 43.664062 51.222656 L 43.5 51.3125 C 43.5 51.3125 43.5 51.3125 43.5 51.316406 L 43.734375 51.707031 L 43.5 52.097656 C 43.5 52.097656 43.5 52.101562 43.5 52.101562 L 43.664062 52.191406 L 43.5 52.28125 C 43.5 52.28125 43.5 52.28125 43.5 52.285156 L 43.734375 52.675781 L 43.5 53.066406 C 43.5 53.070312 43.5 53.070312 43.5 53.070312 L 43.664062 53.160156 L 43.5 53.25 C 43.5 53.25 43.5 53.253906 43.5 53.253906 L 43.734375 53.644531 L 43.5 54.035156 C 43.5 54.039062 43.5 54.039062 43.5 54.039062 L 43.664062 54.128906 L 43.5 54.21875 C 43.5 54.21875 43.5 54.222656 43.5 54.222656 L 43.734375 54.613281 L 43.5 55.007812 L 43.664062 55.097656 L 43.5 55.1875 C 43.5 55.191406 43.5 55.191406 43.5 55.191406 L 43.734375 55.582031 L 43.5 55.976562 L 43.664062 56.066406 L 43.5 56.160156 L 43.734375 56.550781 L 43.699219 56.609375 L 46.832031 56.609375 L 46.796875 56.550781 L 47.035156 56.160156 L 46.871094 56.066406 L 47.035156 55.976562 L 46.796875 55.582031 L 47.035156 55.191406 C 47.035156 55.191406 47.035156 55.191406 47.035156 55.1875 L 46.871094 55.097656 L 47.035156 55.007812 L 46.796875 54.613281 L 47.035156 54.222656 C 47.035156 54.222656 47.035156 54.21875 47.035156 54.21875 L 46.871094 54.128906 L 47.035156 54.039062 C 47.035156 54.039062 47.035156 54.039062 47.035156 54.035156 L 46.796875 53.644531 L 47.035156 53.253906 C 47.035156 53.253906 47.035156 53.25 47.035156 53.25 L 46.871094 53.160156 L 47.035156 53.070312 C 47.035156 53.070312 47.035156 53.070312 47.035156 53.066406 L 46.796875 52.675781 L 47.035156 52.285156 C 47.035156 52.28125 47.035156 52.28125 47.035156 52.28125 L 46.871094 52.191406 L 47.035156 52.101562 C 47.035156 52.101562 47.035156 52.097656 47.035156 52.097656 L 46.796875 51.707031 L 47.035156 51.316406 C 47.035156 51.3125 47.035156 51.3125 47.035156 51.3125 L 46.871094 51.222656 L 47.035156 51.132812 C 47.035156 51.132812 47.035156 51.128906 47.035156 51.128906 L 46.796875 50.738281 L 47.035156 50.347656 C 47.035156 50.34375 47.035156 50.34375 47.035156 50.34375 L 46.871094 50.253906 L 47.03125 50.164062 C 47.96875 50.261719 49.066406 50.464844 49.90625 50.898438 C 50.972656 51.449219 51.941406 50.640625 51.5 49.734375 C 51.324219 49.363281 51.035156 49.113281 50.679688 48.949219 C 50.824219 48.964844 50.964844 48.984375 51.101562 49.007812 C 52.597656 49.261719 53.453125 47.917969 52.578125 46.996094 C 52.296875 46.699219 51.964844 46.515625 51.59375 46.421875 C 52.976562 46.128906 53.34375 44.664062 52.261719 44.027344 C 51.421875 43.539062 50.480469 43.722656 49.5625 44.238281 C 49.890625 43.980469 50.222656 43.753906 50.5625 43.5625 C 52.132812 42.683594 51.921875 40.808594 50.425781 40.605469 C 48.9375 40.40625 47.800781 41.589844 46.960938 43.105469 C 47.675781 40.6875 46.691406 38.925781 45.300781 38.914062 Z M 45.300781 38.914062 "/>
<path style=" stroke:none;fill-rule:evenodd;fill:rgb(22.745098%,77.254902%,90.196078%);fill-opacity:1;" d="M 40.542969 36.257812 C 35.917969 38.175781 32.902344 42.6875 32.902344 47.695312 C 32.90625 54.070312 37.75 59.398438 44.097656 60.011719 L 44.097656 57.628906 C 39.066406 57.027344 35.28125 52.761719 35.277344 47.695312 C 35.28125 44.015625 37.300781 40.632812 40.542969 38.886719 Z M 50.035156 36.265625 L 50.035156 38.882812 C 53.277344 40.628906 55.300781 44.011719 55.300781 47.695312 C 55.292969 52.757812 51.507812 57.019531 46.476562 57.625 L 46.476562 60.023438 C 52.828125 59.410156 57.675781 54.074219 57.675781 47.695312 C 57.671875 42.691406 54.65625 38.179688 50.035156 36.265625 Z M 50.035156 36.265625 "/>
</g>
</svg>
