
<svg xmlns="http://www.w3.org/2000/svg" xmlns:xlink="http://www.w3.org/1999/xlink" width="64px" height="64px" viewBox="0 0 64 64" version="1.1">
<g id="surface1">
<path style="fill-rule:nonzero;fill:rgb(20%,27.843137%,36.078431%);fill-opacity:1;stroke-width:27.936705;stroke-linecap:butt;stroke-linejoin:miter;stroke:rgb(36.862745%,39.607843%,41.568627%);stroke-opacity:1;stroke-miterlimit:4;" d="M 83.0625 25.018009 L 428.9375 25.018009 C 459.8125 25.018009 484.8125 50.018009 484.8125 80.893009 L 484.8125 426.768009 C 484.8125 457.643009 459.8125 482.643009 428.9375 482.643009 L 83.0625 482.643009 C 52.1875 482.643009 27.1875 457.643009 27.1875 426.768009 L 27.1875 80.893009 C 27.1875 50.018009 52.1875 25.018009 83.0625 25.018009 Z M 83.0625 25.018009 " transform="matrix(0.125,0,0,0.125,0.0000000463257,0.271186)"/>
<path style=" stroke:none;fill-rule:nonzero;fill:rgb(15.686275%,20.784314%,24.705882%);fill-opacity:1;" d="M 18.0625 8.089844 L 18.0625 18.949219 L 5.128906 18.949219 L 5.128906 19.785156 L 18.0625 19.785156 L 18.0625 23.964844 L 5.128906 23.964844 L 5.128906 24.796875 L 18.0625 24.796875 L 18.0625 30.648438 L 5.128906 30.648438 L 5.128906 31.484375 L 18.0625 31.484375 L 18.0625 36.496094 L 5.128906 36.496094 L 5.128906 37.332031 L 18.0625 37.332031 L 18.0625 41.507812 L 5.128906 41.507812 L 5.128906 42.34375 L 18.0625 42.34375 L 18.0625 53.207031 L 19.058594 53.207031 L 19.058594 42.34375 L 24.035156 42.34375 L 24.035156 53.207031 L 25.027344 53.207031 L 25.027344 42.34375 L 31.992188 42.34375 L 31.992188 53.207031 L 32.988281 53.207031 L 32.988281 42.34375 L 38.957031 42.34375 L 38.957031 53.207031 L 39.953125 53.207031 L 39.953125 42.34375 L 44.929688 42.34375 L 44.929688 53.207031 L 45.921875 53.207031 L 45.921875 42.34375 L 58.859375 42.34375 L 58.859375 41.507812 L 45.921875 41.507812 L 45.921875 37.332031 L 58.859375 37.332031 L 58.859375 36.496094 L 45.921875 36.496094 L 45.921875 31.484375 L 58.859375 31.484375 L 58.859375 30.648438 L 45.921875 30.648438 L 45.921875 24.796875 L 58.859375 24.796875 L 58.859375 23.964844 L 45.921875 23.964844 L 45.921875 19.785156 L 58.859375 19.785156 L 58.859375 18.949219 L 45.921875 18.949219 L 45.921875 8.089844 L 44.929688 8.089844 L 44.929688 18.949219 L 39.953125 18.949219 L 39.953125 8.089844 L 38.957031 8.089844 L 38.957031 18.949219 L 32.988281 18.949219 L 32.988281 8.089844 L 31.992188 8.089844 L 31.992188 18.949219 L 25.027344 18.949219 L 25.027344 8.089844 L 24.035156 8.089844 L 24.035156 18.949219 L 19.058594 18.949219 L 19.058594 8.089844 Z M 19.058594 19.785156 L 24.035156 19.785156 L 24.035156 23.964844 L 19.058594 23.964844 Z M 25.027344 19.785156 L 31.992188 19.785156 L 31.992188 23.964844 L 25.027344 23.964844 Z M 32.988281 19.785156 L 38.957031 19.785156 L 38.957031 23.964844 L 32.988281 23.964844 Z M 39.953125 19.785156 L 44.929688 19.785156 L 44.929688 23.964844 L 39.953125 23.964844 Z M 19.058594 24.796875 L 24.035156 24.796875 L 24.035156 30.648438 L 19.058594 30.648438 Z M 25.027344 24.796875 L 31.992188 24.796875 L 31.992188 30.648438 L 25.027344 30.648438 Z M 32.988281 24.796875 L 38.957031 24.796875 L 38.957031 30.648438 L 32.988281 30.648438 Z M 39.953125 24.796875 L 44.929688 24.796875 L 44.929688 30.648438 L 39.953125 30.648438 Z M 19.058594 31.484375 L 24.035156 31.484375 L 24.035156 36.496094 L 19.058594 36.496094 Z M 25.027344 31.484375 L 31.992188 31.484375 L 31.992188 36.496094 L 25.027344 36.496094 Z M 32.988281 31.484375 L 38.957031 31.484375 L 38.957031 36.496094 L 32.988281 36.496094 Z M 39.953125 31.484375 L 44.929688 31.484375 L 44.929688 36.496094 L 39.953125 36.496094 Z M 19.058594 37.332031 L 24.035156 37.332031 L 24.035156 41.507812 L 19.058594 41.507812 Z M 25.027344 37.332031 L 31.992188 37.332031 L 31.992188 41.507812 L 25.027344 41.507812 Z M 32.988281 37.332031 L 38.957031 37.332031 L 38.957031 41.507812 L 32.988281 41.507812 Z M 39.953125 37.332031 L 44.929688 37.332031 L 44.929688 41.507812 L 39.953125 41.507812 Z M 39.953125 37.332031 "/>
<path style=" stroke:none;fill-rule:nonzero;fill:rgb(97.254902%,87.058824%,40.784314%);fill-opacity:1;" d="M 50.898438 21.34375 L 43.933594 24.886719 L 37.964844 24 L 32.988281 27.539062 L 28.011719 26.65625 L 25.027344 27.539062 L 23.039062 28.425781 L 20.054688 28.425781 L 19.058594 29.308594 L 14.082031 28.425781 L 12.09375 29.308594 L 10.101562 30.195312 L 9.109375 29.308594 L 5.128906 37.570312 L 5.128906 53.207031 L 58.859375 53.207031 L 58.859375 22.230469 L 54.878906 22.230469 Z M 50.898438 21.34375 "/>
<path style=" stroke:none;fill-rule:nonzero;fill:rgb(9.803922%,63.137255%,52.941176%);fill-opacity:1;" d="M 40.949219 31.964844 L 36.96875 32.851562 L 33.984375 35.503906 L 27.019531 35.503906 L 24.035156 36.390625 L 22.042969 36.390625 L 18.0625 41.699219 L 17.070312 40.816406 L 13.089844 47.894531 L 8.113281 46.125 L 5.128906 48.117188 L 5.128906 53.207031 L 58.859375 53.207031 L 58.859375 31.964844 Z M 40.949219 31.964844 "/>
<path style=" stroke:none;fill-rule:nonzero;fill:rgb(30.980392%,72.156863%,76.078431%);fill-opacity:1;" d="M 47.914062 29.308594 L 40.949219 33.734375 L 37.964844 36.390625 L 33.984375 37.273438 L 30.003906 36.390625 L 26.023438 36.390625 L 19.058594 44.355469 L 17.070312 43.46875 L 13.089844 47.894531 L 11.097656 47.894531 L 10.101562 48.78125 L 8.113281 47.894531 L 5.128906 49.886719 L 5.128906 53.207031 L 58.859375 53.207031 L 58.859375 30.195312 L 57.863281 30.195312 L 55.871094 31.082031 L 51.894531 31.964844 Z M 47.914062 29.308594 "/>
</g>
</svg>
