
<svg xmlns="http://www.w3.org/2000/svg" xmlns:xlink="http://www.w3.org/1999/xlink" width="64px" height="64px" viewBox="0 0 64 64" version="1.1">
<g id="surface1">
<path style="fill-rule:nonzero;fill:rgb(92.156863%,92.156863%,92.156863%);fill-opacity:1;stroke-width:27.442497;stroke-linecap:butt;stroke-linejoin:miter;stroke:rgb(0%,65.882353%,83.137255%);stroke-opacity:1;stroke-miterlimit:4;" d="M 86.125 31.25 L 425.875 31.25 C 456.1875 31.25 480.75 55.8125 480.75 86.125 L 480.75 425.875 C 480.75 456.1875 456.1875 480.75 425.875 480.75 L 86.125 480.75 C 55.8125 480.75 31.25 456.1875 31.25 425.875 L 31.25 86.125 C 31.25 55.8125 55.8125 31.25 86.125 31.25 Z M 86.125 31.25 " transform="matrix(0.125,0,0,0.125,0,0)"/>
<path style=" stroke:none;fill-rule:evenodd;fill:rgb(49.803922%,49.803922%,49.803922%);fill-opacity:1;" d="M 28.375 49.457031 L 22.492188 53.316406 L 41.613281 53.316406 L 35.730469 49.457031 Z M 28.375 49.457031 "/>
<path style=" stroke:none;fill-rule:evenodd;fill:rgb(49.803922%,49.803922%,49.803922%);fill-opacity:1;" d="M 28.375 48.285156 L 22.492188 52.144531 L 41.613281 52.144531 L 35.730469 48.285156 Z M 28.375 48.285156 "/>
<path style=" stroke:none;fill-rule:nonzero;fill:rgb(29.803922%,29.803922%,29.803922%);fill-opacity:1;" d="M 27.96875 41.199219 L 36.152344 41.199219 L 36.152344 50.304688 L 27.96875 50.304688 Z M 27.96875 41.199219 "/>
<path style=" stroke:none;fill-rule:nonzero;fill:rgb(49.803922%,49.803922%,49.803922%);fill-opacity:1;" d="M 11.753906 10.683594 L 52.367188 10.683594 C 53.789062 10.683594 54.941406 11.785156 54.941406 13.144531 L 54.941406 41.585938 C 54.941406 42.945312 53.789062 44.046875 52.367188 44.046875 L 11.753906 44.046875 C 10.332031 44.046875 9.175781 42.945312 9.175781 41.585938 L 9.175781 13.144531 C 9.175781 11.785156 10.332031 10.683594 11.753906 10.683594 Z M 11.753906 10.683594 "/>
<path style=" stroke:none;fill-rule:nonzero;fill:rgb(0%,65.882353%,83.137255%);fill-opacity:1;" d="M 13.460938 13.808594 L 50.660156 13.808594 L 50.660156 40.921875 L 13.460938 40.921875 Z M 13.460938 13.808594 "/>
<path style=" stroke:none;fill-rule:evenodd;fill:rgb(0%,0%,0%);fill-opacity:1;" d="M 22.492188 52.144531 L 22.492188 53.316406 L 41.628906 53.316406 L 41.628906 52.144531 Z M 22.492188 52.144531 "/>
<path style=" stroke:none;fill-rule:nonzero;fill:rgb(100%,100%,100%);fill-opacity:1;" d="M 36.074219 36.058594 L 33.96875 36.058594 L 33.96875 38.296875 L 36.074219 38.296875 Z M 32.914062 36.058594 L 30.808594 36.058594 L 30.808594 38.296875 L 32.914062 38.296875 Z M 29.757812 36.058594 L 27.652344 36.058594 L 27.652344 38.296875 L 29.757812 38.296875 Z M 29.757812 36.058594 "/>
<path style=" stroke:none;fill-rule:evenodd;fill:rgb(20%,20%,20%);fill-opacity:1;" d="M 13.351562 13.875 L 13.351562 16 L 50.558594 16 L 50.558594 13.875 Z M 13.351562 13.875 "/>
<path style=" stroke:none;fill-rule:nonzero;fill:rgb(100%,100%,100%);fill-opacity:1;" d="M 22.90625 18.027344 L 15.136719 22.851562 L 22.886719 27.394531 Z M 22.90625 20.6875 L 22.90625 24.710938 L 40.035156 24.710938 L 40.035156 20.6875 Z M 22.90625 20.6875 "/>
<path style=" stroke:none;fill-rule:nonzero;fill:rgb(100%,100%,100%);fill-opacity:1;" d="M 40.753906 26.691406 L 48.523438 31.515625 L 40.773438 36.058594 Z M 40.753906 29.347656 L 40.753906 33.375 L 23.625 33.375 L 23.625 29.347656 Z M 40.753906 29.347656 "/>
</g>
</svg>
