
<svg xmlns="http://www.w3.org/2000/svg" xmlns:xlink="http://www.w3.org/1999/xlink" width="64px" height="64px" viewBox="0 0 64 64" version="1.1">
<g id="surface1">
<path style="fill-rule:nonzero;fill:rgb(20%,27.843137%,36.078431%);fill-opacity:1;stroke-width:27.936705;stroke-linecap:butt;stroke-linejoin:miter;stroke:rgb(20%,27.843137%,36.078431%);stroke-opacity:1;stroke-miterlimit:4;" d="M 83.0625 27.1875 L 428.9375 27.1875 C 459.8125 27.1875 484.8125 52.1875 484.8125 83.0625 L 484.8125 428.9375 C 484.8125 459.8125 459.8125 484.8125 428.9375 484.8125 L 83.0625 484.8125 C 52.1875 484.8125 27.1875 459.8125 27.1875 428.9375 L 27.1875 83.0625 C 27.1875 52.1875 52.1875 27.1875 83.0625 27.1875 Z M 83.0625 27.1875 " transform="matrix(0.125,0,0,0.125,0,0)"/>
<path style=" stroke:none;fill-rule:nonzero;fill:rgb(20%,59.215686%,85.098039%);fill-opacity:1;" d="M 11.203125 4.484375 C 7.492188 4.484375 4.484375 7.492188 4.484375 11.203125 L 4.484375 52.796875 C 4.484375 53.03125 4.496094 53.257812 4.515625 53.484375 C 4.539062 53.710938 4.574219 53.933594 4.621094 54.152344 C 4.664062 54.371094 4.71875 54.585938 4.785156 54.796875 C 5.113281 55.847656 5.691406 56.789062 6.449219 57.550781 C 6.601562 57.699219 6.761719 57.847656 6.929688 57.984375 C 7.09375 58.121094 7.265625 58.25 7.445312 58.371094 C 7.554688 58.445312 7.675781 58.511719 7.789062 58.578125 C 8.046875 58.730469 8.308594 58.871094 8.585938 58.988281 C 8.789062 59.074219 8.992188 59.148438 9.203125 59.214844 C 9.414062 59.28125 9.628906 59.335938 9.847656 59.378906 C 10.066406 59.425781 10.289062 59.460938 10.515625 59.484375 C 10.742188 59.503906 10.96875 59.515625 11.203125 59.515625 L 52.796875 59.515625 C 53.03125 59.515625 53.257812 59.503906 53.484375 59.484375 C 53.710938 59.460938 53.933594 59.425781 54.152344 59.378906 C 54.371094 59.335938 54.585938 59.28125 54.796875 59.214844 C 56.347656 58.730469 57.652344 57.699219 58.496094 56.34375 C 58.570312 56.226562 58.644531 56.113281 58.710938 55.988281 C 58.828125 55.777344 58.929688 55.554688 59.019531 55.328125 C 59.050781 55.253906 59.074219 55.179688 59.101562 55.101562 C 59.164062 54.941406 59.214844 54.777344 59.265625 54.605469 C 59.289062 54.519531 59.308594 54.433594 59.332031 54.34375 C 59.371094 54.171875 59.402344 54 59.429688 53.824219 C 59.441406 53.742188 59.457031 53.664062 59.46875 53.582031 C 59.496094 53.328125 59.515625 53.070312 59.515625 52.8125 C 59.515625 52.808594 59.515625 52.800781 59.515625 52.796875 L 59.515625 23.539062 L 40.460938 4.484375 Z M 11.203125 4.484375 "/>
<path style=" stroke:none;fill-rule:nonzero;fill:rgb(100%,100%,100%);fill-opacity:1;" d="M 59.515625 23.539062 L 40.460938 4.484375 L 40.460938 16.820312 C 40.460938 20.53125 43.46875 23.539062 47.179688 23.539062 Z M 59.515625 23.539062 "/>
</g>
</svg>
