
<svg xmlns="http://www.w3.org/2000/svg" xmlns:xlink="http://www.w3.org/1999/xlink" width="64px" height="64px" viewBox="0 0 64 64" version="1.1">
<g id="surface1">
<path style="fill-rule:nonzero;fill:rgb(74.117647%,76.078431%,78.039216%);fill-opacity:1;stroke-width:20.298223;stroke-linecap:butt;stroke-linejoin:miter;stroke:rgb(29.019608%,68.235294%,90.196078%);stroke-opacity:1;stroke-miterlimit:4;" d="M 117.330677 102.771366 L 368.635419 102.771366 C 391.069233 102.771366 409.223366 120.942722 409.223366 143.368949 L 409.223366 394.664931 C 409.223366 417.091158 391.069233 435.262514 368.635419 435.262514 L 117.330677 435.262514 C 94.896863 435.262514 76.74273 417.091158 76.74273 394.664931 L 76.74273 143.368949 C 76.74273 120.942722 94.896863 102.771366 117.330677 102.771366 Z M 117.330677 102.771366 " transform="matrix(0.16977,0,0,0.16617,-9.251287,-12.702501)"/>
<path style=" stroke:none;fill-rule:nonzero;fill:rgb(15.686275%,49.803922%,72.156863%);fill-opacity:1;" d="M 33.214844 8.636719 L 33.214844 30.808594 L 55.871094 30.808594 L 55.871094 14.050781 C 55.871094 11.058594 53.394531 8.636719 50.339844 8.636719 Z M 33.214844 8.636719 "/>
<path style=" stroke:none;fill-rule:nonzero;fill:rgb(15.686275%,49.803922%,72.156863%);fill-opacity:1;" d="M 30.785156 55.363281 L 30.785156 33.191406 L 8.128906 33.191406 L 8.128906 49.949219 C 8.128906 52.941406 10.605469 55.363281 13.660156 55.363281 Z M 30.785156 55.363281 "/>
<path style=" stroke:none;fill-rule:nonzero;fill:rgb(54.901961%,25.882353%,67.058824%);fill-opacity:1;" d="M 8.128906 30.808594 L 30.785156 30.808594 L 30.785156 8.636719 L 13.660156 8.636719 C 10.605469 8.636719 8.128906 11.058594 8.128906 14.050781 Z M 8.128906 30.808594 "/>
<path style=" stroke:none;fill-rule:nonzero;fill:rgb(54.901961%,25.882353%,67.058824%);fill-opacity:1;" d="M 55.871094 33.191406 L 33.214844 33.191406 L 33.214844 55.363281 L 50.339844 55.363281 C 53.394531 55.363281 55.871094 52.941406 55.871094 49.949219 Z M 55.871094 33.191406 "/>
</g>
</svg>
