
<svg xmlns="http://www.w3.org/2000/svg" xmlns:xlink="http://www.w3.org/1999/xlink" width="64px" height="64px" viewBox="0 0 64 64" version="1.1">
<defs>
<radialGradient id="radial0" gradientUnits="userSpaceOnUse" cx="-495.98746" cy="-87.834587" fx="-495.98746" fy="-87.834587" r="88.03125" gradientTransform="matrix(0.168637,0,0,0.172017,110.991146,33.27719)">
<stop offset="0" style="stop-color:rgb(23.921569%,33.72549%,43.137255%);stop-opacity:1;"/>
<stop offset="1" style="stop-color:rgb(23.921569%,33.72549%,43.137255%);stop-opacity:0;"/>
</radialGradient>
<linearGradient id="linear0" gradientUnits="userSpaceOnUse" x1="-516.70276" y1="20.883038" x2="-518.81342" y2="29.600176" gradientTransform="matrix(0.168637,0,0,0.168637,110.991146,29.992843)">
<stop offset="0" style="stop-color:rgb(45.490196%,40.784314%,42.352941%);stop-opacity:1;"/>
<stop offset="1" style="stop-color:rgb(89.411765%,88.235294%,88.627451%);stop-opacity:1;"/>
</linearGradient>
<linearGradient id="linear1" gradientUnits="userSpaceOnUse" x1="-130.89725" y1="16.472939" x2="-128.05614" y2="38.053318" gradientTransform="matrix(0.168637,0,0,0.168637,68.831821,29.992843)">
<stop offset="0" style="stop-color:rgb(45.490196%,40.784314%,42.352941%);stop-opacity:1;"/>
<stop offset="1" style="stop-color:rgb(89.411765%,88.235294%,88.627451%);stop-opacity:1;"/>
</linearGradient>
<radialGradient id="radial1" gradientUnits="userSpaceOnUse" cx="-500.14664" cy="-15.092947" fx="-500.14664" fy="-15.092947" r="26.649689" gradientTransform="matrix(0.168637,0,0,0.0563631,110.991146,28.298295)">
<stop offset="0" style="stop-color:rgb(98.039216%,82.745098%,29.411765%);stop-opacity:1;"/>
<stop offset="1" style="stop-color:rgb(98.039216%,73.72549%,21.568627%);stop-opacity:1;"/>
</radialGradient>
<radialGradient id="radial2" gradientUnits="userSpaceOnUse" cx="-400.11536" cy="-16.508318" fx="-400.11536" fy="-16.508318" r="15.88463" gradientTransform="matrix(0.168637,0,0,0.0902574,110.991146,28.698923)">
<stop offset="0" style="stop-color:rgb(98.039216%,82.745098%,29.411765%);stop-opacity:1;"/>
<stop offset="1" style="stop-color:rgb(98.039216%,73.72549%,21.568627%);stop-opacity:1;"/>
</radialGradient>
</defs>
<g id="surface2">
<path style="fill-rule:nonzero;fill:rgb(68.235294%,57.647059%,50.588235%);fill-opacity:1;stroke-width:27.565153;stroke-linecap:butt;stroke-linejoin:miter;stroke:rgb(20%,27.843137%,36.078431%);stroke-opacity:1;stroke-miterlimit:4;" d="M 85.34375 30.21875 L 426.65625 30.21875 C 457.09375 30.21875 481.78125 54.90625 481.78125 85.34375 L 481.78125 426.65625 C 481.78125 457.09375 457.09375 481.78125 426.65625 481.78125 L 85.34375 481.78125 C 54.90625 481.78125 30.21875 457.09375 30.21875 426.65625 L 30.21875 85.34375 C 30.21875 54.90625 54.90625 30.21875 85.34375 30.21875 Z M 85.34375 30.21875 " transform="matrix(0.125,0,0,0.125,0,0)"/>
<path style=" stroke:none;fill-rule:nonzero;fill:rgb(63.137255%,50.980392%,43.137255%);fill-opacity:1;" d="M 11.234375 5.683594 L 31.5625 34.578125 L 23.027344 5.683594 Z M 31.5625 34.578125 L 40.925781 5.683594 L 31.234375 5.683594 Z M 31.5625 34.578125 L 58.65625 19.960938 L 58.65625 9.351562 C 58.65625 8.003906 57.925781 6.828125 56.839844 6.191406 Z M 31.5625 34.578125 L 58.65625 39.625 L 58.65625 26.648438 Z M 31.5625 34.578125 L 43.261719 58.589844 L 54.96875 58.589844 C 56.550781 58.589844 57.902344 57.597656 58.421875 56.203125 Z M 31.5625 34.578125 L 23.746094 58.589844 L 32.800781 58.589844 Z M 31.5625 34.578125 L 5.953125 56.941406 C 6.613281 57.933594 7.746094 58.589844 9.03125 58.589844 L 16.726562 58.589844 Z M 31.5625 34.578125 L 5.34375 35.089844 L 5.34375 48.996094 Z M 31.5625 34.578125 L 5.34375 20.128906 L 5.34375 29.902344 Z M 31.5625 34.578125 "/>
<path style=" stroke:none;fill-rule:nonzero;fill:rgb(0%,0%,0%);fill-opacity:1;" d="M 39.910156 49.609375 C 36.660156 49.332031 35.148438 48.953125 34.589844 48.277344 C 34.457031 48.117188 34.042969 48.035156 33.355469 48.035156 C 31.882812 48.03125 30.445312 47.65625 29.898438 47.128906 C 29.558594 46.804688 29.257812 46.6875 28.765625 46.6875 C 27.714844 46.6875 24.089844 46.179688 23.875 46 C 23.75 45.894531 23.613281 45.921875 23.484375 46.078125 C 23.027344 46.628906 20.269531 46.882812 18.707031 46.519531 C 18.3125 46.429688 17.710938 46.3125 17.375 46.265625 C 16.609375 46.152344 16.394531 45.613281 16.898438 45.078125 C 17.414062 44.53125 17.320312 44.089844 16.644531 43.847656 C 16.058594 43.636719 14.375 42.46875 13.460938 41.640625 C 12.761719 41.011719 11.902344 39.609375 11.574219 38.570312 C 11.417969 38.070312 11.203125 37.402344 11.097656 37.074219 C 10.992188 36.742188 10.921875 35.625 10.941406 34.511719 C 10.980469 32.226562 11.371094 30.660156 12.222656 29.375 C 12.988281 28.222656 15.421875 25.835938 18.242188 23.472656 C 19.804688 22.164062 21.113281 20.898438 21.867188 19.964844 C 24.984375 16.105469 25.621094 15.40625 26.644531 14.707031 C 28.257812 13.609375 31.089844 12.867188 33.585938 12.890625 C 35.492188 12.910156 37.0625 13.390625 38.597656 14.421875 C 39.132812 14.78125 39.789062 15.171875 40.054688 15.289062 C 40.953125 15.683594 41.679688 16.371094 42.941406 18.035156 C 44.339844 19.878906 45.15625 21.390625 45.714844 23.164062 C 46.265625 24.914062 47.304688 26.941406 48.097656 27.800781 C 48.742188 28.503906 50.492188 30.976562 50.957031 31.851562 C 51.070312 32.058594 51.21875 32.617188 51.292969 33.09375 C 51.363281 33.566406 51.546875 34.566406 51.695312 35.3125 C 52.285156 38.253906 51.773438 41.148438 50.429688 42.492188 C 50.070312 42.851562 49.777344 43.183594 49.777344 43.230469 C 49.777344 43.277344 50.210938 43.316406 50.746094 43.316406 C 52.386719 43.320312 54.238281 44.453125 53.929688 45.261719 C 53.757812 45.703125 52.378906 46.195312 51.097656 46.273438 C 50.4375 46.3125 49.855469 46.382812 49.808594 46.433594 C 49.757812 46.480469 49.828125 46.523438 49.957031 46.523438 C 50.347656 46.535156 51 47.171875 50.898438 47.4375 C 50.660156 48.0625 47.703125 48.9375 44.902344 49.21875 C 41.515625 49.554688 40.335938 49.648438 39.910156 49.609375 Z M 39.910156 49.609375 "/>
<path style=" stroke:none;fill-rule:nonzero;fill:rgb(22.745098%,31.764706%,40.784314%);fill-opacity:1;" d="M 30.015625 14.148438 C 27.835938 14.957031 25.394531 16.03125 24.25 18.417969 C 23.296875 20.410156 21.300781 21.960938 19.640625 23.316406 C 17.582031 24.453125 15.191406 27.269531 13.800781 29.050781 C 12.453125 31.074219 12.335938 31.800781 11.765625 34.25 C 11.207031 36.605469 12.636719 39.140625 13.722656 41.03125 C 15.042969 42.488281 17.503906 43.289062 18.472656 44.542969 C 17.269531 44.550781 16.421875 46.082031 18.09375 46.167969 C 19.6875 46.382812 22.402344 46.878906 23.300781 45.519531 C 21.921875 43.921875 24.277344 46.035156 25.144531 45.828125 C 27.257812 46.65625 29.390625 45.652344 31.542969 45.851562 C 32.429688 45.785156 34.476562 46.28125 32.496094 46.074219 C 31.460938 45.585938 29.445312 46.707031 31.21875 47.367188 C 33.5 47.007812 35.308594 48.101562 37.226562 48.960938 C 40.125 49.476562 42.097656 49.066406 44.839844 48.933594 C 46.210938 48.234375 48.382812 48.546875 49.375 47.28125 C 47.261719 46.238281 45.28125 45.035156 42.941406 44.441406 C 41.097656 43.898438 38.230469 46.671875 37.878906 46.667969 C 39.757812 45.207031 41.746094 43.082031 44.382812 44.136719 C 46.65625 44.734375 48.558594 45.980469 51.09375 45.925781 C 53.488281 45.878906 53.605469 43.257812 51.238281 43.359375 C 50.246094 43.113281 47.714844 43.820312 47.707031 43.726562 C 49.980469 43.046875 50.671875 40.582031 51.257812 38.753906 C 51.226562 36.425781 51.171875 34.023438 50.175781 31.898438 C 48.679688 30.222656 47.65625 27.933594 46.078125 26.3125 C 45.199219 24.488281 44.507812 22.566406 43.417969 20.808594 C 42.453125 19.34375 41.640625 17.113281 39.984375 16.417969 C 38.46875 15.324219 36.882812 14.148438 35.042969 13.851562 C 33.355469 13.65625 31.609375 13.5625 30.015625 14.148438 Z M 30.015625 14.148438 "/>
<path style=" stroke:none;fill-rule:nonzero;fill:rgb(22.745098%,31.764706%,40.784314%);fill-opacity:1;" d="M 32.496094 13.703125 C 31.648438 13.730469 30.808594 13.855469 30.015625 14.152344 C 27.832031 14.957031 25.394531 16.027344 24.253906 18.414062 C 23.300781 20.410156 21.296875 21.960938 19.636719 23.316406 C 17.578125 24.453125 15.195312 27.269531 13.804688 29.050781 C 12.714844 30.683594 12.425781 31.484375 12.054688 33.019531 C 11.8125 34.496094 11.789062 35.976562 12.324219 37.460938 C 13.695312 40.355469 16.886719 42.242188 20.101562 42.078125 C 24.226562 42.96875 28.363281 41.757812 32.480469 41.472656 C 35.855469 41.570312 39.550781 42.980469 42.582031 40.769531 C 44.816406 38.652344 45.367188 35.339844 45.839844 32.433594 C 46.542969 28.839844 40.066406 28.507812 42.96875 24.78125 C 43.445312 23.652344 43.65625 22.417969 43.636719 21.164062 C 43.566406 21.046875 43.492188 20.925781 43.421875 20.808594 C 42.457031 19.34375 41.644531 17.113281 39.984375 16.417969 C 38.46875 15.324219 36.882812 14.148438 35.046875 13.851562 C 34.203125 13.753906 33.34375 13.679688 32.496094 13.703125 Z M 52.3125 43.550781 C 51.800781 43.613281 51.296875 43.761719 50.792969 43.828125 C 50.023438 43.949219 49.929688 44.996094 50.625 45.308594 C 50.886719 45.488281 51.125 45.703125 51.371094 45.902344 C 53.078125 45.710938 53.425781 44.117188 52.3125 43.550781 Z M 19.035156 44.773438 C 18.507812 44.773438 18.046875 44.804688 17.878906 44.859375 C 17.695312 44.917969 17.488281 45.042969 17.28125 45.175781 C 17.28125 45.175781 17.277344 45.179688 17.277344 45.179688 C 17.007812 45.617188 17.152344 46.117188 18.09375 46.167969 C 19.261719 46.324219 21.023438 46.632812 22.242188 46.257812 C 22.054688 46.046875 21.804688 45.863281 21.734375 45.722656 C 21.585938 45.425781 21.410156 45.296875 21.175781 45.066406 C 20.976562 44.867188 19.917969 44.777344 19.035156 44.773438 Z M 42.644531 45.269531 C 41.507812 45.265625 40.394531 45.429688 39.292969 45.722656 C 38.570312 46.222656 38.019531 46.667969 37.875 46.667969 C 38.214844 46.402344 38.5625 46.121094 38.914062 45.835938 C 38.351562 46 37.792969 46.191406 37.238281 46.414062 C 35.371094 46.480469 33.035156 45.277344 31.179688 45.824219 C 31.300781 45.828125 31.417969 45.839844 31.542969 45.851562 C 32.425781 45.785156 34.476562 46.285156 32.496094 46.078125 C 31.460938 45.585938 29.441406 46.707031 31.214844 47.367188 C 33.5 47.011719 35.308594 48.105469 37.226562 48.964844 C 40.125 49.480469 42.097656 49.066406 44.84375 48.933594 C 46.214844 48.234375 48.382812 48.546875 49.375 47.277344 C 48.355469 46.777344 47.367188 46.242188 46.355469 45.75 C 45.71875 45.617188 45.082031 45.53125 44.511719 45.445312 C 43.882812 45.332031 43.261719 45.273438 42.644531 45.269531 Z M 42.644531 45.269531 "/>
<path style=" stroke:none;fill-rule:nonzero;fill:rgb(22.745098%,31.764706%,40.784314%);fill-opacity:1;" d="M 32.496094 13.703125 C 31.648438 13.730469 30.808594 13.855469 30.015625 14.152344 C 27.832031 14.957031 25.394531 16.027344 24.253906 18.414062 C 23.300781 20.410156 21.296875 21.960938 19.636719 23.316406 C 17.578125 24.453125 15.195312 27.269531 13.804688 29.050781 C 12.457031 31.074219 12.335938 31.800781 11.765625 34.25 C 11.695312 34.546875 11.65625 34.84375 11.644531 35.140625 C 11.644531 35.148438 11.640625 35.152344 11.644531 35.15625 C 11.816406 36.097656 12.1875 36.96875 12.890625 37.703125 C 15.617188 41.542969 20.378906 42.292969 24.753906 41.796875 C 29.609375 40.132812 34.128906 40.824219 38.929688 40.574219 C 43.136719 40.390625 45.863281 34.707031 44.042969 31.125 C 41.148438 29.414062 40.65625 25.632812 42.398438 22.964844 C 42.238281 21.757812 42.347656 20.390625 42.394531 19.035156 C 41.761719 17.9375 41.046875 16.863281 39.984375 16.417969 C 38.46875 15.324219 36.882812 14.148438 35.046875 13.851562 C 34.203125 13.753906 33.34375 13.679688 32.496094 13.703125 Z M 52.546875 43.707031 C 50.964844 43.808594 50.765625 45.054688 51.273438 45.917969 C 52.929688 45.789062 53.378906 44.375 52.546875 43.707031 Z M 19.601562 44.976562 C 18.679688 44.976562 17.835938 45.417969 17.351562 45.949219 C 17.5 46.070312 17.742188 46.148438 18.09375 46.167969 C 19.132812 46.304688 20.636719 46.558594 21.8125 46.351562 C 21.828125 45.878906 21.421875 45.402344 20.363281 45.082031 C 20.109375 45.011719 19.851562 44.976562 19.601562 44.976562 Z M 43.53125 45.414062 C 41.648438 45.796875 39.925781 46.230469 38.21875 46.484375 C 38.058594 46.589844 37.929688 46.667969 37.875 46.667969 C 37.945312 46.613281 38.015625 46.558594 38.082031 46.503906 C 36.179688 46.773438 34.292969 46.800781 32.230469 46.265625 C 31.601562 46.621094 31.234375 46.972656 31.0625 47.304688 C 31.109375 47.328125 31.160156 47.347656 31.214844 47.367188 C 33.5 47.011719 35.308594 48.105469 37.226562 48.964844 C 40.125 49.480469 42.097656 49.066406 44.84375 48.933594 C 45.96875 48.359375 47.628906 48.46875 48.738281 47.828125 C 47.804688 46.324219 45.058594 46.023438 43.53125 45.414062 Z M 43.53125 45.414062 "/>
<path style=" stroke:none;fill-rule:nonzero;fill:rgb(22.745098%,30.980392%,38.823529%);fill-opacity:1;" d="M 32.496094 13.703125 C 31.648438 13.730469 30.808594 13.855469 30.015625 14.152344 C 27.832031 14.957031 25.394531 16.027344 24.253906 18.414062 C 23.300781 20.410156 21.296875 21.960938 19.636719 23.316406 C 17.578125 24.453125 15.195312 27.269531 13.804688 29.050781 C 12.511719 30.992188 12.34375 31.757812 11.828125 33.976562 C 11.921875 35.429688 12.398438 36.835938 13.425781 37.894531 C 15.105469 39.363281 17.234375 40.523438 19.433594 40.675781 C 22.058594 40.859375 24.6875 40.074219 27.308594 40.054688 C 29.867188 39.953125 32.3125 38.808594 34.894531 39.214844 C 37.453125 39.25 39.550781 39.242188 41.632812 37.703125 C 43.289062 36.480469 43.34375 33.949219 43.609375 32.027344 C 42.347656 30.109375 40.070312 27.753906 40.699219 25.367188 C 42.023438 23.046875 41.585938 20.007812 41.382812 17.523438 C 40.984375 17.042969 40.53125 16.644531 39.984375 16.417969 C 38.46875 15.324219 36.882812 14.148438 35.046875 13.851562 C 34.203125 13.753906 33.34375 13.679688 32.496094 13.703125 Z M 51.941406 44.003906 C 51.339844 44.695312 51.722656 45.242188 52.363281 45.558594 C 52.875 45.203125 53.058594 44.652344 52.894531 44.191406 C 52.578125 44.132812 52.257812 44.082031 51.941406 44.003906 Z M 18.839844 45.128906 C 18.21875 45.15625 17.613281 45.417969 17.195312 45.761719 C 17.296875 45.976562 17.574219 46.140625 18.09375 46.167969 C 19.074219 46.296875 20.46875 46.53125 21.613281 46.382812 C 21.558594 46.125 21.378906 45.828125 21.011719 45.492188 C 20.644531 45.289062 20.207031 45.273438 19.800781 45.296875 C 19.492188 45.160156 19.167969 45.113281 18.839844 45.128906 Z M 43.664062 46.039062 C 41.0625 46.261719 39.921875 47.144531 37.328125 47.324219 C 35.128906 47.09375 32.984375 46.4375 30.761719 46.898438 C 30.703125 46.925781 30.648438 46.949219 30.597656 46.976562 C 30.699219 47.117188 30.894531 47.25 31.214844 47.367188 C 33.5 47.011719 35.308594 48.105469 37.226562 48.964844 C 40.125 49.480469 42.097656 49.066406 44.84375 48.933594 C 45.976562 48.355469 47.65625 48.46875 48.765625 47.8125 C 47.972656 46.6875 44.683594 46.25 43.664062 46.039062 Z M 43.664062 46.039062 "/>
<path style=" stroke:none;fill-rule:nonzero;fill:url(#radial0);" d="M 32.496094 13.703125 C 31.648438 13.730469 30.808594 13.855469 30.015625 14.152344 C 27.832031 14.957031 25.394531 16.027344 24.253906 18.414062 C 23.300781 20.410156 21.296875 21.960938 19.636719 23.316406 C 17.894531 24.28125 15.921875 26.441406 14.507812 28.164062 C 14.515625 28.402344 14.550781 28.632812 14.625 28.859375 C 15.652344 29.140625 17.070312 28.648438 17.855469 28.105469 C 19.261719 27.503906 22.890625 23.648438 24.277344 23.402344 C 24.898438 25.300781 27.941406 25.535156 31.972656 23.277344 C 33.238281 22.59375 36.523438 20.074219 35.484375 15.90625 C 35.863281 16.316406 38.785156 17.210938 41.023438 19.042969 C 41.90625 19.765625 42.949219 21.46875 44.199219 22.21875 C 43.960938 21.742188 43.707031 21.269531 43.421875 20.808594 C 42.457031 19.34375 41.644531 17.113281 39.984375 16.417969 C 38.46875 15.324219 36.882812 14.148438 35.046875 13.851562 C 34.203125 13.753906 33.34375 13.679688 32.496094 13.703125 Z M 32.496094 13.703125 "/>
<path style=" stroke:none;fill-rule:nonzero;fill:rgb(0%,0%,0%);fill-opacity:1;" d="M 32.710938 33.429688 C 29.550781 33.789062 26.019531 32.925781 22.9375 32.351562 C 20.933594 31.976562 18.515625 31.53125 18.046875 33.777344 C 17.695312 35.449219 18.589844 36.714844 20.113281 37.113281 C 22.480469 37.738281 25.796875 36.503906 28.71875 35.9375 C 30.34375 35.621094 32.457031 35.195312 34.277344 35.058594 C 36.660156 34.878906 38.984375 34.566406 41.441406 34.726562 C 44.128906 34.898438 46.808594 35.523438 49.558594 36.523438 C 51.085938 37.082031 50.613281 33.269531 49.53125 32.316406 C 48.515625 31.425781 47.113281 31.421875 45.773438 31.960938 C 41.675781 33.605469 37.105469 32.933594 32.710938 33.429688 Z M 32.710938 33.429688 "/>
<path style=" stroke:none;fill-rule:nonzero;fill:rgb(9.803922%,7.843137%,11.764706%);fill-opacity:1;" d="M 47.769531 32.328125 C 47.269531 32.292969 46.691406 32.398438 46.113281 32.628906 C 41.761719 34.375 37.109375 33.671875 32.851562 34.152344 C 29.488281 34.535156 25.894531 33.628906 22.84375 33.0625 C 21.84375 32.875 20.785156 32.707031 20.066406 32.804688 C 19.707031 32.851562 19.453125 32.953125 19.273438 33.105469 C 19.089844 33.253906 18.945312 33.460938 18.855469 33.882812 C 18.714844 34.550781 18.828125 35.054688 19.082031 35.449219 C 19.335938 35.84375 19.757812 36.148438 20.363281 36.308594 C 22.3125 36.820312 25.597656 35.707031 28.621094 35.121094 C 30.238281 34.808594 32.375 34.375 34.269531 34.230469 C 36.625 34.054688 38.984375 33.738281 41.535156 33.898438 C 44.265625 34.074219 46.980469 34.703125 49.742188 35.695312 C 49.777344 35.554688 49.820312 35.3125 49.800781 34.984375 C 49.746094 34.144531 49.265625 33.023438 49.066406 32.851562 C 48.695312 32.523438 48.273438 32.363281 47.769531 32.328125 Z M 47.769531 32.328125 "/>
<path style=" stroke:none;fill-rule:nonzero;fill:rgb(0%,0%,0%);fill-opacity:0.4;" d="M 47.578125 32.324219 C 47.121094 32.320312 46.621094 32.425781 46.113281 32.628906 C 44.007812 33.472656 41.828125 33.746094 39.65625 33.855469 C 40.273438 33.847656 40.902344 33.855469 41.539062 33.898438 C 41.808594 33.914062 42.078125 33.941406 42.351562 33.964844 C 43.675781 33.785156 44.992188 33.484375 46.28125 32.964844 C 46.859375 32.734375 47.4375 32.628906 47.941406 32.664062 C 48.445312 32.699219 48.863281 32.859375 49.238281 33.1875 C 49.273438 33.21875 49.316406 33.285156 49.363281 33.367188 C 49.25 33.109375 49.140625 32.914062 49.070312 32.847656 C 48.695312 32.519531 48.277344 32.363281 47.773438 32.328125 C 47.710938 32.324219 47.644531 32.320312 47.578125 32.320312 Z M 20.664062 32.777344 C 20.449219 32.769531 20.25 32.777344 20.070312 32.800781 C 19.710938 32.851562 19.453125 32.953125 19.273438 33.101562 C 19.09375 33.253906 18.945312 33.457031 18.855469 33.882812 C 18.71875 34.546875 18.828125 35.046875 19.078125 35.441406 C 18.953125 35.109375 18.925781 34.707031 19.027344 34.21875 C 19.113281 33.792969 19.261719 33.589844 19.441406 33.441406 C 19.625 33.289062 19.878906 33.1875 20.238281 33.140625 C 20.957031 33.042969 22.015625 33.210938 23.015625 33.398438 C 25.628906 33.882812 28.640625 34.617188 31.5625 34.578125 C 32.46875 34.429688 33.394531 34.296875 34.273438 34.230469 C 35.671875 34.125 37.070312 33.972656 38.515625 33.898438 C 36.589844 33.957031 34.6875 33.945312 32.855469 34.152344 C 29.492188 34.53125 25.894531 33.628906 22.847656 33.058594 C 22.097656 32.921875 21.3125 32.789062 20.664062 32.777344 Z M 38.515625 33.898438 C 38.875 33.886719 39.234375 33.875 39.59375 33.855469 C 39.230469 33.863281 38.871094 33.878906 38.515625 33.898438 Z M 38.515625 33.898438 "/>
<path style=" stroke:none;fill-rule:nonzero;fill:rgb(0%,0%,0%);fill-opacity:1;" d="M 24.148438 32.933594 C 23.457031 32.882812 22.738281 32.882812 22.050781 32.894531 C 21.539062 32.964844 21.082031 33.019531 21.144531 33.542969 C 21.1875 34.117188 21.648438 34.800781 22.054688 35.167969 C 22.472656 35.53125 22.882812 35.800781 23.433594 35.914062 C 23.898438 35.988281 24.464844 35.691406 24.878906 35.515625 C 25.425781 35.261719 26.167969 34.808594 26.53125 34.316406 C 26.734375 34.027344 26.691406 33.867188 26.492188 33.542969 C 26.300781 33.28125 25.796875 33.386719 25.515625 33.246094 C 25.050781 33.046875 24.652344 32.972656 24.148438 32.933594 Z M 24.148438 32.933594 "/>
<path style=" stroke:none;fill-rule:nonzero;fill:url(#linear0);" d="M 22.089844 33.09375 C 21.042969 33.429688 22.945312 35.058594 23.714844 35.367188 C 24.300781 35.234375 25.777344 34.328125 25.824219 33.65625 C 24.496094 32.894531 23.644531 33.082031 22.089844 33.09375 Z M 22.089844 33.09375 "/>
<path style=" stroke:none;fill-rule:nonzero;fill:rgb(0%,0%,0%);fill-opacity:1;" d="M 47.910156 32.171875 C 47.910156 32.171875 47.527344 32.15625 46.929688 32.273438 C 46.332031 32.394531 45.738281 32.433594 45.1875 32.84375 C 45.019531 32.96875 44.660156 33.035156 44.699219 33.246094 C 44.847656 33.972656 45.402344 34.40625 45.851562 34.65625 C 46.296875 34.90625 46.707031 35.003906 46.707031 35.003906 C 46.816406 35.03125 46.929688 35.027344 47.035156 34.988281 C 47.035156 34.988281 47.503906 34.824219 47.90625 34.402344 C 48.304688 33.984375 48.652344 33.230469 48.453125 32.273438 C 48.398438 32.007812 48.183594 32.152344 47.910156 32.171875 Z M 47.910156 32.171875 "/>
<path style=" stroke:none;fill-rule:nonzero;fill:url(#linear1);" d="M 45.253906 33.132812 C 46.050781 32.535156 47.898438 32.390625 47.898438 32.390625 C 48.226562 33.96875 46.847656 34.457031 46.847656 34.457031 C 46.847656 34.457031 45.453125 34.113281 45.253906 33.132812 Z M 45.253906 33.132812 "/>
<path style=" stroke:none;fill-rule:nonzero;fill:rgb(0%,0%,0%);fill-opacity:1;" d="M 44.542969 25.207031 C 43.941406 25.203125 43.3125 25.394531 42.714844 25.777344 C 42.246094 26.074219 41.695312 26.566406 41.226562 27.042969 C 40.996094 27.277344 40.78125 27.507812 40.617188 27.714844 C 40.535156 27.820312 40.464844 27.921875 40.40625 28.023438 C 40.355469 28.105469 40.269531 28.234375 40.269531 28.46875 C 40.269531 28.546875 40.273438 28.632812 40.296875 28.726562 C 40.308594 28.777344 40.324219 28.835938 40.367188 28.914062 C 40.386719 28.945312 40.425781 29.011719 40.5 29.074219 C 40.585938 29.148438 40.726562 29.21875 40.894531 29.214844 C 41 29.210938 41.023438 29.203125 40.980469 29.207031 C 40.988281 29.207031 41 29.207031 41.015625 29.203125 C 41.050781 29.195312 41.09375 29.191406 41.144531 29.179688 C 41.25 29.164062 41.394531 29.136719 41.574219 29.105469 C 41.9375 29.046875 42.421875 28.960938 42.957031 28.871094 C 43.484375 28.777344 44.015625 28.691406 44.4375 28.632812 C 44.648438 28.601562 44.84375 28.582031 44.992188 28.5625 C 45.0625 28.554688 45.121094 28.546875 45.164062 28.542969 C 45.207031 28.539062 45.253906 28.539062 45.234375 28.539062 C 45.679688 28.535156 46.105469 28.414062 46.410156 28.117188 C 46.71875 27.808594 46.828125 27.339844 46.71875 26.910156 C 46.457031 25.863281 45.550781 25.21875 44.542969 25.207031 Z M 44.542969 25.207031 "/>
<path style=" stroke:none;fill-rule:nonzero;fill:rgb(34.117647%,13.72549%,4.705882%);fill-opacity:1;" d="M 44.632812 25.910156 C 43.660156 25.898438 42.597656 25.980469 41.90625 26.621094 C 41.359375 27.109375 40.96875 27.46875 40.5625 28.082031 C 40.382812 28.386719 40.367188 28.570312 40.417969 28.9375 C 40.652344 29.019531 41.714844 28.792969 41.9375 28.714844 C 43.621094 28.117188 43.699219 28.351562 44.988281 28.234375 C 45.515625 28.242188 45.898438 28.136719 46.078125 27.597656 C 46.277344 27.011719 45.464844 26.96875 45.066406 26.535156 C 44.671875 26.125 45.199219 25.910156 44.632812 25.910156 Z M 44.632812 25.910156 "/>
<path style=" stroke:none;fill-rule:nonzero;fill:rgb(0%,0%,0%);fill-opacity:1;" d="M 25.996094 25.175781 C 24.761719 25.175781 24.261719 25.320312 23.253906 25.976562 C 22.691406 26.34375 22.230469 26.710938 21.898438 27.078125 C 21.734375 27.261719 21.585938 27.453125 21.488281 27.683594 C 21.378906 27.929688 21.300781 28.320312 21.523438 28.679688 C 21.601562 28.808594 21.691406 28.898438 21.792969 28.953125 C 21.894531 29.011719 21.992188 29.035156 21.925781 29.007812 C 21.980469 29.03125 22.039062 29.042969 22.085938 29.054688 C 22.179688 29.078125 22.261719 29.089844 22.355469 29.101562 C 22.554688 29.128906 22.8125 29.160156 23.117188 29.1875 C 23.722656 29.238281 24.53125 29.289062 25.414062 29.324219 C 27.144531 29.394531 29.070312 29.515625 29.4375 29.566406 C 30.128906 29.660156 30.496094 29.71875 30.808594 29.71875 C 30.960938 29.71875 31.15625 29.707031 31.359375 29.613281 C 31.589844 29.503906 31.71875 29.347656 31.792969 29.222656 C 31.996094 28.894531 31.871094 28.53125 31.835938 28.453125 C 31.785156 28.339844 31.71875 28.257812 31.683594 28.210938 C 31.59375 28.097656 31.492188 27.988281 31.375 27.875 C 31.136719 27.648438 30.828125 27.394531 30.484375 27.121094 C 29.789062 26.574219 28.972656 25.992188 28.34375 25.652344 C 27.691406 25.296875 27.050781 25.175781 25.996094 25.175781 Z M 25.996094 25.175781 "/>
<path style=" stroke:none;fill-rule:nonzero;fill:rgb(34.117647%,13.72549%,4.705882%);fill-opacity:1;" d="M 23.398438 26 C 22.664062 26.457031 22.003906 26.925781 21.570312 27.695312 C 21.214844 28.308594 21.828125 28.769531 22.320312 28.757812 C 23.09375 28.886719 24.136719 28.4375 24.917969 28.492188 C 26.878906 28.59375 28.558594 29.09375 30.503906 29.378906 C 30.875 29.414062 31.355469 29.410156 31.53125 29.011719 C 31.75 28.535156 31.199219 28.207031 30.925781 27.90625 C 30.121094 27.230469 29.386719 26.632812 28.496094 26.082031 C 27.257812 25.636719 25.371094 25.644531 23.398438 26 Z M 23.398438 26 "/>
<path style=" stroke:none;fill-rule:nonzero;fill:url(#radial1);" d="M 31.136719 28.820312 C 31.25 28.636719 29.066406 26.917969 27.976562 26.324219 C 27.425781 26.027344 27.003906 25.945312 25.996094 25.945312 C 24.785156 25.945312 24.65625 25.984375 23.671875 26.625 C 22.628906 27.300781 22.007812 27.988281 22.183594 28.273438 C 22.234375 28.355469 23.703125 28.480469 25.445312 28.554688 C 27.1875 28.625 29.027344 28.738281 29.539062 28.808594 C 30.921875 28.996094 31.027344 28.996094 31.136719 28.820312 Z M 31.136719 28.820312 "/>
<path style=" stroke:none;fill-rule:nonzero;fill:url(#radial2);" d="M 42.863281 28.308594 C 43.929688 28.121094 44.996094 27.972656 45.234375 27.96875 C 45.925781 27.96875 46.304688 27.597656 46.167969 27.054688 C 45.839844 25.742188 44.398438 25.375 43.019531 26.253906 C 42.234375 26.757812 40.839844 28.175781 40.839844 28.472656 C 40.839844 28.566406 40.855469 28.644531 40.878906 28.644531 C 40.902344 28.640625 41.796875 28.492188 42.863281 28.308594 Z M 42.863281 28.308594 "/>
<path style=" stroke:none;fill-rule:nonzero;fill:rgb(0%,0%,0%);fill-opacity:1;" d="M 23.832031 25.722656 C 22.484375 26.15625 21.273438 26.996094 20.320312 28.027344 C 19.722656 28.824219 21.492188 29.90625 21.488281 29.035156 C 20.613281 28.265625 21.773438 27.273438 22.410156 26.796875 C 22.867188 26.417969 23.441406 26.179688 23.832031 25.722656 Z M 23.832031 25.722656 "/>
<path style=" stroke:none;fill-rule:nonzero;fill:rgb(0%,0%,0%);fill-opacity:1;" d="M 30.375 27.097656 C 31.273438 27.480469 31.976562 28.367188 32.167969 29.324219 C 32.394531 29.828125 31.304688 30.59375 31.796875 29.742188 C 31.933594 28.636719 30.777344 28.003906 30.375 27.097656 Z M 30.375 27.097656 "/>
<path style=" stroke:none;fill-rule:nonzero;fill:rgb(18.039216%,20.784314%,24.705882%);fill-opacity:1;" d="M 36.964844 23.746094 C 37.207031 23.871094 37.472656 24.058594 37.492188 24.355469 C 37.757812 25.414062 37.820312 26.558594 37.46875 27.605469 C 37.285156 28.042969 36.917969 28.359375 36.621094 28.71875 C 36.425781 28.894531 36.144531 28.761719 36.042969 28.550781 C 35.855469 28.269531 35.890625 27.90625 36.003906 27.601562 C 36.125 27.242188 36.28125 26.886719 36.300781 26.503906 C 36.386719 25.917969 36.472656 25.328125 36.683594 24.773438 C 36.792969 24.433594 36.886719 24.089844 36.964844 23.746094 Z M 36.964844 23.746094 "/>
<path style=" stroke:none;fill-rule:nonzero;fill:rgb(0%,0%,0%);fill-opacity:1;" d="M 37.375 28.058594 C 36.136719 28.496094 36.90625 26.628906 37.15625 26.054688 C 37.546875 24.492188 37.5625 26.976562 37.375 28.058594 Z M 37.375 28.058594 "/>
<path style=" stroke:none;fill-rule:nonzero;fill:rgb(0%,0%,0%);fill-opacity:1;" d="M 41.917969 26.039062 C 42.425781 24.53125 44.4375 24.140625 44.765625 22.523438 C 45.230469 22.269531 44.96875 24.007812 44.457031 24.167969 C 43.820312 25.011719 42.933594 25.714844 41.917969 26.039062 Z M 41.917969 26.039062 "/>
<path style=" stroke:none;fill-rule:nonzero;fill:rgb(0%,0%,0%);fill-opacity:1;" d="M 45.234375 28.585938 C 45.933594 28.351562 47.894531 29.171875 47.695312 27.652344 C 46.847656 27.617188 46 28.195312 45.234375 28.585938 Z M 45.234375 28.585938 "/>
</g>
</svg>
