
<svg xmlns="http://www.w3.org/2000/svg" xmlns:xlink="http://www.w3.org/1999/xlink" width="64px" height="64px" viewBox="0 0 64 64" version="1.1">
<g id="surface1">
<path style="fill-rule:nonzero;fill:rgb(100%,100%,100%);fill-opacity:1;stroke-width:20.298223;stroke-linecap:butt;stroke-linejoin:miter;stroke:rgb(29.019608%,68.235294%,90.196078%);stroke-opacity:1;stroke-miterlimit:4;" d="M 73.945311 22.499999 L 325.242179 22.499999 C 347.671866 22.499999 365.835928 40.664061 365.835928 63.093748 L 365.835928 314.390617 C 365.835928 336.820304 347.671866 355.007803 325.242179 355.007803 L 73.945311 355.007803 C 51.515624 355.007803 33.351562 336.820304 33.351562 314.390617 L 33.351562 63.093748 C 33.351562 40.664061 51.515624 22.499999 73.945311 22.499999 Z M 73.945311 22.499999 " transform="matrix(0.166667,0,0,0.166667,0,0)"/>
<path style=" stroke:none;fill-rule:nonzero;fill:rgb(97.254902%,97.254902%,97.254902%);fill-opacity:1;" d="M 57.605469 35.984375 C 57.316406 36.273438 57 36.535156 56.660156 36.765625 C 56.488281 36.882812 56.3125 36.988281 56.132812 37.085938 C 56.675781 36.792969 57.171875 36.417969 57.605469 35.984375 Z M 57.605469 35.984375 "/>
<path style=" stroke:none;fill-rule:nonzero;fill:rgb(97.254902%,97.254902%,97.254902%);fill-opacity:1;" d="M 58.710938 34.507812 C 58.609375 34.691406 58.503906 34.867188 58.390625 35.035156 C 58.160156 35.378906 57.898438 35.695312 57.605469 35.984375 C 58.042969 35.550781 58.414062 35.054688 58.710938 34.507812 Z M 58.710938 34.507812 "/>
<path style=" stroke:none;fill-rule:nonzero;fill:rgb(97.254902%,97.254902%,97.254902%);fill-opacity:1;" d="M 59.195312 33.359375 C 59.132812 33.5625 59.058594 33.757812 58.980469 33.949219 C 58.898438 34.140625 58.808594 34.328125 58.710938 34.507812 C 58.90625 34.144531 59.070312 33.761719 59.195312 33.359375 Z M 59.195312 33.359375 "/>
<path style=" stroke:none;fill-rule:nonzero;fill:rgb(97.254902%,97.254902%,97.254902%);fill-opacity:1;" d="M 59.484375 31.457031 C 59.484375 31.679688 59.472656 31.898438 59.449219 32.113281 C 59.425781 32.328125 59.394531 32.539062 59.351562 32.746094 C 59.308594 32.957031 59.257812 33.160156 59.195312 33.359375 C 59.382812 32.761719 59.484375 32.121094 59.484375 31.457031 Z M 59.484375 31.457031 "/>
<path style=" stroke:none;fill-rule:nonzero;fill:rgb(16.862745%,22.745098%,29.019608%);fill-opacity:1;" d="M 34.460938 8.023438 L 34.460938 30.261719 L 56.699219 30.261719 L 56.699219 13.453125 C 56.699219 10.457031 54.269531 8.023438 51.269531 8.023438 Z M 34.460938 8.023438 "/>
<path style=" stroke:none;fill-rule:nonzero;fill:rgb(21.960784%,30.980392%,40%);fill-opacity:1;" d="M 32.070312 54.890625 L 32.070312 32.652344 L 9.832031 32.652344 L 9.832031 49.460938 C 9.832031 52.460938 12.261719 54.890625 15.261719 54.890625 Z M 32.070312 54.890625 "/>
<path style=" stroke:none;fill-rule:nonzero;fill:rgb(10.980392%,14.901961%,20%);fill-opacity:1;" d="M 9.832031 30.261719 L 32.070312 30.261719 L 32.070312 8.023438 L 15.261719 8.023438 C 12.261719 8.023438 9.832031 10.457031 9.832031 13.453125 Z M 9.832031 30.261719 "/>
<path style=" stroke:none;fill-rule:nonzero;fill:rgb(27.058824%,38.823529%,49.803922%);fill-opacity:1;" d="M 56.699219 32.652344 L 34.460938 32.652344 L 34.460938 54.890625 L 51.269531 54.890625 C 54.269531 54.890625 56.699219 52.460938 56.699219 49.460938 Z M 56.699219 32.652344 "/>
</g>
</svg>
