
<svg xmlns="http://www.w3.org/2000/svg" xmlns:xlink="http://www.w3.org/1999/xlink" width="64px" height="64px" viewBox="0 0 64 64" version="1.1">
<defs>
<filter id="alpha" filterUnits="objectBoundingBox" x="0%" y="0%" width="100%" height="100%">
  <feColorMatrix type="matrix" in="SourceGraphic" values="0 0 0 0 1 0 0 0 0 1 0 0 0 0 1 0 0 0 1 0"/>
</filter>
<mask id="mask0">
  <g filter="url(#alpha)">
<rect x="0" y="0" width="64" height="64" style="fill:rgb(0%,0%,0%);fill-opacity:0.682353;stroke:none;"/>
  </g>
</mask>
<clipPath id="clip1">
  <rect x="0" y="0" width="64" height="64"/>
</clipPath>
<g id="surface5" clip-path="url(#clip1)">
<path style=" stroke:none;fill-rule:nonzero;fill:rgb(100%,100%,100%);fill-opacity:1;" d="M 32.898438 2.296875 L 32.898438 3.746094 C 32.898438 3.851562 32.910156 3.949219 32.914062 4.050781 L 34.246094 4.652344 L 34.246094 5.484375 L 33.097656 5.484375 C 33.375 6.722656 33.945312 7.847656 34.738281 8.785156 L 34.738281 5.996094 L 37.242188 5.996094 L 39.972656 7.226562 L 39.972656 11.511719 C 40.214844 11.535156 40.453125 11.550781 40.699219 11.550781 L 48.222656 11.550781 L 48.222656 11.324219 L 48.730469 11.550781 L 54.425781 11.550781 Z M 43.886719 2.554688 C 44.074219 2.71875 44.253906 2.890625 44.425781 3.074219 C 44.253906 2.890625 44.074219 2.71875 43.886719 2.554688 Z M 43.886719 2.554688 "/>
</g>
<mask id="mask1">
  <g filter="url(#alpha)">
<rect x="0" y="0" width="64" height="64" style="fill:rgb(0%,0%,0%);fill-opacity:0.682353;stroke:none;"/>
  </g>
</mask>
<clipPath id="clip2">
  <rect x="0" y="0" width="64" height="64"/>
</clipPath>
<g id="surface8" clip-path="url(#clip2)">
<path style=" stroke:none;fill-rule:nonzero;fill:rgb(100%,100%,100%);fill-opacity:1;" d="M 54.425781 11.550781 L 32.898438 2.296875 L 32.898438 3.746094 C 32.898438 8.070312 36.378906 11.550781 40.699219 11.550781 Z M 54.425781 11.550781 "/>
</g>
</defs>
<g id="surface1">
<path style=" stroke:none;fill-rule:nonzero;fill:rgb(60%,60%,60%);fill-opacity:1;" d="M 16.933594 2.296875 C 12.613281 2.296875 9.132812 5.777344 9.132812 10.097656 L 9.132812 51.582031 C 9.132812 55.90625 12.613281 59.386719 16.933594 59.386719 L 46.621094 59.386719 C 50.945312 59.386719 54.425781 55.90625 54.425781 51.582031 L 54.425781 11.550781 L 32.898438 2.296875 Z M 47.421875 2.335938 C 47.949219 2.390625 48.457031 2.496094 48.949219 2.644531 C 48.457031 2.496094 47.949219 2.390625 47.421875 2.335938 Z M 48.949219 2.644531 C 49.683594 2.875 50.367188 3.207031 50.988281 3.625 C 50.367188 3.207031 49.683594 2.875 48.949219 2.644531 Z M 51.589844 4.074219 C 51.785156 4.230469 51.96875 4.402344 52.144531 4.578125 C 51.964844 4.402344 51.785156 4.230469 51.589844 4.074219 Z M 51.589844 4.074219 "/>
<path style=" stroke:none;fill-rule:nonzero;fill:rgb(92.54902%,91.372549%,84.705882%);fill-opacity:1;" d="M 16.933594 2.296875 C 12.613281 2.296875 9.132812 5.777344 9.132812 10.097656 L 9.132812 51.582031 C 9.132812 55.90625 12.613281 59.386719 16.933594 59.386719 L 29.003906 59.386719 L 29.003906 56.34375 L 34.246094 56.34375 L 34.246094 59.386719 L 46.621094 59.386719 C 50.945312 59.386719 54.425781 55.90625 54.425781 51.582031 L 54.425781 14.109375 L 48.222656 14.109375 L 48.222656 11.324219 L 54.425781 14.109375 L 54.425781 11.550781 L 32.898438 2.296875 L 29.003906 2.296875 L 34.246094 4.652344 L 34.246094 5.484375 L 29.003906 5.484375 L 29.003906 2.296875 Z M 43.886719 2.554688 C 44.074219 2.71875 44.253906 2.890625 44.425781 3.074219 C 44.253906 2.890625 44.074219 2.71875 43.886719 2.554688 Z M 51.589844 4.074219 C 51.785156 4.230469 51.96875 4.402344 52.144531 4.578125 C 51.964844 4.402344 51.785156 4.230469 51.589844 4.074219 Z M 34.738281 5.996094 L 37.242188 5.996094 L 39.972656 7.226562 L 39.972656 11.648438 L 34.738281 11.648438 Z M 29.003906 12.160156 L 34.246094 12.160156 L 34.246094 17.128906 L 29.003906 17.128906 Z M 40.464844 12.160156 L 44.886719 12.160156 L 44.886719 17.128906 L 40.464844 17.128906 Z M 34.738281 17.644531 L 39.972656 17.644531 L 39.972656 25.691406 L 34.738281 25.691406 Z M 29.003906 26.203125 L 34.246094 26.203125 L 34.246094 33.226562 L 29.003906 33.226562 Z M 40.464844 26.203125 L 44.886719 26.203125 L 44.886719 33.226562 L 40.464844 33.226562 Z M 48.742188 27.789062 L 53.164062 27.789062 L 53.164062 35.835938 L 48.742188 35.835938 Z M 34.738281 33.738281 L 39.972656 33.738281 L 39.972656 40.761719 L 34.738281 40.761719 Z M 29.003906 41.273438 L 34.246094 41.273438 L 34.246094 48.980469 L 29.003906 48.980469 Z M 40.464844 41.273438 L 44.886719 41.273438 L 44.886719 48.980469 L 40.464844 48.980469 Z M 47.601562 45.300781 L 52.019531 45.300781 L 52.019531 51.636719 L 47.601562 51.636719 Z M 34.738281 49.496094 L 39.972656 49.496094 L 39.972656 55.832031 L 34.738281 55.832031 Z M 34.738281 49.496094 "/>
<use xlink:href="#surface5" mask="url(#mask0)"/>
<use xlink:href="#surface8" mask="url(#mask1)"/>
<path style=" stroke:none;fill-rule:nonzero;fill:rgb(0%,0%,0%);fill-opacity:0.352941;" d="M 20.40625 26.203125 L 20.40625 27.363281 L 34.246094 27.363281 L 34.246094 26.203125 Z M 20.40625 30.839844 L 20.40625 32 L 39.199219 32 L 39.199219 30.839844 Z M 20.40625 35.480469 L 20.40625 36.636719 L 34.246094 36.636719 L 34.246094 35.480469 Z M 20.40625 40.117188 L 20.40625 41.277344 L 36.367188 41.277344 L 36.367188 40.117188 Z M 20.40625 44.753906 L 20.40625 45.914062 L 34.105469 45.914062 L 34.105469 44.753906 Z M 20.40625 44.753906 "/>
</g>
</svg>
