<?xml version="1.0" encoding="UTF-8"?>
<svg xmlns="http://www.w3.org/2000/svg" xmlns:xlink="http://www.w3.org/1999/xlink" width="64pt" height="64pt" viewBox="0 0 64 64" version="1.1">
<g id="surface1">
<path style=" stroke:none;fill-rule:nonzero;fill:rgb(52.54902%,56.470588%,58.039216%);fill-opacity:1;" d="M 17.15625 3.453125 L 46.84375 3.453125 C 51.152344 3.453125 54.644531 6.949219 54.644531 11.257812 L 54.644531 52.742188 C 54.644531 57.050781 51.152344 60.546875 46.84375 60.546875 L 17.15625 60.546875 C 12.847656 60.546875 9.355469 57.050781 9.355469 52.742188 L 9.355469 11.257812 C 9.355469 6.949219 12.847656 3.453125 17.15625 3.453125 Z M 17.15625 3.453125 "/>
<path style=" stroke:none;fill-rule:nonzero;fill:rgb(92.54902%,91.372549%,84.705882%);fill-opacity:1;" d="M 17.15625 3.453125 C 12.832031 3.453125 9.355469 6.933594 9.355469 11.257812 L 9.355469 42.75 C 9.71875 42.910156 10.378906 43.210938 10.417969 43.21875 C 10.511719 43.238281 10.949219 42.90625 11.457031 42.429688 C 11.9375 41.980469 12.675781 41.355469 13.09375 41.046875 C 13.664062 40.625 13.867188 40.40625 13.894531 40.191406 C 13.914062 40.03125 13.65625 38.859375 13.324219 37.585938 C 12.6875 35.140625 12.648438 34.730469 12.976562 34.054688 C 13.34375 33.300781 13.644531 33.152344 16.738281 32.191406 L 19.554688 31.316406 L 20.089844 31.46875 C 21.003906 31.722656 21.195312 32.003906 22.238281 34.621094 C 22.742188 35.886719 23.210938 37.015625 23.277344 37.132812 C 23.375 37.292969 23.648438 37.347656 24.484375 37.367188 C 25.078125 37.378906 26.050781 37.464844 26.644531 37.558594 C 27.242188 37.652344 27.769531 37.710938 27.816406 37.695312 C 27.867188 37.679688 28.457031 36.699219 29.128906 35.515625 C 29.800781 34.332031 30.496094 33.214844 30.675781 33.03125 C 31.101562 32.601562 31.859375 32.359375 32.503906 32.449219 C 32.8125 32.492188 33.976562 33.019531 35.472656 33.796875 C 38.046875 35.128906 38.269531 35.300781 38.558594 36.1875 C 38.761719 36.816406 38.613281 37.316406 37.535156 39.683594 C 36.949219 40.96875 36.484375 42.0625 36.503906 42.117188 C 36.519531 42.167969 36.929688 42.625 37.410156 43.132812 C 37.894531 43.644531 38.511719 44.378906 38.785156 44.765625 C 39.121094 45.246094 39.351562 45.472656 39.515625 45.488281 C 39.648438 45.5 40.851562 45.230469 42.191406 44.890625 C 44.847656 44.210938 45.300781 44.183594 45.933594 44.65625 C 46.535156 45.101562 46.726562 45.523438 47.605469 48.371094 L 48.445312 51.09375 L 48.273438 51.648438 C 47.964844 52.640625 47.832031 52.730469 45.003906 53.851562 C 43.625 54.398438 42.476562 54.878906 42.457031 54.917969 C 42.433594 54.957031 42.40625 55.46875 42.390625 56.046875 C 42.375 56.628906 42.285156 57.589844 42.191406 58.1875 C 42.101562 58.785156 42.0625 59.332031 42.105469 59.40625 C 42.140625 59.46875 43.035156 60 43.980469 60.546875 L 46.84375 60.546875 C 51.167969 60.546875 54.644531 57.066406 54.644531 52.742188 L 54.644531 30.140625 C 54.363281 30.246094 54.148438 30.3125 53.699219 30.519531 C 53.003906 30.84375 51.976562 31.261719 51.410156 31.449219 C 50.632812 31.707031 50.371094 31.851562 50.324219 32.058594 C 50.289062 32.207031 50.171875 33.628906 50.066406 35.214844 C 49.835938 38.707031 49.703125 39.082031 48.488281 39.699219 C 48.132812 39.878906 47.546875 39.910156 44.597656 39.90625 C 41.984375 39.902344 41.027344 39.855469 40.734375 39.726562 C 40.230469 39.5 39.695312 38.925781 39.457031 38.351562 C 39.335938 38.058594 39.210938 36.925781 39.105469 35.113281 C 39.019531 33.582031 38.902344 32.207031 38.847656 32.054688 C 38.773438 31.859375 38.421875 31.667969 37.546875 31.363281 C 36.886719 31.132812 35.890625 30.714844 35.332031 30.4375 C 34.777344 30.15625 34.203125 29.929688 34.054688 29.929688 C 33.890625 29.929688 32.984375 30.667969 31.6875 31.855469 C 30.53125 32.914062 29.398438 33.875 29.171875 33.992188 C 28.703125 34.234375 27.648438 34.273438 27.101562 34.070312 C 26.667969 33.910156 22.078125 29.386719 21.785156 28.832031 C 21.492188 28.28125 21.523438 27.25 21.851562 26.625 C 22 26.339844 22.96875 25.1875 24.007812 24.0625 C 25.125 22.851562 25.894531 21.914062 25.894531 21.757812 C 25.894531 21.617188 25.664062 21.046875 25.386719 20.492188 C 25.105469 19.933594 24.691406 18.941406 24.460938 18.285156 C 24.230469 17.628906 23.949219 17.039062 23.832031 16.980469 C 23.71875 16.921875 22.371094 16.804688 20.839844 16.71875 C 19.054688 16.621094 17.859375 16.496094 17.511719 16.371094 C 16.847656 16.132812 16.085938 15.324219 15.980469 14.742188 C 15.933594 14.503906 15.914062 12.757812 15.9375 10.859375 L 15.980469 7.402344 L 16.375 6.90625 C 17.078125 6.023438 17.40625 5.9375 20.761719 5.730469 C 22.65625 5.613281 23.808594 5.492188 23.90625 5.394531 C 23.988281 5.308594 24.273438 4.65625 24.539062 3.945312 C 24.597656 3.78125 24.675781 3.632812 24.746094 3.453125 Z M 34.113281 3.453125 C 33 4.949219 32.191406 6.671875 31.796875 8.546875 C 30.890625 12.867188 32.214844 17.277344 35.371094 20.449219 C 37.023438 22.109375 39.167969 23.328125 41.488281 23.925781 C 42.152344 24.097656 43.089844 24.226562 44.429688 24.335938 C 44.535156 24.347656 45.175781 24.292969 45.855469 24.222656 C 48.988281 23.894531 51.605469 22.644531 53.835938 20.414062 C 54.132812 20.121094 54.386719 19.804688 54.644531 19.496094 L 54.644531 11.257812 C 54.644531 6.933594 51.167969 3.453125 46.84375 3.453125 L 45.546875 3.453125 C 47.1875 3.648438 48.773438 4.371094 50.035156 5.625 C 52.511719 8.097656 53.109375 11.613281 51.570312 14.699219 C 50.257812 17.328125 47.84375 18.878906 44.882812 18.996094 C 43.875 19.035156 43.375 18.988281 42.640625 18.789062 C 39.335938 17.894531 37.023438 15.082031 36.816406 11.710938 C 36.675781 9.351562 37.433594 7.359375 39.105469 5.691406 C 40.402344 4.398438 42.03125 3.65625 43.707031 3.453125 Z M 44.816406 6.632812 C 43.382812 6.558594 42.527344 6.863281 41.492188 7.808594 C 40.179688 9.007812 39.660156 10.675781 40.082031 12.320312 C 40.445312 13.742188 41.214844 14.707031 42.515625 15.367188 C 43.726562 15.980469 44.976562 16.03125 46.339844 15.523438 C 47.25 15.179688 48.339844 14.167969 48.796875 13.234375 C 49.449219 11.726562 49.105469 10.320312 48.714844 9.085938 C 47.863281 7.519531 46.601562 6.722656 44.816406 6.632812 Z M 23.65625 44.449219 C 22.699219 44.46875 22.457031 44.519531 20.761719 45.058594 C 19.136719 45.574219 18.808594 45.710938 18.089844 46.179688 C 14.5 48.523438 12.511719 52.65625 12.957031 56.84375 C 13.0625 57.847656 13.308594 58.804688 13.664062 59.71875 C 14.714844 60.242188 15.898438 60.546875 17.15625 60.546875 L 19.550781 60.546875 C 18.835938 59.878906 18.257812 59.0625 17.882812 58.105469 C 17.144531 56.21875 17.238281 54.394531 18.167969 52.59375 C 19.433594 50.132812 21.980469 48.785156 24.542969 48.964844 C 25.394531 49.023438 26.25 49.25 27.0625 49.664062 C 29.734375 51.027344 31.144531 53.742188 30.703125 56.664062 C 30.464844 58.226562 29.761719 59.554688 28.679688 60.546875 L 34.128906 60.546875 C 35.003906 58.769531 35.378906 56.980469 35.289062 54.914062 C 35.230469 53.574219 34.351562 50.859375 33.609375 49.722656 C 31.359375 46.277344 27.757812 44.367188 23.65625 44.449219 Z M 24.136719 51.695312 C 23.796875 51.707031 23.441406 51.757812 23.074219 51.859375 C 21.886719 52.175781 21.265625 52.652344 20.667969 53.695312 C 19.914062 55.015625 19.925781 56.511719 20.703125 57.742188 C 21.375 58.808594 22.257812 59.390625 23.492188 59.585938 C 24.640625 59.769531 25.675781 59.484375 26.652344 58.710938 C 27.304688 58.191406 27.925781 57.078125 28.054688 56.195312 C 28.1875 54.792969 27.539062 53.738281 26.894531 52.835938 C 26.066406 52.042969 25.164062 51.667969 24.136719 51.695312 Z M 24.136719 51.695312 "/>
</g>
</svg>
