
<svg xmlns="http://www.w3.org/2000/svg" xmlns:xlink="http://www.w3.org/1999/xlink" width="64px" height="64px" viewBox="0 0 64 64" version="1.1">
<defs>
<filter id="alpha" filterUnits="objectBoundingBox" x="0%" y="0%" width="100%" height="100%">
  <feColorMatrix type="matrix" in="SourceGraphic" values="0 0 0 0 1 0 0 0 0 1 0 0 0 0 1 0 0 0 1 0"/>
</filter>
<mask id="mask0">
  <g filter="url(#alpha)">
<rect x="0" y="0" width="64" height="64" style="fill:rgb(0%,0%,0%);fill-opacity:0.682353;stroke:none;"/>
  </g>
</mask>
<clipPath id="clip1">
  <rect x="0" y="0" width="64" height="64"/>
</clipPath>
<g id="surface5" clip-path="url(#clip1)">
<path style=" stroke:none;fill-rule:nonzero;fill:rgb(100%,100%,100%);fill-opacity:1;" d="M 55.90625 11.648438 L 33.007812 1.804688 L 33.007812 3.347656 C 33.007812 7.945312 36.710938 11.648438 41.308594 11.648438 Z M 55.90625 11.648438 "/>
</g>
</defs>
<g id="surface1">
<path style=" stroke:none;fill-rule:nonzero;fill:rgb(94.117647%,66.666667%,25.490196%);fill-opacity:1;" d="M 16.027344 1.804688 C 11.429688 1.804688 7.726562 5.507812 7.726562 10.105469 L 7.726562 54.234375 C 7.726562 58.832031 11.429688 62.535156 16.027344 62.535156 L 47.609375 62.535156 C 52.207031 62.535156 55.90625 58.832031 55.90625 54.234375 L 55.90625 11.648438 L 33.007812 1.804688 Z M 48.457031 1.847656 C 49.019531 1.902344 49.5625 2.015625 50.082031 2.175781 C 49.5625 2.015625 49.019531 1.902344 48.457031 1.847656 Z M 50.082031 2.175781 C 50.863281 2.417969 51.59375 2.769531 52.253906 3.21875 C 51.59375 2.769531 50.863281 2.417969 50.082031 2.175781 Z M 52.894531 3.695312 C 53.097656 3.863281 53.292969 4.042969 53.480469 4.230469 C 53.292969 4.042969 53.097656 3.863281 52.894531 3.695312 Z M 52.894531 3.695312 "/>
<use xlink:href="#surface5" mask="url(#mask0)"/>
<path style=" stroke:none;fill-rule:nonzero;fill:rgb(100%,100%,100%);fill-opacity:1;" d="M 15.871094 1.84375 L 15.871094 5.648438 L 20.804688 5.648438 L 20.804688 9.457031 L 15.871094 9.457031 L 15.871094 13.261719 L 20.804688 13.261719 L 20.804688 17.066406 L 15.871094 17.066406 L 15.871094 20.871094 L 20.804688 20.871094 L 20.804688 26.578125 L 15.871094 26.578125 L 15.871094 34.1875 L 25.738281 34.1875 L 25.738281 26.578125 L 20.804688 26.578125 L 20.804688 24.675781 L 25.738281 24.675781 L 25.738281 20.871094 L 20.804688 20.871094 L 20.804688 17.066406 L 25.738281 17.066406 L 25.738281 13.261719 L 20.804688 13.261719 L 20.804688 9.457031 L 25.738281 9.457031 L 25.738281 5.648438 L 20.804688 5.648438 L 20.804688 1.84375 Z M 15.871094 1.84375 "/>
<path style=" stroke:none;fill-rule:nonzero;fill:rgb(100%,100%,100%);fill-opacity:1;" d="M 20.984375 33.160156 C 20.644531 33.160156 19.949219 33.164062 19.4375 33.171875 L 18.511719 33.183594 L 18.511719 34.101562 C 18.511719 34.101562 18.210938 34.40625 18.140625 34.59375 C 17.546875 36.214844 17.460938 38.046875 17.875 39.714844 C 17.9375 39.972656 18.277344 40.410156 18.277344 40.410156 L 18.355469 39.203125 C 18.515625 38.339844 18.429688 37.402344 19.289062 37.402344 L 19.511719 37.402344 L 19.511719 36.5625 C 19.511719 35.871094 20.097656 35.3125 20.828125 35.3125 L 20.972656 35.3125 C 21.703125 35.3125 22.292969 35.871094 22.292969 36.5625 L 22.292969 37.402344 L 22.527344 37.402344 C 23.449219 37.417969 23.4375 38.835938 23.460938 39.203125 L 23.535156 40.410156 C 23.535156 40.410156 23.921875 39.929688 23.992188 39.648438 C 24.398438 38.042969 24.34375 36.269531 23.753906 34.710938 C 23.699219 34.566406 23.460938 34.335938 23.460938 34.335938 L 23.460938 33.183594 L 22.53125 33.171875 C 22.019531 33.164062 21.324219 33.160156 20.984375 33.160156 Z M 20.835938 35.621094 C 20.199219 35.621094 19.6875 36.105469 19.6875 36.710938 L 19.6875 39.234375 C 19.6875 39.839844 20.199219 40.324219 20.835938 40.324219 L 20.964844 40.324219 C 21.601562 40.324219 22.113281 39.839844 22.113281 39.234375 L 22.113281 36.710938 C 22.113281 36.105469 21.601562 35.621094 20.964844 35.621094 Z M 19.503906 37.683594 C 19.457031 37.683594 19.285156 37.75 19.121094 37.832031 L 18.820312 37.976562 L 18.820312 45.941406 L 18.910156 46.070312 L 19.035156 46.136719 L 22.785156 46.070312 L 22.925781 45.960938 L 22.960938 42.046875 L 23 38.035156 L 22.738281 37.859375 C 22.589844 37.765625 22.417969 37.683594 22.347656 37.683594 L 22.292969 37.683594 L 22.292969 39.453125 C 22.292969 40.144531 21.703125 40.703125 20.972656 40.703125 L 20.828125 40.703125 C 20.097656 40.703125 19.511719 40.144531 19.511719 39.453125 L 19.511719 37.683594 Z M 20.835938 43.035156 C 21.550781 43.035156 22.128906 43.5625 22.128906 44.210938 C 22.128906 44.859375 21.550781 45.386719 20.835938 45.386719 C 20.125 45.386719 19.546875 44.859375 19.546875 44.210938 C 19.546875 43.5625 20.125 43.035156 20.835938 43.035156 Z M 20.835938 43.035156 "/>
</g>
</svg>
