
<svg xmlns="http://www.w3.org/2000/svg" xmlns:xlink="http://www.w3.org/1999/xlink" width="64px" height="64px" viewBox="0 0 64 64" version="1.1">
<g id="surface1">
<path style=" stroke:none;fill-rule:nonzero;fill:rgb(93.333333%,81.960784%,50.980392%);fill-opacity:1;" d="M 16.636719 1.578125 C 12.054688 1.578125 8.367188 5.261719 8.367188 9.847656 L 8.367188 53.828125 C 8.367188 58.410156 12.054688 62.097656 16.636719 62.097656 L 48.113281 62.097656 C 52.695312 62.097656 56.382812 58.410156 56.382812 53.828125 L 56.382812 11.382812 L 33.5625 1.578125 Z M 48.960938 1.617188 C 49.515625 1.671875 50.058594 1.785156 50.574219 1.945312 C 50.058594 1.785156 49.515625 1.671875 48.960938 1.617188 Z M 50.574219 1.945312 C 51.355469 2.183594 52.082031 2.535156 52.742188 2.984375 C 52.082031 2.535156 51.355469 2.183594 50.574219 1.945312 Z M 53.378906 3.457031 C 53.582031 3.625 53.777344 3.808594 53.964844 3.996094 C 53.777344 3.804688 53.582031 3.625 53.378906 3.457031 Z M 53.378906 3.457031 "/>
<path style=" stroke:none;fill-rule:nonzero;fill:rgb(99.607843%,75.686275%,9.019608%);fill-opacity:1;" d="M 12.511719 2.722656 C 12.496094 2.730469 12.480469 2.738281 12.46875 2.746094 L 12.46875 5.78125 L 15.523438 5.78125 L 15.523438 2.722656 Z M 17 2.722656 L 17 5.78125 L 20.058594 5.78125 L 20.058594 2.722656 Z M 21.535156 2.722656 L 21.535156 5.78125 L 24.59375 5.78125 L 24.59375 2.722656 Z M 26.070312 2.722656 L 26.070312 5.78125 L 29.128906 5.78125 L 29.128906 2.722656 Z M 30.605469 2.722656 L 30.605469 5.78125 L 33.664062 5.78125 L 33.664062 2.722656 Z M 35.136719 2.722656 L 35.136719 5.78125 L 38.199219 5.78125 L 38.199219 3.613281 L 36.125 2.722656 Z M 53.378906 3.5 C 53.582031 3.667969 53.777344 3.851562 53.964844 4.039062 C 53.777344 3.847656 53.582031 3.667969 53.378906 3.5 Z M 10.992188 3.847656 C 10.390625 4.410156 9.871094 5.058594 9.460938 5.78125 L 10.992188 5.78125 Z M 39.675781 4.246094 L 39.675781 5.78125 L 42.730469 5.78125 L 42.730469 5.558594 Z M 8.800781 7.253906 C 8.523438 8.082031 8.367188 8.964844 8.367188 9.890625 L 8.367188 10.3125 L 10.992188 10.3125 L 10.992188 7.253906 Z M 12.46875 7.253906 L 12.46875 10.3125 L 15.523438 10.3125 L 15.523438 7.253906 Z M 17 7.253906 L 17 10.3125 L 20.058594 10.3125 L 20.058594 7.253906 Z M 21.535156 7.253906 L 21.535156 10.3125 L 24.59375 10.3125 L 24.59375 7.253906 Z M 26.070312 7.253906 L 26.070312 10.3125 L 29.128906 10.3125 L 29.128906 7.253906 Z M 30.605469 7.253906 L 30.605469 10.3125 L 33.664062 10.3125 L 33.664062 7.253906 Z M 35.136719 7.253906 L 35.136719 10.3125 L 38.199219 10.3125 L 38.199219 7.253906 Z M 39.675781 7.253906 L 39.675781 10.3125 L 42.730469 10.3125 L 42.730469 7.253906 Z M 44.207031 7.253906 L 44.207031 10.3125 L 47.265625 10.3125 L 47.265625 7.507812 L 46.679688 7.253906 Z M 48.742188 8.144531 L 48.742188 10.3125 L 51.800781 10.3125 L 51.800781 9.457031 Z M 53.277344 10.09375 L 53.277344 10.3125 L 53.792969 10.3125 Z M 8.367188 11.789062 L 8.367188 14.847656 L 10.992188 14.847656 L 10.992188 11.789062 Z M 12.46875 11.789062 L 12.46875 14.847656 L 15.523438 14.847656 L 15.523438 11.789062 Z M 17 11.789062 L 17 14.847656 L 20.058594 14.847656 L 20.058594 11.789062 Z M 21.535156 11.789062 L 21.535156 14.847656 L 24.59375 14.847656 L 24.59375 11.789062 Z M 26.070312 11.789062 L 26.070312 14.847656 L 29.128906 14.847656 L 29.128906 11.789062 Z M 30.605469 11.789062 L 30.605469 14.847656 L 33.664062 14.847656 L 33.664062 11.789062 Z M 35.136719 11.789062 L 35.136719 14.847656 L 38.199219 14.847656 L 38.199219 11.789062 Z M 39.675781 11.789062 L 39.675781 14.847656 L 42.730469 14.847656 L 42.730469 11.789062 Z M 44.207031 11.789062 L 44.207031 14.847656 L 47.265625 14.847656 L 47.265625 11.789062 Z M 48.742188 11.789062 L 48.742188 14.847656 L 51.800781 14.847656 L 51.800781 11.789062 Z M 53.277344 11.789062 L 53.277344 14.847656 L 56.335938 14.847656 L 56.335938 11.789062 Z M 8.367188 16.324219 L 8.367188 19.382812 L 10.992188 19.382812 L 10.992188 16.324219 Z M 12.46875 16.324219 L 12.46875 19.382812 L 15.523438 19.382812 L 15.523438 16.324219 Z M 17 16.324219 L 17 19.382812 L 20.058594 19.382812 L 20.058594 16.324219 Z M 21.535156 16.324219 L 21.535156 19.382812 L 24.59375 19.382812 L 24.59375 16.324219 Z M 26.070312 16.324219 L 26.070312 19.382812 L 29.128906 19.382812 L 29.128906 16.324219 Z M 30.605469 16.324219 L 30.605469 19.382812 L 33.664062 19.382812 L 33.664062 16.324219 Z M 35.136719 16.324219 L 35.136719 19.382812 L 38.199219 19.382812 L 38.199219 16.324219 Z M 39.675781 16.324219 L 39.675781 19.382812 L 42.730469 19.382812 L 42.730469 16.324219 Z M 44.207031 16.324219 L 44.207031 19.382812 L 47.265625 19.382812 L 47.265625 16.324219 Z M 48.742188 16.324219 L 48.742188 19.382812 L 51.800781 19.382812 L 51.800781 16.324219 Z M 53.277344 16.324219 L 53.277344 19.382812 L 56.335938 19.382812 L 56.335938 16.324219 Z M 8.367188 20.859375 L 8.367188 23.917969 L 10.992188 23.917969 L 10.992188 20.859375 Z M 12.46875 20.859375 L 12.46875 23.917969 L 15.523438 23.917969 L 15.523438 20.859375 Z M 17 20.859375 L 17 23.917969 L 20.058594 23.917969 L 20.058594 20.859375 Z M 21.535156 20.859375 L 21.535156 23.917969 L 24.59375 23.917969 L 24.59375 20.859375 Z M 26.070312 20.859375 L 26.070312 23.917969 L 29.128906 23.917969 L 29.128906 20.859375 Z M 30.605469 20.859375 L 30.605469 23.917969 L 33.664062 23.917969 L 33.664062 20.859375 Z M 35.136719 20.859375 L 35.136719 23.917969 L 38.199219 23.917969 L 38.199219 20.859375 Z M 39.675781 20.859375 L 39.675781 23.917969 L 42.730469 23.917969 L 42.730469 20.859375 Z M 44.207031 20.859375 L 44.207031 23.917969 L 47.265625 23.917969 L 47.265625 20.859375 Z M 48.742188 20.859375 L 48.742188 23.917969 L 51.800781 23.917969 L 51.800781 20.859375 Z M 53.277344 20.859375 L 53.277344 23.917969 L 56.335938 23.917969 L 56.335938 20.859375 Z M 8.367188 25.394531 L 8.367188 28.449219 L 10.992188 28.449219 L 10.992188 25.394531 Z M 12.46875 25.394531 L 12.46875 28.449219 L 15.523438 28.449219 L 15.523438 25.394531 Z M 17 25.394531 L 17 28.449219 L 20.058594 28.449219 L 20.058594 25.394531 Z M 21.535156 25.394531 L 21.535156 28.449219 L 24.59375 28.449219 L 24.59375 25.394531 Z M 26.070312 25.394531 L 26.070312 28.449219 L 29.128906 28.449219 L 29.128906 25.394531 Z M 30.605469 25.394531 L 30.605469 28.449219 L 33.664062 28.449219 L 33.664062 25.394531 Z M 35.136719 25.394531 L 35.136719 28.449219 L 38.199219 28.449219 L 38.199219 25.394531 Z M 39.675781 25.394531 L 39.675781 28.449219 L 42.730469 28.449219 L 42.730469 25.394531 Z M 44.207031 25.394531 L 44.207031 28.449219 L 47.265625 28.449219 L 47.265625 25.394531 Z M 48.742188 25.394531 L 48.742188 28.449219 L 51.800781 28.449219 L 51.800781 25.394531 Z M 53.277344 25.394531 L 53.277344 28.449219 L 56.335938 28.449219 L 56.335938 25.394531 Z M 8.367188 29.925781 L 8.367188 32.984375 L 10.992188 32.984375 L 10.992188 29.925781 Z M 12.46875 29.925781 L 12.46875 32.984375 L 15.523438 32.984375 L 15.523438 29.925781 Z M 17 29.925781 L 17 32.984375 L 20.058594 32.984375 L 20.058594 29.925781 Z M 21.535156 29.925781 L 21.535156 32.984375 L 24.59375 32.984375 L 24.59375 29.925781 Z M 26.070312 29.925781 L 26.070312 32.984375 L 29.128906 32.984375 L 29.128906 29.925781 Z M 30.605469 29.925781 L 30.605469 32.984375 L 33.664062 32.984375 L 33.664062 29.925781 Z M 35.136719 29.925781 L 35.136719 32.984375 L 38.199219 32.984375 L 38.199219 29.925781 Z M 39.675781 29.925781 L 39.675781 32.984375 L 42.730469 32.984375 L 42.730469 29.925781 Z M 44.207031 29.925781 L 44.207031 32.984375 L 47.265625 32.984375 L 47.265625 29.925781 Z M 48.742188 29.925781 L 48.742188 32.984375 L 51.800781 32.984375 L 51.800781 29.925781 Z M 53.277344 29.925781 L 53.277344 32.984375 L 56.335938 32.984375 L 56.335938 29.925781 Z M 8.367188 34.460938 L 8.367188 37.519531 L 10.992188 37.519531 L 10.992188 34.460938 Z M 12.46875 34.460938 L 12.46875 37.519531 L 15.523438 37.519531 L 15.523438 34.460938 Z M 17 34.460938 L 17 37.519531 L 20.058594 37.519531 L 20.058594 34.460938 Z M 21.535156 34.460938 L 21.535156 37.519531 L 24.59375 37.519531 L 24.59375 34.460938 Z M 26.070312 34.460938 L 26.070312 37.519531 L 29.128906 37.519531 L 29.128906 34.460938 Z M 30.605469 34.460938 L 30.605469 37.519531 L 33.664062 37.519531 L 33.664062 34.460938 Z M 35.136719 34.460938 L 35.136719 37.519531 L 38.199219 37.519531 L 38.199219 34.460938 Z M 39.675781 34.460938 L 39.675781 37.519531 L 42.730469 37.519531 L 42.730469 34.460938 Z M 44.207031 34.460938 L 44.207031 37.519531 L 47.265625 37.519531 L 47.265625 34.460938 Z M 48.742188 34.460938 L 48.742188 37.519531 L 51.800781 37.519531 L 51.800781 34.460938 Z M 53.277344 34.460938 L 53.277344 37.519531 L 56.335938 37.519531 L 56.335938 34.460938 Z M 8.367188 38.996094 L 8.367188 42.054688 L 10.992188 42.054688 L 10.992188 38.996094 Z M 12.46875 38.996094 L 12.46875 42.054688 L 15.523438 42.054688 L 15.523438 38.996094 Z M 17 38.996094 L 17 42.054688 L 20.058594 42.054688 L 20.058594 38.996094 Z M 21.535156 38.996094 L 21.535156 42.054688 L 24.59375 42.054688 L 24.59375 38.996094 Z M 26.070312 38.996094 L 26.070312 42.054688 L 29.128906 42.054688 L 29.128906 38.996094 Z M 30.605469 38.996094 L 30.605469 42.054688 L 33.664062 42.054688 L 33.664062 38.996094 Z M 35.136719 38.996094 L 35.136719 42.054688 L 38.199219 42.054688 L 38.199219 38.996094 Z M 39.675781 38.996094 L 39.675781 42.054688 L 42.730469 42.054688 L 42.730469 38.996094 Z M 44.207031 38.996094 L 44.207031 42.054688 L 47.265625 42.054688 L 47.265625 38.996094 Z M 48.742188 38.996094 L 48.742188 42.054688 L 51.800781 42.054688 L 51.800781 38.996094 Z M 53.277344 38.996094 L 53.277344 42.054688 L 56.335938 42.054688 L 56.335938 38.996094 Z M 8.367188 43.53125 L 8.367188 46.589844 L 10.992188 46.589844 L 10.992188 43.53125 Z M 12.46875 43.53125 L 12.46875 46.589844 L 15.523438 46.589844 L 15.523438 43.53125 Z M 17 43.53125 L 17 46.589844 L 20.058594 46.589844 L 20.058594 43.53125 Z M 21.535156 43.53125 L 21.535156 46.589844 L 24.59375 46.589844 L 24.59375 43.53125 Z M 26.070312 43.53125 L 26.070312 46.589844 L 29.128906 46.589844 L 29.128906 43.53125 Z M 30.605469 43.53125 L 30.605469 46.589844 L 33.664062 46.589844 L 33.664062 43.53125 Z M 35.136719 43.53125 L 35.136719 46.589844 L 38.199219 46.589844 L 38.199219 43.53125 Z M 39.675781 43.53125 L 39.675781 46.589844 L 42.730469 46.589844 L 42.730469 43.53125 Z M 44.207031 43.53125 L 44.207031 46.589844 L 47.265625 46.589844 L 47.265625 43.53125 Z M 48.742188 43.53125 L 48.742188 46.589844 L 51.800781 46.589844 L 51.800781 43.53125 Z M 53.277344 43.53125 L 53.277344 46.589844 L 56.335938 46.589844 L 56.335938 43.53125 Z M 8.367188 48.066406 L 8.367188 51.121094 L 10.992188 51.121094 L 10.992188 48.066406 Z M 12.46875 48.066406 L 12.46875 51.121094 L 15.523438 51.121094 L 15.523438 48.066406 Z M 17 48.066406 L 17 51.121094 L 20.058594 51.121094 L 20.058594 48.066406 Z M 21.535156 48.066406 L 21.535156 51.121094 L 24.59375 51.121094 L 24.59375 48.066406 Z M 26.070312 48.066406 L 26.070312 51.121094 L 29.128906 51.121094 L 29.128906 48.066406 Z M 30.605469 48.066406 L 30.605469 51.121094 L 33.664062 51.121094 L 33.664062 48.066406 Z M 35.136719 48.066406 L 35.136719 51.121094 L 38.199219 51.121094 L 38.199219 48.066406 Z M 39.675781 48.066406 L 39.675781 51.121094 L 42.730469 51.121094 L 42.730469 48.066406 Z M 44.207031 48.066406 L 44.207031 51.121094 L 47.265625 51.121094 L 47.265625 48.066406 Z M 48.742188 48.066406 L 48.742188 51.121094 L 51.800781 51.121094 L 51.800781 48.066406 Z M 53.277344 48.066406 L 53.277344 51.121094 L 56.335938 51.121094 L 56.335938 48.066406 Z M 8.367188 52.597656 L 8.367188 53.871094 C 8.367188 54.484375 8.441406 55.082031 8.566406 55.660156 L 10.992188 55.660156 L 10.992188 52.597656 Z M 12.46875 52.597656 L 12.46875 55.660156 L 15.523438 55.660156 L 15.523438 52.597656 Z M 17 52.597656 L 17 55.660156 L 20.058594 55.660156 L 20.058594 52.597656 Z M 21.535156 52.597656 L 21.535156 55.660156 L 24.59375 55.660156 L 24.59375 52.597656 Z M 26.070312 52.597656 L 26.070312 55.660156 L 29.128906 55.660156 L 29.128906 52.597656 Z M 30.605469 52.597656 L 30.605469 55.660156 L 33.664062 55.660156 L 33.664062 52.597656 Z M 35.136719 52.597656 L 35.136719 55.660156 L 38.199219 55.660156 L 38.199219 52.597656 Z M 39.675781 52.597656 L 39.675781 55.660156 L 42.730469 55.660156 L 42.730469 52.597656 Z M 44.207031 52.597656 L 44.207031 55.660156 L 47.265625 55.660156 L 47.265625 52.597656 Z M 48.742188 52.597656 L 48.742188 55.660156 L 51.800781 55.660156 L 51.800781 52.597656 Z M 53.277344 52.597656 L 53.277344 55.660156 L 56.183594 55.660156 C 56.25 55.359375 56.304688 55.058594 56.335938 54.746094 L 56.335938 52.597656 Z M 9.035156 57.132812 C 9.488281 58.195312 10.160156 59.136719 10.992188 59.914062 L 10.992188 57.132812 Z M 12.46875 57.132812 L 12.46875 60.195312 L 15.523438 60.195312 L 15.523438 57.132812 Z M 17 57.132812 L 17 60.195312 L 20.058594 60.195312 L 20.058594 57.132812 Z M 21.535156 57.132812 L 21.535156 60.195312 L 24.59375 60.195312 L 24.59375 57.132812 Z M 26.070312 57.132812 L 26.070312 60.195312 L 29.128906 60.195312 L 29.128906 57.132812 Z M 30.605469 57.132812 L 30.605469 60.195312 L 33.664062 60.195312 L 33.664062 57.132812 Z M 35.136719 57.132812 L 35.136719 60.195312 L 38.199219 60.195312 L 38.199219 57.132812 Z M 39.675781 57.132812 L 39.675781 60.195312 L 42.730469 60.195312 L 42.730469 57.132812 Z M 44.207031 57.132812 L 44.207031 60.195312 L 47.265625 60.195312 L 47.265625 57.132812 Z M 48.742188 57.132812 L 48.742188 60.195312 L 51.800781 60.195312 L 51.800781 57.132812 Z M 53.277344 57.132812 L 53.277344 60.195312 L 53.449219 60.195312 C 54.425781 59.371094 55.207031 58.324219 55.71875 57.132812 Z M 13.898438 61.671875 C 14.417969 61.851562 14.964844 61.984375 15.523438 62.058594 L 15.523438 61.671875 Z M 17 61.671875 L 17 62.140625 L 20.058594 62.140625 L 20.058594 61.671875 Z M 21.535156 61.671875 L 21.535156 62.140625 L 24.59375 62.140625 L 24.59375 61.671875 Z M 26.070312 61.671875 L 26.070312 62.140625 L 29.128906 62.140625 L 29.128906 61.671875 Z M 30.605469 61.671875 L 30.605469 62.140625 L 33.664062 62.140625 L 33.664062 61.671875 Z M 35.136719 61.671875 L 35.136719 62.140625 L 38.199219 62.140625 L 38.199219 61.671875 Z M 39.675781 61.671875 L 39.675781 62.140625 L 42.730469 62.140625 L 42.730469 61.671875 Z M 44.207031 61.671875 L 44.207031 62.140625 L 47.265625 62.140625 L 47.265625 61.671875 Z M 48.742188 61.671875 L 48.742188 62.109375 C 49.476562 62.054688 50.183594 61.902344 50.847656 61.671875 Z M 48.742188 61.671875 "/>
<path style=" stroke:none;fill-rule:nonzero;fill:rgb(100%,100%,100%);fill-opacity:1;" d="M 56.382812 11.382812 L 33.5625 1.578125 L 33.5625 3.113281 C 33.5625 7.695312 37.25 11.382812 41.832031 11.382812 Z M 56.382812 11.382812 "/>
<path style=" stroke:none;fill-rule:nonzero;fill:rgb(100%,100%,100%);fill-opacity:1;" d="M 39.066406 24.460938 C 38.359375 24.460938 37.753906 24.832031 37.421875 25.382812 L 30.460938 25.382812 C 30.460938 25.382812 29.078125 25.359375 27.652344 26.046875 C 26.230469 26.730469 24.726562 28.304688 24.726562 30.914062 C 24.726562 33.527344 26.230469 35.097656 27.652344 35.785156 C 28.328125 36.109375 28.992188 36.246094 29.503906 36.332031 L 29.503906 36.734375 L 26.875 39.269531 C 26.796875 39.25 26.726562 39.210938 26.636719 39.210938 C 26.109375 39.210938 25.683594 39.625 25.683594 40.132812 C 25.683594 40.640625 26.109375 41.054688 26.636719 41.054688 C 27.164062 41.054688 27.59375 40.640625 27.59375 40.132812 C 27.59375 40.050781 27.558594 39.984375 27.53125 39.902344 L 30.164062 37.371094 L 33.332031 37.371094 L 33.332031 36.445312 L 34.289062 36.445312 C 34.289062 36.445312 35.289062 36.472656 36.257812 36.933594 C 37.222656 37.402344 38.109375 38.136719 38.109375 40.132812 C 38.109375 42.132812 37.222656 42.867188 36.257812 43.332031 C 35.289062 43.796875 34.289062 43.820312 34.289062 43.820312 L 27.324219 43.820312 C 26.996094 43.269531 26.390625 42.898438 25.683594 42.898438 C 24.625 42.898438 23.769531 43.726562 23.769531 44.746094 C 23.769531 45.761719 24.625 46.589844 25.683594 46.589844 C 26.390625 46.589844 26.996094 46.214844 27.324219 45.664062 L 34.289062 45.664062 C 34.289062 45.664062 35.671875 45.691406 37.09375 45.003906 C 38.519531 44.316406 40.023438 42.746094 40.023438 40.132812 C 40.023438 37.523438 38.519531 35.953125 37.09375 35.265625 C 35.671875 34.578125 34.289062 34.601562 34.289062 34.601562 L 33.332031 34.601562 L 33.332031 34.3125 L 35.960938 31.777344 C 36.039062 31.800781 36.109375 31.835938 36.199219 31.835938 C 36.726562 31.835938 37.152344 31.421875 37.152344 30.914062 C 37.152344 30.402344 36.726562 29.992188 36.199219 29.992188 C 35.671875 29.992188 35.246094 30.402344 35.246094 30.914062 C 35.246094 31 35.28125 31.066406 35.300781 31.144531 L 32.671875 33.679688 L 29.507812 33.679688 L 29.507812 34.457031 C 29.191406 34.386719 28.851562 34.285156 28.488281 34.113281 C 27.523438 33.648438 26.636719 32.914062 26.636719 30.914062 C 26.636719 28.917969 27.523438 28.183594 28.488281 27.714844 C 29.457031 27.253906 30.460938 27.226562 30.460938 27.226562 L 37.421875 27.226562 C 37.753906 27.777344 38.359375 28.152344 39.066406 28.152344 C 40.121094 28.152344 40.976562 27.324219 40.976562 26.304688 C 40.976562 25.289062 40.121094 24.460938 39.066406 24.460938 Z M 39.066406 24.460938 "/>
</g>
</svg>
