
<svg xmlns="http://www.w3.org/2000/svg" xmlns:xlink="http://www.w3.org/1999/xlink" width="64px" height="64px" viewBox="0 0 64 64" version="1.1">
<defs>
<filter id="alpha" filterUnits="objectBoundingBox" x="0%" y="0%" width="100%" height="100%">
  <feColorMatrix type="matrix" in="SourceGraphic" values="0 0 0 0 1 0 0 0 0 1 0 0 0 0 1 0 0 0 1 0"/>
</filter>
<mask id="mask0">
  <g filter="url(#alpha)">
<rect x="0" y="0" width="64" height="64" style="fill:rgb(0%,0%,0%);fill-opacity:0.682353;stroke:none;"/>
  </g>
</mask>
<clipPath id="clip1">
  <rect x="0" y="0" width="64" height="64"/>
</clipPath>
<g id="surface5" clip-path="url(#clip1)">
<path style=" stroke:none;fill-rule:nonzero;fill:rgb(36.862745%,36.470588%,33.72549%);fill-opacity:1;" d="M 54.644531 12.707031 L 33.121094 3.457031 L 33.121094 4.90625 C 33.121094 9.230469 36.597656 12.707031 40.921875 12.707031 Z M 54.644531 12.707031 "/>
</g>
<mask id="mask1">
  <g filter="url(#alpha)">
<rect x="0" y="0" width="64" height="64" style="fill:rgb(0%,0%,0%);fill-opacity:0.6;stroke:none;"/>
  </g>
</mask>
<clipPath id="clip2">
  <rect x="0" y="0" width="64" height="64"/>
</clipPath>
<g id="surface8" clip-path="url(#clip2)">
<path style=" stroke:none;fill-rule:nonzero;fill:rgb(0%,0%,0%);fill-opacity:1;" d="M 16.578125 16.878906 L 16.578125 29.261719 L 36.703125 29.261719 L 36.703125 16.878906 Z M 17.355469 17.652344 L 35.929688 17.652344 L 35.929688 28.488281 L 17.355469 28.488281 Z M 18.128906 18.425781 L 18.128906 27.714844 L 19.675781 27.714844 L 19.675781 20.613281 L 22.773438 23.710938 L 25.867188 20.613281 L 25.867188 27.714844 L 27.417969 27.714844 L 27.417969 18.425781 L 25.867188 18.425781 L 22.773438 21.519531 L 19.679688 18.425781 Z M 31.285156 18.425781 L 31.285156 24.617188 L 28.964844 24.617188 L 32.058594 27.714844 L 35.15625 24.617188 L 32.835938 24.617188 L 32.835938 18.425781 Z M 31.285156 18.425781 "/>
</g>
</defs>
<g id="surface1">
<path style=" stroke:none;fill-rule:nonzero;fill:rgb(92.54902%,91.372549%,84.705882%);fill-opacity:1;" d="M 17.15625 3.457031 C 12.832031 3.457031 9.355469 6.933594 9.355469 11.257812 L 9.355469 52.742188 C 9.355469 57.066406 12.832031 60.542969 17.15625 60.542969 L 46.84375 60.542969 C 51.167969 60.542969 54.644531 57.066406 54.644531 52.742188 L 54.644531 12.707031 L 33.121094 3.457031 Z M 47.644531 3.496094 C 48.167969 3.546875 48.679688 3.652344 49.167969 3.804688 C 48.679688 3.652344 48.167969 3.546875 47.644531 3.496094 Z M 49.167969 3.804688 C 49.902344 4.03125 50.589844 4.363281 51.210938 4.785156 C 50.589844 4.363281 49.902344 4.03125 49.167969 3.804688 Z M 51.8125 5.230469 C 52.003906 5.390625 52.1875 5.5625 52.363281 5.738281 C 52.1875 5.558594 52.003906 5.390625 51.8125 5.230469 Z M 51.8125 5.230469 "/>
<use xlink:href="#surface5" mask="url(#mask0)"/>
<path style=" stroke:none;fill-rule:nonzero;fill:rgb(54.509804%,53.72549%,50.196078%);fill-opacity:1;" d="M 30.953125 32.5625 L 38.882812 32.5625 C 39.253906 32.5625 39.554688 32.875 39.554688 33.257812 L 39.554688 39.980469 C 39.554688 40.367188 39.253906 40.679688 38.882812 40.679688 L 30.953125 40.679688 C 30.582031 40.679688 30.28125 40.367188 30.28125 39.980469 L 30.28125 33.257812 C 30.28125 32.875 30.582031 32.5625 30.953125 32.5625 Z M 30.953125 32.5625 "/>
<path style="fill:none;stroke-width:0.869565;stroke-linecap:round;stroke-linejoin:round;stroke:rgb(0%,0%,0%);stroke-opacity:0.298039;stroke-miterlimit:4;" d="M 31.839844 24.855469 L 36.1875 24.855469 " transform="matrix(1.333333,0,0,1.333333,0,0)"/>
<path style="fill:none;stroke-width:0.869565;stroke-linecap:round;stroke-linejoin:round;stroke:rgb(0%,0%,0%);stroke-opacity:0.298039;stroke-miterlimit:4;" d="M 31.839844 27.46582 L 36.1875 27.46582 " transform="matrix(1.333333,0,0,1.333333,0,0)"/>
<path style="fill:none;stroke-width:0.869565;stroke-linecap:round;stroke-linejoin:round;stroke:rgb(0%,0%,0%);stroke-opacity:0.298039;stroke-miterlimit:4;" d="M 31.839844 30.073242 L 36.1875 30.073242 " transform="matrix(1.333333,0,0,1.333333,0,0)"/>
<path style="fill:none;stroke-width:0.869565;stroke-linecap:round;stroke-linejoin:round;stroke:rgb(0%,0%,0%);stroke-opacity:0.298039;stroke-miterlimit:4;" d="M 22.710938 32.683594 L 36.624023 32.683594 " transform="matrix(1.333333,0,0,1.333333,0,0)"/>
<path style="fill:none;stroke-width:0.869565;stroke-linecap:round;stroke-linejoin:round;stroke:rgb(0%,0%,0%);stroke-opacity:0.298039;stroke-miterlimit:4;" d="M 22.710938 35.291016 L 36.624023 35.291016 " transform="matrix(1.333333,0,0,1.333333,0,0)"/>
<path style="fill:none;stroke-width:0.869565;stroke-linecap:round;stroke-linejoin:round;stroke:rgb(0%,0%,0%);stroke-opacity:0.298039;stroke-miterlimit:4;" d="M 22.710938 37.898438 L 36.624023 37.898438 " transform="matrix(1.333333,0,0,1.333333,0,0)"/>
<path style="fill:none;stroke-width:0.869565;stroke-linecap:round;stroke-linejoin:round;stroke:rgb(0%,0%,0%);stroke-opacity:0.298039;stroke-miterlimit:4;" d="M 22.710938 40.508789 L 36.624023 40.508789 " transform="matrix(1.333333,0,0,1.333333,0,0)"/>
<use xlink:href="#surface8" mask="url(#mask1)"/>
</g>
</svg>
