
<svg xmlns="http://www.w3.org/2000/svg" xmlns:xlink="http://www.w3.org/1999/xlink" width="22px" height="22px" viewBox="0 0 22 22" version="1.1">
<defs>
<filter id="alpha" filterUnits="objectBoundingBox" x="0%" y="0%" width="100%" height="100%">
  <feColorMatrix type="matrix" in="SourceGraphic" values="0 0 0 0 1 0 0 0 0 1 0 0 0 0 1 0 0 0 1 0"/>
</filter>
<mask id="mask0">
  <g filter="url(#alpha)">
<rect x="0" y="0" width="22" height="22" style="fill:rgb(0%,0%,0%);fill-opacity:0.682353;stroke:none;"/>
  </g>
</mask>
<clipPath id="clip1">
  <rect x="0" y="0" width="22" height="22"/>
</clipPath>
<g id="surface5" clip-path="url(#clip1)">
<path style=" stroke:none;fill-rule:nonzero;fill:rgb(100%,100%,100%);fill-opacity:1;" d="M 11.308594 0.789062 L 11.308594 1.289062 C 11.308594 1.324219 11.3125 1.359375 11.3125 1.394531 L 11.773438 1.597656 L 11.773438 1.886719 L 11.375 1.886719 C 11.472656 2.3125 11.667969 2.699219 11.941406 3.019531 L 11.941406 2.0625 L 12.800781 2.0625 L 13.742188 2.484375 L 13.742188 3.957031 C 13.824219 3.964844 13.90625 3.96875 13.992188 3.96875 L 16.578125 3.96875 L 16.578125 3.890625 L 16.75 3.96875 L 18.707031 3.96875 Z M 15.085938 0.878906 C 15.152344 0.933594 15.210938 0.992188 15.273438 1.054688 C 15.210938 0.992188 15.152344 0.933594 15.085938 0.878906 Z M 15.085938 0.878906 "/>
</g>
<mask id="mask1">
  <g filter="url(#alpha)">
<rect x="0" y="0" width="22" height="22" style="fill:rgb(0%,0%,0%);fill-opacity:0.682353;stroke:none;"/>
  </g>
</mask>
<clipPath id="clip2">
  <rect x="0" y="0" width="22" height="22"/>
</clipPath>
<g id="surface8" clip-path="url(#clip2)">
<path style=" stroke:none;fill-rule:nonzero;fill:rgb(100%,100%,100%);fill-opacity:1;" d="M 18.707031 3.96875 L 11.308594 0.789062 L 11.308594 1.289062 C 11.308594 2.773438 12.503906 3.96875 13.992188 3.96875 Z M 18.707031 3.96875 "/>
</g>
</defs>
<g id="surface1">
<path style=" stroke:none;fill-rule:nonzero;fill:rgb(60%,60%,60%);fill-opacity:1;" d="M 5.820312 0.789062 C 4.335938 0.789062 3.140625 1.984375 3.140625 3.472656 L 3.140625 17.730469 C 3.140625 19.21875 4.335938 20.414062 5.820312 20.414062 L 16.027344 20.414062 C 17.511719 20.414062 18.707031 19.21875 18.707031 17.730469 L 18.707031 3.96875 L 11.308594 0.789062 Z M 16.300781 0.804688 C 16.480469 0.820312 16.65625 0.859375 16.824219 0.910156 C 16.65625 0.855469 16.480469 0.820312 16.300781 0.804688 Z M 16.824219 0.910156 C 17.078125 0.988281 17.3125 1.101562 17.527344 1.246094 C 17.3125 1.101562 17.078125 0.988281 16.824219 0.910156 Z M 17.734375 1.398438 C 17.800781 1.453125 17.863281 1.511719 17.925781 1.574219 C 17.863281 1.511719 17.800781 1.453125 17.734375 1.398438 Z M 17.734375 1.398438 "/>
<path style=" stroke:none;fill-rule:nonzero;fill:rgb(92.54902%,91.372549%,84.705882%);fill-opacity:1;" d="M 5.820312 0.789062 C 4.335938 0.789062 3.140625 1.984375 3.140625 3.472656 L 3.140625 17.730469 C 3.140625 19.21875 4.335938 20.414062 5.820312 20.414062 L 9.96875 20.414062 L 9.96875 19.367188 L 11.773438 19.367188 L 11.773438 20.414062 L 16.027344 20.414062 C 17.511719 20.414062 18.707031 19.21875 18.707031 17.730469 L 18.707031 4.851562 L 16.578125 4.851562 L 16.578125 3.890625 L 18.707031 4.851562 L 18.707031 3.96875 L 11.308594 0.789062 L 9.96875 0.789062 L 11.773438 1.597656 L 11.773438 1.886719 L 9.96875 1.886719 L 9.96875 0.789062 Z M 15.085938 0.878906 C 15.152344 0.933594 15.210938 0.992188 15.273438 1.054688 C 15.210938 0.992188 15.152344 0.933594 15.085938 0.878906 Z M 17.734375 1.398438 C 17.800781 1.453125 17.863281 1.511719 17.925781 1.574219 C 17.863281 1.511719 17.800781 1.453125 17.734375 1.398438 Z M 11.941406 2.0625 L 12.800781 2.0625 L 13.742188 2.484375 L 13.742188 4.003906 L 11.941406 4.003906 Z M 9.96875 4.179688 L 11.773438 4.179688 L 11.773438 5.886719 L 9.96875 5.886719 Z M 13.910156 4.179688 L 15.429688 4.179688 L 15.429688 5.886719 L 13.910156 5.886719 Z M 11.941406 6.066406 L 13.742188 6.066406 L 13.742188 8.832031 L 11.941406 8.832031 Z M 9.96875 9.007812 L 11.773438 9.007812 L 11.773438 11.421875 L 9.96875 11.421875 Z M 13.910156 9.007812 L 15.429688 9.007812 L 15.429688 11.421875 L 13.910156 11.421875 Z M 16.753906 9.550781 L 18.273438 9.550781 L 18.273438 12.320312 L 16.753906 12.320312 Z M 11.941406 11.597656 L 13.742188 11.597656 L 13.742188 14.011719 L 11.941406 14.011719 Z M 9.96875 14.1875 L 11.773438 14.1875 L 11.773438 16.835938 L 9.96875 16.835938 Z M 13.910156 14.1875 L 15.429688 14.1875 L 15.429688 16.835938 L 13.910156 16.835938 Z M 16.363281 15.570312 L 17.882812 15.570312 L 17.882812 17.75 L 16.363281 17.75 Z M 11.941406 17.015625 L 13.742188 17.015625 L 13.742188 19.191406 L 11.941406 19.191406 Z M 11.941406 17.015625 "/>
<use xlink:href="#surface5" mask="url(#mask0)"/>
<use xlink:href="#surface8" mask="url(#mask1)"/>
<path style=" stroke:none;fill-rule:nonzero;fill:rgb(0%,0%,0%);fill-opacity:0.352941;" d="M 7.015625 9.007812 L 7.015625 9.40625 L 11.773438 9.40625 L 11.773438 9.007812 Z M 7.015625 10.601562 L 7.015625 11 L 13.476562 11 L 13.476562 10.601562 Z M 7.015625 12.195312 L 7.015625 12.59375 L 11.773438 12.59375 L 11.773438 12.195312 Z M 7.015625 13.789062 L 7.015625 14.1875 L 12.5 14.1875 L 12.5 13.789062 Z M 7.015625 15.382812 L 7.015625 15.78125 L 11.722656 15.78125 L 11.722656 15.382812 Z M 7.015625 15.382812 "/>
</g>
</svg>
