<?xml version="1.0" encoding="UTF-8"?>
<svg xmlns="http://www.w3.org/2000/svg" xmlns:xlink="http://www.w3.org/1999/xlink" width="22pt" height="22pt" viewBox="0 0 22 22" version="1.1">
<g id="surface1">
<path style=" stroke:none;fill-rule:nonzero;fill:rgb(52.54902%,56.470588%,58.039216%);fill-opacity:1;" d="M 5.898438 1.1875 L 16.101562 1.1875 C 17.582031 1.1875 18.785156 2.386719 18.785156 3.871094 L 18.785156 18.128906 C 18.785156 19.613281 17.582031 20.8125 16.101562 20.8125 L 5.898438 20.8125 C 4.417969 20.8125 3.214844 19.613281 3.214844 18.128906 L 3.214844 3.871094 C 3.214844 2.386719 4.417969 1.1875 5.898438 1.1875 Z M 5.898438 1.1875 "/>
<path style=" stroke:none;fill-rule:nonzero;fill:rgb(92.54902%,91.372549%,84.705882%);fill-opacity:1;" d="M 5.898438 1.1875 C 4.410156 1.1875 3.214844 2.382812 3.214844 3.871094 L 3.214844 14.695312 C 3.339844 14.75 3.566406 14.855469 3.582031 14.855469 C 3.613281 14.863281 3.761719 14.75 3.9375 14.585938 C 4.101562 14.429688 4.355469 14.214844 4.5 14.109375 C 4.695312 13.964844 4.765625 13.890625 4.777344 13.816406 C 4.78125 13.761719 4.695312 13.359375 4.582031 12.921875 C 4.359375 12.078125 4.347656 11.9375 4.460938 11.707031 C 4.585938 11.445312 4.691406 11.394531 5.753906 11.066406 L 6.722656 10.765625 L 6.90625 10.816406 C 7.21875 10.90625 7.285156 11 7.644531 11.902344 C 7.816406 12.335938 7.976562 12.726562 8.003906 12.765625 C 8.035156 12.820312 8.128906 12.835938 8.417969 12.84375 C 8.621094 12.847656 8.957031 12.878906 9.160156 12.910156 C 9.363281 12.941406 9.546875 12.964844 9.5625 12.957031 C 9.578125 12.953125 9.78125 12.613281 10.011719 12.207031 C 10.246094 11.800781 10.484375 11.417969 10.546875 11.355469 C 10.691406 11.207031 10.953125 11.125 11.171875 11.15625 C 11.277344 11.167969 11.679688 11.351562 12.195312 11.617188 C 13.078125 12.074219 13.15625 12.136719 13.253906 12.441406 C 13.324219 12.65625 13.273438 12.828125 12.902344 13.640625 C 12.703125 14.082031 12.542969 14.460938 12.546875 14.476562 C 12.554688 14.496094 12.695312 14.652344 12.859375 14.828125 C 13.027344 15.003906 13.238281 15.253906 13.332031 15.386719 C 13.449219 15.550781 13.527344 15.632812 13.582031 15.636719 C 13.628906 15.640625 14.042969 15.546875 14.503906 15.429688 C 15.417969 15.199219 15.570312 15.1875 15.789062 15.351562 C 15.996094 15.503906 16.0625 15.648438 16.363281 16.628906 L 16.652344 17.5625 L 16.59375 17.753906 C 16.488281 18.097656 16.441406 18.125 15.46875 18.511719 C 14.996094 18.699219 14.601562 18.863281 14.59375 18.878906 C 14.585938 18.890625 14.578125 19.066406 14.570312 19.265625 C 14.566406 19.464844 14.535156 19.796875 14.503906 20.003906 C 14.472656 20.207031 14.457031 20.394531 14.472656 20.421875 C 14.484375 20.441406 14.792969 20.625 15.117188 20.8125 L 16.101562 20.8125 C 17.589844 20.8125 18.785156 19.617188 18.785156 18.128906 L 18.785156 10.359375 C 18.6875 10.398438 18.613281 10.417969 18.460938 10.492188 C 18.21875 10.601562 17.867188 10.746094 17.671875 10.8125 C 17.40625 10.898438 17.316406 10.949219 17.296875 11.019531 C 17.285156 11.070312 17.246094 11.558594 17.210938 12.105469 C 17.132812 13.304688 17.085938 13.433594 16.667969 13.648438 C 16.546875 13.707031 16.34375 13.71875 15.328125 13.71875 C 14.433594 13.714844 14.101562 13.699219 14.003906 13.65625 C 13.828125 13.578125 13.644531 13.378906 13.5625 13.183594 C 13.519531 13.082031 13.480469 12.691406 13.441406 12.070312 C 13.414062 11.542969 13.371094 11.070312 13.351562 11.019531 C 13.328125 10.949219 13.207031 10.886719 12.90625 10.78125 C 12.679688 10.703125 12.335938 10.558594 12.144531 10.460938 C 11.953125 10.367188 11.757812 10.289062 11.707031 10.289062 C 11.648438 10.289062 11.335938 10.542969 10.890625 10.949219 C 10.496094 11.3125 10.105469 11.644531 10.027344 11.683594 C 9.867188 11.769531 9.503906 11.78125 9.316406 11.710938 C 9.167969 11.65625 7.589844 10.101562 7.488281 9.910156 C 7.386719 9.722656 7.398438 9.367188 7.511719 9.152344 C 7.5625 9.054688 7.894531 8.65625 8.253906 8.269531 C 8.636719 7.855469 8.902344 7.53125 8.902344 7.480469 C 8.902344 7.429688 8.820312 7.234375 8.726562 7.042969 C 8.628906 6.851562 8.488281 6.511719 8.410156 6.285156 C 8.328125 6.058594 8.230469 5.859375 8.191406 5.835938 C 8.152344 5.816406 7.691406 5.777344 7.164062 5.746094 C 6.550781 5.714844 6.136719 5.671875 6.019531 5.628906 C 5.792969 5.546875 5.53125 5.265625 5.492188 5.066406 C 5.476562 4.984375 5.472656 4.386719 5.476562 3.734375 L 5.492188 2.542969 L 5.628906 2.375 C 5.871094 2.070312 5.984375 2.039062 7.136719 1.96875 C 7.789062 1.929688 8.183594 1.886719 8.21875 1.855469 C 8.246094 1.824219 8.34375 1.601562 8.433594 1.355469 C 8.457031 1.300781 8.484375 1.25 8.507812 1.1875 Z M 11.726562 1.1875 C 11.34375 1.699219 11.066406 2.292969 10.929688 2.9375 C 10.617188 4.421875 11.074219 5.941406 12.160156 7.03125 C 12.726562 7.601562 13.464844 8.019531 14.261719 8.222656 C 14.488281 8.28125 14.8125 8.328125 15.273438 8.367188 C 15.308594 8.367188 15.53125 8.351562 15.761719 8.328125 C 16.839844 8.214844 17.738281 7.785156 18.507812 7.019531 C 18.609375 6.917969 18.695312 6.808594 18.785156 6.703125 L 18.785156 3.871094 C 18.785156 2.382812 17.589844 1.1875 16.101562 1.1875 L 15.65625 1.1875 C 16.222656 1.253906 16.765625 1.503906 17.199219 1.933594 C 18.050781 2.785156 18.257812 3.992188 17.726562 5.054688 C 17.277344 5.957031 16.445312 6.488281 15.429688 6.53125 C 15.082031 6.542969 14.910156 6.527344 14.65625 6.460938 C 13.523438 6.152344 12.726562 5.183594 12.65625 4.023438 C 12.605469 3.214844 12.867188 2.53125 13.441406 1.957031 C 13.890625 1.511719 14.449219 1.257812 15.023438 1.1875 Z M 15.40625 2.28125 C 14.914062 2.253906 14.617188 2.359375 14.261719 2.683594 C 13.8125 3.097656 13.632812 3.667969 13.777344 4.234375 C 13.902344 4.722656 14.167969 5.054688 14.613281 5.28125 C 15.03125 5.492188 15.460938 5.511719 15.929688 5.335938 C 16.242188 5.21875 16.617188 4.871094 16.773438 4.550781 C 16.996094 4.03125 16.878906 3.546875 16.746094 3.125 C 16.453125 2.585938 16.019531 2.308594 15.40625 2.28125 Z M 8.132812 15.28125 C 7.804688 15.285156 7.71875 15.304688 7.136719 15.488281 C 6.578125 15.667969 6.464844 15.714844 6.21875 15.875 C 4.984375 16.679688 4.300781 18.101562 4.453125 19.539062 C 4.488281 19.886719 4.574219 20.214844 4.695312 20.527344 C 5.058594 20.707031 5.464844 20.8125 5.898438 20.8125 L 6.71875 20.8125 C 6.476562 20.582031 6.277344 20.300781 6.148438 19.972656 C 5.894531 19.324219 5.925781 18.699219 6.246094 18.078125 C 6.679688 17.234375 7.554688 16.769531 8.4375 16.832031 C 8.730469 16.851562 9.023438 16.929688 9.300781 17.074219 C 10.222656 17.542969 10.707031 18.472656 10.554688 19.476562 C 10.472656 20.015625 10.230469 20.472656 9.859375 20.8125 L 11.730469 20.8125 C 12.03125 20.203125 12.164062 19.585938 12.128906 18.875 C 12.109375 18.417969 11.808594 17.484375 11.554688 17.09375 C 10.78125 15.90625 9.542969 15.25 8.132812 15.28125 Z M 8.296875 17.769531 C 8.179688 17.773438 8.058594 17.792969 7.929688 17.828125 C 7.523438 17.9375 7.308594 18.097656 7.105469 18.457031 C 6.847656 18.910156 6.851562 19.425781 7.117188 19.847656 C 7.347656 20.214844 7.652344 20.417969 8.074219 20.484375 C 8.472656 20.546875 8.824219 20.449219 9.160156 20.179688 C 9.386719 20.003906 9.601562 19.621094 9.644531 19.316406 C 9.691406 18.835938 9.464844 18.472656 9.246094 18.160156 C 8.960938 17.890625 8.648438 17.761719 8.296875 17.769531 Z M 8.296875 17.769531 "/>
</g>
</svg>
