
<svg xmlns="http://www.w3.org/2000/svg" xmlns:xlink="http://www.w3.org/1999/xlink" width="22px" height="22px" viewBox="0 0 22 22" version="1.1">
<defs>
<filter id="alpha" filterUnits="objectBoundingBox" x="0%" y="0%" width="100%" height="100%">
  <feColorMatrix type="matrix" in="SourceGraphic" values="0 0 0 0 1 0 0 0 0 1 0 0 0 0 1 0 0 0 1 0"/>
</filter>
<mask id="mask0">
  <g filter="url(#alpha)">
<rect x="0" y="0" width="22" height="22" style="fill:rgb(0%,0%,0%);fill-opacity:0.682353;stroke:none;"/>
  </g>
</mask>
<clipPath id="clip1">
  <rect x="0" y="0" width="22" height="22"/>
</clipPath>
<g id="surface5" clip-path="url(#clip1)">
<path style=" stroke:none;fill-rule:nonzero;fill:rgb(100%,100%,100%);fill-opacity:1;" d="M 19.21875 4.003906 L 11.347656 0.621094 L 11.347656 1.152344 C 11.347656 2.730469 12.621094 4.003906 14.199219 4.003906 Z M 19.21875 4.003906 "/>
</g>
</defs>
<g id="surface1">
<path style=" stroke:none;fill-rule:nonzero;fill:rgb(94.117647%,66.666667%,25.490196%);fill-opacity:1;" d="M 5.507812 0.621094 C 3.929688 0.621094 2.65625 1.894531 2.65625 3.472656 L 2.65625 18.644531 C 2.65625 20.222656 3.929688 21.496094 5.507812 21.496094 L 16.367188 21.496094 C 17.945312 21.496094 19.21875 20.222656 19.21875 18.644531 L 19.21875 4.003906 L 11.347656 0.621094 Z M 16.65625 0.632812 C 16.851562 0.652344 17.035156 0.691406 17.214844 0.746094 C 17.035156 0.691406 16.851562 0.652344 16.65625 0.632812 Z M 17.214844 0.746094 C 17.484375 0.832031 17.734375 0.953125 17.960938 1.105469 C 17.734375 0.953125 17.484375 0.832031 17.214844 0.746094 Z M 18.183594 1.269531 C 18.253906 1.328125 18.320312 1.390625 18.382812 1.453125 C 18.320312 1.390625 18.253906 1.328125 18.183594 1.269531 Z M 18.183594 1.269531 "/>
<use xlink:href="#surface5" mask="url(#mask0)"/>
<path style=" stroke:none;fill-rule:nonzero;fill:rgb(100%,100%,100%);fill-opacity:1;" d="M 5.457031 0.632812 L 5.457031 1.941406 L 7.152344 1.941406 L 7.152344 3.25 L 5.457031 3.25 L 5.457031 4.558594 L 7.152344 4.558594 L 7.152344 5.867188 L 5.457031 5.867188 L 5.457031 7.175781 L 7.152344 7.175781 L 7.152344 9.136719 L 5.457031 9.136719 L 5.457031 11.753906 L 8.847656 11.753906 L 8.847656 9.136719 L 7.152344 9.136719 L 7.152344 8.480469 L 8.847656 8.480469 L 8.847656 7.175781 L 7.152344 7.175781 L 7.152344 5.867188 L 8.847656 5.867188 L 8.847656 4.558594 L 7.152344 4.558594 L 7.152344 3.25 L 8.847656 3.25 L 8.847656 1.941406 L 7.152344 1.941406 L 7.152344 0.632812 Z M 5.457031 0.632812 "/>
<path style=" stroke:none;fill-rule:nonzero;fill:rgb(100%,100%,100%);fill-opacity:1;" d="M 7.214844 11.398438 C 7.097656 11.398438 6.859375 11.402344 6.683594 11.402344 L 6.363281 11.40625 L 6.363281 11.722656 C 6.363281 11.722656 6.261719 11.828125 6.238281 11.890625 C 6.03125 12.449219 6.003906 13.078125 6.144531 13.652344 C 6.164062 13.742188 6.285156 13.890625 6.285156 13.890625 L 6.308594 13.476562 C 6.363281 13.179688 6.335938 12.855469 6.628906 12.855469 L 6.707031 12.855469 L 6.707031 12.566406 C 6.707031 12.332031 6.910156 12.136719 7.160156 12.136719 L 7.210938 12.136719 C 7.460938 12.136719 7.664062 12.332031 7.664062 12.566406 L 7.664062 12.855469 L 7.742188 12.855469 C 8.058594 12.863281 8.058594 13.351562 8.0625 13.476562 L 8.089844 13.890625 C 8.089844 13.890625 8.222656 13.726562 8.246094 13.628906 C 8.386719 13.078125 8.367188 12.46875 8.164062 11.933594 C 8.148438 11.882812 8.0625 11.800781 8.0625 11.800781 L 8.0625 11.40625 L 7.746094 11.402344 C 7.570312 11.402344 7.332031 11.398438 7.214844 11.398438 Z M 7.164062 12.246094 C 6.945312 12.246094 6.765625 12.410156 6.765625 12.621094 L 6.765625 13.488281 C 6.765625 13.695312 6.945312 13.863281 7.164062 13.863281 L 7.207031 13.863281 C 7.425781 13.863281 7.601562 13.695312 7.601562 13.488281 L 7.601562 12.621094 C 7.601562 12.410156 7.425781 12.246094 7.207031 12.246094 Z M 6.707031 12.953125 C 6.6875 12.953125 6.628906 12.976562 6.570312 13.003906 L 6.46875 13.054688 L 6.46875 15.792969 L 6.5 15.835938 L 6.542969 15.859375 L 7.832031 15.835938 L 7.882812 15.800781 L 7.890625 14.453125 L 7.90625 13.074219 L 7.816406 13.015625 C 7.765625 12.980469 7.707031 12.953125 7.683594 12.953125 L 7.664062 12.953125 L 7.664062 13.5625 C 7.664062 13.800781 7.460938 13.992188 7.210938 13.992188 L 7.160156 13.992188 C 6.910156 13.992188 6.707031 13.800781 6.707031 13.5625 Z M 7.164062 14.792969 C 7.40625 14.792969 7.605469 14.972656 7.605469 15.199219 C 7.605469 15.421875 7.40625 15.601562 7.164062 15.601562 C 6.917969 15.601562 6.71875 15.421875 6.71875 15.199219 C 6.71875 14.972656 6.917969 14.792969 7.164062 14.792969 Z M 7.164062 14.792969 "/>
</g>
</svg>
