
<svg xmlns="http://www.w3.org/2000/svg" xmlns:xlink="http://www.w3.org/1999/xlink" width="22px" height="22px" viewBox="0 0 22 22" version="1.1">
<g id="surface1">
<path style=" stroke:none;fill-rule:nonzero;fill:rgb(93.333333%,81.960784%,50.980392%);fill-opacity:1;" d="M 5.71875 0.542969 C 4.144531 0.542969 2.875 1.808594 2.875 3.382812 L 2.875 18.503906 C 2.875 20.078125 4.144531 21.347656 5.71875 21.347656 L 16.539062 21.347656 C 18.113281 21.347656 19.382812 20.078125 19.382812 18.503906 L 19.382812 3.914062 L 11.539062 0.542969 Z M 16.832031 0.554688 C 17.019531 0.574219 17.207031 0.613281 17.386719 0.667969 C 17.207031 0.613281 17.019531 0.574219 16.832031 0.554688 Z M 17.386719 0.667969 C 17.652344 0.75 17.902344 0.871094 18.128906 1.027344 C 17.902344 0.871094 17.652344 0.75 17.386719 0.667969 Z M 18.347656 1.1875 C 18.417969 1.246094 18.484375 1.308594 18.550781 1.375 C 18.484375 1.308594 18.417969 1.246094 18.347656 1.1875 Z M 18.347656 1.1875 "/>
<path style=" stroke:none;fill-rule:nonzero;fill:rgb(99.607843%,75.686275%,9.019608%);fill-opacity:1;" d="M 4.300781 0.933594 C 4.296875 0.9375 4.289062 0.941406 4.285156 0.945312 L 4.285156 1.988281 L 5.335938 1.988281 L 5.335938 0.933594 Z M 5.84375 0.933594 L 5.84375 1.988281 L 6.894531 1.988281 L 6.894531 0.933594 Z M 7.402344 0.933594 L 7.402344 1.988281 L 8.453125 1.988281 L 8.453125 0.933594 Z M 8.960938 0.933594 L 8.960938 1.988281 L 10.011719 1.988281 L 10.011719 0.933594 Z M 10.519531 0.933594 L 10.519531 1.988281 L 11.570312 1.988281 L 11.570312 0.933594 Z M 12.078125 0.933594 L 12.078125 1.988281 L 13.132812 1.988281 L 13.132812 1.242188 L 12.417969 0.933594 Z M 18.347656 1.203125 C 18.417969 1.261719 18.484375 1.324219 18.550781 1.386719 C 18.484375 1.324219 18.417969 1.261719 18.347656 1.203125 Z M 3.777344 1.324219 C 3.570312 1.515625 3.394531 1.738281 3.253906 1.988281 L 3.777344 1.988281 Z M 13.636719 1.460938 L 13.636719 1.988281 L 14.6875 1.988281 L 14.6875 1.910156 Z M 3.023438 2.496094 C 2.929688 2.777344 2.875 3.082031 2.875 3.398438 L 2.875 3.546875 L 3.777344 3.546875 L 3.777344 2.496094 Z M 4.285156 2.496094 L 4.285156 3.546875 L 5.335938 3.546875 L 5.335938 2.496094 Z M 5.84375 2.496094 L 5.84375 3.546875 L 6.894531 3.546875 L 6.894531 2.496094 Z M 7.402344 2.496094 L 7.402344 3.546875 L 8.453125 3.546875 L 8.453125 2.496094 Z M 8.960938 2.496094 L 8.960938 3.546875 L 10.011719 3.546875 L 10.011719 2.496094 Z M 10.519531 2.496094 L 10.519531 3.546875 L 11.570312 3.546875 L 11.570312 2.496094 Z M 12.078125 2.496094 L 12.078125 3.546875 L 13.132812 3.546875 L 13.132812 2.496094 Z M 13.636719 2.496094 L 13.636719 3.546875 L 14.6875 3.546875 L 14.6875 2.496094 Z M 15.195312 2.496094 L 15.195312 3.546875 L 16.246094 3.546875 L 16.246094 2.582031 L 16.046875 2.496094 Z M 16.753906 2.800781 L 16.753906 3.546875 L 17.808594 3.546875 L 17.808594 3.25 Z M 18.3125 3.46875 L 18.3125 3.546875 L 18.492188 3.546875 Z M 2.875 4.054688 L 2.875 5.105469 L 3.777344 5.105469 L 3.777344 4.054688 Z M 4.285156 4.054688 L 4.285156 5.105469 L 5.335938 5.105469 L 5.335938 4.054688 Z M 5.84375 4.054688 L 5.84375 5.105469 L 6.894531 5.105469 L 6.894531 4.054688 Z M 7.402344 4.054688 L 7.402344 5.105469 L 8.453125 5.105469 L 8.453125 4.054688 Z M 8.960938 4.054688 L 8.960938 5.105469 L 10.011719 5.105469 L 10.011719 4.054688 Z M 10.519531 4.054688 L 10.519531 5.105469 L 11.570312 5.105469 L 11.570312 4.054688 Z M 12.078125 4.054688 L 12.078125 5.105469 L 13.132812 5.105469 L 13.132812 4.054688 Z M 13.636719 4.054688 L 13.636719 5.105469 L 14.6875 5.105469 L 14.6875 4.054688 Z M 15.195312 4.054688 L 15.195312 5.105469 L 16.246094 5.105469 L 16.246094 4.054688 Z M 16.753906 4.054688 L 16.753906 5.105469 L 17.808594 5.105469 L 17.808594 4.054688 Z M 18.3125 4.054688 L 18.3125 5.105469 L 19.367188 5.105469 L 19.367188 4.054688 Z M 2.875 5.613281 L 2.875 6.664062 L 3.777344 6.664062 L 3.777344 5.613281 Z M 4.285156 5.613281 L 4.285156 6.664062 L 5.335938 6.664062 L 5.335938 5.613281 Z M 5.84375 5.613281 L 5.84375 6.664062 L 6.894531 6.664062 L 6.894531 5.613281 Z M 7.402344 5.613281 L 7.402344 6.664062 L 8.453125 6.664062 L 8.453125 5.613281 Z M 8.960938 5.613281 L 8.960938 6.664062 L 10.011719 6.664062 L 10.011719 5.613281 Z M 10.519531 5.613281 L 10.519531 6.664062 L 11.570312 6.664062 L 11.570312 5.613281 Z M 12.078125 5.613281 L 12.078125 6.664062 L 13.132812 6.664062 L 13.132812 5.613281 Z M 13.636719 5.613281 L 13.636719 6.664062 L 14.6875 6.664062 L 14.6875 5.613281 Z M 15.195312 5.613281 L 15.195312 6.664062 L 16.246094 6.664062 L 16.246094 5.613281 Z M 16.753906 5.613281 L 16.753906 6.664062 L 17.808594 6.664062 L 17.808594 5.613281 Z M 18.3125 5.613281 L 18.3125 6.664062 L 19.367188 6.664062 L 19.367188 5.613281 Z M 2.875 7.171875 L 2.875 8.222656 L 3.777344 8.222656 L 3.777344 7.171875 Z M 4.285156 7.171875 L 4.285156 8.222656 L 5.335938 8.222656 L 5.335938 7.171875 Z M 5.84375 7.171875 L 5.84375 8.222656 L 6.894531 8.222656 L 6.894531 7.171875 Z M 7.402344 7.171875 L 7.402344 8.222656 L 8.453125 8.222656 L 8.453125 7.171875 Z M 8.960938 7.171875 L 8.960938 8.222656 L 10.011719 8.222656 L 10.011719 7.171875 Z M 10.519531 7.171875 L 10.519531 8.222656 L 11.570312 8.222656 L 11.570312 7.171875 Z M 12.078125 7.171875 L 12.078125 8.222656 L 13.132812 8.222656 L 13.132812 7.171875 Z M 13.636719 7.171875 L 13.636719 8.222656 L 14.6875 8.222656 L 14.6875 7.171875 Z M 15.195312 7.171875 L 15.195312 8.222656 L 16.246094 8.222656 L 16.246094 7.171875 Z M 16.753906 7.171875 L 16.753906 8.222656 L 17.808594 8.222656 L 17.808594 7.171875 Z M 18.3125 7.171875 L 18.3125 8.222656 L 19.367188 8.222656 L 19.367188 7.171875 Z M 2.875 8.730469 L 2.875 9.78125 L 3.777344 9.78125 L 3.777344 8.730469 Z M 4.285156 8.730469 L 4.285156 9.78125 L 5.335938 9.78125 L 5.335938 8.730469 Z M 5.84375 8.730469 L 5.84375 9.78125 L 6.894531 9.78125 L 6.894531 8.730469 Z M 7.402344 8.730469 L 7.402344 9.78125 L 8.453125 9.78125 L 8.453125 8.730469 Z M 8.960938 8.730469 L 8.960938 9.78125 L 10.011719 9.78125 L 10.011719 8.730469 Z M 10.519531 8.730469 L 10.519531 9.78125 L 11.570312 9.78125 L 11.570312 8.730469 Z M 12.078125 8.730469 L 12.078125 9.78125 L 13.132812 9.78125 L 13.132812 8.730469 Z M 13.636719 8.730469 L 13.636719 9.78125 L 14.6875 9.78125 L 14.6875 8.730469 Z M 15.195312 8.730469 L 15.195312 9.78125 L 16.246094 9.78125 L 16.246094 8.730469 Z M 16.753906 8.730469 L 16.753906 9.78125 L 17.808594 9.78125 L 17.808594 8.730469 Z M 18.3125 8.730469 L 18.3125 9.78125 L 19.367188 9.78125 L 19.367188 8.730469 Z M 2.875 10.289062 L 2.875 11.339844 L 3.777344 11.339844 L 3.777344 10.289062 Z M 4.285156 10.289062 L 4.285156 11.339844 L 5.335938 11.339844 L 5.335938 10.289062 Z M 5.84375 10.289062 L 5.84375 11.339844 L 6.894531 11.339844 L 6.894531 10.289062 Z M 7.402344 10.289062 L 7.402344 11.339844 L 8.453125 11.339844 L 8.453125 10.289062 Z M 8.960938 10.289062 L 8.960938 11.339844 L 10.011719 11.339844 L 10.011719 10.289062 Z M 10.519531 10.289062 L 10.519531 11.339844 L 11.570312 11.339844 L 11.570312 10.289062 Z M 12.078125 10.289062 L 12.078125 11.339844 L 13.132812 11.339844 L 13.132812 10.289062 Z M 13.636719 10.289062 L 13.636719 11.339844 L 14.6875 11.339844 L 14.6875 10.289062 Z M 15.195312 10.289062 L 15.195312 11.339844 L 16.246094 11.339844 L 16.246094 10.289062 Z M 16.753906 10.289062 L 16.753906 11.339844 L 17.808594 11.339844 L 17.808594 10.289062 Z M 18.3125 10.289062 L 18.3125 11.339844 L 19.367188 11.339844 L 19.367188 10.289062 Z M 2.875 11.847656 L 2.875 12.898438 L 3.777344 12.898438 L 3.777344 11.847656 Z M 4.285156 11.847656 L 4.285156 12.898438 L 5.335938 12.898438 L 5.335938 11.847656 Z M 5.84375 11.847656 L 5.84375 12.898438 L 6.894531 12.898438 L 6.894531 11.847656 Z M 7.402344 11.847656 L 7.402344 12.898438 L 8.453125 12.898438 L 8.453125 11.847656 Z M 8.960938 11.847656 L 8.960938 12.898438 L 10.011719 12.898438 L 10.011719 11.847656 Z M 10.519531 11.847656 L 10.519531 12.898438 L 11.570312 12.898438 L 11.570312 11.847656 Z M 12.078125 11.847656 L 12.078125 12.898438 L 13.132812 12.898438 L 13.132812 11.847656 Z M 13.636719 11.847656 L 13.636719 12.898438 L 14.6875 12.898438 L 14.6875 11.847656 Z M 15.195312 11.847656 L 15.195312 12.898438 L 16.246094 12.898438 L 16.246094 11.847656 Z M 16.753906 11.847656 L 16.753906 12.898438 L 17.808594 12.898438 L 17.808594 11.847656 Z M 18.3125 11.847656 L 18.3125 12.898438 L 19.367188 12.898438 L 19.367188 11.847656 Z M 2.875 13.40625 L 2.875 14.457031 L 3.777344 14.457031 L 3.777344 13.40625 Z M 4.285156 13.40625 L 4.285156 14.457031 L 5.335938 14.457031 L 5.335938 13.40625 Z M 5.84375 13.40625 L 5.84375 14.457031 L 6.894531 14.457031 L 6.894531 13.40625 Z M 7.402344 13.40625 L 7.402344 14.457031 L 8.453125 14.457031 L 8.453125 13.40625 Z M 8.960938 13.40625 L 8.960938 14.457031 L 10.011719 14.457031 L 10.011719 13.40625 Z M 10.519531 13.40625 L 10.519531 14.457031 L 11.570312 14.457031 L 11.570312 13.40625 Z M 12.078125 13.40625 L 12.078125 14.457031 L 13.132812 14.457031 L 13.132812 13.40625 Z M 13.636719 13.40625 L 13.636719 14.457031 L 14.6875 14.457031 L 14.6875 13.40625 Z M 15.195312 13.40625 L 15.195312 14.457031 L 16.246094 14.457031 L 16.246094 13.40625 Z M 16.753906 13.40625 L 16.753906 14.457031 L 17.808594 14.457031 L 17.808594 13.40625 Z M 18.3125 13.40625 L 18.3125 14.457031 L 19.367188 14.457031 L 19.367188 13.40625 Z M 2.875 14.964844 L 2.875 16.015625 L 3.777344 16.015625 L 3.777344 14.964844 Z M 4.285156 14.964844 L 4.285156 16.015625 L 5.335938 16.015625 L 5.335938 14.964844 Z M 5.84375 14.964844 L 5.84375 16.015625 L 6.894531 16.015625 L 6.894531 14.964844 Z M 7.402344 14.964844 L 7.402344 16.015625 L 8.453125 16.015625 L 8.453125 14.964844 Z M 8.960938 14.964844 L 8.960938 16.015625 L 10.011719 16.015625 L 10.011719 14.964844 Z M 10.519531 14.964844 L 10.519531 16.015625 L 11.570312 16.015625 L 11.570312 14.964844 Z M 12.078125 14.964844 L 12.078125 16.015625 L 13.132812 16.015625 L 13.132812 14.964844 Z M 13.636719 14.964844 L 13.636719 16.015625 L 14.6875 16.015625 L 14.6875 14.964844 Z M 15.195312 14.964844 L 15.195312 16.015625 L 16.246094 16.015625 L 16.246094 14.964844 Z M 16.753906 14.964844 L 16.753906 16.015625 L 17.808594 16.015625 L 17.808594 14.964844 Z M 18.3125 14.964844 L 18.3125 16.015625 L 19.367188 16.015625 L 19.367188 14.964844 Z M 2.875 16.523438 L 2.875 17.574219 L 3.777344 17.574219 L 3.777344 16.523438 Z M 4.285156 16.523438 L 4.285156 17.574219 L 5.335938 17.574219 L 5.335938 16.523438 Z M 5.84375 16.523438 L 5.84375 17.574219 L 6.894531 17.574219 L 6.894531 16.523438 Z M 7.402344 16.523438 L 7.402344 17.574219 L 8.453125 17.574219 L 8.453125 16.523438 Z M 8.960938 16.523438 L 8.960938 17.574219 L 10.011719 17.574219 L 10.011719 16.523438 Z M 10.519531 16.523438 L 10.519531 17.574219 L 11.570312 17.574219 L 11.570312 16.523438 Z M 12.078125 16.523438 L 12.078125 17.574219 L 13.132812 17.574219 L 13.132812 16.523438 Z M 13.636719 16.523438 L 13.636719 17.574219 L 14.6875 17.574219 L 14.6875 16.523438 Z M 15.195312 16.523438 L 15.195312 17.574219 L 16.246094 17.574219 L 16.246094 16.523438 Z M 16.753906 16.523438 L 16.753906 17.574219 L 17.808594 17.574219 L 17.808594 16.523438 Z M 18.3125 16.523438 L 18.3125 17.574219 L 19.367188 17.574219 L 19.367188 16.523438 Z M 2.875 18.082031 L 2.875 18.519531 C 2.875 18.730469 2.902344 18.933594 2.945312 19.132812 L 3.777344 19.132812 L 3.777344 18.082031 Z M 4.285156 18.082031 L 4.285156 19.132812 L 5.335938 19.132812 L 5.335938 18.082031 Z M 5.84375 18.082031 L 5.84375 19.132812 L 6.894531 19.132812 L 6.894531 18.082031 Z M 7.402344 18.082031 L 7.402344 19.132812 L 8.453125 19.132812 L 8.453125 18.082031 Z M 8.960938 18.082031 L 8.960938 19.132812 L 10.011719 19.132812 L 10.011719 18.082031 Z M 10.519531 18.082031 L 10.519531 19.132812 L 11.570312 19.132812 L 11.570312 18.082031 Z M 12.078125 18.082031 L 12.078125 19.132812 L 13.132812 19.132812 L 13.132812 18.082031 Z M 13.636719 18.082031 L 13.636719 19.132812 L 14.6875 19.132812 L 14.6875 18.082031 Z M 15.195312 18.082031 L 15.195312 19.132812 L 16.246094 19.132812 L 16.246094 18.082031 Z M 16.753906 18.082031 L 16.753906 19.132812 L 17.808594 19.132812 L 17.808594 18.082031 Z M 18.3125 18.082031 L 18.3125 19.132812 L 19.3125 19.132812 C 19.335938 19.03125 19.355469 18.925781 19.367188 18.820312 L 19.367188 18.082031 Z M 3.105469 19.640625 C 3.261719 20.003906 3.492188 20.328125 3.777344 20.59375 L 3.777344 19.640625 Z M 4.285156 19.640625 L 4.285156 20.691406 L 5.335938 20.691406 L 5.335938 19.640625 Z M 5.84375 19.640625 L 5.84375 20.691406 L 6.894531 20.691406 L 6.894531 19.640625 Z M 7.402344 19.640625 L 7.402344 20.691406 L 8.453125 20.691406 L 8.453125 19.640625 Z M 8.960938 19.640625 L 8.960938 20.691406 L 10.011719 20.691406 L 10.011719 19.640625 Z M 10.519531 19.640625 L 10.519531 20.691406 L 11.570312 20.691406 L 11.570312 19.640625 Z M 12.078125 19.640625 L 12.078125 20.691406 L 13.132812 20.691406 L 13.132812 19.640625 Z M 13.636719 19.640625 L 13.636719 20.691406 L 14.6875 20.691406 L 14.6875 19.640625 Z M 15.195312 19.640625 L 15.195312 20.691406 L 16.246094 20.691406 L 16.246094 19.640625 Z M 16.753906 19.640625 L 16.753906 20.691406 L 17.808594 20.691406 L 17.808594 19.640625 Z M 18.3125 19.640625 L 18.3125 20.691406 L 18.375 20.691406 C 18.707031 20.410156 18.976562 20.050781 19.152344 19.640625 Z M 4.777344 21.199219 C 4.957031 21.261719 5.144531 21.304688 5.335938 21.332031 L 5.335938 21.199219 Z M 5.84375 21.199219 L 5.84375 21.359375 L 6.894531 21.359375 L 6.894531 21.199219 Z M 7.402344 21.199219 L 7.402344 21.359375 L 8.453125 21.359375 L 8.453125 21.199219 Z M 8.960938 21.199219 L 8.960938 21.359375 L 10.011719 21.359375 L 10.011719 21.199219 Z M 10.519531 21.199219 L 10.519531 21.359375 L 11.570312 21.359375 L 11.570312 21.199219 Z M 12.078125 21.199219 L 12.078125 21.359375 L 13.132812 21.359375 L 13.132812 21.199219 Z M 13.636719 21.199219 L 13.636719 21.359375 L 14.6875 21.359375 L 14.6875 21.199219 Z M 15.195312 21.199219 L 15.195312 21.359375 L 16.246094 21.359375 L 16.246094 21.199219 Z M 16.753906 21.199219 L 16.753906 21.351562 C 17.007812 21.332031 17.25 21.277344 17.480469 21.199219 Z M 16.753906 21.199219 "/>
<path style=" stroke:none;fill-rule:nonzero;fill:rgb(100%,100%,100%);fill-opacity:1;" d="M 19.382812 3.914062 L 11.539062 0.542969 L 11.539062 1.070312 C 11.539062 2.644531 12.804688 3.914062 14.378906 3.914062 Z M 19.382812 3.914062 "/>
<path style=" stroke:none;fill-rule:nonzero;fill:rgb(100%,100%,100%);fill-opacity:1;" d="M 13.429688 8.410156 C 13.1875 8.410156 12.976562 8.535156 12.863281 8.726562 L 10.472656 8.726562 C 10.472656 8.726562 9.996094 8.71875 9.503906 8.953125 C 9.015625 9.1875 8.5 9.730469 8.5 10.625 C 8.5 11.523438 9.015625 12.0625 9.503906 12.300781 C 9.738281 12.414062 9.964844 12.460938 10.140625 12.488281 L 10.140625 12.628906 L 9.238281 13.5 C 9.210938 13.492188 9.1875 13.480469 9.15625 13.480469 C 8.976562 13.480469 8.828125 13.621094 8.828125 13.796875 C 8.828125 13.96875 8.976562 14.113281 9.15625 14.113281 C 9.335938 14.113281 9.484375 13.96875 9.484375 13.796875 C 9.484375 13.765625 9.472656 13.742188 9.464844 13.71875 L 10.367188 12.847656 L 11.457031 12.847656 L 11.457031 12.527344 L 11.785156 12.527344 C 11.785156 12.527344 12.132812 12.535156 12.464844 12.695312 C 12.796875 12.855469 13.101562 13.109375 13.101562 13.796875 C 13.101562 14.484375 12.796875 14.734375 12.464844 14.894531 C 12.132812 15.054688 11.785156 15.0625 11.785156 15.0625 L 9.394531 15.0625 C 9.28125 14.875 9.070312 14.746094 8.828125 14.746094 C 8.464844 14.746094 8.171875 15.03125 8.171875 15.382812 C 8.171875 15.730469 8.464844 16.015625 8.828125 16.015625 C 9.070312 16.015625 9.28125 15.886719 9.394531 15.699219 L 11.785156 15.699219 C 11.785156 15.699219 12.261719 15.707031 12.75 15.46875 C 13.242188 15.234375 13.757812 14.695312 13.757812 13.796875 C 13.757812 12.898438 13.242188 12.359375 12.75 12.121094 C 12.261719 11.886719 11.785156 11.894531 11.785156 11.894531 L 11.457031 11.894531 L 11.457031 11.796875 L 12.363281 10.925781 C 12.386719 10.929688 12.414062 10.945312 12.445312 10.945312 C 12.625 10.945312 12.773438 10.800781 12.773438 10.625 C 12.773438 10.453125 12.625 10.308594 12.445312 10.308594 C 12.261719 10.308594 12.113281 10.453125 12.113281 10.625 C 12.113281 10.65625 12.128906 10.679688 12.136719 10.707031 L 11.230469 11.578125 L 10.144531 11.578125 L 10.144531 11.84375 C 10.035156 11.820312 9.917969 11.785156 9.792969 11.726562 C 9.460938 11.566406 9.15625 11.3125 9.15625 10.625 C 9.15625 9.941406 9.460938 9.6875 9.792969 9.527344 C 10.125 9.367188 10.472656 9.359375 10.472656 9.359375 L 12.863281 9.359375 C 12.976562 9.546875 13.1875 9.675781 13.429688 9.675781 C 13.792969 9.675781 14.085938 9.390625 14.085938 9.042969 C 14.085938 8.691406 13.792969 8.410156 13.429688 8.410156 Z M 13.429688 8.410156 "/>
</g>
</svg>
