
<svg xmlns="http://www.w3.org/2000/svg" xmlns:xlink="http://www.w3.org/1999/xlink" width="22px" height="22px" viewBox="0 0 22 22" version="1.1">
<defs>
<filter id="alpha" filterUnits="objectBoundingBox" x="0%" y="0%" width="100%" height="100%">
  <feColorMatrix type="matrix" in="SourceGraphic" values="0 0 0 0 1 0 0 0 0 1 0 0 0 0 1 0 0 0 1 0"/>
</filter>
<mask id="mask0">
  <g filter="url(#alpha)">
<rect x="0" y="0" width="22" height="22" style="fill:rgb(0%,0%,0%);fill-opacity:0.682353;stroke:none;"/>
  </g>
</mask>
<clipPath id="clip1">
  <rect x="0" y="0" width="22" height="22"/>
</clipPath>
<g id="surface5" clip-path="url(#clip1)">
<path style=" stroke:none;fill-rule:nonzero;fill:rgb(36.862745%,36.470588%,33.72549%);fill-opacity:1;" d="M 18.785156 4.367188 L 11.386719 1.1875 L 11.386719 1.6875 C 11.386719 3.171875 12.582031 4.367188 14.066406 4.367188 Z M 18.785156 4.367188 "/>
</g>
<mask id="mask1">
  <g filter="url(#alpha)">
<rect x="0" y="0" width="22" height="22" style="fill:rgb(0%,0%,0%);fill-opacity:0.6;stroke:none;"/>
  </g>
</mask>
<clipPath id="clip2">
  <rect x="0" y="0" width="22" height="22"/>
</clipPath>
<g id="surface8" clip-path="url(#clip2)">
<path style=" stroke:none;fill-rule:nonzero;fill:rgb(0%,0%,0%);fill-opacity:1;" d="M 5.699219 5.800781 L 5.699219 10.058594 L 12.617188 10.058594 L 12.617188 5.800781 Z M 5.964844 6.066406 L 12.351562 6.066406 L 12.351562 9.792969 L 5.964844 9.792969 Z M 6.230469 6.335938 L 6.230469 9.527344 L 6.761719 9.527344 L 6.761719 7.085938 L 7.828125 8.148438 L 8.890625 7.085938 L 8.890625 9.527344 L 9.425781 9.527344 L 9.425781 6.335938 L 8.890625 6.335938 L 7.828125 7.398438 L 6.765625 6.335938 Z M 10.753906 6.335938 L 10.753906 8.460938 L 9.957031 8.460938 L 11.019531 9.527344 L 12.085938 8.460938 L 11.285156 8.460938 L 11.285156 6.335938 Z M 10.753906 6.335938 "/>
</g>
</defs>
<g id="surface1">
<path style=" stroke:none;fill-rule:nonzero;fill:rgb(92.54902%,91.372549%,84.705882%);fill-opacity:1;" d="M 5.898438 1.1875 C 4.410156 1.1875 3.214844 2.382812 3.214844 3.871094 L 3.214844 18.128906 C 3.214844 19.617188 4.410156 20.8125 5.898438 20.8125 L 16.101562 20.8125 C 17.589844 20.8125 18.785156 19.617188 18.785156 18.128906 L 18.785156 4.367188 L 11.386719 1.1875 Z M 16.378906 1.203125 C 16.558594 1.21875 16.734375 1.253906 16.902344 1.308594 C 16.734375 1.253906 16.558594 1.21875 16.378906 1.203125 Z M 16.902344 1.308594 C 17.152344 1.386719 17.390625 1.5 17.605469 1.644531 C 17.390625 1.5 17.152344 1.386719 16.902344 1.308594 Z M 17.8125 1.796875 C 17.875 1.851562 17.941406 1.910156 18 1.972656 C 17.941406 1.910156 17.875 1.851562 17.8125 1.796875 Z M 17.8125 1.796875 "/>
<use xlink:href="#surface5" mask="url(#mask0)"/>
<path style=" stroke:none;fill-rule:nonzero;fill:rgb(54.509804%,53.72549%,50.196078%);fill-opacity:1;" d="M 10.640625 11.191406 L 13.367188 11.191406 C 13.492188 11.191406 13.597656 11.300781 13.597656 11.433594 L 13.597656 13.742188 C 13.597656 13.875 13.492188 13.984375 13.367188 13.984375 L 10.640625 13.984375 C 10.511719 13.984375 10.410156 13.875 10.410156 13.742188 L 10.410156 11.433594 C 10.410156 11.300781 10.511719 11.191406 10.640625 11.191406 Z M 10.640625 11.191406 "/>
<path style="fill:none;stroke-width:0.869565;stroke-linecap:round;stroke-linejoin:round;stroke:rgb(0%,0%,0%);stroke-opacity:0.298039;stroke-miterlimit:4;" d="M 31.840909 24.852273 L 36.1875 24.852273 " transform="matrix(0.458333,0,0,0.458333,0,0)"/>
<path style="fill:none;stroke-width:0.869565;stroke-linecap:round;stroke-linejoin:round;stroke:rgb(0%,0%,0%);stroke-opacity:0.298039;stroke-miterlimit:4;" d="M 31.840909 27.46875 L 36.1875 27.46875 " transform="matrix(0.458333,0,0,0.458333,0,0)"/>
<path style="fill:none;stroke-width:0.869565;stroke-linecap:round;stroke-linejoin:round;stroke:rgb(0%,0%,0%);stroke-opacity:0.298039;stroke-miterlimit:4;" d="M 31.840909 30.076705 L 36.1875 30.076705 " transform="matrix(0.458333,0,0,0.458333,0,0)"/>
<path style="fill:none;stroke-width:0.869565;stroke-linecap:round;stroke-linejoin:round;stroke:rgb(0%,0%,0%);stroke-opacity:0.298039;stroke-miterlimit:4;" d="M 22.713068 32.684659 L 36.622159 32.684659 " transform="matrix(0.458333,0,0,0.458333,0,0)"/>
<path style="fill:none;stroke-width:0.869565;stroke-linecap:round;stroke-linejoin:round;stroke:rgb(0%,0%,0%);stroke-opacity:0.298039;stroke-miterlimit:4;" d="M 22.713068 35.292614 L 36.622159 35.292614 " transform="matrix(0.458333,0,0,0.458333,0,0)"/>
<path style="fill:none;stroke-width:0.869565;stroke-linecap:round;stroke-linejoin:round;stroke:rgb(0%,0%,0%);stroke-opacity:0.298039;stroke-miterlimit:4;" d="M 22.713068 37.900568 L 36.622159 37.900568 " transform="matrix(0.458333,0,0,0.458333,0,0)"/>
<path style="fill:none;stroke-width:0.869565;stroke-linecap:round;stroke-linejoin:round;stroke:rgb(0%,0%,0%);stroke-opacity:0.298039;stroke-miterlimit:4;" d="M 22.713068 40.508523 L 36.622159 40.508523 " transform="matrix(0.458333,0,0,0.458333,0,0)"/>
<use xlink:href="#surface8" mask="url(#mask1)"/>
</g>
</svg>
