<svg xmlns="http://www.w3.org/2000/svg" width="24" height="24"><path style="stroke:none;fill-rule:nonzero;fill:#1a1a1a;fill-opacity:1" d="M6.156 22.09H9.43c.035 0 .062.05.062.117v1.418c0 .066-.027.117-.062.117H6.156c-.035 0-.062-.05-.062-.117v-1.418c0-.066.027-.117.062-.117zm8.414 0h3.274c.035 0 .062.05.062.117v1.418c0 .066-.027.117-.062.117H14.57c-.035 0-.062-.05-.062-.117v-1.418c0-.066.027-.117.062-.117zm0 0"/><path style="stroke:none;fill-rule:nonzero;fill:#4d4d4d;fill-opacity:1" d="M5.945.258h12.11c.05 0 .093.047.093.105v22.282c0 .058-.043.105-.093.105H5.945c-.05 0-.093-.047-.093-.105V.363c0-.058.043-.105.093-.105zm0 0"/><path style="stroke:none;fill-rule:nonzero;fill:#b3b3b3;fill-opacity:1" d="M6.594 9.984h1.101c.055 0 .098.047.098.106v11.336c0 .062-.043.11-.098.11H6.594c-.055 0-.098-.048-.098-.11V10.09c0-.059.043-.106.098-.106zm1.941 0h1.106c.05 0 .093.047.093.106v11.336c0 .062-.043.11-.093.11H8.535c-.055 0-.094-.048-.094-.11V10.09c0-.059.04-.106.094-.106zm1.942 0h1.105c.05 0 .094.047.094.106v11.336c0 .062-.043.11-.094.11h-1.105c-.051 0-.094-.048-.094-.11V10.09c0-.059.043-.106.094-.106zm1.941 0h1.105c.051 0 .094.047.094.106v11.336c0 .062-.043.11-.094.11h-1.105c-.05 0-.094-.048-.094-.11V10.09c0-.059.043-.106.094-.106zm1.942 0h1.105c.055 0 .094.047.094.106v11.336c0 .062-.04.11-.094.11h-1.106c-.05 0-.093-.048-.093-.11V10.09c0-.059.043-.106.093-.106zm1.945 0h1.101c.055 0 .098.047.098.106v11.336c0 .062-.043.11-.098.11h-1.101c-.055 0-.098-.048-.098-.11V10.09c0-.059.043-.106.098-.106zm0 0"/><path style="stroke:none;fill-rule:nonzero;fill:red;fill-opacity:1" d="M17.395 1.469a.328.328 0 0 1-.325.332.328.328 0 0 1-.324-.332.324.324 0 1 1 .649 0zm0 0"/><path style="stroke:none;fill-rule:nonzero;fill:green;fill-opacity:1" d="M17.504 2.57a.437.437 0 0 1-.434.442.434.434 0 0 1-.43-.442c0-.242.192-.437.43-.437.239 0 .434.195.434.437zm0 0"/><path style="stroke:none;fill-rule:nonzero;fill:#fff;fill-opacity:1" d="M17.504 3.676a.44.44 0 0 1-.434.441.436.436 0 0 1-.43-.441c0-.246.192-.442.43-.442.239 0 .434.196.434.442zm0 0"/><path style="stroke:none;fill-rule:nonzero;fill:#000;fill-opacity:1" d="M16.063 1.594c0 .02 0 .031-.004.047a.085.085 0 0 1-.02.03.07.07 0 0 1-.027.02c-.012.008-.024.008-.035.008-.016 0-.028 0-.036-.008a.07.07 0 0 1-.027-.02.085.085 0 0 1-.02-.03c-.003-.016-.007-.028-.007-.047a.14.14 0 0 1 .008-.043c.003-.012.007-.024.015-.031.008-.012.02-.016.027-.02.012-.008.024-.008.04-.008.011 0 .023 0 .035.008.011.004.02.008.027.02.008.007.012.02.016.03.008.012.008.028.008.044zm-.141 0c0 .027.004.047.012.058.011.012.023.02.043.02.02 0 .03-.008.039-.02a.113.113 0 0 0 .011-.058.103.103 0 0 0-.011-.055c-.008-.016-.02-.02-.04-.02-.019 0-.035.004-.042.02a.103.103 0 0 0-.012.055zm.324.101v-.129a.078.078 0 0 0-.008-.035c-.008-.008-.015-.011-.031-.011-.008 0-.016 0-.023.003a.07.07 0 0 0-.02.016c-.004.004-.004.012-.008.024v.132h-.035v-.199h.027l.004.027h.004c.004-.007.004-.011.008-.015.008-.004.012-.008.016-.008a.03.03 0 0 1 .015-.008h.02c.02 0 .035.004.047.016.011.012.02.031.02.058v.13zm-.219 2.184c0 .02-.004.035-.007.047-.004.011-.008.023-.016.031-.008.012-.02.016-.027.023-.012.004-.024.004-.04.004-.011 0-.023 0-.035-.004-.007-.007-.02-.011-.027-.023a.146.146 0 0 1-.023-.078c0-.016 0-.027.007-.043a.07.07 0 0 1 .043-.05.116.116 0 0 1 .04-.009c.011 0 .023.004.035.008.007.004.02.012.027.02.008.007.012.02.016.03.003.017.007.028.007.044zm-.14 0c0 .027.004.047.011.058.008.016.024.02.043.02.016 0 .032-.004.04-.02a.113.113 0 0 0 .011-.058.103.103 0 0 0-.012-.055.048.048 0 0 0-.039-.02.052.052 0 0 0-.043.02.103.103 0 0 0-.011.055zm.285-.074h-.043v.175h-.035v-.175h-.035v-.012l.035-.012v-.02c0-.011 0-.023.004-.03a.085.085 0 0 1 .011-.02.021.021 0 0 1 .02-.012c.008-.004.016-.004.027-.004h.02c.004.004.012.004.015.008l-.007.024c-.004 0-.008 0-.016-.004h-.023c-.004.004-.008.004-.012.007 0 .004-.004.008-.004.012v.04h.043zm.128 0h-.046v.175h-.031v-.175h-.04v-.012l.04-.012v-.02c0-.011 0-.023.004-.03 0-.008.003-.016.011-.02.004-.008.012-.012.016-.012.008-.004.02-.004.027-.004h.02c.008.004.012.004.015.008l-.007.024c-.004 0-.008 0-.012-.004h-.027l-.008.007c-.004.004-.004.008-.004.012-.004.004-.004.012-.004.02v.02h.047zm-.585-1.265h.015c.004 0 .008 0 .008.003l-.004.027h-.019c-.008 0-.016 0-.02.004a.069.069 0 0 0-.02.016.03.03 0 0 0-.007.02c-.004.007-.004.015-.004.027v.11h-.035v-.204h.027l.004.039h.004c0-.008.004-.012.008-.016.004-.007.008-.011.012-.015s.007-.004.015-.008c.004-.004.012-.004.016-.004zm.148.206c-.011 0-.027 0-.035-.004a.085.085 0 0 1-.031-.02c-.008-.011-.016-.019-.02-.034-.004-.012-.004-.028-.004-.043 0-.016 0-.032.004-.043.004-.016.012-.024.02-.036.008-.007.015-.015.023-.02.012-.003.024-.007.035-.007.012 0 .024.004.032.008a.07.07 0 0 1 .027.015c.004.008.012.02.016.032 0 .011.004.023.004.035v.02h-.13a.153.153 0 0 0 .016.054c.012.012.024.016.043.016h.016c.008 0 .012-.004.016-.004.007 0 .011-.004.015-.004s.008-.004.016-.008v.031c-.008.004-.012.004-.016.008-.004 0-.008 0-.015.004h-.032zm-.008-.18c-.015 0-.027.004-.035.016-.008.008-.011.023-.011.04h.09c0-.009 0-.017-.004-.02a.03.03 0 0 0-.008-.02 64.74 64.74 0 0 1-.012-.012c-.008 0-.012-.004-.02-.004zm.255.122c0 .011 0 .019-.005.027-.003.008-.011.012-.015.02l-.024.011H16a.142.142 0 0 1-.027-.012v-.03c.004.003.007.003.011.007.008 0 .012.004.016.004a.03.03 0 0 0 .016.004c.007 0 .011.004.02.004.007 0 .01-.004.019-.004.004 0 .008-.004.011-.008a.008.008 0 0 0 .008-.008c.004-.004.004-.008.004-.012 0-.003 0-.007-.004-.011l-.008-.008c0-.004-.003-.004-.011-.008a.085.085 0 0 0-.02-.012.148.148 0 0 1-.027-.011l-.016-.012a.054.054 0 0 1-.012-.016c-.003-.004-.003-.011-.003-.02 0-.007.003-.015.003-.023a.03.03 0 0 1 .016-.015c.004-.008.012-.008.024-.012.007-.004.015-.004.027-.004s.023 0 .031.004a.19.19 0 0 1 .027.012l-.007.027a.19.19 0 0 1-.028-.012c-.008 0-.015-.004-.023-.004-.012 0-.024.004-.027.008-.008.004-.012.008-.012.016 0 .004 0 .008.004.012 0 .003.004.007.008.007l.011.012c.008 0 .016.004.024.008l.023.012c.004.004.012.007.016.011.004.004.008.012.011.016a.035.035 0 0 1 .004.02zm.132.058c-.012 0-.023 0-.035-.004a.085.085 0 0 1-.031-.02.097.097 0 0 1-.016-.034c-.008-.012-.008-.028-.008-.043 0-.016 0-.032.004-.043a.283.283 0 0 1 .02-.036c.008-.007.015-.015.027-.02a.074.074 0 0 1 .031-.007c.012 0 .024.004.036.008a.082.082 0 0 1 .023.015.08.08 0 0 1 .016.032.134.134 0 0 1 .003.035v.02h-.125c0 .023.004.042.016.054.008.012.024.016.04.016h.019c.004 0 .008-.004.015-.004.004 0 .008-.004.012-.004a.03.03 0 0 0 .016-.008v.031c-.004.004-.012.004-.016.008-.004 0-.008 0-.012.004h-.035zm-.008-.18c-.015 0-.023.004-.035.016-.008.008-.012.023-.012.04h.09c0-.009 0-.017-.004-.02a.03.03 0 0 0-.007-.02l-.012-.012c-.004 0-.012-.004-.02-.004zm.196.157h.008c.003-.004.003-.004.007-.004h.008s.004 0 .004-.004v.027s-.004 0-.004.004h-.051l-.015-.012a.07.07 0 0 1-.012-.02c0-.007-.004-.019-.004-.03V2.57h-.027v-.015l.027-.016.016-.043h.02v.047h.05v.027h-.05v.114c0 .011 0 .023.003.027a.021.021 0 0 0 .02.012zm0 0"/><path style="stroke:none;fill-rule:nonzero;fill:#2a7fff;fill-opacity:1" d="M6.496 6.707v2.86c0 .066.043.117.098.117h1.101c.055 0 .098-.051.098-.118V6.707zm1.945 0v2.86c0 .066.04.117.094.117h1.106c.05 0 .093-.051.093-.118V6.707zm1.942 0v2.86c0 .066.043.117.094.117h1.105c.05 0 .094-.051.094-.118V6.707zm1.941 0v2.86c0 .066.043.117.094.117h1.105c.051 0 .094-.051.094-.118V6.707zm1.942 0v2.86c0 .066.043.117.093.117h1.106c.055 0 .094-.051.094-.118V6.707zm1.941 0v2.86c0 .066.043.117.098.117h1.101c.055 0 .098-.051.098-.118V6.707zm0 0"/><path style="stroke:none;fill-rule:nonzero;fill:#fff;fill-opacity:1" d="M6.754 6.871c-.05 0-.094.055-.094.117v.43c0 .062.043.117.094.117h.781c.055 0 .094-.055.094-.117v-.43c0-.062-.04-.117-.094-.117zm1.941 0c-.05 0-.093.055-.093.117v.43c0 .062.043.117.093.117h.782c.054 0 .097-.055.097-.117v-.43c0-.062-.043-.117-.097-.117zm1.942 0c-.051 0-.094.055-.094.117v.43c0 .062.043.117.094.117h.781c.055 0 .098-.055.098-.117v-.43c0-.062-.043-.117-.098-.117zm1.945 0c-.055 0-.098.055-.098.117v.43c0 .062.043.117.098.117h.781c.051 0 .094-.055.094-.117v-.43c0-.062-.043-.117-.094-.117zm1.941 0c-.054 0-.097.055-.097.117v.43c0 .062.043.117.097.117h.782c.05 0 .093-.055.093-.117v-.43c0-.062-.043-.117-.093-.117zm1.942 0c-.055 0-.094.055-.094.117v.43c0 .062.04.117.094.117h.781c.05 0 .094-.055.094-.117v-.43c0-.062-.043-.117-.094-.117zM6.754 8.855c-.05 0-.094.055-.094.118v.43c0 .066.043.117.094.117h.781c.055 0 .094-.051.094-.118v-.43c0-.062-.04-.117-.094-.117zm1.941 0c-.05 0-.093.055-.093.118v.43c0 .066.043.117.093.117h.782c.054 0 .097-.051.097-.118v-.43c0-.062-.043-.117-.097-.117zm1.942 0c-.051 0-.094.055-.094.118v.43c0 .066.043.117.094.117h.781c.055 0 .098-.051.098-.118v-.43c0-.062-.043-.117-.098-.117zm1.945 0c-.055 0-.098.055-.098.118v.43c0 .066.043.117.098.117h.781c.051 0 .094-.051.094-.118v-.43c0-.062-.043-.117-.094-.117zm1.941 0c-.054 0-.097.055-.097.118v.43c0 .066.043.117.097.117h.782c.05 0 .093-.051.093-.118v-.43c0-.062-.043-.117-.093-.117zm1.942 0c-.055 0-.094.055-.094.118v.43c0 .066.04.117.094.117h.781c.05 0 .094-.051.094-.118v-.43c0-.062-.043-.117-.094-.117zm0 0"/><path style="stroke:none;fill-rule:nonzero;fill:#333;fill-opacity:1" d="M6.496 11.836v2.86c0 .062.043.117.098.117h1.101c.055 0 .098-.055.098-.118v-2.86zm1.945 0v2.86c0 .062.04.117.094.117h1.106c.05 0 .093-.055.093-.118v-2.86zm1.942 0v2.86c0 .062.043.117.094.117h1.105c.05 0 .094-.055.094-.118v-2.86zm1.941 0v2.86c0 .062.043.117.094.117h1.105c.051 0 .094-.055.094-.118v-2.86zm1.942 0v2.86c0 .062.043.117.093.117h1.106c.055 0 .094-.055.094-.118v-2.86zm1.941 0v2.86c0 .062.043.117.098.117h1.101c.055 0 .098-.055.098-.118v-2.86zm0 0"/><path style="stroke:none;fill-rule:nonzero;fill:#fff;fill-opacity:1" d="M6.754 12c-.05 0-.094.05-.094.117v.426c0 .066.043.117.094.117h.781c.055 0 .094-.05.094-.117v-.426c0-.066-.04-.117-.094-.117zm1.941 0c-.05 0-.093.05-.093.117v.426c0 .066.043.117.093.117h.782c.054 0 .097-.05.097-.117v-.426c0-.066-.043-.117-.097-.117zm1.942 0c-.051 0-.094.05-.094.117v.426c0 .066.043.117.094.117h.781c.055 0 .098-.05.098-.117v-.426c0-.066-.043-.117-.098-.117zm1.945 0c-.055 0-.098.05-.098.117v.426c0 .066.043.117.098.117h.781c.051 0 .094-.05.094-.117v-.426c0-.066-.043-.117-.094-.117zm1.941 0c-.054 0-.097.05-.097.117v.426c0 .066.043.117.097.117h.782c.05 0 .093-.05.093-.117v-.426c0-.066-.043-.117-.093-.117zm1.942 0c-.055 0-.094.05-.094.117v.426c0 .066.04.117.094.117h.781c.05 0 .094-.05.094-.117v-.426c0-.066-.043-.117-.094-.117zm-9.711 1.984c-.05 0-.094.051-.094.118v.43c0 .062.043.113.094.113h.781c.055 0 .094-.051.094-.114v-.43c0-.066-.04-.117-.094-.117zm1.941 0c-.05 0-.093.051-.093.118v.43c0 .062.043.113.093.113h.782c.054 0 .097-.051.097-.114v-.43c0-.066-.043-.117-.097-.117zm1.942 0c-.051 0-.094.051-.094.118v.43c0 .062.043.113.094.113h.781c.055 0 .098-.051.098-.114v-.43c0-.066-.043-.117-.098-.117zm1.945 0c-.055 0-.098.051-.098.118v.43c0 .062.043.113.098.113h.781c.051 0 .094-.051.094-.114v-.43c0-.066-.043-.117-.094-.117zm1.941 0c-.054 0-.097.051-.097.118v.43c0 .062.043.113.097.113h.782c.05 0 .093-.051.093-.114v-.43c0-.066-.043-.117-.093-.117zm1.942 0c-.055 0-.094.051-.094.118v.43c0 .062.04.113.094.113h.781c.05 0 .094-.051.094-.114v-.43c0-.066-.043-.117-.094-.117zm0 0"/><path style="stroke:none;fill-rule:nonzero;fill:#0f0;fill-opacity:1" d="M9.574 12.992a.162.162 0 1 1-.324 0c0-.09.07-.164.16-.164s.164.074.164.164zm-1.945 0c0 .09-.07.164-.16.164a.165.165 0 0 1-.164-.164.162.162 0 1 1 .324 0zm3.887 0c0 .09-.075.164-.164.164a.162.162 0 0 1-.16-.164c0-.09.07-.164.16-.164s.164.074.164.164zm1.941 0c0 .09-.074.164-.164.164a.164.164 0 0 1 0-.328c.09 0 .164.074.164.164zm1.941 0c0 .09-.074.164-.16.164a.165.165 0 0 1-.164-.164c0-.09.074-.164.164-.164.086 0 .16.074.16.164zm1.942 0c0 .09-.07.164-.16.164a.165.165 0 0 1-.164-.164.162.162 0 1 1 .324 0zM9.574 7.863a.166.166 0 0 1-.164.168.163.163 0 0 1-.16-.168c0-.09.07-.164.16-.164s.164.074.164.164zm-1.945 0c0 .094-.07.168-.16.168a.166.166 0 0 1 0-.332c.09 0 .16.074.16.164zm3.887 0a.166.166 0 0 1-.164.168.163.163 0 0 1-.16-.168c0-.09.07-.164.16-.164s.164.074.164.164zm1.941 0a.166.166 0 0 1-.164.168.165.165 0 0 1-.16-.168c0-.09.074-.164.16-.164.09 0 .164.074.164.164zm1.941 0a.165.165 0 0 1-.16.168.166.166 0 0 1 0-.332c.086 0 .16.074.16.164zm1.942 0c0 .094-.07.168-.16.168a.166.166 0 0 1 0-.332c.09 0 .16.074.16.164zm0 0"/><path style="fill-rule:nonzero;fill:#ccc;fill-opacity:1;stroke-width:1;stroke-linecap:butt;stroke-linejoin:miter;stroke:#3b3434;stroke-opacity:1;stroke-miterlimit:4" d="M133.917 26.667h175.166c1.167 0 2.167 1.25 2.167 2.833v100.083c0 1.667-1 2.917-2.167 2.917H133.917c-1.25 0-2.167-1.25-2.167-2.917V29.5c0-1.583.917-2.833 2.167-2.833zm0 0" transform="scale(.04688)"/><path style="stroke:none;fill-rule:nonzero;fill:#0f0;fill-opacity:1" d="M6.594 1.578h7.578c.05 0 .094.055.094.117v4.067c0 .066-.043.117-.094.117H6.594c-.055 0-.098-.05-.098-.117V1.695c0-.062.043-.117.098-.117zm0 0"/><path style="stroke:none;fill-rule:nonzero;fill:#000;fill-opacity:1" d="M8.293 2.816a.647.647 0 0 1-.145.055.673.673 0 0 1-.152.016.383.383 0 0 1-.285-.106.383.383 0 0 1-.106-.285c0-.121.036-.215.106-.285a.406.406 0 0 1 .293-.102.76.76 0 0 1 .137.012.43.43 0 0 1 .125.043v.156a.527.527 0 0 0-.118-.054.448.448 0 0 0-.12-.016c-.075 0-.13.02-.169.063-.043.042-.062.105-.062.183 0 .082.02.145.058.188.04.043.094.062.165.062.02 0 .035 0 .054-.004a.079.079 0 0 0 .043-.012v-.144h-.113v-.129h.289zm.18-.695h.207l.261.516V2.12h.176v.75H8.91l-.262-.516v.516h-.175zm.843 0h.188v.45c0 .062.008.109.027.136a.12.12 0 0 0 .094.04.123.123 0 0 0 .098-.04c.02-.027.027-.074.027-.137v-.449h.188v.45c0 .109-.028.187-.079.238-.05.054-.129.078-.234.078-.102 0-.18-.024-.23-.078-.051-.051-.079-.13-.079-.239zm.981 0h.105l-.25.848h-.109zm.199-.031h.172v.781h-.172zm.344.219h.172v.562h-.172zm0-.22h.172v.15h-.172zm.887.442v.34h-.172V2.61c0-.046-.004-.082-.004-.101a.285.285 0 0 0-.012-.04.091.091 0 0 0-.027-.027.066.066 0 0 0-.04-.011c-.034 0-.062.015-.085.047-.02.027-.028.066-.028.117v.277h-.175V2.31h.175v.082a.233.233 0 0 1 .082-.07.186.186 0 0 1 .094-.024c.063 0 .11.02.145.058.03.04.047.098.047.176zm.168.121V2.31h.175v.363c.004.02.008.035.012.043.008.012.02.02.027.027.012.008.028.008.043.008.036 0 .063-.012.082-.043a.213.213 0 0 0 .032-.121V2.31h.171v.562h-.171v-.078a.329.329 0 0 1-.082.07.212.212 0 0 1-.098.024c-.063 0-.11-.02-.14-.059a.277.277 0 0 1-.051-.176zm.859-.066-.191-.277h.18l.109.168.113-.168h.183l-.195.273.203.29h-.183l-.121-.177-.118.176h-.183zM8.586 3.613v.137a.705.705 0 0 0-.11-.035.41.41 0 0 0-.093-.012.171.171 0 0 0-.074.012.043.043 0 0 0-.024.039c0 .016.004.027.016.035a.182.182 0 0 0 .066.016l.031.004c.086.011.149.03.176.058.031.028.047.07.047.125 0 .063-.02.106-.062.137a.321.321 0 0 1-.192.047.55.55 0 0 1-.11-.012.623.623 0 0 1-.116-.023v-.137c.035.016.07.027.105.039a.52.52 0 0 0 .11.012.146.146 0 0 0 .078-.016c.015-.008.023-.023.023-.043 0-.016-.004-.027-.016-.035a.17.17 0 0 0-.07-.02l-.031-.003c-.078-.008-.13-.028-.16-.055-.032-.028-.047-.07-.047-.125a.16.16 0 0 1 .058-.133.312.312 0 0 1 .18-.043c.031 0 .066.004.102.008a.84.84 0 0 1 .113.023zm.714.262v.05h-.402c.004.044.02.075.043.098.028.02.063.032.106.032a.606.606 0 0 0 .113-.016.76.76 0 0 0 .117-.055v.141a.749.749 0 0 1-.125.035.412.412 0 0 1-.12.016.319.319 0 0 1-.227-.078.292.292 0 0 1-.082-.22.29.29 0 0 1 .082-.218.299.299 0 0 1 .218-.078c.082 0 .153.027.204.082.05.05.074.121.074.211zm-.175-.059a.129.129 0 0 0-.027-.082c-.02-.023-.047-.03-.078-.03a.106.106 0 0 0-.079.026c-.023.02-.035.047-.039.086zm.723-.066a.22.22 0 0 0-.047-.016c-.016-.004-.028-.007-.043-.007a.12.12 0 0 0-.102.046c-.023.028-.035.07-.035.125v.262h-.176v-.562h.176v.09a.205.205 0 0 1 .074-.079.172.172 0 0 1 .102-.027h.02c.007 0 .015.004.03.004zm.027-.152h.172l.137.386.132-.386h.172l-.21.562h-.192zm.727 0h.171v.562h-.171zm0-.223h.171v.148h-.171zm.882.5v.05h-.402c.004.044.016.075.043.098.023.02.059.032.105.032.036 0 .07-.008.11-.016a.526.526 0 0 0 .117-.055v.141a.708.708 0 0 1-.121.035.448.448 0 0 1-.121.016.329.329 0 0 1-.23-.078.305.305 0 0 1-.079-.22c0-.093.028-.163.078-.218a.305.305 0 0 1 .22-.078.26.26 0 0 1 .202.082c.051.05.078.121.078.211zm-.18-.059c0-.035-.007-.062-.027-.082-.02-.023-.043-.03-.074-.03-.035 0-.062.007-.082.026a.136.136 0 0 0-.039.086zm.723-.066a.19.19 0 0 0-.043-.016.177.177 0 0 0-.046-.007.12.12 0 0 0-.102.046c-.024.028-.035.07-.035.125v.262h-.172v-.562h.172v.09a.24.24 0 0 1 .074-.079.193.193 0 0 1 .105-.027H12c.004 0 .016.004.027.004zm.52-.137v.137a.705.705 0 0 0-.11-.035.41.41 0 0 0-.093-.012.171.171 0 0 0-.074.012.043.043 0 0 0-.024.039c0 .016.004.027.016.035a.182.182 0 0 0 .066.016l.031.004c.086.011.145.03.176.058.031.028.047.07.047.125a.164.164 0 0 1-.062.137.321.321 0 0 1-.192.047.55.55 0 0 1-.11-.012.623.623 0 0 1-.116-.023v-.137c.035.016.07.027.105.039a.52.52 0 0 0 .11.012.146.146 0 0 0 .078-.016c.015-.008.023-.023.023-.043 0-.016-.004-.027-.016-.035a.17.17 0 0 0-.07-.02l-.031-.003c-.078-.008-.13-.028-.16-.055-.032-.028-.047-.07-.047-.125a.16.16 0 0 1 .058-.133.312.312 0 0 1 .18-.043.822.822 0 0 1 .215.031zM8.629 5.035a.202.202 0 0 0-.043-.015c-.016-.004-.031-.004-.047-.004a.13.13 0 0 0-.101.043.21.21 0 0 0-.036.128v.258H8.23v-.562h.172v.094a.192.192 0 0 1 .075-.082.222.222 0 0 1 .105-.028l.016.004c.007 0 .02 0 .03.004zm.09.192v-.344h.176v.054c0 .032 0 .07-.004.118v.09c0 .046.004.082.004.101.003.02.007.031.011.043a.08.08 0 0 0 .028.027.139.139 0 0 0 .039.008c.039 0 .066-.011.086-.043a.213.213 0 0 0 .03-.12v-.278h.173v.562H9.09v-.078a.329.329 0 0 1-.082.07.212.212 0 0 1-.098.024c-.062 0-.11-.02-.14-.059a.277.277 0 0 1-.051-.175zm1.265-.125v.343h-.171v-.261c0-.047-.004-.082-.004-.102a.243.243 0 0 0-.012-.039.091.091 0 0 0-.027-.027.066.066 0 0 0-.04-.012c-.035 0-.062.016-.085.047a.2.2 0 0 0-.032.117v.277h-.172v-.562h.172v.082a.353.353 0 0 1 .082-.074.212.212 0 0 1 .098-.024c.062 0 .11.024.145.063a.28.28 0 0 1 .046.172zm.719 0v.343h-.176v-.261c0-.047 0-.082-.004-.102a.098.098 0 0 0-.007-.039.091.091 0 0 0-.028-.027.079.079 0 0 0-.043-.012.092.092 0 0 0-.082.047.2.2 0 0 0-.031.117v.277h-.172v-.562h.172v.082a.353.353 0 0 1 .082-.074.212.212 0 0 1 .098-.024.17.17 0 0 1 .14.063.267.267 0 0 1 .051.172zm.172-.219h.176v.562h-.176zm0-.219h.176v.145h-.176zm.887.438v.343h-.172v-.261c0-.047 0-.082-.004-.102a.098.098 0 0 0-.008-.039.1.1 0 0 0-.031-.027c-.008-.008-.024-.012-.04-.012a.092.092 0 0 0-.081.047.2.2 0 0 0-.031.117v.277h-.172v-.562h.172v.082c.027-.031.05-.059.082-.074a.2.2 0 0 1 .097-.024c.063 0 .11.024.14.063.032.039.048.097.048.172zm.543.25a.278.278 0 0 1-.078.074.256.256 0 0 1-.098.02.207.207 0 0 1-.164-.079.332.332 0 0 1-.067-.21.33.33 0 0 1 .067-.208.207.207 0 0 1 .164-.078.2.2 0 0 1 .098.024.26.26 0 0 1 .078.07v-.082h.172v.508c0 .09-.028.16-.082.207a.35.35 0 0 1-.235.07c-.035 0-.066 0-.101-.008a.412.412 0 0 1-.094-.023v-.14c.031.019.062.03.09.038a.223.223 0 0 0 .086.016.183.183 0 0 0 .125-.04c.027-.027.039-.066.039-.12zM12.19 5a.097.097 0 0 0-.082.043.195.195 0 0 0-.03.113c0 .055.01.094.026.121.02.024.051.04.086.04a.097.097 0 0 0 .082-.044c.024-.027.032-.066.032-.117 0-.047-.008-.086-.032-.113A.097.097 0 0 0 12.191 5zm0 0"/><path style="stroke:none;fill-rule:nonzero;fill:#333;fill-opacity:1" d="M6.496 15.473v2.859c0 .066.043.117.098.117h1.101c.055 0 .098-.05.098-.117v-2.86zm1.945 0v2.859c0 .066.04.117.094.117h1.106c.05 0 .093-.05.093-.117v-2.86zm1.942 0v2.859c0 .066.043.117.094.117h1.105c.05 0 .094-.05.094-.117v-2.86zm1.941 0v2.859c0 .066.043.117.094.117h1.105c.051 0 .094-.05.094-.117v-2.86zm1.942 0v2.859c0 .066.043.117.093.117h1.106c.055 0 .094-.05.094-.117v-2.86zm1.941 0v2.859c0 .066.043.117.098.117h1.101c.055 0 .098-.05.098-.117v-2.86zm0 0"/><path style="stroke:none;fill-rule:nonzero;fill:#fff;fill-opacity:1" d="M6.754 15.64c-.05 0-.094.051-.094.114v.43c0 .066.043.117.094.117h.781c.055 0 .094-.051.094-.117v-.43c0-.063-.04-.113-.094-.113zm1.941 0c-.05 0-.093.051-.093.114v.43c0 .066.043.117.093.117h.782c.054 0 .097-.051.097-.117v-.43c0-.063-.043-.113-.097-.113zm1.942 0c-.051 0-.094.051-.094.114v.43c0 .066.043.117.094.117h.781c.055 0 .098-.051.098-.117v-.43c0-.063-.043-.113-.098-.113zm1.945 0c-.055 0-.098.051-.098.114v.43c0 .066.043.117.098.117h.781c.051 0 .094-.051.094-.117v-.43c0-.063-.043-.113-.094-.113zm1.941 0c-.054 0-.097.051-.097.114v.43c0 .066.043.117.097.117h.782c.05 0 .093-.051.093-.117v-.43c0-.063-.043-.113-.093-.113zm1.942 0c-.055 0-.094.051-.094.114v.43c0 .066.04.117.094.117h.781c.05 0 .094-.051.094-.117v-.43c0-.063-.043-.113-.094-.113zm-9.711 1.985c-.05 0-.094.05-.094.117v.426c0 .066.043.117.094.117h.781c.055 0 .094-.05.094-.117v-.426c0-.066-.04-.117-.094-.117zm1.941 0c-.05 0-.093.05-.093.117v.426c0 .066.043.117.093.117h.782c.054 0 .097-.05.097-.117v-.426c0-.066-.043-.117-.097-.117zm1.942 0c-.051 0-.094.05-.094.117v.426c0 .066.043.117.094.117h.781c.055 0 .098-.05.098-.117v-.426c0-.066-.043-.117-.098-.117zm1.945 0c-.055 0-.098.05-.098.117v.426c0 .066.043.117.098.117h.781c.051 0 .094-.05.094-.117v-.426c0-.066-.043-.117-.094-.117zm1.941 0c-.054 0-.097.05-.097.117v.426c0 .066.043.117.097.117h.782c.05 0 .093-.05.093-.117v-.426c0-.066-.043-.117-.093-.117zm1.942 0c-.055 0-.094.05-.094.117v.426c0 .066.04.117.094.117h.781c.05 0 .094-.05.094-.117v-.426c0-.066-.043-.117-.094-.117zm0 0"/><path style="stroke:none;fill-rule:nonzero;fill:#0f0;fill-opacity:1" d="M9.574 16.633a.162.162 0 1 1-.324 0c0-.094.07-.168.16-.168s.164.074.164.168zm-1.945 0c0 .09-.07.164-.16.164a.166.166 0 0 1 0-.332c.09 0 .16.074.16.168zm3.887 0c0 .09-.075.164-.164.164a.162.162 0 0 1-.16-.164c0-.094.07-.168.16-.168s.164.074.164.168zm1.941 0c0 .09-.074.164-.164.164a.164.164 0 0 1-.16-.164c0-.094.074-.168.16-.168.09 0 .164.074.164.168zm1.941 0c0 .09-.074.164-.16.164a.166.166 0 0 1 0-.332c.086 0 .16.074.16.168zm1.942 0c0 .09-.07.164-.16.164a.166.166 0 0 1 0-.332c.09 0 .16.074.16.168zm0 0"/><path style="stroke:none;fill-rule:evenodd;fill:#e6e6e6;fill-opacity:1" d="M11.547 11.137h12.32v11.187h-12.32zm0 0"/><path style="fill:none;stroke-width:.3;stroke-linecap:butt;stroke-linejoin:miter;stroke:#b31d1d;stroke-opacity:1;stroke-miterlimit:4" d="m23.082 23.121.88-1.56.856 1.528" transform="matrix(.47928 0 0 .49297 1.562 .809)"/><path style="fill:none;stroke-width:.3;stroke-linecap:butt;stroke-linejoin:miter;stroke:#b31d1d;stroke-opacity:1;stroke-miterlimit:4" d="m24.842 1027.483.88-1.56.848 1.529" transform="matrix(.47928 0 0 .49297 1.562 -494.312)"/><path style="fill:none;stroke-width:.3;stroke-linecap:butt;stroke-linejoin:miter;stroke:#b31d1d;stroke-opacity:1;stroke-miterlimit:4" d="m23.085 23.122.88-1.56.856 1.529" transform="matrix(.47928 0 0 .49297 3.264 .797)"/><path style="fill:none;stroke-width:.3;stroke-linecap:butt;stroke-linejoin:miter;stroke:#b31d1d;stroke-opacity:1;stroke-miterlimit:4" d="m24.845 1027.484.873-1.56.855 1.529" transform="matrix(.47928 0 0 .49297 3.264 -494.324)"/><path style="fill:none;stroke-width:.3;stroke-linecap:butt;stroke-linejoin:miter;stroke:#b31d1d;stroke-opacity:1;stroke-miterlimit:4" d="m23.085 23.124.88-1.569.856 1.537" transform="matrix(.47928 0 0 .49297 4.944 .784)"/><path style="fill:none;stroke-width:.3;stroke-linecap:butt;stroke-linejoin:miter;stroke:#b31d1d;stroke-opacity:1;stroke-miterlimit:4" d="m24.845 1027.486.873-1.569.855 1.538" transform="matrix(.47928 0 0 .49297 4.944 -494.337)"/><path style="fill:none;stroke-width:.3;stroke-linecap:butt;stroke-linejoin:miter;stroke:#b31d1d;stroke-opacity:1;stroke-miterlimit:4" d="m23.088 23.117.872-1.56.856 1.537" transform="matrix(.47928 0 0 .49297 6.645 .772)"/><path style="fill:none;stroke-width:.3;stroke-linecap:butt;stroke-linejoin:miter;stroke:#b31d1d;stroke-opacity:1;stroke-miterlimit:4" d="m24.84 1027.48.88-1.561.856 1.537" transform="matrix(.47928 0 0 .49297 6.645 -494.35)"/><path style="fill:none;stroke-width:.3;stroke-linecap:butt;stroke-linejoin:miter;stroke:#b31d1d;stroke-opacity:1;stroke-miterlimit:4" d="m23.087 23.125.872-1.57.856 1.538" transform="matrix(.47928 0 0 .49297 8.325 .76)"/><path style="fill:none;stroke-width:.3;stroke-linecap:butt;stroke-linejoin:miter;stroke:#b31d1d;stroke-opacity:1;stroke-miterlimit:4" d="m24.84 1027.487.88-1.57.856 1.538" transform="matrix(.47928 0 0 .49297 8.325 -494.36)"/><path style="fill:none;stroke-width:.3;stroke-linecap:butt;stroke-linejoin:miter;stroke:#b31d1d;stroke-opacity:1;stroke-miterlimit:4" d="m23.082 23.118.88-1.561.856 1.537" transform="matrix(.47928 0 0 .49297 10.027 .748)"/><path style="fill:none;stroke-width:.3;stroke-linecap:butt;stroke-linejoin:miter;stroke:#b31d1d;stroke-opacity:1;stroke-miterlimit:4" d="m24.843 1027.48.88-1.56.848 1.536" transform="matrix(.47928 0 0 .49297 10.027 -494.373)"/><path style="fill:none;stroke-width:.3;stroke-linecap:butt;stroke-linejoin:miter;stroke:#b31d1d;stroke-opacity:1;stroke-miterlimit:4" d="m23.088 23.121.87-1.562.862 1.531" transform="matrix(0 -.42626 .5 0 1.138 31.076)"/><path style="fill:none;stroke-width:.3;stroke-linecap:butt;stroke-linejoin:miter;stroke:#b31d1d;stroke-opacity:1;stroke-miterlimit:4" d="m24.839 1027.484.88-1.563.852 1.531" transform="matrix(0 -.42626 .5 0 -501.043 31.076)"/><path style="fill:none;stroke-width:.3;stroke-linecap:butt;stroke-linejoin:miter;stroke:#b31d1d;stroke-opacity:1;stroke-miterlimit:4" d="m23.084 23.123.88-1.562.852 1.53" transform="matrix(0 -.42626 .5 0 1.126 29.563)"/><path style="fill:none;stroke-width:.3;stroke-linecap:butt;stroke-linejoin:miter;stroke:#b31d1d;stroke-opacity:1;stroke-miterlimit:4" d="m24.844 1027.485.88-1.562.852 1.53" transform="matrix(0 -.42626 .5 0 -501.055 29.563)"/><path style="fill:none;stroke-width:.3;stroke-linecap:butt;stroke-linejoin:miter;stroke:#b31d1d;stroke-opacity:1;stroke-miterlimit:4" d="m23.09 23.125.87-1.562.861 1.531" transform="matrix(0 -.42626 .5 0 1.113 28.069)"/><path style="fill:none;stroke-width:.3;stroke-linecap:butt;stroke-linejoin:miter;stroke:#b31d1d;stroke-opacity:1;stroke-miterlimit:4" d="m24.84 1027.487.88-1.562.852 1.531" transform="matrix(0 -.42626 .5 0 -501.068 28.069)"/><path style="fill:none;stroke-width:.3;stroke-linecap:butt;stroke-linejoin:miter;stroke:#b31d1d;stroke-opacity:1;stroke-miterlimit:4" d="m23.085 23.119.88-1.563.852 1.532" transform="matrix(0 -.42626 .5 0 1.1 26.555)"/><path style="fill:none;stroke-width:.3;stroke-linecap:butt;stroke-linejoin:miter;stroke:#b31d1d;stroke-opacity:1;stroke-miterlimit:4" d="m24.845 1027.481.87-1.562.862 1.53" transform="matrix(0 -.42626 .5 0 -501.08 26.555)"/><path style="fill:none;stroke-width:.3;stroke-linecap:butt;stroke-linejoin:miter;stroke:#b31d1d;stroke-opacity:1;stroke-miterlimit:4" d="m23.09 23.119.87-1.563.853 1.531" transform="matrix(0 -.42626 .5 0 1.09 25.061)"/><path style="fill:none;stroke-width:.3;stroke-linecap:butt;stroke-linejoin:miter;stroke:#b31d1d;stroke-opacity:1;stroke-miterlimit:4" d="m24.84 1027.48.88-1.562.852 1.531" transform="matrix(0 -.42626 .5 0 -501.092 25.061)"/><path style="fill:none;stroke-width:.3;stroke-linecap:butt;stroke-linejoin:miter;stroke:#b31d1d;stroke-opacity:1;stroke-miterlimit:4" d="m23.086 23.12.88-1.562.852 1.53" transform="matrix(0 -.42626 .5 0 1.077 23.548)"/><path style="fill:none;stroke-width:.3;stroke-linecap:butt;stroke-linejoin:miter;stroke:#b31d1d;stroke-opacity:1;stroke-miterlimit:4" d="m24.846 1027.482.87-1.562.862 1.531" transform="matrix(0 -.42626 .5 0 -501.104 23.548)"/><path style="fill:none;stroke-width:.3;stroke-linecap:butt;stroke-linejoin:miter;stroke:#b31d1d;stroke-opacity:1;stroke-miterlimit:4" d="m23.082 23.124.88-1.562.856 1.53" transform="matrix(.47928 0 0 -.49297 1.562 32.634)"/><path style="fill:none;stroke-width:.3;stroke-linecap:butt;stroke-linejoin:miter;stroke:#b31d1d;stroke-opacity:1;stroke-miterlimit:4" d="m24.842 1027.486.88-1.561.848 1.529" transform="matrix(.47928 0 0 -.49297 1.562 527.755)"/><path style="fill:none;stroke-width:.3;stroke-linecap:butt;stroke-linejoin:miter;stroke:#b31d1d;stroke-opacity:1;stroke-miterlimit:4" d="m23.085 23.125.88-1.57.856 1.538" transform="matrix(.47928 0 0 -.49297 3.264 32.646)"/><path style="fill:none;stroke-width:.3;stroke-linecap:butt;stroke-linejoin:miter;stroke:#b31d1d;stroke-opacity:1;stroke-miterlimit:4" d="m24.845 1027.487.873-1.569.855 1.537" transform="matrix(.47928 0 0 -.49297 3.264 527.767)"/><path style="fill:none;stroke-width:.3;stroke-linecap:butt;stroke-linejoin:miter;stroke:#b31d1d;stroke-opacity:1;stroke-miterlimit:4" d="m23.085 23.119.88-1.561.856 1.529" transform="matrix(.47928 0 0 -.49297 4.944 32.659)"/><path style="fill:none;stroke-width:.3;stroke-linecap:butt;stroke-linejoin:miter;stroke:#b31d1d;stroke-opacity:1;stroke-miterlimit:4" d="m24.845 1027.48.873-1.56.855 1.53" transform="matrix(.47928 0 0 -.49297 4.944 527.78)"/><path style="fill:none;stroke-width:.3;stroke-linecap:butt;stroke-linejoin:miter;stroke:#b31d1d;stroke-opacity:1;stroke-miterlimit:4" d="m23.088 23.12.872-1.561.856 1.53" transform="matrix(.47928 0 0 -.49297 6.645 32.67)"/><path style="fill:none;stroke-width:.3;stroke-linecap:butt;stroke-linejoin:miter;stroke:#b31d1d;stroke-opacity:1;stroke-miterlimit:4" d="m24.84 1027.482.88-1.56.856 1.528" transform="matrix(.47928 0 0 -.49297 6.645 527.792)"/><path style="fill:none;stroke-width:.3;stroke-linecap:butt;stroke-linejoin:miter;stroke:#b31d1d;stroke-opacity:1;stroke-miterlimit:4" d="m23.087 23.12.872-1.562.856 1.53" transform="matrix(.47928 0 0 -.49297 8.325 32.682)"/><path style="fill:none;stroke-width:.3;stroke-linecap:butt;stroke-linejoin:miter;stroke:#b31d1d;stroke-opacity:1;stroke-miterlimit:4" d="m24.84 1027.481.88-1.56.856 1.529" transform="matrix(.47928 0 0 -.49297 8.325 527.803)"/><path style="fill:none;stroke-width:.3;stroke-linecap:butt;stroke-linejoin:miter;stroke:#b31d1d;stroke-opacity:1;stroke-miterlimit:4" d="m23.082 23.12.88-1.56.856 1.529" transform="matrix(.47928 0 0 -.49297 10.027 32.695)"/><path style="fill:none;stroke-width:.3;stroke-linecap:butt;stroke-linejoin:miter;stroke:#b31d1d;stroke-opacity:1;stroke-miterlimit:4" d="m24.843 1027.483.88-1.561.848 1.529" transform="matrix(.47928 0 0 -.49297 10.027 527.815)"/><path style="fill:none;stroke-width:.3;stroke-linecap:butt;stroke-linejoin:miter;stroke:#b31d1d;stroke-opacity:1;stroke-miterlimit:4" d="m23.09 23.119.874-1.563.857 1.531" transform="matrix(0 -.43335 -.5 0 34.262 31.315)"/><path style="fill:none;stroke-width:.3;stroke-linecap:butt;stroke-linejoin:miter;stroke:#b31d1d;stroke-opacity:1;stroke-miterlimit:4" d="m24.839 1027.48.883-1.562.847 1.532" transform="matrix(0 -.43335 -.5 0 536.444 31.315)"/><path style="fill:none;stroke-width:.3;stroke-linecap:butt;stroke-linejoin:miter;stroke:#b31d1d;stroke-opacity:1;stroke-miterlimit:4" d="m23.082 23.12.883-1.562.848 1.531" transform="matrix(0 -.43335 -.5 0 34.275 29.776)"/><path style="fill:none;stroke-width:.3;stroke-linecap:butt;stroke-linejoin:miter;stroke:#b31d1d;stroke-opacity:1;stroke-miterlimit:4" d="m24.84 1027.482.883-1.562.848 1.531" transform="matrix(0 -.43335 -.5 0 536.456 29.776)"/><path style="fill:none;stroke-width:.3;stroke-linecap:butt;stroke-linejoin:miter;stroke:#b31d1d;stroke-opacity:1;stroke-miterlimit:4" d="m23.084 23.122.883-1.562.848 1.531" transform="matrix(0 -.43335 -.5 0 34.288 28.257)"/><path style="fill:none;stroke-width:.3;stroke-linecap:butt;stroke-linejoin:miter;stroke:#b31d1d;stroke-opacity:1;stroke-miterlimit:4" d="m24.842 1027.485.874-1.563.856 1.531" transform="matrix(0 -.43335 -.5 0 536.469 28.257)"/><path style="fill:none;stroke-width:.3;stroke-linecap:butt;stroke-linejoin:miter;stroke:#b31d1d;stroke-opacity:1;stroke-miterlimit:4" d="m23.085 23.124.874-1.562.857 1.53" transform="matrix(0 -.43335 -.5 0 34.3 26.719)"/><path style="fill:none;stroke-width:.3;stroke-linecap:butt;stroke-linejoin:miter;stroke:#b31d1d;stroke-opacity:1;stroke-miterlimit:4" d="m24.843 1027.486.874-1.562.856 1.53" transform="matrix(0 -.43335 -.5 0 536.481 26.719)"/><path style="fill:none;stroke-width:.3;stroke-linecap:butt;stroke-linejoin:miter;stroke:#b31d1d;stroke-opacity:1;stroke-miterlimit:4" d="m23.086 23.124.875-1.563.856 1.531" transform="matrix(0 -.43335 -.5 0 34.312 25.2)"/><path style="fill:none;stroke-width:.3;stroke-linecap:butt;stroke-linejoin:miter;stroke:#b31d1d;stroke-opacity:1;stroke-miterlimit:4" d="m24.844 1027.486.874-1.563.857 1.532" transform="matrix(0 -.43335 -.5 0 536.493 25.2)"/><path style="fill:none;stroke-width:.3;stroke-linecap:butt;stroke-linejoin:miter;stroke:#b31d1d;stroke-opacity:1;stroke-miterlimit:4" d="m23.087 23.125.875-1.562.856 1.53" transform="matrix(0 -.43335 -.5 0 34.324 23.661)"/><path style="fill:none;stroke-width:.3;stroke-linecap:butt;stroke-linejoin:miter;stroke:#b31d1d;stroke-opacity:1;stroke-miterlimit:4" d="m24.845 1027.487.874-1.562.857 1.531" transform="matrix(0 -.43335 -.5 0 536.505 23.661)"/><path style="stroke:none;fill-rule:nonzero;fill:#1a1a1a;fill-opacity:1" d="M13.46 13.86h5.25v.359h-5.25zm0 1h3.192v.359h-3.191zm0 1h4.528v.359h-4.527zm0 1h5.919v.359H13.46zm0 0"/><path style="stroke:none;fill-rule:evenodd;fill:#3498db;fill-opacity:1" d="M20.273 17.715c-.98 0-1.765.765-1.765 1.703 0 .937.785 1.687 1.765 1.687.98 0 1.782-.75 1.782-1.687 0-.938-.801-1.703-1.782-1.703zm0 .344c.782 0 1.422.613 1.422 1.359s-.64 1.344-1.422 1.344c-.78 0-1.406-.598-1.406-1.344 0-.746.625-1.36 1.406-1.36zm0 0"/></svg>