<svg xmlns="http://www.w3.org/2000/svg" width="24" height="24"><path style="stroke:none;fill-rule:nonzero;fill:#25aedf;fill-opacity:1" d="M4.766 20.29h14.457v1.245H4.766zm0 0"/><path style="stroke:none;fill-rule:nonzero;fill:#25aedf;fill-opacity:1" d="M21.996 3.348H2.004l7.234 18.078 10.063.066zm0 0"/><path style="stroke:none;fill-rule:nonzero;fill:#25aedf;fill-opacity:1" d="m6.281 21.484-1.57.008C5.43 22.516 8.473 23.25 12 23.25c3.543 0 6.594-.738 7.297-1.766zm0 0"/><path style="stroke:none;fill-rule:nonzero;fill:#333;fill-opacity:1" d="M22 3.414C22 1.941 17.523.75 12 .75S2 1.941 2 3.414c0 1.469 4.477 2.66 10 2.66s10-1.191 10-2.66zm0 0"/><path style="stroke:none;fill-rule:nonzero;fill:#25aedf;fill-opacity:1" d="m2.004 3.348.004.027c0-.008.004-.02.004-.027zm19.988 0v.011l.004-.011zm-19.945.304 2.652 17.84 10.063-.066 6.965-17.41a1.885 1.885 0 0 1-.27.254c-.004 0-.004.003-.004.003s-.004 0-.004.004c-.105.082-.226.16-.36.239-.007.004-.01.007-.019.011a5.054 5.054 0 0 1-.437.223c-.012.008-.028.012-.04.02-.155.07-.323.136-.5.203l-.062.023c-.18.063-.367.125-.566.184-.02.008-.043.011-.063.02-.199.058-.41.112-.629.167a.978.978 0 0 0-.101.028c-.211.046-.43.097-.652.14-.051.012-.106.02-.157.031a17.83 17.83 0 0 1-.656.118c-.07.011-.14.023-.21.03a16.47 16.47 0 0 1-.657.095l-.254.03c-.219.028-.438.052-.66.075-.102.008-.203.016-.309.027l-.613.047c-.137.008-.277.02-.418.028-.184.007-.371.02-.555.027l-.426.012c-.203.008-.406.011-.609.015A42.68 42.68 0 0 1 11 6.062c-4.762-.128-8.516-1.136-8.953-2.41zm0 0"/><path style="stroke:none;fill-rule:nonzero;fill:#999;fill-opacity:1" d="M2.055 3.137A.762.762 0 0 0 2 3.414c0 1.469 4.477 2.66 10 2.66s10-1.191 10-2.66a.87.87 0 0 0-.055-.258c-.53 1.356-4.824 2.387-9.945 2.387-5.148 0-9.45-1.043-9.945-2.406zm0 0"/><path style="stroke:none;fill-rule:nonzero;fill:#fff;fill-opacity:1" d="m10.25 9.527-1.258 2.36 2.016 1.207 1.101-1.989.38.692-.352.633h2.05l1.122-2.016-.496.293-.645-1.18zm5.477 3.645-2.016 1.215 1.101 1.996h-.765l-.352-.64-1.027 1.847 1.117 2.027v-.586h1.309l1.754-3.164.168-.3.035-.079zm-8.403.719.492.293-.652 1.18 1.754 3.163.156.301.047.078 2.586-.039v-2.433h-2.21l.382-.692h.707l-1.024-1.851zm0 0"/></svg>