<svg xmlns="http://www.w3.org/2000/svg" width="24" height="24"><path style="fill-rule:nonzero;fill:#ccc;fill-opacity:1;stroke-width:1;stroke-linecap:butt;stroke-linejoin:miter;stroke:#3b3434;stroke-opacity:1;stroke-miterlimit:4" d="M309.917 42.417c-22.75 0-41.5 20.916-45.167 48.583h179.833c-3.75-27.667-22.416-48.583-45.166-48.583zm0 0" transform="scale(.04688)"/><path style="stroke:none;fill-rule:nonzero;fill:#25aedf;fill-opacity:1" d="M3.09 4.629h17.82c1.41 0 2.55 1.144 2.55 2.559v8.976a2.553 2.553 0 0 1-2.55 2.559H3.09a2.553 2.553 0 0 1-2.55-2.559V7.187A2.553 2.553 0 0 1 3.09 4.63zm0 0"/><path style="stroke:none;fill-rule:nonzero;fill:#25aedf;fill-opacity:1" d="M3.09 7.918h17.82c1.41 0 2.55 1.144 2.55 2.559v8.976c0 1.41-1.14 2.559-2.55 2.559H3.09a2.556 2.556 0 0 1-2.55-2.559v-8.976a2.553 2.553 0 0 1 2.55-2.559zm0 0"/><path style="stroke:none;fill-rule:nonzero;fill:#fff;fill-opacity:1" d="M3.277 11.844H4.38v1.629h1.625v-1.63h1.101v4.274H6.004v-1.812H4.379v1.812H3.277zm4.407 0h3.937v.832h-1.418v3.441H9.105v-3.441H7.684zm4.516 0h1.402l.976 2.285.977-2.285h1.398v4.273h-1.039v-3.125l-.984 2.305h-.7l-.984-2.305v3.125H12.2zm5.847 0h1.101v3.441h1.934v.832h-3.035zm0 0"/></svg>