<svg xmlns="http://www.w3.org/2000/svg" width="24" height="24"><path style="fill-rule:nonzero;fill:#ccc;fill-opacity:1;stroke-width:1;stroke-linecap:butt;stroke-linejoin:miter;stroke:#3b3434;stroke-opacity:1;stroke-miterlimit:4" d="M309.917 42.417c-22.75 0-41.5 20.916-45.167 48.583h179.833c-3.75-27.667-22.416-48.583-45.166-48.583zm0 0" transform="scale(.04688)"/><path style="stroke:none;fill-rule:nonzero;fill:#25aedf;fill-opacity:1" d="M3.09 4.629h17.82c1.41 0 2.55 1.144 2.55 2.559v8.976a2.553 2.553 0 0 1-2.55 2.559H3.09a2.553 2.553 0 0 1-2.55-2.559V7.187A2.553 2.553 0 0 1 3.09 4.63zm0 0"/><path style="stroke:none;fill-rule:nonzero;fill:#25aedf;fill-opacity:1" d="M3.09 7.918h17.82c1.41 0 2.55 1.144 2.55 2.559v8.976c0 1.41-1.14 2.559-2.55 2.559H3.09a2.556 2.556 0 0 1-2.55-2.559v-8.976a2.553 2.553 0 0 1 2.55-2.559zm0 0"/><path style="stroke:none;fill-rule:nonzero;fill:#fff;fill-opacity:1" d="M11.625 7.61a5.773 5.773 0 0 0-5.77 5.769 5.776 5.776 0 0 0 5.77 5.773c3.184 0 5.754-2.59 5.754-5.773a5.746 5.746 0 0 0-1.258-3.602c-.121.051-.246.098-.379.164a5.343 5.343 0 0 1 1.238 3.438c0 2.96-2.394 5.36-5.355 5.36-2.96 0-5.371-2.4-5.371-5.36 0-2.961 2.41-5.356 5.371-5.356a5.34 5.34 0 0 1 3.918 1.715c.187-.031.324-.054.488-.074a5.701 5.701 0 0 0-4.406-2.055zm0 0"/><path style="stroke:none;fill-rule:nonzero;fill:#fff;fill-opacity:1" d="M11.559 9c-.118.004-.18.016-.18.016-3.637.324-5.211 4.332-5.211 4.332l.11 1.144c.73-1.805 5.015.524 5.015.524-1.535-1.563-2.555-1.946-2.555-1.946-.656-.375-1.375-.515-1.375-.515.598-1.367 1.239-2 1.239-2l.21 1.304c1.54 1.325 2.997 1.192 2.997 1.192 2.261 1.668 2.511 4.957 2.511 4.957l.903-.485c.379-.89-1.118-3.628-1.118-3.628a6.026 6.026 0 0 1-.578-1.59c.106-.106.727-1.223.727-1.223.539-.863 3.11-1.602 3.11-1.602-1.915-.218-3.29.262-3.29.262-1.293-.707-2.16-.758-2.515-.742zm5.093.594c.157-.012.184-.004 0 .015-.488.055-1.199.364-1.738.692-.539.324-.684.597-.684.5-.003-.508-.43-.528-.43-.528.552-.382 2.384-.644 2.852-.68zm-5.324.183c.043-.011.086 0 .133 0a.645.645 0 1 1-.645.645c0-.313.22-.586.512-.645zm0 0"/><path style="stroke:none;fill-rule:nonzero;fill:#fff;fill-opacity:1" d="M11.625 7.434a5.95 5.95 0 0 0-5.945 5.945 5.948 5.948 0 0 0 5.945 5.945c3.281 0 5.93-2.664 5.93-5.945 0-1.402-.453-2.668-1.27-3.684-.125.051-.281.075-.418.14a5.51 5.51 0 0 1 1.278 3.544c0 3.05-2.47 5.52-5.52 5.52-3.05 0-5.535-2.47-5.535-5.52 0-3.05 2.484-5.52 5.535-5.52 1.602 0 3.027.684 4.035 1.77a7.41 7.41 0 0 1 .504-.078 5.88 5.88 0 0 0-4.539-2.117zm0 0"/></svg>