<svg xmlns="http://www.w3.org/2000/svg" width="24" height="24"><path style="fill-rule:nonzero;fill:#ccc;fill-opacity:1;stroke-width:1;stroke-linecap:butt;stroke-linejoin:miter;stroke:#3b3434;stroke-opacity:1;stroke-miterlimit:4" d="M309.917 42.417c-22.75 0-41.5 20.916-45.167 48.583h179.833c-3.75-27.667-22.416-48.583-45.166-48.583zm0 0" transform="scale(.04688)"/><path style="stroke:none;fill-rule:nonzero;fill:#25aedf;fill-opacity:1" d="M3.09 4.629h17.82c1.41 0 2.55 1.144 2.55 2.559v8.976a2.553 2.553 0 0 1-2.55 2.559H3.09a2.553 2.553 0 0 1-2.55-2.559V7.187A2.553 2.553 0 0 1 3.09 4.63zm0 0"/><path style="stroke:none;fill-rule:nonzero;fill:#25aedf;fill-opacity:1" d="M3.09 7.918h17.82c1.41 0 2.55 1.144 2.55 2.559v8.976c0 1.41-1.14 2.559-2.55 2.559H3.09a2.556 2.556 0 0 1-2.55-2.559v-8.976a2.553 2.553 0 0 1 2.55-2.559zm0 0"/><path style="stroke:none;fill-rule:nonzero;fill:#fff;fill-opacity:1" d="m18.797 13.96-6.262 6.263a.924.924 0 0 1-1.305 0l-1.3-1.301 1.648-1.649a1.1 1.1 0 0 0 1.39-1.398l1.59-1.59a1.099 1.099 0 1 0-.417-1.816 1.105 1.105 0 0 0-.243 1.195l-1.48 1.484v-3.902a1.099 1.099 0 1 0-.902.031v3.938a1.148 1.148 0 0 0-.364.238 1.101 1.101 0 0 0-.234 1.203l-1.625 1.625L5 13.988a.924.924 0 0 1 0-1.304l6.262-6.262a.924.924 0 0 1 1.304 0l6.23 6.234c.36.36.36.946 0 1.305"/></svg>