<svg xmlns="http://www.w3.org/2000/svg" width="24" height="24"><path style="fill-rule:nonzero;fill:#ccc;fill-opacity:1;stroke-width:1;stroke-linecap:butt;stroke-linejoin:miter;stroke:#3b3434;stroke-opacity:1;stroke-miterlimit:4" d="M309.917 42.417c-22.75 0-41.5 20.916-45.167 48.583h179.833c-3.75-27.667-22.416-48.583-45.166-48.583zm0 0" transform="scale(.04688)"/><path style="stroke:none;fill-rule:nonzero;fill:#25aedf;fill-opacity:1" d="M3.09 4.629h17.82c1.41 0 2.55 1.144 2.55 2.559v8.976a2.553 2.553 0 0 1-2.55 2.559H3.09a2.553 2.553 0 0 1-2.55-2.559V7.187A2.553 2.553 0 0 1 3.09 4.63zm0 0"/><path style="stroke:none;fill-rule:nonzero;fill:#25aedf;fill-opacity:1" d="M3.09 7.918h17.82c1.41 0 2.55 1.144 2.55 2.559v8.976c0 1.41-1.14 2.559-2.55 2.559H3.09a2.556 2.556 0 0 1-2.55-2.559v-8.976a2.553 2.553 0 0 1 2.55-2.559zm0 0"/><path style="stroke:none;fill-rule:nonzero;fill:#fff;fill-opacity:1" d="M8.762 7.285c-.465 0-.84.434-.84.969v3.55H7.64c-.465 0-.84.434-.84.97v3.23c0 .535.375.969.84.969h.28v.968c0 .536.376.97.84.97h6.157c.465 0 .84-.434.84-.97v-.968h.281c.465 0 .84-.434.84-.97v-3.23c0-.535-.375-.968-.84-.968h-.281V8.254c0-.535-.375-.969-.84-.969zm.199.617h5.652c.64 0 .64 0 .64.614v3.953H8.415V8.504c0-.602 0-.602.547-.602zm5.398 5.84c.153 0 .278.145.278.324 0 .18-.125.325-.278.325-.156 0-.28-.145-.28-.325 0-.18.124-.324.28-.324zm1.118 0c.156 0 .28.145.28.324 0 .18-.124.325-.28.325-.153 0-.278-.145-.278-.325 0-.18.125-.324.278-.324zm-7.063 2.582h6.84v1.63c0 .331 0 .331-.328.331H8.762c-.348 0-.348 0-.348-.36zm0 0"/></svg>