<svg xmlns="http://www.w3.org/2000/svg" width="24" height="24"><path style="fill-rule:nonzero;fill:#ccc;fill-opacity:1;stroke-width:1;stroke-linecap:butt;stroke-linejoin:miter;stroke:#3b3434;stroke-opacity:1;stroke-miterlimit:4" d="M309.917 42.417c-22.75 0-41.5 20.916-45.167 48.583h179.833c-3.75-27.667-22.416-48.583-45.166-48.583zm0 0" transform="scale(.04688)"/><path style="stroke:none;fill-rule:nonzero;fill:#25aedf;fill-opacity:1" d="M3.09 4.629h17.82c1.41 0 2.55 1.144 2.55 2.559v8.976a2.553 2.553 0 0 1-2.55 2.559H3.09a2.553 2.553 0 0 1-2.55-2.559V7.187A2.553 2.553 0 0 1 3.09 4.63zm0 0"/><path style="stroke:none;fill-rule:nonzero;fill:#25aedf;fill-opacity:1" d="M3.09 7.918h17.82c1.41 0 2.55 1.144 2.55 2.559v8.976c0 1.41-1.14 2.559-2.55 2.559H3.09a2.556 2.556 0 0 1-2.55-2.559v-8.976a2.553 2.553 0 0 1 2.55-2.559zm0 0"/><path style="stroke:none;fill-rule:evenodd;fill:#fff;fill-opacity:1" d="M12.035 8.18a5.06 5.06 0 0 0-3.547 1.468 5.058 5.058 0 0 0-1.468 3.543c0 1.313.539 2.618 1.468 3.543a5.06 5.06 0 0 0 3.547 1.47c1.313 0 2.617-.54 3.547-1.466a5.078 5.078 0 0 0 1.473-3.547 5.062 5.062 0 0 0-1.473-3.543 5.075 5.075 0 0 0-3.547-1.468zm0 1.336c.961 0 1.922.394 2.602 1.078a3.706 3.706 0 0 1 1.078 2.597c0 .965-.395 1.918-1.078 2.602a3.728 3.728 0 0 1-2.602 1.074 3.72 3.72 0 0 1-2.601-1.074 3.732 3.732 0 0 1-1.079-2.602c0-.96.399-1.918 1.079-2.597a3.725 3.725 0 0 1 2.601-1.078zm-.668.668v3.675h3.68v-1.336h-2.34v-2.34zm0 0"/></svg>