<svg xmlns="http://www.w3.org/2000/svg" width="24" height="24"><path style="fill-rule:nonzero;fill:#ccc;fill-opacity:1;stroke-width:1;stroke-linecap:butt;stroke-linejoin:miter;stroke:#3b3434;stroke-opacity:1;stroke-miterlimit:4" d="M309.917 42.417c-22.75 0-41.5 20.916-45.167 48.583h179.833c-3.75-27.667-22.416-48.583-45.166-48.583zm0 0" transform="scale(.04688)"/><path style="stroke:none;fill-rule:nonzero;fill:#25aedf;fill-opacity:1" d="M3.09 4.629h17.82c1.41 0 2.55 1.144 2.55 2.559v8.976a2.553 2.553 0 0 1-2.55 2.559H3.09a2.553 2.553 0 0 1-2.55-2.559V7.187A2.553 2.553 0 0 1 3.09 4.63zm0 0"/><path style="stroke:none;fill-rule:nonzero;fill:#25aedf;fill-opacity:1" d="M3.09 7.918h17.82c1.41 0 2.55 1.144 2.55 2.559v8.976c0 1.41-1.14 2.559-2.55 2.559H3.09a2.556 2.556 0 0 1-2.55-2.559v-8.976a2.553 2.553 0 0 1 2.55-2.559zm0 0"/><path style="stroke:none;fill-rule:evenodd;fill:#fff;fill-opacity:1" d="M8.844 12.707h.488l.324.652-1.136-.007zm0 6.313h.488l.324-.645H8.52zm2.66-4.864.242.434-.281.527-.559-1.015zm-5.078 2.981.242.437.605.051-.57-1.02zm5.32-.004-.238.437-.606.055.563-1.02zM6.68 14.148l-.242.43.273.527.566-1.003zm0 0"/><path style="stroke:none;fill-rule:nonzero;fill:#fff;fill-opacity:1" d="M9.086 13.348c-.637 0-1.266.273-1.715.738a2.584 2.584 0 0 0-.71 1.773c0 .66.26 1.313.71 1.778.45.465 1.078.738 1.715.738s1.266-.273 1.715-.738c.449-.465.71-1.117.71-1.778 0-.656-.261-1.308-.71-1.773a2.413 2.413 0 0 0-1.715-.738zm0 1.007c.383 0 .762.16 1.031.442a1.542 1.542 0 0 1 0 2.129 1.44 1.44 0 0 1-1.031.441 1.44 1.44 0 0 1-1.031-.441 1.57 1.57 0 0 1-.426-1.067c0-.394.16-.785.426-1.062a1.44 1.44 0 0 1 1.03-.442zm0 0"/><path style="stroke:none;fill-rule:evenodd;fill:#fff;fill-opacity:1" d="m13.664 7.113.652.004.434.906-1.52-.011zm0 8.774h.649l.433-.899H13.23zm3.551-6.758.32.601-.375.73-.746-1.405zm-6.781 4.141.328.605.804.07-.757-1.414zm7.101-.008-.32.61-.805.077.746-1.418zm-6.762-4.145-.324.598.367.73.758-1.394zm0 0"/><path style="stroke:none;fill-rule:nonzero;fill:#fff;fill-opacity:1" d="M13.984 8.008c-.847 0-1.687.375-2.289 1.023-.597.645-.945 1.551-.945 2.465 0 .914.348 1.824.945 2.469.602.648 1.442 1.023 2.29 1.023.847 0 1.69-.375 2.292-1.023a3.686 3.686 0 0 0 0-4.938c-.601-.644-1.445-1.02-2.293-1.02zm0 1.394c.512 0 1.016.227 1.375.614a2.21 2.21 0 0 1 0 2.96 1.88 1.88 0 0 1-1.375.614 1.88 1.88 0 0 1-1.37-.613 2.2 2.2 0 0 1-.571-1.48c0-.548.21-1.09.57-1.481.36-.387.864-.614 1.371-.614zm0 0"/></svg>