<svg xmlns="http://www.w3.org/2000/svg" width="24" height="24"><path style="fill-rule:nonzero;fill:#ccc;fill-opacity:1;stroke-width:1;stroke-linecap:butt;stroke-linejoin:miter;stroke:#3b3434;stroke-opacity:1;stroke-miterlimit:4" d="M309.917 42.417c-22.75 0-41.5 20.916-45.167 48.583h179.833c-3.75-27.667-22.416-48.583-45.166-48.583zm0 0" transform="scale(.04688)"/><path style="stroke:none;fill-rule:nonzero;fill:#25aedf;fill-opacity:1" d="M3.09 4.629h17.82c1.41 0 2.55 1.144 2.55 2.559v8.976a2.553 2.553 0 0 1-2.55 2.559H3.09a2.553 2.553 0 0 1-2.55-2.559V7.187A2.553 2.553 0 0 1 3.09 4.63zm0 0"/><path style="stroke:none;fill-rule:nonzero;fill:#25aedf;fill-opacity:1" d="M3.09 7.918h17.82c1.41 0 2.55 1.144 2.55 2.559v8.976c0 1.41-1.14 2.559-2.55 2.559H3.09a2.556 2.556 0 0 1-2.55-2.559v-8.976a2.553 2.553 0 0 1 2.55-2.559zm0 0"/><path style="stroke:none;fill-rule:nonzero;fill:#fff;fill-opacity:1" d="m16.18 8.645-.785.73.183 1.11.969.382.785-.73-.184-1.114zm.195.57c.23.004.43.191.473.445.047.293-.13.574-.399.625a.451.451 0 0 1-.367-.086.557.557 0 0 1-.203-.347c-.047-.293.129-.575.394-.63.036-.003.067-.007.102-.007zm-4.187 2.703 1.457 1.61-2.165 1.808-1.457-1.613zm0 0"/><path style="stroke:none;fill-rule:nonzero;fill:#fff;fill-opacity:1" d="M15.297 9.324a2.812 2.812 0 0 0-2.883.426c-1.129.941-1.262 2.574-.297 3.64.965 1.067 2.664 1.169 3.797.223.824-.687 1.117-1.746.84-2.68l-1.52 1.27-1.457-1.613zm-4.82 3.758c-.157-.125-.38-.105-.665.121l-2.59 2.086-.183.149-.879.726c-.683.563-.746 1.508-.129 2.125.614.617 1.664.66 2.352.098l.887-.719.171-.152 2.422-1.977c.399-.324.235-.578.07-.766l-1.398-1.625c-.02-.023-.035-.046-.058-.066zm-.278 1.3.516.571c.105.117.062.309-.098.442L7.73 17.73c-.16.13-.375.149-.48.028l-.512-.57c-.11-.122-.058-.317.102-.45l2.887-2.336c.16-.129.367-.14.472-.02zm0 0"/></svg>