<svg xmlns="http://www.w3.org/2000/svg" width="24" height="24"><path style="fill-rule:nonzero;fill:#ccc;fill-opacity:1;stroke-width:1;stroke-linecap:butt;stroke-linejoin:miter;stroke:#3b3434;stroke-opacity:1;stroke-miterlimit:4" d="M309.917 42.417c-22.75 0-41.5 20.916-45.167 48.583h179.833c-3.75-27.667-22.416-48.583-45.166-48.583zm0 0" transform="scale(.04688)"/><path style="stroke:none;fill-rule:nonzero;fill:#25aedf;fill-opacity:1" d="M3.09 4.629h17.82c1.41 0 2.55 1.144 2.55 2.559v8.976a2.553 2.553 0 0 1-2.55 2.559H3.09a2.553 2.553 0 0 1-2.55-2.559V7.187A2.553 2.553 0 0 1 3.09 4.63zm0 0"/><path style="stroke:none;fill-rule:nonzero;fill:#25aedf;fill-opacity:1" d="M3.09 7.918h17.82c1.41 0 2.55 1.144 2.55 2.559v8.976c0 1.41-1.14 2.559-2.55 2.559H3.09a2.556 2.556 0 0 1-2.55-2.559v-8.976a2.553 2.553 0 0 1 2.55-2.559zm0 0"/><path style="stroke:none;fill-rule:evenodd;fill:#fff;fill-opacity:1" d="m14.988 7.086.473.426-.582.347-.426-.523-.043.953.844.184 1.324 1.562.742-.394-1.379-1.563.172-.687zm-4.078.367c-.758 0-1.375.504-1.375 1.129 0 .563.512 1.04 1.195 1.113l-1.906.813-.39 4.316 1.101-.015.442-3.704.085 3.372-.609 5.062 1.113-.016.875-4.882 1.145 4.879h1.148l-1.015-5.024-.16-3.55 3.472-1.239-.66-.676-3.082.805-1.203-.137c.684-.074 1.2-.55 1.203-1.117 0-.625-.617-1.129-1.379-1.129zm0 0"/></svg>