<svg xmlns="http://www.w3.org/2000/svg" width="24" height="24"><path style="fill-rule:nonzero;fill:#ccc;fill-opacity:1;stroke-width:1;stroke-linecap:butt;stroke-linejoin:miter;stroke:#3b3434;stroke-opacity:1;stroke-miterlimit:4" d="M309.917 42.417c-22.75 0-41.5 20.916-45.167 48.583h179.833c-3.75-27.667-22.416-48.583-45.166-48.583zm0 0" transform="scale(.04688)"/><path style="stroke:none;fill-rule:nonzero;fill:#25aedf;fill-opacity:1" d="M3.09 4.629h17.82c1.41 0 2.55 1.144 2.55 2.559v8.976a2.553 2.553 0 0 1-2.55 2.559H3.09a2.553 2.553 0 0 1-2.55-2.559V7.187A2.553 2.553 0 0 1 3.09 4.63zm0 0"/><path style="stroke:none;fill-rule:nonzero;fill:#25aedf;fill-opacity:1" d="M3.09 7.918h17.82c1.41 0 2.55 1.144 2.55 2.559v8.976c0 1.41-1.14 2.559-2.55 2.559H3.09a2.556 2.556 0 0 1-2.55-2.559v-8.976a2.553 2.553 0 0 1 2.55-2.559zm0 0"/><path style="stroke:none;fill-rule:nonzero;fill:#fff;fill-opacity:1" d="M15.379 7.883H6.484v9.043h.008l2.125 1.949v.066h8.895V9.902l.004-.004zm-8.356.344h8.016v1.671H8.82zm8.352.035 1.738 1.636h-1.738zm-8.555.14 1.797 1.672v6.508H6.82zm2.153 1.86h6.066v6.32H8.973zm6.402 0h1.781v8.144l-1.781-1.765zm-8.484 6.664h1.726v1.582zm2.082 0h6.312l1.664 1.652H8.973zm0 0"/><path style="stroke:none;fill-rule:nonzero;fill:#fff;fill-opacity:1" d="M10.8 13.02a.664.664 0 1 1-1.326 0 .664.664 0 0 1 1.327 0zm1.993 0a.664.664 0 1 1-1.327 0 .664.664 0 0 1 1.327 0zm1.988 0a.664.664 0 1 1-1.327 0 .664.664 0 0 1 1.327 0zm0 0"/></svg>