<svg xmlns="http://www.w3.org/2000/svg" width="24" height="24"><path style="fill-rule:nonzero;fill:#ccc;fill-opacity:1;stroke-width:1;stroke-linecap:butt;stroke-linejoin:miter;stroke:#3b3434;stroke-opacity:1;stroke-miterlimit:4" d="M309.917 42.417c-22.75 0-41.5 20.916-45.167 48.583h179.833c-3.75-27.667-22.416-48.583-45.166-48.583zm0 0" transform="scale(.04688)"/><path style="stroke:none;fill-rule:nonzero;fill:#25aedf;fill-opacity:1" d="M3.09 4.629h17.82c1.41 0 2.55 1.144 2.55 2.559v8.976a2.553 2.553 0 0 1-2.55 2.559H3.09a2.553 2.553 0 0 1-2.55-2.559V7.187A2.553 2.553 0 0 1 3.09 4.63zm0 0"/><path style="stroke:none;fill-rule:nonzero;fill:#25aedf;fill-opacity:1" d="M3.09 7.918h17.82c1.41 0 2.55 1.144 2.55 2.559v8.976c0 1.41-1.14 2.559-2.55 2.559H3.09a2.556 2.556 0 0 1-2.55-2.559v-8.976a2.553 2.553 0 0 1 2.55-2.559zm0 0"/><path style="stroke:none;fill-rule:nonzero;fill:#fff;fill-opacity:1" d="M16.703 12.406c.016-.148.024-.297.024-.445 0-1.871-1.309-3.395-2.922-3.395-.938 0-1.793.512-2.34 1.356a2.123 2.123 0 0 0-.586-.082c-1.41 0-2.559 1.332-2.559 2.969 0 .039.004.082.004.12-1.058.368-1.828 1.505-1.828 2.848 0 1.637 1.145 2.97 2.559 2.97h6.21c1.614 0 2.926-1.524 2.926-3.395 0-1.235-.586-2.352-1.488-2.946zm-1.437 5.492H9.055c-1.012 0-1.828-.949-1.828-2.12 0-1.173.816-2.122 1.828-2.122.054 0 .105.012.16.02a2.427 2.427 0 0 1-.16-.867c0-1.172.816-2.121 1.824-2.121.332 0 .637.109.902.285.332-.914 1.114-1.559 2.024-1.559 1.21 0 2.191 1.14 2.191 2.547 0 .332-.059.652-.16.945.934.293 1.625 1.274 1.625 2.446 0 1.406-.984 2.546-2.195 2.546zm0 0"/></svg>