<svg xmlns="http://www.w3.org/2000/svg" width="24" height="24"><path style="fill-rule:nonzero;fill:#ccc;fill-opacity:1;stroke-width:1;stroke-linecap:butt;stroke-linejoin:miter;stroke:#3b3434;stroke-opacity:1;stroke-miterlimit:4" d="M309.917 42.417c-22.75 0-41.5 20.916-45.167 48.583h179.833c-3.75-27.667-22.416-48.583-45.166-48.583zm0 0" transform="scale(.04688)"/><path style="stroke:none;fill-rule:nonzero;fill:#25aedf;fill-opacity:1" d="M3.09 4.629h17.82c1.41 0 2.55 1.144 2.55 2.559v8.976a2.553 2.553 0 0 1-2.55 2.559H3.09a2.553 2.553 0 0 1-2.55-2.559V7.187A2.553 2.553 0 0 1 3.09 4.63zm0 0"/><path style="stroke:none;fill-rule:nonzero;fill:#25aedf;fill-opacity:1" d="M3.09 7.918h17.82c1.41 0 2.55 1.144 2.55 2.559v8.976c0 1.41-1.14 2.559-2.55 2.559H3.09a2.556 2.556 0 0 1-2.55-2.559v-8.976a2.553 2.553 0 0 1 2.55-2.559zm0 0"/><path style="stroke:none;fill-rule:nonzero;fill:#fff;fill-opacity:1" d="M16.805 11.102c0 .859-.739 1.554-1.649 1.554s-1.644-.695-1.644-1.554c0-.86.734-1.555 1.644-1.555.91 0 1.649.695 1.649 1.555zm0 0"/><path style="stroke:none;fill-rule:nonzero;fill:#fff;fill-opacity:1" d="M15.18 8.2c-1.653 0-2.992 1.323-2.992 2.964 0 1.637 1.34 2.973 2.992 2.973a2.978 2.978 0 0 0 2.98-2.973A2.97 2.97 0 0 0 15.18 8.2zm0 1c1.093 0 1.972.874 1.972 1.964a1.972 1.972 0 0 1-1.972 1.973 1.983 1.983 0 0 1-1.989-1.973c0-1.09.891-1.965 1.989-1.965zm0 0"/><path style="stroke:none;fill-rule:nonzero;fill:#fff;fill-opacity:1" d="M12.195 11.203 10.301 14l.625.621c.308.16.562.406.722.711l.618.61 2.836-1.883zm-.55 4.969c0 .758-.56 1.367-1.247 1.367s-1.242-.61-1.242-1.367c0-.754.555-1.363 1.242-1.363.688 0 1.247.609 1.247 1.363zm0 0"/><path style="stroke:none;fill-rule:nonzero;fill:#fff;fill-opacity:1" d="M10.145 14c-1.18 0-2.133.95-2.133 2.117 0 1.172.953 2.117 2.133 2.117a2.121 2.121 0 0 0 2.128-2.117A2.124 2.124 0 0 0 10.145 14zm0 .426c.937 0 1.699.758 1.699 1.691 0 .934-.762 1.692-1.7 1.692a1.697 1.697 0 0 1-1.703-1.692c0-.933.762-1.691 1.704-1.691zm0 0"/><path style="stroke:none;fill-rule:nonzero;fill:#fff;fill-opacity:1" d="M6.523 12.871v2.625l3.52 1.824c.016.008.035 0 .039-.02l.746-2.195c.008-.02-.008-.039-.023-.046zm0 0"/></svg>