<svg xmlns="http://www.w3.org/2000/svg" width="24" height="24"><path style="fill-rule:nonzero;fill:#ccc;fill-opacity:1;stroke-width:1;stroke-linecap:butt;stroke-linejoin:miter;stroke:#3b3434;stroke-opacity:1;stroke-miterlimit:4" d="M309.917 42.417c-22.75 0-41.5 20.916-45.167 48.583h179.833c-3.75-27.667-22.416-48.583-45.166-48.583zm0 0" transform="scale(.04688)"/><path style="stroke:none;fill-rule:nonzero;fill:#25aedf;fill-opacity:1" d="M3.09 4.629h17.82c1.41 0 2.55 1.144 2.55 2.559v8.976a2.553 2.553 0 0 1-2.55 2.559H3.09a2.553 2.553 0 0 1-2.55-2.559V7.187A2.553 2.553 0 0 1 3.09 4.63zm0 0"/><path style="stroke:none;fill-rule:nonzero;fill:#25aedf;fill-opacity:1" d="M3.09 7.918h17.82c1.41 0 2.55 1.144 2.55 2.559v8.976c0 1.41-1.14 2.559-2.55 2.559H3.09a2.556 2.556 0 0 1-2.55-2.559v-8.976a2.553 2.553 0 0 1 2.55-2.559zm0 0"/><path style="stroke:none;fill-rule:nonzero;fill:#fff;fill-opacity:1" d="m14.281 18.543-2.785-.555-.258-.054v-3.961l1.645.015c.906.008 2.195.028 2.867.04l1.219.027v2.504c0 2.351-.004 2.5-.078 2.496-.043-.004-1.22-.235-2.61-.512zm-5.504-1.094-1.722-.34-.012-1.59-.012-1.593 1.735.02c.957.011 1.742.027 1.746.03.008.008.008.868 0 1.91l-.012 1.9zm-1.742-5.707c0-.875.004-1.59.012-1.59s.766-.152 1.687-.336c.922-.183 1.7-.336 1.73-.336.048 0 .06.38.06 1.895v1.895l-.907.03a67.43 67.43 0 0 1-1.746.028h-.836zm4.203-.43V9.32l2.79-.547A447.19 447.19 0 0 0 16.89 8.2c.074-.02.078.121.078 2.512v2.531h-1.516c-.832 0-2.121.012-2.863.028l-1.352.03zm0 0"/></svg>