<svg xmlns="http://www.w3.org/2000/svg" width="24" height="24"><path style="fill-rule:nonzero;fill:#ccc;fill-opacity:1;stroke-width:1;stroke-linecap:butt;stroke-linejoin:miter;stroke:#3b3434;stroke-opacity:1;stroke-miterlimit:4" d="M309.917 42.417c-22.75 0-41.5 20.916-45.167 48.583h179.833c-3.75-27.667-22.416-48.583-45.166-48.583zm0 0" transform="scale(.04688)"/><path style="stroke:none;fill-rule:nonzero;fill:#25aedf;fill-opacity:1" d="M3.09 4.629h17.82c1.41 0 2.55 1.144 2.55 2.559v8.976a2.553 2.553 0 0 1-2.55 2.559H3.09a2.553 2.553 0 0 1-2.55-2.559V7.187A2.553 2.553 0 0 1 3.09 4.63zm0 0"/><path style="stroke:none;fill-rule:nonzero;fill:#25aedf;fill-opacity:1" d="M3.09 7.918h17.82c1.41 0 2.55 1.144 2.55 2.559v8.976c0 1.41-1.14 2.559-2.55 2.559H3.09a2.556 2.556 0 0 1-2.55-2.559v-8.976a2.553 2.553 0 0 1 2.55-2.559zm0 0"/><path style="stroke:none;fill-rule:nonzero;fill:#fff;fill-opacity:1" d="M12.207 8.285A5.06 5.06 0 0 0 8.672 9.75a5.06 5.06 0 0 0-1.465 3.535c0 1.309.54 2.61 1.465 3.535a5.06 5.06 0 0 0 3.535 1.465 5.06 5.06 0 0 0 3.535-1.465 5.06 5.06 0 0 0 1.465-3.535 5.06 5.06 0 0 0-1.465-3.535 5.06 5.06 0 0 0-3.535-1.465zm0 1c2.094 0 4 1.906 4 4 0 2.094-1.906 4-4 4-2.094 0-4-1.906-4-4 0-2.094 1.906-4 4-4zm-1 1v2.5h-2l3 3.5 3-3.5h-2v-2.5zm0 0"/></svg>