<svg xmlns="http://www.w3.org/2000/svg" width="24" height="24"><path style="fill-rule:nonzero;fill:#ccc;fill-opacity:1;stroke-width:1;stroke-linecap:butt;stroke-linejoin:miter;stroke:#3b3434;stroke-opacity:1;stroke-miterlimit:4" d="M309.917 42.417c-22.75 0-41.5 20.916-45.167 48.583h179.833c-3.75-27.667-22.416-48.583-45.166-48.583zm0 0" transform="scale(.04688)"/><path style="stroke:none;fill-rule:nonzero;fill:#25aedf;fill-opacity:1" d="M3.09 4.629h17.82c1.41 0 2.55 1.144 2.55 2.559v8.976a2.553 2.553 0 0 1-2.55 2.559H3.09a2.553 2.553 0 0 1-2.55-2.559V7.187A2.553 2.553 0 0 1 3.09 4.63zm0 0"/><path style="stroke:none;fill-rule:nonzero;fill:#25aedf;fill-opacity:1" d="M3.09 7.918h17.82c1.41 0 2.55 1.144 2.55 2.559v8.976c0 1.41-1.14 2.559-2.55 2.559H3.09a2.556 2.556 0 0 1-2.55-2.559v-8.976a2.553 2.553 0 0 1 2.55-2.559zm0 0"/><path style="stroke:none;fill-rule:nonzero;fill:#fff;fill-opacity:1" d="M12.379 9.547c-.66 0-1.2.496-1.2 1.117.005.07.005.152.012.242-.105.055-.117.274-.023.492a.782.782 0 0 0 .133.211l.008.008c.011.059.02.102.03.168.048.133.231.383.395.602.016.164.016.328-.015.515-.262.22-.75.371-1.13.532a1.46 1.46 0 0 1-.347-.207 1.685 1.685 0 0 1-.004-.344c.11-.168.254-.387.29-.496.015-.059.019-.098.03-.145a.674.674 0 0 0 .087-.148c.066-.156.058-.305-.012-.356.008-.07.015-.133.015-.191 0-.461-.402-.84-.898-.84s-.902.379-.902.84c.004.055.004.113.011.18-.078.043-.09.203-.02.367a.537.537 0 0 0 .106.164c.008.047.016.078.024.129.035.097.172.285.293.449.011.125.011.25-.012.39-.348.29-1.238.419-1.238.715l-.121.786c0 .16.238.304.62.402l.052.21a.135.135 0 0 0 .082.09c.02.005.027.02.074.032.242.07.613.121 1.031.121.39 0 .742-.047.984-.11l.063.255a.173.173 0 0 0 .11.117c.023.008.038.027.1.043.325.093.817.16 1.376.16.555 0 1.05-.067 1.375-.16.062-.016.082-.035.101-.043a.16.16 0 0 0 .102-.11l.074-.257c.242.062.59.105.977.105.418 0 .793-.05 1.035-.121.047-.012.058-.027.074-.031a.146.146 0 0 0 .078-.082l.067-.223c.37-.102.605-.242.605-.398l-.121-.786c-.004-.254-.898-.414-1.242-.714a2.022 2.022 0 0 1-.008-.344c.113-.168.254-.387.293-.496.012-.059.016-.098.027-.145a.674.674 0 0 0 .086-.148c.067-.156.059-.305-.008-.356.004-.07.012-.133.016-.191 0-.461-.406-.84-.902-.84s-.899.379-.899.84c0 .055.004.113.008.18-.078.043-.09.203-.02.367a.627.627 0 0 0 .102.16c.004.004.004.004.008.004.008.047.012.078.023.129.032.097.168.285.29.449.011.125.015.25-.008.39a1.72 1.72 0 0 1-.399.215c-.37-.16-.832-.324-1.078-.539a2.52 2.52 0 0 1-.012-.453c.149-.226.344-.515.395-.664.015-.074.023-.129.039-.191a.855.855 0 0 0 .113-.196c.09-.21.082-.41-.008-.48.008-.09.012-.176.016-.254 0-.621-.539-1.117-1.2-1.117zm0 0"/><path style="fill:none;stroke-width:1;stroke-linecap:butt;stroke-linejoin:miter;stroke:#fff;stroke-opacity:1;stroke-miterlimit:4" d="M14.898 15.844h20v20h-20zm0 0" transform="scale(.5)"/></svg>