<svg xmlns="http://www.w3.org/2000/svg" width="24" height="24"><path style="fill-rule:nonzero;fill:#ccc;fill-opacity:1;stroke-width:1;stroke-linecap:butt;stroke-linejoin:miter;stroke:#3b3434;stroke-opacity:1;stroke-miterlimit:4" d="M309.917 42.417c-22.75 0-41.5 20.916-45.167 48.583h179.833c-3.75-27.667-22.416-48.583-45.166-48.583zm0 0" transform="scale(.04688)"/><path style="stroke:none;fill-rule:nonzero;fill:#25aedf;fill-opacity:1" d="M3.09 4.629h17.82c1.41 0 2.55 1.144 2.55 2.559v8.976a2.553 2.553 0 0 1-2.55 2.559H3.09a2.553 2.553 0 0 1-2.55-2.559V7.187A2.553 2.553 0 0 1 3.09 4.63zm0 0"/><path style="stroke:none;fill-rule:nonzero;fill:#25aedf;fill-opacity:1" d="M3.09 7.918h17.82c1.41 0 2.55 1.144 2.55 2.559v8.976c0 1.41-1.14 2.559-2.55 2.559H3.09a2.556 2.556 0 0 1-2.55-2.559v-8.976a2.553 2.553 0 0 1 2.55-2.559zm0 0"/><path style="stroke:none;fill-rule:nonzero;fill:#fff;fill-opacity:1" d="M6.227 15.492h1.152c.156 0 .285.098.285.215v.434c0 .12-.129.218-.285.218H6.227c-.16 0-.29-.097-.29-.218v-.434c0-.117.13-.215.29-.215zm-.145-1.086c-.078 0-.144.047-.144.11v.648c0 .063.066.11.144.11h.29c.077 0 .144-.047.144-.11v-.105h.43c.081 0 .144-.051.144-.11v-.215c0-.062-.063-.109-.145-.109h-.43v-.11c0-.062-.066-.109-.144-.109zm0-1.301c-.078 0-.144.051-.144.11v.652c0 .059.066.106.144.106h.29c.077 0 .144-.047.144-.106v-.11h.43c.081 0 .144-.05.144-.109v-.214c0-.063-.063-.11-.145-.11h-.43v-.11c0-.058-.066-.109-.144-.109zm0-1.296c-.078 0-.144.046-.144.105v.652c0 .059.066.106.144.106h.29c.077 0 .144-.047.144-.106v-.109h.43c.081 0 .144-.047.144-.11v-.214c0-.063-.063-.11-.145-.11h-.43v-.109c0-.059-.066-.105-.144-.105zm0-1.301c-.078 0-.144.047-.144.105v.653c0 .062.066.109.144.109h.29c.077 0 .144-.047.144-.11v-.109h.43c.081 0 .144-.047.144-.11v-.214c0-.059-.063-.11-.145-.11h-.43v-.109c0-.058-.066-.105-.144-.105zm0-1.301c-.078 0-.144.047-.144.11v.648c0 .062.066.11.144.11h.29c.077 0 .144-.048.144-.11v-.11h.43c.081 0 .144-.046.144-.105v-.219c0-.058-.063-.11-.145-.11h-.43v-.105c0-.062-.066-.109-.144-.109zm0-1.301c-.078 0-.144.047-.144.11v.648c0 .063.066.11.144.11h.29c.077 0 .144-.047.144-.11v-.11h.43c.081 0 .144-.046.144-.105V8.23c0-.058-.063-.109-.145-.109h-.43v-.105c0-.063-.066-.11-.144-.11zm1.441 5.852c.075 0 .141.047.141.11v.648c0 .062-.066.109-.14.109h-.29c-.078 0-.144-.047-.144-.11v-.109h-.43c-.082 0-.144-.047-.144-.105v-.219c0-.059.062-.11.144-.11h.43v-.105c0-.062.066-.11.144-.11zm0-1.301c.075 0 .141.047.141.11v.648c0 .062-.066.11-.14.11h-.29c-.078 0-.144-.048-.144-.11v-.11h-.43c-.082 0-.144-.046-.144-.105v-.219c0-.058.062-.11.144-.11h.43v-.105c0-.062.066-.109.144-.109zm0-1.301c.075 0 .141.047.141.11v.648c0 .063-.066.11-.14.11h-.29c-.078 0-.144-.047-.144-.11v-.105h-.43c-.082 0-.144-.051-.144-.11v-.219c0-.058.062-.105.144-.105h.43v-.11c0-.062.066-.109.144-.109zm0-1.301c.075 0 .141.047.141.11v.648c0 .063-.066.11-.14.11h-.29c-.078 0-.144-.047-.144-.11v-.105h-.43c-.082 0-.144-.051-.144-.11v-.218c0-.059.062-.106.144-.106h.43v-.11c0-.062.066-.109.144-.109zm0-1.3c.075 0 .141.047.141.11v.651c0 .059-.066.106-.14.106h-.29c-.078 0-.144-.047-.144-.106v-.109h-.43c-.082 0-.144-.05-.144-.11v-.214c0-.063.062-.11.144-.11h.43v-.109c0-.062.066-.11.144-.11zm0-1.297c.075 0 .141.047.141.105v.653c0 .058-.066.105-.14.105h-.29c-.078 0-.144-.047-.144-.105v-.11h-.43c-.082 0-.144-.047-.144-.11v-.214c0-.062.062-.11.144-.11h.43v-.109c0-.058.066-.105.144-.105zm0 0"/><path style="stroke:none;fill-rule:nonzero;fill:#fff;fill-opacity:1" d="M4.719 4.656v11.918c0 .477.535.867 1.191.867h1.785c.657 0 1.192-.39 1.192-.867V4.656h-.301v11.918c0 .36-.399.653-.89.653H5.91c-.496 0-.894-.293-.894-.653V4.656zm0 0"/><path style="stroke:none;fill-rule:nonzero;fill:#fff;fill-opacity:1" d="M6.2 4.605c-.153 0-.27.098-.27.215v2.15c0 .12.117.218.265.218h1.211c.149 0 .266-.097.266-.218l.004-2.149c0-.117-.117-.215-.266-.215zm.152 1.582h.886v.618h-.886zm0 0"/></svg>