<svg xmlns="http://www.w3.org/2000/svg" width="24" height="24"><path style="fill-rule:nonzero;fill:#ccc;fill-opacity:1;stroke-width:1;stroke-linecap:butt;stroke-linejoin:miter;stroke:#3b3434;stroke-opacity:1;stroke-miterlimit:4" d="M309.917 42.417c-22.75 0-41.5 20.916-45.167 48.583h179.833c-3.75-27.667-22.416-48.583-45.166-48.583zm0 0" transform="scale(.04688)"/><path style="stroke:none;fill-rule:nonzero;fill:#25aedf;fill-opacity:1" d="M3.09 4.629h17.82c1.41 0 2.55 1.144 2.55 2.559v8.976a2.553 2.553 0 0 1-2.55 2.559H3.09a2.553 2.553 0 0 1-2.55-2.559V7.187A2.553 2.553 0 0 1 3.09 4.63zm0 0"/><path style="stroke:none;fill-rule:nonzero;fill:#25aedf;fill-opacity:1" d="M3.09 7.918h17.82c1.41 0 2.55 1.144 2.55 2.559v8.976c0 1.41-1.14 2.559-2.55 2.559H3.09a2.556 2.556 0 0 1-2.55-2.559v-8.976a2.553 2.553 0 0 1 2.55-2.559zm0 0"/><path style="stroke:none;fill-rule:nonzero;fill:#fff;fill-opacity:1" d="M6.398 17.508S8 18.89 9.832 18.363c1.828-.523 1.496-1.02 1.496-1.02s1 .72 1.867.966c.864.25 2.73 0 2.528-1.133-.2-1.133.632 1.078 2.433 1.246l-2.664-1.938s-.633.97-1.3 1.578c-.665.606-2.786-1.707-3.364-.777-.586.945-4.43.223-4.43.223zm3.086-2.27s1.254 1.383 2.688.86c1.437-.528 1.176-1.024 1.176-1.024s.785.719 1.46.965c.68.25 2.141 0 1.985-1.133-.156-1.133.496 1.078 1.906 1.246l-2.09-1.937s-.496.969-1.015 1.578c-.524.605-2.184-1.703-2.637-.773-.46.94-3.473.218-3.473.218zm4.688-4.742a1.41 1.41 0 0 0 .023-.25c0-1.055-1.133-1.914-2.527-1.914-.805 0-1.547.29-2.02.762a3.06 3.06 0 0 0-.503-.043c-1.22 0-2.211.75-2.211 1.672v.07c-.914.203-1.579.848-1.579 1.602 0 .925.989 1.675 2.207 1.675h5.372c1.394 0 2.527-.86 2.527-1.914 0-.695-.508-1.324-1.29-1.66zm-1.238 3.094H7.563c-.872 0-1.579-.535-1.579-1.195s.707-1.196 1.579-1.196c.05 0 .093.008.14.012a.972.972 0 0 1-.14-.488c0-.66.707-1.196 1.582-1.196.285 0 .546.063.777.16.289-.515.96-.874 1.746-.874 1.047 0 1.898.64 1.898 1.433 0 .188-.054.367-.14.531.804.164 1.402.72 1.402 1.38 0 .792-.848 1.433-1.894 1.433zm0 0"/><path style="stroke:none;fill-rule:nonzero;fill:#fff;fill-opacity:1" d="M18.012 8.207a1.18 1.18 0 0 0 .008-.117c0-.485-.52-.875-1.157-.875-.37 0-.71.133-.925.348a1.53 1.53 0 0 0-.231-.02c-.559 0-1.016.344-1.016.766v.03c-.418.095-.722.391-.722.735 0 .426.453.77 1.011.77h2.461c.637 0 1.157-.395 1.157-.88 0-.316-.23-.605-.586-.757zm-.57 1.418H14.98c-.398 0-.722-.246-.722-.55 0-.302.324-.548.722-.548.024 0 .043.004.067.004a.403.403 0 0 1-.067-.222c0-.301.325-.547.727-.547a.87.87 0 0 1 .355.074c.133-.238.442-.402.801-.402.48 0 .867.293.867.656a.548.548 0 0 1-.062.246c.367.074.64.328.64.629 0 .363-.386.66-.867.66zm0 0"/></svg>