<svg xmlns="http://www.w3.org/2000/svg" width="24" height="24"><path style="fill-rule:nonzero;fill:#ccc;fill-opacity:1;stroke-width:1;stroke-linecap:butt;stroke-linejoin:miter;stroke:#3b3434;stroke-opacity:1;stroke-miterlimit:4" d="M309.917 42.417c-22.75 0-41.5 20.916-45.167 48.583h179.833c-3.75-27.667-22.416-48.583-45.166-48.583zm0 0" transform="scale(.04688)"/><path style="stroke:none;fill-rule:nonzero;fill:#25aedf;fill-opacity:1" d="M3.09 4.629h17.82c1.41 0 2.55 1.144 2.55 2.559v8.976a2.553 2.553 0 0 1-2.55 2.559H3.09a2.553 2.553 0 0 1-2.55-2.559V7.187A2.553 2.553 0 0 1 3.09 4.63zm0 0"/><path style="stroke:none;fill-rule:nonzero;fill:#25aedf;fill-opacity:1" d="M3.09 7.918h17.82c1.41 0 2.55 1.144 2.55 2.559v8.976c0 1.41-1.14 2.559-2.55 2.559H3.09a2.556 2.556 0 0 1-2.55-2.559v-8.976a2.553 2.553 0 0 1 2.55-2.559zm0 0"/><path style="stroke:none;fill-rule:evenodd;fill:#fff;fill-opacity:1" d="M17.82 9.375v8.324H6.72V9.375zm-2.937.832H7.828v4.992l2.219-3.328 2.605 3.902 1.559-1.82 2.496 2.914v-4.734a1.387 1.387 0 0 1-2.012-1.238c0-.243.067-.48.188-.688zm-4.567.57 1.043.868s-.086-.036.825-.61l-.739 1.313zm3.094 1.73-.648.903-.422-.754c.523.332.473.348.473.348zm0 0"/></svg>