<svg xmlns="http://www.w3.org/2000/svg" width="24" height="24"><path style="fill-rule:nonzero;fill:#ccc;fill-opacity:1;stroke-width:1;stroke-linecap:butt;stroke-linejoin:miter;stroke:#3b3434;stroke-opacity:1;stroke-miterlimit:4" d="M309.917 42.417c-22.75 0-41.5 20.916-45.167 48.583h179.833c-3.75-27.667-22.416-48.583-45.166-48.583zm0 0" transform="scale(.04688)"/><path style="stroke:none;fill-rule:nonzero;fill:#25aedf;fill-opacity:1" d="M3.09 4.629h17.82c1.41 0 2.55 1.144 2.55 2.559v8.976a2.553 2.553 0 0 1-2.55 2.559H3.09a2.553 2.553 0 0 1-2.55-2.559V7.187A2.553 2.553 0 0 1 3.09 4.63zm0 0"/><path style="stroke:none;fill-rule:nonzero;fill:#25aedf;fill-opacity:1" d="M3.09 7.918h17.82c1.41 0 2.55 1.144 2.55 2.559v8.976c0 1.41-1.14 2.559-2.55 2.559H3.09a2.556 2.556 0 0 1-2.55-2.559v-8.976a2.553 2.553 0 0 1 2.55-2.559zm0 0"/><path style="stroke:none;fill-rule:nonzero;fill:#fff;fill-opacity:1" d="M12 16.434c-.363 0-.688.152-.922.386l.922.926.922-.926a1.302 1.302 0 0 0-.922-.386zm0-2.629a3.921 3.921 0 0 0-2.781 1.16l.922.922a2.635 2.635 0 0 1 3.718 0l.922-.922A3.921 3.921 0 0 0 12 13.805zm0 0"/><path style="stroke:none;fill-rule:nonzero;fill:#fff;fill-opacity:1" d="M12 11.18c-1.813 0-3.45.738-4.637 1.925l.922.926A5.227 5.227 0 0 1 12 12.492c1.45 0 2.766.586 3.715 1.54l.922-.927A6.536 6.536 0 0 0 12 11.18zm0 0"/><path style="stroke:none;fill-rule:nonzero;fill:#fff;fill-opacity:1" d="M12 8.55a9.158 9.158 0 0 0-6.496 2.7l.922.922A7.869 7.869 0 0 1 12 9.863c2.176 0 4.145.883 5.574 2.309l.922-.922A9.158 9.158 0 0 0 12 8.55zm0 0"/></svg>