<svg xmlns="http://www.w3.org/2000/svg" width="24" height="24"><path style="fill-rule:nonzero;fill:#ccc;fill-opacity:1;stroke-width:1;stroke-linecap:butt;stroke-linejoin:miter;stroke:#3b3434;stroke-opacity:1;stroke-miterlimit:4" d="M309.917 42.417c-22.75 0-41.5 20.916-45.167 48.583h179.833c-3.75-27.667-22.416-48.583-45.166-48.583zm0 0" transform="scale(.04688)"/><path style="stroke:none;fill-rule:nonzero;fill:#25aedf;fill-opacity:1" d="M3.09 4.629h17.82c1.41 0 2.55 1.144 2.55 2.559v8.976a2.553 2.553 0 0 1-2.55 2.559H3.09a2.553 2.553 0 0 1-2.55-2.559V7.187A2.553 2.553 0 0 1 3.09 4.63zm0 0"/><path style="stroke:none;fill-rule:nonzero;fill:#25aedf;fill-opacity:1" d="M3.09 7.918h17.82c1.41 0 2.55 1.144 2.55 2.559v8.976c0 1.41-1.14 2.559-2.55 2.559H3.09a2.556 2.556 0 0 1-2.55-2.559v-8.976a2.553 2.553 0 0 1 2.55-2.559zm0 0"/><path style="stroke:none;fill-rule:evenodd;fill:#fff;fill-opacity:1" d="M6.707 8.438v9.265h2.645v-.527h5.296v.527h2.645V8.438h-2.645v.53H9.352v-.53zm.793.796h1.059v1.059H7.5zm7.941 0H16.5v1.059h-1.059zm-6.09.528h5.297v6.62H9.352zM7.5 11.352h1.059v1.058H7.5zm7.941 0H16.5v1.058h-1.059zm-4.5.265v2.645l2.649-1.32zM7.5 13.47h1.059v1.058H7.5zm7.941 0H16.5v1.058h-1.059zM7.5 15.586h1.059v1.059H7.5zm7.941 0H16.5v1.059h-1.059zm0 0"/></svg>