<svg xmlns="http://www.w3.org/2000/svg" width="24" height="24"><path style="fill-rule:nonzero;fill:#ccc;fill-opacity:1;stroke-width:1;stroke-linecap:butt;stroke-linejoin:miter;stroke:#3b3434;stroke-opacity:1;stroke-miterlimit:4" d="M309.917 42.417c-22.75 0-41.5 20.916-45.167 48.583h179.833c-3.75-27.667-22.416-48.583-45.166-48.583zm0 0" transform="scale(.04688)"/><path style="stroke:none;fill-rule:nonzero;fill:#25aedf;fill-opacity:1" d="M3.09 4.629h17.82c1.41 0 2.55 1.144 2.55 2.559v8.976a2.553 2.553 0 0 1-2.55 2.559H3.09a2.553 2.553 0 0 1-2.55-2.559V7.187A2.553 2.553 0 0 1 3.09 4.63zm0 0"/><path style="stroke:none;fill-rule:nonzero;fill:#25aedf;fill-opacity:1" d="M3.09 7.918h17.82c1.41 0 2.55 1.144 2.55 2.559v8.976c0 1.41-1.14 2.559-2.55 2.559H3.09a2.556 2.556 0 0 1-2.55-2.559v-8.976a2.553 2.553 0 0 1 2.55-2.559zm0 0"/><path style="stroke:none;fill-rule:nonzero;fill:#fff;fill-opacity:1" d="M5.113 17.758c-.86-.45-1.386-1.262-1.488-2.301-.172-1.789.895-3.113 2.508-3.113l.836-.004.078-1.125c.047-.649.23-1.363.43-1.688.738-1.18 2.23-1.543 3.28-.793.981.7 1.138 1.332 1.138 4.532 0 2.793-.008 2.867-.489 3.53-.27.376-.754.813-1.078.97-.789.386-4.469.379-5.215-.008zm4.809-.336c.355-.117.844-.457 1.082-.758.406-.504.445-.746.5-3.012.078-3.02-.106-3.867-.98-4.496-1.512-1.094-3.149.324-3.149 2.73v.829l-1.094.09c-.918.078-1.183.195-1.633.726-1.085 1.266-.699 3.242.743 3.824.77.31 3.648.352 4.53.067zm0 0"/><path style="stroke:none;fill-rule:nonzero;fill:#fff;fill-opacity:1" d="M18.629 17.867c.86-.449 1.387-1.265 1.488-2.3.172-1.79-.894-3.114-2.508-3.118h-.836l-.078-1.125c-.047-.648-.23-1.363-.43-1.687-.738-1.184-2.23-1.543-3.28-.793-.977.699-1.137 1.332-1.137 4.531 0 2.79.007 2.867.488 3.531.27.375.754.809 1.078.969.79.387 4.469.379 5.215-.008zm-4.809-.34c-.351-.113-.843-.453-1.082-.754-.402-.503-.445-.746-.5-3.011-.078-3.02.106-3.867.98-4.496 1.512-1.094 3.15.324 3.15 2.726v.828l1.093.094c.918.078 1.184.195 1.633.723 1.086 1.27.699 3.246-.742 3.828-.77.308-3.649.351-4.532.062zm0 0"/></svg>