<svg xmlns="http://www.w3.org/2000/svg" width="24" height="24"><path style="fill-rule:nonzero;fill:#ccc;fill-opacity:1;stroke-width:1;stroke-linecap:butt;stroke-linejoin:miter;stroke:#3b3434;stroke-opacity:1;stroke-miterlimit:4" d="M309.917 42.417c-22.75 0-41.5 20.916-45.167 48.583h179.833c-3.75-27.667-22.416-48.583-45.166-48.583zm0 0" transform="scale(.04688)"/><path style="stroke:none;fill-rule:nonzero;fill:#25aedf;fill-opacity:1" d="M3.09 4.629h17.82c1.41 0 2.55 1.144 2.55 2.559v8.976a2.553 2.553 0 0 1-2.55 2.559H3.09a2.553 2.553 0 0 1-2.55-2.559V7.187A2.553 2.553 0 0 1 3.09 4.63zm0 0"/><path style="stroke:none;fill-rule:nonzero;fill:#25aedf;fill-opacity:1" d="M3.09 7.918h17.82c1.41 0 2.55 1.144 2.55 2.559v8.976c0 1.41-1.14 2.559-2.55 2.559H3.09a2.556 2.556 0 0 1-2.55-2.559v-8.976a2.553 2.553 0 0 1 2.55-2.559zm0 0"/><path style="stroke:none;fill-rule:nonzero;fill:#fff;fill-opacity:1" d="m18.563 12.89-5.958-5.953a.872.872 0 0 0-1.238 0l-1.237 1.24 1.566 1.566a1.044 1.044 0 0 1 1.324 1.328l1.508 1.512a1.047 1.047 0 0 1 1.082 1.727 1.044 1.044 0 0 1-1.707-1.137l-1.41-1.41v3.71a1.044 1.044 0 1 1-1.2 1.676 1.044 1.044 0 0 1 .34-1.707V11.7a1.07 1.07 0 0 1-.339-.23 1.048 1.048 0 0 1-.227-1.14L9.52 8.78l-4.082 4.082a.884.884 0 0 0 0 1.242l5.957 5.954a.877.877 0 0 0 1.242 0l5.925-5.926a.884.884 0 0 0 0-1.242"/></svg>