<svg xmlns="http://www.w3.org/2000/svg" width="24" height="24"><path style="stroke:none;fill-rule:nonzero;fill:#3ecdf6;fill-opacity:1" d="M1.156 2.61a.36.36 0 0 0-.36.363v18.07c0 .2.161.36.36.36h21.688a.36.36 0 0 0 .36-.36V2.973a.36.36 0 0 0-.36-.364zm0 0"/><path style="stroke:none;fill-rule:nonzero;fill:#0055d4;fill-opacity:1" d="M.797 2.684v1.574c0 .289.16.523.36.523h21.687c.199 0 .36-.234.36-.523V2.684zm0 0"/><path style="stroke:none;fill-rule:nonzero;fill:#fff;fill-opacity:1" d="M22.121 3.5a.182.182 0 0 0-.363 0c0 .102.082.18.18.18a.18.18 0 0 0 .183-.18zm-1.086 0a.182.182 0 0 0-.18-.18.18.18 0 0 0-.18.18c0 .102.079.18.18.18a.18.18 0 0 0 .18-.18zm-1.085 0a.18.18 0 0 0-.18-.18.182.182 0 0 0-.18.18c0 .102.082.18.18.18.101 0 .18-.078.18-.18zm0 0"/><path style="stroke:none;fill-rule:nonzero;fill:#a6e7f3;fill-opacity:1" d="M.797 2.957c0-.2.16-.36.36-.36h21.687c.199 0 .36.16.36.36zm0 0"/><path style="stroke:none;fill-rule:nonzero;fill:#fff;fill-opacity:1" d="M1.52 3.5a.182.182 0 0 0-.364 0c0 .102.082.18.184.18a.18.18 0 0 0 .18-.18zm.722 0a.182.182 0 0 0-.363 0c0 .102.082.18.183.18a.18.18 0 0 0 .18-.18zm0 0"/><path style="fill-rule:nonzero;fill:#ccc;fill-opacity:1;stroke-width:1;stroke-linecap:butt;stroke-linejoin:miter;stroke:#3b3434;stroke-opacity:1;stroke-miterlimit:4" d="M97.417 127.083c-2.917 0-5.334 2.667-5.834 6.25h23.167c-.5-3.583-2.833-6.25-5.833-6.25zm0 0" transform="scale(.04688)"/><path style="stroke:none;fill-rule:nonzero;fill:#25aedf;fill-opacity:1" d="M3.094 6.297h2.293c.183 0 .332.144.332.328v1.152a.33.33 0 0 1-.332.328H3.094a.33.33 0 0 1-.328-.328V6.625c0-.184.148-.328.328-.328zm0 0"/><path style="stroke:none;fill-rule:nonzero;fill:#25aedf;fill-opacity:1" d="M3.094 6.719h2.293c.183 0 .332.144.332.328v1.152a.33.33 0 0 1-.332.328H3.094a.33.33 0 0 1-.328-.328V7.047c0-.184.148-.328.328-.328zm0 0"/><path style="fill-rule:nonzero;fill:#ccc;fill-opacity:1;stroke-width:1;stroke-linecap:butt;stroke-linejoin:miter;stroke:#3b3434;stroke-opacity:1;stroke-miterlimit:4" d="M97.417 204.417c-2.917 0-5.334 2.666-5.834 6.25h23.167c-.5-3.584-2.833-6.25-5.833-6.25zm0 0" transform="scale(.04688)"/><path style="stroke:none;fill-rule:nonzero;fill:#25aedf;fill-opacity:1" d="M3.094 9.922h2.293c.183 0 .332.144.332.328v1.152a.33.33 0 0 1-.332.328H3.094a.33.33 0 0 1-.328-.328V10.25c0-.184.148-.328.328-.328zm0 0"/><path style="stroke:none;fill-rule:nonzero;fill:#25aedf;fill-opacity:1" d="M3.094 10.344h2.293c.183 0 .332.144.332.328v1.152a.33.33 0 0 1-.332.328H3.094a.33.33 0 0 1-.328-.328v-1.152c0-.184.148-.328.328-.328zm0 0"/></svg>