<svg xmlns="http://www.w3.org/2000/svg" width="24" height="24"><path style="stroke:none;fill-rule:nonzero;fill:#fff;fill-opacity:1" d="M23.57 12c0 6.234-4.937 11.344-11.164 11.563C6.176 23.78.895 19.026.457 12.809.02 6.594 4.586 1.149 10.785.492c6.2-.652 11.8 3.719 12.672 9.89"/><path style="stroke:none;fill-rule:evenodd;fill:#35c770;fill-opacity:1" d="M12.012 4.277c-.043 0-.082 0-.125.004-1.305.102-2.035 1.688-1.489 3.434-.664-1.121-1.535-1.98-2.628-1.973-.09 0-.176.008-.27.02-1.313.176-1.496 1.82-.121 2.59.297.164.59.367.875.59-.477-.266-.961-.434-1.434-.434-.32 0-.633.078-.93.25-.949.555-.624 1.84.587 2.097a1.77 1.77 0 0 0-.864.5c-.765.813-.015 1.989 1.293 1.766.121-.023.246-.039.371-.05-.312.14-.562.363-.722.687-.383.793.465 1.504 1.398 1.02.727-.376 1.676-.551 2.488-.641l.133.074-.14.078v.004l.207.344-.207.343.14.079-.14.082.207.343-.207.344v.004l.14.078-.14.078v.004l.207.34-.207.344v.004l.14.078-.14.078v.004l.207.344-.207.343.14.082-.14.078.207.344-.207.344v.004l.14.078-.14.078v.004l.207.344-.207.34v.004l.14.078-.14.082.207.343-.032.051h2.746l-.03-.05.206-.344h-.004l-.14-.082.14-.078c.004 0 .004 0 .004-.004l-.207-.34.207-.344c0-.004 0-.004-.004-.004l-.14-.078.14-.078.004-.004-.207-.344.207-.343h-.004l-.14-.079.14-.082h.004l-.207-.343.207-.344-.004-.004-.14-.078.14-.078c.004 0 .004 0 .004-.004l-.207-.344.207-.34c0-.004 0-.004-.004-.004l-.14-.078.14-.078.004-.004-.207-.344.207-.343h-.004l-.14-.082.14-.079h.004l-.207-.343.207-.344-.004-.004-.14-.078.14-.078c.82.086 1.782.265 2.52.644.933.485 1.781-.226 1.398-1.02a1.438 1.438 0 0 0-.722-.687c.125.012.25.028.37.051 1.31.223 2.06-.953 1.294-1.766a1.77 1.77 0 0 0-.864-.5c1.211-.257 1.536-1.543.586-2.097-.734-.43-1.562-.266-2.363.183a6.74 6.74 0 0 1 .875-.59c1.375-.769 1.192-2.414-.121-2.59-1.3-.175-2.3.86-3.035 2.188.629-2.117-.235-3.664-1.453-3.672zm0 0"/><path style="stroke:none;fill-rule:evenodd;fill:#3ac5e6;fill-opacity:1" d="M7.844 1.95a10.843 10.843 0 0 0 3.113 20.812v-2.09a8.772 8.772 0 0 1-7.73-8.703 8.78 8.78 0 0 1 4.617-7.715zm8.312.007V4.25a8.769 8.769 0 0 1 4.617 7.719 8.775 8.775 0 0 1-7.73 8.699v2.102a10.85 10.85 0 0 0 9.809-10.801 10.848 10.848 0 0 0-6.696-10.012zm0 0"/></svg>