<svg xmlns="http://www.w3.org/2000/svg" width="24" height="24"><path style="fill-rule:nonzero;fill:#fff;fill-opacity:1;stroke-width:2.611469;stroke-linecap:butt;stroke-linejoin:miter;stroke:#999;stroke-opacity:1;stroke-miterlimit:4" d="M7.836 1006.972h32.328a5.231 5.231 0 0 1 5.227 5.226v32.328a5.231 5.231 0 0 1-5.227 5.227H7.836a5.231 5.231 0 0 1-5.227-5.227v-32.328a5.231 5.231 0 0 1 5.227-5.226zm0 0" transform="matrix(.5 0 0 .5 0 -502.181)"/><path style="stroke:none;fill-rule:nonzero;fill:#999;fill-opacity:1" d="M16.637 9.54c0-3.313-2.098-5.997-4.688-5.997-2.586 0-4.683 2.684-4.683 5.996 0 3.309 2.097 5.996 4.683 5.996 2.59 0 4.688-2.687 4.688-5.996zm0 0"/><path style="stroke:none;fill-rule:nonzero;fill:#999;fill-opacity:1" d="M16.059 14.871c-.825 1.918-2.399 3.113-4.11 3.113-1.707-.004-3.277-1.195-4.097-3.109-3.649 1.27-6.067 4.113-6.215 7.309h20.625c-.149-3.192-2.563-6.036-6.203-7.313zm0 0"/></svg>