<?xml version="1.0" encoding="UTF-8"?>
<svg xmlns="http://www.w3.org/2000/svg" xmlns:xlink="http://www.w3.org/1999/xlink" width="16px" height="16px" viewBox="0 0 16 16" version="1.1">
<g id="surface1">
<path style=" stroke:none;fill-rule:nonzero;fill:rgb(40.000001%,40.000001%,40.000001%);fill-opacity:1;" d="M 12.914062 9.96875 C 11.996094 12.070312 10.4375 13.339844 8.765625 13.339844 C 7.207031 13.339844 5.738281 12.234375 4.800781 10.363281 C 5.542969 13.230469 7.378906 15.121094 9.429688 15.121094 C 11.574219 15.117188 13.476562 13.039062 14.144531 9.96875 Z M 12.914062 9.96875 "/>
<path style=" stroke:none;fill-rule:evenodd;fill:rgb(40.000001%,40.000001%,40.000001%);fill-opacity:1;" d="M 11.074219 10.324219 L 15.46875 11.269531 L 14.433594 5.414062 Z M 11.074219 10.324219 "/>
<path style=" stroke:none;fill-rule:nonzero;fill:rgb(97.647059%,97.647059%,97.647059%);fill-opacity:1;" d="M 12.457031 9.511719 C 11.539062 11.613281 9.980469 12.882812 8.308594 12.882812 C 6.75 12.882812 5.28125 11.777344 4.34375 9.90625 C 5.085938 12.773438 6.921875 14.664062 8.972656 14.664062 C 11.117188 14.660156 13.019531 12.582031 13.6875 9.511719 Z M 12.457031 9.511719 "/>
<path style=" stroke:none;fill-rule:evenodd;fill:rgb(97.647059%,97.647059%,97.647059%);fill-opacity:1;" d="M 10.617188 9.867188 L 15.011719 10.8125 L 13.976562 4.957031 Z M 10.617188 9.867188 "/>
</g>
</svg>
