<svg xmlns="http://www.w3.org/2000/svg" width="22" height="22"><path style="stroke:none;fill-rule:nonzero;fill:#1a1a1a;fill-opacity:1" d="M5.64 20.25h3.005c.03 0 .054.047.054.105v1.301c0 .059-.023.11-.054.11H5.64c-.032 0-.055-.051-.055-.11v-1.3c0-.06.023-.106.055-.106zm7.715 0h3.004c.032 0 .055.047.055.105v1.301c0 .059-.023.11-.055.11h-3.004c-.03 0-.054-.051-.054-.11v-1.3c0-.06.023-.106.054-.106zm0 0"/><path style="stroke:none;fill-rule:nonzero;fill:#4d4d4d;fill-opacity:1" d="M5.45.234h11.1c.048 0 .087.047.087.098v20.426c0 .055-.04.097-.086.097H5.449c-.047 0-.086-.043-.086-.097V.332c0-.05.04-.098.086-.098zm0 0"/><path style="stroke:none;fill-rule:nonzero;fill:#b3b3b3;fill-opacity:1" d="M6.043 9.152h1.012c.05 0 .09.043.09.098v10.39c0 .055-.04.102-.09.102H6.043c-.047 0-.086-.047-.086-.101V9.25c0-.055.04-.098.086-.098zm1.781 0h1.012c.047 0 .086.043.086.098v10.39c0 .055-.04.102-.086.102H7.824c-.05 0-.09-.047-.09-.101V9.25c0-.055.04-.098.09-.098zm1.778 0h1.015c.047 0 .086.043.086.098v10.39c0 .055-.039.102-.086.102H9.602c-.047 0-.086-.047-.086-.101V9.25c0-.055.039-.098.086-.098zm1.781 0h1.015c.047 0 .086.043.086.098v10.39c0 .055-.039.102-.086.102h-1.015c-.047 0-.086-.047-.086-.101V9.25c0-.055.039-.098.086-.098zm1.781 0h1.012c.05 0 .09.043.09.098v10.39c0 .055-.04.102-.09.102h-1.012c-.047 0-.086-.047-.086-.101V9.25c0-.055.04-.098.086-.098zm1.781 0h1.012c.047 0 .086.043.086.098v10.39c0 .055-.04.102-.086.102h-1.012c-.05 0-.09-.047-.09-.101V9.25c0-.055.04-.098.09-.098zm0 0"/><path style="stroke:none;fill-rule:nonzero;fill:red;fill-opacity:1" d="M15.945 1.348a.298.298 0 1 1-.594 0c0-.168.133-.305.297-.305a.3.3 0 0 1 .297.305zm0 0"/><path style="stroke:none;fill-rule:nonzero;fill:green;fill-opacity:1" d="M16.043 2.36a.398.398 0 0 1-.395.402.398.398 0 0 1-.394-.403c0-.226.176-.406.394-.406.22 0 .395.18.395.406zm0 0"/><path style="stroke:none;fill-rule:nonzero;fill:#fff;fill-opacity:1" d="M16.043 3.367a.399.399 0 0 1-.395.406.399.399 0 0 1-.394-.406c0-.222.176-.402.394-.402.22 0 .395.18.395.402zm0 0"/><path style="stroke:none;fill-rule:nonzero;fill:#000;fill-opacity:1" d="M14.723 1.46c0 .017 0 .032-.004.044a.063.063 0 0 1-.016.027.045.045 0 0 1-.027.02.074.074 0 0 1-.031.008.074.074 0 0 1-.032-.008.045.045 0 0 1-.027-.02.063.063 0 0 1-.016-.027.14.14 0 0 1-.008-.043c0-.016.004-.027.008-.04.004-.01.008-.023.016-.03a.082.082 0 0 1 .023-.016c.012-.008.024-.008.036-.008.011 0 .023 0 .03.008.012.004.02.008.028.016.008.007.012.02.016.03a.12.12 0 0 1 .004.04zm-.13 0c0 .024.005.044.012.056.008.011.024.015.04.015.015 0 .03-.004.035-.015a.103.103 0 0 0 .011-.055.089.089 0 0 0-.011-.05.041.041 0 0 0-.035-.02.048.048 0 0 0-.04.02.089.089 0 0 0-.011.05zm.302.095v-.117c0-.016-.004-.028-.012-.036-.004-.007-.012-.011-.028-.011a.03.03 0 0 0-.02.007c-.007 0-.01.004-.015.012a.03.03 0 0 0-.008.02c-.003.008-.003.02-.003.03v.095h-.032V1.37h.028l.004.024.011-.012c.004-.004.008-.008.012-.008.004-.004.008-.004.016-.008h.015c.02 0 .035.004.043.016.012.012.02.027.02.05v.122zm-.204 2.004c0 .015-.004.027-.004.039a.085.085 0 0 1-.019.03c-.004.009-.016.017-.023.02a.108.108 0 0 1-.036.004c-.011 0-.02 0-.03-.004a.043.043 0 0 1-.024-.02.085.085 0 0 1-.02-.03c-.004-.012-.004-.024-.004-.04 0-.015 0-.03.004-.042.004-.012.012-.02.016-.028.008-.008.015-.015.027-.02.012-.003.02-.007.035-.007.008 0 .02.004.032.008a.099.099 0 0 1 .023.02.063.063 0 0 1 .016.027.14.14 0 0 1 .007.043zm-.129 0c0 .023.004.039.012.05.008.012.02.02.035.02.02 0 .032-.008.04-.02a.089.089 0 0 0 .011-.05.103.103 0 0 0-.012-.055c-.007-.012-.02-.016-.039-.016-.015 0-.027.004-.035.016a.103.103 0 0 0-.011.055zm.262-.071h-.039v.16h-.031v-.16h-.035v-.011l.035-.012v-.016c0-.011 0-.023.004-.031 0-.008.004-.012.008-.02.007-.003.011-.007.02-.007.007-.004.015-.004.023-.004.007 0 .011 0 .02.004a.03.03 0 0 1 .015.004l-.012.023c0-.004-.004-.004-.008-.004h-.027s-.004.004-.008.004c0 .004-.004.008-.004.012v.035h.04zm.117 0h-.043v.16h-.027v-.16h-.035v-.011l.035-.012v-.047l.012-.02a.03.03 0 0 1 .02-.007c.003-.004.015-.004.023-.004s.011 0 .015.004c.008 0 .012 0 .016.004l-.008.023c-.004-.004-.008-.004-.011-.004h-.024c-.004 0-.004.004-.008.004-.004.004-.004.008-.004.012s-.004.011-.004.02v.015h.043zm-.535-1.16h.024l-.004.031c-.004-.004-.008-.004-.012-.004h-.008c-.008 0-.015 0-.02.004-.007.004-.011.008-.015.012l-.012.02v.125h-.03v-.184h.023l.003.031.012-.011c.004-.004.004-.008.008-.012a.03.03 0 0 1 .016-.008c.004-.004.011-.004.015-.004zm.134.192a.074.074 0 0 1-.032-.008.063.063 0 0 1-.028-.016c-.007-.008-.011-.02-.015-.031a.118.118 0 0 1-.008-.04.14.14 0 0 1 .008-.042.063.063 0 0 1 .015-.028c.004-.011.012-.015.024-.02.008-.007.02-.007.031-.007.012 0 .02 0 .027.004a.04.04 0 0 1 .024.02.069.069 0 0 1 .016.023.108.108 0 0 1 .003.035v.02h-.117c0 .02.008.039.016.047.008.011.02.015.039.015h.016c.004 0 .007 0 .011-.004.004 0 .008 0 .012-.004.008 0 .012-.004.016-.004v.028c-.004 0-.008.004-.016.004-.004 0-.008.004-.012.004s-.008.004-.011.004h-.02zm-.005-.168c-.015 0-.023.007-.031.015s-.012.02-.016.035h.086c0-.004-.004-.011-.004-.02a.03.03 0 0 0-.008-.015 64.74 64.74 0 0 0-.011-.012l-.016-.003zm.231.113c0 .008 0 .015-.004.023a.03.03 0 0 1-.016.016c-.004.008-.012.008-.02.012-.007.004-.019.004-.027.004-.015 0-.023 0-.035-.004a.03.03 0 0 1-.02-.008V2.48s.004.004.008.004a.03.03 0 0 0 .016.004c.004.004.008.004.016.004h.031a.018.018 0 0 0 .012-.004l.007-.008c.004-.003.004-.007.004-.011 0-.004 0-.008-.004-.012 0 0-.004-.004-.004-.008-.003-.004-.007-.004-.011-.008-.008-.003-.012-.007-.02-.011-.008 0-.015-.004-.023-.008a.054.054 0 0 1-.016-.012.054.054 0 0 1-.012-.015c0-.004-.003-.012-.003-.02s.003-.012.003-.02a.03.03 0 0 1 .016-.015.03.03 0 0 1 .02-.008c.007-.004.015-.004.027-.004.008 0 .02 0 .027.004.012 0 .02.004.028.008l-.012.023a.056.056 0 0 1-.024-.008c-.007 0-.015-.003-.023-.003-.012 0-.02.003-.023.007-.008.004-.008.008-.008.016v.012c.004 0 .004.004.008.008.004 0 .007.003.011.007.008 0 .012.004.02.008l.023.012a.03.03 0 0 1 .016.008c.004.007.008.011.008.015.004.004.004.012.004.02zm.124.055c-.011 0-.023-.004-.035-.008a.063.063 0 0 1-.027-.016.07.07 0 0 1-.015-.031.116.116 0 0 1-.008-.04.14.14 0 0 1 .008-.042.063.063 0 0 1 .015-.028.052.052 0 0 1 .024-.02c.007-.007.02-.007.03-.007.013 0 .02 0 .028.004a.04.04 0 0 1 .024.02c.007.007.011.015.015.023a.105.105 0 0 1 .004.035v.02h-.117c.004.02.008.039.016.047.007.011.02.015.039.015h.015c.004 0 .008 0 .012-.004.008 0 .012 0 .016-.004.004 0 .007-.004.011-.004v.028c-.004 0-.008.004-.011.004-.004 0-.008.004-.016.004-.004 0-.008.004-.012.004h-.015zm-.007-.168a.037.037 0 0 0-.031.015c-.008.008-.012.02-.012.035h.082c0-.004 0-.011-.004-.02a.03.03 0 0 0-.008-.015c0-.004-.008-.008-.012-.012l-.015-.003zm.18.14h.019s.004 0 .004-.004v.024c0 .004-.004.004-.004.004h-.008c-.004.004-.008.004-.008.004h-.011c-.004 0-.012 0-.02-.004-.004 0-.008-.004-.015-.008-.004-.004-.004-.012-.008-.02s-.004-.015-.004-.027v-.106h-.028V2.34l.028-.012.012-.039h.02v.043h.046v.023h-.047v.106c0 .012 0 .02.004.023.004.008.012.008.02.008zm0 0"/><path style="stroke:none;fill-rule:nonzero;fill:#2a7fff;fill-opacity:1" d="M5.957 6.148V8.77c0 .058.04.109.086.109h1.012c.05 0 .09-.05.09-.11V6.15zm1.777 0V8.77c0 .058.04.109.09.109h1.012c.047 0 .086-.05.086-.11V6.15zm1.782 0V8.77c0 .058.039.109.086.109h1.015c.047 0 .086-.05.086-.11V6.15zm1.78 0V8.77c0 .058.04.109.087.109h1.015c.047 0 .086-.05.086-.11V6.15zm1.782 0V8.77c0 .058.04.109.086.109h1.012c.05 0 .09-.05.09-.11V6.15zm1.777 0V8.77c0 .058.04.109.09.109h1.012c.047 0 .086-.05.086-.11V6.15zm0 0"/><path style="stroke:none;fill-rule:nonzero;fill:#fff;fill-opacity:1" d="M6.191 6.3c-.046 0-.086.048-.086.106v.395c0 .058.04.105.086.105h.715c.051 0 .09-.047.09-.105v-.395c0-.058-.039-.105-.09-.105zm1.782 0c-.051 0-.09.048-.09.106v.395c0 .058.039.105.09.105h.715c.046 0 .085-.047.085-.105v-.395c0-.058-.039-.105-.085-.105zm1.777 0c-.047 0-.086.048-.086.106v.395c0 .058.04.105.086.105h.719c.047 0 .086-.047.086-.105v-.395c0-.058-.04-.105-.086-.105zm1.781 0c-.047 0-.086.048-.086.106v.395c0 .058.04.105.086.105h.719c.047 0 .086-.047.086-.105v-.395c0-.058-.04-.105-.086-.105zm1.781 0c-.046 0-.085.048-.085.106v.395c0 .058.039.105.085.105h.715c.051 0 .09-.047.09-.105v-.395c0-.058-.039-.105-.09-.105zm1.782 0c-.051 0-.09.048-.09.106v.395c0 .058.039.105.09.105h.715c.046 0 .086-.047.086-.105v-.395c0-.058-.04-.105-.086-.105zM6.191 8.121c-.046 0-.086.047-.086.106v.39c0 .063.04.11.086.11h.715c.051 0 .09-.047.09-.11v-.39c0-.059-.039-.106-.09-.106zm1.782 0c-.051 0-.09.047-.09.106v.39c0 .063.039.11.09.11h.715c.046 0 .085-.047.085-.11v-.39c0-.059-.039-.106-.085-.106zm1.777 0c-.047 0-.086.047-.086.106v.39c0 .063.04.11.086.11h.719c.047 0 .086-.047.086-.11v-.39c0-.059-.04-.106-.086-.106zm1.781 0c-.047 0-.086.047-.086.106v.39c0 .063.04.11.086.11h.719c.047 0 .086-.047.086-.11v-.39c0-.059-.04-.106-.086-.106zm1.781 0c-.046 0-.085.047-.085.106v.39c0 .063.039.11.085.11h.715c.051 0 .09-.047.09-.11v-.39c0-.059-.039-.106-.09-.106zm1.782 0c-.051 0-.09.047-.09.106v.39c0 .063.039.11.09.11h.715c.046 0 .086-.047.086-.11v-.39c0-.059-.04-.106-.086-.106zm0 0"/><path style="stroke:none;fill-rule:nonzero;fill:#333;fill-opacity:1" d="M5.957 10.848v2.62c0 .063.04.11.086.11h1.012c.05 0 .09-.047.09-.11v-2.62zm1.777 0v2.62c0 .063.04.11.09.11h1.012c.047 0 .086-.047.086-.11v-2.62zm1.782 0v2.62c0 .063.039.11.086.11h1.015c.047 0 .086-.047.086-.11v-2.62zm1.78 0v2.62c0 .063.04.11.087.11h1.015c.047 0 .086-.047.086-.11v-2.62zm1.782 0v2.62c0 .063.04.11.086.11h1.012c.05 0 .09-.047.09-.11v-2.62zm1.777 0v2.62c0 .063.04.11.09.11h1.012c.047 0 .086-.047.086-.11v-2.62zm0 0"/><path style="stroke:none;fill-rule:nonzero;fill:#fff;fill-opacity:1" d="M6.191 11c-.046 0-.086.047-.086.105v.395c0 .059.04.105.086.105h.715c.051 0 .09-.046.09-.105v-.395c0-.058-.039-.105-.09-.105zm1.782 0c-.051 0-.09.047-.09.105v.395c0 .059.039.105.09.105h.715c.046 0 .085-.046.085-.105v-.395c0-.058-.039-.105-.085-.105zm1.777 0c-.047 0-.086.047-.086.105v.395c0 .059.04.105.086.105h.719c.047 0 .086-.046.086-.105v-.395c0-.058-.04-.105-.086-.105zm1.781 0c-.047 0-.086.047-.086.105v.395c0 .059.04.105.086.105h.719c.047 0 .086-.046.086-.105v-.395c0-.058-.04-.105-.086-.105zm1.781 0c-.046 0-.085.047-.085.105v.395c0 .059.039.105.085.105h.715c.051 0 .09-.046.09-.105v-.395c0-.058-.039-.105-.09-.105zm1.782 0c-.051 0-.09.047-.09.105v.395c0 .059.039.105.09.105h.715c.046 0 .086-.046.086-.105v-.395c0-.058-.04-.105-.086-.105zm-8.903 1.82c-.046 0-.086.047-.086.106v.394c0 .059.04.106.086.106h.715c.051 0 .09-.047.09-.106v-.394c0-.059-.039-.106-.09-.106zm1.782 0c-.051 0-.09.047-.09.106v.394c0 .059.039.106.09.106h.715c.046 0 .085-.047.085-.106v-.394c0-.059-.039-.106-.085-.106zm1.777 0c-.047 0-.086.047-.086.106v.394c0 .059.04.106.086.106h.719c.047 0 .086-.047.086-.106v-.394c0-.059-.04-.106-.086-.106zm1.781 0c-.047 0-.086.047-.086.106v.394c0 .059.04.106.086.106h.719c.047 0 .086-.047.086-.106v-.394c0-.059-.04-.106-.086-.106zm1.781 0c-.046 0-.085.047-.085.106v.394c0 .059.039.106.085.106h.715c.051 0 .09-.047.09-.106v-.394c0-.059-.039-.106-.09-.106zm1.782 0c-.051 0-.09.047-.09.106v.394c0 .059.039.106.09.106h.715c.046 0 .086-.047.086-.106v-.394c0-.059-.04-.106-.086-.106zm0 0"/><path style="stroke:none;fill-rule:nonzero;fill:#0f0;fill-opacity:1" d="M8.773 11.91a.152.152 0 0 1-.148.152.152.152 0 0 1-.148-.152.15.15 0 0 1 .148-.152.15.15 0 0 1 .148.152zm-1.777 0a.152.152 0 0 1-.148.152.152.152 0 0 1-.149-.152.15.15 0 0 1 .149-.152.15.15 0 0 1 .148.152zm3.559 0a.152.152 0 0 1-.149.152.152.152 0 0 1-.148-.152.15.15 0 0 1 .148-.152.15.15 0 0 1 .149.152zm1.781 0a.152.152 0 0 1-.149.152.152.152 0 0 1-.148-.152.15.15 0 0 1 .149-.152.15.15 0 0 1 .148.152zm1.781 0a.152.152 0 0 1-.148.152.152.152 0 0 1-.149-.152.15.15 0 0 1 .149-.152.15.15 0 0 1 .148.152zm1.778 0a.152.152 0 0 1-.149.152.152.152 0 0 1-.148-.152.15.15 0 0 1 .148-.152.15.15 0 0 1 .149.152zm-7.122-4.7a.148.148 0 1 1-.296 0 .15.15 0 0 1 .148-.151.15.15 0 0 1 .148.152zm-1.777 0a.148.148 0 1 1-.297 0 .15.15 0 0 1 .149-.151.15.15 0 0 1 .148.152zm3.559 0a.148.148 0 1 1-.297 0 .15.15 0 0 1 .148-.151.15.15 0 0 1 .149.152zm1.781 0a.148.148 0 1 1-.297 0 .15.15 0 0 1 .149-.151.15.15 0 0 1 .148.152zm1.781 0a.148.148 0 1 1-.297 0 .15.15 0 0 1 .149-.151.15.15 0 0 1 .148.152zm1.778 0a.148.148 0 1 1-.297 0 .15.15 0 0 1 .148-.151.15.15 0 0 1 .149.152zm0 0"/><path style="fill-rule:nonzero;fill:#ccc;fill-opacity:1;stroke-width:1;stroke-linecap:butt;stroke-linejoin:miter;stroke:#3b3434;stroke-opacity:1;stroke-miterlimit:4" d="M133.91 26.636H309c1.273 0 2.273 1.273 2.273 2.91v100.09c0 1.546-1 2.91-2.273 2.91H133.91c-1.183 0-2.183-1.364-2.183-2.91V29.546c0-1.637 1-2.91 2.182-2.91zm0 0" transform="rotate(.428) scale(.04297)"/><path style="stroke:none;fill-rule:nonzero;fill:#0f0;fill-opacity:1" d="M6.043 1.45h6.945c.051 0 .09.046.09.105V5.28c0 .063-.039.11-.09.11H6.043c-.047 0-.086-.047-.086-.11V1.555c0-.059.04-.106.086-.106zm0 0"/><path style="stroke:none;fill-rule:nonzero;fill:#000;fill-opacity:1" d="M7.602 2.582a.415.415 0 0 1-.133.047.532.532 0 0 1-.14.02.35.35 0 0 1-.259-.098.345.345 0 0 1-.097-.262c0-.11.03-.2.097-.262a.371.371 0 0 1 .27-.093c.043 0 .082.004.125.011a.39.39 0 0 1 .113.04v.14c-.039-.02-.074-.04-.11-.047a.37.37 0 0 0-.109-.015c-.066 0-.12.019-.156.058-.039.04-.055.094-.055.168 0 .074.016.129.051.168.035.043.086.063.153.063.015 0 .03-.004.046-.004a.64.64 0 0 0 .043-.012V2.37h-.105v-.12h.266zm.168-.637h.187l.238.473v-.473h.16v.688h-.187L7.93 2.16v.473h-.16zm.77 0h.17v.414c0 .055.009.098.028.121.016.024.047.036.086.036.04 0 .07-.012.086-.036.02-.023.027-.066.027-.12v-.415h.172v.414c0 .098-.023.168-.07.215-.047.051-.121.074-.215.074-.097 0-.168-.023-.215-.074-.046-.047-.07-.117-.07-.215zm.898 0h.097l-.23.778h-.098zm.183-.031h.156v.719h-.156zm.317.203h.156v.516h-.156zm0-.203h.156v.137h-.156zm.812.406v.313h-.16V2.39c0-.043 0-.075-.004-.09a.098.098 0 0 0-.008-.04c-.008-.007-.015-.019-.023-.023-.012-.008-.024-.008-.04-.008a.091.091 0 0 0-.078.04.215.215 0 0 0-.027.109v.254h-.156v-.516h.156v.074a.284.284 0 0 1 .074-.066.178.178 0 0 1 .09-.02c.059 0 .102.016.133.055.027.035.043.09.043.16zm.156.114v-.317h.156v.242c0 .04 0 .07.004.09 0 .016.004.031.012.04a.037.037 0 0 0 .024.023.063.063 0 0 0 .035.011c.035 0 .058-.015.078-.043.02-.023.027-.062.027-.109v-.254h.16v.516h-.16v-.074a.234.234 0 0 1-.074.066.167.167 0 0 1-.086.023.159.159 0 0 1-.133-.058c-.031-.035-.043-.09-.043-.156zm.785-.067-.175-.25h.164l.101.153.102-.153h.168l-.176.25.184.266h-.164l-.114-.164-.11.164h-.167zm-3.82.946v.124a.352.352 0 0 0-.098-.03.379.379 0 0 0-.09-.012c-.03 0-.054.003-.066.011-.015.008-.023.02-.023.035 0 .012.008.024.015.032a.157.157 0 0 0 .063.015l.027.004c.078.012.133.028.16.055.028.023.043.062.043.113 0 .055-.02.098-.058.125a.301.301 0 0 1-.172.043c-.035 0-.067-.004-.102-.008a1.49 1.49 0 0 1-.11-.027v-.125a.49.49 0 0 0 .2.047.163.163 0 0 0 .07-.012.043.043 0 0 0 .024-.039.05.05 0 0 0-.016-.035.312.312 0 0 0-.066-.016l-.027-.004a.298.298 0 0 1-.149-.05c-.027-.024-.039-.063-.039-.114 0-.054.016-.093.05-.12.036-.028.095-.04.165-.04.031 0 .062 0 .094.004.03.008.066.012.105.023zm.656.242v.047h-.37a.12.12 0 0 0 .042.086c.02.019.055.027.094.027a.306.306 0 0 0 .102-.016.37.37 0 0 0 .109-.047v.13a.63.63 0 0 1-.227.046.28.28 0 0 1-.207-.074c-.05-.047-.074-.113-.074-.2 0-.085.024-.152.074-.199a.275.275 0 0 1 .2-.07c.078 0 .14.024.187.07.047.051.07.118.07.2zM8.363 3.5a.124.124 0 0 0-.023-.078.094.094 0 0 0-.07-.027.097.097 0 0 0-.075.027c-.02.015-.03.043-.035.078zm.664-.062a.19.19 0 0 0-.043-.016c-.011-.004-.027-.004-.039-.004-.043 0-.074.012-.093.039a.175.175 0 0 0-.036.117v.239H8.66v-.516h.156v.082a.202.202 0 0 1 .07-.07.186.186 0 0 1 .094-.024H9c.004 0 .016 0 .027.004zm.028-.141h.156l.121.355.125-.355h.156l-.191.515h-.176zm.664 0h.156v.515h-.156zm0-.203h.156v.136h-.156zm.808.461v.047h-.37a.12.12 0 0 0 .042.086c.02.019.055.027.094.027a.306.306 0 0 0 .102-.016.37.37 0 0 0 .109-.047v.13a.63.63 0 0 1-.227.046c-.09 0-.156-.023-.207-.074-.05-.047-.074-.113-.074-.2 0-.085.024-.152.074-.199a.275.275 0 0 1 .2-.07c.078 0 .14.024.187.07.047.051.07.118.07.2zm-.164-.055a.106.106 0 0 0-.027-.078c-.016-.02-.04-.027-.066-.027a.097.097 0 0 0-.075.027c-.02.015-.03.043-.035.078zm.664-.062a.19.19 0 0 0-.043-.016c-.011-.004-.027-.004-.039-.004-.043 0-.074.012-.093.039a.175.175 0 0 0-.036.117v.239h-.156v-.516h.156v.082a.202.202 0 0 1 .07-.07.186.186 0 0 1 .094-.024H11c.004 0 .016 0 .027.004zm.473-.125v.124a.352.352 0 0 0-.098-.03.379.379 0 0 0-.09-.012.156.156 0 0 0-.066.011c-.016.008-.02.02-.02.035 0 .012.004.024.016.032a.154.154 0 0 0 .059.015l.027.004c.082.012.137.028.164.055.028.023.04.062.04.113 0 .055-.016.098-.055.125a.306.306 0 0 1-.176.043.962.962 0 0 1-.102-.008 1.047 1.047 0 0 1-.105-.027v-.125a.416.416 0 0 0 .195.047.163.163 0 0 0 .07-.012.043.043 0 0 0 .024-.039c0-.016-.004-.027-.016-.035-.012-.004-.031-.012-.062-.016l-.032-.004a.281.281 0 0 1-.144-.05c-.027-.024-.043-.063-.043-.114 0-.054.02-.093.055-.12.035-.028.09-.04.164-.04.027 0 .058 0 .09.004.035.008.066.012.105.023zM7.91 4.617a.19.19 0 0 0-.043-.015c-.012-.004-.027-.004-.039-.004-.039 0-.07.011-.094.039-.023.027-.03.066-.03.117v.238h-.161v-.515h.16v.082a.231.231 0 0 1 .067-.07.19.19 0 0 1 .097-.024h.016c.008 0 .015 0 .027.004zm.082.176v-.316h.16v.332a.243.243 0 0 0 .012.039c.008.011.016.02.027.023.008.008.02.012.036.012a.095.095 0 0 0 .078-.043c.02-.024.027-.063.027-.11v-.253h.156v.515h-.156v-.074a.284.284 0 0 1-.074.066.181.181 0 0 1-.09.024.16.16 0 0 1-.129-.055.252.252 0 0 1-.047-.16zm1.16-.113v.312h-.16V4.66c-.004-.015-.008-.031-.012-.039a.067.067 0 0 0-.023-.023c-.012-.008-.023-.008-.039-.008-.031 0-.059.012-.074.039a.182.182 0 0 0-.031.11v.253h-.157v-.515h.156v.074a.245.245 0 0 1 .079-.067.156.156 0 0 1 .086-.02c.058 0 .101.016.132.056.028.035.043.09.043.16zm.657 0v.312h-.157V4.75c0-.043-.004-.074-.004-.09-.003-.015-.003-.031-.011-.039-.004-.008-.012-.02-.024-.023-.011-.008-.023-.008-.035-.008a.087.087 0 0 0-.078.039.182.182 0 0 0-.027.11v.253h-.16v-.515h.16v.074a.234.234 0 0 1 .074-.067.17.17 0 0 1 .09-.02c.054 0 .097.016.129.056.027.035.043.09.043.16zm.16-.203h.16v.515h-.16zm0-.204h.16v.137h-.16zm.812.407v.312h-.156V4.75c0-.043 0-.074-.004-.09a.098.098 0 0 0-.008-.039c-.008-.008-.015-.02-.027-.023-.012-.008-.024-.008-.035-.008a.087.087 0 0 0-.078.039.182.182 0 0 0-.028.11v.253h-.16v-.515h.16v.074a.234.234 0 0 1 .075-.067.178.178 0 0 1 .09-.02c.054 0 .1.016.128.056.032.035.043.09.043.16zm.5.226a.293.293 0 0 1-.074.067.204.204 0 0 1-.09.02.18.18 0 0 1-.148-.075.302.302 0 0 1-.059-.191c0-.075.02-.141.059-.188a.18.18 0 0 1 .148-.074.2.2 0 0 1 .09.02c.027.015.05.038.074.066v-.074h.156v.464a.245.245 0 0 1-.074.192c-.05.043-.12.062-.218.062-.032 0-.06 0-.09-.004l-.086-.023v-.129a.37.37 0 0 0 .082.035.27.27 0 0 0 .078.012c.05 0 .09-.012.113-.035.028-.024.04-.059.04-.11zm-.105-.324a.102.102 0 0 0-.078.04.21.21 0 0 0-.028.105c0 .05.012.085.028.109.02.023.043.035.078.035a.098.098 0 0 0 .078-.035.215.215 0 0 0 .027-.11.21.21 0 0 0-.027-.105.102.102 0 0 0-.078-.039zm0 0"/><path style="stroke:none;fill-rule:nonzero;fill:#333;fill-opacity:1" d="M5.957 14.184v2.62c0 .063.04.11.086.11h1.012c.05 0 .09-.047.09-.11v-2.62zm1.777 0v2.62c0 .063.04.11.09.11h1.012c.047 0 .086-.047.086-.11v-2.62zm1.782 0v2.62c0 .063.039.11.086.11h1.015c.047 0 .086-.047.086-.11v-2.62zm1.78 0v2.62c0 .063.04.11.087.11h1.015c.047 0 .086-.047.086-.11v-2.62zm1.782 0v2.62c0 .063.04.11.086.11h1.012c.05 0 .09-.047.09-.11v-2.62zm1.777 0v2.62c0 .063.04.11.09.11h1.012c.047 0 .086-.047.086-.11v-2.62zm0 0"/><path style="stroke:none;fill-rule:nonzero;fill:#fff;fill-opacity:1" d="M6.191 14.336c-.046 0-.086.047-.086.105v.395c0 .059.04.105.086.105h.715c.051 0 .09-.046.09-.105v-.395c0-.058-.039-.105-.09-.105zm1.782 0c-.051 0-.09.047-.09.105v.395c0 .059.039.105.09.105h.715c.046 0 .085-.046.085-.105v-.395c0-.058-.039-.105-.085-.105zm1.777 0c-.047 0-.086.047-.086.105v.395c0 .059.04.105.086.105h.719c.047 0 .086-.046.086-.105v-.395c0-.058-.04-.105-.086-.105zm1.781 0c-.047 0-.086.047-.086.105v.395c0 .059.04.105.086.105h.719c.047 0 .086-.046.086-.105v-.395c0-.058-.04-.105-.086-.105zm1.781 0c-.046 0-.085.047-.085.105v.395c0 .059.039.105.085.105h.715c.051 0 .09-.046.09-.105v-.395c0-.058-.039-.105-.09-.105zm1.782 0c-.051 0-.09.047-.09.105v.395c0 .059.039.105.09.105h.715c.046 0 .086-.046.086-.105v-.395c0-.058-.04-.105-.086-.105zm-8.903 1.82c-.046 0-.086.047-.086.106v.39c0 .063.04.11.086.11h.715c.051 0 .09-.047.09-.11v-.39c0-.059-.039-.106-.09-.106zm1.782 0c-.051 0-.09.047-.09.106v.39c0 .063.039.11.09.11h.715c.046 0 .085-.047.085-.11v-.39c0-.059-.039-.106-.085-.106zm1.777 0c-.047 0-.086.047-.086.106v.39c0 .063.04.11.086.11h.719c.047 0 .086-.047.086-.11v-.39c0-.059-.04-.106-.086-.106zm1.781 0c-.047 0-.086.047-.086.106v.39c0 .063.04.11.086.11h.719c.047 0 .086-.047.086-.11v-.39c0-.059-.04-.106-.086-.106zm1.781 0c-.046 0-.085.047-.085.106v.39c0 .063.039.11.085.11h.715c.051 0 .09-.047.09-.11v-.39c0-.059-.039-.106-.09-.106zm1.782 0c-.051 0-.09.047-.09.106v.39c0 .063.039.11.09.11h.715c.046 0 .086-.047.086-.11v-.39c0-.059-.04-.106-.086-.106zm0 0"/><path style="stroke:none;fill-rule:nonzero;fill:#0f0;fill-opacity:1" d="M8.773 15.246a.152.152 0 0 1-.148.152.152.152 0 0 1-.148-.152.15.15 0 0 1 .148-.152.15.15 0 0 1 .148.152zm-1.777 0a.152.152 0 0 1-.148.152.152.152 0 0 1-.149-.152.15.15 0 0 1 .149-.152.15.15 0 0 1 .148.152zm3.559 0a.152.152 0 0 1-.149.152.152.152 0 0 1-.148-.152.15.15 0 0 1 .148-.152.15.15 0 0 1 .149.152zm1.781 0a.152.152 0 0 1-.149.152.152.152 0 0 1-.148-.152.15.15 0 0 1 .149-.152.15.15 0 0 1 .148.152zm1.781 0a.152.152 0 0 1-.148.152.152.152 0 0 1-.149-.152.15.15 0 0 1 .149-.152.15.15 0 0 1 .148.152zm1.778 0a.152.152 0 0 1-.149.152.152.152 0 0 1-.148-.152.15.15 0 0 1 .148-.152.15.15 0 0 1 .149.152zm0 0"/><path style="stroke:none;fill-rule:evenodd;fill:#e6e6e6;fill-opacity:1" d="M10.586 10.21h11.293v10.255H10.586zm0 0"/><path style="fill:none;stroke-width:.3;stroke-linecap:butt;stroke-linejoin:miter;stroke:#b31d1d;stroke-opacity:1;stroke-miterlimit:4" d="m23.085 23.125.88-1.565.854 1.53" transform="matrix(.43934 0 0 .45189 1.432 .742)"/><path style="fill:none;stroke-width:.3;stroke-linecap:butt;stroke-linejoin:miter;stroke:#b31d1d;stroke-opacity:1;stroke-miterlimit:4" d="m24.845 1027.487.872-1.565.853 1.53" transform="matrix(.43934 0 0 .45189 1.432 -453.12)"/><path style="fill:none;stroke-width:.3;stroke-linecap:butt;stroke-linejoin:miter;stroke:#b31d1d;stroke-opacity:1;stroke-miterlimit:4" d="m23.082 23.124.88-1.565.854 1.53" transform="matrix(.43934 0 0 .45189 2.992 .73)"/><path style="fill:none;stroke-width:.3;stroke-linecap:butt;stroke-linejoin:miter;stroke:#b31d1d;stroke-opacity:1;stroke-miterlimit:4" d="m24.843 1027.486.88-1.565.853 1.53" transform="matrix(.43934 0 0 .45189 2.992 -453.13)"/><path style="fill:none;stroke-width:.3;stroke-linecap:butt;stroke-linejoin:miter;stroke:#b31d1d;stroke-opacity:1;stroke-miterlimit:4" d="m23.09 23.123.87-1.564.854 1.53" transform="matrix(.43934 0 0 .45189 4.532 .719)"/><path style="fill:none;stroke-width:.3;stroke-linecap:butt;stroke-linejoin:miter;stroke:#b31d1d;stroke-opacity:1;stroke-miterlimit:4" d="m24.841 1027.486.88-1.565.854 1.53" transform="matrix(.43934 0 0 .45189 4.532 -453.142)"/><path style="fill:none;stroke-width:.3;stroke-linecap:butt;stroke-linejoin:miter;stroke:#b31d1d;stroke-opacity:1;stroke-miterlimit:4" d="m23.087 23.122.88-1.564.853 1.53" transform="matrix(.43934 0 0 .45189 6.092 .707)"/><path style="fill:none;stroke-width:.3;stroke-linecap:butt;stroke-linejoin:miter;stroke:#b31d1d;stroke-opacity:1;stroke-miterlimit:4" d="m24.838 1027.485.88-1.565.854 1.53" transform="matrix(.43934 0 0 .45189 6.092 -453.153)"/><path style="fill:none;stroke-width:.3;stroke-linecap:butt;stroke-linejoin:miter;stroke:#b31d1d;stroke-opacity:1;stroke-miterlimit:4" d="m23.084 23.12.88-1.565.854 1.539" transform="matrix(.43934 0 0 .45189 7.632 .697)"/><path style="fill:none;stroke-width:.3;stroke-linecap:butt;stroke-linejoin:miter;stroke:#b31d1d;stroke-opacity:1;stroke-miterlimit:4" d="m24.845 1027.482.871-1.565.854 1.539" transform="matrix(.43934 0 0 .45189 7.632 -453.164)"/><path style="fill:none;stroke-width:.3;stroke-linecap:butt;stroke-linejoin:miter;stroke:#b31d1d;stroke-opacity:1;stroke-miterlimit:4" d="m23.082 23.119.88-1.556.853 1.53" transform="matrix(.43934 0 0 .45189 9.191 .686)"/><path style="fill:none;stroke-width:.3;stroke-linecap:butt;stroke-linejoin:miter;stroke:#b31d1d;stroke-opacity:1;stroke-miterlimit:4" d="m24.842 1027.48.88-1.555.854 1.53" transform="matrix(.43934 0 0 .45189 9.191 -453.175)"/><path style="fill:none;stroke-width:.3;stroke-linecap:butt;stroke-linejoin:miter;stroke:#b31d1d;stroke-opacity:1;stroke-miterlimit:4" d="m23.088 23.12.87-1.559.86 1.526" transform="matrix(0 -.39074 .45833 0 1.044 28.486)"/><path style="fill:none;stroke-width:.3;stroke-linecap:butt;stroke-linejoin:miter;stroke:#b31d1d;stroke-opacity:1;stroke-miterlimit:4" d="m24.838 1027.483.88-1.56.86 1.526" transform="matrix(0 -.39074 .45833 0 -459.29 28.486)"/><path style="fill:none;stroke-width:.3;stroke-linecap:butt;stroke-linejoin:miter;stroke:#b31d1d;stroke-opacity:1;stroke-miterlimit:4" d="m23.087 23.12.88-1.56.85 1.535" transform="matrix(0 -.39074 .45833 0 1.032 27.099)"/><path style="fill:none;stroke-width:.3;stroke-linecap:butt;stroke-linejoin:miter;stroke:#b31d1d;stroke-opacity:1;stroke-miterlimit:4" d="m24.846 1027.482.87-1.56.86 1.535" transform="matrix(0 -.39074 .45833 0 -459.3 27.099)"/><path style="fill:none;stroke-width:.3;stroke-linecap:butt;stroke-linejoin:miter;stroke:#b31d1d;stroke-opacity:1;stroke-miterlimit:4" d="m23.081 23.12.88-1.56.86 1.535" transform="matrix(0 -.39074 .45833 0 1.02 25.73)"/><path style="fill:none;stroke-width:.3;stroke-linecap:butt;stroke-linejoin:miter;stroke:#b31d1d;stroke-opacity:1;stroke-miterlimit:4" d="m24.84 1027.482.88-1.56.85 1.535" transform="matrix(0 -.39074 .45833 0 -459.312 25.73)"/><path style="fill:none;stroke-width:.3;stroke-linecap:butt;stroke-linejoin:miter;stroke:#b31d1d;stroke-opacity:1;stroke-miterlimit:4" d="m23.09 23.12.87-1.56.86 1.534" transform="matrix(0 -.39074 .45833 0 1.009 24.342)"/><path style="fill:none;stroke-width:.3;stroke-linecap:butt;stroke-linejoin:miter;stroke:#b31d1d;stroke-opacity:1;stroke-miterlimit:4" d="m24.84 1027.482.879-1.56.86 1.534" transform="matrix(0 -.39074 .45833 0 -459.324 24.342)"/><path style="fill:none;stroke-width:.3;stroke-linecap:butt;stroke-linejoin:miter;stroke:#b31d1d;stroke-opacity:1;stroke-miterlimit:4" d="m23.083 23.117.88-1.56.85 1.535" transform="matrix(0 -.39074 .45833 0 .998 22.973)"/><path style="fill:none;stroke-width:.3;stroke-linecap:butt;stroke-linejoin:miter;stroke:#b31d1d;stroke-opacity:1;stroke-miterlimit:4" d="m24.843 1027.48.88-1.56.85 1.534" transform="matrix(0 -.39074 .45833 0 -459.334 22.973)"/><path style="fill:none;stroke-width:.3;stroke-linecap:butt;stroke-linejoin:miter;stroke:#b31d1d;stroke-opacity:1;stroke-miterlimit:4" d="m23.082 23.125.88-1.568.86 1.534" transform="matrix(0 -.39074 .45833 0 .987 21.585)"/><path style="fill:none;stroke-width:.3;stroke-linecap:butt;stroke-linejoin:miter;stroke:#b31d1d;stroke-opacity:1;stroke-miterlimit:4" d="m24.841 1027.487.88-1.568.85 1.534" transform="matrix(0 -.39074 .45833 0 -459.346 21.585)"/><path style="fill:none;stroke-width:.3;stroke-linecap:butt;stroke-linejoin:miter;stroke:#b31d1d;stroke-opacity:1;stroke-miterlimit:4" d="m23.085 23.124.88-1.565.854 1.53" transform="matrix(.43934 0 0 -.45189 1.432 29.914)"/><path style="fill:none;stroke-width:.3;stroke-linecap:butt;stroke-linejoin:miter;stroke:#b31d1d;stroke-opacity:1;stroke-miterlimit:4" d="m24.845 1027.486.872-1.565.853 1.53" transform="matrix(.43934 0 0 -.45189 1.432 483.775)"/><path style="fill:none;stroke-width:.3;stroke-linecap:butt;stroke-linejoin:miter;stroke:#b31d1d;stroke-opacity:1;stroke-miterlimit:4" d="m23.082 23.123.88-1.565.854 1.53" transform="matrix(.43934 0 0 -.45189 2.992 29.925)"/><path style="fill:none;stroke-width:.3;stroke-linecap:butt;stroke-linejoin:miter;stroke:#b31d1d;stroke-opacity:1;stroke-miterlimit:4" d="m24.843 1027.485.88-1.565.853 1.53" transform="matrix(.43934 0 0 -.45189 2.992 483.786)"/><path style="fill:none;stroke-width:.3;stroke-linecap:butt;stroke-linejoin:miter;stroke:#b31d1d;stroke-opacity:1;stroke-miterlimit:4" d="m23.09 23.122.87-1.564.854 1.53" transform="matrix(.43934 0 0 -.45189 4.532 29.937)"/><path style="fill:none;stroke-width:.3;stroke-linecap:butt;stroke-linejoin:miter;stroke:#b31d1d;stroke-opacity:1;stroke-miterlimit:4" d="m24.841 1027.484.88-1.564.854 1.53" transform="matrix(.43934 0 0 -.45189 4.532 483.798)"/><path style="fill:none;stroke-width:.3;stroke-linecap:butt;stroke-linejoin:miter;stroke:#b31d1d;stroke-opacity:1;stroke-miterlimit:4" d="m23.087 23.121.88-1.564.853 1.53" transform="matrix(.43934 0 0 -.45189 6.092 29.948)"/><path style="fill:none;stroke-width:.3;stroke-linecap:butt;stroke-linejoin:miter;stroke:#b31d1d;stroke-opacity:1;stroke-miterlimit:4" d="m24.838 1027.484.88-1.565.854 1.53" transform="matrix(.43934 0 0 -.45189 6.092 483.81)"/><path style="fill:none;stroke-width:.3;stroke-linecap:butt;stroke-linejoin:miter;stroke:#b31d1d;stroke-opacity:1;stroke-miterlimit:4" d="m23.084 23.118.88-1.556.854 1.53" transform="matrix(.43934 0 0 -.45189 7.632 29.959)"/><path style="fill:none;stroke-width:.3;stroke-linecap:butt;stroke-linejoin:miter;stroke:#b31d1d;stroke-opacity:1;stroke-miterlimit:4" d="m24.845 1027.48.871-1.555.854 1.53" transform="matrix(.43934 0 0 -.45189 7.632 483.82)"/><path style="fill:none;stroke-width:.3;stroke-linecap:butt;stroke-linejoin:miter;stroke:#b31d1d;stroke-opacity:1;stroke-miterlimit:4" d="m23.082 23.117.88-1.556.853 1.53" transform="matrix(.43934 0 0 -.45189 9.191 29.97)"/><path style="fill:none;stroke-width:.3;stroke-linecap:butt;stroke-linejoin:miter;stroke:#b31d1d;stroke-opacity:1;stroke-miterlimit:4" d="m24.842 1027.48.88-1.556.854 1.53" transform="matrix(.43934 0 0 -.45189 9.191 483.83)"/><path style="fill:none;stroke-width:.3;stroke-linecap:butt;stroke-linejoin:miter;stroke:#b31d1d;stroke-opacity:1;stroke-miterlimit:4" d="m23.084 23.124.875-1.568.856 1.534" transform="matrix(0 -.39724 -.45833 0 31.407 28.705)"/><path style="fill:none;stroke-width:.3;stroke-linecap:butt;stroke-linejoin:miter;stroke:#b31d1d;stroke-opacity:1;stroke-miterlimit:4" d="m24.844 1027.487.876-1.569.855 1.534" transform="matrix(0 -.39724 -.45833 0 491.74 28.705)"/><path style="fill:none;stroke-width:.3;stroke-linecap:butt;stroke-linejoin:miter;stroke:#b31d1d;stroke-opacity:1;stroke-miterlimit:4" d="m23.084 23.124.875-1.568.855 1.534" transform="matrix(0 -.39724 -.45833 0 31.419 27.295)"/><path style="fill:none;stroke-width:.3;stroke-linecap:butt;stroke-linejoin:miter;stroke:#b31d1d;stroke-opacity:1;stroke-miterlimit:4" d="m24.844 1027.486.875-1.568.856 1.534" transform="matrix(0 -.39724 -.45833 0 491.751 27.295)"/><path style="fill:none;stroke-width:.3;stroke-linecap:butt;stroke-linejoin:miter;stroke:#b31d1d;stroke-opacity:1;stroke-miterlimit:4" d="m23.09 23.124.875-1.568.855 1.534" transform="matrix(0 -.39724 -.45833 0 31.43 25.902)"/><path style="fill:none;stroke-width:.3;stroke-linecap:butt;stroke-linejoin:miter;stroke:#b31d1d;stroke-opacity:1;stroke-miterlimit:4" d="m24.84 1027.486.875-1.568.856 1.534" transform="matrix(0 -.39724 -.45833 0 491.763 25.902)"/><path style="fill:none;stroke-width:.3;stroke-linecap:butt;stroke-linejoin:miter;stroke:#b31d1d;stroke-opacity:1;stroke-miterlimit:4" d="m23.09 23.123.874-1.568.856 1.534" transform="matrix(0 -.39724 -.45833 0 31.442 24.492)"/><path style="fill:none;stroke-width:.3;stroke-linecap:butt;stroke-linejoin:miter;stroke:#b31d1d;stroke-opacity:1;stroke-miterlimit:4" d="m24.84 1027.485.885-1.568.845 1.534" transform="matrix(0 -.39724 -.45833 0 491.775 24.492)"/><path style="fill:none;stroke-width:.3;stroke-linecap:butt;stroke-linejoin:miter;stroke:#b31d1d;stroke-opacity:1;stroke-miterlimit:4" d="m23.085 23.12.875-1.559.855 1.526" transform="matrix(0 -.39724 -.45833 0 31.452 23.1)"/><path style="fill:none;stroke-width:.3;stroke-linecap:butt;stroke-linejoin:miter;stroke:#b31d1d;stroke-opacity:1;stroke-miterlimit:4" d="m24.845 1027.483.875-1.56.856 1.526" transform="matrix(0 -.39724 -.45833 0 491.785 23.1)"/><path style="fill:none;stroke-width:.3;stroke-linecap:butt;stroke-linejoin:miter;stroke:#b31d1d;stroke-opacity:1;stroke-miterlimit:4" d="m23.084 23.12.875-1.56.856 1.535" transform="matrix(0 -.39724 -.45833 0 31.464 21.69)"/><path style="fill:none;stroke-width:.3;stroke-linecap:butt;stroke-linejoin:miter;stroke:#b31d1d;stroke-opacity:1;stroke-miterlimit:4" d="m24.844 1027.482.875-1.56.856 1.535" transform="matrix(0 -.39724 -.45833 0 491.797 21.69)"/><path style="stroke:none;fill-rule:nonzero;fill:#1a1a1a;fill-opacity:1" d="M12.34 12.703h4.808v.328H12.34zm0 .918h2.922v.328H12.34zm0 .914h4.148v.332H12.34zm0 .918h5.422v.328H12.34zm0 0"/><path style="stroke:none;fill-rule:evenodd;fill:#3498db;fill-opacity:1" d="M18.586 16.238c-.898 0-1.621.703-1.621 1.563s.723 1.547 1.62 1.547c.9 0 1.634-.688 1.634-1.547 0-.86-.735-1.563-1.633-1.563zm0 .317c.715 0 1.3.558 1.3 1.246 0 .683-.585 1.23-1.3 1.23-.719 0-1.29-.547-1.29-1.23 0-.688.571-1.246 1.29-1.246zm0 0"/></svg>