<svg xmlns="http://www.w3.org/2000/svg" width="22" height="22"><path style="stroke:none;fill-rule:nonzero;fill:#25aedf;fill-opacity:1" d="M4.371 18.598h13.25v1.144H4.371zm0 0"/><path style="stroke:none;fill-rule:nonzero;fill:#25aedf;fill-opacity:1" d="M20.164 3.07H1.836l6.633 16.57 9.222.063zm0 0"/><path style="stroke:none;fill-rule:nonzero;fill:#25aedf;fill-opacity:1" d="m5.758 19.691-1.438.012c.657.938 3.446 1.61 6.68 1.61 3.25 0 6.043-.68 6.688-1.622zm0 0"/><path style="stroke:none;fill-rule:nonzero;fill:#333;fill-opacity:1" d="M20.168 3.129C20.168 1.78 16.063.687 11 .687c-5.063 0-9.168 1.094-9.168 2.442S5.938 5.57 11 5.57c5.063 0 9.168-1.093 9.168-2.441zm0 0"/><path style="stroke:none;fill-rule:nonzero;fill:#25aedf;fill-opacity:1" d="m1.836 3.07.004.024c0-.008.004-.016.004-.024zm18.324 0v.008l.004-.008zm-18.285.278 2.434 16.355 9.222-.062 6.387-15.957c-.07.078-.152.156-.25.23 0 0 0 .004-.004.004h-.004a2.672 2.672 0 0 1-.328.223c-.008.004-.012.007-.016.007a4.54 4.54 0 0 1-.402.207c-.012.004-.023.012-.039.016-.14.066-.293.125-.457.188-.02.007-.04.011-.055.02-.164.058-.336.116-.52.171-.019.004-.038.012-.058.016a14.994 14.994 0 0 1-.672.18c-.191.042-.39.09-.593.128-.051.012-.098.02-.145.028-.195.039-.398.074-.602.109-.066.008-.128.02-.191.027-.2.032-.398.059-.605.086-.079.012-.157.02-.235.028a14.16 14.16 0 0 1-.601.066 27.232 27.232 0 0 1-.844.07l-.387.024a20.968 20.968 0 0 1-.898.039c-.184.008-.371.011-.559.015-.148 0-.3.004-.453.004-.305 0-.61-.004-.914-.011-4.367-.122-7.809-1.043-8.207-2.207 0-.004 0-.004-.004-.004zm0 0"/><path style="stroke:none;fill-rule:nonzero;fill:#999;fill-opacity:1" d="M1.883 2.875a.838.838 0 0 0-.051.254C1.832 4.477 5.938 5.57 11 5.57c5.063 0 9.168-1.093 9.168-2.441a.841.841 0 0 0-.05-.234c-.49 1.242-4.423 2.187-9.118 2.187-4.719 0-8.66-.957-9.117-2.207zm0 0"/><path style="stroke:none;fill-rule:nonzero;fill:#fff;fill-opacity:1" d="m9.398 8.734-1.156 2.16L10.09 12l1.008-1.82.351.633-.324.582h1.879l1.027-1.848-.453.27-.59-1.083zm5.02 3.34-1.848 1.114 1.008 1.832h-.7l-.327-.59-.938 1.695 1.024 1.855v-.535h1.199l1.605-2.898.157-.277.03-.07zm-7.707.66.453.266-.598 1.082 1.61 2.898.144.278.043.074 2.367-.039v-2.23H8.703l.352-.633h.648l-.937-1.696zm0 0"/></svg>