<svg xmlns="http://www.w3.org/2000/svg" width="22" height="22"><path style="fill-rule:nonzero;fill:#ccc;fill-opacity:1;stroke-width:1;stroke-linecap:butt;stroke-linejoin:miter;stroke:#3b3434;stroke-opacity:1;stroke-miterlimit:4" d="M309.91 42.455c-22.728 0-41.455 20.909-45.183 48.545h179.818c-3.636-27.636-22.363-48.545-45.09-48.545zm0 0" transform="rotate(.428) scale(.04297)"/><path style="stroke:none;fill-rule:nonzero;fill:#25aedf;fill-opacity:1" d="M2.832 4.242h16.336a2.346 2.346 0 0 1 2.34 2.348v8.226a2.342 2.342 0 0 1-2.34 2.344H2.832a2.342 2.342 0 0 1-2.34-2.344V6.59a2.346 2.346 0 0 1 2.34-2.348zm0 0"/><path style="stroke:none;fill-rule:nonzero;fill:#25aedf;fill-opacity:1" d="M2.832 7.258h16.336c1.289 0 2.34 1.05 2.34 2.344v8.23a2.345 2.345 0 0 1-2.34 2.344H2.832a2.345 2.345 0 0 1-2.34-2.344v-8.23a2.345 2.345 0 0 1 2.34-2.344zm0 0"/><path style="stroke:none;fill-rule:evenodd;fill:#fff;fill-opacity:1" d="M8.11 11.648h.445l.297.598-1.043-.008zm-.005 5.786h.45l.297-.59H7.809zm2.442-4.457.219.398-.254.48-.516-.93zm-4.657 2.73.223.402.555.047-.523-.933zm4.876-.004-.22.402-.55.051.512-.933zm-4.645-2.734-.223.394.254.485.52-.922zm0 0"/><path style="stroke:none;fill-rule:nonzero;fill:#fff;fill-opacity:1" d="M8.328 12.238c-.582 0-1.16.246-1.57.672a2.366 2.366 0 0 0-.653 1.63c0 .6.239 1.202.653 1.628.41.426.988.676 1.57.676.582 0 1.16-.25 1.574-.676.41-.426.653-1.027.653-1.629 0-.601-.242-1.203-.653-1.629a2.204 2.204 0 0 0-1.574-.672zm0 .918c.352 0 .7.149.945.406a1.419 1.419 0 0 1 .001 1.954 1.32 1.32 0 0 1-.946.406c-.348 0-.695-.149-.941-.406a1.403 1.403 0 0 1-.39-.977c0-.363.14-.723.39-.976.246-.258.593-.407.941-.407zm0 0"/><path style="stroke:none;fill-rule:evenodd;fill:#fff;fill-opacity:1" d="m12.527 6.52.594.003.399.832-1.391-.011zm-.004 8.043h.598l.395-.825h-1.387zm3.258-6.196.293.555-.344.668-.687-1.29zm-6.215 3.797.297.555.742.066-.699-1.297zm6.508-.008-.293.559-.738.07.684-1.297zM9.875 8.36l-.297.546.336.668.695-1.277zm0 0"/><path style="stroke:none;fill-rule:nonzero;fill:#fff;fill-opacity:1" d="M12.82 7.34c-.777 0-1.55.344-2.097.937a3.37 3.37 0 0 0-.871 2.262c0 .836.32 1.672.87 2.262a2.887 2.887 0 0 0 2.098.937c.778 0 1.551-.343 2.098-.937a3.36 3.36 0 0 0 .871-2.262c0-.836-.32-1.672-.871-2.262a2.885 2.885 0 0 0-2.098-.937zm0 1.281c.465 0 .93.207 1.258.563.332.355.524.851.524 1.355s-.192 1.004-.524 1.36a1.716 1.716 0 0 1-1.258.558 1.73 1.73 0 0 1-1.258-.559 2.015 2.015 0 0 1-.523-1.359 2 2 0 0 1 .524-1.355 1.735 1.735 0 0 1 1.257-.563zm0 0"/></svg>