<svg xmlns="http://www.w3.org/2000/svg" width="22" height="22"><path style="fill-rule:nonzero;fill:#ccc;fill-opacity:1;stroke-width:1;stroke-linecap:butt;stroke-linejoin:miter;stroke:#3b3434;stroke-opacity:1;stroke-miterlimit:4" d="M309.91 42.455c-22.728 0-41.455 20.909-45.183 48.545h179.818c-3.636-27.636-22.363-48.545-45.09-48.545zm0 0" transform="rotate(.428) scale(.04297)"/><path style="stroke:none;fill-rule:nonzero;fill:#25aedf;fill-opacity:1" d="M2.832 4.242h16.336a2.346 2.346 0 0 1 2.34 2.348v8.226a2.342 2.342 0 0 1-2.34 2.344H2.832a2.342 2.342 0 0 1-2.34-2.344V6.59a2.346 2.346 0 0 1 2.34-2.348zm0 0"/><path style="stroke:none;fill-rule:nonzero;fill:#25aedf;fill-opacity:1" d="M2.832 7.258h16.336c1.289 0 2.34 1.05 2.34 2.344v8.23a2.345 2.345 0 0 1-2.34 2.344H2.832a2.345 2.345 0 0 1-2.34-2.344v-8.23a2.345 2.345 0 0 1 2.34-2.344zm0 0"/><path style="stroke:none;fill-rule:nonzero;fill:#fff;fill-opacity:1" d="M13.094 17a588.405 588.405 0 0 1-2.555-.512l-.234-.05v-3.63l1.508.012c.828.008 2.007.028 2.624.04l1.118.027v2.289c0 2.16-.004 2.293-.075 2.289-.039 0-1.113-.211-2.386-.465zm-5.047-1.008-1.578-.308-.012-1.457-.012-1.461 1.59.02c.875.01 1.598.023 1.602.027.008.003.008.792 0 1.75l-.012 1.742zm-1.602-5.23c0-.801.008-1.457.012-1.457.008 0 .703-.137 1.55-.305a57.89 57.89 0 0 1 1.587-.309c.043 0 .054.348.054 1.739v1.734l-.832.027a56.67 56.67 0 0 1-1.601.028h-.77zm3.86-.395V8.543l2.55-.504c1.407-.277 2.586-.512 2.625-.523.07-.02.075.109.075 2.3v2.32h-1.39c-.763 0-1.942.012-2.626.028l-1.234.027zm0 0"/></svg>