<svg xmlns="http://www.w3.org/2000/svg" width="22" height="22"><path style="fill-rule:nonzero;fill:#ccc;fill-opacity:1;stroke-width:1;stroke-linecap:butt;stroke-linejoin:miter;stroke:#3b3434;stroke-opacity:1;stroke-miterlimit:4" d="M309.91 42.455c-22.728 0-41.455 20.909-45.183 48.545h179.818c-3.636-27.636-22.363-48.545-45.09-48.545zm0 0" transform="rotate(.428) scale(.04297)"/><path style="stroke:none;fill-rule:nonzero;fill:#25aedf;fill-opacity:1" d="M2.832 4.242h16.336a2.346 2.346 0 0 1 2.34 2.348v8.226a2.342 2.342 0 0 1-2.34 2.344H2.832a2.342 2.342 0 0 1-2.34-2.344V6.59a2.346 2.346 0 0 1 2.34-2.348zm0 0"/><path style="stroke:none;fill-rule:nonzero;fill:#25aedf;fill-opacity:1" d="M2.832 7.258h16.336c1.289 0 2.34 1.05 2.34 2.344v8.23a2.345 2.345 0 0 1-2.34 2.344H2.832a2.345 2.345 0 0 1-2.34-2.344v-8.23a2.345 2.345 0 0 1 2.34-2.344zm0 0"/><path style="stroke:none;fill-rule:nonzero;fill:#fff;fill-opacity:1" d="M11 15.063c-.332 0-.629.14-.848.359l.848.844.848-.844a1.196 1.196 0 0 0-.848-.36zm0-2.407c-.996 0-1.895.406-2.55 1.063l.847.844a2.413 2.413 0 0 1 3.406 0l.848-.844A3.593 3.593 0 0 0 11 12.656zm0 0"/><path style="stroke:none;fill-rule:nonzero;fill:#fff;fill-opacity:1" d="M11 10.246c-1.66 0-3.164.68-4.254 1.77l.848.847A4.794 4.794 0 0 1 11 11.45c1.328 0 2.535.54 3.406 1.414l.848-.847A6.003 6.003 0 0 0 11 10.246zm0 0"/><path style="stroke:none;fill-rule:nonzero;fill:#fff;fill-opacity:1" d="M11 7.84c-2.328 0-4.43.945-5.953 2.473l.844.847A7.207 7.207 0 0 1 11 9.043c1.992 0 3.8.809 5.11 2.117l.843-.848A8.377 8.377 0 0 0 11 7.84zm0 0"/></svg>