<svg xmlns="http://www.w3.org/2000/svg" width="22" height="22"><path style="fill-rule:nonzero;fill:#ccc;fill-opacity:1;stroke-width:1;stroke-linecap:butt;stroke-linejoin:miter;stroke:#3b3434;stroke-opacity:1;stroke-miterlimit:4" d="M309.91 42.455c-22.728 0-41.455 20.909-45.183 48.545h179.818c-3.636-27.636-22.363-48.545-45.09-48.545zm0 0" transform="rotate(.428) scale(.04297)"/><path style="stroke:none;fill-rule:nonzero;fill:#25aedf;fill-opacity:1" d="M2.832 4.242h16.336a2.346 2.346 0 0 1 2.34 2.348v8.226a2.342 2.342 0 0 1-2.34 2.344H2.832a2.342 2.342 0 0 1-2.34-2.344V6.59a2.346 2.346 0 0 1 2.34-2.348zm0 0"/><path style="stroke:none;fill-rule:nonzero;fill:#25aedf;fill-opacity:1" d="M2.832 7.258h16.336c1.289 0 2.34 1.05 2.34 2.344v8.23a2.345 2.345 0 0 1-2.34 2.344H2.832a2.345 2.345 0 0 1-2.34-2.344v-8.23a2.345 2.345 0 0 1 2.34-2.344zm0 0"/><path style="stroke:none;fill-rule:nonzero;fill:#fff;fill-opacity:1" d="M8.031 6.68c-.426 0-.77.394-.77.886v3.254h-.257c-.426 0-.77.399-.77.89v2.962c0 .488.344.887.77.887h.258v.886c0 .492.343.89.77.89h5.644c.426 0 .77-.398.77-.89v-.886h.257c.426 0 .77-.399.77-.887V11.71c0-.492-.344-.89-.77-.89h-.258V7.565c0-.492-.343-.886-.77-.886zm.184.562h5.183c.586 0 .586 0 .586.563v3.625h-6.27V7.797c0-.555 0-.555.5-.555zm4.945 5.356c.145 0 .258.132.258.297 0 .164-.113.296-.258.296-.14 0-.254-.132-.254-.296 0-.165.114-.297.254-.297zm1.027 0c.141 0 .258.132.258.297 0 .164-.117.296-.258.296-.14 0-.257-.132-.257-.296 0-.165.117-.297.258-.297zm-6.472 2.367h6.27v1.492c0 .3 0 .3-.305.3H8.03c-.316 0-.316 0-.316-.323zm0 0"/></svg>