<svg xmlns="http://www.w3.org/2000/svg" width="22" height="22"><path style="fill-rule:nonzero;fill:#ccc;fill-opacity:1;stroke-width:1;stroke-linecap:butt;stroke-linejoin:miter;stroke:#3b3434;stroke-opacity:1;stroke-miterlimit:4" d="M309.91 42.455c-22.728 0-41.455 20.909-45.183 48.545h179.818c-3.636-27.636-22.363-48.545-45.09-48.545zm0 0" transform="rotate(.428) scale(.04297)"/><path style="stroke:none;fill-rule:nonzero;fill:#25aedf;fill-opacity:1" d="M2.832 4.242h16.336a2.346 2.346 0 0 1 2.34 2.348v8.226a2.342 2.342 0 0 1-2.34 2.344H2.832a2.342 2.342 0 0 1-2.34-2.344V6.59a2.346 2.346 0 0 1 2.34-2.348zm0 0"/><path style="stroke:none;fill-rule:nonzero;fill:#25aedf;fill-opacity:1" d="M2.832 7.258h16.336c1.289 0 2.34 1.05 2.34 2.344v8.23a2.345 2.345 0 0 1-2.34 2.344H2.832a2.345 2.345 0 0 1-2.34-2.344v-8.23a2.345 2.345 0 0 1 2.34-2.344zm0 0"/><path style="stroke:none;fill-rule:evenodd;fill:#fff;fill-opacity:1" d="M11.031 7.496a4.645 4.645 0 0 0-3.25 1.348 4.652 4.652 0 0 0-1.347 3.25c0 1.203.496 2.398 1.347 3.246a4.645 4.645 0 0 0 3.25 1.348 4.674 4.674 0 0 0 3.254-1.344 4.652 4.652 0 0 0 1.348-3.25 4.652 4.652 0 0 0-1.348-3.25 4.66 4.66 0 0 0-3.254-1.348zm0 1.227c.883 0 1.762.363 2.387.988a3.4 3.4 0 0 1 .988 2.383c0 .883-.363 1.758-.988 2.383a3.413 3.413 0 0 1-2.387.984 3.414 3.414 0 0 1-2.383-.984 3.408 3.408 0 0 1-.988-2.383c0-.883.363-1.758.988-2.383a3.4 3.4 0 0 1 2.383-.988zm-.61.613v3.371h3.372V11.48h-2.145V9.336zm0 0"/></svg>