<svg xmlns="http://www.w3.org/2000/svg" width="22" height="22"><path style="fill-rule:nonzero;fill:#ccc;fill-opacity:1;stroke-width:1;stroke-linecap:butt;stroke-linejoin:miter;stroke:#3b3434;stroke-opacity:1;stroke-miterlimit:4" d="M309.91 42.455c-22.728 0-41.455 20.909-45.183 48.545h179.818c-3.636-27.636-22.363-48.545-45.09-48.545zm0 0" transform="rotate(.428) scale(.04297)"/><path style="stroke:none;fill-rule:nonzero;fill:#25aedf;fill-opacity:1" d="M2.832 4.242h16.336a2.346 2.346 0 0 1 2.34 2.348v8.226a2.342 2.342 0 0 1-2.34 2.344H2.832a2.342 2.342 0 0 1-2.34-2.344V6.59a2.346 2.346 0 0 1 2.34-2.348zm0 0"/><path style="stroke:none;fill-rule:nonzero;fill:#25aedf;fill-opacity:1" d="M2.832 7.258h16.336c1.289 0 2.34 1.05 2.34 2.344v8.23a2.345 2.345 0 0 1-2.34 2.344H2.832a2.345 2.345 0 0 1-2.34-2.344v-8.23a2.345 2.345 0 0 1 2.34-2.344zm0 0"/><path style="stroke:none;fill-rule:evenodd;fill:#fff;fill-opacity:1" d="M6.145 7.734v8.496h2.43v-.484h4.85v.484h2.43V7.734h-2.43v.489h-4.85v-.489zm.73.73h.969v.97h-.969zm7.281 0h.969v.97h-.969zm-5.582.485h4.852v6.067H8.574zm-1.699 1.457h.969v.969h-.969zm7.281 0h.969v.969h-.969zm-4.125.242v2.426l2.426-1.21zm-3.156 1.7h.969v.968h-.969zm7.281 0h.969v.968h-.969zm-7.281 1.941h.969v.969h-.969zm7.281 0h.969v.969h-.969zm0 0"/></svg>