<svg xmlns="http://www.w3.org/2000/svg" width="22" height="22"><path style="fill-rule:nonzero;fill:#ccc;fill-opacity:1;stroke-width:1;stroke-linecap:butt;stroke-linejoin:miter;stroke:#3b3434;stroke-opacity:1;stroke-miterlimit:4" d="M309.91 42.455c-22.728 0-41.455 20.909-45.183 48.545h179.818c-3.636-27.636-22.363-48.545-45.09-48.545zm0 0" transform="rotate(.428) scale(.04297)"/><path style="stroke:none;fill-rule:nonzero;fill:#25aedf;fill-opacity:1" d="M2.832 4.242h16.336a2.346 2.346 0 0 1 2.34 2.348v8.226a2.342 2.342 0 0 1-2.34 2.344H2.832a2.342 2.342 0 0 1-2.34-2.344V6.59a2.346 2.346 0 0 1 2.34-2.348zm0 0"/><path style="stroke:none;fill-rule:nonzero;fill:#25aedf;fill-opacity:1" d="M2.832 7.258h16.336c1.289 0 2.34 1.05 2.34 2.344v8.23a2.345 2.345 0 0 1-2.34 2.344H2.832a2.345 2.345 0 0 1-2.34-2.344v-8.23a2.345 2.345 0 0 1 2.34-2.344zm0 0"/><path style="stroke:none;fill-rule:nonzero;fill:#fff;fill-opacity:1" d="M5.875 7.707v10.582H16.25V7.707zm.477.488h9.421v9.606H6.352zm0 0"/><path style="fill:none;stroke-width:6.338936;stroke-linecap:butt;stroke-linejoin:miter;stroke:#fff;stroke-opacity:1;stroke-miterlimit:4" d="m-147.467 1.753 11.191 9.23-16.324 18.66 39.627-15.536-12.43 17.092 25.641-10.89-15.528 20.2 13.2 10.893" transform="matrix(.15084 -.10662 .12776 .12632 26.457 -3.796)"/></svg>