<svg xmlns="http://www.w3.org/2000/svg" width="22" height="22"><path style="fill-rule:nonzero;fill:#ccc;fill-opacity:1;stroke-width:1;stroke-linecap:butt;stroke-linejoin:miter;stroke:#3b3434;stroke-opacity:1;stroke-miterlimit:4" d="M309.91 42.455c-22.728 0-41.455 20.909-45.183 48.545h179.818c-3.636-27.636-22.363-48.545-45.09-48.545zm0 0" transform="rotate(.428) scale(.04297)"/><path style="stroke:none;fill-rule:nonzero;fill:#25aedf;fill-opacity:1" d="M2.832 4.242h16.336a2.346 2.346 0 0 1 2.34 2.348v8.226a2.342 2.342 0 0 1-2.34 2.344H2.832a2.342 2.342 0 0 1-2.34-2.344V6.59a2.346 2.346 0 0 1 2.34-2.348zm0 0"/><path style="stroke:none;fill-rule:nonzero;fill:#25aedf;fill-opacity:1" d="M2.832 7.258h16.336c1.289 0 2.34 1.05 2.34 2.344v8.23a2.345 2.345 0 0 1-2.34 2.344H2.832a2.345 2.345 0 0 1-2.34-2.344v-8.23a2.345 2.345 0 0 1 2.34-2.344zm0 0"/><path style="stroke:none;fill-rule:nonzero;fill:#fff;fill-opacity:1" d="M11.348 8.75c-.606 0-1.098.457-1.098 1.023 0 .067 0 .141.008.223-.094.05-.11.25-.024.453a.842.842 0 0 0 .125.196c.004 0 .004.003.004.003l.032.157c.043.12.21.351.359.547a1.79 1.79 0 0 1-.012.476c-.242.2-.687.34-1.035.488a1.33 1.33 0 0 1-.316-.191 1.714 1.714 0 0 1-.008-.316c.101-.157.234-.356.27-.457.011-.051.015-.086.023-.133a.482.482 0 0 0 .082-.133c.058-.145.05-.281-.012-.328.008-.063.012-.117.016-.172 0-.426-.371-.774-.825-.774-.457 0-.824.348-.824.774 0 .047.004.105.008.164-.074.04-.082.188-.02.336.028.059.06.11.094.148l.004.004c.008.04.012.07.024.114.03.093.156.265.265.414.012.113.016.23-.008.359-.32.266-1.136.383-1.136.656l-.11.719c0 .145.22.277.567.367l.05.195c.008.04.04.067.075.083.015.003.023.015.066.027.223.066.563.113.946.113.359 0 .68-.043.902-.101l.058.234c.016.047.051.09.098.105.02.008.035.024.094.04.297.09.75.148 1.258.148.511 0 .968-.059 1.265-.149.055-.015.07-.03.094-.039a.162.162 0 0 0 .094-.101l.066-.235c.223.06.54.098.895.098.383 0 .726-.047.949-.113.043-.012.05-.024.066-.027a.126.126 0 0 0 .07-.079l.063-.203c.34-.09.555-.218.555-.363l-.11-.719c-.003-.234-.824-.383-1.14-.656a1.713 1.713 0 0 1-.004-.316c.098-.157.23-.356.266-.457.011-.051.015-.086.027-.133a.596.596 0 0 0 .078-.133c.063-.145.055-.281-.008-.328.004-.063.012-.117.012-.172 0-.426-.371-.77-.824-.77-.457 0-.825.344-.825.77 0 .047.004.105.008.164-.07.04-.082.188-.015.336a.54.54 0 0 0 .09.148c.003 0 .003.004.007.004l.02.114c.031.093.156.265.265.414.012.113.016.23-.007.359a1.5 1.5 0 0 1-.364.195c-.343-.144-.761-.297-.988-.492-.02-.14-.02-.277-.012-.418.137-.207.317-.473.36-.605.02-.07.023-.117.039-.18a.748.748 0 0 0 .105-.176c.082-.191.075-.379-.008-.441l.012-.235c0-.566-.492-1.023-1.101-1.023zm0 0"/><path style="fill:none;stroke-width:1;stroke-linecap:butt;stroke-linejoin:miter;stroke:#fff;stroke-opacity:1;stroke-miterlimit:4" d="M14.898 15.844H34.9v19.994H14.898zm0 0" transform="scale(.45833)"/></svg>