<svg xmlns="http://www.w3.org/2000/svg" width="22" height="22"><path style="fill-rule:nonzero;fill:#ccc;fill-opacity:1;stroke-width:1;stroke-linecap:butt;stroke-linejoin:miter;stroke:#3b3434;stroke-opacity:1;stroke-miterlimit:4" d="M309.91 42.455c-22.728 0-41.455 20.909-45.183 48.545h179.818c-3.636-27.636-22.363-48.545-45.09-48.545zm0 0" transform="rotate(.428) scale(.04297)"/><path style="stroke:none;fill-rule:nonzero;fill:#25aedf;fill-opacity:1" d="M2.832 4.242h16.336a2.346 2.346 0 0 1 2.34 2.348v8.226a2.342 2.342 0 0 1-2.34 2.344H2.832a2.342 2.342 0 0 1-2.34-2.344V6.59a2.346 2.346 0 0 1 2.34-2.348zm0 0"/><path style="stroke:none;fill-rule:nonzero;fill:#25aedf;fill-opacity:1" d="M2.832 7.258h16.336c1.289 0 2.34 1.05 2.34 2.344v8.23a2.345 2.345 0 0 1-2.34 2.344H2.832a2.345 2.345 0 0 1-2.34-2.344v-8.23a2.345 2.345 0 0 1 2.34-2.344zm0 0"/><path style="stroke:none;fill-rule:evenodd;fill:#fff;fill-opacity:1" d="m16.352 6.242-3.426 4.004 1.144 1.145zM7.219 9.676 4.937 11.39v.574l2.282-.574 1.14 5.722 1.715-1.144 6.278 1.719-2.282-5.153-.57-.57-3.426 2.86-2.285-4.579zm3.996 1.144-2.285.57 1.144 2.29 2.852-2.29zm0 0"/></svg>