<svg xmlns="http://www.w3.org/2000/svg" width="22" height="22"><path style="fill-rule:nonzero;fill:#ccc;fill-opacity:1;stroke-width:1;stroke-linecap:butt;stroke-linejoin:miter;stroke:#3b3434;stroke-opacity:1;stroke-miterlimit:4" d="M309.91 42.455c-22.728 0-41.455 20.909-45.183 48.545h179.818c-3.636-27.636-22.363-48.545-45.09-48.545zm0 0" transform="rotate(.428) scale(.04297)"/><path style="stroke:none;fill-rule:nonzero;fill:#25aedf;fill-opacity:1" d="M2.832 4.242h16.336a2.346 2.346 0 0 1 2.34 2.348v8.226a2.342 2.342 0 0 1-2.34 2.344H2.832a2.342 2.342 0 0 1-2.34-2.344V6.59a2.346 2.346 0 0 1 2.34-2.348zm0 0"/><path style="stroke:none;fill-rule:nonzero;fill:#25aedf;fill-opacity:1" d="M2.832 7.258h16.336c1.289 0 2.34 1.05 2.34 2.344v8.23a2.345 2.345 0 0 1-2.34 2.344H2.832a2.345 2.345 0 0 1-2.34-2.344v-8.23a2.345 2.345 0 0 1 2.34-2.344zm0 0"/><path style="stroke:none;fill-rule:nonzero;fill:#fff;fill-opacity:1" d="M10.656 6.977a5.293 5.293 0 0 0-5.289 5.289 5.293 5.293 0 0 0 5.29 5.289c2.917 0 5.273-2.371 5.273-5.29 0-1.25-.426-2.398-1.153-3.304a6.318 6.318 0 0 0-.347.152 4.882 4.882 0 0 1 1.136 3.153 4.906 4.906 0 0 1-4.91 4.91c-2.715 0-4.926-2.196-4.926-4.91 0-2.715 2.211-4.91 4.926-4.91 1.422 0 2.696.605 3.59 1.57.172-.028.297-.051.45-.07a5.239 5.239 0 0 0-4.04-1.88zm0 0"/><path style="stroke:none;fill-rule:nonzero;fill:#fff;fill-opacity:1" d="M10.598 8.25c-.11.004-.168.016-.168.016-3.332.296-4.774 3.968-4.774 3.968l.098 1.051c.668-1.656 4.601.48 4.601.48-1.41-1.433-2.343-1.785-2.343-1.785-.602-.343-1.262-.472-1.262-.472.547-1.254 1.133-1.832 1.133-1.832l.195 1.195c1.41 1.211 2.746 1.09 2.746 1.09 2.074 1.531 2.305 4.547 2.305 4.547l.824-.445c.348-.813-1.023-3.329-1.023-3.329-.407-.765-.532-1.453-.532-1.453.102-.101.668-1.12.668-1.12.493-.794 2.848-1.473 2.848-1.473-1.75-.196-3.016.242-3.016.242-1.183-.649-1.976-.696-2.3-.68zm4.668.543c.14-.008.168 0 0 .016-.45.05-1.098.332-1.594.632-.492.301-.625.551-.629.457 0-.464-.39-.48-.39-.48.503-.352 2.183-.59 2.613-.625zm-4.883.168c.039-.008.082 0 .12 0a.593.593 0 1 1-.589.59.6.6 0 0 1 .469-.59zm0 0"/><path style="stroke:none;fill-rule:nonzero;fill:#fff;fill-opacity:1" d="M10.656 6.816a5.451 5.451 0 0 0-5.449 5.45 5.451 5.451 0 0 0 5.45 5.449c3.007 0 5.433-2.442 5.433-5.45 0-1.288-.414-2.445-1.16-3.378-.117.047-.262.07-.383.129a5.05 5.05 0 0 1 1.168 3.25 5.055 5.055 0 0 1-5.059 5.058c-2.797 0-5.074-2.262-5.074-5.058 0-2.797 2.277-5.059 5.074-5.059 1.465 0 2.778.625 3.7 1.617.175-.027.304-.05.46-.07a5.39 5.39 0 0 0-4.16-1.938zm0 0"/></svg>