<svg xmlns="http://www.w3.org/2000/svg" width="22" height="22"><path style="fill-rule:nonzero;fill:#ccc;fill-opacity:1;stroke-width:1;stroke-linecap:butt;stroke-linejoin:miter;stroke:#3b3434;stroke-opacity:1;stroke-miterlimit:4" d="M309.91 42.455c-22.728 0-41.455 20.909-45.183 48.545h179.818c-3.636-27.636-22.363-48.545-45.09-48.545zm0 0" transform="rotate(.428) scale(.04297)"/><path style="stroke:none;fill-rule:nonzero;fill:#25aedf;fill-opacity:1" d="M2.832 4.242h16.336a2.346 2.346 0 0 1 2.34 2.348v8.226a2.342 2.342 0 0 1-2.34 2.344H2.832a2.342 2.342 0 0 1-2.34-2.344V6.59a2.346 2.346 0 0 1 2.34-2.348zm0 0"/><path style="stroke:none;fill-rule:nonzero;fill:#25aedf;fill-opacity:1" d="M2.832 7.258h16.336c1.289 0 2.34 1.05 2.34 2.344v8.23a2.345 2.345 0 0 1-2.34 2.344H2.832a2.345 2.345 0 0 1-2.34-2.344v-8.23a2.345 2.345 0 0 1 2.34-2.344zm0 0"/><path style="stroke:none;fill-rule:evenodd;fill:#fff;fill-opacity:1" d="m13.738 6.492.434.395-.535.316-.387-.48-.04.875.77.168 1.215 1.433.68-.363-1.262-1.43.157-.629zM10 6.832c-.695 0-1.258.461-1.258 1.031 0 .52.469.957 1.094 1.024l-1.746.746-.36 3.953 1.012-.012.403-3.394.078 3.09-.559 4.64 1.02-.012.804-4.476 1.047 4.469h1.055l-.93-4.602-.148-3.258 3.183-1.133-.605-.62-2.828.738-1.102-.125c.63-.067 1.102-.504 1.102-1.028 0-.57-.563-1.031-1.262-1.031zm0 0"/></svg>