<svg xmlns="http://www.w3.org/2000/svg" width="22" height="22"><path style="fill-rule:nonzero;fill:#ccc;fill-opacity:1;stroke-width:1;stroke-linecap:butt;stroke-linejoin:miter;stroke:#3b3434;stroke-opacity:1;stroke-miterlimit:4" d="M309.91 42.455c-22.728 0-41.455 20.909-45.183 48.545h179.818c-3.636-27.636-22.363-48.545-45.09-48.545zm0 0" transform="rotate(.428) scale(.04297)"/><path style="stroke:none;fill-rule:nonzero;fill:#25aedf;fill-opacity:1" d="M2.832 4.242h16.336a2.346 2.346 0 0 1 2.34 2.348v8.226a2.342 2.342 0 0 1-2.34 2.344H2.832a2.342 2.342 0 0 1-2.34-2.344V6.59a2.346 2.346 0 0 1 2.34-2.348zm0 0"/><path style="stroke:none;fill-rule:nonzero;fill:#25aedf;fill-opacity:1" d="M2.832 7.258h16.336c1.289 0 2.34 1.05 2.34 2.344v8.23a2.345 2.345 0 0 1-2.34 2.344H2.832a2.345 2.345 0 0 1-2.34-2.344v-8.23a2.345 2.345 0 0 1 2.34-2.344zm0 0"/><path style="stroke:none;fill-rule:nonzero;fill:#fff;fill-opacity:1" d="m17.23 12.797-5.738 5.738a.846.846 0 0 1-1.199 0l-1.191-1.191 1.511-1.512a1.005 1.005 0 0 0 1.273-1.281l1.458-1.457a1.01 1.01 0 0 0 1.043-.239 1.007 1.007 0 1 0-1.645-.328l-1.36 1.36v-3.578a.902.902 0 0 0 .266-.192 1.002 1.002 0 0 0 0-1.422 1.002 1.002 0 0 0-1.421 0 1.002 1.002 0 0 0 0 1.422.978.978 0 0 0 .328.223v3.61a.948.948 0 0 0-.328.218 1.005 1.005 0 0 0-.22 1.102L8.52 16.758l-3.938-3.934a.854.854 0 0 1 0-1.199l5.738-5.738a.854.854 0 0 1 1.2 0l5.71 5.715a.842.842 0 0 1 0 1.195"/></svg>