<svg xmlns="http://www.w3.org/2000/svg" width="22" height="22"><path style="fill-rule:nonzero;fill:#ccc;fill-opacity:1;stroke-width:1;stroke-linecap:butt;stroke-linejoin:miter;stroke:#3b3434;stroke-opacity:1;stroke-miterlimit:4" d="M309.91 42.455c-22.728 0-41.455 20.909-45.183 48.545h179.818c-3.636-27.636-22.363-48.545-45.09-48.545zm0 0" transform="rotate(.428) scale(.04297)"/><path style="stroke:none;fill-rule:nonzero;fill:#25aedf;fill-opacity:1" d="M2.832 4.242h16.336a2.346 2.346 0 0 1 2.34 2.348v8.226a2.342 2.342 0 0 1-2.34 2.344H2.832a2.342 2.342 0 0 1-2.34-2.344V6.59a2.346 2.346 0 0 1 2.34-2.348zm0 0"/><path style="stroke:none;fill-rule:nonzero;fill:#25aedf;fill-opacity:1" d="M2.832 7.258h16.336c1.289 0 2.34 1.05 2.34 2.344v8.23a2.345 2.345 0 0 1-2.34 2.344H2.832a2.345 2.345 0 0 1-2.34-2.344v-8.23a2.345 2.345 0 0 1 2.34-2.344zm0 0"/><path style="stroke:none;fill-rule:nonzero;fill:#fff;fill-opacity:1" d="M4.688 16.277c-.79-.41-1.274-1.156-1.364-2.105-.156-1.64.82-2.856 2.297-2.86h.766l.074-1.03c.043-.598.207-1.25.394-1.548.676-1.082 2.043-1.414 3.004-.726.899.64 1.047 1.222 1.047 4.152 0 2.559-.011 2.63-.449 3.238-.246.344-.691.743-.988.887-.723.356-4.098.348-4.781-.008zm4.406-.308c.324-.106.773-.418.996-.696.367-.457.406-.68.457-2.757.07-2.77-.102-3.543-.899-4.121-1.386-1.004-2.886.296-2.886 2.5v.757l-1.004.086c-.84.07-1.082.18-1.496.664-.996 1.164-.645 2.973.68 3.508.706.285 3.343.32 4.152.059zm0 0"/><path style="stroke:none;fill-rule:nonzero;fill:#fff;fill-opacity:1" d="M17.074 16.375c.79-.41 1.274-1.156 1.367-2.105.157-1.641-.82-2.856-2.296-2.856l-.77-.004-.07-1.031c-.043-.594-.211-1.25-.395-1.543-.676-1.086-2.043-1.418-3.008-.73-.898.64-1.043 1.222-1.043 4.156 0 2.554.008 2.625.45 3.234.246.344.691.742.988.89.723.352 4.094.348 4.777-.011zm-4.402-.309c-.328-.105-.774-.418-.996-.691-.371-.46-.406-.684-.457-2.762-.07-2.77.097-3.543.898-4.12 1.383-1.005 2.887.3 2.887 2.503v.758l1.004.086c.84.07 1.082.176 1.496.66.992 1.164.64 2.977-.684 3.508-.703.285-3.34.324-4.148.058zm0 0"/></svg>