<svg xmlns="http://www.w3.org/2000/svg" width="22" height="22"><path style="fill-rule:nonzero;fill:#ccc;fill-opacity:1;stroke-width:1;stroke-linecap:butt;stroke-linejoin:miter;stroke:#3b3434;stroke-opacity:1;stroke-miterlimit:4" d="M309.91 42.455c-22.728 0-41.455 20.909-45.183 48.545h179.818c-3.636-27.636-22.363-48.545-45.09-48.545zm0 0" transform="rotate(.428) scale(.04297)"/><path style="stroke:none;fill-rule:nonzero;fill:#25aedf;fill-opacity:1" d="M2.832 4.242h16.336a2.346 2.346 0 0 1 2.34 2.348v8.226a2.342 2.342 0 0 1-2.34 2.344H2.832a2.342 2.342 0 0 1-2.34-2.344V6.59a2.346 2.346 0 0 1 2.34-2.348zm0 0"/><path style="stroke:none;fill-rule:nonzero;fill:#25aedf;fill-opacity:1" d="M2.832 7.258h16.336c1.289 0 2.34 1.05 2.34 2.344v8.23a2.345 2.345 0 0 1-2.34 2.344H2.832a2.345 2.345 0 0 1-2.34-2.344v-8.23a2.345 2.345 0 0 1 2.34-2.344zm0 0"/><path style="stroke:none;fill-rule:nonzero;fill:#fff;fill-opacity:1" d="M15.309 11.371c.02-.133.023-.27.023-.406 0-1.715-1.2-3.113-2.68-3.113-.855 0-1.644.472-2.14 1.242a1.93 1.93 0 0 0-.54-.074c-1.292 0-2.343 1.218-2.343 2.722v.11c-.969.335-1.676 1.378-1.676 2.609 0 1.5 1.05 2.723 2.344 2.723h5.695c1.48 0 2.684-1.395 2.684-3.11 0-1.133-.54-2.16-1.367-2.703zm-1.317 5.035H8.297c-.926 0-1.672-.87-1.672-1.945 0-1.074.746-1.941 1.672-1.941.05 0 .101.011.152.015a2.123 2.123 0 0 1-.152-.793c0-1.074.75-1.945 1.676-1.945.304 0 .582.101.828.262.304-.84 1.02-1.43 1.851-1.43 1.114 0 2.012 1.047 2.012 2.336 0 .305-.055.598-.148.867.855.266 1.488 1.164 1.488 2.242 0 1.29-.899 2.332-2.012 2.332zm0 0"/></svg>