<svg xmlns="http://www.w3.org/2000/svg" width="22" height="22"><path style="fill-rule:nonzero;fill:#ccc;fill-opacity:1;stroke-width:1;stroke-linecap:butt;stroke-linejoin:miter;stroke:#3b3434;stroke-opacity:1;stroke-miterlimit:4" d="M309.91 42.455c-22.728 0-41.455 20.909-45.183 48.545h179.818c-3.636-27.636-22.363-48.545-45.09-48.545zm0 0" transform="rotate(.428) scale(.04297)"/><path style="stroke:none;fill-rule:nonzero;fill:#25aedf;fill-opacity:1" d="M2.832 4.242h16.336a2.346 2.346 0 0 1 2.34 2.348v8.226a2.342 2.342 0 0 1-2.34 2.344H2.832a2.342 2.342 0 0 1-2.34-2.344V6.59a2.346 2.346 0 0 1 2.34-2.348zm0 0"/><path style="stroke:none;fill-rule:nonzero;fill:#25aedf;fill-opacity:1" d="M2.832 7.258h16.336c1.289 0 2.34 1.05 2.34 2.344v8.23a2.345 2.345 0 0 1-2.34 2.344H2.832a2.345 2.345 0 0 1-2.34-2.344v-8.23a2.345 2.345 0 0 1 2.34-2.344zm0 0"/><path style="stroke:none;fill-rule:nonzero;fill:#fff;fill-opacity:1" d="m14.832 7.922-.723.672.172 1.02.887.347.719-.668-.168-1.02zm.176.523a.466.466 0 0 1 .433.41c.047.27-.117.524-.359.575a.422.422 0 0 1-.34-.078.529.529 0 0 1-.187-.32c-.043-.27.117-.528.363-.579.031-.004.059-.008.09-.008zm-3.836 2.481 1.336 1.476-1.98 1.653-1.337-1.473zm0 0"/><path style="stroke:none;fill-rule:nonzero;fill:#fff;fill-opacity:1" d="M14.02 8.547a2.566 2.566 0 0 0-2.637.39c-1.04.864-1.16 2.36-.274 3.336.883.98 2.442 1.07 3.477.207a2.334 2.334 0 0 0 .77-2.457l-1.391 1.16-1.336-1.476zm-4.415 3.445c-.144-.113-.351-.097-.609.113l-2.375 1.91-.168.133-.805.668c-.628.516-.683 1.383-.12 1.95.566.562 1.527.605 2.156.09l.812-.66.16-.141 2.219-1.813c.363-.297.215-.527.066-.699l-1.28-1.492c-.02-.02-.036-.043-.056-.059zm-.253 1.192.468.523c.098.11.059.285-.086.402l-2.648 2.145c-.145.117-.344.133-.438.023l-.472-.523c-.098-.11-.051-.29.097-.41l2.645-2.14c.145-.122.336-.13.434-.02zm0 0"/></svg>