<svg xmlns="http://www.w3.org/2000/svg" width="22" height="22"><path style="fill-rule:nonzero;fill:#ccc;fill-opacity:1;stroke-width:1;stroke-linecap:butt;stroke-linejoin:miter;stroke:#3b3434;stroke-opacity:1;stroke-miterlimit:4" d="M309.91 42.455c-22.728 0-41.455 20.909-45.183 48.545h179.818c-3.636-27.636-22.363-48.545-45.09-48.545zm0 0" transform="rotate(.428) scale(.04297)"/><path style="stroke:none;fill-rule:nonzero;fill:#25aedf;fill-opacity:1" d="M2.832 4.242h16.336a2.346 2.346 0 0 1 2.34 2.348v8.226a2.342 2.342 0 0 1-2.34 2.344H2.832a2.342 2.342 0 0 1-2.34-2.344V6.59a2.346 2.346 0 0 1 2.34-2.348zm0 0"/><path style="stroke:none;fill-rule:nonzero;fill:#25aedf;fill-opacity:1" d="M2.832 7.258h16.336c1.289 0 2.34 1.05 2.34 2.344v8.23a2.345 2.345 0 0 1-2.34 2.344H2.832a2.345 2.345 0 0 1-2.34-2.344v-8.23a2.345 2.345 0 0 1 2.34-2.344zm0 0"/><path style="stroke:none;fill-rule:nonzero;fill:#fff;fill-opacity:1" d="M5.707 14.2h1.055c.148 0 .265.09.265.198v.399c0 .11-.117.2-.265.2H5.707c-.144 0-.262-.09-.262-.2v-.399c0-.109.117-.199.262-.199zm-.133-.993c-.07 0-.129.043-.129.098v.597c0 .055.059.098.13.098h.265c.07 0 .133-.043.133-.098v-.097h.394c.074 0 .133-.047.133-.102v-.2c0-.054-.059-.097-.133-.097h-.394v-.101c0-.055-.063-.098-.133-.098zm0-1.191c-.07 0-.129.043-.129.097v.598c0 .055.059.098.13.098h.265c.07 0 .133-.043.133-.098v-.102h.394c.074 0 .133-.043.133-.097v-.2c0-.054-.059-.097-.133-.097h-.394v-.102c0-.054-.063-.097-.133-.097zm0-1.192c-.07 0-.129.043-.129.098v.598c0 .054.059.097.13.097h.265c.07 0 .133-.043.133-.097v-.102h.394c.074 0 .133-.043.133-.098v-.199c0-.055-.059-.098-.133-.098h-.394v-.101c0-.055-.063-.098-.133-.098zm0-1.191c-.07 0-.129.043-.129.097v.598c0 .055.059.098.13.098h.265c.07 0 .133-.043.133-.098v-.101h.394c.074 0 .133-.043.133-.098v-.2c0-.054-.059-.1-.133-.1h-.394V9.73c0-.054-.063-.097-.133-.097zm0-1.195c-.07 0-.129.046-.129.101v.594c0 .058.059.101.13.101h.265c.07 0 .133-.043.133-.101v-.098h.394c.074 0 .133-.043.133-.098v-.199c0-.054-.059-.101-.133-.101h-.394v-.098c0-.055-.063-.101-.133-.101zm0-1.192c-.07 0-.129.043-.129.102v.593c0 .059.059.102.13.102h.265c.07 0 .133-.043.133-.102v-.097h.394c.074 0 .133-.043.133-.102v-.195c0-.059-.059-.102-.133-.102h-.394v-.097c0-.059-.063-.102-.133-.102zm1.321 5.364c.07 0 .132.042.132.1v.595c0 .058-.062.101-.132.101h-.262c-.074 0-.133-.043-.133-.101v-.098h-.395c-.074 0-.132-.043-.132-.098v-.199c0-.055.058-.101.132-.101H6.5v-.098c0-.059.059-.102.133-.102zm0-1.192c.07 0 .132.043.132.102v.593c0 .059-.062.102-.132.102h-.262c-.074 0-.133-.043-.133-.102v-.097h-.395c-.074 0-.132-.047-.132-.102v-.195c0-.059.058-.102.132-.102H6.5v-.097c0-.06.059-.102.133-.102zm0-1.191c.07 0 .132.043.132.101v.594c0 .055-.062.101-.132.101h-.262c-.074 0-.133-.046-.133-.101v-.098h-.395c-.074 0-.132-.047-.132-.101v-.2c0-.054.058-.097.132-.097H6.5v-.098c0-.058.059-.101.133-.101zm0-1.192c.07 0 .132.043.132.098v.597c0 .055-.062.098-.132.098h-.262c-.074 0-.133-.043-.133-.098v-.097h-.395c-.074 0-.132-.047-.132-.102v-.199c0-.055.058-.098.132-.098H6.5v-.101c0-.055.059-.098.133-.098zm0-1.191c.07 0 .132.043.132.097v.598c0 .055-.062.098-.132.098h-.262c-.074 0-.133-.043-.133-.098v-.101h-.395c-.074 0-.132-.043-.132-.098v-.2c0-.054.058-.097.132-.097H6.5v-.102c0-.054.059-.097.133-.097zm0-1.192c.07 0 .132.043.132.098v.598c0 .054-.062.097-.132.097h-.262c-.074 0-.133-.043-.133-.097v-.102h-.395c-.074 0-.132-.043-.132-.098V6.95c0-.054.058-.097.132-.097H6.5V6.75c0-.055.059-.098.133-.098zm0 0"/><path style="stroke:none;fill-rule:nonzero;fill:#fff;fill-opacity:1" d="M4.324 4.266V15.19c0 .442.492.797 1.094.797h1.637c.601 0 1.09-.355 1.09-.797V4.266H7.87V15.19c0 .332-.363.598-.816.598H5.418c-.453 0-.82-.266-.82-.598V4.266zm0 0"/><path style="stroke:none;fill-rule:nonzero;fill:#fff;fill-opacity:1" d="M5.68 4.223c-.137 0-.242.09-.242.195v1.973c0 .109.105.195.242.195h1.11c.136 0 .245-.086.245-.195V4.418c0-.106-.11-.195-.246-.195zm.14 1.449h.817v.566H5.82zm0 0"/></svg>