<svg xmlns="http://www.w3.org/2000/svg" width="22" height="22"><path style="fill-rule:nonzero;fill:#ccc;fill-opacity:1;stroke-width:1;stroke-linecap:butt;stroke-linejoin:miter;stroke:#3b3434;stroke-opacity:1;stroke-miterlimit:4" d="M309.91 42.455c-22.728 0-41.455 20.909-45.183 48.545h179.818c-3.636-27.636-22.363-48.545-45.09-48.545zm0 0" transform="rotate(.428) scale(.04297)"/><path style="stroke:none;fill-rule:nonzero;fill:#25aedf;fill-opacity:1" d="M2.832 4.242h16.336a2.346 2.346 0 0 1 2.34 2.348v8.226a2.342 2.342 0 0 1-2.34 2.344H2.832a2.342 2.342 0 0 1-2.34-2.344V6.59a2.346 2.346 0 0 1 2.34-2.348zm0 0"/><path style="stroke:none;fill-rule:nonzero;fill:#25aedf;fill-opacity:1" d="M2.832 7.258h16.336c1.289 0 2.34 1.05 2.34 2.344v8.23a2.345 2.345 0 0 1-2.34 2.344H2.832a2.345 2.345 0 0 1-2.34-2.344v-8.23a2.345 2.345 0 0 1 2.34-2.344zm0 0"/><path style="stroke:none;fill-rule:nonzero;fill:#fff;fill-opacity:1" d="M5.867 16.05s1.465 1.266 3.145.786c1.68-.484 1.37-.938 1.37-.938s.919.657 1.712.887c.793.227 2.504 0 2.32-1.039-.184-1.039.578.988 2.227 1.14l-2.442-1.773s-.578.887-1.187 1.442c-.614.558-2.555-1.563-3.086-.707-.535.863-4.059.203-4.059.203zm2.828-2.081s1.149 1.265 2.465.785c1.317-.48 1.074-.938 1.074-.938s.72.66 1.34.887c.625.23 1.965 0 1.82-1.039-.144-1.039.454.988 1.747 1.14l-1.914-1.773s-.454.887-.934 1.446c-.477.558-2-1.563-2.418-.711-.418.867-3.18.203-3.18.203zm4.297-4.348c.016-.074.02-.152.02-.23 0-.965-1.04-1.754-2.313-1.754-.742 0-1.422.265-1.855.699a2.561 2.561 0 0 0-.461-.04c-1.117 0-2.028.688-2.028 1.532v.067c-.835.187-1.449.773-1.449 1.468 0 .848.91 1.535 2.028 1.535h4.921c1.278 0 2.317-.789 2.317-1.753 0-.641-.465-1.215-1.18-1.524zm-1.137 2.836H6.934c-.801 0-1.446-.488-1.446-1.094 0-.605.645-1.093 1.446-1.093.043 0 .086.003.128.007a.87.87 0 0 1-.128-.449c0-.605.648-1.094 1.449-1.094.262 0 .5.055.715.149.261-.473.879-.805 1.601-.805.957 0 1.735.586 1.735 1.313 0 .171-.047.336-.125.488.738.152 1.285.66 1.285 1.266 0 .726-.778 1.312-1.739 1.312zm0 0"/><path style="stroke:none;fill-rule:nonzero;fill:#fff;fill-opacity:1" d="M16.508 7.523a.494.494 0 0 0 .012-.109c0-.441-.477-.8-1.063-.8-.34 0-.652.12-.848.32-.07-.012-.14-.02-.21-.02-.516 0-.93.316-.93.703v.028c-.383.085-.664.355-.664.675 0 .387.418.703.93.703h2.253c.586 0 1.063-.363 1.063-.804 0-.293-.215-.559-.543-.696zm-.52 1.297h-2.254c-.367 0-.664-.222-.664-.5 0-.277.297-.504.664-.504.02 0 .04.004.059.004a.373.373 0 0 1-.059-.203c0-.277.297-.504.664-.504a.79.79 0 0 1 .325.07c.12-.218.406-.37.734-.37.441 0 .797.269.797.601a.5.5 0 0 1-.059.227c.34.07.59.3.59.578 0 .332-.355.601-.797.601zm0 0"/></svg>