<svg xmlns="http://www.w3.org/2000/svg" width="22" height="22"><path style="fill-rule:nonzero;fill:#ccc;fill-opacity:1;stroke-width:1;stroke-linecap:butt;stroke-linejoin:miter;stroke:#3b3434;stroke-opacity:1;stroke-miterlimit:4" d="M309.91 42.455c-22.728 0-41.455 20.909-45.183 48.545h179.818c-3.636-27.636-22.363-48.545-45.09-48.545zm0 0" transform="rotate(.428) scale(.04297)"/><path style="stroke:none;fill-rule:nonzero;fill:#25aedf;fill-opacity:1" d="M2.832 4.242h16.336a2.346 2.346 0 0 1 2.34 2.348v8.226a2.342 2.342 0 0 1-2.34 2.344H2.832a2.342 2.342 0 0 1-2.34-2.344V6.59a2.346 2.346 0 0 1 2.34-2.348zm0 0"/><path style="stroke:none;fill-rule:nonzero;fill:#25aedf;fill-opacity:1" d="M2.832 7.258h16.336c1.289 0 2.34 1.05 2.34 2.344v8.23a2.345 2.345 0 0 1-2.34 2.344H2.832a2.345 2.345 0 0 1-2.34-2.344v-8.23a2.345 2.345 0 0 1 2.34-2.344zm0 0"/><path style="stroke:none;fill-rule:nonzero;fill:#fff;fill-opacity:1" d="M14.098 7.227H5.945v8.289h.008l1.945 1.789v.058h8.153V9.078l.004-.008zm-7.66.316h7.347v1.531h-5.7zm7.656.031 1.594 1.5h-1.594zm-7.84.13 1.644 1.534V15.2H6.254zm1.973 1.702h5.558V15.2H8.227zm5.867 0h1.633v7.465l-1.633-1.617zm-7.778 6.11h1.582v1.453zm1.91 0h5.786l1.527 1.515H8.227zm0 0"/><path style="stroke:none;fill-rule:nonzero;fill:#fff;fill-opacity:1" d="M9.902 11.934a.61.61 0 1 1-1.22-.002.61.61 0 0 1 1.22.002zm1.825 0a.61.61 0 1 1-1.22-.002.61.61 0 0 1 1.22.002zm1.823 0a.61.61 0 1 1-1.22-.002.61.61 0 0 1 1.22.002zm0 0"/></svg>