<svg xmlns="http://www.w3.org/2000/svg" width="22" height="22"><path style="fill-rule:nonzero;fill:#ccc;fill-opacity:1;stroke-width:1;stroke-linecap:butt;stroke-linejoin:miter;stroke:#3b3434;stroke-opacity:1;stroke-miterlimit:4" d="M309.91 42.455c-22.728 0-41.455 20.909-45.183 48.545h179.818c-3.636-27.636-22.363-48.545-45.09-48.545zm0 0" transform="rotate(.428) scale(.04297)"/><path style="stroke:none;fill-rule:nonzero;fill:#25aedf;fill-opacity:1" d="M2.832 4.242h16.336a2.346 2.346 0 0 1 2.34 2.348v8.226a2.342 2.342 0 0 1-2.34 2.344H2.832a2.342 2.342 0 0 1-2.34-2.344V6.59a2.346 2.346 0 0 1 2.34-2.348zm0 0"/><path style="stroke:none;fill-rule:nonzero;fill:#25aedf;fill-opacity:1" d="M2.832 7.258h16.336c1.289 0 2.34 1.05 2.34 2.344v8.23a2.345 2.345 0 0 1-2.34 2.344H2.832a2.345 2.345 0 0 1-2.34-2.344v-8.23a2.345 2.345 0 0 1 2.34-2.344zm0 0"/><path style="stroke:none;fill-rule:nonzero;fill:#fff;fill-opacity:1" d="M15.402 10.176c0 .789-.675 1.426-1.507 1.426-.836 0-1.512-.637-1.512-1.426 0-.785.676-1.426 1.512-1.426.832 0 1.507.64 1.507 1.426zm0 0"/><path style="stroke:none;fill-rule:nonzero;fill:#fff;fill-opacity:1" d="M13.914 7.516c-1.512 0-2.742 1.214-2.742 2.718 0 1.5 1.23 2.723 2.742 2.723a2.73 2.73 0 0 0 2.734-2.723 2.724 2.724 0 0 0-2.734-2.718zm0 .918c1.004 0 1.809.8 1.809 1.8 0 .996-.805 1.805-1.809 1.805a1.814 1.814 0 0 1-1.82-1.805c0-1 .816-1.8 1.82-1.8zm0 0"/><path style="stroke:none;fill-rule:nonzero;fill:#fff;fill-opacity:1" d="m11.18 10.27-1.74 2.562.575.57c.28.149.515.371.664.653l.562.558 2.602-1.726zm-.504 4.554c0 .692-.512 1.254-1.14 1.254-.634 0-1.141-.562-1.141-1.254 0-.691.507-1.25 1.14-1.25.63 0 1.14.559 1.14 1.25zm0 0"/><path style="stroke:none;fill-rule:nonzero;fill:#fff;fill-opacity:1" d="M9.297 12.832a1.949 1.949 0 0 0-1.953 1.941c0 1.075.875 1.942 1.953 1.942a1.947 1.947 0 0 0 1.957-1.942 1.95 1.95 0 0 0-1.957-1.941zm0 .395c.863 0 1.562.691 1.562 1.546 0 .856-.699 1.551-1.562 1.551-.86 0-1.559-.695-1.559-1.55 0-.856.7-1.547 1.559-1.547zm0 0"/><path style="stroke:none;fill-rule:nonzero;fill:#fff;fill-opacity:1" d="M5.98 11.8v2.403l3.223 1.676c.016.004.035 0 .04-.02l.683-2.011c.008-.02-.008-.04-.024-.047zm0 0"/></svg>