<svg xmlns="http://www.w3.org/2000/svg" width="22" height="22"><path style="fill-rule:nonzero;fill:#ccc;fill-opacity:1;stroke-width:1;stroke-linecap:butt;stroke-linejoin:miter;stroke:#3b3434;stroke-opacity:1;stroke-miterlimit:4" d="M309.91 42.455c-22.728 0-41.455 20.909-45.183 48.545h179.818c-3.636-27.636-22.363-48.545-45.09-48.545zm0 0" transform="rotate(.428) scale(.04297)"/><path style="stroke:none;fill-rule:nonzero;fill:#25aedf;fill-opacity:1" d="M2.832 4.242h16.336a2.346 2.346 0 0 1 2.34 2.348v8.226a2.342 2.342 0 0 1-2.34 2.344H2.832a2.342 2.342 0 0 1-2.34-2.344V6.59a2.346 2.346 0 0 1 2.34-2.348zm0 0"/><path style="stroke:none;fill-rule:nonzero;fill:#25aedf;fill-opacity:1" d="M2.832 7.258h16.336c1.289 0 2.34 1.05 2.34 2.344v8.23a2.345 2.345 0 0 1-2.34 2.344H2.832a2.345 2.345 0 0 1-2.34-2.344v-8.23a2.345 2.345 0 0 1 2.34-2.344zm0 0"/><path style="stroke:none;fill-rule:nonzero;fill:#fff;fill-opacity:1" d="M17.016 11.816 11.555 6.36a.806.806 0 0 0-1.137 0L9.285 7.492l1.438 1.438a.959.959 0 0 1 .984.23c.266.266.34.652.227.988l1.386 1.387a.957.957 0 0 1 .988 1.582.957.957 0 0 1-1.562-1.043l-1.293-1.293v3.403c.09.043.176.105.254.18a.964.964 0 0 1 0 1.355.957.957 0 0 1-1.355 0 .957.957 0 0 1 .312-1.563v-3.433a.957.957 0 0 1-.52-1.254L8.728 8.05l-3.743 3.742a.806.806 0 0 0 0 1.137l5.461 5.457a.8.8 0 0 0 1.137 0l5.434-5.43a.811.811 0 0 0 0-1.14"/></svg>