<svg xmlns="http://www.w3.org/2000/svg" width="22" height="22"><path style="fill-rule:nonzero;fill:#ccc;fill-opacity:1;stroke-width:1;stroke-linecap:butt;stroke-linejoin:miter;stroke:#3b3434;stroke-opacity:1;stroke-miterlimit:4" d="M309.91 42.455c-22.728 0-41.455 20.909-45.183 48.545h179.818c-3.636-27.636-22.363-48.545-45.09-48.545zm0 0" transform="rotate(.428) scale(.04297)"/><path style="stroke:none;fill-rule:nonzero;fill:#25aedf;fill-opacity:1" d="M2.832 4.242h16.336a2.346 2.346 0 0 1 2.34 2.348v8.226a2.342 2.342 0 0 1-2.34 2.344H2.832a2.342 2.342 0 0 1-2.34-2.344V6.59a2.346 2.346 0 0 1 2.34-2.348zm0 0"/><path style="stroke:none;fill-rule:nonzero;fill:#25aedf;fill-opacity:1" d="M2.832 7.258h16.336c1.289 0 2.34 1.05 2.34 2.344v8.23a2.345 2.345 0 0 1-2.34 2.344H2.832a2.345 2.345 0 0 1-2.34-2.344v-8.23a2.345 2.345 0 0 1 2.34-2.344zm0 0"/><path style="stroke:none;fill-rule:evenodd;fill:#fff;fill-opacity:1" d="M6.242 7.688v9.152l3.223-4.578zm0 0 4.266 5.183.328.399.328-.399 4.266-5.184zm9.188 0-3.223 4.574 3.223 4.578zm0 0"/><path style="stroke:none;fill-rule:evenodd;fill:#fff;fill-opacity:1" d="m9.977 12.984-3.68 3.856h9.078l-3.68-3.856-.86 1.028zm0 0"/><path style="stroke:none;fill-rule:evenodd;fill:#a00;fill-opacity:1" d="M13.688 6.297v3.289h1.937v-3.29zm0 0"/><path style="stroke:none;fill-rule:nonzero;fill:#a00;fill-opacity:1" d="m14.656 12.168-2.074-2.781h4.148zm0 0"/></svg>