<svg xmlns="http://www.w3.org/2000/svg" width="22" height="22"><path style="stroke:none;fill-rule:nonzero;fill:#3ecdf6;fill-opacity:1" d="M1.063 2.39a.332.332 0 0 0-.333.333v16.566c0 .184.149.328.333.328h19.875a.328.328 0 0 0 .332-.328V2.723a.332.332 0 0 0-.332-.332zm0 0"/><path style="stroke:none;fill-rule:nonzero;fill:#0055d4;fill-opacity:1" d="M.73 2.46v1.442c0 .266.149.48.333.48h19.875c.183 0 .332-.214.332-.48V2.461zm0 0"/><path style="stroke:none;fill-rule:nonzero;fill:#fff;fill-opacity:1" d="M20.277 3.207a.166.166 0 1 0-.331.004.166.166 0 0 0 .331-.004zm-.996 0a.166.166 0 1 0-.332.004.166.166 0 0 0 .332-.004zm-.991 0a.166.166 0 1 0-.333.004.166.166 0 0 0 .332-.004zm0 0"/><path style="stroke:none;fill-rule:nonzero;fill:#a6e7f3;fill-opacity:1" d="M.73 2.71c0-.183.149-.327.333-.327h19.875c.183 0 .332.144.332.328zm0 0"/><path style="stroke:none;fill-rule:nonzero;fill:#fff;fill-opacity:1" d="M1.395 3.207a.166.166 0 1 0-.332.004.166.166 0 0 0 .332-.004zm.66 0a.166.166 0 1 0-.332.004.166.166 0 0 0 .332-.004zm0 0"/><path style="fill-rule:nonzero;fill:#ccc;fill-opacity:1;stroke-width:1;stroke-linecap:butt;stroke-linejoin:miter;stroke:#3b3434;stroke-opacity:1;stroke-miterlimit:4" d="M97.455 127.09c-2.91 0-5.364 2.637-5.819 6.183h23.091c-.454-3.546-2.818-6.182-5.727-6.182zm0 0" transform="rotate(.428) scale(.04297)"/><path style="stroke:none;fill-rule:nonzero;fill:#25aedf;fill-opacity:1" d="M2.836 5.77H4.94c.164 0 .301.136.301.3v1.06a.3.3 0 0 1-.3.3H2.835a.3.3 0 0 1-.3-.3V6.07c0-.164.136-.3.3-.3zm0 0"/><path style="stroke:none;fill-rule:nonzero;fill:#25aedf;fill-opacity:1" d="M2.836 6.156H4.94c.164 0 .301.137.301.305v1.055a.3.3 0 0 1-.3.3H2.835a.3.3 0 0 1-.3-.3V6.46c0-.168.136-.305.3-.305zm0 0"/><path style="fill-rule:nonzero;fill:#ccc;fill-opacity:1;stroke-width:1;stroke-linecap:butt;stroke-linejoin:miter;stroke:#3b3434;stroke-opacity:1;stroke-miterlimit:4" d="M97.455 204.364c-2.91 0-5.364 2.727-5.819 6.272h23.091c-.454-3.545-2.818-6.272-5.727-6.272zm0 0" transform="rotate(.428) scale(.04297)"/><path style="stroke:none;fill-rule:nonzero;fill:#25aedf;fill-opacity:1" d="M2.836 9.094H4.94a.3.3 0 0 1 .301.3v1.06c0 .163-.137.3-.3.3H2.835a.303.303 0 0 1-.3-.3v-1.06a.3.3 0 0 1 .3-.3zm0 0"/><path style="stroke:none;fill-rule:nonzero;fill:#25aedf;fill-opacity:1" d="M2.836 9.48H4.94c.164 0 .301.137.301.301v1.059c0 .164-.137.3-.3.3H2.835a.303.303 0 0 1-.3-.3V9.78c0-.164.136-.3.3-.3zm0 0"/></svg>