<svg xmlns="http://www.w3.org/2000/svg" width="22" height="22"><path style="stroke:none;fill-rule:nonzero;fill:#fff;fill-opacity:1" d="M21.605 11c0 5.715-4.523 10.398-10.234 10.602-5.71.199-10.55-4.16-10.953-9.86C.02 6.043 4.207 1.051 9.887.453 15.57-.148 20.703 3.86 21.504 9.52"/><path style="stroke:none;fill-rule:evenodd;fill:#35c770;fill-opacity:1" d="M11.012 3.922c-.04-.004-.078 0-.117.004-1.196.09-1.864 1.547-1.364 3.144-.61-1.027-1.406-1.816-2.41-1.808-.078 0-.16.008-.246.02-1.203.16-1.371 1.667-.11 2.37.274.157.54.34.801.543-.437-.242-.882-.398-1.312-.398-.293 0-.582.07-.852.23-.87.512-.578 1.688.535 1.922a1.646 1.646 0 0 0-.792.461c-.704.742-.012 1.82 1.187 1.617.11-.02.223-.035.34-.047-.29.133-.52.332-.66.63-.356.73.422 1.378 1.281.937.664-.344 1.535-.508 2.281-.586l.121.066-.133.075.192.316-.191.312v.004l.132.07-.133.075.192.316-.191.313v.004l.132.07-.133.074.192.317-.191.316.132.074-.133.07v.005l.192.312-.191.316.132.075-.133.074.192.316-.191.313v.004l.132.07-.133.074.192.317-.191.312v.004l.132.07-.133.075.192.316-.031.047h2.52l-.028-.047.187-.316-.132-.075.132-.07v-.004l-.187-.312.187-.317-.132-.074.132-.07v-.004l-.187-.313.187-.316-.132-.074.132-.075-.187-.316.187-.313v-.003l-.132-.07.132-.075-.187-.316.187-.317-.132-.074.132-.07v-.004l-.187-.313.187-.316-.132-.074.132-.07v-.005l-.187-.312.187-.316-.132-.075.128-.07c.754.078 1.637.242 2.309.59.86.441 1.637-.207 1.281-.938a1.294 1.294 0 0 0-.66-.629c.117.012.23.028.34.047 1.2.203 1.89-.875 1.187-1.617a1.646 1.646 0 0 0-.793-.46c1.114-.235 1.407-1.41.536-1.923-.672-.394-1.43-.242-2.164.168.261-.203.53-.386.8-.543 1.262-.703 1.094-2.21-.109-2.37-1.191-.16-2.11.788-2.781 2.003.574-1.937-.215-3.355-1.332-3.363zm0 0"/><path style="stroke:none;fill-rule:evenodd;fill:#3ac5e6;fill-opacity:1" d="M7.188 1.785a9.963 9.963 0 0 0-6.137 9.188 9.95 9.95 0 0 0 8.992 9.89V18.95a8.035 8.035 0 0 1-7.082-7.976 8.027 8.027 0 0 1 4.226-7.07zm7.625.008v2.102a8.043 8.043 0 0 1 4.226 7.078 8.04 8.04 0 0 1-7.082 7.972v1.926a9.952 9.952 0 0 0 8.992-9.898 9.948 9.948 0 0 0-6.137-9.18zm0 0"/></svg>