<svg xmlns="http://www.w3.org/2000/svg" width="22" height="22"><path style="fill-rule:nonzero;fill:#fff;fill-opacity:1;stroke-width:2.611469;stroke-linecap:butt;stroke-linejoin:miter;stroke:#999;stroke-opacity:1;stroke-miterlimit:4" d="M7.832 1006.97h32.336a5.23 5.23 0 0 1 5.224 5.225v32.335a5.23 5.23 0 0 1-5.224 5.224H7.832a5.23 5.23 0 0 1-5.224-5.224v-32.335a5.23 5.23 0 0 1 5.224-5.225zm0 0" transform="translate(0 -460.333) scale(.45833)"/><path style="stroke:none;fill-rule:nonzero;fill:#999;fill-opacity:1" d="M15.25 8.742c0-3.035-1.922-5.496-4.297-5.496-2.371 0-4.293 2.461-4.293 5.496 0 3.035 1.922 5.496 4.293 5.496 2.375 0 4.297-2.46 4.297-5.496zm0 0"/><path style="stroke:none;fill-rule:nonzero;fill:#999;fill-opacity:1" d="M14.719 13.633c-.754 1.758-2.196 2.851-3.766 2.851-1.562-.004-3.004-1.093-3.758-2.851C3.852 14.8 1.637 17.406 1.5 20.336h18.906c-.136-2.93-2.347-5.535-5.687-6.703zm0 0"/></svg>