<svg xmlns="http://www.w3.org/2000/svg" viewBox="0 0 16 16"><path style="fill:currentColor;fill-opacity:1;stroke:none;color:#bebebe" d="M3 2v12h10V5l-3-3H3zm1 1h5v3h3v7H4V3zm3.455 3a1.5 1.5 0 0 0-1.367 1H5v1h1.088A1.5 1.5 0 0 0 7.5 9a1.5 1.5 0 0 0 1.412-1H11V7H8.912A1.5 1.5 0 0 0 7.5 6a1.5 1.5 0 0 0-.045 0zM7.5 7a.5.5 0 0 1 .5.5.5.5 0 0 1-.5.5.5.5 0 0 1-.5-.5.5.5 0 0 1 .5-.5zm.955 2a1.5 1.5 0 0 0-1.367 1H5v1h2.088A1.5 1.5 0 0 0 8.5 12a1.5 1.5 0 0 0 1.412-1H11v-1H9.912A1.5 1.5 0 0 0 8.5 9a1.5 1.5 0 0 0-.045 0zm.045 1a.5.5 0 0 1 .5.5.5.5 0 0 1-.5.5.5.5 0 0 1-.5-.5.5.5 0 0 1 .5-.5z"/></svg>