<svg xmlns="http://www.w3.org/2000/svg" width="24" height="24"><path style="stroke:none;fill-rule:nonzero;fill:#ccc;fill-opacity:1" d="M14.543 1.91c-1.07 0-1.953.988-2.129 2.297h8.496c-.18-1.309-1.062-2.297-2.133-2.297zm0 0"/><path style="stroke:none;fill-rule:nonzero;fill:#a05a2c;fill-opacity:1" d="M3.02 4.566h17.96a2.574 2.574 0 0 1 2.57 2.579v9.046a2.576 2.576 0 0 1-2.57 2.586H3.02a2.576 2.576 0 0 1-2.57-2.586V7.145a2.574 2.574 0 0 1 2.57-2.579zm0 0"/><path style="stroke:none;fill-rule:nonzero;fill:#a05a2c;fill-opacity:1" d="M3.02 7.887h17.96a2.574 2.574 0 0 1 2.57 2.578v9.047a2.572 2.572 0 0 1-2.57 2.578H3.02a2.572 2.572 0 0 1-2.57-2.578v-9.047a2.574 2.574 0 0 1 2.57-2.578zm0 0"/><path style="stroke:none;fill-rule:nonzero;fill:#4caf50;fill-opacity:1" d="M22.5 13.125H18V8.25h-4.875v4.875H8.25V18h4.875v4.5H18V18h4.5zm0 0"/></svg>