<svg xmlns="http://www.w3.org/2000/svg" width="24" height="24"><path style="stroke:none;fill-rule:nonzero;fill:#ccc;fill-opacity:1" d="M14.543 1.703c-1.07 0-1.953.988-2.129 2.293h8.496c-.18-1.305-1.062-2.293-2.133-2.293zm0 0"/><path style="stroke:none;fill-rule:nonzero;fill:#25aedf;fill-opacity:1" d="M3.02 4.363h17.96a2.574 2.574 0 0 1 2.57 2.578v9.047a2.574 2.574 0 0 1-2.57 2.578H3.02a2.574 2.574 0 0 1-2.57-2.578V6.941a2.574 2.574 0 0 1 2.57-2.578zm0 0"/><path style="stroke:none;fill-rule:nonzero;fill:#25aedf;fill-opacity:1" d="M3.02 7.684h17.96a2.569 2.569 0 0 1 2.57 2.578v9.047a2.574 2.574 0 0 1-2.57 2.578H3.02a2.574 2.574 0 0 1-2.57-2.578v-9.047a2.569 2.569 0 0 1 2.57-2.578zm0 0"/><path style="stroke:none;fill-rule:nonzero;fill:#4caf50;fill-opacity:1" d="M22.5 12.922H18V8.047h-4.875v4.875H8.25v4.875h4.875v4.5H18v-4.5h4.5zm0 0"/></svg>