<svg viewBox="0 0 24 24" xmlns="http://www.w3.org/2000/svg"><defs><style type="text/css" id="current-color-scheme">.ColorScheme-Text{color:#dedede}</style></defs><path class="ColorScheme-Text" d="M12 4c4.432 0 8 3.568 8 8s-3.568 8-8 8h-1V4h1m0 1v14c3.878 0 7-3.122 7-7s-3.122-7-7-7" fill="currentColor"/><path d="M11.53 11.914V4.501l.8.062c1.866.145 3.437.85 4.904 2.2.843.776 1.065 1.052 1.482 1.847.673 1.283.872 2.186.806 3.65-.091 2.01-.752 3.399-2.304 4.84-.878.816-1.68 1.314-2.763 1.711-.702.258-1.945.512-2.52.514l-.406.002z" class="ColorScheme-Text" fill="currentColor" fill-opacity=".502"/></svg>