<svg viewBox="0 0 24 24" xmlns="http://www.w3.org/2000/svg"><defs><style type="text/css" id="current-color-scheme">.ColorScheme-Text{color:#dedede}</style></defs><path class="ColorScheme-Text" d="m10 5-7 6 3 8 4.373.025-.313 2 4.313-2.406 4.312 2.406-.812-5.062 3.5-3.594-4.844-.75-2.156-4.594-.373.748zm-.031.975 3.655 2.58-1.407 3.064-4.844.75 3.5 3.594-.344 2.187-4.029-.025-2.437-6.969zm4.404 2.8 1.625 3.47 3.625.53-2.625 2.688.625 3.812-3.25-1.78-3.25 1.78.625-3.812-2.625-2.688 3.625-.53z" fill="currentColor"/><path d="M6.342 18.368C5.51 16.02 4.612 13.349 3.782 11 5.787 9.268 7.988 7.403 10 5.675c1.352.904 2.05 1.516 3.802 2.75-.497 1.179-.823 1.949-1.362 3.395-1.574.217-3.074.41-4.684.68C9 13.587 9.735 14.444 11 15.767c-.097.802-.198 1.96-.334 2.757-1.666-.04-3.263-.075-4.324-.157z" class="ColorScheme-Text" fill="currentColor" fill-opacity=".502"/><path d="M10.618 19.527c0-.007.158-.923.35-2.036l.348-2.024-.242-.234a252.552 252.552 0 0 1-2.675-2.63c.004-.004.912-.134 2.017-.288 1.105-.155 2.013-.285 2.017-.29.004-.003.404-.815.89-1.803.485-.988.893-1.817.906-1.841.024-.043.054.014.928 1.796.65 1.326.912 1.844.937 1.854.02.007.91.134 1.98.282 1.07.148 1.967.275 1.993.281.045.012-.019.078-1.358 1.387l-1.464 1.432-.058.058.346 2.018c.19 1.109.342 2.02.337 2.026-.009.008-1.117-.567-3.073-1.594a11.538 11.538 0 0 0-.543-.276c-.016 0-3.485 1.805-3.597 1.872-.021.013-.039.018-.039.01z" class="ColorScheme-Text" fill="currentColor" fill-opacity=".502"/></svg>