<svg viewBox="0 0 24 24" xmlns="http://www.w3.org/2000/svg"><defs><style type="text/css" id="current-color-scheme">.ColorScheme-Text{color:#dedede}</style></defs><path class="ColorScheme-Text" d="m12 4-7.918 6.076L7 20h10l2.918-9.994zm0 1.32 6.598 5.005L16 19H8l-2.6-8.618z" fill="currentColor"/><path d="M7.501 19.217c-.08-.134-2.756-8.64-2.756-8.759 0-.063 1.62-1.344 3.599-2.846 3.131-2.377 3.622-2.717 3.782-2.618.101.063 1.748 1.288 3.66 2.723l3.476 2.608-.189.617-1.367 4.457-1.18 3.842-4.49.025c-2.47.014-4.51-.008-4.535-.049z" class="ColorScheme-Text" fill="currentColor" fill-opacity=".502"/></svg>