<svg viewBox="0 0 24 24" xmlns="http://www.w3.org/2000/svg"><path transform="rotate(90 13.258 10.35) scale(1.20742)" d="M11.635 8.886c.553-.385 1.258.07 1.478.613.38.938-.311 1.93-1.214 2.203-1.306.396-2.61-.551-2.928-1.814-.42-1.67.792-3.295 2.415-3.653 2.032-.448 3.982 1.032 4.378 3.016.478 2.394-1.272 4.67-3.617 5.103-2.756.508-5.359-1.512-5.828-4.218-.54-3.117 1.752-6.048 4.819-6.553 3.478-.572 6.737 1.992 7.277 5.42.416 2.64-.808 5.327-3.008 6.823" fill="none" stroke="currentColor" style="color:#dedede"/></svg>