<svg viewBox="0 0 24 24" xmlns="http://www.w3.org/2000/svg"><defs><style type="text/css" id="current-color-scheme">.ColorScheme-Text{color:#dedede}</style></defs><path class="ColorScheme-Text" d="M8 4v2.5C8 7.331 7.331 8 6.5 8H4v8h2.5c.831 0 1.5.669 1.5 1.5V20h8v-2.5c0-.831.669-1.5 1.5-1.5H20V8h-2.5c-.831 0-1.5-.669-1.5-1.5V4H8m1 1h6v1.5C15 7.885 16.115 9 17.5 9H19v6h-1.5a2.495 2.495 0 0 0-2.5 2.5V19H9v-1.5C9 16.115 7.885 15 6.5 15H5V9h1.5C7.885 9 9 7.885 9 6.5V5" fill="currentColor"/><path d="M8.701 18.48c-.016-1.178-.029-1.255-.292-1.79a2.625 2.625 0 0 0-1.248-1.23c-.503-.234-.632-.254-1.754-.273l-1.006-.017V8.734h.953c1.022-.002 1.241-.027 1.646-.19.795-.321 1.377-.975 1.623-1.823.05-.173.064-.407.077-1.254l.016-1.041h6.439v.917c0 .754.013.973.067 1.237.186.897.79 1.62 1.643 1.964.405.163.624.188 1.646.19h.952v6.444h-.81c-1.19 0-1.58.069-2.14.378-.35.193-.839.7-1.027 1.064-.281.543-.305.679-.322 1.86l-.015 1.04H8.716z" class="ColorScheme-Text" fill="currentColor" fill-opacity=".502"/></svg>