<svg viewBox="0 0 24 24" xmlns="http://www.w3.org/2000/svg"><defs><style type="text/css" id="current-color-scheme">.ColorScheme-Text{color:#dedede}</style></defs><g fill="currentColor"><path class="ColorScheme-Text" d="M12 22.588c.742-.47.007 0 .781-.488L21 16.63V7.413c-1.149-.752-.222-.144-.75-.5l-7.344-4.906c-.895-.596-.008 0-.906-.594-8.023 5.324-6.054 4.014-8.375 5.563-.632.461-.117.095-.625.468v9.188l.563.375 7.656 5.094.406.25c.283.182-1.223-.791.375.238zm.5-1.52v-7.75l.063-.093.218-.125L20 8.287v7.781zm-1 0-7.5-5V8.443l7.5 5zm.375-8.593L4.562 7.6 12 2.63l7.344 4.876-7.125 4.75z"/><path class="ColorScheme-Text" d="M12.418 21.125c.013 0 1.75-1.147 3.86-2.549l3.835-2.549V12.07c0-2.177-.011-3.959-.025-3.959-.014 0-1.75 1.149-3.86 2.553l-3.833 2.553v3.955c0 2.175.01 3.953.023 3.953z" fill-opacity=".2"/><path class="ColorScheme-Text" d="M11.91 12.605c.115-.004 7.683-5.11 7.639-5.154-.022-.02-1.722-1.164-3.778-2.539S12.022 2.42 12.008 2.43c-.64.414-7.603 5.125-7.61 5.148-.015.05 7.428 5.027 7.512 5.027z" fill-opacity=".4"/><path class="ColorScheme-Text" d="M11.572 21.188c.013 0 .024-1.752.024-3.891l-.002-3.889-3.832-2.564C5.655 9.434 3.926 8.277 3.92 8.277c-.007-.001-.012 1.753-.012 3.899v3.9l3.82 2.557a413.376 413.376 0 0 0 3.844 2.555z" fill-opacity=".6"/></g></svg>