<svg viewBox="0 0 24 24" xmlns="http://www.w3.org/2000/svg"><path d="M17.5 4C15.567 4 14 5.79 14 8v3c0 2.21 1.567 4 3.5 4s3.5-1.79 3.5-4V8c0-2.21-1.567-4-3.5-4zm0 1C18.88 5 20 6.343 20 8v3c0 1.657-1.12 3-2.5 3S15 12.657 15 11V8c0-1.657 1.12-3 2.5-3z" fill="#b3b3b3"/><path d="m16.086 16-.707.707 1.414 1.414-1.414 1.414.707.707 1.414-1.414 1.414 1.414.707-.707-1.414-1.414 1.414-1.414-.707-.707-1.414 1.414z" fill="#da4453"/><path d="M8.5 3C6.567 3 5 4.79 5 7v3c0 2.21 1.567 4 3.5 4s3.5-1.79 3.5-4V7c0-2.21-1.567-4-3.5-4zm0 1C9.88 4 11 5.343 11 7v3c0 1.657-1.12 3-2.5 3S6 11.657 6 10V7c0-1.657 1.12-3 2.5-3zM3 13v1h1v-1z" fill="currentColor" style="color:#dedede" transform="translate(1 1)"/></svg>