<svg xmlns="http://www.w3.org/2000/svg" width="24" height="24"><path style="stroke:none;fill-rule:nonzero;fill:#25aedf;fill-opacity:1" d="M4.438.559h15.125a3.876 3.876 0 0 1 3.878 3.878v15.125a3.876 3.876 0 0 1-3.878 3.88H4.438a3.876 3.876 0 0 1-3.88-3.88V4.438A3.876 3.876 0 0 1 4.439.56zm0 0"/><path style="stroke:none;fill-rule:evenodd;fill:#fff;fill-opacity:1" d="m12 4.77-7.23 9.039h1.804L12 6.574l5.426 7.235h-1.63v5.421h1.813v-5.42h1.621zm-5.426 9.039v5.421h1.809v-5.42zm9.043-9.04v3.614l1.809 2.168V4.77zM12 10.013a1.265 1.265 0 1 0 0 2.53 1.265 1.265 0 0 0 0-2.53zm-2.715 7.414v1.804h5.43v-1.804zm0 0"/></svg>