<svg xmlns="http://www.w3.org/2000/svg" width="24" height="24"><path style="stroke:none;fill-rule:nonzero;fill:#ccc;fill-opacity:1" d="M14.543 1.91c-1.07 0-1.953.988-2.129 2.297h8.496c-.18-1.309-1.062-2.297-2.133-2.297zm0 0"/><path style="stroke:none;fill-rule:nonzero;fill:#00d455;fill-opacity:1" d="M3.02 4.566h17.96a2.574 2.574 0 0 1 2.57 2.579v9.046a2.576 2.576 0 0 1-2.57 2.586H3.02a2.576 2.576 0 0 1-2.57-2.586V7.145a2.574 2.574 0 0 1 2.57-2.579zm0 0"/><path style="stroke:none;fill-rule:nonzero;fill:#00d455;fill-opacity:1" d="M3.02 7.887h17.96a2.574 2.574 0 0 1 2.57 2.578v9.047a2.572 2.572 0 0 1-2.57 2.578H3.02a2.572 2.572 0 0 1-2.57-2.578v-9.047a2.574 2.574 0 0 1 2.57-2.578zm0 0"/><path style="stroke:none;fill-rule:evenodd;fill:#4caf50;fill-opacity:1" d="M22.5 16.125c.035 1.598-.816 3.086-2.223 3.895a4.598 4.598 0 0 1-4.554 0c-1.407-.81-2.258-2.297-2.223-3.895a4.383 4.383 0 0 1 2.223-3.895 4.598 4.598 0 0 1 4.554 0 4.383 4.383 0 0 1 2.223 3.895zm0 0"/><path style="stroke:none;fill-rule:nonzero;fill:#fff;fill-opacity:1" d="M20.465 13.297a.448.448 0 0 0-.235.176l-2.453 2.379-1.527-1.461a.471.471 0 0 0-.469-.325.458.458 0 0 0-.433.375.472.472 0 0 0 .273.5l1.844 1.825c.172.16.45.16.625 0l2.765-2.743a.445.445 0 0 0 .04-.488.448.448 0 0 0-.43-.238zm0 0"/></svg>