<svg viewBox="0 0 24 24" xmlns="http://www.w3.org/2000/svg"><path d="M1 3v16h13v-1H2v-.586l.463-.463 6.267-6.267 1.454 1.45.814.815H11l.816-.814 1.454-1.451L14.586 12H16l-2.023-2.023 5.752-5.754L19.95 4H20v8h1V3H1zm1 1h.049l.222.223 5.752 5.754L2 16V4zm1.463 0h15.074L11 11.537 3.463 4z" fill="currentColor" style="color:#dedede" transform="translate(1 1)"/><path d="M22 17c0-1.662-1.338-3-3-3s-3 1.338-3 3 1.338 3 3 3 3-1.338 3-3zm-1 0c0 .372-.106.714-.281 1.012l-2.73-2.73c.297-.176.64-.282 1.011-.282 1.108 0 2 .892 2 2zm-.988 1.719A1.996 1.996 0 0 1 17 17c0-.372.106-.714.281-1.012z" fill="#da4453"/></svg>