<svg xmlns="http://www.w3.org/2000/svg" width="24" height="24"><path style="stroke:none;fill-rule:nonzero;fill:#c19553;fill-opacity:1" d="M1.5 0C.848 0 0 .848 0 1.5V21c0 .613.883 1.5 1.5 1.5H21c.613 0 1.5-.887 1.5-1.5V1.5C22.5.883 21.613 0 21 0zm0 0"/><path style="stroke:none;fill-rule:nonzero;fill:#fff;fill-opacity:.196078" d="M1.5 0C.848 0 0 .848 0 1.5v6h22.5v-6C22.5.883 21.613 0 21 0zm0 0"/><path style="stroke:none;fill-rule:nonzero;fill:#fff;fill-opacity:.392157" d="M9 3v9h4.5V3zm0 0"/><path style="stroke:none;fill-rule:nonzero;fill:#cb4b16;fill-opacity:1" d="M17.145 24 24 18h-4.5v-7.5H15V18h-4.5zm0 0"/></svg>