<svg xmlns="http://www.w3.org/2000/svg" width="24" height="24"><path style="stroke:none;fill-rule:nonzero;fill:#c19553;fill-opacity:1" d="M1.5 0C.848 0 0 .848 0 1.5V21c0 .613.883 1.5 1.5 1.5H21c.613 0 1.5-.887 1.5-1.5V1.5C22.5.883 21.613 0 21 0zm0 0"/><path style="stroke:none;fill-rule:nonzero;fill:#fff;fill-opacity:.196078" d="M1.5 0C.848 0 0 .848 0 1.5v6h22.5v-6C22.5.883 21.613 0 21 0zm0 0"/><path style="stroke:none;fill-rule:nonzero;fill:#fff;fill-opacity:.392157" d="M9 3v9h4.5V3zm0 0"/><path style="stroke:none;fill-rule:evenodd;fill:#25aedf;fill-opacity:1" d="M24 19.313A4.686 4.686 0 0 1 19.312 24a4.686 4.686 0 0 1-4.687-4.688 4.686 4.686 0 0 1 4.688-4.687A4.686 4.686 0 0 1 24 19.313zm0 0"/><path style="stroke:none;fill-rule:nonzero;fill:#fff;fill-opacity:1" d="M19.012 16.543v.398a2.27 2.27 0 0 0-1.32.637 2.264 2.264 0 0 0-.637 1.754l.73.2a1.543 1.543 0 0 1 .406-1.458c.223-.222.508-.37.82-.422v.493h.071l1.355-.782zm1.812 1.016-.637.363c.06.043.118.094.168.152.454.45.582 1.133.32 1.711l-.374-.21-.035.062v.691c-.012.008-.02.02-.032.027l.032.024v.82l1.43-.82-.419-.242a2.234 2.234 0 0 0-.422-2.559c-.007-.008-.023-.012-.03-.02zm-3.746 2.156.426 1.594.394-.399c.57.45 1.317.594 2.012.383v-.742a1.528 1.528 0 0 1-1.515-.14l.25-.243-.051-.055zm0 0"/></svg>