<svg xmlns="http://www.w3.org/2000/svg" width="24" height="24"><path style="stroke:none;fill-rule:nonzero;fill:#c19553;fill-opacity:1" d="M1.5 0C.848 0 0 .848 0 1.5V21c0 .617.883 1.5 1.5 1.5H21c.617 0 1.5-.883 1.5-1.5V1.5C22.5.883 21.617 0 21 0zm0 0"/><path style="stroke:none;fill-rule:nonzero;fill:#fff;fill-opacity:.196078" d="M1.5 0C.848 0 0 .848 0 1.5v6h22.5v-6C22.5.883 21.617 0 21 0zm0 0"/><path style="stroke:none;fill-rule:nonzero;fill:#fff;fill-opacity:.392157" d="M9 3v9h4.5V3zm0 0"/><path style="stroke:none;fill-rule:evenodd;fill:#dc322f;fill-opacity:1" d="M24 19.313A4.686 4.686 0 0 1 19.312 24a4.686 4.686 0 0 1-4.687-4.688 4.686 4.686 0 0 1 4.688-4.687A4.686 4.686 0 0 1 24 19.313zm0 0"/><path style="stroke:none;fill-rule:nonzero;fill:#fff;fill-opacity:1" d="m17.238 16.395-.843.843 2.078 2.075-2.078 2.074.843.843 2.075-2.078 2.074 2.078.843-.843-2.078-2.075 2.078-2.074-.843-.843-2.075 2.078zm0 0"/></svg>