<svg xmlns="http://www.w3.org/2000/svg" viewBox="0 0 24 24"><g style="fill:currentColor;fill-opacity:1;stroke:none;color:#da4453"><path d="M12 4c4.432 0 8 3.568 8 8 0 1.442-.383 2.79-1.045 3.955l-.738-.738A6.985 6.985 0 0 0 19 12c0-3.878-3.122-7-7-7a6.985 6.985 0 0 0-3.217.783l-.738-.738A7.982 7.982 0 0 1 12 4M5.045 8.045l.738.738A6.985 6.985 0 0 0 5 12c0 3.878 3.122 7 7 7a6.985 6.985 0 0 0 3.217-.783l.738.738A7.982 7.982 0 0 1 12 20c-4.432 0-8-3.568-8-8 0-1.442.383-2.79 1.045-3.955"/><path d="M8.5 10.998h7v2h-7z"/></g></svg>