<svg viewBox="0 0 24 24" xmlns="http://www.w3.org/2000/svg"><defs><style type="text/css" id="current-color-scheme">.ColorScheme-Text{color:#dedede}</style></defs><path d="M5.92 16.519v-2.637h3.246v5.273H5.919zm7.855 1.573c.008-.014.512-.808 1.121-1.764.976-1.532 1.11-1.735 1.131-1.708.045.06 2.219 3.476 2.219 3.487 0 .005-1.01.01-2.243.01-1.917 0-2.24-.004-2.228-.025zm.087-10.571V4.818h5.323v5.406h-5.323zm-6.586 2.643c-.653-.076-1.198-.327-1.634-.75a2.597 2.597 0 0 1-.791-1.54 3.388 3.388 0 0 1 0-.706 2.684 2.684 0 0 1 2.477-2.28c.828-.051 1.558.221 2.13.795.363.366.595.793.712 1.314.057.255.058.796.001 1.052a2.685 2.685 0 0 1-2.127 2.073c-.181.036-.614.06-.768.042z" class="ColorScheme-Text" fill="currentColor" fill-opacity=".5"/><path d="M7.5 4C5.561 4 4 5.561 4 7.5S5.561 11 7.5 11 11 9.439 11 7.5 9.439 4 7.5 4zM13 4v7h7V4h-7zM7.5 5A2.5 2.5 0 0 1 10 7.5 2.5 2.5 0 0 1 7.5 10 2.5 2.5 0 0 1 5 7.5 2.5 2.5 0 0 1 7.5 5zM14 5h5v5h-5V5zm-9 8v7h5v-7H5zm11 0-4 6h8l-4-6zM6 14h3v5H6v-5zm10 .72 1.064 1.64L18.13 18h-4.26l1.065-1.64L16 14.72z" class="ColorScheme-Text" fill="currentColor"/></svg>