<svg xmlns="http://www.w3.org/2000/svg" width="24" height="24"><path style="stroke:none;fill-rule:evenodd;fill:#dc322f;fill-opacity:1" d="M21.375 12c0 5.176-4.2 9.375-9.375 9.375-5.176 0-9.375-4.2-9.375-9.375 0-5.176 4.2-9.375 9.375-9.375 5.176 0 9.375 4.2 9.375 9.375zm0 0"/><path style="stroke:none;fill-rule:nonzero;fill:#fff;fill-opacity:1" d="M10.957 5.258h2.086v6.14h-2.086zM12 13.64a2.502 2.502 0 0 0 0 5.005 2.502 2.502 0 0 0 0-5.004zm0 .637a1.867 1.867 0 1 1 0 3.735 1.867 1.867 0 1 1 0-3.734zm0 0"/></svg>