<svg xmlns="http://www.w3.org/2000/svg" width="24" height="24"><path style="stroke:none;fill-rule:evenodd;fill:#00d455;fill-opacity:1" d="M12 2.625A9.372 9.372 0 0 1 21.375 12c0 5.184-4.2 9.375-9.375 9.375A9.372 9.372 0 0 1 2.625 12c0-5.184 4.2-9.375 9.375-9.375zm0 0"/><path style="stroke:none;fill-rule:nonzero;fill:#fff;fill-opacity:1" d="M17.773 12 13.95 9.3v1.106L16.211 12l-2.262 1.594v1.105zm-7.41-4.629h-1.66v9.258h1.66zm0 0"/><path style="stroke:none;fill-rule:nonzero;fill:#fff;fill-opacity:1" d="M16.375 10.988h-4.55v2.024h4.55zm0 0"/><path style="stroke:none;fill-rule:nonzero;fill:#fff;fill-opacity:1" d="M14.875 10.164h-.941v3.469h.941zm0 0"/></svg>