<svg xmlns="http://www.w3.org/2000/svg" width="24" height="24"><path style="stroke:none;fill-rule:nonzero;fill:#c19553;fill-opacity:1" d="M2.707 1.5c-.605 0-1.207.602-1.207 1.207v18.625c0 .566.602 1.168 1.168 1.168h18.664c.566 0 1.168-.602 1.168-1.168V2.668c0-.566-.602-1.168-1.168-1.168zm0 0"/><path style="stroke:none;fill-rule:nonzero;fill:#fff;fill-opacity:.196078" d="M2.707 1.5c-.605 0-1.207.602-1.207 1.207V9h21V2.668c0-.566-.602-1.168-1.168-1.168zm0 0"/><path style="stroke:none;fill-rule:nonzero;fill:#fff;fill-opacity:1" d="M10.5 1.5V3H12v1.5h-1.5V6H12v1.5h-1.5V9l1.5.012v3L10.5 12v3h3v-3l-1.5.012V10.5h1.5V9l-1.5.012V7.5h1.5V6H12V4.5h1.5V3H12V1.5zm0 0"/><path style="stroke:none;fill-rule:evenodd;fill:#859900;fill-opacity:1" d="M14.48 7.875c.211 0 .516.188.891.563l7.5 6c1.508 1.503 1.5 1.5 0 3l-7.5 6c-1.125 1.125-1.43.562-1.5-1.688-.023-.75 0-1.688 0-2.813h-.047c-7.453 0-10.453-4.5-10.406-10.546 2.953 3.046 5.953 4.546 10.453 4.453 0-1.074-.023-1.996 0-2.719.047-1.5.188-2.25.61-2.25zm0 0"/></svg>