<svg viewBox="0 0 24 24" xmlns="http://www.w3.org/2000/svg"><path fill="currentColor" d="M19 11c0 1.442-.383 2.79-1.045 3.955l-.738-.738.002-.002-2.778-2.78.707-.706 2.481 2.482A6.946 6.946 0 0 0 18 11c0-3.878-3.122-7-7-7a6.985 6.985 0 0 0-3.217.783l-.738-.738A7.981 7.981 0 0 1 11 3c4.432 0 8 3.568 8 8zm-4.045 6.955A7.981 7.981 0 0 1 11 19c-4.432 0-8-3.568-8-8 0-1.442.383-2.79 1.045-3.955l.684.684.002-.002 2.828 2.828-.707.707-2.479-2.479A6.944 6.944 0 0 0 4 11c0 3.878 3.122 7 7 7a6.985 6.985 0 0 0 3.217-.783z" style="color:#dedede" transform="translate(1 1)"/></svg>