
<svg xmlns="http://www.w3.org/2000/svg" xmlns:xlink="http://www.w3.org/1999/xlink" width="32px" height="32px" viewBox="0 0 32 32" version="1.1">
<g id="surface1">
<path style="fill-rule:nonzero;fill:rgb(100%,100%,100%);fill-opacity:1;stroke-width:28.191782;stroke-linecap:butt;stroke-linejoin:miter;stroke:rgb(6.27451%,63.137257%,37.254903%);stroke-opacity:1;stroke-miterlimit:4;" d="M 294.642843 57.996122 L 643.642843 57.996122 C 674.830343 57.996122 700.080343 83.246122 700.080343 114.433622 L 700.080343 463.433622 C 700.080343 494.621122 674.830343 519.871122 643.642843 519.871122 L 294.642843 519.871122 C 263.455343 519.871122 238.205343 494.621122 238.205343 463.433622 L 238.205343 114.433622 C 238.205343 83.246122 263.455343 57.996122 294.642843 57.996122 Z M 294.642843 57.996122 " transform="matrix(0.0625,0,0,0.0625,-13.321428,-2.058351)"/>
<path style=" stroke:none;fill-rule:nonzero;fill:rgb(5.882353%,63.137257%,37.254903%);fill-opacity:0.996078;" d="M 17.972656 7.277344 C 15.375 7.277344 13.058594 8.839844 12.019531 11.269531 C 10.238281 11.503906 8.722656 12.667969 8.019531 14.371094 C 5.339844 14.480469 3.1875 16.78125 3.1875 19.542969 C 3.1875 22.398438 5.433594 24.722656 8.214844 24.722656 L 23.785156 24.722656 C 26.566406 24.722656 28.8125 22.398438 28.8125 19.542969 C 28.8125 16.941406 26.96875 14.773438 24.476562 14.425781 C 24.488281 14.265625 24.496094 14.105469 24.496094 13.949219 C 24.496094 10.269531 21.5625 7.277344 17.972656 7.277344 Z M 14.976562 14.289062 L 18.289062 14.289062 L 18.308594 16.445312 L 18.328125 18.605469 L 19.304688 18.613281 C 19.839844 18.621094 20.296875 18.644531 20.316406 18.660156 C 20.335938 18.683594 19.585938 19.566406 18.527344 20.769531 C 17.519531 21.910156 16.671875 22.84375 16.636719 22.847656 C 16.574219 22.859375 12.941406 18.769531 12.941406 18.6875 C 12.941406 18.660156 13.292969 18.636719 13.941406 18.625 L 14.9375 18.605469 L 14.957031 16.445312 Z M 14.976562 14.289062 "/>
</g>
</svg>
