
<svg xmlns="http://www.w3.org/2000/svg" xmlns:xlink="http://www.w3.org/1999/xlink" width="32px" height="32px" viewBox="0 0 32 32" version="1.1">
<g id="surface1">
<path style="fill-rule:nonzero;fill:rgb(100%,100%,100%);fill-opacity:1;stroke-width:28.191782;stroke-linecap:butt;stroke-linejoin:miter;stroke:rgb(83.137256%,10.196079%,10.196079%);stroke-opacity:1;stroke-miterlimit:4;" d="M 81.5 25.0625 L 430.5 25.0625 C 461.6875 25.0625 486.9375 50.3125 486.9375 81.5 L 486.9375 430.5 C 486.9375 461.6875 461.6875 486.9375 430.5 486.9375 L 81.5 486.9375 C 50.3125 486.9375 25.0625 461.6875 25.0625 430.5 L 25.0625 81.5 C 25.0625 50.3125 50.3125 25.0625 81.5 25.0625 Z M 81.5 25.0625 " transform="matrix(0.0625,0,0,0.0625,0,0)"/>
<path style=" stroke:none;fill-rule:evenodd;fill:rgb(83.137256%,10.196079%,10.196079%);fill-opacity:1;" d="M 27.488281 16 C 27.488281 22.34375 22.34375 27.488281 16 27.488281 C 9.65625 27.488281 4.511719 22.34375 4.511719 16 C 4.511719 9.65625 9.65625 4.511719 16 4.511719 C 22.34375 4.511719 27.488281 9.65625 27.488281 16 "/>
<path style=" stroke:none;fill-rule:nonzero;fill:rgb(100%,100%,100%);fill-opacity:1;" d="M 23.304688 16.058594 C 23.304688 20.113281 20.015625 23.402344 15.960938 23.402344 C 11.90625 23.402344 8.621094 20.113281 8.621094 16.058594 C 8.621094 12.003906 11.90625 8.714844 15.960938 8.714844 C 20.015625 8.714844 23.304688 12.003906 23.304688 16.058594 Z M 23.304688 16.058594 "/>
<path style=" stroke:none;fill-rule:nonzero;fill:rgb(0%,0%,0%);fill-opacity:1;" d="M 23.304688 16.058594 C 23.304688 20.113281 20.015625 23.402344 15.960938 23.402344 C 11.90625 23.402344 8.621094 20.113281 8.621094 16.058594 C 8.621094 12.003906 11.90625 8.714844 15.960938 8.714844 C 20.015625 8.714844 23.304688 12.003906 23.304688 16.058594 Z M 23.304688 16.058594 "/>
<path style=" stroke:none;fill-rule:nonzero;fill:rgb(100%,100%,100%);fill-opacity:1;" d="M 19.351562 16.058594 C 19.351562 17.929688 17.832031 19.449219 15.960938 19.449219 C 14.089844 19.449219 12.570312 17.929688 12.570312 16.058594 C 12.570312 14.183594 14.089844 12.667969 15.960938 12.667969 C 17.832031 12.667969 19.351562 14.183594 19.351562 16.058594 Z M 19.351562 16.058594 "/>
<path style=" stroke:none;fill-rule:nonzero;fill:rgb(0%,0%,0%);fill-opacity:1;" d="M 17.238281 16.886719 C 17.238281 17.042969 17.210938 17.191406 17.160156 17.324219 C 17.109375 17.457031 17.03125 17.574219 16.925781 17.667969 C 16.824219 17.769531 16.695312 17.84375 16.535156 17.898438 C 16.371094 17.953125 16.183594 17.980469 15.964844 17.980469 C 15.746094 17.980469 15.554688 17.953125 15.394531 17.898438 C 15.234375 17.84375 15.101562 17.769531 14.996094 17.671875 C 14.890625 17.574219 14.8125 17.460938 14.761719 17.328125 C 14.714844 17.191406 14.6875 17.046875 14.6875 16.890625 C 14.6875 16.753906 14.707031 16.632812 14.75 16.527344 C 14.792969 16.421875 14.847656 16.332031 14.917969 16.253906 C 14.988281 16.175781 15.066406 16.113281 15.152344 16.066406 C 15.246094 16.019531 15.339844 15.988281 15.433594 15.972656 L 15.433594 15.964844 C 15.328125 15.9375 15.234375 15.898438 15.152344 15.84375 C 15.070312 15.789062 15.003906 15.722656 14.945312 15.644531 C 14.890625 15.570312 14.847656 15.484375 14.816406 15.390625 C 14.789062 15.296875 14.777344 15.199219 14.777344 15.09375 C 14.777344 14.960938 14.800781 14.839844 14.847656 14.722656 C 14.902344 14.605469 14.976562 14.503906 15.074219 14.417969 C 15.175781 14.332031 15.296875 14.261719 15.441406 14.214844 C 15.589844 14.160156 15.761719 14.136719 15.953125 14.136719 C 16.15625 14.136719 16.332031 14.160156 16.480469 14.214844 C 16.628906 14.261719 16.753906 14.332031 16.851562 14.421875 C 16.949219 14.507812 17.023438 14.609375 17.070312 14.726562 C 17.121094 14.84375 17.144531 14.964844 17.144531 15.097656 C 17.144531 15.199219 17.128906 15.300781 17.097656 15.394531 C 17.070312 15.488281 17.027344 15.574219 16.972656 15.648438 C 16.917969 15.726562 16.847656 15.792969 16.761719 15.847656 C 16.683594 15.898438 16.589844 15.933594 16.480469 15.957031 L 16.480469 15.96875 C 16.589844 15.984375 16.6875 16.019531 16.777344 16.066406 C 16.871094 16.113281 16.949219 16.175781 17.019531 16.253906 C 17.085938 16.328125 17.136719 16.417969 17.175781 16.523438 C 17.214844 16.628906 17.238281 16.75 17.238281 16.886719 Z M 16.648438 15.125 C 16.648438 15.03125 16.636719 14.945312 16.609375 14.867188 C 16.585938 14.789062 16.546875 14.722656 16.492188 14.667969 C 16.4375 14.613281 16.367188 14.566406 16.277344 14.539062 C 16.191406 14.507812 16.082031 14.492188 15.953125 14.492188 C 15.828125 14.492188 15.722656 14.507812 15.636719 14.539062 C 15.546875 14.566406 15.476562 14.613281 15.417969 14.667969 C 15.363281 14.722656 15.324219 14.789062 15.300781 14.867188 C 15.277344 14.945312 15.261719 15.03125 15.261719 15.125 C 15.261719 15.199219 15.273438 15.277344 15.292969 15.351562 C 15.3125 15.429688 15.347656 15.5 15.398438 15.566406 C 15.449219 15.628906 15.519531 15.679688 15.609375 15.722656 C 15.699219 15.761719 15.816406 15.78125 15.957031 15.78125 C 16.105469 15.78125 16.230469 15.761719 16.316406 15.722656 C 16.410156 15.679688 16.480469 15.628906 16.527344 15.566406 C 16.578125 15.5 16.609375 15.429688 16.621094 15.351562 C 16.636719 15.277344 16.644531 15.199219 16.644531 15.125 Z M 16.738281 16.839844 C 16.738281 16.75 16.726562 16.664062 16.703125 16.582031 C 16.675781 16.496094 16.636719 16.421875 16.574219 16.355469 C 16.515625 16.292969 16.433594 16.238281 16.332031 16.199219 C 16.230469 16.160156 16.105469 16.140625 15.953125 16.140625 C 15.8125 16.140625 15.691406 16.160156 15.59375 16.199219 C 15.496094 16.238281 15.417969 16.292969 15.355469 16.355469 C 15.296875 16.421875 15.253906 16.5 15.222656 16.585938 C 15.195312 16.667969 15.179688 16.757812 15.179688 16.851562 C 15.179688 16.964844 15.195312 17.070312 15.222656 17.167969 C 15.253906 17.261719 15.296875 17.339844 15.359375 17.410156 C 15.417969 17.476562 15.503906 17.527344 15.601562 17.566406 C 15.703125 17.605469 15.824219 17.621094 15.96875 17.621094 C 16.113281 17.621094 16.234375 17.605469 16.332031 17.566406 C 16.433594 17.527344 16.511719 17.476562 16.574219 17.410156 C 16.632812 17.339844 16.675781 17.257812 16.699219 17.164062 C 16.726562 17.066406 16.738281 16.957031 16.738281 16.839844 Z M 16.738281 16.839844 "/>
</g>
</svg>
