
<svg xmlns="http://www.w3.org/2000/svg" xmlns:xlink="http://www.w3.org/1999/xlink" width="32px" height="32px" viewBox="0 0 32 32" version="1.1">
<g id="surface1">
<path style="fill-rule:nonzero;fill:rgb(100%,100%,100%);fill-opacity:1;stroke-width:28.191782;stroke-linecap:butt;stroke-linejoin:miter;stroke:rgb(20%,20%,20%);stroke-opacity:1;stroke-miterlimit:4;" d="M 81.5 25.0625 L 430.5 25.0625 C 461.6875 25.0625 486.9375 50.3125 486.9375 81.5 L 486.9375 430.5 C 486.9375 461.6875 461.6875 486.9375 430.5 486.9375 L 81.5 486.9375 C 50.3125 486.9375 25.0625 461.6875 25.0625 430.5 L 25.0625 81.5 C 25.0625 50.3125 50.3125 25.0625 81.5 25.0625 Z M 81.5 25.0625 " transform="matrix(0.0625,0,0,0.0625,0,0)"/>
<path style=" stroke:none;fill-rule:nonzero;fill:rgb(20%,20%,20%);fill-opacity:1;" d="M 12.617188 12.171875 C 13.753906 11.527344 14.878906 10.871094 16.011719 10.21875 C 17.152344 10.871094 18.285156 11.527344 19.425781 12.175781 C 18.285156 12.828125 17.152344 13.480469 16.011719 14.136719 C 14.882812 13.480469 13.742188 12.832031 12.617188 12.171875 Z M 7.683594 11.210938 C 7.683594 11.863281 7.683594 12.515625 7.683594 13.167969 C 10.464844 14.753906 13.234375 16.351562 16.011719 17.933594 C 17.6875 16.964844 19.363281 15.996094 21.035156 15.027344 C 21.039062 16.308594 21.027344 17.585938 21.042969 18.867188 C 19.378906 19.859375 17.683594 20.800781 16.011719 21.78125 C 14.339844 20.808594 12.65625 19.847656 10.976562 18.878906 C 9.867188 19.507812 8.761719 20.136719 7.652344 20.769531 C 10.429688 22.390625 13.230469 23.972656 16.011719 25.578125 C 18.789062 23.984375 21.574219 22.40625 24.347656 20.800781 C 24.339844 17.605469 24.339844 14.40625 24.347656 11.207031 C 21.574219 9.605469 18.792969 8.015625 16.011719 6.421875 C 13.238281 8.015625 10.457031 9.613281 7.683594 11.210938 Z M 7.683594 11.210938 "/>
</g>
</svg>
