
<svg xmlns="http://www.w3.org/2000/svg" xmlns:xlink="http://www.w3.org/1999/xlink" width="32px" height="32px" viewBox="0 0 32 32" version="1.1">
<g id="surface1">
<path style="fill-rule:nonzero;fill:rgb(100%,100%,100%);fill-opacity:1;stroke-width:28.191782;stroke-linecap:butt;stroke-linejoin:miter;stroke:rgb(10.588235%,63.921571%,53.725493%);stroke-opacity:1;stroke-miterlimit:4;" d="M 81.5 25.0625 L 430.5 25.0625 C 461.6875 25.0625 486.9375 50.3125 486.9375 81.5 L 486.9375 430.5 C 486.9375 461.6875 461.6875 486.9375 430.5 486.9375 L 81.5 486.9375 C 50.3125 486.9375 25.0625 461.6875 25.0625 430.5 L 25.0625 81.5 C 25.0625 50.3125 50.3125 25.0625 81.5 25.0625 Z M 81.5 25.0625 " transform="matrix(0.0625,0,0,0.0625,0,0)"/>
<path style=" stroke:none;fill-rule:nonzero;fill:rgb(10.588235%,63.921571%,53.725493%);fill-opacity:1;" d="M 6.53125 26.789062 C 6.214844 26.761719 5.96875 26.652344 5.753906 26.449219 C 5.167969 25.890625 5.039062 24.621094 5.371094 22.691406 C 6.027344 18.847656 8.34375 13.292969 10.792969 9.691406 C 12.519531 7.160156 14.164062 5.683594 15.691406 5.296875 C 16.054688 5.207031 16.402344 5.171875 16.648438 5.203125 C 17.847656 5.363281 19.089844 6.429688 20.445312 8.472656 C 21.96875 10.761719 23.605469 14.292969 25.066406 18.449219 C 25.984375 21.066406 26.667969 23.519531 26.792969 24.664062 C 26.84375 25.113281 26.761719 25.359375 26.519531 25.46875 C 26.449219 25.5 26.367188 25.527344 26.339844 25.527344 C 26.242188 25.527344 26.035156 25.480469 25.96875 25.445312 C 25.804688 25.363281 25.542969 24.996094 25.191406 24.371094 C 24.988281 24.011719 24.152344 22.335938 23.792969 21.578125 C 22.574219 18.996094 21.347656 16.527344 20.550781 15.066406 C 18.902344 12.039062 17.585938 10.277344 16.632812 9.816406 C 16.082031 9.554688 15.550781 9.769531 14.730469 10.589844 C 13.863281 11.457031 12.960938 12.746094 11.957031 14.542969 C 11.617188 15.160156 10.890625 16.621094 10.59375 17.296875 C 9.671875 19.386719 9.089844 21.222656 8.980469 22.402344 C 8.941406 22.816406 8.996094 23.125 9.113281 23.164062 C 9.175781 23.183594 9.566406 23.136719 9.824219 23.082031 C 10.316406 22.976562 11.503906 22.582031 12.777344 22.097656 C 13.324219 21.894531 14.773438 21.308594 15.941406 20.832031 C 18.421875 19.808594 19.152344 19.527344 20.105469 19.230469 C 20.40625 19.136719 20.484375 19.121094 20.707031 19.109375 C 20.941406 19.097656 20.976562 19.105469 21.074219 19.148438 C 21.214844 19.21875 21.296875 19.34375 21.308594 19.507812 C 21.320312 19.613281 21.308594 19.65625 21.246094 19.785156 C 21.144531 19.992188 20.957031 20.214844 20.609375 20.554688 C 19.558594 21.570312 17.667969 22.925781 15.839844 23.972656 C 13.347656 25.394531 10.976562 26.308594 8.886719 26.648438 C 8.042969 26.785156 7.121094 26.839844 6.53125 26.789062 Z M 6.53125 26.789062 "/>
</g>
</svg>
