
<svg xmlns="http://www.w3.org/2000/svg" xmlns:xlink="http://www.w3.org/1999/xlink" width="32px" height="32px" viewBox="0 0 32 32" version="1.1">
<g id="surface1">
<path style=" stroke:none;fill-rule:evenodd;fill:rgb(0%,25.882354%,31.764707%);fill-opacity:1;" d="M 5.699219 0.960938 L 26.300781 0.960938 C 28.972656 0.960938 31.136719 3.128906 31.136719 5.800781 L 31.136719 26.199219 C 31.136719 28.875 28.972656 31.039062 26.300781 31.039062 L 5.699219 31.039062 C 3.027344 31.039062 0.863281 28.875 0.863281 26.199219 L 0.863281 5.800781 C 0.863281 3.128906 3.027344 0.960938 5.699219 0.960938 Z M 5.699219 0.960938 "/>
<path style=" stroke:none;fill-rule:evenodd;fill:rgb(31.764707%,59.215689%,99.215686%);fill-opacity:1;" d="M 6.605469 2.285156 L 25.394531 2.285156 C 27.828125 2.285156 29.804688 4.261719 29.804688 6.699219 L 29.804688 25.300781 C 29.804688 27.738281 27.828125 29.714844 25.394531 29.714844 L 6.605469 29.714844 C 4.171875 29.714844 2.195312 27.738281 2.195312 25.300781 L 2.195312 6.699219 C 2.195312 4.261719 4.171875 2.285156 6.605469 2.285156 Z M 6.605469 2.285156 "/>
<path style="fill-rule:nonzero;fill:rgb(0%,25.882354%,31.764707%);fill-opacity:1;stroke-width:11.999995;stroke-linecap:round;stroke-linejoin:miter;stroke:rgb(0%,25.882354%,31.764707%);stroke-opacity:1;stroke-miterlimit:4;" d="M 61.98967 258.816877 C 61.98967 366.833635 149.543429 454.387394 257.560186 454.387394 C 365.576944 454.387394 453.194056 366.833635 453.194056 258.816877 C 453.194056 150.80012 365.576944 63.246361 257.560186 63.246361 C 149.543429 63.246361 61.98967 150.80012 61.98967 258.816877 Z M 61.98967 258.816877 " transform="matrix(0.0616585,0,0,0.0616585,0.0996821,0.0886026)"/>
<path style="fill-rule:nonzero;fill:rgb(100%,100%,100%);fill-opacity:1;stroke-width:10.19203;stroke-linecap:round;stroke-linejoin:miter;stroke:rgb(0%,25.882354%,31.764707%);stroke-opacity:1;stroke-miterlimit:4;" d="M 257.560186 92.705476 C 349.295239 92.705476 423.671587 167.081825 423.671587 258.816877 C 423.671587 350.55193 349.295239 424.928278 257.560186 424.928278 C 250.971481 424.928278 244.509481 424.54816 238.110835 423.787925 L 242.292128 388.246928 C 247.29701 388.880457 252.428598 389.197222 257.560186 389.197222 C 284.675243 389.197222 309.889712 380.897987 330.732828 366.706929 L 311.7903 337.881343 L 295.508596 296.131757 L 337.258181 273.3247 L 383.062354 294.104463 C 386.230001 282.890993 387.940531 271.043994 387.940531 258.816877 C 387.940531 249.884113 386.990237 241.141408 385.279707 232.715467 C 372.799179 232.271997 356.834239 225.429879 344.290357 222.895762 C 339.285475 221.945468 314.957947 229.357762 313.374124 227.773938 C 313.120712 227.520526 312.930653 227.013703 312.803947 226.316821 L 311.093418 228.217409 L 294.875066 189.508764 C 286.132361 178.105236 280.177185 165.561354 293.861419 151.87712 C 298.296125 147.442414 307.102183 149.596414 313.880947 149.596414 L 318.759123 143.704591 C 300.513478 134.011591 279.670361 128.499886 257.560186 128.499886 C 236.463658 128.499886 216.507483 133.504768 198.895367 142.437532 L 207.638072 186.024353 L 184.324191 208.261234 L 167.47231 215.29341 L 142.511253 214.21641 L 136.936194 209.464939 C 130.664253 224.669644 127.243195 241.331467 127.243195 258.816877 C 127.243195 274.528406 130.030724 289.543052 135.098959 303.480698 L 104.372785 323.183461 C 96.07355 303.417345 91.448785 281.623935 91.448785 258.816877 C 91.448785 167.081825 165.825134 92.705476 257.560186 92.705476 Z M 234.056247 245.449408 C 246.726834 245.132643 258.320422 252.734995 263.198598 264.455289 C 269.597244 279.976758 262.438362 297.715581 247.106952 304.430992 C 241.912011 306.711698 236.146894 307.535286 230.571835 306.711698 L 212.896366 453.247041 L 165.635075 407.696279 L 148.213017 435.254807 C 141.497606 445.961453 130.664253 451.093041 123.948842 446.785041 C 117.233431 442.540395 117.170078 430.566689 123.948842 419.923396 L 141.307547 392.301515 L 79.981904 368.987635 L 206.687778 288.972875 L 205.800837 286.882228 C 200.035719 271.107347 207.891484 253.621936 223.539659 247.540054 C 226.897365 246.209643 230.445129 245.51276 234.056247 245.449408 Z M 234.182953 251.594642 C 231.268717 251.657995 228.417835 252.228172 225.757012 253.241819 C 213.21313 258.183348 206.94119 272.120994 211.565954 284.728228 L 211.946072 285.61517 L 234.816482 271.1707 L 232.472423 274.84517 C 232.472423 274.908523 232.472423 274.908523 232.535776 274.908523 L 234.816482 271.234053 L 231.268717 300.629816 C 235.830129 301.326698 240.454893 300.693169 244.636187 298.855933 C 256.926657 293.470934 262.628421 279.216523 257.496833 266.799347 C 253.632304 257.423113 244.382775 251.341231 234.182953 251.594642 Z M 358.291356 300.819874 C 350.625651 301.009933 349.992121 308.865697 344.860533 314.060638 C 315.781535 343.139636 369.251414 327.934932 364.943414 302.086933 C 362.219238 301.199992 360.065238 300.819874 358.291356 300.819874 Z M 358.291356 300.819874 " transform="matrix(0.0616585,0,0,0.0616585,0.0996821,0.0886026)"/>
</g>
</svg>
