
<svg xmlns="http://www.w3.org/2000/svg" xmlns:xlink="http://www.w3.org/1999/xlink" width="32px" height="32px" viewBox="0 0 32 32" version="1.1">
<defs>
<radialGradient id="radial0" gradientUnits="userSpaceOnUse" cx="6.773" cy="5.927" fx="6.773" fy="5.927" r="0.564" gradientTransform="matrix(2.362205,0,0,2.362205,1.216519,2.283735)">
<stop offset="0" style="stop-color:rgb(55.686277%,69.01961%,78.039217%);stop-opacity:1;"/>
<stop offset="1" style="stop-color:rgb(55.686277%,69.01961%,78.039217%);stop-opacity:0;"/>
</radialGradient>
<radialGradient id="radial1" gradientUnits="userSpaceOnUse" cx="6" cy="17.292" fx="6" fy="17.292" r="1" gradientTransform="matrix(0.666667,0,0,0.666667,11.38601,6.563374)">
<stop offset="0" style="stop-color:rgb(55.686277%,69.01961%,78.039217%);stop-opacity:1;"/>
<stop offset="1" style="stop-color:rgb(55.686277%,69.01961%,78.039217%);stop-opacity:0;"/>
</radialGradient>
<radialGradient id="radial2" gradientUnits="userSpaceOnUse" cx="6.773" cy="5.927" fx="6.773" fy="5.927" r="0.564" gradientTransform="matrix(2.362205,0,0,2.362205,-2.275007,5.910854)">
<stop offset="0" style="stop-color:rgb(55.686277%,69.01961%,78.039217%);stop-opacity:1;"/>
<stop offset="1" style="stop-color:rgb(55.686277%,69.01961%,78.039217%);stop-opacity:0;"/>
</radialGradient>
</defs>
<g id="surface1">
<path style="fill-rule:nonzero;fill:rgb(86.666667%,33.333334%,100%);fill-opacity:1;stroke-width:2.628025;stroke-linecap:butt;stroke-linejoin:miter;stroke:rgb(24.705882%,24.705882%,24.705882%);stroke-opacity:1;stroke-miterlimit:4;" d="M 7.728516 2.478516 L 40.271484 2.478516 C 43.171875 2.478516 45.521484 4.828125 45.521484 7.728516 L 45.521484 40.271484 C 45.521484 43.171875 43.171875 45.521484 40.271484 45.521484 L 7.728516 45.521484 C 4.828125 45.521484 2.478516 43.171875 2.478516 40.271484 L 2.478516 7.728516 C 2.478516 4.828125 4.828125 2.478516 7.728516 2.478516 Z M 7.728516 2.478516 " transform="matrix(0.666667,0,0,0.666667,0,0)"/>
<path style=" stroke:none;fill-rule:nonzero;fill:rgb(0%,0%,0%);fill-opacity:1;" d="M 22.820312 18.816406 C 22.820312 22.863281 19.535156 26.148438 15.488281 26.148438 C 11.4375 26.148438 8.152344 22.863281 8.152344 18.816406 C 8.152344 14.765625 11.4375 11.480469 15.488281 11.480469 C 19.535156 11.480469 22.820312 14.765625 22.820312 18.816406 M 22.820312 18.816406 "/>
<path style=" stroke:none;fill-rule:nonzero;fill:rgb(0%,0%,0%);fill-opacity:1;" d="M 20.820312 18.816406 C 20.820312 21.761719 18.433594 24.148438 15.488281 24.148438 C 12.542969 24.148438 10.152344 21.761719 10.152344 18.816406 C 10.152344 15.871094 12.542969 13.480469 15.488281 13.480469 C 18.433594 13.480469 20.820312 15.871094 20.820312 18.816406 M 20.820312 18.816406 "/>
<path style=" stroke:none;fill-rule:nonzero;fill:rgb(0%,0%,0%);fill-opacity:1;" d="M 19.488281 18.816406 C 19.488281 21.023438 17.695312 22.816406 15.488281 22.816406 C 13.277344 22.816406 11.488281 21.023438 11.488281 18.816406 C 11.488281 16.605469 13.277344 14.816406 15.488281 14.816406 C 17.695312 14.816406 19.488281 16.605469 19.488281 18.816406 M 19.488281 18.816406 "/>
<path style=" stroke:none;fill-rule:nonzero;fill:rgb(0%,0%,0%);fill-opacity:1;" d="M 16.820312 16.816406 C 16.820312 17.550781 16.222656 18.148438 15.488281 18.148438 C 14.75 18.148438 14.152344 17.550781 14.152344 16.816406 C 14.152344 16.078125 14.75 15.480469 15.488281 15.480469 C 16.222656 15.480469 16.820312 16.078125 16.820312 16.816406 M 16.820312 16.816406 "/>
<path style=" stroke:none;fill-rule:nonzero;fill:rgb(0%,0%,0%);fill-opacity:1;" d="M 16.152344 20.148438 C 16.152344 20.515625 15.855469 20.816406 15.488281 20.816406 C 15.121094 20.816406 14.820312 20.515625 14.820312 20.148438 C 14.820312 19.78125 15.121094 19.480469 15.488281 19.480469 C 15.855469 19.480469 16.152344 19.78125 16.152344 20.148438 M 16.152344 20.148438 "/>
<path style=" stroke:none;fill-rule:nonzero;fill:rgb(40.000001%,40.000001%,40.000001%);fill-opacity:1;" d="M 27.613281 8.382812 C 27.613281 9.914062 26.371094 11.152344 24.839844 11.152344 C 23.308594 11.152344 22.070312 9.914062 22.070312 8.382812 C 22.070312 6.851562 23.308594 5.613281 24.839844 5.613281 C 26.371094 5.613281 27.613281 6.851562 27.613281 8.382812 M 27.613281 8.382812 "/>
<path style=" stroke:none;fill-rule:nonzero;fill:rgb(20%,20%,20%);fill-opacity:1;" d="M 24.820312 18.148438 C 24.820312 23.300781 20.640625 27.480469 15.488281 27.480469 C 10.332031 27.480469 6.152344 23.300781 6.152344 18.148438 C 6.152344 12.996094 10.332031 8.816406 15.488281 8.816406 C 20.640625 8.816406 24.820312 12.996094 24.820312 18.148438 M 24.820312 18.148438 "/>
<path style=" stroke:none;fill-rule:nonzero;fill:rgb(40.000001%,40.000001%,40.000001%);fill-opacity:1;" d="M 22.820312 18.148438 C 22.820312 22.199219 19.535156 25.480469 15.488281 25.480469 C 11.4375 25.480469 8.152344 22.199219 8.152344 18.148438 C 8.152344 14.097656 11.4375 10.816406 15.488281 10.816406 C 19.535156 10.816406 22.820312 14.097656 22.820312 18.148438 M 22.820312 18.148438 "/>
<path style=" stroke:none;fill-rule:nonzero;fill:rgb(80.000001%,80.000001%,80.000001%);fill-opacity:1;" d="M 20.820312 18.148438 C 20.820312 21.09375 18.433594 23.480469 15.488281 23.480469 C 12.542969 23.480469 10.152344 21.09375 10.152344 18.148438 C 10.152344 15.203125 12.542969 12.816406 15.488281 12.816406 C 18.433594 12.816406 20.820312 15.203125 20.820312 18.148438 M 20.820312 18.148438 "/>
<path style=" stroke:none;fill-rule:nonzero;fill:rgb(10.196079%,10.196079%,10.196079%);fill-opacity:1;" d="M 19.488281 18.148438 C 19.488281 20.355469 17.695312 22.148438 15.488281 22.148438 C 13.277344 22.148438 11.488281 20.355469 11.488281 18.148438 C 11.488281 15.941406 13.277344 14.148438 15.488281 14.148438 C 17.695312 14.148438 19.488281 15.941406 19.488281 18.148438 M 19.488281 18.148438 "/>
<path style=" stroke:none;fill-rule:nonzero;fill:url(#radial0);" d="M 18.550781 16.285156 C 18.550781 17.019531 17.953125 17.617188 17.214844 17.617188 C 16.480469 17.617188 15.882812 17.019531 15.882812 16.285156 C 15.882812 15.546875 16.480469 14.949219 17.214844 14.949219 C 17.953125 14.949219 18.550781 15.546875 18.550781 16.285156 M 18.550781 16.285156 "/>
<path style=" stroke:none;fill-rule:nonzero;fill:url(#radial1);" d="M 16.050781 18.089844 C 16.050781 18.457031 15.753906 18.757812 15.386719 18.757812 C 15.019531 18.757812 14.71875 18.457031 14.71875 18.089844 C 14.71875 17.722656 15.019531 17.425781 15.386719 17.425781 C 15.753906 17.425781 16.050781 17.722656 16.050781 18.089844 M 16.050781 18.089844 "/>
<path style=" stroke:none;fill-rule:nonzero;fill:url(#radial2);" d="M 15.058594 19.910156 C 15.058594 20.648438 14.460938 21.246094 13.722656 21.246094 C 12.988281 21.246094 12.390625 20.648438 12.390625 19.910156 C 12.390625 19.175781 12.988281 18.578125 13.722656 18.578125 C 14.460938 18.578125 15.058594 19.175781 15.058594 19.910156 M 15.058594 19.910156 "/>
<path style=" stroke:none;fill-rule:nonzero;fill:rgb(30.19608%,30.19608%,30.19608%);fill-opacity:1;" d="M 5.394531 4.058594 L 13.160156 4.058594 L 13.160156 6.433594 L 5.394531 6.433594 Z M 5.394531 4.058594 "/>
<path style=" stroke:none;fill-rule:nonzero;fill:rgb(100%,100%,100%);fill-opacity:1;" d="M 6.441406 4.378906 L 12.113281 4.378906 L 12.113281 6.113281 L 6.441406 6.113281 Z M 6.441406 4.378906 "/>
</g>
</svg>
