
<svg xmlns="http://www.w3.org/2000/svg" xmlns:xlink="http://www.w3.org/1999/xlink" width="32px" height="32px" viewBox="0 0 32 32" version="1.1">
<g id="surface1">
<path style="fill-rule:nonzero;fill:rgb(100%,100%,100%);fill-opacity:1;stroke-width:28.191782;stroke-linecap:butt;stroke-linejoin:miter;stroke:rgb(0%,66.666669%,83.137256%);stroke-opacity:1;stroke-miterlimit:4;" d="M 81.5 25.0625 L 430.5 25.0625 C 461.6875 25.0625 486.9375 50.3125 486.9375 81.5 L 486.9375 430.5 C 486.9375 461.6875 461.6875 486.9375 430.5 486.9375 L 81.5 486.9375 C 50.3125 486.9375 25.0625 461.6875 25.0625 430.5 L 25.0625 81.5 C 25.0625 50.3125 50.3125 25.0625 81.5 25.0625 Z M 81.5 25.0625 " transform="matrix(0.0625,0,0,0.0625,0,0)"/>
<path style=" stroke:none;fill-rule:nonzero;fill:rgb(34.901962%,34.901962%,34.901962%);fill-opacity:1;" d="M 16.011719 2.464844 L 16.011719 16.011719 L 16.011719 2.464844 L 4.660156 2.464844 C 3.53125 2.472656 2.605469 3.308594 2.464844 4.398438 L 2.464844 27.324219 C 2.464844 28.558594 3.460938 29.554688 4.695312 29.554688 L 16.011719 29.554688 L 16.011719 29.558594 L 27.34375 29.558594 C 28.558594 29.550781 29.539062 28.578125 29.558594 27.363281 L 29.558594 16.011719 L 29.550781 16.011719 L 29.550781 4.6875 C 29.550781 3.480469 28.597656 2.503906 27.402344 2.464844 Z M 16.011719 2.464844 "/>
<path style=" stroke:none;fill-rule:nonzero;fill:rgb(39.607844%,39.607844%,39.607844%);fill-opacity:1;" d="M 16.011719 16.011719 L 16.011719 29.558594 L 27.34375 29.558594 C 28.558594 29.550781 29.539062 28.578125 29.558594 27.363281 L 29.558594 16.011719 Z M 16.011719 16.011719 "/>
<path style=" stroke:none;fill-rule:nonzero;fill:rgb(54.901963%,54.901963%,54.901963%);fill-opacity:1;" d="M 2.464844 16.011719 L 2.464844 27.324219 C 2.464844 28.558594 3.460938 29.554688 4.695312 29.554688 L 16.011719 29.554688 L 16.011719 16.011719 Z M 2.464844 16.011719 "/>
<path style=" stroke:none;fill-rule:nonzero;fill:rgb(0%,66.666669%,83.137256%);fill-opacity:1;" d="M 28.746094 22.675781 C 28.746094 25.980469 26.066406 28.660156 22.757812 28.660156 C 19.453125 28.660156 16.769531 25.980469 16.769531 22.675781 C 16.769531 19.371094 19.453125 16.6875 22.757812 16.6875 C 26.066406 16.6875 28.746094 19.371094 28.746094 22.675781 Z M 28.746094 22.675781 "/>
<path style=" stroke:none;fill-rule:nonzero;fill:rgb(65.098041%,65.098041%,65.098041%);fill-opacity:1;" d="M 4.660156 2.464844 C 3.53125 2.472656 2.605469 3.308594 2.464844 4.398438 L 2.464844 16.011719 L 16.011719 16.011719 L 16.011719 2.464844 Z M 4.660156 2.464844 "/>
<path style=" stroke:none;fill-rule:nonzero;fill:rgb(100%,100%,100%);fill-opacity:1;" d="M 9.777344 6.339844 L 9.777344 8.707031 L 12.128906 8.707031 L 12.128906 9.769531 L 9.777344 9.769531 L 9.777344 12.136719 L 8.699219 12.136719 L 8.699219 9.769531 L 6.347656 9.769531 L 6.347656 8.707031 L 8.699219 8.707031 L 8.699219 6.339844 Z M 9.777344 6.339844 "/>
<path style=" stroke:none;fill-rule:nonzero;fill:rgb(100%,100%,100%);fill-opacity:1;" d="M 20.707031 9.019531 L 26.355469 9.019531 L 26.355469 10.183594 L 20.707031 10.183594 Z M 20.707031 9.019531 "/>
<path style=" stroke:none;fill-rule:nonzero;fill:rgb(100%,100%,100%);fill-opacity:1;" d="M 11.957031 20.828125 L 9.996094 22.785156 L 11.957031 24.738281 L 11.199219 25.496094 L 9.238281 23.542969 L 7.28125 25.496094 L 6.523438 24.738281 L 8.480469 22.785156 L 6.523438 20.828125 L 7.28125 20.070312 L 9.238281 22.027344 L 11.199219 20.070312 Z M 11.957031 20.828125 "/>
<path style=" stroke:none;fill-rule:nonzero;fill:rgb(100%,100%,100%);fill-opacity:1;" d="M 19.867188 21.113281 L 25.652344 21.113281 L 25.652344 22.175781 L 19.867188 22.175781 Z M 19.867188 23.167969 L 25.652344 23.167969 L 25.652344 24.238281 L 19.867188 24.238281 Z M 19.867188 23.167969 "/>
</g>
</svg>
