<!-- color: #d6e4eb -->
<svg xmlns="http://www.w3.org/2000/svg" xmlns:xlink="http://www.w3.org/1999/xlink" width="32px" height="32px" viewBox="0 0 32 32" version="1.1">
<defs>
<clipPath id="clip1">
  <path d="M 6.667969 9.332031 L 25.332031 9.332031 L 25.332031 22.667969 L 6.667969 22.667969 Z M 6.667969 9.332031 "/>
</clipPath>
<clipPath id="clip2">
  <path d="M 3.332031 1.335938 L 28.667969 1.335938 C 30.136719 1.335938 31.332031 2.527344 31.332031 4.003906 L 31.332031 29.335938 C 31.332031 30.808594 30.136719 32.003906 28.667969 32.003906 L 3.332031 32.003906 C 1.859375 32.003906 0.667969 30.808594 0.667969 29.335938 L 0.667969 4.003906 C 0.667969 2.527344 1.859375 1.335938 3.332031 1.335938 Z M 3.332031 1.335938 "/>
</clipPath>
</defs>
<g id="surface1">
<path style="fill-rule:nonzero;fill:rgb(92.54902%,92.54902%,92.54902%);fill-opacity:1;stroke-width:2.628025;stroke-linecap:butt;stroke-linejoin:miter;stroke:rgb(91.764706%,14.901961%,14.901961%);stroke-opacity:1;stroke-miterlimit:4;" d="M 7.728516 2.478516 L 40.271484 2.478516 C 43.171875 2.478516 45.521484 4.828125 45.521484 7.728516 L 45.521484 40.271484 C 45.521484 43.171875 43.171875 45.521484 40.271484 45.521484 L 7.728516 45.521484 C 4.828125 45.521484 2.478516 43.171875 2.478516 40.271484 L 2.478516 7.728516 C 2.478516 4.828125 4.828125 2.478516 7.728516 2.478516 Z M 7.728516 2.478516 " transform="matrix(0.666667,0,0,0.666667,0,0)"/>
<g clip-path="url(#clip1)" clip-rule="nonzero">
<g clip-path="url(#clip2)" clip-rule="nonzero">
<path style=" stroke:none;fill-rule:nonzero;fill:rgb(91.764706%,14.901961%,14.901961%);fill-opacity:1;" d="M 25.332031 11.113281 C 23.046875 13.144531 16.210938 20.816406 15.050781 20.816406 C 14.292969 20.816406 13.652344 20.285156 13.4375 19.46875 C 13.316406 18.96875 13.503906 19.601562 6.667969 22.667969 C 7.351562 22.230469 12.144531 18.546875 12.769531 18.097656 C 13.394531 17.652344 16.46875 15.496094 17.367188 14.808594 C 19.011719 13.527344 19.652344 12.492188 19.652344 11.085938 C 19.652344 9.988281 18.980469 9.332031 17.917969 9.332031 C 17.25 9.332031 16.757812 9.488281 16.058594 9.894531 C 14.902344 10.585938 13.863281 11.429688 13.222656 12.179688 C 12.066406 13.621094 11.03125 17.058594 11.03125 19.59375 C 11.03125 21.441406 11.976562 22.597656 13.527344 22.597656 C 15.324219 22.597656 21.644531 16.445312 24.050781 13.972656 L 25.332031 11.109375 M 13.378906 16.59375 C 13.894531 13.246094 15.296875 10.648438 16.605469 10.648438 C 17.125 10.648438 17.460938 11.183594 17.460938 11.933594 C 17.460938 13.496094 16.636719 14.433594 13.378906 16.59375 "/>
</g>
</g>
</g>
</svg>
