
<svg xmlns="http://www.w3.org/2000/svg" xmlns:xlink="http://www.w3.org/1999/xlink" width="32px" height="32px" viewBox="0 0 32 32" version="1.1">
<g id="surface1">
<path style="fill-rule:nonzero;fill:rgb(100%,100%,100%);fill-opacity:1;stroke-width:28.191782;stroke-linecap:butt;stroke-linejoin:miter;stroke:rgb(82.745099%,34.901962%,30.19608%);stroke-opacity:1;stroke-miterlimit:4;" d="M 81.5 25.0625 L 430.5 25.0625 C 461.6875 25.0625 486.9375 50.3125 486.9375 81.5 L 486.9375 430.5 C 486.9375 461.6875 461.6875 486.9375 430.5 486.9375 L 81.5 486.9375 C 50.3125 486.9375 25.0625 461.6875 25.0625 430.5 L 25.0625 81.5 C 25.0625 50.3125 50.3125 25.0625 81.5 25.0625 Z M 81.5 25.0625 " transform="matrix(0.0625,0,0,0.0625,0,0)"/>
<path style="fill-rule:nonzero;fill:rgb(100%,33.333334%,33.333334%);fill-opacity:1;stroke-width:0.807631;stroke-linecap:butt;stroke-linejoin:miter;stroke:rgb(63.137257%,34.901962%,18.431373%);stroke-opacity:1;stroke-miterlimit:4;" d="M 112.994236 258.14282 C 113.008803 201.068559 93.058547 154.819045 68.37936 154.819316 C 43.700173 154.819588 23.675591 201.070807 23.675586 258.205848 C 23.661018 315.280108 43.672055 361.51506 68.351242 361.514789 C 92.969649 361.52908 112.99423 315.27786 112.994236 258.14282 Z M 112.994236 258.14282 " transform="matrix(0.0607798,0.0145625,-0.0145625,0.0607798,6.719571,-2.698633)"/>
<path style="fill-rule:nonzero;fill:rgb(100%,16.470589%,16.470589%);fill-opacity:1;stroke-width:0.616468;stroke-linecap:butt;stroke-linejoin:miter;stroke:rgb(63.137257%,34.901962%,18.431373%);stroke-opacity:1;stroke-miterlimit:4;" d="M 102.458414 258.160663 C 102.431343 214.592845 87.149233 179.243148 68.321381 179.255384 C 49.493529 179.267621 34.245118 214.605624 34.272188 258.173442 C 34.238478 301.755823 49.520589 337.10552 68.348441 337.093283 C 87.176292 337.081047 102.424704 301.743044 102.458414 258.160663 Z M 102.458414 258.160663 " transform="matrix(0.0607798,0.0145625,-0.0145625,0.0607798,6.719571,-2.698633)"/>
<path style="fill-rule:nonzero;fill:rgb(100%,33.333334%,33.333334%);fill-opacity:1;stroke-width:0.490916;stroke-linecap:butt;stroke-linejoin:miter;stroke:rgb(63.137257%,34.901962%,18.431373%);stroke-opacity:1;stroke-miterlimit:4;" d="M 95.454792 258.167704 C 95.492398 223.453496 83.353196 195.320116 68.315226 195.32408 C 53.338037 195.313482 41.191856 223.481317 41.21503 258.180963 C 41.177424 292.895171 53.316626 321.028551 68.354595 321.024587 C 83.331785 321.035186 95.477966 292.86735 95.454792 258.167704 Z M 95.454792 258.167704 " transform="matrix(0.0607798,0.0145625,-0.0145625,0.0607798,6.719571,-2.698633)"/>
<path style="fill-rule:nonzero;fill:rgb(0%,66.666669%,83.137256%);fill-opacity:1;stroke-width:0.844005;stroke-linecap:butt;stroke-linejoin:miter;stroke:rgb(63.137257%,34.901962%,18.431373%);stroke-opacity:1;stroke-miterlimit:4;" d="M 70.741901 244.615316 L 347.954015 234.23916 C 353.564761 234.051693 358.018229 240.568393 358.061369 248.527399 L 358.071759 272.175859 C 358.039557 280.088648 353.532418 286.759929 347.926731 286.432032 L 70.770066 272.629802 C 65.178942 272.362685 60.709477 250.489554 60.662712 258.341563 L 60.657653 258.856926 C 60.68623 266.755152 65.191934 244.78822 70.741901 244.615316 Z M 70.741901 244.615316 " transform="matrix(0.0607798,0.0145625,-0.0145625,0.0607798,6.719571,-2.698633)"/>
<path style="fill-rule:nonzero;fill:rgb(100%,33.333334%,33.333334%);fill-opacity:1;stroke-width:1;stroke-linecap:butt;stroke-linejoin:miter;stroke:rgb(63.137257%,34.901962%,18.431373%);stroke-opacity:1;stroke-miterlimit:4;" d="M 407.870634 258.187696 C 407.836934 187.499996 383.114065 130.182888 352.583542 130.171194 C 321.99224 130.174063 297.220614 187.460059 297.254313 258.147759 C 297.227233 328.850021 322.010882 386.152567 352.541405 386.164261 C 383.071927 386.175954 407.904333 328.875396 407.870634 258.187696 Z M 407.870634 258.187696 " transform="matrix(0.0607798,0.0145625,-0.0145625,0.0607798,6.719571,-2.698633)"/>
<path style="fill-rule:nonzero;fill:rgb(100%,16.470589%,16.470589%);fill-opacity:1;stroke-width:0.763305;stroke-linecap:butt;stroke-linejoin:miter;stroke:rgb(63.137257%,34.901962%,18.431373%);stroke-opacity:1;stroke-miterlimit:4;" d="M 394.757995 258.180243 C 394.742207 204.198162 375.843598 160.46024 352.513599 160.458597 C 329.244379 160.442392 310.290384 204.187694 310.306172 258.169775 C 310.32196 312.151855 329.22057 355.889777 352.550569 355.89142 C 375.866005 355.832283 394.759221 312.101544 394.757995 258.180243 Z M 394.757995 258.180243 " transform="matrix(0.0607798,0.0145625,-0.0145625,0.0607798,6.719571,-2.698633)"/>
<path style="fill-rule:nonzero;fill:rgb(100%,33.333334%,33.333334%);fill-opacity:1;stroke-width:0.607847;stroke-linecap:butt;stroke-linejoin:miter;stroke:rgb(63.137257%,34.901962%,18.431373%);stroke-opacity:1;stroke-miterlimit:4;" d="M 386.208284 258.172106 C 386.190717 215.180431 371.100449 180.363189 352.530279 180.377955 C 333.960109 180.392721 318.913659 215.232453 318.916663 258.163349 C 318.93423 301.155024 333.963718 335.986828 352.533888 335.972062 C 371.104058 335.957296 386.165071 301.178344 386.208284 258.172106 Z M 386.208284 258.172106 " transform="matrix(0.0607798,0.0145625,-0.0145625,0.0607798,6.719571,-2.698633)"/>
<path style="fill-rule:nonzero;fill:rgb(0%,66.666669%,83.137256%);fill-opacity:1;stroke-width:0.356991;stroke-linecap:butt;stroke-linejoin:miter;stroke:rgb(63.137257%,34.901962%,18.431373%);stroke-opacity:1;stroke-miterlimit:4;" d="M 342.348328 233.911263 L 342.40589 286.726495 L 359.444533 286.757331 L 359.476188 286.621209 C 359.991551 286.626268 360.657599 286.723762 361.172962 286.728822 L 376.454051 286.666607 C 386.807533 286.692452 395.151387 278.330687 395.162669 267.916424 L 395.190359 252.742333 C 395.140861 242.342633 386.839876 233.984216 376.425614 233.972935 L 361.205305 234.020586 C 360.614599 233.96931 360.053019 234.039593 359.476876 234.049096 L 359.447751 233.927536 Z M 342.348328 233.911263 " transform="matrix(0.0607798,0.0145625,-0.0145625,0.0607798,6.719571,-2.698633)"/>
</g>
</svg>
