
<svg xmlns="http://www.w3.org/2000/svg" xmlns:xlink="http://www.w3.org/1999/xlink" width="32px" height="32px" viewBox="0 0 32 32" version="1.1">
<defs>
<linearGradient id="linear0" gradientUnits="userSpaceOnUse" x1="144.825775" y1="95.798721" x2="144.825775" y2="108.343452" gradientTransform="matrix(0.195601,0.130075,-0.145173,0.218306,-1.301349,-18.677228)">
<stop offset="0" style="stop-color:rgb(100%,100%,100%);stop-opacity:0.301961;"/>
<stop offset="1" style="stop-color:rgb(100%,100%,100%);stop-opacity:0;"/>
</linearGradient>
<linearGradient id="linear1" gradientUnits="userSpaceOnUse" x1="144.825775" y1="95.798721" x2="144.825775" y2="108.343452" gradientTransform="matrix(-0.195601,-0.130075,-0.198287,0.298177,60.390452,11.426998)">
<stop offset="0" style="stop-color:rgb(100%,100%,100%);stop-opacity:0.403922;"/>
<stop offset="1" style="stop-color:rgb(100%,100%,100%);stop-opacity:0;"/>
</linearGradient>
</defs>
<g id="surface1">
<path style="fill-rule:nonzero;fill:rgb(33.333334%,100%,33.333334%);fill-opacity:1;stroke-width:2.628025;stroke-linecap:butt;stroke-linejoin:miter;stroke:rgb(24.705882%,24.705882%,24.705882%);stroke-opacity:1;stroke-miterlimit:4;" d="M 7.728516 2.478516 L 40.271484 2.478516 C 43.171875 2.478516 45.521484 4.828125 45.521484 7.728516 L 45.521484 40.271484 C 45.521484 43.171875 43.171875 45.521484 40.271484 45.521484 L 7.728516 45.521484 C 4.828125 45.521484 2.478516 43.171875 2.478516 40.271484 L 2.478516 7.728516 C 2.478516 4.828125 4.828125 2.478516 7.728516 2.478516 Z M 7.728516 2.478516 " transform="matrix(0.666667,0,0,0.666667,0,0)"/>
<path style=" stroke:none;fill-rule:evenodd;fill:rgb(0%,0%,0%);fill-opacity:1;" d="M 7.644531 25.746094 C 10.277344 25.292969 9.457031 24.511719 11.753906 21.050781 C 12.59375 19.792969 14.429688 21.273438 13.75 22.292969 C 11.6875 25.394531 10.625 25.816406 7.644531 25.746094 Z M 7.644531 25.746094 "/>
<path style=" stroke:none;fill-rule:evenodd;fill:url(#linear0);" d="M 12.21875 20.535156 C 11.824219 21.351562 11.609375 21.804688 10.582031 23.414062 C 11.078125 22.773438 12.214844 21.042969 12.445312 20.976562 C 11.886719 21.882812 11.234375 22.796875 10.628906 23.703125 C 10.214844 24.328125 11.847656 22.171875 11.878906 22.121094 C 12.089844 21.808594 12.316406 21.507812 12.527344 21.191406 C 12.652344 21.003906 12.355469 21.605469 12.25 21.808594 C 11.742188 22.792969 11.066406 23.660156 10.359375 24.503906 C 9.378906 25.667969 10.128906 24.925781 10.644531 24.273438 C 11.082031 23.714844 11.566406 23.277344 11.960938 22.683594 C 12.300781 22.167969 13.105469 20.742188 12.871094 21.363281 C 12.40625 22.574219 11.613281 23.746094 10.746094 24.707031 C 10.675781 24.785156 10.597656 24.863281 10.523438 24.941406 C 10.390625 25.082031 10.769531 24.628906 10.894531 24.480469 C 11.628906 23.582031 12.144531 22.847656 12.78125 21.886719 C 13.710938 21.109375 11.476562 24.347656 11.117188 24.734375 C 11.835938 23.925781 12.246094 23.324219 12.78125 22.597656 C 13.046875 22.195312 13.578125 21.082031 13.449219 21.496094 C 13.304688 21.957031 12.722656 23.074219 12.214844 23.832031 C 11.480469 24.941406 12.765625 23.003906 12.839844 22.890625 C 12.855469 22.867188 14.332031 20.652344 13.605469 21.746094 C 13.121094 22.464844 13.71875 22.027344 11.96875 24.363281 C 12.644531 23.707031 13.5625 22.300781 13.847656 21.871094 C 13.917969 21.765625 13.976562 21.703125 13.917969 21.59375 C 13.398438 21.027344 13.066406 20.382812 12.21875 20.535156 Z M 12.21875 20.535156 "/>
<path style=" stroke:none;fill-rule:evenodd;fill:url(#linear1);" d="M 13.445312 20.980469 C 13.410156 20.957031 13.371094 20.933594 13.335938 20.917969 C 13.089844 20.800781 12.785156 20.761719 12.472656 20.691406 C 12.417969 20.773438 12.269531 20.996094 12.082031 21.277344 C 11.699219 21.847656 11.191406 22.613281 11.183594 22.628906 C 11.175781 22.636719 11.105469 22.746094 11.089844 22.769531 C 11.632812 22.039062 12.191406 21.347656 12.496094 21.046875 C 12.527344 21.019531 12.542969 21.007812 12.5625 20.992188 C 12.578125 20.980469 12.589844 20.96875 12.605469 20.964844 C 12.613281 20.964844 12.613281 20.957031 12.621094 20.957031 C 12.625 20.960938 12.628906 20.972656 12.632812 20.980469 C 12.632812 20.992188 12.625 21.003906 12.621094 21.007812 C 12.613281 21.023438 12.613281 21.035156 12.597656 21.054688 C 12.550781 21.128906 12.449219 21.265625 12.320312 21.433594 C 12.0625 21.773438 11.699219 22.234375 11.519531 22.503906 C 10.675781 23.964844 9.535156 25.613281 11.277344 23.042969 C 11.625 22.53125 11.941406 22.089844 12.136719 21.867188 C 12.1875 21.8125 12.234375 21.765625 12.269531 21.738281 C 12.285156 21.722656 12.300781 21.714844 12.316406 21.707031 C 12.332031 21.703125 12.347656 21.703125 12.355469 21.710938 C 12.367188 21.722656 12.371094 21.738281 12.371094 21.757812 C 12.371094 21.777344 12.367188 21.796875 12.363281 21.824219 C 12.347656 21.878906 12.332031 21.949219 12.292969 22.042969 C 12.292969 22.046875 12.292969 22.050781 12.289062 22.050781 C 12.121094 22.308594 11.96875 22.550781 11.824219 22.792969 C 12.136719 22.371094 12.464844 21.957031 12.808594 21.589844 C 12.847656 21.550781 12.878906 21.519531 12.902344 21.496094 C 12.929688 21.472656 12.941406 21.457031 12.957031 21.449219 C 12.964844 21.441406 12.972656 21.441406 12.984375 21.441406 C 12.988281 21.445312 13 21.449219 13.003906 21.457031 C 13.003906 21.460938 13.003906 21.464844 13.003906 21.46875 C 13 21.488281 12.996094 21.503906 12.980469 21.527344 C 12.933594 21.617188 12.808594 21.800781 12.648438 22.027344 C 12.332031 22.480469 11.886719 23.109375 11.652344 23.457031 C 8.589844 29.328125 9.5 26.550781 12.488281 22.558594 C 12.585938 22.4375 12.777344 22.203125 12.921875 22.027344 C 12.996094 21.941406 13.058594 21.863281 13.089844 21.828125 C 13.097656 21.816406 13.105469 21.8125 13.113281 21.808594 C 13.117188 21.800781 13.117188 21.804688 13.125 21.800781 C 13.128906 21.800781 13.136719 21.796875 13.136719 21.796875 C 13.136719 21.796875 13.148438 21.804688 13.148438 21.804688 C 13.148438 21.804688 13.15625 21.808594 13.15625 21.808594 C 13.15625 21.808594 13.148438 21.816406 13.148438 21.816406 C 13.148438 21.816406 13.15625 21.820312 13.15625 21.824219 C 13.15625 21.832031 13.152344 21.839844 13.152344 21.84375 C 13.148438 21.847656 13.148438 21.847656 13.144531 21.851562 C 13.140625 21.863281 13.128906 21.878906 13.117188 21.894531 C 12.542969 22.855469 11.921875 23.753906 11.175781 24.585938 C 9.949219 26.535156 13.199219 22.019531 13.339844 21.8125 C 13.339844 21.808594 13.34375 21.804688 13.34375 21.800781 C 13.347656 21.800781 13.351562 21.800781 13.355469 21.800781 C 13.359375 21.796875 13.363281 21.792969 13.367188 21.792969 C 13.371094 21.796875 13.371094 21.796875 13.375 21.800781 C 13.378906 21.800781 13.378906 21.800781 13.378906 21.800781 C 13.378906 21.808594 13.378906 21.808594 13.378906 21.816406 C 13.378906 21.863281 13.355469 21.933594 13.308594 22.03125 C 12.859375 23 12.0625 23.738281 11.519531 24.644531 C 12.707031 23.175781 13.191406 22.621094 13.878906 21.785156 C 13.847656 21.351562 13.683594 21.121094 13.441406 20.980469 Z M 12.429688 20.675781 C 12.375 20.664062 12.324219 20.660156 12.273438 20.644531 C 12.210938 20.648438 12.175781 20.671875 12.140625 20.714844 C 12.101562 20.753906 12.066406 20.808594 12.015625 20.882812 C 11.667969 21.402344 10.742188 23.003906 10.144531 24.152344 C 10.691406 23.023438 11.472656 22.0625 12.183594 21.042969 C 12.308594 20.855469 12.386719 20.738281 12.429688 20.675781 Z M 12.429688 20.675781 "/>
<path style=" stroke:none;fill-rule:evenodd;fill:rgb(20%,20%,20%);fill-opacity:1;" d="M 7.644531 25.746094 C 10.277344 25.292969 9.457031 24.511719 11.753906 21.050781 C 12.59375 19.792969 14.429688 21.273438 13.75 22.292969 C 11.6875 25.394531 10.625 25.816406 7.644531 25.746094 Z M 7.644531 25.746094 "/>
<path style=" stroke:none;fill-rule:evenodd;fill:rgb(49.019608%,15.294118%,15.294118%);fill-opacity:1;" d="M 24.671875 3.75 C 25.105469 4.039062 18.855469 14.84375 16.339844 18.160156 C 13.824219 21.472656 12.523438 20.605469 14.605469 17.003906 C 16.691406 13.402344 24.238281 3.460938 24.671875 3.75 Z M 24.671875 3.75 "/>
</g>
</svg>
