
<svg xmlns="http://www.w3.org/2000/svg" xmlns:xlink="http://www.w3.org/1999/xlink" width="32px" height="32px" viewBox="0 0 32 32" version="1.1">
<g id="surface1">
<path style="fill-rule:nonzero;fill:rgb(100%,100%,100%);fill-opacity:1;stroke-width:28.191782;stroke-linecap:butt;stroke-linejoin:miter;stroke:rgb(72.941178%,9.019608%,30.588236%);stroke-opacity:1;stroke-miterlimit:4;" d="M 81.5 25.0625 L 430.5 25.0625 C 461.6875 25.0625 486.9375 50.3125 486.9375 81.5 L 486.9375 430.5 C 486.9375 461.6875 461.6875 486.9375 430.5 486.9375 L 81.5 486.9375 C 50.3125 486.9375 25.0625 461.6875 25.0625 430.5 L 25.0625 81.5 C 25.0625 50.3125 50.3125 25.0625 81.5 25.0625 Z M 81.5 25.0625 " transform="matrix(0.0625,0,0,0.0625,0,0)"/>
<path style=" stroke:none;fill-rule:evenodd;fill:rgb(72.941178%,9.019608%,30.588236%);fill-opacity:1;" d="M 7.398438 1.839844 C 6.984375 1.839844 6.648438 2.128906 6.648438 2.488281 L 6.648438 25.339844 C 6.648438 25.351562 6.652344 25.363281 6.652344 25.375 L 9.59375 22.832031 L 12.546875 25.375 C 12.546875 25.363281 12.550781 25.351562 12.550781 25.339844 L 12.550781 2.488281 C 12.550781 2.128906 12.214844 1.839844 11.800781 1.839844 Z M 7.398438 1.839844 "/>
<path style=" stroke:none;fill-rule:nonzero;fill:rgb(72.941178%,9.019608%,30.588236%);fill-opacity:1;" d="M 24.578125 22.441406 L 23.046875 18.101562 L 17.824219 18.101562 L 16.269531 22.441406 L 14.46875 22.441406 L 19.613281 8.375 L 21.246094 8.375 L 26.402344 22.441406 Z M 22.480469 16.519531 L 21.0625 12.457031 C 21.023438 12.34375 20.976562 12.203125 20.921875 12.035156 C 20.871094 11.871094 20.8125 11.691406 20.753906 11.5 C 20.699219 11.308594 20.640625 11.109375 20.582031 10.902344 C 20.527344 10.691406 20.472656 10.488281 20.421875 10.292969 C 20.375 10.488281 20.324219 10.695312 20.265625 10.90625 C 20.207031 11.117188 20.152344 11.320312 20.09375 11.511719 C 20.035156 11.707031 19.980469 11.886719 19.925781 12.050781 C 19.871094 12.214844 19.824219 12.347656 19.789062 12.457031 L 18.398438 16.519531 Z M 22.480469 16.519531 "/>
</g>
</svg>
