
<svg xmlns="http://www.w3.org/2000/svg" xmlns:xlink="http://www.w3.org/1999/xlink" width="32px" height="32px" viewBox="0 0 32 32" version="1.1">
<g id="surface1">
<path style="fill-rule:nonzero;fill:rgb(100%,100%,100%);fill-opacity:1;stroke-width:28.191782;stroke-linecap:butt;stroke-linejoin:miter;stroke:rgb(96.470588%,27.843139%,27.843139%);stroke-opacity:1;stroke-miterlimit:4;" d="M 81.5 25.0625 L 430.5 25.0625 C 461.6875 25.0625 486.9375 50.3125 486.9375 81.5 L 486.9375 430.5 C 486.9375 461.6875 461.6875 486.9375 430.5 486.9375 L 81.5 486.9375 C 50.3125 486.9375 25.0625 461.6875 25.0625 430.5 L 25.0625 81.5 C 25.0625 50.3125 50.3125 25.0625 81.5 25.0625 Z M 81.5 25.0625 " transform="matrix(0.0625,0,0,0.0625,0,0)"/>
<path style=" stroke:none;fill-rule:nonzero;fill:rgb(96.470588%,27.843139%,27.843139%);fill-opacity:1;" d="M 12.046875 5.054688 C 10.976562 5.035156 10.054688 6.097656 10.277344 7.160156 C 10.433594 8.785156 11.480469 10.105469 12.296875 11.449219 C 12.386719 11.949219 12.125 12.433594 12.105469 12.929688 C 11.574219 15.839844 10.761719 18.738281 9.511719 21.410156 C 7.964844 22.121094 6.210938 22.824219 5.304688 24.363281 C 4.730469 25.425781 5.539062 26.863281 6.726562 26.976562 C 7.828125 27.128906 8.644531 26.183594 9.246094 25.394531 C 9.878906 24.542969 10.292969 23.527344 10.816406 22.613281 C 13.980469 21.339844 17.3125 20.449219 20.714844 20.109375 C 22.089844 21.09375 23.542969 22.253906 25.308594 22.324219 C 26.332031 22.308594 27.164062 21.316406 27.050781 20.304688 C 26.984375 19.382812 26.167969 18.738281 25.320312 18.566406 C 23.957031 18.152344 22.492188 18.378906 21.101562 18.390625 C 18.429688 16.253906 15.960938 13.796875 14.019531 10.984375 C 14.160156 9.273438 14.449219 7.382812 13.5625 5.828125 C 13.222656 5.339844 12.652344 5 12.046875 5.054688 M 12.097656 6.605469 C 12.398438 6.664062 12.417969 7.113281 12.503906 7.351562 C 12.582031 7.839844 12.574219 8.339844 12.566406 8.832031 C 12.207031 8.164062 11.746094 7.464844 11.824219 6.667969 C 11.921875 6.667969 12.003906 6.617188 12.097656 6.605469 M 13.753906 13.273438 C 15.347656 15.253906 17.121094 17.082031 19.050781 18.734375 C 16.503906 19.121094 13.972656 19.773438 11.550781 20.652344 C 12.480469 18.222656 13.1875 15.710938 13.652344 13.152344 C 13.6875 13.191406 13.722656 13.234375 13.753906 13.273438 M 23.695312 19.933594 C 24.3125 19.992188 25.027344 19.957031 25.519531 20.382812 C 25.566406 20.769531 25.097656 20.824219 24.847656 20.683594 C 24.324219 20.511719 23.808594 20.292969 23.363281 19.957031 C 23.472656 19.949219 23.582031 19.933594 23.695312 19.933594 M 8.257812 23.972656 C 7.964844 24.519531 7.535156 25.035156 7.089844 25.425781 C 6.941406 25.664062 6.535156 25.21875 6.722656 25.03125 C 7.109375 24.425781 7.785156 24.105469 8.382812 23.742188 C 8.339844 23.820312 8.300781 23.898438 8.257812 23.972656 "/>
</g>
</svg>
