
<svg xmlns="http://www.w3.org/2000/svg" xmlns:xlink="http://www.w3.org/1999/xlink" width="32px" height="32px" viewBox="0 0 32 32" version="1.1">
<g id="surface1">
<path style="fill-rule:nonzero;fill:rgb(100%,100%,100%);fill-opacity:1;stroke-width:6.73008;stroke-linecap:butt;stroke-linejoin:miter;stroke:rgb(16.470589%,49.803922%,100%);stroke-opacity:1;stroke-miterlimit:4;" d="M 22.328125 8.875 L 105.671875 8.875 C 113.09375 8.875 119.125 14.90625 119.125 22.328125 L 119.125 105.671875 C 119.125 113.09375 113.09375 119.125 105.671875 119.125 L 22.328125 119.125 C 14.90625 119.125 8.875 113.09375 8.875 105.671875 L 8.875 22.328125 C 8.875 14.90625 14.90625 8.875 22.328125 8.875 Z M 22.328125 8.875 " transform="matrix(0.25,0,0,0.25,0,0)"/>
<path style=" stroke:none;fill-rule:nonzero;fill:rgb(16.470589%,49.803922%,100%);fill-opacity:1;" d="M 28.105469 14.886719 C 27.851562 14.527344 27.566406 14.1875 27.285156 13.855469 C 25.753906 12.0625 23.996094 10.464844 22.074219 9.308594 C 20.84375 8.566406 19.527344 7.96875 18.167969 7.683594 C 17.472656 7.535156 16.796875 7.464844 16.082031 7.460938 C 15.386719 7.460938 14.695312 7.535156 14.003906 7.683594 C 12.636719 7.96875 11.324219 8.566406 10.097656 9.308594 C 8.175781 10.464844 6.417969 12.0625 4.878906 13.855469 C 4.597656 14.183594 4.320312 14.523438 4.066406 14.886719 C 3.714844 15.363281 3.714844 15.929688 4.066406 16.410156 C 4.847656 17.503906 5.777344 18.472656 6.722656 19.371094 C 8.761719 21.285156 11.101562 22.886719 13.675781 23.535156 C 14.472656 23.738281 15.273438 23.832031 16.074219 23.832031 C 16.886719 23.832031 17.683594 23.738281 18.480469 23.535156 C 21.054688 22.886719 23.394531 21.285156 25.4375 19.371094 C 26.386719 18.480469 27.316406 17.503906 28.097656 16.410156 C 28.445312 15.929688 28.445312 15.363281 28.097656 14.886719 M 28.097656 14.886719 "/>
<path style=" stroke:none;fill-rule:nonzero;fill:rgb(97.647059%,97.647059%,97.647059%);fill-opacity:1;" d="M 22.226562 15.644531 C 22.226562 19.035156 19.476562 21.785156 16.085938 21.785156 C 12.699219 21.785156 9.949219 19.035156 9.949219 15.644531 C 9.949219 12.257812 12.695312 9.507812 16.085938 9.507812 C 19.476562 9.507812 22.226562 12.253906 22.226562 15.644531 M 22.226562 15.644531 "/>
<path style=" stroke:none;fill-rule:nonzero;fill:rgb(0%,0%,0%);fill-opacity:1;" d="M 19.496094 15.644531 C 19.496094 17.527344 17.972656 19.054688 16.085938 19.054688 C 14.203125 19.054688 12.675781 17.527344 12.675781 15.644531 C 12.675781 13.761719 14.203125 12.234375 16.085938 12.234375 C 17.972656 12.234375 19.496094 13.761719 19.496094 15.644531 M 19.496094 15.644531 "/>
</g>
</svg>
