
<svg xmlns="http://www.w3.org/2000/svg" xmlns:xlink="http://www.w3.org/1999/xlink" width="32px" height="32px" viewBox="0 0 32 32" version="1.1">
<g id="surface1">
<path style="fill-rule:nonzero;fill:rgb(80.392158%,61.176473%,42.745098%);fill-opacity:1;stroke-width:28.191782;stroke-linecap:butt;stroke-linejoin:miter;stroke:rgb(41.568628%,30.19608%,21.960784%);stroke-opacity:1;stroke-miterlimit:4;" d="M 81.5 25.612414 L 430.5 25.612414 C 461.6875 25.612414 486.9375 50.849096 486.9375 81.97225 L 486.9375 431.027501 C 486.9375 462.150655 461.6875 487.387337 430.5 487.387337 L 81.5 487.387337 C 50.3125 487.387337 25.0625 462.150655 25.0625 431.027501 L 25.0625 81.97225 C 25.0625 50.849096 50.3125 25.612414 81.5 25.612414 Z M 81.5 25.612414 " transform="matrix(0.0625,0,0,0.0623782,0,0)"/>
<path style=" stroke:none;fill-rule:nonzero;fill:rgb(41.568628%,30.19608%,21.960784%);fill-opacity:1;" d="M 17.871094 7.980469 C 17.535156 7.980469 17.199219 7.988281 17 8.011719 C 16.574219 8.054688 15.945312 8.183594 15.527344 8.308594 C 12.457031 9.238281 10.203125 11.953125 9.867188 15.128906 C 9.824219 15.519531 9.824219 16.480469 9.867188 16.871094 C 9.910156 17.296875 10.039062 17.925781 10.167969 18.339844 C 10.707031 20.125 11.859375 21.664062 13.441406 22.714844 C 14.464844 23.390625 15.644531 23.828125 16.867188 23.980469 C 17.273438 24.027344 18.332031 24.035156 18.746094 23.996094 C 19.171875 23.949219 19.800781 23.820312 20.214844 23.695312 C 23.042969 22.839844 25.199219 20.46875 25.765625 17.582031 C 25.878906 17.015625 25.910156 16.65625 25.910156 16.003906 C 25.910156 15.128906 25.8125 14.425781 25.582031 13.660156 C 25.207031 12.433594 24.5625 11.347656 23.652344 10.410156 C 22.328125 9.050781 20.605469 8.207031 18.746094 8.011719 C 18.550781 7.988281 18.210938 7.980469 17.871094 7.980469 Z M 17.871094 8.652344 C 18.265625 8.652344 18.660156 8.667969 18.910156 8.707031 C 21.371094 9.089844 23.390625 10.558594 24.480469 12.746094 C 24.824219 13.433594 25.054688 14.167969 25.179688 14.964844 C 25.257812 15.464844 25.257812 16.535156 25.179688 17.035156 C 24.988281 18.277344 24.511719 19.421875 23.792969 20.386719 C 23.511719 20.761719 23.007812 21.320312 22.929688 21.347656 C 22.886719 21.359375 22.777344 21.3125 22.601562 21.203125 C 22.339844 21.046875 21.945312 20.871094 20.90625 20.441406 C 20.109375 20.113281 19.746094 19.859375 19.550781 19.503906 C 19.464844 19.339844 19.460938 19.332031 19.449219 18.703125 L 19.433594 18.066406 L 19.546875 17.949219 C 19.769531 17.722656 20.019531 17.1875 20.121094 16.746094 C 20.167969 16.511719 20.179688 16.496094 20.292969 16.441406 C 20.558594 16.304688 20.714844 15.9375 20.714844 15.464844 C 20.714844 15.167969 20.710938 15.15625 20.609375 15.011719 C 20.507812 14.867188 20.503906 14.851562 20.539062 14.730469 C 20.785156 13.871094 20.867188 12.949219 20.746094 12.316406 C 20.636719 11.730469 20.324219 11.285156 19.875 11.066406 C 19.75 11.007812 19.582031 10.949219 19.503906 10.933594 C 19.394531 10.917969 19.335938 10.882812 19.238281 10.78125 C 18.945312 10.472656 18.554688 10.347656 17.855469 10.351562 C 16.496094 10.355469 15.59375 10.855469 15.214844 11.816406 C 14.941406 12.511719 14.9375 13.445312 15.207031 14.683594 C 15.246094 14.855469 15.246094 14.859375 15.136719 15.007812 C 15.035156 15.15625 15.03125 15.167969 15.03125 15.464844 C 15.03125 15.941406 15.191406 16.304688 15.457031 16.441406 C 15.566406 16.496094 15.582031 16.519531 15.613281 16.683594 C 15.699219 17.109375 15.890625 17.53125 16.152344 17.871094 L 16.3125 18.085938 L 16.308594 18.71875 C 16.308594 19.417969 16.300781 19.433594 16.09375 19.691406 C 15.859375 19.980469 15.480469 20.191406 14.386719 20.636719 C 13.792969 20.878906 13.183594 21.164062 12.988281 21.296875 C 12.9375 21.332031 12.875 21.363281 12.847656 21.363281 C 12.824219 21.363281 12.699219 21.253906 12.574219 21.121094 C 11.480469 19.964844 10.8125 18.609375 10.566406 17.035156 C 10.488281 16.535156 10.488281 15.46875 10.566406 14.964844 C 10.949219 12.511719 12.417969 10.492188 14.609375 9.40625 C 15.300781 9.0625 16.035156 8.832031 16.835938 8.707031 C 17.089844 8.667969 17.480469 8.652344 17.871094 8.652344 Z M 17.871094 8.652344 "/>
<path style=" stroke:none;fill-rule:nonzero;fill:rgb(41.568628%,30.19608%,21.960784%);fill-opacity:1;" d="M 2.136719 1.792969 L 2.136719 29.839844 L 6.152344 29.839844 L 6.152344 1.792969 Z M 2.136719 1.792969 "/>
</g>
</svg>
