
<svg xmlns="http://www.w3.org/2000/svg" xmlns:xlink="http://www.w3.org/1999/xlink" width="32px" height="32px" viewBox="0 0 32 32" version="1.1">
<g id="surface1">
<path style="fill-rule:nonzero;fill:rgb(100%,100%,100%);fill-opacity:1;stroke-width:7.116325;stroke-linecap:butt;stroke-linejoin:miter;stroke:rgb(6.27451%,24.705882%,63.137257%);stroke-opacity:1;stroke-miterlimit:4;" d="M 19.953125 930.080892 L 108.046875 930.080892 C 115.921875 930.080892 122.28125 936.440267 122.28125 944.315267 L 122.28125 1032.409017 C 122.28125 1040.284017 115.921875 1046.643392 108.046875 1046.643392 L 19.953125 1046.643392 C 12.078125 1046.643392 5.71875 1040.284017 5.71875 1032.409017 L 5.71875 944.315267 C 5.71875 936.440267 12.078125 930.080892 19.953125 930.080892 Z M 19.953125 930.080892 " transform="matrix(0.25,0,0,0.25,0,-231.090535)"/>
<path style=" stroke:none;fill-rule:nonzero;fill:rgb(100%,20%,0%);fill-opacity:0.729412;" d="M 15.996094 23.464844 C 13.324219 19.441406 7.488281 23.410156 3.226562 20.730469 C 5.25 23.199219 11.957031 26.328125 15.996094 23.464844 Z M 15.996094 23.464844 "/>
<path style=" stroke:none;fill-rule:nonzero;fill:rgb(100%,69.803923%,0%);fill-opacity:0.729412;" d="M 16.011719 23.453125 C 16.3125 18.796875 12.53125 18.199219 6.304688 14.953125 C 10.003906 20.488281 10.855469 23.859375 16.011719 23.453125 Z M 16.011719 23.453125 "/>
<path style=" stroke:none;fill-rule:nonzero;fill:rgb(100%,100%,0%);fill-opacity:0.729412;" d="M 16.03125 23.449219 C 18.566406 19.359375 14.148438 14.121094 10.105469 8.824219 C 10.753906 15.226562 11.175781 21.859375 16.03125 23.449219 Z M 16.03125 23.449219 "/>
<path style=" stroke:none;fill-rule:nonzero;fill:rgb(0%,100%,20%);fill-opacity:0.729412;" d="M 16.019531 23.503906 C 19.996094 20.433594 17.527344 12.050781 15.800781 5.847656 C 13.910156 12.054688 12.082031 20.535156 16.019531 23.503906 Z M 16.019531 23.503906 "/>
<path style=" stroke:none;fill-rule:nonzero;fill:rgb(20%,60.000002%,100%);fill-opacity:0.729412;" d="M 16.03125 23.449219 C 13.492188 19.359375 17.910156 14.121094 21.953125 8.824219 C 21.304688 15.226562 20.886719 21.859375 16.03125 23.449219 Z M 16.03125 23.449219 "/>
<path style=" stroke:none;fill-rule:nonzero;fill:rgb(0%,20%,60.000002%);fill-opacity:0.729412;" d="M 16.019531 23.503906 C 15.71875 18.847656 19.5 18.253906 25.726562 15.003906 C 22.023438 20.539062 21.175781 23.910156 16.019531 23.503906 Z M 16.019531 23.503906 "/>
<path style=" stroke:none;fill-rule:nonzero;fill:rgb(60.000002%,0%,60.000002%);fill-opacity:0.729412;" d="M 15.996094 23.464844 C 18.667969 19.441406 24.5 23.410156 28.761719 20.730469 C 26.738281 23.199219 20.03125 26.328125 15.996094 23.464844 Z M 15.996094 23.464844 "/>
</g>
</svg>
