<!-- color: #eeeeee -->
<svg xmlns="http://www.w3.org/2000/svg" xmlns:xlink="http://www.w3.org/1999/xlink" width="32px" height="32px" viewBox="0 0 32 32" version="1.1">
<defs>
<clipPath id="clip1">
  <path d="M 5.8125 7.25 L 14 7.25 L 14 14.875 L 5.8125 14.875 Z M 5.8125 7.25 "/>
</clipPath>
<clipPath id="clip2">
  <path d="M 32.65625 16.082031 C 32.65625 25.488281 25.03125 33.105469 15.636719 33.105469 C 6.238281 33.105469 -1.386719 25.488281 -1.386719 16.082031 C -1.386719 6.679688 6.238281 -0.9375 15.636719 -0.9375 C 25.03125 -0.9375 32.65625 6.679688 32.65625 16.082031 Z M 32.65625 16.082031 "/>
</clipPath>
<clipPath id="clip3">
  <path d="M 16.9375 7.25 L 25.1875 7.25 L 25.1875 14.875 L 16.9375 14.875 Z M 16.9375 7.25 "/>
</clipPath>
<clipPath id="clip4">
  <path d="M 32.65625 16.082031 C 32.65625 25.488281 25.03125 33.105469 15.636719 33.105469 C 6.238281 33.105469 -1.386719 25.488281 -1.386719 16.082031 C -1.386719 6.679688 6.238281 -0.9375 15.636719 -0.9375 C 25.03125 -0.9375 32.65625 6.679688 32.65625 16.082031 Z M 32.65625 16.082031 "/>
</clipPath>
<clipPath id="clip5">
  <path d="M 17.8125 8 L 24.3125 8 L 24.3125 14.0625 L 17.8125 14.0625 Z M 17.8125 8 "/>
</clipPath>
<clipPath id="clip6">
  <path d="M 32.65625 16.082031 C 32.65625 25.488281 25.03125 33.105469 15.636719 33.105469 C 6.238281 33.105469 -1.386719 25.488281 -1.386719 16.082031 C -1.386719 6.679688 6.238281 -0.9375 15.636719 -0.9375 C 25.03125 -0.9375 32.65625 6.679688 32.65625 16.082031 Z M 32.65625 16.082031 "/>
</clipPath>
<clipPath id="clip7">
  <path d="M 6.5625 8 L 13.125 8 L 13.125 14 L 6.5625 14 Z M 6.5625 8 "/>
</clipPath>
<clipPath id="clip8">
  <path d="M 32.65625 16.082031 C 32.65625 25.488281 25.03125 33.105469 15.636719 33.105469 C 6.238281 33.105469 -1.386719 25.488281 -1.386719 16.082031 C -1.386719 6.679688 6.238281 -0.9375 15.636719 -0.9375 C 25.03125 -0.9375 32.65625 6.679688 32.65625 16.082031 Z M 32.65625 16.082031 "/>
</clipPath>
<clipPath id="clip9">
  <path d="M 5.5625 7.1875 L 25.6875 7.1875 L 25.6875 25 L 5.5625 25 Z M 5.5625 7.1875 "/>
</clipPath>
<clipPath id="clip10">
  <path d="M 32.65625 16.082031 C 32.65625 25.488281 25.03125 33.105469 15.636719 33.105469 C 6.238281 33.105469 -1.386719 25.488281 -1.386719 16.082031 C -1.386719 6.679688 6.238281 -0.9375 15.636719 -0.9375 C 25.03125 -0.9375 32.65625 6.679688 32.65625 16.082031 Z M 32.65625 16.082031 "/>
</clipPath>
<clipPath id="clip11">
  <path d="M 3.4375 13 L 14.5 13 L 14.5 23 L 3.4375 23 Z M 3.4375 13 "/>
</clipPath>
<clipPath id="clip12">
  <path d="M 32.65625 16.082031 C 32.65625 25.488281 25.03125 33.105469 15.636719 33.105469 C 6.238281 33.105469 -1.386719 25.488281 -1.386719 16.082031 C -1.386719 6.679688 6.238281 -0.9375 15.636719 -0.9375 C 25.03125 -0.9375 32.65625 6.679688 32.65625 16.082031 Z M 32.65625 16.082031 "/>
</clipPath>
<clipPath id="clip13">
  <path d="M 12.75 22 L 18.3125 22 L 18.3125 24.625 L 12.75 24.625 Z M 12.75 22 "/>
</clipPath>
<clipPath id="clip14">
  <path d="M 32.65625 16.082031 C 32.65625 25.488281 25.03125 33.105469 15.636719 33.105469 C 6.238281 33.105469 -1.386719 25.488281 -1.386719 16.082031 C -1.386719 6.679688 6.238281 -0.9375 15.636719 -0.9375 C 25.03125 -0.9375 32.65625 6.679688 32.65625 16.082031 Z M 32.65625 16.082031 "/>
</clipPath>
<clipPath id="clip15">
  <path d="M 16.667969 12.875 L 27.6875 12.875 L 27.6875 22.9375 L 16.667969 22.9375 Z M 16.667969 12.875 "/>
</clipPath>
<clipPath id="clip16">
  <path d="M 32.65625 16.082031 C 32.65625 25.488281 25.03125 33.105469 15.636719 33.105469 C 6.238281 33.105469 -1.386719 25.488281 -1.386719 16.082031 C -1.386719 6.679688 6.238281 -0.9375 15.636719 -0.9375 C 25.03125 -0.9375 32.65625 6.679688 32.65625 16.082031 Z M 32.65625 16.082031 "/>
</clipPath>
<clipPath id="clip17">
  <path d="M 9.0625 11.5 L 22.25 11.5 L 22.25 23.4375 L 9.0625 23.4375 Z M 9.0625 11.5 "/>
</clipPath>
<clipPath id="clip18">
  <path d="M 32.65625 16.082031 C 32.65625 25.488281 25.03125 33.105469 15.636719 33.105469 C 6.238281 33.105469 -1.386719 25.488281 -1.386719 16.082031 C -1.386719 6.679688 6.238281 -0.9375 15.636719 -0.9375 C 25.03125 -0.9375 32.65625 6.679688 32.65625 16.082031 Z M 32.65625 16.082031 "/>
</clipPath>
<clipPath id="clip19">
  <path d="M 11.125 15.5 L 13.5625 15.5 L 13.5625 17.875 L 11.125 17.875 Z M 11.125 15.5 "/>
</clipPath>
<clipPath id="clip20">
  <path d="M 32.65625 16.082031 C 32.65625 25.488281 25.03125 33.105469 15.636719 33.105469 C 6.238281 33.105469 -1.386719 25.488281 -1.386719 16.082031 C -1.386719 6.679688 6.238281 -0.9375 15.636719 -0.9375 C 25.03125 -0.9375 32.65625 6.679688 32.65625 16.082031 Z M 32.65625 16.082031 "/>
</clipPath>
<clipPath id="clip21">
  <path d="M 17.8125 15.4375 L 20.1875 15.4375 L 20.1875 17.875 L 17.8125 17.875 Z M 17.8125 15.4375 "/>
</clipPath>
<clipPath id="clip22">
  <path d="M 32.65625 16.082031 C 32.65625 25.488281 25.03125 33.105469 15.636719 33.105469 C 6.238281 33.105469 -1.386719 25.488281 -1.386719 16.082031 C -1.386719 6.679688 6.238281 -0.9375 15.636719 -0.9375 C 25.03125 -0.9375 32.65625 6.679688 32.65625 16.082031 Z M 32.65625 16.082031 "/>
</clipPath>
<clipPath id="clip23">
  <path d="M 10.375 16.125 L 20.9375 16.125 L 20.9375 23.0625 L 10.375 23.0625 Z M 10.375 16.125 "/>
</clipPath>
<clipPath id="clip24">
  <path d="M 32.65625 16.082031 C 32.65625 25.488281 25.03125 33.105469 15.636719 33.105469 C 6.238281 33.105469 -1.386719 25.488281 -1.386719 16.082031 C -1.386719 6.679688 6.238281 -0.9375 15.636719 -0.9375 C 25.03125 -0.9375 32.65625 6.679688 32.65625 16.082031 Z M 32.65625 16.082031 "/>
</clipPath>
<clipPath id="clip25">
  <path d="M 14 18.4375 L 17.3125 18.4375 L 17.3125 21.75 L 14 21.75 Z M 14 18.4375 "/>
</clipPath>
<clipPath id="clip26">
  <path d="M 32.65625 16.082031 C 32.65625 25.488281 25.03125 33.105469 15.636719 33.105469 C 6.238281 33.105469 -1.386719 25.488281 -1.386719 16.082031 C -1.386719 6.679688 6.238281 -0.9375 15.636719 -0.9375 C 25.03125 -0.9375 32.65625 6.679688 32.65625 16.082031 Z M 32.65625 16.082031 "/>
</clipPath>
<clipPath id="clip27">
  <path d="M 15.9375 19.0625 L 16.667969 19.0625 L 16.667969 19.8125 L 15.9375 19.8125 Z M 15.9375 19.0625 "/>
</clipPath>
<clipPath id="clip28">
  <path d="M 32.65625 16.082031 C 32.65625 25.488281 25.03125 33.105469 15.636719 33.105469 C 6.238281 33.105469 -1.386719 25.488281 -1.386719 16.082031 C -1.386719 6.679688 6.238281 -0.9375 15.636719 -0.9375 C 25.03125 -0.9375 32.65625 6.679688 32.65625 16.082031 Z M 32.65625 16.082031 "/>
</clipPath>
<clipPath id="clip29">
  <path d="M 11.375 15.6875 L 13.25 15.6875 L 13.25 17.5625 L 11.375 17.5625 Z M 11.375 15.6875 "/>
</clipPath>
<clipPath id="clip30">
  <path d="M 32.65625 16.082031 C 32.65625 25.488281 25.03125 33.105469 15.636719 33.105469 C 6.238281 33.105469 -1.386719 25.488281 -1.386719 16.082031 C -1.386719 6.679688 6.238281 -0.9375 15.636719 -0.9375 C 25.03125 -0.9375 32.65625 6.679688 32.65625 16.082031 Z M 32.65625 16.082031 "/>
</clipPath>
<clipPath id="clip31">
  <path d="M 18.0625 15.6875 L 19.9375 15.6875 L 19.9375 17.5625 L 18.0625 17.5625 Z M 18.0625 15.6875 "/>
</clipPath>
<clipPath id="clip32">
  <path d="M 32.65625 16.082031 C 32.65625 25.488281 25.03125 33.105469 15.636719 33.105469 C 6.238281 33.105469 -1.386719 25.488281 -1.386719 16.082031 C -1.386719 6.679688 6.238281 -0.9375 15.636719 -0.9375 C 25.03125 -0.9375 32.65625 6.679688 32.65625 16.082031 Z M 32.65625 16.082031 "/>
</clipPath>
<clipPath id="clip33">
  <path d="M 11.6875 16 L 12.75 16 L 12.75 17.0625 L 11.6875 17.0625 Z M 11.6875 16 "/>
</clipPath>
<clipPath id="clip34">
  <path d="M 32.65625 16.082031 C 32.65625 25.488281 25.03125 33.105469 15.636719 33.105469 C 6.238281 33.105469 -1.386719 25.488281 -1.386719 16.082031 C -1.386719 6.679688 6.238281 -0.9375 15.636719 -0.9375 C 25.03125 -0.9375 32.65625 6.679688 32.65625 16.082031 Z M 32.65625 16.082031 "/>
</clipPath>
<clipPath id="clip35">
  <path d="M 11.8125 16.125 L 12.25 16.125 L 12.25 16.625 L 11.8125 16.625 Z M 11.8125 16.125 "/>
</clipPath>
<clipPath id="clip36">
  <path d="M 32.65625 16.082031 C 32.65625 25.488281 25.03125 33.105469 15.636719 33.105469 C 6.238281 33.105469 -1.386719 25.488281 -1.386719 16.082031 C -1.386719 6.679688 6.238281 -0.9375 15.636719 -0.9375 C 25.03125 -0.9375 32.65625 6.679688 32.65625 16.082031 Z M 32.65625 16.082031 "/>
</clipPath>
<clipPath id="clip37">
  <path d="M 18.375 16.0625 L 19.4375 16.0625 L 19.4375 17.125 L 18.375 17.125 Z M 18.375 16.0625 "/>
</clipPath>
<clipPath id="clip38">
  <path d="M 32.65625 16.082031 C 32.65625 25.488281 25.03125 33.105469 15.636719 33.105469 C 6.238281 33.105469 -1.386719 25.488281 -1.386719 16.082031 C -1.386719 6.679688 6.238281 -0.9375 15.636719 -0.9375 C 25.03125 -0.9375 32.65625 6.679688 32.65625 16.082031 Z M 32.65625 16.082031 "/>
</clipPath>
<clipPath id="clip39">
  <path d="M 18.5 16.1875 L 19 16.1875 L 19 16.667969 L 18.5 16.667969 Z M 18.5 16.1875 "/>
</clipPath>
<clipPath id="clip40">
  <path d="M 32.65625 16.082031 C 32.65625 25.488281 25.03125 33.105469 15.636719 33.105469 C 6.238281 33.105469 -1.386719 25.488281 -1.386719 16.082031 C -1.386719 6.679688 6.238281 -0.9375 15.636719 -0.9375 C 25.03125 -0.9375 32.65625 6.679688 32.65625 16.082031 Z M 32.65625 16.082031 "/>
</clipPath>
<clipPath id="clip41">
  <path d="M 15.25 21.4375 L 18.0625 21.4375 L 18.0625 23.375 L 15.25 23.375 Z M 15.25 21.4375 "/>
</clipPath>
<clipPath id="clip42">
  <path d="M 32.65625 16.082031 C 32.65625 25.488281 25.03125 33.105469 15.636719 33.105469 C 6.238281 33.105469 -1.386719 25.488281 -1.386719 16.082031 C -1.386719 6.679688 6.238281 -0.9375 15.636719 -0.9375 C 25.03125 -0.9375 32.65625 6.679688 32.65625 16.082031 Z M 32.65625 16.082031 "/>
</clipPath>
</defs>
<g id="surface1">
<path style="fill-rule:nonzero;fill:rgb(100%,49.803922%,16.470589%);fill-opacity:1;stroke-width:6.83146;stroke-linecap:butt;stroke-linejoin:miter;stroke:rgb(24.705882%,24.705882%,24.705882%);stroke-opacity:1;stroke-miterlimit:4;" d="M 21.703125 8.046875 L 106.296875 8.046875 C 113.828125 8.046875 119.953125 14.171875 119.953125 21.703125 L 119.953125 106.296875 C 119.953125 113.828125 113.828125 119.953125 106.296875 119.953125 L 21.703125 119.953125 C 14.171875 119.953125 8.046875 113.828125 8.046875 106.296875 L 8.046875 21.703125 C 8.046875 14.171875 14.171875 8.046875 21.703125 8.046875 Z M 21.703125 8.046875 " transform="matrix(0.25,0,0,0.25,0,0)"/>
<g clip-path="url(#clip1)" clip-rule="nonzero">
<g clip-path="url(#clip2)" clip-rule="nonzero">
<path style=" stroke:none;fill-rule:nonzero;fill:rgb(97.647059%,97.647059%,97.647059%);fill-opacity:1;" d="M 6.105469 7.621094 C 5.003906 9.035156 7.394531 12.417969 8.402344 14.839844 L 13.980469 8.605469 C 11.683594 7.949219 7.085938 6.636719 6.113281 7.617188 M 6.101562 7.621094 "/>
</g>
</g>
<g clip-path="url(#clip3)" clip-rule="nonzero">
<g clip-path="url(#clip4)" clip-rule="nonzero">
<path style=" stroke:none;fill-rule:nonzero;fill:rgb(97.647059%,97.647059%,97.647059%);fill-opacity:1;" d="M 24.859375 7.621094 C 25.964844 9.035156 23.570312 12.417969 22.5625 14.839844 L 16.984375 8.605469 C 19.28125 7.949219 23.878906 6.636719 24.847656 7.617188 M 24.863281 7.621094 "/>
</g>
</g>
<g clip-path="url(#clip5)" clip-rule="nonzero">
<g clip-path="url(#clip6)" clip-rule="nonzero">
<path style=" stroke:none;fill-rule:nonzero;fill:rgb(72.549021%,47.058824%,12.54902%);fill-opacity:1;" d="M 24.066406 8.339844 C 24.9375 9.457031 23.046875 12.136719 22.246094 14.050781 L 17.839844 9.117188 C 19.652344 8.601562 23.285156 7.5625 24.066406 8.339844 M 24.066406 8.339844 "/>
</g>
</g>
<g clip-path="url(#clip7)" clip-rule="nonzero">
<g clip-path="url(#clip8)" clip-rule="nonzero">
<path style=" stroke:none;fill-rule:nonzero;fill:rgb(72.549021%,47.058824%,12.54902%);fill-opacity:1;" d="M 6.835938 8.28125 C 5.964844 9.402344 7.855469 12.082031 8.652344 13.992188 L 13.066406 9.0625 C 11.246094 8.542969 7.617188 7.503906 6.835938 8.28125 M 6.835938 8.28125 "/>
</g>
</g>
<g clip-path="url(#clip9)" clip-rule="nonzero">
<g clip-path="url(#clip10)" clip-rule="nonzero">
<path style=" stroke:none;fill-rule:nonzero;fill:rgb(100%,70.19608%,32.941177%);fill-opacity:1;" d="M 13.765625 7.210938 C 9.992188 7.277344 6.621094 12.328125 5.785156 16.644531 C 5.359375 18.828125 5.582031 20.824219 6.726562 21.890625 C 8.484375 23.261719 9.308594 22.527344 11.121094 22.984375 C 12.519531 23.339844 13.140625 25.082031 15.558594 24.953125 L 15.632812 24.9375 L 15.703125 24.953125 C 18.125 25.082031 18.742188 23.339844 20.144531 22.984375 C 21.953125 22.53125 22.765625 23.253906 24.535156 21.890625 C 27.945312 18.71875 23.175781 7.304688 17.496094 7.207031 C 16.53125 7.148438 16.191406 7.59375 15.628906 7.851562 C 15.066406 7.589844 14.730469 7.148438 13.761719 7.207031 M 13.761719 7.210938 "/>
</g>
</g>
<g clip-path="url(#clip11)" clip-rule="nonzero">
<g clip-path="url(#clip12)" clip-rule="nonzero">
<path style=" stroke:none;fill-rule:nonzero;fill:rgb(97.647059%,97.647059%,97.647059%);fill-opacity:1;" d="M 12.332031 13.917969 C 12.671875 14.722656 9.953125 15.496094 9.523438 15.519531 C 8.945312 15.507812 9.007812 14.894531 7.941406 14.71875 C 6.394531 14.550781 4.347656 15.417969 3.449219 17.144531 C 4.621094 16.390625 5.261719 16.652344 6.214844 17.410156 C 5.214844 17.894531 4.449219 18.371094 3.691406 19.59375 C 4.652344 18.765625 5.683594 19.269531 6.3125 20.09375 C 4.519531 20.707031 4.589844 21.730469 4.746094 22.300781 C 5.441406 21.367188 6.074219 20.78125 7.597656 21.167969 C 7.332031 21.832031 7.324219 22.367188 7.472656 22.957031 C 11.203125 21.433594 12.054688 22.128906 14.464844 22.050781 C 13.980469 19.425781 14.511719 16.300781 13.675781 14.085938 C 13.335938 13.5 13.28125 13.019531 12.363281 13.003906 C 11.183594 13.050781 11.132812 13.375 11.097656 13.691406 C 11.292969 13.523438 12.058594 13.191406 12.328125 13.910156 M 12.332031 13.914062 "/>
</g>
</g>
<g clip-path="url(#clip13)" clip-rule="nonzero">
<g clip-path="url(#clip14)" clip-rule="nonzero">
<path style=" stroke:none;fill-rule:nonzero;fill:rgb(87.058824%,15.686275%,9.803922%);fill-opacity:1;" d="M 18.304688 23.300781 C 18.304688 24.011719 17.058594 24.597656 15.527344 24.597656 C 13.996094 24.597656 12.753906 24.011719 12.753906 23.300781 C 12.753906 22.585938 13.996094 22.003906 15.527344 22.003906 C 17.058594 22.003906 18.304688 22.585938 18.304688 23.300781 M 18.304688 23.300781 "/>
</g>
</g>
<g clip-path="url(#clip15)" clip-rule="nonzero">
<g clip-path="url(#clip16)" clip-rule="nonzero">
<path style=" stroke:none;fill-rule:nonzero;fill:rgb(97.647059%,97.647059%,97.647059%);fill-opacity:1;" d="M 18.800781 13.855469 C 18.460938 14.660156 21.183594 15.433594 21.609375 15.453125 C 22.1875 15.445312 22.128906 14.828125 23.191406 14.65625 C 24.738281 14.488281 26.785156 15.355469 27.683594 17.078125 C 26.511719 16.324219 25.871094 16.585938 24.917969 17.347656 C 25.921875 17.835938 26.683594 18.308594 27.441406 19.53125 C 26.484375 18.703125 25.449219 19.207031 24.824219 20.035156 C 26.613281 20.644531 26.542969 21.667969 26.390625 22.242188 C 25.695312 21.308594 25.066406 20.714844 23.535156 21.105469 C 23.800781 21.769531 23.808594 22.304688 23.660156 22.890625 C 19.929688 21.371094 19.078125 22.066406 16.667969 21.988281 C 17.15625 19.363281 16.621094 16.238281 17.457031 14.027344 C 17.796875 13.433594 17.851562 12.957031 18.769531 12.933594 C 19.949219 12.988281 20 13.3125 20.042969 13.628906 C 19.84375 13.460938 19.074219 13.125 18.808594 13.847656 M 18.804688 13.851562 "/>
</g>
</g>
<g clip-path="url(#clip17)" clip-rule="nonzero">
<g clip-path="url(#clip18)" clip-rule="nonzero">
<path style=" stroke:none;fill-rule:nonzero;fill:rgb(44.313726%,26.274511%,9.803922%);fill-opacity:1;" d="M 15.664062 11.566406 C 15.277344 11.617188 14.523438 15.054688 13.882812 16.808594 C 13.230469 15.585938 12.957031 15.164062 12.386719 15.167969 C 11.300781 15.175781 9.097656 17.789062 9.089844 19.855469 C 9.105469 23.050781 12.386719 23.375 15.667969 23.375 L 15.667969 23.371094 C 18.953125 23.371094 22.234375 23.058594 22.246094 19.867188 C 22.234375 17.804688 20.035156 15.183594 18.957031 15.175781 C 18.382812 15.175781 18.113281 15.59375 17.457031 16.820312 C 16.816406 15.054688 16.066406 11.609375 15.671875 11.546875 M 15.671875 11.566406 "/>
</g>
</g>
<g clip-path="url(#clip19)" clip-rule="nonzero">
<g clip-path="url(#clip20)" clip-rule="nonzero">
<path style=" stroke:none;fill-rule:nonzero;fill:rgb(97.647059%,97.647059%,97.647059%);fill-opacity:1;" d="M 13.542969 16.6875 C 13.542969 17.34375 13.003906 17.875 12.355469 17.875 C 11.699219 17.875 11.167969 17.339844 11.167969 16.6875 C 11.167969 16.035156 11.699219 15.5 12.355469 15.5 C 13.011719 15.5 13.542969 16.035156 13.542969 16.6875 M 13.542969 16.6875 "/>
</g>
</g>
<g clip-path="url(#clip21)" clip-rule="nonzero">
<g clip-path="url(#clip22)" clip-rule="nonzero">
<path style=" stroke:none;fill-rule:nonzero;fill:rgb(97.647059%,97.647059%,97.647059%);fill-opacity:1;" d="M 20.1875 16.640625 C 20.1875 17.296875 19.652344 17.828125 19 17.828125 C 18.34375 17.828125 17.8125 17.292969 17.8125 16.640625 C 17.8125 15.984375 18.347656 15.453125 19 15.453125 C 19.652344 15.453125 20.1875 15.984375 20.1875 16.640625 M 20.1875 16.640625 "/>
</g>
</g>
<g clip-path="url(#clip23)" clip-rule="nonzero">
<g clip-path="url(#clip24)" clip-rule="nonzero">
<path style=" stroke:none;fill-rule:nonzero;fill:rgb(97.647059%,97.647059%,97.647059%);fill-opacity:1;" d="M 15.664062 16.160156 C 13.371094 16.160156 10.421875 19.113281 10.421875 21.082031 C 10.410156 22.949219 12.394531 23.046875 13.378906 23.046875 C 14.324219 23.066406 15.328125 23.121094 15.675781 22.722656 C 16.023438 23.121094 17.023438 23.066406 17.972656 23.046875 C 18.957031 23.046875 20.941406 22.949219 20.925781 21.082031 C 20.925781 19.113281 17.972656 16.160156 15.683594 16.160156 M 15.664062 16.160156 "/>
</g>
</g>
<g clip-path="url(#clip25)" clip-rule="nonzero">
<g clip-path="url(#clip26)" clip-rule="nonzero">
<path style=" stroke:none;fill-rule:nonzero;fill:rgb(17.647059%,17.647059%,17.647059%);fill-opacity:1;" d="M 17.308594 20.09375 C 17.308594 21.003906 16.574219 21.738281 15.660156 21.738281 C 14.753906 21.738281 14.019531 21.003906 14.019531 20.09375 C 14.019531 19.191406 14.753906 18.457031 15.660156 18.457031 C 16.570312 18.457031 17.308594 19.191406 17.308594 20.09375 M 17.308594 20.09375 "/>
</g>
</g>
<g clip-path="url(#clip27)" clip-rule="nonzero">
<g clip-path="url(#clip28)" clip-rule="nonzero">
<path style=" stroke:none;fill-rule:nonzero;fill:rgb(97.647059%,97.647059%,97.647059%);fill-opacity:1;" d="M 16.652344 19.4375 C 16.652344 19.621094 16.503906 19.769531 16.324219 19.769531 C 16.140625 19.769531 15.996094 19.621094 15.996094 19.4375 C 15.996094 19.257812 16.140625 19.113281 16.324219 19.113281 C 16.503906 19.113281 16.652344 19.257812 16.652344 19.4375 M 16.652344 19.4375 "/>
</g>
</g>
<g clip-path="url(#clip29)" clip-rule="nonzero">
<g clip-path="url(#clip30)" clip-rule="nonzero">
<path style=" stroke:none;fill-rule:nonzero;fill:rgb(60.000002%,80.000001%,100%);fill-opacity:1;" d="M 13.203125 16.628906 C 13.203125 17.117188 12.808594 17.511719 12.320312 17.511719 C 11.832031 17.511719 11.433594 17.117188 11.433594 16.628906 C 11.433594 16.136719 11.832031 15.742188 12.320312 15.742188 C 12.808594 15.742188 13.203125 16.136719 13.203125 16.628906 M 13.203125 16.628906 "/>
</g>
</g>
<g clip-path="url(#clip31)" clip-rule="nonzero">
<g clip-path="url(#clip32)" clip-rule="nonzero">
<path style=" stroke:none;fill-rule:nonzero;fill:rgb(60.000002%,80.000001%,100%);fill-opacity:1;" d="M 19.886719 16.628906 C 19.886719 17.117188 19.488281 17.511719 18.996094 17.511719 C 18.507812 17.511719 18.113281 17.117188 18.113281 16.628906 C 18.113281 16.136719 18.507812 15.742188 18.996094 15.742188 C 19.488281 15.742188 19.886719 16.136719 19.886719 16.628906 M 19.886719 16.628906 "/>
</g>
</g>
<g clip-path="url(#clip33)" clip-rule="nonzero">
<g clip-path="url(#clip34)" clip-rule="nonzero">
<path style=" stroke:none;fill-rule:nonzero;fill:rgb(17.647059%,17.647059%,17.647059%);fill-opacity:1;" d="M 12.742188 16.542969 C 12.742188 16.820312 12.511719 17.046875 12.230469 17.046875 C 11.953125 17.046875 11.722656 16.820312 11.722656 16.542969 C 11.722656 16.257812 11.953125 16.03125 12.230469 16.03125 C 12.511719 16.03125 12.742188 16.257812 12.742188 16.542969 M 12.742188 16.542969 "/>
</g>
</g>
<g clip-path="url(#clip35)" clip-rule="nonzero">
<g clip-path="url(#clip36)" clip-rule="nonzero">
<path style=" stroke:none;fill-rule:nonzero;fill:rgb(97.647059%,97.647059%,97.647059%);fill-opacity:1;" d="M 12.246094 16.367188 C 12.246094 16.488281 12.148438 16.585938 12.03125 16.585938 C 11.910156 16.585938 11.8125 16.488281 11.8125 16.367188 C 11.8125 16.246094 11.910156 16.148438 12.03125 16.148438 C 12.148438 16.148438 12.246094 16.246094 12.246094 16.367188 M 12.246094 16.367188 "/>
</g>
</g>
<g clip-path="url(#clip37)" clip-rule="nonzero">
<g clip-path="url(#clip38)" clip-rule="nonzero">
<path style=" stroke:none;fill-rule:nonzero;fill:rgb(17.647059%,17.647059%,17.647059%);fill-opacity:1;" d="M 19.386719 16.585938 C 19.386719 16.859375 19.167969 17.078125 18.894531 17.078125 C 18.621094 17.078125 18.402344 16.859375 18.402344 16.585938 C 18.402344 16.3125 18.621094 16.089844 18.894531 16.089844 C 19.167969 16.089844 19.386719 16.3125 19.386719 16.585938 M 19.386719 16.585938 "/>
</g>
</g>
<g clip-path="url(#clip39)" clip-rule="nonzero">
<g clip-path="url(#clip40)" clip-rule="nonzero">
<path style=" stroke:none;fill-rule:nonzero;fill:rgb(97.647059%,97.647059%,97.647059%);fill-opacity:1;" d="M 18.972656 16.425781 C 18.972656 16.546875 18.871094 16.644531 18.753906 16.644531 C 18.632812 16.644531 18.535156 16.546875 18.535156 16.425781 C 18.535156 16.308594 18.632812 16.207031 18.753906 16.207031 C 18.871094 16.207031 18.972656 16.308594 18.972656 16.425781 M 18.972656 16.425781 "/>
</g>
</g>
<g clip-path="url(#clip41)" clip-rule="nonzero">
<g clip-path="url(#clip42)" clip-rule="nonzero">
<path style=" stroke:none;fill-rule:nonzero;fill:rgb(78.431374%,27.058825%,27.058825%);fill-opacity:1;" d="M 16.308594 22.191406 L 15.257812 23.371094 C 15.894531 23.371094 16.515625 23.371094 17.136719 23.34375 L 17.769531 22.46875 C 18.035156 22.070312 18.175781 21.699219 17.769531 21.550781 C 16.902344 21.269531 16.621094 21.839844 16.308594 22.191406 M 16.308594 22.191406 "/>
</g>
</g>
</g>
</svg>
