
<svg xmlns="http://www.w3.org/2000/svg" xmlns:xlink="http://www.w3.org/1999/xlink" width="32px" height="32px" viewBox="0 0 32 32" version="1.1">
<g id="surface1">
<path style="fill-rule:nonzero;fill:rgb(100%,100%,100%);fill-opacity:1;stroke-width:28.191782;stroke-linecap:butt;stroke-linejoin:miter;stroke:rgb(63.137257%,19.215687%,6.27451%);stroke-opacity:1;stroke-miterlimit:4;" d="M 81.5 25.0625 L 430.5 25.0625 C 461.6875 25.0625 486.9375 50.3125 486.9375 81.5 L 486.9375 430.5 C 486.9375 461.6875 461.6875 486.9375 430.5 486.9375 L 81.5 486.9375 C 50.3125 486.9375 25.0625 461.6875 25.0625 430.5 L 25.0625 81.5 C 25.0625 50.3125 50.3125 25.0625 81.5 25.0625 Z M 81.5 25.0625 " transform="matrix(0.0625,0,0,0.0625,0,0)"/>
<path style="fill-rule:evenodd;fill:rgb(100%,100%,100%);fill-opacity:1;stroke-width:1;stroke-linecap:butt;stroke-linejoin:miter;stroke:rgb(0%,0%,0%);stroke-opacity:1;stroke-miterlimit:4;" d="M 61.375 57.0625 L 454.0625 57.0625 L 454.0625 456.1875 L 61.375 456.1875 Z M 61.375 57.0625 " transform="matrix(0.0625,0,0,0.0625,0,0)"/>
<path style=" stroke:none;fill-rule:nonzero;fill:rgb(93.333334%,40.784314%,16.078432%);fill-opacity:1;" d="M 4.78125 29.714844 C 3.574219 29.425781 2.617188 28.457031 2.332031 27.242188 C 2.25 26.90625 2.238281 25.496094 2.238281 15.9375 C 2.238281 3.902344 2.214844 4.667969 2.613281 3.855469 C 2.871094 3.332031 3.503906 2.691406 4.03125 2.4375 C 4.839844 2.042969 4.078125 2.066406 16.082031 2.066406 C 28.085938 2.066406 27.324219 2.042969 28.132812 2.4375 C 28.660156 2.691406 29.296875 3.332031 29.550781 3.855469 C 29.949219 4.667969 29.925781 3.902344 29.925781 15.9375 C 29.925781 25.496094 29.914062 26.90625 29.832031 27.242188 C 29.542969 28.46875 28.585938 29.429688 27.355469 29.71875 C 26.796875 29.851562 5.328125 29.847656 4.78125 29.714844 Z M 13.683594 26.675781 C 15.324219 26.339844 17.035156 25.363281 18.519531 23.90625 C 18.761719 23.667969 18.980469 23.496094 19.003906 23.527344 C 19.027344 23.550781 19.121094 23.777344 19.214844 24.023438 C 19.519531 24.839844 19.84375 25.402344 20.238281 25.800781 C 21.054688 26.621094 22.074219 26.777344 23.503906 26.292969 C 24.609375 25.917969 25.332031 25.402344 25.691406 24.726562 C 25.871094 24.390625 25.894531 24.292969 25.917969 23.785156 C 25.933594 23.371094 25.917969 23.1875 25.855469 23.109375 C 25.792969 23.023438 25.609375 22.988281 24.902344 22.917969 C 23.949219 22.828125 23.808594 22.78125 23.460938 22.433594 C 22.941406 21.914062 22.738281 21.203125 22.785156 20.082031 C 22.816406 19.261719 22.898438 18.90625 23.550781 16.652344 C 24.191406 14.464844 24.265625 14.132812 24.199219 13.886719 C 24.097656 13.503906 23.660156 13.15625 22.667969 12.660156 C 21.699219 12.183594 21.347656 12.066406 20.917969 12.097656 C 20.605469 12.121094 20.527344 12.152344 20.351562 12.324219 C 20.042969 12.621094 19.917969 12.992188 19.71875 14.1875 C 19.242188 17.066406 18.828125 18.589844 18.207031 19.761719 C 17.550781 20.996094 16.882812 21.566406 15.605469 21.996094 C 15.136719 22.15625 14.917969 22.195312 14.339844 22.21875 C 13.269531 22.265625 12.652344 22.105469 11.933594 21.601562 C 10.886719 20.867188 10.476562 19.660156 10.597656 17.683594 C 10.75 15.3125 11.632812 13.253906 13.15625 11.726562 C 14.324219 10.554688 15.550781 9.890625 17.304688 9.484375 C 17.699219 9.394531 18.027344 9.371094 19.15625 9.375 C 20.449219 9.375 20.566406 9.386719 21.234375 9.542969 C 22.789062 9.910156 23.792969 10.414062 24.765625 11.316406 C 25.015625 11.550781 25.3125 11.777344 25.425781 11.824219 C 25.875 12.011719 26.175781 11.871094 26.246094 11.441406 C 26.300781 11.136719 26.183594 9.953125 26.046875 9.433594 C 25.386719 6.84375 23.144531 5.25 19.890625 5.054688 C 16.140625 4.832031 12.050781 6.332031 9.785156 8.761719 C 8.027344 10.652344 6.683594 13.328125 6.152344 16.027344 C 5.730469 18.160156 5.804688 19.984375 6.386719 21.734375 C 7.214844 24.238281 9.246094 26.175781 11.554688 26.675781 C 12.074219 26.789062 13.121094 26.789062 13.683594 26.675781 Z M 13.683594 26.675781 "/>
</g>
</svg>
