
<svg xmlns="http://www.w3.org/2000/svg" xmlns:xlink="http://www.w3.org/1999/xlink" width="32px" height="32px" viewBox="0 0 32 32" version="1.1">
<g id="surface1">
<path style="fill-rule:nonzero;fill:rgb(100%,100%,100%);fill-opacity:1;stroke-width:56.650757;stroke-linecap:butt;stroke-linejoin:miter;stroke:rgb(45.882353%,49.803922%,59.215689%);stroke-opacity:1;stroke-miterlimit:4;" d="M 161.375 48 L 862.625 48 C 925.25 48 976 98.75 976 161.375 L 976 862.625 C 976 925.25 925.25 976 862.625 976 L 161.375 976 C 98.75 976 48 925.25 48 862.625 L 48 161.375 C 48 98.75 98.75 48 161.375 48 Z M 161.375 48 " transform="matrix(0.03125,0,0,0.03125,0,0)"/>
<path style=" stroke:none;fill-rule:nonzero;fill:rgb(85.882354%,42.352942%,42.352942%);fill-opacity:1;" d="M 19.464844 18.980469 C 19.441406 18.925781 19.085938 18.003906 18.671875 16.9375 C 18.117188 15.496094 17.933594 14.980469 17.96875 14.941406 C 18.09375 14.785156 21.25 12.253906 21.28125 12.285156 C 21.332031 12.335938 22.832031 16.238281 22.832031 16.320312 C 22.832031 16.355469 22.117188 16.964844 21.246094 17.671875 C 20.371094 18.378906 19.628906 18.984375 19.585938 19.019531 C 19.519531 19.078125 19.507812 19.074219 19.464844 18.980469 Z M 19.464844 18.980469 "/>
<path style=" stroke:none;fill-rule:nonzero;fill:rgb(70.19608%,70.19608%,70.19608%);fill-opacity:1;" d="M 11.03125 25.125 C 12.769531 24.804688 14.863281 24.417969 15.675781 24.269531 L 17.160156 24 L 19.628906 24.683594 C 20.984375 25.066406 22.363281 25.449219 22.695312 25.539062 C 23.339844 25.71875 23.511719 25.722656 23.753906 25.574219 C 23.828125 25.53125 23.9375 25.429688 24 25.347656 C 24.121094 25.1875 24.085938 25.324219 26.015625 17.851562 C 26.492188 16.003906 27.210938 13.230469 27.609375 11.691406 C 28.011719 10.136719 28.335938 8.800781 28.335938 8.691406 C 28.339844 8.445312 28.167969 8.136719 27.960938 8.003906 C 27.769531 7.886719 18.183594 5.222656 17.949219 5.222656 C 17.722656 5.222656 17.527344 5.316406 17.34375 5.503906 C 17.175781 5.675781 17.144531 5.789062 16.5625 8.121094 C 16.339844 9.011719 16.144531 9.726562 16.125 9.707031 C 16.097656 9.675781 15.675781 7.242188 15.582031 6.566406 C 15.519531 6.117188 15.160156 5.777344 14.746094 5.777344 C 14.566406 5.78125 13.101562 6.042969 6.671875 7.222656 C 5.636719 7.414062 4.722656 7.597656 4.644531 7.636719 C 4.378906 7.761719 4.148438 8.113281 4.148438 8.390625 C 4.148438 8.546875 6.902344 24.824219 6.96875 25.058594 C 7.066406 25.410156 7.414062 25.707031 7.730469 25.707031 C 7.804688 25.707031 9.292969 25.445312 11.03125 25.125 Z M 11.03125 25.125 "/>
<path style=" stroke:none;fill-rule:evenodd;fill:rgb(90.196079%,90.196079%,90.196079%);fill-opacity:1;" d="M 4.597656 7.652344 L 14.992188 5.644531 C 15.308594 5.582031 15.605469 5.792969 15.660156 6.109375 L 18.503906 23.175781 C 18.554688 23.496094 18.339844 23.800781 18.027344 23.863281 L 7.628906 25.871094 C 7.316406 25.933594 7.015625 25.722656 6.960938 25.40625 L 4.121094 8.339844 C 4.066406 8.019531 4.28125 7.714844 4.597656 7.652344 Z M 4.597656 7.652344 "/>
<path style=" stroke:none;fill-rule:nonzero;fill:rgb(84.313726%,31.764707%,31.764707%);fill-opacity:1;" d="M 19.597656 18.699219 C 19.363281 18.160156 18.082031 14.777344 18.09375 14.722656 C 18.113281 14.644531 21.453125 11.929688 21.507812 11.949219 C 21.566406 11.964844 23.140625 16.035156 23.125 16.121094 C 23.113281 16.195312 19.816406 18.882812 19.734375 18.882812 C 19.703125 18.882812 19.644531 18.800781 19.597656 18.699219 Z M 19.597656 18.699219 "/>
<path style=" stroke:none;fill-rule:nonzero;fill:rgb(84.313726%,31.764707%,31.764707%);fill-opacity:1;" d="M 11.597656 18.496094 C 9.957031 17.5 9.402344 17.011719 8.988281 16.214844 C 8.464844 15.199219 8.394531 14.261719 8.816406 13.894531 C 9.089844 13.652344 9.496094 13.582031 10.097656 13.675781 C 10.417969 13.722656 10.644531 13.84375 10.863281 14.074219 C 10.917969 14.136719 10.988281 14.1875 11.019531 14.1875 C 11.050781 14.1875 11.136719 14.074219 11.207031 13.9375 C 11.421875 13.511719 11.890625 13.179688 12.457031 13.0625 C 13.207031 12.90625 13.667969 13.515625 13.667969 14.675781 C 13.667969 15.683594 13.484375 16.246094 12.816406 17.253906 C 12.507812 17.71875 11.832031 18.589844 11.777344 18.589844 C 11.761719 18.589844 11.679688 18.546875 11.597656 18.496094 Z M 11.597656 18.496094 "/>
</g>
</svg>
