
<svg xmlns="http://www.w3.org/2000/svg" xmlns:xlink="http://www.w3.org/1999/xlink" width="32px" height="32px" viewBox="0 0 32 32" version="1.1">
<g id="surface1">
<path style="fill-rule:nonzero;fill:rgb(17.254902%,24.313726%,31.37255%);fill-opacity:1;stroke-width:7.207702;stroke-linecap:butt;stroke-linejoin:miter;stroke:rgb(20.392157%,59.607846%,85.882354%);stroke-opacity:1;stroke-miterlimit:4;" d="M 19.390625 4.96875 L 108.609375 4.96875 C 116.578125 4.96875 123.03125 11.421875 123.03125 19.390625 L 123.03125 108.609375 C 123.03125 116.578125 116.578125 123.03125 108.609375 123.03125 L 19.390625 123.03125 C 11.421875 123.03125 4.96875 116.578125 4.96875 108.609375 L 4.96875 19.390625 C 4.96875 11.421875 11.421875 4.96875 19.390625 4.96875 Z M 19.390625 4.96875 " transform="matrix(0.25,0,0,0.25,0,0)"/>
<path style=" stroke:none;fill-rule:nonzero;fill:rgb(20.392157%,59.607846%,85.882354%);fill-opacity:1;" d="M 1.847656 1.523438 L 7.160156 1.523438 L 7.160156 30.136719 L 1.847656 30.136719 Z M 1.847656 1.523438 "/>
<path style=" stroke:none;fill-rule:nonzero;fill:rgb(92.54902%,94.117647%,94.509804%);fill-opacity:1;" d="M 18.550781 9.003906 C 14.769531 9.003906 11.722656 12.050781 11.722656 15.832031 C 11.722656 15.871094 11.726562 15.914062 11.730469 15.957031 C 11.726562 16.003906 11.722656 16.046875 11.722656 16.09375 C 11.722656 16.707031 11.832031 17.296875 12.023438 17.847656 C 12.878906 20.636719 15.46875 22.65625 18.550781 22.65625 C 22.332031 22.65625 25.375 19.613281 25.375 15.832031 C 25.375 12.050781 22.332031 9.003906 18.550781 9.003906 Z M 18.550781 10.519531 C 21.488281 10.519531 23.859375 12.886719 23.859375 15.832031 C 23.859375 18.75 21.527344 21.101562 18.617188 21.136719 C 20.414062 20.570312 21.792969 19.078125 22.191406 17.210938 C 21.21875 18.328125 19.792969 19.035156 18.191406 19.035156 C 15.925781 19.035156 14.007812 17.621094 13.25 15.628906 C 13.355469 12.785156 15.675781 10.519531 18.550781 10.519531 Z M 18.550781 10.519531 "/>
</g>
</svg>
