
<svg xmlns="http://www.w3.org/2000/svg" xmlns:xlink="http://www.w3.org/1999/xlink" width="32px" height="32px" viewBox="0 0 32 32" version="1.1">
<g id="surface1">
<path style="fill-rule:nonzero;fill:rgb(100%,100%,100%);fill-opacity:1;stroke-width:28.191782;stroke-linecap:butt;stroke-linejoin:miter;stroke:rgb(66.666669%,83.137256%,0%);stroke-opacity:1;stroke-miterlimit:4;" d="M 81.5 25.0625 L 430.5 25.0625 C 461.6875 25.0625 486.9375 50.3125 486.9375 81.5 L 486.9375 430.5 C 486.9375 461.6875 461.6875 486.9375 430.5 486.9375 L 81.5 486.9375 C 50.3125 486.9375 25.0625 461.6875 25.0625 430.5 L 25.0625 81.5 C 25.0625 50.3125 50.3125 25.0625 81.5 25.0625 Z M 81.5 25.0625 " transform="matrix(0.0625,0,0,0.0625,0,0)"/>
<path style=" stroke:none;fill-rule:nonzero;fill:rgb(66.666669%,83.137256%,0%);fill-opacity:1;" d="M 23.199219 24.199219 C 23.199219 24.996094 22.550781 25.644531 21.753906 25.644531 L 10.546875 25.644531 C 9.75 25.644531 9.101562 24.996094 9.101562 24.199219 C 9.101562 24.125 9.113281 24.046875 9.144531 23.972656 L 13.027344 13.800781 C 13.027344 13.785156 13.027344 13.769531 13.03125 13.753906 L 13.03125 7.925781 L 12.574219 7.925781 C 12.222656 7.925781 11.9375 7.640625 11.9375 7.289062 C 11.9375 6.9375 12.222656 6.652344 12.574219 6.652344 L 13.667969 6.652344 C 14.019531 6.652344 14.300781 6.9375 14.300781 7.289062 L 14.300781 13.800781 C 14.300781 13.839844 14.300781 13.875 14.292969 13.910156 C 14.292969 13.988281 14.273438 14.09375 14.246094 14.164062 L 11.910156 20.292969 L 20.339844 20.292969 L 17.921875 14.171875 C 17.894531 14.105469 17.882812 14.035156 17.878906 13.964844 L 17.875 13.925781 C 17.871094 13.902344 17.871094 13.878906 17.871094 13.851562 L 17.871094 7.289062 C 17.871094 6.9375 18.152344 6.652344 18.503906 6.652344 L 19.628906 6.652344 C 19.980469 6.652344 20.261719 6.9375 20.261719 7.289062 C 20.261719 7.640625 19.980469 7.925781 19.628906 7.925781 L 19.140625 7.925781 L 19.140625 13.796875 L 23.152344 23.96875 C 23.183594 24.042969 23.199219 24.121094 23.199219 24.199219 M 14.917969 18.878906 C 14.917969 18.613281 15.132812 18.402344 15.394531 18.402344 C 15.660156 18.402344 15.871094 18.613281 15.871094 18.878906 C 15.871094 19.140625 15.660156 19.355469 15.394531 19.355469 C 15.132812 19.355469 14.917969 19.140625 14.917969 18.878906 M 15.238281 18.878906 C 15.238281 18.964844 15.308594 19.035156 15.394531 19.035156 C 15.484375 19.035156 15.554688 18.964844 15.554688 18.878906 C 15.554688 18.789062 15.484375 18.71875 15.394531 18.71875 C 15.308594 18.71875 15.238281 18.789062 15.238281 18.878906 M 17.382812 18.402344 C 17.382812 18.136719 17.597656 17.925781 17.859375 17.925781 C 18.121094 17.925781 18.335938 18.136719 18.335938 18.402344 C 18.335938 18.664062 18.121094 18.878906 17.859375 18.878906 C 17.597656 18.878906 17.382812 18.664062 17.382812 18.402344 M 17.699219 18.402344 C 17.699219 18.488281 17.769531 18.558594 17.859375 18.558594 C 17.945312 18.558594 18.019531 18.488281 18.019531 18.402344 C 18.019531 18.3125 17.945312 18.242188 17.859375 18.242188 C 17.769531 18.242188 17.699219 18.3125 17.699219 18.402344 M 16.058594 16.8125 C 16.058594 16.449219 16.355469 16.152344 16.71875 16.152344 C 17.082031 16.152344 17.382812 16.449219 17.382812 16.8125 C 17.382812 17.175781 17.082031 17.472656 16.71875 17.472656 C 16.355469 17.472656 16.058594 17.175781 16.058594 16.8125 M 16.375 16.8125 C 16.375 17.003906 16.527344 17.15625 16.71875 17.15625 C 16.910156 17.15625 17.066406 17.003906 17.066406 16.8125 C 17.066406 16.621094 16.910156 16.46875 16.71875 16.46875 C 16.527344 16.46875 16.375 16.621094 16.375 16.8125 "/>
</g>
</svg>
