
<svg xmlns="http://www.w3.org/2000/svg" xmlns:xlink="http://www.w3.org/1999/xlink" width="32px" height="32px" viewBox="0 0 32 32" version="1.1">
<defs>
<linearGradient id="linear0" gradientUnits="userSpaceOnUse" x1="25.986174" y1="39.399998" x2="25.986174" y2="8.60001" gradientTransform="matrix(0.987327,0,0,0.986939,-7.646048,-7.631816)">
<stop offset="0" style="stop-color:rgb(10.588235%,52.941179%,21.568628%);stop-opacity:1;"/>
<stop offset="1" style="stop-color:rgb(17.647059%,70.19608%,16.078432%);stop-opacity:1;"/>
</linearGradient>
<linearGradient id="linear1" gradientUnits="userSpaceOnUse" x1="25.986174" y1="39.399998" x2="25.986174" y2="8.60001" gradientTransform="matrix(0.987327,0,0,0.986939,-7.646048,-7.631816)">
<stop offset="0" style="stop-color:rgb(10.588235%,52.941179%,21.568628%);stop-opacity:1;"/>
<stop offset="1" style="stop-color:rgb(17.647059%,70.19608%,16.078432%);stop-opacity:1;"/>
</linearGradient>
</defs>
<g id="surface1">
<path style="fill-rule:nonzero;fill:rgb(0%,100%,40.000001%);fill-opacity:1;stroke-width:6.937569;stroke-linecap:butt;stroke-linejoin:miter;stroke:rgb(6.27451%,63.137257%,37.254903%);stroke-opacity:1;stroke-miterlimit:4;" d="M 405.618286 426.969889 L 491.524536 426.969889 C 499.180786 426.969889 505.399536 433.188639 505.399536 440.844889 L 505.399536 526.751139 C 505.399536 534.407389 499.180786 540.626139 491.524536 540.626139 L 405.618286 540.626139 C 397.962036 540.626139 391.743286 534.407389 391.743286 526.751139 L 391.743286 440.844889 C 391.743286 433.188639 397.962036 426.969889 405.618286 426.969889 Z M 405.618286 426.969889 " transform="matrix(0.25,0,0,0.25,-96.142853,-104.949504)"/>
<path style=" stroke:none;fill-rule:nonzero;fill:url(#linear0);" d="M 7.371094 8.207031 C 8.652344 8.238281 10.027344 10.621094 11.269531 11.335938 C 14.308594 13.089844 15.792969 14.238281 14.582031 16.332031 C 13.371094 18.425781 9.925781 18.703125 6.886719 16.949219 C 3.847656 15.195312 2.363281 12.074219 3.574219 9.980469 C 4.242188 8.820312 5.640625 8.167969 7.371094 8.207031 Z M 7.371094 8.207031 "/>
<path style=" stroke:none;fill-rule:nonzero;fill:url(#linear1);" d="M 24.726562 8.207031 C 26.457031 8.167969 27.859375 8.820312 28.527344 9.980469 C 29.738281 12.074219 28.253906 15.195312 25.214844 16.949219 C 22.175781 18.703125 18.730469 18.425781 17.519531 16.332031 C 16.308594 14.238281 17.792969 13.089844 20.832031 11.335938 C 22.074219 10.621094 23.449219 8.238281 24.726562 8.207031 Z M 24.726562 8.207031 "/>
<path style=" stroke:none;fill-rule:nonzero;fill:rgb(20%,20%,20%);fill-opacity:1;" d="M 10.878906 21.511719 L 21.222656 21.511719 C 21.511719 21.511719 19.769531 21.742188 19.769531 22.03125 L 19.769531 24.472656 C 19.769531 24.765625 19.535156 23.027344 19.246094 23.027344 L 12.851562 23.027344 C 12.5625 23.027344 12.332031 24.765625 12.332031 24.472656 L 12.332031 22.03125 C 12.332031 21.742188 10.589844 21.511719 10.878906 21.511719 Z M 10.878906 21.511719 "/>
<path style="fill-rule:evenodd;fill:rgb(20%,20%,20%);fill-opacity:1;stroke-width:1;stroke-linecap:butt;stroke-linejoin:miter;stroke:rgb(20%,20%,20%);stroke-opacity:1;stroke-miterlimit:4;" d="M 424.774536 491.813639 C 417.274536 490.344889 411.430786 487.532389 406.290161 482.907389 C 398.649536 476.032389 395.555786 466.907389 398.743286 460.719889 C 400.696411 456.923014 404.227661 454.376139 408.899536 453.376139 C 414.774536 452.141764 416.290161 452.813639 423.212036 459.594889 C 426.180786 462.532389 429.618286 465.501139 430.868286 466.188639 C 437.274536 469.829264 441.883911 473.610514 443.305786 476.391764 C 445.993286 481.657389 441.696411 488.813639 434.555786 490.985514 C 432.118286 491.735514 426.712036 492.188639 424.774536 491.813639 Z M 424.774536 491.813639 " transform="matrix(0.25,0,0,0.25,-96.142853,-104.949504)"/>
<path style="fill-rule:evenodd;fill:rgb(20%,20%,20%);fill-opacity:1;stroke-width:1;stroke-linecap:butt;stroke-linejoin:miter;stroke:rgb(20%,20%,20%);stroke-opacity:1;stroke-miterlimit:4;" d="M 472.837036 491.907389 C 480.337036 490.438639 486.196411 487.626139 491.337036 483.001139 C 498.962036 476.110514 502.071411 467.001139 498.883911 460.813639 C 496.930786 457.016764 493.399536 454.469889 488.712036 453.469889 C 482.852661 452.235514 481.337036 452.891764 474.430786 459.688639 C 471.446411 462.610514 467.993286 465.579264 466.758911 466.282389 C 460.352661 469.923014 455.743286 473.704264 454.321411 476.485514 C 451.633911 481.751139 455.930786 488.907389 463.087036 491.079264 C 465.508911 491.813639 470.915161 492.282389 472.837036 491.907389 Z M 472.837036 491.907389 " transform="matrix(0.25,0,0,0.25,-96.142853,-104.949504)"/>
</g>
</svg>
