
<svg xmlns="http://www.w3.org/2000/svg" xmlns:xlink="http://www.w3.org/1999/xlink" width="32px" height="32px" viewBox="0 0 32 32" version="1.1">
<g id="surface1">
<path style="fill-rule:nonzero;fill:rgb(100%,100%,100%);fill-opacity:1;stroke-width:36.786812;stroke-linecap:butt;stroke-linejoin:miter;stroke:rgb(21.568628%,67.058825%,78.431374%);stroke-opacity:1;stroke-miterlimit:4;" d="M 112.724216 40.554234 L 568.173088 40.554234 C 608.810085 40.554234 641.750054 73.494203 641.750054 114.1312 L 641.750054 569.580072 C 641.750054 610.217069 608.810085 643.157038 568.173088 643.157038 L 112.724216 643.157038 C 72.087219 643.157038 39.14725 610.217069 39.14725 569.580072 L 39.14725 114.1312 C 39.14725 73.494203 72.087219 40.554234 112.724216 40.554234 Z M 112.724216 40.554234 " transform="matrix(0.0471976,0,0,0.0471976,0,0)"/>
<path style=" stroke:none;fill-rule:evenodd;fill:rgb(21.568628%,67.058825%,78.431374%);fill-opacity:1;" d="M 4.339844 16.949219 C 4.59375 16.851562 4.894531 16.9375 5.152344 16.847656 C 5.417969 16.753906 5.863281 16.40625 5.863281 16.40625 C 5.390625 15.050781 4.941406 13.683594 4.777344 12.203125 C 4.785156 12.203125 7.097656 12.457031 8.203125 12.355469 C 8.878906 12.292969 9.492188 11.957031 10.167969 11.964844 C 10.707031 11.972656 11.191406 12.371094 11.730469 12.40625 C 13.089844 12.488281 14.28125 11.652344 15.796875 11.59375 C 16.738281 11.558594 17.4375 12.835938 18.371094 12.746094 C 19.449219 12.644531 20.519531 12.332031 21.597656 12.296875 C 22.261719 12.273438 22.925781 12.195312 23.585938 12.105469 C 24.140625 12.03125 24.683594 11.855469 25.238281 11.816406 C 25.488281 11.800781 25.984375 11.839844 25.984375 11.839844 C 26.210938 12.597656 26.164062 13.308594 26.128906 14.023438 C 24.621094 15.035156 23.089844 16.050781 21.980469 17.066406 C 22.324219 17.636719 22.890625 18.085938 23.585938 18.191406 L 24.976562 18.410156 C 25.230469 19.050781 24.832031 19.578125 24.496094 19.917969 C 24.496094 19.917969 23.925781 19.753906 23.632812 19.726562 C 22.710938 19.644531 21.769531 19.679688 20.855469 19.824219 C 20.066406 19.945312 19.160156 19.953125 18.550781 20.472656 C 16.347656 22.359375 13.289062 27.597656 13.222656 27.527344 L 11.863281 30.167969 L 4.136719 30.101562 L 2.101562 27.730469 L 1.898438 18.644531 C 1.898438 18.644531 3.414062 17.300781 4.339844 16.949219 Z M 4.339844 16.949219 "/>
<path style=" stroke:none;fill-rule:evenodd;fill:rgb(100%,100%,100%);fill-opacity:1;" d="M 12.800781 15.246094 C 12.800781 15.246094 13.503906 14.390625 13.949219 14.070312 C 14.375 13.761719 14.855469 13.496094 15.363281 13.375 C 15.746094 13.285156 16.164062 13.261719 16.539062 13.375 C 16.863281 13.476562 17.351562 13.613281 17.378906 13.949219 C 17.394531 14.167969 17.082031 14.285156 16.898438 14.40625 C 16.703125 14.535156 16.480469 14.648438 16.253906 14.691406 C 15.921875 14.761719 15.578125 14.636719 15.246094 14.667969 C 14.410156 14.757812 12.800781 15.246094 12.800781 15.246094 Z M 12.800781 15.246094 "/>
</g>
</svg>
