
<svg xmlns="http://www.w3.org/2000/svg" xmlns:xlink="http://www.w3.org/1999/xlink" width="32px" height="32px" viewBox="0 0 32 32" version="1.1">
<g id="surface1">
<path style="fill-rule:nonzero;fill:rgb(100%,100%,100%);fill-opacity:1;stroke-width:28.191782;stroke-linecap:butt;stroke-linejoin:miter;stroke:rgb(99.215686%,62.7451%,0.392157%);stroke-opacity:1;stroke-miterlimit:4;" d="M 81.5 25.0625 L 430.5 25.0625 C 461.6875 25.0625 486.9375 50.3125 486.9375 81.5 L 486.9375 430.5 C 486.9375 461.6875 461.6875 486.9375 430.5 486.9375 L 81.5 486.9375 C 50.3125 486.9375 25.0625 461.6875 25.0625 430.5 L 25.0625 81.5 C 25.0625 50.3125 50.3125 25.0625 81.5 25.0625 Z M 81.5 25.0625 " transform="matrix(0.0625,0,0,0.0625,0,0)"/>
<path style=" stroke:none;fill-rule:nonzero;fill:rgb(26.274511%,27.843139%,30.980393%);fill-opacity:1;" d="M 14.015625 27.699219 C 11.546875 27.402344 9.207031 26.316406 6.511719 24.210938 C 5.667969 23.550781 4.738281 22.746094 4.660156 22.613281 C 4.542969 22.40625 4.570312 22.167969 4.730469 22.007812 C 4.976562 21.761719 5.167969 21.808594 6.1875 22.371094 C 9.347656 24.125 11.363281 24.933594 13.574219 25.339844 C 14.410156 25.496094 17.003906 25.496094 17.992188 25.34375 C 20.042969 25.027344 21.539062 24.613281 23.585938 23.808594 C 24.761719 23.347656 24.902344 23.332031 25.195312 23.636719 C 25.386719 23.839844 25.417969 24.152344 25.261719 24.382812 C 25.136719 24.582031 24.398438 25.09375 23.566406 25.566406 C 20.621094 27.238281 16.964844 28.054688 14.015625 27.699219 Z M 25.824219 25.660156 C 25.757812 25.59375 25.703125 25.472656 25.703125 25.394531 C 25.703125 25.316406 25.847656 24.816406 26.023438 24.285156 C 26.394531 23.160156 26.472656 22.757812 26.332031 22.617188 C 26.179688 22.464844 25.726562 22.429688 24.960938 22.511719 C 23.636719 22.65625 23.457031 22.660156 23.328125 22.542969 C 23.148438 22.378906 23.171875 22.039062 23.375 21.851562 C 23.589844 21.648438 24.121094 21.355469 24.527344 21.214844 C 25.339844 20.9375 27.011719 20.894531 27.566406 21.144531 C 27.976562 21.324219 28.046875 21.484375 28.039062 22.1875 C 28.019531 23.335938 27.527344 24.589844 26.785156 25.363281 C 26.429688 25.730469 26.359375 25.777344 26.160156 25.777344 C 26.019531 25.777344 25.898438 25.734375 25.824219 25.660156 Z M 12.117188 21.214844 C 11.144531 21.007812 10.230469 20.457031 9.714844 19.769531 C 9.355469 19.292969 9.191406 18.960938 8.996094 18.320312 C 8.847656 17.839844 8.832031 17.714844 8.832031 16.761719 C 8.832031 15.542969 8.917969 15.128906 9.363281 14.230469 C 10.136719 12.667969 11.777344 11.675781 14.339844 11.210938 C 14.972656 11.097656 16.785156 10.886719 17.152344 10.886719 C 17.628906 10.886719 17.636719 10.871094 17.636719 9.980469 C 17.636719 8.769531 17.414062 8.140625 16.851562 7.757812 C 16.4375 7.472656 16.070312 7.363281 15.535156 7.363281 C 14.765625 7.363281 14.136719 7.621094 13.644531 8.152344 C 13.34375 8.472656 13.214844 8.699219 13.089844 9.105469 C 13.046875 9.261719 12.953125 9.457031 12.886719 9.542969 C 12.78125 9.679688 12.714844 9.699219 12.449219 9.699219 C 12.277344 9.699219 11.855469 9.660156 11.511719 9.613281 C 11.167969 9.566406 10.625 9.496094 10.308594 9.460938 C 9.621094 9.386719 9.488281 9.339844 9.355469 9.140625 C 9.265625 9 9.265625 8.960938 9.363281 8.558594 C 9.617188 7.511719 9.996094 6.839844 10.753906 6.082031 C 11.621094 5.214844 12.550781 4.753906 14.03125 4.453125 C 14.652344 4.328125 14.9375 4.300781 15.777344 4.300781 C 17.933594 4.300781 19.554688 4.851562 20.605469 5.933594 C 21.214844 6.558594 21.527344 7.246094 21.675781 8.289062 C 21.722656 8.605469 21.761719 10.164062 21.78125 12.667969 L 21.816406 16.550781 L 22.011719 16.996094 C 22.117188 17.242188 22.355469 17.644531 22.535156 17.886719 C 22.980469 18.476562 23.074219 18.675781 23 18.878906 C 22.945312 19.035156 21.878906 20.015625 20.910156 20.800781 C 20.515625 21.117188 20.449219 21.152344 20.195312 21.152344 C 19.921875 21.152344 19.894531 21.132812 19.457031 20.703125 C 19.203125 20.457031 18.824219 20.015625 18.609375 19.722656 C 18.394531 19.433594 18.1875 19.191406 18.148438 19.191406 C 18.105469 19.191406 17.957031 19.316406 17.808594 19.464844 C 17.195312 20.105469 16.386719 20.664062 15.664062 20.949219 C 14.785156 21.292969 13.097656 21.421875 12.117188 21.214844 Z M 15.402344 18.390625 C 16.183594 18.1875 16.722656 17.699219 17.160156 16.800781 C 17.558594 15.980469 17.644531 15.488281 17.621094 14.175781 L 17.605469 13.171875 L 16.894531 13.183594 C 15.878906 13.199219 15.308594 13.316406 14.644531 13.636719 C 13.5 14.199219 13.007812 15.082031 13.085938 16.445312 C 13.128906 17.160156 13.316406 17.597656 13.753906 18 C 14.234375 18.4375 14.753906 18.558594 15.402344 18.390625 Z M 15.402344 18.390625 "/>
</g>
</svg>
