
<svg xmlns="http://www.w3.org/2000/svg" xmlns:xlink="http://www.w3.org/1999/xlink" width="32px" height="32px" viewBox="0 0 32 32" version="1.1">
<g id="surface1">
<path style="fill-rule:nonzero;fill:rgb(100%,100%,100%);fill-opacity:1;stroke-width:28.191782;stroke-linecap:butt;stroke-linejoin:miter;stroke:rgb(99.215686%,62.7451%,0.392157%);stroke-opacity:1;stroke-miterlimit:4;" d="M 81.470404 25.113886 L 430.529805 25.113886 C 461.665643 25.113886 486.886323 50.334566 486.886323 81.470404 L 486.886323 430.529805 C 486.886323 461.665643 461.665643 486.886323 430.529805 486.886323 L 81.470404 486.886323 C 50.334566 486.886323 25.113886 461.665643 25.113886 430.529805 L 25.113886 81.470404 C 25.113886 50.334566 50.334566 25.113886 81.470404 25.113886 Z M 81.470404 25.113886 " transform="matrix(0.0600945,0,0,0.0600945,0.615793,0.615793)"/>
<path style=" stroke:none;fill-rule:nonzero;fill:rgb(26.274511%,27.843139%,30.980393%);fill-opacity:1;" d="M 14.09375 27.25 C 11.71875 26.964844 9.464844 25.917969 6.878906 23.894531 C 6.066406 23.261719 5.171875 22.488281 5.097656 22.355469 C 4.984375 22.160156 5.011719 21.929688 5.164062 21.777344 C 5.402344 21.539062 5.585938 21.585938 6.566406 22.128906 C 9.605469 23.8125 11.542969 24.589844 13.667969 24.980469 C 14.472656 25.128906 16.964844 25.132812 17.914062 24.984375 C 19.886719 24.679688 21.324219 24.285156 23.292969 23.507812 C 24.421875 23.0625 24.558594 23.050781 24.839844 23.34375 C 25.027344 23.535156 25.050781 23.839844 24.90625 24.058594 C 24.785156 24.25 24.074219 24.742188 23.273438 25.199219 C 20.441406 26.804688 16.925781 27.589844 14.09375 27.25 Z M 25.445312 25.285156 C 25.378906 25.222656 25.332031 25.109375 25.332031 25.035156 C 25.332031 24.957031 25.46875 24.476562 25.636719 23.964844 C 25.996094 22.882812 26.066406 22.496094 25.933594 22.363281 C 25.785156 22.214844 25.351562 22.183594 24.617188 22.261719 C 23.339844 22.398438 23.167969 22.402344 23.046875 22.289062 C 22.875 22.136719 22.894531 21.808594 23.089844 21.625 C 23.300781 21.429688 23.808594 21.152344 24.199219 21.015625 C 24.980469 20.746094 26.589844 20.707031 27.121094 20.945312 C 27.515625 21.117188 27.582031 21.269531 27.574219 21.949219 C 27.558594 23.054688 27.082031 24.261719 26.367188 25.003906 C 26.027344 25.355469 25.960938 25.402344 25.769531 25.402344 C 25.632812 25.402344 25.519531 25.359375 25.445312 25.285156 Z M 12.265625 21.011719 C 11.332031 20.816406 10.453125 20.285156 9.957031 19.625 C 9.609375 19.164062 9.453125 18.847656 9.261719 18.230469 C 9.121094 17.769531 9.109375 17.652344 9.109375 16.730469 C 9.109375 15.5625 9.191406 15.160156 9.617188 14.300781 C 10.363281 12.796875 11.941406 11.839844 14.40625 11.394531 C 15.015625 11.285156 16.753906 11.085938 17.105469 11.085938 C 17.566406 11.082031 17.574219 11.066406 17.574219 10.210938 C 17.574219 9.046875 17.359375 8.441406 16.816406 8.074219 C 16.417969 7.800781 16.066406 7.699219 15.554688 7.695312 C 14.8125 7.695312 14.210938 7.945312 13.734375 8.453125 C 13.445312 8.761719 13.320312 8.980469 13.203125 9.371094 C 13.160156 9.519531 13.070312 9.710938 13.003906 9.792969 C 12.902344 9.921875 12.84375 9.941406 12.589844 9.941406 C 12.421875 9.941406 12.015625 9.90625 11.683594 9.859375 C 11.351562 9.8125 10.832031 9.746094 10.527344 9.714844 C 9.867188 9.636719 9.738281 9.597656 9.613281 9.402344 C 9.523438 9.269531 9.523438 9.230469 9.617188 8.847656 C 9.863281 7.839844 10.226562 7.195312 10.957031 6.464844 C 11.792969 5.628906 12.683594 5.1875 14.105469 4.898438 C 14.703125 4.777344 14.980469 4.753906 15.785156 4.753906 C 17.859375 4.753906 19.417969 5.277344 20.429688 6.320312 C 21.015625 6.925781 21.316406 7.582031 21.457031 8.582031 C 21.503906 8.890625 21.539062 10.386719 21.558594 12.796875 L 21.59375 16.53125 L 21.777344 16.957031 C 21.878906 17.195312 22.109375 17.582031 22.285156 17.816406 C 22.710938 18.378906 22.800781 18.570312 22.730469 18.769531 C 22.675781 18.917969 21.652344 19.863281 20.722656 20.613281 C 20.339844 20.921875 20.277344 20.953125 20.035156 20.953125 C 19.769531 20.953125 19.746094 20.933594 19.324219 20.519531 C 19.082031 20.285156 18.714844 19.863281 18.507812 19.582031 C 18.300781 19.300781 18.101562 19.070312 18.066406 19.070312 C 18.027344 19.070312 17.878906 19.1875 17.742188 19.332031 C 17.148438 19.949219 16.371094 20.488281 15.675781 20.757812 C 14.832031 21.089844 13.210938 21.210938 12.265625 21.011719 Z M 15.425781 18.300781 C 16.175781 18.105469 16.695312 17.632812 17.113281 16.769531 C 17.496094 15.980469 17.582031 15.507812 17.558594 14.246094 L 17.542969 13.28125 L 16.859375 13.292969 C 15.882812 13.308594 15.332031 13.417969 14.699219 13.730469 C 13.59375 14.265625 13.121094 15.117188 13.199219 16.425781 C 13.238281 17.113281 13.417969 17.539062 13.839844 17.921875 C 14.300781 18.34375 14.800781 18.464844 15.425781 18.300781 Z M 15.425781 18.300781 "/>
</g>
</svg>
