
<svg xmlns="http://www.w3.org/2000/svg" xmlns:xlink="http://www.w3.org/1999/xlink" width="32px" height="32px" viewBox="0 0 32 32" version="1.1">
<g id="surface1">
<path style="fill-rule:nonzero;fill:rgb(100%,100%,100%);fill-opacity:1;stroke-width:2.655563;stroke-linecap:butt;stroke-linejoin:miter;stroke:rgb(72.156864%,0%,0%);stroke-opacity:1;stroke-miterlimit:4;" d="M 7.564453 2.25 L 40.435547 2.25 C 43.371094 2.25 45.75 4.628906 45.75 7.564453 L 45.75 40.435547 C 45.75 43.371094 43.371094 45.75 40.435547 45.75 L 7.564453 45.75 C 4.628906 45.75 2.25 43.371094 2.25 40.435547 L 2.25 7.564453 C 2.25 4.628906 4.628906 2.25 7.564453 2.25 Z M 7.564453 2.25 " transform="matrix(0.666667,0,0,0.666667,0,0)"/>
<path style=" stroke:none;fill-rule:nonzero;fill:rgb(72.156864%,0%,0%);fill-opacity:1;" d="M 8 7.332031 L 12.667969 12 L 8 16.667969 L 8 23.332031 L 14.667969 23.332031 L 19.332031 18.667969 L 24 23.332031 L 24 7.332031 M 12.667969 12 L 19.332031 12 L 19.332031 18.664062 L 12.667969 18.667969 M 12.667969 12 "/>
</g>
</svg>
