
<svg xmlns="http://www.w3.org/2000/svg" xmlns:xlink="http://www.w3.org/1999/xlink" width="32px" height="32px" viewBox="0 0 32 32" version="1.1">
<g id="surface1">
<path style="fill-rule:nonzero;fill:rgb(100%,100%,100%);fill-opacity:1;stroke-width:26.401737;stroke-linecap:butt;stroke-linejoin:miter;stroke:rgb(16.862746%,65.882355%,92.156863%);stroke-opacity:1;stroke-miterlimit:4;" d="M 76.58203 23.730468 L 403.417963 23.730468 C 432.59765 23.730468 456.269524 47.402343 456.269524 76.58203 L 456.269524 403.417963 C 456.269524 432.59765 432.59765 456.269524 403.417963 456.269524 L 76.58203 456.269524 C 47.402343 456.269524 23.730468 432.59765 23.730468 403.417963 L 23.730468 76.58203 C 23.730468 47.402343 47.402343 23.730468 76.58203 23.730468 Z M 76.58203 23.730468 " transform="matrix(0.0666667,0,0,0.0666667,0,0)"/>
<path style=" stroke:none;fill-rule:nonzero;fill:rgb(20.784314%,48.627451%,93.333334%);fill-opacity:1;" d="M 4.378906 28.777344 C 4.207031 28.527344 3.914062 27.914062 3.773438 27.496094 C 3.535156 26.777344 3.496094 26.515625 3.503906 25.542969 C 3.503906 24.71875 3.519531 24.566406 3.644531 24.101562 C 4.097656 22.417969 5.21875 21.019531 6.820312 20.152344 C 7.460938 19.804688 7.488281 19.742188 7.113281 19.433594 C 6.589844 18.992188 6.105469 18.277344 5.875 17.59375 C 5.171875 15.527344 6.121094 13.273438 8.074219 12.359375 C 9.183594 11.839844 10.574219 11.839844 11.683594 12.359375 C 13.636719 13.277344 14.589844 15.550781 13.878906 17.605469 C 13.644531 18.285156 13.203125 18.941406 12.667969 19.410156 C 12.402344 19.636719 12.375 19.683594 12.425781 19.777344 C 12.457031 19.839844 12.65625 19.976562 12.867188 20.089844 C 13.078125 20.199219 13.339844 20.34375 13.449219 20.410156 C 13.558594 20.480469 13.675781 20.535156 13.714844 20.53125 C 13.75 20.53125 13.898438 20.371094 14.042969 20.179688 C 14.644531 19.378906 15.667969 18.523438 16.628906 18.027344 C 17.148438 17.753906 17.339844 17.605469 17.339844 17.480469 C 17.335938 17.433594 17.183594 17.273438 16.996094 17.121094 C 16.273438 16.535156 15.574219 15.425781 15.332031 14.496094 C 14.570312 11.527344 16.378906 8.589844 19.359375 7.957031 C 19.574219 7.910156 20.011719 7.878906 20.445312 7.878906 C 21.050781 7.878906 21.261719 7.902344 21.695312 8.011719 C 22.636719 8.25 23.457031 8.714844 24.144531 9.40625 C 25.464844 10.832031 25.984375 12.832031 25.492188 14.550781 C 25.191406 15.550781 24.566406 16.53125 23.878906 17.089844 C 23.707031 17.230469 23.554688 17.378906 23.535156 17.417969 C 23.484375 17.542969 23.714844 17.730469 24.285156 18.027344 C 26.261719 19.0625 27.722656 20.890625 28.226562 22.976562 C 28.65625 24.746094 28.46875 26.464844 27.667969 28.101562 C 27.527344 28.390625 27.367188 28.679688 27.316406 28.742188 L 27.222656 28.855469 L 15.855469 28.886719 L 4.484375 28.925781 Z M 4.378906 28.777344 "/>
<path style=" stroke:none;fill-rule:nonzero;fill:rgb(31.37255%,70.19608%,15.686275%);fill-opacity:1;" d="M 4.378906 28.773438 C 4.207031 28.527344 3.914062 27.910156 3.773438 27.496094 C 3.535156 26.777344 3.496094 26.515625 3.503906 25.542969 C 3.503906 24.71875 3.519531 24.566406 3.644531 24.101562 C 4.097656 22.417969 5.21875 21.019531 6.820312 20.152344 C 7.460938 19.804688 7.488281 19.742188 7.113281 19.433594 C 6.589844 18.992188 6.105469 18.277344 5.875 17.59375 C 5.171875 15.527344 6.121094 13.273438 8.074219 12.359375 C 9.183594 11.839844 10.574219 11.839844 11.683594 12.359375 C 13.636719 13.277344 14.589844 15.550781 13.878906 17.605469 C 13.644531 18.285156 13.203125 18.941406 12.667969 19.410156 C 12.285156 19.742188 12.308594 19.785156 13.019531 20.167969 C 13.3125 20.324219 13.574219 20.480469 13.601562 20.519531 C 13.636719 20.558594 13.582031 20.710938 13.410156 21.007812 C 12.714844 22.210938 12.414062 23.355469 12.414062 24.777344 C 12.414062 26.175781 12.730469 27.394531 13.378906 28.507812 C 13.492188 28.699219 13.570312 28.871094 13.554688 28.886719 C 13.539062 28.902344 11.488281 28.917969 9.003906 28.917969 L 4.480469 28.917969 Z M 4.378906 28.773438 "/>
</g>
</svg>
