<!-- color: #eea53a -->
<svg xmlns="http://www.w3.org/2000/svg" xmlns:xlink="http://www.w3.org/1999/xlink" width="32px" height="32px" viewBox="0 0 32 32" version="1.1">
<defs>
<clipPath id="clip1">
  <path d="M 7 5.6875 L 25.332031 5.6875 L 25.332031 22.3125 L 7 22.3125 Z M 7 5.6875 "/>
</clipPath>
<clipPath id="clip2">
  <path d="M 3.332031 0.664062 L 28.667969 0.664062 C 30.140625 0.664062 31.332031 1.859375 31.332031 3.332031 L 31.332031 28.664062 C 31.332031 30.136719 30.140625 31.332031 28.667969 31.332031 L 3.332031 31.332031 C 1.859375 31.332031 0.667969 30.136719 0.667969 28.664062 L 0.667969 3.332031 C 0.667969 1.859375 1.859375 0.664062 3.332031 0.664062 Z M 3.332031 0.664062 "/>
</clipPath>
</defs>
<g id="surface1">
<path style="fill-rule:nonzero;fill:rgb(93.333334%,63.921571%,21.176471%);fill-opacity:1;stroke-width:2.617475;stroke-linecap:butt;stroke-linejoin:miter;stroke:rgb(63.137257%,38.82353%,6.27451%);stroke-opacity:1;stroke-miterlimit:4;" d="M 7.798828 2.560547 L 40.201172 2.560547 C 43.095703 2.560547 45.439453 4.904297 45.439453 7.798828 L 45.439453 40.201172 C 45.439453 43.095703 43.095703 45.439453 40.201172 45.439453 L 7.798828 45.439453 C 4.904297 45.439453 2.560547 43.095703 2.560547 40.201172 L 2.560547 7.798828 C 2.560547 4.904297 4.904297 2.560547 7.798828 2.560547 Z M 7.798828 2.560547 " transform="matrix(0.666667,0,0,0.666667,0,0)"/>
<g clip-path="url(#clip1)" clip-rule="nonzero">
<g clip-path="url(#clip2)" clip-rule="nonzero">
<path style=" stroke:none;fill-rule:nonzero;fill:rgb(100%,100%,100%);fill-opacity:1;" d="M 15.996094 5.691406 C 14.710938 5.691406 13.671875 6.730469 13.671875 8.015625 C 13.671875 9.097656 14.429688 9.988281 15.429688 10.25 L 15.429688 11.441406 C 13.128906 11.722656 11.351562 13.667969 11.351562 16.042969 C 11.351562 16.683594 11.484375 17.285156 11.71875 17.839844 L 10.9375 18.296875 C 10.210938 17.582031 9.085938 17.394531 8.160156 17.929688 C 7.050781 18.566406 6.671875 19.988281 7.3125 21.097656 C 7.953125 22.207031 9.371094 22.582031 10.480469 21.941406 C 11.433594 21.390625 11.847656 20.28125 11.542969 19.277344 L 12.300781 18.839844 C 13.152344 19.957031 14.480469 20.683594 15.988281 20.683594 C 17.605469 20.683594 19.019531 19.871094 19.851562 18.625 L 20.828125 19.191406 C 20.472656 20.222656 20.867188 21.378906 21.847656 21.945312 C 22.957031 22.585938 24.371094 22.207031 25.015625 21.097656 C 25.65625 19.988281 25.28125 18.574219 24.167969 17.933594 C 23.269531 17.410156 22.183594 17.566406 21.457031 18.238281 L 20.351562 17.605469 C 20.527344 17.121094 20.632812 16.59375 20.632812 16.046875 C 20.632812 13.683594 18.863281 11.734375 16.578125 11.449219 L 16.578125 10.253906 C 17.578125 9.996094 18.316406 9.101562 18.316406 8.019531 C 18.316406 6.738281 17.277344 5.699219 15.992188 5.699219 M 16.644531 13.246094 C 16.964844 13.246094 17.230469 13.273438 17.449219 13.355469 C 17.671875 13.433594 17.851562 13.535156 17.992188 13.660156 C 18.136719 13.785156 18.253906 13.9375 18.316406 14.09375 C 18.382812 14.246094 18.40625 14.398438 18.40625 14.550781 C 18.40625 14.808594 18.355469 15.035156 18.234375 15.242188 C 18.113281 15.453125 17.925781 15.640625 17.667969 15.785156 C 17.410156 15.933594 17.074219 16.03125 16.671875 16.113281 C 16.269531 16.191406 15.800781 16.242188 15.242188 16.242188 L 14.632812 16.242188 C 14.605469 16.367188 14.582031 16.472656 14.566406 16.589844 C 14.558594 16.707031 14.566406 16.835938 14.566406 16.9375 C 14.566406 17.316406 14.664062 17.605469 14.847656 17.804688 C 15.039062 18.003906 15.339844 18.085938 15.761719 18.085938 C 16.003906 18.085938 16.21875 18.074219 16.410156 18.042969 C 16.605469 18.003906 16.769531 17.976562 16.910156 17.933594 C 17.054688 17.890625 17.167969 17.835938 17.257812 17.808594 C 17.347656 17.765625 17.417969 17.761719 17.453125 17.761719 C 17.488281 17.761719 17.503906 17.78125 17.519531 17.808594 C 17.539062 17.828125 17.542969 17.847656 17.542969 17.894531 C 17.542969 17.933594 17.550781 17.988281 17.542969 18.042969 C 17.535156 18.097656 17.511719 18.140625 17.5 18.195312 C 17.484375 18.246094 17.460938 18.300781 17.433594 18.347656 C 17.410156 18.394531 17.398438 18.445312 17.367188 18.476562 C 17.324219 18.519531 17.246094 18.5625 17.128906 18.605469 C 17.015625 18.648438 16.875 18.699219 16.714844 18.738281 C 16.558594 18.769531 16.386719 18.800781 16.199219 18.824219 C 16.007812 18.847656 15.824219 18.847656 15.632812 18.847656 C 15.296875 18.847656 14.996094 18.8125 14.742188 18.738281 C 14.488281 18.660156 14.285156 18.546875 14.113281 18.390625 C 13.949219 18.230469 13.808594 18.035156 13.722656 17.800781 C 13.640625 17.566406 13.613281 17.292969 13.613281 16.980469 C 13.613281 16.734375 13.636719 16.457031 13.683594 16.175781 C 13.730469 15.894531 13.796875 15.628906 13.898438 15.351562 C 14 15.074219 14.128906 14.800781 14.289062 14.550781 C 14.453125 14.296875 14.652344 14.070312 14.875 13.875 C 15.101562 13.683594 15.363281 13.535156 15.65625 13.417969 C 15.953125 13.300781 16.285156 13.246094 16.652344 13.246094 M 16.582031 13.980469 C 16.335938 13.980469 16.117188 14.023438 15.925781 14.113281 C 15.738281 14.195312 15.554688 14.292969 15.410156 14.4375 C 15.265625 14.582031 15.144531 14.765625 15.039062 14.957031 C 14.9375 15.144531 14.863281 15.332031 14.800781 15.542969 L 15.371094 15.542969 C 15.769531 15.542969 16.105469 15.527344 16.367188 15.476562 C 16.632812 15.425781 16.855469 15.363281 17.019531 15.28125 C 17.179688 15.183594 17.285156 15.089844 17.34375 14.976562 C 17.410156 14.847656 17.453125 14.753906 17.453125 14.628906 C 17.453125 14.433594 17.363281 14.269531 17.214844 14.152344 C 17.0625 14.03125 16.867188 13.980469 16.589844 13.980469 M 16.582031 13.980469 "/>
</g>
</g>
</g>
</svg>
