
<svg xmlns="http://www.w3.org/2000/svg" xmlns:xlink="http://www.w3.org/1999/xlink" width="32px" height="32px" viewBox="0 0 32 32" version="1.1">
<g id="surface1">
<path style="fill-rule:nonzero;fill:rgb(100%,0%,0%);fill-opacity:1;stroke-width:28.191782;stroke-linecap:butt;stroke-linejoin:miter;stroke:rgb(83.137256%,16.470589%,3.921569%);stroke-opacity:1;stroke-miterlimit:4;" d="M 81.5 565.424683 L 430.5 565.424683 C 461.6875 565.424683 486.9375 590.674683 486.9375 621.862183 L 486.9375 970.862183 C 486.9375 1002.049683 461.6875 1027.299683 430.5 1027.299683 L 81.5 1027.299683 C 50.3125 1027.299683 25.0625 1002.049683 25.0625 970.862183 L 25.0625 621.862183 C 25.0625 590.674683 50.3125 565.424683 81.5 565.424683 Z M 81.5 565.424683 " transform="matrix(0.0625,0,0,0.0625,0,-33.772636)"/>
<path style=" stroke:none;fill-rule:nonzero;fill:rgb(97.254902%,97.254902%,97.254902%);fill-opacity:0.85098;" d="M 5.328125 26.964844 C 5.394531 27.007812 5.457031 27.058594 5.523438 27.097656 C 5.667969 27.191406 5.816406 27.273438 5.972656 27.351562 C 6.121094 27.429688 6.277344 27.5 6.4375 27.566406 C 6.597656 27.628906 6.757812 27.683594 6.921875 27.730469 C 7.085938 27.777344 7.253906 27.820312 7.417969 27.851562 C 7.585938 27.886719 7.757812 27.910156 7.925781 27.925781 C 8.097656 27.9375 8.269531 27.945312 8.441406 27.941406 C 8.613281 27.9375 8.785156 27.925781 8.957031 27.90625 C 10.316406 27.894531 11.675781 27.894531 13.035156 27.902344 C 14.394531 27.90625 15.753906 27.914062 17.113281 27.917969 C 18.472656 27.925781 19.835938 27.925781 21.195312 27.914062 C 22.554688 27.902344 23.914062 27.878906 25.273438 27.835938 C 25.441406 27.808594 25.609375 27.773438 25.773438 27.730469 C 25.933594 27.683594 26.097656 27.632812 26.253906 27.570312 C 26.410156 27.511719 26.5625 27.441406 26.714844 27.367188 C 26.863281 27.289062 27.011719 27.207031 27.152344 27.117188 C 27.222656 27.074219 27.285156 27.023438 27.347656 26.976562 C 27.226562 21.746094 22.347656 17.539062 16.339844 17.539062 C 10.332031 17.539062 5.457031 21.738281 5.328125 26.964844 Z M 5.328125 26.964844 "/>
<path style=" stroke:none;fill-rule:nonzero;fill:rgb(89.803922%,79.215688%,67.843139%);fill-opacity:0.85098;" d="M 16.339844 17.660156 C 10.296875 17.660156 5.324219 21.996094 4.730469 27.554688 C 5.691406 28.257812 6.878906 28.671875 8.167969 28.671875 L 24.507812 28.671875 C 25.796875 28.671875 26.984375 28.257812 27.949219 27.554688 C 27.351562 21.996094 22.378906 17.660156 16.339844 17.660156 Z M 16.339844 17.660156 "/>
<path style=" stroke:none;fill-rule:nonzero;fill:rgb(0%,0%,0%);fill-opacity:1;" d="M 15.035156 13.347656 C 15.035156 12.6875 14.503906 12.152344 13.839844 12.152344 C 13.183594 12.152344 12.644531 12.6875 12.644531 13.347656 C 12.644531 14.007812 13.183594 14.542969 13.839844 14.542969 C 14.503906 14.542969 15.035156 14.007812 15.035156 13.347656 Z M 15.035156 13.347656 "/>
<path style=" stroke:none;fill-rule:nonzero;fill:rgb(0%,0%,0%);fill-opacity:1;" d="M 19.519531 13.363281 C 19.519531 12.738281 19.011719 12.226562 18.382812 12.226562 C 17.753906 12.226562 17.246094 12.738281 17.246094 13.363281 C 17.246094 13.992188 17.753906 14.503906 18.382812 14.503906 C 19.011719 14.503906 19.519531 13.992188 19.519531 13.363281 Z M 19.519531 13.363281 "/>
<path style=" stroke:none;fill-rule:nonzero;fill:rgb(0%,0%,0%);fill-opacity:1;" d="M 8.523438 10.996094 C 7.933594 10.816406 7.449219 10.664062 7.445312 10.660156 C 7.425781 10.644531 7.417969 10.324219 7.425781 10.125 C 7.457031 9.496094 7.640625 8.675781 7.886719 8.070312 C 7.941406 7.9375 8.089844 7.628906 8.105469 7.621094 C 8.113281 7.617188 8.566406 7.746094 8.722656 7.796875 C 8.832031 7.832031 9.828125 8.25 12.421875 9.339844 C 13.347656 9.730469 14.503906 10.214844 14.992188 10.421875 C 15.527344 10.648438 15.964844 10.824219 16.101562 10.871094 L 16.328125 10.949219 L 16.863281 10.726562 C 17.453125 10.484375 18.214844 10.167969 19.492188 9.632812 C 21.585938 8.757812 22.933594 8.214844 24.128906 7.769531 C 24.347656 7.683594 24.53125 7.613281 24.542969 7.613281 C 24.558594 7.605469 24.570312 7.632812 24.617188 7.757812 C 24.902344 8.503906 25.105469 9.300781 25.199219 10.050781 C 25.214844 10.214844 25.253906 10.574219 25.253906 10.613281 C 25.253906 10.640625 24.875 10.800781 24.546875 10.910156 L 16.3125 13.105469 Z M 8.523438 10.996094 "/>
<path style=" stroke:none;fill-rule:nonzero;fill:rgb(96.078432%,73.333335%,9.803922%);fill-opacity:1;" d="M 16.488281 23.730469 C 17.394531 23.265625 18.128906 22.742188 18.746094 22.125 C 19.171875 21.699219 19.496094 21.285156 19.800781 20.785156 C 19.890625 20.632812 20.0625 20.308594 20.0625 20.289062 C 20.0625 20.285156 20.019531 20.273438 19.96875 20.265625 L 19.878906 20.253906 L 18.667969 20.496094 C 16.5625 20.925781 16.457031 20.941406 16.253906 20.929688 C 16.136719 20.921875 15.800781 20.839844 14.523438 20.503906 C 13.074219 20.128906 13.128906 20.140625 12.636719 20.070312 C 12.300781 20.019531 12.300781 20.03125 12.277344 20.003906 C 12.25 19.972656 12.234375 20.003906 12.246094 20.035156 C 12.292969 20.117188 12.3125 20.113281 12.328125 20.175781 C 12.378906 20.363281 12.394531 20.40625 12.503906 20.589844 C 13.238281 21.863281 14.390625 22.894531 16.015625 23.734375 C 16.144531 23.800781 16.246094 23.851562 16.25 23.851562 C 16.253906 23.851562 16.359375 23.796875 16.488281 23.730469 Z M 16.488281 23.730469 "/>
<path style=" stroke:none;fill-rule:nonzero;fill:rgb(96.078432%,73.333335%,9.803922%);fill-opacity:1;" d="M 16.988281 20.457031 C 17.066406 20.449219 17.214844 20.421875 17.316406 20.402344 C 17.660156 20.332031 17.835938 20.300781 18.253906 20.238281 C 18.488281 20.203125 18.761719 20.15625 18.871094 20.136719 C 19.476562 20.015625 20.628906 19.691406 20.855469 19.574219 C 20.957031 19.527344 21.042969 19.445312 21.074219 19.371094 C 21.117188 19.28125 21.113281 19.121094 21.066406 18.949219 C 20.964844 18.558594 20.792969 18.195312 20.511719 17.777344 C 20.09375 17.136719 19.511719 16.519531 18.808594 15.957031 C 18.027344 15.335938 17.371094 14.976562 16.644531 14.773438 C 16.28125 14.667969 16.027344 14.683594 15.707031 14.820312 C 15.152344 15.0625 14.464844 15.472656 13.898438 15.890625 C 13.09375 16.492188 12.425781 17.121094 12.003906 17.683594 C 11.6875 18.105469 11.515625 18.433594 11.46875 18.691406 C 11.453125 18.785156 11.457031 19.011719 11.472656 19.105469 L 11.488281 19.175781 L 11.714844 19.296875 C 12.277344 19.589844 13.019531 19.828125 14.183594 20.085938 C 16.074219 20.503906 15.992188 20.488281 16.535156 20.480469 C 16.746094 20.480469 16.894531 20.472656 16.988281 20.457031 Z M 16.988281 20.457031 "/>
<path style=" stroke:none;fill-rule:nonzero;fill:rgb(97.254902%,97.254902%,97.254902%);fill-opacity:1;" d="M 20.503906 16.429688 C 20.988281 16.265625 21.109375 16.21875 21.324219 16.113281 C 21.816406 15.875 22.183594 15.523438 22.464844 15.027344 C 22.632812 14.738281 22.75 14.394531 22.800781 14.058594 C 22.824219 13.886719 22.824219 13.566406 22.796875 13.421875 C 22.722656 12.742188 22.675781 12.066406 22.160156 11.570312 C 22.136719 11.550781 22.097656 11.558594 20.511719 11.96875 C 19.617188 12.199219 18.878906 12.386719 18.871094 12.394531 C 18.859375 12.394531 18.871094 12.417969 18.910156 12.457031 C 19.105469 12.667969 19.277344 12.941406 19.355469 13.167969 C 19.382812 13.253906 19.386719 13.273438 19.386719 13.433594 C 19.386719 13.601562 19.386719 13.609375 19.351562 13.699219 C 19.222656 14.03125 18.945312 14.257812 18.597656 14.316406 C 18.480469 14.332031 18.285156 14.324219 18.183594 14.292969 C 17.964844 14.222656 17.75 14.0625 17.632812 13.878906 C 17.582031 13.800781 17.53125 13.65625 17.53125 13.59375 C 17.53125 13.558594 17.535156 13.558594 17.574219 13.554688 C 17.660156 13.554688 17.757812 13.484375 17.792969 13.398438 C 17.847656 13.265625 17.757812 13.082031 17.625 13.058594 C 17.59375 13.054688 17.589844 13.050781 17.59375 13.027344 C 17.605469 12.972656 17.660156 12.691406 17.660156 12.691406 C 17.65625 12.683594 16.605469 12.960938 16.597656 12.96875 C 16.597656 12.972656 16.59375 13.164062 16.589844 13.390625 C 16.589844 13.753906 16.59375 13.820312 16.609375 13.90625 C 16.636719 14.042969 16.660156 14.113281 16.703125 14.226562 L 16.742188 14.324219 L 16.886719 14.371094 C 17.589844 14.589844 18.25 14.972656 19.15625 15.671875 C 19.480469 15.917969 19.5 15.9375 19.800781 16.257812 C 19.957031 16.425781 20.089844 16.566406 20.097656 16.566406 C 20.101562 16.566406 20.285156 16.503906 20.503906 16.429688 Z M 20.503906 16.429688 "/>
<path style=" stroke:none;fill-rule:nonzero;fill:rgb(97.254902%,97.254902%,97.254902%);fill-opacity:1;" d="M 13.039062 15.980469 C 13.285156 15.75 13.359375 15.6875 13.554688 15.550781 C 14.300781 15.019531 14.730469 14.753906 15.1875 14.535156 C 15.351562 14.457031 15.648438 14.335938 15.800781 14.285156 L 15.890625 14.257812 L 15.929688 14.128906 C 16.019531 13.839844 16.050781 13.675781 16.058594 13.460938 C 16.066406 13.214844 16.027344 12.964844 15.980469 12.941406 C 15.941406 12.925781 14.757812 12.652344 14.753906 12.65625 C 14.75 12.660156 14.777344 12.738281 14.816406 12.828125 C 14.859375 12.917969 14.902344 13.042969 14.921875 13.105469 C 14.949219 13.203125 14.949219 13.238281 14.949219 13.394531 C 14.949219 13.550781 14.949219 13.585938 14.921875 13.683594 C 14.8125 14.085938 14.527344 14.371094 14.121094 14.476562 C 13.976562 14.515625 13.773438 14.519531 13.628906 14.480469 C 13.503906 14.453125 13.328125 14.371094 13.234375 14.300781 C 13.148438 14.230469 13.011719 14.089844 12.953125 14.003906 C 12.855469 13.855469 12.78125 13.660156 12.765625 13.503906 L 12.761719 13.425781 L 12.808594 13.414062 C 12.925781 13.382812 12.996094 13.292969 12.996094 13.171875 C 12.996094 13.085938 12.96875 13.027344 12.910156 12.972656 L 12.863281 12.933594 L 12.917969 12.84375 C 13 12.707031 13.082031 12.613281 13.257812 12.449219 C 13.34375 12.371094 13.417969 12.300781 13.417969 12.300781 C 13.417969 12.292969 10.113281 11.417969 10.085938 11.417969 C 10.070312 11.417969 9.894531 11.695312 9.820312 11.847656 C 9.695312 12.089844 9.625 12.332031 9.605469 12.582031 C 9.597656 12.628906 9.582031 12.71875 9.570312 12.777344 C 9.511719 13.011719 9.503906 13.113281 9.503906 13.402344 C 9.503906 13.707031 9.519531 13.839844 9.59375 14.089844 C 9.746094 14.625 10.136719 15.222656 10.554688 15.574219 C 11.035156 15.972656 11.648438 16.183594 12.5 16.238281 C 12.765625 16.257812 12.707031 16.285156 13.039062 15.980469 Z M 13.039062 15.980469 "/>
</g>
</svg>
