
<svg xmlns="http://www.w3.org/2000/svg" xmlns:xlink="http://www.w3.org/1999/xlink" width="32px" height="32px" viewBox="0 0 32 32" version="1.1">
<g id="surface1">
<path style="fill-rule:nonzero;fill:rgb(100%,100%,100%);fill-opacity:1;stroke-width:28.191782;stroke-linecap:butt;stroke-linejoin:miter;stroke:rgb(72.941178%,9.019608%,30.588236%);stroke-opacity:1;stroke-miterlimit:4;" d="M 81.5 565.424683 L 430.5 565.424683 C 461.6875 565.424683 486.9375 590.674683 486.9375 621.862183 L 486.9375 970.862183 C 486.9375 1002.049683 461.6875 1027.299683 430.5 1027.299683 L 81.5 1027.299683 C 50.3125 1027.299683 25.0625 1002.049683 25.0625 970.862183 L 25.0625 621.862183 C 25.0625 590.674683 50.3125 565.424683 81.5 565.424683 Z M 81.5 565.424683 " transform="matrix(0.0625,0,0,0.0625,0,-33.772636)"/>
<path style=" stroke:none;fill-rule:evenodd;fill:rgb(72.941178%,9.019608%,30.588236%);fill-opacity:1;" d="M 14.007812 30.441406 L 16.28125 23.261719 L 15.683594 17.273438 L 12.332031 17.035156 L 10.894531 19.191406 L 8.378906 19.429688 L 6.824219 17.394531 L 7.183594 14.761719 L 12.808594 10.089844 L 11.972656 7.695312 L 14.605469 8.535156 L 13.167969 4.941406 L 18.675781 8.054688 L 23.707031 14.28125 L 27.535156 23.859375 L 30.167969 27.808594 L 28.613281 30.203125 L 24.183594 30.683594 Z M 14.007812 30.441406 "/>
</g>
</svg>
