
<svg xmlns="http://www.w3.org/2000/svg" xmlns:xlink="http://www.w3.org/1999/xlink" width="32px" height="32px" viewBox="0 0 32 32" version="1.1">
<g id="surface1">
<path style="fill-rule:nonzero;fill:rgb(80.000001%,80.000001%,80.000001%);fill-opacity:1;stroke-width:28.191782;stroke-linecap:butt;stroke-linejoin:miter;stroke:rgb(6.27451%,45.490196%,63.137257%);stroke-opacity:1;stroke-miterlimit:4;" d="M 85.502921 29.135739 L 434.497026 29.135739 C 465.664015 29.135739 490.864208 54.335932 490.864208 85.502921 L 490.864208 434.497026 C 490.864208 465.664015 465.664015 490.864208 434.497026 490.864208 L 85.502921 490.864208 C 54.335932 490.864208 29.135739 465.664015 29.135739 434.497026 L 29.135739 85.502921 C 29.135739 54.335932 54.335932 29.135739 85.502921 29.135739 Z M 85.502921 29.135739 " transform="matrix(0.0615385,0,0,0.0615385,0,0)"/>
<path style=" stroke:none;fill-rule:nonzero;fill:rgb(8.627451%,43.529412%,65.882355%);fill-opacity:1;" d="M 5.820312 29.578125 C 5.800781 29.546875 6.035156 28.871094 6.082031 28.140625 C 6.183594 26.605469 6.054688 25.214844 5.972656 24.773438 C 5.785156 23.816406 5.242188 23.289062 2.789062 21.617188 C 2.449219 21.386719 2.101562 21.210938 2.078125 21.175781 C 2.054688 21.140625 2.046875 19.804688 2.050781 19.730469 L 2.074219 18.367188 L 2.269531 18.289062 C 2.347656 18.257812 3.027344 18.125 3.773438 17.933594 C 6.070312 17.339844 6.632812 17.074219 7.164062 16.605469 C 7.679688 16.152344 7.964844 15.5 8.6875 13.113281 C 8.949219 12.246094 9.292969 11.214844 9.417969 10.890625 C 9.652344 10.300781 9.996094 9.660156 10.171875 9.738281 C 10.277344 9.785156 10.675781 9.773438 11.347656 10.882812 C 11.511719 11.148438 12.035156 11.894531 12.5 12.617188 C 13.839844 14.71875 14.300781 15.234375 14.875 15.539062 C 15.515625 15.882812 15.371094 15.863281 18.347656 15.871094 C 21.605469 15.886719 22.410156 15.964844 22.410156 16.292969 C 22.410156 16.691406 21.707031 17.738281 19.941406 19.863281 C 19.164062 20.804688 18.613281 21.507812 18.378906 21.996094 C 18.199219 22.367188 18.191406 22.378906 18.191406 22.976562 C 18.191406 23.4375 18.398438 23.960938 19.253906 26.460938 C 19.914062 28.386719 20.128906 29.355469 20.011719 29.535156 C 19.957031 29.621094 19.445312 29.574219 18.792969 29.582031 L 18.175781 29.589844 L 17.785156 29.449219 L 16.367188 28.941406 C 13.984375 28.089844 13.710938 27.921875 12.953125 27.914062 C 12.410156 27.910156 12.347656 27.933594 11.988281 28.101562 C 11.527344 28.316406 10.816406 28.949219 10.140625 29.410156 L 9.871094 29.589844 L 7.835938 29.59375 C 6.699219 29.597656 5.839844 29.613281 5.820312 29.578125 Z M 24.269531 10.320312 C 23.359375 9.082031 23.105469 9.113281 21.644531 9.269531 C 21.300781 9.304688 20.996094 9.203125 20.976562 9.183594 C 20.953125 9.160156 21.234375 8.730469 21.464844 8.40625 C 22.265625 7.261719 22.246094 7.207031 21.792969 6.097656 C 21.535156 5.480469 21.449219 5.195312 21.492188 5.15625 C 21.546875 5.105469 22.003906 5.222656 22.394531 5.332031 C 23.621094 5.695312 23.730469 5.675781 24.699219 4.84375 C 24.996094 4.589844 25.363281 4.300781 25.464844 4.304688 C 25.515625 4.304688 25.558594 4.699219 25.582031 5.308594 C 25.628906 6.542969 25.734375 6.605469 26.894531 7.28125 C 27.230469 7.480469 27.496094 7.714844 27.496094 7.75 C 27.496094 7.785156 27.164062 7.964844 26.894531 8.054688 C 25.425781 8.550781 25.363281 8.628906 25.046875 9.9375 C 24.953125 10.316406 24.832031 10.730469 24.800781 10.761719 C 24.726562 10.828125 24.476562 10.601562 24.269531 10.320312 Z M 24.269531 10.320312 "/>
</g>
</svg>
