<!-- color: #ef772a -->
<svg xmlns="http://www.w3.org/2000/svg" xmlns:xlink="http://www.w3.org/1999/xlink" width="32px" height="32px" viewBox="0 0 32 32" version="1.1">
<defs>
<clipPath id="clip1">
  <path d="M 10.4375 10.375 L 16.5625 10.375 L 16.5625 17 L 10.4375 17 Z M 10.4375 10.375 "/>
</clipPath>
<clipPath id="clip2">
  <path d="M 31.265625 16.371094 C 31.265625 24.71875 24.5 31.480469 16.160156 31.480469 C 7.824219 31.480469 1.054688 24.71875 1.054688 16.371094 C 1.054688 8.027344 7.824219 1.269531 16.160156 1.269531 C 24.5 1.269531 31.265625 8.027344 31.265625 16.371094 Z M 31.265625 16.371094 "/>
</clipPath>
<clipPath id="clip3">
  <path d="M 20.125 20.375 L 24.75 20.375 L 24.75 24.9375 L 20.125 24.9375 Z M 20.125 20.375 "/>
</clipPath>
<clipPath id="clip4">
  <path d="M 31.265625 16.371094 C 31.265625 24.71875 24.5 31.480469 16.160156 31.480469 C 7.824219 31.480469 1.054688 24.71875 1.054688 16.371094 C 1.054688 8.027344 7.824219 1.269531 16.160156 1.269531 C 24.5 1.269531 31.265625 8.027344 31.265625 16.371094 Z M 31.265625 16.371094 "/>
</clipPath>
<clipPath id="clip5">
  <path d="M 17.1875 17.375 L 21.3125 17.375 L 21.3125 21.5625 L 17.1875 21.5625 Z M 17.1875 17.375 "/>
</clipPath>
<clipPath id="clip6">
  <path d="M 31.265625 16.371094 C 31.265625 24.71875 24.5 31.480469 16.160156 31.480469 C 7.824219 31.480469 1.054688 24.71875 1.054688 16.371094 C 1.054688 8.027344 7.824219 1.269531 16.160156 1.269531 C 24.5 1.269531 31.265625 8.027344 31.265625 16.371094 Z M 31.265625 16.371094 "/>
</clipPath>
<clipPath id="clip7">
  <path d="M 7.625 7.75 L 19.375 7.75 L 19.375 19.625 L 7.625 19.625 Z M 7.625 7.75 "/>
</clipPath>
<clipPath id="clip8">
  <path d="M 31.265625 16.371094 C 31.265625 24.71875 24.5 31.480469 16.160156 31.480469 C 7.824219 31.480469 1.054688 24.71875 1.054688 16.371094 C 1.054688 8.027344 7.824219 1.269531 16.160156 1.269531 C 24.5 1.269531 31.265625 8.027344 31.265625 16.371094 Z M 31.265625 16.371094 "/>
</clipPath>
</defs>
<g id="surface1">
<path style="fill-rule:nonzero;fill:rgb(93.333334%,43.921569%,11.372549%);fill-opacity:1;stroke-width:6.941165;stroke-linecap:butt;stroke-linejoin:miter;stroke:rgb(88.627452%,82.352942%,80.392158%);stroke-opacity:1;stroke-miterlimit:4;" d="M 21.03125 7.140625 L 106.96875 7.140625 C 114.640625 7.140625 120.859375 13.359375 120.859375 21.03125 L 120.859375 106.96875 C 120.859375 114.640625 114.640625 120.859375 106.96875 120.859375 L 21.03125 120.859375 C 13.359375 120.859375 7.140625 114.640625 7.140625 106.96875 L 7.140625 21.03125 C 7.140625 13.359375 13.359375 7.140625 21.03125 7.140625 Z M 21.03125 7.140625 " transform="matrix(0.25,0,0,0.25,0,0)"/>
<g clip-path="url(#clip1)" clip-rule="nonzero">
<g clip-path="url(#clip2)" clip-rule="nonzero">
<path style=" stroke:none;fill-rule:nonzero;fill:rgb(97.647059%,97.647059%,97.647059%);fill-opacity:1;" d="M 12.996094 10.429688 L 14 10.429688 L 16.503906 16.996094 L 15.582031 16.996094 L 14.988281 15.3125 L 12.03125 15.3125 L 11.414062 16.996094 L 10.488281 16.996094 M 13.488281 11.3125 L 12.296875 14.574219 L 14.699219 14.574219 M 13.488281 11.3125 "/>
</g>
</g>
<g clip-path="url(#clip3)" clip-rule="nonzero">
<g clip-path="url(#clip4)" clip-rule="nonzero">
<path style=" stroke:none;fill-rule:nonzero;fill:rgb(97.647059%,97.647059%,97.647059%);fill-opacity:1;" d="M 20.179688 21.804688 L 21.589844 20.394531 L 24.699219 23.503906 L 23.292969 24.914062 M 20.179688 21.804688 "/>
</g>
</g>
<g clip-path="url(#clip5)" clip-rule="nonzero">
<g clip-path="url(#clip6)" clip-rule="nonzero">
<path style=" stroke:none;fill-rule:nonzero;fill:rgb(97.647059%,97.647059%,97.647059%);fill-opacity:1;" d="M 17.195312 18.394531 L 18.183594 17.410156 L 21.292969 20.519531 L 20.304688 21.503906 M 17.195312 18.394531 "/>
</g>
</g>
<g clip-path="url(#clip7)" clip-rule="nonzero">
<g clip-path="url(#clip8)" clip-rule="nonzero">
<path style=" stroke:none;fill-rule:nonzero;fill:rgb(97.647059%,97.647059%,97.647059%);fill-opacity:1;" d="M 13.488281 7.8125 C 11.980469 7.8125 10.488281 8.410156 9.34375 9.558594 C 7.054688 11.84375 7.054688 15.554688 9.34375 17.847656 C 11.632812 20.136719 15.34375 20.136719 17.636719 17.847656 C 19.925781 15.558594 19.925781 11.847656 17.636719 9.558594 C 16.492188 8.410156 14.996094 7.8125 13.488281 7.8125 M 13.488281 8.832031 C 14.742188 8.832031 16.019531 9.253906 16.980469 10.214844 C 18.902344 12.136719 18.902344 15.273438 16.980469 17.195312 C 15.058594 19.117188 11.917969 19.117188 9.996094 17.195312 C 8.074219 15.273438 8.074219 12.136719 9.996094 10.214844 C 10.957031 9.25 12.230469 8.832031 13.488281 8.832031 M 13.488281 8.832031 "/>
</g>
</g>
</g>
</svg>
