
<svg xmlns="http://www.w3.org/2000/svg" xmlns:xlink="http://www.w3.org/1999/xlink" width="32px" height="32px" viewBox="0 0 32 32" version="1.1">
<g id="surface1">
<path style="fill-rule:nonzero;fill:rgb(100%,100%,100%);fill-opacity:1;stroke-width:28.191782;stroke-linecap:butt;stroke-linejoin:miter;stroke:rgb(6.27451%,43.921569%,63.137257%);stroke-opacity:1;stroke-miterlimit:4;" d="M 81.49999 635.582072 L 430.49999 635.582072 C 461.68749 635.582072 486.93749 660.832072 486.93749 692.019572 L 486.93749 1041.019572 C 486.93749 1072.207072 461.68749 1097.457072 430.49999 1097.457072 L 81.49999 1097.457072 C 50.31249 1097.457072 25.06249 1072.207072 25.06249 1041.019572 L 25.06249 692.019572 C 25.06249 660.832072 50.31249 635.582072 81.49999 635.582072 Z M 81.49999 635.582072 " transform="matrix(0.0625,0,0,0.0625,0.000000625,-38.157473)"/>
<path style=" stroke:none;fill-rule:nonzero;fill:rgb(40.000001%,40.000001%,40.000001%);fill-opacity:1;" d="M 16 22.328125 C 15.300781 22.328125 14.675781 22.621094 14.21875 23.082031 L 16 24.863281 L 17.78125 23.082031 C 17.324219 22.621094 16.699219 22.328125 16 22.328125 Z M 16 22.328125 "/>
<path style=" stroke:none;fill-rule:nonzero;fill:rgb(40.000001%,40.000001%,40.000001%);fill-opacity:1;" d="M 16 17.265625 C 13.902344 17.265625 12.015625 18.125 10.640625 19.5 L 12.417969 21.28125 C 13.335938 20.363281 14.601562 19.796875 16 19.796875 C 17.398438 19.796875 18.664062 20.363281 19.582031 21.28125 L 21.359375 19.5 C 19.984375 18.125 18.097656 17.265625 16 17.265625 Z M 16 17.265625 "/>
<path style=" stroke:none;fill-rule:nonzero;fill:rgb(40.000001%,40.000001%,40.000001%);fill-opacity:1;" d="M 16 12.203125 C 12.503906 12.203125 9.351562 13.628906 7.058594 15.921875 L 8.839844 17.699219 C 10.671875 15.867188 13.207031 14.734375 16 14.734375 C 18.792969 14.734375 21.328125 15.867188 23.160156 17.699219 L 24.941406 15.921875 C 22.648438 13.628906 19.496094 12.203125 16 12.203125 Z M 16 12.203125 "/>
<path style=" stroke:none;fill-rule:nonzero;fill:rgb(40.000001%,40.000001%,40.000001%);fill-opacity:1;" d="M 16 7.136719 C 11.109375 7.136719 6.6875 9.132812 3.480469 12.339844 L 5.261719 14.121094 C 8.011719 11.371094 11.808594 9.671875 16 9.671875 C 20.191406 9.671875 23.988281 11.371094 26.738281 14.121094 L 28.519531 12.339844 C 25.3125 9.132812 20.890625 7.136719 16 7.136719 Z M 16 7.136719 "/>
</g>
</svg>
