
<svg xmlns="http://www.w3.org/2000/svg" xmlns:xlink="http://www.w3.org/1999/xlink" width="32px" height="32px" viewBox="0 0 32 32" version="1.1">
<g id="surface1">
<path style="fill-rule:nonzero;fill:rgb(100%,100%,100%);fill-opacity:1;stroke-width:7.956348;stroke-linecap:butt;stroke-linejoin:miter;stroke:rgb(80.784315%,25.882354%,16.078432%);stroke-opacity:1;stroke-miterlimit:4;" d="M -15.118051 273.967025 L 83.377516 273.967025 C 92.179323 273.967025 99.305435 281.093137 99.305435 289.894943 L 99.305435 388.390511 C 99.305435 397.192317 92.179323 404.318429 83.377516 404.318429 L -15.118051 404.318429 C -23.919858 404.318429 -31.04597 397.192317 -31.04597 388.390511 L -31.04597 289.894943 C -31.04597 281.093137 -23.919858 273.967025 -15.118051 273.967025 Z M -15.118051 273.967025 " transform="matrix(0.221457,0,0,0.221457,8.441743,-59.105418)"/>
<path style=" stroke:none;fill-rule:nonzero;fill:rgb(20%,20%,20%);fill-opacity:1;" d="M 16 3.597656 C 12.207031 3.597656 9.105469 6.847656 8.738281 11.039062 L 23.261719 11.039062 C 22.894531 6.847656 19.792969 3.597656 16 3.597656 Z M 5.058594 12.195312 C 4.246094 12.195312 3.597656 12.933594 3.597656 13.847656 C 3.597656 14.765625 4.246094 15.503906 5.058594 15.503906 L 26.941406 15.503906 C 27.753906 15.503906 28.402344 14.765625 28.402344 13.847656 C 28.402344 12.933594 27.753906 12.195312 26.941406 12.195312 Z M 5.785156 18.480469 C 4.980469 18.480469 4.328125 19.21875 4.328125 20.132812 C 4.328125 21.050781 4.980469 21.785156 5.785156 21.785156 L 12.273438 21.785156 L 6.882812 25.316406 C 6.183594 25.773438 5.941406 26.78125 6.347656 27.574219 C 6.753906 28.367188 7.640625 28.636719 8.339844 28.179688 L 14.90625 23.882812 L 14.90625 18.480469 Z M 17.09375 18.480469 L 17.09375 23.882812 L 23.660156 28.179688 C 24.359375 28.636719 25.246094 28.367188 25.652344 27.574219 C 26.058594 26.78125 25.816406 25.773438 25.117188 25.316406 L 19.726562 21.785156 L 26.214844 21.785156 C 27.019531 21.785156 27.671875 21.050781 27.671875 20.132812 C 27.671875 19.21875 27.019531 18.480469 26.214844 18.480469 Z M 17.09375 18.480469 "/>
<path style=" stroke:none;fill-rule:nonzero;fill:rgb(83.137256%,10.196079%,10.196079%);fill-opacity:1;" d="M 7.246094 12.199219 L 7.246094 19.636719 L 7.25 19.636719 C 7.25 19.667969 7.246094 19.691406 7.246094 19.722656 C 7.246094 24.53125 10.398438 28.402344 14.316406 28.402344 L 14.90625 28.402344 L 14.90625 16.828125 L 17.09375 16.828125 L 17.09375 28.402344 L 17.683594 28.402344 C 21.601562 28.402344 24.753906 24.53125 24.753906 19.722656 C 24.753906 19.691406 24.75 19.667969 24.75 19.636719 L 24.753906 19.636719 L 24.753906 12.199219 Z M 7.246094 12.199219 "/>
<path style=" stroke:none;fill-rule:nonzero;fill:rgb(97.647059%,97.647059%,97.647059%);fill-opacity:1;" d="M 21.511719 15.699219 C 21.511719 16.28125 21.035156 16.753906 20.453125 16.753906 C 19.871094 16.753906 19.394531 16.28125 19.394531 15.699219 C 19.394531 15.113281 19.871094 14.640625 20.453125 14.640625 C 21.035156 14.640625 21.511719 15.113281 21.511719 15.699219 Z M 21.511719 15.699219 "/>
<path style=" stroke:none;fill-rule:nonzero;fill:rgb(97.647059%,97.647059%,97.647059%);fill-opacity:1;" d="M 12.90625 23.925781 C 12.90625 24.507812 12.433594 24.980469 11.847656 24.980469 C 11.265625 24.980469 10.792969 24.507812 10.792969 23.925781 C 10.792969 23.339844 11.265625 22.867188 11.847656 22.867188 C 12.433594 22.867188 12.90625 23.339844 12.90625 23.925781 Z M 12.90625 23.925781 "/>
<path style=" stroke:none;fill-rule:nonzero;fill:rgb(97.647059%,97.647059%,97.647059%);fill-opacity:1;" d="M 16.832031 14.039062 C 16.832031 14.621094 16.355469 15.09375 15.773438 15.09375 C 15.191406 15.09375 14.714844 14.621094 14.714844 14.039062 C 14.714844 13.453125 15.191406 12.980469 15.773438 12.980469 C 16.355469 12.980469 16.832031 13.453125 16.832031 14.039062 Z M 16.832031 14.039062 "/>
<path style=" stroke:none;fill-rule:nonzero;fill:rgb(97.647059%,97.647059%,97.647059%);fill-opacity:1;" d="M 21.8125 23.546875 C 21.8125 24.128906 21.339844 24.605469 20.753906 24.605469 C 20.171875 24.605469 19.699219 24.128906 19.699219 23.546875 C 19.699219 22.964844 20.171875 22.488281 20.753906 22.488281 C 21.339844 22.488281 21.8125 22.964844 21.8125 23.546875 Z M 21.8125 23.546875 "/>
<path style=" stroke:none;fill-rule:nonzero;fill:rgb(97.647059%,97.647059%,97.647059%);fill-opacity:1;" d="M 23.925781 18.566406 C 23.925781 19.148438 23.449219 19.621094 22.867188 19.621094 C 22.285156 19.621094 21.8125 19.148438 21.8125 18.566406 C 21.8125 17.980469 22.285156 17.511719 22.867188 17.511719 C 23.449219 17.511719 23.925781 17.980469 23.925781 18.566406 Z M 23.925781 18.566406 "/>
<path style=" stroke:none;fill-rule:nonzero;fill:rgb(97.647059%,97.647059%,97.647059%);fill-opacity:1;" d="M 20 20.378906 C 20 20.960938 19.527344 21.433594 18.941406 21.433594 C 18.359375 21.433594 17.886719 20.960938 17.886719 20.378906 C 17.886719 19.792969 18.359375 19.320312 18.941406 19.320312 C 19.527344 19.320312 20 19.792969 20 20.378906 Z M 20 20.378906 "/>
<path style=" stroke:none;fill-rule:nonzero;fill:rgb(97.647059%,97.647059%,97.647059%);fill-opacity:1;" d="M 11.699219 15.019531 C 11.699219 15.601562 11.222656 16.074219 10.640625 16.074219 C 10.058594 16.074219 9.585938 15.601562 9.585938 15.019531 C 9.585938 14.433594 10.058594 13.960938 10.640625 13.960938 C 11.222656 13.960938 11.699219 14.433594 11.699219 15.019531 Z M 11.699219 15.019531 "/>
<path style=" stroke:none;fill-rule:nonzero;fill:rgb(97.647059%,97.647059%,97.647059%);fill-opacity:1;" d="M 13.660156 19.09375 C 13.660156 19.675781 13.1875 20.152344 12.605469 20.152344 C 12.019531 20.152344 11.546875 19.675781 11.546875 19.09375 C 11.546875 18.511719 12.019531 18.039062 12.605469 18.039062 C 13.1875 18.039062 13.660156 18.511719 13.660156 19.09375 Z M 13.660156 19.09375 "/>
<path style=" stroke:none;fill-rule:nonzero;fill:rgb(97.647059%,97.647059%,97.647059%);fill-opacity:1;" d="M 21.511719 15.699219 C 21.511719 16.28125 21.035156 16.753906 20.453125 16.753906 C 19.871094 16.753906 19.394531 16.28125 19.394531 15.699219 C 19.394531 15.113281 19.871094 14.640625 20.453125 14.640625 C 21.035156 14.640625 21.511719 15.113281 21.511719 15.699219 Z M 21.511719 15.699219 "/>
<path style=" stroke:none;fill-rule:nonzero;fill:rgb(97.647059%,97.647059%,97.647059%);fill-opacity:1;" d="M 10.488281 20.679688 C 10.488281 21.261719 10.019531 21.738281 9.433594 21.738281 C 8.851562 21.738281 8.378906 21.261719 8.378906 20.679688 C 8.378906 20.097656 8.851562 19.621094 9.433594 19.621094 C 10.019531 19.621094 10.488281 20.097656 10.488281 20.679688 Z M 10.488281 20.679688 "/>
</g>
</svg>
