
<svg xmlns="http://www.w3.org/2000/svg" xmlns:xlink="http://www.w3.org/1999/xlink" width="32px" height="32px" viewBox="0 0 32 32" version="1.1">
<g id="surface1">
<path style="fill-rule:nonzero;fill:rgb(100%,100%,100%);fill-opacity:1;stroke-width:27.910587;stroke-linecap:butt;stroke-linejoin:miter;stroke:rgb(0%,67.058825%,93.333334%);stroke-opacity:1;stroke-miterlimit:4;" d="M 83.1875 27.4375 L 428.8125 27.4375 C 459.625 27.4375 484.5625 52.375 484.5625 83.1875 L 484.5625 428.8125 C 484.5625 459.625 459.625 484.5625 428.8125 484.5625 L 83.1875 484.5625 C 52.375 484.5625 27.4375 459.625 27.4375 428.8125 L 27.4375 83.1875 C 27.4375 52.375 52.375 27.4375 83.1875 27.4375 Z M 83.1875 27.4375 " transform="matrix(0.0625,0,0,0.0625,0,0)"/>
<path style=" stroke:none;fill-rule:nonzero;fill:rgb(22.745098%,20.784314%,21.960784%);fill-opacity:1;" d="M 15.667969 16.722656 C 16.238281 16.933594 16.785156 16.753906 17.179688 16.21875 C 17.328125 16.019531 17.363281 15.886719 17.363281 15.507812 L 17.371094 15.042969 L 19.851562 12.550781 L 22.332031 10.054688 L 22.339844 9.828125 C 22.34375 9.699219 22.320312 9.550781 22.289062 9.488281 C 22.222656 9.355469 21.863281 9.234375 21.722656 9.296875 C 21.667969 9.324219 20.503906 10.457031 19.144531 11.820312 L 16.667969 14.296875 L 16.125 14.222656 L 11.984375 10.082031 L 11.730469 10.035156 C 11.332031 9.960938 11.050781 10.027344 10.824219 10.253906 C 10.570312 10.503906 10.519531 10.800781 10.652344 11.214844 C 10.753906 11.519531 10.761719 11.527344 12.765625 13.527344 L 14.78125 15.539062 L 14.863281 15.855469 C 14.964844 16.238281 15.273438 16.574219 15.667969 16.722656 Z M 15.667969 16.722656 "/>
<path style="fill:none;stroke-width:35.849998;stroke-linecap:butt;stroke-linejoin:miter;stroke:rgb(0%,67.058825%,93.333334%);stroke-opacity:1;stroke-miterlimit:4;" d="M 425.5 256 C 425.5 349.625 349.625 425.5 256 425.5 C 162.375 425.5 86.5 349.625 86.5 256 C 86.5 162.375 162.375 86.5 256 86.5 C 349.625 86.5 425.5 162.375 425.5 256 Z M 425.5 256 " transform="matrix(0.0625,0,0,0.0625,0,0)"/>
</g>
</svg>
