
<svg xmlns="http://www.w3.org/2000/svg" xmlns:xlink="http://www.w3.org/1999/xlink" width="32px" height="32px" viewBox="0 0 32 32" version="1.1">
<g id="surface1">
<path style="fill-rule:nonzero;fill:rgb(70.19608%,70.19608%,70.19608%);fill-opacity:1;stroke-width:7.019178;stroke-linecap:butt;stroke-linejoin:miter;stroke:rgb(100%,40.000001%,0%);stroke-opacity:1;stroke-miterlimit:4;" d="M 20.546875 6.515625 L 107.453125 6.515625 C 115.203125 6.515625 121.484375 12.796875 121.484375 20.546875 L 121.484375 107.453125 C 121.484375 115.203125 115.203125 121.484375 107.453125 121.484375 L 20.546875 121.484375 C 12.796875 121.484375 6.515625 115.203125 6.515625 107.453125 L 6.515625 20.546875 C 6.515625 12.796875 12.796875 6.515625 20.546875 6.515625 Z M 20.546875 6.515625 " transform="matrix(0.25,0,0,0.25,0,0)"/>
<path style="fill-rule:nonzero;fill:rgb(100%,40.000001%,0%);fill-opacity:1;stroke-width:1;stroke-linecap:round;stroke-linejoin:miter;stroke:rgb(100%,40.000001%,0%);stroke-opacity:1;stroke-miterlimit:4;" d="M 59.21875 112.6875 C 57 111.171875 56.46875 109.953125 56.21875 105.859375 L 55.984375 102.0625 L 53.734375 101.546875 C 52.515625 101.25 50.546875 100.640625 49.375 100.203125 L 47.265625 99.390625 L 43.515625 103.03125 C 40.703125 105.796875 39.390625 106.765625 38.140625 106.984375 C 34.90625 107.59375 31.0625 104.421875 31.0625 101.15625 C 31.0625 99.53125 32.890625 96.546875 35.296875 94.203125 C 36.1875 93.359375 36.90625 92.484375 36.90625 92.265625 C 36.90625 92.046875 35.78125 90.609375 34.40625 89.046875 L 31.890625 86.203125 L 27.546875 87.515625 C 22.421875 89.078125 20.796875 88.953125 18.671875 86.8125 C 14.6875 82.828125 16.796875 78.109375 23.46875 76.078125 C 27.234375 74.921875 26.9375 75.671875 26.28125 69.046875 L 25.90625 65.234375 L 22.890625 64.6875 C 19.109375 64 17.34375 63.109375 16.234375 61.265625 C 15.15625 59.515625 15.109375 57.765625 16.109375 55.703125 C 17.359375 53.046875 19 52.328125 23.234375 52.59375 C 25.234375 52.71875 27.140625 52.890625 27.453125 52.953125 C 27.828125 53.046875 28.734375 51.8125 29.71875 49.921875 C 30.625 48.171875 32 45.828125 32.765625 44.71875 L 34.15625 42.6875 L 31.453125 40.046875 C 28.34375 36.984375 27.46875 35.546875 27.484375 33.484375 C 27.484375 30.65625 30.390625 27.734375 33.21875 27.734375 C 35.3125 27.734375 37.140625 28.796875 40.40625 31.9375 L 43.25 34.65625 L 45.515625 33.390625 C 46.765625 32.671875 49.421875 31.546875 51.4375 30.875 L 55.078125 29.640625 L 55.328125 26.109375 C 55.46875 24.15625 55.796875 22.171875 56.078125 21.671875 C 57.71875 18.703125 61.375 17.484375 64.140625 18.984375 C 66.546875 20.28125 67.4375 22.140625 67.4375 25.890625 C 67.4375 28.078125 67.609375 29.15625 68 29.25 C 68.296875 29.328125 70.078125 29.75 71.921875 30.1875 C 73.78125 30.609375 76.890625 31.75 78.84375 32.703125 L 82.390625 34.421875 L 85.359375 31.59375 C 89.4375 27.703125 90.171875 27.28125 92.75 27.28125 C 94.75 27.28125 95.125 27.453125 96.6875 29.09375 C 98.109375 30.578125 98.421875 31.234375 98.421875 32.703125 C 98.421875 35.171875 97.578125 36.578125 94.40625 39.53125 C 92.90625 40.921875 91.6875 42.15625 91.6875 42.28125 C 91.6875 42.421875 92.6875 44.046875 93.90625 45.921875 C 95.140625 47.796875 96.390625 50.03125 96.703125 50.890625 C 97.328125 52.625 97.484375 52.671875 102.015625 51.921875 C 104.390625 51.515625 105.421875 51.53125 106.421875 51.953125 C 110.015625 53.4375 111.578125 57.59375 109.6875 60.65625 C 108.578125 62.46875 106.546875 63.546875 103.515625 63.9375 C 100.046875 64.390625 99.765625 64.671875 99.75 67.59375 C 99.734375 69.015625 99.5625 71.015625 99.359375 72.0625 C 98.921875 74.296875 99.140625 74.5625 102.015625 75.328125 C 106.71875 76.578125 109.1875 78.875 109.1875 81.96875 C 109.203125 85.140625 106.5 87.890625 103.390625 87.890625 C 102.53125 87.890625 100.109375 87.375 98 86.734375 L 94.171875 85.5625 L 93.484375 86.609375 C 93.109375 87.171875 91.953125 88.625 90.890625 89.8125 C 89.84375 91 88.984375 92.078125 88.984375 92.203125 C 88.984375 92.328125 90.296875 93.8125 91.875 95.5 C 93.8125 97.5625 94.859375 99.078125 95.046875 100.09375 C 95.578125 102.875 93.75 105.859375 90.9375 106.78125 C 88.34375 107.640625 86.828125 106.9375 82.8125 103.03125 L 79.109375 99.421875 L 75.40625 100.609375 C 73.359375 101.265625 70.984375 101.96875 70.125 102.171875 L 68.5625 102.546875 L 68.3125 105.890625 C 68.046875 109.515625 67.671875 110.453125 65.921875 112.09375 C 64.34375 113.578125 60.953125 113.875 59.21875 112.6875 Z M 65.796875 110.84375 C 67.015625 109.640625 67.15625 109.171875 67.34375 105.890625 C 67.453125 103.90625 67.78125 102.109375 68.046875 101.890625 C 68.328125 101.671875 69.671875 101.234375 71.03125 100.921875 C 72.390625 100.609375 74.765625 99.84375 76.328125 99.234375 L 79.171875 98.109375 L 82.0625 101.265625 C 85.578125 105.125 88.0625 106.484375 90.390625 105.84375 C 92.265625 105.328125 93.359375 104.265625 93.859375 102.4375 C 94.453125 100.328125 93.609375 98.40625 90.765625 95.359375 C 89.296875 93.796875 88.09375 92.328125 88.09375 92.140625 C 88.09375 91.9375 88.859375 90.859375 89.796875 89.71875 C 90.734375 88.59375 91.953125 87.015625 92.515625 86.21875 C 93.078125 85.421875 93.875 84.765625 94.296875 84.765625 C 94.703125 84.765625 96.671875 85.265625 98.640625 85.890625 C 102.953125 87.21875 104.046875 87.265625 105.859375 86.15625 C 108.515625 84.53125 108.984375 80.609375 106.78125 78.515625 C 106.203125 77.984375 104.03125 76.984375 101.953125 76.296875 C 98.328125 75.125 98.203125 75.046875 98.265625 73.734375 C 98.421875 70.21875 99.03125 64.578125 99.296875 64.140625 C 99.453125 63.890625 101.125 63.375 103.015625 63.015625 C 107.1875 62.21875 108.078125 61.765625 108.96875 60.078125 C 110.09375 57.875 109.828125 56.125 108.109375 54.40625 C 106.75 53.03125 106.328125 52.875 104.1875 52.90625 C 102.859375 52.921875 100.828125 53.078125 99.671875 53.28125 C 98.515625 53.46875 97.375 53.515625 97.140625 53.359375 C 96.921875 53.21875 96.078125 51.78125 95.28125 50.171875 C 94.484375 48.578125 93.140625 46.296875 92.296875 45.125 C 91.46875 43.953125 90.734375 42.78125 90.671875 42.53125 C 90.609375 42.265625 92.046875 40.59375 93.859375 38.796875 C 96.828125 35.859375 97.1875 35.296875 97.390625 33.421875 C 97.609375 31.5 97.515625 31.234375 96.046875 29.765625 C 94.78125 28.5 94.109375 28.171875 92.734375 28.171875 C 90.59375 28.1875 89.09375 29.109375 85.515625 32.609375 C 83.984375 34.125 82.609375 35.359375 82.46875 35.359375 C 82.328125 35.359375 80.546875 34.578125 78.515625 33.609375 C 75.375 32.109375 72.90625 31.328125 67.546875 30.171875 C 66.609375 29.984375 66.546875 29.703125 66.546875 26.8125 C 66.546875 25.078125 66.25 22.96875 65.890625 22.140625 C 65.078125 20.1875 62.921875 19.015625 60.796875 19.359375 C 57.6875 19.859375 56.21875 22.421875 56.203125 27.328125 C 56.203125 30.203125 55.921875 30.5625 53.0625 31.3125 C 51.953125 31.609375 49.390625 32.625 47.359375 33.609375 C 45.34375 34.578125 43.453125 35.359375 43.15625 35.359375 C 42.859375 35.359375 41.140625 33.953125 39.328125 32.25 C 36.953125 29.984375 35.609375 29.046875 34.40625 28.828125 C 32.078125 28.375 29.859375 29.515625 28.984375 31.625 C 27.890625 34.265625 28.453125 35.6875 31.96875 39.171875 C 33.703125 40.890625 35.109375 42.453125 35.109375 42.640625 C 35.109375 42.828125 34.203125 44.3125 33.109375 45.953125 C 32.015625 47.59375 30.671875 50.015625 30.109375 51.328125 C 29.578125 52.65625 28.859375 53.828125 28.53125 53.953125 C 28.203125 54.078125 26.328125 53.953125 24.359375 53.671875 C 21.203125 53.203125 20.578125 53.234375 19.15625 53.921875 C 15.8125 55.515625 15.484375 60.40625 18.59375 62.296875 C 19.359375 62.765625 21.359375 63.375 23.03125 63.65625 C 24.703125 63.9375 26.265625 64.40625 26.484375 64.703125 C 26.8125 65.140625 27.9375 73.296875 27.921875 75.203125 C 27.921875 75.5 26.234375 76.265625 24.15625 76.890625 C 18.75 78.546875 16.921875 80.703125 18.0625 84.125 C 19.203125 87.59375 22.046875 88.21875 28.140625 86.328125 C 30.125 85.703125 31.96875 85.203125 32.234375 85.203125 C 32.515625 85.203125 33.21875 85.890625 33.8125 86.734375 C 34.390625 87.578125 35.671875 89.203125 36.625 90.328125 L 38.359375 92.390625 L 35.421875 95.484375 C 33.765625 97.265625 32.375 99.171875 32.203125 99.9375 C 31.640625 102.515625 33.765625 105.640625 36.234375 105.875 C 38.703125 106.109375 39.375 105.75 43.140625 102.0625 L 47.015625 98.265625 L 51.28125 99.640625 C 57.296875 101.578125 56.859375 101.140625 57.125 105.453125 C 57.40625 109.796875 57.953125 111.0625 59.953125 111.953125 C 61.953125 112.859375 64.21875 112.421875 65.796875 110.84375 Z M 56.6875 94.828125 C 50.390625 93.46875 43.53125 89.140625 39.734375 84.109375 C 32.453125 74.5 31.375 63.3125 36.671875 52.578125 C 43.0625 39.609375 58.453125 33.21875 72.171875 37.828125 C 81.375 40.921875 88.453125 48.140625 91.3125 57.359375 C 92.171875 60.109375 92.359375 61.71875 92.34375 66.125 C 92.328125 70.828125 92.171875 71.953125 91.078125 75.09375 C 88.359375 82.890625 83.328125 88.6875 76.296875 92.15625 C 69.75 95.390625 63.3125 96.265625 56.6875 94.828125 Z M 71.984375 93.015625 C 75.953125 91.765625 81.25 88.453125 83.796875 85.609375 C 90.078125 78.671875 92.796875 69.234375 91.046875 60.5625 C 88.890625 49.953125 81.859375 41.96875 71.734375 38.65625 C 68.671875 37.65625 67.3125 37.46875 62.953125 37.46875 C 56.484375 37.46875 52.09375 38.75 47.046875 42.125 C 41.46875 45.859375 37.5 51.25 35.484375 57.8125 C 34.046875 62.53125 34.046875 69.265625 35.484375 73.984375 C 38.703125 84.484375 47.796875 92.515625 58.421875 94.1875 C 62.1875 94.765625 68 94.265625 71.984375 93.015625 Z M 71.984375 93.015625 " transform="matrix(0.25,0,0,0.25,0,0)"/>
<path style=" stroke:none;fill-rule:evenodd;fill:rgb(100%,40.000001%,0%);fill-opacity:1;" d="M 15.027344 27.910156 C 14.597656 27.714844 14.460938 27.390625 14.371094 26.371094 C 14.308594 25.617188 14.265625 25.464844 14.078125 25.308594 C 13.949219 25.199219 11.941406 24.5 11.761719 24.5 C 11.722656 24.5 11.308594 24.871094 10.84375 25.320312 C 9.855469 26.285156 9.632812 26.425781 9.171875 26.382812 C 8.683594 26.339844 8.300781 25.992188 8.167969 25.476562 C 8.042969 25.007812 8.195312 24.734375 9.128906 23.71875 L 9.707031 23.089844 L 9.449219 22.785156 C 9.304688 22.617188 9.023438 22.269531 8.828125 22.019531 C 8.316406 21.355469 8.195312 21.238281 8.046875 21.238281 C 7.972656 21.238281 7.566406 21.339844 7.136719 21.457031 C 5.957031 21.792969 5.417969 21.824219 5.03125 21.597656 C 4.613281 21.351562 4.417969 20.613281 4.644531 20.167969 C 4.816406 19.824219 5.148438 19.636719 6.234375 19.246094 C 6.5625 19.128906 6.886719 18.988281 6.957031 18.929688 L 7.082031 18.832031 L 7.027344 18.296875 C 6.960938 17.640625 6.800781 16.515625 6.734375 16.277344 C 6.675781 16.054688 6.625 16.03125 5.746094 15.820312 C 4.863281 15.605469 4.675781 15.53125 4.480469 15.300781 C 3.949219 14.683594 4.242188 13.71875 5.027344 13.484375 C 5.253906 13.417969 5.347656 13.417969 5.871094 13.480469 C 6.714844 13.582031 7.183594 13.574219 7.28125 13.46875 C 7.324219 13.421875 7.492188 13.113281 7.65625 12.78125 C 7.824219 12.449219 8.101562 11.945312 8.277344 11.660156 C 8.730469 10.929688 8.875 10.683594 8.875 10.636719 C 8.875 10.617188 8.558594 10.261719 8.167969 9.851562 C 7.191406 8.8125 7.066406 8.519531 7.347656 7.933594 C 7.550781 7.496094 7.90625 7.277344 8.398438 7.277344 C 8.722656 7.277344 9.023438 7.464844 9.804688 8.152344 C 10.628906 8.882812 10.714844 8.941406 10.863281 8.90625 C 10.925781 8.890625 11.351562 8.710938 11.808594 8.511719 C 12.269531 8.308594 12.894531 8.058594 13.199219 7.953125 C 13.503906 7.847656 13.808594 7.730469 13.871094 7.6875 C 14.054688 7.566406 14.113281 7.355469 14.144531 6.710938 C 14.175781 6.035156 14.292969 5.617188 14.53125 5.3125 C 14.925781 4.816406 15.734375 4.792969 16.183594 5.265625 C 16.40625 5.503906 16.472656 5.738281 16.519531 6.496094 C 16.546875 6.886719 16.582031 7.277344 16.601562 7.371094 C 16.640625 7.574219 16.667969 7.585938 17.632812 7.8125 C 18.410156 8 18.910156 8.175781 19.882812 8.609375 C 20.277344 8.785156 20.621094 8.933594 20.640625 8.933594 C 20.660156 8.933594 20.964844 8.667969 21.308594 8.34375 C 21.980469 7.714844 22.378906 7.386719 22.628906 7.257812 C 22.824219 7.15625 23.167969 7.109375 23.386719 7.152344 C 23.613281 7.191406 24.023438 7.527344 24.179688 7.789062 C 24.289062 7.976562 24.300781 8.035156 24.269531 8.292969 C 24.222656 8.699219 24.058594 8.953125 23.386719 9.660156 C 22.71875 10.363281 22.59375 10.519531 22.59375 10.636719 C 22.59375 10.683594 22.75 10.957031 22.941406 11.25 C 23.132812 11.539062 23.453125 12.074219 23.652344 12.433594 C 24.121094 13.289062 24.199219 13.398438 24.347656 13.429688 C 24.410156 13.445312 24.761719 13.425781 25.125 13.382812 C 26.347656 13.246094 26.628906 13.292969 26.988281 13.695312 C 27.34375 14.089844 27.40625 14.464844 27.1875 14.902344 C 26.964844 15.355469 26.832031 15.417969 25.492188 15.734375 C 25.148438 15.816406 24.835938 15.910156 24.800781 15.949219 C 24.710938 16.035156 24.652344 16.402344 24.566406 17.371094 C 24.460938 18.566406 24.464844 18.683594 24.613281 18.800781 C 24.683594 18.855469 24.84375 18.933594 24.96875 18.980469 C 25.785156 19.277344 26.433594 19.554688 26.574219 19.664062 C 27.207031 20.164062 26.996094 21.261719 26.210938 21.5625 C 25.914062 21.675781 25.535156 21.632812 24.710938 21.394531 C 23.636719 21.089844 23.585938 21.082031 23.433594 21.160156 C 23.359375 21.199219 23.242188 21.292969 23.171875 21.371094 C 23.015625 21.542969 22.105469 22.722656 21.992188 22.910156 L 21.90625 23.042969 L 22.140625 23.332031 C 22.269531 23.488281 22.554688 23.828125 22.777344 24.089844 C 22.996094 24.347656 23.222656 24.660156 23.28125 24.777344 C 23.574219 25.382812 23.339844 26.050781 22.746094 26.304688 C 22.105469 26.582031 21.472656 26.246094 20.382812 25.039062 C 20.089844 24.714844 19.828125 24.449219 19.796875 24.449219 C 19.769531 24.449219 19.558594 24.523438 19.332031 24.613281 C 19.105469 24.707031 18.660156 24.863281 18.335938 24.960938 C 18.015625 25.058594 17.574219 25.195312 17.359375 25.261719 C 17.035156 25.359375 16.949219 25.40625 16.902344 25.511719 C 16.871094 25.582031 16.808594 25.960938 16.769531 26.347656 C 16.730469 26.734375 16.679688 27.132812 16.652344 27.230469 C 16.597656 27.449219 16.277344 27.785156 16.011719 27.90625 C 15.746094 28.027344 15.289062 28.027344 15.027344 27.910156 Z M 17.050781 23.816406 C 18.4375 23.535156 19.742188 22.898438 20.753906 22.003906 C 21.628906 21.234375 22.328125 20.175781 22.808594 18.894531 C 23.113281 18.070312 23.144531 17.851562 23.148438 16.519531 C 23.152344 15.230469 23.125 15.011719 22.875 14.234375 C 22.019531 11.558594 19.730469 9.578125 16.933594 9.101562 C 16.425781 9.015625 15.207031 9.003906 14.699219 9.082031 C 13.542969 9.253906 12.386719 9.710938 11.449219 10.367188 C 10.839844 10.792969 9.972656 11.675781 9.585938 12.269531 C 8.273438 14.277344 7.921875 16.59375 8.613281 18.703125 C 8.996094 19.878906 9.578125 20.824219 10.453125 21.707031 C 11.6875 22.941406 13.269531 23.726562 14.917969 23.917969 C 15.46875 23.980469 16.480469 23.933594 17.050781 23.816406 Z M 17.050781 23.816406 "/>
<path style=" stroke:none;fill-rule:evenodd;fill:rgb(100%,100%,100%);fill-opacity:1;" d="M 10.988281 20.421875 C 10.898438 20.363281 10.898438 20.300781 10.980469 19.988281 C 11.121094 19.425781 13.511719 12.941406 14.046875 11.660156 C 14.117188 11.492188 14.230469 11.367188 14.347656 11.320312 C 14.464844 11.277344 15.039062 11.253906 15.789062 11.269531 C 16.785156 11.289062 17.058594 11.316406 17.136719 11.398438 C 17.378906 11.65625 20.425781 19.839844 20.425781 20.230469 C 20.425781 20.363281 20.375 20.410156 20.203125 20.441406 C 19.800781 20.523438 18.214844 20.488281 18.035156 20.394531 C 17.929688 20.34375 17.808594 20.171875 17.726562 19.957031 C 17.402344 19.105469 17.386719 19.082031 17.121094 19.007812 C 16.839844 18.929688 14.976562 18.910156 14.3125 18.980469 L 13.886719 19.027344 L 13.664062 19.644531 C 13.542969 19.984375 13.390625 20.304688 13.328125 20.355469 C 13.191406 20.472656 11.144531 20.527344 10.988281 20.421875 Z M 16.582031 16.964844 C 16.699219 16.871094 16.625 16.464844 16.265625 15.238281 C 15.707031 13.328125 15.589844 13.300781 15.101562 14.964844 C 14.769531 16.089844 14.621094 16.828125 14.714844 16.917969 C 14.894531 17.097656 16.378906 17.136719 16.582031 16.964844 Z M 16.582031 16.964844 "/>
</g>
</svg>
