
<svg xmlns="http://www.w3.org/2000/svg" xmlns:xlink="http://www.w3.org/1999/xlink" width="32px" height="32px" viewBox="0 0 32 32" version="1.1">
<g id="surface1">
<path style="fill-rule:nonzero;fill:rgb(20%,20%,20%);fill-opacity:1;stroke-width:54.657539;stroke-linecap:butt;stroke-linejoin:miter;stroke:rgb(61.56863%,62.352943%,72.156864%);stroke-opacity:1;stroke-miterlimit:4;" d="M 173.625 64.375 L 850.375 64.375 C 910.75 64.375 959.625 113.25 959.625 173.625 L 959.625 850.375 C 959.625 910.75 910.75 959.625 850.375 959.625 L 173.625 959.625 C 113.25 959.625 64.375 910.75 64.375 850.375 L 64.375 173.625 C 64.375 113.25 113.25 64.375 173.625 64.375 Z M 173.625 64.375 " transform="matrix(0.03125,0,0,0.03125,0,0)"/>
<path style=" stroke:none;fill-rule:nonzero;fill:rgb(5.882353%,47.843137%,90.980393%);fill-opacity:1;" d="M 18.355469 26.246094 C 16.058594 25.464844 14.746094 23.238281 15.222656 20.945312 C 15.726562 18.535156 18.058594 16.914062 20.457031 17.308594 C 22.910156 17.714844 24.683594 20.136719 24.277344 22.519531 C 23.792969 25.355469 20.960938 27.132812 18.355469 26.246094 Z M 18.355469 26.246094 "/>
<path style=" stroke:none;fill-rule:nonzero;fill:rgb(57.254905%,60.392159%,63.529414%);fill-opacity:1;" d="M 21.839844 16.882812 C 23.503906 7.867188 12.648438 7.117188 6.644531 7.207031 L 6.984375 6.8125 L 7.371094 6.402344 L 7.800781 5.972656 L 8.136719 5.667969 L 9.40625 5.734375 C 13.398438 5.945312 17.058594 6.164062 19.996094 7.417969 C 24.675781 9.527344 27.300781 13.917969 26.121094 18.519531 C 25.832031 19.378906 25.292969 20.78125 25.089844 20.4375 C 24.292969 18.871094 23.316406 17.5 21.839844 16.882812 Z M 21.839844 16.882812 "/>
<path style=" stroke:none;fill-rule:nonzero;fill:rgb(57.254905%,60.392159%,63.529414%);fill-opacity:1;" d="M 3.855469 21.03125 C 6.007812 21.597656 8.269531 21.769531 10.042969 21.589844 C 12.425781 21.335938 14.554688 20.636719 14.574219 20.65625 C 14.59375 20.675781 14.425781 21.066406 14.367188 21.371094 C 14.097656 22.839844 14.480469 23.953125 15.644531 25.394531 C 14.753906 26.007812 12.722656 26.292969 10.714844 26.300781 C 9.050781 26.304688 7.410156 26.089844 6.457031 25.929688 C 5.21875 24.414062 4.371094 22.847656 3.855469 21.03125 Z M 3.855469 21.03125 "/>
<path style=" stroke:none;fill-rule:nonzero;fill:rgb(5.882353%,47.843137%,90.980393%);fill-opacity:1;" d="M 11.230469 13.035156 C 11.230469 13.777344 10.628906 14.378906 9.886719 14.378906 C 9.144531 14.378906 8.542969 13.777344 8.542969 13.035156 C 8.542969 12.292969 9.144531 11.691406 9.886719 11.691406 C 10.628906 11.691406 11.230469 12.292969 11.230469 13.035156 Z M 11.230469 13.035156 "/>
<path style=" stroke:none;fill-rule:nonzero;fill:rgb(5.882353%,47.843137%,90.980393%);fill-opacity:1;" d="M 16.386719 15.972656 C 16.386719 17.285156 15.324219 18.347656 14.011719 18.347656 C 12.699219 18.347656 11.636719 17.285156 11.636719 15.972656 C 11.636719 14.660156 12.699219 13.597656 14.011719 13.597656 C 15.324219 13.597656 16.386719 14.660156 16.386719 15.972656 Z M 16.386719 15.972656 "/>
</g>
</svg>
