
<svg xmlns="http://www.w3.org/2000/svg" xmlns:xlink="http://www.w3.org/1999/xlink" width="32px" height="32px" viewBox="0 0 32 32" version="1.1">
<g id="surface1">
<path style="fill-rule:nonzero;fill:rgb(100%,100%,100%);fill-opacity:1;stroke-width:28.191782;stroke-linecap:butt;stroke-linejoin:miter;stroke:rgb(24.705882%,14.509805%,33.333334%);stroke-opacity:1;stroke-miterlimit:4;" d="M 81.5 25.0625 L 430.5 25.0625 C 461.6875 25.0625 486.9375 50.3125 486.9375 81.5 L 486.9375 430.5 C 486.9375 461.6875 461.6875 486.9375 430.5 486.9375 L 81.5 486.9375 C 50.3125 486.9375 25.0625 461.6875 25.0625 430.5 L 25.0625 81.5 C 25.0625 50.3125 50.3125 25.0625 81.5 25.0625 Z M 81.5 25.0625 " transform="matrix(0.0625,0,0,0.0625,0,0)"/>
<path style=" stroke:none;fill-rule:nonzero;fill:rgb(66.666669%,80.000001%,100%);fill-opacity:0.976471;" d="M 24.738281 20.550781 C 24.738281 25.316406 20.871094 29.179688 16.105469 29.179688 C 11.339844 29.179688 7.472656 25.316406 7.472656 20.550781 C 7.472656 15.78125 12.683594 9.109375 16.105469 3.179688 C 19.621094 9.261719 24.738281 15.78125 24.738281 20.550781 Z M 24.738281 20.550781 "/>
<path style=" stroke:none;fill-rule:nonzero;fill:rgb(4.313726%,9.019608%,15.686275%);fill-opacity:0.921569;" d="M 6.425781 16.59375 C 6.296875 17.046875 6.191406 17.378906 6.191406 17.875 C 6.191406 20.710938 8.488281 23.007812 11.324219 23.007812 C 13.503906 23.007812 15.355469 21.644531 16.101562 19.730469 C 16.84375 21.648438 18.707031 23.007812 20.886719 23.007812 C 23.722656 23.007812 26.019531 20.710938 26.019531 17.875 C 26.019531 17.378906 25.917969 17.046875 25.785156 16.59375 C 19.332031 15.820312 12.878906 15.820312 6.425781 16.59375 Z M 6.425781 16.59375 "/>
<path style=" stroke:none;fill-rule:nonzero;fill:rgb(83.529413%,89.803922%,100%);fill-opacity:0.129412;" d="M 16.105469 16.011719 C 12.878906 16.011719 9.660156 16.207031 6.433594 16.59375 C 6.328125 16.949219 6.238281 17.230469 6.207031 17.578125 C 12.808594 16.726562 19.40625 16.726562 26.003906 17.578125 C 25.972656 17.230469 25.882812 16.949219 25.78125 16.59375 C 22.554688 16.207031 19.332031 16.011719 16.105469 16.011719 Z M 16.105469 16.011719 "/>
<path style=" stroke:none;fill-rule:nonzero;fill:rgb(63.921571%,14.509805%,61.176473%);fill-opacity:0.290196;" d="M 14.867188 16.953125 C 12.34375 16.996094 9.824219 17.160156 7.296875 17.449219 C 7.28125 17.59375 7.269531 17.734375 7.269531 17.886719 C 7.269531 20.066406 9.039062 21.839844 11.222656 21.839844 C 13.402344 21.839844 15.175781 20.066406 15.175781 17.886719 C 15.175781 17.558594 15.128906 17.253906 15.054688 16.953125 C 14.992188 16.953125 14.929688 16.953125 14.867188 16.953125 Z M 14.867188 16.953125 "/>
<path style=" stroke:none;fill-rule:nonzero;fill:rgb(63.921571%,14.509805%,61.176473%);fill-opacity:0.290196;" d="M 17.085938 16.953125 C 17.011719 17.253906 16.96875 17.558594 16.96875 17.886719 C 16.96875 20.066406 18.730469 21.839844 20.910156 21.839844 C 23.09375 21.839844 24.863281 20.066406 24.863281 17.886719 C 24.863281 17.730469 24.851562 17.589844 24.835938 17.4375 C 22.253906 17.144531 19.671875 16.988281 17.085938 16.953125 Z M 17.085938 16.953125 "/>
</g>
</svg>
