
<svg xmlns="http://www.w3.org/2000/svg" xmlns:xlink="http://www.w3.org/1999/xlink" width="32px" height="32px" viewBox="0 0 32 32" version="1.1">
<g id="surface1">
<path style="fill-rule:nonzero;fill:rgb(100%,100%,100%);fill-opacity:1;stroke-width:28.191782;stroke-linecap:butt;stroke-linejoin:miter;stroke:rgb(82.745099%,34.901962%,30.19608%);stroke-opacity:1;stroke-miterlimit:4;" d="M 81.5 25.0625 L 430.5 25.0625 C 461.6875 25.0625 486.9375 50.3125 486.9375 81.5 L 486.9375 430.5 C 486.9375 461.6875 461.6875 486.9375 430.5 486.9375 L 81.5 486.9375 C 50.3125 486.9375 25.0625 461.6875 25.0625 430.5 L 25.0625 81.5 C 25.0625 50.3125 50.3125 25.0625 81.5 25.0625 Z M 81.5 25.0625 " transform="matrix(0.0625,0,0,0.0625,0,0)"/>
<path style=" stroke:none;fill-rule:nonzero;fill:rgb(96.470588%,27.843139%,27.843139%);fill-opacity:0.996078;" d="M 16 3.980469 C 16 3.980469 4.558594 26.863281 3.980469 28.019531 C 16 17.203125 15.988281 28.019531 28.019531 28.019531 C 27.707031 27.410156 16 3.980469 16 3.980469 Z M 16 3.980469 "/>
<path style=" stroke:none;fill-rule:nonzero;fill:rgb(0%,0%,0%);fill-opacity:0.301961;" d="M 13.84375 19.605469 C 10.539062 19.605469 4.269531 27.441406 3.980469 28.019531 C 16 17.203125 15.988281 28.019531 28.019531 28.019531 C 27.863281 27.714844 27.417969 26.832031 27.417969 26.832031 C 20.933594 26.785156 18.214844 19.605469 13.84375 19.605469 Z M 13.84375 19.605469 "/>
<path style=" stroke:none;fill-rule:nonzero;fill:rgb(0%,0%,0%);fill-opacity:0.301961;" d="M 13.089844 22.613281 C 10.921875 22.542969 8.34375 23.613281 4.511719 26.957031 C 4.445312 27.089844 4.003906 27.96875 3.980469 28.019531 C 16 17.203125 15.988281 28.019531 28.019531 28.019531 C 28.011719 28.003906 27.738281 27.457031 27.714844 27.410156 C 20.058594 27.289062 17.355469 22.757812 13.089844 22.613281 Z M 13.089844 22.613281 "/>
</g>
</svg>
