
<svg xmlns="http://www.w3.org/2000/svg" xmlns:xlink="http://www.w3.org/1999/xlink" width="32px" height="32px" viewBox="0 0 32 32" version="1.1">
<g id="surface1">
<path style="fill-rule:nonzero;fill:rgb(100%,100%,100%);fill-opacity:1;stroke-width:28.191782;stroke-linecap:butt;stroke-linejoin:miter;stroke:rgb(6.27451%,63.137257%,61.960787%);stroke-opacity:1;stroke-miterlimit:4;" d="M 81.5 25.0625 L 430.5 25.0625 C 461.6875 25.0625 486.9375 50.3125 486.9375 81.5 L 486.9375 430.5 C 486.9375 461.6875 461.6875 486.9375 430.5 486.9375 L 81.5 486.9375 C 50.3125 486.9375 25.0625 461.6875 25.0625 430.5 L 25.0625 81.5 C 25.0625 50.3125 50.3125 25.0625 81.5 25.0625 Z M 81.5 25.0625 " transform="matrix(0.0625,0,0,0.0625,0,0)"/>
<path style=" stroke:none;fill-rule:nonzero;fill:rgb(92.54902%,20.784314%,50.196081%);fill-opacity:1;" d="M 20.375 8.585938 C 20.375 11.050781 18.375 13.050781 15.910156 13.050781 C 13.445312 13.050781 11.449219 11.050781 11.449219 8.585938 C 11.449219 6.121094 13.445312 4.121094 15.910156 4.121094 C 18.375 4.121094 20.375 6.121094 20.375 8.585938 Z M 20.375 8.585938 "/>
<path style=" stroke:none;fill-rule:nonzero;fill:rgb(95.686275%,53.333336%,20.784314%);fill-opacity:1;" d="M 12.441406 14.289062 C 12.441406 16.753906 10.441406 18.753906 7.976562 18.753906 C 5.511719 18.753906 3.511719 16.753906 3.511719 14.289062 C 3.511719 11.824219 5.511719 9.824219 7.976562 9.824219 C 10.441406 9.824219 12.441406 11.824219 12.441406 14.289062 Z M 12.441406 14.289062 "/>
<path style=" stroke:none;fill-rule:nonzero;fill:rgb(50.980395%,79.607844%,30.19608%);fill-opacity:1;" d="M 15.414062 23.628906 C 15.414062 26.09375 13.417969 28.089844 10.949219 28.089844 C 8.488281 28.089844 6.488281 26.09375 6.488281 23.628906 C 6.488281 21.160156 8.488281 19.164062 10.949219 19.164062 C 13.417969 19.164062 15.414062 21.160156 15.414062 23.628906 Z M 15.414062 23.628906 "/>
<path style=" stroke:none;fill-rule:nonzero;fill:rgb(0%,74.117649%,89.803922%);fill-opacity:1;" d="M 25.25 23.542969 C 25.25 26.011719 23.253906 28.007812 20.785156 28.007812 C 18.320312 28.007812 16.324219 26.011719 16.324219 23.542969 C 16.324219 21.082031 18.320312 19.082031 20.785156 19.082031 C 23.253906 19.082031 25.25 21.082031 25.25 23.542969 Z M 25.25 23.542969 "/>
<path style=" stroke:none;fill-rule:nonzero;fill:rgb(50.196081%,29.803923%,68.235296%);fill-opacity:1;" d="M 28.226562 14.289062 C 28.226562 16.753906 26.226562 18.753906 23.761719 18.753906 C 21.296875 18.753906 19.300781 16.753906 19.300781 14.289062 C 19.300781 11.824219 21.296875 9.824219 23.761719 9.824219 C 26.226562 9.824219 28.226562 11.824219 28.226562 14.289062 Z M 28.226562 14.289062 "/>
</g>
</svg>
