
<svg xmlns="http://www.w3.org/2000/svg" xmlns:xlink="http://www.w3.org/1999/xlink" width="32px" height="32px" viewBox="0 0 32 32" version="1.1">
<defs>
<linearGradient id="linear0" gradientUnits="userSpaceOnUse" x1="16" y1="48" x2="80" y2="48" gradientTransform="matrix(0,-0.318856,0.318856,0,0.696082,31.305087)">
<stop offset="0" style="stop-color:rgb(1.960784%,1.960784%,1.960784%);stop-opacity:1;"/>
<stop offset="1" style="stop-color:rgb(9.803922%,9.803922%,9.803922%);stop-opacity:1;"/>
</linearGradient>
</defs>
<g id="surface1">
<path style="fill-rule:nonzero;fill:rgb(100%,100%,100%);fill-opacity:1;stroke-width:2.589041;stroke-linecap:butt;stroke-linejoin:miter;stroke:rgb(35.294119%,37.64706%,41.960785%);stroke-opacity:1;stroke-miterlimit:4;" d="M 7.974609 2.794922 L 40.025391 2.794922 C 42.884766 2.794922 45.205078 5.115234 45.205078 7.974609 L 45.205078 40.025391 C 45.205078 42.884766 42.884766 45.205078 40.025391 45.205078 L 7.974609 45.205078 C 5.115234 45.205078 2.794922 42.884766 2.794922 40.025391 L 2.794922 7.974609 C 2.794922 5.115234 5.115234 2.794922 7.974609 2.794922 Z M 7.974609 2.794922 " transform="matrix(0.666667,0,0,0.666667,0,0)"/>
<path style=" stroke:none;fill-rule:nonzero;fill:url(#linear0);" d="M 16 5.796875 C 21.636719 5.796875 26.203125 10.363281 26.203125 16 C 26.203125 21.636719 21.636719 26.203125 16 26.203125 C 10.363281 26.203125 5.796875 21.636719 5.796875 16 C 5.796875 10.363281 10.363281 5.796875 16 5.796875 Z M 16 5.796875 "/>
<path style=" stroke:none;fill-rule:nonzero;fill:rgb(80.000001%,80.000001%,80.000001%);fill-opacity:1;" d="M 16.003906 11.367188 C 15.039062 11.410156 13.328125 11.375 12.660156 12.160156 C 12.253906 12.640625 12.445312 13.757812 13.066406 13.871094 C 13.84375 14.019531 15.152344 13.660156 15.996094 13.746094 C 16.582031 13.808594 16.761719 14.28125 16.285156 14.605469 C 15.777344 14.953125 14.628906 14.855469 14.050781 15.027344 C 12.046875 15.628906 11.332031 16.902344 11.820312 18.628906 C 12.140625 19.753906 13.265625 20.589844 14.5 20.636719 C 16.875 20.632812 16.4375 19.433594 17.589844 20.058594 C 17.964844 20.496094 18.730469 20.640625 19.125 20.332031 C 19.761719 19.839844 20.710938 19.570312 20.035156 18.558594 C 19.714844 18.078125 20.472656 17.453125 20.304688 15.046875 C 20.144531 12.769531 18.597656 11.253906 16.003906 11.367188 Z M 16.164062 16.527344 C 16.699219 16.527344 17.125 16.902344 17.125 17.367188 C 17.125 17.832031 16.699219 18.207031 16.164062 18.207031 C 15.628906 18.207031 15.191406 17.832031 15.191406 17.367188 C 15.191406 16.902344 15.628906 16.527344 16.164062 16.527344 Z M 16.164062 16.527344 "/>
</g>
</svg>
