
<svg xmlns="http://www.w3.org/2000/svg" xmlns:xlink="http://www.w3.org/1999/xlink" width="32px" height="32px" viewBox="0 0 32 32" version="1.1">
<g id="surface1">
<path style="fill-rule:nonzero;fill:rgb(100%,100%,100%);fill-opacity:1;stroke-width:28.191782;stroke-linecap:butt;stroke-linejoin:miter;stroke:rgb(16.078432%,50.196081%,72.549021%);stroke-opacity:1;stroke-miterlimit:4;" d="M 81.5 25.0625 L 430.5 25.0625 C 461.6875 25.0625 486.9375 50.3125 486.9375 81.5 L 486.9375 430.5 C 486.9375 461.6875 461.6875 486.9375 430.5 486.9375 L 81.5 486.9375 C 50.3125 486.9375 25.0625 461.6875 25.0625 430.5 L 25.0625 81.5 C 25.0625 50.3125 50.3125 25.0625 81.5 25.0625 Z M 81.5 25.0625 " transform="matrix(0.0625,0,0,0.0625,0,0)"/>
<path style=" stroke:none;fill-rule:nonzero;fill:rgb(100%,78.431374%,19.215687%);fill-opacity:1;" d="M 14.246094 25.371094 C 13.667969 23.332031 13.136719 21.511719 13.066406 21.332031 C 12.914062 20.945312 12.699219 20.894531 12.621094 21.226562 C 12.558594 21.488281 11.648438 27.308594 11.644531 27.464844 C 11.636719 27.699219 11.457031 27.304688 10.730469 25.449219 L 9.980469 23.539062 L 9.984375 21.871094 L 9.992188 20.203125 L 10.449219 21.441406 C 10.699219 22.121094 10.949219 22.742188 11.003906 22.816406 C 11.183594 23.070312 11.320312 22.910156 11.433594 22.316406 C 11.550781 21.707031 12.15625 16.992188 12.261719 15.875 C 12.292969 15.523438 12.347656 15.230469 12.386719 15.230469 C 12.417969 15.230469 12.707031 16.148438 13.023438 17.265625 C 13.699219 19.644531 14.683594 22.792969 14.808594 22.964844 C 14.925781 23.128906 15.058594 23.117188 15.167969 22.929688 C 15.246094 22.796875 16.203125 17.164062 16.578125 14.644531 L 16.703125 13.808594 L 16.820312 14.191406 C 16.886719 14.402344 17.265625 15.746094 17.667969 17.179688 C 18.777344 21.160156 18.867188 21.417969 19.105469 21.417969 C 19.171875 21.417969 19.246094 21.363281 19.273438 21.296875 C 19.351562 21.105469 19.574219 19.757812 19.886719 17.628906 C 20.046875 16.558594 20.203125 15.628906 20.238281 15.558594 C 20.285156 15.472656 20.480469 15.875 20.839844 16.785156 L 21.367188 18.144531 L 21.355469 21.316406 L 21.097656 20.632812 C 20.828125 19.929688 20.691406 19.738281 20.542969 19.859375 C 20.457031 19.925781 20.210938 21.246094 19.660156 24.617188 C 19.308594 26.738281 19.234375 27.121094 19.183594 27.011719 C 19.164062 26.976562 18.777344 25.425781 18.320312 23.574219 C 17.304688 19.457031 17.308594 19.472656 17.144531 19.425781 C 16.863281 19.34375 16.925781 19.027344 16.097656 24.476562 C 15.730469 26.867188 15.402344 28.878906 15.363281 28.949219 C 15.324219 29.027344 14.90625 27.699219 14.246094 25.371094 Z M 14.246094 25.371094 "/>
<path style=" stroke:none;fill-rule:nonzero;fill:rgb(16.078432%,50.196081%,72.549021%);fill-opacity:1;" d="M 15.988281 3.046875 C 14.742188 3.042969 13.5 3.246094 12.25 3.660156 C 8.496094 4.898438 5.75 7.925781 4.71875 11.953125 C 4.335938 13.441406 4.328125 13.582031 4.335938 17.902344 C 4.339844 21.519531 4.347656 21.832031 4.457031 22.355469 C 4.835938 24.222656 6.058594 25.6875 7.792969 26.410156 C 7.980469 26.488281 8.175781 26.566406 8.375 26.625 C 8.449219 26.648438 8.542969 26.660156 8.617188 26.691406 C 8.785156 26.761719 8.929688 26.855469 8.996094 26.917969 C 9.496094 27.347656 10.347656 26.578125 10.515625 26.101562 C 10.519531 26.089844 10.527344 25.914062 10.53125 25.714844 C 10.480469 25.425781 10.449219 25.125 10.449219 24.820312 L 10.488281 17.285156 C 10.488281 16.921875 10.527344 16.570312 10.601562 16.230469 L 10.484375 16.125 C 10.246094 15.902344 10.484375 15.425781 9.976562 15.421875 C 9.558594 15.421875 9.457031 15.441406 9.128906 15.605469 C 8.925781 15.707031 8.566406 15.84375 8.332031 15.910156 C 7.699219 16.09375 6.945312 16.5 6.371094 16.960938 C 6.089844 17.191406 5.847656 17.375 5.832031 17.375 C 5.8125 17.375 5.804688 16.761719 5.816406 16.015625 L 5.832031 14.652344 L 6.003906 14.636719 C 6.101562 14.625 6.175781 14.582031 6.199219 14.5625 C 6.21875 14.542969 6.300781 14.234375 6.355469 13.863281 C 7.054688 8.917969 9.964844 5.824219 14.582031 5.105469 C 15.449219 4.972656 17.066406 4.972656 17.828125 5.105469 C 20.746094 5.621094 23.304688 7.570312 24.675781 10.324219 C 25.269531 11.511719 25.566406 12.523438 25.71875 13.921875 C 25.769531 14.386719 25.808594 14.507812 25.867188 14.558594 C 25.890625 14.582031 25.902344 14.605469 25.941406 14.609375 C 26.214844 14.644531 26.230469 14.738281 26.226562 16.027344 C 26.226562 16.6875 26.203125 17.265625 26.175781 17.3125 C 26.132812 17.378906 26.046875 17.328125 25.769531 17.074219 C 25.253906 16.609375 24.511719 16.191406 23.816406 15.972656 C 23.484375 15.867188 23.074219 15.714844 22.902344 15.636719 C 22.304688 15.347656 21.832031 15.210938 21.464844 15.554688 L 21.285156 15.722656 L 21.285156 15.75 C 21.347656 16.0625 21.378906 16.386719 21.378906 16.714844 L 21.378906 25.460938 C 21.378906 25.738281 21.355469 26.007812 21.3125 26.269531 C 21.324219 26.558594 21.339844 26.707031 21.367188 26.761719 C 21.410156 26.839844 21.570312 26.96875 21.726562 27.046875 C 21.957031 27.160156 21.644531 27.222656 22.035156 27.222656 C 22.550781 27.222656 22.722656 27.109375 22.992188 26.886719 C 23.035156 26.847656 23.277344 26.753906 23.417969 26.6875 C 23.550781 26.628906 23.714844 26.601562 23.871094 26.550781 C 24.746094 26.253906 25.328125 25.886719 26.023438 25.1875 C 26.714844 24.492188 27.085938 23.910156 27.394531 23.035156 C 27.847656 21.476562 27.613281 19.753906 27.621094 18.136719 C 27.640625 13.417969 27.636719 13.324219 27.285156 11.894531 C 26.761719 9.757812 25.71875 7.910156 24.171875 6.386719 C 22.917969 5.152344 21.414062 4.230469 19.761719 3.683594 C 18.492188 3.261719 17.238281 3.050781 15.988281 3.046875 Z M 15.988281 3.046875 "/>
</g>
</svg>
