
<svg xmlns="http://www.w3.org/2000/svg" xmlns:xlink="http://www.w3.org/1999/xlink" width="32px" height="32px" viewBox="0 0 32 32" version="1.1">
<g id="surface1">
<path style="fill-rule:nonzero;fill:rgb(0%,40.000001%,50.196081%);fill-opacity:1;stroke-width:7.07023;stroke-linecap:butt;stroke-linejoin:miter;stroke:rgb(16.862746%,65.882355%,92.156863%);stroke-opacity:1;stroke-miterlimit:4;" d="M 21.015625 5.765625 L 108.5625 5.765625 C 116.375 5.765625 122.703125 12.078125 122.703125 19.890625 L 122.703125 107.4375 C 122.703125 115.234375 116.375 121.578125 108.5625 121.578125 L 21.015625 121.578125 C 13.21875 121.578125 6.890625 115.234375 6.890625 107.4375 L 6.890625 19.890625 C 6.890625 12.078125 13.21875 5.765625 21.015625 5.765625 Z M 21.015625 5.765625 " transform="matrix(0.25,0,0,0.25,0,0)"/>
<path style="fill:none;stroke-width:1.68575;stroke-linecap:butt;stroke-linejoin:round;stroke:rgb(33.333334%,86.666667%,100%);stroke-opacity:1;stroke-miterlimit:4;" d="M 9.890625 66.53125 L 32.09375 66.53125 L 35.703125 28.609375 L 37.515625 80.46875 L 39.328125 46.609375 L 42.9375 110.34375 L 46.546875 19.109375 L 48.65625 98.390625 L 50.171875 46.609375 L 52.1875 60.5625 L 55.578125 32.671875 L 57.390625 102.375 L 59.203125 50.609375 L 62.765625 80.46875 L 64.625 54.578125 L 66.421875 66.53125 L 66.421875 29.96875 L 70.046875 84.453125 L 73.65625 54.578125 L 75.46875 66.53125 L 119.140625 66.53125 " transform="matrix(0.25,0,0,0.25,0,0)"/>
</g>
</svg>
