
<svg xmlns="http://www.w3.org/2000/svg" xmlns:xlink="http://www.w3.org/1999/xlink" width="32px" height="32px" viewBox="0 0 32 32" version="1.1">
<g id="surface1">
<path style="fill-rule:nonzero;fill:rgb(100%,100%,100%);fill-opacity:1;stroke-width:28.191782;stroke-linecap:butt;stroke-linejoin:miter;stroke:rgb(41.568628%,36.470589%,36.470589%);stroke-opacity:1;stroke-miterlimit:4;" d="M 115.47596 59.118594 L 464.523467 59.118594 C 495.675781 59.118594 520.880834 84.323647 520.880834 115.47596 L 520.880834 464.523467 C 520.880834 495.675781 495.675781 520.880834 464.523467 520.880834 L 115.47596 520.880834 C 84.323647 520.880834 59.118594 495.675781 59.118594 464.523467 L 59.118594 115.47596 C 59.118594 84.323647 84.323647 59.118594 115.47596 59.118594 Z M 115.47596 59.118594 " transform="matrix(0.0551725,0,0,0.0551725,0,0)"/>
<path style=" stroke:none;fill-rule:evenodd;fill:rgb(26.274511%,31.37255%,36.078432%);fill-opacity:1;" d="M 21.683594 7.230469 C 22.238281 7.230469 22.6875 7.796875 22.6875 8.496094 L 22.6875 24.402344 C 22.6875 25.097656 22.238281 25.667969 21.683594 25.667969 C 21.132812 25.667969 20.683594 25.097656 20.683594 24.402344 L 20.683594 8.496094 C 20.683594 7.796875 21.132812 7.230469 21.683594 7.230469 Z M 21.683594 7.230469 "/>
<path style=" stroke:none;fill-rule:nonzero;fill:rgb(100%,33.333334%,33.333334%);fill-opacity:1;" d="M 24.394531 12.296875 C 24.394531 13.730469 23.234375 14.890625 21.800781 14.890625 C 20.371094 14.890625 19.207031 13.730469 19.207031 12.296875 C 19.207031 10.863281 20.371094 9.703125 21.800781 9.703125 C 23.234375 9.703125 24.394531 10.863281 24.394531 12.296875 Z M 24.394531 12.296875 "/>
<path style=" stroke:none;fill-rule:evenodd;fill:rgb(26.274511%,31.37255%,36.078432%);fill-opacity:1;" d="M 16.289062 7.230469 C 16.839844 7.230469 17.292969 7.796875 17.292969 8.496094 L 17.292969 24.402344 C 17.292969 25.097656 16.839844 25.667969 16.289062 25.667969 C 15.738281 25.667969 15.285156 25.097656 15.285156 24.402344 L 15.285156 8.496094 C 15.285156 7.796875 15.738281 7.230469 16.289062 7.230469 Z M 16.289062 7.230469 "/>
<path style=" stroke:none;fill-rule:nonzero;fill:rgb(100%,33.333334%,33.333334%);fill-opacity:1;" d="M 18.839844 17.964844 C 18.839844 19.394531 17.683594 20.554688 16.25 20.554688 C 14.816406 20.554688 13.65625 19.394531 13.65625 17.964844 C 13.65625 16.53125 14.816406 15.371094 16.25 15.371094 C 17.683594 15.371094 18.839844 16.53125 18.839844 17.964844 Z M 18.839844 17.964844 "/>
<path style=" stroke:none;fill-rule:evenodd;fill:rgb(26.274511%,31.37255%,36.078432%);fill-opacity:1;" d="M 10.882812 7.230469 C 11.433594 7.230469 11.886719 7.796875 11.886719 8.496094 L 11.886719 24.402344 C 11.886719 25.097656 11.433594 25.667969 10.882812 25.667969 C 10.332031 25.667969 9.878906 25.097656 9.878906 24.402344 L 9.878906 8.496094 C 9.878906 7.796875 10.332031 7.230469 10.882812 7.230469 Z M 10.882812 7.230469 "/>
<path style=" stroke:none;fill-rule:nonzero;fill:rgb(100%,33.333334%,33.333334%);fill-opacity:1;" d="M 13.433594 10.667969 C 13.433594 12.097656 12.273438 13.257812 10.84375 13.257812 C 9.410156 13.257812 8.25 12.097656 8.25 10.667969 C 8.25 9.234375 9.410156 8.074219 10.84375 8.074219 C 12.273438 8.074219 13.433594 9.234375 13.433594 10.667969 Z M 13.433594 10.667969 "/>
</g>
</svg>
