
<svg xmlns="http://www.w3.org/2000/svg" xmlns:xlink="http://www.w3.org/1999/xlink" width="32px" height="32px" viewBox="0 0 32 32" version="1.1">
<g id="surface1">
<path style="fill-rule:nonzero;fill:rgb(100%,100%,100%);fill-opacity:1;stroke-width:23.5;stroke-linecap:butt;stroke-linejoin:miter;stroke:rgb(0%,0%,0%);stroke-opacity:1;stroke-miterlimit:4;" d="M 87.125 23.875 L 427.0625 23.875 C 460.8125 23.875 488.125 51.1875 488.125 84.9375 L 488.125 431.375 C 488.125 465.125 460.8125 492.4375 427.0625 492.4375 L 87.125 492.4375 C 53.375 492.4375 26.0625 465.125 26.0625 431.375 L 26.0625 84.9375 C 26.0625 51.1875 53.375 23.875 87.125 23.875 Z M 87.125 23.875 " transform="matrix(0.0625,0,0,0.0625,0,0)"/>
<path style=" stroke:none;fill-rule:nonzero;fill:rgb(20.784314%,30.588236%,34.901962%);fill-opacity:1;" d="M 6.089844 17.855469 L 26.035156 17.855469 C 27.144531 17.855469 28.042969 18.613281 28.042969 19.546875 L 28.042969 24.125 C 28.042969 25.058594 27.144531 25.816406 26.035156 25.816406 L 6.089844 25.816406 C 4.976562 25.816406 4.078125 25.058594 4.078125 24.125 L 4.078125 19.546875 C 4.078125 18.613281 4.976562 17.855469 6.089844 17.855469 Z M 6.089844 17.855469 "/>
<path style="fill-rule:nonzero;fill:rgb(60.784316%,81.568629%,94.117647%);fill-opacity:1;stroke-width:0.75;stroke-linecap:butt;stroke-linejoin:miter;stroke:rgb(0%,0%,0%);stroke-opacity:1;stroke-miterlimit:4;" d="M -26.263445 -1131.673099 L 35.341475 -1082.644331 L 88.926819 -1099.503666 L 102.778813 -1163.204611 L 11.465012 -1150.901853 Z M -26.263445 -1131.673099 " transform="matrix(0.0428639,0,0,0.0428639,12.254659,60.394602)"/>
<path style="fill-rule:nonzero;fill:rgb(60.784316%,81.568629%,94.117647%);fill-opacity:1;stroke-width:0.75;stroke-linecap:butt;stroke-linejoin:miter;stroke:rgb(0%,0%,0%);stroke-opacity:1;stroke-miterlimit:4;" d="M 35.341475 -1082.644331 L 35.341475 -1043.548901 L -19.975369 -1011.652863 L -49.046329 -1127.116522 L -16.056712 -1123.288997 Z M 35.341475 -1082.644331 " transform="matrix(0.0428639,0,0,0.0428639,12.254659,60.394602)"/>
<path style="fill-rule:nonzero;fill:rgb(60.784316%,81.568629%,94.117647%);fill-opacity:1;stroke-width:0.75;stroke-linecap:butt;stroke-linejoin:miter;stroke:rgb(0%,0%,0%);stroke-opacity:1;stroke-miterlimit:4;" d="M 35.341475 -1043.548901 L 107.791048 -1024.137884 L 105.057101 -961.439386 L -28.35947 -956.882809 L -41.39128 -994.429003 L -32.186995 -1005.911576 Z M 35.341475 -1043.548901 " transform="matrix(0.0428639,0,0,0.0428639,12.254659,60.394602)"/>
<path style=" stroke:none;fill-rule:nonzero;fill:rgb(16.862746%,60.392159%,85.09804%);fill-opacity:1;" d="M 18.394531 3.574219 L 9.652344 8.785156 L 9.652344 20.59375 L 18.394531 24.222656 Z M 15.695312 11.246094 L 15.695312 17.574219 L 12.347656 16.460938 L 12.347656 12.84375 Z M 15.695312 11.246094 "/>
<path style="fill-rule:nonzero;fill:rgb(60.784316%,81.568629%,94.117647%);fill-opacity:1;stroke-width:0.75;stroke-linecap:butt;stroke-linejoin:miter;stroke:rgb(0%,0%,0%);stroke-opacity:1;stroke-miterlimit:4;" d="M 143.605742 -1325.418748 L 212.956842 -1251.602202 L 212.956842 -874.135373 L 143.605742 -843.697439 Z M 143.605742 -1325.418748 " transform="matrix(0.0428639,0,0,0.0428639,12.254659,60.394602)"/>
</g>
</svg>
