
<svg xmlns="http://www.w3.org/2000/svg" xmlns:xlink="http://www.w3.org/1999/xlink" width="32px" height="32px" viewBox="0 0 32 32" version="1.1">
<g id="surface1">
<path style="fill-rule:nonzero;fill:rgb(20.392157%,39.607844%,64.313728%);fill-opacity:1;stroke-width:7.019179;stroke-linecap:butt;stroke-linejoin:miter;stroke:rgb(33.333334%,34.117648%,32.549021%);stroke-opacity:1;stroke-miterlimit:4;" d="M 20.046875 7.015625 L 106.953125 7.015625 C 114.703125 7.015625 120.984375 13.296875 120.984375 21.046875 L 120.984375 107.953125 C 120.984375 115.703125 114.703125 121.984375 106.953125 121.984375 L 20.046875 121.984375 C 12.296875 121.984375 6.015625 115.703125 6.015625 107.953125 L 6.015625 21.046875 C 6.015625 13.296875 12.296875 7.015625 20.046875 7.015625 Z M 20.046875 7.015625 " transform="matrix(0.25,0,0,0.25,0,0)"/>
<path style=" stroke:none;fill-rule:nonzero;fill:rgb(33.333334%,34.117648%,32.549021%);fill-opacity:1;" d="M 6 25.351562 L 25.75 25.351562 C 27.820312 25.351562 29.5 26.335938 29.5 27.550781 C 29.5 28.765625 27.820312 29.75 25.75 29.75 L 6 29.75 C 3.929688 29.75 2.25 28.765625 2.25 27.550781 C 2.25 26.335938 3.929688 25.351562 6 25.351562 Z M 6 25.351562 "/>
<path style=" stroke:none;fill-rule:nonzero;fill:rgb(33.333334%,34.117648%,32.549021%);fill-opacity:1;" d="M 2.246094 24.589844 L 29.496094 24.589844 L 29.496094 27.558594 L 2.246094 27.558594 Z M 2.246094 24.589844 "/>
<path style=" stroke:none;fill-rule:nonzero;fill:rgb(93.333334%,93.333334%,92.54902%);fill-opacity:1;" d="M 3.964844 21.148438 L 8.964844 21.148438 L 8.964844 26.140625 L 3.964844 26.140625 Z M 3.964844 21.148438 "/>
<path style=" stroke:none;fill-rule:nonzero;fill:rgb(93.333334%,93.333334%,92.54902%);fill-opacity:1;" d="M 10.160156 18.167969 L 15.160156 18.167969 L 15.160156 23.160156 L 10.160156 23.160156 Z M 10.160156 18.167969 "/>
<path style=" stroke:none;fill-rule:nonzero;fill:rgb(93.333334%,93.333334%,92.54902%);fill-opacity:1;" d="M 16.527344 21.199219 L 21.527344 21.199219 L 21.527344 26.191406 L 16.527344 26.191406 Z M 16.527344 21.199219 "/>
<path style=" stroke:none;fill-rule:nonzero;fill:rgb(93.333334%,93.333334%,92.54902%);fill-opacity:1;" d="M 22.839844 21.191406 L 27.839844 21.191406 L 27.839844 26.183594 L 22.839844 26.183594 Z M 22.839844 21.191406 "/>
</g>
</svg>
