
<svg xmlns="http://www.w3.org/2000/svg" xmlns:xlink="http://www.w3.org/1999/xlink" width="32px" height="32px" viewBox="0 0 32 32" version="1.1">
<g id="surface1">
<path style="fill-rule:nonzero;fill:rgb(100%,100%,100%);fill-opacity:1;stroke-width:28.191782;stroke-linecap:butt;stroke-linejoin:miter;stroke:rgb(6.27451%,40.784314%,63.137257%);stroke-opacity:1;stroke-miterlimit:4;" d="M 81.5 25.0625 L 430.5 25.0625 C 461.6875 25.0625 486.9375 50.3125 486.9375 81.5 L 486.9375 430.5 C 486.9375 461.6875 461.6875 486.9375 430.5 486.9375 L 81.5 486.9375 C 50.3125 486.9375 25.0625 461.6875 25.0625 430.5 L 25.0625 81.5 C 25.0625 50.3125 50.3125 25.0625 81.5 25.0625 Z M 81.5 25.0625 " transform="matrix(0.0625,0,0,0.0625,0,0)"/>
<path style=" stroke:none;fill-rule:nonzero;fill:rgb(5.882353%,36.078432%,83.92157%);fill-opacity:1;" d="M 17.800781 27.925781 C 17.726562 27.910156 17.300781 27.726562 16.863281 27.515625 C 15.714844 26.96875 15.253906 26.863281 14.050781 26.863281 C 12.230469 26.863281 11.871094 26.707031 11.042969 25.554688 C 10.765625 25.171875 10.734375 25.144531 10.371094 25.019531 C 9.707031 24.792969 9.121094 24.300781 8.824219 23.722656 C 8.679688 23.433594 8.652344 23.226562 8.714844 22.84375 C 8.753906 22.605469 8.746094 22.582031 8.644531 22.582031 C 8.402344 22.582031 7.921875 22.351562 7.675781 22.113281 C 7.398438 21.839844 7.15625 21.371094 7.117188 21.019531 L 7.089844 20.792969 L 6.535156 20.816406 C 5.707031 20.851562 5.1875 20.699219 4.734375 20.289062 C 4.414062 20.003906 4.253906 19.628906 4.253906 19.175781 C 4.253906 18.863281 4.273438 18.785156 4.40625 18.601562 C 4.492188 18.484375 4.605469 18.347656 4.664062 18.304688 C 4.824219 18.175781 5.167969 17.609375 5.292969 17.277344 C 5.355469 17.113281 5.46875 16.675781 5.542969 16.308594 C 5.621094 15.941406 5.746094 15.511719 5.824219 15.351562 C 6.074219 14.835938 6.691406 14.511719 7.441406 14.507812 C 8.003906 14.503906 8.339844 14.621094 8.640625 14.933594 C 8.773438 15.066406 8.914062 15.175781 8.953125 15.175781 C 9.007812 15.175781 9.277344 14.726562 9.453125 14.339844 C 9.464844 14.320312 9.386719 14.253906 9.285156 14.191406 C 9.050781 14.054688 8.96875 13.878906 8.96875 13.527344 C 8.96875 12.886719 9.308594 12.582031 10.523438 12.128906 C 10.914062 11.984375 10.980469 11.933594 11.21875 11.636719 C 11.667969 11.074219 12.214844 10.164062 12.933594 8.785156 C 13.308594 8.0625 13.746094 7.246094 13.898438 6.972656 C 14.054688 6.695312 14.292969 6.175781 14.425781 5.816406 C 14.765625 4.917969 14.855469 4.839844 15.863281 4.566406 C 17.574219 4.09375 18.066406 4.015625 18.761719 4.101562 C 19.945312 4.25 20.589844 4.714844 21.121094 5.824219 C 21.570312 6.75 21.660156 7.316406 21.503906 8.183594 C 21.460938 8.425781 21.425781 8.957031 21.421875 9.363281 C 21.417969 10.171875 21.335938 10.699219 21.144531 11.070312 C 21.078125 11.199219 20.722656 11.605469 20.359375 11.96875 C 19.992188 12.332031 19.621094 12.734375 19.535156 12.863281 L 19.378906 13.09375 L 19.472656 13.449219 C 19.605469 13.941406 19.890625 14.519531 20.128906 14.785156 C 20.238281 14.902344 20.488281 15.121094 20.683594 15.261719 C 20.9375 15.449219 21.128906 15.660156 21.367188 16.003906 C 21.828125 16.675781 22.214844 16.929688 22.859375 16.976562 C 23.222656 17.003906 23.230469 17 23.417969 16.816406 C 23.617188 16.613281 23.683594 16.4375 23.789062 15.808594 C 23.851562 15.4375 23.847656 15.398438 23.738281 15.183594 C 23.523438 14.777344 23.589844 14.621094 24.042969 14.445312 C 24.511719 14.265625 25.042969 14.371094 25.042969 14.640625 C 25.042969 14.707031 24.894531 14.960938 24.714844 15.210938 C 24.3125 15.761719 24.054688 16.289062 24.054688 16.558594 C 24.054688 16.941406 24.515625 17.269531 24.917969 17.175781 C 25.242188 17.097656 25.628906 16.851562 26.027344 16.46875 C 26.496094 16.023438 26.730469 15.917969 27.132812 15.964844 C 27.527344 16.011719 27.730469 16.132812 27.730469 16.324219 C 27.730469 16.703125 27.324219 16.941406 26.441406 17.070312 C 25.660156 17.183594 25.355469 17.324219 24.949219 17.761719 C 24.332031 18.425781 24.195312 18.542969 23.8125 18.722656 C 23.246094 18.988281 22.550781 19.097656 21.753906 19.042969 C 20.832031 18.980469 20.5 18.988281 20.132812 19.097656 C 19.675781 19.230469 19.097656 19.238281 18.972656 19.113281 C 18.839844 18.984375 18.914062 18.863281 19.230469 18.699219 C 19.457031 18.578125 19.519531 18.574219 20.097656 18.597656 C 20.828125 18.636719 21.066406 18.574219 21.128906 18.324219 C 21.21875 17.964844 20.496094 17.011719 19.644531 16.371094 C 19.0625 15.933594 18.871094 15.753906 18.667969 15.433594 C 18.5625 15.269531 18.480469 15.191406 18.449219 15.222656 C 18.417969 15.253906 18.347656 15.589844 18.289062 15.980469 C 18.097656 17.257812 17.78125 18.167969 17.246094 18.964844 C 16.714844 19.753906 16.183594 20.203125 14.929688 20.910156 C 14.785156 20.992188 14.683594 21.078125 14.710938 21.097656 C 14.738281 21.121094 14.929688 21.195312 15.140625 21.265625 C 15.542969 21.394531 16.933594 22.066406 17.363281 22.332031 C 18.246094 22.886719 19.027344 23.820312 19.144531 24.460938 C 19.195312 24.722656 19.09375 25.019531 18.910156 25.164062 L 18.761719 25.277344 L 18.957031 25.253906 C 19.289062 25.207031 19.949219 24.894531 20.375 24.582031 C 20.71875 24.328125 20.816406 24.285156 21.019531 24.285156 C 21.296875 24.285156 21.476562 24.425781 21.476562 24.644531 C 21.476562 24.859375 21.246094 25.03125 20.800781 25.136719 C 20.585938 25.191406 20.222656 25.3125 19.996094 25.410156 C 19.523438 25.613281 18.855469 25.765625 17.625 25.957031 C 16.703125 26.101562 16.429688 26.195312 16.429688 26.371094 C 16.429688 26.539062 16.601562 26.667969 17.039062 26.835938 C 18.207031 27.273438 18.570312 27.472656 18.570312 27.683594 C 18.570312 27.738281 18.535156 27.8125 18.488281 27.847656 C 18.398438 27.925781 18.019531 27.964844 17.800781 27.925781 Z M 17.800781 27.925781 "/>
</g>
</svg>
