
<svg xmlns="http://www.w3.org/2000/svg" xmlns:xlink="http://www.w3.org/1999/xlink" width="32px" height="32px" viewBox="0 0 32 32" version="1.1">
<g id="surface1">
<path style="fill-rule:nonzero;fill:rgb(100%,100%,100%);fill-opacity:1;stroke-width:6.764574;stroke-linecap:butt;stroke-linejoin:miter;stroke:rgb(0%,50.196081%,50.196081%);stroke-opacity:1;stroke-miterlimit:4;" d="M 406.696411 428.391764 L 490.446411 428.391764 C 497.915161 428.391764 503.977661 434.454264 503.977661 441.923014 L 503.977661 525.673014 C 503.977661 533.141764 497.915161 539.204264 490.446411 539.204264 L 406.696411 539.204264 C 399.227661 539.204264 393.165161 533.141764 393.165161 525.673014 L 393.165161 441.923014 C 393.165161 434.454264 399.227661 428.391764 406.696411 428.391764 Z M 406.696411 428.391764 " transform="matrix(0.25,0,0,0.25,-96.142853,-104.949504)"/>
<path style=" stroke:none;fill-rule:evenodd;fill:rgb(0%,50.196081%,50.196081%);fill-opacity:1;" d="M 12.828125 5.078125 C 11.371094 5.160156 10.296875 7.160156 10.433594 9.546875 C 10.566406 11.933594 11.859375 13.800781 13.320312 13.714844 C 14.777344 13.632812 15.851562 11.632812 15.714844 9.246094 C 15.582031 6.863281 14.289062 4.996094 12.828125 5.078125 Z M 20.832031 5.8125 C 19.59375 5.871094 18.21875 7.09375 17.445312 8.824219 C 16.46875 11.007812 16.761719 13.257812 18.09375 13.855469 C 19.429688 14.453125 21.300781 13.167969 22.277344 10.988281 C 23.253906 8.804688 22.960938 6.550781 21.628906 5.957031 C 21.386719 5.847656 21.117188 5.800781 20.832031 5.8125 Z M 6.441406 8.902344 C 6.261719 8.902344 6.085938 8.933594 5.917969 8.988281 C 4.527344 9.445312 4.011719 11.65625 4.757812 13.925781 C 5.503906 16.191406 7.238281 17.660156 8.628906 17.203125 C 10.015625 16.746094 10.535156 14.535156 9.785156 12.265625 C 9.140625 10.3125 7.742188 8.90625 6.441406 8.902344 Z M 25.921875 11.316406 C 24.683594 11.230469 23.175781 12.28125 22.203125 13.910156 C 20.980469 15.964844 21.003906 18.234375 22.261719 18.980469 C 23.515625 19.730469 25.527344 18.675781 26.746094 16.621094 C 27.972656 14.570312 27.949219 12.300781 26.691406 11.550781 C 26.464844 11.417969 26.203125 11.335938 25.921875 11.316406 Z M 15.441406 14.066406 C 14.417969 14.066406 13.355469 14.707031 12.632812 16.097656 C 11.390625 17.570312 10.964844 18.109375 8.308594 19.371094 C 6.988281 20.308594 6.347656 21.597656 6.660156 23.394531 C 7.511719 26.242188 10.203125 26.335938 11.242188 26.347656 C 12.691406 26.503906 13.964844 26.261719 15.585938 26.820312 C 17.132812 26.941406 18.601562 27.457031 20.234375 27.160156 C 24.050781 25.953125 23.316406 21.941406 21.136719 20.480469 L 18.199219 16.402344 C 17.707031 14.894531 16.601562 14.066406 15.441406 14.066406 Z M 15.441406 14.066406 "/>
</g>
</svg>
