
<svg xmlns="http://www.w3.org/2000/svg" xmlns:xlink="http://www.w3.org/1999/xlink" width="32px" height="32px" viewBox="0 0 32 32" version="1.1">
<g id="surface1">
<path style="fill-rule:nonzero;fill:rgb(79.215688%,87.450981%,0%);fill-opacity:1;stroke-width:55.152916;stroke-linecap:butt;stroke-linejoin:miter;stroke:rgb(27.843139%,35.294119%,90.196079%);stroke-opacity:1;stroke-miterlimit:4;" d="M 170.625 60.25 L 853.375 60.25 C 914.375 60.25 963.75 109.625 963.75 170.625 L 963.75 853.375 C 963.75 914.375 914.375 963.75 853.375 963.75 L 170.625 963.75 C 109.625 963.75 60.25 914.375 60.25 853.375 L 60.25 170.625 C 60.25 109.625 109.625 60.25 170.625 60.25 Z M 170.625 60.25 " transform="matrix(0.03125,0,0,0.03125,0,0)"/>
<path style=" stroke:none;fill-rule:nonzero;fill:rgb(100%,100%,100%);fill-opacity:1;" d="M 28.074219 15.789062 C 28.074219 9.140625 22.65625 3.75 15.972656 3.75 C 9.289062 3.75 3.871094 9.140625 3.871094 15.789062 C 3.871094 22.4375 9.289062 27.828125 15.972656 27.828125 C 22.65625 27.828125 28.074219 22.4375 28.074219 15.789062 Z M 28.074219 15.789062 "/>
<path style=" stroke:none;fill-rule:nonzero;fill:rgb(79.215688%,87.450981%,0%);fill-opacity:1;" d="M 14.875 28.285156 C 14.863281 28.273438 14.75 28.257812 14.625 28.246094 C 14.277344 28.21875 13.933594 28.175781 13.785156 28.144531 C 13.710938 28.128906 13.585938 28.105469 13.503906 28.089844 C 13.425781 28.074219 13.316406 28.050781 13.265625 28.039062 C 13.214844 28.027344 13.144531 28.011719 13.105469 28.003906 C 12.863281 27.957031 12.347656 27.816406 12.082031 27.71875 C 12.011719 27.691406 11.886719 27.652344 11.804688 27.625 C 11.179688 27.429688 10.066406 26.902344 9.417969 26.484375 C 9.285156 26.398438 9.132812 26.300781 9.085938 26.273438 C 8.261719 25.761719 6.941406 24.578125 6.386719 23.855469 C 6.347656 23.808594 6.222656 23.648438 6.105469 23.503906 C 5.820312 23.140625 5.542969 22.730469 5.15625 22.105469 C 5.085938 21.988281 4.734375 21.304688 4.640625 21.09375 C 4.507812 20.804688 4.425781 20.609375 4.371094 20.46875 C 4.34375 20.390625 4.277344 20.210938 4.226562 20.074219 C 4.175781 19.933594 4.121094 19.765625 4.101562 19.699219 C 4.082031 19.632812 4.046875 19.515625 4.023438 19.433594 C 3.910156 19.074219 3.863281 18.90625 3.839844 18.757812 C 3.816406 18.605469 3.796875 18.527344 3.730469 18.21875 C 3.589844 17.601562 3.441406 17.027344 3.441406 15.863281 C 3.441406 14.683594 3.566406 14.222656 3.714844 13.550781 C 3.753906 13.382812 3.808594 13.261719 3.84375 13.066406 C 3.871094 12.925781 3.886719 12.839844 3.933594 12.675781 C 3.949219 12.625 3.972656 12.515625 3.996094 12.445312 C 4.011719 12.394531 3.972656 12.554688 4.023438 12.273438 C 4.042969 12.152344 4.105469 11.941406 4.113281 11.90625 C 4.144531 11.785156 4.402344 11.273438 4.496094 11.054688 C 4.761719 10.433594 5.042969 9.875 5.164062 9.710938 C 5.199219 9.664062 5.238281 9.597656 5.25 9.5625 C 5.273438 9.507812 5.488281 9.175781 5.769531 8.757812 C 5.828125 8.667969 5.929688 8.527344 5.996094 8.441406 C 6.0625 8.355469 6.125 8.246094 6.148438 8.214844 C 6.355469 7.90625 7.433594 6.773438 7.734375 6.546875 C 7.8125 6.488281 7.875 6.433594 7.875 6.417969 C 7.875 6.402344 8.050781 6.257812 8.246094 6.113281 C 8.285156 6.085938 8.386719 6.007812 8.472656 5.941406 C 8.65625 5.800781 8.652344 5.804688 9.058594 5.535156 C 9.234375 5.417969 9.410156 5.300781 9.449219 5.273438 C 9.558594 5.195312 10.078125 4.910156 10.398438 4.746094 C 10.945312 4.472656 12.015625 4.050781 12.363281 3.972656 C 12.609375 3.917969 12.671875 3.902344 12.773438 3.863281 C 12.832031 3.839844 12.953125 3.808594 13.039062 3.792969 C 13.128906 3.773438 13.234375 3.746094 13.277344 3.734375 C 13.324219 3.722656 13.449219 3.699219 13.558594 3.683594 C 13.667969 3.667969 13.824219 3.644531 13.902344 3.628906 C 14.582031 3.511719 14.859375 3.492188 15.949219 3.492188 C 17.011719 3.492188 17.277344 3.507812 18.003906 3.628906 C 18.09375 3.644531 18.25 3.667969 18.347656 3.683594 C 18.449219 3.699219 18.570312 3.722656 18.613281 3.734375 C 18.660156 3.746094 18.769531 3.773438 18.855469 3.792969 C 18.945312 3.808594 19.082031 3.84375 19.160156 3.871094 C 19.242188 3.894531 19.363281 3.929688 19.425781 3.949219 C 19.707031 4.019531 20.394531 4.257812 20.714844 4.394531 C 21.332031 4.652344 22.175781 5.082031 22.445312 5.273438 C 22.488281 5.300781 22.664062 5.417969 22.839844 5.53125 C 23.015625 5.644531 23.253906 5.8125 23.367188 5.902344 C 23.480469 5.988281 23.617188 6.089844 23.664062 6.128906 C 23.710938 6.164062 23.808594 6.238281 23.878906 6.292969 C 23.949219 6.347656 24.023438 6.414062 24.042969 6.445312 C 24.058594 6.472656 24.121094 6.527344 24.175781 6.5625 C 24.296875 6.640625 25.082031 7.421875 25.332031 7.710938 C 25.683594 8.121094 25.738281 8.195312 26.023438 8.589844 C 26.320312 9.003906 26.617188 9.453125 26.652344 9.550781 C 26.667969 9.582031 26.707031 9.648438 26.742188 9.695312 C 26.839844 9.828125 27.472656 11.121094 27.472656 11.191406 C 27.472656 11.199219 27.539062 11.371094 27.617188 11.582031 C 27.695312 11.789062 27.777344 12.011719 27.792969 12.078125 C 27.8125 12.144531 27.847656 12.25 27.867188 12.316406 C 27.886719 12.382812 27.917969 12.472656 27.925781 12.515625 C 27.941406 12.558594 27.964844 12.660156 27.988281 12.742188 C 28.011719 12.820312 28.042969 12.957031 28.058594 13.046875 C 28.078125 13.136719 28.101562 13.261719 28.117188 13.324219 C 28.316406 14.289062 28.347656 14.625 28.347656 15.914062 C 28.347656 17.054688 28.308594 17.585938 28.167969 18.226562 C 28.148438 18.300781 28.125 18.410156 28.113281 18.480469 C 28.042969 18.847656 27.953125 19.195312 27.867188 19.460938 C 27.847656 19.527344 27.808594 19.652344 27.785156 19.738281 C 27.710938 19.988281 27.4375 20.703125 27.292969 21.011719 C 27.125 21.378906 26.808594 21.996094 26.742188 22.082031 C 26.707031 22.128906 26.667969 22.195312 26.652344 22.226562 C 26.640625 22.261719 26.554688 22.40625 26.460938 22.546875 C 26.371094 22.691406 26.273438 22.839844 26.246094 22.878906 C 26.097656 23.121094 25.667969 23.675781 25.246094 24.167969 C 24.925781 24.542969 24.113281 25.3125 23.691406 25.636719 C 22.949219 26.207031 22.328125 26.605469 21.566406 26.988281 C 20.582031 27.484375 19.667969 27.816406 18.742188 28.015625 C 18.683594 28.027344 18.574219 28.050781 18.503906 28.066406 C 18.433594 28.082031 18.316406 28.105469 18.242188 28.117188 C 18.167969 28.128906 18.082031 28.148438 18.050781 28.160156 C 18.019531 28.167969 17.882812 28.1875 17.746094 28.203125 C 17.613281 28.214844 17.394531 28.238281 17.261719 28.253906 C 16.976562 28.289062 14.902344 28.316406 14.875 28.285156 Z M 17.292969 23.800781 C 19.441406 23.503906 21.167969 22.273438 22.097656 20.378906 C 22.554688 19.445312 22.757812 18.566406 22.757812 17.519531 C 22.757812 16.972656 22.734375 16.707031 22.640625 16.246094 C 22.128906 13.765625 20.070312 11.816406 17.476562 11.355469 C 17.175781 11.304688 17.039062 11.296875 16.453125 11.292969 L 15.777344 11.292969 L 15.625 11.363281 C 15.433594 11.453125 15.269531 11.617188 15.183594 11.808594 C 15.089844 12.007812 15.085938 12.316406 15.167969 12.507812 C 15.25 12.683594 15.449219 12.886719 15.625 12.972656 C 15.769531 13.042969 15.785156 13.046875 16.320312 13.050781 C 16.894531 13.054688 17.128906 13.082031 17.582031 13.207031 C 18.886719 13.5625 20.011719 14.488281 20.609375 15.695312 C 21.214844 16.925781 21.089844 18.675781 20.300781 19.988281 C 19.765625 20.878906 19.027344 21.472656 18.019531 21.820312 C 16.640625 22.292969 15.085938 22.128906 13.980469 21.394531 C 13.007812 20.738281 12.292969 19.644531 12.023438 18.371094 C 11.960938 18.074219 11.953125 17.980469 11.953125 17.496094 C 11.949219 17.023438 11.957031 16.910156 12.011719 16.648438 C 12.058594 16.445312 12.074219 16.300781 12.0625 16.207031 C 12.03125 15.914062 11.820312 15.621094 11.542969 15.496094 C 11.367188 15.414062 11.019531 15.414062 10.84375 15.496094 C 10.679688 15.570312 10.488281 15.753906 10.410156 15.902344 C 10.347656 16.027344 10.269531 16.398438 10.207031 16.832031 C 10.167969 17.132812 10.167969 17.921875 10.207031 18.253906 C 10.351562 19.421875 10.785156 20.488281 11.496094 21.4375 C 12.4375 22.6875 13.816406 23.511719 15.402344 23.777344 C 15.980469 23.871094 16.714844 23.882812 17.292969 23.800781 Z M 17.292969 23.800781 "/>
<path style=" stroke:none;fill-rule:nonzero;fill:rgb(27.843139%,35.294119%,90.196079%);fill-opacity:1;" d="M 16.105469 21.304688 C 15.730469 21.257812 15.214844 21.109375 14.894531 20.957031 C 14.238281 20.644531 13.519531 19.949219 13.183594 19.289062 C 13.027344 18.992188 12.886719 18.574219 12.828125 18.238281 C 12.804688 18.101562 12.773438 17.9375 12.757812 17.875 C 12.746094 17.808594 12.734375 16.015625 12.734375 13.472656 C 12.734375 9.332031 12.730469 9.183594 12.683594 9.183594 C 12.65625 9.183594 12.386719 9.433594 12.042969 9.785156 C 11.410156 10.425781 11.34375 10.472656 11.074219 10.503906 C 10.59375 10.550781 10.179688 10.1875 10.175781 9.714844 C 10.171875 9.617188 10.1875 9.480469 10.207031 9.410156 C 10.242188 9.285156 10.324219 9.195312 11.695312 7.824219 L 13.144531 6.375 L 13.308594 6.332031 C 13.492188 6.28125 13.699219 6.296875 13.894531 6.378906 C 14.046875 6.445312 14.238281 6.644531 14.300781 6.8125 C 14.355469 6.949219 14.355469 7.027344 14.355469 10.761719 C 14.355469 14.101562 14.359375 14.574219 14.394531 14.574219 C 14.414062 14.574219 14.542969 14.5 14.679688 14.410156 C 14.996094 14.203125 15.109375 14.148438 15.433594 14.035156 C 15.875 13.878906 16.074219 13.84375 16.492188 13.847656 C 17.464844 13.851562 18.265625 14.207031 19.042969 14.984375 C 19.667969 15.613281 20.011719 16.238281 20.160156 17.03125 C 20.214844 17.335938 20.214844 17.902344 20.160156 18.226562 C 20.101562 18.539062 19.929688 19.050781 19.796875 19.300781 C 19.457031 19.925781 18.847656 20.542969 18.222656 20.878906 C 17.964844 21.019531 17.542969 21.167969 17.210938 21.242188 C 16.976562 21.292969 16.316406 21.332031 16.105469 21.304688 Z M 16.757812 19.632812 C 17.257812 19.527344 17.863281 19.105469 18.171875 18.652344 C 18.433594 18.261719 18.550781 17.9375 18.550781 17.601562 C 18.550781 17.324219 18.492188 17.101562 18.339844 16.792969 C 18.070312 16.25 17.769531 15.953125 17.238281 15.691406 C 16.894531 15.519531 16.730469 15.476562 16.472656 15.476562 C 16.019531 15.480469 15.4375 15.753906 15.042969 16.152344 C 14.839844 16.359375 14.597656 16.734375 14.484375 17.027344 C 14.414062 17.207031 14.398438 17.289062 14.386719 17.523438 C 14.371094 17.859375 14.40625 18.003906 14.582031 18.347656 C 14.828125 18.824219 15.199219 19.183594 15.707031 19.445312 C 16.121094 19.660156 16.402344 19.707031 16.757812 19.632812 Z M 16.757812 19.632812 "/>
</g>
</svg>
