
<svg xmlns="http://www.w3.org/2000/svg" xmlns:xlink="http://www.w3.org/1999/xlink" width="32px" height="32px" viewBox="0 0 32 32" version="1.1">
<g id="surface1">
<path style="fill-rule:nonzero;fill:rgb(100%,100%,100%);fill-opacity:1;stroke-width:28.191782;stroke-linecap:butt;stroke-linejoin:miter;stroke:rgb(6.27451%,63.137257%,52.941179%);stroke-opacity:1;stroke-miterlimit:4;" d="M 81.49999 635.582072 L 430.49999 635.582072 C 461.68749 635.582072 486.93749 660.832072 486.93749 692.019572 L 486.93749 1041.019572 C 486.93749 1072.207072 461.68749 1097.457072 430.49999 1097.457072 L 81.49999 1097.457072 C 50.31249 1097.457072 25.06249 1072.207072 25.06249 1041.019572 L 25.06249 692.019572 C 25.06249 660.832072 50.31249 635.582072 81.49999 635.582072 Z M 81.49999 635.582072 " transform="matrix(0.0625,0,0,0.0625,0.000000625,-38.157473)"/>
<path style=" stroke:none;fill-rule:nonzero;fill:rgb(96.470588%,27.843139%,27.843139%);fill-opacity:1;" d="M 23.339844 16.019531 C 23.339844 20.347656 19.835938 23.851562 15.511719 23.851562 C 11.1875 23.851562 7.683594 20.347656 7.683594 16.019531 C 7.683594 11.699219 11.1875 8.191406 15.511719 8.191406 C 19.835938 8.191406 23.339844 11.699219 23.339844 16.019531 Z M 23.339844 16.019531 "/>
<path style=" stroke:none;fill-rule:nonzero;fill:rgb(10.588235%,63.921571%,61.176473%);fill-opacity:1;" d="M 15.511719 3.585938 L 15.511719 16.480469 L 24.230469 24.878906 C 26.605469 22.542969 27.945312 19.351562 27.945312 16.019531 C 27.945312 9.152344 22.378906 3.585938 15.511719 3.585938 Z M 15.511719 3.585938 "/>
<path style=" stroke:none;fill-rule:nonzero;fill:rgb(55.686277%,26.666668%,67.843139%);fill-opacity:1;" d="M 15.511719 16.480469 L 6.792969 24.875 C 9.117188 27.167969 12.246094 28.453125 15.511719 28.457031 Z M 15.511719 16.480469 "/>
<path style=" stroke:none;fill-rule:nonzero;fill:rgb(97.647059%,87.058824%,41.176471%);fill-opacity:1;" d="M 4.472656 16.480469 C 4.59375 19.292969 5.777344 21.949219 7.792969 23.917969 L 15.511719 16.480469 Z M 4.472656 16.480469 "/>
<path style=" stroke:none;fill-rule:nonzero;fill:rgb(32.156864%,70.19608%,85.09804%);fill-opacity:1;" d="M 15.511719 16.480469 L 15.511719 27.074219 C 18.398438 27.074219 21.171875 25.941406 23.238281 23.921875 Z M 15.511719 16.480469 "/>
</g>
</svg>
