
<svg xmlns="http://www.w3.org/2000/svg" xmlns:xlink="http://www.w3.org/1999/xlink" width="32px" height="32px" viewBox="0 0 32 32" version="1.1">
<defs>
<clipPath id="clip1">
  <path d="M 20.75 5.4375 L 25.9375 5.4375 L 25.9375 14.5625 L 20.75 14.5625 Z M 20.75 5.4375 "/>
</clipPath>
<clipPath id="clip2">
  <path d="M -3.625 -7.0625 L 36.300781 -7.0625 C 38.621094 -7.0625 40.503906 -5.179688 40.503906 -2.859375 L 40.503906 37.066406 C 40.503906 39.386719 38.621094 41.269531 36.300781 41.269531 L -3.625 41.269531 C -5.945312 41.269531 -7.828125 39.386719 -7.828125 37.066406 L -7.828125 -2.859375 C -7.828125 -5.179688 -5.945312 -7.0625 -3.625 -7.0625 Z M -3.625 -7.0625 "/>
</clipPath>
<clipPath id="clip3">
  <path d="M 14 20.0625 L 19.875 20.0625 L 19.875 28.667969 L 14 28.667969 Z M 14 20.0625 "/>
</clipPath>
<clipPath id="clip4">
  <path d="M -3.625 -7.0625 L 36.300781 -7.0625 C 38.621094 -7.0625 40.503906 -5.179688 40.503906 -2.859375 L 40.503906 37.066406 C 40.503906 39.386719 38.621094 41.269531 36.300781 41.269531 L -3.625 41.269531 C -5.945312 41.269531 -7.828125 39.386719 -7.828125 37.066406 L -7.828125 -2.859375 C -7.828125 -5.179688 -5.945312 -7.0625 -3.625 -7.0625 Z M -3.625 -7.0625 "/>
</clipPath>
<clipPath id="clip5">
  <path d="M 12 10.5625 L 22.375 10.5625 L 22.375 25.6875 L 12 25.6875 Z M 12 10.5625 "/>
</clipPath>
<clipPath id="clip6">
  <path d="M -3.625 -7.0625 L 36.300781 -7.0625 C 38.621094 -7.0625 40.503906 -5.179688 40.503906 -2.859375 L 40.503906 37.066406 C 40.503906 39.386719 38.621094 41.269531 36.300781 41.269531 L -3.625 41.269531 C -5.945312 41.269531 -7.828125 39.386719 -7.828125 37.066406 L -7.828125 -2.859375 C -7.828125 -5.179688 -5.945312 -7.0625 -3.625 -7.0625 Z M -3.625 -7.0625 "/>
</clipPath>
<clipPath id="clip7">
  <path d="M 8.0625 7 L 18.667969 7 L 18.667969 21.4375 L 8.0625 21.4375 Z M 8.0625 7 "/>
</clipPath>
<clipPath id="clip8">
  <path d="M -3.625 -7.0625 L 36.300781 -7.0625 C 38.621094 -7.0625 40.503906 -5.179688 40.503906 -2.859375 L 40.503906 37.066406 C 40.503906 39.386719 38.621094 41.269531 36.300781 41.269531 L -3.625 41.269531 C -5.945312 41.269531 -7.828125 39.386719 -7.828125 37.066406 L -7.828125 -2.859375 C -7.828125 -5.179688 -5.945312 -7.0625 -3.625 -7.0625 Z M -3.625 -7.0625 "/>
</clipPath>
<clipPath id="clip9">
  <path d="M 10.5625 8.8125 L 26.8125 8.8125 L 26.8125 14.875 L 10.5625 14.875 Z M 10.5625 8.8125 "/>
</clipPath>
<clipPath id="clip10">
  <path d="M -3.625 -7.0625 L 36.300781 -7.0625 C 38.621094 -7.0625 40.503906 -5.179688 40.503906 -2.859375 L 40.503906 37.066406 C 40.503906 39.386719 38.621094 41.269531 36.300781 41.269531 L -3.625 41.269531 C -5.945312 41.269531 -7.828125 39.386719 -7.828125 37.066406 L -7.828125 -2.859375 C -7.828125 -5.179688 -5.945312 -7.0625 -3.625 -7.0625 Z M -3.625 -7.0625 "/>
</clipPath>
<clipPath id="clip11">
  <path d="M 11.1875 3.4375 L 19.125 3.4375 L 19.125 19.5 L 11.1875 19.5 Z M 11.1875 3.4375 "/>
</clipPath>
<clipPath id="clip12">
  <path d="M -3.625 -7.0625 L 36.300781 -7.0625 C 38.621094 -7.0625 40.503906 -5.179688 40.503906 -2.859375 L 40.503906 37.066406 C 40.503906 39.386719 38.621094 41.269531 36.300781 41.269531 L -3.625 41.269531 C -5.945312 41.269531 -7.828125 39.386719 -7.828125 37.066406 L -7.828125 -2.859375 C -7.828125 -5.179688 -5.945312 -7.0625 -3.625 -7.0625 Z M -3.625 -7.0625 "/>
</clipPath>
<clipPath id="clip13">
  <path d="M 6.75 14.6875 L 21.0625 14.6875 L 21.0625 24.25 L 6.75 24.25 Z M 6.75 14.6875 "/>
</clipPath>
<clipPath id="clip14">
  <path d="M -3.625 -7.0625 L 36.300781 -7.0625 C 38.621094 -7.0625 40.503906 -5.179688 40.503906 -2.859375 L 40.503906 37.066406 C 40.503906 39.386719 38.621094 41.269531 36.300781 41.269531 L -3.625 41.269531 C -5.945312 41.269531 -7.828125 39.386719 -7.828125 37.066406 L -7.828125 -2.859375 C -7.828125 -5.179688 -5.945312 -7.0625 -3.625 -7.0625 Z M -3.625 -7.0625 "/>
</clipPath>
<clipPath id="clip15">
  <path d="M 2.667969 10.8125 L 12.667969 10.8125 L 12.667969 12.1875 L 2.667969 12.1875 Z M 2.667969 10.8125 "/>
</clipPath>
<clipPath id="clip16">
  <path d="M -3.625 -7.0625 L 36.300781 -7.0625 C 38.621094 -7.0625 40.503906 -5.179688 40.503906 -2.859375 L 40.503906 37.066406 C 40.503906 39.386719 38.621094 41.269531 36.300781 41.269531 L -3.625 41.269531 C -5.945312 41.269531 -7.828125 39.386719 -7.828125 37.066406 L -7.828125 -2.859375 C -7.828125 -5.179688 -5.945312 -7.0625 -3.625 -7.0625 Z M -3.625 -7.0625 "/>
</clipPath>
<clipPath id="clip17">
  <path d="M 13.625 11.125 L 27.9375 11.125 L 27.9375 20.875 L 13.625 20.875 Z M 13.625 11.125 "/>
</clipPath>
<clipPath id="clip18">
  <path d="M -3.625 -7.0625 L 36.300781 -7.0625 C 38.621094 -7.0625 40.503906 -5.179688 40.503906 -2.859375 L 40.503906 37.066406 C 40.503906 39.386719 38.621094 41.269531 36.300781 41.269531 L -3.625 41.269531 C -5.945312 41.269531 -7.828125 39.386719 -7.828125 37.066406 L -7.828125 -2.859375 C -7.828125 -5.179688 -5.945312 -7.0625 -3.625 -7.0625 Z M -3.625 -7.0625 "/>
</clipPath>
</defs>
<g id="surface1">
<path style="fill-rule:nonzero;fill:rgb(100%,100%,100%);fill-opacity:1;stroke-width:13.893481;stroke-linecap:butt;stroke-linejoin:miter;stroke:rgb(6.27451%,59.607846%,63.137257%);stroke-opacity:1;stroke-miterlimit:4;" d="M 43.084747 13.134003 L 215.084747 13.134003 C 230.428497 13.134003 242.865997 25.571503 242.865997 40.915253 L 242.865997 212.915253 C 242.865997 228.259003 230.428497 240.696503 215.084747 240.696503 L 43.084747 240.696503 C 27.740997 240.696503 15.303497 228.259003 15.303497 212.915253 L 15.303497 40.915253 C 15.303497 25.571503 27.740997 13.134003 43.084747 13.134003 Z M 43.084747 13.134003 " transform="matrix(0.125,0,0,0.125,-0.135593,0.135593)"/>
<g clip-path="url(#clip1)" clip-rule="nonzero">
<g clip-path="url(#clip2)" clip-rule="nonzero">
<path style=" stroke:none;fill-rule:nonzero;fill:rgb(0%,63.529414%,87.058824%);fill-opacity:1;" d="M 25.917969 5.453125 C 24.878906 8.222656 22.96875 11.179688 20.78125 13.785156 C 20.78125 13.785156 21.699219 14.441406 21.707031 14.535156 C 23.785156 11.722656 25.394531 8.566406 25.917969 5.453125 M 25.917969 5.453125 "/>
</g>
</g>
<g clip-path="url(#clip3)" clip-rule="nonzero">
<g clip-path="url(#clip4)" clip-rule="nonzero">
<path style=" stroke:none;fill-rule:nonzero;fill:rgb(0%,63.529414%,87.058824%);fill-opacity:1;" d="M 19.855469 28.664062 C 17.957031 26.394531 16.332031 23.273438 15.140625 20.089844 C 15.140625 20.089844 14.113281 20.5625 14.03125 20.519531 C 15.457031 23.71875 17.410156 26.675781 19.855469 28.664062 M 19.855469 28.664062 "/>
</g>
</g>
<g clip-path="url(#clip5)" clip-rule="nonzero">
<g clip-path="url(#clip6)" clip-rule="nonzero">
<path style=" stroke:none;fill-rule:nonzero;fill:rgb(0%,63.529414%,87.058824%);fill-opacity:1;" d="M 19.152344 10.601562 C 26.449219 16.582031 15.132812 25.058594 13.390625 23.941406 C 12.734375 23.476562 13.597656 22.113281 13.839844 21.136719 C 12.917969 22.199219 11.414062 24.132812 12.253906 25.199219 C 14.898438 28.21875 28.429688 15.808594 19.152344 10.597656 M 19.152344 10.597656 "/>
</g>
</g>
<g clip-path="url(#clip7)" clip-rule="nonzero">
<g clip-path="url(#clip8)" clip-rule="nonzero">
<path style=" stroke:none;fill-rule:nonzero;fill:rgb(0%,63.529414%,87.058824%);fill-opacity:1;" d="M 18.660156 20.414062 C 9.792969 23.628906 8.316406 9.554688 10.160156 8.632812 C 10.898438 8.308594 11.625 9.746094 12.339844 10.449219 C 11.902344 9.113281 11.007812 6.832031 9.664062 7.007812 C 5.722656 7.730469 9.441406 25.726562 18.65625 20.414062 M 18.65625 20.414062 "/>
</g>
</g>
<g clip-path="url(#clip9)" clip-rule="nonzero">
<g clip-path="url(#clip10)" clip-rule="nonzero">
<path style=" stroke:none;fill-rule:nonzero;fill:rgb(0%,63.529414%,87.058824%);fill-opacity:1;" d="M 10.582031 14.863281 C 12.3125 5.582031 25.175781 11.449219 25.035156 13.511719 C 24.941406 14.308594 23.335938 14.210938 22.363281 14.472656 C 23.734375 14.765625 26.152344 15.160156 26.683594 13.902344 C 28.058594 10.136719 10.683594 4.21875 10.582031 14.863281 M 10.582031 14.863281 "/>
</g>
</g>
<g clip-path="url(#clip11)" clip-rule="nonzero">
<g clip-path="url(#clip12)" clip-rule="nonzero">
<path style=" stroke:none;fill-rule:nonzero;fill:rgb(0%,63.529414%,87.058824%);fill-opacity:1;" d="M 14.664062 18.980469 C 12.722656 13.160156 12.328125 7.175781 14.515625 6.371094 C 15.988281 5.921875 17.480469 9.425781 19.097656 10.125 C 18.628906 8.421875 16.035156 3.214844 13.324219 3.457031 C 10.367188 3.90625 10.617188 12.128906 13.621094 19.496094 C 13.621094 19.496094 14.746094 18.984375 14.660156 18.984375 M 14.660156 18.984375 "/>
</g>
</g>
<g clip-path="url(#clip13)" clip-rule="nonzero">
<g clip-path="url(#clip14)" clip-rule="nonzero">
<path style=" stroke:none;fill-rule:nonzero;fill:rgb(0%,63.529414%,87.058824%);fill-opacity:1;" d="M 20.050781 14.742188 C 15.945312 19.292969 10.9375 22.585938 9.15625 21.078125 C 8.039062 20.015625 10.355469 16.988281 10.160156 15.238281 C 8.914062 16.484375 5.664062 21.300781 7.210938 23.546875 C 9.050781 25.902344 16.082031 21.644531 21.003906 15.402344 C 21.003906 15.402344 20.007812 14.667969 20.050781 14.746094 M 20.050781 14.746094 "/>
</g>
</g>
<g clip-path="url(#clip15)" clip-rule="nonzero">
<g clip-path="url(#clip16)" clip-rule="nonzero">
<path style=" stroke:none;fill-rule:nonzero;fill:rgb(0%,63.529414%,87.058824%);fill-opacity:1;" d="M 2.679688 12.042969 C 5.589844 11.511719 9.101562 11.636719 12.457031 12.183594 C 12.457031 12.183594 12.550781 11.050781 12.628906 11.003906 C 9.148438 10.660156 5.613281 10.894531 2.679688 12.042969 M 2.679688 12.042969 "/>
</g>
</g>
<g clip-path="url(#clip17)" clip-rule="nonzero">
<g clip-path="url(#clip18)" clip-rule="nonzero">
<path style=" stroke:none;fill-rule:nonzero;fill:rgb(0%,63.529414%,87.058824%);fill-opacity:1;" d="M 13.648438 12.320312 C 19.660156 13.511719 25.054688 16.125 24.671875 18.429688 C 24.332031 19.933594 20.550781 19.496094 19.148438 20.566406 C 20.855469 20.996094 26.65625 21.316406 27.789062 18.832031 C 28.863281 16.042969 21.605469 12.1875 13.722656 11.160156 C 13.722656 11.160156 13.609375 12.386719 13.648438 12.316406 M 13.648438 12.316406 "/>
</g>
</g>
</g>
</svg>
