
<svg xmlns="http://www.w3.org/2000/svg" xmlns:xlink="http://www.w3.org/1999/xlink" width="32px" height="32px" viewBox="0 0 32 32" version="1.1">
<g id="surface1">
<path style=" stroke:none;fill-rule:evenodd;fill:rgb(0%,25.882354%,31.764707%);fill-opacity:1;" d="M 5.675781 0.882812 L 26.558594 0.882812 C 29.265625 0.882812 31.464844 3.082031 31.464844 5.789062 L 31.464844 26.46875 C 31.464844 29.175781 29.265625 31.371094 26.558594 31.371094 L 5.675781 31.371094 C 2.96875 31.371094 0.773438 29.175781 0.773438 26.46875 L 0.773438 5.789062 C 0.773438 3.082031 2.96875 0.882812 5.675781 0.882812 Z M 5.675781 0.882812 "/>
<path style=" stroke:none;fill-rule:evenodd;fill:rgb(31.764707%,59.215689%,99.215686%);fill-opacity:1;" d="M 6.597656 2.226562 L 25.636719 2.226562 C 28.109375 2.226562 30.113281 4.230469 30.113281 6.699219 L 30.113281 25.558594 C 30.113281 28.027344 28.109375 30.03125 25.636719 30.03125 L 6.597656 30.03125 C 4.125 30.03125 2.121094 28.027344 2.121094 25.558594 L 2.121094 6.699219 C 2.121094 4.230469 4.125 2.226562 6.597656 2.226562 Z M 6.597656 2.226562 "/>
<path style=" stroke:none;fill-rule:nonzero;fill:rgb(100%,100%,100%);fill-opacity:1;" d="M 9.542969 29.085938 C 8.714844 28.976562 8.054688 28.453125 7.886719 27.761719 C 7.800781 27.425781 7.75 24.6875 7.75 20.792969 L 7.75 14.371094 L 7.253906 13.746094 C 6.980469 13.402344 6.679688 13.042969 6.585938 12.957031 C 6.308594 12.703125 6.371094 12.660156 6.996094 12.660156 C 7.519531 12.660156 7.601562 12.691406 7.746094 12.960938 C 7.839844 13.128906 7.992188 13.316406 8.089844 13.375 C 8.1875 13.4375 8.394531 13.667969 8.542969 13.894531 C 8.816406 14.289062 8.820312 14.425781 8.820312 21.074219 C 8.820312 27.652344 8.828125 27.855469 9.082031 28.050781 C 9.222656 28.160156 9.542969 28.277344 9.785156 28.308594 C 10.027344 28.34375 13.011719 28.355469 16.410156 28.339844 C 22.269531 28.3125 22.605469 28.300781 22.871094 28.113281 C 23.152344 27.921875 23.152344 27.902344 23.152344 21.101562 C 23.152344 14.65625 23.167969 14.265625 23.398438 14.003906 C 23.535156 13.855469 23.851562 13.488281 24.101562 13.195312 C 24.519531 12.707031 24.605469 12.660156 25.0625 12.660156 C 25.339844 12.660156 25.566406 12.699219 25.566406 12.746094 C 25.566406 12.792969 25.308594 13.125 24.996094 13.484375 L 24.425781 14.136719 L 24.292969 27.902344 L 23.964844 28.269531 C 23.785156 28.472656 23.425781 28.75 23.167969 28.882812 L 22.707031 29.125 L 16.398438 29.140625 C 12.933594 29.148438 9.847656 29.125 9.542969 29.085938 Z M 9.542969 29.085938 "/>
<path style=" stroke:none;fill-rule:nonzero;fill:rgb(100%,100%,100%);fill-opacity:1;" d="M 10.292969 21.019531 L 10.292969 14.800781 L 21.816406 14.800781 L 21.816406 27.238281 L 10.292969 27.238281 Z M 10.292969 21.019531 "/>
<path style=" stroke:none;fill-rule:nonzero;fill:rgb(100%,100%,100%);fill-opacity:1;" d="M 21.160156 12.082031 C 21.160156 13.132812 20.328125 13.996094 19.277344 14.03125 C 18.230469 14.066406 17.339844 13.265625 17.265625 12.21875 C 17.191406 11.167969 17.960938 10.253906 19.003906 10.144531 C 20.050781 10.03125 20.996094 10.769531 21.140625 11.808594 "/>
<path style=" stroke:none;fill-rule:nonzero;fill:rgb(100%,100%,100%);fill-opacity:1;" d="M 13.308594 12.449219 C 13.308594 13.144531 12.761719 13.714844 12.066406 13.738281 C 11.375 13.761719 10.785156 13.230469 10.738281 12.539062 C 10.691406 11.847656 11.199219 11.242188 11.886719 11.167969 C 12.578125 11.097656 13.199219 11.582031 13.296875 12.269531 "/>
<path style=" stroke:none;fill-rule:nonzero;fill:rgb(100%,100%,100%);fill-opacity:1;" d="M 15.050781 8.671875 C 15.050781 9.3125 14.542969 9.839844 13.902344 9.863281 C 13.261719 9.882812 12.722656 9.394531 12.675781 8.753906 C 12.628906 8.117188 13.097656 7.554688 13.738281 7.488281 C 14.375 7.421875 14.949219 7.871094 15.039062 8.503906 "/>
<path style=" stroke:none;fill-rule:nonzero;fill:rgb(100%,100%,100%);fill-opacity:1;" d="M 16.007812 11.785156 C 16.007812 12.164062 15.710938 12.472656 15.332031 12.488281 C 14.957031 12.5 14.636719 12.210938 14.613281 11.835938 C 14.585938 11.460938 14.863281 11.132812 15.238281 11.089844 C 15.613281 11.050781 15.949219 11.316406 16.003906 11.691406 "/>
<path style=" stroke:none;fill-rule:nonzero;fill:rgb(100%,100%,100%);fill-opacity:1;" d="M 20.597656 8.15625 C 20.597656 8.535156 20.296875 8.839844 19.921875 8.855469 C 19.542969 8.871094 19.226562 8.582031 19.199219 8.207031 C 19.175781 7.832031 19.449219 7.5 19.824219 7.460938 C 20.199219 7.421875 20.535156 7.683594 20.589844 8.058594 "/>
<path style=" stroke:none;fill-rule:nonzero;fill:rgb(100%,100%,100%);fill-opacity:1;" d="M 15.003906 3.59375 C 15.003906 3.972656 14.707031 4.277344 14.328125 4.292969 C 13.953125 4.304688 13.632812 4.019531 13.605469 3.644531 C 13.582031 3.269531 13.855469 2.9375 14.230469 2.898438 C 14.605469 2.859375 14.941406 3.121094 14.996094 3.496094 "/>
<path style=" stroke:none;fill-rule:nonzero;fill:rgb(100%,100%,100%);fill-opacity:1;" d="M 17.578125 7.050781 C 17.578125 7.507812 17.21875 7.882812 16.761719 7.898438 C 16.308594 7.914062 15.917969 7.566406 15.886719 7.113281 C 15.855469 6.65625 16.191406 6.257812 16.644531 6.210938 C 17.097656 6.164062 17.507812 6.484375 17.570312 6.933594 "/>
</g>
</svg>
