
<svg xmlns="http://www.w3.org/2000/svg" xmlns:xlink="http://www.w3.org/1999/xlink" width="32px" height="32px" viewBox="0 0 32 32" version="1.1">
<g id="surface1">
<path style="fill-rule:nonzero;fill:rgb(100%,78.431374%,19.215687%);fill-opacity:1;stroke-width:28.191782;stroke-linecap:butt;stroke-linejoin:miter;stroke:rgb(60.000002%,63.137257%,6.27451%);stroke-opacity:1;stroke-miterlimit:4;" d="M 81.5 25.0625 L 430.5 25.0625 C 461.6875 25.0625 486.9375 50.3125 486.9375 81.5 L 486.9375 430.5 C 486.9375 461.6875 461.6875 486.9375 430.5 486.9375 L 81.5 486.9375 C 50.3125 486.9375 25.0625 461.6875 25.0625 430.5 L 25.0625 81.5 C 25.0625 50.3125 50.3125 25.0625 81.5 25.0625 Z M 81.5 25.0625 " transform="matrix(0.0625,0,0,0.0625,0,0)"/>
<path style=" stroke:none;fill-rule:nonzero;fill:rgb(100%,100%,100%);fill-opacity:1;" d="M 5.71875 10.859375 C 5.230469 10.859375 5.230469 12.328125 5.71875 12.328125 L 26.28125 12.328125 C 26.769531 12.328125 26.769531 10.859375 26.28125 10.859375 Z M 5.71875 15.265625 C 5.230469 15.265625 5.230469 16.734375 5.71875 16.734375 C 11.640625 16.734375 20.496094 16.734375 26.28125 16.734375 C 26.769531 16.734375 26.769531 15.265625 26.28125 15.265625 C 19.75 15.265625 11.25 15.265625 5.71875 15.265625 Z M 5.71875 19.671875 C 5.230469 19.671875 5.230469 21.140625 5.71875 21.140625 C 8.84375 21.140625 13.574219 21.140625 16 21.140625 C 16.488281 21.140625 16.488281 19.671875 16 19.671875 C 13.511719 19.671875 8.980469 19.671875 5.71875 19.671875 Z M 5.71875 19.671875 "/>
<path style=" stroke:none;fill-rule:nonzero;fill:rgb(100%,91.37255%,66.666669%);fill-opacity:1;" d="M 29.464844 21.082031 L 20.652344 29.390625 L 20.652344 23.851562 C 20.652344 22.328125 21.96875 21.082031 23.589844 21.082031 Z M 29.464844 21.082031 "/>
<path style=" stroke:none;fill-rule:nonzero;fill:rgb(100%,100%,100%);fill-opacity:1;" d="M 20.652344 29.390625 L 29.464844 21.082031 L 29.464844 26.621094 C 29.464844 28.144531 28.152344 29.390625 26.527344 29.390625 Z M 20.652344 29.390625 "/>
</g>
</svg>
