
<svg xmlns="http://www.w3.org/2000/svg" xmlns:xlink="http://www.w3.org/1999/xlink" width="32px" height="32px" viewBox="0 0 32 32" version="1.1">
<g id="surface1">
<path style="fill-rule:nonzero;fill:rgb(0%,63.921571%,87.843138%);fill-opacity:1;stroke-width:1.864801;stroke-linecap:butt;stroke-linejoin:miter;stroke:rgb(0%,38.039216%,52.156866%);stroke-opacity:1;stroke-miterlimit:4;" d="M 6.292674 263.830083 L 29.381983 263.830083 C 31.441323 263.830083 33.112608 265.501368 33.112608 267.560708 L 33.112608 290.645607 C 33.112608 292.709357 31.441323 294.376232 29.381983 294.376232 L 6.292674 294.376232 C 4.237744 294.376232 2.566459 292.709357 2.566459 290.645607 L 2.566459 267.560708 C 2.566459 265.501368 4.237744 263.830083 6.292674 263.830083 Z M 6.292674 263.830083 " transform="matrix(0.885827,0,0,0.885827,0,-231.090535)"/>
<path style=" stroke:none;fill-rule:nonzero;fill:rgb(100%,100%,100%);fill-opacity:1;" d="M 23.988281 11.28125 C 23.402344 11.542969 22.773438 11.71875 22.113281 11.796875 C 22.785156 11.394531 23.304688 10.753906 23.550781 9.988281 C 22.917969 10.363281 22.21875 10.636719 21.476562 10.78125 C 20.878906 10.148438 20.03125 9.75 19.089844 9.75 C 17.285156 9.75 15.824219 11.214844 15.824219 13.015625 C 15.824219 13.273438 15.855469 13.523438 15.910156 13.761719 C 13.195312 13.625 10.789062 12.324219 9.175781 10.347656 C 8.894531 10.832031 8.734375 11.394531 8.734375 11.988281 C 8.734375 13.125 9.3125 14.121094 10.1875 14.707031 C 9.652344 14.691406 9.148438 14.542969 8.707031 14.300781 C 8.707031 14.316406 8.707031 14.328125 8.707031 14.339844 C 8.707031 15.925781 9.835938 17.246094 11.328125 17.542969 C 11.054688 17.621094 10.765625 17.660156 10.46875 17.660156 C 10.257812 17.660156 10.054688 17.636719 9.855469 17.601562 C 10.269531 18.898438 11.476562 19.839844 12.90625 19.867188 C 11.785156 20.746094 10.378906 21.265625 8.847656 21.265625 C 8.585938 21.265625 8.324219 21.25 8.070312 21.222656 C 9.515625 22.148438 11.230469 22.6875 13.074219 22.6875 C 19.082031 22.6875 22.371094 17.710938 22.371094 13.394531 C 22.371094 13.253906 22.363281 13.113281 22.359375 12.972656 C 22.996094 12.511719 23.550781 11.9375 23.988281 11.28125 "/>
</g>
</svg>
