
<svg xmlns="http://www.w3.org/2000/svg" xmlns:xlink="http://www.w3.org/1999/xlink" width="32px" height="32px" viewBox="0 0 32 32" version="1.1">
<g id="surface1">
<path style="fill-rule:nonzero;fill:rgb(87.450981%,82.352942%,1.176471%);fill-opacity:1;stroke-width:22.636312;stroke-linecap:butt;stroke-linejoin:miter;stroke:rgb(6.27451%,27.450982%,63.137257%);stroke-opacity:1;stroke-miterlimit:4;" d="M 69.880198 24.609314 L 350.11876 24.609314 C 375.138229 24.609314 395.389643 44.860728 395.389643 69.880198 L 395.389643 350.11876 C 395.389643 375.138229 375.138229 395.389643 350.11876 395.389643 L 69.880198 395.389643 C 44.860728 395.389643 24.609314 375.138229 24.609314 350.11876 L 24.609314 69.880198 C 24.609314 44.860728 44.860728 24.609314 69.880198 24.609314 Z M 69.880198 24.609314 " transform="matrix(0.0761907,0,0,0.0761907,0,0)"/>
<path style=" stroke:none;fill-rule:nonzero;fill:rgb(100%,100%,100%);fill-opacity:1;" d="M 15.464844 24.910156 L 15.503906 23.539062 L 16.800781 23.539062 L 16.839844 24.910156 L 16.875 26.28125 L 18.171875 26.28125 L 18.207031 24.910156 L 18.246094 23.539062 L 19.582031 23.492188 C 20.316406 23.464844 21.019531 23.410156 21.144531 23.371094 C 21.988281 23.089844 23.015625 22.230469 23.367188 21.515625 C 23.910156 20.40625 23.898438 19.035156 23.332031 17.984375 C 23.074219 17.503906 22.402344 16.816406 21.921875 16.542969 C 21.722656 16.425781 21.320312 16.269531 21.023438 16.195312 C 20.730469 16.121094 20.488281 16.035156 20.488281 16.003906 C 20.484375 15.972656 20.699219 15.75 20.960938 15.511719 C 21.535156 14.996094 21.949219 14.375 22.183594 13.6875 C 22.445312 12.914062 22.433594 11.777344 22.148438 11.003906 C 21.574219 9.429688 20.226562 8.429688 18.4375 8.246094 L 18.246094 8.222656 L 18.207031 6.851562 L 18.171875 5.480469 L 16.875 5.480469 L 16.839844 6.851562 L 16.800781 8.222656 L 15.503906 8.222656 L 15.464844 6.851562 L 15.429688 5.480469 L 14.132812 5.480469 L 14.097656 6.851562 L 14.058594 8.222656 L 11.316406 8.261719 L 8.570312 8.300781 L 8.570312 9.519531 L 11.238281 9.597656 L 11.238281 22.167969 L 8.570312 22.242188 L 8.570312 23.460938 L 11.316406 23.5 L 14.058594 23.539062 L 14.078125 24.832031 C 14.089844 25.546875 14.113281 26.171875 14.132812 26.226562 C 14.160156 26.300781 14.339844 26.320312 14.800781 26.300781 L 15.429688 26.28125 Z M 15.464844 24.910156 "/>
<path style=" stroke:none;fill-rule:nonzero;fill:rgb(87.450981%,82.352942%,1.176471%);fill-opacity:1;" d="M 15.519531 22.234375 C 15.492188 22.203125 15.464844 21.089844 15.464844 19.761719 C 15.464844 17.628906 15.480469 17.339844 15.585938 17.300781 C 15.746094 17.238281 19.234375 17.238281 19.691406 17.300781 C 20.230469 17.375 20.933594 17.832031 21.269531 18.324219 C 21.65625 18.890625 21.835938 19.617188 21.71875 20.15625 C 21.527344 21.042969 21.050781 21.683594 20.304688 22.054688 C 19.929688 22.238281 19.886719 22.242188 17.75 22.265625 C 16.554688 22.277344 15.550781 22.265625 15.519531 22.234375 Z M 15.519531 22.234375 "/>
<path style=" stroke:none;fill-rule:nonzero;fill:rgb(87.450981%,82.352942%,1.176471%);fill-opacity:1;" d="M 15.558594 14.980469 C 15.488281 14.933594 15.46875 14.359375 15.484375 12.371094 L 15.503906 9.824219 L 16.953125 9.824219 C 18.394531 9.824219 18.402344 9.824219 18.847656 10.042969 C 19.417969 10.324219 19.804688 10.710938 20.082031 11.277344 C 20.277344 11.675781 20.304688 11.8125 20.304688 12.414062 C 20.300781 13.195312 20.144531 13.621094 19.660156 14.15625 C 19.019531 14.871094 18.460938 15.042969 16.84375 15.042969 C 16.191406 15.042969 15.613281 15.011719 15.558594 14.980469 Z M 15.558594 14.980469 "/>
</g>
</svg>
