
<svg xmlns="http://www.w3.org/2000/svg" xmlns:xlink="http://www.w3.org/1999/xlink" width="32px" height="32px" viewBox="0 0 32 32" version="1.1">
<g id="surface1">
<path style="fill-rule:nonzero;fill:rgb(100%,100%,100%);fill-opacity:1;stroke-width:28.191782;stroke-linecap:butt;stroke-linejoin:miter;stroke:rgb(6.27451%,60.784316%,63.137257%);stroke-opacity:1;stroke-miterlimit:4;" d="M 81.5 25.0625 L 430.5 25.0625 C 461.6875 25.0625 486.9375 50.3125 486.9375 81.5 L 486.9375 430.5 C 486.9375 461.6875 461.6875 486.9375 430.5 486.9375 L 81.5 486.9375 C 50.3125 486.9375 25.0625 461.6875 25.0625 430.5 L 25.0625 81.5 C 25.0625 50.3125 50.3125 25.0625 81.5 25.0625 Z M 81.5 25.0625 " transform="matrix(0.0625,0,0,0.0625,0,0)"/>
<path style=" stroke:none;fill-rule:nonzero;fill:rgb(20%,40.000001%,60.000002%);fill-opacity:1;" d="M 4.644531 17.746094 C 4.644531 15.925781 6.125 14.449219 7.949219 14.449219 C 8.824219 14.449219 9.664062 14.796875 10.28125 15.417969 C 10.902344 16.035156 11.25 16.871094 11.25 17.746094 C 11.25 19.566406 9.769531 21.042969 7.949219 21.042969 C 6.125 21.042969 4.644531 19.566406 4.644531 17.746094 Z M 4.644531 17.746094 "/>
<path style=" stroke:none;fill-rule:nonzero;fill:rgb(0.392157%,41.176471%,78.823531%);fill-opacity:1;" d="M 20.214844 18.195312 C 20.214844 16.332031 21.726562 14.824219 23.589844 14.824219 C 24.488281 14.824219 25.347656 15.179688 25.980469 15.8125 C 26.613281 16.445312 26.96875 17.304688 26.96875 18.199219 C 26.96875 20.058594 25.457031 21.570312 23.589844 21.570312 C 21.726562 21.566406 20.214844 20.058594 20.214844 18.195312 Z M 20.214844 18.195312 "/>
<path style="fill:none;stroke-width:22.816418;stroke-linecap:round;stroke-linejoin:round;stroke:rgb(26.274511%,26.274511%,26.274511%);stroke-opacity:1;stroke-miterlimit:10;" d="M 296.9375 274.25 L 363.6875 288.1875 " transform="matrix(0.0625,0,0,0.0625,0,0)"/>
<path style="fill:none;stroke-width:22.816418;stroke-linecap:round;stroke-linejoin:round;stroke:rgb(26.274511%,26.274511%,26.274511%);stroke-opacity:1;stroke-miterlimit:10;" d="M 143.75 281.625 L 188 277.875 " transform="matrix(0.0625,0,0,0.0625,0,0)"/>
<path style="fill:none;stroke-width:22.816418;stroke-linecap:round;stroke-linejoin:round;stroke:rgb(26.274511%,26.274511%,26.274511%);stroke-opacity:1;stroke-miterlimit:10;" d="M 248.8125 162.0625 L 251.6875 239.25 " transform="matrix(0.0625,0,0,0.0625,0,0)"/>
<path style=" stroke:none;fill-rule:nonzero;fill:rgb(66.666669%,66.666669%,66.666669%);fill-opacity:1;" d="M 11.980469 17.449219 C 11.980469 15.339844 13.667969 13.628906 15.75 13.628906 C 16.75 13.628906 17.710938 14.035156 18.417969 14.75 C 19.125 15.464844 19.519531 16.4375 19.519531 17.449219 C 19.519531 19.558594 17.832031 21.269531 15.75 21.269531 C 13.667969 21.269531 11.980469 19.558594 11.980469 17.449219 Z M 11.980469 17.449219 "/>
<path style=" stroke:none;fill-rule:nonzero;fill:rgb(83.137256%,0%,0%);fill-opacity:1;" d="M 12.242188 7.464844 C 12.242188 5.664062 13.703125 4.207031 15.503906 4.207031 C 16.371094 4.207031 17.199219 4.550781 17.8125 5.160156 C 18.425781 5.773438 18.769531 6.601562 18.769531 7.464844 C 18.769531 9.265625 17.308594 10.722656 15.503906 10.722656 C 13.703125 10.722656 12.242188 9.261719 12.242188 7.464844 Z M 12.242188 7.464844 "/>
<path style="fill:none;stroke-width:22.816418;stroke-linecap:round;stroke-linejoin:round;stroke:rgb(26.274511%,26.274511%,26.274511%);stroke-opacity:1;stroke-miterlimit:10;" d="M 264.5625 303.9375 L 303.4375 376.25 " transform="matrix(0.0625,0,0,0.0625,0,0)"/>
<path style=" stroke:none;fill-rule:nonzero;fill:rgb(20%,60.000002%,0%);fill-opacity:1;" d="M 15.855469 24.574219 C 15.855469 22.488281 17.550781 20.792969 19.640625 20.796875 C 20.644531 20.796875 21.609375 21.195312 22.316406 21.902344 C 23.027344 22.613281 23.425781 23.574219 23.425781 24.574219 C 23.425781 26.664062 21.730469 28.355469 19.640625 28.355469 C 17.550781 28.355469 15.855469 26.660156 15.855469 24.574219 Z M 15.855469 24.574219 "/>
</g>
</svg>
