
<svg xmlns="http://www.w3.org/2000/svg" xmlns:xlink="http://www.w3.org/1999/xlink" width="32px" height="32px" viewBox="0 0 32 32" version="1.1">
<defs>
<clipPath id="clip1">
  <path d="M 11.6875 4.75 L 20.5625 4.75 L 20.5625 27.3125 L 11.6875 27.3125 Z M 11.6875 4.75 "/>
</clipPath>
<clipPath id="clip2">
  <path d="M 5.679688 2.136719 L 26.464844 2.136719 C 28.441406 2.136719 30.042969 3.738281 30.042969 5.714844 L 30.042969 26.167969 C 30.042969 28.140625 28.441406 29.742188 26.464844 29.742188 L 5.679688 29.742188 C 3.703125 29.742188 2.101562 28.140625 2.101562 26.167969 L 2.101562 5.714844 C 2.101562 3.738281 3.703125 2.136719 5.679688 2.136719 Z M 5.679688 2.136719 "/>
</clipPath>
</defs>
<g id="surface1">
<path style="fill-rule:nonzero;fill:rgb(100%,27.058825%,0%);fill-opacity:1;stroke-width:28.191782;stroke-linecap:butt;stroke-linejoin:miter;stroke:rgb(35.294119%,9.803922%,0%);stroke-opacity:1;stroke-miterlimit:4;" d="M 81.5 25.0625 L 430.5 25.0625 C 461.6875 25.0625 486.9375 50.3125 486.9375 81.5 L 486.9375 430.5 C 486.9375 461.6875 461.6875 486.9375 430.5 486.9375 L 81.5 486.9375 C 50.3125 486.9375 25.0625 461.6875 25.0625 430.5 L 25.0625 81.5 C 25.0625 50.3125 50.3125 25.0625 81.5 25.0625 Z M 81.5 25.0625 " transform="matrix(0.0625,0,0,0.0625,0,0)"/>
<g clip-path="url(#clip1)" clip-rule="nonzero">
<g clip-path="url(#clip2)" clip-rule="nonzero">
<path style=" stroke:none;fill-rule:nonzero;fill:rgb(100%,98.039216%,98.039216%);fill-opacity:1;" d="M 16.382812 27.167969 C 16.417969 27.105469 16.449219 27.054688 16.484375 26.964844 C 16.492188 26.945312 16.585938 26.722656 16.707031 26.460938 C 16.824219 26.199219 16.988281 25.835938 17.070312 25.652344 C 17.152344 25.464844 17.246094 25.316406 17.273438 25.316406 C 17.464844 25.449219 17.839844 26.683594 17.964844 26.703125 C 18.019531 26.707031 18.0625 26.601562 18.097656 26.515625 C 18.117188 26.457031 18.222656 26.207031 18.386719 25.886719 C 18.710938 25.238281 18.714844 25.238281 19.019531 25.757812 C 19.128906 25.941406 19.253906 26.078125 19.304688 26.066406 C 19.417969 26.050781 19.703125 25.277344 19.957031 24.324219 C 20.542969 22.113281 20.675781 19.59375 20.3125 17.789062 C 19.988281 16.203125 19.238281 14.847656 18.160156 13.910156 C 17.949219 13.726562 17.773438 13.539062 17.773438 13.496094 C 17.773438 13.457031 17.839844 13.359375 17.925781 13.28125 C 18.144531 13.074219 18.410156 12.511719 18.472656 12.113281 C 18.625 11.167969 18.117188 10.152344 17.257812 9.683594 L 16.972656 9.523438 L 16.941406 7.339844 C 16.914062 5.527344 16.890625 5.136719 16.8125 5.042969 C 16.6875 4.890625 16.355469 4.753906 16.113281 4.753906 C 15.890625 4.753906 15.40625 4.929688 15.394531 5.015625 C 15.390625 5.046875 15.378906 5.101562 15.371094 5.136719 C 15.363281 5.171875 15.351562 6.179688 15.347656 7.375 L 15.339844 9.546875 L 14.960938 9.777344 C 14.269531 10.199219 13.871094 10.820312 13.816406 11.550781 C 13.765625 12.253906 13.894531 12.597656 14.539062 13.511719 C 14.585938 13.582031 14.496094 13.703125 14.144531 14.03125 C 13.511719 14.621094 13.019531 15.292969 12.617188 16.121094 C 12.082031 17.226562 11.910156 17.84375 11.746094 19.230469 C 11.613281 20.402344 11.785156 22.394531 12.144531 23.808594 C 12.332031 24.554688 12.695312 25.652344 12.800781 25.792969 C 12.882812 25.910156 12.90625 25.898438 13.242188 25.582031 C 13.457031 25.378906 13.613281 25.269531 13.640625 25.3125 C 13.664062 25.351562 13.777344 25.671875 13.894531 26.027344 C 14.015625 26.378906 14.15625 26.742188 14.179688 26.71875 C 14.605469 26.386719 14.738281 25.582031 15.148438 25.347656 C 15.246094 25.347656 16.046875 26.816406 16.152344 27.058594 C 16.183594 27.144531 16.238281 27.210938 16.257812 27.246094 C 16.289062 27.304688 16.324219 27.277344 16.382812 27.167969 Z M 16.382812 27.167969 "/>
</g>
</g>
</g>
</svg>
