
<svg xmlns="http://www.w3.org/2000/svg" xmlns:xlink="http://www.w3.org/1999/xlink" width="32px" height="32px" viewBox="0 0 32 32" version="1.1">
<g id="surface1">
<path style="fill-rule:nonzero;fill:rgb(100%,100%,100%);fill-opacity:1;stroke-width:28.191782;stroke-linecap:butt;stroke-linejoin:miter;stroke:rgb(100%,40.000001%,0%);stroke-opacity:1;stroke-miterlimit:4;" d="M 81.5 25.0625 L 430.5 25.0625 C 461.6875 25.0625 486.9375 50.3125 486.9375 81.5 L 486.9375 430.5 C 486.9375 461.6875 461.6875 486.9375 430.5 486.9375 L 81.5 486.9375 C 50.3125 486.9375 25.0625 461.6875 25.0625 430.5 L 25.0625 81.5 C 25.0625 50.3125 50.3125 25.0625 81.5 25.0625 Z M 81.5 25.0625 " transform="matrix(0.0625,0,0,0.0625,0,0)"/>
<path style=" stroke:none;fill-rule:nonzero;fill:rgb(100%,40.000001%,0%);fill-opacity:1;" d="M 12.519531 5.636719 C 11.957031 5.628906 11.488281 5.84375 11.289062 6.25 L 11.183594 6.476562 C 10.867188 7.128906 11.382812 8.023438 12.335938 8.480469 L 15.859375 10.175781 L 5.820312 11.566406 C 4.769531 11.707031 4.007812 12.402344 4.105469 13.121094 L 4.140625 13.371094 C 4.242188 14.085938 5.164062 14.550781 6.214844 14.402344 L 12.4375 13.542969 C 12.417969 13.5625 12.398438 13.582031 12.378906 13.605469 L 5.042969 21.847656 C 4.339844 22.636719 4.207031 23.664062 4.75 24.144531 L 4.933594 24.308594 C 5.476562 24.792969 6.480469 24.542969 7.183594 23.753906 L 11.253906 19.183594 C 11.820312 23.292969 15.355469 26.359375 19.535156 26.363281 C 24.152344 26.363281 27.902344 22.644531 27.902344 18.050781 C 27.898438 15.320312 26.542969 12.765625 24.277344 11.214844 C 24.078125 11.011719 23.824219 10.824219 23.527344 10.683594 L 13.578125 5.898438 C 13.222656 5.726562 12.855469 5.640625 12.519531 5.636719 Z M 19.535156 12.691406 C 22.492188 12.691406 24.894531 15.089844 24.894531 18.050781 C 24.894531 21.011719 22.492188 23.410156 19.535156 23.410156 C 16.574219 23.410156 14.171875 21.011719 14.171875 18.050781 C 14.171875 15.089844 16.574219 12.691406 19.535156 12.691406 Z M 19.535156 14.601562 C 17.628906 14.601562 16.082031 16.148438 16.082031 18.050781 C 16.082031 19.957031 17.628906 21.503906 19.535156 21.503906 C 21.4375 21.503906 22.980469 19.957031 22.980469 18.050781 C 22.980469 16.148438 21.4375 14.601562 19.535156 14.601562 Z M 19.535156 14.601562 "/>
</g>
</svg>
