
<svg xmlns="http://www.w3.org/2000/svg" xmlns:xlink="http://www.w3.org/1999/xlink" width="32px" height="32px" viewBox="0 0 32 32" version="1.1">
<g id="surface1">
<path style="fill-rule:nonzero;fill:rgb(100%,54.901963%,0%);fill-opacity:1;stroke-width:14.158265;stroke-linecap:butt;stroke-linejoin:miter;stroke:rgb(47.058824%,26.274511%,0.784314%);stroke-opacity:1;stroke-miterlimit:4;" d="M 40.34375 12.03125 L 215.65625 12.03125 C 231.28125 12.03125 243.96875 24.71875 243.96875 40.34375 L 243.96875 215.65625 C 243.96875 231.28125 231.28125 243.96875 215.65625 243.96875 L 40.34375 243.96875 C 24.71875 243.96875 12.03125 231.28125 12.03125 215.65625 L 12.03125 40.34375 C 12.03125 24.71875 24.71875 12.03125 40.34375 12.03125 Z M 40.34375 12.03125 " transform="matrix(0.125,0,0,0.125,0,0)"/>
<path style=" stroke:none;fill-rule:nonzero;fill:rgb(100%,100%,100%);fill-opacity:1;" d="M 21.183594 25.578125 C 22.339844 25.277344 23.183594 24.761719 24.082031 23.808594 C 25.527344 22.273438 25.785156 21.292969 25.785156 17.210938 C 25.785156 13.429688 25.792969 13.449219 23.789062 13.253906 C 23.210938 13.199219 22.675781 13.058594 22.550781 12.933594 C 22.425781 12.808594 22.324219 12.695312 22.324219 12.683594 C 22.324219 12.667969 22.226562 12.09375 22.105469 11.410156 C 21.714844 9.179688 20.460938 7.472656 18.570312 6.585938 C 17.824219 6.238281 17.496094 6.191406 15.261719 6.105469 C 11.964844 5.972656 10.566406 6.105469 9.449219 6.652344 C 8.324219 7.199219 7.171875 8.355469 6.613281 9.5 L 6.171875 10.402344 L 6.171875 21.371094 L 6.5625 22.199219 C 7.324219 23.8125 9.054688 25.25 10.699219 25.636719 C 11.019531 25.714844 13.3125 25.78125 15.792969 25.789062 C 19.375 25.800781 20.488281 25.757812 21.183594 25.578125 Z M 21.183594 25.578125 "/>
<path style=" stroke:none;fill-rule:nonzero;fill:rgb(100%,54.901963%,0%);fill-opacity:1;" d="M 12.257812 20.4375 C 11.535156 20.34375 11.355469 20.152344 11.355469 19.480469 C 11.355469 19.035156 11.433594 18.859375 11.695312 18.71875 C 12.105469 18.5 17.097656 18.351562 18.792969 18.511719 C 20.410156 18.660156 20.9375 19.246094 20.238281 20.113281 C 19.949219 20.46875 19.941406 20.46875 16.367188 20.488281 C 14.394531 20.496094 12.546875 20.472656 12.257812 20.4375 Z M 12.257812 20.4375 "/>
<path style=" stroke:none;fill-rule:nonzero;fill:rgb(100%,54.901963%,0%);fill-opacity:1;" d="M 12.183594 13.222656 C 11.53125 13.121094 11.355469 12.917969 11.355469 12.265625 C 11.355469 11.382812 11.613281 11.304688 14.492188 11.308594 C 16.882812 11.316406 16.960938 11.324219 17.234375 11.664062 C 17.59375 12.105469 17.589844 12.453125 17.230469 12.902344 C 16.957031 13.242188 16.859375 13.257812 14.789062 13.277344 C 13.605469 13.285156 12.429688 13.265625 12.183594 13.222656 Z M 12.183594 13.222656 "/>
</g>
</svg>
