
<svg xmlns="http://www.w3.org/2000/svg" xmlns:xlink="http://www.w3.org/1999/xlink" width="32px" height="32px" viewBox="0 0 32 32" version="1.1">
<g id="surface1">
<path style="fill-rule:nonzero;fill:rgb(100%,100%,100%);fill-opacity:1;stroke-width:6.899107;stroke-linecap:butt;stroke-linejoin:miter;stroke:rgb(0%,19.607843%,48.627451%);stroke-opacity:1;stroke-miterlimit:4;" d="M 405.868286 427.282389 L 491.274536 427.282389 C 498.899536 427.282389 505.087036 433.469889 505.087036 441.094889 L 505.087036 526.501139 C 505.087036 534.126139 498.899536 540.313639 491.274536 540.313639 L 405.868286 540.313639 C 398.243286 540.313639 392.055786 534.126139 392.055786 526.501139 L 392.055786 441.094889 C 392.055786 433.469889 398.243286 427.282389 405.868286 427.282389 Z M 405.868286 427.282389 " transform="matrix(0.25,0,0,0.25,-96.142853,-104.949504)"/>
<path style=" stroke:none;fill-rule:nonzero;fill:rgb(0%,20%,50.196081%);fill-opacity:1;" d="M 27.609375 4.410156 C 27.609375 4.378906 27.238281 4.636719 26.78125 4.984375 C 22.5 8.269531 17.144531 11.136719 14.148438 11.761719 L 13.585938 11.878906 L 13.371094 12.449219 C 12.625 14.445312 10.503906 15.859375 7.175781 16.582031 C 6.652344 16.691406 6.085938 16.855469 5.921875 16.941406 C 5.417969 17.199219 4.832031 17.796875 4.566406 18.320312 C 4.351562 18.746094 4.316406 18.925781 4.351562 19.496094 C 4.378906 19.980469 4.441406 20.234375 4.578125 20.382812 C 4.757812 20.582031 5.207031 20.6875 5.09375 20.503906 C 5.003906 20.359375 5.425781 19.898438 5.84375 19.683594 C 6.519531 19.339844 7.574219 19.175781 8.671875 19.191406 C 8.871094 19.199219 9.105469 19.207031 9.269531 19.21875 C 10.089844 19.277344 10.910156 19.433594 11.589844 19.691406 C 11.957031 19.832031 12.265625 19.996094 12.519531 20.183594 C 13.457031 20.675781 14.246094 21.308594 14.90625 22.042969 C 14.90625 22.019531 14.910156 21.996094 14.910156 21.972656 C 14.914062 21.488281 14.929688 21.09375 14.945312 21.09375 C 14.960938 21.09375 15.019531 21.214844 15.078125 21.371094 C 15.21875 21.738281 15.292969 22.121094 15.304688 22.511719 C 16.5625 24.097656 17.308594 26.054688 17.742188 27.945312 C 18.324219 26.9375 18.878906 25.605469 18.878906 25.058594 C 18.882812 24.253906 19.441406 25.835938 19.617188 27.152344 L 19.738281 28.0625 L 19.960938 27.511719 C 20.332031 26.589844 20.503906 25.621094 20.503906 24.488281 C 20.503906 23.902344 20.476562 23.324219 20.441406 23.207031 C 20.402344 23.09375 20.410156 22.996094 20.460938 22.996094 C 20.582031 22.996094 21.542969 23.976562 21.792969 24.351562 C 22.023438 24.707031 22.042969 24.550781 21.851562 23.832031 C 21.347656 21.941406 19.898438 20.152344 17.832031 18.878906 L 17.035156 18.386719 L 17.429688 18.375 C 17.648438 18.367188 17.964844 18.332031 18.128906 18.292969 L 18.429688 18.226562 L 17.628906 17.953125 L 18.269531 17.820312 C 18.625 17.75 19.234375 17.539062 19.625 17.355469 L 20.335938 17.015625 L 18.527344 17.089844 L 19.230469 16.851562 C 20.207031 16.519531 22.082031 15.535156 21.964844 15.417969 C 21.949219 15.402344 21.597656 15.472656 21.183594 15.582031 C 19.972656 15.894531 19.847656 15.824219 20.792969 15.371094 C 21.714844 14.925781 23.011719 14.089844 23.644531 13.527344 L 24.046875 13.175781 L 23.296875 13.511719 C 22.65625 13.800781 21.199219 14.277344 20.949219 14.277344 C 20.90625 14.277344 21.164062 14.121094 21.519531 13.9375 C 22.539062 13.40625 23.460938 12.703125 24.597656 11.589844 L 25.652344 10.554688 L 24.800781 11.003906 C 23.996094 11.433594 22.292969 12.195312 22.292969 12.132812 C 22.292969 12.117188 22.507812 11.949219 22.769531 11.765625 C 23.785156 11.046875 25.585938 9.148438 26.652344 7.671875 L 27.039062 7.136719 L 26.089844 7.878906 C 25.078125 8.667969 23.007812 10.011719 22.925781 9.925781 C 22.898438 9.902344 23 9.796875 23.152344 9.699219 C 23.59375 9.410156 25.542969 7.207031 26.613281 5.789062 C 27.160156 5.0625 27.609375 4.441406 27.609375 4.410156 Z M 27.609375 4.410156 "/>
</g>
</svg>
