
<svg xmlns="http://www.w3.org/2000/svg" xmlns:xlink="http://www.w3.org/1999/xlink" width="32px" height="32px" viewBox="0 0 32 32" version="1.1">
<g id="surface1">
<path style="fill-rule:nonzero;fill:rgb(100%,100%,100%);fill-opacity:1;stroke-width:28.191782;stroke-linecap:butt;stroke-linejoin:miter;stroke:rgb(30.19608%,30.19608%,30.19608%);stroke-opacity:1;stroke-miterlimit:4;" d="M 81.5 25.0625 L 430.5 25.0625 C 461.6875 25.0625 486.9375 50.3125 486.9375 81.5 L 486.9375 430.5 C 486.9375 461.6875 461.6875 486.9375 430.5 486.9375 L 81.5 486.9375 C 50.3125 486.9375 25.0625 461.6875 25.0625 430.5 L 25.0625 81.5 C 25.0625 50.3125 50.3125 25.0625 81.5 25.0625 Z M 81.5 25.0625 " transform="matrix(0.0625,0,0,0.0625,0,0)"/>
<path style=" stroke:none;fill-rule:nonzero;fill:rgb(30.19608%,30.19608%,30.19608%);fill-opacity:1;" d="M 9.363281 10.894531 L 14.339844 15.925781 L 9.363281 20.957031 L 10.949219 22.550781 L 15.082031 18.460938 L 15.082031 28.066406 L 22.636719 20.941406 L 18.058594 15.925781 L 22.621094 10.914062 L 15.125 3.933594 L 15.089844 13.496094 L 10.953125 9.304688 Z M 17.363281 8.640625 L 19.65625 10.824219 L 17.363281 13.652344 Z M 17.363281 18.679688 L 19.660156 21.027344 L 17.367188 23.210938 Z M 17.363281 18.679688 "/>
</g>
</svg>
