
<svg xmlns="http://www.w3.org/2000/svg" xmlns:xlink="http://www.w3.org/1999/xlink" width="32px" height="32px" viewBox="0 0 32 32" version="1.1">
<g id="surface1">
<path style="fill-rule:nonzero;fill:rgb(100%,100%,100%);fill-opacity:1;stroke-width:28.191782;stroke-linecap:butt;stroke-linejoin:miter;stroke:rgb(11.764706%,72.549021%,85.09804%);stroke-opacity:1;stroke-miterlimit:4;" d="M 81.5 25.0625 L 430.5 25.0625 C 461.6875 25.0625 486.9375 50.3125 486.9375 81.5 L 486.9375 430.5 C 486.9375 461.6875 461.6875 486.9375 430.5 486.9375 L 81.5 486.9375 C 50.3125 486.9375 25.0625 461.6875 25.0625 430.5 L 25.0625 81.5 C 25.0625 50.3125 50.3125 25.0625 81.5 25.0625 Z M 81.5 25.0625 " transform="matrix(0.0625,0,0,0.0625,0,0)"/>
<path style=" stroke:none;fill-rule:nonzero;fill:rgb(25.882354%,74.901962%,98.039216%);fill-opacity:1;" d="M 16.164062 24.410156 C 16.070312 24.316406 16.089844 24.207031 16.34375 23.554688 C 16.710938 22.605469 16.757812 22.410156 16.761719 21.875 C 16.761719 21.429688 16.753906 21.390625 16.644531 21.304688 C 16.582031 21.253906 16.480469 21.210938 16.410156 21.210938 C 16.128906 21.210938 14.886719 20.847656 13.996094 20.507812 C 12.496094 19.933594 10.421875 18.613281 9.089844 17.386719 C 8.933594 17.246094 8.789062 17.128906 8.765625 17.128906 C 8.742188 17.128906 8.699219 17.210938 8.664062 17.308594 C 8.589844 17.546875 8.214844 18.304688 8.078125 18.503906 C 7.464844 19.394531 6.691406 20.011719 5.800781 20.3125 C 5.320312 20.476562 4.746094 20.578125 4.316406 20.578125 C 3.738281 20.578125 3.675781 20.425781 4.027344 19.863281 C 4.628906 18.894531 5.109375 17.675781 5.316406 16.59375 C 5.402344 16.136719 5.390625 15.328125 5.292969 14.84375 C 5.128906 14.050781 4.777344 13.175781 4.222656 12.175781 C 3.839844 11.488281 3.8125 11.386719 3.949219 11.25 C 4.042969 11.15625 4.089844 11.148438 4.429688 11.179688 C 5.910156 11.308594 7.324219 12.285156 8.410156 13.933594 C 8.582031 14.191406 8.738281 14.40625 8.757812 14.40625 C 8.777344 14.40625 9.007812 14.222656 9.269531 14 C 10.300781 13.109375 11.714844 12.089844 12.621094 11.589844 C 13.167969 11.292969 13.425781 10.886719 13.46875 10.277344 C 13.511719 9.660156 13.277344 9.082031 12.59375 8.128906 C 12.394531 7.851562 12.207031 7.574219 12.171875 7.511719 C 12.035156 7.25 11.890625 7.261719 15.542969 7.261719 L 18.925781 7.261719 L 19.21875 7.378906 C 20.167969 7.765625 21.222656 8.824219 21.707031 9.875 L 21.914062 10.328125 L 22.253906 10.429688 C 23.160156 10.703125 24.261719 11.214844 25 11.714844 C 26.355469 12.621094 27.558594 13.984375 28.269531 15.425781 C 28.453125 15.789062 28.472656 15.871094 28.472656 16.175781 C 28.472656 16.582031 28.355469 16.835938 27.847656 17.523438 C 26.503906 19.339844 24.496094 20.519531 21.886719 21.035156 C 21.554688 21.097656 21.199219 21.167969 21.09375 21.183594 C 20.957031 21.207031 20.898438 21.246094 20.878906 21.324219 C 20.816406 21.570312 20.464844 22.164062 20.140625 22.570312 C 19.601562 23.246094 18.664062 24.078125 18.121094 24.363281 C 17.949219 24.457031 17.847656 24.46875 17.074219 24.46875 C 16.476562 24.46875 16.203125 24.449219 16.164062 24.410156 Z M 23.894531 17.019531 C 24.136719 16.9375 24.519531 16.667969 24.679688 16.464844 C 24.761719 16.363281 24.878906 16.152344 24.941406 15.992188 C 25.042969 15.746094 25.058594 15.640625 25.039062 15.300781 C 25.011719 14.792969 24.855469 14.457031 24.488281 14.121094 C 24.113281 13.777344 23.785156 13.660156 23.25 13.6875 C 22.894531 13.703125 22.792969 13.730469 22.527344 13.871094 C 22.175781 14.058594 21.929688 14.320312 21.75 14.699219 C 21.644531 14.921875 21.625 15.035156 21.625 15.378906 C 21.625 15.722656 21.644531 15.839844 21.753906 16.066406 C 21.988281 16.574219 22.46875 16.972656 22.96875 17.078125 C 23.207031 17.128906 23.660156 17.097656 23.894531 17.019531 Z M 23.011719 16.027344 C 22.777344 15.902344 22.65625 15.714844 22.632812 15.441406 C 22.605469 15.125 22.730469 14.902344 23.023438 14.753906 C 23.183594 14.667969 23.289062 14.644531 23.40625 14.667969 C 23.800781 14.742188 24.042969 15.035156 24.039062 15.421875 C 24.03125 15.917969 23.453125 16.257812 23.011719 16.027344 Z M 23.011719 16.027344 "/>
</g>
</svg>
