<!-- color: #b0d0da -->
<svg xmlns="http://www.w3.org/2000/svg" xmlns:xlink="http://www.w3.org/1999/xlink" width="32px" height="32px" viewBox="0 0 32 32" version="1.1">
<defs>
<clipPath id="clip1">
  <path d="M 11.625 11.625 L 20.5 11.625 L 20.5 20.5 L 11.625 20.5 Z M 11.625 11.625 "/>
</clipPath>
<clipPath id="clip2">
  <path d="M 38.277344 16.042969 C 38.277344 28.316406 28.332031 38.253906 16.070312 38.253906 C 3.808594 38.253906 -6.136719 28.316406 -6.136719 16.042969 C -6.136719 3.773438 3.808594 -6.164062 16.070312 -6.164062 C 28.332031 -6.164062 38.277344 3.773438 38.277344 16.042969 Z M 38.277344 16.042969 "/>
</clipPath>
<clipPath id="clip3">
  <path d="M 3.5 3.4375 L 28.625 3.4375 L 28.625 28.625 L 3.5 28.625 Z M 3.5 3.4375 "/>
</clipPath>
<clipPath id="clip4">
  <path d="M 38.277344 16.042969 C 38.277344 28.316406 28.332031 38.253906 16.070312 38.253906 C 3.808594 38.253906 -6.136719 28.316406 -6.136719 16.042969 C -6.136719 3.773438 3.808594 -6.164062 16.070312 -6.164062 C 28.332031 -6.164062 38.277344 3.773438 38.277344 16.042969 Z M 38.277344 16.042969 "/>
</clipPath>
</defs>
<g id="surface1">
<path style="fill-rule:nonzero;fill:rgb(100%,100%,100%);fill-opacity:1;stroke-width:6.876723;stroke-linecap:butt;stroke-linejoin:miter;stroke:rgb(14.117648%,28.627452%,51.764709%);stroke-opacity:1;stroke-miterlimit:4;" d="M 21.421875 7.671875 L 106.578125 7.671875 C 114.171875 7.671875 120.328125 13.828125 120.328125 21.421875 L 120.328125 106.578125 C 120.328125 114.171875 114.171875 120.328125 106.578125 120.328125 L 21.421875 120.328125 C 13.828125 120.328125 7.671875 114.171875 7.671875 106.578125 L 7.671875 21.421875 C 7.671875 13.828125 13.828125 7.671875 21.421875 7.671875 Z M 21.421875 7.671875 " transform="matrix(0.25,0,0,0.25,0,0)"/>
<g clip-path="url(#clip1)" clip-rule="nonzero">
<g clip-path="url(#clip2)" clip-rule="nonzero">
<path style=" stroke:none;fill-rule:nonzero;fill:rgb(97.647059%,72.941178%,9.411765%);fill-opacity:1;" d="M 20.484375 16.042969 C 20.484375 18.480469 18.507812 20.457031 16.070312 20.457031 C 13.632812 20.457031 11.65625 18.480469 11.65625 16.042969 C 11.65625 13.609375 13.632812 11.632812 16.070312 11.632812 C 18.507812 11.632812 20.484375 13.609375 20.484375 16.042969 M 20.484375 16.042969 "/>
</g>
</g>
<g clip-path="url(#clip3)" clip-rule="nonzero">
<g clip-path="url(#clip4)" clip-rule="nonzero">
<path style=" stroke:none;fill-rule:nonzero;fill:rgb(9.019608%,27.058825%,45.882353%);fill-opacity:1;" d="M 5.078125 3.492188 L 3.519531 5.050781 L 9.105469 10.644531 L 9.105469 10.664062 L 10.667969 12.226562 C 11.867188 10.535156 13.835938 9.421875 16.070312 9.421875 C 16.933594 9.421875 17.753906 9.605469 18.507812 9.902344 L 20.160156 8.25 C 18.9375 7.597656 17.558594 7.214844 16.070312 7.214844 C 14.035156 7.214844 12.160156 7.917969 10.667969 9.078125 M 27.0625 3.492188 L 21.472656 9.078125 C 21.464844 9.070312 21.460938 9.0625 21.449219 9.054688 L 19.886719 10.617188 C 21.589844 11.816406 22.691406 13.808594 22.691406 16.042969 C 22.691406 16.917969 22.511719 17.742188 22.207031 18.503906 L 23.863281 20.160156 C 24.519531 18.933594 24.902344 17.535156 24.902344 16.042969 C 24.902344 14.007812 24.195312 12.136719 23.035156 10.644531 L 28.621094 5.058594 L 27.058594 3.492188 M 8.277344 11.929688 C 7.617188 13.160156 7.238281 14.550781 7.238281 16.042969 C 7.238281 18.082031 7.945312 19.953125 9.105469 21.445312 L 3.519531 27.035156 L 5.082031 28.597656 L 6.734375 26.941406 L 6.714844 26.917969 L 12.207031 21.425781 C 10.539062 20.222656 9.449219 18.261719 9.449219 16.042969 C 9.449219 15.175781 9.628906 14.34375 9.929688 13.582031 L 8.277344 11.925781 M 21.472656 19.863281 C 20.273438 21.558594 18.304688 22.664062 16.070312 22.664062 C 15.179688 22.664062 14.339844 22.476562 13.566406 22.160156 L 11.910156 23.816406 C 13.152344 24.488281 14.5625 24.871094 16.070312 24.871094 C 18.105469 24.871094 19.980469 24.171875 21.472656 23.011719 L 27.058594 28.597656 L 28.625 27.035156 L 25.335938 23.722656 L 23.039062 21.449219 C 23.042969 21.441406 23.035156 21.425781 23.039062 21.425781 L 21.472656 19.859375 M 21.472656 19.863281 "/>
</g>
</g>
</g>
</svg>
