
<svg xmlns="http://www.w3.org/2000/svg" xmlns:xlink="http://www.w3.org/1999/xlink" width="32px" height="32px" viewBox="0 0 32 32" version="1.1">
<g id="surface1">
<path style="fill-rule:nonzero;fill:rgb(100%,100%,100%);fill-opacity:1;stroke-width:1.979637;stroke-linecap:butt;stroke-linejoin:miter;stroke:rgb(29.019609%,68.235296%,90.980393%);stroke-opacity:1;stroke-miterlimit:4;" d="M 5.807605 262.723265 L 30.316844 262.723265 C 32.504066 262.723265 34.276775 264.495974 34.276775 266.683196 L 34.276775 291.192435 C 34.276775 293.379658 32.504066 295.152366 30.316844 295.152366 L 5.807605 295.152366 C 3.620382 295.152366 1.847674 293.379658 1.847674 291.192435 L 1.847674 266.683196 C 1.847674 264.495974 3.620382 262.723265 5.807605 262.723265 Z M 5.807605 262.723265 " transform="matrix(0.885827,0,0,0.885827,0,-231.090556)"/>
<path style=" stroke:none;fill-rule:nonzero;fill:rgb(30.19608%,30.19608%,30.19608%);fill-opacity:1;" d="M 8.386719 8.386719 L 8.386719 23.613281 L 15.152344 23.613281 L 15.152344 20.230469 L 11.769531 20.230469 L 11.769531 11.769531 L 15.152344 11.769531 L 15.152344 8.386719 Z M 16.847656 8.386719 L 16.847656 11.769531 L 20.230469 11.769531 L 20.230469 20.230469 L 16.847656 20.230469 L 16.847656 23.613281 L 23.613281 23.613281 L 23.613281 8.386719 Z M 16.847656 8.386719 "/>
</g>
</svg>
