
<svg xmlns="http://www.w3.org/2000/svg" xmlns:xlink="http://www.w3.org/1999/xlink" width="32px" height="32px" viewBox="0 0 32 32" version="1.1">
<g id="surface1">
<path style="fill-rule:nonzero;fill:rgb(100%,100%,100%);fill-opacity:1;stroke-width:54.670116;stroke-linecap:butt;stroke-linejoin:miter;stroke:rgb(92.941177%,83.137256%,0%);stroke-opacity:1;stroke-miterlimit:4;" d="M 173.625 64.25 L 850.375 64.25 C 910.875 64.25 959.75 113.125 959.75 173.625 L 959.75 850.375 C 959.75 910.875 910.875 959.75 850.375 959.75 L 173.625 959.75 C 113.125 959.75 64.25 910.875 64.25 850.375 L 64.25 173.625 C 64.25 113.125 113.125 64.25 173.625 64.25 Z M 173.625 64.25 " transform="matrix(0.03125,0,0,0.03125,0,0)"/>
<path style=" stroke:none;fill-rule:nonzero;fill:rgb(94.117647%,76.47059%,6.27451%);fill-opacity:1;" d="M 11.839844 24.722656 C 11.035156 24.765625 10.0625 24.203125 9.648438 23.457031 C 9.542969 23.269531 9.453125 22.878906 9.472656 22.707031 C 9.496094 22.542969 9.589844 22.289062 9.636719 22.277344 C 9.683594 22.269531 12.691406 24.191406 12.703125 24.238281 C 12.714844 24.285156 12.550781 24.457031 12.402344 24.546875 C 12.246094 24.644531 12.023438 24.714844 11.839844 24.722656 Z M 11.839844 24.722656 "/>
<path style=" stroke:none;fill-rule:nonzero;fill:rgb(94.117647%,76.47059%,6.27451%);fill-opacity:1;" d="M 13.523438 24.191406 C 13.457031 24.175781 12.488281 23.574219 11.371094 22.863281 C 9.636719 21.75 9.332031 21.546875 9.277344 21.445312 C 9.089844 21.105469 9.332031 20.792969 9.722656 20.878906 C 9.847656 20.90625 13.511719 23.203125 13.804688 23.4375 C 14.066406 23.648438 14.136719 23.902344 13.988281 24.089844 C 13.902344 24.191406 13.683594 24.238281 13.523438 24.191406 Z M 13.523438 24.191406 "/>
<path style=" stroke:none;fill-rule:nonzero;fill:rgb(94.117647%,76.47059%,6.27451%);fill-opacity:1;" d="M 14.191406 23.121094 C 14.105469 23.097656 13.328125 22.621094 12.027344 21.789062 C 10.160156 20.597656 9.996094 20.480469 9.933594 20.359375 C 9.742188 19.996094 10.023438 19.707031 10.433594 19.835938 C 10.675781 19.914062 14.496094 22.355469 14.597656 22.496094 C 14.855469 22.863281 14.621094 23.222656 14.191406 23.121094 Z M 14.191406 23.121094 "/>
<path style=" stroke:none;fill-rule:nonzero;fill:rgb(94.117647%,76.47059%,6.27451%);fill-opacity:1;" d="M 14.992188 22.144531 C 14.9375 22.144531 14.839844 22.125 14.777344 22.105469 C 14.714844 22.082031 13.769531 21.496094 12.683594 20.800781 C 11.324219 19.933594 10.683594 19.507812 10.636719 19.4375 C 10.363281 19.050781 10.671875 18.683594 11.132812 18.847656 C 11.195312 18.871094 12.136719 19.457031 13.222656 20.152344 C 14.585938 21.019531 15.222656 21.445312 15.269531 21.515625 C 15.484375 21.820312 15.339844 22.140625 14.992188 22.144531 Z M 14.992188 22.144531 "/>
<path style=" stroke:none;fill-rule:nonzero;fill:rgb(92.941177%,83.137256%,0%);fill-opacity:1;" d="M 15.011719 20.636719 C 14.917969 20.609375 12.164062 18.863281 12.023438 18.738281 C 11.9375 18.667969 11.902344 18.605469 11.878906 18.503906 C 11.851562 18.386719 11.867188 18.328125 11.992188 18.03125 C 12.378906 17.125 12.546875 16.324219 12.527344 15.472656 C 12.519531 14.90625 12.472656 14.574219 12.253906 13.425781 C 12.144531 12.855469 12.042969 12.285156 12.035156 12.167969 C 11.972656 11.300781 12.121094 10.691406 12.546875 10.027344 C 13.859375 7.988281 16.726562 7.363281 19.347656 8.550781 C 19.777344 8.742188 20.402344 9.121094 20.796875 9.425781 C 21.640625 10.074219 22.339844 10.953125 22.785156 11.925781 C 22.941406 12.269531 22.964844 12.351562 23.105469 12.996094 C 23.253906 13.65625 23.261719 13.714844 23.257812 14.078125 C 23.246094 15 23.015625 15.800781 22.558594 16.503906 C 22.191406 17.074219 21.777344 17.449219 21.207031 17.734375 C 20.800781 17.9375 20.546875 18.027344 19.613281 18.300781 C 18.257812 18.691406 17.683594 18.917969 16.957031 19.355469 C 16.535156 19.605469 15.984375 20.019531 15.566406 20.402344 C 15.347656 20.605469 15.167969 20.683594 15.011719 20.636719 Z M 15.011719 20.636719 "/>
<path style=" stroke:none;fill-rule:nonzero;fill:rgb(20.784314%,29.019609%,36.862746%);fill-opacity:1;" d="M 11.839844 24.722656 C 11.035156 24.765625 10.0625 24.203125 9.648438 23.457031 C 9.542969 23.269531 9.453125 22.878906 9.472656 22.707031 C 9.496094 22.542969 9.589844 22.289062 9.636719 22.277344 C 9.683594 22.269531 12.691406 24.191406 12.703125 24.238281 C 12.714844 24.285156 12.550781 24.457031 12.402344 24.546875 C 12.246094 24.644531 12.023438 24.714844 11.839844 24.722656 Z M 13.523438 24.191406 C 13.457031 24.175781 12.488281 23.574219 11.371094 22.863281 C 9.636719 21.75 9.332031 21.546875 9.277344 21.445312 C 9.089844 21.105469 9.332031 20.792969 9.722656 20.878906 C 9.847656 20.90625 13.511719 23.203125 13.804688 23.4375 C 14.066406 23.648438 14.136719 23.902344 13.988281 24.089844 C 13.902344 24.191406 13.683594 24.238281 13.523438 24.191406 Z M 14.191406 23.121094 C 14.105469 23.097656 13.328125 22.621094 12.027344 21.789062 C 10.160156 20.597656 9.996094 20.480469 9.933594 20.359375 C 9.742188 19.996094 10.023438 19.707031 10.433594 19.835938 C 10.675781 19.914062 14.496094 22.355469 14.597656 22.496094 C 14.855469 22.863281 14.621094 23.222656 14.191406 23.121094 Z M 14.992188 22.144531 C 14.9375 22.144531 14.839844 22.125 14.777344 22.105469 C 14.714844 22.082031 13.769531 21.496094 12.683594 20.800781 C 11.324219 19.933594 10.683594 19.507812 10.636719 19.4375 C 10.363281 19.050781 10.671875 18.683594 11.132812 18.847656 C 11.195312 18.871094 12.136719 19.457031 13.222656 20.152344 C 14.585938 21.019531 15.222656 21.445312 15.269531 21.515625 C 15.484375 21.820312 15.339844 22.140625 14.992188 22.144531 Z M 14.992188 22.144531 "/>
</g>
</svg>
