
<svg xmlns="http://www.w3.org/2000/svg" xmlns:xlink="http://www.w3.org/1999/xlink" width="32px" height="32px" viewBox="0 0 32 32" version="1.1">
<defs>
<clipPath id="clip1">
  <path d="M 0.273438 0 L 32 0 L 32 32 L 0.273438 32 Z M 0.273438 0 "/>
</clipPath>
</defs>
<g id="surface1">
<path style=" stroke:none;fill-rule:nonzero;fill:rgb(87.843138%,29.411766%,14.901961%);fill-opacity:1;" d="M 30.0625 15.972656 C 30.0625 8.222656 23.765625 1.9375 16 1.9375 C 8.234375 1.9375 1.9375 8.222656 1.9375 15.972656 C 1.9375 23.722656 8.234375 30.007812 16 30.007812 C 23.765625 30.007812 30.0625 23.722656 30.0625 15.972656 Z M 30.0625 15.972656 "/>
<path style=" stroke:none;fill-rule:nonzero;fill:rgb(87.843138%,29.411766%,14.901961%);fill-opacity:1;" d="M 5.09375 1.566406 L 26.90625 1.566406 C 28.855469 1.566406 30.433594 3.144531 30.433594 5.09375 L 30.433594 26.90625 C 30.433594 28.855469 28.855469 30.433594 26.90625 30.433594 L 5.09375 30.433594 C 3.144531 30.433594 1.566406 28.855469 1.566406 26.90625 L 1.566406 5.09375 C 1.566406 3.144531 3.144531 1.566406 5.09375 1.566406 Z M 5.09375 1.566406 "/>
<g clip-path="url(#clip1)" clip-rule="nonzero">
<path style="fill:none;stroke-width:22.553425;stroke-linecap:butt;stroke-linejoin:miter;stroke:rgb(63.137257%,14.117648%,6.27451%);stroke-opacity:1;stroke-miterlimit:4;" d="M 61.71498 -455.839595 L 340.913791 -455.839595 C 365.863684 -455.839595 386.063598 -435.639681 386.063598 -410.689787 L 386.063598 -131.490976 C 386.063598 -106.541083 365.863684 -86.341169 340.913791 -86.341169 L 61.71498 -86.341169 C 36.765086 -86.341169 16.565172 -106.541083 16.565172 -131.490976 L 16.565172 -410.689787 C 16.565172 -435.639681 36.765086 -455.839595 61.71498 -455.839595 Z M 61.71498 -455.839595 " transform="matrix(0.0781253,0,0,0.0781253,0.272247,37.179026)"/>
</g>
<path style=" stroke:none;fill-rule:nonzero;fill:rgb(100%,100%,100%);fill-opacity:1;" d="M 21.035156 9.71875 C 21.582031 10.910156 21.683594 12.917969 20.585938 13.894531 C 18.726562 6.851562 14.136719 5.410156 14.136719 5.410156 C 14.675781 9.042969 12.167969 13.011719 9.742188 15.980469 C 9.660156 14.53125 9.566406 13.535156 8.808594 12.144531 C 8.636719 14.777344 6.625 16.921875 6.082031 19.558594 C 5.339844 23.128906 8.128906 27.0625 11.535156 28.316406 C 12.300781 28.597656 14.011719 28.964844 14.734375 29.121094 C 12.835938 27.667969 9.769531 24.960938 9.769531 22.613281 C 9.769531 20.167969 11.363281 19.054688 13.324219 19.054688 C 14.511719 19.054688 15.554688 19.636719 16.199219 20.523438 C 16.847656 19.636719 17.894531 19.054688 19.078125 19.054688 C 21.042969 19.054688 22.636719 20.644531 22.636719 22.613281 C 22.636719 24.847656 19.472656 27.628906 17.574219 29.121094 C 17.972656 28.972656 18.726562 28.792969 19.730469 28.222656 C 32.164062 21.121094 22.667969 10.910156 21.035156 9.71875 "/>
<path style=" stroke:none;fill-rule:nonzero;fill:rgb(87.843138%,29.411766%,14.901961%);fill-opacity:1;" d="M 19.144531 18.953125 C 21.128906 18.953125 22.742188 20.566406 22.742188 22.550781 C 22.742188 24.785156 19.484375 27.605469 17.558594 29.125 C 16.792969 29.292969 15.582031 29.316406 14.738281 29.125 C 12.820312 27.652344 9.730469 24.921875 9.730469 22.550781 C 9.730469 20.078125 11.339844 18.953125 13.328125 18.953125 C 14.527344 18.953125 15.582031 19.539062 16.238281 20.4375 C 16.890625 19.539062 17.949219 18.953125 19.144531 18.953125 "/>
<path style=" stroke:none;fill-rule:nonzero;fill:rgb(87.843138%,29.411766%,14.901961%);fill-opacity:1;" d="M 22.859375 21.5625 C 22.859375 18.21875 19.882812 15.511719 16.210938 15.511719 C 12.539062 15.511719 9.5625 18.21875 9.5625 21.5625 C 9.5625 24.90625 12.539062 27.613281 16.210938 27.613281 C 19.882812 27.613281 22.859375 24.90625 22.859375 21.5625 Z M 22.859375 21.5625 "/>
</g>
</svg>
