<!-- color: #474747 -->
<svg xmlns="http://www.w3.org/2000/svg" xmlns:xlink="http://www.w3.org/1999/xlink" width="32px" height="32px" viewBox="0 0 32 32" version="1.1">
<defs>
<clipPath id="clip1">
  <path d="M 5 5.75 L 27.1875 5.75 L 27.1875 26.3125 L 5 26.3125 Z M 5 5.75 "/>
</clipPath>
<clipPath id="clip2">
  <path d="M 35.722656 16.023438 C 35.722656 26.863281 26.9375 35.640625 16.109375 35.640625 C 5.28125 35.640625 -3.507812 26.863281 -3.507812 16.023438 C -3.507812 5.1875 5.28125 -3.589844 16.109375 -3.589844 C 26.9375 -3.589844 35.722656 5.1875 35.722656 16.023438 Z M 35.722656 16.023438 "/>
</clipPath>
</defs>
<g id="surface1">
<path style="fill-rule:nonzero;fill:rgb(100%,100%,100%);fill-opacity:1;stroke-width:6.807769;stroke-linecap:butt;stroke-linejoin:miter;stroke:rgb(92.156863%,20.784314%,16.862746%);stroke-opacity:1;stroke-miterlimit:4;" d="M 21.859375 8.234375 L 106.140625 8.234375 C 113.671875 8.234375 119.765625 14.328125 119.765625 21.859375 L 119.765625 106.140625 C 119.765625 113.671875 113.671875 119.765625 106.140625 119.765625 L 21.859375 119.765625 C 14.328125 119.765625 8.234375 113.671875 8.234375 106.140625 L 8.234375 21.859375 C 8.234375 14.328125 14.328125 8.234375 21.859375 8.234375 Z M 21.859375 8.234375 " transform="matrix(0.25,0,0,0.25,0,0)"/>
<g clip-path="url(#clip1)" clip-rule="nonzero">
<g clip-path="url(#clip2)" clip-rule="nonzero">
<path style=" stroke:none;fill-rule:nonzero;fill:rgb(83.137256%,0%,0%);fill-opacity:1;" d="M 12.785156 26.234375 C 11.8125 26.167969 10.914062 25.980469 10.191406 25.703125 C 9.75 25.535156 9.207031 25.257812 9.160156 25.179688 C 9.144531 25.15625 9.332031 24.683594 9.578125 24.128906 C 9.824219 23.570312 10.019531 23.089844 10.019531 23.0625 C 10.019531 23.003906 9.277344 21.316406 9.132812 21.039062 C 9.085938 20.945312 8.660156 20.417969 8.203125 19.863281 L 7.359375 18.855469 L 7.304688 18.40625 C 7.277344 18.164062 7.042969 16.359375 6.800781 14.394531 L 6.347656 10.828125 L 6.078125 10.792969 C 5.308594 10.699219 4.851562 10.027344 5.082031 9.332031 C 5.179688 9.039062 5.332031 8.859375 5.613281 8.695312 C 5.800781 8.589844 5.882812 8.570312 6.183594 8.570312 C 6.480469 8.570312 6.566406 8.585938 6.75 8.695312 C 7.03125 8.859375 7.183594 9.039062 7.28125 9.332031 C 7.449219 9.835938 7.230469 10.398438 6.761719 10.65625 C 6.707031 10.683594 7.054688 11.421875 8.476562 14.304688 C 9.457031 16.292969 10.265625 17.917969 10.269531 17.925781 C 10.277344 17.941406 10.773438 9.277344 10.769531 9.136719 C 10.765625 9.035156 10.738281 9.007812 10.566406 8.964844 C 10.285156 8.894531 10 8.679688 9.847656 8.417969 C 9.730469 8.222656 9.714844 8.148438 9.714844 7.847656 C 9.714844 7.539062 9.730469 7.472656 9.855469 7.269531 C 10.324219 6.515625 11.394531 6.515625 11.863281 7.269531 C 11.992188 7.46875 12.007812 7.535156 12.007812 7.847656 C 12.007812 8.160156 11.992188 8.222656 11.863281 8.429688 C 11.78125 8.566406 11.628906 8.714844 11.488281 8.808594 L 11.253906 8.964844 L 12.730469 13.175781 C 13.542969 15.496094 14.214844 17.390625 14.230469 17.390625 C 14.246094 17.390625 15.785156 8.792969 15.886719 8.117188 C 15.890625 8.097656 15.816406 8.050781 15.714844 8.015625 C 15.460938 7.925781 15.234375 7.738281 15.085938 7.492188 C 14.972656 7.308594 14.957031 7.222656 14.957031 6.925781 C 14.957031 6.621094 14.972656 6.554688 15.101562 6.351562 C 15.570312 5.597656 16.640625 5.597656 17.109375 6.351562 C 17.230469 6.550781 17.25 6.621094 17.25 6.925781 C 17.25 7.226562 17.230469 7.308594 17.121094 7.492188 C 16.972656 7.738281 16.75 7.925781 16.488281 8.015625 C 16.394531 8.050781 16.316406 8.097656 16.320312 8.117188 C 16.425781 8.796875 17.964844 17.390625 17.976562 17.390625 C 17.988281 17.390625 18.667969 15.496094 19.480469 13.175781 L 20.953125 8.964844 L 20.722656 8.808594 C 20.578125 8.71875 20.425781 8.566406 20.339844 8.429688 C 20.21875 8.230469 20.199219 8.160156 20.199219 7.847656 C 20.199219 7.539062 20.214844 7.472656 20.339844 7.269531 C 20.816406 6.515625 21.886719 6.515625 22.355469 7.269531 C 22.476562 7.46875 22.492188 7.539062 22.492188 7.847656 C 22.492188 8.144531 22.476562 8.222656 22.359375 8.417969 C 22.203125 8.679688 21.917969 8.894531 21.640625 8.964844 C 21.472656 9.003906 21.441406 9.03125 21.441406 9.136719 C 21.4375 9.277344 21.929688 17.941406 21.9375 17.925781 C 21.941406 17.917969 22.746094 16.292969 23.730469 14.304688 C 25.15625 11.417969 25.503906 10.683594 25.445312 10.65625 C 24.976562 10.398438 24.757812 9.835938 24.925781 9.332031 C 25.023438 9.039062 25.175781 8.859375 25.457031 8.695312 C 25.640625 8.589844 25.726562 8.570312 26.027344 8.570312 C 26.324219 8.570312 26.410156 8.585938 26.59375 8.695312 C 26.871094 8.859375 27.03125 9.039062 27.128906 9.332031 C 27.359375 10.027344 26.902344 10.699219 26.128906 10.792969 L 25.863281 10.828125 L 25.410156 14.394531 C 25.15625 16.359375 24.929688 18.164062 24.902344 18.40625 L 24.847656 18.855469 L 24.007812 19.863281 C 23.542969 20.417969 23.128906 20.941406 23.074219 21.039062 C 22.925781 21.3125 22.1875 23.003906 22.1875 23.0625 C 22.1875 23.089844 22.386719 23.570312 22.636719 24.128906 C 22.878906 24.683594 23.066406 25.15625 23.054688 25.179688 C 22.945312 25.355469 21.824219 25.816406 21.097656 25.988281 C 20.046875 26.234375 19.839844 26.246094 16.433594 26.257812 C 14.691406 26.265625 13.046875 26.253906 12.773438 26.234375 M 12.773438 26.234375 "/>
</g>
</g>
<path style=" stroke:none;fill-rule:nonzero;fill:rgb(82.352942%,89.803922%,95.294118%);fill-opacity:1;" d="M 16.78125 22.875 L 17.519531 21.449219 L 18.328125 20.605469 L 19.191406 20.398438 L 20.082031 20.550781 L 20.839844 20.980469 L 21.082031 21.394531 L 20.808594 22.53125 L 20.257812 23.289062 L 19.910156 23.667969 L 18.984375 23.925781 L 18.15625 23.789062 L 17.382812 23.410156 Z M 16.78125 22.875 "/>
<path style=" stroke:none;fill-rule:nonzero;fill:rgb(58.823532%,65.098041%,69.411767%);fill-opacity:1;" d="M 17.058594 22.238281 C 17.058594 22.238281 18.09375 20.941406 19.152344 21.042969 C 20.050781 21.128906 21.113281 21.484375 21.113281 21.484375 L 20.875 21.191406 L 20.082031 20.484375 L 18.707031 20.484375 L 18.019531 20.863281 L 17.503906 21.464844 Z M 17.058594 22.238281 "/>
<path style=" stroke:none;fill-rule:nonzero;fill:rgb(0%,0%,0%);fill-opacity:1;" d="M 17.128906 22.167969 C 17.128906 22.167969 18.035156 20.835938 19.117188 20.769531 C 20.019531 20.714844 21.113281 21.378906 21.113281 21.378906 L 20.875 21.136719 L 20.082031 20.484375 L 18.707031 20.484375 L 18.019531 20.835938 L 17.296875 21.761719 Z M 17.128906 22.167969 "/>
<path style=" stroke:none;fill-rule:evenodd;fill:rgb(0%,0%,0%);fill-opacity:1;" d="M 19.023438 20.257812 C 20.429688 20.097656 21.347656 21.191406 21.347656 21.191406 L 21.179688 21.289062 C 21.210938 22.390625 20.621094 23.410156 19.753906 23.808594 C 18.886719 24.199219 17.589844 23.976562 16.785156 22.917969 L 16.730469 22.851562 C 17.132812 21.730469 17.789062 20.398438 19.023438 20.257812 Z M 19.050781 20.566406 C 18.425781 20.582031 17.855469 21.152344 17.449219 21.726562 C 17.074219 22.265625 16.859375 22.761719 16.828125 22.832031 C 17.785156 23.863281 18.8125 24.007812 19.605469 23.648438 C 20.398438 23.285156 20.964844 22.410156 20.941406 21.378906 C 20.910156 21.332031 20.355469 20.527344 19.050781 20.566406 Z M 19.050781 20.566406 "/>
<path style=" stroke:none;fill-rule:evenodd;fill:rgb(100%,80.000001%,0%);fill-opacity:1;" d="M 20.070312 22.316406 C 20.070312 21.675781 19.566406 21.152344 18.949219 21.152344 C 18.328125 21.152344 17.824219 21.675781 17.824219 22.316406 C 17.824219 22.957031 18.328125 23.480469 18.949219 23.480469 C 19.566406 23.480469 20.070312 22.957031 20.070312 22.316406 Z M 20.070312 22.316406 "/>
<path style=" stroke:none;fill-rule:evenodd;fill:rgb(8.627451%,0.784314%,0%);fill-opacity:1;" d="M 19.34375 22.324219 C 19.34375 22.582031 19.136719 22.789062 18.878906 22.789062 C 18.621094 22.789062 18.414062 22.582031 18.414062 22.324219 C 18.414062 22.066406 18.621094 21.859375 18.878906 21.859375 C 19.136719 21.859375 19.34375 22.066406 19.34375 22.324219 Z M 19.34375 22.324219 "/>
<path style=" stroke:none;fill-rule:evenodd;fill:rgb(100%,100%,100%);fill-opacity:1;" d="M 18.707031 22.144531 C 18.707031 22.253906 18.621094 22.339844 18.511719 22.339844 C 18.402344 22.339844 18.3125 22.253906 18.3125 22.144531 C 18.3125 22.035156 18.402344 21.945312 18.511719 21.945312 C 18.621094 21.945312 18.707031 22.035156 18.707031 22.144531 Z M 18.707031 22.144531 "/>
<path style=" stroke:none;fill-rule:nonzero;fill:rgb(82.352942%,89.803922%,95.294118%);fill-opacity:1;" d="M 14.917969 23.207031 L 14.292969 22 L 13.605469 21.285156 L 12.878906 21.113281 L 12.121094 21.242188 L 11.480469 21.605469 L 11.277344 21.957031 L 11.511719 22.917969 L 11.976562 23.558594 L 12.269531 23.878906 L 13.054688 24.097656 L 13.753906 23.980469 L 14.410156 23.660156 Z M 14.917969 23.207031 "/>
<path style=" stroke:none;fill-rule:nonzero;fill:rgb(58.823532%,65.098041%,69.411767%);fill-opacity:1;" d="M 14.683594 22.667969 C 14.683594 22.667969 13.808594 21.574219 12.910156 21.65625 C 12.152344 21.730469 11.25 22.03125 11.25 22.03125 L 11.453125 21.78125 L 12.121094 21.183594 L 13.285156 21.183594 L 13.871094 21.503906 L 14.308594 22.011719 Z M 14.683594 22.667969 "/>
<path style=" stroke:none;fill-rule:nonzero;fill:rgb(0%,0%,0%);fill-opacity:1;" d="M 14.625 22.609375 C 14.625 22.609375 13.855469 21.480469 12.941406 21.425781 C 12.175781 21.378906 11.25 21.941406 11.25 21.941406 L 11.453125 21.738281 L 12.121094 21.183594 L 13.285156 21.183594 L 13.871094 21.480469 L 14.480469 22.261719 Z M 14.625 22.609375 "/>
<path style=" stroke:none;fill-rule:evenodd;fill:rgb(0%,0%,0%);fill-opacity:1;" d="M 13.019531 20.992188 C 11.832031 20.855469 11.054688 21.785156 11.054688 21.785156 L 11.195312 21.863281 C 11.167969 22.796875 11.667969 23.660156 12.402344 23.996094 C 13.136719 24.328125 14.230469 24.136719 14.914062 23.242188 L 14.960938 23.1875 C 14.617188 22.238281 14.066406 21.113281 13.019531 20.992188 Z M 12.996094 21.253906 C 13.527344 21.269531 14.007812 21.746094 14.347656 22.238281 C 14.667969 22.691406 14.851562 23.109375 14.875 23.167969 C 14.066406 24.042969 13.199219 24.164062 12.527344 23.863281 C 11.855469 23.554688 11.378906 22.8125 11.394531 21.941406 C 11.425781 21.898438 11.894531 21.21875 12.996094 21.253906 Z M 12.996094 21.253906 "/>
<path style=" stroke:none;fill-rule:evenodd;fill:rgb(100%,80.000001%,0%);fill-opacity:1;" d="M 12.132812 22.734375 C 12.132812 22.191406 12.558594 21.75 13.082031 21.75 C 13.605469 21.75 14.03125 22.191406 14.03125 22.734375 C 14.03125 23.277344 13.605469 23.714844 13.082031 23.714844 C 12.558594 23.714844 12.132812 23.277344 12.132812 22.734375 Z M 12.132812 22.734375 "/>
<path style=" stroke:none;fill-rule:evenodd;fill:rgb(8.627451%,0.784314%,0%);fill-opacity:1;" d="M 12.746094 22.742188 C 12.746094 22.957031 12.925781 23.136719 13.140625 23.136719 C 13.359375 23.136719 13.535156 22.957031 13.535156 22.742188 C 13.535156 22.523438 13.359375 22.347656 13.140625 22.347656 C 12.925781 22.347656 12.746094 22.523438 12.746094 22.742188 Z M 12.746094 22.742188 "/>
<path style=" stroke:none;fill-rule:evenodd;fill:rgb(100%,100%,100%);fill-opacity:1;" d="M 13.285156 22.589844 C 13.285156 22.679688 13.363281 22.753906 13.453125 22.753906 C 13.546875 22.753906 13.621094 22.679688 13.621094 22.589844 C 13.621094 22.496094 13.546875 22.421875 13.453125 22.421875 C 13.363281 22.421875 13.285156 22.496094 13.285156 22.589844 Z M 13.285156 22.589844 "/>
</g>
</svg>
