
<svg xmlns="http://www.w3.org/2000/svg" xmlns:xlink="http://www.w3.org/1999/xlink" width="32px" height="32px" viewBox="0 0 32 32" version="1.1">
<g id="surface1">
<path style="fill-rule:nonzero;fill:rgb(100%,100%,100%);fill-opacity:1;stroke-width:2.573321;stroke-linecap:butt;stroke-linejoin:miter;stroke:rgb(66.666669%,53.333336%,0%);stroke-opacity:1;stroke-miterlimit:4;" d="M -39.931641 2.923828 L -8.068359 2.923828 C -5.226562 2.923828 -2.923828 5.226562 -2.923828 8.068359 L -2.923828 39.931641 C -2.923828 42.773438 -5.226562 45.076172 -8.068359 45.076172 L -39.931641 45.076172 C -42.773438 45.076172 -45.076172 42.773438 -45.076172 39.931641 L -45.076172 8.068359 C -45.076172 5.226562 -42.773438 2.923828 -39.931641 2.923828 Z M -39.931641 2.923828 " transform="matrix(-0.666667,0,0,0.666667,0,0)"/>
<path style=" stroke:none;fill-rule:nonzero;fill:rgb(66.666669%,53.333336%,0%);fill-opacity:1;" d="M 4.101562 21.472656 L 13.550781 21.472656 C 13.84375 21.472656 14.082031 21.597656 14.082031 21.75 L 14.082031 23.957031 C 14.082031 24.113281 13.84375 24.238281 13.550781 24.238281 L 4.101562 24.238281 C 3.808594 24.238281 3.574219 24.113281 3.574219 23.957031 L 3.574219 21.75 C 3.574219 21.597656 3.808594 21.472656 4.101562 21.472656 Z M 4.101562 21.472656 "/>
<path style=" stroke:none;fill-rule:nonzero;fill:rgb(66.666669%,53.333336%,0%);fill-opacity:1;" d="M 8.828125 22.539062 C 10.832031 22.539062 12.472656 20.953125 12.472656 19.015625 C 12.472656 17.082031 10.828125 15.492188 8.828125 15.492188 C 6.828125 15.492188 5.1875 17.082031 5.1875 19.015625 C 5.1875 20.949219 6.828125 22.539062 8.828125 22.539062 M 8.828125 21.355469 C 7.480469 21.355469 6.410156 20.316406 6.410156 19.015625 C 6.410156 17.714844 7.484375 16.675781 8.828125 16.675781 C 10.175781 16.675781 11.25 17.714844 11.25 19.015625 C 11.25 20.316406 10.175781 21.355469 8.828125 21.355469 M 8.828125 21.355469 "/>
<path style=" stroke:none;fill-rule:nonzero;fill:rgb(66.666669%,53.333336%,0%);fill-opacity:1;" d="M 7.269531 19.019531 C 7.269531 18.183594 7.964844 17.511719 8.832031 17.511719 C 9.691406 17.511719 10.390625 18.1875 10.390625 19.019531 C 10.390625 19.855469 9.691406 20.527344 8.832031 20.527344 C 7.964844 20.527344 7.269531 19.855469 7.269531 19.019531 M 7.269531 19.019531 "/>
<path style=" stroke:none;fill-rule:nonzero;fill:rgb(66.666669%,53.333336%,0%);fill-opacity:1;" d="M 11.949219 17.511719 L 11.949219 12.984375 L 9.347656 12.480469 L 7.125 16.238281 L 9.445312 16.238281 M 11.949219 17.511719 "/>
<path style=" stroke:none;fill-rule:nonzero;fill:rgb(66.666669%,53.333336%,0%);fill-opacity:1;" d="M 11.425781 13.484375 C 12.855469 13.484375 14.027344 12.351562 14.027344 10.96875 C 14.027344 9.582031 12.855469 8.449219 11.425781 8.449219 C 9.996094 8.449219 8.824219 9.582031 8.824219 10.96875 C 8.824219 12.351562 9.996094 13.484375 11.425781 13.484375 M 11.425781 12.636719 C 10.464844 12.636719 9.699219 11.898438 9.699219 10.96875 C 9.699219 10.039062 10.464844 9.296875 11.425781 9.296875 C 12.386719 9.296875 13.15625 10.039062 13.15625 10.96875 C 13.15625 11.898438 12.386719 12.636719 11.425781 12.636719 M 11.425781 12.636719 "/>
<path style=" stroke:none;fill-rule:nonzero;fill:rgb(66.666669%,53.333336%,0%);fill-opacity:1;" d="M 21.003906 11.972656 C 22.109375 11.335938 22.511719 9.933594 21.894531 8.867188 C 21.277344 7.796875 19.863281 7.441406 18.757812 8.082031 C 17.652344 8.71875 17.253906 10.121094 17.871094 11.191406 C 18.488281 12.257812 19.902344 12.613281 21.003906 11.972656 M 20.558594 11.191406 C 19.753906 11.660156 19.128906 11.503906 18.675781 10.722656 C 18.230469 9.945312 18.40625 9.324219 19.214844 8.859375 C 20.015625 8.394531 20.644531 8.550781 21.09375 9.332031 C 21.542969 10.105469 21.363281 10.730469 20.558594 11.191406 M 20.558594 11.191406 "/>
<path style=" stroke:none;fill-rule:nonzero;fill:rgb(66.666669%,53.333336%,0%);fill-opacity:1;" d="M 20.023438 11.140625 C 20.65625 11.054688 21.113281 10.488281 21.042969 9.863281 C 20.972656 9.246094 20.402344 8.8125 19.773438 8.898438 L 11.398438 9.851562 C 10.765625 9.9375 10.308594 10.507812 10.378906 11.128906 C 10.445312 11.746094 11.015625 12.183594 11.644531 12.097656 M 20.027344 11.136719 "/>
<path style=" stroke:none;fill-rule:nonzero;fill:rgb(66.666669%,53.333336%,0%);fill-opacity:1;" d="M 25.011719 13.101562 C 25.667969 13.097656 26.199219 12.570312 26.195312 11.9375 C 26.191406 11.300781 25.648438 10.785156 24.992188 10.792969 C 24.335938 10.796875 23.804688 11.324219 23.808594 11.957031 C 23.8125 12.589844 24.355469 13.105469 25.011719 13.101562 M 25.011719 12.636719 C 24.53125 12.644531 24.292969 12.414062 24.289062 11.953125 C 24.285156 11.492188 24.519531 11.257812 25 11.253906 C 25.476562 11.25 25.714844 11.480469 25.722656 11.941406 C 25.722656 12.402344 25.488281 12.636719 25.011719 12.636719 M 25.011719 12.636719 "/>
<path style=" stroke:none;fill-rule:nonzero;fill:rgb(66.666669%,53.333336%,0%);fill-opacity:1;" d="M 24.914062 12.699219 C 25.304688 12.855469 25.75 12.675781 25.910156 12.300781 C 26.074219 11.925781 25.886719 11.492188 25.496094 11.335938 L 20.402344 9.167969 C 20.011719 9.011719 19.566406 9.191406 19.40625 9.570312 C 19.246094 9.945312 19.425781 10.378906 19.816406 10.53125 M 24.917969 12.699219 "/>
<path style=" stroke:none;fill-rule:nonzero;fill:rgb(66.666669%,53.333336%,0%);fill-opacity:1;" d="M 25.207031 12.230469 L 22.542969 13.796875 L 22.566406 16.890625 L 24.195312 17.8125 L 24.183594 16.691406 L 23.535156 16.324219 L 23.515625 14.347656 L 25.214844 13.347656 L 26.933594 14.324219 L 26.949219 16.292969 L 26.332031 16.660156 L 26.339844 17.777344 L 27.925781 16.847656 L 27.902344 13.753906 Z M 25.207031 12.230469 "/>
<path style=" stroke:none;fill-rule:nonzero;fill:rgb(66.666669%,53.333336%,0%);fill-opacity:1;" d="M 8.828125 22.539062 C 10.832031 22.539062 12.472656 20.953125 12.472656 19.015625 C 12.472656 17.082031 10.828125 15.492188 8.828125 15.492188 C 6.828125 15.492188 5.1875 17.082031 5.1875 19.015625 C 5.1875 20.949219 6.828125 22.539062 8.828125 22.539062 M 8.828125 21.355469 C 7.480469 21.355469 6.410156 20.316406 6.410156 19.015625 C 6.410156 17.714844 7.484375 16.675781 8.828125 16.675781 C 10.175781 16.675781 11.25 17.714844 11.25 19.015625 C 11.25 20.316406 10.175781 21.355469 8.828125 21.355469 M 8.828125 21.355469 "/>
<path style=" stroke:none;fill-rule:nonzero;fill:rgb(66.666669%,53.333336%,0%);fill-opacity:1;" d="M 7.269531 19.019531 C 7.269531 18.183594 7.964844 17.511719 8.832031 17.511719 C 9.691406 17.511719 10.390625 18.1875 10.390625 19.019531 C 10.390625 19.855469 9.691406 20.527344 8.832031 20.527344 C 7.964844 20.527344 7.269531 19.855469 7.269531 19.019531 M 7.269531 19.019531 "/>
<path style=" stroke:none;fill-rule:nonzero;fill:rgb(66.666669%,53.333336%,0%);fill-opacity:1;" d="M 11.949219 17.511719 L 11.949219 12.984375 L 9.347656 12.480469 L 7.125 16.238281 L 9.445312 16.238281 M 11.949219 17.511719 "/>
<path style=" stroke:none;fill-rule:nonzero;fill:rgb(66.666669%,53.333336%,0%);fill-opacity:1;" d="M 11.425781 13.484375 C 12.855469 13.484375 14.027344 12.351562 14.027344 10.96875 C 14.027344 9.582031 12.855469 8.449219 11.425781 8.449219 C 9.996094 8.449219 8.824219 9.582031 8.824219 10.96875 C 8.824219 12.351562 9.996094 13.484375 11.425781 13.484375 M 11.425781 12.636719 C 10.464844 12.636719 9.699219 11.898438 9.699219 10.96875 C 9.699219 10.039062 10.464844 9.296875 11.425781 9.296875 C 12.386719 9.296875 13.15625 10.039062 13.15625 10.96875 C 13.15625 11.898438 12.386719 12.636719 11.425781 12.636719 M 11.425781 12.636719 "/>
<path style=" stroke:none;fill-rule:nonzero;fill:rgb(66.666669%,53.333336%,0%);fill-opacity:1;" d="M 21.003906 11.972656 C 22.109375 11.335938 22.511719 9.933594 21.894531 8.867188 C 21.277344 7.796875 19.863281 7.441406 18.757812 8.082031 C 17.652344 8.71875 17.253906 10.121094 17.871094 11.191406 C 18.488281 12.257812 19.902344 12.613281 21.003906 11.972656 M 20.558594 11.191406 C 19.753906 11.660156 19.128906 11.503906 18.675781 10.722656 C 18.230469 9.945312 18.40625 9.324219 19.214844 8.859375 C 20.015625 8.394531 20.644531 8.550781 21.09375 9.332031 C 21.542969 10.105469 21.363281 10.730469 20.558594 11.191406 M 20.558594 11.191406 "/>
<path style=" stroke:none;fill-rule:nonzero;fill:rgb(66.666669%,53.333336%,0%);fill-opacity:1;" d="M 20.023438 11.140625 C 20.65625 11.054688 21.113281 10.488281 21.042969 9.863281 C 20.972656 9.246094 20.402344 8.8125 19.773438 8.898438 L 11.398438 9.851562 C 10.765625 9.9375 10.308594 10.507812 10.378906 11.128906 C 10.445312 11.746094 11.015625 12.183594 11.644531 12.097656 M 20.027344 11.136719 "/>
<path style=" stroke:none;fill-rule:nonzero;fill:rgb(66.666669%,53.333336%,0%);fill-opacity:1;" d="M 25.011719 13.101562 C 25.667969 13.097656 26.199219 12.570312 26.195312 11.9375 C 26.191406 11.300781 25.648438 10.785156 24.992188 10.792969 C 24.335938 10.796875 23.804688 11.324219 23.808594 11.957031 C 23.8125 12.589844 24.355469 13.105469 25.011719 13.101562 M 25.011719 12.636719 C 24.53125 12.644531 24.292969 12.414062 24.289062 11.953125 C 24.285156 11.492188 24.519531 11.257812 25 11.253906 C 25.476562 11.25 25.714844 11.480469 25.722656 11.941406 C 25.722656 12.402344 25.488281 12.636719 25.011719 12.636719 M 25.011719 12.636719 "/>
<path style=" stroke:none;fill-rule:nonzero;fill:rgb(66.666669%,53.333336%,0%);fill-opacity:1;" d="M 24.914062 12.699219 C 25.304688 12.855469 25.75 12.675781 25.910156 12.300781 C 26.074219 11.925781 25.886719 11.492188 25.496094 11.335938 L 20.402344 9.167969 C 20.011719 9.011719 19.566406 9.191406 19.40625 9.570312 C 19.246094 9.945312 19.425781 10.378906 19.816406 10.53125 M 24.917969 12.699219 "/>
<path style=" stroke:none;fill-rule:nonzero;fill:rgb(66.666669%,53.333336%,0%);fill-opacity:1;" d="M 25.207031 12.230469 L 22.542969 13.796875 L 22.566406 16.890625 L 24.195312 17.8125 L 24.183594 16.691406 L 23.535156 16.324219 L 23.515625 14.347656 L 25.214844 13.347656 L 26.933594 14.324219 L 26.949219 16.292969 L 26.332031 16.660156 L 26.339844 17.777344 L 27.925781 16.847656 L 27.902344 13.753906 Z M 25.207031 12.230469 "/>
</g>
</svg>
