
<svg xmlns="http://www.w3.org/2000/svg" xmlns:xlink="http://www.w3.org/1999/xlink" width="32px" height="32px" viewBox="0 0 32 32" version="1.1">
<g id="surface1">
<path style="fill-rule:nonzero;fill:rgb(40.784314%,30.19608%,20.392157%);fill-opacity:1;stroke-width:54.645298;stroke-linecap:butt;stroke-linejoin:miter;stroke:rgb(76.862746%,47.843137%,20.392157%);stroke-opacity:1;stroke-miterlimit:4;" d="M 173.75 64.375 L 850.25 64.375 C 910.625 64.375 959.625 113.375 959.625 173.75 L 959.625 850.25 C 959.625 910.625 910.625 959.625 850.25 959.625 L 173.75 959.625 C 113.375 959.625 64.375 910.625 64.375 850.25 L 64.375 173.75 C 64.375 113.375 113.375 64.375 173.75 64.375 Z M 173.75 64.375 " transform="matrix(0.03125,0,0,0.03125,0,0)"/>
<path style=" stroke:none;fill-rule:nonzero;fill:rgb(100%,100%,100%);fill-opacity:0.298039;" d="M 24.253906 11.210938 C 24.242188 11.199219 24.230469 11.1875 24.21875 11.175781 C 24.210938 11.167969 24.203125 11.160156 24.191406 11.152344 C 24.015625 10.984375 23.800781 10.902344 23.558594 10.902344 L 8.253906 10.902344 C 7.996094 10.902344 7.800781 10.824219 7.558594 11.125 C 7.394531 11.324219 7.417969 11.269531 7.417969 11.425781 L 7.414062 12.488281 C 7.414062 12.683594 7.371094 15.828125 7.472656 15.980469 C 7.636719 18.015625 8.464844 19.777344 9.949219 21.265625 C 10.503906 21.820312 11.097656 22.28125 11.710938 22.644531 C 11.699219 22.707031 11.691406 22.769531 11.691406 22.835938 L 11.691406 25.023438 C 11.691406 25.28125 11.785156 25.503906 11.96875 25.6875 C 11.976562 25.695312 11.984375 25.703125 11.996094 25.710938 C 11.996094 25.714844 12 25.71875 12.003906 25.722656 L 12.003906 25.71875 L 12.003906 25.722656 C 12.179688 25.882812 12.386719 25.960938 12.628906 25.960938 L 19.253906 25.960938 C 19.511719 25.960938 19.734375 25.871094 19.917969 25.6875 C 20.101562 25.503906 20.191406 25.28125 20.191406 25.023438 L 20.191406 22.835938 C 20.191406 22.792969 20.191406 22.753906 20.183594 22.710938 C 20.855469 22.328125 21.480469 21.847656 22.058594 21.265625 C 23.730469 19.59375 24.566406 17.574219 24.566406 15.210938 C 24.566406 15.042969 24.554688 14.429688 24.53125 13.371094 L 24.496094 11.839844 C 24.496094 11.597656 24.414062 11.386719 24.253906 11.210938 "/>
<path style=" stroke:none;fill-rule:nonzero;fill:rgb(100%,100%,100%);fill-opacity:1;" d="M 21.917969 8.464844 C 21.738281 8.28125 21.511719 8.191406 21.253906 8.191406 L 14.535156 8.191406 C 15.65625 7.835938 16.019531 6.878906 15.628906 5.316406 C 14.671875 6.941406 12.636719 6.964844 10.910156 7.503906 C 10.457031 7.644531 10.148438 7.832031 9.972656 8.070312 C 9.804688 8.296875 9.710938 8.636719 9.691406 9.089844 L 9.691406 10.941406 L 22.191406 10.941406 L 22.191406 9.128906 C 22.191406 8.871094 22.101562 8.644531 21.917969 8.464844 Z M 21.917969 8.464844 "/>
<path style=" stroke:none;fill-rule:nonzero;fill:rgb(25.098041%,19.215687%,13.725491%);fill-opacity:1;" d="M 22.226562 12.878906 L 22.191406 10.941406 L 9.691406 10.941406 L 9.691406 14.261719 C 9.707031 14.542969 9.722656 14.730469 9.738281 14.757812 C 9.863281 16.230469 10.464844 17.496094 11.550781 18.570312 C 12.777344 19.777344 14.253906 20.378906 15.988281 20.378906 C 17.714844 20.378906 19.191406 19.777344 20.417969 18.570312 C 21.640625 17.363281 22.253906 15.910156 22.253906 14.207031 C 22.253906 14.082031 22.246094 13.640625 22.226562 12.878906 Z M 22.226562 12.878906 "/>
</g>
</svg>
