
<svg xmlns="http://www.w3.org/2000/svg" xmlns:xlink="http://www.w3.org/1999/xlink" width="32px" height="32px" viewBox="0 0 32 32" version="1.1">
<g id="surface1">
<path style="fill-rule:nonzero;fill:rgb(100%,75.294119%,13.333334%);fill-opacity:1;stroke-width:26.401737;stroke-linecap:butt;stroke-linejoin:miter;stroke:rgb(100%,40.000001%,0%);stroke-opacity:1;stroke-miterlimit:4;" d="M 92.562497 45.886245 L 419.437497 45.886245 C 448.562497 45.886245 472.249997 69.573745 472.249997 98.698745 L 472.249997 425.573745 C 472.249997 454.698745 448.562497 478.386245 419.437497 478.386245 L 92.562497 478.386245 C 63.437497 478.386245 39.749997 454.698745 39.749997 425.573745 L 39.749997 98.698745 C 39.749997 69.573745 63.437497 45.886245 92.562497 45.886245 Z M 92.562497 45.886245 " transform="matrix(0.0625,0,0,0.0625,0.000000171542,-0.383515)"/>
<path style=" stroke:none;fill-rule:nonzero;fill:rgb(100%,100%,100%);fill-opacity:1;" d="M 19.929688 20.042969 L 19.929688 12.027344 L 21.875 12.027344 C 22.546875 12.027344 23.109375 12.128906 23.558594 12.332031 C 24.023438 12.519531 24.394531 12.800781 24.671875 13.167969 C 24.949219 13.535156 25.148438 13.980469 25.261719 14.503906 C 25.390625 15.015625 25.453125 15.589844 25.453125 16.230469 C 25.453125 16.933594 25.367188 17.527344 25.191406 18.011719 C 25.019531 18.5 24.789062 18.898438 24.496094 19.207031 C 24.207031 19.503906 23.878906 19.71875 23.507812 19.847656 C 23.136719 19.980469 22.753906 20.042969 22.363281 20.042969 Z M 17.199219 9.675781 L 17.199219 22.394531 L 22.550781 22.394531 C 23.503906 22.394531 24.324219 22.234375 25.019531 21.914062 C 25.726562 21.582031 26.3125 21.128906 26.773438 20.558594 C 27.25 19.988281 27.605469 19.3125 27.835938 18.53125 C 28.066406 17.746094 28.183594 16.890625 28.183594 15.964844 C 28.183594 14.910156 28.035156 13.988281 27.746094 13.203125 C 27.46875 12.417969 27.074219 11.765625 26.566406 11.246094 C 26.066406 10.722656 25.472656 10.332031 24.777344 10.066406 C 24.09375 9.808594 23.351562 9.675781 22.550781 9.675781 Z M 12.609375 13.949219 L 15.25 13.949219 C 15.167969 13.214844 14.972656 12.5625 14.660156 11.992188 C 14.347656 11.421875 13.949219 10.949219 13.460938 10.566406 C 12.984375 10.175781 12.441406 9.878906 11.828125 9.675781 C 11.222656 9.472656 10.582031 9.371094 9.898438 9.371094 C 8.949219 9.371094 8.089844 9.546875 7.324219 9.890625 C 6.574219 10.234375 5.9375 10.710938 5.414062 11.316406 C 4.894531 11.921875 4.496094 12.632812 4.214844 13.453125 C 3.9375 14.261719 3.800781 15.140625 3.800781 16.089844 C 3.800781 17.015625 3.9375 17.882812 4.214844 18.691406 C 4.496094 19.488281 4.894531 20.179688 5.414062 20.773438 C 5.9375 21.367188 6.574219 21.839844 7.324219 22.183594 C 8.089844 22.515625 8.949219 22.679688 9.898438 22.679688 C 10.664062 22.679688 11.363281 22.5625 12 22.324219 C 12.636719 22.085938 13.195312 21.742188 13.667969 21.292969 C 14.144531 20.839844 14.527344 20.292969 14.816406 19.652344 C 15.105469 19.011719 15.285156 18.292969 15.355469 17.496094 L 12.714844 17.496094 C 12.609375 18.351562 12.320312 19.042969 11.84375 19.5625 C 11.378906 20.085938 10.730469 20.347656 9.898438 20.347656 C 9.285156 20.347656 8.761719 20.230469 8.332031 19.988281 C 7.90625 19.742188 7.558594 19.414062 7.292969 19.011719 C 7.027344 18.605469 6.828125 18.15625 6.699219 17.65625 C 6.585938 17.144531 6.527344 16.625 6.527344 16.089844 C 6.527344 15.53125 6.585938 14.992188 6.699219 14.46875 C 6.828125 13.945312 7.027344 13.480469 7.292969 13.078125 C 7.558594 12.664062 7.90625 12.335938 8.332031 12.097656 C 8.761719 11.847656 9.285156 11.722656 9.898438 11.722656 C 10.234375 11.722656 10.550781 11.785156 10.855469 11.902344 C 11.167969 12.011719 11.445312 12.164062 11.6875 12.367188 C 11.933594 12.566406 12.132812 12.804688 12.296875 13.078125 C 12.457031 13.339844 12.5625 13.628906 12.609375 13.949219 Z M 12.609375 13.949219 "/>
</g>
</svg>
