
<svg xmlns="http://www.w3.org/2000/svg" xmlns:xlink="http://www.w3.org/1999/xlink" width="32px" height="32px" viewBox="0 0 32 32" version="1.1">
<g id="surface1">
<path style="fill-rule:nonzero;fill:rgb(90.196079%,90.196079%,90.196079%);fill-opacity:1;stroke-width:54.361431;stroke-linecap:butt;stroke-linejoin:miter;stroke:rgb(26.274511%,25.490198%,29.019609%);stroke-opacity:1;stroke-miterlimit:4;" d="M 175.5 66.75 L 848.5 66.75 C 908.625 66.75 957.25 115.375 957.25 175.5 L 957.25 848.5 C 957.25 908.625 908.625 957.25 848.5 957.25 L 175.5 957.25 C 115.375 957.25 66.75 908.625 66.75 848.5 L 66.75 175.5 C 66.75 115.375 115.375 66.75 175.5 66.75 Z M 175.5 66.75 " transform="matrix(0.03125,0,0,0.03125,0,0)"/>
<path style=" stroke:none;fill-rule:nonzero;fill:rgb(27.450982%,20%,10.588235%);fill-opacity:1;" d="M 11.0625 7.503906 C 11.0625 7.085938 10.855469 6.878906 10.4375 6.878906 L 6.355469 6.878906 C 5.941406 6.878906 5.730469 7.085938 5.730469 7.503906 L 5.730469 22.003906 C 5.730469 22.425781 5.941406 22.628906 6.355469 22.628906 L 10.4375 22.628906 C 10.855469 22.628906 11.0625 22.425781 11.0625 22.003906 Z M 11.0625 7.503906 "/>
<path style=" stroke:none;fill-rule:nonzero;fill:rgb(66.666669%,51.372552%,33.725491%);fill-opacity:1;" d="M 9.613281 10.105469 C 9.496094 9.984375 9.347656 9.925781 9.175781 9.925781 L 8.613281 9.925781 C 8.4375 9.925781 8.292969 9.984375 8.167969 10.105469 C 8.046875 10.230469 7.988281 10.375 7.988281 10.550781 L 7.988281 11.113281 C 7.988281 11.285156 8.046875 11.433594 8.167969 11.550781 C 8.292969 11.675781 8.4375 11.738281 8.613281 11.738281 L 9.175781 11.738281 C 9.347656 11.738281 9.496094 11.675781 9.613281 11.550781 C 9.738281 11.433594 9.800781 11.285156 9.800781 11.113281 L 9.800781 10.550781 C 9.800781 10.375 9.738281 10.230469 9.613281 10.105469 Z M 9.613281 13.730469 C 9.496094 13.609375 9.347656 13.550781 9.175781 13.550781 L 8.613281 13.550781 C 8.4375 13.550781 8.292969 13.609375 8.167969 13.730469 C 8.046875 13.855469 7.988281 14 7.988281 14.175781 L 7.988281 14.738281 C 7.988281 14.910156 8.046875 15.058594 8.167969 15.175781 C 8.292969 15.300781 8.4375 15.363281 8.613281 15.363281 L 9.175781 15.363281 C 9.347656 15.363281 9.496094 15.300781 9.613281 15.175781 C 9.738281 15.058594 9.800781 14.910156 9.800781 14.738281 L 9.800781 14.175781 C 9.800781 14 9.738281 13.855469 9.613281 13.730469 Z M 9.800781 17.800781 C 9.800781 17.625 9.738281 17.480469 9.613281 17.355469 C 9.496094 17.234375 9.347656 17.175781 9.175781 17.175781 L 8.613281 17.175781 C 8.4375 17.175781 8.292969 17.234375 8.167969 17.355469 C 8.046875 17.480469 7.988281 17.625 7.988281 17.800781 L 7.988281 18.363281 C 7.988281 18.535156 8.046875 18.683594 8.167969 18.800781 C 8.292969 18.925781 8.4375 18.988281 8.613281 18.988281 L 9.175781 18.988281 C 9.347656 18.988281 9.496094 18.925781 9.613281 18.800781 C 9.738281 18.683594 9.800781 18.535156 9.800781 18.363281 Z M 9.800781 21.425781 C 9.800781 21.25 9.738281 21.105469 9.613281 20.980469 C 9.496094 20.859375 9.347656 20.800781 9.175781 20.800781 L 8.613281 20.800781 C 8.4375 20.800781 8.292969 20.859375 8.167969 20.980469 C 8.046875 21.105469 7.988281 21.25 7.988281 21.425781 L 7.988281 21.988281 C 7.988281 22.160156 8.046875 22.308594 8.167969 22.425781 C 8.292969 22.550781 8.4375 22.613281 8.613281 22.613281 L 9.175781 22.613281 C 9.347656 22.613281 9.496094 22.550781 9.613281 22.425781 C 9.738281 22.308594 9.800781 22.160156 9.800781 21.988281 Z M 9.800781 21.425781 "/>
<path style=" stroke:none;fill-rule:nonzero;fill:rgb(28.235295%,31.37255%,32.156864%);fill-opacity:1;" d="M 16.5625 10.375 C 16.5625 9.957031 16.355469 9.75 15.9375 9.75 L 12 9.75 C 11.582031 9.75 11.375 9.957031 11.375 10.375 L 11.375 22.003906 C 11.375 22.425781 11.582031 22.628906 12 22.628906 L 15.9375 22.628906 C 16.355469 22.628906 16.5625 22.425781 16.5625 22.003906 Z M 16.5625 10.375 "/>
<path style=" stroke:none;fill-rule:nonzero;fill:rgb(79.607844%,87.058824%,89.019608%);fill-opacity:1;" d="M 16.578125 11.847656 L 16.578125 11.035156 L 11.390625 11.035156 L 11.390625 11.847656 Z M 16.578125 21.316406 L 16.578125 20.503906 L 11.390625 20.503906 L 11.390625 21.316406 Z M 16.578125 21.316406 "/>
<path style=" stroke:none;fill-rule:nonzero;fill:rgb(23.529412%,33.725491%,52.941179%);fill-opacity:1;" d="M 25.308594 12.230469 L 25.101562 11.703125 C 24.949219 11.316406 24.679688 11.199219 24.292969 11.347656 L 21.675781 12.378906 C 21.285156 12.535156 21.167969 12.800781 21.320312 13.191406 L 21.527344 13.714844 Z M 28.136719 21.125 C 28.527344 20.972656 28.644531 20.703125 28.492188 20.316406 L 25.535156 12.808594 L 21.757812 14.300781 L 24.710938 21.804688 C 24.863281 22.191406 25.132812 22.308594 25.519531 22.15625 Z M 26.6875 18.355469 C 27.074219 18.519531 27.339844 18.800781 27.496094 19.191406 C 27.648438 19.582031 27.640625 19.964844 27.472656 20.347656 C 27.308594 20.734375 27.027344 21.003906 26.636719 21.15625 C 26.25 21.308594 25.863281 21.300781 25.480469 21.136719 C 25.097656 20.96875 24.828125 20.691406 24.675781 20.300781 C 24.519531 19.910156 24.527344 19.523438 24.695312 19.140625 C 24.859375 18.757812 25.136719 18.488281 25.527344 18.335938 C 25.917969 18.183594 26.304688 18.1875 26.6875 18.355469 Z M 26.6875 18.355469 "/>
<path style=" stroke:none;fill-rule:nonzero;fill:rgb(32.549021%,46.666667%,73.333335%);fill-opacity:1;" d="M 25.535156 12.808594 L 25.308594 12.230469 L 21.527344 13.714844 L 21.757812 14.300781 Z M 25.535156 12.808594 "/>
<path style=" stroke:none;fill-rule:nonzero;fill:rgb(34.901962%,48.235294%,72.156864%);fill-opacity:1;" d="M 26.6875 18.355469 C 26.304688 18.1875 25.917969 18.183594 25.527344 18.335938 C 25.136719 18.488281 24.859375 18.757812 24.695312 19.140625 C 24.527344 19.523438 24.519531 19.910156 24.675781 20.300781 C 24.828125 20.691406 25.097656 20.96875 25.480469 21.136719 C 25.863281 21.300781 26.25 21.308594 26.636719 21.15625 C 27.027344 21.003906 27.308594 20.734375 27.472656 20.347656 C 27.640625 19.964844 27.648438 19.582031 27.496094 19.191406 C 27.339844 18.800781 27.074219 18.519531 26.6875 18.355469 Z M 26.6875 18.355469 "/>
<path style=" stroke:none;fill-rule:nonzero;fill:rgb(35.686275%,34.117648%,30.588236%);fill-opacity:1;" d="M 17.714844 7.925781 C 17.578125 7.820312 17.425781 7.777344 17.253906 7.800781 L 17.128906 7.816406 C 16.957031 7.839844 16.816406 7.917969 16.710938 8.054688 C 16.605469 8.191406 16.566406 8.34375 16.585938 8.515625 L 17.984375 19.558594 L 19.347656 19.382812 L 17.949219 8.34375 C 17.929688 8.171875 17.847656 8.03125 17.714844 7.925781 Z M 17.714844 7.925781 "/>
<path style=" stroke:none;fill-rule:nonzero;fill:rgb(55.686277%,53.333336%,48.235294%);fill-opacity:1;" d="M 19.121094 22.566406 C 19.292969 22.542969 19.433594 22.464844 19.539062 22.328125 C 19.644531 22.191406 19.683594 22.039062 19.664062 21.863281 L 19.347656 19.382812 L 17.984375 19.558594 L 18.300781 22.039062 C 18.320312 22.210938 18.402344 22.347656 18.535156 22.453125 C 18.671875 22.558594 18.824219 22.601562 18.996094 22.582031 Z M 19.121094 22.566406 "/>
<path style=" stroke:none;fill-rule:nonzero;fill:rgb(35.686275%,34.117648%,30.588236%);fill-opacity:1;" d="M 19.480469 7.980469 C 19.332031 7.886719 19.175781 7.863281 19.003906 7.902344 L 18.886719 7.929688 C 18.714844 7.96875 18.585938 8.0625 18.496094 8.207031 C 18.402344 8.355469 18.378906 8.511719 18.417969 8.683594 L 20.945312 19.519531 L 22.285156 19.207031 L 19.757812 8.371094 C 19.71875 8.199219 19.625 8.070312 19.480469 7.980469 Z M 19.480469 7.980469 "/>
<path style=" stroke:none;fill-rule:nonzero;fill:rgb(55.686277%,53.333336%,48.235294%);fill-opacity:1;" d="M 22.386719 22.394531 C 22.558594 22.355469 22.683594 22.261719 22.777344 22.113281 C 22.867188 21.96875 22.894531 21.8125 22.855469 21.644531 L 22.285156 19.207031 L 20.945312 19.519531 L 21.515625 21.957031 C 21.554688 22.125 21.644531 22.253906 21.792969 22.347656 C 21.941406 22.433594 22.097656 22.460938 22.265625 22.421875 Z M 22.386719 22.394531 "/>
<path style=" stroke:none;fill-rule:nonzero;fill:rgb(82.745099%,59.607846%,27.843139%);fill-opacity:1;" d="M 4.472656 22.507812 L 28.339844 22.507812 L 28.339844 24.8125 L 4.472656 24.8125 Z M 4.472656 22.507812 "/>
</g>
</svg>
