
<svg xmlns="http://www.w3.org/2000/svg" xmlns:xlink="http://www.w3.org/1999/xlink" width="32px" height="32px" viewBox="0 0 32 32" version="1.1">
<g id="surface1">
<path style="fill-rule:nonzero;fill:rgb(100%,100%,100%);fill-opacity:1;stroke-width:26.401737;stroke-linecap:butt;stroke-linejoin:miter;stroke:rgb(83.137256%,10.196079%,10.196079%);stroke-opacity:1;stroke-miterlimit:4;" d="M 92.5625 39.75 L 419.4375 39.75 C 448.5625 39.75 472.25 63.4375 472.25 92.5625 L 472.25 419.4375 C 472.25 448.5625 448.5625 472.25 419.4375 472.25 L 92.5625 472.25 C 63.4375 472.25 39.75 448.5625 39.75 419.4375 L 39.75 92.5625 C 39.75 63.4375 63.4375 39.75 92.5625 39.75 Z M 92.5625 39.75 " transform="matrix(0.0625,0,0,0.0625,0,0)"/>
<path style=" stroke:none;fill-rule:nonzero;fill:rgb(83.137256%,10.196079%,10.196079%);fill-opacity:1;" d="M 5.378906 2.660156 C 2.355469 2.660156 2.261719 2.648438 2.261719 8.089844 L 29.738281 8.085938 C 29.738281 2.722656 49346.175781 2.660156 26.765625 2.660156 Z M 6.902344 4.511719 C 7.378906 4.511719 7.765625 4.894531 7.765625 5.371094 C 7.765625 5.847656 7.378906 6.230469 6.902344 6.230469 C 6.421875 6.230469 6.035156 5.847656 6.035156 5.371094 C 6.035156 4.894531 6.421875 4.511719 6.902344 4.511719 Z M 25.234375 7572.886719 C 25.6875 7817.011719 26.058594 7573.253906 26.058594 7573.707031 C 270.183594 7574.160156 25.691406 7574.527344 25.234375 7574.527344 C 24.777344 7818.714844 24.40625 7574.160156 24.40625 7573.707031 C 268.59375 7573.253906 24.777344 7572.886719 25.234375 7572.886719 Z M 25.234375 7572.886719 "/>
<path style=" stroke:none;fill-rule:nonzero;fill:rgb(29.411766%,29.411766%,29.411766%);fill-opacity:1;" d="M 10.246094 20.816406 C 10.246094 22.613281 11.695312 24.050781 13.503906 24.050781 C 15.285156 24.050781 16.746094 22.613281 16.746094 20.816406 C 16.746094 19.539062 15.96875 18.402344 14.847656 17.902344 C 15.558594 17.488281 16.054688 16.765625 16.054688 15.855469 C 16.054688 14.472656 14.910156 13.375 13.519531 13.375 C 12.125 13.375 10.988281 14.472656 10.988281 15.855469 L 11.617188 15.855469 C 11.617188 14.835938 12.457031 14 13.519531 14 C 14.578125 14 15.417969 14.835938 15.417969 15.855469 C 15.417969 16.90625 14.542969 17.601562 13.519531 17.601562 L 13.519531 18.230469 C 14.953125 18.230469 16.125 19.40625 16.125 20.816406 C 16.125 22.246094 14.953125 23.425781 13.519531 23.425781 C 12.074219 23.425781 10.910156 22.246094 10.910156 20.816406 Z M 10.246094 20.816406 "/>
<path style=" stroke:none;fill-rule:nonzero;fill:rgb(29.411766%,29.411766%,29.411766%);fill-opacity:1;" d="M 21.117188 23.945312 L 21.753906 23.945312 L 21.753906 13.464844 L 19.628906 14.722656 L 19.945312 15.277344 L 21.089844 14.597656 Z M 21.117188 23.945312 "/>
</g>
</svg>
