
<svg xmlns="http://www.w3.org/2000/svg" xmlns:xlink="http://www.w3.org/1999/xlink" width="32px" height="32px" viewBox="0 0 32 32" version="1.1">
<g id="surface1">
<path style="fill-rule:nonzero;fill:rgb(12.941177%,40.392157%,47.058824%);fill-opacity:1;stroke-width:2.544986;stroke-linecap:butt;stroke-linejoin:miter;stroke:rgb(16.862746%,65.882355%,92.156863%);stroke-opacity:1;stroke-miterlimit:4;" d="M 8.244141 3.158203 L 39.755859 3.158203 C 42.568359 3.158203 44.841797 5.431641 44.841797 8.244141 L 44.841797 39.755859 C 44.841797 42.568359 42.568359 44.841797 39.755859 44.841797 L 8.244141 44.841797 C 5.431641 44.841797 3.158203 42.568359 3.158203 39.755859 L 3.158203 8.244141 C 3.158203 5.431641 5.431641 3.158203 8.244141 3.158203 Z M 8.244141 3.158203 " transform="matrix(0.666667,0,0,0.666667,0,0)"/>
<path style=" stroke:none;fill-rule:nonzero;fill:rgb(74.117649%,76.47059%,78.039217%);fill-opacity:1;" d="M 6.691406 6.691406 L 6.691406 11.347656 L 25.308594 11.347656 L 25.308594 6.691406 Z M 8.554688 7.625 L 10.417969 7.625 L 10.417969 10.417969 L 8.554688 10.417969 Z M 8.554688 7.625 "/>
<path style=" stroke:none;fill-rule:nonzero;fill:rgb(74.117649%,76.47059%,78.039217%);fill-opacity:1;" d="M 6.691406 13.675781 L 6.691406 18.324219 L 25.308594 18.324219 L 25.308594 13.675781 Z M 8.554688 14.605469 L 10.417969 14.605469 L 10.417969 17.394531 L 8.554688 17.394531 Z M 8.554688 14.605469 "/>
<path style=" stroke:none;fill-rule:nonzero;fill:rgb(74.117649%,76.47059%,78.039217%);fill-opacity:1;" d="M 6.691406 20.652344 L 6.691406 25.308594 L 25.308594 25.308594 L 25.308594 20.652344 Z M 8.554688 21.582031 L 10.417969 21.582031 L 10.417969 24.375 L 8.554688 24.375 Z M 8.554688 21.582031 "/>
<path style=" stroke:none;fill-rule:nonzero;fill:rgb(92.54902%,94.117647%,94.509804%);fill-opacity:1;" d="M 22.050781 6.691406 L 22.050781 11.347656 L 25.308594 11.347656 L 25.308594 6.691406 Z M 22.050781 6.691406 "/>
<path style=" stroke:none;fill-rule:nonzero;fill:rgb(92.54902%,94.117647%,94.509804%);fill-opacity:1;" d="M 22.050781 13.675781 L 22.050781 18.324219 L 25.308594 18.324219 L 25.308594 13.675781 Z M 22.050781 13.675781 "/>
<path style=" stroke:none;fill-rule:nonzero;fill:rgb(92.54902%,94.117647%,94.509804%);fill-opacity:1;" d="M 22.050781 20.652344 L 22.050781 25.308594 L 25.308594 25.308594 L 25.308594 20.652344 Z M 22.050781 20.652344 "/>
<path style=" stroke:none;fill-rule:nonzero;fill:rgb(58.431375%,64.705884%,65.098041%);fill-opacity:1;" d="M 6.691406 6.691406 L 6.691406 11.347656 L 8.554688 11.347656 L 8.554688 6.691406 Z M 6.691406 6.691406 "/>
<path style=" stroke:none;fill-rule:nonzero;fill:rgb(58.431375%,64.705884%,65.098041%);fill-opacity:1;" d="M 6.691406 13.675781 L 6.691406 18.324219 L 8.554688 18.324219 L 8.554688 13.675781 Z M 6.691406 13.675781 "/>
<path style=" stroke:none;fill-rule:nonzero;fill:rgb(58.431375%,64.705884%,65.098041%);fill-opacity:1;" d="M 6.691406 20.652344 L 6.691406 25.308594 L 8.554688 25.308594 L 8.554688 20.652344 Z M 6.691406 20.652344 "/>
</g>
</svg>
