
<svg xmlns="http://www.w3.org/2000/svg" xmlns:xlink="http://www.w3.org/1999/xlink" width="32px" height="32px" viewBox="0 0 32 32" version="1.1">
<g id="surface1">
<path style="fill-rule:nonzero;fill:rgb(100%,100%,100%);fill-opacity:1;stroke-width:2.576706;stroke-linecap:butt;stroke-linejoin:miter;stroke:rgb(16.862746%,65.882355%,92.156863%);stroke-opacity:1;stroke-miterlimit:4;" d="M 8.050781 2.894531 L 39.949219 2.894531 C 42.796875 2.894531 45.105469 5.203125 45.105469 8.050781 L 45.105469 39.949219 C 45.105469 42.796875 42.796875 45.105469 39.949219 45.105469 L 8.050781 45.105469 C 5.203125 45.105469 2.894531 42.796875 2.894531 39.949219 L 2.894531 8.050781 C 2.894531 5.203125 5.203125 2.894531 8.050781 2.894531 Z M 8.050781 2.894531 " transform="matrix(0.666667,0,0,0.666667,0,0)"/>
<path style=" stroke:none;fill-rule:nonzero;fill:rgb(20.392157%,59.607846%,85.882354%);fill-opacity:1;" d="M 10.292969 4.589844 L 21.707031 4.589844 L 21.707031 8.585938 L 10.292969 8.585938 Z M 10.292969 4.589844 "/>
<path style=" stroke:none;fill-rule:nonzero;fill:rgb(20.392157%,59.607846%,85.882354%);fill-opacity:1;" d="M 10.292969 10.933594 L 21.707031 10.933594 L 21.707031 14.925781 L 10.292969 14.925781 Z M 10.292969 10.933594 "/>
<path style=" stroke:none;fill-rule:nonzero;fill:rgb(20.392157%,59.607846%,85.882354%);fill-opacity:1;" d="M 15.714844 4.652344 L 16.285156 4.652344 L 16.285156 14.925781 L 15.714844 14.925781 Z M 15.714844 4.652344 "/>
<path style=" stroke:none;fill-rule:nonzero;fill:rgb(18.039216%,80.000001%,44.313726%);fill-opacity:1;" d="M 10.292969 12.644531 L 10.292969 13.214844 L 7.152344 13.214844 L 7.152344 12.644531 Z M 10.292969 12.644531 "/>
<path style=" stroke:none;fill-rule:nonzero;fill:rgb(18.039216%,80.000001%,44.313726%);fill-opacity:1;" d="M 24.847656 12.644531 L 24.847656 13.214844 L 21.707031 13.214844 L 21.707031 12.644531 Z M 24.847656 12.644531 "/>
<path style=" stroke:none;fill-rule:nonzero;fill:rgb(18.039216%,80.000001%,44.313726%);fill-opacity:1;" d="M 4.582031 17.78125 L 10.292969 17.78125 L 10.292969 21.777344 L 4.582031 21.777344 Z M 4.582031 17.78125 "/>
<path style=" stroke:none;fill-rule:nonzero;fill:rgb(18.039216%,80.000001%,44.313726%);fill-opacity:1;" d="M 21.707031 17.78125 L 27.417969 17.78125 L 27.417969 21.777344 L 21.707031 21.777344 Z M 21.707031 17.78125 "/>
<path style=" stroke:none;fill-rule:nonzero;fill:rgb(20.392157%,28.627452%,36.862746%);fill-opacity:1;" d="M 13.144531 23.488281 L 18.855469 23.488281 L 18.855469 27.484375 L 13.144531 27.484375 Z M 13.144531 23.488281 "/>
<path style=" stroke:none;fill-rule:nonzero;fill:rgb(18.039216%,80.000001%,44.313726%);fill-opacity:1;" d="M 7.722656 17.78125 L 7.152344 17.78125 L 7.152344 12.644531 L 7.722656 12.644531 Z M 7.722656 17.78125 "/>
<path style=" stroke:none;fill-rule:nonzero;fill:rgb(18.039216%,80.000001%,44.313726%);fill-opacity:1;" d="M 24.847656 17.78125 L 24.277344 17.78125 L 24.277344 12.644531 L 24.847656 12.644531 Z M 24.847656 17.78125 "/>
<path style=" stroke:none;fill-rule:nonzero;fill:rgb(18.039216%,80.000001%,44.313726%);fill-opacity:1;" d="M 15.714844 20.066406 L 16.285156 20.066406 L 16.285156 23.488281 L 15.714844 23.488281 Z M 15.714844 20.066406 "/>
<path style=" stroke:none;fill-rule:nonzero;fill:rgb(18.039216%,80.000001%,44.313726%);fill-opacity:1;" d="M 21.707031 19.496094 L 21.707031 20.066406 L 10.292969 20.066406 L 10.292969 19.496094 Z M 21.707031 19.496094 "/>
</g>
</svg>
