
<svg xmlns="http://www.w3.org/2000/svg" xmlns:xlink="http://www.w3.org/1999/xlink" width="32px" height="32px" viewBox="0 0 32 32" version="1.1">
<g id="surface1">
<path style="fill-rule:nonzero;fill:rgb(100%,100%,100%);fill-opacity:1;stroke-width:2.488199;stroke-linecap:butt;stroke-linejoin:miter;stroke:rgb(16.862746%,65.882355%,92.156863%);stroke-opacity:1;stroke-miterlimit:4;" d="M 8.595703 3.621094 L 39.404297 3.621094 C 42.152344 3.621094 44.378906 5.847656 44.378906 8.595703 L 44.378906 39.404297 C 44.378906 42.152344 42.152344 44.378906 39.404297 44.378906 L 8.595703 44.378906 C 5.847656 44.378906 3.621094 42.152344 3.621094 39.404297 L 3.621094 8.595703 C 3.621094 5.847656 5.847656 3.621094 8.595703 3.621094 Z M 8.595703 3.621094 " transform="matrix(0.666667,0,0,0.666667,0,0)"/>
<path style=" stroke:none;fill-rule:evenodd;fill:rgb(30.19608%,30.19608%,30.19608%);fill-opacity:1;" d="M 15.996094 6.105469 C 13.335938 6.105469 10.691406 7.203125 8.808594 9.082031 C 6.929688 10.964844 5.835938 13.609375 5.835938 16.269531 C 5.835938 18.933594 6.929688 21.574219 8.808594 23.457031 C 10.691406 25.339844 13.335938 26.433594 15.996094 26.433594 C 18.65625 26.4375 21.300781 25.339844 23.183594 23.457031 C 25.066406 21.578125 26.164062 18.933594 26.164062 16.269531 C 26.164062 13.609375 25.066406 10.964844 23.183594 9.082031 C 21.300781 7.199219 18.65625 6.105469 15.996094 6.105469 Z M 15.996094 6.105469 "/>
<path style=" stroke:none;fill-rule:evenodd;fill:rgb(74.117649%,76.47059%,78.039217%);fill-opacity:1;" d="M 14.644531 10.171875 L 14.644531 17.628906 L 22.097656 17.628906 L 22.097656 14.917969 L 17.355469 14.917969 L 17.355469 10.171875 Z M 14.644531 10.171875 "/>
</g>
</svg>
