
<svg xmlns="http://www.w3.org/2000/svg" xmlns:xlink="http://www.w3.org/1999/xlink" width="32px" height="32px" viewBox="0 0 32 32" version="1.1">
<g id="surface1">
<path style="fill-rule:nonzero;fill:rgb(17.254902%,24.313726%,31.37255%);fill-opacity:1;stroke-width:2.48309;stroke-linecap:butt;stroke-linejoin:miter;stroke:rgb(16.862746%,65.882355%,92.156863%);stroke-opacity:1;stroke-miterlimit:4;" d="M 8.630859 3.662109 L 39.369141 3.662109 C 42.111328 3.662109 44.337891 5.888672 44.337891 8.630859 L 44.337891 39.369141 C 44.337891 42.111328 42.111328 44.337891 39.369141 44.337891 L 8.630859 44.337891 C 5.888672 44.337891 3.662109 42.111328 3.662109 39.369141 L 3.662109 8.630859 C 3.662109 5.888672 5.888672 3.662109 8.630859 3.662109 Z M 8.630859 3.662109 " transform="matrix(0.666667,0,0,0.666667,0,0)"/>
<path style=" stroke:none;fill-rule:nonzero;fill:rgb(92.54902%,94.117647%,94.509804%);fill-opacity:1;" d="M 9.785156 9.222656 L 9.785156 9.984375 C 9.859375 9.980469 9.933594 9.976562 10.011719 9.976562 C 13.128906 9.976562 15.660156 12.503906 15.660156 15.621094 C 15.660156 17.957031 14.222656 20.050781 12.042969 20.890625 L 12.042969 19.765625 L 9.03125 19.765625 L 9.03125 22.777344 L 12.042969 22.777344 L 12.042969 21.6875 C 12.078125 21.675781 12.113281 21.660156 12.144531 21.648438 L 19.621094 21.648438 C 19.792969 22.3125 20.394531 22.777344 21.078125 22.777344 C 21.910156 22.777344 22.585938 22.101562 22.585938 21.269531 C 22.585938 20.441406 21.910156 19.765625 21.078125 19.765625 C 20.394531 19.765625 19.792969 20.230469 19.621094 20.894531 L 13.625 20.894531 C 15.363281 19.703125 16.40625 17.730469 16.410156 15.621094 C 16.410156 13.257812 15.101562 11.085938 13.011719 9.976562 L 20.324219 9.976562 L 20.324219 9.222656 Z M 9.785156 20.519531 L 11.292969 20.519531 L 11.292969 22.023438 L 9.785156 22.023438 Z M 21.078125 20.519531 C 21.496094 20.519531 21.832031 20.855469 21.832031 21.269531 C 21.832031 21.6875 21.496094 22.023438 21.078125 22.023438 C 20.664062 22.023438 20.324219 21.6875 20.324219 21.269531 C 20.324219 20.855469 20.664062 20.519531 21.078125 20.519531 Z M 21.078125 20.519531 "/>
</g>
</svg>
