
<svg xmlns="http://www.w3.org/2000/svg" xmlns:xlink="http://www.w3.org/1999/xlink" width="32px" height="32px" viewBox="0 0 32 32" version="1.1">
<g id="surface1">
<path style="fill-rule:nonzero;fill:rgb(20.392157%,28.627452%,36.862746%);fill-opacity:1;stroke-width:2.611181;stroke-linecap:butt;stroke-linejoin:miter;stroke:rgb(16.078432%,50.196081%,72.549021%);stroke-opacity:1;stroke-miterlimit:4;" d="M 7.851562 2.882812 L 40.183594 2.882812 C 43.066406 2.882812 45.404297 5.220703 45.404297 8.103516 L 45.404297 40.435547 C 45.404297 43.318359 43.066406 45.65625 40.183594 45.65625 L 7.851562 45.65625 C 4.96875 45.65625 2.630859 43.318359 2.630859 40.435547 L 2.630859 8.103516 C 2.630859 5.220703 4.96875 2.882812 7.851562 2.882812 Z M 7.851562 2.882812 " transform="matrix(0.666667,0,0,0.666667,0,0)"/>
<path style=" stroke:none;fill-rule:nonzero;fill:rgb(90.588236%,29.803923%,23.529412%);fill-opacity:1;" d="M 20 2.667969 L 27.332031 2.667969 L 27.332031 10 L 23.667969 7.332031 L 20 10 Z M 20 2.667969 "/>
<path style=" stroke:none;fill-rule:nonzero;fill:rgb(16.078432%,50.196081%,72.549021%);fill-opacity:1;" d="M 2.269531 2.667969 L 9.332031 2.667969 L 9.332031 29.8125 L 2.269531 29.8125 Z M 2.269531 2.667969 "/>
<path style=" stroke:none;fill-rule:nonzero;fill:rgb(92.54902%,94.117647%,94.509804%);fill-opacity:1;" d="M 24.332031 10 C 24.332031 10 21.148438 10.496094 18.058594 12.355469 C 18.617188 12.8125 19.105469 13.371094 19.488281 14.035156 C 19.605469 14.230469 19.703125 14.433594 19.792969 14.636719 C 19.175781 13.792969 18.363281 13.152344 17.464844 12.734375 C 17.113281 12.964844 16.769531 13.222656 16.433594 13.492188 C 16.558594 13.664062 16.675781 13.847656 16.785156 14.035156 C 16.902344 14.230469 17 14.433594 17.089844 14.636719 C 16.828125 14.285156 16.535156 13.96875 16.214844 13.6875 C 14.070312 15.496094 12.332031 18.136719 12.332031 22 C 12.332031 22 14.839844 18.386719 19.128906 17.042969 C 17.777344 16.632812 16.285156 16.691406 14.917969 17.292969 C 15.097656 17.160156 15.285156 17.035156 15.484375 16.917969 C 17.125 15.972656 19.015625 15.871094 20.65625 16.480469 C 24.144531 14.722656 24.332031 10 24.332031 10 Z M 24.332031 10 "/>
</g>
</svg>
