<!-- color: #eeeeee -->
<svg xmlns="http://www.w3.org/2000/svg" xmlns:xlink="http://www.w3.org/1999/xlink" width="32px" height="32px" viewBox="0 0 32 32" version="1.1">
<defs>
<clipPath id="clip1">
  <path d="M 8.9375 8.5 L 23.8125 8.5 L 23.8125 23.332031 L 8.9375 23.332031 Z M 8.9375 8.5 "/>
</clipPath>
<clipPath id="clip2">
  <path d="M 30.5625 15.925781 C 30.5625 23.761719 24.210938 30.105469 16.382812 30.105469 C 8.558594 30.105469 2.207031 23.761719 2.207031 15.925781 C 2.207031 8.09375 8.558594 1.75 16.382812 1.75 C 24.210938 1.75 30.5625 8.09375 30.5625 15.925781 Z M 30.5625 15.925781 "/>
</clipPath>
</defs>
<g id="surface1">
<path style="fill-rule:nonzero;fill:rgb(89.803922%,89.803922%,89.803922%);fill-opacity:1;stroke-width:6.749033;stroke-linecap:butt;stroke-linejoin:miter;stroke:rgb(54.509807%,54.509807%,54.509807%);stroke-opacity:1;stroke-miterlimit:4;" d="M 22.21875 8.71875 L 105.78125 8.71875 C 113.234375 8.71875 119.28125 14.765625 119.28125 22.21875 L 119.28125 105.78125 C 119.28125 113.234375 113.234375 119.28125 105.78125 119.28125 L 22.21875 119.28125 C 14.765625 119.28125 8.71875 113.234375 8.71875 105.78125 L 8.71875 22.21875 C 8.71875 14.765625 14.765625 8.71875 22.21875 8.71875 Z M 22.21875 8.71875 " transform="matrix(0.25,0,0,0.25,0,0)"/>
<g clip-path="url(#clip1)" clip-rule="nonzero">
<g clip-path="url(#clip2)" clip-rule="nonzero">
<path style=" stroke:none;fill-rule:nonzero;fill:rgb(6.27451%,52.549022%,72.549021%);fill-opacity:1;" d="M 23.78125 9.746094 C 23.78125 9.746094 22.546875 11.605469 20.699219 11.605469 C 18.972656 11.269531 18.292969 11.550781 18.234375 11.605469 L 18.234375 19.066406 C 18.152344 20.640625 16.863281 22.21875 14.945312 22.941406 C 12.511719 23.863281 9.933594 23.0625 9.191406 21.148438 C 8.445312 19.238281 9.808594 16.921875 12.246094 16.003906 C 14.128906 15.292969 15.863281 15.46875 17 16.535156 L 17 9.132812 C 19.464844 7.492188 21.757812 9.722656 23.78125 9.75 M 23.78125 9.746094 "/>
</g>
</g>
</g>
</svg>
