
<svg xmlns="http://www.w3.org/2000/svg" xmlns:xlink="http://www.w3.org/1999/xlink" width="32px" height="32px" viewBox="0 0 32 32" version="1.1">
<g id="surface1">
<path style="fill-rule:nonzero;fill:rgb(100%,100%,0%);fill-opacity:1;stroke-width:26.850443;stroke-linecap:butt;stroke-linejoin:miter;stroke:rgb(20%,20%,20%);stroke-opacity:1;stroke-miterlimit:4;" d="M 89.8125 36.0625 L 422.1875 36.0625 C 451.875 36.0625 475.9375 60.125 475.9375 89.8125 L 475.9375 422.1875 C 475.9375 451.875 451.875 475.9375 422.1875 475.9375 L 89.8125 475.9375 C 60.125 475.9375 36.0625 451.875 36.0625 422.1875 L 36.0625 89.8125 C 36.0625 60.125 60.125 36.0625 89.8125 36.0625 Z M 89.8125 36.0625 " transform="matrix(0.0625,0,0,0.0625,0,0)"/>
<path style=" stroke:none;fill-rule:nonzero;fill:rgb(30.19608%,30.19608%,30.19608%);fill-opacity:1;" d="M 17.742188 24.175781 C 17.503906 24.128906 17.085938 23.925781 16.914062 23.769531 C 16.875 23.738281 16.839844 23.707031 16.832031 23.707031 C 16.8125 23.707031 16.507812 23.4375 16.300781 23.238281 C 16.203125 23.144531 16.074219 23.019531 16.007812 22.964844 C 15.945312 22.90625 15.882812 22.847656 15.867188 22.832031 C 15.796875 22.757812 15.449219 22.523438 15.324219 22.46875 C 15.152344 22.390625 14.878906 22.34375 14.726562 22.363281 C 14.394531 22.410156 13.960938 22.660156 13.664062 22.972656 C 13.601562 23.039062 13.558594 23.042969 13.535156 22.988281 C 13.511719 22.914062 13.589844 22.785156 13.785156 22.570312 C 14.199219 22.113281 14.628906 21.878906 15.054688 21.878906 C 15.1875 21.878906 15.457031 21.9375 15.667969 22.011719 C 15.8125 22.0625 16.574219 22.488281 16.597656 22.53125 C 16.617188 22.566406 17.234375 22.914062 17.378906 22.972656 C 17.8125 23.148438 18.152344 23.097656 18.488281 22.808594 C 18.605469 22.707031 18.777344 22.441406 18.839844 22.277344 C 18.90625 22.101562 18.933594 22.097656 19.175781 22.21875 C 19.371094 22.320312 19.839844 22.480469 19.933594 22.480469 C 19.996094 22.480469 20.050781 22.59375 20.03125 22.683594 C 20.023438 22.722656 19.964844 22.855469 19.898438 22.976562 C 19.441406 23.835938 18.542969 24.335938 17.742188 24.175781 Z M 19.933594 22 C 19.855469 21.980469 19.742188 21.945312 19.683594 21.921875 C 19.628906 21.898438 19.5625 21.878906 19.542969 21.878906 C 19.472656 21.878906 18.917969 21.527344 18.75 21.378906 C 18.246094 20.941406 17.648438 20.183594 17.050781 19.230469 C 17.011719 19.167969 16.535156 18.464844 16.414062 18.292969 C 16.390625 18.257812 16.238281 18.070312 16.074219 17.878906 C 15.558594 17.261719 15.042969 16.917969 14.308594 16.699219 C 13.871094 16.570312 13.074219 16.558594 12.300781 16.671875 C 12.199219 16.6875 11.917969 16.730469 11.675781 16.765625 C 10.160156 16.988281 9.320312 16.949219 8.398438 16.621094 C 7.820312 16.410156 7.160156 16.015625 6.667969 15.578125 C 6.578125 15.496094 6.480469 15.410156 6.445312 15.386719 C 6.386719 15.339844 6.316406 15.273438 6.261719 15.210938 C 6.222656 15.167969 6.222656 15.089844 6.265625 15.046875 C 6.292969 15.019531 6.339844 15.027344 6.542969 15.109375 C 7.652344 15.546875 8.722656 15.402344 10.375 14.59375 C 10.597656 14.484375 10.808594 14.378906 10.84375 14.363281 C 10.878906 14.347656 10.921875 14.324219 10.933594 14.316406 C 10.945312 14.304688 11.027344 14.261719 11.121094 14.214844 C 11.371094 14.097656 11.558594 14.003906 11.667969 13.9375 C 11.722656 13.902344 11.847656 13.835938 11.953125 13.785156 C 12.054688 13.738281 12.171875 13.675781 12.214844 13.65625 C 12.488281 13.511719 12.828125 13.347656 12.855469 13.347656 C 12.871094 13.347656 12.925781 13.324219 12.976562 13.296875 C 13.027344 13.269531 13.082031 13.246094 13.097656 13.246094 C 13.113281 13.246094 13.136719 13.234375 13.148438 13.222656 C 13.167969 13.199219 13.636719 12.996094 13.738281 12.964844 C 13.761719 12.957031 13.890625 12.914062 14.023438 12.863281 C 14.15625 12.816406 14.289062 12.769531 14.320312 12.761719 C 14.347656 12.753906 14.464844 12.714844 14.574219 12.683594 C 14.941406 12.566406 15.164062 12.519531 15.996094 12.378906 C 16.253906 12.339844 17.21875 12.320312 17.519531 12.351562 C 18.121094 12.417969 18.609375 12.511719 18.988281 12.632812 C 19.265625 12.722656 19.65625 12.871094 19.777344 12.9375 C 19.988281 13.050781 20.015625 13.0625 20.03125 13.0625 C 20.09375 13.0625 20.75 13.480469 21.105469 13.75 C 21.441406 14.003906 21.96875 14.527344 22.300781 14.941406 C 23.027344 15.84375 23.527344 16.976562 23.648438 17.988281 C 23.699219 18.441406 23.691406 18.683594 23.613281 19.195312 C 23.585938 19.367188 23.449219 19.800781 23.40625 19.863281 C 23.390625 19.886719 23.363281 19.949219 23.34375 20.003906 C 23.304688 20.113281 23.125 20.417969 23.003906 20.582031 C 22.523438 21.214844 21.753906 21.746094 21.050781 21.929688 C 20.984375 21.945312 20.886719 21.972656 20.832031 21.988281 C 20.683594 22.03125 20.097656 22.039062 19.933594 22 Z M 19.917969 20.386719 C 19.964844 20.324219 19.976562 20.28125 19.976562 20.1875 C 19.976562 20.027344 19.886719 19.917969 19.746094 19.917969 C 19.535156 19.917969 19.429688 20.171875 19.566406 20.375 C 19.65625 20.515625 19.816406 20.519531 19.917969 20.386719 Z M 22.574219 18.347656 C 22.78125 18.199219 22.6875 17.824219 22.441406 17.824219 C 22.335938 17.824219 22.210938 17.960938 22.210938 18.078125 C 22.210938 18.34375 22.394531 18.480469 22.574219 18.347656 Z M 12.621094 20.761719 C 11.972656 20.710938 11.386719 20.371094 10.949219 19.785156 C 10.683594 19.433594 10.695312 19.394531 11.066406 19.363281 C 11.339844 19.34375 11.742188 19.246094 11.929688 19.160156 C 12.324219 18.972656 12.691406 18.621094 12.957031 18.175781 C 13.003906 18.089844 13.128906 17.878906 13.234375 17.707031 C 13.546875 17.175781 13.613281 17.089844 13.703125 17.089844 C 13.84375 17.089844 14.171875 17.152344 14.363281 17.210938 C 14.574219 17.277344 14.875 17.414062 14.933594 17.46875 C 14.953125 17.484375 14.996094 17.511719 15.027344 17.53125 C 15.121094 17.578125 15.378906 17.785156 15.519531 17.925781 C 15.738281 18.144531 16.203125 18.71875 16.347656 18.949219 C 16.371094 18.988281 16.457031 19.117188 16.539062 19.238281 C 17.035156 19.976562 17.050781 20.003906 16.941406 20.085938 C 16.898438 20.121094 16.871094 20.121094 16.804688 20.101562 C 16.699219 20.066406 16.171875 20.066406 15.992188 20.097656 C 15.917969 20.113281 15.828125 20.128906 15.792969 20.136719 C 15.738281 20.144531 15.464844 20.203125 15.21875 20.261719 C 15.152344 20.277344 15.078125 20.296875 15.054688 20.308594 C 15.03125 20.324219 14.894531 20.363281 14.746094 20.402344 C 14.601562 20.4375 14.402344 20.492188 14.296875 20.523438 C 13.988281 20.609375 13.945312 20.621094 13.695312 20.675781 C 13.5 20.714844 12.785156 20.792969 12.742188 20.773438 C 12.734375 20.769531 12.683594 20.765625 12.621094 20.761719 Z M 23.902344 20.113281 L 23.851562 20.050781 L 23.949219 19.6875 C 24.050781 19.335938 24.121094 18.984375 24.121094 18.863281 C 24.121094 18.746094 24.179688 18.714844 24.394531 18.714844 C 24.832031 18.714844 25.207031 18.460938 25.378906 18.058594 C 25.523438 17.722656 25.5625 17.433594 25.578125 16.632812 C 25.59375 15.71875 25.609375 15.480469 25.664062 15.167969 C 25.761719 14.625 25.957031 14.242188 26.289062 13.941406 C 26.414062 13.832031 26.4375 13.8125 26.640625 13.6875 C 26.8125 13.582031 27.160156 13.449219 27.277344 13.445312 C 27.367188 13.441406 27.375 13.445312 27.375 13.503906 C 27.375 13.558594 27.347656 13.582031 27.1875 13.664062 C 27.007812 13.753906 26.824219 13.890625 26.621094 14.074219 C 26.394531 14.277344 26.183594 14.71875 26.136719 15.085938 C 26.097656 15.378906 26.136719 15.964844 26.222656 16.398438 C 26.386719 17.222656 26.386719 18.207031 26.226562 18.542969 C 26.207031 18.585938 26.179688 18.652344 26.171875 18.691406 C 26.136719 18.855469 25.832031 19.324219 25.628906 19.519531 C 25.410156 19.730469 25.386719 19.75 25.207031 19.859375 C 24.878906 20.054688 24.472656 20.175781 24.140625 20.175781 C 23.96875 20.175781 23.949219 20.171875 23.902344 20.113281 Z M 23.3125 15.699219 C 23.121094 15.351562 23.058594 15.253906 22.859375 14.972656 C 22.402344 14.339844 21.871094 13.773438 21.335938 13.355469 C 20.957031 13.0625 20.957031 13.066406 20.964844 12.992188 C 20.980469 12.828125 21.417969 12.675781 22.265625 12.539062 C 22.882812 12.4375 23.273438 12.269531 23.550781 11.980469 C 23.730469 11.789062 23.816406 11.644531 23.929688 11.347656 C 23.972656 11.230469 24.027344 11.121094 24.054688 11.101562 C 24.09375 11.066406 24.113281 11.070312 24.195312 11.121094 C 24.503906 11.296875 24.84375 11.652344 24.992188 11.941406 C 25.128906 12.214844 25.160156 12.652344 25.070312 13.011719 C 25.003906 13.285156 24.753906 13.847656 24.582031 14.113281 C 24.539062 14.179688 24.464844 14.300781 24.414062 14.382812 C 24.367188 14.464844 24.273438 14.617188 24.207031 14.71875 C 23.96875 15.082031 23.699219 15.554688 23.636719 15.710938 C 23.589844 15.824219 23.523438 15.886719 23.449219 15.886719 C 23.433594 15.886719 23.371094 15.800781 23.3125 15.699219 Z M 7.511719 14.875 C 6.640625 14.789062 5.914062 14.378906 5.449219 13.710938 C 5.222656 13.378906 5.121094 13.171875 4.910156 12.621094 C 4.84375 12.441406 4.722656 11.847656 4.6875 11.519531 C 4.648438 11.179688 4.652344 10.550781 4.691406 10.371094 C 4.738281 10.175781 4.871094 10.136719 4.941406 10.304688 C 4.988281 10.410156 5.253906 10.667969 5.410156 10.761719 C 5.546875 10.839844 5.574219 10.84375 5.777344 10.84375 C 5.964844 10.84375 6.027344 10.832031 6.148438 10.777344 C 6.429688 10.648438 6.570312 10.550781 7.226562 10.039062 C 7.5625 9.777344 7.957031 9.535156 8.238281 9.425781 C 8.445312 9.34375 8.472656 9.339844 8.863281 9.328125 C 9.238281 9.316406 9.289062 9.320312 9.429688 9.371094 C 9.621094 9.441406 9.929688 9.628906 10.035156 9.738281 C 10.078125 9.78125 10.121094 9.816406 10.128906 9.816406 C 10.140625 9.816406 10.160156 9.851562 10.175781 9.894531 C 10.21875 10.019531 10.179688 10.066406 10.007812 10.105469 C 9.695312 10.175781 9.300781 10.375 8.902344 10.664062 C 8.550781 10.917969 8.054688 11.488281 7.839844 11.871094 C 7.675781 12.175781 7.519531 12.578125 7.464844 12.824219 C 7.414062 13.082031 7.414062 13.539062 7.464844 13.742188 C 7.546875 14.050781 7.71875 14.414062 7.875 14.613281 C 7.949219 14.707031 7.957031 14.785156 7.902344 14.847656 C 7.863281 14.894531 7.753906 14.898438 7.511719 14.875 Z M 7.511719 14.875 "/>
</g>
</svg>
