
<svg xmlns="http://www.w3.org/2000/svg" xmlns:xlink="http://www.w3.org/1999/xlink" width="32px" height="32px" viewBox="0 0 32 32" version="1.1">
<g id="surface1">
<path style="fill-rule:nonzero;fill:rgb(100%,89.411765%,0%);fill-opacity:1;stroke-width:6.778464;stroke-linecap:butt;stroke-linejoin:miter;stroke:rgb(20%,20%,20%);stroke-opacity:1;stroke-miterlimit:4;" d="M 22.046875 8.484375 L 105.953125 8.484375 C 113.453125 8.484375 119.515625 14.546875 119.515625 22.046875 L 119.515625 105.953125 C 119.515625 113.453125 113.453125 119.515625 105.953125 119.515625 L 22.046875 119.515625 C 14.546875 119.515625 8.484375 113.453125 8.484375 105.953125 L 8.484375 22.046875 C 8.484375 14.546875 14.546875 8.484375 22.046875 8.484375 Z M 22.046875 8.484375 " transform="matrix(0.25,0,0,0.25,0,0)"/>
<path style=" stroke:none;fill-rule:nonzero;fill:rgb(20%,20%,20%);fill-opacity:1;" d="M 13.917969 4.121094 C 13.742188 4.121094 13.5625 4.121094 13.378906 4.128906 C 11.644531 4.195312 10.363281 4.726562 9.273438 5.828125 C 8.160156 6.957031 7.730469 8.296875 7.945312 10.003906 C 8.050781 10.867188 8.1875 11.230469 8.652344 11.902344 C 9.046875 12.476562 9.042969 12.417969 8.679688 13.4375 C 8.152344 14.914062 8.167969 15.890625 8.785156 19.871094 C 8.996094 21.199219 9.722656 24.355469 10.210938 26.023438 C 10.582031 27.292969 10.683594 27.53125 10.941406 27.707031 C 11.183594 27.878906 11.421875 27.867188 11.628906 27.675781 C 11.964844 27.363281 12.074219 26.644531 12.246094 23.652344 C 12.441406 20.3125 12.746094 19.359375 13.464844 19.828125 C 13.792969 20.042969 13.886719 20.402344 14.144531 22.425781 C 14.632812 26.265625 14.855469 27.429688 15.144531 27.722656 C 15.488281 28.066406 15.820312 27.78125 16.097656 26.910156 C 16.167969 26.6875 16.355469 25.792969 16.511719 24.925781 C 16.667969 24.058594 16.910156 22.996094 17.050781 22.574219 C 17.417969 21.464844 17.65625 21.269531 18.148438 21.683594 C 18.308594 21.816406 18.410156 21.996094 18.457031 22.226562 C 18.492188 22.414062 18.519531 23.632812 18.523438 24.941406 C 18.523438 27.464844 18.550781 27.648438 18.917969 27.816406 C 19.191406 27.941406 19.574219 27.742188 19.757812 27.378906 C 20.234375 26.441406 20.46875 25.648438 21.300781 22.121094 C 22.246094 18.125 22.183594 18.320312 22.503906 18.167969 C 23.765625 17.570312 24.078125 17.398438 24.285156 17.183594 C 24.417969 17.046875 24.644531 16.808594 24.792969 16.652344 C 25.132812 16.304688 25.425781 15.714844 25.605469 15.039062 C 25.714844 14.625 25.738281 14.175781 25.734375 12.757812 C 25.726562 11.210938 25.628906 9.828125 25.511719 9.636719 C 25.410156 9.476562 25.195312 9.644531 24.335938 10.550781 L 23.410156 11.523438 L 22.898438 11.457031 C 22.34375 11.378906 21.378906 11.367188 20.628906 11.425781 L 20.15625 11.464844 L 19.574219 10.5625 C 19.253906 10.066406 18.925781 9.585938 18.847656 9.496094 C 18.707031 9.339844 18.691406 9.339844 18.539062 9.472656 C 18.316406 9.667969 17.808594 10.789062 17.632812 11.464844 C 17.449219 12.171875 17.425781 13.980469 17.589844 14.644531 C 17.785156 15.441406 18.269531 16.355469 18.753906 16.859375 C 19 17.117188 19.191406 17.34375 19.171875 17.359375 C 18.972656 17.558594 17.84375 16.496094 17.472656 15.753906 C 16.839844 14.507812 16.730469 13.398438 17.078125 11.871094 C 17.320312 10.792969 17.324219 10.542969 17.113281 10.269531 C 16.683594 9.730469 14.179688 9.390625 12.800781 9.6875 C 12.527344 9.746094 12.066406 9.925781 11.773438 10.085938 C 11.480469 10.246094 11.183594 10.378906 11.117188 10.378906 C 10.742188 10.378906 10.609375 8.980469 10.910156 8.207031 C 11.234375 7.375 12.015625 6.554688 12.675781 6.355469 C 13.644531 6.058594 15.191406 6.230469 15.871094 6.707031 C 16.074219 6.847656 16.425781 7.09375 16.65625 7.253906 C 17.238281 7.664062 17.375 7.691406 17.652344 7.453125 C 18.160156 7.015625 17.789062 6.050781 16.761719 5.152344 C 15.980469 4.46875 15.121094 4.152344 13.917969 4.121094 Z M 23.59375 13.3125 C 24.011719 13.300781 24.355469 13.632812 24.371094 14.050781 L 24.371094 14.070312 C 24.371094 14.488281 24.035156 14.824219 23.613281 14.832031 C 23.199219 14.832031 22.855469 14.496094 22.851562 14.082031 C 22.847656 13.664062 23.175781 13.320312 23.59375 13.3125 Z M 20.21875 13.523438 C 20.347656 13.535156 20.46875 13.601562 20.570312 13.730469 C 20.742188 13.949219 20.730469 14.1875 20.546875 14.371094 C 20.359375 14.558594 20.121094 14.566406 19.902344 14.398438 C 19.648438 14.195312 19.628906 13.902344 19.851562 13.675781 C 19.964844 13.566406 20.09375 13.511719 20.21875 13.523438 Z M 20.21875 13.523438 "/>
</g>
</svg>
