
<svg xmlns="http://www.w3.org/2000/svg" xmlns:xlink="http://www.w3.org/1999/xlink" width="32px" height="32px" viewBox="0 0 32 32" version="1.1">
<g id="surface1">
<path style="fill-rule:nonzero;fill:rgb(100%,100%,100%);fill-opacity:1;stroke-width:26.401737;stroke-linecap:butt;stroke-linejoin:miter;stroke:rgb(16.862746%,65.882355%,92.156863%);stroke-opacity:1;stroke-miterlimit:4;" d="M 92.5625 39.75 L 419.4375 39.75 C 448.5625 39.75 472.25 63.4375 472.25 92.5625 L 472.25 419.4375 C 472.25 448.5625 448.5625 472.25 419.4375 472.25 L 92.5625 472.25 C 63.4375 472.25 39.75 448.5625 39.75 419.4375 L 39.75 92.5625 C 39.75 63.4375 63.4375 39.75 92.5625 39.75 Z M 92.5625 39.75 " transform="matrix(0.0625,0,0,0.0625,0,0)"/>
<path style=" stroke:none;fill-rule:evenodd;fill:rgb(16.078432%,50.196081%,72.549021%);fill-opacity:1;" d="M 16.324219 4.976562 C 15.832031 4.976562 15.304688 4.988281 14.769531 5 C 14.46875 5.003906 14.136719 5.339844 14.136719 5.636719 C 14.140625 6.429688 14.175781 8.148438 14.175781 8.148438 C 14.175781 8.148438 13.289062 8.386719 12.863281 8.5625 C 12.484375 8.714844 11.765625 9.117188 11.765625 9.117188 C 11.765625 9.117188 10.785156 8.152344 9.9375 7.316406 C 9.753906 7.136719 9.25 7.183594 9.066406 7.363281 C 7.570312 8.835938 7.941406 8.425781 7.316406 9.105469 C 7.113281 9.332031 7.152344 9.800781 7.367188 10.007812 C 7.980469 10.601562 9.136719 11.761719 9.136719 11.761719 C 9.136719 11.761719 8.679688 12.511719 8.511719 12.914062 C 8.347656 13.308594 8.136719 14.144531 8.136719 14.144531 C 8.136719 14.144531 6.488281 14.113281 5.664062 14.125 C 5.351562 14.128906 4.957031 14.390625 4.957031 14.691406 C 4.957031 15.167969 4.949219 16.308594 4.941406 16.972656 C 4.933594 17.636719 5.3125 17.875 5.65625 17.871094 C 6.667969 17.867188 8.125 17.882812 8.125 17.882812 C 8.125 17.882812 8.355469 18.726562 8.523438 19.128906 C 8.683594 19.523438 9.101562 20.273438 9.101562 20.273438 C 9.101562 20.273438 7.960938 21.371094 7.417969 21.980469 C 7.199219 22.226562 7.148438 22.71875 7.363281 22.964844 C 7.949219 23.613281 8.535156 24.175781 9.085938 24.660156 C 9.351562 24.886719 9.875 24.769531 10.132812 24.527344 C 10.582031 24.105469 11.75 22.871094 11.75 22.871094 C 11.75 22.871094 12.496094 23.269531 12.886719 23.429688 C 13.089844 23.515625 13.40625 23.625 13.667969 23.710938 C 13.933594 23.800781 14.144531 23.863281 14.144531 23.863281 C 14.144531 23.863281 14.144531 24.261719 14.144531 24.757812 C 14.144531 25.253906 14.144531 25.855469 14.144531 26.261719 C 14.148438 26.425781 14.222656 26.613281 14.332031 26.761719 C 14.449219 26.910156 14.601562 27.019531 14.765625 27.019531 C 15.542969 27.027344 16.414062 27.023438 17.273438 27.019531 C 17.417969 27.019531 17.570312 26.910156 17.6875 26.761719 C 17.800781 26.617188 17.882812 26.4375 17.878906 26.292969 C 17.878906 25.890625 17.882812 25.253906 17.886719 24.714844 C 17.886719 24.179688 17.890625 23.746094 17.890625 23.746094 C 17.890625 23.746094 18.101562 23.699219 18.355469 23.628906 C 18.613281 23.5625 18.921875 23.472656 19.117188 23.390625 C 19.300781 23.308594 19.558594 23.152344 19.773438 23.019531 C 19.988281 22.886719 20.152344 22.769531 20.152344 22.769531 C 20.152344 22.769531 20.488281 23.113281 20.894531 23.515625 C 21.296875 23.917969 21.769531 24.386719 22.035156 24.636719 C 22.152344 24.75 22.328125 24.808594 22.511719 24.800781 C 22.699219 24.792969 22.894531 24.714844 23.058594 24.558594 C 23.398438 24.226562 23.6875 23.945312 23.945312 23.691406 C 24.203125 23.441406 24.433594 23.214844 24.652344 22.988281 C 24.757812 22.878906 24.816406 22.703125 24.824219 22.527344 C 24.832031 22.351562 24.785156 22.175781 24.679688 22.066406 C 24.378906 21.757812 23.902344 21.28125 23.5 20.882812 C 23.097656 20.484375 22.773438 20.160156 22.773438 20.160156 C 22.773438 20.160156 22.886719 19.988281 23.023438 19.761719 C 23.15625 19.539062 23.308594 19.269531 23.386719 19.074219 C 23.464844 18.878906 23.542969 18.574219 23.601562 18.316406 C 23.660156 18.0625 23.699219 17.855469 23.699219 17.855469 C 23.699219 17.855469 25.503906 17.894531 26.332031 17.867188 C 26.636719 17.855469 27.023438 17.578125 27.035156 17.269531 C 27.066406 16.367188 27.066406 15.644531 27.042969 14.832031 C 27.027344 14.339844 26.691406 14.136719 26.179688 14.140625 C 25.511719 14.144531 23.738281 14.167969 23.738281 14.167969 C 23.738281 14.167969 23.546875 13.359375 23.394531 12.976562 C 23.238281 12.582031 22.804688 11.847656 22.804688 11.847656 C 22.804688 11.847656 24.003906 10.644531 24.589844 10.03125 C 24.988281 9.613281 24.738281 9.101562 24.605469 8.980469 C 24.042969 8.46875 23.464844 7.832031 22.988281 7.378906 C 22.753906 7.152344 22.257812 7.128906 22.019531 7.347656 C 21.53125 7.792969 20.847656 8.539062 20.214844 9.167969 C 20.214844 9.167969 19.457031 8.730469 19.054688 8.566406 C 18.675781 8.417969 17.875 8.226562 17.875 8.226562 C 17.875 8.226562 17.902344 6.480469 17.875 5.605469 C 17.863281 5.308594 17.464844 5.007812 17.167969 4.992188 C 16.902344 4.980469 16.621094 4.976562 16.324219 4.976562 Z M 16.0625 12.257812 C 17.894531 12.25 19.464844 13.855469 19.699219 15.625 C 19.96875 17.507812 18.460938 19.332031 16.644531 19.679688 C 14.597656 20.097656 12.453125 18.386719 12.277344 16.332031 C 12.128906 14.277344 13.941406 12.332031 15.972656 12.257812 C 16.003906 12.257812 16.035156 12.257812 16.0625 12.257812 Z M 16.0625 12.257812 "/>
<path style=" stroke:none;fill-rule:evenodd;fill:rgb(0%,41.568628%,72.549021%);fill-opacity:1;" d="M 16.109375 10.332031 C 16.074219 10.332031 16.035156 10.332031 16 10.332031 C 13.015625 10.386719 10.324219 13.074219 10.339844 16.074219 C 10.355469 18.96875 12.898438 21.621094 15.808594 21.691406 C 18.492188 21.765625 21.136719 19.730469 21.589844 17.050781 C 22.070312 14.363281 20.363281 11.40625 17.71875 10.621094 C 17.199219 10.449219 16.65625 10.339844 16.109375 10.332031 Z M 16.0625 12.253906 C 17.898438 12.25 19.464844 13.855469 19.699219 15.625 C 19.96875 17.503906 18.464844 19.332031 16.644531 19.679688 C 14.597656 20.097656 12.453125 18.382812 12.277344 16.332031 C 12.128906 14.277344 13.941406 12.328125 15.976562 12.257812 C 16.003906 12.253906 16.035156 12.253906 16.0625 12.253906 Z M 16.0625 12.253906 "/>
</g>
</svg>
