
<svg xmlns="http://www.w3.org/2000/svg" xmlns:xlink="http://www.w3.org/1999/xlink" width="32px" height="32px" viewBox="0 0 32 32" version="1.1">
<g id="surface1">
<path style=" stroke:none;fill-rule:nonzero;fill:rgb(25.098041%,48.235294%,64.705884%);fill-opacity:1;" d="M 5.757812 28.644531 C 4.671875 28.410156 3.753906 27.585938 3.378906 26.507812 L 3.226562 26.070312 L 3.226562 6.046875 L 3.371094 5.652344 C 3.816406 4.449219 4.566406 3.792969 5.832031 3.5 C 6.285156 3.394531 6.546875 3.394531 15.972656 3.394531 C 25.46875 3.394531 25.652344 3.394531 26.058594 3.503906 C 27.082031 3.773438 27.625 4.128906 28.082031 4.816406 C 28.3125 5.164062 28.421875 5.425781 28.574219 5.992188 C 28.683594 6.394531 28.683594 6.574219 28.683594 16.09375 C 28.683594 21.851562 28.664062 25.859375 28.636719 25.957031 C 28.605469 26.050781 28.542969 26.273438 28.492188 26.453125 C 28.222656 27.40625 27.464844 28.191406 26.464844 28.550781 L 26.058594 28.699219 L 16.082031 28.707031 C 7.855469 28.714844 6.042969 28.703125 5.757812 28.644531 Z M 9.96875 24.652344 C 11.394531 24.175781 13.429688 22.808594 15.667969 20.820312 C 17.019531 19.613281 18.964844 17.628906 20.230469 16.167969 C 23.839844 11.992188 25.484375 8.550781 24.433594 7.367188 C 24.105469 6.996094 23.332031 6.925781 22.492188 7.191406 C 21.25 7.589844 19.648438 8.582031 17.832031 10.082031 L 17.117188 10.667969 L 16.714844 10.667969 C 15.316406 10.667969 13.800781 11.339844 12.726562 12.433594 C 11.605469 13.574219 11.050781 14.917969 11.050781 16.472656 L 11.050781 17.070312 L 10.503906 17.792969 C 9.492188 19.140625 8.65625 20.484375 8.199219 21.5 C 7.808594 22.378906 7.660156 22.917969 7.65625 23.527344 C 7.652344 24.058594 7.710938 24.265625 7.945312 24.53125 C 8.277344 24.902344 9.066406 24.949219 9.96875 24.652344 Z M 10.761719 21.199219 C 10.277344 20.9375 10.34375 20.105469 10.941406 18.921875 C 11.089844 18.628906 11.234375 18.378906 11.261719 18.363281 C 11.289062 18.347656 11.402344 18.550781 11.515625 18.820312 C 11.722656 19.316406 12.21875 20.105469 12.386719 20.210938 C 12.652344 20.375 14.425781 19.183594 15.832031 17.894531 C 17.59375 16.277344 19.121094 14.34375 19.925781 12.722656 C 20.402344 11.753906 20.402344 11.753906 20.105469 11.566406 C 19.753906 11.347656 19.023438 11.015625 18.71875 10.941406 C 18.574219 10.902344 18.460938 10.847656 18.472656 10.816406 C 18.503906 10.722656 19.472656 10.203125 19.824219 10.089844 C 20 10.03125 20.300781 9.988281 20.488281 9.988281 C 20.785156 9.984375 20.851562 10.003906 20.976562 10.128906 C 21.730469 10.875 20.523438 13.394531 18.035156 16.246094 C 17.261719 17.136719 15.847656 18.527344 15.003906 19.222656 C 13.132812 20.769531 11.433594 21.558594 10.761719 21.199219 Z M 12.332031 16.90625 C 11.738281 16.546875 11.761719 15.152344 12.382812 14.078125 C 12.472656 13.925781 12.660156 13.671875 12.800781 13.519531 C 13.433594 12.816406 14.089844 12.753906 14.449219 13.355469 C 14.621094 13.640625 14.605469 14.605469 14.429688 15.128906 C 14.148438 15.949219 13.652344 16.621094 13.136719 16.875 C 12.792969 17.042969 12.574219 17.050781 12.332031 16.90625 Z M 17.601562 22.316406 C 19.882812 22.042969 21.824219 20.484375 22.539062 18.355469 C 22.738281 17.761719 22.824219 17.207031 22.824219 16.511719 C 22.824219 15.574219 22.574219 14.417969 22.367188 14.417969 C 22.320312 14.417969 22.136719 14.636719 21.957031 14.910156 C 20.542969 17.035156 18.195312 19.574219 16.066406 21.289062 C 15.136719 22.035156 15.179688 21.992188 15.246094 22.070312 C 15.316406 22.152344 15.765625 22.261719 16.292969 22.320312 C 16.839844 22.386719 17.050781 22.382812 17.601562 22.316406 Z M 17.601562 22.316406 "/>
<path style=" stroke:none;fill-rule:nonzero;fill:rgb(0%,80.000001%,100%);fill-opacity:1;" d="M 5.785156 2.484375 C 3.957031 2.484375 2.484375 3.957031 2.484375 5.785156 L 2.484375 26.214844 C 2.484375 28.042969 3.957031 29.515625 5.785156 29.515625 L 26.214844 29.515625 C 28.042969 29.515625 29.515625 28.042969 29.515625 26.214844 L 29.515625 5.785156 C 29.515625 3.957031 28.042969 2.484375 26.214844 2.484375 Z M 6.558594 3.507812 L 25.441406 3.507812 C 27.132812 3.507812 28.492188 4.867188 28.492188 6.558594 L 28.492188 25.441406 C 28.492188 27.132812 27.132812 28.492188 25.441406 28.492188 L 6.558594 28.492188 C 4.867188 28.492188 3.507812 27.132812 3.507812 25.441406 L 3.507812 6.558594 C 3.507812 4.867188 4.867188 3.507812 6.558594 3.507812 Z M 6.558594 3.507812 "/>
</g>
</svg>
