
<svg xmlns="http://www.w3.org/2000/svg" xmlns:xlink="http://www.w3.org/1999/xlink" width="32px" height="32px" viewBox="0 0 32 32" version="1.1">
<g id="surface1">
<path style="fill-rule:nonzero;fill:rgb(18.039216%,80.000001%,44.313726%);fill-opacity:1;stroke-width:55.70443;stroke-linecap:butt;stroke-linejoin:miter;stroke:rgb(10.588235%,40.000001%,22.352941%);stroke-opacity:1;stroke-miterlimit:4;" d="M 167.125 55.75 L 856.875 55.75 C 918.375 55.75 968.25 105.625 968.25 167.125 L 968.25 856.875 C 968.25 918.375 918.375 968.25 856.875 968.25 L 167.125 968.25 C 105.625 968.25 55.75 918.375 55.75 856.875 L 55.75 167.125 C 55.75 105.625 105.625 55.75 167.125 55.75 Z M 167.125 55.75 " transform="matrix(0.03125,0,0,0.03125,0,0)"/>
<path style=" stroke:none;fill-rule:evenodd;fill:rgb(92.54902%,94.117647%,94.509804%);fill-opacity:1;" d="M 15.261719 5.453125 C 12.371094 5.453125 9.496094 6.644531 7.457031 8.6875 C 5.414062 10.730469 4.222656 13.605469 4.222656 16.496094 C 4.222656 19.382812 5.414062 22.253906 7.457031 24.300781 C 9.496094 26.34375 12.371094 27.535156 15.261719 27.535156 C 18.152344 27.535156 21.023438 26.34375 23.070312 24.300781 C 25.113281 22.257812 26.304688 19.382812 26.304688 16.496094 L 23.363281 16.496094 C 23.363281 18.613281 22.488281 20.722656 20.988281 22.21875 C 19.488281 23.71875 17.378906 24.589844 15.261719 24.589844 C 13.140625 24.589844 11.035156 23.714844 9.535156 22.21875 C 8.039062 20.71875 7.167969 18.613281 7.167969 16.496094 C 7.167969 14.375 8.039062 12.269531 9.535156 10.769531 C 11.035156 9.269531 13.140625 8.398438 15.261719 8.394531 C 15.261719 8.394531 15.261719 8.394531 15.265625 8.394531 L 15.265625 5.453125 C 15.261719 5.453125 15.261719 5.453125 15.261719 5.453125 Z M 15.261719 5.453125 "/>
<path style=" stroke:none;fill-rule:evenodd;fill:rgb(92.54902%,94.117647%,94.509804%);fill-opacity:1;" d="M 11.265625 15.335938 L 13.347656 13.253906 L 17.890625 17.796875 L 15.808594 19.878906 Z M 11.265625 15.335938 "/>
<path style=" stroke:none;fill-rule:evenodd;fill:rgb(92.54902%,94.117647%,94.509804%);fill-opacity:1;" d="M 26.347656 5.390625 L 13.832031 17.902344 L 15.914062 19.984375 L 28.425781 7.472656 Z M 26.347656 5.390625 "/>
</g>
</svg>
