
<svg xmlns="http://www.w3.org/2000/svg" xmlns:xlink="http://www.w3.org/1999/xlink" width="32px" height="32px" viewBox="0 0 32 32" version="1.1">
<g id="surface1">
<path style="fill-rule:nonzero;fill:rgb(100%,100%,100%);fill-opacity:1;stroke-width:7.220923;stroke-linecap:butt;stroke-linejoin:miter;stroke:rgb(16.862746%,65.882355%,92.156863%);stroke-opacity:1;stroke-miterlimit:4;" d="M 23.035263 170.115603 L 112.431287 170.115603 C 120.401854 170.115603 126.88414 176.597889 126.88414 184.568456 L 126.88414 273.964479 C 126.88414 281.935046 120.401854 288.417333 112.431287 288.417333 L 23.035263 288.417333 C 15.064697 288.417333 8.58241 281.935046 8.58241 273.964479 L 8.58241 184.568456 C 8.58241 176.597889 15.064697 170.115603 23.035263 170.115603 Z M 23.035263 170.115603 " transform="matrix(0.236221,0,0,0.236221,0.0000011811,-38.157476)"/>
<path style=" stroke:none;fill-rule:nonzero;fill:rgb(17.647059%,17.647059%,17.647059%);fill-opacity:1;" d="M 26.054688 16.007812 C 26.054688 21.585938 21.53125 26.105469 15.957031 26.105469 C 10.378906 26.105469 5.855469 21.585938 5.855469 16.007812 C 5.855469 10.429688 10.378906 5.910156 15.957031 5.910156 C 21.53125 5.910156 26.054688 10.429688 26.054688 16.007812 Z M 26.054688 16.007812 "/>
<path style=" stroke:none;fill-rule:nonzero;fill:rgb(17.647059%,17.647059%,17.647059%);fill-opacity:1;" d="M 27.960938 16 C 27.960938 22.605469 22.605469 27.960938 16 27.960938 C 9.394531 27.960938 4.039062 22.605469 4.039062 16 C 4.039062 9.394531 9.394531 4.039062 16 4.039062 C 22.605469 4.039062 27.960938 9.394531 27.960938 16 Z M 27.960938 16 "/>
<path style=" stroke:none;fill-rule:nonzero;fill:rgb(9.019608%,24.705882%,49.411765%);fill-opacity:1;" d="M 25.660156 16 C 25.660156 21.335938 21.335938 25.660156 16 25.660156 C 10.664062 25.660156 6.339844 21.335938 6.339844 16 C 6.339844 10.664062 10.664062 6.339844 16 6.339844 C 21.335938 6.339844 25.660156 10.664062 25.660156 16 Z M 25.660156 16 "/>
<path style=" stroke:none;fill-rule:nonzero;fill:rgb(13.333334%,35.294119%,72.156864%);fill-opacity:1;" d="M 22.664062 16 C 22.664062 19.679688 19.679688 22.664062 16 22.664062 C 12.320312 22.664062 9.335938 19.679688 9.335938 16 C 9.335938 12.320312 12.320312 9.335938 16 9.335938 C 19.679688 9.335938 22.664062 12.320312 22.664062 16 Z M 22.664062 16 "/>
<path style=" stroke:none;fill-rule:nonzero;fill:rgb(3.921569%,9.411765%,18.82353%);fill-opacity:1;" d="M 21.429688 16 C 21.429688 18.996094 18.996094 21.429688 16 21.429688 C 13.003906 21.429688 10.570312 18.996094 10.570312 16 C 10.570312 13.003906 13.003906 10.570312 16 10.570312 C 18.996094 10.570312 21.429688 13.003906 21.429688 16 Z M 21.429688 16 "/>
<path style=" stroke:none;fill-rule:nonzero;fill:rgb(67.843139%,79.607844%,96.078432%);fill-opacity:1;" d="M 17.628906 13.183594 C 16.539062 13.183594 15.65625 14.066406 15.65625 15.15625 C 15.65625 16.246094 16.539062 17.128906 17.628906 17.128906 C 18.71875 17.128906 19.601562 16.246094 19.601562 15.15625 C 19.601562 14.066406 18.71875 13.183594 17.628906 13.183594 Z M 14.039062 16.40625 C 13.457031 16.40625 12.984375 16.878906 12.984375 17.460938 C 12.984375 18.042969 13.457031 18.515625 14.039062 18.515625 C 14.621094 18.515625 15.09375 18.042969 15.09375 17.460938 C 15.09375 16.878906 14.621094 16.40625 14.039062 16.40625 Z M 14.039062 16.40625 "/>
<path style=" stroke:none;fill-rule:nonzero;fill:rgb(17.647059%,17.647059%,17.647059%);fill-opacity:0.501961;" d="M 16 6.390625 C 13.800781 6.390625 11.671875 7.140625 9.957031 8.515625 L 11.867188 10.824219 C 13.042969 9.894531 14.5 9.386719 16 9.386719 C 19.679688 9.386719 22.664062 12.371094 22.664062 16.050781 C 22.660156 17.984375 21.820312 19.824219 20.355469 21.085938 L 22.265625 23.394531 C 24.417969 21.558594 25.660156 18.878906 25.660156 16.050781 C 25.660156 10.714844 21.335938 6.390625 16 6.390625 Z M 16 6.390625 "/>
</g>
</svg>
