
<svg xmlns="http://www.w3.org/2000/svg" xmlns:xlink="http://www.w3.org/1999/xlink" width="32px" height="32px" viewBox="0 0 32 32" version="1.1">
<g id="surface1">
<path style="fill-rule:nonzero;fill:rgb(31.764707%,72.549021%,76.47059%);fill-opacity:1;stroke-width:27.870941;stroke-linecap:butt;stroke-linejoin:miter;stroke:rgb(35.686275%,33.725491%,33.725491%);stroke-opacity:1;stroke-miterlimit:4;" d="M 83.4375 27.6875 L 428.5625 27.6875 C 459.3125 27.6875 484.3125 52.6875 484.3125 83.4375 L 484.3125 428.5625 C 484.3125 459.3125 459.3125 484.3125 428.5625 484.3125 L 83.4375 484.3125 C 52.6875 484.3125 27.6875 459.3125 27.6875 428.5625 L 27.6875 83.4375 C 27.6875 52.6875 52.6875 27.6875 83.4375 27.6875 Z M 83.4375 27.6875 " transform="matrix(0.0625,0,0,0.0625,0,0)"/>
<path style=" stroke:none;fill-rule:nonzero;fill:rgb(100%,100%,100%);fill-opacity:1;" d="M 11.878906 4.386719 L 21.160156 4.386719 C 22.785156 4.386719 24.097656 5.910156 24.097656 7.792969 L 24.097656 24.449219 C 24.097656 26.328125 22.785156 27.851562 21.160156 27.851562 L 11.878906 27.851562 C 10.253906 27.851562 8.9375 26.328125 8.9375 24.449219 L 8.9375 7.792969 C 8.9375 5.910156 10.253906 4.386719 11.878906 4.386719 Z M 11.878906 4.386719 "/>
<path style=" stroke:none;fill-rule:nonzero;fill:rgb(31.764707%,72.549021%,76.47059%);fill-opacity:0.996078;" d="M 16 2.65625 C 8.628906 2.65625 2.65625 8.628906 2.65625 16 C 2.65625 23.371094 8.628906 29.34375 16 29.34375 C 23.371094 29.34375 29.34375 23.371094 29.34375 16 C 29.34375 8.628906 23.371094 2.65625 16 2.65625 Z M 14.449219 4.621094 L 15.652344 6.222656 L 16.183594 6.476562 C 18.339844 7.507812 19.574219 9.199219 20.097656 11.832031 C 20.308594 12.871094 20.355469 13.582031 20.324219 15.066406 C 20.285156 16.859375 20.066406 18.425781 19.609375 20.25 C 19.503906 20.679688 19.425781 21.054688 19.445312 21.082031 C 19.460938 21.105469 19.636719 21.140625 19.828125 21.152344 C 20.066406 21.167969 20.210938 21.203125 20.269531 21.261719 C 20.382812 21.375 20.378906 21.636719 20.261719 21.769531 C 20.140625 21.902344 20.199219 21.980469 20.417969 21.980469 C 20.644531 21.980469 20.808594 22.136719 20.808594 22.335938 C 20.808594 22.550781 20.707031 22.660156 20.441406 22.71875 C 20.125 22.792969 19.972656 22.941406 19.972656 23.183594 C 19.972656 23.433594 20.148438 23.601562 20.449219 23.640625 C 20.875 23.695312 21.144531 23.917969 21.207031 24.261719 C 21.289062 24.703125 21.078125 25.058594 20.652344 25.199219 C 20.425781 25.277344 20.386719 25.308594 20.339844 25.480469 C 20.277344 25.71875 20.050781 25.945312 19.8125 26.011719 C 19.589844 26.078125 12.886719 26.074219 12.671875 26.011719 C 12.457031 25.945312 12.230469 25.707031 12.167969 25.480469 C 12.121094 25.3125 12.085938 25.273438 11.914062 25.230469 C 11.371094 25.082031 11.105469 24.492188 11.382812 24.039062 C 11.519531 23.816406 11.675781 23.722656 12.011719 23.65625 C 12.371094 23.589844 12.535156 23.441406 12.535156 23.183594 C 12.535156 22.941406 12.382812 22.792969 12.066406 22.71875 C 11.800781 22.660156 11.699219 22.550781 11.699219 22.335938 C 11.699219 22.136719 11.867188 21.980469 12.089844 21.980469 C 12.308594 21.980469 12.367188 21.902344 12.246094 21.769531 C 12.195312 21.710938 12.152344 21.59375 12.152344 21.503906 C 12.152344 21.253906 12.277344 21.175781 12.691406 21.152344 C 13.039062 21.132812 13.058594 21.125 13.058594 21.003906 C 13.058594 20.886719 12.652344 19.246094 12.4375 18.511719 L 12.335938 18.160156 L 12.746094 17.871094 C 14.449219 16.679688 15.375 14.929688 15.582031 12.519531 C 15.65625 11.644531 15.578125 10.371094 15.445312 10.269531 C 15.386719 10.230469 15.175781 10.238281 14.648438 10.308594 C 14.253906 10.363281 13.894531 10.417969 13.855469 10.433594 C 13.800781 10.453125 13.789062 10.511719 13.8125 10.617188 C 13.835938 10.738281 13.820312 10.785156 13.738281 10.828125 C 13.566406 10.917969 12.167969 11.402344 12.070312 11.402344 C 11.972656 11.402344 10.914062 10.199219 10.914062 10.089844 C 10.914062 10.058594 11.542969 9.183594 12.3125 8.152344 L 13.710938 6.269531 L 14.007812 6.269531 C 14.191406 6.269531 14.324219 6.246094 14.363281 6.203125 C 14.394531 6.160156 14.425781 5.824219 14.433594 5.378906 Z M 14.089844 7.496094 C 14.066406 7.5 14.039062 7.507812 14.003906 7.527344 C 13.871094 7.597656 13.859375 7.867188 13.988281 7.941406 C 14.109375 8.011719 14.117188 8.011719 14.253906 7.917969 C 14.40625 7.808594 14.402344 7.65625 14.242188 7.550781 C 14.179688 7.511719 14.136719 7.492188 14.089844 7.496094 Z M 14.089844 7.496094 "/>
</g>
</svg>
