
<svg xmlns="http://www.w3.org/2000/svg" xmlns:xlink="http://www.w3.org/1999/xlink" width="32px" height="32px" viewBox="0 0 32 32" version="1.1">
<g id="surface1">
<path style="fill-rule:nonzero;fill:rgb(74.117649%,76.078433%,78.039217%);fill-opacity:1;stroke-width:27.27438;stroke-linecap:butt;stroke-linejoin:miter;stroke:rgb(48.627451%,53.333336%,57.647061%);stroke-opacity:1;stroke-miterlimit:4;" d="M -506.958659 0.288139 L -165.583659 0.288139 C -135.146159 0.288139 -110.458659 24.475639 -110.458659 54.225639 L -110.458659 388.350639 C -110.458659 418.100639 -135.146159 442.288139 -165.583659 442.288139 L -506.958659 442.288139 C -537.396159 442.288139 -562.083659 418.100639 -562.083659 388.350639 L -562.083659 54.225639 C -562.083659 24.475639 -537.396159 0.288139 -506.958659 0.288139 Z M -506.958659 0.288139 " transform="matrix(0.0625,0,0,0.0625,37.016947,2.169491)"/>
<path style=" stroke:none;fill-rule:nonzero;fill:rgb(29.803923%,29.803923%,29.803923%);fill-opacity:1;" d="M 13.277344 10.554688 C 17.789062 10.554688 21.445312 14.210938 21.445312 18.722656 C 21.445312 23.234375 17.789062 26.894531 13.277344 26.894531 C 8.765625 26.894531 5.105469 23.234375 5.105469 18.722656 C 5.105469 14.210938 8.765625 10.554688 13.277344 10.554688 Z M 13.277344 10.554688 "/>
<path style=" stroke:none;fill-rule:nonzero;fill:rgb(29.803923%,29.803923%,29.803923%);fill-opacity:1;" d="M 18.34375 5.105469 C 16.175781 6.546875 14.878906 7.851562 14.386719 9.535156 C 17.902344 9.953125 20.796875 12.324219 21.96875 15.546875 C 25.039062 13.984375 26.894531 8.910156 26.894531 8.910156 C 26.894531 8.910156 22.804688 7.785156 19.367188 9.210938 C 19.628906 7.621094 18.34375 5.105469 18.34375 5.105469 Z M 18.34375 5.105469 "/>
</g>
</svg>
