<!-- color: #41afd2 -->
<svg xmlns="http://www.w3.org/2000/svg" xmlns:xlink="http://www.w3.org/1999/xlink" width="32px" height="32px" viewBox="0 0 32 32" version="1.1">
<defs>
<clipPath id="clip1">
  <path d="M 13.375 11.1875 L 27.25 11.1875 L 27.25 27.9375 L 13.375 27.9375 Z M 13.375 11.1875 "/>
</clipPath>
<clipPath id="clip2">
  <path d="M 33.519531 19.535156 C 33.519531 28.371094 27.609375 35.53125 20.324219 35.53125 C 13.035156 35.53125 7.121094 28.371094 7.121094 19.535156 C 7.121094 10.695312 13.035156 3.539062 20.324219 3.539062 C 27.609375 3.539062 33.519531 10.695312 33.519531 19.535156 Z M 33.519531 19.535156 "/>
</clipPath>
<clipPath id="clip3">
  <path d="M 13.375 11.1875 L 20.375 11.1875 L 20.375 27.9375 L 13.375 27.9375 Z M 13.375 11.1875 "/>
</clipPath>
<clipPath id="clip4">
  <path d="M 33.519531 19.535156 C 33.519531 28.371094 27.609375 35.53125 20.324219 35.53125 C 13.035156 35.53125 7.121094 28.371094 7.121094 19.535156 C 7.121094 10.695312 13.035156 3.539062 20.324219 3.539062 C 27.609375 3.539062 33.519531 10.695312 33.519531 19.535156 Z M 33.519531 19.535156 "/>
</clipPath>
<clipPath id="clip5">
  <path d="M 13.375 11.1875 L 15.1875 11.1875 L 15.1875 27.9375 L 13.375 27.9375 Z M 13.375 11.1875 "/>
</clipPath>
<clipPath id="clip6">
  <path d="M 33.519531 19.535156 C 33.519531 28.371094 27.609375 35.53125 20.324219 35.53125 C 13.035156 35.53125 7.121094 28.371094 7.121094 19.535156 C 7.121094 10.695312 13.035156 3.539062 20.324219 3.539062 C 27.609375 3.539062 33.519531 10.695312 33.519531 19.535156 Z M 33.519531 19.535156 "/>
</clipPath>
<clipPath id="clip7">
  <path d="M 25.4375 11.1875 L 27.25 11.1875 L 27.25 27.9375 L 25.4375 27.9375 Z M 25.4375 11.1875 "/>
</clipPath>
<clipPath id="clip8">
  <path d="M 33.519531 19.535156 C 33.519531 28.371094 27.609375 35.53125 20.324219 35.53125 C 13.035156 35.53125 7.121094 28.371094 7.121094 19.535156 C 7.121094 10.695312 13.035156 3.539062 20.324219 3.539062 C 27.609375 3.539062 33.519531 10.695312 33.519531 19.535156 Z M 33.519531 19.535156 "/>
</clipPath>
<clipPath id="clip9">
  <path d="M 15.125 12.5625 L 19.1875 12.5625 L 19.1875 14 L 15.125 14 Z M 15.125 12.5625 "/>
</clipPath>
<clipPath id="clip10">
  <path d="M 33.519531 19.535156 C 33.519531 28.371094 27.609375 35.53125 20.324219 35.53125 C 13.035156 35.53125 7.121094 28.371094 7.121094 19.535156 C 7.121094 10.695312 13.035156 3.539062 20.324219 3.539062 C 27.609375 3.539062 33.519531 10.695312 33.519531 19.535156 Z M 33.519531 19.535156 "/>
</clipPath>
<clipPath id="clip11">
  <path d="M 21.4375 25.0625 L 25.5 25.0625 L 25.5 26.5 L 21.4375 26.5 Z M 21.4375 25.0625 "/>
</clipPath>
<clipPath id="clip12">
  <path d="M 33.519531 19.535156 C 33.519531 28.371094 27.609375 35.53125 20.324219 35.53125 C 13.035156 35.53125 7.121094 28.371094 7.121094 19.535156 C 7.121094 10.695312 13.035156 3.539062 20.324219 3.539062 C 27.609375 3.539062 33.519531 10.695312 33.519531 19.535156 Z M 33.519531 19.535156 "/>
</clipPath>
<clipPath id="clip13">
  <path d="M 15.125 16 L 25.5 16 L 25.5 16.8125 L 15.125 16.8125 Z M 15.125 16 "/>
</clipPath>
<clipPath id="clip14">
  <path d="M 33.519531 19.535156 C 33.519531 28.371094 27.609375 35.53125 20.324219 35.53125 C 13.035156 35.53125 7.121094 28.371094 7.121094 19.535156 C 7.121094 10.695312 13.035156 3.539062 20.324219 3.539062 C 27.609375 3.539062 33.519531 10.695312 33.519531 19.535156 Z M 33.519531 19.535156 "/>
</clipPath>
<clipPath id="clip15">
  <path d="M 15.125 18.125 L 25.5 18.125 L 25.5 18.875 L 15.125 18.875 Z M 15.125 18.125 "/>
</clipPath>
<clipPath id="clip16">
  <path d="M 33.519531 19.535156 C 33.519531 28.371094 27.609375 35.53125 20.324219 35.53125 C 13.035156 35.53125 7.121094 28.371094 7.121094 19.535156 C 7.121094 10.695312 13.035156 3.539062 20.324219 3.539062 C 27.609375 3.539062 33.519531 10.695312 33.519531 19.535156 Z M 33.519531 19.535156 "/>
</clipPath>
<clipPath id="clip17">
  <path d="M 15.125 20.1875 L 25.5 20.1875 L 25.5 20.9375 L 15.125 20.9375 Z M 15.125 20.1875 "/>
</clipPath>
<clipPath id="clip18">
  <path d="M 33.519531 19.535156 C 33.519531 28.371094 27.609375 35.53125 20.324219 35.53125 C 13.035156 35.53125 7.121094 28.371094 7.121094 19.535156 C 7.121094 10.695312 13.035156 3.539062 20.324219 3.539062 C 27.609375 3.539062 33.519531 10.695312 33.519531 19.535156 Z M 33.519531 19.535156 "/>
</clipPath>
<clipPath id="clip19">
  <path d="M 15.125 22.3125 L 25.5 22.3125 L 25.5 23.0625 L 15.125 23.0625 Z M 15.125 22.3125 "/>
</clipPath>
<clipPath id="clip20">
  <path d="M 33.519531 19.535156 C 33.519531 28.371094 27.609375 35.53125 20.324219 35.53125 C 13.035156 35.53125 7.121094 28.371094 7.121094 19.535156 C 7.121094 10.695312 13.035156 3.539062 20.324219 3.539062 C 27.609375 3.539062 33.519531 10.695312 33.519531 19.535156 Z M 33.519531 19.535156 "/>
</clipPath>
</defs>
<g id="surface1">
<path style="fill-rule:nonzero;fill:rgb(20%,20%,20%);fill-opacity:1;stroke-width:7.006356;stroke-linecap:butt;stroke-linejoin:miter;stroke:rgb(16.862746%,65.882355%,92.156863%);stroke-opacity:1;stroke-miterlimit:4;" d="M 20.625 6.609375 L 107.375 6.609375 C 115.109375 6.609375 121.390625 12.890625 121.390625 20.625 L 121.390625 107.375 C 121.390625 115.109375 115.109375 121.390625 107.375 121.390625 L 20.625 121.390625 C 12.890625 121.390625 6.609375 115.109375 6.609375 107.375 L 6.609375 20.625 C 6.609375 12.890625 12.890625 6.609375 20.625 6.609375 Z M 20.625 6.609375 " transform="matrix(0.25,0,0,0.25,0,0)"/>
<path style=" stroke:none;fill-rule:nonzero;fill:rgb(78.431374%,44.313726%,21.568628%);fill-opacity:1;" d="M 7.222656 4.652344 L 20.582031 4.652344 C 21.597656 4.652344 22.421875 5.476562 22.421875 6.492188 L 22.421875 23.355469 C 22.421875 24.371094 21.597656 25.195312 20.582031 25.195312 L 7.222656 25.195312 C 6.207031 25.195312 5.378906 24.371094 5.378906 23.355469 L 5.378906 6.492188 C 5.378906 5.476562 6.207031 4.652344 7.222656 4.652344 Z M 7.222656 4.652344 "/>
<g clip-path="url(#clip1)" clip-rule="nonzero">
<g clip-path="url(#clip2)" clip-rule="nonzero">
<path style=" stroke:none;fill-rule:nonzero;fill:rgb(100%,100%,100%);fill-opacity:1;" d="M 14.582031 11.1875 L 26.0625 11.1875 C 26.695312 11.1875 27.207031 11.808594 27.207031 12.582031 L 27.207031 26.488281 C 27.207031 27.257812 26.695312 27.878906 26.0625 27.878906 L 14.582031 27.878906 C 13.949219 27.878906 13.433594 27.257812 13.433594 26.488281 L 13.433594 12.582031 C 13.433594 11.808594 13.949219 11.1875 14.582031 11.1875 M 14.582031 11.1875 "/>
</g>
</g>
<g clip-path="url(#clip3)" clip-rule="nonzero">
<g clip-path="url(#clip4)" clip-rule="nonzero">
<path style=" stroke:none;fill-rule:nonzero;fill:rgb(98.431373%,92.156863%,81.176472%);fill-opacity:1;" d="M 14.582031 11.1875 C 13.945312 11.1875 13.433594 11.808594 13.433594 12.582031 L 13.433594 26.488281 C 13.433594 27.261719 13.945312 27.878906 14.582031 27.878906 L 20.324219 27.878906 L 20.324219 11.1875 M 14.582031 11.1875 "/>
</g>
</g>
<g clip-path="url(#clip5)" clip-rule="nonzero">
<g clip-path="url(#clip6)" clip-rule="nonzero">
<path style=" stroke:none;fill-rule:nonzero;fill:rgb(100%,100%,100%);fill-opacity:1;" d="M 14.582031 11.1875 C 13.945312 11.1875 13.433594 11.808594 13.433594 12.582031 L 13.433594 26.488281 C 13.433594 27.261719 13.945312 27.878906 14.582031 27.878906 L 15.15625 27.878906 C 14.519531 27.878906 14.007812 27.261719 14.007812 26.488281 L 14.007812 12.582031 C 14.007812 11.808594 14.519531 11.1875 15.15625 11.1875 M 14.582031 11.1875 "/>
</g>
</g>
<g clip-path="url(#clip7)" clip-rule="nonzero">
<g clip-path="url(#clip8)" clip-rule="nonzero">
<path style=" stroke:none;fill-rule:nonzero;fill:rgb(98.431373%,92.156863%,81.176472%);fill-opacity:1;" d="M 25.488281 11.1875 C 26.125 11.1875 26.636719 11.808594 26.636719 12.582031 L 26.636719 26.488281 C 26.636719 27.261719 26.125 27.878906 25.488281 27.878906 L 26.0625 27.878906 C 26.699219 27.878906 27.207031 27.261719 27.207031 26.488281 L 27.207031 12.582031 C 27.207031 11.808594 26.699219 11.1875 26.0625 11.1875 M 25.488281 11.1875 "/>
</g>
</g>
<g clip-path="url(#clip9)" clip-rule="nonzero">
<g clip-path="url(#clip10)" clip-rule="nonzero">
<path style=" stroke:none;fill-rule:nonzero;fill:rgb(17.647059%,17.647059%,17.647059%);fill-opacity:0.4;" d="M 15.15625 12.582031 L 19.175781 12.582031 L 19.175781 13.972656 L 15.15625 13.972656 M 15.15625 12.582031 "/>
</g>
</g>
<g clip-path="url(#clip11)" clip-rule="nonzero">
<g clip-path="url(#clip12)" clip-rule="nonzero">
<path style=" stroke:none;fill-rule:nonzero;fill:rgb(17.647059%,17.647059%,17.647059%);fill-opacity:0.4;" d="M 21.46875 25.097656 L 25.488281 25.097656 L 25.488281 26.488281 L 21.46875 26.488281 M 21.46875 25.097656 "/>
</g>
</g>
<g clip-path="url(#clip13)" clip-rule="nonzero">
<g clip-path="url(#clip14)" clip-rule="nonzero">
<path style=" stroke:none;fill-rule:nonzero;fill:rgb(17.647059%,17.647059%,17.647059%);fill-opacity:0.4;" d="M 15.15625 16.058594 L 25.488281 16.058594 L 25.488281 16.753906 L 15.15625 16.753906 M 15.15625 16.058594 "/>
</g>
</g>
<g clip-path="url(#clip15)" clip-rule="nonzero">
<g clip-path="url(#clip16)" clip-rule="nonzero">
<path style=" stroke:none;fill-rule:nonzero;fill:rgb(17.647059%,17.647059%,17.647059%);fill-opacity:0.4;" d="M 15.15625 18.144531 L 25.488281 18.144531 L 25.488281 18.839844 L 15.15625 18.839844 M 15.15625 18.144531 "/>
</g>
</g>
<g clip-path="url(#clip17)" clip-rule="nonzero">
<g clip-path="url(#clip18)" clip-rule="nonzero">
<path style=" stroke:none;fill-rule:nonzero;fill:rgb(17.647059%,17.647059%,17.647059%);fill-opacity:0.4;" d="M 15.15625 20.230469 L 25.488281 20.230469 L 25.488281 20.925781 L 15.15625 20.925781 M 15.15625 20.230469 "/>
</g>
</g>
<g clip-path="url(#clip19)" clip-rule="nonzero">
<g clip-path="url(#clip20)" clip-rule="nonzero">
<path style=" stroke:none;fill-rule:nonzero;fill:rgb(17.647059%,17.647059%,17.647059%);fill-opacity:0.4;" d="M 15.15625 22.316406 L 25.488281 22.316406 L 25.488281 23.011719 L 15.15625 23.011719 M 15.15625 22.316406 "/>
</g>
</g>
<path style=" stroke:none;fill-rule:nonzero;fill:rgb(28.235295%,21.568628%,21.568628%);fill-opacity:1;" d="M 10.828125 5.355469 L 16.570312 5.355469 L 16.570312 6.28125 L 10.828125 6.28125 Z M 10.828125 5.355469 "/>
<path style=" stroke:none;fill-rule:nonzero;fill:rgb(66.274512%,62.352943%,55.686277%);fill-opacity:1;" d="M 12.253906 3.824219 L 15.347656 3.824219 L 15.347656 5.816406 L 12.253906 5.816406 Z M 12.253906 3.824219 "/>
</g>
</svg>
