
<svg xmlns="http://www.w3.org/2000/svg" xmlns:xlink="http://www.w3.org/1999/xlink" width="32px" height="32px" viewBox="0 0 32 32" version="1.1">
<g id="surface1">
<path style="fill-rule:nonzero;fill:rgb(82.352942%,85.882354%,90.980393%);fill-opacity:1;stroke-width:8.04898;stroke-linecap:butt;stroke-linejoin:miter;stroke:rgb(19.215687%,21.176471%,27.843139%);stroke-opacity:1;stroke-miterlimit:4;" d="M 22.41903 6.332362 L 122.078764 6.332362 C 130.968765 6.332362 138.165433 13.529029 138.165433 22.41903 L 138.165433 122.078764 C 138.165433 130.968765 130.968765 138.165433 122.078764 138.165433 L 22.41903 138.165433 C 13.529029 138.165433 6.332362 130.968765 6.332362 122.078764 L 6.332362 22.41903 C 6.332362 13.529029 13.529029 6.332362 22.41903 6.332362 Z M 22.41903 6.332362 " transform="matrix(0.221457,0,0,0.221457,0,0)"/>
<path style=" stroke:none;fill-rule:nonzero;fill:rgb(13.333334%,21.176471%,33.725491%);fill-opacity:1;" d="M 22.171875 15.902344 C 22.167969 19.230469 19.46875 21.933594 16.136719 21.933594 C 12.808594 21.933594 10.105469 19.230469 10.105469 15.902344 C 10.105469 12.570312 12.808594 9.867188 16.136719 9.867188 C 19.472656 9.867188 22.171875 12.570312 22.171875 15.902344 "/>
<path style=" stroke:none;fill-rule:nonzero;fill:rgb(100%,100%,100%);fill-opacity:1;" d="M 23.03125 8.046875 C 22.878906 8.046875 22.722656 8.105469 22.605469 8.222656 L 15.875 14.953125 C 15.859375 14.9375 15.84375 14.917969 15.824219 14.902344 L 9.855469 9.628906 C 9.625 9.425781 9.277344 9.445312 9.074219 9.675781 C 8.871094 9.902344 8.894531 10.25 9.121094 10.453125 L 15.097656 15.730469 C 15.214844 15.835938 15.367188 15.878906 15.511719 15.867188 C 15.542969 15.933594 15.582031 15.992188 15.636719 16.046875 C 15.871094 16.28125 16.253906 16.28125 16.488281 16.046875 L 23.457031 9.074219 C 23.695312 8.839844 23.695312 8.460938 23.457031 8.222656 C 23.339844 8.105469 23.1875 8.046875 23.03125 8.046875 Z M 23.03125 8.046875 "/>
<path style=" stroke:none;fill-rule:nonzero;fill:rgb(96.470588%,27.843139%,27.843139%);fill-opacity:1;" d="M 11.207031 24.691406 L 15.472656 16.835938 C 15.550781 16.695312 15.722656 16.648438 15.855469 16.730469 C 15.996094 16.816406 16.042969 16.996094 15.964844 17.136719 L 11.699219 24.996094 C 11.621094 25.136719 11.449219 25.179688 11.316406 25.097656 C 11.179688 25.011719 11.132812 24.832031 11.207031 24.691406 Z M 11.207031 24.691406 "/>
<path style=" stroke:none;fill-rule:nonzero;fill:rgb(90.196079%,90.196079%,90.196079%);fill-opacity:1;" d="M 17.34375 15.902344 C 17.34375 16.566406 16.804688 17.105469 16.136719 17.105469 C 15.472656 17.105469 14.933594 16.566406 14.933594 15.902344 C 14.933594 15.234375 15.472656 14.695312 16.136719 14.695312 C 16.804688 14.695312 17.347656 15.234375 17.34375 15.902344 "/>
</g>
</svg>
