
<svg xmlns="http://www.w3.org/2000/svg" xmlns:xlink="http://www.w3.org/1999/xlink" width="32px" height="32px" viewBox="0 0 32 32" version="1.1">
<g id="surface1">
<path style="fill-rule:nonzero;fill:rgb(100%,100%,100%);fill-opacity:1;stroke-width:6.846406;stroke-linecap:butt;stroke-linejoin:miter;stroke:rgb(16.862746%,65.882355%,92.156863%);stroke-opacity:1;stroke-miterlimit:4;" d="M 21.609375 7.921875 L 106.390625 7.921875 C 113.953125 7.921875 120.078125 14.046875 120.078125 21.609375 L 120.078125 106.390625 C 120.078125 113.953125 113.953125 120.078125 106.390625 120.078125 L 21.609375 120.078125 C 14.046875 120.078125 7.921875 113.953125 7.921875 106.390625 L 7.921875 21.609375 C 7.921875 14.046875 14.046875 7.921875 21.609375 7.921875 Z M 21.609375 7.921875 " transform="matrix(0.25,0,0,0.25,0,0)"/>
<path style=" stroke:none;fill-rule:nonzero;fill:rgb(33.333334%,83.137256%,0%);fill-opacity:1;" d="M 4.050781 27.1875 L 13.609375 20.496094 L 27.949219 27.1875 Z M 4.050781 27.1875 "/>
<path style=" stroke:none;fill-rule:nonzero;fill:rgb(0%,40.000001%,100%);fill-opacity:1;" d="M 4.050781 27.1875 L 16 18.824219 L 16 3.292969 Z M 4.050781 27.1875 "/>
<path style=" stroke:none;fill-rule:nonzero;fill:rgb(100%,16.470589%,16.470589%);fill-opacity:1;" d="M 27.949219 27.1875 L 16 21.632812 L 16 3.292969 Z M 27.949219 27.1875 "/>
</g>
</svg>
