
<svg xmlns="http://www.w3.org/2000/svg" xmlns:xlink="http://www.w3.org/1999/xlink" width="32px" height="32px" viewBox="0 0 32 32" version="1.1">
<g id="surface1">
<path style="fill-rule:nonzero;fill:rgb(100%,100%,100%);fill-opacity:1;stroke-width:26.401737;stroke-linecap:butt;stroke-linejoin:miter;stroke:rgb(54.901963%,56.078434%,56.078434%);stroke-opacity:1;stroke-miterlimit:4;" d="M 92.5625 39.75 L 419.4375 39.75 C 448.5625 39.75 472.25 63.4375 472.25 92.5625 L 472.25 419.4375 C 472.25 448.5625 448.5625 472.25 419.4375 472.25 L 92.5625 472.25 C 63.4375 472.25 39.75 448.5625 39.75 419.4375 L 39.75 92.5625 C 39.75 63.4375 63.4375 39.75 92.5625 39.75 Z M 92.5625 39.75 " transform="matrix(0.0625,0,0,0.0625,0,0)"/>
<path style=" stroke:none;fill-rule:nonzero;fill:rgb(23.921569%,26.274511%,77.254903%);fill-opacity:1;" d="M 16.613281 27.480469 C 16.59375 27.460938 16.613281 25.011719 16.613281 22.042969 L 16.613281 16.625 L 22.152344 16.667969 L 27.730469 16.683594 L 27.742188 20.785156 C 27.757812 25.316406 27.761719 25.292969 27.410156 25.964844 C 27.179688 26.402344 26.652344 26.929688 26.222656 27.160156 C 25.558594 27.511719 25.605469 27.496094 20.910156 27.496094 C 18.566406 27.496094 16.632812 27.503906 16.613281 27.480469 Z M 16.613281 27.480469 "/>
<path style=" stroke:none;fill-rule:nonzero;fill:rgb(87.843138%,12.156863%,12.54902%);fill-opacity:1;" d="M 4.277344 11.226562 C 4.277344 7.613281 4.289062 6.769531 4.355469 6.558594 C 4.640625 5.613281 5.40625 4.871094 6.378906 4.597656 C 6.605469 4.535156 7.441406 4.519531 11.03125 4.519531 L 15.40625 4.519531 L 15.40625 15.625 L 4.277344 15.625 Z M 4.277344 11.226562 "/>
<path style=" stroke:none;fill-rule:nonzero;fill:rgb(15.686275%,76.078433%,15.686275%);fill-opacity:1;" d="M 16.628906 10.074219 L 16.640625 4.519531 L 20.777344 4.503906 C 23.464844 4.496094 25.050781 4.511719 25.304688 4.546875 C 26.488281 4.726562 27.480469 5.699219 27.675781 6.878906 C 27.71875 7.144531 27.734375 8.519531 27.722656 11.429688 L 27.726562 15.625 L 22.160156 15.613281 L 16.613281 15.625 Z M 16.628906 10.074219 "/>
<path style=" stroke:none;fill-rule:nonzero;fill:rgb(87.058824%,81.960785%,11.764706%);fill-opacity:1;" d="M 15.40625 27.488281 C 15.425781 27.46875 15.40625 24.550781 15.40625 22.03125 L 15.40625 16.625 L 9.847656 16.648438 L 4.269531 16.664062 L 4.257812 20.765625 C 4.242188 25.300781 4.238281 25.273438 4.589844 25.945312 C 4.820312 26.382812 5.347656 26.910156 5.777344 27.140625 C 6.441406 27.492188 6.394531 27.488281 11.089844 27.488281 C 13.433594 27.488281 15.386719 27.511719 15.40625 27.488281 Z M 15.40625 27.488281 "/>
</g>
</svg>
