
<svg xmlns="http://www.w3.org/2000/svg" xmlns:xlink="http://www.w3.org/1999/xlink" width="32px" height="32px" viewBox="0 0 32 32" version="1.1">
<g id="surface1">
<path style="fill-rule:nonzero;fill:rgb(40.000001%,40.000001%,40.000001%);fill-opacity:1;stroke-width:1.199;stroke-linecap:butt;stroke-linejoin:miter;stroke:rgb(0%,0%,0%);stroke-opacity:1;stroke-miterlimit:4;" d="M 68.375 11.9375 L 443.625 11.9375 C 474.8125 11.9375 500.0625 37.1875 500.0625 68.375 L 500.0625 443.625 C 500.0625 474.8125 474.8125 500.0625 443.625 500.0625 L 68.375 500.0625 C 37.1875 500.0625 11.9375 474.8125 11.9375 443.625 L 11.9375 68.375 C 11.9375 37.1875 37.1875 11.9375 68.375 11.9375 Z M 68.375 11.9375 " transform="matrix(0.0625,0,0,0.0625,0,0)"/>
<path style="fill-rule:nonzero;fill:rgb(20%,20%,20%);fill-opacity:1;stroke-width:1.175939;stroke-linecap:butt;stroke-linejoin:miter;stroke:rgb(0%,0%,0%);stroke-opacity:1;stroke-miterlimit:4;" d="M 56.4375 35.3125 L 455.5625 35.3125 C 467.1875 35.3125 476.6875 44.8125 476.6875 56.4375 L 476.6875 455.5625 C 476.6875 467.1875 467.1875 476.6875 455.5625 476.6875 L 56.4375 476.6875 C 44.8125 476.6875 35.3125 467.1875 35.3125 455.5625 L 35.3125 56.4375 C 35.3125 44.8125 44.8125 35.3125 56.4375 35.3125 Z M 56.4375 35.3125 " transform="matrix(0.0625,0,0,0.0625,0,0)"/>
<path style=" stroke:none;fill-rule:nonzero;fill:rgb(100%,100%,100%);fill-opacity:1;" d="M 5.046875 4.183594 L 5.046875 5.734375 C 5.058594 5.742188 5.066406 5.746094 5.082031 5.753906 L 7.761719 7.503906 C 7.886719 7.585938 7.886719 7.714844 7.761719 7.796875 L 5.082031 9.546875 C 5.066406 9.554688 5.058594 9.558594 5.046875 9.566406 L 5.046875 11.113281 C 5.121094 11.097656 5.191406 11.070312 5.253906 11.027344 L 9.707031 8.125 L 9.707031 7.21875 C 9.707031 7.207031 9.707031 7.191406 9.707031 7.175781 L 5.253906 4.273438 C 5.191406 4.230469 5.121094 4.203125 5.046875 4.183594 Z M 5.046875 4.183594 "/>
<path style=" stroke:none;fill-rule:nonzero;fill:rgb(100%,100%,100%);fill-opacity:1;" d="M 7.339844 11.550781 L 12.425781 11.550781 L 12.425781 12.988281 L 7.339844 12.988281 Z M 7.339844 11.550781 "/>
<path style=" stroke:none;fill-rule:nonzero;fill:rgb(100%,100%,100%);fill-opacity:1;" d="M 16.71875 4.253906 L 16.71875 27.746094 L 15.28125 27.746094 L 15.28125 4.253906 Z M 16.71875 4.253906 "/>
<path style=" stroke:none;fill-rule:nonzero;fill:rgb(100%,100%,100%);fill-opacity:1;" d="M 20.316406 4.183594 L 20.316406 5.734375 C 20.332031 5.742188 20.339844 5.746094 20.351562 5.753906 L 23.035156 7.503906 C 23.160156 7.585938 23.160156 7.714844 23.035156 7.796875 L 20.351562 9.546875 C 20.339844 9.554688 20.332031 9.558594 20.316406 9.566406 L 20.316406 11.113281 C 20.394531 11.097656 20.464844 11.070312 20.527344 11.027344 L 24.980469 8.125 L 24.980469 7.21875 C 24.980469 7.207031 24.980469 7.191406 24.980469 7.175781 L 20.527344 4.273438 C 20.464844 4.230469 20.394531 4.203125 20.316406 4.183594 Z M 20.316406 4.183594 "/>
<path style=" stroke:none;fill-rule:nonzero;fill:rgb(100%,100%,100%);fill-opacity:1;" d="M 22.613281 11.550781 L 27.695312 11.550781 L 27.695312 12.988281 L 22.613281 12.988281 Z M 22.613281 11.550781 "/>
</g>
</svg>
