
<svg xmlns="http://www.w3.org/2000/svg" xmlns:xlink="http://www.w3.org/1999/xlink" width="32px" height="32px" viewBox="0 0 32 32" version="1.1">
<g id="surface1">
<path style="fill-rule:nonzero;fill:rgb(100%,100%,100%);fill-opacity:1;stroke-width:53.174637;stroke-linecap:butt;stroke-linejoin:miter;stroke:rgb(17.647059%,61.960787%,18.039216%);stroke-opacity:1;stroke-miterlimit:4;" d="M 182.875 76.5 L 841.125 76.5 C 899.875 76.5 947.5 124.125 947.5 182.875 L 947.5 841.125 C 947.5 899.875 899.875 947.5 841.125 947.5 L 182.875 947.5 C 124.125 947.5 76.5 899.875 76.5 841.125 L 76.5 182.875 C 76.5 124.125 124.125 76.5 182.875 76.5 Z M 182.875 76.5 " transform="matrix(0.03125,0,0,0.03125,0,0)"/>
<path style=" stroke:none;fill-rule:nonzero;fill:rgb(10.980392%,90.196079%,12.941177%);fill-opacity:1;" d="M 15.230469 26.757812 C 12.609375 26.585938 10.230469 25.511719 8.367188 23.652344 C 6.746094 22.035156 5.726562 20.058594 5.363281 17.839844 C 5.257812 17.1875 5.230469 16.839844 5.230469 16.09375 C 5.230469 15.328125 5.257812 14.992188 5.378906 14.273438 C 5.6875 12.402344 6.550781 10.566406 7.785156 9.160156 C 7.898438 9.027344 8.019531 8.882812 8.054688 8.835938 L 8.117188 8.753906 L 7.878906 7.167969 C 7.75 6.292969 7.648438 5.574219 7.652344 5.570312 C 7.65625 5.5625 8.058594 5.75 9.597656 6.480469 L 10.472656 6.894531 L 10.648438 6.792969 C 12.332031 5.824219 14.453125 5.320312 16.402344 5.425781 C 18.085938 5.519531 19.558594 5.921875 20.953125 6.675781 C 21.125 6.769531 21.277344 6.847656 21.292969 6.847656 C 21.304688 6.847656 21.914062 6.546875 22.644531 6.183594 C 23.371094 5.816406 23.972656 5.523438 23.980469 5.527344 C 23.984375 5.53125 23.902344 6.238281 23.796875 7.097656 C 23.664062 8.175781 23.613281 8.675781 23.628906 8.703125 C 23.636719 8.726562 23.730469 8.832031 23.832031 8.941406 C 24.546875 9.71875 25.222656 10.746094 25.652344 11.714844 C 26.128906 12.78125 26.40625 13.832031 26.539062 15.042969 C 26.585938 15.480469 26.589844 16.585938 26.550781 17.019531 C 26.300781 19.613281 25.261719 21.832031 23.449219 23.644531 C 21.652344 25.441406 19.390625 26.503906 16.851562 26.738281 C 16.484375 26.769531 15.597656 26.78125 15.230469 26.757812 Z M 17.113281 25.664062 C 18.984375 25.410156 20.667969 24.675781 22.082031 23.507812 C 23.402344 22.410156 24.441406 20.90625 25.003906 19.285156 C 25.09375 19.027344 25.109375 18.964844 25.085938 18.9375 C 25.058594 18.910156 24.863281 18.902344 23.554688 18.902344 C 22.378906 18.902344 22.046875 18.910156 22.027344 18.933594 C 22.019531 18.949219 21.730469 19.644531 21.398438 20.480469 C 21.0625 21.316406 20.78125 22.003906 20.773438 22.015625 C 20.761719 22.023438 20.4375 21.335938 20.050781 20.484375 C 19.660156 19.632812 19.332031 18.929688 19.320312 18.921875 C 19.308594 18.910156 17.707031 18.902344 15.765625 18.902344 C 12.964844 18.902344 12.230469 18.910156 12.210938 18.933594 C 12.199219 18.949219 11.914062 19.652344 11.574219 20.496094 C 11.238281 21.339844 10.957031 22.03125 10.949219 22.03125 C 10.941406 22.03125 10.621094 21.332031 10.230469 20.480469 C 9.84375 19.625 9.511719 18.921875 9.492188 18.917969 C 9.472656 18.910156 8.851562 18.902344 8.105469 18.902344 C 6.933594 18.902344 6.75 18.910156 6.722656 18.9375 C 6.648438 19.027344 7.183594 20.296875 7.59375 20.996094 C 9.097656 23.558594 11.742188 25.292969 14.699219 25.660156 C 15.226562 25.726562 15.222656 25.726562 16.027344 25.71875 C 16.617188 25.714844 16.832031 25.703125 17.113281 25.664062 Z M 25.398438 17.664062 C 25.464844 17.585938 25.542969 16.71875 25.542969 16.082031 C 25.542969 14.542969 25.207031 13.132812 24.503906 11.746094 C 23.542969 9.84375 22.074219 8.386719 20.164062 7.449219 C 19.160156 6.953125 18.183594 6.664062 17.011719 6.511719 C 16.558594 6.453125 15.257812 6.449219 14.796875 6.511719 C 13.386719 6.691406 12.125 7.121094 10.941406 7.824219 C 8.574219 9.238281 6.917969 11.628906 6.417969 14.359375 C 6.246094 15.308594 6.21875 16.429688 6.351562 17.386719 C 6.371094 17.523438 6.394531 17.648438 6.410156 17.664062 C 6.441406 17.707031 25.363281 17.707031 25.398438 17.664062 Z M 9.480469 16.640625 C 9.1875 16.597656 8.839844 16.34375 8.703125 16.078125 C 8.464844 15.605469 8.558594 15.058594 8.941406 14.714844 C 9.152344 14.527344 9.359375 14.449219 9.671875 14.449219 C 10.003906 14.449219 10.261719 14.554688 10.480469 14.785156 C 10.769531 15.082031 10.863281 15.515625 10.722656 15.917969 C 10.597656 16.285156 10.230469 16.585938 9.839844 16.640625 C 9.660156 16.667969 9.664062 16.667969 9.480469 16.640625 Z M 21.933594 16.644531 C 21.671875 16.601562 21.507812 16.511719 21.308594 16.308594 C 21.082031 16.082031 20.980469 15.804688 21.003906 15.46875 C 21.019531 15.136719 21.160156 14.878906 21.425781 14.667969 C 21.613281 14.519531 21.761719 14.46875 22.050781 14.457031 C 22.445312 14.4375 22.6875 14.535156 22.941406 14.8125 C 23.003906 14.882812 23.089844 15.007812 23.128906 15.089844 C 23.191406 15.222656 23.199219 15.269531 23.207031 15.480469 C 23.21875 15.800781 23.167969 15.984375 23.011719 16.191406 C 22.75 16.535156 22.34375 16.707031 21.933594 16.644531 Z M 21.933594 16.644531 "/>
</g>
</svg>
