<!-- color: #eeeeee -->
<svg xmlns="http://www.w3.org/2000/svg" xmlns:xlink="http://www.w3.org/1999/xlink" width="32px" height="32px" viewBox="0 0 32 32" version="1.1">
<defs>
<clipPath id="clip1">
  <path d="M 7.5 13.1875 L 24.5625 13.1875 L 24.5625 19.9375 L 7.5 19.9375 Z M 7.5 13.1875 "/>
</clipPath>
<clipPath id="clip2">
  <path d="M 36.984375 15.816406 C 36.984375 27.386719 27.601562 36.761719 16.042969 36.761719 C 4.480469 36.761719 -4.902344 27.386719 -4.902344 15.816406 C -4.902344 4.246094 4.480469 -5.128906 16.042969 -5.128906 C 27.601562 -5.128906 36.984375 4.246094 36.984375 15.816406 Z M 36.984375 15.816406 "/>
</clipPath>
<clipPath id="clip3">
  <path d="M 8.1875 21.125 L 23.875 21.125 L 23.875 23.75 L 8.1875 23.75 Z M 8.1875 21.125 "/>
</clipPath>
<clipPath id="clip4">
  <path d="M 36.984375 15.816406 C 36.984375 27.386719 27.601562 36.761719 16.042969 36.761719 C 4.480469 36.761719 -4.902344 27.386719 -4.902344 15.816406 C -4.902344 4.246094 4.480469 -5.128906 16.042969 -5.128906 C 27.601562 -5.128906 36.984375 4.246094 36.984375 15.816406 Z M 36.984375 15.816406 "/>
</clipPath>
<clipPath id="clip5">
  <path d="M 7.875 19.875 L 24.1875 19.875 L 24.1875 21.1875 L 7.875 21.1875 Z M 7.875 19.875 "/>
</clipPath>
<clipPath id="clip6">
  <path d="M 36.984375 15.816406 C 36.984375 27.386719 27.601562 36.761719 16.042969 36.761719 C 4.480469 36.761719 -4.902344 27.386719 -4.902344 15.816406 C -4.902344 4.246094 4.480469 -5.128906 16.042969 -5.128906 C 27.601562 -5.128906 36.984375 4.246094 36.984375 15.816406 Z M 36.984375 15.816406 "/>
</clipPath>
<clipPath id="clip7">
  <path d="M 5.0625 5.25 L 27 5.25 L 27 27.6875 L 5.0625 27.6875 Z M 5.0625 5.25 "/>
</clipPath>
<clipPath id="clip8">
  <path d="M 36.984375 15.816406 C 36.984375 27.386719 27.601562 36.761719 16.042969 36.761719 C 4.480469 36.761719 -4.902344 27.386719 -4.902344 15.816406 C -4.902344 4.246094 4.480469 -5.128906 16.042969 -5.128906 C 27.601562 -5.128906 36.984375 4.246094 36.984375 15.816406 Z M 36.984375 15.816406 "/>
</clipPath>
<clipPath id="clip9">
  <path d="M 22.6875 3.9375 L 26.5 3.9375 L 26.5 10.0625 L 22.6875 10.0625 Z M 22.6875 3.9375 "/>
</clipPath>
<clipPath id="clip10">
  <path d="M 36.984375 15.816406 C 36.984375 27.386719 27.601562 36.761719 16.042969 36.761719 C 4.480469 36.761719 -4.902344 27.386719 -4.902344 15.816406 C -4.902344 4.246094 4.480469 -5.128906 16.042969 -5.128906 C 27.601562 -5.128906 36.984375 4.246094 36.984375 15.816406 Z M 36.984375 15.816406 "/>
</clipPath>
<clipPath id="clip11">
  <path d="M 5.4375 3.9375 L 9.3125 3.9375 L 9.3125 10.0625 L 5.4375 10.0625 Z M 5.4375 3.9375 "/>
</clipPath>
<clipPath id="clip12">
  <path d="M 36.984375 15.816406 C 36.984375 27.386719 27.601562 36.761719 16.042969 36.761719 C 4.480469 36.761719 -4.902344 27.386719 -4.902344 15.816406 C -4.902344 4.246094 4.480469 -5.128906 16.042969 -5.128906 C 27.601562 -5.128906 36.984375 4.246094 36.984375 15.816406 Z M 36.984375 15.816406 "/>
</clipPath>
</defs>
<g id="surface1">
<path style="fill-rule:nonzero;fill:rgb(100%,100%,100%);fill-opacity:1;stroke-width:6.741573;stroke-linecap:butt;stroke-linejoin:miter;stroke:rgb(17.647059%,61.960787%,18.039216%);stroke-opacity:1;stroke-miterlimit:4;" d="M 22.265625 8.78125 L 105.734375 8.78125 C 113.171875 8.78125 119.21875 14.828125 119.21875 22.265625 L 119.21875 105.734375 C 119.21875 113.171875 113.171875 119.21875 105.734375 119.21875 L 22.265625 119.21875 C 14.828125 119.21875 8.78125 113.171875 8.78125 105.734375 L 8.78125 22.265625 C 8.78125 14.828125 14.828125 8.78125 22.265625 8.78125 Z M 22.265625 8.78125 " transform="matrix(0.25,0,0,0.25,0,0)"/>
<g clip-path="url(#clip1)" clip-rule="nonzero">
<g clip-path="url(#clip2)" clip-rule="nonzero">
<path style=" stroke:none;fill-rule:nonzero;fill:rgb(17.647059%,17.647059%,17.647059%);fill-opacity:1;" d="M 7.523438 13.222656 L 24.558594 13.222656 L 24.558594 19.886719 L 7.523438 19.886719 M 7.523438 13.222656 "/>
</g>
</g>
<g clip-path="url(#clip3)" clip-rule="nonzero">
<g clip-path="url(#clip4)" clip-rule="nonzero">
<path style=" stroke:none;fill-rule:nonzero;fill:rgb(17.647059%,17.647059%,17.647059%);fill-opacity:1;" d="M 8.210938 21.167969 L 23.871094 21.167969 L 23.871094 23.691406 L 8.210938 23.691406 M 8.210938 21.167969 "/>
</g>
</g>
<g clip-path="url(#clip5)" clip-rule="nonzero">
<g clip-path="url(#clip6)" clip-rule="nonzero">
<path style=" stroke:none;fill-rule:nonzero;fill:rgb(97.647059%,97.647059%,97.647059%);fill-opacity:1;" d="M 7.882812 19.933594 L 24.140625 19.933594 L 24.140625 21.179688 L 7.882812 21.179688 M 7.882812 19.933594 "/>
</g>
</g>
<g clip-path="url(#clip7)" clip-rule="nonzero">
<g clip-path="url(#clip8)" clip-rule="nonzero">
<path style=" stroke:none;fill-rule:nonzero;fill:rgb(34.509805%,63.529414%,20.784314%);fill-opacity:1;" d="M 15.972656 5.261719 C 15.644531 5.261719 15.332031 5.285156 15.011719 5.316406 C 14.761719 5.339844 14.5 5.375 14.253906 5.417969 L 14.253906 5.4375 C 13.441406 5.578125 12.648438 5.796875 11.910156 6.113281 C 10.617188 6.664062 9.636719 7.21875 8.652344 8.199219 C 8.949219 8.792969 9.527344 9.832031 9.902344 10.332031 L 7.011719 10.332031 C 6.386719 11.238281 5.980469 11.960938 5.640625 13.035156 C 5.300781 14.113281 5.113281 15.265625 5.113281 16.453125 C 5.113281 21.988281 9.074219 26.585938 14.253906 27.488281 L 14.253906 27.511719 C 14.496094 27.550781 14.753906 27.566406 15 27.589844 C 15.324219 27.621094 15.640625 27.648438 15.976562 27.648438 C 16.019531 27.648438 16.066406 27.648438 16.113281 27.648438 C 16.445312 27.648438 16.78125 27.621094 17.109375 27.589844 C 17.355469 27.566406 17.589844 27.550781 17.832031 27.511719 L 17.832031 27.488281 C 23.015625 26.589844 26.972656 21.988281 26.972656 16.453125 C 26.972656 15.265625 26.78125 14.109375 26.445312 13.035156 C 26.109375 11.957031 25.703125 11.238281 25.074219 10.332031 L 22.1875 10.332031 C 22.5625 9.832031 23.136719 8.792969 23.4375 8.199219 C 22.445312 7.21875 21.464844 6.660156 20.179688 6.113281 C 19.433594 5.796875 18.644531 5.578125 17.835938 5.4375 L 17.835938 5.417969 C 17.578125 5.371094 17.332031 5.34375 17.074219 5.316406 C 16.761719 5.285156 16.4375 5.261719 16.117188 5.261719 C 16.070312 5.261719 16.023438 5.261719 15.980469 5.261719 M 10.054688 15.246094 C 10.941406 15.246094 11.65625 15.972656 11.65625 16.878906 C 11.65625 17.777344 10.941406 18.511719 10.054688 18.511719 C 9.175781 18.511719 8.457031 17.777344 8.457031 16.878906 C 8.457031 15.976562 9.175781 15.246094 10.054688 15.246094 M 22.027344 15.246094 C 22.914062 15.246094 23.628906 15.972656 23.628906 16.878906 C 23.628906 17.777344 22.914062 18.511719 22.027344 18.511719 C 21.144531 18.511719 20.425781 17.777344 20.425781 16.878906 C 20.425781 15.976562 21.144531 15.246094 22.027344 15.246094 M 8.082031 20.832031 L 24 20.832031 L 24 21.167969 L 22.636719 21.167969 C 22.613281 22.347656 21.816406 22.980469 21.089844 23.675781 C 20.355469 22.878906 19.957031 22.011719 20.214844 21.167969 L 11.878906 21.167969 C 12.136719 22.011719 11.738281 22.878906 11 23.675781 C 10.269531 22.980469 9.480469 22.347656 9.457031 21.167969 L 8.089844 21.167969 L 8.089844 20.832031 M 8.082031 20.832031 "/>
</g>
</g>
<g clip-path="url(#clip9)" clip-rule="nonzero">
<g clip-path="url(#clip10)" clip-rule="nonzero">
<path style=" stroke:none;fill-rule:nonzero;fill:rgb(17.647059%,17.647059%,17.647059%);fill-opacity:1;" d="M 22.6875 10.042969 C 23.6875 8.714844 23.96875 7.5 25.914062 3.980469 C 26.714844 4.851562 26.917969 8.511719 25.03125 10.042969 M 22.6875 10.042969 "/>
</g>
</g>
<g clip-path="url(#clip11)" clip-rule="nonzero">
<g clip-path="url(#clip12)" clip-rule="nonzero">
<path style=" stroke:none;fill-rule:nonzero;fill:rgb(17.647059%,17.647059%,17.647059%);fill-opacity:1;" d="M 9.257812 10.042969 C 8.257812 8.714844 7.976562 7.5 6.03125 3.980469 C 5.230469 4.851562 5.027344 8.511719 6.914062 10.042969 M 9.257812 10.042969 "/>
</g>
</g>
</g>
</svg>
