
<svg xmlns="http://www.w3.org/2000/svg" xmlns:xlink="http://www.w3.org/1999/xlink" width="32px" height="32px" viewBox="0 0 32 32" version="1.1">
<g id="surface1">
<path style="fill-rule:nonzero;fill:rgb(16.078432%,50.196081%,72.549021%);fill-opacity:1;stroke-width:1.804152;stroke-linecap:butt;stroke-linejoin:miter;stroke:rgb(21.568628%,20.784314%,22.745098%);stroke-opacity:1;stroke-miterlimit:4;" d="M -31.22676 378.552419 L -8.887104 378.552419 C -6.89391 378.552419 -5.279951 380.166378 -5.279951 382.159572 L -5.279951 404.499228 C -5.279951 406.492422 -6.89391 408.106381 -8.887104 408.106381 L -31.22676 408.106381 C -33.219954 408.106381 -34.833913 406.492422 -34.833913 404.499228 L -34.833913 382.159572 C -34.833913 380.166378 -33.219954 378.552419 -31.22676 378.552419 Z M -31.22676 378.552419 " transform="matrix(0.885827,0,0,0.885827,33.766965,-332.421672)"/>
<path style=" stroke:none;fill-rule:nonzero;fill:rgb(21.568628%,20.784314%,22.745098%);fill-opacity:1;" d="M 3.402344 3.488281 L 28.394531 3.488281 L 28.394531 7.824219 L 3.402344 7.824219 Z M 3.402344 3.488281 "/>
<path style=" stroke:none;fill-rule:nonzero;fill:rgb(100%,100%,100%);fill-opacity:1;" d="M 21.011719 5.203125 L 22.632812 5.203125 L 22.632812 6.792969 L 21.011719 6.792969 Z M 21.011719 5.203125 "/>
<path style=" stroke:none;fill-rule:nonzero;fill:rgb(100%,100%,100%);fill-opacity:1;" d="M 23.988281 5.203125 L 25.605469 5.203125 L 25.605469 6.792969 L 23.988281 6.792969 Z M 23.988281 5.203125 "/>
<path style=" stroke:none;fill-rule:nonzero;fill:rgb(100%,100%,100%);fill-opacity:1;" d="M 18.039062 5.203125 L 19.660156 5.203125 L 19.660156 6.792969 L 18.039062 6.792969 Z M 18.039062 5.203125 "/>
<path style=" stroke:none;fill-rule:nonzero;fill:rgb(80.000001%,80.000001%,80.000001%);fill-opacity:1;" d="M 9.078125 25.183594 L 14.175781 17.628906 L 8.929688 9.316406 L 12.300781 9.324219 L 16.480469 15.855469 L 10.230469 25.1875 L 9.078125 25.1875 Z M 9.078125 25.183594 "/>
<path style=" stroke:none;fill-rule:nonzero;fill:rgb(80.000001%,80.000001%,80.000001%);fill-opacity:1;" d="M 19.054688 25.191406 L 14.902344 18.644531 L 21.207031 9.3125 L 22.328125 9.3125 L 17.210938 16.902344 L 22.425781 25.191406 Z M 19.054688 25.191406 "/>
</g>
</svg>
