
<svg xmlns="http://www.w3.org/2000/svg" xmlns:xlink="http://www.w3.org/1999/xlink" width="32px" height="32px" viewBox="0 0 32 32" version="1.1">
<g id="surface1">
<path style="fill-rule:nonzero;fill:rgb(80.392158%,61.176473%,42.745098%);fill-opacity:1;stroke-width:28.191782;stroke-linecap:butt;stroke-linejoin:miter;stroke:rgb(41.568628%,30.19608%,21.960784%);stroke-opacity:1;stroke-miterlimit:4;" d="M -274.436361 352.816935 L 74.61889 352.816935 C 105.742044 352.816935 130.978726 378.053617 130.978726 409.176771 L 130.978726 758.232022 C 130.978726 789.355176 105.742044 814.591858 74.61889 814.591858 L -274.436361 814.591858 C -305.559515 814.591858 -330.796197 789.355176 -330.796197 758.232022 L -330.796197 409.176771 C -330.796197 378.053617 -305.559515 352.816935 -274.436361 352.816935 Z M -274.436361 352.816935 " transform="matrix(0.0623782,0,0,0.0623782,22.232127,-20.410428)"/>
<path style=" stroke:none;fill-rule:nonzero;fill:rgb(41.568628%,30.19608%,21.960784%);fill-opacity:1;" d="M 17.871094 7.980469 C 17.53125 7.980469 17.195312 7.988281 17 8.011719 C 16.574219 8.054688 15.945312 8.183594 15.53125 8.308594 C 12.464844 9.238281 10.214844 11.953125 9.878906 15.128906 C 9.839844 15.519531 9.839844 16.480469 9.878906 16.871094 C 9.925781 17.296875 10.050781 17.925781 10.175781 18.339844 C 10.71875 20.125 11.871094 21.664062 13.449219 22.714844 C 14.464844 23.390625 15.644531 23.828125 16.867188 23.980469 C 17.269531 24.027344 18.332031 24.035156 18.738281 23.996094 C 19.164062 23.949219 19.792969 23.820312 20.207031 23.695312 C 23.03125 22.839844 25.179688 20.46875 25.746094 17.582031 C 25.859375 17.015625 25.894531 16.65625 25.894531 16.003906 C 25.894531 15.128906 25.792969 14.425781 25.558594 13.660156 C 25.1875 12.433594 24.546875 11.347656 23.636719 10.410156 C 22.316406 9.050781 20.59375 8.207031 18.738281 8.011719 C 18.542969 7.988281 18.207031 7.980469 17.871094 7.980469 Z M 17.871094 8.652344 C 18.261719 8.652344 18.652344 8.667969 18.902344 8.707031 C 21.359375 9.089844 23.378906 10.558594 24.464844 12.746094 C 24.804688 13.433594 25.035156 14.167969 25.160156 14.964844 C 25.238281 15.464844 25.238281 16.535156 25.160156 17.035156 C 24.96875 18.277344 24.496094 19.421875 23.777344 20.386719 C 23.496094 20.761719 22.996094 21.320312 22.914062 21.347656 C 22.875 21.359375 22.765625 21.3125 22.589844 21.203125 C 22.328125 21.046875 21.933594 20.871094 20.894531 20.441406 C 20.101562 20.113281 19.738281 19.859375 19.542969 19.503906 C 19.457031 19.339844 19.457031 19.332031 19.441406 18.703125 L 19.429688 18.066406 L 19.539062 17.949219 C 19.761719 17.722656 20.011719 17.1875 20.109375 16.746094 C 20.160156 16.511719 20.167969 16.496094 20.285156 16.441406 C 20.546875 16.304688 20.707031 15.9375 20.707031 15.464844 C 20.707031 15.167969 20.703125 15.15625 20.597656 15.011719 C 20.496094 14.867188 20.496094 14.851562 20.527344 14.730469 C 20.777344 13.871094 20.855469 12.949219 20.738281 12.316406 C 20.628906 11.730469 20.316406 11.285156 19.867188 11.066406 C 19.742188 11.007812 19.578125 10.949219 19.5 10.933594 C 19.390625 10.917969 19.332031 10.882812 19.230469 10.78125 C 18.941406 10.472656 18.550781 10.347656 17.855469 10.351562 C 16.496094 10.355469 15.59375 10.855469 15.214844 11.816406 C 14.941406 12.511719 14.941406 13.445312 15.207031 14.683594 C 15.246094 14.855469 15.246094 14.859375 15.140625 15.007812 C 15.035156 15.15625 15.035156 15.167969 15.035156 15.464844 C 15.035156 15.941406 15.191406 16.304688 15.457031 16.441406 C 15.566406 16.496094 15.582031 16.519531 15.613281 16.683594 C 15.699219 17.109375 15.890625 17.53125 16.152344 17.871094 L 16.3125 18.085938 L 16.308594 18.71875 C 16.304688 19.417969 16.300781 19.433594 16.09375 19.691406 C 15.859375 19.980469 15.484375 20.191406 14.386719 20.636719 C 13.792969 20.878906 13.191406 21.164062 12.996094 21.296875 C 12.945312 21.332031 12.878906 21.363281 12.855469 21.363281 C 12.832031 21.363281 12.707031 21.253906 12.578125 21.121094 C 11.488281 19.964844 10.824219 18.609375 10.578125 17.035156 C 10.5 16.535156 10.5 15.46875 10.578125 14.964844 C 10.960938 12.511719 12.425781 10.492188 14.613281 9.40625 C 15.300781 9.0625 16.035156 8.832031 16.835938 8.707031 C 17.085938 8.667969 17.480469 8.652344 17.871094 8.652344 Z M 17.871094 8.652344 "/>
<path style=" stroke:none;fill-rule:nonzero;fill:rgb(41.568628%,30.19608%,21.960784%);fill-opacity:1;" d="M 2.160156 1.792969 L 2.160156 29.839844 L 6.171875 29.839844 L 6.171875 1.792969 Z M 2.160156 1.792969 "/>
<path style="fill-rule:nonzero;fill:rgb(26.666668%,66.666669%,0%);fill-opacity:1;stroke-width:44.807911;stroke-linecap:butt;stroke-linejoin:miter;stroke:rgb(26.666668%,66.666669%,0%);stroke-opacity:1;stroke-miterlimit:4;" d="M 739.391417 294.780557 L 739.391417 79.667834 L 800.852195 79.667834 L 800.852195 509.761389 L 739.391417 509.761389 Z M 739.391417 294.780557 " transform="matrix(0.0296175,0,0,0.0296175,1.886256,15.648253)"/>
<path style="fill-rule:nonzero;fill:rgb(26.666668%,66.666669%,0%);fill-opacity:1;stroke-width:44.807911;stroke-linecap:butt;stroke-linejoin:miter;stroke:rgb(26.666668%,66.666669%,0%);stroke-opacity:1;stroke-miterlimit:4;" d="M 773.155278 260.884806 L 988.268001 260.884806 L 988.268001 322.477474 L 558.042556 322.477474 L 558.042556 260.884806 Z M 773.155278 260.884806 " transform="matrix(0.0296175,0,0,0.0296175,1.886256,15.648253)"/>
</g>
</svg>
