
<svg xmlns="http://www.w3.org/2000/svg" xmlns:xlink="http://www.w3.org/1999/xlink" width="32px" height="32px" viewBox="0 0 32 32" version="1.1">
<g id="surface1">
<path style="fill-rule:nonzero;fill:rgb(100%,100%,100%);fill-opacity:1;stroke-width:26.401737;stroke-linecap:butt;stroke-linejoin:miter;stroke:rgb(21.568628%,48.235294%,94.117647%);stroke-opacity:1;stroke-miterlimit:4;" d="M 92.5625 580.112183 L 419.4375 580.112183 C 448.5625 580.112183 472.25 603.799683 472.25 632.924683 L 472.25 959.799683 C 472.25 988.924683 448.5625 1012.612183 419.4375 1012.612183 L 92.5625 1012.612183 C 63.4375 1012.612183 39.75 988.924683 39.75 959.799683 L 39.75 632.924683 C 39.75 603.799683 63.4375 580.112183 92.5625 580.112183 Z M 92.5625 580.112183 " transform="matrix(0.0625,0,0,0.0625,0,-33.772636)"/>
<path style=" stroke:none;fill-rule:evenodd;fill:rgb(21.176471%,48.235294%,94.117647%);fill-opacity:0.996078;" d="M 16.863281 4.648438 C 19.65625 7.0625 20.355469 9.507812 20.355469 13.347656 L 21.5 10.378906 C 22.707031 11.566406 23.53125 13.136719 23.769531 14.898438 C 23.859375 16.253906 23.636719 17.449219 23.289062 18.5 C 24.714844 17.589844 26.515625 16.554688 27.285156 14.898438 C 26.769531 9.417969 22.367188 5.066406 16.863281 4.648438 Z M 14.898438 4.714844 C 9.417969 5.230469 5.066406 9.632812 4.648438 15.136719 C 7.0625 12.34375 9.503906 11.644531 13.347656 11.644531 L 10.378906 10.5 C 11.566406 9.292969 13.136719 8.46875 14.898438 8.230469 C 16.253906 8.140625 17.449219 8.363281 18.5 8.710938 C 17.589844 7.285156 16.554688 5.484375 14.898438 4.714844 Z M 8.710938 13.5 C 7.285156 14.410156 5.484375 15.445312 4.714844 17.101562 C 5.230469 22.582031 9.632812 26.933594 15.136719 27.351562 C 12.34375 24.9375 11.644531 22.492188 11.644531 18.652344 L 10.5 21.621094 C 9.292969 20.433594 8.46875 18.863281 8.230469 17.101562 C 8.140625 15.746094 8.363281 14.550781 8.710938 13.5 Z M 27.351562 16.863281 C 24.9375 19.65625 22.496094 20.355469 18.652344 20.355469 L 21.621094 21.5 C 20.433594 22.707031 18.863281 23.53125 17.101562 23.769531 C 15.746094 23.859375 14.550781 23.636719 13.5 23.289062 C 14.410156 24.714844 15.445312 26.515625 17.101562 27.285156 C 22.582031 26.769531 26.933594 22.367188 27.351562 16.863281 Z M 27.351562 16.863281 "/>
</g>
</svg>
