
<svg xmlns="http://www.w3.org/2000/svg" xmlns:xlink="http://www.w3.org/1999/xlink" width="32px" height="32px" viewBox="0 0 32 32" version="1.1">
<defs>
<linearGradient id="linear0" gradientUnits="userSpaceOnUse" x1="23" y1="41" x2="23" y2="4.000004" gradientTransform="matrix(0.519879,0,0,0.519879,3.814897,5.086273)">
<stop offset="0" style="stop-color:rgb(21.960784%,69.01961%,82.352942%);stop-opacity:1;"/>
<stop offset="1" style="stop-color:rgb(45.490196%,80.000001%,83.92157%);stop-opacity:1;"/>
</linearGradient>
<linearGradient id="linear1" gradientUnits="userSpaceOnUse" x1="7" y1="19" x2="11" y2="17.928204" gradientTransform="matrix(0.519879,0,0,0.519879,3.814897,5.086273)">
<stop offset="0" style="stop-color:rgb(0%,62.7451%,70.588237%);stop-opacity:1;"/>
<stop offset="1" style="stop-color:rgb(0%,62.7451%,70.588237%);stop-opacity:0;"/>
</linearGradient>
<linearGradient id="linear2" gradientUnits="userSpaceOnUse" x1="18" y1="38" x2="21" y2="36.267948" gradientTransform="matrix(0.519879,0,0,0.519879,3.814897,5.086273)">
<stop offset="0" style="stop-color:rgb(5.098039%,38.039216%,45.09804%);stop-opacity:1;"/>
<stop offset="1" style="stop-color:rgb(5.098039%,38.039216%,45.09804%);stop-opacity:0;"/>
</linearGradient>
<linearGradient id="linear3" gradientUnits="userSpaceOnUse" x1="22" y1="31" x2="23.875645" y2="24" gradientTransform="matrix(0.519879,0,0,0.519879,3.814897,5.086273)">
<stop offset="0" style="stop-color:rgb(78.823531%,32.156864%,0%);stop-opacity:1;"/>
<stop offset="1" style="stop-color:rgb(78.823531%,32.156864%,0%);stop-opacity:0;"/>
</linearGradient>
<linearGradient id="linear4" gradientUnits="userSpaceOnUse" x1="32" y1="34" x2="32" y2="28" gradientTransform="matrix(0.519879,0,0,0.519879,3.814897,5.086273)">
<stop offset="0" style="stop-color:rgb(0%,56.470591%,72.156864%);stop-opacity:1;"/>
<stop offset="1" style="stop-color:rgb(0%,56.470591%,72.156864%);stop-opacity:0;"/>
</linearGradient>
</defs>
<g id="surface1">
<path style="fill-rule:nonzero;fill:rgb(100%,100%,100%);fill-opacity:1;stroke-width:6.575808;stroke-linecap:butt;stroke-linejoin:miter;stroke:rgb(16.862746%,65.882355%,92.156863%);stroke-opacity:1;stroke-miterlimit:4;" d="M 408.774536 431.407389 L 490.180786 431.407389 C 497.446411 431.407389 503.337036 437.313639 503.337036 444.563639 L 503.337036 525.985514 C 503.337036 533.251139 497.446411 539.126139 490.180786 539.126139 L 408.774536 539.126139 C 401.508911 539.126139 395.618286 533.251139 395.618286 525.985514 L 395.618286 444.563639 C 395.618286 437.313639 401.508911 431.407389 408.774536 431.407389 Z M 408.774536 431.407389 " transform="matrix(0.25,0,0,0.25,-96.142853,-104.949504)"/>
<path style=" stroke:none;fill-rule:evenodd;fill:url(#linear0);" d="M 26.691406 5.605469 L 21.488281 16.003906 L 24.089844 16.523438 Z M 9.011719 12.886719 L 4.335938 17.042969 L 9.535156 14.964844 L 13.171875 26.402344 L 15.773438 24.839844 L 27.730469 25.878906 L 23.570312 18.082031 L 21.488281 17.5625 L 14.730469 22.242188 L 11.09375 13.402344 Z M 9.011719 12.886719 "/>
<path style=" stroke:none;fill-rule:evenodd;fill:rgb(95.686275%,35.294119%,0%);fill-opacity:1;" d="M 13.691406 18.082031 L 15.253906 20.683594 L 20.972656 17.5625 L 16.8125 16.523438 Z M 13.691406 18.082031 "/>
<path style=" stroke:none;fill-rule:evenodd;fill:url(#linear1);" d="M 9.011719 12.886719 L 8.277344 15.464844 L 9.535156 14.964844 Z M 9.011719 12.886719 "/>
<path style=" stroke:none;fill-rule:evenodd;fill:url(#linear2);" d="M 14.65625 22.054688 L 13.730469 26.066406 L 15.773438 24.839844 L 15.847656 24.847656 L 14.882812 22.140625 L 14.730469 22.242188 Z M 14.65625 22.054688 "/>
<path style=" stroke:none;fill-rule:evenodd;fill:url(#linear3);" d="M 16.8125 16.523438 L 13.691406 18.082031 L 15.253906 20.683594 L 15.464844 20.566406 Z M 16.8125 16.523438 "/>
<path style=" stroke:none;fill-rule:evenodd;fill:url(#linear4);" d="M 21.488281 17.5625 L 19.054688 19.25 L 27.707031 25.839844 L 23.570312 18.082031 Z M 21.488281 17.5625 "/>
</g>
</svg>
