
<svg xmlns="http://www.w3.org/2000/svg" xmlns:xlink="http://www.w3.org/1999/xlink" width="32px" height="32px" viewBox="0 0 32 32" version="1.1">
<defs>
<clipPath id="clip1">
  <path d="M 3.75 3.9375 L 28.0625 3.9375 L 28.0625 28.25 L 3.75 28.25 Z M 3.75 3.9375 "/>
</clipPath>
<clipPath id="clip2">
  <path d="M 6.757812 3.96875 L 25.074219 3.96875 C 26.707031 3.96875 28.03125 5.292969 28.03125 6.925781 L 28.03125 25.242188 C 28.03125 26.875 26.707031 28.199219 25.074219 28.199219 L 6.757812 28.199219 C 5.125 28.199219 3.800781 26.875 3.800781 25.242188 L 3.800781 6.925781 C 3.800781 5.292969 5.125 3.96875 6.757812 3.96875 Z M 6.757812 3.96875 "/>
</clipPath>
</defs>
<g id="surface1">
<path style=" stroke:none;fill-rule:nonzero;fill:rgb(82.745099%,37.254903%,37.254903%);fill-opacity:1;" d="M 11.386719 5.8125 L 19.59375 5.8125 C 23.105469 5.8125 25.949219 8.65625 25.949219 12.164062 L 25.949219 21.09375 C 25.949219 24.601562 23.105469 27.445312 19.59375 27.445312 L 11.386719 27.445312 C 7.878906 27.445312 5.035156 24.601562 5.035156 21.09375 L 5.035156 12.164062 C 5.035156 8.65625 7.878906 5.8125 11.386719 5.8125 Z M 11.386719 5.8125 "/>
<path style="fill-rule:nonzero;fill:rgb(38.431373%,56.470591%,27.058825%);fill-opacity:1;stroke-width:6.696714;stroke-linecap:butt;stroke-linejoin:miter;stroke:rgb(32.156864%,32.156864%,32.156864%);stroke-opacity:1;stroke-miterlimit:4;" d="M 22.546875 9.140625 L 105.453125 9.140625 C 112.859375 9.140625 118.859375 15.140625 118.859375 22.546875 L 118.859375 105.453125 C 118.859375 112.859375 112.859375 118.859375 105.453125 118.859375 L 22.546875 118.859375 C 15.140625 118.859375 9.140625 112.859375 9.140625 105.453125 L 9.140625 22.546875 C 9.140625 15.140625 15.140625 9.140625 22.546875 9.140625 Z M 22.546875 9.140625 " transform="matrix(0.25,0,0,0.25,0,0)"/>
<path style=" stroke:none;fill-rule:nonzero;fill:rgb(100%,100%,100%);fill-opacity:1;" d="M 7.824219 5.8125 L 23.785156 5.8125 C 25.535156 5.8125 26.949219 7.136719 26.949219 8.769531 L 26.949219 23.957031 C 26.949219 25.589844 25.535156 26.914062 23.785156 26.914062 L 7.824219 26.914062 C 6.078125 26.914062 4.660156 25.589844 4.660156 23.957031 L 4.660156 8.769531 C 4.660156 7.136719 6.078125 5.8125 7.824219 5.8125 Z M 7.824219 5.8125 "/>
<g clip-path="url(#clip1)" clip-rule="nonzero">
<g clip-path="url(#clip2)" clip-rule="nonzero">
<path style=" stroke:none;fill-rule:nonzero;fill:rgb(38.431373%,56.470591%,27.058825%);fill-opacity:1;" d="M -1.472656 15.757812 L -1.472656 -0.980469 L 32.949219 -0.980469 L 32.949219 32.5 L -1.472656 32.5 Z M 23.722656 20.15625 C 23.730469 17.699219 23.757812 15.691406 23.777344 15.691406 C 23.800781 15.691406 24.050781 15.886719 24.332031 16.125 C 24.898438 16.597656 25.042969 16.675781 25.394531 16.675781 C 25.914062 16.675781 26.292969 16.3125 26.292969 15.816406 C 26.292969 15.222656 26.835938 15.703125 19.773438 10.027344 C 17.757812 8.410156 16.035156 7.039062 15.945312 6.980469 C 15.828125 6.898438 15.753906 6.886719 15.660156 6.9375 C 15.589844 6.972656 13.679688 8.488281 11.417969 10.304688 C 4.46875 15.878906 5.117188 15.308594 5.117188 15.863281 C 5.117188 16.203125 5.136719 16.253906 5.371094 16.480469 C 5.871094 16.964844 6.296875 16.882812 7.214844 16.113281 L 7.738281 15.683594 L 7.738281 20.089844 C 7.738281 23.4375 7.757812 24.511719 7.820312 24.574219 C 7.882812 24.636719 9.710938 24.648438 15.800781 24.636719 L 23.707031 24.621094 Z M 17.199219 22.769531 C 16.78125 22.519531 16.714844 21.953125 17.066406 21.628906 C 17.710938 21.03125 18.667969 21.730469 18.257812 22.496094 C 18.066406 22.855469 17.5625 22.988281 17.199219 22.769531 Z M 19.21875 22.785156 C 18.863281 22.597656 18.738281 22.140625 18.9375 21.765625 C 19.035156 21.574219 19.378906 21.382812 19.609375 21.382812 C 19.820312 21.382812 20.183594 21.597656 20.277344 21.78125 C 20.636719 22.449219 19.898438 23.144531 19.21875 22.785156 Z M 21.300781 22.785156 C 20.769531 22.496094 20.808594 21.695312 21.367188 21.46875 C 21.886719 21.257812 22.410156 21.585938 22.421875 22.128906 C 22.425781 22.378906 22.394531 22.457031 22.21875 22.628906 C 21.96875 22.871094 21.582031 22.941406 21.300781 22.785156 Z M 17.238281 20.753906 C 16.792969 20.539062 16.703125 19.9375 17.066406 19.597656 C 17.710938 19.003906 18.667969 19.703125 18.257812 20.46875 C 18.144531 20.679688 17.847656 20.859375 17.605469 20.855469 C 17.523438 20.855469 17.355469 20.808594 17.238281 20.753906 Z M 19.21875 20.757812 C 18.863281 20.570312 18.738281 20.113281 18.9375 19.738281 C 19.035156 19.550781 19.378906 19.355469 19.609375 19.355469 C 19.820312 19.355469 20.183594 19.570312 20.277344 19.753906 C 20.636719 20.417969 19.898438 21.117188 19.21875 20.757812 Z M 21.300781 20.761719 C 20.769531 20.46875 20.808594 19.667969 21.367188 19.441406 C 21.6875 19.3125 21.988281 19.375 22.230469 19.621094 C 22.65625 20.054688 22.375 20.761719 21.75 20.832031 C 21.585938 20.847656 21.417969 20.824219 21.300781 20.761719 Z M 17.238281 18.726562 C 16.792969 18.511719 16.703125 17.910156 17.066406 17.574219 C 17.710938 16.980469 18.667969 17.675781 18.257812 18.441406 C 18.144531 18.652344 17.847656 18.832031 17.605469 18.832031 C 17.523438 18.832031 17.355469 18.785156 17.238281 18.726562 Z M 19.21875 18.730469 C 18.863281 18.542969 18.738281 18.085938 18.9375 17.710938 C 19.035156 17.519531 19.378906 17.328125 19.609375 17.328125 C 19.820312 17.328125 20.183594 17.542969 20.277344 17.726562 C 20.636719 18.394531 19.898438 19.089844 19.21875 18.730469 Z M 21.300781 18.734375 C 20.769531 18.441406 20.808594 17.644531 21.367188 17.417969 C 21.6875 17.285156 21.988281 17.347656 22.230469 17.59375 C 22.65625 18.027344 22.375 18.738281 21.75 18.804688 C 21.585938 18.824219 21.417969 18.792969 21.300781 18.734375 Z M 21.300781 18.734375 "/>
</g>
</g>
</g>
</svg>
