<!-- color: #eeeeee -->
<svg xmlns="http://www.w3.org/2000/svg" xmlns:xlink="http://www.w3.org/1999/xlink" width="32px" height="32px" viewBox="0 0 32 32" version="1.1">
<defs>
<clipPath id="clip1">
  <path d="M 4.6875 3 L 24.9375 3 L 24.9375 24.4375 L 4.6875 24.4375 Z M 4.6875 3 "/>
</clipPath>
<clipPath id="clip2">
  <path d="M 33.464844 15.992188 C 33.464844 25.972656 25.371094 34.058594 15.398438 34.058594 C 5.425781 34.058594 -2.667969 25.972656 -2.667969 15.992188 C -2.667969 6.011719 5.425781 -2.074219 15.398438 -2.074219 C 25.371094 -2.074219 33.464844 6.011719 33.464844 15.992188 Z M 33.464844 15.992188 "/>
</clipPath>
<clipPath id="clip3">
  <path d="M 5.875 7.5625 L 26.0625 7.5625 L 26.0625 29 L 5.875 29 Z M 5.875 7.5625 "/>
</clipPath>
<clipPath id="clip4">
  <path d="M 33.464844 15.992188 C 33.464844 25.972656 25.371094 34.058594 15.398438 34.058594 C 5.425781 34.058594 -2.667969 25.972656 -2.667969 15.992188 C -2.667969 6.011719 5.425781 -2.074219 15.398438 -2.074219 C 25.371094 -2.074219 33.464844 6.011719 33.464844 15.992188 Z M 33.464844 15.992188 "/>
</clipPath>
</defs>
<g id="surface1">
<path style="fill-rule:nonzero;fill:rgb(100%,100%,100%);fill-opacity:1;stroke-width:6.873965;stroke-linecap:butt;stroke-linejoin:miter;stroke:rgb(16.862746%,65.882355%,92.156863%);stroke-opacity:1;stroke-miterlimit:4;" d="M 21.453125 7.703125 L 106.546875 7.703125 C 114.140625 7.703125 120.296875 13.859375 120.296875 21.453125 L 120.296875 106.546875 C 120.296875 114.140625 114.140625 120.296875 106.546875 120.296875 L 21.453125 120.296875 C 13.859375 120.296875 7.703125 114.140625 7.703125 106.546875 L 7.703125 21.453125 C 7.703125 13.859375 13.859375 7.703125 21.453125 7.703125 Z M 21.453125 7.703125 " transform="matrix(0.25,0,0,0.25,0,0)"/>
<g clip-path="url(#clip1)" clip-rule="nonzero">
<g clip-path="url(#clip2)" clip-rule="nonzero">
<path style=" stroke:none;fill-rule:nonzero;fill:rgb(100%,72.549021%,6.666667%);fill-opacity:1;" d="M 16.527344 3.039062 C 30.738281 20.3125 26.808594 27.113281 4.746094 23.445312 C 19.558594 22.925781 23.484375 16.125 16.527344 3.039062 M 16.527344 3.039062 "/>
</g>
</g>
<g clip-path="url(#clip3)" clip-rule="nonzero">
<g clip-path="url(#clip4)" clip-rule="nonzero">
<path style=" stroke:none;fill-rule:nonzero;fill:rgb(0%,66.666669%,86.666667%);fill-opacity:1;" d="M 15.546875 7.574219 C 5.058594 7.75 3.164062 12.875 9.800781 22.941406 C 10.429688 22.828125 11.027344 22.714844 11.589844 22.570312 C 9.054688 13.648438 13.867188 8.957031 26.042969 8.542969 C 21.90625 7.855469 18.40625 7.542969 15.539062 7.585938 M 10.65625 24.214844 C 11.691406 25.691406 12.882812 27.273438 14.261719 28.949219 C 13.394531 27.316406 12.683594 25.777344 12.152344 24.335938 C 11.667969 24.308594 11.167969 24.257812 10.65625 24.214844 M 10.65625 24.214844 "/>
</g>
</g>
</g>
</svg>
