<!-- color: #474747 -->
<svg xmlns="http://www.w3.org/2000/svg" xmlns:xlink="http://www.w3.org/1999/xlink" width="32px" height="32px" viewBox="0 0 32 32" version="1.1">
<defs>
<clipPath id="clip1">
  <path d="M 10.667969 12 L 24 12 L 24 20 L 10.667969 20 Z M 10.667969 12 "/>
</clipPath>
<clipPath id="clip2">
  <path d="M 31.332031 16 C 31.332031 24.472656 24.464844 31.332031 16 31.332031 C 7.535156 31.332031 0.667969 24.472656 0.667969 16 C 0.667969 7.527344 7.535156 0.667969 16 0.667969 C 24.464844 0.667969 31.332031 7.527344 31.332031 16 Z M 31.332031 16 "/>
</clipPath>
<clipPath id="clip3">
  <path d="M 8 11.332031 L 17.332031 11.332031 L 17.332031 20.667969 L 8 20.667969 Z M 8 11.332031 "/>
</clipPath>
<clipPath id="clip4">
  <path d="M 31.332031 16 C 31.332031 24.472656 24.464844 31.332031 16 31.332031 C 7.535156 31.332031 0.667969 24.472656 0.667969 16 C 0.667969 7.527344 7.535156 0.667969 16 0.667969 C 24.464844 0.667969 31.332031 7.527344 31.332031 16 Z M 31.332031 16 "/>
</clipPath>
<clipPath id="clip5">
  <path d="M 10 13.332031 L 15.332031 13.332031 L 15.332031 18.667969 L 10 18.667969 Z M 10 13.332031 "/>
</clipPath>
<clipPath id="clip6">
  <path d="M 31.332031 16 C 31.332031 24.472656 24.464844 31.332031 16 31.332031 C 7.535156 31.332031 0.667969 24.472656 0.667969 16 C 0.667969 7.527344 7.535156 0.667969 16 0.667969 C 24.464844 0.667969 31.332031 7.527344 31.332031 16 Z M 31.332031 16 "/>
</clipPath>
</defs>
<g id="surface1">
<path style="fill-rule:nonzero;fill:rgb(30.19608%,30.19608%,30.19608%);fill-opacity:1;stroke-width:2.52422;stroke-linecap:butt;stroke-linejoin:miter;stroke:rgb(29.411766%,71.764708%,79.215688%);stroke-opacity:1;stroke-miterlimit:4;" d="M 8.373047 3.322266 L 39.626953 3.322266 C 42.416016 3.322266 44.677734 5.583984 44.677734 8.373047 L 44.677734 39.626953 C 44.677734 42.416016 42.416016 44.677734 39.626953 44.677734 L 8.373047 44.677734 C 5.583984 44.677734 3.322266 42.416016 3.322266 39.626953 L 3.322266 8.373047 C 3.322266 5.583984 5.583984 3.322266 8.373047 3.322266 Z M 8.373047 3.322266 " transform="matrix(0.666667,0,0,0.666667,0,0)"/>
<g clip-path="url(#clip1)" clip-rule="nonzero">
<g clip-path="url(#clip2)" clip-rule="nonzero">
<path style=" stroke:none;fill-rule:nonzero;fill:rgb(97.647059%,97.647059%,97.647059%);fill-opacity:1;" d="M 13.550781 12 L 21.113281 12 C 22.707031 12 24 13.292969 24 14.886719 L 24 17.117188 C 24 18.707031 22.707031 20 21.113281 20 L 13.550781 20 C 11.957031 20 10.667969 18.707031 10.667969 17.117188 L 10.667969 14.886719 C 10.667969 13.292969 11.957031 12 13.550781 12 M 13.550781 12 "/>
</g>
</g>
<g clip-path="url(#clip3)" clip-rule="nonzero">
<g clip-path="url(#clip4)" clip-rule="nonzero">
<path style=" stroke:none;fill-rule:nonzero;fill:rgb(66.666669%,66.666669%,66.666669%);fill-opacity:1;" d="M 17.332031 16 C 17.332031 18.578125 15.246094 20.667969 12.667969 20.667969 C 10.089844 20.667969 8 18.578125 8 16 C 8 13.421875 10.089844 11.332031 12.667969 11.332031 C 15.246094 11.332031 17.332031 13.421875 17.332031 16 M 17.332031 16 "/>
</g>
</g>
<g clip-path="url(#clip5)" clip-rule="nonzero">
<g clip-path="url(#clip6)" clip-rule="nonzero">
<path style=" stroke:none;fill-rule:nonzero;fill:rgb(81.568629%,27.058825%,21.176471%);fill-opacity:1;" d="M 15.332031 16 C 15.332031 17.472656 14.140625 18.667969 12.667969 18.667969 C 11.191406 18.667969 10 17.472656 10 16 C 10 14.527344 11.191406 13.332031 12.667969 13.332031 C 14.140625 13.332031 15.332031 14.527344 15.332031 16 M 15.332031 16 "/>
</g>
</g>
</g>
</svg>
