
<svg xmlns="http://www.w3.org/2000/svg" xmlns:xlink="http://www.w3.org/1999/xlink" width="32px" height="32px" viewBox="0 0 32 32" version="1.1">
<g id="surface1">
<path style="fill-rule:nonzero;fill:rgb(94.901961%,94.901961%,94.901961%);fill-opacity:1;stroke-width:0.720737;stroke-linecap:butt;stroke-linejoin:miter;stroke:rgb(16.862746%,65.882355%,92.156863%);stroke-opacity:1;stroke-miterlimit:4;" d="M -35.807354 398.714718 L -26.884281 398.714718 C -26.088877 398.714718 -25.442302 399.361293 -25.442302 400.156697 L -25.442302 409.07977 C -25.442302 409.875174 -26.088877 410.521749 -26.884281 410.521749 L -35.807354 410.521749 C -36.602757 410.521749 -37.249333 409.875174 -37.249333 409.07977 L -37.249333 400.156697 C -37.249333 399.361293 -36.602757 398.714718 -35.807354 398.714718 Z M -35.807354 398.714718 " transform="matrix(2.362205,0,0,2.362205,90.045237,-939.791097)"/>
<path style=" stroke:none;fill-rule:nonzero;fill:rgb(74.117649%,76.47059%,78.039217%);fill-opacity:1;" d="M 16 5.410156 C 12.042969 5.410156 8.855469 8.597656 8.855469 12.558594 L 8.855469 26.589844 L 10.441406 26.589844 L 10.441406 12.558594 C 10.441406 9.480469 12.917969 7 16 7 C 19.082031 7 21.558594 9.480469 21.558594 12.558594 L 21.558594 26.589844 L 23.144531 26.589844 L 23.144531 12.558594 C 23.144531 8.597656 19.957031 5.410156 16 5.410156 Z M 16 5.410156 "/>
<path style=" stroke:none;fill-rule:nonzero;fill:rgb(94.509804%,76.862746%,5.882353%);fill-opacity:1;" d="M 7 26.589844 L 25 26.589844 L 25 16 L 7 16 Z M 7 26.589844 "/>
<path style=" stroke:none;fill-rule:nonzero;fill:rgb(17.254902%,24.313726%,31.37255%);fill-opacity:1;" d="M 16 18.117188 C 15.269531 18.117188 14.675781 18.710938 14.675781 19.441406 C 14.675781 19.964844 14.988281 20.441406 15.472656 20.652344 L 15.472656 24.472656 L 16.527344 24.472656 L 16.527344 20.652344 C 17.011719 20.441406 17.324219 19.964844 17.324219 19.441406 C 17.324219 18.710938 16.730469 18.117188 16 18.117188 Z M 16 18.117188 "/>
</g>
</svg>
