<!-- color: #35b6d3 -->
<svg xmlns="http://www.w3.org/2000/svg" xmlns:xlink="http://www.w3.org/1999/xlink" width="32px" height="32px" viewBox="0 0 32 32" version="1.1">
<defs>
<clipPath id="clip1">
  <path d="M 8.25 8.9375 L 24.3125 8.9375 L 24.3125 25 L 8.25 25 Z M 8.25 8.9375 "/>
</clipPath>
<clipPath id="clip2">
  <path d="M 31.605469 16.269531 C 31.605469 24.742188 24.734375 31.605469 16.269531 31.605469 C 7.808594 31.605469 0.9375 24.742188 0.9375 16.269531 C 0.9375 7.800781 7.808594 0.9375 16.269531 0.9375 C 24.734375 0.9375 31.605469 7.800781 31.605469 16.269531 Z M 31.605469 16.269531 "/>
</clipPath>
</defs>
<g id="surface1">
<path style="fill-rule:nonzero;fill:rgb(19.607843%,70.19608%,81.176472%);fill-opacity:1;stroke-width:2.508366;stroke-linecap:butt;stroke-linejoin:miter;stroke:rgb(19.215687%,40.000001%,44.313726%);stroke-opacity:1;stroke-miterlimit:4;" d="M 8.472656 3.457031 L 39.527344 3.457031 C 42.298828 3.457031 44.542969 5.701172 44.542969 8.472656 L 44.542969 39.527344 C 44.542969 42.298828 42.298828 44.542969 39.527344 44.542969 L 8.472656 44.542969 C 5.701172 44.542969 3.457031 42.298828 3.457031 39.527344 L 3.457031 8.472656 C 3.457031 5.701172 5.701172 3.457031 8.472656 3.457031 Z M 8.472656 3.457031 " transform="matrix(0.666667,0,0,0.666667,0,0)"/>
<g clip-path="url(#clip1)" clip-rule="nonzero">
<g clip-path="url(#clip2)" clip-rule="nonzero">
<path style=" stroke:none;fill-rule:nonzero;fill:rgb(97.647059%,97.647059%,97.647059%);fill-opacity:1;" d="M 9.230469 8.9375 C 8.691406 8.9375 8.269531 9.355469 8.269531 9.894531 L 8.269531 20.480469 C 8.269531 21.019531 8.691406 21.4375 9.230469 21.4375 L 12.269531 21.4375 L 12.269531 24.9375 L 16.269531 21.4375 L 23.316406 21.4375 C 23.855469 21.4375 24.273438 21.019531 24.273438 20.480469 L 24.273438 9.894531 C 24.273438 9.355469 23.832031 8.9375 23.292969 8.9375 M 9.230469 8.9375 "/>
</g>
</g>
</g>
</svg>
