
<svg xmlns="http://www.w3.org/2000/svg" xmlns:xlink="http://www.w3.org/1999/xlink" width="32px" height="32px" viewBox="0 0 32 32" version="1.1">
<g id="surface1">
<path style="fill-rule:nonzero;fill:rgb(0%,66.666669%,83.137256%);fill-opacity:1;stroke-width:6.927858;stroke-linecap:butt;stroke-linejoin:miter;stroke:rgb(19.215687%,34.509805%,38.82353%);stroke-opacity:1;stroke-miterlimit:4;" d="M 21.109375 7.265625 L 106.890625 7.265625 C 114.546875 7.265625 120.734375 13.453125 120.734375 21.109375 L 120.734375 106.890625 C 120.734375 114.546875 114.546875 120.734375 106.890625 120.734375 L 21.109375 120.734375 C 13.453125 120.734375 7.265625 114.546875 7.265625 106.890625 L 7.265625 21.109375 C 7.265625 13.453125 13.453125 7.265625 21.109375 7.265625 Z M 21.109375 7.265625 " transform="matrix(0.25,0,0,0.25,0,0)"/>
<path style=" stroke:none;fill-rule:evenodd;fill:rgb(20%,20%,20%);fill-opacity:1;" d="M 17.054688 4.335938 L 27.972656 4.335938 L 27.972656 17.011719 Z M 17.054688 4.335938 "/>
<path style=" stroke:none;fill-rule:evenodd;fill:rgb(20%,20%,20%);fill-opacity:1;" d="M 14.785156 28.386719 L 3.867188 28.386719 L 3.867188 12.542969 Z M 14.785156 28.386719 "/>
<path style=" stroke:none;fill-rule:nonzero;fill:rgb(100%,100%,100%);fill-opacity:1;" d="M 21.644531 22.085938 L 18.613281 22.085938 L 18.613281 25.308594 L 21.644531 25.308594 Z M 17.097656 22.085938 L 14.070312 22.085938 L 14.070312 25.308594 L 17.097656 25.308594 Z M 12.554688 22.085938 L 9.527344 22.085938 L 9.527344 25.308594 L 12.554688 25.308594 Z M 12.554688 22.085938 "/>
</g>
</svg>
