
<svg xmlns="http://www.w3.org/2000/svg" xmlns:xlink="http://www.w3.org/1999/xlink" width="32px" height="32px" viewBox="0 0 32 32" version="1.1">
<g id="surface1">
<path style="fill-rule:nonzero;fill:rgb(20%,20%,20%);fill-opacity:1;stroke-width:26.401737;stroke-linecap:butt;stroke-linejoin:miter;stroke:rgb(16.862746%,65.882355%,92.156863%);stroke-opacity:1;stroke-miterlimit:4;" d="M 92.5625 39.75 L 419.4375 39.75 C 448.5625 39.75 472.25 63.4375 472.25 92.5625 L 472.25 419.4375 C 472.25 448.5625 448.5625 472.25 419.4375 472.25 L 92.5625 472.25 C 63.4375 472.25 39.75 448.5625 39.75 419.4375 L 39.75 92.5625 C 39.75 63.4375 63.4375 39.75 92.5625 39.75 Z M 92.5625 39.75 " transform="matrix(0.0625,0,0,0.0625,0,0)"/>
<path style=" stroke:none;fill-rule:nonzero;fill:rgb(83.529413%,18.431373%,25.490198%);fill-opacity:1;" d="M 9.019531 25.628906 C 7.21875 23.824219 6.105469 21.339844 6.105469 18.589844 C 6.105469 13.097656 10.558594 8.644531 16.054688 8.644531 C 21.550781 8.644531 26.003906 13.097656 26.003906 18.589844 C 26.003906 21.339844 24.890625 23.824219 23.089844 25.628906 C 23.089844 25.628906 24.480469 27.003906 25.691406 25.636719 C 27.136719 23.660156 27.992188 21.226562 27.992188 18.589844 C 27.992188 11.996094 22.648438 6.652344 16.054688 6.652344 C 9.460938 6.652344 4.117188 11.996094 4.117188 18.589844 C 4.117188 21.230469 4.972656 23.664062 6.421875 25.640625 C 6.542969 25.773438 7.691406 26.957031 9.019531 25.628906 "/>
<path style=" stroke:none;fill-rule:nonzero;fill:rgb(93.333334%,46.27451%,8.627451%);fill-opacity:1;" d="M 16.054688 8.644531 C 10.558594 8.644531 6.105469 13.097656 6.105469 18.589844 C 6.105469 21.339844 7.21875 23.824219 9.019531 25.628906 L 10.425781 24.21875 C 8.988281 22.777344 8.097656 20.789062 8.097656 18.589844 C 8.097656 14.195312 11.660156 10.632812 16.054688 10.632812 C 20.449219 10.632812 24.011719 14.195312 24.011719 18.589844 C 24.011719 20.789062 23.121094 22.777344 21.683594 24.21875 L 22.566406 25.101562 C 22.722656 25.261719 22.855469 25.394531 22.949219 25.484375 L 23.089844 25.628906 C 24.890625 23.824219 26.003906 21.339844 26.003906 18.589844 C 26.003906 13.097656 21.550781 8.644531 16.054688 8.644531 "/>
<path style=" stroke:none;fill-rule:nonzero;fill:rgb(97.647059%,76.862746%,27.843139%);fill-opacity:1;" d="M 16.054688 10.632812 C 11.660156 10.632812 8.097656 14.195312 8.097656 18.589844 C 8.097656 20.789062 8.988281 22.777344 10.425781 24.21875 L 11.832031 22.8125 C 10.753906 21.730469 10.085938 20.238281 10.085938 18.589844 C 10.085938 15.292969 12.757812 12.621094 16.054688 12.621094 C 19.351562 12.621094 22.023438 15.292969 22.023438 18.589844 C 22.023438 20.238281 21.355469 21.730469 20.277344 22.8125 C 20.621094 23.160156 20.988281 23.523438 21.335938 23.875 L 21.683594 24.21875 C 23.121094 22.777344 24.011719 20.789062 24.011719 18.589844 C 24.011719 14.195312 20.449219 10.632812 16.054688 10.632812 "/>
<path style=" stroke:none;fill-rule:nonzero;fill:rgb(37.64706%,69.01961%,87.843138%);fill-opacity:1;" d="M 16.054688 12.621094 C 12.757812 12.621094 10.085938 15.292969 10.085938 18.589844 C 10.085938 20.238281 10.753906 21.730469 11.832031 22.8125 L 13.242188 21.40625 C 12.519531 20.683594 12.074219 19.691406 12.074219 18.589844 C 12.074219 16.394531 13.855469 14.613281 16.054688 14.613281 C 18.253906 14.613281 20.035156 16.394531 20.035156 18.589844 C 20.035156 19.691406 19.589844 20.683594 18.871094 21.40625 L 19.929688 22.46875 C 20.042969 22.578125 20.160156 22.695312 20.277344 22.8125 C 21.355469 21.730469 22.023438 20.238281 22.023438 18.589844 C 22.023438 15.292969 19.351562 12.621094 16.054688 12.621094 "/>
<path style=" stroke:none;fill-rule:nonzero;fill:rgb(22.745098%,30.980393%,47.843137%);fill-opacity:1;" d="M 16.054688 14.613281 C 13.855469 14.613281 12.074219 16.394531 12.074219 18.589844 C 12.074219 19.691406 12.519531 20.683594 13.242188 21.40625 C 13.242188 21.40625 14.066406 20.589844 14.066406 18.589844 C 14.066406 17.492188 14.957031 16.601562 16.054688 16.601562 C 17.152344 16.601562 18.042969 17.492188 18.042969 18.589844 C 18.042969 18.589844 17.917969 20.453125 18.871094 21.40625 C 19.589844 20.683594 20.035156 19.691406 20.035156 18.589844 C 20.035156 16.394531 18.253906 14.613281 16.054688 14.613281 "/>
<path style=" stroke:none;fill-rule:nonzero;fill:rgb(73.725492%,37.254903%,82.745099%);fill-opacity:1;" d="M 23.863281 14.371094 L 16.167969 16.378906 C 15.183594 16.632812 14.222656 17.023438 14.035156 18.078125 C 13.839844 19.195312 14.554688 20.253906 15.632812 20.445312 C 16.410156 20.582031 17.011719 20.101562 17.59375 19.613281 Z M 23.863281 14.371094 "/>
</g>
</svg>
