
<svg xmlns="http://www.w3.org/2000/svg" xmlns:xlink="http://www.w3.org/1999/xlink" width="32px" height="32px" viewBox="0 0 32 32" version="1.1">
<g id="surface1">
<path style="fill-rule:nonzero;fill:rgb(16.078432%,50.196081%,72.549021%);fill-opacity:1;stroke-width:6.392664;stroke-linecap:butt;stroke-linejoin:miter;stroke:rgb(21.568628%,20.784314%,22.745098%);stroke-opacity:1;stroke-miterlimit:4;" d="M 19.871896 936.218669 L 99.028146 936.218669 C 106.090646 936.218669 111.809396 941.937419 111.809396 948.999919 L 111.809396 1028.156169 C 111.809396 1035.218669 106.090646 1040.937419 99.028146 1040.937419 L 19.871896 1040.937419 C 12.809396 1040.937419 7.090646 1035.218669 7.090646 1028.156169 L 7.090646 948.999919 C 7.090646 941.937419 12.809396 936.218669 19.871896 936.218669 Z M 19.871896 936.218669 " transform="matrix(0.25,0,0,0.25,0.676557,-231.144511)"/>
<path style=" stroke:none;fill-rule:nonzero;fill:rgb(21.568628%,20.784314%,22.745098%);fill-opacity:1;" d="M 2.941406 3.488281 L 27.933594 3.488281 L 27.933594 7.824219 L 2.941406 7.824219 Z M 2.941406 3.488281 "/>
<path style=" stroke:none;fill-rule:nonzero;fill:rgb(100%,100%,100%);fill-opacity:1;" d="M 20.550781 5.203125 L 22.171875 5.203125 L 22.171875 6.792969 L 20.550781 6.792969 Z M 20.550781 5.203125 "/>
<path style=" stroke:none;fill-rule:nonzero;fill:rgb(100%,100%,100%);fill-opacity:1;" d="M 23.523438 5.203125 L 25.144531 5.203125 L 25.144531 6.792969 L 23.523438 6.792969 Z M 23.523438 5.203125 "/>
<path style=" stroke:none;fill-rule:nonzero;fill:rgb(100%,100%,100%);fill-opacity:1;" d="M 17.578125 5.203125 L 19.199219 5.203125 L 19.199219 6.792969 L 17.578125 6.792969 Z M 17.578125 5.203125 "/>
<path style=" stroke:none;fill-rule:nonzero;fill:rgb(90.196079%,90.196079%,90.196079%);fill-opacity:1;" d="M 16 10.617188 C 11.882812 10.617188 8.546875 13.800781 8.546875 17.722656 C 8.546875 21.652344 11.882812 24.832031 16 24.832031 C 20.117188 24.832031 23.453125 21.652344 23.453125 17.722656 C 23.453125 13.800781 20.117188 10.617188 16 10.617188 Z M 18.792969 19.503906 L 18.792969 18.613281 L 16.933594 18.613281 L 16.933594 20.390625 L 17.863281 20.390625 L 16 22.167969 L 14.136719 20.390625 L 15.066406 20.390625 L 15.066406 18.613281 L 13.207031 18.613281 L 13.207031 19.503906 L 11.339844 17.722656 L 13.207031 15.949219 L 13.207031 16.835938 L 15.066406 16.835938 L 15.066406 15.058594 L 14.136719 15.058594 L 16 13.285156 L 17.863281 15.058594 L 16.933594 15.058594 L 16.933594 16.835938 L 18.792969 16.835938 L 18.792969 15.949219 L 20.660156 17.722656 Z M 18.792969 19.503906 "/>
</g>
</svg>
