
<svg xmlns="http://www.w3.org/2000/svg" xmlns:xlink="http://www.w3.org/1999/xlink" width="32px" height="32px" viewBox="0 0 32 32" version="1.1">
<g id="surface1">
<path style="fill-rule:nonzero;fill:rgb(97.647059%,97.647059%,97.647059%);fill-opacity:1;stroke-width:2.623514;stroke-linecap:butt;stroke-linejoin:miter;stroke:rgb(16.862746%,65.882355%,92.156863%);stroke-opacity:1;stroke-miterlimit:4;" d="M 7.757812 2.513672 L 40.242188 2.513672 C 43.136719 2.513672 45.486328 4.863281 45.486328 7.757812 L 45.486328 40.242188 C 45.486328 43.136719 43.136719 45.486328 40.242188 45.486328 L 7.757812 45.486328 C 4.863281 45.486328 2.513672 43.136719 2.513672 40.242188 L 2.513672 7.757812 C 2.513672 4.863281 4.863281 2.513672 7.757812 2.513672 Z M 7.757812 2.513672 " transform="matrix(0.666667,0,0,0.666667,0,0)"/>
<path style=" stroke:none;fill-rule:nonzero;fill:rgb(30.19608%,30.19608%,30.19608%);fill-opacity:1;" d="M 13.726562 17.574219 C 13.726562 15.058594 12.238281 13.019531 10.402344 13.019531 C 8.566406 13.019531 7.078125 15.058594 7.078125 17.574219 C 7.078125 20.089844 8.566406 22.128906 10.402344 22.128906 C 12.238281 22.128906 13.726562 20.089844 13.726562 17.574219 Z M 13.726562 17.574219 "/>
<path style=" stroke:none;fill-rule:nonzero;fill:rgb(30.19608%,30.19608%,30.19608%);fill-opacity:1;" d="M 13.316406 21.625 C 12.730469 23.082031 11.617188 23.988281 10.402344 23.988281 C 9.191406 23.988281 8.074219 23.082031 7.492188 21.625 C 4.902344 22.589844 3.191406 24.753906 3.082031 27.179688 L 17.71875 27.179688 C 17.613281 24.753906 15.902344 22.59375 13.316406 21.625 Z M 13.316406 21.625 "/>
<path style=" stroke:none;fill-rule:nonzero;fill:rgb(60.000002%,60.000002%,60.000002%);fill-opacity:1;" d="M 23.15625 13.828125 C 23.15625 10.308594 20.90625 7.457031 18.128906 7.457031 C 15.355469 7.457031 13.105469 10.308594 13.105469 13.828125 C 13.105469 17.347656 15.355469 20.199219 18.128906 20.199219 C 20.90625 20.199219 23.15625 17.347656 23.15625 13.828125 Z M 23.15625 13.828125 "/>
<path style=" stroke:none;fill-rule:nonzero;fill:rgb(60.000002%,60.000002%,60.000002%);fill-opacity:1;" d="M 22.535156 19.496094 C 21.652344 21.535156 19.964844 22.800781 18.128906 22.800781 C 16.300781 22.796875 14.613281 21.53125 13.730469 19.496094 C 9.820312 20.847656 7.230469 23.871094 7.066406 27.265625 L 29.1875 27.265625 C 29.027344 23.871094 26.441406 20.847656 22.535156 19.496094 Z M 22.535156 19.496094 "/>
</g>
</svg>
