
<svg xmlns="http://www.w3.org/2000/svg" xmlns:xlink="http://www.w3.org/1999/xlink" width="32px" height="32px" viewBox="0 0 32 32" version="1.1">
<g id="surface1">
<path style="fill-rule:nonzero;fill:rgb(100%,100%,100%);fill-opacity:1;stroke-width:2.627763;stroke-linecap:butt;stroke-linejoin:miter;stroke:rgb(16.862746%,65.882355%,92.156863%);stroke-opacity:1;stroke-miterlimit:4;" d="M 7.734375 1006.840698 L 40.265625 1006.840698 C 43.166016 1006.840698 45.521484 1009.196167 45.521484 1012.096558 L 45.521484 1044.627808 C 45.521484 1047.528198 43.166016 1049.883667 40.265625 1049.883667 L 7.734375 1049.883667 C 4.833984 1049.883667 2.478516 1047.528198 2.478516 1044.627808 L 2.478516 1012.096558 C 2.478516 1009.196167 4.833984 1006.840698 7.734375 1006.840698 Z M 7.734375 1006.840698 " transform="matrix(0.666667,0,0,0.666667,0,-669.574788)"/>
<path style=" stroke:none;fill-rule:nonzero;fill:rgb(22.745098%,31.37255%,40.000001%);fill-opacity:1;" d="M 5.402344 17.058594 L 14.941406 17.058594 L 14.941406 26.597656 L 5.402344 26.597656 Z M 5.402344 17.058594 "/>
<path style=" stroke:none;fill-rule:nonzero;fill:rgb(11.372549%,15.686275%,20%);fill-opacity:1;" d="M 5.402344 5.402344 L 14.941406 5.402344 L 14.941406 14.941406 L 5.402344 14.941406 Z M 5.402344 5.402344 "/>
<path style=" stroke:none;fill-rule:nonzero;fill:rgb(17.647059%,23.529412%,29.411766%);fill-opacity:1;" d="M 17.058594 5.402344 L 26.597656 5.402344 L 26.597656 14.941406 L 17.058594 14.941406 Z M 17.058594 5.402344 "/>
<path style=" stroke:none;fill-rule:nonzero;fill:rgb(27.843139%,39.215687%,50.588238%);fill-opacity:1;" d="M 17.058594 17.058594 L 26.597656 17.058594 L 26.597656 26.597656 L 17.058594 26.597656 Z M 17.058594 17.058594 "/>
</g>
</svg>
