
<svg xmlns="http://www.w3.org/2000/svg" xmlns:xlink="http://www.w3.org/1999/xlink" width="32px" height="32px" viewBox="0 0 32 32" version="1.1">
<g id="surface1">
<path style="fill-rule:nonzero;fill:rgb(100%,100%,100%);fill-opacity:1;stroke-width:26.401737;stroke-linecap:butt;stroke-linejoin:miter;stroke:rgb(16.862746%,65.882355%,92.156863%);stroke-opacity:1;stroke-miterlimit:4;" d="M 92.5625 39.75 L 419.4375 39.75 C 448.5625 39.75 472.25 63.4375 472.25 92.5625 L 472.25 419.4375 C 472.25 448.5625 448.5625 472.25 419.4375 472.25 L 92.5625 472.25 C 63.4375 472.25 39.75 448.5625 39.75 419.4375 L 39.75 92.5625 C 39.75 63.4375 63.4375 39.75 92.5625 39.75 Z M 92.5625 39.75 " transform="matrix(0.0625,0,0,0.0625,0,0)"/>
<path style=" stroke:none;fill-rule:nonzero;fill:rgb(10.588235%,37.64706%,63.137257%);fill-opacity:1;" d="M 15.488281 26.613281 C 12.566406 26.230469 9.9375 24.667969 8.207031 22.292969 C 7.488281 21.304688 6.925781 20.152344 6.582031 18.957031 C 6.042969 17.105469 6.042969 14.917969 6.582031 13.066406 C 7.609375 9.519531 10.359375 6.769531 13.910156 5.738281 C 15.753906 5.207031 17.949219 5.207031 19.796875 5.738281 C 21.429688 6.214844 22.808594 6.996094 24.15625 8.214844 C 24.664062 8.675781 24.910156 8.996094 25.074219 9.417969 C 25.238281 9.828125 25.246094 10.050781 25.101562 10.355469 C 24.867188 10.863281 24.167969 11.210938 23.390625 11.207031 C 22.941406 11.207031 22.644531 11.132812 22.253906 10.925781 C 21.980469 10.78125 21.941406 10.738281 21.652344 10.277344 C 21.234375 9.613281 20.972656 9.277344 20.5 8.808594 C 19.503906 7.820312 18.300781 7.285156 17.082031 7.285156 C 13.035156 7.285156 10.097656 12.980469 11.238281 18.617188 C 11.851562 21.648438 13.476562 23.929688 15.589844 24.722656 C 16.761719 25.164062 17.910156 25.089844 19.089844 24.5 C 19.859375 24.113281 20.605469 23.464844 21.175781 22.6875 C 21.636719 22.058594 21.847656 21.855469 22.253906 21.65625 C 22.589844 21.488281 22.613281 21.484375 23.105469 21.484375 C 23.589844 21.484375 23.636719 21.496094 23.921875 21.636719 C 24.292969 21.816406 24.628906 22.105469 24.757812 22.355469 C 24.832031 22.496094 24.847656 22.601562 24.832031 22.800781 C 24.808594 23.140625 24.628906 23.394531 24.042969 23.914062 C 22.328125 25.441406 20.378906 26.335938 18.144531 26.613281 C 17.5 26.695312 16.125 26.691406 15.488281 26.613281 Z M 15.394531 18.988281 C 15.222656 18.898438 15.097656 18.746094 15.097656 18.609375 C 15.097656 18.457031 15.378906 18.460938 15.480469 18.613281 C 15.621094 18.828125 16.113281 18.800781 16.113281 18.578125 C 16.113281 18.457031 16.019531 18.410156 15.605469 18.316406 C 15.269531 18.242188 15.144531 18.113281 15.144531 17.839844 C 15.144531 17.675781 15.171875 17.597656 15.277344 17.480469 C 15.394531 17.347656 15.441406 17.332031 15.710938 17.316406 C 15.960938 17.300781 16.042969 17.3125 16.171875 17.390625 C 16.324219 17.484375 16.433594 17.65625 16.433594 17.792969 C 16.433594 17.914062 16.152344 17.875 16.042969 17.738281 C 15.972656 17.652344 15.90625 17.621094 15.777344 17.621094 C 15.566406 17.621094 15.511719 17.652344 15.511719 17.789062 C 15.511719 17.90625 15.605469 17.957031 15.988281 18.050781 C 16.324219 18.128906 16.480469 18.285156 16.480469 18.523438 C 16.480469 18.878906 16.25 19.058594 15.804688 19.058594 C 15.652344 19.058594 15.472656 19.027344 15.394531 18.988281 Z M 18.535156 18.988281 C 18.363281 18.898438 18.238281 18.746094 18.238281 18.609375 C 18.238281 18.457031 18.519531 18.460938 18.621094 18.613281 C 18.761719 18.828125 19.253906 18.800781 19.253906 18.578125 C 19.253906 18.457031 19.160156 18.410156 18.746094 18.316406 C 18.410156 18.242188 18.285156 18.113281 18.285156 17.839844 C 18.285156 17.675781 18.3125 17.597656 18.417969 17.480469 C 18.535156 17.347656 18.582031 17.332031 18.851562 17.316406 C 19.101562 17.300781 19.183594 17.3125 19.3125 17.390625 C 19.464844 17.484375 19.578125 17.65625 19.578125 17.792969 C 19.578125 17.914062 19.292969 17.875 19.183594 17.738281 C 19.113281 17.652344 19.046875 17.621094 18.917969 17.621094 C 18.707031 17.621094 18.652344 17.652344 18.652344 17.789062 C 18.652344 17.90625 18.746094 17.957031 19.128906 18.050781 C 19.464844 18.128906 19.621094 18.285156 19.621094 18.523438 C 19.621094 18.878906 19.390625 19.058594 18.945312 19.058594 C 18.792969 19.058594 18.613281 19.027344 18.535156 18.988281 Z M 17.167969 18.679688 C 17.148438 18.375 17.125 18.304688 16.886719 17.886719 C 16.746094 17.632812 16.636719 17.410156 16.648438 17.386719 C 16.660156 17.371094 16.753906 17.351562 16.855469 17.351562 C 17.039062 17.351562 17.042969 17.355469 17.183594 17.652344 C 17.261719 17.816406 17.339844 17.953125 17.363281 17.953125 C 17.386719 17.953125 17.464844 17.816406 17.542969 17.652344 C 17.675781 17.355469 17.679688 17.351562 17.863281 17.351562 C 17.964844 17.351562 18.058594 17.371094 18.070312 17.386719 C 18.082031 17.410156 17.976562 17.632812 17.832031 17.886719 C 17.597656 18.304688 17.570312 18.375 17.554688 18.679688 L 17.535156 19.015625 L 17.183594 19.015625 Z M 20.269531 18.378906 C 20.269531 17.941406 20.253906 17.722656 20.214844 17.683594 C 20.183594 17.652344 20.070312 17.628906 19.960938 17.628906 C 19.769531 17.628906 19.761719 17.621094 19.761719 17.488281 L 19.761719 17.351562 L 21.148438 17.351562 L 21.148438 17.488281 C 21.148438 17.621094 21.136719 17.628906 20.949219 17.628906 C 20.839844 17.628906 20.722656 17.652344 20.695312 17.683594 C 20.65625 17.722656 20.636719 17.941406 20.636719 18.378906 L 20.636719 19.015625 L 20.269531 19.015625 Z M 21.378906 18.183594 L 21.378906 17.351562 L 22.578125 17.351562 L 22.578125 17.625 L 22.179688 17.636719 C 21.859375 17.648438 21.769531 17.667969 21.730469 17.730469 C 21.691406 17.792969 21.691406 17.835938 21.730469 17.894531 C 21.769531 17.957031 21.863281 17.980469 22.144531 17.996094 C 22.496094 18.019531 22.511719 18.027344 22.511719 18.136719 C 22.511719 18.25 22.496094 18.253906 22.164062 18.265625 C 21.78125 18.28125 21.699219 18.324219 21.699219 18.503906 C 21.699219 18.703125 21.777344 18.738281 22.21875 18.738281 L 22.625 18.738281 L 22.625 19.015625 L 21.378906 19.015625 Z M 22.902344 18.183594 L 22.902344 17.347656 L 23.167969 17.363281 L 23.433594 17.375 L 23.550781 17.875 C 23.613281 18.148438 23.683594 18.378906 23.710938 18.382812 C 23.734375 18.386719 23.808594 18.160156 23.875 17.882812 L 23.992188 17.375 L 24.253906 17.363281 L 24.519531 17.347656 L 24.519531 19.015625 L 24.195312 19.015625 L 24.195312 18.609375 C 24.191406 18.019531 24.136719 17.996094 24.003906 18.535156 L 23.894531 18.992188 L 23.527344 18.992188 L 23.417969 18.535156 C 23.285156 17.996094 23.226562 18.019531 23.226562 18.609375 L 23.226562 19.015625 L 22.902344 19.015625 Z M 24.910156 16.660156 C 24.78125 16.605469 24.582031 16.382812 24.519531 16.230469 C 24.496094 16.15625 24.472656 15.972656 24.472656 15.8125 C 24.472656 15.492188 24.589844 15.234375 24.808594 15.074219 C 24.988281 14.941406 25.453125 14.914062 25.671875 15.027344 C 25.839844 15.117188 26.023438 15.378906 25.972656 15.457031 C 25.917969 15.550781 25.648438 15.511719 25.542969 15.386719 C 25.425781 15.253906 25.195312 15.234375 25.042969 15.34375 C 24.914062 15.433594 24.832031 15.792969 24.886719 16.027344 C 24.957031 16.34375 25.164062 16.46875 25.433594 16.355469 C 25.566406 16.300781 25.648438 16.175781 25.601562 16.101562 C 25.589844 16.078125 25.515625 16.058594 25.441406 16.058594 C 25.320312 16.058594 25.304688 16.042969 25.304688 15.917969 L 25.304688 15.78125 L 25.996094 15.78125 L 25.996094 16.222656 C 25.996094 16.648438 25.996094 16.660156 25.890625 16.660156 C 25.832031 16.660156 25.761719 16.636719 25.734375 16.609375 C 25.699219 16.574219 25.644531 16.582031 25.542969 16.632812 C 25.394531 16.710938 25.066406 16.722656 24.910156 16.660156 Z M 15.191406 15.828125 L 15.191406 14.996094 L 15.675781 14.996094 C 16.15625 14.996094 16.167969 15 16.300781 15.128906 C 16.417969 15.25 16.433594 15.300781 16.433594 15.527344 C 16.433594 15.753906 16.417969 15.808594 16.300781 15.925781 C 16.183594 16.039062 16.128906 16.058594 15.917969 16.058594 C 15.78125 16.058594 15.644531 16.082031 15.613281 16.113281 C 15.582031 16.144531 15.558594 16.277344 15.558594 16.414062 L 15.558594 16.660156 L 15.191406 16.660156 Z M 15.988281 15.691406 C 16.0625 15.621094 16.035156 15.398438 15.949219 15.335938 C 15.84375 15.257812 15.6875 15.253906 15.613281 15.328125 C 15.542969 15.402344 15.542969 15.652344 15.617188 15.730469 C 15.675781 15.792969 15.914062 15.769531 15.988281 15.691406 Z M 16.714844 15.828125 L 16.714844 14.996094 L 17.269531 14.996094 C 17.824219 14.996094 17.832031 14.996094 17.964844 15.128906 C 18.121094 15.289062 18.144531 15.527344 18.019531 15.738281 C 17.957031 15.84375 17.953125 15.894531 17.996094 15.976562 C 18.023438 16.035156 18.058594 16.214844 18.074219 16.371094 L 18.105469 16.664062 L 17.90625 16.652344 L 17.707031 16.636719 L 17.675781 16.386719 C 17.640625 16.097656 17.613281 16.066406 17.390625 16.027344 C 17.144531 15.988281 17.082031 16.0625 17.082031 16.386719 L 17.082031 16.660156 L 16.714844 16.660156 Z M 17.566406 15.691406 C 17.65625 15.65625 17.683594 15.613281 17.683594 15.503906 C 17.683594 15.351562 17.5625 15.273438 17.320312 15.273438 C 17.160156 15.273438 17.082031 15.347656 17.082031 15.503906 C 17.082031 15.570312 17.105469 15.648438 17.136719 15.679688 C 17.207031 15.746094 17.402344 15.753906 17.566406 15.691406 Z M 18.375 15.828125 L 18.375 14.996094 L 18.746094 14.996094 L 18.746094 16.660156 L 18.375 16.660156 Z M 19.066406 15.824219 L 19.066406 14.992188 L 19.460938 15.019531 L 19.730469 15.492188 C 19.882812 15.753906 20.019531 15.953125 20.042969 15.941406 C 20.066406 15.925781 20.085938 15.707031 20.085938 15.457031 L 20.085938 14.996094 L 20.410156 14.996094 L 20.410156 16.664062 L 20.214844 16.652344 C 20.027344 16.636719 20.023438 16.632812 19.765625 16.179688 C 19.625 15.925781 19.488281 15.722656 19.460938 15.730469 C 19.433594 15.730469 19.410156 15.933594 19.402344 16.199219 L 19.386719 16.660156 L 19.066406 16.660156 Z M 21.101562 16.019531 C 21.101562 15.589844 21.082031 15.367188 21.046875 15.328125 C 21.015625 15.300781 20.902344 15.273438 20.792969 15.273438 C 20.601562 15.273438 20.59375 15.269531 20.59375 15.136719 L 20.59375 14.996094 L 21.980469 14.996094 L 21.980469 15.136719 C 21.980469 15.269531 21.96875 15.273438 21.78125 15.273438 C 21.671875 15.273438 21.558594 15.300781 21.527344 15.328125 C 21.488281 15.367188 21.472656 15.589844 21.472656 16.019531 L 21.472656 16.660156 L 21.101562 16.660156 Z M 22.207031 15.828125 L 22.207031 14.996094 L 22.578125 14.996094 L 22.578125 16.660156 L 22.207031 16.660156 Z M 22.902344 15.824219 L 22.902344 14.992188 L 23.292969 15.019531 L 23.566406 15.492188 C 23.714844 15.753906 23.855469 15.953125 23.878906 15.941406 C 23.902344 15.925781 23.917969 15.707031 23.917969 15.457031 L 23.917969 14.996094 L 24.242188 14.996094 L 24.242188 16.664062 L 24.050781 16.652344 C 23.859375 16.636719 23.855469 16.632812 23.597656 16.179688 C 23.457031 15.925781 23.320312 15.722656 23.292969 15.730469 C 23.269531 15.730469 23.242188 15.933594 23.234375 16.199219 L 23.222656 16.660156 L 22.902344 16.660156 Z M 15.457031 14.277344 C 15.230469 14.15625 15.191406 14.003906 15.191406 13.289062 L 15.191406 12.640625 L 15.550781 12.640625 L 15.566406 13.257812 C 15.582031 13.945312 15.613281 14.027344 15.859375 14.027344 C 16.105469 14.027344 16.132812 13.945312 16.152344 13.257812 L 16.167969 12.640625 L 16.527344 12.640625 L 16.527344 13.289062 C 16.527344 14.011719 16.488281 14.160156 16.253906 14.277344 C 16.082031 14.371094 15.621094 14.367188 15.457031 14.277344 Z M 16.851562 13.46875 L 16.851562 12.636719 L 17.046875 12.652344 L 17.246094 12.664062 L 17.515625 13.136719 C 17.664062 13.394531 17.804688 13.597656 17.828125 13.582031 C 17.847656 13.570312 17.867188 13.351562 17.867188 13.097656 L 17.867188 12.640625 L 18.191406 12.640625 L 18.191406 14.308594 L 18 14.292969 C 17.808594 14.28125 17.808594 14.277344 17.550781 13.824219 C 17.40625 13.574219 17.269531 13.371094 17.246094 13.371094 C 17.21875 13.378906 17.191406 13.578125 17.183594 13.839844 L 17.171875 14.304688 L 16.851562 14.304688 Z M 18.515625 13.472656 L 18.515625 12.640625 L 18.882812 12.640625 L 18.882812 14.304688 L 18.515625 14.304688 Z M 19.097656 14.265625 C 19.082031 14.246094 19.175781 14.066406 19.300781 13.871094 C 19.425781 13.675781 19.53125 13.488281 19.53125 13.457031 C 19.527344 13.425781 19.4375 13.246094 19.324219 13.058594 C 19.207031 12.867188 19.113281 12.695312 19.113281 12.675781 C 19.113281 12.65625 19.207031 12.640625 19.320312 12.640625 C 19.511719 12.640625 19.535156 12.652344 19.632812 12.824219 C 19.691406 12.925781 19.761719 13.011719 19.785156 13.011719 C 19.808594 13.011719 19.871094 12.933594 19.925781 12.835938 C 20.007812 12.679688 20.035156 12.664062 20.234375 12.652344 C 20.355469 12.644531 20.453125 12.652344 20.453125 12.675781 C 20.453125 12.695312 20.363281 12.863281 20.246094 13.046875 C 20.132812 13.230469 20.039062 13.40625 20.039062 13.441406 C 20.039062 13.472656 20.144531 13.664062 20.269531 13.863281 C 20.398438 14.070312 20.480469 14.246094 20.460938 14.269531 C 20.4375 14.292969 20.339844 14.300781 20.242188 14.292969 C 20.085938 14.28125 20.050781 14.253906 19.957031 14.082031 C 19.894531 13.976562 19.824219 13.886719 19.792969 13.890625 C 19.761719 13.890625 19.683594 13.984375 19.613281 14.097656 C 19.496094 14.285156 19.472656 14.304688 19.304688 14.304688 C 19.203125 14.304688 19.109375 14.285156 19.097656 14.265625 Z M 19.097656 14.265625 "/>
<path style=" stroke:none;fill-rule:nonzero;fill:rgb(8.235294%,29.411766%,49.411765%);fill-opacity:1;" d="M 16.550781 25.785156 C 14.847656 25.597656 13.417969 24.890625 12.136719 23.597656 C 9.558594 21.003906 8.605469 16.714844 9.746094 12.839844 C 9.988281 12.019531 10.410156 11.054688 10.820312 10.394531 C 11.800781 8.804688 13.054688 7.683594 14.554688 7.042969 C 15.460938 6.65625 16.082031 6.53125 17.105469 6.535156 C 17.898438 6.535156 18.355469 6.601562 19.035156 6.8125 C 19.574219 6.980469 20.542969 7.472656 21.050781 7.832031 C 21.886719 8.433594 22.804688 9.449219 23.394531 10.441406 C 23.84375 11.183594 23.84375 11.234375 23.527344 11.234375 C 23.179688 11.234375 22.757812 11.203125 22.417969 11.035156 C 22.105469 10.882812 21.96875 10.875 21.738281 10.488281 C 21.011719 9.261719 20.097656 8.28125 19.023438 7.777344 C 17.925781 7.261719 16.734375 7.128906 15.617188 7.550781 C 13.882812 8.203125 12.425781 9.910156 11.632812 12.207031 C 11.171875 13.542969 10.984375 14.726562 10.984375 16.261719 C 10.984375 17.707031 11.324219 19.003906 11.757812 20.234375 C 11.933594 20.738281 12.480469 21.890625 12.738281 22.300781 C 14.433594 24.996094 16.8125 25.566406 19.207031 24.363281 C 19.9375 23.996094 20.796875 23.210938 21.332031 22.449219 C 21.695312 21.933594 21.882812 21.796875 22.1875 21.613281 C 22.566406 21.382812 23.257812 21.429688 23.496094 21.496094 C 23.65625 21.539062 22.726562 22.929688 22.035156 23.621094 C 20.917969 24.742188 19.65625 25.429688 18.234375 25.695312 C 17.835938 25.769531 16.886719 25.820312 16.550781 25.785156 Z M 16.550781 25.785156 "/>
</g>
</svg>
