
<svg xmlns="http://www.w3.org/2000/svg" xmlns:xlink="http://www.w3.org/1999/xlink" width="32px" height="32px" viewBox="0 0 32 32" version="1.1">
<g id="surface1">
<path style="fill-rule:nonzero;fill:rgb(90.196079%,90.196079%,90.196079%);fill-opacity:1;stroke-width:28.191782;stroke-linecap:butt;stroke-linejoin:miter;stroke:rgb(95.686275%,49.803922%,53.333336%);stroke-opacity:1;stroke-miterlimit:4;" d="M 294.642843 57.996122 L 643.642843 57.996122 C 674.830343 57.996122 700.080343 83.246122 700.080343 114.433622 L 700.080343 463.433622 C 700.080343 494.621122 674.830343 519.871122 643.642843 519.871122 L 294.642843 519.871122 C 263.455343 519.871122 238.205343 494.621122 238.205343 463.433622 L 238.205343 114.433622 C 238.205343 83.246122 263.455343 57.996122 294.642843 57.996122 Z M 294.642843 57.996122 " transform="matrix(0.0625,0,0,0.0625,-13.321428,-2.058351)"/>
<path style=" stroke:none;fill-rule:nonzero;fill:rgb(95.686275%,49.803922%,53.333336%);fill-opacity:1;" d="M 15.695312 26.644531 C 14.917969 26.261719 14.761719 26.050781 15.101562 25.84375 C 15.515625 25.589844 15.277344 24.105469 14.558594 22.433594 C 13.851562 20.792969 13.839844 20.746094 14.167969 20.378906 C 14.925781 19.535156 14.886719 19.488281 13.535156 19.617188 C 9.78125 19.980469 9.121094 20.097656 7.824219 20.636719 C 6.121094 21.347656 4.707031 21.769531 4.707031 21.570312 C 4.707031 21.484375 4.933594 21.355469 5.210938 21.277344 L 5.710938 21.136719 L 5.179688 21.027344 C 4.652344 20.921875 4.652344 20.917969 5.726562 20.207031 C 6.320312 19.816406 7.996094 18.324219 9.449219 16.894531 C 12.066406 14.316406 14.773438 12.164062 16.503906 11.285156 C 17.023438 11.023438 17.492188 10.628906 17.617188 10.351562 C 17.738281 10.089844 17.835938 9.109375 17.835938 8.175781 C 17.835938 6.191406 18.105469 5.667969 19.300781 5.308594 C 19.972656 5.105469 20.082031 5.128906 20.914062 5.648438 C 21.46875 5.992188 22.179688 6.25 22.785156 6.324219 C 25.203125 6.625 27.21875 7.285156 27.597656 7.894531 C 27.667969 8.007812 27.484375 7.972656 27.191406 7.824219 C 25.613281 7.007812 22.535156 6.714844 21.367188 7.269531 C 20.410156 7.722656 20.335938 8.011719 20.675781 9.933594 C 21.132812 12.542969 20.808594 14.625 19.726562 16.046875 C 19.464844 16.390625 18.753906 17.035156 18.148438 17.480469 C 17.542969 17.925781 16.941406 18.496094 16.808594 18.75 C 16.679688 19 16.414062 19.410156 16.222656 19.652344 C 15.917969 20.039062 15.867188 20.425781 15.847656 22.40625 C 15.839844 23.859375 15.90625 24.800781 16.035156 24.957031 C 16.144531 25.089844 16.183594 25.402344 16.121094 25.652344 C 15.996094 26.160156 16.398438 26.480469 17.152344 26.480469 C 17.390625 26.480469 17.746094 26.601562 17.9375 26.75 C 18.265625 26.996094 18.222656 27.019531 17.378906 27.023438 C 16.8125 27.027344 16.175781 26.886719 15.695312 26.644531 Z M 15.265625 21.878906 C 15.253906 21.550781 15.308594 20.9375 15.378906 20.511719 C 15.53125 19.640625 15.300781 19.480469 14.921875 20.1875 C 14.636719 20.722656 14.632812 21.570312 14.914062 22.09375 C 15.195312 22.621094 15.285156 22.566406 15.265625 21.878906 Z M 15.265625 21.878906 "/>
</g>
</svg>
