
<svg xmlns="http://www.w3.org/2000/svg" xmlns:xlink="http://www.w3.org/1999/xlink" width="32px" height="32px" viewBox="0 0 32 32" version="1.1">
<g id="surface1">
<path style="fill-rule:nonzero;fill:rgb(16.862746%,23.529412%,30.588236%);fill-opacity:1;stroke-width:2.541277;stroke-linecap:butt;stroke-linejoin:miter;stroke:rgb(16.862746%,65.882355%,92.156863%);stroke-opacity:1;stroke-miterlimit:4;" d="M 188.504181 693 L 219.969025 693 C 222.775665 693 225.049103 695.273438 225.049103 698.080078 L 225.049103 729.544922 C 225.049103 732.351562 222.775665 734.625 219.969025 734.625 L 188.504181 734.625 C 185.69754 734.625 183.424103 732.351562 183.424103 729.544922 L 183.424103 698.080078 C 183.424103 695.273438 185.69754 693 188.504181 693 Z M 188.504181 693 " transform="matrix(0.666667,0,0,0.666667,-120.157735,-459.875)"/>
<path style=" stroke:none;fill-rule:nonzero;fill:rgb(92.54902%,94.117647%,94.509804%);fill-opacity:1;" d="M 20.375 20.667969 L 20.375 29.160156 L 29.046875 20.667969 Z M 20.375 20.667969 "/>
<path style=" stroke:none;fill-rule:evenodd;fill:rgb(100%,50.196081%,50.196081%);fill-opacity:1;" d="M 7.832031 8.3125 L 8.332031 7.8125 L 9.417969 8.902344 L 8.921875 9.398438 Z M 7.832031 8.3125 "/>
<path style=" stroke:none;fill-rule:nonzero;fill:rgb(17.254902%,24.313726%,31.37255%);fill-opacity:1;" d="M 5.457031 5.082031 L 12.503906 5.082031 L 12.503906 12.128906 L 5.457031 12.128906 Z M 5.457031 5.082031 "/>
<path style=" stroke:none;fill-rule:evenodd;fill:rgb(18.039216%,80.000001%,44.313726%);fill-opacity:1;" d="M 8.625 5.964844 C 7.933594 5.964844 7.246094 6.246094 6.757812 6.738281 C 6.269531 7.226562 5.984375 7.914062 5.984375 8.605469 C 5.984375 9.296875 6.269531 9.988281 6.757812 10.472656 C 7.246094 10.964844 7.933594 11.25 8.625 11.25 C 9.316406 11.25 10.003906 10.964844 10.496094 10.476562 C 10.984375 9.988281 11.269531 9.296875 11.269531 8.605469 L 10.566406 8.605469 C 10.566406 9.113281 10.355469 9.617188 9.996094 9.976562 C 9.636719 10.335938 9.132812 10.542969 8.625 10.542969 C 8.117188 10.542969 7.613281 10.335938 7.253906 9.976562 C 6.894531 9.617188 6.6875 9.113281 6.6875 8.605469 C 6.6875 8.097656 6.894531 7.59375 7.253906 7.234375 C 7.613281 6.878906 8.117188 6.667969 8.625 6.667969 C 8.628906 6.667969 8.628906 6.667969 8.628906 6.667969 L 8.628906 5.964844 C 8.628906 5.964844 8.628906 5.964844 8.625 5.964844 Z M 8.625 5.964844 "/>
<path style=" stroke:none;fill-rule:evenodd;fill:rgb(92.54902%,94.117647%,94.509804%);fill-opacity:1;" d="M 11.476562 5.964844 L 8.980469 8.460938 L 8.332031 7.8125 L 7.832031 8.3125 L 8.480469 8.957031 L 8.980469 9.457031 L 11.976562 6.460938 Z M 11.476562 5.964844 "/>
<path style=" stroke:none;fill-rule:evenodd;fill:rgb(100%,50.196081%,50.196081%);fill-opacity:1;" d="M 7.832031 22.410156 L 8.332031 21.910156 L 9.417969 23 L 8.921875 23.496094 Z M 7.832031 22.410156 "/>
<path style=" stroke:none;fill-rule:nonzero;fill:rgb(17.254902%,24.313726%,31.37255%);fill-opacity:1;" d="M 5.457031 19.179688 L 12.503906 19.179688 L 12.503906 26.230469 L 5.457031 26.230469 Z M 5.457031 19.179688 "/>
<path style=" stroke:none;fill-rule:evenodd;fill:rgb(18.039216%,80.000001%,44.313726%);fill-opacity:1;" d="M 8.625 20.0625 C 7.933594 20.0625 7.246094 20.347656 6.757812 20.835938 C 6.269531 21.324219 5.984375 22.011719 5.984375 22.707031 C 5.984375 23.394531 6.269531 24.085938 6.757812 24.574219 C 7.246094 25.0625 7.933594 25.347656 8.625 25.347656 C 9.316406 25.347656 10.003906 25.0625 10.496094 24.574219 C 10.984375 24.085938 11.269531 23.394531 11.269531 22.707031 L 10.566406 22.707031 C 10.566406 23.214844 10.355469 23.714844 9.996094 24.074219 C 9.636719 24.433594 9.132812 24.644531 8.625 24.644531 C 8.117188 24.644531 7.613281 24.433594 7.253906 24.074219 C 6.894531 23.714844 6.6875 23.214844 6.6875 22.707031 C 6.6875 22.199219 6.894531 21.691406 7.253906 21.332031 C 7.613281 20.976562 8.117188 20.765625 8.625 20.765625 C 8.628906 20.765625 8.628906 20.765625 8.628906 20.765625 L 8.628906 20.0625 C 8.628906 20.0625 8.628906 20.0625 8.625 20.0625 Z M 8.625 20.0625 "/>
<path style=" stroke:none;fill-rule:evenodd;fill:rgb(92.54902%,94.117647%,94.509804%);fill-opacity:1;" d="M 11.476562 20.0625 L 8.980469 22.558594 L 8.332031 21.910156 L 7.832031 22.410156 L 8.480469 23.058594 L 8.980469 23.554688 L 11.976562 20.558594 Z M 11.476562 20.0625 "/>
<path style=" stroke:none;fill-rule:evenodd;fill:rgb(100%,50.196081%,50.196081%);fill-opacity:1;" d="M 7.832031 15.363281 L 8.332031 14.863281 L 9.417969 15.949219 L 8.921875 16.449219 Z M 7.832031 15.363281 "/>
<path style=" stroke:none;fill-rule:nonzero;fill:rgb(17.254902%,24.313726%,31.37255%);fill-opacity:1;" d="M 5.457031 12.128906 L 12.503906 12.128906 L 12.503906 19.179688 L 5.457031 19.179688 Z M 5.457031 12.128906 "/>
<path style=" stroke:none;fill-rule:evenodd;fill:rgb(18.039216%,80.000001%,44.313726%);fill-opacity:1;" d="M 8.625 13.011719 C 7.933594 13.011719 7.246094 13.296875 6.757812 13.785156 C 6.269531 14.277344 5.984375 14.964844 5.984375 15.65625 C 5.984375 16.347656 6.269531 17.035156 6.757812 17.523438 C 7.246094 18.011719 7.933594 18.300781 8.625 18.300781 C 9.316406 18.300781 10.003906 18.015625 10.496094 17.527344 C 10.984375 17.035156 11.269531 16.347656 11.269531 15.65625 L 10.566406 15.65625 C 10.566406 16.164062 10.355469 16.667969 9.996094 17.027344 C 9.636719 17.386719 9.132812 17.59375 8.625 17.59375 C 8.117188 17.59375 7.613281 17.386719 7.253906 17.027344 C 6.894531 16.667969 6.6875 16.164062 6.6875 15.65625 C 6.6875 15.148438 6.894531 14.644531 7.253906 14.285156 C 7.613281 13.925781 8.117188 13.714844 8.625 13.714844 C 8.628906 13.714844 8.628906 13.714844 8.628906 13.714844 L 8.628906 13.011719 C 8.628906 13.011719 8.628906 13.011719 8.625 13.011719 Z M 8.625 13.011719 "/>
<path style=" stroke:none;fill-rule:evenodd;fill:rgb(92.54902%,94.117647%,94.509804%);fill-opacity:1;" d="M 11.476562 13.011719 L 8.980469 15.511719 L 8.332031 14.863281 L 7.832031 15.363281 L 8.980469 16.503906 L 11.976562 13.511719 Z M 11.476562 13.011719 "/>
<path style=" stroke:none;fill-rule:nonzero;fill:rgb(100%,100%,100%);fill-opacity:1;" d="M 28.386719 28.03125 C 28.492188 27.867188 28.730469 27.675781 28.800781 27.429688 C 28.847656 27.234375 28.914062 27.03125 28.957031 26.808594 C 29.140625 25.835938 29.046875 24.542969 29.039062 23.472656 C 29.027344 21.882812 28.996094 20.574219 29.046875 20.535156 L 20.375 29.03125 C 20.753906 28.945312 22.835938 29.0625 24.835938 29.011719 C 25.664062 28.988281 26.496094 29.054688 27.164062 28.886719 C 27.695312 28.753906 28.117188 28.449219 28.386719 28.03125 Z M 28.386719 28.03125 "/>
</g>
</svg>
