
<svg xmlns="http://www.w3.org/2000/svg" xmlns:xlink="http://www.w3.org/1999/xlink" width="32px" height="32px" viewBox="0 0 32 32" version="1.1">
<g id="surface1">
<path style="fill-rule:nonzero;fill:rgb(80.000001%,80.000001%,80.000001%);fill-opacity:1;stroke-width:6.789384;stroke-linecap:butt;stroke-linejoin:miter;stroke:rgb(92.156863%,16.862746%,17.647059%);stroke-opacity:1;stroke-miterlimit:4;" d="M 21.96875 8.390625 L 106.03125 8.390625 C 113.53125 8.390625 119.609375 14.46875 119.609375 21.96875 L 119.609375 106.03125 C 119.609375 113.53125 113.53125 119.609375 106.03125 119.609375 L 21.96875 119.609375 C 14.46875 119.609375 8.390625 113.53125 8.390625 106.03125 L 8.390625 21.96875 C 8.390625 14.46875 14.46875 8.390625 21.96875 8.390625 Z M 21.96875 8.390625 " transform="matrix(0.25,0,0,0.25,0,0)"/>
<path style=" stroke:none;fill-rule:nonzero;fill:rgb(100%,16.470589%,16.470589%);fill-opacity:1;" d="M 8.234375 21.152344 L 23.847656 21.152344 L 23.847656 23.667969 L 8.234375 23.667969 M 8.234375 21.152344 "/>
<path style=" stroke:none;fill-rule:nonzero;fill:rgb(100%,16.470589%,16.470589%);fill-opacity:1;" d="M 7.90625 19.925781 L 24.117188 19.925781 L 24.117188 21.164062 L 7.90625 21.164062 M 7.90625 19.925781 "/>
<path style=" stroke:none;fill-rule:nonzero;fill:rgb(30.19608%,30.19608%,30.19608%);fill-opacity:1;" d="M 22.667969 10.058594 C 23.667969 8.738281 23.945312 7.523438 25.886719 4.011719 C 26.683594 4.878906 26.886719 8.53125 25.007812 10.058594 M 22.667969 10.058594 "/>
<path style=" stroke:none;fill-rule:nonzero;fill:rgb(30.19608%,30.19608%,30.19608%);fill-opacity:1;" d="M 9.277344 10.058594 C 8.28125 8.738281 8 7.523438 6.058594 4.011719 C 5.261719 4.878906 5.058594 8.53125 6.941406 10.058594 M 9.277344 10.058594 "/>
<path style=" stroke:none;fill-rule:nonzero;fill:rgb(100%,16.470589%,16.470589%);fill-opacity:1;" d="M 15.972656 5.289062 C 15.644531 5.289062 15.335938 5.3125 15.015625 5.347656 C 14.765625 5.371094 14.503906 5.402344 14.257812 5.445312 L 14.257812 5.464844 C 13.449219 5.605469 12.65625 5.824219 11.921875 6.140625 C 10.632812 6.691406 9.65625 7.242188 8.671875 8.222656 C 8.96875 8.808594 9.542969 9.847656 9.917969 10.347656 L 7.035156 10.347656 C 6.414062 11.25 6.003906 11.972656 5.667969 13.042969 C 5.332031 14.117188 5.144531 15.265625 5.144531 16.449219 C 5.144531 21.972656 9.09375 26.558594 14.261719 27.457031 L 14.261719 27.476562 C 14.503906 27.515625 14.757812 27.535156 15.003906 27.558594 C 15.324219 27.589844 15.640625 27.617188 15.976562 27.617188 C 16.019531 27.617188 16.066406 27.617188 16.113281 27.617188 C 16.445312 27.617188 16.777344 27.589844 17.105469 27.558594 C 17.351562 27.535156 17.582031 27.515625 17.824219 27.476562 L 17.824219 27.457031 C 22.996094 26.558594 26.941406 21.972656 26.941406 16.449219 C 26.941406 15.265625 26.75 14.113281 26.417969 13.042969 C 26.082031 11.96875 25.675781 11.25 25.050781 10.347656 L 22.171875 10.347656 C 22.542969 9.847656 23.117188 8.816406 23.417969 8.222656 C 22.425781 7.242188 21.449219 6.6875 20.167969 6.140625 C 19.425781 5.824219 18.636719 5.605469 17.832031 5.464844 L 17.832031 5.445312 C 17.574219 5.402344 17.328125 5.375 17.070312 5.347656 C 16.757812 5.316406 16.433594 5.289062 16.117188 5.289062 C 16.070312 5.289062 16.023438 5.289062 15.980469 5.289062 M 10.074219 15.246094 C 10.957031 15.246094 11.667969 15.972656 11.667969 16.871094 C 11.667969 17.769531 10.957031 18.503906 10.074219 18.503906 C 9.191406 18.503906 8.476562 17.773438 8.476562 16.871094 C 8.476562 15.976562 9.191406 15.246094 10.074219 15.246094 M 22.011719 15.246094 C 22.894531 15.246094 23.605469 15.972656 23.605469 16.871094 C 23.605469 17.769531 22.894531 18.503906 22.011719 18.503906 C 21.128906 18.503906 20.414062 17.773438 20.414062 16.871094 C 20.414062 15.976562 21.128906 15.246094 22.011719 15.246094 M 8.105469 20.816406 L 23.980469 20.816406 L 23.980469 21.152344 L 22.617188 21.152344 C 22.589844 22.328125 21.800781 22.960938 21.078125 23.65625 C 20.34375 22.855469 19.945312 21.996094 20.199219 21.152344 L 11.890625 21.152344 C 12.144531 21.996094 11.75 22.855469 11.015625 23.65625 C 10.289062 22.960938 9.5 22.328125 9.476562 21.152344 L 8.113281 21.152344 L 8.113281 20.816406 M 8.105469 20.816406 "/>
<path style=" stroke:none;fill-rule:evenodd;fill:rgb(100%,16.470589%,16.470589%);fill-opacity:1;" d="M 9.480469 18.621094 C 9.175781 18.511719 8.699219 18.035156 8.5 17.652344 C 8.066406 16.824219 8.472656 15.761719 9.390625 15.308594 C 10.03125 14.996094 10.648438 15.113281 11.246094 15.660156 C 12.136719 16.476562 11.921875 17.992188 10.84375 18.503906 C 10.410156 18.707031 9.855469 18.757812 9.480469 18.621094 Z M 9.480469 18.621094 "/>
<path style=" stroke:none;fill-rule:evenodd;fill:rgb(100%,16.470589%,16.470589%);fill-opacity:1;" d="M 21.078125 18.511719 C 19.53125 17.476562 20.003906 15.234375 21.832031 14.9375 C 22.871094 14.769531 23.949219 15.738281 23.949219 16.839844 C 23.949219 18.394531 22.324219 19.339844 21.078125 18.511719 Z M 21.078125 18.511719 "/>
<path style=" stroke:none;fill-rule:nonzero;fill:rgb(82.352942%,89.803922%,95.294118%);fill-opacity:1;" d="M 17.175781 16.191406 L 18.371094 13.882812 L 19.679688 12.519531 L 21.070312 12.1875 L 22.515625 12.4375 L 23.738281 13.132812 L 24.128906 13.800781 L 23.683594 15.632812 L 22.792969 16.855469 L 22.238281 17.46875 L 20.738281 17.886719 L 19.402344 17.664062 L 18.152344 17.050781 Z M 17.175781 16.191406 "/>
<path style=" stroke:none;fill-rule:nonzero;fill:rgb(58.823532%,65.098041%,69.411767%);fill-opacity:1;" d="M 17.628906 15.160156 C 17.628906 15.160156 19.300781 13.066406 21.007812 13.230469 C 22.464844 13.367188 24.179688 13.941406 24.179688 13.941406 L 23.792969 13.464844 L 22.515625 12.324219 L 20.292969 12.324219 L 19.179688 12.9375 L 18.347656 13.910156 Z M 17.628906 15.160156 "/>
<path style=" stroke:none;fill-rule:nonzero;fill:rgb(0%,0%,0%);fill-opacity:1;" d="M 17.738281 15.050781 C 17.738281 15.050781 19.207031 12.894531 20.953125 12.785156 C 22.410156 12.695312 24.179688 13.769531 24.179688 13.769531 L 23.792969 13.382812 L 22.515625 12.324219 L 20.292969 12.324219 L 19.179688 12.894531 L 18.011719 14.386719 Z M 17.738281 15.050781 "/>
<path style=" stroke:none;fill-rule:evenodd;fill:rgb(0%,0%,0%);fill-opacity:1;" d="M 20.800781 11.960938 C 23.074219 11.699219 24.554688 13.472656 24.554688 13.472656 L 24.285156 13.625 C 24.332031 15.40625 23.382812 17.058594 21.984375 17.691406 C 20.582031 18.332031 18.488281 17.96875 17.183594 16.253906 L 17.09375 16.152344 C 17.75 14.335938 18.808594 12.191406 20.800781 11.960938 Z M 20.847656 12.457031 C 19.832031 12.488281 18.917969 13.402344 18.261719 14.335938 C 17.652344 15.207031 17.304688 16.003906 17.257812 16.117188 C 18.800781 17.789062 20.457031 18.019531 21.738281 17.4375 C 23.027344 16.855469 23.933594 15.4375 23.902344 13.777344 C 23.847656 13.691406 22.957031 12.394531 20.847656 12.457031 Z M 20.847656 12.457031 "/>
<path style=" stroke:none;fill-rule:evenodd;fill:rgb(100%,80.000001%,0%);fill-opacity:1;" d="M 22.492188 15.285156 C 22.492188 14.25 21.683594 13.410156 20.679688 13.410156 C 19.679688 13.410156 18.867188 14.25 18.867188 15.285156 C 18.867188 16.324219 19.679688 17.164062 20.679688 17.164062 C 21.683594 17.164062 22.492188 16.324219 22.492188 15.285156 Z M 22.492188 15.285156 "/>
<path style=" stroke:none;fill-rule:evenodd;fill:rgb(8.627451%,0.784314%,0%);fill-opacity:1;" d="M 21.320312 15.300781 C 21.320312 15.714844 20.984375 16.050781 20.570312 16.050781 C 20.152344 16.050781 19.816406 15.714844 19.816406 15.300781 C 19.816406 14.886719 20.152344 14.550781 20.570312 14.550781 C 20.984375 14.550781 21.320312 14.886719 21.320312 15.300781 Z M 21.320312 15.300781 "/>
<path style=" stroke:none;fill-rule:evenodd;fill:rgb(100%,100%,100%);fill-opacity:1;" d="M 20.292969 15.007812 C 20.292969 15.183594 20.148438 15.328125 19.972656 15.328125 C 19.792969 15.328125 19.652344 15.183594 19.652344 15.007812 C 19.652344 14.832031 19.792969 14.6875 19.972656 14.6875 C 20.148438 14.6875 20.292969 14.832031 20.292969 15.007812 Z M 20.292969 15.007812 "/>
<path style=" stroke:none;fill-rule:nonzero;fill:rgb(82.352942%,89.803922%,95.294118%);fill-opacity:1;" d="M 14.269531 16.175781 L 13.242188 14.882812 L 12.121094 14.117188 L 10.925781 13.929688 L 9.683594 14.070312 L 8.632812 14.460938 L 8.296875 14.835938 L 8.679688 15.867188 L 9.445312 16.550781 L 9.921875 16.894531 L 11.210938 17.128906 L 12.359375 17.003906 L 13.433594 16.660156 Z M 14.269531 16.175781 "/>
<path style=" stroke:none;fill-rule:nonzero;fill:rgb(58.823532%,65.098041%,69.411767%);fill-opacity:1;" d="M 13.882812 15.597656 C 13.882812 15.597656 12.449219 14.425781 10.980469 14.515625 C 9.730469 14.59375 8.253906 14.917969 8.253906 14.917969 L 8.582031 14.648438 L 9.683594 14.007812 L 11.59375 14.007812 L 12.550781 14.351562 L 13.265625 14.898438 Z M 13.882812 15.597656 "/>
<path style=" stroke:none;fill-rule:nonzero;fill:rgb(0%,0%,0%);fill-opacity:1;" d="M 13.789062 15.539062 C 13.789062 15.539062 12.527344 14.328125 11.027344 14.269531 C 9.773438 14.214844 8.253906 14.820312 8.253906 14.820312 L 8.582031 14.601562 L 9.683594 14.007812 L 11.59375 14.007812 L 12.550781 14.328125 L 13.550781 15.167969 Z M 13.789062 15.539062 "/>
<path style=" stroke:none;fill-rule:evenodd;fill:rgb(0%,0%,0%);fill-opacity:1;" d="M 11.15625 13.804688 C 9.203125 13.65625 7.929688 14.652344 7.929688 14.652344 L 8.164062 14.738281 C 8.121094 15.738281 8.9375 16.664062 10.140625 17.019531 C 11.34375 17.378906 13.144531 17.175781 14.261719 16.214844 L 14.339844 16.15625 C 13.777344 15.136719 12.871094 13.933594 11.15625 13.804688 Z M 11.117188 14.082031 C 11.988281 14.101562 12.777344 14.613281 13.339844 15.136719 C 13.863281 15.625 14.160156 16.074219 14.199219 16.136719 C 12.875 17.074219 11.449219 17.207031 10.351562 16.878906 C 9.246094 16.550781 8.464844 15.753906 8.488281 14.824219 C 8.535156 14.777344 9.304688 14.046875 11.117188 14.082031 Z M 11.117188 14.082031 "/>
<path style=" stroke:none;fill-rule:evenodd;fill:rgb(100%,80.000001%,0%);fill-opacity:1;" d="M 9.703125 15.671875 C 9.703125 15.089844 10.398438 14.617188 11.261719 14.617188 C 12.121094 14.617188 12.816406 15.089844 12.816406 15.671875 C 12.816406 16.253906 12.121094 16.722656 11.261719 16.722656 C 10.398438 16.722656 9.703125 16.253906 9.703125 15.671875 Z M 9.703125 15.671875 "/>
<path style=" stroke:none;fill-rule:evenodd;fill:rgb(8.627451%,0.784314%,0%);fill-opacity:1;" d="M 10.710938 15.679688 C 10.710938 15.910156 11 16.097656 11.355469 16.097656 C 11.710938 16.097656 12 15.910156 12 15.679688 C 12 15.445312 11.710938 15.257812 11.355469 15.257812 C 11 15.257812 10.710938 15.445312 10.710938 15.679688 Z M 10.710938 15.679688 "/>
<path style=" stroke:none;fill-rule:evenodd;fill:rgb(100%,100%,100%);fill-opacity:1;" d="M 11.59375 15.515625 C 11.59375 15.613281 11.714844 15.695312 11.871094 15.695312 C 12.019531 15.695312 12.144531 15.613281 12.144531 15.515625 C 12.144531 15.417969 12.019531 15.335938 11.871094 15.335938 C 11.714844 15.335938 11.59375 15.417969 11.59375 15.515625 Z M 11.59375 15.515625 "/>
<path style=" stroke:none;fill-rule:evenodd;fill:rgb(0%,0%,0%);fill-opacity:1;" d="M 8.609375 20.910156 C 10.515625 22.988281 13.683594 24.179688 17.132812 23.832031 C 20.167969 23.527344 22.761719 22.089844 24.332031 20.101562 C 22.347656 21.203125 19.988281 21.957031 17.417969 22.214844 C 14.183594 22.542969 11.125 22.03125 8.609375 20.910156 Z M 8.609375 20.910156 "/>
<path style=" stroke:none;fill-rule:nonzero;fill:rgb(100%,83.529413%,83.529413%);fill-opacity:1;" d="M 11.882812 24.097656 L 11.503906 22.894531 L 11.03125 21.722656 L 12.261719 21.996094 L 13.511719 22.175781 L 12.660156 23.105469 Z M 11.882812 24.097656 "/>
<path style=" stroke:none;fill-rule:nonzero;fill:rgb(100%,83.529413%,83.529413%);fill-opacity:1;" d="M 19.15625 21.925781 L 20.078125 22.785156 L 20.933594 23.710938 L 21.214844 22.484375 L 21.59375 21.28125 L 20.386719 21.648438 Z M 19.15625 21.925781 "/>
</g>
</svg>
