
<svg xmlns="http://www.w3.org/2000/svg" xmlns:xlink="http://www.w3.org/1999/xlink" width="32px" height="32px" viewBox="0 0 32 32" version="1.1">
<g id="surface1">
<path style="fill-rule:nonzero;fill:rgb(30.19608%,30.19608%,30.19608%);fill-opacity:1;stroke-width:7.072552;stroke-linecap:butt;stroke-linejoin:miter;stroke:rgb(16.862746%,65.882355%,92.156863%);stroke-opacity:1;stroke-miterlimit:4;" d="M 20.21875 6.078125 L 107.78125 6.078125 C 115.59375 6.078125 121.921875 12.40625 121.921875 20.21875 L 121.921875 107.78125 C 121.921875 115.59375 115.59375 121.921875 107.78125 121.921875 L 20.21875 121.921875 C 12.40625 121.921875 6.078125 115.59375 6.078125 107.78125 L 6.078125 20.21875 C 6.078125 12.40625 12.40625 6.078125 20.21875 6.078125 Z M 20.21875 6.078125 " transform="matrix(0.25,0,0,0.25,0,0)"/>
<path style=" stroke:none;fill-rule:nonzero;fill:rgb(100%,64.705884%,0%);fill-opacity:1;" d="M 18.328125 5.136719 L 15.601562 12.8125 L 26.363281 11.027344 C 24.769531 8.011719 21.835938 5.789062 18.328125 5.136719 M 18.328125 5.136719 "/>
<path style=" stroke:none;fill-rule:nonzero;fill:rgb(94.509804%,89.803922%,15.294118%);fill-opacity:1;" d="M 26.699219 12.554688 L 18.582031 14.058594 L 25.535156 22.355469 C 27.390625 19.488281 27.871094 15.867188 26.6875 12.550781 M 26.699219 12.550781 "/>
<path style=" stroke:none;fill-rule:nonzero;fill:rgb(19.607843%,80.392158%,19.607843%);fill-opacity:1;" d="M 24.371094 23.410156 L 18.984375 17.238281 L 15.167969 27.324219 C 18.621094 27.472656 22.039062 26.074219 24.355469 23.410156 M 24.367188 23.410156 "/>
<path style=" stroke:none;fill-rule:nonzero;fill:rgb(25.490198%,41.176471%,88.235295%);fill-opacity:1;" d="M 13.675781 26.847656 L 16.410156 19.175781 L 5.640625 20.960938 C 7.238281 23.980469 10.175781 26.203125 13.675781 26.847656 M 13.675781 26.847656 "/>
<path style=" stroke:none;fill-rule:nonzero;fill:rgb(72.941178%,33.333334%,82.745099%);fill-opacity:1;" d="M 5.304688 19.441406 L 13.417969 17.9375 L 6.464844 9.636719 C 4.613281 12.511719 4.128906 16.128906 5.308594 19.441406 M 5.304688 19.441406 "/>
<path style=" stroke:none;fill-rule:nonzero;fill:rgb(100%,0%,0%);fill-opacity:1;" d="M 7.628906 8.589844 L 13.011719 14.761719 L 16.832031 4.675781 C 13.378906 4.527344 9.957031 5.925781 7.644531 8.589844 M 7.628906 8.589844 "/>
<path style=" stroke:none;fill-rule:nonzero;fill:rgb(97.647059%,97.647059%,97.647059%);fill-opacity:1;" d="M 17.582031 15.996094 C 17.582031 16.855469 16.875 17.550781 16.003906 17.550781 C 15.132812 17.550781 14.425781 16.855469 14.425781 15.996094 C 14.425781 15.136719 15.132812 14.4375 16.003906 14.4375 C 16.875 14.4375 17.582031 15.136719 17.582031 15.996094 M 17.582031 15.996094 "/>
</g>
</svg>
