<!-- Generator: Adobe Illustrator 16.0.0, SVG Export Plug-In . SVG Version: 6.00 Build 0)  -->
<svg xmlns="http://www.w3.org/2000/svg" xmlns:xlink="http://www.w3.org/1999/xlink" width="32px" height="32px" viewBox="0 0 32 32" version="1.1">
<g id="surface1">
<path style="fill-rule:nonzero;fill:rgb(82.745099%,74.901962%,74.901962%);fill-opacity:1;stroke-width:30.018902;stroke-linecap:butt;stroke-linejoin:miter;stroke:rgb(82.745099%,37.254903%,37.254903%);stroke-opacity:1;stroke-miterlimit:4;" d="M 99.464906 39.451392 L 471.18624 39.451392 C 504.294741 39.451392 531.199754 66.356405 531.199754 99.464906 L 531.199754 471.18624 C 531.199754 504.294741 504.294741 531.199754 471.18624 531.199754 L 99.464906 531.199754 C 66.356405 531.199754 39.451392 504.294741 39.451392 471.18624 L 39.451392 99.464906 C 39.451392 66.356405 66.356405 39.451392 99.464906 39.451392 Z M 99.464906 39.451392 " transform="matrix(0.0560421,0,0,0.0560421,0,0)"/>
<path style=" stroke:none;fill-rule:nonzero;fill:rgb(42.352942%,32.549021%,32.549021%);fill-opacity:1;" d="M 27.164062 17.308594 C 26.96875 17.5625 26.800781 17.84375 26.582031 18.074219 C 26.378906 18.292969 26.140625 18.472656 25.894531 18.640625 C 24.980469 19.179688 24.394531 19.78125 23.425781 20.097656 C 22.292969 20.464844 21.265625 21.082031 20.167969 21.527344 C 19.855469 21.652344 19.542969 21.769531 19.230469 21.871094 C 18.78125 22.015625 18.316406 22.011719 17.847656 22.007812 C 17.503906 22.003906 17.160156 22.058594 16.816406 22.035156 C 16.328125 22 15.839844 21.902344 15.355469 21.863281 C 14.675781 21.800781 13.996094 21.789062 13.316406 21.882812 C 13.105469 21.914062 12.882812 21.886719 12.667969 21.863281 C 12.542969 21.851562 12.511719 21.695312 12.621094 21.617188 C 12.882812 21.421875 13.101562 21.160156 13.433594 21.070312 C 13.605469 21.019531 13.785156 20.960938 13.960938 20.957031 C 14.179688 20.949219 14.359375 20.902344 14.488281 20.703125 C 14.332031 20.535156 14.121094 20.4375 13.878906 20.394531 C 13.253906 20.292969 12.757812 19.964844 12.289062 19.554688 C 11.847656 19.160156 11.386719 18.773438 10.734375 18.785156 C 10.691406 18.785156 10.652344 18.765625 10.605469 18.761719 C 10.328125 18.722656 10.097656 18.75 9.917969 19.027344 C 9.777344 19.246094 9.558594 19.421875 9.347656 19.578125 C 9.261719 19.640625 9.097656 19.636719 8.980469 19.613281 C 8.5625 19.527344 8.152344 19.417969 7.730469 19.335938 C 7.546875 19.300781 7.355469 19.320312 7.164062 19.308594 C 6.933594 19.289062 6.890625 19.121094 6.886719 18.933594 C 6.878906 18.753906 6.894531 18.609375 7.128906 18.542969 C 7.585938 18.417969 8.003906 18.539062 8.433594 18.652344 C 8.613281 18.703125 8.785156 18.816406 8.988281 18.660156 C 9.136719 18.542969 9.175781 18.421875 9.125 18.265625 C 8.921875 17.652344 8.640625 17.070312 8.292969 16.523438 C 8.253906 16.460938 8.160156 16.410156 8.082031 16.394531 C 7.394531 16.28125 6.71875 16.113281 6.078125 15.828125 C 5.933594 15.761719 5.792969 15.679688 5.660156 15.597656 C 5.605469 15.566406 5.535156 15.519531 5.519531 15.464844 C 5.390625 15.011719 5 14.730469 4.789062 14.328125 C 4.605469 13.988281 4.636719 13.460938 4.925781 13.199219 C 5.484375 12.699219 6.050781 12.195312 6.640625 11.730469 C 7.277344 11.234375 8.023438 11.238281 8.785156 11.378906 C 9.210938 11.457031 9.648438 11.554688 10.074219 11.527344 C 10.640625 11.496094 11.199219 11.339844 11.761719 11.246094 C 12.253906 11.164062 12.746094 11.082031 13.238281 11.035156 C 13.738281 10.992188 14.230469 11.03125 14.722656 11.144531 C 15.042969 11.214844 15.386719 11.199219 15.710938 11.273438 C 16.589844 11.472656 17.4375 11.777344 18.246094 12.191406 C 18.828125 12.492188 19.296875 12.925781 19.75 13.378906 C 20.097656 13.730469 20.441406 14.089844 20.734375 14.484375 C 21 14.839844 21.210938 15.234375 21.421875 15.628906 C 21.710938 16.171875 21.867188 16.746094 22.0625 17.3125 C 22.140625 17.542969 22.179688 17.792969 22.238281 18.03125 C 22.25 18.089844 22.261719 18.152344 22.289062 18.261719 C 22.566406 18.09375 22.816406 17.972656 23.03125 17.800781 C 23.53125 17.246094 23.863281 16.617188 24.109375 15.976562 C 24.230469 15.667969 24.3125 15.34375 24.445312 15.042969 C 24.65625 14.566406 24.832031 14.058594 25.140625 13.644531 C 25.433594 13.25 25.839844 12.882812 26.425781 13.003906 C 26.574219 13.035156 26.726562 13.089844 26.839844 13.179688 C 27.269531 13.511719 27.636719 13.898438 27.9375 14.351562 C 28.203125 14.746094 28.191406 15.160156 28.082031 15.582031 C 27.917969 16.226562 27.570312 16.785156 27.164062 17.308594 Z M 27.164062 17.308594 "/>
<path style=" stroke:none;fill-rule:nonzero;fill:rgb(82.745099%,74.901962%,74.901962%);fill-opacity:1;" d="M 7.386719 12.898438 C 7.386719 12.691406 7.238281 12.527344 7.054688 12.527344 C 6.875 12.527344 6.726562 12.691406 6.726562 12.898438 C 6.726562 13.101562 6.875 13.265625 7.054688 13.265625 C 7.238281 13.265625 7.386719 13.101562 7.386719 12.898438 Z M 7.386719 12.898438 "/>
</g>
</svg>
