
<svg xmlns="http://www.w3.org/2000/svg" xmlns:xlink="http://www.w3.org/1999/xlink" width="32px" height="32px" viewBox="0 0 32 32" version="1.1">
<g id="surface1">
<path style="fill-rule:nonzero;fill:rgb(100%,100%,100%);fill-opacity:1;stroke-width:26.401737;stroke-linecap:butt;stroke-linejoin:miter;stroke:rgb(63.921571%,12.156863%,15.294118%);stroke-opacity:1;stroke-miterlimit:4;" d="M 92.5625 580.112183 L 419.4375 580.112183 C 448.5625 580.112183 472.25 603.799683 472.25 632.924683 L 472.25 959.799683 C 472.25 988.924683 448.5625 1012.612183 419.4375 1012.612183 L 92.5625 1012.612183 C 63.4375 1012.612183 39.75 988.924683 39.75 959.799683 L 39.75 632.924683 C 39.75 603.799683 63.4375 580.112183 92.5625 580.112183 Z M 92.5625 580.112183 " transform="matrix(0.0625,0,0,0.0625,0,-33.772636)"/>
<path style=" stroke:none;fill-rule:nonzero;fill:rgb(83.137256%,10.196079%,10.196079%);fill-opacity:1;" d="M 19.578125 5.800781 C 16.441406 5.800781 13.898438 8.355469 13.898438 11.503906 C 13.898438 14.65625 16.441406 17.210938 19.578125 17.210938 C 22.714844 17.210938 25.253906 14.65625 25.253906 11.503906 C 25.253906 8.355469 22.714844 5.800781 19.578125 5.800781 Z M 19.578125 5.800781 "/>
<path style=" stroke:none;fill-rule:evenodd;fill:rgb(94.901961%,94.901961%,94.901961%);fill-opacity:1;" d="M 22.832031 8.308594 L 23.84375 9.367188 L 17.871094 15.308594 L 14.691406 11.753906 L 15.746094 10.761719 L 17.933594 13.207031 Z M 22.832031 8.308594 "/>
<path style=" stroke:none;fill-rule:nonzero;fill:rgb(23.921569%,26.666668%,30.19608%);fill-opacity:1;" d="M 24.316406 6.824219 C 21.691406 4.199219 17.410156 4.199219 14.785156 6.824219 C 12.316406 9.289062 12.167969 13.214844 14.332031 15.855469 L 12.269531 17.917969 C 11.820312 17.800781 11.324219 17.910156 10.972656 18.269531 L 5.25 23.988281 C 4.722656 24.515625 4.722656 25.367188 5.25 25.894531 C 5.511719 26.160156 5.855469 26.289062 6.199219 26.289062 C 6.546875 26.289062 6.894531 26.160156 7.15625 25.894531 L 12.878906 20.175781 C 13.230469 19.820312 13.339844 19.324219 13.222656 18.875 L 15.285156 16.8125 C 17.929688 18.976562 21.851562 18.824219 24.316406 16.359375 C 26.945312 13.734375 26.945312 9.453125 24.316406 6.828125 Z M 23.363281 7.777344 C 25.476562 9.890625 25.476562 13.292969 23.363281 15.402344 C 21.253906 17.515625 17.847656 17.515625 15.738281 15.402344 C 13.625 13.292969 13.625 9.890625 15.738281 7.777344 C 17.847656 5.667969 21.253906 5.667969 23.363281 7.777344 Z M 23.363281 7.777344 "/>
<path style=" stroke:none;fill-rule:evenodd;fill:rgb(0%,0%,0%);fill-opacity:0.2;" d="M 12.269531 17.917969 L 13.222656 18.875 L 15.285156 16.8125 L 14.332031 15.855469 Z M 12.269531 17.917969 "/>
<path style=" stroke:none;fill-rule:nonzero;fill:rgb(80.000001%,89.803922%,100%);fill-opacity:0.2;" d="M 12.746094 18.394531 C 12.917969 18.570312 13.082031 18.722656 13.226562 18.867188 C 13.347656 19.316406 13.230469 19.816406 12.878906 20.175781 L 7.15625 25.894531 C 6.628906 26.421875 5.777344 26.421875 5.25 25.894531 C 4.722656 25.367188 4.722656 24.515625 5.25 23.988281 L 10.972656 18.269531 C 11.324219 17.914062 11.824219 17.796875 12.273438 17.917969 C 12.425781 18.074219 12.574219 18.222656 12.746094 18.394531 Z M 12.746094 18.394531 "/>
</g>
</svg>
