
<svg xmlns="http://www.w3.org/2000/svg" xmlns:xlink="http://www.w3.org/1999/xlink" width="32px" height="32px" viewBox="0 0 32 32" version="1.1">
<g id="surface1">
<path style="fill-rule:nonzero;fill:rgb(92.54902%,92.54902%,92.54902%);fill-opacity:1;stroke-width:55.215328;stroke-linecap:butt;stroke-linejoin:miter;stroke:rgb(3.529412%,55.29412%,92.156863%);stroke-opacity:1;stroke-miterlimit:4;" d="M 170.125 59.75 L 853.875 59.75 C 914.875 59.75 964.25 109.125 964.25 170.125 L 964.25 853.875 C 964.25 914.875 914.875 964.25 853.875 964.25 L 170.125 964.25 C 109.125 964.25 59.75 914.875 59.75 853.875 L 59.75 170.125 C 59.75 109.125 109.125 59.75 170.125 59.75 Z M 170.125 59.75 " transform="matrix(0.03125,0,0,0.03125,0,0)"/>
<path style=" stroke:none;fill-rule:nonzero;fill:rgb(0%,0%,0%);fill-opacity:0.0980392;" d="M 24.464844 7.632812 C 24.460938 7.351562 24.359375 7.109375 24.160156 6.910156 C 23.957031 6.699219 23.710938 6.597656 23.425781 6.597656 L 9.367188 6.597656 C 9.078125 6.597656 8.832031 6.699219 8.628906 6.910156 C 8.433594 7.109375 8.332031 7.351562 8.324219 7.632812 L 8.324219 25.566406 C 8.324219 25.859375 8.425781 26.113281 8.628906 26.316406 C 8.832031 26.527344 9.078125 26.628906 9.367188 26.628906 L 23.425781 26.628906 C 23.710938 26.628906 23.957031 26.527344 24.160156 26.316406 C 24.363281 26.113281 24.464844 25.859375 24.464844 25.566406 Z M 24.464844 7.632812 "/>
<path style=" stroke:none;fill-rule:nonzero;fill:rgb(80.000001%,80.000001%,80.000001%);fill-opacity:1;" d="M 24.328125 6.851562 C 24.121094 6.644531 23.871094 6.539062 23.578125 6.539062 L 9.238281 6.539062 C 8.945312 6.539062 8.695312 6.644531 8.488281 6.851562 C 8.285156 7.050781 8.183594 7.292969 8.175781 7.578125 L 8.175781 7.574219 L 8.175781 22.988281 C 8.183594 23.269531 8.285156 23.507812 8.488281 23.710938 C 8.695312 23.917969 8.945312 24.019531 9.238281 24.019531 L 23.578125 24.019531 C 23.871094 24.019531 24.121094 23.917969 24.328125 23.710938 C 24.53125 23.511719 24.636719 23.269531 24.640625 22.988281 L 24.640625 7.574219 L 24.640625 7.578125 C 24.636719 7.292969 24.53125 7.050781 24.328125 6.851562 Z M 24.328125 6.851562 "/>
<path style=" stroke:none;fill-rule:nonzero;fill:rgb(52.549022%,51.372552%,48.627451%);fill-opacity:0.988235;" d="M 8.488281 23.710938 C 8.285156 23.507812 8.183594 23.269531 8.175781 22.988281 L 8.175781 25.511719 C 8.175781 25.804688 8.28125 26.054688 8.488281 26.261719 C 8.695312 26.46875 8.945312 26.574219 9.238281 26.574219 L 23.578125 26.574219 C 23.871094 26.574219 24.121094 26.46875 24.328125 26.261719 C 24.535156 26.054688 24.640625 25.804688 24.640625 25.511719 L 24.640625 22.988281 C 24.636719 23.269531 24.53125 23.511719 24.328125 23.710938 C 24.121094 23.917969 23.871094 24.019531 23.578125 24.019531 L 9.238281 24.019531 C 8.945312 24.019531 8.695312 23.917969 8.488281 23.710938 Z M 8.488281 23.710938 "/>
<path style=" stroke:none;fill-rule:nonzero;fill:rgb(23.137255%,22.745098%,21.176471%);fill-opacity:1;" d="M 16.257812 24.820312 C 16.257812 24.703125 16.214844 24.605469 16.132812 24.519531 C 16.050781 24.4375 15.949219 24.394531 15.832031 24.394531 L 9.410156 24.394531 C 9.292969 24.394531 9.191406 24.4375 9.109375 24.519531 C 9.027344 24.605469 8.984375 24.703125 8.984375 24.820312 L 8.984375 24.996094 C 8.984375 25.113281 9.027344 25.214844 9.109375 25.296875 C 9.191406 25.378906 9.292969 25.421875 9.410156 25.421875 L 15.832031 25.421875 C 15.949219 25.421875 16.050781 25.378906 16.132812 25.296875 C 16.214844 25.214844 16.257812 25.113281 16.257812 24.996094 Z M 16.257812 24.820312 "/>
<path style=" stroke:none;fill-rule:nonzero;fill:rgb(0%,0%,0%);fill-opacity:0.2;" d="M 23.3125 24.699219 C 23.21875 24.605469 23.105469 24.558594 22.972656 24.558594 C 22.839844 24.558594 22.730469 24.605469 22.636719 24.699219 C 22.542969 24.792969 22.496094 24.902344 22.496094 25.035156 C 22.496094 25.167969 22.542969 25.277344 22.636719 25.371094 C 22.730469 25.464844 22.839844 25.511719 22.972656 25.511719 C 23.105469 25.511719 23.21875 25.464844 23.3125 25.371094 C 23.402344 25.277344 23.449219 25.167969 23.449219 25.035156 C 23.449219 24.902344 23.402344 24.792969 23.3125 24.699219 Z M 21.933594 25.035156 C 21.933594 24.902344 21.886719 24.792969 21.792969 24.699219 C 21.699219 24.605469 21.585938 24.558594 21.457031 24.558594 C 21.324219 24.558594 21.210938 24.605469 21.117188 24.699219 C 21.023438 24.792969 20.976562 24.902344 20.976562 25.035156 C 20.976562 25.167969 21.023438 25.277344 21.117188 25.371094 C 21.210938 25.464844 21.324219 25.511719 21.457031 25.511719 C 21.585938 25.511719 21.699219 25.464844 21.792969 25.371094 C 21.886719 25.277344 21.933594 25.167969 21.933594 25.035156 Z M 21.933594 25.035156 "/>
<path style=" stroke:none;fill-rule:nonzero;fill:rgb(100%,100%,100%);fill-opacity:0.0980392;" d="M 20.199219 18.949219 C 21.324219 17.828125 21.886719 16.472656 21.886719 14.882812 C 21.886719 13.292969 21.324219 11.9375 20.199219 10.8125 C 19.078125 9.6875 17.722656 9.128906 16.132812 9.128906 C 14.542969 9.128906 13.183594 9.6875 12.0625 10.8125 C 10.9375 11.9375 10.378906 13.292969 10.378906 14.882812 C 10.378906 16.472656 10.9375 17.828125 12.0625 18.949219 C 13.183594 20.074219 14.542969 20.636719 16.132812 20.636719 C 17.722656 20.636719 19.078125 20.074219 20.199219 18.949219 Z M 20.199219 18.949219 "/>
<path style=" stroke:none;fill-rule:nonzero;fill:rgb(80.000001%,80.000001%,0%);fill-opacity:1;" d="M 22.871094 25.300781 C 23.003906 25.300781 23.117188 25.253906 23.210938 25.160156 C 23.304688 25.066406 23.351562 24.953125 23.351562 24.824219 C 23.351562 24.691406 23.304688 24.578125 23.210938 24.484375 C 23.117188 24.390625 23.003906 24.34375 22.871094 24.34375 C 22.742188 24.34375 22.628906 24.390625 22.535156 24.484375 C 22.441406 24.578125 22.394531 24.691406 22.394531 24.824219 C 22.394531 24.953125 22.441406 25.066406 22.535156 25.160156 C 22.628906 25.253906 22.742188 25.300781 22.871094 25.300781 Z M 21.832031 24.824219 C 21.832031 24.691406 21.785156 24.578125 21.691406 24.484375 C 21.597656 24.390625 21.484375 24.34375 21.355469 24.34375 C 21.222656 24.34375 21.109375 24.390625 21.015625 24.484375 C 20.921875 24.578125 20.875 24.691406 20.875 24.824219 C 20.875 24.953125 20.921875 25.066406 21.015625 25.160156 C 21.109375 25.253906 21.222656 25.300781 21.355469 25.300781 C 21.484375 25.300781 21.597656 25.253906 21.691406 25.160156 C 21.785156 25.066406 21.832031 24.953125 21.832031 24.824219 Z M 21.832031 24.824219 "/>
<path style="fill-rule:evenodd;fill:rgb(100%,0%,0%);fill-opacity:1;stroke-width:5.108995;stroke-linecap:butt;stroke-linejoin:miter;stroke:rgb(91.37255%,4.313726%,4.313726%);stroke-opacity:1;stroke-miterlimit:4;" d="M 21.999231 8.998134 L 21.999231 22.00608 L 8.991286 22.00608 L 8.991286 25.994452 L 21.999231 25.994452 L 21.999231 39.002397 L 26.005898 39.002397 L 26.005898 25.994452 L 38.995548 25.994452 L 38.995548 22.00608 L 26.005898 22.00608 L 26.005898 8.998134 Z M 21.999231 8.998134 " transform="matrix(0.213511,0,0,0.213511,11.045102,9.778015)"/>
</g>
</svg>
