<!-- color: #3d3d3d -->
<svg xmlns="http://www.w3.org/2000/svg" xmlns:xlink="http://www.w3.org/1999/xlink" width="32px" height="32px" viewBox="0 0 32 32" version="1.1">
<g id="surface1">
<path style="fill-rule:nonzero;fill:rgb(18.431373%,30.980393%,30.980393%);fill-opacity:1;stroke-width:7.175204;stroke-linecap:butt;stroke-linejoin:miter;stroke:rgb(29.019609%,68.235296%,90.980393%);stroke-opacity:1;stroke-miterlimit:4;" d="M 19.578125 5.234375 L 108.421875 5.234375 C 116.34375 5.234375 122.765625 11.65625 122.765625 19.578125 L 122.765625 108.421875 C 122.765625 116.34375 116.34375 122.765625 108.421875 122.765625 L 19.578125 122.765625 C 11.65625 122.765625 5.234375 116.34375 5.234375 108.421875 L 5.234375 19.578125 C 5.234375 11.65625 11.65625 5.234375 19.578125 5.234375 Z M 19.578125 5.234375 " transform="matrix(0.25,0,0,0.25,0,0)"/>
<path style=" stroke:none;fill-rule:evenodd;fill:rgb(19.607843%,80.392158%,19.607843%);fill-opacity:1;" d="M 17.828125 6.425781 L 24.394531 12.332031 C 26.019531 13.796875 26.425781 16 25.292969 17.257812 L 17.859375 25.523438 C 16.730469 26.777344 14.496094 26.613281 12.867188 25.148438 L 6.300781 19.242188 C 4.675781 17.777344 4.269531 15.574219 5.402344 14.316406 L 12.835938 6.050781 C 13.964844 4.796875 16.199219 4.964844 17.828125 6.425781 Z M 17.828125 6.425781 "/>
<path style=" stroke:none;fill-rule:nonzero;fill:rgb(18.431373%,30.980393%,30.980393%);fill-opacity:1;" d="M 15.269531 29.441406 C 12.238281 28.695312 5.238281 22.011719 3.128906 17.863281 C 2.453125 16.527344 2.453125 15.761719 3.128906 14.421875 C 4.070312 12.574219 5.980469 10.203125 8.550781 7.710938 C 11.867188 4.488281 14.390625 2.835938 15.964844 2.835938 C 17.597656 2.835938 20.34375 4.683594 23.839844 8.136719 C 26.714844 10.980469 28.644531 13.597656 29.164062 15.34375 C 29.402344 16.160156 29.351562 16.667969 28.917969 17.65625 C 27.453125 20.992188 21.035156 27.476562 17.621094 29.074219 C 16.691406 29.503906 15.972656 29.621094 15.273438 29.449219 M 18.375 20.414062 C 21.71875 18.195312 24.507812 16.324219 24.574219 16.261719 C 24.652344 16.183594 24.582031 16.050781 24.378906 15.914062 C 23.898438 15.5625 21.347656 13.824219 18.398438 11.824219 C 16.949219 10.839844 15.605469 9.917969 15.398438 9.769531 L 15.03125 9.496094 C 14.363281 9.109375 13.191406 8.222656 12.699219 7.988281 C 12.488281 7.839844 12.28125 7.714844 12.238281 7.714844 C 12.191406 7.714844 12.15625 8.160156 12.15625 8.710938 C 12.15625 10.53125 12.15625 11.660156 12.15625 13.042969 C 12.15625 14.675781 12.191406 16.011719 12.238281 16.011719 C 12.347656 16.011719 12.949219 15.644531 14.71875 14.503906 C 17.160156 12.917969 16.832031 13.058594 17.386719 13.394531 C 18.425781 14.019531 20.652344 15.523438 20.9375 15.785156 C 21.484375 16.296875 21.835938 16 16.324219 19.691406 L 12.148438 22.496094 L 12.179688 23.46875 C 12.199219 24.007812 12.234375 24.449219 12.257812 24.449219 C 12.285156 24.449219 15.035156 22.628906 18.378906 20.414062 M 18.371094 20.417969 "/>
</g>
</svg>
