
<svg xmlns="http://www.w3.org/2000/svg" xmlns:xlink="http://www.w3.org/1999/xlink" width="32px" height="32px" viewBox="0 0 32 32" version="1.1">
<g id="surface1">
<path style="fill-rule:nonzero;fill:rgb(92.54902%,92.54902%,92.54902%);fill-opacity:1;stroke-width:7.034782;stroke-linecap:butt;stroke-linejoin:miter;stroke:rgb(3.529412%,55.29412%,92.156863%);stroke-opacity:1;stroke-miterlimit:4;" d="M 20.453125 6.390625 L 107.546875 6.390625 C 115.328125 6.390625 121.609375 12.671875 121.609375 20.453125 L 121.609375 107.546875 C 121.609375 115.328125 115.328125 121.609375 107.546875 121.609375 L 20.453125 121.609375 C 12.671875 121.609375 6.390625 115.328125 6.390625 107.546875 L 6.390625 20.453125 C 6.390625 12.671875 12.671875 6.390625 20.453125 6.390625 Z M 20.453125 6.390625 " transform="matrix(0.25,0,0,0.25,0,0)"/>
<path style=" stroke:none;fill-rule:nonzero;fill:rgb(0%,0%,0%);fill-opacity:0.101961;" d="M 13.6875 10.289062 L 13.6875 22.855469 L 23.113281 16.570312 M 16.828125 14.058594 C 18.355469 14.066406 19.339844 15.421875 19.34375 16.570312 C 19.34375 18.457031 17.457031 19.082031 16.828125 19.082031 L 16.828125 17.828125 C 18.9375 17.617188 18.246094 14.769531 16.199219 15.316406 L 16.199219 19.082031 L 14.945312 19.082031 L 14.945312 15.039062 C 14.945312 14.695312 15.574219 14.058594 16.828125 14.058594 M 16.828125 14.058594 "/>
<path style=" stroke:none;fill-rule:evenodd;fill:rgb(92.941177%,92.941177%,92.941177%);fill-opacity:1;" d="M 16.199219 6.519531 L 16.203125 6.519531 C 21.40625 6.519531 25.625 10.738281 25.625 15.941406 L 25.625 15.945312 C 25.625 21.148438 21.40625 25.367188 16.203125 25.367188 L 16.199219 25.367188 C 10.996094 25.367188 6.777344 21.148438 6.777344 15.945312 L 6.777344 15.941406 C 6.777344 10.738281 10.996094 6.519531 16.199219 6.519531 M 16.199219 6.519531 "/>
<path style=" stroke:none;fill-rule:nonzero;fill:rgb(3.529412%,55.29412%,92.156863%);fill-opacity:1;" d="M 8.636719 3.761719 L 8.636719 28.125 L 26.910156 15.941406 M 14.726562 11.070312 C 17.6875 11.085938 19.59375 13.714844 19.597656 15.941406 C 19.597656 19.597656 15.945312 20.816406 14.726562 20.816406 L 14.726562 18.378906 C 18.8125 17.96875 17.476562 12.445312 13.507812 13.507812 L 13.507812 20.816406 L 11.074219 20.816406 L 11.074219 12.972656 C 11.074219 12.308594 12.289062 11.070312 14.726562 11.070312 M 14.726562 11.070312 "/>
</g>
</svg>
