
<svg xmlns="http://www.w3.org/2000/svg" xmlns:xlink="http://www.w3.org/1999/xlink" width="32px" height="32px" viewBox="0 0 32 32" version="1.1">
<g id="surface1">
<path style="fill-rule:nonzero;fill:rgb(21.568628%,44.313726%,78.431374%);fill-opacity:1;stroke-width:7.013923;stroke-linecap:butt;stroke-linejoin:miter;stroke:rgb(29.019609%,68.235296%,90.980393%);stroke-opacity:1;stroke-miterlimit:4;" d="M 20.578125 6.546875 L 107.421875 6.546875 C 115.171875 6.546875 121.453125 12.828125 121.453125 20.578125 L 121.453125 107.421875 C 121.453125 115.171875 115.171875 121.453125 107.421875 121.453125 L 20.578125 121.453125 C 12.828125 121.453125 6.546875 115.171875 6.546875 107.421875 L 6.546875 20.578125 C 6.546875 12.828125 12.828125 6.546875 20.578125 6.546875 Z M 20.578125 6.546875 " transform="matrix(0.25,0,0,0.25,0,0)"/>
<path style=" stroke:none;fill-rule:nonzero;fill:rgb(0%,0%,0%);fill-opacity:0.101961;" d="M 13.6875 10.289062 L 13.6875 22.855469 L 23.113281 16.570312 M 16.828125 14.058594 C 18.355469 14.066406 19.339844 15.421875 19.34375 16.570312 C 19.34375 18.457031 17.457031 19.082031 16.828125 19.082031 L 16.828125 17.828125 C 18.9375 17.617188 18.246094 14.769531 16.199219 15.316406 L 16.199219 19.082031 L 14.945312 19.082031 L 14.945312 15.039062 C 14.945312 14.695312 15.574219 14.058594 16.828125 14.058594 M 16.828125 14.058594 "/>
<path style=" stroke:none;fill-rule:evenodd;fill:rgb(92.941177%,92.941177%,92.941177%);fill-opacity:1;" d="M 16.199219 6.519531 L 16.203125 6.519531 C 21.40625 6.519531 25.625 10.738281 25.625 15.941406 L 25.625 15.945312 C 25.625 21.148438 21.40625 25.367188 16.203125 25.367188 L 16.199219 25.367188 C 10.996094 25.367188 6.777344 21.148438 6.777344 15.945312 L 6.777344 15.941406 C 6.777344 10.738281 10.996094 6.519531 16.199219 6.519531 M 16.199219 6.519531 "/>
<path style=" stroke:none;fill-rule:nonzero;fill:rgb(3.529412%,55.29412%,92.156863%);fill-opacity:1;" d="M 13.058594 9.660156 L 13.058594 22.226562 L 22.484375 15.941406 M 16.199219 13.429688 C 17.726562 13.4375 18.710938 14.792969 18.714844 15.941406 C 18.714844 17.828125 16.828125 18.457031 16.199219 18.457031 L 16.199219 17.199219 C 18.308594 16.988281 17.621094 14.136719 15.574219 14.6875 L 15.574219 18.457031 L 14.316406 18.457031 L 14.316406 14.410156 C 14.316406 14.066406 14.945312 13.429688 16.199219 13.429688 M 16.199219 13.429688 "/>
</g>
</svg>
