
<svg xmlns="http://www.w3.org/2000/svg" xmlns:xlink="http://www.w3.org/1999/xlink" width="32px" height="32px" viewBox="0 0 32 32" version="1.1">
<g id="surface1">
<path style="fill-rule:nonzero;fill:rgb(20%,20%,20%);fill-opacity:1;stroke-width:28.191782;stroke-linecap:butt;stroke-linejoin:miter;stroke:rgb(29.019609%,68.235296%,90.196079%);stroke-opacity:1;stroke-miterlimit:4;" d="M 81.5 25.0625 L 430.5 25.0625 C 461.6875 25.0625 486.9375 50.3125 486.9375 81.5 L 486.9375 430.5 C 486.9375 461.6875 461.6875 486.9375 430.5 486.9375 L 81.5 486.9375 C 50.3125 486.9375 25.0625 461.6875 25.0625 430.5 L 25.0625 81.5 C 25.0625 50.3125 50.3125 25.0625 81.5 25.0625 Z M 81.5 25.0625 " transform="matrix(0.0625,0,0,0.0625,0,0)"/>
<path style=" stroke:none;fill-rule:nonzero;fill:rgb(100%,100%,100%);fill-opacity:1;" d="M 24.617188 16 C 24.617188 11.242188 20.757812 7.386719 16 7.386719 C 11.238281 7.386719 7.382812 11.242188 7.382812 16 C 7.382812 20.753906 11.238281 24.613281 16 24.613281 C 20.757812 24.613281 24.617188 20.753906 24.617188 16 Z M 24.617188 16 "/>
<path style=" stroke:none;fill-rule:nonzero;fill:rgb(20%,20%,20%);fill-opacity:1;" d="M 15.074219 25.941406 C 13.683594 25.816406 12.152344 25.320312 10.925781 24.59375 C 8.238281 23 6.5 20.355469 6.089844 17.230469 C 5.953125 16.175781 6.023438 14.777344 6.265625 13.75 C 6.523438 12.667969 7.058594 11.402344 7.628906 10.539062 C 9.304688 8 11.996094 6.367188 15.027344 6.054688 C 15.707031 5.984375 16.960938 6.027344 17.632812 6.144531 C 21.355469 6.777344 24.332031 9.339844 25.511719 12.917969 C 25.832031 13.886719 25.980469 14.863281 25.980469 16.003906 C 25.980469 17.210938 25.808594 18.210938 25.417969 19.34375 C 25.09375 20.273438 24.398438 21.519531 23.78125 22.273438 C 21.644531 24.878906 18.425781 26.234375 15.074219 25.941406 Z M 17.21875 22.144531 C 17.847656 22.015625 18.246094 21.878906 18.816406 21.589844 C 19.855469 21.074219 20.753906 20.246094 21.375 19.238281 C 22.046875 18.136719 22.375 16.722656 22.25 15.457031 C 22.09375 13.875 21.460938 12.558594 20.34375 11.480469 C 19.457031 10.628906 18.394531 10.074219 17.1875 9.832031 C 16.640625 9.722656 15.332031 9.722656 14.8125 9.832031 C 13.53125 10.105469 12.460938 10.675781 11.578125 11.566406 C 10.503906 12.640625 9.875 13.988281 9.753906 15.476562 L 9.71875 15.871094 L 9.171875 15.894531 C 8.683594 15.910156 8.625 15.921875 8.613281 15.996094 C 8.589844 16.105469 10.375 17.902344 10.507812 17.902344 C 10.621094 17.902344 12.472656 16.058594 12.441406 15.972656 C 12.425781 15.929688 12.273438 15.910156 11.804688 15.902344 L 11.183594 15.890625 L 11.183594 15.746094 C 11.183594 15.285156 11.441406 14.328125 11.699219 13.816406 C 12.179688 12.863281 13.140625 11.964844 14.109375 11.5625 C 14.761719 11.289062 15.199219 11.203125 15.949219 11.199219 C 16.667969 11.195312 16.90625 11.230469 17.503906 11.421875 C 18.242188 11.660156 18.832031 12.027344 19.40625 12.609375 C 20.359375 13.574219 20.804688 14.652344 20.804688 16 C 20.804688 16.847656 20.648438 17.496094 20.273438 18.21875 C 19.785156 19.152344 19.042969 19.867188 18.089844 20.324219 C 16.238281 21.210938 14.125 20.867188 12.628906 19.4375 C 12.476562 19.292969 12.335938 19.167969 12.316406 19.167969 C 12.296875 19.167969 12.066406 19.363281 11.800781 19.597656 C 11.496094 19.863281 11.316406 20.050781 11.316406 20.105469 C 11.316406 20.292969 12.273438 21.09375 12.957031 21.476562 C 13.582031 21.832031 14.511719 22.136719 15.246094 22.226562 C 15.753906 22.289062 16.691406 22.25 17.21875 22.144531 Z M 17.21875 22.144531 "/>
</g>
</svg>
