
<svg xmlns="http://www.w3.org/2000/svg" xmlns:xlink="http://www.w3.org/1999/xlink" width="32px" height="32px" viewBox="0 0 32 32" version="1.1">
<g id="surface1">
<path style="fill-rule:nonzero;fill:rgb(92.54902%,92.54902%,92.54902%);fill-opacity:1;stroke-width:2.67719;stroke-linecap:butt;stroke-linejoin:miter;stroke:rgb(0.392157%,1.960784%,3.137255%);stroke-opacity:1;stroke-miterlimit:4;" d="M 391.99527 501.872223 L 425.147614 501.872223 C 428.100739 501.872223 430.497223 504.268707 430.497223 507.221832 L 430.497223 540.374176 C 430.497223 543.327301 428.100739 545.723785 425.147614 545.723785 L 391.99527 545.723785 C 389.042145 545.723785 386.64566 543.327301 386.64566 540.374176 L 386.64566 507.221832 C 386.64566 504.268707 389.042145 501.872223 391.99527 501.872223 Z M 391.99527 501.872223 " transform="matrix(0.666667,0,0,0.666667,-256.380961,-333.198669)"/>
<path style=" stroke:none;fill-rule:nonzero;fill:rgb(100%,100%,100%);fill-opacity:0.537255;" d="M 1.6875 0.4375 C 1.074219 0.4375 0.574219 0.863281 0.457031 1.4375 C 0.683594 1.25 0.972656 1.144531 1.292969 1.144531 L 30.707031 1.144531 C 31.027344 1.144531 31.316406 1.25 31.542969 1.4375 C 31.425781 0.863281 30.925781 0.4375 30.3125 0.4375 Z M 1.6875 0.4375 "/>
<path style=" stroke:none;fill-rule:nonzero;fill:rgb(20%,20%,20%);fill-opacity:1;" d="M 24.355469 2.625 C 23.324219 2.671875 22.144531 3.148438 21.195312 3.925781 C 20.03125 4.882812 19.082031 7.308594 19.339844 8.664062 C 19.46875 9.359375 19.996094 10.210938 20.5 10.476562 C 21.4375 10.964844 23.148438 10.144531 24.722656 8.476562 C 26.429688 6.667969 27.210938 4.683594 26.628906 3.554688 C 26.269531 2.863281 25.382812 2.558594 24.355469 2.625 Z M 15.949219 3.691406 C 14.515625 3.691406 13.761719 4.703125 13.765625 6.621094 C 13.769531 7.933594 14.230469 9.117188 14.832031 9.40625 C 15.28125 9.625 15.292969 9.601562 15.855469 9.40625 C 16.785156 9.078125 17.660156 6.910156 17.480469 5.457031 C 17.332031 4.269531 16.820312 3.691406 15.949219 3.691406 Z M 10.28125 5.644531 C 10.011719 5.667969 9.746094 5.855469 9.492188 6.105469 C 8.980469 6.621094 8.976562 6.898438 8.980469 7.871094 C 8.988281 9.019531 9.269531 9.652344 10.050781 10.476562 C 10.632812 11.085938 11.054688 11.125 11.582031 10.535156 C 12.152344 9.933594 12.332031 8.980469 12.140625 7.9375 C 11.847656 6.347656 11.085938 5.5 10.28125 5.617188 Z M 6.289062 9.125 C 6.011719 9.15625 5.761719 9.332031 5.5 9.59375 C 4.8125 10.277344 5.292969 12.167969 6.378906 13.117188 C 7.679688 14.261719 8.730469 13.183594 8.285156 11.214844 C 7.96875 9.792969 7.121094 8.988281 6.289062 9.125 Z M 18.222656 11.636719 C 17.300781 11.621094 16.273438 11.675781 15.207031 11.910156 C 12.453125 12.472656 10.253906 13.511719 8.84375 14.929688 C 8.027344 15.75 7.566406 16.503906 7.171875 17.667969 C 6.214844 20.488281 7.984375 24.496094 11.347656 27.238281 C 12.605469 28.253906 13.371094 28.710938 14.648438 29.136719 C 15.308594 29.359375 15.835938 29.410156 17.0625 29.371094 C 18.46875 29.339844 18.753906 29.296875 19.664062 28.816406 C 20.992188 28.15625 22.5 26.644531 23.144531 25.332031 C 23.539062 24.535156 23.601562 24.191406 23.5625 23.519531 C 23.496094 22.375 23.054688 22.070312 21.613281 22.078125 C 19.554688 22.089844 18.691406 22.578125 18.269531 24.03125 C 17.949219 25.128906 17.597656 25.519531 16.878906 25.519531 C 15.734375 25.519531 14.554688 24.609375 14.554688 23.660156 C 14.554688 23.003906 15.617188 22.019531 18.269531 20.222656 C 22.003906 17.695312 23.289062 16.160156 23.097656 14.46875 C 22.902344 12.714844 20.984375 11.683594 18.222656 11.636719 Z M 18.222656 11.636719 "/>
</g>
</svg>
