
<svg xmlns="http://www.w3.org/2000/svg" xmlns:xlink="http://www.w3.org/1999/xlink" width="32px" height="32px" viewBox="0 0 32 32" version="1.1">
<g id="surface1">
<path style="fill-rule:nonzero;fill:rgb(92.54902%,92.54902%,92.54902%);fill-opacity:1;stroke-width:2.67719;stroke-linecap:butt;stroke-linejoin:miter;stroke:rgb(57.647061%,85.490197%,11.372549%);stroke-opacity:1;stroke-miterlimit:4;" d="M 391.99527 501.872223 L 425.147614 501.872223 C 428.100739 501.872223 430.497223 504.268707 430.497223 507.221832 L 430.497223 540.374176 C 430.497223 543.327301 428.100739 545.723785 425.147614 545.723785 L 391.99527 545.723785 C 389.042145 545.723785 386.64566 543.327301 386.64566 540.374176 L 386.64566 507.221832 C 386.64566 504.268707 389.042145 501.872223 391.99527 501.872223 Z M 391.99527 501.872223 " transform="matrix(0.666667,0,0,0.666667,-256.380961,-333.198669)"/>
<path style=" stroke:none;fill-rule:evenodd;fill:rgb(63.921571%,85.882354%,7.450981%);fill-opacity:1;" d="M 16.046875 2.667969 C 11.816406 2.667969 8.066406 4.671875 5.644531 7.769531 L 7.300781 8.828125 C 9.375 6.28125 12.542969 4.660156 16.070312 4.660156 C 22.3125 4.660156 27.378906 9.738281 27.378906 16.003906 C 27.378906 22.261719 22.3125 27.339844 16.070312 27.339844 C 12.554688 27.339844 9.398438 25.726562 7.324219 23.191406 L 5.664062 24.253906 C 8.097656 27.339844 11.835938 29.332031 16.066406 29.332031 C 23.394531 29.332031 29.332031 23.363281 29.332031 16.003906 C 29.332031 8.644531 23.386719 2.675781 16.066406 2.675781 M 2.667969 8.222656 L 2.667969 23.773438 L 16.144531 15.917969 M 16.046875 7.875 C 13.660156 7.875 11.519531 8.910156 10.03125 10.558594 L 11.753906 11.632812 C 12.859375 10.535156 14.375 9.863281 16.050781 9.863281 C 19.4375 9.863281 22.1875 12.640625 22.1875 16.058594 C 22.1875 19.480469 19.441406 22.261719 16.050781 22.261719 C 14.347656 22.261719 12.808594 21.5625 11.695312 20.429688 L 10.035156 21.488281 C 11.523438 23.132812 13.660156 24.167969 16.050781 24.167969 C 20.535156 24.167969 24.171875 20.515625 24.171875 16.019531 C 24.171875 11.519531 20.535156 7.871094 16.050781 7.871094 M 16.046875 7.875 "/>
</g>
</svg>
