
<svg xmlns="http://www.w3.org/2000/svg" xmlns:xlink="http://www.w3.org/1999/xlink" width="32px" height="32px" viewBox="0 0 32 32" version="1.1">
<g id="surface1">
<path style="fill-rule:nonzero;fill:rgb(92.54902%,92.54902%,92.54902%);fill-opacity:1;stroke-width:2.67719;stroke-linecap:butt;stroke-linejoin:miter;stroke:rgb(5.490196%,31.764707%,53.725493%);stroke-opacity:1;stroke-miterlimit:4;" d="M 391.99527 501.872223 L 425.147614 501.872223 C 428.100739 501.872223 430.497223 504.268707 430.497223 507.221832 L 430.497223 540.374176 C 430.497223 543.327301 428.100739 545.723785 425.147614 545.723785 L 391.99527 545.723785 C 389.042145 545.723785 386.64566 543.327301 386.64566 540.374176 L 386.64566 507.221832 C 386.64566 504.268707 389.042145 501.872223 391.99527 501.872223 Z M 391.99527 501.872223 " transform="matrix(0.666667,0,0,0.666667,-256.380961,-333.198669)"/>
<path style=" stroke:none;fill-rule:nonzero;fill:rgb(21.568628%,38.82353%,63.921571%);fill-opacity:1;" d="M 22.648438 12.960938 C 21.011719 11.058594 19.542969 9.832031 17.363281 13.027344 C 16.058594 14.929688 8.277344 25.835938 6.851562 27.574219 C 6.433594 28.074219 6.191406 28.425781 5.871094 28.632812 C 5.871094 27.941406 11.25 19.175781 12.753906 16.636719 C 14.5625 13.585938 14.503906 13.761719 14.289062 13.761719 C 13.980469 13.761719 13.359375 14.226562 12.410156 15.269531 C 10.683594 17.164062 5.5625 24.234375 5.207031 24.128906 C 5.328125 23.613281 9.339844 17.285156 11.15625 14.667969 C 12.722656 12.414062 12.121094 12.238281 11.226562 12.460938 C 7.398438 13.402344 2.816406 15.671875 2.667969 15.589844 C 2.722656 15.472656 18.097656 4.347656 20.152344 4.136719 C 20.394531 4.109375 20.894531 3.671875 21.792969 3.300781 C 22.769531 2.910156 23.425781 2.582031 23.589844 2.6875 C 22.875 3.714844 22.503906 3.921875 22.492188 4.253906 C 22.484375 4.792969 22.296875 5.671875 22.089844 5.953125 C 26.066406 8.679688 27.613281 17.964844 28.746094 25.433594 C 29.015625 27.207031 29.269531 28.542969 29.332031 29.332031 C 28.996094 28.441406 25.824219 16.644531 22.644531 12.957031 M 22.644531 12.957031 "/>
<path style=" stroke:none;fill-rule:nonzero;fill:rgb(16.862746%,27.450982%,47.843137%);fill-opacity:0.313725;" d="M 23.378906 2.683594 C 23.269531 2.707031 23.121094 2.761719 22.953125 2.828125 C 22.667969 3.171875 22.5 3.351562 22.492188 3.558594 C 22.484375 4.101562 22.296875 4.980469 22.089844 5.261719 C 22.160156 5.308594 22.230469 5.378906 22.300781 5.433594 C 22.410156 5.058594 22.488281 4.59375 22.492188 4.253906 C 22.503906 3.921875 22.875 3.714844 23.589844 2.6875 C 23.550781 2.660156 23.476562 2.660156 23.378906 2.683594 Z M 19.886719 10.367188 C 19.132812 10.386719 18.316406 10.9375 17.363281 12.339844 C 16.058594 14.238281 8.277344 25.144531 6.847656 26.878906 C 6.691406 27.070312 6.574219 27.214844 6.453125 27.363281 C 6.117188 27.996094 5.875 28.496094 5.875 28.632812 C 6.191406 28.425781 6.433594 28.074219 6.847656 27.574219 C 8.277344 25.835938 16.058594 14.933594 17.363281 13.03125 C 19.542969 9.832031 21.011719 11.058594 22.648438 12.957031 L 22.644531 12.957031 C 25.820312 16.644531 29 28.441406 29.332031 29.332031 C 29.308594 29.019531 29.234375 28.558594 29.160156 28.078125 C 28.542969 26.105469 25.636719 15.738281 22.644531 12.265625 L 22.648438 12.269531 C 21.730469 11.199219 20.859375 10.34375 19.886719 10.367188 Z M 11.8125 11.703125 C 11.65625 11.683594 11.449219 11.714844 11.226562 11.769531 C 8.929688 12.332031 6.472656 13.332031 4.753906 14.058594 C 3.644531 14.863281 2.679688 15.566406 2.667969 15.589844 C 2.816406 15.671875 7.398438 13.402344 11.226562 12.460938 C 11.566406 12.375 11.863281 12.351562 12.015625 12.472656 C 12.207031 11.957031 12.097656 11.738281 11.8125 11.703125 Z M 14.359375 13.070312 C 14.339844 13.066406 14.316406 13.070312 14.289062 13.070312 C 13.980469 13.070312 13.359375 13.535156 12.410156 14.574219 C 11.074219 16.042969 7.734375 20.566406 6.113281 22.507812 C 5.605469 23.347656 5.238281 23.984375 5.207031 24.128906 C 5.5625 24.234375 10.683594 17.164062 12.410156 15.269531 C 13.113281 14.496094 13.636719 14.046875 13.984375 13.863281 C 14.257812 13.390625 14.429688 13.074219 14.359375 13.070312 Z M 14.359375 13.070312 "/>
</g>
</svg>
