
<svg xmlns="http://www.w3.org/2000/svg" xmlns:xlink="http://www.w3.org/1999/xlink" width="32px" height="32px" viewBox="0 0 32 32" version="1.1">
<g id="surface1">
<path style="fill-rule:nonzero;fill:rgb(92.54902%,92.54902%,92.54902%);fill-opacity:1;stroke-width:2.67719;stroke-linecap:butt;stroke-linejoin:miter;stroke:rgb(43.921569%,5.490196%,38.82353%);stroke-opacity:1;stroke-miterlimit:4;" d="M 391.99527 501.872223 L 425.147614 501.872223 C 428.100739 501.872223 430.497223 504.268707 430.497223 507.221832 L 430.497223 540.374176 C 430.497223 543.327301 428.100739 545.723785 425.147614 545.723785 L 391.99527 545.723785 C 389.042145 545.723785 386.64566 543.327301 386.64566 540.374176 L 386.64566 507.221832 C 386.64566 504.268707 389.042145 501.872223 391.99527 501.872223 Z M 391.99527 501.872223 " transform="matrix(0.666667,0,0,0.666667,-256.380961,-333.198669)"/>
<path style=" stroke:none;fill-rule:nonzero;fill:rgb(61.56863%,22.352941%,43.529412%);fill-opacity:1;" d="M 5.769531 3.355469 L 5.769531 17.238281 C 5.769531 18.925781 5.960938 20.445312 6.316406 21.835938 C 6.675781 23.199219 7.261719 24.402344 8.074219 25.410156 C 8.882812 26.425781 9.921875 27.191406 11.253906 27.761719 C 12.589844 28.300781 14.242188 28.558594 16.191406 28.558594 C 18.433594 28.558594 20.425781 28.472656 22.117188 28.1875 C 23.839844 27.902344 25.1875 27.585938 26.230469 27.332031 L 26.230469 3.351562 L 22.136719 3.351562 L 22.136719 24.140625 C 21.980469 24.207031 21.242188 24.332031 20.855469 24.394531 C 20.496094 24.429688 20.109375 24.488281 19.648438 24.554688 C 19.191406 24.582031 18.738281 24.628906 18.222656 24.664062 C 17.703125 24.691406 17.175781 24.714844 16.683594 24.714844 C 14.378906 24.714844 12.722656 24.039062 11.746094 22.738281 C 10.773438 21.441406 9.855469 19.375 9.855469 16.371094 L 9.855469 3.347656 M 5.769531 3.359375 "/>
</g>
</svg>
