<!-- color: #45a9f9 -->
<svg xmlns="http://www.w3.org/2000/svg" xmlns:xlink="http://www.w3.org/1999/xlink" width="32px" height="32px" viewBox="0 0 32 32" version="1.1">
<defs>
<clipPath id="clip1">
  <path d="M 2.5625 2.5625 L 29.4375 2.5625 L 29.4375 29.4375 L 2.5625 29.4375 Z M 2.5625 2.5625 "/>
</clipPath>
<clipPath id="clip2">
  <path d="M 41.710938 15.996094 C 41.710938 30.203125 30.191406 41.707031 16 41.707031 C 1.808594 41.707031 -9.707031 30.203125 -9.707031 15.996094 C -9.707031 1.792969 1.808594 -9.714844 16 -9.714844 C 30.191406 -9.714844 41.710938 1.792969 41.710938 15.996094 Z M 41.710938 15.996094 "/>
</clipPath>
<linearGradient id="linear0" gradientUnits="userSpaceOnUse" x1="11.994687" y1="24.005501" x2="36" y2="24.005501" gradientTransform="matrix(0,-1.117837,1.117837,0,-10.826878,42.825592)">
<stop offset="0" style="stop-color:rgb(19.607843%,63.529414%,97.254902%);stop-opacity:1;"/>
<stop offset="1" style="stop-color:rgb(27.058825%,66.274512%,97.647059%);stop-opacity:1;"/>
</linearGradient>
</defs>
<g id="surface1">
<path style="fill-rule:nonzero;fill:rgb(92.54902%,92.54902%,92.54902%);fill-opacity:1;stroke-width:2.67719;stroke-linecap:butt;stroke-linejoin:miter;stroke:rgb(44.705883%,72.156864%,92.941177%);stroke-opacity:1;stroke-miterlimit:4;" d="M 7.423828 2.074219 L 40.576172 2.074219 C 43.529297 2.074219 45.925781 4.470703 45.925781 7.423828 L 45.925781 40.576172 C 45.925781 43.529297 43.529297 45.925781 40.576172 45.925781 L 7.423828 45.925781 C 4.470703 45.925781 2.074219 43.529297 2.074219 40.576172 L 2.074219 7.423828 C 2.074219 4.470703 4.470703 2.074219 7.423828 2.074219 Z M 7.423828 2.074219 " transform="matrix(0.666667,0,0,0.666667,0,0)"/>
<g clip-path="url(#clip1)" clip-rule="nonzero">
<g clip-path="url(#clip2)" clip-rule="nonzero">
<path style=" stroke:none;fill-rule:evenodd;fill:url(#linear0);" d="M 18.136719 2.582031 L 13.472656 2.917969 L 13.472656 21.488281 L 18.136719 20.921875 L 18.136719 12.816406 C 20.160156 15.863281 21.785156 18.707031 24.488281 21.65625 L 29.320312 20.269531 C 26.734375 17.269531 24.800781 14.632812 23.039062 11.757812 C 24.875 9.054688 27.171875 6.339844 29.414062 3.910156 L 24.410156 2.683594 C 22.074219 5.316406 19.996094 8.035156 18.136719 10.769531 M 7.511719 6.394531 C 7.445312 6.402344 7.367188 6.441406 7.308594 6.503906 C 6.757812 7.023438 6.238281 7.542969 5.691406 8.0625 C 5.449219 8.292969 5.695312 8.570312 5.800781 8.761719 L 6.910156 10.292969 L 7.738281 11.410156 C 7.855469 11.574219 7.894531 11.589844 7.832031 11.707031 C 7.757812 11.824219 7.695312 11.917969 7.625 12.035156 C 6.546875 13.847656 7.300781 13.988281 4.992188 14.578125 L 3.222656 14.871094 C 2.964844 14.957031 2.621094 14.949219 2.605469 15.3125 C 2.605469 16.046875 2.582031 16.777344 2.582031 17.503906 C 2.566406 17.839844 2.941406 17.871094 3.167969 17.925781 L 5.050781 18.253906 L 6.457031 18.511719 C 6.652344 18.539062 6.695312 18.496094 6.738281 18.636719 C 7.316406 21.070312 8.070312 20.511719 6.8125 22.636719 L 5.800781 24.050781 C 5.664062 24.292969 5.414062 24.535156 5.667969 24.785156 C 6.203125 25.3125 6.714844 25.84375 7.25 26.371094 C 7.484375 26.605469 7.792969 26.367188 7.980469 26.261719 L 9.542969 25.179688 L 10.707031 24.394531 C 10.871094 24.261719 10.890625 24.230469 11.011719 24.300781 C 13.347656 25.730469 13.429688 24.699219 14.109375 27.101562 L 14.445312 28.820312 C 14.535156 29.078125 14.542969 29.410156 14.902344 29.425781 L 17.167969 29.425781 C 17.511719 29.425781 17.542969 29.035156 17.585938 28.820312 L 17.902344 26.992188 L 18.128906 25.636719 C 18.144531 25.507812 18.140625 25.441406 18.164062 25.398438 C 20.902344 24.832031 20.222656 24.039062 22.449219 25.304688 L 23.894531 26.292969 C 24.160156 26.425781 24.414062 26.652344 24.667969 26.40625 C 25.203125 25.902344 25.738281 25.390625 26.273438 24.886719 C 26.515625 24.644531 26.277344 24.363281 26.164062 24.175781 L 26.144531 24.175781 L 25.089844 22.730469 L 24.394531 22.964844 C 24.214844 23.082031 23.980469 23.039062 23.769531 22.765625 L 22.253906 20.808594 C 20.832031 22.722656 18.535156 23.957031 15.933594 23.957031 C 11.652344 23.957031 8.152344 20.554688 8.152344 16.378906 C 8.152344 13.417969 9.917969 10.847656 12.476562 9.605469 L 12.476562 7.863281 C 12.386719 7.910156 12.289062 7.929688 12.214844 7.957031 C 11.214844 8.363281 11.148438 8.542969 9.511719 7.628906 L 8.066406 6.625 C 7.863281 6.535156 7.683594 6.371094 7.503906 6.414062 M 12.464844 10.308594 C 10.292969 11.503906 8.816406 13.796875 8.816406 16.402344 C 8.816406 20.25 12.039062 23.394531 16.003906 23.394531 C 18.453125 23.394531 20.601562 22.183594 21.898438 20.347656 L 21.828125 20.199219 C 20.308594 21.839844 18.589844 22.90625 15.980469 22.964844 C 12.730469 23.019531 9.433594 20.199219 9.417969 16.480469 C 9.394531 14.085938 10.527344 12.472656 12.460938 11.324219 L 12.460938 10.316406 M 12.464844 10.316406 "/>
</g>
</g>
</g>
</svg>
