
<svg xmlns="http://www.w3.org/2000/svg" xmlns:xlink="http://www.w3.org/1999/xlink" width="32px" height="32px" viewBox="0 0 32 32" version="1.1">
<g id="surface1">
<path style="fill-rule:nonzero;fill:rgb(100%,100%,100%);fill-opacity:1;stroke-width:6.815335;stroke-linecap:butt;stroke-linejoin:miter;stroke:rgb(29.019609%,68.235296%,90.980393%);stroke-opacity:1;stroke-miterlimit:4;" d="M 21.8125 932.534098 L 106.1875 932.534098 C 113.71875 932.534098 119.828125 938.643473 119.828125 946.174723 L 119.828125 1030.549723 C 119.828125 1038.080973 113.71875 1044.190348 106.1875 1044.190348 L 21.8125 1044.190348 C 14.28125 1044.190348 8.171875 1038.080973 8.171875 1030.549723 L 8.171875 946.174723 C 8.171875 938.643473 14.28125 932.534098 21.8125 932.534098 Z M 21.8125 932.534098 " transform="matrix(0.25,0,0,0.25,0,-231.090556)"/>
<path style=" stroke:none;fill-rule:nonzero;fill:rgb(0%,50.196081%,86.274511%);fill-opacity:1;" d="M 16.019531 4.378906 C 9.617188 4.378906 4.425781 9.574219 4.425781 15.980469 C 4.425781 22.382812 9.617188 27.574219 16.019531 27.574219 C 22.425781 27.574219 27.621094 22.382812 27.621094 15.980469 C 27.621094 9.574219 22.425781 4.378906 16.019531 4.378906 Z M 16.019531 14.730469 C 16.707031 14.730469 17.269531 15.292969 17.269531 15.980469 C 17.269531 16.664062 16.707031 17.222656 16.019531 17.222656 C 15.335938 17.222656 14.777344 16.664062 14.777344 15.980469 C 14.777344 15.292969 15.335938 14.730469 16.019531 14.730469 Z M 16.019531 14.730469 "/>
<path style=" stroke:none;fill-rule:nonzero;fill:rgb(18.82353%,66.274512%,100%);fill-opacity:1;" d="M 16.019531 4.746094 C 9.816406 4.746094 4.785156 9.773438 4.785156 15.980469 C 4.785156 22.183594 9.816406 27.214844 16.019531 27.214844 C 22.226562 27.214844 27.257812 22.183594 27.257812 15.980469 C 27.257812 9.773438 22.226562 4.746094 16.019531 4.746094 Z M 16.019531 14.730469 C 16.707031 14.730469 17.269531 15.292969 17.269531 15.980469 C 17.269531 16.664062 16.707031 17.222656 16.019531 17.222656 C 15.335938 17.222656 14.777344 16.664062 14.777344 15.980469 C 14.777344 15.292969 15.335938 14.730469 16.019531 14.730469 Z M 16.019531 14.730469 "/>
<path style=" stroke:none;fill-rule:nonzero;fill:rgb(41.960785%,75.686276%,100%);fill-opacity:1;" d="M 16.019531 5.308594 C 10.132812 5.308594 5.355469 10.089844 5.355469 15.980469 C 5.355469 21.867188 10.132812 26.644531 16.019531 26.644531 C 21.910156 26.644531 26.691406 21.867188 26.691406 15.980469 C 26.691406 10.089844 21.910156 5.308594 16.019531 5.308594 Z M 16.019531 14.730469 C 16.707031 14.730469 17.269531 15.292969 17.269531 15.980469 C 17.269531 16.664062 16.707031 17.222656 16.019531 17.222656 C 15.335938 17.222656 14.777344 16.664062 14.777344 15.980469 C 14.777344 15.292969 15.335938 14.730469 16.019531 14.730469 Z M 16.019531 14.730469 "/>
<path style="fill-rule:nonzero;fill:rgb(82.745099%,83.529413%,84.313726%);fill-opacity:1;stroke-width:0.763027;stroke-linecap:butt;stroke-linejoin:miter;stroke:rgb(100%,100%,100%);stroke-opacity:1;stroke-miterlimit:4;" d="M 64.078125 974.596598 C 56.546875 974.596598 50.40625 980.721598 50.40625 988.284098 C 50.40625 995.815348 56.546875 1001.955973 64.078125 1001.955973 C 71.640625 1001.955973 77.765625 995.815348 77.765625 988.284098 C 77.765625 980.721598 71.640625 974.596598 64.078125 974.596598 Z M 64.078125 983.284098 C 66.828125 983.284098 69.078125 985.534098 69.078125 988.284098 C 69.078125 991.018473 66.828125 993.252848 64.078125 993.252848 C 61.34375 993.252848 59.109375 991.018473 59.109375 988.284098 C 59.109375 985.534098 61.34375 983.284098 64.078125 983.284098 Z M 64.078125 983.284098 " transform="matrix(0.25,0,0,0.25,0,-231.090556)"/>
<path style=" stroke:none;fill-rule:nonzero;fill:rgb(87.843138%,87.843138%,88.627452%);fill-opacity:1;" d="M 16.019531 13.285156 C 14.535156 13.285156 13.324219 14.492188 13.324219 15.980469 C 13.324219 17.464844 14.535156 18.675781 16.019531 18.675781 C 17.507812 18.675781 18.714844 17.464844 18.714844 15.980469 C 18.714844 14.492188 17.507812 13.285156 16.019531 13.285156 Z M 16.019531 14.730469 C 16.707031 14.730469 17.269531 15.292969 17.269531 15.980469 C 17.269531 16.664062 16.707031 17.222656 16.019531 17.222656 C 15.335938 17.222656 14.777344 16.664062 14.777344 15.980469 C 14.777344 15.292969 15.335938 14.730469 16.019531 14.730469 Z M 16.019531 14.730469 "/>
</g>
</svg>
