
<svg xmlns="http://www.w3.org/2000/svg" xmlns:xlink="http://www.w3.org/1999/xlink" width="32px" height="32px" viewBox="0 0 32 32" version="1.1">
<g id="surface1">
<path style="fill-rule:nonzero;fill:rgb(83.137256%,0%,0%);fill-opacity:1;stroke-width:28.191782;stroke-linecap:butt;stroke-linejoin:miter;stroke:rgb(13.333334%,21.176471%,33.725491%);stroke-opacity:1;stroke-miterlimit:4;" d="M 81.5 25.0625 L 430.5 25.0625 C 461.6875 25.0625 486.9375 50.3125 486.9375 81.5 L 486.9375 430.5 C 486.9375 461.6875 461.6875 486.9375 430.5 486.9375 L 81.5 486.9375 C 50.3125 486.9375 25.0625 461.6875 25.0625 430.5 L 25.0625 81.5 C 25.0625 50.3125 50.3125 25.0625 81.5 25.0625 Z M 81.5 25.0625 " transform="matrix(0.0625,0,0,0.0625,0,0)"/>
<path style=" stroke:none;fill-rule:nonzero;fill:rgb(100%,78.431374%,17.647059%);fill-opacity:1;" d="M 20.253906 2.417969 L 25.824219 2.417969 L 25.824219 10.152344 L 23.039062 7.339844 L 20.253906 10.152344 Z M 20.253906 2.417969 "/>
<path style=" stroke:none;fill-rule:nonzero;fill:rgb(13.333334%,21.176471%,33.725491%);fill-opacity:1;" d="M 2.25 2.222656 L 7.152344 2.222656 L 7.152344 29.777344 L 2.25 29.777344 Z M 2.25 2.222656 "/>
<path style=" stroke:none;fill-rule:nonzero;fill:rgb(100%,100%,100%);fill-opacity:1;" d="M 22.085938 15.878906 C 22.085938 17.960938 21.488281 19.558594 20.292969 20.667969 C 19.105469 21.773438 17.386719 22.328125 15.136719 22.328125 L 11.539062 22.328125 L 11.539062 9.671875 L 15.53125 9.671875 C 17.605469 9.671875 19.214844 10.214844 20.363281 11.308594 C 21.511719 12.398438 22.085938 13.921875 22.085938 15.878906 M 19.285156 15.949219 C 19.285156 13.230469 18.082031 11.871094 15.667969 11.871094 L 14.234375 11.871094 L 14.234375 20.113281 L 15.390625 20.113281 C 17.988281 20.113281 19.285156 18.722656 19.285156 15.949219 "/>
</g>
</svg>
