
<svg xmlns="http://www.w3.org/2000/svg" xmlns:xlink="http://www.w3.org/1999/xlink" width="32px" height="32px" viewBox="0 0 32 32" version="1.1">
<g id="surface1">
<path style="fill-rule:nonzero;fill:rgb(100%,100%,100%);fill-opacity:1;stroke-width:6.815335;stroke-linecap:butt;stroke-linejoin:miter;stroke:rgb(29.019609%,68.235296%,90.980393%);stroke-opacity:1;stroke-miterlimit:4;" d="M 21.8125 8.171875 L 106.1875 8.171875 C 113.71875 8.171875 119.828125 14.28125 119.828125 21.8125 L 119.828125 106.1875 C 119.828125 113.71875 113.71875 119.828125 106.1875 119.828125 L 21.8125 119.828125 C 14.28125 119.828125 8.171875 113.71875 8.171875 106.1875 L 8.171875 21.8125 C 8.171875 14.28125 14.28125 8.171875 21.8125 8.171875 Z M 21.8125 8.171875 " transform="matrix(0.25,0,0,0.25,0,0)"/>
<path style=" stroke:none;fill-rule:nonzero;fill:rgb(100%,58.039218%,3.529412%);fill-opacity:1;" d="M 15.769531 11.042969 L 12.261719 18.0625 L 19.28125 18.0625 M 15.769531 13.449219 L 17.523438 16.957031 L 14.011719 16.957031 L 15.769531 13.449219 M 15.769531 13.449219 "/>
<path style=" stroke:none;fill-rule:nonzero;fill:rgb(80.000001%,80.000001%,80.000001%);fill-opacity:1;" d="M 9.183594 5.21875 L 9.183594 7.308594 L 7.433594 7.269531 L 7.433594 9.335938 L 9.183594 9.378906 L 9.183594 21.660156 L 7.433594 21.628906 L 7.433594 23.691406 L 9.183594 23.730469 L 9.183594 25.058594 L 8.308594 25.058594 L 9.625 26.925781 L 10.941406 25.058594 L 10.0625 25.058594 L 10.0625 23.730469 L 16.203125 23.691406 C 21.058594 23.660156 24.972656 20.035156 24.972656 15.484375 C 24.972656 10.933594 21.058594 7.269531 16.203125 7.269531 L 10.0625 7.308594 L 10.0625 5.21875 M 10.0625 9.378906 L 16.203125 9.335938 C 19.878906 9.304688 22.769531 12.042969 22.769531 15.484375 C 22.769531 18.929688 19.878906 21.632812 16.203125 21.632812 L 10.0625 21.664062 M 10.0625 9.386719 "/>
<path style=" stroke:none;fill-rule:nonzero;fill:rgb(0%,50.196081%,50.196081%);fill-opacity:1;" d="M 8.390625 6.972656 L 10.769531 6.972656 L 10.769531 9.703125 L 8.390625 9.703125 M 8.390625 6.972656 "/>
</g>
</svg>
