
<svg xmlns="http://www.w3.org/2000/svg" xmlns:xlink="http://www.w3.org/1999/xlink" width="32px" height="32px" viewBox="0 0 32 32" version="1.1">
<defs>
<clipPath id="clip1">
  <path d="M 3.332031 9 L 26.667969 9 L 26.667969 18.667969 L 3.332031 18.667969 Z M 3.332031 9 "/>
</clipPath>
<clipPath id="clip2">
  <path d="M 16.019531 1.535156 L 28.347656 13.867188 L 16.019531 26.199219 L 3.691406 13.867188 Z M 16.019531 1.535156 "/>
</clipPath>
<clipPath id="clip3">
  <path d="M 27.78125 25.597656 C 21.277344 32.097656 10.742188 32.09375 4.246094 25.597656 C -2.25 19.101562 -2.257812 8.5625 4.246094 2.058594 C 10.746094 -4.441406 21.285156 -4.433594 27.78125 2.058594 C 34.277344 8.558594 34.285156 19.097656 27.78125 25.597656 Z M 27.78125 25.597656 "/>
</clipPath>
</defs>
<g id="surface1">
<path style="fill-rule:nonzero;fill:rgb(15.686275%,49.803922%,72.156864%);fill-opacity:1;stroke-width:26.5331;stroke-linecap:butt;stroke-linejoin:miter;stroke:rgb(20.784314%,20%,21.960784%);stroke-opacity:1;stroke-miterlimit:4;" d="M 84.0625 38.6875 L 412.5625 38.6875 C 441.875 38.6875 465.6875 62.4375 465.6875 91.75 L 465.6875 420.25 C 465.6875 449.5625 441.875 473.3125 412.5625 473.3125 L 84.0625 473.3125 C 54.8125 473.3125 31 449.5625 31 420.25 L 31 91.75 C 31 62.4375 54.8125 38.6875 84.0625 38.6875 Z M 84.0625 38.6875 " transform="matrix(0.0625,0,0,0.0625,0,0)"/>
<path style=" stroke:none;fill-rule:nonzero;fill:rgb(20.784314%,20%,21.960784%);fill-opacity:1;" d="M 2.449219 3.015625 L 28.382812 3.015625 L 28.382812 7.515625 L 2.449219 7.515625 Z M 2.449219 3.015625 "/>
<path style=" stroke:none;fill-rule:nonzero;fill:rgb(100%,100%,100%);fill-opacity:1;" d="M 20.722656 4.796875 L 22.402344 4.796875 L 22.402344 6.445312 L 20.722656 6.445312 Z M 20.722656 4.796875 "/>
<path style=" stroke:none;fill-rule:nonzero;fill:rgb(100%,100%,100%);fill-opacity:1;" d="M 23.808594 4.796875 L 25.488281 4.796875 L 25.488281 6.445312 L 23.808594 6.445312 Z M 23.808594 4.796875 "/>
<path style=" stroke:none;fill-rule:nonzero;fill:rgb(100%,100%,100%);fill-opacity:1;" d="M 17.636719 4.796875 L 19.316406 4.796875 L 19.316406 6.445312 L 17.636719 6.445312 Z M 17.636719 4.796875 "/>
<g clip-path="url(#clip1)" clip-rule="nonzero">
<g clip-path="url(#clip2)" clip-rule="nonzero">
<g clip-path="url(#clip3)" clip-rule="nonzero">
<path style=" stroke:none;fill-rule:nonzero;fill:rgb(97.254902%,97.254902%,97.254902%);fill-opacity:1;" d="M 25.003906 10.542969 C 23.191406 8.726562 20.242188 8.722656 18.425781 10.542969 C 17.855469 11.109375 17.46875 11.789062 17.253906 12.507812 C 17.253906 12.511719 17.246094 12.511719 17.246094 12.515625 L 5.046875 12.511719 L 3.730469 13.832031 L 5.046875 15.148438 L 5.925781 15.144531 L 6.800781 14.269531 L 7.679688 15.144531 L 8.558594 15.148438 L 9.433594 16.027344 L 10.308594 16.019531 L 11.1875 15.144531 L 12.066406 15.144531 L 12.941406 16.023438 L 13.820312 15.144531 L 17.246094 15.144531 C 17.246094 15.148438 17.253906 15.152344 17.253906 15.15625 C 17.464844 15.875 17.863281 16.550781 18.425781 17.121094 C 20.238281 18.933594 23.191406 18.941406 25.007812 17.121094 L 25.019531 17.109375 C 26.828125 15.285156 26.820312 12.351562 25.003906 10.539062 M 23.902344 12.953125 C 24.386719 13.433594 24.386719 14.222656 23.902344 14.707031 C 23.417969 15.191406 22.632812 15.191406 22.148438 14.707031 C 21.667969 14.222656 21.664062 13.4375 22.148438 12.953125 C 22.632812 12.46875 23.421875 12.46875 23.902344 12.953125 M 23.902344 12.953125 "/>
</g>
</g>
</g>
<path style=" stroke:none;fill-rule:nonzero;fill:rgb(100%,100%,100%);fill-opacity:1;" d="M 10.5625 21.566406 L 8.355469 22.765625 L 10.5625 23.960938 L 10.207031 24.566406 L 8.144531 23.316406 L 8.144531 25.628906 L 7.4375 25.628906 L 7.4375 23.316406 L 5.375 24.566406 L 5.019531 23.960938 L 7.230469 22.765625 L 5.019531 21.566406 L 5.375 20.960938 L 7.4375 22.210938 L 7.4375 19.890625 L 8.144531 19.890625 L 8.144531 22.210938 L 10.207031 20.960938 Z M 10.5625 21.566406 "/>
<path style=" stroke:none;fill-rule:nonzero;fill:rgb(100%,100%,100%);fill-opacity:1;" d="M 17.070312 21.566406 L 14.863281 22.765625 L 17.070312 23.960938 L 16.714844 24.566406 L 14.652344 23.316406 L 14.652344 25.628906 L 13.945312 25.628906 L 13.945312 23.316406 L 11.882812 24.566406 L 11.527344 23.960938 L 13.738281 22.765625 L 11.527344 21.566406 L 11.882812 20.960938 L 13.945312 22.210938 L 13.945312 19.890625 L 14.652344 19.890625 L 14.652344 22.210938 L 16.714844 20.960938 Z M 17.070312 21.566406 "/>
<path style=" stroke:none;fill-rule:nonzero;fill:rgb(100%,100%,100%);fill-opacity:1;" d="M 23.714844 21.566406 L 21.507812 22.765625 L 23.714844 23.960938 L 23.363281 24.566406 L 21.300781 23.316406 L 21.300781 25.628906 L 20.589844 25.628906 L 20.589844 23.316406 L 18.527344 24.566406 L 18.175781 23.960938 L 20.382812 22.765625 L 18.175781 21.566406 L 18.527344 20.960938 L 20.589844 22.210938 L 20.589844 19.890625 L 21.300781 19.890625 L 21.300781 22.210938 L 23.363281 20.960938 Z M 23.714844 21.566406 "/>
</g>
</svg>
