
<svg xmlns="http://www.w3.org/2000/svg" xmlns:xlink="http://www.w3.org/1999/xlink" width="32px" height="32px" viewBox="0 0 32 32" version="1.1">
<g id="surface1">
<path style="fill-rule:nonzero;fill:rgb(100%,100%,100%);fill-opacity:1;stroke-width:56.239723;stroke-linecap:butt;stroke-linejoin:miter;stroke:rgb(29.019609%,68.235296%,90.980393%);stroke-opacity:1;stroke-miterlimit:4;" d="M 163.875 51.375 L 860.125 51.375 C 922.25 51.375 972.625 101.75 972.625 163.875 L 972.625 860.125 C 972.625 922.25 922.25 972.625 860.125 972.625 L 163.875 972.625 C 101.75 972.625 51.375 922.25 51.375 860.125 L 51.375 163.875 C 51.375 101.75 101.75 51.375 163.875 51.375 Z M 163.875 51.375 " transform="matrix(0.03125,0,0,0.03125,0,0)"/>
<path style=" stroke:none;fill-rule:nonzero;fill:rgb(0%,66.666669%,83.137256%);fill-opacity:1;" d="M 17.621094 27.664062 C 18.332031 27.601562 18.730469 27.472656 19.664062 27.003906 C 21.136719 26.269531 22.300781 25.386719 22.945312 24.515625 C 23.839844 23.3125 24.390625 21.96875 24.582031 20.507812 C 24.648438 19.992188 24.628906 18.460938 24.550781 18.007812 C 24.269531 16.402344 23.578125 14.933594 22.589844 13.839844 C 21.613281 12.761719 20.511719 12.082031 19.078125 11.664062 C 18.886719 11.609375 18.722656 11.554688 18.707031 11.539062 C 18.675781 11.507812 18.914062 11.433594 19.234375 11.378906 C 19.574219 11.316406 20.636719 11.324219 21 11.394531 C 21.660156 11.515625 22.546875 11.902344 23.121094 12.3125 C 23.476562 12.566406 24.019531 13.078125 24.332031 13.457031 C 25.222656 14.519531 25.824219 15.925781 26.019531 17.398438 C 26.042969 17.589844 26.078125 18.164062 26.09375 18.679688 C 26.125 19.714844 26.148438 19.863281 26.316406 20.054688 C 26.554688 20.324219 26.9375 20.1875 27.253906 19.71875 C 27.609375 19.199219 27.921875 18.253906 28.027344 17.382812 C 28.078125 16.988281 28.070312 15.949219 28.015625 15.519531 C 27.691406 13.066406 26.167969 10.679688 24.078125 9.363281 C 23.164062 8.785156 22.230469 8.445312 21.09375 8.269531 C 20.640625 8.199219 19.222656 8.191406 18.71875 8.253906 C 17.296875 8.433594 15.957031 8.910156 14.90625 9.617188 C 14.152344 10.125 13.644531 10.644531 13.183594 11.386719 C 12.816406 11.972656 12.835938 11.964844 12.855469 11.539062 C 12.902344 10.507812 13.347656 9.527344 14.160156 8.679688 C 14.746094 8.074219 15.269531 7.691406 16.035156 7.324219 C 17.09375 6.808594 18.027344 6.597656 19.234375 6.597656 C 20.257812 6.59375 20.832031 6.703125 21.878906 7.097656 C 22.582031 7.363281 22.792969 7.421875 23.078125 7.421875 C 23.347656 7.425781 23.507812 7.363281 23.59375 7.222656 C 23.765625 6.933594 23.574219 6.492188 23.035156 5.933594 C 22.128906 5 21.046875 4.453125 19.578125 4.191406 C 19.109375 4.109375 17.90625 4.074219 17.3125 4.128906 C 15.167969 4.324219 13.4375 5.097656 12.058594 6.472656 C 11.015625 7.519531 10.273438 8.785156 9.855469 10.234375 C 9.371094 11.929688 9.433594 13.753906 10.035156 15.265625 C 10.277344 15.878906 10.558594 16.371094 11.042969 17.054688 C 11.191406 17.261719 11.308594 17.449219 11.3125 17.46875 C 11.3125 17.523438 10.976562 17.394531 10.5625 17.175781 C 8.019531 15.855469 7.183594 12.164062 8.707031 8.949219 C 8.933594 8.464844 9.230469 7.992188 9.648438 7.433594 C 10.089844 6.84375 10.230469 6.578125 10.242188 6.292969 C 10.25 6.128906 10.238281 6.066406 10.191406 5.988281 C 9.988281 5.660156 9.414062 5.679688 8.730469 6.035156 C 8.0625 6.386719 7.519531 6.847656 6.917969 7.585938 C 6.507812 8.085938 6.015625 8.984375 5.738281 9.738281 C 5.582031 10.164062 5.378906 10.914062 5.300781 11.351562 C 5.214844 11.839844 5.1875 12.21875 5.1875 13 C 5.1875 13.84375 5.214844 14.140625 5.328125 14.710938 C 5.535156 15.742188 5.875 16.578125 6.398438 17.367188 C 8.125 19.960938 11.65625 21.589844 14.578125 21.144531 C 14.992188 21.082031 15.414062 20.949219 15.894531 20.742188 C 16.113281 20.644531 16.304688 20.574219 16.320312 20.578125 C 16.375 20.597656 15.957031 21.136719 15.671875 21.410156 C 14.882812 22.175781 13.921875 22.546875 12.640625 22.589844 C 11.804688 22.621094 11.167969 22.539062 10.386719 22.300781 C 9.105469 21.917969 8.039062 21.277344 7.089844 20.324219 C 6.625 19.855469 6.355469 19.523438 5.984375 18.949219 C 5.738281 18.566406 5.472656 18.273438 5.296875 18.191406 C 5.226562 18.160156 5.097656 18.136719 5.003906 18.132812 C 4.84375 18.132812 4.824219 18.140625 4.703125 18.269531 C 4.53125 18.449219 4.484375 18.617188 4.488281 19.058594 C 4.496094 19.628906 4.660156 20.207031 5.046875 20.996094 C 6.179688 23.324219 8.796875 25.109375 11.625 25.480469 C 11.792969 25.503906 12.246094 25.519531 12.65625 25.519531 C 13.480469 25.519531 13.855469 25.472656 14.578125 25.273438 C 17.253906 24.539062 19.570312 22.425781 20.425781 19.929688 C 20.699219 19.148438 20.753906 18.785156 20.777344 17.742188 L 20.796875 16.898438 L 20.929688 17.074219 C 22.132812 18.660156 22.046875 20.875 20.699219 22.917969 C 20.386719 23.394531 20.152344 23.671875 19.660156 24.167969 C 18.996094 24.824219 18.296875 25.328125 17.515625 25.699219 C 17.09375 25.902344 16.6875 26.042969 16.015625 26.230469 C 15.324219 26.425781 15.1875 26.480469 15.042969 26.640625 C 14.9375 26.757812 14.933594 26.777344 14.945312 26.933594 C 14.976562 27.332031 15.414062 27.585938 16.195312 27.660156 C 16.574219 27.699219 17.214844 27.699219 17.621094 27.664062 Z M 17.621094 27.664062 "/>
</g>
</svg>
