
<svg xmlns="http://www.w3.org/2000/svg" xmlns:xlink="http://www.w3.org/1999/xlink" width="32px" height="32px" viewBox="0 0 32 32" version="1.1">
<g id="surface1">
<path style="fill-rule:nonzero;fill:rgb(100%,100%,100%);fill-opacity:1;stroke-width:7.083912;stroke-linecap:butt;stroke-linejoin:miter;stroke:rgb(29.019609%,68.235296%,90.980393%);stroke-opacity:1;stroke-miterlimit:4;" d="M 20.140625 5.984375 L 107.859375 5.984375 C 115.671875 5.984375 122.015625 12.328125 122.015625 20.140625 L 122.015625 107.859375 C 122.015625 115.671875 115.671875 122.015625 107.859375 122.015625 L 20.140625 122.015625 C 12.328125 122.015625 5.984375 115.671875 5.984375 107.859375 L 5.984375 20.140625 C 5.984375 12.328125 12.328125 5.984375 20.140625 5.984375 Z M 20.140625 5.984375 " transform="matrix(0.25,0,0,0.25,0,0)"/>
<path style=" stroke:none;fill-rule:evenodd;fill:rgb(20.392157%,28.627452%,36.862746%);fill-opacity:1;" d="M 16.058594 3.65625 C 22.902344 3.65625 28.445312 9.199219 28.445312 16.042969 C 28.445312 22.882812 22.902344 28.429688 16.058594 28.429688 C 9.21875 28.429688 3.671875 22.882812 3.671875 16.042969 C 3.671875 9.199219 9.21875 3.65625 16.058594 3.65625 Z M 16.058594 3.65625 "/>
<path style=" stroke:none;fill-rule:evenodd;fill:rgb(0%,66.666669%,83.137256%);fill-opacity:1;" d="M 16.058594 6.132812 C 21.53125 6.132812 25.96875 10.570312 25.96875 16.042969 C 25.96875 21.515625 21.53125 25.953125 16.058594 25.953125 C 10.585938 25.953125 6.148438 21.515625 6.148438 16.042969 C 6.148438 10.570312 10.585938 6.132812 16.058594 6.132812 Z M 16.058594 6.132812 "/>
<path style=" stroke:none;fill-rule:evenodd;fill:rgb(0%,40.000001%,50.196081%);fill-opacity:1;" d="M 16.058594 8.609375 C 20.164062 8.609375 23.492188 11.9375 23.492188 16.042969 C 23.492188 20.144531 20.164062 23.472656 16.058594 23.472656 C 11.957031 23.472656 8.628906 20.144531 8.628906 16.042969 C 8.628906 11.9375 11.957031 8.609375 16.058594 8.609375 Z M 16.058594 8.609375 "/>
<path style=" stroke:none;fill-rule:evenodd;fill:rgb(12.54902%,13.725491%,19.607843%);fill-opacity:1;" d="M 16.058594 11.089844 C 18.796875 11.089844 21.011719 13.304688 21.011719 16.042969 C 21.011719 18.777344 18.796875 20.996094 16.058594 20.996094 C 13.324219 20.996094 11.105469 18.777344 11.105469 16.042969 C 11.105469 13.304688 13.324219 11.089844 16.058594 11.089844 Z M 16.058594 11.089844 "/>
<path style=" stroke:none;fill-rule:evenodd;fill:rgb(55.686277%,65.098041%,73.333335%);fill-opacity:1;" d="M 18.535156 11.089844 C 19.90625 11.089844 21.011719 12.199219 21.011719 13.566406 C 21.011719 14.933594 19.90625 16.042969 18.535156 16.042969 C 17.167969 16.042969 16.058594 14.933594 16.058594 13.566406 C 16.058594 12.199219 17.167969 11.089844 18.535156 11.089844 Z M 18.535156 11.089844 "/>
<path style=" stroke:none;fill-rule:evenodd;fill:rgb(55.686277%,65.098041%,73.333335%);fill-opacity:1;" d="M 12.34375 18.519531 C 13.027344 18.519531 13.582031 19.074219 13.582031 19.757812 C 13.582031 20.441406 13.027344 20.996094 12.34375 20.996094 C 11.660156 20.996094 11.105469 20.441406 11.105469 19.757812 C 11.105469 19.074219 11.660156 18.519531 12.34375 18.519531 Z M 12.34375 18.519531 "/>
</g>
</svg>
