
<svg xmlns="http://www.w3.org/2000/svg" xmlns:xlink="http://www.w3.org/1999/xlink" width="32px" height="32px" viewBox="0 0 32 32" version="1.1">
<g id="surface1">
<path style="fill-rule:nonzero;fill:rgb(100%,100%,100%);fill-opacity:1;stroke-width:6.815335;stroke-linecap:butt;stroke-linejoin:miter;stroke:rgb(0%,20%,50.196081%);stroke-opacity:1;stroke-miterlimit:4;" d="M 21.8125 8.171875 L 106.1875 8.171875 C 113.71875 8.171875 119.828125 14.28125 119.828125 21.8125 L 119.828125 106.1875 C 119.828125 113.71875 113.71875 119.828125 106.1875 119.828125 L 21.8125 119.828125 C 14.28125 119.828125 8.171875 113.71875 8.171875 106.1875 L 8.171875 21.8125 C 8.171875 14.28125 14.28125 8.171875 21.8125 8.171875 Z M 21.8125 8.171875 " transform="matrix(0.25,0,0,0.25,0,0)"/>
<path style=" stroke:none;fill-rule:nonzero;fill:rgb(0%,20%,50.196081%);fill-opacity:1;" d="M 17.929688 4.734375 C 15.757812 5.035156 13.421875 6.175781 11.519531 9.542969 C 7.175781 17.238281 7.484375 19.917969 6.792969 20.785156 C 6.097656 21.644531 4.222656 22.113281 4.496094 23.09375 C 4.957031 24.011719 5.113281 24.117188 5.113281 24.117188 C 5.113281 24.117188 7.773438 28.207031 15.707031 27.105469 C 23.640625 25.996094 24.738281 24.195312 24.667969 23.300781 C 24.597656 22.40625 22.921875 21.753906 22.921875 21.753906 C 22.921875 21.753906 21.683594 17.050781 22 15.121094 C 22.320312 13.191406 23.527344 10.378906 24.722656 9.773438 C 25.914062 9.160156 26.511719 11.816406 27.125 11.160156 C 27.738281 10.507812 26.105469 6.636719 24.109375 5.488281 C 22.511719 4.40625 20.753906 4.511719 17.929688 4.738281 "/>
<path style=" stroke:none;fill-rule:nonzero;fill:rgb(100%,43.921569%,21.176471%);fill-opacity:1;" d="M 14.714844 11.859375 L 17.042969 11.726562 L 18.277344 9.730469 L 19.121094 12.003906 L 21.363281 12.867188 L 19.636719 14.351562 L 19.597656 16.761719 L 17.761719 15.5 L 15.308594 16.347656 L 15.996094 14.011719 M 14.714844 11.855469 "/>
<path style=" stroke:none;fill-rule:nonzero;fill:rgb(100%,88.627452%,21.176471%);fill-opacity:1;" d="M 14.367188 19.105469 L 16.554688 18.238281 L 17.183594 15.941406 L 18.613281 17.835938 L 20.992188 17.945312 L 19.753906 19.914062 L 20.378906 22.230469 L 18.28125 21.609375 L 16.171875 23.203125 L 16.183594 20.753906 M 14.367188 19.105469 "/>
<path style=" stroke:none;fill-rule:nonzero;fill:rgb(100%,18.431373%,74.901962%);fill-opacity:1;" d="M 8.703125 16.058594 L 11.027344 16.246094 L 12.484375 14.433594 L 13.054688 16.800781 L 15.175781 17.964844 L 13.289062 19.203125 L 12.964844 21.585938 L 11.300781 20.085938 L 8.761719 20.59375 L 9.714844 18.371094 M 8.703125 16.058594 "/>
</g>
</svg>
