
<svg xmlns="http://www.w3.org/2000/svg" xmlns:xlink="http://www.w3.org/1999/xlink" width="32px" height="32px" viewBox="0 0 32 32" version="1.1">
<g id="surface1">
<path style="fill-rule:nonzero;fill:rgb(25.098041%,38.431373%,56.862748%);fill-opacity:1;stroke-width:6;stroke-linecap:butt;stroke-linejoin:miter;stroke:rgb(31.37255%,55.686277%,90.196079%);stroke-opacity:1;stroke-miterlimit:4;" d="M 22.3125 9.296875 L 106.28125 9.296875 C 113.46875 9.296875 119.296875 15.125 119.296875 22.3125 L 119.296875 106.28125 C 119.296875 113.46875 113.46875 119.296875 106.28125 119.296875 L 22.3125 119.296875 C 15.125 119.296875 9.296875 113.46875 9.296875 106.28125 L 9.296875 22.3125 C 9.296875 15.125 15.125 9.296875 22.3125 9.296875 Z M 22.3125 9.296875 " transform="matrix(0.25,0,0,0.25,0,0)"/>
<path style=" stroke:none;fill-rule:nonzero;fill:rgb(97.647059%,97.647059%,97.647059%);fill-opacity:1;" d="M 16.683594 4.640625 C 16.574219 4.648438 16.503906 4.683594 16.433594 4.75 C 16.144531 5.019531 16.242188 5.6875 16.78125 7.144531 C 16.871094 7.382812 17.207031 8.25 17.539062 9.070312 C 18.777344 12.148438 19.128906 13.359375 19.128906 14.5625 C 19.128906 15.304688 18.996094 15.714844 18.644531 16.09375 C 18.300781 16.464844 17.824219 16.644531 17.058594 16.675781 C 16.644531 16.695312 16.617188 16.695312 16.710938 16.734375 C 16.769531 16.753906 16.953125 16.796875 17.128906 16.824219 C 17.570312 16.890625 18.476562 16.871094 18.871094 16.785156 C 20.636719 16.398438 21.933594 14.996094 22.585938 12.75 C 22.867188 11.78125 22.972656 10.96875 22.972656 9.78125 C 22.972656 8.515625 22.871094 7.816406 22.542969 6.816406 C 22.15625 5.660156 21.800781 5.066406 21.34375 4.832031 C 21.101562 4.703125 20.691406 4.6875 19.902344 4.777344 C 19.253906 4.855469 18.308594 4.871094 17.851562 4.8125 C 17.699219 4.792969 17.394531 4.742188 17.175781 4.699219 C 16.941406 4.652344 16.792969 4.636719 16.683594 4.640625 Z M 8.902344 6.4375 C 8.699219 6.441406 8.527344 6.453125 8.402344 6.464844 C 7.433594 6.566406 6.988281 6.792969 6.78125 7.320312 C 6.734375 7.433594 6.644531 7.816406 6.570312 8.167969 C 6.34375 9.253906 6.160156 9.785156 5.769531 10.496094 C 5.441406 11.085938 5.425781 11.117188 5.425781 11.269531 C 5.425781 11.59375 5.777344 11.761719 6.632812 11.832031 C 7.214844 11.882812 7.980469 11.863281 10.269531 11.71875 C 11.386719 11.648438 13.613281 11.621094 14.207031 11.667969 C 15.632812 11.785156 16.503906 12.070312 17.007812 12.574219 C 17.496094 13.0625 17.585938 13.703125 17.300781 14.597656 C 17.246094 14.761719 17.207031 14.902344 17.207031 14.917969 C 17.207031 15.035156 17.472656 14.582031 17.660156 14.152344 C 18.273438 12.710938 18.082031 11.246094 17.113281 9.953125 C 15.855469 8.277344 13.347656 6.941406 10.660156 6.511719 C 10.335938 6.457031 9.5 6.425781 8.902344 6.4375 Z M 12.25 12.164062 C 11.730469 12.164062 11.191406 12.261719 10.625 12.453125 C 8.628906 13.128906 6.488281 15.132812 5.347656 17.40625 C 5.027344 18.046875 4.746094 18.871094 4.597656 19.605469 C 4.457031 20.296875 4.542969 20.714844 4.910156 21.070312 C 5.039062 21.191406 5.269531 21.332031 5.792969 21.609375 C 6.695312 22.09375 7.113281 22.402344 7.8125 23.085938 C 8.058594 23.332031 8.308594 23.554688 8.363281 23.582031 C 8.832031 23.828125 9.253906 23.199219 9.753906 21.519531 C 9.832031 21.253906 10.042969 20.515625 10.210938 19.886719 C 10.945312 17.140625 11.265625 16.152344 11.769531 15.113281 C 12.074219 14.496094 12.339844 14.109375 12.695312 13.757812 C 13.128906 13.328125 13.488281 13.160156 13.980469 13.160156 C 14.121094 13.160156 14.328125 13.175781 14.4375 13.207031 C 14.699219 13.269531 15.097656 13.472656 15.414062 13.691406 C 15.550781 13.785156 15.675781 13.859375 15.6875 13.847656 C 15.722656 13.816406 14.988281 13.136719 14.699219 12.941406 C 13.929688 12.417969 13.117188 12.160156 12.25 12.164062 Z M 26.136719 12.773438 C 25.855469 12.777344 25.433594 12.972656 24.808594 13.394531 C 24.300781 13.738281 23.882812 14.054688 22.523438 15.144531 C 20.441406 16.8125 19.410156 17.535156 18.386719 18.03125 C 17.011719 18.699219 16.046875 18.6875 15.40625 17.996094 C 15.195312 17.769531 15.050781 17.527344 14.910156 17.167969 C 14.851562 17.015625 14.785156 16.847656 14.761719 16.796875 L 14.71875 16.699219 L 14.71875 16.851562 C 14.714844 17.058594 14.824219 17.597656 14.945312 17.953125 C 15.074219 18.332031 15.292969 18.777344 15.515625 19.085938 C 15.746094 19.40625 16.210938 19.851562 16.542969 20.074219 C 17.210938 20.519531 18.183594 20.851562 19.128906 20.949219 C 19.5625 20.996094 20.617188 20.984375 21.097656 20.933594 C 23.191406 20.710938 25.25 19.921875 26.660156 18.796875 C 27.503906 18.121094 27.820312 17.699219 27.824219 17.234375 C 27.824219 16.976562 27.753906 16.78125 27.417969 16.066406 C 26.929688 15.027344 26.765625 14.488281 26.632812 13.457031 C 26.578125 13.050781 26.53125 12.925781 26.382812 12.835938 C 26.3125 12.792969 26.230469 12.769531 26.136719 12.773438 Z M 14.105469 14.941406 C 14.085938 14.9375 13.910156 15.003906 13.722656 15.097656 C 12.140625 15.863281 11.277344 17.144531 11.203125 18.816406 C 11.144531 20.070312 11.605469 21.636719 12.425781 23.042969 C 12.683594 23.480469 13.125 24.128906 13.441406 24.523438 C 13.78125 24.949219 14.496094 25.667969 14.878906 25.976562 C 15.515625 26.488281 16.417969 27.023438 16.902344 27.175781 C 17.320312 27.3125 17.652344 27.261719 18.027344 27.011719 C 18.117188 26.953125 18.386719 26.726562 18.628906 26.511719 C 19.464844 25.757812 19.882812 25.472656 20.78125 25.042969 C 21.097656 24.886719 21.367188 24.730469 21.417969 24.675781 C 21.628906 24.453125 21.542969 24.191406 21.132812 23.78125 C 20.691406 23.339844 20.046875 22.890625 18.113281 21.695312 C 16.210938 20.519531 15.117188 19.769531 14.410156 19.152344 C 13.011719 17.941406 12.574219 16.972656 13.011719 16.066406 C 13.136719 15.816406 13.609375 15.316406 13.9375 15.097656 C 14.050781 15.019531 14.128906 14.949219 14.105469 14.941406 Z M 14.105469 14.941406 "/>
</g>
</svg>
