
<svg xmlns="http://www.w3.org/2000/svg" xmlns:xlink="http://www.w3.org/1999/xlink" width="32px" height="32px" viewBox="0 0 32 32" version="1.1">
<g id="surface1">
<path style=" stroke:none;fill-rule:nonzero;fill:rgb(25.098041%,38.431373%,56.862748%);fill-opacity:1;" d="M 5.578125 2.324219 L 26.570312 2.324219 C 28.367188 2.324219 29.824219 3.78125 29.824219 5.578125 L 29.824219 26.570312 C 29.824219 28.367188 28.367188 29.824219 26.570312 29.824219 L 5.578125 29.824219 C 3.78125 29.824219 2.324219 28.367188 2.324219 26.570312 L 2.324219 5.578125 C 2.324219 3.78125 3.78125 2.324219 5.578125 2.324219 Z M 5.578125 2.324219 "/>
<path style=" stroke:none;fill-rule:nonzero;fill:rgb(97.647059%,97.647059%,97.647059%);fill-opacity:1;" d="M 15.542969 5.714844 C 14.847656 5.816406 14.121094 5.992188 13.457031 6.222656 C 13.488281 7.019531 13.785156 7.828125 13.921875 8.632812 C 14.027344 9.128906 14.140625 9.632812 14.246094 10.128906 C 14.253906 10.132812 14.261719 10.136719 14.265625 10.136719 C 14.410156 10.089844 14.554688 10.050781 14.703125 10.015625 C 17.726562 9.167969 21.160156 10.980469 22.175781 13.949219 C 22.320312 14.339844 22.433594 14.746094 22.496094 15.160156 C 23.773438 14.878906 25.058594 14.601562 26.335938 14.324219 C 26.535156 13.902344 26.175781 13.371094 26.132812 12.90625 C 26.105469 12.390625 25.871094 11.957031 25.285156 12.125 L 22.738281 12.125 C 22.414062 11.367188 21.441406 10.832031 22.046875 9.992188 C 22.277344 9.261719 22.613281 8.558594 22.777344 7.824219 C 22.214844 7.40625 21.582031 7.019531 20.949219 6.710938 C 20.183594 7.355469 19.511719 8.128906 18.78125 8.828125 C 17.980469 8.433594 16.753906 8.882812 16.566406 7.769531 C 16.214844 7.089844 15.949219 6.355469 15.542969 5.714844 Z M 9.511719 8.476562 C 9.046875 8.523438 8.78125 9.105469 8.402344 9.378906 C 7.976562 9.675781 7.71875 10.101562 8.167969 10.511719 C 8.605469 11.238281 9.054688 11.964844 9.496094 12.691406 C 9.019531 13.363281 9.066406 14.472656 8.027344 14.386719 C 7.292969 14.566406 6.511719 14.648438 5.796875 14.890625 C 5.734375 15.589844 5.730469 16.332031 5.796875 17.035156 C 6.746094 17.355469 7.761719 17.527344 8.738281 17.789062 C 8.816406 18.675781 9.847656 19.496094 8.988281 20.230469 C 8.59375 20.882812 8.09375 21.488281 7.761719 22.167969 C 8.207031 22.707031 8.730469 23.230469 9.273438 23.683594 C 9.824219 23.300781 10.230469 22.667969 10.722656 22.183594 C 11.152344 21.707031 11.578125 21.230469 12.011719 20.753906 C 12.011719 20.738281 12.007812 20.722656 12.011719 20.703125 C 10.980469 19.753906 10.25 18.480469 10.066406 17.066406 C 9.667969 14.828125 10.683594 12.511719 12.433594 11.128906 C 11.457031 10.246094 10.480469 9.363281 9.511719 8.476562 Z M 22.429688 17.457031 C 21.847656 20.070312 19.484375 22.230469 16.761719 22.371094 C 15.828125 22.46875 14.894531 22.3125 14.035156 21.972656 C 14.027344 21.980469 14.019531 21.984375 14.011719 21.988281 C 13.675781 23.253906 13.339844 24.515625 13.003906 25.785156 C 13.273438 26.160156 13.917969 26.097656 14.347656 26.289062 C 14.816406 26.511719 15.3125 26.523438 15.445312 25.929688 L 16.667969 23.691406 C 17.484375 23.769531 18.417969 23.175781 18.863281 24.113281 C 19.386719 24.660156 19.851562 25.296875 20.417969 25.792969 C 21.054688 25.5 21.699219 25.128906 22.277344 24.726562 C 22.082031 23.742188 21.71875 22.785156 21.460938 21.8125 C 22.1875 21.296875 22.390625 19.996094 23.457031 20.371094 C 24.21875 20.394531 24.996094 20.515625 25.75 20.46875 C 25.992188 19.808594 26.183594 19.09375 26.304688 18.402344 C 25.699219 18.109375 24.949219 18.074219 24.285156 17.878906 C 23.667969 17.742188 23.046875 17.597656 22.429688 17.457031 Z M 22.429688 17.457031 "/>
</g>
</svg>
