
<svg xmlns="http://www.w3.org/2000/svg" xmlns:xlink="http://www.w3.org/1999/xlink" width="32px" height="32px" viewBox="0 0 32 32" version="1.1">
<g id="surface1">
<path style=" stroke:none;fill-rule:nonzero;fill:rgb(85.882354%,42.745098%,13.725491%);fill-opacity:1;" d="M 5.578125 2.324219 L 26.570312 2.324219 C 28.367188 2.324219 29.824219 3.78125 29.824219 5.578125 L 29.824219 26.570312 C 29.824219 28.367188 28.367188 29.824219 26.570312 29.824219 L 5.578125 29.824219 C 3.78125 29.824219 2.324219 28.367188 2.324219 26.570312 L 2.324219 5.578125 C 2.324219 3.78125 3.78125 2.324219 5.578125 2.324219 Z M 5.578125 2.324219 "/>
<path style=" stroke:none;fill-rule:nonzero;fill:rgb(97.647059%,97.647059%,97.647059%);fill-opacity:1;" d="M 22.269531 4.308594 C 21.535156 4.332031 20.832031 4.726562 20.4375 5.410156 C 19.835938 6.449219 20.183594 7.746094 21.226562 8.347656 C 22.269531 8.949219 23.644531 8.597656 24.242188 7.558594 C 24.84375 6.519531 24.476562 5.203125 23.433594 4.601562 C 23.078125 4.394531 22.65625 4.308594 22.269531 4.308594 Z M 16.75 6.632812 C 15.246094 6.632812 13.855469 6.992188 12.589844 7.617188 L 14.128906 10.320312 C 14.941406 9.941406 15.792969 9.6875 16.75 9.6875 C 20.074219 9.6875 22.855469 12.277344 23.136719 15.523438 L 26.195312 15.464844 C 26.042969 13.066406 24.988281 10.917969 23.375 9.332031 C 22.550781 9.644531 21.636719 9.613281 20.8125 9.136719 C 19.988281 8.660156 19.472656 7.800781 19.332031 6.929688 C 18.527344 6.707031 17.625 6.632812 16.75 6.632812 Z M 11.546875 8.230469 C 9.640625 9.503906 8.207031 11.410156 7.621094 13.691406 C 8.308594 14.25 8.785156 15.121094 8.785156 16.074219 C 8.785156 17.035156 8.3125 17.902344 7.621094 18.460938 C 8.210938 20.742188 9.640625 22.652344 11.546875 23.925781 L 13.144531 21.28125 C 11.507812 20.132812 10.441406 18.230469 10.441406 16.074219 C 10.441406 13.925781 11.507812 12.023438 13.144531 10.871094 Z M 5.710938 13.925781 C 4.507812 13.925781 3.503906 14.875 3.503906 16.074219 C 3.503906 17.277344 4.507812 18.285156 5.710938 18.285156 C 6.914062 18.285156 7.859375 17.277344 7.859375 16.074219 C 7.859375 14.875 6.910156 13.925781 5.710938 13.925781 Z M 23.136719 16.628906 C 22.855469 19.875 20.074219 22.464844 16.75 22.464844 C 15.792969 22.464844 14.941406 22.214844 14.128906 21.832031 L 12.589844 24.535156 C 13.855469 25.160156 15.246094 25.519531 16.75 25.519531 C 17.625 25.519531 18.527344 25.449219 19.332031 25.222656 C 19.472656 24.351562 19.988281 23.496094 20.8125 23.015625 C 21.640625 22.539062 22.546875 22.503906 23.375 22.820312 C 24.988281 21.234375 26.042969 19.085938 26.195312 16.6875 Z M 22.269531 23.488281 C 21.917969 23.488281 21.550781 23.617188 21.226562 23.804688 C 20.183594 24.40625 19.835938 25.703125 20.4375 26.742188 C 21.039062 27.785156 22.394531 28.152344 23.433594 27.550781 C 24.476562 26.949219 24.84375 25.628906 24.242188 24.59375 C 23.832031 23.878906 23.042969 23.46875 22.269531 23.488281 Z M 22.269531 23.488281 "/>
</g>
</svg>
