
<svg xmlns="http://www.w3.org/2000/svg" xmlns:xlink="http://www.w3.org/1999/xlink" width="32px" height="32px" viewBox="0 0 32 32" version="1.1">
<g id="surface1">
<path style="fill-rule:nonzero;fill:rgb(21.176471%,58.431375%,75.686276%);fill-opacity:1;stroke-width:6.2;stroke-linecap:butt;stroke-linejoin:miter;stroke:rgb(46.666667%,72.549021%,90.196079%);stroke-opacity:1;stroke-miterlimit:4;" d="M 22.3125 9.296875 L 106.28125 9.296875 C 113.46875 9.296875 119.296875 15.125 119.296875 22.3125 L 119.296875 106.28125 C 119.296875 113.46875 113.46875 119.296875 106.28125 119.296875 L 22.3125 119.296875 C 15.125 119.296875 9.296875 113.46875 9.296875 106.28125 L 9.296875 22.3125 C 9.296875 15.125 15.125 9.296875 22.3125 9.296875 Z M 22.3125 9.296875 " transform="matrix(0.25,0,0,0.25,0,0)"/>
<path style=" stroke:none;fill-rule:evenodd;fill:rgb(97.647059%,97.647059%,97.647059%);fill-opacity:1;" d="M 16.070312 5.136719 C 15.097656 7.523438 14.511719 9.085938 13.425781 11.402344 C 14.089844 12.105469 14.90625 12.925781 16.230469 13.851562 C 14.808594 13.265625 13.835938 12.675781 13.109375 12.066406 C 11.722656 14.960938 9.550781 19.085938 5.140625 27.007812 C 8.605469 25.007812 11.292969 23.773438 13.796875 23.304688 C 13.691406 22.839844 13.628906 22.339844 13.632812 21.816406 L 13.636719 21.707031 C 13.691406 19.488281 14.847656 17.777344 16.214844 17.894531 C 17.582031 18.011719 18.648438 19.90625 18.589844 22.128906 C 18.582031 22.542969 18.535156 22.949219 18.453125 23.320312 C 20.929688 23.804688 23.589844 25.035156 27.007812 27.007812 C 26.332031 25.769531 25.730469 24.648438 25.15625 23.582031 C 24.25 22.878906 23.308594 21.96875 21.378906 20.980469 C 22.707031 21.324219 23.652344 21.722656 24.390625 22.164062 C 18.546875 11.285156 18.074219 9.839844 16.070312 5.136719 Z M 16.070312 5.136719 "/>
</g>
</svg>
