
<svg xmlns="http://www.w3.org/2000/svg" xmlns:xlink="http://www.w3.org/1999/xlink" width="32px" height="32px" viewBox="0 0 32 32" version="1.1">
<g id="surface1">
<path style=" stroke:none;fill-rule:nonzero;fill:rgb(25.098041%,38.431373%,56.862748%);fill-opacity:1;" d="M 5.578125 2.324219 L 26.570312 2.324219 C 28.367188 2.324219 29.824219 3.78125 29.824219 5.578125 L 29.824219 26.570312 C 29.824219 28.367188 28.367188 29.824219 26.570312 29.824219 L 5.578125 29.824219 C 3.78125 29.824219 2.324219 28.367188 2.324219 26.570312 L 2.324219 5.578125 C 2.324219 3.78125 3.78125 2.324219 5.578125 2.324219 Z M 5.578125 2.324219 "/>
<path style=" stroke:none;fill-rule:nonzero;fill:rgb(97.647059%,97.647059%,97.647059%);fill-opacity:1;" d="M 22.679688 5.777344 C 18.394531 5.777344 17.59375 11.878906 20.003906 11.878906 C 22.414062 11.878906 26.964844 5.777344 22.679688 5.777344 Z M 15.855469 6.550781 C 13.441406 6.863281 14.296875 11.050781 15.582031 11.128906 C 16.863281 11.207031 18.265625 6.238281 15.855469 6.550781 Z M 11.816406 8.183594 C 11.710938 8.191406 11.597656 8.222656 11.476562 8.273438 C 9.539062 9.074219 11.183594 12.371094 12.269531 12.152344 C 13.289062 11.941406 13.402344 8.011719 11.816406 8.183594 Z M 8.800781 10.765625 C 8.632812 10.761719 8.449219 10.816406 8.257812 10.949219 C 6.707031 12.019531 8.792969 14.613281 9.707031 14.214844 C 10.503906 13.863281 9.980469 10.808594 8.800781 10.765625 Z M 17.667969 12.761719 C 14.34375 12.707031 9.957031 14.355469 9.207031 17.707031 C 8.398438 21.332031 12.550781 26.371094 16.875 26.371094 C 19.003906 26.371094 21.449219 24.449219 21.910156 22.015625 C 22.257812 20.160156 17.777344 20.902344 17.941406 22.128906 C 18.132812 23.597656 16.851562 24.324219 15.605469 23.375 C 11.636719 20.355469 22.195312 18.863281 21.5 14.734375 C 21.285156 13.449219 19.664062 12.796875 17.667969 12.761719 Z M 17.667969 12.761719 "/>
</g>
</svg>
