
<svg xmlns="http://www.w3.org/2000/svg" xmlns:xlink="http://www.w3.org/1999/xlink" width="32px" height="32px" viewBox="0 0 32 32" version="1.1">
<g id="surface1">
<path style=" stroke:none;fill-rule:nonzero;fill:rgb(40.784314%,61.960787%,25.882354%);fill-opacity:1;" d="M 5.578125 2.324219 L 26.570312 2.324219 C 28.367188 2.324219 29.824219 3.78125 29.824219 5.578125 L 29.824219 26.570312 C 29.824219 28.367188 28.367188 29.824219 26.570312 29.824219 L 5.578125 29.824219 C 3.78125 29.824219 2.324219 28.367188 2.324219 26.570312 L 2.324219 5.578125 C 2.324219 3.78125 3.78125 2.324219 5.578125 2.324219 Z M 5.578125 2.324219 "/>
<path style=" stroke:none;fill-rule:evenodd;fill:rgb(81.960785%,100%,32.941177%);fill-opacity:0.152941;" d="M 24.992188 22.328125 C 24.992188 19.757812 24.992188 13.691406 24.992188 13.691406 C 24.992188 10.808594 22.464844 8.46875 19.339844 8.46875 L 16.101562 8.46875 L 16.101562 8.460938 L 7.339844 8.421875 L 7.339844 11.574219 C 7.339844 11.574219 8.054688 11.574219 8.683594 11.574219 C 9.621094 11.574219 9.789062 12.222656 9.789062 13.121094 L 9.792969 18.691406 C 9.792969 21.574219 12.324219 23.914062 15.441406 23.914062 L 23.144531 23.914062 C 24.128906 23.914062 24.992188 23.289062 24.992188 22.328125 Z M 24.992188 22.328125 "/>
<path style=" stroke:none;fill-rule:evenodd;fill:rgb(97.647059%,97.647059%,97.647059%);fill-opacity:1;" d="M 6.089844 7.191406 L 6.089844 12.917969 L 8.441406 12.917969 L 8.441406 18.570312 C 8.441406 22.285156 11.667969 25.113281 15.386719 25.113281 L 26.082031 25.113281 L 26.082031 13.769531 C 26.082031 10.050781 22.859375 7.238281 19.136719 7.238281 L 16.019531 7.226562 Z M 7.601562 8.703125 L 16.019531 8.738281 L 16.019531 8.753906 L 19.136719 8.753906 C 22.136719 8.753906 24.570312 11 24.570312 13.769531 L 24.570312 22.0625 C 24.570312 22.984375 23.734375 23.585938 22.785156 23.585938 L 15.386719 23.585938 C 12.390625 23.585938 9.96875 21.339844 9.96875 18.570312 L 9.957031 12.878906 C 9.957031 11.996094 9.1875 11.402344 8.546875 11.402344 L 7.601562 11.402344 Z M 11.417969 10.394531 L 11.417969 18.632812 C 11.417969 19.507812 11.738281 20.277344 12.363281 20.898438 C 12.894531 21.421875 13.53125 21.765625 14.25 21.839844 L 16.28125 21.839844 L 16.28125 20.222656 L 14.535156 20.210938 C 13.683594 20.210938 12.96875 19.386719 12.96875 18.324219 L 12.96875 10.394531 Z M 17.25 11.753906 C 16.546875 11.753906 15.914062 12.011719 15.414062 12.519531 C 14.910156 13.023438 14.652344 13.652344 14.652344 14.367188 L 14.652344 17.972656 L 16.292969 17.972656 L 16.292969 14.367188 C 16.292969 14.09375 16.382812 13.878906 16.578125 13.679688 C 16.773438 13.484375 16.980469 13.394531 17.25 13.394531 C 17.527344 13.394531 17.726562 13.480469 17.921875 13.679688 C 18.117188 13.878906 18.207031 14.09375 18.207031 14.367188 L 18.207031 17.972656 L 19.835938 17.972656 L 19.835938 14.367188 C 19.835938 14.09375 19.925781 13.878906 20.121094 13.679688 C 20.316406 13.480469 20.53125 13.394531 20.808594 13.394531 C 21.074219 13.394531 21.285156 13.484375 21.480469 13.679688 C 21.675781 13.878906 21.761719 14.09375 21.761719 14.367188 L 21.761719 17.949219 L 23.40625 17.949219 L 23.394531 14.367188 C 23.394531 13.652344 23.128906 13.023438 22.628906 12.519531 C 22.128906 12.011719 21.507812 11.753906 20.808594 11.753906 C 20.117188 11.753906 19.511719 12.007812 19.019531 12.480469 C 18.535156 12.011719 17.941406 11.753906 17.25 11.753906 Z M 23.40625 18.867188 C 23.386719 19.035156 23.355469 19.210938 23.316406 19.371094 C 23.359375 19.207031 23.386719 19.042969 23.40625 18.867188 Z M 21.722656 18.90625 C 21.675781 19.121094 21.578125 19.324219 21.441406 19.5 C 21.578125 19.324219 21.675781 19.121094 21.722656 18.90625 Z M 21.722656 18.90625 "/>
<path style=" stroke:none;fill-rule:evenodd;fill:rgb(82.352942%,88.627452%,79.607844%);fill-opacity:0.4;" d="M 16.285156 20.222656 L 16.285156 21.839844 L 20.125 21.839844 C 21.027344 21.839844 21.816406 21.503906 22.457031 20.851562 L 22.460938 20.851562 C 23.003906 20.292969 23.324219 19.621094 23.402344 18.871094 L 23.402344 17.953125 L 21.769531 17.953125 L 21.769531 18.582031 C 21.769531 19.480469 20.914062 20.234375 19.816406 20.234375 Z M 16.285156 20.222656 "/>
</g>
</svg>
