
<svg xmlns="http://www.w3.org/2000/svg" xmlns:xlink="http://www.w3.org/1999/xlink" width="32px" height="32px" viewBox="0 0 32 32" version="1.1">
<g id="surface1">
<path style="fill-rule:nonzero;fill:rgb(66.666669%,0%,0%);fill-opacity:1;stroke-width:6;stroke-linecap:butt;stroke-linejoin:miter;stroke:rgb(81.960785%,9.411765%,36.470589%);stroke-opacity:1;stroke-miterlimit:4;" d="M 22.3125 9.296875 L 106.28125 9.296875 C 113.46875 9.296875 119.296875 15.125 119.296875 22.3125 L 119.296875 106.28125 C 119.296875 113.46875 113.46875 119.296875 106.28125 119.296875 L 22.3125 119.296875 C 15.125 119.296875 9.296875 113.46875 9.296875 106.28125 L 9.296875 22.3125 C 9.296875 15.125 15.125 9.296875 22.3125 9.296875 Z M 22.3125 9.296875 " transform="matrix(0.25,0,0,0.25,0,0)"/>
<path style=" stroke:none;fill-rule:nonzero;fill:rgb(100%,100%,100%);fill-opacity:1;" d="M 17.386719 4.816406 C 17.035156 4.84375 16.691406 4.863281 16.347656 4.90625 L 16.496094 4.925781 C 16.75 4.832031 17.117188 4.875 17.386719 4.816406 Z M 15.863281 4.972656 C 15.296875 5.007812 14.507812 5.304688 14.753906 5.035156 C 13.824219 5.449219 12.183594 6.027344 11.261719 6.894531 L 11.230469 6.699219 C 10.808594 7.207031 9.386719 8.214844 9.277344 8.871094 L 9.164062 8.898438 C 8.941406 9.269531 8.800781 9.691406 8.625 10.074219 C 8.339844 10.566406 8.207031 10.261719 8.246094 10.339844 C 7.679688 11.488281 7.398438 12.449219 7.15625 13.242188 C 7.332031 13.5 7.160156 14.796875 7.226562 15.835938 C 6.941406 20.964844 10.828125 25.945312 15.074219 27.09375 C 15.695312 27.316406 16.621094 27.308594 17.40625 27.332031 C 16.476562 27.066406 16.355469 27.191406 15.453125 26.875 C 14.800781 26.566406 14.65625 26.214844 14.195312 25.816406 L 14.378906 26.140625 C 13.472656 25.820312 13.851562 25.742188 13.113281 25.511719 L 13.308594 25.253906 C 13.015625 25.230469 12.53125 24.757812 12.398438 24.496094 L 12.078125 24.507812 C 11.691406 24.035156 11.488281 23.691406 11.5 23.425781 L 11.398438 23.609375 C 11.277344 23.410156 9.972656 21.824219 10.652344 22.191406 C 10.523438 22.074219 10.359375 22.003906 10.175781 21.675781 L 10.316406 21.519531 C 9.988281 21.097656 9.714844 20.5625 9.738281 20.382812 C 9.910156 20.617188 10.03125 20.660156 10.152344 20.699219 C 9.328125 18.664062 9.285156 20.589844 8.660156 18.628906 L 8.792969 18.613281 C 8.691406 18.464844 8.628906 18.300781 8.550781 18.136719 L 8.605469 17.566406 C 8.015625 16.882812 8.441406 14.660156 8.527344 13.441406 C 8.585938 12.945312 9.019531 12.414062 9.351562 11.585938 L 9.152344 11.550781 C 9.535156 10.882812 11.347656 8.855469 12.1875 8.960938 C 12.597656 8.449219 12.105469 8.957031 12.027344 8.832031 C 12.921875 7.90625 13.199219 8.175781 13.804688 8.011719 C 14.453125 7.625 13.246094 8.160156 13.554688 7.863281 C 14.679688 7.574219 14.351562 7.210938 15.816406 7.066406 C 15.972656 7.152344 15.457031 7.199219 15.332031 7.316406 C 16.269531 6.855469 18.292969 6.960938 19.613281 7.566406 C 21.136719 8.285156 22.855469 10.394531 22.925781 12.378906 L 23 12.398438 C 22.960938 13.191406 23.121094 14.101562 22.84375 14.941406 L 23.03125 14.542969 C 23.054688 15.144531 22.855469 15.441406 22.675781 15.957031 L 22.355469 16.121094 C 22.089844 16.628906 22.378906 16.445312 22.191406 16.851562 C 21.777344 17.21875 20.941406 17.996094 20.671875 18.070312 C 20.476562 18.066406 20.800781 17.839844 20.847656 17.75 C 20.292969 18.128906 20.402344 18.316406 19.558594 18.550781 L 19.535156 18.496094 C 17.457031 19.472656 14.566406 17.535156 14.605469 14.886719 C 14.582031 15.054688 14.542969 15.011719 14.496094 15.082031 C 14.386719 13.71875 15.125 12.355469 16.367188 11.792969 C 17.582031 11.191406 19.003906 11.4375 19.875 12.25 C 19.394531 11.621094 18.441406 10.960938 17.316406 11.023438 C 16.214844 11.042969 15.179688 11.742188 14.835938 12.503906 C 14.269531 12.859375 14.207031 13.875 13.957031 14.0625 C 13.628906 16.496094 14.582031 17.550781 16.199219 18.789062 C 16.324219 18.875 16.34375 18.925781 16.332031 18.96875 C 18.238281 19.679688 20.210938 19.507812 21.859375 18.1875 C 22.28125 17.859375 22.738281 17.304688 22.871094 17.296875 C 22.671875 17.597656 22.902344 17.441406 22.75 17.707031 C 23.167969 17.03125 22.570312 17.429688 23.183594 16.542969 L 23.410156 16.851562 C 23.324219 16.292969 24.105469 15.613281 24.027344 14.726562 C 24.207031 14.457031 24.226562 15.019531 24.035156 15.640625 C 24.300781 14.949219 24.105469 14.839844 24.175781 14.269531 C 24.246094 14.460938 24.339844 14.664062 24.390625 14.867188 C 24.21875 14.199219 24.566406 13.742188 24.652344 13.355469 C 24.566406 13.316406 24.386719 13.652344 24.347656 12.863281 C 24.355469 12.519531 24.441406 12.679688 24.476562 12.597656 C 24.410156 12.558594 24.230469 12.292969 24.125 11.792969 C 24.203125 11.671875 24.332031 12.097656 24.441406 12.117188 C 24.371094 11.714844 24.253906 11.410156 24.25 11.101562 C 23.941406 10.457031 24.140625 11.191406 23.890625 10.824219 C 23.558594 9.800781 24.160156 10.589844 24.203125 10.121094 C 24.703125 10.84375 24.988281 11.964844 25.117188 12.425781 C 25.019531 11.863281 24.855469 11.316406 24.660156 10.785156 C 24.8125 10.847656 24.414062 9.621094 24.855469 10.433594 C 24.386719 8.699219 22.839844 7.078125 21.417969 6.316406 C 21.589844 6.476562 21.808594 6.675781 21.730469 6.707031 C 21.027344 6.289062 21.152344 6.253906 21.050781 6.078125 C 20.472656 5.84375 20.433594 6.097656 20.050781 6.078125 C 18.964844 5.5 18.757812 5.5625 17.761719 5.203125 L 17.804688 5.414062 C 17.082031 5.175781 16.964844 5.503906 16.1875 5.414062 C 16.140625 5.378906 16.4375 5.28125 16.679688 5.246094 C 15.988281 5.339844 16.019531 5.109375 15.339844 5.269531 C 15.507812 5.152344 15.683594 5.074219 15.863281 4.972656 Z M 16.425781 5.105469 C 16.625 5.140625 16.855469 5.167969 16.824219 5.214844 C 17.042969 5.167969 17.089844 5.125 16.425781 5.105469 Z M 16.824219 5.214844 L 16.683594 5.246094 L 16.8125 5.234375 Z M 7.640625 9.636719 C 7.699219 10.175781 7.238281 10.382812 7.746094 10.027344 C 8.015625 9.417969 7.636719 9.859375 7.640625 9.636719 Z M 7.226562 11.347656 C 6.902344 11.757812 7.082031 11.847656 7.046875 12.128906 C 7.164062 11.769531 7.183594 11.554688 7.226562 11.347656 Z M 20.523438 13.839844 C 20.476562 13.839844 20.417969 13.957031 20.386719 14.085938 C 20.457031 14.121094 20.511719 14.558594 20.582031 14.289062 C 20.605469 13.953125 20.570312 13.839844 20.523438 13.839844 Z M 24.605469 14.972656 L 24.550781 15.109375 C 24.449219 15.824219 24.230469 16.527344 23.902344 17.183594 C 24.269531 16.492188 24.503906 15.738281 24.605469 14.972656 Z M 20.285156 15.222656 C 20.230469 15.472656 20.097656 15.683594 19.972656 15.910156 C 19.273438 16.347656 19.90625 15.648438 19.972656 15.382812 C 19.222656 16.328125 19.867188 15.949219 19.839844 16.214844 C 20.0625 15.90625 20.226562 15.570312 20.285156 15.222656 Z M 18.761719 16.664062 C 18.457031 16.738281 18.152344 16.738281 17.839844 16.710938 C 17.464844 16.714844 17.910156 16.902344 18.394531 16.980469 C 18.53125 16.871094 18.652344 16.769531 18.761719 16.664062 Z M 14.054688 16.714844 C 14.136719 17.015625 14.304688 17.273438 14.460938 17.539062 L 14.347656 17.199219 C 14.214844 17.058594 14.140625 16.886719 14.054688 16.714844 Z M 13.765625 17.222656 L 13.714844 17.484375 C 13.957031 17.816406 14.152344 18.179688 14.464844 18.4375 C 14.242188 18 14.074219 17.816406 13.765625 17.222656 Z M 14.238281 17.613281 C 15.109375 19.175781 17.777344 20.351562 19.175781 19.765625 C 18.527344 19.792969 17.707031 19.78125 16.980469 19.511719 C 16.699219 19.367188 16.316406 19.074219 16.328125 18.988281 C 16.316406 19.023438 16.292969 19.058594 16.304688 19.117188 C 15.769531 18.867188 15.277344 18.488281 14.871094 18.023438 C 15.085938 18.335938 15.316406 18.640625 15.617188 18.878906 C 15.113281 18.710938 14.433594 17.65625 14.238281 17.613281 Z M 14.238281 17.613281 "/>
</g>
</svg>
