
<svg xmlns="http://www.w3.org/2000/svg" xmlns:xlink="http://www.w3.org/1999/xlink" width="32px" height="32px" viewBox="0 0 32 32" version="1.1">
<g id="surface1">
<path style=" stroke:none;fill-rule:nonzero;fill:rgb(29.411766%,42.352942%,69.01961%);fill-opacity:1;" d="M 5.578125 2.324219 L 26.570312 2.324219 C 28.367188 2.324219 29.824219 3.78125 29.824219 5.578125 L 29.824219 26.570312 C 29.824219 28.367188 28.367188 29.824219 26.570312 29.824219 L 5.578125 29.824219 C 3.78125 29.824219 2.324219 28.367188 2.324219 26.570312 L 2.324219 5.578125 C 2.324219 3.78125 3.78125 2.324219 5.578125 2.324219 Z M 5.578125 2.324219 "/>
<path style=" stroke:none;fill-rule:nonzero;fill:rgb(0%,0%,0%);fill-opacity:0.290196;" d="M 16.171875 6.113281 C 10.824219 6.113281 6.492188 10.453125 6.488281 15.796875 L 6.488281 23.292969 C 6.492188 24.507812 7.476562 25.480469 8.691406 25.480469 L 16.171875 25.480469 C 21.519531 25.480469 25.855469 21.144531 25.855469 15.796875 C 25.855469 10.449219 21.519531 6.113281 16.171875 6.113281 Z M 19.011719 8.414062 C 21.511719 8.414062 23.558594 10.449219 23.558594 12.945312 C 23.558594 15.441406 21.511719 17.488281 19.011719 17.488281 L 16.617188 17.488281 L 16.617188 19.898438 C 16.617188 22.394531 14.566406 24.441406 12.074219 24.441406 C 9.574219 24.441406 7.527344 22.394531 7.527344 19.898438 C 7.527344 17.402344 9.574219 15.355469 12.074219 15.355469 L 14.46875 15.355469 L 14.46875 12.945312 C 14.46875 10.449219 16.515625 8.414062 19.011719 8.414062 Z M 19.011719 10.535156 C 17.667969 10.535156 16.601562 11.597656 16.601562 12.945312 L 16.601562 15.371094 L 19.011719 15.371094 C 20.359375 15.371094 21.4375 14.292969 21.4375 12.945312 C 21.4375 11.597656 20.359375 10.535156 19.011719 10.535156 Z M 12.074219 17.488281 C 10.722656 17.488281 9.648438 18.550781 9.648438 19.898438 C 9.648438 21.246094 10.722656 22.324219 12.074219 22.324219 C 13.417969 22.324219 14.496094 21.246094 14.496094 19.898438 L 14.496094 17.488281 Z M 12.074219 17.488281 "/>
<path style=" stroke:none;fill-rule:nonzero;fill:rgb(97.647059%,97.647059%,97.647059%);fill-opacity:1;" d="M 19.015625 8.410156 C 16.507812 8.410156 14.46875 10.441406 14.46875 12.953125 L 14.46875 15.363281 L 12.566406 15.363281 C 11.972656 15.363281 11.492188 15.832031 11.496094 16.425781 C 11.496094 17.011719 11.96875 17.480469 12.554688 17.480469 L 14.128906 17.480469 C 14.316406 17.480469 14.46875 17.632812 14.46875 17.820312 L 14.46875 19.902344 C 14.46875 21.226562 13.394531 22.296875 12.070312 22.296875 C 11.621094 22.296875 11.511719 22.238281 11.207031 22.238281 C 10.5625 22.238281 10.132812 22.671875 10.132812 23.265625 C 10.132812 23.753906 10.550781 24.175781 11.066406 24.308594 C 11.417969 24.402344 11.691406 24.445312 12.070312 24.445312 C 14.582031 24.445312 16.617188 22.410156 16.617188 19.898438 L 16.617188 17.488281 L 18.519531 17.488281 C 19.113281 17.488281 19.59375 17.023438 19.59375 16.429688 C 19.59375 15.839844 19.121094 15.371094 18.535156 15.371094 L 16.957031 15.371094 C 16.769531 15.371094 16.617188 15.222656 16.617188 15.035156 L 16.617188 12.949219 C 16.617188 11.628906 17.691406 10.554688 19.015625 10.554688 C 19.464844 10.554688 19.574219 10.613281 19.878906 10.613281 C 20.523438 10.613281 20.953125 10.183594 20.953125 9.589844 C 20.953125 9.097656 20.535156 8.675781 20.019531 8.542969 C 19.667969 8.449219 19.398438 8.410156 19.015625 8.410156 Z M 19.015625 8.410156 "/>
<path style=" stroke:none;fill-rule:nonzero;fill:rgb(78.431374%,82.745099%,89.411765%);fill-opacity:1;" d="M 24.1875 23.808594 C 24.1875 23.808594 24.1875 23.402344 24.1875 23.402344 L 24.003906 23.824219 C 24.003906 23.824219 23.824219 23.402344 23.824219 23.402344 L 23.824219 23.808594 L 23.722656 23.808594 L 23.722656 23.171875 L 23.828125 23.171875 C 23.828125 23.171875 24.003906 23.578125 24.003906 23.578125 L 24.179688 23.171875 L 24.289062 23.171875 L 24.289062 23.808594 Z M 23.433594 23.277344 L 23.433594 23.808594 L 23.328125 23.808594 L 23.328125 23.277344 L 23.144531 23.277344 L 23.144531 23.171875 L 23.613281 23.171875 L 23.613281 23.277344 "/>
</g>
</svg>
