
<svg xmlns="http://www.w3.org/2000/svg" xmlns:xlink="http://www.w3.org/1999/xlink" width="32px" height="32px" viewBox="0 0 32 32" version="1.1">
<g id="surface1">
<path style=" stroke:none;fill-rule:nonzero;fill:rgb(26.666668%,36.470589%,65.490198%);fill-opacity:1;" d="M 5.578125 2.324219 L 26.570312 2.324219 C 28.367188 2.324219 29.824219 3.78125 29.824219 5.578125 L 29.824219 26.570312 C 29.824219 28.367188 28.367188 29.824219 26.570312 29.824219 L 5.578125 29.824219 C 3.78125 29.824219 2.324219 28.367188 2.324219 26.570312 L 2.324219 5.578125 C 2.324219 3.78125 3.78125 2.324219 5.578125 2.324219 Z M 5.578125 2.324219 "/>
<path style=" stroke:none;fill-rule:nonzero;fill:rgb(97.647059%,97.647059%,97.647059%);fill-opacity:1;" d="M 21.691406 5.792969 C 21.636719 5.824219 21.628906 5.847656 21.644531 5.824219 C 21.113281 6.714844 21.105469 7.902344 20.867188 8.957031 C 20.867188 8.960938 20.867188 8.964844 20.867188 8.96875 C 20.863281 8.984375 20.871094 9 20.867188 9.015625 C 20.75 10.148438 20.371094 11.304688 20.636719 12.394531 C 20.652344 12.417969 20.660156 12.441406 20.667969 12.46875 C 20.667969 12.476562 20.667969 12.492188 20.667969 12.5 C 20.671875 12.503906 20.664062 12.507812 20.667969 12.515625 C 20.671875 12.519531 20.691406 12.507812 20.699219 12.515625 C 20.753906 12.59375 20.824219 12.660156 20.867188 12.667969 C 20.898438 12.675781 20.957031 12.667969 21.066406 12.589844 C 21.183594 12.507812 21.246094 12.347656 21.277344 12.132812 C 21.292969 12.105469 21.308594 12.082031 21.324219 12.058594 C 21.324219 12.046875 21.324219 12.035156 21.324219 12.027344 C 21.332031 12 21.339844 11.972656 21.355469 11.949219 C 21.359375 11.945312 21.363281 11.941406 21.371094 11.933594 C 21.839844 10.066406 22.167969 8.105469 22.042969 6.1875 C 22.027344 6.09375 22.011719 6.019531 21.921875 5.914062 C 21.863281 5.84375 21.8125 5.800781 21.800781 5.792969 C 21.785156 5.78125 21.792969 5.789062 21.738281 5.792969 C 21.730469 5.792969 21.726562 5.792969 21.722656 5.792969 C 21.703125 5.792969 21.703125 5.792969 21.691406 5.792969 Z M 26 6.707031 C 25.191406 7.101562 24.769531 8.050781 24.214844 8.816406 C 24.210938 8.84375 24.207031 8.871094 24.199219 8.894531 C 24.1875 8.910156 24.179688 8.925781 24.167969 8.941406 C 23.457031 10.195312 22.554688 11.445312 22.457031 12.898438 C 22.457031 12.90625 22.457031 12.917969 22.457031 12.925781 C 22.464844 13.144531 22.597656 13.265625 22.730469 13.292969 C 22.863281 13.324219 23.097656 13.246094 23.191406 13.097656 C 23.199219 13.085938 23.207031 13.074219 23.21875 13.066406 C 23.21875 13.058594 23.21875 13.054688 23.21875 13.050781 C 23.21875 13.039062 23.21875 13.027344 23.21875 13.019531 C 24.507812 11.25 25.476562 9.160156 26.277344 7.121094 C 26.277344 7.113281 26.277344 7.109375 26.277344 7.105469 C 26.332031 6.972656 26.339844 6.933594 26.292969 6.832031 C 26.277344 6.800781 26.125 6.699219 26.046875 6.707031 C 26.035156 6.714844 26.011719 6.703125 26 6.707031 Z M 13.578125 7.273438 C 13.511719 7.273438 13.445312 7.277344 13.378906 7.289062 C 13.246094 7.3125 13.058594 7.433594 12.917969 7.488281 C 12.425781 7.675781 12.152344 8.097656 12.035156 8.589844 C 11.914062 9.089844 11.953125 9.648438 12.035156 10.222656 C 12.113281 10.792969 12.230469 11.394531 12.355469 11.84375 C 12.460938 12.230469 12.546875 12.417969 12.582031 12.546875 L 12.582031 12.652344 C 12.582031 12.695312 12.550781 12.695312 12.523438 12.730469 C 12.507812 12.738281 12.539062 12.777344 12.523438 12.777344 C 12.488281 12.800781 12.445312 12.820312 12.402344 12.820312 C 12.3125 12.824219 12.246094 12.796875 12.15625 12.777344 C 12.09375 12.761719 12.015625 12.714844 12.035156 12.730469 C 12.003906 12.710938 11.960938 12.699219 11.941406 12.667969 C 11.941406 12.664062 11.945312 12.660156 11.941406 12.652344 C 11.921875 12.613281 11.894531 12.519531 11.863281 12.453125 C 11.796875 12.304688 11.746094 12.136719 11.652344 11.917969 C 11.460938 11.484375 11.207031 10.953125 10.933594 10.453125 C 10.660156 9.949219 10.34375 9.496094 9.988281 9.183594 C 9.808594 9.027344 9.585938 8.871094 9.375 8.816406 C 9.167969 8.765625 8.929688 8.800781 8.71875 8.910156 C 8.167969 9.214844 7.859375 9.703125 7.738281 10.222656 C 7.621094 10.75 7.667969 11.359375 7.753906 11.886719 C 7.84375 12.417969 7.988281 12.859375 8.074219 13.21875 C 8.113281 13.371094 8.167969 13.511719 8.183594 13.585938 C 8.183594 13.660156 8.140625 13.847656 8.121094 13.921875 C 8.027344 14.242188 7.816406 14.777344 7.816406 14.777344 C 7.816406 14.777344 3.550781 26.113281 12.707031 25.320312 C 12.78125 25.316406 12.941406 25.261719 13.011719 25.261719 C 14.808594 24.898438 16.511719 24.355469 18.023438 23.746094 C 18.320312 23.605469 18.714844 23.464844 19.152344 23.257812 C 20.03125 22.847656 21.125 22.324219 22.179688 21.746094 C 23.238281 21.164062 24.226562 20.539062 24.976562 19.878906 C 25.726562 19.222656 26.269531 18.507812 26.167969 17.785156 C 26.011719 16.628906 25.238281 15.761719 24.214844 15.097656 C 23.183594 14.429688 21.902344 13.964844 20.621094 13.628906 C 19.339844 13.292969 18.101562 13.011719 17.152344 12.867188 C 16.675781 12.792969 16.222656 12.78125 15.945312 12.730469 C 15.863281 12.714844 15.824219 12.683594 15.777344 12.667969 C 15.753906 12.664062 15.753906 12.667969 15.730469 12.652344 C 15.703125 12.636719 15.65625 12.636719 15.640625 12.605469 C 15.625 12.578125 15.640625 12.53125 15.640625 12.5 C 15.640625 12.488281 15.640625 12.472656 15.640625 12.453125 L 15.640625 11.75 C 15.625 11.167969 15.578125 10.394531 15.457031 9.671875 C 15.332031 8.949219 15.152344 8.246094 14.753906 7.777344 C 14.519531 7.5 14.183594 7.316406 13.777344 7.289062 C 13.714844 7.28125 13.644531 7.277344 13.578125 7.273438 Z M 13.578125 7.273438 "/>
</g>
</svg>
