
<svg xmlns="http://www.w3.org/2000/svg" xmlns:xlink="http://www.w3.org/1999/xlink" width="32px" height="32px" viewBox="0 0 32 32" version="1.1">
<g id="surface1">
<path style=" stroke:none;fill-rule:nonzero;fill:rgb(40.784314%,61.960787%,25.882354%);fill-opacity:1;" d="M 5.578125 2.324219 L 26.570312 2.324219 C 28.367188 2.324219 29.824219 3.78125 29.824219 5.578125 L 29.824219 26.570312 C 29.824219 28.367188 28.367188 29.824219 26.570312 29.824219 L 5.578125 29.824219 C 3.78125 29.824219 2.324219 28.367188 2.324219 26.570312 L 2.324219 5.578125 C 2.324219 3.78125 3.78125 2.324219 5.578125 2.324219 Z M 5.578125 2.324219 "/>
<path style=" stroke:none;fill-rule:nonzero;fill:rgb(94.901961%,94.901961%,94.901961%);fill-opacity:1;" d="M 15.207031 5.152344 C 11.019531 5.152344 8.625 6.878906 7.0625 8.8125 C 8.261719 9.140625 9.082031 9.410156 9.347656 9.5 C 9.351562 9.316406 9.378906 7.691406 9.378906 7.691406 L 9.425781 7.632812 L 9.46875 7.617188 C 9.835938 7.667969 17.679688 8.824219 20.988281 10.753906 C 21.398438 10.996094 21.617188 11.257812 21.871094 11.515625 C 22.785156 12.460938 23.996094 16.378906 24.125 17.191406 L 24.082031 17.285156 C 24.035156 17.300781 23.902344 17.390625 23.753906 17.492188 C 22.980469 18.03125 21.195312 19.28125 18.882812 19.074219 C 16.800781 18.890625 14.074219 17.707031 10.800781 15.550781 C 10.941406 15.890625 11.625 17.488281 11.738281 17.761719 L 11.785156 17.835938 C 12.257812 18.082031 16.804688 20.394531 19.058594 20.347656 C 20.882812 20.308594 22.839844 19.425781 23.617188 18.957031 L 23.855469 18.910156 C 23.925781 18.964844 23.910156 19.066406 23.886719 19.167969 C 23.839844 19.386719 23.738281 19.796875 23.664062 19.988281 L 23.605469 20.152344 C 23.515625 20.386719 23.441406 20.613281 23.273438 20.75 C 22.816406 21.167969 22.074219 21.488281 20.929688 21.988281 C 19.15625 22.765625 16.277344 23.261719 13.605469 23.246094 C 12.652344 23.222656 11.730469 23.113281 10.917969 23.019531 C 9.222656 22.828125 7.839844 22.683594 7.019531 23.320312 C 9.019531 25.582031 11.949219 26.996094 15.207031 26.996094 C 21.238281 26.996094 26.128906 22.105469 26.128906 16.074219 C 26.128906 10.042969 21.238281 5.152344 15.207031 5.152344 Z M 18.089844 10.949219 C 17.253906 10.960938 16.464844 11.253906 15.847656 11.832031 C 15.191406 12.441406 14.820312 13.277344 14.789062 14.175781 C 14.726562 16.027344 16.179688 17.589844 18.03125 17.65625 C 18.929688 17.683594 19.765625 17.359375 20.421875 16.746094 C 21.074219 16.136719 21.464844 15.308594 21.496094 14.414062 C 21.558594 12.5625 20.105469 11.015625 18.253906 10.949219 C 18.199219 10.945312 18.144531 10.949219 18.089844 10.949219 Z M 18 11.917969 C 18.078125 11.914062 18.144531 11.917969 18.222656 11.917969 C 19.519531 11.964844 20.539062 13.058594 20.496094 14.355469 C 20.476562 14.980469 20.207031 15.554688 19.746094 15.984375 C 19.289062 16.410156 18.6875 16.644531 18.058594 16.625 C 16.769531 16.578125 15.761719 15.46875 15.804688 14.175781 C 15.824219 13.550781 16.097656 12.972656 16.550781 12.546875 C 16.949219 12.171875 17.460938 11.953125 18 11.917969 Z M 18.523438 13.175781 C 17.960938 13.175781 17.507812 13.488281 17.507812 13.863281 C 17.507812 14.234375 17.960938 14.535156 18.523438 14.535156 C 19.082031 14.535156 19.523438 14.234375 19.523438 13.863281 C 19.523438 13.488281 19.082031 13.175781 18.523438 13.175781 Z M 18.523438 13.175781 "/>
</g>
</svg>
