<!-- color: #d6e4eb -->
<svg xmlns="http://www.w3.org/2000/svg" xmlns:xlink="http://www.w3.org/1999/xlink" width="32px" height="32px" viewBox="0 0 32 32" version="1.1">
<defs>
<clipPath id="clip1">
  <path d="M 6.746094 7.871094 L 17.332031 7.871094 L 17.332031 15.417969 L 6.746094 15.417969 Z M 6.746094 7.871094 "/>
</clipPath>
<clipPath id="clip2">
  <path d="M 4.890625 3.367188 L 19.191406 3.367188 C 20.019531 3.367188 20.695312 4.042969 20.695312 4.871094 L 20.695312 19.171875 C 20.695312 20.003906 20.019531 20.675781 19.191406 20.675781 L 4.890625 20.675781 C 4.058594 20.675781 3.386719 20.003906 3.386719 19.171875 L 3.386719 4.871094 C 3.386719 4.042969 4.058594 3.367188 4.890625 3.367188 Z M 4.890625 3.367188 "/>
</clipPath>
</defs>
<g id="surface1">
<path style="fill-rule:nonzero;fill:rgb(92.156863%,92.156863%,92.156863%);fill-opacity:1;stroke-width:28.032269;stroke-linecap:butt;stroke-linejoin:miter;stroke:rgb(90.980393%,13.725491%,13.725491%);stroke-opacity:1;stroke-miterlimit:4;" d="M 82.4375 26.4375 L 429.5625 26.4375 C 460.5 26.4375 485.5625 51.5 485.5625 82.4375 L 485.5625 429.5625 C 485.5625 460.5 460.5 485.5625 429.5625 485.5625 L 82.4375 485.5625 C 51.5 485.5625 26.4375 460.5 26.4375 429.5625 L 26.4375 82.4375 C 26.4375 51.5 51.5 26.4375 82.4375 26.4375 Z M 82.4375 26.4375 " transform="matrix(0.0625,0,0,0.0625,0,0)"/>
<g clip-path="url(#clip1)" clip-rule="nonzero">
<g clip-path="url(#clip2)" clip-rule="nonzero">
<path style=" stroke:none;fill-rule:nonzero;fill:rgb(90.980393%,13.725491%,13.725491%);fill-opacity:1;" d="M 17.308594 8.886719 C 16.019531 10.035156 12.160156 14.363281 11.503906 14.363281 C 11.074219 14.363281 10.714844 14.0625 10.59375 13.601562 C 10.523438 13.320312 10.628906 13.675781 6.769531 15.410156 C 7.160156 15.160156 9.863281 13.082031 10.214844 12.828125 C 10.566406 12.578125 12.304688 11.359375 12.8125 10.972656 C 13.742188 10.246094 14.101562 9.664062 14.101562 8.871094 C 14.101562 8.253906 13.722656 7.878906 13.121094 7.878906 C 12.746094 7.878906 12.46875 7.96875 12.074219 8.199219 C 11.417969 8.589844 10.835938 9.066406 10.472656 9.488281 C 9.820312 10.300781 9.238281 12.242188 9.238281 13.671875 C 9.238281 14.714844 9.769531 15.367188 10.644531 15.367188 C 11.660156 15.367188 15.226562 11.894531 16.585938 10.5 L 17.308594 8.882812 M 10.558594 11.980469 C 10.851562 10.089844 11.644531 8.621094 12.382812 8.621094 C 12.675781 8.621094 12.863281 8.925781 12.863281 9.347656 C 12.863281 10.230469 12.402344 10.761719 10.558594 11.980469 "/>
</g>
</g>
<path style=" stroke:none;fill-rule:nonzero;fill:rgb(60.000002%,60.000002%,60.000002%);fill-opacity:1;" d="M 20.292969 18.136719 L 19.230469 18.136719 L 18.855469 17.773438 C 20.171875 16.242188 20.964844 14.253906 20.964844 12.089844 C 20.964844 7.261719 17.050781 3.347656 12.226562 3.347656 C 7.402344 3.347656 3.488281 7.261719 3.488281 12.089844 C 3.488281 16.914062 7.402344 20.824219 12.226562 20.824219 C 14.390625 20.824219 16.378906 20.035156 17.910156 18.714844 L 18.277344 19.089844 L 18.277344 20.152344 L 24.996094 26.863281 L 27 24.859375 Z M 12.226562 18.136719 C 8.878906 18.136719 6.175781 15.433594 6.175781 12.089844 C 6.175781 8.738281 8.878906 6.039062 12.226562 6.039062 C 15.574219 6.039062 18.277344 8.738281 18.277344 12.089844 C 18.277344 15.433594 15.574219 18.136719 12.226562 18.136719 Z M 12.226562 18.136719 "/>
</g>
</svg>
