
<svg xmlns="http://www.w3.org/2000/svg" xmlns:xlink="http://www.w3.org/1999/xlink" width="32px" height="32px" viewBox="0 0 32 32" version="1.1">
<g id="surface1">
<path style="fill-rule:nonzero;fill:rgb(26.274511%,49.019608%,77.64706%);fill-opacity:1;stroke-width:5.7;stroke-linecap:butt;stroke-linejoin:miter;stroke:rgb(16.078432%,32.549021%,53.725493%);stroke-opacity:1;stroke-miterlimit:4;" d="M 22.3125 9.296875 L 106.28125 9.296875 C 113.46875 9.296875 119.296875 15.125 119.296875 22.3125 L 119.296875 106.28125 C 119.296875 113.46875 113.46875 119.296875 106.28125 119.296875 L 22.3125 119.296875 C 15.125 119.296875 9.296875 113.46875 9.296875 106.28125 L 9.296875 22.3125 C 9.296875 15.125 15.125 9.296875 22.3125 9.296875 Z M 22.3125 9.296875 " transform="matrix(0.25,0,0,0.25,0,0)"/>
<path style=" stroke:none;fill-rule:nonzero;fill:rgb(97.647059%,97.647059%,97.647059%);fill-opacity:1;" d="M 26.089844 28.871094 C 27.824219 17.722656 23.160156 14.074219 24.027344 12.582031 C 24.660156 11.496094 27.457031 11.980469 27.457031 11.980469 C 25.277344 10.160156 23.332031 10.078125 21.457031 10.554688 C 19.175781 7.105469 9.847656 2.554688 6.015625 8.839844 C 6.015625 8.839844 3.820312 9.566406 4 10.371094 C 4.175781 11.160156 7.472656 9.996094 12.148438 12.207031 C 11.871094 15.433594 13.300781 17.496094 15.9375 18.738281 C 15.214844 17.449219 14.191406 16.265625 15.230469 14.175781 C 18.550781 16.347656 20.246094 19.148438 21.679688 21.957031 C 21.359375 19.050781 18.480469 11.839844 9.351562 9.738281 C 16.605469 3.808594 27.121094 16.980469 26.089844 28.871094 Z M 26.089844 28.871094 "/>
</g>
</svg>
