
<svg xmlns="http://www.w3.org/2000/svg" xmlns:xlink="http://www.w3.org/1999/xlink" width="32px" height="32px" viewBox="0 0 32 32" version="1.1">
<g id="surface1">
<path style="fill-rule:nonzero;fill:rgb(20%,20%,20%);fill-opacity:1;stroke-width:5.286023;stroke-linecap:butt;stroke-linejoin:miter;stroke:rgb(90.196079%,90.196079%,90.196079%);stroke-opacity:1;stroke-miterlimit:4;" d="M 22.189725 161.251112 L 122.30807 161.251112 C 129.734043 161.251112 135.748905 167.265974 135.748905 174.691947 L 135.748905 274.810292 C 135.748905 282.236266 129.734043 288.251127 122.30807 288.251127 L 22.189725 288.251127 C 14.763752 288.251127 8.74889 282.236266 8.74889 274.810292 L 8.74889 174.691947 C 8.74889 167.265974 14.763752 161.251112 22.189725 161.251112 Z M 22.189725 161.251112 " transform="matrix(0.221457,0,0,0.221457,0,-33.772634)"/>
<path style=" stroke:none;fill-rule:nonzero;fill:rgb(17.254902%,90.980393%,10.980392%);fill-opacity:1;" d="M 19.6875 11.078125 L 19.6875 10.453125 L 24.777344 10.453125 L 24.777344 11.703125 L 19.6875 11.703125 Z M 19.6875 11.078125 "/>
<path style="fill-rule:nonzero;fill:rgb(17.254902%,90.980393%,10.980392%);fill-opacity:1;stroke-width:2;stroke-linecap:butt;stroke-linejoin:miter;stroke:rgb(17.254902%,90.980393%,10.980392%);stroke-opacity:1;stroke-miterlimit:4;" d="M 92.473755 145.029961 L 166.973755 151.592461 L 92.223755 124.654961 Z M 92.473755 145.029961 " transform="matrix(0.0625,0,0,0.0625,8.138359,-1.99406)"/>
<path style="fill-rule:nonzero;fill:rgb(17.254902%,90.980393%,10.980392%);fill-opacity:1;stroke-width:2;stroke-linecap:butt;stroke-linejoin:miter;stroke:rgb(17.254902%,90.980393%,10.980392%);stroke-opacity:1;stroke-miterlimit:4;" d="M 92.348755 181.342461 L 167.223755 173.092461 L 92.161255 201.717461 Z M 92.348755 181.342461 " transform="matrix(0.0625,0,0,0.0625,8.138359,-1.99406)"/>
<path style="fill-rule:nonzero;fill:rgb(17.254902%,90.980393%,10.980392%);fill-opacity:1;stroke-width:2;stroke-linecap:butt;stroke-linejoin:miter;stroke:rgb(17.254902%,90.980393%,10.980392%);stroke-opacity:1;stroke-miterlimit:4;" d="M 166.223755 151.592461 L 91.973755 145.029961 L 166.536255 172.404961 Z M 166.223755 151.592461 " transform="matrix(0.0625,0,0,0.0625,8.138359,-1.99406)"/>
<path style="fill-rule:nonzero;fill:rgb(17.254902%,90.980393%,10.980392%);fill-opacity:1;stroke-width:2;stroke-linecap:butt;stroke-linejoin:miter;stroke:rgb(17.254902%,90.980393%,10.980392%);stroke-opacity:1;stroke-miterlimit:4;" d="M 166.036255 172.842461 L 91.848755 181.279961 L 166.223755 152.467461 Z M 166.036255 172.842461 " transform="matrix(0.0625,0,0,0.0625,8.138359,-1.99406)"/>
<path style=" stroke:none;fill-rule:nonzero;fill:rgb(17.254902%,90.980393%,10.980392%);fill-opacity:1;" d="M 10 10.542969 C 9.371094 10.730469 8.746094 10.824219 8.121094 10.824219 C 7.097656 10.824219 6.3125 10.589844 5.761719 10.128906 C 5.210938 9.667969 4.933594 9.011719 4.933594 8.164062 C 4.933594 7.332031 5.207031 6.679688 5.75 6.210938 C 6.292969 5.746094 7.050781 5.511719 8.023438 5.511719 C 8.640625 5.511719 9.261719 5.589844 9.894531 5.753906 L 9.894531 6.527344 C 9.199219 6.308594 8.609375 6.203125 8.121094 6.203125 C 7.480469 6.203125 6.976562 6.378906 6.613281 6.726562 C 6.246094 7.074219 6.066406 7.554688 6.066406 8.164062 C 6.066406 8.777344 6.261719 9.261719 6.648438 9.609375 C 7.039062 9.957031 7.578125 10.128906 8.265625 10.128906 C 8.777344 10.128906 9.355469 10.027344 10 9.816406 L 10 10.542969 "/>
<path style=" stroke:none;fill-rule:nonzero;fill:rgb(17.254902%,90.980393%,10.980392%);fill-opacity:1;" d="M 11.027344 7.007812 L 11.027344 5.621094 L 12.621094 5.621094 L 12.621094 7.007812 L 11.027344 7.007812 M 11.027344 10.707031 L 11.027344 9.320312 L 12.621094 9.320312 L 12.621094 10.707031 L 11.027344 10.707031 "/>
</g>
</svg>
