
<svg xmlns="http://www.w3.org/2000/svg" xmlns:xlink="http://www.w3.org/1999/xlink" width="32px" height="32px" viewBox="0 0 32 32" version="1.1">
<g id="surface1">
<path style="fill-rule:nonzero;fill:rgb(91.37255%,55.686277%,74.901962%);fill-opacity:1;stroke-width:28.191782;stroke-linecap:butt;stroke-linejoin:miter;stroke:rgb(59.607846%,4.705882%,34.117648%);stroke-opacity:1;stroke-miterlimit:4;" d="M 81.5 25.0625 L 430.5 25.0625 C 461.6875 25.0625 486.9375 50.3125 486.9375 81.5 L 486.9375 430.5 C 486.9375 461.6875 461.6875 486.9375 430.5 486.9375 L 81.5 486.9375 C 50.3125 486.9375 25.0625 461.6875 25.0625 430.5 L 25.0625 81.5 C 25.0625 50.3125 50.3125 25.0625 81.5 25.0625 Z M 81.5 25.0625 " transform="matrix(0.0625,0,0,0.0625,0,0)"/>
<path style=" stroke:none;fill-rule:nonzero;fill:rgb(77.64706%,21.568628%,42.745098%);fill-opacity:1;" d="M 15.921875 5.902344 C 10.320312 5.902344 5.777344 10.445312 5.777344 16.046875 C 5.777344 21.652344 10.320312 26.195312 15.921875 26.195312 C 21.527344 26.195312 26.070312 21.652344 26.070312 16.046875 C 26.070312 10.445312 21.527344 5.902344 15.921875 5.902344 Z M 15.921875 7.488281 C 18.089844 7.488281 20.0625 8.292969 21.570312 9.617188 C 20.460938 10.972656 18.917969 11.953125 17.101562 12.660156 C 16.121094 10.8125 15.039062 9.148438 13.933594 7.722656 C 14.570312 7.574219 15.238281 7.488281 15.921875 7.488281 Z M 12.277344 8.300781 C 13.324219 9.714844 14.414062 11.339844 15.4375 13.203125 C 13.054688 13.871094 10.332031 14.179688 7.550781 14.273438 C 8.109375 11.625 9.886719 9.425781 12.277344 8.300781 Z M 22.550781 10.617188 C 23.738281 12.066406 24.457031 13.925781 24.484375 15.941406 C 22.402344 15.554688 20.410156 15.425781 18.527344 15.683594 C 18.285156 15.101562 18.042969 14.539062 17.777344 13.988281 C 19.574219 13.230469 21.210938 12.148438 22.550781 10.617188 Z M 16.152344 14.570312 C 16.386719 15.042969 16.613281 15.527344 16.832031 16.027344 C 14.09375 16.796875 11.640625 18.554688 9.542969 21.753906 C 8.183594 20.238281 7.363281 18.242188 7.363281 16.046875 C 7.363281 15.960938 7.371094 15.878906 7.371094 15.789062 C 10.183594 15.707031 13.289062 15.460938 16.152344 14.570312 Z M 20.433594 16.910156 C 21.667969 16.863281 22.984375 17.011719 24.375 17.414062 C 23.996094 19.78125 22.644531 21.816406 20.746094 23.113281 C 20.359375 20.988281 19.785156 18.953125 19.074219 17.050781 C 19.511719 16.980469 19.964844 16.929688 20.433594 16.910156 Z M 17.417969 17.433594 C 18.183594 19.386719 18.832031 21.539062 19.28125 23.925781 C 18.25 24.367188 17.113281 24.609375 15.921875 24.609375 C 13.929688 24.609375 12.097656 23.925781 10.640625 22.785156 C 11.828125 20.769531 14.199219 18.457031 17.417969 17.433594 Z M 17.417969 17.433594 "/>
</g>
</svg>
