
<svg xmlns="http://www.w3.org/2000/svg" xmlns:xlink="http://www.w3.org/1999/xlink" width="32px" height="32px" viewBox="0 0 32 32" version="1.1">
<g id="surface1">
<path style="fill-rule:nonzero;fill:rgb(92.54902%,92.54902%,92.54902%);fill-opacity:1;stroke-width:27.566824;stroke-linecap:butt;stroke-linejoin:miter;stroke:rgb(17.647059%,58.823532%,89.803922%);stroke-opacity:1;stroke-miterlimit:4;" d="M 85.3125 30.1875 L 426.6875 30.1875 C 457.0625 30.1875 481.8125 54.9375 481.8125 85.3125 L 481.8125 426.6875 C 481.8125 457.0625 457.0625 481.8125 426.6875 481.8125 L 85.3125 481.8125 C 54.9375 481.8125 30.1875 457.0625 30.1875 426.6875 L 30.1875 85.3125 C 30.1875 54.9375 54.9375 30.1875 85.3125 30.1875 Z M 85.3125 30.1875 " transform="matrix(0.0625,0,0,0.0625,0,0)"/>
<path style=" stroke:none;fill-rule:nonzero;fill:rgb(42.745098%,47.843137%,49.803922%);fill-opacity:1;" d="M 7.628906 4.566406 L 24.371094 4.566406 C 24.964844 4.566406 25.449219 5.046875 25.449219 5.644531 L 25.449219 26.417969 C 25.449219 27.011719 24.964844 27.496094 24.371094 27.496094 L 7.628906 27.496094 C 7.035156 27.496094 6.550781 27.011719 6.550781 26.417969 L 6.550781 5.644531 C 6.550781 5.046875 7.035156 4.566406 7.628906 4.566406 Z M 7.628906 4.566406 "/>
<path style=" stroke:none;fill-rule:nonzero;fill:rgb(8.235294%,28.627452%,36.470589%);fill-opacity:1;" d="M 7.957031 25.425781 L 15.90625 25.425781 C 16.066406 25.425781 16.199219 25.558594 16.199219 25.722656 L 16.199219 26.308594 C 16.199219 26.472656 16.066406 26.605469 15.90625 26.605469 L 7.957031 26.605469 C 7.792969 26.605469 7.660156 26.472656 7.660156 26.308594 L 7.660156 25.722656 C 7.660156 25.558594 7.792969 25.425781 7.957031 25.425781 Z M 7.957031 25.425781 "/>
<path style=" stroke:none;fill-rule:nonzero;fill:rgb(14.509805%,68.235296%,87.450981%);fill-opacity:1;" d="M 7.628906 4.503906 L 24.371094 4.503906 C 24.964844 4.503906 25.449219 4.925781 25.449219 5.449219 L 25.449219 23.65625 C 25.449219 24.179688 24.964844 24.601562 24.371094 24.601562 L 7.628906 24.601562 C 7.035156 24.601562 6.550781 24.179688 6.550781 23.65625 L 6.550781 5.449219 C 6.550781 4.925781 7.035156 4.503906 7.628906 4.503906 Z M 7.628906 4.503906 "/>
<path style=" stroke:none;fill-rule:nonzero;fill:rgb(92.156863%,92.156863%,92.156863%);fill-opacity:1;" d="M 20.878906 19.433594 C 22.222656 18.082031 22.898438 16.457031 22.898438 14.550781 C 22.898438 12.648438 22.226562 11.023438 20.878906 9.675781 C 19.53125 8.328125 17.90625 7.65625 16 7.65625 C 14.09375 7.65625 12.46875 8.328125 11.121094 9.675781 C 9.777344 11.023438 9.101562 12.648438 9.101562 14.550781 C 9.101562 16.457031 9.777344 18.082031 11.121094 19.433594 C 12.46875 20.777344 14.09375 21.449219 16 21.449219 C 17.90625 21.449219 19.53125 20.777344 20.878906 19.433594 Z M 20.878906 19.433594 "/>
<path style=" stroke:none;fill-rule:nonzero;fill:rgb(81.960785%,82.352942%,82.745099%);fill-opacity:1;" d="M 21.738281 26.015625 C 21.738281 26.308594 21.503906 26.542969 21.210938 26.542969 C 20.917969 26.542969 20.683594 26.308594 20.683594 26.015625 C 20.683594 25.722656 20.917969 25.488281 21.210938 25.488281 C 21.503906 25.488281 21.738281 25.722656 21.738281 26.015625 Z M 21.738281 26.015625 "/>
<path style=" stroke:none;fill-rule:nonzero;fill:rgb(81.960785%,82.352942%,82.745099%);fill-opacity:1;" d="M 23.371094 26.015625 C 23.371094 26.308594 23.136719 26.542969 22.84375 26.542969 C 22.550781 26.542969 22.316406 26.308594 22.316406 26.015625 C 22.316406 25.722656 22.550781 25.488281 22.84375 25.488281 C 23.136719 25.488281 23.371094 25.722656 23.371094 26.015625 Z M 23.371094 26.015625 "/>
</g>
</svg>
