
<svg xmlns="http://www.w3.org/2000/svg" xmlns:xlink="http://www.w3.org/1999/xlink" width="32px" height="32px" viewBox="0 0 32 32" version="1.1">
<g id="surface1">
<path style="fill-rule:nonzero;fill:rgb(100%,100%,100%);fill-opacity:1;stroke-width:28.191782;stroke-linecap:butt;stroke-linejoin:miter;stroke:rgb(19.215687%,46.27451%,88.627452%);stroke-opacity:1;stroke-miterlimit:4;" d="M 81.5 25.0625 L 430.5 25.0625 C 461.6875 25.0625 486.9375 50.3125 486.9375 81.5 L 486.9375 430.5 C 486.9375 461.6875 461.6875 486.9375 430.5 486.9375 L 81.5 486.9375 C 50.3125 486.9375 25.0625 461.6875 25.0625 430.5 L 25.0625 81.5 C 25.0625 50.3125 50.3125 25.0625 81.5 25.0625 Z M 81.5 25.0625 " transform="matrix(0.0625,0,0,0.0625,0,0)"/>
<path style=" stroke:none;fill-rule:nonzero;fill:rgb(19.215687%,46.27451%,88.627452%);fill-opacity:1;" d="M 12.46875 25.078125 L 8.960938 22.949219 L 8.949219 22.304688 C 8.941406 21.949219 8.953125 21.660156 8.976562 21.660156 C 8.996094 21.660156 9.453125 21.933594 9.984375 22.269531 C 10.519531 22.601562 10.988281 22.875 11.03125 22.875 C 11.074219 22.875 12.199219 21.957031 13.542969 20.832031 C 14.878906 19.707031 15.988281 18.789062 16 18.789062 C 16.011719 18.789062 17.121094 19.707031 18.457031 20.832031 C 19.800781 21.957031 20.925781 22.875 20.96875 22.875 C 21.011719 22.875 21.480469 22.601562 22.015625 22.269531 C 22.546875 21.933594 23.003906 21.660156 23.023438 21.660156 C 23.046875 21.660156 23.058594 21.949219 23.050781 22.304688 L 23.039062 22.949219 L 19.53125 25.078125 C 17.601562 26.246094 16.011719 27.207031 16 27.207031 C 15.988281 27.207031 14.398438 26.246094 12.46875 25.078125 Z M 7.511719 19.597656 C 5.621094 18.359375 4.070312 17.332031 4.066406 17.316406 C 4.066406 17.277344 8.777344 13.5 8.828125 13.5 C 8.886719 13.5 15.804688 17.78125 15.804688 17.816406 C 15.804688 17.871094 11.0625 21.855469 11.007812 21.847656 C 10.980469 21.847656 9.410156 20.832031 7.511719 19.597656 Z M 18.570312 19.851562 C 17.261719 18.753906 16.195312 17.835938 16.195312 17.816406 C 16.195312 17.78125 23.113281 13.5 23.171875 13.5 C 23.222656 13.5 27.933594 17.277344 27.933594 17.316406 C 27.929688 17.351562 21.074219 21.820312 20.996094 21.839844 C 20.964844 21.847656 19.875 20.953125 18.570312 19.851562 Z M 6.421875 11.328125 C 5.113281 10.28125 4.035156 9.40625 4.027344 9.386719 C 4.011719 9.34375 10.742188 4.90625 10.878906 4.871094 C 10.9375 4.855469 11.707031 5.464844 13.371094 6.851562 C 14.699219 7.953125 15.785156 8.871094 15.792969 8.894531 C 15.808594 8.925781 8.894531 13.230469 8.828125 13.230469 C 8.816406 13.230469 7.730469 12.375 6.421875 11.328125 Z M 19.675781 11.089844 C 17.777344 9.914062 16.21875 8.929688 16.21875 8.902344 C 16.21875 8.875 17.300781 7.953125 18.628906 6.851562 C 20.292969 5.464844 21.0625 4.855469 21.121094 4.871094 C 21.257812 4.90625 27.988281 9.34375 27.972656 9.386719 C 27.953125 9.433594 23.207031 13.230469 23.167969 13.230469 C 23.148438 13.230469 21.582031 12.265625 19.675781 11.089844 Z M 19.675781 11.089844 "/>
</g>
</svg>
