
<svg xmlns="http://www.w3.org/2000/svg" xmlns:xlink="http://www.w3.org/1999/xlink" width="32px" height="32px" viewBox="0 0 32 32" version="1.1">
<g id="surface1">
<path style="fill-rule:nonzero;fill:rgb(20%,20%,20%);fill-opacity:1;stroke-width:28.191782;stroke-linecap:butt;stroke-linejoin:miter;stroke:rgb(85.09804%,83.92157%,83.92157%);stroke-opacity:1;stroke-miterlimit:4;" d="M 81.5 25.612414 L 430.5 25.612414 C 461.6875 25.612414 486.9375 50.849096 486.9375 81.97225 L 486.9375 431.027501 C 486.9375 462.150655 461.6875 487.387337 430.5 487.387337 L 81.5 487.387337 C 50.3125 487.387337 25.0625 462.150655 25.0625 431.027501 L 25.0625 81.97225 C 25.0625 50.849096 50.3125 25.612414 81.5 25.612414 Z M 81.5 25.612414 " transform="matrix(0.0625,0,0,0.0623782,0,0)"/>
<path style=" stroke:none;fill-rule:nonzero;fill:rgb(100%,0%,0%);fill-opacity:0.760784;" d="M 13.9375 10.199219 C 13.34375 7.660156 12.835938 5.511719 12.816406 5.425781 C 12.792969 5.339844 12.816406 5.269531 12.867188 5.269531 C 12.921875 5.269531 13.042969 5.480469 13.144531 5.746094 C 13.246094 6.007812 14.046875 8.058594 14.925781 10.304688 C 15.808594 12.550781 16.527344 14.394531 16.527344 14.40625 C 16.527344 14.417969 16.332031 14.445312 16.089844 14.46875 C 15.847656 14.492188 15.515625 14.578125 15.347656 14.660156 C 15.179688 14.746094 15.039062 14.8125 15.035156 14.8125 C 15.027344 14.8125 14.535156 12.738281 13.9375 10.199219 Z M 13.9375 10.199219 "/>
<path style=" stroke:none;fill-rule:nonzero;fill:rgb(89.803922%,89.803922%,89.803922%);fill-opacity:1;" d="M 18.4375 16.257812 C 18.4375 17.429688 17.484375 18.378906 16.308594 18.378906 C 15.136719 18.378906 14.183594 17.429688 14.183594 16.257812 C 14.183594 15.085938 15.136719 14.136719 16.308594 14.136719 C 17.484375 14.136719 18.4375 15.085938 18.4375 16.257812 Z M 18.4375 16.257812 "/>
</g>
</svg>
