
<svg xmlns="http://www.w3.org/2000/svg" xmlns:xlink="http://www.w3.org/1999/xlink" width="32px" height="32px" viewBox="0 0 32 32" version="1.1">
<g id="surface1">
<path style="fill-rule:nonzero;fill:rgb(100%,100%,100%);fill-opacity:1;stroke-width:28.191782;stroke-linecap:butt;stroke-linejoin:miter;stroke:rgb(29.019609%,68.235296%,90.980393%);stroke-opacity:1;stroke-miterlimit:4;" d="M 81.5 25.0625 L 430.5 25.0625 C 461.6875 25.0625 486.9375 50.3125 486.9375 81.5 L 486.9375 430.5 C 486.9375 461.6875 461.6875 486.9375 430.5 486.9375 L 81.5 486.9375 C 50.3125 486.9375 25.0625 461.6875 25.0625 430.5 L 25.0625 81.5 C 25.0625 50.3125 50.3125 25.0625 81.5 25.0625 Z M 81.5 25.0625 " transform="matrix(0.0625,0,0,0.0625,0,0)"/>
<path style=" stroke:none;fill-rule:nonzero;fill:rgb(52.549022%,56.470591%,58.039218%);fill-opacity:1;" d="M 14.316406 28.355469 C 14.097656 28.261719 13.871094 28.019531 13.769531 27.773438 C 13.71875 27.648438 13.667969 27.167969 13.621094 26.394531 C 13.582031 25.742188 13.535156 25.15625 13.511719 25.09375 C 13.480469 25.011719 13.332031 24.929688 12.957031 24.800781 C 12.675781 24.699219 12.253906 24.523438 12.015625 24.40625 C 11.78125 24.285156 11.535156 24.191406 11.472656 24.191406 C 11.402344 24.191406 11.015625 24.503906 10.464844 25.007812 C 9.972656 25.457031 9.492188 25.871094 9.394531 25.917969 C 9.195312 26.019531 8.746094 26.039062 8.511719 25.949219 C 8.328125 25.882812 6.375 23.957031 6.25 23.722656 C 6.128906 23.488281 6.140625 23.050781 6.277344 22.78125 C 6.34375 22.660156 6.753906 22.171875 7.199219 21.691406 C 7.671875 21.175781 8 20.777344 8 20.710938 C 8 20.652344 7.902344 20.410156 7.785156 20.171875 C 7.664062 19.933594 7.488281 19.511719 7.390625 19.234375 C 7.292969 18.953125 7.171875 18.703125 7.121094 18.679688 C 7.074219 18.652344 6.5 18.605469 5.847656 18.566406 C 5.089844 18.527344 4.582031 18.472656 4.433594 18.417969 C 4.152344 18.316406 3.824219 17.972656 3.78125 17.726562 C 3.761719 17.625 3.753906 16.882812 3.761719 16.074219 L 3.78125 14.605469 L 3.949219 14.390625 C 4.246094 14.019531 4.386719 13.980469 5.816406 13.890625 C 6.621094 13.839844 7.113281 13.789062 7.152344 13.746094 C 7.191406 13.714844 7.308594 13.433594 7.421875 13.132812 C 7.535156 12.828125 7.710938 12.414062 7.8125 12.207031 C 7.917969 12.003906 8 11.792969 8 11.738281 C 8 11.683594 7.660156 11.269531 7.25 10.816406 C 6.835938 10.363281 6.441406 9.917969 6.371094 9.824219 C 6.175781 9.566406 6.109375 9.246094 6.1875 8.929688 C 6.246094 8.691406 6.351562 8.5625 7.25 7.652344 C 7.800781 7.097656 8.339844 6.59375 8.453125 6.535156 C 8.714844 6.402344 9.128906 6.402344 9.386719 6.53125 C 9.496094 6.589844 9.976562 6.992188 10.453125 7.429688 C 10.929688 7.863281 11.351562 8.242188 11.390625 8.261719 C 11.433594 8.289062 11.6875 8.199219 12 8.050781 C 12.296875 7.910156 12.738281 7.726562 12.984375 7.644531 C 13.316406 7.53125 13.449219 7.460938 13.492188 7.363281 C 13.527344 7.289062 13.585938 6.699219 13.621094 6.042969 C 13.695312 4.792969 13.738281 4.59375 13.996094 4.324219 C 14.285156 4.023438 14.449219 3.996094 16.058594 4.015625 L 17.519531 4.03125 L 17.75 4.183594 C 18.144531 4.445312 18.191406 4.605469 18.285156 6.003906 C 18.332031 6.675781 18.378906 7.285156 18.394531 7.347656 C 18.414062 7.4375 18.535156 7.503906 18.929688 7.640625 C 19.207031 7.738281 19.652344 7.925781 19.921875 8.0625 C 20.1875 8.195312 20.425781 8.308594 20.453125 8.308594 C 20.480469 8.308594 20.910156 7.933594 21.40625 7.476562 C 21.902344 7.019531 22.402344 6.597656 22.515625 6.539062 C 22.78125 6.398438 23.175781 6.402344 23.46875 6.542969 C 23.605469 6.605469 24.074219 7.035156 24.664062 7.628906 C 25.675781 8.652344 25.757812 8.769531 25.757812 9.230469 C 25.757812 9.558594 25.613281 9.773438 24.742188 10.726562 C 24.269531 11.246094 23.882812 11.691406 23.882812 11.71875 C 23.882812 11.746094 24.003906 12.027344 24.15625 12.339844 C 24.308594 12.652344 24.488281 13.09375 24.558594 13.316406 C 24.644531 13.597656 24.714844 13.738281 24.792969 13.769531 C 24.855469 13.796875 25.464844 13.855469 26.148438 13.894531 C 27.503906 13.980469 27.722656 14.035156 27.953125 14.355469 C 28.167969 14.660156 28.191406 14.886719 28.175781 16.367188 L 28.15625 17.785156 L 27.988281 18.019531 C 27.691406 18.441406 27.621094 18.464844 26.113281 18.558594 C 25.375 18.609375 24.761719 18.660156 24.746094 18.675781 C 24.730469 18.691406 24.636719 18.925781 24.542969 19.199219 C 24.445312 19.472656 24.253906 19.914062 24.121094 20.183594 C 23.988281 20.449219 23.886719 20.703125 23.894531 20.742188 C 23.902344 20.785156 24.269531 21.207031 24.710938 21.6875 C 25.152344 22.167969 25.566406 22.667969 25.632812 22.804688 C 25.777344 23.089844 25.792969 23.394531 25.671875 23.679688 C 25.566406 23.933594 23.777344 25.753906 23.484375 25.902344 C 23.242188 26.027344 22.800781 26.042969 22.542969 25.933594 C 22.445312 25.890625 21.957031 25.480469 21.457031 25.023438 C 20.957031 24.566406 20.503906 24.191406 20.457031 24.191406 C 20.410156 24.191406 20.128906 24.300781 19.832031 24.441406 C 19.535156 24.578125 19.097656 24.757812 18.855469 24.835938 C 18.527344 24.945312 18.414062 25.007812 18.394531 25.09375 C 18.378906 25.160156 18.332031 25.761719 18.285156 26.4375 C 18.1875 27.925781 18.128906 28.082031 17.613281 28.347656 C 17.460938 28.421875 17.214844 28.433594 15.957031 28.433594 C 14.847656 28.433594 14.4375 28.414062 14.316406 28.355469 Z M 16.492188 21.761719 C 17.824219 21.621094 18.941406 21.089844 19.886719 20.140625 C 20.613281 19.417969 21.078125 18.605469 21.359375 17.582031 C 21.535156 16.941406 21.535156 15.523438 21.355469 14.871094 C 20.820312 12.902344 19.410156 11.449219 17.457031 10.863281 C 17.003906 10.726562 16.878906 10.714844 15.996094 10.707031 C 15.152344 10.707031 14.972656 10.722656 14.5625 10.832031 C 12.511719 11.394531 10.941406 13.042969 10.511719 15.089844 C 10.125 16.929688 10.691406 18.804688 12.03125 20.152344 C 12.734375 20.863281 13.644531 21.378906 14.636719 21.632812 C 14.917969 21.707031 15.316406 21.761719 15.886719 21.808594 C 15.933594 21.8125 16.207031 21.792969 16.492188 21.761719 Z M 15.125 19.449219 C 13.71875 19.066406 12.734375 17.871094 12.648438 16.433594 C 12.585938 15.433594 12.910156 14.582031 13.621094 13.875 C 14.917969 12.582031 16.988281 12.570312 18.269531 13.847656 C 19.324219 14.898438 19.578125 16.394531 18.925781 17.707031 C 18.367188 18.828125 17.339844 19.488281 16.078125 19.535156 C 15.652344 19.550781 15.4375 19.535156 15.125 19.449219 Z M 16.699219 18.058594 C 17.085938 17.914062 17.550781 17.480469 17.746094 17.085938 C 17.882812 16.804688 17.898438 16.710938 17.898438 16.222656 C 17.898438 15.695312 17.890625 15.652344 17.710938 15.320312 C 17.347656 14.652344 16.808594 14.3125 16.050781 14.277344 C 15.441406 14.246094 15.074219 14.375 14.636719 14.777344 C 14.078125 15.285156 13.855469 15.996094 14.035156 16.695312 C 14.191406 17.300781 14.519531 17.710938 15.074219 17.992188 C 15.589844 18.253906 16.121094 18.277344 16.699219 18.058594 Z M 16.699219 18.058594 "/>
<path style=" stroke:none;fill-rule:nonzero;fill:rgb(100%,100%,100%);fill-opacity:1;" d="M 24.234375 16.199219 C 24.234375 20.738281 20.558594 24.414062 16.019531 24.414062 C 11.484375 24.414062 7.804688 20.738281 7.804688 16.199219 C 7.804688 11.664062 11.484375 7.984375 16.019531 7.984375 C 20.558594 7.984375 24.234375 11.664062 24.234375 16.199219 Z M 24.234375 16.199219 "/>
<path style=" stroke:none;fill-rule:nonzero;fill:rgb(20.784314%,40.784314%,92.941177%);fill-opacity:1;" d="M 14.878906 24.527344 C 13.089844 24.292969 11.433594 23.464844 10.097656 22.128906 C 8.925781 20.960938 8.171875 19.585938 7.78125 17.902344 C 7.695312 17.53125 7.542969 16.929688 7.542969 15.960938 C 7.546875 14.816406 7.671875 14.535156 7.84375 13.988281 C 8.613281 11.542969 10.027344 9.839844 12.214844 8.722656 C 14.175781 7.722656 16.585938 7.550781 18.695312 8.257812 C 20.71875 8.9375 22.558594 10.542969 23.519531 12.46875 C 25.121094 15.679688 24.480469 19.558594 21.910156 22.132812 C 20.066406 23.984375 17.46875 24.871094 14.878906 24.527344 Z M 12.519531 23.328125 C 12.503906 23.277344 12.480469 23.089844 12.457031 22.917969 C 12.425781 22.628906 12.441406 22.582031 12.625 22.398438 C 12.890625 22.128906 13.128906 22.128906 14.25 22.394531 C 14.722656 22.503906 15.417969 22.644531 15.796875 22.707031 C 16.652344 22.839844 18.734375 22.855469 19.492188 22.734375 C 20.105469 22.636719 21.132812 22.363281 21.398438 22.222656 C 21.691406 22.074219 22.667969 20.902344 22.578125 20.8125 C 22.558594 20.792969 22.230469 20.851562 21.851562 20.945312 C 20.546875 21.273438 19.933594 20.964844 18.65625 20.925781 C 16.449219 20.859375 14.632812 20.394531 11.660156 19.136719 C 9.878906 18.378906 9.4375 18.699219 8.988281 19.144531 C 8.652344 19.484375 8.644531 19.644531 8.929688 20.167969 C 9.589844 21.367188 10.695312 22.503906 11.890625 23.203125 C 12.335938 23.464844 12.558594 23.507812 12.519531 23.328125 Z M 23.738281 18.566406 C 23.773438 18.484375 23.847656 18.207031 23.898438 17.949219 C 23.988281 17.523438 23.988281 17.472656 23.886719 17.398438 C 23.824219 17.351562 23.734375 17.3125 23.683594 17.3125 C 23.5 17.3125 22.4375 16.832031 21.871094 16.488281 C 20.777344 15.828125 19.394531 14.710938 17.453125 12.90625 C 15.539062 11.128906 14.96875 10.671875 14.230469 10.332031 C 13.359375 9.929688 12.199219 9.859375 11.035156 10.140625 C 10.605469 10.242188 10.492188 10.304688 10.230469 10.5625 C 9.636719 11.152344 9.082031 11.933594 8.726562 12.667969 C 8.152344 13.859375 8.175781 14.707031 8.902344 14.09375 C 9.449219 13.625 10 13.570312 10.550781 13.476562 C 10.910156 13.414062 11.449219 13.496094 11.878906 13.59375 C 12.761719 13.789062 13.390625 14.433594 15.683594 16.058594 C 18.273438 17.894531 18.734375 17.894531 20.5 18.597656 C 21.261719 18.902344 23.230469 18.707031 23.519531 18.714844 C 23.613281 18.714844 23.695312 18.660156 23.738281 18.566406 Z M 23.503906 14.359375 C 23.722656 14.171875 23.746094 14.117188 23.714844 13.902344 C 23.664062 13.519531 23.238281 12.535156 22.851562 11.917969 C 22.394531 11.183594 21.277344 10.035156 20.558594 9.566406 C 19.503906 8.878906 18.496094 8.472656 17.296875 8.257812 C 16.226562 8.066406 14.015625 8.210938 13.925781 8.480469 C 13.90625 8.535156 14.019531 8.558594 14.308594 8.558594 C 16.097656 8.558594 17.621094 9.054688 18.777344 10.015625 C 19.464844 10.582031 19.945312 11.125 20.730469 12.214844 C 22.054688 14.042969 22.574219 14.554688 23.113281 14.570312 C 23.195312 14.570312 23.371094 14.476562 23.503906 14.359375 Z M 23.503906 14.359375 "/>
</g>
</svg>
