
<svg xmlns="http://www.w3.org/2000/svg" xmlns:xlink="http://www.w3.org/1999/xlink" width="32px" height="32px" viewBox="0 0 32 32" version="1.1">
<g id="surface1">
<path style="fill-rule:nonzero;fill:rgb(17.254902%,24.313726%,31.37255%);fill-opacity:1;stroke-width:0.777657;stroke-linecap:butt;stroke-linejoin:miter;stroke:rgb(29.019609%,68.235296%,90.980393%);stroke-opacity:1;stroke-miterlimit:4;" d="M -36.15958 398.24839 L -26.532054 398.24839 C -25.672158 398.24839 -24.975973 398.944575 -24.975973 399.80447 L -24.975973 409.431996 C -24.975973 410.291892 -25.672158 410.988077 -26.532054 410.988077 L -36.15958 410.988077 C -37.019476 410.988077 -37.715661 410.291892 -37.715661 409.431996 L -37.715661 399.80447 C -37.715661 398.944575 -37.019476 398.24839 -36.15958 398.24839 Z M -36.15958 398.24839 " transform="matrix(2.362205,0,0,2.362205,90.045237,-939.791097)"/>
<path style=" stroke:none;fill-rule:nonzero;fill:rgb(17.254902%,24.313726%,31.37255%);fill-opacity:1;" d="M 16 2.667969 C 23.363281 2.667969 29.332031 8.636719 29.332031 16 C 29.332031 23.363281 23.363281 29.332031 16 29.332031 C 8.636719 29.332031 2.667969 23.363281 2.667969 16 C 2.667969 8.636719 8.636719 2.667969 16 2.667969 Z M 16 2.667969 "/>
<path style=" stroke:none;fill-rule:nonzero;fill:rgb(58.431375%,64.705884%,65.098041%);fill-opacity:1;" d="M 19.066406 14.183594 C 18.859375 15.660156 18.078125 17.925781 16.441406 19.722656 C 16.457031 19.78125 17.328125 20.371094 17.328125 20.371094 C 19.40625 17.933594 19.777344 16.089844 20.113281 14.464844 C 20.113281 14.464844 19.507812 14.125 19.066406 14.183594 Z M 19.066406 14.183594 "/>
<path style=" stroke:none;fill-rule:nonzero;fill:rgb(74.117649%,76.47059%,78.039217%);fill-opacity:1;" d="M 12.75 13.664062 C 11.605469 7.339844 18.941406 5.878906 19.304688 13.136719 L 20.34375 13.386719 C 20.578125 9.691406 18.175781 7.027344 15.574219 7.164062 C 13.265625 7.285156 10.863281 9.933594 11.726562 14.125 Z M 12.75 13.664062 "/>
<path style=" stroke:none;fill-rule:nonzero;fill:rgb(49.803922%,54.901963%,55.29412%);fill-opacity:1;" d="M 15.785156 20.554688 C 11.089844 24.148438 5.996094 19.800781 12.035156 15.191406 L 11.722656 14.0625 C 7.351562 16.605469 7.527344 20.285156 9.394531 22.101562 C 11.046875 23.710938 14.585938 23.386719 16.660156 21.199219 Z M 15.785156 20.554688 "/>
<path style=" stroke:none;fill-rule:nonzero;fill:rgb(92.54902%,94.117647%,94.509804%);fill-opacity:1;" d="M 17.113281 12.902344 C 13.722656 12.84375 11.714844 14.066406 11.714844 14.066406 C 11.742188 14.167969 11.707031 14.933594 13.300781 17.753906 C 14.757812 19.9375 16.808594 21.777344 19.339844 22.277344 C 21.875 22.777344 24.632812 21.371094 24.777344 18.777344 C 24.925781 16.183594 22.910156 14.746094 22.464844 14.421875 C 22.023438 14.097656 20.5 12.960938 17.113281 12.902344 Z M 16.464844 14.027344 C 17.273438 14.011719 18.238281 14.066406 19.382812 14.234375 C 24.445312 15.714844 24.007812 19.234375 23.132812 20.152344 C 22.339844 20.988281 20.445312 21.984375 17.527344 20.441406 C 14.613281 18.902344 13.070312 14.734375 13.070312 14.734375 C 13.070312 14.734375 14.046875 14.074219 16.464844 14.027344 Z M 16.464844 14.027344 "/>
</g>
</svg>
