
<svg xmlns="http://www.w3.org/2000/svg" xmlns:xlink="http://www.w3.org/1999/xlink" width="32px" height="32px" viewBox="0 0 32 32" version="1.1">
<g id="surface1">
<path style="fill-rule:nonzero;fill:rgb(20%,20%,20%);fill-opacity:1;stroke-width:2.657871;stroke-linecap:butt;stroke-linejoin:miter;stroke:rgb(58.039218%,21.568628%,76.078433%);stroke-opacity:1;stroke-miterlimit:4;" d="M 187.783478 692.044922 L 220.689728 692.044922 C 223.625275 692.044922 226.004181 694.423828 226.004181 697.359375 L 226.004181 730.265625 C 226.004181 733.201172 223.625275 735.580078 220.689728 735.580078 L 187.783478 735.580078 C 184.847931 735.580078 182.469025 733.201172 182.469025 730.265625 L 182.469025 697.359375 C 182.469025 694.423828 184.847931 692.044922 187.783478 692.044922 Z M 187.783478 692.044922 " transform="matrix(0.666667,0,0,0.666667,-120.157735,-459.875)"/>
<path style=" stroke:none;fill-rule:evenodd;fill:rgb(83.529413%,50.196081%,100%);fill-opacity:1;" d="M 13.300781 5.136719 C 10.5625 5.871094 8.140625 7.730469 6.722656 10.183594 C 5.308594 12.644531 4.910156 15.667969 5.644531 18.40625 C 6.378906 21.148438 8.234375 23.566406 10.691406 24.988281 C 10.988281 25.160156 11.292969 25.316406 11.609375 25.457031 C 9.578125 24.003906 8.058594 21.839844 7.414062 19.429688 C 6.679688 16.6875 7.078125 13.664062 8.496094 11.207031 C 9.910156 8.75 12.332031 6.894531 15.074219 6.160156 C 17.480469 5.511719 20.113281 5.742188 22.386719 6.773438 C 22.109375 6.574219 21.824219 6.386719 21.527344 6.21875 C 19.066406 4.800781 16.042969 4.402344 13.300781 5.136719 Z M 13.300781 5.136719 "/>
<path style="fill-rule:nonzero;fill:rgb(100%,100%,100%);fill-opacity:1;stroke-width:0.399275;stroke-linecap:butt;stroke-linejoin:miter;stroke:rgb(58.039218%,21.568628%,76.078433%);stroke-opacity:1;stroke-miterlimit:4;" d="M 201.306915 704.625 L 200.269806 703.054688 L 199.344025 704.689453 L 199.320587 702.808594 L 197.656525 703.681641 L 198.652618 702.087891 L 196.783478 701.923828 L 198.482697 701.126953 L 197.000275 699.972656 L 198.863556 700.21875 L 198.236603 698.443359 L 199.67215 699.662109 L 200.099884 697.833984 L 200.650665 699.626953 L 202.004181 698.320312 L 201.494415 700.130859 L 203.334259 699.761719 L 201.933868 701.009766 L 203.679962 701.695312 L 201.82254 701.982422 L 202.924103 703.505859 L 201.207306 702.744141 Z M 201.306915 704.625 " transform="matrix(0.666667,0,0,0.666667,-120.157735,-459.875)"/>
</g>
</svg>
