<!-- color: #616161 -->
<svg xmlns="http://www.w3.org/2000/svg" xmlns:xlink="http://www.w3.org/1999/xlink" width="32px" height="32px" viewBox="0 0 32 32" version="1.1">
<defs>
<clipPath id="clip1">
  <path d="M 6.25 6.25 L 25.75 6.25 L 25.75 20.0625 L 6.25 20.0625 Z M 6.25 6.25 "/>
</clipPath>
<clipPath id="clip2">
  <path d="M 0.621094 -0.1875 L 31.378906 -0.1875 C 33.164062 -0.1875 34.613281 1.261719 34.613281 3.050781 L 34.613281 33.804688 C 34.613281 35.59375 33.164062 37.042969 31.378906 37.042969 L 0.621094 37.042969 C -1.164062 37.042969 -2.613281 35.59375 -2.613281 33.804688 L -2.613281 3.050781 C -2.613281 1.261719 -1.164062 -0.1875 0.621094 -0.1875 Z M 0.621094 -0.1875 "/>
</clipPath>
<clipPath id="clip3">
  <path d="M 6.25 21.625 L 25.6875 21.625 L 25.6875 25.75 L 6.25 25.75 Z M 6.25 21.625 "/>
</clipPath>
<clipPath id="clip4">
  <path d="M 0.621094 -0.1875 L 31.378906 -0.1875 C 33.164062 -0.1875 34.613281 1.261719 34.613281 3.050781 L 34.613281 33.804688 C 34.613281 35.59375 33.164062 37.042969 31.378906 37.042969 L 0.621094 37.042969 C -1.164062 37.042969 -2.613281 35.59375 -2.613281 33.804688 L -2.613281 3.050781 C -2.613281 1.261719 -1.164062 -0.1875 0.621094 -0.1875 Z M 0.621094 -0.1875 "/>
</clipPath>
</defs>
<g id="surface1">
<path style="fill-rule:nonzero;fill:rgb(50.196081%,50.196081%,50.196081%);fill-opacity:1;stroke-width:4.4;stroke-linecap:butt;stroke-linejoin:miter;stroke:rgb(0%,0%,0%);stroke-opacity:1;stroke-miterlimit:4;" d="M 18.734375 6.234375 L 109.265625 6.234375 C 116.171875 6.234375 121.765625 11.828125 121.765625 18.734375 L 121.765625 109.265625 C 121.765625 116.171875 116.171875 121.765625 109.265625 121.765625 L 18.734375 121.765625 C 11.828125 121.765625 6.234375 116.171875 6.234375 109.265625 L 6.234375 18.734375 C 6.234375 11.828125 11.828125 6.234375 18.734375 6.234375 Z M 18.734375 6.234375 " transform="matrix(0.25,0,0,0.25,0,0)"/>
<g clip-path="url(#clip1)" clip-rule="nonzero">
<g clip-path="url(#clip2)" clip-rule="nonzero">
<path style=" stroke:none;fill-rule:nonzero;fill:rgb(100%,100%,100%);fill-opacity:1;" d="M 25.710938 20.050781 L 6.289062 20.050781 L 16 6.289062 M 25.707031 20.050781 "/>
</g>
</g>
<g clip-path="url(#clip3)" clip-rule="nonzero">
<g clip-path="url(#clip4)" clip-rule="nonzero">
<path style=" stroke:none;fill-rule:evenodd;fill:rgb(100%,100%,100%);fill-opacity:1;" d="M 6.289062 21.667969 L 25.6875 21.667969 L 25.6875 25.710938 L 6.289062 25.710938 M 6.289062 21.667969 "/>
</g>
</g>
</g>
</svg>
