
<svg xmlns="http://www.w3.org/2000/svg" xmlns:xlink="http://www.w3.org/1999/xlink" width="32px" height="32px" viewBox="0 0 32 32" version="1.1">
<g id="surface1">
<path style="fill-rule:nonzero;fill:rgb(60.784316%,34.901962%,71.372551%);fill-opacity:1;stroke-width:2.590543;stroke-linecap:butt;stroke-linejoin:miter;stroke:rgb(29.019609%,42.745098%,90.980393%);stroke-opacity:1;stroke-miterlimit:4;" d="M 7.962891 2.783203 L 40.037109 2.783203 C 42.896484 2.783203 45.216797 5.103516 45.216797 7.962891 L 45.216797 40.037109 C 45.216797 42.896484 42.896484 45.216797 40.037109 45.216797 L 7.962891 45.216797 C 5.103516 45.216797 2.783203 42.896484 2.783203 40.037109 L 2.783203 7.962891 C 2.783203 5.103516 5.103516 2.783203 7.962891 2.783203 Z M 7.962891 2.783203 " transform="matrix(0.666667,0,0,0.666667,0,0)"/>
<path style=" stroke:none;fill-rule:nonzero;fill:rgb(92.54902%,94.117647%,94.509804%);fill-opacity:1;" d="M 17.046875 7.191406 C 26.144531 8.710938 21.933594 9.972656 14.839844 8.597656 C 13.007812 8.246094 12.070312 8.496094 11.753906 8.925781 C 10.363281 10.828125 15.195312 14.082031 17.441406 15.410156 C 6.527344 12.691406 1.542969 20.152344 15.695312 23.222656 C 16.90625 23.484375 19.230469 23.578125 19.222656 23.925781 C 19.214844 24.300781 13.253906 24.332031 10.109375 24.425781 C 12.253906 25.003906 17.417969 25.394531 20.773438 25.074219 C 24.035156 24.765625 25.460938 23.660156 21.34375 22.648438 C 19.222656 22.125 10.902344 20.546875 11.777344 18.867188 C 13.058594 16.410156 18.59375 17.003906 21.816406 16.667969 C 13.886719 11.214844 12.085938 9.933594 22.847656 11.335938 C 25.660156 11.960938 26.601562 7.199219 21.878906 7.011719 C 20.839844 6.96875 18.621094 7.097656 17.046875 7.191406 Z M 17.046875 7.191406 "/>
</g>
</svg>
