
<svg xmlns="http://www.w3.org/2000/svg" xmlns:xlink="http://www.w3.org/1999/xlink" width="32px" height="32px" viewBox="0 0 32 32" version="1.1">
<g id="surface1">
<path style="fill-rule:nonzero;fill:rgb(100%,100%,100%);fill-opacity:1;stroke-width:1.691859;stroke-linecap:butt;stroke-linejoin:miter;stroke:rgb(29.019609%,68.235296%,90.980393%);stroke-opacity:1;stroke-miterlimit:4;" d="M 13.284264 7.382911 L 34.22862 7.382911 C 36.100259 7.382911 37.615575 8.898226 37.615575 10.769865 L 37.615575 31.714221 C 37.615575 33.58586 36.100259 35.101175 34.22862 35.101175 L 13.284264 35.101175 C 11.412625 35.101175 9.89731 33.58586 9.89731 31.714221 L 9.89731 10.769865 C 9.89731 8.898226 11.412625 7.382911 13.284264 7.382911 Z M 13.284264 7.382911 " transform="matrix(1.04145,0,0,1.04145,-8.741147,-6.122526)"/>
<path style=" stroke:none;fill-rule:nonzero;fill:rgb(0%,65.490198%,92.156863%);fill-opacity:1;" d="M 5.179688 24.496094 C 5.695312 23.972656 13.238281 17.589844 13.339844 17.589844 C 13.394531 17.589844 13.917969 17.996094 14.492188 18.5 C 15.121094 19.046875 15.636719 19.410156 15.785156 19.410156 C 15.933594 19.410156 16.484375 19.023438 17.160156 18.445312 C 17.855469 17.855469 18.339844 17.515625 18.410156 17.574219 C 18.472656 17.625 19.273438 18.304688 20.1875 19.085938 C 24.8125 23.035156 26.726562 24.683594 26.726562 24.722656 C 26.726562 24.746094 21.816406 24.769531 15.820312 24.769531 L 4.914062 24.769531 Z M 3.675781 16.746094 C 3.675781 12.695312 3.714844 9.382812 3.757812 9.386719 C 3.878906 9.386719 12.285156 16.605469 12.316406 16.734375 C 12.347656 16.847656 4.136719 23.921875 3.832031 24.042969 C 3.699219 24.097656 3.675781 23.167969 3.675781 16.746094 Z M 23.492188 20.402344 C 21.210938 18.445312 19.3125 16.8125 19.277344 16.769531 C 19.214844 16.703125 27.558594 9.488281 27.800781 9.402344 C 27.867188 9.378906 27.90625 12.015625 27.90625 16.667969 C 27.90625 22.4375 27.878906 23.96875 27.769531 23.960938 C 27.699219 23.957031 25.769531 22.355469 23.492188 20.402344 Z M 11.449219 14.378906 C 9.089844 12.363281 6.644531 10.273438 6.011719 9.734375 L 4.867188 8.753906 L 10.328125 8.726562 C 13.332031 8.707031 18.25 8.707031 21.253906 8.726562 L 26.714844 8.753906 L 23.386719 11.605469 C 21.554688 13.171875 19.113281 15.261719 17.957031 16.246094 C 16.804688 17.234375 15.832031 18.042969 15.800781 18.042969 C 15.765625 18.042969 13.808594 16.394531 11.449219 14.378906 Z M 11.449219 14.378906 "/>
</g>
</svg>
