
<svg xmlns="http://www.w3.org/2000/svg" xmlns:xlink="http://www.w3.org/1999/xlink" width="32px" height="32px" viewBox="0 0 32 32" version="1.1">
<g id="surface1">
<path style="fill-rule:nonzero;fill:rgb(100%,100%,100%);fill-opacity:1;stroke-width:28.191782;stroke-linecap:butt;stroke-linejoin:miter;stroke:rgb(60.784316%,82.352942%,12.156863%);stroke-opacity:1;stroke-miterlimit:4;" d="M 81.5 25.0625 L 430.5 25.0625 C 461.6875 25.0625 486.9375 50.3125 486.9375 81.5 L 486.9375 430.5 C 486.9375 461.6875 461.6875 486.9375 430.5 486.9375 L 81.5 486.9375 C 50.3125 486.9375 25.0625 461.6875 25.0625 430.5 L 25.0625 81.5 C 25.0625 50.3125 50.3125 25.0625 81.5 25.0625 Z M 81.5 25.0625 " transform="matrix(0.0625,0,0,0.0625,0,0)"/>
<path style=" stroke:none;fill-rule:nonzero;fill:rgb(60.784316%,82.352942%,12.156863%);fill-opacity:1;" d="M 7.785156 5.527344 L 4.449219 11.1875 L 11.132812 11.1875 L 7.785156 5.527344 M 8.625 5.527344 L 11.960938 11.1875 L 15.296875 5.527344 L 8.625 5.527344 M 16.136719 5.527344 L 12.800781 11.1875 L 19.472656 11.1875 L 16.136719 5.527344 M 16.972656 5.527344 L 20.308594 11.1875 L 23.644531 5.527344 L 16.976562 5.527344 M 24.488281 5.527344 L 21.136719 11.1875 L 27.824219 11.1875 L 24.488281 5.527344 M 4.449219 12.054688 L 15.488281 26.925781 L 11.546875 12.054688 L 4.449219 12.054688 M 12.375 12.054688 L 16.136719 26.925781 L 19.898438 12.054688 L 12.375 12.054688 M 20.722656 12.054688 L 16.78125 26.925781 L 27.820312 12.054688 L 20.722656 12.054688 "/>
</g>
</svg>
