
<svg xmlns="http://www.w3.org/2000/svg" xmlns:xlink="http://www.w3.org/1999/xlink" width="32px" height="32px" viewBox="0 0 32 32" version="1.1">
<g id="surface1">
<path style="fill-rule:nonzero;fill:rgb(100%,100%,100%);fill-opacity:1;stroke-width:26.343105;stroke-linecap:butt;stroke-linejoin:miter;stroke:rgb(29.019609%,68.235296%,90.980393%);stroke-opacity:1;stroke-miterlimit:4;" d="M 76.933593 24.199218 L 403.0664 24.199218 C 432.187494 24.199218 455.800774 47.812499 455.800774 76.933593 L 455.800774 403.0664 C 455.800774 432.187494 432.187494 455.800774 403.0664 455.800774 L 76.933593 455.800774 C 47.812499 455.800774 24.199218 432.187494 24.199218 403.0664 L 24.199218 76.933593 C 24.199218 47.812499 47.812499 24.199218 76.933593 24.199218 Z M 76.933593 24.199218 " transform="matrix(0.0666667,0,0,0.0666667,0,0)"/>
<path style=" stroke:none;fill-rule:nonzero;fill:rgb(20.784314%,48.627451%,93.333334%);fill-opacity:1;" d="M 4.730469 26.0625 C 4.5625 25.824219 4.277344 25.226562 4.144531 24.820312 C 3.910156 24.121094 3.875 23.871094 3.878906 22.925781 C 3.882812 22.128906 3.898438 21.980469 4.019531 21.53125 C 4.457031 19.894531 5.542969 18.542969 7.097656 17.699219 C 7.71875 17.363281 7.746094 17.300781 7.382812 17 C 6.871094 16.574219 6.40625 15.878906 6.179688 15.21875 C 5.5 13.214844 6.417969 11.027344 8.3125 10.144531 C 9.386719 9.640625 10.738281 9.640625 11.8125 10.144531 C 13.707031 11.03125 14.632812 13.238281 13.941406 15.226562 C 13.714844 15.890625 13.285156 16.527344 12.769531 16.976562 C 12.511719 17.199219 12.484375 17.246094 12.535156 17.335938 C 12.5625 17.394531 12.757812 17.527344 12.960938 17.636719 C 13.167969 17.746094 13.417969 17.886719 13.527344 17.949219 C 13.628906 18.015625 13.746094 18.070312 13.78125 18.066406 C 13.816406 18.066406 13.960938 17.910156 14.101562 17.726562 C 14.683594 16.949219 15.675781 16.121094 16.605469 15.636719 C 17.113281 15.371094 17.296875 15.230469 17.296875 15.109375 C 17.296875 15.066406 17.144531 14.90625 16.964844 14.757812 C 16.265625 14.191406 15.585938 13.117188 15.355469 12.214844 C 14.613281 9.335938 16.367188 6.488281 19.257812 5.871094 C 19.464844 5.828125 19.886719 5.800781 20.308594 5.800781 C 20.894531 5.800781 21.105469 5.820312 21.523438 5.925781 C 22.433594 6.15625 23.230469 6.609375 23.898438 7.277344 C 25.175781 8.664062 25.683594 10.597656 25.207031 12.265625 C 24.910156 13.238281 24.308594 14.1875 23.640625 14.730469 C 23.472656 14.867188 23.324219 15.007812 23.308594 15.050781 C 23.257812 15.167969 23.480469 15.347656 24.035156 15.640625 C 25.953125 16.640625 27.367188 18.417969 27.855469 20.4375 C 28.273438 22.15625 28.089844 23.820312 27.316406 25.410156 C 27.175781 25.691406 27.023438 25.96875 26.972656 26.027344 L 26.886719 26.136719 L 4.832031 26.207031 Z M 4.730469 26.0625 "/>
<path style=" stroke:none;fill-rule:nonzero;fill:rgb(31.37255%,70.19608%,15.686275%);fill-opacity:1;" d="M 4.730469 26.058594 C 4.558594 25.824219 4.277344 25.222656 4.144531 24.820312 C 3.910156 24.121094 3.875 23.871094 3.878906 22.925781 C 3.882812 22.128906 3.898438 21.980469 4.019531 21.53125 C 4.457031 19.894531 5.542969 18.542969 7.097656 17.699219 C 7.71875 17.363281 7.746094 17.300781 7.382812 17 C 6.871094 16.574219 6.40625 15.878906 6.179688 15.21875 C 5.5 13.214844 6.417969 11.027344 8.3125 10.144531 C 9.386719 9.640625 10.738281 9.640625 11.8125 10.144531 C 13.707031 11.03125 14.632812 13.238281 13.941406 15.226562 C 13.714844 15.890625 13.285156 16.527344 12.769531 16.976562 C 12.394531 17.300781 12.417969 17.34375 13.105469 17.714844 C 13.394531 17.863281 13.644531 18.019531 13.675781 18.054688 C 13.707031 18.097656 13.652344 18.238281 13.488281 18.527344 C 12.8125 19.695312 12.519531 20.804688 12.519531 22.1875 C 12.519531 23.539062 12.828125 24.722656 13.457031 25.800781 C 13.566406 25.988281 13.644531 26.15625 13.628906 26.171875 C 13.613281 26.1875 11.625 26.199219 9.214844 26.199219 L 4.828125 26.199219 Z M 4.730469 26.058594 "/>
</g>
</svg>
