
<svg xmlns="http://www.w3.org/2000/svg" xmlns:xlink="http://www.w3.org/1999/xlink" width="32px" height="32px" viewBox="0 0 32 32" version="1.1">
<g id="surface1">
<path style="fill-rule:nonzero;fill:rgb(0%,26.666668%,66.666669%);fill-opacity:1;stroke-width:27.7826;stroke-linecap:butt;stroke-linejoin:miter;stroke:rgb(29.019609%,68.235296%,90.980393%);stroke-opacity:1;stroke-miterlimit:4;" d="M 84 28.4375 L 428 28.4375 C 458.6875 28.4375 483.5625 53.3125 483.5625 84 L 483.5625 428 C 483.5625 458.6875 458.6875 483.5625 428 483.5625 L 84 483.5625 C 53.3125 483.5625 28.4375 458.6875 28.4375 428 L 28.4375 84 C 28.4375 53.3125 53.3125 28.4375 84 28.4375 Z M 84 28.4375 " transform="matrix(0.0625,0,0,0.0625,0,0)"/>
<path style=" stroke:none;fill-rule:nonzero;fill:rgb(24.313726%,80.392158%,96.470588%);fill-opacity:1;" d="M 21.539062 6.398438 C 21.539062 6.109375 21.433594 5.863281 21.230469 5.65625 C 21.027344 5.453125 20.777344 5.347656 20.488281 5.347656 L 6.035156 5.347656 C 5.746094 5.347656 5.496094 5.453125 5.289062 5.65625 C 5.085938 5.863281 4.980469 6.109375 4.980469 6.398438 L 4.980469 18.941406 C 4.980469 19.230469 5.085938 19.476562 5.289062 19.683594 C 5.496094 19.886719 5.746094 19.988281 6.035156 19.988281 L 7.171875 19.988281 L 7.171875 22.933594 C 7.171875 23.167969 7.253906 23.363281 7.417969 23.53125 C 7.582031 23.695312 7.785156 23.777344 8.019531 23.777344 C 8.25 23.777344 8.449219 23.695312 8.613281 23.53125 L 12.152344 19.988281 L 13.265625 19.988281 L 13.265625 12.074219 C 13.265625 11.785156 13.367188 11.539062 13.574219 11.332031 C 13.777344 11.128906 14.027344 11.027344 14.316406 11.027344 L 21.539062 11.027344 Z M 21.539062 6.398438 "/>
<path style=" stroke:none;fill-rule:nonzero;fill:rgb(100%,100%,100%);fill-opacity:1;" d="M 27.019531 12.074219 C 27.019531 11.785156 26.914062 11.539062 26.710938 11.332031 C 26.503906 11.128906 26.253906 11.027344 25.964844 11.027344 L 14.316406 11.027344 C 14.027344 11.027344 13.777344 11.128906 13.574219 11.332031 C 13.367188 11.539062 13.265625 11.785156 13.265625 12.074219 L 13.265625 21.8125 C 13.265625 22.101562 13.367188 22.351562 13.574219 22.558594 C 13.777344 22.761719 14.027344 22.863281 14.316406 22.863281 L 19.847656 22.863281 L 23.386719 26.402344 C 23.550781 26.566406 23.75 26.652344 23.980469 26.652344 C 24.214844 26.652344 24.417969 26.566406 24.582031 26.402344 C 24.746094 26.238281 24.828125 26.039062 24.828125 25.808594 L 24.828125 22.863281 L 25.964844 22.863281 C 26.253906 22.863281 26.503906 22.761719 26.710938 22.558594 C 26.914062 22.351562 27.019531 22.101562 27.019531 21.8125 Z M 16.722656 17.988281 C 16.386719 17.988281 16.105469 17.867188 15.867188 17.628906 C 15.628906 17.394531 15.511719 17.113281 15.511719 16.777344 C 15.511719 16.445312 15.628906 16.160156 15.867188 15.921875 C 16.105469 15.683594 16.386719 15.566406 16.722656 15.566406 C 17.058594 15.566406 17.339844 15.683594 17.574219 15.921875 C 17.8125 16.160156 17.929688 16.445312 17.929688 16.777344 C 17.929688 17.113281 17.8125 17.394531 17.574219 17.628906 C 17.339844 17.867188 17.058594 17.988281 16.722656 17.988281 Z M 21.363281 16.777344 C 21.363281 17.113281 21.246094 17.394531 21.007812 17.628906 C 20.769531 17.867188 20.488281 17.988281 20.152344 17.988281 C 19.820312 17.988281 19.535156 17.867188 19.296875 17.628906 C 19.0625 17.394531 18.945312 17.113281 18.945312 16.777344 C 18.945312 16.445312 19.0625 16.160156 19.296875 15.921875 C 19.535156 15.683594 19.820312 15.566406 20.152344 15.566406 C 20.488281 15.566406 20.769531 15.683594 21.007812 15.921875 C 21.246094 16.160156 21.363281 16.445312 21.363281 16.777344 Z M 24.796875 16.777344 C 24.796875 17.113281 24.675781 17.394531 24.441406 17.628906 C 24.203125 17.867188 23.917969 17.988281 23.585938 17.988281 C 23.253906 17.988281 22.964844 17.867188 22.730469 17.628906 C 22.496094 17.394531 22.378906 17.113281 22.378906 16.777344 C 22.378906 16.445312 22.496094 16.160156 22.730469 15.921875 C 22.964844 15.683594 23.253906 15.566406 23.585938 15.566406 C 23.917969 15.566406 24.203125 15.683594 24.441406 15.921875 C 24.675781 16.160156 24.796875 16.445312 24.796875 16.777344 Z M 24.796875 16.777344 "/>
<path style=" stroke:none;fill-rule:nonzero;fill:rgb(84.313726%,84.313726%,84.313726%);fill-opacity:1;" d="M 16.722656 15.566406 C 16.386719 15.566406 16.105469 15.683594 15.867188 15.921875 C 15.628906 16.160156 15.511719 16.445312 15.511719 16.777344 C 15.511719 17.113281 15.628906 17.394531 15.867188 17.628906 C 16.105469 17.867188 16.386719 17.988281 16.722656 17.988281 C 17.058594 17.988281 17.339844 17.867188 17.574219 17.628906 C 17.8125 17.394531 17.929688 17.113281 17.929688 16.777344 C 17.929688 16.445312 17.8125 16.160156 17.574219 15.921875 C 17.339844 15.683594 17.058594 15.566406 16.722656 15.566406 Z M 20.152344 15.566406 C 19.820312 15.566406 19.535156 15.683594 19.296875 15.921875 C 19.0625 16.160156 18.945312 16.445312 18.945312 16.777344 C 18.945312 17.113281 19.0625 17.394531 19.296875 17.628906 C 19.535156 17.867188 19.820312 17.988281 20.152344 17.988281 C 20.488281 17.988281 20.769531 17.867188 21.007812 17.628906 C 21.246094 17.394531 21.363281 17.113281 21.363281 16.777344 C 21.363281 16.445312 21.246094 16.160156 21.007812 15.921875 C 20.769531 15.683594 20.488281 15.566406 20.152344 15.566406 Z M 23.585938 15.566406 C 23.253906 15.566406 22.964844 15.683594 22.730469 15.921875 C 22.496094 16.160156 22.378906 16.445312 22.378906 16.777344 C 22.378906 17.113281 22.496094 17.394531 22.730469 17.628906 C 22.964844 17.867188 23.253906 17.988281 23.585938 17.988281 C 23.917969 17.988281 24.203125 17.867188 24.441406 17.628906 C 24.675781 17.394531 24.796875 17.113281 24.796875 16.777344 C 24.796875 16.445312 24.675781 16.160156 24.441406 15.921875 C 24.203125 15.683594 23.917969 15.566406 23.585938 15.566406 Z M 23.585938 15.566406 "/>
</g>
</svg>
