
<svg xmlns="http://www.w3.org/2000/svg" xmlns:xlink="http://www.w3.org/1999/xlink" width="32px" height="32px" viewBox="0 0 32 32" version="1.1">
<g id="surface1">
<path style="fill-rule:nonzero;fill:rgb(24.313726%,80.392158%,96.470588%);fill-opacity:1;stroke-width:27.785105;stroke-linecap:butt;stroke-linejoin:miter;stroke:rgb(23.529412%,47.058824%,59.607846%);stroke-opacity:1;stroke-miterlimit:4;" d="M 84 28.4375 L 428 28.4375 C 458.6875 28.4375 483.5625 53.3125 483.5625 84 L 483.5625 428 C 483.5625 458.6875 458.6875 483.5625 428 483.5625 L 84 483.5625 C 53.3125 483.5625 28.4375 458.6875 28.4375 428 L 28.4375 84 C 28.4375 53.3125 53.3125 28.4375 84 28.4375 Z M 84 28.4375 " transform="matrix(0.0625,0,0,0.0625,0,0)"/>
<path style=" stroke:none;fill-rule:evenodd;fill:rgb(9.019608%,18.431373%,33.333334%);fill-opacity:1;" d="M 24.410156 6.832031 L 3.988281 27.253906 L 29.214844 27.253906 L 29.214844 11.636719 Z M 24.410156 6.832031 "/>
<path style=" stroke:none;fill-rule:evenodd;fill:rgb(10.980392%,21.960784%,40.392157%);fill-opacity:1;" d="M 9.996094 15.238281 L 2.785156 22.449219 L 2.785156 27.253906 L 22.003906 27.253906 Z M 9.996094 15.238281 "/>
<path style=" stroke:none;fill-rule:evenodd;fill:rgb(94.509804%,94.901961%,95.686275%);fill-opacity:1;" d="M 9.996094 15.238281 L 7.191406 18.042969 L 8.792969 17.644531 L 9.996094 17.042969 L 10.59375 18.242188 L 11.195312 17.644531 L 12.394531 17.644531 Z M 9.996094 15.238281 "/>
<path style=" stroke:none;fill-rule:evenodd;fill:rgb(94.509804%,94.901961%,95.686275%);fill-opacity:1;" d="M 24.410156 6.832031 L 19.84375 11.394531 L 22.003906 10.433594 L 24.410156 12.238281 L 25.007812 11.035156 L 28.011719 14.039062 L 26.808594 11.035156 L 28.011719 11.035156 L 28.011719 10.433594 Z M 24.410156 6.832031 "/>
<path style=" stroke:none;fill-rule:nonzero;fill:rgb(72.941178%,92.156863%,98.823529%);fill-opacity:1;" d="M 9.75 4.019531 C 9.300781 4.019531 8.875 4.214844 8.578125 4.550781 C 8.253906 4.59375 7.964844 4.785156 7.800781 5.074219 C 7.757812 5.066406 7.710938 5.0625 7.667969 5.0625 C 7.089844 5.0625 6.625 5.527344 6.625 6.105469 C 6.625 6.152344 6.628906 6.195312 6.636719 6.238281 C 6.308594 6.425781 6.105469 6.769531 6.105469 7.144531 C 6.105469 7.722656 6.570312 8.1875 7.144531 8.1875 L 11.832031 8.1875 C 12.695312 8.1875 13.394531 7.488281 13.394531 6.625 C 13.394531 5.761719 12.695312 5.0625 11.832031 5.0625 C 11.789062 5.0625 11.742188 5.066406 11.699219 5.070312 C 11.535156 4.785156 11.246094 4.589844 10.917969 4.550781 C 10.625 4.214844 10.199219 4.023438 9.75 4.019531 Z M 9.75 4.019531 "/>
</g>
</svg>
