
<svg xmlns="http://www.w3.org/2000/svg" xmlns:xlink="http://www.w3.org/1999/xlink" width="32px" height="32px" viewBox="0 0 32 32" version="1.1">
<g id="surface1">
<path style="fill-rule:nonzero;fill:rgb(25.098041%,32.549021%,40.784314%);fill-opacity:1;stroke-width:2.646595;stroke-linecap:butt;stroke-linejoin:miter;stroke:rgb(29.019609%,68.235296%,90.980393%);stroke-opacity:1;stroke-miterlimit:4;" d="M 91.503265 42.70644 L 124.26889 42.70644 C 127.192719 42.70644 129.559906 45.073627 129.559906 47.997456 L 129.559906 80.763081 C 129.559906 83.686909 127.192719 86.054096 124.26889 86.054096 L 91.503265 86.054096 C 88.579437 86.054096 86.21225 83.686909 86.21225 80.763081 L 86.21225 47.997456 C 86.21225 45.073627 88.579437 42.70644 91.503265 42.70644 Z M 91.503265 42.70644 " transform="matrix(0.666667,0,0,0.666667,-55.924052,-26.920179)"/>
<path style=" stroke:none;fill-rule:nonzero;fill:rgb(10.196079%,73.725492%,62.352943%);fill-opacity:0.941176;" d="M 15.441406 7.871094 C 14.792969 7.875 14.167969 7.929688 13.625 8.027344 C 12.019531 8.316406 11.726562 8.914062 11.726562 10.019531 L 11.726562 11.480469 L 15.523438 11.480469 L 15.523438 11.972656 L 10.300781 11.972656 C 9.195312 11.972656 8.230469 12.640625 7.925781 13.914062 C 7.578125 15.375 7.5625 16.285156 7.925781 17.8125 C 8.199219 18.949219 8.84375 19.757812 9.945312 19.757812 L 11.253906 19.757812 L 11.253906 18.003906 C 11.253906 16.738281 12.335938 15.621094 13.625 15.621094 L 17.417969 15.621094 C 18.472656 15.621094 19.316406 14.746094 19.316406 13.675781 L 19.316406 10.019531 C 19.316406 8.980469 18.449219 8.199219 17.417969 8.027344 C 16.765625 7.917969 16.089844 7.867188 15.441406 7.871094 Z M 13.386719 9.046875 C 13.777344 9.046875 14.097656 9.375 14.097656 9.78125 C 14.097656 10.183594 13.777344 10.507812 13.386719 10.507812 C 12.992188 10.507812 12.671875 10.183594 12.671875 9.78125 C 12.671875 9.375 12.992188 9.046875 13.386719 9.046875 Z M 13.386719 9.046875 "/>
<path style=" stroke:none;fill-rule:nonzero;fill:rgb(10.196079%,73.725492%,62.352943%);fill-opacity:0.941176;" d="M 19.816406 11.941406 L 19.816406 13.628906 C 19.816406 14.941406 18.707031 16.042969 17.441406 16.042969 L 13.636719 16.042969 C 12.597656 16.042969 11.738281 16.9375 11.738281 17.980469 L 11.738281 21.605469 C 11.738281 22.636719 12.632812 23.242188 13.636719 23.539062 C 14.84375 23.894531 16 23.957031 17.441406 23.539062 C 18.398438 23.261719 19.34375 22.703125 19.34375 21.605469 L 19.34375 20.152344 L 15.542969 20.152344 L 15.542969 19.667969 L 21.246094 19.667969 C 22.351562 19.667969 22.765625 18.898438 23.148438 17.738281 C 23.546875 16.546875 23.527344 15.402344 23.148438 13.871094 C 22.875 12.769531 22.355469 11.941406 21.246094 11.941406 Z M 17.679688 21.121094 C 18.074219 21.121094 18.394531 21.445312 18.394531 21.84375 C 18.394531 22.246094 18.074219 22.570312 17.679688 22.570312 C 17.285156 22.570312 16.964844 22.246094 16.964844 21.84375 C 16.964844 21.445312 17.285156 21.121094 17.679688 21.121094 Z M 17.679688 21.121094 "/>
</g>
</svg>
