
<svg xmlns="http://www.w3.org/2000/svg" xmlns:xlink="http://www.w3.org/1999/xlink" width="32px" height="32px" viewBox="0 0 32 32" version="1.1">
<g id="surface1">
<path style="fill-rule:nonzero;fill:rgb(21.568628%,44.313726%,78.431374%);fill-opacity:1;stroke-width:0.720706;stroke-linecap:butt;stroke-linejoin:miter;stroke:rgb(29.019609%,68.235296%,90.980393%);stroke-opacity:1;stroke-miterlimit:4;" d="M 2.311796 284.3248 L 11.234869 284.3248 C 12.030273 284.3248 12.675195 284.969722 12.675195 285.765126 L 12.675195 294.688199 C 12.675195 295.483602 12.030273 296.128524 11.234869 296.128524 L 2.311796 296.128524 C 1.516393 296.128524 0.871471 295.483602 0.871471 294.688199 L 0.871471 285.765126 C 0.871471 284.969722 1.516393 284.3248 2.311796 284.3248 Z M 2.311796 284.3248 " transform="matrix(2.362205,0,0,2.362205,0.0000011811,-669.574788)"/>
<path style=" stroke:none;fill-rule:evenodd;fill:rgb(20.392157%,59.607846%,85.882354%);fill-opacity:1;" d="M 6.121094 2.667969 L 25.878906 2.667969 C 27.785156 2.667969 29.332031 4.214844 29.332031 6.121094 L 29.332031 25.878906 C 29.332031 27.785156 27.785156 29.332031 25.878906 29.332031 L 6.121094 29.332031 C 4.214844 29.332031 2.667969 27.785156 2.667969 25.878906 L 2.667969 6.121094 C 2.667969 4.214844 4.214844 2.667969 6.121094 2.667969 Z M 6.121094 2.667969 "/>
<path style=" stroke:none;fill-rule:evenodd;fill:rgb(92.54902%,94.117647%,94.509804%);fill-opacity:1;" d="M 4.605469 3.40625 L 4.605469 4.605469 L 3.40625 4.605469 L 3.40625 4.730469 L 4.605469 4.730469 L 4.605469 8.382812 L 3.40625 8.382812 L 3.40625 8.507812 L 4.605469 8.507812 L 4.605469 12.160156 L 3.40625 12.160156 L 3.40625 12.285156 L 4.605469 12.285156 L 4.605469 15.9375 L 3.40625 15.9375 L 3.40625 16.0625 L 4.605469 16.0625 L 4.605469 19.714844 L 3.40625 19.714844 L 3.40625 19.839844 L 4.605469 19.839844 L 4.605469 23.492188 L 3.40625 23.492188 L 3.40625 23.617188 L 4.605469 23.617188 L 4.605469 27.269531 L 3.40625 27.269531 L 3.40625 27.394531 L 4.605469 27.394531 L 4.605469 28.59375 L 4.730469 28.59375 L 4.730469 27.394531 L 8.382812 27.394531 L 8.382812 28.59375 L 8.507812 28.59375 L 8.507812 27.394531 L 12.160156 27.394531 L 12.160156 28.59375 L 12.285156 28.59375 L 12.285156 27.394531 L 15.9375 27.394531 L 15.9375 28.59375 L 16.0625 28.59375 L 16.0625 27.394531 L 19.714844 27.394531 L 19.714844 28.59375 L 19.839844 28.59375 L 19.839844 27.394531 L 23.492188 27.394531 L 23.492188 28.59375 L 23.617188 28.59375 L 23.617188 27.394531 L 27.269531 27.394531 L 27.269531 28.59375 L 27.394531 28.59375 L 27.394531 27.394531 L 28.59375 27.394531 L 28.59375 27.269531 L 27.394531 27.269531 L 27.394531 23.617188 L 28.59375 23.617188 L 28.59375 23.492188 L 27.394531 23.492188 L 27.394531 19.839844 L 28.59375 19.839844 L 28.59375 19.714844 L 27.394531 19.714844 L 27.394531 16.0625 L 28.59375 16.0625 L 28.59375 15.9375 L 27.394531 15.9375 L 27.394531 12.285156 L 28.59375 12.285156 L 28.59375 12.160156 L 27.394531 12.160156 L 27.394531 8.507812 L 28.59375 8.507812 L 28.59375 8.382812 L 27.394531 8.382812 L 27.394531 4.730469 L 28.59375 4.730469 L 28.59375 4.605469 L 27.394531 4.605469 L 27.394531 3.40625 L 27.269531 3.40625 L 27.269531 4.605469 L 23.617188 4.605469 L 23.617188 3.40625 L 23.492188 3.40625 L 23.492188 4.605469 L 19.839844 4.605469 L 19.839844 3.40625 L 19.714844 3.40625 L 19.714844 4.605469 L 16.0625 4.605469 L 16.0625 3.40625 L 15.9375 3.40625 L 15.9375 4.605469 L 12.285156 4.605469 L 12.285156 3.40625 L 12.160156 3.40625 L 12.160156 4.605469 L 8.507812 4.605469 L 8.507812 3.40625 L 8.382812 3.40625 L 8.382812 4.605469 L 4.730469 4.605469 L 4.730469 3.40625 Z M 4.730469 4.730469 L 8.382812 4.730469 L 8.382812 8.382812 L 4.730469 8.382812 Z M 8.507812 4.730469 L 12.160156 4.730469 L 12.160156 8.382812 L 8.507812 8.382812 Z M 12.285156 4.730469 L 15.9375 4.730469 L 15.9375 8.382812 L 12.285156 8.382812 Z M 16.0625 4.730469 L 19.714844 4.730469 L 19.714844 8.382812 L 16.0625 8.382812 Z M 19.839844 4.730469 L 23.492188 4.730469 L 23.492188 8.382812 L 19.839844 8.382812 Z M 23.617188 4.730469 L 27.269531 4.730469 L 27.269531 8.382812 L 23.617188 8.382812 Z M 4.730469 8.507812 L 8.382812 8.507812 L 8.382812 12.160156 L 4.730469 12.160156 Z M 8.507812 8.507812 L 12.160156 8.507812 L 12.160156 12.160156 L 8.507812 12.160156 Z M 12.285156 8.507812 L 15.9375 8.507812 L 15.9375 12.160156 L 12.285156 12.160156 Z M 16.0625 8.507812 L 19.714844 8.507812 L 19.714844 12.160156 L 16.0625 12.160156 Z M 19.839844 8.507812 L 23.492188 8.507812 L 23.492188 12.160156 L 19.839844 12.160156 Z M 23.617188 8.507812 L 27.269531 8.507812 L 27.269531 12.160156 L 23.617188 12.160156 Z M 4.730469 12.285156 L 8.382812 12.285156 L 8.382812 15.9375 L 4.730469 15.9375 Z M 8.507812 12.285156 L 12.160156 12.285156 L 12.160156 15.9375 L 8.507812 15.9375 Z M 12.285156 12.285156 L 15.9375 12.285156 L 15.9375 15.9375 L 12.285156 15.9375 Z M 16.0625 12.285156 L 19.714844 12.285156 L 19.714844 15.9375 L 16.0625 15.9375 Z M 19.839844 12.285156 L 23.492188 12.285156 L 23.492188 15.9375 L 19.839844 15.9375 Z M 23.617188 12.285156 L 27.269531 12.285156 L 27.269531 15.9375 L 23.617188 15.9375 Z M 4.730469 16.0625 L 8.382812 16.0625 L 8.382812 19.714844 L 4.730469 19.714844 Z M 8.507812 16.0625 L 12.160156 16.0625 L 12.160156 19.714844 L 8.507812 19.714844 Z M 12.285156 16.0625 L 15.9375 16.0625 L 15.9375 19.714844 L 12.285156 19.714844 Z M 16.0625 16.0625 L 19.714844 16.0625 L 19.714844 19.714844 L 16.0625 19.714844 Z M 19.839844 16.0625 L 23.492188 16.0625 L 23.492188 19.714844 L 19.839844 19.714844 Z M 23.617188 16.0625 L 27.269531 16.0625 L 27.269531 19.714844 L 23.617188 19.714844 Z M 4.730469 19.839844 L 8.382812 19.839844 L 8.382812 23.492188 L 4.730469 23.492188 Z M 8.507812 19.839844 L 12.160156 19.839844 L 12.160156 23.492188 L 8.507812 23.492188 Z M 12.285156 19.839844 L 15.9375 19.839844 L 15.9375 23.492188 L 12.285156 23.492188 Z M 16.0625 19.839844 L 19.714844 19.839844 L 19.714844 23.492188 L 16.0625 23.492188 Z M 19.839844 19.839844 L 23.492188 19.839844 L 23.492188 23.492188 L 19.839844 23.492188 Z M 23.617188 19.839844 L 27.269531 19.839844 L 27.269531 23.492188 L 23.617188 23.492188 Z M 4.730469 23.617188 L 8.382812 23.617188 L 8.382812 27.269531 L 4.730469 27.269531 Z M 8.507812 23.617188 L 12.160156 23.617188 L 12.160156 27.269531 L 8.507812 27.269531 Z M 12.285156 23.617188 L 15.9375 23.617188 L 15.9375 27.269531 L 12.285156 27.269531 Z M 16.0625 23.617188 L 19.714844 23.617188 L 19.714844 27.269531 L 16.0625 27.269531 Z M 19.839844 23.617188 L 23.492188 23.617188 L 23.492188 27.269531 L 19.839844 27.269531 Z M 23.617188 23.617188 L 27.269531 23.617188 L 27.269531 27.269531 L 23.617188 27.269531 Z M 23.617188 23.617188 "/>
<path style=" stroke:none;fill-rule:evenodd;fill:rgb(92.54902%,94.117647%,94.509804%);fill-opacity:1;" d="M 9.464844 18.667969 C 9.234375 18.667969 9 18.691406 8.769531 18.734375 L 8.402344 19.625 L 8.402344 19.640625 C 8.269531 19.691406 8.140625 19.75 8.015625 19.824219 C 7.894531 19.894531 7.777344 19.976562 7.667969 20.066406 L 7.65625 20.058594 L 6.699219 19.929688 C 6.394531 20.285156 6.152344 20.691406 6 21.128906 L 6.589844 21.902344 L 6.601562 21.90625 C 6.558594 22.191406 6.5625 22.476562 6.605469 22.761719 L 6.589844 22.765625 L 6 23.535156 C 6.074219 23.753906 6.171875 23.96875 6.285156 24.171875 C 6.402344 24.371094 6.539062 24.5625 6.691406 24.738281 L 7.65625 24.609375 L 7.667969 24.601562 C 7.890625 24.777344 8.136719 24.921875 8.402344 25.027344 L 8.402344 25.042969 L 8.773438 25.9375 C 9.230469 26.023438 9.703125 26.019531 10.160156 25.929688 L 10.53125 25.035156 L 10.53125 25.027344 C 10.660156 24.972656 10.792969 24.917969 10.914062 24.84375 C 11.039062 24.773438 11.15625 24.691406 11.269531 24.597656 L 11.277344 24.605469 L 12.234375 24.734375 C 12.539062 24.382812 12.777344 23.972656 12.933594 23.535156 L 12.339844 22.765625 L 12.332031 22.757812 C 12.371094 22.476562 12.371094 22.191406 12.332031 21.90625 L 12.339844 21.902344 L 12.933594 21.128906 C 12.859375 20.910156 12.761719 20.699219 12.648438 20.496094 C 12.53125 20.292969 12.394531 20.105469 12.238281 19.929688 L 11.277344 20.058594 L 11.265625 20.066406 C 11.042969 19.886719 10.792969 19.742188 10.53125 19.636719 L 10.527344 19.625 L 10.160156 18.730469 C 9.933594 18.6875 9.699219 18.667969 9.464844 18.667969 Z M 9.464844 20.207031 C 10.023438 20.207031 10.574219 20.433594 10.96875 20.828125 C 11.363281 21.222656 11.59375 21.777344 11.59375 22.332031 C 11.59375 22.886719 11.363281 23.441406 10.96875 23.835938 C 10.574219 24.230469 10.023438 24.457031 9.464844 24.457031 C 8.910156 24.457031 8.355469 24.230469 7.964844 23.835938 C 7.570312 23.441406 7.339844 22.886719 7.339844 22.332031 C 7.339844 21.777344 7.570312 21.222656 7.964844 20.828125 C 8.355469 20.433594 8.910156 20.207031 9.464844 20.207031 Z M 9.464844 20.207031 "/>
<path style=" stroke:none;fill-rule:evenodd;fill:rgb(92.54902%,94.117647%,94.509804%);fill-opacity:1;" d="M 20.324219 6 C 19.941406 6 19.5625 6.039062 19.1875 6.109375 L 18.585938 7.570312 L 18.585938 7.59375 C 18.367188 7.679688 18.152344 7.773438 17.949219 7.890625 C 17.75 8.007812 17.558594 8.144531 17.378906 8.289062 L 17.359375 8.277344 L 15.792969 8.066406 C 15.292969 8.644531 14.902344 9.3125 14.652344 10.035156 L 15.621094 11.292969 L 15.636719 11.300781 C 15.570312 11.761719 15.570312 12.234375 15.640625 12.695312 L 15.621094 12.707031 L 14.652344 13.964844 C 14.773438 14.328125 14.929688 14.675781 15.121094 15.003906 C 15.308594 15.335938 15.535156 15.644531 15.785156 15.933594 L 17.359375 15.722656 L 17.378906 15.710938 C 17.746094 16 18.152344 16.238281 18.585938 16.410156 L 18.585938 16.429688 L 19.191406 17.894531 C 19.941406 18.039062 20.714844 18.035156 21.464844 17.890625 L 22.066406 16.429688 L 22.066406 16.40625 C 22.28125 16.324219 22.496094 16.226562 22.699219 16.113281 C 22.898438 15.996094 23.089844 15.855469 23.273438 15.710938 L 23.292969 15.722656 L 24.855469 15.933594 C 25.355469 15.355469 25.746094 14.683594 26 13.964844 L 25.03125 12.707031 L 25.015625 12.699219 C 25.082031 12.238281 25.082031 11.765625 25.011719 11.304688 L 25.03125 11.292969 L 26 10.035156 C 25.878906 9.675781 25.722656 9.324219 25.53125 8.996094 C 25.339844 8.664062 25.117188 8.355469 24.863281 8.070312 L 23.292969 8.277344 L 23.273438 8.292969 C 22.90625 8 22.5 7.761719 22.066406 7.589844 L 22.066406 7.574219 L 21.460938 6.105469 C 21.085938 6.035156 20.707031 6 20.324219 6.003906 Z M 20.324219 8.519531 C 21.234375 8.519531 22.140625 8.894531 22.785156 9.539062 C 23.429688 10.183594 23.804688 11.089844 23.804688 12 C 23.804688 12.910156 23.429688 13.816406 22.785156 14.460938 C 22.140625 15.105469 21.234375 15.480469 20.324219 15.480469 C 19.414062 15.480469 18.507812 15.105469 17.863281 14.457031 C 17.222656 13.816406 16.847656 12.910156 16.847656 12 C 16.847656 11.089844 17.222656 10.183594 17.863281 9.539062 C 18.507812 8.894531 19.414062 8.519531 20.324219 8.519531 Z M 20.324219 8.519531 "/>
<path style=" stroke:none;fill-rule:nonzero;fill:rgb(92.54902%,94.117647%,94.509804%);fill-opacity:1;" d="M 22.332031 18.667969 C 20.308594 18.667969 18.667969 20.308594 18.667969 22.332031 C 18.667969 24.359375 20.308594 26 22.332031 26 C 24.359375 26 26 24.359375 26 22.332031 C 26 20.308594 24.359375 18.667969 22.332031 18.667969 Z M 22.332031 18.972656 C 23.871094 18.972656 25.171875 20.007812 25.566406 21.417969 C 25.226562 22.128906 24.738281 22.761719 24.144531 23.277344 C 23.859375 23.527344 23.546875 23.746094 23.203125 23.902344 C 22.859375 24.054688 22.480469 24.144531 22.105469 24.121094 C 21.820312 24.105469 21.542969 24.027344 21.292969 23.890625 C 21.949219 23.535156 22.542969 23.058594 23.027344 22.488281 C 23.347656 22.117188 23.625 21.691406 23.730469 21.214844 C 23.785156 20.972656 23.796875 20.722656 23.746094 20.484375 C 23.695312 20.242188 23.582031 20.015625 23.417969 19.835938 C 23.253906 19.660156 23.035156 19.535156 22.804688 19.472656 C 22.574219 19.410156 22.328125 19.40625 22.09375 19.449219 C 21.621094 19.535156 21.199219 19.808594 20.863281 20.148438 C 20.269531 20.746094 19.898438 21.59375 19.964844 22.4375 C 20 22.859375 20.140625 23.269531 20.382812 23.617188 C 20.4375 23.695312 20.496094 23.769531 20.558594 23.839844 C 20.207031 23.964844 19.84375 24.050781 19.472656 24.097656 C 19.15625 23.585938 18.972656 22.980469 18.972656 22.332031 C 18.972656 20.476562 20.476562 18.972656 22.332031 18.972656 Z M 22.355469 19.652344 C 22.589844 19.652344 22.828125 19.722656 23.019531 19.863281 C 23.1875 19.996094 23.3125 20.175781 23.386719 20.378906 C 23.457031 20.578125 23.472656 20.792969 23.449219 21.007812 C 23.402344 21.429688 23.1875 21.816406 22.929688 22.15625 C 22.472656 22.753906 21.867188 23.238281 21.191406 23.574219 C 21.121094 23.605469 21.050781 23.640625 20.980469 23.671875 C 20.835938 23.542969 20.710938 23.390625 20.613281 23.222656 C 20.414062 22.863281 20.347656 22.445312 20.386719 22.039062 C 20.425781 21.632812 20.566406 21.242188 20.75 20.878906 C 20.96875 20.460938 21.261719 20.0625 21.675781 19.832031 C 21.886719 19.71875 22.117188 19.652344 22.355469 19.652344 Z M 25.664062 21.882812 C 25.683594 22.03125 25.695312 22.179688 25.695312 22.332031 C 25.695312 24.191406 24.191406 25.695312 22.332031 25.695312 C 21.292969 25.695312 20.359375 25.21875 19.742188 24.472656 C 20.121094 24.386719 20.496094 24.265625 20.851562 24.105469 C 21.007812 24.222656 21.179688 24.324219 21.363281 24.394531 C 21.890625 24.59375 22.488281 24.566406 23.023438 24.378906 C 23.558594 24.195312 24.03125 23.863281 24.441406 23.480469 C 24.933594 23.019531 25.347656 22.476562 25.664062 21.882812 Z M 25.664062 21.882812 "/>
</g>
</svg>
