
<svg xmlns="http://www.w3.org/2000/svg" xmlns:xlink="http://www.w3.org/1999/xlink" width="32px" height="32px" viewBox="0 0 32 32" version="1.1">
<g id="surface1">
<path style="fill-rule:nonzero;fill:rgb(58.823532%,78.823531%,32.156864%);fill-opacity:1;stroke-width:7.116;stroke-linecap:butt;stroke-linejoin:miter;stroke:rgb(81.176472%,94.509804%,65.882355%);stroke-opacity:1;stroke-miterlimit:4;" d="M 19.953125 5.71875 L 108.046875 5.71875 C 115.90625 5.71875 122.28125 12.09375 122.28125 19.953125 L 122.28125 108.046875 C 122.28125 115.90625 115.90625 122.28125 108.046875 122.28125 L 19.953125 122.28125 C 12.09375 122.28125 5.71875 115.90625 5.71875 108.046875 L 5.71875 19.953125 C 5.71875 12.09375 12.09375 5.71875 19.953125 5.71875 Z M 19.953125 5.71875 " transform="matrix(0.25,0,0,0.25,0,0)"/>
<path style=" stroke:none;fill-rule:nonzero;fill:rgb(100%,100%,100%);fill-opacity:1;" d="M 18.722656 21.199219 L 18.722656 22.957031 L 18.082031 22.996094 C 17.140625 23.007812 16.648438 24.488281 18.003906 24.671875 C 18.457031 24.75 18.894531 24.722656 19.480469 24.671875 C 20.613281 24.503906 20.835938 24.402344 20.835938 23.511719 C 20.824219 23.117188 20.808594 22.644531 20.796875 22.035156 C 20.730469 21.316406 20.289062 20.078125 19.519531 20.121094 C 18.816406 20.121094 18.097656 20.050781 17.5625 19.878906 C 16.632812 19.585938 16.289062 19.726562 15.566406 18.324219 C 15.363281 18.890625 15.140625 19.191406 15.089844 19.683594 C 14.957031 20.523438 14.472656 20.808594 13.808594 20.800781 C 12.972656 20.714844 12.132812 20.519531 11.214844 20.320312 C 10.386719 20.136719 9.660156 20.121094 8.820312 19.800781 C 7.488281 19.238281 7.382812 17.699219 7.066406 16.328125 C 6.789062 15.039062 6.59375 13.65625 6.425781 12.296875 C 6.246094 11.074219 6.644531 10.273438 8.0625 10.222656 L 10.097656 10.261719 C 10.660156 10.207031 11.199219 10.128906 11.136719 9.339844 L 11.097656 7.027344 C 11.152344 6.871094 11.371094 5.464844 12.933594 5.429688 L 14.886719 5.511719 C 15.566406 5.625 16.707031 5.835938 17.121094 7.105469 C 18.460938 7.136719 19.855469 7.113281 20.996094 7.347656 C 22.199219 7.816406 24.125 7.570312 23.871094 9.503906 C 24.132812 9.597656 24.171875 12.503906 24.230469 15.171875 C 24.242188 16.789062 24.191406 18.4375 23.988281 20.160156 C 23.980469 21.871094 23.441406 23.371094 22.910156 24.871094 C 22.585938 25.808594 22.144531 26.648438 20.875 26.746094 C 19.585938 26.90625 18.386719 26.878906 17.203125 26.828125 C 16.082031 26.792969 15.488281 26.058594 15.328125 24.75 L 15.328125 23.394531 C 15.328125 22.492188 15.820312 21.703125 17.203125 21.121094 Z M 18.722656 21.199219 "/>
<path style=" stroke:none;fill-rule:nonzero;fill:rgb(58.823532%,78.823531%,32.156864%);fill-opacity:1;" d="M 18.410156 15.675781 L 21.242188 15.699219 C 21.328125 14.222656 20.691406 13.9375 19.886719 13.933594 C 18.433594 14.078125 18.488281 14.910156 18.410156 15.675781 Z M 18.410156 15.675781 "/>
<path style=" stroke:none;fill-rule:nonzero;fill:rgb(100%,100%,100%);fill-opacity:1;" d="M 7.425781 8.882812 L 9.9375 6.503906 C 9.726562 7 9.8125 7.90625 9.769531 8.582031 C 9.785156 8.679688 9.707031 8.738281 9.582031 8.773438 C 8.863281 8.804688 8.175781 8.679688 7.425781 8.882812 Z M 7.425781 8.882812 "/>
</g>
</svg>
