
<svg xmlns="http://www.w3.org/2000/svg" xmlns:xlink="http://www.w3.org/1999/xlink" width="32px" height="32px" viewBox="0 0 32 32" version="1.1">
<g id="surface1">
<path style="fill-rule:nonzero;fill:rgb(80.392158%,61.176473%,42.745098%);fill-opacity:1;stroke-width:28.191782;stroke-linecap:butt;stroke-linejoin:miter;stroke:rgb(41.568628%,30.19608%,21.960784%);stroke-opacity:1;stroke-miterlimit:4;" d="M 186.724791 461.422903 L 535.748707 461.422903 C 566.879919 461.422903 592.126573 486.669557 592.126573 517.800769 L 592.126573 866.824684 C 592.126573 897.955896 566.879919 923.20255 535.748707 923.20255 L 186.724791 923.20255 C 155.593579 923.20255 130.346925 897.955896 130.346925 866.824684 L 130.346925 517.800769 C 130.346925 486.669557 155.593579 461.422903 186.724791 461.422903 Z M 186.724791 461.422903 " transform="matrix(0.0617347,0,0,0.0617347,-6.30083,-26.739695)"/>
<path style=" stroke:none;fill-rule:nonzero;fill:rgb(41.568628%,30.19608%,21.960784%);fill-opacity:1;" d="M 2.304688 1.941406 L 2.304688 29.699219 L 6.273438 29.699219 L 6.273438 1.941406 Z M 2.304688 1.941406 "/>
<path style=" stroke:none;fill-rule:evenodd;fill:rgb(42.352942%,22.745098%,10.588235%);fill-opacity:1;" d="M 14.664062 16.234375 L 15.769531 15.128906 L 18.183594 17.542969 L 17.078125 18.652344 Z M 14.664062 16.234375 "/>
<path style=" stroke:none;fill-rule:evenodd;fill:rgb(42.352942%,22.745098%,10.588235%);fill-opacity:1;" d="M 16.421875 11.019531 C 14.886719 11.019531 13.355469 11.652344 12.269531 12.738281 C 11.183594 13.824219 10.554688 15.351562 10.554688 16.886719 C 10.554688 18.425781 11.183594 19.953125 12.269531 21.039062 C 13.355469 22.125 14.886719 22.757812 16.421875 22.757812 C 17.957031 22.757812 19.488281 22.128906 20.574219 21.039062 C 21.660156 19.953125 22.292969 18.425781 22.292969 16.886719 L 20.730469 16.886719 C 20.730469 18.015625 20.261719 19.136719 19.464844 19.933594 C 18.667969 20.730469 17.550781 21.191406 16.421875 21.191406 C 15.292969 21.191406 14.175781 20.730469 13.378906 19.933594 C 12.582031 19.136719 12.121094 18.015625 12.121094 16.886719 C 12.121094 15.761719 12.582031 14.644531 13.378906 13.847656 C 14.175781 13.050781 15.292969 12.582031 16.421875 12.582031 C 16.421875 12.582031 16.421875 12.582031 16.425781 12.582031 L 16.425781 11.019531 C 16.425781 11.019531 16.421875 11.019531 16.421875 11.019531 Z M 16.421875 11.019531 "/>
<path style=" stroke:none;fill-rule:evenodd;fill:rgb(42.352942%,22.745098%,10.588235%);fill-opacity:1;" d="M 22.753906 11.019531 L 16.097656 17.671875 L 17.207031 18.777344 L 23.859375 12.125 Z M 22.753906 11.019531 "/>
</g>
</svg>
