<!-- color: #214152 -->
<svg xmlns="http://www.w3.org/2000/svg" xmlns:xlink="http://www.w3.org/1999/xlink" width="32px" height="32px" viewBox="0 0 32 32" version="1.1">
<defs>
<clipPath id="clip1">
  <path d="M 7.625 7.4375 L 24.625 7.4375 L 24.625 24.4375 L 7.625 24.4375 Z M 7.625 7.4375 "/>
</clipPath>
<clipPath id="clip2">
  <path d="M 31.082031 15.933594 C 31.082031 24.195312 24.386719 30.886719 16.132812 30.886719 C 7.878906 30.886719 1.183594 24.195312 1.183594 15.933594 C 1.183594 7.675781 7.878906 0.984375 16.132812 0.984375 C 24.386719 0.984375 31.082031 7.675781 31.082031 15.933594 Z M 31.082031 15.933594 "/>
</clipPath>
</defs>
<g id="surface1">
<path style="fill-rule:nonzero;fill:rgb(43.921569%,50.196081%,56.470591%);fill-opacity:1;stroke-width:6.815335;stroke-linecap:butt;stroke-linejoin:miter;stroke:rgb(29.019609%,68.235296%,90.980393%);stroke-opacity:1;stroke-miterlimit:4;" d="M 21.8125 8.171875 L 106.1875 8.171875 C 113.71875 8.171875 119.828125 14.28125 119.828125 21.8125 L 119.828125 106.1875 C 119.828125 113.71875 113.71875 119.828125 106.1875 119.828125 L 21.8125 119.828125 C 14.28125 119.828125 8.171875 113.71875 8.171875 106.1875 L 8.171875 21.8125 C 8.171875 14.28125 14.28125 8.171875 21.8125 8.171875 Z M 21.8125 8.171875 " transform="matrix(0.25,0,0,0.25,0,0)"/>
<g clip-path="url(#clip1)" clip-rule="nonzero">
<g clip-path="url(#clip2)" clip-rule="nonzero">
<path style=" stroke:none;fill-rule:evenodd;fill:rgb(97.647059%,97.647059%,97.647059%);fill-opacity:1;" d="M 7.683594 7.484375 C 9.753906 9.667969 8.855469 11.066406 9.984375 13.644531 C 11.042969 16.035156 13.339844 14.246094 14.917969 15.933594 C 13.339844 17.625 11.035156 15.824219 9.976562 18.214844 C 8.839844 20.792969 9.746094 22.199219 7.675781 24.382812 C 9.859375 22.308594 11.265625 23.214844 13.839844 22.082031 C 16.234375 21.019531 14.441406 18.722656 16.128906 17.144531 C 17.808594 18.722656 16.027344 21.03125 18.414062 22.089844 C 20.988281 23.230469 22.386719 22.308594 24.570312 24.386719 C 22.496094 22.199219 23.414062 20.800781 22.273438 18.226562 C 21.21875 15.839844 18.914062 17.613281 17.339844 15.9375 C 18.914062 14.261719 21.21875 16.035156 22.273438 13.648438 C 23.414062 11.074219 22.496094 9.675781 24.570312 7.488281 C 22.386719 9.566406 20.988281 8.648438 18.414062 9.789062 C 16.027344 10.839844 17.808594 13.152344 16.128906 14.726562 C 14.441406 13.152344 16.230469 10.851562 13.839844 9.792969 C 11.265625 8.65625 9.859375 9.566406 7.675781 7.488281 M 7.683594 7.484375 "/>
</g>
</g>
</g>
</svg>
