
<svg xmlns="http://www.w3.org/2000/svg" xmlns:xlink="http://www.w3.org/1999/xlink" width="32px" height="32px" viewBox="0 0 32 32" version="1.1">
<defs>
<clipPath id="clip1">
  <path d="M 9.5 4.75 L 25.75 4.75 L 25.75 29.9375 L 9.5 29.9375 Z M 9.5 4.75 "/>
</clipPath>
<clipPath id="clip2">
  <path d="M 6.277344 2.246094 L 25.847656 2.246094 C 28.074219 2.246094 29.875 4.050781 29.875 6.273438 L 29.875 25.910156 C 29.875 28.136719 28.074219 29.9375 25.847656 29.9375 L 6.277344 29.9375 C 4.050781 29.9375 2.25 28.136719 2.25 25.910156 L 2.25 6.273438 C 2.25 4.050781 4.050781 2.246094 6.277344 2.246094 Z M 6.277344 2.246094 "/>
</clipPath>
<clipPath id="clip3">
  <path d="M 2.25 2.1875 L 29.875 2.1875 L 29.875 29.9375 L 2.25 29.9375 Z M 2.25 2.1875 "/>
</clipPath>
<clipPath id="clip4">
  <path d="M 6.277344 2.246094 L 25.847656 2.246094 C 28.074219 2.246094 29.875 4.050781 29.875 6.273438 L 29.875 25.910156 C 29.875 28.136719 28.074219 29.9375 25.847656 29.9375 L 6.277344 29.9375 C 4.050781 29.9375 2.25 28.136719 2.25 25.910156 L 2.25 6.273438 C 2.25 4.050781 4.050781 2.246094 6.277344 2.246094 Z M 6.277344 2.246094 "/>
</clipPath>
</defs>
<g id="surface1">
<g clip-path="url(#clip1)" clip-rule="nonzero">
<g clip-path="url(#clip2)" clip-rule="nonzero">
<path style=" stroke:none;fill-rule:nonzero;fill:rgb(100%,100%,100%);fill-opacity:1;" d="M 13.582031 4.78125 L 21.664062 4.78125 C 23.886719 4.78125 25.691406 6.582031 25.691406 8.808594 L 25.691406 26.207031 C 25.691406 28.433594 23.886719 30.234375 21.664062 30.234375 L 13.582031 30.234375 C 11.355469 30.234375 9.554688 28.433594 9.554688 26.207031 L 9.554688 8.808594 C 9.554688 6.582031 11.355469 4.78125 13.582031 4.78125 Z M 13.582031 4.78125 "/>
</g>
</g>
<g clip-path="url(#clip3)" clip-rule="nonzero">
<g clip-path="url(#clip4)" clip-rule="nonzero">
<path style=" stroke:none;fill-rule:nonzero;fill:rgb(0%,71.372551%,99.215686%);fill-opacity:1;" d="M 3.097656 30.164062 C 2.628906 30.039062 2.367188 29.871094 2.003906 29.46875 C 1.414062 28.8125 1.464844 30.089844 1.464844 15.859375 C 1.464844 1.398438 1.394531 2.871094 2.121094 2.140625 C 2.851562 1.414062 1.378906 1.484375 15.839844 1.484375 C 30.300781 1.484375 28.832031 1.40625 29.546875 2.148438 C 30.265625 2.886719 30.21875 1.390625 30.21875 15.925781 L 30.21875 28.578125 L 30.035156 28.953125 C 29.796875 29.433594 29.410156 29.816406 28.933594 30.050781 L 28.558594 30.238281 L 20.058594 30.238281 L 20.042969 24.175781 L 20.023438 18.117188 L 21.609375 18.117188 C 22.867188 18.117188 23.210938 18.097656 23.269531 18.027344 C 23.335938 17.949219 23.742188 14.589844 23.742188 14.121094 L 23.742188 13.9375 L 20.058594 13.902344 L 20.039062 12.613281 C 20.027344 11.902344 20.050781 11.160156 20.089844 10.957031 C 20.167969 10.527344 20.390625 10.253906 20.75 10.140625 C 20.878906 10.101562 21.675781 10.050781 22.515625 10.027344 L 24.042969 9.984375 L 24.042969 5.867188 L 21.398438 5.847656 C 19.015625 5.832031 18.699219 5.84375 18.144531 5.957031 C 17.371094 6.117188 16.886719 6.300781 16.394531 6.621094 C 15.421875 7.253906 14.863281 8.097656 14.542969 9.421875 C 14.445312 9.820312 14.414062 10.308594 14.386719 11.910156 L 14.347656 13.902344 L 12.289062 13.96875 L 12.289062 18.085938 L 14.347656 18.152344 L 14.347656 30.238281 L 8.902344 30.25 C 4.308594 30.261719 3.398438 30.246094 3.097656 30.164062 Z M 3.097656 30.164062 "/>
</g>
</g>
</g>
</svg>
