
<svg xmlns="http://www.w3.org/2000/svg" xmlns:xlink="http://www.w3.org/1999/xlink" width="32px" height="32px" viewBox="0 0 32 32" version="1.1">
<g id="surface1">
<path style="fill-rule:nonzero;fill:rgb(100%,33.333334%,33.333334%);fill-opacity:1;stroke-width:28.191782;stroke-linecap:butt;stroke-linejoin:miter;stroke:rgb(60.000002%,61.176473%,65.098041%);stroke-opacity:1;stroke-miterlimit:4;" d="M 81.5 25.0625 L 430.5 25.0625 C 461.6875 25.0625 486.9375 50.3125 486.9375 81.5 L 486.9375 430.5 C 486.9375 461.6875 461.6875 486.9375 430.5 486.9375 L 81.5 486.9375 C 50.3125 486.9375 25.0625 461.6875 25.0625 430.5 L 25.0625 81.5 C 25.0625 50.3125 50.3125 25.0625 81.5 25.0625 Z M 81.5 25.0625 " transform="matrix(0.0625,0,0,0.0625,0,0)"/>
<path style=" stroke:none;fill-rule:nonzero;fill:rgb(100%,100%,100%);fill-opacity:1;" d="M 5.597656 2.238281 C 3.746094 2.238281 2.238281 3.746094 2.238281 5.597656 L 2.238281 26.402344 C 2.238281 28.253906 3.746094 29.761719 5.597656 29.761719 L 26.402344 29.761719 C 28.253906 29.761719 29.761719 28.253906 29.761719 26.402344 L 29.761719 5.597656 C 29.761719 3.746094 28.253906 2.238281 26.402344 2.238281 Z M 7.921875 6.933594 L 18.757812 6.933594 L 18.757812 9.082031 L 10.472656 9.082031 L 10.472656 14.636719 L 17.949219 14.636719 L 17.949219 16.785156 L 10.472656 16.785156 L 10.472656 25.792969 L 7.921875 25.792969 Z M 7.921875 6.933594 "/>
<path style=" stroke:none;fill-rule:nonzero;fill:rgb(15.686275%,49.019608%,100%);fill-opacity:1;" d="M 20.011719 29.609375 C 19.886719 29.550781 19.75 29.410156 19.691406 29.265625 C 19.660156 29.191406 19.628906 28.90625 19.605469 28.453125 C 19.582031 28.066406 19.550781 27.722656 19.539062 27.683594 C 19.519531 27.636719 19.433594 27.589844 19.210938 27.511719 C 19.046875 27.457031 18.796875 27.351562 18.660156 27.28125 C 18.519531 27.210938 18.375 27.152344 18.339844 27.152344 C 18.292969 27.152344 18.066406 27.339844 17.746094 27.636719 C 17.453125 27.902344 17.167969 28.144531 17.113281 28.171875 C 16.996094 28.230469 16.730469 28.242188 16.59375 28.191406 C 16.484375 28.152344 15.335938 27.019531 15.261719 26.878906 C 15.1875 26.738281 15.195312 26.480469 15.277344 26.324219 C 15.316406 26.253906 15.558594 25.964844 15.816406 25.683594 C 16.097656 25.378906 16.292969 25.144531 16.292969 25.105469 C 16.292969 25.070312 16.234375 24.925781 16.164062 24.785156 C 16.09375 24.648438 15.988281 24.398438 15.933594 24.234375 C 15.875 24.070312 15.804688 23.921875 15.777344 23.90625 C 15.746094 23.894531 15.410156 23.863281 15.023438 23.839844 C 14.578125 23.816406 14.277344 23.785156 14.191406 23.753906 C 14.023438 23.695312 13.832031 23.492188 13.808594 23.347656 C 13.792969 23.285156 13.792969 22.847656 13.796875 22.371094 L 13.808594 21.503906 L 13.90625 21.378906 C 14.082031 21.160156 14.164062 21.136719 15.003906 21.085938 C 15.480469 21.058594 15.769531 21.027344 15.792969 21.003906 C 15.816406 20.980469 15.886719 20.816406 15.949219 20.636719 C 16.019531 20.460938 16.121094 20.214844 16.183594 20.097656 C 16.242188 19.976562 16.292969 19.851562 16.292969 19.816406 C 16.292969 19.785156 16.089844 19.542969 15.847656 19.277344 C 15.605469 19.007812 15.371094 18.746094 15.332031 18.691406 C 15.214844 18.539062 15.175781 18.347656 15.222656 18.164062 C 15.257812 18.023438 15.320312 17.949219 15.847656 17.410156 C 16.171875 17.082031 16.492188 16.789062 16.558594 16.753906 C 16.710938 16.675781 16.957031 16.675781 17.109375 16.75 C 17.175781 16.785156 17.457031 17.019531 17.738281 17.277344 C 18.019531 17.535156 18.265625 17.757812 18.289062 17.769531 C 18.3125 17.785156 18.464844 17.730469 18.648438 17.644531 C 18.824219 17.5625 19.082031 17.457031 19.230469 17.40625 C 19.425781 17.339844 19.5 17.296875 19.527344 17.238281 C 19.546875 17.199219 19.582031 16.847656 19.605469 16.464844 C 19.644531 15.726562 19.671875 15.609375 19.824219 15.449219 C 19.992188 15.273438 20.089844 15.257812 21.039062 15.269531 L 21.902344 15.277344 L 22.035156 15.367188 C 22.269531 15.519531 22.296875 15.617188 22.351562 16.441406 C 22.378906 16.835938 22.40625 17.191406 22.414062 17.230469 C 22.425781 17.285156 22.496094 17.324219 22.730469 17.402344 C 22.894531 17.460938 23.15625 17.574219 23.316406 17.652344 C 23.472656 17.730469 23.613281 17.796875 23.628906 17.796875 C 23.644531 17.796875 23.894531 17.574219 24.191406 17.308594 C 24.480469 17.039062 24.777344 16.789062 24.84375 16.753906 C 25 16.671875 25.230469 16.675781 25.402344 16.753906 C 25.488281 16.796875 25.761719 17.046875 26.109375 17.398438 C 26.707031 18 26.753906 18.066406 26.753906 18.339844 C 26.753906 18.535156 26.667969 18.660156 26.152344 19.222656 C 25.878906 19.527344 25.648438 19.792969 25.648438 19.808594 C 25.648438 19.824219 25.722656 19.988281 25.808594 20.171875 C 25.898438 20.355469 26.003906 20.617188 26.042969 20.75 C 26.097656 20.910156 26.140625 20.996094 26.183594 21.015625 C 26.222656 21.03125 26.578125 21.066406 26.980469 21.089844 C 27.785156 21.140625 27.910156 21.171875 28.046875 21.363281 C 28.171875 21.539062 28.1875 21.675781 28.175781 22.542969 L 28.167969 23.378906 L 28.066406 23.519531 C 27.894531 23.765625 27.847656 23.777344 26.960938 23.839844 C 26.527344 23.863281 26.164062 23.894531 26.15625 23.90625 C 26.144531 23.914062 26.089844 24.054688 26.035156 24.214844 C 25.980469 24.375 25.867188 24.636719 25.789062 24.792969 C 25.707031 24.949219 25.648438 25.097656 25.652344 25.121094 C 25.660156 25.144531 25.878906 25.398438 26.136719 25.679688 C 26.394531 25.964844 26.640625 26.257812 26.679688 26.339844 C 26.765625 26.503906 26.773438 26.683594 26.703125 26.855469 C 26.640625 27.003906 25.585938 28.074219 25.414062 28.164062 C 25.269531 28.238281 25.011719 28.246094 24.859375 28.179688 C 24.800781 28.152344 24.511719 27.914062 24.21875 27.644531 C 23.925781 27.375 23.660156 27.152344 23.628906 27.152344 C 23.601562 27.152344 23.433594 27.21875 23.261719 27.300781 C 23.085938 27.382812 22.828125 27.488281 22.6875 27.535156 C 22.492188 27.597656 22.425781 27.636719 22.414062 27.6875 C 22.40625 27.722656 22.378906 28.082031 22.351562 28.476562 C 22.292969 29.355469 22.257812 29.449219 21.953125 29.601562 C 21.863281 29.644531 21.71875 29.652344 20.980469 29.652344 C 20.324219 29.652344 20.082031 29.640625 20.011719 29.609375 Z M 21.292969 25.722656 C 22.082031 25.640625 22.738281 25.328125 23.292969 24.769531 C 23.722656 24.339844 23.996094 23.863281 24.160156 23.261719 C 24.265625 22.882812 24.261719 22.046875 24.160156 21.664062 C 23.84375 20.503906 23.011719 19.648438 21.863281 19.300781 C 21.597656 19.222656 21.523438 19.214844 21.003906 19.210938 C 20.503906 19.210938 20.402344 19.21875 20.160156 19.285156 C 18.949219 19.613281 18.023438 20.585938 17.769531 21.792969 C 17.542969 22.875 17.875 23.980469 18.667969 24.777344 C 19.082031 25.191406 19.617188 25.496094 20.199219 25.648438 C 20.367188 25.691406 20.601562 25.722656 20.9375 25.75 C 20.964844 25.753906 21.125 25.738281 21.292969 25.722656 Z M 20.488281 24.359375 C 19.660156 24.136719 19.082031 23.429688 19.027344 22.585938 C 18.996094 21.996094 19.183594 21.496094 19.605469 21.074219 C 20.367188 20.316406 21.589844 20.308594 22.339844 21.058594 C 22.964844 21.679688 23.113281 22.5625 22.726562 23.335938 C 22.398438 23.996094 21.792969 24.382812 21.050781 24.410156 C 20.800781 24.421875 20.675781 24.410156 20.488281 24.359375 Z M 21.417969 23.542969 C 21.644531 23.457031 21.917969 23.203125 22.03125 22.96875 C 22.113281 22.800781 22.121094 22.746094 22.121094 22.457031 C 22.121094 22.152344 22.117188 22.121094 22.011719 21.925781 C 21.800781 21.535156 21.480469 21.335938 21.035156 21.3125 C 20.675781 21.292969 20.460938 21.371094 20.199219 21.605469 C 19.871094 21.910156 19.742188 22.324219 19.847656 22.738281 C 19.9375 23.09375 20.132812 23.335938 20.457031 23.503906 C 20.761719 23.65625 21.074219 23.667969 21.417969 23.542969 Z M 21.417969 23.542969 "/>
</g>
</svg>
