
<svg xmlns="http://www.w3.org/2000/svg" xmlns:xlink="http://www.w3.org/1999/xlink" width="32px" height="32px" viewBox="0 0 32 32" version="1.1">
<g id="surface1">
<path style="fill-rule:nonzero;fill:rgb(30.19608%,30.19608%,30.19608%);fill-opacity:1;stroke-width:7.019179;stroke-linecap:butt;stroke-linejoin:miter;stroke:rgb(19.607843%,22.352941%,16.862746%);stroke-opacity:1;stroke-miterlimit:4;" d="M 20.54687 930.877848 L 107.45312 930.877848 C 115.20312 930.877848 121.48437 937.159098 121.48437 944.909098 L 121.48437 1031.815348 C 121.48437 1039.565348 115.20312 1045.846598 107.45312 1045.846598 L 20.54687 1045.846598 C 12.79687 1045.846598 6.51562 1039.565348 6.51562 1031.815348 L 6.51562 944.909098 C 6.51562 937.159098 12.79687 930.877848 20.54687 930.877848 Z M 20.54687 930.877848 " transform="matrix(0.25,0,0,0.25,0.00000125,-231.090556)"/>
<path style=" stroke:none;fill-rule:nonzero;fill:rgb(0%,83.137256%,0%);fill-opacity:1;" d="M 10.207031 25.332031 L 7.433594 26.179688 L 7.972656 25.152344 C 8.265625 24.582031 8.492188 24.0625 8.472656 23.988281 C 8.453125 23.917969 8.050781 23.550781 7.578125 23.175781 C 4.355469 20.597656 3.128906 16.609375 4.222656 12.261719 C 4.441406 11.394531 4.53125 11.195312 5.371094 9.730469 C 6.316406 8.078125 6.597656 7.722656 7.71875 6.738281 C 8.714844 5.863281 11.167969 4.503906 11.449219 4.664062 C 11.585938 4.742188 12.234375 7.457031 12.152344 7.597656 C 12.121094 7.652344 11.816406 7.832031 11.480469 7.988281 C 10.726562 8.339844 9.449219 9.277344 8.957031 9.847656 C 8.347656 10.542969 7.542969 12.027344 7.269531 12.949219 C 6.554688 15.335938 7.039062 17.777344 8.589844 19.605469 C 9.214844 20.347656 10.199219 21.089844 10.320312 20.910156 C 10.367188 20.847656 10.691406 20.347656 11.042969 19.800781 L 11.6875 18.8125 L 12.332031 21.644531 L 12.980469 24.480469 Z M 10.207031 25.332031 "/>
<path style=" stroke:none;fill-rule:nonzero;fill:rgb(100%,33.333334%,33.333334%);fill-opacity:1;" d="M 25.546875 23.796875 C 24.414062 25.121094 22.863281 26.359375 21.523438 27.003906 C 20.277344 27.605469 20.394531 27.6875 20.042969 25.945312 L 19.738281 24.421875 L 20.386719 24.09375 C 21.84375 23.351562 23.160156 22.128906 23.941406 20.785156 C 25.03125 18.910156 25.339844 17.082031 24.917969 15.039062 C 24.566406 13.351562 23.648438 11.902344 22.46875 11.167969 L 21.957031 10.847656 L 21.257812 11.96875 L 20.558594 13.085938 L 19.976562 10.203125 L 19.394531 7.324219 L 22.070312 6.425781 C 23.542969 5.929688 24.753906 5.5625 24.761719 5.605469 C 24.773438 5.648438 24.542969 6.152344 24.253906 6.730469 L 23.730469 7.777344 L 24.589844 8.472656 C 25.632812 9.316406 26.199219 9.96875 26.875 11.109375 C 28.332031 13.574219 28.605469 16.851562 27.613281 19.949219 C 27.257812 21.058594 26.191406 23.042969 25.546875 23.796875 Z M 25.546875 23.796875 "/>
<path style=" stroke:none;fill-rule:nonzero;fill:rgb(90.196079%,90.196079%,90.196079%);fill-opacity:1;" d="M 8.308594 16.394531 L 8.136719 16.394531 L 8.136719 15.054688 L 8.832031 15.054688 L 8.832031 15.207031 L 8.308594 15.207031 L 8.308594 15.675781 L 8.796875 15.675781 L 8.796875 15.828125 L 8.308594 15.828125 Z M 8.308594 16.394531 "/>
<path style=" stroke:none;fill-rule:nonzero;fill:rgb(90.196079%,90.196079%,90.196079%);fill-opacity:1;" d="M 9.230469 16.394531 L 9.058594 16.394531 L 9.058594 15.054688 L 9.753906 15.054688 L 9.753906 15.207031 L 9.230469 15.207031 L 9.230469 15.675781 L 9.71875 15.675781 L 9.71875 15.828125 L 9.230469 15.828125 Z M 9.230469 16.394531 "/>
<path style=" stroke:none;fill-rule:nonzero;fill:rgb(90.196079%,90.196079%,90.196079%);fill-opacity:1;" d="M 11.160156 16.394531 L 11.160156 15.746094 C 11.160156 15.667969 11.144531 15.605469 11.113281 15.566406 C 11.082031 15.527344 11.035156 15.507812 10.972656 15.507812 C 10.925781 15.507812 10.890625 15.515625 10.859375 15.527344 C 10.828125 15.542969 10.800781 15.566406 10.78125 15.59375 C 10.761719 15.621094 10.746094 15.65625 10.738281 15.695312 C 10.730469 15.738281 10.726562 15.785156 10.726562 15.839844 L 10.726562 16.394531 L 10.558594 16.394531 L 10.558594 15.746094 C 10.558594 15.667969 10.542969 15.605469 10.511719 15.566406 C 10.480469 15.527344 10.433594 15.507812 10.371094 15.507812 C 10.324219 15.507812 10.285156 15.515625 10.253906 15.53125 C 10.222656 15.546875 10.195312 15.570312 10.175781 15.601562 C 10.15625 15.632812 10.144531 15.671875 10.136719 15.71875 C 10.128906 15.761719 10.121094 15.816406 10.121094 15.871094 L 10.121094 16.394531 L 9.957031 16.394531 L 9.957031 15.386719 L 10.089844 15.386719 L 10.113281 15.523438 L 10.125 15.523438 C 10.140625 15.496094 10.15625 15.476562 10.175781 15.457031 C 10.199219 15.4375 10.21875 15.421875 10.242188 15.410156 C 10.269531 15.394531 10.292969 15.386719 10.320312 15.378906 C 10.347656 15.375 10.375 15.371094 10.402344 15.371094 C 10.476562 15.371094 10.535156 15.382812 10.585938 15.410156 C 10.632812 15.4375 10.667969 15.480469 10.691406 15.535156 L 10.699219 15.535156 C 10.714844 15.507812 10.738281 15.484375 10.757812 15.464844 C 10.78125 15.441406 10.804688 15.425781 10.832031 15.410156 C 10.855469 15.398438 10.886719 15.386719 10.914062 15.378906 C 10.945312 15.375 10.972656 15.371094 11.003906 15.371094 C 11.113281 15.371094 11.191406 15.398438 11.246094 15.457031 C 11.300781 15.515625 11.328125 15.609375 11.328125 15.738281 L 11.328125 16.394531 Z M 11.160156 16.394531 "/>
<path style=" stroke:none;fill-rule:nonzero;fill:rgb(90.196079%,90.196079%,90.196079%);fill-opacity:1;" d="M 12.285156 16.394531 L 12.261719 16.257812 L 12.253906 16.257812 C 12.238281 16.285156 12.222656 16.308594 12.199219 16.328125 C 12.175781 16.347656 12.152344 16.363281 12.128906 16.375 C 12.105469 16.386719 12.078125 16.394531 12.050781 16.402344 C 12.023438 16.410156 11.996094 16.410156 11.964844 16.410156 C 11.910156 16.410156 11.859375 16.40625 11.816406 16.390625 C 11.777344 16.378906 11.738281 16.355469 11.714844 16.324219 C 11.683594 16.296875 11.664062 16.257812 11.648438 16.210938 C 11.636719 16.164062 11.628906 16.109375 11.628906 16.042969 L 11.628906 15.386719 L 11.792969 15.386719 L 11.792969 16.035156 C 11.792969 16.113281 11.808594 16.175781 11.839844 16.214844 C 11.875 16.253906 11.925781 16.273438 11.992188 16.273438 C 12.042969 16.273438 12.082031 16.265625 12.117188 16.25 C 12.152344 16.234375 12.175781 16.210938 12.199219 16.179688 C 12.21875 16.148438 12.234375 16.113281 12.242188 16.066406 C 12.25 16.019531 12.253906 15.96875 12.253906 15.910156 L 12.253906 15.386719 L 12.421875 15.386719 L 12.421875 16.394531 Z M 12.285156 16.394531 "/>
<path style=" stroke:none;fill-rule:nonzero;fill:rgb(90.196079%,90.196079%,90.196079%);fill-opacity:1;" d="M 12.90625 16.394531 L 12.738281 16.394531 L 12.738281 14.96875 L 12.90625 14.96875 Z M 12.90625 16.394531 "/>
<path style=" stroke:none;fill-rule:nonzero;fill:rgb(90.196079%,90.196079%,90.196079%);fill-opacity:1;" d="M 13.527344 16.277344 C 13.542969 16.277344 13.550781 16.277344 13.566406 16.273438 C 13.582031 16.273438 13.59375 16.269531 13.605469 16.269531 C 13.621094 16.269531 13.628906 16.265625 13.640625 16.261719 C 13.652344 16.261719 13.660156 16.257812 13.667969 16.253906 L 13.667969 16.382812 C 13.660156 16.386719 13.648438 16.390625 13.636719 16.394531 C 13.621094 16.398438 13.609375 16.402344 13.59375 16.402344 C 13.582031 16.40625 13.566406 16.410156 13.550781 16.410156 C 13.535156 16.410156 13.519531 16.410156 13.503906 16.410156 C 13.464844 16.410156 13.429688 16.40625 13.398438 16.398438 C 13.363281 16.386719 13.339844 16.371094 13.316406 16.347656 C 13.292969 16.324219 13.273438 16.292969 13.257812 16.25 C 13.246094 16.210938 13.238281 16.160156 13.238281 16.097656 L 13.238281 15.511719 L 13.097656 15.511719 L 13.097656 15.441406 L 13.238281 15.367188 L 13.308594 15.15625 L 13.40625 15.15625 L 13.40625 15.386719 L 13.660156 15.386719 L 13.660156 15.511719 L 13.40625 15.511719 L 13.40625 16.097656 C 13.40625 16.15625 13.417969 16.199219 13.433594 16.230469 C 13.453125 16.261719 13.488281 16.277344 13.527344 16.277344 Z M 13.527344 16.277344 "/>
<path style=" stroke:none;fill-rule:nonzero;fill:rgb(90.196079%,90.196079%,90.196079%);fill-opacity:1;" d="M 14.027344 16.394531 L 13.863281 16.394531 L 13.863281 15.386719 L 14.027344 15.386719 Z M 13.847656 15.117188 C 13.847656 15.082031 13.855469 15.054688 13.875 15.035156 C 13.894531 15.019531 13.917969 15.011719 13.945312 15.011719 C 13.957031 15.011719 13.972656 15.011719 13.984375 15.019531 C 13.996094 15.019531 14.003906 15.027344 14.015625 15.035156 C 14.023438 15.046875 14.03125 15.058594 14.035156 15.070312 C 14.042969 15.082031 14.042969 15.097656 14.042969 15.117188 C 14.042969 15.152344 14.035156 15.179688 14.015625 15.195312 C 13.996094 15.214844 13.972656 15.222656 13.945312 15.222656 C 13.917969 15.222656 13.894531 15.214844 13.875 15.195312 C 13.855469 15.179688 13.847656 15.152344 13.847656 15.117188 Z M 13.847656 15.117188 "/>
<path style=" stroke:none;fill-rule:nonzero;fill:rgb(90.196079%,90.196079%,90.196079%);fill-opacity:1;" d="M 14.730469 16.410156 C 14.667969 16.410156 14.613281 16.402344 14.558594 16.382812 C 14.503906 16.363281 14.457031 16.332031 14.417969 16.292969 C 14.378906 16.25 14.347656 16.195312 14.324219 16.132812 C 14.300781 16.066406 14.292969 15.988281 14.292969 15.894531 C 14.292969 15.800781 14.300781 15.71875 14.324219 15.652344 C 14.347656 15.585938 14.378906 15.53125 14.421875 15.488281 C 14.460938 15.449219 14.511719 15.417969 14.5625 15.398438 C 14.617188 15.378906 14.675781 15.371094 14.738281 15.371094 C 14.785156 15.371094 14.832031 15.375 14.878906 15.386719 C 14.925781 15.394531 14.960938 15.410156 14.992188 15.425781 L 14.941406 15.566406 C 14.929688 15.558594 14.914062 15.550781 14.894531 15.546875 C 14.878906 15.542969 14.863281 15.535156 14.84375 15.53125 C 14.824219 15.527344 14.808594 15.523438 14.789062 15.519531 C 14.769531 15.519531 14.753906 15.515625 14.738281 15.515625 C 14.644531 15.515625 14.574219 15.546875 14.527344 15.609375 C 14.484375 15.667969 14.464844 15.765625 14.464844 15.894531 C 14.464844 16.023438 14.484375 16.117188 14.527344 16.175781 C 14.574219 16.238281 14.640625 16.265625 14.730469 16.265625 C 14.78125 16.265625 14.824219 16.261719 14.863281 16.25 C 14.90625 16.238281 14.941406 16.226562 14.972656 16.210938 L 14.972656 16.355469 C 14.941406 16.375 14.90625 16.390625 14.871094 16.398438 C 14.832031 16.410156 14.785156 16.410156 14.730469 16.410156 Z M 14.730469 16.410156 "/>
<path style=" stroke:none;fill-rule:nonzero;fill:rgb(90.196079%,90.196079%,90.196079%);fill-opacity:1;" d="M 16.035156 15.886719 C 16.035156 15.972656 16.023438 16.046875 16.003906 16.113281 C 15.980469 16.175781 15.953125 16.230469 15.914062 16.277344 C 15.878906 16.320312 15.832031 16.355469 15.777344 16.378906 C 15.722656 16.402344 15.660156 16.410156 15.59375 16.410156 C 15.53125 16.410156 15.472656 16.402344 15.417969 16.378906 C 15.367188 16.355469 15.320312 16.320312 15.28125 16.277344 C 15.242188 16.230469 15.214844 16.175781 15.191406 16.113281 C 15.167969 16.046875 15.160156 15.972656 15.160156 15.886719 C 15.160156 15.808594 15.167969 15.730469 15.191406 15.667969 C 15.210938 15.605469 15.238281 15.550781 15.277344 15.503906 C 15.316406 15.460938 15.363281 15.425781 15.417969 15.402344 C 15.472656 15.382812 15.53125 15.371094 15.597656 15.371094 C 15.660156 15.371094 15.71875 15.382812 15.773438 15.402344 C 15.824219 15.425781 15.871094 15.460938 15.910156 15.503906 C 15.949219 15.550781 15.980469 15.605469 16.003906 15.667969 C 16.023438 15.730469 16.035156 15.808594 16.035156 15.886719 Z M 15.332031 15.886719 C 15.332031 16.015625 15.351562 16.113281 15.394531 16.175781 C 15.433594 16.242188 15.503906 16.273438 15.597656 16.273438 C 15.691406 16.273438 15.757812 16.242188 15.800781 16.175781 C 15.839844 16.113281 15.863281 16.015625 15.863281 15.886719 C 15.863281 15.761719 15.839844 15.667969 15.800781 15.601562 C 15.757812 15.539062 15.691406 15.507812 15.597656 15.507812 C 15.503906 15.507812 15.433594 15.539062 15.394531 15.601562 C 15.351562 15.667969 15.332031 15.761719 15.332031 15.886719 Z M 15.332031 15.886719 "/>
<path style=" stroke:none;fill-rule:nonzero;fill:rgb(90.196079%,90.196079%,90.196079%);fill-opacity:1;" d="M 16.925781 16.394531 L 16.925781 15.746094 C 16.925781 15.667969 16.910156 15.605469 16.878906 15.566406 C 16.84375 15.527344 16.792969 15.507812 16.726562 15.507812 C 16.675781 15.507812 16.636719 15.515625 16.601562 15.53125 C 16.566406 15.546875 16.542969 15.570312 16.519531 15.601562 C 16.5 15.632812 16.484375 15.671875 16.476562 15.71875 C 16.46875 15.761719 16.464844 15.816406 16.464844 15.871094 L 16.464844 16.394531 L 16.296875 16.394531 L 16.296875 15.386719 L 16.433594 15.386719 L 16.457031 15.523438 L 16.464844 15.523438 C 16.480469 15.496094 16.496094 15.476562 16.519531 15.457031 C 16.542969 15.4375 16.566406 15.421875 16.589844 15.410156 C 16.613281 15.394531 16.640625 15.386719 16.667969 15.378906 C 16.699219 15.375 16.726562 15.371094 16.753906 15.371094 C 16.867188 15.371094 16.949219 15.398438 17.007812 15.457031 C 17.0625 15.515625 17.089844 15.609375 17.089844 15.738281 L 17.089844 16.394531 Z M 16.925781 16.394531 "/>
<path style=" stroke:none;fill-rule:nonzero;fill:rgb(90.196079%,90.196079%,90.196079%);fill-opacity:1;" d="M 17.585938 16.394531 L 17.242188 15.386719 L 17.414062 15.386719 L 17.597656 15.949219 C 17.601562 15.96875 17.609375 15.996094 17.621094 16.027344 C 17.628906 16.058594 17.636719 16.089844 17.648438 16.121094 C 17.65625 16.15625 17.664062 16.1875 17.671875 16.214844 C 17.679688 16.246094 17.683594 16.269531 17.6875 16.285156 L 17.695312 16.285156 C 17.699219 16.269531 17.703125 16.246094 17.710938 16.214844 C 17.714844 16.1875 17.722656 16.15625 17.734375 16.121094 C 17.742188 16.089844 17.753906 16.058594 17.761719 16.027344 C 17.769531 15.996094 17.777344 15.96875 17.785156 15.949219 L 17.96875 15.386719 L 18.140625 15.386719 L 17.796875 16.394531 Z M 17.585938 16.394531 "/>
<path style=" stroke:none;fill-rule:nonzero;fill:rgb(90.196079%,90.196079%,90.196079%);fill-opacity:1;" d="M 18.699219 16.410156 C 18.628906 16.410156 18.566406 16.402344 18.511719 16.378906 C 18.457031 16.355469 18.410156 16.324219 18.371094 16.277344 C 18.328125 16.238281 18.296875 16.183594 18.277344 16.117188 C 18.253906 16.054688 18.246094 15.980469 18.246094 15.898438 C 18.246094 15.816406 18.253906 15.742188 18.273438 15.675781 C 18.292969 15.613281 18.324219 15.554688 18.359375 15.511719 C 18.394531 15.464844 18.441406 15.429688 18.488281 15.40625 C 18.542969 15.382812 18.597656 15.371094 18.660156 15.371094 C 18.71875 15.371094 18.773438 15.378906 18.824219 15.402344 C 18.871094 15.425781 18.910156 15.457031 18.945312 15.496094 C 18.980469 15.535156 19.003906 15.582031 19.019531 15.636719 C 19.039062 15.691406 19.050781 15.753906 19.050781 15.820312 L 19.050781 15.921875 L 18.417969 15.921875 C 18.417969 16.042969 18.441406 16.128906 18.488281 16.183594 C 18.535156 16.238281 18.605469 16.265625 18.699219 16.265625 C 18.730469 16.265625 18.757812 16.265625 18.785156 16.261719 C 18.8125 16.257812 18.835938 16.253906 18.863281 16.246094 C 18.886719 16.242188 18.910156 16.234375 18.933594 16.226562 C 18.957031 16.21875 18.980469 16.207031 19.003906 16.195312 L 19.003906 16.34375 C 18.980469 16.355469 18.957031 16.367188 18.933594 16.375 C 18.910156 16.382812 18.886719 16.390625 18.859375 16.394531 C 18.835938 16.402344 18.808594 16.40625 18.785156 16.410156 C 18.757812 16.410156 18.730469 16.410156 18.699219 16.410156 Z M 18.65625 15.507812 C 18.585938 15.507812 18.53125 15.53125 18.488281 15.582031 C 18.449219 15.628906 18.425781 15.699219 18.417969 15.785156 L 18.871094 15.785156 C 18.871094 15.746094 18.863281 15.707031 18.855469 15.675781 C 18.847656 15.640625 18.835938 15.609375 18.816406 15.585938 C 18.800781 15.5625 18.777344 15.542969 18.753906 15.527344 C 18.726562 15.515625 18.691406 15.507812 18.65625 15.507812 Z M 18.65625 15.507812 "/>
<path style=" stroke:none;fill-rule:nonzero;fill:rgb(90.196079%,90.196079%,90.196079%);fill-opacity:1;" d="M 19.738281 15.371094 C 19.753906 15.371094 19.777344 15.371094 19.796875 15.371094 C 19.816406 15.375 19.839844 15.378906 19.855469 15.378906 L 19.832031 15.535156 C 19.816406 15.53125 19.796875 15.527344 19.777344 15.527344 C 19.761719 15.523438 19.746094 15.519531 19.730469 15.519531 C 19.691406 15.519531 19.652344 15.527344 19.621094 15.542969 C 19.589844 15.558594 19.566406 15.582031 19.542969 15.613281 C 19.519531 15.640625 19.5 15.675781 19.488281 15.714844 C 19.476562 15.757812 19.46875 15.800781 19.46875 15.851562 L 19.46875 16.394531 L 19.300781 16.394531 L 19.300781 15.386719 L 19.4375 15.386719 L 19.457031 15.574219 L 19.464844 15.574219 C 19.480469 15.546875 19.496094 15.519531 19.515625 15.496094 C 19.53125 15.472656 19.550781 15.449219 19.574219 15.433594 C 19.59375 15.414062 19.621094 15.398438 19.644531 15.386719 C 19.671875 15.375 19.703125 15.371094 19.738281 15.371094 Z M 19.738281 15.371094 "/>
<path style=" stroke:none;fill-rule:nonzero;fill:rgb(90.196079%,90.196079%,90.196079%);fill-opacity:1;" d="M 20.355469 16.277344 C 20.363281 16.277344 20.378906 16.277344 20.390625 16.273438 C 20.40625 16.273438 20.417969 16.269531 20.433594 16.269531 C 20.445312 16.269531 20.457031 16.265625 20.464844 16.261719 C 20.476562 16.261719 20.488281 16.257812 20.492188 16.253906 L 20.492188 16.382812 C 20.484375 16.386719 20.472656 16.390625 20.460938 16.394531 C 20.449219 16.398438 20.433594 16.402344 20.417969 16.402344 C 20.40625 16.40625 20.390625 16.410156 20.375 16.410156 C 20.359375 16.410156 20.34375 16.410156 20.328125 16.410156 C 20.289062 16.410156 20.253906 16.40625 20.222656 16.398438 C 20.191406 16.386719 20.164062 16.371094 20.140625 16.347656 C 20.117188 16.324219 20.097656 16.292969 20.082031 16.25 C 20.070312 16.210938 20.0625 16.160156 20.0625 16.097656 L 20.0625 15.511719 L 19.921875 15.511719 L 19.921875 15.441406 L 20.0625 15.367188 L 20.136719 15.15625 L 20.230469 15.15625 L 20.230469 15.386719 L 20.484375 15.386719 L 20.484375 15.511719 L 20.230469 15.511719 L 20.230469 16.097656 C 20.230469 16.15625 20.238281 16.199219 20.261719 16.230469 C 20.277344 16.261719 20.308594 16.277344 20.355469 16.277344 Z M 20.355469 16.277344 "/>
<path style=" stroke:none;fill-rule:nonzero;fill:rgb(90.196079%,90.196079%,90.196079%);fill-opacity:1;" d="M 21.082031 16.410156 C 21.015625 16.410156 20.957031 16.402344 20.898438 16.378906 C 20.84375 16.355469 20.796875 16.324219 20.753906 16.277344 C 20.714844 16.238281 20.683594 16.183594 20.664062 16.117188 C 20.640625 16.054688 20.628906 15.980469 20.628906 15.898438 C 20.628906 15.816406 20.640625 15.742188 20.660156 15.675781 C 20.679688 15.613281 20.707031 15.554688 20.746094 15.511719 C 20.78125 15.464844 20.824219 15.429688 20.878906 15.40625 C 20.925781 15.382812 20.984375 15.371094 21.046875 15.371094 C 21.105469 15.371094 21.160156 15.378906 21.207031 15.402344 C 21.257812 15.425781 21.300781 15.457031 21.332031 15.496094 C 21.363281 15.535156 21.390625 15.582031 21.410156 15.636719 C 21.425781 15.691406 21.4375 15.753906 21.4375 15.820312 L 21.4375 15.921875 L 20.800781 15.921875 C 20.804688 16.042969 20.832031 16.128906 20.878906 16.183594 C 20.925781 16.238281 20.992188 16.265625 21.085938 16.265625 C 21.117188 16.265625 21.144531 16.265625 21.171875 16.261719 C 21.199219 16.257812 21.222656 16.253906 21.25 16.246094 C 21.273438 16.242188 21.296875 16.234375 21.320312 16.226562 C 21.34375 16.21875 21.367188 16.207031 21.390625 16.195312 L 21.390625 16.34375 C 21.367188 16.355469 21.34375 16.367188 21.320312 16.375 C 21.296875 16.382812 21.269531 16.390625 21.246094 16.394531 C 21.222656 16.402344 21.195312 16.40625 21.167969 16.410156 C 21.144531 16.410156 21.113281 16.410156 21.082031 16.410156 Z M 21.042969 15.507812 C 20.972656 15.507812 20.917969 15.53125 20.878906 15.582031 C 20.835938 15.628906 20.8125 15.699219 20.808594 15.785156 L 21.257812 15.785156 C 21.257812 15.746094 21.253906 15.707031 21.246094 15.675781 C 21.238281 15.640625 21.222656 15.609375 21.207031 15.585938 C 21.1875 15.5625 21.167969 15.542969 21.140625 15.527344 C 21.113281 15.515625 21.082031 15.507812 21.042969 15.507812 Z M 21.042969 15.507812 "/>
<path style=" stroke:none;fill-rule:nonzero;fill:rgb(90.196079%,90.196079%,90.196079%);fill-opacity:1;" d="M 22.125 15.371094 C 22.144531 15.371094 22.160156 15.371094 22.183594 15.371094 C 22.207031 15.375 22.222656 15.378906 22.242188 15.378906 L 22.21875 15.535156 C 22.203125 15.53125 22.183594 15.527344 22.167969 15.527344 C 22.148438 15.523438 22.128906 15.519531 22.113281 15.519531 C 22.078125 15.519531 22.042969 15.527344 22.011719 15.542969 C 21.980469 15.558594 21.949219 15.582031 21.925781 15.613281 C 21.90625 15.640625 21.886719 15.675781 21.875 15.714844 C 21.863281 15.757812 21.855469 15.800781 21.855469 15.851562 L 21.855469 16.394531 L 21.691406 16.394531 L 21.691406 15.386719 L 21.824219 15.386719 L 21.847656 15.574219 L 21.851562 15.574219 C 21.867188 15.546875 21.882812 15.519531 21.902344 15.496094 C 21.917969 15.472656 21.9375 15.449219 21.960938 15.433594 C 21.980469 15.414062 22.003906 15.398438 22.03125 15.386719 C 22.058594 15.375 22.089844 15.371094 22.125 15.371094 Z M 22.125 15.371094 "/>
</g>
</svg>
