<!-- color: #bb0000 -->
<svg xmlns="http://www.w3.org/2000/svg" xmlns:xlink="http://www.w3.org/1999/xlink" width="32px" height="32px" viewBox="0 0 32 32" version="1.1">
<defs>
<clipPath id="clip1">
  <path d="M 7.4375 7.4375 L 24.5625 7.4375 L 24.5625 24.5625 L 7.4375 24.5625 Z M 7.4375 7.4375 "/>
</clipPath>
<clipPath id="clip2">
  <path d="M 32.3125 16.003906 C 32.3125 25.015625 25.003906 32.316406 16.003906 32.316406 C 7 32.316406 -0.308594 25.015625 -0.308594 16.003906 C -0.308594 6.996094 7 -0.304688 16.003906 -0.304688 C 25.003906 -0.304688 32.3125 6.996094 32.3125 16.003906 Z M 32.3125 16.003906 "/>
</clipPath>
</defs>
<g id="surface1">
<path style="fill-rule:evenodd;fill:rgb(96.470588%,27.843139%,27.843139%);fill-opacity:0.996078;stroke-width:16;stroke-linecap:butt;stroke-linejoin:miter;stroke:rgb(62.352943%,2.745098%,2.745098%);stroke-opacity:0.996078;stroke-miterlimit:4;" d="M 87.75 31 L 424.25 31 C 455.5625 31 481 56.4375 481 87.75 L 481 424.25 C 481 455.5625 455.5625 481 424.25 481 L 87.75 481 C 56.4375 481 31 455.5625 31 424.25 L 31 87.75 C 31 56.4375 56.4375 31 87.75 31 Z M 87.75 31 " transform="matrix(0.0625,0,0,0.0625,0,0)"/>
<g clip-path="url(#clip1)" clip-rule="nonzero">
<g clip-path="url(#clip2)" clip-rule="nonzero">
<path style=" stroke:none;fill-rule:nonzero;fill:rgb(100%,100%,100%);fill-opacity:1;" d="M 10.945312 7.496094 L 7.492188 22.796875 L 10.296875 22.796875 L 11.921875 15.949219 L 19.574219 15.949219 L 12.40625 22.359375 L 14.273438 24.511719 L 15.230469 24.015625 C 17.039062 23.089844 17.796875 23.628906 19.167969 24.011719 C 20.503906 24.378906 21.761719 24.777344 24.363281 23.277344 L 23.847656 20.628906 C 21.011719 22.648438 20.109375 20.847656 18.082031 20.773438 L 23.878906 15.871094 L 24.507812 13.25 L 12.367188 13.25 L 13.152344 10.113281 L 21.109375 10.113281 L 21.65625 7.488281 L 10.941406 7.488281 M 10.949219 7.496094 "/>
</g>
</g>
</g>
</svg>
