
<svg xmlns="http://www.w3.org/2000/svg" xmlns:xlink="http://www.w3.org/1999/xlink" width="32px" height="32px" viewBox="0 0 32 32" version="1.1">
<defs>
<linearGradient id="linear0" gradientUnits="userSpaceOnUse" x1="1" y1="0" x2="47" y2="0" gradientTransform="matrix(1,0,0,1,-48,0.00221467)">
<stop offset="0" style="stop-color:rgb(31.764707%,72.156864%,87.450981%);stop-opacity:1;"/>
<stop offset="1" style="stop-color:rgb(38.431373%,74.509805%,88.627452%);stop-opacity:1;"/>
</linearGradient>
</defs>
<g id="surface1">
<path style="fill-rule:nonzero;fill:url(#linear0);stroke-width:1.4;stroke-linecap:butt;stroke-linejoin:miter;stroke:rgb(10.980392%,45.490196%,58.823532%);stroke-opacity:1;stroke-miterlimit:4;" d="M -43.001953 1.001953 L -4.998047 1.001953 C -2.789062 1.001953 -1.001953 2.789062 -1.001953 4.998047 L -1.001953 43.001953 C -1.001953 45.210938 -2.789062 46.998047 -4.998047 46.998047 L -43.001953 46.998047 C -45.210938 46.998047 -46.998047 45.210938 -46.998047 43.001953 L -46.998047 4.998047 C -46.998047 2.789062 -45.210938 1.001953 -43.001953 1.001953 Z M -43.001953 1.001953 " transform="matrix(0,-0.666667,0.666667,0,0,0)"/>
<path style=" stroke:none;fill-rule:nonzero;fill:rgb(0%,0%,0%);fill-opacity:0.0196078;" d="M 9.90625 30.28125 L 9.90625 30.449219 C 9.90625 31.925781 11.09375 33.113281 12.574219 33.113281 L 37.90625 33.113281 C 39.382812 33.113281 40.574219 31.925781 40.574219 30.449219 L 40.574219 30.28125 C 40.574219 31.757812 39.382812 32.949219 37.90625 32.949219 L 12.574219 32.949219 C 11.09375 32.949219 9.90625 31.757812 9.90625 30.28125 Z M 9.90625 30.613281 L 9.90625 30.949219 C 9.90625 32.425781 11.09375 33.613281 12.574219 33.613281 L 37.90625 33.613281 C 39.382812 33.613281 40.574219 32.425781 40.574219 30.949219 L 40.574219 30.613281 C 40.574219 32.089844 39.382812 33.28125 37.90625 33.28125 L 12.574219 33.28125 C 11.09375 33.28125 9.90625 32.089844 9.90625 30.613281 Z M 9.90625 30.613281 "/>
<path style=" stroke:none;fill-rule:nonzero;fill:rgb(0%,0%,0%);fill-opacity:0.0509804;" d="M 9.90625 30.449219 L 9.90625 30.613281 C 9.90625 32.089844 11.09375 33.28125 12.574219 33.28125 L 37.90625 33.28125 C 39.382812 33.28125 40.574219 32.089844 40.574219 30.613281 L 40.574219 30.449219 C 40.574219 31.925781 39.382812 33.113281 37.90625 33.113281 L 12.574219 33.113281 C 11.09375 33.113281 9.90625 31.925781 9.90625 30.449219 Z M 9.90625 30.449219 "/>
<path style=" stroke:none;fill-rule:nonzero;fill:rgb(0%,0%,0%);fill-opacity:0.101961;" d="M 9.90625 30.28125 L 9.90625 30.449219 C 9.90625 31.925781 11.09375 33.113281 12.574219 33.113281 L 37.90625 33.113281 C 39.382812 33.113281 40.574219 31.925781 40.574219 30.449219 L 40.574219 30.28125 C 40.574219 31.757812 39.382812 32.949219 37.90625 32.949219 L 12.574219 32.949219 C 11.09375 32.949219 9.90625 31.757812 9.90625 30.28125 Z M 9.90625 30.28125 "/>
<path style=" stroke:none;fill-rule:nonzero;fill:rgb(100%,100%,100%);fill-opacity:1;" d="M 18.300781 6.894531 C 17.332031 6.894531 16.53125 7.785156 16.371094 8.964844 L 24.058594 8.964844 C 23.902344 7.785156 23.101562 6.894531 22.128906 6.894531 Z M 18.300781 6.894531 "/>
<path style=" stroke:none;fill-rule:nonzero;fill:rgb(90.196079%,90.196079%,90.196079%);fill-opacity:1;" d="M 7.878906 9.296875 C 6.589844 9.296875 5.550781 10.335938 5.550781 11.625 L 5.550781 22.777344 C 5.550781 24.066406 6.589844 25.105469 7.878906 25.105469 L 24.121094 25.105469 C 25.410156 25.105469 26.449219 24.066406 26.449219 22.777344 L 26.449219 11.625 C 26.449219 10.335938 25.410156 9.296875 24.121094 9.296875 Z M 7.878906 9.296875 "/>
</g>
</svg>
