
<svg xmlns="http://www.w3.org/2000/svg" xmlns:xlink="http://www.w3.org/1999/xlink" width="32px" height="32px" viewBox="0 0 32 32" version="1.1">
<defs>
<linearGradient id="linear0" gradientUnits="userSpaceOnUse" x1="1" y1="0" x2="47" y2="0" gradientTransform="matrix(1,0,0,1,-48,0.00221467)">
<stop offset="0" style="stop-color:rgb(40.392157%,40.392157%,60.000002%);stop-opacity:1;"/>
<stop offset="1" style="stop-color:rgb(45.09804%,45.09804%,63.137257%);stop-opacity:1;"/>
</linearGradient>
</defs>
<g id="surface1">
<path style="fill-rule:nonzero;fill:url(#linear0);stroke-width:1.4;stroke-linecap:butt;stroke-linejoin:miter;stroke:rgb(23.921569%,23.921569%,35.294119%);stroke-opacity:1;stroke-miterlimit:4;" d="M -43.001953 1.001953 L -4.998047 1.001953 C -2.789062 1.001953 -1.001953 2.789062 -1.001953 4.998047 L -1.001953 43.001953 C -1.001953 45.210938 -2.789062 46.998047 -4.998047 46.998047 L -43.001953 46.998047 C -45.210938 46.998047 -46.998047 45.210938 -46.998047 43.001953 L -46.998047 4.998047 C -46.998047 2.789062 -45.210938 1.001953 -43.001953 1.001953 Z M -43.001953 1.001953 " transform="matrix(0,-0.666667,0.666667,0,0,0)"/>
<path style=" stroke:none;fill-rule:nonzero;fill:rgb(80.000001%,80.000001%,80.000001%);fill-opacity:1;" d="M 18.300781 6.894531 C 17.332031 6.894531 16.53125 7.785156 16.371094 8.964844 L 24.058594 8.964844 C 23.902344 7.785156 23.101562 6.894531 22.128906 6.894531 Z M 18.300781 6.894531 "/>
<path style=" stroke:none;fill-rule:nonzero;fill:rgb(14.509805%,68.235296%,87.450981%);fill-opacity:1;" d="M 7.878906 9.296875 L 24.121094 9.296875 C 25.40625 9.296875 26.449219 10.339844 26.449219 11.621094 L 26.449219 19.785156 C 26.449219 21.070312 25.40625 22.113281 24.121094 22.113281 L 7.878906 22.113281 C 6.59375 22.113281 5.550781 21.070312 5.550781 19.785156 L 5.550781 11.621094 C 5.550781 10.339844 6.59375 9.296875 7.878906 9.296875 Z M 7.878906 9.296875 "/>
<path style=" stroke:none;fill-rule:nonzero;fill:rgb(14.509805%,68.235296%,87.450981%);fill-opacity:1;" d="M 7.878906 12.285156 L 24.121094 12.285156 C 25.40625 12.285156 26.449219 13.328125 26.449219 14.613281 L 26.449219 22.777344 C 26.449219 24.0625 25.40625 25.105469 24.121094 25.105469 L 7.878906 25.105469 C 6.59375 25.105469 5.550781 24.0625 5.550781 22.777344 L 5.550781 14.613281 C 5.550781 13.328125 6.59375 12.285156 7.878906 12.285156 Z M 7.878906 12.285156 "/>
</g>
</svg>
