
<svg xmlns="http://www.w3.org/2000/svg" xmlns:xlink="http://www.w3.org/1999/xlink" width="32px" height="32px" viewBox="0 0 32 32" version="1.1">
<g id="surface1">
<path style="fill-rule:nonzero;fill:rgb(96.470588%,76.078433%,61.960787%);fill-opacity:1;stroke-width:27.07575;stroke-linecap:butt;stroke-linejoin:miter;stroke:rgb(55.686277%,50.980395%,47.843137%);stroke-opacity:1;stroke-miterlimit:4;" d="M 88.375 34.25 L 423.625 34.25 C 453.5 34.25 477.75 58.5 477.75 88.375 L 477.75 423.625 C 477.75 453.5 453.5 477.75 423.625 477.75 L 88.375 477.75 C 58.5 477.75 34.25 453.5 34.25 423.625 L 34.25 88.375 C 34.25 58.5 58.5 34.25 88.375 34.25 Z M 88.375 34.25 " transform="matrix(0.0625,0,0,0.0625,0,0)"/>
<path style=" stroke:none;fill-rule:evenodd;fill:rgb(0%,0%,0%);fill-opacity:0.196078;" d="M 10.710938 3.058594 C 14.539062 8.632812 15.390625 13.714844 15.398438 18.496094 L 16.792969 18.457031 C 17.058594 10.066406 18.789062 6.910156 21.40625 2.894531 Z M 10.710938 3.058594 "/>
<path style=" stroke:none;fill-rule:nonzero;fill:rgb(100%,100%,100%);fill-opacity:1;" d="M 16.058594 17.980469 C 15.863281 17.980469 15.464844 17.980469 15.167969 17.988281 L 14.636719 17.992188 L 14.636719 18.574219 C 14.636719 18.574219 14.464844 18.769531 14.425781 18.886719 C 14.082031 19.910156 14.035156 21.070312 14.269531 22.121094 C 14.308594 22.285156 14.503906 22.5625 14.503906 22.5625 L 14.546875 21.800781 C 14.640625 21.253906 14.589844 20.660156 15.082031 20.660156 L 15.210938 20.660156 L 15.210938 20.128906 C 15.210938 19.691406 15.550781 19.339844 15.96875 19.339844 L 16.054688 19.339844 C 16.472656 19.339844 16.8125 19.691406 16.8125 20.128906 L 16.8125 20.660156 L 16.949219 20.660156 C 17.476562 20.671875 17.472656 21.566406 17.484375 21.800781 L 17.527344 22.5625 C 17.527344 22.5625 17.746094 22.257812 17.789062 22.082031 C 18.023438 21.066406 17.992188 19.945312 17.652344 18.960938 C 17.621094 18.867188 17.484375 18.722656 17.484375 18.722656 L 17.484375 17.992188 L 16.949219 17.988281 C 16.65625 17.980469 16.253906 17.980469 16.058594 17.980469 Z M 15.972656 19.535156 C 15.609375 19.535156 15.3125 19.839844 15.3125 20.222656 L 15.3125 21.816406 C 15.3125 22.199219 15.609375 22.507812 15.972656 22.507812 L 16.046875 22.507812 C 16.414062 22.507812 16.707031 22.199219 16.707031 21.816406 L 16.707031 20.222656 C 16.707031 19.839844 16.414062 19.535156 16.046875 19.535156 Z M 15.207031 20.839844 C 15.183594 20.839844 15.082031 20.878906 14.988281 20.933594 L 14.816406 21.023438 L 14.816406 26.058594 L 14.867188 26.140625 L 14.9375 26.183594 L 17.09375 26.140625 L 17.175781 26.074219 L 17.195312 23.597656 L 17.21875 21.0625 L 17.066406 20.949219 C 16.984375 20.890625 16.882812 20.839844 16.84375 20.839844 L 16.8125 20.839844 L 16.8125 21.957031 C 16.8125 22.394531 16.472656 22.746094 16.054688 22.746094 L 15.96875 22.746094 C 15.550781 22.746094 15.210938 22.394531 15.210938 21.957031 L 15.210938 20.839844 Z M 15.972656 24.222656 C 16.386719 24.222656 16.71875 24.554688 16.71875 24.964844 C 16.71875 25.375 16.386719 25.707031 15.972656 25.707031 C 15.566406 25.707031 15.230469 25.375 15.230469 24.964844 C 15.230469 24.554688 15.566406 24.222656 15.972656 24.222656 Z M 15.972656 24.222656 "/>
<path style="fill:none;stroke-width:10.673623;stroke-linecap:butt;stroke-linejoin:miter;stroke:rgb(100%,100%,100%);stroke-opacity:1;stroke-dasharray:10.673624,10.673624;stroke-miterlimit:0;" d="M 189.012081 49.998953 C 269.887081 177.373953 255.387081 222.498953 262.762081 286.436453 " transform="matrix(0.0625,0,0,0.0625,-0.942161,-0.136653)"/>
<path style="fill:none;stroke-width:10.673623;stroke-linecap:butt;stroke-linejoin:miter;stroke:rgb(100%,100%,100%);stroke-opacity:1;stroke-dasharray:10.673624,10.673624;stroke-dashoffset:11;stroke-miterlimit:4;" d="M 283.262081 290.498953 C 289.887081 130.811453 324.324581 103.623953 352.949581 48.873953 " transform="matrix(0.0625,0,0,0.0625,-0.942161,-0.136653)"/>
</g>
</svg>
