
<svg xmlns="http://www.w3.org/2000/svg" xmlns:xlink="http://www.w3.org/1999/xlink" width="32px" height="32px" viewBox="0 0 32 32" version="1.1">
<g id="surface1">
<path style="fill-rule:nonzero;fill:rgb(21.568628%,67.058825%,78.431374%);fill-opacity:1;stroke-width:2.623514;stroke-linecap:butt;stroke-linejoin:miter;stroke:rgb(21.568628%,67.058825%,78.431374%);stroke-opacity:1;stroke-miterlimit:4;" d="M 7.757812 2.513672 L 40.242188 2.513672 C 43.136719 2.513672 45.486328 4.863281 45.486328 7.757812 L 45.486328 40.242188 C 45.486328 43.136719 43.136719 45.486328 40.242188 45.486328 L 7.757812 45.486328 C 4.863281 45.486328 2.513672 43.136719 2.513672 40.242188 L 2.513672 7.757812 C 2.513672 4.863281 4.863281 2.513672 7.757812 2.513672 Z M 7.757812 2.513672 " transform="matrix(0.666667,0,0,0.666667,0,0)"/>
<path style=" stroke:none;fill-rule:nonzero;fill:rgb(0%,33.333334%,83.137256%);fill-opacity:1;" d="M 2.46875 27.480469 L 2.46875 4.566406 C 2.46875 3.230469 3.523438 2.152344 4.824219 2.152344 L 27.175781 2.152344 C 28.476562 2.152344 29.53125 3.230469 29.53125 4.566406 L 29.53125 27.480469 C 29.53125 28.808594 28.476562 29.890625 27.175781 29.890625 L 4.824219 29.890625 C 3.523438 29.890625 2.46875 28.808594 2.46875 27.480469 Z M 2.46875 27.480469 "/>
<path style=" stroke:none;fill-rule:nonzero;fill:rgb(92.54902%,49.803922%,26.274511%);fill-opacity:1;" d="M 26.828125 9.59375 C 26.863281 9.65625 26.890625 9.71875 26.921875 9.777344 C 26.917969 9.789062 26.925781 9.804688 26.921875 9.8125 C 26.914062 9.800781 26.902344 9.785156 26.902344 9.777344 C 26.875 9.714844 26.855469 9.65625 26.828125 9.59375 M 26.828125 9.59375 "/>
<path style=" stroke:none;fill-rule:nonzero;fill:rgb(21.568628%,67.058825%,78.431374%);fill-opacity:1;" d="M 20.007812 5.042969 C 20.882812 5.214844 21.628906 5.414062 22.230469 5.683594 C 23.15625 6.089844 23.753906 6.625 24.035156 7.242188 C 23.175781 7.085938 22.421875 7.136719 21.738281 7.398438 C 26.644531 9.316406 28.957031 11.597656 28.691406 14.234375 C 28.332031 13.683594 27.851562 13.324219 27.246094 13.144531 C 27.996094 16.035156 28.082031 18.40625 27.472656 20.289062 C 27.054688 19.035156 26.65625 18.292969 26.316406 18.03125 C 26.792969 21.90625 26.136719 24.769531 24.378906 26.636719 C 24.710938 25.496094 24.855469 24.566406 24.777344 23.832031 C 22.710938 26.898438 20.363281 28.464844 17.730469 28.566406 C 16.6875 28.550781 15.691406 28.414062 14.765625 28.117188 C 13.40625 27.667969 12.175781 26.894531 11.082031 25.800781 C 12.785156 25.9375 14.34375 25.628906 15.714844 24.941406 L 17.976562 23.519531 C 18.261719 23.3125 18.527344 23.332031 18.792969 23.464844 C 19.34375 23.386719 19.5 23.214844 19.34375 22.703125 C 18.992188 22.402344 18.683594 22 18.167969 21.710938 C 17.039062 21.132812 15.871094 21.097656 14.652344 21.980469 C 13.484375 22.636719 12.363281 22.597656 11.269531 21.90625 C 10.550781 21.417969 9.847656 20.757812 9.179688 19.9375 L 8.933594 19.566406 L 8.933594 19.550781 C 8.964844 18.738281 9.292969 18.304688 9.941406 18.207031 C 10.675781 18.269531 11.519531 18.441406 12.464844 18.710938 C 12.625 17.8125 12.417969 16.875 11.839844 15.910156 L 11.859375 15.792969 C 12.75 14.976562 13.480469 14.480469 14.15625 14.097656 C 14.402344 13.769531 14.511719 13.667969 14.691406 13.378906 C 14.652344 13.292969 14.734375 13.238281 14.785156 13.277344 C 14.839844 13.035156 14.835938 13.070312 14.613281 12.753906 C 13.957031 12.914062 13.214844 12.707031 12.714844 12.578125 C 12.457031 12.503906 12.105469 12.355469 11.707031 11.972656 L 10.683594 10.980469 L 10.414062 10.628906 L 10.433594 10.515625 C 10.550781 9.734375 10.925781 9.105469 11.230469 8.507812 C 11.566406 7.964844 12.207031 7.363281 13.152344 6.738281 C 11.394531 6.953125 9.8125 7.734375 8.402344 9.074219 C 7.234375 8.652344 5.835938 8.742188 4.242188 9.347656 C 3.25 8.886719 3.3125 8.265625 2.988281 6.152344 C 2.648438 6.523438 2.320312 6.890625 2.019531 7.28125 L 2.019531 27.804688 C 2.019531 29.183594 3.105469 30.296875 4.449219 30.296875 L 27.550781 30.296875 C 28.894531 30.296875 29.980469 29.183594 29.980469 27.804688 L 29.980469 9.289062 C 28.957031 7.675781 27.316406 6.402344 25.191406 5.761719 C 23.738281 5.332031 22.003906 5.101562 20.007812 5.042969 Z M 20.007812 5.042969 "/>
<path style=" stroke:none;fill-rule:nonzero;fill:rgb(0%,0%,0%);fill-opacity:0.101961;" d="M 29.816406 11.453125 C 29.863281 11.53125 29.894531 11.609375 29.9375 11.683594 C 29.933594 11.699219 29.941406 11.722656 29.9375 11.730469 C 29.925781 11.714844 29.910156 11.699219 29.910156 11.683594 C 29.878906 11.605469 29.855469 11.53125 29.816406 11.453125 Z M 29.816406 11.453125 "/>
<path style=" stroke:none;fill-rule:nonzero;fill:rgb(92.941177%,49.803922%,26.274511%);fill-opacity:1;" d="M 29.816406 10.816406 C 29.863281 10.894531 29.894531 10.976562 29.9375 11.050781 C 29.933594 11.066406 29.941406 11.085938 29.9375 11.09375 C 29.925781 11.082031 29.910156 11.0625 29.910156 11.050781 C 29.878906 10.972656 29.855469 10.894531 29.816406 10.816406 Z M 29.816406 10.816406 "/>
<path style=" stroke:none;fill-rule:nonzero;fill:rgb(0%,0%,0%);fill-opacity:0.0196078;" d="M 1.386719 27.753906 L 1.386719 27.914062 C 1.386719 29.324219 2.519531 30.457031 3.925781 30.457031 L 28.074219 30.457031 C 29.480469 30.457031 30.613281 29.324219 30.613281 27.914062 L 30.613281 27.753906 C 30.613281 29.164062 29.480469 30.296875 28.074219 30.296875 L 3.925781 30.296875 C 2.519531 30.296875 1.386719 29.164062 1.386719 27.753906 Z M 1.386719 28.074219 L 1.386719 28.390625 C 1.386719 29.800781 2.519531 30.933594 3.925781 30.933594 L 28.074219 30.933594 C 29.480469 30.933594 30.613281 29.800781 30.613281 28.390625 L 30.613281 28.074219 C 30.613281 29.480469 29.480469 30.613281 28.074219 30.613281 L 3.925781 30.613281 C 2.519531 30.613281 1.386719 29.480469 1.386719 28.074219 Z M 1.386719 28.074219 "/>
<path style=" stroke:none;fill-rule:nonzero;fill:rgb(0%,0%,0%);fill-opacity:0.0509804;" d="M 1.386719 27.914062 L 1.386719 28.074219 C 1.386719 29.480469 2.519531 30.613281 3.925781 30.613281 L 28.074219 30.613281 C 29.480469 30.613281 30.613281 29.480469 30.613281 28.074219 L 30.613281 27.914062 C 30.613281 29.324219 29.480469 30.457031 28.074219 30.457031 L 3.925781 30.457031 C 2.519531 30.457031 1.386719 29.324219 1.386719 27.914062 Z M 1.386719 27.914062 "/>
<path style=" stroke:none;fill-rule:nonzero;fill:rgb(0%,0%,0%);fill-opacity:0.101961;" d="M 1.386719 27.753906 L 1.386719 27.914062 C 1.386719 29.324219 2.519531 30.457031 3.925781 30.457031 L 28.074219 30.457031 C 29.480469 30.457031 30.613281 29.324219 30.613281 27.914062 L 30.613281 27.753906 C 30.613281 29.164062 29.480469 30.296875 28.074219 30.296875 L 3.925781 30.296875 C 2.519531 30.296875 1.386719 29.164062 1.386719 27.753906 Z M 1.386719 27.753906 "/>
</g>
</svg>
