
<svg xmlns="http://www.w3.org/2000/svg" xmlns:xlink="http://www.w3.org/1999/xlink" width="32px" height="32px" viewBox="0 0 32 32" version="1.1">
<g id="surface1">
<path style="fill-rule:nonzero;fill:rgb(100%,100%,100%);fill-opacity:1;stroke-width:26.214508;stroke-linecap:butt;stroke-linejoin:miter;stroke:rgb(0%,0%,80.392158%);stroke-opacity:1;stroke-miterlimit:4;" d="M 114.322257 13.095326 L 438.898744 13.095326 C 467.84187 13.095326 491.329446 36.537181 491.329446 65.538596 L 491.329446 390.056405 C 491.329446 419.05782 467.84187 442.499675 438.898744 442.499675 L 114.322257 442.499675 C 85.379131 442.499675 61.891555 419.05782 61.891555 390.056405 L 61.891555 65.538596 C 61.891555 36.537181 85.379131 13.095326 114.322257 13.095326 Z M 114.322257 13.095326 " transform="matrix(0.0680213,0,0,0.068154,-2.815415,0.474689)"/>
<path style=" stroke:none;fill-rule:nonzero;fill:rgb(0%,80.000001%,100%);fill-opacity:1;" d="M 2.207031 27.726562 L 2.207031 4.316406 C 2.207031 2.957031 3.277344 1.855469 4.605469 1.855469 L 27.394531 1.855469 C 28.722656 1.855469 29.792969 2.957031 29.792969 4.316406 L 29.792969 27.726562 C 29.792969 29.085938 28.722656 30.191406 27.394531 30.191406 L 4.605469 30.191406 C 3.277344 30.191406 2.207031 29.085938 2.207031 27.726562 Z M 2.207031 27.726562 "/>
<path style=" stroke:none;fill-rule:nonzero;fill:rgb(92.54902%,49.803922%,26.274511%);fill-opacity:1;" d="M 27.039062 9.457031 C 27.074219 9.519531 27.101562 9.582031 27.136719 9.644531 C 27.132812 9.65625 27.136719 9.671875 27.136719 9.679688 C 27.128906 9.667969 27.113281 9.652344 27.113281 9.644531 C 27.085938 9.582031 27.070312 9.519531 27.039062 9.457031 M 27.039062 9.457031 "/>
<path style=" stroke:none;fill-rule:nonzero;fill:rgb(0%,0%,80.392158%);fill-opacity:1;" d="M 20.085938 4.808594 C 20.976562 4.984375 21.738281 5.1875 22.351562 5.464844 C 23.292969 5.878906 23.902344 6.421875 24.191406 7.054688 C 23.316406 6.894531 22.546875 6.941406 21.847656 7.214844 C 26.851562 9.171875 29.207031 11.503906 28.9375 14.195312 C 28.574219 13.632812 28.082031 13.269531 27.464844 13.082031 C 28.230469 16.035156 28.316406 18.457031 27.699219 20.378906 C 27.269531 19.097656 26.863281 18.34375 26.515625 18.074219 C 27.003906 22.035156 26.332031 24.960938 24.542969 26.863281 C 24.878906 25.703125 25.027344 24.753906 24.949219 24 C 22.839844 27.132812 20.449219 28.734375 17.761719 28.832031 C 16.699219 28.824219 15.683594 28.683594 14.742188 28.378906 C 13.355469 27.917969 12.097656 27.128906 10.984375 26.011719 C 12.722656 26.152344 14.308594 25.835938 15.707031 25.136719 L 18.011719 23.683594 C 18.304688 23.46875 18.574219 23.492188 18.847656 23.621094 C 19.410156 23.542969 19.566406 23.371094 19.410156 22.847656 C 19.050781 22.539062 18.734375 22.128906 18.207031 21.832031 C 17.058594 21.242188 15.867188 21.207031 14.625 22.113281 C 13.433594 22.777344 12.292969 22.738281 11.175781 22.03125 C 10.445312 21.535156 9.726562 20.859375 9.046875 20.023438 L 8.796875 19.644531 L 8.796875 19.625 C 8.832031 18.800781 9.160156 18.355469 9.824219 18.253906 C 10.574219 18.320312 11.429688 18.492188 12.398438 18.769531 C 12.558594 17.851562 12.347656 16.894531 11.757812 15.90625 L 11.777344 15.785156 C 12.6875 14.953125 13.433594 14.445312 14.121094 14.058594 C 14.371094 13.722656 14.484375 13.621094 14.664062 13.320312 C 14.625 13.230469 14.707031 13.175781 14.761719 13.222656 C 14.816406 12.96875 14.8125 13.007812 14.585938 12.683594 C 13.917969 12.847656 13.160156 12.636719 12.648438 12.503906 C 12.386719 12.429688 12.03125 12.277344 11.621094 11.886719 L 10.578125 10.875 L 10.308594 10.515625 L 10.324219 10.394531 C 10.441406 9.601562 10.828125 8.957031 11.136719 8.347656 C 11.480469 7.792969 12.128906 7.179688 13.097656 6.539062 C 11.308594 6.757812 9.691406 7.558594 8.253906 8.925781 C 7.0625 8.496094 5.636719 8.585938 4.011719 9.203125 C 3.003906 8.730469 3.066406 8.097656 2.734375 5.941406 C 2.386719 6.320312 2.050781 6.695312 1.746094 7.09375 L 1.746094 28.058594 C 1.746094 29.46875 2.851562 30.605469 4.226562 30.605469 L 27.773438 30.605469 C 29.148438 30.605469 30.253906 29.46875 30.253906 28.058594 L 30.253906 9.144531 C 29.210938 7.496094 27.535156 6.191406 25.371094 5.542969 C 23.890625 5.105469 22.121094 4.867188 20.085938 4.808594 Z M 20.085938 4.808594 "/>
<path style=" stroke:none;fill-rule:nonzero;fill:rgb(0%,0%,0%);fill-opacity:0.101961;" d="M 30.085938 11.355469 C 30.132812 11.433594 30.167969 11.515625 30.207031 11.59375 C 30.207031 11.609375 30.210938 11.628906 30.207031 11.636719 C 30.199219 11.625 30.183594 11.605469 30.183594 11.59375 C 30.148438 11.511719 30.125 11.433594 30.085938 11.355469 Z M 30.085938 11.355469 "/>
<path style=" stroke:none;fill-rule:nonzero;fill:rgb(92.941177%,49.803922%,26.274511%);fill-opacity:1;" d="M 30.085938 10.707031 C 30.132812 10.785156 30.167969 10.867188 30.207031 10.945312 C 30.207031 10.960938 30.210938 10.980469 30.207031 10.988281 C 30.199219 10.976562 30.183594 10.957031 30.183594 10.945312 C 30.148438 10.863281 30.125 10.785156 30.085938 10.707031 Z M 30.085938 10.707031 "/>
<path style=" stroke:none;fill-rule:nonzero;fill:rgb(0%,0%,0%);fill-opacity:0.0196078;" d="M 1.097656 28.007812 L 1.097656 28.171875 C 1.097656 29.609375 2.253906 30.769531 3.691406 30.769531 L 28.308594 30.769531 C 29.746094 30.769531 30.902344 29.609375 30.902344 28.171875 L 30.902344 28.007812 C 30.902344 29.449219 29.746094 30.605469 28.308594 30.605469 L 3.691406 30.605469 C 2.253906 30.605469 1.097656 29.449219 1.097656 28.007812 Z M 1.097656 28.332031 L 1.097656 28.65625 C 1.097656 30.097656 2.253906 31.253906 3.691406 31.253906 L 28.308594 31.253906 C 29.746094 31.253906 30.902344 30.097656 30.902344 28.65625 L 30.902344 28.332031 C 30.902344 29.769531 29.746094 30.929688 28.308594 30.929688 L 3.691406 30.929688 C 2.253906 30.929688 1.097656 29.769531 1.097656 28.332031 Z M 1.097656 28.332031 "/>
<path style=" stroke:none;fill-rule:nonzero;fill:rgb(0%,0%,0%);fill-opacity:0.0509804;" d="M 1.097656 28.171875 L 1.097656 28.332031 C 1.097656 29.769531 2.253906 30.929688 3.691406 30.929688 L 28.308594 30.929688 C 29.746094 30.929688 30.902344 29.769531 30.902344 28.332031 L 30.902344 28.171875 C 30.902344 29.609375 29.746094 30.769531 28.308594 30.769531 L 3.691406 30.769531 C 2.253906 30.769531 1.097656 29.609375 1.097656 28.171875 Z M 1.097656 28.171875 "/>
<path style=" stroke:none;fill-rule:nonzero;fill:rgb(0%,0%,0%);fill-opacity:0.101961;" d="M 1.097656 28.007812 L 1.097656 28.171875 C 1.097656 29.609375 2.253906 30.769531 3.691406 30.769531 L 28.308594 30.769531 C 29.746094 30.769531 30.902344 29.609375 30.902344 28.171875 L 30.902344 28.007812 C 30.902344 29.449219 29.746094 30.605469 28.308594 30.605469 L 3.691406 30.605469 C 2.253906 30.605469 1.097656 29.449219 1.097656 28.007812 Z M 1.097656 28.007812 "/>
</g>
</svg>
