
<svg xmlns="http://www.w3.org/2000/svg" xmlns:xlink="http://www.w3.org/1999/xlink" width="32px" height="32px" viewBox="0 0 32 32" version="1.1">
<g id="surface1">
<path style="fill-rule:nonzero;fill:rgb(100%,100%,100%);fill-opacity:1;stroke-width:28.009619;stroke-linecap:butt;stroke-linejoin:miter;stroke:rgb(24.313726%,48.627451%,77.254903%);stroke-opacity:1;stroke-miterlimit:4;" d="M 83.099447 26.5625 L 429.900304 26.5625 C 460.835592 26.5625 485.884408 51.6875 485.884408 82.625 L 485.884408 429.375 C 485.884408 460.3125 460.835592 485.4375 429.900304 485.4375 L 83.099447 485.4375 C 52.164159 485.4375 27.115343 460.3125 27.115343 429.375 L 27.115343 82.625 C 27.115343 51.6875 52.164159 26.5625 83.099447 26.5625 Z M 83.099447 26.5625 " transform="matrix(0.0623782,0,0,0.0625,0,0)"/>
<path style=" stroke:none;fill-rule:nonzero;fill:rgb(20.784314%,23.921569%,24.313726%);fill-opacity:1;" d="M 2.484375 27.488281 L 2.484375 4.554688 C 2.484375 3.222656 3.535156 2.140625 4.832031 2.140625 L 27.167969 2.140625 C 28.464844 2.140625 29.515625 3.222656 29.515625 4.554688 L 29.515625 27.488281 C 29.515625 28.824219 28.464844 29.902344 27.167969 29.902344 L 4.832031 29.902344 C 3.535156 29.902344 2.484375 28.824219 2.484375 27.488281 Z M 2.484375 27.488281 "/>
<path style=" stroke:none;fill-rule:nonzero;fill:rgb(92.54902%,49.803922%,26.274511%);fill-opacity:1;" d="M 26.816406 9.589844 C 26.851562 9.652344 26.878906 9.710938 26.910156 9.769531 C 26.910156 9.785156 26.914062 9.800781 26.910156 9.808594 C 26.902344 9.796875 26.890625 9.78125 26.890625 9.769531 C 26.863281 9.707031 26.847656 9.652344 26.816406 9.589844 M 26.816406 9.589844 "/>
<path style=" stroke:none;fill-rule:nonzero;fill:rgb(24.313726%,48.627451%,77.254903%);fill-opacity:1;" d="M 20.003906 5.035156 C 20.878906 5.207031 21.625 5.40625 22.222656 5.675781 C 23.148438 6.082031 23.746094 6.617188 24.027344 7.234375 C 23.167969 7.078125 22.414062 7.125 21.730469 7.390625 C 26.632812 9.308594 28.941406 11.59375 28.675781 14.230469 C 28.316406 13.679688 27.839844 13.324219 27.234375 13.140625 C 27.984375 16.035156 28.066406 18.40625 27.460938 20.292969 C 27.042969 19.035156 26.644531 18.296875 26.304688 18.03125 C 26.78125 21.910156 26.125 24.777344 24.367188 26.644531 C 24.699219 25.503906 24.84375 24.574219 24.765625 23.839844 C 22.703125 26.910156 20.359375 28.476562 17.726562 28.574219 C 16.683594 28.5625 15.691406 28.425781 14.765625 28.128906 C 13.410156 27.675781 12.175781 26.902344 11.085938 25.808594 C 12.789062 25.949219 14.34375 25.636719 15.714844 24.949219 L 17.972656 23.527344 C 18.257812 23.316406 18.523438 23.339844 18.789062 23.46875 C 19.339844 23.394531 19.496094 23.222656 19.339844 22.707031 C 18.988281 22.410156 18.679688 22.003906 18.164062 21.714844 C 17.039062 21.136719 15.871094 21.105469 14.652344 21.988281 C 13.488281 22.640625 12.367188 22.605469 11.277344 21.910156 C 10.558594 21.425781 9.855469 20.761719 9.1875 19.941406 L 8.941406 19.574219 L 8.941406 19.550781 C 8.972656 18.742188 9.300781 18.308594 9.949219 18.207031 C 10.683594 18.273438 11.523438 18.441406 12.472656 18.714844 C 12.628906 17.816406 12.417969 16.875 11.84375 15.910156 L 11.863281 15.792969 C 12.753906 14.972656 13.484375 14.476562 14.160156 14.097656 C 14.402344 13.769531 14.511719 13.667969 14.691406 13.375 C 14.652344 13.289062 14.734375 13.234375 14.785156 13.277344 C 14.839844 13.03125 14.835938 13.066406 14.613281 12.75 C 13.960938 12.910156 13.21875 12.707031 12.714844 12.574219 C 12.457031 12.5 12.109375 12.347656 11.710938 11.972656 L 10.6875 10.976562 L 10.421875 10.628906 L 10.441406 10.511719 C 10.554688 9.730469 10.933594 9.097656 11.238281 8.503906 C 11.570312 7.957031 12.207031 7.355469 13.152344 6.730469 C 11.402344 6.945312 9.820312 7.726562 8.410156 9.066406 C 7.242188 8.644531 5.847656 8.738281 4.253906 9.339844 C 3.261719 8.878906 3.324219 8.257812 3.003906 6.144531 C 2.664062 6.515625 2.332031 6.882812 2.035156 7.273438 L 2.035156 27.816406 C 2.035156 29.199219 3.117188 30.308594 4.464844 30.308594 L 27.535156 30.308594 C 28.882812 30.308594 29.964844 29.199219 29.964844 27.816406 L 29.964844 9.28125 C 28.941406 7.667969 27.304688 6.390625 25.183594 5.753906 C 23.730469 5.324219 21.996094 5.089844 20.003906 5.035156 Z M 20.003906 5.035156 "/>
<path style=" stroke:none;fill-rule:nonzero;fill:rgb(0%,0%,0%);fill-opacity:0.101961;" d="M 29.800781 11.449219 C 29.847656 11.527344 29.878906 11.605469 29.921875 11.683594 C 29.917969 11.699219 29.925781 11.714844 29.921875 11.726562 C 29.910156 11.714844 29.894531 11.695312 29.894531 11.683594 C 29.863281 11.605469 29.839844 11.527344 29.800781 11.449219 Z M 29.800781 11.449219 "/>
<path style=" stroke:none;fill-rule:nonzero;fill:rgb(92.941177%,49.803922%,26.274511%);fill-opacity:1;" d="M 29.800781 10.8125 C 29.847656 10.894531 29.878906 10.972656 29.921875 11.046875 C 29.917969 11.0625 29.925781 11.082031 29.921875 11.089844 C 29.910156 11.078125 29.894531 11.058594 29.894531 11.046875 C 29.863281 10.96875 29.839844 10.894531 29.800781 10.8125 Z M 29.800781 10.8125 "/>
<path style=" stroke:none;fill-rule:nonzero;fill:rgb(0%,0%,0%);fill-opacity:0.0196078;" d="M 1.402344 27.765625 L 1.402344 27.925781 C 1.402344 29.335938 2.535156 30.46875 3.941406 30.46875 L 28.058594 30.46875 C 29.464844 30.46875 30.597656 29.335938 30.597656 27.925781 L 30.597656 27.765625 C 30.597656 29.175781 29.464844 30.308594 28.058594 30.308594 L 3.941406 30.308594 C 2.535156 30.308594 1.402344 29.175781 1.402344 27.765625 Z M 1.402344 28.082031 L 1.402344 28.402344 C 1.402344 29.8125 2.535156 30.945312 3.941406 30.945312 L 28.058594 30.945312 C 29.464844 30.945312 30.597656 29.8125 30.597656 28.402344 L 30.597656 28.082031 C 30.597656 29.496094 29.464844 30.628906 28.058594 30.628906 L 3.941406 30.628906 C 2.535156 30.628906 1.402344 29.496094 1.402344 28.082031 Z M 1.402344 28.082031 "/>
<path style=" stroke:none;fill-rule:nonzero;fill:rgb(0%,0%,0%);fill-opacity:0.0509804;" d="M 1.402344 27.925781 L 1.402344 28.082031 C 1.402344 29.496094 2.535156 30.628906 3.941406 30.628906 L 28.058594 30.628906 C 29.464844 30.628906 30.597656 29.496094 30.597656 28.082031 L 30.597656 27.925781 C 30.597656 29.335938 29.464844 30.46875 28.058594 30.46875 L 3.941406 30.46875 C 2.535156 30.46875 1.402344 29.335938 1.402344 27.925781 Z M 1.402344 27.925781 "/>
<path style=" stroke:none;fill-rule:nonzero;fill:rgb(0%,0%,0%);fill-opacity:0.101961;" d="M 1.402344 27.765625 L 1.402344 27.925781 C 1.402344 29.335938 2.535156 30.46875 3.941406 30.46875 L 28.058594 30.46875 C 29.464844 30.46875 30.597656 29.335938 30.597656 27.925781 L 30.597656 27.765625 C 30.597656 29.175781 29.464844 30.308594 28.058594 30.308594 L 3.941406 30.308594 C 2.535156 30.308594 1.402344 29.175781 1.402344 27.765625 Z M 1.402344 27.765625 "/>
</g>
</svg>
