
<svg xmlns="http://www.w3.org/2000/svg" xmlns:xlink="http://www.w3.org/1999/xlink" width="32px" height="32px" viewBox="0 0 32 32" version="1.1">
<g id="surface1">
<path style="fill-rule:nonzero;fill:rgb(100%,100%,100%);fill-opacity:1;stroke-width:2.623514;stroke-linecap:butt;stroke-linejoin:miter;stroke:rgb(30.19608%,30.19608%,30.19608%);stroke-opacity:1;stroke-miterlimit:4;" d="M 8.572266 2.513672 L 41.056641 2.513672 C 43.951172 2.513672 46.300781 4.863281 46.300781 7.757812 L 46.300781 40.242188 C 46.300781 43.136719 43.951172 45.486328 41.056641 45.486328 L 8.572266 45.486328 C 5.677734 45.486328 3.322266 43.136719 3.322266 40.242188 L 3.322266 7.757812 C 3.322266 4.863281 5.677734 2.513672 8.572266 2.513672 Z M 8.572266 2.513672 " transform="matrix(0.666667,0,0,0.666667,0,0)"/>
<path style=" stroke:none;fill-rule:nonzero;fill:rgb(0%,80.000001%,100%);fill-opacity:1;" d="M 3.011719 27.480469 L 3.011719 4.566406 C 3.011719 3.230469 4.066406 2.152344 5.363281 2.152344 L 27.71875 2.152344 C 29.019531 2.152344 30.074219 3.230469 30.074219 4.566406 L 30.074219 27.480469 C 30.074219 28.808594 29.019531 29.890625 27.71875 29.890625 L 5.363281 29.890625 C 4.066406 29.890625 3.011719 28.808594 3.011719 27.480469 Z M 3.011719 27.480469 "/>
<path style=" stroke:none;fill-rule:nonzero;fill:rgb(92.54902%,49.803922%,26.274511%);fill-opacity:1;" d="M 27.371094 9.59375 C 27.40625 9.65625 27.433594 9.71875 27.464844 9.777344 C 27.460938 9.789062 27.464844 9.804688 27.464844 9.8125 C 27.457031 9.800781 27.445312 9.785156 27.445312 9.777344 C 27.417969 9.714844 27.402344 9.65625 27.371094 9.59375 M 27.371094 9.59375 "/>
<path style=" stroke:none;fill-rule:nonzero;fill:rgb(30.19608%,30.19608%,30.19608%);fill-opacity:1;" d="M 20.550781 5.042969 C 21.425781 5.214844 22.171875 5.414062 22.773438 5.683594 C 23.699219 6.089844 24.292969 6.625 24.578125 7.242188 C 23.71875 7.085938 22.964844 7.136719 22.277344 7.398438 C 27.183594 9.316406 29.496094 11.597656 29.230469 14.234375 C 28.875 13.683594 28.394531 13.324219 27.785156 13.144531 C 28.539062 16.035156 28.621094 18.40625 28.015625 20.289062 C 27.597656 19.035156 27.199219 18.292969 26.855469 18.03125 C 27.332031 21.90625 26.679688 24.769531 24.917969 26.636719 C 25.253906 25.496094 25.394531 24.566406 25.316406 23.832031 C 23.253906 26.898438 20.90625 28.464844 18.269531 28.566406 C 17.230469 28.550781 16.230469 28.414062 15.308594 28.117188 C 13.949219 27.667969 12.714844 26.894531 11.621094 25.800781 C 13.328125 25.9375 14.886719 25.628906 16.257812 24.941406 L 18.519531 23.519531 C 18.800781 23.3125 19.066406 23.332031 19.335938 23.464844 C 19.886719 23.386719 20.042969 23.214844 19.886719 22.703125 C 19.535156 22.402344 19.222656 22 18.707031 21.710938 C 17.582031 21.132812 16.414062 21.097656 15.191406 21.980469 C 14.027344 22.636719 12.90625 22.597656 11.8125 21.90625 C 11.09375 21.417969 10.390625 20.757812 9.722656 19.9375 L 9.476562 19.566406 L 9.476562 19.550781 C 9.507812 18.738281 9.832031 18.304688 10.480469 18.207031 C 11.21875 18.269531 12.058594 18.441406 13.011719 18.710938 C 13.167969 17.8125 12.957031 16.875 12.382812 15.910156 L 12.402344 15.792969 C 13.292969 14.976562 14.023438 14.480469 14.699219 14.097656 C 14.941406 13.769531 15.054688 13.667969 15.230469 13.378906 C 15.191406 13.292969 15.277344 13.238281 15.324219 13.277344 C 15.378906 13.035156 15.378906 13.070312 15.15625 12.753906 C 14.5 12.914062 13.757812 12.707031 13.253906 12.578125 C 12.996094 12.503906 12.648438 12.355469 12.25 11.972656 L 11.222656 10.980469 L 10.957031 10.628906 L 10.976562 10.515625 C 11.089844 9.734375 11.46875 9.105469 11.773438 8.507812 C 12.105469 7.964844 12.746094 7.363281 13.691406 6.738281 C 11.941406 6.953125 10.355469 7.734375 8.945312 9.074219 C 7.777344 8.652344 6.378906 8.742188 4.785156 9.347656 C 3.792969 8.886719 3.855469 8.265625 3.53125 6.152344 C 3.191406 6.523438 2.863281 6.890625 2.5625 7.28125 L 2.5625 27.804688 C 2.5625 29.183594 3.644531 30.296875 4.992188 30.296875 L 28.089844 30.296875 C 29.4375 30.296875 30.523438 29.183594 30.523438 27.804688 L 30.523438 9.289062 C 29.5 7.675781 27.855469 6.402344 25.738281 5.761719 C 24.285156 5.332031 22.542969 5.101562 20.550781 5.042969 Z M 20.550781 5.042969 "/>
<path style=" stroke:none;fill-rule:nonzero;fill:rgb(0%,0%,0%);fill-opacity:0.101961;" d="M 30.359375 11.453125 C 30.402344 11.53125 30.4375 11.609375 30.480469 11.683594 C 30.476562 11.699219 30.480469 11.722656 30.480469 11.730469 C 30.46875 11.714844 30.453125 11.699219 30.453125 11.683594 C 30.417969 11.605469 30.394531 11.53125 30.359375 11.453125 Z M 30.359375 11.453125 "/>
<path style=" stroke:none;fill-rule:nonzero;fill:rgb(92.941177%,49.803922%,26.274511%);fill-opacity:1;" d="M 30.359375 10.816406 C 30.402344 10.894531 30.4375 10.976562 30.480469 11.050781 C 30.476562 11.066406 30.480469 11.085938 30.480469 11.09375 C 30.46875 11.082031 30.453125 11.0625 30.453125 11.050781 C 30.417969 10.972656 30.398438 10.894531 30.359375 10.816406 Z M 30.359375 10.816406 "/>
<path style=" stroke:none;fill-rule:nonzero;fill:rgb(0%,0%,0%);fill-opacity:0.0196078;" d="M 1.925781 27.753906 L 1.925781 27.914062 C 1.925781 29.324219 3.058594 30.457031 4.46875 30.457031 L 28.613281 30.457031 C 30.023438 30.457031 31.15625 29.324219 31.15625 27.914062 L 31.15625 27.753906 C 31.15625 29.164062 30.023438 30.296875 28.613281 30.296875 L 4.46875 30.296875 C 3.058594 30.296875 1.925781 29.164062 1.925781 27.753906 Z M 1.925781 28.074219 L 1.925781 28.390625 C 1.925781 29.800781 3.058594 30.933594 4.46875 30.933594 L 28.613281 30.933594 C 30.023438 30.933594 31.15625 29.800781 31.15625 28.390625 L 31.15625 28.074219 C 31.15625 29.480469 30.023438 30.613281 28.613281 30.613281 L 4.46875 30.613281 C 3.058594 30.613281 1.925781 29.480469 1.925781 28.074219 Z M 1.925781 28.074219 "/>
<path style=" stroke:none;fill-rule:nonzero;fill:rgb(0%,0%,0%);fill-opacity:0.0509804;" d="M 1.925781 27.914062 L 1.925781 28.074219 C 1.925781 29.480469 3.058594 30.613281 4.46875 30.613281 L 28.613281 30.613281 C 30.023438 30.613281 31.15625 29.480469 31.15625 28.074219 L 31.15625 27.914062 C 31.15625 29.324219 30.023438 30.457031 28.613281 30.457031 L 4.46875 30.457031 C 3.058594 30.457031 1.925781 29.324219 1.925781 27.914062 Z M 1.925781 27.914062 "/>
<path style=" stroke:none;fill-rule:nonzero;fill:rgb(0%,0%,0%);fill-opacity:0.101961;" d="M 1.925781 27.753906 L 1.925781 27.914062 C 1.925781 29.324219 3.058594 30.457031 4.46875 30.457031 L 28.613281 30.457031 C 30.023438 30.457031 31.15625 29.324219 31.15625 27.914062 L 31.15625 27.753906 C 31.15625 29.164062 30.023438 30.296875 28.613281 30.296875 L 4.46875 30.296875 C 3.058594 30.296875 1.925781 29.164062 1.925781 27.753906 Z M 1.925781 27.753906 "/>
</g>
</svg>
