
<svg xmlns="http://www.w3.org/2000/svg" xmlns:xlink="http://www.w3.org/1999/xlink" width="32px" height="32px" viewBox="0 0 32 32" version="1.1">
<g id="surface1">
<path style="fill-rule:nonzero;fill:rgb(100%,100%,100%);fill-opacity:1;stroke-width:2.577888;stroke-linecap:butt;stroke-linejoin:miter;stroke:rgb(100%,86.666667%,33.333334%);stroke-opacity:1;stroke-miterlimit:4;" d="M 8.319229 4.263174 L 40.241986 4.263174 C 43.085973 4.263174 45.392824 6.570025 45.392824 9.414012 L 45.392824 41.336769 C 45.392824 44.180756 43.085973 46.487607 40.241986 46.487607 L 8.319229 46.487607 C 5.475242 46.487607 3.168391 44.180756 3.168391 41.336769 L 3.168391 9.414012 C 3.168391 6.570025 5.475242 4.263174 8.319229 4.263174 Z M 8.319229 4.263174 " transform="matrix(0.690877,0,0,0.690877,-0.774905,-1.531265)"/>
<path style=" stroke:none;fill-rule:nonzero;fill:rgb(100%,40.000001%,0%);fill-opacity:1;" d="M 2.222656 27.6875 L 2.222656 4.355469 C 2.222656 2.996094 3.292969 1.898438 4.617188 1.898438 L 27.382812 1.898438 C 28.707031 1.898438 29.777344 2.996094 29.777344 4.355469 L 29.777344 27.6875 C 29.777344 29.042969 28.707031 30.144531 27.382812 30.144531 L 4.617188 30.144531 C 3.292969 30.144531 2.222656 29.042969 2.222656 27.6875 Z M 2.222656 27.6875 "/>
<path style=" stroke:none;fill-rule:nonzero;fill:rgb(92.54902%,49.803922%,26.274511%);fill-opacity:1;" d="M 27.027344 9.476562 C 27.0625 9.539062 27.089844 9.601562 27.121094 9.664062 C 27.121094 9.675781 27.125 9.691406 27.121094 9.699219 C 27.113281 9.6875 27.101562 9.675781 27.101562 9.664062 C 27.074219 9.597656 27.058594 9.539062 27.027344 9.476562 M 27.027344 9.476562 "/>
<path style=" stroke:none;fill-rule:nonzero;fill:rgb(100%,86.666667%,33.333334%);fill-opacity:1;" d="M 20.082031 4.84375 C 20.972656 5.019531 21.730469 5.222656 22.34375 5.496094 C 23.285156 5.910156 23.894531 6.453125 24.183594 7.082031 C 23.308594 6.921875 22.539062 6.972656 21.839844 7.242188 C 26.839844 9.195312 29.191406 11.519531 28.921875 14.199219 C 28.558594 13.640625 28.066406 13.277344 27.449219 13.089844 C 28.214844 16.035156 28.300781 18.449219 27.683594 20.367188 C 27.257812 19.089844 26.851562 18.335938 26.503906 18.066406 C 26.988281 22.011719 26.324219 24.933594 24.53125 26.832031 C 24.871094 25.671875 25.015625 24.722656 24.9375 23.976562 C 22.832031 27.097656 20.445312 28.691406 17.761719 28.792969 C 16.699219 28.78125 15.683594 28.644531 14.742188 28.339844 C 13.355469 27.878906 12.105469 27.089844 10.988281 25.980469 C 12.726562 26.121094 14.3125 25.804688 15.710938 25.105469 L 18.011719 23.660156 C 18.300781 23.445312 18.570312 23.46875 18.84375 23.597656 C 19.40625 23.519531 19.5625 23.347656 19.402344 22.824219 C 19.046875 22.519531 18.730469 22.109375 18.207031 21.816406 C 17.058594 21.226562 15.867188 21.191406 14.628906 22.09375 C 13.4375 22.757812 12.296875 22.71875 11.183594 22.011719 C 10.453125 21.519531 9.734375 20.84375 9.054688 20.011719 L 8.804688 19.632812 L 8.804688 19.613281 C 8.839844 18.789062 9.167969 18.347656 9.832031 18.246094 C 10.578125 18.3125 11.433594 18.484375 12.402344 18.761719 C 12.566406 17.847656 12.351562 16.890625 11.761719 15.90625 L 11.785156 15.785156 C 12.691406 14.957031 13.433594 14.449219 14.125 14.0625 C 14.371094 13.730469 14.484375 13.628906 14.664062 13.328125 C 14.625 13.242188 14.710938 13.183594 14.761719 13.230469 C 14.816406 12.980469 14.816406 13.019531 14.589844 12.695312 C 13.921875 12.855469 13.164062 12.648438 12.652344 12.515625 C 12.390625 12.441406 12.035156 12.285156 11.628906 11.902344 L 10.582031 10.890625 L 10.3125 10.535156 L 10.332031 10.414062 C 10.449219 9.621094 10.832031 8.976562 11.144531 8.371094 C 11.484375 7.816406 12.136719 7.207031 13.097656 6.566406 C 11.3125 6.785156 9.699219 7.582031 8.261719 8.949219 C 7.074219 8.519531 5.652344 8.609375 4.027344 9.222656 C 3.019531 8.753906 3.082031 8.121094 2.75 5.972656 C 2.40625 6.351562 2.070312 6.722656 1.761719 7.121094 L 1.761719 28.019531 C 1.761719 29.425781 2.867188 30.558594 4.238281 30.558594 L 27.761719 30.558594 C 29.132812 30.558594 30.238281 29.425781 30.238281 28.019531 L 30.238281 9.164062 C 29.191406 7.523438 27.523438 6.222656 25.363281 5.574219 C 23.882812 5.136719 22.113281 4.902344 20.082031 4.84375 Z M 20.082031 4.84375 "/>
<path style=" stroke:none;fill-rule:nonzero;fill:rgb(0%,0%,0%);fill-opacity:0.101961;" d="M 30.070312 11.371094 C 30.113281 11.449219 30.148438 11.53125 30.191406 11.605469 C 30.1875 11.621094 30.195312 11.644531 30.191406 11.652344 C 30.183594 11.636719 30.167969 11.621094 30.167969 11.605469 C 30.128906 11.527344 30.109375 11.449219 30.070312 11.371094 Z M 30.070312 11.371094 "/>
<path style=" stroke:none;fill-rule:nonzero;fill:rgb(92.941177%,49.803922%,26.274511%);fill-opacity:1;" d="M 30.070312 10.722656 C 30.113281 10.804688 30.152344 10.882812 30.191406 10.960938 C 30.1875 10.976562 30.195312 10.996094 30.191406 11.003906 C 30.183594 10.992188 30.167969 10.972656 30.167969 10.960938 C 30.128906 10.878906 30.109375 10.804688 30.070312 10.722656 Z M 30.070312 10.722656 "/>
<path style=" stroke:none;fill-rule:nonzero;fill:rgb(0%,0%,0%);fill-opacity:0.0196078;" d="M 1.117188 27.972656 L 1.117188 28.132812 C 1.117188 29.566406 2.269531 30.722656 3.707031 30.722656 L 28.292969 30.722656 C 29.730469 30.722656 30.882812 29.566406 30.882812 28.132812 L 30.882812 27.972656 C 30.882812 29.402344 29.730469 30.558594 28.292969 30.558594 L 3.707031 30.558594 C 2.269531 30.558594 1.117188 29.402344 1.117188 27.972656 Z M 1.117188 28.292969 L 1.117188 28.617188 C 1.117188 30.050781 2.269531 31.207031 3.707031 31.207031 L 28.292969 31.207031 C 29.730469 31.207031 30.882812 30.050781 30.882812 28.617188 L 30.882812 28.292969 C 30.882812 29.730469 29.730469 30.882812 28.292969 30.882812 L 3.707031 30.882812 C 2.269531 30.882812 1.117188 29.730469 1.117188 28.292969 Z M 1.117188 28.292969 "/>
<path style=" stroke:none;fill-rule:nonzero;fill:rgb(0%,0%,0%);fill-opacity:0.0509804;" d="M 1.117188 28.132812 L 1.117188 28.292969 C 1.117188 29.730469 2.269531 30.882812 3.707031 30.882812 L 28.292969 30.882812 C 29.730469 30.882812 30.882812 29.730469 30.882812 28.292969 L 30.882812 28.132812 C 30.882812 29.566406 29.730469 30.722656 28.292969 30.722656 L 3.707031 30.722656 C 2.269531 30.722656 1.117188 29.566406 1.117188 28.132812 Z M 1.117188 28.132812 "/>
<path style=" stroke:none;fill-rule:nonzero;fill:rgb(0%,0%,0%);fill-opacity:0.101961;" d="M 1.117188 27.972656 L 1.117188 28.132812 C 1.117188 29.566406 2.269531 30.722656 3.707031 30.722656 L 28.292969 30.722656 C 29.730469 30.722656 30.882812 29.566406 30.882812 28.132812 L 30.882812 27.972656 C 30.882812 29.402344 29.730469 30.558594 28.292969 30.558594 L 3.707031 30.558594 C 2.269531 30.558594 1.117188 29.402344 1.117188 27.972656 Z M 1.117188 27.972656 "/>
</g>
</svg>
