
<svg xmlns="http://www.w3.org/2000/svg" xmlns:xlink="http://www.w3.org/1999/xlink" width="32px" height="32px" viewBox="0 0 32 32" version="1.1">
<defs>
<clipPath id="clip1">
  <path d="M 2.125 2.125 L 29.875 2.125 L 29.875 29.875 L 2.125 29.875 Z M 2.125 2.125 "/>
</clipPath>
<clipPath id="clip2">
  <path d="M 5.535156 2.152344 L 26.464844 2.152344 C 28.332031 2.152344 29.847656 3.667969 29.847656 5.535156 L 29.847656 26.464844 C 29.847656 28.332031 28.332031 29.847656 26.464844 29.847656 L 5.535156 29.847656 C 3.667969 29.847656 2.152344 28.332031 2.152344 26.464844 L 2.152344 5.535156 C 2.152344 3.667969 3.667969 2.152344 5.535156 2.152344 Z M 5.535156 2.152344 "/>
</clipPath>
<clipPath id="clip3">
  <path d="M 26.9375 9.5 L 27.125 9.5 L 27.125 9.75 L 26.9375 9.75 Z M 26.9375 9.5 "/>
</clipPath>
<clipPath id="clip4">
  <path d="M 5.535156 2.152344 L 26.464844 2.152344 C 28.332031 2.152344 29.847656 3.667969 29.847656 5.535156 L 29.847656 26.464844 C 29.847656 28.332031 28.332031 29.847656 26.464844 29.847656 L 5.535156 29.847656 C 3.667969 29.847656 2.152344 28.332031 2.152344 26.464844 L 2.152344 5.535156 C 2.152344 3.667969 3.667969 2.152344 5.535156 2.152344 Z M 5.535156 2.152344 "/>
</clipPath>
<clipPath id="clip5">
  <path d="M 2.125 4.375 L 29.875 4.375 L 29.875 29.875 L 2.125 29.875 Z M 2.125 4.375 "/>
</clipPath>
<clipPath id="clip6">
  <path d="M 5.535156 2.152344 L 26.464844 2.152344 C 28.332031 2.152344 29.847656 3.667969 29.847656 5.535156 L 29.847656 26.464844 C 29.847656 28.332031 28.332031 29.847656 26.464844 29.847656 L 5.535156 29.847656 C 3.667969 29.847656 2.152344 28.332031 2.152344 26.464844 L 2.152344 5.535156 C 2.152344 3.667969 3.667969 2.152344 5.535156 2.152344 Z M 5.535156 2.152344 "/>
</clipPath>
<clipPath id="clip7">
  <path d="M 2.125 27.875 L 29.875 27.875 L 29.875 29.875 L 2.125 29.875 Z M 2.125 27.875 "/>
</clipPath>
<clipPath id="clip8">
  <path d="M 5.535156 2.152344 L 26.464844 2.152344 C 28.332031 2.152344 29.847656 3.667969 29.847656 5.535156 L 29.847656 26.464844 C 29.847656 28.332031 28.332031 29.847656 26.464844 29.847656 L 5.535156 29.847656 C 3.667969 29.847656 2.152344 28.332031 2.152344 26.464844 L 2.152344 5.535156 C 2.152344 3.667969 3.667969 2.152344 5.535156 2.152344 Z M 5.535156 2.152344 "/>
</clipPath>
<clipPath id="clip9">
  <path d="M 2.125 28.0625 L 29.875 28.0625 L 29.875 29.875 L 2.125 29.875 Z M 2.125 28.0625 "/>
</clipPath>
<clipPath id="clip10">
  <path d="M 5.535156 2.152344 L 26.464844 2.152344 C 28.332031 2.152344 29.847656 3.667969 29.847656 5.535156 L 29.847656 26.464844 C 29.847656 28.332031 28.332031 29.847656 26.464844 29.847656 L 5.535156 29.847656 C 3.667969 29.847656 2.152344 28.332031 2.152344 26.464844 L 2.152344 5.535156 C 2.152344 3.667969 3.667969 2.152344 5.535156 2.152344 Z M 5.535156 2.152344 "/>
</clipPath>
<clipPath id="clip11">
  <path d="M 2.125 27.875 L 29.875 27.875 L 29.875 29.875 L 2.125 29.875 Z M 2.125 27.875 "/>
</clipPath>
<clipPath id="clip12">
  <path d="M 5.535156 2.152344 L 26.464844 2.152344 C 28.332031 2.152344 29.847656 3.667969 29.847656 5.535156 L 29.847656 26.464844 C 29.847656 28.332031 28.332031 29.847656 26.464844 29.847656 L 5.535156 29.847656 C 3.667969 29.847656 2.152344 28.332031 2.152344 26.464844 L 2.152344 5.535156 C 2.152344 3.667969 3.667969 2.152344 5.535156 2.152344 Z M 5.535156 2.152344 "/>
</clipPath>
</defs>
<g id="surface1">
<path style="fill-rule:nonzero;fill:rgb(100%,100%,100%);fill-opacity:1;stroke-width:27.98415;stroke-linecap:butt;stroke-linejoin:miter;stroke:rgb(0%,80.000001%,100%);stroke-opacity:1;stroke-miterlimit:4;" d="M 82.75 26.8125 L 429.25 26.8125 C 460.125 26.8125 485.1875 51.875 485.1875 82.75 L 485.1875 429.25 C 485.1875 460.125 460.125 485.1875 429.25 485.1875 L 82.75 485.1875 C 51.875 485.1875 26.8125 460.125 26.8125 429.25 L 26.8125 82.75 C 26.8125 51.875 51.875 26.8125 82.75 26.8125 Z M 82.75 26.8125 " transform="matrix(0.0625,0,0,0.0625,0,0)"/>
<g clip-path="url(#clip1)" clip-rule="nonzero">
<g clip-path="url(#clip2)" clip-rule="nonzero">
<path style=" stroke:none;fill-rule:nonzero;fill:rgb(0%,80.000001%,100%);fill-opacity:1;" d="M 1.179688 27.921875 L 1.179688 3.433594 C 1.179688 2.011719 2.332031 0.855469 3.757812 0.855469 L 28.242188 0.855469 C 29.667969 0.855469 30.820312 2.011719 30.820312 3.433594 L 30.820312 27.921875 C 30.820312 29.34375 29.667969 30.496094 28.242188 30.496094 L 3.757812 30.496094 C 2.332031 30.496094 1.179688 29.34375 1.179688 27.921875 Z M 1.179688 27.921875 "/>
</g>
</g>
<g clip-path="url(#clip3)" clip-rule="nonzero">
<g clip-path="url(#clip4)" clip-rule="nonzero">
<path style=" stroke:none;fill-rule:nonzero;fill:rgb(92.156863%,49.019608%,25.882354%);fill-opacity:1;" d="M 26.980469 9.503906 C 27.015625 9.566406 27.042969 9.628906 27.074219 9.691406 C 27.074219 9.703125 27.078125 9.71875 27.074219 9.726562 C 27.066406 9.714844 27.054688 9.699219 27.054688 9.691406 C 27.027344 9.628906 27.011719 9.566406 26.980469 9.503906 M 26.980469 9.503906 "/>
</g>
</g>
<g clip-path="url(#clip5)" clip-rule="nonzero">
<g clip-path="url(#clip6)" clip-rule="nonzero">
<path style=" stroke:none;fill-rule:nonzero;fill:rgb(100%,40.000001%,0%);fill-opacity:1;" d="M 20.25 4.378906 C 21.175781 4.558594 21.96875 4.765625 22.605469 5.046875 C 23.585938 5.464844 24.21875 6.019531 24.519531 6.65625 C 23.605469 6.496094 22.808594 6.542969 22.082031 6.816406 C 27.28125 8.800781 29.734375 11.160156 29.449219 13.886719 C 29.074219 13.316406 28.5625 12.945312 27.921875 12.757812 C 28.714844 15.746094 28.804688 18.199219 28.160156 20.148438 C 27.71875 18.847656 27.296875 18.085938 26.933594 17.8125 C 27.441406 21.820312 26.746094 24.785156 24.878906 26.714844 C 25.234375 25.535156 25.386719 24.574219 25.300781 23.8125 C 23.113281 26.984375 20.628906 28.605469 17.832031 28.707031 C 16.726562 28.691406 15.671875 28.550781 14.691406 28.242188 C 13.25 27.777344 11.941406 26.976562 10.785156 25.847656 C 12.59375 25.988281 14.242188 25.667969 15.699219 24.960938 L 18.09375 23.488281 C 18.394531 23.273438 18.675781 23.296875 18.960938 23.429688 C 19.546875 23.351562 19.707031 23.175781 19.542969 22.644531 C 19.171875 22.332031 18.84375 21.917969 18.296875 21.617188 C 17.101562 21.019531 15.863281 20.988281 14.570312 21.902344 C 13.332031 22.574219 12.144531 22.535156 10.988281 21.820312 C 10.226562 21.316406 9.476562 20.632812 8.769531 19.785156 L 8.511719 19.402344 L 8.511719 19.382812 C 8.542969 18.546875 8.886719 18.097656 9.574219 17.992188 C 10.355469 18.058594 11.25 18.238281 12.253906 18.519531 C 12.425781 17.589844 12.199219 16.617188 11.589844 15.617188 L 11.609375 15.496094 C 12.554688 14.652344 13.332031 14.140625 14.046875 13.746094 C 14.304688 13.40625 14.421875 13.300781 14.609375 13 C 14.570312 12.910156 14.65625 12.855469 14.710938 12.898438 C 14.769531 12.644531 14.765625 12.683594 14.53125 12.355469 C 13.835938 12.519531 13.046875 12.308594 12.515625 12.175781 C 12.242188 12.097656 11.871094 11.941406 11.449219 11.550781 L 10.363281 10.523438 L 10.082031 10.160156 L 10.097656 10.039062 C 10.222656 9.234375 10.621094 8.582031 10.945312 7.964844 C 11.300781 7.402344 11.976562 6.785156 12.980469 6.132812 C 11.121094 6.355469 9.441406 7.164062 7.945312 8.550781 C 6.707031 8.113281 5.226562 8.207031 3.535156 8.832031 C 2.484375 8.355469 2.550781 7.714844 2.207031 5.527344 C 1.847656 5.914062 1.496094 6.292969 1.179688 6.699219 L 1.179688 27.921875 C 1.179688 29.347656 2.328125 30.496094 3.757812 30.496094 L 28.242188 30.496094 C 29.671875 30.496094 30.820312 29.347656 30.820312 27.921875 L 30.820312 8.769531 C 29.734375 7.105469 27.996094 5.785156 25.746094 5.128906 C 24.207031 4.679688 22.363281 4.441406 20.25 4.378906 Z M 20.25 4.378906 "/>
</g>
</g>
<g clip-path="url(#clip7)" clip-rule="nonzero">
<g clip-path="url(#clip8)" clip-rule="nonzero">
<path style=" stroke:none;fill-rule:nonzero;fill:rgb(0%,0%,0%);fill-opacity:0.0196078;" d="M 1.179688 27.921875 L 1.179688 28.082031 C 1.179688 29.511719 2.328125 30.660156 3.757812 30.660156 L 28.242188 30.660156 C 29.671875 30.660156 30.820312 29.511719 30.820312 28.082031 L 30.820312 27.921875 C 30.820312 29.347656 29.671875 30.496094 28.242188 30.496094 L 3.757812 30.496094 C 2.328125 30.496094 1.179688 29.347656 1.179688 27.921875 Z M 1.179688 28.242188 L 1.179688 28.566406 C 1.179688 29.992188 2.328125 31.144531 3.757812 31.144531 L 28.242188 31.144531 C 29.671875 31.144531 30.820312 29.992188 30.820312 28.566406 L 30.820312 28.242188 C 30.820312 29.671875 29.671875 30.820312 28.242188 30.820312 L 3.757812 30.820312 C 2.328125 30.820312 1.179688 29.671875 1.179688 28.242188 Z M 1.179688 28.242188 "/>
</g>
</g>
<g clip-path="url(#clip9)" clip-rule="nonzero">
<g clip-path="url(#clip10)" clip-rule="nonzero">
<path style=" stroke:none;fill-rule:nonzero;fill:rgb(0%,0%,0%);fill-opacity:0.0509804;" d="M 1.179688 28.082031 L 1.179688 28.242188 C 1.179688 29.671875 2.328125 30.820312 3.757812 30.820312 L 28.242188 30.820312 C 29.671875 30.820312 30.820312 29.671875 30.820312 28.242188 L 30.820312 28.082031 C 30.820312 29.511719 29.671875 30.660156 28.242188 30.660156 L 3.757812 30.660156 C 2.328125 30.660156 1.179688 29.511719 1.179688 28.082031 Z M 1.179688 28.082031 "/>
</g>
</g>
<g clip-path="url(#clip11)" clip-rule="nonzero">
<g clip-path="url(#clip12)" clip-rule="nonzero">
<path style=" stroke:none;fill-rule:nonzero;fill:rgb(0%,0%,0%);fill-opacity:0.101961;" d="M 1.179688 27.921875 L 1.179688 28.082031 C 1.179688 29.511719 2.328125 30.660156 3.757812 30.660156 L 28.242188 30.660156 C 29.671875 30.660156 30.820312 29.511719 30.820312 28.082031 L 30.820312 27.921875 C 30.820312 29.347656 29.671875 30.496094 28.242188 30.496094 L 3.757812 30.496094 C 2.328125 30.496094 1.179688 29.347656 1.179688 27.921875 Z M 1.179688 27.921875 "/>
</g>
</g>
</g>
</svg>
