
<svg xmlns="http://www.w3.org/2000/svg" xmlns:xlink="http://www.w3.org/1999/xlink" width="32px" height="32px" viewBox="0 0 32 32" version="1.1">
<g id="surface1">
<path style="fill-rule:nonzero;fill:rgb(100%,100%,100%);fill-opacity:1;stroke-width:28.191782;stroke-linecap:butt;stroke-linejoin:miter;stroke:rgb(6.27451%,63.137257%,61.960787%);stroke-opacity:1;stroke-miterlimit:4;" d="M 81.5 25.0625 L 430.5 25.0625 C 461.6875 25.0625 486.9375 50.3125 486.9375 81.5 L 486.9375 430.5 C 486.9375 461.6875 461.6875 486.9375 430.5 486.9375 L 81.5 486.9375 C 50.3125 486.9375 25.0625 461.6875 25.0625 430.5 L 25.0625 81.5 C 25.0625 50.3125 50.3125 25.0625 81.5 25.0625 Z M 81.5 25.0625 " transform="matrix(0.0625,0,0,0.0625,0,0)"/>
<path style=" stroke:none;fill-rule:nonzero;fill:rgb(100%,16.470589%,16.470589%);fill-opacity:1;" d="M 15.792969 7.933594 C 15.792969 9.292969 14.691406 10.398438 13.332031 10.398438 C 11.972656 10.398438 10.871094 9.292969 10.871094 7.933594 C 10.871094 6.574219 11.972656 5.472656 13.332031 5.472656 C 14.691406 5.472656 15.792969 6.574219 15.792969 7.933594 Z M 15.792969 7.933594 "/>
<path style=" stroke:none;fill-rule:nonzero;fill:rgb(0%,50.196081%,0%);fill-opacity:1;" d="M 26.484375 17.269531 C 26.484375 18.632812 25.382812 19.734375 24.023438 19.734375 C 22.664062 19.734375 21.5625 18.632812 21.5625 17.269531 C 21.5625 15.910156 22.664062 14.808594 24.023438 14.808594 C 25.382812 14.808594 26.484375 15.910156 26.484375 17.269531 Z M 26.484375 17.269531 "/>
<path style=" stroke:none;fill-rule:nonzero;fill:rgb(0%,74.117649%,89.803922%);fill-opacity:1;" d="M 26.179688 7.996094 C 26.179688 9.355469 25.074219 10.457031 23.714844 10.457031 C 22.355469 10.457031 21.253906 9.355469 21.253906 7.996094 C 21.253906 6.636719 22.355469 5.535156 23.714844 5.535156 C 25.074219 5.535156 26.179688 6.636719 26.179688 7.996094 Z M 26.179688 7.996094 "/>
<path style=" stroke:none;fill-rule:nonzero;fill:rgb(100%,16.470589%,16.470589%);fill-opacity:1;" d="M 8.78125 6.355469 C 8.78125 7.714844 7.679688 8.816406 6.320312 8.816406 C 4.960938 8.816406 3.855469 7.714844 3.855469 6.355469 C 3.855469 4.996094 4.960938 3.894531 6.320312 3.894531 C 7.679688 3.894531 8.78125 4.996094 8.78125 6.355469 Z M 8.78125 6.355469 "/>
<path style=" stroke:none;fill-rule:nonzero;fill:rgb(0%,50.196081%,0%);fill-opacity:1;" d="M 12.9375 13.328125 C 12.9375 14.6875 11.835938 15.789062 10.476562 15.789062 C 9.117188 15.789062 8.015625 14.6875 8.015625 13.328125 C 8.015625 11.96875 9.117188 10.867188 10.476562 10.867188 C 11.835938 10.867188 12.9375 11.96875 12.9375 13.328125 Z M 12.9375 13.328125 "/>
<path style=" stroke:none;fill-rule:nonzero;fill:rgb(0%,74.117649%,89.803922%);fill-opacity:1;" d="M 21.273438 12.347656 C 21.273438 13.707031 20.171875 14.808594 18.8125 14.808594 C 17.453125 14.808594 16.347656 13.707031 16.347656 12.347656 C 16.347656 10.988281 17.453125 9.882812 18.8125 9.882812 C 20.171875 9.882812 21.273438 10.988281 21.273438 12.347656 Z M 21.273438 12.347656 "/>
<path style=" stroke:none;fill-rule:nonzero;fill:rgb(0%,74.117649%,89.803922%);fill-opacity:1;" d="M 14.320312 19.644531 C 14.320312 21.003906 13.214844 22.105469 11.855469 22.105469 C 10.496094 22.105469 9.394531 21.003906 9.394531 19.644531 C 9.394531 18.285156 10.496094 17.183594 11.855469 17.183594 C 13.214844 17.183594 14.320312 18.285156 14.320312 19.644531 Z M 14.320312 19.644531 "/>
<path style=" stroke:none;fill-rule:nonzero;fill:rgb(0%,74.117649%,89.803922%);fill-opacity:1;" d="M 8.847656 25.425781 C 8.847656 26.785156 7.746094 27.886719 6.386719 27.886719 C 5.027344 27.886719 3.925781 26.785156 3.925781 25.425781 C 3.925781 24.066406 5.027344 22.964844 6.386719 22.964844 C 7.746094 22.964844 8.847656 24.066406 8.847656 25.425781 Z M 8.847656 25.425781 "/>
<path style=" stroke:none;fill-rule:nonzero;fill:rgb(0%,74.117649%,89.803922%);fill-opacity:1;" d="M 19.722656 23.980469 C 19.722656 25.339844 18.621094 26.441406 17.261719 26.441406 C 15.902344 26.441406 14.800781 25.339844 14.800781 23.980469 C 14.800781 22.621094 15.902344 21.519531 17.261719 21.519531 C 18.621094 21.519531 19.722656 22.621094 19.722656 23.980469 Z M 19.722656 23.980469 "/>
<path style=" stroke:none;fill-rule:nonzero;fill:rgb(100%,16.470589%,16.470589%);fill-opacity:1;" d="M 27.332031 24.324219 C 27.332031 25.683594 26.230469 26.785156 24.871094 26.785156 C 23.511719 26.785156 22.410156 25.683594 22.410156 24.324219 C 22.410156 22.964844 23.511719 21.863281 24.871094 21.863281 C 26.230469 21.863281 27.332031 22.964844 27.332031 24.324219 Z M 27.332031 24.324219 "/>
</g>
</svg>
