
<svg xmlns="http://www.w3.org/2000/svg" xmlns:xlink="http://www.w3.org/1999/xlink" width="32px" height="32px" viewBox="0 0 32 32" version="1.1">
<g id="surface1">
<path style="fill-rule:nonzero;fill:rgb(83.137256%,0%,0%);fill-opacity:1;stroke-width:5.372775;stroke-linecap:butt;stroke-linejoin:miter;stroke:rgb(86.666667%,50.588238%,50.588238%);stroke-opacity:1;stroke-miterlimit:4;" d="M 14.742188 960.358276 L 81.257812 960.358276 C 87.199219 960.358276 92.003906 965.162964 92.003906 971.10437 L 92.003906 1037.619995 C 92.003906 1043.561401 87.199219 1048.366089 81.257812 1048.366089 L 14.742188 1048.366089 C 8.800781 1048.366089 3.996094 1043.561401 3.996094 1037.619995 L 3.996094 971.10437 C 3.996094 965.162964 8.800781 960.358276 14.742188 960.358276 Z M 14.742188 960.358276 " transform="matrix(0.333333,0,0,0.333333,0,-318.787394)"/>
<path style=" stroke:none;fill-rule:nonzero;fill:rgb(78.431374%,71.764708%,71.764708%);fill-opacity:1;" d="M 18.558594 25.101562 C 20.585938 23.726562 22.242188 22.121094 22.851562 20.941406 C 23.363281 19.957031 23.363281 19.957031 21.339844 20.496094 C 20.503906 20.714844 19.730469 20.84375 19.621094 20.777344 C 19.394531 18.21875 19.167969 15.152344 17.519531 13.128906 C 16.457031 11.890625 15.742188 11.527344 16.253906 12.488281 C 16.636719 13.203125 16.621094 13.347656 16.152344 13.347656 C 13.894531 11.625 12.621094 7.730469 13.148438 5.378906 C 13.324219 4.621094 13.390625 3.925781 13.292969 3.832031 C 11.121094 5.078125 10.660156 7.769531 10.652344 9.941406 C 10.652344 11.203125 10.539062 11.941406 10.34375 11.941406 C 10.175781 11.941406 9.972656 11.691406 9.890625 11.382812 C 9.609375 10.304688 9.171875 10.789062 9.359375 11.96875 C 9.582031 13.355469 10.15625 14.433594 12.34375 17.558594 C 14.359375 20.441406 14.476562 21.035156 12.964844 20.761719 C 12.386719 20.65625 11.566406 20.394531 11.144531 20.179688 C 9.699219 19.449219 10.46875 21.242188 12.382812 23.066406 C 13.394531 24.027344 16.457031 26.257812 16.769531 26.257812 C 16.816406 26.257812 17.621094 25.738281 18.558594 25.101562 Z M 18.558594 25.101562 "/>
</g>
</svg>
