
<svg xmlns="http://www.w3.org/2000/svg" xmlns:xlink="http://www.w3.org/1999/xlink" width="32px" height="32px" viewBox="0 0 32 32" version="1.1">
<g id="surface1">
<path style="fill-rule:nonzero;fill:rgb(83.137256%,0%,0%);fill-opacity:1;stroke-width:27.195292;stroke-linecap:butt;stroke-linejoin:miter;stroke:rgb(86.666667%,50.588238%,50.588238%);stroke-opacity:1;stroke-miterlimit:4;" d="M 87.6875 573.612183 L 424.3125 573.612183 C 454.375 573.612183 478.75 597.987183 478.75 628.049683 L 478.75 964.674683 C 478.75 994.737183 454.375 1019.112183 424.3125 1019.112183 L 87.6875 1019.112183 C 57.625 1019.112183 33.25 994.737183 33.25 964.674683 L 33.25 628.049683 C 33.25 597.987183 57.625 573.612183 87.6875 573.612183 Z M 87.6875 573.612183 " transform="matrix(0.0625,0,0,0.0625,0,-33.772636)"/>
<path style=" stroke:none;fill-rule:nonzero;fill:rgb(100%,100%,100%);fill-opacity:1;" d="M 23.589844 6.519531 L 23.589844 10.335938 C 19.777344 10.402344 18.84375 14.121094 18.84375 14.121094 L 21.71875 14.121094 L 21.71875 17.9375 L 17.261719 17.9375 C 14.578125 26.207031 8.410156 25.472656 8.410156 25.472656 L 8.410156 21.652344 C 8.410156 21.652344 12.324219 22.378906 14.320312 15.089844 C 16.816406 5.972656 23.589844 6.519531 23.589844 6.519531 Z M 23.589844 6.519531 "/>
</g>
</svg>
