
<svg xmlns="http://www.w3.org/2000/svg" xmlns:xlink="http://www.w3.org/1999/xlink" width="32px" height="32px" viewBox="0 0 32 32" version="1.1">
<g id="surface1">
<path style="fill-rule:nonzero;fill:rgb(90.196079%,88.627452%,87.450981%);fill-opacity:1;stroke-width:27.341103;stroke-linecap:butt;stroke-linejoin:miter;stroke:rgb(50.588238%,72.549021%,86.666667%);stroke-opacity:1;stroke-miterlimit:4;" d="M 86.75 32.0625 L 425.25 32.0625 C 455.4375 32.0625 479.9375 56.5625 479.9375 86.75 L 479.9375 425.25 C 479.9375 455.4375 455.4375 479.9375 425.25 479.9375 L 86.75 479.9375 C 56.5625 479.9375 32.0625 455.4375 32.0625 425.25 L 32.0625 86.75 C 32.0625 56.5625 56.5625 32.0625 86.75 32.0625 Z M 86.75 32.0625 " transform="matrix(0.0625,0,0,0.0625,0,0)"/>
<path style=" stroke:none;fill-rule:nonzero;fill:rgb(83.137256%,0%,33.333334%);fill-opacity:1;" d="M 25.492188 16 C 25.492188 18.546875 23.425781 20.609375 20.878906 20.609375 C 18.335938 20.609375 16.269531 18.546875 16.269531 16 C 16.269531 13.453125 18.335938 11.390625 20.878906 11.390625 C 23.425781 11.390625 25.492188 13.453125 25.492188 16 Z M 25.492188 16 "/>
<path style=" stroke:none;fill-rule:nonzero;fill:rgb(0%,40.000001%,100%);fill-opacity:1;" d="M 15.730469 16 C 15.730469 18.546875 13.664062 20.609375 11.121094 20.609375 C 8.574219 20.609375 6.507812 18.546875 6.507812 16 C 6.507812 13.453125 8.574219 11.390625 11.121094 11.390625 C 13.664062 11.390625 15.730469 13.453125 15.730469 16 Z M 15.730469 16 "/>
</g>
</svg>
