
<svg xmlns="http://www.w3.org/2000/svg" xmlns:xlink="http://www.w3.org/1999/xlink" width="32px" height="32px" viewBox="0 0 32 32" version="1.1">
<g id="surface1">
<path style="fill-rule:nonzero;fill:rgb(100%,100%,100%);fill-opacity:1;stroke-width:2.590806;stroke-linecap:butt;stroke-linejoin:miter;stroke:rgb(52.549022%,62.352943%,79.607844%);stroke-opacity:1;stroke-miterlimit:4;" d="M 7.962891 1007.145386 L 40.037109 1007.145386 C 42.896484 1007.145386 45.216797 1009.465698 45.216797 1012.325073 L 45.216797 1044.399292 C 45.216797 1047.258667 42.896484 1049.578979 40.037109 1049.578979 L 7.962891 1049.578979 C 5.103516 1049.578979 2.783203 1047.258667 2.783203 1044.399292 L 2.783203 1012.325073 C 2.783203 1009.465698 5.103516 1007.145386 7.962891 1007.145386 Z M 7.962891 1007.145386 " transform="matrix(0.666667,0,0,0.666667,0,-669.574788)"/>
<path style=" stroke:none;fill-rule:nonzero;fill:rgb(100%,80.784315%,48.235294%);fill-opacity:1;" d="M 16 3.164062 C 8.910156 3.164062 3.164062 8.910156 3.164062 16 C 3.164062 23.089844 8.910156 28.835938 16 28.835938 C 23.089844 28.835938 28.835938 23.089844 28.835938 16 C 28.835938 8.910156 23.089844 3.164062 16 3.164062 Z M 16 3.164062 "/>
<path style=" stroke:none;fill-rule:nonzero;fill:rgb(100%,62.352943%,18.82353%);fill-opacity:1;" d="M 27.972656 17.925781 C 27.972656 21.207031 25.3125 23.863281 22.035156 23.863281 C 18.753906 23.863281 16.097656 21.207031 16.097656 17.925781 C 16.097656 14.644531 18.753906 11.988281 22.035156 11.988281 C 25.3125 11.988281 27.972656 14.644531 27.972656 17.925781 Z M 27.972656 17.925781 "/>
<path style=" stroke:none;fill-rule:nonzero;fill:rgb(52.549022%,62.352943%,79.607844%);fill-opacity:1;" d="M 11.667969 13.410156 C 8.175781 13.410156 5.378906 14.855469 3.191406 16.792969 C 3.609375 23.558594 9.21875 28.835938 16 28.835938 C 20.964844 28.832031 25.476562 25.964844 27.59375 21.476562 C 21.175781 15.558594 15.910156 13.410156 11.667969 13.410156 Z M 11.667969 13.410156 "/>
</g>
</svg>
