
<svg xmlns="http://www.w3.org/2000/svg" xmlns:xlink="http://www.w3.org/1999/xlink" width="32px" height="32px" viewBox="0 0 32 32" version="1.1">
<g id="surface1">
<path style=" stroke:none;fill-rule:nonzero;fill:rgb(80.000001%,80.000001%,80.000001%);fill-opacity:1;" d="M 19.324219 2.855469 C 17.921875 2.855469 16.769531 4.144531 16.539062 5.84375 L 27.636719 5.84375 C 27.40625 4.144531 26.253906 2.855469 24.847656 2.855469 Z M 19.324219 2.855469 "/>
<path style=" stroke:none;fill-rule:nonzero;fill:rgb(14.509805%,68.235296%,87.450981%);fill-opacity:1;" d="M 4.273438 6.324219 L 27.726562 6.324219 C 29.582031 6.324219 31.082031 7.828125 31.082031 9.683594 L 31.082031 21.464844 C 31.082031 23.320312 29.582031 24.824219 27.726562 24.824219 L 4.273438 24.824219 C 2.417969 24.824219 0.917969 23.320312 0.917969 21.464844 L 0.917969 9.683594 C 0.917969 7.828125 2.417969 6.324219 4.273438 6.324219 Z M 4.273438 6.324219 "/>
<path style=" stroke:none;fill-rule:nonzero;fill:rgb(14.509805%,68.235296%,87.450981%);fill-opacity:1;" d="M 4.273438 10.640625 L 27.726562 10.640625 C 29.582031 10.640625 31.082031 12.144531 31.082031 14 L 31.082031 25.785156 C 31.082031 27.636719 29.582031 29.144531 27.726562 29.144531 L 4.273438 29.144531 C 2.417969 29.144531 0.917969 27.636719 0.917969 25.785156 L 0.917969 14 C 0.917969 12.144531 2.417969 10.640625 4.273438 10.640625 Z M 4.273438 10.640625 "/>
<path style="fill-rule:nonzero;fill:rgb(100%,100%,100%);fill-opacity:1;stroke-width:11.742473;stroke-linecap:butt;stroke-linejoin:miter;stroke:rgb(100%,100%,100%);stroke-opacity:1;stroke-miterlimit:4;" d="M 189.3125 191.5625 L 189.3125 206.5 L 286.8125 206.5 L 330.125 259.3125 L 330.125 363.1875 L 316.5625 363.1875 L 316.5625 376 L 342.9375 376 L 342.3125 256.25 L 342.3125 253.125 L 291.9375 191.5625 Z M 189.5 216.25 L 189.5 246.0625 L 201.75 246.0625 L 201.75 216.25 Z M 189.5 275.9375 L 189.5 305.8125 L 201.75 305.8125 L 201.75 275.9375 Z M 189.5 338.1875 L 189.5 363.1875 L 169.0625 363.1875 L 169.0625 375.9375 L 189.5 375.9375 L 189.5 398.5625 L 201.6875 398.5625 L 201.6875 375.9375 L 222.1875 375.9375 L 222.1875 363.1875 L 201.6875 363.1875 L 201.6875 338.1875 Z M 248.8125 363.1875 L 248.8125 376 L 283.8125 376 L 283.8125 363.1875 Z M 248.8125 363.1875 " transform="matrix(0.0625,0,0,0.0625,0,0)"/>
</g>
</svg>
