
<svg xmlns="http://www.w3.org/2000/svg" xmlns:xlink="http://www.w3.org/1999/xlink" width="32px" height="32px" viewBox="0 0 32 32" version="1.1">
<g id="surface1">
<path style=" stroke:none;fill-rule:nonzero;fill:rgb(80.000001%,80.000001%,80.000001%);fill-opacity:1;" d="M 19.324219 2.855469 C 17.921875 2.855469 16.769531 4.144531 16.539062 5.84375 L 27.636719 5.84375 C 27.40625 4.144531 26.253906 2.855469 24.847656 2.855469 Z M 19.324219 2.855469 "/>
<path style=" stroke:none;fill-rule:nonzero;fill:rgb(14.509805%,68.235296%,87.450981%);fill-opacity:1;" d="M 4.273438 6.324219 L 27.726562 6.324219 C 29.582031 6.324219 31.082031 7.828125 31.082031 9.683594 L 31.082031 21.464844 C 31.082031 23.320312 29.582031 24.824219 27.726562 24.824219 L 4.273438 24.824219 C 2.417969 24.824219 0.917969 23.320312 0.917969 21.464844 L 0.917969 9.683594 C 0.917969 7.828125 2.417969 6.324219 4.273438 6.324219 Z M 4.273438 6.324219 "/>
<path style=" stroke:none;fill-rule:nonzero;fill:rgb(14.509805%,68.235296%,87.450981%);fill-opacity:1;" d="M 4.273438 10.640625 L 27.726562 10.640625 C 29.582031 10.640625 31.082031 12.144531 31.082031 14 L 31.082031 25.785156 C 31.082031 27.636719 29.582031 29.144531 27.726562 29.144531 L 4.273438 29.144531 C 2.417969 29.144531 0.917969 27.636719 0.917969 25.785156 L 0.917969 14 C 0.917969 12.144531 2.417969 10.640625 4.273438 10.640625 Z M 4.273438 10.640625 "/>
<path style="fill-rule:nonzero;fill:rgb(100%,100%,100%);fill-opacity:1;stroke-width:11.742473;stroke-linecap:butt;stroke-linejoin:miter;stroke:rgb(100%,100%,100%);stroke-opacity:1;stroke-miterlimit:4;" d="M 189.312501 191.562501 L 189.312501 206.500001 L 286.812501 206.500001 L 330.125001 259.312501 L 330.125001 363.187501 L 316.562501 363.187501 L 316.562501 376.000001 L 342.937501 376.000001 L 342.312501 256.250001 L 342.312501 253.125001 L 291.937501 191.562501 Z M 189.500001 216.250001 L 189.500001 246.062501 L 201.750001 246.062501 L 201.750001 216.250001 Z M 189.500001 275.937501 L 189.500001 305.812501 L 201.750001 305.812501 L 201.750001 275.937501 Z M 189.500001 338.187501 L 189.500001 363.187501 L 169.062501 363.187501 L 169.062501 375.937501 L 189.500001 375.937501 L 189.500001 398.562501 L 201.687501 398.562501 L 201.687501 375.937501 L 222.187501 375.937501 L 222.187501 363.187501 L 201.687501 363.187501 L 201.687501 338.187501 Z M 248.812501 363.187501 L 248.812501 376.000001 L 283.812501 376.000001 L 283.812501 363.187501 Z M 248.812501 363.187501 " transform="matrix(0.0625,0,0,0.0625,-0.0000000628219,-0.0000000570761)"/>
</g>
</svg>
