
<svg xmlns="http://www.w3.org/2000/svg" xmlns:xlink="http://www.w3.org/1999/xlink" width="32px" height="32px" viewBox="0 0 32 32" version="1.1">
<g id="surface1">
<path style=" stroke:none;fill-rule:nonzero;fill:rgb(80.000001%,80.000001%,80.000001%);fill-opacity:1;" d="M 19.222656 3.289062 C 17.863281 3.289062 16.746094 4.535156 16.519531 6.179688 L 27.273438 6.179688 C 27.050781 4.535156 25.933594 3.289062 24.574219 3.289062 Z M 19.222656 3.289062 "/>
<path style=" stroke:none;fill-rule:nonzero;fill:rgb(100%,33.333334%,33.333334%);fill-opacity:1;" d="M 4.636719 6.640625 L 27.363281 6.640625 C 29.160156 6.640625 30.617188 8.097656 30.617188 9.890625 L 30.617188 21.285156 C 30.617188 23.082031 29.160156 24.535156 27.363281 24.535156 L 4.636719 24.535156 C 2.839844 24.535156 1.382812 23.082031 1.382812 21.285156 L 1.382812 9.890625 C 1.382812 8.097656 2.839844 6.640625 4.636719 6.640625 Z M 4.636719 6.640625 "/>
<path style=" stroke:none;fill-rule:nonzero;fill:rgb(100%,33.333334%,33.333334%);fill-opacity:1;" d="M 4.636719 10.816406 L 27.363281 10.816406 C 29.160156 10.816406 30.617188 12.269531 30.617188 14.066406 L 30.617188 25.460938 C 30.617188 27.253906 29.160156 28.710938 27.363281 28.710938 L 4.636719 28.710938 C 2.839844 28.710938 1.382812 27.253906 1.382812 25.460938 L 1.382812 14.066406 C 1.382812 12.269531 2.839844 10.816406 4.636719 10.816406 Z M 4.636719 10.816406 "/>
<path style=" stroke:none;fill-rule:nonzero;fill:rgb(100%,100%,100%);fill-opacity:1;" d="M 19.367188 24.714844 C 17.316406 24.308594 15.464844 23.9375 15.257812 23.894531 L 14.878906 23.816406 L 14.878906 17.988281 L 17.304688 18.007812 C 18.636719 18.019531 20.539062 18.046875 21.527344 18.066406 L 23.328125 18.109375 L 23.328125 21.789062 C 23.328125 25.253906 23.320312 25.472656 23.214844 25.464844 C 23.148438 25.460938 21.417969 25.125 19.367188 24.714844 Z M 11.246094 23.101562 L 8.707031 22.605469 L 8.671875 17.917969 L 11.230469 17.949219 C 12.636719 17.964844 13.796875 17.984375 13.808594 17.992188 C 13.816406 18 13.816406 19.265625 13.808594 20.800781 L 13.789062 23.597656 Z M 8.675781 14.699219 C 8.675781 13.414062 8.683594 12.363281 8.691406 12.363281 C 8.703125 12.363281 9.824219 12.136719 11.183594 11.867188 C 12.542969 11.597656 13.691406 11.371094 13.738281 11.371094 C 13.804688 11.371094 13.824219 11.933594 13.824219 14.164062 L 13.824219 16.953125 L 12.488281 16.996094 C 11.75 17.019531 10.589844 17.039062 9.910156 17.039062 L 8.675781 17.039062 Z M 14.878906 14.066406 L 14.878906 11.136719 L 18.988281 10.328125 C 21.246094 9.882812 23.148438 9.503906 23.214844 9.488281 C 23.320312 9.457031 23.328125 9.664062 23.328125 13.179688 L 23.328125 16.90625 L 21.09375 16.90625 C 19.867188 16.90625 17.964844 16.925781 16.871094 16.949219 L 14.878906 16.996094 Z M 14.878906 14.066406 "/>
</g>
</svg>
