
<svg xmlns="http://www.w3.org/2000/svg" xmlns:xlink="http://www.w3.org/1999/xlink" width="32px" height="32px" viewBox="0 0 32 32" version="1.1">
<g id="surface1">
<path style="fill-rule:nonzero;fill:rgb(17.254902%,24.313726%,31.37255%);fill-opacity:1;stroke-width:2.611024;stroke-linecap:butt;stroke-linejoin:miter;stroke:rgb(29.019609%,68.235296%,90.980393%);stroke-opacity:1;stroke-miterlimit:4;" d="M 392.405426 502.411285 L 424.737457 502.411285 C 427.62027 502.411285 429.95816 504.749176 429.95816 507.631989 L 429.95816 539.96402 C 429.95816 542.846832 427.62027 545.184723 424.737457 545.184723 L 392.405426 545.184723 C 389.522614 545.184723 387.184723 542.846832 387.184723 539.96402 L 387.184723 507.631989 C 387.184723 504.749176 389.522614 502.411285 392.405426 502.411285 Z M 392.405426 502.411285 " transform="matrix(0.666667,0,0,0.666667,-256.380961,-333.198669)"/>
<path style=" stroke:none;fill-rule:nonzero;fill:rgb(11.764706%,12.54902%,13.333334%);fill-opacity:0.313725;" d="M 24.605469 18.757812 C 24.597656 18.824219 24.597656 18.894531 24.585938 18.957031 C 24.597656 18.945312 24.613281 18.933594 24.625 18.921875 C 24.621094 18.867188 24.613281 18.8125 24.605469 18.757812 Z M 24.605469 18.757812 "/>
<path style=" stroke:none;fill-rule:nonzero;fill:rgb(92.54902%,94.117647%,94.509804%);fill-opacity:1;" d="M 15.769531 7.078125 C 15.253906 7.078125 14.757812 7.15625 14.277344 7.300781 C 13.800781 7.449219 13.378906 7.675781 13.011719 7.992188 C 12.640625 8.300781 12.332031 8.703125 12.109375 9.203125 C 11.894531 9.695312 11.785156 10.300781 11.785156 11.003906 L 11.785156 11.582031 L 10.421875 11.582031 C 10.167969 11.582031 9.976562 11.636719 9.859375 11.738281 C 9.746094 11.832031 9.703125 12.007812 9.703125 12.269531 L 9.703125 12.664062 L 11.785156 12.664062 L 11.816406 20.742188 C 11.816406 21.070312 11.796875 21.410156 11.785156 21.753906 C 11.78125 22.101562 11.746094 22.417969 11.6875 22.699219 C 11.628906 22.988281 11.542969 23.222656 11.40625 23.402344 C 11.269531 23.589844 11.074219 23.683594 10.832031 23.683594 C 10.6875 23.683594 10.523438 23.660156 10.335938 23.613281 C 10.15625 23.566406 9.964844 23.507812 9.761719 23.429688 C 9.554688 23.355469 9.335938 23.269531 9.113281 23.175781 C 8.890625 23.082031 8.667969 22.988281 8.449219 22.894531 L 7.875 24.230469 C 7.863281 24.261719 7.851562 24.277344 7.847656 24.300781 C 7.839844 24.324219 7.847656 24.359375 7.847656 24.386719 C 7.847656 24.503906 7.910156 24.597656 8.042969 24.667969 C 8.175781 24.738281 8.332031 24.789062 8.519531 24.824219 C 8.703125 24.859375 8.890625 24.882812 9.082031 24.894531 C 9.277344 24.90625 9.445312 24.921875 9.5625 24.921875 C 10.097656 24.921875 10.613281 24.824219 11.125 24.652344 C 11.636719 24.488281 12.089844 24.238281 12.488281 23.894531 C 12.894531 23.554688 13.207031 23.128906 13.449219 22.597656 C 13.691406 22.074219 13.828125 21.441406 13.828125 20.730469 L 13.828125 12.664062 L 15.628906 12.664062 C 16.511719 12.664062 17.394531 12.664062 18.273438 12.664062 L 18.289062 20.742188 C 18.289062 21.070312 18.285156 21.410156 18.273438 21.753906 C 18.269531 22.101562 18.234375 22.417969 18.175781 22.699219 C 18.117188 22.988281 18.015625 23.222656 17.878906 23.402344 C 17.746094 23.589844 17.550781 23.683594 17.300781 23.683594 C 17.160156 23.683594 16.996094 23.660156 16.808594 23.613281 C 16.628906 23.566406 16.4375 23.507812 16.234375 23.429688 C 16.027344 23.355469 15.824219 23.269531 15.601562 23.175781 C 15.378906 23.082031 15.15625 22.988281 14.9375 22.894531 L 14.347656 24.230469 C 14.335938 24.261719 14.339844 24.277344 14.332031 24.300781 C 14.328125 24.324219 14.320312 24.359375 14.320312 24.386719 C 14.320312 24.503906 14.382812 24.597656 14.515625 24.667969 C 14.652344 24.738281 14.820312 24.789062 15.011719 24.824219 C 15.191406 24.859375 15.378906 24.882812 15.574219 24.894531 C 15.765625 24.90625 15.917969 24.921875 16.035156 24.921875 C 16.570312 24.921875 17.089844 24.824219 17.597656 24.652344 C 18.109375 24.488281 18.566406 24.238281 18.964844 23.894531 C 19.367188 23.554688 19.695312 23.128906 19.933594 22.597656 C 20.179688 22.074219 20.300781 21.441406 20.300781 20.730469 L 20.300781 12.664062 L 22.101562 12.664062 C 22.355469 12.664062 22.539062 12.609375 22.652344 12.511719 C 22.769531 12.402344 22.820312 12.222656 22.820312 11.960938 L 22.820312 11.582031 L 20.300781 11.582031 L 20.300781 10.398438 C 20.300781 10.050781 20.300781 9.738281 20.316406 9.472656 C 20.332031 9.195312 20.371094 8.96875 20.425781 8.78125 C 20.488281 8.59375 20.570312 8.445312 20.679688 8.34375 C 20.796875 8.246094 20.960938 8.191406 21.160156 8.191406 C 21.304688 8.191406 21.46875 8.230469 21.636719 8.289062 C 21.8125 8.347656 22 8.417969 22.1875 8.511719 C 22.375 8.601562 22.574219 8.707031 22.777344 8.824219 C 22.980469 8.941406 23.1875 9.058594 23.410156 9.175781 L 24.058594 7.992188 C 24.089844 7.945312 24.117188 7.902344 24.128906 7.867188 C 24.144531 7.832031 24.15625 7.800781 24.15625 7.753906 C 24.15625 7.601562 24.074219 7.476562 23.917969 7.386719 C 23.765625 7.292969 23.582031 7.230469 23.367188 7.191406 C 23.15625 7.144531 22.9375 7.105469 22.722656 7.089844 C 22.511719 7.082031 22.355469 7.078125 22.242188 7.078125 C 21.726562 7.078125 21.230469 7.15625 20.75 7.300781 C 20.277344 7.449219 19.855469 7.675781 19.484375 7.992188 C 19.113281 8.300781 18.820312 8.703125 18.597656 9.203125 C 18.378906 9.695312 18.273438 10.300781 18.273438 11.003906 L 18.273438 11.582031 C 17.628906 11.582031 16.988281 11.582031 16.347656 11.582031 L 13.828125 11.582031 L 13.828125 10.398438 C 13.828125 10.050781 13.828125 9.738281 13.839844 9.472656 C 13.859375 9.195312 13.894531 8.96875 13.953125 8.78125 C 14.011719 8.59375 14.097656 8.445312 14.207031 8.34375 C 14.324219 8.246094 14.488281 8.191406 14.683594 8.191406 C 14.832031 8.191406 14.996094 8.230469 15.164062 8.289062 C 15.339844 8.347656 15.511719 8.417969 15.699219 8.511719 C 15.886719 8.601562 16.082031 8.707031 16.289062 8.824219 C 16.496094 8.941406 16.714844 9.058594 16.9375 9.175781 L 17.582031 7.992188 C 17.613281 7.945312 17.644531 7.902344 17.652344 7.867188 C 17.671875 7.832031 17.667969 7.800781 17.667969 7.753906 C 17.667969 7.601562 17.601562 7.476562 17.441406 7.386719 C 17.292969 7.292969 17.105469 7.230469 16.894531 7.191406 C 16.683594 7.144531 16.464844 7.105469 16.246094 7.089844 C 16.035156 7.082031 15.878906 7.078125 15.769531 7.078125 Z M 15.769531 7.078125 "/>
</g>
</svg>
