
<svg xmlns="http://www.w3.org/2000/svg" xmlns:xlink="http://www.w3.org/1999/xlink" width="32px" height="32px" viewBox="0 0 32 32" version="1.1">
<g id="surface1">
<path style=" stroke:none;fill-rule:nonzero;fill:rgb(13.333334%,21.176471%,33.725491%);fill-opacity:1;" d="M 5.332031 1.9375 L 26.667969 1.9375 C 28.542969 1.9375 30.0625 3.796875 30.0625 6.09375 L 30.0625 25.90625 C 30.0625 28.203125 28.542969 30.0625 26.667969 30.0625 L 5.332031 30.0625 C 3.457031 30.0625 1.9375 28.203125 1.9375 25.90625 L 1.9375 6.09375 C 1.9375 3.796875 3.457031 1.9375 5.332031 1.9375 Z M 5.332031 1.9375 "/>
<path style=" stroke:none;fill-rule:nonzero;fill:rgb(100%,100%,100%);fill-opacity:1;" d="M 17.359375 21.144531 L 13.042969 10.652344 L 11.859375 10.652344 L 7.515625 21.144531 L 9.003906 21.144531 L 10.34375 17.695312 L 14.488281 17.695312 L 15.855469 21.144531 Z M 13.964844 16.527344 L 10.847656 16.527344 L 12.449219 12.226562 Z M 13.964844 16.527344 "/>
<path style=" stroke:none;fill-rule:nonzero;fill:rgb(100%,100%,100%);fill-opacity:1;" d="M 20.5 21.347656 C 21.425781 21.347656 22.261719 21.015625 22.996094 20.378906 L 23.214844 21.347656 L 24.484375 21.074219 C 24.28125 20.351562 24.179688 19.714844 24.179688 19.167969 L 24.179688 16.714844 C 24.179688 14.605469 23.171875 13.554688 21.105469 13.554688 C 20.226562 13.554688 19.289062 13.699219 18.308594 13.988281 L 18.449219 15.214844 C 19.390625 14.851562 20.253906 14.679688 21.035156 14.679688 C 22.089844 14.679688 22.679688 15.230469 22.824219 16.308594 C 19.535156 16.355469 17.886719 17.292969 17.886719 19.125 C 17.886719 20.511719 19.058594 21.347656 20.5 21.347656 Z M 22.824219 18.808594 C 22.824219 19.601562 21.453125 20.148438 20.558594 20.148438 C 19.707031 20.148438 19.273438 19.761719 19.273438 18.996094 C 19.273438 18.042969 20.472656 17.535156 22.824219 17.496094 Z M 22.824219 18.808594 "/>
</g>
</svg>
