
<svg xmlns="http://www.w3.org/2000/svg" xmlns:xlink="http://www.w3.org/1999/xlink" width="32px" height="32px" viewBox="0 0 32 32" version="1.1">
<g id="surface1">
<path style=" stroke:none;fill-rule:nonzero;fill:rgb(86.274511%,19.607843%,18.431373%);fill-opacity:1;" d="M 8.929688 25.898438 L 6.101562 23.070312 L 23.070312 6.101562 L 25.898438 8.929688 Z M 8.929688 25.898438 "/>
<path style=" stroke:none;fill-rule:evenodd;fill:rgb(86.274511%,19.607843%,18.431373%);fill-opacity:1;" d="M 6.574219 25.425781 C 11.777344 30.636719 20.222656 30.636719 25.425781 25.425781 C 30.636719 20.222656 30.636719 11.777344 25.425781 6.574219 C 20.222656 1.363281 11.777344 1.363281 6.574219 6.574219 C 1.363281 11.777344 1.363281 20.222656 6.574219 25.425781 Z M 9.402344 22.597656 C 5.753906 18.957031 5.753906 13.042969 9.402344 9.402344 C 13.042969 5.753906 18.957031 5.753906 22.597656 9.402344 C 26.246094 13.042969 26.246094 18.957031 22.597656 22.597656 C 18.957031 26.246094 13.042969 26.246094 9.402344 22.597656 Z M 9.402344 22.597656 "/>
</g>
</svg>
