
<svg xmlns="http://www.w3.org/2000/svg" xmlns:xlink="http://www.w3.org/1999/xlink" width="32px" height="32px" viewBox="0 0 32 32" version="1.1">
<g id="surface1">
<path style="fill-rule:nonzero;fill:rgb(100%,100%,100%);fill-opacity:1;stroke-width:28.191782;stroke-linecap:butt;stroke-linejoin:miter;stroke:rgb(6.27451%,63.137257%,61.960787%);stroke-opacity:1;stroke-miterlimit:4;" d="M 81.5 25.0625 L 430.5 25.0625 C 461.6875 25.0625 486.9375 50.3125 486.9375 81.5 L 486.9375 430.5 C 486.9375 461.6875 461.6875 486.9375 430.5 486.9375 L 81.5 486.9375 C 50.3125 486.9375 25.0625 461.6875 25.0625 430.5 L 25.0625 81.5 C 25.0625 50.3125 50.3125 25.0625 81.5 25.0625 Z M 81.5 25.0625 " transform="matrix(0.0625,0,0,0.0625,0,0)"/>
<path style=" stroke:none;fill-rule:nonzero;fill:rgb(100%,16.470589%,16.470589%);fill-opacity:1;" d="M 15.933594 18.53125 C 15.933594 20.09375 14.667969 21.359375 13.105469 21.359375 C 11.542969 21.359375 10.277344 20.09375 10.277344 18.53125 C 10.277344 16.972656 11.542969 15.707031 13.105469 15.707031 C 14.667969 15.707031 15.933594 16.972656 15.933594 18.53125 Z M 15.933594 18.53125 "/>
<path style=" stroke:none;fill-rule:nonzero;fill:rgb(0%,50.196081%,0%);fill-opacity:1;" d="M 15.941406 25.300781 C 15.941406 26.863281 14.675781 28.128906 13.113281 28.128906 C 11.554688 28.128906 10.285156 26.863281 10.285156 25.300781 C 10.285156 23.738281 11.554688 22.472656 13.113281 22.472656 C 14.675781 22.472656 15.941406 23.738281 15.941406 25.300781 Z M 15.941406 25.300781 "/>
<path style=" stroke:none;fill-rule:nonzero;fill:rgb(100%,16.470589%,16.470589%);fill-opacity:1;" d="M 22.25 11.699219 C 22.25 13.261719 20.984375 14.527344 19.425781 14.527344 C 17.863281 14.527344 16.597656 13.261719 16.597656 11.699219 C 16.597656 10.136719 17.863281 8.871094 19.425781 8.871094 C 20.984375 8.871094 22.25 10.136719 22.25 11.699219 Z M 22.25 11.699219 "/>
<path style=" stroke:none;fill-rule:nonzero;fill:rgb(0%,50.196081%,0%);fill-opacity:1;" d="M 9.398438 18.625 C 9.398438 20.183594 8.132812 21.449219 6.570312 21.449219 C 5.011719 21.449219 3.746094 20.183594 3.746094 18.625 C 3.746094 17.0625 5.011719 15.796875 6.570312 15.796875 C 8.132812 15.796875 9.398438 17.0625 9.398438 18.625 Z M 9.398438 18.625 "/>
<path style=" stroke:none;fill-rule:nonzero;fill:rgb(100%,16.470589%,16.470589%);fill-opacity:1;" d="M 9.605469 25.433594 C 9.605469 26.996094 8.339844 28.261719 6.777344 28.261719 C 5.214844 28.261719 3.949219 26.996094 3.949219 25.433594 C 3.949219 23.871094 5.214844 22.605469 6.777344 22.605469 C 8.339844 22.605469 9.605469 23.871094 9.605469 25.433594 Z M 9.605469 25.433594 "/>
<path style=" stroke:none;fill-rule:nonzero;fill:rgb(0%,50.196081%,0%);fill-opacity:1;" d="M 22.644531 18.28125 C 22.644531 19.839844 21.378906 21.105469 19.816406 21.105469 C 18.253906 21.105469 16.988281 19.839844 16.988281 18.28125 C 16.988281 16.71875 18.253906 15.453125 19.816406 15.453125 C 21.378906 15.453125 22.644531 16.71875 22.644531 18.28125 Z M 22.644531 18.28125 "/>
<path style=" stroke:none;fill-rule:nonzero;fill:rgb(100%,16.470589%,16.470589%);fill-opacity:1;" d="M 22.261719 25.433594 C 22.261719 26.996094 20.996094 28.261719 19.433594 28.261719 C 17.871094 28.261719 16.605469 26.996094 16.605469 25.433594 C 16.605469 23.871094 17.871094 22.605469 19.433594 22.605469 C 20.996094 22.605469 22.261719 23.871094 22.261719 25.433594 Z M 22.261719 25.433594 "/>
<path style=" stroke:none;fill-rule:nonzero;fill:rgb(100%,16.470589%,16.470589%);fill-opacity:1;" d="M 28.152344 25.433594 C 28.152344 26.996094 26.886719 28.261719 25.324219 28.261719 C 23.765625 28.261719 22.5 26.996094 22.5 25.433594 C 22.5 23.871094 23.765625 22.605469 25.324219 22.605469 C 26.886719 22.605469 28.152344 23.871094 28.152344 25.433594 Z M 28.152344 25.433594 "/>
<path style=" stroke:none;fill-rule:nonzero;fill:rgb(0%,50.196081%,0%);fill-opacity:1;" d="M 28.882812 18.28125 C 28.882812 19.839844 27.617188 21.105469 26.054688 21.105469 C 24.492188 21.105469 23.226562 19.839844 23.226562 18.28125 C 23.226562 16.71875 24.492188 15.453125 26.054688 15.453125 C 27.617188 15.453125 28.882812 16.71875 28.882812 18.28125 Z M 28.882812 18.28125 "/>
<path style=" stroke:none;fill-rule:nonzero;fill:rgb(0%,50.196081%,0%);fill-opacity:1;" d="M 28.882812 12.316406 C 28.882812 13.875 27.617188 15.140625 26.054688 15.140625 C 24.492188 15.140625 23.226562 13.875 23.226562 12.316406 C 23.226562 10.753906 24.492188 9.488281 26.054688 9.488281 C 27.617188 9.488281 28.882812 10.753906 28.882812 12.316406 Z M 28.882812 12.316406 "/>
<path style=" stroke:none;fill-rule:nonzero;fill:rgb(100%,16.470589%,16.470589%);fill-opacity:1;" d="M 28.761719 5.867188 C 28.761719 7.429688 27.496094 8.695312 25.933594 8.695312 C 24.371094 8.695312 23.105469 7.429688 23.105469 5.867188 C 23.105469 4.308594 24.371094 3.042969 25.933594 3.042969 C 27.496094 3.042969 28.761719 4.308594 28.761719 5.867188 Z M 28.761719 5.867188 "/>
</g>
</svg>
