<!-- color: #474747 -->
<svg xmlns="http://www.w3.org/2000/svg" xmlns:xlink="http://www.w3.org/1999/xlink" width="32px" height="32px" viewBox="0 0 32 32" version="1.1">
<defs>
<clipPath id="clip1">
  <path d="M 10.875 11.0625 L 21.125 11.0625 L 21.125 27.625 L 10.875 27.625 Z M 10.875 11.0625 "/>
</clipPath>
<clipPath id="clip2">
  <path d="M 38.582031 16.441406 C 38.582031 30.617188 28.46875 42.097656 16.007812 42.097656 C 3.542969 42.097656 -6.570312 30.617188 -6.570312 16.441406 C -6.570312 2.261719 3.542969 -9.222656 16.007812 -9.222656 C 28.46875 -9.222656 38.582031 2.261719 38.582031 16.441406 Z M 38.582031 16.441406 "/>
</clipPath>
<clipPath id="clip3">
  <path d="M 10.875 14.4375 L 21.125 14.4375 L 21.125 19.5 L 10.875 19.5 Z M 10.875 14.4375 "/>
</clipPath>
<clipPath id="clip4">
  <path d="M 38.582031 16.441406 C 38.582031 30.617188 28.46875 42.097656 16.007812 42.097656 C 3.542969 42.097656 -6.570312 30.617188 -6.570312 16.441406 C -6.570312 2.261719 3.542969 -9.222656 16.007812 -9.222656 C 28.46875 -9.222656 38.582031 2.261719 38.582031 16.441406 Z M 38.582031 16.441406 "/>
</clipPath>
<clipPath id="clip5">
  <path d="M 11.75 22.0625 L 20.3125 22.0625 L 20.3125 25.25 L 11.75 25.25 Z M 11.75 22.0625 "/>
</clipPath>
<clipPath id="clip6">
  <path d="M 38.582031 16.441406 C 38.582031 30.617188 28.46875 42.097656 16.007812 42.097656 C 3.542969 42.097656 -6.570312 30.617188 -6.570312 16.441406 C -6.570312 2.261719 3.542969 -9.222656 16.007812 -9.222656 C 28.46875 -9.222656 38.582031 2.261719 38.582031 16.441406 Z M 38.582031 16.441406 "/>
</clipPath>
<clipPath id="clip7">
  <path d="M 11.25 18.1875 L 20.75 18.1875 L 20.75 22.375 L 11.25 22.375 Z M 11.25 18.1875 "/>
</clipPath>
<clipPath id="clip8">
  <path d="M 38.582031 16.441406 C 38.582031 30.617188 28.46875 42.097656 16.007812 42.097656 C 3.542969 42.097656 -6.570312 30.617188 -6.570312 16.441406 C -6.570312 2.261719 3.542969 -9.222656 16.007812 -9.222656 C 28.46875 -9.222656 38.582031 2.261719 38.582031 16.441406 Z M 38.582031 16.441406 "/>
</clipPath>
<clipPath id="clip9">
  <path d="M 11.5 5.25 L 20.5625 5.25 L 20.5625 13.332031 L 11.5 13.332031 Z M 11.5 5.25 "/>
</clipPath>
<clipPath id="clip10">
  <path d="M 38.582031 16.441406 C 38.582031 30.617188 28.46875 42.097656 16.007812 42.097656 C 3.542969 42.097656 -6.570312 30.617188 -6.570312 16.441406 C -6.570312 2.261719 3.542969 -9.222656 16.007812 -9.222656 C 28.46875 -9.222656 38.582031 2.261719 38.582031 16.441406 Z M 38.582031 16.441406 "/>
</clipPath>
<clipPath id="clip11">
  <path d="M 3.1875 7.8125 L 13.5625 7.8125 L 13.5625 18.667969 L 3.1875 18.667969 Z M 3.1875 7.8125 "/>
</clipPath>
<clipPath id="clip12">
  <path d="M 38.582031 16.441406 C 38.582031 30.617188 28.46875 42.097656 16.007812 42.097656 C 3.542969 42.097656 -6.570312 30.617188 -6.570312 16.441406 C -6.570312 2.261719 3.542969 -9.222656 16.007812 -9.222656 C 28.46875 -9.222656 38.582031 2.261719 38.582031 16.441406 Z M 38.582031 16.441406 "/>
</clipPath>
<clipPath id="clip13">
  <path d="M 4.9375 16.375 L 13.1875 16.375 L 13.1875 24.125 L 4.9375 24.125 Z M 4.9375 16.375 "/>
</clipPath>
<clipPath id="clip14">
  <path d="M 38.582031 16.441406 C 38.582031 30.617188 28.46875 42.097656 16.007812 42.097656 C 3.542969 42.097656 -6.570312 30.617188 -6.570312 16.441406 C -6.570312 2.261719 3.542969 -9.222656 16.007812 -9.222656 C 28.46875 -9.222656 38.582031 2.261719 38.582031 16.441406 Z M 38.582031 16.441406 "/>
</clipPath>
<clipPath id="clip15">
  <path d="M 18.4375 7.8125 L 28.8125 7.8125 L 28.8125 18.667969 L 18.4375 18.667969 Z M 18.4375 7.8125 "/>
</clipPath>
<clipPath id="clip16">
  <path d="M 38.582031 16.441406 C 38.582031 30.617188 28.46875 42.097656 16.007812 42.097656 C 3.542969 42.097656 -6.570312 30.617188 -6.570312 16.441406 C -6.570312 2.261719 3.542969 -9.222656 16.007812 -9.222656 C 28.46875 -9.222656 38.582031 2.261719 38.582031 16.441406 Z M 38.582031 16.441406 "/>
</clipPath>
<clipPath id="clip17">
  <path d="M 18.8125 16.375 L 27.0625 16.375 L 27.0625 24.125 L 18.8125 24.125 Z M 18.8125 16.375 "/>
</clipPath>
<clipPath id="clip18">
  <path d="M 38.582031 16.441406 C 38.582031 30.617188 28.46875 42.097656 16.007812 42.097656 C 3.542969 42.097656 -6.570312 30.617188 -6.570312 16.441406 C -6.570312 2.261719 3.542969 -9.222656 16.007812 -9.222656 C 28.46875 -9.222656 38.582031 2.261719 38.582031 16.441406 Z M 38.582031 16.441406 "/>
</clipPath>
</defs>
<g id="surface1">
<path style="fill-rule:nonzero;fill:rgb(100%,100%,100%);fill-opacity:1;stroke-width:7.117036;stroke-linecap:butt;stroke-linejoin:miter;stroke:rgb(92.54902%,89.019608%,20%);stroke-opacity:1;stroke-miterlimit:4;" d="M 19.9375 5.703125 L 108.0625 5.703125 C 115.921875 5.703125 122.296875 12.078125 122.296875 19.9375 L 122.296875 108.0625 C 122.296875 115.921875 115.921875 122.296875 108.0625 122.296875 L 19.9375 122.296875 C 12.078125 122.296875 5.703125 115.921875 5.703125 108.0625 L 5.703125 19.9375 C 5.703125 12.078125 12.078125 5.703125 19.9375 5.703125 Z M 19.9375 5.703125 " transform="matrix(0.25,0,0,0.25,0,0)"/>
<path style=" stroke:none;fill-rule:nonzero;fill:rgb(20%,20%,20%);fill-opacity:1;" d="M 21.003906 19.300781 C 21.003906 15.410156 18.804688 12.257812 16.09375 12.257812 C 13.382812 12.257812 11.183594 15.410156 11.183594 19.300781 C 11.183594 23.191406 13.382812 26.34375 16.09375 26.34375 C 18.804688 26.34375 21.003906 23.191406 21.003906 19.300781 Z M 21.003906 19.300781 "/>
<g clip-path="url(#clip1)" clip-rule="nonzero">
<g clip-path="url(#clip2)" clip-rule="nonzero">
<path style=" stroke:none;fill-rule:nonzero;fill:rgb(92.54902%,89.019608%,20%);fill-opacity:1;" d="M 16.007812 11.097656 C 14.285156 11.097656 12.972656 12.402344 12.167969 13.910156 C 11.367188 15.425781 10.90625 17.28125 10.90625 19.320312 C 10.90625 21.363281 11.367188 23.277344 12.167969 24.785156 C 12.972656 26.296875 14.285156 27.597656 16.007812 27.597656 C 17.730469 27.597656 19.089844 26.296875 19.890625 24.785156 C 20.691406 23.273438 21.105469 21.363281 21.105469 19.320312 C 21.105469 17.28125 20.691406 15.425781 19.890625 13.910156 C 19.089844 12.402344 17.730469 11.097656 16.007812 11.097656 M 16.007812 13.042969 C 18.175781 13.042969 19.941406 16.042969 19.941406 19.699219 C 19.941406 23.359375 18.179688 26.300781 16.007812 26.300781 C 13.835938 26.300781 12.070312 23.359375 12.070312 19.699219 C 12.070312 16.042969 13.832031 13.042969 16.007812 13.042969 M 16.007812 13.042969 "/>
</g>
</g>
<g clip-path="url(#clip3)" clip-rule="nonzero">
<g clip-path="url(#clip4)" clip-rule="nonzero">
<path style=" stroke:none;fill-rule:nonzero;fill:rgb(92.54902%,89.019608%,20%);fill-opacity:1;" d="M 16.027344 14.453125 C 13.964844 14.453125 12.144531 15.6875 11.027344 17.621094 C 10.964844 18.230469 10.9375 18.859375 10.925781 19.496094 C 12.03125 17.722656 13.890625 16.5625 16.027344 16.5625 C 18.136719 16.5625 19.996094 17.691406 21.089844 19.441406 C 21.082031 18.839844 21.042969 18.25 20.996094 17.679688 C 19.890625 15.738281 18.089844 14.453125 16.023438 14.453125 M 16.023438 14.453125 "/>
</g>
</g>
<g clip-path="url(#clip5)" clip-rule="nonzero">
<g clip-path="url(#clip6)" clip-rule="nonzero">
<path style=" stroke:none;fill-rule:nonzero;fill:rgb(92.54902%,89.019608%,20%);fill-opacity:1;" d="M 15.152344 22.128906 C 13.875 22.316406 12.726562 22.972656 11.769531 23.851562 C 11.886719 24.113281 11.980469 24.402344 12.121094 24.644531 C 12.242188 24.847656 12.394531 25.050781 12.539062 25.242188 C 13.554688 24.652344 14.722656 24.3125 15.984375 24.3125 C 17.246094 24.3125 18.417969 24.652344 19.433594 25.242188 C 19.578125 25.050781 19.738281 24.847656 19.851562 24.644531 C 19.996094 24.394531 20.152344 24.121094 20.273438 23.851562 C 19.105469 22.765625 17.621094 22.128906 15.996094 22.128906 C 15.707031 22.128906 15.449219 22.089844 15.164062 22.128906 M 15.160156 22.128906 "/>
</g>
</g>
<g clip-path="url(#clip7)" clip-rule="nonzero">
<g clip-path="url(#clip8)" clip-rule="nonzero">
<path style=" stroke:none;fill-rule:nonzero;fill:rgb(92.54902%,89.019608%,20%);fill-opacity:1;" d="M 15.988281 18.195312 C 14.042969 18.195312 12.601562 19.222656 11.296875 20.699219 C 11.371094 21.3125 11.191406 21.808594 11.363281 22.367188 C 12.625 21.292969 14.230469 20.644531 16 20.644531 C 17.761719 20.644531 19.375 21.292969 20.628906 22.367188 C 20.792969 21.808594 20.671875 21.316406 20.746094 20.699219 C 19.441406 19.210938 17.953125 18.195312 16 18.195312 M 15.988281 18.195312 "/>
</g>
</g>
<g clip-path="url(#clip9)" clip-rule="nonzero">
<g clip-path="url(#clip10)" clip-rule="nonzero">
<path style=" stroke:none;fill-rule:nonzero;fill:rgb(92.54902%,89.019608%,20%);fill-opacity:1;" d="M 16.027344 5.277344 C 13.542969 5.277344 11.511719 7.199219 11.511719 9.613281 C 11.511719 11.082031 12.277344 12.410156 13.433594 13.199219 C 13.671875 12.574219 14.65625 12.085938 15.878906 12.085938 C 17.1875 12.085938 18.265625 12.628906 18.394531 13.320312 C 19.660156 12.550781 20.503906 11.175781 20.503906 9.613281 C 20.503906 7.199219 18.507812 5.277344 16.027344 5.277344 M 13.175781 7.796875 C 13.597656 7.796875 13.917969 8.441406 13.917969 9.238281 C 13.917969 10.039062 13.59375 10.683594 13.175781 10.683594 C 12.753906 10.683594 12.398438 10.039062 12.398438 9.238281 C 12.398438 8.441406 12.753906 7.796875 13.175781 7.796875 M 18.839844 7.796875 C 19.257812 7.796875 19.613281 8.441406 19.613281 9.238281 C 19.613281 10.039062 19.257812 10.683594 18.839844 10.683594 C 18.417969 10.683594 18.097656 10.039062 18.097656 9.238281 C 18.097656 8.441406 18.417969 7.796875 18.839844 7.796875 M 18.839844 7.796875 "/>
</g>
</g>
<g clip-path="url(#clip11)" clip-rule="nonzero">
<g clip-path="url(#clip12)" clip-rule="nonzero">
<path style=" stroke:none;fill-rule:nonzero;fill:rgb(92.54902%,89.019608%,20%);fill-opacity:1;" d="M 6.445312 7.886719 C 7.964844 8.007812 10.269531 8.714844 12.882812 10.398438 C 13.128906 10.558594 13.320312 10.734375 13.550781 10.894531 C 13.296875 11.136719 13.085938 11.40625 12.882812 11.679688 C 12.734375 11.570312 12.597656 11.449219 12.4375 11.347656 C 10.878906 10.347656 9.296875 9.777344 7.996094 9.660156 C 6.699219 9.542969 5.6875 9.867188 5.261719 10.691406 C 4.410156 12.332031 6.628906 14.714844 9.738281 16.71875 C 9.949219 16.851562 10.332031 17.121094 10.539062 17.242188 C 10.511719 17.277344 9.90625 17.738281 9.886719 17.78125 C 9.675781 17.652344 9.472656 17.550781 9.253906 17.410156 C 6.636719 15.730469 4.894531 13.871094 4.042969 12.464844 C 3.183594 11.050781 3.035156 9.902344 3.484375 9.039062 C 3.929688 8.179688 4.921875 7.761719 6.449219 7.882812 M 11.378906 18.402344 C 11.398438 18.480469 11.398438 18.5625 11.410156 18.644531 C 11.390625 18.628906 11.363281 18.621094 11.339844 18.605469 C 11.363281 18.535156 11.363281 18.480469 11.371094 18.402344 M 11.378906 18.402344 "/>
</g>
</g>
<g clip-path="url(#clip13)" clip-rule="nonzero">
<g clip-path="url(#clip14)" clip-rule="nonzero">
<path style=" stroke:none;fill-rule:nonzero;fill:rgb(92.54902%,89.019608%,20%);fill-opacity:1;" d="M 11.707031 16.402344 C 11.660156 16.59375 11.578125 16.769531 11.542969 16.96875 C 11.53125 16.972656 11.546875 17.015625 11.53125 17.019531 C 8.214844 18.488281 6.214844 20.519531 6.96875 21.949219 C 7.601562 23.136719 9.933594 23.570312 12.832031 23.257812 C 12.882812 23.328125 12.882812 23.410156 12.933594 23.480469 C 13 23.574219 13.082031 23.667969 13.15625 23.765625 C 11.613281 24.023438 10.199219 24.132812 9.066406 24.074219 C 7.027344 23.972656 5.640625 23.46875 5.152344 22.550781 C 4.667969 21.628906 5.1875 20.480469 6.542969 19.308594 C 7.65625 18.347656 9.417969 17.292969 11.710938 16.40625 M 11.710938 16.402344 "/>
</g>
</g>
<g clip-path="url(#clip15)" clip-rule="nonzero">
<g clip-path="url(#clip16)" clip-rule="nonzero">
<path style=" stroke:none;fill-rule:nonzero;fill:rgb(92.54902%,89.019608%,20%);fill-opacity:1;" d="M 25.566406 7.886719 C 24.046875 8.007812 21.746094 8.714844 19.128906 10.398438 C 18.886719 10.558594 18.695312 10.734375 18.464844 10.894531 C 18.714844 11.136719 18.925781 11.40625 19.128906 11.679688 C 19.28125 11.570312 19.414062 11.449219 19.574219 11.347656 C 21.132812 10.347656 22.714844 9.777344 24.015625 9.660156 C 25.316406 9.542969 26.324219 9.867188 26.753906 10.691406 C 27.605469 12.332031 25.382812 14.714844 22.273438 16.71875 C 22.0625 16.851562 21.679688 17.121094 21.472656 17.242188 C 21.5 17.277344 22.105469 17.738281 22.128906 17.78125 C 22.339844 17.652344 22.539062 17.550781 22.757812 17.410156 C 25.378906 15.730469 27.121094 13.871094 27.972656 12.464844 C 28.828125 11.050781 28.976562 9.902344 28.527344 9.039062 C 28.082031 8.179688 27.089844 7.761719 25.566406 7.882812 M 20.636719 18.402344 C 20.613281 18.480469 20.613281 18.5625 20.601562 18.644531 C 20.621094 18.628906 20.652344 18.621094 20.675781 18.605469 C 20.648438 18.535156 20.648438 18.480469 20.640625 18.402344 M 20.636719 18.402344 "/>
</g>
</g>
<g clip-path="url(#clip17)" clip-rule="nonzero">
<g clip-path="url(#clip18)" clip-rule="nonzero">
<path style=" stroke:none;fill-rule:nonzero;fill:rgb(92.54902%,89.019608%,20%);fill-opacity:1;" d="M 20.304688 16.402344 C 20.351562 16.59375 20.433594 16.769531 20.46875 16.96875 C 20.480469 16.972656 20.464844 17.015625 20.480469 17.019531 C 23.796875 18.488281 25.800781 20.519531 25.042969 21.949219 C 24.410156 23.136719 22.078125 23.570312 19.179688 23.257812 C 19.128906 23.328125 19.128906 23.410156 19.082031 23.480469 C 19.011719 23.574219 18.933594 23.667969 18.855469 23.765625 C 20.398438 24.023438 21.8125 24.132812 22.949219 24.074219 C 24.984375 23.972656 26.371094 23.46875 26.859375 22.550781 C 27.347656 21.628906 26.824219 20.480469 25.46875 19.308594 C 24.355469 18.347656 22.597656 17.292969 20.300781 16.40625 M 20.300781 16.402344 "/>
</g>
</g>
</g>
</svg>
