<!-- color: #474747 -->
<svg xmlns="http://www.w3.org/2000/svg" xmlns:xlink="http://www.w3.org/1999/xlink" width="32px" height="32px" viewBox="0 0 32 32" version="1.1">
<defs>
<clipPath id="clip1">
  <path d="M 16 9.875 L 27.9375 9.875 L 27.9375 25.8125 L 16 25.8125 Z M 16 9.875 "/>
</clipPath>
<clipPath id="clip2">
  <path d="M 38.832031 17.828125 C 38.832031 30.4375 28.613281 40.652344 16.011719 40.652344 C 3.417969 40.652344 -6.808594 30.4375 -6.808594 17.828125 C -6.808594 5.222656 3.417969 -4.992188 16.011719 -4.992188 C 28.613281 -4.992188 38.832031 5.222656 38.832031 17.828125 Z M 38.832031 17.828125 "/>
</clipPath>
<clipPath id="clip3">
  <path d="M 14.875 13.5 L 17.1875 13.5 L 17.1875 23.8125 L 14.875 23.8125 Z M 14.875 13.5 "/>
</clipPath>
<clipPath id="clip4">
  <path d="M 38.832031 17.828125 C 38.832031 30.4375 28.613281 40.652344 16.011719 40.652344 C 3.417969 40.652344 -6.808594 30.4375 -6.808594 17.828125 C -6.808594 5.222656 3.417969 -4.992188 16.011719 -4.992188 C 28.613281 -4.992188 38.832031 5.222656 38.832031 17.828125 Z M 38.832031 17.828125 "/>
</clipPath>
<clipPath id="clip5">
  <path d="M 4.0625 9.875 L 16.0625 9.875 L 16.0625 25.8125 L 4.0625 25.8125 Z M 4.0625 9.875 "/>
</clipPath>
<clipPath id="clip6">
  <path d="M 38.832031 17.828125 C 38.832031 30.4375 28.613281 40.652344 16.011719 40.652344 C 3.417969 40.652344 -6.808594 30.4375 -6.808594 17.828125 C -6.808594 5.222656 3.417969 -4.992188 16.011719 -4.992188 C 28.613281 -4.992188 38.832031 5.222656 38.832031 17.828125 Z M 38.832031 17.828125 "/>
</clipPath>
<clipPath id="clip7">
  <path d="M 16.375 10.375 L 19.625 10.375 L 19.625 14 L 16.375 14 Z M 16.375 10.375 "/>
</clipPath>
<clipPath id="clip8">
  <path d="M 38.832031 17.828125 C 38.832031 30.4375 28.613281 40.652344 16.011719 40.652344 C 3.417969 40.652344 -6.808594 30.4375 -6.808594 17.828125 C -6.808594 5.222656 3.417969 -4.992188 16.011719 -4.992188 C 28.613281 -4.992188 38.832031 5.222656 38.832031 17.828125 Z M 38.832031 17.828125 "/>
</clipPath>
<clipPath id="clip9">
  <path d="M 16.125 10.125 L 19.875 10.125 L 19.875 14.1875 L 16.125 14.1875 Z M 16.125 10.125 "/>
</clipPath>
<clipPath id="clip10">
  <path d="M 38.832031 17.828125 C 38.832031 30.4375 28.613281 40.652344 16.011719 40.652344 C 3.417969 40.652344 -6.808594 30.4375 -6.808594 17.828125 C -6.808594 5.222656 3.417969 -4.992188 16.011719 -4.992188 C 28.613281 -4.992188 38.832031 5.222656 38.832031 17.828125 Z M 38.832031 17.828125 "/>
</clipPath>
<clipPath id="clip11">
  <path d="M 12.375 10.375 L 15.6875 10.375 L 15.6875 14 L 12.375 14 Z M 12.375 10.375 "/>
</clipPath>
<clipPath id="clip12">
  <path d="M 38.832031 17.828125 C 38.832031 30.4375 28.613281 40.652344 16.011719 40.652344 C 3.417969 40.652344 -6.808594 30.4375 -6.808594 17.828125 C -6.808594 5.222656 3.417969 -4.992188 16.011719 -4.992188 C 28.613281 -4.992188 38.832031 5.222656 38.832031 17.828125 Z M 38.832031 17.828125 "/>
</clipPath>
<clipPath id="clip13">
  <path d="M 12.1875 10.125 L 15.875 10.125 L 15.875 14.1875 L 12.1875 14.1875 Z M 12.1875 10.125 "/>
</clipPath>
<clipPath id="clip14">
  <path d="M 38.832031 17.828125 C 38.832031 30.4375 28.613281 40.652344 16.011719 40.652344 C 3.417969 40.652344 -6.808594 30.4375 -6.808594 17.828125 C -6.808594 5.222656 3.417969 -4.992188 16.011719 -4.992188 C 28.613281 -4.992188 38.832031 5.222656 38.832031 17.828125 Z M 38.832031 17.828125 "/>
</clipPath>
</defs>
<g id="surface1">
<path style="fill-rule:nonzero;fill:rgb(37.254903%,61.960787%,62.7451%);fill-opacity:1;stroke-width:7.117036;stroke-linecap:butt;stroke-linejoin:miter;stroke:rgb(100%,100%,0%);stroke-opacity:1;stroke-miterlimit:4;" d="M 19.9375 5.703125 L 108.0625 5.703125 C 115.921875 5.703125 122.296875 12.078125 122.296875 19.9375 L 122.296875 108.0625 C 122.296875 115.921875 115.921875 122.296875 108.0625 122.296875 L 19.9375 122.296875 C 12.078125 122.296875 5.703125 115.921875 5.703125 108.0625 L 5.703125 19.9375 C 5.703125 12.078125 12.078125 5.703125 19.9375 5.703125 Z M 19.9375 5.703125 " transform="matrix(0.25,0,0,0.25,0,0)"/>
<g clip-path="url(#clip1)" clip-rule="nonzero">
<g clip-path="url(#clip2)" clip-rule="nonzero">
<path style=" stroke:none;fill-rule:evenodd;fill:rgb(100%,100%,0%);fill-opacity:1;" d="M 23.199219 19.863281 C 26.789062 27.742188 16.011719 27.742188 16.011719 19.863281 C 16.011719 19.863281 16.011719 19.863281 16.011719 15.921875 C 30.382812 4.105469 30.382812 11.980469 23.199219 19.863281 M 23.199219 19.863281 "/>
</g>
</g>
<g clip-path="url(#clip3)" clip-rule="nonzero">
<g clip-path="url(#clip4)" clip-rule="nonzero">
<path style=" stroke:none;fill-rule:evenodd;fill:rgb(100%,100%,0%);fill-opacity:1;" d="M 16.375 15.128906 C 17.097656 17.097656 16.550781 23.746094 16.019531 23.792969 C 15.488281 23.835938 14.941406 17.097656 15.65625 15.128906 C 14.582031 14.335938 14.582031 13.550781 16.019531 13.550781 C 17.457031 13.550781 17.457031 14.335938 16.375 15.128906 M 16.375 15.128906 "/>
</g>
</g>
<g clip-path="url(#clip5)" clip-rule="nonzero">
<g clip-path="url(#clip6)" clip-rule="nonzero">
<path style=" stroke:none;fill-rule:evenodd;fill:rgb(100%,100%,0%);fill-opacity:1;" d="M 8.828125 19.863281 C 5.234375 27.742188 16.011719 27.742188 16.011719 19.863281 C 16.011719 19.863281 16.011719 19.863281 16.011719 15.921875 C 1.644531 4.105469 1.644531 11.980469 8.828125 19.863281 M 8.828125 19.863281 "/>
</g>
</g>
<g clip-path="url(#clip7)" clip-rule="nonzero">
<g clip-path="url(#clip8)" clip-rule="nonzero">
<path style=" stroke:none;fill-rule:nonzero;fill:rgb(100%,100%,0%);fill-opacity:1;" d="M 16.375 13.945312 C 16.738281 11.191406 19.621094 10.398438 19.621094 10.398438 "/>
</g>
</g>
<g clip-path="url(#clip9)" clip-rule="nonzero">
<g clip-path="url(#clip10)" clip-rule="nonzero">
<path style="fill:none;stroke-width:0.0382982;stroke-linecap:round;stroke-linejoin:miter;stroke:rgb(97.647059%,72.549021%,15.686275%);stroke-opacity:1;stroke-miterlimit:4;" d="M -43.370852 149.81021 C -43.004719 147.034691 -40.099283 146.2355 -40.099283 146.2355 " transform="matrix(0.992213,0,0,0.992213,59.408137,-134.698374)"/>
</g>
</g>
<g clip-path="url(#clip11)" clip-rule="nonzero">
<g clip-path="url(#clip12)" clip-rule="nonzero">
<path style=" stroke:none;fill-rule:nonzero;fill:rgb(100%,100%,0%);fill-opacity:1;" d="M 15.652344 13.945312 C 15.292969 11.191406 12.40625 10.398438 12.40625 10.398438 "/>
</g>
</g>
<g clip-path="url(#clip13)" clip-rule="nonzero">
<g clip-path="url(#clip14)" clip-rule="nonzero">
<path style="fill:none;stroke-width:0.0382982;stroke-linecap:round;stroke-linejoin:miter;stroke:rgb(97.647059%,72.549021%,15.686275%);stroke-opacity:1;stroke-miterlimit:4;" d="M -44.099179 149.81021 C -44.461374 147.034691 -47.370747 146.2355 -47.370747 146.2355 " transform="matrix(0.992213,0,0,0.992213,59.408137,-134.698374)"/>
</g>
</g>
</g>
</svg>
