
<svg xmlns="http://www.w3.org/2000/svg" xmlns:xlink="http://www.w3.org/1999/xlink" width="32px" height="32px" viewBox="0 0 32 32" version="1.1">
<g id="surface1">
<path style="fill-rule:evenodd;fill:rgb(16.470589%,100%,83.529413%);fill-opacity:1;stroke-width:22.4;stroke-linecap:butt;stroke-linejoin:miter;stroke:rgb(0%,0%,0%);stroke-opacity:1;stroke-miterlimit:4;" d="M 102.6875 25.5625 L 413.1875 25.5625 C 454.375 25.5625 487.75 58.9375 487.75 100.1875 L 487.75 410.6875 C 487.75 451.875 454.375 485.3125 413.1875 485.3125 L 102.6875 485.3125 C 61.4375 485.3125 28.0625 451.875 28.0625 410.6875 L 28.0625 100.1875 C 28.0625 58.9375 61.4375 25.5625 102.6875 25.5625 Z M 102.6875 25.5625 " transform="matrix(0.0625,0,0,0.0625,0,0)"/>
<path style=" stroke:none;fill-rule:nonzero;fill:rgb(100%,100%,100%);fill-opacity:1;" d="M 24.957031 16.75 C 24.957031 21.433594 21.003906 25.234375 16.132812 25.234375 C 11.257812 25.234375 7.308594 21.433594 7.308594 16.75 C 7.308594 12.066406 11.257812 8.265625 16.132812 8.265625 C 21.003906 8.265625 24.957031 12.066406 24.957031 16.75 Z M 24.957031 16.75 "/>
<path style=" stroke:none;fill-rule:nonzero;fill:rgb(98.039216%,69.803923%,12.941177%);fill-opacity:1;" d="M 15.695312 24.070312 C 15.542969 24.03125 15.277344 23.863281 15.105469 23.699219 C 14.566406 23.199219 12.113281 20.042969 12.019531 19.738281 C 11.910156 19.371094 12.003906 19.121094 12.324219 18.933594 C 12.570312 18.789062 12.675781 18.785156 16.074219 18.785156 C 19.949219 18.785156 19.917969 18.78125 20.113281 19.253906 C 20.191406 19.4375 20.183594 19.523438 20.085938 19.777344 C 19.992188 20.027344 17.714844 23.003906 17.128906 23.644531 C 16.792969 24.011719 16.171875 24.199219 15.695312 24.070312 Z M 15.695312 24.070312 "/>
<path style=" stroke:none;fill-rule:nonzero;fill:rgb(20%,20%,20%);fill-opacity:1;" d="M 15.445312 25.582031 C 14.300781 25.480469 13.140625 25.191406 12.171875 24.765625 C 11.105469 24.300781 9.746094 23.324219 8.910156 22.425781 C 8.664062 22.160156 8.421875 21.949219 8.367188 21.949219 C 8.316406 21.953125 8.132812 22.171875 7.96875 22.4375 C 7.378906 23.378906 6.347656 24.347656 5.527344 24.722656 C 5.371094 24.796875 5.074219 24.871094 4.867188 24.890625 C 4.535156 24.917969 4.472656 24.898438 4.300781 24.726562 C 4.121094 24.546875 4.105469 24.496094 4.140625 24.085938 C 4.175781 23.636719 4.277344 23.355469 5.121094 21.292969 C 5.535156 20.277344 5.9375 19.082031 6.175781 18.136719 C 6.285156 17.707031 6.285156 17.652344 6.140625 16.984375 C 5.503906 14.042969 6.378906 11.230469 8.613281 9.066406 C 10.582031 7.15625 12.910156 6.210938 16.058594 6.042969 C 19.199219 5.875 22.777344 7.582031 24.695312 10.152344 C 25.253906 10.902344 25.855469 12.140625 26.097656 13.042969 C 26.269531 13.691406 26.289062 13.886719 26.292969 15.058594 C 26.300781 16.066406 26.269531 16.515625 26.160156 17.058594 L 26.023438 17.753906 L 26.1875 18.390625 C 26.414062 19.246094 26.9375 20.730469 27.511719 22.128906 C 28.261719 23.949219 28.355469 24.507812 27.945312 24.828125 C 27.566406 25.128906 26.816406 24.972656 26.007812 24.421875 C 25.488281 24.066406 24.601562 23.148438 24.210938 22.558594 C 24.050781 22.324219 23.902344 22.097656 23.871094 22.0625 C 23.839844 22.023438 23.511719 22.285156 23.144531 22.644531 C 21.597656 24.136719 20.113281 24.980469 18.222656 25.425781 C 17.652344 25.558594 16.144531 25.644531 15.445312 25.582031 Z M 16.609375 25.046875 C 18.605469 24.847656 20.269531 24.058594 21.660156 22.65625 C 23.636719 20.660156 24.632812 17.800781 24.207031 15.339844 C 23.929688 13.761719 22.738281 12.085938 21.113281 11 C 20.480469 10.578125 20.535156 10.578125 19.722656 10.949219 C 18.964844 11.300781 18.300781 11.753906 17.582031 12.417969 C 16.804688 13.136719 16.472656 13.324219 16.074219 13.261719 C 15.652344 13.195312 15.394531 13.039062 14.796875 12.480469 C 14.054688 11.792969 13.363281 11.3125 12.597656 10.949219 C 11.683594 10.511719 11.710938 10.519531 11.246094 10.796875 C 9.117188 12.082031 7.78125 14.285156 7.796875 16.503906 C 7.824219 20.507812 10.929688 24.324219 14.71875 25.007812 C 15.40625 25.132812 15.683594 25.136719 16.609375 25.046875 Z M 18.808594 17.042969 C 18.308594 16.886719 18.019531 16.320312 18.210938 15.875 C 18.511719 15.164062 19.339844 14.988281 19.800781 15.535156 C 20.402344 16.25 19.699219 17.324219 18.808594 17.042969 Z M 12.578125 16.898438 C 12.203125 16.667969 12.097656 16.207031 12.308594 15.703125 C 12.386719 15.515625 12.496094 15.414062 12.742188 15.304688 C 13.140625 15.128906 13.429688 15.195312 13.753906 15.535156 C 13.929688 15.714844 13.960938 15.808594 13.960938 16.140625 C 13.960938 16.425781 13.925781 16.570312 13.820312 16.683594 C 13.480469 17.058594 12.980469 17.144531 12.578125 16.898438 Z M 12.578125 16.898438 "/>
</g>
</svg>
