
<svg xmlns="http://www.w3.org/2000/svg" xmlns:xlink="http://www.w3.org/1999/xlink" width="32px" height="32px" viewBox="0 0 32 32" version="1.1">
<g id="surface1">
<path style="fill-rule:evenodd;fill:rgb(17.254902%,24.313726%,31.37255%);fill-opacity:1;stroke-width:40.799999;stroke-linecap:butt;stroke-linejoin:miter;stroke:rgb(18.039216%,80.000001%,44.313726%);stroke-opacity:1;stroke-miterlimit:4;" d="M 170.75 61.625 L 855.875 61.625 C 920.75 61.625 973.25 114.125 973.25 179 L 973.25 860 C 973.25 924.75 920.75 977.25 855.875 977.25 L 170.75 977.25 C 105.875 977.25 53.375 924.75 53.375 860 L 53.375 179 C 53.375 114.125 105.875 61.625 170.75 61.625 Z M 170.75 61.625 " transform="matrix(0.03125,0,0,0.03125,0,0)"/>
<path style=" stroke:none;fill-rule:evenodd;fill:rgb(18.039216%,80.000001%,44.313726%);fill-opacity:1;" d="M 14.636719 5.453125 C 11.746094 5.453125 8.871094 6.644531 6.832031 8.6875 C 4.789062 10.730469 3.597656 13.605469 3.597656 16.496094 C 3.597656 19.382812 4.789062 22.253906 6.832031 24.300781 C 8.871094 26.34375 11.746094 27.535156 14.636719 27.535156 C 17.527344 27.535156 20.398438 26.34375 22.445312 24.300781 C 24.488281 22.257812 25.679688 19.382812 25.679688 16.496094 L 22.738281 16.496094 C 22.738281 18.613281 21.863281 20.722656 20.363281 22.21875 C 18.863281 23.71875 16.753906 24.589844 14.636719 24.589844 C 12.515625 24.589844 10.410156 23.714844 8.910156 22.21875 C 7.414062 20.71875 6.542969 18.613281 6.542969 16.496094 C 6.542969 14.375 7.414062 12.269531 8.910156 10.769531 C 10.410156 9.269531 12.515625 8.398438 14.636719 8.394531 C 14.636719 8.394531 14.636719 8.394531 14.640625 8.394531 L 14.640625 5.453125 C 14.636719 5.453125 14.636719 5.453125 14.636719 5.453125 Z M 14.636719 5.453125 "/>
<path style=" stroke:none;fill-rule:evenodd;fill:rgb(92.54902%,94.117647%,94.509804%);fill-opacity:1;" d="M 11.015625 15.335938 L 13.097656 13.253906 L 17.640625 17.796875 L 15.558594 19.878906 Z M 11.015625 15.335938 "/>
<path style=" stroke:none;fill-rule:evenodd;fill:rgb(92.54902%,94.117647%,94.509804%);fill-opacity:1;" d="M 26.097656 5.390625 L 13.582031 17.902344 L 15.664062 19.984375 L 28.175781 7.472656 Z M 26.097656 5.390625 "/>
</g>
</svg>
