
<svg xmlns="http://www.w3.org/2000/svg" xmlns:xlink="http://www.w3.org/1999/xlink" width="32px" height="32px" viewBox="0 0 32 32" version="1.1">
<g id="surface1">
<path style="fill-rule:nonzero;fill:rgb(62.7451%,17.254902%,17.254902%);fill-opacity:1;stroke-width:56.239723;stroke-linecap:butt;stroke-linejoin:miter;stroke:rgb(98.039216%,57.647061%,57.647061%);stroke-opacity:1;stroke-miterlimit:4;" d="M 173.678773 53.961208 L 870.069957 53.961208 C 932.129474 53.961208 982.537501 104.369235 982.537501 166.428752 L 982.537501 862.819936 C 982.537501 924.879453 932.129474 975.28748 870.069957 975.28748 L 173.678773 975.28748 C 111.619256 975.28748 61.211229 924.879453 61.211229 862.819936 L 61.211229 166.428752 C 61.211229 104.369235 111.619256 53.961208 173.678773 53.961208 Z M 173.678773 53.961208 " transform="matrix(0.0318495,0,0,0.0318495,-0.62142,-0.390511)"/>
<path style=" stroke:none;fill-rule:nonzero;fill:rgb(100%,100%,100%);fill-opacity:1;" d="M 17.652344 27.886719 C 18.375 27.824219 18.785156 27.691406 19.734375 27.214844 C 21.234375 26.464844 22.417969 25.566406 23.078125 24.679688 C 23.992188 23.453125 24.550781 22.082031 24.746094 20.59375 C 24.8125 20.066406 24.792969 18.511719 24.714844 18.046875 C 24.425781 16.410156 23.722656 14.914062 22.714844 13.800781 C 21.722656 12.703125 20.597656 12.003906 19.136719 11.582031 C 18.945312 11.527344 18.773438 11.46875 18.757812 11.453125 C 18.726562 11.421875 18.96875 11.347656 19.296875 11.289062 C 19.644531 11.226562 20.722656 11.238281 21.097656 11.304688 C 21.769531 11.429688 22.675781 11.824219 23.261719 12.242188 C 23.621094 12.5 24.171875 13.023438 24.492188 13.40625 C 25.398438 14.488281 26.011719 15.925781 26.210938 17.425781 C 26.238281 17.617188 26.269531 18.207031 26.285156 18.730469 C 26.316406 19.785156 26.34375 19.9375 26.511719 20.132812 C 26.753906 20.410156 27.144531 20.269531 27.472656 19.792969 C 27.832031 19.261719 28.152344 18.296875 28.261719 17.410156 C 28.308594 17.003906 28.300781 15.945312 28.246094 15.511719 C 27.917969 13.011719 26.363281 10.574219 24.234375 9.234375 C 23.300781 8.648438 22.351562 8.300781 21.191406 8.121094 C 20.730469 8.050781 19.285156 8.039062 18.769531 8.105469 C 17.320312 8.285156 15.957031 8.777344 14.886719 9.496094 C 14.117188 10.011719 13.597656 10.542969 13.128906 11.300781 C 12.753906 11.894531 12.777344 11.886719 12.792969 11.453125 C 12.839844 10.402344 13.300781 9.402344 14.125 8.539062 C 14.722656 7.921875 15.257812 7.535156 16.039062 7.15625 C 17.113281 6.636719 18.066406 6.417969 19.296875 6.417969 C 20.339844 6.414062 20.921875 6.523438 21.988281 6.925781 C 22.710938 7.199219 22.925781 7.253906 23.214844 7.257812 C 23.488281 7.257812 23.652344 7.195312 23.738281 7.050781 C 23.917969 6.761719 23.71875 6.308594 23.167969 5.742188 C 22.246094 4.789062 21.144531 4.230469 19.644531 3.964844 C 19.167969 3.878906 17.945312 3.847656 17.339844 3.902344 C 15.152344 4.101562 13.386719 4.890625 11.984375 6.292969 C 10.921875 7.355469 10.164062 8.644531 9.738281 10.125 C 9.242188 11.851562 9.308594 13.710938 9.917969 15.253906 C 10.167969 15.878906 10.453125 16.378906 10.949219 17.074219 C 11.097656 17.285156 11.222656 17.476562 11.222656 17.496094 C 11.222656 17.550781 10.882812 17.417969 10.457031 17.199219 C 7.867188 15.855469 7.019531 12.089844 8.566406 8.816406 C 8.800781 8.324219 9.097656 7.839844 9.527344 7.269531 C 9.976562 6.667969 10.117188 6.394531 10.132812 6.105469 C 10.140625 5.9375 10.128906 5.875 10.078125 5.792969 C 9.871094 5.460938 9.285156 5.480469 8.589844 5.847656 C 7.910156 6.203125 7.355469 6.675781 6.742188 7.425781 C 6.324219 7.933594 5.824219 8.847656 5.542969 9.621094 C 5.382812 10.054688 5.175781 10.816406 5.097656 11.261719 C 5.003906 11.761719 4.980469 12.144531 4.980469 12.941406 C 4.980469 13.800781 5.003906 14.105469 5.121094 14.6875 C 5.335938 15.738281 5.679688 16.589844 6.214844 17.394531 C 7.972656 20.039062 11.574219 21.699219 14.550781 21.242188 C 14.972656 21.175781 15.402344 21.046875 15.894531 20.832031 C 16.113281 20.738281 16.308594 20.660156 16.324219 20.667969 C 16.382812 20.683594 15.957031 21.234375 15.664062 21.515625 C 14.863281 22.292969 13.882812 22.675781 12.574219 22.71875 C 11.722656 22.746094 11.074219 22.664062 10.277344 22.421875 C 8.976562 22.03125 7.886719 21.375 6.921875 20.40625 C 6.445312 19.933594 6.171875 19.589844 5.792969 19.003906 C 5.542969 18.613281 5.269531 18.316406 5.089844 18.234375 C 5.019531 18.199219 4.890625 18.175781 4.792969 18.175781 C 4.628906 18.175781 4.613281 18.183594 4.488281 18.3125 C 4.308594 18.496094 4.265625 18.667969 4.269531 19.117188 C 4.277344 19.699219 4.445312 20.289062 4.835938 21.089844 C 5.988281 23.464844 8.660156 25.285156 11.542969 25.664062 C 11.710938 25.6875 12.171875 25.703125 12.589844 25.703125 C 13.433594 25.703125 13.8125 25.652344 14.550781 25.449219 C 17.277344 24.703125 19.636719 22.550781 20.511719 20.003906 C 20.785156 19.207031 20.847656 18.839844 20.871094 17.777344 L 20.886719 16.917969 L 21.023438 17.09375 C 22.253906 18.707031 22.164062 20.96875 20.792969 23.050781 C 20.472656 23.535156 20.234375 23.820312 19.730469 24.324219 C 19.058594 24.996094 18.339844 25.503906 17.542969 25.886719 C 17.117188 26.089844 16.699219 26.238281 16.015625 26.425781 C 15.3125 26.625 15.171875 26.683594 15.027344 26.847656 C 14.917969 26.964844 14.910156 26.984375 14.925781 27.144531 C 14.957031 27.550781 15.402344 27.808594 16.199219 27.886719 C 16.585938 27.925781 17.238281 27.925781 17.652344 27.886719 Z M 17.652344 27.886719 "/>
</g>
</svg>
