
<svg xmlns="http://www.w3.org/2000/svg" xmlns:xlink="http://www.w3.org/1999/xlink" width="32px" height="32px" viewBox="0 0 32 32" version="1.1">
<g id="surface1">
<path style="fill-rule:nonzero;fill:rgb(68.627453%,86.666667%,91.37255%);fill-opacity:1;stroke-width:25.799629;stroke-linecap:butt;stroke-linejoin:miter;stroke:rgb(100%,100%,0%);stroke-opacity:1;stroke-miterlimit:4;" d="M 51.364445 20.705329 L 415.58432 20.705329 C 435.176065 20.705329 451.036049 36.565313 451.036049 56.157058 L 451.036049 430.452688 C 451.036049 450.044433 435.176065 465.904418 415.58432 465.904418 L 51.364445 465.904418 C 31.7727 465.904418 15.912715 450.044433 15.912715 430.452688 L 15.912715 56.157058 C 15.912715 36.565313 31.7727 20.705329 51.364445 20.705329 Z M 51.364445 20.705329 " transform="matrix(0.0628055,0,0,0.0628055,1.336532,0.719123)"/>
<path style=" stroke:none;fill-rule:nonzero;fill:rgb(100%,100%,0%);fill-opacity:1;" d="M 13.519531 6.984375 C 8.539062 6.984375 4.503906 11.019531 4.503906 16 C 4.503906 20.980469 8.539062 25.015625 13.519531 25.015625 C 16.875 25.011719 19.953125 23.144531 21.503906 20.167969 L 14.46875 16.222656 L 22.058594 13.15625 C 20.835938 9.472656 17.394531 6.988281 13.519531 6.984375 Z M 13.519531 6.984375 "/>
<path style=" stroke:none;fill-rule:nonzero;fill:rgb(100%,100%,0%);fill-opacity:1;" d="M 23.746094 16.683594 C 23.746094 17.4375 23.132812 18.050781 22.375 18.050781 C 21.617188 18.050781 21.003906 17.4375 21.003906 16.683594 C 21.003906 15.925781 21.617188 15.308594 22.375 15.308594 C 23.132812 15.308594 23.746094 15.925781 23.746094 16.683594 Z M 23.746094 16.683594 "/>
<path style=" stroke:none;fill-rule:nonzero;fill:rgb(100%,100%,0%);fill-opacity:1;" d="M 27.402344 16.683594 C 27.402344 17.4375 26.789062 18.050781 26.03125 18.050781 C 25.273438 18.050781 24.660156 17.4375 24.660156 16.683594 C 24.660156 15.925781 25.273438 15.308594 26.03125 15.308594 C 26.789062 15.308594 27.402344 15.925781 27.402344 16.683594 Z M 27.402344 16.683594 "/>
</g>
</svg>
