
<svg xmlns="http://www.w3.org/2000/svg" xmlns:xlink="http://www.w3.org/1999/xlink" width="32px" height="32px" viewBox="0 0 32 32" version="1.1">
<defs>
<linearGradient id="linear0" gradientUnits="userSpaceOnUse" x1="2" y1="25" x2="46" y2="25" gradientTransform="matrix(0.617767,0,0,0.617767,1.187485,1.2211)">
<stop offset="0" style="stop-color:rgb(86.274511%,74.901962%,97.647059%);stop-opacity:1;"/>
<stop offset="1" style="stop-color:rgb(99.215686%,96.862745%,99.215686%);stop-opacity:1;"/>
</linearGradient>
</defs>
<g id="surface1">
<path style="fill-rule:nonzero;fill:rgb(67.058825%,21.568628%,78.431374%);fill-opacity:1;stroke-width:6.990412;stroke-linecap:butt;stroke-linejoin:miter;stroke:rgb(29.019609%,68.235296%,90.980393%);stroke-opacity:1;stroke-miterlimit:4;" d="M 405.305786 426.548014 L 491.837036 426.548014 C 499.571411 426.548014 505.821411 432.798014 505.821411 440.532389 L 505.821411 527.063639 C 505.821411 534.798014 499.571411 541.048014 491.837036 541.048014 L 405.305786 541.048014 C 397.571411 541.048014 391.321411 534.798014 391.321411 527.063639 L 391.321411 440.532389 C 391.321411 432.798014 397.571411 426.548014 405.305786 426.548014 Z M 405.305786 426.548014 " transform="matrix(0.25,0,0,0.25,-96.142853,-104.949504)"/>
<path style=" stroke:none;fill-rule:evenodd;fill:url(#linear0);" d="M 16.011719 3.074219 C 14.984375 3.078125 14.042969 5.816406 13.574219 10.164062 C 10.722656 7.867188 8.402344 6.574219 7.304688 6.679688 C 7.105469 6.699219 6.949219 6.761719 6.839844 6.875 C 6.117188 7.605469 7.386719 10.207031 10.128906 13.605469 C 5.777344 14.074219 3.039062 15.019531 3.042969 16.046875 C 3.046875 17.074219 5.78125 18.019531 10.125 18.484375 C 7.378906 21.890625 6.113281 24.492188 6.839844 25.222656 C 7.570312 25.945312 10.171875 24.675781 13.574219 21.933594 C 14.042969 26.285156 14.984375 29.019531 16.011719 29.019531 C 17.042969 29.015625 17.984375 26.277344 18.453125 21.929688 C 21.851562 24.667969 24.453125 25.941406 25.1875 25.222656 C 25.910156 24.488281 24.640625 21.886719 21.898438 18.484375 C 25.542969 18.09375 28.097656 17.363281 28.796875 16.511719 C 28.925781 16.359375 28.988281 16.203125 28.988281 16.046875 C 28.980469 15.019531 26.242188 14.078125 21.898438 13.609375 C 24.199219 10.757812 25.488281 8.433594 25.382812 7.335938 C 25.363281 7.140625 25.296875 6.984375 25.1875 6.875 C 24.457031 6.148438 21.855469 7.417969 18.449219 10.160156 C 18.058594 6.519531 17.328125 3.964844 16.480469 3.261719 C 16.324219 3.136719 16.167969 3.074219 16.011719 3.074219 Z M 16.011719 5.640625 C 16.136719 5.636719 16.265625 5.691406 16.386719 5.789062 C 17.011719 6.304688 17.558594 8.066406 17.886719 10.628906 C 17.269531 11.136719 16.644531 11.683594 16.011719 12.257812 C 15.386719 11.683594 14.757812 11.136719 14.140625 10.621094 C 14.539062 7.527344 15.25 5.644531 16.011719 5.640625 Z M 22.894531 8.527344 C 22.902344 8.527344 22.910156 8.527344 22.917969 8.527344 C 23.117188 8.527344 23.269531 8.582031 23.375 8.6875 C 23.464844 8.777344 23.515625 8.902344 23.53125 9.058594 C 23.605469 9.863281 22.746094 11.496094 21.175781 13.535156 C 20.375 13.464844 19.542969 13.40625 18.691406 13.371094 C 18.652344 12.519531 18.597656 11.683594 18.527344 10.886719 C 20.472656 9.382812 22.054688 8.527344 22.894531 8.527344 Z M 9.027344 8.53125 C 9.832031 8.457031 11.460938 9.316406 13.503906 10.890625 C 13.429688 11.691406 13.371094 12.519531 13.332031 13.371094 C 12.484375 13.410156 11.652344 13.464844 10.855469 13.539062 C 8.949219 11.066406 8.113281 9.230469 8.652344 8.6875 C 8.742188 8.597656 8.867188 8.546875 9.027344 8.53125 Z M 17.96875 11.324219 C 18.039062 11.972656 18.09375 12.652344 18.132812 13.351562 C 17.804688 13.339844 17.476562 13.328125 17.144531 13.320312 C 16.902344 13.089844 16.664062 12.863281 16.421875 12.640625 C 16.945312 12.171875 17.464844 11.730469 17.96875 11.324219 Z M 14.054688 11.324219 C 14.5625 11.734375 15.082031 12.175781 15.605469 12.640625 C 15.363281 12.863281 15.121094 13.089844 14.882812 13.320312 C 14.550781 13.328125 14.222656 13.339844 13.894531 13.347656 C 13.933594 12.652344 13.988281 11.972656 14.054688 11.324219 Z M 16.011719 13.007812 C 16.121094 13.109375 16.230469 13.210938 16.339844 13.3125 C 16.230469 13.308594 16.121094 13.308594 16.011719 13.308594 C 15.902344 13.308594 15.792969 13.308594 15.683594 13.308594 C 15.792969 13.207031 15.902344 13.109375 16.011719 13.007812 Z M 16.011719 13.851562 C 16.316406 13.851562 16.621094 13.855469 16.917969 13.859375 C 17.136719 14.066406 17.355469 14.28125 17.566406 14.496094 C 17.78125 14.707031 17.992188 14.925781 18.199219 15.140625 C 18.207031 15.441406 18.210938 15.746094 18.210938 16.046875 C 18.210938 16.347656 18.207031 16.652344 18.199219 16.953125 C 17.992188 17.167969 17.78125 17.386719 17.566406 17.601562 C 17.355469 17.816406 17.136719 18.027344 16.917969 18.234375 C 16.621094 18.242188 16.316406 18.246094 16.011719 18.246094 C 15.710938 18.246094 15.410156 18.242188 15.105469 18.234375 C 14.890625 18.027344 14.675781 17.816406 14.460938 17.601562 C 14.246094 17.386719 14.035156 17.167969 13.824219 16.953125 C 13.820312 16.652344 13.816406 16.347656 13.816406 16.046875 C 13.816406 15.746094 13.820312 15.441406 13.824219 15.144531 C 14.035156 14.925781 14.246094 14.707031 14.460938 14.496094 C 14.675781 14.28125 14.890625 14.066406 15.105469 13.859375 C 15.410156 13.855469 15.710938 13.851562 16.011719 13.851562 Z M 17.714844 13.878906 C 17.863281 13.886719 18.011719 13.894531 18.164062 13.902344 C 18.167969 14.050781 18.175781 14.195312 18.179688 14.34375 C 18.105469 14.265625 18.027344 14.1875 17.949219 14.113281 C 17.871094 14.035156 17.792969 13.957031 17.714844 13.878906 Z M 14.3125 13.882812 C 14.234375 13.957031 14.15625 14.035156 14.078125 14.113281 C 14 14.191406 13.921875 14.269531 13.847656 14.347656 C 13.851562 14.199219 13.859375 14.050781 13.867188 13.902344 C 14.011719 13.894531 14.160156 13.886719 14.3125 13.882812 Z M 18.714844 13.925781 C 19.410156 13.964844 20.089844 14.019531 20.738281 14.089844 C 20.328125 14.597656 19.886719 15.113281 19.421875 15.636719 C 19.199219 15.398438 18.972656 15.160156 18.738281 14.921875 C 18.734375 14.589844 18.722656 14.253906 18.714844 13.925781 Z M 13.316406 13.925781 C 13.300781 14.253906 13.292969 14.585938 13.285156 14.917969 C 13.058594 15.15625 12.828125 15.394531 12.605469 15.636719 C 12.136719 15.113281 11.695312 14.597656 11.289062 14.089844 C 11.933594 14.023438 12.613281 13.96875 13.316406 13.925781 Z M 21.441406 14.175781 C 24.53125 14.574219 26.417969 15.285156 26.421875 16.046875 C 26.421875 16.175781 26.371094 16.300781 26.269531 16.421875 C 25.753906 17.042969 23.996094 17.589844 21.4375 17.917969 C 20.925781 17.300781 20.378906 16.675781 19.800781 16.046875 C 20.378906 15.417969 20.925781 14.792969 21.441406 14.175781 Z M 10.589844 14.175781 C 11.101562 14.792969 11.652344 15.417969 12.226562 16.050781 C 11.652344 16.679688 11.105469 17.304688 10.589844 17.921875 C 7.496094 17.523438 5.605469 16.8125 5.605469 16.046875 C 5.609375 15.285156 7.496094 14.574219 10.589844 14.175781 Z M 13.277344 15.722656 C 13.277344 15.832031 13.277344 15.941406 13.277344 16.046875 C 13.277344 16.15625 13.277344 16.261719 13.277344 16.371094 C 13.175781 16.261719 13.074219 16.15625 12.976562 16.046875 C 13.074219 15.9375 13.175781 15.832031 13.277344 15.722656 Z M 18.75 15.722656 C 18.851562 15.832031 18.953125 15.941406 19.050781 16.046875 C 18.953125 16.15625 18.851562 16.265625 18.75 16.375 C 18.75 16.265625 18.753906 16.15625 18.753906 16.046875 C 18.753906 15.941406 18.75 15.832031 18.75 15.722656 Z M 19.421875 16.457031 C 19.890625 16.980469 20.332031 17.496094 20.738281 18.003906 C 20.089844 18.074219 19.414062 18.128906 18.714844 18.167969 C 18.722656 17.839844 18.734375 17.507812 18.738281 17.175781 C 18.972656 16.933594 19.199219 16.695312 19.421875 16.457031 Z M 12.605469 16.457031 C 12.832031 16.695312 13.058594 16.933594 13.285156 17.175781 C 13.292969 17.507812 13.300781 17.839844 13.3125 18.167969 C 12.613281 18.128906 11.933594 18.074219 11.289062 18.003906 C 11.699219 17.5 12.136719 16.980469 12.605469 16.457031 Z M 18.183594 17.746094 C 18.175781 17.898438 18.167969 18.046875 18.160156 18.191406 C 18.011719 18.199219 17.863281 18.207031 17.714844 18.214844 C 17.792969 18.136719 17.871094 18.0625 17.949219 17.984375 C 18.027344 17.90625 18.105469 17.828125 18.183594 17.746094 Z M 13.847656 17.753906 C 13.925781 17.832031 14 17.90625 14.078125 17.984375 C 14.15625 18.0625 14.234375 18.136719 14.3125 18.214844 C 14.160156 18.207031 14.011719 18.203125 13.863281 18.195312 C 13.859375 18.046875 13.855469 17.902344 13.847656 17.753906 Z M 10.855469 18.558594 C 11.652344 18.632812 12.484375 18.6875 13.339844 18.726562 C 13.375 19.578125 13.433594 20.410156 13.503906 21.207031 C 11.035156 23.113281 9.199219 23.949219 8.652344 23.410156 C 8.117188 22.863281 8.949219 21.027344 10.855469 18.558594 Z M 21.175781 18.558594 C 23.078125 21.027344 23.910156 22.863281 23.375 23.410156 C 22.828125 23.941406 20.992188 23.109375 18.527344 21.207031 C 18.597656 20.410156 18.65625 19.574219 18.691406 18.722656 C 19.542969 18.6875 20.375 18.632812 21.175781 18.558594 Z M 13.894531 18.746094 C 14.222656 18.757812 14.550781 18.769531 14.886719 18.777344 C 15.125 19.003906 15.363281 19.234375 15.605469 19.457031 C 15.082031 19.925781 14.5625 20.363281 14.058594 20.769531 C 13.988281 20.125 13.933594 19.445312 13.894531 18.746094 Z M 18.136719 18.746094 C 18.097656 19.445312 18.042969 20.125 17.972656 20.773438 C 17.464844 20.363281 16.945312 19.921875 16.421875 19.457031 C 16.664062 19.230469 16.902344 19.003906 17.144531 18.777344 C 17.476562 18.769531 17.808594 18.757812 18.136719 18.746094 Z M 15.683594 18.785156 C 15.792969 18.785156 15.902344 18.785156 16.011719 18.785156 C 16.125 18.785156 16.234375 18.785156 16.34375 18.785156 C 16.234375 18.886719 16.121094 18.988281 16.011719 19.089844 C 15.902344 18.988281 15.792969 18.886719 15.683594 18.785156 Z M 16.015625 19.835938 C 16.644531 20.410156 17.269531 20.957031 17.886719 21.472656 C 17.488281 24.566406 16.777344 26.453125 16.011719 26.457031 C 15.246094 26.453125 14.539062 24.5625 14.140625 21.46875 C 14.757812 20.957031 15.386719 20.410156 16.015625 19.835938 Z M 16.015625 19.835938 "/>
</g>
</svg>
