
<svg xmlns="http://www.w3.org/2000/svg" xmlns:xlink="http://www.w3.org/1999/xlink" width="32px" height="32px" viewBox="0 0 32 32" version="1.1">
<g id="surface1">
<path style="fill-rule:nonzero;fill:rgb(100%,100%,100%);fill-opacity:1;stroke-width:5.452268;stroke-linecap:butt;stroke-linejoin:miter;stroke:rgb(29.019609%,68.235296%,90.980393%);stroke-opacity:1;stroke-miterlimit:4;" d="M 17.45 -95.8625 L 84.95 -95.8625 C 90.975 -95.8625 95.8625 -90.975 95.8625 -84.95 L 95.8625 -17.45 C 95.8625 -11.425 90.975 -6.5375 84.95 -6.5375 L 17.45 -6.5375 C 11.425 -6.5375 6.5375 -11.425 6.5375 -17.45 L 6.5375 -84.95 C 6.5375 -90.975 11.425 -95.8625 17.45 -95.8625 Z M 17.45 -95.8625 " transform="matrix(0.3125,0,0,0.3125,0,32)"/>
<path style=" stroke:none;fill-rule:evenodd;fill:rgb(34.117648%,68.627453%,78.823531%);fill-opacity:1;" d="M 24.363281 19.472656 C 24.605469 19.839844 24.804688 20.230469 24.910156 20.664062 C 25.375 22.613281 24.191406 24.46875 22.320312 24.898438 C 21.332031 25.128906 20.417969 24.941406 19.574219 24.394531 C 19.554688 24.378906 19.535156 24.367188 19.507812 24.347656 C 19.457031 24.414062 19.464844 24.492188 19.445312 24.5625 C 19.113281 25.953125 18.011719 26.980469 16.609375 27.210938 C 14.753906 27.511719 13.003906 26.296875 12.636719 24.441406 C 12.628906 24.410156 12.621094 24.375 12.613281 24.34375 C 12.613281 24.332031 12.617188 24.324219 12.617188 24.316406 C 12.652344 24.3125 12.675781 24.285156 12.703125 24.261719 C 13.0625 23.988281 13.363281 23.652344 13.683594 23.332031 C 14.402344 22.601562 15.152344 21.894531 15.847656 21.144531 C 15.925781 21.0625 15.972656 20.953125 16.066406 20.886719 C 16.175781 21.042969 16.285156 21.195312 16.421875 21.328125 C 17.308594 22.21875 18.191406 23.105469 19.085938 23.988281 C 19.203125 24.105469 19.324219 24.226562 19.480469 24.304688 C 19.527344 24.128906 19.539062 23.953125 19.539062 23.785156 C 19.542969 22.558594 19.542969 21.332031 19.539062 20.105469 C 19.539062 19.894531 19.519531 19.675781 19.46875 19.46875 C 19.640625 19.484375 19.8125 19.515625 19.980469 19.515625 C 21.300781 19.519531 22.617188 19.519531 23.933594 19.519531 C 24.070312 19.519531 24.203125 19.496094 24.335938 19.464844 C 24.34375 19.46875 24.355469 19.472656 24.363281 19.472656 "/>
<path style=" stroke:none;fill-rule:evenodd;fill:rgb(97.254902%,66.274512%,19.215687%);fill-opacity:1;" d="M 12.613281 7.738281 C 12.75 6.980469 13.078125 6.316406 13.644531 5.792969 C 14.640625 4.875 15.808594 4.582031 17.097656 4.988281 C 18.386719 5.398438 19.167969 6.308594 19.46875 7.628906 C 19.476562 7.664062 19.484375 7.699219 19.496094 7.738281 C 19.511719 7.914062 19.539062 8.089844 19.539062 8.265625 C 19.542969 9.511719 19.542969 10.761719 19.539062 12.011719 C 19.539062 12.214844 19.519531 12.414062 19.46875 12.613281 C 19.449219 12.621094 19.429688 12.628906 19.410156 12.636719 C 18.699219 12.796875 18.089844 13.136719 17.589844 13.667969 C 17.140625 14.152344 16.847656 14.714844 16.726562 15.367188 C 16.722656 15.371094 16.714844 15.371094 16.714844 15.378906 C 16.578125 15.398438 16.460938 15.441406 16.324219 15.460938 C 16.160156 15.46875 15.976562 15.460938 15.8125 15.425781 C 15.925781 15.269531 16.050781 15.121094 16.148438 14.957031 C 16.546875 14.285156 16.710938 13.566406 16.628906 12.789062 C 16.546875 11.988281 16.222656 11.300781 15.664062 10.734375 C 14.792969 9.847656 13.90625 8.96875 13.019531 8.089844 C 12.898438 7.96875 12.769531 7.855469 12.617188 7.769531 C 12.617188 7.757812 12.613281 7.746094 12.613281 7.738281 "/>
<path style=" stroke:none;fill-rule:evenodd;fill:rgb(64.705884%,82.352942%,49.019608%);fill-opacity:1;" d="M 24.363281 19.472656 C 24.355469 19.472656 24.34375 19.46875 24.335938 19.464844 C 24.332031 19.457031 24.324219 19.441406 24.316406 19.433594 C 24.199219 19.257812 24.050781 19.105469 23.898438 18.960938 C 22.894531 17.996094 21.972656 16.945312 20.90625 16.042969 C 21.042969 15.902344 21.214844 15.804688 21.351562 15.667969 C 22.222656 14.792969 23.097656 13.917969 23.96875 13.050781 C 24.105469 12.914062 24.226562 12.769531 24.335938 12.613281 C 24.347656 12.613281 24.355469 12.613281 24.367188 12.613281 C 25.035156 12.714844 25.617188 12.996094 26.113281 13.441406 C 26.75 14.011719 27.136719 14.71875 27.25 15.5625 C 27.503906 17.402344 26.285156 19.066406 24.527344 19.441406 C 24.472656 19.453125 24.417969 19.460938 24.363281 19.472656 "/>
<path style=" stroke:none;fill-rule:evenodd;fill:rgb(75.686276%,86.274511%,45.09804%);fill-opacity:1;" d="M 24.367188 12.613281 C 24.355469 12.613281 24.347656 12.613281 24.335938 12.613281 C 24.195312 12.582031 24.054688 12.5625 23.910156 12.5625 C 22.609375 12.5625 21.308594 12.5625 20.007812 12.566406 C 19.828125 12.566406 19.648438 12.597656 19.46875 12.613281 C 19.519531 12.414062 19.539062 12.214844 19.539062 12.011719 C 19.542969 10.761719 19.542969 9.511719 19.539062 8.265625 C 19.539062 8.089844 19.511719 7.914062 19.496094 7.738281 C 19.960938 7.421875 20.46875 7.207031 21.03125 7.128906 C 21.949219 7 22.792969 7.199219 23.550781 7.734375 C 24.324219 8.285156 24.804688 9.042969 24.964844 9.980469 C 25.121094 10.894531 24.929688 11.746094 24.414062 12.523438 C 24.394531 12.550781 24.367188 12.574219 24.367188 12.613281 "/>
<path style=" stroke:none;fill-rule:evenodd;fill:rgb(66.666669%,50.588238%,72.156864%);fill-opacity:1;" d="M 7.738281 19.472656 C 7.75 19.46875 7.761719 19.46875 7.769531 19.464844 C 7.890625 19.5 8.019531 19.519531 8.144531 19.515625 C 9.640625 19.488281 11.136719 19.582031 12.636719 19.464844 C 12.59375 19.707031 12.566406 19.945312 12.566406 20.191406 C 12.5625 21.261719 12.566406 22.335938 12.5625 23.410156 C 12.5625 23.714844 12.570312 24.015625 12.617188 24.316406 C 12.617188 24.324219 12.613281 24.332031 12.613281 24.34375 C 12.179688 24.632812 11.714844 24.847656 11.199219 24.933594 C 10.105469 25.113281 9.125 24.855469 8.285156 24.128906 C 7.605469 23.546875 7.214844 22.792969 7.113281 21.90625 C 7.019531 21.058594 7.214844 20.273438 7.691406 19.558594 C 7.707031 19.53125 7.722656 19.5 7.738281 19.472656 "/>
<path style=" stroke:none;fill-rule:evenodd;fill:rgb(92.941177%,47.450981%,52.156866%);fill-opacity:1;" d="M 7.769531 12.613281 C 7.757812 12.613281 7.746094 12.613281 7.738281 12.613281 C 7.675781 12.511719 7.617188 12.410156 7.558594 12.308594 C 7.242188 11.769531 7.085938 11.183594 7.089844 10.566406 C 7.101562 8.824219 8.339844 7.421875 9.988281 7.136719 C 10.902344 6.984375 11.75 7.175781 12.527344 7.683594 C 12.554688 7.703125 12.582031 7.71875 12.613281 7.738281 C 12.613281 7.746094 12.617188 7.757812 12.617188 7.769531 C 12.601562 7.929688 12.566406 8.09375 12.566406 8.253906 C 12.5625 9.511719 12.5625 10.761719 12.566406 12.019531 C 12.570312 12.21875 12.582031 12.421875 12.644531 12.617188 C 12.472656 12.597656 12.300781 12.566406 12.128906 12.566406 C 10.808594 12.5625 9.488281 12.5625 8.167969 12.566406 C 8.035156 12.566406 7.902344 12.582031 7.769531 12.613281 "/>
<path style=" stroke:none;fill-rule:evenodd;fill:rgb(36.862746%,32.156864%,61.176473%);fill-opacity:1;" d="M 12.617188 24.316406 C 12.570312 24.015625 12.5625 23.714844 12.5625 23.410156 C 12.566406 22.335938 12.5625 21.261719 12.566406 20.191406 C 12.566406 19.945312 12.59375 19.707031 12.636719 19.464844 C 12.636719 19.457031 12.640625 19.449219 12.640625 19.441406 C 12.683594 19.441406 12.722656 19.4375 12.765625 19.425781 C 13.761719 19.179688 14.511719 18.613281 15.015625 17.722656 C 15.195312 17.40625 15.328125 17.070312 15.378906 16.707031 C 15.378906 16.703125 15.386719 16.699219 15.390625 16.699219 C 15.523438 16.683594 15.65625 16.664062 15.792969 16.644531 C 15.800781 16.644531 15.808594 16.648438 15.8125 16.652344 C 15.875 16.773438 15.988281 16.855469 16.042969 16.980469 C 16.035156 16.996094 16.035156 17.015625 16.023438 17.027344 C 15.46875 17.902344 15.324219 18.847656 15.585938 19.847656 C 15.683594 20.210938 15.828125 20.558594 16.0625 20.855469 C 16.0625 20.867188 16.066406 20.875 16.066406 20.886719 C 15.972656 20.953125 15.925781 21.0625 15.847656 21.144531 C 15.152344 21.894531 14.402344 22.601562 13.683594 23.332031 C 13.363281 23.652344 13.0625 23.988281 12.703125 24.261719 C 12.675781 24.285156 12.652344 24.3125 12.617188 24.316406 "/>
<path style=" stroke:none;fill-rule:evenodd;fill:rgb(16.470589%,43.529412%,63.137257%);fill-opacity:1;" d="M 16.066406 20.886719 C 16.066406 20.875 16.0625 20.867188 16.0625 20.855469 C 16.074219 20.839844 16.082031 20.820312 16.09375 20.800781 C 16.71875 19.785156 16.8125 18.722656 16.386719 17.609375 C 16.304688 17.386719 16.175781 17.191406 16.066406 16.984375 C 16.117188 16.855469 16.234375 16.773438 16.292969 16.652344 C 16.300781 16.648438 16.308594 16.644531 16.3125 16.644531 C 16.445312 16.683594 16.582031 16.679688 16.714844 16.699219 C 16.71875 16.699219 16.722656 16.703125 16.726562 16.707031 C 16.726562 16.722656 16.722656 16.742188 16.726562 16.757812 C 16.980469 18.078125 18.105469 19.191406 19.441406 19.449219 C 19.449219 19.457031 19.457031 19.460938 19.46875 19.46875 C 19.519531 19.675781 19.539062 19.894531 19.539062 20.105469 C 19.542969 21.332031 19.542969 22.558594 19.539062 23.785156 C 19.539062 23.953125 19.527344 24.128906 19.480469 24.304688 C 19.324219 24.226562 19.203125 24.105469 19.085938 23.988281 C 18.195312 23.105469 17.308594 22.21875 16.421875 21.328125 C 16.285156 21.195312 16.175781 21.042969 16.066406 20.886719 "/>
<path style=" stroke:none;fill-rule:evenodd;fill:rgb(21.960784%,59.607846%,41.960785%);fill-opacity:1;" d="M 19.46875 19.46875 C 19.457031 19.460938 19.449219 19.457031 19.441406 19.449219 C 19.472656 19.425781 19.460938 19.398438 19.453125 19.371094 C 19.3125 18.75 19.03125 18.207031 18.597656 17.746094 C 18.082031 17.199219 17.460938 16.855469 16.726562 16.707031 C 16.722656 16.703125 16.71875 16.699219 16.714844 16.699219 C 16.691406 16.570312 16.691406 16.441406 16.648438 16.316406 C 16.65625 16.304688 16.660156 16.292969 16.667969 16.277344 C 16.773438 16.199219 16.878906 16.117188 16.980469 16.039062 C 16.992188 16.039062 17.003906 16.042969 17.011719 16.042969 C 17.105469 16.097656 17.195312 16.160156 17.292969 16.214844 C 18 16.589844 18.75 16.707031 19.542969 16.570312 C 20.019531 16.488281 20.464844 16.316406 20.863281 16.042969 L 20.90625 16.042969 C 21.972656 16.945312 22.894531 17.996094 23.898438 18.960938 C 24.050781 19.105469 24.199219 19.257812 24.316406 19.433594 C 24.324219 19.441406 24.332031 19.457031 24.335938 19.464844 C 24.203125 19.496094 24.070312 19.515625 23.933594 19.519531 C 22.617188 19.519531 21.300781 19.519531 19.980469 19.515625 C 19.8125 19.515625 19.640625 19.484375 19.46875 19.46875 "/>
<path style=" stroke:none;fill-rule:evenodd;fill:rgb(86.274511%,29.019609%,7.450981%);fill-opacity:1;" d="M 12.644531 12.617188 C 12.582031 12.421875 12.570312 12.21875 12.566406 12.019531 C 12.5625 10.761719 12.5625 9.511719 12.566406 8.253906 C 12.566406 8.09375 12.601562 7.929688 12.617188 7.769531 C 12.769531 7.855469 12.898438 7.96875 13.019531 8.089844 C 13.90625 8.96875 14.792969 9.847656 15.664062 10.734375 C 16.222656 11.300781 16.546875 11.988281 16.628906 12.789062 C 16.710938 13.566406 16.546875 14.285156 16.148438 14.957031 C 16.050781 15.121094 15.925781 15.269531 15.8125 15.425781 C 15.804688 15.433594 15.796875 15.433594 15.789062 15.433594 C 15.652344 15.417969 15.519531 15.398438 15.382812 15.378906 C 15.378906 15.335938 15.371094 15.289062 15.363281 15.246094 C 15.238281 14.691406 14.984375 14.199219 14.613281 13.769531 C 14.285156 13.386719 13.886719 13.082031 13.417969 12.871094 C 13.167969 12.761719 12.90625 12.6875 12.644531 12.617188 "/>
<path style=" stroke:none;fill-rule:evenodd;fill:rgb(50.980395%,72.941178%,21.568628%);fill-opacity:1;" d="M 17.011719 16.042969 C 17.003906 16.042969 16.992188 16.039062 16.980469 16.039062 C 16.886719 15.957031 16.789062 15.875 16.679688 15.808594 C 16.652344 15.660156 16.710938 15.519531 16.714844 15.378906 C 16.714844 15.371094 16.722656 15.371094 16.726562 15.367188 C 17.3125 15.246094 17.839844 15.003906 18.292969 14.613281 C 18.886719 14.109375 19.269531 13.480469 19.441406 12.722656 C 19.453125 12.683594 19.472656 12.648438 19.410156 12.636719 C 19.429688 12.628906 19.449219 12.621094 19.46875 12.613281 C 19.648438 12.597656 19.828125 12.566406 20.007812 12.566406 C 21.308594 12.5625 22.609375 12.5625 23.910156 12.5625 C 24.054688 12.5625 24.195312 12.582031 24.335938 12.613281 C 24.226562 12.769531 24.105469 12.914062 23.96875 13.050781 C 23.097656 13.917969 22.222656 14.792969 21.351562 15.667969 C 21.214844 15.804688 21.042969 15.902344 20.90625 16.042969 C 20.894531 16.042969 20.878906 16.042969 20.863281 16.042969 C 20.738281 15.933594 20.589844 15.863281 20.441406 15.792969 C 19.753906 15.464844 19.03125 15.378906 18.285156 15.511719 C 17.824219 15.597656 17.394531 15.765625 17.011719 16.042969 "/>
<path style=" stroke:none;fill-rule:evenodd;fill:rgb(18.431373%,1.176471%,7.843138%);fill-opacity:1;" d="M 19.394531 12.605469 C 19.457031 12.617188 19.484375 12.589844 19.472656 12.628906 C 19.355469 13.40625 18.886719 14.109375 18.292969 14.613281 C 17.839844 15.003906 17.3125 15.246094 16.726562 15.367188 C 16.847656 14.714844 17.140625 14.152344 17.589844 13.667969 C 18.089844 13.136719 18.730469 12.703125 19.441406 12.546875 "/>
<path style=" stroke:none;fill-rule:evenodd;fill:rgb(75.686276%,86.274511%,45.09804%);fill-opacity:1;" d="M 16.660156 15.808594 C 16.554688 15.675781 16.402344 15.582031 16.3125 15.433594 C 16.445312 15.417969 16.578125 15.398438 16.714844 15.378906 C 16.710938 15.519531 16.652344 15.660156 16.679688 15.808594 C 16.675781 15.808594 16.667969 15.808594 16.660156 15.808594 "/>
<path style=" stroke:none;fill-rule:evenodd;fill:rgb(92.941177%,36.862746%,53.333336%);fill-opacity:1;" d="M 7.738281 19.472656 C 6.347656 19.269531 5.175781 18.144531 4.894531 16.738281 C 4.539062 14.964844 5.566406 13.242188 7.292969 12.710938 C 7.4375 12.667969 7.582031 12.628906 7.738281 12.613281 C 7.746094 12.613281 7.757812 12.613281 7.769531 12.613281 C 7.851562 12.738281 7.941406 12.855469 8.046875 12.957031 C 8.960938 13.871094 9.875 14.785156 10.789062 15.699219 C 10.910156 15.820312 11.046875 15.925781 11.195312 16.019531 C 11.191406 16.070312 11.148438 16.089844 11.109375 16.121094 C 11 16.207031 10.886719 16.285156 10.789062 16.382812 C 9.867188 17.300781 8.949219 18.222656 8.027344 19.140625 C 7.929688 19.238281 7.84375 19.347656 7.769531 19.464844 C 7.761719 19.46875 7.75 19.46875 7.738281 19.472656 "/>
<path style=" stroke:none;fill-rule:evenodd;fill:rgb(80.784315%,11.372549%,17.647059%);fill-opacity:1;" d="M 12.644531 12.613281 C 12.90625 12.6875 13.167969 12.757812 13.417969 12.871094 C 13.886719 13.085938 14.285156 13.390625 14.613281 13.777344 C 14.984375 14.207031 15.238281 14.707031 15.363281 15.261719 C 15.371094 15.308594 15.378906 15.355469 15.382812 15.402344 C 15.402344 15.550781 15.457031 15.699219 15.417969 15.855469 C 15.308594 15.917969 15.195312 15.980469 15.121094 16.089844 C 15.109375 16.089844 15.09375 16.089844 15.078125 16.089844 C 15.058594 16 14.972656 15.988281 14.910156 15.949219 C 14.453125 15.671875 13.949219 15.535156 13.425781 15.480469 C 13.246094 15.4375 13.074219 15.4375 12.894531 15.480469 C 12.714844 15.507812 12.527344 15.53125 12.347656 15.570312 C 11.953125 15.660156 11.59375 15.835938 11.25 16.042969 C 11.230469 16.042969 11.214844 16.042969 11.195312 16.042969 C 11.046875 15.953125 10.910156 15.84375 10.789062 15.722656 C 9.875 14.800781 8.960938 13.878906 8.046875 12.957031 C 7.941406 12.855469 7.851562 12.738281 7.769531 12.613281 C 7.902344 12.582031 8.035156 12.5625 8.167969 12.5625 C 9.488281 12.558594 10.808594 12.558594 12.128906 12.5625 C 12.300781 12.566406 12.472656 12.597656 12.644531 12.613281 "/>
<path style=" stroke:none;fill-rule:evenodd;fill:rgb(71.372551%,17.647059%,34.509805%);fill-opacity:1;" d="M 15.078125 16.0625 C 15.09375 16.0625 15.109375 16.0625 15.121094 16.0625 C 15.242188 16.109375 15.316406 16.214844 15.425781 16.273438 C 15.449219 16.417969 15.40625 16.558594 15.390625 16.699219 C 15.386719 16.699219 15.378906 16.703125 15.378906 16.707031 C 14.621094 16.859375 13.980469 17.222656 13.464844 17.792969 C 13.039062 18.261719 12.757812 18.8125 12.640625 19.441406 C 12.640625 19.449219 12.636719 19.457031 12.636719 19.464844 C 11.136719 19.582031 9.640625 19.488281 8.144531 19.515625 C 8.019531 19.519531 7.890625 19.5 7.769531 19.464844 C 7.84375 19.347656 7.929688 19.238281 8.027344 19.140625 C 8.949219 18.222656 9.867188 17.300781 10.789062 16.382812 C 10.886719 16.285156 11 16.207031 11.109375 16.121094 C 11.148438 16.089844 11.191406 16.070312 11.195312 16.019531 C 11.214844 16.019531 11.230469 16.019531 11.25 16.019531 C 11.242188 16.054688 11.269531 16.070312 11.292969 16.085938 C 11.96875 16.511719 12.707031 16.683594 13.5 16.613281 C 14.066406 16.566406 14.597656 16.371094 15.078125 16.0625 "/>
<path style=" stroke:none;fill-rule:evenodd;fill:rgb(18.431373%,1.176471%,7.843138%);fill-opacity:1;" d="M 12.640625 19.441406 C 12.730469 18.792969 13.019531 18.226562 13.449219 17.753906 C 13.964844 17.183594 14.636719 16.847656 15.394531 16.699219 C 15.347656 17.0625 15.195312 17.40625 15.015625 17.722656 C 14.488281 18.695312 13.578125 19.382812 12.632812 19.464844 "/>
<path style=" stroke:none;fill-rule:evenodd;fill:rgb(18.431373%,1.176471%,7.843138%);fill-opacity:1;" d="M 16.066406 16.984375 C 16.175781 17.191406 16.304688 17.386719 16.386719 17.609375 C 16.8125 18.722656 16.773438 19.804688 16.148438 20.820312 C 16.136719 20.835938 16.074219 20.894531 16.0625 20.910156 C 15.828125 20.613281 15.683594 20.210938 15.585938 19.847656 C 15.324219 18.847656 15.46875 17.902344 16.023438 17.027344 C 16.035156 17.015625 16.035156 16.996094 16.042969 16.980469 C 16.042969 16.980469 16.054688 16.980469 16.054688 16.980469 Z M 16.066406 16.984375 "/>
<path style=" stroke:none;fill-rule:evenodd;fill:rgb(66.666669%,50.588238%,72.156864%);fill-opacity:1;" d="M 15.390625 16.699219 C 15.40625 16.558594 15.449219 16.417969 15.425781 16.273438 C 15.425781 16.273438 15.4375 16.269531 15.4375 16.269531 L 15.445312 16.269531 C 15.550781 16.40625 15.699219 16.496094 15.792969 16.644531 C 15.65625 16.664062 15.523438 16.683594 15.390625 16.699219 "/>
<path style=" stroke:none;fill-rule:evenodd;fill:rgb(34.117648%,68.627453%,78.823531%);fill-opacity:1;" d="M 16.066406 16.984375 L 16.054688 16.980469 C 16.054688 16.980469 16.042969 16.980469 16.042969 16.980469 C 15.988281 16.855469 15.875 16.773438 15.8125 16.652344 C 15.972656 16.628906 16.132812 16.628906 16.292969 16.652344 C 16.234375 16.773438 16.117188 16.855469 16.066406 16.984375 "/>
<path style=" stroke:none;fill-rule:evenodd;fill:rgb(18.431373%,1.176471%,7.843138%);fill-opacity:1;" d="M 16.726562 16.707031 C 17.460938 16.855469 18.082031 17.199219 18.597656 17.746094 C 19.03125 18.207031 19.332031 18.746094 19.472656 19.363281 C 19.480469 19.390625 19.5 19.449219 19.46875 19.472656 C 18.136719 19.214844 16.980469 18.078125 16.726562 16.757812 C 16.722656 16.742188 16.726562 16.722656 16.726562 16.707031 "/>
<path style=" stroke:none;fill-rule:evenodd;fill:rgb(34.117648%,68.627453%,78.823531%);fill-opacity:1;" d="M 16.3125 16.644531 C 16.410156 16.519531 16.511719 16.398438 16.648438 16.316406 C 16.691406 16.441406 16.691406 16.570312 16.714844 16.699219 C 16.582031 16.679688 16.445312 16.683594 16.3125 16.644531 "/>
<path style=" stroke:none;fill-rule:evenodd;fill:rgb(18.431373%,1.176471%,7.843138%);fill-opacity:1;" d="M 17.015625 16.007812 C 17.394531 15.730469 17.824219 15.597656 18.285156 15.511719 C 19.03125 15.378906 19.765625 15.464844 20.453125 15.792969 C 20.605469 15.863281 20.785156 15.929688 20.910156 16.039062 C 20.507812 16.316406 20.019531 16.488281 19.542969 16.570312 C 18.75 16.707031 18 16.589844 17.292969 16.214844 C 17.195312 16.160156 17.070312 16.09375 16.980469 16.035156 "/>
<path style=" stroke:none;fill-rule:evenodd;fill:rgb(64.705884%,82.352942%,49.019608%);fill-opacity:1;" d="M 16.660156 15.808594 C 16.667969 15.808594 16.675781 15.808594 16.679688 15.808594 C 16.789062 15.875 16.886719 15.957031 16.980469 16.039062 C 16.878906 16.117188 16.773438 16.199219 16.667969 16.277344 C 16.636719 16.121094 16.644531 15.964844 16.660156 15.808594 "/>
<path style=" stroke:none;fill-rule:evenodd;fill:rgb(92.941177%,47.450981%,52.156866%);fill-opacity:1;" d="M 15.417969 15.828125 C 15.457031 15.675781 15.382812 15.449219 15.363281 15.300781 C 15.496094 15.320312 15.652344 15.417969 15.789062 15.433594 C 15.71875 15.550781 15.617188 15.636719 15.519531 15.726562 C 15.484375 15.757812 15.449219 15.785156 15.445312 15.835938 C 15.433594 15.832031 15.425781 15.832031 15.417969 15.828125 "/>
<path style=" stroke:none;fill-rule:evenodd;fill:rgb(92.941177%,36.862746%,53.333336%);fill-opacity:1;" d="M 15.417969 15.828125 C 15.425781 15.832031 15.433594 15.832031 15.445312 15.835938 C 15.464844 15.980469 15.460938 16.128906 15.445312 16.269531 C 15.445312 16.269531 15.4375 16.269531 15.4375 16.269531 C 15.4375 16.269531 15.425781 16.273438 15.425781 16.273438 C 15.316406 16.214844 15.242188 16.109375 15.121094 16.0625 C 15.195312 15.953125 15.308594 15.890625 15.417969 15.828125 "/>
<path style=" stroke:none;fill-rule:evenodd;fill:rgb(18.431373%,1.176471%,7.843138%);fill-opacity:1;" d="M 15.082031 16.097656 C 14.597656 16.410156 14.066406 16.597656 13.5 16.644531 C 12.601562 16.730469 11.730469 16.488281 11.183594 16.019531 C 12.359375 15.261719 14.265625 15.214844 15.121094 16.0625 "/>
<path style=" stroke:none;fill-rule:evenodd;fill:rgb(18.431373%,1.176471%,7.843138%);fill-opacity:1;" d="M 15.332031 15.324219 C 15.394531 15.316406 15.375 15.28125 15.363281 15.242188 C 15.191406 14.480469 14.808594 13.855469 14.214844 13.347656 C 13.761719 12.960938 13.222656 12.730469 12.636719 12.613281 C 12.757812 13.261719 13.066406 13.8125 13.511719 14.292969 C 14.011719 14.828125 14.621094 15.167969 15.332031 15.324219 "/>
<path style=" stroke:none;fill-rule:evenodd;fill:rgb(18.431373%,1.176471%,7.843138%);fill-opacity:1;" d="M 16.128906 11.269531 C 16.238281 11.46875 16.367188 11.660156 16.453125 11.871094 C 16.875 12.941406 16.78125 13.96875 16.15625 14.945312 C 16.144531 14.964844 16.136719 14.980469 16.125 15 C 15.890625 14.710938 15.746094 14.378906 15.652344 14.027344 C 15.386719 13.0625 15.527344 12.152344 16.082031 11.308594 C 16.089844 11.292969 16.097656 11.28125 16.105469 11.269531 C 16.105469 11.269531 16.117188 11.269531 16.117188 11.269531 Z M 16.128906 11.269531 "/>
<path style=" stroke:none;fill-rule:evenodd;fill:rgb(85.09804%,67.058825%,9.019608%);fill-opacity:1;" d="M 19.476562 7.699219 C 19.523438 8.003906 19.53125 8.308594 19.53125 8.617188 C 19.527344 9.707031 19.527344 10.796875 19.527344 11.886719 C 19.527344 12.136719 19.578125 12.371094 19.476562 12.605469 C 18.480469 12.792969 17.5 13.699219 17.101562 14.394531 C 16.925781 14.710938 16.777344 15 16.730469 15.371094 C 16.722656 15.371094 16.730469 15.371094 16.726562 15.371094 C 16.59375 15.394531 16.613281 15.394531 16.566406 15.40625 C 16.539062 15.402344 16.324219 15.453125 16.328125 15.464844 C 16.230469 15.285156 16.191406 15.199219 16.117188 14.996094 C 16.667969 14.105469 16.800781 13.25 16.535156 12.234375 C 16.425781 11.871094 16.257812 11.503906 16.101562 11.273438 C 16.136719 11.199219 16.160156 11.175781 16.292969 10.941406 C 16.832031 10.089844 17.707031 9.4375 18.421875 8.699219 C 18.734375 8.371094 19.035156 8.03125 19.390625 7.75 C 19.417969 7.730469 19.441406 7.703125 19.476562 7.699219 "/>
</g>
</svg>
