
<svg xmlns="http://www.w3.org/2000/svg" xmlns:xlink="http://www.w3.org/1999/xlink" width="32px" height="32px" viewBox="0 0 32 32" version="1.1">
<g id="surface1">
<path style="fill-rule:nonzero;fill:rgb(28.235295%,33.333334%,43.921569%);fill-opacity:1;stroke-width:23.5;stroke-linecap:butt;stroke-linejoin:miter;stroke:rgb(0%,0%,0%);stroke-opacity:1;stroke-miterlimit:4;" d="M 87.125 23.875 L 427.0625 23.875 C 460.8125 23.875 488.125 51.1875 488.125 84.9375 L 488.125 431.375 C 488.125 465.125 460.8125 492.4375 427.0625 492.4375 L 87.125 492.4375 C 53.375 492.4375 26.0625 465.125 26.0625 431.375 L 26.0625 84.9375 C 26.0625 51.1875 53.375 23.875 87.125 23.875 Z M 87.125 23.875 " transform="matrix(0.0625,0,0,0.0625,0,0)"/>
<path style=" stroke:none;fill-rule:nonzero;fill:rgb(83.529413%,16.470589%,23.529412%);fill-opacity:1;" d="M 20.042969 25.964844 C 19.097656 25.527344 18.191406 24.402344 17.675781 23.015625 C 17.210938 21.769531 17.097656 19.683594 17.402344 17.945312 C 17.824219 15.5625 18.972656 12.832031 20.46875 10.683594 L 21.339844 9.433594 L 22.167969 10.714844 C 23.808594 13.257812 24.703125 15.441406 25.148438 17.980469 C 25.449219 19.6875 25.46875 20.824219 25.222656 22.019531 C 24.832031 23.910156 23.652344 25.558594 22.324219 26.0625 C 21.371094 26.425781 20.996094 26.410156 20.042969 25.964844 Z M 20.042969 25.964844 "/>
<path style=" stroke:none;fill-rule:nonzero;fill:rgb(21.568628%,67.450982%,94.509804%);fill-opacity:1;" d="M 14.835938 20.855469 C 13.886719 20.417969 12.988281 19.292969 12.46875 17.902344 C 12.003906 16.660156 11.894531 14.574219 12.199219 12.835938 C 12.613281 10.449219 13.769531 7.722656 15.261719 5.574219 L 16.128906 4.324219 L 16.957031 5.605469 C 18.597656 8.148438 19.496094 10.332031 19.941406 12.871094 C 20.238281 14.578125 20.261719 15.714844 20.015625 16.910156 C 19.625 18.796875 18.441406 20.449219 17.117188 20.953125 C 16.167969 21.3125 15.785156 21.296875 14.835938 20.855469 Z M 14.835938 20.855469 "/>
<path style=" stroke:none;fill-rule:nonzero;fill:rgb(94.117647%,72.941178%,21.568628%);fill-opacity:1;" d="M 10.183594 25.816406 C 9.238281 25.375 8.335938 24.25 7.820312 22.863281 C 7.355469 21.613281 7.242188 19.527344 7.546875 17.792969 C 7.964844 15.410156 9.117188 12.679688 10.613281 10.527344 L 11.480469 9.28125 L 12.308594 10.5625 C 13.949219 13.105469 14.847656 15.292969 15.292969 17.828125 C 15.589844 19.535156 15.613281 20.671875 15.363281 21.867188 C 14.976562 23.753906 13.792969 25.402344 12.464844 25.910156 C 11.519531 26.269531 11.136719 26.253906 10.183594 25.816406 Z M 10.183594 25.816406 "/>
</g>
</svg>
