
<svg xmlns="http://www.w3.org/2000/svg" xmlns:xlink="http://www.w3.org/1999/xlink" width="32px" height="32px" viewBox="0 0 32 32" version="1.1">
<g id="surface1">
<path style="fill-rule:nonzero;fill:rgb(29.803923%,29.803923%,29.803923%);fill-opacity:1;stroke-width:27.27438;stroke-linecap:butt;stroke-linejoin:miter;stroke:rgb(90.196079%,90.196079%,90.196079%);stroke-opacity:1;stroke-miterlimit:4;" d="M 85.3125 35 L 426.6875 35 C 457.125 35 481.8125 59.1875 481.8125 88.9375 L 481.8125 423.0625 C 481.8125 452.8125 457.125 477 426.6875 477 L 85.3125 477 C 54.875 477 30.1875 452.8125 30.1875 423.0625 L 30.1875 88.9375 C 30.1875 59.1875 54.875 35 85.3125 35 Z M 85.3125 35 " transform="matrix(0.0625,0,0,0.0625,0,0)"/>
<path style=" stroke:none;fill-rule:nonzero;fill:rgb(90.196079%,90.196079%,90.196079%);fill-opacity:1;" d="M 6.039062 28.761719 C 5.984375 28.359375 5.621094 27.464844 5.457031 27.324219 C 5.335938 27.214844 5.246094 27.195312 4.898438 27.195312 C 4.667969 27.195312 4.289062 27.179688 4.050781 27.160156 L 3.613281 27.121094 L 3.558594 26.917969 C 3.503906 26.695312 3.410156 25.957031 3.371094 25.402344 L 3.34375 25.058594 L 4.242188 24.839844 L 5.136719 24.621094 L 5.203125 24.074219 C 5.238281 23.777344 5.289062 23.230469 5.308594 22.855469 C 5.34375 22.28125 5.339844 22.179688 5.261719 22.152344 C 4.878906 22.015625 3.777344 21.445312 3.746094 21.371094 C 3.675781 21.183594 4.238281 19.542969 4.394531 19.484375 C 4.441406 19.464844 4.847656 19.519531 5.300781 19.605469 C 5.75 19.691406 6.144531 19.742188 6.171875 19.722656 C 6.253906 19.675781 6.628906 19.105469 6.878906 18.660156 C 7.0625 18.324219 7.082031 18.261719 7.011719 18.175781 C 6.972656 18.121094 6.738281 17.835938 6.492188 17.542969 C 5.902344 16.832031 5.886719 16.800781 6.078125 16.550781 C 6.28125 16.28125 7.011719 15.492188 7.183594 15.359375 C 7.328125 15.242188 7.324219 15.238281 8.484375 16.058594 L 8.839844 16.308594 L 9.109375 16.121094 C 10.039062 15.460938 10.203125 15.320312 10.203125 15.191406 C 10.203125 15.121094 10.136719 14.84375 10.058594 14.582031 C 9.777344 13.660156 9.746094 13.46875 9.855469 13.371094 C 10.011719 13.230469 11.371094 12.597656 11.519531 12.597656 C 11.625 12.597656 11.703125 12.671875 11.855469 12.917969 C 12.335938 13.699219 12.59375 14.082031 12.664062 14.105469 C 12.835938 14.171875 14.617188 13.699219 14.6875 13.566406 C 14.714844 13.519531 14.765625 13.234375 14.800781 12.9375 C 14.835938 12.640625 14.894531 12.261719 14.925781 12.097656 L 14.980469 11.800781 L 16.015625 11.816406 L 17.046875 11.832031 L 17.109375 12.398438 C 17.207031 13.300781 17.246094 13.496094 17.347656 13.617188 C 17.421875 13.699219 17.652344 13.777344 18.261719 13.902344 C 18.714844 13.996094 19.152344 14.074219 19.238281 14.074219 C 19.398438 14.074219 19.558594 13.859375 20.144531 12.867188 C 20.253906 12.6875 20.371094 12.542969 20.414062 12.542969 C 20.527344 12.542969 21.667969 13.0625 21.945312 13.238281 C 22.253906 13.433594 22.253906 13.492188 21.957031 14.441406 L 21.722656 15.179688 L 21.964844 15.398438 C 22.101562 15.519531 22.417969 15.753906 22.667969 15.917969 C 23.199219 16.277344 23.105469 16.292969 24.042969 15.660156 C 24.363281 15.441406 24.660156 15.269531 24.707031 15.269531 C 24.863281 15.269531 26.050781 16.59375 26.050781 16.769531 C 26.050781 16.824219 25.488281 17.542969 24.988281 18.113281 C 24.917969 18.199219 24.925781 18.246094 25.058594 18.511719 C 25.203125 18.796875 25.800781 19.753906 25.835938 19.753906 C 25.84375 19.753906 26.222656 19.675781 26.675781 19.582031 C 27.128906 19.488281 27.527344 19.414062 27.566406 19.414062 C 27.605469 19.414062 27.6875 19.511719 27.746094 19.628906 C 27.886719 19.902344 28.265625 21.097656 28.265625 21.269531 C 28.265625 21.378906 28.152344 21.453125 27.496094 21.777344 C 27.074219 21.984375 26.703125 22.199219 26.675781 22.253906 C 26.621094 22.359375 26.808594 24.292969 26.898438 24.5 C 26.9375 24.59375 27.066406 24.644531 27.535156 24.746094 C 28.667969 24.996094 28.632812 24.980469 28.652344 25.238281 C 28.675781 25.472656 28.582031 26.34375 28.488281 26.832031 L 28.429688 27.121094 L 27.652344 27.160156 C 26.519531 27.21875 26.511719 27.21875 26.386719 27.515625 C 26.183594 27.992188 25.929688 28.8125 25.957031 28.910156 C 25.980469 29.003906 25.90625 29.011719 24.832031 29.011719 L 23.683594 29.011719 L 23.980469 28.410156 C 24.332031 27.699219 24.574219 26.996094 24.75 26.171875 C 24.921875 25.359375 24.9375 23.753906 24.777344 22.90625 C 24.363281 20.660156 23.121094 18.65625 21.308594 17.296875 C 20.75 16.878906 19.46875 16.214844 18.78125 15.984375 C 17.820312 15.664062 17.253906 15.582031 15.996094 15.585938 C 14.683594 15.585938 14.164062 15.667969 13.089844 16.039062 C 10.273438 17.015625 8.070312 19.441406 7.34375 22.371094 C 6.859375 24.320312 7.203125 27.035156 8.136719 28.632812 C 8.242188 28.8125 8.328125 28.972656 8.328125 28.988281 C 8.328125 29 7.820312 29.011719 7.199219 29.011719 L 6.074219 29.011719 Z M 6.039062 28.761719 "/>
</g>
</svg>
