
<svg xmlns="http://www.w3.org/2000/svg" xmlns:xlink="http://www.w3.org/1999/xlink" width="32px" height="32px" viewBox="0 0 32 32" version="1.1">
<g id="surface1">
<path style="fill-rule:nonzero;fill:rgb(100%,83.529413%,83.529413%);fill-opacity:1;stroke-width:7.034781;stroke-linecap:butt;stroke-linejoin:miter;stroke:rgb(29.019609%,68.235296%,90.980393%);stroke-opacity:1;stroke-miterlimit:4;" d="M 20.453125 6.390625 L 107.546875 6.390625 C 115.328125 6.390625 121.609375 12.671875 121.609375 20.453125 L 121.609375 107.546875 C 121.609375 115.328125 115.328125 121.609375 107.546875 121.609375 L 20.453125 121.609375 C 12.671875 121.609375 6.390625 115.328125 6.390625 107.546875 L 6.390625 20.453125 C 6.390625 12.671875 12.671875 6.390625 20.453125 6.390625 Z M 20.453125 6.390625 " transform="matrix(0.25,0,0,0.25,0,0)"/>
<path style=" stroke:none;fill-rule:nonzero;fill:rgb(66.274512%,66.274512%,66.274512%);fill-opacity:1;" d="M 25.558594 3.285156 C 25.558594 3.285156 23.339844 3.742188 20.785156 4.324219 C 18.8125 4.769531 16.039062 5.570312 14.796875 7.1875 C 13.738281 8.566406 11.089844 10.542969 8.183594 12.425781 C 10.015625 11.96875 11.800781 11.429688 13.628906 9.972656 C 16.089844 8.015625 16.996094 6.613281 18.910156 6.027344 C 20.820312 5.449219 23.769531 5.238281 25.558594 3.285156 Z M 25.558594 3.285156 "/>
<path style=" stroke:none;fill-rule:nonzero;fill:rgb(66.274512%,66.274512%,66.274512%);fill-opacity:1;" d="M 21.015625 6.730469 C 18.660156 8.910156 17.847656 9.875 14.660156 11.472656 C 12.324219 12.648438 10.003906 12.972656 7.46875 13.300781 C 4.933594 13.636719 4.324219 13.644531 3.523438 14.714844 C 2.898438 15.554688 2.855469 17.527344 4.640625 18.660156 C 4.640625 18.660156 3.769531 17.707031 3.851562 16.792969 C 3.933594 15.878906 4.605469 14.753906 6.101562 14.550781 C 7.597656 14.339844 9.214844 14.382812 12.042969 13.71875 C 14.867188 13.050781 15.886719 12.488281 17.40625 11.472656 C 18.527344 10.726562 19.976562 9.183594 21.015625 6.730469 Z M 21.015625 6.730469 "/>
<path style=" stroke:none;fill-rule:nonzero;fill:rgb(78.039217%,71.764708%,12.156863%);fill-opacity:1;" d="M 25.613281 18.511719 C 25.019531 18.496094 24.300781 18.679688 23.484375 19.25 C 22.792969 19.730469 21.484375 20.324219 20.746094 20.636719 C 20.007812 20.953125 18.96875 21.175781 18.316406 21.128906 C 17.667969 21.085938 16.667969 20.953125 16.492188 20.414062 C 16.316406 19.875 16.707031 19.558594 16.96875 19.335938 C 17.230469 19.113281 17.402344 18.753906 17.144531 18.707031 C 16.882812 18.664062 14.578125 18.433594 14.058594 18.570312 C 13.535156 18.707031 13.324219 19.152344 13.671875 19.425781 C 14.019531 19.691406 15.316406 20.28125 14.488281 20.59375 C 13.664062 20.910156 13.0625 21.042969 12.453125 21.269531 C 11.847656 21.492188 11.410156 22.167969 11.058594 22.527344 C 10.714844 22.882812 9.761719 23.042969 8.933594 22.65625 C 7.757812 22.105469 6.246094 21.003906 5.285156 19.519531 L 3.9375 19.785156 C 3.835938 19.785156 5.113281 21.9375 6.9375 23.285156 C 8.675781 24.566406 10.144531 25.972656 11.535156 26.421875 C 12.925781 26.871094 15.234375 26.652344 16.015625 26.878906 C 16.796875 27.101562 18.402344 27.050781 19.050781 26.335938 C 19.707031 25.617188 20.960938 24.410156 22.089844 22.792969 C 23.21875 21.175781 23.789062 20.410156 24.484375 20.097656 C 25.179688 19.78125 25.535156 19.800781 26.003906 20.011719 C 26.542969 20.25 27.21875 20.804688 27.128906 21.398438 C 27.03125 22.054688 26.871094 22.472656 25.570312 22.472656 C 24.871094 22.472656 23.917969 22.613281 23.917969 22.613281 C 23.441406 22.613281 23.574219 23.195312 23.617188 23.507812 C 23.660156 23.824219 24.050781 24.050781 24.308594 24.050781 C 24.570312 24.050781 26.652344 24.136719 27.261719 23.644531 C 27.871094 23.152344 28.324219 22.464844 28.4375 21.621094 C 28.578125 20.589844 27.875 19.757812 27.179688 19.113281 C 26.917969 18.871094 26.371094 18.53125 25.613281 18.511719 Z M 25.613281 18.511719 "/>
</g>
</svg>
