
<svg xmlns="http://www.w3.org/2000/svg" xmlns:xlink="http://www.w3.org/1999/xlink" width="32px" height="32px" viewBox="0 0 32 32" version="1.1">
<g id="surface1">
<path style="fill-rule:nonzero;fill:rgb(52.941179%,80.392158%,87.058824%);fill-opacity:1;stroke-width:28.191782;stroke-linecap:butt;stroke-linejoin:miter;stroke:rgb(0%,41.568628%,72.549021%);stroke-opacity:1;stroke-miterlimit:4;" d="M 81.5 25.0625 L 430.5 25.0625 C 461.6875 25.0625 486.9375 50.3125 486.9375 81.5 L 486.9375 430.5 C 486.9375 461.6875 461.6875 486.9375 430.5 486.9375 L 81.5 486.9375 C 50.3125 486.9375 25.0625 461.6875 25.0625 430.5 L 25.0625 81.5 C 25.0625 50.3125 50.3125 25.0625 81.5 25.0625 Z M 81.5 25.0625 " transform="matrix(0.0625,0,0,0.0625,0,0)"/>
<path style="fill:none;stroke-width:16.944517;stroke-linecap:round;stroke-linejoin:round;stroke:rgb(100%,100%,100%);stroke-opacity:1;stroke-miterlimit:4;" d="M 383.988644 190.888026 L 112.863644 190.888026 " transform="matrix(0.0625,0,0,0.0625,0.473366,-3.614095)"/>
<path style="fill:none;stroke-width:16.944517;stroke-linecap:round;stroke-linejoin:round;stroke:rgb(100%,100%,100%);stroke-opacity:1;stroke-miterlimit:4;" d="M 383.988644 241.763026 L 112.863644 241.763026 " transform="matrix(0.0625,0,0,0.0625,0.473366,-3.614095)"/>
<path style="fill:none;stroke-width:16.944517;stroke-linecap:round;stroke-linejoin:round;stroke:rgb(100%,100%,100%);stroke-opacity:1;stroke-miterlimit:4;" d="M 383.988644 292.575526 L 112.863644 292.575526 " transform="matrix(0.0625,0,0,0.0625,0.473366,-3.614095)"/>
<path style="fill:none;stroke-width:16.944517;stroke-linecap:round;stroke-linejoin:round;stroke:rgb(100%,100%,100%);stroke-opacity:1;stroke-miterlimit:4;" d="M 383.988644 343.388026 L 112.863644 343.388026 " transform="matrix(0.0625,0,0,0.0625,0.473366,-3.614095)"/>
<path style="fill:none;stroke-width:16.944517;stroke-linecap:round;stroke-linejoin:round;stroke:rgb(100%,100%,100%);stroke-opacity:1;stroke-miterlimit:4;" d="M 383.988644 385.888026 L 112.863644 385.888026 " transform="matrix(0.0625,0,0,0.0625,0.473366,-3.614095)"/>
<path style="fill:none;stroke-width:16.944517;stroke-linecap:round;stroke-linejoin:round;stroke:rgb(100%,100%,100%);stroke-opacity:1;stroke-miterlimit:4;" d="M 383.988644 436.763026 L 112.863644 436.763026 " transform="matrix(0.0625,0,0,0.0625,0.473366,-3.614095)"/>
<path style=" stroke:none;fill-rule:evenodd;fill:rgb(12.941177%,40.392157%,47.058824%);fill-opacity:1;" d="M 25.480469 12.265625 C 24.851562 12.859375 23.394531 14.113281 23.394531 14.113281 L 26.808594 17.546875 C 26.808594 17.546875 28.285156 16.03125 28.953125 15.402344 C 29.121094 15.246094 29.097656 14.894531 28.933594 14.738281 C 28.414062 14.246094 27.558594 13.457031 27.558594 13.457031 C 27.558594 13.457031 26.746094 12.6875 26.25 12.21875 C 26.070312 12.046875 25.664062 12.09375 25.480469 48107.90625 Z M 21.898438 15.339844 L 12.777344 23.929688 L 12.855469 27.328125 L 16.417969 27.308594 L 25.4375 18.792969 Z M 21.898438 15.339844 "/>
</g>
</svg>
