<!-- color: #685180 -->
<svg xmlns="http://www.w3.org/2000/svg" xmlns:xlink="http://www.w3.org/1999/xlink" width="32px" height="32px" viewBox="0 0 32 32" version="1.1">
<defs>
<clipPath id="clip1">
  <path d="M 6.25 4.625 L 25.6875 4.625 L 25.6875 27.3125 L 6.25 27.3125 Z M 6.25 4.625 "/>
</clipPath>
<clipPath id="clip2">
  <path d="M 34.527344 15.953125 C 34.527344 26.214844 26.207031 34.53125 15.949219 34.53125 C 5.695312 34.53125 -2.628906 26.214844 -2.628906 15.953125 C -2.628906 5.691406 5.695312 -2.625 15.949219 -2.625 C 26.207031 -2.625 34.527344 5.691406 34.527344 15.953125 Z M 34.527344 15.953125 "/>
</clipPath>
<clipPath id="clip3">
  <path d="M 6.25 15.125 L 25.6875 15.125 L 25.6875 27.3125 L 6.25 27.3125 Z M 6.25 15.125 "/>
</clipPath>
<clipPath id="clip4">
  <path d="M 34.527344 15.953125 C 34.527344 26.214844 26.207031 34.53125 15.949219 34.53125 C 5.695312 34.53125 -2.628906 26.214844 -2.628906 15.953125 C -2.628906 5.691406 5.695312 -2.625 15.949219 -2.625 C 26.207031 -2.625 34.527344 5.691406 34.527344 15.953125 Z M 34.527344 15.953125 "/>
</clipPath>
<clipPath id="clip5">
  <path d="M 17.5625 24.8125 L 18.375 24.8125 L 18.375 25.6875 L 17.5625 25.6875 Z M 17.5625 24.8125 "/>
</clipPath>
<clipPath id="clip6">
  <path d="M 34.527344 15.953125 C 34.527344 26.214844 26.207031 34.53125 15.949219 34.53125 C 5.695312 34.53125 -2.628906 26.214844 -2.628906 15.953125 C -2.628906 5.691406 5.695312 -2.625 15.949219 -2.625 C 26.207031 -2.625 34.527344 5.691406 34.527344 15.953125 Z M 34.527344 15.953125 "/>
</clipPath>
<clipPath id="clip7">
  <path d="M 15.9375 22.8125 L 17.1875 22.8125 L 17.1875 24.0625 L 15.9375 24.0625 Z M 15.9375 22.8125 "/>
</clipPath>
<clipPath id="clip8">
  <path d="M 34.527344 15.953125 C 34.527344 26.214844 26.207031 34.53125 15.949219 34.53125 C 5.695312 34.53125 -2.628906 26.214844 -2.628906 15.953125 C -2.628906 5.691406 5.695312 -2.625 15.949219 -2.625 C 26.207031 -2.625 34.527344 5.691406 34.527344 15.953125 Z M 34.527344 15.953125 "/>
</clipPath>
<clipPath id="clip9">
  <path d="M 16.75 19.9375 L 18.375 19.9375 L 18.375 21.625 L 16.75 21.625 Z M 16.75 19.9375 "/>
</clipPath>
<clipPath id="clip10">
  <path d="M 34.527344 15.953125 C 34.527344 26.214844 26.207031 34.53125 15.949219 34.53125 C 5.695312 34.53125 -2.628906 26.214844 -2.628906 15.953125 C -2.628906 5.691406 5.695312 -2.625 15.949219 -2.625 C 26.207031 -2.625 34.527344 5.691406 34.527344 15.953125 Z M 34.527344 15.953125 "/>
</clipPath>
<clipPath id="clip11">
  <path d="M 15.9375 13.5 L 18.375 13.5 L 18.375 16 L 15.9375 16 Z M 15.9375 13.5 "/>
</clipPath>
<clipPath id="clip12">
  <path d="M 34.527344 15.953125 C 34.527344 26.214844 26.207031 34.53125 15.949219 34.53125 C 5.695312 34.53125 -2.628906 26.214844 -2.628906 15.953125 C -2.628906 5.691406 5.695312 -2.625 15.949219 -2.625 C 26.207031 -2.625 34.527344 5.691406 34.527344 15.953125 Z M 34.527344 15.953125 "/>
</clipPath>
<clipPath id="clip13">
  <path d="M 14.3125 17.125 L 16.375 17.125 L 16.375 19.1875 L 14.3125 19.1875 Z M 14.3125 17.125 "/>
</clipPath>
<clipPath id="clip14">
  <path d="M 34.527344 15.953125 C 34.527344 26.214844 26.207031 34.53125 15.949219 34.53125 C 5.695312 34.53125 -2.628906 26.214844 -2.628906 15.953125 C -2.628906 5.691406 5.695312 -2.625 15.949219 -2.625 C 26.207031 -2.625 34.527344 5.691406 34.527344 15.953125 Z M 34.527344 15.953125 "/>
</clipPath>
</defs>
<g id="surface1">
<path style="fill-rule:nonzero;fill:rgb(100%,100%,100%);fill-opacity:1;stroke-width:6.815335;stroke-linecap:butt;stroke-linejoin:miter;stroke:rgb(29.019609%,68.235296%,90.980393%);stroke-opacity:1;stroke-miterlimit:4;" d="M 21.8125 8.171875 L 106.1875 8.171875 C 113.71875 8.171875 119.828125 14.28125 119.828125 21.8125 L 119.828125 106.1875 C 119.828125 113.71875 113.71875 119.828125 106.1875 119.828125 L 21.8125 119.828125 C 14.28125 119.828125 8.171875 113.71875 8.171875 106.1875 L 8.171875 21.8125 C 8.171875 14.28125 14.28125 8.171875 21.8125 8.171875 Z M 21.8125 8.171875 " transform="matrix(0.25,0,0,0.25,0,0)"/>
<g clip-path="url(#clip1)" clip-rule="nonzero">
<g clip-path="url(#clip2)" clip-rule="nonzero">
<path style=" stroke:none;fill-rule:nonzero;fill:rgb(78.431374%,58.431375%,89.411765%);fill-opacity:1;" d="M 11.640625 4.644531 C 12.714844 5.726562 12.710938 6.589844 12.710938 7.894531 L 12.710938 10.585938 C 8.945312 11.847656 6.253906 15.246094 6.253906 19.257812 C 6.253906 22.695312 8.25 25.699219 11.195312 27.273438 L 20.703125 27.273438 C 23.648438 25.699219 25.644531 22.695312 25.644531 19.257812 C 25.644531 15.253906 22.941406 11.863281 19.183594 10.585938 L 19.183594 7.894531 C 19.183594 6.597656 19.175781 5.730469 20.25 4.644531 L 11.636719 4.644531 M 11.644531 4.644531 "/>
</g>
</g>
<g clip-path="url(#clip3)" clip-rule="nonzero">
<g clip-path="url(#clip4)" clip-rule="nonzero">
<path style=" stroke:none;fill-rule:nonzero;fill:rgb(100%,57.254905%,15.686275%);fill-opacity:1;" d="M 7.269531 15.144531 C 6.621094 16.375 6.257812 17.761719 6.257812 19.234375 C 6.257812 22.671875 8.257812 25.683594 11.207031 27.261719 L 20.695312 27.261719 C 23.644531 25.683594 25.644531 22.671875 25.644531 19.234375 C 25.644531 17.765625 25.28125 16.378906 24.632812 15.144531 M 7.269531 15.144531 "/>
</g>
</g>
<g clip-path="url(#clip5)" clip-rule="nonzero">
<g clip-path="url(#clip6)" clip-rule="nonzero">
<path style=" stroke:none;fill-rule:nonzero;fill:rgb(97.647059%,97.647059%,97.647059%);fill-opacity:1;" d="M 18.375 25.242188 C 18.375 25.464844 18.191406 25.644531 17.972656 25.644531 C 17.746094 25.644531 17.566406 25.464844 17.566406 25.242188 C 17.566406 25.019531 17.746094 24.839844 17.972656 24.839844 C 18.191406 24.839844 18.375 25.019531 18.375 25.242188 M 18.375 25.242188 "/>
</g>
</g>
<g clip-path="url(#clip7)" clip-rule="nonzero">
<g clip-path="url(#clip8)" clip-rule="nonzero">
<path style=" stroke:none;fill-rule:nonzero;fill:rgb(97.647059%,97.647059%,97.647059%);fill-opacity:1;" d="M 17.160156 23.425781 C 17.160156 23.757812 16.890625 24.03125 16.558594 24.03125 C 16.222656 24.03125 15.949219 23.757812 15.949219 23.425781 C 15.949219 23.089844 16.222656 22.816406 16.558594 22.816406 C 16.890625 22.816406 17.160156 23.089844 17.160156 23.425781 M 17.160156 23.425781 "/>
</g>
</g>
<g clip-path="url(#clip9)" clip-rule="nonzero">
<g clip-path="url(#clip10)" clip-rule="nonzero">
<path style=" stroke:none;fill-rule:nonzero;fill:rgb(97.647059%,97.647059%,97.647059%);fill-opacity:1;" d="M 18.375 20.800781 C 18.375 21.246094 18.011719 21.605469 17.566406 21.605469 C 17.121094 21.605469 16.757812 21.246094 16.757812 20.800781 C 16.757812 20.351562 17.121094 19.992188 17.566406 19.992188 C 18.011719 19.992188 18.375 20.355469 18.375 20.800781 M 18.375 20.800781 "/>
</g>
</g>
<g clip-path="url(#clip11)" clip-rule="nonzero">
<g clip-path="url(#clip12)" clip-rule="nonzero">
<path style=" stroke:none;fill-rule:nonzero;fill:rgb(97.647059%,97.647059%,97.647059%);fill-opacity:1;" d="M 18.375 14.742188 C 18.375 15.410156 17.832031 15.953125 17.160156 15.953125 C 16.496094 15.953125 15.949219 15.40625 15.949219 14.742188 C 15.949219 14.074219 16.496094 13.53125 17.160156 13.53125 C 17.832031 13.53125 18.375 14.074219 18.375 14.742188 M 18.375 14.742188 "/>
</g>
</g>
<g clip-path="url(#clip13)" clip-rule="nonzero">
<g clip-path="url(#clip14)" clip-rule="nonzero">
<path style=" stroke:none;fill-rule:nonzero;fill:rgb(97.647059%,97.647059%,97.647059%);fill-opacity:1;" d="M 16.355469 18.175781 C 16.355469 18.730469 15.902344 19.183594 15.347656 19.183594 C 14.785156 19.183594 14.335938 18.730469 14.335938 18.175781 C 14.335938 17.617188 14.785156 17.164062 15.347656 17.164062 C 15.902344 17.164062 16.355469 17.621094 16.355469 18.175781 M 16.355469 18.175781 "/>
</g>
</g>
</g>
</svg>
