
<svg xmlns="http://www.w3.org/2000/svg" xmlns:xlink="http://www.w3.org/1999/xlink" width="32px" height="32px" viewBox="0 0 32 32" version="1.1">
<g id="surface1">
<path style="fill-rule:nonzero;fill:rgb(90.588236%,31.764707%,46.666667%);fill-opacity:1;stroke-width:27.535463;stroke-linecap:butt;stroke-linejoin:miter;stroke:rgb(60.000002%,16.862746%,27.843139%);stroke-opacity:1;stroke-miterlimit:4;" d="M 85.5625 30.4375 L 426.4375 30.4375 C 456.875 30.4375 481.5625 55.125 481.5625 85.5625 L 481.5625 426.4375 C 481.5625 456.875 456.875 481.5625 426.4375 481.5625 L 85.5625 481.5625 C 55.125 481.5625 30.4375 456.875 30.4375 426.4375 L 30.4375 85.5625 C 30.4375 55.125 55.125 30.4375 85.5625 30.4375 Z M 85.5625 30.4375 " transform="matrix(0.0625,0,0,0.0625,0,0)"/>
<path style=" stroke:none;fill-rule:nonzero;fill:rgb(100%,100%,100%);fill-opacity:1;" d="M 11.402344 9.761719 C 8.089844 9.761719 5.40625 12.445312 5.40625 15.753906 C 5.40625 19.066406 8.089844 21.75 11.402344 21.75 C 14.710938 21.75 17.394531 19.066406 17.394531 15.753906 C 17.394531 12.445312 14.714844 9.761719 11.402344 9.761719 M 11.402344 10.984375 C 14.035156 10.984375 16.171875 13.121094 16.171875 15.753906 C 16.171875 18.390625 14.035156 20.527344 11.402344 20.527344 C 8.765625 20.527344 6.628906 18.390625 6.628906 15.753906 C 6.628906 13.121094 8.765625 10.984375 11.402344 10.984375 M 22.28125 11.808594 C 20.097656 11.808594 18.332031 13.574219 18.332031 15.753906 C 18.332031 17.9375 20.097656 19.707031 22.28125 19.707031 C 24.460938 19.707031 26.230469 17.9375 26.230469 15.753906 C 26.230469 13.574219 24.460938 11.808594 22.28125 11.808594 M 22.28125 13.03125 C 23.785156 13.03125 25.003906 14.25 25.003906 15.753906 C 25.003906 17.261719 23.785156 18.480469 22.28125 18.480469 C 20.777344 18.480469 19.554688 17.261719 19.554688 15.753906 C 19.554688 14.25 20.773438 13.03125 22.28125 13.03125 "/>
</g>
</svg>
