
<svg xmlns="http://www.w3.org/2000/svg" xmlns:xlink="http://www.w3.org/1999/xlink" width="32px" height="32px" viewBox="0 0 32 32" version="1.1">
<g id="surface1">
<path style=" stroke:none;fill-rule:evenodd;fill:rgb(73.725492%,71.764708%,69.803923%);fill-opacity:1;" d="M 4.09375 1.890625 L 27.972656 1.890625 C 29.300781 1.890625 30.371094 2.964844 30.371094 4.292969 L 30.371094 27.90625 C 30.371094 29.230469 29.300781 30.304688 27.972656 30.304688 L 4.09375 30.304688 C 2.769531 30.304688 1.695312 29.230469 1.695312 27.90625 L 1.695312 4.292969 C 1.695312 2.964844 2.769531 1.890625 4.09375 1.890625 Z M 4.09375 1.890625 "/>
<path style=" stroke:none;fill-rule:evenodd;fill:rgb(29.411766%,27.450982%,25.490198%);fill-opacity:1;" d="M 2.824219 16.917969 L 29.242188 16.917969 C 29.867188 16.917969 30.371094 17.425781 30.371094 18.050781 L 30.371094 29.171875 C 30.371094 29.796875 29.867188 30.300781 29.242188 30.300781 L 2.824219 30.300781 C 2.199219 30.300781 1.695312 29.796875 1.695312 29.171875 L 1.695312 18.050781 C 1.695312 17.425781 2.199219 16.917969 2.824219 16.917969 Z M 2.824219 16.917969 "/>
<path style=" stroke:none;fill-rule:evenodd;fill:rgb(29.411766%,27.450982%,25.490198%);fill-opacity:1;" d="M 1.695312 16.863281 L 30.371094 16.863281 L 30.371094 22.179688 L 1.695312 22.179688 Z M 1.695312 16.863281 "/>
<path style=" stroke:none;fill-rule:evenodd;fill:rgb(20.392157%,20.392157%,20.392157%);fill-opacity:1;" d="M 19.945312 1.890625 L 27.132812 1.890625 L 27.132812 30.304688 L 19.945312 30.304688 Z M 19.945312 1.890625 "/>
<path style=" stroke:none;fill-rule:nonzero;fill:rgb(10.196079%,10.196079%,10.196079%);fill-opacity:1;" d="M 3.992188 12.46875 L 28.113281 12.46875 L 28.113281 20.566406 L 3.992188 20.566406 Z M 3.992188 12.46875 "/>
<path style=" stroke:none;fill-rule:nonzero;fill:rgb(50.196081%,50.196081%,50.196081%);fill-opacity:1;" d="M 11.871094 12.179688 L 18.222656 12.179688 C 18.445312 12.179688 18.625 12.363281 18.625 12.582031 L 18.625 13.023438 C 18.625 13.246094 18.445312 13.425781 18.222656 13.425781 L 11.871094 13.425781 C 11.644531 13.425781 11.464844 13.246094 11.464844 13.023438 L 11.464844 12.582031 C 11.464844 12.363281 11.644531 12.179688 11.871094 12.179688 Z M 11.871094 12.179688 "/>
<path style=" stroke:none;fill-rule:nonzero;fill:rgb(50.196081%,50.196081%,50.196081%);fill-opacity:1;" d="M 11.871094 19.769531 L 18.222656 19.769531 C 18.445312 19.769531 18.625 19.949219 18.625 20.171875 L 18.625 20.609375 C 18.625 20.832031 18.445312 21.011719 18.222656 21.011719 L 11.871094 21.011719 C 11.644531 21.011719 11.464844 20.832031 11.464844 20.609375 L 11.464844 20.171875 C 11.464844 19.949219 11.644531 19.769531 11.871094 19.769531 Z M 11.871094 19.769531 "/>
<path style=" stroke:none;fill-rule:nonzero;fill:rgb(86.274511%,86.274511%,86.274511%);fill-opacity:1;" d="M 3.667969 10.730469 C 3.480469 10.730469 3.332031 10.878906 3.332031 11.066406 L 3.332031 20.835938 C 3.332031 21.023438 3.480469 21.175781 3.667969 21.175781 L 28.371094 21.175781 C 28.558594 21.175781 28.703125 21.023438 28.703125 20.835938 L 28.703125 11.066406 C 28.703125 10.878906 28.558594 10.730469 28.371094 10.730469 Z M 3.988281 12.46875 L 28.117188 12.46875 L 28.117188 20.5625 L 3.988281 20.5625 Z M 3.988281 12.46875 "/>
<path style="fill-rule:nonzero;fill:rgb(0%,0%,0%);fill-opacity:1;stroke-width:1.932277;stroke-linecap:round;stroke-linejoin:miter;stroke:rgb(100%,100%,100%);stroke-opacity:1;stroke-miterlimit:4;" d="M 87.488286 362.018062 C 84.850176 362.018062 82.777375 364.279299 82.777375 366.91741 L 82.777375 400.647535 L 49.04725 400.647535 C 46.40914 400.647535 44.147902 402.908772 44.147902 405.546882 L 44.147902 432.681732 C 44.147902 435.41406 46.40914 437.581079 49.04725 437.581079 L 82.777375 437.581079 L 82.777375 471.311205 C 82.777375 474.043533 84.850176 476.022116 87.488286 476.022116 L 114.90579 476.022116 C 117.543901 476.022116 119.616702 474.043533 119.616702 471.311205 L 119.616702 437.581079 L 153.346827 437.581079 C 156.079155 437.581079 158.246175 435.41406 158.246175 432.681732 L 158.246175 405.546882 C 158.246175 402.908772 156.079155 400.647535 153.346827 400.647535 L 119.616702 400.647535 L 119.616702 366.91741 C 119.616702 364.279299 117.543901 362.018062 114.90579 362.018062 Z M 87.488286 362.018062 " transform="matrix(0.0414596,0,0,0.0414596,3.329802,-0.466155)"/>
<path style=" stroke:none;fill-rule:nonzero;fill:rgb(10.196079%,10.196079%,10.196079%);fill-opacity:1;" d="M 6.996094 14.71875 C 6.964844 14.71875 6.933594 14.746094 6.933594 14.78125 L 6.933594 16.308594 L 5.410156 16.308594 C 5.371094 16.308594 5.347656 16.335938 5.347656 16.371094 L 5.347656 17.445312 C 5.347656 17.480469 5.371094 17.511719 5.410156 17.511719 L 6.933594 17.511719 L 6.933594 19.035156 C 6.933594 19.070312 6.964844 19.101562 6.996094 19.101562 L 8.078125 19.101562 C 8.113281 19.101562 8.140625 19.070312 8.140625 19.035156 L 8.140625 17.511719 L 9.667969 17.511719 C 9.699219 17.511719 9.730469 17.480469 9.730469 17.445312 L 9.730469 16.371094 C 9.730469 16.335938 9.699219 16.308594 9.667969 16.308594 L 8.140625 16.308594 L 8.140625 14.78125 C 8.140625 14.746094 8.113281 14.71875 8.078125 14.71875 Z M 6.996094 14.71875 "/>
<path style=" stroke:none;fill-rule:nonzero;fill:rgb(50.196081%,50.196081%,50.196081%);fill-opacity:1;" d="M 11.871094 13.78125 L 18.222656 13.78125 C 18.445312 13.78125 18.625 13.964844 18.625 14.183594 L 18.625 14.625 C 18.625 14.847656 18.445312 15.027344 18.222656 15.027344 L 11.871094 15.027344 C 11.644531 15.027344 11.464844 14.847656 11.464844 14.625 L 11.464844 14.183594 C 11.464844 13.964844 11.644531 13.78125 11.871094 13.78125 Z M 11.871094 13.78125 "/>
<path style=" stroke:none;fill-rule:nonzero;fill:rgb(86.666667%,86.666667%,86.666667%);fill-opacity:1;" d="M 19.921875 16.6875 L 22.402344 16.6875 C 22.511719 16.6875 22.597656 16.777344 22.597656 16.886719 L 22.597656 19.363281 C 22.597656 19.472656 22.511719 19.558594 22.402344 19.558594 L 19.921875 19.558594 C 19.8125 19.558594 19.722656 19.472656 19.722656 19.363281 L 19.722656 16.886719 C 19.722656 16.777344 19.8125 16.6875 19.921875 16.6875 Z M 19.921875 16.6875 "/>
<path style=" stroke:none;fill-rule:nonzero;fill:rgb(100%,0%,0%);fill-opacity:1;" d="M 22.339844 18.136719 C 22.339844 18.785156 21.8125 19.3125 21.160156 19.3125 C 20.511719 19.3125 19.984375 18.785156 19.984375 18.136719 C 19.984375 17.484375 20.511719 16.957031 21.160156 16.957031 C 21.8125 16.957031 22.339844 17.484375 22.339844 18.136719 Z M 22.339844 18.136719 "/>
<path style=" stroke:none;fill-rule:nonzero;fill:rgb(86.666667%,86.666667%,86.666667%);fill-opacity:1;" d="M 23.183594 16.6875 L 25.664062 16.6875 C 25.773438 16.6875 25.863281 16.777344 25.863281 16.886719 L 25.863281 19.363281 C 25.863281 19.472656 25.773438 19.558594 25.664062 19.558594 L 23.183594 19.558594 C 23.074219 19.558594 22.988281 19.472656 22.988281 19.363281 L 22.988281 16.886719 C 22.988281 16.777344 23.078125 16.6875 23.183594 16.6875 Z M 23.183594 16.6875 "/>
<path style=" stroke:none;fill-rule:nonzero;fill:rgb(100%,0%,0%);fill-opacity:1;" d="M 25.605469 18.136719 C 25.605469 18.785156 25.074219 19.3125 24.425781 19.3125 C 23.777344 19.3125 23.246094 18.785156 23.246094 18.136719 C 23.246094 17.484375 23.777344 16.957031 24.425781 16.957031 C 25.074219 16.957031 25.605469 17.484375 25.605469 18.136719 Z M 25.605469 18.136719 "/>
<path style=" stroke:none;fill-rule:nonzero;fill:rgb(50.196081%,50.196081%,50.196081%);fill-opacity:1;" d="M 11.871094 15.386719 L 18.222656 15.386719 C 18.445312 15.386719 18.625 15.566406 18.625 15.785156 L 18.625 16.226562 C 18.625 16.449219 18.445312 16.628906 18.222656 16.628906 L 11.871094 16.628906 C 11.644531 16.628906 11.464844 16.449219 11.464844 16.226562 L 11.464844 15.785156 C 11.464844 15.566406 11.644531 15.386719 11.871094 15.386719 Z M 11.871094 15.386719 "/>
<path style=" stroke:none;fill-rule:nonzero;fill:rgb(86.666667%,86.666667%,86.666667%);fill-opacity:1;" d="M 11.914062 16.964844 L 18.179688 16.964844 C 18.425781 16.964844 18.628906 17.167969 18.628906 17.414062 L 18.628906 18.878906 C 18.628906 19.128906 18.425781 19.328125 18.179688 19.328125 L 11.914062 19.328125 C 11.667969 19.328125 11.464844 19.128906 11.464844 18.878906 L 11.464844 17.414062 C 11.464844 17.167969 11.667969 16.964844 11.914062 16.964844 Z M 11.914062 16.964844 "/>
<path style="fill:none;stroke-width:1.705521;stroke-linecap:round;stroke-linejoin:miter;stroke:rgb(50.196081%,50.196081%,50.196081%);stroke-opacity:1;stroke-miterlimit:4;" d="M 212.233218 425.898019 L 353.089467 425.898019 C 357.988815 425.898019 361.945981 429.855185 361.945981 434.754533 L 361.945981 463.679528 C 361.945981 468.578876 357.988815 472.536042 353.089467 472.536042 L 212.233218 472.536042 C 207.333871 472.536042 203.376705 468.578876 203.376705 463.679528 L 203.376705 434.754533 C 203.376705 429.855185 207.333871 425.898019 212.233218 425.898019 Z M 212.233218 425.898019 " transform="matrix(0.0414596,0,0,0.0414596,3.329802,-0.466155)"/>
<path style=" stroke:none;fill-rule:nonzero;fill:rgb(0%,0%,0%);fill-opacity:1;" d="M 12.6875 17.792969 L 13.90625 17.792969 C 14.125 17.792969 14.300781 17.972656 14.300781 18.191406 C 14.300781 18.410156 14.125 18.585938 13.90625 18.585938 L 12.6875 18.585938 C 12.46875 18.585938 12.289062 18.410156 12.289062 18.191406 C 12.289062 17.972656 12.46875 17.792969 12.6875 17.792969 Z M 12.6875 17.792969 "/>
<path style=" stroke:none;fill-rule:nonzero;fill:rgb(0%,0%,0%);fill-opacity:1;" d="M 16.167969 17.792969 L 17.386719 17.792969 C 17.605469 17.792969 17.785156 17.972656 17.785156 18.191406 C 17.785156 18.410156 17.605469 18.585938 17.386719 18.585938 L 16.167969 18.585938 C 15.949219 18.585938 15.773438 18.410156 15.773438 18.191406 C 15.773438 17.972656 15.949219 17.792969 16.167969 17.792969 Z M 16.167969 17.792969 "/>
<path style=" stroke:none;fill-rule:nonzero;fill:rgb(99.607843%,0%,8.627451%);fill-opacity:1;" d="M 21.140625 13.917969 L 21.140625 14.566406 L 20.933594 14.566406 L 20.667969 14.125 C 20.652344 14.097656 20.652344 14.125 20.652344 14.125 L 20.652344 14.566406 L 20.441406 14.566406 L 20.441406 13.917969 L 20.652344 13.917969 C 20.652344 13.917969 20.90625 14.332031 20.917969 14.351562 C 20.933594 14.371094 20.933594 14.351562 20.933594 14.351562 L 20.933594 13.917969 L 21.140625 13.917969 "/>
<path style=" stroke:none;fill-rule:nonzero;fill:rgb(99.607843%,0%,8.627451%);fill-opacity:1;" d="M 21.246094 14.035156 L 21.441406 14.035156 L 21.441406 13.917969 L 21.246094 13.917969 Z M 21.246094 14.035156 "/>
<path style=" stroke:none;fill-rule:nonzero;fill:rgb(99.607843%,0%,8.627451%);fill-opacity:1;" d="M 22.472656 14.011719 L 22.472656 14.082031 L 22.5625 14.082031 L 22.566406 14.125 L 22.472656 14.125 L 22.472656 14.566406 L 22.269531 14.566406 L 22.269531 14.125 L 22.179688 14.125 L 22.183594 14.082031 L 22.269531 14.082031 L 22.269531 14.011719 L 22.472656 14.011719 "/>
<path style=" stroke:none;fill-rule:nonzero;fill:rgb(99.607843%,0%,8.627451%);fill-opacity:1;" d="M 22.089844 14.148438 C 22.136719 14.183594 22.15625 14.261719 22.15625 14.261719 L 22.15625 14.566406 L 21.949219 14.566406 L 21.949219 14.265625 C 21.949219 14.265625 21.933594 14.195312 21.855469 14.195312 C 21.777344 14.195312 21.761719 14.261719 21.761719 14.261719 L 21.761719 14.566406 L 21.5625 14.566406 L 21.5625 14.125 L 21.761719 14.125 C 21.78125 14.164062 21.828125 14.117188 21.871094 14.113281 C 21.945312 14.085938 22.027344 14.113281 22.089844 14.148438 "/>
<path style=" stroke:none;fill-rule:nonzero;fill:rgb(99.607843%,0%,8.627451%);fill-opacity:1;" d="M 21.246094 14.566406 L 21.441406 14.566406 L 21.441406 14.125 L 21.246094 14.125 Z M 21.246094 14.566406 "/>
<path style=" stroke:none;fill-rule:nonzero;fill:rgb(99.607843%,0%,8.627451%);fill-opacity:1;" d="M 22.941406 14.496094 C 22.941406 14.496094 22.925781 14.554688 22.863281 14.554688 C 22.796875 14.554688 22.785156 14.488281 22.785156 14.488281 L 22.785156 14.351562 L 23.15625 14.351562 C 23.152344 14.230469 23.101562 14.179688 23.058594 14.152344 C 22.933594 14.082031 22.757812 14.082031 22.636719 14.179688 C 22.597656 14.214844 22.566406 14.285156 22.566406 14.347656 C 22.566406 14.402344 22.589844 14.464844 22.632812 14.503906 C 22.710938 14.566406 22.828125 14.597656 22.945312 14.574219 C 23.019531 14.550781 23.117188 14.511719 23.136719 14.429688 L 22.945312 14.429688 Z M 22.789062 14.214844 C 22.789062 14.214844 22.800781 14.15625 22.867188 14.15625 C 22.933594 14.15625 22.941406 14.21875 22.941406 14.21875 L 22.941406 14.277344 L 22.789062 14.277344 L 22.789062 14.214844 "/>
<path style=" stroke:none;fill-rule:nonzero;fill:rgb(99.607843%,0%,8.627451%);fill-opacity:1;" d="M 24.261719 13.917969 L 24.261719 14.144531 C 24.195312 14.105469 24.082031 14.082031 24.015625 14.128906 C 23.925781 14.171875 23.894531 14.269531 23.894531 14.359375 C 23.894531 14.425781 23.933594 14.503906 23.992188 14.542969 C 24.066406 14.585938 24.160156 14.589844 24.246094 14.558594 C 24.25 14.554688 24.261719 14.550781 24.265625 14.546875 C 24.273438 14.550781 24.28125 14.558594 24.289062 14.558594 C 24.347656 14.582031 24.449219 14.566406 24.449219 14.566406 L 24.449219 13.917969 Z M 24.261719 14.488281 C 24.261719 14.488281 24.242188 14.53125 24.183594 14.53125 C 24.136719 14.53125 24.105469 14.5 24.105469 14.5 L 24.105469 14.207031 C 24.105469 14.207031 24.121094 14.167969 24.179688 14.167969 C 24.238281 14.167969 24.261719 14.207031 24.261719 14.207031 L 24.261719 14.488281 "/>
<path style=" stroke:none;fill-rule:nonzero;fill:rgb(99.607843%,0%,8.627451%);fill-opacity:1;" d="M 23.765625 14.148438 C 23.816406 14.1875 23.832031 14.261719 23.832031 14.261719 L 23.832031 14.570312 L 23.628906 14.570312 L 23.628906 14.269531 C 23.628906 14.269531 23.613281 14.199219 23.53125 14.199219 C 23.453125 14.199219 23.4375 14.261719 23.4375 14.261719 L 23.4375 14.570312 L 23.238281 14.570312 L 23.238281 14.128906 L 23.4375 14.128906 C 23.457031 14.164062 23.503906 14.121094 23.546875 14.113281 C 23.621094 14.089844 23.707031 14.113281 23.765625 14.148438 "/>
<path style=" stroke:none;fill-rule:nonzero;fill:rgb(99.607843%,0%,8.627451%);fill-opacity:1;" d="M 24.832031 14.097656 C 24.667969 14.097656 24.535156 14.207031 24.535156 14.339844 C 24.535156 14.472656 24.667969 14.582031 24.832031 14.582031 C 24.996094 14.582031 25.128906 14.472656 25.128906 14.339844 C 25.128906 14.207031 24.996094 14.097656 24.832031 14.097656 Z M 24.910156 14.480469 C 24.910156 14.480469 24.890625 14.527344 24.832031 14.527344 C 24.789062 14.527344 24.757812 14.492188 24.757812 14.492188 L 24.757812 14.203125 C 24.757812 14.203125 24.769531 14.160156 24.828125 14.160156 C 24.886719 14.164062 24.910156 14.203125 24.910156 14.203125 L 24.910156 14.480469 "/>
<path style=" stroke:none;fill-rule:nonzero;fill:rgb(99.607843%,0%,8.627451%);fill-opacity:1;" d="M 25.214844 14.136719 C 25.257812 14.136719 25.300781 14.121094 25.328125 14.089844 C 25.359375 14.058594 25.378906 14.019531 25.378906 13.972656 C 25.378906 13.929688 25.359375 13.890625 25.328125 13.859375 C 25.300781 13.828125 25.257812 13.8125 25.214844 13.8125 C 25.125 13.8125 25.050781 13.886719 25.050781 13.972656 C 25.050781 14.019531 25.070312 14.058594 25.097656 14.089844 C 25.128906 14.121094 25.171875 14.136719 25.214844 14.136719 Z M 25.082031 13.972656 C 25.082031 13.941406 25.097656 13.90625 25.121094 13.882812 C 25.144531 13.855469 25.179688 13.84375 25.214844 13.84375 C 25.25 13.84375 25.28125 13.855469 25.308594 13.882812 C 25.332031 13.90625 25.34375 13.941406 25.34375 13.972656 C 25.34375 14.046875 25.285156 14.105469 25.214844 14.105469 C 25.179688 14.105469 25.144531 14.089844 25.121094 14.066406 C 25.097656 14.042969 25.082031 14.007812 25.082031 13.972656 "/>
<path style=" stroke:none;fill-rule:nonzero;fill:rgb(99.607843%,0%,8.627451%);fill-opacity:1;" d="M 25.179688 13.910156 L 25.234375 13.910156 C 25.242188 13.910156 25.25 13.910156 25.253906 13.910156 C 25.261719 13.914062 25.265625 13.925781 25.265625 13.933594 C 25.265625 13.945312 25.261719 13.953125 25.257812 13.957031 C 25.25 13.960938 25.242188 13.964844 25.230469 13.964844 L 25.179688 13.964844 Z M 25.179688 14.050781 L 25.179688 13.980469 L 25.230469 13.980469 C 25.238281 13.980469 25.246094 13.984375 25.253906 13.984375 C 25.257812 13.988281 25.261719 13.996094 25.261719 14.007812 L 25.265625 14.035156 C 25.265625 14.042969 25.265625 14.042969 25.265625 14.046875 C 25.265625 14.050781 25.265625 14.050781 25.269531 14.050781 L 25.292969 14.050781 C 25.292969 14.046875 25.289062 14.042969 25.289062 14.039062 C 25.285156 14.035156 25.285156 14.03125 25.285156 14.027344 L 25.285156 14.003906 C 25.285156 13.996094 25.285156 13.988281 25.277344 13.980469 C 25.277344 13.980469 25.273438 13.972656 25.265625 13.972656 C 25.273438 13.96875 25.277344 13.964844 25.28125 13.957031 C 25.285156 13.949219 25.289062 13.941406 25.289062 13.933594 C 25.289062 13.914062 25.28125 13.902344 25.265625 13.894531 C 25.257812 13.890625 25.246094 13.886719 25.234375 13.886719 L 25.160156 13.886719 L 25.160156 14.050781 L 25.179688 14.050781 "/>
<path style=" stroke:none;fill-rule:nonzero;fill:rgb(100%,0%,0%);fill-opacity:1;" d="M 11.863281 16.242188 L 12.1875 16.242188 C 12.28125 16.242188 12.328125 16.199219 12.328125 16.113281 C 12.328125 16.03125 12.28125 15.988281 12.1875 15.988281 L 11.957031 15.988281 L 11.957031 15.917969 L 12.328125 15.917969 L 12.328125 15.824219 L 12.003906 15.824219 C 11.910156 15.824219 11.863281 15.871094 11.863281 15.957031 C 11.863281 16.039062 11.910156 16.082031 12.003906 16.082031 L 12.234375 16.082031 L 12.234375 16.152344 L 11.863281 16.152344 Z M 11.863281 16.242188 "/>
<path style=" stroke:none;fill-rule:nonzero;fill:rgb(100%,0%,0%);fill-opacity:1;" d="M 12.839844 16.242188 L 12.511719 16.242188 C 12.417969 16.242188 12.375 16.199219 12.375 16.105469 L 12.375 15.824219 L 12.839844 15.824219 L 12.839844 15.917969 L 12.464844 15.917969 L 12.464844 15.988281 L 12.839844 15.988281 L 12.839844 16.082031 L 12.464844 16.082031 L 12.464844 16.105469 C 12.464844 16.136719 12.480469 16.152344 12.511719 16.152344 L 12.839844 16.152344 Z M 12.839844 16.242188 "/>
<path style=" stroke:none;fill-rule:nonzero;fill:rgb(100%,0%,0%);fill-opacity:1;" d="M 12.882812 15.824219 L 12.882812 16.105469 C 12.882812 16.195312 12.929688 16.242188 13.023438 16.242188 L 13.347656 16.242188 L 13.347656 16.152344 L 13.023438 16.152344 C 12.992188 16.152344 12.976562 16.136719 12.976562 16.105469 L 12.976562 15.824219 Z M 12.882812 15.824219 "/>
<path style=" stroke:none;fill-rule:nonzero;fill:rgb(100%,0%,0%);fill-opacity:1;" d="M 13.855469 16.242188 L 13.53125 16.242188 C 13.441406 16.242188 13.394531 16.199219 13.394531 16.105469 L 13.394531 15.824219 L 13.855469 15.824219 L 13.855469 15.917969 L 13.488281 15.917969 L 13.488281 15.988281 L 13.855469 15.988281 L 13.855469 16.082031 L 13.488281 16.082031 L 13.488281 16.105469 C 13.488281 16.136719 13.5 16.152344 13.53125 16.152344 L 13.855469 16.152344 Z M 13.855469 16.242188 "/>
<path style=" stroke:none;fill-rule:nonzero;fill:rgb(100%,0%,0%);fill-opacity:1;" d="M 14.367188 16.242188 L 14.042969 16.242188 C 13.949219 16.242188 13.902344 16.199219 13.902344 16.105469 L 13.902344 15.964844 C 13.902344 15.871094 13.949219 15.824219 14.042969 15.824219 L 14.367188 15.824219 L 14.367188 15.917969 L 14.042969 15.917969 C 14.011719 15.917969 13.996094 15.933594 13.996094 15.964844 L 13.996094 16.105469 C 13.996094 16.136719 14.011719 16.152344 14.042969 16.152344 L 14.367188 16.152344 Z M 14.367188 16.242188 "/>
<path style=" stroke:none;fill-rule:nonzero;fill:rgb(100%,0%,0%);fill-opacity:1;" d="M 14.414062 15.824219 L 14.878906 15.824219 L 14.878906 15.917969 L 14.691406 15.917969 L 14.691406 16.242188 L 14.597656 16.242188 L 14.597656 15.917969 L 14.414062 15.917969 Z M 14.414062 15.824219 "/>
<path style=" stroke:none;fill-rule:nonzero;fill:rgb(100%,0%,0%);fill-opacity:1;" d="M 15.710938 16.242188 L 16.035156 16.242188 C 16.128906 16.242188 16.175781 16.199219 16.175781 16.113281 C 16.175781 16.03125 16.128906 15.988281 16.035156 15.988281 L 15.804688 15.988281 L 15.804688 15.917969 L 16.175781 15.917969 L 16.175781 15.824219 L 15.851562 15.824219 C 15.757812 15.824219 15.710938 15.871094 15.710938 15.957031 C 15.710938 16.039062 15.757812 16.082031 15.851562 16.082031 L 16.082031 16.082031 L 16.082031 16.152344 L 15.710938 16.152344 Z M 15.710938 16.242188 "/>
<path style=" stroke:none;fill-rule:nonzero;fill:rgb(100%,0%,0%);fill-opacity:1;" d="M 16.222656 15.824219 L 16.683594 15.824219 L 16.683594 15.917969 L 16.5 15.917969 L 16.5 16.242188 L 16.40625 16.242188 L 16.40625 15.917969 L 16.222656 15.917969 Z M 16.222656 15.824219 "/>
<path style=" stroke:none;fill-rule:nonzero;fill:rgb(100%,0%,0%);fill-opacity:1;" d="M 17.101562 16.035156 L 17.101562 15.964844 C 17.101562 15.933594 17.085938 15.917969 17.054688 15.917969 L 16.871094 15.917969 C 16.839844 15.917969 16.824219 15.933594 16.824219 15.964844 L 16.824219 16.035156 Z M 16.824219 16.128906 L 16.824219 16.242188 L 16.730469 16.242188 L 16.730469 15.964844 C 16.730469 15.871094 16.777344 15.824219 16.871094 15.824219 L 17.054688 15.824219 C 17.148438 15.824219 17.195312 15.871094 17.195312 15.964844 L 17.195312 16.242188 L 17.101562 16.242188 L 17.101562 16.128906 Z M 16.824219 16.128906 "/>
<path style=" stroke:none;fill-rule:nonzero;fill:rgb(100%,0%,0%);fill-opacity:1;" d="M 17.332031 15.988281 L 17.613281 15.988281 L 17.613281 15.917969 L 17.332031 15.917969 Z M 17.332031 16.082031 L 17.332031 16.242188 L 17.238281 16.242188 L 17.238281 15.824219 L 17.566406 15.824219 C 17.660156 15.824219 17.703125 15.867188 17.703125 15.953125 C 17.703125 15.992188 17.699219 16.023438 17.683594 16.042969 C 17.699219 16.0625 17.703125 16.089844 17.703125 16.128906 L 17.703125 16.242188 L 17.613281 16.242188 L 17.613281 16.128906 C 17.613281 16.097656 17.597656 16.082031 17.566406 16.082031 Z M 17.332031 16.082031 "/>
<path style=" stroke:none;fill-rule:nonzero;fill:rgb(100%,0%,0%);fill-opacity:1;" d="M 17.75 15.824219 L 18.214844 15.824219 L 18.214844 15.917969 L 18.027344 15.917969 L 18.027344 16.242188 L 17.9375 16.242188 L 17.9375 15.917969 L 17.75 15.917969 Z M 17.75 15.824219 "/>
<path style=" stroke:none;fill-rule:nonzero;fill:rgb(100%,0%,0%);fill-opacity:1;" d="M 22.277344 19.980469 L 22.613281 19.980469 L 22.613281 19.894531 L 22.277344 19.894531 Z M 22.277344 20.175781 L 22.613281 20.175781 L 22.613281 20.089844 L 22.277344 20.089844 Z M 22.167969 20.285156 L 22.167969 19.785156 L 22.558594 19.785156 C 22.667969 19.785156 22.722656 19.835938 22.722656 19.9375 C 22.722656 19.976562 22.714844 20.011719 22.695312 20.035156 C 22.714844 20.058594 22.722656 20.089844 22.722656 20.132812 C 22.722656 20.234375 22.667969 20.285156 22.558594 20.285156 Z M 22.167969 20.285156 "/>
<path style=" stroke:none;fill-rule:nonzero;fill:rgb(100%,0%,0%);fill-opacity:1;" d="M 25.875 20.054688 L 25.875 19.972656 C 25.875 19.933594 25.855469 19.917969 25.820312 19.917969 L 25.597656 19.917969 C 25.5625 19.917969 25.542969 19.933594 25.542969 19.972656 L 25.542969 20.054688 Z M 25.542969 20.167969 L 25.542969 20.304688 L 25.433594 20.304688 L 25.433594 19.972656 C 25.433594 19.863281 25.488281 19.808594 25.597656 19.808594 L 25.820312 19.808594 C 25.933594 19.808594 25.988281 19.863281 25.988281 19.972656 L 25.988281 20.304688 L 25.875 20.304688 L 25.875 20.167969 Z M 25.542969 20.167969 "/>
<path style="fill:none;stroke-width:0.584723;stroke-linecap:butt;stroke-linejoin:miter;stroke:rgb(0%,0%,0%);stroke-opacity:1;stroke-miterlimit:4;" d="M 63.179984 408.373429 L 52.25067 419.302744 L 63.179984 430.232058 L 63.179984 426.93442 L 74.109298 426.93442 L 74.109298 411.576849 L 63.179984 411.576849 Z M 63.179984 408.373429 " transform="matrix(0.0414596,0,0,0.0414596,3.329802,-0.466155)"/>
<path style="fill:none;stroke-width:0.584723;stroke-linecap:butt;stroke-linejoin:miter;stroke:rgb(0%,0%,0%);stroke-opacity:1;stroke-miterlimit:4;" d="M 139.685184 408.373429 L 150.614498 419.302744 L 139.685184 430.232058 L 139.685184 426.93442 L 128.75587 426.93442 L 128.75587 411.576849 L 139.685184 411.576849 Z M 139.685184 408.373429 " transform="matrix(0.0414596,0,0,0.0414596,3.329802,-0.466155)"/>
<path style="fill:none;stroke-width:0.584723;stroke-linecap:butt;stroke-linejoin:miter;stroke:rgb(0%,0%,0%);stroke-opacity:1;stroke-miterlimit:4;" d="M 112.26768 380.673271 L 101.338366 369.743956 L 90.314833 380.673271 L 93.706689 380.673271 L 93.706689 391.602585 L 108.970042 391.602585 L 108.970042 380.673271 Z M 112.26768 380.673271 " transform="matrix(0.0414596,0,0,0.0414596,3.329802,-0.466155)"/>
<path style="fill:none;stroke-width:0.584723;stroke-linecap:butt;stroke-linejoin:miter;stroke:rgb(0%,0%,0%);stroke-opacity:1;stroke-miterlimit:4;" d="M 112.26768 458.309089 L 101.338366 469.238404 L 90.314833 458.309089 L 93.706689 458.309089 L 93.706689 447.379775 L 108.970042 447.379775 L 108.970042 458.309089 Z M 112.26768 458.309089 " transform="matrix(0.0414596,0,0,0.0414596,3.329802,-0.466155)"/>
<path style="fill:none;stroke-width:0.861415;stroke-linecap:butt;stroke-linejoin:miter;stroke:rgb(0%,0%,0%);stroke-opacity:1;stroke-miterlimit:4;" d="M 114.623136 419.114307 C 114.623136 426.369111 108.781606 432.304859 101.526802 432.304859 C 94.271999 432.304859 88.33625 426.369111 88.33625 419.114307 C 88.33625 411.859504 94.271999 405.923755 101.432584 405.923755 C 108.781606 405.923755 114.623136 411.859504 114.623136 419.114307 Z M 114.623136 419.114307 " transform="matrix(0.0414596,0,0,0.0414596,3.329802,-0.466155)"/>
<path style=" stroke:none;fill-rule:nonzero;fill:rgb(10.196079%,10.196079%,10.196079%);fill-opacity:1;" d="M 12.792969 17.871094 L 13.800781 17.871094 C 14.019531 17.871094 14.199219 18.011719 14.199219 18.191406 C 14.199219 18.367188 14.019531 18.507812 13.800781 18.507812 L 12.792969 18.507812 C 12.574219 18.507812 12.394531 18.367188 12.394531 18.191406 C 12.394531 18.011719 12.574219 17.871094 12.792969 17.871094 Z M 12.792969 17.871094 "/>
<path style=" stroke:none;fill-rule:nonzero;fill:rgb(10.196079%,10.196079%,10.196079%);fill-opacity:1;" d="M 16.273438 17.871094 L 17.285156 17.871094 C 17.503906 17.871094 17.679688 18.011719 17.679688 18.191406 C 17.679688 18.367188 17.503906 18.507812 17.285156 18.507812 L 16.273438 18.507812 C 16.054688 18.507812 15.875 18.367188 15.875 18.191406 C 15.875 18.011719 16.054688 17.871094 16.273438 17.871094 Z M 16.273438 17.871094 "/>
</g>
</svg>
