
<svg xmlns="http://www.w3.org/2000/svg" xmlns:xlink="http://www.w3.org/1999/xlink" width="32px" height="32px" viewBox="0 0 32 32" version="1.1">
<g id="surface1">
<path style="fill-rule:nonzero;fill:rgb(17.254902%,24.313726%,31.37255%);fill-opacity:1;stroke-width:2.645343;stroke-linecap:butt;stroke-linejoin:miter;stroke:rgb(15.294118%,68.235296%,37.64706%);stroke-opacity:1;stroke-miterlimit:4;" d="M 7.623047 2.332031 L 40.376953 2.332031 C 43.294922 2.332031 45.667969 4.705078 45.667969 7.623047 L 45.667969 40.376953 C 45.667969 43.294922 43.294922 45.667969 40.376953 45.667969 L 7.623047 45.667969 C 4.705078 45.667969 2.332031 43.294922 2.332031 40.376953 L 2.332031 7.623047 C 2.332031 4.705078 4.705078 2.332031 7.623047 2.332031 Z M 7.623047 2.332031 " transform="matrix(0.666667,0,0,0.666667,0,0)"/>
<path style=" stroke:none;fill-rule:nonzero;fill:rgb(15.294118%,68.235296%,37.64706%);fill-opacity:1;" d="M 24.160156 17.300781 L 19.734375 18.792969 L 16.222656 15.6875 L 17.140625 11.089844 L 21.566406 9.597656 L 25.074219 12.707031 Z M 24.160156 17.300781 "/>
<path style=" stroke:none;fill-rule:nonzero;fill:rgb(15.294118%,68.235296%,37.64706%);fill-opacity:1;" d="M 15.859375 15.597656 L 11.433594 17.089844 L 7.925781 13.984375 L 8.839844 9.386719 L 13.265625 7.898438 L 16.777344 11.003906 Z M 15.859375 15.597656 "/>
<path style=" stroke:none;fill-rule:nonzero;fill:rgb(15.294118%,68.235296%,37.64706%);fill-opacity:1;" d="M 18.582031 23.695312 L 14.15625 25.183594 L 10.648438 22.082031 L 11.5625 17.484375 L 15.988281 15.996094 L 19.5 19.097656 Z M 18.582031 23.695312 "/>
</g>
</svg>
