
<svg xmlns="http://www.w3.org/2000/svg" xmlns:xlink="http://www.w3.org/1999/xlink" width="32px" height="32px" viewBox="0 0 32 32" version="1.1">
<defs>
<clipPath id="clip1">
  <path d="M 2.5 5.4375 L 28.125 5.4375 L 28.125 29.875 L 2.5 29.875 Z M 2.5 5.4375 "/>
</clipPath>
<clipPath id="clip2">
  <path d="M 7.203125 2.417969 L 24.808594 2.417969 C 27.5 2.417969 29.683594 4.601562 29.683594 7.292969 L 29.683594 24.996094 C 29.683594 27.6875 27.5 29.871094 24.808594 29.871094 L 7.203125 29.871094 C 4.511719 29.871094 2.328125 27.6875 2.328125 24.996094 L 2.328125 7.292969 C 2.328125 4.601562 4.511719 2.417969 7.203125 2.417969 Z M 7.203125 2.417969 "/>
</clipPath>
<clipPath id="clip3">
  <path d="M 16.5625 12 L 20.3125 12 L 20.3125 15.75 L 16.5625 15.75 Z M 16.5625 12 "/>
</clipPath>
<clipPath id="clip4">
  <path d="M 7.203125 2.417969 L 24.808594 2.417969 C 27.5 2.417969 29.683594 4.601562 29.683594 7.292969 L 29.683594 24.996094 C 29.683594 27.6875 27.5 29.871094 24.808594 29.871094 L 7.203125 29.871094 C 4.511719 29.871094 2.328125 27.6875 2.328125 24.996094 L 2.328125 7.292969 C 2.328125 4.601562 4.511719 2.417969 7.203125 2.417969 Z M 7.203125 2.417969 "/>
</clipPath>
<clipPath id="clip5">
  <path d="M 2.3125 2.375 L 14.25 2.375 L 14.25 14.375 L 2.3125 14.375 Z M 2.3125 2.375 "/>
</clipPath>
<clipPath id="clip6">
  <path d="M 7.203125 2.417969 L 24.808594 2.417969 C 27.5 2.417969 29.683594 4.601562 29.683594 7.292969 L 29.683594 24.996094 C 29.683594 27.6875 27.5 29.871094 24.808594 29.871094 L 7.203125 29.871094 C 4.511719 29.871094 2.328125 27.6875 2.328125 24.996094 L 2.328125 7.292969 C 2.328125 4.601562 4.511719 2.417969 7.203125 2.417969 Z M 7.203125 2.417969 "/>
</clipPath>
<clipPath id="clip7">
  <path d="M 2.3125 2.375 L 29.6875 2.375 L 29.6875 29.875 L 2.3125 29.875 Z M 2.3125 2.375 "/>
</clipPath>
<clipPath id="clip8">
  <path d="M 7.203125 2.417969 L 24.808594 2.417969 C 27.5 2.417969 29.683594 4.601562 29.683594 7.292969 L 29.683594 24.996094 C 29.683594 27.6875 27.5 29.871094 24.808594 29.871094 L 7.203125 29.871094 C 4.511719 29.871094 2.328125 27.6875 2.328125 24.996094 L 2.328125 7.292969 C 2.328125 4.601562 4.511719 2.417969 7.203125 2.417969 Z M 7.203125 2.417969 "/>
</clipPath>
<clipPath id="clip9">
  <path d="M 3.332031 7.332031 L 6.667969 7.332031 L 6.667969 10 L 3.332031 10 Z M 3.332031 7.332031 "/>
</clipPath>
<clipPath id="clip10">
  <path d="M 7.203125 2.417969 L 24.808594 2.417969 C 27.5 2.417969 29.683594 4.601562 29.683594 7.292969 L 29.683594 24.996094 C 29.683594 27.6875 27.5 29.871094 24.808594 29.871094 L 7.203125 29.871094 C 4.511719 29.871094 2.328125 27.6875 2.328125 24.996094 L 2.328125 7.292969 C 2.328125 4.601562 4.511719 2.417969 7.203125 2.417969 Z M 7.203125 2.417969 "/>
</clipPath>
<clipPath id="clip11">
  <path d="M 5.332031 5.332031 L 8 5.332031 L 8 8 L 5.332031 8 Z M 5.332031 5.332031 "/>
</clipPath>
<clipPath id="clip12">
  <path d="M 7.203125 2.417969 L 24.808594 2.417969 C 27.5 2.417969 29.683594 4.601562 29.683594 7.292969 L 29.683594 24.996094 C 29.683594 27.6875 27.5 29.871094 24.808594 29.871094 L 7.203125 29.871094 C 4.511719 29.871094 2.328125 27.6875 2.328125 24.996094 L 2.328125 7.292969 C 2.328125 4.601562 4.511719 2.417969 7.203125 2.417969 Z M 7.203125 2.417969 "/>
</clipPath>
<clipPath id="clip13">
  <path d="M 6 4 L 9.6875 4 L 9.6875 7 L 6 7 Z M 6 4 "/>
</clipPath>
<clipPath id="clip14">
  <path d="M 7.203125 2.417969 L 24.808594 2.417969 C 27.5 2.417969 29.683594 4.601562 29.683594 7.292969 L 29.683594 24.996094 C 29.683594 27.6875 27.5 29.871094 24.808594 29.871094 L 7.203125 29.871094 C 4.511719 29.871094 2.328125 27.6875 2.328125 24.996094 L 2.328125 7.292969 C 2.328125 4.601562 4.511719 2.417969 7.203125 2.417969 Z M 7.203125 2.417969 "/>
</clipPath>
<clipPath id="clip15">
  <path d="M 2.875 11.9375 L 11.5625 11.9375 L 11.5625 18.9375 L 2.875 18.9375 Z M 2.875 11.9375 "/>
</clipPath>
<clipPath id="clip16">
  <path d="M 7.203125 2.417969 L 24.808594 2.417969 C 27.5 2.417969 29.683594 4.601562 29.683594 7.292969 L 29.683594 24.996094 C 29.683594 27.6875 27.5 29.871094 24.808594 29.871094 L 7.203125 29.871094 C 4.511719 29.871094 2.328125 27.6875 2.328125 24.996094 L 2.328125 7.292969 C 2.328125 4.601562 4.511719 2.417969 7.203125 2.417969 Z M 7.203125 2.417969 "/>
</clipPath>
</defs>
<g id="surface1">
<g clip-path="url(#clip1)" clip-rule="nonzero">
<g clip-path="url(#clip2)" clip-rule="nonzero">
<path style=" stroke:none;fill-rule:nonzero;fill:rgb(100%,100%,100%);fill-opacity:1;" d="M 8.988281 5.5 L 21.660156 5.5 C 25.214844 5.5 28.097656 8.382812 28.097656 11.941406 L 28.097656 23.644531 C 28.097656 27.199219 25.214844 30.085938 21.660156 30.085938 L 8.988281 30.085938 C 5.433594 30.085938 2.550781 27.199219 2.550781 23.644531 L 2.550781 11.941406 C 2.550781 8.382812 5.433594 5.5 8.988281 5.5 Z M 8.988281 5.5 "/>
</g>
</g>
<g clip-path="url(#clip3)" clip-rule="nonzero">
<g clip-path="url(#clip4)" clip-rule="nonzero">
<path style=" stroke:none;fill-rule:nonzero;fill:rgb(100%,57.254905%,0.784314%);fill-opacity:1;" d="M 16.589844 15.621094 C 16.585938 15.582031 16.589844 15.074219 16.59375 14.488281 C 16.640625 12.707031 17.378906 11.722656 19.027344 12.074219 C 19.808594 12.339844 20.261719 12.882812 20.289062 13.566406 C 20.316406 14.324219 19.832031 15.222656 19.257812 15.511719 C 18.941406 15.652344 18.625 15.691406 17.726562 15.691406 C 17.105469 15.691406 16.589844 15.660156 16.589844 15.621094 Z M 16.589844 15.621094 "/>
</g>
</g>
<g clip-path="url(#clip5)" clip-rule="nonzero">
<g clip-path="url(#clip6)" clip-rule="nonzero">
<path style=" stroke:none;fill-rule:nonzero;fill:rgb(29.411766%,90.980393%,81.176472%);fill-opacity:1;" d="M 10.609375 2.296875 C 6.648438 2.265625 6.253906 2.308594 4.980469 2.902344 C 4.164062 3.285156 3.121094 4.300781 2.746094 5.078125 C 2.207031 6.199219 2.175781 6.503906 2.175781 10.578125 L 2.175781 14.335938 L 14.1875 2.324219 Z M 10.609375 2.296875 "/>
</g>
</g>
<g clip-path="url(#clip7)" clip-rule="nonzero">
<g clip-path="url(#clip8)" clip-rule="nonzero">
<path style=" stroke:none;fill-rule:nonzero;fill:rgb(100%,57.254905%,0.784314%);fill-opacity:1;" d="M 14.003906 2.289062 L 2.167969 14.121094 L 2.175781 19.675781 C 2.175781 22.726562 2.214844 25.566406 2.257812 25.984375 C 2.363281 26.976562 2.785156 27.84375 3.527344 28.601562 C 4.171875 29.257812 5.261719 29.839844 6.097656 29.972656 C 6.394531 30.023438 7.222656 30.066406 7.9375 30.074219 L 9.238281 30.085938 L 9.238281 28.726562 C 9.238281 27.980469 9.210938 26.566406 9.175781 25.585938 L 9.109375 23.804688 L 7.136719 22.3125 C 4.390625 20.238281 2.769531 18.988281 2.898438 18.917969 C 3.007812 18.855469 4.035156 18.039062 6.589844 15.964844 C 9.050781 13.964844 9.339844 13.839844 9.339844 13.441406 C 9.339844 12.890625 9.792969 11.296875 10.152344 10.582031 C 13.8125 3.691406 25.121094 4.332031 26.832031 11.753906 C 27.082031 12.957031 27.117188 13.195312 27.097656 14.136719 C 27.152344 19.050781 23.28125 22.085938 18.667969 22.128906 C 18.261719 22.128906 17.632812 22.160156 17.269531 22.191406 L 16.605469 22.253906 L 16.605469 30.085938 L 20.707031 30.082031 C 22.964844 30.082031 25.183594 30.042969 25.644531 29.988281 C 26.710938 29.867188 27.65625 29.417969 28.386719 28.691406 C 28.988281 28.085938 29.269531 27.632812 29.617188 26.71875 L 29.863281 26.054688 L 29.863281 25.839844 C 29.863281 25.835938 29.863281 25.835938 29.863281 25.832031 L 29.859375 16.996094 C 29.855469 12.011719 29.820312 7.488281 29.78125 6.945312 C 29.71875 6.105469 29.652344 5.847656 29.359375 5.226562 C 28.71875 3.886719 27.777344 3.074219 26.269531 2.566406 L 25.4375 2.289062 Z M 14.003906 2.289062 "/>
</g>
</g>
<g clip-path="url(#clip9)" clip-rule="nonzero">
<g clip-path="url(#clip10)" clip-rule="nonzero">
<path style=" stroke:none;fill-rule:nonzero;fill:rgb(100%,100%,100%);fill-opacity:1;" d="M 5.523438 7.816406 C 5.660156 7.953125 5.769531 8.089844 5.855469 8.230469 C 5.9375 8.375 5.988281 8.519531 6.003906 8.660156 C 6.023438 8.808594 6.003906 8.949219 5.949219 9.097656 C 5.898438 9.238281 5.804688 9.378906 5.675781 9.519531 C 5.542969 9.65625 5.402344 9.753906 5.261719 9.816406 C 5.121094 9.871094 4.976562 9.894531 4.832031 9.886719 C 4.6875 9.871094 4.542969 9.828125 4.394531 9.75 C 4.25 9.671875 4.105469 9.566406 3.964844 9.433594 C 3.824219 9.300781 3.714844 9.160156 3.632812 9.019531 C 3.550781 8.878906 3.503906 8.734375 3.484375 8.589844 C 3.464844 8.445312 3.488281 8.300781 3.539062 8.160156 C 3.59375 8.015625 3.6875 7.875 3.820312 7.734375 C 3.953125 7.597656 4.089844 7.496094 4.230469 7.441406 C 4.371094 7.378906 4.515625 7.355469 4.660156 7.367188 C 4.800781 7.378906 4.949219 7.425781 5.09375 7.5 C 5.238281 7.578125 5.382812 7.683594 5.523438 7.816406 Z M 4.347656 9.042969 C 4.441406 9.132812 4.535156 9.207031 4.625 9.261719 C 4.714844 9.316406 4.804688 9.355469 4.890625 9.371094 C 4.972656 9.386719 5.054688 9.378906 5.132812 9.355469 C 5.210938 9.332031 5.285156 9.285156 5.355469 9.210938 C 5.421875 9.136719 5.46875 9.0625 5.492188 8.984375 C 5.511719 8.902344 5.511719 8.824219 5.496094 8.738281 C 5.472656 8.65625 5.433594 8.570312 5.375 8.480469 C 5.316406 8.394531 5.238281 8.304688 5.144531 8.214844 C 5.050781 8.121094 4.957031 8.050781 4.863281 7.992188 C 4.773438 7.9375 4.6875 7.902344 4.601562 7.882812 C 4.519531 7.863281 4.4375 7.871094 4.359375 7.894531 C 4.28125 7.917969 4.207031 7.96875 4.136719 8.039062 C 4.070312 8.113281 4.023438 8.1875 4.003906 8.265625 C 3.980469 8.347656 3.980469 8.425781 3.996094 8.511719 C 4.019531 8.597656 4.058594 8.683594 4.117188 8.773438 C 4.175781 8.863281 4.253906 8.949219 4.347656 9.042969 Z M 4.347656 9.042969 "/>
</g>
</g>
<g clip-path="url(#clip11)" clip-rule="nonzero">
<g clip-path="url(#clip12)" clip-rule="nonzero">
<path style=" stroke:none;fill-rule:nonzero;fill:rgb(100%,100%,100%);fill-opacity:1;" d="M 6.003906 6.101562 C 5.933594 6.175781 5.886719 6.253906 5.863281 6.335938 C 5.835938 6.417969 5.832031 6.503906 5.847656 6.597656 C 5.863281 6.683594 5.902344 6.777344 5.957031 6.867188 C 6.011719 6.960938 6.089844 7.050781 6.183594 7.144531 C 6.28125 7.234375 6.375 7.308594 6.464844 7.363281 C 6.558594 7.417969 6.648438 7.449219 6.734375 7.464844 C 6.820312 7.476562 6.902344 7.464844 6.988281 7.433594 C 7.066406 7.402344 7.144531 7.347656 7.222656 7.269531 C 7.292969 7.195312 7.355469 7.113281 7.410156 7.027344 C 7.464844 6.933594 7.515625 6.832031 7.566406 6.71875 L 7.886719 7.027344 C 7.867188 7.082031 7.84375 7.136719 7.816406 7.183594 C 7.792969 7.234375 7.761719 7.28125 7.730469 7.332031 C 7.699219 7.378906 7.667969 7.425781 7.628906 7.46875 C 7.59375 7.515625 7.550781 7.5625 7.503906 7.609375 C 7.371094 7.75 7.234375 7.847656 7.089844 7.910156 C 6.949219 7.964844 6.808594 7.992188 6.660156 7.980469 C 6.519531 7.972656 6.371094 7.925781 6.230469 7.847656 C 6.082031 7.773438 5.941406 7.667969 5.804688 7.535156 C 5.667969 7.402344 5.558594 7.265625 5.480469 7.117188 C 5.402344 6.972656 5.359375 6.824219 5.347656 6.675781 C 5.332031 6.523438 5.351562 6.375 5.40625 6.226562 C 5.464844 6.074219 5.554688 5.933594 5.6875 5.796875 C 5.773438 5.707031 5.871094 5.628906 5.980469 5.558594 C 6.089844 5.492188 6.203125 5.433594 6.320312 5.390625 L 6.511719 5.8125 C 6.417969 5.847656 6.324219 5.890625 6.234375 5.933594 C 6.144531 5.980469 6.066406 6.035156 6.003906 6.101562 Z M 6.003906 6.101562 "/>
</g>
</g>
<g clip-path="url(#clip13)" clip-rule="nonzero">
<g clip-path="url(#clip14)" clip-rule="nonzero">
<path style=" stroke:none;fill-rule:nonzero;fill:rgb(100%,100%,100%);fill-opacity:1;" d="M 7.6875 5.363281 L 7.785156 5.261719 C 7.886719 5.15625 7.941406 5.058594 7.941406 4.972656 C 7.945312 4.886719 7.902344 4.804688 7.824219 4.726562 C 7.738281 4.644531 7.652344 4.609375 7.566406 4.625 C 7.484375 4.636719 7.394531 4.699219 7.292969 4.800781 L 7.199219 4.898438 Z M 7.996094 5.664062 L 8.691406 6.328125 L 8.324219 6.710938 L 6.519531 4.980469 L 6.992188 4.488281 C 7.214844 4.253906 7.425781 4.128906 7.617188 4.105469 C 7.8125 4.082031 8 4.152344 8.183594 4.328125 C 8.246094 4.386719 8.292969 4.449219 8.328125 4.515625 C 8.363281 4.578125 8.386719 4.644531 8.398438 4.707031 C 8.410156 4.773438 8.414062 4.839844 8.410156 4.902344 C 8.402344 4.964844 8.390625 5.027344 8.375 5.085938 C 8.609375 5.136719 8.816406 5.175781 9.003906 5.214844 C 9.082031 5.230469 9.160156 5.246094 9.230469 5.265625 C 9.308594 5.28125 9.375 5.292969 9.433594 5.308594 C 9.492188 5.320312 9.542969 5.328125 9.578125 5.335938 L 9.632812 5.347656 L 9.222656 5.769531 L 8.160156 5.496094 Z M 7.996094 5.664062 "/>
</g>
</g>
<g clip-path="url(#clip15)" clip-rule="nonzero">
<g clip-path="url(#clip16)" clip-rule="nonzero">
<path style=" stroke:none;fill-rule:nonzero;fill:rgb(90.196079%,90.196079%,90.196079%);fill-opacity:1;" d="M 2.886719 18.902344 L 11.5 18.886719 L 11.515625 11.972656 Z M 2.886719 18.902344 "/>
</g>
</g>
</g>
</svg>
