
<svg xmlns="http://www.w3.org/2000/svg" xmlns:xlink="http://www.w3.org/1999/xlink" width="32px" height="32px" viewBox="0 0 32 32" version="1.1">
<g id="surface1">
<path style="fill-rule:nonzero;fill:rgb(100%,90.196079%,81.176472%);fill-opacity:0.980392;stroke-width:28.191782;stroke-linecap:butt;stroke-linejoin:miter;stroke:rgb(65.098041%,44.705883%,25.098041%);stroke-opacity:0.980392;stroke-miterlimit:4;" d="M 81.5 25.0625 L 430.5 25.0625 C 461.6875 25.0625 486.9375 50.3125 486.9375 81.5 L 486.9375 430.5 C 486.9375 461.6875 461.6875 486.9375 430.5 486.9375 L 81.5 486.9375 C 50.3125 486.9375 25.0625 461.6875 25.0625 430.5 L 25.0625 81.5 C 25.0625 50.3125 50.3125 25.0625 81.5 25.0625 Z M 81.5 25.0625 " transform="matrix(0.0625,0,0,0.0625,0,0)"/>
<path style=" stroke:none;fill-rule:nonzero;fill:rgb(65.098041%,44.705883%,25.098041%);fill-opacity:0.980392;" d="M 25.351562 7.765625 C 23.277344 14.207031 13.738281 15.527344 8.082031 8.398438 C 8.136719 10.855469 7.941406 12.691406 9.046875 14.710938 C 8.308594 14.945312 7.769531 15.636719 7.769531 16.453125 C 7.394531 16.472656 7.023438 16.488281 6.613281 16.503906 C 5.960938 15.769531 5.152344 15.320312 4.378906 15.644531 C 3.257812 16.121094 2.894531 17.75 3.445312 19.324219 C 3.878906 20.5625 4.765625 21.433594 5.660156 21.488281 C 9.390625 24.105469 17.6875 25.988281 20.832031 21.660156 C 21.894531 20.207031 22.527344 19.082031 22.589844 16.804688 C 25.066406 14.261719 27.191406 12.339844 25.351562 7.765625 Z M 8.082031 8.398438 C 8.082031 8.398438 8.082031 8.394531 8.082031 8.394531 L 8.078125 8.394531 C 8.082031 8.394531 8.082031 8.398438 8.082031 8.398438 Z M 8.082031 8.398438 "/>
<path style=" stroke:none;fill-rule:nonzero;fill:rgb(65.098041%,44.705883%,25.098041%);fill-opacity:0.980392;" d="M 4.566406 16.808594 C 4.316406 16.808594 4.109375 17.046875 4.109375 17.324219 C 4.109375 17.605469 4.316406 17.832031 4.566406 17.832031 C 4.816406 17.832031 5.023438 17.605469 5.023438 17.324219 C 5.023438 17.046875 4.816406 16.808594 4.566406 16.808594 M 4.566406 16.808594 "/>
<path style=" stroke:none;fill-rule:nonzero;fill:rgb(41.960785%,29.411766%,15.686275%);fill-opacity:1;" d="M 15.699219 21.066406 L 21.027344 21.289062 L 20.667969 22.765625 L 15.09375 21.519531 C 15.296875 21.375 15.488281 21.214844 15.699219 21.066406 M 15.699219 21.066406 "/>
<path style=" stroke:none;fill-rule:nonzero;fill:rgb(66.666669%,66.666669%,66.666669%);fill-opacity:1;" d="M 23.921875 21.597656 L 21.027344 21.214844 C 21.027344 21.214844 20.398438 21.347656 20.3125 21.871094 C 20.230469 22.398438 20.660156 22.765625 20.660156 22.765625 L 23.835938 22.75 M 23.921875 21.597656 "/>
<path style=" stroke:none;fill-rule:nonzero;fill:rgb(72.941178%,12.941177%,12.941177%);fill-opacity:1;" d="M 24.402344 21.214844 C 23.792969 21.339844 23.554688 22.078125 23.625 22.566406 C 23.691406 23.042969 25.253906 24.609375 28.808594 22.191406 C 27.253906 21.949219 25.0625 21.0625 24.402344 21.214844 M 24.402344 21.214844 "/>
<path style=" stroke:none;fill-rule:nonzero;fill:rgb(27.450982%,25.098041%,23.921569%);fill-opacity:1;" d="M 20.910156 21.191406 C 20.910156 21.191406 20.28125 21.324219 20.199219 21.851562 C 20.113281 22.378906 20.535156 22.75 20.535156 22.75 L 20.636719 22.75 C 20.535156 22.5625 20.4375 22.292969 20.480469 21.96875 C 20.539062 21.5 20.90625 21.289062 21.085938 21.214844 M 20.910156 21.191406 "/>
</g>
</svg>
