
<svg xmlns="http://www.w3.org/2000/svg" xmlns:xlink="http://www.w3.org/1999/xlink" width="32px" height="32px" viewBox="0 0 32 32" version="1.1">
<g id="surface1">
<path style="fill-rule:nonzero;fill:rgb(70.19608%,70.19608%,70.19608%);fill-opacity:1;stroke-width:28.191782;stroke-linecap:butt;stroke-linejoin:miter;stroke:rgb(20%,20%,20%);stroke-opacity:1;stroke-miterlimit:4;" d="M 81.5 25.0625 L 430.5 25.0625 C 461.6875 25.0625 486.9375 50.3125 486.9375 81.5 L 486.9375 430.5 C 486.9375 461.6875 461.6875 486.9375 430.5 486.9375 L 81.5 486.9375 C 50.3125 486.9375 25.0625 461.6875 25.0625 430.5 L 25.0625 81.5 C 25.0625 50.3125 50.3125 25.0625 81.5 25.0625 Z M 81.5 25.0625 " transform="matrix(0.0625,0,0,0.0625,0,0)"/>
<path style="fill-rule:nonzero;fill:rgb(20%,20%,20%);fill-opacity:1;stroke-width:20;stroke-linecap:butt;stroke-linejoin:round;stroke:rgb(0%,0%,0%);stroke-opacity:1;stroke-miterlimit:6.8;" d="M 6.983112 266.701264 C 29.5988 261.088017 60.268276 253.440986 114.041549 251.976661 C 112.577224 249.048011 111.275602 245.956658 110.055331 242.783953 C 89.148022 242.62125 24.636365 245.549901 2.590136 251.000444 C 2.427434 251.081796 2.264731 251.081796 2.102028 251.081796 C 1.451217 251.081796 0.719054 250.593687 0.556351 249.780173 C 0.312297 248.966659 0.881757 247.990443 1.776622 247.82774 C 23.660148 242.458548 86.544777 239.367195 108.83506 239.448546 C 103.872624 224.723943 101.676137 207.802853 101.676137 188.929329 C 101.676137 155.412554 112.089115 142.803087 126.081556 124.90578 C 115.343171 86.751976 129.986423 60.638177 129.986423 60.638177 C 129.986423 60.638177 152.439408 55.919796 195.067539 86.42657 C 218.171336 76.583051 279.672991 75.688186 308.796791 84.230082 C 326.694098 72.43413 359.39736 55.675742 372.576286 60.394123 C 376.155747 66.088721 383.88413 82.847109 377.294667 119.699291 C 381.768994 127.753079 405.035493 144.999575 405.116844 193.64771 C 404.791439 211.545017 402.839005 226.676377 399.422247 239.529897 C 454.98525 239.041789 487.60716 243.597467 510.141497 247.82774 C 511.036362 247.990443 511.605822 248.803957 511.52447 249.698822 C 511.361768 250.512336 510.629605 251.081796 509.897442 251.081796 C 509.73474 251.081796 509.653388 251.081796 509.572037 251.081796 C 487.119052 246.851523 454.334439 242.295845 398.44603 242.783953 C 397.469813 246.038009 396.412245 249.129362 395.191974 252.139364 C 414.228201 252.708824 466.455797 254.82396 509.083928 267.840183 C 509.897442 268.084237 510.385551 268.979103 510.141497 269.873968 C 509.897442 270.606131 509.246631 271.012888 508.59582 271.012888 C 508.433117 271.012888 508.270415 271.012888 508.107712 270.931536 C 464.91012 257.75261 411.543605 255.962879 393.809 255.39342 C 378.352235 289.316952 346.706542 302.00777 295.455162 307.214259 C 312.050847 317.627238 316.850579 330.806164 316.850579 366.275373 C 316.850579 401.66323 316.362471 406.462962 316.443822 414.598102 C 316.606525 427.939731 336.293563 434.366491 335.480049 438.678115 C 334.829238 442.989739 319.128419 442.257577 311.806793 439.735683 C 291.062187 432.495409 293.095972 415.248913 293.095972 415.248913 L 292.363809 367.821049 C 292.363809 367.821049 293.828134 342.358062 284.391372 342.358062 C 284.391372 347.401849 284.391372 401.581878 284.391372 419.885943 C 284.391372 436.725682 296.187325 441.932171 296.187325 448.114877 C 296.187325 458.853261 274.629205 447.13866 267.95839 440.467846 C 257.870817 430.21757 259.009737 408.740801 259.253791 391.657008 C 259.497845 375.142675 259.091088 339.104006 259.091088 339.104006 L 252.257571 339.266709 C 252.257571 339.266709 255.10487 418.014861 248.596758 432.332706 C 240.298916 450.718122 215.161334 457.063531 215.161334 448.684337 C 215.161334 443.071091 221.34404 444.860821 224.760799 432.170003 C 227.689449 421.431619 226.713233 341.219143 226.713233 341.219143 C 226.713233 341.219143 218.659444 345.937524 218.659444 360.987532 C 218.659444 367.902401 218.41539 407.113773 218.41539 418.828374 C 218.41539 433.552977 197.508081 441.932171 187.50186 441.932171 C 182.458073 441.932171 176.112664 441.688117 176.112664 439.003521 C 176.112664 432.170003 195.230242 428.183785 195.230242 414.028642 C 195.230242 401.744581 194.904837 370.18024 194.904837 370.18024 C 194.904837 370.18024 185.305372 371.888619 171.556986 371.888619 C 136.982643 371.888619 126.000204 349.761039 120.793715 337.395627 C 114.041549 321.288051 105.255598 313.722371 95.818836 307.702367 C 90.124239 303.960203 88.822616 299.567228 95.493431 298.346957 C 126.081556 292.571008 133.89129 333.084003 154.391841 339.592115 C 169.035093 344.147793 187.827265 342.195359 197.182676 336.175356 C 198.402947 323.728592 207.270249 313.07156 214.754577 307.376962 C 162.689684 302.414527 131.776153 284.354517 115.83128 255.312068 C 61.325844 256.613691 30.412314 264.260722 7.796626 269.95532 C 6.169598 270.362077 4.54257 270.768834 2.915542 271.175591 C 2.83419 271.175591 2.671488 271.175591 2.590136 271.175591 C 1.776622 271.175591 1.125811 270.687482 0.963108 269.95532 C 0.719054 269.060454 1.288514 268.165589 2.183379 268.002886 C 3.729056 267.514778 5.356084 267.189372 6.983112 266.701264 Z M 6.983112 266.701264 " transform="matrix(0.048017,0,0,0.048017,3.707661,3.705524)"/>
</g>
</svg>
