
<svg xmlns="http://www.w3.org/2000/svg" xmlns:xlink="http://www.w3.org/1999/xlink" width="32px" height="32px" viewBox="0 0 32 32" version="1.1">
<g id="surface1">
<path style=" stroke:none;fill-rule:evenodd;fill:rgb(92.54902%,94.117647%,94.509804%);fill-opacity:1;" d="M 1.332031 26.402344 L 30.667969 26.402344 C 30.667969 20.777344 30.667969 21.023438 30.667969 15.402344 L 22.597656 7.332031 L 1.332031 7.332031 L 1.332031 8.800781 C 1.332031 16.621094 1.332031 18.578125 1.332031 26.402344 Z M 1.332031 26.402344 "/>
<path style=" stroke:none;fill-rule:nonzero;fill:rgb(74.117649%,76.47059%,78.039217%);fill-opacity:1;" d="M 22.597656 15.402344 L 30.667969 15.402344 L 22.597656 7.332031 Z M 22.597656 15.402344 "/>
<path style=" stroke:none;fill-rule:nonzero;fill:rgb(49.803922%,54.901963%,55.29412%);fill-opacity:1;" d="M 19.332031 15.402344 L 25.347656 15.402344 L 25.347656 16.867188 L 19.332031 16.867188 Z M 19.332031 15.402344 "/>
<path style=" stroke:none;fill-rule:nonzero;fill:rgb(49.803922%,54.901963%,55.29412%);fill-opacity:1;" d="M 4.265625 11 L 18.933594 11 L 18.933594 13.199219 L 4.265625 13.199219 Z M 4.265625 11 "/>
<path style=" stroke:none;fill-rule:nonzero;fill:rgb(49.803922%,54.901963%,55.29412%);fill-opacity:1;" d="M 3.535156 15.402344 L 18.199219 15.402344 L 18.199219 16.867188 L 3.535156 16.867188 Z M 3.535156 15.402344 "/>
<path style=" stroke:none;fill-rule:nonzero;fill:rgb(49.803922%,54.901963%,55.29412%);fill-opacity:1;" d="M 12.265625 18.332031 L 27.089844 18.332031 L 27.089844 19.800781 L 12.265625 19.800781 Z M 12.265625 18.332031 "/>
<path style=" stroke:none;fill-rule:nonzero;fill:rgb(49.803922%,54.901963%,55.29412%);fill-opacity:1;" d="M 3.535156 18.332031 L 10.554688 18.332031 L 10.554688 19.800781 L 3.535156 19.800781 Z M 3.535156 18.332031 "/>
<path style=" stroke:none;fill-rule:nonzero;fill:rgb(49.803922%,54.901963%,55.29412%);fill-opacity:1;" d="M 14.535156 21.265625 L 27.089844 21.265625 L 27.089844 22.734375 L 14.535156 22.734375 Z M 14.535156 21.265625 "/>
<path style=" stroke:none;fill-rule:nonzero;fill:rgb(49.803922%,54.901963%,55.29412%);fill-opacity:1;" d="M 3.535156 21.265625 L 13.453125 21.265625 L 13.453125 22.734375 L 3.535156 22.734375 Z M 3.535156 21.265625 "/>
</g>
</svg>
