
<svg xmlns="http://www.w3.org/2000/svg" xmlns:xlink="http://www.w3.org/1999/xlink" width="32px" height="32px" viewBox="0 0 32 32" version="1.1">
<g id="surface1">
<path style="fill-rule:nonzero;fill:rgb(92.54902%,92.54902%,92.54902%);fill-opacity:1;stroke-width:27.276072;stroke-linecap:butt;stroke-linejoin:miter;stroke:rgb(0%,66.666669%,83.137256%);stroke-opacity:1;stroke-miterlimit:4;" d="M 91.402785 34.004079 L 429.027785 34.004079 C 459.215285 34.004079 483.652785 58.441579 483.652785 88.629079 L 483.652785 426.254079 C 483.652785 456.441579 459.215285 480.879079 429.027785 480.879079 L 91.402785 480.879079 C 61.215285 480.879079 36.777785 456.441579 36.777785 426.254079 L 36.777785 88.629079 C 36.777785 58.441579 61.215285 34.004079 91.402785 34.004079 Z M 91.402785 34.004079 " transform="matrix(0.0625,0,0,0.0625,-0.263455,-0.0900987)"/>
<path style=" stroke:none;fill-rule:evenodd;fill:rgb(40.784314%,69.411767%,88.235295%);fill-opacity:1;" d="M 4.511719 3.355469 L 4.511719 4.527344 L 2.078125 4.527344 L 2.078125 4.714844 L 4.511719 4.714844 L 4.511719 8.316406 L 2.078125 8.316406 L 2.078125 8.503906 L 4.511719 8.503906 L 4.511719 12.101562 L 2.078125 12.101562 L 2.078125 12.292969 L 4.511719 12.292969 L 4.511719 15.894531 L 2.078125 15.894531 L 2.078125 16.082031 L 4.511719 16.082031 L 4.511719 19.679688 L 2.078125 19.679688 L 2.078125 19.871094 L 4.511719 19.871094 L 4.511719 23.46875 L 2.078125 23.46875 L 2.078125 23.660156 L 4.511719 23.660156 L 4.511719 27.257812 L 2.078125 27.257812 L 2.078125 27.449219 L 4.511719 27.449219 L 4.511719 28.617188 L 4.699219 28.617188 L 4.699219 27.449219 L 8.296875 27.449219 L 8.296875 28.617188 L 8.488281 28.617188 L 8.488281 27.449219 L 12.085938 27.449219 L 12.085938 28.617188 L 12.277344 28.617188 L 12.277344 27.449219 L 15.875 27.449219 L 15.875 28.617188 L 16.066406 28.617188 L 16.066406 27.449219 L 19.664062 27.449219 L 19.664062 28.617188 L 19.855469 28.617188 L 19.855469 27.449219 L 23.453125 27.449219 L 23.453125 28.617188 L 23.644531 28.617188 L 23.644531 27.449219 L 27.238281 27.449219 L 27.238281 28.617188 L 27.429688 28.617188 L 27.429688 27.449219 L 29.863281 27.449219 L 29.863281 27.257812 L 27.429688 27.257812 L 27.429688 23.660156 L 29.863281 23.660156 L 29.863281 23.46875 L 27.429688 23.46875 L 27.429688 19.871094 L 29.863281 19.871094 L 29.863281 19.679688 L 27.429688 19.679688 L 27.429688 16.082031 L 29.863281 16.082031 L 29.863281 15.894531 L 27.429688 15.894531 L 27.429688 12.292969 L 29.863281 12.292969 L 29.863281 12.101562 L 27.429688 12.101562 L 27.429688 8.503906 L 29.863281 8.503906 L 29.863281 8.316406 L 27.429688 8.316406 L 27.429688 4.714844 L 29.863281 4.714844 L 29.863281 4.527344 L 27.429688 4.527344 L 27.429688 3.355469 L 27.238281 3.355469 L 27.238281 4.527344 L 23.644531 4.527344 L 23.644531 3.355469 L 23.453125 3.355469 L 23.453125 4.527344 L 19.855469 4.527344 L 19.855469 3.355469 L 19.664062 3.355469 L 19.664062 4.527344 L 16.066406 4.527344 L 16.066406 3.355469 L 15.875 3.355469 L 15.875 4.527344 L 12.277344 4.527344 L 12.277344 3.355469 L 12.085938 3.355469 L 12.085938 4.527344 L 8.488281 4.527344 L 8.488281 3.355469 L 8.296875 3.355469 L 8.296875 4.527344 L 4.699219 4.527344 L 4.699219 3.355469 Z M 4.699219 4.714844 L 8.296875 4.714844 L 8.296875 8.316406 L 4.699219 8.316406 Z M 8.488281 4.714844 L 12.085938 4.714844 L 12.085938 8.316406 L 8.488281 8.316406 Z M 12.277344 4.714844 L 15.875 4.714844 L 15.875 8.316406 L 12.277344 8.316406 Z M 16.066406 4.714844 L 19.664062 4.714844 L 19.664062 8.316406 L 16.066406 8.316406 Z M 19.855469 4.714844 L 23.453125 4.714844 L 23.453125 8.316406 L 19.855469 8.316406 Z M 23.644531 4.714844 L 27.238281 4.714844 L 27.238281 8.316406 L 23.644531 8.316406 Z M 4.699219 8.503906 L 8.296875 8.503906 L 8.296875 12.101562 L 4.699219 12.101562 Z M 8.488281 8.503906 L 12.085938 8.503906 L 12.085938 12.101562 L 8.488281 12.101562 Z M 12.277344 8.503906 L 15.875 8.503906 L 15.875 12.101562 L 12.277344 12.101562 Z M 16.066406 8.503906 L 19.664062 8.503906 L 19.664062 12.101562 L 16.066406 12.101562 Z M 19.855469 8.503906 L 23.453125 8.503906 L 23.453125 12.101562 L 19.855469 12.101562 Z M 23.644531 8.503906 L 27.238281 8.503906 L 27.238281 12.101562 L 23.644531 12.101562 Z M 4.699219 12.292969 L 8.296875 12.292969 L 8.296875 15.894531 L 4.699219 15.894531 Z M 8.488281 12.292969 L 12.085938 12.292969 L 12.085938 15.894531 L 8.488281 15.894531 Z M 12.277344 12.292969 L 15.875 12.292969 L 15.875 15.894531 L 12.277344 15.894531 Z M 16.066406 12.292969 L 19.664062 12.292969 L 19.664062 15.894531 L 16.066406 15.894531 Z M 19.855469 12.292969 L 23.453125 12.292969 L 23.453125 15.894531 L 19.855469 15.894531 Z M 23.644531 12.292969 L 27.238281 12.292969 L 27.238281 15.894531 L 23.644531 15.894531 Z M 4.699219 16.082031 L 8.296875 16.082031 L 8.296875 19.679688 L 4.699219 19.679688 Z M 8.488281 16.082031 L 12.085938 16.082031 L 12.085938 19.679688 L 8.488281 19.679688 Z M 12.277344 16.082031 L 15.875 16.082031 L 15.875 19.679688 L 12.277344 19.679688 Z M 16.066406 16.082031 L 19.664062 16.082031 L 19.664062 19.679688 L 16.066406 19.679688 Z M 19.855469 16.082031 L 23.453125 16.082031 L 23.453125 19.679688 L 19.855469 19.679688 Z M 23.644531 16.082031 L 27.238281 16.082031 L 27.238281 19.679688 L 23.644531 19.679688 Z M 4.699219 19.871094 L 8.296875 19.871094 L 8.296875 23.46875 L 4.699219 23.46875 Z M 8.488281 19.871094 L 12.085938 19.871094 L 12.085938 23.46875 L 8.488281 23.46875 Z M 12.277344 19.871094 L 15.875 19.871094 L 15.875 23.46875 L 12.277344 23.46875 Z M 16.066406 19.871094 L 19.664062 19.871094 L 19.664062 23.46875 L 16.066406 23.46875 Z M 19.855469 19.871094 L 23.453125 19.871094 L 23.453125 23.46875 L 19.855469 23.46875 Z M 23.644531 19.871094 L 27.238281 19.871094 L 27.238281 23.46875 L 23.644531 23.46875 Z M 4.699219 23.660156 L 8.296875 23.660156 L 8.296875 27.257812 L 4.699219 27.257812 Z M 8.488281 23.660156 L 12.085938 23.660156 L 12.085938 27.257812 L 8.488281 27.257812 Z M 12.277344 23.660156 L 15.875 23.660156 L 15.875 27.257812 L 12.277344 27.257812 Z M 16.066406 23.660156 L 19.664062 23.660156 L 19.664062 27.257812 L 16.066406 27.257812 Z M 19.855469 23.660156 L 23.453125 23.660156 L 23.453125 27.257812 L 19.855469 27.257812 Z M 23.644531 23.660156 L 27.238281 23.660156 L 27.238281 27.257812 L 23.644531 27.257812 Z M 23.644531 23.660156 "/>
<path style=" stroke:none;fill-rule:nonzero;fill:rgb(13.333334%,21.176471%,33.725491%);fill-opacity:1;" d="M 27.707031 10.925781 C 19.445312 15.710938 11.25 20.550781 4.175781 24.652344 C 12.464844 24.652344 20.601562 24.652344 27.707031 24.652344 C 27.707031 19.851562 27.707031 15.066406 27.707031 10.925781 Z M 24.359375 17.257812 L 24.359375 22.160156 L 15.941406 22.160156 Z M 24.359375 17.257812 "/>
<path style=" stroke:none;fill-rule:nonzero;fill:rgb(100%,100%,100%);fill-opacity:1;" d="M 26.382812 11.699219 L 26.152344 11.832031 L 26.554688 12.515625 L 26.78125 12.382812 Z M 25.46875 12.230469 L 25.238281 12.363281 L 25.640625 13.050781 L 25.867188 12.917969 Z M 24.554688 12.765625 L 24.324219 12.898438 L 25.125 14.269531 L 25.355469 14.136719 Z M 23.640625 13.300781 L 23.410156 13.433594 L 23.8125 14.117188 L 24.039062 13.984375 Z M 22.726562 13.832031 L 22.496094 13.964844 L 22.898438 14.652344 L 23.125 14.519531 Z M 21.8125 14.367188 L 21.582031 14.5 L 22.382812 15.871094 L 22.613281 15.738281 Z M 20.898438 14.902344 L 20.667969 15.035156 L 21.070312 15.71875 L 21.296875 15.585938 Z M 19.984375 15.433594 L 19.753906 15.566406 L 20.15625 16.253906 L 20.382812 16.121094 Z M 19.070312 15.964844 L 18.839844 16.101562 L 19.640625 17.472656 L 19.871094 17.339844 Z M 18.15625 16.5 L 17.925781 16.636719 L 18.324219 17.320312 L 18.554688 17.1875 Z M 17.242188 17.035156 L 17.011719 17.167969 L 17.410156 17.855469 L 17.640625 17.722656 Z M 16.324219 17.566406 L 16.097656 17.703125 L 16.898438 19.074219 L 17.128906 18.941406 Z M 15.410156 18.101562 L 15.183594 18.234375 L 15.582031 18.921875 L 15.8125 18.789062 Z M 14.496094 18.636719 L 14.269531 18.769531 L 14.667969 19.457031 L 14.898438 19.320312 Z M 13.582031 19.167969 L 13.355469 19.300781 L 14.15625 20.675781 L 14.386719 20.542969 Z M 12.667969 19.703125 L 12.441406 19.835938 L 12.839844 20.523438 L 13.070312 20.386719 Z M 11.753906 20.238281 L 11.527344 20.371094 L 11.925781 21.058594 L 12.15625 20.921875 Z M 10.839844 20.769531 L 10.613281 20.902344 L 11.414062 22.277344 L 11.644531 22.144531 Z M 9.925781 21.304688 L 9.699219 21.4375 L 10.097656 22.121094 L 10.328125 21.988281 Z M 9.011719 21.839844 L 8.785156 21.972656 L 9.183594 22.65625 L 9.414062 22.523438 Z M 8.097656 22.371094 L 7.871094 22.503906 L 8.671875 23.878906 L 8.902344 23.742188 Z M 7.183594 22.90625 L 6.957031 23.039062 L 7.355469 23.722656 L 7.585938 23.589844 Z M 6.269531 23.441406 L 6.042969 23.574219 L 6.441406 24.257812 L 6.671875 24.125 Z M 6.269531 23.441406 "/>
</g>
</svg>
