
<svg xmlns="http://www.w3.org/2000/svg" xmlns:xlink="http://www.w3.org/1999/xlink" width="32px" height="32px" viewBox="0 0 32 32" version="1.1">
<g id="surface1">
<path style="fill-rule:nonzero;fill:rgb(41.960785%,61.176473%,67.058825%);fill-opacity:1;stroke-width:28.191782;stroke-linecap:butt;stroke-linejoin:miter;stroke:rgb(9.803922%,9.803922%,9.803922%);stroke-opacity:1;stroke-miterlimit:4;" d="M -659.232666 -125.929728 L -310.232666 -125.929728 C -279.045166 -125.929728 -253.795166 -100.679728 -253.795166 -69.492228 L -253.795166 279.507772 C -253.795166 310.695272 -279.045166 335.945272 -310.232666 335.945272 L -659.232666 335.945272 C -690.420166 335.945272 -715.670166 310.695272 -715.670166 279.507772 L -715.670166 -69.492228 C -715.670166 -100.679728 -690.420166 -125.929728 -659.232666 -125.929728 Z M -659.232666 -125.929728 " transform="matrix(0.0625,0,0,0.0625,46.295792,9.437014)"/>
<path style="fill-rule:nonzero;fill:rgb(100%,33.333334%,33.333334%);fill-opacity:1;stroke-width:28.191753;stroke-linecap:butt;stroke-linejoin:miter;stroke:rgb(9.803922%,9.803922%,9.803922%);stroke-opacity:1;stroke-miterlimit:4;" d="M -659.232666 -125.929728 C -690.420166 -125.929728 -715.670166 -100.679728 -715.670166 -69.492228 L -715.670166 105.007772 L -484.732666 105.007772 L -484.732666 -125.929728 Z M -484.732666 105.007772 L -484.732666 335.945272 L -310.232666 335.945272 C -279.045166 335.945272 -253.795166 310.695272 -253.795166 279.507772 L -253.795166 105.007772 Z M -484.732666 105.007772 " transform="matrix(0.0625,0,0,0.0625,46.295792,9.437014)"/>
</g>
</svg>
