
<svg xmlns="http://www.w3.org/2000/svg" xmlns:xlink="http://www.w3.org/1999/xlink" width="32px" height="32px" viewBox="0 0 32 32" version="1.1">
<g id="surface1">
<path style="fill-rule:nonzero;fill:rgb(100%,100%,100%);fill-opacity:1;stroke-width:7.024775;stroke-linecap:butt;stroke-linejoin:miter;stroke:rgb(29.019609%,68.235296%,90.980393%);stroke-opacity:1;stroke-miterlimit:4;" d="M 20.515625 930.830973 L 107.484375 930.830973 C 115.25 930.830973 121.53125 937.112223 121.53125 944.877848 L 121.53125 1031.846598 C 121.53125 1039.612223 115.25 1045.893473 107.484375 1045.893473 L 20.515625 1045.893473 C 12.75 1045.893473 6.46875 1039.612223 6.46875 1031.846598 L 6.46875 944.877848 C 6.46875 937.112223 12.75 930.830973 20.515625 930.830973 Z M 20.515625 930.830973 " transform="matrix(0.25,0,0,0.25,0,-231.090556)"/>
<path style=" stroke:none;fill-rule:evenodd;fill:rgb(7.058824%,55.29412%,85.882354%);fill-opacity:1;" d="M 16.164062 16.566406 C 15.996094 15.8125 16.882812 15.378906 17.488281 15.457031 C 18.667969 15.613281 19.226562 16.964844 18.953125 18.042969 C 18.542969 19.683594 16.710938 20.425781 15.207031 19.933594 C 13.167969 19.261719 12.277344 16.855469 12.972656 14.875 C 13.863281 12.351562 16.765625 11.265625 19.144531 12.203125 C 22.046875 13.347656 23.285156 16.863281 22.144531 19.734375 C 20.792969 23.136719 16.800781 24.578125 13.550781 23.1875 C 9.785156 21.574219 8.199219 16.945312 9.785156 13.183594 C 11.59375 8.894531 16.679688 7.097656 20.800781 8.949219 C 25.433594 11.023438 27.367188 16.777344 25.332031 21.425781 C 23.070312 26.597656 16.886719 28.746094 11.894531 26.445312 C 6.390625 23.902344 4.113281 17.03125 6.59375 11.492188 C 8.542969 7.152344 12.988281 4.417969 17.644531 4.542969 "/>
</g>
</svg>
