
<svg xmlns="http://www.w3.org/2000/svg" xmlns:xlink="http://www.w3.org/1999/xlink" width="32px" height="32px" viewBox="0 0 32 32" version="1.1">
<g id="surface1">
<path style="fill-rule:nonzero;fill:rgb(100%,100%,100%);fill-opacity:1;stroke-width:7.074133;stroke-linecap:butt;stroke-linejoin:miter;stroke:rgb(0%,52.941179%,97.254902%);stroke-opacity:1;stroke-miterlimit:4;" d="M 17.719661 3.15625 L 110.260525 3.15625 C 118.510021 3.15625 125.207287 9.15625 125.207287 16.546875 L 125.207287 99.453125 C 125.207287 106.84375 118.510021 112.84375 110.260525 112.84375 L 17.719661 112.84375 C 9.470165 112.84375 2.772899 106.84375 2.772899 99.453125 L 2.772899 16.546875 C 2.772899 9.15625 9.470165 3.15625 17.719661 3.15625 Z M 17.719661 3.15625 " transform="matrix(0.223972,0,0,0.25,1.668011,1.5)"/>
<path style=" stroke:none;fill-rule:nonzero;fill:rgb(0%,52.941179%,97.254902%);fill-opacity:1;" d="M 2.613281 6.113281 C 2.003906 6.113281 1.5 6.660156 1.5 7.316406 L 1.5 8.523438 L 16.023438 18.984375 L 16.023438 14.980469 L 3.734375 6.105469 L 2.617188 6.105469 M 2.613281 6.109375 "/>
<path style=" stroke:none;fill-rule:nonzero;fill:rgb(0%,52.941179%,97.254902%);fill-opacity:1;" d="M 29.378906 6.148438 C 29.988281 6.148438 30.492188 6.695312 30.492188 7.347656 L 30.492188 8.554688 L 16.019531 18.984375 L 16.019531 14.992188 L 28.261719 6.144531 L 29.375 6.144531 M 29.378906 6.148438 "/>
</g>
</svg>
