
<svg xmlns="http://www.w3.org/2000/svg" xmlns:xlink="http://www.w3.org/1999/xlink" width="32px" height="32px" viewBox="0 0 32 32" version="1.1">
<g id="surface1">
<path style="fill-rule:nonzero;fill:rgb(100%,100%,100%);fill-opacity:1;stroke-width:6.695769;stroke-linecap:butt;stroke-linejoin:miter;stroke:rgb(100%,28.627452%,23.529412%);stroke-opacity:1;stroke-miterlimit:4;" d="M 22.546875 9.15625 L 105.453125 9.15625 C 112.84375 9.15625 118.84375 15.15625 118.84375 22.546875 L 118.84375 105.453125 C 118.84375 112.84375 112.84375 118.84375 105.453125 118.84375 L 22.546875 118.84375 C 15.15625 118.84375 9.15625 112.84375 9.15625 105.453125 L 9.15625 22.546875 C 9.15625 15.15625 15.15625 9.15625 22.546875 9.15625 Z M 22.546875 9.15625 " transform="matrix(0.25,0,0,0.25,0,0)"/>
<path style=" stroke:none;fill-rule:nonzero;fill:rgb(100%,28.627452%,23.529412%);fill-opacity:1;" d="M 2.613281 6.113281 C 2.003906 6.113281 1.5 6.660156 1.5 7.316406 L 1.5 8.523438 L 16.023438 18.984375 L 16.023438 14.980469 L 3.734375 6.105469 L 2.617188 6.105469 M 2.613281 6.109375 "/>
<path style=" stroke:none;fill-rule:nonzero;fill:rgb(100%,28.627452%,23.529412%);fill-opacity:1;" d="M 29.378906 6.148438 C 29.988281 6.148438 30.492188 6.695312 30.492188 7.347656 L 30.492188 8.554688 L 16.019531 18.984375 L 16.019531 14.992188 L 28.261719 6.144531 L 29.375 6.144531 M 29.378906 6.148438 "/>
</g>
</svg>
