<!-- color: #eeeeee -->
<svg xmlns="http://www.w3.org/2000/svg" xmlns:xlink="http://www.w3.org/1999/xlink" width="32px" height="32px" viewBox="0 0 32 32" version="1.1">
<defs>
<clipPath id="clip1">
  <path d="M 8.9375 8.5 L 23.8125 8.5 L 23.8125 23.332031 L 8.9375 23.332031 Z M 8.9375 8.5 "/>
</clipPath>
<clipPath id="clip2">
  <path d="M 30.5625 15.925781 C 30.5625 23.761719 24.210938 30.105469 16.382812 30.105469 C 8.558594 30.105469 2.207031 23.761719 2.207031 15.925781 C 2.207031 8.09375 8.558594 1.75 16.382812 1.75 C 24.210938 1.75 30.5625 8.09375 30.5625 15.925781 Z M 30.5625 15.925781 "/>
</clipPath>
</defs>
<g id="surface1">
<path style="fill-rule:nonzero;fill:rgb(30.19608%,53.333336%,76.078433%);fill-opacity:1;stroke-width:7.09618;stroke-linecap:butt;stroke-linejoin:miter;stroke:rgb(54.509807%,54.509807%,54.509807%);stroke-opacity:1;stroke-miterlimit:4;" d="M 20.078125 5.875 L 107.921875 5.875 C 115.765625 5.875 122.125 12.234375 122.125 20.078125 L 122.125 107.921875 C 122.125 115.765625 115.765625 122.125 107.921875 122.125 L 20.078125 122.125 C 12.234375 122.125 5.875 115.765625 5.875 107.921875 L 5.875 20.078125 C 5.875 12.234375 12.234375 5.875 20.078125 5.875 Z M 20.078125 5.875 " transform="matrix(0.25,0,0,0.25,0,0)"/>
<g clip-path="url(#clip1)" clip-rule="nonzero">
<g clip-path="url(#clip2)" clip-rule="nonzero">
<path style=" stroke:none;fill-rule:nonzero;fill:rgb(94.901961%,94.901961%,94.901961%);fill-opacity:1;" d="M 23.78125 9.746094 C 23.78125 9.746094 22.546875 11.605469 20.699219 11.605469 C 18.972656 11.269531 18.292969 11.550781 18.234375 11.605469 L 18.234375 19.066406 C 18.152344 20.640625 16.863281 22.21875 14.945312 22.941406 C 12.511719 23.863281 9.933594 23.0625 9.191406 21.148438 C 8.445312 19.238281 9.808594 16.921875 12.246094 16.003906 C 14.128906 15.292969 15.863281 15.46875 17 16.535156 L 17 9.132812 C 19.464844 7.492188 21.757812 9.722656 23.78125 9.75 M 23.78125 9.746094 "/>
</g>
</g>
</g>
</svg>
