
<svg xmlns="http://www.w3.org/2000/svg" xmlns:xlink="http://www.w3.org/1999/xlink" width="32px" height="32px" viewBox="0 0 32 32" version="1.1">
<g id="surface1">
<path style="fill-rule:nonzero;fill:rgb(100%,100%,100%);fill-opacity:1;stroke-width:6.987938;stroke-linecap:butt;stroke-linejoin:miter;stroke:rgb(83.137256%,33.333334%,0%);stroke-opacity:1;stroke-miterlimit:4;" d="M 20.734375 6.765625 L 107.265625 6.765625 C 114.984375 6.765625 121.234375 13.015625 121.234375 20.734375 L 121.234375 107.265625 C 121.234375 114.984375 114.984375 121.234375 107.265625 121.234375 L 20.734375 121.234375 C 13.015625 121.234375 6.765625 114.984375 6.765625 107.265625 L 6.765625 20.734375 C 6.765625 13.015625 13.015625 6.765625 20.734375 6.765625 Z M 20.734375 6.765625 " transform="matrix(0.25,0,0,0.25,0,0)"/>
<path style=" stroke:none;fill-rule:nonzero;fill:rgb(83.137256%,33.333334%,0%);fill-opacity:1;" d="M 26.074219 10.222656 C 26.023438 10.160156 25.972656 10.085938 25.902344 10.050781 C 25.589844 9.902344 25.273438 9.753906 24.953125 9.621094 C 24.800781 9.558594 24.6875 9.476562 24.644531 9.316406 C 24.636719 9.277344 24.617188 9.238281 24.589844 9.214844 C 24.433594 9.058594 24.433594 9.058594 24.621094 8.9375 C 24.644531 8.921875 24.675781 8.914062 24.683594 8.914062 C 24.667969 8.835938 24.660156 8.777344 24.644531 8.714844 C 24.636719 8.6875 24.617188 8.65625 24.59375 8.640625 C 24.480469 8.554688 24.34375 8.488281 24.253906 8.386719 C 24.160156 8.285156 24.070312 8.289062 23.957031 8.300781 C 23.921875 8.300781 23.871094 8.304688 23.847656 8.28125 C 23.71875 8.15625 23.539062 8.21875 23.386719 8.164062 C 23.253906 8.121094 23.074219 8.21875 22.910156 8.253906 C 22.886719 8.253906 22.863281 8.261719 22.839844 8.253906 C 22.566406 8.136719 22.332031 8.207031 22.144531 8.425781 C 22.136719 8.472656 22.125 8.527344 22.089844 8.554688 C 21.957031 8.65625 21.8125 8.738281 21.691406 8.847656 C 21.605469 8.925781 21.511719 9.023438 21.488281 9.128906 C 21.460938 9.234375 21.410156 9.269531 21.328125 9.296875 C 21.238281 9.324219 21.15625 9.355469 21.152344 9.472656 C 21.152344 9.503906 21.097656 9.527344 21.085938 9.5625 C 21.0625 9.632812 21.046875 9.707031 21.035156 9.777344 C 21.027344 9.820312 21.042969 9.871094 21.027344 9.902344 C 20.964844 10.023438 20.886719 10.136719 20.824219 10.257812 C 20.769531 10.363281 20.667969 10.480469 20.683594 10.574219 C 20.703125 10.691406 20.675781 10.800781 20.703125 10.90625 C 20.746094 11.082031 20.660156 11.207031 20.578125 11.339844 C 20.511719 11.449219 20.449219 11.558594 20.402344 11.679688 C 20.363281 11.785156 20.28125 11.886719 20.34375 12.015625 C 20.363281 12.046875 20.320312 12.113281 20.300781 12.160156 C 20.285156 12.199219 20.246094 12.238281 20.238281 12.28125 C 20.214844 12.488281 20.203125 12.699219 20.175781 12.902344 C 20.144531 13.164062 20.074219 13.40625 19.863281 13.582031 C 19.636719 13.765625 19.40625 13.765625 19.207031 13.558594 C 19.058594 13.398438 18.921875 13.222656 18.796875 13.046875 C 18.445312 12.542969 18.105469 12.027344 17.757812 11.519531 C 17.742188 11.496094 17.726562 11.464844 17.730469 11.441406 C 17.75 11.28125 17.652344 11.175781 17.542969 11.097656 C 17.425781 11.007812 17.402344 10.925781 17.511719 10.804688 C 17.417969 10.761719 17.332031 10.730469 17.261719 10.679688 C 17.183594 10.625 17.09375 10.558594 17.050781 10.476562 C 16.980469 10.332031 16.988281 10.148438 16.839844 10.035156 C 16.832031 10.027344 16.839844 10 16.832031 9.980469 C 16.804688 9.910156 16.773438 9.839844 16.738281 9.769531 C 16.714844 9.722656 16.667969 9.679688 16.667969 9.632812 C 16.65625 9.472656 16.660156 9.3125 16.667969 9.152344 C 16.675781 9.050781 16.703125 8.945312 16.714844 8.839844 C 16.722656 8.8125 16.714844 8.78125 16.707031 8.757812 C 16.660156 8.648438 16.605469 8.542969 16.570312 8.429688 C 16.550781 8.367188 16.558594 8.292969 16.558594 8.226562 C 16.585938 8.085938 16.28125 8.113281 16.421875 7.886719 C 16.386719 7.859375 16.34375 7.832031 16.3125 7.800781 C 16.277344 7.761719 16.226562 7.699219 16.238281 7.671875 C 16.300781 7.527344 16.203125 7.511719 16.109375 7.476562 C 16 7.441406 15.894531 7.394531 15.785156 7.351562 C 15.785156 7.339844 15.792969 7.324219 15.796875 7.3125 C 15.628906 7.335938 15.457031 7.402344 15.292969 7.285156 C 15.273438 7.269531 15.234375 7.253906 15.214844 7.261719 C 15.042969 7.324219 14.902344 7.246094 14.761719 7.183594 C 14.699219 7.234375 14.632812 7.265625 14.566406 7.28125 C 14.410156 7.316406 14.253906 7.339844 14.097656 7.371094 C 14.089844 7.371094 14.089844 7.371094 14.082031 7.375 C 14.019531 7.433594 13.953125 7.488281 13.882812 7.550781 C 13.972656 7.71875 13.925781 7.707031 13.777344 7.746094 C 13.730469 7.761719 13.6875 7.789062 13.652344 7.820312 C 13.621094 7.847656 13.59375 7.882812 13.574219 7.917969 C 13.496094 8.046875 13.425781 8.175781 13.355469 8.308594 C 13.351562 8.3125 13.363281 8.324219 13.367188 8.332031 C 13.46875 8.457031 13.414062 8.589844 13.394531 8.722656 C 13.378906 8.847656 13.394531 8.980469 13.429688 9.097656 C 13.457031 9.183594 13.535156 9.253906 13.609375 9.355469 C 13.671875 9.34375 13.761719 9.355469 13.75 9.496094 C 13.746094 9.558594 13.746094 9.621094 13.734375 9.683594 C 13.683594 9.894531 13.636719 10.109375 13.578125 10.320312 C 13.570312 10.347656 13.535156 10.378906 13.503906 10.390625 C 13.316406 10.472656 12.984375 10.296875 12.949219 10.074219 C 12.90625 9.804688 12.910156 9.53125 12.882812 9.261719 C 12.875 9.175781 12.835938 9.097656 12.816406 9.011719 C 12.808594 8.972656 12.792969 8.90625 12.8125 8.890625 C 12.902344 8.816406 12.832031 8.761719 12.800781 8.710938 C 12.71875 8.589844 12.722656 8.574219 12.886719 8.527344 C 12.816406 8.425781 12.746094 8.324219 12.675781 8.222656 C 12.714844 8.191406 12.746094 8.167969 12.785156 8.132812 C 12.683594 8.046875 12.582031 7.972656 12.496094 7.886719 C 12.457031 7.851562 12.441406 7.785156 12.417969 7.734375 C 12.351562 7.597656 12.136719 7.636719 12.082031 7.457031 C 12.074219 7.441406 12.039062 7.425781 12.019531 7.429688 C 11.9375 7.433594 11.855469 7.4375 11.777344 7.457031 C 11.660156 7.484375 11.554688 7.519531 11.425781 7.46875 C 11.238281 7.398438 11.035156 7.355469 10.839844 7.3125 C 10.730469 7.285156 10.636719 7.316406 10.574219 7.429688 C 10.5625 7.457031 10.519531 7.488281 10.484375 7.492188 C 10.292969 7.523438 10.230469 7.675781 10.152344 7.804688 C 10.191406 7.867188 10.222656 7.917969 10.265625 7.996094 C 9.957031 8.019531 9.742188 8.144531 9.636719 8.351562 C 9.667969 8.425781 9.722656 8.496094 9.707031 8.523438 C 9.578125 8.726562 9.628906 8.933594 9.664062 9.144531 C 9.800781 9.15625 9.777344 9.167969 9.855469 9.285156 C 9.925781 9.394531 9.894531 9.585938 10.128906 9.605469 C 10.042969 9.894531 9.972656 10.175781 9.878906 10.441406 C 9.792969 10.671875 9.664062 10.886719 9.59375 11.117188 C 9.519531 11.355469 9.394531 11.550781 9.226562 11.730469 C 9.035156 11.941406 8.832031 12.136719 8.660156 12.363281 C 8.308594 12.832031 8.035156 13.347656 7.867188 13.917969 C 7.824219 14.066406 7.792969 14.226562 7.714844 14.355469 C 7.351562 14.976562 7.050781 15.613281 6.933594 16.335938 C 6.878906 16.660156 6.90625 16.957031 7.054688 17.242188 C 7.140625 17.40625 7.140625 17.558594 7.050781 17.714844 C 7.015625 17.777344 6.9375 17.871094 6.957031 17.910156 C 7.046875 18.113281 6.871094 18.242188 6.839844 18.410156 C 6.828125 18.488281 6.808594 18.566406 6.796875 18.625 C 6.925781 18.558594 7.042969 18.503906 7.160156 18.441406 C 7.21875 18.410156 7.289062 18.382812 7.320312 18.332031 C 7.558594 17.933594 7.636719 17.703125 7.316406 17.296875 C 7.207031 17.152344 7.160156 16.992188 7.148438 16.8125 C 7.132812 16.519531 7.191406 16.242188 7.28125 15.972656 C 7.339844 15.792969 7.425781 15.621094 7.503906 15.449219 C 7.519531 15.417969 7.570312 15.40625 7.605469 15.386719 C 7.617188 15.417969 7.636719 15.453125 7.636719 15.488281 C 7.652344 15.691406 7.65625 15.894531 7.671875 16.101562 C 7.679688 16.207031 7.695312 16.316406 7.71875 16.425781 C 7.800781 16.8125 7.894531 17.199219 7.792969 17.597656 C 8.039062 17.707031 7.777344 17.84375 7.824219 17.960938 C 7.976562 17.992188 7.980469 18.003906 7.910156 18.144531 C 7.832031 18.300781 7.75 18.457031 7.6875 18.621094 C 7.644531 18.730469 7.578125 18.859375 7.699219 18.976562 C 7.714844 18.988281 7.714844 19.03125 7.707031 19.050781 C 7.542969 19.324219 7.878906 19.507812 7.832031 19.761719 C 7.832031 19.761719 7.835938 19.769531 7.839844 19.769531 C 7.976562 19.847656 7.933594 20.011719 8.007812 20.121094 C 8.085938 20.242188 8.160156 20.378906 8.109375 20.539062 C 8.101562 20.558594 8.148438 20.589844 8.164062 20.617188 C 8.195312 20.667969 8.230469 20.722656 8.246094 20.777344 C 8.347656 21.128906 8.347656 21.472656 8.160156 21.800781 C 8.109375 21.894531 8.074219 21.996094 8.027344 22.097656 C 7.933594 22.304688 7.9375 22.511719 8.046875 22.710938 C 8.113281 22.824219 8.183594 22.941406 8.242188 23.058594 C 8.273438 23.125 8.300781 23.199219 8.300781 23.269531 C 8.285156 23.699219 8.367188 24.113281 8.460938 24.527344 C 8.53125 24.839844 8.535156 25.140625 8.457031 25.449219 C 8.394531 25.683594 8.464844 25.820312 8.707031 25.867188 C 9.15625 25.953125 9.609375 26.054688 10.058594 25.859375 C 10.082031 25.601562 10.058594 25.542969 9.851562 25.417969 C 9.507812 25.210938 9.222656 24.945312 9.085938 24.5625 C 8.996094 24.308594 8.929688 24.039062 8.886719 23.769531 C 8.851562 23.574219 8.828125 23.363281 8.867188 23.171875 C 8.949219 22.785156 8.980469 22.410156 8.871094 22.023438 C 8.839844 21.929688 8.863281 21.816406 8.878906 21.714844 C 8.902344 21.515625 9.0625 21.40625 9.1875 21.269531 C 9.371094 21.070312 9.519531 20.84375 9.6875 20.628906 C 9.710938 20.601562 9.757812 20.566406 9.785156 20.574219 C 9.816406 20.582031 9.851562 20.628906 9.855469 20.667969 C 9.878906 20.867188 9.914062 21.074219 9.914062 21.277344 C 9.910156 21.546875 9.878906 21.816406 9.859375 22.089844 C 9.835938 22.449219 9.917969 22.796875 10.035156 23.136719 C 10.152344 23.46875 10.230469 23.804688 10.210938 24.167969 C 10.191406 24.492188 10.210938 24.816406 10.203125 25.144531 C 10.199219 25.261719 10.253906 25.34375 10.34375 25.375 C 10.75 25.511719 11.15625 25.703125 11.605469 25.527344 C 11.675781 25.496094 11.746094 25.449219 11.824219 25.445312 C 11.953125 25.4375 11.957031 25.363281 11.921875 25.28125 C 11.890625 25.21875 11.828125 25.15625 11.765625 25.128906 C 11.316406 24.941406 11.015625 24.597656 10.820312 24.175781 C 10.714844 23.949219 10.683594 23.683594 10.636719 23.433594 C 10.570312 23.101562 10.566406 22.773438 10.667969 22.441406 C 10.726562 22.253906 10.746094 22.019531 10.683594 21.839844 C 10.582031 21.519531 10.605469 21.242188 10.785156 20.976562 C 10.902344 20.808594 11.050781 20.664062 11.175781 20.503906 C 11.40625 20.222656 11.644531 19.945312 11.726562 19.582031 C 11.761719 19.414062 11.832031 19.277344 11.964844 19.171875 C 12.140625 19.035156 12.246094 18.859375 12.285156 18.636719 C 12.308594 18.484375 12.339844 18.476562 12.480469 18.539062 C 12.554688 18.464844 12.632812 18.394531 12.703125 18.316406 C 12.777344 18.230469 12.835938 18.207031 12.917969 18.308594 C 13.058594 18.476562 13.238281 18.574219 13.472656 18.554688 C 13.503906 18.550781 13.5625 18.578125 13.574219 18.605469 C 13.617188 18.71875 13.707031 18.722656 13.804688 18.726562 C 13.902344 18.730469 14.03125 18.707031 14.097656 18.761719 C 14.261719 18.898438 14.460938 18.878906 14.644531 18.917969 C 14.753906 18.941406 14.769531 18.988281 14.757812 19.074219 C 14.753906 19.113281 14.738281 19.152344 14.734375 19.183594 C 14.847656 19.199219 14.910156 19.238281 14.878906 19.359375 C 14.847656 19.457031 14.816406 19.558594 14.804688 19.660156 C 14.796875 19.722656 14.824219 19.785156 14.839844 19.847656 C 14.855469 19.902344 14.882812 19.953125 14.902344 20.007812 C 14.949219 20.144531 14.992188 20.285156 15.046875 20.417969 C 15.082031 20.5 15.117188 20.609375 15.1875 20.644531 C 15.285156 20.691406 15.296875 20.753906 15.308594 20.839844 C 15.316406 20.902344 15.332031 20.996094 15.371094 21.003906 C 15.496094 21.046875 15.503906 21.167969 15.566406 21.25 C 15.605469 21.300781 15.636719 21.375 15.691406 21.394531 C 15.777344 21.433594 15.792969 21.488281 15.800781 21.574219 C 15.808594 21.765625 15.808594 21.964844 15.855469 22.152344 C 16.011719 22.835938 16.015625 23.519531 15.886719 24.207031 C 15.832031 24.492188 15.789062 24.777344 15.773438 25.066406 C 15.761719 25.261719 15.746094 25.441406 15.648438 25.617188 C 15.59375 25.714844 15.597656 25.828125 15.707031 25.910156 C 15.96875 26.113281 16.246094 26.289062 16.597656 26.25 C 16.792969 26.226562 16.980469 26.214844 17.171875 26.183594 C 17.238281 26.171875 17.308594 26.121094 17.363281 26.074219 C 17.433594 26.011719 17.429688 25.941406 17.34375 25.882812 C 17.269531 25.832031 17.191406 25.785156 17.125 25.726562 C 16.988281 25.613281 16.855469 25.5 16.730469 25.378906 C 16.53125 25.195312 16.496094 24.949219 16.496094 24.699219 C 16.488281 24.324219 16.511719 23.949219 16.480469 23.574219 C 16.457031 23.289062 16.519531 23.042969 16.664062 22.808594 C 16.722656 22.710938 16.789062 22.613281 16.832031 22.511719 C 16.941406 22.246094 17.023438 21.976562 16.976562 21.6875 C 16.941406 21.457031 17.078125 21.261719 17.089844 21.042969 C 17.09375 21.011719 17.125 20.984375 17.152344 20.964844 C 17.28125 20.839844 17.414062 20.71875 17.542969 20.597656 C 17.59375 20.546875 17.636719 20.488281 17.679688 20.433594 C 17.714844 20.503906 17.753906 20.566406 17.789062 20.636719 C 17.945312 20.980469 18.011719 21.339844 18.019531 21.714844 C 18.027344 21.929688 18.058594 22.148438 18.097656 22.363281 C 18.132812 22.574219 18.222656 22.785156 18.230469 23 C 18.257812 23.707031 18.269531 24.417969 18.269531 25.125 C 18.273438 25.308594 18.214844 25.488281 18.195312 25.671875 C 18.183594 25.753906 18.105469 25.847656 18.222656 25.917969 C 18.382812 26.019531 18.546875 26.113281 18.746094 26.105469 C 19.011719 26.09375 19.273438 26.078125 19.535156 26.074219 C 19.691406 26.074219 19.847656 26.089844 20.003906 26.105469 C 20.121094 26.113281 20.136719 26.050781 20.113281 25.960938 C 20.097656 25.917969 20.074219 25.863281 20.042969 25.839844 C 19.90625 25.738281 19.769531 25.632812 19.621094 25.558594 C 19.445312 25.46875 19.28125 25.363281 19.238281 25.164062 C 19.1875 24.941406 19.050781 24.789062 18.917969 24.621094 C 18.855469 24.535156 18.804688 24.417969 18.800781 24.316406 C 18.785156 23.953125 18.792969 23.59375 18.796875 23.234375 C 18.796875 23.136719 18.800781 23.039062 18.824219 22.949219 C 18.957031 22.511719 18.992188 22.066406 19.027344 21.617188 C 19.054688 21.339844 19.101562 21.058594 19.363281 20.878906 C 19.386719 20.863281 19.417969 20.835938 19.417969 20.816406 C 19.417969 20.589844 19.609375 20.519531 19.746094 20.398438 C 19.808594 20.34375 19.863281 20.257812 19.886719 20.175781 C 19.9375 19.992188 19.949219 19.792969 20.011719 19.613281 C 20.0625 19.472656 20.160156 19.34375 20.253906 19.222656 C 20.300781 19.160156 20.398438 19.140625 20.457031 19.082031 C 20.527344 19.019531 20.570312 19.054688 20.613281 19.097656 C 20.640625 19.128906 20.652344 19.171875 20.667969 19.210938 C 20.824219 19.101562 21.015625 19.285156 21.15625 19.132812 C 21.160156 19.128906 21.1875 19.152344 21.207031 19.15625 C 21.226562 19.164062 21.261719 19.175781 21.273438 19.167969 C 21.433594 19.027344 21.59375 18.886719 21.753906 18.75 C 21.800781 18.710938 21.851562 18.675781 21.894531 18.636719 C 21.96875 18.570312 22.054688 18.507812 22.101562 18.425781 C 22.144531 18.355469 22.167969 18.300781 22.257812 18.285156 C 22.300781 18.277344 22.335938 18.214844 22.367188 18.171875 C 22.394531 18.136719 22.402344 18.082031 22.425781 18.046875 C 22.636719 17.738281 22.921875 17.488281 23.097656 17.140625 C 23.207031 16.925781 23.292969 16.714844 23.34375 16.484375 C 23.363281 16.390625 23.378906 16.324219 23.472656 16.324219 C 23.496094 16.222656 23.488281 16.121094 23.535156 16.050781 C 23.675781 15.824219 23.660156 15.542969 23.808594 15.320312 C 23.832031 15.285156 23.832031 15.238281 23.839844 15.195312 C 23.882812 14.976562 23.980469 14.761719 23.894531 14.535156 C 23.894531 14.53125 23.894531 14.523438 23.898438 14.519531 C 24.023438 14.355469 23.957031 14.179688 23.925781 14.003906 C 23.910156 13.929688 23.898438 13.855469 23.894531 13.78125 C 23.894531 13.644531 23.894531 13.511719 23.894531 13.378906 C 23.894531 13.25 23.820312 13.136719 23.914062 12.988281 C 23.992188 12.863281 23.960938 12.667969 23.988281 12.503906 C 24.003906 12.382812 24.035156 12.261719 24.070312 12.140625 C 24.078125 12.113281 24.117188 12.089844 24.144531 12.066406 C 24.164062 12.09375 24.183594 12.121094 24.191406 12.132812 C 24.21875 12.078125 24.25 12.015625 24.28125 11.949219 C 24.316406 11.984375 24.347656 12.015625 24.378906 12.046875 C 24.527344 11.996094 24.574219 11.863281 24.617188 11.722656 C 24.636719 11.660156 24.660156 11.59375 24.699219 11.542969 C 24.722656 11.511719 24.785156 11.511719 24.855469 11.488281 C 25.019531 11.167969 25.019531 11.167969 25.382812 11.203125 C 25.410156 11.207031 25.441406 11.222656 25.464844 11.21875 C 25.628906 11.207031 25.824219 11.25 25.933594 11.167969 C 26.097656 11.050781 26.203125 10.851562 26.324219 10.683594 C 26.34375 10.65625 26.339844 10.589844 26.324219 10.5625 C 26.246094 10.445312 26.160156 10.332031 26.074219 10.222656 Z M 26.074219 10.222656 "/>
<path style=" stroke:none;fill-rule:evenodd;fill:rgb(67.450982%,57.647061%,57.647061%);fill-opacity:1;" d="M 21.816406 7.84375 C 22.058594 7.75 22.328125 7.871094 22.421875 8.109375 L 22.648438 8.683594 C 22.742188 8.925781 22.621094 9.199219 22.378906 9.292969 C 22.140625 9.386719 21.867188 9.269531 21.773438 9.027344 L 21.550781 8.449219 C 21.457031 8.210938 21.574219 7.9375 21.816406 7.84375 Z M 21.816406 7.84375 "/>
<path style=" stroke:none;fill-rule:evenodd;fill:rgb(56.862748%,43.529412%,43.529412%);fill-opacity:1;" d="M 23.949219 9.835938 C 23.953125 10.527344 23.363281 11.089844 22.636719 11.089844 C 21.910156 11.09375 21.316406 10.535156 21.316406 9.847656 C 21.3125 9.15625 21.902344 8.597656 22.628906 8.59375 C 23.355469 8.589844 23.949219 9.148438 23.949219 9.835938 Z M 23.949219 9.835938 "/>
<path style=" stroke:none;fill-rule:evenodd;fill:rgb(80.000001%,80.000001%,80.000001%);fill-opacity:1;" d="M 23.351562 9.816406 C 23.355469 10.191406 23.035156 10.496094 22.636719 10.5 C 22.238281 10.5 21.917969 10.199219 21.914062 9.820312 C 21.914062 9.445312 22.234375 9.136719 22.628906 9.136719 C 23.027344 9.136719 23.351562 9.441406 23.351562 9.816406 Z M 23.351562 9.816406 "/>
<path style="fill:none;stroke-width:8.6633;stroke-linecap:butt;stroke-linejoin:miter;stroke:rgb(18.82353%,47.058824%,66.274512%);stroke-opacity:1;stroke-miterlimit:2.6131;" d="M 112.982085 380.25886 C 135.560823 429.818576 195.268264 466.843523 247.379358 404.192663 C 293.318123 458.506273 346.129734 437.40934 371.896997 398.098314 C 385.521531 376.816854 335.79748 416.992732 339.274289 336.107586 C 338.389244 333.740736 394.741034 322.111205 394.596892 318.118407 C 393.443756 286.176023 381.05313 253.040118 353.576356 222.847632 C 316.055613 180.224132 234.449758 156.783334 169.495418 195.909831 C 116.375331 230.611105 100.363753 274.367548 100.467509 321.54022 C 100.01489 331.151763 67.455553 359.513582 70.254829 370.606931 C 70.543113 378.592527 108.701003 372.417406 112.982085 380.25886 Z M 112.982085 380.25886 " transform="matrix(0.00198937,-0.000906507,0.000906507,0.00198937,21.934436,9.595942)"/>
<path style=" stroke:none;fill-rule:evenodd;fill:rgb(18.82353%,47.058824%,66.274512%);fill-opacity:1;" d="M 22.683594 10.089844 L 22.652344 10.011719 L 22.59375 10.039062 L 22.683594 10.234375 L 22.738281 10.207031 L 22.707031 10.136719 L 22.738281 10.121094 L 22.863281 10.152344 L 22.941406 10.113281 L 22.777344 10.074219 L 22.84375 9.925781 L 22.769531 9.960938 L 22.714844 10.074219 Z M 22.683594 10.089844 "/>
<path style=" stroke:none;fill-rule:evenodd;fill:rgb(18.82353%,47.058824%,66.274512%);fill-opacity:1;" d="M 22.886719 9.964844 C 22.878906 9.941406 22.894531 9.902344 22.917969 9.894531 C 22.917969 9.894531 22.957031 9.875 22.988281 9.859375 C 23.019531 9.847656 23.058594 9.828125 23.058594 9.828125 C 23.113281 9.808594 23.128906 9.847656 23.140625 9.867188 L 23.085938 9.894531 C 23.082031 9.886719 23.074219 9.875 23.050781 9.886719 L 22.976562 9.917969 C 22.953125 9.929688 22.945312 9.945312 22.957031 9.96875 L 22.972656 10.007812 C 22.984375 10.03125 23 10.035156 23.027344 10.023438 L 23.097656 9.992188 C 23.117188 9.980469 23.121094 9.964844 23.113281 9.949219 L 23.035156 9.984375 L 23.019531 9.949219 L 23.152344 9.890625 C 23.160156 9.902344 23.183594 9.957031 23.183594 9.957031 C 23.191406 9.976562 23.175781 10.007812 23.136719 10.027344 C 23.136719 10.027344 23.089844 10.046875 23.058594 10.0625 C 23.023438 10.078125 23.003906 10.082031 23.003906 10.082031 C 22.972656 10.097656 22.945312 10.082031 22.929688 10.058594 C 22.929688 10.058594 22.921875 10.050781 22.90625 10.011719 C 22.886719 9.976562 22.886719 9.964844 22.886719 9.964844 Z M 22.886719 9.964844 "/>
<path style="fill:none;stroke-width:8.6633;stroke-linecap:butt;stroke-linejoin:miter;stroke:rgb(18.82353%,47.058824%,66.274512%);stroke-opacity:1;stroke-miterlimit:2.6131;" d="M 71.97895 108.275789 C 0.541013 122.848739 -5.570737 175.043396 14.352867 217.50256 C 34.276471 259.961725 99.150038 307.194976 179.314474 290.707795 C 233.299413 279.963309 295.907095 220.131918 292.427495 145.894705 C 291.170603 66.77965 230.289833 19.402257 169.080394 7.219142 C 126.353138 -2.432787 36.865443 21.587371 71.97895 108.275789 M 418.158848 106.972928 C 446.621631 31.582579 381.439587 -2.04633 330.5624 6.187164 C 263.714022 14.997226 207.774465 60.195088 199.419814 138.857525 C 194.193109 193.419032 232.866987 267.984915 305.602202 289.347147 C 380.704267 309.824334 445.658606 270.697836 475.727144 217.638327 C 499.127557 179.212347 487.209742 114.874961 418.158848 106.972928 Z M 418.158848 106.972928 " transform="matrix(0.00198937,-0.000906507,0.000906507,0.00198937,21.934436,9.595942)"/>
<path style=" stroke:none;fill-rule:evenodd;fill:rgb(18.82353%,47.058824%,66.274512%);fill-opacity:1;" d="M 22.433594 10.257812 L 22.441406 10.167969 L 22.515625 10.222656 Z M 22.457031 10.101562 L 22.382812 10.136719 L 22.363281 10.378906 L 22.425781 10.351562 L 22.425781 10.308594 L 22.558594 10.25 L 22.589844 10.277344 L 22.652344 10.246094 Z M 22.457031 10.101562 "/>
<path style=" stroke:none;fill-rule:nonzero;fill:rgb(18.82353%,47.058824%,66.274512%);fill-opacity:1;" d="M 23.09375 9.796875 C 23.089844 9.789062 23.089844 9.785156 23.09375 9.777344 C 23.097656 9.773438 23.101562 9.769531 23.105469 9.765625 C 23.113281 9.761719 23.121094 9.761719 23.125 9.765625 C 23.128906 9.765625 23.136719 9.769531 23.136719 9.777344 C 23.140625 9.78125 23.140625 9.789062 23.136719 9.792969 C 23.136719 9.800781 23.128906 9.804688 23.125 9.808594 C 23.121094 9.808594 23.113281 9.808594 23.105469 9.808594 C 23.101562 9.804688 23.097656 9.800781 23.09375 9.796875 Z M 23.097656 9.777344 C 23.097656 9.785156 23.097656 9.789062 23.097656 9.792969 C 23.101562 9.800781 23.105469 9.800781 23.109375 9.804688 C 23.113281 9.804688 23.121094 9.804688 23.125 9.800781 C 23.128906 9.800781 23.132812 9.796875 23.132812 9.792969 C 23.136719 9.789062 23.136719 9.785156 23.132812 9.777344 C 23.128906 9.773438 23.128906 9.769531 23.121094 9.769531 C 23.117188 9.765625 23.113281 9.765625 23.109375 9.769531 C 23.105469 9.769531 23.097656 9.777344 23.097656 9.777344 Z M 23.097656 9.777344 "/>
<path style=" stroke:none;fill-rule:evenodd;fill:rgb(18.82353%,47.058824%,66.274512%);fill-opacity:1;" d="M 23.113281 9.785156 C 23.117188 9.785156 23.117188 9.785156 23.117188 9.785156 C 23.121094 9.78125 23.121094 9.78125 23.117188 9.777344 C 23.117188 9.777344 23.117188 9.777344 23.113281 9.777344 L 23.109375 9.78125 Z M 23.117188 9.800781 L 23.113281 9.800781 L 23.101562 9.777344 L 23.113281 9.773438 C 23.113281 9.773438 23.117188 9.773438 23.117188 9.773438 C 23.121094 9.773438 23.121094 9.777344 23.125 9.777344 C 23.125 9.777344 23.125 9.785156 23.121094 9.785156 L 23.128906 9.792969 L 23.125 9.796875 L 23.117188 9.789062 L 23.113281 9.789062 Z M 23.117188 9.800781 "/>
</g>
</svg>
