
<svg xmlns="http://www.w3.org/2000/svg" xmlns:xlink="http://www.w3.org/1999/xlink" width="32px" height="32px" viewBox="0 0 32 32" version="1.1">
<g id="surface1">
<path style="fill-rule:nonzero;fill:rgb(82.352942%,21.176471%,21.960784%);fill-opacity:1;stroke-width:28.034744;stroke-linecap:butt;stroke-linejoin:miter;stroke:rgb(56.862748%,29.019609%,29.019609%);stroke-opacity:1;stroke-miterlimit:4;" d="M 82.4375 26.375 L 429.5625 26.375 C 460.5 26.375 485.625 51.5 485.625 82.4375 L 485.625 429.5625 C 485.625 460.5 460.5 485.625 429.5625 485.625 L 82.4375 485.625 C 51.5 485.625 26.375 460.5 26.375 429.5625 L 26.375 82.4375 C 26.375 51.5 51.5 26.375 82.4375 26.375 Z M 82.4375 26.375 " transform="matrix(0.0625,0,0,0.0625,0,0)"/>
<path style=" stroke:none;fill-rule:nonzero;fill:rgb(100%,100%,100%);fill-opacity:1;" d="M 24.488281 13.617188 C 23.441406 14.734375 21.660156 15.929688 19.136719 17.199219 C 17.582031 22.679688 15.296875 25.421875 12.285156 25.421875 C 10.253906 25.421875 9.324219 24.503906 9.496094 22.660156 C 9.589844 21.597656 10.292969 20.59375 11.597656 19.644531 C 12.527344 18.980469 14.007812 18.195312 16.035156 17.285156 C 16.265625 16.601562 16.445312 15.96875 16.578125 15.378906 C 15.058594 16.992188 13.488281 17.789062 11.855469 17.769531 C 10.738281 17.75 9.957031 17.304688 9.523438 16.433594 C 9.21875 15.785156 9.105469 15 9.183594 14.070312 C 9.351562 12.082031 10.148438 10.410156 11.570312 9.066406 C 12.996094 7.699219 14.699219 7.015625 16.691406 7.015625 C 17.601562 7.015625 18.472656 7.140625 19.308594 7.386719 C 20.144531 7.613281 20.644531 7.878906 20.816406 8.183594 C 20.550781 9.964844 20.113281 12.480469 19.507812 15.722656 C 21.652344 14.699219 23.160156 13.75 24.03125 12.878906 Z M 16.722656 10.714844 C 16.738281 10.371094 16.671875 10.105469 16.519531 9.917969 C 16.386719 9.707031 16.140625 9.613281 15.78125 9.632812 C 15.023438 9.671875 14.300781 10.222656 13.621094 11.285156 C 13.050781 12.191406 12.746094 12.988281 12.707031 13.671875 C 12.671875 14.375 12.984375 14.726562 13.648438 14.726562 C 14.3125 14.726562 14.984375 14.222656 15.667969 13.21875 C 16.3125 12.289062 16.664062 11.453125 16.722656 10.714844 Z M 15.183594 19.105469 C 13.515625 19.921875 12.660156 20.574219 12.625 21.070312 C 12.605469 21.332031 12.746094 21.464844 13.050781 21.464844 C 13.601562 21.464844 14.3125 20.679688 15.183594 19.105469 Z M 15.183594 19.105469 "/>
</g>
</svg>
