<!-- color: #ec8430 -->
<svg xmlns="http://www.w3.org/2000/svg" xmlns:xlink="http://www.w3.org/1999/xlink" width="32px" height="32px" viewBox="0 0 32 32" version="1.1">
<defs>
<clipPath id="clip1">
  <path d="M 8.125 8.125 L 24 8.125 L 24 23.9375 L 8.125 23.9375 Z M 8.125 8.125 "/>
</clipPath>
<clipPath id="clip2">
  <path d="M 31.164062 16.042969 C 31.164062 24.386719 24.398438 31.148438 16.058594 31.148438 C 7.722656 31.148438 0.953125 24.386719 0.953125 16.042969 C 0.953125 7.695312 7.722656 0.9375 16.058594 0.9375 C 24.398438 0.9375 31.164062 7.695312 31.164062 16.042969 Z M 31.164062 16.042969 "/>
</clipPath>
</defs>
<g id="surface1">
<path style="fill-rule:nonzero;fill:rgb(92.156863%,49.803922%,15.686275%);fill-opacity:1;stroke-width:7.09618;stroke-linecap:butt;stroke-linejoin:miter;stroke:rgb(100%,100%,100%);stroke-opacity:1;stroke-miterlimit:4;" d="M 20.078125 5.875 L 107.921875 5.875 C 115.765625 5.875 122.125 12.234375 122.125 20.078125 L 122.125 107.921875 C 122.125 115.765625 115.765625 122.125 107.921875 122.125 L 20.078125 122.125 C 12.234375 122.125 5.875 115.765625 5.875 107.921875 L 5.875 20.078125 C 5.875 12.234375 12.234375 5.875 20.078125 5.875 Z M 20.078125 5.875 " transform="matrix(0.25,0,0,0.25,0,0)"/>
<g clip-path="url(#clip1)" clip-rule="nonzero">
<g clip-path="url(#clip2)" clip-rule="nonzero">
<path style=" stroke:none;fill-rule:nonzero;fill:rgb(97.647059%,97.647059%,97.647059%);fill-opacity:1;" d="M 8.214844 13.988281 C 7.882812 11.417969 9.65625 8.160156 12.464844 8.160156 C 20.644531 8.160156 13.410156 18.046875 14.082031 18.746094 C 14.738281 19.40625 15.910156 18.339844 16.695312 17.144531 C 17.363281 16.101562 17.914062 14.992188 19.144531 15.597656 C 20.511719 16.269531 20.519531 17.566406 21.199219 18.972656 C 21.875 20.378906 22.566406 21.152344 23.253906 21.675781 C 25.601562 24.234375 21.304688 24.703125 20.019531 22.605469 C 18.683594 20.730469 19.339844 19.410156 16.800781 22.320312 C 12.773438 27.347656 8.839844 19.40625 8.222656 13.988281 M 8.226562 13.988281 "/>
</g>
</g>
</g>
</svg>
