
<svg xmlns="http://www.w3.org/2000/svg" xmlns:xlink="http://www.w3.org/1999/xlink" width="32px" height="32px" viewBox="0 0 32 32" version="1.1">
<g id="surface1">
<path style=" stroke:none;fill-rule:evenodd;fill:rgb(32.941177%,59.607846%,99.215686%);fill-opacity:1;" d="M 6.136719 1.554688 L 26.097656 1.554688 C 28.6875 1.554688 30.785156 3.652344 30.785156 6.246094 L 30.785156 26.011719 C 30.785156 28.605469 28.6875 30.703125 26.097656 30.703125 L 6.136719 30.703125 C 3.546875 30.703125 1.449219 28.605469 1.449219 26.011719 L 1.449219 6.246094 C 1.449219 3.652344 3.546875 1.554688 6.136719 1.554688 Z M 6.136719 1.554688 "/>
<path style="fill-rule:nonzero;fill:rgb(0%,26.274511%,32.941177%);fill-opacity:1;stroke-width:12.658824;stroke-linecap:round;stroke-linejoin:miter;stroke:rgb(0%,26.274511%,32.941177%);stroke-opacity:1;stroke-miterlimit:4;" d="M 530.805704 316.393704 C 530.805704 430.323137 438.369902 522.758939 324.440469 522.758939 C 210.511036 522.758939 118.141165 430.323137 118.141165 316.393704 C 118.141165 202.464271 210.511036 110.0944 324.440469 110.0944 C 438.369902 110.0944 530.805704 202.464271 530.805704 316.393704 Z M 530.805704 316.393704 " transform="matrix(0.0592472,0,0,0.0592472,-3.124533,-2.56966)"/>
<path style="fill-rule:nonzero;fill:rgb(100%,100%,100%);fill-opacity:1;stroke-width:2;stroke-linecap:butt;stroke-linejoin:miter;stroke:rgb(100%,100%,100%);stroke-opacity:1;stroke-miterlimit:4;" d="M -261.81547 247.372478 L -359.75297 389.997478 L -217.31547 293.247478 Z M -261.81547 247.372478 " transform="matrix(0.0625,0,0,0.0625,31.074404,-0.722499)"/>
<path style="fill-rule:nonzero;fill:rgb(87.058824%,24.313726%,24.313726%);fill-opacity:1;stroke-width:2;stroke-linecap:butt;stroke-linejoin:miter;stroke:rgb(87.058824%,24.313726%,24.313726%);stroke-opacity:1;stroke-miterlimit:4;" d="M -215.87797 291.809978 L -118.00297 149.247478 L -260.37797 245.997478 Z M -215.87797 291.809978 " transform="matrix(0.0625,0,0,0.0625,31.074404,-0.722499)"/>
</g>
</svg>
