
<svg xmlns="http://www.w3.org/2000/svg" xmlns:xlink="http://www.w3.org/1999/xlink" width="32px" height="32px" viewBox="0 0 32 32" version="1.1">
<g id="surface1">
<path style="fill-rule:nonzero;fill:rgb(100%,100%,100%);fill-opacity:1;stroke-width:28.284;stroke-linecap:butt;stroke-linejoin:miter;stroke:rgb(35.686275%,41.568628%,45.490196%);stroke-opacity:0.988235;stroke-miterlimit:4;" d="M 80.9375 24.3125 L 431.0625 24.3125 C 462.3125 24.3125 487.6875 49.6875 487.6875 80.9375 L 487.6875 431.0625 C 487.6875 462.3125 462.3125 487.6875 431.0625 487.6875 L 80.9375 487.6875 C 49.6875 487.6875 24.3125 462.3125 24.3125 431.0625 L 24.3125 80.9375 C 24.3125 49.6875 49.6875 24.3125 80.9375 24.3125 Z M 80.9375 24.3125 " transform="matrix(0.0625,0,0,0.0625,0,0)"/>
<path style=" stroke:none;fill-rule:nonzero;fill:rgb(20%,20%,20%);fill-opacity:1;" d="M 19.65625 10.949219 C 18.925781 10.949219 18.328125 11.542969 18.328125 12.277344 C 18.332031 12.722656 18.554688 13.140625 18.925781 13.386719 L 18.925781 18.613281 C 18.554688 18.859375 18.332031 19.277344 18.328125 19.722656 C 18.328125 20.457031 18.925781 21.050781 19.65625 21.050781 C 20.390625 21.050781 20.984375 20.457031 20.984375 19.722656 C 20.984375 19.277344 20.761719 18.859375 20.386719 18.613281 L 20.386719 13.386719 C 20.761719 13.140625 20.984375 12.722656 20.984375 12.277344 C 20.984375 11.542969 20.390625 10.949219 19.65625 10.949219 Z M 19.65625 10.949219 "/>
<path style=" stroke:none;fill-rule:nonzero;fill:rgb(20%,20%,20%);fill-opacity:1;" d="M 12.261719 10.949219 C 11.527344 10.949219 10.933594 11.542969 10.933594 12.277344 C 10.933594 12.722656 11.160156 13.140625 11.53125 13.386719 L 11.53125 18.613281 C 11.160156 18.859375 10.933594 19.277344 10.933594 19.722656 C 10.933594 20.457031 11.527344 21.050781 12.261719 21.050781 C 12.996094 21.050781 13.589844 20.457031 13.589844 19.722656 C 13.589844 19.277344 13.363281 18.859375 12.988281 18.613281 L 12.988281 13.386719 C 13.363281 13.140625 13.589844 12.722656 13.589844 12.277344 C 13.589844 11.542969 12.996094 10.949219 12.261719 10.949219 Z M 12.261719 10.949219 "/>
<path style=" stroke:none;fill-rule:nonzero;fill:rgb(20%,20%,20%);fill-opacity:1;" d="M 21.066406 12.347656 C 21.066406 11.613281 20.472656 11.019531 19.738281 11.019531 C 19.292969 11.019531 18.875 11.242188 18.628906 11.617188 L 13.402344 11.617188 C 13.152344 11.242188 12.738281 11.019531 12.292969 11.019531 C 11.558594 11.019531 10.964844 11.613281 10.964844 12.347656 C 10.964844 13.078125 11.558594 13.675781 12.292969 13.675781 C 12.738281 13.675781 13.152344 13.449219 13.398438 13.074219 L 18.628906 13.074219 C 18.875 13.449219 19.292969 13.675781 19.738281 13.675781 C 20.472656 13.675781 21.066406 13.078125 21.066406 12.347656 Z M 21.066406 12.347656 "/>
<path style=" stroke:none;fill-rule:nonzero;fill:rgb(20%,20%,20%);fill-opacity:1;" d="M 21.035156 19.722656 C 21.035156 18.988281 20.441406 18.394531 19.707031 18.394531 C 19.261719 18.394531 18.847656 18.621094 18.601562 18.996094 L 13.371094 18.996094 C 13.125 18.621094 12.707031 18.394531 12.261719 18.394531 C 11.527344 18.394531 10.933594 18.988281 10.933594 19.722656 C 10.933594 20.457031 11.527344 21.050781 12.261719 21.050781 C 12.707031 21.050781 13.125 20.824219 13.371094 20.453125 L 18.597656 20.453125 C 18.847656 20.824219 19.261719 21.050781 19.707031 21.050781 C 20.441406 21.050781 21.035156 20.457031 21.035156 19.722656 Z M 21.035156 19.722656 "/>
<path style=" stroke:none;fill-rule:nonzero;fill:rgb(20%,20%,20%);fill-opacity:1;" d="M 21.027344 20.011719 L 26.535156 25.519531 C 26.5625 25.546875 26.5625 25.59375 26.535156 25.621094 L 25.515625 26.640625 C 25.488281 26.667969 25.441406 26.667969 25.410156 26.640625 L 19.90625 21.136719 C 19.878906 21.105469 19.878906 21.058594 19.90625 21.03125 L 20.925781 20.011719 C 20.953125 19.984375 21 19.984375 21.027344 20.011719 Z M 21.027344 20.011719 "/>
<path style=" stroke:none;fill-rule:nonzero;fill:rgb(20%,20%,20%);fill-opacity:1;" d="M 11.105469 20.011719 L 5.597656 25.519531 C 5.570312 25.546875 5.570312 25.59375 5.597656 25.621094 L 6.617188 26.640625 C 6.644531 26.667969 6.691406 26.667969 6.722656 26.640625 L 12.222656 21.136719 C 12.253906 21.105469 12.253906 21.058594 12.222656 21.03125 L 11.207031 20.011719 C 11.175781 19.984375 11.132812 19.984375 11.105469 20.011719 Z M 11.105469 20.011719 "/>
<path style=" stroke:none;fill-rule:nonzero;fill:rgb(20%,20%,20%);fill-opacity:1;" d="M 21.027344 12.433594 L 26.535156 6.933594 C 26.5625 6.902344 26.5625 6.855469 26.535156 6.828125 L 25.515625 5.808594 C 25.488281 5.78125 25.441406 5.78125 25.410156 5.808594 L 19.90625 11.316406 C 19.878906 11.34375 19.878906 11.386719 19.90625 11.417969 L 20.925781 12.433594 C 20.953125 12.464844 21 12.464844 21.027344 12.433594 Z M 21.027344 12.433594 "/>
<path style=" stroke:none;fill-rule:nonzero;fill:rgb(20%,20%,20%);fill-opacity:1;" d="M 11.105469 12.433594 L 5.597656 6.933594 C 5.570312 6.902344 5.570312 6.855469 5.597656 6.828125 L 6.617188 5.808594 C 6.644531 5.78125 6.691406 5.78125 6.722656 5.808594 L 12.222656 11.316406 C 12.253906 11.34375 12.253906 11.386719 12.222656 11.417969 L 11.207031 12.433594 C 11.175781 12.464844 11.132812 12.464844 11.105469 12.433594 Z M 11.105469 12.433594 "/>
<path style=" stroke:none;fill-rule:nonzero;fill:rgb(40.000001%,40.000001%,40.000001%);fill-opacity:1;" d="M 23.957031 5.011719 C 22.359375 5.011719 21.066406 6.304688 21.066406 7.898438 C 21.066406 8.871094 21.558594 9.777344 22.371094 10.3125 L 22.371094 21.6875 C 21.558594 22.222656 21.066406 23.128906 21.066406 24.101562 C 21.066406 25.695312 22.359375 26.988281 23.957031 26.988281 C 25.550781 26.988281 26.84375 25.695312 26.84375 24.101562 C 26.84375 23.128906 26.355469 22.222656 25.542969 21.6875 L 25.542969 10.3125 C 26.355469 9.777344 26.84375 8.871094 26.84375 7.898438 C 26.84375 6.304688 25.550781 5.011719 23.957031 5.011719 Z M 23.957031 5.011719 "/>
<path style=" stroke:none;fill-rule:nonzero;fill:rgb(40.000001%,40.000001%,40.000001%);fill-opacity:1;" d="M 7.867188 5.011719 C 6.273438 5.011719 4.980469 6.304688 4.980469 7.898438 C 4.980469 8.871094 5.46875 9.777344 6.28125 10.3125 L 6.28125 21.6875 C 5.46875 22.222656 4.980469 23.128906 4.980469 24.101562 C 4.980469 25.695312 6.273438 26.988281 7.867188 26.988281 C 9.464844 26.988281 10.757812 25.695312 10.757812 24.101562 C 10.753906 23.128906 10.265625 22.222656 9.453125 21.6875 L 9.453125 10.3125 C 10.265625 9.777344 10.757812 8.871094 10.757812 7.898438 C 10.757812 6.304688 9.464844 5.011719 7.867188 5.011719 Z M 7.867188 5.011719 "/>
<path style=" stroke:none;fill-rule:nonzero;fill:rgb(40.000001%,40.000001%,40.000001%);fill-opacity:1;" d="M 27.019531 8.050781 C 27.019531 6.457031 25.726562 5.160156 24.132812 5.160156 C 23.160156 5.164062 22.253906 5.652344 21.71875 6.464844 L 10.34375 6.464844 C 9.808594 5.652344 8.902344 5.160156 7.933594 5.160156 C 6.335938 5.160156 5.042969 6.457031 5.042969 8.050781 C 5.042969 9.644531 6.335938 10.941406 7.933594 10.941406 C 8.902344 10.941406 9.808594 10.449219 10.34375 9.636719 L 21.71875 9.636719 C 22.253906 10.449219 23.160156 10.941406 24.132812 10.941406 C 25.726562 10.941406 27.019531 9.644531 27.019531 8.050781 Z M 27.019531 8.050781 "/>
<path style=" stroke:none;fill-rule:nonzero;fill:rgb(40.000001%,40.000001%,40.000001%);fill-opacity:1;" d="M 26.957031 24.101562 C 26.957031 22.503906 25.664062 21.210938 24.066406 21.210938 C 23.097656 21.210938 22.191406 21.703125 21.65625 22.511719 L 10.28125 22.511719 C 9.746094 21.699219 8.839844 21.210938 7.867188 21.210938 C 6.273438 21.210938 4.980469 22.503906 4.980469 24.101562 C 4.980469 25.695312 6.273438 26.988281 7.867188 26.988281 C 8.839844 26.988281 9.746094 26.5 10.28125 25.6875 L 21.65625 25.6875 C 22.191406 26.5 23.097656 26.988281 24.066406 26.988281 C 25.664062 26.988281 26.957031 25.695312 26.957031 24.101562 Z M 26.957031 24.101562 "/>
</g>
</svg>
