
<svg xmlns="http://www.w3.org/2000/svg" xmlns:xlink="http://www.w3.org/1999/xlink" width="32px" height="32px" viewBox="0 0 32 32" version="1.1">
<g id="surface1">
<path style="fill-rule:nonzero;fill:rgb(92.54902%,92.54902%,92.54902%);fill-opacity:1;stroke-width:27.442497;stroke-linecap:butt;stroke-linejoin:miter;stroke:rgb(0%,66.666669%,83.137256%);stroke-opacity:1;stroke-miterlimit:4;" d="M 86.125 31.25 L 425.875 31.25 C 456.1875 31.25 480.75 55.8125 480.75 86.125 L 480.75 425.875 C 480.75 456.1875 456.1875 480.75 425.875 480.75 L 86.125 480.75 C 55.8125 480.75 31.25 456.1875 31.25 425.875 L 31.25 86.125 C 31.25 55.8125 55.8125 31.25 86.125 31.25 Z M 86.125 31.25 " transform="matrix(0.0625,0,0,0.0625,0,0)"/>
<path style=" stroke:none;fill-rule:evenodd;fill:rgb(50.196081%,50.196081%,50.196081%);fill-opacity:1;" d="M 14.1875 24.730469 L 11.246094 26.65625 L 20.808594 26.65625 L 17.863281 24.730469 Z M 14.1875 24.730469 "/>
<path style=" stroke:none;fill-rule:evenodd;fill:rgb(50.196081%,50.196081%,50.196081%);fill-opacity:1;" d="M 14.1875 24.144531 L 11.246094 26.074219 L 20.808594 26.074219 L 17.863281 24.144531 Z M 14.1875 24.144531 "/>
<path style=" stroke:none;fill-rule:nonzero;fill:rgb(30.19608%,30.19608%,30.19608%);fill-opacity:1;" d="M 13.984375 20.601562 L 18.074219 20.601562 L 18.074219 25.152344 L 13.984375 25.152344 Z M 13.984375 20.601562 "/>
<path style=" stroke:none;fill-rule:nonzero;fill:rgb(50.196081%,50.196081%,50.196081%);fill-opacity:1;" d="M 5.878906 5.34375 L 26.183594 5.34375 C 26.894531 5.34375 27.472656 5.894531 27.472656 6.574219 L 27.472656 20.792969 C 27.472656 21.472656 26.894531 22.023438 26.183594 22.023438 L 5.878906 22.023438 C 5.167969 22.023438 4.589844 21.472656 4.589844 20.792969 L 4.589844 6.574219 C 4.589844 5.894531 5.167969 5.34375 5.878906 5.34375 Z M 5.878906 5.34375 "/>
<path style=" stroke:none;fill-rule:nonzero;fill:rgb(0%,66.666669%,83.137256%);fill-opacity:1;" d="M 6.730469 6.902344 L 25.328125 6.902344 L 25.328125 20.460938 L 6.730469 20.460938 Z M 6.730469 6.902344 "/>
<path style=" stroke:none;fill-rule:evenodd;fill:rgb(0%,0%,0%);fill-opacity:1;" d="M 11.246094 26.074219 L 11.246094 26.65625 L 20.8125 26.65625 L 20.8125 26.074219 Z M 11.246094 26.074219 "/>
<path style=" stroke:none;fill-rule:nonzero;fill:rgb(100%,100%,100%);fill-opacity:1;" d="M 18.035156 18.027344 L 16.984375 18.027344 L 16.984375 19.148438 L 18.035156 19.148438 Z M 16.457031 18.027344 L 15.40625 18.027344 L 15.40625 19.148438 L 16.457031 19.148438 Z M 14.878906 18.027344 L 13.824219 18.027344 L 13.824219 19.148438 L 14.878906 19.148438 Z M 14.878906 18.027344 "/>
<path style=" stroke:none;fill-rule:evenodd;fill:rgb(20%,20%,20%);fill-opacity:1;" d="M 6.675781 6.9375 L 6.675781 8 L 25.277344 8 L 25.277344 6.9375 Z M 6.675781 6.9375 "/>
<path style="fill:none;stroke-width:5.146672;stroke-linecap:butt;stroke-linejoin:miter;stroke:rgb(100%,100%,100%);stroke-opacity:1;stroke-dasharray:10.293345,10.293345;stroke-miterlimit:4;" d="M 117.0625 135.6875 L 391 135.6875 L 391 316.0625 L 117.0625 316.0625 Z M 117.0625 135.6875 " transform="matrix(0.0625,0,0,0.0625,0,0)"/>
<path style=" stroke:none;fill-rule:nonzero;fill:rgb(20%,20%,20%);fill-opacity:1;" d="M 22.332031 18.863281 C 22.554688 20.246094 23.019531 20.957031 22.765625 21.097656 C 22.566406 21.207031 22.507812 21.003906 22.011719 21.316406 C 21.527344 21.621094 21.453125 22.339844 21.757812 22.808594 C 22.027344 23.300781 22.683594 23.597656 23.203125 23.3125 C 23.742188 23.058594 23.980469 22.351562 23.722656 21.816406 C 23.476562 21.160156 22.984375 20.460938 23.128906 19.289062 L 23.242188 18.386719 L 22.511719 14.15625 C 22.386719 13.640625 22.074219 13.097656 21.414062 12.949219 Z M 21.953125 22.242188 C 21.949219 21.566406 22.753906 21.171875 23.203125 21.621094 C 23.644531 22.011719 23.519531 22.894531 22.910156 23.03125 C 22.425781 23.183594 21.953125 22.703125 21.953125 22.242188 Z M 21.953125 22.242188 "/>
<path style=" stroke:none;fill-rule:nonzero;fill:rgb(20%,20%,20%);fill-opacity:1;" d="M 23.25 17.988281 C 24.632812 18.207031 25.347656 18.667969 25.488281 18.417969 C 25.597656 18.21875 25.390625 18.160156 25.707031 17.660156 C 26.003906 17.179688 26.726562 17.101562 27.195312 17.40625 C 27.6875 17.675781 27.984375 18.332031 27.699219 18.847656 C 27.449219 19.386719 26.742188 19.628906 26.207031 19.375 C 25.550781 19.128906 24.847656 18.636719 23.675781 18.785156 L 22.777344 18.898438 L 18.542969 18.175781 C 18.027344 18.050781 17.484375 17.746094 17.332031 17.082031 Z M 26.628906 17.601562 C 25.953125 17.601562 25.558594 18.40625 26.011719 18.855469 C 26.402344 19.292969 27.28125 19.167969 27.417969 18.554688 C 27.570312 18.074219 27.089844 17.601562 26.628906 17.601562 Z M 26.628906 17.601562 "/>
</g>
</svg>
