
<svg xmlns="http://www.w3.org/2000/svg" xmlns:xlink="http://www.w3.org/1999/xlink" width="32px" height="32px" viewBox="0 0 32 32" version="1.1">
<defs>
<linearGradient id="linear0" gradientUnits="userSpaceOnUse" x1="69.087135" y1="60.327255" x2="69.087135" y2="36.595539" gradientTransform="matrix(0.223863,0,0,0.234355,-0.658057,4.858134)">
<stop offset="0" style="stop-color:rgb(83.137256%,0%,0%);stop-opacity:1;"/>
<stop offset="1" style="stop-color:rgb(83.137256%,7.843138%,0%);stop-opacity:1;"/>
</linearGradient>
<linearGradient id="linear1" gradientUnits="userSpaceOnUse" x1="69.087135" y1="60.327255" x2="69.087135" y2="36.595539" gradientTransform="matrix(0.223863,0,0,0.234355,1.891712,4.953465)">
<stop offset="0" style="stop-color:rgb(83.137256%,0%,0%);stop-opacity:1;"/>
<stop offset="1" style="stop-color:rgb(83.137256%,7.843138%,0%);stop-opacity:1;"/>
</linearGradient>
<linearGradient id="linear2" gradientUnits="userSpaceOnUse" x1="69.087135" y1="60.327255" x2="69.087135" y2="36.595539" gradientTransform="matrix(0.223863,0,0,0.234355,4.805733,4.953465)">
<stop offset="0" style="stop-color:rgb(83.137256%,0%,0%);stop-opacity:1;"/>
<stop offset="1" style="stop-color:rgb(83.137256%,7.843138%,0%);stop-opacity:1;"/>
</linearGradient>
</defs>
<g id="surface1">
<path style="fill-rule:nonzero;fill:rgb(83.137256%,0%,0%);fill-opacity:1;stroke-width:19.874001;stroke-linecap:butt;stroke-linejoin:miter;stroke:rgb(52.941179%,8.627451%,8.627451%);stroke-opacity:1;stroke-miterlimit:4;" d="M 87.951308 630.795415 L 361.836226 630.795415 C 393.979741 630.795415 420.027072 656.842747 420.027072 689.041682 L 420.027072 962.87118 C 420.027072 995.014695 393.979741 1021.062026 361.836226 1021.062026 L 87.951308 1021.062026 C 55.807793 1021.062026 29.760462 995.014695 29.760462 962.87118 L 29.760462 689.041682 C 29.760462 656.842747 55.807793 630.795415 87.951308 630.795415 Z M 87.951308 630.795415 " transform="matrix(0.0704847,0,0,0.0704847,0,-42.207499)"/>
<path style="fill-rule:nonzero;fill:rgb(100%,100%,100%);fill-opacity:1;stroke-width:1.5;stroke-linecap:butt;stroke-linejoin:miter;stroke:rgb(83.137256%,0%,0%);stroke-opacity:1;stroke-miterlimit:4;" d="M 34.685296 4.775551 L 76.668222 4.775551 C 79.983582 4.775551 82.670769 7.475785 82.670769 10.776071 L 82.670769 82.782316 C 82.670769 86.082602 79.983582 88.782836 76.668222 88.782836 L 34.685296 88.782836 C 31.369936 88.782836 28.682749 86.082602 28.682749 82.782316 L 28.682749 10.776071 C 28.682749 7.475785 31.369936 4.775551 34.685296 4.775551 Z M 34.685296 4.775551 " transform="matrix(0.223863,0,0,0.234355,0.707891,5.048796)"/>
<path style=" stroke:none;fill-rule:nonzero;fill:url(#linear0);" d="M 12.101562 13.292969 C 11.359375 13.292969 10.757812 13.925781 10.757812 14.699219 C 10.757812 14.75 10.761719 14.796875 10.761719 14.84375 C 10.878906 16.925781 13.445312 18.917969 13.445312 18.917969 C 13.445312 18.917969 16.007812 16.84375 16.128906 14.84375 C 16.128906 14.796875 16.132812 14.75 16.132812 14.699219 C 16.132812 13.925781 15.53125 13.292969 14.789062 13.292969 C 14.046875 13.292969 13.445312 13.925781 13.445312 14.699219 C 13.445312 13.925781 12.84375 13.292969 12.101562 13.292969 Z M 12.101562 13.292969 "/>
<path style="fill-rule:nonzero;fill:rgb(100%,100%,100%);fill-opacity:1;stroke-width:1.5;stroke-linecap:butt;stroke-linejoin:miter;stroke:rgb(83.137256%,0%,0%);stroke-opacity:1;stroke-miterlimit:4;" d="M 34.67237 4.76881 L 76.672746 4.76881 C 79.988106 4.76881 82.675292 7.469044 82.675292 10.76933 L 82.675292 82.775574 C 82.675292 86.092529 79.988106 88.776095 76.672746 88.776095 L 34.67237 88.776095 C 31.35701 88.776095 28.669823 86.092529 28.669823 82.775574 L 28.669823 10.76933 C 28.669823 7.469044 31.35701 4.76881 34.67237 4.76881 Z M 34.67237 4.76881 " transform="matrix(0.223863,0,0,0.234355,3.257659,5.144126)"/>
<path style=" stroke:none;fill-rule:nonzero;fill:url(#linear1);" d="M 14.652344 13.390625 C 13.910156 13.390625 13.308594 14.019531 13.308594 14.796875 C 13.308594 14.84375 13.308594 14.890625 13.316406 14.941406 C 13.429688 17.019531 15.996094 19.015625 15.996094 19.015625 C 15.996094 19.015625 18.558594 16.941406 18.675781 14.941406 C 18.679688 14.890625 18.683594 14.84375 18.683594 14.796875 C 18.683594 14.019531 18.082031 13.390625 17.339844 13.390625 C 16.597656 13.390625 15.996094 14.019531 15.996094 14.796875 C 15.996094 14.019531 15.394531 13.390625 14.652344 13.390625 Z M 14.652344 13.390625 "/>
<path style="fill-rule:nonzero;fill:rgb(100%,100%,100%);fill-opacity:1;stroke-width:1.5;stroke-linecap:butt;stroke-linejoin:miter;stroke:rgb(83.137256%,0%,0%);stroke-opacity:1;stroke-miterlimit:4;" d="M 34.672557 4.76881 L 76.672933 4.76881 C 79.988293 4.76881 82.67548 7.469044 82.67548 10.76933 L 82.67548 82.775574 C 82.67548 86.092529 79.988293 88.776095 76.672933 88.776095 L 34.672557 88.776095 C 31.357197 88.776095 28.670011 86.092529 28.670011 82.775574 L 28.670011 10.76933 C 28.670011 7.469044 31.357197 4.76881 34.672557 4.76881 Z M 34.672557 4.76881 " transform="matrix(0.223863,0,0,0.234355,6.17168,5.144126)"/>
<path style=" stroke:none;fill-rule:nonzero;fill:url(#linear2);" d="M 17.566406 13.390625 C 16.824219 13.390625 16.222656 14.019531 16.222656 14.796875 C 16.222656 14.84375 16.222656 14.890625 16.230469 14.941406 C 16.34375 17.019531 18.910156 19.015625 18.910156 19.015625 C 18.910156 19.015625 21.472656 16.941406 21.589844 14.941406 C 21.59375 14.890625 21.597656 14.84375 21.597656 14.796875 C 21.597656 14.019531 20.996094 13.390625 20.253906 13.390625 C 19.511719 13.390625 18.910156 14.019531 18.910156 14.796875 C 18.910156 14.019531 18.308594 13.390625 17.566406 13.390625 Z M 17.566406 13.390625 "/>
<path style=" stroke:none;fill-rule:nonzero;fill:rgb(83.137256%,0%,0%);fill-opacity:1;" d="M 13.957031 8.8125 L 13.957031 8.886719 L 13.375 8.886719 L 13.375 8.8125 L 13.574219 8.777344 L 14.175781 7.011719 L 14.425781 7.011719 L 15.054688 8.777344 L 15.277344 8.8125 L 15.277344 8.886719 L 14.53125 8.886719 L 14.53125 8.8125 L 14.769531 8.777344 L 14.59375 8.238281 L 13.894531 8.238281 L 13.71875 8.777344 L 13.957031 8.8125 M 14.238281 7.210938 L 13.9375 8.113281 L 14.550781 8.113281 L 14.238281 7.210938 "/>
<path style=" stroke:none;fill-rule:nonzero;fill:rgb(83.137256%,0%,0%);fill-opacity:1;" d="M 13.933594 9.355469 C 13.6875 9.355469 13.488281 9.566406 13.488281 9.824219 C 13.488281 9.839844 13.488281 9.855469 13.488281 9.871094 C 13.527344 10.566406 14.382812 11.230469 14.382812 11.230469 C 14.382812 11.230469 15.238281 10.535156 15.277344 9.871094 C 15.277344 9.855469 15.277344 9.839844 15.277344 9.824219 C 15.277344 9.566406 15.078125 9.355469 14.832031 9.355469 C 14.582031 9.355469 14.382812 9.566406 14.382812 9.824219 C 14.382812 9.566406 14.183594 9.355469 13.933594 9.355469 Z M 13.933594 9.355469 "/>
<path style=" stroke:none;fill-rule:nonzero;fill:rgb(83.137256%,0%,0%);fill-opacity:1;" d="M 10.292969 8.695312 L 10.292969 8.566406 L 10.523438 8.566406 L 10.523438 6.984375 L 10.292969 6.984375 L 10.292969 6.855469 L 10.996094 6.855469 L 10.996094 6.984375 L 10.765625 6.984375 L 10.765625 7.683594 L 11.539062 6.984375 L 11.34375 6.984375 L 11.34375 6.855469 L 11.941406 6.855469 L 11.941406 6.984375 L 11.738281 6.984375 L 10.96875 7.679688 L 11.832031 8.566406 L 12.035156 8.566406 L 12.035156 8.695312 L 11.617188 8.695312 L 10.765625 7.820312 L 10.765625 8.566406 L 10.996094 8.566406 L 10.996094 8.695312 L 10.292969 8.695312 "/>
<path style=" stroke:none;fill-rule:nonzero;fill:rgb(83.137256%,0%,0%);fill-opacity:1;" d="M 10.816406 10.570312 C 10.597656 10.570312 10.421875 10.410156 10.421875 10.21875 C 10.421875 10.207031 10.425781 10.195312 10.425781 10.183594 C 10.457031 9.660156 11.207031 9.164062 11.207031 9.164062 C 11.207031 9.164062 11.953125 9.683594 11.988281 10.183594 C 11.988281 10.195312 11.988281 10.207031 11.988281 10.21875 C 11.988281 10.410156 11.816406 10.570312 11.597656 10.570312 C 11.382812 10.570312 11.207031 10.410156 11.207031 10.21875 C 11.207031 10.410156 11.03125 10.570312 10.816406 10.570312 Z M 10.816406 10.570312 "/>
<path style=" stroke:none;fill-rule:nonzero;fill:rgb(83.137256%,0%,0%);fill-opacity:1;" d="M 11.207031 10.101562 C 11.207031 10.804688 10.757812 11.039062 10.757812 11.039062 L 11.652344 11.039062 C 11.652344 11.039062 11.207031 10.804688 11.207031 10.101562 Z M 11.207031 10.101562 "/>
<path style=" stroke:none;fill-rule:nonzero;fill:rgb(83.137256%,0%,0%);fill-opacity:1;" d="M 7.792969 7.199219 L 7.660156 7.199219 L 7.660156 6.871094 C 7.746094 6.824219 7.832031 6.785156 7.917969 6.761719 C 8.003906 6.738281 8.089844 6.722656 8.175781 6.722656 C 8.363281 6.722656 8.507812 6.769531 8.617188 6.863281 C 8.722656 6.957031 8.777344 7.082031 8.777344 7.242188 C 8.777344 7.421875 8.65625 7.636719 8.410156 7.890625 C 8.394531 7.910156 8.378906 7.921875 8.367188 7.933594 L 7.914062 8.398438 L 8.664062 8.398438 L 8.664062 8.171875 L 8.804688 8.171875 L 8.804688 8.597656 L 7.644531 8.597656 L 7.644531 8.464844 L 8.191406 7.910156 C 8.3125 7.785156 8.398438 7.671875 8.449219 7.566406 C 8.5 7.464844 8.527344 7.355469 8.527344 7.242188 C 8.527344 7.121094 8.496094 7.019531 8.429688 6.953125 C 8.367188 6.882812 8.28125 6.847656 8.171875 6.847656 C 8.058594 6.847656 7.96875 6.875 7.90625 6.933594 C 7.84375 6.992188 7.804688 7.082031 7.792969 7.199219 "/>
<path style=" stroke:none;fill-rule:nonzero;fill:rgb(83.137256%,0%,0%);fill-opacity:1;" d="M 9.199219 10.003906 C 9.199219 10.085938 8.820312 10.433594 8.765625 10.488281 C 8.714844 10.546875 8.378906 10.941406 8.304688 10.941406 C 8.230469 10.941406 7.894531 10.546875 7.839844 10.488281 C 7.789062 10.433594 7.410156 10.085938 7.410156 10.003906 C 7.410156 9.925781 7.789062 9.578125 7.839844 9.523438 C 7.894531 9.464844 8.230469 9.066406 8.304688 9.066406 C 8.378906 9.066406 8.714844 9.464844 8.765625 9.523438 C 8.820312 9.578125 9.199219 9.925781 9.199219 10.003906 Z M 9.199219 10.003906 "/>
<path style=" stroke:none;fill-rule:nonzero;fill:rgb(76.862746%,0%,0%);fill-opacity:1;" d="M 22.464844 23.402344 L 22.464844 23.328125 L 21.882812 23.328125 L 21.882812 23.402344 L 22.082031 23.441406 L 22.683594 25.203125 L 22.933594 25.203125 L 23.558594 23.441406 L 23.785156 23.402344 L 23.785156 23.328125 L 23.035156 23.328125 L 23.035156 23.402344 L 23.277344 23.441406 L 23.097656 23.976562 L 22.402344 23.976562 L 22.226562 23.441406 L 22.464844 23.402344 M 22.746094 25.003906 L 22.441406 24.101562 L 23.058594 24.101562 L 22.746094 25.003906 "/>
<path style=" stroke:none;fill-rule:nonzero;fill:rgb(76.862746%,0%,0%);fill-opacity:1;" d="M 22.441406 22.859375 C 22.195312 22.859375 21.996094 22.652344 21.996094 22.390625 C 21.996094 22.375 21.996094 22.359375 21.996094 22.34375 C 22.035156 21.648438 22.890625 20.984375 22.890625 20.984375 C 22.890625 20.984375 23.742188 21.675781 23.785156 22.34375 C 23.785156 22.359375 23.785156 22.375 23.785156 22.390625 C 23.785156 22.652344 23.582031 22.859375 23.335938 22.859375 C 23.089844 22.859375 22.890625 22.652344 22.890625 22.390625 C 22.890625 22.652344 22.691406 22.859375 22.441406 22.859375 Z M 22.441406 22.859375 "/>
</g>
</svg>
