<!-- color: #474747 -->
<svg xmlns="http://www.w3.org/2000/svg" xmlns:xlink="http://www.w3.org/1999/xlink" width="32px" height="32px" viewBox="0 0 32 32" version="1.1">
<defs>
<clipPath id="clip1">
  <path d="M 4.75 3.625 L 27.6875 3.625 L 27.6875 24.5 L 4.75 24.5 Z M 4.75 3.625 "/>
</clipPath>
<clipPath id="clip2">
  <path d="M 38.128906 15.011719 C 38.128906 27.058594 28.308594 36.820312 16.210938 36.820312 C 4.113281 36.820312 -5.703125 27.058594 -5.703125 15.011719 C -5.703125 2.957031 4.113281 -6.800781 16.210938 -6.800781 C 28.308594 -6.800781 38.128906 2.957031 38.128906 15.011719 Z M 38.128906 15.011719 "/>
</clipPath>
<clipPath id="clip3">
  <path d="M 8.5625 20.6875 L 25.75 20.6875 L 25.75 28.3125 L 8.5625 28.3125 Z M 8.5625 20.6875 "/>
</clipPath>
<clipPath id="clip4">
  <path d="M 38.128906 15.011719 C 38.128906 27.058594 28.308594 36.820312 16.210938 36.820312 C 4.113281 36.820312 -5.703125 27.058594 -5.703125 15.011719 C -5.703125 2.957031 4.113281 -6.800781 16.210938 -6.800781 C 28.308594 -6.800781 38.128906 2.957031 38.128906 15.011719 Z M 38.128906 15.011719 "/>
</clipPath>
</defs>
<g id="surface1">
<path style="fill-rule:nonzero;fill:rgb(100%,100%,100%);fill-opacity:1;stroke-width:7.045022;stroke-linecap:butt;stroke-linejoin:miter;stroke:rgb(99.215686%,79.215688%,0.392157%);stroke-opacity:1;stroke-miterlimit:4;" d="M 20.390625 6.296875 L 107.609375 6.296875 C 115.390625 6.296875 121.703125 12.609375 121.703125 20.390625 L 121.703125 107.609375 C 121.703125 115.390625 115.390625 121.703125 107.609375 121.703125 L 20.390625 121.703125 C 12.609375 121.703125 6.296875 115.390625 6.296875 107.609375 L 6.296875 20.390625 C 6.296875 12.609375 12.609375 6.296875 20.390625 6.296875 Z M 20.390625 6.296875 " transform="matrix(0.25,0,0,0.25,0,0)"/>
<g clip-path="url(#clip1)" clip-rule="nonzero">
<g clip-path="url(#clip2)" clip-rule="nonzero">
<path style=" stroke:none;fill-rule:nonzero;fill:rgb(99.215686%,79.215688%,0.392157%);fill-opacity:1;" d="M 11.535156 3.628906 C 7.792969 3.628906 4.773438 6.632812 4.773438 10.355469 L 4.773438 17.765625 C 4.773438 21.488281 7.792969 24.496094 11.535156 24.496094 L 20.882812 24.496094 C 24.625 24.496094 27.644531 21.488281 27.644531 17.765625 L 27.644531 10.355469 C 27.644531 6.632812 24.625 3.628906 20.882812 3.628906 M 6.679688 9.320312 L 25.738281 9.320312 L 25.738281 11.214844 L 6.679688 11.214844 M 6.679688 13.113281 L 25.738281 13.113281 L 25.738281 15.011719 L 6.679688 15.011719 M 6.679688 16.90625 L 25.738281 16.90625 L 25.738281 18.800781 L 6.679688 18.800781 M 6.679688 16.90625 "/>
</g>
</g>
<g clip-path="url(#clip3)" clip-rule="nonzero">
<g clip-path="url(#clip4)" clip-rule="nonzero">
<path style=" stroke:none;fill-rule:nonzero;fill:rgb(99.215686%,79.215688%,0.392157%);fill-opacity:1;" d="M 25.738281 20.699219 L 11.449219 20.699219 L 8.59375 28.285156 M 25.746094 20.699219 "/>
</g>
</g>
</g>
</svg>
