
<svg xmlns="http://www.w3.org/2000/svg" xmlns:xlink="http://www.w3.org/1999/xlink" width="32px" height="32px" viewBox="0 0 32 32" version="1.1">
<g id="surface1">
<path style="fill-rule:nonzero;fill:rgb(100%,100%,100%);fill-opacity:1;stroke-width:28.624428;stroke-linecap:butt;stroke-linejoin:miter;stroke:rgb(83.137256%,10.196079%,10.196079%);stroke-opacity:1;stroke-miterlimit:4;" d="M 78.8125 21.5625 L 433.1875 21.5625 C 464.8125 21.5625 490.4375 47.1875 490.4375 78.8125 L 490.4375 433.1875 C 490.4375 464.8125 464.8125 490.4375 433.1875 490.4375 L 78.8125 490.4375 C 47.1875 490.4375 21.5625 464.8125 21.5625 433.1875 L 21.5625 78.8125 C 21.5625 47.1875 47.1875 21.5625 78.8125 21.5625 Z M 78.8125 21.5625 " transform="matrix(0.0625,0,0,0.0625,0,0)"/>
<path style=" stroke:none;fill-rule:evenodd;fill:rgb(83.137256%,10.196079%,10.196079%);fill-opacity:1;" d="M 15.917969 7.417969 C 17.308594 7.417969 18.433594 8.839844 18.433594 10.601562 L 18.433594 15.996094 C 18.433594 17.757812 17.308594 19.183594 15.917969 19.183594 C 14.527344 19.183594 13.402344 17.757812 13.402344 15.996094 L 13.402344 10.601562 C 13.402344 8.839844 14.527344 7.417969 15.917969 7.417969 Z M 15.917969 7.417969 "/>
<path style=" stroke:none;fill-rule:evenodd;fill:rgb(83.137256%,10.196079%,10.196079%);fill-opacity:1;" d="M 12.421875 25.699219 L 19.433594 25.722656 C 17.617188 23.511719 14.289062 23.542969 12.421875 25.699219 Z M 12.421875 25.699219 "/>
<path style=" stroke:none;fill-rule:evenodd;fill:rgb(83.137256%,10.196079%,10.196079%);fill-opacity:1;" d="M 15.183594 21.574219 L 16.691406 21.574219 L 16.691406 24.152344 L 15.183594 24.152344 Z M 15.183594 21.574219 "/>
<path style=" stroke:none;fill-rule:evenodd;fill:rgb(83.137256%,10.196079%,10.196079%);fill-opacity:1;" d="M 10.554688 16.621094 L 12.128906 16.617188 C 12.433594 21.746094 19.398438 21.707031 19.667969 16.617188 L 21.269531 16.625 C 20.816406 24.042969 10.859375 23.769531 10.554688 16.621094 Z M 10.554688 16.621094 "/>
</g>
</svg>
