
<svg xmlns="http://www.w3.org/2000/svg" xmlns:xlink="http://www.w3.org/1999/xlink" width="32px" height="32px" viewBox="0 0 32 32" version="1.1">
<g id="surface1">
<path style="fill-rule:nonzero;fill:rgb(10.196079%,10.196079%,10.196079%);fill-opacity:1;stroke-width:27.983692;stroke-linecap:butt;stroke-linejoin:miter;stroke:rgb(29.019609%,68.235296%,90.980393%);stroke-opacity:1;stroke-miterlimit:4;" d="M 82.75 26.8125 L 429.25 26.8125 C 460.125 26.8125 485.1875 51.875 485.1875 82.75 L 485.1875 429.25 C 485.1875 460.125 460.125 485.1875 429.25 485.1875 L 82.75 485.1875 C 51.875 485.1875 26.8125 460.125 26.8125 429.25 L 26.8125 82.75 C 26.8125 51.875 51.875 26.8125 82.75 26.8125 Z M 82.75 26.8125 " transform="matrix(0.0625,0,0,0.0625,0,0)"/>
<path style="fill-rule:nonzero;fill:rgb(100%,0%,0%);fill-opacity:1;stroke-width:1.7;stroke-linecap:butt;stroke-linejoin:miter;stroke:rgb(100%,0%,0%);stroke-opacity:1;stroke-miterlimit:4;" d="M 240.4375 230.625 C 238.5625 222 233.1875 198.9375 208.375 94.5 C 204.5625 78.3125 204.375 75.875 207.125 76.9375 C 208.0625 77.3125 225.9375 122.1875 256.6875 201.375 L 268.875 232.8125 L 261.875 233.3125 C 254.5625 233.75 249.5625 235.4375 244.9375 238.875 L 242.5625 240.6875 Z M 240.4375 230.625 " transform="matrix(0.0625,0,0,0.0625,0,0)"/>
<path style=" stroke:none;fill-rule:nonzero;fill:rgb(70.19608%,70.19608%,70.19608%);fill-opacity:1;" d="M 18.070312 15.804688 C 18.070312 16.785156 17.277344 17.574219 16.300781 17.574219 C 15.324219 17.574219 14.527344 16.785156 14.527344 15.804688 C 14.527344 14.828125 15.324219 14.035156 16.300781 14.035156 C 17.277344 14.035156 18.070312 14.828125 18.070312 15.804688 Z M 18.070312 15.804688 "/>
</g>
</svg>
