
<svg xmlns="http://www.w3.org/2000/svg" xmlns:xlink="http://www.w3.org/1999/xlink" width="32px" height="32px" viewBox="0 0 32 32" version="1.1">
<g id="surface1">
<path style="fill-rule:nonzero;fill:rgb(100%,100%,100%);fill-opacity:1;stroke-width:5.408316;stroke-linecap:butt;stroke-linejoin:miter;stroke:rgb(13.725491%,11.764706%,11.764706%);stroke-opacity:1;stroke-miterlimit:4;" d="M 14.519531 3.703125 L 81.480469 3.703125 C 87.457031 3.703125 92.296875 8.542969 92.296875 14.519531 L 92.296875 81.480469 C 92.296875 87.457031 87.457031 92.296875 81.480469 92.296875 L 14.519531 92.296875 C 8.542969 92.296875 3.703125 87.457031 3.703125 81.480469 L 3.703125 14.519531 C 3.703125 8.542969 8.542969 3.703125 14.519531 3.703125 Z M 14.519531 3.703125 " transform="matrix(0.333333,0,0,0.333333,0,0)"/>
<path style=" stroke:none;fill-rule:nonzero;fill:rgb(18.82353%,18.82353%,18.82353%);fill-opacity:1;" d="M 8.964844 3.339844 C 6.90625 3.339844 5.226562 5.011719 5.226562 7.074219 C 5.226562 9.132812 6.90625 10.8125 8.964844 10.8125 C 11.027344 10.8125 12.699219 9.132812 12.699219 7.074219 C 12.699219 5.011719 11.027344 3.339844 8.964844 3.339844 Z M 8.964844 4.277344 C 10.511719 4.277344 11.769531 5.527344 11.769531 7.074219 C 11.769531 8.617188 10.511719 9.875 8.964844 9.875 C 7.421875 9.875 6.164062 8.617188 6.164062 7.074219 C 6.164062 5.527344 7.421875 4.277344 8.964844 4.277344 Z M 8.964844 4.277344 "/>
<path style=" stroke:none;fill-rule:nonzero;fill:rgb(18.82353%,18.82353%,18.82353%);fill-opacity:1;" d="M 6.746094 9.292969 L 6.28125 10.808594 L 4.644531 12.558594 C 4.535156 12.683594 4.011719 12.855469 3.597656 12.445312 C 3.246094 12.09375 3.355469 11.511719 3.480469 11.394531 L 5.230469 9.761719 Z M 6.746094 9.292969 "/>
<path style=" stroke:none;fill-rule:nonzero;fill:rgb(18.82353%,18.82353%,18.82353%);fill-opacity:1;" d="M 21.457031 6.496094 C 19.394531 6.496094 17.722656 8.164062 17.722656 10.226562 C 17.722656 12.285156 19.394531 13.964844 21.457031 13.964844 C 23.519531 13.964844 25.1875 12.285156 25.1875 10.226562 C 25.1875 8.164062 23.519531 6.496094 21.457031 6.496094 Z M 21.457031 7.421875 C 23.003906 7.421875 24.257812 8.679688 24.257812 10.226562 C 24.257812 11.769531 23.003906 13.027344 21.457031 13.027344 C 19.910156 13.027344 18.652344 11.769531 18.652344 10.226562 C 18.652344 8.679688 19.910156 7.421875 21.457031 7.421875 Z M 21.457031 7.421875 "/>
<path style=" stroke:none;fill-rule:nonzero;fill:rgb(18.82353%,18.82353%,18.82353%);fill-opacity:1;" d="M 19.238281 12.445312 L 18.769531 13.960938 L 17.136719 15.714844 C 17.027344 15.832031 16.5 16.007812 16.089844 15.597656 C 15.738281 15.246094 15.847656 14.660156 15.972656 14.546875 L 17.722656 12.910156 Z M 19.238281 12.445312 "/>
<path style=" stroke:none;fill-rule:nonzero;fill:rgb(18.82353%,18.82353%,18.82353%);fill-opacity:1;" d="M 12.121094 19.007812 C 10.058594 19.007812 8.378906 20.675781 8.378906 22.738281 C 8.378906 24.800781 10.058594 26.480469 12.121094 26.480469 C 14.183594 26.480469 15.851562 24.800781 15.851562 22.738281 C 15.851562 20.675781 14.183594 19.007812 12.121094 19.007812 Z M 12.121094 19.945312 C 13.667969 19.945312 14.914062 21.191406 14.914062 22.738281 C 14.914062 24.285156 13.667969 25.542969 12.121094 25.542969 C 10.574219 25.542969 9.316406 24.285156 9.316406 22.738281 C 9.316406 21.191406 10.574219 19.945312 12.121094 19.945312 Z M 12.121094 19.945312 "/>
<path style=" stroke:none;fill-rule:nonzero;fill:rgb(18.82353%,18.82353%,18.82353%);fill-opacity:1;" d="M 9.898438 24.960938 L 9.433594 26.476562 L 7.800781 28.226562 C 7.683594 28.347656 7.160156 28.523438 6.746094 28.113281 C 6.398438 27.761719 6.507812 27.175781 6.628906 27.058594 L 8.382812 25.425781 Z M 9.898438 24.960938 "/>
<path style=" stroke:none;fill-rule:nonzero;fill:rgb(18.82353%,18.82353%,18.82353%);fill-opacity:1;" d="M 24.609375 15.855469 C 22.546875 15.855469 20.871094 17.523438 20.871094 19.585938 C 20.871094 21.648438 22.546875 23.324219 24.609375 23.324219 C 26.671875 23.324219 28.339844 21.648438 28.339844 19.585938 C 28.339844 17.523438 26.671875 15.855469 24.609375 15.855469 Z M 24.609375 16.792969 C 26.15625 16.792969 27.410156 18.039062 27.410156 19.585938 C 27.410156 21.132812 26.15625 22.386719 24.609375 22.386719 C 23.0625 22.386719 21.808594 21.132812 21.808594 19.585938 C 21.808594 18.039062 23.0625 16.792969 24.609375 16.792969 Z M 24.609375 16.792969 "/>
<path style=" stroke:none;fill-rule:nonzero;fill:rgb(18.82353%,18.82353%,18.82353%);fill-opacity:1;" d="M 22.390625 21.808594 L 21.925781 23.324219 L 20.289062 25.074219 C 20.175781 25.195312 19.652344 25.371094 19.238281 24.957031 C 18.886719 24.605469 18.996094 24.023438 19.121094 23.910156 L 20.871094 22.273438 Z M 22.390625 21.808594 "/>
</g>
</svg>
