
<svg xmlns="http://www.w3.org/2000/svg" xmlns:xlink="http://www.w3.org/1999/xlink" width="32px" height="32px" viewBox="0 0 32 32" version="1.1">
<g id="surface1">
<path style="fill-rule:evenodd;fill:rgb(16.078432%,50.196081%,72.549021%);fill-opacity:1;stroke-width:8.114148;stroke-linecap:butt;stroke-linejoin:miter;stroke:rgb(72.941178%,9.019608%,30.588236%);stroke-opacity:1;stroke-miterlimit:4;" d="M 20.554802 168.726573 L 114.911759 168.726573 C 122.287013 168.726573 128.273207 174.712767 128.273207 182.088021 L 128.273207 276.444978 C 128.273207 283.820233 122.287013 289.806426 114.911759 289.806426 L 20.554802 289.806426 C 13.179547 289.806426 7.193354 283.820233 7.193354 276.444978 L 7.193354 182.088021 C 7.193354 174.712767 13.179547 168.726573 20.554802 168.726573 Z M 20.554802 168.726573 " transform="matrix(0.236221,0,0,0.236221,0,-38.157483)"/>
<path style=" stroke:none;fill-rule:nonzero;fill:rgb(9.019608%,24.705882%,49.411765%);fill-opacity:1;" d="M 6.792969 4.453125 C 6.792969 4.058594 7.265625 3.644531 7.660156 3.644531 L 20.890625 3.644531 L 26.539062 9.257812 C 26.539062 9.257812 26.539062 20.734375 26.539062 25.566406 C 26.539062 25.949219 26.113281 26.378906 25.734375 26.378906 C 20.402344 26.378906 6.792969 26.378906 6.792969 26.378906 Z M 6.792969 4.453125 "/>
<path style=" stroke:none;fill-rule:nonzero;fill:rgb(72.941178%,9.019608%,30.588236%);fill-opacity:1;" d="M 5.449219 6.492188 C 5.449219 6.058594 5.984375 5.621094 6.417969 5.621094 L 19.542969 5.621094 L 25.191406 11.234375 C 25.191406 11.234375 25.199219 22.089844 25.199219 27.339844 C 25.199219 27.722656 24.53125 28.355469 24.144531 28.355469 C 18.453125 28.355469 6.464844 28.355469 6.464844 28.355469 C 6.023438 28.355469 5.449219 27.949219 5.449219 27.507812 Z M 5.449219 6.492188 "/>
<path style=" stroke:none;fill-rule:nonzero;fill:rgb(100%,100%,100%);fill-opacity:1;" d="M 8.46875 22.902344 C 8.222656 22.902344 8.222656 22.175781 8.46875 22.175781 L 16.265625 22.175781 C 16.507812 22.175781 16.507812 22.902344 16.265625 22.902344 Z M 8.472656 19.992188 C 8.230469 19.992188 8.230469 19.265625 8.472656 19.265625 L 22.5625 19.265625 C 22.804688 19.265625 22.804688 19.992188 22.5625 19.992188 Z M 8.472656 17.082031 C 8.230469 17.082031 8.230469 16.355469 8.472656 16.355469 L 22.5625 16.355469 C 22.804688 16.355469 22.804688 17.082031 22.5625 17.082031 Z M 8.472656 14.171875 C 8.230469 14.171875 8.230469 13.445312 8.472656 13.445312 L 22.5625 13.445312 C 22.804688 13.445312 22.804688 14.171875 22.5625 14.171875 Z M 8.472656 14.171875 "/>
<path style=" stroke:none;fill-rule:nonzero;fill:rgb(86.666667%,40.000001%,55.686277%);fill-opacity:1;" d="M 19.519531 5.621094 L 25.207031 11.257812 C 25.207031 11.257812 21.980469 11.277344 20.300781 11.257812 C 19.90625 11.25 19.535156 10.765625 19.519531 10.371094 C 19.464844 8.707031 19.519531 5.621094 19.519531 5.621094 Z M 19.519531 5.621094 "/>
<path style=" stroke:none;fill-rule:nonzero;fill:rgb(28.235295%,40.784314%,60.784316%);fill-opacity:1;" d="M 20.890625 3.652344 L 26.558594 9.28125 C 26.558594 9.28125 23.328125 9.300781 21.648438 9.28125 C 21.253906 9.273438 20.882812 8.789062 20.867188 8.394531 C 20.8125 6.730469 20.890625 3.652344 20.890625 3.652344 Z M 20.890625 3.652344 "/>
</g>
</svg>
