
<svg xmlns="http://www.w3.org/2000/svg" xmlns:xlink="http://www.w3.org/1999/xlink" width="32px" height="32px" viewBox="0 0 32 32" version="1.1">
<g id="surface1">
<path style="fill-rule:nonzero;fill:rgb(21.568628%,44.313726%,78.431374%);fill-opacity:1;stroke-width:13.887347;stroke-linecap:butt;stroke-linejoin:miter;stroke:rgb(29.019609%,68.235296%,90.980393%);stroke-opacity:1;stroke-miterlimit:4;" d="M 42.03125 14.25 L 213.96875 14.25 C 229.3125 14.25 241.75 26.6875 241.75 42.03125 L 241.75 213.96875 C 241.75 229.3125 229.3125 241.75 213.96875 241.75 L 42.03125 241.75 C 26.6875 241.75 14.25 229.3125 14.25 213.96875 L 14.25 42.03125 C 14.25 26.6875 26.6875 14.25 42.03125 14.25 Z M 42.03125 14.25 " transform="matrix(0.125,0,0,0.125,0,0)"/>
<path style=" stroke:none;fill-rule:evenodd;fill:rgb(29.019609%,68.235296%,90.980393%);fill-opacity:1;" d="M 17.007812 5.6875 C 16.449219 5.6875 16.003906 6.136719 16.003906 6.691406 L 16.003906 24.597656 C 16.003906 25.152344 16.449219 25.601562 17.007812 25.601562 L 26.011719 25.601562 C 26.570312 25.601562 27.019531 25.152344 27.019531 24.597656 L 27.019531 6.691406 C 27.019531 6.136719 26.570312 5.6875 26.011719 5.6875 Z M 12.53125 6.597656 C 12.140625 6.605469 11.773438 6.84375 11.621094 7.234375 L 5.121094 23.695312 C 4.917969 24.214844 5.167969 24.792969 5.6875 25 L 7.519531 25.722656 C 8.039062 25.925781 8.621094 25.675781 8.824219 25.160156 L 15.324219 8.695312 C 15.53125 8.175781 15.277344 7.597656 14.761719 7.394531 L 12.925781 6.667969 C 12.796875 6.617188 12.660156 6.59375 12.53125 6.597656 Z M 12.53125 6.597656 "/>
<path style=" stroke:none;fill-rule:evenodd;fill:rgb(100%,100%,100%);fill-opacity:1;" d="M 17.003906 6.382812 C 16.445312 6.382812 15.996094 6.832031 15.996094 7.386719 L 15.996094 25.292969 C 15.996094 25.847656 16.445312 26.296875 17.003906 26.296875 L 26.019531 26.296875 C 26.578125 26.296875 27.027344 25.847656 27.027344 25.292969 L 27.027344 7.386719 C 27.027344 6.832031 26.578125 6.382812 26.019531 6.382812 Z M 12.484375 6.578125 C 12.09375 6.585938 11.726562 6.824219 11.574219 7.214844 L 5.074219 23.675781 C 4.871094 24.195312 5.121094 24.777344 5.636719 24.980469 L 6.148438 25.179688 C 6.15625 25.183594 6.164062 25.1875 6.171875 25.191406 L 7.148438 25.574219 L 14.386719 7.242188 L 13.226562 6.785156 L 13.222656 6.785156 L 12.878906 6.648438 C 12.746094 6.597656 12.613281 6.574219 12.484375 6.578125 Z M 12.484375 6.578125 "/>
<path style=" stroke:none;fill-rule:nonzero;fill:rgb(29.019609%,68.235296%,90.980393%);fill-opacity:1;" d="M 24.148438 10.160156 C 22.9375 10.160156 21.953125 11.097656 21.953125 12.253906 C 21.953125 13.410156 22.9375 14.347656 24.148438 14.347656 C 25.363281 14.347656 26.34375 13.410156 26.34375 12.253906 C 26.34375 11.097656 25.363281 10.160156 24.148438 10.160156 Z M 19.011719 10.160156 C 17.796875 10.160156 16.816406 11.097656 16.816406 12.253906 C 16.816406 13.410156 17.796875 14.347656 19.011719 14.347656 C 20.222656 14.347656 21.207031 13.410156 21.207031 12.253906 C 21.207031 11.097656 20.222656 10.160156 19.011719 10.160156 Z M 19.03125 18.6875 C 17.820312 18.6875 16.835938 19.625 16.835938 20.78125 C 16.835938 21.9375 17.820312 22.875 19.03125 22.875 C 20.246094 22.875 21.226562 21.9375 21.226562 20.78125 C 21.226562 19.625 20.246094 18.6875 19.03125 18.6875 Z M 24.136719 18.703125 C 22.925781 18.703125 21.941406 19.640625 21.941406 20.796875 C 21.941406 21.953125 22.925781 22.890625 24.136719 22.890625 C 25.351562 22.890625 26.332031 21.953125 26.332031 20.796875 C 26.332031 19.640625 25.351562 18.703125 24.136719 18.703125 Z M 24.136719 18.703125 "/>
</g>
</svg>
