
<svg xmlns="http://www.w3.org/2000/svg" xmlns:xlink="http://www.w3.org/1999/xlink" width="32px" height="32px" viewBox="0 0 32 32" version="1.1">
<g id="surface1">
<path style="fill-rule:nonzero;fill:rgb(92.54902%,92.54902%,92.54902%);fill-opacity:1;stroke-width:27.983692;stroke-linecap:butt;stroke-linejoin:miter;stroke:rgb(29.019609%,68.235296%,90.980393%);stroke-opacity:1;stroke-miterlimit:4;" d="M 82.75 26.8125 L 429.25 26.8125 C 460.125 26.8125 485.1875 51.875 485.1875 82.75 L 485.1875 429.25 C 485.1875 460.125 460.125 485.1875 429.25 485.1875 L 82.75 485.1875 C 51.875 485.1875 26.8125 460.125 26.8125 429.25 L 26.8125 82.75 C 26.8125 51.875 51.875 26.8125 82.75 26.8125 Z M 82.75 26.8125 " transform="matrix(0.0625,0,0,0.0625,0,0)"/>
<path style=" stroke:none;fill-rule:nonzero;fill:rgb(42.745098%,47.843137%,49.803922%);fill-opacity:1;" d="M 8.203125 5.347656 L 23.796875 5.347656 C 24.351562 5.347656 24.800781 5.796875 24.800781 6.355469 L 24.800781 25.703125 C 24.800781 26.257812 24.351562 26.707031 23.796875 26.707031 L 8.203125 26.707031 C 7.648438 26.707031 7.199219 26.257812 7.199219 25.703125 L 7.199219 6.355469 C 7.199219 5.796875 7.648438 5.347656 8.203125 5.347656 Z M 8.203125 5.347656 "/>
<path style=" stroke:none;fill-rule:nonzero;fill:rgb(8.235294%,28.627452%,36.470589%);fill-opacity:1;" d="M 8.511719 24.78125 L 15.910156 24.78125 C 16.066406 24.78125 16.1875 24.90625 16.1875 25.058594 L 16.1875 25.605469 C 16.1875 25.757812 16.066406 25.878906 15.910156 25.878906 L 8.511719 25.878906 C 8.355469 25.878906 8.234375 25.757812 8.234375 25.605469 L 8.234375 25.058594 C 8.234375 24.90625 8.355469 24.78125 8.511719 24.78125 Z M 8.511719 24.78125 "/>
<path style=" stroke:none;fill-rule:nonzero;fill:rgb(0%,66.666669%,83.137256%);fill-opacity:1;" d="M 8.203125 5.292969 L 23.796875 5.292969 C 24.351562 5.292969 24.800781 5.683594 24.800781 6.171875 L 24.800781 23.132812 C 24.800781 23.621094 24.351562 24.011719 23.796875 24.011719 L 8.203125 24.011719 C 7.648438 24.011719 7.199219 23.621094 7.199219 23.132812 L 7.199219 6.171875 C 7.199219 5.683594 7.648438 5.292969 8.203125 5.292969 Z M 8.203125 5.292969 "/>
<path style=" stroke:none;fill-rule:nonzero;fill:rgb(81.960785%,82.352942%,82.745099%);fill-opacity:1;" d="M 21.347656 25.332031 C 21.347656 25.601562 21.128906 25.824219 20.855469 25.824219 C 20.582031 25.824219 20.363281 25.601562 20.363281 25.332031 C 20.363281 25.058594 20.582031 24.839844 20.855469 24.839844 C 21.128906 24.839844 21.347656 25.058594 21.347656 25.332031 Z M 21.347656 25.332031 "/>
<path style=" stroke:none;fill-rule:nonzero;fill:rgb(81.960785%,82.352942%,82.745099%);fill-opacity:1;" d="M 22.867188 25.332031 C 22.867188 25.601562 22.648438 25.824219 22.375 25.824219 C 22.105469 25.824219 21.882812 25.601562 21.882812 25.332031 C 21.882812 25.058594 22.105469 24.835938 22.375 24.835938 C 22.648438 24.835938 22.867188 25.058594 22.867188 25.332031 Z M 22.867188 25.332031 "/>
<path style=" stroke:none;fill-rule:nonzero;fill:rgb(92.156863%,92.156863%,92.156863%);fill-opacity:1;" d="M 20.667969 19.246094 C 21.921875 17.988281 22.550781 16.472656 22.550781 14.699219 C 22.550781 12.925781 21.921875 11.410156 20.667969 10.15625 C 19.414062 8.902344 17.898438 8.273438 16.125 8.273438 C 14.347656 8.273438 12.835938 8.902344 11.582031 10.15625 C 10.324219 11.410156 9.699219 12.925781 9.699219 14.699219 C 9.699219 16.476562 10.324219 17.988281 11.582031 19.246094 C 12.835938 20.5 14.347656 21.125 16.125 21.125 C 17.898438 21.125 19.414062 20.5 20.667969 19.246094 Z M 20.667969 19.246094 "/>
<path style=" stroke:none;fill-rule:nonzero;fill:rgb(21.176471%,48.235294%,94.117647%);fill-opacity:1;" d="M 14.785156 18.46875 L 14.785156 18.035156 L 17.105469 18.035156 L 17.105469 18.898438 L 14.785156 18.898438 Z M 14.785156 17.183594 L 14.785156 16.761719 L 17.105469 16.761719 L 17.105469 17.605469 L 14.785156 17.605469 Z M 15.472656 16.261719 C 14.890625 16.109375 14.449219 15.675781 14.285156 15.089844 C 14.210938 14.832031 14.210938 14.371094 14.285156 14.113281 C 14.449219 13.527344 14.894531 13.089844 15.480469 12.941406 C 15.707031 12.886719 16.15625 12.878906 16.378906 12.933594 C 16.871094 13.050781 17.324219 13.433594 17.519531 13.898438 C 17.691406 14.308594 17.695312 14.871094 17.53125 15.277344 C 17.332031 15.765625 16.894531 16.144531 16.378906 16.269531 C 16.160156 16.324219 15.691406 16.320312 15.472656 16.261719 Z M 16.160156 15.613281 C 16.558594 15.511719 16.863281 15.191406 16.960938 14.769531 C 17.003906 14.574219 16.980469 14.410156 16.867188 14.175781 C 16.671875 13.761719 16.207031 13.5 15.796875 13.574219 C 15.1875 13.6875 14.777344 14.300781 14.9375 14.855469 C 15.046875 15.230469 15.335938 15.507812 15.730469 15.613281 C 15.882812 15.65625 16 15.65625 16.160156 15.613281 Z M 13.222656 13.347656 C 13.070312 13.191406 12.96875 13.074219 12.96875 13.042969 C 12.96875 12.980469 14.464844 11.488281 14.527344 11.488281 C 14.597656 11.488281 15.082031 11.984375 15.082031 12.058594 C 15.082031 12.140625 13.621094 13.601562 13.535156 13.601562 C 13.496094 13.601562 13.414062 13.535156 13.222656 13.347656 Z M 17.488281 12.84375 C 16.988281 12.351562 16.832031 12.1875 16.832031 12.144531 C 16.832031 12.105469 17.027344 11.894531 17.660156 11.265625 C 18.324219 10.597656 18.496094 10.441406 18.542969 10.441406 C 18.589844 10.441406 18.722656 10.566406 19.246094 11.101562 C 19.648438 11.511719 19.894531 11.785156 19.898438 11.816406 C 19.910156 11.890625 18.296875 13.472656 18.203125 13.480469 C 18.152344 13.488281 18.046875 13.394531 17.488281 12.84375 Z M 12.222656 12.367188 C 12.035156 12.175781 11.992188 12.121094 11.992188 12.066406 C 11.992188 12.007812 12.089844 11.902344 12.738281 11.253906 C 13.316406 10.671875 13.492188 10.511719 13.535156 10.511719 C 13.621094 10.511719 14.082031 10.972656 14.082031 11.058594 C 14.082031 11.097656 13.917969 11.277344 13.339844 11.855469 C 12.691406 12.503906 12.582031 12.601562 12.527344 12.601562 C 12.46875 12.601562 12.417969 12.5625 12.222656 12.367188 Z M 12.222656 12.367188 "/>
</g>
</svg>
