
<svg xmlns="http://www.w3.org/2000/svg" xmlns:xlink="http://www.w3.org/1999/xlink" width="32px" height="32px" viewBox="0 0 32 32" version="1.1">
<g id="surface1">
<path style="fill-rule:nonzero;fill:rgb(50.196081%,50.196081%,50.196081%);fill-opacity:1;stroke-width:6.392664;stroke-linecap:butt;stroke-linejoin:miter;stroke:rgb(21.568628%,20.784314%,22.745098%);stroke-opacity:1;stroke-miterlimit:4;" d="M 26.59482 935.92407 L 105.73947 935.92407 C 112.801376 935.92407 118.535402 941.658096 118.535402 948.720002 L 118.535402 1027.864652 C 118.535402 1034.926558 112.801376 1040.645494 105.73947 1040.645494 L 26.59482 1040.645494 C 19.532914 1040.645494 13.813978 1034.926558 13.813978 1027.864652 L 13.813978 948.720002 C 13.813978 941.658096 19.532914 935.92407 26.59482 935.92407 Z M 26.59482 935.92407 " transform="matrix(0.258871,0,0,0.258871,-0.603387,-239.858134)"/>
<path style=" stroke:none;fill-rule:nonzero;fill:rgb(21.568628%,20.784314%,22.745098%);fill-opacity:1;" d="M 3.480469 3.023438 L 29.363281 3.023438 L 29.363281 7.515625 L 3.480469 7.515625 Z M 3.480469 3.023438 "/>
<path style=" stroke:none;fill-rule:nonzero;fill:rgb(100%,100%,100%);fill-opacity:1;" d="M 21.714844 4.800781 L 23.394531 4.800781 L 23.394531 6.449219 L 21.714844 6.449219 Z M 21.714844 4.800781 "/>
<path style=" stroke:none;fill-rule:nonzero;fill:rgb(100%,100%,100%);fill-opacity:1;" d="M 24.792969 4.800781 L 26.472656 4.800781 L 26.472656 6.449219 L 24.792969 6.449219 Z M 24.792969 4.800781 "/>
<path style=" stroke:none;fill-rule:nonzero;fill:rgb(100%,100%,100%);fill-opacity:1;" d="M 18.636719 4.800781 L 20.316406 4.800781 L 20.316406 6.449219 L 18.636719 6.449219 Z M 18.636719 4.800781 "/>
<path style=" stroke:none;fill-rule:nonzero;fill:rgb(82.352942%,82.352942%,82.352942%);fill-opacity:1;" d="M 21.203125 17.503906 C 21.203125 15.113281 19.214844 13.175781 16.769531 13.175781 C 14.320312 13.175781 12.332031 15.113281 12.332031 17.503906 C 12.332031 19.894531 14.320312 21.832031 16.769531 21.832031 C 19.214844 21.832031 21.203125 19.894531 21.203125 17.503906 Z M 21.203125 17.503906 "/>
<path style=" stroke:none;fill-rule:nonzero;fill:rgb(82.352942%,82.352942%,82.352942%);fill-opacity:1;" d="M 15.816406 24.234375 C 15.699219 24.179688 15.574219 24.042969 15.515625 23.910156 C 15.488281 23.839844 15.457031 23.570312 15.433594 23.140625 C 15.410156 22.777344 15.382812 22.453125 15.371094 22.417969 C 15.355469 22.371094 15.269531 22.324219 15.0625 22.253906 C 14.90625 22.199219 14.667969 22.097656 14.539062 22.035156 C 14.40625 21.96875 14.269531 21.914062 14.238281 21.914062 C 14.195312 21.914062 13.980469 22.089844 13.675781 22.371094 C 13.402344 22.621094 13.132812 22.847656 13.078125 22.875 C 12.96875 22.933594 12.71875 22.941406 12.589844 22.894531 C 12.488281 22.855469 11.398438 21.785156 11.328125 21.652344 C 11.261719 21.523438 11.269531 21.277344 11.34375 21.128906 C 11.378906 21.0625 11.609375 20.789062 11.855469 20.523438 C 12.121094 20.238281 12.300781 20.011719 12.300781 19.976562 C 12.300781 19.945312 12.246094 19.808594 12.183594 19.675781 C 12.117188 19.546875 12.019531 19.308594 11.964844 19.15625 C 11.910156 19 11.839844 18.859375 11.816406 18.847656 C 11.785156 18.832031 11.46875 18.804688 11.105469 18.785156 C 10.683594 18.761719 10.398438 18.730469 10.316406 18.699219 C 10.160156 18.644531 9.980469 18.453125 9.953125 18.316406 C 9.941406 18.261719 9.941406 17.847656 9.945312 17.394531 L 9.953125 16.578125 L 10.046875 16.457031 C 10.214844 16.25 10.292969 16.230469 11.085938 16.183594 C 11.535156 16.152344 11.808594 16.125 11.832031 16.101562 C 11.851562 16.082031 11.917969 15.925781 11.980469 15.757812 C 12.042969 15.589844 12.140625 15.359375 12.199219 15.246094 C 12.253906 15.128906 12.300781 15.011719 12.300781 14.980469 C 12.300781 14.953125 12.113281 14.722656 11.886719 14.46875 C 11.65625 14.214844 11.433594 13.96875 11.394531 13.917969 C 11.285156 13.773438 11.25 13.59375 11.292969 13.417969 C 11.324219 13.285156 11.386719 13.214844 11.886719 12.707031 C 12.191406 12.398438 12.492188 12.121094 12.554688 12.085938 C 12.699219 12.011719 12.933594 12.011719 13.074219 12.082031 C 13.136719 12.113281 13.402344 12.339844 13.667969 12.582031 C 13.933594 12.824219 14.167969 13.035156 14.191406 13.050781 C 14.214844 13.0625 14.355469 13.011719 14.527344 12.929688 C 14.695312 12.851562 14.941406 12.75 15.078125 12.703125 C 15.261719 12.640625 15.335938 12.601562 15.363281 12.546875 C 15.378906 12.503906 15.410156 12.175781 15.433594 11.8125 C 15.472656 11.113281 15.496094 11.003906 15.640625 10.855469 C 15.800781 10.6875 15.894531 10.675781 16.785156 10.683594 L 17.605469 10.691406 L 17.730469 10.777344 C 17.949219 10.921875 17.976562 11.011719 18.027344 11.789062 C 18.050781 12.167969 18.082031 12.503906 18.089844 12.539062 C 18.101562 12.589844 18.167969 12.625 18.386719 12.703125 C 18.542969 12.753906 18.789062 12.863281 18.9375 12.933594 C 19.089844 13.011719 19.222656 13.074219 19.234375 13.074219 C 19.25 13.074219 19.488281 12.863281 19.765625 12.609375 C 20.042969 12.355469 20.320312 12.121094 20.382812 12.089844 C 20.53125 12.011719 20.753906 12.011719 20.914062 12.089844 C 20.988281 12.128906 21.253906 12.363281 21.582031 12.695312 C 22.144531 13.265625 22.1875 13.328125 22.1875 13.585938 C 22.1875 13.769531 22.105469 13.886719 21.621094 14.417969 C 21.359375 14.707031 21.144531 14.957031 21.144531 14.972656 C 21.144531 14.988281 21.214844 15.140625 21.296875 15.316406 C 21.378906 15.492188 21.480469 15.738281 21.519531 15.863281 C 21.566406 16.015625 21.609375 16.097656 21.652344 16.113281 C 21.683594 16.128906 22.023438 16.160156 22.40625 16.183594 C 23.160156 16.230469 23.285156 16.261719 23.410156 16.441406 C 23.527344 16.609375 23.542969 16.734375 23.535156 17.558594 L 23.523438 18.347656 L 23.429688 18.480469 C 23.265625 18.714844 23.222656 18.726562 22.386719 18.78125 C 21.972656 18.808594 21.632812 18.835938 21.621094 18.84375 C 21.613281 18.855469 21.566406 18.984375 21.511719 19.136719 C 21.457031 19.285156 21.351562 19.535156 21.277344 19.683594 C 21.203125 19.832031 21.144531 19.972656 21.152344 19.996094 C 21.15625 20.019531 21.359375 20.253906 21.605469 20.519531 C 21.847656 20.789062 22.082031 21.066406 22.121094 21.144531 C 22.199219 21.300781 22.207031 21.472656 22.140625 21.628906 C 22.082031 21.769531 21.085938 22.785156 20.921875 22.867188 C 20.785156 22.9375 20.542969 22.945312 20.398438 22.882812 C 20.34375 22.859375 20.074219 22.632812 19.792969 22.378906 C 19.515625 22.121094 19.265625 21.914062 19.238281 21.914062 C 19.210938 21.914062 19.054688 21.976562 18.886719 22.054688 C 18.722656 22.128906 18.480469 22.230469 18.347656 22.273438 C 18.160156 22.332031 18.097656 22.371094 18.089844 22.417969 C 18.082031 22.453125 18.050781 22.789062 18.027344 23.164062 C 17.972656 23.992188 17.941406 24.082031 17.652344 24.226562 C 17.570312 24.269531 17.433594 24.277344 16.730469 24.277344 C 16.113281 24.277344 15.886719 24.265625 15.816406 24.234375 Z M 17.03125 20.5625 C 17.773438 20.484375 18.394531 20.1875 18.921875 19.660156 C 19.324219 19.257812 19.582031 18.804688 19.738281 18.234375 C 19.835938 17.878906 19.835938 17.089844 19.738281 16.726562 C 19.4375 15.628906 18.652344 14.824219 17.566406 14.496094 C 17.316406 14.417969 17.246094 14.410156 16.753906 14.410156 C 16.285156 14.40625 16.183594 14.417969 15.957031 14.480469 C 14.8125 14.792969 13.941406 15.707031 13.699219 16.847656 C 13.488281 17.871094 13.800781 18.917969 14.546875 19.667969 C 14.9375 20.058594 15.445312 20.347656 15.996094 20.492188 C 16.152344 20.53125 16.375 20.5625 16.691406 20.589844 C 16.71875 20.589844 16.871094 20.578125 17.03125 20.5625 Z M 16.269531 19.273438 C 15.488281 19.0625 14.9375 18.394531 14.890625 17.597656 C 14.855469 17.039062 15.035156 16.566406 15.433594 16.171875 C 16.152344 15.453125 17.308594 15.445312 18.019531 16.15625 C 18.605469 16.742188 18.746094 17.574219 18.382812 18.304688 C 18.074219 18.929688 17.503906 19.296875 16.800781 19.324219 C 16.5625 19.332031 16.441406 19.324219 16.269531 19.273438 Z M 17.144531 18.5 C 17.363281 18.417969 17.621094 18.179688 17.726562 17.957031 C 17.804688 17.800781 17.8125 17.75 17.8125 17.476562 C 17.8125 17.183594 17.808594 17.160156 17.707031 16.976562 C 17.503906 16.605469 17.207031 16.417969 16.785156 16.394531 C 16.445312 16.378906 16.242188 16.449219 15.996094 16.675781 C 15.6875 16.957031 15.5625 17.351562 15.660156 17.742188 C 15.75 18.078125 15.933594 18.308594 16.238281 18.464844 C 16.527344 18.609375 16.824219 18.621094 17.144531 18.5 Z M 17.144531 18.5 "/>
<path style=" stroke:none;fill-rule:nonzero;fill:rgb(50.196081%,50.196081%,50.196081%);fill-opacity:1;" d="M 19.867188 17.539062 C 19.867188 19.265625 18.46875 20.664062 16.742188 20.664062 C 15.015625 20.664062 13.617188 19.265625 13.617188 17.539062 C 13.617188 15.8125 15.015625 14.414062 16.742188 14.414062 C 18.46875 14.414062 19.867188 15.8125 19.867188 17.539062 Z M 19.867188 17.539062 "/>
</g>
</svg>
