
<svg xmlns="http://www.w3.org/2000/svg" xmlns:xlink="http://www.w3.org/1999/xlink" width="32px" height="32px" viewBox="0 0 32 32" version="1.1">
<g id="surface1">
<path style="fill-rule:evenodd;fill:rgb(80.392158%,61.176473%,42.745098%);fill-opacity:1;stroke-width:1.698;stroke-linecap:butt;stroke-linejoin:miter;stroke:rgb(65.490198%,43.529412%,22.352941%);stroke-opacity:1;stroke-miterlimit:4;" d="M 6.925781 1.986328 L 41.074219 1.986328 C 43.804688 1.986328 46.013672 4.195312 46.013672 6.931641 L 46.013672 41.068359 C 46.013672 43.804688 43.804688 46.013672 41.074219 46.013672 L 6.925781 46.013672 C 4.195312 46.013672 1.986328 43.804688 1.986328 41.068359 L 1.986328 6.931641 C 1.986328 4.195312 4.195312 1.986328 6.925781 1.986328 Z M 6.925781 1.986328 " transform="matrix(0.666667,0,0,0.666667,0,0)"/>
<path style=" stroke:none;fill-rule:nonzero;fill:rgb(32.156864%,49.803922%,69.803923%);fill-opacity:1;" d="M 22.148438 15.019531 C 18.214844 15.019531 15.027344 18.207031 15.027344 22.136719 C 15.027344 26.066406 18.214844 29.253906 22.148438 29.253906 C 26.082031 29.253906 29.265625 26.066406 29.265625 22.136719 C 29.265625 18.207031 26.078125 15.019531 22.148438 15.019531 M 22.148438 15.019531 "/>
<path style=" stroke:none;fill-rule:nonzero;fill:rgb(91.764706%,92.156863%,87.058824%);fill-opacity:1;" d="M 26.078125 17.867188 C 23.527344 17.867188 23.050781 21.25 24.488281 21.25 C 25.925781 21.25 28.632812 17.867188 26.078125 17.867188 M 22.019531 18.285156 C 20.582031 18.457031 21.070312 20.792969 21.832031 20.832031 C 22.597656 20.875 23.457031 18.109375 22.019531 18.285156 M 19.621094 19.203125 C 19.558594 19.207031 19.472656 19.238281 19.402344 19.265625 C 18.246094 19.707031 19.21875 21.523438 19.867188 21.402344 C 20.472656 21.285156 20.5625 19.113281 19.617188 19.207031 M 17.808594 20.628906 C 17.707031 20.625 17.613281 20.671875 17.496094 20.746094 C 16.574219 21.335938 17.792969 22.746094 18.339844 22.527344 C 18.816406 22.332031 18.511719 20.648438 17.808594 20.628906 M 23.082031 21.722656 C 21.101562 21.691406 18.507812 22.628906 18.0625 24.484375 C 17.582031 26.488281 20.039062 29.257812 22.617188 29.257812 C 23.886719 29.257812 25.339844 28.199219 25.613281 26.855469 C 25.824219 25.828125 23.175781 26.234375 23.269531 26.917969 C 23.386719 27.730469 22.613281 28.121094 21.871094 27.597656 C 19.503906 25.925781 25.777344 25.105469 25.363281 22.824219 C 25.234375 22.113281 24.277344 21.742188 23.085938 21.726562 M 23.085938 21.722656 "/>
<path style=" stroke:none;fill-rule:nonzero;fill:rgb(0%,0%,0%);fill-opacity:0.25098;" d="M 8.621094 6.496094 C 8.621094 7.300781 7.964844 7.957031 7.160156 7.957031 C 6.355469 7.957031 5.699219 7.300781 5.699219 6.496094 C 5.699219 5.691406 6.355469 5.035156 7.160156 5.035156 C 7.964844 5.035156 8.621094 5.691406 8.621094 6.496094 M 8.621094 6.496094 "/>
<path style=" stroke:none;fill-rule:nonzero;fill:rgb(0%,0%,0%);fill-opacity:0.25098;" d="M 26.300781 6.597656 C 26.300781 7.402344 25.644531 8.058594 24.839844 8.058594 C 24.035156 8.058594 23.378906 7.402344 23.378906 6.597656 C 23.378906 5.792969 24.035156 5.136719 24.839844 5.136719 C 25.644531 5.136719 26.300781 5.792969 26.300781 6.597656 M 26.300781 6.597656 "/>
<path style=" stroke:none;fill-rule:nonzero;fill:rgb(100%,100%,100%);fill-opacity:1;" d="M 6.933594 7.4375 C 9.851562 23.011719 22.503906 23.011719 25.417969 7.4375 C 25.625 6.128906 24.730469 6.105469 24.449219 7.4375 C 22.503906 21.628906 9.851562 21.550781 7.90625 7.4375 C 7.726562 6.15625 6.757812 6.210938 6.933594 7.4375 M 6.933594 7.4375 "/>
</g>
</svg>
