
<svg xmlns="http://www.w3.org/2000/svg" xmlns:xlink="http://www.w3.org/1999/xlink" width="32px" height="32px" viewBox="0 0 32 32" version="1.1">
<g id="surface1">
<path style="fill-rule:nonzero;fill:rgb(92.54902%,92.54902%,92.54902%);fill-opacity:1;stroke-width:28.316868;stroke-linecap:butt;stroke-linejoin:miter;stroke:rgb(76.47059%,41.568628%,28.235295%);stroke-opacity:1;stroke-miterlimit:4;" d="M 80.6875 24.0625 L 431.3125 24.0625 C 462.5625 24.0625 487.9375 49.4375 487.9375 80.6875 L 487.9375 431.3125 C 487.9375 462.5625 462.5625 487.9375 431.3125 487.9375 L 80.6875 487.9375 C 49.4375 487.9375 24.0625 462.5625 24.0625 431.3125 L 24.0625 80.6875 C 24.0625 49.4375 49.4375 24.0625 80.6875 24.0625 Z M 80.6875 24.0625 " transform="matrix(0.0625,0,0,0.0625,0,0)"/>
<path style=" stroke:none;fill-rule:evenodd;fill:rgb(95.686275%,95.686275%,95.686275%);fill-opacity:1;" d="M 4.628906 2 C 12.34375 2.007812 20.0625 1.980469 27.777344 2.011719 C 29.363281 2.121094 30.378906 3.730469 30.171875 5.222656 C 30.160156 12.753906 30.191406 20.285156 30.15625 27.816406 C 30.050781 29.398438 28.441406 30.417969 26.945312 30.207031 C 19.414062 30.199219 11.882812 30.226562 4.355469 30.195312 C 2.769531 30.085938 1.753906 28.480469 1.960938 26.984375 C 1.96875 19.453125 1.941406 11.921875 1.972656 4.394531 C 2.082031 3.066406 3.292969 1.972656 4.628906 2 Z M 4.628906 2 "/>
<path style=" stroke:none;fill-rule:evenodd;fill:rgb(0%,0%,0%);fill-opacity:1;" d="M 2.230469 11.511719 C 11.453125 11.511719 20.675781 11.511719 29.902344 11.511719 C 30.664062 12.003906 29.441406 12.144531 29.027344 12.046875 C 20.09375 12.046875 11.160156 12.046875 2.230469 12.046875 C 1.878906 12.050781 1.878906 11.507812 2.230469 11.511719 Z M 2.230469 11.511719 "/>
<path style=" stroke:none;fill-rule:evenodd;fill:rgb(0%,0%,0%);fill-opacity:1;" d="M 2.230469 21.175781 C 11.453125 21.175781 20.675781 21.175781 29.902344 21.175781 C 30.660156 21.667969 29.4375 21.808594 29.023438 21.707031 C 20.089844 21.707031 11.160156 21.707031 2.230469 21.707031 C 1.878906 21.714844 1.878906 21.171875 2.230469 21.175781 Z M 2.230469 21.175781 "/>
<path style=" stroke:none;fill-rule:evenodd;fill:rgb(0%,0%,0%);fill-opacity:1;" d="M 11.183594 2.265625 C 11.183594 11.488281 11.1875 20.714844 11.191406 29.9375 C 10.699219 30.699219 10.554688 29.476562 10.65625 29.058594 C 10.652344 20.128906 10.652344 11.199219 10.648438 2.265625 C 10.644531 1.917969 11.183594 1.917969 11.183594 2.265625 Z M 11.183594 2.265625 "/>
<path style=" stroke:none;fill-rule:evenodd;fill:rgb(0%,0%,0%);fill-opacity:1;" d="M 21.300781 2.269531 C 21.304688 11.492188 21.308594 20.714844 21.308594 29.9375 C 20.816406 30.699219 20.675781 29.472656 20.777344 29.058594 C 20.773438 20.128906 20.769531 11.199219 20.769531 2.269531 C 20.761719 1.917969 21.304688 1.917969 21.300781 2.269531 Z M 21.300781 2.269531 "/>
<path style=" stroke:none;fill-rule:evenodd;fill:rgb(90.196079%,90.196079%,90.196079%);fill-opacity:1;" d="M 2.015625 16.636719 C 2.015625 15.113281 2.015625 13.589844 2.015625 12.066406 C 4.882812 12.066406 7.746094 12.066406 10.613281 12.066406 C 10.613281 15.082031 10.613281 18.097656 10.613281 21.113281 C 7.777344 21.121094 4.933594 21.097656 2.097656 21.148438 C 1.949219 19.660156 2.046875 18.136719 2.015625 16.636719 Z M 2.015625 16.636719 "/>
<path style=" stroke:none;fill-rule:evenodd;fill:rgb(90.196079%,90.196079%,90.196079%);fill-opacity:1;" d="M 11.199219 6.746094 C 11.191406 5.175781 11.1875 3.605469 11.179688 2.035156 C 14.371094 2.035156 17.566406 2.035156 20.761719 2.035156 C 20.746094 5.175781 20.730469 8.316406 20.71875 11.460938 C 17.550781 11.460938 14.386719 11.460938 11.222656 11.460938 C 11.214844 9.890625 11.207031 8.316406 11.199219 6.746094 Z M 11.199219 6.746094 "/>
<path style=" stroke:none;fill-rule:evenodd;fill:rgb(90.196079%,90.196079%,90.196079%);fill-opacity:1;" d="M 3.855469 30.054688 C 2.007812 29.523438 1.894531 27.46875 2.015625 25.882812 C 2.015625 24.496094 2.015625 23.105469 2.015625 21.71875 C 4.882812 21.71875 7.746094 21.71875 10.613281 21.71875 C 10.625 24.535156 10.636719 27.351562 10.652344 30.167969 C 8.386719 30.128906 6.113281 30.238281 3.855469 30.054688 Z M 3.855469 30.054688 "/>
<path style=" stroke:none;fill-rule:evenodd;fill:rgb(90.196079%,90.196079%,90.196079%);fill-opacity:1;" d="M 11.199219 25.941406 C 11.207031 24.535156 11.214844 23.128906 11.222656 21.71875 C 14.386719 21.71875 17.550781 21.71875 20.71875 21.71875 C 20.730469 24.535156 20.746094 27.351562 20.761719 30.167969 C 17.566406 30.167969 14.371094 30.167969 11.179688 30.167969 C 11.1875 28.757812 11.191406 27.351562 11.199219 25.941406 Z M 11.199219 25.941406 "/>
<path style=" stroke:none;fill-rule:evenodd;fill:rgb(94.901961%,94.901961%,94.901961%);fill-opacity:1;" d="M 21.308594 25.949219 C 21.316406 24.539062 21.320312 23.128906 21.328125 21.722656 C 24.269531 21.707031 27.207031 21.695312 30.148438 21.683594 C 30.105469 23.894531 30.273438 26.121094 30.003906 28.320312 C 29.667969 29.410156 28.519531 30.300781 27.355469 30.132812 C 25.332031 30.144531 23.308594 30.160156 21.285156 30.171875 C 21.292969 28.761719 21.300781 27.355469 21.308594 25.949219 Z M 21.308594 25.949219 "/>
<path style=" stroke:none;fill-rule:evenodd;fill:rgb(100%,100%,100%);fill-opacity:1;" d="M 21.324219 25.933594 C 21.324219 24.527344 21.324219 23.125 21.324219 21.71875 C 24.265625 21.71875 27.207031 21.71875 30.148438 21.71875 C 30.117188 23.949219 30.230469 26.195312 29.929688 28.40625 C 29.613281 29.222656 28.804688 30.027344 27.90625 30.082031 C 25.714844 30.105469 23.519531 30.128906 21.324219 30.152344 C 21.324219 28.746094 21.324219 27.339844 21.324219 25.933594 Z M 21.324219 25.933594 "/>
<path style=" stroke:none;fill-rule:evenodd;fill:rgb(100%,81.960785%,28.627452%);fill-opacity:1;" d="M 11.21875 25.941406 C 11.21875 24.535156 11.21875 23.128906 11.21875 21.71875 C 14.386719 21.71875 17.554688 21.71875 20.722656 21.71875 C 20.722656 24.535156 20.722656 27.351562 20.722656 30.167969 C 17.554688 30.167969 14.386719 30.167969 11.21875 30.167969 C 11.21875 28.757812 11.21875 27.351562 11.21875 25.941406 Z M 11.21875 25.941406 "/>
<path style=" stroke:none;fill-rule:evenodd;fill:rgb(52.156866%,75.686276%,53.333336%);fill-opacity:1;" d="M 6.988281 30.132812 C 5.738281 29.894531 4.257812 30.464844 3.183594 29.652344 C 1.886719 28.875 2.097656 27.277344 2.046875 25.984375 C 2.015625 24.5625 2.019531 23.140625 2.015625 21.71875 C 4.882812 21.71875 7.746094 21.71875 10.613281 21.71875 C 10.613281 24.535156 10.613281 27.351562 10.613281 30.167969 C 9.40625 30.160156 8.195312 30.191406 6.988281 30.132812 Z M 6.988281 30.132812 "/>
<path style=" stroke:none;fill-rule:evenodd;fill:rgb(86.274511%,89.411765%,49.803922%);fill-opacity:1;" d="M 2.066406 19.519531 C 2.003906 17.035156 2.019531 14.550781 2.015625 12.066406 C 4.882812 12.066406 7.746094 12.066406 10.613281 12.066406 C 10.613281 15.082031 10.613281 18.097656 10.613281 21.113281 C 7.78125 21.113281 4.949219 21.113281 2.113281 21.113281 C 2.097656 20.582031 2.082031 20.050781 2.066406 19.519531 Z M 2.066406 19.519531 "/>
<path style=" stroke:none;fill-rule:evenodd;fill:rgb(100%,100%,100%);fill-opacity:1;" d="M 11.21875 6.746094 C 11.21875 5.175781 11.21875 3.605469 11.21875 2.035156 C 14.386719 2.035156 17.554688 2.035156 20.722656 2.035156 C 20.722656 5.175781 20.722656 8.316406 20.722656 11.460938 C 17.554688 11.460938 14.386719 11.460938 11.21875 11.460938 C 11.21875 9.890625 11.21875 8.316406 11.21875 6.746094 Z M 11.21875 6.746094 "/>
<path style=" stroke:none;fill-rule:nonzero;fill:rgb(0%,0%,0%);fill-opacity:1;" d="M 15.453125 22.425781 C 15.707031 22.425781 15.949219 22.460938 16.171875 22.527344 C 16.402344 22.597656 16.601562 22.699219 16.777344 22.832031 C 16.949219 22.964844 17.082031 23.128906 17.183594 23.332031 C 17.277344 23.535156 17.328125 23.765625 17.328125 24.027344 C 17.328125 24.238281 17.296875 24.425781 17.234375 24.589844 C 17.175781 24.753906 17.09375 24.898438 16.984375 25.027344 C 16.878906 25.160156 16.753906 25.277344 16.609375 25.382812 C 16.464844 25.488281 16.308594 25.582031 16.140625 25.664062 C 16.3125 25.761719 16.484375 25.871094 16.652344 25.988281 C 16.824219 26.097656 16.976562 26.226562 17.109375 26.371094 C 17.238281 26.519531 17.34375 26.683594 17.421875 26.863281 C 17.503906 27.035156 17.546875 27.234375 17.546875 27.457031 C 17.546875 27.742188 17.496094 27.996094 17.390625 28.226562 C 17.292969 28.449219 17.152344 28.640625 16.964844 28.800781 C 16.78125 28.953125 16.5625 29.074219 16.308594 29.164062 C 16.050781 29.246094 15.765625 29.289062 15.453125 29.289062 C 15.121094 29.289062 14.820312 29.246094 14.558594 29.164062 C 14.300781 29.082031 14.082031 28.964844 13.902344 28.808594 C 13.726562 28.660156 13.589844 28.472656 13.496094 28.246094 C 13.402344 28.027344 13.359375 27.777344 13.359375 27.496094 C 13.359375 27.269531 13.394531 27.066406 13.464844 26.882812 C 13.53125 26.695312 13.621094 26.527344 13.734375 26.382812 C 13.851562 26.238281 13.988281 26.109375 14.152344 25.996094 C 14.308594 25.886719 14.476562 25.789062 14.652344 25.707031 C 14.503906 25.609375 14.363281 25.503906 14.234375 25.394531 C 14.101562 25.285156 13.988281 25.160156 13.890625 25.027344 C 13.800781 24.890625 13.722656 24.738281 13.660156 24.570312 C 13.605469 24.402344 13.578125 24.222656 13.578125 24.019531 C 13.578125 23.753906 13.628906 23.527344 13.734375 23.332031 C 13.839844 23.128906 13.976562 22.964844 14.152344 22.832031 C 14.324219 22.699219 14.519531 22.597656 14.746094 22.527344 C 14.972656 22.460938 15.207031 22.425781 15.453125 22.425781 Z M 14.183594 27.507812 C 14.183594 27.667969 14.207031 27.816406 14.253906 27.957031 C 14.300781 28.089844 14.375 28.203125 14.472656 28.300781 C 14.578125 28.390625 14.707031 28.464844 14.871094 28.519531 C 15.027344 28.574219 15.214844 28.601562 15.433594 28.601562 C 15.644531 28.601562 15.832031 28.574219 15.996094 28.519531 C 16.160156 28.464844 16.296875 28.386719 16.402344 28.289062 C 16.511719 28.191406 16.59375 28.074219 16.652344 27.933594 C 16.707031 27.796875 16.734375 27.640625 16.734375 27.464844 C 16.734375 27.308594 16.703125 27.164062 16.640625 27.039062 C 16.582031 26.914062 16.5 26.796875 16.390625 26.683594 C 16.277344 26.574219 16.144531 26.472656 15.996094 26.371094 C 15.839844 26.277344 15.667969 26.183594 15.472656 26.089844 L 15.339844 26.019531 C 14.957031 26.207031 14.667969 26.417969 14.472656 26.652344 C 14.277344 26.890625 14.183594 27.175781 14.183594 27.507812 Z M 15.441406 23.121094 C 15.121094 23.121094 14.863281 23.203125 14.671875 23.363281 C 14.484375 23.523438 14.390625 23.753906 14.390625 24.058594 C 14.390625 24.234375 14.417969 24.382812 14.472656 24.507812 C 14.527344 24.632812 14.601562 24.746094 14.691406 24.839844 C 14.789062 24.941406 14.902344 25.027344 15.035156 25.101562 C 15.167969 25.179688 15.308594 25.253906 15.464844 25.332031 C 15.609375 25.261719 15.746094 25.191406 15.871094 25.113281 C 16 25.035156 16.113281 24.949219 16.214844 24.851562 C 16.308594 24.746094 16.386719 24.632812 16.441406 24.507812 C 16.496094 24.378906 16.527344 24.226562 16.527344 24.058594 C 16.527344 23.753906 16.425781 23.523438 16.234375 23.363281 C 16.039062 23.203125 15.777344 23.121094 15.441406 23.121094 Z M 15.441406 23.121094 "/>
<path style=" stroke:none;fill-rule:nonzero;fill:rgb(0%,0%,0%);fill-opacity:1;" d="M 8.527344 19.566406 L 4.371094 19.566406 L 4.371094 18.859375 L 5.964844 17.121094 C 6.191406 16.878906 6.394531 16.65625 6.578125 16.453125 C 6.757812 16.246094 6.910156 16.042969 7.035156 15.847656 C 7.160156 15.65625 7.253906 15.460938 7.316406 15.265625 C 7.386719 15.074219 7.421875 14.855469 7.421875 14.621094 C 7.421875 14.441406 7.394531 14.285156 7.339844 14.152344 C 7.289062 14.011719 7.214844 13.898438 7.121094 13.808594 C 7.027344 13.710938 6.917969 13.636719 6.785156 13.589844 C 6.652344 13.542969 6.507812 13.515625 6.347656 13.515625 C 6.058594 13.515625 5.792969 13.574219 5.558594 13.691406 C 5.328125 13.804688 5.109375 13.949219 4.902344 14.128906 L 4.441406 13.589844 C 4.558594 13.484375 4.6875 13.386719 4.828125 13.285156 C 4.964844 13.191406 5.113281 13.105469 5.277344 13.035156 C 5.441406 12.96875 5.613281 12.910156 5.785156 12.871094 C 5.964844 12.828125 6.15625 12.808594 6.359375 12.808594 C 6.652344 12.808594 6.914062 12.847656 7.152344 12.933594 C 7.386719 13.015625 7.582031 13.136719 7.746094 13.285156 C 7.910156 13.441406 8.039062 13.628906 8.128906 13.847656 C 8.21875 14.066406 8.265625 14.3125 8.265625 14.589844 C 8.265625 14.847656 8.222656 15.09375 8.140625 15.328125 C 8.058594 15.566406 7.945312 15.796875 7.808594 16.027344 C 7.667969 16.25 7.496094 16.472656 7.296875 16.703125 C 7.101562 16.933594 6.894531 17.167969 6.671875 17.410156 L 5.390625 18.777344 L 5.390625 18.808594 L 8.527344 18.808594 Z M 8.527344 19.566406 "/>
<path style=" stroke:none;fill-rule:nonzero;fill:rgb(0%,0%,0%);fill-opacity:1;" d="M 8.890625 27.285156 L 7.910156 27.285156 L 7.910156 28.785156 L 7.109375 28.785156 L 7.109375 27.285156 L 4.035156 27.285156 L 4.035156 26.566406 L 7.058594 22.089844 L 7.910156 22.089844 L 7.910156 26.535156 L 8.890625 26.535156 Z M 7.109375 26.535156 L 7.109375 24.910156 C 7.109375 24.746094 7.113281 24.566406 7.121094 24.378906 C 7.125 24.191406 7.128906 24.011719 7.128906 23.839844 C 7.136719 23.660156 7.144531 23.492188 7.152344 23.339844 C 7.164062 23.179688 7.171875 23.046875 7.171875 22.941406 L 7.128906 22.941406 C 7.109375 23.003906 7.082031 23.074219 7.046875 23.152344 C 7.019531 23.222656 6.984375 23.292969 6.941406 23.371094 C 6.90625 23.449219 6.871094 23.519531 6.828125 23.589844 C 6.792969 23.660156 6.757812 23.71875 6.722656 23.765625 L 4.847656 26.535156 Z M 7.109375 26.535156 "/>
</g>
</svg>
