
<svg xmlns="http://www.w3.org/2000/svg" xmlns:xlink="http://www.w3.org/1999/xlink" width="32px" height="32px" viewBox="0 0 32 32" version="1.1">
<g id="surface1">
<path style="fill-rule:nonzero;fill:rgb(100%,100%,100%);fill-opacity:1;stroke-width:7.166551;stroke-linecap:butt;stroke-linejoin:miter;stroke:rgb(87.450981%,87.843138%,23.529412%);stroke-opacity:1;stroke-miterlimit:4;" d="M 19.640625 5.296875 L 108.359375 5.296875 C 116.28125 5.296875 122.703125 11.71875 122.703125 19.640625 L 122.703125 108.359375 C 122.703125 116.28125 116.28125 122.703125 108.359375 122.703125 L 19.640625 122.703125 C 11.71875 122.703125 5.296875 116.28125 5.296875 108.359375 L 5.296875 19.640625 C 5.296875 11.71875 11.71875 5.296875 19.640625 5.296875 Z M 19.640625 5.296875 " transform="matrix(0.25,0,0,0.25,0,0)"/>
<path style=" stroke:none;fill-rule:nonzero;fill:rgb(87.450981%,87.843138%,23.529412%);fill-opacity:1;" d="M 8.402344 4.644531 L 4.644531 8.386719 L 10.839844 14.582031 C 11.019531 14.445312 11.242188 14.371094 11.464844 14.371094 L 11.984375 14.371094 C 12.347656 14.367188 12.707031 14.574219 12.886719 14.886719 L 16.160156 14.886719 C 16.652344 14.878906 17.117188 15.273438 17.191406 15.757812 C 17.269531 15.277344 17.722656 14.886719 18.210938 14.886719 L 20.855469 14.886719 L 27.355469 8.386719 L 23.613281 4.644531 L 16.015625 12.242188 Z M 8.402344 4.644531 "/>
<path style=" stroke:none;fill-rule:nonzero;fill:rgb(65.490198%,65.490198%,65.490198%);fill-opacity:1;" d="M 5.0625 15.015625 C 4.882812 15.046875 4.738281 15.222656 4.738281 15.402344 L 4.738281 19.535156 C 4.738281 19.734375 4.925781 19.917969 5.128906 19.917969 L 9.53125 19.917969 C 9.734375 19.917969 9.917969 19.734375 9.917969 19.535156 L 9.917969 19.015625 C 9.917969 18.8125 9.734375 18.628906 9.53125 18.628906 L 6.03125 18.628906 L 6.03125 16.308594 L 9.546875 16.308594 C 9.75 16.308594 9.933594 16.121094 9.933594 15.917969 L 9.933594 15.402344 C 9.933594 15.199219 9.75 15.015625 9.546875 15.015625 Z M 5.0625 15.015625 "/>
<path style=" stroke:none;fill-rule:nonzero;fill:rgb(65.490198%,65.490198%,65.490198%);fill-opacity:1;" d="M 11.402344 15.015625 C 11.222656 15.046875 11.078125 15.222656 11.082031 15.402344 L 11.082031 19.535156 C 11.082031 19.734375 11.265625 19.917969 11.464844 19.917969 L 11.984375 19.917969 C 12.183594 19.917969 12.371094 19.734375 12.371094 19.535156 L 12.371094 16.824219 L 15.257812 16.824219 L 15.257812 19.535156 C 15.257812 19.734375 15.441406 19.917969 15.644531 19.917969 L 16.160156 19.917969 C 16.363281 19.917969 16.550781 19.734375 16.550781 19.535156 L 16.550781 15.917969 C 16.550781 15.714844 16.363281 15.53125 16.160156 15.53125 L 12.371094 15.53125 L 12.371094 15.402344 C 12.371094 15.199219 12.183594 15.015625 11.984375 15.015625 C 11.789062 15.015625 11.597656 15.015625 11.402344 15.015625 Z M 11.402344 15.015625 "/>
<path style=" stroke:none;fill-rule:nonzero;fill:rgb(65.490198%,65.490198%,65.490198%);fill-opacity:1;" d="M 24.953125 15.015625 C 24.777344 15.050781 24.644531 15.222656 24.644531 15.402344 L 24.644531 15.53125 L 24.324219 15.53125 C 24.121094 15.53125 23.9375 15.714844 23.9375 15.917969 L 23.9375 16.433594 C 23.9375 16.636719 24.121094 16.824219 24.324219 16.824219 L 24.644531 16.824219 L 24.644531 19.535156 C 24.644531 19.734375 24.832031 19.917969 25.035156 19.917969 L 26.371094 19.917969 C 26.574219 19.917969 26.761719 19.734375 26.761719 19.535156 L 26.761719 18.902344 C 26.761719 18.699219 26.574219 18.515625 26.371094 18.515625 L 25.9375 18.515625 L 25.9375 16.824219 L 26.371094 16.824219 C 26.574219 16.824219 26.761719 16.636719 26.761719 16.433594 L 26.761719 15.917969 C 26.761719 15.714844 26.574219 15.53125 26.371094 15.53125 L 25.9375 15.53125 L 25.9375 15.402344 C 25.9375 15.199219 25.753906 15.015625 25.550781 15.015625 L 25.035156 15.015625 C 25.007812 15.011719 24.980469 15.011719 24.953125 15.015625 Z M 24.953125 15.015625 "/>
<path style=" stroke:none;fill-rule:nonzero;fill:rgb(65.490198%,65.490198%,65.490198%);fill-opacity:1;" d="M 18.144531 15.53125 C 17.964844 15.5625 17.820312 15.738281 17.824219 15.917969 L 17.824219 19.535156 C 17.824219 19.734375 18.007812 19.917969 18.210938 19.917969 L 20.582031 19.917969 C 20.785156 19.917969 20.96875 19.734375 20.96875 19.535156 L 20.96875 19.015625 C 20.96875 18.8125 20.785156 18.628906 20.582031 18.628906 L 19.113281 18.628906 L 19.113281 16.824219 L 22.160156 16.824219 L 22.160156 19.535156 C 22.160156 19.734375 22.347656 19.917969 22.550781 19.917969 L 23.582031 19.917969 C 23.785156 19.917969 23.96875 19.734375 23.96875 19.535156 L 23.96875 17.984375 C 23.96875 17.78125 23.785156 17.597656 23.582031 17.597656 L 23.453125 17.597656 L 23.453125 15.917969 C 23.453125 15.714844 23.269531 15.53125 23.066406 15.53125 L 18.210938 15.53125 C 18.1875 15.53125 18.167969 15.53125 18.144531 15.53125 Z M 18.144531 15.53125 "/>
<path style=" stroke:none;fill-rule:nonzero;fill:rgb(81.960785%,20%,5.490196%);fill-opacity:1;" d="M 13.015625 17.46875 L 13.015625 19.535156 C 13.015625 20.074219 12.523438 20.566406 11.984375 20.566406 L 11.464844 20.566406 C 10.957031 20.566406 10.480469 20.136719 10.433594 19.628906 C 10.386719 20.136719 9.910156 20.566406 9.402344 20.566406 L 7.675781 20.566406 L 4.644531 23.597656 L 8.402344 27.355469 L 15.273438 20.5 C 14.886719 20.351562 14.613281 19.949219 14.613281 19.535156 L 14.613281 17.46875 Z M 13.015625 17.46875 "/>
<path style=" stroke:none;fill-rule:nonzero;fill:rgb(81.960785%,20%,5.490196%);fill-opacity:1;" d="M 17.191406 19.628906 C 17.160156 19.957031 16.960938 20.257812 16.675781 20.417969 L 23.613281 27.355469 L 27.355469 23.597656 L 24.128906 20.355469 C 23.957031 20.488281 23.738281 20.5625 23.519531 20.566406 L 22.550781 20.566406 C 22.113281 20.566406 21.695312 20.253906 21.566406 19.839844 C 21.433594 20.253906 21.019531 20.566406 20.582031 20.566406 L 18.210938 20.566406 C 17.707031 20.558594 17.242188 20.132812 17.191406 19.628906 Z M 17.191406 19.628906 "/>
</g>
</svg>
