
<svg xmlns="http://www.w3.org/2000/svg" xmlns:xlink="http://www.w3.org/1999/xlink" width="32px" height="32px" viewBox="0 0 32 32" version="1.1">
<g id="surface1">
<path style="fill-rule:nonzero;fill:rgb(100%,100%,100%);fill-opacity:1;stroke-width:7.121881;stroke-linecap:butt;stroke-linejoin:miter;stroke:rgb(29.019609%,68.235296%,90.980393%);stroke-opacity:1;stroke-miterlimit:4;" d="M 19.921875 5.671875 L 108.078125 5.671875 C 115.953125 5.671875 122.328125 12.046875 122.328125 19.921875 L 122.328125 108.078125 C 122.328125 115.953125 115.953125 122.328125 108.078125 122.328125 L 19.921875 122.328125 C 12.046875 122.328125 5.671875 115.953125 5.671875 108.078125 L 5.671875 19.921875 C 5.671875 12.046875 12.046875 5.671875 19.921875 5.671875 Z M 19.921875 5.671875 " transform="matrix(0.25,0,0,0.25,0,0)"/>
<path style=" stroke:none;fill-rule:nonzero;fill:rgb(72.941178%,9.019608%,30.588236%);fill-opacity:1;" d="M 12.042969 5.277344 C 12.003906 5.277344 11.957031 5.285156 11.914062 5.292969 C 11.730469 5.339844 6.324219 6.457031 6.238281 6.480469 C 6.105469 6.511719 5.910156 6.652344 5.847656 6.773438 C 5.761719 6.9375 3.164062 14.503906 3.144531 14.695312 C 3.132812 14.777344 3.160156 14.917969 3.183594 14.996094 C 3.261719 15.242188 3.28125 15.253906 6.574219 17.253906 C 8.1875 18.230469 9.285156 18.859375 9.652344 19.089844 C 9.746094 19.152344 9.867188 19.183594 9.921875 19.179688 C 10.160156 19.167969 10.808594 19.117188 12.871094 18.910156 C 14.53125 18.746094 15.871094 18.585938 15.933594 18.566406 C 16.058594 18.53125 16.160156 18.445312 16.210938 18.394531 C 16.261719 18.34375 16.332031 18.222656 16.347656 18.183594 C 16.363281 18.144531 16.902344 16.367188 17.542969 14.246094 C 18.363281 11.527344 18.644531 10.632812 18.691406 10.261719 C 18.730469 9.988281 18.621094 9.824219 18.441406 9.65625 C 18.199219 9.425781 12.492188 5.460938 12.394531 5.394531 C 12.292969 5.320312 12.171875 5.277344 12.042969 5.277344 Z M 12.042969 5.277344 "/>
<path style=" stroke:none;fill-rule:nonzero;fill:rgb(100%,100%,100%);fill-opacity:1;" d="M 10.441406 6.324219 C 10.488281 6.324219 10.527344 6.339844 10.589844 6.363281 C 10.863281 6.476562 10.847656 6.988281 10.566406 7.46875 C 10.429688 7.699219 10.121094 7.996094 9.9375 8.082031 C 9.664062 8.207031 9.441406 8.160156 9.355469 7.964844 C 9.160156 7.488281 9.675781 6.574219 10.253906 6.371094 C 10.339844 6.34375 10.398438 6.324219 10.441406 6.324219 Z M 10.441406 6.324219 "/>
<path style=" stroke:none;fill-rule:nonzero;fill:rgb(100%,100%,100%);fill-opacity:1;" d="M 6.808594 7.082031 C 6.9375 7.082031 6.964844 7.09375 7.027344 7.167969 C 7.214844 7.363281 7.136719 7.816406 6.847656 8.253906 C 6.613281 8.609375 6.304688 8.835938 6.050781 8.839844 C 5.917969 8.839844 5.898438 8.835938 5.828125 8.757812 C 5.730469 8.644531 5.707031 8.503906 5.746094 8.285156 C 5.820312 7.847656 6.152344 7.378906 6.539062 7.15625 C 6.628906 7.105469 6.707031 7.082031 6.808594 7.082031 Z M 6.808594 7.082031 "/>
<path style=" stroke:none;fill-rule:nonzero;fill:rgb(100%,100%,100%);fill-opacity:1;" d="M 14.257812 10.882812 C 14.285156 10.878906 14.300781 10.878906 14.324219 10.882812 C 14.371094 10.882812 14.421875 10.890625 14.503906 10.914062 C 14.785156 10.996094 15.046875 11.339844 15.125 11.707031 C 15.144531 11.792969 15.152344 11.96875 15.148438 12.097656 C 15.125 12.613281 14.8125 12.980469 14.421875 12.941406 C 14.109375 12.910156 13.867188 12.683594 13.710938 12.277344 C 13.617188 12.042969 13.621094 11.613281 13.710938 11.378906 C 13.789062 11.175781 14.011719 10.949219 14.167969 10.90625 C 14.207031 10.894531 14.234375 10.886719 14.257812 10.882812 Z M 14.257812 10.882812 "/>
<path style=" stroke:none;fill-rule:nonzero;fill:rgb(100%,100%,100%);fill-opacity:1;" d="M 8.746094 11.371094 C 8.878906 11.371094 9.003906 11.425781 9.0625 11.527344 C 9.175781 11.71875 9.144531 12.035156 8.980469 12.386719 C 8.683594 13.035156 8.027344 13.445312 7.757812 13.144531 C 7.609375 12.980469 7.601562 12.730469 7.714844 12.386719 C 7.859375 11.957031 8.28125 11.488281 8.613281 11.386719 C 8.660156 11.375 8.699219 11.371094 8.746094 11.371094 Z M 8.746094 11.371094 "/>
<path style=" stroke:none;fill-rule:nonzero;fill:rgb(100%,100%,100%);fill-opacity:1;" d="M 5.09375 11.96875 C 5.375 11.941406 5.535156 12.222656 5.4375 12.636719 C 5.246094 13.464844 4.339844 14.125 4.097656 13.617188 C 4.0625 13.539062 4.058594 13.460938 4.066406 13.300781 C 4.097656 12.78125 4.53125 12.160156 4.972656 12 C 5.015625 11.984375 5.054688 11.972656 5.09375 11.96875 Z M 5.09375 11.96875 "/>
<path style=" stroke:none;fill-rule:nonzero;fill:rgb(100%,100%,100%);fill-opacity:1;" d="M 8.714844 15.003906 C 9.089844 14.992188 9.714844 15.167969 10.082031 15.414062 C 10.515625 15.699219 10.464844 15.945312 9.972656 15.945312 C 9.457031 15.945312 8.761719 15.695312 8.492188 15.40625 C 8.308594 15.207031 8.332031 15.082031 8.574219 15.023438 C 8.613281 15.011719 8.660156 15.007812 8.714844 15.003906 Z M 8.714844 15.003906 "/>
<path style=" stroke:none;fill-rule:nonzero;fill:rgb(100%,100%,100%);fill-opacity:1;" d="M 9.089844 17.949219 C 9.148438 17.949219 9.214844 17.957031 9.332031 17.972656 C 9.941406 18.054688 10.632812 18.410156 10.632812 18.640625 C 10.632812 18.78125 10.519531 18.816406 10.183594 18.796875 C 9.863281 18.777344 9.527344 18.695312 9.21875 18.542969 C 9 18.4375 8.761719 18.25 8.738281 18.160156 C 8.71875 18.082031 8.796875 17.988281 8.910156 17.964844 C 8.976562 17.949219 9.027344 17.945312 9.089844 17.949219 Z M 9.089844 17.949219 "/>
<path style=" stroke:none;fill-rule:nonzero;fill:rgb(10.588235%,63.921571%,53.725493%);fill-opacity:1;" d="M 21.234375 12.0625 C 20.90625 12.097656 20.113281 12.335938 17.59375 13.074219 C 14.8125 13.886719 14.097656 14.105469 14.007812 14.167969 C 13.949219 14.214844 13.894531 14.253906 13.894531 14.277344 C 13.859375 14.25 13.84375 14.261719 13.785156 14.347656 C 13.746094 14.40625 13.703125 14.488281 13.6875 14.535156 C 13.671875 14.582031 13.34375 16.316406 12.953125 18.398438 C 12.414062 21.269531 12.238281 22.21875 12.25 22.304688 C 12.261719 22.367188 12.304688 22.476562 12.339844 22.558594 C 12.402344 22.683594 12.664062 22.921875 15.324219 25.210938 C 16.921875 26.589844 18.289062 27.738281 18.34375 27.777344 C 18.464844 27.859375 18.550781 27.902344 18.703125 27.898438 C 18.878906 27.894531 19.023438 27.839844 22.28125 26.625 C 24.449219 25.8125 25.722656 25.332031 25.800781 25.277344 C 25.871094 25.230469 25.964844 25.125 26.003906 25.058594 C 26.0625 24.960938 26.300781 24.113281 27.066406 21.167969 C 27.605469 19.089844 28.019531 17.503906 28.039062 17.273438 C 28.050781 17.160156 28.027344 17.042969 27.964844 16.945312 C 27.90625 16.855469 27.738281 16.628906 24.761719 14.445312 C 23.078125 13.210938 21.628906 12.160156 21.546875 12.121094 C 21.476562 12.082031 21.433594 12.066406 21.347656 12.0625 C 21.316406 12.058594 21.28125 12.058594 21.234375 12.0625 Z M 21.234375 12.0625 "/>
<path style=" stroke:none;fill-rule:nonzero;fill:rgb(100%,100%,100%);fill-opacity:1;" d="M 20.925781 12.675781 C 20.867188 12.675781 20.8125 12.679688 20.761719 12.683594 C 20.695312 12.6875 20.636719 12.695312 20.589844 12.707031 C 20.300781 12.789062 20.152344 12.945312 20.191406 13.128906 C 20.238281 13.351562 20.625 13.632812 21.039062 13.738281 C 21.304688 13.804688 21.714844 13.808594 21.921875 13.746094 C 22.105469 13.691406 22.273438 13.527344 22.273438 13.417969 C 22.273438 13.15625 21.917969 12.871094 21.425781 12.738281 C 21.289062 12.703125 21.097656 12.679688 20.925781 12.675781 Z M 16.402344 13.972656 C 16.332031 13.972656 16.277344 13.988281 16.238281 13.996094 C 16.003906 14.050781 15.835938 14.175781 15.785156 14.324219 C 15.699219 14.589844 16.085938 14.933594 16.628906 15.074219 C 16.894531 15.144531 17.304688 15.144531 17.519531 15.082031 C 17.683594 15.035156 17.855469 14.914062 17.894531 14.804688 C 17.996094 14.542969 17.59375 14.167969 17.050781 14.027344 C 16.902344 13.992188 16.605469 13.964844 16.402344 13.972656 Z M 22.671875 14.097656 C 22.636719 14.097656 22.621094 14.097656 22.589844 14.105469 C 22.199219 14.191406 22.042969 14.382812 22.144531 14.644531 C 22.207031 14.816406 22.582031 15.0625 22.910156 15.15625 C 23.578125 15.351562 24.214844 15.191406 24.214844 14.832031 C 24.214844 14.636719 23.917969 14.355469 23.582031 14.226562 C 23.355469 14.144531 23.035156 14.097656 22.792969 14.097656 C 22.753906 14.097656 22.707031 14.09375 22.671875 14.097656 Z M 18.425781 15.425781 C 18.347656 15.425781 18.277344 15.433594 18.207031 15.441406 C 18.128906 15.457031 18 15.503906 17.917969 15.542969 C 17.496094 15.75 17.632812 16.164062 18.207031 16.441406 C 18.464844 16.566406 18.71875 16.625 19.027344 16.628906 C 19.355469 16.628906 19.566406 16.570312 19.714844 16.433594 C 19.808594 16.34375 19.824219 16.316406 19.824219 16.210938 C 19.824219 15.953125 19.574219 15.722656 19.144531 15.566406 C 18.902344 15.476562 18.652344 15.425781 18.425781 15.425781 Z M 24.722656 15.542969 C 24.660156 15.542969 24.613281 15.558594 24.566406 15.566406 C 24.25 15.621094 24.078125 15.75 24.078125 15.941406 C 24.078125 16.078125 24.128906 16.175781 24.265625 16.300781 C 24.566406 16.585938 25.074219 16.746094 25.546875 16.714844 C 25.84375 16.699219 25.964844 16.660156 26.097656 16.535156 C 26.179688 16.457031 26.199219 16.414062 26.199219 16.332031 C 26.199219 16.042969 25.855469 15.761719 25.328125 15.613281 C 25.15625 15.566406 24.910156 15.539062 24.722656 15.542969 Z M 14.375 16.105469 C 14.257812 16.105469 14.21875 16.121094 14.136719 16.195312 C 14.011719 16.308594 13.945312 16.441406 13.910156 16.660156 C 13.839844 17.09375 14.015625 17.640625 14.332031 17.957031 C 14.644531 18.269531 14.988281 18.269531 15.167969 17.941406 C 15.394531 17.519531 15.269531 16.789062 14.878906 16.355469 C 14.722656 16.183594 14.5625 16.105469 14.375 16.105469 Z M 20.410156 16.953125 C 20.257812 16.953125 20.082031 16.964844 20.019531 16.988281 C 19.753906 17.066406 19.628906 17.199219 19.628906 17.394531 C 19.628906 17.53125 19.6875 17.628906 19.855469 17.777344 C 20.144531 18.042969 20.519531 18.160156 21.023438 18.160156 C 21.320312 18.160156 21.378906 18.152344 21.496094 18.097656 C 21.871094 17.925781 21.910156 17.636719 21.585938 17.347656 C 21.304688 17.09375 20.875 16.949219 20.410156 16.953125 Z M 26.691406 18.457031 C 26.636719 18.457031 26.570312 18.472656 26.503906 18.496094 C 25.8125 18.742188 25.230469 19.796875 25.566406 20.195312 C 25.839844 20.527344 26.574219 20.128906 26.925781 19.453125 C 27.222656 18.894531 27.085938 18.433594 26.691406 18.457031 Z M 18.199219 19.160156 C 18.125 19.160156 18.039062 19.167969 18.011719 19.183594 C 17.800781 19.292969 17.691406 19.507812 17.675781 19.828125 C 17.644531 20.253906 17.8125 20.703125 18.097656 21.011719 C 18.28125 21.207031 18.417969 21.285156 18.621094 21.285156 C 18.820312 21.285156 18.945312 21.199219 19.046875 20.996094 C 19.367188 20.339844 18.820312 19.15625 18.199219 19.160156 Z M 15.730469 20.066406 C 15.675781 20.070312 15.617188 20.089844 15.566406 20.113281 C 15.472656 20.164062 15.425781 20.214844 15.363281 20.328125 C 15.203125 20.625 15.246094 21.183594 15.460938 21.585938 C 15.707031 22.046875 16.121094 22.269531 16.382812 22.089844 C 16.589844 21.953125 16.667969 21.753906 16.652344 21.355469 C 16.636719 20.933594 16.492188 20.574219 16.222656 20.300781 C 16.054688 20.136719 15.886719 20.050781 15.730469 20.066406 Z M 13.425781 20.933594 C 13.398438 20.929688 13.375 20.949219 13.320312 20.964844 C 13.113281 21.027344 12.988281 21.285156 12.988281 21.632812 C 12.988281 21.902344 13.027344 22.105469 13.167969 22.386719 C 13.398438 22.863281 13.800781 23.089844 14.074219 22.910156 C 14.378906 22.707031 14.394531 22.019531 14.113281 21.488281 C 13.984375 21.25 13.761719 21.023438 13.582031 20.972656 C 13.503906 20.949219 13.457031 20.933594 13.425781 20.933594 Z M 23.914062 21.667969 C 23.820312 21.675781 23.722656 21.703125 23.628906 21.746094 C 23.21875 21.941406 22.847656 22.394531 22.730469 22.84375 C 22.675781 23.039062 22.675781 23.15625 22.738281 23.292969 C 22.808594 23.441406 22.917969 23.503906 23.105469 23.488281 C 23.503906 23.457031 23.972656 23.0625 24.214844 22.53125 C 24.378906 22.1875 24.351562 21.804688 24.160156 21.707031 C 24.097656 21.675781 24.007812 21.660156 23.914062 21.667969 Z M 17.027344 24.066406 C 16.996094 24.074219 16.96875 24.089844 16.949219 24.101562 C 16.863281 24.132812 16.742188 24.25 16.691406 24.371094 C 16.480469 24.878906 16.835938 25.824219 17.324219 26.066406 C 17.691406 26.253906 17.972656 26.066406 18.050781 25.605469 C 18.140625 25.054688 17.773438 24.292969 17.332031 24.109375 C 17.253906 24.078125 17.125 24.054688 17.027344 24.066406 Z M 21.105469 24.859375 C 21.019531 24.863281 20.972656 24.878906 20.835938 24.949219 C 20.292969 25.222656 19.824219 25.957031 19.925781 26.386719 C 19.988281 26.636719 20.195312 26.722656 20.492188 26.632812 C 21.128906 26.433594 21.730469 25.53125 21.527344 25.066406 C 21.46875 24.917969 21.390625 24.871094 21.203125 24.859375 C 21.164062 24.859375 21.132812 24.859375 21.105469 24.859375 Z M 21.105469 24.859375 "/>
</g>
</svg>
