
<svg xmlns="http://www.w3.org/2000/svg" xmlns:xlink="http://www.w3.org/1999/xlink" width="32px" height="32px" viewBox="0 0 32 32" version="1.1">
<g id="surface1">
<path style="fill-rule:nonzero;fill:rgb(10.196079%,10.196079%,10.196079%);fill-opacity:1;stroke-width:28.191782;stroke-linecap:butt;stroke-linejoin:miter;stroke:rgb(29.019609%,68.235296%,90.980393%);stroke-opacity:1;stroke-miterlimit:4;" d="M 81.97225 25.612414 L 431.027501 25.612414 C 462.150655 25.612414 487.387337 50.849096 487.387337 81.97225 L 487.387337 431.027501 C 487.387337 462.150655 462.150655 487.387337 431.027501 487.387337 L 81.97225 487.387337 C 50.849096 487.387337 25.612414 462.150655 25.612414 431.027501 L 25.612414 81.97225 C 25.612414 50.849096 50.849096 25.612414 81.97225 25.612414 Z M 81.97225 25.612414 " transform="matrix(0.0623782,0,0,0.0623782,0,0)"/>
<path style=" stroke:none;fill-rule:nonzero;fill:rgb(29.019609%,68.235296%,90.980393%);fill-opacity:1;" d="M 16.027344 7.578125 C 11.425781 7.578125 7.683594 11.320312 7.683594 15.917969 C 7.683594 20.519531 11.425781 24.261719 16.027344 24.261719 C 20.628906 24.261719 24.371094 20.519531 24.371094 15.917969 C 24.371094 11.320312 20.628906 7.578125 16.027344 7.578125 Z M 20.261719 11.410156 C 19.199219 10.359375 17.828125 9.691406 16.128906 9.628906 L 16.128906 7.921875 C 18.316406 7.964844 20.105469 8.804688 21.507812 10.144531 Z M 16.128906 12.007812 C 17.140625 12.050781 17.941406 12.433594 18.601562 13.035156 L 16.128906 15.507812 Z M 15.761719 15.816406 L 12.113281 15.816406 C 12.203125 13.792969 13.902344 12.097656 15.761719 12.007812 Z M 15.761719 16.183594 L 15.761719 19.832031 C 13.902344 19.746094 12.203125 18.046875 12.113281 16.183594 Z M 16.128906 16.183594 L 19.9375 16.183594 C 19.851562 18.046875 18.152344 19.746094 16.128906 19.832031 Z M 18.878906 12.792969 C 18.15625 12.128906 17.300781 11.707031 16.128906 11.667969 L 16.128906 9.96875 C 17.628906 10.03125 19 10.660156 20.003906 11.648438 Z M 15.761719 11.667969 C 13.738281 11.753906 11.863281 13.632812 11.777344 15.816406 L 10.070312 15.816406 C 10.113281 12.621094 12.726562 10.007812 15.761719 9.964844 Z M 11.777344 16.183594 C 11.863281 18.207031 13.738281 20.082031 15.761719 20.171875 L 15.761719 21.707031 C 12.726562 21.660156 10.207031 19.222656 10.074219 16.183594 Z M 16.128906 20.171875 C 18.316406 20.082031 20.191406 18.207031 20.277344 16.183594 L 21.808594 16.183594 C 21.675781 19.058594 19.164062 21.570312 16.128906 21.703125 Z M 15.761719 7.921875 L 15.761719 9.621094 C 12.523438 9.667969 9.777344 12.417969 9.730469 15.816406 L 8.027344 15.816406 C 8.121094 11.402344 11.511719 8.011719 15.761719 7.921875 Z M 8.027344 16.183594 L 9.734375 16.183594 C 9.867188 19.421875 12.523438 22.003906 15.761719 22.046875 L 15.761719 23.917969 C 11.511719 23.828125 8.121094 20.433594 8.027344 16.183594 Z M 16.128906 23.917969 L 16.128906 22.042969 C 19.328125 21.910156 22.019531 19.222656 22.148438 16.183594 L 24.023438 16.183594 C 23.933594 20.433594 20.542969 23.828125 16.128906 23.917969 Z M 16.128906 23.917969 "/>
</g>
</svg>
