
<svg xmlns="http://www.w3.org/2000/svg" xmlns:xlink="http://www.w3.org/1999/xlink" width="32px" height="32px" viewBox="0 0 32 32" version="1.1">
<g id="surface1">
<path style="fill-rule:nonzero;fill:rgb(100%,100%,100%);fill-opacity:1;stroke-width:46.833122;stroke-linecap:butt;stroke-linejoin:miter;stroke:rgb(29.019609%,68.235296%,90.980393%);stroke-opacity:1;stroke-miterlimit:4;" d="M 133.179828 -818.472828 L 713.013184 -818.472828 C 764.673319 -818.472828 806.621349 -776.542583 806.621349 -724.846306 L 806.621349 -144.935093 C 806.621349 -93.238816 764.673319 -51.308571 713.013184 -51.308571 L 133.179828 -51.308571 C 81.416373 -51.308571 39.468343 -93.238816 39.468343 -144.935093 L 39.468343 -724.846306 C 39.468343 -776.542583 81.416373 -818.472828 133.179828 -818.472828 Z M 133.179828 -818.472828 " transform="matrix(0.0378072,0,0,0.0367985,0,32.005264)"/>
<path style=" stroke:none;fill-rule:nonzero;fill:rgb(100%,0%,0%);fill-opacity:1;" d="M 17.878906 18.222656 C 17.878906 18.222656 17.039062 19.859375 17.011719 21.597656 C 16.558594 20.019531 15.492188 18.738281 15.492188 18.738281 C 15.492188 18.738281 13.707031 19.316406 12.425781 20.527344 C 13.25 19.097656 13.425781 17.457031 13.425781 17.457031 C 13.425781 17.457031 11.746094 16.636719 9.957031 16.613281 C 11.582031 16.167969 12.898438 15.128906 12.898438 15.128906 C 12.898438 15.128906 12.304688 13.394531 11.058594 12.144531 C 12.527344 12.949219 14.214844 13.121094 14.214844 13.121094 C 14.214844 13.121094 15.058594 11.484375 15.082031 9.746094 C 15.539062 11.324219 16.605469 12.605469 16.605469 12.605469 C 16.605469 12.605469 18.390625 12.027344 19.671875 10.816406 C 18.847656 12.246094 18.667969 13.886719 18.667969 13.886719 C 18.667969 13.886719 20.351562 14.707031 22.136719 14.730469 C 20.515625 15.175781 19.199219 16.214844 19.199219 16.214844 C 19.199219 16.214844 19.792969 17.953125 21.035156 19.199219 C 19.566406 18.394531 17.878906 18.222656 17.878906 18.222656 "/>
<path style=" stroke:none;fill-rule:nonzero;fill:rgb(100%,65.098041%,0%);fill-opacity:1;" d="M 28.167969 18.769531 C 28.167969 18.769531 27.007812 15.378906 24.53125 14.671875 C 24.230469 14.585938 23.921875 14.542969 23.613281 14.535156 C 23.820312 14.472656 24.023438 14.386719 24.21875 14.285156 C 26.484375 13.078125 26.871094 9.519531 26.871094 9.519531 C 26.871094 9.519531 23.582031 7.917969 21.320312 9.125 C 21.042969 9.273438 20.792969 9.457031 20.570312 9.660156 C 20.671875 9.472656 20.753906 9.277344 20.816406 9.066406 C 21.542969 6.65625 19.230469 3.875 19.230469 3.875 C 19.230469 3.875 15.746094 5.003906 15.019531 7.414062 C 14.933594 7.710938 14.886719 8.011719 14.878906 8.308594 C 14.8125 8.105469 14.730469 7.910156 14.621094 7.71875 C 13.382812 5.515625 9.730469 5.140625 9.730469 5.140625 C 9.730469 5.140625 8.082031 8.339844 9.324219 10.542969 C 9.472656 10.808594 9.660156 11.050781 9.875 11.269531 C 9.679688 11.171875 9.476562 11.089844 9.261719 11.03125 C 6.785156 10.324219 3.925781 12.574219 3.925781 12.574219 C 3.925781 12.574219 5.089844 15.96875 7.566406 16.675781 C 7.867188 16.761719 8.175781 16.800781 8.484375 16.808594 C 8.277344 16.875 8.074219 16.957031 7.878906 17.058594 C 5.613281 18.265625 5.226562 21.824219 5.226562 21.824219 C 5.226562 21.824219 8.511719 23.425781 10.777344 22.21875 C 11.054688 22.070312 11.300781 21.886719 11.527344 21.683594 C 11.425781 21.871094 11.339844 22.070312 11.277344 22.277344 C 10.554688 24.6875 12.863281 27.46875 12.863281 27.46875 C 12.863281 27.46875 16.351562 26.339844 17.078125 23.929688 C 17.167969 23.636719 17.207031 23.332031 17.214844 23.035156 C 17.285156 23.238281 17.367188 23.433594 17.472656 23.625 C 18.714844 25.828125 22.367188 26.203125 22.367188 26.203125 C 22.367188 26.203125 24.011719 23.007812 22.773438 20.800781 C 22.621094 20.535156 22.433594 20.292969 22.222656 20.074219 C 22.417969 20.171875 22.621094 20.253906 22.835938 20.3125 C 25.3125 21.019531 28.167969 18.769531 28.167969 18.769531 "/>
<path style=" stroke:none;fill-rule:nonzero;fill:rgb(78.431374%,100%,84.705883%);fill-opacity:1;" d="M 18.988281 9.261719 C 18.988281 11.972656 15.722656 14.175781 15.722656 14.175781 C 15.722656 14.175781 12.457031 11.972656 12.457031 9.261719 C 12.457031 6.542969 15.722656 4.339844 15.722656 4.339844 C 15.722656 4.339844 18.988281 6.542969 18.988281 9.261719 "/>
<path style=" stroke:none;fill-rule:nonzero;fill:rgb(39.215687%,99.607843%,56.862748%);fill-opacity:1;" d="M 11.8125 9.988281 C 14.230469 11.347656 14.554688 15.199219 14.554688 15.199219 C 14.554688 15.199219 10.964844 16.847656 8.546875 15.492188 C 6.128906 14.132812 5.804688 10.28125 5.804688 10.28125 C 5.804688 10.28125 9.394531 8.628906 11.8125 9.988281 "/>
<path style=" stroke:none;fill-rule:nonzero;fill:rgb(0.392157%,100%,41.960785%);fill-opacity:1;" d="M 8.871094 16.402344 C 11.289062 15.042969 14.878906 16.691406 14.878906 16.691406 C 14.878906 16.691406 14.554688 20.546875 12.136719 21.902344 C 9.722656 23.261719 6.128906 21.613281 6.128906 21.613281 C 6.128906 21.613281 6.457031 17.757812 8.871094 16.402344 "/>
<path style=" stroke:none;fill-rule:nonzero;fill:rgb(81.176472%,100%,60.784316%);fill-opacity:1;" d="M 13.109375 22.085938 C 13.109375 19.371094 16.371094 17.167969 16.371094 17.167969 C 16.371094 17.167969 19.636719 19.371094 19.636719 22.085938 C 19.636719 24.800781 16.371094 27.003906 16.371094 27.003906 C 16.371094 27.003906 13.109375 24.800781 13.109375 22.085938 "/>
<path style=" stroke:none;fill-rule:nonzero;fill:rgb(63.137257%,100%,20.392157%);fill-opacity:1;" d="M 20.285156 21.355469 C 17.867188 20 17.542969 16.144531 17.542969 16.144531 C 17.542969 16.144531 21.132812 14.496094 23.550781 15.851562 C 25.964844 17.210938 26.292969 21.0625 26.292969 21.0625 C 26.292969 21.0625 22.699219 22.714844 20.285156 21.355469 "/>
<path style=" stroke:none;fill-rule:nonzero;fill:rgb(54.11765%,100%,0%);fill-opacity:1;" d="M 23.222656 14.941406 C 20.808594 16.300781 17.214844 14.652344 17.214844 14.652344 C 17.214844 14.652344 17.542969 10.796875 19.957031 9.441406 C 22.375 8.082031 25.964844 9.734375 25.964844 9.734375 C 25.964844 9.734375 25.640625 13.585938 23.222656 14.941406 "/>
<path style=" stroke:none;fill-rule:nonzero;fill:rgb(43.529412%,65.882355%,98.823529%);fill-opacity:1;" d="M 20.125 15.671875 C 20.125 17.863281 18.300781 19.640625 16.050781 19.640625 C 13.796875 19.640625 11.972656 17.863281 11.972656 15.671875 C 11.972656 13.480469 13.796875 11.707031 16.050781 11.707031 C 18.300781 11.707031 20.125 13.480469 20.125 15.671875 "/>
<path style=" stroke:none;fill-rule:nonzero;fill:rgb(80.000001%,0%,100%);fill-opacity:1;" d="M 21.203125 15.144531 C 19.292969 16.339844 16.023438 15.660156 16.023438 15.660156 C 16.023438 15.660156 16.417969 11.992188 18.324219 10.792969 C 20.234375 9.597656 23.222656 10.800781 23.222656 10.800781 C 23.222656 10.800781 23.113281 13.949219 21.203125 15.144531 "/>
<path style=" stroke:none;fill-rule:nonzero;fill:rgb(0%,83.137256%,0%);fill-opacity:1;" d="M 15.496094 10.617188 C 16.726562 12.476562 16.023438 15.660156 16.023438 15.660156 C 16.023438 15.660156 12.257812 15.277344 11.027344 13.417969 C 9.796875 11.558594 11.035156 8.652344 11.035156 8.652344 C 11.035156 8.652344 14.265625 8.757812 15.496094 10.617188 "/>
<path style=" stroke:none;fill-rule:nonzero;fill:rgb(0.392157%,43.137255%,100%);fill-opacity:1;" d="M 10.84375 16.171875 C 12.753906 14.976562 16.023438 15.660156 16.023438 15.660156 C 16.023438 15.660156 15.628906 19.324219 13.722656 20.519531 C 11.8125 21.71875 8.824219 20.511719 8.824219 20.511719 C 8.824219 20.511719 8.933594 17.367188 10.84375 16.171875 "/>
<path style=" stroke:none;fill-rule:nonzero;fill:rgb(100%,20%,20.392157%);fill-opacity:1;" d="M 16.550781 20.699219 C 15.324219 18.839844 16.023438 15.660156 16.023438 15.660156 C 16.023438 15.660156 19.792969 16.039062 21.019531 17.898438 C 22.25 19.757812 21.011719 22.664062 21.011719 22.664062 C 21.011719 22.664062 17.78125 22.558594 16.550781 20.699219 "/>
</g>
</svg>
