
<svg xmlns="http://www.w3.org/2000/svg" xmlns:xlink="http://www.w3.org/1999/xlink" width="32px" height="32px" viewBox="0 0 32 32" version="1.1">
<g id="surface1">
<path style="fill-rule:nonzero;fill:rgb(25.098041%,87.843138%,81.568629%);fill-opacity:1;stroke-width:56.239723;stroke-linecap:butt;stroke-linejoin:miter;stroke:rgb(50.588238%,100%,95.294118%);stroke-opacity:1;stroke-miterlimit:4;" d="M 163.875 51.375 L 860.125 51.375 C 922.25 51.375 972.625 101.75 972.625 163.875 L 972.625 860.125 C 972.625 922.25 922.25 972.625 860.125 972.625 L 163.875 972.625 C 101.75 972.625 51.375 922.25 51.375 860.125 L 51.375 163.875 C 51.375 101.75 101.75 51.375 163.875 51.375 Z M 163.875 51.375 " transform="matrix(0.03125,0,0,0.03125,0,0)"/>
<path style=" stroke:none;fill-rule:nonzero;fill:rgb(100%,100%,100%);fill-opacity:1;" d="M 28.480469 15.972656 C 28.480469 22.773438 22.96875 28.289062 16.164062 28.289062 C 9.363281 28.289062 3.847656 22.773438 3.847656 15.972656 C 3.847656 9.167969 9.363281 3.652344 16.164062 3.652344 C 22.96875 3.652344 28.480469 9.167969 28.480469 15.972656 Z M 28.480469 15.972656 "/>
<path style=" stroke:none;fill-rule:nonzero;fill:rgb(25.098041%,87.843138%,81.568629%);fill-opacity:1;" d="M 15.105469 28.351562 C 10.730469 27.972656 6.871094 25.3125 4.964844 21.355469 C 4.367188 20.113281 3.992188 18.8125 3.816406 17.363281 C 3.746094 16.8125 3.746094 15.167969 3.816406 14.621094 C 4.167969 11.746094 5.378906 9.230469 7.367188 7.238281 C 9.378906 5.226562 11.886719 4.015625 14.777344 3.660156 C 15.324219 3.597656 16.96875 3.597656 17.519531 3.660156 C 20.402344 4.015625 22.917969 5.230469 24.914062 7.226562 C 26.917969 9.230469 28.117188 11.722656 28.480469 14.621094 C 28.546875 15.171875 28.546875 16.8125 28.480469 17.363281 C 28.363281 18.269531 28.199219 19.03125 27.941406 19.820312 C 27.066406 22.507812 25.320312 24.792969 22.9375 26.363281 C 21.214844 27.496094 19.234375 28.175781 17.136719 28.355469 C 16.761719 28.386719 15.480469 28.382812 15.105469 28.351562 Z M 16.785156 27.40625 C 17.808594 27.351562 18.457031 27.207031 18.949219 26.917969 C 19.429688 26.636719 19.660156 26.222656 19.621094 25.707031 C 19.601562 25.464844 19.1875 23.945312 18.632812 22.089844 C 18.496094 21.621094 18.386719 21.230469 18.394531 21.222656 C 18.425781 21.191406 18.464844 21.246094 18.601562 21.496094 C 19.058594 22.34375 19.597656 23.324219 20.082031 24.175781 C 20.554688 25.003906 20.664062 25.175781 20.800781 25.3125 C 21.089844 25.601562 21.46875 25.730469 21.855469 25.671875 C 22.582031 25.558594 23.394531 25.011719 24.496094 23.894531 C 25.167969 23.214844 25.449219 22.875 25.699219 22.457031 C 25.824219 22.253906 25.945312 21.929688 25.96875 21.734375 C 26.019531 21.332031 25.808594 20.941406 25.34375 20.566406 C 24.882812 20.199219 23.128906 19.144531 21.433594 18.222656 C 20.660156 17.800781 20.621094 17.742188 21.253906 17.945312 C 22.730469 18.414062 25.746094 19.246094 26.089844 19.277344 C 26.570312 19.324219 27.027344 19.058594 27.296875 18.574219 C 27.5 18.210938 27.652344 17.640625 27.726562 16.953125 C 27.773438 16.535156 27.773438 14.902344 27.726562 14.503906 C 27.636719 13.722656 27.464844 13.25 27.175781 12.988281 C 26.957031 12.785156 26.8125 12.742188 26.339844 12.730469 C 25.972656 12.71875 25.910156 12.726562 25.535156 12.800781 C 24.65625 12.980469 22.316406 13.597656 21.121094 13.964844 C 20.472656 14.164062 20.527344 14.101562 21.429688 13.628906 C 22.351562 13.144531 23.566406 12.484375 24.621094 11.882812 C 25.710938 11.265625 25.871094 11.128906 25.992188 10.722656 C 26.050781 10.523438 26.046875 10.195312 25.980469 9.941406 C 25.816406 9.289062 25.164062 8.382812 24.183594 7.441406 C 22.910156 6.210938 22.164062 5.847656 21.535156 6.160156 C 21.332031 6.261719 20.980469 6.582031 20.804688 6.828125 C 20.394531 7.410156 19.390625 9.113281 18.527344 10.691406 C 18.0625 11.542969 18.007812 11.585938 18.214844 10.9375 C 18.703125 9.414062 19.574219 6.3125 19.613281 5.960938 C 19.648438 5.601562 19.503906 5.214844 19.234375 4.964844 C 18.847656 4.609375 18.1875 4.390625 17.210938 4.300781 C 16.644531 4.246094 15.109375 4.261719 14.660156 4.324219 C 14.066406 4.410156 13.632812 4.5625 13.386719 4.773438 C 13.144531 4.984375 13.011719 5.410156 13.046875 5.902344 C 13.082031 6.476562 13.589844 8.527344 14.183594 10.515625 C 14.378906 11.152344 14.402344 11.273438 14.355469 11.273438 C 14.34375 11.273438 14.238281 11.085938 14.113281 10.859375 C 13.015625 8.769531 11.800781 6.621094 11.582031 6.382812 C 11.34375 6.125 11.050781 6 10.664062 6 C 10.144531 6 9.566406 6.273438 8.792969 6.890625 C 8.480469 7.136719 7.425781 8.191406 7.144531 8.53125 C 6.863281 8.871094 6.59375 9.289062 6.488281 9.546875 C 6.414062 9.738281 6.40625 9.785156 6.40625 10.035156 C 6.402344 10.296875 6.410156 10.324219 6.492188 10.488281 C 6.621094 10.746094 6.929688 11.066406 7.3125 11.324219 C 8.042969 11.816406 10.160156 13.035156 12.046875 14.050781 C 12.402344 14.238281 12.488281 14.304688 12.382812 14.304688 C 12.355469 14.304688 11.929688 14.183594 11.433594 14.027344 C 9.769531 13.519531 7.960938 13.027344 6.839844 12.785156 C 6.46875 12.707031 5.941406 12.675781 5.699219 12.722656 C 5.191406 12.824219 4.871094 13.222656 4.71875 13.949219 C 4.5625 14.707031 4.542969 16.355469 4.675781 17.277344 C 4.75 17.769531 4.839844 18.089844 5.003906 18.429688 C 5.300781 19.035156 5.722656 19.324219 6.257812 19.277344 C 6.601562 19.246094 9.15625 18.539062 11.058594 17.941406 C 11.347656 17.851562 11.578125 17.792969 11.589844 17.804688 C 11.625 17.839844 11.597656 17.855469 11.097656 18.128906 C 9.730469 18.871094 8.175781 19.777344 7.40625 20.285156 C 7.003906 20.546875 6.660156 20.875 6.53125 21.121094 C 6.40625 21.355469 6.375 21.574219 6.425781 21.832031 C 6.535156 22.363281 6.929688 22.925781 7.828125 23.84375 C 8.871094 24.902344 9.550781 25.394531 10.261719 25.601562 C 10.523438 25.675781 10.871094 25.6875 11.074219 25.628906 C 11.269531 25.570312 11.511719 25.402344 11.644531 25.234375 C 11.875 24.9375 13.449219 22.113281 14.234375 20.585938 C 14.308594 20.445312 14.375 20.339844 14.398438 20.339844 C 14.421875 20.339844 14.433594 20.359375 14.425781 20.386719 C 14.417969 20.414062 14.308594 20.777344 14.1875 21.199219 C 13.515625 23.480469 13.082031 25.230469 13.046875 25.792969 C 12.972656 26.910156 13.566406 27.324219 15.34375 27.40625 C 15.992188 27.433594 16.25 27.433594 16.785156 27.40625 Z M 15.238281 26.941406 C 14.722656 26.902344 14.160156 26.796875 13.917969 26.683594 C 13.394531 26.445312 13.378906 26.066406 13.828125 24.242188 C 14.238281 22.574219 14.683594 21.019531 15.28125 19.207031 C 15.644531 18.101562 16.121094 16.75 16.160156 16.707031 C 16.179688 16.6875 16.207031 16.679688 16.222656 16.6875 C 16.253906 16.707031 16.589844 17.550781 16.886719 18.363281 C 17.617188 20.371094 18.359375 22.730469 19.050781 25.246094 C 19.226562 25.890625 19.199219 26.121094 18.910156 26.394531 C 18.613281 26.671875 17.988281 26.855469 17.0625 26.929688 C 16.753906 26.957031 15.558594 26.960938 15.238281 26.941406 Z M 10.425781 25.179688 C 9.902344 25.035156 9.144531 24.492188 8.289062 23.636719 C 7.5 22.847656 7.03125 22.246094 6.902344 21.859375 C 6.722656 21.332031 7.027344 21.027344 8.777344 19.980469 C 10.238281 19.105469 11.769531 18.273438 13.558594 17.378906 C 14.980469 16.667969 15.597656 16.378906 15.628906 16.410156 C 15.707031 16.488281 14.316406 19.429688 13.285156 21.371094 C 12.8125 22.261719 12.332031 23.136719 11.761719 24.136719 C 11.351562 24.863281 11.214844 25.046875 11.019531 25.144531 C 10.882812 25.214844 10.617188 25.230469 10.425781 25.179688 Z M 21.402344 25.191406 C 21.246094 25.144531 21.066406 24.949219 20.859375 24.589844 C 19.746094 22.699219 17.992188 19.304688 17.167969 17.457031 C 16.746094 16.503906 16.710938 16.414062 16.789062 16.414062 C 16.84375 16.414062 18.46875 17.199219 19.507812 17.730469 C 21.683594 18.839844 23.976562 20.15625 24.902344 20.832031 C 25.179688 21.035156 25.4375 21.304688 25.480469 21.4375 C 25.585938 21.753906 25.332031 22.269531 24.722656 22.976562 C 24.371094 23.382812 23.582031 24.152344 23.238281 24.425781 C 22.453125 25.054688 21.828125 25.3125 21.402344 25.191406 Z M 25.996094 18.820312 C 25.964844 18.8125 25.707031 18.742188 25.414062 18.664062 C 22.6875 17.917969 19.851562 17.003906 17.753906 16.191406 C 17.054688 15.917969 17.015625 15.898438 17.035156 15.847656 C 17.050781 15.808594 17.769531 15.546875 19.207031 15.066406 C 21.105469 14.433594 22.566406 14.003906 24.335938 13.554688 C 25.984375 13.136719 26.578125 13.078125 26.839844 13.308594 C 27.113281 13.550781 27.246094 14.09375 27.304688 15.21875 C 27.367188 16.445312 27.21875 17.675781 26.941406 18.253906 C 26.808594 18.527344 26.597656 18.738281 26.40625 18.796875 C 26.269531 18.839844 26.105469 18.847656 25.996094 18.820312 Z M 5.96875 18.789062 C 5.738281 18.714844 5.558594 18.527344 5.414062 18.222656 C 5.144531 17.640625 5.027344 16.769531 5.054688 15.480469 C 5.085938 14.019531 5.257812 13.378906 5.667969 13.207031 C 5.9375 13.097656 6.324219 13.136719 7.433594 13.394531 C 9.097656 13.777344 11 14.332031 13.195312 15.058594 C 14.851562 15.609375 15.34375 15.789062 15.34375 15.847656 C 15.34375 15.882812 15.222656 15.941406 14.816406 16.101562 C 12.746094 16.921875 10.148438 17.761719 6.972656 18.644531 C 6.425781 18.792969 6.121094 18.839844 5.96875 18.789062 Z M 16.769531 15.253906 C 16.734375 15.199219 18.050781 12.550781 18.777344 11.207031 C 19.714844 9.476562 20.628906 7.910156 21.121094 7.199219 C 21.320312 6.910156 21.609375 6.625 21.777344 6.550781 C 21.957031 6.472656 22.113281 6.496094 22.410156 6.644531 C 22.835938 6.855469 23.394531 7.316406 24.097656 8.035156 C 24.78125 8.734375 25.171875 9.238281 25.402344 9.730469 C 25.589844 10.132812 25.628906 10.351562 25.542969 10.597656 C 25.464844 10.828125 25.296875 10.964844 24.625 11.347656 C 21.835938 12.921875 19.296875 14.214844 17.324219 15.066406 C 17.050781 15.183594 16.820312 15.28125 16.808594 15.28125 C 16.792969 15.28125 16.777344 15.269531 16.769531 15.253906 Z M 14.460938 14.742188 C 11.1875 13.144531 7.691406 11.152344 7.128906 10.570312 C 6.804688 10.238281 6.765625 10.042969 6.949219 9.664062 C 7.292969 8.957031 8.609375 7.566406 9.554688 6.917969 C 10.328125 6.386719 10.867188 6.304688 11.207031 6.667969 C 11.558594 7.039062 13.871094 11.371094 14.859375 13.5 C 15.207031 14.246094 15.621094 15.1875 15.621094 15.226562 C 15.621094 15.292969 15.429688 15.214844 14.460938 14.742188 Z M 16.144531 14.964844 C 16.128906 14.929688 16.019531 14.636719 15.90625 14.308594 C 15.03125 11.828125 14.371094 9.652344 13.839844 7.488281 C 13.570312 6.398438 13.503906 6.011719 13.515625 5.660156 C 13.527344 5.324219 13.582031 5.203125 13.761719 5.078125 C 14.136719 4.820312 15.113281 4.6875 16.386719 4.714844 C 17.761719 4.75 18.636719 4.976562 18.996094 5.386719 C 19.214844 5.636719 19.210938 5.777344 18.941406 6.769531 C 18.457031 8.539062 18.015625 10 17.464844 11.644531 C 16.9375 13.226562 16.28125 14.984375 16.207031 15.011719 C 16.191406 15.015625 16.164062 14.996094 16.144531 14.964844 Z M 16.144531 14.964844 "/>
<path style=" stroke:none;fill-rule:nonzero;fill:rgb(25.098041%,87.843138%,81.568629%);fill-opacity:1;" d="M 15.425781 28.328125 C 13.410156 28.203125 11.484375 27.605469 9.769531 26.574219 C 7.996094 25.511719 6.457031 23.933594 5.414062 22.121094 C 5.199219 21.746094 4.824219 20.964844 4.664062 20.566406 C 3.703125 18.144531 3.53125 15.449219 4.175781 12.925781 C 4.890625 10.128906 6.589844 7.640625 8.957031 5.941406 C 10.535156 4.8125 12.414062 4.050781 14.316406 3.773438 C 15.023438 3.671875 15.398438 3.644531 16.148438 3.644531 C 16.894531 3.644531 17.269531 3.671875 17.976562 3.773438 C 21.308594 4.257812 24.347656 6.148438 26.300781 8.949219 C 26.804688 9.675781 27.316406 10.632812 27.636719 11.445312 C 28.902344 14.652344 28.777344 18.242188 27.289062 21.332031 C 25.386719 25.277344 21.589844 27.910156 17.230469 28.300781 C 16.785156 28.339844 15.847656 28.355469 15.425781 28.328125 Z M 17.285156 27.417969 C 18.167969 27.332031 18.792969 27.128906 19.195312 26.800781 C 19.5625 26.503906 19.738281 26.042969 19.65625 25.59375 C 19.597656 25.289062 19.035156 23.257812 18.652344 21.988281 C 18.566406 21.699219 18.503906 21.457031 18.507812 21.453125 C 18.511719 21.445312 18.535156 21.476562 18.558594 21.519531 C 18.582031 21.558594 18.800781 21.957031 19.039062 22.398438 C 19.277344 22.839844 19.726562 23.640625 20.03125 24.175781 C 20.535156 25.0625 20.605469 25.167969 20.773438 25.339844 C 20.988281 25.554688 21.164062 25.648438 21.457031 25.707031 C 21.640625 25.746094 21.683594 25.746094 21.890625 25.710938 C 22.589844 25.59375 23.394531 25.0625 24.410156 24.042969 C 25.855469 22.597656 26.25 21.839844 25.902344 21.144531 C 25.746094 20.832031 25.398438 20.511719 24.769531 20.113281 C 24.023438 19.636719 22.515625 18.757812 21.453125 18.179688 C 21.230469 18.058594 21.058594 17.957031 21.0625 17.949219 C 21.066406 17.941406 21.324219 18.015625 21.636719 18.113281 C 23.011719 18.535156 25.644531 19.257812 26.003906 19.316406 C 26.65625 19.417969 27.222656 19 27.511719 18.214844 C 27.613281 17.933594 27.710938 17.472656 27.761719 17.046875 C 27.851562 16.277344 27.839844 14.925781 27.734375 14.214844 C 27.597656 13.300781 27.269531 12.816406 26.691406 12.691406 C 26.429688 12.636719 25.863281 12.675781 25.375 12.785156 C 24.285156 13.027344 22.488281 13.503906 21.265625 13.871094 C 20.785156 14.015625 20.800781 14.003906 21.785156 13.492188 C 22.796875 12.960938 24.402344 12.074219 25.277344 11.558594 C 25.867188 11.210938 26.085938 10.886719 26.085938 10.363281 C 26.089844 9.808594 25.765625 9.160156 25.082031 8.332031 C 24.808594 8 23.890625 7.082031 23.542969 6.792969 C 22.785156 6.167969 22.210938 5.921875 21.746094 6.035156 C 21.648438 6.058594 21.503906 6.121094 21.425781 6.167969 C 21.253906 6.269531 20.9375 6.570312 20.792969 6.769531 C 20.417969 7.28125 19.386719 9.023438 18.570312 10.515625 C 18.390625 10.847656 18.238281 11.105469 18.234375 11.089844 C 18.230469 11.074219 18.328125 10.730469 18.457031 10.324219 C 18.929688 8.78125 19.613281 6.316406 19.652344 6 C 19.753906 5.207031 19.152344 4.605469 18.011719 4.367188 C 17.410156 4.242188 17.160156 4.222656 16.066406 4.222656 C 15.226562 4.222656 14.964844 4.230469 14.707031 4.269531 C 14.042969 4.363281 13.621094 4.511719 13.355469 4.75 C 13.089844 4.988281 12.957031 5.421875 12.996094 5.910156 C 13.042969 6.472656 13.546875 8.53125 14.078125 10.324219 C 14.175781 10.652344 14.261719 10.941406 14.269531 10.972656 C 14.300781 11.089844 14.214844 10.945312 13.90625 10.363281 C 13.394531 9.394531 12.777344 8.285156 12.132812 7.160156 C 11.742188 6.484375 11.558594 6.25 11.3125 6.109375 C 10.980469 5.917969 10.535156 5.898438 10.097656 6.050781 C 9.445312 6.285156 8.773438 6.785156 7.835938 7.730469 C 7.265625 8.308594 7 8.613281 6.746094 8.992188 C 6.332031 9.613281 6.238281 10.082031 6.445312 10.503906 C 6.570312 10.753906 6.933594 11.121094 7.308594 11.375 C 8.039062 11.867188 10.347656 13.199219 11.886719 14.015625 C 12.058594 14.105469 12.191406 14.1875 12.175781 14.191406 C 12.160156 14.195312 11.816406 14.097656 11.414062 13.972656 C 9.582031 13.410156 7.300781 12.808594 6.550781 12.683594 C 6.265625 12.636719 5.949219 12.632812 5.722656 12.667969 C 5.230469 12.75 4.863281 13.15625 4.707031 13.804688 C 4.59375 14.269531 4.566406 14.546875 4.554688 15.488281 C 4.53125 17.019531 4.636719 17.785156 4.964844 18.457031 C 5.117188 18.765625 5.347656 19.035156 5.582031 19.175781 C 5.761719 19.285156 6.058594 19.347656 6.273438 19.328125 C 6.601562 19.292969 9.394531 18.515625 11.003906 18.011719 C 11.167969 17.957031 11.316406 17.917969 11.332031 17.925781 C 11.34375 17.925781 11.078125 18.085938 10.738281 18.269531 C 9.496094 18.957031 8.074219 19.792969 7.40625 20.230469 C 6.976562 20.511719 6.601562 20.875 6.472656 21.132812 C 6.136719 21.824219 6.507812 22.578125 7.886719 23.964844 C 8.824219 24.917969 9.574219 25.449219 10.253906 25.65625 C 10.492188 25.730469 10.96875 25.722656 11.164062 25.644531 C 11.355469 25.570312 11.542969 25.425781 11.691406 25.238281 C 11.878906 25.003906 13.144531 22.761719 13.972656 21.191406 C 14.140625 20.867188 14.285156 20.605469 14.292969 20.613281 C 14.300781 20.621094 14.203125 20.972656 14.082031 21.402344 C 13.449219 23.5625 13.042969 25.214844 12.996094 25.785156 C 12.972656 26.078125 13.019531 26.40625 13.113281 26.605469 C 13.269531 26.925781 13.625 27.175781 14.101562 27.300781 C 14.765625 27.472656 16.207031 27.523438 17.285156 27.417969 Z M 15.066406 26.878906 C 14.265625 26.800781 13.796875 26.648438 13.648438 26.425781 C 13.582031 26.324219 13.574219 26.292969 13.566406 25.996094 C 13.558594 25.714844 13.566406 25.628906 13.652344 25.214844 C 13.878906 24.105469 14.394531 22.191406 14.917969 20.496094 C 15.265625 19.375 16.136719 16.808594 16.183594 16.761719 C 16.191406 16.753906 16.207031 16.753906 16.210938 16.761719 C 16.234375 16.785156 16.671875 17.910156 16.898438 18.535156 C 17.191406 19.34375 17.792969 21.140625 18.085938 22.09375 C 18.554688 23.621094 19.097656 25.539062 19.121094 25.753906 C 19.175781 26.332031 18.664062 26.671875 17.484375 26.839844 C 17.144531 26.890625 15.445312 26.917969 15.066406 26.878906 Z M 10.417969 25.125 C 9.832031 24.964844 8.941406 24.285156 8.003906 23.285156 C 7.449219 22.695312 7.160156 22.316406 6.988281 21.949219 C 6.832031 21.621094 6.886719 21.40625 7.203125 21.082031 C 7.558594 20.726562 9.5 19.5625 11.785156 18.339844 C 12.863281 17.761719 15.515625 16.453125 15.566406 16.472656 C 15.59375 16.480469 15.328125 17.105469 14.949219 17.929688 C 14.625 18.636719 13.636719 20.621094 13.191406 21.449219 C 12.347656 23.035156 11.355469 24.785156 11.21875 24.9375 C 11.03125 25.144531 10.738281 25.214844 10.417969 25.125 Z M 21.394531 25.136719 C 21.1875 25.050781 21.101562 24.933594 20.582031 24.019531 C 19.1875 21.539062 17.90625 19.019531 17.050781 17.074219 C 16.824219 16.550781 16.789062 16.464844 16.816406 16.464844 C 16.851562 16.464844 18.640625 17.339844 19.480469 17.769531 C 20.957031 18.519531 22.144531 19.171875 23.46875 19.964844 C 24.789062 20.757812 25.269531 21.109375 25.417969 21.40625 C 25.519531 21.601562 25.410156 21.972656 25.113281 22.410156 C 24.683594 23.046875 23.613281 24.121094 22.902344 24.628906 C 22.613281 24.835938 22.167969 25.070312 21.957031 25.125 C 21.777344 25.167969 21.496094 25.175781 21.394531 25.136719 Z M 25.414062 18.617188 C 22.875 17.917969 20.273438 17.089844 18.386719 16.378906 C 17.339844 15.984375 17.089844 15.882812 17.117188 15.855469 C 17.160156 15.808594 18.824219 15.234375 20.035156 14.839844 C 21.875 14.246094 24.199219 13.601562 25.507812 13.324219 C 25.847656 13.253906 25.972656 13.238281 26.269531 13.238281 C 26.574219 13.238281 26.644531 13.246094 26.734375 13.289062 C 27.09375 13.472656 27.257812 14.246094 27.257812 15.769531 C 27.257812 16.847656 27.175781 17.488281 26.980469 18.042969 C 26.792969 18.550781 26.53125 18.789062 26.15625 18.785156 C 26.074219 18.785156 25.777344 18.714844 25.414062 18.617188 Z M 5.878906 18.699219 C 5.527344 18.535156 5.296875 18.011719 5.160156 17.074219 C 5.105469 16.6875 5.082031 15.324219 5.125 14.816406 C 5.191406 13.980469 5.335938 13.484375 5.558594 13.308594 C 5.738281 13.167969 6.148438 13.167969 6.8125 13.300781 C 8.496094 13.644531 11.535156 14.523438 14.066406 15.402344 C 14.59375 15.582031 15.082031 15.753906 15.144531 15.773438 C 15.210938 15.796875 15.273438 15.824219 15.285156 15.832031 C 15.308594 15.855469 15.121094 15.9375 14.492188 16.179688 C 12.449219 16.964844 9.558594 17.890625 6.890625 18.613281 C 6.269531 18.785156 6.09375 18.796875 5.878906 18.699219 Z M 16.832031 15.199219 C 16.832031 15.121094 17.984375 12.800781 18.589844 11.65625 C 19.503906 9.921875 20.707031 7.855469 21.199219 7.160156 C 21.511719 6.726562 21.777344 6.535156 22.042969 6.5625 C 22.398438 6.597656 23.019531 7.035156 23.828125 7.820312 C 24.648438 8.613281 25.210938 9.34375 25.441406 9.917969 C 25.507812 10.070312 25.519531 10.136719 25.519531 10.339844 C 25.519531 10.753906 25.457031 10.816406 24.503906 11.359375 C 21.808594 12.882812 19.011719 14.304688 17.175781 15.082031 C 17.082031 15.121094 16.964844 15.171875 16.917969 15.191406 C 16.863281 15.214844 16.832031 15.21875 16.832031 15.199219 Z M 14.488281 14.703125 C 11.972656 13.480469 9.183594 11.945312 7.75 10.996094 C 7.113281 10.574219 6.890625 10.328125 6.894531 10.042969 C 6.894531 9.648438 7.40625 8.933594 8.351562 8 C 9.335938 7.023438 10.144531 6.503906 10.675781 6.503906 C 11.074219 6.503906 11.164062 6.589844 11.628906 7.410156 C 13.1875 10.160156 14.5 12.734375 15.339844 14.679688 C 15.535156 15.132812 15.558594 15.203125 15.519531 15.199219 C 15.511719 15.199219 15.042969 14.976562 14.488281 14.703125 Z M 16.015625 14.480469 C 15.769531 13.804688 15.042969 11.609375 14.832031 10.917969 C 14.332031 9.265625 13.839844 7.414062 13.644531 6.425781 C 13.582031 6.128906 13.5625 5.949219 13.5625 5.738281 C 13.5625 5.414062 13.589844 5.3125 13.707031 5.191406 C 13.96875 4.910156 14.792969 4.761719 16.097656 4.761719 C 17.546875 4.761719 18.535156 4.980469 18.933594 5.386719 C 19.167969 5.628906 19.160156 5.800781 18.855469 6.910156 C 18.039062 9.855469 17.214844 12.386719 16.394531 14.480469 C 16.300781 14.730469 16.210938 14.9375 16.199219 14.9375 C 16.1875 14.9375 16.105469 14.730469 16.015625 14.480469 Z M 16.015625 14.480469 "/>
</g>
</svg>
