
<svg xmlns="http://www.w3.org/2000/svg" xmlns:xlink="http://www.w3.org/1999/xlink" width="32px" height="32px" viewBox="0 0 32 32" version="1.1">
<g id="surface1">
<path style="fill-rule:nonzero;fill:rgb(100%,100%,100%);fill-opacity:1;stroke-width:27.746531;stroke-linecap:butt;stroke-linejoin:miter;stroke:rgb(29.019609%,68.235296%,90.980393%);stroke-opacity:1;stroke-miterlimit:4;" d="M 84.25 28.75 L 427.75 28.75 C 458.4375 28.75 483.25 53.5625 483.25 84.25 L 483.25 427.75 C 483.25 458.4375 458.4375 483.25 427.75 483.25 L 84.25 483.25 C 53.5625 483.25 28.75 458.4375 28.75 427.75 L 28.75 84.25 C 28.75 53.5625 53.5625 28.75 84.25 28.75 Z M 84.25 28.75 " transform="matrix(0.0625,0,0,0.0625,0,0)"/>
<path style="fill-rule:evenodd;fill:rgb(29.019609%,68.235296%,90.980393%);fill-opacity:0.529412;stroke-width:16.45529;stroke-linecap:butt;stroke-linejoin:round;stroke:rgb(29.019609%,68.235296%,90.980393%);stroke-opacity:1;stroke-miterlimit:4;" d="M 209 146.4375 C 162.625 146.4375 125.0625 178.3125 125.0625 217.6875 C 125.0625 223.3125 125.875 228.875 127.4375 234.3125 C 126.6875 234.3125 125.875 234.25 125.0625 234.1875 C 88.8125 234.1875 59.4375 263.625 59.4375 299.9375 C 59.4375 336.1875 88.8125 365.5625 125.0625 365.5625 L 386.9375 365.5625 C 423.1875 365.5625 452.5625 336.1875 452.5625 299.9375 C 452.5625 263.625 423.1875 234.1875 386.9375 234.1875 C 385.375 234.1875 383.8125 234.3125 382.3125 234.375 C 384.375 228.3125 385.4375 221.9375 385.4375 215.5 C 385.4375 183.125 359.1875 156.875 326.8125 156.875 C 308.5625 156.9375 291.3125 165.5 280.25 180.0625 C 264.9375 159.1875 238 146.4375 209 146.4375 Z M 209 146.4375 " transform="matrix(0.0625,0,0,0.0625,0,0)"/>
</g>
</svg>
