
<svg xmlns="http://www.w3.org/2000/svg" xmlns:xlink="http://www.w3.org/1999/xlink" width="32px" height="32px" viewBox="0 0 32 32" version="1.1">
<g id="surface1">
<path style="fill-rule:nonzero;fill:rgb(82.352942%,16.862746%,15.294118%);fill-opacity:1;stroke-width:28.097435;stroke-linecap:butt;stroke-linejoin:miter;stroke:rgb(27.843139%,27.450982%,27.450982%);stroke-opacity:1;stroke-miterlimit:4;" d="M 82.598471 26.363879 L 430.40128 26.363879 C 461.461812 26.363879 486.635872 51.537939 486.635872 82.598471 L 486.635872 430.40128 C 486.635872 461.461812 461.461812 486.635872 430.40128 486.635872 L 82.598471 486.635872 C 51.537939 486.635872 26.363879 461.461812 26.363879 430.40128 L 26.363879 82.598471 C 26.363879 51.537939 51.537939 26.363879 82.598471 26.363879 Z M 82.598471 26.363879 " transform="matrix(0.0623782,0,0,0.0623782,0,0)"/>
<path style=" stroke:none;fill-rule:nonzero;fill:rgb(27.843139%,27.450982%,27.450982%);fill-opacity:1;" d="M 2.207031 1.839844 L 2.207031 29.796875 L 6.207031 29.796875 L 6.207031 1.839844 Z M 2.207031 1.839844 "/>
<path style=" stroke:none;fill-rule:evenodd;fill:rgb(57.647061%,67.450982%,61.56863%);fill-opacity:1;" d="M 9.550781 23.933594 C 9.433594 23.886719 10.757812 20.003906 13.425781 12.589844 C 15.050781 8.066406 15.03125 8.117188 15.183594 8.066406 C 15.421875 7.992188 18.566406 8.019531 18.714844 8.097656 C 18.808594 8.148438 19 8.566406 19.339844 9.480469 C 20.269531 11.996094 23.136719 20.179688 23.949219 22.664062 L 24.355469 23.894531 L 24.113281 23.933594 C 23.800781 23.988281 21.199219 23.988281 21.011719 23.9375 C 20.894531 23.90625 20.777344 23.632812 20.347656 22.363281 L 19.832031 20.824219 L 14.050781 20.824219 L 13.507812 22.402344 L 12.964844 23.976562 L 11.296875 23.972656 C 10.378906 23.96875 9.59375 23.953125 9.550781 23.933594 Z M 18.78125 17.796875 C 18.878906 17.699219 17.066406 12.097656 16.953125 12.136719 C 16.886719 12.15625 15.085938 17.542969 15.085938 17.71875 C 15.085938 17.761719 15.136719 17.8125 15.203125 17.832031 C 15.386719 17.878906 18.730469 17.847656 18.78125 17.796875 Z M 18.78125 17.796875 "/>
</g>
</svg>
