
<svg xmlns="http://www.w3.org/2000/svg" xmlns:xlink="http://www.w3.org/1999/xlink" width="32px" height="32px" viewBox="0 0 32 32" version="1.1">
<g id="surface1">
<path style="fill-rule:nonzero;fill:rgb(100%,100%,100%);fill-opacity:1;stroke-width:26.401737;stroke-linecap:butt;stroke-linejoin:miter;stroke:rgb(18.82353%,27.843139%,32.941177%);stroke-opacity:1;stroke-miterlimit:4;" d="M -48.442006 -16.621333 L 278.432994 -16.621333 C 307.620494 -16.621333 331.245494 7.003667 331.245494 36.128667 L 331.245494 363.003667 C 331.245494 392.191167 307.620494 415.816167 278.432994 415.816167 L -48.442006 415.816167 C -77.629506 415.816167 -101.254506 392.191167 -101.254506 363.003667 L -101.254506 36.128667 C -101.254506 7.003667 -77.629506 -16.621333 -48.442006 -16.621333 Z M -48.442006 -16.621333 " transform="matrix(0.0625,0,0,0.0625,9.019813,3.683365)"/>
<path style=" stroke:none;fill-rule:nonzero;fill:rgb(100%,78.039217%,18.82353%);fill-opacity:1;" d="M 5.992188 2.644531 C 5.730469 2.644531 5.476562 2.675781 5.230469 2.730469 L 11.667969 13.535156 L 11.664062 13.53125 C 11.367188 14.148438 11.097656 14.769531 11.019531 15.417969 C 10.917969 16.214844 10.984375 17.007812 11.1875 17.769531 C 11.390625 18.535156 11.746094 19.277344 12.230469 19.917969 C 12.714844 20.5625 13.339844 21.105469 14.074219 21.527344 C 14.917969 22.019531 15.824219 22.292969 16.730469 22.347656 C 17.640625 22.410156 18.484375 21.820312 19.324219 21.492188 L 14.785156 29.671875 L 26.421875 29.671875 C 28.246094 29.671875 29.722656 28.195312 29.722656 26.371094 L 29.722656 5.941406 C 29.722656 4.121094 28.246094 2.644531 26.421875 2.644531 Z M 5.992188 2.644531 "/>
<path style=" stroke:none;fill-rule:nonzero;fill:rgb(83.137256%,9.803922%,9.803922%);fill-opacity:1;" d="M 5.992188 2.644531 C 4.167969 2.644531 2.691406 4.121094 2.691406 5.941406 L 2.691406 26.371094 C 2.691406 28.195312 4.167969 29.671875 5.992188 29.671875 L 11.730469 29.671875 L 15.984375 22.269531 L 15.984375 22.296875 C 16.667969 22.238281 17.335938 22.164062 17.941406 21.910156 C 18.675781 21.59375 19.332031 21.140625 19.890625 20.582031 C 20.449219 20.007812 20.917969 19.332031 21.230469 18.589844 C 21.542969 17.863281 21.703125 17.039062 21.703125 16.1875 C 21.703125 15.214844 21.488281 14.300781 21.089844 13.484375 C 20.683594 12.65625 20.039062 11.917969 19.332031 11.351562 L 29.722656 11.351562 L 29.722656 5.941406 C 29.722656 4.121094 28.246094 2.644531 26.421875 2.644531 Z M 5.992188 2.644531 "/>
<path style=" stroke:none;fill-rule:nonzero;fill:rgb(4.705882%,63.137257%,36.862746%);fill-opacity:1;" d="M 3.503906 3.773438 C 2.996094 4.355469 2.691406 5.113281 2.691406 5.941406 L 2.691406 26.371094 C 2.691406 28.195312 4.167969 29.671875 5.992188 29.671875 L 14.785156 29.671875 L 19.480469 21.402344 C 18.636719 21.726562 17.738281 22.144531 16.730469 22.347656 C 15.824219 22.292969 14.917969 22.019531 14.074219 21.527344 C 13.339844 21.105469 12.714844 20.5625 12.230469 19.917969 C 11.746094 19.277344 11.390625 18.535156 11.1875 17.769531 C 10.984375 17.007812 10.917969 16.214844 11.019531 15.417969 C 11.097656 14.769531 11.367188 14.148438 11.664062 13.53125 L 11.667969 13.535156 L 11.109375 12.597656 C 11.097656 12.617188 11.082031 12.636719 11.074219 12.652344 C 10.566406 13.410156 10.246094 14.269531 10.105469 15.164062 Z M 3.503906 3.773438 "/>
<path style=" stroke:none;fill-rule:nonzero;fill:rgb(97.254902%,97.254902%,97.254902%);fill-opacity:1;" d="M 22.386719 16.160156 C 22.386719 19.574219 19.617188 22.335938 16.207031 22.335938 C 12.792969 22.335938 10.027344 19.570312 10.027344 16.160156 C 10.027344 12.746094 12.792969 9.980469 16.207031 9.980469 C 19.621094 9.980469 22.386719 12.746094 22.386719 16.160156 M 22.386719 16.160156 "/>
<path style=" stroke:none;fill-rule:nonzero;fill:rgb(22.745098%,49.019608%,89.019608%);fill-opacity:1;" d="M 21.011719 16.160156 C 21.011719 18.8125 18.863281 20.964844 16.207031 20.964844 C 13.550781 20.964844 11.402344 18.8125 11.402344 16.160156 C 11.402344 13.503906 13.550781 11.351562 16.207031 11.351562 C 18.863281 11.351562 21.011719 13.503906 21.011719 16.160156 M 21.011719 16.160156 "/>
<path style=" stroke:none;fill-rule:nonzero;fill:rgb(23.921569%,23.921569%,24.705882%);fill-opacity:1;" d="M 29.347656 29.292969 C 29.382812 29.230469 29.632812 28.886719 29.902344 28.53125 C 30.171875 28.175781 30.390625 27.816406 30.390625 27.738281 C 30.390625 27.605469 30.0625 27.597656 26.417969 27.597656 C 24.230469 27.597656 22.425781 27.613281 22.402344 27.636719 C 22.335938 27.703125 13.875 27.789062 13.59375 27.722656 L 13.335938 27.667969 L 13.355469 23.757812 L 13.378906 19.851562 L 22.863281 19.832031 L 32.34375 19.8125 L 32.320312 23.769531 C 32.308594 26.335938 32.269531 27.722656 32.214844 27.722656 C 32.167969 27.722656 31.519531 28.097656 30.777344 28.558594 C 29.433594 29.394531 29.214844 29.503906 29.347656 29.292969 Z M 29.347656 29.292969 "/>
<path style=" stroke:none;fill-rule:nonzero;fill:rgb(100%,100%,100%);fill-opacity:1;" d="M 18.347656 25.824219 C 18.507812 25.730469 18.722656 25.519531 18.832031 25.363281 C 19.144531 24.890625 19.054688 24.074219 18.652344 23.734375 C 18.542969 23.644531 18.550781 23.589844 18.738281 23.3125 C 19.117188 22.75 18.902344 22.007812 18.253906 21.621094 C 18.027344 21.488281 17.761719 21.449219 16.957031 21.417969 C 16.042969 21.386719 15.925781 21.398438 15.824219 21.539062 C 15.738281 21.660156 15.714844 22.171875 15.714844 23.738281 C 15.714844 25.535156 15.730469 25.792969 15.855469 25.921875 C 16.074219 26.144531 17.929688 26.070312 18.347656 25.824219 Z M 18.347656 25.824219 "/>
<path style=" stroke:none;fill-rule:nonzero;fill:rgb(23.921569%,23.921569%,24.705882%);fill-opacity:1;" d="M 16.792969 25.136719 C 16.761719 25.101562 16.730469 24.847656 16.730469 24.570312 L 16.730469 24.070312 L 17.179688 24.070312 C 17.753906 24.070312 18.003906 24.238281 18.003906 24.621094 C 18.003906 24.78125 17.949219 24.953125 17.882812 25.011719 C 17.738281 25.132812 16.886719 25.234375 16.792969 25.136719 Z M 16.792969 25.136719 "/>
<path style=" stroke:none;fill-rule:nonzero;fill:rgb(23.921569%,23.921569%,24.705882%);fill-opacity:1;" d="M 16.730469 22.777344 L 16.730469 22.347656 L 17.222656 22.347656 C 17.753906 22.347656 17.917969 22.445312 17.917969 22.746094 C 17.917969 23.070312 17.699219 23.207031 17.191406 23.207031 L 16.730469 23.207031 Z M 16.730469 22.777344 "/>
<path style=" stroke:none;fill-rule:nonzero;fill:rgb(100%,100%,100%);fill-opacity:1;" d="M 22.3125 25.992188 C 22.480469 25.945312 22.503906 25.894531 22.484375 25.585938 L 22.457031 25.230469 L 20.503906 25.144531 L 20.503906 24.113281 L 21.308594 24.089844 C 22.15625 24.0625 22.242188 24.019531 22.246094 23.636719 C 22.246094 23.269531 22.105469 23.207031 21.253906 23.207031 L 20.464844 23.207031 L 20.464844 22.347656 L 21.316406 22.347656 C 22.324219 22.347656 22.5 22.28125 22.5 21.890625 C 22.5 21.425781 22.425781 21.402344 20.957031 21.402344 C 19.703125 21.402344 19.613281 21.414062 19.527344 21.578125 C 19.46875 21.691406 19.445312 22.449219 19.464844 23.816406 C 19.484375 25.539062 19.507812 25.894531 19.613281 25.964844 C 19.753906 26.050781 22 26.078125 22.3125 25.992188 Z M 22.3125 25.992188 "/>
<path style=" stroke:none;fill-rule:nonzero;fill:rgb(100%,100%,100%);fill-opacity:1;" d="M 24.796875 25.957031 C 24.949219 25.875 24.960938 25.761719 24.960938 24.109375 L 24.960938 22.347656 L 25.40625 22.347656 C 25.652344 22.347656 25.933594 22.324219 26.035156 22.296875 C 26.253906 22.238281 26.347656 21.925781 26.234375 21.625 L 26.152344 21.402344 L 24.519531 21.40625 C 23.617188 21.40625 22.832031 21.441406 22.769531 21.480469 C 22.652344 21.554688 22.605469 22.140625 22.707031 22.246094 C 22.738281 22.277344 23.027344 22.316406 23.351562 22.335938 L 23.941406 22.371094 L 23.941406 24.117188 C 23.941406 25.691406 23.957031 25.875 24.089844 25.957031 C 24.285156 26.066406 24.589844 26.070312 24.796875 25.957031 Z M 24.796875 25.957031 "/>
<path style=" stroke:none;fill-rule:nonzero;fill:rgb(100%,100%,100%);fill-opacity:1;" d="M 26.652344 25.964844 C 26.738281 25.917969 26.878906 25.683594 26.964844 25.445312 L 27.117188 25.011719 L 27.878906 25.035156 L 28.636719 25.058594 L 28.773438 25.472656 C 28.921875 25.925781 29.050781 26.042969 29.386719 26.046875 C 29.699219 26.046875 29.878906 25.964844 29.878906 25.820312 C 29.878906 25.617188 28.339844 21.535156 28.238281 21.46875 C 28.078125 21.363281 27.609375 21.394531 27.484375 21.523438 C 27.421875 21.589844 27.011719 22.582031 26.582031 23.730469 C 25.84375 25.6875 25.800781 25.832031 25.945312 25.933594 C 26.125 26.066406 26.4375 26.082031 26.652344 25.964844 Z M 26.652344 25.964844 "/>
<path style=" stroke:none;fill-rule:nonzero;fill:rgb(23.921569%,23.921569%,24.705882%);fill-opacity:1;" d="M 27.488281 24.109375 C 27.460938 24.082031 27.511719 23.859375 27.605469 23.613281 C 27.691406 23.367188 27.789062 23.109375 27.8125 23.035156 C 27.851562 22.929688 28.261719 23.878906 28.269531 24.089844 C 28.269531 24.164062 27.558594 24.179688 27.488281 24.109375 Z M 27.488281 24.109375 "/>
</g>
</svg>
