
<svg xmlns="http://www.w3.org/2000/svg" xmlns:xlink="http://www.w3.org/1999/xlink" width="32px" height="32px" viewBox="0 0 32 32" version="1.1">
<g id="surface1">
<path style="fill-rule:nonzero;fill:rgb(92.54902%,92.54902%,92.54902%);fill-opacity:1;stroke-width:19.928898;stroke-linecap:butt;stroke-linejoin:miter;stroke:rgb(29.019609%,68.235296%,90.980393%);stroke-opacity:1;stroke-miterlimit:4;" d="M 56.64565 16.787152 L 303.355256 16.787152 C 325.371913 16.787152 343.213755 34.628993 343.213755 56.64565 L 343.213755 303.355256 C 343.213755 325.371913 325.371913 343.213755 303.355256 343.213755 L 56.64565 343.213755 C 34.628993 343.213755 16.787152 325.371913 16.787152 303.355256 L 16.787152 56.64565 C 16.787152 34.628993 34.628993 16.787152 56.64565 16.787152 Z M 56.64565 16.787152 " transform="matrix(0.0888887,0,0,0.0888887,0,0)"/>
<path style=" stroke:none;fill-rule:evenodd;fill:rgb(12.941177%,52.156866%,97.254902%);fill-opacity:1;" d="M 7.425781 3.886719 C 6.832031 3.886719 6.347656 4.371094 6.347656 4.964844 L 6.347656 27.167969 C 6.347656 27.761719 6.832031 28.242188 7.425781 28.242188 L 25.527344 28.242188 C 26.125 28.242188 26.605469 27.761719 26.605469 27.167969 L 26.605469 9.789062 L 25.96875 9.160156 L 22.535156 5.753906 L 20.652344 3.890625 L 20.652344 3.886719 Z M 7.425781 3.886719 "/>
<path style=" stroke:none;fill-rule:nonzero;fill:rgb(60.784316%,77.254903%,100%);fill-opacity:1;" d="M 20.648438 9.777344 L 26.605469 9.785156 L 20.652344 3.886719 Z M 20.648438 9.777344 "/>
<path style=" stroke:none;fill-rule:nonzero;fill:rgb(100%,100%,100%);fill-opacity:1;" d="M 9.542969 11.910156 L 23.328125 11.910156 L 23.328125 13.210938 L 9.542969 13.210938 Z M 9.542969 11.910156 "/>
<path style=" stroke:none;fill-rule:nonzero;fill:rgb(100%,100%,100%);fill-opacity:1;" d="M 9.542969 15.085938 L 23.332031 15.085938 L 23.332031 16.390625 L 9.542969 16.390625 Z M 9.542969 15.085938 "/>
<path style=" stroke:none;fill-rule:nonzero;fill:rgb(100%,100%,100%);fill-opacity:1;" d="M 9.542969 18.269531 L 23.332031 18.269531 L 23.332031 19.570312 L 9.542969 19.570312 Z M 9.542969 18.269531 "/>
<path style=" stroke:none;fill-rule:nonzero;fill:rgb(100%,100%,100%);fill-opacity:1;" d="M 9.542969 21.496094 L 17.035156 21.496094 L 17.035156 22.796875 L 9.542969 22.796875 Z M 9.542969 21.496094 "/>
<path style=" stroke:none;fill-rule:nonzero;fill:rgb(10.980392%,41.960785%,74.901962%);fill-opacity:0.792157;" d="M 26.605469 9.785156 L 26.605469 15.734375 L 20.648438 9.777344 Z M 26.605469 9.785156 "/>
</g>
</svg>
