
<svg xmlns="http://www.w3.org/2000/svg" xmlns:xlink="http://www.w3.org/1999/xlink" width="32px" height="32px" viewBox="0 0 32 32" version="1.1">
<g id="surface1">
<path style="fill-rule:nonzero;fill:rgb(100%,100%,100%);fill-opacity:1;stroke-width:26.401737;stroke-linecap:butt;stroke-linejoin:miter;stroke:rgb(18.82353%,27.843139%,32.941177%);stroke-opacity:1;stroke-miterlimit:4;" d="M -48.454437 -16.656784 L 278.420563 -16.656784 C 307.545563 -16.656784 331.233063 7.030716 331.233063 36.155716 L 331.233063 363.030716 C 331.233063 392.155716 307.545563 415.843216 278.420563 415.843216 L -48.454437 415.843216 C -77.579437 415.843216 -101.266937 392.155716 -101.266937 363.030716 L -101.266937 36.155716 C -101.266937 7.030716 -77.579437 -16.656784 -48.454437 -16.656784 Z M -48.454437 -16.656784 " transform="matrix(0.0625,0,0,0.0625,8.813559,3.525424)"/>
<path style=" stroke:none;fill-rule:nonzero;fill:rgb(100%,78.039217%,18.82353%);fill-opacity:1;" d="M 5.785156 2.484375 C 5.523438 2.484375 5.269531 2.515625 5.027344 2.574219 L 11.460938 13.378906 L 11.457031 13.375 C 11.160156 13.988281 10.894531 14.609375 10.8125 15.261719 C 10.710938 16.054688 10.777344 16.847656 10.980469 17.613281 C 11.183594 18.375 11.539062 19.121094 12.023438 19.761719 C 12.507812 20.402344 13.132812 20.945312 13.871094 21.371094 C 14.710938 21.859375 15.613281 22.132812 16.523438 22.191406 C 17.433594 22.25 18.277344 21.660156 19.121094 21.335938 L 14.582031 29.515625 L 26.214844 29.515625 C 28.035156 29.515625 29.515625 28.035156 29.515625 26.214844 L 29.515625 5.785156 C 29.515625 3.964844 28.035156 2.484375 26.214844 2.484375 Z M 5.785156 2.484375 "/>
<path style=" stroke:none;fill-rule:nonzero;fill:rgb(83.137256%,9.803922%,9.803922%);fill-opacity:1;" d="M 5.785156 2.484375 C 3.964844 2.484375 2.484375 3.964844 2.484375 5.785156 L 2.484375 26.214844 C 2.484375 28.035156 3.964844 29.515625 5.785156 29.515625 L 11.523438 29.515625 L 15.777344 22.109375 L 15.777344 22.136719 C 16.457031 22.082031 17.128906 22.007812 17.730469 21.753906 C 18.472656 21.433594 19.128906 20.980469 19.683594 20.421875 C 20.246094 19.851562 20.714844 19.171875 21.027344 18.433594 C 21.339844 17.707031 21.496094 16.882812 21.496094 16.027344 C 21.496094 15.058594 21.285156 14.140625 20.878906 13.324219 C 20.476562 12.496094 19.832031 11.761719 19.128906 11.195312 L 29.515625 11.195312 L 29.515625 5.785156 C 29.515625 3.964844 28.035156 2.484375 26.214844 2.484375 Z M 5.785156 2.484375 "/>
<path style=" stroke:none;fill-rule:nonzero;fill:rgb(4.705882%,63.137257%,36.862746%);fill-opacity:1;" d="M 3.300781 3.617188 C 2.792969 4.199219 2.484375 4.957031 2.484375 5.785156 L 2.484375 26.214844 C 2.484375 28.035156 3.964844 29.515625 5.785156 29.515625 L 14.582031 29.515625 L 19.273438 21.242188 C 18.429688 21.570312 17.535156 21.988281 16.523438 22.191406 C 15.613281 22.132812 14.710938 21.859375 13.871094 21.371094 C 13.132812 20.945312 12.507812 20.402344 12.023438 19.761719 C 11.539062 19.121094 11.183594 18.375 10.980469 17.613281 C 10.777344 16.847656 10.710938 16.054688 10.8125 15.261719 C 10.894531 14.609375 11.160156 13.988281 11.457031 13.375 L 11.460938 13.378906 L 10.902344 12.441406 C 10.890625 12.457031 10.878906 12.476562 10.867188 12.496094 C 10.363281 13.25 10.042969 14.113281 9.902344 15.003906 Z M 3.300781 3.617188 "/>
<path style=" stroke:none;fill-rule:nonzero;fill:rgb(97.254902%,97.254902%,97.254902%);fill-opacity:1;" d="M 22.179688 16 C 22.179688 19.414062 19.410156 22.179688 16 22.179688 C 12.589844 22.179688 9.820312 19.410156 9.820312 16 C 9.820312 12.589844 12.589844 9.820312 16 9.820312 C 19.414062 9.820312 22.179688 12.589844 22.179688 16 M 22.179688 16 "/>
<path style=" stroke:none;fill-rule:nonzero;fill:rgb(22.745098%,49.019608%,89.019608%);fill-opacity:1;" d="M 20.804688 16 C 20.804688 18.652344 18.652344 20.804688 16 20.804688 C 13.347656 20.804688 11.195312 18.652344 11.195312 16 C 11.195312 13.347656 13.347656 11.195312 16 11.195312 C 18.652344 11.195312 20.804688 13.347656 20.804688 16 M 20.804688 16 "/>
</g>
</svg>
