
<svg xmlns="http://www.w3.org/2000/svg" xmlns:xlink="http://www.w3.org/1999/xlink" width="32px" height="32px" viewBox="0 0 32 32" version="1.1">
<g id="surface1">
<path style="fill-rule:nonzero;fill:rgb(21.176471%,48.235294%,94.117647%);fill-opacity:1;stroke-width:28.280033;stroke-linecap:butt;stroke-linejoin:miter;stroke:rgb(29.019609%,68.235296%,90.980393%);stroke-opacity:1;stroke-miterlimit:4;" d="M 80.9375 24.375 L 431.0625 24.375 C 462.3125 24.375 487.625 49.6875 487.625 80.9375 L 487.625 431.0625 C 487.625 462.3125 462.3125 487.625 431.0625 487.625 L 80.9375 487.625 C 49.6875 487.625 24.375 462.3125 24.375 431.0625 L 24.375 80.9375 C 24.375 49.6875 49.6875 24.375 80.9375 24.375 Z M 80.9375 24.375 " transform="matrix(0.0625,0,0,0.0625,0,0)"/>
<path style=" stroke:none;fill-rule:nonzero;fill:rgb(100%,100%,100%);fill-opacity:1;" d="M 28.371094 16 C 28.371094 22.832031 22.832031 28.371094 16 28.371094 C 9.167969 28.371094 3.628906 22.832031 3.628906 16 C 3.628906 9.167969 9.167969 3.628906 16 3.628906 C 22.832031 3.628906 28.371094 9.167969 28.371094 16 Z M 28.371094 16 "/>
<path style=" stroke:none;fill-rule:nonzero;fill:rgb(21.176471%,48.235294%,94.117647%);fill-opacity:1;" d="M 14.375 28.464844 C 11.707031 28.113281 9.230469 26.863281 7.238281 24.867188 C 5.488281 23.113281 4.363281 21.050781 3.78125 18.535156 C 3.652344 17.972656 3.425781 17.074219 3.429688 15.621094 C 3.433594 13.90625 3.617188 13.488281 3.875 12.664062 C 5.023438 9 7.128906 6.445312 10.398438 4.769531 C 13.324219 3.269531 16.921875 3.011719 20.070312 4.074219 C 23.089844 5.089844 25.832031 7.496094 27.269531 10.386719 C 29.660156 15.199219 28.699219 21.011719 24.871094 24.871094 C 22.113281 27.644531 18.238281 28.972656 14.375 28.464844 Z M 10.851562 26.660156 C 10.832031 26.582031 10.792969 26.308594 10.761719 26.046875 C 10.710938 25.617188 10.734375 25.546875 11.011719 25.269531 C 11.410156 24.871094 11.761719 24.871094 13.433594 25.265625 C 14.140625 25.433594 15.179688 25.640625 15.742188 25.730469 C 17.019531 25.933594 20.128906 25.957031 21.253906 25.777344 C 22.175781 25.628906 23.707031 25.214844 24.105469 25.007812 C 24.535156 24.785156 25.996094 23.027344 25.863281 22.894531 C 25.832031 22.863281 25.339844 22.949219 24.777344 23.09375 C 22.832031 23.582031 21.914062 23.121094 20.007812 23.0625 C 16.714844 22.960938 14.003906 22.265625 9.566406 20.378906 C 6.910156 19.246094 6.253906 19.722656 5.582031 20.394531 C 5.082031 20.902344 5.066406 21.140625 5.496094 21.929688 C 6.480469 23.726562 8.128906 25.425781 9.914062 26.472656 C 10.578125 26.867188 10.910156 26.933594 10.851562 26.660156 Z M 27.589844 19.527344 C 27.644531 19.402344 27.753906 18.988281 27.832031 18.601562 C 27.964844 17.960938 27.964844 17.886719 27.816406 17.773438 C 27.722656 17.707031 27.589844 17.648438 27.515625 17.648438 C 27.238281 17.648438 25.652344 16.925781 24.804688 16.410156 C 23.171875 15.421875 21.113281 13.746094 18.214844 11.042969 C 15.359375 8.378906 14.503906 7.695312 13.410156 7.183594 C 12.105469 6.582031 10.371094 6.476562 8.636719 6.894531 C 7.996094 7.050781 7.824219 7.140625 7.4375 7.527344 C 6.550781 8.410156 5.722656 9.582031 5.191406 10.683594 C 4.332031 12.46875 4.371094 13.742188 5.449219 12.820312 C 6.273438 12.121094 7.089844 12.039062 7.917969 11.898438 C 8.453125 11.804688 9.253906 11.929688 9.894531 12.070312 C 11.214844 12.367188 12.152344 13.332031 15.570312 15.765625 C 19.4375 18.523438 20.125 18.519531 22.761719 19.574219 C 23.898438 20.027344 26.832031 19.738281 27.269531 19.746094 C 27.410156 19.75 27.53125 19.667969 27.589844 19.527344 Z M 27.246094 13.222656 C 27.566406 12.9375 27.605469 12.859375 27.5625 12.535156 C 27.484375 11.957031 26.847656 10.488281 26.269531 9.558594 C 25.589844 8.460938 23.917969 6.738281 22.851562 6.039062 C 21.277344 5.003906 19.773438 4.394531 17.980469 4.074219 C 16.386719 3.785156 13.082031 4.003906 12.949219 4.40625 C 12.921875 4.488281 13.09375 4.527344 13.519531 4.527344 C 16.1875 4.527344 18.464844 5.269531 20.191406 6.707031 C 21.214844 7.5625 21.933594 8.371094 23.105469 10.003906 C 25.082031 12.742188 25.855469 13.511719 26.664062 13.535156 C 26.785156 13.539062 27.046875 13.398438 27.246094 13.222656 Z M 27.246094 13.222656 "/>
</g>
</svg>
