
<svg xmlns="http://www.w3.org/2000/svg" xmlns:xlink="http://www.w3.org/1999/xlink" width="32px" height="32px" viewBox="0 0 32 32" version="1.1">
<g id="surface1">
<path style="fill-rule:nonzero;fill:rgb(90.196079%,90.196079%,90.196079%);fill-opacity:1;stroke-width:28.032269;stroke-linecap:butt;stroke-linejoin:miter;stroke:rgb(23.921569%,23.921569%,23.921569%);stroke-opacity:1;stroke-miterlimit:4;" d="M 82.457264 26.410352 L 429.532665 26.410352 C 460.525088 26.410352 485.623653 51.518746 485.623653 82.460404 L 485.623653 429.539571 C 485.623653 460.481229 460.525088 485.589623 429.532665 485.589623 L 82.457264 485.589623 C 51.531064 485.589623 26.432499 460.481229 26.432499 429.539571 L 26.432499 82.460404 C 26.432499 51.518746 51.531064 26.410352 82.457264 26.410352 Z M 82.457264 26.410352 " transform="matrix(0.0589862,0,0,0.0616079,0.628348,0.228383)"/>
<path style=" stroke:none;fill-rule:evenodd;fill:rgb(20%,20%,20%);fill-opacity:1;" d="M 6.957031 27.148438 C 10.292969 26.550781 9.253906 25.515625 12.167969 20.9375 C 13.230469 19.265625 15.558594 21.226562 14.699219 22.578125 C 12.082031 26.6875 10.738281 27.246094 6.957031 27.148438 Z M 6.957031 27.148438 "/>
<path style=" stroke:none;fill-rule:evenodd;fill:rgb(49.019608%,14.901961%,14.901961%);fill-opacity:1;" d="M 24.363281 4.082031 C 25.425781 4.625 20.621094 15.511719 17.960938 18.59375 C 15.300781 21.679688 12.125 20.054688 13.722656 16.425781 C 15.324219 12.796875 23.304688 3.539062 24.363281 4.082031 Z M 24.363281 4.082031 "/>
</g>
</svg>
