
<svg xmlns="http://www.w3.org/2000/svg" xmlns:xlink="http://www.w3.org/1999/xlink" width="32px" height="32px" viewBox="0 0 32 32" version="1.1">
<g id="surface1">
<path style="fill-rule:nonzero;fill:rgb(21.176471%,76.862746%,30.19608%);fill-opacity:1;stroke-width:28.097435;stroke-linecap:butt;stroke-linejoin:miter;stroke:rgb(1.176471%,22.745098%,55.29412%);stroke-opacity:1;stroke-miterlimit:4;" d="M 78.251022 28.537608 L 426.053832 28.537608 C 457.114364 28.537608 482.288424 53.711668 482.288424 84.7722 L 482.288424 432.57501 C 482.288424 463.635542 457.114364 488.809602 426.053832 488.809602 L 78.251022 488.809602 C 47.190491 488.809602 22.01643 463.635542 22.01643 432.57501 L 22.01643 84.7722 C 22.01643 53.711668 47.190491 28.537608 78.251022 28.537608 Z M 78.251022 28.537608 " transform="matrix(0.0623782,0,0,0.0623782,0.271186,-0.135593)"/>
<path style=" stroke:none;fill-rule:nonzero;fill:rgb(1.176471%,22.745098%,55.29412%);fill-opacity:1;" d="M 2.207031 1.839844 L 2.207031 29.796875 L 6.207031 29.796875 L 6.207031 1.839844 Z M 2.207031 1.839844 "/>
<path style=" stroke:none;fill-rule:nonzero;fill:rgb(90.588236%,90.588236%,90.588236%);fill-opacity:1;" d="M 26.574219 4.472656 L 27.796875 4.472656 L 27.796875 9.355469 L 26.574219 9.355469 Z M 26.574219 4.472656 "/>
<path style=" stroke:none;fill-rule:nonzero;fill:rgb(90.588236%,90.588236%,90.588236%);fill-opacity:1;" d="M 26.574219 10.464844 L 27.796875 10.464844 L 27.796875 15.34375 L 26.574219 15.34375 Z M 26.574219 10.464844 "/>
<path style=" stroke:none;fill-rule:nonzero;fill:rgb(90.588236%,90.588236%,90.588236%);fill-opacity:1;" d="M 26.574219 16.699219 L 27.796875 16.699219 L 27.796875 21.582031 L 26.574219 21.582031 Z M 26.574219 16.699219 "/>
<path style=" stroke:none;fill-rule:nonzero;fill:rgb(90.588236%,90.588236%,90.588236%);fill-opacity:1;" d="M 26.574219 22.8125 L 27.796875 22.8125 L 27.796875 27.695312 L 26.574219 27.695312 Z M 26.574219 22.8125 "/>
</g>
</svg>
