
<svg xmlns="http://www.w3.org/2000/svg" xmlns:xlink="http://www.w3.org/1999/xlink" width="32px" height="32px" viewBox="0 0 32 32" version="1.1">
<g id="surface1">
<path style=" stroke:none;fill-rule:evenodd;fill:rgb(40.000001%,69.803923%,27.058825%);fill-opacity:1;" d="M 5.675781 0.882812 L 26.558594 0.882812 C 29.265625 0.882812 31.464844 3.082031 31.464844 5.789062 L 31.464844 26.46875 C 31.464844 29.175781 29.265625 31.371094 26.558594 31.371094 L 5.675781 31.371094 C 2.96875 31.371094 0.773438 29.175781 0.773438 26.46875 L 0.773438 5.789062 C 0.773438 3.082031 2.96875 0.882812 5.675781 0.882812 Z M 5.675781 0.882812 "/>
<path style=" stroke:none;fill-rule:evenodd;fill:rgb(100%,100%,100%);fill-opacity:1;" d="M 6.597656 2.226562 L 25.636719 2.226562 C 28.109375 2.226562 30.113281 4.230469 30.113281 6.699219 L 30.113281 25.558594 C 30.113281 28.027344 28.109375 30.03125 25.636719 30.03125 L 6.597656 30.03125 C 4.125 30.03125 2.121094 28.027344 2.121094 25.558594 L 2.121094 6.699219 C 2.121094 4.230469 4.125 2.226562 6.597656 2.226562 Z M 6.597656 2.226562 "/>
<path style=" stroke:none;fill-rule:nonzero;fill:rgb(10.196079%,10.196079%,10.196079%);fill-opacity:1;" d="M 18.738281 26.839844 L 21.355469 24.203125 L 21.164062 24 C 21.058594 23.886719 20.972656 23.765625 20.972656 23.730469 C 20.972656 23.691406 21.277344 23.378906 21.652344 23.03125 C 22.648438 22.101562 24.078125 20.640625 24.078125 20.550781 C 24.078125 20.503906 23.992188 20.417969 23.886719 20.351562 C 23.617188 20.183594 23.652344 20.0625 24.101562 19.664062 C 24.320312 19.46875 25.019531 18.808594 25.648438 18.191406 C 26.464844 17.394531 26.757812 17.054688 26.65625 17.015625 C 26.558594 16.980469 25.574219 17.90625 23.574219 19.914062 C 20.011719 23.488281 16.175781 27.246094 16.082031 27.246094 C 16.046875 27.246094 15.339844 26.554688 14.507812 25.714844 C 7.460938 18.574219 5.78125 16.890625 5.714844 16.890625 C 5.453125 16.890625 5.792969 17.308594 7.113281 18.621094 L 8.589844 20.09375 L 8.277344 20.621094 L 9.824219 22.164062 L 11.367188 23.707031 L 11.167969 23.917969 C 10.984375 24.113281 10.980469 24.144531 11.117188 24.347656 C 11.199219 24.464844 12.355469 25.667969 13.695312 27.019531 L 16.125 29.472656 Z M 18.738281 26.839844 "/>
<path style=" stroke:none;fill-rule:nonzero;fill:rgb(10.196079%,10.196079%,10.196079%);fill-opacity:1;" d="M 6.390625 28.777344 L 13.308594 28.777344 L 13.308594 29.175781 L 6.390625 29.175781 Z M 6.390625 28.777344 "/>
<path style=" stroke:none;fill-rule:nonzero;fill:rgb(10.196079%,10.196079%,10.196079%);fill-opacity:1;" d="M 19.765625 28.777344 L 26.6875 28.777344 L 26.6875 29.175781 L 19.765625 29.175781 Z M 19.765625 28.777344 "/>
<path style=" stroke:none;fill-rule:nonzero;fill:rgb(0%,56.470591%,0%);fill-opacity:1;" d="M 16.480469 8.070312 C 16.449219 7.617188 16.378906 7.230469 16.324219 7.214844 C 16.273438 7.199219 16.230469 7.132812 16.230469 7.070312 C 16.230469 7.007812 16.144531 6.789062 16.035156 6.582031 C 15.917969 6.355469 15.863281 6.113281 15.894531 5.957031 C 15.921875 5.796875 15.886719 5.644531 15.800781 5.558594 C 15.683594 5.445312 15.679688 5.382812 15.773438 5.234375 C 15.863281 5.085938 15.855469 5.023438 15.722656 4.886719 C 15.597656 4.765625 15.570312 4.640625 15.613281 4.40625 C 15.65625 4.183594 15.621094 4.003906 15.507812 3.808594 C 15.371094 3.574219 15.359375 3.492188 15.457031 3.339844 C 15.519531 3.238281 15.570312 3.074219 15.570312 2.972656 C 15.570312 2.800781 15.589844 2.800781 15.855469 2.929688 C 16.050781 3.03125 16.136719 3.140625 16.136719 3.304688 C 16.136719 3.433594 16.238281 3.644531 16.363281 3.78125 C 16.511719 3.941406 16.625 4.226562 16.691406 4.59375 C 16.746094 4.90625 16.832031 5.207031 16.886719 5.257812 C 16.941406 5.308594 16.980469 5.46875 16.980469 5.613281 C 16.980469 5.753906 17.027344 5.898438 17.082031 5.933594 C 17.136719 5.964844 17.160156 6.046875 17.136719 6.113281 C 17.113281 6.179688 17.136719 6.28125 17.191406 6.335938 C 17.261719 6.40625 17.265625 6.472656 17.195312 6.558594 C 17.144531 6.625 17.066406 7.101562 17.03125 7.613281 C 16.992188 8.128906 16.914062 8.628906 16.855469 8.722656 C 16.636719 9.066406 16.539062 8.894531 16.480469 8.070312 Z M 16.480469 8.070312 "/>
<path style=" stroke:none;fill-rule:nonzero;fill:rgb(0%,56.470591%,0%);fill-opacity:1;" d="M 15.824219 25.566406 C 15.683594 25.421875 15.570312 25.25 15.570312 25.183594 C 15.570312 25.035156 15.300781 24.140625 15.191406 23.9375 C 15.148438 23.855469 15.082031 23.628906 15.050781 23.441406 C 15.011719 23.253906 14.949219 23.078125 14.902344 23.050781 C 14.855469 23.019531 14.816406 22.925781 14.816406 22.839844 C 14.8125 22.75 14.730469 22.511719 14.628906 22.300781 C 14.527344 22.097656 14.445312 21.878906 14.445312 21.820312 C 14.441406 21.761719 14.378906 21.589844 14.300781 21.441406 C 14.222656 21.292969 14.160156 21.097656 14.160156 21.007812 C 14.160156 20.917969 14.117188 20.84375 14.066406 20.84375 C 14.011719 20.84375 13.972656 20.769531 13.972656 20.679688 C 13.96875 20.589844 13.90625 20.394531 13.828125 20.246094 C 13.753906 20.097656 13.6875 19.925781 13.683594 19.871094 C 13.683594 19.808594 13.597656 19.59375 13.5 19.386719 C 13.402344 19.179688 13.316406 18.941406 13.316406 18.863281 C 13.3125 18.785156 13.277344 18.675781 13.234375 18.628906 C 13.191406 18.578125 13.078125 18.324219 12.988281 18.066406 C 12.894531 17.808594 12.761719 17.472656 12.695312 17.316406 C 12.121094 15.976562 11.90625 15.441406 11.941406 15.410156 C 11.960938 15.386719 12.03125 15.46875 12.09375 15.589844 C 12.160156 15.710938 12.238281 15.832031 12.269531 15.855469 C 12.339844 15.917969 13.425781 18.117188 13.683594 18.726562 C 13.792969 18.984375 13.925781 19.269531 13.972656 19.363281 C 14.023438 19.449219 14.066406 19.570312 14.066406 19.628906 C 14.066406 19.6875 14.125 19.867188 14.199219 20.03125 C 14.566406 20.839844 14.902344 21.714844 15.089844 22.347656 C 15.207031 22.738281 15.339844 23.128906 15.386719 23.21875 C 15.4375 23.308594 15.476562 23.449219 15.476562 23.527344 C 15.476562 23.605469 15.523438 23.667969 15.578125 23.667969 C 15.691406 23.667969 15.605469 22.324219 15.476562 22.066406 C 15.4375 21.988281 15.375 21.542969 15.335938 21.082031 C 15.300781 20.613281 15.238281 20.191406 15.199219 20.136719 C 15.160156 20.085938 15.097656 19.65625 15.066406 19.179688 C 15.011719 18.359375 14.984375 18.277344 14.566406 17.582031 C 14.320312 17.175781 14.066406 16.789062 13.996094 16.722656 C 13.933594 16.652344 13.878906 16.539062 13.878906 16.46875 C 13.878906 16.398438 13.84375 16.328125 13.800781 16.3125 C 13.761719 16.292969 13.625 16.109375 13.503906 15.902344 C 13.378906 15.695312 13.09375 15.242188 12.871094 14.894531 C 12.648438 14.550781 12.464844 14.226562 12.464844 14.175781 C 12.464844 14.125 12.433594 14.070312 12.394531 14.050781 C 12.269531 13.996094 10.769531 11.097656 10.769531 10.910156 C 10.769531 10.886719 10.640625 10.589844 10.480469 10.25 C 10.316406 9.910156 10.203125 9.617188 10.226562 9.59375 C 10.246094 9.574219 10.832031 10.414062 11.527344 11.457031 C 12.222656 12.503906 12.847656 13.417969 12.910156 13.488281 C 12.976562 13.554688 13.027344 13.667969 13.027344 13.738281 C 13.027344 13.808594 13.0625 13.878906 13.105469 13.894531 C 13.144531 13.914062 13.320312 14.160156 13.492188 14.445312 C 14.148438 15.527344 14.574219 16.128906 14.644531 16.082031 C 14.753906 16.015625 14.746094 15.632812 14.636719 15.523438 C 14.585938 15.472656 14.519531 14.847656 14.480469 14.136719 C 14.441406 13.421875 14.378906 12.816406 14.332031 12.789062 C 14.289062 12.761719 14.257812 12.308594 14.265625 11.78125 L 14.277344 10.820312 L 14.410156 11.855469 C 14.480469 12.425781 14.601562 13.402344 14.675781 14.019531 C 14.988281 16.632812 15.007812 16.738281 15.304688 17.328125 C 15.464844 17.648438 15.691406 18.027344 15.808594 18.175781 L 16.019531 18.441406 L 16.121094 18.082031 C 16.226562 17.691406 16.371094 17.449219 17.789062 15.292969 C 18.316406 14.488281 18.847656 13.652344 18.96875 13.433594 C 19.09375 13.214844 19.230469 13.035156 19.269531 13.035156 C 19.375 13.035156 19.246094 13.417969 19.089844 13.574219 C 19.015625 13.648438 18.957031 13.75 18.957031 13.800781 C 18.957031 13.855469 18.832031 14.089844 18.675781 14.316406 C 18.519531 14.550781 18.394531 14.753906 18.394531 14.769531 C 18.394531 14.789062 18.148438 15.222656 17.847656 15.730469 C 17.546875 16.238281 17.050781 17.15625 16.746094 17.765625 L 16.195312 18.871094 L 16.394531 19.222656 C 16.503906 19.414062 16.628906 19.582031 16.671875 19.597656 C 16.757812 19.625 17.074219 18.945312 17.074219 18.730469 C 17.074219 18.65625 17.113281 18.574219 17.160156 18.542969 C 17.207031 18.515625 17.273438 18.378906 17.308594 18.234375 C 17.417969 17.800781 20.785156 11.085938 20.960938 10.957031 C 21 10.925781 21.066406 10.714844 21.105469 10.484375 C 21.152344 10.183594 21.230469 10.042969 21.382812 9.976562 C 21.496094 9.925781 21.628906 9.777344 21.683594 9.648438 C 21.730469 9.515625 21.855469 9.261719 21.960938 9.082031 C 22.066406 8.898438 22.257812 8.519531 22.390625 8.234375 C 22.601562 7.777344 22.625 7.753906 22.578125 8.042969 C 22.480469 8.667969 22.3125 9.214844 22.082031 9.640625 C 21.0625 11.546875 20.964844 11.816406 20.738281 13.316406 C 20.683594 13.652344 20.609375 13.992188 20.566406 14.074219 C 20.523438 14.152344 20.457031 14.488281 20.417969 14.824219 C 20.378906 15.160156 20.316406 15.476562 20.277344 15.527344 C 20.238281 15.578125 20.171875 15.886719 20.136719 16.207031 C 20.097656 16.535156 20.035156 16.816406 19.996094 16.84375 C 19.953125 16.871094 19.886719 17.1875 19.851562 17.550781 C 19.816406 17.914062 19.753906 18.230469 19.707031 18.257812 C 19.667969 18.285156 19.601562 18.582031 19.566406 18.917969 C 19.53125 19.253906 19.464844 19.550781 19.425781 19.574219 C 19.386719 19.601562 19.320312 20.089844 19.285156 20.65625 C 19.246094 21.226562 19.183594 21.691406 19.148438 21.691406 C 19.113281 21.691406 19.054688 22.027344 19.023438 22.441406 C 18.964844 23.160156 18.949219 23.207031 18.582031 23.574219 C 18.261719 23.894531 18.191406 23.925781 18.152344 23.785156 C 18.042969 23.4375 17.496094 22.351562 17.429688 22.351562 C 17.390625 22.347656 17.359375 22.304688 17.359375 22.246094 C 17.359375 22.027344 16.742188 21.128906 16.59375 21.128906 C 16.480469 21.128906 16.359375 21.378906 16.136719 22.078125 C 15.820312 23.070312 15.808594 23.367188 16.039062 24.515625 C 16.160156 25.128906 16.214844 25.832031 16.140625 25.832031 C 16.105469 25.832031 15.964844 25.714844 15.824219 25.566406 Z M 15.925781 22.300781 C 15.925781 22.175781 15.886719 22.066406 15.839844 22.066406 C 15.796875 22.066406 15.757812 22.175781 15.757812 22.300781 C 15.757812 22.433594 15.796875 22.539062 15.839844 22.539062 C 15.886719 22.539062 15.925781 22.433594 15.925781 22.300781 Z M 18.371094 22.277344 C 18.667969 21.453125 18.785156 20.957031 19.152344 19.007812 C 19.347656 17.960938 19.558594 17.039062 19.949219 15.480469 C 20.613281 12.820312 20.621094 12.769531 20.339844 13.050781 C 20.265625 13.121094 20.175781 13.285156 20.136719 13.414062 C 20.09375 13.542969 20.035156 13.667969 20.003906 13.691406 C 19.914062 13.765625 19.523438 14.59375 19.523438 14.714844 C 19.523438 14.773438 19.480469 14.820312 19.429688 14.820312 C 19.378906 14.820312 19.335938 14.867188 19.335938 14.925781 C 19.335938 14.980469 19.128906 15.457031 18.875 15.984375 C 18.621094 16.507812 18.15625 17.488281 17.835938 18.160156 C 17.519531 18.835938 17.195312 19.496094 17.121094 19.636719 C 16.902344 20.027344 16.953125 20.277344 17.382812 21.035156 C 17.601562 21.425781 17.867188 21.917969 17.972656 22.136719 C 18.074219 22.355469 18.183594 22.535156 18.21875 22.535156 C 18.25 22.535156 18.316406 22.421875 18.371094 22.277344 Z M 16.039062 21.03125 C 16.144531 21.03125 16.230469 20.9375 16.269531 20.789062 C 16.351562 20.464844 16.246094 20.160156 16.082031 20.222656 C 15.988281 20.257812 15.949219 20.199219 15.949219 20.03125 C 15.949219 19.769531 15.675781 19.246094 15.539062 19.246094 C 15.449219 19.246094 15.535156 21.011719 15.636719 21.363281 C 15.6875 21.53125 15.703125 21.523438 15.78125 21.292969 C 15.832031 21.136719 15.9375 21.03125 16.039062 21.03125 Z M 16.039062 21.03125 "/>
<path style=" stroke:none;fill-rule:nonzero;fill:rgb(0%,56.470591%,0%);fill-opacity:1;" d="M 19.742188 22.066406 C 19.773438 21.886719 19.84375 21.421875 19.898438 21.03125 C 19.953125 20.644531 20.039062 20.257812 20.082031 20.175781 C 20.128906 20.089844 20.199219 19.867188 20.234375 19.679688 C 20.269531 19.488281 20.332031 19.316406 20.371094 19.289062 C 20.414062 19.261719 20.476562 19.074219 20.511719 18.867188 C 20.546875 18.660156 20.613281 18.492188 20.65625 18.492188 C 20.699219 18.492188 20.765625 18.34375 20.800781 18.160156 C 20.832031 17.980469 20.902344 17.804688 20.953125 17.773438 C 21.058594 17.707031 20.953125 18.578125 20.839844 18.726562 C 20.796875 18.777344 20.734375 19.035156 20.695312 19.292969 C 20.660156 19.550781 20.59375 19.804688 20.554688 19.855469 C 20.511719 19.910156 20.449219 20.226562 20.417969 20.5625 C 20.332031 21.433594 20.171875 21.949219 19.914062 22.191406 L 19.691406 22.394531 Z M 19.742188 22.066406 "/>
<path style=" stroke:none;fill-rule:nonzero;fill:rgb(0%,56.470591%,0%);fill-opacity:1;" d="M 12.402344 22.230469 C 11.953125 21.777344 11.707031 21.449219 11.667969 21.242188 C 11.59375 20.902344 10.605469 18.558594 10.296875 17.996094 C 10.246094 17.910156 10.207031 17.78125 10.207031 17.714844 C 10.210938 17.652344 10.398438 17.894531 10.625 18.253906 C 10.855469 18.621094 11.074219 18.960938 11.117188 19.015625 C 11.191406 19.113281 11.511719 19.679688 11.800781 20.230469 C 11.878906 20.386719 11.96875 20.535156 11.996094 20.5625 C 12.019531 20.589844 12.148438 20.820312 12.277344 21.082031 C 12.40625 21.339844 12.535156 21.570312 12.558594 21.597656 C 12.597656 21.636719 13.074219 22.558594 13.203125 22.84375 C 13.300781 23.070312 12.988281 22.832031 12.402344 22.230469 Z M 12.402344 22.230469 "/>
<path style=" stroke:none;fill-rule:evenodd;fill:rgb(0%,56.470591%,0%);fill-opacity:1;" d="M 16.839844 8.28125 C 15.972656 18.261719 15.707031 18.199219 15.707031 18.199219 "/>
</g>
</svg>
