
<svg xmlns="http://www.w3.org/2000/svg" xmlns:xlink="http://www.w3.org/1999/xlink" width="32px" height="32px" viewBox="0 0 32 32" version="1.1">
<g id="surface1">
<path style="fill-rule:nonzero;fill:rgb(100%,27.058825%,0%);fill-opacity:1;stroke-width:7.115766;stroke-linecap:butt;stroke-linejoin:miter;stroke:rgb(96.078432%,73.333335%,64.705884%);stroke-opacity:1;stroke-miterlimit:4;" d="M 20.224317 7.888241 L 108.318067 7.888241 C 116.177442 7.888241 122.552442 14.263241 122.552442 22.122616 L 122.552442 110.216366 C 122.552442 118.075741 116.177442 124.450741 108.318067 124.450741 L 20.224317 124.450741 C 12.364942 124.450741 5.989942 118.075741 5.989942 110.216366 L 5.989942 22.122616 C 5.989942 14.263241 12.364942 7.888241 20.224317 7.888241 Z M 20.224317 7.888241 " transform="matrix(0.25,0,0,0.25,-0.067798,-0.542373)"/>
<path style=" stroke:none;fill-rule:nonzero;fill:rgb(100%,100%,100%);fill-opacity:1;" d="M 26.863281 14.957031 C 26.863281 21.058594 21.917969 26.003906 15.820312 26.003906 C 9.722656 26.003906 4.777344 21.058594 4.777344 14.957031 C 4.777344 8.855469 9.722656 3.914062 15.820312 3.914062 C 21.917969 3.914062 26.863281 8.855469 26.863281 14.957031 Z M 26.863281 14.957031 "/>
<path style=" stroke:none;fill-rule:nonzero;fill:rgb(100%,27.058825%,0%);fill-opacity:1;" d="M 16 2.496094 C 8.542969 2.496094 2.496094 8.542969 2.496094 16 C 2.496094 23.460938 8.542969 29.503906 16 29.503906 C 23.460938 29.503906 29.503906 23.460938 29.503906 16 C 29.503906 8.542969 23.460938 2.496094 16 2.496094 Z M 15.90625 5.355469 C 17.675781 5.347656 18.085938 5.394531 19.003906 5.683594 C 22.015625 6.625 24.261719 8.5625 25.613281 11.355469 C 26.394531 12.964844 26.667969 14.269531 26.597656 16.140625 C 26.535156 17.839844 26.339844 18.417969 25.660156 18.769531 C 25.210938 19 24.90625 19.027344 24.347656 18.859375 C 23.183594 18.507812 22.453125 17.800781 20.738281 15.53125 C 18.949219 13.167969 16.644531 10.847656 15.15625 9.855469 C 14.074219 9.136719 12.433594 8.355469 11.542969 8.167969 C 11.089844 8.074219 11.039062 8.089844 11.121094 8.402344 C 11.171875 8.585938 11.261719 9.480469 11.308594 10.371094 C 11.460938 13.039062 11.019531 14.957031 9.949219 16.375 C 8.765625 17.945312 6.878906 18.691406 5.964844 17.96875 C 5.285156 17.433594 5.125 16.097656 5.496094 14.03125 C 5.878906 11.875 6.839844 10.125 8.496094 8.449219 C 9.785156 7.148438 11.066406 6.339844 12.714844 5.777344 C 13.734375 5.429688 14.058594 5.371094 15.90625 5.355469 Z M 15.90625 5.355469 "/>
</g>
</svg>
