
<svg xmlns="http://www.w3.org/2000/svg" xmlns:xlink="http://www.w3.org/1999/xlink" width="32px" height="32px" viewBox="0 0 32 32" version="1.1">
<g id="surface1">
<path style="fill-rule:nonzero;fill:rgb(70.19608%,70.19608%,70.19608%);fill-opacity:1;stroke-width:27.889618;stroke-linecap:butt;stroke-linejoin:miter;stroke:rgb(20%,20%,20%);stroke-opacity:1;stroke-miterlimit:4;" d="M 83.3125 27.5625 L 428.6875 27.5625 C 459.4375 27.5625 484.4375 52.5625 484.4375 83.3125 L 484.4375 428.6875 C 484.4375 459.4375 459.4375 484.4375 428.6875 484.4375 L 83.3125 484.4375 C 52.5625 484.4375 27.5625 459.4375 27.5625 428.6875 L 27.5625 83.3125 C 27.5625 52.5625 52.5625 27.5625 83.3125 27.5625 Z M 83.3125 27.5625 " transform="matrix(0.0625,0,0,0.0625,0,0)"/>
<path style=" stroke:none;fill-rule:nonzero;fill:rgb(64.705884%,64.705884%,64.705884%);fill-opacity:1;" d="M 10.355469 26.820312 C 10.203125 26.65625 10.09375 26.355469 10.097656 26.101562 C 10.097656 25.972656 10.230469 25.527344 10.480469 24.832031 C 10.691406 24.242188 10.863281 23.707031 10.871094 23.644531 C 10.871094 23.558594 10.769531 23.429688 10.492188 23.175781 C 10.277344 22.984375 9.972656 22.667969 9.808594 22.476562 C 9.644531 22.285156 9.464844 22.105469 9.410156 22.082031 C 9.347656 22.058594 8.890625 22.1875 8.214844 22.429688 C 7.613281 22.644531 7.035156 22.824219 6.933594 22.832031 C 6.714844 22.847656 6.316406 22.691406 6.140625 22.53125 C 6.003906 22.402344 5.003906 19.972656 4.980469 19.71875 C 4.957031 19.464844 5.136719 19.082031 5.355469 18.902344 C 5.457031 18.816406 6.003906 18.539062 6.574219 18.285156 C 7.183594 18.003906 7.621094 17.777344 7.648438 17.71875 C 7.667969 17.664062 7.675781 17.414062 7.660156 17.160156 C 7.644531 16.910156 7.644531 16.472656 7.660156 16.1875 C 7.679688 15.902344 7.667969 15.636719 7.636719 15.597656 C 7.601562 15.558594 7.113281 15.300781 6.550781 15.023438 C 5.898438 14.703125 5.46875 14.464844 5.359375 14.363281 C 5.148438 14.167969 4.992188 13.746094 5.042969 13.507812 C 5.066406 13.414062 5.335938 12.753906 5.644531 12.042969 L 6.210938 10.753906 L 6.441406 10.628906 C 6.839844 10.410156 6.980469 10.433594 8.269531 10.886719 C 9 11.144531 9.453125 11.285156 9.503906 11.261719 C 9.550781 11.246094 9.761719 11.042969 9.972656 10.816406 C 10.183594 10.59375 10.496094 10.292969 10.660156 10.152344 C 10.828125 10.011719 10.980469 9.855469 11.003906 9.808594 C 11.023438 9.757812 10.878906 9.265625 10.683594 8.710938 C 10.488281 8.160156 10.308594 7.617188 10.28125 7.511719 C 10.207031 7.207031 10.269531 6.898438 10.453125 6.652344 C 10.59375 6.464844 10.738281 6.390625 11.867188 5.925781 C 12.558594 5.636719 13.222656 5.398438 13.347656 5.386719 C 13.625 5.367188 13.992188 5.519531 14.171875 5.734375 C 14.246094 5.824219 14.519531 6.359375 14.777344 6.921875 C 15.03125 7.488281 15.261719 7.972656 15.289062 8.011719 C 15.316406 8.046875 15.578125 8.0625 15.910156 8.050781 C 16.222656 8.035156 16.683594 8.042969 16.929688 8.058594 C 17.261719 8.085938 17.402344 8.070312 17.480469 8 C 17.539062 7.949219 17.8125 7.449219 18.089844 6.886719 C 18.621094 5.808594 18.730469 5.648438 19.058594 5.507812 C 19.425781 5.351562 19.582031 5.390625 20.992188 6.007812 L 22.277344 6.570312 L 22.425781 6.789062 C 22.675781 7.167969 22.65625 7.328125 22.214844 8.59375 C 22.003906 9.207031 21.820312 9.757812 21.808594 9.820312 C 21.792969 9.90625 21.875 10.011719 22.167969 10.277344 C 22.378906 10.46875 22.703125 10.800781 22.886719 11.019531 C 23.074219 11.238281 23.242188 11.425781 23.265625 11.433594 C 23.289062 11.445312 23.808594 11.277344 24.417969 11.058594 C 25.027344 10.839844 25.625 10.65625 25.746094 10.644531 C 26.03125 10.621094 26.378906 10.773438 26.585938 11.003906 C 26.683594 11.117188 26.933594 11.667969 27.230469 12.414062 C 27.742188 13.691406 27.769531 13.824219 27.597656 14.234375 C 27.476562 14.523438 27.265625 14.65625 26.144531 15.171875 C 25.53125 15.453125 25.023438 15.703125 25.015625 15.726562 C 25.003906 15.75 25.007812 16.042969 25.023438 16.375 C 25.039062 16.707031 25.035156 17.164062 25.011719 17.386719 C 24.980469 17.664062 24.996094 17.820312 25.050781 17.875 C 25.09375 17.921875 25.609375 18.199219 26.199219 18.492188 C 27.363281 19.074219 27.535156 19.207031 27.617188 19.574219 C 27.691406 19.921875 27.628906 20.128906 27.0625 21.429688 L 26.515625 22.667969 L 26.28125 22.816406 C 25.863281 23.078125 25.789062 23.066406 24.421875 22.589844 C 23.753906 22.359375 23.191406 22.175781 23.171875 22.183594 C 23.152344 22.191406 22.984375 22.363281 22.796875 22.566406 C 22.613281 22.773438 22.28125 23.089844 22.0625 23.277344 C 21.839844 23.464844 21.65625 23.648438 21.652344 23.6875 C 21.644531 23.726562 21.808594 24.238281 22.019531 24.824219 C 22.226562 25.414062 22.402344 26.011719 22.414062 26.15625 C 22.433594 26.460938 22.332031 26.734375 22.121094 26.941406 C 21.933594 27.125 19.675781 28.058594 19.363281 28.082031 C 19.097656 28.105469 18.703125 27.949219 18.519531 27.757812 C 18.449219 27.683594 18.171875 27.140625 17.902344 26.550781 C 17.632812 25.957031 17.375 25.460938 17.332031 25.441406 C 17.289062 25.425781 17 25.417969 16.6875 25.429688 C 16.375 25.441406 15.921875 25.433594 15.679688 25.414062 C 15.347656 25.386719 15.222656 25.398438 15.175781 25.46875 C 15.136719 25.519531 14.871094 26.035156 14.574219 26.613281 C 13.933594 27.886719 13.824219 28.003906 13.269531 28.042969 C 13.109375 28.054688 12.886719 27.972656 11.777344 27.503906 C 10.800781 27.085938 10.445312 26.917969 10.355469 26.820312 Z M 14.746094 21.816406 C 15.972656 22.191406 17.152344 22.140625 18.34375 21.660156 C 19.253906 21.289062 19.964844 20.75 20.597656 19.949219 C 20.992188 19.449219 21.519531 18.199219 21.605469 17.5625 C 21.871094 15.621094 21.167969 13.816406 19.667969 12.570312 C 19.320312 12.277344 19.214844 12.222656 18.4375 11.886719 C 17.691406 11.566406 17.53125 11.515625 17.128906 11.460938 C 15.105469 11.1875 13.105469 12.054688 11.964844 13.699219 C 10.9375 15.175781 10.730469 17.042969 11.410156 18.734375 C 11.765625 19.621094 12.378906 20.417969 13.152344 21.011719 C 13.375 21.183594 13.707031 21.378906 14.191406 21.632812 C 14.230469 21.652344 14.480469 21.738281 14.746094 21.816406 Z M 14.402344 19.269531 C 13.304688 18.40625 12.886719 16.980469 13.34375 15.683594 C 13.667969 14.777344 14.269531 14.152344 15.160156 13.792969 C 16.785156 13.136719 18.621094 13.902344 19.269531 15.503906 C 19.808594 16.828125 19.472656 18.238281 18.402344 19.152344 C 17.492188 19.933594 16.339844 20.128906 15.210938 19.703125 C 14.824219 19.558594 14.644531 19.460938 14.402344 19.269531 Z M 16.308594 18.628906 C 16.707031 18.644531 17.402344 18.441406 17.722656 18.164062 C 17.949219 17.96875 18 17.890625 18.183594 17.457031 C 18.378906 16.996094 18.261719 16.953125 18.226562 16.59375 C 18.15625 15.871094 17.808594 15.371094 17.152344 15.050781 C 16.628906 14.796875 16.257812 14.777344 15.71875 14.964844 C 15.035156 15.207031 14.574219 15.746094 14.472656 16.433594 C 14.382812 17.023438 14.519531 17.511719 14.902344 17.964844 C 15.257812 18.386719 15.71875 18.605469 16.308594 18.628906 Z M 16.308594 18.628906 "/>
<path style=" stroke:none;fill-rule:nonzero;fill:rgb(100%,100%,100%);fill-opacity:1;" d="M 10.355469 26.316406 C 10.203125 26.152344 10.09375 25.851562 10.097656 25.597656 C 10.097656 25.46875 10.230469 25.023438 10.480469 24.324219 C 10.691406 23.738281 10.863281 23.203125 10.871094 23.136719 C 10.871094 23.050781 10.769531 22.925781 10.492188 22.671875 C 10.277344 22.480469 9.972656 22.164062 9.808594 21.972656 C 9.644531 21.777344 9.464844 21.601562 9.410156 21.578125 C 9.347656 21.550781 8.890625 21.683594 8.214844 21.925781 C 7.613281 22.136719 7.035156 22.316406 6.933594 22.324219 C 6.714844 22.339844 6.316406 22.191406 6.140625 22.027344 C 6.003906 21.894531 5.003906 19.46875 4.980469 19.214844 C 4.957031 18.960938 5.136719 18.578125 5.355469 18.394531 C 5.457031 18.3125 6.003906 18.035156 6.574219 17.777344 C 7.183594 17.503906 7.621094 17.269531 7.648438 17.214844 C 7.667969 17.160156 7.675781 16.910156 7.660156 16.65625 C 7.644531 16.402344 7.644531 15.964844 7.660156 15.683594 C 7.679688 15.398438 7.667969 15.136719 7.636719 15.09375 C 7.601562 15.050781 7.113281 14.792969 6.550781 14.519531 C 5.898438 14.199219 5.46875 13.960938 5.359375 13.859375 C 5.148438 13.664062 4.992188 13.238281 5.042969 13.003906 C 5.066406 12.910156 5.335938 12.25 5.644531 11.539062 L 6.210938 10.25 L 6.441406 10.128906 C 6.839844 9.910156 6.980469 9.925781 8.269531 10.382812 C 9 10.640625 9.453125 10.777344 9.503906 10.757812 C 9.550781 10.738281 9.761719 10.539062 9.972656 10.316406 C 10.183594 10.089844 10.496094 9.789062 10.660156 9.644531 C 10.828125 9.503906 10.980469 9.347656 11.003906 9.300781 C 11.023438 9.253906 10.878906 8.761719 10.683594 8.207031 C 10.488281 7.652344 10.308594 7.113281 10.28125 7.003906 C 10.207031 6.703125 10.269531 6.394531 10.453125 6.144531 C 10.59375 5.957031 10.738281 5.886719 11.867188 5.417969 C 12.558594 5.132812 13.222656 4.894531 13.347656 4.882812 C 13.625 4.863281 13.992188 5.015625 14.171875 5.230469 C 14.246094 5.320312 14.519531 5.855469 14.777344 6.417969 C 15.03125 6.980469 15.261719 7.472656 15.289062 7.503906 C 15.316406 7.542969 15.578125 7.558594 15.910156 7.542969 C 16.222656 7.53125 16.683594 7.535156 16.929688 7.554688 C 17.261719 7.582031 17.402344 7.566406 17.480469 7.496094 C 17.539062 7.445312 17.8125 6.945312 18.089844 6.382812 C 18.621094 5.304688 18.730469 5.144531 19.058594 5.003906 C 19.425781 4.847656 19.582031 4.886719 20.992188 5.503906 L 22.277344 6.066406 L 22.425781 6.285156 C 22.675781 6.660156 22.65625 6.824219 22.214844 8.089844 C 22.003906 8.699219 21.820312 9.253906 21.808594 9.316406 C 21.792969 9.402344 21.875 9.507812 22.167969 9.773438 C 22.378906 9.964844 22.703125 10.296875 22.886719 10.515625 C 23.074219 10.734375 23.242188 10.917969 23.265625 10.929688 C 23.289062 10.941406 23.808594 10.769531 24.417969 10.554688 C 25.027344 10.335938 25.625 10.152344 25.746094 10.144531 C 26.03125 10.121094 26.378906 10.269531 26.585938 10.5 C 26.683594 10.613281 26.933594 11.164062 27.230469 11.910156 C 27.742188 13.1875 27.769531 13.320312 27.597656 13.730469 C 27.476562 14.019531 27.265625 14.152344 26.144531 14.667969 C 25.53125 14.949219 25.023438 15.199219 25.015625 15.222656 C 25.003906 15.246094 25.007812 15.535156 25.023438 15.871094 C 25.039062 16.207031 25.035156 16.660156 25.011719 16.882812 C 24.980469 17.160156 24.996094 17.316406 25.050781 17.371094 C 25.09375 17.417969 25.609375 17.695312 26.199219 17.988281 C 27.363281 18.570312 27.535156 18.703125 27.617188 19.070312 C 27.691406 19.417969 27.628906 19.628906 27.0625 20.925781 L 26.515625 22.167969 L 26.28125 22.3125 C 25.863281 22.574219 25.789062 22.566406 24.421875 22.089844 C 23.753906 21.855469 23.191406 21.671875 23.171875 21.679688 C 23.152344 21.6875 22.984375 21.859375 22.796875 22.066406 C 22.613281 22.269531 22.28125 22.585938 22.0625 22.773438 C 21.839844 22.957031 21.65625 23.144531 21.652344 23.183594 C 21.644531 23.222656 21.808594 23.734375 22.019531 24.320312 C 22.226562 24.910156 22.402344 25.507812 22.414062 25.652344 C 22.433594 25.957031 22.332031 26.230469 22.121094 26.4375 C 21.933594 26.621094 19.675781 27.558594 19.363281 27.582031 C 19.097656 27.597656 18.703125 27.445312 18.519531 27.253906 C 18.449219 27.179688 18.171875 26.636719 17.902344 26.042969 C 17.632812 25.453125 17.375 24.957031 17.332031 24.9375 C 17.289062 24.917969 17 24.914062 16.6875 24.925781 C 16.375 24.933594 15.921875 24.929688 15.679688 24.910156 C 15.347656 24.878906 15.222656 24.894531 15.175781 24.964844 C 15.136719 25.011719 14.871094 25.527344 14.574219 26.105469 C 13.933594 27.378906 13.824219 27.503906 13.269531 27.539062 C 13.109375 27.550781 12.886719 27.46875 11.777344 26.996094 C 10.800781 26.582031 10.445312 26.410156 10.355469 26.316406 Z M 14.746094 21.3125 C 15.972656 21.691406 17.152344 21.636719 18.34375 21.152344 C 19.253906 20.785156 19.964844 20.246094 20.597656 19.449219 C 20.992188 18.949219 21.519531 17.699219 21.605469 17.058594 C 21.871094 15.121094 21.167969 13.3125 19.667969 12.066406 C 19.320312 11.773438 19.214844 11.714844 18.4375 11.382812 C 17.691406 11.0625 17.53125 11.011719 17.128906 10.957031 C 15.105469 10.683594 13.105469 11.550781 11.964844 13.195312 C 10.9375 14.671875 10.730469 16.539062 11.410156 18.230469 C 11.765625 19.113281 12.378906 19.914062 13.152344 20.507812 C 13.375 20.675781 13.707031 20.875 14.191406 21.128906 C 14.230469 21.148438 14.480469 21.230469 14.746094 21.3125 Z M 14.402344 18.761719 C 13.304688 17.902344 12.886719 16.480469 13.34375 15.179688 C 13.667969 14.273438 14.269531 13.644531 15.160156 13.285156 C 16.785156 12.632812 18.621094 13.394531 19.269531 15 C 19.808594 16.324219 19.472656 17.738281 18.402344 18.648438 C 17.492188 19.425781 16.339844 19.625 15.210938 19.199219 C 14.824219 19.050781 14.644531 18.957031 14.402344 18.761719 Z M 16.308594 18.125 C 16.707031 18.144531 17.402344 17.933594 17.722656 17.660156 C 17.949219 17.464844 18 17.386719 18.183594 16.953125 C 18.378906 16.492188 18.261719 16.449219 18.226562 16.089844 C 18.15625 15.363281 17.808594 14.863281 17.152344 14.546875 C 16.628906 14.292969 16.257812 14.269531 15.71875 14.460938 C 15.035156 14.703125 14.574219 15.246094 14.472656 15.925781 C 14.382812 16.519531 14.519531 17.003906 14.902344 17.457031 C 15.257812 17.882812 15.71875 18.097656 16.308594 18.125 Z M 16.308594 18.125 "/>
<path style=" stroke:none;fill-rule:nonzero;fill:rgb(0%,0%,0%);fill-opacity:0.301961;" d="M 16.300781 3.492188 C 15.65625 3.496094 14.910156 3.632812 14.113281 4.023438 C 12.042969 5.035156 12.308594 7.21875 12.652344 11.585938 C 12.738281 12.761719 11.539062 13.546875 10.503906 15.089844 C 9.464844 16.621094 9.347656 17.878906 8.566406 19.144531 C 7.808594 20.363281 7.917969 20.292969 8.191406 21.324219 C 8.152344 21.359375 8.113281 21.394531 8.074219 21.433594 C 7.800781 21.699219 7.464844 22.367188 6.980469 22.691406 L 6.976562 22.691406 C 6.496094 23.019531 5.269531 22.992188 4.957031 23.375 C 4.652344 23.757812 4.96875 24.316406 4.957031 25.347656 C 4.957031 25.785156 4.878906 26.117188 4.828125 26.386719 C 4.746094 26.722656 4.699219 26.964844 4.855469 27.207031 C 5.128906 27.632812 5.566406 27.746094 8.089844 28.238281 C 9.441406 28.5 10.71875 29.179688 11.566406 29.25 C 12.425781 29.308594 12.609375 29.035156 13.128906 28.605469 C 13.195312 28.550781 13.253906 28.503906 13.308594 28.464844 C 13.363281 28.464844 13.410156 28.457031 13.457031 28.441406 C 14.585938 27.957031 14.199219 28.109375 16.003906 28.007812 C 17.78125 27.914062 18.300781 27.835938 19.945312 28.238281 C 20.042969 28.546875 20.195312 28.769531 20.339844 28.882812 C 20.582031 29.089844 20.945312 29.25 21.746094 29.25 C 22.546875 29.25 23.042969 29.082031 23.574219 28.582031 C 23.910156 28.265625 24.273438 27.964844 25.3125 27.296875 C 26.140625 26.769531 27.386719 26.1875 27.636719 25.953125 C 27.757812 25.839844 27.980469 25.730469 27.996094 25.308594 C 28.011719 24.941406 27.695312 24.820312 27.476562 24.691406 C 27.167969 24.527344 26.371094 23.921875 25.96875 23.328125 C 25.726562 22.964844 26.070312 22.371094 25.734375 21.917969 L 25.734375 21.921875 C 25.660156 21.816406 25.554688 21.769531 25.457031 21.753906 C 25.621094 21.394531 25.746094 21.066406 25.816406 20.796875 L 25.8125 20.800781 C 26.21875 19.246094 24.941406 16.550781 23.710938 14.921875 C 22.488281 13.292969 21.480469 12.277344 20.988281 10.214844 C 20.488281 8.148438 21.113281 8.746094 20.671875 6.941406 C 20.457031 6.042969 20.074219 5.332031 19.652344 4.863281 C 19.226562 4.378906 18.652344 4.105469 18.371094 3.964844 C 17.988281 3.769531 17.25 3.488281 16.300781 3.492188 Z M 16.300781 3.492188 "/>
<path style=" stroke:none;fill-rule:nonzero;fill:rgb(0%,0%,0%);fill-opacity:1;" d="M 25.46875 20.433594 C 25.109375 21.816406 23.308594 24.691406 22.34375 25.960938 C 21.382812 27.230469 21.5 28.378906 19.726562 27.929688 C 17.957031 27.488281 17.464844 27.566406 15.628906 27.667969 C 13.816406 27.769531 14.207031 27.617188 13.070312 28.097656 C 11.941406 28.574219 8.136719 22.261719 7.824219 21.082031 C 7.523438 19.90625 7.378906 20.046875 8.167969 18.777344 C 8.953125 17.507812 9.074219 16.246094 10.109375 14.707031 C 11.148438 13.164062 12.355469 12.375 12.265625 11.195312 C 11.921875 6.816406 11.65625 4.625 13.730469 3.613281 C 15.699219 2.648438 17.355469 3.222656 18.003906 3.550781 C 18.285156 3.691406 18.859375 3.972656 19.285156 4.453125 C 19.707031 4.925781 20.09375 5.636719 20.308594 6.539062 C 20.753906 8.347656 20.125 7.75 20.628906 9.824219 C 21.121094 11.890625 22.128906 12.90625 23.359375 14.542969 C 24.589844 16.175781 25.871094 18.878906 25.464844 20.4375 M 25.464844 20.4375 "/>
<path style=" stroke:none;fill-rule:nonzero;fill:rgb(97.647059%,97.647059%,97.647059%);fill-opacity:1;" d="M 13.765625 9.710938 C 14.085938 9.589844 14.035156 9.574219 14.25 9.128906 C 14.421875 8.789062 14.574219 8.644531 14.570312 8.128906 C 14.570312 7.625 14.402344 7.449219 14.148438 7.121094 C 13.90625 6.808594 13.519531 6.789062 13.277344 6.828125 C 13.132812 6.847656 12.953125 7.019531 12.828125 7.265625 C 12.746094 7.433594 12.683594 7.644531 12.671875 7.867188 C 12.660156 8.464844 12.707031 8.691406 12.859375 9.097656 C 13.03125 9.574219 13.449219 9.824219 13.765625 9.707031 M 13.765625 9.707031 "/>
<path style=" stroke:none;fill-rule:nonzero;fill:rgb(0%,0%,0%);fill-opacity:1;" d="M 13.464844 7.640625 C 13.625 7.640625 13.828125 7.738281 13.929688 7.875 C 14.035156 8.011719 14.105469 8.207031 14.105469 8.425781 C 14.105469 8.75 14.070312 9.109375 13.863281 9.21875 C 13.792969 9.246094 13.652344 9.285156 13.574219 9.285156 C 13.394531 9.285156 13.375 9.167969 13.203125 9.003906 C 13.140625 8.945312 12.964844 8.648438 12.964844 8.40625 C 12.964844 8.253906 12.929688 8.039062 13.070312 7.84375 C 13.167969 7.703125 13.292969 7.636719 13.464844 7.636719 M 13.464844 7.640625 "/>
<path style=" stroke:none;fill-rule:nonzero;fill:rgb(97.647059%,97.647059%,97.647059%);fill-opacity:1;" d="M 17.109375 9.75 C 17.925781 9.671875 18.207031 9.375 18.351562 8.863281 C 18.480469 8.410156 18.484375 7.902344 18.128906 7.308594 C 17.785156 6.742188 17.589844 6.652344 17.101562 6.613281 C 16.347656 6.558594 15.988281 7.050781 15.820312 7.402344 C 15.644531 7.789062 15.679688 7.738281 15.691406 8.222656 C 15.707031 8.734375 16.011719 8.875 16.195312 9.199219 C 16.386719 9.507812 17.019531 9.761719 17.105469 9.753906 M 17.113281 9.75 "/>
<path style=" stroke:none;fill-rule:nonzero;fill:rgb(0%,0%,0%);fill-opacity:1;" d="M 17.042969 7.617188 C 17.449219 7.617188 17.683594 7.957031 17.765625 8.394531 C 17.792969 8.589844 17.753906 8.816406 17.621094 8.976562 C 17.476562 9.160156 17.214844 9.269531 17.011719 9.269531 C 16.804688 9.269531 16.585938 9.300781 16.460938 9.148438 C 16.34375 8.988281 16.320312 8.644531 16.320312 8.394531 C 16.320312 8.113281 16.410156 7.917969 16.554688 7.761719 C 16.667969 7.644531 16.871094 7.621094 17.042969 7.621094 M 17.042969 7.621094 "/>
<path style=" stroke:none;fill-rule:nonzero;fill:rgb(97.647059%,97.647059%,97.647059%);fill-opacity:1;" d="M 14.628906 12.105469 C 13.929688 12.132812 12.816406 10.285156 12.789062 11.054688 C 12.769531 11.703125 12.808594 11.691406 12.808594 12.316406 C 12.808594 12.738281 12.601562 12.773438 12.160156 13.402344 C 11.933594 13.738281 11.753906 14.097656 11.621094 14.464844 C 11.53125 14.683594 11.449219 14.910156 11.386719 15.132812 C 11.359375 15.246094 11.308594 15.363281 11.277344 15.472656 C 11.0625 16.238281 10.269531 17.183594 10.089844 17.949219 C 9.902344 18.707031 9.6875 19.195312 9.71875 20.210938 C 9.746094 21.230469 9.753906 20.9375 10.082031 21.191406 C 10.40625 21.445312 10.738281 21.683594 11.25 22.105469 C 11.792969 22.558594 12.914062 23.316406 13.0625 23.5625 C 13.222656 23.804688 13.222656 24.347656 13.125 24.527344 C 13.027344 24.699219 12.183594 24.792969 12.183594 24.792969 C 12.183594 24.792969 12.921875 25.761719 13.074219 25.894531 C 13.214844 26.027344 13.820312 26.667969 16.277344 26.238281 C 17.664062 25.984375 18.734375 25.261719 19.511719 24.5625 C 20.511719 23.636719 20.003906 23.378906 20.132812 22.917969 C 20.324219 22.25 20.9375 22.003906 21.074219 21.253906 C 21.09375 21.144531 21.128906 21.066406 21.234375 20.898438 C 21.390625 20.683594 21.355469 20.234375 21.355469 19.835938 C 21.355469 18.777344 21.226562 17.710938 20.964844 16.917969 C 20.726562 16.175781 20.347656 15.660156 20.027344 14.992188 C 19.382812 13.664062 19.414062 13.0625 18.832031 12.214844 C 18.179688 11.230469 18.503906 10.578125 17.628906 10.617188 C 16.542969 10.675781 15.660156 12.074219 14.632812 12.117188 M 14.632812 12.117188 "/>
<path style=" stroke:none;fill-rule:nonzero;fill:rgb(97.647059%,87.058824%,41.176471%);fill-opacity:1;" d="M 15.003906 8.621094 C 14.722656 8.652344 14.550781 8.625 14.28125 8.753906 C 13.996094 8.890625 13.570312 9.214844 13.339844 9.402344 C 12.898438 9.765625 12.585938 9.917969 12.601562 10.363281 C 12.613281 10.785156 12.980469 11.121094 13.386719 11.425781 C 13.78125 11.738281 14.121094 12.121094 14.363281 12.199219 C 14.617188 12.292969 15.054688 12.273438 15.371094 12.273438 C 16.066406 12.273438 16.972656 11.445312 17.480469 11.300781 C 18.113281 11.109375 18.332031 10.792969 18.382812 10.078125 C 18.425781 9.480469 17.496094 9.371094 16.792969 9.15625 C 16.582031 9.097656 16.417969 9.007812 16.1875 8.847656 C 15.941406 8.675781 15.394531 8.589844 15.003906 8.632812 Z M 8.644531 20.59375 C 8.203125 20.585938 7.957031 20.808594 7.675781 21.074219 C 7.398438 21.339844 7.0625 22.011719 6.574219 22.335938 C 6.09375 22.664062 4.859375 22.636719 4.546875 23.019531 C 4.242188 23.40625 4.558594 23.960938 4.550781 24.996094 C 4.550781 25.4375 4.472656 25.769531 4.417969 26.039062 C 4.339844 26.378906 4.292969 26.617188 4.445312 26.863281 C 4.722656 27.289062 5.160156 27.402344 7.691406 27.894531 C 9.042969 28.160156 10.324219 28.839844 11.179688 28.910156 C 12.035156 28.96875 12.222656 28.699219 12.746094 28.265625 C 13.261719 27.828125 13.429688 27.960938 13.410156 27.007812 C 13.394531 26.050781 12.746094 25.769531 12.007812 24.667969 C 11.269531 23.570312 11.148438 23.367188 10.660156 22.636719 C 10.167969 21.917969 9.199219 20.609375 8.644531 20.59375 Z M 20.804688 21.109375 C 20.460938 21.109375 20.394531 21.117188 20.101562 21.289062 C 19.941406 21.382812 19.929688 21.980469 19.929688 22.695312 C 19.929688 23.253906 19.933594 23.886719 19.878906 24.398438 C 19.757812 25.59375 19.496094 26.285156 19.472656 27.058594 C 19.449219 27.824219 19.726562 28.339844 19.972656 28.542969 C 20.214844 28.753906 20.582031 28.910156 21.386719 28.910156 C 22.1875 28.910156 22.6875 28.742188 23.21875 28.246094 C 23.558594 27.925781 23.917969 27.625 24.964844 26.953125 C 25.792969 26.425781 27.042969 25.839844 27.292969 25.605469 C 27.417969 25.492188 27.636719 25.378906 27.65625 24.957031 C 27.667969 24.589844 27.355469 24.46875 27.132812 24.339844 C 26.824219 24.175781 26.023438 23.566406 25.621094 22.972656 C 25.378906 22.609375 25.722656 22.011719 25.386719 21.558594 L 25.386719 21.566406 C 25.1875 21.289062 24.832031 21.410156 24.78125 21.410156 C 24.722656 21.410156 24.414062 21.910156 24.292969 22.058594 C 24.160156 22.214844 23.808594 22.472656 23.5625 22.621094 C 23.316406 22.769531 23.121094 22.847656 22.589844 22.816406 C 22.0625 22.773438 21.914062 22.605469 21.746094 22.472656 C 21.582031 22.335938 21.414062 22.230469 21.445312 21.898438 C 21.480469 21.566406 21.527344 21.332031 21.417969 21.234375 C 21.304688 21.125 21.152344 21.109375 20.804688 21.109375 Z M 20.804688 21.109375 "/>
<path style=" stroke:none;fill-rule:nonzero;fill:rgb(100%,100%,100%);fill-opacity:0.2;" d="M 15.925781 3.082031 C 15.277344 3.082031 14.53125 3.222656 13.730469 3.613281 C 12.316406 4.304688 11.988281 5.546875 12.035156 7.660156 C 12.074219 5.949219 12.472656 4.902344 13.730469 4.285156 C 14.53125 3.894531 15.277344 3.757812 15.925781 3.753906 C 16.878906 3.746094 17.617188 4.03125 18.003906 4.222656 C 18.285156 4.363281 18.859375 4.644531 19.285156 5.125 C 19.707031 5.597656 20.09375 6.308594 20.308594 7.210938 C 20.386719 7.539062 20.433594 7.785156 20.457031 7.984375 C 20.488281 7.683594 20.507812 7.355469 20.308594 6.539062 C 20.09375 5.636719 19.707031 4.925781 19.285156 4.453125 C 18.859375 3.972656 18.285156 3.691406 18.003906 3.550781 C 17.617188 3.355469 16.878906 3.074219 15.925781 3.082031 Z M 20.441406 8.808594 C 20.402344 9.132812 20.386719 9.515625 20.628906 10.496094 C 21.121094 12.5625 22.128906 13.582031 23.359375 15.214844 C 24.355469 16.535156 25.382812 18.550781 25.527344 20.101562 C 25.699219 18.511719 24.507812 16.066406 23.359375 14.542969 C 22.128906 12.90625 21.121094 11.890625 20.628906 9.824219 C 20.519531 9.378906 20.464844 9.058594 20.441406 8.808594 Z M 12.246094 11.601562 C 12.070312 12.574219 11.027344 13.347656 10.109375 14.707031 C 9.074219 16.246094 8.953125 17.507812 8.167969 18.777344 C 7.578125 19.726562 7.511719 19.894531 7.644531 20.410156 C 7.71875 20.191406 7.882812 19.914062 8.167969 19.453125 C 8.953125 18.179688 9.074219 16.921875 10.109375 15.382812 C 11.148438 13.835938 12.355469 13.050781 12.265625 11.871094 C 12.261719 11.773438 12.253906 11.691406 12.246094 11.601562 Z M 7.648438 21.105469 C 7.375 21.386719 7.046875 22.019531 6.574219 22.335938 C 6.09375 22.664062 4.859375 22.636719 4.546875 23.019531 C 4.378906 23.230469 4.402344 23.503906 4.453125 23.871094 C 4.472656 23.808594 4.503906 23.746094 4.546875 23.691406 C 4.859375 23.308594 6.09375 23.335938 6.574219 23.011719 C 7.0625 22.683594 7.398438 22.011719 7.675781 21.746094 C 7.714844 21.707031 7.753906 21.671875 7.792969 21.636719 C 7.734375 21.417969 7.683594 21.246094 7.648438 21.105469 Z M 25.339844 21.507812 C 25.277344 21.683594 25.199219 21.867188 25.109375 22.066406 C 25.207031 22.082031 25.308594 22.128906 25.386719 22.238281 L 25.386719 22.230469 C 25.464844 22.339844 25.507812 22.453125 25.527344 22.574219 C 25.527344 22.246094 25.617188 21.871094 25.386719 21.558594 L 25.386719 21.566406 C 25.371094 21.542969 25.355469 21.527344 25.339844 21.507812 Z M 25.542969 22.777344 C 25.550781 23.097656 25.46875 23.417969 25.621094 23.644531 C 26.023438 24.242188 26.824219 24.847656 27.132812 25.015625 C 27.277344 25.097656 27.457031 25.175781 27.5625 25.320312 C 27.613281 25.234375 27.648438 25.117188 27.65625 24.957031 C 27.667969 24.589844 27.355469 24.46875 27.132812 24.339844 C 26.824219 24.175781 26.023438 23.566406 25.621094 22.972656 C 25.582031 22.910156 25.558594 22.847656 25.542969 22.777344 Z M 4.539062 25.285156 C 4.515625 25.585938 4.460938 25.832031 4.417969 26.039062 C 4.347656 26.34375 4.300781 26.566406 4.402344 26.785156 C 4.410156 26.761719 4.414062 26.738281 4.417969 26.710938 C 4.472656 26.441406 4.550781 26.113281 4.550781 25.667969 C 4.550781 25.53125 4.546875 25.402344 4.539062 25.285156 Z M 4.539062 25.285156 "/>
<path style=" stroke:none;fill-rule:nonzero;fill:rgb(97.647059%,69.411767%,32.941177%);fill-opacity:1;" d="M 18.332031 9.824219 C 18.230469 10.285156 17.988281 10.523438 17.480469 10.675781 C 16.972656 10.820312 16.066406 11.273438 15.371094 11.273438 C 15.054688 11.273438 14.617188 11.292969 14.363281 11.199219 C 14.121094 11.121094 13.78125 11.113281 13.386719 10.800781 C 13.082031 10.566406 12.792969 10.320312 12.667969 10.03125 C 12.621094 10.125 12.597656 10.230469 12.601562 10.363281 C 12.613281 10.785156 12.980469 11.117188 13.386719 11.425781 C 13.78125 11.738281 14.121094 12.121094 14.363281 12.199219 C 14.617188 12.292969 15.054688 12.273438 15.371094 12.273438 C 16.066406 12.273438 16.972656 11.445312 17.480469 11.300781 C 18.113281 11.109375 18.332031 10.792969 18.382812 10.078125 C 18.390625 9.980469 18.371094 9.898438 18.332031 9.824219 Z M 21.445312 21.269531 C 21.445312 21.269531 21.445312 21.269531 21.445312 21.273438 C 21.433594 21.394531 21.449219 21.488281 21.480469 21.558594 C 21.488281 21.429688 21.488281 21.332031 21.445312 21.269531 Z M 25.527344 21.902344 C 25.527344 21.988281 25.527344 22.074219 25.542969 22.148438 C 25.542969 22.066406 25.542969 21.984375 25.527344 21.902344 Z M 4.449219 23.210938 C 4.347656 23.535156 4.5 23.96875 4.542969 24.632812 C 4.546875 24.550781 4.550781 24.464844 4.550781 24.371094 C 4.554688 23.890625 4.488281 23.519531 4.449219 23.210938 Z M 27.578125 24.667969 C 27.496094 24.832031 27.371094 24.90625 27.292969 24.980469 C 27.042969 25.214844 25.792969 25.800781 24.964844 26.328125 C 23.917969 27 23.558594 27.300781 23.21875 27.621094 C 22.6875 28.117188 22.1875 28.285156 21.386719 28.285156 C 20.582031 28.285156 20.214844 28.128906 19.972656 27.917969 C 19.769531 27.753906 19.550781 27.378906 19.488281 26.828125 C 19.480469 26.902344 19.476562 26.980469 19.472656 27.054688 C 19.449219 27.824219 19.726562 28.339844 19.972656 28.542969 C 20.214844 28.753906 20.582031 28.910156 21.386719 28.910156 C 22.1875 28.910156 22.6875 28.742188 23.21875 28.246094 C 23.558594 27.925781 23.917969 27.625 24.964844 26.953125 C 25.792969 26.425781 27.042969 25.839844 27.292969 25.605469 C 27.417969 25.492188 27.636719 25.378906 27.65625 24.957031 C 27.660156 24.835938 27.628906 24.746094 27.578125 24.667969 Z M 4.394531 26.144531 C 4.332031 26.429688 4.308594 26.644531 4.445312 26.863281 C 4.722656 27.289062 5.160156 27.402344 7.691406 27.894531 C 9.042969 28.160156 10.324219 28.839844 11.179688 28.910156 C 12.035156 28.96875 12.222656 28.699219 12.746094 28.265625 C 13.261719 27.828125 13.429688 27.960938 13.410156 27.007812 C 13.410156 26.941406 13.40625 26.882812 13.402344 26.824219 C 13.351562 27.304688 13.160156 27.289062 12.746094 27.640625 C 12.222656 28.074219 12.035156 28.34375 11.179688 28.285156 C 10.324219 28.214844 9.042969 27.535156 7.691406 27.269531 C 5.160156 26.777344 4.722656 26.664062 4.445312 26.238281 C 4.425781 26.207031 4.410156 26.175781 4.394531 26.144531 Z M 4.394531 26.144531 "/>
</g>
</svg>
