
<svg xmlns="http://www.w3.org/2000/svg" xmlns:xlink="http://www.w3.org/1999/xlink" width="32px" height="32px" viewBox="0 0 32 32" version="1.1">
<g id="surface1">
<path style=" stroke:none;fill-rule:evenodd;fill:rgb(23.137255%,17.254902%,17.254902%);fill-opacity:1;" d="M 4.660156 1.058594 L 27.332031 1.058594 C 29.1875 1.058594 30.691406 2.5625 30.691406 4.417969 L 30.691406 27.601562 C 30.691406 29.457031 29.1875 30.964844 27.332031 30.964844 L 4.660156 30.964844 C 2.804688 30.964844 1.300781 29.457031 1.300781 27.601562 L 1.300781 4.417969 C 1.300781 2.5625 2.804688 1.058594 4.660156 1.058594 Z M 4.660156 1.058594 "/>
<path style=" stroke:none;fill-rule:evenodd;fill:rgb(100%,0%,0%);fill-opacity:1;" d="M 13.832031 21.503906 C 13.6875 21.402344 13.621094 21.148438 13.558594 20.441406 C 13.40625 18.847656 13.378906 18.789062 11.976562 17.308594 C 11.285156 16.582031 10.542969 15.6875 10.328125 15.328125 C 9.035156 13.148438 9.15625 10.242188 10.632812 7.996094 C 12.511719 5.144531 16.421875 4.191406 19.566406 5.820312 C 20.667969 6.394531 21.847656 7.605469 22.40625 8.742188 C 22.988281 9.925781 23.175781 10.863281 23.113281 12.300781 C 23.03125 14.3125 22.554688 15.289062 20.742188 17.175781 C 20.050781 17.890625 19.542969 18.519531 19.414062 18.808594 C 19.300781 19.066406 19.140625 19.746094 19.058594 20.320312 C 18.980469 20.894531 18.863281 21.414062 18.808594 21.472656 C 18.632812 21.644531 14.0625 21.675781 13.832031 21.503906 Z M 16.941406 17.472656 C 17.21875 17.066406 17.960938 16.152344 18.59375 15.445312 C 19.914062 13.964844 20.253906 13.367188 20.332031 12.40625 C 20.476562 10.609375 19.699219 9.113281 18.183594 8.277344 C 17.648438 7.980469 17.574219 7.96875 16.335938 7.96875 C 15.191406 7.96875 14.992188 7.996094 14.554688 8.210938 C 13.832031 8.566406 13.019531 9.355469 12.695312 10.015625 C 12.148438 11.136719 12.117188 12.699219 12.625 13.691406 C 12.742188 13.921875 13.371094 14.714844 14.019531 15.457031 C 14.671875 16.191406 15.4375 17.144531 15.722656 17.566406 C 16.011719 17.992188 16.289062 18.308594 16.34375 18.277344 C 16.398438 18.242188 16.667969 17.878906 16.941406 17.472656 Z M 16.941406 17.472656 "/>
<path style=" stroke:none;fill-rule:evenodd;fill:rgb(100%,0%,0%);fill-opacity:1;" d="M 15.078125 23.28125 C 14.414062 23.253906 13.824219 23.183594 13.769531 23.128906 C 13.539062 22.890625 13.535156 22.503906 13.761719 22.296875 C 13.972656 22.109375 14.148438 22.097656 16.269531 22.097656 C 18.792969 22.097656 19.019531 22.140625 19.019531 22.652344 C 19.019531 22.816406 18.941406 23.011719 18.847656 23.089844 C 18.636719 23.261719 16.808594 23.355469 15.078125 23.28125 Z M 15.078125 23.28125 "/>
<path style=" stroke:none;fill-rule:evenodd;fill:rgb(100%,0%,0%);fill-opacity:1;" d="M 14.402344 24.769531 C 14.144531 24.589844 14.089844 24.097656 14.308594 23.917969 C 14.613281 23.660156 17.882812 23.644531 18.292969 23.898438 C 18.488281 24.019531 18.449219 24.640625 18.230469 24.800781 C 17.945312 25.007812 14.703125 24.984375 14.402344 24.769531 Z M 14.402344 24.769531 "/>
<path style=" stroke:none;fill-rule:evenodd;fill:rgb(100%,0%,0%);fill-opacity:1;" d="M 15.003906 26.308594 C 14.816406 26.152344 14.777344 25.730469 14.933594 25.574219 C 15.15625 25.351562 17.492188 25.339844 17.785156 25.558594 C 17.925781 25.660156 17.894531 26.199219 17.742188 26.335938 C 17.535156 26.515625 15.21875 26.496094 15.003906 26.308594 Z M 15.003906 26.308594 "/>
</g>
</svg>
