
<svg xmlns="http://www.w3.org/2000/svg" xmlns:xlink="http://www.w3.org/1999/xlink" width="32px" height="32px" viewBox="0 0 32 32" version="1.1">
<g id="surface1">
<path style="fill-rule:nonzero;fill:rgb(40.000001%,40.000001%,40.000001%);fill-opacity:1;stroke-width:27.261341;stroke-linecap:butt;stroke-linejoin:miter;stroke:rgb(29.019609%,68.235296%,90.196079%);stroke-opacity:1;stroke-miterlimit:4;" d="M 87.232674 32.703823 L 424.741678 32.703823 C 454.890465 32.703823 479.287976 57.101335 479.287976 87.250121 L 479.287976 424.759125 C 479.287976 454.847372 454.890465 479.305423 424.741678 479.305423 L 87.232674 479.305423 C 57.144428 479.305423 32.686376 454.847372 32.686376 424.759125 L 32.686376 87.250121 C 32.686376 57.101335 57.144428 32.703823 87.232674 32.703823 Z M 87.232674 32.703823 " transform="matrix(0.0645237,0,0,0.0645237,-0.382485,-0.246892)"/>
<path style=" stroke:none;fill-rule:evenodd;fill:rgb(34.117648%,68.235296%,78.039217%);fill-opacity:1;" d="M 20.121094 15.636719 C 20.3125 15.929688 20.472656 16.238281 20.554688 16.582031 C 20.925781 18.132812 19.980469 19.609375 18.492188 19.953125 C 17.707031 20.136719 16.980469 19.988281 16.308594 19.550781 C 16.292969 19.539062 16.277344 19.53125 16.253906 19.515625 C 16.214844 19.570312 16.21875 19.632812 16.207031 19.6875 C 15.941406 20.792969 15.066406 21.609375 13.949219 21.792969 C 12.472656 22.035156 11.082031 21.066406 10.785156 19.589844 C 10.78125 19.5625 10.773438 19.539062 10.769531 19.511719 C 10.769531 19.503906 10.773438 19.496094 10.773438 19.488281 C 10.800781 19.484375 10.820312 19.464844 10.839844 19.449219 C 11.128906 19.230469 11.367188 18.960938 11.621094 18.707031 C 12.195312 18.125 12.789062 17.566406 13.34375 16.96875 C 13.40625 16.902344 13.441406 16.8125 13.515625 16.757812 C 13.601562 16.882812 13.691406 17.003906 13.800781 17.113281 C 14.503906 17.820312 15.210938 18.527344 15.917969 19.230469 C 16.011719 19.324219 16.109375 19.417969 16.234375 19.480469 C 16.269531 19.339844 16.28125 19.203125 16.28125 19.066406 C 16.285156 18.089844 16.285156 17.117188 16.28125 16.140625 C 16.28125 15.96875 16.261719 15.800781 16.222656 15.632812 C 16.359375 15.644531 16.496094 15.667969 16.632812 15.671875 C 17.683594 15.671875 18.730469 15.671875 19.78125 15.671875 C 19.886719 15.671875 19.992188 15.65625 20.097656 15.632812 C 20.105469 15.632812 20.113281 15.632812 20.121094 15.636719 "/>
<path style=" stroke:none;fill-rule:evenodd;fill:rgb(97.254902%,65.882355%,18.82353%);fill-opacity:1;" d="M 10.769531 6.296875 C 10.878906 5.691406 11.136719 5.164062 11.589844 4.75 C 12.382812 4.019531 13.3125 3.789062 14.339844 4.113281 C 15.363281 4.433594 15.984375 5.160156 16.222656 6.210938 C 16.230469 6.238281 16.238281 6.269531 16.246094 6.296875 C 16.257812 6.4375 16.28125 6.578125 16.28125 6.714844 C 16.285156 7.710938 16.285156 8.707031 16.28125 9.699219 C 16.28125 9.859375 16.265625 10.019531 16.226562 10.175781 C 16.210938 10.183594 16.195312 10.191406 16.179688 10.195312 C 15.613281 10.324219 15.125 10.59375 14.730469 11.015625 C 14.371094 11.402344 14.136719 11.851562 14.042969 12.371094 C 14.039062 12.371094 14.035156 12.375 14.03125 12.378906 C 13.925781 12.394531 13.832031 12.429688 13.722656 12.445312 C 13.589844 12.449219 13.445312 12.445312 13.3125 12.417969 C 13.402344 12.292969 13.503906 12.171875 13.582031 12.042969 C 13.898438 11.507812 14.03125 10.9375 13.964844 10.316406 C 13.898438 9.679688 13.640625 9.132812 13.199219 8.683594 C 12.503906 7.976562 11.796875 7.277344 11.09375 6.578125 C 10.996094 6.480469 10.894531 6.390625 10.773438 6.320312 C 10.769531 6.3125 10.769531 6.304688 10.769531 6.296875 "/>
<path style=" stroke:none;fill-rule:evenodd;fill:rgb(63.921571%,81.960785%,49.019608%);fill-opacity:1;" d="M 20.121094 15.636719 C 20.113281 15.632812 20.105469 15.632812 20.097656 15.632812 C 20.09375 15.621094 20.089844 15.613281 20.082031 15.605469 C 19.988281 15.464844 19.871094 15.34375 19.75 15.226562 C 18.949219 14.460938 18.214844 13.625 17.367188 12.90625 C 17.476562 12.796875 17.613281 12.71875 17.722656 12.609375 C 18.414062 11.910156 19.109375 11.21875 19.804688 10.523438 C 19.914062 10.417969 20.011719 10.300781 20.097656 10.179688 C 20.105469 10.175781 20.113281 10.175781 20.125 10.175781 C 20.652344 10.257812 21.117188 10.484375 21.515625 10.835938 C 22.019531 11.289062 22.324219 11.851562 22.417969 12.523438 C 22.617188 13.988281 21.648438 15.3125 20.25 15.613281 C 20.207031 15.621094 20.164062 15.628906 20.121094 15.636719 "/>
<path style=" stroke:none;fill-rule:evenodd;fill:rgb(74.901962%,86.274511%,45.09804%);fill-opacity:1;" d="M 20.125 10.175781 C 20.113281 10.175781 20.105469 10.175781 20.097656 10.179688 C 19.988281 10.152344 19.875 10.136719 19.761719 10.136719 C 18.726562 10.136719 17.6875 10.136719 16.652344 10.140625 C 16.511719 10.140625 16.367188 10.164062 16.226562 10.175781 C 16.265625 10.019531 16.28125 9.859375 16.28125 9.699219 C 16.285156 8.707031 16.285156 7.710938 16.28125 6.714844 C 16.28125 6.578125 16.257812 6.4375 16.246094 6.296875 C 16.617188 6.046875 17.019531 5.875 17.46875 5.8125 C 18.199219 5.710938 18.871094 5.867188 19.472656 6.296875 C 20.089844 6.734375 20.46875 7.335938 20.597656 8.082031 C 20.722656 8.808594 20.570312 9.488281 20.160156 10.105469 C 20.144531 10.128906 20.121094 10.144531 20.125 10.175781 "/>
<path style=" stroke:none;fill-rule:evenodd;fill:rgb(65.882355%,49.803922%,72.156864%);fill-opacity:1;" d="M 6.890625 15.636719 C 6.898438 15.632812 6.90625 15.632812 6.914062 15.628906 C 7.011719 15.660156 7.113281 15.671875 7.210938 15.667969 C 8.402344 15.648438 9.597656 15.722656 10.785156 15.628906 C 10.753906 15.820312 10.730469 16.011719 10.730469 16.207031 C 10.730469 17.0625 10.730469 17.914062 10.730469 18.769531 C 10.730469 19.011719 10.734375 19.25 10.773438 19.488281 C 10.773438 19.496094 10.769531 19.503906 10.769531 19.511719 C 10.425781 19.742188 10.054688 19.914062 9.644531 19.980469 C 8.773438 20.125 7.992188 19.917969 7.324219 19.34375 C 6.785156 18.878906 6.472656 18.28125 6.394531 17.574219 C 6.316406 16.898438 6.472656 16.273438 6.851562 15.703125 C 6.867188 15.683594 6.878906 15.660156 6.890625 15.636719 "/>
<path style=" stroke:none;fill-rule:evenodd;fill:rgb(92.156863%,47.058824%,52.156866%);fill-opacity:1;" d="M 6.914062 10.179688 C 6.90625 10.179688 6.898438 10.175781 6.886719 10.175781 C 6.839844 10.09375 6.792969 10.015625 6.746094 9.933594 C 6.496094 9.507812 6.371094 9.039062 6.375 8.546875 C 6.382812 7.160156 7.367188 6.046875 8.679688 5.820312 C 9.40625 5.695312 10.082031 5.847656 10.699219 6.253906 C 10.722656 6.269531 10.746094 6.285156 10.769531 6.296875 C 10.769531 6.304688 10.769531 6.3125 10.773438 6.320312 C 10.757812 6.449219 10.734375 6.582031 10.734375 6.710938 C 10.730469 7.707031 10.730469 8.707031 10.734375 9.703125 C 10.734375 9.863281 10.746094 10.023438 10.792969 10.179688 C 10.65625 10.164062 10.519531 10.140625 10.382812 10.140625 C 9.332031 10.136719 8.285156 10.136719 7.234375 10.140625 C 7.125 10.140625 7.019531 10.152344 6.914062 10.179688 "/>
<path style=" stroke:none;fill-rule:evenodd;fill:rgb(36.078432%,31.764707%,61.176473%);fill-opacity:1;" d="M 10.773438 19.488281 C 10.734375 19.25 10.730469 19.011719 10.730469 18.769531 C 10.730469 17.914062 10.730469 17.0625 10.730469 16.207031 C 10.730469 16.011719 10.753906 15.820312 10.785156 15.628906 C 10.789062 15.625 10.789062 15.617188 10.792969 15.609375 C 10.824219 15.613281 10.859375 15.609375 10.890625 15.597656 C 11.679688 15.402344 12.28125 14.949219 12.679688 14.242188 C 12.824219 13.992188 12.929688 13.726562 12.96875 13.433594 C 12.972656 13.433594 12.976562 13.429688 12.980469 13.429688 C 13.085938 13.414062 13.191406 13.398438 13.296875 13.386719 C 13.304688 13.386719 13.308594 13.390625 13.316406 13.390625 C 13.363281 13.488281 13.457031 13.554688 13.5 13.652344 C 13.492188 13.667969 13.492188 13.679688 13.484375 13.691406 C 13.039062 14.386719 12.925781 15.136719 13.136719 15.933594 C 13.210938 16.222656 13.328125 16.5 13.515625 16.738281 C 13.515625 16.746094 13.515625 16.753906 13.515625 16.757812 C 13.441406 16.8125 13.40625 16.902344 13.34375 16.96875 C 12.789062 17.566406 12.195312 18.125 11.621094 18.707031 C 11.367188 18.960938 11.128906 19.230469 10.839844 19.449219 C 10.820312 19.464844 10.800781 19.484375 10.773438 19.488281 "/>
<path style=" stroke:none;fill-rule:evenodd;fill:rgb(15.686275%,43.137255%,63.137257%);fill-opacity:1;" d="M 13.515625 16.757812 C 13.515625 16.753906 13.515625 16.746094 13.515625 16.738281 C 13.523438 16.722656 13.53125 16.707031 13.539062 16.695312 C 14.035156 15.886719 14.109375 15.039062 13.773438 14.152344 C 13.707031 13.976562 13.605469 13.820312 13.515625 13.65625 C 13.554688 13.554688 13.648438 13.488281 13.699219 13.390625 C 13.703125 13.386719 13.707031 13.386719 13.714844 13.386719 C 13.816406 13.414062 13.925781 13.414062 14.035156 13.425781 C 14.035156 13.429688 14.039062 13.433594 14.042969 13.4375 C 14.042969 13.449219 14.039062 13.460938 14.042969 13.476562 C 14.246094 14.523438 15.140625 15.414062 16.203125 15.617188 C 16.210938 15.621094 16.21875 15.628906 16.222656 15.632812 C 16.261719 15.800781 16.28125 15.96875 16.28125 16.140625 C 16.285156 17.117188 16.285156 18.089844 16.28125 19.066406 C 16.28125 19.203125 16.269531 19.339844 16.234375 19.480469 C 16.109375 19.417969 16.011719 19.324219 15.917969 19.230469 C 15.210938 18.527344 14.503906 17.820312 13.800781 17.113281 C 13.691406 17.003906 13.601562 16.882812 13.515625 16.757812 "/>
<path style=" stroke:none;fill-rule:evenodd;fill:rgb(20.784314%,59.215689%,40.784314%);fill-opacity:1;" d="M 16.222656 15.632812 C 16.21875 15.628906 16.210938 15.621094 16.203125 15.617188 C 16.226562 15.597656 16.21875 15.578125 16.210938 15.554688 C 16.101562 15.0625 15.875 14.628906 15.53125 14.261719 C 15.121094 13.828125 14.625 13.554688 14.042969 13.4375 C 14.039062 13.433594 14.035156 13.429688 14.035156 13.425781 C 14.015625 13.328125 14.015625 13.222656 13.980469 13.125 C 13.984375 13.113281 13.992188 13.105469 13.996094 13.09375 C 14.078125 13.03125 14.164062 12.964844 14.246094 12.902344 C 14.253906 12.90625 14.261719 12.90625 14.269531 12.90625 C 14.34375 12.953125 14.414062 13 14.492188 13.042969 C 15.054688 13.339844 15.652344 13.433594 16.28125 13.328125 C 16.664062 13.261719 17.015625 13.125 17.335938 12.90625 L 17.367188 12.90625 C 18.214844 13.625 18.949219 14.460938 19.75 15.226562 C 19.871094 15.34375 19.988281 15.464844 20.082031 15.605469 C 20.089844 15.613281 20.09375 15.621094 20.097656 15.632812 C 19.992188 15.65625 19.886719 15.671875 19.78125 15.671875 C 18.730469 15.671875 17.683594 15.671875 16.632812 15.671875 C 16.496094 15.667969 16.359375 15.644531 16.222656 15.632812 "/>
<path style=" stroke:none;fill-rule:evenodd;fill:rgb(86.274511%,29.019609%,6.666667%);fill-opacity:1;" d="M 10.792969 10.179688 C 10.746094 10.023438 10.734375 9.863281 10.734375 9.703125 C 10.730469 8.707031 10.730469 7.707031 10.734375 6.710938 C 10.734375 6.582031 10.757812 6.449219 10.773438 6.320312 C 10.894531 6.390625 10.996094 6.480469 11.09375 6.578125 C 11.796875 7.277344 12.503906 7.976562 13.199219 8.683594 C 13.640625 9.132812 13.898438 9.679688 13.964844 10.316406 C 14.03125 10.9375 13.898438 11.507812 13.582031 12.042969 C 13.503906 12.171875 13.402344 12.292969 13.3125 12.417969 C 13.308594 12.417969 13.304688 12.421875 13.296875 12.421875 C 13.1875 12.410156 13.082031 12.394531 12.972656 12.378906 C 12.96875 12.34375 12.964844 12.304688 12.957031 12.269531 C 12.855469 11.828125 12.65625 11.4375 12.363281 11.097656 C 12.097656 10.792969 11.78125 10.550781 11.410156 10.382812 C 11.210938 10.292969 11.003906 10.238281 10.792969 10.179688 "/>
<path style=" stroke:none;fill-rule:evenodd;fill:rgb(49.803922%,72.156864%,20.784314%);fill-opacity:1;" d="M 14.269531 12.90625 C 14.261719 12.90625 14.253906 12.90625 14.246094 12.902344 C 14.167969 12.835938 14.09375 12.773438 14.003906 12.71875 C 13.984375 12.601562 14.03125 12.492188 14.03125 12.378906 C 14.035156 12.375 14.039062 12.371094 14.042969 12.371094 C 14.507812 12.273438 14.925781 12.078125 15.289062 11.769531 C 15.757812 11.367188 16.066406 10.867188 16.203125 10.265625 C 16.210938 10.230469 16.226562 10.203125 16.179688 10.195312 C 16.195312 10.191406 16.210938 10.183594 16.226562 10.175781 C 16.367188 10.164062 16.511719 10.140625 16.652344 10.140625 C 17.6875 10.136719 18.726562 10.136719 19.761719 10.136719 C 19.875 10.136719 19.988281 10.152344 20.097656 10.179688 C 20.011719 10.300781 19.914062 10.417969 19.804688 10.523438 C 19.109375 11.21875 18.414062 11.910156 17.722656 12.609375 C 17.613281 12.71875 17.476562 12.796875 17.367188 12.90625 C 17.359375 12.90625 17.347656 12.90625 17.335938 12.90625 C 17.234375 12.816406 17.117188 12.761719 17 12.707031 C 16.453125 12.445312 15.875 12.378906 15.28125 12.484375 C 14.917969 12.554688 14.574219 12.6875 14.269531 12.90625 "/>
<path style=" stroke:none;fill-rule:evenodd;fill:rgb(18.039216%,0.784314%,6.666667%);fill-opacity:1;" d="M 16.167969 10.171875 C 16.214844 10.179688 16.234375 10.160156 16.230469 10.191406 C 16.136719 10.808594 15.757812 11.367188 15.289062 11.769531 C 14.925781 12.078125 14.507812 12.273438 14.042969 12.371094 C 14.136719 11.851562 14.371094 11.402344 14.730469 11.015625 C 15.125 10.59375 15.636719 10.25 16.203125 10.125 "/>
<path style=" stroke:none;fill-rule:evenodd;fill:rgb(74.901962%,86.274511%,45.09804%);fill-opacity:1;" d="M 13.988281 12.722656 C 13.90625 12.613281 13.785156 12.539062 13.710938 12.421875 C 13.820312 12.40625 13.925781 12.394531 14.03125 12.378906 C 14.03125 12.492188 13.984375 12.601562 14.003906 12.71875 C 14 12.722656 13.996094 12.722656 13.988281 12.722656 "/>
<path style=" stroke:none;fill-rule:evenodd;fill:rgb(92.156863%,36.078432%,52.941179%);fill-opacity:1;" d="M 6.890625 15.636719 C 5.785156 15.476562 4.851562 14.578125 4.628906 13.460938 C 4.34375 12.050781 5.160156 10.679688 6.535156 10.253906 C 6.652344 10.21875 6.765625 10.191406 6.886719 10.175781 C 6.898438 10.175781 6.90625 10.179688 6.914062 10.179688 C 6.980469 10.277344 7.054688 10.367188 7.136719 10.453125 C 7.863281 11.179688 8.589844 11.90625 9.316406 12.632812 C 9.414062 12.730469 9.523438 12.816406 9.640625 12.886719 C 9.636719 12.929688 9.601562 12.945312 9.574219 12.96875 C 9.488281 13.035156 9.394531 13.101562 9.316406 13.175781 C 8.582031 13.90625 7.851562 14.640625 7.121094 15.371094 C 7.042969 15.449219 6.972656 15.535156 6.914062 15.628906 C 6.90625 15.632812 6.898438 15.632812 6.890625 15.636719 "/>
<path style=" stroke:none;fill-rule:evenodd;fill:rgb(80.000001%,10.980392%,16.862746%);fill-opacity:1;" d="M 10.792969 10.179688 C 11.003906 10.234375 11.210938 10.292969 11.410156 10.382812 C 11.78125 10.554688 12.097656 10.796875 12.363281 11.105469 C 12.65625 11.445312 12.855469 11.84375 12.957031 12.285156 C 12.964844 12.324219 12.96875 12.359375 12.972656 12.394531 C 12.992188 12.515625 13.03125 12.632812 13 12.757812 C 12.914062 12.804688 12.824219 12.855469 12.765625 12.941406 C 12.753906 12.945312 12.742188 12.945312 12.730469 12.945312 C 12.714844 12.875 12.648438 12.859375 12.597656 12.832031 C 12.234375 12.609375 11.835938 12.503906 11.414062 12.457031 C 11.273438 12.421875 11.132812 12.421875 10.992188 12.457031 C 10.847656 12.480469 10.703125 12.5 10.558594 12.53125 C 10.242188 12.605469 9.957031 12.742188 9.683594 12.90625 C 9.667969 12.90625 9.65625 12.90625 9.640625 12.90625 C 9.523438 12.835938 9.414062 12.75 9.316406 12.652344 C 8.589844 11.917969 7.863281 11.1875 7.136719 10.453125 C 7.054688 10.367188 6.980469 10.277344 6.914062 10.175781 C 7.019531 10.152344 7.125 10.136719 7.234375 10.136719 C 8.285156 10.136719 9.332031 10.132812 10.382812 10.136719 C 10.519531 10.136719 10.65625 10.164062 10.792969 10.179688 "/>
<path style=" stroke:none;fill-rule:evenodd;fill:rgb(70.980394%,16.862746%,34.117648%);fill-opacity:1;" d="M 12.730469 12.921875 C 12.742188 12.921875 12.753906 12.921875 12.765625 12.921875 C 12.859375 12.960938 12.921875 13.042969 13.007812 13.089844 C 13.023438 13.207031 12.992188 13.316406 12.980469 13.429688 C 12.976562 13.429688 12.972656 13.433594 12.96875 13.433594 C 12.367188 13.554688 11.859375 13.84375 11.449219 14.296875 C 11.109375 14.671875 10.882812 15.109375 10.792969 15.609375 C 10.789062 15.617188 10.789062 15.625 10.785156 15.628906 C 9.597656 15.722656 8.402344 15.648438 7.210938 15.667969 C 7.113281 15.671875 7.011719 15.660156 6.914062 15.628906 C 6.972656 15.535156 7.042969 15.449219 7.121094 15.371094 C 7.851562 14.640625 8.582031 13.90625 9.316406 13.175781 C 9.394531 13.101562 9.488281 13.035156 9.574219 12.96875 C 9.601562 12.945312 9.636719 12.929688 9.640625 12.886719 C 9.65625 12.886719 9.667969 12.886719 9.683594 12.886719 C 9.675781 12.917969 9.699219 12.929688 9.71875 12.941406 C 10.257812 13.28125 10.84375 13.414062 11.472656 13.363281 C 11.925781 13.324219 12.347656 13.167969 12.730469 12.921875 "/>
<path style=" stroke:none;fill-rule:evenodd;fill:rgb(18.039216%,0.784314%,6.666667%);fill-opacity:1;" d="M 10.792969 15.609375 C 10.863281 15.09375 11.09375 14.644531 11.433594 14.269531 C 11.84375 13.8125 12.378906 13.546875 12.980469 13.425781 C 12.941406 13.71875 12.824219 13.992188 12.679688 14.242188 C 12.261719 15.019531 11.539062 15.5625 10.785156 15.628906 "/>
<path style=" stroke:none;fill-rule:evenodd;fill:rgb(18.039216%,0.784314%,6.666667%);fill-opacity:1;" d="M 13.515625 13.65625 C 13.605469 13.820312 13.707031 13.976562 13.773438 14.152344 C 14.109375 15.039062 14.078125 15.898438 13.582031 16.707031 C 13.574219 16.722656 13.523438 16.765625 13.515625 16.78125 C 13.328125 16.542969 13.210938 16.222656 13.136719 15.933594 C 12.925781 15.136719 13.039062 14.386719 13.484375 13.691406 C 13.492188 13.679688 13.492188 13.667969 13.5 13.652344 C 13.5 13.652344 13.507812 13.652344 13.507812 13.652344 Z M 13.515625 13.65625 "/>
<path style=" stroke:none;fill-rule:evenodd;fill:rgb(65.882355%,49.803922%,72.156864%);fill-opacity:1;" d="M 12.980469 13.429688 C 12.992188 13.316406 13.023438 13.207031 13.007812 13.089844 C 13.007812 13.089844 13.015625 13.089844 13.015625 13.089844 L 13.023438 13.089844 C 13.105469 13.195312 13.226562 13.265625 13.296875 13.386719 C 13.191406 13.398438 13.085938 13.414062 12.980469 13.429688 "/>
<path style=" stroke:none;fill-rule:evenodd;fill:rgb(34.117648%,68.235296%,78.039217%);fill-opacity:1;" d="M 13.515625 13.65625 L 13.507812 13.652344 C 13.507812 13.652344 13.5 13.652344 13.5 13.652344 C 13.457031 13.554688 13.363281 13.488281 13.316406 13.390625 C 13.441406 13.371094 13.570312 13.375 13.699219 13.390625 C 13.648438 13.488281 13.554688 13.554688 13.515625 13.65625 "/>
<path style=" stroke:none;fill-rule:evenodd;fill:rgb(18.039216%,0.784314%,6.666667%);fill-opacity:1;" d="M 14.042969 13.4375 C 14.625 13.554688 15.121094 13.828125 15.53125 14.261719 C 15.875 14.628906 16.117188 15.054688 16.226562 15.546875 C 16.234375 15.570312 16.25 15.617188 16.222656 15.636719 C 15.164062 15.433594 14.246094 14.523438 14.042969 13.476562 C 14.039062 13.460938 14.042969 13.449219 14.042969 13.4375 "/>
<path style=" stroke:none;fill-rule:evenodd;fill:rgb(34.117648%,68.235296%,78.039217%);fill-opacity:1;" d="M 13.714844 13.386719 C 13.789062 13.285156 13.871094 13.191406 13.980469 13.125 C 14.015625 13.222656 14.015625 13.328125 14.035156 13.425781 C 13.925781 13.414062 13.816406 13.414062 13.714844 13.386719 "/>
<path style=" stroke:none;fill-rule:evenodd;fill:rgb(18.039216%,0.784314%,6.666667%);fill-opacity:1;" d="M 14.273438 12.878906 C 14.574219 12.65625 14.917969 12.554688 15.28125 12.484375 C 15.875 12.378906 16.460938 12.445312 17.007812 12.707031 C 17.128906 12.761719 17.269531 12.816406 17.371094 12.902344 C 17.050781 13.121094 16.664062 13.261719 16.28125 13.328125 C 15.652344 13.433594 15.054688 13.339844 14.492188 13.042969 C 14.414062 13 14.316406 12.949219 14.242188 12.902344 "/>
<path style=" stroke:none;fill-rule:evenodd;fill:rgb(63.921571%,81.960785%,49.019608%);fill-opacity:1;" d="M 13.988281 12.722656 C 13.996094 12.722656 14 12.722656 14.003906 12.71875 C 14.09375 12.773438 14.167969 12.835938 14.246094 12.902344 C 14.164062 12.964844 14.078125 13.03125 13.996094 13.09375 C 13.96875 12.96875 13.980469 12.847656 13.988281 12.722656 "/>
<path style=" stroke:none;fill-rule:evenodd;fill:rgb(92.156863%,47.058824%,52.156866%);fill-opacity:1;" d="M 13 12.738281 C 13.03125 12.613281 12.972656 12.433594 12.957031 12.316406 C 13.066406 12.332031 13.1875 12.410156 13.296875 12.421875 C 13.238281 12.515625 13.160156 12.582031 13.082031 12.65625 C 13.054688 12.679688 13.027344 12.703125 13.023438 12.742188 C 13.015625 12.742188 13.007812 12.738281 13 12.738281 "/>
<path style=" stroke:none;fill-rule:evenodd;fill:rgb(92.156863%,36.078432%,52.941179%);fill-opacity:1;" d="M 13 12.738281 C 13.007812 12.738281 13.015625 12.742188 13.023438 12.742188 C 13.039062 12.859375 13.035156 12.972656 13.023438 13.089844 C 13.023438 13.089844 13.015625 13.089844 13.015625 13.089844 C 13.015625 13.089844 13.007812 13.089844 13.007812 13.089844 C 12.921875 13.042969 12.859375 12.960938 12.765625 12.921875 C 12.824219 12.835938 12.914062 12.785156 13 12.738281 "/>
<path style=" stroke:none;fill-rule:evenodd;fill:rgb(18.039216%,0.784314%,6.666667%);fill-opacity:1;" d="M 12.734375 12.949219 C 12.351562 13.195312 11.925781 13.347656 11.472656 13.386719 C 10.757812 13.457031 10.066406 13.261719 9.628906 12.890625 C 10.566406 12.285156 12.085938 12.25 12.765625 12.921875 "/>
<path style=" stroke:none;fill-rule:evenodd;fill:rgb(18.039216%,0.784314%,6.666667%);fill-opacity:1;" d="M 12.933594 12.335938 C 12.980469 12.328125 12.964844 12.300781 12.957031 12.269531 C 12.820312 11.664062 12.515625 11.164062 12.042969 10.761719 C 11.683594 10.453125 11.253906 10.273438 10.789062 10.175781 C 10.882812 10.695312 11.128906 11.132812 11.484375 11.515625 C 11.882812 11.941406 12.367188 12.210938 12.933594 12.335938 "/>
<path style=" stroke:none;fill-rule:evenodd;fill:rgb(18.039216%,0.784314%,6.666667%);fill-opacity:1;" d="M 13.566406 9.109375 C 13.65625 9.265625 13.757812 9.417969 13.824219 9.589844 C 14.160156 10.441406 14.085938 11.253906 13.589844 12.035156 C 13.582031 12.046875 13.574219 12.0625 13.566406 12.074219 C 13.378906 11.847656 13.261719 11.582031 13.1875 11.304688 C 12.976562 10.535156 13.085938 9.808594 13.53125 9.136719 C 13.535156 9.128906 13.542969 9.117188 13.546875 9.105469 C 13.546875 9.105469 13.558594 9.105469 13.558594 9.105469 Z M 13.566406 9.109375 "/>
<path style=" stroke:none;fill-rule:evenodd;fill:rgb(85.09804%,67.058825%,9.019608%);fill-opacity:1;" d="M 16.230469 6.265625 C 16.269531 6.507812 16.273438 6.753906 16.273438 7 C 16.273438 7.863281 16.273438 8.730469 16.273438 9.597656 C 16.273438 9.796875 16.3125 9.984375 16.230469 10.171875 C 15.4375 10.320312 14.65625 11.039062 14.339844 11.59375 C 14.199219 11.847656 14.082031 12.078125 14.042969 12.371094 C 14.039062 12.375 14.046875 12.371094 14.042969 12.371094 C 13.9375 12.390625 13.953125 12.390625 13.914062 12.398438 C 13.894531 12.398438 13.722656 12.4375 13.726562 12.445312 C 13.648438 12.304688 13.617188 12.234375 13.558594 12.074219 C 13.996094 11.363281 14.101562 10.683594 13.890625 9.875 C 13.804688 9.585938 13.667969 9.292969 13.542969 9.113281 C 13.574219 9.050781 13.589844 9.03125 13.695312 8.847656 C 14.128906 8.171875 14.824219 7.648438 15.390625 7.0625 C 15.640625 6.804688 15.878906 6.53125 16.164062 6.308594 C 16.183594 6.292969 16.203125 6.269531 16.230469 6.265625 "/>
<path style=" stroke:none;fill-rule:nonzero;fill:rgb(100%,100%,100%);fill-opacity:1;" d="M 18.773438 13.902344 C 18.585938 13.902344 18.433594 14.0625 18.433594 14.253906 L 18.433594 14.9375 C 18.09375 15.03125 17.765625 15.167969 17.46875 15.34375 L 16.976562 14.855469 C 16.910156 14.789062 16.828125 14.746094 16.742188 14.746094 C 16.652344 14.746094 16.5625 14.777344 16.492188 14.84375 L 15.539062 15.800781 C 15.40625 15.933594 15.414062 16.148438 15.550781 16.285156 L 16.035156 16.773438 C 15.863281 17.074219 15.722656 17.398438 15.632812 17.738281 L 14.949219 17.738281 C 14.753906 17.738281 14.597656 17.890625 14.597656 18.082031 L 14.597656 19.425781 C 14.597656 19.617188 14.753906 19.769531 14.949219 19.769531 L 15.632812 19.769531 C 15.722656 20.109375 15.863281 20.433594 16.035156 20.734375 L 15.550781 21.222656 C 15.414062 21.359375 15.40625 21.574219 15.539062 21.707031 L 16.492188 22.664062 C 16.628906 22.796875 16.839844 22.789062 16.976562 22.652344 L 17.46875 22.167969 C 17.765625 22.339844 18.09375 22.476562 18.433594 22.570312 L 18.433594 23.253906 C 18.433594 23.445312 18.585938 23.605469 18.773438 23.605469 L 20.121094 23.605469 C 20.3125 23.605469 20.460938 23.445312 20.460938 23.253906 L 20.460938 22.570312 C 20.804688 22.476562 21.128906 22.339844 21.425781 22.167969 L 21.917969 22.652344 C 22.054688 22.789062 22.269531 22.796875 22.402344 22.664062 L 23.355469 21.707031 C 23.492188 21.574219 23.484375 21.359375 23.34375 21.222656 L 22.859375 20.734375 C 23.035156 20.433594 23.171875 20.109375 23.261719 19.769531 L 23.945312 19.769531 C 24.140625 19.769531 24.300781 19.617188 24.300781 19.425781 L 24.300781 18.082031 C 24.300781 17.890625 24.140625 17.738281 23.945312 17.738281 L 23.261719 17.738281 C 23.171875 17.398438 23.035156 17.074219 22.859375 16.773438 L 23.34375 16.285156 C 23.484375 16.148438 23.492188 15.933594 23.355469 15.800781 L 22.402344 14.84375 C 22.269531 14.710938 22.054688 14.71875 21.917969 14.855469 L 21.425781 15.34375 C 21.128906 15.167969 20.804688 15.03125 20.460938 14.9375 L 20.460938 14.253906 C 20.460938 14.0625 20.3125 13.902344 20.121094 13.902344 Z M 19.449219 16.285156 C 20.8125 16.285156 21.917969 17.390625 21.917969 18.753906 C 21.917969 20.117188 20.8125 21.222656 19.449219 21.222656 C 18.085938 21.222656 16.976562 20.117188 16.976562 18.753906 C 16.976562 17.390625 18.085938 16.285156 19.449219 16.285156 Z M 19.449219 16.285156 "/>
<path style=" stroke:none;fill-rule:nonzero;fill:rgb(100%,100%,100%);fill-opacity:1;" d="M 22.90625 22.378906 C 22.800781 22.371094 22.707031 22.449219 22.695312 22.558594 L 22.664062 22.941406 C 22.46875 22.976562 22.277344 23.035156 22.101562 23.117188 L 21.851562 22.824219 C 21.816406 22.78125 21.773438 22.753906 21.726562 22.75 C 21.675781 22.742188 21.621094 22.757812 21.582031 22.792969 L 21 23.277344 C 20.917969 23.347656 20.910156 23.464844 20.980469 23.550781 L 21.226562 23.847656 C 21.117188 24.007812 21.023438 24.183594 20.953125 24.367188 L 20.570312 24.335938 C 20.460938 24.324219 20.367188 24.402344 20.355469 24.507812 L 20.289062 25.261719 C 20.28125 25.367188 20.359375 25.460938 20.46875 25.46875 L 20.851562 25.503906 C 20.886719 25.699219 20.945312 25.886719 21.027344 26.0625 L 20.730469 26.3125 C 20.648438 26.382812 20.632812 26.503906 20.703125 26.585938 L 21.1875 27.167969 C 21.257812 27.25 21.375 27.253906 21.460938 27.183594 L 21.757812 26.9375 C 21.917969 27.050781 22.089844 27.144531 22.277344 27.210938 L 22.242188 27.59375 C 22.234375 27.703125 22.308594 27.800781 22.417969 27.808594 L 23.167969 27.878906 C 23.277344 27.886719 23.371094 27.804688 23.378906 27.699219 L 23.414062 27.316406 C 23.609375 27.28125 23.796875 27.21875 23.972656 27.136719 L 24.222656 27.433594 C 24.292969 27.519531 24.414062 27.535156 24.496094 27.464844 L 25.078125 26.980469 C 25.160156 26.910156 25.164062 26.792969 25.09375 26.707031 L 24.847656 26.410156 C 24.960938 26.25 25.054688 26.074219 25.121094 25.886719 L 25.503906 25.921875 C 25.613281 25.933594 25.710938 25.855469 25.71875 25.75 L 25.789062 24.996094 C 25.796875 24.890625 25.714844 24.796875 25.605469 24.789062 L 25.222656 24.753906 C 25.191406 24.558594 25.128906 24.367188 25.046875 24.191406 L 25.34375 23.941406 C 25.425781 23.871094 25.445312 23.753906 25.375 23.671875 L 24.890625 23.089844 C 24.820312 23.007812 24.699219 23 24.617188 23.070312 L 24.316406 23.316406 C 24.160156 23.207031 23.984375 23.113281 23.796875 23.042969 L 23.832031 22.660156 C 23.84375 22.554688 23.765625 22.457031 23.660156 22.445312 Z M 23.164062 23.746094 C 23.925781 23.816406 24.488281 24.488281 24.421875 25.253906 C 24.351562 26.015625 23.675781 26.578125 22.914062 26.511719 C 22.148438 26.441406 21.585938 25.765625 21.65625 25.003906 C 21.722656 24.242188 22.398438 23.675781 23.164062 23.746094 Z M 23.164062 23.746094 "/>
<path style=" stroke:none;fill-rule:nonzero;fill:rgb(100%,100%,100%);fill-opacity:1;" d="M 25.4375 19.15625 C 25.359375 19.148438 25.296875 19.207031 25.289062 19.28125 L 25.265625 19.554688 C 25.125 19.578125 24.992188 19.621094 24.867188 19.679688 L 24.691406 19.46875 C 24.667969 19.4375 24.636719 19.421875 24.601562 19.417969 C 24.566406 19.414062 24.527344 19.421875 24.5 19.445312 L 24.089844 19.789062 C 24.03125 19.839844 24.027344 19.921875 24.074219 19.984375 L 24.25 20.195312 C 24.171875 20.304688 24.105469 20.429688 24.054688 20.5625 L 23.785156 20.535156 C 23.707031 20.53125 23.640625 20.585938 23.632812 20.660156 L 23.585938 21.191406 C 23.578125 21.265625 23.636719 21.332031 23.714844 21.339844 L 23.984375 21.363281 C 24.007812 21.503906 24.050781 21.636719 24.109375 21.761719 L 23.898438 21.9375 C 23.839844 21.988281 23.828125 22.070312 23.878906 22.128906 L 24.222656 22.539062 C 24.269531 22.597656 24.355469 22.601562 24.414062 22.554688 L 24.625 22.378906 C 24.738281 22.457031 24.859375 22.523438 24.992188 22.570312 L 24.96875 22.84375 C 24.960938 22.917969 25.015625 22.988281 25.089844 22.992188 L 25.621094 23.042969 C 25.699219 23.050781 25.761719 22.992188 25.769531 22.914062 L 25.792969 22.644531 C 25.933594 22.621094 26.066406 22.578125 26.191406 22.519531 L 26.367188 22.730469 C 26.417969 22.789062 26.5 22.800781 26.558594 22.75 L 26.96875 22.40625 C 27.027344 22.359375 27.03125 22.273438 26.984375 22.214844 L 26.808594 22.003906 C 26.886719 21.890625 26.953125 21.769531 27.003906 21.636719 L 27.273438 21.660156 C 27.351562 21.667969 27.417969 21.613281 27.425781 21.539062 L 27.472656 21.003906 C 27.480469 20.929688 27.421875 20.863281 27.34375 20.859375 L 27.074219 20.832031 C 27.050781 20.695312 27.007812 20.5625 26.949219 20.4375 L 27.160156 20.261719 C 27.21875 20.210938 27.230469 20.128906 27.179688 20.070312 L 26.835938 19.65625 C 26.789062 19.597656 26.703125 19.59375 26.644531 19.644531 L 26.433594 19.820312 C 26.320312 19.738281 26.199219 19.671875 26.066406 19.625 L 26.089844 19.355469 C 26.097656 19.277344 26.042969 19.210938 25.96875 19.203125 Z M 25.617188 20.121094 C 26.15625 20.171875 26.554688 20.648438 26.507812 21.1875 C 26.457031 21.726562 25.980469 22.125 25.441406 22.074219 C 24.902344 22.027344 24.503906 21.550781 24.550781 21.011719 C 24.601562 20.472656 25.078125 20.074219 25.617188 20.121094 Z M 25.617188 20.121094 "/>
</g>
</svg>
