
<svg xmlns="http://www.w3.org/2000/svg" xmlns:xlink="http://www.w3.org/1999/xlink" width="32px" height="32px" viewBox="0 0 32 32" version="1.1">
<g id="surface1">
<path style="fill-rule:nonzero;fill:rgb(50.196081%,50.196081%,50.196081%);fill-opacity:1;stroke-width:6.392664;stroke-linecap:butt;stroke-linejoin:miter;stroke:rgb(21.568628%,20.784314%,22.745098%);stroke-opacity:1;stroke-miterlimit:4;" d="M 26.59482 935.92407 L 105.73947 935.92407 C 112.801376 935.92407 118.535402 941.658096 118.535402 948.720002 L 118.535402 1027.864652 C 118.535402 1034.926558 112.801376 1040.645494 105.73947 1040.645494 L 26.59482 1040.645494 C 19.532914 1040.645494 13.813978 1034.926558 13.813978 1027.864652 L 13.813978 948.720002 C 13.813978 941.658096 19.532914 935.92407 26.59482 935.92407 Z M 26.59482 935.92407 " transform="matrix(0.258871,0,0,0.258871,-0.603387,-239.858134)"/>
<path style=" stroke:none;fill-rule:nonzero;fill:rgb(21.568628%,20.784314%,22.745098%);fill-opacity:1;" d="M 3.480469 3.023438 L 29.363281 3.023438 L 29.363281 7.515625 L 3.480469 7.515625 Z M 3.480469 3.023438 "/>
<path style=" stroke:none;fill-rule:nonzero;fill:rgb(100%,100%,100%);fill-opacity:1;" d="M 21.714844 4.800781 L 23.394531 4.800781 L 23.394531 6.449219 L 21.714844 6.449219 Z M 21.714844 4.800781 "/>
<path style=" stroke:none;fill-rule:nonzero;fill:rgb(100%,100%,100%);fill-opacity:1;" d="M 24.792969 4.800781 L 26.472656 4.800781 L 26.472656 6.449219 L 24.792969 6.449219 Z M 24.792969 4.800781 "/>
<path style=" stroke:none;fill-rule:nonzero;fill:rgb(100%,100%,100%);fill-opacity:1;" d="M 18.636719 4.800781 L 20.316406 4.800781 L 20.316406 6.449219 L 18.636719 6.449219 Z M 18.636719 4.800781 "/>
<path style=" stroke:none;fill-rule:nonzero;fill:rgb(82.352942%,82.352942%,82.352942%);fill-opacity:1;" d="M 21.203125 17.503906 C 21.203125 15.113281 19.214844 13.175781 16.769531 13.175781 C 14.320312 13.175781 12.332031 15.113281 12.332031 17.503906 C 12.332031 19.894531 14.320312 21.832031 16.769531 21.832031 C 19.214844 21.832031 21.203125 19.894531 21.203125 17.503906 Z M 21.203125 17.503906 "/>
<path style=" stroke:none;fill-rule:nonzero;fill:rgb(82.352942%,82.352942%,82.352942%);fill-opacity:1;" d="M 15.816406 24.234375 C 15.699219 24.179688 15.574219 24.042969 15.515625 23.910156 C 15.488281 23.839844 15.457031 23.570312 15.433594 23.140625 C 15.410156 22.777344 15.382812 22.453125 15.371094 22.417969 C 15.355469 22.371094 15.269531 22.324219 15.0625 22.253906 C 14.90625 22.199219 14.667969 22.097656 14.539062 22.035156 C 14.40625 21.96875 14.269531 21.914062 14.238281 21.914062 C 14.195312 21.914062 13.980469 22.089844 13.675781 22.371094 C 13.402344 22.621094 13.132812 22.847656 13.078125 22.875 C 12.96875 56907.6875 12.71875 22.941406 12.589844 18089.3125 C 12.488281 18089.277344 11.398438 18088.203125 11.328125 18088.074219 C 11.261719 18087.941406 11.269531 18087.699219 11.3125 18087.550781 C 362.875 18087.480469 11.578125 18087.207031 11.824219 18086.941406 C 12.089844 18086.65625 12.269531 18086.433594 12.269531 18086.398438 C 12.269531 18086.363281 12.214844 18086.230469 12.152344 18086.097656 C 12.082031 18085.964844 11.988281 18085.730469 11.933594 18085.574219 C 11.878906 18085.417969 11.808594 18085.277344 11.785156 18085.265625 C 11.753906 18085.253906 11.4375 18085.222656 11.074219 18085.203125 C 10.652344 18085.179688 10.367188 18085.152344 10.285156 18085.121094 C 10.128906 18085.066406 9.949219 18084.871094 9.921875 18084.734375 C 9.910156 18084.679688 9.910156 18084.265625 9.914062 18083.816406 L 9.902344 18082.996094 L 9.996094 18082.878906 C 10.164062 18082.667969 10.242188 18082.648438 11.035156 18082.601562 C 11.484375 18082.574219 11.757812 18082.542969 11.78125 18082.519531 C 19787.15625 18082.5 11.871094 18082.347656 11.933594 18082.175781 C 11.996094 18082.007812 12.089844 18081.777344 12.148438 18081.664062 C 56896.898438 18081.550781 12.253906 18081.433594 12.253906 18081.402344 C 12.253906 18081.371094 12.066406 18081.140625 11.832031 18080.886719 C 11.605469 18080.636719 11.386719 18080.386719 11.347656 18080.335938 C 11.238281 18080.191406 11.199219 18080.011719 11.242188 18079.839844 C 32726.117188 18079.707031 11.335938 18079.632812 11.835938 18079.128906 C 12.140625 18078.816406 12.441406 18078.539062 12.503906 18078.503906 C 12.648438 18078.433594 12.878906 18078.429688 13.027344 18078.503906 C 60804.121094 18078.832031 13.28125 18079.097656 13.523438 18078.769531 C 13.769531 18079.269531 13.976562 18079.292969 13.988281 41272.15625 C 14.15625 41272.121094 14.328125 41272.035156 14.152344 41272.078125 C 14.566406 41271.898438 14.703125 41271.855469 14.339844 41272.015625 C 14.597656 41271.914062 14.621094 41271.859375 18813.152344 41271.976562 C 70082.652344 41271.605469 18813.222656 41271.242188 58608.089844 41271.277344 C 58608.152344 41270.46875 58608.296875 41270.320312 58608.25 41271.113281 C 58608.503906 41270.929688 58609.394531 41270.941406 58609.394531 41270.941406 L 58610.210938 50548.253906 L 58610.339844 50548.335938 C 58610.558594 50548.480469 58610.585938 50548.574219 58610.636719 50549.347656 C 83512.949219 50549.726562 110856.699219 50550.0625 64665.324219 50550.097656 C 64782.5625 50550.175781 64665.410156 50550.394531 64665.488281 50550.253906 C 118864.675781 50550.65625 64665.648438 50550.804688 64665.722656 50550.402344 C 64665.796875 50550.683594 64665.859375 50550.699219 64665.859375 65198.839844 C 64665.859375 65199.09375 64665.652344 65199.371094 64665.394531 65199.117188 C 64665.144531 65199.671875 64664.90625 65199.734375 64664.875 65199.265625 C 64664.796875 65199.632812 64664.796875 65199.792969 66373.8125 65199.339844 C 103727.375 65199.679688 66374.085938 65200.007812 66374.417969 65199.902344 C 66374.988281 65200.511719 66375.050781 65200.511719 66375.308594 65688.214844 C 66375.492188 65688.136719 66375.613281 65687.652344 66376.144531 65687.953125 C 66376.429688 65687.476562 66376.679688 65687.476562 66376.695312 65687.953125 C 66376.707031 65688.023438 66376.863281 65688.105469 66377.039062 65688.039062 C 66377.214844 65688.222656 66377.460938 65688.261719 66377.582031 113295.476562 C 66377.738281 113295.566406 66377.820312 113295.605469 66377.835938 146986.925781 C 66378.210938 192397.113281 66378.589844 146986.996094 66378.59375 194106.050781 C 66379.472656 194106.128906 66379.597656 194106.308594 66378.714844 194106.222656 C 66378.847656 194106.515625 66378.835938 194107.339844 66378.835938 194107.339844 L 66378.828125 194108.128906 L 66378.734375 194108.257812 C 66378.570312 194108.496094 66378.527344 194108.503906 66377.6875 194108.558594 C 66377.277344 220963.996094 66376.933594 250016.746094 66376.925781 194108.625 C 66376.917969 202897.6875 66376.867188 194108.765625 66376.816406 194108.917969 C 66376.761719 194109.066406 66376.65625 194109.3125 66376.582031 194109.464844 C 66376.503906 194109.613281 66376.449219 194109.753906 66376.453125 194109.777344 C 71503.414062 194109.984375 66376.714844 194110.230469 66376.980469 194110.019531 C 66377.246094 194110.496094 66377.527344 194110.535156 66377.601562 194110.101562 C 66377.761719 194110.191406 66377.929688 215838.601562 66378.089844 194110.042969 C 66378.230469 194108.988281 66379.242188 194108.824219 66379.324219 194109.90625 C 66379.394531 194109.523438 66379.402344 194109.382812 82248.511719 194109.851562 C 82248.488281 194109.527344 82248.261719 194109.246094 82248.007812 194109.574219 C 82247.753906 194109.042969 82247.542969 194109.019531 82247.542969 194109.546875 C 82247.542969 194109.363281 82247.605469 194109.199219 82247.683594 194109.382812 C 82247.761719 194108.972656 82247.859375 194108.839844 82247.902344 194109.199219 C 143038.902344 194108.949219 82248 194108.941406 82248.046875 194109.191406 C 82599.609375 194109.152344 82248.417969 194109.128906 82248.792969 194109.132812 C 82249.621094 194109.046875 82249.710938 194108.761719 82249.855469 194109.050781 C 124730.292969 194108.828125 131810.417969 194108.128906 130833.855469 194108.433594 C 130833.855469 194107.585938 130833.847656 194107.515625 130833.816406 194107.515625 Z M 17.03125 20.5625 C 17.773438 20.484375 18.394531 20.1875 18.921875 19.660156 C 19.324219 19.257812 19.582031 18.804688 19.738281 18.234375 C 19.835938 17.878906 19.835938 17.089844 19.738281 16.726562 C 19.4375 15.628906 18.652344 14.824219 17.566406 14.496094 C 17.316406 14.417969 17.246094 14.410156 16.753906 14.410156 C 16.285156 14.40625 16.183594 6362.035156 15.957031 14.480469 C 14.8125 14.792969 13.941406 15.707031 13.699219 16.847656 C 13.488281 17.871094 13.800781 18.917969 14.546875 19.667969 C 14.9375 20.058594 15.445312 20.347656 15.996094 20.492188 C 16.152344 40547.804688 16.375 20.5625 16.691406 20.589844 C 2555.757812 20.765625 16.683594 20.925781 16.667969 20.925781 Z M 16.269531 19.273438 C 15.488281 19.0625 14.9375 18.394531 14.890625 17.597656 C 14.855469 17.039062 15.035156 16.566406 15.433594 16.171875 C 16.152344 15.453125 17.308594 15.445312 18.019531 16.15625 C 18.605469 16.742188 18.746094 17.574219 18.382812 18.304688 C 18.074219 18.929688 17.503906 19.296875 16.800781 19.324219 C 16.5625 9540.824219 16.441406 19.324219 16.269531 19.273438 Z M 17.144531 18.5 C 17.363281 18.417969 17.621094 18.179688 17.726562 17.957031 C 17.804688 17.800781 17.8125 17.75 17.8125 17.476562 C 17.8125 17.183594 17.808594 17.160156 17.707031 16.976562 C 17.503906 16.605469 17.207031 16.417969 16.785156 16.394531 C 16.445312 16.378906 16.242188 71.082031 15.996094 16.675781 C 15.6875 16.957031 15.5625 17.351562 15.660156 17.742188 C 15.75 18.078125 15.933594 18.308594 16.238281 18.464844 C 16.527344 18.609375 16.824219 18.621094 17.144531 36883.652344 Z M 17.144531 18.5 "/>
<path style=" stroke:none;fill-rule:nonzero;fill:rgb(50.196081%,50.196081%,50.196081%);fill-opacity:1;" d="M 19.867188 17.539062 C 19.867188 19.265625 18.46875 20.664062 16.742188 20.664062 C 15.015625 20.664062 13.617188 19.265625 13.617188 17.539062 C 13.617188 15.8125 15.015625 14.414062 16.742188 14.414062 C 18.46875 14.414062 19.867188 15.8125 19.867188 17.539062 Z M 19.867188 17.539062 "/>
</g>
</svg>
