
<svg xmlns="http://www.w3.org/2000/svg" xmlns:xlink="http://www.w3.org/1999/xlink" width="32px" height="32px" viewBox="0 0 32 32" version="1.1">
<g id="surface1">
<path style="fill-rule:nonzero;fill:rgb(100%,100%,100%);fill-opacity:1;stroke-width:24.958755;stroke-linecap:butt;stroke-linejoin:miter;stroke:rgb(28.235295%,28.235295%,29.803923%);stroke-opacity:1;stroke-miterlimit:4;" d="M 121.84851 41.282233 L 430.919116 41.282233 C 458.472788 41.282233 480.772819 63.582264 480.772819 91.135936 L 480.772819 400.206542 C 480.772819 427.760214 458.472788 450.060245 430.919116 450.060245 L 121.84851 450.060245 C 94.294838 450.060245 71.994807 427.760214 71.994807 400.206542 L 71.994807 91.135936 C 71.994807 63.582264 94.294838 41.282233 121.84851 41.282233 Z M 121.84851 41.282233 " transform="matrix(0.069892,0,0,0.069892,-3.317017,-1.170454)"/>
<path style="fill-rule:evenodd;fill:rgb(27.058825%,91.37255%,20%);fill-opacity:1;stroke-width:9.541723;stroke-linecap:butt;stroke-linejoin:miter;stroke:rgb(100%,100%,100%);stroke-opacity:1;stroke-miterlimit:4;" d="M 88.752122 158.47125 L 366.192205 158.462818 L 366.232226 370.601903 L 88.737042 370.600981 Z M 88.752122 158.47125 " transform="matrix(0.068906,-0.0116981,0.0116981,0.068906,-3.317017,-1.170454)"/>
<path style=" stroke:none;fill-rule:nonzero;fill:rgb(28.235295%,28.235295%,29.803923%);fill-opacity:1;" d="M 11.191406 22.285156 C 11.175781 20.34375 11.164062 18.023438 11.175781 17.128906 L 11.191406 15.503906 L 16.625 15.488281 C 19.613281 15.480469 23.332031 15.488281 24.894531 15.507812 L 27.730469 15.542969 L 27.730469 25.8125 L 11.230469 25.8125 Z M 11.191406 22.285156 "/>
<path style="fill-rule:evenodd;fill:rgb(28.235295%,28.235295%,29.803923%);fill-opacity:1;stroke-width:17.992964;stroke-linecap:round;stroke-linejoin:miter;stroke:rgb(100%,100%,100%);stroke-opacity:1;stroke-miterlimit:4;" d="M 413.984506 314.024467 C 413.984506 336.827506 395.484981 355.327031 372.681942 355.327031 C 349.878903 355.327031 331.435268 336.827506 331.435268 314.024467 C 331.435268 291.221428 349.878903 272.721903 372.681942 272.721903 C 395.484981 272.721903 413.984506 291.221428 413.984506 314.024467 Z M 413.984506 314.024467 " transform="matrix(0.069892,0,0,0.069892,-3.317017,-1.170454)"/>
</g>
</svg>
