
<svg xmlns="http://www.w3.org/2000/svg" xmlns:xlink="http://www.w3.org/1999/xlink" width="32px" height="32px" viewBox="0 0 32 32" version="1.1">
<g id="surface1">
<path style="fill-rule:nonzero;fill:rgb(20.392157%,28.627452%,36.862746%);fill-opacity:1;stroke-width:1.935101;stroke-linecap:butt;stroke-linejoin:miter;stroke:rgb(9.019608%,36.862746%,60.000002%);stroke-opacity:1;stroke-miterlimit:4;" d="M 6.081008 263.089272 L 30.043441 263.089272 C 32.177747 263.089272 33.910768 264.822293 33.910768 266.956599 L 33.910768 290.919033 C 33.910768 293.053338 32.177747 294.786359 30.043441 294.786359 L 6.081008 294.786359 C 3.946702 294.786359 2.213681 293.053338 2.213681 290.919033 L 2.213681 266.956599 C 2.213681 264.822293 3.946702 263.089272 6.081008 263.089272 Z M 6.081008 263.089272 " transform="matrix(0.885827,0,0,0.885827,0,-231.090556)"/>
<path style=" stroke:none;fill-rule:nonzero;fill:rgb(17.254902%,24.313726%,31.37255%);fill-opacity:1;" d="M 9.796875 13.546875 C 11.191406 13.546875 12.320312 14.675781 12.320312 16.074219 C 12.320312 17.464844 11.191406 18.597656 9.796875 18.597656 C 8.402344 18.597656 7.269531 17.464844 7.269531 16.074219 C 7.269531 14.675781 8.402344 13.546875 9.796875 13.546875 Z M 9.796875 13.546875 "/>
<path style=" stroke:none;fill-rule:nonzero;fill:rgb(17.254902%,24.313726%,31.37255%);fill-opacity:1;" d="M 22.058594 13.546875 C 23.453125 13.546875 24.582031 14.675781 24.582031 16.074219 C 24.582031 17.464844 23.453125 18.597656 22.058594 18.597656 C 20.664062 18.597656 19.535156 17.464844 19.535156 16.074219 C 19.535156 14.675781 20.664062 13.546875 22.058594 13.546875 Z M 22.058594 13.546875 "/>
<path style=" stroke:none;fill-rule:nonzero;fill:rgb(95.294118%,61.176473%,7.058824%);fill-opacity:1;" d="M 9.796875 14.269531 C 10.792969 14.269531 11.597656 15.074219 11.597656 16.074219 C 11.597656 17.066406 10.792969 17.875 9.796875 17.875 C 8.800781 17.875 7.992188 17.066406 7.992188 16.074219 C 7.992188 15.074219 8.800781 14.269531 9.796875 14.269531 Z M 9.796875 14.269531 "/>
<path style=" stroke:none;fill-rule:nonzero;fill:rgb(96.078432%,78.823531%,45.09804%);fill-opacity:1;" d="M 22.058594 14.269531 C 23.054688 14.269531 23.863281 15.074219 23.863281 16.074219 C 23.863281 17.066406 23.054688 17.875 22.058594 17.875 C 21.0625 17.875 20.253906 17.066406 20.253906 16.074219 C 20.253906 15.074219 21.0625 14.269531 22.058594 14.269531 Z M 22.058594 14.269531 "/>
<path style=" stroke:none;fill-rule:nonzero;fill:rgb(17.254902%,24.313726%,31.37255%);fill-opacity:1;" d="M 15.925781 13.546875 C 17.324219 13.546875 18.453125 14.675781 18.453125 16.074219 C 18.453125 17.464844 17.324219 18.597656 15.925781 18.597656 C 14.535156 18.597656 13.402344 17.464844 13.402344 16.074219 C 13.402344 14.675781 14.535156 13.546875 15.925781 13.546875 Z M 15.925781 13.546875 "/>
<path style=" stroke:none;fill-rule:nonzero;fill:rgb(96.862745%,73.725492%,36.862746%);fill-opacity:1;" d="M 15.925781 14.269531 C 16.925781 14.269531 17.730469 15.074219 17.730469 16.074219 C 17.730469 17.066406 16.925781 17.875 15.925781 17.875 C 14.933594 17.875 14.125 17.066406 14.125 16.074219 C 14.125 15.074219 14.933594 14.269531 15.925781 14.269531 Z M 15.925781 14.269531 "/>
</g>
</svg>
