
<svg xmlns="http://www.w3.org/2000/svg" xmlns:xlink="http://www.w3.org/1999/xlink" width="32px" height="32px" viewBox="0 0 32 32" version="1.1">
<g id="surface1">
<path style="fill-rule:nonzero;fill:rgb(100%,100%,100%);fill-opacity:1;stroke-width:6.83721;stroke-linecap:butt;stroke-linejoin:miter;stroke:rgb(29.019609%,68.235296%,90.980393%);stroke-opacity:1;stroke-miterlimit:4;" d="M 21.671875 932.362142 L 106.328125 932.362142 C 113.875 932.362142 120 938.487142 120 946.034017 L 120 1030.690267 C 120 1038.237142 113.875 1044.362142 106.328125 1044.362142 L 21.671875 1044.362142 C 14.125 1044.362142 8 1038.237142 8 1030.690267 L 8 946.034017 C 8 938.487142 14.125 932.362142 21.671875 932.362142 Z M 21.671875 932.362142 " transform="matrix(0.25,0,0,0.25,0,-231.090535)"/>
<path style=" stroke:none;fill-rule:evenodd;fill:rgb(0%,60.000002%,100%);fill-opacity:1;" d="M 8.542969 5.460938 L 23.457031 5.460938 C 24.910156 5.460938 26.085938 6.691406 26.085938 8.207031 L 26.085938 23.792969 C 26.085938 25.308594 24.910156 26.539062 23.457031 26.539062 L 8.542969 26.539062 C 7.089844 26.539062 5.914062 25.308594 5.914062 23.792969 L 5.914062 8.207031 C 5.914062 6.691406 7.089844 5.460938 8.542969 5.460938 Z M 8.542969 5.460938 "/>
<path style=" stroke:none;fill-rule:nonzero;fill:rgb(100%,100%,100%);fill-opacity:1;" d="M 7.261719 16.152344 C 7.261719 21.265625 11.222656 25.410156 16.105469 25.410156 C 20.992188 25.410156 24.949219 21.265625 24.949219 16.152344 C 24.949219 11.042969 20.992188 6.902344 16.105469 6.902344 C 11.222656 6.902344 7.261719 11.042969 7.261719 16.152344 Z M 11.683594 16.152344 C 11.683594 13.597656 13.664062 11.527344 16.105469 11.527344 C 18.550781 11.527344 20.527344 13.597656 20.527344 16.152344 C 20.527344 18.710938 18.550781 20.78125 16.105469 20.78125 C 13.664062 20.78125 11.683594 18.710938 11.683594 16.152344 Z M 11.683594 16.152344 "/>
<path style=" stroke:none;fill-rule:nonzero;fill:rgb(0%,60.000002%,100%);fill-opacity:1;" d="M 21.359375 15.269531 L 21.359375 17.003906 L 22.738281 16.136719 Z M 22.738281 16.136719 L 22.738281 17.003906 L 23.433594 16.570312 L 24.121094 16.136719 L 23.433594 15.703125 L 22.738281 15.269531 Z M 24.121094 16.136719 L 24.121094 17.023438 L 24.398438 17.023438 L 24.398438 15.285156 L 24.121094 15.285156 Z M 24.121094 16.136719 "/>
<path style=" stroke:none;fill-rule:nonzero;fill:rgb(0%,60.000002%,100%);fill-opacity:1;" d="M 10.855469 15.269531 L 10.855469 17.003906 L 9.472656 16.136719 Z M 9.472656 16.136719 L 9.472656 17.003906 L 8.089844 16.136719 L 9.472656 15.269531 Z M 8.089844 16.136719 L 8.089844 17.023438 L 7.816406 17.023438 L 7.816406 15.285156 L 8.089844 15.285156 Z M 8.089844 16.136719 "/>
<path style=" stroke:none;fill-rule:nonzero;fill:rgb(0%,60.000002%,100%);fill-opacity:1;" d="M 15 22.804688 L 17.210938 22.804688 L 17.210938 23.386719 L 15 23.386719 Z M 15 22.804688 "/>
<path style=" stroke:none;fill-rule:nonzero;fill:rgb(0%,60.000002%,100%);fill-opacity:1;" d="M 15.832031 8.058594 L 15.832031 8.925781 L 15 8.925781 L 15 9.503906 L 15.832031 9.503906 L 15.832031 10.371094 L 16.382812 10.371094 L 16.382812 9.503906 L 17.210938 9.503906 L 17.210938 8.925781 L 16.382812 8.925781 L 16.382812 8.058594 Z M 15.832031 8.058594 "/>
<path style=" stroke:none;fill-rule:nonzero;fill:rgb(100%,100%,100%);fill-opacity:1;" d="M 13.894531 14.996094 L 13.894531 17.3125 L 14.863281 16.730469 L 15.832031 16.152344 Z M 16.660156 14.996094 L 16.660156 17.3125 L 17.210938 17.3125 L 17.210938 14.996094 Z M 17.765625 14.996094 L 17.765625 17.3125 L 18.316406 17.3125 L 18.316406 14.996094 Z M 17.765625 14.996094 "/>
</g>
</svg>
