<!-- Creator: CorelDRAW X5 -->
<svg xmlns="http://www.w3.org/2000/svg" xmlns:xlink="http://www.w3.org/1999/xlink" width="32px" height="32px" viewBox="0 0 32 32" version="1.1">
<g id="surface1">
<path style="fill-rule:evenodd;fill:rgb(100%,100%,100%);fill-opacity:1;stroke-width:3111.931152;stroke-linecap:butt;stroke-linejoin:miter;stroke:rgb(44.705883%,74.901962%,100%);stroke-opacity:1;stroke-miterlimit:4;" d="M 8916.075383 2689.399427 L 47449.206727 2689.399427 C 50882.170937 2689.399427 53668.444494 5482.552672 53668.444494 8915.516882 L 53668.444494 47448.648226 C 53668.444494 50881.612436 50882.170937 53667.885993 47449.206727 53667.885993 L 8916.075383 53667.885993 C 5483.111173 53667.885993 2689.957928 50881.612436 2689.957928 47448.648226 L 2689.957928 8915.516882 C 2689.957928 5482.552672 5483.111173 2689.399427 8916.075383 2689.399427 Z M 8916.075383 2689.399427 " transform="matrix(0.000567795,0,0,0.000567795,0,0.000317114)"/>
<path style=" stroke:none;fill-rule:evenodd;fill:rgb(0%,53.333336%,66.666669%);fill-opacity:1;" d="M 15.941406 14.277344 L 26.902344 14.277344 C 27.960938 14.277344 28.816406 15.132812 28.816406 16.1875 L 28.816406 27.152344 C 28.816406 28.207031 27.960938 29.0625 26.902344 29.0625 L 15.941406 29.0625 C 14.882812 29.0625 14.027344 28.207031 14.027344 27.152344 L 14.027344 16.1875 C 14.027344 15.132812 14.882812 14.277344 15.941406 14.277344 Z M 15.941406 14.277344 "/>
<path style=" stroke:none;fill-rule:nonzero;fill:rgb(100%,100%,100%);fill-opacity:1;" d="M 23.207031 17.976562 C 23.429688 17.976562 23.648438 18.003906 23.867188 18.050781 C 24.082031 18.144531 24.1875 18.257812 24.1875 18.390625 C 24.144531 18.613281 23.445312 18.878906 22.089844 19.1875 C 21.273438 19.359375 20.601562 19.488281 20.066406 19.566406 C 19.90625 20.425781 19.816406 21.121094 19.792969 21.652344 C 20.722656 21.292969 21.566406 21.09375 22.320312 21.054688 C 22.300781 20.863281 22.257812 20.699219 22.199219 20.5625 C 22.144531 20.429688 22.121094 20.34375 22.121094 20.304688 C 22.121094 20.152344 22.1875 20.074219 22.320312 20.074219 C 22.503906 20.074219 22.699219 20.203125 22.917969 20.457031 C 23.027344 20.621094 23.105469 20.820312 23.144531 21.054688 C 24.011719 21.113281 24.742188 21.355469 25.335938 21.773438 C 26.191406 22.363281 26.621094 23.113281 26.621094 24.023438 C 26.621094 25.054688 25.976562 25.992188 24.691406 26.839844 C 23.558594 27.574219 22.332031 27.957031 21.003906 27.988281 C 22.136719 27.558594 23.074219 27.074219 23.820312 26.535156 C 24.902344 25.75 25.453125 24.910156 25.472656 24.023438 C 25.496094 23.25 25.246094 22.640625 24.722656 22.199219 C 24.300781 21.925781 23.785156 21.757812 23.160156 21.699219 C 23.050781 22.308594 22.785156 22.933594 22.363281 23.582031 C 21.957031 24.203125 21.410156 24.796875 20.726562 25.371094 C 20.902344 25.664062 21.105469 25.917969 21.339844 26.121094 C 21.472656 26.285156 21.554688 26.425781 21.582031 26.550781 C 21.554688 26.753906 21.339844 26.871094 20.941406 26.902344 C 20.726562 26.871094 20.492188 26.675781 20.238281 26.316406 C 20.175781 26.238281 20.089844 26.105469 19.976562 25.921875 C 19.089844 26.472656 18.332031 26.742188 17.710938 26.734375 C 16.792969 26.722656 16.335938 26.222656 16.335938 25.230469 C 16.335938 24.597656 16.652344 23.945312 17.285156 23.273438 C 17.679688 22.84375 18.203125 22.449219 18.847656 22.078125 C 18.863281 21.488281 18.976562 20.691406 19.183594 19.691406 L 18.921875 19.691406 C 18.644531 19.691406 18.328125 19.644531 17.972656 19.554688 C 17.480469 19.433594 17.238281 19.273438 17.238281 19.082031 C 17.238281 19.019531 17.40625 18.988281 17.742188 18.988281 C 18.191406 18.988281 18.734375 18.929688 19.363281 18.816406 L 19.824219 16.707031 C 19.824219 16.402344 19.746094 16.160156 19.597656 15.988281 C 19.449219 15.847656 19.378906 15.746094 19.378906 15.679688 C 19.378906 15.546875 19.550781 15.480469 19.886719 15.480469 C 20.039062 15.480469 20.269531 15.648438 20.574219 15.988281 C 20.878906 16.3125 21.035156 16.574219 21.046875 16.769531 C 20.90625 17.054688 20.761719 17.34375 20.621094 17.640625 C 20.519531 17.875 20.40625 18.214844 20.285156 18.652344 C 20.480469 18.597656 20.773438 18.523438 21.171875 18.421875 C 22.34375 18.125 23.023438 17.976562 23.207031 17.976562 Z M 18.859375 22.828125 C 18.472656 23.074219 18.128906 23.367188 17.835938 23.699219 C 17.292969 24.273438 17.023438 24.785156 17.023438 25.230469 C 17.023438 25.867188 17.277344 26.1875 17.785156 26.199219 C 18.257812 26.167969 18.875 25.871094 19.640625 25.308594 C 19.601562 25.226562 19.5 24.988281 19.332031 24.589844 C 19.070312 23.96875 18.910156 23.378906 18.859375 22.828125 Z M 22.304688 21.683594 C 21.539062 21.742188 20.769531 21.9375 19.992188 22.265625 C 19.949219 22.273438 19.886719 22.300781 19.792969 22.339844 C 19.824219 23.261719 20.007812 24.042969 20.347656 24.695312 C 20.347656 24.707031 20.351562 24.714844 20.363281 24.726562 C 21.378906 23.839844 22.027344 22.824219 22.304688 21.683594 Z M 22.304688 21.683594 "/>
<path style=" stroke:none;fill-rule:evenodd;fill:rgb(80.000001%,80.000001%,80.000001%);fill-opacity:1;" d="M 5.121094 2.980469 L 16.089844 2.980469 C 17.144531 2.980469 18 3.835938 18 4.890625 L 18 15.855469 C 18 16.910156 17.144531 17.769531 16.089844 17.769531 L 5.121094 17.769531 C 4.066406 17.769531 3.210938 16.910156 3.210938 15.855469 L 3.210938 4.890625 C 3.210938 3.835938 4.066406 2.980469 5.121094 2.980469 Z M 5.121094 2.980469 "/>
<path style=" stroke:none;fill-rule:nonzero;fill:rgb(50.196081%,50.196081%,50.196081%);fill-opacity:1;" d="M 11.121094 15.675781 L 11.121094 15.027344 L 12.472656 14.796875 L 11.691406 12.644531 L 7.988281 12.644531 L 7.152344 14.796875 L 8.5 15.027344 L 8.5 15.675781 L 4.941406 15.675781 L 4.941406 15.027344 L 6 14.796875 L 9.972656 4.644531 L 11.390625 4.644531 L 15.132812 14.796875 L 16.269531 15.027344 L 16.269531 15.675781 Z M 9.941406 7.75 L 9.886719 7.75 L 8.375 11.648438 L 11.347656 11.648438 Z M 9.941406 7.75 "/>
</g>
</svg>
