
<svg xmlns="http://www.w3.org/2000/svg" xmlns:xlink="http://www.w3.org/1999/xlink" width="32px" height="32px" viewBox="0 0 32 32" version="1.1">
<g id="surface1">
<path style="fill-rule:nonzero;fill:rgb(44.313726%,78.431374%,21.568628%);fill-opacity:1;stroke-width:20.13669;stroke-linecap:butt;stroke-linejoin:miter;stroke:rgb(35.686275%,62.7451%,17.254902%);stroke-opacity:1;stroke-miterlimit:4;" d="M 65.835005 14.60051 L 447.165074 14.60051 C 475.508993 14.60051 498.399569 37.491086 498.399569 65.835005 L 498.399569 447.165074 C 498.399569 475.508993 475.508993 498.399569 447.165074 498.399569 L 65.835005 498.399569 C 37.491086 498.399569 14.60051 475.508993 14.60051 447.165074 L 14.60051 65.835005 C 14.60051 37.491086 37.491086 14.60051 65.835005 14.60051 Z M 65.835005 14.60051 " transform="matrix(0.0580206,0,0,0.0580206,1.117713,1.117713)"/>
<path style=" stroke:none;fill-rule:nonzero;fill:rgb(100%,100%,100%);fill-opacity:1;" d="M 6.253906 6.292969 L 6.253906 8.808594 C 6.269531 8.816406 6.289062 8.828125 6.308594 8.839844 L 10.660156 11.675781 C 10.859375 11.808594 10.859375 12.019531 10.660156 12.152344 L 6.308594 14.992188 C 6.289062 15.003906 6.269531 15.011719 6.253906 15.019531 L 6.253906 17.535156 C 6.375 17.503906 6.492188 17.460938 6.589844 17.394531 L 13.8125 12.683594 L 13.8125 11.214844 C 13.8125 11.191406 13.816406 11.167969 13.816406 11.148438 L 6.589844 6.433594 C 6.492188 6.371094 6.375 6.324219 6.253906 6.292969 Z M 6.253906 6.292969 "/>
<path style=" stroke:none;fill-rule:nonzero;fill:rgb(100%,100%,100%);fill-opacity:1;" d="M 9.972656 18.242188 L 18.222656 18.242188 L 18.222656 20.574219 L 9.972656 20.574219 Z M 9.972656 18.242188 "/>
</g>
</svg>
