
<svg xmlns="http://www.w3.org/2000/svg" xmlns:xlink="http://www.w3.org/1999/xlink" width="32px" height="32px" viewBox="0 0 32 32" version="1.1">
<defs>
<clipPath id="clip1">
  <path d="M 8.1875 9.25 L 22.6875 9.25 L 22.6875 27.9375 L 8.1875 27.9375 Z M 8.1875 9.25 "/>
</clipPath>
<clipPath id="clip2">
  <path d="M 36.238281 16.136719 C 36.238281 27.621094 26.925781 36.925781 15.449219 36.925781 C 3.976562 36.925781 -5.335938 27.621094 -5.335938 16.136719 C -5.335938 4.652344 3.976562 -4.648438 15.449219 -4.648438 C 26.925781 -4.648438 36.238281 4.652344 36.238281 16.136719 Z M 36.238281 16.136719 "/>
</clipPath>
<clipPath id="clip3">
  <path d="M 11.625 4.375 L 22.3125 4.375 L 22.3125 19.375 L 11.625 19.375 Z M 11.625 4.375 "/>
</clipPath>
<clipPath id="clip4">
  <path d="M 36.238281 16.136719 C 36.238281 27.621094 26.925781 36.925781 15.449219 36.925781 C 3.976562 36.925781 -5.335938 27.621094 -5.335938 16.136719 C -5.335938 4.652344 3.976562 -4.648438 15.449219 -4.648438 C 26.925781 -4.648438 36.238281 4.652344 36.238281 16.136719 Z M 36.238281 16.136719 "/>
</clipPath>
</defs>
<g id="surface1">
<path style="fill-rule:nonzero;fill:rgb(0.392157%,59.215689%,99.215686%);fill-opacity:1;stroke-width:19.4;stroke-linecap:butt;stroke-linejoin:miter;stroke:rgb(0.392157%,39.607844%,66.666669%);stroke-opacity:1;stroke-miterlimit:4;" d="M 76.125 35.5 L 435.75 35.5 C 461.625 35.5 482.5625 56.5 482.5625 82.3125 L 482.5625 431.875 C 482.5625 457.75 461.625 478.6875 435.75 478.6875 L 76.125 478.6875 C 50.25 478.6875 29.3125 457.75 29.3125 431.875 L 29.3125 82.3125 C 29.3125 56.5 50.25 35.5 76.125 35.5 Z M 76.125 35.5 " transform="matrix(0.0625,0,0,0.0625,0,0)"/>
<g clip-path="url(#clip1)" clip-rule="nonzero">
<g clip-path="url(#clip2)" clip-rule="nonzero">
<path style=" stroke:none;fill-rule:nonzero;fill:rgb(65.882355%,81.176472%,20%);fill-opacity:1;" d="M 15.402344 9.277344 C 11.433594 9.300781 8.21875 12.246094 8.21875 15.886719 C 8.21875 19.542969 11.460938 22.519531 15.449219 22.519531 C 16.839844 22.519531 18.125 22.132812 19.226562 21.507812 C 19.136719 22.871094 18.253906 24.027344 16.972656 24.582031 L 16.972656 27.886719 C 20.183594 27.191406 22.570312 24.589844 22.65625 21.464844 L 22.679688 21.464844 L 22.679688 9.28125 L 19.253906 9.28125 L 19.253906 15.886719 C 19.253906 17.808594 17.546875 19.371094 15.453125 19.371094 C 13.351562 19.371094 11.652344 17.808594 11.652344 15.886719 C 11.652344 13.964844 13.355469 12.402344 15.453125 12.402344 C 15.578125 12.402344 15.703125 12.417969 15.828125 12.421875 L 15.828125 9.28125 M 15.402344 9.28125 "/>
</g>
</g>
<g clip-path="url(#clip3)" clip-rule="nonzero">
<g clip-path="url(#clip4)" clip-rule="nonzero">
<path style=" stroke:none;fill-rule:nonzero;fill:rgb(17.647059%,17.647059%,17.647059%);fill-opacity:1;" d="M 15.828125 4.390625 L 15.828125 12.425781 C 15.707031 12.414062 15.578125 12.402344 15.449219 12.402344 C 13.347656 12.402344 11.652344 13.964844 11.652344 15.886719 C 11.652344 17.808594 13.351562 19.371094 15.449219 19.371094 C 17.546875 19.371094 19.246094 17.808594 19.246094 15.886719 L 19.246094 9.265625 L 22.253906 9.265625 C 22.253906 6.609375 19.984375 4.386719 16.964844 4.386719 L 15.824219 4.386719 M 15.824219 4.398438 "/>
</g>
</g>
</g>
</svg>
