
<svg xmlns="http://www.w3.org/2000/svg" xmlns:xlink="http://www.w3.org/1999/xlink" width="32px" height="32px" viewBox="0 0 32 32" version="1.1">
<g id="surface1">
<path style="fill-rule:nonzero;fill:rgb(100%,100%,100%);fill-opacity:1;stroke-width:28.191782;stroke-linecap:butt;stroke-linejoin:miter;stroke:rgb(72.549021%,3.921569%,0%);stroke-opacity:1;stroke-miterlimit:4;" d="M 81.5 25.0625 L 430.5 25.0625 C 461.6875 25.0625 486.9375 50.3125 486.9375 81.5 L 486.9375 430.5 C 486.9375 461.6875 461.6875 486.9375 430.5 486.9375 L 81.5 486.9375 C 50.3125 486.9375 25.0625 461.6875 25.0625 430.5 L 25.0625 81.5 C 25.0625 50.3125 50.3125 25.0625 81.5 25.0625 Z M 81.5 25.0625 " transform="matrix(0.0625,0,0,0.0625,0,0)"/>
<path style=" stroke:none;fill-rule:nonzero;fill:rgb(100%,100%,100%);fill-opacity:1;" d="M 14.800781 20.996094 C 14.800781 18.738281 12.859375 16.910156 10.460938 16.910156 C 8.0625 16.910156 6.121094 18.738281 6.121094 20.996094 C 6.121094 23.246094 8.0625 25.074219 10.460938 25.074219 C 12.859375 25.074219 14.800781 23.246094 14.800781 20.996094 Z M 14.800781 20.996094 "/>
<path style=" stroke:none;fill-rule:nonzero;fill:rgb(100%,100%,100%);fill-opacity:1;" d="M 14.550781 24.695312 C 14.550781 23.546875 12.746094 22.613281 10.519531 22.613281 C 8.296875 22.613281 6.492188 23.546875 6.492188 24.695312 C 6.492188 25.847656 8.296875 26.78125 10.519531 26.78125 C 12.746094 26.78125 14.550781 25.847656 14.550781 24.695312 Z M 14.550781 24.695312 "/>
<path style=" stroke:none;fill-rule:nonzero;fill:rgb(60.000002%,60.000002%,60.000002%);fill-opacity:1;" d="M 16.550781 25.949219 C 16.550781 25.914062 16.691406 25.722656 16.871094 25.527344 C 17.566406 24.742188 18.097656 23.878906 18.492188 22.902344 C 18.609375 22.613281 18.730469 22.347656 18.757812 22.316406 C 18.789062 22.289062 19.179688 22.273438 19.710938 22.285156 L 20.609375 22.300781 L 21.019531 22.707031 L 21.035156 24.074219 C 21.054688 26.113281 21.230469 25.980469 18.511719 26 C 17.003906 26.011719 16.550781 26.003906 16.550781 25.949219 Z M 16.550781 25.949219 "/>
<path style=" stroke:none;fill-rule:nonzero;fill:rgb(60.000002%,60.000002%,60.000002%);fill-opacity:1;" d="M 22.914062 25.972656 C 22.738281 25.925781 22.511719 25.746094 22.425781 25.570312 C 22.355469 25.4375 22.34375 25.191406 22.355469 24.058594 L 22.371094 22.707031 L 22.578125 22.503906 L 22.78125 22.300781 L 25.382812 22.285156 C 28.269531 22.269531 28.253906 22.269531 28.472656 22.621094 C 28.570312 22.777344 28.578125 22.890625 28.5625 24.179688 L 28.550781 25.570312 L 28.386719 25.738281 C 28.300781 25.828125 28.144531 25.925781 28.035156 25.957031 C 27.839844 26.011719 23.125 26.027344 22.914062 25.972656 Z M 22.914062 25.972656 "/>
<path style=" stroke:none;fill-rule:nonzero;fill:rgb(60.000002%,60.000002%,60.000002%);fill-opacity:1;" d="M 19.027344 21.097656 C 19.015625 21.074219 19.03125 20.761719 19.058594 20.402344 C 19.125 19.632812 19.050781 18.605469 18.878906 17.9375 C 18.816406 17.699219 18.78125 17.480469 18.800781 17.449219 C 18.816406 17.417969 20.527344 17.398438 23.339844 17.398438 L 27.847656 17.398438 L 28.085938 17.519531 C 28.496094 17.730469 28.519531 17.824219 28.519531 19.265625 C 28.519531 20.660156 28.496094 20.78125 28.148438 21.011719 L 27.964844 21.136719 L 23.503906 21.136719 C 21.054688 21.136719 19.039062 21.117188 19.027344 21.097656 Z M 19.027344 21.097656 "/>
<path style=" stroke:none;fill-rule:nonzero;fill:rgb(60.000002%,60.000002%,60.000002%);fill-opacity:1;" d="M 18.089844 15.789062 C 17.753906 15.160156 17.511719 14.8125 16.972656 14.167969 C 16.480469 13.574219 15.953125 12.796875 15.953125 12.664062 C 15.953125 12.585938 16.179688 12.578125 18.222656 12.578125 L 20.496094 12.578125 L 20.667969 12.722656 C 20.96875 12.972656 20.992188 13.097656 20.992188 14.417969 C 20.992188 15.714844 20.96875 15.847656 20.695312 16.097656 C 20.550781 16.230469 20.535156 16.234375 19.449219 16.25 L 18.347656 16.265625 Z M 18.089844 15.789062 "/>
<path style=" stroke:none;fill-rule:nonzero;fill:rgb(60.000002%,60.000002%,60.000002%);fill-opacity:1;" d="M 22.632812 16.152344 C 22.273438 15.933594 22.265625 15.894531 22.265625 14.417969 C 22.265625 12.941406 22.273438 12.902344 22.632812 12.683594 C 22.800781 12.582031 22.925781 12.578125 25.402344 12.578125 C 27.90625 12.578125 28 12.582031 28.171875 12.6875 C 28.496094 12.886719 28.519531 13.019531 28.519531 14.417969 C 28.519531 15.820312 28.496094 15.949219 28.171875 16.152344 C 28 16.257812 27.90625 16.261719 25.402344 16.261719 C 22.925781 16.261719 22.800781 16.253906 22.632812 16.152344 Z M 22.632812 16.152344 "/>
<path style="fill-rule:nonzero;fill:rgb(79.215688%,7.450981%,7.450981%);fill-opacity:1;stroke-width:4.767118;stroke-linecap:butt;stroke-linejoin:miter;stroke:rgb(79.215688%,7.450981%,7.450981%);stroke-opacity:1;stroke-miterlimit:4;" d="M 221 407.5625 C 223.875 399.4375 224.25 385.1875 221.75 377.0625 C 218.3125 365.5 214.6875 359.8125 204.0625 348.5625 C 192.375 336.25 185.4375 326.9375 180.5625 317.1875 C 176.75 309.4375 172.9375 298 171.9375 291.3125 C 171.4375 287.75 171 286.875 169.6875 286.875 C 168.3125 286.875 167.6875 288.3125 166.0625 294.9375 C 161 315.5625 154.0625 327.4375 135.6875 346.4375 C 126.5 355.9375 124.625 358.4375 121.1875 365.4375 C 118.9375 369.9375 116.5625 375.875 115.875 378.6875 C 113.4375 388.3125 114.5625 402.3125 118.4375 411.5 C 119.5 414 117.8125 413.25 109.25 407.6875 C 99.4375 401.25 83.8125 385.9375 77.5625 376.5625 C 65 357.8125 59.0625 338.125 59.125 315.1875 C 59.125 287.3125 67.625 264.6875 86.375 242.6875 C 129.5625 192 149.3125 132.75 141.4375 77.3125 C 140.9375 73.9375 140.6875 71.0625 140.875 70.9375 C 141.375 70.4375 151.6875 88.375 156.5625 98.1875 C 169.25 123.6875 180.5625 160.0625 184.25 187.1875 C 185.1875 194.0625 185.5 195 187 195 C 188.1875 195 188.75 194.3125 188.9375 192.8125 C 189.625 187.1875 193.0625 175.625 197.875 163.375 C 200.75 156 204.125 147.1875 205.1875 143.875 C 206.9375 138.4375 208 128.6875 208.1875 129.3125 C 208.1875 129.3125 208.1875 129.5 208.1875 129.75 C 207.875 156.0625 217.1875 183.6875 227.3125 204.625 C 233.0625 216.375 243.9375 233.3125 250.5 240.5625 C 274.75 269.3125 285.375 308.1875 276.4375 342.125 C 275.1875 346.75 272.8125 353.75 271.3125 357.6875 C 265.5 372.375 252.1875 390 239 400.5625 C 232.25 405.9375 220.75 413.6875 219.3125 413.8125 C 219 413.8125 219.75 411.0625 221 407.5625 Z M 221 407.5625 " transform="matrix(0.0625,0,0,0.0625,0,0)"/>
</g>
</svg>
