
<svg xmlns="http://www.w3.org/2000/svg" xmlns:xlink="http://www.w3.org/1999/xlink" width="32px" height="32px" viewBox="0 0 32 32" version="1.1">
<g id="surface1">
<path style="fill-rule:nonzero;fill:rgb(100%,100%,100%);fill-opacity:1;stroke-width:27.910587;stroke-linecap:butt;stroke-linejoin:miter;stroke:rgb(60.000002%,54.901963%,9.019608%);stroke-opacity:1;stroke-miterlimit:4;" d="M 83.1875 27.4375 L 428.8125 27.4375 C 459.625 27.4375 484.5625 52.375 484.5625 83.1875 L 484.5625 428.8125 C 484.5625 459.625 459.625 484.5625 428.8125 484.5625 L 83.1875 484.5625 C 52.375 484.5625 27.4375 459.625 27.4375 428.8125 L 27.4375 83.1875 C 27.4375 52.375 52.375 27.4375 83.1875 27.4375 Z M 83.1875 27.4375 " transform="matrix(0.0625,0,0,0.0625,0,0)"/>
<path style=" stroke:none;fill-rule:nonzero;fill:rgb(27.843139%,60.000002%,31.764707%);fill-opacity:1;" d="M 22.78125 3.859375 C 22.777344 3.863281 22.765625 3.878906 22.746094 3.910156 C 22.722656 3.957031 22.644531 4.144531 22.578125 4.339844 C 22.511719 4.527344 22.410156 4.808594 22.351562 4.96875 C 22.292969 5.125 22.21875 5.347656 22.183594 5.464844 C 22.152344 5.582031 22.007812 5.972656 21.867188 6.339844 C 21.722656 6.707031 21.523438 7.238281 21.417969 7.527344 C 21.304688 7.828125 21.199219 8.046875 21.167969 8.050781 C 21.109375 8.054688 21.023438 7.808594 20.839844 7.109375 C 20.789062 6.917969 20.714844 6.652344 20.671875 6.511719 C 20.539062 6.074219 20.351562 5.421875 20.300781 5.230469 C 20.253906 5.042969 20.222656 4.984375 20.191406 5.019531 C 20.183594 5.027344 20.109375 5.636719 20.027344 6.371094 C 19.878906 7.726562 19.855469 7.886719 19.785156 7.890625 C 19.761719 7.894531 19.695312 7.816406 19.628906 7.714844 C 19.566406 7.621094 19.425781 7.425781 19.316406 7.28125 C 19.046875 6.925781 18.878906 6.6875 18.714844 6.433594 C 18.535156 6.160156 18.472656 6.160156 18.53125 6.429688 C 18.582031 6.671875 18.777344 7.488281 18.941406 8.140625 C 19.128906 8.882812 19.160156 9.089844 19.089844 9.097656 C 19.03125 9.101562 17.800781 8.613281 17.582031 8.503906 C 17.527344 8.476562 17.441406 8.441406 17.386719 8.433594 C 17.335938 8.421875 17.226562 8.378906 17.144531 8.34375 C 17.066406 8.304688 16.894531 8.230469 16.761719 8.183594 L 16.523438 8.09375 L 16.605469 8.195312 C 16.652344 8.25 16.816406 8.410156 16.964844 8.554688 C 17.117188 8.699219 17.355469 8.933594 17.496094 9.074219 C 17.640625 9.214844 17.785156 9.363281 17.824219 9.394531 C 17.859375 9.429688 17.941406 9.515625 18.007812 9.589844 C 18.074219 9.660156 18.238281 9.765625 18.378906 9.824219 C 18.488281 9.871094 18.597656 9.925781 18.707031 9.988281 L 23.640625 11.386719 C 24.097656 11.230469 24.253906 11.175781 24.316406 11.171875 C 24.359375 11.167969 24.480469 11.132812 24.582031 11.09375 C 24.683594 11.054688 24.972656 10.957031 25.226562 10.878906 C 25.480469 10.792969 25.816406 10.683594 25.972656 10.628906 C 26.128906 10.578125 26.292969 10.527344 26.332031 10.527344 C 26.371094 10.523438 26.402344 10.503906 26.398438 10.488281 C 26.394531 10.460938 26.214844 10.4375 25.460938 10.378906 C 24.941406 10.335938 24.746094 10.316406 24.386719 10.285156 C 24.214844 10.265625 23.996094 10.246094 23.902344 10.242188 C 23.777344 10.230469 23.730469 10.210938 23.726562 10.160156 C 23.722656 10.121094 24.121094 9.617188 24.617188 9.035156 C 25.109375 8.449219 25.511719 7.960938 25.507812 7.941406 C 25.503906 7.875 25.296875 7.96875 24.636719 8.332031 C 24.378906 8.476562 23.722656 8.777344 23.65625 8.78125 C 23.628906 8.785156 23.605469 8.769531 23.605469 8.753906 C 23.605469 8.734375 23.703125 8.457031 23.824219 8.132812 C 24.066406 7.484375 24.175781 7.195312 24.371094 6.648438 C 24.644531 5.910156 24.644531 5.902344 24.332031 6.25 C 24.222656 6.371094 23.90625 6.714844 23.632812 7.007812 C 23.359375 7.304688 22.972656 7.722656 22.777344 7.941406 C 22.582031 8.160156 22.394531 8.339844 22.363281 8.339844 C 22.292969 8.347656 22.285156 8.214844 22.324219 7.871094 C 22.339844 7.730469 22.40625 7.164062 22.46875 6.613281 C 22.53125 6.066406 22.628906 5.277344 22.683594 4.863281 C 22.738281 4.445312 22.785156 4.042969 22.789062 3.964844 C 22.792969 3.886719 22.792969 3.851562 22.78125 3.859375 Z M 22.78125 3.859375 "/>
<path style=" stroke:none;fill-rule:nonzero;fill:rgb(89.803922%,71.764708%,19.215687%);fill-opacity:1;" d="M 20.429688 10.089844 L 21.496094 10.394531 C 24.425781 11.226562 26.125 14.273438 25.292969 17.199219 L 23.4375 23.746094 C 22.605469 26.675781 19.558594 28.378906 16.628906 27.546875 L 15.566406 27.242188 C 12.636719 26.410156 10.933594 23.363281 11.765625 20.4375 L 13.621094 13.890625 C 14.453125 10.960938 17.503906 9.261719 20.429688 10.089844 Z M 20.429688 10.089844 "/>
<path style=" stroke:none;fill-rule:nonzero;fill:rgb(62.352943%,49.411765%,12.941177%);fill-opacity:1;" d="M 19.179688 9.949219 C 19.183594 9.957031 19.191406 9.964844 19.199219 9.972656 C 19.332031 10.148438 19.417969 10.183594 19.46875 10.082031 C 19.480469 10.0625 19.492188 10.050781 19.511719 10.042969 Z M 20.195312 10.011719 C 20.210938 10.050781 19.878906 10.238281 19.792969 10.292969 C 19.695312 10.355469 19.476562 10.347656 19.484375 10.285156 C 19.496094 10.207031 19.472656 10.167969 19.417969 10.167969 C 19.339844 10.171875 19.34375 10.179688 19.457031 10.339844 C 19.507812 10.410156 19.566406 10.457031 19.582031 10.441406 C 19.601562 10.425781 19.601562 10.433594 19.589844 10.457031 C 19.554688 10.523438 19.652344 10.714844 19.699219 10.683594 C 19.722656 10.667969 19.730469 10.671875 19.71875 10.691406 C 19.707031 10.714844 19.742188 10.882812 19.800781 11.066406 C 19.855469 11.246094 19.90625 11.445312 19.910156 11.503906 C 19.914062 11.597656 19.917969 11.601562 19.945312 11.527344 C 19.964844 11.472656 19.972656 11.511719 19.964844 11.648438 C 19.941406 12.191406 19.9375 11.703125 20.023438 12.25 C 20.097656 12.320312 20.210938 12.625 20.1875 12.691406 C 20.164062 12.761719 19.957031 12.859375 19.886719 12.832031 C 19.816406 12.808594 18.097656 13.394531 18.144531 13.464844 C 18.113281 14.148438 19.445312 13.570312 19.933594 13.414062 C 20.152344 13.289062 20.386719 13.152344 20.433594 13.152344 C 20.503906 13.160156 20.597656 13.308594 20.878906 13.835938 C 21.222656 14.476562 21.285156 14.644531 21.21875 14.761719 C 21.167969 14.847656 19.894531 15.558594 19.78125 15.5625 C 19.679688 15.566406 19.648438 15.519531 19.316406 14.875 C 19.121094 14.414062 17.464844 11.980469 17.261719 12.03125 C 17.179688 12.160156 17.097656 12.222656 17.097656 12.222656 C 16.910156 12.175781 17.535156 13.324219 17.679688 13.378906 C 17.667969 13.398438 18.78125 14.820312 18.953125 15.144531 C 19.125 15.46875 19.265625 15.761719 19.265625 15.796875 C 19.269531 15.890625 19.136719 15.980469 18.457031 16.363281 C 18.070312 16.582031 17.824219 16.699219 17.753906 16.695312 C 17.667969 16.6875 17.609375 16.605469 17.292969 15.996094 C 17.089844 15.621094 16.925781 15.265625 16.925781 15.214844 C 18.355469 13.230469 20.039062 13.945312 18.304688 13.457031 C 18.1875 13.425781 17.207031 14.148438 17.199219 14.160156 C 17.1875 14.167969 16.242188 14.882812 16.265625 14.878906 C 16.292969 14.878906 16.234375 14.894531 16.222656 14.929688 C 16.207031 14.964844 15.980469 15.117188 15.714844 15.265625 L 15.230469 15.539062 L 14.914062 16.121094 C 14.738281 16.441406 14.597656 16.722656 14.597656 16.753906 C 14.597656 16.78125 14.75 17.082031 14.933594 17.417969 C 15.113281 17.753906 15.261719 18.0625 15.265625 18.109375 C 15.265625 18.164062 15.21875 18.210938 15.121094 18.261719 C 15.039062 18.300781 14.921875 18.359375 14.855469 18.398438 C 14.792969 18.433594 14.527344 18.589844 14.261719 18.746094 C 13.960938 18.921875 13.757812 19.019531 13.710938 19.003906 C 13.671875 18.992188 13.617188 18.933594 13.589844 18.867188 C 13.558594 18.800781 13.523438 18.75 13.503906 18.75 C 13.335938 17.738281 13.097656 18.386719 13.027344 18.527344 C 12.960938 18.671875 13.191406 19.324219 13.144531 19.394531 C 13.015625 19.582031 12.566406 19.769531 12.589844 19.792969 C 12.441406 20.207031 12.4375 20.230469 12.601562 20.136719 C 12.761719 20.050781 13.472656 19.722656 13.5 19.730469 C 13.570312 19.753906 14.324219 21.214844 14.3125 21.300781 C 14.300781 21.378906 12.949219 22.167969 12.8125 22.175781 C 12.746094 22.183594 12.703125 22.144531 12.652344 22.035156 C 12.609375 21.953125 12.535156 21.808594 12.480469 21.707031 L 11.792969 20.355469 L 11.636719 21.09375 C 11.621094 21.160156 12.375 22.089844 12.371094 22.417969 L 11.660156 22.824219 L 11.746094 23.253906 L 12.605469 22.910156 L 13.011719 23.6875 C 13.234375 24.117188 13.40625 24.488281 13.394531 24.511719 C 13.378906 24.535156 13.289062 24.59375 13.191406 24.648438 C 13.089844 24.699219 12.898438 24.808594 12.761719 24.886719 C 12.53125 25.019531 12.519531 25.035156 12.582031 25.097656 C 12.617188 25.136719 12.65625 25.199219 12.65625 25.222656 C 12.683594 25.238281 12.699219 25.265625 12.726562 25.316406 C 12.800781 25.378906 12.820312 25.375 13.195312 25.160156 C 13.410156 25.039062 13.609375 24.949219 13.636719 24.957031 C 13.699219 24.980469 14.457031 26.429688 14.457031 26.527344 C 14.457031 26.566406 14.4375 26.601562 14.417969 26.601562 C 14.332031 26.605469 14.351562 26.746094 14.496094 26.808594 C 14.769531 26.933594 15.179688 27.132812 15.199219 27.113281 C 15.207031 27.105469 15.242188 26.941406 15.214844 26.894531 C 15.128906 26.742188 15.167969 26.703125 15.585938 26.472656 C 15.816406 26.34375 16.050781 26.210938 16.101562 26.175781 C 16.15625 26.144531 16.308594 26.050781 16.441406 25.976562 C 16.652344 25.855469 16.691406 25.84375 16.742188 25.894531 C 16.777344 25.925781 16.96875 26.265625 17.175781 26.652344 C 17.542969 27.347656 17.457031 27.617188 17.324219 27.675781 C 17.222656 27.722656 17.371094 27.707031 17.675781 27.742188 C 17.832031 27.800781 18.070312 27.746094 18.101562 27.753906 C 18.136719 27.757812 18.183594 27.722656 18.199219 27.726562 C 18.210938 27.730469 18.246094 27.691406 18.277344 27.648438 C 18.332031 27.558594 19.679688 26.777344 19.785156 26.769531 C 19.824219 26.769531 19.910156 26.882812 20.011719 27.066406 C 20.097656 27.230469 20.183594 27.371094 20.191406 27.378906 C 20.238281 27.402344 20.585938 27.257812 20.585938 27.21875 C 20.585938 27.195312 20.511719 27.050781 20.417969 26.890625 C 20.328125 26.730469 20.253906 26.574219 20.253906 26.542969 C 20.25 26.457031 21.730469 25.609375 21.820312 25.640625 C 21.855469 25.652344 21.9375 25.765625 22 25.886719 C 22.0625 26.003906 22.125 26.101562 22.136719 26.101562 C 22.191406 26.097656 22.402344 25.800781 22.402344 25.734375 C 22.398438 25.695312 22.371094 25.621094 22.339844 25.566406 C 22.226562 25.382812 22.253906 25.339844 22.582031 25.152344 C 22.878906 24.984375 22.894531 24.96875 23.003906 24.714844 C 23.113281 24.460938 23.136719 24.359375 23.09375 24.359375 C 23.082031 24.363281 22.84375 24.492188 22.5625 24.648438 C 22.144531 24.886719 22.042969 24.929688 22.003906 24.886719 C 21.921875 24.800781 21.199219 23.433594 21.195312 23.359375 C 21.195312 23.308594 21.410156 23.167969 21.964844 22.855469 C 22.394531 22.617188 22.753906 22.433594 22.773438 22.441406 C 22.792969 22.457031 22.929688 22.699219 23.078125 22.980469 C 23.226562 23.269531 23.359375 23.496094 23.375 23.496094 C 23.390625 23.496094 23.441406 23.371094 23.480469 23.21875 L 23.5625 22.941406 L 23.390625 22.617188 C 23.296875 22.441406 23.21875 22.253906 23.214844 22.207031 C 23.214844 22.140625 23.285156 22.085938 23.566406 21.9375 L 23.914062 21.753906 L 24.003906 21.449219 C 24.054688 21.285156 24.089844 21.144531 24.085938 21.136719 C 24.082031 21.132812 23.835938 21.261719 23.542969 21.429688 C 23.25 21.597656 22.988281 21.722656 22.957031 21.714844 C 22.886719 21.6875 22.132812 20.253906 22.144531 20.164062 C 22.160156 20.082031 23.496094 19.292969 23.644531 19.28125 C 23.71875 19.277344 23.777344 19.355469 24.011719 19.808594 C 24.167969 20.101562 24.300781 20.339844 24.316406 20.339844 C 24.324219 20.339844 24.375 20.210938 24.417969 20.050781 L 24.5 19.761719 L 24.332031 19.449219 C 24.085938 18.996094 24.089844 18.980469 24.503906 18.761719 L 24.847656 18.582031 L 24.933594 18.292969 C 24.976562 18.132812 25.003906 17.996094 24.996094 17.988281 C 24.988281 17.980469 24.75 18.101562 24.472656 18.261719 C 24.175781 18.425781 23.933594 18.539062 23.898438 18.527344 C 23.863281 18.511719 23.652344 18.164062 23.433594 17.746094 C 23.128906 17.160156 23.050781 16.980469 23.082031 16.933594 C 23.152344 16.84375 24.554688 16.074219 24.613281 16.09375 C 24.644531 16.105469 24.800781 16.347656 24.960938 16.636719 C 25.285156 17.222656 25.273438 17.222656 25.371094 16.726562 C 25.410156 16.542969 25.402344 16.523438 25.238281 16.222656 C 25.144531 16.046875 25.066406 15.878906 25.066406 15.839844 C 25.066406 15.804688 25.160156 15.722656 25.296875 15.644531 L 25.53125 15.511719 L 25.523438 15.296875 C 25.519531 15.179688 25.507812 15.070312 25.492188 15.058594 C 25.476562 15.042969 25.335938 15.113281 25.179688 15.207031 C 25.019531 15.308594 24.867188 15.378906 24.832031 15.367188 C 24.757812 15.339844 24.027344 13.941406 24.027344 13.816406 C 24.023438 13.730469 24.085938 13.683594 24.460938 13.472656 C 24.699219 13.335938 24.90625 13.21875 24.910156 13.214844 C 24.925781 13.199219 24.816406 13 24.738281 12.902344 C 24.683594 12.839844 24.65625 12.847656 24.246094 13.082031 C 24.003906 13.214844 23.785156 13.320312 23.753906 13.308594 C 23.699219 13.292969 22.910156 11.824219 22.910156 11.746094 C 22.90625 11.722656 22.996094 11.652344 23.101562 11.59375 C 23.292969 11.484375 23.503906 11.417969 23.425781 11.371094 C 23.214844 11.027344 22.542969 10.699219 21.730469 10.464844 C 21.839844 10.554688 21.929688 10.886719 22.050781 11.105469 C 22.28125 11.539062 22.285156 11.527344 21.511719 11.96875 C 20.808594 12.371094 20.730469 12.410156 20.644531 12.378906 C 20.582031 12.355469 19.855469 10.964844 19.851562 10.859375 C 19.847656 10.785156 20.628906 10.242188 20.839844 10.183594 Z M 22.664062 10.910156 C 22.757812 10.9375 22.910156 11.054688 22.945312 11.105469 C 22.9375 11.167969 22.804688 11.246094 22.734375 11.257812 C 22.652344 11.269531 22.621094 11.246094 22.566406 11.144531 C 22.511719 11.03125 22.292969 10.738281 22.339844 10.710938 C 22.367188 10.691406 22.625 10.902344 22.664062 10.910156 Z M 22.449219 12.007812 C 22.507812 12.027344 22.628906 12.222656 22.917969 12.769531 C 23.390625 13.660156 23.390625 13.613281 22.933594 13.824219 C 22.789062 13.890625 22.625 13.980469 22.566406 14.027344 C 22.511719 14.074219 22.3125 14.1875 22.125 14.285156 C 21.746094 14.480469 21.742188 14.484375 21.6875 14.417969 C 21.589844 14.300781 20.894531 12.910156 20.910156 12.867188 C 20.933594 12.804688 22.339844 12.011719 22.4375 12.007812 C 22.441406 12.003906 22.445312 12.007812 22.449219 12.007812 Z M 23.558594 14.039062 C 23.632812 14.085938 24.386719 15.5625 24.363281 15.625 C 24.351562 15.660156 24.027344 15.863281 23.636719 16.082031 C 23.25 16.300781 22.902344 16.480469 22.867188 16.480469 C 22.832031 16.480469 22.785156 16.460938 22.761719 16.433594 C 22.660156 16.308594 22.007812 15.035156 22.003906 14.953125 C 22.003906 14.871094 22.097656 14.804688 22.757812 14.4375 C 23.171875 14.203125 23.53125 14.027344 23.558594 14.039062 Z M 21.53125 15.183594 C 21.621094 15.207031 22.386719 16.671875 22.355469 16.761719 C 22.34375 16.796875 22.011719 17.003906 21.617188 17.222656 C 21.226562 17.441406 20.878906 17.621094 20.84375 17.621094 C 20.757812 17.625 20.746094 17.605469 20.335938 16.824219 C 20.039062 16.261719 19.972656 16.105469 20.003906 16.050781 C 20.066406 15.945312 21.449219 15.160156 21.53125 15.183594 Z M 16.777344 14.972656 C 5.253906 22.523438 11.015625 18.746094 16.777344 14.972656 Z M 16.328125 14.949219 C 8.121094 24.433594 12.222656 19.691406 16.328125 14.949219 Z M 16.359375 15.175781 C 16.4375 15.199219 17.285156 16.917969 17.261719 16.988281 C 17.246094 17.027344 16.90625 17.238281 16.5 17.46875 C 16.097656 17.695312 15.75 17.882812 15.730469 17.882812 C 15.6875 17.886719 15.550781 17.652344 15.199219 16.988281 C 14.894531 16.402344 14.863281 16.308594 14.957031 16.222656 C 15.074219 16.113281 16.308594 15.15625 16.359375 15.175781 Z M 22.597656 17.222656 C 22.652344 17.246094 22.78125 17.457031 23.050781 17.96875 C 23.265625 18.382812 23.441406 18.746094 23.445312 18.777344 C 23.445312 18.816406 23.175781 18.992188 22.703125 19.257812 C 22.292969 19.488281 21.9375 19.675781 21.910156 19.675781 C 21.882812 19.679688 21.839844 19.660156 21.820312 19.628906 C 21.730469 19.515625 21.066406 18.203125 21.0625 18.136719 C 21.058594 18.078125 21.238281 17.957031 21.789062 17.640625 C 22.191406 17.410156 22.546875 17.222656 22.585938 17.222656 C 22.589844 17.222656 22.59375 17.222656 22.597656 17.222656 Z M 19.503906 16.351562 C 19.546875 16.363281 19.59375 16.402344 19.628906 16.449219 C 19.792969 16.679688 20.347656 17.78125 20.335938 17.863281 C 20.328125 17.925781 20.167969 18.035156 19.613281 18.351562 C 19.21875 18.574219 18.863281 18.761719 18.824219 18.761719 C 18.769531 18.761719 18.65625 18.582031 18.355469 18.007812 C 18.136719 17.589844 17.964844 17.226562 17.976562 17.195312 C 18 17.125 19.355469 16.351562 19.464844 16.347656 C 19.480469 16.34375 19.492188 16.347656 19.503906 16.351562 Z M 17.519531 17.457031 C 17.597656 17.484375 18.328125 18.894531 18.316406 19 C 18.308594 19.066406 18.152344 19.175781 17.605469 19.488281 C 17.222656 19.710938 16.878906 19.894531 16.839844 19.898438 C 16.800781 19.902344 16.722656 19.832031 16.667969 19.746094 C 16.496094 19.480469 15.984375 18.453125 15.980469 18.363281 C 15.980469 18.292969 16.105469 18.207031 16.722656 17.859375 C 17.128906 17.628906 17.488281 17.449219 17.519531 17.457031 Z M 20.601562 18.371094 C 20.671875 18.394531 21.421875 19.785156 21.425781 19.902344 C 21.425781 19.964844 21.269531 20.070312 20.683594 20.398438 C 20.277344 20.628906 19.921875 20.816406 19.890625 20.816406 C 19.832031 20.820312 19.042969 19.363281 19.039062 19.253906 C 19.039062 19.183594 20.523438 18.339844 20.601562 18.371094 Z M 15.507812 18.605469 C 15.519531 18.609375 15.527344 18.613281 15.535156 18.621094 C 15.613281 18.683594 16.339844 20.050781 16.339844 20.144531 C 16.34375 20.207031 16.289062 20.238281 15.4375 20.726562 C 15.140625 20.898438 14.863281 21.039062 14.824219 21.042969 C 14.742188 21.042969 14.628906 20.855469 14.207031 20.042969 C 13.996094 19.648438 13.949219 19.523438 13.980469 19.464844 C 14 19.425781 14.34375 19.207031 14.742188 18.980469 C 15.300781 18.660156 15.441406 18.589844 15.507812 18.605469 Z M 18.589844 19.519531 C 18.59375 19.519531 18.597656 19.519531 18.601562 19.519531 C 18.6875 19.574219 19.398438 20.90625 19.402344 21.023438 C 19.402344 21.097656 19.328125 21.160156 18.964844 21.367188 C 18.726562 21.507812 18.398438 21.695312 18.238281 21.789062 C 18.078125 21.878906 17.9375 21.953125 17.925781 21.953125 C 17.835938 21.941406 17.757812 21.824219 17.410156 21.160156 C 17.109375 20.589844 17.027344 20.398438 17.058594 20.355469 C 17.082031 20.324219 17.421875 20.113281 17.816406 19.890625 C 18.335938 19.59375 18.527344 19.503906 18.589844 19.519531 Z M 21.652344 20.425781 C 21.710938 20.433594 21.832031 20.621094 22.113281 21.144531 C 22.324219 21.535156 22.496094 21.894531 22.5 21.941406 C 22.503906 22.003906 22.359375 22.105469 21.765625 22.445312 C 21.359375 22.679688 21.003906 22.875 20.972656 22.875 C 20.914062 22.878906 20.121094 21.421875 20.117188 21.308594 C 20.117188 21.242188 21.550781 20.414062 21.652344 20.425781 Z M 16.582031 20.660156 C 16.679688 20.714844 17.371094 22.058594 17.367188 22.183594 C 17.363281 22.269531 17.273438 22.332031 16.652344 22.691406 C 16.257812 22.910156 15.921875 23.097656 15.902344 23.097656 C 15.828125 23.097656 15.722656 22.9375 15.386719 22.300781 C 15.191406 21.929688 15.039062 21.589844 15.042969 21.542969 C 15.058594 21.417969 16.480469 20.605469 16.582031 20.660156 Z M 19.660156 21.558594 C 19.71875 21.582031 19.835938 21.777344 20.121094 22.308594 C 20.339844 22.726562 20.511719 23.089844 20.503906 23.121094 C 20.492188 23.152344 20.164062 23.355469 19.773438 23.574219 C 19.382812 23.792969 19.023438 23.972656 18.972656 23.972656 C 18.902344 23.976562 18.828125 23.863281 18.488281 23.222656 C 18.269531 22.804688 18.101562 22.441406 18.109375 22.410156 C 18.132812 22.347656 19.542969 21.5625 19.648438 21.558594 C 19.652344 21.558594 19.652344 21.558594 19.660156 21.558594 Z M 14.546875 21.78125 C 14.605469 21.804688 14.726562 22.003906 15.003906 22.527344 C 15.21875 22.941406 15.394531 23.308594 15.398438 23.339844 C 15.398438 23.375 15.113281 23.558594 14.660156 23.816406 C 14.253906 24.046875 13.894531 24.238281 13.867188 24.238281 C 13.816406 24.238281 13.390625 23.53125 13.390625 23.441406 C 13.386719 23.410156 13.34375 23.324219 13.289062 23.253906 C 13.234375 23.183594 13.148438 23.03125 13.097656 22.910156 C 13.003906 22.695312 13.003906 22.691406 13.078125 22.613281 C 13.175781 22.511719 14.445312 21.785156 14.535156 21.78125 C 14.542969 21.78125 14.542969 21.78125 14.546875 21.78125 Z M 17.652344 22.691406 C 17.660156 22.691406 17.664062 22.691406 17.667969 22.691406 C 17.722656 22.722656 18.390625 23.941406 18.472656 24.167969 C 18.511719 24.285156 18.394531 24.375 17.738281 24.738281 C 17.007812 25.136719 16.96875 25.15625 16.914062 25.121094 C 16.859375 25.089844 16.117188 23.679688 16.113281 23.601562 C 16.113281 23.511719 16.152344 23.488281 16.902344 23.054688 C 17.402344 22.769531 17.589844 22.679688 17.652344 22.691406 Z M 20.742188 23.617188 C 20.816406 23.640625 20.890625 23.769531 21.183594 24.324219 C 21.386719 24.714844 21.554688 25.066406 21.558594 25.109375 C 21.558594 25.222656 21.476562 25.285156 20.777344 25.667969 C 20.417969 25.867188 20.089844 26.027344 20.046875 26.03125 C 19.984375 26.035156 19.890625 25.886719 19.574219 25.285156 C 19.351562 24.863281 19.1875 24.503906 19.199219 24.472656 C 19.226562 24.386719 20.585938 23.621094 20.710938 23.613281 C 20.722656 23.613281 20.730469 23.613281 20.742188 23.617188 Z M 15.617188 23.851562 C 15.691406 23.871094 15.777344 24.011719 16.089844 24.597656 C 16.398438 25.175781 16.480469 25.363281 16.453125 25.414062 C 16.433594 25.453125 16.109375 25.652344 15.738281 25.863281 C 15.363281 26.074219 15.019531 26.246094 14.976562 26.25 C 14.894531 26.253906 14.753906 26.050781 14.464844 25.503906 C 14.414062 25.410156 14.316406 25.226562 14.253906 25.101562 C 14.03125 24.683594 14.011719 24.710938 14.808594 24.25 C 15.203125 24.023438 15.550781 23.847656 15.601562 23.847656 C 15.605469 23.847656 15.613281 23.851562 15.617188 23.851562 Z M 18.738281 24.738281 C 18.746094 24.738281 18.753906 24.742188 18.761719 24.746094 C 18.855469 24.820312 19.582031 26.25 19.5625 26.316406 C 19.550781 26.34375 19.214844 26.550781 18.8125 26.777344 C 18.410156 27 18.070312 27.191406 18.058594 27.195312 C 18.046875 27.203125 18.019531 27.195312 17.996094 27.179688 C 17.933594 27.144531 17.195312 25.71875 17.191406 25.632812 C 17.191406 25.582031 17.390625 25.445312 17.945312 25.128906 C 18.503906 24.808594 18.667969 24.726562 18.738281 24.738281 Z M 18.738281 24.738281 "/>
<path style="fill-rule:nonzero;fill:rgb(88.627452%,89.803922%,90.588236%);fill-opacity:1;stroke-width:6.8;stroke-linecap:butt;stroke-linejoin:miter;stroke:rgb(28.235295%,69.411767%,60.784316%);stroke-opacity:1;stroke-miterlimit:4;" d="M -230.690104 372.557728 C -230.690104 403.80422 -256.063195 429.177312 -287.309687 429.177312 C -318.634492 429.177312 -344.007583 403.80422 -344.007583 372.557728 C -344.007583 341.232924 -318.634492 315.859832 -287.309687 315.859832 C -256.063195 315.859832 -230.690104 341.232924 -230.690104 372.557728 Z M -230.690104 372.557728 " transform="matrix(0.0498806,0,0,0.0498806,31.889773,-6.610746)"/>
<path style=" stroke:none;fill-rule:nonzero;fill:rgb(28.235295%,69.411767%,60.784316%);fill-opacity:1;" d="M 17.015625 14.253906 C 16.675781 14.164062 16.414062 14.035156 16.414062 13.957031 C 16.414062 13.882812 17.222656 12.542969 17.359375 12.386719 C 17.550781 12.175781 17.566406 12.246094 17.5625 13.308594 C 17.558594 13.828125 17.546875 14.269531 17.535156 14.292969 C 17.496094 14.347656 17.332031 14.335938 17.015625 14.253906 Z M 17.015625 14.253906 "/>
<path style=" stroke:none;fill-rule:nonzero;fill:rgb(28.235295%,69.411767%,60.784316%);fill-opacity:1;" d="M 17.984375 14.199219 C 17.929688 14.066406 17.746094 12.945312 17.722656 12.578125 C 17.707031 12.355469 17.710938 12.246094 17.738281 12.246094 C 17.855469 12.246094 19.164062 13.542969 19.164062 13.652344 C 19.164062 13.777344 18.542969 14.144531 18.167969 14.246094 C 18.035156 14.28125 18.019531 14.277344 17.984375 14.199219 Z M 17.984375 14.199219 "/>
<path style=" stroke:none;fill-rule:nonzero;fill:rgb(28.235295%,69.411767%,60.784316%);fill-opacity:1;" d="M 19 12.980469 C 18.335938 12.515625 17.859375 12.132812 17.878906 12.078125 C 17.902344 11.996094 18.324219 11.972656 19.117188 11.996094 C 19.679688 12.011719 19.882812 12.035156 19.898438 12.070312 C 19.957031 12.226562 19.679688 13.105469 19.527344 13.242188 C 19.464844 13.296875 19.417969 13.273438 19 12.980469 Z M 19 12.980469 "/>
<path style=" stroke:none;fill-rule:nonzero;fill:rgb(28.235295%,69.411767%,60.784316%);fill-opacity:1;" d="M 15.246094 11.84375 C 15.167969 11.714844 15.535156 10.714844 15.664062 10.714844 C 15.792969 10.714844 17.199219 11.746094 17.199219 11.84375 C 17.199219 11.882812 16.984375 11.890625 16.230469 11.882812 C 15.699219 11.878906 15.257812 11.859375 15.246094 11.84375 Z M 15.246094 11.84375 "/>
<path style=" stroke:none;fill-rule:nonzero;fill:rgb(28.235295%,69.411767%,60.784316%);fill-opacity:1;" d="M 17.828125 11.824219 C 17.828125 11.738281 18.144531 11.386719 18.648438 10.910156 C 18.933594 10.640625 19.191406 10.414062 19.21875 10.40625 C 19.34375 10.378906 19.71875 10.988281 19.828125 11.394531 C 19.878906 11.582031 19.890625 11.574219 19.074219 11.714844 C 18.328125 11.839844 17.828125 11.882812 17.828125 11.824219 Z M 17.828125 11.824219 "/>
<path style=" stroke:none;fill-rule:nonzero;fill:rgb(28.235295%,69.411767%,60.784316%);fill-opacity:1;" d="M 17.132812 11.546875 C 16.828125 11.292969 15.980469 10.386719 15.980469 10.3125 C 15.980469 10.152344 17.027344 9.621094 17.128906 9.726562 C 17.175781 9.773438 17.382812 10.972656 17.417969 11.398438 C 17.4375 11.632812 17.433594 11.738281 17.402344 11.738281 C 17.378906 11.738281 17.257812 11.652344 17.132812 11.546875 Z M 17.132812 11.546875 "/>
<path style=" stroke:none;fill-rule:nonzero;fill:rgb(28.235295%,69.411767%,60.784316%);fill-opacity:1;" d="M 17.605469 11.644531 C 17.550781 11.566406 17.574219 9.734375 17.628906 9.679688 C 17.742188 9.566406 18.851562 9.929688 18.851562 10.085938 C 18.851562 10.207031 17.808594 11.625 17.6875 11.671875 C 17.660156 11.683594 17.621094 11.671875 17.605469 11.644531 Z M 17.605469 11.644531 "/>
<path style=" stroke:none;fill-rule:nonzero;fill:rgb(88.627452%,89.803922%,90.588236%);fill-opacity:1;" d="M 5.957031 11.859375 L 11.730469 21.847656 L 17.476562 11.828125 Z M 5.957031 11.859375 "/>
<path style=" stroke:none;fill-rule:nonzero;fill:rgb(88.627452%,89.803922%,90.588236%);fill-opacity:1;" d="M 11.105469 17.703125 L 12.359375 17.703125 L 12.359375 27.691406 L 11.105469 27.691406 Z M 11.105469 17.703125 "/>
<path style=" stroke:none;fill-rule:nonzero;fill:rgb(88.627452%,89.803922%,90.588236%);fill-opacity:1;" d="M 14.671875 27.667969 L 14.671875 28.136719 L 8.75 28.136719 L 8.75 27.667969 Z M 14.671875 27.667969 "/>
<path style=" stroke:none;fill-rule:nonzero;fill:rgb(92.156863%,53.725493%,13.725491%);fill-opacity:1;" d="M 7.503906 12.636719 C 7.496094 12.644531 7.496094 12.652344 7.503906 12.667969 C 7.535156 12.816406 10.035156 17.226562 10.589844 18.105469 C 10.890625 18.589844 11.222656 18.988281 11.441406 19.113281 C 11.636719 19.226562 11.855469 19.238281 12.046875 19.136719 C 12.253906 19.027344 12.667969 18.550781 12.964844 18.070312 C 13.484375 17.238281 16.011719 12.785156 16.03125 12.667969 C 16.035156 12.652344 16.023438 12.644531 15.988281 12.636719 Z M 7.503906 12.636719 "/>
<path style=" stroke:none;fill-rule:nonzero;fill:rgb(28.235295%,69.411767%,60.784316%);fill-opacity:1;" d="M 7.957031 8.410156 L 11.460938 18.316406 L 8.394531 8.394531 Z M 7.957031 8.410156 "/>
<path style="fill-rule:nonzero;fill:rgb(28.235295%,69.411767%,60.784316%);fill-opacity:1;stroke-width:5.42701;stroke-linecap:butt;stroke-linejoin:miter;stroke:rgb(28.235295%,69.411767%,60.784316%);stroke-opacity:1;stroke-miterlimit:4;" d="M 146.359115 -117.77858 C 146.358915 -114.202399 143.708833 -111.172515 140.218918 -110.725961 C 136.666743 -110.284872 133.344097 -112.458729 132.393993 -115.930102 C 131.443888 -119.401476 133.198316 -122.949159 136.521163 -124.351482 C 139.776283 -125.69701 143.622193 -124.481068 145.419941 -121.374475 L 139.269014 -117.773515 Z M 146.359115 -117.77858 " transform="matrix(0.00546497,0.0622606,-0.0622606,0.00546497,0,0)"/>
<path style=" stroke:none;fill-rule:nonzero;fill:rgb(92.156863%,53.725493%,13.725491%);fill-opacity:1;" d="M 9.851562 9.878906 C 9.851562 10.492188 9.351562 10.992188 8.738281 10.992188 C 8.121094 10.992188 7.621094 10.492188 7.621094 9.878906 C 7.621094 9.261719 8.121094 8.761719 8.738281 8.761719 C 9.351562 8.761719 9.851562 9.261719 9.851562 9.878906 Z M 9.851562 9.878906 "/>
<path style=" stroke:none;fill-rule:nonzero;fill:rgb(92.54902%,67.843139%,41.960785%);fill-opacity:1;" d="M 14.292969 12.636719 L 12.308594 17.921875 L 15.417969 12.628906 Z M 14.292969 12.636719 "/>
</g>
</svg>
