
<svg xmlns="http://www.w3.org/2000/svg" xmlns:xlink="http://www.w3.org/1999/xlink" width="32px" height="32px" viewBox="0 0 32 32" version="1.1">
<g id="surface1">
<path style="fill-rule:nonzero;fill:rgb(100%,100%,100%);fill-opacity:1;stroke-width:44.648678;stroke-linecap:butt;stroke-linejoin:miter;stroke:rgb(62.352943%,3.137255%,43.137255%);stroke-opacity:1;stroke-miterlimit:4;" d="M -1377.040767 411.129992 L -824.306379 411.129992 C -774.989972 411.129992 -734.950909 451.169056 -734.950909 500.485463 L -734.950909 1053.219851 C -734.950909 1102.536258 -774.989972 1142.575321 -824.306379 1142.575321 L -1377.040767 1142.575321 C -1426.357174 1142.575321 -1466.396237 1102.536258 -1466.396237 1053.219851 L -1466.396237 500.485463 C -1466.396237 451.169056 -1426.357174 411.129992 -1377.040767 411.129992 Z M -1377.040767 411.129992 " transform="matrix(0.04,0,0,0.04,60.026942,-15.074106)"/>
<path style=" stroke:none;fill-rule:nonzero;fill:rgb(17.254902%,47.058824%,82.352942%);fill-opacity:1;" d="M 20.023438 9.714844 L 12.742188 4.933594 C 12.445312 4.738281 12.199219 4.890625 12.191406 5.191406 L 12.003906 13.269531 "/>
<path style=" stroke:none;fill-rule:nonzero;fill:rgb(32.941177%,63.529414%,98.039216%);fill-opacity:1;" d="M 18.285156 9.621094 L 13.535156 6.503906 C 13.171875 6.261719 13.179688 6.265625 13.179688 6.671875 L 13.054688 11.941406 "/>
<path style="fill:none;stroke-width:22;stroke-linecap:round;stroke-linejoin:round;stroke:rgb(62.352943%,3.137255%,43.137255%);stroke-opacity:1;stroke-miterlimit:4;" d="M 539.753535 185.037516 L 289.977087 21.021222 C 279.793069 14.32121 271.351054 19.54722 271.083053 29.865238 L 264.651042 306.977735 " transform="matrix(0.0291511,0,0,0.0291511,4.289046,4.320803)"/>
<path style=" stroke:none;fill-rule:nonzero;fill:rgb(32.941177%,63.529414%,98.039216%);fill-opacity:1;" d="M 15.789062 9.472656 L 7.097656 8.871094 C 6.746094 8.847656 6.605469 9.097656 6.746094 9.363281 L 10.539062 16.503906 "/>
<path style=" stroke:none;fill-rule:nonzero;fill:rgb(17.254902%,47.058824%,82.352942%);fill-opacity:1;" d="M 7.035156 8.867188 C 6.730469 8.878906 6.617188 9.113281 6.75 9.363281 L 7.261719 10.335938 L 14.757812 10.855469 L 15.789062 9.472656 L 7.097656 8.871094 C 7.074219 8.867188 7.054688 8.867188 7.035156 8.867188 Z M 7.035156 8.867188 "/>
<path style="fill:none;stroke-width:22;stroke-linecap:round;stroke-linejoin:round;stroke:rgb(62.352943%,3.137255%,43.137255%);stroke-opacity:1;stroke-miterlimit:4;" d="M 394.497274 176.729501 L 96.34674 156.093464 C 84.286718 155.289463 79.46271 163.865478 84.286718 172.977495 L 214.400951 417.929934 " transform="matrix(0.0291511,0,0,0.0291511,4.289046,4.320803)"/>
<path style=" stroke:none;fill-rule:nonzero;fill:rgb(32.941177%,63.529414%,98.039216%);fill-opacity:1;" d="M 13.207031 11.53125 L 5.109375 14.742188 C 4.78125 14.871094 4.765625 15.160156 5.007812 15.339844 L 11.511719 20.140625 "/>
<path style=" stroke:none;fill-rule:nonzero;fill:rgb(17.254902%,47.058824%,82.352942%);fill-opacity:1;" d="M 13.207031 11.53125 L 5.109375 14.742188 C 4.78125 14.871094 4.765625 15.160156 5.007812 15.339844 L 6.101562 16.144531 L 12.824219 13.480469 Z M 13.207031 11.53125 "/>
<path style="fill:none;stroke-width:22;stroke-linecap:round;stroke-linejoin:round;stroke:rgb(62.352943%,3.137255%,43.137255%);stroke-opacity:1;stroke-miterlimit:4;" d="M 305.923116 247.347628 L 28.140618 357.495826 C 16.884597 361.917833 16.348596 371.833851 24.656611 377.997862 L 247.767011 542.684158 " transform="matrix(0.0291511,0,0,0.0291511,4.289046,4.320803)"/>
<path style=" stroke:none;fill-rule:nonzero;fill:rgb(32.941177%,63.529414%,98.039216%);fill-opacity:1;" d="M 10.960938 14.191406 L 5.851562 21.25 C 5.644531 21.535156 5.785156 21.785156 6.085938 21.808594 L 14.148438 22.367188 "/>
<path style=" stroke:none;fill-rule:nonzero;fill:rgb(17.254902%,47.058824%,82.352942%);fill-opacity:1;" d="M 10.960938 14.191406 L 5.851562 21.25 C 5.644531 21.535156 5.785156 21.785156 6.085938 21.808594 L 7.304688 21.894531 L 11.632812 15.917969 Z M 10.960938 14.191406 "/>
<path style="fill:none;stroke-width:22;stroke-linecap:round;stroke-linejoin:round;stroke:rgb(62.352943%,3.137255%,43.137255%);stroke-opacity:1;stroke-miterlimit:4;" d="M 228.872977 338.601792 L 53.600663 580.740226 C 46.49865 590.522243 51.322659 599.098259 61.640678 599.90226 L 338.217173 619.064294 " transform="matrix(0.0291511,0,0,0.0291511,4.289046,4.320803)"/>
<path style=" stroke:none;fill-rule:nonzero;fill:rgb(94.901961%,61.176473%,90.588236%);fill-opacity:1;" d="M 22.648438 24.808594 C 22.648438 26.023438 21.59375 27.007812 20.292969 27.007812 C 18.988281 27.007812 17.933594 26.023438 17.933594 24.808594 C 17.933594 23.597656 18.988281 22.613281 20.292969 22.613281 C 21.59375 22.613281 22.648438 23.597656 22.648438 24.808594 Z M 22.648438 24.808594 "/>
<path style=" stroke:none;fill-rule:nonzero;fill:rgb(83.92157%,41.960785%,80.000001%);fill-opacity:1;" d="M 19.101562 22.914062 C 18.402344 23.292969 17.933594 24 17.933594 24.808594 C 17.933594 26.023438 18.988281 27.007812 20.292969 27.007812 C 21.527344 27.007812 22.542969 26.121094 22.640625 24.992188 C 22.289062 25.605469 21.589844 26.027344 20.789062 26.027344 C 19.632812 26.027344 18.691406 25.152344 18.691406 24.070312 C 18.691406 23.636719 18.84375 23.238281 19.101562 22.914062 Z M 19.101562 22.914062 "/>
<path style="fill:none;stroke-width:66.875259;stroke-linecap:round;stroke-linejoin:round;stroke:rgb(62.352943%,3.137255%,43.137255%);stroke-opacity:1;stroke-miterlimit:4;" d="M 738.351009 441.271555 C 738.351009 572.502917 632.186531 678.838298 501.250341 678.838298 C 369.920949 678.838298 263.756471 572.502917 263.756471 441.271555 C 263.756471 310.462158 369.920949 204.126778 501.250341 204.126778 C 632.186531 204.126778 738.351009 310.462158 738.351009 441.271555 Z M 738.351009 441.271555 " transform="matrix(0.00993447,0,0,0.00925727,15.313314,20.723625)"/>
<path style=" stroke:none;fill-rule:nonzero;fill:rgb(94.901961%,61.176473%,90.588236%);fill-opacity:1;" d="M 18.578125 24.621094 C 18.578125 25.941406 17.523438 27.011719 16.21875 27.011719 C 14.917969 27.011719 13.863281 25.941406 13.863281 24.621094 C 13.863281 23.300781 14.917969 22.230469 16.21875 22.230469 C 17.523438 22.230469 18.578125 23.300781 18.578125 24.621094 Z M 18.578125 24.621094 "/>
<path style=" stroke:none;fill-rule:nonzero;fill:rgb(83.92157%,41.960785%,80.000001%);fill-opacity:1;" d="M 15.089844 22.527344 C 14.355469 22.933594 13.863281 23.71875 13.863281 24.621094 C 13.863281 25.941406 14.917969 27.011719 16.21875 27.011719 C 17.367188 27.011719 18.324219 26.179688 18.535156 25.078125 C 18.144531 25.574219 17.542969 25.890625 16.867188 25.890625 C 15.6875 25.890625 14.730469 24.921875 14.730469 23.722656 C 14.730469 23.28125 14.863281 22.871094 15.089844 22.527344 Z M 15.089844 22.527344 "/>
<path style="fill:none;stroke-width:64.124695;stroke-linecap:round;stroke-linejoin:round;stroke:rgb(62.352943%,3.137255%,43.137255%);stroke-opacity:1;stroke-miterlimit:4;" d="M 738.394015 441.271077 C 738.394015 572.404497 632.229537 678.707921 500.900146 678.707921 C 369.963956 678.707921 263.799478 572.404497 263.799478 441.271077 C 263.799478 310.137657 369.963956 203.834233 500.900146 203.834233 C 632.229537 203.834233 738.394015 310.137657 738.394015 441.271077 Z M 738.394015 441.271077 " transform="matrix(0.00993447,0,0,0.0100685,11.242574,20.178171)"/>
<path style=" stroke:none;fill-rule:nonzero;fill:rgb(94.901961%,61.176473%,90.588236%);fill-opacity:1;" d="M 26.773438 18.621094 C 26.773438 19.949219 25.621094 21.023438 24.199219 21.023438 C 22.777344 21.023438 21.625 19.949219 21.625 18.621094 C 21.625 17.292969 22.777344 16.21875 24.199219 16.21875 C 25.621094 16.21875 26.773438 17.292969 26.773438 18.621094 Z M 26.773438 18.621094 "/>
<path style=" stroke:none;fill-rule:nonzero;fill:rgb(83.92157%,41.960785%,80.000001%);fill-opacity:1;" d="M 22.511719 16.808594 C 21.96875 17.246094 21.625 17.894531 21.625 18.621094 C 21.625 19.949219 22.777344 21.023438 24.199219 21.023438 C 25.480469 21.023438 26.542969 20.152344 26.738281 19.007812 C 26.289062 19.375 25.699219 19.597656 25.054688 19.597656 C 23.632812 19.597656 22.480469 18.519531 22.480469 17.191406 C 22.480469 17.0625 22.492188 16.933594 22.511719 16.808594 Z M 22.511719 16.808594 "/>
<path style="fill:none;stroke-width:61.218277;stroke-linecap:round;stroke-linejoin:round;stroke:rgb(62.352943%,3.137255%,43.137255%);stroke-opacity:1;stroke-miterlimit:4;" d="M 738.439397 441.386875 C 738.439397 572.600323 632.159459 678.728848 501.020824 678.728848 C 369.882189 678.728848 263.602251 572.600323 263.602251 441.386875 C 263.602251 310.173427 369.882189 204.044902 501.020824 204.044902 C 632.159459 204.044902 738.439397 310.173427 738.439397 441.386875 Z M 738.439397 441.386875 " transform="matrix(0.0108425,0,0,0.0101219,18.766884,14.153435)"/>
<path style=" stroke:none;fill-rule:nonzero;fill:rgb(94.901961%,61.176473%,90.588236%);fill-opacity:1;" d="M 25.226562 16.820312 C 25.226562 21.089844 21.765625 24.550781 17.496094 24.550781 C 13.226562 24.550781 9.765625 21.089844 9.765625 16.820312 C 9.765625 12.550781 13.226562 9.089844 17.496094 9.089844 C 21.765625 9.089844 25.226562 12.550781 25.226562 16.820312 Z M 25.226562 16.820312 "/>
<path style=" stroke:none;fill-rule:nonzero;fill:rgb(83.92157%,41.960785%,80.000001%);fill-opacity:1;" d="M 13.058594 10.488281 C 11.066406 11.886719 9.761719 14.199219 9.761719 16.820312 C 9.761719 21.089844 13.226562 24.550781 17.496094 24.550781 C 20.695312 24.550781 23.441406 22.605469 24.617188 19.835938 C 23.253906 21.410156 21.242188 22.402344 18.996094 22.402344 C 14.890625 22.402344 11.558594 19.074219 11.558594 14.964844 C 11.558594 13.285156 12.117188 11.734375 13.058594 10.488281 Z M 13.058594 10.488281 "/>
<path style="fill:none;stroke-width:19.690641;stroke-linecap:round;stroke-linejoin:round;stroke:rgb(62.352943%,3.137255%,43.137255%);stroke-opacity:1;stroke-miterlimit:4;" d="M 738.386272 441.408843 C 738.386272 572.496694 632.124757 678.758209 501.036905 678.758209 C 369.949054 678.758209 263.687539 572.496694 263.687539 441.408843 C 263.687539 310.320991 369.949054 204.059476 501.036905 204.059476 C 632.124757 204.059476 738.386272 310.320991 738.386272 441.408843 Z M 738.386272 441.408843 " transform="matrix(0.03257,0,0,0.03257,1.177322,2.443627)"/>
<path style=" stroke:none;fill-rule:nonzero;fill:rgb(100%,100%,100%);fill-opacity:1;" d="M 22.347656 14.558594 C 21.910156 12.949219 20.546875 11.917969 19.300781 12.253906 C 18.058594 12.59375 17.402344 14.171875 17.839844 15.78125 C 18.277344 17.390625 19.636719 18.421875 20.882812 18.082031 C 22.128906 17.746094 22.78125 16.167969 22.347656 14.558594 Z M 22.347656 14.558594 "/>
<path style=" stroke:none;fill-rule:nonzero;fill:rgb(100%,100%,100%);fill-opacity:1;" d="M 24.277344 14.371094 C 23.960938 13.007812 22.957031 12.074219 22.035156 12.289062 C 21.113281 12.503906 20.625 13.785156 20.945312 15.152344 C 21.261719 16.519531 22.269531 17.453125 23.191406 17.238281 C 24.113281 17.023438 24.597656 15.738281 24.277344 14.371094 Z M 24.277344 14.371094 "/>
<path style=" stroke:none;fill-rule:nonzero;fill:rgb(0%,0%,0%);fill-opacity:1;" d="M 21.394531 15.371094 C 21.378906 14.75 20.972656 14.261719 20.492188 14.277344 C 20.015625 14.292969 19.644531 14.808594 19.660156 15.425781 C 19.683594 16.046875 20.085938 16.535156 20.566406 16.519531 C 21.042969 16.503906 21.417969 15.988281 21.394531 15.371094 Z M 21.394531 15.371094 "/>
<path style=" stroke:none;fill-rule:nonzero;fill:rgb(0%,0%,0%);fill-opacity:1;" d="M 23.855469 14.996094 C 23.835938 14.421875 23.460938 13.96875 23.015625 13.980469 C 22.570312 13.996094 22.226562 14.472656 22.246094 15.050781 C 22.261719 15.625 22.636719 16.078125 23.082031 16.066406 C 23.527344 16.050781 23.871094 15.574219 23.855469 14.996094 Z M 23.855469 14.996094 "/>
<path style=" stroke:none;fill-rule:nonzero;fill:rgb(94.901961%,61.176473%,90.588236%);fill-opacity:1;" d="M 15.082031 22.058594 C 15.082031 23.324219 13.914062 24.347656 12.472656 24.347656 C 11.035156 24.347656 9.863281 23.324219 9.863281 22.058594 C 9.863281 20.796875 11.035156 19.773438 12.472656 19.773438 C 13.914062 19.773438 15.082031 20.796875 15.082031 22.058594 Z M 15.082031 22.058594 "/>
<path style=" stroke:none;fill-rule:nonzero;fill:rgb(83.92157%,41.960785%,80.000001%);fill-opacity:1;" d="M 11.113281 20.109375 C 10.363281 20.511719 9.863281 21.234375 9.863281 22.058594 C 9.863281 23.324219 11.03125 24.347656 12.472656 24.347656 C 13.808594 24.347656 14.910156 23.464844 15.0625 22.332031 C 14.65625 22.941406 13.898438 23.355469 13.03125 23.355469 C 11.734375 23.355469 10.683594 22.433594 10.683594 21.292969 C 10.683594 20.855469 10.839844 20.445312 11.113281 20.109375 Z M 11.113281 20.109375 "/>
<path style="fill:none;stroke-width:62.34771;stroke-linecap:round;stroke-linejoin:round;stroke:rgb(62.352943%,3.137255%,43.137255%);stroke-opacity:1;stroke-miterlimit:4;" d="M 738.595065 441.205492 C 738.595065 572.591612 632.260769 678.835944 501.032157 678.835944 C 370.159178 678.835944 263.46925 572.591612 263.46925 441.205492 C 263.46925 310.224885 370.159178 203.980553 501.032157 203.980553 C 632.260769 203.980553 738.595065 310.224885 738.595065 441.205492 Z M 738.595065 441.205492 " transform="matrix(0.0109839,0,0,0.00963287,6.969353,17.80852)"/>
<path style=" stroke:none;fill-rule:nonzero;fill:rgb(62.352943%,3.137255%,43.137255%);fill-opacity:1;" d="M 20.648438 18.863281 C 20.414062 18.992188 20.566406 19.363281 20.914062 19.40625 C 21.820312 19.519531 23.285156 18.871094 23.664062 17.976562 C 23.761719 17.753906 23.582031 17.660156 23.503906 17.75 C 23.347656 17.941406 23.050781 18.222656 22.601562 18.488281 C 21.886719 18.910156 20.902344 18.730469 20.648438 18.863281 Z M 20.648438 18.863281 "/>
</g>
</svg>
