
<svg xmlns="http://www.w3.org/2000/svg" xmlns:xlink="http://www.w3.org/1999/xlink" width="32px" height="32px" viewBox="0 0 32 32" version="1.1">
<g id="surface1">
<path style="fill-rule:nonzero;fill:rgb(100%,100%,100%);fill-opacity:1;stroke-width:28.191782;stroke-linecap:butt;stroke-linejoin:miter;stroke:rgb(91.764706%,35.686275%,32.549021%);stroke-opacity:1;stroke-miterlimit:4;" d="M 81.49999 635.582072 L 430.49999 635.582072 C 461.68749 635.582072 486.93749 660.832072 486.93749 692.019572 L 486.93749 1041.019572 C 486.93749 1072.207072 461.68749 1097.457072 430.49999 1097.457072 L 81.49999 1097.457072 C 50.31249 1097.457072 25.06249 1072.207072 25.06249 1041.019572 L 25.06249 692.019572 C 25.06249 660.832072 50.31249 635.582072 81.49999 635.582072 Z M 81.49999 635.582072 " transform="matrix(0.0625,0,0,0.0625,0.000000625,-38.157473)"/>
<path style=" stroke:none;fill-rule:nonzero;fill:rgb(91.764706%,35.686275%,32.549021%);fill-opacity:1;" d="M 20.449219 5.414062 C 15.925781 2.800781 10.144531 4.351562 7.535156 8.871094 C 4.925781 13.394531 6.472656 19.175781 10.996094 21.785156 C 15.519531 24.398438 21.296875 22.847656 23.910156 18.324219 C 26.519531 13.804688 24.972656 8.023438 20.449219 5.414062 M 18.558594 8.6875 C 21.269531 10.253906 22.199219 13.722656 20.632812 16.433594 C 19.066406 19.148438 15.597656 20.078125 12.886719 18.511719 C 10.175781 16.945312 9.246094 13.476562 10.808594 10.761719 C 12.375 8.050781 15.847656 7.121094 18.558594 8.6875 M 18.558594 8.6875 "/>
<path style=" stroke:none;fill-rule:nonzero;fill:rgb(92.54902%,92.54902%,87.058824%);fill-opacity:1;" d="M 20.449219 5.414062 C 19.238281 4.714844 17.929688 4.328125 16.621094 4.203125 L 16.605469 8.015625 C 17.269531 8.121094 17.9375 8.332031 18.558594 8.6875 C 19.179688 9.046875 19.691406 9.519531 20.117188 10.042969 L 23.410156 8.121094 C 22.648438 7.054688 21.660156 6.113281 20.449219 5.414062 M 20.449219 5.414062 "/>
<path style=" stroke:none;fill-rule:nonzero;fill:rgb(92.54902%,92.54902%,87.058824%);fill-opacity:1;" d="M 10.246094 5.914062 C 9.175781 6.675781 8.234375 7.660156 7.535156 8.871094 C 6.835938 10.085938 6.449219 11.394531 6.324219 12.699219 L 10.136719 12.71875 C 10.242188 12.050781 10.449219 11.386719 10.808594 10.765625 C 11.167969 10.144531 11.640625 9.628906 12.164062 9.203125 M 10.246094 5.914062 "/>
<path style="fill:none;stroke-width:33.274746;stroke-linecap:butt;stroke-linejoin:miter;stroke:rgb(82.745099%,55.29412%,37.254903%);stroke-opacity:1;stroke-miterlimit:4;" d="M 70.43749 848.582072 C 70.43749 848.582072 60.18749 858.707072 76.68749 925.832072 C 89.49999 977.957072 89.49999 967.832072 112.06249 971.769572 C 170.31249 981.957072 195.43749 886.644572 225.93749 887.957072 C 281.56249 890.207072 241.87499 1049.582072 296.56249 1039.207072 C 352.74999 1028.457072 254.93749 892.457072 306.62499 867.769572 C 358.81249 842.832072 447.81249 968.582072 447.81249 968.582072 " transform="matrix(0.0625,0,0,0.0625,0.000000625,-38.157473)"/>
<path style=" stroke:none;fill-rule:nonzero;fill:rgb(92.54902%,92.54902%,87.058824%);fill-opacity:1;" d="M 11.324219 17.15625 L 8.035156 19.074219 C 8.796875 20.144531 9.785156 21.089844 10.996094 21.785156 C 12.207031 22.488281 13.515625 22.871094 14.824219 22.996094 L 14.839844 19.183594 C 14.175781 19.078125 13.507812 18.871094 12.886719 18.511719 C 12.265625 18.152344 11.75 17.679688 11.324219 17.15625 M 11.324219 17.15625 "/>
<path style=" stroke:none;fill-rule:nonzero;fill:rgb(92.54902%,92.54902%,87.058824%);fill-opacity:1;" d="M 25.117188 14.5 L 21.308594 14.480469 C 21.199219 15.148438 20.992188 15.816406 20.632812 16.433594 C 20.277344 17.058594 19.800781 17.570312 19.277344 17.996094 L 21.199219 21.285156 C 22.269531 20.527344 23.207031 19.539062 23.910156 18.324219 C 24.605469 17.113281 24.996094 15.808594 25.117188 14.5 M 25.117188 14.5 "/>
</g>
</svg>
