
<svg xmlns="http://www.w3.org/2000/svg" xmlns:xlink="http://www.w3.org/1999/xlink" width="32px" height="32px" viewBox="0 0 32 32" version="1.1">
<defs>
<linearGradient id="linear0" gradientUnits="userSpaceOnUse" x1="1" y1="0" x2="47" y2="0" gradientTransform="matrix(0,-0.666667,0.666667,0,0.00147645,32)">
<stop offset="0" style="stop-color:rgb(18.82353%,62.7451%,83.137256%);stop-opacity:1;"/>
<stop offset="1" style="stop-color:rgb(25.490198%,65.882355%,84.705883%);stop-opacity:1;"/>
</linearGradient>
</defs>
<g id="surface1">
<path style=" stroke:none;fill-rule:nonzero;fill:url(#linear0);" d="M 0.667969 28.667969 L 0.667969 3.332031 C 0.667969 1.859375 1.859375 0.667969 3.332031 0.667969 L 28.667969 0.667969 C 30.140625 0.667969 31.332031 1.859375 31.332031 3.332031 L 31.332031 28.667969 C 31.332031 30.140625 30.140625 31.332031 28.667969 31.332031 L 3.332031 31.332031 C 1.859375 31.332031 0.667969 30.140625 0.667969 28.667969 Z M 0.667969 28.667969 "/>
<path style=" stroke:none;fill-rule:nonzero;fill:rgb(91.764706%,35.686275%,32.549021%);fill-opacity:1;" d="M 21.046875 6.769531 C 16.265625 4.007812 10.148438 5.644531 7.386719 10.429688 C 4.625 15.214844 6.265625 21.328125 11.046875 24.089844 C 15.832031 26.851562 21.945312 25.214844 24.707031 20.429688 C 27.46875 15.644531 25.832031 9.53125 21.046875 6.769531 M 19.046875 10.234375 C 21.917969 11.890625 22.902344 15.558594 21.246094 18.429688 C 19.589844 21.296875 15.917969 22.28125 13.046875 20.625 C 10.179688 18.96875 9.195312 15.300781 10.851562 12.429688 C 12.507812 9.558594 16.179688 8.574219 19.046875 10.234375 M 19.046875 10.234375 "/>
<path style=" stroke:none;fill-rule:nonzero;fill:rgb(92.54902%,92.54902%,87.058824%);fill-opacity:1;" d="M 21.046875 6.769531 C 19.765625 6.027344 18.382812 5.621094 17 5.488281 L 16.980469 9.519531 C 17.683594 9.632812 18.390625 9.855469 19.046875 10.234375 C 19.703125 10.613281 20.246094 11.113281 20.699219 11.667969 L 24.179688 9.636719 C 23.375 8.503906 22.328125 7.507812 21.046875 6.769531 M 21.046875 6.769531 "/>
<path style=" stroke:none;fill-rule:nonzero;fill:rgb(92.54902%,92.54902%,87.058824%);fill-opacity:1;" d="M 10.253906 7.296875 C 9.121094 8.101562 8.128906 9.148438 7.386719 10.429688 C 6.648438 11.710938 6.238281 13.09375 6.109375 14.480469 L 10.140625 14.496094 C 10.253906 13.792969 10.472656 13.085938 10.851562 12.429688 C 11.230469 11.773438 11.730469 11.230469 12.285156 10.777344 M 10.253906 7.296875 "/>
<path style="fill:none;stroke-width:3.3;stroke-linecap:butt;stroke-linejoin:miter;stroke:rgb(82.745099%,55.29412%,37.254903%);stroke-opacity:1;stroke-miterlimit:4;" d="M 6.111328 25.177734 C 6.111328 25.177734 5.091797 26.179688 6.732422 32.835938 C 7.998047 37.998047 7.998047 37.001953 10.236328 37.388672 C 16.013672 38.396484 18.509766 28.951172 21.533203 29.074219 C 27.046875 29.302734 23.115234 45.111328 28.529297 44.074219 C 34.107422 43.007812 24.410156 29.525391 29.53125 27.076172 C 34.705078 24.603516 43.529297 37.072266 43.529297 37.072266 " transform="matrix(0.666667,0,0,0.666667,0,0)"/>
<path style=" stroke:none;fill-rule:nonzero;fill:rgb(92.54902%,92.54902%,87.058824%);fill-opacity:1;" d="M 11.398438 19.191406 L 7.917969 21.222656 C 8.722656 22.355469 9.765625 23.347656 11.046875 24.089844 C 12.328125 24.828125 13.714844 25.238281 15.097656 25.371094 L 15.113281 21.339844 C 14.410156 21.226562 13.703125 21.003906 13.046875 20.625 C 12.390625 20.246094 11.847656 19.746094 11.398438 19.191406 M 11.398438 19.191406 "/>
<path style=" stroke:none;fill-rule:nonzero;fill:rgb(92.54902%,92.54902%,87.058824%);fill-opacity:1;" d="M 25.988281 16.378906 L 21.957031 16.363281 C 21.84375 17.066406 21.621094 17.773438 21.246094 18.429688 C 20.863281 19.085938 20.363281 19.628906 19.808594 20.078125 L 21.839844 23.5625 C 22.972656 22.753906 23.96875 21.710938 24.707031 20.429688 C 25.449219 19.148438 25.855469 17.761719 25.988281 16.378906 M 25.988281 16.378906 "/>
</g>
</svg>
