
<svg xmlns="http://www.w3.org/2000/svg" xmlns:xlink="http://www.w3.org/1999/xlink" width="32px" height="32px" viewBox="0 0 32 32" version="1.1">
<g id="surface1">
<path style="fill-rule:nonzero;fill:rgb(100%,100%,100%);fill-opacity:1;stroke-width:27.987738;stroke-linecap:butt;stroke-linejoin:miter;stroke:rgb(60.000002%,60.000002%,60.000002%);stroke-opacity:1;stroke-miterlimit:4;" d="M 82.75 26.75 L 429.25 26.75 C 460.1875 26.75 485.25 51.8125 485.25 82.75 L 485.25 429.25 C 485.25 460.1875 460.1875 485.25 429.25 485.25 L 82.75 485.25 C 51.8125 485.25 26.75 460.1875 26.75 429.25 L 26.75 82.75 C 26.75 51.8125 51.8125 26.75 82.75 26.75 Z M 82.75 26.75 " transform="matrix(0.0625,0,0,0.0625,0,0)"/>
<path style="fill-rule:nonzero;fill:rgb(60.000002%,60.000002%,60.000002%);fill-opacity:1;stroke-width:10.546;stroke-linecap:butt;stroke-linejoin:miter;stroke:rgb(60.000002%,60.000002%,60.000002%);stroke-opacity:1;stroke-miterlimit:10;" d="M 341.333333 89.666667 C 202.333333 89.666667 89.666667 202.333333 89.666667 341.333333 C 89.666667 480.333333 202.333333 593 341.333333 593 C 480.333333 593 593 480.333333 593 341.333333 C 593 202.333333 480.333333 89.666667 341.333333 89.666667 Z M 312.416667 128.333333 L 370.25 128.333333 L 370.25 315.25 L 364.583333 417.083333 L 318.416667 417.083333 L 312.416667 315.25 Z M 312.416667 481.833333 L 370.25 481.833333 L 370.25 554.333333 L 312.416667 554.333333 Z M 312.416667 481.833333 " transform="matrix(0.046875,0,0,0.046875,0,0)"/>
</g>
</svg>
