<!-- color: #edb020 -->
<svg xmlns="http://www.w3.org/2000/svg" xmlns:xlink="http://www.w3.org/1999/xlink" width="32px" height="32px" viewBox="0 0 32 32" version="1.1">
<defs>
<clipPath id="clip1">
  <path d="M 4.375 5.625 L 27.6875 5.625 L 27.6875 25.6875 L 4.375 25.6875 Z M 4.375 5.625 "/>
</clipPath>
<clipPath id="clip2">
  <path d="M 37.449219 15.761719 C 37.449219 27.4375 27.980469 36.894531 16.320312 36.894531 C 4.65625 36.894531 -4.808594 27.4375 -4.808594 15.761719 C -4.808594 4.089844 4.65625 -5.363281 16.320312 -5.363281 C 27.980469 -5.363281 37.449219 4.089844 37.449219 15.761719 Z M 37.449219 15.761719 "/>
</clipPath>
<clipPath id="clip3">
  <path d="M 8.6875 7.9375 L 23.0625 7.9375 L 23.0625 23.625 L 8.6875 23.625 Z M 8.6875 7.9375 "/>
</clipPath>
<clipPath id="clip4">
  <path d="M 37.449219 15.761719 C 37.449219 27.4375 27.980469 36.894531 16.320312 36.894531 C 4.65625 36.894531 -4.808594 27.4375 -4.808594 15.761719 C -4.808594 4.089844 4.65625 -5.363281 16.320312 -5.363281 C 27.980469 -5.363281 37.449219 4.089844 37.449219 15.761719 Z M 37.449219 15.761719 "/>
</clipPath>
</defs>
<g id="surface1">
<path style="fill-rule:nonzero;fill:rgb(100%,100%,100%);fill-opacity:1;stroke-width:6.815335;stroke-linecap:butt;stroke-linejoin:miter;stroke:rgb(100%,27.058825%,0%);stroke-opacity:1;stroke-miterlimit:4;" d="M 21.8125 8.171875 L 106.1875 8.171875 C 113.71875 8.171875 119.828125 14.28125 119.828125 21.8125 L 119.828125 106.1875 C 119.828125 113.71875 113.71875 119.828125 106.1875 119.828125 L 21.8125 119.828125 C 14.28125 119.828125 8.171875 113.71875 8.171875 106.1875 L 8.171875 21.8125 C 8.171875 14.28125 14.28125 8.171875 21.8125 8.171875 Z M 21.8125 8.171875 " transform="matrix(0.25,0,0,0.25,0,0)"/>
<g clip-path="url(#clip1)" clip-rule="nonzero">
<g clip-path="url(#clip2)" clip-rule="nonzero">
<path style=" stroke:none;fill-rule:nonzero;fill:rgb(100%,27.058825%,0%);fill-opacity:1;" d="M 15.765625 5.667969 C 13.117188 5.6875 10.566406 5.855469 10.066406 6.128906 C 9.070312 6.683594 4.367188 14.722656 4.378906 15.828125 C 4.386719 16.925781 9.265625 24.726562 10.273438 25.269531 C 11.28125 25.808594 20.863281 25.714844 21.863281 25.15625 C 22.863281 24.601562 27.664062 16.707031 27.652344 15.605469 C 27.640625 14.511719 22.644531 6.476562 21.632812 5.941406 C 21.128906 5.671875 18.410156 5.640625 15.765625 5.664062 M 15.839844 7.96875 C 17.90625 7.949219 19.917969 8.09375 20.3125 8.308594 C 21.101562 8.746094 24.820312 14.785156 24.832031 15.667969 C 24.839844 16.550781 21.15625 22.792969 20.371094 23.242188 C 19.59375 23.691406 12.355469 23.539062 11.5625 23.105469 C 10.773438 22.671875 6.925781 16.714844 6.925781 15.832031 C 6.914062 14.949219 10.957031 8.800781 11.738281 8.351562 C 12.128906 8.125 13.769531 7.992188 15.839844 7.972656 M 15.839844 7.972656 "/>
</g>
</g>
<g clip-path="url(#clip3)" clip-rule="nonzero">
<g clip-path="url(#clip4)" clip-rule="nonzero">
<path style=" stroke:none;fill-rule:nonzero;fill:rgb(100%,27.058825%,0%);fill-opacity:1;" d="M 18.933594 23.582031 C 18.507812 22.710938 18.042969 21.828125 17.535156 20.941406 C 17.035156 20.039062 16.460938 19.121094 15.800781 18.191406 C 15.597656 18.457031 15.335938 18.835938 15.011719 19.316406 C 14.707031 19.796875 14.394531 20.3125 14.074219 20.855469 C 13.769531 21.394531 13.480469 21.910156 13.199219 22.410156 C 12.921875 22.90625 12.71875 23.296875 12.589844 23.582031 L 8.691406 23.582031 C 9.332031 22.363281 10.078125 21.085938 10.933594 19.746094 C 11.792969 18.410156 12.746094 16.980469 13.792969 15.480469 L 8.910156 7.945312 L 13.046875 7.945312 L 16.003906 12.816406 L 18.894531 7.945312 L 22.785156 7.945312 L 17.972656 15.527344 C 19.199219 17.167969 20.230469 18.683594 21.054688 20.082031 C 21.886719 21.46875 22.542969 22.636719 23.027344 23.582031 L 18.9375 23.582031 "/>
</g>
</g>
</g>
</svg>
