
<svg xmlns="http://www.w3.org/2000/svg" xmlns:xlink="http://www.w3.org/1999/xlink" width="32px" height="32px" viewBox="0 0 32 32" version="1.1">
<g id="surface1">
<path style="fill-rule:nonzero;fill:rgb(99.215686%,73.333335%,73.333335%);fill-opacity:1;stroke-width:14.180381;stroke-linecap:butt;stroke-linejoin:miter;stroke:rgb(69.411767%,60.784316%,60.784316%);stroke-opacity:1;stroke-miterlimit:4;" d="M 40.21875 11.84375 L 215.78125 11.84375 C 231.4375 11.84375 244.15625 24.5625 244.15625 40.21875 L 244.15625 215.78125 C 244.15625 231.4375 231.4375 244.15625 215.78125 244.15625 L 40.21875 244.15625 C 24.5625 244.15625 11.84375 231.4375 11.84375 215.78125 L 11.84375 40.21875 C 11.84375 24.5625 24.5625 11.84375 40.21875 11.84375 Z M 40.21875 11.84375 " transform="matrix(0.125,0,0,0.125,0,0)"/>
<path style=" stroke:none;fill-rule:nonzero;fill:rgb(85.490197%,9.411765%,9.411765%);fill-opacity:1;" d="M 6.316406 26.667969 C 6.394531 26.613281 6.625 26.484375 6.824219 26.378906 C 7.464844 26.039062 9.199219 24.691406 9.871094 24.011719 C 12.757812 21.082031 14.019531 17.003906 13.839844 11.160156 C 13.777344 9.003906 13.617188 7.921875 13.175781 6.652344 C 12.832031 5.660156 12.824219 5.566406 13.039062 5.347656 C 13.152344 5.230469 13.292969 5.203125 13.511719 5.25 C 14.058594 5.363281 16.6875 6.183594 16.773438 6.265625 C 16.816406 6.3125 16.742188 6.738281 16.605469 7.214844 C 16.011719 9.265625 15.78125 10.917969 15.699219 13.746094 L 15.640625 15.6875 L 16.226562 16.382812 C 16.550781 16.765625 17.253906 17.660156 17.796875 18.371094 C 19.839844 21.066406 21.066406 22.308594 22.871094 23.515625 C 23.941406 24.230469 25.972656 25.230469 27.347656 25.710938 C 28.855469 26.242188 28.78125 26.203125 28.4375 26.300781 C 28.277344 26.34375 27.121094 26.433594 25.875 26.496094 C 23.285156 26.632812 22.59375 26.566406 21.589844 26.082031 C 20.195312 25.410156 18.527344 23.769531 16.277344 20.839844 C 15.636719 20.011719 15.054688 19.308594 14.980469 19.273438 C 14.792969 19.191406 14.566406 19.394531 14.566406 19.640625 C 14.566406 19.996094 13.871094 21.933594 13.511719 22.574219 C 12.300781 24.742188 10.167969 26.097656 7.140625 26.628906 C 6.136719 26.800781 6.121094 26.800781 6.316406 26.667969 Z M 9.746094 14.488281 C 9.261719 14.234375 8.625 13.554688 8.027344 12.652344 C 7.136719 11.308594 6.816406 10.355469 7.160156 10.070312 C 7.6875 9.632812 10.355469 11.003906 11.066406 12.078125 C 11.425781 12.625 11.429688 13.515625 11.074219 14.164062 C 10.863281 14.546875 10.792969 14.597656 10.441406 14.621094 C 10.222656 14.636719 9.910156 14.574219 9.746094 14.488281 Z M 18.246094 13.984375 C 18.441406 13.773438 19.179688 12.996094 19.894531 12.257812 C 21.214844 10.886719 21.375 10.644531 21.675781 9.546875 C 21.761719 9.230469 21.882812 8.972656 21.941406 8.972656 C 22.199219 8.972656 24.941406 11.121094 24.886719 11.28125 C 24.871094 11.339844 24.453125 11.527344 23.964844 11.707031 C 23.472656 11.882812 22.355469 12.386719 21.480469 12.824219 C 19.679688 13.726562 18.636719 14.199219 18.199219 14.300781 L 17.902344 14.371094 Z M 18.246094 13.984375 "/>
</g>
</svg>
