<!-- color: #474747 -->
<svg xmlns="http://www.w3.org/2000/svg" xmlns:xlink="http://www.w3.org/1999/xlink" width="32px" height="32px" viewBox="0 0 32 32" version="1.1">
<defs>
<clipPath id="clip1">
  <path d="M 8.25 6.75 L 23.9375 6.75 L 23.9375 23.75 L 8.25 23.75 Z M 8.25 6.75 "/>
</clipPath>
<clipPath id="clip2">
  <path d="M 31.042969 15.878906 C 31.042969 24.152344 24.339844 30.847656 16.074219 30.847656 C 7.8125 30.847656 1.105469 24.152344 1.105469 15.878906 C 1.105469 7.609375 7.8125 0.910156 16.074219 0.910156 C 24.339844 0.910156 31.042969 7.609375 31.042969 15.878906 Z M 31.042969 15.878906 "/>
</clipPath>
</defs>
<g id="surface1">
<path style="fill-rule:nonzero;fill:rgb(26.274511%,26.274511%,26.274511%);fill-opacity:1;stroke-width:7.11669;stroke-linecap:butt;stroke-linejoin:miter;stroke:rgb(8.235294%,2.745098%,2.745098%);stroke-opacity:1;stroke-miterlimit:4;" d="M 19.953125 5.703125 L 108.046875 5.703125 C 115.921875 5.703125 122.296875 12.078125 122.296875 19.953125 L 122.296875 108.046875 C 122.296875 115.921875 115.921875 122.296875 108.046875 122.296875 L 19.953125 122.296875 C 12.078125 122.296875 5.703125 115.921875 5.703125 108.046875 L 5.703125 19.953125 C 5.703125 12.078125 12.078125 5.703125 19.953125 5.703125 Z M 19.953125 5.703125 " transform="matrix(0.25,0,0,0.25,0,0)"/>
<g clip-path="url(#clip1)" clip-rule="nonzero">
<g clip-path="url(#clip2)" clip-rule="nonzero">
<path style=" stroke:none;fill-rule:nonzero;fill:rgb(92.54902%,75.686276%,18.431373%);fill-opacity:1;" d="M 16.074219 6.769531 C 16.074219 6.769531 21.933594 6.769531 21.933594 10.574219 L 21.933594 13.925781 C 21.933594 13.925781 23.886719 13.925781 23.886719 15.230469 L 23.886719 21.996094 C 23.886719 23.691406 21.933594 23.691406 21.933594 23.691406 L 10.21875 23.691406 C 10.21875 23.691406 8.265625 23.691406 8.265625 21.996094 L 8.265625 15.230469 C 8.265625 13.925781 10.21875 13.925781 10.21875 13.925781 L 10.21875 10.574219 C 10.21875 6.769531 16.074219 6.769531 16.074219 6.769531 M 16.074219 8.882812 C 16.074219 8.882812 12.820312 8.785156 12.820312 11.324219 L 12.820312 13.925781 L 19.332031 13.925781 L 19.332031 11.324219 C 19.332031 8.785156 16.074219 8.882812 16.074219 8.882812 M 16.074219 8.882812 "/>
</g>
</g>
</g>
</svg>
