
<svg xmlns="http://www.w3.org/2000/svg" xmlns:xlink="http://www.w3.org/1999/xlink" width="32px" height="32px" viewBox="0 0 32 32" version="1.1">
<g id="surface1">
<path style="fill-rule:nonzero;fill:rgb(6.27451%,27.843139%,49.019608%);fill-opacity:1;stroke-width:27.910587;stroke-linecap:butt;stroke-linejoin:miter;stroke:rgb(9.019608%,36.862746%,60.000002%);stroke-opacity:1;stroke-miterlimit:4;" d="M 83.1875 27.4375 L 428.8125 27.4375 C 459.625 27.4375 484.5625 52.375 484.5625 83.1875 L 484.5625 428.8125 C 484.5625 459.625 459.625 484.5625 428.8125 484.5625 L 83.1875 484.5625 C 52.375 484.5625 27.4375 459.625 27.4375 428.8125 L 27.4375 83.1875 C 27.4375 52.375 52.375 27.4375 83.1875 27.4375 Z M 83.1875 27.4375 " transform="matrix(0.0625,0,0,0.0625,0,0)"/>
<path style=" stroke:none;fill-rule:nonzero;fill:rgb(100%,100%,100%);fill-opacity:1;" d="M 13.570312 4.441406 C 11.597656 9.898438 9.683594 15.367188 7.714844 20.828125 C 7.839844 20.863281 7.964844 20.851562 8.089844 20.851562 C 8.808594 20.847656 9.53125 20.855469 10.25 20.851562 C 10.347656 20.851562 10.332031 20.710938 10.375 20.648438 C 11.238281 18.210938 12.121094 15.78125 12.988281 13.34375 C 13.042969 13.191406 13.097656 13.03125 13.167969 12.886719 C 13.617188 12.894531 14.058594 12.878906 14.511719 12.886719 C 13.566406 15.53125 12.628906 18.1875 11.667969 20.828125 C 11.769531 20.867188 11.871094 20.851562 11.972656 20.851562 C 12.726562 20.847656 13.476562 20.863281 14.230469 20.851562 C 15.082031 18.449219 15.964844 16.050781 16.820312 13.648438 C 17.003906 13.160156 17.011719 12.582031 16.71875 12.128906 C 16.464844 11.726562 15.984375 11.511719 15.527344 11.492188 C 14.898438 11.472656 14.277344 11.503906 13.648438 11.492188 C 14.511719 9.042969 15.402344 6.613281 16.261719 4.160156 C 13.574219 4.441406 14.097656 4.382812 13.574219 4.441406 M 19.179688 11.441406 C 19.160156 11.480469 19.148438 11.582031 19.128906 11.621094 C 17.175781 17.101562 15.207031 22.574219 13.242188 28.054688 C 15.722656 28.414062 13.933594 28.167969 15.730469 28.410156 C 16.585938 26.003906 17.453125 23.613281 18.316406 21.207031 C 19.257812 21.191406 20.191406 21.199219 21.132812 21.183594 C 21.730469 21.160156 22.332031 20.800781 22.527344 20.21875 C 23.324219 17.980469 24.113281 15.769531 24.886719 13.519531 C 25.011719 13.183594 25.089844 12.8125 24.988281 12.457031 C 24.851562 12.007812 24.441406 11.664062 23.996094 11.542969 C 23.613281 11.425781 23.230469 11.472656 22.832031 11.46875 C 21.625 11.464844 20.386719 11.457031 19.179688 11.441406 M 21.390625 12.855469 C 21.449219 12.855469 21.507812 12.871094 21.5625 12.863281 C 21.910156 12.867188 22.253906 12.855469 22.601562 12.863281 C 21.792969 15.175781 20.964844 17.496094 20.167969 19.8125 C 19.714844 19.847656 19.25 19.816406 18.796875 19.8125 C 19.621094 17.511719 20.433594 15.214844 21.257812 12.914062 C 21.277344 12.894531 21.3125 12.871094 21.335938 12.863281 C 21.355469 12.855469 21.371094 12.855469 21.390625 12.855469 "/>
</g>
</svg>
