
<svg xmlns="http://www.w3.org/2000/svg" xmlns:xlink="http://www.w3.org/1999/xlink" width="32px" height="32px" viewBox="0 0 32 32" version="1.1">
<g id="surface1">
<path style="fill-rule:nonzero;fill:rgb(20%,20%,20%);fill-opacity:1;stroke-width:18.73;stroke-linecap:butt;stroke-linejoin:miter;stroke:rgb(90.196079%,90.196079%,90.196079%);stroke-opacity:1;stroke-miterlimit:4;" d="M 79.154258 31.498886 L 433.845493 31.498886 C 460.209371 31.498886 481.500865 52.79038 481.500865 79.154258 L 481.500865 433.845493 C 481.500865 460.209371 460.209371 481.500865 433.845493 481.500865 L 79.154258 481.500865 C 52.79038 481.500865 31.498886 460.209371 31.498886 433.845493 L 31.498886 79.154258 C 31.498886 52.79038 52.79038 31.498886 79.154258 31.498886 Z M 79.154258 31.498886 " transform="matrix(0.0623782,0,0,0.0623782,0,0)"/>
<path style=" stroke:none;fill-rule:nonzero;fill:rgb(0%,80.000001%,100%);fill-opacity:1;" d="M 16.964844 23.582031 C 16.757812 23.320312 16.511719 22.472656 14.964844 16.699219 C 13.300781 10.484375 13.417969 10.871094 13.277344 11.140625 C 13.222656 11.253906 12.851562 12.535156 12.457031 13.988281 C 12.050781 15.488281 11.652344 16.707031 11.53125 16.800781 C 11.375 16.925781 10.523438 16.972656 8.371094 16.972656 C 5.78125 16.972656 5.394531 16.941406 5.191406 16.742188 C 4.976562 16.527344 4.980469 16.496094 5.265625 16.269531 C 5.535156 16.050781 5.867188 16.023438 8.261719 16.023438 L 10.953125 16.023438 L 11.105469 15.445312 C 13.011719 8.3125 13.105469 8.050781 13.601562 8.582031 C 13.699219 8.683594 14.246094 10.507812 14.820312 12.632812 C 17.394531 22.1875 17.136719 21.285156 17.277344 21.144531 C 17.316406 21.105469 17.652344 19.949219 18.019531 18.582031 C 18.382812 17.210938 18.757812 15.953125 18.847656 15.785156 C 19.007812 15.480469 19.011719 15.480469 22.640625 15.480469 C 26.09375 15.480469 26.28125 15.492188 26.414062 15.742188 C 26.519531 15.941406 26.503906 16.054688 26.339844 16.214844 C 26.160156 16.398438 25.644531 16.429688 22.816406 16.429688 C 20.996094 16.429688 19.503906 16.457031 19.503906 16.492188 C 19.503906 16.652344 17.726562 23.175781 17.609375 23.445312 C 17.464844 23.785156 17.171875 23.84375 16.964844 23.582031 Z M 16.964844 23.582031 "/>
</g>
</svg>
