
<svg xmlns="http://www.w3.org/2000/svg" xmlns:xlink="http://www.w3.org/1999/xlink" width="32px" height="32px" viewBox="0 0 32 32" version="1.1">
<g id="surface1">
<path style="fill-rule:evenodd;fill:rgb(100%,100%,100%);fill-opacity:1;stroke-width:15.456508;stroke-linecap:butt;stroke-linejoin:miter;stroke:rgb(72.941178%,33.333334%,82.745099%);stroke-opacity:1;stroke-miterlimit:4;" d="M 38.125 12.6875 L 217.875 12.6875 C 231.90625 12.6875 243.3125 24.09375 243.3125 38.125 L 243.3125 217.875 C 243.3125 231.90625 231.90625 243.3125 217.875 243.3125 L 38.125 243.3125 C 24.09375 243.3125 12.6875 231.90625 12.6875 217.875 L 12.6875 38.125 C 12.6875 24.09375 24.09375 12.6875 38.125 12.6875 Z M 38.125 12.6875 " transform="matrix(0.125,0,0,0.125,0,0)"/>
<path style=" stroke:none;fill-rule:nonzero;fill:rgb(72.941178%,33.333334%,82.745099%);fill-opacity:1;" d="M 13.882812 26.488281 C 10.5625 25.785156 7.871094 23.746094 6.394531 20.800781 C 5.152344 18.320312 4.914062 15.308594 5.757812 12.699219 C 7.691406 6.714844 14.492188 3.675781 20.253906 6.214844 C 22.488281 7.199219 24.519531 9.171875 25.574219 11.378906 C 26.738281 13.804688 26.933594 16.785156 26.089844 19.328125 C 24.855469 23.058594 21.71875 25.777344 17.785156 26.519531 C 16.773438 26.714844 14.882812 26.695312 13.882812 26.488281 Z M 18.875 24.421875 C 19.355469 24.296875 20.113281 24.019531 20.554688 23.804688 C 21.429688 23.378906 22.710938 22.476562 22.710938 22.285156 C 22.710938 22.207031 22.582031 22.167969 22.292969 22.167969 C 20.816406 22.160156 18.308594 21.566406 16.457031 20.78125 C 13.308594 19.445312 11.066406 17.527344 9.953125 15.222656 C 9.507812 14.304688 9.382812 13.707031 9.425781 12.738281 C 9.480469 11.6875 9.808594 11.011719 10.726562 10.089844 C 11.839844 8.976562 13.222656 8.433594 15.441406 8.246094 C 17.710938 8.050781 20.109375 8.480469 22.863281 9.566406 C 23.121094 9.667969 23.328125 9.714844 23.328125 9.675781 C 23.328125 9.542969 22.242188 8.558594 21.664062 8.167969 C 18.984375 6.359375 15.535156 6.117188 12.628906 7.542969 C 10.070312 8.792969 8.304688 11.074219 7.71875 13.886719 C 7.46875 15.089844 7.535156 16.945312 7.863281 18.074219 C 8.347656 19.714844 9.097656 20.972656 10.296875 22.160156 C 11.6875 23.53125 13.378906 24.332031 15.621094 24.667969 C 16.308594 24.773438 18.019531 24.644531 18.875 24.421875 Z M 24.609375 19.75 C 24.730469 19.628906 24.824219 19.453125 24.824219 19.355469 C 24.824219 19.191406 24.769531 19.175781 24.265625 19.175781 C 22.035156 19.175781 19.230469 17.960938 17.769531 16.371094 C 17.019531 15.546875 16.683594 14.828125 16.648438 13.933594 C 16.621094 13.277344 16.636719 13.191406 16.914062 12.65625 C 17.15625 12.183594 17.304688 12.019531 17.761719 11.710938 C 18.515625 11.207031 19.285156 10.976562 20.421875 10.917969 C 21.523438 10.863281 22.636719 11.035156 23.800781 11.433594 C 24.558594 11.691406 24.730469 11.710938 24.605469 11.511719 C 24.503906 11.347656 23.042969 10.65625 22.097656 10.328125 C 20.574219 9.796875 19.605469 9.628906 18.042969 9.632812 C 16.9375 9.636719 16.550781 9.667969 16.003906 9.816406 C 15.097656 10.066406 14.496094 10.382812 13.941406 10.90625 C 12.097656 12.652344 13.136719 15.566406 16.394531 17.78125 C 17.628906 18.621094 19.660156 19.441406 21.214844 19.730469 C 22.34375 19.941406 22.332031 19.941406 23.398438 19.957031 C 24.34375 19.964844 24.402344 19.957031 24.609375 19.75 Z M 25.332031 17.605469 C 25.808594 17.300781 25.632812 13.472656 25.117188 12.902344 C 25.042969 12.816406 24.675781 12.628906 24.308594 12.488281 C 21.980469 11.59375 19.75 11.851562 19.121094 13.09375 C 18.890625 13.554688 18.875 13.886719 19.058594 14.425781 C 19.632812 16.085938 22.324219 17.621094 24.738281 17.664062 C 25.003906 17.667969 25.269531 17.644531 25.332031 17.605469 Z M 25.332031 17.605469 "/>
</g>
</svg>
