
<svg xmlns="http://www.w3.org/2000/svg" xmlns:xlink="http://www.w3.org/1999/xlink" width="32px" height="32px" viewBox="0 0 32 32" version="1.1">
<g id="surface1">
<path style=" stroke:none;fill-rule:nonzero;fill:rgb(13.725491%,43.137255%,50.588238%);fill-opacity:1;" d="M 5.300781 0.84375 L 27.019531 0.84375 C 29.386719 0.84375 31.300781 2.761719 31.300781 5.125 L 31.300781 26.84375 C 31.300781 29.207031 29.386719 31.128906 27.019531 31.128906 L 5.300781 31.128906 C 2.933594 31.128906 1.019531 29.207031 1.019531 26.84375 L 1.019531 5.125 C 1.019531 2.761719 2.933594 0.84375 5.300781 0.84375 Z M 5.300781 0.84375 "/>
<path style=" stroke:none;fill-rule:nonzero;fill:rgb(21.568628%,67.058825%,78.431374%);fill-opacity:1;" d="M 6.039062 1.871094 L 26.28125 1.871094 C 28.484375 1.871094 30.273438 3.660156 30.273438 5.863281 L 30.273438 26.105469 C 30.273438 28.308594 28.484375 30.097656 26.28125 30.097656 L 6.039062 30.097656 C 3.832031 30.097656 2.046875 28.308594 2.046875 26.105469 L 2.046875 5.863281 C 2.046875 3.660156 3.832031 1.871094 6.039062 1.871094 Z M 6.039062 1.871094 "/>
<path style=" stroke:none;fill-rule:evenodd;fill:rgb(0%,0%,0%);fill-opacity:0.498039;" d="M 6.398438 6.414062 L 6.398438 26.03125 C 12.972656 24.269531 19.894531 24.214844 26.015625 26.03125 L 26.015625 6.414062 C 22.351562 7.398438 10.425781 7.496094 6.398438 6.414062 Z M 8.359375 8.378906 L 24.054688 8.378906 L 24.054688 20.144531 L 20.128906 12.300781 L 15.535156 21.496094 L 12.773438 17.207031 L 8.359375 24.070312 Z M 8.359375 8.378906 "/>
</g>
</svg>
