<!-- color: #d5d9e4 -->
<svg xmlns="http://www.w3.org/2000/svg" xmlns:xlink="http://www.w3.org/1999/xlink" width="32px" height="32px" viewBox="0 0 32 32" version="1.1">
<defs>
<clipPath id="clip1">
  <path d="M 7.625 8.375 L 10.25 8.375 L 10.25 23.8125 L 7.625 23.8125 Z M 7.625 8.375 "/>
</clipPath>
<clipPath id="clip2">
  <path d="M 30.769531 16.097656 C 30.769531 24.253906 24.15625 30.859375 16.007812 30.859375 C 7.863281 30.859375 1.25 24.253906 1.25 16.097656 C 1.25 7.945312 7.863281 1.339844 16.007812 1.339844 C 24.15625 1.339844 30.769531 7.945312 30.769531 16.097656 Z M 30.769531 16.097656 "/>
</clipPath>
<clipPath id="clip3">
  <path d="M 8.25 15.4375 L 16.0625 15.4375 L 16.0625 18.0625 L 8.25 18.0625 Z M 8.25 15.4375 "/>
</clipPath>
<clipPath id="clip4">
  <path d="M 30.769531 16.097656 C 30.769531 24.253906 24.15625 30.859375 16.007812 30.859375 C 7.863281 30.859375 1.25 24.253906 1.25 16.097656 C 1.25 7.945312 7.863281 1.339844 16.007812 1.339844 C 24.15625 1.339844 30.769531 7.945312 30.769531 16.097656 Z M 30.769531 16.097656 "/>
</clipPath>
<clipPath id="clip5">
  <path d="M 14.0625 8.375 L 24.375 8.375 L 24.375 23.8125 L 14.0625 23.8125 Z M 14.0625 8.375 "/>
</clipPath>
<clipPath id="clip6">
  <path d="M 30.769531 16.097656 C 30.769531 24.253906 24.15625 30.859375 16.007812 30.859375 C 7.863281 30.859375 1.25 24.253906 1.25 16.097656 C 1.25 7.945312 7.863281 1.339844 16.007812 1.339844 C 24.15625 1.339844 30.769531 7.945312 30.769531 16.097656 Z M 30.769531 16.097656 "/>
</clipPath>
<clipPath id="clip7">
  <path d="M 15.332031 11.5625 L 23.125 11.5625 L 23.125 20.625 L 15.332031 20.625 Z M 15.332031 11.5625 "/>
</clipPath>
<clipPath id="clip8">
  <path d="M 30.769531 16.097656 C 30.769531 24.253906 24.15625 30.859375 16.007812 30.859375 C 7.863281 30.859375 1.25 24.253906 1.25 16.097656 C 1.25 7.945312 7.863281 1.339844 16.007812 1.339844 C 24.15625 1.339844 30.769531 7.945312 30.769531 16.097656 Z M 30.769531 16.097656 "/>
</clipPath>
</defs>
<g id="surface1">
<path style="fill-rule:evenodd;fill:rgb(81.176472%,82.745099%,87.843138%);fill-opacity:1;stroke-width:7.620725;stroke-linecap:butt;stroke-linejoin:miter;stroke:rgb(18.431373%,25.882354%,46.666667%);stroke-opacity:1;stroke-miterlimit:4;" d="M 19.6875 7.140625 L 108.3125 7.140625 C 115.234375 7.140625 120.859375 12.765625 120.859375 19.6875 L 120.859375 108.3125 C 120.859375 115.234375 115.234375 120.859375 108.3125 120.859375 L 19.6875 120.859375 C 12.765625 120.859375 7.140625 115.234375 7.140625 108.3125 L 7.140625 19.6875 C 7.140625 12.765625 12.765625 7.140625 19.6875 7.140625 Z M 19.6875 7.140625 " transform="matrix(0.25,0,0,0.25,0,0)"/>
<g clip-path="url(#clip1)" clip-rule="nonzero">
<g clip-path="url(#clip2)" clip-rule="nonzero">
<path style=" stroke:none;fill-rule:nonzero;fill:rgb(18.431373%,25.882354%,46.666667%);fill-opacity:1;" d="M 8.425781 8.398438 L 9.476562 8.398438 C 9.894531 8.398438 10.234375 8.910156 10.234375 9.535156 L 10.234375 22.660156 C 10.234375 23.289062 9.894531 23.800781 9.476562 23.800781 L 8.425781 23.800781 C 8.003906 23.800781 7.667969 23.289062 7.667969 22.660156 L 7.667969 9.535156 C 7.667969 8.910156 8.003906 8.398438 8.425781 8.398438 M 8.425781 8.398438 "/>
</g>
</g>
<g clip-path="url(#clip3)" clip-rule="nonzero">
<g clip-path="url(#clip4)" clip-rule="nonzero">
<path style=" stroke:none;fill-rule:nonzero;fill:rgb(18.431373%,25.882354%,46.666667%);fill-opacity:1;" d="M 16.007812 17.269531 L 16.007812 16.214844 C 16.007812 15.796875 15.753906 15.457031 15.441406 15.457031 L 8.875 15.457031 C 8.5625 15.457031 8.304688 15.796875 8.304688 16.214844 L 8.304688 17.269531 C 8.304688 17.683594 8.5625 18.027344 8.875 18.027344 L 15.441406 18.027344 C 15.753906 18.027344 16.007812 17.6875 16.007812 17.269531 M 16.007812 17.269531 "/>
</g>
</g>
<g clip-path="url(#clip5)" clip-rule="nonzero">
<g clip-path="url(#clip6)" clip-rule="nonzero">
<path style=" stroke:none;fill-rule:nonzero;fill:rgb(18.431373%,25.882354%,46.666667%);fill-opacity:1;" d="M 15.128906 8.398438 L 23.308594 8.398438 C 23.882812 8.398438 24.351562 8.949219 24.351562 9.628906 L 24.351562 22.570312 C 24.351562 23.25 23.886719 23.792969 23.308594 23.792969 L 15.128906 23.792969 C 14.550781 23.792969 14.082031 23.246094 14.082031 22.570312 L 14.082031 9.628906 C 14.082031 8.949219 14.550781 8.398438 15.128906 8.398438 M 15.128906 8.398438 "/>
</g>
</g>
<g clip-path="url(#clip7)" clip-rule="nonzero">
<g clip-path="url(#clip8)" clip-rule="nonzero">
<path style=" stroke:none;fill-rule:nonzero;fill:rgb(97.647059%,97.647059%,97.647059%);fill-opacity:1;" d="M 15.367188 11.609375 L 15.367188 13.535156 L 21.140625 13.535156 L 21.140625 15.457031 L 15.367188 15.457031 L 15.367188 20.589844 L 23.066406 20.589844 L 23.066406 18.667969 L 17.292969 18.667969 L 17.292969 16.742188 L 23.066406 16.742188 L 23.066406 11.609375 M 15.367188 11.609375 "/>
</g>
</g>
</g>
</svg>
