
<svg xmlns="http://www.w3.org/2000/svg" xmlns:xlink="http://www.w3.org/1999/xlink" width="32px" height="32px" viewBox="0 0 32 32" version="1.1">
<g id="surface1">
<path style="fill-rule:nonzero;fill:rgb(100%,100%,100%);fill-opacity:1;stroke-width:28.191782;stroke-linecap:butt;stroke-linejoin:miter;stroke:rgb(6.27451%,63.137257%,61.960787%);stroke-opacity:1;stroke-miterlimit:4;" d="M 81.5 25.0625 L 430.5 25.0625 C 461.6875 25.0625 486.9375 50.3125 486.9375 81.5 L 486.9375 430.5 C 486.9375 461.6875 461.6875 486.9375 430.5 486.9375 L 81.5 486.9375 C 50.3125 486.9375 25.0625 461.6875 25.0625 430.5 L 25.0625 81.5 C 25.0625 50.3125 50.3125 25.0625 81.5 25.0625 Z M 81.5 25.0625 " transform="matrix(0.0625,0,0,0.0625,0,0)"/>
<path style=" stroke:none;fill-rule:nonzero;fill:rgb(30.19608%,30.19608%,30.19608%);fill-opacity:1;" d="M 27.808594 9.035156 C 27.808594 12.117188 25.308594 14.617188 22.226562 14.617188 C 19.144531 14.617188 16.644531 12.117188 16.644531 9.035156 C 16.644531 5.949219 19.144531 3.449219 22.226562 3.449219 C 25.308594 3.449219 27.808594 5.949219 27.808594 9.035156 Z M 27.808594 9.035156 "/>
<path style=" stroke:none;fill-rule:nonzero;fill:rgb(80.000001%,80.000001%,80.000001%);fill-opacity:1;" d="M 27.832031 22.394531 C 27.832031 25.476562 25.332031 27.976562 22.246094 27.976562 C 19.164062 27.976562 16.664062 25.476562 16.664062 22.394531 C 16.664062 19.308594 19.164062 16.808594 22.246094 16.808594 C 25.332031 16.808594 27.832031 19.308594 27.832031 22.394531 Z M 27.832031 22.394531 "/>
<path style=" stroke:none;fill-rule:nonzero;fill:rgb(80.000001%,80.000001%,80.000001%);fill-opacity:1;" d="M 14.910156 9.214844 C 14.910156 12.296875 12.410156 14.796875 9.324219 14.796875 C 6.242188 14.796875 3.746094 12.296875 3.746094 9.214844 C 3.746094 6.128906 6.242188 3.628906 9.324219 3.628906 C 12.410156 3.628906 14.910156 6.128906 14.910156 9.214844 Z M 14.910156 9.214844 "/>
<path style=" stroke:none;fill-rule:nonzero;fill:rgb(20%,20%,20%);fill-opacity:1;" d="M 15.320312 22.660156 C 15.320312 25.746094 12.820312 28.246094 9.738281 28.246094 C 6.652344 28.246094 4.152344 25.746094 4.152344 22.660156 C 4.152344 19.578125 6.652344 17.078125 9.738281 17.078125 C 12.820312 17.078125 15.320312 19.578125 15.320312 22.660156 Z M 15.320312 22.660156 "/>
<path style="fill-rule:nonzero;fill:rgb(100%,100%,0%);fill-opacity:1;stroke-width:0.8;stroke-linecap:butt;stroke-linejoin:miter;stroke:rgb(63.137257%,34.901962%,18.431373%);stroke-opacity:1;stroke-miterlimit:4;" d="M 389.655313 196.019698 L 352.40076 175.742903 L 314.632064 194.950589 L 322.322766 153.271278 L 292.381871 123.287115 L 334.444235 117.766283 L 353.679764 79.958204 L 371.967298 118.258149 L 413.781625 124.932705 L 383.049706 154.078448 Z M 389.655313 196.019698 " transform="matrix(0.0541266,0.03125,-0.03125,0.0541266,7.448961,-9.821765)"/>
<path style="fill-rule:nonzero;fill:rgb(100%,100%,0%);fill-opacity:1;stroke-width:0.8;stroke-linecap:butt;stroke-linejoin:miter;stroke:rgb(63.137257%,34.901962%,18.431373%);stroke-opacity:1;stroke-miterlimit:4;" d="M 389.634998 196.003341 L 352.380445 175.726547 L 314.61175 194.934232 L 322.356578 153.223671 L 292.361557 123.270758 L 334.42392 117.749926 L 353.690699 79.995974 L 371.946983 118.241792 L 413.846687 124.939225 L 383.060641 154.116218 Z M 389.634998 196.003341 " transform="matrix(0.0541266,0.03125,-0.03125,0.0541266,-5.015295,3.793037)"/>
<path style="fill-rule:nonzero;fill:rgb(100%,100%,0%);fill-opacity:1;stroke-width:0.455791;stroke-linecap:butt;stroke-linejoin:miter;stroke:rgb(63.137257%,34.901962%,18.431373%);stroke-opacity:1;stroke-miterlimit:4;" d="M 173.500815 208.924431 L 149.207161 189.473999 L 128.402886 211.334337 L 120.205692 181.314841 L 90.535726 186.758681 L 101.501101 157.667973 L 74.325221 144.627483 L 100.385742 127.540202 L 86.004448 101.040063 L 117.059136 102.502442 L 121.064579 72.582101 L 145.358233 92.032533 L 166.102137 70.156018 L 174.359702 100.191691 L 204.029668 94.747851 L 192.987746 123.882752 L 220.179803 136.862873 L 194.179652 153.96633 L 208.544769 180.526839 L 177.429712 179.048284 Z M 173.500815 208.924431 " transform="matrix(0.0603703,-0.0161762,0.0161762,0.0603703,-1.96328,2.682028)"/>
<path style="fill-rule:nonzero;fill:rgb(100%,100%,0%);fill-opacity:1;stroke-width:0.455791;stroke-linecap:butt;stroke-linejoin:miter;stroke:rgb(63.137257%,34.901962%,18.431373%);stroke-opacity:1;stroke-miterlimit:4;" d="M 173.498458 208.904437 L 149.204804 189.454005 L 128.400529 211.314344 L 120.203335 181.294847 L 90.533369 186.738687 L 101.559115 157.664156 L 74.322864 144.607489 L 100.367208 127.580579 L 86.002091 101.020069 L 117.056779 102.482449 L 121.062222 72.562108 L 145.339699 92.07291 L 166.143974 70.212571 L 174.341169 100.232068 L 204.011135 94.788228 L 192.985389 123.862759 L 220.22164 136.919426 L 194.177295 153.946336 L 208.542412 180.506846 L 177.427355 179.02829 Z M 173.498458 208.904437 " transform="matrix(0.0603703,-0.0161762,0.0161762,0.0603703,11.076248,16.105072)"/>
</g>
</svg>
