
<svg xmlns="http://www.w3.org/2000/svg" xmlns:xlink="http://www.w3.org/1999/xlink" width="32px" height="32px" viewBox="0 0 32 32" version="1.1">
<g id="surface1">
<path style="fill-rule:evenodd;fill:rgb(16.078432%,50.196081%,72.549021%);fill-opacity:1;stroke-width:28.26631;stroke-linecap:butt;stroke-linejoin:miter;stroke:rgb(100%,100%,100%);stroke-opacity:1;stroke-miterlimit:4;" d="M 91.625 45.125 L 420.375 45.125 C 446.0625 45.125 466.875 65.9375 466.875 91.625 L 466.875 420.375 C 466.875 446.0625 446.0625 466.875 420.375 466.875 L 91.625 466.875 C 65.9375 466.875 45.125 446.0625 45.125 420.375 L 45.125 91.625 C 45.125 65.9375 65.9375 45.125 91.625 45.125 Z M 91.625 45.125 " transform="matrix(0.0625,0,0,0.0625,0,0)"/>
<path style=" stroke:none;fill-rule:nonzero;fill:rgb(13.333334%,21.176471%,33.725491%);fill-opacity:1;" d="M 8.402344 12.65625 L 8.402344 24.59375 L 10.457031 24.59375 L 10.457031 12.65625 Z M 8.402344 9 L 8.402344 11.054688 L 10.457031 11.054688 L 10.457031 9 Z M 8.402344 9 "/>
<path style=" stroke:none;fill-rule:nonzero;fill:rgb(13.333334%,21.176471%,33.725491%);fill-opacity:1;" d="M 21.457031 11.640625 C 21.5 14.074219 20.128906 14.5625 16.996094 14.5625 L 14.71875 14.5625 L 14.71875 9.238281 L 18.011719 9.238281 C 20.09375 9.238281 21.425781 9.855469 21.457031 11.640625 Z M 21.566406 19.589844 C 21.566406 21.894531 20.835938 22.785156 18.507812 22.785156 L 14.71875 22.785156 L 14.71875 16.296875 L 17.714844 16.296875 C 20.042969 16.296875 21.566406 16.769531 21.566406 19.589844 Z M 21.207031 15.160156 C 22.59375 14.488281 23.4375 12.953125 23.4375 11.542969 C 23.4375 10.277344 23.015625 9.238281 22.222656 8.519531 C 21.378906 7.777344 20.09375 7.40625 18.707031 7.40625 L 12.660156 7.40625 L 12.660156 24.59375 L 18.234375 24.59375 C 20.390625 24.59375 21.308594 24.355469 22.472656 23.3125 C 23.5625 22.324219 23.597656 20.632812 23.597656 19.394531 C 23.597656 17.140625 23.164062 16.058594 21.207031 15.160156 Z M 21.207031 15.160156 "/>
<path style=" stroke:none;fill-rule:nonzero;fill:rgb(80.000001%,80.000001%,80.000001%);fill-opacity:1;" d="M 26.246094 21.238281 C 26.246094 20.199219 25.382812 19.355469 24.316406 19.355469 C 23.253906 19.355469 22.390625 20.199219 22.390625 21.238281 C 22.390625 22.277344 23.253906 23.121094 24.316406 23.121094 C 25.382812 23.121094 26.246094 22.277344 26.246094 21.238281 Z M 26.246094 21.238281 "/>
<path style=" stroke:none;fill-rule:nonzero;fill:rgb(80.000001%,80.000001%,80.000001%);fill-opacity:1;" d="M 23.902344 24.191406 C 23.851562 24.167969 23.796875 24.109375 23.773438 24.050781 C 23.761719 24.019531 23.746094 23.902344 23.738281 23.714844 C 23.726562 23.558594 23.714844 23.417969 23.710938 23.402344 C 23.703125 23.378906 23.667969 23.363281 23.574219 23.328125 C 23.507812 23.304688 23.40625 23.261719 23.347656 23.234375 C 23.292969 23.207031 23.230469 23.183594 23.214844 23.183594 C 23.199219 23.183594 23.105469 23.257812 22.972656 23.378906 C 22.855469 23.488281 22.738281 23.589844 22.714844 23.597656 C 22.664062 23.625 22.558594 23.628906 22.5 23.609375 C 22.457031 23.589844 21.980469 23.125 21.953125 23.066406 C 21.921875 23.011719 21.925781 22.90625 21.957031 22.839844 C 21.972656 22.8125 22.074219 22.691406 22.183594 22.578125 C 22.296875 22.453125 22.375 22.355469 22.375 22.339844 C 22.375 22.324219 22.351562 22.265625 22.324219 22.207031 C 22.292969 22.152344 22.253906 22.050781 22.230469 21.980469 C 22.203125 21.914062 22.175781 21.855469 22.164062 21.847656 C 22.152344 21.839844 22.011719 21.828125 21.855469 21.820312 C 21.671875 21.808594 21.546875 21.796875 21.511719 21.785156 C 21.445312 21.761719 21.363281 21.675781 21.355469 21.617188 C 21.347656 21.59375 21.347656 21.410156 21.351562 21.214844 L 21.355469 20.863281 L 21.394531 20.808594 C 21.46875 20.71875 21.503906 20.710938 21.847656 20.6875 C 22.042969 20.675781 22.160156 20.664062 22.171875 20.652344 C 22.179688 20.644531 22.207031 20.578125 22.238281 20.503906 C 22.261719 20.433594 22.304688 20.332031 22.332031 20.28125 C 22.355469 20.230469 22.375 20.179688 22.375 20.167969 C 22.375 20.152344 22.292969 20.054688 22.195312 19.945312 C 22.09375 19.832031 21.996094 19.726562 21.980469 19.703125 C 21.933594 19.640625 21.917969 19.5625 21.9375 19.488281 C 21.949219 19.429688 21.976562 19.398438 22.195312 19.179688 C 22.328125 19.042969 22.457031 18.921875 22.484375 18.910156 C 22.550781 18.875 22.648438 18.875 22.710938 18.90625 C 22.738281 18.921875 22.855469 19.019531 22.96875 19.125 C 23.085938 19.230469 23.1875 19.320312 23.195312 19.324219 C 23.207031 19.332031 23.269531 19.308594 23.34375 19.273438 C 23.417969 19.238281 23.523438 19.195312 23.582031 19.175781 C 23.664062 19.148438 23.695312 19.132812 23.707031 19.109375 C 23.714844 19.089844 23.730469 18.949219 23.738281 18.789062 C 23.753906 18.484375 23.765625 18.4375 23.828125 18.371094 C 23.894531 18.300781 23.9375 18.292969 24.324219 18.296875 L 24.679688 18.300781 L 24.738281 18.339844 C 24.832031 18.402344 24.84375 18.441406 24.863281 18.777344 C 24.878906 18.941406 24.886719 19.089844 24.894531 19.105469 C 24.894531 19.128906 24.925781 19.144531 25.019531 19.175781 C 25.089844 19.199219 25.199219 19.246094 25.261719 19.277344 C 25.324219 19.308594 25.386719 19.335938 25.390625 19.335938 C 25.394531 19.335938 25.5 19.246094 25.621094 19.136719 C 25.742188 19.027344 25.863281 18.921875 25.890625 18.910156 C 25.953125 18.875 26.050781 18.875 26.121094 18.910156 C 26.152344 18.925781 26.269531 19.027344 26.410156 19.171875 C 26.65625 19.417969 26.675781 19.449219 26.675781 19.558594 C 26.675781 19.640625 26.640625 19.691406 26.429688 19.921875 C 26.316406 20.046875 26.222656 20.15625 26.222656 20.160156 C 26.222656 20.167969 26.25 20.238281 26.285156 20.3125 C 26.324219 20.386719 26.367188 20.496094 26.382812 20.550781 C 26.402344 20.617188 26.421875 20.652344 26.441406 20.660156 C 26.457031 20.667969 26.605469 20.679688 26.769531 20.691406 C 27.097656 20.710938 27.152344 20.722656 27.207031 20.800781 C 27.257812 20.875 27.261719 20.929688 27.261719 21.289062 L 27.253906 21.628906 L 27.214844 21.6875 C 27.144531 21.789062 27.125 21.792969 26.761719 21.820312 C 26.582031 21.832031 26.433594 21.84375 26.429688 21.847656 C 26.425781 21.851562 26.402344 21.910156 26.378906 21.972656 C 26.355469 22.039062 26.308594 22.144531 26.277344 22.210938 C 26.246094 22.277344 26.222656 22.339844 26.222656 22.347656 C 26.226562 22.355469 26.316406 22.460938 26.421875 22.574219 C 26.527344 22.691406 26.628906 22.8125 26.644531 22.847656 C 26.679688 22.917969 26.683594 22.988281 26.652344 23.058594 C 26.628906 23.121094 26.195312 23.558594 26.125 23.597656 C 26.066406 23.628906 25.957031 23.628906 25.894531 23.605469 C 25.871094 23.59375 25.753906 23.496094 25.632812 23.382812 C 25.511719 23.273438 25.402344 23.183594 25.390625 23.183594 C 25.378906 23.183594 25.3125 23.207031 25.238281 23.242188 C 25.167969 23.277344 25.0625 23.316406 25.003906 23.339844 C 24.925781 23.363281 24.894531 23.378906 24.890625 23.402344 C 24.886719 23.417969 24.878906 23.5625 24.863281 23.726562 C 24.839844 24.085938 24.828125 24.125 24.703125 24.1875 C 24.667969 24.207031 24.605469 24.207031 24.300781 24.207031 C 24.035156 24.207031 23.933594 24.203125 23.902344 24.191406 Z M 24.433594 22.59375 C 24.753906 22.558594 25.023438 22.433594 25.253906 22.199219 C 25.429688 22.027344 25.542969 21.832031 25.609375 21.582031 C 25.652344 21.425781 25.652344 21.082031 25.609375 20.925781 C 25.480469 20.449219 25.136719 20.097656 24.664062 19.957031 C 24.554688 19.921875 24.527344 19.917969 24.3125 19.917969 C 24.105469 19.917969 24.066406 19.921875 23.964844 19.949219 C 23.46875 20.082031 23.089844 20.484375 22.984375 20.980469 C 22.890625 21.425781 23.027344 21.878906 23.351562 22.207031 C 23.519531 22.375 23.742188 22.5 23.980469 22.5625 C 24.050781 22.582031 24.144531 22.59375 24.285156 22.605469 C 24.296875 22.605469 24.363281 22.601562 24.433594 22.59375 Z M 24.101562 22.035156 C 23.761719 21.941406 23.519531 21.652344 23.5 21.304688 C 23.488281 21.0625 23.566406 20.855469 23.738281 20.683594 C 24.050781 20.371094 24.550781 20.371094 24.863281 20.675781 C 25.117188 20.933594 25.179688 21.292969 25.019531 21.613281 C 24.886719 21.882812 24.636719 22.042969 24.332031 22.054688 C 24.226562 22.058594 24.175781 22.054688 24.101562 22.035156 Z M 24.480469 21.699219 C 24.574219 21.660156 24.6875 21.558594 24.734375 21.460938 C 24.769531 21.394531 24.78125 21.304688 24.785156 21.230469 C 24.785156 21.175781 24.769531 21.113281 24.726562 21.035156 C 24.636719 20.871094 24.507812 20.792969 24.324219 20.78125 C 24.175781 20.773438 24.089844 20.804688 23.980469 20.902344 C 23.847656 21.027344 23.792969 21.199219 23.835938 21.367188 C 23.875 21.511719 23.953125 21.613281 24.089844 21.683594 C 24.214844 21.746094 24.339844 21.75 24.480469 21.699219 Z M 24.480469 21.699219 "/>
<path style=" stroke:none;fill-rule:nonzero;fill:rgb(80.000001%,80.000001%,80.000001%);fill-opacity:1;" d="M 21.285156 24.160156 C 21.285156 23.488281 20.730469 22.949219 20.042969 22.949219 C 19.355469 22.949219 18.800781 23.488281 18.800781 24.160156 C 18.800781 24.832031 19.355469 25.371094 20.042969 25.371094 C 20.730469 25.371094 21.285156 24.832031 21.285156 24.160156 Z M 21.285156 24.160156 "/>
<path style=" stroke:none;fill-rule:nonzero;fill:rgb(80.000001%,80.000001%,80.000001%);fill-opacity:1;" d="M 19.777344 26.0625 C 19.742188 26.046875 19.707031 26.011719 19.691406 25.972656 C 19.683594 25.953125 19.675781 25.878906 19.667969 25.753906 C 19.660156 25.652344 19.652344 25.5625 19.652344 25.554688 C 19.644531 25.539062 19.621094 25.527344 19.566406 25.507812 C 19.519531 25.492188 19.453125 25.464844 19.417969 25.445312 C 19.378906 25.425781 19.339844 25.410156 19.332031 25.410156 C 19.320312 25.410156 19.261719 25.460938 19.175781 25.539062 C 19.097656 25.609375 19.023438 25.675781 19.007812 25.683594 C 18.976562 25.699219 18.90625 25.699219 18.871094 25.6875 C 18.839844 25.675781 18.535156 25.375 18.519531 25.339844 C 18.496094 25.300781 18.5 25.234375 18.519531 25.191406 C 18.53125 25.175781 18.597656 25.097656 18.664062 25.023438 C 18.738281 24.941406 18.792969 24.878906 18.792969 24.871094 C 18.792969 24.859375 18.777344 24.824219 18.757812 24.785156 C 18.738281 24.75 18.710938 24.683594 18.695312 24.636719 C 18.679688 24.597656 18.660156 24.558594 18.652344 24.550781 C 18.644531 24.550781 18.558594 24.542969 18.457031 24.535156 C 18.335938 24.527344 18.257812 24.519531 18.234375 24.511719 C 18.191406 24.496094 18.140625 24.441406 18.132812 24.402344 C 18.128906 24.386719 18.128906 24.273438 18.128906 24.144531 L 18.132812 23.917969 L 18.160156 23.882812 C 18.207031 23.824219 18.226562 23.820312 18.449219 23.804688 C 18.574219 23.796875 18.652344 23.789062 18.660156 23.785156 C 18.664062 23.777344 18.683594 23.734375 18.699219 23.6875 C 18.71875 23.640625 18.746094 23.574219 18.761719 23.542969 C 18.777344 23.511719 18.792969 23.480469 18.792969 23.46875 C 18.792969 23.460938 18.738281 23.394531 18.675781 23.324219 C 18.609375 23.253906 18.546875 23.183594 18.535156 23.171875 C 18.503906 23.128906 18.496094 23.082031 18.507812 23.03125 C 18.515625 22.996094 18.535156 22.972656 18.675781 22.832031 C 18.757812 22.746094 18.84375 22.667969 18.863281 22.660156 C 18.902344 22.636719 18.964844 22.636719 19.007812 22.660156 C 19.023438 22.667969 19.097656 22.730469 19.171875 22.796875 C 19.246094 22.863281 19.3125 22.925781 19.320312 22.925781 C 19.324219 22.933594 19.367188 22.917969 19.414062 22.894531 C 19.460938 22.871094 19.53125 22.84375 19.566406 22.832031 C 19.621094 22.8125 19.640625 22.800781 19.648438 22.785156 C 19.652344 22.777344 19.660156 22.683594 19.667969 22.582031 C 19.679688 22.386719 19.683594 22.355469 19.726562 22.3125 C 19.769531 22.265625 19.796875 22.261719 20.046875 22.265625 L 20.277344 22.269531 L 20.3125 22.292969 C 20.371094 22.332031 20.378906 22.355469 20.394531 22.574219 C 20.402344 22.679688 20.410156 22.773438 20.410156 22.785156 C 20.417969 22.800781 20.433594 22.808594 20.496094 22.832031 C 20.539062 22.847656 20.609375 22.875 20.652344 22.894531 C 20.691406 22.917969 20.730469 22.933594 20.734375 22.933594 C 20.738281 22.933594 20.804688 22.875 20.882812 22.804688 C 20.960938 22.734375 21.035156 22.667969 21.054688 22.660156 C 21.097656 22.636719 21.160156 22.636719 21.203125 22.660156 C 21.226562 22.667969 21.300781 22.738281 21.390625 22.828125 C 21.550781 22.988281 21.558594 23.007812 21.558594 23.078125 C 21.558594 23.128906 21.539062 23.164062 21.402344 23.3125 C 21.328125 23.394531 21.269531 23.464844 21.269531 23.464844 C 21.269531 23.472656 21.285156 23.515625 21.3125 23.5625 C 21.335938 23.613281 21.363281 23.683594 21.371094 23.714844 C 21.386719 23.761719 21.398438 23.78125 21.410156 23.785156 C 21.417969 23.792969 21.515625 23.800781 21.621094 23.808594 C 21.832031 23.820312 21.867188 23.828125 21.902344 23.878906 C 21.9375 23.925781 21.941406 23.960938 21.9375 24.191406 L 21.933594 24.414062 L 21.910156 24.449219 C 21.863281 24.515625 21.851562 24.519531 21.617188 24.535156 C 21.5 24.542969 21.40625 24.550781 21.402344 24.550781 C 21.402344 24.554688 21.386719 24.589844 21.371094 24.632812 C 21.355469 24.675781 21.324219 24.746094 21.304688 24.785156 C 21.285156 24.828125 21.269531 24.867188 21.269531 24.875 C 21.269531 24.878906 21.328125 24.949219 21.398438 25.023438 C 21.464844 25.097656 21.53125 25.175781 21.542969 25.195312 C 21.566406 25.242188 21.566406 25.289062 21.546875 25.332031 C 21.53125 25.371094 21.253906 25.65625 21.207031 25.679688 C 21.167969 25.699219 21.097656 25.699219 21.058594 25.683594 C 21.042969 25.675781 20.96875 25.613281 20.890625 25.542969 C 20.8125 25.472656 20.742188 25.410156 20.734375 25.410156 C 20.726562 25.410156 20.683594 25.429688 20.636719 25.449219 C 20.589844 25.472656 20.519531 25.5 20.484375 25.511719 C 20.433594 25.53125 20.414062 25.539062 20.410156 25.554688 C 20.410156 25.5625 20.402344 25.660156 20.394531 25.761719 C 20.378906 25.996094 20.371094 26.019531 20.289062 26.058594 C 20.265625 26.074219 20.230469 26.074219 20.03125 26.074219 C 19.859375 26.074219 19.792969 26.070312 19.777344 26.0625 Z M 20.113281 25.035156 C 20.324219 25.011719 20.496094 24.929688 20.644531 24.78125 C 20.757812 24.667969 20.832031 24.542969 20.875 24.378906 C 20.902344 24.28125 20.902344 24.058594 20.875 23.957031 C 20.792969 23.652344 20.570312 23.425781 20.265625 23.332031 C 20.195312 23.3125 20.175781 23.308594 20.039062 23.308594 C 19.90625 23.308594 19.878906 23.308594 19.816406 23.328125 C 19.496094 23.417969 19.25 23.675781 19.183594 23.992188 C 19.121094 24.277344 19.210938 24.574219 19.417969 24.785156 C 19.527344 24.894531 19.671875 24.972656 19.824219 25.011719 C 19.871094 25.027344 19.933594 25.035156 20.019531 25.042969 C 20.027344 25.042969 20.070312 25.039062 20.113281 25.035156 Z M 19.902344 24.671875 C 19.683594 24.613281 19.527344 24.425781 19.515625 24.203125 C 19.503906 24.046875 19.558594 23.914062 19.667969 23.800781 C 19.871094 23.601562 20.191406 23.597656 20.394531 23.800781 C 20.558594 23.964844 20.597656 24.195312 20.496094 24.402344 C 20.410156 24.574219 20.246094 24.679688 20.050781 24.6875 C 19.984375 24.691406 19.949219 24.683594 19.902344 24.671875 Z M 20.148438 24.457031 C 20.207031 24.433594 20.28125 24.367188 20.308594 24.304688 C 20.332031 24.261719 20.339844 24.203125 20.339844 24.15625 C 20.339844 24.121094 20.332031 24.082031 20.304688 24.027344 C 20.25 23.925781 20.164062 23.871094 20.046875 23.863281 C 19.949219 23.863281 19.894531 23.878906 19.824219 23.941406 C 19.738281 24.023438 19.703125 24.132812 19.730469 24.242188 C 19.753906 24.339844 19.808594 24.402344 19.894531 24.445312 C 19.972656 24.488281 20.058594 24.488281 20.148438 24.457031 Z M 20.148438 24.457031 "/>
<path style=" stroke:none;fill-rule:nonzero;fill:rgb(50.196081%,50.196081%,50.196081%);fill-opacity:1;" d="M 25.480469 21.265625 C 25.480469 21.917969 24.949219 22.449219 24.292969 22.449219 C 23.636719 22.449219 23.105469 21.917969 23.105469 21.265625 C 23.105469 20.609375 23.636719 20.078125 24.292969 20.078125 C 24.949219 20.078125 25.480469 20.609375 25.480469 21.265625 Z M 25.480469 21.265625 "/>
<path style=" stroke:none;fill-rule:nonzero;fill:rgb(50.196081%,50.196081%,50.196081%);fill-opacity:1;" d="M 20.835938 24.167969 C 20.835938 24.621094 20.472656 24.984375 20.019531 24.984375 C 19.574219 24.984375 19.207031 24.621094 19.207031 24.167969 C 19.207031 23.722656 19.574219 23.355469 20.019531 23.355469 C 20.472656 23.355469 20.835938 23.722656 20.835938 24.167969 Z M 20.835938 24.167969 "/>
</g>
</svg>
