
<svg xmlns="http://www.w3.org/2000/svg" xmlns:xlink="http://www.w3.org/1999/xlink" width="32px" height="32px" viewBox="0 0 32 32" version="1.1">
<g id="surface1">
<path style="fill-rule:evenodd;fill:rgb(16.078432%,50.196081%,72.549021%);fill-opacity:1;stroke-width:28.26631;stroke-linecap:butt;stroke-linejoin:miter;stroke:rgb(100%,100%,100%);stroke-opacity:1;stroke-miterlimit:4;" d="M 91.625 45.125 L 420.375 45.125 C 446.0625 45.125 466.875 65.9375 466.875 91.625 L 466.875 420.375 C 466.875 446.0625 446.0625 466.875 420.375 466.875 L 91.625 466.875 C 65.9375 466.875 45.125 446.0625 45.125 420.375 L 45.125 91.625 C 45.125 65.9375 65.9375 45.125 91.625 45.125 Z M 91.625 45.125 " transform="matrix(0.0625,0,0,0.0625,0,0)"/>
<path style=" stroke:none;fill-rule:nonzero;fill:rgb(13.333334%,21.176471%,33.725491%);fill-opacity:1;" d="M 8.402344 12.65625 L 8.402344 24.59375 L 10.457031 24.59375 L 10.457031 12.65625 Z M 8.402344 9 L 8.402344 11.054688 L 10.457031 11.054688 L 10.457031 9 Z M 8.402344 9 "/>
<path style=" stroke:none;fill-rule:nonzero;fill:rgb(13.333334%,21.176471%,33.725491%);fill-opacity:1;" d="M 21.457031 11.640625 C 21.5 14.074219 20.128906 14.5625 16.996094 14.5625 L 14.71875 14.5625 L 14.71875 9.238281 L 18.011719 9.238281 C 20.09375 9.238281 21.425781 9.855469 21.457031 11.640625 Z M 21.566406 19.589844 C 21.566406 21.894531 20.835938 22.785156 18.507812 22.785156 L 14.71875 22.785156 L 14.71875 16.296875 L 17.714844 16.296875 C 20.042969 16.296875 21.566406 16.769531 21.566406 19.589844 Z M 21.207031 15.160156 C 22.59375 14.488281 23.4375 12.953125 23.4375 11.542969 C 23.4375 10.277344 23.015625 9.238281 22.222656 8.519531 C 21.378906 7.777344 20.09375 7.40625 18.707031 7.40625 L 12.660156 7.40625 L 12.660156 24.59375 L 18.234375 24.59375 C 20.390625 24.59375 21.308594 24.355469 22.472656 23.3125 C 23.5625 22.324219 23.597656 20.632812 23.597656 19.394531 C 23.597656 17.140625 23.164062 16.058594 21.207031 15.160156 Z M 21.207031 15.160156 "/>
</g>
</svg>
