
<svg xmlns="http://www.w3.org/2000/svg" xmlns:xlink="http://www.w3.org/1999/xlink" width="32px" height="32px" viewBox="0 0 32 32" version="1.1">
<g id="surface1">
<path style="fill-rule:evenodd;fill:rgb(50.196081%,50.196081%,50.196081%);fill-opacity:1;stroke-width:28.5;stroke-linecap:butt;stroke-linejoin:miter;stroke:rgb(56.862748%,58.039218%,62.352943%);stroke-opacity:1;stroke-miterlimit:4;" d="M 90.3125 45.5625 L 421.6875 45.5625 C 447.625 45.5625 468.625 66.5625 468.625 92.4375 L 468.625 423.875 C 468.625 449.8125 447.625 470.8125 421.6875 470.8125 L 90.3125 470.8125 C 64.375 470.8125 43.375 449.8125 43.375 423.875 L 43.375 92.4375 C 43.375 66.5625 64.375 45.5625 90.3125 45.5625 Z M 90.3125 45.5625 " transform="matrix(0.0625,0,0,0.0625,0,0)"/>
<path style=" stroke:none;fill-rule:nonzero;fill:rgb(16.862746%,23.921569%,30.980393%);fill-opacity:1;" d="M 8.472656 19.363281 L 8.472656 13.191406 L 10.472656 13.230469 L 10.472656 25.5 L 8.472656 25.535156 Z M 12.8125 17.164062 L 12.8125 8.855469 L 15.699219 8.855469 C 19.53125 8.855469 20.277344 8.949219 21.535156 9.566406 C 22.589844 10.085938 23.300781 10.957031 23.558594 12.050781 C 23.710938 12.707031 23.691406 13.78125 23.519531 14.300781 C 23.238281 15.136719 22.503906 15.914062 21.589844 16.347656 C 21.097656 16.582031 21.121094 16.699219 21.695312 16.90625 C 23 17.371094 23.933594 18.441406 24.242188 19.8125 C 24.402344 20.527344 24.347656 21.855469 24.136719 22.484375 C 23.675781 23.855469 22.691406 24.730469 21.046875 25.238281 L 20.441406 25.425781 L 16.628906 25.449219 L 12.8125 25.472656 Z M 20.128906 23.820312 C 21.105469 23.527344 21.804688 22.933594 22.105469 22.136719 C 22.253906 21.753906 22.269531 21.597656 22.265625 20.789062 C 22.261719 20.019531 22.238281 19.808594 22.113281 19.472656 C 21.796875 18.613281 21.316406 18.097656 20.550781 17.792969 C 20.175781 17.640625 20.117188 17.636719 17.527344 17.636719 L 14.878906 17.636719 L 14.863281 20.714844 C 14.851562 23.023438 14.867188 23.816406 14.925781 23.886719 C 15.050781 24.035156 19.601562 23.976562 20.128906 23.820312 Z M 19.398438 15.972656 C 20.285156 15.804688 21.03125 15.261719 21.394531 14.511719 C 21.582031 14.136719 21.589844 14.058594 21.59375 13.261719 C 21.59375 12.488281 21.578125 12.382812 21.414062 12.035156 C 21.074219 11.308594 20.472656 10.839844 19.554688 10.574219 C 19.027344 10.425781 15.109375 10.347656 14.949219 10.484375 C 14.863281 10.554688 14.847656 10.96875 14.847656 13.222656 C 14.847656 15.199219 14.867188 15.902344 14.929688 15.960938 C 15.03125 16.066406 18.859375 16.074219 19.398438 15.972656 Z M 8.472656 8.683594 L 8.472656 7.632812 L 10.472656 7.667969 L 10.511719 9.738281 L 8.472656 9.738281 Z M 8.472656 8.683594 "/>
</g>
</svg>
