
<svg xmlns="http://www.w3.org/2000/svg" xmlns:xlink="http://www.w3.org/1999/xlink" width="32px" height="32px" viewBox="0 0 32 32" version="1.1">
<g id="surface1">
<path style="fill-rule:nonzero;fill:rgb(66.274512%,32.156864%,5.490196%);fill-opacity:1;stroke-width:27.587532;stroke-linecap:butt;stroke-linejoin:miter;stroke:rgb(22.745098%,63.921571%,84.313726%);stroke-opacity:1;stroke-miterlimit:4;" d="M 89.111163 25.6875 L 430.714391 25.6875 C 461.148702 25.6875 485.884408 50.4375 485.884408 80.875 L 485.884408 422.4375 C 485.884408 452.9375 461.148702 477.625 430.714391 477.625 L 89.111163 477.625 C 58.676851 477.625 33.941146 452.9375 33.941146 422.4375 L 33.941146 80.875 C 33.941146 50.4375 58.676851 25.6875 89.111163 25.6875 Z M 89.111163 25.6875 " transform="matrix(0.0623782,0,0,0.0625,0,0)"/>
<path style=" stroke:none;fill-rule:nonzero;fill:rgb(92.54902%,49.803922%,26.274511%);fill-opacity:1;" d="M 26.644531 8.578125 C 26.683594 8.640625 26.707031 8.703125 26.738281 8.761719 C 26.738281 8.777344 26.742188 8.789062 26.738281 8.796875 C 26.730469 8.785156 26.722656 8.773438 26.722656 8.761719 C 26.691406 8.699219 26.675781 8.640625 26.644531 8.578125 M 26.644531 8.578125 "/>
<path style=" stroke:none;fill-rule:nonzero;fill:rgb(22.745098%,63.921571%,84.313726%);fill-opacity:1;" d="M 19.90625 3.527344 C 20.792969 3.707031 21.550781 3.910156 22.160156 4.183594 C 23.097656 4.597656 23.707031 5.140625 23.988281 5.773438 C 23.121094 5.613281 22.355469 5.660156 21.660156 5.933594 C 26.636719 7.886719 28.980469 10.214844 28.707031 12.898438 C 28.347656 12.335938 27.863281 11.972656 27.246094 11.785156 C 28.007812 14.734375 28.089844 17.152344 27.476562 19.074219 C 27.054688 17.792969 26.648438 17.039062 26.300781 16.769531 C 26.785156 20.722656 26.121094 23.640625 24.339844 25.542969 C 24.675781 24.382812 24.820312 23.433594 24.742188 22.683594 C 22.644531 25.808594 20.269531 27.410156 17.597656 27.507812 C 16.539062 27.496094 15.527344 27.355469 14.589844 27.050781 C 13.214844 26.59375 11.964844 25.804688 10.855469 24.691406 C 12.582031 24.832031 14.164062 24.515625 15.554688 23.816406 L 17.847656 22.367188 C 18.136719 22.152344 18.402344 22.175781 18.675781 22.308594 C 19.234375 22.230469 19.390625 22.054688 19.234375 21.535156 C 18.878906 21.226562 18.5625 20.816406 18.039062 20.519531 C 16.898438 19.933594 15.710938 19.898438 14.476562 20.800781 C 13.292969 21.464844 12.15625 21.425781 11.046875 20.71875 C 10.320312 20.222656 9.605469 19.550781 8.929688 18.714844 L 8.679688 18.339844 L 8.679688 18.316406 C 8.710938 17.492188 9.042969 17.050781 9.699219 16.949219 C 10.445312 17.011719 11.300781 17.1875 12.261719 17.464844 C 12.421875 16.546875 12.210938 15.589844 11.625 14.605469 L 11.644531 14.488281 C 12.550781 13.65625 13.289062 13.148438 13.976562 12.761719 C 14.222656 12.425781 14.335938 12.324219 14.515625 12.027344 C 14.472656 11.9375 14.558594 11.882812 14.613281 11.925781 C 14.667969 11.675781 14.664062 11.714844 14.4375 11.390625 C 13.773438 11.550781 13.019531 11.34375 12.511719 11.210938 C 12.25 11.136719 11.894531 10.980469 11.488281 10.597656 L 10.449219 9.582031 L 10.179688 9.226562 L 10.199219 9.105469 C 10.316406 8.3125 10.699219 7.667969 11.007812 7.0625 C 11.347656 6.507812 11.996094 5.894531 12.953125 5.253906 C 11.175781 5.476562 9.570312 6.273438 8.140625 7.636719 C 6.957031 7.207031 5.539062 7.300781 3.921875 7.917969 C 2.917969 7.445312 2.980469 6.8125 2.652344 4.660156 C 2.308594 5.039062 1.972656 5.410156 1.667969 5.8125 L 1.667969 26.734375 C 1.667969 28.144531 2.769531 29.277344 4.132812 29.277344 L 27.554688 29.277344 C 28.917969 29.277344 30.019531 28.144531 30.019531 26.734375 L 30.019531 7.855469 C 28.980469 6.214844 27.316406 4.914062 25.167969 4.261719 C 23.691406 3.824219 21.929688 3.589844 19.90625 3.527344 Z M 19.90625 3.527344 "/>
<path style=" stroke:none;fill-rule:nonzero;fill:rgb(0%,0%,0%);fill-opacity:0.101961;" d="M 29.628906 10.4375 C 29.671875 10.515625 29.707031 10.597656 29.746094 10.667969 C 29.746094 10.6875 29.75 10.707031 29.746094 10.714844 C 29.738281 10.703125 29.722656 10.683594 29.722656 10.667969 C 29.6875 10.589844 29.667969 10.515625 29.628906 10.4375 Z M 29.628906 10.4375 "/>
<path style=" stroke:none;fill-rule:nonzero;fill:rgb(92.941177%,49.803922%,26.274511%);fill-opacity:1;" d="M 29.628906 9.800781 C 29.671875 9.882812 29.707031 9.960938 29.746094 10.035156 C 29.746094 10.050781 29.753906 10.070312 29.746094 10.078125 C 29.738281 10.066406 29.722656 10.046875 29.722656 10.035156 C 29.6875 9.957031 29.667969 9.882812 29.628906 9.800781 Z M 29.628906 9.800781 "/>
</g>
</svg>
