
<svg xmlns="http://www.w3.org/2000/svg" xmlns:xlink="http://www.w3.org/1999/xlink" width="32px" height="32px" viewBox="0 0 32 32" version="1.1">
<g id="surface1">
<path style="fill-rule:nonzero;fill:rgb(0%,100%,100%);fill-opacity:1;stroke-width:27.58753;stroke-linecap:butt;stroke-linejoin:miter;stroke:rgb(18.82353%,57.647061%,56.078434%);stroke-opacity:1;stroke-miterlimit:4;" d="M 85.711904 30.053378 L 427.288183 30.053378 C 457.747214 30.053378 482.464959 54.722933 482.464959 85.243214 L 482.464959 426.756712 C 482.464959 457.276993 457.747214 481.946548 427.288183 481.946548 L 85.711904 481.946548 C 55.252873 481.946548 30.535128 457.276993 30.535128 426.756712 L 30.535128 85.243214 C 30.535128 54.722933 55.252873 30.053378 85.711904 30.053378 Z M 85.711904 30.053378 " transform="matrix(0.064636,0,0,0.0647623,-0.579137,-0.579137)"/>
<path style=" stroke:none;fill-rule:nonzero;fill:rgb(92.54902%,49.803922%,26.274511%);fill-opacity:1;" d="M 26.8125 8.589844 C 26.847656 8.65625 26.875 8.71875 26.910156 8.78125 C 26.90625 8.792969 26.910156 8.808594 26.910156 8.816406 C 26.902344 8.808594 26.886719 8.792969 26.886719 8.78125 C 26.859375 8.714844 26.839844 8.65625 26.8125 8.589844 M 26.8125 8.589844 "/>
<path style=" stroke:none;fill-rule:nonzero;fill:rgb(18.82353%,57.647061%,56.078434%);fill-opacity:1;" d="M 19.828125 3.359375 C 20.746094 3.542969 21.53125 3.753906 22.164062 4.035156 C 23.136719 4.464844 23.761719 5.027344 24.058594 5.683594 C 23.15625 5.519531 22.363281 5.566406 21.644531 5.847656 C 26.800781 7.871094 29.230469 10.285156 28.949219 13.066406 C 28.574219 12.484375 28.070312 12.105469 27.433594 11.917969 C 28.222656 14.96875 28.308594 17.472656 27.671875 19.464844 C 27.230469 18.136719 26.8125 17.359375 26.453125 17.078125 C 26.957031 21.171875 26.269531 24.199219 24.417969 26.167969 C 24.769531 24.964844 24.917969 23.984375 24.839844 23.207031 C 22.667969 26.449219 20.203125 28.101562 17.433594 28.207031 C 16.339844 28.191406 15.292969 28.050781 14.320312 27.734375 C 12.890625 27.257812 11.597656 26.441406 10.449219 25.285156 C 12.238281 25.433594 13.875 25.105469 15.316406 24.378906 L 17.691406 22.878906 C 17.992188 22.660156 18.269531 22.679688 18.550781 22.816406 C 19.128906 22.738281 19.292969 22.554688 19.128906 22.015625 C 18.761719 21.695312 18.433594 21.269531 17.894531 20.964844 C 16.707031 20.355469 15.480469 20.320312 14.199219 21.253906 C 12.972656 21.941406 11.796875 21.902344 10.648438 21.171875 C 9.894531 20.660156 9.152344 19.957031 8.453125 19.09375 L 8.191406 18.703125 L 8.191406 18.683594 C 8.226562 17.828125 8.570312 17.367188 9.25 17.261719 C 10.023438 17.332031 10.910156 17.511719 11.90625 17.800781 C 12.074219 16.847656 11.851562 15.855469 11.246094 14.835938 L 11.265625 14.714844 C 12.203125 13.851562 12.972656 13.324219 13.683594 12.925781 C 13.9375 12.578125 14.054688 12.472656 14.238281 12.160156 C 14.199219 12.070312 14.285156 12.011719 14.339844 12.058594 C 14.394531 11.800781 14.394531 11.839844 14.160156 11.503906 C 13.472656 11.675781 12.691406 11.457031 12.164062 11.320312 C 11.894531 11.242188 11.527344 11.082031 11.105469 10.683594 L 10.027344 9.632812 L 9.75 9.261719 L 9.769531 9.136719 C 9.890625 8.316406 10.285156 7.648438 10.605469 7.019531 C 10.957031 6.445312 11.628906 5.8125 12.621094 5.148438 C 10.78125 5.375 9.117188 6.203125 7.632812 7.617188 C 6.40625 7.171875 4.9375 7.269531 3.261719 7.902344 C 2.222656 7.417969 2.285156 6.761719 1.945312 4.53125 C 1.589844 4.925781 1.246094 5.308594 0.925781 5.722656 L 0.925781 27.402344 C 0.925781 28.863281 2.066406 30.035156 3.480469 30.035156 L 27.75 30.035156 C 29.167969 30.035156 30.304688 28.863281 30.304688 27.402344 L 30.304688 7.84375 C 29.230469 6.140625 27.503906 4.792969 25.277344 4.121094 C 23.75 3.664062 21.921875 3.421875 19.828125 3.359375 Z M 19.828125 3.359375 "/>
<path style=" stroke:none;fill-rule:nonzero;fill:rgb(0%,0%,0%);fill-opacity:0.101961;" d="M 29.902344 10.519531 C 29.949219 10.597656 29.980469 10.679688 30.027344 10.757812 C 30.019531 10.777344 30.027344 10.792969 30.027344 10.804688 C 30.015625 10.792969 30 10.769531 30 10.757812 C 29.964844 10.675781 29.941406 10.597656 29.902344 10.519531 Z M 29.902344 10.519531 "/>
<path style=" stroke:none;fill-rule:nonzero;fill:rgb(92.941177%,49.803922%,26.274511%);fill-opacity:1;" d="M 29.902344 9.859375 C 29.949219 9.941406 29.980469 10.023438 30.027344 10.101562 C 30.019531 10.117188 30.027344 10.136719 30.027344 10.144531 C 30.015625 10.132812 30 10.113281 30 10.101562 C 29.964844 10.019531 29.941406 9.941406 29.902344 9.859375 Z M 29.902344 9.859375 "/>
</g>
</svg>
