
<svg xmlns="http://www.w3.org/2000/svg" xmlns:xlink="http://www.w3.org/1999/xlink" width="32px" height="32px" viewBox="0 0 32 32" version="1.1">
<defs>
<clipPath id="clip1">
  <path d="M 3.5 3.6875 L 28.5 3.6875 L 28.5 28.3125 L 3.5 28.3125 Z M 3.5 3.6875 "/>
</clipPath>
<clipPath id="clip2">
  <path d="M 28.445312 16 C 28.445312 22.769531 22.871094 28.253906 16 28.253906 C 9.128906 28.253906 3.554688 22.769531 3.554688 16 C 3.554688 9.230469 9.128906 3.746094 16 3.746094 C 22.871094 3.746094 28.445312 9.230469 28.445312 16 Z M 28.445312 16 "/>
</clipPath>
<clipPath id="clip3">
  <path d="M 13.125 3.6875 L 28.5 3.6875 L 28.5 27.875 L 13.125 27.875 Z M 13.125 3.6875 "/>
</clipPath>
<clipPath id="clip4">
  <path d="M 28.445312 16 C 28.445312 22.769531 22.871094 28.253906 16 28.253906 C 9.128906 28.253906 3.554688 22.769531 3.554688 16 C 3.554688 9.230469 9.128906 3.746094 16 3.746094 C 22.871094 3.746094 28.445312 9.230469 28.445312 16 Z M 28.445312 16 "/>
</clipPath>
<clipPath id="clip5">
  <path d="M 8.9375 12.8125 L 19 12.8125 L 19 25.3125 L 8.9375 25.3125 Z M 8.9375 12.8125 "/>
</clipPath>
<clipPath id="clip6">
  <path d="M 28.445312 16 C 28.445312 22.769531 22.871094 28.253906 16 28.253906 C 9.128906 28.253906 3.554688 22.769531 3.554688 16 C 3.554688 9.230469 9.128906 3.746094 16 3.746094 C 22.871094 3.746094 28.445312 9.230469 28.445312 16 Z M 28.445312 16 "/>
</clipPath>
<clipPath id="clip7">
  <path d="M 9.5625 22.875 L 13.875 22.875 L 13.875 24.1875 L 9.5625 24.1875 Z M 9.5625 22.875 "/>
</clipPath>
<clipPath id="clip8">
  <path d="M 28.445312 16 C 28.445312 22.769531 22.871094 28.253906 16 28.253906 C 9.128906 28.253906 3.554688 22.769531 3.554688 16 C 3.554688 9.230469 9.128906 3.746094 16 3.746094 C 22.871094 3.746094 28.445312 9.230469 28.445312 16 Z M 28.445312 16 "/>
</clipPath>
<clipPath id="clip9">
  <path d="M 9.5 19.8125 L 13.6875 19.8125 L 13.6875 20.9375 L 9.5 20.9375 Z M 9.5 19.8125 "/>
</clipPath>
<clipPath id="clip10">
  <path d="M 28.445312 16 C 28.445312 22.769531 22.871094 28.253906 16 28.253906 C 9.128906 28.253906 3.554688 22.769531 3.554688 16 C 3.554688 9.230469 9.128906 3.746094 16 3.746094 C 22.871094 3.746094 28.445312 9.230469 28.445312 16 Z M 28.445312 16 "/>
</clipPath>
<clipPath id="clip11">
  <path d="M 3.5 5.0625 L 10.3125 5.0625 L 10.3125 21.5625 L 3.5 21.5625 Z M 3.5 5.0625 "/>
</clipPath>
<clipPath id="clip12">
  <path d="M 28.445312 16 C 28.445312 22.769531 22.871094 28.253906 16 28.253906 C 9.128906 28.253906 3.554688 22.769531 3.554688 16 C 3.554688 9.230469 9.128906 3.746094 16 3.746094 C 22.871094 3.746094 28.445312 9.230469 28.445312 16 Z M 28.445312 16 "/>
</clipPath>
</defs>
<g id="surface1">
<path style="fill-rule:evenodd;fill:rgb(13.333334%,12.941177%,29.019609%);fill-opacity:1;stroke-width:31.050983;stroke-linecap:butt;stroke-linejoin:miter;stroke:rgb(91.37255%,10.588235%,0%);stroke-opacity:1;stroke-miterlimit:4;" d="M 83.937498 21.264656 L 428.062498 21.264656 C 457.187498 21.264656 480.749998 44.814458 480.749998 73.950197 L 480.749998 446.049769 C 480.749998 475.185508 457.187498 498.73531 428.062498 498.73531 L 83.937498 498.73531 C 54.812498 498.73531 31.249998 475.185508 31.249998 446.049769 L 31.249998 73.950197 C 31.249998 44.814458 54.812498 21.264656 83.937498 21.264656 Z M 83.937498 21.264656 " transform="matrix(0.0625,0,0,0.0615385,0.000000119209,-0.000000586876)"/>
<g clip-path="url(#clip1)" clip-rule="nonzero">
<g clip-path="url(#clip2)" clip-rule="nonzero">
<path style=" stroke:none;fill-rule:nonzero;fill:rgb(91.37255%,10.588235%,0%);fill-opacity:1;" d="M 14.535156 28.277344 C 12.992188 28.019531 12.332031 27.847656 11.3125 27.449219 C 9.042969 26.5625 6.953125 24.914062 5.582031 22.933594 C 5.230469 22.425781 4.832031 21.730469 4.832031 21.632812 C 4.832031 21.582031 4.753906 21.386719 4.65625 21.199219 C 4.199219 20.300781 3.832031 19.148438 3.613281 17.914062 C 3.488281 17.203125 3.472656 17.007812 3.476562 15.964844 C 3.480469 14.933594 3.496094 14.714844 3.617188 14.042969 C 4.21875 10.707031 6.015625 7.875 8.730469 5.984375 C 9.203125 5.652344 10.121094 5.097656 10.632812 4.835938 C 11.230469 4.527344 12.699219 4.019531 12.996094 4.019531 C 13.074219 4.019531 13.308594 3.984375 13.519531 3.941406 C 14.519531 3.730469 16.253906 3.652344 17.347656 3.769531 C 20.132812 4.074219 22.851562 5.367188 24.855469 7.347656 C 26.714844 9.179688 27.882812 11.457031 28.355469 14.148438 C 28.523438 15.09375 28.523438 16.882812 28.355469 17.824219 C 28.023438 19.730469 27.4375 21.214844 26.425781 22.730469 C 24.980469 24.894531 22.960938 26.488281 20.4375 27.46875 C 20.109375 27.59375 19.730469 27.726562 19.589844 27.761719 C 19.449219 27.792969 19.253906 27.863281 19.15625 27.910156 C 19.058594 27.960938 18.664062 28.0625 18.285156 28.136719 C 17.640625 28.265625 17.484375 28.277344 16.128906 28.289062 C 15.324219 28.292969 14.605469 28.292969 14.535156 28.277344 Z M 14.535156 28.277344 "/>
</g>
</g>
<g clip-path="url(#clip3)" clip-rule="nonzero">
<g clip-path="url(#clip4)" clip-rule="nonzero">
<path style=" stroke:none;fill-rule:nonzero;fill:rgb(13.333334%,12.941177%,29.019609%);fill-opacity:1;" d="M 19.554688 27.433594 C 19.800781 26.964844 20.03125 26.324219 20.113281 25.863281 C 20.210938 25.308594 20.148438 24.335938 19.980469 23.820312 C 19.6875 22.917969 19.160156 22.027344 18.121094 20.675781 C 17.175781 19.445312 16.925781 18.835938 16.925781 17.78125 C 16.925781 17.136719 17.019531 16.679688 17.332031 15.851562 C 17.609375 15.105469 17.6875 14.785156 17.726562 14.246094 C 17.835938 12.710938 17.105469 11.71875 16.027344 11.941406 C 15.535156 12.039062 15.359375 12.253906 14.945312 13.273438 C 14.777344 13.691406 14.621094 13.878906 14.339844 14.019531 C 14.082031 14.152344 13.632812 14.195312 13.34375 14.117188 L 13.125 14.058594 L 13.125 9.03125 C 13.125 6.265625 13.136719 4.003906 13.148438 4.003906 C 13.160156 4.003906 13.339844 3.964844 13.542969 3.921875 C 14.546875 3.710938 16.285156 3.636719 17.375 3.753906 C 20.160156 4.054688 22.878906 5.351562 24.886719 7.335938 C 26.738281 9.167969 27.910156 11.449219 28.386719 14.144531 C 28.550781 15.089844 28.550781 16.878906 28.386719 17.824219 C 28.050781 19.730469 27.464844 21.21875 26.453125 22.734375 C 25.503906 24.152344 24.402344 25.246094 22.941406 26.214844 C 22.039062 26.816406 20.1875 27.667969 19.53125 27.792969 L 19.347656 27.824219 Z M 19.554688 27.433594 "/>
</g>
</g>
<g clip-path="url(#clip5)" clip-rule="nonzero">
<g clip-path="url(#clip6)" clip-rule="nonzero">
<path style=" stroke:none;fill-rule:nonzero;fill:rgb(13.333334%,12.941177%,29.019609%);fill-opacity:1;" d="M 17.574219 25.230469 C 17.378906 25.152344 17.152344 24.875 16.757812 24.253906 C 15.933594 22.949219 14.933594 22.066406 13.882812 21.707031 C 13.300781 21.507812 12.886719 21.464844 11.589844 21.464844 C 10.351562 21.460938 10.050781 21.425781 9.648438 21.222656 C 9.417969 21.105469 9.339844 21.03125 9.203125 20.785156 C 9.113281 20.621094 9.007812 20.347656 8.976562 20.175781 C 8.894531 19.75 8.996094 19.1875 9.371094 17.972656 C 9.804688 16.570312 9.808594 16.066406 9.386719 15.152344 C 9.082031 14.480469 9.121094 14.125 9.515625 14.050781 C 9.699219 14.019531 10.183594 14.105469 10.296875 14.195312 C 10.34375 14.230469 10.363281 14.457031 10.363281 15.015625 C 10.363281 15.585938 10.378906 15.800781 10.429688 15.839844 C 10.621094 15.996094 12.386719 16.042969 12.875 15.902344 C 13.105469 15.835938 13.132812 15.785156 13.136719 15.378906 L 13.136719 15.039062 L 13.457031 15.070312 C 14.070312 15.128906 14.746094 14.933594 15.171875 14.566406 C 15.476562 14.304688 15.785156 13.824219 15.90625 13.425781 C 16.027344 13.023438 16.257812 12.777344 16.445312 12.847656 C 16.855469 13.003906 16.753906 14.222656 16.191406 15.910156 C 15.792969 17.101562 15.777344 17.964844 16.121094 19.035156 C 16.289062 19.550781 16.488281 19.902344 17.164062 20.878906 C 17.902344 21.949219 18.453125 22.835938 18.746094 23.429688 C 18.996094 23.941406 19.0625 24.453125 18.914062 24.761719 C 18.714844 25.171875 18.011719 25.417969 17.574219 25.230469 Z M 17.574219 25.230469 "/>
</g>
</g>
<g clip-path="url(#clip7)" clip-rule="nonzero">
<g clip-path="url(#clip8)" clip-rule="nonzero">
<path style=" stroke:none;fill-rule:nonzero;fill:rgb(13.333334%,12.941177%,29.019609%);fill-opacity:1;" d="M 13.496094 24.078125 C 13.824219 23.925781 13.9375 23.605469 13.773438 23.273438 C 13.589844 22.902344 13.554688 22.894531 11.722656 22.894531 C 9.988281 22.894531 9.945312 22.902344 9.722656 23.179688 C 9.589844 23.34375 9.578125 23.683594 9.699219 23.847656 C 9.746094 23.914062 9.855469 24.007812 9.941406 24.0625 C 10.089844 24.152344 10.21875 24.160156 11.714844 24.160156 C 13.074219 24.160156 13.347656 24.144531 13.496094 24.078125 Z M 13.496094 24.078125 "/>
</g>
</g>
<g clip-path="url(#clip9)" clip-rule="nonzero">
<g clip-path="url(#clip10)" clip-rule="nonzero">
<path style=" stroke:none;fill-rule:nonzero;fill:rgb(91.37255%,10.588235%,0%);fill-opacity:1;" d="M 9.847656 20.832031 C 9.671875 20.765625 9.519531 20.535156 9.519531 20.339844 C 9.519531 20.207031 9.5625 20.121094 9.691406 19.996094 L 9.867188 19.824219 L 13.308594 19.824219 L 13.464844 19.949219 C 13.664062 20.113281 13.71875 20.359375 13.605469 20.574219 C 13.445312 20.875 13.390625 20.882812 11.589844 20.878906 C 10.691406 20.878906 9.90625 20.855469 9.847656 20.832031 Z M 9.847656 20.832031 "/>
</g>
</g>
<g clip-path="url(#clip11)" clip-rule="nonzero">
<g clip-path="url(#clip12)" clip-rule="nonzero">
<path style=" stroke:none;fill-rule:nonzero;fill:rgb(13.333334%,12.941177%,29.019609%);fill-opacity:1;" d="M 4.558594 21.066406 C 4.101562 20.097656 3.785156 19.058594 3.574219 17.832031 C 3.472656 17.253906 3.457031 16.972656 3.457031 15.988281 C 3.460938 14.957031 3.476562 14.738281 3.597656 14.066406 C 4.195312 10.746094 5.96875 7.933594 8.660156 6.03125 C 9.160156 5.679688 10.144531 5.089844 10.238281 5.089844 C 10.292969 5.089844 10.304688 5.894531 10.292969 9.175781 L 10.28125 13.257812 L 10.035156 13.273438 C 9.566406 13.300781 8.960938 12.917969 8.714844 12.441406 C 8.605469 12.226562 8.582031 12.097656 8.554688 11.429688 C 8.535156 10.972656 8.484375 10.550781 8.433594 10.378906 C 8.289062 9.882812 7.820312 9.496094 7.265625 9.414062 C 6.617188 9.316406 5.972656 9.785156 5.527344 10.671875 C 4.980469 11.769531 4.886719 12.835938 5.222656 14.152344 C 5.28125 14.363281 5.453125 14.921875 5.609375 15.386719 C 6.269531 17.355469 6.332031 18.035156 5.964844 19.171875 C 5.839844 19.566406 4.875 21.523438 4.808594 21.523438 C 4.789062 21.523438 4.675781 21.316406 4.558594 21.066406 Z M 4.558594 21.066406 "/>
</g>
</g>
<path style=" stroke:none;fill-rule:evenodd;fill:rgb(91.37255%,10.588235%,0%);fill-opacity:1;" d="M 10.253906 5.464844 L 10.253906 1.746094 L 13.070312 1.746094 L 13.128906 4.183594 L 11.441406 6.277344 Z M 10.253906 5.464844 "/>
<path style=" stroke:none;fill-rule:evenodd;fill:rgb(91.37255%,10.588235%,0%);fill-opacity:1;" d="M 4.855469 21.460938 L 3.300781 25.085938 C 2.191406 27.667969 6.085938 29.53125 9.261719 29.550781 C 9.261719 29.546875 15.578125 29.691406 18.113281 29.550781 C 18.839844 29.507812 19.363281 27.789062 19.363281 27.789062 C 14.105469 26.847656 8.917969 25.707031 4.855469 21.460938 Z M 4.855469 21.460938 "/>
</g>
</svg>
