
<svg xmlns="http://www.w3.org/2000/svg" xmlns:xlink="http://www.w3.org/1999/xlink" width="32px" height="32px" viewBox="0 0 32 32" version="1.1">
<g id="surface1">
<path style="fill-rule:nonzero;fill:rgb(18.431373%,30.19608%,38.82353%);fill-opacity:1;stroke-width:55.870281;stroke-linecap:butt;stroke-linejoin:miter;stroke:rgb(51.764709%,66.274512%,76.862746%);stroke-opacity:1;stroke-miterlimit:4;" d="M 166.125 54.375 L 857.875 54.375 C 919.625 54.375 969.625 104.375 969.625 166.125 L 969.625 857.875 C 969.625 919.625 919.625 969.625 857.875 969.625 L 166.125 969.625 C 104.375 969.625 54.375 919.625 54.375 857.875 L 54.375 166.125 C 54.375 104.375 104.375 54.375 166.125 54.375 Z M 166.125 54.375 " transform="matrix(0.03125,0,0,0.03125,0,0)"/>
<path style=" stroke:none;fill-rule:nonzero;fill:rgb(57.647061%,71.372551%,79.215688%);fill-opacity:1;" d="M 22.285156 6.046875 C 21.714844 6.046875 21.230469 6.246094 20.828125 6.652344 C 20.425781 7.050781 20.222656 7.539062 20.222656 8.109375 L 20.222656 13.867188 L 24.351562 17.996094 L 24.351562 8.109375 C 24.351562 7.539062 24.148438 7.050781 23.746094 6.652344 C 23.34375 6.246094 22.855469 6.046875 22.285156 6.046875 Z M 17.761719 6.644531 C 17.363281 6.242188 16.875 6.042969 16.304688 6.042969 L 12.398438 6.042969 L 18.371094 12.011719 L 18.371094 8.105469 C 18.367188 7.535156 18.167969 7.046875 17.761719 6.644531 Z M 17.761719 6.644531 "/>
<path style=" stroke:none;fill-rule:nonzero;fill:rgb(48.235294%,62.7451%,70.980394%);fill-opacity:1;" d="M 23.746094 24.472656 C 24.148438 24.070312 24.351562 23.582031 24.351562 23.011719 L 24.351562 17.996094 L 20.222656 13.867188 L 20.222656 23.011719 C 20.222656 23.582031 20.425781 24.070312 20.828125 24.472656 C 21.230469 24.875 21.714844 25.074219 22.285156 25.078125 C 22.855469 25.074219 23.34375 24.875 23.746094 24.472656 Z M 18.371094 15.070312 L 18.371094 12.011719 L 12.398438 6.042969 L 8.828125 6.042969 C 8.257812 6.042969 7.769531 6.242188 7.371094 6.644531 C 6.964844 7.046875 6.761719 7.535156 6.761719 8.105469 C 6.761719 8.675781 6.964844 9.160156 7.371094 9.566406 C 7.769531 9.964844 8.257812 10.167969 8.828125 10.167969 L 14.242188 10.167969 L 14.242188 15.128906 C 14.238281 15.167969 14.242188 15.207031 14.246094 15.25 C 14.367188 17.398438 14.019531 18.964844 13.203125 19.949219 C 12.300781 20.734375 10.925781 21.019531 9.066406 20.808594 C 8.5 20.742188 7.996094 20.886719 7.550781 21.242188 C 7.101562 21.597656 6.847656 22.054688 6.777344 22.621094 C 6.710938 23.183594 6.855469 23.691406 7.210938 24.136719 C 7.566406 24.582031 8.027344 24.839844 8.589844 24.90625 C 12.050781 25.304688 14.574219 24.613281 16.167969 22.820312 C 17.832031 21.242188 18.566406 18.660156 18.371094 15.070312 Z M 18.371094 15.070312 "/>
<path style=" stroke:none;fill-rule:nonzero;fill:rgb(95.686275%,59.607846%,20.784314%);fill-opacity:1;" d="M 10.945312 13.820312 C 10.472656 13.347656 9.902344 13.113281 9.230469 13.113281 C 8.5625 13.113281 7.992188 13.347656 7.519531 13.820312 C 7.046875 14.292969 6.808594 14.863281 6.808594 15.535156 C 6.808594 16.203125 7.042969 16.773438 7.519531 17.246094 C 7.992188 17.71875 8.5625 17.957031 9.230469 17.957031 C 9.902344 17.957031 10.472656 17.71875 10.945312 17.246094 C 11.417969 16.773438 11.652344 16.203125 11.652344 15.535156 C 11.652344 14.867188 11.417969 14.292969 10.945312 13.820312 Z M 10.945312 13.820312 "/>
</g>
</svg>
