
<svg xmlns="http://www.w3.org/2000/svg" xmlns:xlink="http://www.w3.org/1999/xlink" width="32px" height="32px" viewBox="0 0 32 32" version="1.1">
<g id="surface1">
<path style="fill-rule:evenodd;fill:rgb(16.078432%,50.196081%,72.549021%);fill-opacity:1;stroke-width:31.171715;stroke-linecap:butt;stroke-linejoin:miter;stroke:rgb(77.64706%,75.294119%,75.294119%);stroke-opacity:1;stroke-miterlimit:4;" d="M 74.75 23.4375 L 437.25 23.4375 C 465.5625 23.4375 488.5625 46.4375 488.5625 74.75 L 488.5625 437.25 C 488.5625 465.5625 465.5625 488.5625 437.25 488.5625 L 74.75 488.5625 C 46.4375 488.5625 23.4375 465.5625 23.4375 437.25 L 23.4375 74.75 C 23.4375 46.4375 46.4375 23.4375 74.75 23.4375 Z M 74.75 23.4375 " transform="matrix(0.0625,0,0,0.0625,0,0)"/>
<path style=" stroke:none;fill-rule:nonzero;fill:rgb(86.274511%,86.274511%,86.274511%);fill-opacity:1;" d="M 9.652344 16.113281 C 8.246094 17.449219 7.410156 19.242188 7.410156 21.21875 C 7.410156 25.371094 11.171875 28.703125 15.816406 28.703125 C 20.464844 28.703125 24.222656 25.351562 24.222656 21.21875 C 24.222656 19.246094 23.375 17.449219 21.980469 16.113281 L 20.296875 17.613281 C 21.269531 18.5625 21.820312 19.828125 21.820312 21.222656 C 21.820312 24.183594 19.136719 26.582031 15.816406 26.582031 C 12.488281 26.582031 9.804688 24.183594 9.804688 21.222656 C 9.804688 19.839844 10.394531 18.59375 11.367188 17.648438 M 9.644531 16.113281 "/>
<path style=" stroke:none;fill-rule:nonzero;fill:rgb(86.274511%,86.274511%,86.274511%);fill-opacity:1;" d="M 15.707031 6.300781 L 15.925781 6.300781 C 16.449219 6.300781 16.867188 6.722656 16.867188 7.246094 L 16.867188 23.574219 C 16.867188 24.097656 16.449219 24.519531 15.925781 24.519531 L 15.707031 24.519531 C 15.191406 24.519531 14.769531 24.097656 14.769531 23.574219 L 14.769531 7.246094 C 14.769531 6.722656 15.191406 6.300781 15.707031 6.300781 M 15.707031 6.300781 "/>
<path style=" stroke:none;fill-rule:nonzero;fill:rgb(86.274511%,86.274511%,86.274511%);fill-opacity:1;" d="M 6.359375 14.558594 L 6.359375 14.515625 C 6.359375 14.238281 6.585938 14.011719 6.863281 14.011719 L 24.769531 14.011719 C 25.050781 14.011719 25.28125 14.238281 25.28125 14.515625 L 25.28125 14.558594 C 25.28125 14.839844 25.050781 15.0625 24.769531 15.0625 L 6.863281 15.0625 C 6.585938 15.0625 6.359375 14.835938 6.359375 14.558594 M 6.359375 14.558594 "/>
<path style=" stroke:none;fill-rule:nonzero;fill:rgb(86.274511%,86.274511%,86.274511%);fill-opacity:1;" d="M 24.691406 7.707031 L 24.800781 7.707031 C 25.058594 7.707031 25.269531 7.917969 25.269531 8.183594 L 25.269531 14.238281 C 25.269531 14.5 25.058594 14.714844 24.800781 14.714844 L 24.691406 14.714844 C 24.433594 14.714844 24.222656 14.5 24.222656 14.238281 L 24.222656 8.183594 C 24.222656 7.917969 24.433594 7.707031 24.691406 7.707031 M 24.691406 7.707031 "/>
<path style=" stroke:none;fill-rule:nonzero;fill:rgb(86.274511%,86.274511%,86.274511%);fill-opacity:1;" d="M 6.832031 7.707031 L 6.933594 7.707031 C 7.199219 7.707031 7.40625 7.917969 7.40625 8.183594 L 7.40625 14.238281 C 7.40625 14.5 7.199219 14.714844 6.933594 14.714844 L 6.832031 14.714844 C 6.570312 14.714844 6.359375 14.5 6.359375 14.238281 L 6.359375 8.183594 C 6.359375 7.917969 6.570312 7.707031 6.832031 7.707031 M 6.832031 7.707031 "/>
<path style=" stroke:none;fill-rule:nonzero;fill:rgb(86.274511%,86.274511%,86.274511%);fill-opacity:1;" d="M 15.589844 3.503906 C 15.53125 3.507812 15.476562 3.542969 15.417969 3.558594 C 15.265625 3.585938 15.105469 3.585938 14.960938 3.664062 C 14.667969 3.820312 14.464844 4.09375 14.332031 4.363281 C 14.277344 4.46875 14.183594 4.574219 14.160156 4.691406 L 11.867188 8.34375 C 11.363281 9.175781 11.636719 10.222656 12.441406 10.660156 C 13.246094 11.09375 14.28125 10.785156 14.785156 9.957031 L 15.820312 8.292969 L 16.847656 9.957031 C 17.351562 10.785156 18.386719 11.09375 19.191406 10.660156 C 19.996094 10.222656 20.265625 9.175781 19.765625 8.34375 L 17.472656 4.691406 C 17.453125 4.617188 17.382812 4.546875 17.359375 4.472656 L 17.296875 4.363281 C 17.167969 4.09375 16.964844 3.824219 16.667969 3.664062 C 16.527344 3.585938 16.371094 3.589844 16.214844 3.558594 C 16.074219 3.53125 15.949219 3.496094 15.808594 3.503906 C 15.734375 3.5 15.660156 3.496094 15.582031 3.503906 M 15.574219 3.503906 "/>
<path style=" stroke:none;fill-rule:nonzero;fill:rgb(86.274511%,86.274511%,86.274511%);fill-opacity:1;" d="M 6.742188 5.605469 C 6.707031 5.609375 6.671875 5.625 6.636719 5.632812 C 6.535156 5.652344 6.441406 5.648438 6.347656 5.695312 C 6.167969 5.785156 6.039062 5.9375 5.953125 6.097656 C 5.921875 6.15625 5.863281 6.214844 5.847656 6.28125 L 4.414062 8.371094 C 4.097656 8.84375 4.269531 9.441406 4.769531 9.691406 C 5.277344 9.941406 5.925781 9.761719 6.242188 9.292969 L 6.886719 8.34375 L 7.527344 9.292969 C 7.847656 9.769531 8.488281 9.941406 8.996094 9.691406 C 9.496094 9.441406 9.667969 8.84375 9.351562 8.371094 L 7.925781 6.28125 C 7.910156 6.238281 7.871094 6.199219 7.851562 6.160156 L 7.816406 6.097656 C 7.730469 5.9375 7.605469 5.785156 7.417969 5.695312 C 7.332031 5.652344 7.234375 5.652344 7.132812 5.632812 C 7.050781 5.617188 6.96875 5.601562 6.886719 5.605469 C 6.839844 5.601562 6.792969 5.601562 6.742188 5.605469 M 6.742188 5.605469 "/>
<path style=" stroke:none;fill-rule:nonzero;fill:rgb(86.274511%,86.274511%,86.274511%);fill-opacity:1;" d="M 15.644531 24.515625 C 15.601562 24.511719 15.566406 24.488281 15.515625 24.480469 C 15.394531 24.457031 15.28125 24.457031 15.175781 24.402344 C 14.953125 24.292969 14.800781 24.09375 14.703125 23.902344 C 14.667969 23.824219 14.589844 23.753906 14.570312 23.667969 L 12.855469 21.054688 C 12.472656 20.46875 12.679688 19.71875 13.28125 19.40625 C 13.886719 19.089844 14.660156 19.316406 15.039062 19.902344 L 15.808594 21.09375 L 16.582031 19.902344 C 16.957031 19.316406 17.738281 19.089844 18.339844 19.40625 C 18.941406 19.71875 19.148438 20.46875 18.765625 21.054688 L 17.050781 23.667969 C 17.03125 23.726562 16.988281 23.773438 16.964844 23.824219 L 16.917969 23.902344 C 16.816406 24.09375 16.667969 24.289062 16.445312 24.402344 C 16.339844 24.457031 16.21875 24.457031 16.105469 24.480469 C 15.996094 24.496094 15.910156 24.523438 15.800781 24.515625 C 15.746094 24.519531 15.691406 24.519531 15.628906 24.515625 M 15.644531 24.515625 "/>
<path style=" stroke:none;fill-rule:nonzero;fill:rgb(86.274511%,86.274511%,86.274511%);fill-opacity:1;" d="M 24.605469 5.605469 C 24.570312 5.609375 24.535156 5.625 24.5 5.632812 C 24.402344 5.652344 24.308594 5.648438 24.214844 5.695312 C 24.03125 5.785156 23.902344 5.9375 23.816406 6.097656 C 23.785156 6.15625 23.730469 6.214844 23.710938 6.28125 L 22.277344 8.371094 C 21.964844 8.84375 22.136719 9.441406 22.636719 9.691406 C 23.140625 9.941406 23.789062 9.761719 24.105469 9.292969 L 24.75 8.34375 L 25.394531 9.292969 C 25.710938 9.769531 26.359375 9.941406 26.859375 9.691406 C 27.363281 9.441406 27.535156 8.84375 27.214844 8.371094 L 25.789062 6.28125 C 25.777344 6.238281 25.734375 6.199219 25.71875 6.160156 L 25.683594 6.097656 C 25.597656 5.9375 25.46875 5.785156 25.285156 5.695312 C 25.199219 5.652344 25.097656 5.652344 25 5.632812 C 24.914062 5.617188 24.835938 5.601562 24.75 5.605469 C 24.699219 5.601562 24.65625 5.601562 24.605469 5.605469 M 24.605469 5.605469 "/>
</g>
</svg>
