
<svg xmlns="http://www.w3.org/2000/svg" xmlns:xlink="http://www.w3.org/1999/xlink" width="32px" height="32px" viewBox="0 0 32 32" version="1.1">
<g id="surface1">
<path style="fill-rule:nonzero;fill:rgb(89.411765%,87.843138%,72.156864%);fill-opacity:1;stroke-width:2.614551;stroke-linecap:butt;stroke-linejoin:miter;stroke:rgb(47.450981%,14.117648%,14.117648%);stroke-opacity:1;stroke-miterlimit:4;" d="M 7.816406 2.583984 L 40.183594 2.583984 C 43.072266 2.583984 45.416016 4.927734 45.416016 7.816406 L 45.416016 40.183594 C 45.416016 43.072266 43.072266 45.416016 40.183594 45.416016 L 7.816406 45.416016 C 4.927734 45.416016 2.583984 43.072266 2.583984 40.183594 L 2.583984 7.816406 C 2.583984 4.927734 4.927734 2.583984 7.816406 2.583984 Z M 7.816406 2.583984 " transform="matrix(0.666667,0,0,0.666667,0,0)"/>
<path style="fill:none;stroke-width:1;stroke-linecap:butt;stroke-linejoin:miter;stroke:rgb(0%,0%,0%);stroke-opacity:1;stroke-miterlimit:4;" d="M 27.556641 25.130859 L 17.847656 12.837891 L 5.548828 26.783203 C 5.478516 27.738281 10.839844 27.369141 11.589844 27.791016 C 12.902344 28.541016 8.085938 29.560547 8.425781 31.03125 C 8.994141 33.480469 14.748047 31.160156 15.544922 33.544922 C 15.955078 34.775391 13.013672 35.542969 13.388672 36.779297 C 13.892578 38.449219 18.205078 38.794922 18.205078 38.794922 L 18.064453 38.578125 " transform="matrix(0.666667,0,0,0.666667,0,0)"/>
<path style=" stroke:none;fill-rule:evenodd;fill:rgb(20%,20%,20%);fill-opacity:1;" d="M 12.863281 26.238281 C 15.226562 25.832031 14.488281 25.128906 16.550781 22.027344 C 17.304688 20.894531 18.953125 22.222656 18.34375 23.140625 C 16.492188 25.925781 15.539062 26.300781 12.863281 26.238281 Z M 12.863281 26.238281 "/>
<path style=" stroke:none;fill-rule:evenodd;fill:rgb(49.019608%,15.294118%,15.294118%);fill-opacity:1;" d="M 28.140625 6.503906 C 28.527344 6.761719 22.925781 16.457031 20.667969 19.429688 C 18.410156 22.402344 17.242188 21.628906 19.113281 18.394531 C 20.980469 15.164062 27.753906 6.246094 28.140625 6.503906 Z M 28.140625 6.503906 "/>
<path style=" stroke:none;fill-rule:evenodd;fill:rgb(0%,0%,0%);fill-opacity:1;" d="M 11.71875 10.878906 L 6.734375 16.472656 C 11.996094 21.863281 9.894531 13.539062 16.261719 16.371094 Z M 11.71875 10.878906 "/>
</g>
</svg>
