
<svg xmlns="http://www.w3.org/2000/svg" xmlns:xlink="http://www.w3.org/1999/xlink" width="32px" height="32px" viewBox="0 0 32 32" version="1.1">
<g id="surface1">
<path style="fill-rule:nonzero;fill:rgb(92.54902%,92.54902%,92.54902%);fill-opacity:1;stroke-width:26.921061;stroke-linecap:butt;stroke-linejoin:miter;stroke:rgb(66.274512%,66.274512%,66.274512%);stroke-opacity:1;stroke-miterlimit:4;" d="M 83.297278 -432.75 L 410.258967 -432.75 C 439.430494 -432.75 463.068452 -408.1875 463.068452 -377.875 L 463.068452 -38.125 C 463.068452 -7.8125 439.430494 16.75 410.258967 16.75 L 83.297278 16.75 C 54.125751 16.75 30.487793 -7.8125 30.487793 -38.125 L 30.487793 -377.875 C 30.487793 -408.1875 54.125751 -432.75 83.297278 -432.75 Z M 83.297278 -432.75 " transform="matrix(0.0649445,0,0,0.0625,-0.0268905,29)"/>
<path style=" stroke:none;fill-rule:nonzero;fill:rgb(30.19608%,30.19608%,30.19608%);fill-opacity:1;" d="M 5.441406 6.710938 L 25.503906 6.710938 C 26.441406 6.710938 27.199219 7.472656 27.199219 8.410156 L 27.199219 23.03125 C 27.199219 23.96875 26.441406 24.730469 25.503906 24.730469 L 5.441406 24.730469 C 4.503906 24.730469 3.746094 23.96875 3.746094 23.03125 L 3.746094 8.410156 C 3.746094 7.472656 4.503906 6.710938 5.441406 6.710938 Z M 5.441406 6.710938 "/>
<path style=" stroke:none;fill-rule:nonzero;fill:rgb(90.196079%,90.196079%,90.196079%);fill-opacity:1;" d="M 8.378906 7.847656 L 24.589844 7.847656 C 25.347656 7.847656 25.964844 8.511719 25.964844 9.332031 L 25.964844 22.109375 C 25.964844 22.925781 25.347656 23.589844 24.589844 23.589844 L 8.378906 23.589844 C 7.621094 23.589844 7.007812 22.925781 7.007812 22.109375 L 7.007812 9.332031 C 7.007812 8.511719 7.621094 7.847656 8.378906 7.847656 Z M 8.378906 7.847656 "/>
<path style=" stroke:none;fill-rule:nonzero;fill:rgb(100%,100%,100%);fill-opacity:1;" d="M 6.019531 15.71875 C 6.019531 16.1875 5.636719 16.566406 5.171875 16.566406 C 4.703125 16.566406 4.324219 16.1875 4.324219 15.71875 C 4.324219 15.253906 4.703125 14.871094 5.171875 14.871094 C 5.636719 14.871094 6.019531 15.253906 6.019531 15.71875 Z M 6.019531 15.71875 "/>
<path style=" stroke:none;fill-rule:nonzero;fill:rgb(20%,20%,20%);fill-opacity:1;" d="M 28.121094 11.53125 C 27.964844 11.371094 27.566406 11.523438 27.222656 11.867188 L 25.511719 13.582031 L 15.035156 24.058594 L 14.148438 26.441406 L 16.527344 25.550781 L 27.003906 15.074219 L 28.71875 13.367188 C 29.066406 13.019531 29.214844 12.621094 29.054688 12.464844 Z M 28.121094 11.53125 "/>
</g>
</svg>
