
<svg xmlns="http://www.w3.org/2000/svg" xmlns:xlink="http://www.w3.org/1999/xlink" width="32px" height="32px" viewBox="0 0 32 32" version="1.1">
<g id="surface1">
<path style="fill-rule:nonzero;fill:rgb(92.54902%,94.117647%,94.509804%);fill-opacity:1;stroke-width:5.286023;stroke-linecap:butt;stroke-linejoin:miter;stroke:rgb(58.431375%,64.705884%,65.098041%);stroke-opacity:1;stroke-miterlimit:4;" d="M -15.92944 275.64272 L 84.188905 275.64272 C 91.614878 275.64272 97.62974 281.657581 97.62974 289.083554 L 97.62974 389.2019 C 97.62974 396.627873 91.614878 402.642734 84.188905 402.642734 L -15.92944 402.642734 C -23.355413 402.642734 -29.370275 396.627873 -29.370275 389.2019 L -29.370275 289.083554 C -29.370275 281.657581 -23.355413 275.64272 -15.92944 275.64272 Z M -15.92944 275.64272 " transform="matrix(0.221457,0,0,0.221457,8.441743,-59.105418)"/>
<path style=" stroke:none;fill-rule:nonzero;fill:rgb(49.803922%,54.901963%,55.29412%);fill-opacity:1;" d="M 12.222656 13.332031 C 11.847656 13.332031 11.5 13.402344 11.183594 13.542969 C 10.871094 13.675781 10.597656 13.863281 10.367188 14.105469 C 10.144531 14.351562 9.972656 14.636719 9.851562 14.960938 C 9.730469 15.285156 9.671875 15.632812 9.671875 16 C 9.671875 16.367188 9.730469 16.714844 9.851562 17.039062 C 9.972656 17.363281 10.144531 17.648438 10.367188 17.894531 C 10.597656 18.136719 10.871094 18.328125 11.183594 18.464844 C 11.5 18.601562 11.847656 18.667969 12.222656 18.667969 C 12.550781 18.667969 12.847656 18.621094 13.128906 18.523438 C 13.402344 18.429688 13.644531 18.292969 13.851562 18.113281 C 14.0625 17.933594 14.226562 17.714844 14.347656 17.457031 C 14.472656 17.191406 14.542969 16.898438 14.5625 16.574219 L 13.230469 16.574219 C 13.207031 16.871094 13.105469 17.101562 12.925781 17.269531 C 12.75 17.4375 12.507812 17.519531 12.195312 17.519531 C 11.988281 17.519531 11.808594 17.480469 11.660156 17.398438 C 11.503906 17.3125 11.378906 17.199219 11.285156 17.054688 C 11.191406 16.910156 11.117188 16.75 11.070312 16.566406 C 11.027344 16.386719 11.003906 16.195312 11.003906 16 C 11.003906 15.804688 11.027344 15.617188 11.070312 15.433594 C 11.117188 15.253906 11.191406 15.089844 11.285156 14.949219 C 11.378906 14.804688 11.503906 14.691406 11.660156 14.609375 C 11.808594 14.523438 11.988281 14.480469 12.195312 14.480469 C 12.480469 14.480469 12.714844 14.550781 12.898438 14.6875 C 13.082031 14.824219 13.195312 15.015625 13.230469 15.269531 L 14.5625 15.269531 C 14.550781 14.972656 14.480469 14.707031 14.339844 14.464844 C 14.207031 14.222656 14.027344 14.015625 13.800781 13.847656 C 13.574219 13.675781 13.328125 13.550781 13.054688 13.464844 C 12.785156 13.375 12.507812 13.332031 12.222656 13.332031 Z M 21.109375 13.441406 L 21.109375 18.558594 L 22.328125 18.558594 L 22.328125 13.441406 Z M 15.5 13.714844 L 15.5 14.839844 L 14.882812 14.839844 L 14.882812 15.628906 L 15.5 15.628906 L 15.5 17.285156 C 15.5 17.546875 15.519531 17.761719 15.558594 17.925781 C 15.597656 18.089844 15.667969 18.222656 15.765625 18.324219 C 15.863281 18.417969 15.992188 18.488281 16.160156 18.53125 C 16.324219 18.574219 16.542969 18.597656 16.804688 18.597656 C 16.890625 18.597656 17.015625 18.589844 17.183594 18.574219 C 17.3125 18.5625 17.410156 18.558594 17.472656 18.558594 L 17.472656 17.660156 C 17.433594 17.660156 17.378906 17.664062 17.304688 17.667969 C 17.238281 17.675781 17.1875 17.675781 17.15625 17.675781 C 17.007812 17.675781 16.894531 17.652344 16.824219 17.605469 C 16.753906 17.550781 16.71875 17.457031 16.71875 17.316406 L 16.71875 15.628906 L 17.472656 15.628906 L 17.472656 14.839844 L 16.71875 14.839844 L 16.71875 13.714844 Z M 20.371094 14.765625 C 20.109375 14.765625 19.878906 14.828125 19.683594 14.953125 C 19.488281 15.078125 19.34375 15.253906 19.253906 15.488281 L 19.238281 15.488281 L 19.238281 14.839844 L 18.054688 14.839844 L 18.054688 18.558594 L 19.277344 18.558594 L 19.277344 16.714844 C 19.277344 16.46875 19.355469 16.261719 19.519531 16.09375 C 19.683594 15.921875 19.90625 15.835938 20.191406 15.835938 C 20.324219 15.835938 20.480469 15.859375 20.660156 15.90625 L 20.660156 14.796875 C 20.578125 14.777344 20.480469 14.765625 20.371094 14.765625 Z M 20.371094 14.765625 "/>
</g>
</svg>
