
<svg xmlns="http://www.w3.org/2000/svg" xmlns:xlink="http://www.w3.org/1999/xlink" width="32px" height="32px" viewBox="0 0 32 32" version="1.1">
<g id="surface1">
<path style="fill-rule:nonzero;fill:rgb(100%,100%,100%);fill-opacity:1;stroke-width:27.103765;stroke-linecap:butt;stroke-linejoin:miter;stroke:rgb(17.647059%,53.725493%,80.784315%);stroke-opacity:1;stroke-miterlimit:4;" d="M 88.1875 34 L 423.8125 34 C 453.6875 34 478 58.3125 478 88.1875 L 478 423.8125 C 478 453.6875 453.6875 478 423.8125 478 L 88.1875 478 C 58.3125 478 34 453.6875 34 423.8125 L 34 88.1875 C 34 58.3125 58.3125 34 88.1875 34 Z M 88.1875 34 " transform="matrix(0.0625,0,0,0.0625,0,0)"/>
<path style=" stroke:none;fill-rule:nonzero;fill:rgb(17.647059%,53.725493%,80.784315%);fill-opacity:1;" d="M 11.496094 24.519531 C 7.773438 24.160156 5.175781 22.738281 4.269531 20.566406 C 3.941406 19.777344 3.761719 18.644531 3.835938 17.886719 C 3.949219 16.761719 4.386719 15.667969 5.121094 14.640625 C 5.402344 14.246094 6.308594 13.261719 6.386719 13.261719 C 6.410156 13.261719 6.425781 13.375 6.425781 13.507812 C 6.425781 13.722656 6.402344 13.78125 6.242188 13.972656 C 6.011719 14.25 5.574219 14.925781 5.402344 15.269531 C 4.878906 16.308594 4.632812 17.539062 4.753906 18.511719 C 4.875 19.515625 5.261719 20.320312 5.945312 21.007812 C 7.039062 22.101562 8.582031 22.691406 11.113281 22.972656 C 11.785156 23.050781 14.121094 23.046875 14.984375 22.972656 C 17.949219 22.710938 20.777344 21.957031 23.199219 20.785156 C 23.65625 20.566406 24.035156 20.386719 24.046875 20.386719 C 24.058594 20.386719 24.066406 20.773438 24.066406 21.246094 L 24.066406 22.105469 L 23.671875 22.304688 C 21.859375 23.214844 19.238281 23.988281 16.730469 24.347656 C 15.113281 24.582031 12.90625 24.652344 11.496094 24.519531 Z M 19.078125 19.277344 C 18.738281 19.214844 18.289062 18.996094 18.054688 18.777344 C 17.582031 18.34375 17.351562 17.703125 17.351562 16.824219 C 17.355469 16.230469 17.417969 15.910156 17.621094 15.472656 C 18.207031 14.226562 20.050781 13.871094 20.996094 14.828125 C 21.433594 15.269531 21.675781 15.941406 21.675781 16.714844 L 21.675781 17.136719 L 20.175781 17.136719 C 19.347656 17.136719 18.636719 17.148438 18.597656 17.164062 C 18.492188 17.203125 18.5 17.488281 18.609375 17.734375 C 18.785156 18.121094 19.175781 18.347656 19.667969 18.351562 C 20.054688 18.355469 20.253906 18.300781 20.53125 18.113281 C 20.667969 18.023438 20.796875 17.949219 20.824219 17.949219 C 20.882812 17.949219 21.484375 18.519531 21.484375 18.578125 C 21.484375 18.652344 21.175781 18.898438 20.898438 19.046875 C 20.425781 19.300781 19.691406 19.394531 19.078125 19.277344 Z M 20.492188 16.179688 C 20.4375 15.417969 19.730469 15.015625 19.054688 15.363281 C 18.832031 15.476562 18.6875 15.628906 18.59375 15.855469 C 18.519531 16.039062 18.496094 16.285156 18.554688 16.339844 C 18.574219 16.355469 19.019531 16.367188 19.542969 16.359375 L 20.503906 16.347656 Z M 8.238281 19.21875 C 7.75 19.042969 7.503906 18.746094 7.429688 18.230469 C 7.382812 17.894531 7.367188 14.558594 7.414062 14.4375 C 7.4375 14.375 7.535156 14.363281 8.011719 14.363281 L 8.578125 14.363281 L 8.578125 16.824219 C 8.578125 19.578125 8.613281 19.355469 8.238281 19.21875 Z M 9.796875 19.179688 C 9.785156 19.144531 9.777344 18.054688 9.785156 16.753906 L 9.796875 14.386719 L 11.160156 14.371094 C 12.308594 14.363281 12.570312 14.371094 12.820312 14.4375 C 13.195312 14.535156 13.492188 14.785156 13.652344 15.136719 C 13.761719 15.386719 13.765625 15.402344 13.777344 17.316406 L 13.792969 19.238281 L 12.640625 19.238281 L 12.636719 17.527344 C 12.636719 15.6875 12.621094 15.570312 12.390625 15.398438 C 12.285156 15.316406 12.167969 15.296875 11.71875 15.28125 C 10.886719 15.246094 10.96875 15.019531 10.96875 17.304688 L 10.96875 19.238281 L 10.394531 19.238281 C 9.976562 19.238281 9.8125 19.222656 9.796875 19.179688 Z M 15.660156 19.148438 C 15.347656 19.039062 15.074219 18.78125 14.925781 18.457031 L 14.816406 18.210938 L 14.816406 13.050781 L 15.402344 13.035156 L 15.984375 13.019531 L 16.011719 14.339844 L 16.917969 14.386719 L 16.917969 15.246094 L 16.511719 15.269531 C 16.289062 15.285156 16.082031 15.3125 16.046875 15.332031 C 16.003906 15.363281 15.988281 15.6875 15.988281 16.683594 L 15.988281 17.988281 L 16.101562 18.125 C 16.207031 18.242188 16.257812 18.261719 16.566406 18.28125 L 16.917969 18.308594 L 16.917969 19.214844 L 16.417969 19.226562 C 16.03125 19.234375 15.855469 19.214844 15.660156 19.148438 Z M 23.324219 19.105469 C 22.964844 18.980469 22.796875 18.835938 22.644531 18.53125 L 22.511719 18.257812 L 22.511719 12.332031 L 23.683594 12.304688 L 23.683594 15.746094 C 23.683594 18.472656 23.667969 19.191406 23.621094 19.191406 C 23.589844 19.1875 23.457031 19.152344 23.324219 19.105469 Z M 24.636719 18.59375 L 24.636719 18 L 25.011719 17.726562 C 25.972656 17.019531 26.667969 16.050781 26.941406 15.039062 C 27.074219 14.550781 27.082031 13.617188 26.960938 13.167969 C 26.511719 11.523438 25.195312 10.363281 23.082031 9.761719 C 21.042969 9.175781 18.285156 9.136719 15.511719 9.660156 C 13.558594 10.023438 11.503906 10.679688 9.855469 11.460938 C 9.214844 11.765625 9.109375 11.773438 9.171875 11.523438 C 9.207031 11.375 9.386719 11.253906 10.230469 10.820312 C 14.28125 8.71875 19.464844 7.984375 23.324219 8.964844 C 24.683594 9.308594 25.707031 9.800781 26.589844 10.535156 C 27.308594 11.136719 28.027344 12.484375 28.191406 13.308594 C 28.222656 13.449219 28.160156 13.242188 28.191406 13.304688 C 28.277344 13.480469 28.257812 14.757812 28.167969 15.058594 C 28.125 15.1875 28.054688 15.425781 28.011719 15.582031 C 27.894531 15.980469 27.558594 16.683594 27.285156 17.097656 C 27 17.523438 26.253906 18.285156 25.832031 18.582031 C 25.496094 18.816406 24.800781 19.191406 24.699219 19.191406 C 24.652344 19.191406 24.636719 19.046875 24.636719 18.59375 Z M 7.40625 13.492188 C 7.394531 13.433594 7.386719 13.191406 7.394531 12.953125 L 7.410156 12.523438 L 8.582031 12.496094 L 8.566406 13.035156 L 8.554688 13.574219 L 7.996094 13.589844 C 7.445312 13.601562 7.433594 13.597656 7.40625 13.492188 Z M 24.925781 12.785156 C 10.738281 23.222656 17.832031 18.003906 24.925781 12.785156 Z M 24.925781 12.785156 "/>
</g>
</svg>
