
<svg xmlns="http://www.w3.org/2000/svg" xmlns:xlink="http://www.w3.org/1999/xlink" width="32px" height="32px" viewBox="0 0 32 32" version="1.1">
<g id="surface1">
<path style="fill-rule:evenodd;fill:rgb(0%,50.196081%,0%);fill-opacity:1;stroke-width:30.578964;stroke-linecap:butt;stroke-linejoin:miter;stroke:rgb(0%,38.82353%,0%);stroke-opacity:1;stroke-miterlimit:4;" d="M 78.1875 27.875 L 433.8125 27.875 C 461.5625 27.875 484.125 50.4375 484.125 78.1875 L 484.125 433.8125 C 484.125 461.5625 461.5625 484.125 433.8125 484.125 L 78.1875 484.125 C 50.4375 484.125 27.875 461.5625 27.875 433.8125 L 27.875 78.1875 C 27.875 50.4375 50.4375 27.875 78.1875 27.875 Z M 78.1875 27.875 " transform="matrix(0.0625,0,0,0.0625,0,0)"/>
<path style=" stroke:none;fill-rule:nonzero;fill:rgb(88.627452%,89.019608%,85.882354%);fill-opacity:1;" d="M 15.785156 26.746094 C 13.382812 26.464844 11.253906 25.453125 9.617188 23.816406 C 8.035156 22.234375 7.027344 20.15625 6.75 17.910156 C 6.691406 17.441406 6.691406 16.105469 6.75 15.636719 C 7.027344 13.386719 8.035156 11.308594 9.617188 9.730469 C 10.882812 8.464844 12.492188 7.542969 14.214844 7.097656 C 15.257812 6.828125 15.511719 6.796875 16.808594 6.796875 C 18.113281 6.796875 18.363281 6.828125 19.40625 7.097656 C 23.410156 8.136719 26.363281 11.511719 26.871094 15.636719 C 26.925781 16.105469 26.925781 17.441406 26.871094 17.910156 C 26.59375 20.15625 25.585938 22.234375 24.003906 23.816406 C 22.53125 25.289062 20.675781 26.246094 18.527344 26.648438 C 18.171875 26.714844 17.839844 26.734375 17.003906 26.746094 C 16.414062 26.753906 15.863281 26.753906 15.785156 26.746094 Z M 15.785156 26.746094 "/>
<path style=" stroke:none;fill-rule:nonzero;fill:rgb(0%,50.196081%,0%);fill-opacity:1;" d="M 14.753906 28.429688 C 11.394531 28.113281 8.175781 26.382812 6.082031 23.765625 C 4.902344 22.292969 4.027344 20.480469 3.628906 18.660156 C 3.40625 17.660156 3.351562 17.128906 3.351562 15.972656 C 3.351562 14.472656 3.519531 13.402344 3.980469 12.011719 C 4.238281 11.226562 4.871094 9.921875 5.332031 9.214844 C 8.59375 4.203125 15.003906 2.152344 20.585938 4.324219 C 24.511719 5.855469 27.425781 9.230469 28.320312 13.285156 C 28.394531 13.628906 28.488281 14.128906 28.527344 14.398438 C 28.617188 15.027344 28.617188 16.917969 28.527344 17.550781 C 28.203125 19.847656 27.28125 22.003906 25.867188 23.765625 C 23.230469 27.054688 18.996094 28.832031 14.753906 28.429688 Z M 13.878906 23.890625 C 15.472656 22.363281 22.488281 15.308594 22.488281 15.226562 C 22.488281 15.144531 22.433594 15.128906 22.097656 15.125 C 21.878906 15.121094 20.621094 15.101562 19.300781 15.082031 L 16.898438 15.050781 L 18.554688 12.171875 C 19.464844 10.589844 20.207031 9.257812 20.199219 9.214844 C 20.183594 9.140625 19.675781 9.128906 16.097656 9.117188 C 12.25 9.105469 12.011719 9.109375 11.964844 9.199219 C 11.933594 9.25 11.574219 11.355469 11.164062 13.875 C 10.535156 17.730469 10.425781 18.460938 10.492188 18.503906 C 10.535156 18.527344 11.507812 18.550781 12.652344 18.550781 C 14.605469 18.550781 14.730469 18.558594 14.703125 18.648438 C 14.441406 19.511719 13.21875 24.230469 13.238281 24.285156 C 13.257812 24.328125 13.292969 24.363281 13.324219 24.363281 C 13.355469 24.363281 13.605469 24.152344 13.878906 23.890625 Z M 13.878906 23.890625 "/>
</g>
</svg>
