
<svg xmlns="http://www.w3.org/2000/svg" xmlns:xlink="http://www.w3.org/1999/xlink" width="32px" height="32px" viewBox="0 0 32 32" version="1.1">
<g id="surface1">
<path style="fill-rule:nonzero;fill:rgb(12.54902%,43.921569%,56.862748%);fill-opacity:1;stroke-width:27.285545;stroke-linecap:butt;stroke-linejoin:miter;stroke:rgb(16.470589%,49.803922%,100%);stroke-opacity:1;stroke-miterlimit:4;" d="M 63.4375 20.5625 L 448.5625 20.5625 C 469.3125 20.5625 486.0625 37.375 486.0625 58.0625 L 486.0625 453.9375 C 486.0625 474.625 469.3125 491.4375 448.5625 491.4375 L 63.4375 491.4375 C 42.6875 491.4375 25.9375 474.625 25.9375 453.9375 L 25.9375 58.0625 C 25.9375 37.375 42.6875 20.5625 63.4375 20.5625 Z M 63.4375 20.5625 " transform="matrix(0.0625,0,0,0.0625,0,0)"/>
<path style=" stroke:none;fill-rule:nonzero;fill:rgb(100%,100%,100%);fill-opacity:1;" d="M 19.679688 13.238281 C 21.273438 12.160156 21.378906 10.425781 19.914062 9.367188 C 18.449219 8.304688 15.972656 8.316406 14.378906 9.394531 C 12.785156 10.472656 12.679688 12.207031 14.144531 13.269531 C 15.605469 14.328125 18.085938 14.316406 19.679688 13.238281 Z M 19.679688 13.238281 "/>
<path style=" stroke:none;fill-rule:nonzero;fill:rgb(100%,100%,100%);fill-opacity:1;" d="M 14.878906 14.28125 C 15.863281 14.832031 16.085938 15.984375 15.378906 16.859375 L 9.066406 24.652344 C 8.355469 25.527344 6.984375 25.792969 6 25.246094 C 5.015625 24.695312 4.792969 23.542969 5.503906 22.667969 L 11.816406 14.871094 C 12.527344 13.996094 13.898438 13.734375 14.878906 14.28125 Z M 14.878906 14.28125 "/>
<path style=" stroke:none;fill-rule:nonzero;fill:rgb(100%,100%,100%);fill-opacity:1;" d="M 18.886719 17.589844 C 18.824219 17.574219 18.757812 17.558594 18.691406 17.550781 C 18.300781 17.488281 17.863281 17.5 17.410156 17.585938 C 17.339844 17.519531 17.25 17.46875 17.128906 17.441406 L 16.722656 17.355469 C 16.265625 17.257812 15.613281 17.5625 15.253906 18.039062 L 10.644531 24.183594 C 10.285156 24.660156 10.367188 25.121094 10.824219 25.21875 L 11.230469 25.308594 C 11.691406 25.402344 12.339844 25.101562 12.699219 24.625 L 14.15625 22.707031 C 15.136719 23.28125 16.796875 23.042969 18.214844 22.121094 C 19.042969 21.585938 19.691406 20.871094 20.015625 20.144531 C 20.339844 19.414062 20.3125 18.726562 19.941406 18.230469 C 19.707031 17.921875 19.347656 17.699219 18.886719 17.589844 Z M 17.902344 18.6875 C 18.222656 18.738281 18.472656 18.878906 18.628906 19.082031 C 19.078125 19.679688 18.628906 20.691406 17.628906 21.34375 C 16.621094 21.996094 15.449219 22.039062 14.996094 21.441406 C 14.550781 20.847656 15 19.832031 16.003906 19.183594 C 16.621094 18.78125 17.335938 18.597656 17.902344 18.6875 Z M 17.902344 18.6875 "/>
<path style=" stroke:none;fill-rule:nonzero;fill:rgb(100%,100%,100%);fill-opacity:1;" d="M 17.332031 3.25 C 11.84375 3.417969 6.457031 6.472656 3.765625 10.949219 C 3.726562 11.019531 3.6875 11.089844 3.652344 11.160156 C 7.597656 5.953125 15.011719 3.433594 20.957031 5.285156 C 25.363281 7.488281 27.234375 12.0625 25.660156 16.785156 L 27.511719 18.011719 C 30.703125 12.128906 28.289062 5.910156 22.027344 3.882812 C 20.570312 3.414062 18.980469 3.199219 17.332031 3.25 Z M 17.332031 3.25 "/>
</g>
</svg>
