
<svg xmlns="http://www.w3.org/2000/svg" xmlns:xlink="http://www.w3.org/1999/xlink" width="32px" height="32px" viewBox="0 0 32 32" version="1.1">
<g id="surface1">
<path style="fill-rule:nonzero;fill:rgb(100%,100%,100%);fill-opacity:1;stroke-width:28.301245;stroke-linecap:butt;stroke-linejoin:miter;stroke:rgb(27.058825%,52.549022%,72.549021%);stroke-opacity:1;stroke-miterlimit:4;" d="M 82.9375 28.5625 L 433.375 28.5625 C 464.625 28.5625 489.9375 53.875 489.9375 85.125 L 489.9375 435.5625 C 489.9375 466.8125 464.625 492.125 433.375 492.125 L 82.9375 492.125 C 51.6875 492.125 26.375 466.8125 26.375 435.5625 L 26.375 85.125 C 26.375 53.875 51.6875 28.5625 82.9375 28.5625 Z M 82.9375 28.5625 " transform="matrix(0.0625,0,0,0.0625,0,0)"/>
<path style=" stroke:none;fill-rule:nonzero;fill:rgb(97.647059%,97.647059%,97.647059%);fill-opacity:1;" d="M 16.632812 11.800781 C 16.632812 12.503906 16.066406 13.070312 15.363281 13.070312 C 14.664062 13.070312 14.097656 12.503906 14.097656 11.800781 C 14.097656 11.101562 14.664062 10.535156 15.363281 10.535156 C 16.066406 10.535156 16.632812 11.101562 16.632812 11.800781 M 16.632812 11.800781 "/>
<path style=" stroke:none;fill-rule:nonzero;fill:rgb(27.058825%,52.549022%,72.549021%);fill-opacity:1;" d="M 18.988281 10.921875 C 18.234375 10.925781 17.511719 10.988281 16.875 11.101562 C 15.003906 11.429688 14.667969 12.113281 14.667969 13.371094 L 14.667969 15.039062 L 19.085938 15.039062 L 19.085938 15.597656 L 13.007812 15.597656 C 11.722656 15.597656 10.597656 16.359375 10.246094 17.808594 C 9.839844 19.472656 9.820312 20.515625 10.246094 22.25 C 10.558594 23.542969 11.308594 24.464844 12.59375 24.464844 L 13.894531 24.464844 L 13.894531 22.253906 C 13.894531 20.8125 15.15625 19.550781 16.65625 19.550781 L 21.285156 19.550781 C 22.511719 19.550781 23.675781 18.546875 23.675781 17.328125 L 23.675781 13.382812 C 23.675781 12.199219 22.484375 11.308594 21.285156 11.109375 C 20.527344 10.984375 19.738281 10.925781 18.988281 10.933594 M 16.597656 12.261719 C 17.054688 12.261719 17.425781 12.636719 17.425781 13.097656 C 17.425781 13.558594 17.054688 13.925781 16.597656 13.925781 C 16.136719 13.925781 15.765625 13.558594 15.765625 13.097656 C 15.765625 12.636719 16.136719 12.261719 16.597656 12.261719 M 16.597656 12.261719 "/>
<path style=" stroke:none;fill-rule:nonzero;fill:rgb(0%,0%,0%);fill-opacity:1;" d="M 8.035156 15.46875 L 3.722656 15.46875 L 3.722656 14.636719 L 5.117188 14.300781 L 5.117188 4.738281 L 3.722656 4.394531 L 3.722656 3.574219 L 8.035156 3.574219 L 8.035156 4.394531 L 6.636719 4.738281 L 6.636719 14.300781 L 8.035156 14.636719 Z M 8.035156 15.46875 "/>
<path style=" stroke:none;fill-rule:nonzero;fill:rgb(0%,0%,0%);fill-opacity:1;" d="M 17.558594 7.050781 C 17.558594 7.546875 17.480469 8.019531 17.328125 8.480469 C 17.183594 8.9375 16.9375 9.339844 16.589844 9.6875 C 16.25 10.035156 15.796875 10.3125 15.234375 10.519531 C 14.679688 10.730469 13.988281 10.832031 13.164062 10.832031 L 11.945312 10.832031 L 11.945312 15.46875 L 10.421875 15.46875 L 10.421875 3.574219 L 13.371094 3.574219 C 14.101562 3.574219 14.726562 3.652344 15.257812 3.800781 C 15.78125 3.957031 16.21875 4.183594 16.558594 4.480469 C 16.898438 4.769531 17.148438 5.136719 17.308594 5.574219 C 17.476562 6.003906 17.558594 6.496094 17.558594 7.050781 Z M 11.945312 9.550781 L 12.996094 9.550781 C 13.496094 9.550781 13.933594 9.511719 14.308594 9.425781 C 14.6875 9.339844 15 9.199219 15.246094 9.011719 C 15.496094 8.816406 15.683594 8.566406 15.808594 8.261719 C 15.933594 7.949219 15.996094 7.574219 15.996094 7.136719 C 15.996094 6.363281 15.773438 5.796875 15.328125 5.425781 C 14.882812 5.050781 14.1875 4.863281 13.246094 4.863281 L 11.945312 4.863281 Z M 11.945312 9.550781 "/>
<path style=" stroke:none;fill-rule:nonzero;fill:rgb(97.647059%,97.647059%,97.647059%);fill-opacity:1;" d="M 20.457031 26.015625 C 20.457031 27.035156 19.632812 27.855469 18.613281 27.855469 C 17.59375 27.855469 16.769531 27.035156 16.769531 26.015625 C 16.769531 25 17.59375 24.175781 18.613281 24.175781 C 19.632812 24.175781 20.457031 25 20.457031 26.015625 M 20.457031 26.015625 "/>
<path style=" stroke:none;fill-rule:nonzero;fill:rgb(100%,90.196079%,20.392157%);fill-opacity:1;" d="M 24.304688 15.59375 L 24.304688 17.535156 C 24.304688 19.039062 23.011719 20.128906 21.542969 20.128906 L 16.695312 20.128906 C 15.488281 20.128906 14.484375 21.332031 14.484375 22.527344 L 14.484375 26.691406 C 14.484375 27.875 15.527344 28.566406 16.695312 28.910156 C 18.09375 29.3125 19.617188 29.390625 21.289062 28.910156 C 22.402344 28.589844 23.5 27.949219 23.5 26.691406 L 23.5 25.023438 L 19.085938 25.023438 L 19.085938 24.46875 L 25.714844 24.46875 C 26.996094 24.46875 27.472656 23.578125 27.921875 22.253906 C 28.386719 20.882812 28.359375 19.566406 27.921875 17.8125 C 27.605469 16.546875 26.996094 15.597656 25.714844 15.597656 M 21.570312 26.136719 C 22.027344 26.136719 22.398438 26.503906 22.398438 26.964844 C 22.398438 27.425781 22.03125 27.800781 21.570312 27.800781 C 21.113281 27.800781 20.738281 27.425781 20.738281 26.964844 C 20.738281 26.503906 21.113281 26.136719 21.570312 26.136719 M 21.570312 26.136719 "/>
</g>
</svg>
