
<svg xmlns="http://www.w3.org/2000/svg" xmlns:xlink="http://www.w3.org/1999/xlink" width="32px" height="32px" viewBox="0 0 32 32" version="1.1">
<g id="surface1">
<path style="fill-rule:nonzero;fill:rgb(44.313726%,78.431374%,21.568628%);fill-opacity:1;stroke-width:19.465595;stroke-linecap:butt;stroke-linejoin:miter;stroke:rgb(35.686275%,62.7451%,17.254902%);stroke-opacity:1;stroke-miterlimit:4;" d="M 71.6875 22.1875 L 440.3125 22.1875 C 467.6875 22.1875 489.8125 44.3125 489.8125 71.6875 L 489.8125 440.3125 C 489.8125 467.6875 467.6875 489.8125 440.3125 489.8125 L 71.6875 489.8125 C 44.3125 489.8125 22.1875 467.6875 22.1875 440.3125 L 22.1875 71.6875 C 22.1875 44.3125 44.3125 22.1875 71.6875 22.1875 Z M 71.6875 22.1875 " transform="matrix(0.0625,0,0,0.0625,0,0)"/>
<path style=" stroke:none;fill-rule:evenodd;fill:rgb(100%,100%,100%);fill-opacity:1;" d="M 4.050781 5.550781 L 27.5 5.550781 C 27.566406 5.550781 27.613281 5.601562 27.613281 5.664062 L 27.613281 26.492188 C 27.613281 26.554688 27.566406 26.605469 27.5 26.605469 L 4.050781 26.605469 C 3.988281 26.605469 3.9375 26.554688 3.9375 26.492188 L 3.9375 5.664062 C 3.9375 5.601562 3.988281 5.550781 4.050781 5.550781 Z M 4.050781 5.550781 "/>
<path style=" stroke:none;fill-rule:nonzero;fill:rgb(61.960787%,81.960785%,20.392157%);fill-opacity:1;" d="M 4.421875 29.964844 C 3.179688 29.636719 2.179688 28.625 1.886719 27.410156 C 1.808594 27.070312 1.796875 25.648438 1.796875 16.003906 C 1.796875 3.863281 1.773438 4.636719 2.175781 3.820312 C 2.441406 3.285156 3.148438 2.589844 3.6875 2.328125 C 4.527344 1.921875 3.640625 1.949219 16.160156 1.949219 C 28.589844 1.949219 27.742188 1.925781 28.554688 2.316406 C 29.117188 2.589844 29.816406 3.277344 30.085938 3.820312 C 30.488281 4.636719 30.464844 3.863281 30.464844 16.003906 C 30.464844 28.148438 30.488281 27.375 30.085938 28.191406 C 29.816406 28.730469 29.113281 29.429688 28.578125 29.683594 C 27.722656 30.089844 28.609375 30.058594 16.089844 30.058594 C 6.355469 30.050781 4.707031 30.039062 4.421875 29.964844 Z M 18.175781 23.769531 C 21.367188 23.3125 23.976562 21.589844 25.234375 19.113281 C 25.757812 18.089844 25.972656 17.1875 25.972656 16.035156 C 25.972656 15.621094 25.941406 15.105469 25.898438 14.890625 C 25.378906 12.175781 23.339844 9.933594 20.402344 8.855469 C 19.191406 8.410156 18.058594 8.214844 16.710938 8.214844 C 12.519531 8.214844 8.914062 10.535156 7.785156 13.964844 C 7.523438 14.746094 7.449219 15.285156 7.445312 16.367188 C 7.441406 17.574219 7.519531 17.902344 8.066406 19.058594 L 8.34375 19.648438 L 8.167969 20.019531 C 7.917969 20.53125 7.578125 20.921875 6.910156 21.457031 C 6.425781 21.839844 6.339844 21.933594 6.339844 22.085938 C 6.339844 22.230469 6.386719 22.289062 6.589844 22.398438 C 7.476562 22.878906 9.777344 23 10.933594 22.625 L 11.417969 22.464844 L 11.976562 22.746094 C 13.160156 23.332031 14.25 23.648438 15.675781 23.820312 C 16.152344 23.878906 17.628906 23.847656 18.175781 23.769531 Z M 13.644531 20.144531 C 13.660156 20.085938 13.777344 19.628906 13.90625 19.136719 C 14.035156 18.636719 14.125 18.183594 14.101562 18.125 C 14.066406 18.035156 13.964844 18.019531 13.296875 18.019531 L 12.53125 18.019531 L 12.53125 16.9375 L 13.441406 16.9375 C 14.132812 16.9375 14.363281 16.917969 14.417969 16.855469 C 14.519531 16.734375 14.871094 15.339844 14.832031 15.226562 C 14.800781 15.148438 14.664062 15.132812 13.996094 15.132812 L 13.199219 15.132812 L 13.214844 14.605469 L 13.234375 14.078125 L 14.191406 14.0625 C 15.027344 14.046875 15.160156 14.035156 15.207031 13.941406 C 15.238281 13.886719 15.378906 13.386719 15.523438 12.832031 L 15.785156 11.824219 L 16.324219 11.824219 C 16.621094 11.824219 16.863281 11.835938 16.863281 11.851562 C 16.863281 11.871094 16.753906 12.335938 16.617188 12.886719 C 16.484375 13.441406 16.386719 13.929688 16.402344 13.972656 C 16.425781 14.027344 16.644531 14.050781 17.253906 14.050781 L 18.078125 14.050781 L 18.144531 13.824219 C 18.183594 13.699219 18.316406 13.207031 18.441406 12.722656 L 18.675781 11.851562 L 19.203125 11.832031 C 19.652344 11.820312 19.730469 11.832031 19.730469 11.910156 C 19.730469 11.964844 19.621094 12.445312 19.484375 12.976562 C 19.347656 13.511719 19.261719 13.96875 19.285156 13.996094 C 19.316406 14.023438 19.679688 14.050781 20.097656 14.0625 L 20.859375 14.078125 L 20.878906 14.605469 L 20.894531 15.132812 L 19.949219 15.132812 C 19.097656 15.132812 18.996094 15.144531 18.941406 15.242188 C 18.839844 15.433594 18.566406 16.589844 18.582031 16.75 L 18.601562 16.910156 L 19.414062 16.925781 L 20.222656 16.941406 L 20.1875 17.992188 L 19.222656 18.007812 C 18.378906 18.023438 18.257812 18.035156 18.222656 18.128906 C 18.199219 18.183594 18.066406 18.679688 17.929688 19.226562 L 17.683594 20.21875 L 17.121094 20.238281 C 16.613281 20.253906 16.558594 20.242188 16.558594 20.144531 C 16.558594 20.085938 16.667969 19.621094 16.804688 19.109375 C 16.941406 18.597656 17.035156 18.144531 17.019531 18.101562 C 16.996094 18.042969 16.792969 18.019531 16.191406 18.019531 C 15.257812 18.019531 15.375 17.914062 15.089844 19.042969 C 14.988281 19.457031 14.878906 19.898438 14.84375 20.023438 L 14.785156 20.25 L 14.199219 20.25 C 13.675781 20.25 13.621094 20.238281 13.644531 20.144531 Z M 17.277344 16.886719 C 17.375 16.828125 17.730469 15.519531 17.707031 15.3125 C 17.6875 15.160156 17.6875 15.160156 16.933594 15.144531 C 16.464844 15.136719 16.148438 15.152344 16.101562 15.191406 C 16.058594 15.230469 15.933594 15.613281 15.824219 16.042969 C 15.660156 16.699219 15.640625 16.839844 15.710938 16.882812 C 15.816406 16.949219 17.171875 16.953125 17.277344 16.886719 Z M 17.277344 16.886719 "/>
</g>
</svg>
