
<svg xmlns="http://www.w3.org/2000/svg" xmlns:xlink="http://www.w3.org/1999/xlink" width="32px" height="32px" viewBox="0 0 32 32" version="1.1">
<defs>
<linearGradient id="linear0" gradientUnits="userSpaceOnUse" x1="-644.891418" y1="-262.487061" x2="-560.576965" y2="-260.208282" gradientTransform="matrix(0.0145185,0.00629244,-0.00629244,0.0145185,29.765956,21.994372)">
<stop offset="0" style="stop-color:rgb(0%,0%,0%);stop-opacity:1;"/>
<stop offset="1" style="stop-color:rgb(0%,0%,0%);stop-opacity:0;"/>
</linearGradient>
<linearGradient id="linear1" gradientUnits="userSpaceOnUse" x1="-644.891418" y1="-262.487061" x2="-560.576965" y2="-260.208282" gradientTransform="matrix(0.0145185,0.00629244,-0.00629244,0.0145185,29.765956,21.994372)">
<stop offset="0" style="stop-color:rgb(0%,0%,0%);stop-opacity:1;"/>
<stop offset="1" style="stop-color:rgb(0%,0%,0%);stop-opacity:0;"/>
</linearGradient>
<linearGradient id="linear2" gradientUnits="userSpaceOnUse" x1="-644.891418" y1="-262.487061" x2="-560.576965" y2="-260.208282" gradientTransform="matrix(0.0145185,0.00629244,-0.00629244,0.0145185,29.765956,21.994372)">
<stop offset="0" style="stop-color:rgb(0%,0%,0%);stop-opacity:1;"/>
<stop offset="1" style="stop-color:rgb(0%,0%,0%);stop-opacity:0;"/>
</linearGradient>
<linearGradient id="linear3" gradientUnits="userSpaceOnUse" x1="-644.891418" y1="-262.487061" x2="-560.576965" y2="-260.208282" gradientTransform="matrix(0.0145185,0.00629244,-0.00629244,0.0145185,29.765956,21.994372)">
<stop offset="0" style="stop-color:rgb(0%,0%,0%);stop-opacity:1;"/>
<stop offset="1" style="stop-color:rgb(0%,0%,0%);stop-opacity:0;"/>
</linearGradient>
<linearGradient id="linear4" gradientUnits="userSpaceOnUse" x1="-644.891418" y1="-262.487061" x2="-560.576965" y2="-260.208282" gradientTransform="matrix(0.0108941,0.00472161,-0.00629244,0.0145185,23.313469,13.332485)">
<stop offset="0" style="stop-color:rgb(0%,0%,0%);stop-opacity:1;"/>
<stop offset="1" style="stop-color:rgb(0%,0%,0%);stop-opacity:0;"/>
</linearGradient>
<linearGradient id="linear5" gradientUnits="userSpaceOnUse" x1="-644.891418" y1="-262.487061" x2="-560.576965" y2="-260.208282" gradientTransform="matrix(0.00314199,-0.00987333,0.0056073,0.000183631,26.201591,17.502048)">
<stop offset="0" style="stop-color:rgb(0%,0%,0%);stop-opacity:1;"/>
<stop offset="1" style="stop-color:rgb(0%,0%,0%);stop-opacity:0;"/>
</linearGradient>
<linearGradient id="linear6" gradientUnits="userSpaceOnUse" x1="-644.891418" y1="-262.487061" x2="-560.576965" y2="-260.208282" gradientTransform="matrix(0.00629244,-0.0145185,-0.0145185,-0.00629244,29.765956,21.994372)">
<stop offset="0" style="stop-color:rgb(0%,0%,0%);stop-opacity:1;"/>
<stop offset="1" style="stop-color:rgb(0%,0%,0%);stop-opacity:0;"/>
</linearGradient>
</defs>
<g id="surface1">
<path style="fill-rule:evenodd;fill:rgb(16.078432%,50.196081%,72.549021%);fill-opacity:1;stroke-width:4.588;stroke-linecap:butt;stroke-linejoin:miter;stroke:rgb(41.960785%,75.686276%,100%);stroke-opacity:1;stroke-miterlimit:4;" d="M 18.71875 930.268473 L 109.28125 930.268473 C 116.359375 930.268473 122.09375 936.002848 122.09375 943.080973 L 122.09375 1033.643473 C 122.09375 1040.721598 116.359375 1046.455973 109.28125 1046.455973 L 18.71875 1046.455973 C 11.640625 1046.455973 5.90625 1040.721598 5.90625 1033.643473 L 5.90625 943.080973 C 5.90625 936.002848 11.640625 930.268473 18.71875 930.268473 Z M 18.71875 930.268473 " transform="matrix(0.25,0,0,0.25,0,-231.090556)"/>
<path style=" stroke:none;fill-rule:nonzero;fill:rgb(0%,50.196081%,86.274511%);fill-opacity:1;" d="M 16.019531 4.210938 C 9.523438 4.210938 4.253906 9.480469 4.253906 15.980469 C 4.253906 22.476562 9.523438 27.746094 16.019531 27.746094 C 22.519531 27.746094 27.789062 22.476562 27.789062 15.980469 C 27.789062 9.480469 22.519531 4.210938 16.019531 4.210938 Z M 16.019531 14.714844 C 16.71875 14.714844 17.285156 15.28125 17.285156 15.980469 C 17.285156 16.675781 16.71875 17.242188 16.019531 17.242188 C 15.324219 17.242188 14.757812 16.675781 14.757812 15.980469 C 14.757812 15.28125 15.324219 14.714844 16.019531 14.714844 Z M 16.019531 14.714844 "/>
<path style=" stroke:none;fill-rule:nonzero;fill:rgb(18.82353%,66.274512%,100%);fill-opacity:1;" d="M 16.019531 4.582031 C 9.726562 4.582031 4.621094 9.683594 4.621094 15.980469 C 4.621094 22.273438 9.726562 27.378906 16.019531 27.378906 C 22.316406 27.378906 27.417969 22.273438 27.417969 15.980469 C 27.417969 9.683594 22.316406 4.582031 16.019531 4.582031 Z M 16.019531 14.714844 C 16.71875 14.714844 17.285156 15.28125 17.285156 15.980469 C 17.285156 16.675781 16.71875 17.242188 16.019531 17.242188 C 15.324219 17.242188 14.757812 16.675781 14.757812 15.980469 C 14.757812 15.28125 15.324219 14.714844 16.019531 14.714844 Z M 16.019531 14.714844 "/>
<path style=" stroke:none;fill-rule:nonzero;fill:rgb(41.960785%,75.686276%,100%);fill-opacity:1;" d="M 16.019531 5.152344 C 10.046875 5.152344 5.199219 10.003906 5.199219 15.980469 C 5.199219 21.953125 10.046875 26.800781 16.019531 26.800781 C 21.996094 26.800781 26.847656 21.953125 26.847656 15.980469 C 26.847656 10.003906 21.996094 5.152344 16.019531 5.152344 Z M 16.019531 14.714844 C 16.71875 14.714844 17.285156 15.28125 17.285156 15.980469 C 17.285156 16.675781 16.71875 17.242188 16.019531 17.242188 C 15.324219 17.242188 14.757812 16.675781 14.757812 15.980469 C 14.757812 15.28125 15.324219 14.714844 16.019531 14.714844 Z M 16.019531 14.714844 "/>
<path style="fill-rule:nonzero;fill:rgb(82.745099%,83.529413%,84.313726%);fill-opacity:1;stroke-width:0.774153;stroke-linecap:butt;stroke-linejoin:miter;stroke:rgb(100%,100%,100%);stroke-opacity:1;stroke-miterlimit:4;" d="M 64.078125 974.393473 C 56.421875 974.393473 50.203125 980.612223 50.203125 988.284098 C 50.203125 995.940348 56.421875 1002.159098 64.078125 1002.159098 C 71.75 1002.159098 77.96875 995.940348 77.96875 988.284098 C 77.96875 980.612223 71.75 974.393473 64.078125 974.393473 Z M 64.078125 983.221598 C 66.875 983.221598 69.140625 985.487223 69.140625 988.284098 C 69.140625 991.065348 66.875 993.330973 64.078125 993.330973 C 61.296875 993.330973 59.03125 991.065348 59.03125 988.284098 C 59.03125 985.487223 61.296875 983.221598 64.078125 983.221598 Z M 64.078125 983.221598 " transform="matrix(0.25,0,0,0.25,0,-231.090556)"/>
<path style=" stroke:none;fill-rule:nonzero;fill:rgb(87.843138%,87.843138%,88.627452%);fill-opacity:1;" d="M 16.019531 13.246094 C 14.511719 13.246094 13.285156 14.46875 13.285156 15.980469 C 13.285156 17.488281 14.511719 18.714844 16.019531 18.714844 C 17.53125 18.714844 18.757812 17.488281 18.757812 15.980469 C 18.757812 14.46875 17.53125 13.246094 16.019531 13.246094 Z M 16.019531 14.714844 C 16.71875 14.714844 17.285156 15.28125 17.285156 15.980469 C 17.285156 16.675781 16.71875 17.242188 16.019531 17.242188 C 15.324219 17.242188 14.757812 16.675781 14.757812 15.980469 C 14.757812 15.28125 15.324219 14.714844 16.019531 14.714844 Z M 16.019531 14.714844 "/>
<path style=" stroke:none;fill-rule:nonzero;fill:rgb(10.196079%,10.196079%,10.196079%);fill-opacity:1;" d="M 24.761719 8.558594 L 26.378906 9.257812 L 21.707031 20.042969 L 20.085938 19.339844 Z M 24.761719 8.558594 "/>
<path style=" stroke:none;fill-rule:nonzero;fill:rgb(10.196079%,10.196079%,10.196079%);fill-opacity:1;" d="M 20.058594 19.410156 L 21.675781 20.109375 L 20.308594 22.472656 L 19.3125 22.042969 Z M 20.058594 19.410156 "/>
<path style=" stroke:none;fill-rule:nonzero;fill:rgb(10.196079%,10.196079%,10.196079%);fill-opacity:1;" d="M 19.46875 22.1875 L 20.050781 22.441406 L 19.160156 23.828125 C 19.160156 23.828125 19.410156 22.582031 19.46875 22.1875 Z M 19.46875 22.1875 "/>
<path style=" stroke:none;fill-rule:nonzero;fill:rgb(10.196079%,10.196079%,10.196079%);fill-opacity:1;" d="M 26.78125 6.957031 C 26.640625 6.652344 26.417969 6.621094 26.167969 6.691406 L 25.300781 8.691406 L 25.914062 8.957031 Z M 26.78125 6.957031 "/>
<path style=" stroke:none;fill-rule:nonzero;fill:rgb(10.196079%,10.196079%,10.196079%);fill-opacity:1;" d="M 26.875 9.488281 L 27.1875 9.625 L 25.394531 13.761719 L 25.082031 13.628906 Z M 26.875 9.488281 "/>
<path style=" stroke:none;fill-rule:nonzero;fill:rgb(10.196079%,10.196079%,10.196079%);fill-opacity:1;" d="M 25.410156 12.761719 L 25.050781 13.582031 L 24.871094 13.011719 Z M 25.410156 12.761719 "/>
<path style=" stroke:none;fill-rule:nonzero;fill:rgb(10.196079%,10.196079%,10.196079%);fill-opacity:1;" d="M 26.609375 9.863281 L 26.789062 9.449219 L 26.449219 9.304688 L 26.269531 9.714844 Z M 26.609375 9.863281 "/>
<path style=" stroke:none;fill-rule:nonzero;fill:url(#linear0);" d="M 24.761719 8.558594 L 26.378906 9.257812 L 21.707031 20.042969 L 20.085938 19.339844 Z M 24.761719 8.558594 "/>
<path style=" stroke:none;fill-rule:nonzero;fill:url(#linear1);" d="M 20.058594 19.410156 L 21.675781 20.109375 L 20.308594 22.472656 L 19.3125 22.042969 Z M 20.058594 19.410156 "/>
<path style=" stroke:none;fill-rule:nonzero;fill:url(#linear2);" d="M 19.46875 22.1875 L 20.050781 22.441406 L 19.160156 23.828125 C 19.160156 23.828125 19.410156 22.582031 19.46875 22.1875 Z M 19.46875 22.1875 "/>
<path style=" stroke:none;fill-rule:nonzero;fill:url(#linear3);" d="M 26.78125 6.957031 C 26.640625 6.652344 26.417969 6.621094 26.167969 6.691406 L 25.300781 8.691406 L 25.914062 8.957031 Z M 26.78125 6.957031 "/>
<path style=" stroke:none;fill-rule:nonzero;fill:url(#linear4);" d="M 26.875 9.488281 L 27.1875 9.625 L 25.394531 13.761719 L 25.082031 13.628906 Z M 26.875 9.488281 "/>
<path style=" stroke:none;fill-rule:nonzero;fill:url(#linear5);" d="M 25.410156 12.761719 L 25.050781 13.582031 L 24.871094 13.011719 Z M 25.410156 12.761719 "/>
<path style=" stroke:none;fill-rule:nonzero;fill:url(#linear6);" d="M 26.609375 9.863281 L 26.789062 9.449219 L 26.449219 9.304688 L 26.269531 9.714844 Z M 26.609375 9.863281 "/>
</g>
</svg>
