
<svg xmlns="http://www.w3.org/2000/svg" xmlns:xlink="http://www.w3.org/1999/xlink" width="32px" height="32px" viewBox="0 0 32 32" version="1.1">
<g id="surface1">
<path style="fill-rule:evenodd;fill:rgb(80.392158%,29.019609%,28.627452%);fill-opacity:1;stroke-width:20.4;stroke-linecap:butt;stroke-linejoin:miter;stroke:rgb(100%,54.901963%,0%);stroke-opacity:1;stroke-miterlimit:4;" d="M 80.147993 21.391599 L 446.474853 21.391599 C 476.9861 21.391599 501.676543 46.147456 501.676543 76.616203 L 501.676543 443.002885 C 501.676543 473.471631 476.9861 498.227488 446.474853 498.227488 L 80.147993 498.227488 C 49.636746 498.227488 24.946303 473.471631 24.946303 443.002885 L 24.946303 76.616203 C 24.946303 46.147456 49.636746 21.391599 80.147993 21.391599 Z M 80.147993 21.391599 " transform="matrix(0.0610687,0,0,0.0615385,0,0)"/>
<path style="fill-rule:nonzero;fill:rgb(100%,100%,100%);fill-opacity:1;stroke-width:3;stroke-linecap:round;stroke-linejoin:miter;stroke:rgb(97.647059%,97.647059%,97.647059%);stroke-opacity:1;stroke-miterlimit:4;" d="M 198.546983 452.841751 C 165.98886 434.179643 125.435127 410.883747 108.356504 401.044881 C 91.277882 391.206015 74.263224 380.351524 70.553261 376.860313 L 63.772984 370.449181 L 64.668492 148.789047 L 69.273964 144.218735 C 77.013714 136.665025 254.452287 34.848629 261.296529 34.023434 C 266.669579 33.388668 274.665189 37.641598 358.33125 86.137687 C 409.183329 115.590809 452.039797 141.489243 455.302006 144.599595 L 461.12281 150.249008 L 461.058845 250.415014 C 460.99488 305.449188 460.419197 355.659143 459.779548 362.006799 C 458.75611 372.416954 458.180426 373.940392 453.638919 377.748985 C 449.225343 381.430625 293.406898 472.329053 273.577786 482.802685 C 269.356104 485.024365 264.110984 486.801708 261.808248 486.801708 C 259.313618 486.801708 234.623175 473.598585 198.546983 452.841751 Z M 272.426418 461.664992 C 306.775558 442.304642 435.984613 367.402306 438.159419 365.561486 C 440.718014 363.403283 440.909909 356.420862 440.909909 259.492161 L 440.845944 155.707992 L 431.123282 150.185532 C 425.814197 147.07518 387.051481 124.731433 345.09052 100.419912 C 303.065595 76.108391 266.925439 55.605463 264.750633 54.780268 C 261.1686 53.383784 255.41176 56.367182 211.787713 81.694328 C 184.794534 97.30956 145.200275 120.224597 123.708075 132.666002 L 84.625534 155.263656 L 83.538132 259.047825 C 82.706588 341.694301 82.898483 363.149377 84.497605 364.609338 C 86.416551 366.386681 218.120236 442.748978 246.136853 458.364211 C 254.260393 462.871047 261.552389 466.552687 262.319967 466.552687 C 263.087546 466.552687 267.629052 464.331007 272.426418 461.664992 Z M 272.426418 461.664992 " transform="matrix(0.0610687,0,0,0.0615385,0,0)"/>
<path style="fill-rule:nonzero;fill:rgb(100%,54.901963%,0%);fill-opacity:1;stroke-width:4;stroke-linecap:butt;stroke-linejoin:miter;stroke:rgb(100%,54.901963%,0%);stroke-opacity:1;stroke-miterlimit:4;" d="M 218.056271 355.341761 L 218.056271 347.534144 L 306.903488 347.534144 L 306.903488 363.149377 L 218.056271 363.149377 Z M 218.056271 355.341761 " transform="matrix(0.0610687,0,0,0.0615385,0,0)"/>
<path style=" stroke:none;fill-rule:nonzero;fill:rgb(80.000001%,80.000001%,80.000001%);fill-opacity:1;" d="M 14.109375 20.164062 C 14.886719 20.148438 16.125 20.148438 16.871094 20.164062 C 17.613281 20.179688 16.976562 20.191406 15.457031 20.191406 C 13.941406 20.191406 13.332031 20.179688 14.109375 20.164062 Z M 14.109375 20.164062 "/>
<path style="fill-rule:nonzero;fill:rgb(100%,54.901963%,0%);fill-opacity:1;stroke-width:4;stroke-linecap:butt;stroke-linejoin:miter;stroke:rgb(100%,54.901963%,0%);stroke-opacity:1;stroke-miterlimit:4;" d="M 263.855124 129.428698 C 245.17738 129.428698 233.024053 131.96776 218.95178 139.013658 C 180.956642 157.866195 159.976162 197.412089 165.029387 241.020483 C 167.715912 264.12595 175.071873 277.58298 201.809192 308.305633 L 218.440061 327.285123 L 263.087546 327.221646 L 307.671066 327.094693 L 325.581232 306.274383 C 345.730169 282.851534 356.220409 264.760715 359.610548 247.812475 C 369.397174 198.491191 341.252628 149.868149 293.662758 133.872057 C 282.27701 130.063463 277.799468 129.428698 263.855124 129.428698 Z M 264.302879 145.551743 C 290.336584 145.805649 315.538746 159.135726 330.506528 181.225567 C 340.037295 195.253886 343.171574 205.283182 343.939153 224.770485 C 345.09052 252.70017 339.461611 265.395481 312.276538 295.991181 L 299.867351 310.0195 L 225.092408 310.0195 L 211.148064 293.769501 C 185.370218 263.74509 181.468361 254.794896 181.596291 226.801735 C 181.596291 211.313455 182.235939 206.61619 185.050394 199.379863 C 190.807233 184.907208 200.849719 171.450178 212.555292 162.690413 C 225.348268 152.9785 236.542121 148.471665 253.17299 146.186509 C 256.882953 145.678696 260.592916 145.488266 264.302879 145.551743 Z M 288.161778 383.271445 L 262.895651 383.715781 L 237.565559 384.160117 L 236.606086 400.473592 L 288.161778 400.473592 Z M 288.161778 383.271445 " transform="matrix(0.0610687,0,0,0.0615385,0,0)"/>
</g>
</svg>
