
<svg xmlns="http://www.w3.org/2000/svg" xmlns:xlink="http://www.w3.org/1999/xlink" width="32px" height="32px" viewBox="0 0 32 32" version="1.1">
<g id="surface1">
<path style="fill-rule:nonzero;fill:rgb(100%,100%,100%);fill-opacity:1;stroke-width:6.73008;stroke-linecap:butt;stroke-linejoin:miter;stroke:rgb(83.137256%,0%,0%);stroke-opacity:1;stroke-miterlimit:4;" d="M 22.328125 8.875 L 105.671875 8.875 C 113.09375 8.875 119.125 14.90625 119.125 22.328125 L 119.125 105.671875 C 119.125 113.09375 113.09375 119.125 105.671875 119.125 L 22.328125 119.125 C 14.90625 119.125 8.875 113.09375 8.875 105.671875 L 8.875 22.328125 C 8.875 14.90625 14.90625 8.875 22.328125 8.875 Z M 22.328125 8.875 " transform="matrix(0.25,0,0,0.25,0,0)"/>
<path style=" stroke:none;fill-rule:nonzero;fill:rgb(83.137256%,0%,0%);fill-opacity:1;" d="M 12.820312 21.289062 C 12.820312 21.289062 11.988281 21.792969 13.398438 21.941406 C 15.097656 22.15625 16 22.121094 17.878906 21.757812 C 17.878906 21.757812 18.382812 22.082031 19.070312 22.335938 C 14.84375 24.144531 9.496094 22.230469 12.820312 21.289062 Z M 12.277344 18.941406 C 12.277344 18.941406 11.375 19.628906 12.785156 19.769531 C 14.625 19.953125 16.070312 19.988281 18.566406 19.480469 C 18.566406 19.480469 18.890625 19.84375 19.433594 20.023438 C 14.335938 21.542969 8.628906 20.167969 12.277344 18.941406 Z M 22.25 23.058594 C 22.25 23.058594 22.863281 23.566406 21.5625 23.964844 C 19.144531 24.683594 11.410156 24.902344 9.242188 23.964844 C 8.484375 23.636719 9.929688 23.167969 10.398438 23.097656 C 10.867188 22.988281 11.121094 22.988281 11.121094 22.988281 C 10.289062 22.410156 5.59375 24.179688 8.738281 24.683594 C 17.371094 26.09375 24.492188 24.070312 22.25 23.058594 Z M 13.214844 16.484375 C 13.214844 16.484375 9.277344 17.421875 11.808594 17.746094 C 12.890625 17.894531 15.023438 17.855469 17.011719 17.710938 C 18.636719 17.566406 20.261719 17.277344 20.261719 17.277344 C 20.261719 17.277344 19.683594 17.53125 19.285156 17.785156 C 15.277344 18.832031 7.582031 18.363281 9.785156 17.277344 C 11.664062 16.375 13.214844 16.484375 13.214844 16.484375 Z M 20.261719 20.421875 C 24.308594 18.324219 22.429688 16.300781 21.128906 16.554688 C 20.804688 16.628906 20.660156 16.699219 20.660156 16.699219 C 20.660156 16.699219 20.769531 16.484375 21.019531 16.410156 C 23.585938 15.507812 25.609375 19.121094 20.191406 20.53125 C 20.191406 20.53125 20.226562 20.496094 20.261719 20.421875 Z M 13.613281 26.128906 C 17.515625 26.382812 23.480469 25.988281 23.621094 24.144531 C 23.621094 24.144531 23.332031 24.867188 20.40625 25.410156 C 17.082031 26.023438 12.964844 25.949219 10.542969 25.550781 C 10.542969 25.550781 11.050781 25.988281 13.613281 26.128906 Z M 13.613281 26.128906 "/>
<path style=" stroke:none;fill-rule:nonzero;fill:rgb(83.137256%,0%,0%);fill-opacity:1;" d="M 17.960938 4.238281 C 17.960938 4.238281 20.203125 6.515625 15.832031 9.949219 C 12.324219 12.730469 15.035156 14.320312 15.832031 16.128906 C 13.769531 14.285156 12.289062 12.660156 13.300781 11.140625 C 14.78125 8.902344 18.863281 7.816406 17.960938 4.238281 Z M 16.804688 14.609375 C 17.855469 15.800781 16.515625 16.886719 16.515625 16.886719 C 16.515625 16.886719 19.191406 15.511719 17.960938 13.816406 C 16.839844 12.191406 15.972656 11.394531 20.671875 8.683594 C 20.671875 8.683594 13.265625 10.527344 16.804688 14.609375 Z M 16.804688 14.609375 "/>
</g>
</svg>
