
<svg xmlns="http://www.w3.org/2000/svg" xmlns:xlink="http://www.w3.org/1999/xlink" width="32px" height="32px" viewBox="0 0 32 32" version="1.1">
<g id="surface1">
<path style="fill-rule:evenodd;fill:rgb(100%,100%,100%);fill-opacity:1;stroke-width:30.804852;stroke-linecap:butt;stroke-linejoin:miter;stroke:rgb(0%,40.000001%,25.882354%);stroke-opacity:1;stroke-miterlimit:4;" d="M 76.875 26.1875 L 435.125 26.1875 C 463.125 26.1875 485.8125 48.875 485.8125 76.875 L 485.8125 435.125 C 485.8125 463.125 463.125 485.8125 435.125 485.8125 L 76.875 485.8125 C 48.875 485.8125 26.1875 463.125 26.1875 435.125 L 26.1875 76.875 C 26.1875 48.875 48.875 26.1875 76.875 26.1875 Z M 76.875 26.1875 " transform="matrix(0.0625,0,0,0.0625,0,0)"/>
<path style=" stroke:none;fill-rule:nonzero;fill:rgb(0%,0%,0%);fill-opacity:0.0980392;" d="M 26.761719 11.472656 C 26.621094 11.128906 26.457031 10.789062 26.28125 10.457031 C 26.183594 10.273438 26.074219 10.085938 25.960938 9.902344 C 25.480469 9.121094 24.886719 8.378906 24.191406 7.679688 C 21.910156 5.394531 19.15625 4.253906 15.929688 4.253906 C 12.707031 4.253906 9.953125 5.394531 7.671875 7.679688 C 5.390625 9.964844 4.25 12.71875 4.25 15.949219 C 4.25 19.179688 5.390625 21.9375 7.671875 24.222656 C 9.953125 26.503906 12.707031 27.644531 15.929688 27.644531 C 19.15625 27.644531 21.910156 26.503906 24.191406 24.222656 C 25.449219 22.964844 26.355469 21.558594 26.921875 20.015625 C 27.378906 18.753906 27.613281 17.402344 27.613281 15.949219 C 27.613281 14.835938 27.476562 13.78125 27.207031 12.777344 C 27.175781 12.667969 27.144531 12.554688 27.109375 12.441406 C 27.007812 12.113281 26.890625 11.789062 26.761719 11.472656 Z M 26.761719 11.472656 "/>
<path style=" stroke:none;fill-rule:nonzero;fill:rgb(5.882353%,63.137257%,37.254903%);fill-opacity:1;" d="M 21.730469 5.703125 C 21.019531 5.300781 20.273438 4.980469 19.492188 4.746094 C 18.414062 4.417969 17.257812 4.253906 16.035156 4.253906 C 15.972656 4.253906 15.90625 4.253906 15.835938 4.253906 C 13.246094 4.292969 10.964844 5.078125 8.988281 6.613281 C 8.910156 6.667969 8.839844 6.730469 8.765625 6.785156 C 8.53125 6.976562 8.300781 7.175781 8.078125 7.386719 C 7.976562 7.480469 7.878906 7.582031 7.777344 7.679688 C 5.496094 9.964844 4.355469 12.722656 4.355469 15.949219 C 4.355469 19.183594 5.496094 21.941406 7.777344 24.222656 C 9.460938 25.910156 11.402344 26.972656 13.589844 27.410156 C 14.378906 27.570312 15.191406 27.648438 16.035156 27.648438 C 19.261719 27.648438 22.015625 26.507812 24.296875 24.222656 C 24.394531 24.121094 24.496094 24.023438 24.589844 23.921875 C 24.800781 23.699219 25 23.46875 25.191406 23.234375 C 25.246094 23.160156 25.308594 23.085938 25.363281 23.011719 C 26.039062 22.136719 26.570312 21.207031 26.953125 20.214844 C 27.375 19.125 27.621094 17.964844 27.695312 16.726562 C 27.707031 16.472656 27.714844 16.214844 27.714844 15.949219 C 27.714844 14.917969 27.601562 13.929688 27.363281 12.976562 C 27.335938 12.871094 27.304688 12.753906 27.273438 12.640625 C 27.257812 12.59375 27.246094 12.542969 27.230469 12.488281 C 27.179688 12.328125 27.121094 12.15625 27.0625 11.988281 C 26.902344 11.535156 26.714844 11.09375 26.488281 10.660156 C 26.394531 10.472656 26.292969 10.285156 26.1875 10.101562 C 25.679688 9.246094 25.050781 8.4375 24.296875 7.679688 C 23.5 6.882812 22.644531 6.222656 21.730469 5.703125 Z M 21.730469 5.703125 "/>
<path style="fill:none;stroke-width:13.471823;stroke-linecap:round;stroke-linejoin:round;stroke:rgb(0%,40.000001%,25.882354%);stroke-opacity:1;stroke-miterlimit:4;" d="M 255.6875 74.8125 C 205.75 74.8125 163.0625 92.5 127.75 127.875 C 92.4375 163.25 74.75 205.9375 74.75 256 C 74.75 306.0625 92.4375 348.75 127.75 384.125 C 163.0625 419.5625 205.75 437.1875 255.6875 437.1875 C 305.6875 437.1875 348.3125 419.5625 383.6875 384.125 C 419 348.75 436.6875 306.0625 436.6875 256 C 436.6875 205.9375 419 163.25 383.6875 127.875 C 348.3125 92.5 305.6875 74.8125 255.6875 74.8125 Z M 255.6875 74.8125 " transform="matrix(0.0625,0,0,0.0625,0,0)"/>
<path style="fill-rule:nonzero;fill:rgb(5.882353%,63.137257%,37.254903%);fill-opacity:1;stroke-width:12.909188;stroke-linecap:round;stroke-linejoin:round;stroke:rgb(0%,40.000001%,25.882354%);stroke-opacity:1;stroke-miterlimit:4;" d="M 255.6875 77.4375 C 255.4375 77.4375 255.125 77.4375 254.8125 77.4375 C 133.3125 193.0625 131.8125 312.0625 250.4375 434.5 C 252.1875 434.5625 253.9375 434.5625 255.6875 434.5625 Z M 255.6875 77.4375 " transform="matrix(0.0625,0,0,0.0625,0,0)"/>
<path style="fill-rule:nonzero;fill:rgb(5.882353%,63.137257%,37.254903%);fill-opacity:1;stroke-width:12.909188;stroke-linecap:round;stroke-linejoin:round;stroke:rgb(0%,40.000001%,25.882354%);stroke-opacity:1;stroke-miterlimit:4;" d="M 255.6875 77.4375 L 255.6875 434.5625 C 257.4375 434.5625 259.0625 434.5625 260.75 434.5 C 379.3125 312.0625 377.8125 193.0625 256.25 77.4375 C 256.0625 77.4375 255.875 77.4375 255.6875 77.4375 Z M 255.6875 77.4375 " transform="matrix(0.0625,0,0,0.0625,0,0)"/>
<path style=" stroke:none;fill-rule:nonzero;fill:rgb(100%,78.431374%,19.215687%);fill-opacity:1;" d="M 19.910156 6.246094 C 19.742188 6.441406 19.667969 6.667969 19.6875 6.917969 C 20.058594 11.734375 18.964844 15.269531 16.394531 17.519531 C 13.71875 19.753906 10.796875 20.785156 5.078125 20.433594 C 5.324219 21.050781 5.632812 21.628906 5.972656 22.179688 C 12.277344 22.074219 14.648438 21.488281 17.589844 18.917969 C 20.644531 16.363281 21.953125 12.316406 21.523438 6.777344 C 21.503906 6.523438 21.398438 6.316406 21.207031 6.148438 C 21.011719 5.980469 20.789062 5.910156 20.535156 5.929688 C 20.285156 5.949219 20.074219 6.054688 19.910156 6.25 "/>
<path style=" stroke:none;fill-rule:nonzero;fill:rgb(97.647059%,87.058824%,41.176471%);fill-opacity:1;" d="M 19.664062 4.824219 L 19.664062 16.527344 L 17.144531 14.003906 C 16.964844 13.824219 16.746094 13.730469 16.496094 13.730469 C 16.238281 13.730469 16.023438 13.824219 15.84375 14.003906 C 15.664062 14.183594 15.574219 14.402344 15.574219 14.652344 C 15.574219 14.910156 15.664062 15.125 15.84375 15.304688 L 19.933594 19.402344 C 20.113281 19.582031 20.332031 19.675781 20.582031 19.675781 C 20.601562 19.675781 20.617188 19.675781 20.632812 19.671875 C 20.867188 19.660156 21.066406 19.574219 21.234375 19.402344 L 25.328125 15.304688 C 25.507812 15.121094 25.597656 14.90625 25.597656 14.652344 C 25.597656 14.398438 25.503906 14.183594 25.324219 14.003906 C 25.144531 13.824219 24.929688 13.730469 24.675781 13.734375 C 24.421875 13.734375 24.207031 13.824219 24.027344 14.003906 L 21.503906 16.527344 L 21.503906 5.582031 C 20.914062 5.269531 20.300781 5.035156 19.664062 4.824219 Z M 19.664062 4.824219 "/>
</g>
</svg>
