<!-- color: #266597 -->
<svg xmlns="http://www.w3.org/2000/svg" xmlns:xlink="http://www.w3.org/1999/xlink" width="32px" height="32px" viewBox="0 0 32 32" version="1.1">
<defs>
<clipPath id="clip1">
  <path d="M 12.25 11.5 L 22.5625 11.5 L 22.5625 18.5 L 12.25 18.5 Z M 12.25 11.5 "/>
</clipPath>
<clipPath id="clip2">
  <path d="M 3.332031 0.664062 L 28.667969 0.664062 C 30.140625 0.664062 31.332031 1.859375 31.332031 3.332031 L 31.332031 28.664062 C 31.332031 30.136719 30.140625 31.332031 28.667969 31.332031 L 3.332031 31.332031 C 1.859375 31.332031 0.667969 30.136719 0.667969 28.664062 L 0.667969 3.332031 C 0.667969 1.859375 1.859375 0.664062 3.332031 0.664062 Z M 3.332031 0.664062 "/>
</clipPath>
<clipPath id="clip3">
  <path d="M 16.375 6.875 L 20.0625 6.875 L 20.0625 10.6875 L 16.375 10.6875 Z M 16.375 6.875 "/>
</clipPath>
<clipPath id="clip4">
  <path d="M 3.332031 0.664062 L 28.667969 0.664062 C 30.140625 0.664062 31.332031 1.859375 31.332031 3.332031 L 31.332031 28.664062 C 31.332031 30.136719 30.140625 31.332031 28.667969 31.332031 L 3.332031 31.332031 C 1.859375 31.332031 0.667969 30.136719 0.667969 28.664062 L 0.667969 3.332031 C 0.667969 1.859375 1.859375 0.664062 3.332031 0.664062 Z M 3.332031 0.664062 "/>
</clipPath>
<clipPath id="clip5">
  <path d="M 8.667969 19.125 L 11.6875 19.125 L 11.6875 25.332031 L 8.667969 25.332031 Z M 8.667969 19.125 "/>
</clipPath>
<clipPath id="clip6">
  <path d="M 3.332031 0.664062 L 28.667969 0.664062 C 30.140625 0.664062 31.332031 1.859375 31.332031 3.332031 L 31.332031 28.664062 C 31.332031 30.136719 30.140625 31.332031 28.667969 31.332031 L 3.332031 31.332031 C 1.859375 31.332031 0.667969 30.136719 0.667969 28.664062 L 0.667969 3.332031 C 0.667969 1.859375 1.859375 0.664062 3.332031 0.664062 Z M 3.332031 0.664062 "/>
</clipPath>
<clipPath id="clip7">
  <path d="M 20 11.4375 L 23.375 11.4375 L 23.375 20.667969 L 20 20.667969 Z M 20 11.4375 "/>
</clipPath>
<clipPath id="clip8">
  <path d="M 3.332031 0.664062 L 28.667969 0.664062 C 30.140625 0.664062 31.332031 1.859375 31.332031 3.332031 L 31.332031 28.664062 C 31.332031 30.136719 30.140625 31.332031 28.667969 31.332031 L 3.332031 31.332031 C 1.859375 31.332031 0.667969 30.136719 0.667969 28.664062 L 0.667969 3.332031 C 0.667969 1.859375 1.859375 0.664062 3.332031 0.664062 Z M 3.332031 0.664062 "/>
</clipPath>
<clipPath id="clip9">
  <path d="M 13.875 15.5 L 22 15.5 L 22 18.125 L 13.875 18.125 Z M 13.875 15.5 "/>
</clipPath>
<clipPath id="clip10">
  <path d="M 3.332031 0.664062 L 28.667969 0.664062 C 30.140625 0.664062 31.332031 1.859375 31.332031 3.332031 L 31.332031 28.664062 C 31.332031 30.136719 30.140625 31.332031 28.667969 31.332031 L 3.332031 31.332031 C 1.859375 31.332031 0.667969 30.136719 0.667969 28.664062 L 0.667969 3.332031 C 0.667969 1.859375 1.859375 0.664062 3.332031 0.664062 Z M 3.332031 0.664062 "/>
</clipPath>
<clipPath id="clip11">
  <path d="M 16.25 9.875 L 20 9.875 L 20 13.4375 L 16.25 13.4375 Z M 16.25 9.875 "/>
</clipPath>
<clipPath id="clip12">
  <path d="M 3.332031 0.664062 L 28.667969 0.664062 C 30.140625 0.664062 31.332031 1.859375 31.332031 3.332031 L 31.332031 28.664062 C 31.332031 30.136719 30.140625 31.332031 28.667969 31.332031 L 3.332031 31.332031 C 1.859375 31.332031 0.667969 30.136719 0.667969 28.664062 L 0.667969 3.332031 C 0.667969 1.859375 1.859375 0.664062 3.332031 0.664062 Z M 3.332031 0.664062 "/>
</clipPath>
<clipPath id="clip13">
  <path d="M 18.875 8.9375 L 20.625 8.9375 L 20.625 11.3125 L 18.875 11.3125 Z M 18.875 8.9375 "/>
</clipPath>
<clipPath id="clip14">
  <path d="M 3.332031 0.664062 L 28.667969 0.664062 C 30.140625 0.664062 31.332031 1.859375 31.332031 3.332031 L 31.332031 28.664062 C 31.332031 30.136719 30.140625 31.332031 28.667969 31.332031 L 3.332031 31.332031 C 1.859375 31.332031 0.667969 30.136719 0.667969 28.664062 L 0.667969 3.332031 C 0.667969 1.859375 1.859375 0.664062 3.332031 0.664062 Z M 3.332031 0.664062 "/>
</clipPath>
<clipPath id="clip15">
  <path d="M 19.375 5.332031 L 20.875 5.332031 L 20.875 9 L 19.375 9 Z M 19.375 5.332031 "/>
</clipPath>
<clipPath id="clip16">
  <path d="M 3.332031 0.664062 L 28.667969 0.664062 C 30.140625 0.664062 31.332031 1.859375 31.332031 3.332031 L 31.332031 28.664062 C 31.332031 30.136719 30.140625 31.332031 28.667969 31.332031 L 3.332031 31.332031 C 1.859375 31.332031 0.667969 30.136719 0.667969 28.664062 L 0.667969 3.332031 C 0.667969 1.859375 1.859375 0.664062 3.332031 0.664062 Z M 3.332031 0.664062 "/>
</clipPath>
<clipPath id="clip17">
  <path d="M 10.8125 19.3125 L 13.25 19.3125 L 13.25 21.625 L 10.8125 21.625 Z M 10.8125 19.3125 "/>
</clipPath>
<clipPath id="clip18">
  <path d="M 3.332031 0.664062 L 28.667969 0.664062 C 30.140625 0.664062 31.332031 1.859375 31.332031 3.332031 L 31.332031 28.664062 C 31.332031 30.136719 30.140625 31.332031 28.667969 31.332031 L 3.332031 31.332031 C 1.859375 31.332031 0.667969 30.136719 0.667969 28.664062 L 0.667969 3.332031 C 0.667969 1.859375 1.859375 0.664062 3.332031 0.664062 Z M 3.332031 0.664062 "/>
</clipPath>
<clipPath id="clip19">
  <path d="M 11.5625 17.625 L 20.1875 17.625 L 20.1875 23.0625 L 11.5625 23.0625 Z M 11.5625 17.625 "/>
</clipPath>
<clipPath id="clip20">
  <path d="M 3.332031 0.664062 L 28.667969 0.664062 C 30.140625 0.664062 31.332031 1.859375 31.332031 3.332031 L 31.332031 28.664062 C 31.332031 30.136719 30.140625 31.332031 28.667969 31.332031 L 3.332031 31.332031 C 1.859375 31.332031 0.667969 30.136719 0.667969 28.664062 L 0.667969 3.332031 C 0.667969 1.859375 1.859375 0.664062 3.332031 0.664062 Z M 3.332031 0.664062 "/>
</clipPath>
</defs>
<g id="surface1">
<path style="fill-rule:nonzero;fill:rgb(33.333334%,60.000002%,100%);fill-opacity:1;stroke-width:1.5;stroke-linecap:butt;stroke-linejoin:miter;stroke:rgb(0%,34.117648%,85.490197%);stroke-opacity:1;stroke-miterlimit:4;" d="M -42.996432 1.001072 L -5.003563 1.001072 C -2.792956 1.001072 -1.001072 2.792956 -1.001072 5.003563 L -1.001072 42.996432 C -1.001072 45.207038 -2.792956 46.998922 -5.003563 46.998922 L -42.996432 46.998922 C -45.207038 46.998922 -46.998922 45.207038 -46.998922 42.996432 L -46.998922 5.003563 C -46.998922 2.792956 -45.207038 1.001072 -42.996432 1.001072 Z M -42.996432 1.001072 " transform="matrix(0,-0.634371,0.634371,0,0.775105,0.775105)"/>
<g clip-path="url(#clip1)" clip-rule="nonzero">
<g clip-path="url(#clip2)" clip-rule="nonzero">
<path style=" stroke:none;fill-rule:nonzero;fill:rgb(97.647059%,97.647059%,97.647059%);fill-opacity:1;" d="M 21.292969 11.539062 C 20.863281 11.640625 20.460938 11.847656 20.105469 12.101562 C 19.527344 12.894531 18.722656 13.535156 17.652344 13.789062 C 17.246094 13.492188 16.75 13.148438 16.410156 12.757812 C 14.863281 12.933594 12.730469 13.277344 12.363281 14.769531 C 11.980469 16.320312 12.996094 18.34375 13.820312 18.460938 C 14.605469 18.570312 17.125 17.871094 18.34375 17.542969 C 17.324219 16.746094 16.148438 16.394531 15.507812 16.355469 C 14.753906 16.292969 14.101562 16.429688 13.425781 16.605469 C 14.414062 15.964844 15.308594 15.488281 16.195312 15.3125 C 16.859375 15.1875 17.890625 15.183594 19.128906 15.644531 C 20.667969 16.222656 21.035156 17.042969 22.113281 17.410156 C 22.824219 17.300781 22.464844 16.507812 22.316406 15.957031 C 22.214844 15.660156 22.136719 15.433594 22.105469 15.332031 C 22.050781 15.167969 21.28125 13.195312 21.167969 12.6875 C 21.09375 12.339844 21.160156 11.890625 21.292969 11.539062 M 21.292969 11.539062 "/>
</g>
</g>
<g clip-path="url(#clip3)" clip-rule="nonzero">
<g clip-path="url(#clip4)" clip-rule="nonzero">
<path style=" stroke:none;fill-rule:nonzero;fill:rgb(97.647059%,97.647059%,97.647059%);fill-opacity:1;" d="M 17.574219 8.4375 C 16.496094 8.890625 16.460938 9.746094 16.402344 10.675781 C 16.851562 10.269531 18.269531 9.96875 18.652344 9.636719 C 19.78125 8.660156 20.21875 6.636719 19.980469 6.933594 C 19.214844 7.90625 17.96875 8.21875 17.574219 8.4375 M 17.574219 8.4375 "/>
</g>
</g>
<g clip-path="url(#clip5)" clip-rule="nonzero">
<g clip-path="url(#clip6)" clip-rule="nonzero">
<path style=" stroke:none;fill-rule:nonzero;fill:rgb(97.647059%,97.647059%,97.647059%);fill-opacity:1;" d="M 11.652344 22.035156 C 11.652344 22.035156 10.582031 21.324219 10.605469 21.097656 C 11.304688 17.300781 8.886719 20.003906 8.707031 21.703125 C 8.511719 23.335938 9.113281 25.21875 9.203125 25.332031 C 9.347656 24 9.472656 23.261719 11.652344 22.03125 M 11.652344 22.035156 "/>
</g>
</g>
<g clip-path="url(#clip7)" clip-rule="nonzero">
<g clip-path="url(#clip8)" clip-rule="nonzero">
<path style=" stroke:none;fill-rule:nonzero;fill:rgb(97.647059%,97.647059%,97.647059%);fill-opacity:1;" d="M 23.324219 13.660156 C 23.269531 12.246094 22.382812 11.269531 21.777344 11.5 C 21.519531 11.597656 21.351562 12.253906 21.441406 12.664062 C 21.738281 14.117188 22.957031 15.796875 22.65625 17.234375 C 22.429688 17.921875 20.425781 18.347656 20.425781 18.347656 C 20.425781 18.347656 20.386719 18.9375 20.308594 19.339844 C 20.21875 19.824219 20.035156 20.210938 20.035156 20.210938 C 20.035156 20.210938 20.511719 20.636719 20.527344 20.636719 C 20.550781 20.636719 23.527344 19.089844 23.324219 13.660156 M 23.324219 13.660156 "/>
</g>
</g>
<g clip-path="url(#clip9)" clip-rule="nonzero">
<g clip-path="url(#clip10)" clip-rule="nonzero">
<path style=" stroke:none;fill-rule:nonzero;fill:rgb(97.647059%,97.647059%,97.647059%);fill-opacity:1;" d="M 22 17.554688 C 21.503906 17.355469 21.332031 17.269531 20.6875 16.789062 C 17.117188 14.121094 13.832031 16.433594 13.894531 16.410156 C 14.488281 16.222656 15.15625 16.050781 16.023438 16.105469 C 16.722656 16.152344 17.65625 16.597656 18.808594 17.550781 C 19.582031 18.230469 20.753906 18.316406 21.996094 17.554688 M 22 17.554688 "/>
</g>
</g>
<g clip-path="url(#clip11)" clip-rule="nonzero">
<g clip-path="url(#clip12)" clip-rule="nonzero">
<path style=" stroke:none;fill-rule:nonzero;fill:rgb(97.647059%,97.647059%,97.647059%);fill-opacity:1;" d="M 18.648438 9.933594 C 17.328125 10.359375 16.613281 10.722656 16.402344 10.894531 C 15.964844 12.007812 16.847656 12.847656 17.652344 13.433594 C 18.707031 13.183594 19.589844 12.402344 19.980469 11.539062 C 19.777344 11.566406 19.558594 11.527344 19.316406 11.394531 C 18.84375 11.128906 18.558594 10.488281 18.648438 9.933594 M 18.648438 9.933594 "/>
</g>
</g>
<g clip-path="url(#clip13)" clip-rule="nonzero">
<g clip-path="url(#clip14)" clip-rule="nonzero">
<path style=" stroke:none;fill-rule:nonzero;fill:rgb(97.647059%,97.647059%,97.647059%);fill-opacity:1;" d="M 20.570312 9.722656 C 20.484375 9.386719 20.207031 8.949219 20.132812 8.949219 C 20.066406 8.949219 19.332031 9.496094 19.140625 9.683594 C 18.710938 10.113281 18.917969 10.898438 19.394531 11.164062 C 20.203125 11.617188 20.800781 10.621094 20.570312 9.722656 M 20.570312 9.722656 "/>
</g>
</g>
<g clip-path="url(#clip15)" clip-rule="nonzero">
<g clip-path="url(#clip16)" clip-rule="nonzero">
<path style=" stroke:none;fill-rule:nonzero;fill:rgb(97.647059%,97.647059%,97.647059%);fill-opacity:1;" d="M 19.941406 8.578125 C 20.265625 8.269531 20.695312 7.761719 20.808594 6.988281 C 20.871094 6.292969 20.703125 5.867188 20.496094 5.335938 C 20.394531 6.371094 20.242188 7.527344 19.535156 8.75 C 19.316406 9.136719 19.433594 9.066406 19.941406 8.578125 M 19.941406 8.578125 "/>
</g>
</g>
<g clip-path="url(#clip17)" clip-rule="nonzero">
<g clip-path="url(#clip18)" clip-rule="nonzero">
<path style=" stroke:none;fill-rule:nonzero;fill:rgb(97.647059%,97.647059%,97.647059%);fill-opacity:1;" d="M 10.886719 19.3125 C 10.996094 19.59375 10.988281 20.128906 10.824219 21.042969 C 10.820312 21.050781 10.824219 21.054688 10.824219 21.0625 C 10.941406 21.226562 11.183594 21.425781 11.425781 21.605469 C 12.257812 21.214844 13.304688 20.488281 13.238281 20.480469 C 12.792969 20.402344 11.414062 20.066406 10.886719 19.3125 M 10.886719 19.3125 "/>
</g>
</g>
<g clip-path="url(#clip19)" clip-rule="nonzero">
<g clip-path="url(#clip20)" clip-rule="nonzero">
<path style=" stroke:none;fill-rule:nonzero;fill:rgb(97.647059%,97.647059%,97.647059%);fill-opacity:1;" d="M 18.503906 17.683594 C 18.464844 17.683594 18.4375 17.683594 18.355469 17.707031 C 17.320312 17.996094 14.671875 18.671875 14.257812 19.121094 C 14.097656 19.464844 13.9375 20.839844 11.613281 21.707031 C 11.546875 21.730469 13.566406 23.035156 13.675781 23.042969 C 20.261719 23.316406 20.253906 18.589844 20.167969 18.375 C 19.527344 18.386719 18.984375 18.160156 18.566406 17.75 C 18.542969 17.730469 18.527344 17.707031 18.503906 17.6875 M 18.503906 17.6875 "/>
</g>
</g>
</g>
</svg>
