
<svg xmlns="http://www.w3.org/2000/svg" xmlns:xlink="http://www.w3.org/1999/xlink" width="32px" height="32px" viewBox="0 0 32 32" version="1.1">
<g id="surface1">
<path style="fill-rule:nonzero;fill:rgb(70.19608%,70.19608%,70.19608%);fill-opacity:1;stroke-width:18.73;stroke-linecap:butt;stroke-linejoin:miter;stroke:rgb(28.627452%,28.627452%,29.803923%);stroke-opacity:1;stroke-miterlimit:4;" d="M -379.221151 159 L -24.471151 159 C 1.841349 159 23.153849 180.3125 23.153849 206.625 L 23.153849 561.375 C 23.153849 587.6875 1.841349 609 -24.471151 609 L -379.221151 609 C -405.533651 609 -426.846151 587.6875 -426.846151 561.375 L -426.846151 206.625 C -426.846151 180.3125 -405.533651 159 -379.221151 159 Z M -379.221151 159 " transform="matrix(0.0625,0,0,0.0625,28.615384,-8)"/>
<path style=" stroke:none;fill-rule:nonzero;fill:rgb(100%,100%,100%);fill-opacity:1;" d="M 21.285156 7.40625 L 22.53125 7.40625 C 23.089844 7.40625 23.539062 7.839844 23.539062 8.378906 L 23.539062 8.929688 C 23.539062 9.464844 23.089844 9.902344 22.53125 9.902344 L 21.285156 9.902344 C 20.730469 9.902344 20.277344 9.464844 20.277344 8.929688 L 20.277344 8.378906 C 20.277344 7.839844 20.730469 7.40625 21.285156 7.40625 Z M 21.285156 7.40625 "/>
<path style=" stroke:none;fill-rule:nonzero;fill:rgb(100%,100%,100%);fill-opacity:1;" d="M 21.285156 11.03125 L 22.53125 11.03125 C 23.089844 11.03125 23.539062 11.464844 23.539062 12.003906 L 23.539062 12.554688 C 23.539062 13.089844 23.089844 13.527344 22.53125 13.527344 L 21.285156 13.527344 C 20.730469 13.527344 20.277344 13.089844 20.277344 12.554688 L 20.277344 12.003906 C 20.277344 11.464844 20.730469 11.03125 21.285156 11.03125 Z M 21.285156 11.03125 "/>
<path style=" stroke:none;fill-rule:nonzero;fill:rgb(100%,100%,100%);fill-opacity:1;" d="M 21.285156 14.90625 L 22.53125 14.90625 C 23.089844 14.90625 23.539062 15.339844 23.539062 15.878906 L 23.539062 16.429688 C 23.539062 16.964844 23.089844 17.402344 22.53125 17.402344 L 21.285156 17.402344 C 20.730469 17.402344 20.277344 16.964844 20.277344 16.429688 L 20.277344 15.878906 C 20.277344 15.339844 20.730469 14.90625 21.285156 14.90625 Z M 21.285156 14.90625 "/>
<path style=" stroke:none;fill-rule:nonzero;fill:rgb(100%,100%,100%);fill-opacity:1;" d="M 21.285156 18.53125 L 22.53125 18.53125 C 23.089844 18.53125 23.539062 18.964844 23.539062 19.503906 L 23.539062 20.054688 C 23.539062 20.589844 23.089844 21.027344 22.53125 21.027344 L 21.285156 21.027344 C 20.730469 21.027344 20.277344 20.589844 20.277344 20.054688 L 20.277344 19.503906 C 20.277344 18.964844 20.730469 18.53125 21.285156 18.53125 Z M 21.285156 18.53125 "/>
<path style=" stroke:none;fill-rule:nonzero;fill:rgb(100%,100%,100%);fill-opacity:1;" d="M 21.285156 22.28125 L 22.53125 22.28125 C 23.089844 22.28125 23.539062 22.714844 23.539062 23.253906 L 23.539062 23.804688 C 23.539062 24.339844 23.089844 24.777344 22.53125 24.777344 L 21.285156 24.777344 C 20.730469 24.777344 20.277344 24.339844 20.277344 23.804688 L 20.277344 23.253906 C 20.277344 22.714844 20.730469 22.28125 21.285156 22.28125 Z M 21.285156 22.28125 "/>
<path style=" stroke:none;fill-rule:nonzero;fill:rgb(100%,100%,100%);fill-opacity:1;" d="M 9.785156 7.40625 L 11.03125 7.40625 C 11.589844 7.40625 12.039062 7.839844 12.039062 8.378906 L 12.039062 8.929688 C 12.039062 9.464844 11.589844 9.902344 11.03125 9.902344 L 9.785156 9.902344 C 9.230469 9.902344 8.777344 9.464844 8.777344 8.929688 L 8.777344 8.378906 C 8.777344 7.839844 9.230469 7.40625 9.785156 7.40625 Z M 9.785156 7.40625 "/>
<path style=" stroke:none;fill-rule:nonzero;fill:rgb(100%,100%,100%);fill-opacity:1;" d="M 9.785156 11.03125 L 11.03125 11.03125 C 11.589844 11.03125 12.039062 11.464844 12.039062 12.003906 L 12.039062 12.554688 C 12.039062 13.089844 11.589844 13.527344 11.03125 13.527344 L 9.785156 13.527344 C 9.230469 13.527344 8.777344 13.089844 8.777344 12.554688 L 8.777344 12.003906 C 8.777344 11.464844 9.230469 11.03125 9.785156 11.03125 Z M 9.785156 11.03125 "/>
<path style=" stroke:none;fill-rule:nonzero;fill:rgb(100%,100%,100%);fill-opacity:1;" d="M 9.785156 14.90625 L 11.03125 14.90625 C 11.589844 14.90625 12.039062 15.339844 12.039062 15.878906 L 12.039062 16.429688 C 12.039062 16.964844 11.589844 17.402344 11.03125 17.402344 L 9.785156 17.402344 C 9.230469 17.402344 8.777344 16.964844 8.777344 16.429688 L 8.777344 15.878906 C 8.777344 15.339844 9.230469 14.90625 9.785156 14.90625 Z M 9.785156 14.90625 "/>
<path style=" stroke:none;fill-rule:nonzero;fill:rgb(100%,100%,100%);fill-opacity:1;" d="M 9.785156 18.53125 L 11.03125 18.53125 C 11.589844 18.53125 12.039062 18.964844 12.039062 19.503906 L 12.039062 20.054688 C 12.039062 20.589844 11.589844 21.027344 11.03125 21.027344 L 9.785156 21.027344 C 9.230469 21.027344 8.777344 20.589844 8.777344 20.054688 L 8.777344 19.503906 C 8.777344 18.964844 9.230469 18.53125 9.785156 18.53125 Z M 9.785156 18.53125 "/>
<path style=" stroke:none;fill-rule:nonzero;fill:rgb(100%,100%,100%);fill-opacity:1;" d="M 9.785156 22.28125 L 11.03125 22.28125 C 11.589844 22.28125 12.039062 22.714844 12.039062 23.253906 L 12.039062 23.804688 C 12.039062 24.339844 11.589844 24.777344 11.03125 24.777344 L 9.785156 24.777344 C 9.230469 24.777344 8.777344 24.339844 8.777344 23.804688 L 8.777344 23.253906 C 8.777344 22.714844 9.230469 22.28125 9.785156 22.28125 Z M 9.785156 22.28125 "/>
<path style=" stroke:none;fill-rule:nonzero;fill:rgb(28.627452%,28.627452%,29.803923%);fill-opacity:1;" d="M 20.363281 27.238281 C 20.222656 27.316406 19.988281 27.410156 19.847656 27.441406 C 19.503906 27.527344 12.160156 27.457031 11.886719 27.367188 C 11.542969 27.253906 11.128906 26.886719 10.917969 26.5 C 10.753906 26.199219 10.734375 26.082031 10.75 25.390625 C 10.761719 24.964844 10.769531 24.160156 10.765625 23.605469 C 10.761719 23.050781 10.761719 22.238281 10.761719 21.808594 C 10.765625 21.375 10.765625 20.542969 10.765625 19.957031 C 10.765625 19.375 10.765625 18.539062 10.765625 18.101562 C 10.765625 17.664062 10.765625 16.824219 10.765625 16.234375 C 10.765625 15.644531 10.765625 14.804688 10.765625 14.367188 C 10.765625 13.929688 10.777344 13.105469 10.789062 12.535156 C 10.800781 11.964844 10.792969 11.476562 10.765625 11.449219 C 10.738281 11.425781 10.730469 11.054688 10.742188 10.628906 C 10.777344 9.601562 10.777344 7.832031 10.742188 7.160156 C 10.691406 6.214844 11.003906 5.585938 11.714844 5.195312 C 12.035156 5.019531 12.132812 5.011719 15.917969 4.976562 C 20.230469 4.9375 20.1875 4.933594 20.746094 5.492188 C 21.152344 5.894531 21.277344 6.269531 21.285156 7.054688 C 21.285156 7.40625 21.265625 7.714844 21.238281 7.738281 C 21.195312 7.785156 21.203125 8.75 21.265625 10.628906 C 21.277344 11.054688 21.269531 11.425781 21.238281 11.449219 C 21.214844 11.476562 21.203125 11.976562 21.214844 12.558594 C 21.230469 13.136719 21.242188 13.949219 21.242188 14.355469 C 21.238281 14.761719 21.238281 15.59375 21.238281 16.203125 C 21.238281 16.808594 21.238281 17.644531 21.238281 18.058594 C 21.238281 18.472656 21.238281 19.308594 21.238281 19.914062 C 21.238281 20.519531 21.238281 21.355469 21.238281 21.769531 C 21.238281 24.238281 21.242188 24.894531 21.253906 25.386719 C 21.269531 26.238281 20.949219 26.910156 20.363281 27.238281 Z M 20.363281 27.238281 "/>
<path style=" stroke:none;fill-rule:nonzero;fill:rgb(80.000001%,80.000001%,80.000001%);fill-opacity:1;" d="M 20.039062 26.007812 C 20.039062 26.433594 19.695312 26.773438 19.269531 26.773438 C 18.847656 26.773438 18.503906 26.433594 18.503906 26.007812 C 18.503906 25.582031 18.847656 25.238281 19.269531 25.238281 C 19.695312 25.238281 20.039062 25.582031 20.039062 26.007812 Z M 20.039062 26.007812 "/>
<path style=" stroke:none;fill-rule:nonzero;fill:rgb(80.000001%,80.000001%,80.000001%);fill-opacity:1;" d="M 15.582031 5.089844 L 16.441406 5.089844 L 16.441406 6.820312 L 15.582031 6.820312 Z M 15.582031 5.089844 "/>
</g>
</svg>
