
<svg xmlns="http://www.w3.org/2000/svg" xmlns:xlink="http://www.w3.org/1999/xlink" width="32px" height="32px" viewBox="0 0 32 32" version="1.1">
<defs>
<clipPath id="clip1">
  <path d="M 2.375 2.375 L 29.625 2.375 L 29.625 29.625 L 2.375 29.625 Z M 2.375 2.375 "/>
</clipPath>
<clipPath id="clip2">
  <path d="M 5.410156 2.410156 L 26.589844 2.410156 C 28.246094 2.410156 29.589844 3.753906 29.589844 5.410156 L 29.589844 26.589844 C 29.589844 28.246094 28.246094 29.589844 26.589844 29.589844 L 5.410156 29.589844 C 3.753906 29.589844 2.410156 28.246094 2.410156 26.589844 L 2.410156 5.410156 C 2.410156 3.753906 3.753906 2.410156 5.410156 2.410156 Z M 5.410156 2.410156 "/>
</clipPath>
<radialGradient id="radial0" gradientUnits="userSpaceOnUse" cx="256" cy="256" fx="256" fy="256" r="226.380005" gradientTransform="matrix(0.0948887,0,0,0.0948887,-8.057107,-8.057467)">
<stop offset="0" style="stop-color:rgb(83.137256%,33.333334%,0%);stop-opacity:0.172549;"/>
<stop offset="1" style="stop-color:rgb(90.196079%,36.078432%,0%);stop-opacity:0.501961;"/>
</radialGradient>
</defs>
<g id="surface1">
<path style=" stroke:none;fill-rule:evenodd;fill:rgb(74.901962%,39.215687%,5.490196%);fill-opacity:1;" d="M 4.328125 1.023438 L 27.671875 1.023438 C 29.496094 1.023438 30.976562 2.503906 30.976562 4.328125 L 30.976562 27.671875 C 30.976562 29.496094 29.496094 30.976562 27.671875 30.976562 L 4.328125 30.976562 C 2.503906 30.976562 1.023438 29.496094 1.023438 27.671875 L 1.023438 4.328125 C 1.023438 2.503906 2.503906 1.023438 4.328125 1.023438 Z M 4.328125 1.023438 "/>
<g clip-path="url(#clip1)" clip-rule="nonzero">
<g clip-path="url(#clip2)" clip-rule="nonzero">
<path style=" stroke:none;fill-rule:evenodd;fill:rgb(96.470588%,56.078434%,10.588235%);fill-opacity:1;" d="M 36.726562 15.953125 C 36.726562 27.425781 27.425781 36.726562 15.953125 36.726562 C 4.480469 36.726562 -4.816406 27.425781 -4.816406 15.953125 C -4.816406 4.480469 4.480469 -4.816406 15.953125 -4.816406 C 27.425781 -4.816406 36.726562 4.480469 36.726562 15.953125 "/>
<path style=" stroke:none;fill-rule:nonzero;fill:url(#radial0);" d="M 11.9375 -4.425781 C 9.324219 -3.917969 6.886719 -2.914062 4.722656 -1.519531 L 15.546875 15.546875 L -1.449219 4.613281 C -2.859375 6.769531 -3.875 9.207031 -4.402344 11.820312 L 15.324219 16.234375 L -4.3125 20.507812 C -3.738281 23.078125 -2.691406 25.46875 -1.261719 27.582031 L 15.550781 16.921875 L 4.871094 33.523438 C 6.996094 34.867188 9.386719 35.835938 11.941406 36.335938 L 16.238281 17.144531 L 20.390625 36.25 C 22.902344 35.703125 25.25 34.699219 27.332031 33.335938 L 16.925781 16.921875 L 33.265625 27.4375 C 34.648438 25.359375 35.664062 23.019531 36.226562 20.503906 L 17.148438 16.234375 L 36.363281 12.058594 C 35.878906 9.5 34.921875 7.105469 33.59375 4.976562 L 16.925781 15.546875 L 27.6875 -1.183594 C 25.582031 -2.628906 23.195312 -3.699219 20.625 -4.289062 L 16.238281 15.324219 L 11.941406 -4.425781 "/>
</g>
</g>
<path style=" stroke:none;fill-rule:nonzero;fill:rgb(100%,100%,100%);fill-opacity:1;" d="M 8.214844 26.035156 C 7.949219 26.035156 7.558594 26.003906 7.042969 25.949219 C 6.511719 25.890625 6.015625 25.785156 5.558594 25.632812 L 6.128906 22.175781 C 6.417969 22.269531 6.683594 22.335938 6.929688 22.375 C 7.160156 22.410156 7.457031 22.433594 7.816406 22.433594 C 8.484375 22.433594 8.949219 22.230469 9.21875 21.832031 C 9.484375 21.429688 9.617188 20.847656 9.617188 20.085938 L 9.617188 6.660156 L 13.878906 5.707031 L 13.878906 20.199219 C 13.878906 22.183594 13.394531 23.652344 12.417969 24.605469 C 11.449219 25.558594 10.046875 26.035156 8.21875 26.035156 "/>
</g>
</svg>
