
<svg xmlns="http://www.w3.org/2000/svg" xmlns:xlink="http://www.w3.org/1999/xlink" width="32px" height="32px" viewBox="0 0 32 32" version="1.1">
<g id="surface1">
<path style=" stroke:none;fill-rule:evenodd;fill:rgb(89.411765%,43.137255%,18.039216%);fill-opacity:1;" d="M 5.675781 0.882812 L 26.558594 0.882812 C 29.265625 0.882812 31.464844 3.082031 31.464844 5.789062 L 31.464844 26.46875 C 31.464844 29.175781 29.265625 31.371094 26.558594 31.371094 L 5.675781 31.371094 C 2.96875 31.371094 0.773438 29.175781 0.773438 26.46875 L 0.773438 5.789062 C 0.773438 3.082031 2.96875 0.882812 5.675781 0.882812 Z M 5.675781 0.882812 "/>
<path style=" stroke:none;fill-rule:evenodd;fill:rgb(97.647059%,97.647059%,97.647059%);fill-opacity:1;" d="M 6.597656 2.226562 L 25.636719 2.226562 C 28.109375 2.226562 30.113281 4.230469 30.113281 6.699219 L 30.113281 25.558594 C 30.113281 28.027344 28.109375 30.03125 25.636719 30.03125 L 6.597656 30.03125 C 4.125 30.03125 2.121094 28.027344 2.121094 25.558594 L 2.121094 6.699219 C 2.121094 4.230469 4.125 2.226562 6.597656 2.226562 Z M 6.597656 2.226562 "/>
<path style=" stroke:none;fill-rule:evenodd;fill:rgb(89.411765%,43.137255%,18.039216%);fill-opacity:1;" d="M 15.855469 22.945312 C 12.03125 22.945312 8.699219 21.570312 6.964844 19.539062 C 8.277344 23.179688 11.761719 25.785156 15.855469 25.785156 C 19.949219 25.785156 23.433594 23.179688 24.746094 19.539062 C 23.011719 21.570312 19.683594 22.945312 15.855469 22.945312 "/>
<path style=" stroke:none;fill-rule:evenodd;fill:rgb(89.411765%,43.137255%,18.039216%);fill-opacity:1;" d="M 15.855469 9.722656 C 19.683594 9.722656 23.011719 11.097656 24.746094 13.128906 C 23.433594 9.488281 19.949219 6.882812 15.855469 6.882812 C 11.761719 6.882812 8.277344 9.488281 6.964844 13.128906 C 8.699219 11.097656 12.03125 9.722656 15.855469 9.722656 "/>
<path style=" stroke:none;fill-rule:evenodd;fill:rgb(46.27451%,45.490196%,45.490196%);fill-opacity:1;" d="M 8.691406 27.847656 C 7.871094 27.882812 7.175781 27.246094 7.140625 26.425781 C 7.105469 25.605469 7.742188 24.914062 8.5625 24.878906 C 9.382812 24.84375 10.074219 25.480469 10.113281 26.300781 C 10.144531 27.121094 9.511719 27.8125 8.691406 27.847656 Z M 8.691406 27.847656 "/>
<path style=" stroke:none;fill-rule:evenodd;fill:rgb(46.27451%,45.490196%,45.490196%);fill-opacity:1;" d="M 7.550781 8.496094 C 7.035156 8.515625 6.605469 8.121094 6.582031 7.605469 C 6.558594 7.09375 6.957031 6.660156 7.46875 6.636719 C 7.980469 6.617188 8.417969 7.015625 8.4375 7.527344 C 8.457031 8.039062 8.0625 8.472656 7.550781 8.496094 Z M 7.550781 8.496094 "/>
<path style=" stroke:none;fill-rule:evenodd;fill:rgb(46.27451%,45.490196%,45.490196%);fill-opacity:1;" d="M 22.296875 7.394531 C 21.503906 7.425781 20.828125 6.808594 20.792969 6.015625 C 20.761719 5.21875 21.378906 4.546875 22.175781 4.511719 C 22.96875 4.476562 23.644531 5.097656 23.675781 5.890625 C 23.710938 6.6875 23.09375 7.359375 22.296875 7.394531 Z M 22.296875 7.394531 "/>
</g>
</svg>
