
<svg xmlns="http://www.w3.org/2000/svg" xmlns:xlink="http://www.w3.org/1999/xlink" width="32px" height="32px" viewBox="0 0 32 32" version="1.1">
<g id="surface1">
<path style="fill-rule:evenodd;fill:rgb(100%,100%,100%);fill-opacity:1;stroke-width:7.620724;stroke-linecap:butt;stroke-linejoin:miter;stroke:rgb(16.078432%,50.196081%,72.549021%);stroke-opacity:1;stroke-miterlimit:4;" d="M 19.6875 7.140625 L 108.3125 7.140625 C 115.234375 7.140625 120.859375 12.765625 120.859375 19.6875 L 120.859375 108.3125 C 120.859375 115.234375 115.234375 120.859375 108.3125 120.859375 L 19.6875 120.859375 C 12.765625 120.859375 7.140625 115.234375 7.140625 108.3125 L 7.140625 19.6875 C 7.140625 12.765625 12.765625 7.140625 19.6875 7.140625 Z M 19.6875 7.140625 " transform="matrix(0.25,0,0,0.25,0,0)"/>
<path style=" stroke:none;fill-rule:nonzero;fill:rgb(17.254902%,24.313726%,31.37255%);fill-opacity:1;" d="M 21.042969 6.988281 L 7.617188 14.742188 L 8.304688 15.933594 L 7.605469 17.148438 L 21.042969 24.90625 L 21.742188 23.691406 L 23.121094 23.691406 L 23.121094 8.191406 L 21.734375 8.191406 Z M 21.332031 8.890625 L 21.328125 23.003906 L 9.105469 15.949219 Z M 21.332031 8.890625 "/>
<path style=" stroke:none;fill-rule:nonzero;fill:rgb(16.078432%,50.196081%,72.549021%);fill-opacity:1;" d="M 22.523438 4.011719 C 25.160156 4.011719 27.296875 6.152344 27.296875 8.785156 C 27.296875 11.425781 25.160156 13.558594 22.523438 13.558594 C 19.886719 13.558594 17.75 11.425781 17.75 8.785156 C 17.75 6.152344 19.886719 4.011719 22.523438 4.011719 Z M 22.523438 4.011719 "/>
<path style=" stroke:none;fill-rule:nonzero;fill:rgb(90.588236%,29.803923%,23.529412%);fill-opacity:1;" d="M 22.523438 18.335938 C 25.160156 18.335938 27.296875 20.472656 27.296875 23.109375 C 27.296875 25.746094 25.160156 27.882812 22.523438 27.882812 C 19.886719 27.882812 17.75 25.746094 17.75 23.109375 C 17.75 20.472656 19.886719 18.335938 22.523438 18.335938 Z M 22.523438 18.335938 "/>
<path style=" stroke:none;fill-rule:nonzero;fill:rgb(60.784316%,34.901962%,71.372551%);fill-opacity:1;" d="M 8.199219 11.175781 C 10.839844 11.175781 12.976562 13.3125 12.976562 15.949219 C 12.976562 18.585938 10.839844 20.722656 8.199219 20.722656 C 5.566406 20.722656 3.425781 18.585938 3.425781 15.949219 C 3.425781 13.3125 5.566406 11.175781 8.199219 11.175781 Z M 8.199219 11.175781 "/>
</g>
</svg>
