
<svg xmlns="http://www.w3.org/2000/svg" xmlns:xlink="http://www.w3.org/1999/xlink" width="32px" height="32px" viewBox="0 0 32 32" version="1.1">
<g id="surface1">
<path style="fill-rule:nonzero;fill:rgb(100%,100%,100%);fill-opacity:1;stroke-width:4.278389;stroke-linecap:butt;stroke-linejoin:miter;stroke:rgb(0%,50.196081%,50.196081%);stroke-opacity:1;stroke-miterlimit:4;" d="M 64.515619 330.182295 L 117.488481 330.182295 C 122.216814 330.182295 126.0422 334.007681 126.0422 338.736014 L 126.0422 391.708875 C 126.0422 396.437208 122.216814 400.262595 117.488481 400.262595 L 64.515619 400.262595 C 59.787286 400.262595 55.9619 396.437208 55.9619 391.708875 L 55.9619 338.736014 C 55.9619 334.007681 59.787286 330.182295 64.515619 330.182295 Z M 64.515619 330.182295 " transform="matrix(0.402329,0,0,0.402329,-20.612732,-130.939453)"/>
<path style=" stroke:none;fill-rule:nonzero;fill:rgb(20%,20%,20%);fill-opacity:1;" d="M 16 3.882812 C 12.292969 3.882812 9.261719 7.058594 8.910156 11.152344 L 23.089844 11.152344 C 22.738281 7.058594 19.707031 3.882812 16 3.882812 Z M 5.308594 12.285156 C 4.519531 12.285156 3.882812 13.003906 3.882812 13.902344 C 3.882812 14.792969 4.519531 15.515625 5.308594 15.515625 L 26.691406 15.515625 C 27.480469 15.515625 28.117188 14.792969 28.117188 13.902344 C 28.117188 13.003906 27.480469 12.285156 26.691406 12.285156 Z M 6.023438 18.421875 C 5.230469 18.421875 4.597656 19.144531 4.597656 20.039062 C 4.597656 20.933594 5.230469 21.652344 6.023438 21.652344 L 12.359375 21.652344 L 7.09375 25.097656 C 6.410156 25.546875 6.175781 26.53125 6.570312 27.308594 C 6.964844 28.082031 7.832031 28.347656 8.519531 27.898438 L 14.929688 23.699219 L 14.929688 18.421875 Z M 17.070312 18.421875 L 17.070312 23.699219 L 23.480469 27.898438 C 24.167969 28.347656 25.035156 28.082031 25.429688 27.308594 C 25.824219 26.53125 25.589844 25.546875 24.90625 25.097656 L 19.640625 21.652344 L 25.976562 21.652344 C 26.769531 21.652344 27.402344 20.933594 27.402344 20.039062 C 27.402344 19.144531 26.769531 18.421875 25.976562 18.421875 Z M 17.070312 18.421875 "/>
<path style=" stroke:none;fill-rule:nonzero;fill:rgb(0%,50.196081%,50.196081%);fill-opacity:1;" d="M 7.449219 12.285156 L 7.449219 19.554688 L 7.453125 19.554688 C 7.449219 19.582031 7.449219 19.605469 7.449219 19.636719 C 7.449219 24.332031 10.527344 28.117188 14.355469 28.117188 L 14.929688 28.117188 L 14.929688 16.808594 L 17.070312 16.808594 L 17.070312 28.117188 L 17.644531 28.117188 C 21.472656 28.117188 24.550781 24.332031 24.550781 19.636719 C 24.550781 19.605469 24.546875 19.582031 24.546875 19.554688 L 24.550781 19.554688 L 24.550781 12.285156 Z M 7.449219 12.285156 "/>
</g>
</svg>
