
<svg xmlns="http://www.w3.org/2000/svg" xmlns:xlink="http://www.w3.org/1999/xlink" width="32px" height="32px" viewBox="0 0 32 32" version="1.1">
<defs>
<clipPath id="clip1">
  <path d="M 2 2 L 30 2 L 30 30 L 2 30 Z M 2 2 "/>
</clipPath>
<clipPath id="clip2">
  <path d="M 5.113281 2.027344 L 26.886719 2.027344 C 28.589844 2.027344 29.972656 3.410156 29.972656 5.113281 L 29.972656 26.886719 C 29.972656 28.589844 28.589844 29.972656 26.886719 29.972656 L 5.113281 29.972656 C 3.410156 29.972656 2.027344 28.589844 2.027344 26.886719 L 2.027344 5.113281 C 2.027344 3.410156 3.410156 2.027344 5.113281 2.027344 Z M 5.113281 2.027344 "/>
</clipPath>
<clipPath id="clip3">
  <path d="M 7.6875 3.1875 L 24.3125 3.1875 L 24.3125 14.875 L 7.6875 14.875 Z M 7.6875 3.1875 "/>
</clipPath>
<clipPath id="clip4">
  <path d="M 5.113281 2.027344 L 26.886719 2.027344 C 28.589844 2.027344 29.972656 3.410156 29.972656 5.113281 L 29.972656 26.886719 C 29.972656 28.589844 28.589844 29.972656 26.886719 29.972656 L 5.113281 29.972656 C 3.410156 29.972656 2.027344 28.589844 2.027344 26.886719 L 2.027344 5.113281 C 2.027344 3.410156 3.410156 2.027344 5.113281 2.027344 Z M 5.113281 2.027344 "/>
</clipPath>
<clipPath id="clip5">
  <path d="M 7.6875 17.125 L 24.3125 17.125 L 24.3125 28.8125 L 7.6875 28.8125 Z M 7.6875 17.125 "/>
</clipPath>
<clipPath id="clip6">
  <path d="M 5.113281 2.027344 L 26.886719 2.027344 C 28.589844 2.027344 29.972656 3.410156 29.972656 5.113281 L 29.972656 26.886719 C 29.972656 28.589844 28.589844 29.972656 26.886719 29.972656 L 5.113281 29.972656 C 3.410156 29.972656 2.027344 28.589844 2.027344 26.886719 L 2.027344 5.113281 C 2.027344 3.410156 3.410156 2.027344 5.113281 2.027344 Z M 5.113281 2.027344 "/>
</clipPath>
</defs>
<g id="surface1">
<path style="fill-rule:evenodd;fill:rgb(16.078432%,50.196081%,72.549021%);fill-opacity:1;stroke-width:2.931121;stroke-linecap:butt;stroke-linejoin:miter;stroke:rgb(32.156864%,32.156864%,32.156864%);stroke-opacity:1;stroke-miterlimit:4;" d="M 6.955078 2.132812 L 41.044922 2.132812 C 43.705078 2.132812 45.867188 4.294922 45.867188 6.955078 L 45.867188 41.044922 C 45.867188 43.705078 43.705078 45.867188 41.044922 45.867188 L 6.955078 45.867188 C 4.294922 45.867188 2.132812 43.705078 2.132812 41.044922 L 2.132812 6.955078 C 2.132812 4.294922 4.294922 2.132812 6.955078 2.132812 Z M 6.955078 2.132812 " transform="matrix(0.666667,0,0,0.666667,0,0)"/>
<g clip-path="url(#clip1)" clip-rule="nonzero">
<g clip-path="url(#clip2)" clip-rule="nonzero">
<path style=" stroke:none;fill-rule:nonzero;fill:rgb(17.254902%,24.313726%,31.37255%);fill-opacity:1;" d="M 0.941406 0.941406 L 0.941406 31.058594 L 31.058594 31.058594 L 31.058594 0.941406 Z M 3.199219 3.199219 L 5.457031 3.199219 L 5.457031 5.457031 L 3.199219 5.457031 Z M 26.542969 3.199219 L 28.800781 3.199219 L 28.800781 5.457031 L 26.542969 5.457031 Z M 3.199219 8.847656 L 5.457031 8.847656 L 5.457031 11.105469 L 3.199219 11.105469 Z M 26.542969 8.847656 L 28.800781 8.847656 L 28.800781 11.105469 L 26.542969 11.105469 Z M 3.199219 14.871094 L 5.457031 14.871094 L 5.457031 17.128906 L 3.199219 17.128906 Z M 26.542969 14.871094 L 28.800781 14.871094 L 28.800781 17.128906 L 26.542969 17.128906 Z M 3.199219 20.894531 L 5.457031 20.894531 L 5.457031 23.152344 L 3.199219 23.152344 Z M 26.542969 20.894531 L 28.800781 20.894531 L 28.800781 23.152344 L 26.542969 23.152344 Z M 3.199219 26.542969 L 5.457031 26.542969 L 5.457031 28.800781 L 3.199219 28.800781 Z M 26.542969 26.542969 L 28.800781 26.542969 L 28.800781 28.800781 L 26.542969 28.800781 Z M 26.542969 26.542969 "/>
</g>
</g>
<g clip-path="url(#clip3)" clip-rule="nonzero">
<g clip-path="url(#clip4)" clip-rule="nonzero">
<path style=" stroke:none;fill-rule:nonzero;fill:rgb(100%,28.627452%,27.450982%);fill-opacity:1;" d="M 7.71875 3.199219 L 24.28125 3.199219 L 24.28125 14.871094 L 7.71875 14.871094 Z M 7.71875 3.199219 "/>
</g>
</g>
<g clip-path="url(#clip5)" clip-rule="nonzero">
<g clip-path="url(#clip6)" clip-rule="nonzero">
<path style=" stroke:none;fill-rule:nonzero;fill:rgb(32.156864%,74.509805%,91.764706%);fill-opacity:1;" d="M 7.71875 17.128906 L 24.28125 17.128906 L 24.28125 28.800781 L 7.71875 28.800781 Z M 7.71875 17.128906 "/>
</g>
</g>
</g>
</svg>
