
<svg xmlns="http://www.w3.org/2000/svg" xmlns:xlink="http://www.w3.org/1999/xlink" width="32px" height="32px" viewBox="0 0 32 32" version="1.1">
<g id="surface1">
<path style="fill-rule:nonzero;fill:rgb(18.039216%,80.000001%,44.313726%);fill-opacity:1;stroke-width:2.553682;stroke-linecap:butt;stroke-linejoin:miter;stroke:rgb(10.980392%,59.607846%,31.37255%);stroke-opacity:1;stroke-miterlimit:4;" d="M 8.191406 3.087891 L 39.808594 3.087891 C 42.626953 3.087891 44.912109 5.373047 44.912109 8.191406 L 44.912109 39.808594 C 44.912109 42.626953 42.626953 44.912109 39.808594 44.912109 L 8.191406 44.912109 C 5.373047 44.912109 3.087891 42.626953 3.087891 39.808594 L 3.087891 8.191406 C 3.087891 5.373047 5.373047 3.087891 8.191406 3.087891 Z M 8.191406 3.087891 " transform="matrix(0.666667,0,0,0.666667,0,0)"/>
<path style=" stroke:none;fill-rule:evenodd;fill:rgb(92.54902%,94.117647%,94.509804%);fill-opacity:1;" d="M 4.605469 3.40625 L 4.605469 4.605469 L 3.40625 4.605469 L 3.40625 4.730469 L 4.605469 4.730469 L 4.605469 8.382812 L 3.40625 8.382812 L 3.40625 8.507812 L 4.605469 8.507812 L 4.605469 12.160156 L 3.40625 12.160156 L 3.40625 12.285156 L 4.605469 12.285156 L 4.605469 15.9375 L 3.40625 15.9375 L 3.40625 16.0625 L 4.605469 16.0625 L 4.605469 19.714844 L 3.40625 19.714844 L 3.40625 19.839844 L 4.605469 19.839844 L 4.605469 23.492188 L 3.40625 23.492188 L 3.40625 23.617188 L 4.605469 23.617188 L 4.605469 27.269531 L 3.40625 27.269531 L 3.40625 27.394531 L 4.605469 27.394531 L 4.605469 28.59375 L 4.730469 28.59375 L 4.730469 27.394531 L 8.382812 27.394531 L 8.382812 28.59375 L 8.507812 28.59375 L 8.507812 27.394531 L 12.160156 27.394531 L 12.160156 28.59375 L 12.285156 28.59375 L 12.285156 27.394531 L 15.9375 27.394531 L 15.9375 28.59375 L 16.0625 28.59375 L 16.0625 27.394531 L 19.714844 27.394531 L 19.714844 28.59375 L 19.839844 28.59375 L 19.839844 27.394531 L 23.492188 27.394531 L 23.492188 28.59375 L 23.617188 28.59375 L 23.617188 27.394531 L 27.269531 27.394531 L 27.269531 28.59375 L 27.394531 28.59375 L 27.394531 27.394531 L 28.59375 27.394531 L 28.59375 27.269531 L 27.394531 27.269531 L 27.394531 23.617188 L 28.59375 23.617188 L 28.59375 23.492188 L 27.394531 23.492188 L 27.394531 19.839844 L 28.59375 19.839844 L 28.59375 19.714844 L 27.394531 19.714844 L 27.394531 16.0625 L 28.59375 16.0625 L 28.59375 15.9375 L 27.394531 15.9375 L 27.394531 12.285156 L 28.59375 12.285156 L 28.59375 12.160156 L 27.394531 12.160156 L 27.394531 8.507812 L 28.59375 8.507812 L 28.59375 8.382812 L 27.394531 8.382812 L 27.394531 4.730469 L 28.59375 4.730469 L 28.59375 4.605469 L 27.394531 4.605469 L 27.394531 3.40625 L 27.269531 3.40625 L 27.269531 4.605469 L 23.617188 4.605469 L 23.617188 3.40625 L 23.492188 3.40625 L 23.492188 4.605469 L 19.839844 4.605469 L 19.839844 3.40625 L 19.714844 3.40625 L 19.714844 4.605469 L 16.0625 4.605469 L 16.0625 3.40625 L 15.9375 3.40625 L 15.9375 4.605469 L 12.285156 4.605469 L 12.285156 3.40625 L 12.160156 3.40625 L 12.160156 4.605469 L 8.507812 4.605469 L 8.507812 3.40625 L 8.382812 3.40625 L 8.382812 4.605469 L 4.730469 4.605469 L 4.730469 3.40625 Z M 4.730469 4.730469 L 8.382812 4.730469 L 8.382812 8.382812 L 4.730469 8.382812 Z M 8.507812 4.730469 L 12.160156 4.730469 L 12.160156 8.382812 L 8.507812 8.382812 Z M 12.285156 4.730469 L 15.9375 4.730469 L 15.9375 8.382812 L 12.285156 8.382812 Z M 16.0625 4.730469 L 19.714844 4.730469 L 19.714844 8.382812 L 16.0625 8.382812 Z M 19.839844 4.730469 L 23.492188 4.730469 L 23.492188 8.382812 L 19.839844 8.382812 Z M 23.617188 4.730469 L 27.269531 4.730469 L 27.269531 8.382812 L 23.617188 8.382812 Z M 4.730469 8.507812 L 8.382812 8.507812 L 8.382812 12.160156 L 4.730469 12.160156 Z M 8.507812 8.507812 L 12.160156 8.507812 L 12.160156 12.160156 L 8.507812 12.160156 Z M 12.285156 8.507812 L 15.9375 8.507812 L 15.9375 12.160156 L 12.285156 12.160156 Z M 16.0625 8.507812 L 19.714844 8.507812 L 19.714844 12.160156 L 16.0625 12.160156 Z M 19.839844 8.507812 L 23.492188 8.507812 L 23.492188 12.160156 L 19.839844 12.160156 Z M 23.617188 8.507812 L 27.269531 8.507812 L 27.269531 12.160156 L 23.617188 12.160156 Z M 4.730469 12.285156 L 8.382812 12.285156 L 8.382812 15.9375 L 4.730469 15.9375 Z M 8.507812 12.285156 L 12.160156 12.285156 L 12.160156 15.9375 L 8.507812 15.9375 Z M 12.285156 12.285156 L 15.9375 12.285156 L 15.9375 15.9375 L 12.285156 15.9375 Z M 16.0625 12.285156 L 19.714844 12.285156 L 19.714844 15.9375 L 16.0625 15.9375 Z M 19.839844 12.285156 L 23.492188 12.285156 L 23.492188 15.9375 L 19.839844 15.9375 Z M 23.617188 12.285156 L 27.269531 12.285156 L 27.269531 15.9375 L 23.617188 15.9375 Z M 4.730469 16.0625 L 8.382812 16.0625 L 8.382812 19.714844 L 4.730469 19.714844 Z M 8.507812 16.0625 L 12.160156 16.0625 L 12.160156 19.714844 L 8.507812 19.714844 Z M 12.285156 16.0625 L 15.9375 16.0625 L 15.9375 19.714844 L 12.285156 19.714844 Z M 16.0625 16.0625 L 19.714844 16.0625 L 19.714844 19.714844 L 16.0625 19.714844 Z M 19.839844 16.0625 L 23.492188 16.0625 L 23.492188 19.714844 L 19.839844 19.714844 Z M 23.617188 16.0625 L 27.269531 16.0625 L 27.269531 19.714844 L 23.617188 19.714844 Z M 4.730469 19.839844 L 8.382812 19.839844 L 8.382812 23.492188 L 4.730469 23.492188 Z M 8.507812 19.839844 L 12.160156 19.839844 L 12.160156 23.492188 L 8.507812 23.492188 Z M 12.285156 19.839844 L 15.9375 19.839844 L 15.9375 23.492188 L 12.285156 23.492188 Z M 16.0625 19.839844 L 19.714844 19.839844 L 19.714844 23.492188 L 16.0625 23.492188 Z M 19.839844 19.839844 L 23.492188 19.839844 L 23.492188 23.492188 L 19.839844 23.492188 Z M 23.617188 19.839844 L 27.269531 19.839844 L 27.269531 23.492188 L 23.617188 23.492188 Z M 4.730469 23.617188 L 8.382812 23.617188 L 8.382812 27.269531 L 4.730469 27.269531 Z M 8.507812 23.617188 L 12.160156 23.617188 L 12.160156 27.269531 L 8.507812 27.269531 Z M 12.285156 23.617188 L 15.9375 23.617188 L 15.9375 27.269531 L 12.285156 27.269531 Z M 16.0625 23.617188 L 19.714844 23.617188 L 19.714844 27.269531 L 16.0625 27.269531 Z M 19.839844 23.617188 L 23.492188 23.617188 L 23.492188 27.269531 L 19.839844 27.269531 Z M 23.617188 23.617188 L 27.269531 23.617188 L 27.269531 27.269531 L 23.617188 27.269531 Z M 23.617188 23.617188 "/>
<path style=" stroke:none;fill-rule:evenodd;fill:rgb(92.54902%,94.117647%,94.509804%);fill-opacity:1;" d="M 9.464844 19.207031 C 9.234375 19.207031 9 19.234375 8.769531 19.277344 L 8.402344 20.167969 L 8.402344 20.183594 C 8.269531 20.234375 8.140625 20.292969 8.015625 20.363281 C 7.894531 20.433594 7.777344 20.519531 7.667969 20.605469 L 7.65625 20.601562 L 6.699219 20.472656 C 6.394531 20.824219 6.152344 21.234375 6 21.675781 L 6.589844 22.441406 L 6.601562 22.449219 C 6.558594 22.730469 6.5625 23.019531 6.605469 23.300781 L 6.59375 23.308594 L 6 24.078125 C 6.074219 24.300781 6.171875 24.511719 6.285156 24.714844 C 6.402344 24.914062 6.542969 25.105469 6.691406 25.277344 L 7.65625 25.152344 L 7.667969 25.144531 C 7.890625 25.320312 8.140625 25.464844 8.402344 25.570312 L 8.402344 25.582031 L 8.773438 26.480469 C 9.230469 26.566406 9.707031 26.5625 10.160156 26.472656 L 10.53125 25.582031 L 10.53125 25.566406 C 10.660156 25.519531 10.792969 25.457031 10.917969 25.386719 C 11.039062 25.316406 11.15625 25.230469 11.269531 25.144531 L 11.277344 25.148438 L 12.234375 25.277344 C 12.539062 24.925781 12.777344 24.515625 12.933594 24.074219 L 12.339844 23.308594 L 12.332031 23.300781 C 12.371094 23.019531 12.371094 22.730469 12.332031 22.449219 L 12.339844 22.441406 L 12.933594 21.675781 C 12.859375 21.453125 12.761719 21.238281 12.648438 21.039062 C 12.53125 20.835938 12.394531 20.648438 12.238281 20.472656 L 11.277344 20.601562 L 11.269531 20.609375 C 11.042969 20.429688 10.792969 20.285156 10.53125 20.179688 L 10.527344 20.167969 L 10.160156 19.273438 C 9.933594 19.230469 9.699219 19.207031 9.464844 19.207031 Z M 9.464844 20.746094 C 10.023438 20.746094 10.574219 20.976562 10.96875 21.371094 C 11.363281 21.765625 11.59375 22.316406 11.59375 22.875 C 11.59375 23.433594 11.363281 23.984375 10.96875 24.378906 C 10.574219 24.769531 10.023438 25 9.464844 25 C 8.910156 25 8.355469 24.769531 7.964844 24.378906 C 7.570312 23.984375 7.339844 23.429688 7.339844 22.875 C 7.339844 22.316406 7.570312 21.765625 7.964844 21.371094 C 8.355469 20.976562 8.910156 20.746094 9.464844 20.746094 Z M 9.464844 20.746094 "/>
<path style=" stroke:none;fill-rule:evenodd;fill:rgb(92.54902%,94.117647%,94.509804%);fill-opacity:1;" d="M 20.324219 6.542969 C 19.941406 6.542969 19.5625 6.582031 19.1875 6.652344 L 18.585938 8.113281 L 18.585938 8.136719 C 18.367188 8.222656 18.152344 8.316406 17.949219 8.433594 C 17.75 8.550781 17.558594 8.6875 17.378906 8.832031 L 17.359375 8.820312 L 15.792969 8.613281 C 15.292969 9.1875 14.902344 9.855469 14.652344 10.574219 L 15.621094 11.832031 L 15.636719 11.84375 C 15.570312 12.304688 15.570312 12.777344 15.640625 13.238281 L 15.621094 13.25 L 14.652344 14.511719 C 14.773438 14.871094 14.929688 15.21875 15.121094 15.546875 C 15.308594 15.878906 15.535156 16.1875 15.785156 16.472656 L 17.359375 16.261719 L 17.378906 16.253906 C 17.746094 16.542969 18.152344 16.777344 18.585938 16.953125 L 18.585938 16.972656 L 19.191406 18.4375 C 19.941406 18.582031 20.714844 18.574219 21.464844 18.433594 L 22.066406 16.972656 L 22.066406 16.949219 C 22.285156 16.863281 22.496094 16.769531 22.699219 16.652344 C 22.902344 16.535156 23.089844 16.398438 23.273438 16.253906 L 23.292969 16.265625 L 24.855469 16.472656 C 25.355469 15.894531 25.746094 15.226562 26 14.507812 L 25.03125 13.25 L 25.015625 13.242188 C 25.082031 12.78125 25.082031 12.308594 25.011719 11.847656 L 25.03125 11.835938 L 26 10.578125 C 25.878906 10.214844 25.722656 9.867188 25.53125 9.535156 C 25.339844 9.207031 25.117188 8.898438 24.863281 8.613281 L 23.292969 8.820312 L 23.273438 8.832031 C 22.90625 8.542969 22.5 8.304688 22.066406 8.132812 L 22.066406 8.113281 L 21.460938 6.648438 C 21.085938 6.578125 20.707031 6.542969 20.324219 6.542969 Z M 20.324219 9.0625 C 21.234375 9.0625 22.140625 9.4375 22.785156 10.082031 C 23.429688 10.722656 23.804688 11.628906 23.804688 12.542969 C 23.804688 13.453125 23.429688 14.359375 22.785156 15.003906 C 22.140625 15.644531 21.234375 16.019531 20.324219 16.019531 C 19.414062 16.019531 18.507812 15.644531 17.863281 15.003906 C 17.222656 14.355469 16.847656 13.453125 16.847656 12.542969 C 16.847656 11.628906 17.222656 10.722656 17.863281 10.082031 C 18.507812 9.4375 19.414062 9.0625 20.324219 9.0625 Z M 20.324219 9.0625 "/>
<path style=" stroke:none;fill-rule:nonzero;fill:rgb(92.54902%,94.117647%,94.509804%);fill-opacity:1;" d="M 23 20.355469 L 21.878906 20.464844 L 21.878906 25.023438 L 22.988281 24.863281 L 22.988281 22.917969 L 24.464844 25.074219 L 25.621094 24.707031 L 24.105469 22.636719 L 25.636719 20.675781 L 24.453125 20.40625 L 22.988281 22.363281 Z M 20.472656 21.472656 C 20.460938 21.472656 20.445312 21.480469 20.433594 21.484375 L 20.003906 21.925781 C 19.988281 21.941406 19.980469 21.976562 19.992188 21.996094 L 20.496094 22.832031 C 20.40625 22.984375 20.339844 23.148438 20.289062 23.320312 L 19.351562 23.519531 C 19.324219 23.523438 19.300781 23.539062 19.300781 23.566406 L 19.300781 24.179688 C 19.300781 24.207031 19.324219 24.234375 19.351562 24.238281 L 20.261719 24.460938 C 20.3125 24.660156 20.386719 24.851562 20.484375 25.023438 L 19.957031 25.820312 C 19.941406 25.84375 19.949219 25.875 19.96875 25.894531 L 20.398438 26.324219 C 20.417969 26.339844 20.449219 26.351562 20.472656 26.335938 L 21.300781 25.832031 C 21.460938 25.925781 21.628906 26.003906 21.816406 26.054688 L 22.011719 26.972656 C 22.019531 27 22.035156 27.023438 22.0625 27.023438 L 22.679688 27.023438 C 22.703125 27.023438 22.734375 27 22.738281 26.972656 L 22.960938 26.054688 C 23.152344 26.003906 23.339844 25.917969 23.503906 25.824219 L 24.316406 26.363281 C 24.339844 26.375 24.371094 26.367188 24.390625 26.347656 L 24.824219 25.917969 C 24.839844 25.902344 24.847656 25.867188 24.835938 25.847656 L 24.539062 25.355469 L 24.441406 25.394531 C 24.425781 25.398438 24.410156 25.394531 24.402344 25.378906 C 24.402344 25.378906 24.214844 25.097656 23.972656 24.742188 C 23.679688 25.3125 23.082031 25.699219 22.394531 25.699219 C 21.417969 25.699219 20.621094 24.917969 20.621094 23.945312 C 20.621094 23.230469 21.050781 22.617188 21.667969 22.339844 L 21.667969 21.886719 C 21.554688 21.925781 21.449219 21.964844 21.347656 22.023438 C 21.347656 22.023438 21.335938 22.023438 21.335938 22.023438 L 20.511719 21.480469 C 20.496094 21.476562 20.484375 21.46875 20.472656 21.472656 Z M 20.472656 21.472656 "/>
</g>
</svg>
