
<svg xmlns="http://www.w3.org/2000/svg" xmlns:xlink="http://www.w3.org/1999/xlink" width="32px" height="32px" viewBox="0 0 32 32" version="1.1">
<defs>
<clipPath id="clip1">
  <path d="M 7.5625 8.5625 L 23.5 8.5625 L 23.5 24.5625 L 7.5625 24.5625 Z M 7.5625 8.5625 "/>
</clipPath>
<clipPath id="clip2">
  <path d="M 32.894531 15.820312 C 32.894531 25.015625 25.4375 32.464844 16.25 32.464844 C 7.0625 32.464844 -0.394531 25.015625 -0.394531 15.820312 C -0.394531 6.628906 7.0625 -0.820312 16.25 -0.820312 C 25.4375 -0.820312 32.894531 6.628906 32.894531 15.820312 Z M 32.894531 15.820312 "/>
</clipPath>
<clipPath id="clip3">
  <path d="M 7.5625 7.125 L 25 7.125 L 25 24.5625 L 7.5625 24.5625 Z M 7.5625 7.125 "/>
</clipPath>
<clipPath id="clip4">
  <path d="M 32.894531 15.820312 C 32.894531 25.015625 25.4375 32.464844 16.25 32.464844 C 7.0625 32.464844 -0.394531 25.015625 -0.394531 15.820312 C -0.394531 6.628906 7.0625 -0.820312 16.25 -0.820312 C 25.4375 -0.820312 32.894531 6.628906 32.894531 15.820312 Z M 32.894531 15.820312 "/>
</clipPath>
</defs>
<g id="surface1">
<path style=" stroke:none;fill-rule:nonzero;fill:rgb(30.588236%,60.392159%,2.352941%);fill-opacity:1;" d="M 4.757812 2.21875 L 27.234375 2.21875 C 28.851562 2.21875 30.160156 3.53125 30.160156 5.144531 L 30.160156 26.992188 C 30.160156 28.609375 28.851562 29.917969 27.234375 29.917969 L 4.757812 29.917969 C 3.140625 29.917969 1.832031 28.609375 1.832031 26.992188 L 1.832031 5.144531 C 1.832031 3.53125 3.140625 2.21875 4.757812 2.21875 Z M 4.757812 2.21875 "/>
<g clip-path="url(#clip1)" clip-rule="nonzero">
<g clip-path="url(#clip2)" clip-rule="nonzero">
<path style=" stroke:none;fill-rule:nonzero;fill:rgb(0%,0%,0%);fill-opacity:0.196078;" d="M 7.566406 8.585938 L 7.566406 10.574219 L 21.496094 24.503906 L 23.484375 24.503906 L 23.484375 22.515625 L 9.558594 8.585938 Z M 7.566406 8.585938 "/>
</g>
</g>
<g clip-path="url(#clip3)" clip-rule="nonzero">
<g clip-path="url(#clip4)" clip-rule="nonzero">
<path style=" stroke:none;fill-rule:nonzero;fill:rgb(97.647059%,97.647059%,97.647059%);fill-opacity:1;" d="M 20.285156 7.136719 C 17.714844 7.136719 15.628906 9.222656 15.628906 11.792969 C 15.628906 12.59375 15.835938 13.351562 16.191406 14.011719 C 16.195312 14.011719 16.191406 14.019531 16.191406 14.019531 L 7.566406 22.644531 L 7.566406 24.507812 L 9.429688 24.507812 L 10.046875 23.886719 L 10.046875 22.644531 L 11.289062 22.644531 L 11.910156 22.027344 L 13.152344 22.027344 L 13.769531 21.402344 L 13.769531 20.164062 L 14.386719 19.542969 L 15.628906 19.542969 L 15.628906 18.304688 L 18.050781 15.882812 C 18.054688 15.882812 18.066406 15.878906 18.066406 15.882812 C 18.722656 16.238281 19.480469 16.441406 20.285156 16.441406 C 22.847656 16.441406 24.9375 14.363281 24.9375 11.792969 L 24.9375 11.769531 C 24.925781 9.207031 22.847656 7.136719 20.285156 7.136719 M 21.210938 9.621094 C 21.894531 9.621094 22.449219 10.179688 22.449219 10.863281 C 22.449219 11.550781 21.894531 12.105469 21.210938 12.105469 C 20.527344 12.105469 19.96875 11.550781 19.96875 10.863281 C 19.96875 10.179688 20.527344 9.621094 21.210938 9.621094 M 21.210938 9.621094 "/>
</g>
</g>
</g>
</svg>
