
<svg xmlns="http://www.w3.org/2000/svg" xmlns:xlink="http://www.w3.org/1999/xlink" width="32px" height="32px" viewBox="0 0 32 32" version="1.1">
<g id="surface1">
<path style="fill-rule:nonzero;fill:rgb(100%,100%,100%);fill-opacity:1;stroke-width:55.283993;stroke-linecap:butt;stroke-linejoin:miter;stroke:rgb(0%,50.196081%,50.196081%);stroke-opacity:1;stroke-miterlimit:4;" d="M 169.75 59.125 L 854.25 59.125 C 915.375 59.125 964.875 108.625 964.875 169.75 L 964.875 854.25 C 964.875 915.375 915.375 964.875 854.25 964.875 L 169.75 964.875 C 108.625 964.875 59.125 915.375 59.125 854.25 L 59.125 169.75 C 59.125 108.625 108.625 59.125 169.75 59.125 Z M 169.75 59.125 " transform="matrix(0.03125,0,0,0.03125,0,0)"/>
<path style=" stroke:none;fill-rule:nonzero;fill:rgb(7.058824%,9.019608%,0%);fill-opacity:1;" d="M 8.484375 5.816406 C 7.804688 5.816406 7.464844 6.152344 7.464844 6.832031 L 7.464844 24.371094 C 7.464844 25.046875 7.804688 25.382812 8.484375 25.386719 L 22.871094 25.425781 C 23.535156 25.429688 23.742188 25.34375 23.757812 24.691406 L 23.703125 20.972656 L 21.964844 24.453125 L 21.964844 24.445312 L 9.128906 24.445312 C 8.945312 24.445312 8.789062 24.378906 8.65625 24.246094 C 8.527344 24.121094 8.578125 23.925781 8.460938 23.777344 L 8.425781 23.734375 C 8.308594 23.589844 8.488281 23.390625 8.621094 23.261719 C 8.753906 23.128906 8.910156 23.066406 9.09375 23.066406 L 10.675781 23.066406 L 10.675781 5.816406 Z M 8.484375 5.816406 "/>
<path style=" stroke:none;fill-rule:nonzero;fill:rgb(0%,50.196081%,50.196081%);fill-opacity:1;" d="M 19.757812 11.21875 L 23.773438 15.207031 L 23.773438 6.894531 C 23.773438 6.222656 23.433594 5.882812 22.753906 5.882812 L 10.59375 5.882812 L 10.59375 23.066406 L 19.808594 23.066406 L 15.730469 19.042969 L 16.46875 12.894531 Z M 19.757812 11.21875 "/>
<path style=" stroke:none;fill-rule:nonzero;fill:rgb(0%,50.196081%,50.196081%);fill-opacity:1;" d="M 23.773438 15.207031 L 19.757812 11.21875 L 16.46875 12.894531 L 15.730469 19.042969 L 19.808594 23.066406 L 22.894531 23.066406 C 23.136719 23.0625 23.339844 22.972656 23.507812 22.804688 C 23.675781 22.636719 23.765625 22.433594 23.773438 22.195312 Z M 23.773438 15.207031 "/>
<path style=" stroke:none;fill-rule:nonzero;fill:rgb(90.196079%,90.196079%,90.196079%);fill-opacity:1;" d="M 8.347656 23.804688 C 8.347656 23.988281 8.410156 24.144531 8.542969 24.273438 C 8.671875 24.40625 8.832031 24.472656 9.015625 24.472656 L 22.863281 24.472656 L 22.863281 23.132812 L 9.015625 23.132812 C 8.832031 23.132812 8.671875 23.199219 8.542969 23.328125 C 8.410156 23.457031 8.347656 23.617188 8.347656 23.800781 Z M 8.347656 23.804688 "/>
<path style=" stroke:none;fill-rule:nonzero;fill:rgb(74.117649%,80.392158%,83.137256%);fill-opacity:1;" d="M 19.761719 11.238281 L 13.816406 11.238281 L 13.816406 12.96875 L 15.730469 12.96875 L 15.730469 19.082031 L 17.851562 19.082031 L 17.851562 12.96875 L 19.761719 12.96875 Z M 19.761719 11.238281 "/>
</g>
</svg>
