
<svg xmlns="http://www.w3.org/2000/svg" xmlns:xlink="http://www.w3.org/1999/xlink" width="32px" height="32px" viewBox="0 0 32 32" version="1.1">
<g id="surface1">
<path style=" stroke:none;fill-rule:evenodd;fill:rgb(0%,33.333334%,83.137256%);fill-opacity:1;" d="M 4.910156 2.003906 L 27.132812 2.003906 C 28.859375 2.003906 30.257812 3.402344 30.257812 5.128906 L 30.257812 26.945312 C 30.257812 28.671875 28.859375 30.070312 27.132812 30.070312 L 4.910156 30.070312 C 3.183594 30.070312 1.785156 28.671875 1.785156 26.945312 L 1.785156 5.128906 C 1.785156 3.402344 3.183594 2.003906 4.910156 2.003906 Z M 4.910156 2.003906 "/>
<path style="fill-rule:nonzero;fill:rgb(64.705884%,64.705884%,64.705884%);fill-opacity:1;stroke-width:18.134258;stroke-linecap:butt;stroke-linejoin:miter;stroke:rgb(100%,100%,100%);stroke-opacity:1;stroke-miterlimit:4;" d="M -84.575441 273.378397 C -84.575441 378.789861 -180.746927 464.275604 -299.405568 464.275604 C -417.993496 464.275604 -514.164982 378.789861 -514.164982 273.378397 C -514.164982 167.904076 -417.993496 82.418333 -299.405568 82.418333 C -180.746927 82.418333 -84.575441 167.904076 -84.575441 273.378397 Z M -84.575441 273.378397 " transform="matrix(0.0552399,0,0,0.0621449,32.57428,-0.93047)"/>
<path style=" stroke:none;fill-rule:nonzero;fill:rgb(100%,100%,100%);fill-opacity:1;" d="M 13.253906 14.777344 L 13.253906 21.078125 L 9.652344 21.078125 L 15.953125 27.375 L 22.253906 21.078125 L 18.652344 21.078125 L 18.652344 14.777344 Z M 13.253906 14.777344 "/>
<path style=" stroke:none;fill-rule:nonzero;fill:rgb(100%,100%,100%);fill-opacity:1;" d="M 18.652344 17.308594 L 18.652344 11.011719 L 22.253906 11.011719 L 15.953125 4.710938 L 9.652344 11.011719 L 13.253906 11.011719 L 13.253906 17.308594 Z M 18.652344 17.308594 "/>
<path style=" stroke:none;fill-rule:evenodd;fill:rgb(0%,33.333334%,83.137256%);fill-opacity:1;" d="M 9.90625 11.8125 L 21.96875 11.8125 C 23.019531 11.8125 23.871094 12.664062 23.871094 13.714844 L 23.871094 16.285156 C 23.871094 17.332031 23.019531 18.183594 21.96875 18.183594 L 9.90625 18.183594 C 8.855469 18.183594 8.003906 17.332031 8.003906 16.285156 L 8.003906 13.714844 C 8.003906 12.664062 8.855469 11.8125 9.90625 11.8125 Z M 9.90625 11.8125 "/>
</g>
</svg>
