<!-- color: #474747 -->
<svg xmlns="http://www.w3.org/2000/svg" xmlns:xlink="http://www.w3.org/1999/xlink" width="32px" height="32px" viewBox="0 0 32 32" version="1.1">
<defs>
<clipPath id="clip1">
  <path d="M 8.25 6.75 L 23.9375 6.75 L 23.9375 23.75 L 8.25 23.75 Z M 8.25 6.75 "/>
</clipPath>
<clipPath id="clip2">
  <path d="M 31.042969 15.878906 C 31.042969 24.152344 24.339844 30.847656 16.074219 30.847656 C 7.8125 30.847656 1.105469 24.152344 1.105469 15.878906 C 1.105469 7.609375 7.8125 0.910156 16.074219 0.910156 C 24.339844 0.910156 31.042969 7.609375 31.042969 15.878906 Z M 31.042969 15.878906 "/>
</clipPath>
</defs>
<g id="surface1">
<path style="fill-rule:nonzero;fill:rgb(30.588236%,60.392159%,2.352941%);fill-opacity:1;stroke-width:7.199297;stroke-linecap:butt;stroke-linejoin:miter;stroke:rgb(92.54902%,75.686276%,18.431373%);stroke-opacity:1;stroke-miterlimit:4;" d="M 19.4375 5.03125 L 108.5625 5.03125 C 116.515625 5.03125 122.96875 11.484375 122.96875 19.4375 L 122.96875 108.5625 C 122.96875 116.515625 116.515625 122.96875 108.5625 122.96875 L 19.4375 122.96875 C 11.484375 122.96875 5.03125 116.515625 5.03125 108.5625 L 5.03125 19.4375 C 5.03125 11.484375 11.484375 5.03125 19.4375 5.03125 Z M 19.4375 5.03125 " transform="matrix(0.25,0,0,0.25,0,0)"/>
<g clip-path="url(#clip1)" clip-rule="nonzero">
<g clip-path="url(#clip2)" clip-rule="nonzero">
<path style=" stroke:none;fill-rule:nonzero;fill:rgb(92.54902%,75.686276%,18.431373%);fill-opacity:1;" d="M 16.074219 6.769531 C 16.074219 6.769531 21.933594 6.769531 21.933594 10.574219 L 21.933594 13.925781 C 21.933594 13.925781 23.886719 13.925781 23.886719 15.230469 L 23.886719 21.996094 C 23.886719 23.691406 21.933594 23.691406 21.933594 23.691406 L 10.21875 23.691406 C 10.21875 23.691406 8.265625 23.691406 8.265625 21.996094 L 8.265625 15.230469 C 8.265625 13.925781 10.21875 13.925781 10.21875 13.925781 L 10.21875 10.574219 C 10.21875 6.769531 16.074219 6.769531 16.074219 6.769531 M 16.074219 8.882812 C 16.074219 8.882812 12.820312 8.785156 12.820312 11.324219 L 12.820312 13.925781 L 19.332031 13.925781 L 19.332031 11.324219 C 19.332031 8.785156 16.074219 8.882812 16.074219 8.882812 M 16.074219 8.882812 "/>
</g>
</g>
</g>
</svg>
