
<svg xmlns="http://www.w3.org/2000/svg" xmlns:xlink="http://www.w3.org/1999/xlink" width="32px" height="32px" viewBox="0 0 32 32" version="1.1">
<g id="surface1">
<path style="fill-rule:nonzero;fill:rgb(100%,100%,100%);fill-opacity:1;stroke-width:7.141507;stroke-linecap:butt;stroke-linejoin:miter;stroke:rgb(20%,61.176473%,75.294119%);stroke-opacity:1;stroke-miterlimit:4;" d="M 19.796875 5.515625 L 108.203125 5.515625 C 116.09375 5.515625 122.484375 11.90625 122.484375 19.796875 L 122.484375 108.203125 C 122.484375 116.09375 116.09375 122.484375 108.203125 122.484375 L 19.796875 122.484375 C 11.90625 122.484375 5.515625 116.09375 5.515625 108.203125 L 5.515625 19.796875 C 5.515625 11.90625 11.90625 5.515625 19.796875 5.515625 Z M 19.796875 5.515625 " transform="matrix(0.25,0,0,0.25,0,0)"/>
<path style="fill-rule:nonzero;fill:rgb(100%,100%,100%);fill-opacity:1;stroke-width:9.8846;stroke-linecap:butt;stroke-linejoin:miter;stroke:rgb(20%,61.176473%,75.294119%);stroke-opacity:1;stroke-miterlimit:4;" d="M 64.234375 22 C 87.75 22 106.8125 41.0625 106.8125 64.578125 C 106.8125 88.09375 87.75 107.15625 64.234375 107.15625 C 40.71875 107.15625 21.65625 88.09375 21.65625 64.578125 C 21.65625 41.0625 40.71875 22 64.234375 22 Z M 64.234375 22 " transform="matrix(0.25,0,0,0.25,0,0)"/>
<path style="fill-rule:nonzero;fill:rgb(100%,100%,100%);fill-opacity:1;stroke-width:9.8846;stroke-linecap:butt;stroke-linejoin:miter;stroke:rgb(20%,61.176473%,75.294119%);stroke-opacity:1;stroke-miterlimit:4;" d="M 64.234375 41.953125 C 76.734375 41.953125 86.859375 52.078125 86.859375 64.578125 C 86.859375 77.078125 76.734375 87.203125 64.234375 87.203125 C 51.734375 87.203125 41.609375 77.078125 41.609375 64.578125 C 41.609375 52.078125 51.734375 41.953125 64.234375 41.953125 Z M 64.234375 41.953125 " transform="matrix(0.25,0,0,0.25,0,0)"/>
<path style="fill-rule:nonzero;fill:rgb(20%,61.176473%,75.294119%);fill-opacity:1;stroke-width:4.118584;stroke-linecap:round;stroke-linejoin:miter;stroke:rgb(20%,61.176473%,75.294119%);stroke-opacity:1;stroke-miterlimit:4;" d="M 68.375 64.390625 C 68.375 66.578125 66.609375 68.34375 64.421875 68.34375 C 62.234375 68.34375 60.46875 66.578125 60.46875 64.390625 C 60.46875 62.203125 62.234375 60.4375 64.421875 60.4375 C 66.609375 60.4375 68.375 62.203125 68.375 64.390625 Z M 68.375 64.390625 " transform="matrix(0.25,0,0,0.25,0,0)"/>
<path style="fill-rule:nonzero;fill:rgb(97.647059%,97.647059%,97.647059%);fill-opacity:1;stroke-width:0.823717;stroke-linecap:butt;stroke-linejoin:miter;stroke:rgb(48.235294%,49.803922%,53.333336%);stroke-opacity:1;stroke-miterlimit:4;" d="M 101.578125 70.390625 L 97.328125 66.140625 C 92.890625 61.703125 85.71875 61.703125 81.296875 66.140625 L 62.5625 84.875 C 58.140625 89.296875 58.140625 96.46875 62.5625 100.890625 L 66.828125 105.140625 C 71.234375 109.578125 78.421875 109.578125 82.828125 105.140625 L 101.578125 86.40625 C 106 81.984375 106 74.8125 101.578125 70.390625 M 101.578125 70.390625 " transform="matrix(0.25,0,0,0.25,0,0)"/>
<path style="fill-rule:nonzero;fill:rgb(20%,61.176473%,75.294119%);fill-opacity:1;stroke-width:0.823717;stroke-linecap:butt;stroke-linejoin:miter;stroke:rgb(48.235294%,49.803922%,53.333336%);stroke-opacity:1;stroke-miterlimit:4;" d="M 101.578125 70.390625 C 106.015625 74.828125 106.015625 81.953125 101.578125 86.390625 L 100.890625 87.078125 L 80.609375 66.78125 L 81.28125 66.109375 C 85.71875 61.671875 92.859375 61.671875 97.296875 66.109375 M 101.578125 70.390625 " transform="matrix(0.25,0,0,0.25,0,0)"/>
<path style=" stroke:none;fill-rule:nonzero;fill:rgb(97.647059%,97.647059%,97.647059%);fill-opacity:1;" d="M 23.511719 17.742188 C 23.324219 17.929688 23.324219 18.230469 23.511719 18.414062 C 23.695312 18.601562 23.996094 18.601562 24.183594 18.414062 C 24.371094 18.230469 24.371094 17.929688 24.183594 17.742188 C 23.996094 17.558594 23.695312 17.558594 23.511719 17.742188 M 23.511719 17.742188 "/>
<path style="fill:none;stroke-width:0.823068;stroke-linecap:butt;stroke-linejoin:round;stroke:rgb(52.549022%,52.549022%,52.549022%);stroke-opacity:1;stroke-miterlimit:4;" d="M 95.34375 72.46875 C 101.734375 74.328125 97.375 82.828125 101.734375 89.296875 C 102.109375 107.359375 75.703125 114.765625 98.546875 94.90625 C 107.5625 84.046875 99.0625 75.796875 95.34375 72.46875 M 95.34375 72.46875 " transform="matrix(0.25,0,0,0.25,0,0)"/>
<path style=" stroke:none;fill-rule:evenodd;fill:rgb(48.235294%,49.803922%,53.333336%);fill-opacity:1;" d="M 24.292969 16.472656 L 25.472656 17.644531 L 25.394531 17.734375 L 24.214844 16.5625 Z M 24.292969 16.472656 "/>
<path style=" stroke:none;fill-rule:nonzero;fill:rgb(52.549022%,52.549022%,52.549022%);fill-opacity:1;" d="M 16.640625 21.988281 L 17.066406 21.566406 L 17.660156 22.171875 L 17.683594 20.964844 L 18.183594 20.476562 L 18.152344 22.046875 L 19.890625 22.054688 L 19.355469 22.582031 L 18.050781 22.574219 L 18.691406 23.226562 L 18.265625 23.644531 Z M 16.640625 21.988281 "/>
<path style=" stroke:none;fill-rule:nonzero;fill:rgb(48.235294%,49.803922%,53.333336%);fill-opacity:1;" d="M 18.542969 23.929688 L 18.972656 23.511719 L 20.597656 25.171875 L 20.167969 25.589844 Z M 18.542969 23.929688 "/>
<path style=" stroke:none;fill-rule:nonzero;fill:rgb(48.235294%,49.803922%,53.333336%);fill-opacity:1;" d="M 20.140625 23 L 21.132812 24.011719 L 21.285156 23.863281 C 21.460938 23.691406 21.550781 23.515625 21.558594 23.339844 C 21.566406 23.160156 21.492188 22.988281 21.332031 22.824219 C 21.167969 22.660156 21 22.582031 20.824219 22.585938 C 20.648438 22.589844 20.472656 22.675781 20.292969 22.847656 Z M 19.398438 23.09375 L 19.847656 22.652344 C 20.101562 22.40625 20.308594 22.238281 20.464844 22.15625 C 20.621094 22.070312 20.789062 22.027344 20.960938 22.027344 C 21.113281 22.027344 21.253906 22.058594 21.386719 22.117188 C 21.523438 22.175781 21.652344 22.269531 21.769531 22.394531 C 21.894531 22.519531 21.984375 22.652344 22.042969 22.785156 C 22.101562 22.921875 22.128906 23.0625 22.125 23.214844 C 22.121094 23.386719 22.074219 23.550781 21.980469 23.710938 C 21.894531 23.867188 21.722656 24.070312 21.476562 24.3125 L 21.023438 24.753906 Z M 19.398438 23.09375 "/>
<path style=" stroke:none;fill-rule:nonzero;fill:rgb(48.235294%,49.803922%,53.333336%);fill-opacity:1;" d="M 22.902344 21.160156 C 23.042969 21.082031 23.175781 21.046875 23.304688 21.0625 C 23.433594 21.078125 23.550781 21.140625 23.660156 21.25 C 23.820312 21.414062 23.878906 21.601562 23.839844 21.808594 C 23.796875 22.019531 23.652344 22.242188 23.414062 22.480469 C 23.328125 22.5625 23.234375 22.636719 23.136719 22.707031 C 23.035156 22.777344 22.933594 22.839844 22.824219 22.894531 L 22.5 22.566406 C 22.617188 22.527344 22.726562 22.480469 22.824219 22.425781 C 22.925781 22.367188 23.011719 22.300781 23.089844 22.222656 C 23.203125 22.113281 23.269531 22.011719 23.292969 21.910156 C 23.3125 21.8125 23.289062 21.726562 23.21875 21.652344 C 23.144531 21.578125 23.054688 21.550781 22.957031 21.574219 C 22.855469 21.59375 22.746094 21.664062 22.625 21.785156 L 22.453125 21.949219 L 22.183594 21.675781 L 22.363281 21.496094 C 22.472656 21.394531 22.535156 21.296875 22.554688 21.214844 C 22.574219 21.128906 22.550781 21.050781 22.480469 20.980469 C 22.417969 20.917969 22.347656 20.894531 22.261719 20.910156 C 22.175781 20.925781 22.085938 20.976562 21.992188 21.066406 C 21.925781 21.136719 21.863281 21.210938 21.808594 21.296875 C 21.75 21.378906 21.703125 21.472656 21.664062 21.570312 L 21.355469 21.257812 C 21.417969 21.152344 21.484375 21.050781 21.554688 20.957031 C 21.628906 20.863281 21.703125 20.777344 21.785156 20.699219 C 21.996094 20.488281 22.195312 20.367188 22.371094 20.332031 C 22.546875 20.296875 22.707031 20.351562 22.84375 20.496094 C 22.941406 20.589844 22.992188 20.695312 23.003906 20.808594 C 23.011719 20.917969 22.980469 21.035156 22.902344 21.160156 Z M 22.902344 21.160156 "/>
</g>
</svg>
