
<svg xmlns="http://www.w3.org/2000/svg" xmlns:xlink="http://www.w3.org/1999/xlink" width="32px" height="32px" viewBox="0 0 32 32" version="1.1">
<g id="surface1">
<path style="fill-rule:nonzero;fill:rgb(16.078432%,50.196081%,72.549021%);fill-opacity:1;stroke-width:35.076149;stroke-linecap:butt;stroke-linejoin:miter;stroke:rgb(0%,41.568628%,72.549021%);stroke-opacity:1;stroke-miterlimit:4;" d="M 102.890621 32.734374 L 537.109354 32.734374 C 575.859352 32.734374 607.265601 64.140622 607.265601 102.890621 L 607.265601 537.109354 C 607.265601 575.859352 575.859352 607.265601 537.109354 607.265601 L 102.890621 607.265601 C 64.140622 607.265601 32.734374 575.859352 32.734374 537.109354 L 32.734374 102.890621 C 32.734374 64.140622 64.140622 32.734374 102.890621 32.734374 Z M 102.890621 32.734374 " transform="matrix(0.05,0,0,0.05,0,0)"/>
<path style=" stroke:none;fill-rule:nonzero;fill:rgb(29.803923%,29.803923%,29.803923%);fill-opacity:1;" d="M 18.691406 25.273438 L 27.640625 9.753906 L 29.515625 10.839844 L 20.566406 26.355469 Z M 18.691406 25.273438 "/>
<path style=" stroke:none;fill-rule:nonzero;fill:rgb(29.803923%,29.803923%,29.803923%);fill-opacity:1;" d="M 17.929688 28.625 L 18.042969 28.691406 L 20.566406 26.355469 L 18.691406 25.273438 Z M 17.929688 28.625 "/>
<path style=" stroke:none;fill-rule:nonzero;fill:rgb(94.901961%,94.901961%,94.901961%);fill-opacity:1;" d="M 14.421875 18.949219 L 12.144531 18.949219 L 7.113281 11.601562 L 12.144531 5.082031 L 14.421875 5.082031 L 9.390625 11.601562 L 14.421875 18.949219 M 7.195312 18.949219 L 5.097656 18.949219 L 5.097656 5.082031 L 7.195312 5.082031 L 7.195312 18.949219 "/>
<path style=" stroke:none;fill-rule:nonzero;fill:rgb(94.901961%,94.901961%,94.901961%);fill-opacity:1;" d="M 15.574219 18.996094 C 15.222656 18.996094 15.042969 18.796875 15.042969 18.402344 C 15.042969 18.011719 15.222656 17.816406 15.574219 17.816406 C 15.742188 17.816406 15.871094 17.863281 15.96875 17.964844 C 16.058594 18.058594 16.105469 18.207031 16.105469 18.402344 C 16.105469 18.796875 15.929688 18.996094 15.574219 18.996094 M 20.570312 17.863281 L 20.570312 18.949219 L 16.597656 18.949219 L 16.597656 17.863281 L 20.570312 17.863281 "/>
<path style=" stroke:none;fill-rule:nonzero;fill:rgb(94.901961%,94.901961%,94.901961%);fill-opacity:1;" d="M 20.570312 15.648438 L 20.570312 16.730469 L 15.042969 16.730469 L 15.042969 15.648438 L 20.570312 15.648438 "/>
<path style=" stroke:none;fill-rule:nonzero;fill:rgb(94.901961%,94.901961%,94.901961%);fill-opacity:1;" d="M 17.296875 12.871094 C 17.296875 13.097656 17.371094 13.277344 17.515625 13.410156 C 17.660156 13.539062 17.867188 13.613281 18.132812 13.632812 L 18.132812 12.113281 C 17.867188 12.117188 17.660156 12.1875 17.515625 12.324219 C 17.371094 12.457031 17.296875 12.640625 17.296875 12.871094 M 20.640625 12.714844 C 20.640625 13.355469 20.464844 13.855469 20.113281 14.214844 C 19.757812 14.574219 19.261719 14.753906 18.613281 14.753906 C 17.949219 14.753906 17.433594 14.589844 17.074219 14.257812 C 16.707031 13.925781 16.527344 13.464844 16.527344 12.878906 C 16.527344 12.316406 16.683594 11.878906 17.003906 11.566406 C 17.324219 11.253906 17.765625 11.097656 18.328125 11.097656 L 18.855469 11.097656 L 18.855469 13.660156 C 19.160156 13.644531 19.402344 13.554688 19.574219 13.386719 C 19.746094 13.214844 19.832031 12.976562 19.832031 12.667969 C 19.832031 12.425781 19.808594 12.203125 19.761719 11.988281 C 19.710938 11.777344 19.628906 11.550781 19.523438 11.320312 L 20.359375 11.320312 C 20.457031 11.511719 20.523438 11.714844 20.570312 11.929688 C 20.617188 12.144531 20.640625 12.40625 20.640625 12.714844 "/>
</g>
</svg>
