
<svg xmlns="http://www.w3.org/2000/svg" xmlns:xlink="http://www.w3.org/1999/xlink" width="32px" height="32px" viewBox="0 0 32 32" version="1.1">
<g id="surface1">
<path style="fill-rule:nonzero;fill:rgb(0%,51.764709%,78.431374%);fill-opacity:1;stroke-width:56.650757;stroke-linecap:butt;stroke-linejoin:miter;stroke:rgb(43.921569%,65.098041%,99.215686%);stroke-opacity:1;stroke-miterlimit:4;" d="M 161.375 48 L 862.625 48 C 925.25 48 976 98.75 976 161.375 L 976 862.625 C 976 925.25 925.25 976 862.625 976 L 161.375 976 C 98.75 976 48 925.25 48 862.625 L 48 161.375 C 48 98.75 98.75 48 161.375 48 Z M 161.375 48 " transform="matrix(0.03125,0,0,0.03125,0,0)"/>
<path style=" stroke:none;fill-rule:nonzero;fill:rgb(0%,0%,0%);fill-opacity:0.2;" d="M 19.496094 17.136719 C 19.378906 16.871094 19.078125 16.714844 18.777344 16.78125 L 14.996094 17.621094 C 14.652344 17.699219 14.433594 18.039062 14.511719 18.382812 L 14.683594 19.160156 L 12.503906 18.488281 L 13.144531 21.378906 L 14.902344 20.160156 L 15.007812 20.628906 C 15.082031 20.972656 15.425781 21.191406 15.769531 21.113281 L 19.550781 20.269531 C 19.722656 20.234375 19.859375 20.140625 19.953125 19.992188 C 20.046875 19.84375 20.074219 19.683594 20.035156 19.511719 L 19.585938 17.472656 L 20.207031 17.558594 L 20.027344 16.753906 Z M 19.496094 17.136719 "/>
<path style=" stroke:none;fill-rule:nonzero;fill:rgb(45.882353%,46.666667%,46.666667%);fill-opacity:1;" d="M 20.4375 5.800781 C 20.363281 5.699219 20.234375 5.652344 20.113281 5.683594 L 20.4375 5.800781 L 20.113281 5.683594 C 20.234375 5.652344 20.363281 5.699219 20.4375 5.800781 Z M 20.4375 5.800781 "/>
<path style=" stroke:none;fill-rule:nonzero;fill:rgb(11.372549%,11.372549%,10.588235%);fill-opacity:1;" d="M 7.402344 15.214844 C 7.457031 15.214844 7.507812 15.199219 7.558594 15.175781 L 9.957031 13.789062 L 7.566406 12.902344 L 6.574219 13.476562 C 6.425781 13.5625 6.375 13.753906 6.464844 13.902344 L 7.128906 15.058594 C 7.167969 15.128906 7.238281 15.183594 7.316406 15.207031 C 7.347656 15.210938 7.371094 15.214844 7.402344 15.214844 Z M 7.402344 15.214844 "/>
<path style=" stroke:none;fill-rule:nonzero;fill:rgb(11.372549%,11.372549%,10.588235%);fill-opacity:1;" d="M 16.585938 7.699219 L 18.972656 8.585938 L 20.707031 7.585938 L 18.316406 6.699219 Z M 16.585938 7.699219 "/>
<path style=" stroke:none;fill-rule:nonzero;fill:rgb(11.372549%,11.372549%,10.588235%);fill-opacity:1;" d="M 13.566406 11.707031 L 11.183594 10.816406 L 9.347656 11.878906 L 11.734375 12.761719 Z M 13.566406 11.707031 "/>
<path style=" stroke:none;fill-rule:nonzero;fill:rgb(11.372549%,11.372549%,10.588235%);fill-opacity:1;" d="M 17.191406 9.613281 L 14.808594 8.730469 L 12.960938 9.792969 L 15.347656 10.675781 Z M 17.191406 9.613281 "/>
<path style=" stroke:none;fill-rule:nonzero;fill:rgb(45.882353%,46.666667%,46.666667%);fill-opacity:1;" d="M 9.347656 11.878906 L 7.566406 12.902344 L 9.957031 13.789062 L 11.734375 12.761719 Z M 9.347656 11.878906 "/>
<path style=" stroke:none;fill-rule:nonzero;fill:rgb(45.882353%,46.666667%,46.666667%);fill-opacity:1;" d="M 20.113281 5.683594 C 20.085938 5.6875 20.058594 5.699219 20.027344 5.714844 L 18.316406 6.699219 L 20.707031 7.585938 L 21.011719 7.410156 C 21.082031 7.371094 21.132812 7.300781 21.152344 7.222656 C 21.175781 7.144531 21.164062 7.058594 21.121094 6.988281 L 20.4375 5.800781 Z M 20.113281 5.683594 "/>
<path style=" stroke:none;fill-rule:nonzero;fill:rgb(45.882353%,46.666667%,46.666667%);fill-opacity:1;" d="M 14.808594 8.730469 L 17.191406 9.613281 L 18.972656 8.585938 L 16.585938 7.699219 Z M 14.808594 8.730469 "/>
<path style=" stroke:none;fill-rule:nonzero;fill:rgb(45.882353%,46.666667%,46.666667%);fill-opacity:1;" d="M 11.183594 10.816406 L 13.566406 11.707031 L 15.347656 10.675781 L 12.960938 9.792969 Z M 11.183594 10.816406 "/>
<path style=" stroke:none;fill-rule:nonzero;fill:rgb(11.372549%,11.372549%,10.588235%);fill-opacity:1;" d="M 17.457031 12.441406 L 15.539062 12.910156 L 14.941406 14.523438 L 16.863281 14.054688 Z M 17.457031 12.441406 "/>
<path style=" stroke:none;fill-rule:nonzero;fill:rgb(11.372549%,11.372549%,10.588235%);fill-opacity:1;" d="M 20.667969 13.128906 L 21.246094 11.519531 L 19.3125 11.988281 L 18.714844 13.605469 Z M 20.667969 13.128906 "/>
<path style=" stroke:none;fill-rule:nonzero;fill:rgb(11.372549%,11.372549%,10.588235%);fill-opacity:1;" d="M 13.089844 14.972656 L 13.6875 13.359375 L 11.882812 13.800781 L 11.285156 15.414062 Z M 13.089844 14.972656 "/>
<path style=" stroke:none;fill-rule:nonzero;fill:rgb(45.882353%,46.666667%,46.666667%);fill-opacity:1;" d="M 13.6875 13.359375 L 13.089844 14.972656 L 14.941406 14.523438 L 15.539062 12.910156 Z M 13.6875 13.359375 "/>
<path style=" stroke:none;fill-rule:nonzero;fill:rgb(45.882353%,46.666667%,46.666667%);fill-opacity:1;" d="M 19.3125 11.988281 L 17.457031 12.441406 L 16.863281 14.054688 L 18.714844 13.605469 Z M 19.3125 11.988281 "/>
<path style=" stroke:none;fill-rule:nonzero;fill:rgb(45.882353%,46.666667%,46.666667%);fill-opacity:1;" d="M 23.527344 21.621094 L 21.410156 12.949219 L 9.339844 15.886719 L 11.453125 24.558594 Z M 23.527344 21.621094 "/>
<path style=" stroke:none;fill-rule:nonzero;fill:rgb(45.882353%,46.666667%,46.666667%);fill-opacity:1;" d="M 11.882812 13.800781 L 9.917969 14.277344 L 9.34375 15.886719 L 11.285156 15.414062 Z M 11.882812 13.800781 "/>
<path style=" stroke:none;fill-rule:nonzero;fill:rgb(45.882353%,46.666667%,46.666667%);fill-opacity:1;" d="M 21.410156 12.949219 L 22.503906 12.683594 L 22.957031 11.425781 L 22.957031 11.421875 C 22.9375 11.339844 22.890625 11.273438 22.816406 11.230469 C 22.746094 11.183594 22.660156 11.171875 22.582031 11.191406 L 21.246094 11.519531 L 20.667969 13.128906 Z M 21.410156 12.949219 "/>
<path style=" stroke:none;fill-rule:nonzero;fill:rgb(11.372549%,11.372549%,10.588235%);fill-opacity:1;" d="M 22.863281 12.917969 L 22.992188 12.566406 L 22.503906 12.683594 L 22.378906 13.039062 Z M 22.863281 12.917969 "/>
<path style=" stroke:none;fill-rule:nonzero;fill:rgb(11.372549%,11.372549%,10.588235%);fill-opacity:1;" d="M 22.957031 11.425781 L 22.503906 12.683594 L 21.410156 12.949219 L 23.527344 21.621094 L 11.453125 24.558594 L 9.339844 15.902344 L 9.339844 15.886719 L 9.34375 15.886719 L 9.917969 14.277344 L 7.492188 14.871094 C 7.410156 14.886719 7.339844 14.941406 7.300781 15.011719 C 7.253906 15.082031 7.246094 15.167969 7.261719 15.246094 L 9.902344 26.085938 C 9.925781 26.167969 9.972656 26.238281 10.042969 26.277344 C 10.097656 26.308594 10.152344 26.324219 10.207031 26.324219 C 10.230469 26.324219 10.257812 26.324219 10.285156 26.316406 L 25.371094 22.636719 C 25.539062 22.597656 25.644531 22.425781 25.601562 22.261719 Z M 22.957031 11.425781 "/>
<path style=" stroke:none;fill-rule:nonzero;fill:rgb(47.450981%,47.843137%,47.843137%);fill-opacity:1;" d="M 8.183594 14.832031 C 8.183594 14.636719 8.027344 14.472656 7.828125 14.472656 C 7.632812 14.472656 7.472656 14.636719 7.472656 14.832031 C 7.472656 15.027344 7.632812 15.183594 7.828125 15.183594 C 7.925781 15.183594 8.011719 15.148438 8.082031 15.082031 C 8.148438 15.011719 8.183594 14.925781 8.183594 14.832031 Z M 8.183594 14.832031 "/>
<path style=" stroke:none;fill-rule:nonzero;fill:rgb(11.372549%,11.372549%,10.588235%);fill-opacity:0.301961;" d="M 22.863281 12.949219 L 22.863281 12.589844 L 8.84375 16.011719 L 9.113281 16.230469 Z M 22.863281 12.949219 "/>
<path style=" stroke:none;fill-rule:nonzero;fill:rgb(11.372549%,11.372549%,10.588235%);fill-opacity:1;" d="M 19.226562 16.957031 C 19.152344 16.609375 18.808594 16.394531 18.464844 16.46875 L 14.683594 17.308594 C 14.339844 17.386719 14.121094 17.726562 14.199219 18.070312 L 14.695312 20.316406 C 14.769531 20.660156 15.113281 20.878906 15.457031 20.800781 L 19.238281 19.957031 C 19.410156 19.921875 19.546875 19.828125 19.640625 19.679688 C 19.734375 19.53125 19.761719 19.371094 19.722656 19.199219 Z M 19.226562 16.957031 "/>
<path style="fill-rule:nonzero;fill:rgb(11.372549%,11.372549%,10.588235%);fill-opacity:1;stroke-width:14.4;stroke-linecap:round;stroke-linejoin:round;stroke:rgb(11.372549%,11.372549%,10.588235%);stroke-opacity:1;stroke-miterlimit:4;" d="M 463.5 604.25 L 390.125 581.625 L 410.625 674.125 L 472.375 631.375 Z M 463.5 604.25 " transform="matrix(0.03125,0,0,0.03125,0,0)"/>
<path style="fill-rule:nonzero;fill:rgb(11.372549%,11.372549%,10.588235%);fill-opacity:1;stroke-width:14.4;stroke-linecap:round;stroke-linejoin:round;stroke:rgb(11.372549%,11.372549%,10.588235%);stroke-opacity:1;stroke-miterlimit:4;" d="M 609.125 541.75 L 610.625 548.375 L 636.625 551.875 L 630.875 526.125 Z M 609.125 541.75 " transform="matrix(0.03125,0,0,0.03125,0,0)"/>
</g>
</svg>
