
<svg xmlns="http://www.w3.org/2000/svg" xmlns:xlink="http://www.w3.org/1999/xlink" width="32px" height="32px" viewBox="0 0 32 32" version="1.1">
<g id="surface1">
<path style="fill-rule:nonzero;fill:rgb(100%,100%,100%);fill-opacity:1;stroke-width:28.191782;stroke-linecap:butt;stroke-linejoin:miter;stroke:rgb(0%,80.000001%,100%);stroke-opacity:1;stroke-miterlimit:4;" d="M 465.96696 -213.530986 L 814.96696 -213.530986 C 846.15446 -213.530986 871.40446 -188.280986 871.40446 -157.093486 L 871.40446 191.906514 C 871.40446 223.094014 846.15446 248.344014 814.96696 248.344014 L 465.96696 248.344014 C 434.77946 248.344014 409.52946 223.094014 409.52946 191.906514 L 409.52946 -157.093486 C 409.52946 -188.280986 434.77946 -213.530986 465.96696 -213.530986 Z M 465.96696 -213.530986 " transform="matrix(0.0625,0,0,0.0625,-24.029185,14.912093)"/>
<path style="fill-rule:evenodd;fill:rgb(100%,50.196081%,69.803923%);fill-opacity:1;stroke-width:12.519356;stroke-linecap:butt;stroke-linejoin:miter;stroke:rgb(100%,100%,100%);stroke-opacity:1;stroke-miterlimit:4;" d="M 123.952817 95.245929 L 451.423001 95.20257 L 451.420163 345.625956 L 123.955359 345.60252 Z M 123.952817 95.245929 " transform="matrix(0.0581047,-0.00468023,0.00468023,0.0581047,-0.190979,1.760739)"/>
<path style="fill-rule:evenodd;fill:rgb(0%,80.000001%,100%);fill-opacity:1;stroke-width:12.519356;stroke-linecap:butt;stroke-linejoin:miter;stroke:rgb(100%,100%,100%);stroke-opacity:1;stroke-miterlimit:4;" d="M -34.17409 224.181652 L 293.297475 224.171326 L 293.298214 474.587454 L -34.206114 474.508856 Z M -34.17409 224.181652 " transform="matrix(0.0529276,-0.0244279,0.0244279,0.0529276,-0.190979,1.760739)"/>
<path style=" stroke:none;fill-rule:nonzero;fill:rgb(100%,100%,100%);fill-opacity:0.847059;" d="M 10.046875 18.25 L 9.105469 17.308594 L 9.652344 17.253906 L 10.203125 17.199219 L 10.296875 16.605469 C 10.488281 15.367188 10.921875 14.507812 11.785156 13.660156 C 12.160156 13.292969 12.546875 13.027344 13.121094 12.761719 C 14.816406 11.964844 16.75 12.214844 18.269531 13.429688 L 18.582031 13.675781 L 18.300781 13.96875 C 18.148438 14.128906 17.910156 14.371094 17.769531 14.5 L 17.515625 14.738281 L 17.214844 14.515625 C 16.105469 13.695312 14.566406 13.601562 13.433594 14.289062 C 12.519531 14.847656 11.886719 15.832031 11.792969 16.859375 L 11.757812 17.214844 L 12.355469 17.25 L 12.957031 17.289062 L 12.113281 18.136719 C 11.648438 18.605469 11.207031 19.035156 11.128906 19.089844 L 10.988281 19.191406 Z M 10.046875 18.25 "/>
<path style=" stroke:none;fill-rule:nonzero;fill:rgb(100%,100%,100%);fill-opacity:0.847059;" d="M 14.164062 21.851562 C 13.644531 21.742188 13.042969 21.511719 12.625 21.265625 C 12.226562 21.03125 11.71875 20.632812 11.71875 20.558594 C 11.71875 20.519531 11.941406 20.269531 12.214844 20 L 12.707031 19.507812 L 13.136719 19.796875 C 13.871094 20.285156 14.433594 20.441406 15.304688 20.398438 C 16.191406 20.355469 16.871094 20.046875 17.511719 19.40625 C 18.054688 18.863281 18.464844 17.941406 18.464844 17.269531 L 18.464844 17.015625 L 17.269531 17.015625 L 19.269531 15.023438 L 21.132812 16.933594 L 20.902344 16.972656 C 20.777344 16.988281 20.535156 17.007812 20.371094 17.011719 C 20.027344 17.015625 20.035156 17.003906 19.980469 17.519531 C 19.730469 19.800781 17.917969 21.644531 15.675781 21.898438 C 15.023438 21.972656 14.691406 21.964844 14.164062 21.851562 Z M 14.164062 21.851562 "/>
</g>
</svg>
