
<svg xmlns="http://www.w3.org/2000/svg" xmlns:xlink="http://www.w3.org/1999/xlink" width="32px" height="32px" viewBox="0 0 32 32" version="1.1">
<g id="surface1">
<path style="fill-rule:nonzero;fill:rgb(100%,100%,100%);fill-opacity:1;stroke-width:25.210211;stroke-linecap:butt;stroke-linejoin:miter;stroke:rgb(0%,80.000001%,100%);stroke-opacity:1;stroke-miterlimit:4;" d="M 120.339486 39.15842 L 432.428141 39.15842 C 460.317152 39.15842 482.896632 61.7379 482.896632 89.626912 L 482.896632 401.715566 C 482.896632 429.604578 460.317152 452.184058 432.428141 452.184058 L 120.339486 452.184058 C 92.450475 452.184058 69.870994 429.604578 69.870994 401.715566 L 69.870994 89.626912 C 69.870994 61.7379 92.450475 39.15842 120.339486 39.15842 Z M 120.339486 39.15842 " transform="matrix(0.069892,0,0,0.069892,-3.317017,-1.170454)"/>
<path style="fill-rule:evenodd;fill:rgb(100%,50.196081%,69.803923%);fill-opacity:1;stroke-width:10.281879;stroke-linecap:butt;stroke-linejoin:miter;stroke:rgb(100%,100%,100%);stroke-opacity:1;stroke-miterlimit:4;" d="M 146.154159 127.090383 L 415.125528 127.112181 L 415.104835 332.723283 L 146.133466 332.701484 Z M 146.154159 127.090383 " transform="matrix(0.069666,-0.00561149,0.00561149,0.069666,-3.317017,-1.170454)"/>
<path style="fill-rule:evenodd;fill:rgb(0%,80.000001%,100%);fill-opacity:1;stroke-width:10.281879;stroke-linecap:butt;stroke-linejoin:miter;stroke:rgb(100%,100%,100%);stroke-opacity:1;stroke-miterlimit:4;" d="M -3.269346 245.306223 L 265.679705 245.27784 L 265.680514 450.935118 L -3.245116 450.912755 Z M -3.269346 245.306223 " transform="matrix(0.063459,-0.0292885,0.0292885,0.063459,-3.317017,-1.170454)"/>
<path style="fill-rule:nonzero;fill:rgb(92.54902%,92.54902%,92.54902%);fill-opacity:1;stroke-width:1.144096;stroke-linecap:butt;stroke-linejoin:miter;stroke:rgb(92.54902%,92.54902%,92.54902%);stroke-opacity:1;stroke-miterlimit:4;" d="M 46.645049 20.840732 C 45.749528 19.963487 44.652972 19.488312 43.44676 19.488312 L 38.037083 19.488312 C 36.977078 19.488312 35.990178 19.853831 35.149485 20.548317 C 34.948449 19.853831 34.67431 19.195897 34.327068 18.55624 C 35.405348 18.46486 36.373973 18.026237 37.141562 17.258648 L 40.961233 13.420701 C 41.801926 12.580008 42.258824 11.483452 42.2771 10.204136 C 42.2771 8.961373 41.820202 7.864816 40.961233 7.024123 C 40.12054 6.165154 39.023983 5.708256 37.726392 5.708256 C 36.483628 5.708256 35.387072 6.165154 34.546379 7.005847 L 30.708432 10.843794 C 29.959119 11.593108 29.520496 12.561732 29.429116 13.658288 C 28.807735 13.329322 28.149801 13.055183 27.455315 12.835871 C 28.149801 12.013454 28.51532 11.026554 28.51532 9.948273 L 28.51532 4.538596 C 28.51532 3.35066 28.058421 2.235828 27.1629 1.322031 C 26.285655 0.444786 25.170823 0.00616337 23.982887 0.00616337 C 22.794951 0.00616337 21.680119 0.444786 20.748046 1.358583 C 19.907353 2.254104 19.432179 3.35066 19.432179 4.538596 L 19.432179 9.948273 C 19.432179 11.008278 19.797698 11.995178 20.510459 12.835871 C 19.834249 13.055183 19.176316 13.329322 18.554934 13.658288 C 18.48183 12.598284 18.043208 11.629659 17.275618 10.86207 L 13.437671 7.042399 C 12.596978 6.18343 11.482146 5.744808 10.221106 5.726532 C 8.978343 5.744808 7.863511 6.18343 7.022817 7.024123 C 6.182124 7.883092 5.725226 8.997924 5.725226 10.27724 C 5.725226 11.501728 6.182124 12.61656 7.041093 13.457253 L 10.860764 17.2952 C 11.628354 18.062789 12.596978 18.501412 13.656983 18.574516 C 13.328016 19.195897 13.053877 19.872107 12.834565 20.548317 C 12.012148 19.853831 11.025248 19.488312 9.946967 19.488312 L 4.53729 19.488312 C 3.349354 19.488312 2.234522 19.963487 1.339001 20.840732 C 0.461756 21.717977 0.00485752 22.832809 0.00485752 24.020745 C 0.00485752 25.226957 0.461756 26.323513 1.357277 27.23731 C 2.252798 28.114555 3.349354 28.553177 4.53729 28.553177 L 9.946967 28.553177 C 11.043524 28.553177 12.0487 28.187659 12.852841 27.493173 C 13.072153 28.151107 13.328016 28.80904 13.656983 29.412146 C 12.578702 29.503526 11.628354 29.942149 10.860764 30.709738 L 7.041093 34.529409 C 6.2004 35.388378 5.743502 36.484934 5.725226 37.745974 C 5.725226 38.988737 6.2004 40.10357 7.041093 40.944263 C 7.900062 41.803232 8.996619 42.26013 10.257658 42.26013 L 10.275934 42.26013 C 11.518698 42.241854 12.615254 41.784956 13.455947 40.944263 L 17.293894 37.106316 C 18.043208 36.357002 18.48183 35.388378 18.57321 34.346649 C 19.194592 34.65734 19.834249 34.949755 20.510459 35.150791 C 19.797698 35.973208 19.432179 36.960108 19.432179 38.056665 L 19.432179 43.466342 C 19.432179 44.654278 19.907353 45.750834 20.784598 46.646355 C 21.661843 47.541876 22.776675 47.998774 23.982887 47.998774 C 25.189099 47.998774 26.285655 47.541876 27.181176 46.646355 C 28.058421 45.750834 28.51532 44.654278 28.51532 43.466342 L 28.51532 38.056665 C 28.51532 36.960108 28.131525 35.954932 27.455315 35.169067 C 28.131525 34.949755 28.789459 34.675616 29.429116 34.346649 C 29.50222 35.443206 29.940843 36.41183 30.708432 37.161144 L 34.546379 40.999091 C 35.405348 41.85806 36.501904 42.296682 37.744668 42.296682 L 37.78122 42.296682 C 39.023983 42.296682 40.12054 41.85806 40.961233 40.999091 C 41.820202 40.140121 42.2771 39.025289 42.258824 37.782526 C 42.258824 36.521486 41.801926 35.42493 40.961233 34.584237 L 37.141562 30.74629 C 36.392248 29.9787 35.423624 29.540078 34.327068 29.466974 C 34.656034 28.845592 34.930174 28.187659 35.149485 27.493173 C 35.971902 28.205934 36.958803 28.571453 38.037083 28.571453 L 43.44676 28.571453 C 44.652972 28.571453 45.749528 28.114555 46.626773 27.23731 C 47.522294 26.360065 47.997469 25.263509 47.997469 24.020745 C 47.997469 22.814533 47.522294 21.717977 46.645049 20.840732 Z M 11.719733 25.811787 C 11.226283 26.323513 10.623177 26.5611 9.946967 26.5611 L 4.53729 26.5611 C 3.86108 26.5611 3.27625 26.323513 2.764524 25.811787 C 2.252798 25.30006 1.996935 24.696955 1.996935 24.020745 C 1.996935 23.362811 2.252798 22.759705 2.764524 22.247979 C 3.27625 21.736253 3.86108 21.498666 4.53729 21.498666 L 9.946967 21.498666 C 10.623177 21.498666 11.226283 21.736253 11.719733 22.247979 C 12.23146 22.759705 12.487323 23.362811 12.487323 24.020745 C 12.487323 24.696955 12.23146 25.30006 11.719733 25.811787 Z M 21.442532 4.538596 C 21.442532 3.84411 21.698395 3.25928 22.210121 2.747554 C 22.721847 2.235828 23.306677 1.998241 23.982887 1.998241 C 24.659097 1.998241 25.243927 2.235828 25.755653 2.747554 C 26.267379 3.25928 26.523242 3.84411 26.523242 4.538596 L 26.523242 9.948273 C 26.523242 10.624483 26.267379 11.227589 25.755653 11.739315 C 25.243927 12.232765 24.659097 12.488628 23.982887 12.488628 C 23.306677 12.488628 22.721847 12.232765 22.210121 11.739315 C 21.698395 11.227589 21.442532 10.624483 21.442532 9.948273 Z M 12.268011 15.869677 L 8.448341 12.050006 C 7.95489 11.556556 7.717303 10.971726 7.717303 10.240688 C 7.717303 9.527927 7.95489 8.924821 8.430065 8.449646 C 8.923515 7.974472 9.508345 7.736885 10.239382 7.718609 C 10.952144 7.736885 11.536974 7.974472 12.030424 8.449646 L 15.850095 12.287593 C 16.325269 12.762768 16.581133 13.365873 16.581133 14.078635 C 16.581133 14.809673 16.343545 15.394502 15.850095 15.869677 C 15.374921 16.344851 14.790091 16.600714 14.059053 16.600714 C 13.346292 16.600714 12.743186 16.344851 12.268011 15.869677 Z M 15.868371 35.717345 L 12.0487 39.537016 C 11.573526 40.01219 10.97042 40.249777 10.257658 40.249777 C 9.526621 40.249777 8.941791 40.01219 8.466616 39.537016 C 7.991442 39.061841 7.735579 38.458735 7.735579 37.745974 C 7.735579 37.014936 7.991442 36.430106 8.466616 35.936656 L 12.286287 32.116985 C 12.761462 31.641811 13.364568 31.404223 14.077329 31.404223 C 14.790091 31.404223 15.411473 31.641811 15.886647 32.116985 C 16.361821 32.592159 16.599409 33.195265 16.581133 33.926303 C 16.599409 34.620788 16.361821 35.223894 15.868371 35.717345 Z M 26.523242 43.466342 C 26.523242 44.124276 26.267379 44.727382 25.755653 45.239108 C 25.243927 45.750834 24.659097 45.988421 23.982887 45.988421 C 23.306677 45.988421 22.703572 45.750834 22.210121 45.239108 C 21.698395 44.727382 21.442532 44.124276 21.442532 43.466342 L 21.442532 38.038389 C 21.442532 37.362179 21.698395 36.777349 22.210121 36.265623 C 22.703572 35.753897 23.306677 35.498033 23.982887 35.498033 C 24.659097 35.498033 25.243927 35.753897 25.755653 36.265623 C 26.267379 36.777349 26.523242 37.362179 26.523242 38.038389 Z M 24.001163 33.688716 C 18.664589 33.688716 14.314916 29.357319 14.314916 24.002469 C 14.314916 18.647619 18.664589 14.316222 24.001163 14.316222 C 29.337737 14.316222 33.68741 18.647619 33.68741 24.002469 C 33.68741 29.357319 29.337737 33.688716 24.001163 33.688716 Z M 35.716039 32.153537 L 39.553986 35.991484 C 40.02916 36.466658 40.266747 37.069764 40.266747 37.782526 C 40.266747 38.513563 40.02916 39.116669 39.553986 39.591843 C 39.060535 40.067018 38.475705 40.304605 37.744668 40.304605 C 37.031906 40.304605 36.4288 40.067018 35.953626 39.591843 L 32.115679 35.753897 C 31.640505 35.278722 31.402918 34.675616 31.402918 33.962855 C 31.402918 33.231817 31.640505 32.646987 32.133955 32.171813 C 32.609129 31.696638 33.193959 31.440775 33.924997 31.440775 C 34.637759 31.440775 35.240864 31.678363 35.716039 32.153537 Z M 33.943273 16.564162 C 33.212235 16.564162 32.627405 16.326575 32.133955 15.851401 C 31.658781 15.357951 31.421194 14.773121 31.421194 14.042083 C 31.421194 13.347598 31.658781 12.726216 32.133955 12.251041 L 35.953626 8.413094 C 36.447076 7.93792 37.050182 7.718609 37.762944 7.700333 C 38.475705 7.700333 39.078811 7.93792 39.553986 8.43137 C 40.02916 8.906545 40.266747 9.491375 40.285023 10.222412 C 40.266747 10.935174 40.02916 11.520004 39.553986 12.013454 L 35.716039 15.833125 C 35.240864 16.308299 34.637759 16.564162 33.943273 16.564162 Z M 45.237802 25.811787 C 44.726076 26.323513 44.141246 26.579376 43.44676 26.579376 L 38.037083 26.579376 C 37.360873 26.579376 36.776043 26.323513 36.264317 25.811787 C 35.752591 25.30006 35.515004 24.71523 35.515004 24.020745 C 35.515004 23.362811 35.752591 22.759705 36.264317 22.266255 C 36.776043 21.754529 37.360873 21.498666 38.037083 21.498666 L 43.44676 21.498666 C 44.141246 21.498666 44.726076 21.754529 45.237802 22.266255 C 45.749528 22.759705 46.005391 23.362811 46.005391 24.020745 C 46.005391 24.71523 45.749528 25.30006 45.237802 25.811787 Z M 45.237802 25.811787 " transform="matrix(0.213737,0,0,0.213737,9.967712,11.854151)"/>
</g>
</svg>
