
<svg xmlns="http://www.w3.org/2000/svg" xmlns:xlink="http://www.w3.org/1999/xlink" width="32px" height="32px" viewBox="0 0 32 32" version="1.1">
<g id="surface1">
<path style="fill-rule:nonzero;fill:rgb(100%,100%,100%);fill-opacity:1;stroke-width:25.210211;stroke-linecap:butt;stroke-linejoin:miter;stroke:rgb(0%,80.000001%,100%);stroke-opacity:1;stroke-miterlimit:4;" d="M 120.339486 39.15842 L 432.428141 39.15842 C 460.317152 39.15842 482.896632 61.7379 482.896632 89.626912 L 482.896632 401.715566 C 482.896632 429.604578 460.317152 452.184058 432.428141 452.184058 L 120.339486 452.184058 C 92.450475 452.184058 69.870994 429.604578 69.870994 401.715566 L 69.870994 89.626912 C 69.870994 61.7379 92.450475 39.15842 120.339486 39.15842 Z M 120.339486 39.15842 " transform="matrix(0.069892,0,0,0.069892,-3.317017,-1.170454)"/>
<path style="fill-rule:evenodd;fill:rgb(100%,50.196081%,69.803923%);fill-opacity:1;stroke-width:11.414831;stroke-linecap:butt;stroke-linejoin:miter;stroke:rgb(100%,100%,100%);stroke-opacity:1;stroke-miterlimit:4;" d="M 136.254119 108.68662 L 434.772949 108.733436 L 434.78228 336.943614 L 136.198766 337.00373 Z M 136.254119 108.68662 " transform="matrix(0.069666,-0.00561149,0.00561149,0.069666,-3.317017,-1.170454)"/>
<path style=" stroke:none;fill-rule:nonzero;fill:rgb(100%,100%,100%);fill-opacity:1;" d="M 25.964844 15.597656 C 25.074219 15.789062 22.472656 16.128906 20.511719 16.308594 C 19.242188 16.425781 18.183594 16.511719 18.160156 16.5 C 18.035156 16.445312 18.285156 15.992188 18.628906 15.652344 L 19.019531 15.269531 L 18.914062 14.792969 C 18.855469 14.535156 18.835938 14.164062 18.867188 13.972656 C 18.925781 13.621094 19.355469 12.929688 19.792969 12.480469 C 20.113281 12.152344 21.171875 11.785156 21.636719 11.839844 C 22.148438 11.902344 22.683594 12.085938 22.96875 12.300781 C 23.195312 12.472656 23.273438 12.488281 23.542969 12.394531 C 24.035156 12.21875 24.839844 12.257812 25.339844 12.476562 L 25.792969 12.671875 L 26.269531 14.027344 L 26.742188 15.382812 L 26.480469 15.464844 C 26.332031 15.507812 26.101562 15.566406 25.964844 15.597656 Z M 25.964844 15.597656 "/>
<path style=" stroke:none;fill-rule:nonzero;fill:rgb(80.000001%,80.000001%,80.000001%);fill-opacity:1;" d="M 17.476562 16.890625 C 16.984375 16.949219 16.964844 16.949219 16.753906 16.777344 C 16.527344 16.601562 16.257812 16.496094 15.964844 16.476562 C 15.824219 16.464844 15.832031 16.476562 15.589844 16.152344 C 15.328125 15.808594 15.058594 15.625 14.652344 15.519531 C 14.464844 15.46875 14.335938 15.417969 14.324219 15.378906 C 14.320312 15.367188 14.332031 15.273438 14.347656 15.171875 C 14.476562 14.476562 14.960938 13.839844 15.632812 13.480469 C 15.832031 13.371094 16.285156 13.214844 16.503906 13.171875 C 17.15625 13.050781 17.761719 13.160156 18.308594 13.484375 C 18.582031 13.652344 18.617188 13.660156 18.789062 13.617188 C 18.933594 13.578125 18.988281 13.585938 19.007812 13.644531 C 19.015625 13.667969 19.007812 13.808594 18.988281 13.953125 C 18.941406 14.351562 18.949219 14.542969 19.027344 15.003906 C 19.058594 15.167969 19.078125 15.300781 19.074219 15.304688 C 19.074219 15.308594 18.957031 15.417969 18.816406 15.542969 C 18.449219 15.875 18.316406 16.050781 18.136719 16.429688 C 18.089844 16.527344 18.027344 16.652344 18 16.703125 C 17.953125 16.792969 17.949219 16.796875 17.859375 16.824219 C 17.808594 16.839844 17.636719 16.871094 17.476562 16.890625 Z M 17.476562 16.890625 "/>
<path style=" stroke:none;fill-rule:nonzero;fill:rgb(100%,100%,100%);fill-opacity:1;" d="M 15.269531 16.882812 C 14.613281 16.980469 13.609375 17.160156 13.039062 17.28125 L 12 17.496094 L 12.175781 17.203125 C 12.273438 17.042969 12.480469 16.839844 12.636719 16.75 C 12.8125 16.652344 13.011719 16.4375 13.15625 16.191406 C 13.496094 15.613281 14.226562 15.269531 14.847656 15.40625 C 15.09375 15.457031 15.589844 15.878906 15.683594 16.113281 C 15.714844 16.195312 15.921875 16.308594 16.148438 16.367188 C 16.527344 16.46875 16.671875 16.582031 16.527344 16.660156 C 16.492188 16.683594 15.925781 16.78125 15.269531 16.882812 Z M 15.269531 16.882812 "/>
<path style=" stroke:none;fill-rule:evenodd;fill:rgb(20.784314%,48.627451%,92.941177%);fill-opacity:1;" d="M 5.019531 11.648438 L 21.972656 5.644531 C 22.292969 5.527344 22.640625 5.695312 22.753906 6.015625 L 27.121094 18.34375 C 27.238281 18.660156 27.070312 19.011719 26.75 19.125 L 9.800781 25.132812 C 9.480469 25.246094 9.128906 25.078125 9.019531 24.761719 L 4.648438 12.433594 C 4.535156 12.113281 4.703125 11.761719 5.019531 11.648438 Z M 5.019531 11.648438 "/>
<path style=" stroke:none;fill-rule:nonzero;fill:rgb(100%,100%,100%);fill-opacity:1;" d="M 25.300781 15.347656 C 24.511719 15.515625 22.191406 15.792969 20.441406 15.929688 C 19.308594 16.019531 18.363281 16.082031 18.34375 16.074219 C 18.230469 16.019531 18.441406 15.597656 18.742188 15.28125 L 19.082031 14.925781 L 18.976562 14.476562 C 18.917969 14.230469 18.890625 13.878906 18.917969 13.699219 C 18.957031 13.371094 19.328125 12.722656 19.710938 12.304688 C 19.988281 12 20.929688 11.671875 21.34375 11.730469 C 21.804688 11.796875 22.285156 11.980469 22.550781 12.191406 C 22.753906 12.355469 22.824219 12.371094 23.0625 12.285156 C 23.5 12.128906 24.21875 12.179688 24.675781 12.394531 L 25.082031 12.585938 L 25.996094 15.160156 L 25.761719 15.230469 C 25.632812 15.269531 25.425781 15.324219 25.300781 15.347656 Z M 25.300781 15.347656 "/>
<path style=" stroke:none;fill-rule:nonzero;fill:rgb(80.000001%,80.000001%,80.000001%);fill-opacity:1;" d="M 17.738281 16.429688 C 17.300781 16.480469 17.285156 16.476562 17.089844 16.3125 C 16.886719 16.140625 16.640625 16.039062 16.378906 16.011719 C 16.25 16 16.261719 16.011719 16.035156 15.703125 C 15.792969 15.371094 15.542969 15.195312 15.183594 15.089844 C 15.011719 15.039062 14.894531 14.988281 14.886719 14.953125 C 14.878906 14.941406 14.886719 14.851562 14.902344 14.753906 C 15 14.105469 15.417969 13.507812 16.011719 13.179688 C 16.183594 13.082031 16.589844 12.941406 16.785156 12.902344 C 17.363281 12.800781 17.90625 12.910156 18.40625 13.230469 C 18.65625 13.390625 18.6875 13.398438 18.839844 13.363281 C 18.964844 13.328125 19.011719 13.335938 19.035156 13.390625 C 19.042969 13.414062 19.039062 13.542969 19.027344 13.683594 C 18.988281 14.058594 19.003906 14.238281 19.085938 14.675781 C 19.113281 14.832031 19.136719 14.957031 19.132812 14.960938 C 19.132812 14.964844 19.027344 15.0625 18.90625 15.183594 C 18.585938 15.488281 18.46875 15.652344 18.316406 16.003906 C 18.277344 16.097656 18.226562 16.214844 18.203125 16.261719 C 18.160156 16.34375 18.160156 16.347656 18.082031 16.375 C 18.035156 16.386719 17.882812 16.414062 17.738281 16.429688 Z M 17.738281 16.429688 "/>
<path style=" stroke:none;fill-rule:nonzero;fill:rgb(100%,100%,100%);fill-opacity:1;" d="M 15.765625 16.386719 C 15.179688 16.46875 14.285156 16.621094 13.777344 16.726562 L 12.855469 16.910156 L 13.003906 16.636719 C 13.085938 16.488281 13.269531 16.296875 13.40625 16.21875 C 13.5625 16.128906 13.738281 15.929688 13.859375 15.699219 C 14.144531 15.160156 14.792969 14.847656 15.351562 14.984375 C 15.574219 15.039062 16.027344 15.445312 16.117188 15.667969 C 16.144531 15.746094 16.332031 15.855469 16.539062 15.914062 C 16.882812 16.015625 17.011719 16.125 16.886719 16.199219 C 16.855469 16.214844 16.351562 16.300781 15.765625 16.386719 Z M 15.765625 16.386719 "/>
<path style=" stroke:none;fill-rule:nonzero;fill:rgb(31.764707%,70.19608%,16.078432%);fill-opacity:1;" d="M 8.175781 22.617188 L 7.183594 19.824219 L 7.507812 19.558594 C 8.191406 19 9.175781 18.375 10.140625 17.882812 C 10.832031 17.53125 12.085938 17.050781 12.730469 16.886719 C 14.152344 16.53125 16.441406 16.167969 18.257812 16.011719 C 23.183594 15.578125 23.761719 15.511719 25.300781 15.183594 C 25.621094 15.117188 25.914062 15.074219 25.953125 15.085938 C 26.003906 15.101562 26.164062 15.523438 26.6875 17.023438 L 27.355469 18.941406 L 9.167969 25.410156 Z M 8.175781 22.617188 "/>
<path style=" stroke:none;fill-rule:evenodd;fill:rgb(100%,100%,100%);fill-opacity:1;" d="M 8.972656 24.484375 L 26.980469 18.101562 L 27.308594 19.027344 L 9.300781 25.40625 Z M 8.972656 24.484375 "/>
<path style=" stroke:none;fill-rule:evenodd;fill:rgb(100%,100%,100%);fill-opacity:1;" d="M 4.410156 11.738281 L 22.457031 5.34375 L 22.785156 6.265625 L 4.738281 12.660156 Z M 4.410156 11.738281 "/>
<path style=" stroke:none;fill-rule:evenodd;fill:rgb(100%,100%,100%);fill-opacity:1;" d="M 4.453125 11.722656 L 9.300781 25.40625 L 8.378906 25.730469 L 3.53125 12.050781 Z M 4.453125 11.722656 "/>
<path style=" stroke:none;fill-rule:evenodd;fill:rgb(100%,100%,100%);fill-opacity:1;" d="M 23.363281 5.019531 L 28.214844 18.703125 L 27.292969 19.03125 L 22.441406 5.347656 Z M 23.363281 5.019531 "/>
</g>
</svg>
