
<svg xmlns="http://www.w3.org/2000/svg" xmlns:xlink="http://www.w3.org/1999/xlink" width="32px" height="32px" viewBox="0 0 32 32" version="1.1">
<g id="surface1">
<path style="fill-rule:nonzero;fill:rgb(100%,100%,100%);fill-opacity:1;stroke-width:0.739293;stroke-linecap:butt;stroke-linejoin:miter;stroke:rgb(0%,80.000001%,100%);stroke-opacity:1;stroke-miterlimit:4;" d="M -35.921455 398.562582 L -26.770179 398.562582 C -25.953278 398.562582 -25.290166 399.225694 -25.290166 400.042595 L -25.290166 409.193871 C -25.290166 410.010773 -25.953278 410.673885 -26.770179 410.673885 L -35.921455 410.673885 C -36.738356 410.673885 -37.401468 410.010773 -37.401468 409.193871 L -37.401468 400.042595 C -37.401468 399.225694 -36.738356 398.562582 -35.921455 398.562582 Z M -35.921455 398.562582 " transform="matrix(2.362205,0,0,2.362205,90.045237,-939.791097)"/>
<path style=" stroke:none;fill-rule:nonzero;fill:rgb(88.627452%,71.764708%,5.098039%);fill-opacity:1;" d="M 27.933594 18.808594 L 11.527344 18.808594 L 15.628906 11.707031 L 19.730469 4.597656 L 23.832031 11.707031 Z M 27.933594 18.808594 "/>
<path style=" stroke:none;fill-rule:nonzero;fill:rgb(94.509804%,76.862746%,5.882353%);fill-opacity:1;" d="M 25.925781 24.257812 L 3.597656 24.257812 L 9.175781 14.589844 L 14.761719 4.921875 Z M 25.925781 24.257812 "/>
<path style=" stroke:none;fill-rule:nonzero;fill:rgb(95.686275%,81.960785%,26.666668%);fill-opacity:1;" d="M 24.070312 26.265625 L 10.914062 26.265625 L 14.203125 20.566406 L 17.492188 14.871094 L 20.78125 20.566406 Z M 24.070312 26.265625 "/>
</g>
</svg>
