
<svg xmlns="http://www.w3.org/2000/svg" xmlns:xlink="http://www.w3.org/1999/xlink" width="32px" height="32px" viewBox="0 0 32 32" version="1.1">
<g id="surface1">
<path style="fill-rule:nonzero;fill:rgb(8.627451%,62.7451%,52.156866%);fill-opacity:1;stroke-width:1.793082;stroke-linecap:butt;stroke-linejoin:miter;stroke:rgb(5.098039%,37.254903%,30.980393%);stroke-opacity:1;stroke-miterlimit:4;" d="M 7.019531 1006.82312 L 40.980469 1006.82312 C 43.494141 1006.82312 45.539062 1008.868042 45.539062 1011.381714 L 45.539062 1045.342651 C 45.539062 1047.856323 43.494141 1049.901245 40.980469 1049.901245 L 7.019531 1049.901245 C 4.505859 1049.901245 2.460938 1047.856323 2.460938 1045.342651 L 2.460938 1011.381714 C 2.460938 1008.868042 4.505859 1006.82312 7.019531 1006.82312 Z M 7.019531 1006.82312 " transform="matrix(0.666667,0,0,0.666667,0,-669.574788)"/>
<path style="fill:none;stroke-width:1.5;stroke-linecap:butt;stroke-linejoin:miter;stroke:rgb(92.54902%,94.117647%,94.509804%);stroke-opacity:1;stroke-miterlimit:4;" d="M 38.044922 1028.362183 C 38.044922 1036.119995 31.757812 1042.407104 24 1042.407104 C 16.242188 1042.407104 9.955078 1036.119995 9.955078 1028.362183 C 9.955078 1020.60437 16.242188 1014.317261 24 1014.317261 C 31.757812 1014.317261 38.044922 1020.60437 38.044922 1028.362183 Z M 38.044922 1028.362183 " transform="matrix(0.666667,0,0,0.666667,0,-669.574788)"/>
<path style=" stroke:none;fill-rule:nonzero;fill:rgb(100%,100%,100%);fill-opacity:1;" d="M 18.835938 17.75 C 18.835938 18.148438 18.761719 18.507812 18.621094 18.832031 C 18.480469 19.15625 18.277344 19.433594 18.011719 19.675781 C 17.75 19.910156 17.425781 20.109375 17.050781 20.265625 C 16.675781 20.421875 16.246094 20.535156 15.769531 20.601562 L 15.769531 22.558594 L 14.59375 22.558594 L 14.59375 20.679688 C 14.308594 20.679688 14.023438 20.667969 13.734375 20.640625 C 13.445312 20.613281 13.164062 20.574219 12.890625 20.527344 C 12.621094 20.472656 12.363281 20.410156 12.125 20.339844 C 11.886719 20.265625 11.675781 20.179688 11.496094 20.082031 L 11.496094 18.621094 C 11.683594 18.707031 11.898438 18.800781 12.144531 18.894531 C 12.394531 18.988281 12.652344 19.074219 12.925781 19.144531 C 13.199219 19.222656 13.476562 19.28125 13.765625 19.332031 C 14.050781 19.378906 14.328125 19.402344 14.59375 19.402344 L 14.59375 15.707031 C 14.089844 15.535156 13.652344 15.355469 13.277344 15.167969 C 12.90625 14.980469 12.597656 14.769531 12.355469 14.527344 C 12.113281 14.285156 11.929688 14.011719 11.808594 13.699219 C 11.691406 13.386719 11.632812 13.019531 11.632812 12.597656 C 11.632812 12.21875 11.699219 11.871094 11.839844 11.558594 C 11.980469 11.242188 12.175781 10.964844 12.4375 10.730469 C 12.695312 10.496094 13.007812 10.300781 13.371094 10.152344 C 13.738281 10 14.144531 9.898438 14.59375 9.847656 L 14.59375 8.316406 L 15.769531 8.316406 L 15.769531 9.816406 C 16.335938 9.84375 16.859375 9.917969 17.339844 10.035156 C 17.820312 10.152344 18.25 10.300781 18.628906 10.480469 L 18.066406 11.714844 C 17.75 11.570312 17.394531 11.441406 16.996094 11.324219 C 16.597656 11.207031 16.191406 11.132812 15.769531 11.097656 L 15.769531 14.691406 C 16.269531 14.871094 16.710938 15.050781 17.09375 15.238281 C 17.476562 15.425781 17.796875 15.636719 18.054688 15.871094 C 18.3125 16.109375 18.507812 16.378906 18.636719 16.683594 C 18.769531 16.984375 18.835938 17.339844 18.835938 17.75 Z M 17.335938 17.75 C 17.335938 17.5625 17.308594 17.390625 17.25 17.234375 C 17.195312 17.078125 17.105469 16.9375 16.980469 16.808594 C 16.859375 16.683594 16.699219 16.566406 16.503906 16.457031 C 16.300781 16.347656 16.058594 16.242188 15.769531 16.140625 L 15.769531 19.316406 C 16.296875 19.238281 16.691406 19.058594 16.949219 18.78125 C 17.207031 18.503906 17.335938 18.160156 17.335938 17.75 Z M 13.128906 12.613281 C 13.128906 12.820312 13.152344 13.003906 13.203125 13.167969 C 13.25 13.328125 13.332031 13.472656 13.445312 13.605469 C 13.558594 13.742188 13.707031 13.863281 13.894531 13.972656 C 14.082031 14.078125 14.316406 14.179688 14.59375 14.277344 L 14.59375 11.136719 C 14.089844 11.222656 13.71875 11.394531 13.484375 11.648438 C 13.246094 11.902344 13.128906 12.222656 13.128906 12.613281 Z M 13.128906 12.613281 "/>
</g>
</svg>
