
<svg xmlns="http://www.w3.org/2000/svg" xmlns:xlink="http://www.w3.org/1999/xlink" width="32px" height="32px" viewBox="0 0 32 32" version="1.1">
<g id="surface1">
<path style="fill-rule:nonzero;fill:rgb(72.941178%,9.019608%,30.588236%);fill-opacity:1;stroke-width:27.878233;stroke-linecap:butt;stroke-linejoin:miter;stroke:rgb(79.215688%,35.686275%,50.588238%);stroke-opacity:1;stroke-miterlimit:4;" d="M 83.4375 27.6875 L 428.5625 27.6875 C 459.375 27.6875 484.3125 52.625 484.3125 83.4375 L 484.3125 428.5625 C 484.3125 459.375 459.375 484.3125 428.5625 484.3125 L 83.4375 484.3125 C 52.625 484.3125 27.6875 459.375 27.6875 428.5625 L 27.6875 83.4375 C 27.6875 52.625 52.625 27.6875 83.4375 27.6875 Z M 83.4375 27.6875 " transform="matrix(0.0625,0,0,0.0625,0,0)"/>
<path style=" stroke:none;fill-rule:evenodd;fill:rgb(100%,100%,100%);fill-opacity:1;" d="M 21.089844 8.582031 C 20.519531 9.121094 19.199219 10.253906 19.199219 10.253906 L 22.292969 13.367188 C 22.292969 13.367188 23.632812 11.992188 24.238281 11.421875 C 24.386719 11.277344 24.367188 10.960938 24.214844 10.820312 C 23.746094 10.378906 22.972656 9.660156 22.972656 9.660156 C 22.972656 9.660156 22.238281 8.964844 21.789062 8.535156 C 21.621094 8.382812 21.253906 8.425781 21.089844 8.582031 Z M 17.84375 11.363281 L 9.578125 19.148438 L 9.652344 22.230469 L 12.875 22.210938 L 21.050781 14.496094 Z M 17.84375 11.363281 "/>
</g>
</svg>
