
<svg xmlns="http://www.w3.org/2000/svg" xmlns:xlink="http://www.w3.org/1999/xlink" width="32px" height="32px" viewBox="0 0 32 32" version="1.1">
<g id="surface1">
<path style="fill-rule:nonzero;fill:rgb(100%,100%,100%);fill-opacity:1;stroke-width:28.191782;stroke-linecap:butt;stroke-linejoin:miter;stroke:rgb(7.058824%,69.803923%,90.588236%);stroke-opacity:1;stroke-miterlimit:4;" d="M 81.5 25.0625 L 430.5 25.0625 C 461.6875 25.0625 486.9375 50.3125 486.9375 81.5 L 486.9375 430.5 C 486.9375 461.6875 461.6875 486.9375 430.5 486.9375 L 81.5 486.9375 C 50.3125 486.9375 25.0625 461.6875 25.0625 430.5 L 25.0625 81.5 C 25.0625 50.3125 50.3125 25.0625 81.5 25.0625 Z M 81.5 25.0625 " transform="matrix(0.0625,0,0,0.0625,0,0)"/>
<path style=" stroke:none;fill-rule:nonzero;fill:rgb(7.058824%,69.803923%,90.588236%);fill-opacity:1;" d="M 16.863281 18.996094 L 21 23.132812 C 21.371094 23.503906 21.371094 24.101562 21 24.46875 L 16.863281 28.605469 C 16.496094 28.976562 15.894531 28.976562 15.527344 28.605469 L 11.390625 24.46875 C 11.019531 24.101562 11.019531 23.503906 11.390625 23.132812 L 15.527344 18.996094 C 15.894531 18.628906 16.496094 18.628906 16.863281 18.996094 Z M 16.863281 18.996094 "/>
<path style=" stroke:none;fill-rule:nonzero;fill:rgb(7.058824%,69.803923%,90.588236%);fill-opacity:1;" d="M 24.523438 11.335938 L 28.660156 15.472656 C 29.03125 15.839844 29.03125 16.441406 28.660156 16.808594 L 24.523438 20.945312 C 24.15625 21.316406 23.558594 21.316406 23.1875 20.945312 L 19.050781 16.808594 C 18.683594 16.441406 18.683594 15.839844 19.050781 15.472656 L 23.1875 11.335938 C 23.558594 10.964844 24.15625 10.964844 24.523438 11.335938 Z M 24.523438 11.335938 "/>
<path style=" stroke:none;fill-rule:nonzero;fill:rgb(7.058824%,69.803923%,90.588236%);fill-opacity:1;" d="M 16.8125 3.394531 L 20.949219 7.53125 C 21.316406 7.902344 21.308594 8.488281 20.949219 8.867188 L 12.3125 17.871094 C 11.949219 18.246094 10.96875 18.394531 10.976562 17.871094 L 11.078125 8.867188 C 11.097656 8.554688 10.96875 7.902344 11.339844 7.53125 L 15.472656 3.394531 C 15.847656 3.023438 16.441406 3.023438 16.8125 3.394531 Z M 16.8125 3.394531 "/>
<path style=" stroke:none;fill-rule:nonzero;fill:rgb(7.058824%,69.803923%,90.588236%);fill-opacity:1;" d="M 8.8125 11.402344 L 8.859375 15.535156 C 8.867188 16.058594 8.867188 16.347656 8.859375 16.875 L 8.8125 21.011719 C 8.808594 21.535156 7.847656 21.378906 7.476562 21.011719 L 3.339844 16.875 C 2.96875 16.503906 2.96875 15.90625 3.339844 15.535156 L 7.476562 11.402344 C 7.847656 11.03125 8.808594 10.878906 8.8125 11.402344 Z M 8.8125 11.402344 "/>
</g>
</svg>
