<!-- Generator: Adobe Illustrator 9.0, SVG Export Plug-In  -->
<svg xmlns="http://www.w3.org/2000/svg" xmlns:xlink="http://www.w3.org/1999/xlink" width="32px" height="32px" viewBox="0 0 32 32" version="1.1">
<defs>
<linearGradient id="linear0" gradientUnits="userSpaceOnUse" x1="-28.083" y1="1.5566" x2="122.477501" y2="179.003006" gradientTransform="matrix(0.179642,0,0,0.179642,3.810943,3.765718)">
<stop offset="0" style="stop-color:rgb(100%,100%,100%);stop-opacity:1;"/>
<stop offset="1" style="stop-color:rgb(54.901963%,54.901963%,64.313728%);stop-opacity:1;"/>
</linearGradient>
<linearGradient id="linear1" gradientUnits="userSpaceOnUse" x1="-32.7295" y1="5.502" x2="117.827301" y2="182.943893" gradientTransform="matrix(0.179642,0,0,0.179642,3.810943,3.765718)">
<stop offset="0" style="stop-color:rgb(100%,100%,100%);stop-opacity:1;"/>
<stop offset="1" style="stop-color:rgb(54.901963%,54.901963%,64.313728%);stop-opacity:1;"/>
</linearGradient>
<linearGradient id="linear2" gradientUnits="userSpaceOnUse" x1="-45.7183" y1="16.5156" x2="104.847801" y2="193.968597" gradientTransform="matrix(0.179642,0,0,0.179642,3.810943,3.765718)">
<stop offset="0" style="stop-color:rgb(100%,100%,100%);stop-opacity:1;"/>
<stop offset="1" style="stop-color:rgb(54.901963%,54.901963%,64.313728%);stop-opacity:1;"/>
</linearGradient>
<linearGradient id="linear3" gradientUnits="userSpaceOnUse" x1="4.0088" y1="-25.6621" x2="154.5634" y2="151.777298" gradientTransform="matrix(0.179642,0,0,0.179642,3.810943,3.765718)">
<stop offset="0" style="stop-color:rgb(100%,100%,100%);stop-opacity:1;"/>
<stop offset="1" style="stop-color:rgb(54.901963%,54.901963%,64.313728%);stop-opacity:1;"/>
</linearGradient>
<linearGradient id="linear4" gradientUnits="userSpaceOnUse" x1="-2.0176" y1="-20.553699" x2="148.538193" y2="156.8871" gradientTransform="matrix(0.179642,0,0,0.179642,3.810943,3.765718)">
<stop offset="0" style="stop-color:rgb(100%,100%,100%);stop-opacity:1;"/>
<stop offset="1" style="stop-color:rgb(54.901963%,54.901963%,64.313728%);stop-opacity:1;"/>
</linearGradient>
<linearGradient id="linear5" gradientUnits="userSpaceOnUse" x1="-9.1904" y1="-14.3975" x2="141.238205" y2="162.893402" gradientTransform="matrix(0.179642,0,0,0.179642,3.810943,3.765718)">
<stop offset="0" style="stop-color:rgb(100%,100%,100%);stop-opacity:1;"/>
<stop offset="1" style="stop-color:rgb(54.901963%,54.901963%,64.313728%);stop-opacity:1;"/>
</linearGradient>
<linearGradient id="linear6" gradientUnits="userSpaceOnUse" x1="35.362301" y1="37.130901" x2="170.087402" y2="197.817001" gradientTransform="matrix(0.179642,0,0,0.179642,3.810943,3.765718)">
<stop offset="0" style="stop-color:rgb(100%,100%,100%);stop-opacity:1;"/>
<stop offset="0.178" style="stop-color:rgb(98.431373%,98.431373%,98.823529%);stop-opacity:1;"/>
<stop offset="0.367" style="stop-color:rgb(93.333334%,93.333334%,94.901961%);stop-opacity:1;"/>
<stop offset="0.5612" style="stop-color:rgb(85.09804%,85.09804%,88.235295%);stop-opacity:1;"/>
<stop offset="0.7589" style="stop-color:rgb(73.333335%,73.333335%,78.823531%);stop-opacity:1;"/>
<stop offset="0.9575" style="stop-color:rgb(58.431375%,58.431375%,67.058825%);stop-opacity:1;"/>
<stop offset="1" style="stop-color:rgb(54.901963%,54.901963%,64.313728%);stop-opacity:1;"/>
</linearGradient>
<clipPath id="clip1">
  <path d="M 9.1875 7.332031 L 25.1875 7.332031 L 25.1875 23.3125 L 9.1875 23.3125 Z M 9.1875 7.332031 "/>
</clipPath>
<clipPath id="clip2">
  <path d="M 25.1875 15.316406 C 25.1875 19.714844 21.617188 23.28125 17.214844 23.28125 C 12.816406 23.28125 9.246094 19.714844 9.246094 15.316406 C 9.246094 10.917969 12.816406 7.347656 17.214844 7.347656 C 21.617188 7.347656 25.1875 10.917969 25.1875 15.316406 Z M 25.1875 15.316406 "/>
</clipPath>
</defs>
<g id="surface1">
<path style="fill-rule:nonzero;fill:rgb(100%,100%,100%);fill-opacity:1;stroke-width:7.874994;stroke-linecap:butt;stroke-linejoin:miter;stroke:rgb(12.156863%,58.039218%,72.156864%);stroke-opacity:1;stroke-miterlimit:4;" d="M 23.255884 7.505867 L 120.744267 7.505867 C 129.445448 7.505867 136.494283 14.554703 136.494283 23.255884 L 136.494283 120.744267 C 136.494283 129.445448 129.445448 136.494283 120.744267 136.494283 L 23.255884 136.494283 C 14.554703 136.494283 7.505867 129.445448 7.505867 120.744267 L 7.505867 23.255884 C 7.505867 14.554703 14.554703 7.505867 23.255884 7.505867 Z M 23.255884 7.505867 " transform="matrix(0.222222,0,0,0.222222,0,0)"/>
<path style=" stroke:none;fill-rule:nonzero;fill:rgb(53.725493%,57.647061%,60.784316%);fill-opacity:1;" d="M 28.363281 25.410156 L 27.457031 26.3125 L 24.941406 23.796875 L 25.847656 22.894531 Z M 28.363281 25.410156 "/>
<path style=" stroke:none;fill-rule:nonzero;fill:rgb(53.725493%,57.647061%,60.784316%);fill-opacity:1;" d="M 25.847656 22.773438 C 25.8125 22.773438 25.785156 22.785156 25.761719 22.808594 L 24.855469 23.714844 C 24.808594 23.757812 24.808594 23.835938 24.855469 23.882812 L 27.371094 26.398438 C 27.421875 26.445312 27.496094 26.445312 27.542969 26.398438 L 28.449219 25.496094 C 28.496094 25.449219 28.496094 25.371094 28.449219 25.324219 L 25.929688 22.808594 C 25.910156 22.785156 25.878906 22.773438 25.847656 22.773438 Z M 25.847656 23.066406 C 26 23.21875 28.035156 25.257812 28.191406 25.410156 C 28.066406 25.535156 27.582031 26.019531 27.457031 26.144531 C 27.304688 25.988281 25.269531 23.949219 25.113281 23.796875 C 25.238281 23.671875 25.722656 23.191406 25.847656 23.066406 Z M 25.847656 23.066406 "/>
<path style=" stroke:none;fill-rule:nonzero;fill:rgb(53.725493%,57.647061%,60.784316%);fill-opacity:1;" d="M 9.527344 6.574219 L 8.621094 7.476562 L 6.105469 4.960938 L 7.011719 4.058594 Z M 9.527344 6.574219 "/>
<path style=" stroke:none;fill-rule:nonzero;fill:rgb(53.725493%,57.647061%,60.784316%);fill-opacity:1;" d="M 7.011719 3.9375 C 6.976562 3.9375 6.949219 3.949219 6.925781 3.972656 L 6.019531 4.875 C 5.972656 4.921875 5.972656 5 6.019531 5.046875 L 8.535156 7.5625 C 8.582031 7.609375 8.660156 7.609375 8.707031 7.5625 L 9.613281 6.660156 C 9.660156 6.613281 9.660156 6.535156 9.613281 6.488281 L 7.09375 3.972656 C 7.074219 3.949219 7.042969 3.9375 7.011719 3.9375 Z M 7.011719 4.230469 C 7.164062 4.382812 9.199219 6.417969 9.355469 6.574219 C 9.230469 6.699219 8.746094 7.183594 8.621094 7.308594 C 8.46875 7.152344 6.429688 5.113281 6.277344 4.960938 C 6.402344 4.835938 6.886719 4.355469 7.011719 4.230469 Z M 7.011719 4.230469 "/>
<path style=" stroke:none;fill-rule:nonzero;fill:url(#linear0);" d="M 18.386719 28.292969 L 15.75 28.292969 L 14.882812 24.121094 L 19.402344 24.140625 Z M 18.386719 28.292969 "/>
<path style=" stroke:none;fill-rule:nonzero;fill:rgb(53.725493%,57.647061%,60.784316%);fill-opacity:1;" d="M 14.695312 23.96875 C 14.652344 24.023438 14.632812 24.097656 14.644531 24.171875 L 15.511719 28.339844 C 15.535156 28.453125 15.636719 28.535156 15.75 28.535156 L 18.386719 28.535156 C 18.5 28.535156 18.597656 28.457031 18.621094 28.347656 L 19.636719 24.199219 C 19.65625 24.125 19.640625 24.050781 19.59375 23.992188 C 19.550781 23.933594 19.480469 23.898438 19.402344 23.898438 L 14.882812 23.878906 C 14.808594 23.878906 14.742188 23.910156 14.695312 23.96875 Z M 15.179688 24.363281 C 15.660156 24.363281 18.601562 24.378906 19.097656 24.378906 C 18.976562 24.867188 18.277344 27.738281 18.199219 28.050781 C 17.898438 28.050781 16.257812 28.050781 15.949219 28.050781 C 15.878906 27.726562 15.277344 24.84375 15.179688 24.363281 Z M 15.179688 24.363281 "/>
<path style=" stroke:none;fill-rule:nonzero;fill:rgb(87.058824%,91.764706%,98.431373%);fill-opacity:1;" d="M 17.917969 28.050781 L 16.164062 28.050781 L 15.636719 23.890625 L 18.597656 23.949219 Z M 17.917969 28.050781 "/>
<path style=" stroke:none;fill-rule:nonzero;fill:url(#linear1);" d="M 4.195312 16.347656 L 4.195312 13.710938 L 8.367188 12.84375 L 8.347656 17.363281 Z M 4.195312 16.347656 "/>
<path style=" stroke:none;fill-rule:nonzero;fill:rgb(53.725493%,57.647061%,60.784316%);fill-opacity:1;" d="M 8.316406 12.605469 L 4.148438 13.472656 C 4.035156 13.496094 3.957031 13.597656 3.957031 13.707031 L 3.957031 16.347656 C 3.957031 16.457031 4.03125 16.558594 4.136719 16.582031 L 8.292969 17.597656 C 8.363281 17.613281 8.4375 17.597656 8.496094 17.554688 C 8.554688 17.507812 8.589844 17.4375 8.589844 17.363281 L 8.609375 12.84375 C 8.609375 12.769531 8.574219 12.699219 8.519531 12.65625 C 8.464844 12.609375 8.386719 12.589844 8.316406 12.605469 Z M 8.125 13.140625 C 8.121094 13.621094 8.109375 16.5625 8.105469 17.058594 C 7.621094 16.9375 4.75 16.234375 4.4375 16.160156 C 4.4375 15.859375 4.4375 14.214844 4.4375 13.90625 C 4.761719 13.839844 7.644531 13.238281 8.125 13.140625 Z M 8.125 13.140625 "/>
<path style=" stroke:none;fill-rule:nonzero;fill:rgb(87.058824%,91.764706%,98.431373%);fill-opacity:1;" d="M 4.4375 15.878906 L 4.433594 14.125 L 8.597656 13.597656 L 8.535156 16.558594 Z M 4.4375 15.878906 "/>
<path style=" stroke:none;fill-rule:nonzero;fill:url(#linear2);" d="M 8.800781 25.386719 L 6.933594 23.523438 L 9.269531 19.960938 L 12.453125 23.167969 Z M 8.800781 25.386719 "/>
<path style=" stroke:none;fill-rule:nonzero;fill:rgb(53.725493%,57.647061%,60.784316%);fill-opacity:1;" d="M 9.246094 19.71875 C 9.175781 19.726562 9.109375 19.769531 9.066406 19.828125 L 6.730469 23.390625 C 6.667969 23.484375 6.683594 23.613281 6.761719 23.691406 L 8.628906 25.558594 C 8.707031 25.636719 8.832031 25.652344 8.925781 25.59375 L 12.578125 23.378906 C 12.644531 23.339844 12.683594 23.273438 12.691406 23.199219 C 12.703125 23.125 12.675781 23.050781 12.625 23 L 9.441406 19.789062 C 9.390625 19.738281 9.316406 19.714844 9.246094 19.71875 Z M 9.308594 20.339844 C 9.648438 20.683594 11.71875 22.769531 12.066406 23.121094 C 11.636719 23.382812 9.113281 24.917969 8.839844 25.082031 C 8.625 24.871094 7.464844 23.710938 7.246094 23.488281 C 7.425781 23.214844 9.039062 20.753906 9.308594 20.339844 Z M 9.308594 20.339844 "/>
<path style=" stroke:none;fill-rule:nonzero;fill:rgb(87.058824%,91.764706%,98.431373%);fill-opacity:1;" d="M 8.640625 24.886719 L 7.398438 23.644531 L 9.96875 20.332031 L 12.019531 22.464844 Z M 8.640625 24.886719 "/>
<path style=" stroke:none;fill-rule:nonzero;fill:url(#linear3);" d="M 27.367188 23.628906 L 25.503906 25.492188 L 21.941406 23.15625 L 25.152344 19.972656 Z M 27.367188 23.628906 "/>
<path style=" stroke:none;fill-rule:nonzero;fill:rgb(53.725493%,57.647061%,60.784316%);fill-opacity:1;" d="M 24.980469 19.800781 L 21.769531 22.984375 C 21.71875 23.035156 21.691406 23.109375 21.699219 23.183594 C 21.707031 23.253906 21.746094 23.320312 21.808594 23.359375 L 25.371094 25.695312 C 25.464844 25.757812 25.589844 25.746094 25.675781 25.664062 L 27.539062 23.796875 C 27.617188 23.71875 27.632812 23.597656 27.574219 23.503906 L 25.355469 19.847656 C 25.316406 19.785156 25.253906 19.742188 25.179688 19.734375 C 25.105469 19.722656 25.035156 19.75 24.980469 19.800781 Z M 25.101562 20.359375 C 25.363281 20.792969 26.898438 23.316406 27.0625 23.589844 C 26.851562 23.800781 25.691406 24.964844 25.472656 25.183594 C 25.191406 25 22.730469 23.386719 22.324219 23.121094 C 22.664062 22.777344 24.75 20.707031 25.101562 20.359375 Z M 25.101562 20.359375 "/>
<path style=" stroke:none;fill-rule:nonzero;fill:rgb(87.058824%,91.764706%,98.431373%);fill-opacity:1;" d="M 26.867188 23.785156 L 25.628906 25.027344 L 22.3125 22.457031 L 24.445312 20.410156 Z M 26.867188 23.785156 "/>
<path style=" stroke:none;fill-rule:nonzero;fill:url(#linear4);" d="M 7.097656 6.820312 L 8.964844 4.957031 L 12.527344 7.289062 L 9.316406 10.472656 Z M 7.097656 6.820312 "/>
<path style=" stroke:none;fill-rule:nonzero;fill:rgb(53.725493%,57.647061%,60.784316%);fill-opacity:1;" d="M 8.792969 4.785156 L 6.929688 6.652344 C 6.847656 6.730469 6.835938 6.851562 6.894531 6.945312 L 9.113281 10.597656 C 9.148438 10.660156 9.214844 10.707031 9.289062 10.714844 C 9.363281 10.722656 9.433594 10.699219 9.488281 10.644531 L 12.699219 7.460938 C 12.75 7.410156 12.773438 7.339844 12.769531 7.265625 C 12.761719 7.191406 12.722656 7.128906 12.660156 7.089844 L 9.097656 4.753906 C 9.003906 4.691406 8.875 4.703125 8.792969 4.785156 Z M 8.996094 5.265625 C 9.273438 5.445312 11.734375 7.058594 12.144531 7.328125 C 11.800781 7.667969 9.714844 9.738281 9.363281 10.085938 C 9.105469 9.65625 7.570312 7.128906 7.402344 6.855469 C 7.617188 6.644531 8.777344 5.484375 8.996094 5.265625 Z M 8.996094 5.265625 "/>
<path style=" stroke:none;fill-rule:nonzero;fill:rgb(87.058824%,91.764706%,98.431373%);fill-opacity:1;" d="M 7.601562 6.660156 L 8.839844 5.417969 L 12.15625 7.988281 L 10.019531 10.039062 Z M 7.601562 6.660156 "/>
<path style=" stroke:none;fill-rule:nonzero;fill:url(#linear5);" d="M 17.214844 23.398438 C 12.75 23.398438 9.128906 19.777344 9.128906 15.3125 C 9.128906 11.867188 11.285156 8.925781 14.324219 7.761719 L 14.066406 6.601562 C 10.503906 7.890625 7.957031 11.304688 7.957031 15.3125 C 7.957031 20.425781 12.101562 24.574219 17.214844 24.574219 C 21.203125 24.574219 24.605469 22.050781 25.90625 18.511719 L 24.769531 18.199219 C 23.605469 21.238281 20.664062 23.398438 17.214844 23.398438 Z M 17.214844 23.398438 "/>
<path style=" stroke:none;fill-rule:nonzero;fill:url(#linear6);" d="M 17.214844 23.519531 C 12.691406 23.519531 9.007812 19.839844 9.007812 15.3125 C 9.007812 11.972656 11.085938 8.925781 14.183594 7.691406 C 14.164062 7.605469 14.113281 7.367188 14.0625 7.144531 C 10.773438 8.410156 8.4375 11.59375 8.4375 15.328125 C 8.4375 20.167969 12.363281 24.089844 17.199219 24.089844 C 20.921875 24.089844 24.101562 21.765625 25.371094 18.488281 C 25.15625 18.429688 24.921875 18.367188 24.835938 18.34375 C 23.605469 21.441406 20.558594 23.519531 17.214844 23.519531 Z M 17.214844 23.519531 "/>
<path style=" stroke:none;fill-rule:nonzero;fill:rgb(53.725493%,57.647061%,60.784316%);fill-opacity:1;" d="M 26.011719 18.457031 C 25.996094 18.425781 25.972656 18.402344 25.9375 18.394531 L 24.800781 18.082031 C 24.746094 18.066406 24.6875 18.09375 24.660156 18.144531 L 25.421875 18.355469 C 25.40625 18.402344 25.386719 18.445312 25.371094 18.488281 C 25.523438 18.53125 25.667969 18.570312 25.742188 18.589844 C 24.390625 22.101562 20.984375 24.449219 17.214844 24.449219 C 12.175781 24.449219 8.074219 20.351562 8.074219 15.3125 C 8.074219 11.519531 10.445312 8.105469 13.980469 6.769531 C 13.996094 6.847656 14.027344 6.992188 14.0625 7.144531 C 14.117188 7.125 14.167969 7.105469 14.222656 7.085938 L 14.390625 7.859375 C 14.429688 7.832031 14.449219 7.785156 14.441406 7.738281 L 14.183594 6.574219 C 14.175781 6.542969 14.15625 6.511719 14.125 6.496094 C 14.097656 6.480469 14.058594 6.476562 14.027344 6.488281 C 10.324219 7.828125 7.832031 11.371094 7.832031 15.3125 C 7.832031 20.484375 12.042969 24.691406 17.214844 24.691406 C 21.128906 24.691406 24.667969 22.226562 26.019531 18.554688 C 26.03125 18.519531 26.027344 18.488281 26.011719 18.457031 Z M 26.011719 18.457031 "/>
<path style=" stroke:none;fill-rule:nonzero;fill:rgb(54.509807%,57.647061%,61.176473%);fill-opacity:1;" d="M 14.0625 7.144531 C 14.113281 7.367188 14.164062 7.605469 14.183594 7.691406 C 11.085938 8.925781 9.007812 11.972656 9.007812 15.3125 C 9.007812 19.839844 12.691406 23.519531 17.214844 23.519531 C 20.558594 23.519531 23.605469 21.441406 24.835938 18.34375 C 24.925781 18.367188 25.15625 18.429688 25.371094 18.488281 C 25.386719 18.445312 25.40625 18.398438 25.425781 18.355469 L 24.660156 18.144531 C 24.660156 18.148438 24.65625 18.152344 24.652344 18.15625 C 23.484375 21.21875 20.496094 23.277344 17.214844 23.277344 C 12.824219 23.277344 9.25 19.703125 9.25 15.3125 C 9.25 12.035156 11.308594 9.050781 14.363281 7.875 C 14.375 7.871094 14.382812 7.863281 14.390625 7.859375 L 14.222656 7.085938 C 14.167969 7.105469 14.117188 7.125 14.066406 7.144531 Z M 14.0625 7.144531 "/>
<g clip-path="url(#clip1)" clip-rule="nonzero">
<g clip-path="url(#clip2)" clip-rule="nonzero">
<path style=" stroke:none;fill-rule:nonzero;fill:rgb(12.156863%,58.039218%,72.156864%);fill-opacity:1;" d="M 16.527344 23.339844 C 16.480469 23.308594 16.480469 23.300781 16.527344 23.269531 C 16.558594 23.25 16.601562 23.234375 16.628906 23.234375 C 16.722656 23.234375 17.316406 23.015625 17.667969 22.847656 C 17.871094 22.753906 18.046875 22.679688 18.0625 22.679688 C 18.078125 22.679688 18.089844 22.710938 18.089844 22.746094 C 18.089844 22.832031 17.953125 23.269531 17.910156 23.332031 C 17.867188 23.382812 16.609375 23.390625 16.527344 23.339844 Z M 18.285156 23.269531 C 18.265625 23.242188 18.53125 22.398438 18.589844 22.308594 C 18.605469 22.285156 18.769531 22.175781 18.953125 22.066406 C 19.355469 21.832031 19.777344 21.542969 20.019531 21.339844 L 20.191406 21.195312 L 20.800781 21.214844 C 21.347656 21.226562 22.386719 21.164062 22.722656 21.097656 C 22.878906 21.066406 22.835938 21.15625 22.597656 21.363281 C 21.527344 22.304688 20.167969 22.964844 18.769531 23.238281 C 18.375 23.3125 18.3125 23.316406 18.285156 23.269531 Z M 15.449219 23.199219 C 15.285156 23.167969 14.910156 23.058594 14.613281 22.957031 L 14.070312 22.773438 L 13.917969 22.5625 C 13.207031 21.578125 12.691406 20.019531 12.613281 18.621094 L 12.59375 18.226562 L 12.675781 18.253906 C 12.722656 18.269531 12.832031 18.316406 12.917969 18.355469 C 13.460938 18.628906 14.238281 18.914062 14.683594 19.003906 C 14.773438 19.019531 14.941406 19.105469 15.097656 19.21875 C 15.550781 19.53125 16.035156 19.816406 16.585938 20.082031 C 17.300781 20.425781 17.480469 20.503906 17.988281 20.667969 C 18.226562 20.746094 18.4375 20.824219 18.453125 20.839844 C 18.515625 20.902344 18.292969 22.1875 18.199219 22.300781 C 18.09375 22.425781 17.492188 22.78125 17.113281 22.941406 C 16.328125 23.269531 16.015625 23.320312 15.449219 23.199219 Z M 13.457031 22.480469 C 12.417969 21.933594 11.300781 20.925781 10.636719 19.9375 C 9.792969 18.683594 9.332031 17.425781 9.152344 15.882812 C 9.136719 15.769531 9.140625 15.699219 9.164062 15.699219 C 9.183594 15.699219 9.253906 15.792969 9.324219 15.902344 C 9.882812 16.777344 10.699219 17.527344 11.667969 18.042969 L 11.925781 18.183594 L 12.003906 18.652344 C 12.175781 19.65625 12.449219 20.5 12.863281 21.277344 C 13.078125 21.679688 13.34375 22.089844 13.546875 22.335938 C 13.621094 22.425781 13.679688 22.507812 13.679688 22.519531 C 13.679688 22.558594 13.558594 22.539062 13.457031 22.480469 Z M 18.773438 21.769531 C 18.785156 21.722656 18.832031 21.535156 18.871094 21.34375 L 18.949219 20.996094 L 19.222656 20.957031 C 19.644531 20.894531 19.65625 20.894531 19.65625 21.003906 C 19.65625 21.097656 19.542969 21.222656 19.050781 21.652344 C 18.8125 21.863281 18.730469 21.894531 18.773438 21.769531 Z M 21.566406 20.921875 C 21.496094 20.914062 21.222656 20.882812 20.957031 20.855469 C 20.691406 20.824219 20.457031 20.785156 20.441406 20.773438 C 20.425781 20.757812 20.53125 20.613281 20.671875 20.449219 C 20.8125 20.289062 20.972656 20.097656 21.027344 20.019531 C 21.085938 19.945312 21.222656 19.769531 21.332031 19.628906 C 21.636719 19.246094 21.855469 18.90625 22.074219 18.492188 C 22.214844 18.230469 22.300781 18.105469 22.375 18.066406 C 22.886719 17.785156 23.472656 17.375 23.898438 16.996094 C 23.992188 16.914062 24.082031 16.847656 24.097656 16.847656 C 24.214844 16.847656 24.273438 18.640625 24.175781 19.242188 C 24.132812 19.503906 24.105469 19.570312 23.941406 19.816406 C 23.664062 20.238281 23.222656 20.777344 23.089844 20.855469 C 22.984375 20.917969 22.90625 20.925781 22.332031 20.929688 C 21.976562 20.933594 21.632812 20.929688 21.566406 20.921875 Z M 19.464844 20.609375 C 19.253906 20.558594 19.0625 20.503906 19.042969 20.480469 C 19.011719 20.449219 19.007812 20.394531 19.03125 20.285156 C 19.046875 20.199219 19.074219 19.824219 19.085938 19.457031 C 19.105469 18.992188 19.121094 18.777344 19.152344 18.753906 C 19.175781 18.734375 19.398438 18.679688 19.644531 18.636719 C 20.289062 18.515625 20.808594 18.390625 21.164062 18.269531 C 21.335938 18.214844 21.488281 18.179688 21.503906 18.191406 C 21.550781 18.242188 20.9375 19.351562 20.476562 20.042969 C 20.140625 20.546875 20.007812 20.699219 19.917969 20.699219 C 19.878906 20.695312 19.675781 20.65625 19.464844 20.609375 Z M 18.195312 20.234375 C 17.539062 19.980469 16.589844 19.503906 16.140625 19.203125 C 15.683594 18.894531 15.574219 18.796875 16.046875 18.8125 C 16.78125 18.835938 17.0625 18.839844 17.917969 18.792969 L 18.621094 18.753906 L 18.570312 19.738281 C 18.566406 20.097656 18.546875 20.332031 18.527344 20.339844 C 18.507812 20.34375 18.359375 20.296875 18.195312 20.234375 Z M 24.433594 18.902344 C 24.425781 18.886719 24.441406 18.632812 24.472656 18.339844 C 24.507812 17.960938 24.519531 17.566406 24.507812 17.003906 L 24.492188 16.207031 L 24.894531 15.789062 C 25.117188 15.558594 25.3125 15.363281 25.332031 15.359375 C 25.417969 15.320312 25.261719 16.652344 25.105469 17.277344 C 24.972656 17.804688 24.535156 18.929688 24.464844 18.929688 C 24.457031 18.929688 24.445312 18.917969 24.433594 18.902344 Z M 16.339844 18.355469 C 15.925781 18.328125 15.324219 18.269531 14.949219 18.214844 C 14.613281 18.164062 14.550781 18.144531 14.425781 18.042969 C 13.824219 17.558594 12.707031 16.304688 12.707031 16.117188 C 12.707031 15.957031 13.070312 14.503906 13.128906 14.441406 C 13.140625 14.425781 13.363281 14.367188 13.621094 14.3125 C 14.542969 14.117188 15.773438 13.746094 16.410156 13.46875 C 16.523438 13.417969 16.761719 13.316406 16.941406 13.238281 C 17.121094 13.160156 17.28125 13.109375 17.296875 13.121094 C 17.347656 13.175781 17.742188 14.207031 17.898438 14.695312 C 18.042969 15.148438 18.21875 15.863281 18.351562 16.519531 C 18.40625 16.785156 18.488281 17.390625 18.539062 17.871094 C 18.554688 18.042969 18.574219 18.207031 18.582031 18.234375 C 18.59375 18.277344 18.546875 18.292969 18.371094 18.308594 C 18.074219 18.339844 16.605469 18.371094 16.339844 18.355469 Z M 19.085938 18.207031 C 19.074219 18.191406 19.050781 17.984375 19.03125 17.746094 C 18.941406 16.714844 18.851562 16.167969 18.628906 15.339844 C 18.449219 14.671875 18.214844 14.027344 17.917969 13.359375 C 17.804688 13.105469 17.710938 12.863281 17.710938 12.824219 C 17.710938 12.714844 17.800781 12.644531 18.25 12.402344 C 19.355469 11.816406 20.15625 11.300781 20.582031 10.902344 C 20.664062 10.824219 20.714844 10.800781 20.777344 10.816406 C 20.824219 10.832031 21.027344 11.027344 21.246094 11.265625 C 21.839844 11.917969 22.15625 12.324219 22.566406 12.953125 L 22.71875 13.183594 L 22.695312 13.707031 C 22.675781 14.207031 22.582031 15.0625 22.503906 15.457031 C 22.425781 15.871094 22.207031 16.632812 22.027344 17.15625 L 21.933594 17.410156 L 21.722656 17.511719 C 21.476562 17.621094 20.683594 17.890625 20.355469 17.972656 C 20.136719 18.03125 19.175781 18.234375 19.128906 18.234375 C 19.113281 18.234375 19.097656 18.222656 19.085938 18.207031 Z M 13.050781 17.800781 C 12.824219 17.738281 12.628906 17.675781 12.613281 17.667969 C 12.59375 17.65625 12.585938 17.480469 12.59375 17.273438 C 12.609375 16.871094 12.625 16.742188 12.667969 16.746094 C 12.679688 16.746094 12.769531 16.847656 12.863281 16.972656 C 13.054688 17.226562 13.292969 17.503906 13.535156 17.757812 L 13.691406 17.921875 L 13.574219 17.917969 C 13.507812 17.917969 13.273438 17.863281 13.050781 17.800781 Z M 11.386719 17.167969 C 10.699219 16.796875 10.183594 16.425781 9.71875 15.976562 C 9.371094 15.636719 9.136719 15.335938 9.113281 15.195312 C 9.082031 15.042969 9.113281 14.597656 9.152344 14.554688 C 9.167969 14.539062 9.308594 14.542969 9.460938 14.558594 C 9.613281 14.578125 10.082031 14.597656 10.503906 14.601562 L 11.269531 14.609375 L 11.441406 14.957031 C 11.535156 15.144531 11.699219 15.445312 11.796875 15.621094 L 11.980469 15.941406 L 11.945312 16.351562 C 11.925781 16.574219 11.910156 16.902344 11.910156 17.082031 C 11.910156 17.316406 11.898438 17.402344 11.867188 17.402344 C 11.839844 17.402344 11.628906 17.296875 11.386719 17.167969 Z M 22.675781 16.941406 C 22.675781 16.894531 22.714844 16.742188 22.765625 16.601562 C 22.902344 16.199219 23.140625 15.011719 23.183594 14.496094 C 23.195312 14.339844 23.222656 14.207031 23.238281 14.207031 C 23.34375 14.207031 24.070312 16 24.019531 16.136719 C 23.992188 16.207031 22.773438 17.019531 22.691406 17.019531 C 22.683594 17.019531 22.675781 16.984375 22.675781 16.941406 Z M 24.332031 15.777344 C 24.324219 15.765625 24.277344 15.605469 24.226562 15.425781 C 24.003906 14.621094 23.707031 13.84375 23.378906 13.203125 C 23.171875 12.800781 23.152344 12.742188 23.105469 12.402344 C 22.972656 11.367188 22.707031 10.4375 22.308594 9.628906 C 22.082031 9.160156 22.082031 9.160156 22.152344 9.09375 C 22.253906 8.996094 22.316406 9.035156 22.761719 9.457031 C 23.761719 10.410156 24.453125 11.457031 24.910156 12.714844 C 25.078125 13.167969 25.171875 13.546875 25.265625 14.136719 C 25.34375 14.628906 25.34375 14.644531 25.285156 14.78125 C 25.175781 15.027344 24.378906 15.863281 24.332031 15.777344 Z M 11.898438 14.878906 C 11.667969 14.445312 11.683594 14.363281 11.980469 14.472656 C 12.078125 14.507812 12.171875 14.550781 12.1875 14.574219 C 12.207031 14.597656 12.199219 14.722656 12.167969 14.886719 C 12.144531 15.039062 12.121094 15.167969 12.121094 15.171875 C 12.117188 15.175781 12.105469 15.179688 12.089844 15.179688 C 12.074219 15.179688 11.988281 15.042969 11.898438 14.878906 Z M 9.617188 14.144531 L 9.21875 14.121094 L 9.207031 14.023438 C 9.164062 13.652344 9.597656 12.355469 10.003906 11.617188 C 10.222656 11.222656 10.304688 11.109375 10.347656 11.136719 C 10.363281 11.144531 10.386719 11.257812 10.398438 11.386719 C 10.453125 11.917969 10.714844 12.980469 10.957031 13.644531 C 11.082031 13.988281 11.105469 14.085938 11.070312 14.109375 C 11.042969 14.125 10.890625 14.136719 10.722656 14.136719 C 10.558594 14.136719 10.332031 14.144531 10.222656 14.152344 C 10.109375 14.160156 9.835938 14.152344 9.617188 14.144531 Z M 11.46875 14.027344 C 11.402344 13.925781 11.265625 13.558594 11.074219 12.996094 C 10.878906 12.410156 10.746094 11.886719 10.589844 11.058594 L 10.515625 10.664062 L 10.707031 10.40625 C 11.128906 9.847656 11.789062 9.234375 12.449219 8.785156 C 12.855469 8.511719 13.300781 8.257812 13.371094 8.261719 C 13.496094 8.273438 14.304688 8.878906 14.824219 9.355469 L 15.078125 9.585938 L 14.875 9.804688 C 13.820312 10.949219 13.039062 12.203125 12.535156 13.558594 C 12.453125 13.777344 12.363281 13.972656 12.332031 13.980469 C 12.28125 14.003906 11.707031 14.066406 11.574219 14.070312 C 11.53125 14.070312 11.484375 14.050781 11.46875 14.027344 Z M 13.332031 13.707031 C 13.332031 13.621094 13.742188 12.6875 13.96875 12.265625 C 14.378906 11.488281 15.296875 10.148438 15.417969 10.148438 C 15.488281 10.148438 16.050781 10.855469 16.421875 11.410156 C 16.695312 11.828125 17.078125 12.488281 17.058594 12.519531 C 17.035156 12.558594 16.683594 12.714844 16.164062 12.925781 C 15.378906 13.238281 14.644531 13.476562 13.914062 13.65625 C 13.449219 13.769531 13.332031 13.78125 13.332031 13.707031 Z M 17.441406 12.253906 C 17.425781 12.230469 17.347656 12.113281 17.277344 11.988281 C 16.902344 11.351562 16.40625 10.667969 15.949219 10.15625 C 15.789062 9.980469 15.660156 9.808594 15.660156 9.769531 C 15.660156 9.679688 16.167969 9.203125 16.65625 8.839844 C 17.183594 8.445312 17.167969 8.453125 17.453125 8.566406 C 18.339844 8.921875 19.273438 9.449219 19.980469 9.988281 C 20.128906 10.105469 20.296875 10.230469 20.355469 10.269531 C 20.410156 10.308594 20.449219 10.355469 20.441406 10.371094 C 20.394531 10.519531 18.800781 11.605469 17.882812 12.113281 C 17.53125 12.3125 17.496094 12.324219 17.441406 12.253906 Z M 22.554688 11.855469 C 22.535156 11.839844 22.394531 11.675781 22.242188 11.484375 C 22.089844 11.292969 21.78125 10.949219 21.558594 10.714844 C 21.300781 10.449219 21.148438 10.269531 21.148438 10.222656 C 21.148438 10.15625 21.292969 10.035156 21.882812 9.597656 C 21.941406 9.550781 21.957031 9.566406 22.046875 9.769531 C 22.269531 10.257812 22.542969 11.222656 22.59375 11.667969 C 22.617188 11.890625 22.613281 11.898438 22.554688 11.855469 Z M 20.75 9.976562 C 20.714844 9.917969 20.050781 9.425781 19.695312 9.199219 C 19.199219 8.878906 18.246094 8.394531 17.820312 8.246094 C 17.660156 8.191406 17.609375 8.125 17.671875 8.050781 C 17.730469 7.980469 18.261719 7.757812 18.722656 7.613281 L 19.125 7.484375 L 19.347656 7.542969 C 19.753906 7.648438 20.398438 7.894531 20.828125 8.109375 L 21.253906 8.324219 L 21.53125 8.695312 C 21.683594 8.902344 21.808594 9.078125 21.808594 9.089844 C 21.808594 9.125 21.050781 9.875 20.941406 9.949219 C 20.84375 10.015625 20.78125 10.023438 20.75 9.976562 Z M 15.136719 9.324219 C 14.996094 9.15625 14.183594 8.503906 13.742188 8.207031 C 13.652344 8.144531 13.578125 8.082031 13.578125 8.066406 C 13.578125 8.003906 13.675781 7.964844 13.996094 7.886719 C 14.3125 7.8125 14.34375 7.8125 14.894531 7.855469 C 15.734375 7.917969 16.707031 8.105469 16.746094 8.214844 C 16.773438 8.285156 16.738281 8.320312 16.511719 8.464844 C 16.238281 8.636719 15.6875 9.046875 15.472656 9.234375 C 15.292969 9.394531 15.210938 9.417969 15.136719 9.324219 Z M 21.828125 8.769531 C 21.671875 8.542969 21.734375 8.476562 21.941406 8.648438 C 22.035156 8.722656 22.054688 8.761719 22.035156 8.824219 C 22 8.933594 21.925781 8.914062 21.828125 8.769531 Z M 16.910156 7.957031 C 16.671875 7.871094 15.695312 7.691406 15.347656 7.664062 C 14.890625 7.628906 14.792969 7.613281 14.792969 7.558594 C 14.792969 7.503906 15.082031 7.4375 15.714844 7.347656 C 16.054688 7.292969 16.371094 7.285156 17.472656 7.285156 C 18.402344 7.285156 18.832031 7.292969 18.855469 7.320312 C 18.910156 7.375 18.84375 7.417969 18.582031 7.488281 C 18.347656 7.550781 17.5 7.898438 17.378906 7.980469 C 17.292969 8.042969 17.144531 8.035156 16.910156 7.957031 Z M 16.910156 7.957031 "/>
</g>
</g>
</g>
</svg>
