
<svg xmlns="http://www.w3.org/2000/svg" xmlns:xlink="http://www.w3.org/1999/xlink" width="32px" height="32px" viewBox="0 0 32 32" version="1.1">
<g id="surface1">
<path style="fill-rule:nonzero;fill:rgb(100%,100%,100%);fill-opacity:1;stroke-width:56.151478;stroke-linecap:butt;stroke-linejoin:miter;stroke:rgb(0.392157%,34.117648%,49.019608%);stroke-opacity:1;stroke-miterlimit:4;" d="M 164.375 52.125 L 859.625 52.125 C 921.625 52.125 971.875 102.375 971.875 164.375 L 971.875 859.625 C 971.875 921.625 921.625 971.875 859.625 971.875 L 164.375 971.875 C 102.375 971.875 52.125 921.625 52.125 859.625 L 52.125 164.375 C 52.125 102.375 102.375 52.125 164.375 52.125 Z M 164.375 52.125 " transform="matrix(0.03125,0,0,0.03125,0,0)"/>
<path style=" stroke:none;fill-rule:nonzero;fill:rgb(100%,100%,100%);fill-opacity:1;" d="M 2.984375 3.796875 L 28.542969 3.796875 L 28.542969 22.101562 L 2.984375 22.101562 Z M 2.984375 3.796875 "/>
<path style=" stroke:none;fill-rule:nonzero;fill:rgb(0.392157%,34.117648%,49.019608%);fill-opacity:1;" d="M 18.332031 23.085938 C 17 21.871094 15.894531 20.875 15.875 20.871094 C 15.855469 20.863281 13.832031 20.855469 11.378906 20.855469 L 6.921875 20.855469 L 6.921875 7.453125 L 24.808594 7.453125 L 24.808594 20.855469 L 22.808594 20.855469 C 21.160156 20.855469 20.808594 20.863281 20.792969 20.882812 C 20.773438 20.902344 20.765625 21.527344 20.761719 23.101562 L 20.753906 25.289062 Z M 11.378906 19.101562 C 11.394531 19.082031 11.40625 18.800781 11.410156 18.203125 L 11.414062 17.332031 L 12.269531 17.324219 L 13.128906 17.320312 L 13.128906 18.199219 C 13.128906 18.855469 13.136719 19.085938 13.152344 19.105469 C 13.191406 19.144531 14.042969 19.140625 14.074219 19.101562 C 14.089844 19.082031 14.097656 18.800781 14.101562 18.203125 L 14.105469 17.332031 L 14.988281 17.324219 C 15.664062 17.324219 15.878906 17.316406 15.890625 17.292969 C 15.917969 17.25 15.910156 16.40625 15.878906 16.378906 C 15.863281 16.359375 15.632812 16.355469 14.976562 16.355469 L 14.097656 16.355469 L 14.105469 14.636719 L 14.988281 14.632812 C 15.664062 14.628906 15.878906 14.621094 15.890625 14.601562 C 15.917969 14.558594 15.910156 13.714844 15.878906 13.683594 C 15.863281 13.667969 15.632812 13.660156 14.976562 13.660156 L 14.097656 13.660156 L 14.097656 12.777344 C 14.097656 11.996094 14.09375 11.894531 14.0625 11.886719 C 13.996094 11.859375 13.183594 11.871094 13.152344 11.894531 C 13.136719 11.917969 13.128906 12.144531 13.128906 12.792969 L 13.128906 13.660156 L 11.402344 13.660156 L 11.402344 12.777344 C 11.402344 11.996094 11.402344 11.894531 11.371094 11.886719 C 11.304688 11.859375 10.488281 11.871094 10.460938 11.894531 C 10.441406 11.917969 10.433594 12.144531 10.433594 12.792969 L 10.433594 13.660156 L 9.566406 13.660156 C 8.917969 13.660156 8.691406 13.667969 8.671875 13.683594 C 8.644531 13.710938 8.636719 14.527344 8.660156 14.59375 C 8.671875 14.625 8.769531 14.628906 9.554688 14.628906 L 10.433594 14.628906 L 10.433594 16.355469 L 9.566406 16.355469 C 8.917969 16.355469 8.691406 16.359375 8.671875 16.378906 C 8.644531 16.40625 8.636719 17.222656 8.660156 17.285156 C 8.671875 17.316406 8.769531 17.320312 9.554688 17.320312 L 10.433594 17.320312 L 10.433594 18.199219 C 10.433594 18.855469 10.441406 19.085938 10.460938 19.105469 C 10.5 19.144531 11.347656 19.140625 11.378906 19.101562 Z M 11.410156 15.496094 L 11.414062 14.636719 L 12.269531 14.632812 L 13.128906 14.628906 L 13.128906 16.355469 L 11.402344 16.355469 Z M 19.632812 19.097656 C 19.988281 19.023438 20.261719 18.761719 20.359375 18.402344 C 20.4375 18.109375 20.351562 17.792969 20.128906 17.558594 C 19.589844 16.988281 18.671875 17.277344 18.535156 18.058594 C 18.449219 18.527344 18.804688 19.007812 19.304688 19.109375 C 19.429688 19.132812 19.480469 19.132812 19.632812 19.097656 Z M 22.324219 19.097656 C 22.519531 19.058594 22.660156 18.980469 22.800781 18.839844 C 23.167969 18.472656 23.175781 17.929688 22.820312 17.558594 C 22.285156 16.988281 21.363281 17.277344 21.226562 18.058594 C 21.144531 18.527344 21.496094 19.007812 21.996094 19.109375 C 22.121094 19.132812 22.171875 19.132812 22.324219 19.097656 Z M 22.324219 19.097656 "/>
</g>
</svg>
