
<svg xmlns="http://www.w3.org/2000/svg" xmlns:xlink="http://www.w3.org/1999/xlink" width="32px" height="32px" viewBox="0 0 32 32" version="1.1">
<g id="surface1">
<path style="fill-rule:nonzero;fill:rgb(20%,28.235295%,36.470589%);fill-opacity:1;stroke-width:56.788383;stroke-linecap:butt;stroke-linejoin:miter;stroke:rgb(0%,80.000001%,100%);stroke-opacity:1;stroke-miterlimit:4;" d="M 160.375 46.875 L 863.625 46.875 C 926.25 46.875 977.125 97.75 977.125 160.375 L 977.125 863.625 C 977.125 926.25 926.25 977.125 863.625 977.125 L 160.375 977.125 C 97.75 977.125 46.875 926.25 46.875 863.625 L 46.875 160.375 C 46.875 97.75 97.75 46.875 160.375 46.875 Z M 160.375 46.875 " transform="matrix(0.03125,0,0,0.03125,0,0)"/>
<path style=" stroke:none;fill-rule:nonzero;fill:rgb(85.882354%,88.627452%,89.019608%);fill-opacity:1;" d="M 9.550781 25.996094 C 9.082031 25.925781 8.726562 25.75 8.382812 25.417969 C 8.085938 25.128906 7.902344 24.816406 7.800781 24.417969 L 7.753906 24.214844 L 7.753906 8.007812 L 7.804688 7.808594 C 8.003906 7.054688 8.570312 6.488281 9.324219 6.289062 L 9.519531 6.238281 L 22.820312 6.238281 L 23.019531 6.289062 C 23.769531 6.488281 24.335938 7.054688 24.535156 7.808594 L 24.589844 8.007812 L 24.589844 24.214844 L 24.539062 24.417969 C 24.441406 24.800781 24.277344 25.085938 23.996094 25.378906 C 23.714844 25.667969 23.402344 25.851562 23.011719 25.957031 L 22.820312 26.007812 L 16.253906 26.011719 C 12.640625 26.015625 9.625 26.007812 9.550781 25.996094 Z M 9.550781 25.996094 "/>
<path style=" stroke:none;fill-rule:nonzero;fill:rgb(20%,28.235295%,36.470589%);fill-opacity:1;" d="M 15.175781 20.148438 C 15.460938 19.964844 15.703125 19.691406 15.824219 19.410156 C 15.933594 19.167969 16 18.75 15.941406 18.714844 C 15.925781 18.703125 15.800781 18.808594 15.664062 18.941406 C 15.3125 19.285156 15.011719 19.472656 14.621094 19.59375 C 14.085938 19.761719 13.570312 19.722656 13.09375 19.476562 C 12.730469 19.292969 12.347656 18.859375 12.148438 18.417969 C 11.527344 17.027344 12.140625 15.328125 13.964844 13.386719 C 14.605469 12.703125 15.554688 11.894531 16.136719 11.539062 C 16.351562 11.40625 16.339844 11.402344 16.675781 11.628906 C 17.613281 12.257812 18.828125 13.414062 19.542969 14.363281 C 20.839844 16.09375 21.105469 17.578125 20.324219 18.773438 C 20.03125 19.21875 19.675781 19.484375 19.199219 19.613281 C 18.921875 19.691406 18.441406 19.691406 18.140625 19.613281 C 17.703125 19.503906 17.242188 19.222656 16.925781 18.871094 C 16.722656 18.652344 16.699219 18.660156 16.714844 18.910156 C 16.730469 19.105469 16.816406 19.371094 16.910156 19.539062 C 17.066406 19.804688 17.246094 19.988281 17.527344 20.167969 L 17.675781 20.261719 L 14.996094 20.261719 Z M 15.175781 20.148438 "/>
</g>
</svg>
