
<svg xmlns="http://www.w3.org/2000/svg" xmlns:xlink="http://www.w3.org/1999/xlink" width="32px" height="32px" viewBox="0 0 32 32" version="1.1">
<g id="surface1">
<path style="fill-rule:nonzero;fill:rgb(92.54902%,92.54902%,92.54902%);fill-opacity:1;stroke-width:27.442497;stroke-linecap:butt;stroke-linejoin:miter;stroke:rgb(0%,66.666669%,83.137256%);stroke-opacity:1;stroke-miterlimit:4;" d="M 86.125 571.612183 L 425.875 571.612183 C 456.1875 571.612183 480.75 596.174683 480.75 626.487183 L 480.75 966.237183 C 480.75 996.549683 456.1875 1021.112183 425.875 1021.112183 L 86.125 1021.112183 C 55.8125 1021.112183 31.25 996.549683 31.25 966.237183 L 31.25 626.487183 C 31.25 596.174683 55.8125 571.612183 86.125 571.612183 Z M 86.125 571.612183 " transform="matrix(0.0625,0,0,0.0625,0,-33.772636)"/>
<path style=" stroke:none;fill-rule:nonzero;fill:rgb(80.000001%,0%,100%);fill-opacity:1;" d="M 4.480469 7.753906 L 21.378906 7.753906 L 21.378906 20.554688 L 4.480469 20.554688 Z M 4.480469 7.753906 "/>
<path style=" stroke:none;fill-rule:nonzero;fill:rgb(21.568628%,20.784314%,22.745098%);fill-opacity:1;" d="M 4.480469 7.753906 L 21.378906 7.753906 L 21.378906 9.257812 L 4.480469 9.257812 Z M 4.480469 7.753906 "/>
<path style=" stroke:none;fill-rule:nonzero;fill:rgb(100%,100%,100%);fill-opacity:1;" d="M 17.234375 8.054688 L 18.15625 8.054688 L 18.15625 8.957031 L 17.234375 8.957031 Z M 17.234375 8.054688 "/>
<path style=" stroke:none;fill-rule:nonzero;fill:rgb(100%,100%,100%);fill-opacity:1;" d="M 18.925781 8.054688 L 19.84375 8.054688 L 19.84375 8.957031 L 18.925781 8.957031 Z M 18.925781 8.054688 "/>
<path style=" stroke:none;fill-rule:nonzero;fill:rgb(100%,100%,100%);fill-opacity:1;" d="M 15.546875 8.054688 L 16.464844 8.054688 L 16.464844 8.957031 L 15.546875 8.957031 Z M 15.546875 8.054688 "/>
<path style=" stroke:none;fill-rule:nonzero;fill:rgb(70.19608%,70.19608%,70.19608%);fill-opacity:1;" d="M 6.015625 10.765625 L 8.320312 10.765625 L 8.320312 12.269531 L 6.015625 12.269531 Z M 6.015625 10.765625 "/>
<path style=" stroke:none;fill-rule:nonzero;fill:rgb(70.19608%,70.19608%,70.19608%);fill-opacity:1;" d="M 6.015625 13.023438 L 8.320312 13.023438 L 8.320312 14.53125 L 6.015625 14.53125 Z M 6.015625 13.023438 "/>
<path style=" stroke:none;fill-rule:nonzero;fill:rgb(70.19608%,70.19608%,70.19608%);fill-opacity:1;" d="M 6.015625 15.285156 L 8.320312 15.285156 L 8.320312 16.789062 L 6.015625 16.789062 Z M 6.015625 15.285156 "/>
<path style=" stroke:none;fill-rule:nonzero;fill:rgb(16.078432%,50.196081%,72.549021%);fill-opacity:1;" d="M 10.621094 13.402344 L 27.523438 13.402344 L 27.523438 26.203125 L 10.621094 26.203125 Z M 10.621094 13.402344 "/>
<path style=" stroke:none;fill-rule:nonzero;fill:rgb(21.568628%,20.784314%,22.745098%);fill-opacity:1;" d="M 10.621094 13.402344 L 27.523438 13.402344 L 27.523438 14.90625 L 10.621094 14.90625 Z M 10.621094 13.402344 "/>
<path style=" stroke:none;fill-rule:nonzero;fill:rgb(100%,100%,100%);fill-opacity:1;" d="M 23.378906 13.703125 L 24.296875 13.703125 L 24.296875 14.605469 L 23.378906 14.605469 Z M 23.378906 13.703125 "/>
<path style=" stroke:none;fill-rule:nonzero;fill:rgb(100%,100%,100%);fill-opacity:1;" d="M 25.066406 13.703125 L 25.988281 13.703125 L 25.988281 14.605469 L 25.066406 14.605469 Z M 25.066406 13.703125 "/>
<path style=" stroke:none;fill-rule:nonzero;fill:rgb(100%,100%,100%);fill-opacity:1;" d="M 21.691406 13.703125 L 22.609375 13.703125 L 22.609375 14.605469 L 21.691406 14.605469 Z M 21.691406 13.703125 "/>
<path style=" stroke:none;fill-rule:nonzero;fill:rgb(10.196079%,73.725492%,61.176473%);fill-opacity:1;" d="M 12.15625 16.414062 L 14.460938 16.414062 L 14.460938 17.917969 L 12.15625 17.917969 Z M 12.15625 16.414062 "/>
<path style=" stroke:none;fill-rule:nonzero;fill:rgb(10.196079%,73.725492%,61.176473%);fill-opacity:1;" d="M 12.15625 18.671875 L 14.460938 18.671875 L 14.460938 20.179688 L 12.15625 20.179688 Z M 12.15625 18.671875 "/>
<path style=" stroke:none;fill-rule:nonzero;fill:rgb(10.196079%,73.725492%,61.176473%);fill-opacity:1;" d="M 12.15625 20.933594 L 14.460938 20.933594 L 14.460938 22.4375 L 12.15625 22.4375 Z M 12.15625 20.933594 "/>
<path style=" stroke:none;fill-rule:nonzero;fill:rgb(72.941178%,9.019608%,30.588236%);fill-opacity:1;" d="M 4.433594 7.660156 L 21.597656 7.660156 L 21.597656 20.925781 L 4.433594 20.925781 Z M 4.433594 7.660156 "/>
<path style=" stroke:none;fill-rule:nonzero;fill:rgb(10.196079%,10.196079%,10.196079%);fill-opacity:1;" d="M 4.433594 7.660156 L 21.597656 7.660156 L 21.597656 9.222656 L 4.433594 9.222656 Z M 4.433594 7.660156 "/>
<path style=" stroke:none;fill-rule:nonzero;fill:rgb(100%,100%,100%);fill-opacity:1;" d="M 15.675781 7.972656 L 15.675781 8.910156 L 16.609375 8.910156 L 16.609375 7.972656 Z M 17.386719 7.972656 L 17.386719 8.910156 L 18.324219 8.910156 L 18.324219 7.972656 Z M 19.101562 7.972656 L 19.101562 8.910156 L 20.035156 8.910156 L 20.035156 7.972656 Z M 19.101562 7.972656 "/>
<path style=" stroke:none;fill-rule:nonzero;fill:rgb(94.901961%,94.901961%,94.901961%);fill-opacity:1;" d="M 5.996094 10.78125 L 8.335938 10.78125 L 8.335938 12.339844 L 5.996094 12.339844 Z M 5.996094 10.78125 "/>
<path style=" stroke:none;fill-rule:nonzero;fill:rgb(94.901961%,94.901961%,94.901961%);fill-opacity:1;" d="M 5.996094 13.121094 L 8.335938 13.121094 L 8.335938 14.683594 L 5.996094 14.683594 Z M 5.996094 13.121094 "/>
<path style=" stroke:none;fill-rule:nonzero;fill:rgb(94.901961%,94.901961%,94.901961%);fill-opacity:1;" d="M 5.996094 15.464844 L 8.335938 15.464844 L 8.335938 17.023438 L 5.996094 17.023438 Z M 5.996094 15.464844 "/>
<path style=" stroke:none;fill-rule:nonzero;fill:rgb(16.078432%,50.196081%,72.549021%);fill-opacity:1;" d="M 10.351562 13.058594 L 27.515625 13.058594 L 27.515625 26.320312 L 10.351562 26.320312 Z M 10.351562 13.058594 "/>
<path style=" stroke:none;fill-rule:nonzero;fill:rgb(10.196079%,10.196079%,10.196079%);fill-opacity:1;" d="M 10.351562 13.058594 L 27.515625 13.058594 L 27.515625 14.617188 L 10.351562 14.617188 Z M 10.351562 13.058594 "/>
<path style=" stroke:none;fill-rule:nonzero;fill:rgb(100%,100%,100%);fill-opacity:1;" d="M 21.59375 13.371094 L 21.59375 14.304688 L 22.527344 14.304688 L 22.527344 13.371094 Z M 23.308594 13.371094 L 23.308594 14.304688 L 24.242188 14.304688 L 24.242188 13.371094 Z M 25.019531 13.371094 L 25.019531 14.304688 L 25.957031 14.304688 L 25.957031 13.371094 Z M 25.019531 13.371094 "/>
<path style=" stroke:none;fill-rule:nonzero;fill:rgb(94.901961%,94.901961%,94.901961%);fill-opacity:1;" d="M 11.914062 16.179688 L 14.253906 16.179688 L 14.253906 17.738281 L 11.914062 17.738281 Z M 11.914062 16.179688 "/>
<path style=" stroke:none;fill-rule:nonzero;fill:rgb(94.901961%,94.901961%,94.901961%);fill-opacity:1;" d="M 11.914062 18.519531 L 14.253906 18.519531 L 14.253906 20.078125 L 11.914062 20.078125 Z M 11.914062 18.519531 "/>
<path style=" stroke:none;fill-rule:nonzero;fill:rgb(94.901961%,94.901961%,94.901961%);fill-opacity:1;" d="M 11.914062 20.859375 L 14.253906 20.859375 L 14.253906 22.417969 L 11.914062 22.417969 Z M 11.914062 20.859375 "/>
</g>
</svg>
