
<svg xmlns="http://www.w3.org/2000/svg" xmlns:xlink="http://www.w3.org/1999/xlink" width="32px" height="32px" viewBox="0 0 32 32" version="1.1">
<g id="surface1">
<path style="fill-rule:nonzero;fill:rgb(92.54902%,92.54902%,92.54902%);fill-opacity:1;stroke-width:2.540894;stroke-linecap:butt;stroke-linejoin:miter;stroke:rgb(0%,66.666669%,83.137256%);stroke-opacity:1;stroke-miterlimit:4;" d="M 8.314453 3.351562 L 39.773438 3.351562 C 42.580078 3.351562 44.853516 5.630859 44.853516 8.431641 L 44.853516 39.896484 C 44.853516 42.697266 42.580078 44.976562 39.773438 44.976562 L 8.314453 44.976562 C 5.507812 44.976562 3.234375 42.697266 3.234375 39.896484 L 3.234375 8.431641 C 3.234375 5.630859 5.507812 3.351562 8.314453 3.351562 Z M 8.314453 3.351562 " transform="matrix(0.666667,0,0,0.666667,0,0)"/>
<path style=" stroke:none;fill-rule:evenodd;fill:rgb(40.784314%,69.411767%,88.235295%);fill-opacity:1;" d="M 4.613281 3.546875 L 4.613281 4.707031 L 2.195312 4.707031 L 2.195312 4.894531 L 4.613281 4.894531 L 4.613281 8.472656 L 2.195312 8.472656 L 2.195312 8.660156 L 4.613281 8.660156 L 4.613281 12.238281 L 2.195312 12.238281 L 2.195312 12.425781 L 4.613281 12.425781 L 4.613281 16.003906 L 2.195312 16.003906 L 2.195312 16.191406 L 4.613281 16.191406 L 4.613281 19.765625 L 2.195312 19.765625 L 2.195312 19.957031 L 4.613281 19.957031 L 4.613281 23.53125 L 2.195312 23.53125 L 2.195312 23.71875 L 4.613281 23.71875 L 4.613281 27.292969 L 2.195312 27.292969 L 2.195312 27.484375 L 4.613281 27.484375 L 4.613281 28.644531 L 4.800781 28.644531 L 4.800781 27.484375 L 8.375 27.484375 L 8.375 28.644531 L 8.566406 28.644531 L 8.566406 27.484375 L 12.140625 27.484375 L 12.140625 28.644531 L 12.328125 28.644531 L 12.328125 27.484375 L 15.90625 27.484375 L 15.90625 28.644531 L 16.09375 28.644531 L 16.09375 27.484375 L 19.667969 27.484375 L 19.667969 28.644531 L 19.859375 28.644531 L 19.859375 27.484375 L 23.433594 27.484375 L 23.433594 28.644531 L 23.621094 28.644531 L 23.621094 27.484375 L 27.199219 27.484375 L 27.199219 28.644531 L 27.386719 28.644531 L 27.386719 27.484375 L 29.800781 27.484375 L 29.800781 27.292969 L 27.386719 27.292969 L 27.386719 23.71875 L 29.800781 23.71875 L 29.800781 23.53125 L 27.386719 23.53125 L 27.386719 19.957031 L 29.800781 19.957031 L 29.800781 19.765625 L 27.386719 19.765625 L 27.386719 16.191406 L 29.800781 16.191406 L 29.800781 16.003906 L 27.386719 16.003906 L 27.386719 12.425781 L 29.800781 12.425781 L 29.800781 12.238281 L 27.386719 12.238281 L 27.386719 8.660156 L 29.800781 8.660156 L 29.800781 8.472656 L 27.386719 8.472656 L 27.386719 4.894531 L 29.800781 4.894531 L 29.800781 4.707031 L 27.386719 4.707031 L 27.386719 3.546875 L 27.199219 3.546875 L 27.199219 4.707031 L 23.621094 4.707031 L 23.621094 3.546875 L 23.433594 3.546875 L 23.433594 4.707031 L 19.859375 4.707031 L 19.859375 3.546875 L 19.667969 3.546875 L 19.667969 4.707031 L 16.09375 4.707031 L 16.09375 3.546875 L 15.90625 3.546875 L 15.90625 4.707031 L 12.328125 4.707031 L 12.328125 3.546875 L 12.140625 3.546875 L 12.140625 4.707031 L 8.566406 4.707031 L 8.566406 3.546875 L 8.375 3.546875 L 8.375 4.707031 L 4.800781 4.707031 L 4.800781 3.546875 Z M 4.800781 4.894531 L 8.375 4.894531 L 8.375 8.472656 L 4.800781 8.472656 Z M 8.566406 4.894531 L 12.140625 4.894531 L 12.140625 8.472656 L 8.566406 8.472656 Z M 12.328125 4.894531 L 15.90625 4.894531 L 15.90625 8.472656 L 12.328125 8.472656 Z M 16.09375 4.894531 L 19.667969 4.894531 L 19.667969 8.472656 L 16.09375 8.472656 Z M 19.859375 4.894531 L 23.433594 4.894531 L 23.433594 8.472656 L 19.859375 8.472656 Z M 23.621094 4.894531 L 27.199219 4.894531 L 27.199219 8.472656 L 23.621094 8.472656 Z M 4.800781 8.660156 L 8.375 8.660156 L 8.375 12.238281 L 4.800781 12.238281 Z M 8.566406 8.660156 L 12.140625 8.660156 L 12.140625 12.238281 L 8.566406 12.238281 Z M 12.328125 8.660156 L 15.90625 8.660156 L 15.90625 12.238281 L 12.328125 12.238281 Z M 16.09375 8.660156 L 19.667969 8.660156 L 19.667969 12.238281 L 16.09375 12.238281 Z M 19.859375 8.660156 L 23.433594 8.660156 L 23.433594 12.238281 L 19.859375 12.238281 Z M 23.621094 8.660156 L 27.199219 8.660156 L 27.199219 12.238281 L 23.621094 12.238281 Z M 4.800781 12.425781 L 8.375 12.425781 L 8.375 16.003906 L 4.800781 16.003906 Z M 8.566406 12.425781 L 12.140625 12.425781 L 12.140625 16.003906 L 8.566406 16.003906 Z M 12.328125 12.425781 L 15.90625 12.425781 L 15.90625 16.003906 L 12.328125 16.003906 Z M 16.09375 12.425781 L 19.667969 12.425781 L 19.667969 16.003906 L 16.09375 16.003906 Z M 19.859375 12.425781 L 23.433594 12.425781 L 23.433594 16.003906 L 19.859375 16.003906 Z M 23.621094 12.425781 L 27.199219 12.425781 L 27.199219 16.003906 L 23.621094 16.003906 Z M 4.800781 16.191406 L 8.375 16.191406 L 8.375 19.765625 L 4.800781 19.765625 Z M 8.566406 16.191406 L 12.140625 16.191406 L 12.140625 19.765625 L 8.566406 19.765625 Z M 12.328125 16.191406 L 15.90625 16.191406 L 15.90625 19.765625 L 12.328125 19.765625 Z M 16.09375 16.191406 L 19.667969 16.191406 L 19.667969 19.765625 L 16.09375 19.765625 Z M 19.859375 16.191406 L 23.433594 16.191406 L 23.433594 19.765625 L 19.859375 19.765625 Z M 23.621094 16.191406 L 27.199219 16.191406 L 27.199219 19.765625 L 23.621094 19.765625 Z M 4.800781 19.957031 L 8.375 19.957031 L 8.375 23.53125 L 4.800781 23.53125 Z M 8.566406 19.957031 L 12.140625 19.957031 L 12.140625 23.53125 L 8.566406 23.53125 Z M 12.328125 19.957031 L 15.90625 19.957031 L 15.90625 23.53125 L 12.328125 23.53125 Z M 16.09375 19.957031 L 19.667969 19.957031 L 19.667969 23.53125 L 16.09375 23.53125 Z M 19.859375 19.957031 L 23.433594 19.957031 L 23.433594 23.53125 L 19.859375 23.53125 Z M 23.621094 19.957031 L 27.199219 19.957031 L 27.199219 23.53125 L 23.621094 23.53125 Z M 4.800781 23.71875 L 8.375 23.71875 L 8.375 27.292969 L 4.800781 27.292969 Z M 8.566406 23.71875 L 12.140625 23.71875 L 12.140625 27.292969 L 8.566406 27.292969 Z M 12.328125 23.71875 L 15.90625 23.71875 L 15.90625 27.292969 L 12.328125 27.292969 Z M 16.09375 23.71875 L 19.667969 23.71875 L 19.667969 27.292969 L 16.09375 27.292969 Z M 19.859375 23.71875 L 23.433594 23.71875 L 23.433594 27.292969 L 19.859375 27.292969 Z M 23.621094 23.71875 L 27.199219 23.71875 L 27.199219 27.292969 L 23.621094 27.292969 Z M 23.621094 23.71875 "/>
<path style=" stroke:none;fill-rule:nonzero;fill:rgb(17.254902%,24.313726%,31.37255%);fill-opacity:1;" d="M 7.804688 27.222656 L 4.304688 23.726562 L 23.546875 4.484375 L 27.046875 7.980469 Z M 7.804688 27.222656 "/>
<path style=" stroke:none;fill-rule:nonzero;fill:rgb(92.54902%,94.117647%,94.509804%);fill-opacity:1;" d="M 13.824219 14.207031 L 14.027344 14.003906 L 15.265625 15.238281 L 15.058594 15.445312 Z M 13.824219 14.207031 "/>
<path style=" stroke:none;fill-rule:nonzero;fill:rgb(92.54902%,94.117647%,94.509804%);fill-opacity:1;" d="M 13 15.03125 L 13.207031 14.824219 L 13.824219 15.445312 L 13.617188 15.652344 Z M 13 15.03125 "/>
<path style=" stroke:none;fill-rule:nonzero;fill:rgb(92.54902%,94.117647%,94.509804%);fill-opacity:1;" d="M 12.175781 15.855469 L 12.378906 15.652344 L 13 16.269531 L 12.792969 16.476562 Z M 12.175781 15.855469 "/>
<path style=" stroke:none;fill-rule:nonzero;fill:rgb(92.54902%,94.117647%,94.509804%);fill-opacity:1;" d="M 11.347656 16.683594 L 11.554688 16.476562 L 12.792969 17.714844 L 12.585938 17.917969 Z M 11.347656 16.683594 "/>
<path style=" stroke:none;fill-rule:nonzero;fill:rgb(92.54902%,94.117647%,94.509804%);fill-opacity:1;" d="M 10.527344 17.503906 L 10.730469 17.300781 L 11.347656 17.917969 L 11.144531 18.125 Z M 10.527344 17.503906 "/>
<path style=" stroke:none;fill-rule:nonzero;fill:rgb(92.54902%,94.117647%,94.509804%);fill-opacity:1;" d="M 9.699219 18.332031 L 9.90625 18.125 L 10.527344 18.742188 L 10.316406 18.949219 Z M 9.699219 18.332031 "/>
<path style=" stroke:none;fill-rule:nonzero;fill:rgb(92.54902%,94.117647%,94.509804%);fill-opacity:1;" d="M 8.050781 19.980469 L 8.257812 19.773438 L 8.875 20.394531 L 8.667969 20.597656 Z M 8.050781 19.980469 "/>
<path style=" stroke:none;fill-rule:nonzero;fill:rgb(92.54902%,94.117647%,94.509804%);fill-opacity:1;" d="M 7.226562 20.804688 L 7.433594 20.597656 L 8.050781 21.214844 L 7.84375 21.421875 Z M 7.226562 20.804688 "/>
<path style=" stroke:none;fill-rule:nonzero;fill:rgb(92.54902%,94.117647%,94.509804%);fill-opacity:1;" d="M 5.578125 22.453125 L 5.785156 22.246094 L 6.402344 22.867188 L 6.195312 23.074219 Z M 5.578125 22.453125 "/>
<path style=" stroke:none;fill-rule:nonzero;fill:rgb(92.54902%,94.117647%,94.509804%);fill-opacity:1;" d="M 4.753906 23.277344 L 4.957031 23.074219 L 5.578125 23.691406 L 5.371094 23.894531 Z M 4.753906 23.277344 "/>
<path style=" stroke:none;fill-rule:nonzero;fill:rgb(92.54902%,94.117647%,94.509804%);fill-opacity:1;" d="M 8.875 19.15625 L 9.082031 18.949219 L 10.316406 20.183594 L 10.113281 20.394531 Z M 8.875 19.15625 "/>
<path style=" stroke:none;fill-rule:nonzero;fill:rgb(92.54902%,94.117647%,94.509804%);fill-opacity:1;" d="M 6.402344 21.628906 L 6.609375 21.421875 L 7.84375 22.660156 L 7.636719 22.867188 Z M 6.402344 21.628906 "/>
<path style=" stroke:none;fill-rule:nonzero;fill:rgb(92.54902%,94.117647%,94.509804%);fill-opacity:1;" d="M 22.894531 5.136719 L 23.097656 4.933594 L 23.71875 5.550781 L 23.511719 5.753906 Z M 22.894531 5.136719 "/>
<path style=" stroke:none;fill-rule:nonzero;fill:rgb(92.54902%,94.117647%,94.509804%);fill-opacity:1;" d="M 22.070312 5.960938 L 22.277344 5.753906 L 22.894531 6.375 L 22.6875 6.582031 Z M 22.070312 5.960938 "/>
<path style=" stroke:none;fill-rule:nonzero;fill:rgb(92.54902%,94.117647%,94.509804%);fill-opacity:1;" d="M 21.246094 6.785156 L 21.449219 6.582031 L 22.6875 7.816406 L 22.480469 8.023438 Z M 21.246094 6.785156 "/>
<path style=" stroke:none;fill-rule:nonzero;fill:rgb(92.54902%,94.117647%,94.509804%);fill-opacity:1;" d="M 20.417969 7.613281 L 20.625 7.402344 L 21.246094 8.023438 L 21.039062 8.230469 Z M 20.417969 7.613281 "/>
<path style=" stroke:none;fill-rule:nonzero;fill:rgb(92.54902%,94.117647%,94.509804%);fill-opacity:1;" d="M 19.597656 8.433594 L 19.800781 8.230469 L 20.417969 8.847656 L 20.214844 9.054688 Z M 19.597656 8.433594 "/>
<path style=" stroke:none;fill-rule:nonzero;fill:rgb(92.54902%,94.117647%,94.509804%);fill-opacity:1;" d="M 17.945312 10.085938 L 18.152344 9.878906 L 18.769531 10.496094 L 18.566406 10.703125 Z M 17.945312 10.085938 "/>
<path style=" stroke:none;fill-rule:nonzero;fill:rgb(92.54902%,94.117647%,94.509804%);fill-opacity:1;" d="M 17.121094 10.910156 L 17.328125 10.703125 L 17.945312 11.324219 L 17.738281 11.527344 Z M 17.121094 10.910156 "/>
<path style=" stroke:none;fill-rule:nonzero;fill:rgb(92.54902%,94.117647%,94.509804%);fill-opacity:1;" d="M 15.472656 12.558594 L 15.679688 12.351562 L 16.296875 12.972656 L 16.089844 13.175781 Z M 15.472656 12.558594 "/>
<path style=" stroke:none;fill-rule:nonzero;fill:rgb(92.54902%,94.117647%,94.509804%);fill-opacity:1;" d="M 14.648438 13.382812 L 14.855469 13.175781 L 15.472656 13.792969 L 15.265625 14.003906 Z M 14.648438 13.382812 "/>
<path style=" stroke:none;fill-rule:nonzero;fill:rgb(92.54902%,94.117647%,94.509804%);fill-opacity:1;" d="M 18.769531 9.261719 L 18.976562 9.054688 L 20.214844 10.292969 L 20.007812 10.496094 Z M 18.769531 9.261719 "/>
<path style=" stroke:none;fill-rule:nonzero;fill:rgb(92.54902%,94.117647%,94.509804%);fill-opacity:1;" d="M 16.296875 11.734375 L 16.503906 11.527344 L 17.738281 12.765625 L 17.535156 12.972656 Z M 16.296875 11.734375 "/>
</g>
</svg>
