
<svg xmlns="http://www.w3.org/2000/svg" xmlns:xlink="http://www.w3.org/1999/xlink" width="32px" height="32px" viewBox="0 0 32 32" version="1.1">
<g id="surface1">
<path style=" stroke:none;fill-rule:nonzero;fill:rgb(80.000001%,80.000001%,80.000001%);fill-opacity:1;" d="M 19.222656 3.265625 C 17.863281 3.265625 16.746094 4.511719 16.519531 6.160156 L 27.273438 6.160156 C 27.050781 4.511719 25.933594 3.265625 24.574219 3.265625 Z M 19.222656 3.265625 "/>
<path style=" stroke:none;fill-rule:nonzero;fill:rgb(100%,33.333334%,33.333334%);fill-opacity:1;" d="M 4.636719 6.621094 L 27.363281 6.621094 C 29.160156 6.621094 30.617188 8.082031 30.617188 9.878906 L 30.617188 21.296875 C 30.617188 23.09375 29.160156 24.550781 27.363281 24.550781 L 4.636719 24.550781 C 2.839844 24.550781 1.382812 23.09375 1.382812 21.296875 L 1.382812 9.878906 C 1.382812 8.082031 2.839844 6.621094 4.636719 6.621094 Z M 4.636719 6.621094 "/>
<path style=" stroke:none;fill-rule:nonzero;fill:rgb(100%,33.333334%,33.333334%);fill-opacity:1;" d="M 4.636719 10.808594 L 27.363281 10.808594 C 29.160156 10.808594 30.617188 12.261719 30.617188 14.0625 L 30.617188 25.480469 C 30.617188 27.277344 29.160156 28.734375 27.363281 28.734375 L 4.636719 28.734375 C 2.839844 28.734375 1.382812 27.277344 1.382812 25.480469 L 1.382812 14.0625 C 1.382812 12.261719 2.839844 10.808594 4.636719 10.808594 Z M 4.636719 10.808594 "/>
</g>
</svg>
