
<svg xmlns="http://www.w3.org/2000/svg" xmlns:xlink="http://www.w3.org/1999/xlink" width="32px" height="32px" viewBox="0 0 32 32" version="1.1">
<g id="surface1">
<path style="fill-rule:nonzero;fill:rgb(100%,100%,100%);fill-opacity:1;stroke-width:16.800001;stroke-linecap:butt;stroke-linejoin:miter;stroke:rgb(29.019609%,68.235296%,90.980393%);stroke-opacity:1;stroke-miterlimit:4;" d="M 45.996095 12.414551 L 254.003912 12.414551 C 272.570807 12.414551 287.585456 27.4292 287.585456 45.996095 L 287.585456 254.003912 C 287.585456 272.570807 272.570807 287.585456 254.003912 287.585456 L 45.996095 287.585456 C 27.4292 287.585456 12.414551 272.570807 12.414551 254.003912 L 12.414551 45.996095 C 12.414551 27.4292 27.4292 12.414551 45.996095 12.414551 Z M 45.996095 12.414551 " transform="matrix(0.106667,0,0,0.106667,0,0)"/>
<path style=" stroke:none;fill-rule:evenodd;fill:rgb(83.92157%,83.92157%,87.843138%);fill-opacity:1;" d="M 4.628906 2 C 12.34375 2.007812 20.0625 1.980469 27.777344 2.011719 C 29.363281 2.121094 30.378906 3.730469 30.171875 5.222656 C 30.160156 12.753906 30.191406 20.285156 30.15625 27.816406 C 30.050781 29.398438 28.441406 30.417969 26.945312 30.207031 C 19.414062 30.199219 11.882812 30.226562 4.355469 30.195312 C 2.769531 30.085938 1.753906 28.480469 1.960938 26.984375 C 1.96875 19.453125 1.941406 11.921875 1.972656 4.394531 C 2.082031 3.066406 3.292969 1.972656 4.628906 2 Z M 4.628906 2 "/>
<path style=" stroke:none;fill-rule:evenodd;fill:rgb(0%,0%,0%);fill-opacity:1;" d="M 2.230469 11.511719 C 11.453125 11.511719 20.675781 11.511719 29.902344 11.511719 C 30.664062 12.003906 29.441406 12.144531 29.027344 12.046875 C 20.09375 12.046875 11.160156 12.046875 2.230469 12.046875 C 1.878906 12.050781 1.878906 11.507812 2.230469 11.511719 Z M 2.230469 11.511719 "/>
<path style=" stroke:none;fill-rule:evenodd;fill:rgb(0%,0%,0%);fill-opacity:1;" d="M 2.230469 21.175781 C 11.453125 21.175781 20.675781 21.175781 29.902344 21.175781 C 30.660156 21.667969 29.4375 21.808594 29.023438 21.707031 C 20.089844 21.707031 11.160156 21.707031 2.230469 21.707031 C 1.878906 21.714844 1.878906 21.171875 2.230469 21.175781 Z M 2.230469 21.175781 "/>
<path style=" stroke:none;fill-rule:evenodd;fill:rgb(0%,0%,0%);fill-opacity:1;" d="M 11.183594 2.265625 C 11.183594 11.488281 11.1875 20.714844 11.191406 29.9375 C 10.699219 30.699219 10.554688 29.476562 10.65625 29.058594 C 10.652344 20.128906 10.652344 11.199219 10.648438 2.265625 C 10.644531 1.917969 11.183594 1.917969 11.183594 2.265625 Z M 11.183594 2.265625 "/>
<path style=" stroke:none;fill-rule:evenodd;fill:rgb(0%,0%,0%);fill-opacity:1;" d="M 21.300781 2.269531 C 21.304688 11.492188 21.308594 20.714844 21.308594 29.9375 C 20.816406 30.699219 20.675781 29.472656 20.777344 29.058594 C 20.773438 20.128906 20.769531 11.199219 20.769531 2.269531 C 20.761719 1.917969 21.304688 1.917969 21.300781 2.269531 Z M 21.300781 2.269531 "/>
<path style=" stroke:none;fill-rule:evenodd;fill:rgb(90.196079%,90.196079%,90.196079%);fill-opacity:1;" d="M 2.015625 16.636719 C 2.015625 15.113281 2.015625 13.589844 2.015625 12.066406 C 4.882812 12.066406 7.746094 12.066406 10.613281 12.066406 C 10.613281 15.082031 10.613281 18.097656 10.613281 21.113281 C 7.777344 21.121094 4.933594 21.097656 2.097656 21.148438 C 1.949219 19.660156 2.046875 18.136719 2.015625 16.636719 Z M 2.015625 16.636719 "/>
<path style=" stroke:none;fill-rule:evenodd;fill:rgb(90.196079%,90.196079%,90.196079%);fill-opacity:1;" d="M 11.199219 6.746094 C 11.191406 5.175781 11.1875 3.605469 11.179688 2.035156 C 14.371094 2.035156 17.566406 2.035156 20.761719 2.035156 C 20.746094 5.175781 20.730469 8.316406 20.71875 11.460938 C 17.550781 11.460938 14.386719 11.460938 11.222656 11.460938 C 11.214844 9.890625 11.207031 8.316406 11.199219 6.746094 Z M 11.199219 6.746094 "/>
<path style=" stroke:none;fill-rule:evenodd;fill:rgb(90.196079%,90.196079%,90.196079%);fill-opacity:1;" d="M 3.855469 30.054688 C 2.007812 29.523438 1.894531 27.46875 2.015625 25.882812 C 2.015625 24.496094 2.015625 23.105469 2.015625 21.71875 C 4.882812 21.71875 7.746094 21.71875 10.613281 21.71875 C 10.625 24.535156 10.636719 27.351562 10.652344 30.167969 C 8.386719 30.128906 6.113281 30.238281 3.855469 30.054688 Z M 3.855469 30.054688 "/>
<path style=" stroke:none;fill-rule:evenodd;fill:rgb(90.196079%,90.196079%,90.196079%);fill-opacity:1;" d="M 11.199219 25.941406 C 11.207031 24.535156 11.214844 23.128906 11.222656 21.71875 C 14.386719 21.71875 17.550781 21.71875 20.71875 21.71875 C 20.730469 24.535156 20.746094 27.351562 20.761719 30.167969 C 17.566406 30.167969 14.371094 30.167969 11.179688 30.167969 C 11.1875 28.757812 11.191406 27.351562 11.199219 25.941406 Z M 11.199219 25.941406 "/>
<path style=" stroke:none;fill-rule:evenodd;fill:rgb(94.901961%,94.901961%,94.901961%);fill-opacity:1;" d="M 21.308594 25.949219 C 21.316406 24.539062 21.320312 23.128906 21.328125 21.722656 C 24.269531 21.707031 27.207031 21.695312 30.148438 21.683594 C 30.105469 23.894531 30.273438 26.121094 30.003906 28.320312 C 29.667969 29.410156 28.519531 30.300781 27.355469 30.132812 C 25.332031 30.144531 23.308594 30.160156 21.285156 30.171875 C 21.292969 28.761719 21.300781 27.355469 21.308594 25.949219 Z M 21.308594 25.949219 "/>
<path style=" stroke:none;fill-rule:evenodd;fill:rgb(94.901961%,94.901961%,94.901961%);fill-opacity:1;" d="M 21.324219 25.933594 C 21.324219 24.527344 21.324219 23.125 21.324219 21.71875 C 24.265625 21.71875 27.207031 21.71875 30.148438 21.71875 C 30.117188 23.949219 30.230469 26.195312 29.929688 28.40625 C 29.613281 29.222656 28.804688 30.027344 27.90625 30.082031 C 25.714844 30.105469 23.519531 30.128906 21.324219 30.152344 C 21.324219 28.746094 21.324219 27.339844 21.324219 25.933594 Z M 21.324219 25.933594 "/>
<path style=" stroke:none;fill-rule:evenodd;fill:rgb(94.901961%,94.901961%,94.901961%);fill-opacity:1;" d="M 11.21875 25.941406 C 11.21875 24.535156 11.21875 23.128906 11.21875 21.71875 C 14.386719 21.71875 17.554688 21.71875 20.722656 21.71875 C 20.722656 24.535156 20.722656 27.351562 20.722656 30.167969 C 17.554688 30.167969 14.386719 30.167969 11.21875 30.167969 C 11.21875 28.757812 11.21875 27.351562 11.21875 25.941406 Z M 11.21875 25.941406 "/>
<path style=" stroke:none;fill-rule:evenodd;fill:rgb(94.901961%,94.901961%,94.901961%);fill-opacity:1;" d="M 6.988281 30.132812 C 5.738281 29.894531 4.257812 30.464844 3.183594 29.652344 C 1.886719 28.875 2.097656 27.277344 2.046875 25.984375 C 2.015625 24.5625 2.019531 23.140625 2.015625 21.71875 C 4.882812 21.71875 7.746094 21.71875 10.613281 21.71875 C 10.613281 24.535156 10.613281 27.351562 10.613281 30.167969 C 9.40625 30.160156 8.195312 30.191406 6.988281 30.132812 Z M 6.988281 30.132812 "/>
<path style=" stroke:none;fill-rule:evenodd;fill:rgb(94.901961%,94.901961%,94.901961%);fill-opacity:1;" d="M 2.066406 19.519531 C 2.003906 17.035156 2.019531 14.550781 2.015625 12.066406 C 4.882812 12.066406 7.746094 12.066406 10.613281 12.066406 C 10.613281 15.082031 10.613281 18.097656 10.613281 21.113281 C 7.78125 21.113281 4.949219 21.113281 2.113281 21.113281 C 2.097656 20.582031 2.082031 20.050781 2.066406 19.519531 Z M 2.066406 19.519531 "/>
<path style=" stroke:none;fill-rule:evenodd;fill:rgb(94.901961%,94.901961%,94.901961%);fill-opacity:1;" d="M 11.21875 6.746094 C 11.21875 5.175781 11.21875 3.605469 11.21875 2.035156 C 14.386719 2.035156 17.554688 2.035156 20.722656 2.035156 C 20.722656 5.175781 20.722656 8.316406 20.722656 11.460938 C 17.554688 11.460938 14.386719 11.460938 11.21875 11.460938 C 11.21875 9.890625 11.21875 8.316406 11.21875 6.746094 Z M 11.21875 6.746094 "/>
<path style=" stroke:none;fill-rule:nonzero;fill:rgb(0%,0%,0%);fill-opacity:1;" d="M 25.210938 6.429688 C 25.507812 6.429688 25.785156 6.472656 26.042969 6.554688 C 26.300781 6.636719 26.527344 6.761719 26.714844 6.921875 C 26.910156 7.082031 27.058594 7.285156 27.167969 7.527344 C 27.273438 7.769531 27.328125 8.046875 27.328125 8.363281 C 27.328125 8.707031 27.277344 9.011719 27.175781 9.289062 C 27.074219 9.5625 26.917969 9.792969 26.71875 9.984375 C 26.519531 10.175781 26.269531 10.320312 25.972656 10.417969 C 25.675781 10.519531 25.332031 10.570312 24.949219 10.570312 C 24.792969 10.570312 24.644531 10.5625 24.496094 10.546875 C 24.347656 10.535156 24.203125 10.511719 24.066406 10.480469 C 23.929688 10.453125 23.796875 10.417969 23.675781 10.371094 C 23.550781 10.328125 23.441406 10.273438 23.339844 10.214844 L 23.339844 9.4375 C 23.441406 9.507812 23.558594 9.566406 23.691406 9.621094 C 23.824219 9.675781 23.964844 9.722656 24.113281 9.757812 C 24.261719 9.792969 24.410156 9.824219 24.558594 9.839844 C 24.707031 9.863281 24.84375 9.871094 24.972656 9.871094 C 25.207031 9.871094 25.421875 9.84375 25.605469 9.785156 C 25.792969 9.730469 25.953125 9.644531 26.082031 9.527344 C 26.210938 9.410156 26.308594 9.261719 26.378906 9.085938 C 26.449219 8.90625 26.484375 8.695312 26.484375 8.453125 C 26.484375 8.019531 26.351562 7.691406 26.085938 7.464844 C 25.820312 7.238281 25.4375 7.125 24.929688 7.125 C 24.847656 7.125 24.761719 7.128906 24.667969 7.136719 C 24.570312 7.144531 24.476562 7.152344 24.382812 7.167969 C 24.285156 7.175781 24.195312 7.191406 24.109375 7.203125 C 24.023438 7.214844 23.949219 7.230469 23.886719 7.242188 L 23.480469 6.984375 L 23.730469 3.878906 L 26.847656 3.878906 L 26.847656 4.628906 L 24.441406 4.628906 L 24.265625 6.519531 C 24.363281 6.503906 24.488281 6.480469 24.648438 6.460938 C 24.808594 6.441406 24.996094 6.429688 25.210938 6.429688 Z M 25.210938 6.429688 "/>
<path style=" stroke:none;fill-rule:nonzero;fill:rgb(0%,0%,0%);fill-opacity:1;" d="M 23.101562 17.160156 C 23.101562 16.863281 23.117188 16.566406 23.148438 16.269531 C 23.175781 15.972656 23.230469 15.6875 23.304688 15.417969 C 23.378906 15.144531 23.484375 14.894531 23.613281 14.660156 C 23.746094 14.425781 23.914062 14.222656 24.113281 14.050781 C 24.316406 13.878906 24.558594 13.742188 24.839844 13.644531 C 25.121094 13.542969 25.453125 13.496094 25.832031 13.496094 C 25.886719 13.496094 25.945312 13.496094 26.011719 13.5 C 26.078125 13.503906 26.144531 13.507812 26.210938 13.515625 C 26.277344 13.523438 26.339844 13.53125 26.402344 13.542969 C 26.464844 13.550781 26.519531 13.5625 26.566406 13.578125 L 26.566406 14.238281 C 26.46875 14.207031 26.355469 14.179688 26.230469 14.164062 C 26.105469 14.144531 25.980469 14.136719 25.859375 14.136719 C 25.601562 14.136719 25.378906 14.167969 25.183594 14.230469 C 24.988281 14.289062 24.816406 14.375 24.675781 14.488281 C 24.53125 14.597656 24.414062 14.730469 24.316406 14.886719 C 24.222656 15.039062 24.144531 15.207031 24.085938 15.394531 C 24.027344 15.582031 23.980469 15.78125 23.953125 15.992188 C 23.925781 16.203125 23.90625 16.421875 23.898438 16.648438 L 23.949219 16.648438 C 24.003906 16.546875 24.074219 16.449219 24.15625 16.359375 C 24.238281 16.269531 24.332031 16.191406 24.441406 16.128906 C 24.546875 16.066406 24.667969 16.015625 24.804688 15.980469 C 24.941406 15.941406 25.09375 15.921875 25.261719 15.921875 C 25.53125 15.921875 25.777344 15.964844 25.996094 16.050781 C 26.214844 16.132812 26.402344 16.253906 26.554688 16.417969 C 26.707031 16.582031 26.828125 16.777344 26.910156 17.015625 C 26.996094 17.25 27.039062 17.519531 27.039062 17.820312 C 27.039062 18.144531 26.992188 18.4375 26.90625 18.695312 C 26.816406 18.957031 26.691406 19.175781 26.527344 19.355469 C 26.359375 19.535156 26.160156 19.675781 25.925781 19.773438 C 25.691406 19.871094 25.433594 19.917969 25.140625 19.917969 C 24.855469 19.917969 24.589844 19.863281 24.339844 19.75 C 24.089844 19.640625 23.875 19.472656 23.691406 19.242188 C 23.511719 19.015625 23.367188 18.730469 23.261719 18.382812 C 23.15625 18.039062 23.101562 17.632812 23.101562 17.160156 Z M 25.132812 19.261719 C 25.300781 19.261719 25.457031 19.234375 25.597656 19.175781 C 25.738281 19.117188 25.863281 19.03125 25.964844 18.910156 C 26.066406 18.792969 26.144531 18.644531 26.203125 18.464844 C 26.257812 18.28125 26.285156 18.066406 26.285156 17.820312 C 26.285156 17.621094 26.261719 17.441406 26.214844 17.285156 C 26.167969 17.125 26.097656 16.988281 26.003906 16.878906 C 25.910156 16.769531 25.792969 16.683594 25.652344 16.621094 C 25.511719 16.5625 25.347656 16.535156 25.160156 16.535156 C 24.964844 16.535156 24.792969 16.566406 24.636719 16.632812 C 24.476562 16.699219 24.339844 16.789062 24.230469 16.894531 C 24.121094 17.003906 24.035156 17.121094 23.972656 17.261719 C 23.910156 17.394531 23.878906 17.535156 23.878906 17.667969 C 23.878906 17.863281 23.90625 18.050781 23.960938 18.238281 C 24.011719 18.429688 24.089844 18.597656 24.195312 18.75 C 24.296875 18.902344 24.429688 19.027344 24.585938 19.121094 C 24.742188 19.214844 24.925781 19.261719 25.132812 19.261719 Z M 25.132812 19.261719 "/>
<path style=" stroke:none;fill-rule:nonzero;fill:rgb(0%,0%,0%);fill-opacity:1;" d="M 17.363281 18.464844 L 16.496094 18.464844 L 16.496094 19.925781 L 15.773438 19.925781 L 15.773438 18.464844 L 13.011719 18.464844 L 13.011719 17.753906 L 15.726562 13.375 L 16.496094 13.375 L 16.496094 17.722656 L 17.363281 17.722656 Z M 15.773438 17.722656 L 15.773438 16.136719 C 15.773438 15.972656 15.777344 15.796875 15.78125 15.613281 C 15.785156 15.433594 15.789062 15.253906 15.792969 15.082031 C 15.800781 14.90625 15.804688 14.742188 15.8125 14.589844 C 15.820312 14.441406 15.824219 14.316406 15.828125 14.214844 L 15.792969 14.214844 C 15.769531 14.273438 15.746094 14.339844 15.71875 14.410156 C 15.691406 14.484375 15.660156 14.558594 15.625 14.628906 C 15.589844 14.703125 15.554688 14.773438 15.519531 14.839844 C 15.484375 14.910156 15.453125 14.96875 15.421875 15.015625 L 13.742188 17.722656 Z M 15.773438 17.722656 "/>
<path style=" stroke:none;fill-rule:nonzero;fill:rgb(100%,47.058824%,0%);fill-opacity:0.894118;" d="M 6.808594 10.367188 L 6.035156 10.367188 L 6.035156 6.355469 C 6.035156 6.230469 6.035156 6.097656 6.039062 5.953125 C 6.039062 5.808594 6.042969 5.667969 6.046875 5.523438 C 6.050781 5.378906 6.054688 5.246094 6.058594 5.113281 C 6.0625 4.984375 6.066406 4.871094 6.070312 4.769531 C 6.019531 4.824219 5.976562 4.867188 5.9375 4.90625 C 5.902344 4.945312 5.863281 4.980469 5.824219 5.015625 C 5.785156 5.050781 5.742188 5.089844 5.699219 5.128906 C 5.652344 5.167969 5.601562 5.214844 5.539062 5.265625 L 4.886719 5.796875 L 4.464844 5.257812 L 6.152344 3.941406 L 6.808594 3.941406 Z M 6.808594 10.367188 "/>
</g>
</svg>
