
<svg xmlns="http://www.w3.org/2000/svg" xmlns:xlink="http://www.w3.org/1999/xlink" width="32px" height="32px" viewBox="0 0 32 32" version="1.1">
<g id="surface1">
<path style=" stroke:none;fill-rule:evenodd;fill:rgb(16.470589%,49.803922%,100%);fill-opacity:1;" d="M 4.910156 2.003906 L 27.132812 2.003906 C 28.859375 2.003906 30.257812 3.402344 30.257812 5.128906 L 30.257812 26.945312 C 30.257812 28.671875 28.859375 30.070312 27.132812 30.070312 L 4.910156 30.070312 C 3.183594 30.070312 1.785156 28.671875 1.785156 26.945312 L 1.785156 5.128906 C 1.785156 3.402344 3.183594 2.003906 4.910156 2.003906 Z M 4.910156 2.003906 "/>
<path style="fill-rule:nonzero;fill:rgb(64.705884%,64.705884%,64.705884%);fill-opacity:1;stroke-width:15.330709;stroke-linecap:butt;stroke-linejoin:miter;stroke:rgb(100%,100%,100%);stroke-opacity:1;stroke-miterlimit:4;" d="M 427.875 256.9375 C 427.875 351.4375 351.1875 428.125 256.6875 428.125 C 162.125 428.125 85.5 351.4375 85.5 256.9375 C 85.5 162.375 162.125 85.6875 256.6875 85.6875 C 351.1875 85.6875 427.875 162.375 427.875 256.9375 Z M 427.875 256.9375 " transform="matrix(0.0625,0,0,0.0625,0,0)"/>
<path style=" stroke:none;fill-rule:nonzero;fill:rgb(100%,100%,100%);fill-opacity:1;" d="M 18.402344 10.527344 L 13.535156 10.527344 L 13.535156 16.207031 L 10.285156 16.207031 L 15.96875 21.890625 L 21.648438 16.207031 L 18.402344 16.207031 Z M 18.402344 10.527344 "/>
</g>
</svg>
