
<svg xmlns="http://www.w3.org/2000/svg" xmlns:xlink="http://www.w3.org/1999/xlink" width="32px" height="32px" viewBox="0 0 32 32" version="1.1">
<g id="surface1">
<path style="fill-rule:nonzero;fill:rgb(100%,100%,100%);fill-opacity:1;stroke-width:28.191782;stroke-linecap:butt;stroke-linejoin:miter;stroke:rgb(38.039216%,78.039217%,5.098039%);stroke-opacity:1;stroke-miterlimit:4;" d="M 81.5 25.0625 L 430.5 25.0625 C 461.6875 25.0625 486.9375 50.3125 486.9375 81.5 L 486.9375 430.5 C 486.9375 461.6875 461.6875 486.9375 430.5 486.9375 L 81.5 486.9375 C 50.3125 486.9375 25.0625 461.6875 25.0625 430.5 L 25.0625 81.5 C 25.0625 50.3125 50.3125 25.0625 81.5 25.0625 Z M 81.5 25.0625 " transform="matrix(0.0625,0,0,0.0625,0,0)"/>
<path style=" stroke:none;fill-rule:nonzero;fill:rgb(38.039216%,78.039217%,5.098039%);fill-opacity:1;" d="M 15.152344 27.878906 C 14.875 27.753906 9.460938 22.421875 9.28125 22.097656 C 9.144531 21.851562 9.136719 21.613281 9.246094 21.347656 C 9.339844 21.121094 12.410156 18.007812 12.769531 17.773438 C 13.042969 17.597656 13.398438 17.574219 13.691406 17.714844 C 13.800781 17.765625 15.035156 18.957031 16.699219 20.613281 C 19.277344 23.183594 19.527344 23.441406 19.578125 23.652344 C 19.695312 24.113281 19.691406 24.125 17.78125 26.042969 C 15.753906 28.082031 15.691406 28.125 15.152344 27.878906 Z M 21.222656 22.679688 C 21.125 22.625 20.574219 22.109375 20.003906 21.535156 C 19.082031 20.609375 18.957031 20.457031 18.898438 20.246094 C 18.84375 20.039062 18.847656 19.988281 18.933594 19.824219 C 19.054688 19.605469 24.902344 13.628906 25.097656 13.523438 C 25.289062 13.425781 25.546875 13.433594 25.75 13.542969 C 26.003906 13.679688 27.914062 15.546875 28.027344 15.773438 C 28.144531 15.996094 28.15625 16.257812 28.066406 16.425781 C 28.003906 16.527344 26.957031 17.605469 23.332031 21.304688 L 21.917969 22.742188 L 21.664062 22.761719 C 21.476562 22.777344 21.355469 22.753906 21.222656 22.679688 Z M 6.46875 18.824219 C 5.585938 17.996094 4.050781 16.457031 3.984375 16.328125 C 3.886719 16.140625 3.890625 15.824219 3.996094 15.667969 C 4.082031 15.535156 4.886719 14.703125 7.070312 12.488281 C 8.425781 11.113281 8.527344 11.035156 8.898438 11.105469 C 9.058594 11.136719 9.292969 11.347656 10.46875 12.515625 C 12.011719 14.050781 12.039062 14.089844 11.851562 14.496094 C 11.785156 14.644531 11.097656 15.378906 9.65625 16.851562 C 8.503906 18.027344 7.496094 19.03125 7.421875 19.082031 C 7.34375 19.132812 7.1875 19.171875 7.058594 19.171875 C 6.855469 19.171875 6.808594 19.144531 6.46875 18.824219 Z M 18.132812 16.511719 C 17.875 16.402344 11.25 9.785156 11.121094 9.507812 C 10.992188 9.238281 10.996094 8.847656 11.121094 8.585938 C 11.191406 8.449219 11.945312 7.65625 13.300781 6.304688 C 15.167969 4.441406 15.398438 4.230469 15.605469 4.175781 C 15.871094 4.105469 16.207031 4.136719 16.445312 4.257812 C 16.707031 4.386719 23.277344 10.964844 23.394531 11.210938 C 23.511719 11.460938 23.519531 11.84375 23.410156 12.101562 C 23.300781 12.363281 19.324219 16.363281 19.035156 16.496094 C 18.785156 16.613281 18.378906 16.621094 18.132812 16.511719 Z M 18.132812 16.511719 "/>
</g>
</svg>
