
<svg xmlns="http://www.w3.org/2000/svg" xmlns:xlink="http://www.w3.org/1999/xlink" width="32px" height="32px" viewBox="0 0 32 32" version="1.1">
<g id="surface1">
<path style="fill-rule:nonzero;fill:rgb(100%,100%,100%);fill-opacity:1;stroke-width:7.167403;stroke-linecap:butt;stroke-linejoin:miter;stroke:rgb(67.450982%,57.647061%,57.647061%);stroke-opacity:1;stroke-miterlimit:4;" d="M 19.625 0.146331 L 108.375 0.146331 C 116.28125 0.146331 122.703125 6.568206 122.703125 14.474456 L 122.703125 103.224456 C 122.703125 111.130706 116.28125 117.552581 108.375 117.552581 L 19.625 117.552581 C 11.71875 117.552581 5.296875 111.130706 5.296875 103.224456 L 5.296875 14.474456 C 5.296875 6.568206 11.71875 0.146331 19.625 0.146331 Z M 19.625 0.146331 " transform="matrix(0.25,0,0,0.25,0,1.287636)"/>
<path style="fill-rule:nonzero;fill:rgb(100%,100%,100%);fill-opacity:1;stroke-width:1.533927;stroke-linecap:round;stroke-linejoin:round;stroke:rgb(33.333334%,34.117648%,32.549021%);stroke-opacity:1;stroke-miterlimit:10;" d="M 12.872638 -0.241326 L 74.881056 -0.241326 C 75.98317 -0.241326 76.882263 0.643266 76.882263 1.759881 L 76.882263 37.752607 C 76.882263 38.854721 75.98317 39.753814 74.881056 39.753814 L 12.872638 39.753814 C 11.770524 39.753814 10.885933 38.854721 10.885933 37.752607 L 10.885933 1.759881 C 10.885933 0.643266 11.770524 -0.241326 12.872638 -0.241326 Z M 12.872638 -0.241326 " transform="matrix(0.269369,0,0,0.269369,5.243452,8.607974)"/>
<path style=" stroke:none;fill-rule:nonzero;fill:rgb(31.37255%,28.627452%,28.627452%);fill-opacity:1;" d="M 8.441406 10.695312 L 25.683594 10.695312 L 25.683594 13.121094 L 8.441406 13.121094 Z M 8.441406 10.695312 "/>
<path style=" stroke:none;fill-rule:nonzero;fill:rgb(0%,0%,0%);fill-opacity:1;" d="M 10.386719 14.449219 L 23.25 14.449219 L 23.25 19.121094 L 10.386719 19.121094 Z M 10.386719 14.449219 "/>
<path style="fill-rule:nonzero;fill:rgb(100%,100%,100%);fill-opacity:1;stroke-width:1.533925;stroke-linecap:round;stroke-linejoin:round;stroke:rgb(33.333334%,34.117648%,32.549021%);stroke-opacity:1;stroke-miterlimit:10;" d="M 1.066188 -50.05933 L 63.06256 -50.059437 C 64.170005 -50.059439 65.062114 -49.167333 65.062116 -48.059888 L 65.072432 -12.057695 C 65.072434 -10.950251 64.180328 -10.058141 63.072883 -10.058139 L 1.056003 -10.058032 C -0.0411873 -10.068285 -0.933297 -10.960391 -0.933299 -12.047327 L -0.933361 -48.059775 C -0.933363 -49.167219 -0.0412562 -50.059329 1.066188 -50.05933 Z M 1.066188 -50.05933 " transform="matrix(0.190472,0.190473,-0.190473,0.190472,3.715112,13.585728)"/>
<path style=" stroke:none;fill-rule:nonzero;fill:rgb(31.37255%,28.627452%,28.627452%);fill-opacity:1;" d="M 11.738281 5.585938 L 23.929688 17.777344 L 22.214844 19.492188 L 10.023438 7.300781 Z M 11.738281 5.585938 "/>
<path style=" stroke:none;fill-rule:evenodd;fill:rgb(67.450982%,57.647061%,57.647061%);fill-opacity:1;" d="M 6.398438 12.757812 L 26.777344 12.757812 C 27.472656 12.757812 28.035156 13.320312 28.035156 14.015625 L 28.035156 26.386719 C 28.035156 27.078125 27.472656 27.640625 26.777344 27.640625 L 6.398438 27.640625 C 5.707031 27.640625 5.144531 27.078125 5.144531 26.386719 L 5.144531 14.015625 C 5.144531 13.320312 5.707031 12.757812 6.398438 12.757812 Z M 6.398438 12.757812 "/>
<path style="fill-rule:evenodd;fill:rgb(65.490198%,57.647061%,57.647061%);fill-opacity:1;stroke-width:2.892341;stroke-linecap:butt;stroke-linejoin:miter;stroke:rgb(41.176471%,35.686275%,35.686275%);stroke-opacity:1;stroke-miterlimit:4;" d="M 15.5 67.302581 L 37.953125 67.302581 C 38.671875 67.302581 39.265625 67.880706 39.265625 68.615081 L 39.265625 81.583831 C 39.265625 82.302581 38.671875 82.896331 37.953125 82.896331 L 15.5 82.896331 C 14.78125 82.896331 14.1875 82.302581 14.1875 81.583831 L 14.1875 68.615081 C 14.1875 67.880706 14.78125 67.302581 15.5 67.302581 Z M 15.5 67.302581 " transform="matrix(0.25,0,0,0.25,0,1.287636)"/>
<path style=" stroke:none;fill-rule:nonzero;fill:rgb(78.431374%,76.862746%,71.764708%);fill-opacity:1;" d="M 8.621094 20.011719 C 8.621094 20.714844 8.015625 21.289062 7.269531 21.292969 C 6.519531 21.300781 5.910156 20.734375 5.898438 20.027344 C 5.886719 19.324219 6.480469 18.738281 7.230469 18.726562 C 7.976562 18.710938 8.597656 19.269531 8.617188 19.972656 "/>
<path style=" stroke:none;fill-rule:nonzero;fill:rgb(100%,96.470588%,83.529413%);fill-opacity:1;" d="M 7.464844 19.675781 C 7.464844 19.984375 7.199219 20.234375 6.875 20.238281 C 6.550781 20.238281 6.28125 19.992188 6.277344 19.683594 C 6.273438 19.375 6.53125 19.121094 6.855469 19.113281 C 7.183594 19.109375 7.453125 19.351562 7.464844 19.660156 "/>
</g>
</svg>
