
<svg xmlns="http://www.w3.org/2000/svg" xmlns:xlink="http://www.w3.org/1999/xlink" width="32px" height="32px" viewBox="0 0 32 32" version="1.1">
<g id="surface1">
<path style=" stroke:none;fill-rule:nonzero;fill:rgb(0%,40.000001%,50.196081%);fill-opacity:1;" d="M 6.222656 2.527344 L 25.859375 2.527344 C 27.933594 2.527344 29.609375 4.207031 29.609375 6.277344 L 29.609375 25.910156 C 29.609375 27.980469 27.933594 29.660156 25.859375 29.660156 L 6.222656 29.660156 C 4.152344 29.660156 2.472656 27.980469 2.472656 25.910156 L 2.472656 6.277344 C 2.472656 4.207031 4.152344 2.527344 6.222656 2.527344 Z M 6.222656 2.527344 "/>
<path style="fill:none;stroke-width:1.680285;stroke-linecap:butt;stroke-linejoin:round;stroke:rgb(33.333334%,86.666667%,100%);stroke-opacity:1;stroke-miterlimit:4;" d="M 9.890625 66.53125 L 31.953125 66.53125 L 35.546875 28.609375 L 37.328125 80.46875 L 39.140625 46.609375 L 42.71875 110.34375 L 46.3125 19.109375 L 48.40625 98.390625 L 49.90625 46.609375 L 51.90625 60.5625 L 55.296875 32.671875 L 57.078125 102.375 L 58.890625 50.609375 L 62.421875 80.46875 L 64.265625 54.578125 L 66.0625 66.53125 L 66.0625 29.96875 L 69.65625 84.453125 L 73.25 54.578125 L 75.046875 66.53125 L 118.421875 66.53125 " transform="matrix(0.25,0,0,0.25,0,0)"/>
</g>
</svg>
