
<svg xmlns="http://www.w3.org/2000/svg" xmlns:xlink="http://www.w3.org/1999/xlink" width="32px" height="32px" viewBox="0 0 32 32" version="1.1">
<g id="surface1">
<path style="fill-rule:nonzero;fill:rgb(16.078432%,50.196081%,72.549021%);fill-opacity:1;stroke-width:6.392664;stroke-linecap:butt;stroke-linejoin:miter;stroke:rgb(21.568628%,20.784314%,22.745098%);stroke-opacity:1;stroke-miterlimit:4;" d="M 19.880892 936.211983 L 99.027043 936.211983 C 106.074303 936.211983 111.796437 941.949175 111.796437 949.011494 L 111.796437 1028.157645 C 111.796437 1035.204905 106.074303 1040.942098 99.027043 1040.942098 L 19.880892 1040.942098 C 12.803515 1040.942098 7.081381 1035.204905 7.081381 1028.157645 L 7.081381 949.011494 C 7.081381 941.949175 12.803515 936.211983 19.880892 936.211983 Z M 19.880892 936.211983 " transform="matrix(0.259409,0,0,0.259409,0.47943,-240.303528)"/>
<path style=" stroke:none;fill-rule:nonzero;fill:rgb(21.568628%,20.784314%,22.745098%);fill-opacity:1;" d="M 2.832031 3.160156 L 28.761719 3.160156 L 28.761719 7.660156 L 2.832031 7.660156 Z M 2.832031 3.160156 "/>
<path style=" stroke:none;fill-rule:nonzero;fill:rgb(100%,100%,100%);fill-opacity:1;" d="M 21.101562 4.941406 L 22.785156 4.941406 L 22.785156 6.589844 L 21.101562 6.589844 Z M 21.101562 4.941406 "/>
<path style=" stroke:none;fill-rule:nonzero;fill:rgb(100%,100%,100%);fill-opacity:1;" d="M 24.1875 4.941406 L 25.867188 4.941406 L 25.867188 6.589844 L 24.1875 6.589844 Z M 24.1875 4.941406 "/>
<path style=" stroke:none;fill-rule:nonzero;fill:rgb(100%,100%,100%);fill-opacity:1;" d="M 18.019531 4.941406 L 19.699219 4.941406 L 19.699219 6.589844 L 18.019531 6.589844 Z M 18.019531 4.941406 "/>
<path style=" stroke:none;fill-rule:nonzero;fill:rgb(92.54902%,94.117647%,94.509804%);fill-opacity:1;" d="M 17.027344 10.707031 L 14.851562 10.925781 L 14.851562 19.828125 L 17.003906 19.515625 L 17.003906 15.710938 L 19.875 19.925781 L 22.125 19.207031 L 19.183594 15.160156 L 22.148438 11.332031 L 19.851562 10.804688 L 17.003906 14.636719 Z M 12.125 12.886719 C 12.097656 12.886719 12.070312 12.902344 12.050781 12.910156 L 11.214844 13.773438 C 11.179688 13.808594 11.164062 13.871094 11.191406 13.917969 L 12.171875 15.542969 C 11.996094 15.839844 11.867188 16.164062 11.765625 16.503906 L 9.949219 16.886719 C 9.894531 16.898438 9.851562 16.929688 9.851562 16.980469 L 9.851562 18.175781 C 9.851562 18.226562 9.898438 18.285156 9.949219 18.296875 L 11.71875 18.726562 C 11.8125 19.117188 11.957031 19.488281 12.148438 19.828125 L 11.121094 21.382812 C 11.089844 21.425781 11.105469 21.488281 11.144531 21.527344 L 11.980469 22.363281 C 12.015625 22.398438 12.082031 22.417969 12.125 22.390625 L 13.726562 21.410156 C 14.042969 21.589844 14.371094 21.742188 14.730469 21.839844 L 15.113281 23.632812 C 15.125 23.683594 15.160156 23.730469 15.210938 23.730469 L 16.40625 23.730469 C 16.457031 23.730469 16.511719 23.683594 16.527344 23.632812 L 16.957031 21.839844 C 17.328125 21.738281 17.6875 21.574219 18.011719 21.386719 L 19.589844 22.4375 C 19.632812 22.464844 19.695312 22.449219 19.730469 22.414062 L 20.570312 21.574219 C 20.605469 21.539062 20.621094 21.472656 20.59375 21.433594 L 20.019531 20.472656 L 19.828125 20.546875 C 19.800781 20.558594 19.773438 20.546875 19.753906 20.519531 C 19.753906 20.519531 19.394531 19.972656 18.917969 19.277344 C 18.351562 20.390625 17.191406 21.144531 15.855469 21.144531 C 13.957031 21.144531 12.410156 19.621094 12.410156 17.722656 C 12.410156 16.324219 13.25 15.125 14.445312 14.585938 L 14.445312 13.699219 C 14.226562 13.777344 14.023438 13.855469 13.824219 13.964844 C 13.824219 13.964844 13.800781 13.964844 13.800781 13.964844 L 12.195312 12.910156 C 12.175781 12.894531 12.148438 12.886719 12.125 12.886719 Z M 12.125 12.886719 "/>
</g>
</svg>
