
<svg xmlns="http://www.w3.org/2000/svg" xmlns:xlink="http://www.w3.org/1999/xlink" width="32px" height="32px" viewBox="0 0 32 32" version="1.1">
<g id="surface1">
<path style="fill-rule:nonzero;fill:rgb(100%,100%,100%);fill-opacity:1;stroke-width:28.191782;stroke-linecap:butt;stroke-linejoin:miter;stroke:rgb(20.392157%,28.627452%,36.862746%);stroke-opacity:1;stroke-miterlimit:4;" d="M 81.5 25.0625 L 430.5 25.0625 C 461.6875 25.0625 486.9375 50.3125 486.9375 81.5 L 486.9375 430.5 C 486.9375 461.6875 461.6875 486.9375 430.5 486.9375 L 81.5 486.9375 C 50.3125 486.9375 25.0625 461.6875 25.0625 430.5 L 25.0625 81.5 C 25.0625 50.3125 50.3125 25.0625 81.5 25.0625 Z M 81.5 25.0625 " transform="matrix(0.0625,0,0,0.0625,0,0)"/>
<path style=" stroke:none;fill-rule:evenodd;fill:rgb(76.862746%,79.607844%,81.176472%);fill-opacity:1;" d="M 23.25 15.617188 L 25.636719 12.574219 L 28.125 15.386719 L 25.738281 18.425781 Z M 23.25 15.617188 "/>
<path style=" stroke:none;fill-rule:evenodd;fill:rgb(97.647059%,87.058824%,41.176471%);fill-opacity:1;" d="M 18.421875 13.234375 L 24.558594 13.234375 L 24.558594 17.769531 L 18.421875 17.769531 Z M 18.421875 13.234375 "/>
<path style=" stroke:none;fill-rule:evenodd;fill:rgb(76.862746%,79.607844%,81.176472%);fill-opacity:1;" d="M 9.09375 12.382812 L 18.433594 12.382812 L 18.433594 18.621094 L 9.09375 18.621094 Z M 9.09375 12.382812 "/>
<path style=" stroke:none;fill-rule:evenodd;fill:rgb(76.862746%,79.607844%,81.176472%);fill-opacity:1;" d="M 20.207031 12.382812 L 22.792969 12.382812 L 22.792969 18.621094 L 20.207031 18.621094 Z M 20.207031 12.382812 "/>
<path style=" stroke:none;fill-rule:evenodd;fill:rgb(20.392157%,28.627452%,36.862746%);fill-opacity:1;" d="M 3.492188 10.949219 L 9.160156 10.949219 L 9.160156 20.316406 L 3.492188 20.316406 Z M 3.492188 10.949219 "/>
</g>
</svg>
