
<svg xmlns="http://www.w3.org/2000/svg" xmlns:xlink="http://www.w3.org/1999/xlink" width="32px" height="32px" viewBox="0 0 32 32" version="1.1">
<g id="surface1">
<path style="fill-rule:nonzero;fill:rgb(80.392158%,11.372549%,19.215687%);fill-opacity:1;stroke-width:27.910587;stroke-linecap:butt;stroke-linejoin:miter;stroke:rgb(54.11765%,4.313726%,10.196079%);stroke-opacity:1;stroke-miterlimit:4;" d="M 83.1875 27.4375 L 428.8125 27.4375 C 459.625 27.4375 484.5625 52.375 484.5625 83.1875 L 484.5625 428.8125 C 484.5625 459.625 459.625 484.5625 428.8125 484.5625 L 83.1875 484.5625 C 52.375 484.5625 27.4375 459.625 27.4375 428.8125 L 27.4375 83.1875 C 27.4375 52.375 52.375 27.4375 83.1875 27.4375 Z M 83.1875 27.4375 " transform="matrix(0.0625,0,0,0.0625,0,0)"/>
<path style=" stroke:none;fill-rule:nonzero;fill:rgb(100%,100%,100%);fill-opacity:1;" d="M 12.082031 10.136719 C 9.988281 10.183594 7.933594 11.355469 6.914062 13.453125 C 5.417969 16.542969 6.660156 20.207031 9.699219 21.667969 C 10.167969 21.890625 10.867188 22.121094 11.257812 22.171875 C 12.65625 22.363281 13.957031 22.101562 15.089844 21.398438 C 15.835938 20.9375 16.648438 20.1875 16.648438 19.964844 C 16.648438 19.886719 16.488281 19.457031 16.289062 19.003906 L 15.929688 18.183594 L 15.746094 18.480469 C 15.394531 19.054688 14.53125 19.824219 13.890625 20.136719 C 13.332031 20.40625 13.089844 20.449219 12.144531 20.449219 C 11.167969 20.449219 10.972656 20.410156 10.359375 20.097656 C 9.507812 19.667969 8.734375 18.867188 8.339844 18.003906 C 8.082031 17.433594 8.042969 17.191406 8.042969 16.15625 C 8.042969 15.074219 8.074219 14.898438 8.382812 14.273438 C 8.757812 13.507812 9.558594 12.667969 10.261719 12.300781 C 10.996094 11.910156 12.113281 11.753906 12.917969 11.925781 C 14.503906 12.261719 15.457031 13.125 16.199219 14.886719 C 17.984375 19.132812 18.542969 20.296875 19.089844 20.917969 C 19.910156 21.839844 20.566406 22.109375 22.023438 22.113281 C 23.046875 22.113281 23.257812 22.074219 23.886719 21.777344 C 25.261719 21.125 25.953125 20.015625 25.9375 18.480469 C 25.917969 16.699219 25.179688 15.933594 22.65625 15.082031 C 20.832031 14.464844 20.460938 14.160156 20.460938 13.261719 C 20.460938 12.363281 21.039062 11.800781 21.964844 11.800781 C 22.503906 11.800781 22.808594 11.933594 23.257812 12.371094 C 23.480469 12.582031 23.644531 12.648438 23.832031 12.597656 C 24.199219 12.496094 24.851562 12.074219 24.851562 11.933594 C 24.851562 11.644531 23.722656 10.640625 23.183594 10.453125 C 21.917969 10.003906 20.480469 10.308594 19.652344 11.191406 C 19.074219 11.804688 18.847656 12.40625 18.847656 13.308594 C 18.847656 14.984375 19.679688 15.824219 22.253906 16.75 C 23.941406 17.355469 24.273438 17.660156 24.273438 18.597656 C 24.273438 19.710938 23.355469 20.507812 22.0625 20.507812 C 21.273438 20.507812 20.863281 20.363281 20.425781 19.933594 C 20.011719 19.527344 19.769531 19.046875 18.496094 16.007812 C 17.277344 13.105469 16.914062 12.449219 16.101562 11.679688 C 14.960938 10.597656 13.511719 10.105469 12.082031 10.136719 "/>
</g>
</svg>
