
<svg xmlns="http://www.w3.org/2000/svg" xmlns:xlink="http://www.w3.org/1999/xlink" width="32px" height="32px" viewBox="0 0 32 32" version="1.1">
<g id="surface1">
<path style="fill-rule:nonzero;fill:rgb(80.392158%,11.372549%,19.215687%);fill-opacity:1;stroke-width:27.910587;stroke-linecap:butt;stroke-linejoin:miter;stroke:rgb(54.11765%,4.313726%,10.196079%);stroke-opacity:1;stroke-miterlimit:4;" d="M 83.1875 27.4375 L 428.8125 27.4375 C 459.625 27.4375 484.5625 52.375 484.5625 83.1875 L 484.5625 428.8125 C 484.5625 459.625 459.625 484.5625 428.8125 484.5625 L 83.1875 484.5625 C 52.375 484.5625 27.4375 459.625 27.4375 428.8125 L 27.4375 83.1875 C 27.4375 52.375 52.375 27.4375 83.1875 27.4375 Z M 83.1875 27.4375 " transform="matrix(0.0625,0,0,0.0625,0,0)"/>
<path style=" stroke:none;fill-rule:nonzero;fill:rgb(100%,100%,100%);fill-opacity:1;" d="M 13.261719 6.480469 C 13.175781 6.480469 9.800781 8.484375 9.667969 8.613281 C 9.597656 8.683594 9.613281 8.738281 9.773438 9.003906 C 11.558594 11.941406 12.746094 13.96875 12.707031 14.003906 C 12.675781 14.027344 11.601562 14.015625 10.316406 13.976562 C 9.035156 13.9375 7.683594 13.902344 7.320312 13.898438 L 6.660156 13.898438 L 6.628906 16.042969 C 6.609375 17.304688 6.613281 18.207031 6.644531 18.242188 C 6.695312 18.292969 10.445312 18.207031 11.984375 18.121094 C 12.515625 18.089844 12.628906 18.097656 12.65625 18.167969 C 12.675781 18.21875 12.433594 18.679688 12.097656 19.242188 C 11.769531 19.785156 11.074219 20.949219 10.550781 21.824219 C 10.027344 22.703125 9.609375 23.449219 9.621094 23.488281 C 9.660156 23.585938 13.082031 25.59375 13.222656 25.597656 C 13.324219 25.597656 14.105469 24.183594 15.886719 20.753906 C 16.019531 20.5 16.167969 20.289062 16.214844 20.289062 C 16.261719 20.289062 16.789062 21.230469 17.566406 22.710938 C 19.167969 25.773438 19.125 25.6875 19.15625 25.6875 C 19.167969 25.6875 19.546875 25.46875 19.992188 25.199219 C 20.4375 24.933594 21.257812 24.449219 21.8125 24.117188 C 22.371094 23.785156 22.824219 23.488281 22.824219 23.460938 C 22.824219 23.433594 22.292969 22.523438 21.644531 21.441406 C 20.996094 20.355469 20.292969 19.183594 20.082031 18.832031 C 19.867188 18.46875 19.71875 18.164062 19.746094 18.136719 C 19.773438 18.109375 21.089844 18.125 22.75 18.171875 C 24.375 18.222656 25.726562 18.242188 25.753906 18.214844 C 25.816406 18.152344 25.855469 13.910156 25.792969 13.867188 C 25.765625 13.851562 24.527344 13.875 23.042969 13.925781 C 19.820312 14.027344 19.746094 14.03125 19.746094 13.953125 C 19.746094 13.917969 20.265625 13.03125 20.898438 11.980469 C 22.785156 8.847656 22.878906 8.683594 22.855469 8.644531 C 22.839844 8.621094 22.511719 8.417969 22.128906 8.191406 C 21.746094 7.964844 20.9375 7.488281 20.335938 7.132812 C 19.734375 6.777344 19.214844 6.484375 19.1875 6.484375 C 19.140625 6.484375 17.988281 8.605469 16.75 10.992188 C 16.457031 11.554688 16.273438 11.847656 16.21875 11.839844 C 16.175781 11.832031 15.507812 10.621094 14.738281 9.152344 C 13.941406 7.636719 13.304688 6.484375 13.261719 6.484375 Z M 13.261719 6.480469 "/>
</g>
</svg>
