
<svg xmlns="http://www.w3.org/2000/svg" xmlns:xlink="http://www.w3.org/1999/xlink" width="32px" height="32px" viewBox="0 0 32 32" version="1.1">
<g id="surface1">
<path style="fill-rule:nonzero;fill:rgb(100%,100%,100%);fill-opacity:1;stroke-width:7.030396;stroke-linecap:butt;stroke-linejoin:miter;stroke:rgb(58.431375%,64.705884%,65.098041%);stroke-opacity:1;stroke-miterlimit:4;" d="M 384.381493 360.761681 L 471.411118 360.761681 C 479.160973 360.761681 485.45773 367.062168 485.45773 374.816614 L 485.45773 461.897789 C 485.45773 469.652235 479.160973 475.952722 471.411118 475.952722 L 384.381493 475.952722 C 376.631638 475.952722 370.33488 469.652235 370.33488 461.897789 L 370.33488 374.816614 C 370.33488 367.062168 376.631638 360.761681 384.381493 360.761681 Z M 384.381493 360.761681 " transform="matrix(0.250005,0,0,0.249857,-90.976074,-88.529338)"/>
<path style=" stroke:none;fill-rule:nonzero;fill:rgb(95.294118%,61.176473%,7.058824%);fill-opacity:1;" d="M 6.257812 21.191406 C 6.257812 21.191406 3.160156 24.292969 4.929688 27.171875 C 7.738281 28.875 10.855469 25.792969 10.855469 25.792969 L 13.414062 23.230469 C 12.855469 21.644531 10.386719 19.144531 8.816406 18.628906 Z M 6.257812 21.191406 "/>
<path style=" stroke:none;fill-rule:nonzero;fill:rgb(58.431375%,64.705884%,65.098041%);fill-opacity:1;" d="M 15.089844 8.316406 C 15.089844 8.316406 20.90625 2.5 26.308594 5.824219 C 29.503906 11.101562 23.71875 16.953125 23.71875 16.953125 L 18.917969 21.757812 C 15.941406 20.710938 11.246094 16.074219 10.285156 13.125 Z M 15.089844 8.316406 "/>
<path style=" stroke:none;fill-rule:nonzero;fill:rgb(49.803922%,54.901963%,55.29412%);fill-opacity:1;" d="M 16.757812 6.960938 L 7.660156 11.617188 L 10.492188 13.621094 Z M 25.074219 15.285156 L 18.417969 21.554688 L 20.421875 24.386719 Z M 25.074219 15.285156 "/>
<path style=" stroke:none;fill-rule:nonzero;fill:rgb(74.117649%,76.47059%,78.039217%);fill-opacity:1;" d="M 22.902344 15.359375 C 21.183594 17.078125 18.402344 17.078125 16.683594 15.359375 C 14.964844 13.640625 14.964844 10.855469 16.683594 9.136719 C 18.402344 7.417969 21.183594 7.417969 22.902344 9.136719 C 24.621094 10.855469 24.621094 13.640625 22.902344 15.359375 Z M 22.902344 15.359375 "/>
<path style=" stroke:none;fill-rule:nonzero;fill:rgb(20.392157%,59.607846%,85.882354%);fill-opacity:1;" d="M 22.335938 14.792969 C 20.933594 16.199219 18.652344 16.199219 17.25 14.792969 C 15.847656 13.386719 15.847656 11.105469 17.25 9.699219 C 18.652344 8.292969 20.933594 8.292969 22.335938 9.699219 C 23.742188 11.105469 23.742188 13.386719 22.335938 14.792969 Z M 22.335938 14.792969 "/>
<path style=" stroke:none;fill-rule:nonzero;fill:rgb(8.627451%,62.7451%,52.156866%);fill-opacity:1;" d="M 10.308594 13.179688 L 7.269531 17.929688 C 8.082031 19.203125 9.109375 20.480469 10.328125 21.699219 C 11.550781 22.925781 12.839844 23.957031 14.121094 24.769531 L 18.863281 21.738281 C 15.902344 20.660156 11.300781 16.113281 10.308594 13.179688 Z M 10.308594 13.179688 "/>
</g>
</svg>
