
<svg xmlns="http://www.w3.org/2000/svg" xmlns:xlink="http://www.w3.org/1999/xlink" width="32px" height="32px" viewBox="0 0 32 32" version="1.1">
<g id="surface1">
<path style="fill-rule:nonzero;fill:rgb(100%,100%,100%);fill-opacity:1;stroke-width:62.625244;stroke-linecap:butt;stroke-linejoin:miter;stroke:rgb(63.921571%,12.156863%,12.156863%);stroke-opacity:1;stroke-miterlimit:4;" d="M 130.221364 -1.920257 L 905.729152 -1.920257 C 974.865741 -1.920257 1030.820101 54.034102 1030.820101 123.170691 L 1030.820101 898.678479 C 1030.820101 967.815069 974.865741 1023.769428 905.729152 1023.769428 L 130.221364 1023.769428 C 61.084775 1023.769428 5.130415 967.815069 5.130415 898.678479 L 5.130415 123.170691 C 5.130415 54.034102 61.084775 -1.920257 130.221364 -1.920257 Z M 130.221364 -1.920257 " transform="matrix(0.0278547,0,0,0.0278547,1.571937,1.768332)"/>
<path style=" stroke:none;fill-rule:nonzero;fill:rgb(83.137256%,10.196079%,10.196079%);fill-opacity:1;" d="M 5.722656 2.585938 C 4.476562 2.597656 3.523438 3.902344 3.703125 5.175781 C 3.707031 12.597656 3.691406 20.011719 3.710938 27.433594 C 3.804688 28.6875 5 29.582031 6.15625 29.414062 C 13.289062 29.40625 20.425781 29.425781 27.558594 29.402344 C 28.753906 29.308594 29.59375 28.042969 29.433594 26.824219 C 29.433594 22.277344 29.433594 17.726562 29.433594 13.179688 C 28.953125 12.042969 27.792969 11.355469 27.042969 10.402344 C 24.589844 7.847656 22.152344 5.277344 19.683594 2.746094 C 18.996094 2.433594 18.199219 2.652344 17.464844 2.585938 C 13.550781 2.585938 9.636719 2.585938 5.722656 2.585938 Z M 22.488281 2.585938 C 22.015625 2.625 21.992188 3.316406 22.378906 3.519531 C 24.523438 5.734375 26.636719 7.992188 28.800781 10.183594 C 29.21875 10.417969 29.5625 9.886719 29.433594 9.480469 C 29.40625 7.773438 29.496094 6.054688 29.386719 4.351562 C 29.199219 3.152344 28.007812 2.421875 26.90625 2.585938 C 25.433594 2.585938 23.960938 2.585938 22.488281 2.585938 Z M 22.488281 2.585938 "/>
<path style=" stroke:none;fill-rule:nonzero;fill:rgb(63.921571%,12.156863%,12.156863%);fill-opacity:1;" d="M 2.300781 1.984375 L 7.441406 1.984375 L 7.441406 29.683594 L 2.300781 29.683594 Z M 2.300781 1.984375 "/>
<path style=" stroke:none;fill-rule:nonzero;fill:rgb(100%,100%,100%);fill-opacity:1;" d="M 11.542969 12.105469 L 11.542969 12.78125 L 12.503906 12.882812 L 12.792969 13.117188 L 12.792969 22.410156 L 12.503906 22.644531 L 11.542969 22.730469 L 11.542969 23.421875 L 15.996094 23.421875 C 18.863281 23.421875 20.394531 22.238281 20.394531 20.117188 C 20.394531 18.464844 19.269531 17.433594 17.261719 17.417969 C 18.878906 16.980469 19.707031 16.121094 19.707031 14.839844 C 19.707031 12.984375 18.425781 12.105469 15.84375 12.105469 Z M 14.308594 17.230469 L 14.308594 12.898438 C 14.730469 12.882812 15.050781 12.847656 15.269531 12.847656 C 17.125 12.847656 18.035156 13.539062 18.035156 14.90625 C 18.035156 16.542969 17.058594 17.25 14.949219 17.25 C 14.746094 17.25 14.527344 17.25 14.308594 17.230469 Z M 14.308594 22.578125 L 14.308594 18.074219 C 14.964844 18.007812 15.523438 17.972656 15.964844 17.972656 C 17.832031 17.972656 18.746094 18.699219 18.746094 20.234375 C 18.746094 21.9375 17.699219 22.628906 15.441406 22.628906 C 15.085938 22.628906 14.714844 22.613281 14.308594 22.578125 Z M 14.308594 22.578125 "/>
</g>
</svg>
