
<svg xmlns="http://www.w3.org/2000/svg" xmlns:xlink="http://www.w3.org/1999/xlink" width="32px" height="32px" viewBox="0 0 32 32" version="1.1">
<g id="surface1">
<path style="fill-rule:nonzero;fill:rgb(100%,100%,100%);fill-opacity:1;stroke-width:27.910589;stroke-linecap:butt;stroke-linejoin:miter;stroke:rgb(30.19608%,30.19608%,30.19608%);stroke-opacity:1;stroke-miterlimit:4;" d="M 83.1875 539.4375 L 428.8125 539.4375 C 459.625 539.4375 484.5625 564.375 484.5625 595.1875 L 484.5625 940.8125 C 484.5625 971.625 459.625 996.5625 428.8125 996.5625 L 83.1875 996.5625 C 52.375 996.5625 27.4375 971.625 27.4375 940.8125 L 27.4375 595.1875 C 27.4375 564.375 52.375 539.4375 83.1875 539.4375 Z M 83.1875 539.4375 " transform="matrix(0.0625,0,0,0.0625,0,-32)"/>
<path style=" stroke:none;fill-rule:nonzero;fill:rgb(70.19608%,70.19608%,70.19608%);fill-opacity:1;" d="M 5.722656 2.585938 C 4.476562 2.597656 3.523438 3.902344 3.703125 5.175781 C 3.707031 12.597656 3.691406 20.011719 3.710938 27.433594 C 3.804688 28.6875 5 29.582031 6.15625 29.414062 C 13.289062 29.40625 20.425781 29.425781 27.558594 29.402344 C 28.753906 29.308594 29.59375 28.042969 29.433594 26.824219 C 29.433594 22.277344 29.433594 17.726562 29.433594 13.179688 C 28.953125 12.042969 27.792969 11.355469 27.042969 10.402344 C 24.589844 7.847656 22.152344 5.277344 19.683594 2.746094 C 18.996094 2.433594 18.199219 2.652344 17.464844 2.585938 C 13.550781 2.585938 9.636719 2.585938 5.722656 2.585938 Z M 22.488281 2.585938 C 22.015625 2.625 21.992188 3.316406 22.378906 3.519531 C 24.523438 5.734375 26.636719 7.992188 28.800781 10.183594 C 29.21875 10.417969 29.5625 9.886719 29.433594 9.480469 C 29.40625 7.773438 29.496094 6.054688 29.386719 4.351562 C 29.199219 3.152344 28.007812 2.421875 26.90625 2.585938 C 25.433594 2.585938 23.960938 2.585938 22.488281 2.585938 Z M 22.488281 2.585938 "/>
<path style=" stroke:none;fill-rule:nonzero;fill:rgb(30.19608%,30.19608%,30.19608%);fill-opacity:1;" d="M 2.300781 1.984375 L 7.441406 1.984375 L 7.441406 29.683594 L 2.300781 29.683594 Z M 2.300781 1.984375 "/>
<path style=" stroke:none;fill-rule:nonzero;fill:rgb(100%,100%,100%);fill-opacity:1;" d="M 11.074219 21.925781 L 13.859375 21.925781 L 13.859375 21.386719 L 13.054688 21.28125 L 12.816406 21.027344 L 12.816406 13.824219 L 15.824219 21.925781 L 16.394531 21.925781 L 19.519531 13.695312 L 19.519531 21.136719 L 19.386719 21.320312 L 18.515625 21.386719 L 18.515625 21.925781 L 21.667969 21.925781 L 21.667969 21.386719 L 20.839844 21.320312 L 20.679688 21.136719 L 20.679688 13.867188 L 20.839844 13.683594 L 21.667969 13.601562 L 21.667969 13.074219 L 18.847656 13.074219 L 18.847656 13.484375 L 16.339844 20.054688 L 13.859375 13.429688 L 13.859375 13.074219 L 11.0625 13.074219 L 11.0625 13.601562 L 11.933594 13.683594 L 12.105469 13.867188 L 12.105469 21.027344 L 11.867188 21.28125 L 11.074219 21.386719 Z M 11.074219 21.925781 "/>
</g>
</svg>
