<!-- color: #54d160 -->
<svg xmlns="http://www.w3.org/2000/svg" xmlns:xlink="http://www.w3.org/1999/xlink" width="32px" height="32px" viewBox="0 0 32 32" version="1.1">
<g id="surface1">
<path style="fill-rule:nonzero;fill:rgb(100%,100%,100%);fill-opacity:1;stroke-width:28.178816;stroke-linecap:butt;stroke-linejoin:miter;stroke:rgb(56.078434%,85.09804%,0.784314%);stroke-opacity:1;stroke-miterlimit:4;" d="M 81.5625 25.1875 L 430.4375 25.1875 C 461.5625 25.1875 486.8125 50.4375 486.8125 81.5625 L 486.8125 430.4375 C 486.8125 461.5625 461.5625 486.8125 430.4375 486.8125 L 81.5625 486.8125 C 50.4375 486.8125 25.1875 461.5625 25.1875 430.4375 L 25.1875 81.5625 C 25.1875 50.4375 50.4375 25.1875 81.5625 25.1875 Z M 81.5625 25.1875 " transform="matrix(0.0625,0,0,0.0625,0,0)"/>
<path style="fill-rule:nonzero;fill:rgb(56.078434%,85.09804%,0.784314%);fill-opacity:1;stroke-width:40.818562;stroke-linecap:butt;stroke-linejoin:miter;stroke:rgb(56.078434%,85.09804%,0.784314%);stroke-opacity:1;stroke-miterlimit:4;" d="M 411.8125 256 C 411.8125 342.0625 342.0625 411.8125 256.0625 411.8125 C 170 411.8125 100.1875 342.0625 100.1875 256 C 100.1875 169.9375 170 100.1875 256.0625 100.1875 C 342.0625 100.1875 411.8125 169.9375 411.8125 256 Z M 411.8125 256 " transform="matrix(0.0625,0,0,0.0625,0,0)"/>
<path style="fill-rule:nonzero;fill:rgb(56.078434%,85.09804%,0.784314%);fill-opacity:1;stroke-width:40.818562;stroke-linecap:butt;stroke-linejoin:miter;stroke:rgb(56.078434%,85.09804%,0.784314%);stroke-opacity:1;stroke-miterlimit:4;" d="M 411.8125 256 C 411.8125 342.0625 342.0625 411.8125 256.0625 411.8125 C 170 411.8125 100.1875 342.0625 100.1875 256 C 100.1875 169.9375 170 100.1875 256.0625 100.1875 C 342.0625 100.1875 411.8125 169.9375 411.8125 256 Z M 411.8125 256 " transform="matrix(0.0625,0,0,0.0625,0,0)"/>
<path style=" stroke:none;fill-rule:nonzero;fill:rgb(30.19608%,30.19608%,30.19608%);fill-opacity:1;" d="M 4.988281 13.167969 L 4.988281 18.832031 L 9.125 18.832031 L 9.125 17.296875 L 27.046875 17.296875 L 27.046875 14.703125 L 9.125 14.703125 L 9.125 13.167969 Z M 4.988281 13.167969 "/>
<path style=" stroke:none;fill-rule:nonzero;fill:rgb(56.078434%,85.09804%,0.784314%);fill-opacity:1;" d="M 7.699219 27.011719 L 4.988281 27.011719 L 4.988281 24.304688 L 7.699219 24.304688 Z M 7.699219 27.011719 "/>
<path style=" stroke:none;fill-rule:nonzero;fill:rgb(56.078434%,85.09804%,0.784314%);fill-opacity:1;" d="M 27.015625 27.011719 L 24.308594 27.011719 L 24.308594 24.304688 L 27.015625 24.304688 Z M 27.015625 27.011719 "/>
<path style=" stroke:none;fill-rule:nonzero;fill:rgb(56.078434%,85.09804%,0.784314%);fill-opacity:1;" d="M 27.015625 7.695312 L 24.308594 7.695312 L 24.308594 4.988281 L 27.015625 4.988281 Z M 27.015625 7.695312 "/>
<path style=" stroke:none;fill-rule:nonzero;fill:rgb(56.078434%,85.09804%,0.784314%);fill-opacity:1;" d="M 7.699219 7.695312 L 4.988281 7.695312 L 4.988281 4.988281 L 7.699219 4.988281 Z M 7.699219 7.695312 "/>
</g>
</svg>
