
<svg xmlns="http://www.w3.org/2000/svg" xmlns:xlink="http://www.w3.org/1999/xlink" width="32px" height="32px" viewBox="0 0 32 32" version="1.1">
<g id="surface1">
<path style="fill-rule:nonzero;fill:rgb(100%,100%,100%);fill-opacity:1;stroke-width:27.910587;stroke-linecap:butt;stroke-linejoin:miter;stroke:rgb(25.490198%,44.313726%,43.921569%);stroke-opacity:1;stroke-miterlimit:4;" d="M -448.70223 -10.417124 L -103.07723 -10.417124 C -72.26473 -10.417124 -47.32723 14.520376 -47.32723 45.332876 L -47.32723 390.957876 C -47.32723 421.770376 -72.26473 446.707876 -103.07723 446.707876 L -448.70223 446.707876 C -479.51473 446.707876 -504.45223 421.770376 -504.45223 390.957876 L -504.45223 45.332876 C -504.45223 14.520376 -479.51473 -10.417124 -448.70223 -10.417124 Z M -448.70223 -10.417124 " transform="matrix(0.0625,0,0,0.0625,33.243108,2.365914)"/>
<path style=" stroke:none;fill-rule:nonzero;fill:rgb(10.588235%,63.921571%,53.725493%);fill-opacity:1;" d="M 5.722656 2.585938 C 4.476562 2.597656 3.523438 3.902344 3.703125 5.175781 C 3.707031 12.597656 3.691406 20.011719 3.710938 27.433594 C 3.804688 28.6875 5 29.582031 6.15625 29.414062 C 13.289062 29.40625 20.425781 29.425781 27.558594 29.402344 C 28.753906 29.308594 29.59375 28.042969 29.433594 26.824219 C 29.433594 22.277344 29.433594 17.726562 29.433594 13.179688 C 28.953125 12.042969 27.792969 11.355469 27.042969 10.402344 C 24.589844 7.847656 22.152344 5.277344 19.683594 2.746094 C 18.996094 2.433594 18.199219 2.652344 17.464844 2.585938 C 13.550781 2.585938 9.636719 2.585938 5.722656 2.585938 Z M 22.488281 2.585938 C 22.015625 2.625 21.992188 3.316406 22.378906 3.519531 C 24.523438 5.734375 26.636719 7.992188 28.800781 10.183594 C 29.21875 10.417969 29.5625 9.886719 29.433594 9.480469 C 29.40625 7.773438 29.496094 6.054688 29.386719 4.351562 C 29.199219 3.152344 28.007812 2.421875 26.90625 2.585938 C 25.433594 2.585938 23.960938 2.585938 22.488281 2.585938 Z M 22.488281 2.585938 "/>
<path style=" stroke:none;fill-rule:nonzero;fill:rgb(25.490198%,44.313726%,43.921569%);fill-opacity:1;" d="M 2.300781 1.984375 L 7.441406 1.984375 L 7.441406 29.683594 L 2.300781 29.683594 Z M 2.300781 1.984375 "/>
<path style=" stroke:none;fill-rule:nonzero;fill:rgb(100%,100%,100%);fill-opacity:1;" d="M 20.621094 22.84375 L 20.621094 20.179688 L 19.675781 20.179688 L 19.304688 22.050781 L 19.035156 22.320312 C 18.527344 22.472656 18.039062 22.539062 17.566406 22.539062 C 14.835938 22.539062 13.167969 20.652344 13.167969 17.449219 C 13.167969 14.429688 14.800781 12.609375 17.316406 12.609375 C 17.972656 12.609375 18.582031 12.761719 19.203125 13.046875 L 19.421875 13.351562 L 19.675781 14.886719 L 20.621094 14.886719 L 20.621094 12.289062 C 19.390625 11.902344 18.277344 11.714844 17.28125 11.714844 C 13.773438 11.714844 11.429688 14.058594 11.429688 17.566406 C 11.429688 19.773438 12.542969 21.730469 14.347656 22.761719 C 15.121094 23.199219 16.101562 23.433594 17.214844 23.433594 C 18.34375 23.433594 19.507812 23.230469 20.621094 22.84375 Z M 20.621094 22.84375 "/>
</g>
</svg>
