
<svg xmlns="http://www.w3.org/2000/svg" xmlns:xlink="http://www.w3.org/1999/xlink" width="32px" height="32px" viewBox="0 0 32 32" version="1.1">
<g id="surface1">
<path style="fill-rule:nonzero;fill:rgb(100%,100%,100%);fill-opacity:1;stroke-width:54.639328;stroke-linecap:butt;stroke-linejoin:miter;stroke:rgb(30.19608%,30.19608%,30.19608%);stroke-opacity:1;stroke-miterlimit:4;" d="M 173.75 64.5 L 850.25 64.5 C 910.625 64.5 959.5 113.375 959.5 173.75 L 959.5 850.25 C 959.5 910.625 910.625 959.5 850.25 959.5 L 173.75 959.5 C 113.375 959.5 64.5 910.625 64.5 850.25 L 64.5 173.75 C 64.5 113.375 113.375 64.5 173.75 64.5 Z M 173.75 64.5 " transform="matrix(0.03125,0,0,0.03125,0,0)"/>
<path style=" stroke:none;fill-rule:nonzero;fill:rgb(70.19608%,70.19608%,70.19608%);fill-opacity:1;" d="M 5.941406 2.871094 C 4.71875 2.882812 3.785156 4.160156 3.964844 5.40625 C 3.96875 12.667969 3.949219 19.929688 3.972656 27.191406 C 4.0625 28.417969 5.230469 29.292969 6.363281 29.128906 C 13.347656 29.121094 20.332031 29.144531 27.3125 29.121094 C 28.480469 29.027344 29.308594 27.785156 29.152344 26.59375 C 29.152344 22.144531 29.152344 17.691406 29.152344 13.238281 C 28.679688 12.128906 27.542969 11.453125 26.808594 10.519531 C 24.40625 8.023438 22.023438 5.503906 19.605469 3.023438 C 18.929688 2.722656 18.152344 2.933594 17.433594 2.871094 C 13.601562 2.871094 9.769531 2.871094 5.941406 2.871094 Z M 22.351562 2.871094 C 21.886719 2.910156 21.863281 3.585938 22.246094 3.78125 C 24.34375 5.949219 26.410156 8.160156 28.527344 10.308594 C 28.941406 10.535156 29.273438 10.015625 29.152344 9.621094 C 29.125 7.949219 29.207031 6.265625 29.105469 4.597656 C 28.917969 3.425781 27.753906 2.710938 26.675781 2.871094 C 25.234375 2.871094 23.792969 2.871094 22.351562 2.871094 Z M 22.351562 2.871094 "/>
<path style=" stroke:none;fill-rule:nonzero;fill:rgb(30.19608%,30.19608%,30.19608%);fill-opacity:1;" d="M 2.589844 2.28125 L 7.621094 2.28125 L 7.621094 29.394531 L 2.589844 29.394531 Z M 2.589844 2.28125 "/>
<path style=" stroke:none;fill-rule:nonzero;fill:rgb(100%,100%,100%);fill-opacity:1;" d="M 17 9.933594 C 16.0625 9.933594 15.304688 10.457031 15.304688 11.105469 C 15.332031 11.347656 15.484375 11.652344 15.566406 11.757812 C 15.957031 12.277344 15.957031 12.605469 15.859375 12.800781 L 12.699219 12.800781 C 12.125 12.800781 11.660156 13.261719 11.660156 13.839844 L 11.660156 16.476562 C 11.855469 16.574219 12.179688 16.574219 12.699219 16.183594 C 12.804688 16.105469 13.113281 15.949219 13.351562 15.925781 C 14 15.925781 14.523438 16.683594 14.523438 17.617188 C 14.523438 18.550781 14 19.308594 13.351562 19.308594 C 13.152344 19.308594 12.851562 19.128906 12.699219 19.050781 C 12.179688 18.660156 11.855469 18.660156 11.660156 18.757812 L 11.660156 22.175781 C 11.660156 22.753906 12.125 23.214844 12.699219 23.214844 L 16.902344 23.214844 C 17 23.019531 17 22.695312 16.609375 22.175781 C 16.527344 22.070312 16.375 21.765625 16.347656 21.523438 C 16.347656 20.878906 17.105469 20.351562 18.042969 20.351562 C 18.976562 20.351562 19.734375 20.878906 19.734375 21.523438 C 19.730469 21.722656 19.550781 22.027344 19.472656 22.175781 C 19.082031 22.695312 19.082031 23.019531 19.179688 23.214844 L 21.035156 23.214844 C 21.613281 23.214844 22.078125 22.753906 22.078125 22.175781 L 22.078125 19.277344 C 22.273438 19.179688 22.597656 19.179688 23.121094 19.570312 C 23.269531 19.652344 23.574219 19.828125 23.769531 19.832031 C 24.417969 19.832031 24.941406 19.074219 24.941406 18.136719 C 24.941406 17.203125 24.417969 16.445312 23.769531 16.445312 C 23.527344 16.472656 23.222656 16.625 23.121094 16.707031 C 22.597656 17.097656 22.273438 17.097656 22.078125 17 L 22.078125 13.839844 C 22.078125 13.261719 21.613281 12.800781 21.035156 12.800781 L 18.136719 12.800781 C 18.042969 12.605469 18.042969 12.277344 18.433594 11.757812 C 18.511719 11.605469 18.6875 11.304688 18.691406 11.105469 C 18.691406 10.457031 17.933594 9.933594 17 9.933594 "/>
</g>
</svg>
