<!-- color: #1d384d -->
<svg xmlns="http://www.w3.org/2000/svg" xmlns:xlink="http://www.w3.org/1999/xlink" width="32px" height="32px" viewBox="0 0 32 32" version="1.1">
<defs>
<clipPath id="clip1">
  <path d="M 3.9375 3.9375 L 15.5625 3.9375 L 15.5625 15.5625 L 3.9375 15.5625 Z M 3.9375 3.9375 "/>
</clipPath>
<clipPath id="clip2">
  <path d="M 37.3125 16 C 37.3125 27.777344 27.761719 37.3125 16 37.3125 C 4.234375 37.3125 -5.3125 27.777344 -5.3125 16 C -5.3125 4.222656 4.234375 -5.3125 16 -5.3125 C 27.761719 -5.3125 37.3125 4.222656 37.3125 16 Z M 37.3125 16 "/>
</clipPath>
<clipPath id="clip3">
  <path d="M 16.4375 3.9375 L 28.0625 3.9375 L 28.0625 15.5625 L 16.4375 15.5625 Z M 16.4375 3.9375 "/>
</clipPath>
<clipPath id="clip4">
  <path d="M 37.3125 16 C 37.3125 27.777344 27.761719 37.3125 16 37.3125 C 4.234375 37.3125 -5.3125 27.777344 -5.3125 16 C -5.3125 4.222656 4.234375 -5.3125 16 -5.3125 C 27.761719 -5.3125 37.3125 4.222656 37.3125 16 Z M 37.3125 16 "/>
</clipPath>
<clipPath id="clip5">
  <path d="M 10.375 16.875 L 15.125 16.875 L 15.125 21.5625 L 10.375 21.5625 Z M 10.375 16.875 "/>
</clipPath>
<clipPath id="clip6">
  <path d="M 37.3125 16 C 37.3125 27.777344 27.761719 37.3125 16 37.3125 C 4.234375 37.3125 -5.3125 27.777344 -5.3125 16 C -5.3125 4.222656 4.234375 -5.3125 16 -5.3125 C 27.761719 -5.3125 37.3125 4.222656 37.3125 16 Z M 37.3125 16 "/>
</clipPath>
<clipPath id="clip7">
  <path d="M 3.9375 16.4375 L 15.5625 16.4375 L 15.5625 28.0625 L 3.9375 28.0625 Z M 3.9375 16.4375 "/>
</clipPath>
<clipPath id="clip8">
  <path d="M 37.3125 16 C 37.3125 27.777344 27.761719 37.3125 16 37.3125 C 4.234375 37.3125 -5.3125 27.777344 -5.3125 16 C -5.3125 4.222656 4.234375 -5.3125 16 -5.3125 C 27.761719 -5.3125 37.3125 4.222656 37.3125 16 Z M 37.3125 16 "/>
</clipPath>
<clipPath id="clip9">
  <path d="M 16.4375 16.4375 L 28.0625 16.4375 L 28.0625 28.0625 L 16.4375 28.0625 Z M 16.4375 16.4375 "/>
</clipPath>
<clipPath id="clip10">
  <path d="M 37.3125 16 C 37.3125 27.777344 27.761719 37.3125 16 37.3125 C 4.234375 37.3125 -5.3125 27.777344 -5.3125 16 C -5.3125 4.222656 4.234375 -5.3125 16 -5.3125 C 27.761719 -5.3125 37.3125 4.222656 37.3125 16 Z M 37.3125 16 "/>
</clipPath>
<clipPath id="clip11">
  <path d="M 16.875 16.875 L 21.5625 16.875 L 21.5625 21.5625 L 16.875 21.5625 Z M 16.875 16.875 "/>
</clipPath>
<clipPath id="clip12">
  <path d="M 37.3125 16 C 37.3125 27.777344 27.761719 37.3125 16 37.3125 C 4.234375 37.3125 -5.3125 27.777344 -5.3125 16 C -5.3125 4.222656 4.234375 -5.3125 16 -5.3125 C 27.761719 -5.3125 37.3125 4.222656 37.3125 16 Z M 37.3125 16 "/>
</clipPath>
<clipPath id="clip13">
  <path d="M 16.875 10.4375 L 21.5625 10.4375 L 21.5625 15.125 L 16.875 15.125 Z M 16.875 10.4375 "/>
</clipPath>
<clipPath id="clip14">
  <path d="M 37.3125 16 C 37.3125 27.777344 27.761719 37.3125 16 37.3125 C 4.234375 37.3125 -5.3125 27.777344 -5.3125 16 C -5.3125 4.222656 4.234375 -5.3125 16 -5.3125 C 27.761719 -5.3125 37.3125 4.222656 37.3125 16 Z M 37.3125 16 "/>
</clipPath>
<clipPath id="clip15">
  <path d="M 10.375 10.4375 L 15.125 10.4375 L 15.125 15.125 L 10.375 15.125 Z M 10.375 10.4375 "/>
</clipPath>
<clipPath id="clip16">
  <path d="M 37.3125 16 C 37.3125 27.777344 27.761719 37.3125 16 37.3125 C 4.234375 37.3125 -5.3125 27.777344 -5.3125 16 C -5.3125 4.222656 4.234375 -5.3125 16 -5.3125 C 27.761719 -5.3125 37.3125 4.222656 37.3125 16 Z M 37.3125 16 "/>
</clipPath>
</defs>
<g id="surface1">
<path style="fill-rule:nonzero;fill:rgb(100%,100%,100%);fill-opacity:1;stroke-width:7.042213;stroke-linecap:butt;stroke-linejoin:miter;stroke:rgb(20.392157%,39.607844%,64.313728%);stroke-opacity:1;stroke-miterlimit:4;" d="M 20.40625 6.328125 L 107.59375 6.328125 C 115.375 6.328125 121.671875 12.625 121.671875 20.40625 L 121.671875 107.59375 C 121.671875 115.375 115.375 121.671875 107.59375 121.671875 L 20.40625 121.671875 C 12.625 121.671875 6.328125 115.375 6.328125 107.59375 L 6.328125 20.40625 C 6.328125 12.625 12.625 6.328125 20.40625 6.328125 Z M 20.40625 6.328125 " transform="matrix(0.25,0,0,0.25,0,0)"/>
<g clip-path="url(#clip1)" clip-rule="nonzero">
<g clip-path="url(#clip2)" clip-rule="nonzero">
<path style=" stroke:none;fill-rule:nonzero;fill:rgb(20.392157%,39.607844%,64.313728%);fill-opacity:1;" d="M 9.753906 3.953125 C 6.550781 3.953125 3.953125 6.550781 3.953125 9.753906 C 3.953125 12.816406 6.332031 15.308594 9.335938 15.527344 C 9.574219 12.222656 12.222656 9.574219 15.527344 9.335938 C 15.308594 6.332031 12.816406 3.953125 9.753906 3.953125 M 9.753906 3.953125 "/>
</g>
</g>
<g clip-path="url(#clip3)" clip-rule="nonzero">
<g clip-path="url(#clip4)" clip-rule="nonzero">
<path style=" stroke:none;fill-rule:nonzero;fill:rgb(20.392157%,39.607844%,64.313728%);fill-opacity:1;" d="M 22.246094 3.953125 C 19.183594 3.953125 16.691406 6.332031 16.472656 9.335938 C 19.777344 9.574219 22.425781 12.222656 22.664062 15.527344 C 25.667969 15.308594 28.046875 12.816406 28.046875 9.753906 C 28.046875 6.550781 25.449219 3.953125 22.246094 3.953125 M 22.246094 3.953125 "/>
</g>
</g>
<g clip-path="url(#clip5)" clip-rule="nonzero">
<g clip-path="url(#clip6)" clip-rule="nonzero">
<path style=" stroke:none;fill-rule:nonzero;fill:rgb(20.392157%,39.607844%,64.313728%);fill-opacity:1;" d="M 10.433594 16.925781 C 10.667969 19.746094 12.25 21.328125 15.070312 21.558594 L 15.070312 16.925781 M 10.433594 16.925781 "/>
</g>
</g>
<g clip-path="url(#clip7)" clip-rule="nonzero">
<g clip-path="url(#clip8)" clip-rule="nonzero">
<path style=" stroke:none;fill-rule:nonzero;fill:rgb(20.392157%,39.607844%,64.313728%);fill-opacity:1;" d="M 9.167969 16.472656 C 6.246094 16.769531 3.953125 19.238281 3.953125 22.246094 C 3.953125 25.449219 6.550781 28.042969 9.753906 28.042969 C 12.816406 28.042969 15.308594 25.667969 15.527344 22.664062 C 12.222656 22.425781 9.574219 19.773438 9.335938 16.472656 C 9.277344 16.480469 9.222656 16.464844 9.164062 16.472656 M 9.167969 16.472656 "/>
</g>
</g>
<g clip-path="url(#clip9)" clip-rule="nonzero">
<g clip-path="url(#clip10)" clip-rule="nonzero">
<path style=" stroke:none;fill-rule:nonzero;fill:rgb(20.392157%,39.607844%,64.313728%);fill-opacity:1;" d="M 22.660156 16.472656 C 22.421875 19.773438 19.773438 22.425781 16.472656 22.664062 C 16.683594 25.667969 19.183594 28.046875 22.242188 28.046875 C 25.445312 28.046875 28.042969 25.449219 28.042969 22.246094 C 28.042969 19.183594 25.667969 16.691406 22.660156 16.472656 M 22.660156 16.472656 "/>
</g>
</g>
<g clip-path="url(#clip11)" clip-rule="nonzero">
<g clip-path="url(#clip12)" clip-rule="nonzero">
<path style=" stroke:none;fill-rule:nonzero;fill:rgb(20.392157%,39.607844%,64.313728%);fill-opacity:1;" d="M 21.558594 16.925781 C 21.328125 19.746094 19.746094 21.328125 16.925781 21.558594 L 16.925781 16.925781 M 21.558594 16.925781 "/>
</g>
</g>
<g clip-path="url(#clip13)" clip-rule="nonzero">
<g clip-path="url(#clip14)" clip-rule="nonzero">
<path style=" stroke:none;fill-rule:nonzero;fill:rgb(20.392157%,39.607844%,64.313728%);fill-opacity:1;" d="M 21.558594 15.074219 C 21.328125 12.253906 19.746094 10.671875 16.925781 10.441406 L 16.925781 15.074219 M 21.558594 15.074219 "/>
</g>
</g>
<g clip-path="url(#clip15)" clip-rule="nonzero">
<g clip-path="url(#clip16)" clip-rule="nonzero">
<path style=" stroke:none;fill-rule:nonzero;fill:rgb(20.392157%,39.607844%,64.313728%);fill-opacity:1;" d="M 10.433594 15.074219 C 10.667969 12.253906 12.25 10.671875 15.070312 10.441406 L 15.070312 15.074219 M 10.433594 15.074219 "/>
</g>
</g>
</g>
</svg>
