
<svg xmlns="http://www.w3.org/2000/svg" xmlns:xlink="http://www.w3.org/1999/xlink" width="32px" height="32px" viewBox="0 0 32 32" version="1.1">
<g id="surface1">
<path style="fill-rule:nonzero;fill:rgb(66.666669%,83.137256%,0%);fill-opacity:1;stroke-width:7.016501;stroke-linecap:butt;stroke-linejoin:miter;stroke:rgb(86.274511%,96.862745%,45.09804%);stroke-opacity:1;stroke-miterlimit:4;" d="M 20.5625 6.53125 L 107.4375 6.53125 C 115.1875 6.53125 121.46875 12.8125 121.46875 20.5625 L 121.46875 107.4375 C 121.46875 115.1875 115.1875 121.46875 107.4375 121.46875 L 20.5625 121.46875 C 12.8125 121.46875 6.53125 115.1875 6.53125 107.4375 L 6.53125 20.5625 C 6.53125 12.8125 12.8125 6.53125 20.5625 6.53125 Z M 20.5625 6.53125 " transform="matrix(0.25,0,0,0.25,0,0)"/>
<path style=" stroke:none;fill-rule:nonzero;fill:rgb(100%,100%,100%);fill-opacity:1;" d="M 27.894531 16.082031 C 27.894531 22.648438 22.574219 27.96875 16.011719 27.96875 C 9.449219 27.96875 4.128906 22.648438 4.128906 16.082031 C 4.128906 9.519531 9.449219 4.199219 16.011719 4.199219 C 22.574219 4.199219 27.894531 9.519531 27.894531 16.082031 Z M 27.894531 16.082031 "/>
<path style=" stroke:none;fill-rule:nonzero;fill:rgb(66.666669%,83.137256%,0%);fill-opacity:1;" d="M 15.933594 3.699219 C 9.105469 3.699219 3.566406 9.238281 3.566406 16.066406 C 3.566406 22.894531 9.105469 28.433594 15.933594 28.433594 C 22.761719 28.433594 28.300781 22.894531 28.300781 16.066406 C 28.300781 9.238281 22.761719 3.699219 15.933594 3.699219 Z M 15.898438 4.300781 C 17.351562 4.300781 18.261719 4.488281 18.820312 4.851562 C 19.097656 5.035156 19.285156 5.269531 19.371094 5.535156 C 19.460938 5.796875 19.445312 6.066406 19.371094 6.332031 C 19.21875 6.910156 18.660156 9.089844 17.863281 11.539062 C 18.117188 11.066406 18.363281 10.601562 18.609375 10.160156 C 19.109375 9.261719 19.578125 8.457031 19.957031 7.839844 C 20.335938 7.21875 20.585938 6.820312 20.785156 6.621094 C 20.917969 6.488281 21.066406 6.339844 21.253906 6.230469 C 21.445312 6.125 21.683594 6.070312 21.953125 6.117188 C 22.492188 6.214844 23.121094 6.636719 24.144531 7.660156 C 25.171875 8.6875 25.675781 9.460938 25.816406 10.113281 C 25.886719 10.4375 25.859375 10.738281 25.734375 10.988281 C 25.613281 11.234375 25.402344 11.417969 25.167969 11.554688 C 24.644531 11.855469 22.691406 12.996094 20.378906 14.167969 C 20.902344 14.011719 21.410156 13.855469 21.90625 13.714844 C 22.890625 13.433594 23.792969 13.203125 24.503906 13.035156 C 25.207031 12.863281 25.683594 12.757812 25.964844 12.757812 C 26.148438 12.757812 26.335938 12.746094 26.546875 12.804688 C 26.757812 12.863281 26.972656 12.988281 27.128906 13.210938 C 27.445312 13.660156 27.585938 14.410156 27.585938 15.855469 C 27.585938 17.308594 27.394531 18.222656 27.035156 18.777344 C 26.855469 19.058594 26.613281 19.242188 26.351562 19.332031 C 26.089844 19.417969 25.824219 19.402344 25.558594 19.332031 C 24.988281 19.175781 22.894531 18.648438 20.511719 17.886719 C 20.917969 18.105469 21.324219 18.320312 21.710938 18.535156 C 22.605469 19.035156 23.410156 19.503906 24.03125 19.882812 C 24.652344 20.261719 25.066406 20.527344 25.265625 20.726562 C 25.394531 20.859375 25.546875 20.992188 25.652344 21.179688 C 25.761719 21.371094 25.816406 21.625 25.769531 21.894531 C 25.671875 22.433594 25.230469 23.0625 24.210938 24.085938 C 23.183594 25.113281 22.410156 25.621094 21.757812 25.757812 C 21.433594 25.824219 21.144531 25.785156 20.898438 25.660156 C 20.652344 25.535156 20.449219 25.328125 20.316406 25.089844 C 20.050781 24.636719 19.15625 23.101562 18.15625 21.195312 C 18.796875 23.257812 19.253906 24.988281 19.390625 25.496094 C 19.460938 25.761719 19.460938 26.046875 19.371094 26.308594 C 19.285156 26.570312 19.097656 26.792969 18.820312 26.972656 C 18.261719 27.335938 17.367188 27.527344 15.917969 27.527344 C 14.46875 27.527344 13.71875 27.402344 13.269531 27.089844 C 13.046875 26.933594 12.90625 26.714844 12.847656 26.503906 C 12.792969 26.292969 12.800781 26.089844 12.800781 25.902344 C 12.800781 25.621094 12.90625 25.148438 13.074219 24.441406 C 13.246094 23.738281 13.492188 22.832031 13.773438 21.847656 C 13.914062 21.351562 14.070312 20.839844 14.230469 20.320312 C 13.054688 22.625 11.917969 24.570312 11.613281 25.089844 C 11.476562 25.328125 11.292969 25.535156 11.046875 25.660156 C 10.800781 25.785156 10.496094 25.808594 10.167969 25.742188 C 9.519531 25.601562 8.746094 25.097656 7.71875 24.070312 C 6.699219 23.046875 6.273438 22.417969 6.175781 21.878906 C 6.128906 21.609375 6.183594 21.371094 6.292969 21.179688 C 6.398438 20.992188 6.550781 20.839844 6.679688 20.710938 C 6.878906 20.511719 7.277344 20.261719 7.898438 19.882812 C 8.519531 19.503906 9.324219 19.035156 10.21875 18.535156 C 10.621094 18.3125 11.042969 18.082031 11.46875 17.855469 C 9.066406 18.628906 6.941406 19.175781 6.371094 19.332031 C 6.105469 19.402344 5.839844 19.417969 5.578125 19.332031 C 5.316406 19.242188 5.074219 19.042969 4.894531 18.761719 C 4.535156 18.203125 4.34375 17.308594 4.34375 15.855469 C 4.34375 14.410156 4.484375 13.660156 4.796875 13.210938 C 4.957031 12.988281 5.171875 12.847656 5.382812 12.789062 C 5.589844 12.730469 5.796875 12.738281 5.980469 12.738281 C 6.261719 12.738281 6.722656 12.847656 7.425781 13.015625 C 8.132812 13.1875 9.039062 13.433594 10.023438 13.714844 C 10.757812 13.925781 11.535156 14.171875 12.3125 14.410156 C 11.59375 14.035156 10.882812 13.644531 10.21875 13.277344 C 9.324219 12.777344 8.503906 12.308594 7.882812 11.929688 C 7.261719 11.550781 6.863281 11.300781 6.664062 11.101562 C 6.53125 10.96875 6.382812 10.820312 6.277344 10.628906 C 6.167969 10.441406 6.113281 10.203125 6.160156 9.933594 C 6.257812 9.394531 6.679688 8.761719 7.703125 7.742188 C 8.730469 6.714844 9.503906 6.207031 10.152344 6.070312 C 10.480469 6 10.785156 6.042969 11.03125 6.167969 C 11.277344 6.292969 11.460938 6.480469 11.597656 6.71875 C 11.898438 7.238281 13.027344 9.160156 14.195312 11.441406 C 14.042969 10.941406 13.894531 10.453125 13.757812 9.980469 C 13.476562 8.996094 13.246094 8.105469 13.074219 7.402344 C 12.90625 6.695312 12.800781 6.222656 12.800781 5.941406 C 12.800781 5.753906 12.792969 5.550781 12.847656 5.339844 C 12.90625 5.128906 13.03125 4.910156 13.253906 4.753906 C 13.703125 4.441406 14.453125 4.300781 15.898438 4.300781 Z M 15.898438 4.820312 C 14.492188 4.820312 13.828125 4.992188 13.5625 5.175781 C 13.429688 5.269531 13.382812 5.351562 13.351562 5.46875 C 13.320312 5.585938 13.320312 5.753906 13.320312 5.941406 C 13.320312 6.042969 13.410156 6.574219 13.578125 7.269531 C 13.746094 7.964844 13.980469 8.871094 14.261719 9.851562 C 14.753906 11.578125 15.390625 13.488281 15.980469 15.109375 C 17.445312 11.542969 18.628906 7.089844 18.871094 6.199219 C 18.921875 6.003906 18.933594 5.839844 18.886719 5.695312 C 18.839844 5.550781 18.730469 5.421875 18.527344 5.292969 C 18.128906 5.03125 17.300781 4.820312 15.898438 4.820312 Z M 10.429688 6.558594 C 10.378906 6.558594 10.324219 6.558594 10.269531 6.574219 C 9.800781 6.671875 9.070312 7.121094 8.074219 8.113281 C 7.082031 9.109375 6.722656 9.710938 6.664062 10.03125 C 6.636719 10.191406 6.667969 10.28125 6.730469 10.386719 C 6.789062 10.492188 6.890625 10.597656 7.019531 10.730469 C 7.09375 10.800781 7.546875 11.117188 8.160156 11.488281 C 8.769531 11.863281 9.570312 12.324219 10.464844 12.824219 C 12.035156 13.695312 13.832031 14.605469 15.394531 15.339844 C 13.910156 11.78125 11.605469 7.777344 11.144531 6.980469 C 11.042969 6.804688 10.9375 6.691406 10.804688 6.621094 C 10.703125 6.570312 10.582031 6.546875 10.429688 6.558594 Z M 21.660156 6.621094 C 21.605469 6.632812 21.550781 6.65625 21.5 6.6875 C 21.394531 6.746094 21.292969 6.847656 21.160156 6.980469 C 21.085938 7.050781 20.769531 7.503906 20.394531 8.113281 C 20.019531 8.726562 19.558594 9.527344 19.066406 10.417969 C 18.191406 11.988281 17.277344 13.789062 16.550781 15.355469 C 20.105469 13.867188 24.109375 11.5625 24.910156 11.101562 C 25.082031 11 25.199219 10.878906 25.265625 10.746094 C 25.332031 10.609375 25.363281 10.457031 25.3125 10.222656 C 25.214844 9.757812 24.761719 9.027344 23.769531 8.035156 C 22.777344 7.039062 22.175781 6.675781 21.855469 6.621094 C 21.777344 6.605469 21.71875 6.609375 21.660156 6.621094 Z M 5.722656 13.261719 C 5.644531 13.261719 5.570312 13.277344 5.511719 13.292969 C 5.394531 13.324219 5.3125 13.371094 5.21875 13.503906 C 5.035156 13.769531 4.863281 14.449219 4.863281 15.855469 C 4.863281 17.261719 5.074219 18.082031 5.332031 18.488281 C 5.464844 18.6875 5.597656 18.777344 5.738281 18.828125 C 5.882812 18.875 6.046875 18.878906 6.242188 18.828125 C 7.136719 18.589844 11.597656 17.390625 15.167969 15.921875 C 13.542969 15.332031 11.628906 14.695312 9.894531 14.199219 C 8.914062 13.921875 8.011719 13.6875 7.3125 13.519531 C 6.617188 13.351562 6.085938 13.261719 5.980469 13.261719 C 5.890625 13.261719 5.800781 13.253906 5.722656 13.261719 Z M 25.964844 13.277344 C 25.859375 13.277344 25.3125 13.367188 24.613281 13.535156 C 23.917969 13.703125 23.03125 13.9375 22.050781 14.21875 C 20.328125 14.707031 18.414062 15.347656 16.792969 15.9375 C 20.359375 17.402344 24.796875 18.605469 25.6875 18.84375 C 25.882812 18.894531 26.046875 18.890625 26.191406 18.84375 C 26.332031 18.792969 26.464844 18.703125 26.597656 18.503906 C 26.855469 18.101562 27.066406 17.261719 27.066406 15.855469 C 27.066406 14.449219 26.894531 13.785156 26.707031 13.519531 C 26.617188 13.386719 26.535156 13.339844 26.417969 13.308594 C 26.300781 13.277344 26.152344 13.277344 25.964844 13.277344 Z M 15.429688 16.472656 C 13.863281 17.207031 12.054688 18.113281 10.480469 18.988281 C 9.585938 19.484375 8.785156 19.945312 8.175781 20.320312 C 7.5625 20.691406 7.109375 21.011719 7.039062 21.082031 C 6.90625 21.214844 6.808594 21.335938 6.746094 21.441406 C 6.683594 21.542969 6.652344 21.636719 6.679688 21.796875 C 6.738281 22.113281 7.097656 22.699219 8.09375 23.695312 C 9.085938 24.6875 9.816406 25.136719 10.285156 25.238281 C 10.519531 25.289062 10.667969 25.257812 10.804688 25.191406 C 10.9375 25.121094 11.058594 25.007812 11.160156 24.832031 C 11.621094 24.035156 13.941406 20.035156 15.429688 16.472656 Z M 16.535156 16.488281 C 18.019531 20.046875 20.308594 24.035156 20.769531 24.832031 C 20.871094 25.007812 20.988281 25.136719 21.125 25.207031 C 21.261719 25.273438 21.425781 25.289062 21.660156 25.238281 C 22.128906 25.136719 22.859375 24.707031 23.851562 23.714844 C 24.847656 22.714844 25.191406 22.113281 25.246094 21.796875 C 25.277344 21.636719 25.261719 21.542969 25.199219 21.441406 C 25.140625 21.335938 25.023438 21.230469 24.890625 21.097656 C 24.816406 21.027344 24.382812 20.710938 23.769531 20.335938 C 23.160156 19.964844 22.359375 19.484375 21.464844 18.988281 C 19.898438 18.117188 18.097656 17.21875 16.535156 16.488281 Z M 15.980469 16.734375 C 15.390625 18.355469 14.753906 20.261719 14.261719 21.992188 C 13.980469 22.972656 13.746094 23.875 13.578125 24.574219 C 13.410156 25.269531 13.320312 25.800781 13.320312 25.902344 C 13.320312 26.089844 13.320312 26.238281 13.351562 26.355469 C 13.382812 26.472656 13.429688 26.558594 13.5625 26.652344 C 13.828125 26.835938 14.507812 27.007812 15.917969 27.007812 C 17.320312 27.007812 18.144531 26.8125 18.542969 26.550781 C 18.746094 26.421875 18.839844 26.289062 18.886719 26.144531 C 18.933594 26.003906 18.9375 25.824219 18.886719 25.628906 C 18.648438 24.738281 17.441406 20.300781 15.980469 16.734375 Z M 15.980469 16.734375 "/>
</g>
</svg>
