
<svg xmlns="http://www.w3.org/2000/svg" xmlns:xlink="http://www.w3.org/1999/xlink" width="32px" height="32px" viewBox="0 0 32 32" version="1.1">
<g id="surface1">
<path style="fill-rule:nonzero;fill:rgb(16.862746%,23.921569%,30.980393%);fill-opacity:1;stroke-width:27.27438;stroke-linecap:butt;stroke-linejoin:miter;stroke:rgb(16.862746%,23.921569%,30.980393%);stroke-opacity:1;stroke-miterlimit:4;" d="M 83.1875 43.6875 L 424.5 43.6875 C 454.9375 43.6875 479.625 67.8125 479.625 97.625 L 479.625 431.6875 C 479.625 461.5625 454.9375 485.6875 424.5 485.6875 L 83.1875 485.6875 C 52.6875 485.6875 28.0625 461.5625 28.0625 431.6875 L 28.0625 97.625 C 28.0625 67.8125 52.6875 43.6875 83.1875 43.6875 Z M 83.1875 43.6875 " transform="matrix(0.0625,0,0,0.0625,0,0)"/>
<path style=" stroke:none;fill-rule:nonzero;fill:rgb(49.019608%,72.156864%,0%);fill-opacity:1;" d="M 16.472656 4.859375 L 16.472656 15.949219 L 27.800781 15.949219 L 27.800781 7.566406 C 27.800781 6.074219 26.5625 4.859375 25.035156 4.859375 Z M 16.472656 4.859375 "/>
<path style=" stroke:none;fill-rule:nonzero;fill:rgb(0%,63.137257%,93.333334%);fill-opacity:1;" d="M 15.253906 28.222656 L 15.253906 17.136719 L 3.929688 17.136719 L 3.929688 25.519531 C 3.929688 27.011719 5.167969 28.222656 6.695312 28.222656 Z M 15.253906 28.222656 "/>
<path style=" stroke:none;fill-rule:nonzero;fill:rgb(94.117647%,29.803923%,11.764706%);fill-opacity:1;" d="M 3.929688 15.949219 L 15.253906 15.949219 L 15.253906 4.859375 L 6.695312 4.859375 C 5.167969 4.859375 3.929688 6.074219 3.929688 7.566406 Z M 3.929688 15.949219 "/>
<path style=" stroke:none;fill-rule:nonzero;fill:rgb(99.215686%,72.156864%,0%);fill-opacity:1;" d="M 27.800781 17.136719 L 16.472656 17.136719 L 16.472656 28.222656 L 25.035156 28.222656 C 26.5625 28.222656 27.800781 27.011719 27.800781 25.519531 Z M 27.800781 17.136719 "/>
</g>
</svg>
