
<svg xmlns="http://www.w3.org/2000/svg" xmlns:xlink="http://www.w3.org/1999/xlink" width="32px" height="32px" viewBox="0 0 32 32" version="1.1">
<g id="surface1">
<path style="fill-rule:nonzero;fill:rgb(98.039216%,94.117647%,94.117647%);fill-opacity:1;stroke-width:27.285545;stroke-linecap:butt;stroke-linejoin:miter;stroke:rgb(60.000002%,60.000002%,60.000002%);stroke-opacity:1;stroke-miterlimit:4;" d="M 63.4375 20.5625 L 448.5625 20.5625 C 469.3125 20.5625 486.0625 37.375 486.0625 58.0625 L 486.0625 453.9375 C 486.0625 474.625 469.3125 491.4375 448.5625 491.4375 L 63.4375 491.4375 C 42.6875 491.4375 25.9375 474.625 25.9375 453.9375 L 25.9375 58.0625 C 25.9375 37.375 42.6875 20.5625 63.4375 20.5625 Z M 63.4375 20.5625 " transform="matrix(0.0625,0,0,0.0625,0,0)"/>
<path style=" stroke:none;fill-rule:nonzero;fill:rgb(21.568628%,78.431374%,21.568628%);fill-opacity:1;" d="M 14.128906 10.410156 C 14.128906 8.632812 12.992188 7.195312 11.589844 7.195312 C 10.191406 7.195312 9.058594 8.632812 9.058594 10.410156 C 9.058594 12.183594 10.191406 13.621094 11.589844 13.621094 C 12.992188 13.621094 14.128906 12.183594 14.128906 10.410156 Z M 14.128906 10.410156 "/>
<path style=" stroke:none;fill-rule:nonzero;fill:rgb(21.568628%,78.431374%,21.568628%);fill-opacity:1;" d="M 11.589844 13.621094 C 14.136719 13.621094 16.703125 15.246094 16.179688 17.097656 L 14.179688 24.203125 C 13.65625 26.058594 14.136719 27.679688 11.589844 27.679688 C 9.050781 27.679688 9.648438 26.050781 9.101562 24.203125 L 7.003906 17.097656 C 6.457031 15.253906 9.050781 13.621094 11.589844 13.621094 Z M 11.589844 13.621094 "/>
<path style=" stroke:none;fill-rule:nonzero;fill:rgb(16.470589%,49.803922%,100%);fill-opacity:1;" d="M 21.800781 7.300781 C 21.800781 5.152344 20.429688 3.417969 18.738281 3.417969 C 17.046875 3.417969 15.675781 5.152344 15.675781 7.300781 C 15.675781 9.441406 17.046875 11.179688 18.738281 11.179688 C 20.429688 11.179688 21.800781 9.441406 21.800781 7.300781 Z M 21.800781 7.300781 "/>
<path style=" stroke:none;fill-rule:nonzero;fill:rgb(16.470589%,49.803922%,100%);fill-opacity:1;" d="M 18.738281 11.179688 C 21.808594 11.179688 24.910156 13.140625 24.28125 15.378906 L 21.863281 23.960938 C 21.230469 26.199219 21.808594 28.160156 18.738281 28.160156 C 15.667969 28.160156 16.390625 26.191406 15.730469 23.960938 L 13.195312 15.378906 C 12.535156 13.148438 15.667969 11.179688 18.738281 11.179688 Z M 18.738281 11.179688 "/>
</g>
</svg>
