<!-- color: #474747 -->
<svg xmlns="http://www.w3.org/2000/svg" xmlns:xlink="http://www.w3.org/1999/xlink" width="32px" height="32px" viewBox="0 0 32 32" version="1.1">
<defs>
<clipPath id="clip1">
  <path d="M 8.25 6.75 L 23.9375 6.75 L 23.9375 23.75 L 8.25 23.75 Z M 8.25 6.75 "/>
</clipPath>
<clipPath id="clip2">
  <path d="M 31.042969 15.878906 C 31.042969 24.152344 24.339844 30.847656 16.074219 30.847656 C 7.8125 30.847656 1.105469 24.152344 1.105469 15.878906 C 1.105469 7.609375 7.8125 0.910156 16.074219 0.910156 C 24.339844 0.910156 31.042969 7.609375 31.042969 15.878906 Z M 31.042969 15.878906 "/>
</clipPath>
</defs>
<g id="surface1">
<path style="fill-rule:nonzero;fill:rgb(100%,100%,100%);fill-opacity:1;stroke-width:28.797188;stroke-linecap:butt;stroke-linejoin:miter;stroke:rgb(50.196081%,50.196081%,50.196081%);stroke-opacity:1;stroke-miterlimit:4;" d="M 77.75 20.125 L 434.25 20.125 C 466.0625 20.125 491.875 45.9375 491.875 77.75 L 491.875 434.25 C 491.875 466.0625 466.0625 491.875 434.25 491.875 L 77.75 491.875 C 45.9375 491.875 20.125 466.0625 20.125 434.25 L 20.125 77.75 C 20.125 45.9375 45.9375 20.125 77.75 20.125 Z M 77.75 20.125 " transform="matrix(0.0625,0,0,0.0625,0,0)"/>
<g clip-path="url(#clip1)" clip-rule="nonzero">
<g clip-path="url(#clip2)" clip-rule="nonzero">
<path style=" stroke:none;fill-rule:nonzero;fill:rgb(50.196081%,50.196081%,50.196081%);fill-opacity:1;" d="M 16.074219 6.769531 C 16.074219 6.769531 21.933594 6.769531 21.933594 10.574219 L 21.933594 13.925781 C 21.933594 13.925781 23.886719 13.925781 23.886719 15.230469 L 23.886719 21.996094 C 23.886719 23.691406 21.933594 23.691406 21.933594 23.691406 L 10.21875 23.691406 C 10.21875 23.691406 8.265625 23.691406 8.265625 21.996094 L 8.265625 15.230469 C 8.265625 13.925781 10.21875 13.925781 10.21875 13.925781 L 10.21875 10.574219 C 10.21875 6.769531 16.074219 6.769531 16.074219 6.769531 M 16.074219 8.882812 C 16.074219 8.882812 12.820312 8.785156 12.820312 11.324219 L 12.820312 13.925781 L 19.332031 13.925781 L 19.332031 11.324219 C 19.332031 8.785156 16.074219 8.882812 16.074219 8.882812 M 16.074219 8.882812 "/>
</g>
</g>
</g>
</svg>
