
<svg xmlns="http://www.w3.org/2000/svg" xmlns:xlink="http://www.w3.org/1999/xlink" width="32px" height="32px" viewBox="0 0 32 32" version="1.1">
<g id="surface1">
<path style="fill-rule:nonzero;fill:rgb(12.941177%,12.941177%,12.941177%);fill-opacity:1;stroke-width:27.27438;stroke-linecap:butt;stroke-linejoin:miter;stroke:rgb(48.627451%,53.333336%,57.647061%);stroke-opacity:1;stroke-miterlimit:4;" d="M 85.3125 35 L 426.6875 35 C 457.125 35 481.8125 59.1875 481.8125 88.9375 L 481.8125 423.0625 C 481.8125 452.8125 457.125 477 426.6875 477 L 85.3125 477 C 54.875 477 30.1875 452.8125 30.1875 423.0625 L 30.1875 88.9375 C 30.1875 59.1875 54.875 35 85.3125 35 Z M 85.3125 35 " transform="matrix(0.0625,0,0,0.0625,0,0)"/>
<path style=" stroke:none;fill-rule:nonzero;fill:rgb(12.941177%,12.941177%,12.941177%);fill-opacity:1;" d="M 3.457031 7.542969 L 28.664062 7.542969 L 28.664062 14.644531 L 3.457031 14.644531 Z M 3.457031 7.542969 "/>
<path style=" stroke:none;fill-rule:nonzero;fill:rgb(11.764706%,18.039216%,21.960784%);fill-opacity:0.992157;" d="M 3.460938 7.417969 L 3.460938 15.003906 L 28.550781 15.003906 L 28.550781 7.417969 Z M 3.464844 17.027344 L 3.464844 24.613281 L 28.558594 24.613281 L 28.558594 17.027344 Z M 3.464844 17.027344 "/>
<path style="fill-rule:evenodd;fill:rgb(15.686275%,21.960784%,27.058825%);fill-opacity:1;stroke-width:1.871346;stroke-linecap:butt;stroke-linejoin:miter;stroke:rgb(12.941177%,12.941177%,12.941177%);stroke-opacity:1;stroke-miterlimit:4;" d="M 54.856397 119.615327 L 54.856397 240.990327 M 72.356397 119.615327 L 72.356397 240.990327 M 89.793897 119.615327 L 89.793897 240.990327 M 107.231397 119.615327 L 107.231397 240.990327 M 124.731397 119.615327 L 124.731397 240.990327 M 142.231397 119.615327 L 142.231397 240.990327 M 159.668897 119.615327 L 159.668897 240.990327 M 177.106397 119.615327 L 177.106397 240.990327 M 194.606397 119.615327 L 194.606397 240.990327 M 212.106397 119.615327 L 212.106397 240.990327 M 229.543897 119.615327 L 229.543897 240.990327 M 246.981397 119.615327 L 246.981397 240.990327 M 264.481397 119.615327 L 264.481397 240.990327 M 281.918897 119.615327 L 281.918897 240.990327 M 299.356397 119.615327 L 299.356397 240.990327 M 316.856397 119.615327 L 316.856397 240.990327 M 334.356397 119.615327 L 334.356397 240.990327 M 351.793897 119.615327 L 351.793897 240.990327 M 369.231397 119.615327 L 369.231397 240.990327 M 386.731397 119.615327 L 386.731397 240.990327 M 404.231397 119.615327 L 404.231397 240.990327 M 421.668897 119.615327 L 421.668897 240.990327 M 439.106397 119.615327 L 439.106397 240.990327 M 456.606397 119.615327 L 456.606397 240.990327 M 54.856397 119.615327 L 458.168897 119.615327 M 54.856397 136.865327 L 458.168897 136.865327 M 54.856397 154.115327 L 458.168897 154.115327 M 54.856397 171.365327 L 458.168897 171.365327 M 54.856397 188.615327 L 458.168897 188.615327 M 54.856397 205.927827 L 458.168897 205.927827 M 54.856397 223.177827 L 458.168897 223.177827 M 54.856397 240.490327 L 458.168897 240.490327 " transform="matrix(0.0625,0,0,0.0625,-0.0339935,-0.0579892)"/>
<path style="fill-rule:evenodd;fill:rgb(43.137255%,45.09804%,45.09804%);fill-opacity:0.905882;stroke-width:1.871346;stroke-linecap:butt;stroke-linejoin:miter;stroke:rgb(12.941177%,12.941177%,12.941177%);stroke-opacity:1;stroke-miterlimit:4;" d="M 54.981397 273.365327 L 54.981397 394.740327 M 72.418897 273.365327 L 72.418897 394.740327 M 89.856397 273.365327 L 89.856397 394.740327 M 107.356397 273.365327 L 107.356397 394.740327 M 124.856397 273.365327 L 124.856397 394.740327 M 142.293897 273.365327 L 142.293897 394.740327 M 159.731397 273.365327 L 159.731397 394.740327 M 177.231397 273.365327 L 177.231397 394.740327 M 194.668897 273.365327 L 194.668897 394.740327 M 212.106397 273.365327 L 212.106397 394.740327 M 229.606397 273.365327 L 229.606397 394.740327 M 247.106397 273.365327 L 247.106397 394.740327 M 264.543897 273.365327 L 264.543897 394.740327 M 281.981397 273.365327 L 281.981397 394.740327 M 299.481397 273.365327 L 299.481397 394.740327 M 316.981397 273.365327 L 316.981397 394.740327 M 334.418897 273.365327 L 334.418897 394.740327 M 351.856397 273.365327 L 351.856397 394.740327 M 369.356397 273.365327 L 369.356397 394.740327 M 386.793897 273.365327 L 386.793897 394.740327 M 404.231397 273.365327 L 404.231397 394.740327 M 421.731397 273.365327 L 421.731397 394.740327 M 439.231397 273.365327 L 439.231397 394.740327 M 456.668897 273.365327 L 456.668897 394.740327 M 54.981397 273.365327 L 458.231397 273.365327 M 54.981397 290.677827 L 458.231397 290.677827 M 54.981397 307.927827 L 458.231397 307.927827 M 54.981397 325.240327 L 458.231397 325.240327 M 54.981397 342.490327 L 458.231397 342.490327 M 54.981397 359.740327 L 458.231397 359.740327 M 54.981397 376.990327 L 458.231397 376.990327 M 54.981397 394.240327 L 458.231397 394.240327 " transform="matrix(0.0625,0,0,0.0625,-0.0339935,-0.0579892)"/>
<path style=" stroke:none;fill-rule:nonzero;fill:rgb(29.019609%,68.235296%,90.196079%);fill-opacity:0.992157;" d="M 4.550781 8.574219 L 4.550781 9.503906 L 5.476562 9.503906 L 5.476562 8.574219 Z M 5.671875 8.574219 L 5.671875 9.503906 L 6.597656 9.503906 L 6.597656 8.574219 Z M 8.9375 8.574219 L 8.9375 9.503906 L 9.863281 9.503906 L 9.863281 8.574219 Z M 10.007812 8.574219 L 10.007812 9.503906 L 10.933594 9.503906 L 10.933594 8.574219 Z M 11.128906 8.574219 L 11.128906 9.503906 L 12.054688 9.503906 L 12.054688 8.574219 Z M 14.394531 8.574219 L 14.394531 9.503906 L 15.320312 9.503906 L 15.320312 8.574219 Z M 15.464844 8.574219 L 15.464844 9.503906 L 16.394531 9.503906 L 16.394531 8.574219 Z M 16.589844 8.574219 L 16.589844 9.503906 L 17.511719 9.503906 L 17.511719 8.574219 Z M 18.78125 8.574219 L 18.78125 9.503906 L 19.707031 9.503906 L 19.707031 8.574219 Z M 22.042969 8.574219 L 22.042969 9.503906 L 22.972656 9.503906 L 22.972656 8.574219 Z M 25.308594 8.574219 L 25.308594 9.503906 L 26.238281 9.503906 L 26.238281 8.574219 Z M 26.382812 8.574219 L 26.382812 9.503906 L 27.308594 9.503906 L 27.308594 8.574219 Z M 3.480469 9.648438 L 3.480469 10.574219 L 4.402344 10.574219 L 4.402344 9.648438 Z M 6.742188 9.648438 L 6.742188 10.574219 L 7.667969 10.574219 L 7.667969 9.648438 Z M 8.9375 9.648438 L 8.9375 10.574219 L 9.863281 10.574219 L 9.863281 9.648438 Z M 12.199219 9.648438 L 12.199219 10.574219 L 13.128906 10.574219 L 13.128906 9.648438 Z M 15.464844 9.648438 L 15.464844 10.574219 L 16.394531 10.574219 L 16.394531 9.648438 Z M 18.78125 9.648438 L 18.78125 10.574219 L 19.707031 10.574219 L 19.707031 9.648438 Z M 22.042969 9.648438 L 22.042969 10.574219 L 22.972656 10.574219 L 22.972656 9.648438 Z M 24.238281 9.648438 L 24.238281 10.574219 L 25.164062 10.574219 L 25.164062 9.648438 Z M 27.503906 9.648438 L 27.503906 10.574219 L 28.429688 10.574219 L 28.429688 9.648438 Z M 3.480469 10.71875 L 3.480469 11.644531 L 4.402344 11.644531 L 4.402344 10.71875 Z M 6.742188 10.71875 L 6.742188 11.644531 L 7.667969 11.644531 L 7.667969 10.71875 Z M 8.9375 10.71875 L 8.9375 11.644531 L 9.863281 11.644531 L 9.863281 10.71875 Z M 12.199219 10.71875 L 12.199219 11.644531 L 13.128906 11.644531 L 13.128906 10.71875 Z M 15.464844 10.71875 L 15.464844 11.644531 L 16.394531 11.644531 L 16.394531 10.71875 Z M 18.78125 10.71875 L 18.78125 11.644531 L 19.707031 11.644531 L 19.707031 10.71875 Z M 22.042969 10.71875 L 22.042969 11.644531 L 22.972656 11.644531 L 22.972656 10.71875 Z M 24.238281 10.71875 L 24.238281 11.644531 L 25.164062 11.644531 L 25.164062 10.71875 Z M 27.503906 10.71875 L 27.503906 11.644531 L 28.429688 11.644531 L 28.429688 10.71875 Z M 3.480469 11.792969 L 3.480469 12.71875 L 4.402344 12.71875 L 4.402344 11.792969 Z M 4.550781 11.792969 L 4.550781 12.71875 L 5.476562 12.71875 L 5.476562 11.792969 Z M 5.671875 11.792969 L 5.671875 12.71875 L 6.597656 12.71875 L 6.597656 11.792969 Z M 6.742188 11.792969 L 6.742188 12.71875 L 7.667969 12.71875 L 7.667969 11.792969 Z M 8.9375 11.792969 L 8.9375 12.71875 L 9.863281 12.71875 L 9.863281 11.792969 Z M 10.007812 11.792969 L 10.007812 12.71875 L 10.933594 12.71875 L 10.933594 11.792969 Z M 11.128906 11.792969 L 11.128906 12.71875 L 12.054688 12.71875 L 12.054688 11.792969 Z M 15.464844 11.792969 L 15.464844 12.71875 L 16.394531 12.71875 L 16.394531 11.792969 Z M 18.78125 11.792969 L 18.78125 12.71875 L 19.707031 12.71875 L 19.707031 11.792969 Z M 22.042969 11.792969 L 22.042969 12.71875 L 22.972656 12.71875 L 22.972656 11.792969 Z M 24.238281 11.792969 L 24.238281 12.71875 L 25.164062 12.71875 L 25.164062 11.792969 Z M 25.308594 11.792969 L 25.308594 12.71875 L 26.238281 12.71875 L 26.238281 11.792969 Z M 26.382812 11.792969 L 26.382812 12.71875 L 27.308594 12.71875 L 27.308594 11.792969 Z M 27.503906 11.792969 L 27.503906 12.71875 L 28.429688 12.71875 L 28.429688 11.792969 Z M 3.480469 12.914062 L 3.480469 13.789062 L 4.402344 13.789062 L 4.402344 12.914062 Z M 6.742188 12.914062 L 6.742188 13.789062 L 7.667969 13.789062 L 7.667969 12.914062 Z M 8.9375 12.914062 L 8.9375 13.789062 L 9.863281 13.789062 L 9.863281 12.914062 Z M 12.199219 12.914062 L 12.199219 13.789062 L 13.128906 13.789062 L 13.128906 12.914062 Z M 15.464844 12.914062 L 15.464844 13.789062 L 16.394531 13.789062 L 16.394531 12.914062 Z M 19.851562 12.914062 L 19.851562 13.789062 L 20.777344 13.789062 L 20.777344 12.914062 Z M 20.925781 12.914062 L 20.925781 13.789062 L 21.851562 13.789062 L 21.851562 12.914062 Z M 24.238281 12.914062 L 24.238281 13.789062 L 25.164062 13.789062 L 25.164062 12.914062 Z M 27.503906 12.914062 L 27.503906 13.789062 L 28.429688 13.789062 L 28.429688 12.914062 Z M 3.492188 18.1875 L 3.492188 19.113281 L 4.417969 19.113281 L 4.417969 18.1875 Z M 4.5625 18.1875 L 4.5625 19.113281 L 5.488281 19.113281 L 5.488281 18.1875 Z M 7.828125 18.1875 L 7.828125 19.113281 L 8.753906 19.113281 L 8.753906 18.1875 Z M 11.144531 18.1875 L 11.144531 19.113281 L 12.066406 19.113281 L 12.066406 18.1875 Z M 14.40625 18.1875 L 14.40625 19.113281 L 15.332031 19.113281 L 15.332031 18.1875 Z M 15.480469 18.1875 L 15.480469 19.113281 L 16.40625 19.113281 L 16.40625 18.1875 Z M 20.9375 18.1875 L 20.9375 19.113281 L 21.863281 19.113281 L 21.863281 18.1875 Z M 22.058594 18.1875 L 22.058594 19.113281 L 22.984375 19.113281 L 22.984375 18.1875 Z M 24.203125 18.1875 L 24.203125 19.113281 L 25.128906 19.113281 L 25.128906 18.1875 Z M 25.324219 18.1875 L 25.324219 19.113281 L 26.25 19.113281 L 26.25 18.1875 Z M 26.394531 18.1875 L 26.394531 19.113281 L 27.320312 19.113281 L 27.320312 18.1875 Z M 27.515625 18.1875 L 27.515625 19.113281 L 28.441406 19.113281 L 28.441406 18.1875 Z M 5.683594 19.261719 L 5.683594 20.183594 L 6.609375 20.183594 L 6.609375 19.261719 Z M 7.828125 19.261719 L 7.828125 20.183594 L 8.753906 20.183594 L 8.753906 19.261719 Z M 11.144531 19.261719 L 11.144531 20.183594 L 12.066406 20.183594 L 12.066406 19.261719 Z M 13.285156 19.261719 L 13.285156 20.183594 L 14.210938 20.183594 L 14.210938 19.261719 Z M 16.597656 19.261719 L 16.597656 20.183594 L 17.527344 20.183594 L 17.527344 19.261719 Z M 18.746094 19.261719 L 18.746094 20.183594 L 19.667969 20.183594 L 19.667969 19.261719 Z M 22.058594 19.261719 L 22.058594 20.183594 L 22.984375 20.183594 L 22.984375 19.261719 Z M 27.515625 19.261719 L 27.515625 20.183594 L 28.441406 20.183594 L 28.441406 19.261719 Z M 5.683594 20.332031 L 5.683594 21.257812 L 6.609375 21.257812 L 6.609375 20.332031 Z M 8.949219 20.332031 L 8.949219 21.257812 L 9.875 21.257812 L 9.875 20.332031 Z M 10.019531 20.332031 L 10.019531 21.257812 L 10.949219 21.257812 L 10.949219 20.332031 Z M 14.40625 20.332031 L 14.40625 21.257812 L 15.332031 21.257812 L 15.332031 20.332031 Z M 15.480469 20.332031 L 15.480469 21.257812 L 16.40625 21.257812 L 16.40625 20.332031 Z M 22.058594 20.332031 L 22.058594 21.257812 L 22.984375 21.257812 L 22.984375 20.332031 Z M 26.394531 20.332031 L 26.394531 21.257812 L 27.320312 21.257812 L 27.320312 20.332031 Z M 3.492188 21.453125 L 3.492188 22.332031 L 4.417969 22.332031 L 4.417969 21.453125 Z M 4.5625 21.453125 L 4.5625 22.332031 L 5.488281 22.332031 L 5.488281 21.453125 Z M 5.683594 21.453125 L 5.683594 22.332031 L 6.609375 22.332031 L 6.609375 21.453125 Z M 10.019531 21.453125 L 10.019531 22.332031 L 10.949219 22.332031 L 10.949219 21.453125 Z M 13.285156 21.453125 L 13.285156 22.332031 L 14.210938 22.332031 L 14.210938 21.453125 Z M 16.597656 21.453125 L 16.597656 22.332031 L 17.527344 22.332031 L 17.527344 21.453125 Z M 18.746094 21.453125 L 18.746094 22.332031 L 19.667969 22.332031 L 19.667969 21.453125 Z M 22.058594 21.453125 L 22.058594 22.332031 L 22.984375 22.332031 L 22.984375 21.453125 Z M 25.324219 21.453125 L 25.324219 22.332031 L 26.25 22.332031 L 26.25 21.453125 Z M 5.683594 22.523438 L 5.683594 23.402344 L 6.609375 23.402344 L 6.609375 22.523438 Z M 8.949219 22.523438 L 8.949219 23.402344 L 9.875 23.402344 L 9.875 22.523438 Z M 14.40625 22.523438 L 14.40625 23.402344 L 15.332031 23.402344 L 15.332031 22.523438 Z M 15.480469 22.523438 L 15.480469 23.402344 L 16.40625 23.402344 L 16.40625 22.523438 Z M 22.058594 22.523438 L 22.058594 23.402344 L 22.984375 23.402344 L 22.984375 22.523438 Z M 25.324219 22.523438 L 25.324219 23.402344 L 26.25 23.402344 L 26.25 22.523438 Z M 25.324219 22.523438 "/>
<path style=" stroke:none;fill-rule:nonzero;fill:rgb(29.803923%,74.117649%,93.333334%);fill-opacity:1;" d="M 19.851562 13.351562 L 19.851562 12.914062 L 20.777344 12.914062 L 20.777344 13.789062 L 19.851562 13.789062 Z M 19.851562 13.351562 "/>
</g>
</svg>
