
<svg xmlns="http://www.w3.org/2000/svg" xmlns:xlink="http://www.w3.org/1999/xlink" width="32px" height="32px" viewBox="0 0 32 32" version="1.1">
<g id="surface1">
<path style="fill-rule:nonzero;fill:rgb(100%,100%,100%);fill-opacity:1;stroke-width:7.459075;stroke-linecap:butt;stroke-linejoin:miter;stroke:rgb(0%,1.960784%,2.352941%);stroke-opacity:1;stroke-miterlimit:4;" d="M 21.563525 168.164356 L 113.903036 168.164356 C 122.154722 168.164356 128.835446 174.84508 128.835446 183.096766 L 128.835446 275.436277 C 128.835446 283.687963 122.154722 290.368687 113.903036 290.368687 L 21.563525 290.368687 C 13.311839 290.368687 6.631115 283.687963 6.631115 275.436277 L 6.631115 183.096766 C 6.631115 174.84508 13.311839 168.164356 21.563525 168.164356 Z M 21.563525 168.164356 " transform="matrix(0.236221,0,0,0.236221,0,-38.157489)"/>
<path style=" stroke:none;fill-rule:evenodd;fill:rgb(0%,0%,0%);fill-opacity:1;" d="M 9.519531 7.292969 C 9.519531 8.519531 8.527344 9.511719 7.300781 9.511719 C 6.074219 9.511719 5.078125 8.519531 5.078125 7.292969 C 5.078125 6.066406 6.074219 5.070312 7.300781 5.070312 C 8.527344 5.070312 9.519531 6.066406 9.519531 7.292969 Z M 9.519531 7.292969 "/>
<path style=" stroke:none;fill-rule:evenodd;fill:rgb(0%,0%,0%);fill-opacity:1;" d="M 28.320312 16 C 28.320312 22.804688 22.804688 28.320312 16 28.320312 C 9.195312 28.320312 3.679688 22.804688 3.679688 16 C 3.679688 9.195312 9.195312 3.679688 16 3.679688 C 22.804688 3.679688 28.320312 9.195312 28.320312 16 Z M 28.320312 16 "/>
<path style=" stroke:none;fill-rule:evenodd;fill:rgb(0%,0%,0%);fill-opacity:1;" d="M 26.851562 7.292969 C 26.851562 8.519531 25.855469 9.511719 24.628906 9.511719 C 23.402344 9.511719 22.410156 8.519531 22.410156 7.292969 C 22.410156 6.066406 23.402344 5.070312 24.628906 5.070312 C 25.855469 5.070312 26.851562 6.066406 26.851562 7.292969 Z M 26.851562 7.292969 "/>
<path style=" stroke:none;fill-rule:evenodd;fill:rgb(0%,0%,0%);fill-opacity:1;" d="M 26.851562 24.683594 C 26.851562 25.910156 25.855469 26.902344 24.628906 26.902344 C 23.402344 26.902344 22.410156 25.910156 22.410156 24.683594 C 22.410156 23.457031 23.402344 22.464844 24.628906 22.464844 C 25.855469 22.464844 26.851562 23.457031 26.851562 24.683594 Z M 26.851562 24.683594 "/>
<path style=" stroke:none;fill-rule:evenodd;fill:rgb(0%,0%,0%);fill-opacity:1;" d="M 9.519531 24.683594 C 9.519531 25.910156 8.527344 26.902344 7.300781 26.902344 C 6.074219 26.902344 5.078125 25.910156 5.078125 24.683594 C 5.078125 23.457031 6.074219 22.464844 7.300781 22.464844 C 8.527344 22.464844 9.519531 23.457031 9.519531 24.683594 Z M 9.519531 24.683594 "/>
<path style=" stroke:none;fill-rule:evenodd;fill:rgb(97.647059%,87.058824%,41.176471%);fill-opacity:1;" d="M 26.265625 16 C 26.265625 21.667969 21.667969 26.265625 16 26.265625 C 10.332031 26.265625 5.734375 21.667969 5.734375 16 C 5.734375 10.332031 10.332031 5.734375 16 5.734375 C 21.667969 5.734375 26.265625 10.332031 26.265625 16 Z M 26.265625 16 "/>
<path style=" stroke:none;fill-rule:evenodd;fill:rgb(80.000001%,80.000001%,80.000001%);fill-opacity:1;" d="M 21.324219 16 C 21.324219 18.941406 18.941406 21.324219 16 21.324219 C 13.058594 21.324219 10.675781 18.941406 10.675781 16 C 10.675781 13.058594 13.058594 10.675781 16 10.675781 C 18.941406 10.675781 21.324219 13.058594 21.324219 16 Z M 21.324219 16 "/>
<path style=" stroke:none;fill-rule:evenodd;fill:rgb(97.647059%,97.647059%,97.647059%);fill-opacity:1;" d="M 18.269531 16 C 18.269531 17.253906 17.253906 18.269531 16 18.269531 C 14.746094 18.269531 13.730469 17.253906 13.730469 16 C 13.730469 14.746094 14.746094 13.730469 16 13.730469 C 17.253906 13.730469 18.269531 14.746094 18.269531 16 Z M 18.269531 16 "/>
</g>
</svg>
