
<svg xmlns="http://www.w3.org/2000/svg" xmlns:xlink="http://www.w3.org/1999/xlink" width="32px" height="32px" viewBox="0 0 32 32" version="1.1">
<defs>
<clipPath id="clip1">
  <path d="M 2.6875 1.8125 L 28.3125 1.8125 L 28.3125 30.25 L 2.6875 30.25 Z M 2.6875 1.8125 "/>
</clipPath>
<clipPath id="clip2">
  <path d="M 4.886719 0.238281 L 30.5625 0.238281 C 31.746094 0.238281 32.703125 1.195312 32.703125 2.378906 L 32.703125 28.050781 C 32.703125 29.234375 31.746094 30.191406 30.5625 30.191406 L 4.886719 30.191406 C 3.707031 30.191406 2.746094 29.234375 2.746094 28.050781 L 2.746094 2.378906 C 2.746094 1.195312 3.707031 0.238281 4.886719 0.238281 Z M 4.886719 0.238281 "/>
</clipPath>
<clipPath id="clip3">
  <path d="M 2.6875 2.25 L 27.9375 2.25 L 27.9375 30.25 L 2.6875 30.25 Z M 2.6875 2.25 "/>
</clipPath>
<clipPath id="clip4">
  <path d="M 4.886719 0.238281 L 30.5625 0.238281 C 31.746094 0.238281 32.703125 1.195312 32.703125 2.378906 L 32.703125 28.050781 C 32.703125 29.234375 31.746094 30.191406 30.5625 30.191406 L 4.886719 30.191406 C 3.707031 30.191406 2.746094 29.234375 2.746094 28.050781 L 2.746094 2.378906 C 2.746094 1.195312 3.707031 0.238281 4.886719 0.238281 Z M 4.886719 0.238281 "/>
</clipPath>
<clipPath id="clip5">
  <path d="M 2.6875 2.625 L 27.5625 2.625 L 27.5625 30.25 L 2.6875 30.25 Z M 2.6875 2.625 "/>
</clipPath>
<clipPath id="clip6">
  <path d="M 4.886719 0.238281 L 30.5625 0.238281 C 31.746094 0.238281 32.703125 1.195312 32.703125 2.378906 L 32.703125 28.050781 C 32.703125 29.234375 31.746094 30.191406 30.5625 30.191406 L 4.886719 30.191406 C 3.707031 30.191406 2.746094 29.234375 2.746094 28.050781 L 2.746094 2.378906 C 2.746094 1.195312 3.707031 0.238281 4.886719 0.238281 Z M 4.886719 0.238281 "/>
</clipPath>
<clipPath id="clip7">
  <path d="M 2.6875 2.9375 L 27.25 2.9375 L 27.25 30.25 L 2.6875 30.25 Z M 2.6875 2.9375 "/>
</clipPath>
<clipPath id="clip8">
  <path d="M 4.886719 0.238281 L 30.5625 0.238281 C 31.746094 0.238281 32.703125 1.195312 32.703125 2.378906 L 32.703125 28.050781 C 32.703125 29.234375 31.746094 30.191406 30.5625 30.191406 L 4.886719 30.191406 C 3.707031 30.191406 2.746094 29.234375 2.746094 28.050781 L 2.746094 2.378906 C 2.746094 1.195312 3.707031 0.238281 4.886719 0.238281 Z M 4.886719 0.238281 "/>
</clipPath>
<clipPath id="clip9">
  <path d="M 2.6875 3.1875 L 27 3.1875 L 27 30.25 L 2.6875 30.25 Z M 2.6875 3.1875 "/>
</clipPath>
<clipPath id="clip10">
  <path d="M 4.886719 0.238281 L 30.5625 0.238281 C 31.746094 0.238281 32.703125 1.195312 32.703125 2.378906 L 32.703125 28.050781 C 32.703125 29.234375 31.746094 30.191406 30.5625 30.191406 L 4.886719 30.191406 C 3.707031 30.191406 2.746094 29.234375 2.746094 28.050781 L 2.746094 2.378906 C 2.746094 1.195312 3.707031 0.238281 4.886719 0.238281 Z M 4.886719 0.238281 "/>
</clipPath>
</defs>
<g id="surface1">
<path style=" stroke:none;fill-rule:nonzero;fill:rgb(60.784316%,48.235294%,60.392159%);fill-opacity:1;" d="M 5.832031 1.875 L 26.074219 1.875 C 28.082031 1.875 29.710938 3.503906 29.710938 5.511719 L 29.710938 26.542969 C 29.710938 28.550781 28.082031 30.179688 26.074219 30.179688 L 5.832031 30.179688 C 3.824219 30.179688 2.199219 28.550781 2.199219 26.542969 L 2.199219 5.511719 C 2.199219 3.503906 3.824219 1.875 5.832031 1.875 Z M 5.832031 1.875 "/>
<g clip-path="url(#clip1)" clip-rule="nonzero">
<g clip-path="url(#clip2)" clip-rule="nonzero">
<path style=" stroke:none;fill-rule:nonzero;fill:rgb(100%,100%,100%);fill-opacity:0.0509804;" d="M 19.085938 1.855469 C 19.074219 1.855469 19.0625 1.863281 19.050781 1.863281 C 19.042969 1.863281 19.035156 1.863281 19.027344 1.863281 C 19.027344 1.863281 18.960938 1.886719 18.960938 1.886719 C 18.082031 2.046875 17.503906 2.640625 17.121094 3.300781 C 17.050781 3.183594 17 3.035156 16.902344 2.933594 C 16.496094 2.527344 15.972656 2.289062 15.453125 2.199219 C 14.933594 2.109375 14.3125 2.160156 13.847656 2.589844 C 13.363281 3.035156 13.253906 3.769531 13.480469 4.484375 C 13.480469 4.484375 13.488281 4.519531 13.488281 4.519531 C 13.488281 4.519531 13.511719 4.5625 13.511719 4.5625 C 13.511719 4.5625 13.535156 4.597656 13.535156 4.597656 C 13.535156 4.59375 13.546875 4.640625 13.546875 4.640625 C 14.097656 5.597656 14.371094 6.675781 14.449219 7.804688 C 14.097656 8.214844 13.71875 8.710938 13.480469 9.320312 C 13.183594 10.066406 13.167969 11.042969 13.8125 11.792969 L 13.800781 11.792969 C 13.824219 11.839844 13.867188 11.882812 13.890625 11.925781 C 13.121094 12.445312 12.785156 13.261719 12.675781 13.964844 C 12.558594 14.761719 12.558594 15.492188 12.410156 15.894531 C 12.410156 15.894531 12.386719 15.964844 12.386719 15.960938 C 12.386719 15.964844 12.386719 15.96875 12.386719 15.972656 C 12.058594 17.253906 11.917969 18.199219 11.171875 18.894531 C 11.171875 18.894531 11.171875 18.902344 11.171875 18.902344 C 11.171875 18.902344 11.136719 18.9375 11.136719 18.9375 C 11.140625 18.9375 11.105469 18.972656 11.105469 18.972656 C 11.105469 18.972656 11.074219 19.003906 11.074219 19.003906 C 11.074219 19.003906 11.050781 19.050781 11.050781 19.050781 C 11.050781 19.050781 11.027344 19.082031 11.027344 19.082031 C 11.027344 19.082031 11.003906 19.128906 11.003906 19.128906 C 11.003906 19.128906 10.984375 19.171875 10.984375 19.171875 C 10.984375 19.171875 10.972656 19.214844 10.972656 19.214844 C 10.570312 20.40625 9.894531 21.566406 9.097656 22.335938 C 9.097656 22.339844 9.089844 22.34375 9.089844 22.347656 C 9.074219 22.363281 9.066406 22.367188 9.078125 22.359375 C 5.527344 24.738281 2.03125 27.160156 -1.675781 29.15625 C -1.675781 29.15625 -1.742188 29.199219 -1.742188 29.199219 C -1.742188 29.199219 -1.808594 29.246094 -1.808594 29.246094 C -1.808594 29.246094 -1.878906 29.300781 -1.878906 29.300781 C -1.875 29.300781 -1.921875 29.355469 -1.921875 29.355469 C -1.921875 29.355469 -1.976562 29.425781 -1.976562 29.425781 C -1.976562 29.421875 -2.011719 29.503906 -2.011719 29.503906 C -2.011719 29.5 -2.042969 29.570312 -2.042969 29.566406 C -2.042969 29.566406 -2.066406 29.648438 -2.066406 29.644531 C -2.066406 29.644531 -2.089844 29.726562 -2.089844 29.722656 C -2.089844 29.722656 -2.097656 29.816406 -2.097656 29.8125 C -2.097656 29.8125 -2.097656 29.894531 -2.097656 29.890625 C -2.097656 29.890625 -2.089844 29.972656 -2.089844 29.96875 C -2.089844 29.96875 -2.066406 30.050781 -2.066406 30.046875 C -2.066406 30.046875 -2.042969 30.128906 -2.042969 30.125 C -2.042969 30.125 -2.011719 30.203125 -2.011719 30.203125 C -2.011719 30.203125 -1.976562 30.269531 -1.976562 30.269531 C -1.972656 30.273438 -1.96875 30.277344 -1.964844 30.28125 C -1.988281 30.246094 -1.933594 30.378906 -1.878906 30.539062 C -1.820312 30.695312 -1.746094 30.902344 -1.632812 31.105469 C -1.503906 31.339844 -1.230469 31.660156 -0.785156 31.71875 C -0.441406 31.765625 -0.144531 31.628906 0.0859375 31.472656 C 0.0429688 31.492188 0.0546875 31.488281 0.117188 31.464844 C 3.769531 29.953125 7.074219 27.84375 10.292969 25.691406 C 10.214844 26.179688 10.199219 26.664062 10.246094 27.105469 C 10.335938 27.921875 10.480469 28.640625 10.402344 29.269531 C 10.402344 29.269531 10.402344 29.3125 10.402344 29.3125 C 10.402344 29.3125 10.394531 29.355469 10.394531 29.355469 C 10.394531 29.355469 10.402344 29.402344 10.402344 29.402344 C 10.402344 29.402344 10.402344 29.445312 10.402344 29.445312 C 10.472656 30.09375 10.722656 30.761719 11.183594 31.296875 C 11.585938 31.761719 12.214844 32.027344 12.902344 32.042969 C 12.914062 32.046875 12.929688 32.050781 12.945312 32.054688 C 12.992188 32.078125 13.046875 32.09375 13.101562 32.097656 C 14.050781 32.15625 15.519531 32.546875 16.824219 31.761719 C 16.824219 31.761719 16.832031 31.757812 16.832031 31.753906 C 16.832031 31.753906 16.902344 31.707031 16.902344 31.707031 C 16.902344 31.707031 16.957031 31.652344 16.957031 31.652344 C 16.957031 31.652344 17.011719 31.597656 17.011719 31.597656 C 17.011719 31.597656 17.046875 31.550781 17.058594 31.542969 C 17.058594 31.539062 17.058594 31.527344 17.058594 31.527344 C 17.144531 31.40625 17.140625 31.269531 17.191406 31.140625 C 17.414062 31.414062 17.660156 31.683594 17.972656 31.898438 C 17.972656 31.898438 17.976562 31.90625 17.980469 31.910156 C 17.996094 31.917969 18.015625 31.933594 18.015625 31.933594 C 18.015625 31.929688 18.058594 31.953125 18.058594 31.953125 C 18.058594 31.953125 18.113281 31.988281 18.113281 31.988281 C 18.113281 31.988281 18.160156 32.011719 18.160156 32.007812 C 18.160156 32.007812 18.214844 32.019531 18.214844 32.019531 C 18.214844 32.019531 18.269531 32.042969 18.269531 32.042969 C 18.269531 32.042969 18.328125 32.054688 18.328125 32.054688 C 18.324219 32.054688 18.382812 32.054688 18.382812 32.054688 C 18.386719 32.054688 18.390625 32.054688 18.394531 32.054688 C 19.765625 32.117188 21.179688 32.089844 22.527344 32.03125 C 22.527344 32.03125 22.582031 32.03125 22.582031 32.03125 C 22.582031 32.03125 22.640625 32.019531 22.640625 32.019531 C 22.636719 32.019531 22.695312 32.007812 22.695312 32.007812 C 22.695312 32.011719 22.753906 31.988281 22.75 31.988281 C 23.101562 31.863281 23.386719 31.621094 23.542969 31.308594 C 23.691406 31.007812 23.703125 30.699219 23.675781 30.4375 C 23.621094 29.933594 23.40625 29.480469 23.074219 29.144531 C 23.070312 29.140625 23.066406 29.136719 23.0625 29.132812 C 23.0625 29.136719 23.019531 29.101562 23.019531 29.101562 C 23.019531 29.101562 22.984375 29.078125 22.984375 29.078125 C 22.984375 29.078125 22.941406 29.042969 22.941406 29.042969 C 22.941406 29.042969 22.929688 29.039062 22.917969 29.035156 C 22.75 28.925781 22.691406 28.847656 22.640625 28.710938 C 22.589844 28.574219 22.554688 28.371094 22.550781 28.097656 C 22.542969 27.617188 22.632812 26.964844 22.574219 26.28125 C 22.570312 26.265625 22.574219 26.253906 22.574219 26.238281 C 22.578125 26.285156 22.578125 26.25 22.574219 26.191406 C 22.574219 26.1875 22.574219 26.183594 22.574219 26.179688 C 22.574219 26.152344 22.570312 26.128906 22.574219 26.101562 C 22.714844 26.121094 22.867188 26.121094 23.019531 26.082031 C 23.285156 26.003906 23.410156 25.859375 23.542969 25.734375 C 23.925781 25.796875 24.308594 25.792969 24.65625 25.636719 C 25.109375 25.425781 25.421875 25.074219 25.648438 24.730469 C 26.09375 24.066406 26.316406 23.316406 26.484375 22.960938 C 26.488281 22.957031 26.492188 22.941406 26.496094 22.9375 C 26.496094 22.933594 26.503906 22.929688 26.507812 22.925781 C 27.347656 21.871094 28.5625 20.433594 28.269531 18.605469 C 28.285156 18.714844 28.292969 18.707031 28.269531 18.570312 C 28.253906 18.488281 28.214844 18.417969 28.15625 18.355469 C 28.152344 18.355469 28.148438 18.351562 28.144531 18.347656 C 27.972656 17.816406 27.582031 17.421875 27.085938 17.308594 C 26.792969 17.246094 26.46875 17.257812 26.160156 17.398438 C 25.902344 17.519531 25.738281 17.730469 25.613281 17.945312 C 25.585938 17.972656 25.558594 18.003906 25.535156 18.035156 C 25.507812 18.082031 25.488281 18.121094 25.492188 18.113281 C 25.230469 18.542969 24.855469 19.164062 24.488281 19.660156 C 24.464844 19.695312 24.449219 19.707031 24.421875 19.738281 C 24.160156 18.714844 23.816406 17.738281 23.441406 16.886719 C 23.289062 15.449219 22.855469 14.167969 22.484375 12.929688 C 22.484375 12.929688 22.484375 12.921875 22.484375 12.917969 C 22.480469 12.902344 22.460938 12.863281 22.460938 12.863281 C 22.460938 12.863281 22.425781 12.785156 22.425781 12.785156 C 22.425781 12.785156 22.394531 12.71875 22.394531 12.71875 C 22.394531 12.71875 22.347656 12.664062 22.347656 12.664062 C 22.347656 12.660156 22.34375 12.65625 22.339844 12.652344 C 21.902344 12.121094 21.371094 11.601562 20.789062 11.214844 C 20.78125 10.964844 20.785156 10.691406 20.722656 10.347656 C 20.652344 9.933594 20.410156 9.523438 20.054688 9.1875 C 20.050781 9.183594 20.046875 9.179688 20.042969 9.175781 C 20.027344 9.128906 20.003906 9.089844 19.976562 9.050781 C 19.917969 8.984375 19.917969 8.988281 19.921875 8.839844 C 19.925781 8.707031 19.972656 8.488281 20.066406 8.238281 C 20.253906 7.730469 20.625 7.09375 20.753906 6.367188 C 20.757812 6.355469 20.757812 6.34375 20.753906 6.332031 C 20.753906 6.332031 20.753906 6.289062 20.753906 6.289062 C 20.753906 6.289062 20.769531 6.246094 20.769531 6.246094 C 20.769531 6.246094 20.753906 6.199219 20.753906 6.199219 C 20.753906 6.199219 20.757812 6.191406 20.753906 6.175781 C 20.753906 6.175781 20.757812 6.160156 20.753906 6.15625 C 20.742188 5.855469 20.945312 5.160156 21.046875 4.425781 C 21.097656 4.054688 21.121094 3.628906 20.988281 3.191406 C 20.851562 2.738281 20.527344 2.316406 20.054688 2.042969 L 20.054688 2.054688 C 20.054688 2.054688 20.011719 2.019531 20.011719 2.019531 C 20.011719 2.019531 19.964844 2 19.964844 2 C 19.703125 1.890625 19.410156 1.839844 19.117188 1.855469 C 19.105469 1.855469 19.097656 1.855469 19.085938 1.855469 Z M 19.085938 1.855469 "/>
</g>
</g>
<g clip-path="url(#clip3)" clip-rule="nonzero">
<g clip-path="url(#clip4)" clip-rule="nonzero">
<path style=" stroke:none;fill-rule:nonzero;fill:rgb(100%,100%,100%);fill-opacity:0.0509804;" d="M 19.140625 2.253906 C 19.128906 2.257812 19.117188 2.261719 19.105469 2.265625 C 18.175781 2.398438 17.574219 3.054688 17.257812 3.792969 C 17.167969 4 17.136719 4.222656 17.078125 4.441406 C 17.078125 4.4375 17.066406 4.441406 17.066406 4.441406 C 17.074219 3.964844 16.90625 3.523438 16.613281 3.222656 C 16.273438 2.882812 15.832031 2.675781 15.386719 2.601562 C 14.941406 2.523438 14.472656 2.574219 14.125 2.890625 C 13.78125 3.207031 13.675781 3.753906 13.871094 4.363281 C 13.878906 4.386719 13.886719 4.414062 13.902344 4.441406 C 14.515625 5.503906 14.808594 6.6875 14.871094 7.917969 C 14.503906 8.335938 14.097656 8.855469 13.859375 9.464844 C 13.589844 10.144531 13.566406 10.988281 14.167969 11.617188 C 14.253906 11.792969 14.339844 11.949219 14.449219 12.050781 C 14.441406 12.054688 14.433594 12.058594 14.425781 12.0625 C 13.515625 12.46875 13.191406 13.277344 13.078125 14.023438 C 12.964844 14.769531 12.984375 15.511719 12.789062 16.039062 C 12.785156 16.050781 12.78125 16.0625 12.777344 16.074219 C 12.457031 17.332031 12.308594 18.394531 11.449219 19.191406 C 11.40625 19.238281 11.371094 19.289062 11.351562 19.347656 C 10.929688 20.597656 10.230469 21.808594 9.367188 22.636719 C 9.363281 22.640625 9.359375 22.644531 9.355469 22.648438 C 5.789062 25.039062 2.269531 27.492188 -1.488281 29.511719 C -1.582031 29.5625 -1.652344 29.652344 -1.675781 29.753906 C -1.707031 29.855469 -1.6875 29.96875 -1.632812 30.058594 C -1.546875 30.1875 -1.464844 30.566406 -1.277344 30.90625 C -1.179688 31.074219 -1.007812 31.277344 -0.730469 31.316406 C -0.488281 31.351562 -0.277344 31.246094 -0.0703125 31.097656 C -0.0585938 31.089844 -0.0507812 31.089844 -0.0390625 31.082031 C 3.910156 29.453125 7.492188 27.128906 10.984375 24.765625 C 10.597656 25.546875 10.570312 26.332031 10.648438 27.0625 C 10.734375 27.851562 10.890625 28.597656 10.804688 29.3125 C 10.800781 29.339844 10.800781 29.371094 10.804688 29.402344 C 10.867188 29.972656 11.097656 30.566406 11.496094 31.027344 C 11.878906 31.46875 12.460938 31.757812 13.121094 31.683594 L 13.121094 31.699219 C 14.140625 31.761719 15.480469 32.097656 16.613281 31.417969 C 16.65625 31.390625 16.691406 31.351562 16.722656 31.308594 C 17.046875 30.847656 17.007812 30.316406 16.855469 29.847656 C 17.152344 30.519531 17.582031 31.132812 18.214844 31.574219 C 18.273438 31.621094 18.34375 31.644531 18.417969 31.652344 C 19.769531 31.714844 21.164062 31.6875 22.503906 31.628906 C 22.542969 31.628906 22.582031 31.621094 22.617188 31.605469 C 22.867188 31.519531 23.070312 31.339844 23.175781 31.128906 C 23.277344 30.917969 23.296875 30.691406 23.277344 30.480469 C 23.230469 30.066406 23.050781 29.703125 22.785156 29.433594 C 22.761719 29.414062 22.734375 29.394531 22.707031 29.378906 C 22.246094 29.089844 22.160156 28.691406 22.148438 28.109375 C 22.140625 27.5625 22.234375 26.914062 22.171875 26.28125 C 22.167969 26.261719 22.175781 26.246094 22.171875 26.226562 C 22.175781 26.203125 22.167969 26.183594 22.171875 26.160156 C 22.191406 25.960938 22.183594 25.765625 22.160156 25.566406 C 22.160156 25.5625 22.160156 25.558594 22.160156 25.558594 C 22.402344 25.691406 22.671875 25.753906 22.90625 25.691406 C 23.125 25.628906 23.273438 25.464844 23.429688 25.324219 C 23.820312 25.417969 24.183594 25.40625 24.488281 25.269531 C 24.847656 25.105469 25.113281 24.8125 25.316406 24.511719 C 25.71875 23.90625 25.933594 23.175781 26.128906 22.761719 C 26.128906 22.757812 26.136719 22.753906 26.136719 22.746094 C 26.988281 21.679688 28.132812 20.324219 27.867188 18.667969 C 27.863281 18.660156 27.867188 18.648438 27.867188 18.636719 L 27.855469 18.636719 C 27.789062 18.140625 27.414062 17.792969 26.996094 17.699219 C 26.785156 17.652344 26.542969 17.667969 26.328125 17.769531 C 26.136719 17.855469 25.992188 18.046875 25.894531 18.257812 L 25.882812 18.246094 C 25.871094 18.265625 25.851562 18.304688 25.839844 18.324219 C 25.578125 18.75 25.199219 19.386719 24.8125 19.90625 C 24.613281 20.179688 24.402344 20.40625 24.246094 20.542969 C 24.226562 20.558594 24.238281 20.542969 24.222656 20.550781 C 23.980469 19.269531 23.519531 18.066406 23.050781 17.011719 C 22.910156 15.59375 22.476562 14.3125 22.09375 13.042969 C 22.082031 12.996094 22.058594 12.949219 22.027344 12.910156 C 21.5625 12.34375 20.988281 11.777344 20.398438 11.425781 C 20.378906 11.125 20.386719 10.785156 20.324219 10.410156 C 20.253906 10.019531 20.042969 9.601562 19.652344 9.320312 L 19.664062 9.308594 C 19.550781 9.167969 19.511719 9.03125 19.519531 8.832031 C 19.527344 8.628906 19.582031 8.371094 19.6875 8.09375 C 19.890625 7.539062 20.238281 6.917969 20.355469 6.289062 C 20.359375 6.261719 20.359375 6.230469 20.355469 6.199219 C 20.324219 5.746094 20.550781 5.066406 20.644531 4.371094 C 20.691406 4.027344 20.707031 3.667969 20.601562 3.3125 C 20.492188 2.960938 20.238281 2.621094 19.855469 2.402344 C 19.839844 2.390625 19.824219 2.386719 19.808594 2.378906 C 19.597656 2.289062 19.371094 2.246094 19.140625 2.253906 Z M 16.398438 28.175781 C 16.488281 28.664062 16.597656 29.164062 16.789062 29.644531 C 16.605469 29.203125 16.324219 28.820312 16.074219 28.519531 C 16.121094 28.449219 16.207031 28.34375 16.320312 28.242188 C 16.351562 28.214844 16.367188 28.199219 16.398438 28.175781 Z M 16.398438 28.175781 "/>
</g>
</g>
<g clip-path="url(#clip5)" clip-rule="nonzero">
<g clip-path="url(#clip6)" clip-rule="nonzero">
<path style=" stroke:none;fill-rule:nonzero;fill:rgb(100%,100%,100%);fill-opacity:0.0509804;" d="M 19.164062 2.644531 C 17.585938 2.871094 17.242188 4.738281 17.222656 6.066406 C 17.097656 6.988281 17.085938 4.824219 16.710938 4.574219 C 16.960938 2.839844 13.578125 2.164062 14.238281 4.253906 C 14.902344 5.410156 15.230469 6.691406 15.285156 8.015625 C 14.519531 8.847656 13.464844 10.324219 14.449219 11.347656 C 14.605469 11.980469 15.710938 12.128906 14.578125 12.414062 C 13.015625 13.109375 13.613281 14.910156 13.144531 16.175781 C 12.832031 17.40625 12.683594 18.566406 11.71875 19.464844 C 11.277344 20.773438 10.546875 22.035156 9.621094 22.921875 C 6.039062 25.324219 2.492188 27.800781 -1.308594 29.847656 C -0.996094 30.324219 -1.007812 31.386719 -0.21875 30.734375 C 3.734375 29.105469 7.34375 26.761719 10.871094 24.375 C 11.480469 24.152344 11.875 23.902344 11.378906 24.753906 C 10.503906 26.257812 11.371094 27.761719 11.183594 29.355469 C 11.289062 30.339844 12.019531 31.503906 13.144531 31.324219 C 14.210938 31.386719 15.449219 31.660156 16.410156 31.082031 C 16.941406 30.332031 16.25 29.285156 15.746094 28.6875 C 15.277344 28.460938 16.769531 27.292969 16.667969 27.683594 C 16.859375 28.996094 17.308594 30.476562 18.4375 31.261719 C 19.773438 31.324219 21.160156 31.296875 22.496094 31.238281 C 23.167969 31.007812 22.882812 30.082031 22.5 29.699219 C 21.324219 28.957031 21.957031 27.378906 21.792969 26.214844 C 21.902344 25.613281 21.3125 23.839844 22.183594 25.140625 C 22.539062 25.539062 23.101562 25.28125 23.363281 24.921875 C 24.910156 25.457031 25.347656 23.503906 25.792969 22.578125 C 26.65625 21.488281 27.746094 20.183594 27.488281 18.699219 C 27.425781 18.035156 26.4375 17.789062 26.207031 18.449219 C 25.695312 19.273438 24.574219 21.246094 23.957031 21.042969 C 23.765625 19.652344 23.210938 18.335938 22.691406 17.164062 C 22.570312 15.757812 22.125 14.472656 21.726562 13.152344 C 21.230469 12.550781 20.578125 11.917969 20.027344 11.644531 C 19.949219 10.910156 20.085938 9.964844 19.363281 9.554688 C 18.644531 8.6875 19.78125 7.285156 19.972656 6.226562 C 19.902344 5.074219 20.917969 3.457031 19.664062 2.734375 C 19.507812 2.667969 19.332031 2.636719 19.164062 2.644531 Z M 21.570312 21.097656 C 22.261719 21.371094 22.265625 23.210938 21.9375 22.925781 C 22.105469 22.324219 21.640625 21.703125 21.570312 21.097656 Z M 21.570312 21.097656 "/>
</g>
</g>
<g clip-path="url(#clip7)" clip-rule="nonzero">
<g clip-path="url(#clip8)" clip-rule="nonzero">
<path style=" stroke:none;fill-rule:nonzero;fill:rgb(100%,100%,100%);fill-opacity:0.0509804;" d="M 19.175781 2.980469 C 18.875 2.992188 18.5625 3.144531 18.316406 3.4375 C 17.523438 4.363281 17.621094 5.574219 17.503906 6.542969 C 17.425781 6.648438 17.34375 6.746094 17.300781 6.855469 C 17.238281 7.019531 17.199219 7.191406 17.15625 7.324219 C 17.128906 7.410156 17.101562 7.4375 17.078125 7.480469 C 16.902344 7.128906 16.832031 6.722656 16.789062 6.265625 C 16.738281 5.753906 16.699219 5.1875 16.386719 4.660156 C 16.371094 3.960938 15.875 3.453125 15.394531 3.28125 C 15.140625 3.1875 14.847656 3.160156 14.628906 3.371094 C 14.519531 3.472656 14.464844 3.628906 14.472656 3.78125 C 14.476562 3.933594 14.519531 4.089844 14.605469 4.261719 C 15.121094 5.296875 15.539062 6.253906 15.519531 7.136719 C 15.511719 7.402344 15.53125 7.578125 15.5625 7.726562 C 15.585938 7.839844 15.609375 7.96875 15.628906 8.105469 C 15.171875 8.640625 14.878906 8.980469 14.707031 9.355469 C 14.464844 9.871094 14.355469 10.25 14.371094 10.566406 C 14.386719 10.824219 14.53125 11.015625 14.707031 11.148438 C 14.769531 11.304688 14.839844 11.472656 14.996094 11.617188 C 15.113281 11.726562 15.324219 11.761719 15.519531 11.804688 C 15.488281 11.960938 15.496094 12.144531 15.496094 12.351562 C 14.886719 12.542969 14.378906 12.84375 14.058594 13.285156 C 13.714844 13.765625 13.605469 14.386719 13.738281 15.058594 C 13.738281 15.0625 13.734375 15.066406 13.738281 15.070312 C 13.691406 16.027344 13.160156 16.804688 13.078125 17.933594 C 13.042969 18.390625 12.902344 18.550781 12.675781 18.769531 C 12.453125 18.992188 12.128906 19.261719 11.941406 19.792969 C 11.574219 20.835938 11.222656 21.425781 10.949219 21.824219 C 10.816406 22.023438 10.699219 22.171875 10.605469 22.324219 C 10.546875 22.417969 10.535156 22.53125 10.503906 22.636719 C 10.363281 22.667969 10.207031 22.675781 10.113281 22.769531 C 10.023438 22.863281 9.988281 22.980469 9.96875 23.09375 C 9.410156 23.476562 7.402344 24.839844 5.109375 26.335938 C 2.769531 27.863281 0.199219 29.480469 -1.164062 30.148438 C -1.300781 30.207031 -1.367188 30.367188 -1.308594 30.503906 C -1.25 30.644531 -1.089844 30.707031 -0.949219 30.648438 C 3.269531 29.214844 10.105469 24.507812 10.683594 24.109375 C 10.8125 24.132812 10.949219 24.121094 11.074219 24.03125 C 11.179688 23.953125 11.238281 23.839844 11.285156 23.707031 C 11.441406 23.75 11.609375 23.816406 11.753906 23.796875 C 11.878906 23.777344 11.960938 23.691406 12.066406 23.628906 C 12.074219 23.710938 12.09375 23.773438 12.128906 23.839844 C 11.769531 24.5625 11.464844 25.257812 11.328125 25.871094 C 11.257812 26.191406 11.230469 26.496094 11.273438 26.769531 C 11.308594 26.984375 11.414062 27.171875 11.5625 27.328125 C 11.46875 28.015625 11.414062 28.703125 11.507812 29.3125 C 11.605469 29.960938 11.875 30.542969 12.410156 30.894531 C 12.449219 30.921875 12.496094 30.9375 12.542969 30.941406 C 13.609375 30.988281 15.003906 31.285156 16.074219 30.917969 C 16.179688 30.878906 16.25 30.78125 16.253906 30.671875 C 16.285156 30.066406 15.996094 29.554688 15.707031 29.167969 C 15.566406 28.972656 15.417969 28.816406 15.308594 28.6875 C 15.195312 28.558594 15.128906 28.433594 15.140625 28.464844 L 15.128906 28.464844 C 15.121094 28.503906 15.125 28.472656 15.207031 28.375 C 15.359375 28.199219 15.394531 28.132812 15.507812 27.988281 C 15.542969 27.976562 15.589844 27.988281 15.621094 27.972656 C 15.714844 27.929688 15.792969 27.878906 15.875 27.808594 C 16.035156 27.667969 16.203125 27.46875 16.363281 27.261719 C 16.535156 27.046875 16.667969 26.863281 16.824219 26.648438 C 16.945312 28.050781 17.191406 29.648438 18.449219 30.882812 C 18.5 30.933594 18.566406 30.960938 18.636719 30.960938 C 19.617188 30.960938 21.335938 30.941406 22.304688 30.941406 C 22.386719 30.941406 22.457031 30.902344 22.511719 30.84375 C 22.5625 30.785156 22.585938 30.707031 22.574219 30.628906 C 22.488281 30.148438 22.214844 29.820312 21.960938 29.601562 C 21.832031 29.492188 21.707031 29.402344 21.613281 29.332031 C 21.550781 29.292969 21.546875 29.285156 21.527344 29.269531 C 21.425781 28.320312 21.441406 27.347656 21.457031 26.472656 C 21.472656 25.667969 21.457031 24.972656 21.324219 24.398438 C 21.464844 24.394531 21.578125 24.292969 21.589844 24.152344 C 21.597656 24.042969 21.578125 23.953125 21.558594 23.863281 C 21.640625 23.855469 21.714844 23.8125 21.761719 23.742188 C 21.808594 23.671875 21.820312 23.585938 21.792969 23.503906 C 21.71875 23.285156 21.601562 23.101562 21.503906 22.925781 C 21.625 22.871094 21.6875 22.730469 21.648438 22.605469 C 21.40625 21.773438 21.148438 21.113281 20.988281 20.230469 C 20.984375 20.191406 20.96875 20.152344 20.945312 20.121094 C 20.621094 19.644531 20.503906 19.261719 20.511719 18.871094 C 20.515625 18.53125 20.628906 18.167969 20.800781 17.769531 C 20.828125 17.824219 20.832031 17.824219 20.855469 17.902344 C 20.976562 18.292969 21.066406 18.894531 21.066406 19.027344 C 21.066406 19.03125 21.066406 19.035156 21.066406 19.035156 C 21.152344 20.15625 22.011719 21.089844 22.449219 21.824219 C 22.449219 21.824219 22.449219 21.832031 22.449219 21.835938 C 22.5 21.996094 22.496094 22.191406 22.460938 22.4375 C 22.433594 22.640625 22.410156 22.886719 22.417969 23.136719 C 22.265625 23.347656 22.195312 23.414062 21.894531 23.695312 C 21.84375 23.746094 21.816406 23.816406 21.816406 23.886719 C 21.804688 24.144531 21.925781 24.332031 22.058594 24.519531 C 22.191406 24.707031 22.339844 24.871094 22.519531 24.976562 C 22.621094 25.039062 22.753906 25.027344 22.839844 24.941406 C 23.023438 24.785156 23.152344 24.679688 23.332031 24.519531 C 23.417969 24.585938 23.480469 24.660156 23.609375 24.699219 C 23.722656 24.734375 23.871094 24.742188 24.011719 24.675781 C 24.078125 24.644531 24.105469 24.566406 24.15625 24.511719 C 24.210938 24.511719 24.261719 24.53125 24.324219 24.519531 C 24.433594 24.503906 24.566406 24.417969 24.636719 24.320312 C 24.714844 24.207031 24.730469 24.097656 24.746094 23.972656 C 24.796875 23.964844 24.851562 23.96875 24.890625 23.941406 C 25.054688 23.820312 25.074219 23.667969 25.089844 23.527344 C 25.117188 23.316406 25.070312 23.097656 25.023438 22.894531 C 25.578125 22.394531 26.214844 21.59375 26.675781 20.777344 C 26.914062 20.34375 27.105469 19.910156 27.1875 19.515625 C 27.269531 19.121094 27.242188 18.730469 26.964844 18.457031 C 26.898438 18.394531 26.800781 18.367188 26.714844 18.386719 C 26.621094 18.40625 26.550781 18.472656 26.519531 18.558594 C 26.386719 18.941406 25.878906 19.675781 25.324219 20.363281 C 24.839844 20.964844 24.363281 21.480469 24.019531 21.855469 C 24.003906 21.839844 23.964844 21.792969 23.957031 21.777344 C 23.917969 21.738281 23.859375 21.664062 23.753906 21.511719 C 23.472656 20.707031 23.347656 19.917969 23.207031 19.269531 C 23.136719 18.941406 23.066406 18.652344 22.949219 18.402344 C 22.855469 18.191406 22.714844 18.015625 22.527344 17.890625 C 22.417969 17.738281 22.375 17.613281 22.363281 17.445312 C 22.347656 17.273438 22.359375 17.058594 22.363281 16.808594 C 22.363281 16.335938 22.253906 15.71875 21.726562 15.003906 C 21.839844 14.347656 21.757812 13.859375 21.582031 13.535156 C 21.414062 13.226562 21.1875 13.070312 21.035156 12.988281 C 20.917969 12.589844 20.652344 12.316406 20.355469 12.207031 C 20.113281 12.117188 19.925781 12.136719 19.742188 12.140625 C 19.703125 11.949219 19.660156 11.773438 19.707031 11.238281 C 19.71875 11.128906 19.660156 11.019531 19.566406 10.96875 C 19.558594 10.949219 19.550781 10.902344 19.550781 10.835938 C 19.550781 10.703125 19.582031 10.523438 19.574219 10.347656 C 19.574219 10.253906 19.558594 10.152344 19.496094 10.054688 C 19.4375 9.960938 19.34375 9.898438 19.253906 9.867188 C 19.144531 9.828125 19 9.839844 18.871094 9.832031 C 18.890625 9.433594 18.863281 9.050781 18.761719 8.683594 C 18.9375 8.207031 18.996094 7.816406 19.285156 7.191406 C 19.628906 6.449219 19.941406 5.457031 19.785156 4.449219 C 19.996094 4.09375 20.066406 3.742188 19.953125 3.457031 C 19.828125 3.144531 19.503906 2.964844 19.175781 2.980469 Z M 14.617188 18.335938 C 14.605469 18.410156 14.566406 18.488281 14.570312 18.558594 C 14.578125 18.636719 14.597656 18.707031 14.636719 18.78125 C 14.648438 18.800781 14.6875 18.816406 14.707031 18.835938 L 14.695312 18.835938 C 14.699219 18.84375 14.691406 18.84375 14.695312 18.847656 C 14.628906 18.90625 14.496094 19.039062 14.316406 19.238281 C 14.324219 19.183594 14.363281 19.117188 14.359375 19.070312 C 14.355469 18.945312 14.332031 18.878906 14.339844 18.824219 C 14.339844 18.753906 14.429688 18.582031 14.617188 18.335938 Z M 13.757812 20.105469 C 13.753906 20.136719 13.769531 20.167969 13.769531 20.195312 L 13.089844 20.753906 C 13.132812 20.707031 13.164062 20.65625 13.210938 20.609375 C 13.378906 20.445312 13.574219 20.289062 13.757812 20.105469 Z M 12.753906 22.359375 C 12.730469 22.433594 12.726562 22.550781 12.746094 22.613281 C 12.753906 22.644531 12.75 22.636719 12.753906 22.648438 C 12.703125 22.679688 12.667969 22.714844 12.621094 22.746094 C 12.632812 22.652344 12.628906 22.554688 12.621094 22.457031 C 12.652344 22.433594 12.71875 22.390625 12.753906 22.359375 Z M 12.753906 22.359375 "/>
</g>
</g>
<g clip-path="url(#clip9)" clip-rule="nonzero">
<g clip-path="url(#clip10)" clip-rule="nonzero">
<path style=" stroke:none;fill-rule:nonzero;fill:rgb(0%,0%,0%);fill-opacity:1;" d="M 19.1875 3.242188 C 18.976562 3.253906 18.730469 3.371094 18.527344 3.613281 C 17.8125 4.453125 17.902344 5.589844 17.769531 6.605469 C 17.394531 6.902344 17.472656 8.054688 16.925781 7.808594 C 16.332031 6.894531 16.714844 5.699219 16.128906 4.761719 C 16.207031 3.503906 14.253906 2.957031 14.84375 4.136719 C 15.367188 5.183594 15.804688 6.175781 15.785156 7.144531 C 15.769531 7.644531 15.871094 7.707031 15.921875 8.179688 C 15.398438 8.789062 15.117188 9.113281 14.957031 9.460938 C 14.488281 10.460938 14.605469 10.847656 14.941406 11.003906 C 15.074219 11.339844 15.183594 11.566406 15.769531 11.613281 C 16.0625 11.621094 16.054688 11.753906 15.785156 11.804688 C 15.738281 11.996094 15.761719 12.128906 15.753906 12.535156 C 14.433594 12.871094 13.722656 13.789062 14.003906 15.074219 C 13.957031 16.121094 13.417969 16.902344 13.339844 17.957031 C 13.265625 18.996094 12.53125 18.941406 12.199219 19.886719 C 11.445312 22.011719 10.710938 22.347656 10.707031 22.839844 C 10.316406 22.851562 10.199219 23.035156 10.226562 23.253906 C 9.210938 23.941406 1.746094 29.027344 -1.042969 30.394531 C 3.136719 28.972656 10.195312 24.113281 10.625 23.816406 C 10.828125 23.917969 11.042969 23.847656 11.082031 23.390625 C 12.050781 23.890625 12.484375 22.996094 12.347656 22.339844 C 12.6875 22.011719 13.652344 21.277344 13.878906 21.042969 C 13.777344 21.238281 13.527344 21.707031 13.300781 22.011719 C 13.214844 22.125 13.144531 22.222656 13.09375 22.300781 C 12.910156 22.574219 13.046875 22.484375 13.050781 22.769531 C 12.117188 23.285156 12.230469 23.679688 12.433594 23.84375 C 11.65625 25.355469 11.171875 26.773438 11.839844 27.238281 C 11.625 28.667969 11.648438 30.074219 12.554688 30.667969 C 13.65625 30.722656 15.035156 30.980469 15.988281 30.65625 C 16.035156 29.644531 14.992188 28.828125 14.886719 28.558594 C 14.851562 28.417969 14.820312 28.410156 14.996094 28.203125 C 15.171875 27.996094 15.175781 27.980469 15.355469 27.746094 C 15.714844 27.867188 16.574219 26.503906 17.035156 25.914062 C 17.164062 27.457031 17.246094 29.332031 18.636719 30.699219 C 19.609375 30.699219 21.332031 30.667969 22.304688 30.667969 C 22.167969 29.863281 21.402344 29.582031 21.257812 29.386719 C 21.027344 27.382812 21.371094 25.300781 21.035156 24.246094 C 21.113281 24.191406 21.171875 24.113281 21.324219 24.132812 C 21.363281 23.628906 20.878906 23.417969 21.535156 23.597656 C 21.375 23.128906 20.738281 22.363281 21.394531 22.683594 C 21.160156 21.871094 20.882812 21.183594 20.71875 20.273438 C 20.019531 19.253906 20.175781 18.464844 20.621094 17.488281 C 20.996094 16.75 21.332031 18.621094 21.339844 19.019531 C 21.414062 20.015625 22.25 20.953125 22.707031 21.734375 C 22.863281 22.199219 22.617188 22.738281 22.675781 23.265625 C 22.496094 23.515625 22.40625 23.597656 22.085938 23.898438 C 22.074219 24.144531 22.425781 24.597656 22.664062 24.738281 C 22.925781 24.511719 22.96875 24.542969 23.3125 24.191406 C 23.511719 24.371094 23.878906 24.667969 24.058594 24.230469 C 24.4375 24.308594 24.476562 24.175781 24.496094 23.679688 C 24.902344 23.984375 24.871094 23.183594 24.746094 22.796875 C 25.8125 21.886719 27.507812 19.355469 26.773438 18.644531 C 26.449219 19.585938 24.695312 21.542969 24.027344 22.257812 C 23.707031 21.894531 23.785156 22.054688 23.503906 21.636719 C 22.90625 19.949219 22.992188 18.371094 22.304688 18.050781 C 21.730469 17.277344 22.605469 16.511719 21.449219 15.058594 C 21.730469 13.699219 21.101562 13.316406 20.84375 13.183594 C 20.742188 12.351562 19.824219 12.339844 19.503906 12.371094 C 19.472656 12.097656 19.371094 11.949219 19.4375 11.214844 C 19.179688 11.089844 19.320312 10.613281 19.3125 10.355469 C 19.304688 10.101562 19.152344 10.082031 18.609375 10.082031 C 18.660156 9.574219 18.628906 9.089844 18.484375 8.648438 C 18.667969 8.167969 18.722656 7.753906 19.035156 7.074219 C 19.378906 6.335938 19.675781 5.347656 19.503906 4.402344 C 19.980469 3.707031 19.652344 3.222656 19.1875 3.242188 Z M 14.789062 17.707031 C 14.753906 18.023438 14.914062 18.203125 14.914062 18.203125 C 14.785156 18.417969 14.839844 18.699219 14.941406 18.714844 C 15.003906 18.832031 14.96875 18.949219 14.96875 18.949219 C 14.96875 18.949219 13.867188 19.941406 14.042969 20.316406 L 12.347656 21.707031 C 12.433594 20.535156 13.511719 20.199219 13.988281 19.390625 C 14.308594 18.855469 13.597656 18.933594 14.789062 17.707031 Z M 14.789062 17.707031 "/>
</g>
</g>
</g>
</svg>
