<!-- color: #eeeeee -->
<svg xmlns="http://www.w3.org/2000/svg" xmlns:xlink="http://www.w3.org/1999/xlink" width="32px" height="32px" viewBox="0 0 32 32" version="1.1">
<defs>
<clipPath id="clip1">
  <path d="M 2.1875 9.375 L 13.5 9.375 L 13.5 21.6875 L 2.1875 21.6875 Z M 2.1875 9.375 "/>
</clipPath>
<clipPath id="clip2">
  <path d="M 40.050781 16.003906 C 40.050781 29.351562 29.222656 40.167969 15.886719 40.167969 C 2.550781 40.167969 -8.277344 29.351562 -8.277344 16.003906 C -8.277344 2.652344 2.550781 -8.160156 15.886719 -8.160156 C 29.222656 -8.160156 40.050781 2.652344 40.050781 16.003906 Z M 40.050781 16.003906 "/>
</clipPath>
<clipPath id="clip3">
  <path d="M 9.5 11.125 L 21.1875 11.125 L 21.1875 24.4375 L 9.5 24.4375 Z M 9.5 11.125 "/>
</clipPath>
<clipPath id="clip4">
  <path d="M 40.050781 16.003906 C 40.050781 29.351562 29.222656 40.167969 15.886719 40.167969 C 2.550781 40.167969 -8.277344 29.351562 -8.277344 16.003906 C -8.277344 2.652344 2.550781 -8.160156 15.886719 -8.160156 C 29.222656 -8.160156 40.050781 2.652344 40.050781 16.003906 Z M 40.050781 16.003906 "/>
</clipPath>
<clipPath id="clip5">
  <path d="M 17.125 7.5625 L 29.5625 7.5625 L 29.5625 20.667969 L 17.125 20.667969 Z M 17.125 7.5625 "/>
</clipPath>
<clipPath id="clip6">
  <path d="M 40.050781 16.003906 C 40.050781 29.351562 29.222656 40.167969 15.886719 40.167969 C 2.550781 40.167969 -8.277344 29.351562 -8.277344 16.003906 C -8.277344 2.652344 2.550781 -8.160156 15.886719 -8.160156 C 29.222656 -8.160156 40.050781 2.652344 40.050781 16.003906 Z M 40.050781 16.003906 "/>
</clipPath>
</defs>
<g id="surface1">
<path style="fill-rule:nonzero;fill:rgb(100%,100%,100%);fill-opacity:1;stroke-width:7.222011;stroke-linecap:butt;stroke-linejoin:miter;stroke:rgb(0%,80.000001%,100%);stroke-opacity:1;stroke-miterlimit:4;" d="M 19.296875 4.84375 L 108.703125 4.84375 C 116.6875 4.84375 123.15625 11.3125 123.15625 19.296875 L 123.15625 108.703125 C 123.15625 116.6875 116.6875 123.15625 108.703125 123.15625 L 19.296875 123.15625 C 11.3125 123.15625 4.84375 116.6875 4.84375 108.703125 L 4.84375 19.296875 C 4.84375 11.3125 11.3125 4.84375 19.296875 4.84375 Z M 19.296875 4.84375 " transform="matrix(0.25,0,0,0.25,0,0)"/>
<g clip-path="url(#clip1)" clip-rule="nonzero">
<g clip-path="url(#clip2)" clip-rule="nonzero">
<path style=" stroke:none;fill-rule:evenodd;fill:rgb(23.921569%,61.176473%,100%);fill-opacity:1;" d="M 6.546875 21.660156 L 2.234375 11.238281 L 5.707031 9.539062 L 5.792969 9.425781 L 8.589844 16.507812 L 11.953125 14.722656 L 13.464844 18.089844 M 6.546875 21.660156 "/>
</g>
</g>
<g clip-path="url(#clip3)" clip-rule="nonzero">
<g clip-path="url(#clip4)" clip-rule="nonzero">
<path style=" stroke:none;fill-rule:evenodd;fill:rgb(97.647059%,75.686276%,23.529412%);fill-opacity:1;" d="M 9.539062 11.152344 L 13.878906 11.761719 L 15.167969 14.574219 L 16.789062 12.144531 L 21.160156 12.726562 L 17.152344 18.699219 L 16.175781 24.410156 L 12.113281 23.734375 L 12.8125 18.613281 M 9.539062 11.152344 "/>
</g>
</g>
<g clip-path="url(#clip5)" clip-rule="nonzero">
<g clip-path="url(#clip6)" clip-rule="nonzero">
<path style=" stroke:none;fill-rule:evenodd;fill:rgb(87.058824%,32.549021%,15.686275%);fill-opacity:1;" d="M 19.113281 7.597656 L 22.902344 8.355469 L 23.71875 10.921875 L 25.386719 8.941406 L 29.542969 9.859375 L 25.820312 14.195312 L 27.921875 20.65625 L 23.449219 20.199219 L 22.652344 16.695312 L 20.628906 19.574219 L 17.144531 18.449219 L 20.640625 13.285156 M 19.097656 7.597656 "/>
</g>
</g>
</g>
</svg>
