
<svg xmlns="http://www.w3.org/2000/svg" xmlns:xlink="http://www.w3.org/1999/xlink" width="32px" height="32px" viewBox="0 0 32 32" version="1.1">
<g id="surface1">
<path style="fill-rule:nonzero;fill:rgb(100%,100%,100%);fill-opacity:1;stroke-width:28.191782;stroke-linecap:butt;stroke-linejoin:miter;stroke:rgb(18.039216%,18.039216%,78.431374%);stroke-opacity:1;stroke-miterlimit:4;" d="M 81.5 25.0625 L 430.5 25.0625 C 461.6875 25.0625 486.9375 50.3125 486.9375 81.5 L 486.9375 430.5 C 486.9375 461.6875 461.6875 486.9375 430.5 486.9375 L 81.5 486.9375 C 50.3125 486.9375 25.0625 461.6875 25.0625 430.5 L 25.0625 81.5 C 25.0625 50.3125 50.3125 25.0625 81.5 25.0625 Z M 81.5 25.0625 " transform="matrix(0.0625,0,0,0.0625,0,0)"/>
<path style=" stroke:none;fill-rule:nonzero;fill:rgb(18.039216%,18.039216%,78.431374%);fill-opacity:1;" d="M 14.953125 28.527344 C 12.597656 28.285156 10.53125 27.488281 8.625 26.078125 C 7.925781 25.5625 6.613281 24.25 6.121094 23.582031 C 4.847656 21.832031 4.09375 20.035156 3.769531 17.972656 C 3.636719 17.113281 3.636719 15.125 3.769531 14.296875 C 4.128906 12.066406 5.042969 10 6.425781 8.292969 C 6.921875 7.679688 8.007812 6.636719 8.652344 6.160156 C 11.949219 3.707031 16.117188 3.046875 20.050781 4.347656 C 24.085938 5.683594 27.171875 9.050781 28.191406 13.226562 C 28.644531 15.089844 28.628906 17.347656 28.148438 19.222656 C 26.980469 23.785156 23.230469 27.371094 18.648438 28.304688 C 18.265625 28.382812 17.707031 28.472656 17.40625 28.503906 C 16.902344 28.558594 15.40625 28.574219 14.953125 28.527344 Z M 16.796875 25.144531 C 18.953125 24.957031 20.820312 24.117188 22.332031 22.660156 C 23.976562 21.082031 24.894531 19.160156 25.101562 16.875 C 25.296875 14.714844 24.632812 12.417969 23.308594 10.671875 C 22.929688 10.175781 22.097656 9.332031 21.617188 8.964844 C 19.804688 7.574219 17.566406 6.914062 15.355469 7.113281 C 11.0625 7.5 7.675781 10.738281 7.109375 14.988281 C 7.011719 15.710938 7.070312 17.253906 7.21875 17.941406 C 8.070312 21.910156 11.316406 24.785156 15.34375 25.144531 C 16.042969 25.207031 16.097656 25.207031 16.796875 25.144531 Z M 14.363281 21.328125 C 14.347656 21.289062 14.34375 18.585938 14.351562 15.320312 L 14.363281 9.382812 L 17.667969 9.382812 L 17.667969 21.367188 L 16.03125 21.382812 C 14.75 21.394531 14.386719 21.382812 14.363281 21.328125 Z M 9.492188 21.214844 C 9.476562 21.175781 9.472656 19.582031 9.480469 17.671875 L 9.492188 14.199219 L 12.964844 14.199219 L 12.964844 21.253906 L 11.242188 21.269531 C 9.894531 21.28125 9.511719 21.269531 9.492188 21.214844 Z M 19.066406 21.214844 C 19.050781 21.175781 19.046875 19.566406 19.054688 17.644531 L 19.070312 14.144531 L 22.429688 14.144531 L 22.429688 21.253906 L 20.761719 21.269531 C 19.457031 21.28125 19.089844 21.269531 19.066406 21.214844 Z M 19.066406 21.214844 "/>
</g>
</svg>
