
<svg xmlns="http://www.w3.org/2000/svg" xmlns:xlink="http://www.w3.org/1999/xlink" width="32px" height="32px" viewBox="0 0 32 32" version="1.1">
<g id="surface1">
<path style="fill-rule:nonzero;fill:rgb(100%,100%,100%);fill-opacity:1;stroke-width:6.975355;stroke-linecap:butt;stroke-linejoin:miter;stroke:rgb(11.764706%,52.941179%,74.117649%);stroke-opacity:1;stroke-miterlimit:4;" d="M 20.828125 931.221598 L 107.171875 931.221598 C 114.890625 931.221598 121.140625 937.471598 121.140625 945.190348 L 121.140625 1031.534098 C 121.140625 1039.252848 114.890625 1045.502848 107.171875 1045.502848 L 20.828125 1045.502848 C 13.109375 1045.502848 6.859375 1039.252848 6.859375 1031.534098 L 6.859375 945.190348 C 6.859375 937.471598 13.109375 931.221598 20.828125 931.221598 Z M 20.828125 931.221598 " transform="matrix(0.25,0,0,0.25,0,-231.090556)"/>
<path style=" stroke:none;fill-rule:nonzero;fill:rgb(11.764706%,52.941179%,74.117649%);fill-opacity:1;" d="M 15.996094 4.292969 C 22.53125 4.292969 27.828125 9.585938 27.828125 16.121094 C 27.828125 22.652344 22.53125 27.949219 15.996094 27.949219 C 9.464844 27.949219 4.167969 22.652344 4.167969 16.121094 C 4.167969 9.585938 9.464844 4.292969 15.996094 4.292969 Z M 15.996094 4.292969 "/>
<path style=" stroke:none;fill-rule:nonzero;fill:rgb(95.686275%,95.686275%,93.725491%);fill-opacity:1;" d="M 13.539062 4.550781 C 13.53125 4.550781 13.523438 4.550781 13.519531 4.550781 C 13.039062 4.652344 12.578125 4.792969 12.121094 4.949219 C 12.113281 4.980469 12.097656 5.011719 12.101562 5.035156 C 12.132812 5.148438 12.34375 5.066406 12.398438 5.175781 C 12.386719 5.304688 12.246094 5.371094 12.132812 5.425781 C 12.027344 5.480469 11.894531 5.613281 11.785156 5.542969 C 11.738281 5.433594 11.910156 5.429688 11.871094 5.332031 C 11.839844 5.261719 11.707031 5.308594 11.644531 5.238281 C 11.621094 5.207031 11.613281 5.167969 11.613281 5.132812 C 7.589844 6.730469 4.664062 10.460938 4.226562 14.949219 C 4.273438 14.964844 4.332031 14.972656 4.378906 14.992188 C 4.457031 15.027344 4.515625 15.105469 4.601562 15.152344 C 4.710938 15.207031 4.855469 15.238281 4.984375 15.296875 C 5.109375 15.355469 5.277344 15.433594 5.378906 15.4375 C 5.476562 15.4375 5.582031 15.332031 5.695312 15.332031 C 5.953125 15.324219 6.066406 15.660156 6.277344 15.765625 C 6.328125 15.792969 6.398438 15.792969 6.464844 15.808594 C 6.523438 15.816406 6.5625 15.839844 6.617188 15.859375 C 6.730469 15.898438 6.863281 15.894531 6.957031 15.933594 C 7.089844 15.992188 7.1875 16.246094 7.304688 16.316406 C 7.308594 16.382812 7.292969 16.476562 7.316406 16.527344 C 7.371094 16.601562 7.449219 16.582031 7.535156 16.632812 C 7.644531 16.691406 7.679688 16.839844 7.78125 16.886719 C 7.816406 16.902344 7.902344 16.902344 7.960938 16.917969 C 8.101562 16.960938 8.144531 17.121094 8.269531 17.085938 C 8.347656 17.0625 8.339844 16.984375 8.351562 16.910156 C 8.402344 16.851562 8.460938 16.761719 8.542969 16.757812 C 8.675781 16.757812 8.683594 16.894531 8.734375 17.023438 C 8.761719 17.097656 8.832031 17.160156 8.851562 17.238281 C 8.882812 17.367188 8.867188 17.761719 8.839844 17.839844 C 8.808594 17.933594 8.675781 17.976562 8.597656 18.082031 C 8.558594 18.132812 8.542969 18.207031 8.511719 18.242188 C 8.460938 18.304688 8.378906 18.320312 8.339844 18.378906 C 8.320312 18.410156 8.300781 18.484375 8.277344 18.527344 C 8.214844 18.660156 8.128906 18.757812 8.183594 18.917969 C 8.207031 18.988281 8.308594 19.035156 8.308594 19.113281 C 8.308594 19.203125 8.113281 19.285156 8.097656 19.386719 C 8.085938 19.460938 8.160156 19.597656 8.183594 19.691406 C 8.199219 19.769531 8.339844 19.816406 8.382812 19.863281 C 8.457031 19.945312 8.519531 20.066406 8.585938 20.167969 C 8.722656 20.375 8.824219 20.625 8.957031 20.824219 C 9.023438 20.929688 9.121094 21.027344 9.167969 21.132812 C 9.191406 21.191406 9.191406 21.253906 9.210938 21.300781 C 9.285156 21.472656 9.621094 21.652344 9.792969 21.738281 C 9.875 21.777344 9.964844 21.792969 10.035156 21.832031 C 10.148438 21.894531 10.371094 22.0625 10.429688 22.160156 C 10.480469 22.25 10.511719 22.464844 10.535156 22.605469 C 10.566406 22.792969 10.535156 22.933594 10.542969 23.136719 C 10.550781 23.246094 10.585938 23.355469 10.585938 23.464844 C 10.589844 23.503906 10.566406 23.53125 10.566406 23.570312 C 10.5625 23.699219 10.597656 23.847656 10.585938 23.980469 C 10.582031 24.054688 10.558594 24.113281 10.566406 24.171875 C 10.574219 24.238281 10.601562 24.296875 10.605469 24.355469 C 10.613281 24.417969 10.589844 24.496094 10.597656 24.542969 C 10.613281 24.675781 10.710938 24.78125 10.738281 24.902344 C 10.757812 25 10.769531 25.199219 10.757812 25.316406 C 10.75 25.378906 10.714844 25.441406 10.703125 25.507812 C 10.695312 25.558594 10.710938 25.617188 10.703125 25.667969 C 10.691406 25.738281 10.644531 25.800781 10.652344 25.867188 C 10.660156 26.011719 10.816406 26.128906 10.839844 26.269531 C 10.847656 26.316406 10.828125 26.371094 10.832031 26.417969 C 10.835938 26.503906 10.875 26.582031 10.894531 26.660156 C 10.902344 26.703125 10.90625 26.75 10.910156 26.792969 C 10.960938 26.816406 11.011719 26.84375 11.0625 26.867188 C 11.050781 26.824219 11.042969 26.785156 11.074219 26.757812 C 11.144531 26.777344 11.171875 26.847656 11.183594 26.925781 C 11.597656 27.109375 12.019531 27.277344 12.460938 27.414062 C 12.523438 27.371094 12.605469 27.339844 12.621094 27.253906 C 12.636719 27.191406 12.601562 27.164062 12.597656 27.066406 C 12.621094 26.960938 12.738281 26.945312 12.757812 26.839844 C 12.714844 26.765625 12.613281 26.816406 12.546875 26.777344 C 12.480469 26.738281 12.453125 26.65625 12.460938 26.574219 C 12.574219 26.527344 12.785156 26.691406 12.863281 26.535156 C 12.902344 26.460938 12.820312 26.28125 12.875 26.207031 C 12.910156 26.15625 13.113281 26.15625 13.191406 26.144531 C 13.304688 26.121094 13.433594 26.097656 13.5 26.058594 C 13.566406 26.011719 13.671875 25.878906 13.660156 25.75 C 13.652344 25.6875 13.609375 25.667969 13.5625 25.613281 C 13.523438 25.566406 13.507812 25.507812 13.480469 25.464844 C 13.429688 25.390625 13.351562 25.402344 13.332031 25.292969 C 13.480469 25.265625 13.714844 25.421875 13.933594 25.359375 C 14.039062 25.328125 14.183594 25.105469 14.230469 25.007812 C 14.246094 24.980469 14.246094 24.929688 14.261719 24.894531 C 14.28125 24.851562 14.320312 24.820312 14.324219 24.800781 C 14.339844 24.738281 14.332031 24.695312 14.347656 24.660156 C 14.386719 24.550781 14.484375 24.519531 14.550781 24.4375 C 14.597656 24.378906 14.621094 24.308594 14.664062 24.246094 C 14.714844 24.179688 14.761719 24.125 14.792969 24.066406 C 14.824219 23.875 14.714844 23.738281 14.761719 23.570312 C 14.808594 23.378906 15.074219 23.261719 15.257812 23.175781 C 15.320312 23.144531 15.386719 23.097656 15.4375 23.082031 C 15.566406 23.035156 15.722656 23.0625 15.839844 23.019531 C 16.039062 22.945312 16.058594 22.734375 16.160156 22.550781 C 16.203125 22.464844 16.265625 22.378906 16.273438 22.320312 C 16.285156 22.261719 16.253906 22.214844 16.261719 22.152344 C 16.273438 22.085938 16.332031 22.027344 16.347656 21.957031 C 16.371094 21.867188 16.378906 21.730469 16.378906 21.628906 C 16.378906 21.546875 16.339844 21.472656 16.339844 21.398438 C 16.324219 21.125 16.4375 21.089844 16.539062 20.941406 C 16.589844 20.867188 16.609375 20.785156 16.644531 20.730469 C 16.816406 20.476562 17.113281 20.355469 17.089844 19.96875 C 17.082031 19.839844 17.003906 19.554688 16.910156 19.511719 C 16.855469 19.488281 16.734375 19.511719 16.65625 19.480469 C 16.40625 19.386719 16.257812 19.078125 16 19.058594 C 15.945312 19.050781 15.890625 19.082031 15.832031 19.078125 C 15.726562 19.078125 15.574219 19.007812 15.457031 18.992188 C 15.386719 18.984375 15.292969 19.015625 15.246094 18.992188 C 15.179688 18.960938 15.175781 18.839844 15.121094 18.804688 C 15.078125 18.777344 14.996094 18.765625 14.929688 18.738281 C 14.824219 18.699219 14.742188 18.652344 14.621094 18.644531 C 14.585938 18.644531 14.539062 18.660156 14.496094 18.652344 C 14.429688 18.644531 14.378906 18.566406 14.316406 18.527344 C 14.238281 18.480469 14.167969 18.457031 14.136719 18.390625 C 14.207031 18.160156 14.011719 18.097656 13.964844 17.964844 C 13.941406 17.90625 13.953125 17.832031 13.933594 17.777344 C 13.90625 17.695312 13.828125 17.652344 13.742188 17.585938 C 13.589844 17.46875 13.453125 17.355469 13.234375 17.332031 C 13.136719 17.316406 13.042969 17.359375 12.925781 17.351562 C 12.804688 17.347656 12.652344 17.234375 12.558594 17.128906 C 12.46875 17.027344 12.425781 16.9375 12.347656 16.886719 C 12.269531 16.839844 12.171875 16.839844 12.121094 16.792969 C 12.097656 16.769531 12.105469 16.734375 12.082031 16.683594 C 12.042969 16.609375 11.980469 16.566406 12.027344 16.472656 C 11.941406 16.429688 11.941406 16.550781 11.847656 16.535156 C 11.765625 16.417969 11.695312 16.363281 11.507812 16.398438 C 11.425781 16.414062 11.375 16.523438 11.277344 16.527344 C 11.191406 16.527344 11.128906 16.433594 11.019531 16.417969 C 10.941406 16.410156 10.847656 16.441406 10.789062 16.429688 C 10.699219 16.414062 10.667969 16.335938 10.585938 16.285156 C 10.527344 16.242188 10.410156 16.175781 10.375 16.175781 C 10.269531 16.183594 10.195312 16.402344 10.046875 16.324219 C 9.976562 16.234375 10.164062 16.1875 10.078125 16.101562 C 10.015625 16.039062 9.960938 16.128906 9.910156 16.167969 C 9.851562 16.207031 9.792969 16.246094 9.730469 16.273438 C 9.582031 16.328125 9.492188 16.296875 9.378906 16.355469 C 9.273438 16.410156 9.269531 16.503906 9.210938 16.613281 C 9.160156 16.699219 9.050781 16.828125 8.976562 16.832031 C 8.886719 16.839844 8.800781 16.707031 8.722656 16.675781 C 8.480469 16.570312 8.363281 16.765625 8.160156 16.769531 C 7.972656 16.769531 7.707031 16.46875 7.714844 16.292969 C 7.722656 16.183594 7.777344 16.023438 7.792969 15.890625 C 7.800781 15.785156 7.875 15.722656 7.875 15.625 C 7.878906 15.496094 7.707031 15.398438 7.621094 15.382812 C 7.425781 15.347656 7.152344 15.464844 6.925781 15.371094 C 6.878906 15.300781 6.972656 15.25 6.996094 15.179688 C 7.011719 15.140625 7.003906 15.089844 7.019531 15.042969 C 7.042969 14.976562 7.113281 14.925781 7.144531 14.851562 C 7.167969 14.800781 7.175781 14.71875 7.199219 14.652344 C 7.222656 14.574219 7.277344 14.527344 7.285156 14.472656 C 7.292969 14.402344 7.261719 14.316406 7.207031 14.269531 C 7.03125 14.277344 6.917969 14.289062 6.816406 14.332031 C 6.585938 14.4375 6.632812 14.746094 6.402344 14.820312 C 6.324219 14.847656 6.214844 14.847656 6.128906 14.863281 C 6.054688 14.878906 5.964844 14.917969 5.886719 14.917969 C 5.792969 14.917969 5.632812 14.828125 5.578125 14.769531 C 5.527344 14.714844 5.410156 14.457031 5.398438 14.410156 C 5.308594 14.097656 5.40625 13.808594 5.523438 13.59375 C 5.550781 13.546875 5.589844 13.503906 5.609375 13.457031 C 5.636719 13.382812 5.621094 13.269531 5.640625 13.191406 C 5.683594 13.042969 5.875 12.953125 6.011719 12.882812 C 6.167969 12.800781 6.296875 12.675781 6.476562 12.660156 C 6.566406 12.65625 6.699219 12.6875 6.785156 12.703125 C 6.863281 12.722656 6.929688 12.773438 6.996094 12.777344 C 7.191406 12.792969 7.238281 12.640625 7.398438 12.554688 C 7.566406 12.578125 7.675781 12.527344 7.824219 12.542969 C 7.925781 12.558594 7.996094 12.667969 8.078125 12.671875 C 8.144531 12.675781 8.203125 12.609375 8.269531 12.617188 C 8.332031 12.628906 8.4375 12.765625 8.449219 12.839844 C 8.460938 12.9375 8.378906 13.023438 8.40625 13.128906 C 8.503906 13.230469 8.6875 13.246094 8.832031 13.308594 C 8.921875 13.230469 8.839844 13.089844 8.832031 12.980469 C 8.824219 12.929688 8.835938 12.886719 8.832031 12.839844 C 8.820312 12.765625 8.785156 12.695312 8.785156 12.628906 C 8.785156 12.328125 9.027344 12.1875 9.230469 12.066406 C 9.320312 12.015625 9.386719 11.925781 9.464844 11.886719 C 9.570312 11.832031 9.652344 11.820312 9.738281 11.769531 C 9.902344 11.683594 10.035156 11.609375 10.164062 11.503906 C 10.222656 11.371094 10.167969 11.183594 10.175781 11.050781 C 10.230469 11.015625 10.285156 11.066406 10.34375 11.058594 C 10.441406 11.039062 10.449219 10.902344 10.503906 10.847656 C 10.535156 10.816406 10.621094 10.792969 10.660156 10.761719 C 10.757812 10.6875 10.789062 10.574219 10.871094 10.542969 C 10.902344 10.53125 10.972656 10.535156 11.019531 10.519531 C 11.082031 10.503906 11.175781 10.429688 11.277344 10.394531 C 11.339844 10.371094 11.496094 10.367188 11.519531 10.339844 C 11.550781 10.308594 11.519531 10.222656 11.527344 10.171875 C 11.582031 9.933594 11.941406 9.882812 12.152344 9.800781 C 12.304688 9.746094 12.457031 9.644531 12.621094 9.675781 C 12.589844 9.789062 12.433594 9.746094 12.460938 9.886719 C 12.496094 10.078125 12.753906 9.832031 12.820312 9.800781 C 12.949219 9.746094 13.171875 9.714844 13.339844 9.652344 C 13.488281 9.597656 13.753906 9.515625 13.617188 9.347656 C 13.5 9.339844 13.441406 9.480469 13.339844 9.527344 C 13.269531 9.535156 13.285156 9.464844 13.222656 9.460938 C 13.167969 9.457031 13.136719 9.515625 13.074219 9.503906 C 13.019531 9.496094 12.9375 9.402344 12.925781 9.335938 C 12.902344 9.160156 13.078125 9.085938 13.152344 8.957031 C 13.101562 8.792969 12.878906 8.921875 12.746094 8.855469 C 12.761719 8.761719 12.859375 8.699219 12.972656 8.679688 C 13.0625 8.664062 13.265625 8.671875 13.320312 8.71875 C 13.351562 8.746094 13.324219 8.8125 13.371094 8.855469 C 13.425781 8.90625 13.492188 8.902344 13.5625 8.890625 C 13.589844 8.769531 13.40625 8.800781 13.425781 8.71875 C 13.566406 8.628906 13.800781 8.703125 13.976562 8.679688 C 14.074219 8.664062 14.183594 8.589844 14.273438 8.542969 C 14.355469 8.492188 14.46875 8.40625 14.558594 8.488281 C 14.582031 8.574219 14.480469 8.601562 14.433594 8.644531 C 14.269531 8.789062 14.101562 8.957031 13.976562 9.121094 C 14.050781 9.199219 14.195312 9.160156 14.324219 9.175781 C 14.378906 9.179688 14.441406 9.199219 14.496094 9.207031 C 14.558594 9.21875 14.625 9.214844 14.675781 9.226562 C 14.761719 9.25 14.789062 9.347656 14.878906 9.347656 C 15.019531 9.347656 15.023438 9.1875 14.941406 9.089844 C 14.964844 8.988281 15.007812 8.9375 14.972656 8.867188 C 14.90625 8.738281 14.667969 8.867188 14.652344 8.699219 C 14.644531 8.59375 14.742188 8.597656 14.78125 8.519531 C 14.761719 8.316406 14.949219 8.300781 14.929688 8.117188 C 14.921875 8.039062 14.855469 8.039062 14.800781 7.96875 C 14.773438 7.933594 14.761719 7.859375 14.726562 7.832031 C 14.617188 7.738281 14.394531 7.753906 14.378906 7.574219 C 14.371094 7.472656 14.402344 7.382812 14.386719 7.269531 C 14.375 7.160156 14.300781 6.863281 14.207031 6.847656 C 14.089844 6.820312 13.96875 7.019531 13.828125 7.089844 C 13.75 7.125 13.640625 7.167969 13.5625 7.152344 C 13.511719 7.144531 13.410156 7.066406 13.402344 6.972656 C 13.394531 6.859375 13.480469 6.855469 13.5 6.738281 C 13.480469 6.667969 13.410156 6.683594 13.339844 6.632812 C 13.261719 6.574219 13.199219 6.449219 13.097656 6.433594 C 13.046875 6.425781 12.980469 6.472656 12.925781 6.472656 C 12.769531 6.484375 12.632812 6.371094 12.511719 6.402344 C 12.371094 6.433594 12.378906 6.652344 12.238281 6.699219 C 12.257812 6.800781 12.117188 6.871094 12.101562 6.949219 C 12.089844 7.003906 12.121094 7.070312 12.121094 7.121094 C 12.152344 7.628906 11.738281 7.863281 11.246094 7.851562 C 11.148438 7.945312 11.167969 8.117188 11.117188 8.242188 C 11.074219 8.347656 10.917969 8.464844 10.808594 8.457031 C 10.730469 8.449219 10.640625 8.339844 10.640625 8.265625 C 10.640625 8.175781 10.769531 8.125 10.691406 8.019531 C 10.707031 7.949219 10.859375 7.910156 10.839844 7.800781 C 10.820312 7.683594 10.660156 7.742188 10.511719 7.722656 C 10.40625 7.710938 10.269531 7.648438 10.175781 7.597656 C 10.050781 7.527344 9.941406 7.394531 9.78125 7.375 C 9.691406 7.363281 9.605469 7.40625 9.558594 7.355469 C 9.511719 7.296875 9.578125 7.210938 9.582031 7.171875 C 9.578125 7.109375 9.457031 7.089844 9.453125 7.027344 C 9.449219 6.980469 9.566406 6.839844 9.613281 6.800781 C 9.699219 6.730469 9.847656 6.652344 9.984375 6.578125 C 10.113281 6.507812 10.269531 6.433594 10.394531 6.390625 C 10.449219 6.371094 10.511719 6.378906 10.566406 6.359375 C 10.699219 6.308594 10.789062 6.214844 10.914062 6.175781 C 10.980469 6.160156 11.054688 6.160156 11.128906 6.144531 C 11.300781 6.105469 11.433594 5.980469 11.582031 5.957031 C 11.550781 6.078125 11.414062 6.097656 11.382812 6.21875 C 11.511719 6.453125 11.730469 6.164062 11.878906 6.167969 C 12.015625 6.167969 12.152344 6.359375 12.238281 6.175781 C 12.207031 6.078125 12.113281 6.019531 12.027344 5.964844 C 11.945312 5.910156 11.816406 5.867188 11.824219 5.753906 C 11.925781 5.707031 11.960938 5.828125 12.050781 5.828125 C 12.097656 5.828125 12.160156 5.769531 12.207031 5.753906 C 12.316406 5.714844 12.503906 5.703125 12.589844 5.628906 C 12.640625 5.582031 12.632812 5.503906 12.675781 5.445312 C 12.707031 5.394531 12.792969 5.378906 12.832031 5.332031 C 12.878906 5.269531 12.839844 5.214844 12.894531 5.183594 C 13.019531 5.128906 13.171875 5.195312 13.308594 5.183594 C 13.375 5.175781 13.417969 5.125 13.480469 5.128906 C 13.597656 5.136719 13.660156 5.328125 13.742188 5.382812 C 13.804688 5.421875 13.914062 5.421875 13.925781 5.496094 C 13.941406 5.652344 13.722656 5.664062 13.582031 5.742188 C 13.515625 5.78125 13.488281 5.871094 13.402344 5.902344 C 13.179688 5.988281 12.839844 5.808594 12.769531 6.050781 C 12.871094 6.203125 13.0625 6.039062 13.191406 6.039062 C 13.285156 6.039062 13.398438 6.125 13.457031 6.1875 C 13.503906 6.238281 13.523438 6.34375 13.582031 6.378906 C 13.625 6.402344 13.695312 6.394531 13.742188 6.410156 C 13.898438 6.457031 14.027344 6.542969 14.199219 6.503906 C 14.257812 6.402344 14.078125 6.375 14.144531 6.292969 C 14.261719 6.300781 14.332031 6.355469 14.421875 6.390625 C 14.542969 6.300781 14.628906 6.289062 14.621094 6.144531 C 14.621094 6.027344 14.460938 6.019531 14.464844 5.878906 C 14.464844 5.800781 14.519531 5.765625 14.582031 5.761719 C 14.714844 5.757812 14.753906 5.960938 14.855469 5.976562 C 14.917969 5.984375 15.09375 5.898438 15.128906 5.878906 C 15.183594 5.855469 15.335938 5.761719 15.339844 5.710938 C 15.347656 5.632812 15.179688 5.53125 15.097656 5.496094 C 14.984375 5.449219 14.871094 5.457031 14.824219 5.363281 C 14.800781 5.308594 14.839844 5.253906 14.792969 5.214844 C 14.785156 5.15625 14.863281 5.121094 14.847656 5.066406 C 14.828125 5.007812 14.765625 5.019531 14.683594 4.980469 C 14.628906 4.957031 14.574219 4.894531 14.527344 4.886719 C 14.460938 4.871094 14.394531 4.886719 14.347656 4.863281 C 14.160156 4.792969 14.195312 4.640625 14.074219 4.566406 C 13.910156 4.585938 13.773438 4.511719 13.660156 4.578125 C 13.621094 4.558594 13.582031 4.550781 13.539062 4.546875 Z M 13.523438 5.417969 C 13.417969 5.40625 13.28125 5.496094 13.300781 5.566406 C 13.328125 5.691406 13.628906 5.566406 13.605469 5.472656 C 13.585938 5.441406 13.558594 5.425781 13.523438 5.421875 Z M 14.097656 5.683594 C 14.109375 5.683594 14.125 5.6875 14.136719 5.695312 C 14.144531 5.746094 14.113281 5.761719 14.058594 5.753906 C 14.027344 5.714844 14.058594 5.683594 14.097656 5.683594 Z M 11.761719 6.347656 C 11.722656 6.339844 11.675781 6.339844 11.644531 6.363281 C 11.605469 6.386719 11.597656 6.425781 11.605469 6.449219 C 11.625 6.558594 11.839844 6.464844 11.835938 6.402344 C 11.835938 6.375 11.804688 6.355469 11.761719 6.347656 Z M 23 6.589844 C 22.988281 6.699219 23.027344 6.785156 23.042969 6.871094 C 23.050781 6.929688 23.03125 6.980469 23.050781 7.039062 C 23.085938 7.136719 23.226562 7.238281 23.359375 7.238281 C 23.472656 7.238281 23.566406 7.164062 23.660156 7.101562 C 23.449219 6.921875 23.222656 6.753906 23 6.589844 Z M 21.6875 7.070312 C 21.632812 7.144531 21.535156 7.113281 21.441406 7.144531 C 21.367188 7.171875 21.230469 7.300781 21.210938 7.347656 C 21.175781 7.421875 21.21875 7.503906 21.210938 7.621094 C 21.269531 7.648438 21.308594 7.765625 21.410156 7.824219 C 21.449219 7.84375 21.503906 7.835938 21.539062 7.855469 C 21.597656 7.886719 21.644531 7.964844 21.632812 8.023438 C 21.613281 8.109375 21.503906 8.085938 21.441406 8.152344 C 21.453125 8.277344 21.355469 8.292969 21.324219 8.371094 C 21.34375 8.425781 21.425781 8.417969 21.433594 8.480469 C 21.417969 8.546875 21.300781 8.558594 21.324219 8.628906 C 21.441406 8.714844 21.558594 8.609375 21.664062 8.597656 C 21.902344 8.566406 22.144531 8.625 22.289062 8.511719 C 22.269531 8.398438 22.410156 8.355469 22.394531 8.257812 C 22.386719 8.179688 22.261719 8.171875 22.203125 8.121094 C 22.175781 8.089844 22.167969 8.027344 22.132812 7.972656 C 22.089844 7.910156 22.007812 7.863281 21.960938 7.800781 C 21.898438 7.71875 21.769531 7.597656 21.769531 7.535156 C 21.773438 7.464844 21.859375 7.445312 21.875 7.347656 C 21.855469 7.253906 21.691406 7.316406 21.675781 7.21875 C 21.683594 7.160156 21.738281 7.148438 21.738281 7.082031 C 21.726562 7.074219 21.710938 7.066406 21.6875 7.070312 Z M 23.804688 7.324219 C 23.644531 7.402344 23.53125 7.378906 23.488281 7.503906 C 23.429688 7.664062 23.582031 7.78125 23.558594 7.929688 C 23.535156 8.082031 23.214844 8.027344 23.074219 8.054688 C 22.964844 8.074219 22.929688 8.207031 22.839844 8.308594 C 22.78125 8.382812 22.664062 8.460938 22.574219 8.5 C 22.53125 8.519531 22.480469 8.515625 22.4375 8.542969 C 22.378906 8.582031 22.355469 8.675781 22.289062 8.722656 C 22.242188 8.753906 22.054688 8.847656 22.003906 8.847656 C 21.945312 8.847656 21.886719 8.792969 21.847656 8.808594 C 21.78125 8.828125 21.789062 8.953125 21.71875 8.976562 C 21.578125 9.027344 21.34375 8.851562 21.292969 9.0625 C 21.355469 9.183594 21.507812 9.152344 21.613281 9.21875 C 21.679688 9.261719 21.816406 9.445312 21.835938 9.515625 C 21.847656 9.578125 21.828125 9.8125 21.800781 9.878906 C 21.738281 10.046875 21.582031 9.988281 21.390625 9.980469 C 21.335938 9.980469 21.28125 9.996094 21.230469 9.992188 C 20.902344 9.972656 20.574219 9.855469 20.425781 10.089844 C 20.4375 10.269531 20.476562 10.386719 20.4375 10.542969 C 20.410156 10.660156 20.304688 10.761719 20.308594 10.863281 C 20.3125 10.914062 20.371094 10.960938 20.382812 11.03125 C 20.390625 11.066406 20.367188 11.144531 20.382812 11.179688 C 20.4375 11.285156 20.585938 11.195312 20.679688 11.210938 C 20.773438 11.226562 20.882812 11.363281 20.882812 11.464844 C 20.878906 11.539062 20.808594 11.660156 20.761719 11.730469 C 20.671875 11.871094 20.546875 11.878906 20.414062 11.953125 C 20.304688 12.015625 20.257812 12.121094 20.191406 12.230469 C 20.121094 12.347656 20.082031 12.417969 20.109375 12.589844 C 20.011719 12.777344 19.871094 12.890625 19.675781 12.980469 C 19.617188 13.003906 19.535156 13.015625 19.484375 13.054688 C 19.441406 13.085938 19.417969 13.167969 19.355469 13.234375 C 19.28125 13.316406 19.207031 13.351562 19.167969 13.414062 C 19.136719 13.464844 19.125 13.558594 19.089844 13.625 C 19.046875 13.714844 18.949219 13.757812 18.890625 13.847656 C 18.863281 13.890625 18.847656 13.972656 18.816406 14.027344 C 18.75 14.152344 18.636719 14.238281 18.648438 14.347656 C 18.660156 14.449219 18.777344 14.46875 18.785156 14.558594 C 18.789062 14.609375 18.75 14.640625 18.753906 14.695312 C 18.753906 14.777344 18.808594 14.832031 18.816406 14.894531 C 18.832031 15.054688 18.761719 15.117188 18.730469 15.222656 C 18.71875 15.277344 18.722656 15.332031 18.710938 15.375 C 18.683594 15.453125 18.574219 15.523438 18.574219 15.617188 C 18.574219 15.683594 18.640625 15.738281 18.648438 15.828125 C 18.652344 15.894531 18.613281 15.960938 18.625 16.019531 C 18.648438 16.132812 18.855469 16.269531 18.941406 16.359375 C 19.0625 16.480469 19.21875 16.570312 19.269531 16.699219 C 19.316406 16.804688 19.316406 16.945312 19.398438 17.027344 C 19.460938 17.085938 19.5625 17.121094 19.644531 17.183594 C 19.714844 17.242188 19.796875 17.292969 19.875 17.355469 C 20.003906 17.457031 20.199219 17.65625 20.402344 17.640625 C 20.511719 17.632812 20.621094 17.542969 20.742188 17.523438 C 20.867188 17.5 21.03125 17.488281 21.15625 17.503906 C 21.253906 17.511719 21.351562 17.570312 21.453125 17.566406 C 21.558594 17.558594 21.683594 17.480469 21.800781 17.425781 C 22.011719 17.335938 22.324219 17.214844 22.628906 17.261719 C 22.863281 17.292969 22.847656 17.558594 23.011719 17.660156 C 23.195312 17.675781 23.347656 17.589844 23.496094 17.628906 C 23.609375 17.65625 23.738281 17.824219 23.75 17.914062 C 23.761719 18.003906 23.699219 18.144531 23.6875 18.199219 C 23.660156 18.324219 23.65625 18.472656 23.636719 18.550781 C 23.617188 18.609375 23.570312 18.648438 23.570312 18.710938 C 23.574219 18.765625 23.640625 18.902344 23.699219 18.972656 C 23.769531 19.0625 23.878906 19.132812 23.964844 19.230469 C 24.121094 19.40625 24.183594 19.621094 24.292969 19.855469 C 24.332031 19.9375 24.40625 20.070312 24.40625 20.160156 C 24.410156 20.226562 24.371094 20.285156 24.375 20.351562 C 24.390625 20.492188 24.480469 20.554688 24.492188 20.679688 C 24.527344 20.972656 24.261719 21.0625 24.207031 21.304688 C 24.195312 21.363281 24.207031 21.421875 24.195312 21.472656 C 24.175781 21.550781 24.121094 21.613281 24.109375 21.683594 C 24.097656 21.761719 24.082031 21.90625 24.089844 21.980469 C 24.101562 22.097656 24.222656 22.199219 24.28125 22.300781 C 24.34375 22.40625 24.394531 22.585938 24.472656 22.722656 C 24.511719 22.800781 24.582031 22.863281 24.597656 22.925781 C 24.621094 23.003906 24.597656 23.113281 24.609375 23.210938 C 24.621094 23.289062 24.660156 23.355469 24.671875 23.421875 C 24.707031 23.617188 24.714844 23.8125 24.808594 23.972656 C 24.816406 23.980469 24.824219 23.988281 24.824219 23.992188 C 26.6875 21.902344 27.828125 19.152344 27.828125 16.121094 C 27.828125 14.824219 27.613281 13.585938 27.234375 12.421875 C 27.097656 12.390625 26.949219 12.300781 26.792969 12.28125 C 26.746094 12.277344 26.691406 12.289062 26.652344 12.28125 C 26.605469 12.269531 26.566406 12.210938 26.515625 12.195312 C 26.425781 12.167969 26.359375 12.183594 26.28125 12.164062 C 26.175781 11.980469 25.648438 11.96875 25.605469 12.238281 C 25.582031 12.355469 25.667969 12.527344 25.488281 12.546875 C 25.375 12.558594 25.261719 12.433594 25.105469 12.398438 C 25.042969 12.382812 24.957031 12.390625 24.90625 12.375 C 24.789062 12.335938 24.804688 12.222656 24.703125 12.152344 C 24.644531 12.113281 24.5 12.058594 24.40625 12.046875 C 24.351562 12.042969 24.300781 12.066406 24.238281 12.058594 C 24.167969 12.050781 24.066406 12 24.003906 11.964844 C 23.949219 11.929688 23.832031 11.875 23.816406 11.824219 C 23.792969 11.746094 23.957031 11.660156 23.964844 11.589844 C 23.96875 11.542969 23.902344 11.511719 23.886719 11.433594 C 23.882812 11.386719 23.910156 11.339844 23.902344 11.308594 C 23.886719 11.253906 23.792969 11.191406 23.707031 11.191406 C 23.632812 11.191406 23.5625 11.253906 23.496094 11.253906 C 23.402344 11.253906 23.253906 11.203125 23.136719 11.210938 C 23.066406 11.214844 23.003906 11.257812 22.933594 11.265625 C 22.75 11.277344 22.601562 11.253906 22.460938 11.265625 C 22.355469 11.269531 22.175781 11.304688 22.078125 11.347656 C 22.027344 11.371094 21.992188 11.421875 21.929688 11.453125 C 21.902344 11.46875 21.863281 11.46875 21.824219 11.488281 C 21.761719 11.511719 21.699219 11.578125 21.644531 11.59375 C 21.558594 11.613281 21.433594 11.574219 21.285156 11.582031 C 21.175781 11.589844 21 11.589844 20.996094 11.453125 C 20.996094 11.257812 21.332031 11.332031 21.515625 11.296875 C 21.585938 11.285156 21.625 11.21875 21.707031 11.167969 C 21.746094 11.144531 21.796875 11.140625 21.835938 11.113281 C 21.898438 11.070312 21.996094 10.964844 22.003906 10.914062 C 22.011719 10.867188 21.976562 10.800781 21.980469 10.765625 C 21.988281 10.722656 22.042969 10.675781 22.097656 10.617188 C 22.1875 10.527344 22.285156 10.410156 22.394531 10.355469 C 22.472656 10.3125 22.574219 10.316406 22.605469 10.257812 C 22.613281 10.191406 22.597656 10.152344 22.597656 10.089844 C 22.644531 10.046875 22.675781 10.011719 22.714844 10.003906 C 22.828125 9.980469 22.941406 10.082031 23.074219 10.078125 C 23.128906 10.078125 23.183594 10.035156 23.242188 9.992188 C 23.292969 9.957031 23.351562 9.933594 23.402344 9.910156 C 23.457031 9.878906 23.515625 9.816406 23.582031 9.8125 C 23.75 9.800781 23.8125 9.988281 23.886719 10.089844 C 23.953125 10.171875 24.136719 10.316406 24.238281 10.375 C 24.296875 10.40625 24.375 10.410156 24.441406 10.4375 C 24.578125 10.5 24.847656 10.707031 24.851562 10.839844 C 24.855469 10.910156 24.789062 10.957031 24.800781 11.019531 C 24.902344 11.039062 25.019531 10.925781 25.023438 10.820312 C 25.023438 10.753906 24.957031 10.71875 24.972656 10.652344 C 25.019531 10.542969 25.160156 10.652344 25.222656 10.605469 C 25.210938 10.488281 25.050781 10.480469 24.949219 10.417969 C 24.894531 10.386719 24.855469 10.3125 24.800781 10.289062 C 24.71875 10.253906 24.628906 10.265625 24.566406 10.214844 C 24.507812 10.167969 24.476562 10.0625 24.417969 9.992188 C 24.332031 9.890625 24.144531 9.875 24.195312 9.644531 C 24.222656 9.609375 24.285156 9.554688 24.324219 9.570312 C 24.402344 9.589844 24.394531 9.65625 24.449219 9.699219 C 24.492188 9.726562 24.550781 9.722656 24.597656 9.75 C 24.652344 9.785156 24.683594 9.878906 24.746094 9.929688 C 24.835938 10.003906 24.992188 10.0625 25.117188 10.121094 C 25.234375 10.175781 25.421875 10.253906 25.445312 10.355469 C 25.457031 10.410156 25.425781 10.472656 25.433594 10.523438 C 25.445312 10.585938 25.488281 10.652344 25.519531 10.691406 C 25.601562 10.804688 25.714844 10.90625 25.808594 11.042969 C 25.804688 11.230469 25.871094 11.34375 26.082031 11.316406 C 26.15625 11.277344 26.117188 11.222656 26.175781 11.160156 C 26.230469 11.097656 26.355469 11.105469 26.355469 11.019531 C 26.355469 10.886719 26.039062 10.867188 26.082031 10.671875 C 26.09375 10.609375 26.164062 10.636719 26.21875 10.640625 C 26.265625 10.585938 26.339844 10.523438 26.417969 10.5 C 25.917969 9.570312 25.289062 8.722656 24.566406 7.964844 C 24.550781 7.964844 24.539062 7.972656 24.523438 7.972656 C 24.445312 7.972656 24.363281 7.875 24.238281 7.875 C 24.175781 7.875 24.125 7.921875 24.058594 7.929688 C 23.972656 7.9375 23.839844 7.902344 23.847656 7.832031 C 23.855469 7.730469 23.996094 7.816406 24.078125 7.800781 C 24.183594 7.785156 24.160156 7.699219 24.230469 7.683594 C 24.257812 7.679688 24.289062 7.691406 24.324219 7.707031 C 24.269531 7.652344 24.210938 7.605469 24.15625 7.554688 C 24.097656 7.609375 23.949219 7.632812 23.867188 7.632812 C 23.859375 7.535156 23.882812 7.378906 23.804688 7.324219 Z M 20.957031 7.730469 C 20.917969 7.738281 20.875 7.746094 20.839844 7.769531 C 20.757812 7.816406 20.730469 7.894531 20.667969 7.917969 C 20.582031 7.949219 20.523438 7.925781 20.511719 8.003906 C 20.5 8.066406 20.566406 8.097656 20.566406 8.160156 C 20.535156 8.238281 20.441406 8.261719 20.425781 8.355469 C 20.53125 8.527344 20.792969 8.371094 20.925781 8.332031 C 20.984375 8.3125 21.070312 8.316406 21.105469 8.269531 C 21.140625 8.214844 21.105469 8.113281 21.136719 8.035156 C 21.164062 7.945312 21.253906 7.933594 21.242188 7.855469 C 21.230469 7.777344 21.089844 7.71875 20.957031 7.730469 Z M 7.980469 8.035156 C 8.179688 7.988281 8.097656 8.339844 7.980469 8.339844 C 7.816406 8.347656 7.847656 8.066406 7.980469 8.035156 Z M 9.316406 8.964844 C 9.410156 8.992188 9.664062 9.269531 9.453125 9.359375 C 9.433594 9.367188 9.144531 9.398438 9.09375 9.390625 C 9.019531 9.378906 8.976562 9.277344 8.902344 9.261719 C 8.757812 9.238281 8.558594 9.441406 8.457031 9.273438 C 8.484375 9.179688 8.589844 9.175781 8.699219 9.144531 C 8.902344 9.089844 9.144531 8.921875 9.316406 8.964844 Z M 9.71875 9.472656 C 9.769531 9.480469 9.828125 9.535156 9.886719 9.539062 C 9.945312 9.542969 9.992188 9.507812 10.027344 9.515625 C 10.113281 9.539062 10.152344 9.675781 10.066406 9.738281 C 10 9.746094 9.972656 9.710938 9.917969 9.71875 C 9.777344 9.746094 9.722656 10.023438 9.613281 10.015625 C 9.511719 10.003906 9.457031 9.761719 9.558594 9.6875 C 9.566406 9.621094 9.511719 9.613281 9.519531 9.546875 C 9.550781 9.507812 9.636719 9.464844 9.71875 9.472656 Z M 9.242188 9.507812 C 9.269531 9.507812 9.292969 9.511719 9.304688 9.527344 C 9.292969 9.640625 9.203125 9.632812 9.113281 9.6875 C 8.964844 9.777344 8.878906 9.917969 8.832031 10.109375 C 8.816406 10.167969 8.667969 10.316406 8.597656 10.300781 C 8.429688 10.265625 8.644531 9.957031 8.679688 9.910156 C 8.722656 9.855469 8.777344 9.808594 8.832031 9.75 C 8.878906 9.691406 8.910156 9.613281 8.957031 9.582031 C 9.007812 9.546875 9.152344 9.503906 9.242188 9.507812 Z M 10.496094 9.886719 C 10.550781 9.886719 10.597656 9.894531 10.617188 9.917969 C 10.582031 10.058594 10.285156 10.023438 10.175781 9.972656 C 10.179688 9.917969 10.261719 9.90625 10.332031 9.898438 C 10.382812 9.894531 10.441406 9.886719 10.496094 9.890625 Z M 9.808594 10.144531 C 9.847656 10.144531 9.882812 10.144531 9.917969 10.164062 C 9.824219 10.246094 9.714844 10.289062 9.550781 10.34375 C 9.46875 10.367188 9.332031 10.402344 9.316406 10.308594 C 9.300781 10.199219 9.433594 10.226562 9.507812 10.214844 C 9.597656 10.203125 9.699219 10.152344 9.808594 10.144531 Z M 23.609375 10.144531 C 23.542969 10.167969 23.507812 10.316406 23.613281 10.332031 C 23.660156 10.304688 23.699219 10.261719 23.6875 10.175781 C 23.660156 10.144531 23.636719 10.140625 23.613281 10.144531 Z M 23.582031 10.441406 C 23.550781 10.449219 23.511719 10.472656 23.476562 10.511719 C 23.480469 10.628906 23.488281 10.707031 23.464844 10.808594 C 23.535156 10.941406 23.683594 10.824219 23.71875 10.734375 C 23.761719 10.511719 23.683594 10.414062 23.582031 10.441406 Z M 24.488281 11.027344 C 24.394531 11.019531 24.304688 11.03125 24.25 11.074219 C 24.328125 11.199219 24.488281 11.246094 24.664062 11.277344 C 24.726562 11.230469 24.730469 11.121094 24.757812 11.042969 C 24.683594 11.042969 24.582031 11.03125 24.488281 11.027344 Z M 10.003906 16.527344 C 10.105469 16.480469 10.128906 16.671875 10.046875 16.6875 C 9.96875 16.699219 9.925781 16.5625 10.003906 16.527344 Z M 10.003906 16.527344 "/>
<path style=" stroke:none;fill-rule:nonzero;fill:rgb(93.725491%,48.235294%,53.725493%);fill-opacity:1;" d="M 16.042969 10.667969 C 14.90625 10.667969 13.769531 11.082031 12.90625 11.910156 C 11.171875 13.566406 11.171875 16.25 12.90625 17.90625 L 16.042969 20.90625 L 19.179688 17.90625 C 20.910156 16.25 20.910156 13.566406 19.179688 11.910156 C 18.3125 11.082031 17.175781 10.667969 16.042969 10.667969 Z M 16.042969 12.089844 C 16.722656 12.089844 17.40625 12.339844 17.925781 12.839844 C 18.964844 13.835938 18.964844 15.460938 17.925781 16.460938 C 16.886719 17.457031 15.199219 17.457031 14.160156 16.460938 C 13.121094 15.460938 13.121094 13.835938 14.160156 12.839844 C 14.675781 12.339844 15.359375 12.089844 16.042969 12.089844 Z M 16.042969 12.089844 "/>
</g>
</svg>
