
<svg xmlns="http://www.w3.org/2000/svg" xmlns:xlink="http://www.w3.org/1999/xlink" width="32px" height="32px" viewBox="0 0 32 32" version="1.1">
<g id="surface1">
<path style="fill-rule:nonzero;fill:rgb(92.156863%,92.156863%,92.156863%);fill-opacity:1;stroke-width:27.442497;stroke-linecap:butt;stroke-linejoin:miter;stroke:rgb(0%,65.882355%,83.137256%);stroke-opacity:1;stroke-miterlimit:4;" d="M 86.125 31.25 L 425.875 31.25 C 456.1875 31.25 480.75 55.8125 480.75 86.125 L 480.75 425.875 C 480.75 456.1875 456.1875 480.75 425.875 480.75 L 86.125 480.75 C 55.8125 480.75 31.25 456.1875 31.25 425.875 L 31.25 86.125 C 31.25 55.8125 55.8125 31.25 86.125 31.25 Z M 86.125 31.25 " transform="matrix(0.0625,0,0,0.0625,0,0)"/>
<path style=" stroke:none;fill-rule:nonzero;fill:rgb(0%,65.882355%,83.137256%);fill-opacity:1;" d="M 16.457031 6.457031 C 13.957031 6.457031 11.933594 8.480469 11.933594 10.980469 C 11.933594 12.566406 12.769531 14.039062 14.128906 14.855469 L 14.117188 14.855469 L 9.210938 22.832031 C 8.855469 23.144531 8.648438 23.480469 8.601562 23.824219 L 8.589844 23.84375 L 8.597656 23.84375 C 8.589844 23.886719 8.582031 23.933594 8.578125 23.980469 C 8.578125 25.605469 12.109375 26.917969 16.464844 26.917969 C 20.820312 26.917969 24.351562 25.605469 24.351562 23.980469 C 24.351562 23.914062 24.34375 23.84375 24.332031 23.777344 C 24.277344 23.480469 24.101562 23.191406 23.8125 22.917969 L 18.910156 14.785156 C 20.203125 13.953125 20.984375 12.519531 20.984375 10.980469 C 20.984375 8.480469 18.957031 6.457031 16.457031 6.457031 Z M 16.457031 6.457031 "/>
<path style=" stroke:none;fill-rule:nonzero;fill:rgb(100%,100%,100%);fill-opacity:1;" d="M 19.609375 22.953125 L 19.402344 22.785156 C 18.402344 23.390625 18.035156 23.527344 17.359375 23.527344 C 16.339844 23.527344 15.496094 23.078125 15.058594 22.308594 C 14.753906 21.785156 14.640625 21.347656 14.609375 20.433594 L 16.902344 20.433594 C 17.984375 20.433594 18.660156 20.390625 19.746094 20.214844 C 19.765625 19.996094 19.777344 19.859375 19.777344 19.671875 C 19.777344 17.859375 18.621094 16.683594 16.859375 16.683594 C 16.277344 16.683594 15.597656 16.890625 14.953125 17.265625 C 13.671875 18.003906 13.152344 18.972656 13.152344 20.609375 C 13.152344 21.597656 13.390625 22.441406 13.808594 23.046875 C 14.441406 23.871094 15.496094 24.359375 16.671875 24.359375 C 17.253906 24.359375 17.828125 24.234375 18.472656 23.953125 C 18.902344 23.777344 19.222656 23.578125 19.285156 23.484375 Z M 18.378906 19.859375 C 17.566406 19.890625 17.183594 19.902344 16.621094 19.902344 C 15.902344 19.902344 15.496094 19.890625 14.640625 19.808594 C 14.640625 19.066406 14.703125 18.722656 14.910156 18.316406 C 15.246094 17.628906 15.910156 17.203125 16.671875 17.203125 C 17.183594 17.203125 17.597656 17.410156 17.878906 17.828125 C 18.222656 18.347656 18.328125 18.808594 18.378906 19.859375 Z M 18.378906 19.859375 "/>
</g>
</svg>
