
<svg xmlns="http://www.w3.org/2000/svg" xmlns:xlink="http://www.w3.org/1999/xlink" width="32px" height="32px" viewBox="0 0 32 32" version="1.1">
<g id="surface1">
<path style="fill-rule:nonzero;fill:rgb(100%,100%,100%);fill-opacity:1;stroke-width:7.175204;stroke-linecap:butt;stroke-linejoin:miter;stroke:rgb(100%,0%,0%);stroke-opacity:1;stroke-miterlimit:4;" d="M 19.578125 5.234375 L 108.421875 5.234375 C 116.34375 5.234375 122.765625 11.65625 122.765625 19.578125 L 122.765625 108.421875 C 122.765625 116.34375 116.34375 122.765625 108.421875 122.765625 L 19.578125 122.765625 C 11.65625 122.765625 5.234375 116.34375 5.234375 108.421875 L 5.234375 19.578125 C 5.234375 11.65625 11.65625 5.234375 19.578125 5.234375 Z M 19.578125 5.234375 " transform="matrix(0.25,0,0,0.25,0,0)"/>
<path style=" stroke:none;fill-rule:nonzero;fill:rgb(100%,0%,0%);fill-opacity:1;" d="M 28.691406 16.082031 C 28.691406 23.085938 23.011719 28.761719 16.011719 28.761719 C 9.007812 28.761719 3.332031 23.085938 3.332031 16.082031 C 3.332031 9.078125 9.007812 3.402344 16.011719 3.402344 C 23.011719 3.402344 28.691406 9.078125 28.691406 16.082031 Z M 28.691406 16.082031 "/>
<path style=" stroke:none;fill-rule:evenodd;fill:rgb(100%,100%,100%);fill-opacity:1;" d="M 15.933594 7.863281 C 17.261719 7.863281 18.339844 9.226562 18.339844 10.910156 L 18.339844 16.082031 C 18.339844 17.765625 17.261719 19.128906 15.933594 19.128906 C 14.601562 19.128906 13.523438 17.765625 13.523438 16.082031 L 13.523438 10.910156 C 13.523438 9.226562 14.601562 7.863281 15.933594 7.863281 Z M 15.933594 7.863281 "/>
<path style=" stroke:none;fill-rule:evenodd;fill:rgb(100%,100%,100%);fill-opacity:1;" d="M 12.585938 25.371094 L 19.300781 25.390625 C 17.558594 23.273438 14.371094 23.304688 12.585938 25.371094 Z M 12.585938 25.371094 "/>
<path style=" stroke:none;fill-rule:evenodd;fill:rgb(100%,100%,100%);fill-opacity:1;" d="M 15.230469 21.417969 L 16.675781 21.417969 L 16.675781 23.890625 L 15.230469 23.890625 Z M 15.230469 21.417969 "/>
<path style=" stroke:none;fill-rule:evenodd;fill:rgb(100%,100%,100%);fill-opacity:1;" d="M 13.558594 10.382812 L 16.566406 10.386719 L 16.566406 11.210938 L 13.523438 11.207031 C 13.527344 10.957031 13.507812 10.769531 13.558594 10.382812 Z M 13.558594 10.382812 "/>
<path style=" stroke:none;fill-rule:evenodd;fill:rgb(100%,100%,100%);fill-opacity:1;" d="M 13.523438 12.136719 L 16.550781 12.132812 L 16.550781 12.957031 L 13.523438 12.957031 Z M 13.523438 12.136719 "/>
<path style=" stroke:none;fill-rule:evenodd;fill:rgb(100%,100%,100%);fill-opacity:1;" d="M 13.523438 13.902344 L 16.566406 13.902344 L 16.566406 14.726562 L 13.523438 14.730469 Z M 13.523438 13.902344 "/>
<path style=" stroke:none;fill-rule:evenodd;fill:rgb(100%,100%,100%);fill-opacity:1;" d="M 10.796875 16.679688 L 12.304688 16.671875 C 12.59375 21.582031 19.265625 21.550781 19.523438 16.671875 L 21.058594 16.683594 C 20.621094 23.785156 11.089844 23.523438 10.796875 16.679688 Z M 10.796875 16.679688 "/>
</g>
</svg>
