
<svg xmlns="http://www.w3.org/2000/svg" xmlns:xlink="http://www.w3.org/1999/xlink" width="32px" height="32px" viewBox="0 0 32 32" version="1.1">
<g id="surface1">
<path style="fill-rule:nonzero;fill:rgb(92.156863%,92.156863%,92.156863%);fill-opacity:1;stroke-width:27.389011;stroke-linecap:butt;stroke-linejoin:miter;stroke:rgb(59.215689%,85.09804%,31.764707%);stroke-opacity:1;stroke-miterlimit:4;" d="M 86.46045 31.674666 L 425.539723 31.674666 C 455.832286 31.674666 480.325457 56.167838 480.325457 86.4604 L 480.325457 425.539673 C 480.325457 455.832236 455.832286 480.325407 425.539723 480.325407 L 86.46045 480.325407 C 56.167888 480.325407 31.674716 455.832236 31.674716 425.539673 L 31.674716 86.4604 C 31.674716 56.167838 56.167888 31.674666 86.46045 31.674666 Z M 86.46045 31.674666 " transform="matrix(0.0633148,0,0,0.0633148,-0.208605,-0.208601)"/>
<path style=" stroke:none;fill-rule:nonzero;fill:rgb(59.215689%,85.09804%,31.764707%);fill-opacity:1;" d="M 16.445312 6.121094 C 13.238281 6.121094 10.382812 7.613281 8.53125 9.941406 L 9.871094 10.808594 C 11.433594 8.914062 13.796875 7.707031 16.445312 7.707031 C 21.152344 7.707031 24.96875 11.523438 24.96875 16.230469 C 24.96875 20.9375 21.152344 24.753906 16.445312 24.753906 C 13.761719 24.753906 11.367188 23.515625 9.804688 21.578125 L 8.46875 22.445312 C 10.320312 24.816406 13.203125 26.34375 16.445312 26.34375 C 22.03125 26.34375 26.558594 21.816406 26.558594 16.230469 C 26.558594 10.648438 22.03125 6.121094 16.445312 6.121094 Z M 16.445312 6.121094 "/>
<path style=" stroke:none;fill-rule:nonzero;fill:rgb(59.215689%,85.09804%,31.764707%);fill-opacity:1;" d="M 16.445312 9.664062 C 14.484375 9.664062 12.726562 10.523438 11.523438 11.882812 L 12.878906 12.761719 C 13.78125 11.832031 15.046875 11.253906 16.445312 11.253906 C 19.195312 11.253906 21.425781 13.480469 21.425781 16.230469 C 21.425781 18.980469 19.195312 21.210938 16.445312 21.210938 C 15.007812 21.210938 13.714844 20.601562 12.808594 19.628906 L 11.457031 20.503906 C 12.664062 21.910156 14.449219 22.800781 16.445312 22.800781 C 20.074219 22.800781 23.011719 19.859375 23.011719 16.230469 C 23.011719 12.605469 20.074219 9.664062 16.445312 9.664062 Z M 16.445312 9.664062 "/>
<path style=" stroke:none;fill-rule:evenodd;fill:rgb(59.215689%,85.09804%,31.764707%);fill-opacity:1;" d="M 5.949219 9.007812 L 16.976562 16.164062 L 6.09375 23.226562 Z M 5.949219 9.007812 "/>
</g>
</svg>
