
<svg xmlns="http://www.w3.org/2000/svg" xmlns:xlink="http://www.w3.org/1999/xlink" width="32px" height="32px" viewBox="0 0 32 32" version="1.1">
<g id="surface1">
<path style="fill-rule:nonzero;fill:rgb(100%,100%,100%);fill-opacity:1;stroke-width:2.647686;stroke-linecap:butt;stroke-linejoin:miter;stroke:rgb(45.490196%,78.431374%,95.686275%);stroke-opacity:1;stroke-miterlimit:4;" d="M 7.611328 1006.676636 L 40.388672 1006.676636 C 43.318359 1006.676636 45.685547 1009.043823 45.685547 1011.973511 L 45.685547 1044.750854 C 45.685547 1047.680542 43.318359 1050.047729 40.388672 1050.047729 L 7.611328 1050.047729 C 4.681641 1050.047729 2.314453 1047.680542 2.314453 1044.750854 L 2.314453 1011.973511 C 2.314453 1009.043823 4.681641 1006.676636 7.611328 1006.676636 Z M 7.611328 1006.676636 " transform="matrix(0.666667,0,0,0.666667,0,-669.574788)"/>
<path style=" stroke:none;fill-rule:nonzero;fill:rgb(45.490196%,78.431374%,95.686275%);fill-opacity:1;" d="M 15.753906 3.9375 C 22.332031 3.9375 27.667969 9.269531 27.667969 15.851562 C 27.667969 22.433594 22.332031 27.765625 15.753906 27.765625 C 9.171875 27.765625 3.839844 22.433594 3.839844 15.851562 C 3.839844 9.269531 9.171875 3.9375 15.753906 3.9375 Z M 15.753906 3.9375 "/>
<path style=" stroke:none;fill-rule:nonzero;fill:rgb(16.078432%,50.196081%,72.549021%);fill-opacity:1;" d="M 22.804688 19.679688 C 23.0625 19.679688 23.285156 19.644531 23.464844 19.566406 C 23.648438 19.484375 23.800781 19.375 23.917969 19.230469 C 24.042969 19.089844 24.140625 18.925781 24.210938 18.726562 C 24.277344 18.53125 24.328125 18.320312 24.355469 18.089844 L 24.425781 17.59375 L 25.285156 17.59375 L 25.203125 21.214844 L 16.347656 21.214844 L 16.347656 20.675781 L 19.792969 15.371094 L 16.714844 9.777344 L 16.714844 9.300781 L 24.476562 9.300781 L 24.558594 12.214844 L 23.691406 12.214844 L 23.613281 11.5 C 23.589844 11.316406 23.550781 11.140625 23.488281 10.976562 C 23.433594 10.816406 23.34375 10.675781 23.222656 10.554688 C 23.113281 10.429688 22.964844 10.332031 22.789062 10.261719 C 22.613281 10.183594 22.40625 10.144531 22.160156 10.144531 L 18.714844 10.144531 L 21.164062 14.589844 L 21.164062 14.839844 L 18.019531 19.683594 L 22.804688 19.683594 "/>
<path style=" stroke:none;fill-rule:nonzero;fill:rgb(16.078432%,50.196081%,72.549021%);fill-opacity:1;" d="M 9.722656 17.410156 C 9.722656 17.726562 9.769531 17.980469 9.859375 18.175781 C 9.953125 18.367188 10.089844 18.523438 10.277344 18.652344 C 10.460938 18.773438 10.691406 18.875 10.972656 18.957031 C 11.246094 19.035156 11.574219 19.117188 11.949219 19.207031 C 12.308594 19.289062 12.617188 19.382812 12.871094 19.488281 C 13.128906 19.597656 13.339844 19.722656 13.496094 19.871094 C 13.660156 20.015625 13.777344 20.183594 13.847656 20.371094 C 13.925781 20.5625 13.964844 20.78125 13.964844 21.027344 C 13.964844 21.292969 13.910156 21.554688 13.796875 21.816406 C 13.683594 22.078125 13.507812 22.324219 13.265625 22.550781 C 13.019531 22.785156 12.707031 22.992188 12.332031 23.171875 C 11.949219 23.355469 11.496094 23.496094 10.964844 23.597656 L 10.964844 22.800781 C 11.171875 22.742188 11.347656 22.675781 11.480469 22.597656 C 11.621094 22.519531 11.734375 22.433594 11.816406 22.332031 C 11.902344 22.242188 11.957031 22.140625 11.996094 22.027344 C 12.03125 21.921875 12.050781 21.808594 12.050781 21.683594 C 12.050781 21.535156 12.027344 21.40625 11.980469 21.300781 C 11.933594 21.195312 11.855469 21.105469 11.746094 21.027344 C 11.632812 20.957031 11.484375 20.890625 11.300781 20.832031 C 11.121094 20.777344 10.894531 20.722656 10.621094 20.664062 C 10.046875 20.546875 9.558594 20.410156 9.152344 20.246094 C 8.746094 20.089844 8.417969 19.890625 8.160156 19.65625 C 7.902344 19.425781 7.710938 19.148438 7.589844 18.832031 C 7.472656 18.519531 7.414062 18.148438 7.414062 17.722656 C 7.414062 17.332031 7.488281 16.957031 7.632812 16.609375 C 7.777344 16.257812 7.984375 15.933594 8.246094 15.636719 C 8.511719 15.339844 8.835938 15.066406 9.210938 14.824219 C 9.585938 14.578125 10.003906 14.367188 10.464844 14.1875 L 10.464844 14.09375 C 10.085938 14.050781 9.742188 13.976562 9.429688 13.875 C 9.121094 13.773438 8.859375 13.644531 8.640625 13.496094 C 8.425781 13.34375 8.261719 13.175781 8.144531 12.992188 C 8.027344 12.800781 7.96875 12.597656 7.96875 12.378906 C 7.96875 12.203125 8.011719 12.027344 8.097656 11.847656 C 8.191406 11.667969 8.324219 11.492188 8.496094 11.324219 C 8.664062 11.144531 8.871094 10.980469 9.113281 10.816406 C 9.363281 10.660156 9.644531 10.511719 9.957031 10.371094 C 9.519531 10.300781 9.105469 10.183594 8.707031 10.023438 C 8.3125 9.859375 7.972656 9.667969 7.683594 9.449219 L 8.238281 8.703125 C 8.378906 8.800781 8.554688 8.902344 8.765625 9.003906 C 8.980469 9.105469 9.207031 9.199219 9.449219 9.292969 C 9.699219 9.382812 9.953125 9.460938 10.210938 9.535156 C 10.472656 9.605469 10.722656 9.652344 10.964844 9.6875 C 11.066406 9.625 11.183594 9.558594 11.320312 9.492188 C 11.464844 9.417969 11.617188 9.351562 11.78125 9.292969 C 11.949219 9.234375 12.121094 9.1875 12.300781 9.148438 C 12.484375 9.109375 12.671875 9.089844 12.863281 9.089844 C 13.042969 9.089844 13.195312 9.105469 13.316406 9.140625 C 13.4375 9.167969 13.535156 9.210938 13.605469 9.265625 C 13.683594 9.316406 13.730469 9.378906 13.761719 9.453125 C 13.792969 9.527344 13.804688 9.605469 13.804688 9.6875 C 13.804688 9.996094 13.644531 10.234375 13.316406 10.410156 C 12.988281 10.582031 12.46875 10.671875 11.753906 10.671875 C 11.640625 10.671875 11.523438 10.671875 11.402344 10.660156 C 11.285156 10.660156 11.160156 10.652344 11.019531 10.640625 C 10.886719 10.742188 10.757812 10.855469 10.644531 10.976562 C 10.527344 11.09375 10.421875 11.222656 10.335938 11.363281 C 10.253906 11.5 10.1875 11.648438 10.136719 11.808594 C 10.089844 11.964844 10.066406 12.132812 10.066406 12.316406 C 10.066406 12.484375 10.097656 12.632812 10.167969 12.761719 C 10.234375 12.894531 10.324219 13.011719 10.4375 13.121094 C 10.550781 13.222656 10.679688 13.3125 10.824219 13.390625 C 10.972656 13.464844 11.121094 13.523438 11.277344 13.574219 C 11.363281 13.527344 11.472656 13.484375 11.597656 13.441406 C 11.730469 13.394531 11.871094 13.351562 12.015625 13.316406 C 12.160156 13.277344 12.3125 13.25 12.46875 13.230469 C 12.625 13.207031 12.777344 13.191406 12.921875 13.191406 C 13.179688 13.191406 13.371094 13.246094 13.496094 13.355469 C 13.628906 13.460938 13.695312 13.597656 13.695312 13.761719 C 13.695312 13.863281 13.675781 13.964844 13.628906 14.066406 C 13.589844 14.167969 13.527344 14.253906 13.433594 14.339844 C 13.339844 14.417969 13.21875 14.480469 13.066406 14.527344 C 12.921875 14.578125 12.746094 14.601562 12.535156 14.601562 C 12.417969 14.601562 12.296875 14.601562 12.175781 14.589844 C 12.054688 14.582031 11.9375 14.574219 11.824219 14.570312 C 11.71875 14.558594 11.621094 14.550781 11.535156 14.539062 C 11.449219 14.53125 11.386719 14.519531 11.335938 14.511719 C 11.132812 14.597656 10.933594 14.738281 10.738281 14.925781 C 10.542969 15.113281 10.371094 15.335938 10.21875 15.597656 C 10.066406 15.855469 9.945312 16.140625 9.855469 16.449219 C 9.765625 16.761719 9.722656 17.082031 9.722656 17.40625 "/>
<path style=" stroke:none;fill-rule:nonzero;fill:rgb(90.588236%,29.803923%,23.529412%);fill-opacity:1;" d="M 18.925781 10.269531 C 19.542969 10.386719 20.160156 10.445312 20.789062 10.445312 C 21.425781 10.445312 22.089844 10.386719 22.773438 10.269531 L 22.898438 10.957031 C 22.460938 11.066406 22.136719 11.171875 21.921875 11.277344 C 21.710938 11.382812 21.613281 11.585938 21.636719 11.878906 L 22.171875 20.515625 C 22.183594 20.800781 22.289062 21 22.488281 21.117188 C 22.679688 21.210938 22.988281 21.316406 23.410156 21.4375 L 23.289062 22.128906 C 22.542969 22.019531 21.804688 21.96875 21.074219 21.96875 C 20.339844 21.96875 19.503906 22.019531 18.574219 22.128906 L 18.449219 21.402344 C 19.300781 21.222656 19.785156 21.035156 19.902344 20.832031 C 19.949219 20.773438 19.964844 20.667969 19.957031 20.515625 L 19.527344 12.910156 L 19.421875 12.820312 C 19.292969 13.410156 19.167969 13.847656 19.050781 14.132812 L 16.941406 19.449219 C 16.738281 19.949219 16.519531 20.621094 16.285156 21.472656 L 16.179688 21.863281 L 14.496094 22.285156 C 14.164062 21.164062 13.875 20.296875 13.625 19.683594 L 11.496094 14.222656 L 11.160156 13.050781 L 11.035156 13.140625 L 10.523438 20.515625 C 10.511719 20.667969 10.523438 20.78125 10.558594 20.851562 C 10.605469 20.910156 10.683594 20.96875 10.789062 21.027344 C 10.988281 21.136719 11.324219 21.242188 11.800781 21.347656 L 12.03125 21.402344 L 11.886719 22.128906 C 11.121094 22.019531 10.445312 21.96875 9.867188 21.96875 C 9.300781 21.96875 8.644531 22.019531 7.898438 22.128906 L 7.757812 21.4375 C 8.195312 21.339844 8.511719 21.242188 8.714844 21.136719 C 8.925781 21.027344 9.039062 20.839844 9.050781 20.566406 L 9.707031 11.828125 C 9.71875 11.566406 9.625 11.382812 9.425781 11.277344 C 9.234375 11.183594 8.945312 11.09375 8.554688 11.011719 L 8.359375 10.957031 L 8.484375 10.269531 C 9.136719 10.386719 9.8125 10.445312 10.523438 10.445312 C 11.246094 10.445312 11.933594 10.386719 12.597656 10.269531 C 12.738281 10.808594 12.855469 11.21875 12.953125 11.488281 L 15.503906 18.386719 L 15.734375 19.222656 L 15.859375 19.253906 C 15.882812 18.863281 15.9375 18.582031 16.019531 18.402344 L 18.554688 11.597656 L 18.925781 10.265625 "/>
</g>
</svg>
