
<svg xmlns="http://www.w3.org/2000/svg" xmlns:xlink="http://www.w3.org/1999/xlink" width="32px" height="32px" viewBox="0 0 32 32" version="1.1">
<g id="surface1">
<path style="fill-rule:nonzero;fill:rgb(88.235295%,88.235295%,88.235295%);fill-opacity:1;stroke-width:28.191782;stroke-linecap:butt;stroke-linejoin:miter;stroke:rgb(100%,33.725491%,0%);stroke-opacity:1;stroke-miterlimit:4;" d="M 81.5 25.0625 L 430.5 25.0625 C 461.6875 25.0625 486.9375 50.3125 486.9375 81.5 L 486.9375 430.5 C 486.9375 461.6875 461.6875 486.9375 430.5 486.9375 L 81.5 486.9375 C 50.3125 486.9375 25.0625 461.6875 25.0625 430.5 L 25.0625 81.5 C 25.0625 50.3125 50.3125 25.0625 81.5 25.0625 Z M 81.5 25.0625 " transform="matrix(0.0625,0,0,0.0625,0,0)"/>
<path style=" stroke:none;fill-rule:evenodd;fill:rgb(100%,33.725491%,0%);fill-opacity:1;" d="M 27.839844 15.847656 C 27.839844 22.355469 22.5625 27.632812 16.054688 27.632812 C 9.546875 27.632812 4.269531 22.355469 4.269531 15.847656 C 4.269531 9.339844 9.546875 4.066406 16.054688 4.066406 C 22.5625 4.066406 27.839844 9.339844 27.839844 15.847656 "/>
<path style=" stroke:none;fill-rule:nonzero;fill:rgb(100%,100%,100%);fill-opacity:1;" d="M 16.0625 4.074219 C 10.949219 4.074219 6.59375 7.332031 4.964844 11.886719 C 4.949219 12.253906 4.949219 12.625 4.964844 13.003906 C 5.171875 17.878906 9.148438 22.777344 14.566406 22.1875 C 17.664062 21.855469 20.140625 18.910156 18.558594 16.394531 C 18.058594 15.597656 16.839844 15.527344 16.261719 15.910156 C 19.019531 15.832031 17.675781 19.117188 15.253906 19.617188 C 11.945312 20.300781 9.402344 17.105469 9.175781 14.128906 C 8.746094 8.570312 14.121094 4.632812 19.265625 4.652344 C 19.425781 4.652344 19.589844 4.65625 19.746094 4.664062 C 18.589844 4.285156 17.347656 4.074219 16.0625 4.074219 M 18.867188 9.792969 C 18.707031 9.792969 18.542969 9.792969 18.382812 9.800781 C 18.214844 9.808594 18.042969 9.828125 17.875 9.847656 C 14.777344 10.179688 12.300781 13.125 13.882812 15.636719 C 14.386719 16.4375 15.605469 16.503906 16.179688 16.121094 C 13.421875 16.199219 14.769531 12.917969 17.191406 12.417969 C 20.5 11.730469 23.039062 14.925781 23.269531 17.902344 C 23.683594 23.324219 18.582031 27.203125 13.558594 27.375 C 14.367188 27.550781 15.203125 27.644531 16.0625 27.644531 C 21.542969 27.644531 26.152344 23.898438 27.46875 18.824219 C 27.179688 14.316406 23.707031 9.855469 18.867188 9.792969 "/>
</g>
</svg>
