
<svg xmlns="http://www.w3.org/2000/svg" xmlns:xlink="http://www.w3.org/1999/xlink" width="32px" height="32px" viewBox="0 0 32 32" version="1.1">
<g id="surface1">
<path style="fill-rule:nonzero;fill:rgb(30.19608%,30.19608%,30.19608%);fill-opacity:1;stroke-width:33.073723;stroke-linecap:butt;stroke-linejoin:miter;stroke:rgb(0%,43.137255%,87.058824%);stroke-opacity:1;stroke-miterlimit:4;" d="M 939.288065 21.077149 L 1348.711902 21.077149 C 1385.259755 21.077149 1414.922841 50.740236 1414.922841 87.288088 L 1414.922841 496.711925 C 1414.922841 533.259778 1385.259755 562.922864 1348.711902 562.922864 L 939.288065 562.922864 C 902.740213 562.922864 873.077126 533.259778 873.077126 496.711925 L 873.077126 87.288088 C 873.077126 50.740236 902.740213 21.077149 939.288065 21.077149 Z M 939.288065 21.077149 " transform="matrix(0.0533333,0,0,0.0533333,-45.013331,0.426667)"/>
<path style=" stroke:none;fill-rule:nonzero;fill:rgb(0%,43.137255%,87.058824%);fill-opacity:1;" d="M 8.65625 6.582031 L 28.527344 6.582031 C 29.519531 6.582031 30.320312 7.386719 30.320312 8.375 L 30.320312 23.570312 C 30.320312 24.558594 29.519531 25.363281 28.527344 25.363281 L 8.65625 25.363281 C 7.667969 25.363281 6.863281 24.558594 6.863281 23.570312 L 6.863281 8.375 C 6.863281 7.386719 7.667969 6.582031 8.65625 6.582031 Z M 8.65625 6.582031 "/>
<path style=" stroke:none;fill-rule:evenodd;fill:rgb(100%,100%,100%);fill-opacity:1;" d="M 10.058594 12.65625 L 16.980469 12.65625 C 17.34375 12.65625 17.640625 12.953125 17.640625 13.316406 C 17.640625 13.683594 17.34375 13.980469 16.980469 13.980469 L 10.058594 13.980469 C 9.691406 13.980469 9.394531 13.683594 9.394531 13.316406 C 9.394531 12.953125 9.691406 12.65625 10.058594 12.65625 Z M 10.058594 12.65625 "/>
<path style=" stroke:none;fill-rule:evenodd;fill:rgb(100%,100%,100%);fill-opacity:1;" d="M 10.050781 14.957031 L 16.972656 14.957031 C 17.339844 14.957031 17.636719 15.253906 17.636719 15.617188 C 17.636719 15.984375 17.339844 16.28125 16.972656 16.28125 L 10.050781 16.28125 C 9.683594 16.28125 9.386719 15.984375 9.386719 15.617188 C 9.386719 15.253906 9.683594 14.957031 10.050781 14.957031 Z M 10.050781 14.957031 "/>
<path style=" stroke:none;fill-rule:evenodd;fill:rgb(100%,100%,100%);fill-opacity:1;" d="M 10.050781 17.277344 L 16.972656 17.277344 C 17.339844 17.277344 17.636719 17.574219 17.636719 17.941406 C 17.636719 18.308594 17.339844 18.605469 16.972656 18.605469 L 10.050781 18.605469 C 9.683594 18.605469 9.386719 18.308594 9.386719 17.941406 C 9.386719 17.574219 9.683594 17.277344 10.050781 17.277344 Z M 10.050781 17.277344 "/>
</g>
</svg>
