
<svg xmlns="http://www.w3.org/2000/svg" xmlns:xlink="http://www.w3.org/1999/xlink" width="32px" height="32px" viewBox="0 0 32 32" version="1.1">
<g id="surface1">
<path style="fill-rule:nonzero;fill:rgb(95.294118%,97.254902%,97.647059%);fill-opacity:1;stroke-width:53.967125;stroke-linecap:butt;stroke-linejoin:miter;stroke:rgb(0%,41.568628%,72.549021%);stroke-opacity:1;stroke-miterlimit:4;" d="M 177.875 70 L 846.125 70 C 905.625 70 954 118.375 954 177.875 L 954 846.125 C 954 905.625 905.625 954 846.125 954 L 177.875 954 C 118.375 954 70 905.625 70 846.125 L 70 177.875 C 70 118.375 118.375 70 177.875 70 Z M 177.875 70 " transform="matrix(0.03125,0,0,0.03125,0,0)"/>
<path style="fill-rule:nonzero;fill:rgb(94.117647%,100%,100%);fill-opacity:1;stroke-width:7.766708;stroke-linecap:butt;stroke-linejoin:miter;stroke:rgb(25.490198%,41.176471%,88.235295%);stroke-opacity:1;stroke-miterlimit:4;" d="M 467.625 872.125 C 339.875 856.5 230.875 774.875 180.25 656.75 C 152.625 592.375 144.25 520.375 156.125 451.625 C 180.375 311.875 284.25 198.75 419.875 163.875 C 452.75 155.5 469.25 153.625 507.875 153.625 C 545.5 153.625 562.75 155.5 593.375 163.125 C 694.5 188.5 778.875 256.125 826.25 349.75 C 874.375 444.875 878.375 552.625 837.625 653 C 803.125 738 731 810.75 646.375 846.125 C 614.875 859.375 579.25 868.75 546.875 872.25 C 530.125 874.125 482.875 874 467.625 872.125 Z M 467.625 872.125 " transform="matrix(0.03125,0,0,0.03125,0,0)"/>
<path style=" stroke:none;fill-rule:nonzero;fill:rgb(25.490198%,41.176471%,88.235295%);fill-opacity:1;" d="M 14.511719 27.214844 C 11.917969 26.878906 9.464844 25.574219 7.707031 23.59375 C 5.832031 21.480469 4.792969 18.71875 4.792969 15.863281 C 4.792969 15.339844 4.828125 15.121094 4.902344 15.121094 C 4.988281 15.121094 5.320312 15.613281 5.320312 15.738281 C 5.320312 15.898438 5.425781 15.957031 5.464844 15.816406 C 5.480469 15.753906 5.519531 15.707031 5.550781 15.707031 C 5.585938 15.703125 5.878906 15.816406 6.203125 15.949219 C 6.722656 16.167969 6.84375 16.238281 7.238281 16.605469 C 7.710938 17.042969 7.734375 17.054688 8.132812 17.109375 C 8.269531 17.128906 8.394531 17.167969 8.414062 17.195312 C 8.433594 17.222656 8.328125 17.515625 8.183594 17.84375 C 7.890625 18.503906 7.75 18.976562 7.75 19.308594 C 7.75 19.816406 8.207031 20.582031 8.949219 21.308594 C 9.222656 21.578125 9.476562 21.878906 9.519531 21.984375 C 9.566406 22.097656 9.597656 22.339844 9.597656 22.585938 C 9.597656 22.816406 9.644531 23.191406 9.699219 23.425781 C 9.800781 23.847656 9.800781 23.851562 9.691406 24.285156 C 9.597656 24.65625 9.59375 24.738281 9.652344 24.882812 C 9.777344 25.1875 10.75 25.753906 11.089844 25.722656 C 11.257812 25.707031 11.261719 25.699219 11.265625 25.464844 C 11.269531 25.265625 11.308594 25.167969 11.472656 24.941406 C 11.582031 24.789062 11.800781 24.570312 11.957031 24.457031 C 12.253906 24.230469 12.230469 24.289062 12.53125 23.226562 C 12.621094 22.90625 12.660156 22.863281 13.191406 22.503906 C 13.585938 22.238281 13.667969 22.0625 13.667969 21.449219 C 13.667969 20.996094 13.683594 20.910156 13.964844 20.109375 C 14.128906 19.625 14.238281 19.230469 14.214844 19.207031 C 14.1875 19.183594 13.949219 19.078125 13.675781 18.972656 C 13.164062 18.777344 12.519531 18.425781 12.394531 18.277344 C 12.355469 18.226562 12.273438 18.167969 12.210938 18.144531 C 12.128906 18.113281 12.085938 18.039062 12.0625 17.886719 C 12.03125 17.699219 11.996094 17.65625 11.738281 17.511719 C 11.582031 17.417969 11.386719 17.339844 11.304688 17.332031 C 11.167969 17.324219 11.152344 17.292969 11.078125 16.949219 L 10.996094 16.582031 L 10.496094 16.527344 C 10.089844 16.480469 9.941406 16.441406 9.699219 16.300781 C 9.273438 16.054688 9.125 16.070312 8.804688 16.394531 C 8.660156 16.535156 8.542969 16.679688 8.542969 16.710938 C 8.542969 16.742188 8.457031 16.765625 8.355469 16.765625 C 8.210938 16.765625 8.15625 16.742188 8.136719 16.664062 C 8.121094 16.605469 8.019531 16.527344 7.910156 16.480469 C 7.695312 16.394531 7.648438 16.296875 7.644531 15.933594 C 7.644531 15.699219 7.515625 15.546875 7.324219 15.546875 C 7.152344 15.546875 7.097656 15.410156 7.167969 15.160156 C 7.304688 14.675781 7.308594 14.699219 7.105469 14.699219 C 7 14.699219 6.863281 14.742188 6.785156 14.800781 C 6.710938 14.863281 6.625 14.910156 6.59375 14.910156 C 6.5625 14.910156 6.453125 14.742188 6.351562 14.539062 C 6.097656 14.03125 6.007812 14.054688 6.007812 14.625 C 6.007812 14.785156 5.988281 14.902344 5.960938 14.886719 C 5.886719 14.839844 5.859375 14.425781 5.917969 14.144531 C 6.011719 13.664062 6.554688 13.277344 7.269531 13.179688 C 7.582031 13.136719 7.804688 13.183594 7.804688 13.285156 C 7.804688 13.378906 8.207031 13.707031 8.269531 13.667969 C 8.296875 13.652344 8.332031 13.519531 8.351562 13.378906 C 8.390625 13.097656 8.519531 12.878906 8.910156 12.417969 C 9.050781 12.253906 9.25 11.960938 9.363281 11.761719 C 9.597656 11.328125 10.027344 10.980469 10.65625 10.707031 C 11.152344 10.492188 11.660156 10.183594 11.660156 10.089844 C 11.660156 9.988281 11.328125 9.871094 11.039062 9.867188 C 10.808594 9.867188 10.796875 9.859375 10.886719 9.789062 C 10.941406 9.746094 11.121094 9.6875 11.285156 9.65625 C 11.820312 9.546875 12.136719 9.425781 12.335938 9.253906 C 12.480469 9.121094 12.519531 9.0625 12.476562 9.007812 C 12.449219 8.964844 12.3125 8.761719 12.175781 8.550781 C 11.914062 8.160156 11.765625 8.050781 11.507812 8.078125 C 11.386719 8.089844 11.371094 8.074219 11.378906 7.945312 C 11.386719 7.816406 11.351562 7.78125 11.121094 7.664062 C 10.976562 7.589844 10.824219 7.542969 10.78125 7.558594 C 10.738281 7.574219 10.613281 7.785156 10.503906 8.023438 C 10.304688 8.457031 9.789062 9.171875 9.671875 9.175781 C 9.640625 9.175781 9.597656 9.109375 9.582031 9.027344 C 9.558594 8.894531 9.492188 8.84375 9.175781 8.699219 C 8.816406 8.53125 8.597656 8.339844 8.597656 8.195312 C 8.597656 8.0625 8.871094 7.796875 9.34375 7.480469 C 9.84375 7.144531 9.917969 7.113281 9.917969 7.242188 C 9.917969 7.300781 9.972656 7.324219 10.121094 7.324219 C 10.304688 7.324219 10.355469 7.289062 10.574219 7.042969 C 11.027344 6.535156 11.339844 6.394531 11.457031 6.65625 C 11.527344 6.8125 12.058594 7.058594 12.324219 7.058594 C 12.527344 7.058594 12.714844 6.980469 12.714844 6.894531 C 12.714844 6.867188 12.660156 6.816406 12.589844 6.785156 C 12.519531 6.753906 12.417969 6.632812 12.367188 6.515625 C 12.261719 6.285156 12.113281 6.1875 11.777344 6.128906 C 11.652344 6.109375 11.554688 6.074219 11.554688 6.050781 C 11.554688 6.03125 11.851562 5.871094 12.214844 5.703125 L 12.875 5.394531 L 13.035156 5.558594 C 13.125 5.648438 13.3125 5.8125 13.457031 5.921875 C 13.597656 6.03125 13.742188 6.191406 13.777344 6.277344 C 13.835938 6.417969 13.828125 6.464844 13.703125 6.6875 C 13.625 6.824219 13.558594 6.976562 13.558594 7.019531 C 13.558594 7.164062 13.988281 7.964844 14.058594 7.949219 C 14.097656 7.941406 14.300781 7.742188 14.511719 7.507812 C 14.726562 7.273438 14.949219 7.054688 15.011719 7.019531 C 15.070312 6.984375 15.386719 6.871094 15.710938 6.761719 C 16.503906 6.503906 16.699219 6.335938 16.9375 5.707031 C 17.074219 5.339844 17.144531 5.226562 17.292969 5.125 C 17.488281 4.992188 17.441406 4.925781 17.195312 4.972656 C 17.019531 5.003906 16.976562 4.933594 17.074219 4.785156 C 17.117188 4.730469 16.996094 4.753906 17.085938 4.753906 C 17.191406 4.753906 17.539062 4.738281 18.050781 4.839844 C 19.046875 5.03125 20.804688 5.691406 21.210938 6.027344 L 21.332031 6.132812 L 21.078125 6.246094 C 20.9375 6.3125 20.722656 6.386719 20.605469 6.417969 C 20.425781 6.464844 20.34375 6.53125 20.160156 6.777344 C 20.035156 6.949219 19.792969 7.214844 19.621094 7.371094 L 19.304688 7.660156 L 19.332031 7.949219 C 19.375 8.34375 19.421875 8.378906 19.71875 8.234375 L 19.960938 8.113281 L 20.191406 8.328125 C 20.550781 8.660156 20.625 8.621094 20.742188 8.039062 C 20.820312 7.644531 20.957031 7.324219 21.105469 7.195312 C 21.269531 7.046875 21.300781 7.128906 21.15625 7.324219 L 21.035156 7.496094 L 21.152344 7.574219 C 21.390625 7.734375 21.269531 8.292969 20.921875 8.644531 L 20.691406 8.875 L 20.394531 8.839844 C 20.027344 8.796875 20.003906 8.785156 20.003906 8.621094 C 20.003906 8.542969 19.972656 8.488281 19.925781 8.488281 C 19.828125 8.488281 19.738281 8.652344 19.738281 8.832031 C 19.738281 8.941406 19.714844 8.964844 19.605469 8.964844 C 19.527344 8.964844 19.417969 8.992188 19.363281 9.023438 C 19.273438 9.070312 19.230469 9.058594 19.128906 8.964844 C 19.066406 8.902344 18.980469 8.777344 18.941406 8.683594 C 18.902344 8.589844 18.816406 8.425781 18.75 8.316406 C 18.648438 8.148438 18.597656 8.113281 18.480469 8.128906 C 18.324219 8.144531 18.320312 8.175781 18.386719 8.617188 C 18.425781 8.855469 18.417969 8.871094 18.332031 8.832031 C 18.277344 8.808594 18.15625 8.78125 18.0625 8.769531 C 17.847656 8.738281 17.816406 8.8125 17.90625 9.121094 C 17.976562 9.367188 18.101562 9.480469 18.101562 9.296875 C 18.101562 9.238281 18.140625 9.160156 18.183594 9.121094 C 18.253906 9.066406 18.277344 9.066406 18.316406 9.128906 C 18.34375 9.171875 18.363281 9.25 18.363281 9.304688 C 18.367188 9.355469 18.410156 9.472656 18.457031 9.558594 C 18.550781 9.714844 18.550781 9.71875 18.421875 9.816406 L 18.292969 9.910156 L 18.433594 10.175781 C 18.511719 10.324219 18.578125 10.460938 18.578125 10.488281 C 18.578125 10.511719 18.453125 10.5625 18.300781 10.597656 C 17.847656 10.707031 17.683594 10.964844 17.683594 11.578125 C 17.679688 11.816406 17.691406 11.832031 17.871094 11.910156 C 17.976562 11.957031 18.105469 11.992188 18.164062 11.992188 C 18.21875 11.992188 18.515625 11.746094 18.832031 11.441406 C 19.371094 10.917969 19.730469 10.664062 19.929688 10.664062 C 20.019531 10.664062 20.335938 10.992188 20.464844 11.214844 C 20.5 11.277344 20.527344 11.382812 20.527344 11.449219 C 20.53125 11.613281 20.707031 11.605469 20.84375 11.425781 C 20.90625 11.347656 20.953125 11.214844 20.953125 11.128906 C 20.953125 10.902344 21.039062 10.964844 21.289062 11.378906 C 21.410156 11.582031 21.535156 11.753906 21.566406 11.761719 C 21.597656 11.773438 21.675781 11.660156 21.734375 11.515625 C 21.800781 11.355469 21.878906 11.246094 21.925781 11.246094 C 21.972656 11.246094 22.011719 11.269531 22.011719 11.296875 C 22.011719 11.394531 22.566406 11.753906 22.972656 11.917969 C 23.199219 12.007812 23.402344 12.097656 23.417969 12.117188 C 23.472656 12.171875 23.28125 12.410156 23.0625 12.558594 C 22.808594 12.726562 22.578125 12.730469 22.007812 12.582031 C 21.570312 12.46875 21.378906 12.480469 21.238281 12.632812 C 21.191406 12.6875 21.121094 12.734375 21.089844 12.734375 C 21.058594 12.734375 20.867188 12.597656 20.664062 12.433594 C 20.03125 11.925781 20.074219 11.9375 19.230469 11.9375 C 18.617188 11.9375 18.464844 11.953125 18.394531 12.019531 C 18.351562 12.066406 18.3125 12.121094 18.3125 12.144531 C 18.3125 12.160156 18.230469 12.222656 18.125 12.28125 C 18.023438 12.335938 17.785156 12.542969 17.597656 12.742188 C 17.207031 13.160156 16.839844 13.867188 16.703125 14.457031 C 16.65625 14.660156 16.566406 15.027344 16.507812 15.261719 C 16.4375 15.542969 16.410156 15.765625 16.433594 15.882812 C 16.507812 16.285156 17.011719 17.058594 17.488281 17.496094 C 17.753906 17.742188 17.820312 17.761719 18.050781 17.640625 C 18.132812 17.597656 18.316406 17.566406 18.457031 17.570312 C 18.597656 17.574219 18.851562 17.535156 19.027344 17.484375 C 19.488281 17.347656 19.769531 17.394531 19.996094 17.640625 C 20.167969 17.832031 20.171875 17.847656 20.136719 18.164062 C 20.105469 18.464844 20.125 18.546875 20.378906 19.261719 L 20.648438 20.027344 L 20.605469 20.746094 C 20.527344 22.03125 20.539062 22.167969 20.816406 23.027344 C 20.949219 23.449219 21.089844 23.957031 21.121094 24.152344 C 21.179688 24.507812 21.183594 24.511719 21.34375 24.511719 C 21.59375 24.507812 22.171875 24.285156 22.503906 24.0625 C 22.878906 23.8125 23.09375 23.554688 23.207031 23.21875 C 23.253906 23.074219 23.359375 22.859375 23.441406 22.738281 C 23.582031 22.535156 23.585938 22.507812 23.53125 22.242188 C 23.464844 21.914062 23.503906 21.847656 23.9375 21.566406 C 24.371094 21.28125 24.449219 21.167969 24.457031 20.816406 C 24.457031 20.644531 24.441406 20.230469 24.417969 19.894531 C 24.363281 19.136719 24.414062 18.988281 25.03125 18.007812 C 25.496094 17.261719 25.6875 16.855469 25.714844 16.527344 L 25.734375 16.316406 L 25.113281 16.261719 L 25.214844 16.144531 C 25.265625 16.082031 25.503906 15.871094 25.734375 15.679688 C 26.203125 15.285156 26.414062 15.035156 26.503906 14.769531 C 26.566406 14.566406 26.527344 14.226562 26.417969 14.078125 C 26.351562 13.984375 26.339844 13.988281 26.199219 14.128906 C 26.113281 14.207031 26.023438 14.273438 25.996094 14.273438 C 25.929688 14.273438 25.460938 13.632812 25.386719 13.449219 C 25.308594 13.238281 25.398438 13.171875 25.582031 13.300781 C 25.667969 13.363281 25.925781 13.507812 26.160156 13.628906 C 26.398438 13.753906 26.632812 13.882812 26.683594 13.917969 C 26.886719 14.070312 26.996094 16.050781 26.863281 17.230469 C 26.644531 19.242188 25.890625 21.160156 24.660156 22.832031 C 24.195312 23.457031 23.15625 24.519531 22.539062 24.996094 C 21 26.175781 19.230469 26.925781 17.371094 27.1875 C 16.730469 27.277344 15.121094 27.292969 14.511719 27.214844 Z M 14.511719 27.214844 "/>
<path style=" stroke:none;fill-rule:nonzero;fill:rgb(47.843137%,63.921571%,15.686275%);fill-opacity:0.835294;" d="M 13.953125 4.785156 C 14.070312 4.761719 14.1875 4.753906 14.300781 4.738281 C 15.277344 4.589844 16.15625 4.617188 17.003906 4.707031 C 18.894531 4.898438 20.496094 5.453125 22.019531 6.441406 C 23.535156 7.417969 24.691406 8.648438 25.628906 10.277344 C 26.992188 12.636719 27.488281 15.402344 27.035156 18.113281 C 26.710938 20.066406 25.863281 21.867188 24.542969 23.425781 C 23.121094 25.105469 20.886719 26.609375 18.371094 27.160156 C 17.503906 27.351562 16.464844 27.496094 15.527344 27.25 C 13.460938 26.699219 11.921875 24.8125 11.699219 22.550781 C 11.5 20.550781 12.304688 18.621094 13.898438 17.277344 C 14.445312 16.816406 14.910156 16.535156 15.769531 16.121094 C 16.738281 15.65625 17.214844 15.363281 17.800781 14.871094 C 18.835938 13.996094 19.472656 13.027344 19.800781 11.835938 C 19.953125 11.273438 20.007812 10.773438 19.984375 10.140625 C 19.972656 9.8125 19.761719 8.804688 19.640625 8.496094 C 19.113281 7.160156 18.152344 6.109375 16.894531 5.503906 C 16.050781 5.097656 14.886719 4.847656 14 4.878906 C 13.804688 4.886719 13.738281 4.894531 13.769531 4.832031 C 13.777344 4.824219 13.773438 4.824219 13.78125 4.820312 C 13.789062 4.816406 13.949219 4.785156 13.957031 4.78125 C 13.976562 4.777344 13.769531 4.832031 13.953125 4.785156 Z M 13.953125 4.785156 "/>
</g>
</svg>
