
<svg xmlns="http://www.w3.org/2000/svg" xmlns:xlink="http://www.w3.org/1999/xlink" width="32px" height="32px" viewBox="0 0 32 32" version="1.1">
<g id="surface1">
<path style=" stroke:none;fill-rule:evenodd;fill:rgb(94.509804%,27.843139%,56.078434%);fill-opacity:1;" d="M 4.484375 1.363281 L 27.683594 1.363281 C 29.410156 1.363281 30.808594 2.761719 30.808594 4.488281 L 30.808594 27.464844 C 30.808594 29.191406 29.410156 30.589844 27.683594 30.589844 L 4.484375 30.589844 C 2.757812 30.589844 1.359375 29.191406 1.359375 27.464844 L 1.359375 4.488281 C 1.359375 2.761719 2.757812 1.363281 4.484375 1.363281 Z M 4.484375 1.363281 "/>
<path style=" stroke:none;fill-rule:nonzero;fill:rgb(100%,100%,100%);fill-opacity:0.392157;" d="M 10.632812 6.605469 C 9.453125 6.625 8.445312 6.980469 7.722656 7.699219 C 6.386719 9.039062 6.3125 11.363281 7.277344 13.941406 C 7.714844 13.347656 8.261719 12.785156 8.886719 12.261719 C 8.011719 10.042969 7.933594 8.246094 8.867188 7.464844 C 10.027344 6.492188 12.457031 7.332031 15.121094 9.386719 C 15.371094 9.582031 15.628906 9.789062 15.882812 10.007812 C 16.988281 10.941406 18.109375 12.066406 19.183594 13.351562 C 20.6875 15.140625 21.875 16.976562 22.675781 18.640625 C 23.261719 17.714844 23.574219 16.664062 23.523438 15.574219 C 23.523438 15.550781 23.519531 15.527344 23.519531 15.507812 C 22.71875 14.179688 21.679688 12.847656 20.429688 11.597656 C 20.027344 11.195312 19.617188 10.816406 19.203125 10.457031 C 18.625 9.960938 18.035156 9.507812 17.441406 9.101562 C 15.042969 7.453125 12.597656 6.566406 10.632812 6.605469 Z M 9.40625 13.4375 C 9.371094 13.496094 9.332031 13.550781 9.300781 13.613281 C 9.300781 13.613281 9.296875 13.613281 9.296875 13.613281 C 8.773438 14.488281 8.488281 15.464844 8.519531 16.480469 C 8.519531 16.507812 8.523438 16.539062 8.523438 16.566406 C 8.527344 16.605469 8.527344 16.648438 8.53125 16.6875 C 8.550781 16.65625 8.566406 16.625 8.585938 16.589844 C 8.960938 15.949219 9.394531 15.304688 9.882812 14.65625 C 9.914062 14.613281 9.949219 14.566406 9.980469 14.527344 C 9.769531 14.15625 9.582031 13.792969 9.40625 13.4375 Z M 10.449219 15.324219 C 9.964844 16.121094 9.582031 16.917969 9.308594 17.683594 C 9.96875 18.609375 10.742188 19.527344 11.621094 20.402344 C 12.105469 20.890625 12.605469 21.34375 13.109375 21.765625 C 13.625 22.195312 14.148438 22.589844 14.671875 22.945312 C 18.488281 25.542969 22.410156 26.210938 24.324219 24.300781 C 25.664062 22.960938 25.738281 20.636719 24.765625 18.050781 C 24.332031 18.648438 23.792969 19.21875 23.164062 19.746094 C 24.035156 21.964844 24.109375 23.753906 23.179688 24.535156 C 22.023438 25.503906 19.613281 24.679688 16.96875 22.644531 C 16.753906 22.480469 16.535156 22.300781 16.316406 22.121094 C 16.3125 22.121094 16.3125 22.121094 16.308594 22.121094 L 16.246094 22.0625 C 15.117188 21.113281 13.964844 19.964844 12.863281 18.652344 C 11.933594 17.542969 11.121094 16.417969 10.449219 15.324219 Z M 10.449219 15.324219 "/>
<path style=" stroke:none;fill-rule:nonzero;fill:rgb(100%,100%,100%);fill-opacity:1;" d="M 21.816406 6.824219 C 19.976562 6.84375 17.605469 7.785156 15.21875 9.464844 C 15.414062 9.617188 15.605469 9.777344 15.804688 9.941406 C 18.378906 8.375 20.914062 8.035156 22.277344 9.308594 C 23.785156 10.722656 23.417969 13.699219 21.597656 16.675781 C 21.050781 17.574219 20.371094 18.464844 19.574219 19.320312 C 18.519531 20.449219 17.378906 21.375 16.246094 22.0625 C 16.207031 22.085938 16.167969 22.109375 16.128906 22.128906 C 13.628906 23.609375 11.191406 23.933594 9.835938 22.75 C 9.8125 22.730469 9.792969 22.710938 9.769531 22.691406 C 9.550781 22.488281 9.375 22.25 9.234375 21.984375 C 8.335938 21.550781 7.585938 20.988281 7.035156 20.3125 C 6.832031 21.214844 6.789062 22.042969 6.933594 22.75 C 7.058594 23.355469 7.316406 23.894531 7.722656 24.300781 C 9.53125 26.105469 13.652344 25.027344 17.636719 21.9375 C 18.414062 21.335938 19.183594 20.660156 19.933594 19.910156 C 20.722656 19.117188 21.441406 18.300781 22.066406 17.476562 C 22.601562 16.777344 23.113281 16.199219 23.519531 15.507812 C 25.394531 12.296875 25.792969 9.171875 24.324219 7.699219 C 23.71875 7.097656 22.851562 6.816406 21.816406 6.824219 Z M 15.667969 10.019531 C 15.152344 10.058594 14.648438 10.136719 14.167969 10.253906 C 13.472656 10.808594 12.785156 11.421875 12.113281 12.089844 C 11.320312 12.882812 10.605469 13.703125 9.980469 14.527344 C 9.453125 15.214844 8.988281 15.910156 8.585938 16.589844 C 8.566406 16.625 8.550781 16.65625 8.53125 16.6875 C 8.578125 17.351562 8.757812 17.980469 9.046875 18.554688 C 9.117188 18.269531 9.207031 17.980469 9.308594 17.683594 C 9.582031 16.917969 9.964844 16.121094 10.449219 15.324219 C 10.996094 14.429688 11.675781 13.535156 12.472656 12.679688 C 13.484375 11.597656 14.578125 10.699219 15.667969 10.019531 Z M 15.667969 10.019531 "/>
<path style=" stroke:none;fill-rule:nonzero;fill:rgb(100%,100%,100%);fill-opacity:0.588235;" d="M 18.058594 9.089844 C 17.855469 9.085938 17.652344 9.09375 17.441406 9.101562 C 18.035156 9.507812 18.625 9.960938 19.203125 10.457031 C 21.644531 11.292969 23.378906 13.191406 23.519531 15.507812 C 23.519531 15.527344 23.523438 15.550781 23.523438 15.574219 C 23.574219 16.664062 23.261719 17.714844 22.675781 18.640625 C 21.472656 20.546875 19.101562 21.933594 16.316406 22.121094 C 16.535156 22.300781 16.753906 22.480469 16.972656 22.644531 C 16.976562 22.644531 16.980469 22.644531 16.980469 22.644531 C 19.425781 22.132812 21.574219 21.082031 23.164062 19.746094 C 23.792969 19.21875 24.332031 18.648438 24.765625 18.050781 C 25.707031 16.753906 26.15625 15.332031 25.949219 13.949219 C 25.511719 10.988281 22.214844 9.089844 18.058594 9.089844 Z M 15.121094 9.386719 C 15.085938 9.394531 15.050781 9.402344 15.019531 9.410156 C 12.601562 9.914062 10.472656 10.949219 8.886719 12.261719 C 8.261719 12.785156 7.714844 13.347656 7.277344 13.941406 C 6.308594 15.253906 5.839844 16.695312 6.050781 18.105469 C 6.171875 18.929688 6.511719 19.671875 7.035156 20.3125 C 7.585938 20.988281 8.335938 21.550781 9.234375 21.984375 C 10.71875 22.699219 12.605469 23.050781 14.671875 22.945312 C 14.148438 22.589844 13.625 22.195312 13.109375 21.765625 C 11.265625 21.199219 9.789062 20.042969 9.046875 18.554688 C 8.757812 17.980469 8.578125 17.351562 8.53125 16.6875 C 8.527344 16.648438 8.527344 16.605469 8.523438 16.566406 C 8.523438 16.539062 8.519531 16.507812 8.519531 16.480469 C 8.488281 15.394531 8.808594 14.355469 9.40625 13.4375 C 10.386719 11.929688 12.097656 10.753906 14.167969 10.253906 C 14.648438 10.136719 15.152344 10.058594 15.667969 10.019531 C 15.691406 10.019531 15.714844 10.019531 15.738281 10.015625 C 15.789062 10.011719 15.835938 10.011719 15.882812 10.007812 C 15.855469 9.984375 15.832031 9.960938 15.804688 9.941406 C 15.605469 9.777344 15.414062 9.617188 15.21875 9.464844 C 15.1875 9.441406 15.152344 9.414062 15.121094 9.386719 Z M 15.121094 9.386719 "/>
<path style=" stroke:none;fill-rule:nonzero;fill:rgb(100%,100%,100%);fill-opacity:0.392157;" d="M 8.949219 14.285156 C 8.925781 14.34375 8.902344 14.402344 8.878906 14.460938 C 8.859375 14.507812 8.839844 14.554688 8.824219 14.605469 C 8.839844 14.554688 8.859375 14.507812 8.878906 14.460938 C 8.902344 14.402344 8.925781 14.34375 8.949219 14.285156 Z M 8.949219 14.285156 "/>
<path style=" stroke:none;fill-rule:nonzero;fill:rgb(100%,100%,100%);fill-opacity:0.392157;" d="M 8.648438 15.207031 C 8.636719 15.253906 8.625 15.308594 8.613281 15.355469 C 8.605469 15.414062 8.59375 15.46875 8.582031 15.527344 C 8.59375 15.46875 8.605469 15.414062 8.613281 15.355469 C 8.625 15.308594 8.636719 15.253906 8.648438 15.207031 Z M 8.648438 15.207031 "/>
<path style=" stroke:none;fill-rule:nonzero;fill:rgb(100%,100%,100%);fill-opacity:0.392157;" d="M 8.902344 16.078125 C 8.863281 16.136719 8.824219 16.195312 8.789062 16.253906 C 8.824219 16.195312 8.863281 16.136719 8.902344 16.078125 Z M 8.902344 16.078125 "/>
</g>
</svg>
