
<svg xmlns="http://www.w3.org/2000/svg" xmlns:xlink="http://www.w3.org/1999/xlink" width="32px" height="32px" viewBox="0 0 32 32" version="1.1">
<defs>
<clipPath id="clip1">
  <path d="M 2 2 L 30 2 L 30 30 L 2 30 Z M 2 2 "/>
</clipPath>
<clipPath id="clip2">
  <path d="M 5.644531 2.300781 L 26.355469 2.300781 C 28.199219 2.300781 29.699219 3.800781 29.699219 5.644531 L 29.699219 26.355469 C 29.699219 28.199219 28.199219 29.699219 26.355469 29.699219 L 5.644531 29.699219 C 3.800781 29.699219 2.300781 28.199219 2.300781 26.355469 L 2.300781 5.644531 C 2.300781 3.800781 3.800781 2.300781 5.644531 2.300781 Z M 5.644531 2.300781 "/>
</clipPath>
<clipPath id="clip3">
  <path d="M 2 16 L 16 16 L 16 30 L 2 30 Z M 2 16 "/>
</clipPath>
<clipPath id="clip4">
  <path d="M 5.644531 2.300781 L 26.355469 2.300781 C 28.199219 2.300781 29.699219 3.800781 29.699219 5.644531 L 29.699219 26.355469 C 29.699219 28.199219 28.199219 29.699219 26.355469 29.699219 L 5.644531 29.699219 C 3.800781 29.699219 2.300781 28.199219 2.300781 26.355469 L 2.300781 5.644531 C 2.300781 3.800781 3.800781 2.300781 5.644531 2.300781 Z M 5.644531 2.300781 "/>
</clipPath>
<clipPath id="clip5">
  <path d="M 2 26.667969 L 5.332031 26.667969 L 5.332031 30 L 2 30 Z M 2 26.667969 "/>
</clipPath>
<clipPath id="clip6">
  <path d="M 5.644531 2.300781 L 26.355469 2.300781 C 28.199219 2.300781 29.699219 3.800781 29.699219 5.644531 L 29.699219 26.355469 C 29.699219 28.199219 28.199219 29.699219 26.355469 29.699219 L 5.644531 29.699219 C 3.800781 29.699219 2.300781 28.199219 2.300781 26.355469 L 2.300781 5.644531 C 2.300781 3.800781 3.800781 2.300781 5.644531 2.300781 Z M 5.644531 2.300781 "/>
</clipPath>
<clipPath id="clip7">
  <path d="M 5 26.667969 L 9 26.667969 L 9 30 L 5 30 Z M 5 26.667969 "/>
</clipPath>
<clipPath id="clip8">
  <path d="M 5.644531 2.300781 L 26.355469 2.300781 C 28.199219 2.300781 29.699219 3.800781 29.699219 5.644531 L 29.699219 26.355469 C 29.699219 28.199219 28.199219 29.699219 26.355469 29.699219 L 5.644531 29.699219 C 3.800781 29.699219 2.300781 28.199219 2.300781 26.355469 L 2.300781 5.644531 C 2.300781 3.800781 3.800781 2.300781 5.644531 2.300781 Z M 5.644531 2.300781 "/>
</clipPath>
<clipPath id="clip9">
  <path d="M 8.667969 26.667969 L 12.667969 26.667969 L 12.667969 30 L 8.667969 30 Z M 8.667969 26.667969 "/>
</clipPath>
<clipPath id="clip10">
  <path d="M 5.644531 2.300781 L 26.355469 2.300781 C 28.199219 2.300781 29.699219 3.800781 29.699219 5.644531 L 29.699219 26.355469 C 29.699219 28.199219 28.199219 29.699219 26.355469 29.699219 L 5.644531 29.699219 C 3.800781 29.699219 2.300781 28.199219 2.300781 26.355469 L 2.300781 5.644531 C 2.300781 3.800781 3.800781 2.300781 5.644531 2.300781 Z M 5.644531 2.300781 "/>
</clipPath>
<clipPath id="clip11">
  <path d="M 12 26.667969 L 16 26.667969 L 16 30 L 12 30 Z M 12 26.667969 "/>
</clipPath>
<clipPath id="clip12">
  <path d="M 5.644531 2.300781 L 26.355469 2.300781 C 28.199219 2.300781 29.699219 3.800781 29.699219 5.644531 L 29.699219 26.355469 C 29.699219 28.199219 28.199219 29.699219 26.355469 29.699219 L 5.644531 29.699219 C 3.800781 29.699219 2.300781 28.199219 2.300781 26.355469 L 2.300781 5.644531 C 2.300781 3.800781 3.800781 2.300781 5.644531 2.300781 Z M 5.644531 2.300781 "/>
</clipPath>
<clipPath id="clip13">
  <path d="M 16 26.667969 L 20 26.667969 L 20 30 L 16 30 Z M 16 26.667969 "/>
</clipPath>
<clipPath id="clip14">
  <path d="M 5.644531 2.300781 L 26.355469 2.300781 C 28.199219 2.300781 29.699219 3.800781 29.699219 5.644531 L 29.699219 26.355469 C 29.699219 28.199219 28.199219 29.699219 26.355469 29.699219 L 5.644531 29.699219 C 3.800781 29.699219 2.300781 28.199219 2.300781 26.355469 L 2.300781 5.644531 C 2.300781 3.800781 3.800781 2.300781 5.644531 2.300781 Z M 5.644531 2.300781 "/>
</clipPath>
<clipPath id="clip15">
  <path d="M 19.332031 26.667969 L 23.332031 26.667969 L 23.332031 30 L 19.332031 30 Z M 19.332031 26.667969 "/>
</clipPath>
<clipPath id="clip16">
  <path d="M 5.644531 2.300781 L 26.355469 2.300781 C 28.199219 2.300781 29.699219 3.800781 29.699219 5.644531 L 29.699219 26.355469 C 29.699219 28.199219 28.199219 29.699219 26.355469 29.699219 L 5.644531 29.699219 C 3.800781 29.699219 2.300781 28.199219 2.300781 26.355469 L 2.300781 5.644531 C 2.300781 3.800781 3.800781 2.300781 5.644531 2.300781 Z M 5.644531 2.300781 "/>
</clipPath>
<clipPath id="clip17">
  <path d="M 23 26.667969 L 27 26.667969 L 27 30 L 23 30 Z M 23 26.667969 "/>
</clipPath>
<clipPath id="clip18">
  <path d="M 5.644531 2.300781 L 26.355469 2.300781 C 28.199219 2.300781 29.699219 3.800781 29.699219 5.644531 L 29.699219 26.355469 C 29.699219 28.199219 28.199219 29.699219 26.355469 29.699219 L 5.644531 29.699219 C 3.800781 29.699219 2.300781 28.199219 2.300781 26.355469 L 2.300781 5.644531 C 2.300781 3.800781 3.800781 2.300781 5.644531 2.300781 Z M 5.644531 2.300781 "/>
</clipPath>
<clipPath id="clip19">
  <path d="M 26.667969 26.667969 L 30 26.667969 L 30 30 L 26.667969 30 Z M 26.667969 26.667969 "/>
</clipPath>
<clipPath id="clip20">
  <path d="M 5.644531 2.300781 L 26.355469 2.300781 C 28.199219 2.300781 29.699219 3.800781 29.699219 5.644531 L 29.699219 26.355469 C 29.699219 28.199219 28.199219 29.699219 26.355469 29.699219 L 5.644531 29.699219 C 3.800781 29.699219 2.300781 28.199219 2.300781 26.355469 L 2.300781 5.644531 C 2.300781 3.800781 3.800781 2.300781 5.644531 2.300781 Z M 5.644531 2.300781 "/>
</clipPath>
<clipPath id="clip21">
  <path d="M 2 23 L 5.332031 23 L 5.332031 27 L 2 27 Z M 2 23 "/>
</clipPath>
<clipPath id="clip22">
  <path d="M 5.644531 2.300781 L 26.355469 2.300781 C 28.199219 2.300781 29.699219 3.800781 29.699219 5.644531 L 29.699219 26.355469 C 29.699219 28.199219 28.199219 29.699219 26.355469 29.699219 L 5.644531 29.699219 C 3.800781 29.699219 2.300781 28.199219 2.300781 26.355469 L 2.300781 5.644531 C 2.300781 3.800781 3.800781 2.300781 5.644531 2.300781 Z M 5.644531 2.300781 "/>
</clipPath>
<clipPath id="clip23">
  <path d="M 5 23 L 9 23 L 9 27 L 5 27 Z M 5 23 "/>
</clipPath>
<clipPath id="clip24">
  <path d="M 5.644531 2.300781 L 26.355469 2.300781 C 28.199219 2.300781 29.699219 3.800781 29.699219 5.644531 L 29.699219 26.355469 C 29.699219 28.199219 28.199219 29.699219 26.355469 29.699219 L 5.644531 29.699219 C 3.800781 29.699219 2.300781 28.199219 2.300781 26.355469 L 2.300781 5.644531 C 2.300781 3.800781 3.800781 2.300781 5.644531 2.300781 Z M 5.644531 2.300781 "/>
</clipPath>
<clipPath id="clip25">
  <path d="M 8.667969 23 L 12.667969 23 L 12.667969 27 L 8.667969 27 Z M 8.667969 23 "/>
</clipPath>
<clipPath id="clip26">
  <path d="M 5.644531 2.300781 L 26.355469 2.300781 C 28.199219 2.300781 29.699219 3.800781 29.699219 5.644531 L 29.699219 26.355469 C 29.699219 28.199219 28.199219 29.699219 26.355469 29.699219 L 5.644531 29.699219 C 3.800781 29.699219 2.300781 28.199219 2.300781 26.355469 L 2.300781 5.644531 C 2.300781 3.800781 3.800781 2.300781 5.644531 2.300781 Z M 5.644531 2.300781 "/>
</clipPath>
<clipPath id="clip27">
  <path d="M 12 23 L 16 23 L 16 27 L 12 27 Z M 12 23 "/>
</clipPath>
<clipPath id="clip28">
  <path d="M 5.644531 2.300781 L 26.355469 2.300781 C 28.199219 2.300781 29.699219 3.800781 29.699219 5.644531 L 29.699219 26.355469 C 29.699219 28.199219 28.199219 29.699219 26.355469 29.699219 L 5.644531 29.699219 C 3.800781 29.699219 2.300781 28.199219 2.300781 26.355469 L 2.300781 5.644531 C 2.300781 3.800781 3.800781 2.300781 5.644531 2.300781 Z M 5.644531 2.300781 "/>
</clipPath>
<clipPath id="clip29">
  <path d="M 16 23 L 20 23 L 20 27 L 16 27 Z M 16 23 "/>
</clipPath>
<clipPath id="clip30">
  <path d="M 5.644531 2.300781 L 26.355469 2.300781 C 28.199219 2.300781 29.699219 3.800781 29.699219 5.644531 L 29.699219 26.355469 C 29.699219 28.199219 28.199219 29.699219 26.355469 29.699219 L 5.644531 29.699219 C 3.800781 29.699219 2.300781 28.199219 2.300781 26.355469 L 2.300781 5.644531 C 2.300781 3.800781 3.800781 2.300781 5.644531 2.300781 Z M 5.644531 2.300781 "/>
</clipPath>
<clipPath id="clip31">
  <path d="M 19.332031 23 L 23.332031 23 L 23.332031 27 L 19.332031 27 Z M 19.332031 23 "/>
</clipPath>
<clipPath id="clip32">
  <path d="M 5.644531 2.300781 L 26.355469 2.300781 C 28.199219 2.300781 29.699219 3.800781 29.699219 5.644531 L 29.699219 26.355469 C 29.699219 28.199219 28.199219 29.699219 26.355469 29.699219 L 5.644531 29.699219 C 3.800781 29.699219 2.300781 28.199219 2.300781 26.355469 L 2.300781 5.644531 C 2.300781 3.800781 3.800781 2.300781 5.644531 2.300781 Z M 5.644531 2.300781 "/>
</clipPath>
<clipPath id="clip33">
  <path d="M 23 23 L 27 23 L 27 27 L 23 27 Z M 23 23 "/>
</clipPath>
<clipPath id="clip34">
  <path d="M 5.644531 2.300781 L 26.355469 2.300781 C 28.199219 2.300781 29.699219 3.800781 29.699219 5.644531 L 29.699219 26.355469 C 29.699219 28.199219 28.199219 29.699219 26.355469 29.699219 L 5.644531 29.699219 C 3.800781 29.699219 2.300781 28.199219 2.300781 26.355469 L 2.300781 5.644531 C 2.300781 3.800781 3.800781 2.300781 5.644531 2.300781 Z M 5.644531 2.300781 "/>
</clipPath>
<clipPath id="clip35">
  <path d="M 26.667969 23 L 30 23 L 30 27 L 26.667969 27 Z M 26.667969 23 "/>
</clipPath>
<clipPath id="clip36">
  <path d="M 5.644531 2.300781 L 26.355469 2.300781 C 28.199219 2.300781 29.699219 3.800781 29.699219 5.644531 L 29.699219 26.355469 C 29.699219 28.199219 28.199219 29.699219 26.355469 29.699219 L 5.644531 29.699219 C 3.800781 29.699219 2.300781 28.199219 2.300781 26.355469 L 2.300781 5.644531 C 2.300781 3.800781 3.800781 2.300781 5.644531 2.300781 Z M 5.644531 2.300781 "/>
</clipPath>
<clipPath id="clip37">
  <path d="M 2 19.332031 L 5.332031 19.332031 L 5.332031 23.332031 L 2 23.332031 Z M 2 19.332031 "/>
</clipPath>
<clipPath id="clip38">
  <path d="M 5.644531 2.300781 L 26.355469 2.300781 C 28.199219 2.300781 29.699219 3.800781 29.699219 5.644531 L 29.699219 26.355469 C 29.699219 28.199219 28.199219 29.699219 26.355469 29.699219 L 5.644531 29.699219 C 3.800781 29.699219 2.300781 28.199219 2.300781 26.355469 L 2.300781 5.644531 C 2.300781 3.800781 3.800781 2.300781 5.644531 2.300781 Z M 5.644531 2.300781 "/>
</clipPath>
<clipPath id="clip39">
  <path d="M 5 19.332031 L 9 19.332031 L 9 23.332031 L 5 23.332031 Z M 5 19.332031 "/>
</clipPath>
<clipPath id="clip40">
  <path d="M 5.644531 2.300781 L 26.355469 2.300781 C 28.199219 2.300781 29.699219 3.800781 29.699219 5.644531 L 29.699219 26.355469 C 29.699219 28.199219 28.199219 29.699219 26.355469 29.699219 L 5.644531 29.699219 C 3.800781 29.699219 2.300781 28.199219 2.300781 26.355469 L 2.300781 5.644531 C 2.300781 3.800781 3.800781 2.300781 5.644531 2.300781 Z M 5.644531 2.300781 "/>
</clipPath>
<clipPath id="clip41">
  <path d="M 8.667969 19.332031 L 12.667969 19.332031 L 12.667969 23.332031 L 8.667969 23.332031 Z M 8.667969 19.332031 "/>
</clipPath>
<clipPath id="clip42">
  <path d="M 5.644531 2.300781 L 26.355469 2.300781 C 28.199219 2.300781 29.699219 3.800781 29.699219 5.644531 L 29.699219 26.355469 C 29.699219 28.199219 28.199219 29.699219 26.355469 29.699219 L 5.644531 29.699219 C 3.800781 29.699219 2.300781 28.199219 2.300781 26.355469 L 2.300781 5.644531 C 2.300781 3.800781 3.800781 2.300781 5.644531 2.300781 Z M 5.644531 2.300781 "/>
</clipPath>
<clipPath id="clip43">
  <path d="M 12 19.332031 L 16 19.332031 L 16 23.332031 L 12 23.332031 Z M 12 19.332031 "/>
</clipPath>
<clipPath id="clip44">
  <path d="M 5.644531 2.300781 L 26.355469 2.300781 C 28.199219 2.300781 29.699219 3.800781 29.699219 5.644531 L 29.699219 26.355469 C 29.699219 28.199219 28.199219 29.699219 26.355469 29.699219 L 5.644531 29.699219 C 3.800781 29.699219 2.300781 28.199219 2.300781 26.355469 L 2.300781 5.644531 C 2.300781 3.800781 3.800781 2.300781 5.644531 2.300781 Z M 5.644531 2.300781 "/>
</clipPath>
<clipPath id="clip45">
  <path d="M 16 19.332031 L 20 19.332031 L 20 23.332031 L 16 23.332031 Z M 16 19.332031 "/>
</clipPath>
<clipPath id="clip46">
  <path d="M 5.644531 2.300781 L 26.355469 2.300781 C 28.199219 2.300781 29.699219 3.800781 29.699219 5.644531 L 29.699219 26.355469 C 29.699219 28.199219 28.199219 29.699219 26.355469 29.699219 L 5.644531 29.699219 C 3.800781 29.699219 2.300781 28.199219 2.300781 26.355469 L 2.300781 5.644531 C 2.300781 3.800781 3.800781 2.300781 5.644531 2.300781 Z M 5.644531 2.300781 "/>
</clipPath>
<clipPath id="clip47">
  <path d="M 19.332031 19.332031 L 23.332031 19.332031 L 23.332031 23.332031 L 19.332031 23.332031 Z M 19.332031 19.332031 "/>
</clipPath>
<clipPath id="clip48">
  <path d="M 5.644531 2.300781 L 26.355469 2.300781 C 28.199219 2.300781 29.699219 3.800781 29.699219 5.644531 L 29.699219 26.355469 C 29.699219 28.199219 28.199219 29.699219 26.355469 29.699219 L 5.644531 29.699219 C 3.800781 29.699219 2.300781 28.199219 2.300781 26.355469 L 2.300781 5.644531 C 2.300781 3.800781 3.800781 2.300781 5.644531 2.300781 Z M 5.644531 2.300781 "/>
</clipPath>
<clipPath id="clip49">
  <path d="M 23 19.332031 L 27 19.332031 L 27 23.332031 L 23 23.332031 Z M 23 19.332031 "/>
</clipPath>
<clipPath id="clip50">
  <path d="M 5.644531 2.300781 L 26.355469 2.300781 C 28.199219 2.300781 29.699219 3.800781 29.699219 5.644531 L 29.699219 26.355469 C 29.699219 28.199219 28.199219 29.699219 26.355469 29.699219 L 5.644531 29.699219 C 3.800781 29.699219 2.300781 28.199219 2.300781 26.355469 L 2.300781 5.644531 C 2.300781 3.800781 3.800781 2.300781 5.644531 2.300781 Z M 5.644531 2.300781 "/>
</clipPath>
<clipPath id="clip51">
  <path d="M 26.667969 19.332031 L 30 19.332031 L 30 23.332031 L 26.667969 23.332031 Z M 26.667969 19.332031 "/>
</clipPath>
<clipPath id="clip52">
  <path d="M 5.644531 2.300781 L 26.355469 2.300781 C 28.199219 2.300781 29.699219 3.800781 29.699219 5.644531 L 29.699219 26.355469 C 29.699219 28.199219 28.199219 29.699219 26.355469 29.699219 L 5.644531 29.699219 C 3.800781 29.699219 2.300781 28.199219 2.300781 26.355469 L 2.300781 5.644531 C 2.300781 3.800781 3.800781 2.300781 5.644531 2.300781 Z M 5.644531 2.300781 "/>
</clipPath>
<clipPath id="clip53">
  <path d="M 2 16 L 5.332031 16 L 5.332031 20 L 2 20 Z M 2 16 "/>
</clipPath>
<clipPath id="clip54">
  <path d="M 5.644531 2.300781 L 26.355469 2.300781 C 28.199219 2.300781 29.699219 3.800781 29.699219 5.644531 L 29.699219 26.355469 C 29.699219 28.199219 28.199219 29.699219 26.355469 29.699219 L 5.644531 29.699219 C 3.800781 29.699219 2.300781 28.199219 2.300781 26.355469 L 2.300781 5.644531 C 2.300781 3.800781 3.800781 2.300781 5.644531 2.300781 Z M 5.644531 2.300781 "/>
</clipPath>
<clipPath id="clip55">
  <path d="M 5 16 L 9 16 L 9 20 L 5 20 Z M 5 16 "/>
</clipPath>
<clipPath id="clip56">
  <path d="M 5.644531 2.300781 L 26.355469 2.300781 C 28.199219 2.300781 29.699219 3.800781 29.699219 5.644531 L 29.699219 26.355469 C 29.699219 28.199219 28.199219 29.699219 26.355469 29.699219 L 5.644531 29.699219 C 3.800781 29.699219 2.300781 28.199219 2.300781 26.355469 L 2.300781 5.644531 C 2.300781 3.800781 3.800781 2.300781 5.644531 2.300781 Z M 5.644531 2.300781 "/>
</clipPath>
<clipPath id="clip57">
  <path d="M 8.667969 16 L 12.667969 16 L 12.667969 20 L 8.667969 20 Z M 8.667969 16 "/>
</clipPath>
<clipPath id="clip58">
  <path d="M 5.644531 2.300781 L 26.355469 2.300781 C 28.199219 2.300781 29.699219 3.800781 29.699219 5.644531 L 29.699219 26.355469 C 29.699219 28.199219 28.199219 29.699219 26.355469 29.699219 L 5.644531 29.699219 C 3.800781 29.699219 2.300781 28.199219 2.300781 26.355469 L 2.300781 5.644531 C 2.300781 3.800781 3.800781 2.300781 5.644531 2.300781 Z M 5.644531 2.300781 "/>
</clipPath>
<clipPath id="clip59">
  <path d="M 12 16 L 16 16 L 16 20 L 12 20 Z M 12 16 "/>
</clipPath>
<clipPath id="clip60">
  <path d="M 5.644531 2.300781 L 26.355469 2.300781 C 28.199219 2.300781 29.699219 3.800781 29.699219 5.644531 L 29.699219 26.355469 C 29.699219 28.199219 28.199219 29.699219 26.355469 29.699219 L 5.644531 29.699219 C 3.800781 29.699219 2.300781 28.199219 2.300781 26.355469 L 2.300781 5.644531 C 2.300781 3.800781 3.800781 2.300781 5.644531 2.300781 Z M 5.644531 2.300781 "/>
</clipPath>
<clipPath id="clip61">
  <path d="M 16 16 L 20 16 L 20 20 L 16 20 Z M 16 16 "/>
</clipPath>
<clipPath id="clip62">
  <path d="M 5.644531 2.300781 L 26.355469 2.300781 C 28.199219 2.300781 29.699219 3.800781 29.699219 5.644531 L 29.699219 26.355469 C 29.699219 28.199219 28.199219 29.699219 26.355469 29.699219 L 5.644531 29.699219 C 3.800781 29.699219 2.300781 28.199219 2.300781 26.355469 L 2.300781 5.644531 C 2.300781 3.800781 3.800781 2.300781 5.644531 2.300781 Z M 5.644531 2.300781 "/>
</clipPath>
<clipPath id="clip63">
  <path d="M 19.332031 16 L 23.332031 16 L 23.332031 20 L 19.332031 20 Z M 19.332031 16 "/>
</clipPath>
<clipPath id="clip64">
  <path d="M 5.644531 2.300781 L 26.355469 2.300781 C 28.199219 2.300781 29.699219 3.800781 29.699219 5.644531 L 29.699219 26.355469 C 29.699219 28.199219 28.199219 29.699219 26.355469 29.699219 L 5.644531 29.699219 C 3.800781 29.699219 2.300781 28.199219 2.300781 26.355469 L 2.300781 5.644531 C 2.300781 3.800781 3.800781 2.300781 5.644531 2.300781 Z M 5.644531 2.300781 "/>
</clipPath>
<clipPath id="clip65">
  <path d="M 23 16 L 27 16 L 27 20 L 23 20 Z M 23 16 "/>
</clipPath>
<clipPath id="clip66">
  <path d="M 5.644531 2.300781 L 26.355469 2.300781 C 28.199219 2.300781 29.699219 3.800781 29.699219 5.644531 L 29.699219 26.355469 C 29.699219 28.199219 28.199219 29.699219 26.355469 29.699219 L 5.644531 29.699219 C 3.800781 29.699219 2.300781 28.199219 2.300781 26.355469 L 2.300781 5.644531 C 2.300781 3.800781 3.800781 2.300781 5.644531 2.300781 Z M 5.644531 2.300781 "/>
</clipPath>
<clipPath id="clip67">
  <path d="M 26.667969 16 L 30 16 L 30 20 L 26.667969 20 Z M 26.667969 16 "/>
</clipPath>
<clipPath id="clip68">
  <path d="M 5.644531 2.300781 L 26.355469 2.300781 C 28.199219 2.300781 29.699219 3.800781 29.699219 5.644531 L 29.699219 26.355469 C 29.699219 28.199219 28.199219 29.699219 26.355469 29.699219 L 5.644531 29.699219 C 3.800781 29.699219 2.300781 28.199219 2.300781 26.355469 L 2.300781 5.644531 C 2.300781 3.800781 3.800781 2.300781 5.644531 2.300781 Z M 5.644531 2.300781 "/>
</clipPath>
<clipPath id="clip69">
  <path d="M 2 2 L 16 2 L 16 16 L 2 16 Z M 2 2 "/>
</clipPath>
<clipPath id="clip70">
  <path d="M 5.644531 2.300781 L 26.355469 2.300781 C 28.199219 2.300781 29.699219 3.800781 29.699219 5.644531 L 29.699219 26.355469 C 29.699219 28.199219 28.199219 29.699219 26.355469 29.699219 L 5.644531 29.699219 C 3.800781 29.699219 2.300781 28.199219 2.300781 26.355469 L 2.300781 5.644531 C 2.300781 3.800781 3.800781 2.300781 5.644531 2.300781 Z M 5.644531 2.300781 "/>
</clipPath>
<clipPath id="clip71">
  <path d="M 2 12 L 5.332031 12 L 5.332031 16 L 2 16 Z M 2 12 "/>
</clipPath>
<clipPath id="clip72">
  <path d="M 5.644531 2.300781 L 26.355469 2.300781 C 28.199219 2.300781 29.699219 3.800781 29.699219 5.644531 L 29.699219 26.355469 C 29.699219 28.199219 28.199219 29.699219 26.355469 29.699219 L 5.644531 29.699219 C 3.800781 29.699219 2.300781 28.199219 2.300781 26.355469 L 2.300781 5.644531 C 2.300781 3.800781 3.800781 2.300781 5.644531 2.300781 Z M 5.644531 2.300781 "/>
</clipPath>
<clipPath id="clip73">
  <path d="M 5 12 L 9 12 L 9 16 L 5 16 Z M 5 12 "/>
</clipPath>
<clipPath id="clip74">
  <path d="M 5.644531 2.300781 L 26.355469 2.300781 C 28.199219 2.300781 29.699219 3.800781 29.699219 5.644531 L 29.699219 26.355469 C 29.699219 28.199219 28.199219 29.699219 26.355469 29.699219 L 5.644531 29.699219 C 3.800781 29.699219 2.300781 28.199219 2.300781 26.355469 L 2.300781 5.644531 C 2.300781 3.800781 3.800781 2.300781 5.644531 2.300781 Z M 5.644531 2.300781 "/>
</clipPath>
<clipPath id="clip75">
  <path d="M 8.667969 12 L 12.667969 12 L 12.667969 16 L 8.667969 16 Z M 8.667969 12 "/>
</clipPath>
<clipPath id="clip76">
  <path d="M 5.644531 2.300781 L 26.355469 2.300781 C 28.199219 2.300781 29.699219 3.800781 29.699219 5.644531 L 29.699219 26.355469 C 29.699219 28.199219 28.199219 29.699219 26.355469 29.699219 L 5.644531 29.699219 C 3.800781 29.699219 2.300781 28.199219 2.300781 26.355469 L 2.300781 5.644531 C 2.300781 3.800781 3.800781 2.300781 5.644531 2.300781 Z M 5.644531 2.300781 "/>
</clipPath>
<clipPath id="clip77">
  <path d="M 12 12 L 16 12 L 16 16 L 12 16 Z M 12 12 "/>
</clipPath>
<clipPath id="clip78">
  <path d="M 5.644531 2.300781 L 26.355469 2.300781 C 28.199219 2.300781 29.699219 3.800781 29.699219 5.644531 L 29.699219 26.355469 C 29.699219 28.199219 28.199219 29.699219 26.355469 29.699219 L 5.644531 29.699219 C 3.800781 29.699219 2.300781 28.199219 2.300781 26.355469 L 2.300781 5.644531 C 2.300781 3.800781 3.800781 2.300781 5.644531 2.300781 Z M 5.644531 2.300781 "/>
</clipPath>
<clipPath id="clip79">
  <path d="M 16 12 L 20 12 L 20 16 L 16 16 Z M 16 12 "/>
</clipPath>
<clipPath id="clip80">
  <path d="M 5.644531 2.300781 L 26.355469 2.300781 C 28.199219 2.300781 29.699219 3.800781 29.699219 5.644531 L 29.699219 26.355469 C 29.699219 28.199219 28.199219 29.699219 26.355469 29.699219 L 5.644531 29.699219 C 3.800781 29.699219 2.300781 28.199219 2.300781 26.355469 L 2.300781 5.644531 C 2.300781 3.800781 3.800781 2.300781 5.644531 2.300781 Z M 5.644531 2.300781 "/>
</clipPath>
<clipPath id="clip81">
  <path d="M 19.332031 12 L 23.332031 12 L 23.332031 16 L 19.332031 16 Z M 19.332031 12 "/>
</clipPath>
<clipPath id="clip82">
  <path d="M 5.644531 2.300781 L 26.355469 2.300781 C 28.199219 2.300781 29.699219 3.800781 29.699219 5.644531 L 29.699219 26.355469 C 29.699219 28.199219 28.199219 29.699219 26.355469 29.699219 L 5.644531 29.699219 C 3.800781 29.699219 2.300781 28.199219 2.300781 26.355469 L 2.300781 5.644531 C 2.300781 3.800781 3.800781 2.300781 5.644531 2.300781 Z M 5.644531 2.300781 "/>
</clipPath>
<clipPath id="clip83">
  <path d="M 23 12 L 27 12 L 27 16 L 23 16 Z M 23 12 "/>
</clipPath>
<clipPath id="clip84">
  <path d="M 5.644531 2.300781 L 26.355469 2.300781 C 28.199219 2.300781 29.699219 3.800781 29.699219 5.644531 L 29.699219 26.355469 C 29.699219 28.199219 28.199219 29.699219 26.355469 29.699219 L 5.644531 29.699219 C 3.800781 29.699219 2.300781 28.199219 2.300781 26.355469 L 2.300781 5.644531 C 2.300781 3.800781 3.800781 2.300781 5.644531 2.300781 Z M 5.644531 2.300781 "/>
</clipPath>
<clipPath id="clip85">
  <path d="M 26.667969 12 L 30 12 L 30 16 L 26.667969 16 Z M 26.667969 12 "/>
</clipPath>
<clipPath id="clip86">
  <path d="M 5.644531 2.300781 L 26.355469 2.300781 C 28.199219 2.300781 29.699219 3.800781 29.699219 5.644531 L 29.699219 26.355469 C 29.699219 28.199219 28.199219 29.699219 26.355469 29.699219 L 5.644531 29.699219 C 3.800781 29.699219 2.300781 28.199219 2.300781 26.355469 L 2.300781 5.644531 C 2.300781 3.800781 3.800781 2.300781 5.644531 2.300781 Z M 5.644531 2.300781 "/>
</clipPath>
<clipPath id="clip87">
  <path d="M 2 8.667969 L 5.332031 8.667969 L 5.332031 12.667969 L 2 12.667969 Z M 2 8.667969 "/>
</clipPath>
<clipPath id="clip88">
  <path d="M 5.644531 2.300781 L 26.355469 2.300781 C 28.199219 2.300781 29.699219 3.800781 29.699219 5.644531 L 29.699219 26.355469 C 29.699219 28.199219 28.199219 29.699219 26.355469 29.699219 L 5.644531 29.699219 C 3.800781 29.699219 2.300781 28.199219 2.300781 26.355469 L 2.300781 5.644531 C 2.300781 3.800781 3.800781 2.300781 5.644531 2.300781 Z M 5.644531 2.300781 "/>
</clipPath>
<clipPath id="clip89">
  <path d="M 5 8.667969 L 9 8.667969 L 9 12.667969 L 5 12.667969 Z M 5 8.667969 "/>
</clipPath>
<clipPath id="clip90">
  <path d="M 5.644531 2.300781 L 26.355469 2.300781 C 28.199219 2.300781 29.699219 3.800781 29.699219 5.644531 L 29.699219 26.355469 C 29.699219 28.199219 28.199219 29.699219 26.355469 29.699219 L 5.644531 29.699219 C 3.800781 29.699219 2.300781 28.199219 2.300781 26.355469 L 2.300781 5.644531 C 2.300781 3.800781 3.800781 2.300781 5.644531 2.300781 Z M 5.644531 2.300781 "/>
</clipPath>
<clipPath id="clip91">
  <path d="M 8.667969 8.667969 L 12.667969 8.667969 L 12.667969 12.667969 L 8.667969 12.667969 Z M 8.667969 8.667969 "/>
</clipPath>
<clipPath id="clip92">
  <path d="M 5.644531 2.300781 L 26.355469 2.300781 C 28.199219 2.300781 29.699219 3.800781 29.699219 5.644531 L 29.699219 26.355469 C 29.699219 28.199219 28.199219 29.699219 26.355469 29.699219 L 5.644531 29.699219 C 3.800781 29.699219 2.300781 28.199219 2.300781 26.355469 L 2.300781 5.644531 C 2.300781 3.800781 3.800781 2.300781 5.644531 2.300781 Z M 5.644531 2.300781 "/>
</clipPath>
<clipPath id="clip93">
  <path d="M 12 8.667969 L 16 8.667969 L 16 12.667969 L 12 12.667969 Z M 12 8.667969 "/>
</clipPath>
<clipPath id="clip94">
  <path d="M 5.644531 2.300781 L 26.355469 2.300781 C 28.199219 2.300781 29.699219 3.800781 29.699219 5.644531 L 29.699219 26.355469 C 29.699219 28.199219 28.199219 29.699219 26.355469 29.699219 L 5.644531 29.699219 C 3.800781 29.699219 2.300781 28.199219 2.300781 26.355469 L 2.300781 5.644531 C 2.300781 3.800781 3.800781 2.300781 5.644531 2.300781 Z M 5.644531 2.300781 "/>
</clipPath>
<clipPath id="clip95">
  <path d="M 16 8.667969 L 20 8.667969 L 20 12.667969 L 16 12.667969 Z M 16 8.667969 "/>
</clipPath>
<clipPath id="clip96">
  <path d="M 5.644531 2.300781 L 26.355469 2.300781 C 28.199219 2.300781 29.699219 3.800781 29.699219 5.644531 L 29.699219 26.355469 C 29.699219 28.199219 28.199219 29.699219 26.355469 29.699219 L 5.644531 29.699219 C 3.800781 29.699219 2.300781 28.199219 2.300781 26.355469 L 2.300781 5.644531 C 2.300781 3.800781 3.800781 2.300781 5.644531 2.300781 Z M 5.644531 2.300781 "/>
</clipPath>
<clipPath id="clip97">
  <path d="M 19.332031 8.667969 L 23.332031 8.667969 L 23.332031 12.667969 L 19.332031 12.667969 Z M 19.332031 8.667969 "/>
</clipPath>
<clipPath id="clip98">
  <path d="M 5.644531 2.300781 L 26.355469 2.300781 C 28.199219 2.300781 29.699219 3.800781 29.699219 5.644531 L 29.699219 26.355469 C 29.699219 28.199219 28.199219 29.699219 26.355469 29.699219 L 5.644531 29.699219 C 3.800781 29.699219 2.300781 28.199219 2.300781 26.355469 L 2.300781 5.644531 C 2.300781 3.800781 3.800781 2.300781 5.644531 2.300781 Z M 5.644531 2.300781 "/>
</clipPath>
<clipPath id="clip99">
  <path d="M 23 8.667969 L 27 8.667969 L 27 12.667969 L 23 12.667969 Z M 23 8.667969 "/>
</clipPath>
<clipPath id="clip100">
  <path d="M 5.644531 2.300781 L 26.355469 2.300781 C 28.199219 2.300781 29.699219 3.800781 29.699219 5.644531 L 29.699219 26.355469 C 29.699219 28.199219 28.199219 29.699219 26.355469 29.699219 L 5.644531 29.699219 C 3.800781 29.699219 2.300781 28.199219 2.300781 26.355469 L 2.300781 5.644531 C 2.300781 3.800781 3.800781 2.300781 5.644531 2.300781 Z M 5.644531 2.300781 "/>
</clipPath>
<clipPath id="clip101">
  <path d="M 26.667969 8.667969 L 30 8.667969 L 30 12.667969 L 26.667969 12.667969 Z M 26.667969 8.667969 "/>
</clipPath>
<clipPath id="clip102">
  <path d="M 5.644531 2.300781 L 26.355469 2.300781 C 28.199219 2.300781 29.699219 3.800781 29.699219 5.644531 L 29.699219 26.355469 C 29.699219 28.199219 28.199219 29.699219 26.355469 29.699219 L 5.644531 29.699219 C 3.800781 29.699219 2.300781 28.199219 2.300781 26.355469 L 2.300781 5.644531 C 2.300781 3.800781 3.800781 2.300781 5.644531 2.300781 Z M 5.644531 2.300781 "/>
</clipPath>
<clipPath id="clip103">
  <path d="M 2 5 L 5.332031 5 L 5.332031 9 L 2 9 Z M 2 5 "/>
</clipPath>
<clipPath id="clip104">
  <path d="M 5.644531 2.300781 L 26.355469 2.300781 C 28.199219 2.300781 29.699219 3.800781 29.699219 5.644531 L 29.699219 26.355469 C 29.699219 28.199219 28.199219 29.699219 26.355469 29.699219 L 5.644531 29.699219 C 3.800781 29.699219 2.300781 28.199219 2.300781 26.355469 L 2.300781 5.644531 C 2.300781 3.800781 3.800781 2.300781 5.644531 2.300781 Z M 5.644531 2.300781 "/>
</clipPath>
<clipPath id="clip105">
  <path d="M 5 5 L 9 5 L 9 9 L 5 9 Z M 5 5 "/>
</clipPath>
<clipPath id="clip106">
  <path d="M 5.644531 2.300781 L 26.355469 2.300781 C 28.199219 2.300781 29.699219 3.800781 29.699219 5.644531 L 29.699219 26.355469 C 29.699219 28.199219 28.199219 29.699219 26.355469 29.699219 L 5.644531 29.699219 C 3.800781 29.699219 2.300781 28.199219 2.300781 26.355469 L 2.300781 5.644531 C 2.300781 3.800781 3.800781 2.300781 5.644531 2.300781 Z M 5.644531 2.300781 "/>
</clipPath>
<clipPath id="clip107">
  <path d="M 8.667969 5 L 12.667969 5 L 12.667969 9 L 8.667969 9 Z M 8.667969 5 "/>
</clipPath>
<clipPath id="clip108">
  <path d="M 5.644531 2.300781 L 26.355469 2.300781 C 28.199219 2.300781 29.699219 3.800781 29.699219 5.644531 L 29.699219 26.355469 C 29.699219 28.199219 28.199219 29.699219 26.355469 29.699219 L 5.644531 29.699219 C 3.800781 29.699219 2.300781 28.199219 2.300781 26.355469 L 2.300781 5.644531 C 2.300781 3.800781 3.800781 2.300781 5.644531 2.300781 Z M 5.644531 2.300781 "/>
</clipPath>
<clipPath id="clip109">
  <path d="M 12 5 L 16 5 L 16 9 L 12 9 Z M 12 5 "/>
</clipPath>
<clipPath id="clip110">
  <path d="M 5.644531 2.300781 L 26.355469 2.300781 C 28.199219 2.300781 29.699219 3.800781 29.699219 5.644531 L 29.699219 26.355469 C 29.699219 28.199219 28.199219 29.699219 26.355469 29.699219 L 5.644531 29.699219 C 3.800781 29.699219 2.300781 28.199219 2.300781 26.355469 L 2.300781 5.644531 C 2.300781 3.800781 3.800781 2.300781 5.644531 2.300781 Z M 5.644531 2.300781 "/>
</clipPath>
<clipPath id="clip111">
  <path d="M 16 5 L 20 5 L 20 9 L 16 9 Z M 16 5 "/>
</clipPath>
<clipPath id="clip112">
  <path d="M 5.644531 2.300781 L 26.355469 2.300781 C 28.199219 2.300781 29.699219 3.800781 29.699219 5.644531 L 29.699219 26.355469 C 29.699219 28.199219 28.199219 29.699219 26.355469 29.699219 L 5.644531 29.699219 C 3.800781 29.699219 2.300781 28.199219 2.300781 26.355469 L 2.300781 5.644531 C 2.300781 3.800781 3.800781 2.300781 5.644531 2.300781 Z M 5.644531 2.300781 "/>
</clipPath>
<clipPath id="clip113">
  <path d="M 19.332031 5 L 23.332031 5 L 23.332031 9 L 19.332031 9 Z M 19.332031 5 "/>
</clipPath>
<clipPath id="clip114">
  <path d="M 5.644531 2.300781 L 26.355469 2.300781 C 28.199219 2.300781 29.699219 3.800781 29.699219 5.644531 L 29.699219 26.355469 C 29.699219 28.199219 28.199219 29.699219 26.355469 29.699219 L 5.644531 29.699219 C 3.800781 29.699219 2.300781 28.199219 2.300781 26.355469 L 2.300781 5.644531 C 2.300781 3.800781 3.800781 2.300781 5.644531 2.300781 Z M 5.644531 2.300781 "/>
</clipPath>
<clipPath id="clip115">
  <path d="M 23 5 L 27 5 L 27 9 L 23 9 Z M 23 5 "/>
</clipPath>
<clipPath id="clip116">
  <path d="M 5.644531 2.300781 L 26.355469 2.300781 C 28.199219 2.300781 29.699219 3.800781 29.699219 5.644531 L 29.699219 26.355469 C 29.699219 28.199219 28.199219 29.699219 26.355469 29.699219 L 5.644531 29.699219 C 3.800781 29.699219 2.300781 28.199219 2.300781 26.355469 L 2.300781 5.644531 C 2.300781 3.800781 3.800781 2.300781 5.644531 2.300781 Z M 5.644531 2.300781 "/>
</clipPath>
<clipPath id="clip117">
  <path d="M 26.667969 5 L 30 5 L 30 9 L 26.667969 9 Z M 26.667969 5 "/>
</clipPath>
<clipPath id="clip118">
  <path d="M 5.644531 2.300781 L 26.355469 2.300781 C 28.199219 2.300781 29.699219 3.800781 29.699219 5.644531 L 29.699219 26.355469 C 29.699219 28.199219 28.199219 29.699219 26.355469 29.699219 L 5.644531 29.699219 C 3.800781 29.699219 2.300781 28.199219 2.300781 26.355469 L 2.300781 5.644531 C 2.300781 3.800781 3.800781 2.300781 5.644531 2.300781 Z M 5.644531 2.300781 "/>
</clipPath>
<clipPath id="clip119">
  <path d="M 2 2 L 5.332031 2 L 5.332031 5.332031 L 2 5.332031 Z M 2 2 "/>
</clipPath>
<clipPath id="clip120">
  <path d="M 5.644531 2.300781 L 26.355469 2.300781 C 28.199219 2.300781 29.699219 3.800781 29.699219 5.644531 L 29.699219 26.355469 C 29.699219 28.199219 28.199219 29.699219 26.355469 29.699219 L 5.644531 29.699219 C 3.800781 29.699219 2.300781 28.199219 2.300781 26.355469 L 2.300781 5.644531 C 2.300781 3.800781 3.800781 2.300781 5.644531 2.300781 Z M 5.644531 2.300781 "/>
</clipPath>
<clipPath id="clip121">
  <path d="M 5 2 L 9 2 L 9 5.332031 L 5 5.332031 Z M 5 2 "/>
</clipPath>
<clipPath id="clip122">
  <path d="M 5.644531 2.300781 L 26.355469 2.300781 C 28.199219 2.300781 29.699219 3.800781 29.699219 5.644531 L 29.699219 26.355469 C 29.699219 28.199219 28.199219 29.699219 26.355469 29.699219 L 5.644531 29.699219 C 3.800781 29.699219 2.300781 28.199219 2.300781 26.355469 L 2.300781 5.644531 C 2.300781 3.800781 3.800781 2.300781 5.644531 2.300781 Z M 5.644531 2.300781 "/>
</clipPath>
<clipPath id="clip123">
  <path d="M 8.667969 2 L 12.667969 2 L 12.667969 5.332031 L 8.667969 5.332031 Z M 8.667969 2 "/>
</clipPath>
<clipPath id="clip124">
  <path d="M 5.644531 2.300781 L 26.355469 2.300781 C 28.199219 2.300781 29.699219 3.800781 29.699219 5.644531 L 29.699219 26.355469 C 29.699219 28.199219 28.199219 29.699219 26.355469 29.699219 L 5.644531 29.699219 C 3.800781 29.699219 2.300781 28.199219 2.300781 26.355469 L 2.300781 5.644531 C 2.300781 3.800781 3.800781 2.300781 5.644531 2.300781 Z M 5.644531 2.300781 "/>
</clipPath>
<clipPath id="clip125">
  <path d="M 12 2 L 16 2 L 16 5.332031 L 12 5.332031 Z M 12 2 "/>
</clipPath>
<clipPath id="clip126">
  <path d="M 5.644531 2.300781 L 26.355469 2.300781 C 28.199219 2.300781 29.699219 3.800781 29.699219 5.644531 L 29.699219 26.355469 C 29.699219 28.199219 28.199219 29.699219 26.355469 29.699219 L 5.644531 29.699219 C 3.800781 29.699219 2.300781 28.199219 2.300781 26.355469 L 2.300781 5.644531 C 2.300781 3.800781 3.800781 2.300781 5.644531 2.300781 Z M 5.644531 2.300781 "/>
</clipPath>
<clipPath id="clip127">
  <path d="M 16 2 L 20 2 L 20 5.332031 L 16 5.332031 Z M 16 2 "/>
</clipPath>
<clipPath id="clip128">
  <path d="M 5.644531 2.300781 L 26.355469 2.300781 C 28.199219 2.300781 29.699219 3.800781 29.699219 5.644531 L 29.699219 26.355469 C 29.699219 28.199219 28.199219 29.699219 26.355469 29.699219 L 5.644531 29.699219 C 3.800781 29.699219 2.300781 28.199219 2.300781 26.355469 L 2.300781 5.644531 C 2.300781 3.800781 3.800781 2.300781 5.644531 2.300781 Z M 5.644531 2.300781 "/>
</clipPath>
<clipPath id="clip129">
  <path d="M 19.332031 2 L 23.332031 2 L 23.332031 5.332031 L 19.332031 5.332031 Z M 19.332031 2 "/>
</clipPath>
<clipPath id="clip130">
  <path d="M 5.644531 2.300781 L 26.355469 2.300781 C 28.199219 2.300781 29.699219 3.800781 29.699219 5.644531 L 29.699219 26.355469 C 29.699219 28.199219 28.199219 29.699219 26.355469 29.699219 L 5.644531 29.699219 C 3.800781 29.699219 2.300781 28.199219 2.300781 26.355469 L 2.300781 5.644531 C 2.300781 3.800781 3.800781 2.300781 5.644531 2.300781 Z M 5.644531 2.300781 "/>
</clipPath>
<clipPath id="clip131">
  <path d="M 23 2 L 27 2 L 27 5.332031 L 23 5.332031 Z M 23 2 "/>
</clipPath>
<clipPath id="clip132">
  <path d="M 5.644531 2.300781 L 26.355469 2.300781 C 28.199219 2.300781 29.699219 3.800781 29.699219 5.644531 L 29.699219 26.355469 C 29.699219 28.199219 28.199219 29.699219 26.355469 29.699219 L 5.644531 29.699219 C 3.800781 29.699219 2.300781 28.199219 2.300781 26.355469 L 2.300781 5.644531 C 2.300781 3.800781 3.800781 2.300781 5.644531 2.300781 Z M 5.644531 2.300781 "/>
</clipPath>
<clipPath id="clip133">
  <path d="M 26.667969 2 L 30 2 L 30 5.332031 L 26.667969 5.332031 Z M 26.667969 2 "/>
</clipPath>
<clipPath id="clip134">
  <path d="M 5.644531 2.300781 L 26.355469 2.300781 C 28.199219 2.300781 29.699219 3.800781 29.699219 5.644531 L 29.699219 26.355469 C 29.699219 28.199219 28.199219 29.699219 26.355469 29.699219 L 5.644531 29.699219 C 3.800781 29.699219 2.300781 28.199219 2.300781 26.355469 L 2.300781 5.644531 C 2.300781 3.800781 3.800781 2.300781 5.644531 2.300781 Z M 5.644531 2.300781 "/>
</clipPath>
<clipPath id="clip135">
  <path d="M 2 8.667969 L 30 8.667969 L 30 30 L 2 30 Z M 2 8.667969 "/>
</clipPath>
<clipPath id="clip136">
  <path d="M 5.644531 2.300781 L 26.355469 2.300781 C 28.199219 2.300781 29.699219 3.800781 29.699219 5.644531 L 29.699219 26.355469 C 29.699219 28.199219 28.199219 29.699219 26.355469 29.699219 L 5.644531 29.699219 C 3.800781 29.699219 2.300781 28.199219 2.300781 26.355469 L 2.300781 5.644531 C 2.300781 3.800781 3.800781 2.300781 5.644531 2.300781 Z M 5.644531 2.300781 "/>
</clipPath>
</defs>
<g id="surface1">
<path style="fill-rule:nonzero;fill:rgb(40.784314%,27.843139%,15.686275%);fill-opacity:1;stroke-width:28.071352;stroke-linecap:butt;stroke-linejoin:miter;stroke:rgb(40.784314%,27.843139%,15.686275%);stroke-opacity:1;stroke-miterlimit:4;" d="M 82.1875 26.0625 L 429.8125 26.0625 C 460.8125 26.0625 485.9375 51.1875 485.9375 82.1875 L 485.9375 429.8125 C 485.9375 460.8125 460.8125 485.9375 429.8125 485.9375 L 82.1875 485.9375 C 51.1875 485.9375 26.0625 460.8125 26.0625 429.8125 L 26.0625 82.1875 C 26.0625 51.1875 51.1875 26.0625 82.1875 26.0625 Z M 82.1875 26.0625 " transform="matrix(0.0625,0,0,0.0625,0,0)"/>
<g clip-path="url(#clip1)" clip-rule="nonzero">
<g clip-path="url(#clip2)" clip-rule="nonzero">
<path style=" stroke:none;fill-rule:nonzero;fill:rgb(45.882353%,74.117649%,45.09804%);fill-opacity:1;" d="M 1.707031 1.523438 L 30.292969 1.523438 L 30.292969 30.476562 L 1.707031 30.476562 Z M 1.707031 1.523438 "/>
</g>
</g>
<g clip-path="url(#clip3)" clip-rule="nonzero">
<g clip-path="url(#clip4)" clip-rule="nonzero">
<path style=" stroke:none;fill-rule:nonzero;fill:rgb(34.901962%,69.01961%,34.117648%);fill-opacity:1;" d="M 1.707031 16 L 16 16 L 16 30.476562 L 1.707031 30.476562 Z M 1.707031 16 "/>
</g>
</g>
<g clip-path="url(#clip5)" clip-rule="nonzero">
<g clip-path="url(#clip6)" clip-rule="nonzero">
<path style=" stroke:none;fill-rule:nonzero;fill:rgb(56.078434%,38.039216%,20%);fill-opacity:1;" d="M 1.707031 26.855469 L 5.277344 26.855469 L 5.277344 30.476562 L 1.707031 30.476562 Z M 1.707031 26.855469 "/>
</g>
</g>
<g clip-path="url(#clip7)" clip-rule="nonzero">
<g clip-path="url(#clip8)" clip-rule="nonzero">
<path style=" stroke:none;fill-rule:nonzero;fill:rgb(63.137257%,43.137255%,22.745098%);fill-opacity:1;" d="M 5.277344 26.855469 L 8.851562 26.855469 L 8.851562 30.476562 L 5.277344 30.476562 Z M 5.277344 26.855469 "/>
</g>
</g>
<g clip-path="url(#clip9)" clip-rule="nonzero">
<g clip-path="url(#clip10)" clip-rule="nonzero">
<path style=" stroke:none;fill-rule:nonzero;fill:rgb(52.156866%,36.078432%,18.82353%);fill-opacity:1;" d="M 8.851562 26.855469 L 12.425781 26.855469 L 12.425781 30.476562 L 8.851562 30.476562 Z M 8.851562 26.855469 "/>
</g>
</g>
<g clip-path="url(#clip11)" clip-rule="nonzero">
<g clip-path="url(#clip12)" clip-rule="nonzero">
<path style=" stroke:none;fill-rule:nonzero;fill:rgb(70.980394%,47.058824%,21.960784%);fill-opacity:1;" d="M 12.425781 26.855469 L 16 26.855469 L 16 30.476562 L 12.425781 30.476562 Z M 12.425781 26.855469 "/>
</g>
</g>
<g clip-path="url(#clip13)" clip-rule="nonzero">
<g clip-path="url(#clip14)" clip-rule="nonzero">
<path style=" stroke:none;fill-rule:nonzero;fill:rgb(58.039218%,40.000001%,20.784314%);fill-opacity:1;" d="M 16 26.855469 L 19.574219 26.855469 L 19.574219 30.476562 L 16 30.476562 Z M 16 26.855469 "/>
</g>
</g>
<g clip-path="url(#clip15)" clip-rule="nonzero">
<g clip-path="url(#clip16)" clip-rule="nonzero">
<path style=" stroke:none;fill-rule:nonzero;fill:rgb(63.137257%,43.137255%,22.745098%);fill-opacity:1;" d="M 19.574219 26.855469 L 23.148438 26.855469 L 23.148438 30.476562 L 19.574219 30.476562 Z M 19.574219 26.855469 "/>
</g>
</g>
<g clip-path="url(#clip17)" clip-rule="nonzero">
<g clip-path="url(#clip18)" clip-rule="nonzero">
<path style=" stroke:none;fill-rule:nonzero;fill:rgb(58.039218%,40.000001%,20.784314%);fill-opacity:1;" d="M 23.148438 26.855469 L 26.722656 26.855469 L 26.722656 30.476562 L 23.148438 30.476562 Z M 23.148438 26.855469 "/>
</g>
</g>
<g clip-path="url(#clip19)" clip-rule="nonzero">
<g clip-path="url(#clip20)" clip-rule="nonzero">
<path style=" stroke:none;fill-rule:nonzero;fill:rgb(63.137257%,43.137255%,22.745098%);fill-opacity:1;" d="M 26.722656 26.855469 L 30.292969 26.855469 L 30.292969 30.476562 L 26.722656 30.476562 Z M 26.722656 26.855469 "/>
</g>
</g>
<g clip-path="url(#clip21)" clip-rule="nonzero">
<g clip-path="url(#clip22)" clip-rule="nonzero">
<path style=" stroke:none;fill-rule:nonzero;fill:rgb(63.137257%,43.137255%,22.745098%);fill-opacity:1;" d="M 1.707031 23.238281 L 5.277344 23.238281 L 5.277344 26.855469 L 1.707031 26.855469 Z M 1.707031 23.238281 "/>
</g>
</g>
<g clip-path="url(#clip23)" clip-rule="nonzero">
<g clip-path="url(#clip24)" clip-rule="nonzero">
<path style=" stroke:none;fill-rule:nonzero;fill:rgb(58.039218%,43.137255%,16.862746%);fill-opacity:1;" d="M 5.277344 23.238281 L 8.851562 23.238281 L 8.851562 26.855469 L 5.277344 26.855469 Z M 5.277344 23.238281 "/>
</g>
</g>
<g clip-path="url(#clip25)" clip-rule="nonzero">
<g clip-path="url(#clip26)" clip-rule="nonzero">
<path style=" stroke:none;fill-rule:nonzero;fill:rgb(56.078434%,38.039216%,20%);fill-opacity:1;" d="M 8.851562 23.238281 L 12.425781 23.238281 L 12.425781 26.855469 L 8.851562 26.855469 Z M 8.851562 23.238281 "/>
</g>
</g>
<g clip-path="url(#clip27)" clip-rule="nonzero">
<g clip-path="url(#clip28)" clip-rule="nonzero">
<path style=" stroke:none;fill-rule:nonzero;fill:rgb(65.882355%,43.137255%,20%);fill-opacity:1;" d="M 12.425781 23.238281 L 16 23.238281 L 16 26.855469 L 12.425781 26.855469 Z M 12.425781 23.238281 "/>
</g>
</g>
<g clip-path="url(#clip29)" clip-rule="nonzero">
<g clip-path="url(#clip30)" clip-rule="nonzero">
<path style=" stroke:none;fill-rule:nonzero;fill:rgb(58.039218%,40.000001%,20.784314%);fill-opacity:1;" d="M 16 23.238281 L 19.574219 23.238281 L 19.574219 26.855469 L 16 26.855469 Z M 16 23.238281 "/>
</g>
</g>
<g clip-path="url(#clip31)" clip-rule="nonzero">
<g clip-path="url(#clip32)" clip-rule="nonzero">
<path style=" stroke:none;fill-rule:nonzero;fill:rgb(56.078434%,38.039216%,20%);fill-opacity:1;" d="M 19.574219 23.238281 L 23.148438 23.238281 L 23.148438 26.855469 L 19.574219 26.855469 Z M 19.574219 23.238281 "/>
</g>
</g>
<g clip-path="url(#clip33)" clip-rule="nonzero">
<g clip-path="url(#clip34)" clip-rule="nonzero">
<path style=" stroke:none;fill-rule:nonzero;fill:rgb(56.078434%,38.039216%,20%);fill-opacity:1;" d="M 23.148438 23.238281 L 26.722656 23.238281 L 26.722656 26.855469 L 23.148438 26.855469 Z M 23.148438 23.238281 "/>
</g>
</g>
<g clip-path="url(#clip35)" clip-rule="nonzero">
<g clip-path="url(#clip36)" clip-rule="nonzero">
<path style=" stroke:none;fill-rule:nonzero;fill:rgb(67.058825%,45.882353%,24.705882%);fill-opacity:1;" d="M 26.722656 23.238281 L 30.292969 23.238281 L 30.292969 26.855469 L 26.722656 26.855469 Z M 26.722656 23.238281 "/>
</g>
</g>
<g clip-path="url(#clip37)" clip-rule="nonzero">
<g clip-path="url(#clip38)" clip-rule="nonzero">
<path style=" stroke:none;fill-rule:nonzero;fill:rgb(63.137257%,40.784314%,18.039216%);fill-opacity:1;" d="M 1.707031 19.621094 L 5.277344 19.621094 L 5.277344 23.238281 L 1.707031 23.238281 Z M 1.707031 19.621094 "/>
</g>
</g>
<g clip-path="url(#clip39)" clip-rule="nonzero">
<g clip-path="url(#clip40)" clip-rule="nonzero">
<path style=" stroke:none;fill-rule:nonzero;fill:rgb(63.137257%,43.137255%,22.745098%);fill-opacity:1;" d="M 5.277344 19.621094 L 8.851562 19.621094 L 8.851562 23.238281 L 5.277344 23.238281 Z M 5.277344 19.621094 "/>
</g>
</g>
<g clip-path="url(#clip41)" clip-rule="nonzero">
<g clip-path="url(#clip42)" clip-rule="nonzero">
<path style=" stroke:none;fill-rule:nonzero;fill:rgb(47.843137%,30.980393%,18.039216%);fill-opacity:1;" d="M 8.851562 19.621094 L 12.425781 19.621094 L 12.425781 23.238281 L 8.851562 23.238281 Z M 8.851562 19.621094 "/>
</g>
</g>
<g clip-path="url(#clip43)" clip-rule="nonzero">
<g clip-path="url(#clip44)" clip-rule="nonzero">
<path style=" stroke:none;fill-rule:nonzero;fill:rgb(63.137257%,43.137255%,22.745098%);fill-opacity:1;" d="M 12.425781 19.621094 L 16 19.621094 L 16 23.238281 L 12.425781 23.238281 Z M 12.425781 19.621094 "/>
</g>
</g>
<g clip-path="url(#clip45)" clip-rule="nonzero">
<g clip-path="url(#clip46)" clip-rule="nonzero">
<path style=" stroke:none;fill-rule:nonzero;fill:rgb(72.941178%,50.980395%,29.019609%);fill-opacity:1;" d="M 16 19.621094 L 19.574219 19.621094 L 19.574219 23.238281 L 16 23.238281 Z M 16 19.621094 "/>
</g>
</g>
<g clip-path="url(#clip47)" clip-rule="nonzero">
<g clip-path="url(#clip48)" clip-rule="nonzero">
<path style=" stroke:none;fill-rule:nonzero;fill:rgb(63.137257%,43.137255%,22.745098%);fill-opacity:1;" d="M 19.574219 19.621094 L 23.148438 19.621094 L 23.148438 23.238281 L 19.574219 23.238281 Z M 19.574219 19.621094 "/>
</g>
</g>
<g clip-path="url(#clip49)" clip-rule="nonzero">
<g clip-path="url(#clip50)" clip-rule="nonzero">
<path style=" stroke:none;fill-rule:nonzero;fill:rgb(52.156866%,40.784314%,22.745098%);fill-opacity:1;" d="M 23.148438 19.621094 L 26.722656 19.621094 L 26.722656 23.238281 L 23.148438 23.238281 Z M 23.148438 19.621094 "/>
</g>
</g>
<g clip-path="url(#clip51)" clip-rule="nonzero">
<g clip-path="url(#clip52)" clip-rule="nonzero">
<path style=" stroke:none;fill-rule:nonzero;fill:rgb(63.137257%,43.137255%,22.745098%);fill-opacity:1;" d="M 26.722656 19.621094 L 30.292969 19.621094 L 30.292969 23.238281 L 26.722656 23.238281 Z M 26.722656 19.621094 "/>
</g>
</g>
<g clip-path="url(#clip53)" clip-rule="nonzero">
<g clip-path="url(#clip54)" clip-rule="nonzero">
<path style=" stroke:none;fill-rule:nonzero;fill:rgb(63.137257%,43.137255%,22.745098%);fill-opacity:1;" d="M 1.707031 16 L 5.277344 16 L 5.277344 19.621094 L 1.707031 19.621094 Z M 1.707031 16 "/>
</g>
</g>
<g clip-path="url(#clip55)" clip-rule="nonzero">
<g clip-path="url(#clip56)" clip-rule="nonzero">
<path style=" stroke:none;fill-rule:nonzero;fill:rgb(58.039218%,40.000001%,20.784314%);fill-opacity:1;" d="M 5.277344 16 L 8.851562 16 L 8.851562 19.621094 L 5.277344 19.621094 Z M 5.277344 16 "/>
</g>
</g>
<g clip-path="url(#clip57)" clip-rule="nonzero">
<g clip-path="url(#clip58)" clip-rule="nonzero">
<path style=" stroke:none;fill-rule:nonzero;fill:rgb(63.137257%,40.784314%,18.039216%);fill-opacity:1;" d="M 8.851562 16 L 12.425781 16 L 12.425781 19.621094 L 8.851562 19.621094 Z M 8.851562 16 "/>
</g>
</g>
<g clip-path="url(#clip59)" clip-rule="nonzero">
<g clip-path="url(#clip60)" clip-rule="nonzero">
<path style=" stroke:none;fill-rule:nonzero;fill:rgb(67.058825%,43.137255%,20%);fill-opacity:1;" d="M 12.425781 16 L 16 16 L 16 19.621094 L 12.425781 19.621094 Z M 12.425781 16 "/>
</g>
</g>
<g clip-path="url(#clip61)" clip-rule="nonzero">
<g clip-path="url(#clip62)" clip-rule="nonzero">
<path style=" stroke:none;fill-rule:nonzero;fill:rgb(56.078434%,38.039216%,20%);fill-opacity:1;" d="M 16 16 L 19.574219 16 L 19.574219 19.621094 L 16 19.621094 Z M 16 16 "/>
</g>
</g>
<g clip-path="url(#clip63)" clip-rule="nonzero">
<g clip-path="url(#clip64)" clip-rule="nonzero">
<path style=" stroke:none;fill-rule:nonzero;fill:rgb(50.980395%,32.941177%,18.82353%);fill-opacity:1;" d="M 19.574219 16 L 23.148438 16 L 23.148438 19.621094 L 19.574219 19.621094 Z M 19.574219 16 "/>
</g>
</g>
<g clip-path="url(#clip65)" clip-rule="nonzero">
<g clip-path="url(#clip66)" clip-rule="nonzero">
<path style=" stroke:none;fill-rule:nonzero;fill:rgb(63.137257%,43.137255%,22.745098%);fill-opacity:1;" d="M 23.148438 16 L 26.722656 16 L 26.722656 19.621094 L 23.148438 19.621094 Z M 23.148438 16 "/>
</g>
</g>
<g clip-path="url(#clip67)" clip-rule="nonzero">
<g clip-path="url(#clip68)" clip-rule="nonzero">
<path style=" stroke:none;fill-rule:nonzero;fill:rgb(67.058825%,45.882353%,24.705882%);fill-opacity:1;" d="M 26.722656 16 L 30.292969 16 L 30.292969 19.621094 L 26.722656 19.621094 Z M 26.722656 16 "/>
</g>
</g>
<g clip-path="url(#clip69)" clip-rule="nonzero">
<g clip-path="url(#clip70)" clip-rule="nonzero">
<path style=" stroke:none;fill-rule:nonzero;fill:rgb(34.901962%,69.01961%,34.117648%);fill-opacity:1;" d="M 1.707031 1.523438 L 16 1.523438 L 16 16 L 1.707031 16 Z M 1.707031 1.523438 "/>
</g>
</g>
<g clip-path="url(#clip71)" clip-rule="nonzero">
<g clip-path="url(#clip72)" clip-rule="nonzero">
<path style=" stroke:none;fill-rule:nonzero;fill:rgb(23.921569%,63.137257%,22.745098%);fill-opacity:1;" d="M 1.707031 12.378906 L 5.277344 12.378906 L 5.277344 16 L 1.707031 16 Z M 1.707031 12.378906 "/>
</g>
</g>
<g clip-path="url(#clip73)" clip-rule="nonzero">
<g clip-path="url(#clip74)" clip-rule="nonzero">
<path style=" stroke:none;fill-rule:nonzero;fill:rgb(40.000001%,27.058825%,13.725491%);fill-opacity:1;" d="M 5.277344 12.378906 L 8.851562 12.378906 L 8.851562 16 L 5.277344 16 Z M 5.277344 12.378906 "/>
</g>
</g>
<g clip-path="url(#clip75)" clip-rule="nonzero">
<g clip-path="url(#clip76)" clip-rule="nonzero">
<path style=" stroke:none;fill-rule:nonzero;fill:rgb(63.137257%,40.784314%,18.039216%);fill-opacity:1;" d="M 8.851562 12.378906 L 12.425781 12.378906 L 12.425781 16 L 8.851562 16 Z M 8.851562 12.378906 "/>
</g>
</g>
<g clip-path="url(#clip77)" clip-rule="nonzero">
<g clip-path="url(#clip78)" clip-rule="nonzero">
<path style=" stroke:none;fill-rule:nonzero;fill:rgb(59.215689%,43.137255%,27.058825%);fill-opacity:1;" d="M 12.425781 12.378906 L 16 12.378906 L 16 16 L 12.425781 16 Z M 12.425781 12.378906 "/>
</g>
</g>
<g clip-path="url(#clip79)" clip-rule="nonzero">
<g clip-path="url(#clip80)" clip-rule="nonzero">
<path style=" stroke:none;fill-rule:nonzero;fill:rgb(63.137257%,40.784314%,18.039216%);fill-opacity:1;" d="M 16 12.378906 L 19.574219 12.378906 L 19.574219 16 L 16 16 Z M 16 12.378906 "/>
</g>
</g>
<g clip-path="url(#clip81)" clip-rule="nonzero">
<g clip-path="url(#clip82)" clip-rule="nonzero">
<path style=" stroke:none;fill-rule:nonzero;fill:rgb(22.745098%,50.980395%,21.960784%);fill-opacity:1;" d="M 19.574219 12.378906 L 23.148438 12.378906 L 23.148438 16 L 19.574219 16 Z M 19.574219 12.378906 "/>
</g>
</g>
<g clip-path="url(#clip83)" clip-rule="nonzero">
<g clip-path="url(#clip84)" clip-rule="nonzero">
<path style=" stroke:none;fill-rule:nonzero;fill:rgb(69.01961%,47.058824%,24.705882%);fill-opacity:1;" d="M 23.148438 12.378906 L 26.722656 12.378906 L 26.722656 16 L 23.148438 16 Z M 23.148438 12.378906 "/>
</g>
</g>
<g clip-path="url(#clip85)" clip-rule="nonzero">
<g clip-path="url(#clip86)" clip-rule="nonzero">
<path style=" stroke:none;fill-rule:nonzero;fill:rgb(63.137257%,43.137255%,22.745098%);fill-opacity:1;" d="M 26.722656 12.378906 L 30.292969 12.378906 L 30.292969 16 L 26.722656 16 Z M 26.722656 12.378906 "/>
</g>
</g>
<g clip-path="url(#clip87)" clip-rule="nonzero">
<g clip-path="url(#clip88)" clip-rule="nonzero">
<path style=" stroke:none;fill-rule:nonzero;fill:rgb(29.803923%,72.156864%,29.019609%);fill-opacity:1;" d="M 1.707031 8.761719 L 5.277344 8.761719 L 5.277344 12.378906 L 1.707031 12.378906 Z M 1.707031 8.761719 "/>
</g>
</g>
<g clip-path="url(#clip89)" clip-rule="nonzero">
<g clip-path="url(#clip90)" clip-rule="nonzero">
<path style=" stroke:none;fill-rule:nonzero;fill:rgb(58.039218%,40.000001%,20.784314%);fill-opacity:1;" d="M 5.277344 8.761719 L 8.851562 8.761719 L 8.851562 12.378906 L 5.277344 12.378906 Z M 5.277344 8.761719 "/>
</g>
</g>
<g clip-path="url(#clip91)" clip-rule="nonzero">
<g clip-path="url(#clip92)" clip-rule="nonzero">
<path style=" stroke:none;fill-rule:nonzero;fill:rgb(47.843137%,30.980393%,18.039216%);fill-opacity:1;" d="M 8.851562 8.761719 L 12.425781 8.761719 L 12.425781 12.378906 L 8.851562 12.378906 Z M 8.851562 8.761719 "/>
</g>
</g>
<g clip-path="url(#clip93)" clip-rule="nonzero">
<g clip-path="url(#clip94)" clip-rule="nonzero">
<path style=" stroke:none;fill-rule:nonzero;fill:rgb(30.980393%,65.098041%,36.862746%);fill-opacity:1;" d="M 12.425781 8.761719 L 16 8.761719 L 16 12.378906 L 12.425781 12.378906 Z M 12.425781 8.761719 "/>
</g>
</g>
<g clip-path="url(#clip95)" clip-rule="nonzero">
<g clip-path="url(#clip96)" clip-rule="nonzero">
<path style=" stroke:none;fill-rule:nonzero;fill:rgb(25.882354%,76.078433%,24.705882%);fill-opacity:1;" d="M 16 8.761719 L 19.574219 8.761719 L 19.574219 12.378906 L 16 12.378906 Z M 16 8.761719 "/>
</g>
</g>
<g clip-path="url(#clip97)" clip-rule="nonzero">
<g clip-path="url(#clip98)" clip-rule="nonzero">
<path style=" stroke:none;fill-rule:nonzero;fill:rgb(22.745098%,50.980395%,21.960784%);fill-opacity:1;" d="M 19.574219 8.761719 L 23.148438 8.761719 L 23.148438 12.378906 L 19.574219 12.378906 Z M 19.574219 8.761719 "/>
</g>
</g>
<g clip-path="url(#clip99)" clip-rule="nonzero">
<g clip-path="url(#clip100)" clip-rule="nonzero">
<path style=" stroke:none;fill-rule:nonzero;fill:rgb(60.000002%,47.058824%,21.960784%);fill-opacity:1;" d="M 23.148438 8.761719 L 26.722656 8.761719 L 26.722656 12.378906 L 23.148438 12.378906 Z M 23.148438 8.761719 "/>
</g>
</g>
<g clip-path="url(#clip101)" clip-rule="nonzero">
<g clip-path="url(#clip102)" clip-rule="nonzero">
<path style=" stroke:none;fill-rule:nonzero;fill:rgb(20.784314%,47.843137%,20.784314%);fill-opacity:1;" d="M 26.722656 8.761719 L 30.292969 8.761719 L 30.292969 12.378906 L 26.722656 12.378906 Z M 26.722656 8.761719 "/>
</g>
</g>
<g clip-path="url(#clip103)" clip-rule="nonzero">
<g clip-path="url(#clip104)" clip-rule="nonzero">
<path style=" stroke:none;fill-rule:nonzero;fill:rgb(27.843139%,58.039218%,27.843139%);fill-opacity:1;" d="M 1.707031 5.144531 L 5.277344 5.144531 L 5.277344 8.761719 L 1.707031 8.761719 Z M 1.707031 5.144531 "/>
</g>
</g>
<g clip-path="url(#clip105)" clip-rule="nonzero">
<g clip-path="url(#clip106)" clip-rule="nonzero">
<path style=" stroke:none;fill-rule:nonzero;fill:rgb(27.058825%,65.882355%,25.882354%);fill-opacity:1;" d="M 5.277344 5.144531 L 8.851562 5.144531 L 8.851562 8.761719 L 5.277344 8.761719 Z M 5.277344 5.144531 "/>
</g>
</g>
<g clip-path="url(#clip107)" clip-rule="nonzero">
<g clip-path="url(#clip108)" clip-rule="nonzero">
<path style=" stroke:none;fill-rule:nonzero;fill:rgb(22.745098%,50.980395%,21.960784%);fill-opacity:1;" d="M 8.851562 5.144531 L 12.425781 5.144531 L 12.425781 8.761719 L 8.851562 8.761719 Z M 8.851562 5.144531 "/>
</g>
</g>
<g clip-path="url(#clip109)" clip-rule="nonzero">
<g clip-path="url(#clip110)" clip-rule="nonzero">
<path style=" stroke:none;fill-rule:nonzero;fill:rgb(29.803923%,72.156864%,29.019609%);fill-opacity:1;" d="M 12.425781 5.144531 L 16 5.144531 L 16 8.761719 L 12.425781 8.761719 Z M 12.425781 5.144531 "/>
</g>
</g>
<g clip-path="url(#clip111)" clip-rule="nonzero">
<g clip-path="url(#clip112)" clip-rule="nonzero">
<path style=" stroke:none;fill-rule:nonzero;fill:rgb(27.843139%,58.039218%,27.843139%);fill-opacity:1;" d="M 16 5.144531 L 19.574219 5.144531 L 19.574219 8.761719 L 16 8.761719 Z M 16 5.144531 "/>
</g>
</g>
<g clip-path="url(#clip113)" clip-rule="nonzero">
<g clip-path="url(#clip114)" clip-rule="nonzero">
<path style=" stroke:none;fill-rule:nonzero;fill:rgb(27.058825%,65.882355%,25.882354%);fill-opacity:1;" d="M 19.574219 5.144531 L 23.148438 5.144531 L 23.148438 8.761719 L 19.574219 8.761719 Z M 19.574219 5.144531 "/>
</g>
</g>
<g clip-path="url(#clip115)" clip-rule="nonzero">
<g clip-path="url(#clip116)" clip-rule="nonzero">
<path style=" stroke:none;fill-rule:nonzero;fill:rgb(22.745098%,63.137257%,22.745098%);fill-opacity:1;" d="M 23.148438 5.144531 L 26.722656 5.144531 L 26.722656 8.761719 L 23.148438 8.761719 Z M 23.148438 5.144531 "/>
</g>
</g>
<g clip-path="url(#clip117)" clip-rule="nonzero">
<g clip-path="url(#clip118)" clip-rule="nonzero">
<path style=" stroke:none;fill-rule:nonzero;fill:rgb(27.843139%,58.039218%,27.843139%);fill-opacity:1;" d="M 26.722656 5.144531 L 30.292969 5.144531 L 30.292969 8.761719 L 26.722656 8.761719 Z M 26.722656 5.144531 "/>
</g>
</g>
<g clip-path="url(#clip119)" clip-rule="nonzero">
<g clip-path="url(#clip120)" clip-rule="nonzero">
<path style=" stroke:none;fill-rule:nonzero;fill:rgb(23.921569%,69.01961%,22.745098%);fill-opacity:1;" d="M 1.707031 1.523438 L 5.277344 1.523438 L 5.277344 5.144531 L 1.707031 5.144531 Z M 1.707031 1.523438 "/>
</g>
</g>
<g clip-path="url(#clip121)" clip-rule="nonzero">
<g clip-path="url(#clip122)" clip-rule="nonzero">
<path style=" stroke:none;fill-rule:nonzero;fill:rgb(27.843139%,58.039218%,27.843139%);fill-opacity:1;" d="M 5.277344 1.523438 L 8.851562 1.523438 L 8.851562 5.144531 L 5.277344 5.144531 Z M 5.277344 1.523438 "/>
</g>
</g>
<g clip-path="url(#clip123)" clip-rule="nonzero">
<g clip-path="url(#clip124)" clip-rule="nonzero">
<path style=" stroke:none;fill-rule:nonzero;fill:rgb(31.764707%,54.11765%,31.764707%);fill-opacity:1;" d="M 8.851562 1.523438 L 12.425781 1.523438 L 12.425781 5.144531 L 8.851562 5.144531 Z M 8.851562 1.523438 "/>
</g>
</g>
<g clip-path="url(#clip125)" clip-rule="nonzero">
<g clip-path="url(#clip126)" clip-rule="nonzero">
<path style=" stroke:none;fill-rule:nonzero;fill:rgb(22.745098%,50.980395%,21.960784%);fill-opacity:1;" d="M 12.425781 1.523438 L 16 1.523438 L 16 5.144531 L 12.425781 5.144531 Z M 12.425781 1.523438 "/>
</g>
</g>
<g clip-path="url(#clip127)" clip-rule="nonzero">
<g clip-path="url(#clip128)" clip-rule="nonzero">
<path style=" stroke:none;fill-rule:nonzero;fill:rgb(22.745098%,50.980395%,21.960784%);fill-opacity:1;" d="M 16 1.523438 L 19.574219 1.523438 L 19.574219 5.144531 L 16 5.144531 Z M 16 1.523438 "/>
</g>
</g>
<g clip-path="url(#clip129)" clip-rule="nonzero">
<g clip-path="url(#clip130)" clip-rule="nonzero">
<path style=" stroke:none;fill-rule:nonzero;fill:rgb(27.843139%,58.039218%,27.843139%);fill-opacity:1;" d="M 19.574219 1.523438 L 23.148438 1.523438 L 23.148438 5.144531 L 19.574219 5.144531 Z M 19.574219 1.523438 "/>
</g>
</g>
<g clip-path="url(#clip131)" clip-rule="nonzero">
<g clip-path="url(#clip132)" clip-rule="nonzero">
<path style=" stroke:none;fill-rule:nonzero;fill:rgb(27.058825%,69.01961%,25.882354%);fill-opacity:1;" d="M 23.148438 1.523438 L 26.722656 1.523438 L 26.722656 5.144531 L 23.148438 5.144531 Z M 23.148438 1.523438 "/>
</g>
</g>
<g clip-path="url(#clip133)" clip-rule="nonzero">
<g clip-path="url(#clip134)" clip-rule="nonzero">
<path style=" stroke:none;fill-rule:nonzero;fill:rgb(27.058825%,65.882355%,25.882354%);fill-opacity:1;" d="M 26.722656 1.523438 L 30.292969 1.523438 L 30.292969 5.144531 L 26.722656 5.144531 Z M 26.722656 1.523438 "/>
</g>
</g>
<g clip-path="url(#clip135)" clip-rule="nonzero">
<g clip-path="url(#clip136)" clip-rule="nonzero">
<path style=" stroke:none;fill-rule:nonzero;fill:rgb(61.176473%,41.960785%,24.705882%);fill-opacity:0.756863;" d="M 1.707031 16.003906 L 1.707031 30.476562 L 30.296875 30.476562 L 30.296875 12.378906 L 26.722656 12.378906 L 26.722656 8.761719 L 23.152344 8.761719 L 23.152344 16 L 19.574219 16 L 19.574219 12.371094 L 12.429688 12.378906 L 12.433594 8.75 L 5.285156 8.757812 L 5.28125 15.996094 Z M 1.707031 16.003906 "/>
</g>
</g>
</g>
</svg>
