
<svg xmlns="http://www.w3.org/2000/svg" xmlns:xlink="http://www.w3.org/1999/xlink" width="32px" height="32px" viewBox="0 0 32 32" version="1.1">
<g id="surface1">
<path style="fill-rule:nonzero;fill:rgb(100%,100%,100%);fill-opacity:1;stroke-width:28.191782;stroke-linecap:butt;stroke-linejoin:miter;stroke:rgb(55.686277%,26.666668%,67.843139%);stroke-opacity:1;stroke-miterlimit:4;" d="M 81.5 25.0625 L 430.5 25.0625 C 461.6875 25.0625 486.9375 50.3125 486.9375 81.5 L 486.9375 430.5 C 486.9375 461.6875 461.6875 486.9375 430.5 486.9375 L 81.5 486.9375 C 50.3125 486.9375 25.0625 461.6875 25.0625 430.5 L 25.0625 81.5 C 25.0625 50.3125 50.3125 25.0625 81.5 25.0625 Z M 81.5 25.0625 " transform="matrix(0.0625,0,0,0.0625,0,0)"/>
<path style=" stroke:none;fill-rule:nonzero;fill:rgb(80.000001%,80.000001%,80.000001%);fill-opacity:1;" d="M 24.355469 16 C 24.355469 20.613281 20.613281 24.355469 16 24.355469 C 11.386719 24.355469 7.644531 20.613281 7.644531 16 C 7.644531 11.386719 11.386719 7.644531 16 7.644531 C 20.613281 7.644531 24.355469 11.386719 24.355469 16 Z M 24.355469 16 "/>
<path style=" stroke:none;fill-rule:nonzero;fill:rgb(55.686277%,26.666668%,67.843139%);fill-opacity:1;" d="M 15.957031 4.332031 C 15.0625 4.332031 15.058594 4.335938 15.015625 4.515625 C 14.988281 4.613281 14.867188 5.371094 14.738281 6.191406 L 14.511719 7.691406 L 13.871094 7.859375 C 13.160156 8.050781 12.195312 8.445312 11.78125 8.722656 C 11.632812 8.816406 11.472656 8.898438 11.429688 8.898438 C 11.386719 8.898438 10.898438 8.621094 10.347656 8.285156 C 9.796875 7.945312 9.300781 7.652344 9.25 7.628906 C 9.136719 7.589844 7.558594 9.136719 7.613281 9.234375 C 7.628906 9.269531 7.925781 9.761719 8.273438 10.324219 C 8.617188 10.886719 8.898438 11.386719 8.898438 11.429688 C 8.898438 11.472656 8.816406 11.632812 8.722656 11.78125 C 8.445312 12.195312 8.050781 13.160156 7.859375 13.871094 L 7.691406 14.511719 L 6.191406 14.738281 C 5.371094 14.867188 4.613281 14.988281 4.515625 15.015625 C 4.335938 15.058594 4.332031 15.0625 4.332031 15.957031 C 4.332031 16.585938 4.363281 16.875 4.425781 16.925781 C 4.472656 16.964844 5.230469 17.109375 6.101562 17.242188 L 7.691406 17.484375 L 7.855469 18.101562 C 8.039062 18.792969 8.425781 19.742188 8.710938 20.191406 C 8.816406 20.355469 8.898438 20.527344 8.898438 20.570312 C 8.898438 20.613281 8.621094 21.097656 8.285156 21.652344 C 7.945312 22.203125 7.652344 22.699219 7.628906 22.75 C 7.589844 22.863281 9.136719 24.441406 9.234375 24.386719 C 9.269531 24.371094 9.757812 24.074219 10.320312 23.726562 C 10.878906 23.382812 11.378906 23.101562 11.425781 23.101562 C 11.472656 23.101562 11.644531 23.183594 11.808594 23.289062 C 12.257812 23.570312 13.207031 23.960938 13.898438 24.144531 L 14.515625 24.308594 L 14.757812 25.898438 C 14.890625 26.769531 15.035156 27.527344 15.074219 27.574219 C 15.125 27.636719 15.40625 27.667969 16 27.667969 C 16.59375 27.667969 16.875 27.636719 16.925781 27.574219 C 16.964844 27.527344 17.109375 26.769531 17.242188 25.898438 L 17.484375 24.308594 L 18.101562 24.144531 C 18.792969 23.960938 19.742188 23.570312 20.191406 23.289062 C 20.355469 23.183594 20.53125 23.101562 20.582031 23.101562 C 20.632812 23.105469 21.144531 23.394531 21.71875 23.75 C 22.480469 24.222656 22.792969 24.378906 22.878906 24.335938 C 23.070312 24.230469 24.417969 22.824219 24.386719 22.761719 C 24.371094 22.730469 24.074219 22.242188 23.726562 21.679688 C 23.382812 21.121094 23.101562 20.621094 23.101562 20.574219 C 23.101562 20.527344 23.183594 20.355469 23.289062 20.191406 C 23.574219 19.742188 23.960938 18.792969 24.144531 18.101562 L 24.308594 17.484375 L 25.898438 17.242188 C 26.769531 17.109375 27.527344 16.964844 27.574219 16.925781 C 27.636719 16.875 27.667969 16.59375 27.667969 16 C 27.667969 15.40625 27.636719 15.125 27.574219 15.074219 C 27.527344 15.035156 26.769531 14.890625 25.898438 14.757812 L 24.308594 14.515625 L 24.144531 13.898438 C 23.960938 13.207031 23.574219 12.257812 23.289062 11.808594 C 23.183594 11.644531 23.101562 11.472656 23.101562 11.425781 C 23.101562 11.378906 23.382812 10.878906 23.726562 10.320312 C 24.074219 9.757812 24.371094 9.269531 24.386719 9.234375 C 24.441406 9.136719 22.863281 7.589844 22.75 7.628906 C 22.699219 7.652344 22.203125 7.945312 21.652344 8.285156 C 21.101562 8.621094 20.613281 8.898438 20.570312 8.898438 C 20.527344 8.898438 20.355469 8.816406 20.191406 8.710938 C 19.742188 8.425781 18.792969 8.039062 18.101562 7.855469 L 17.484375 7.691406 L 17.242188 6.101562 C 17.109375 5.230469 16.964844 4.472656 16.925781 4.425781 C 16.875 4.363281 16.585938 4.332031 15.957031 4.332031 Z M 16.015625 7.847656 C 17.089844 7.847656 17.167969 7.855469 17.3125 8 C 17.402344 8.089844 17.445312 8.199219 17.417969 8.265625 C 17.382812 8.363281 17.191406 8.378906 16.015625 8.378906 C 14.839844 8.378906 14.648438 8.363281 14.613281 8.265625 C 14.585938 8.199219 14.628906 8.089844 14.71875 8 C 14.863281 7.855469 14.941406 7.847656 16.015625 7.847656 Z M 11.5 9.304688 C 11.636719 9.304688 11.730469 9.339844 11.730469 9.394531 C 11.730469 9.445312 11.222656 9.992188 10.605469 10.609375 C 9.988281 11.230469 9.441406 11.734375 9.390625 11.734375 C 9.339844 11.734375 9.300781 11.640625 9.300781 11.511719 C 9.300781 11.023438 11.011719 9.304688 11.5 9.304688 Z M 20.53125 9.304688 C 20.714844 9.304688 20.886719 9.410156 21.335938 9.792969 C 22.113281 10.453125 22.730469 11.214844 22.730469 11.511719 C 22.730469 11.644531 22.691406 11.734375 22.636719 11.734375 C 22.519531 11.734375 20.300781 9.511719 20.300781 9.394531 C 20.300781 9.339844 20.394531 9.304688 20.53125 9.304688 Z M 16.070312 14.597656 C 16.242188 14.601562 16.414062 14.636719 16.570312 14.699219 C 17.316406 15.011719 17.652344 15.886719 17.308594 16.625 C 17.148438 16.972656 16.925781 17.191406 16.570312 17.335938 C 16.046875 17.554688 15.332031 17.410156 14.964844 17.011719 C 14.453125 16.453125 14.480469 15.46875 15.027344 14.96875 C 15.296875 14.71875 15.691406 14.585938 16.070312 14.597656 Z M 23.796875 14.605469 C 23.863281 14.601562 23.957031 14.644531 24.035156 14.722656 C 24.175781 14.863281 24.1875 14.949219 24.1875 16.011719 C 24.1875 17.027344 24.171875 17.167969 24.054688 17.300781 C 23.917969 17.449219 23.792969 17.488281 23.707031 17.398438 C 23.675781 17.371094 23.65625 16.746094 23.65625 16.003906 C 23.65625 14.839844 23.671875 14.652344 23.769531 14.613281 C 23.777344 14.613281 23.785156 14.609375 23.796875 14.605469 Z M 8.207031 14.609375 C 8.226562 14.605469 8.246094 14.609375 8.261719 14.613281 C 8.363281 14.652344 8.375 14.824219 8.359375 16.035156 C 8.339844 17.214844 8.324219 17.414062 8.226562 17.433594 C 8.167969 17.441406 8.054688 17.386719 7.980469 17.300781 C 7.859375 17.167969 7.84375 17.035156 7.84375 16.011719 C 7.84375 14.949219 7.855469 14.863281 7.996094 14.722656 C 8.066406 14.65625 8.140625 14.613281 8.207031 14.609375 Z M 9.394531 20.304688 C 9.511719 20.304688 11.730469 22.527344 11.730469 22.644531 C 11.730469 22.695312 11.636719 22.730469 11.5 22.730469 C 11.316406 22.730469 11.144531 22.628906 10.695312 22.246094 C 9.917969 21.582031 9.300781 20.824219 9.300781 20.527344 C 9.300781 20.394531 9.339844 20.304688 9.394531 20.304688 Z M 22.640625 20.304688 C 22.691406 20.304688 22.730469 20.398438 22.730469 20.535156 C 22.730469 20.71875 22.625 20.886719 22.242188 21.339844 C 21.972656 21.652344 21.527344 22.097656 21.253906 22.320312 C 20.878906 22.628906 20.691406 22.730469 20.523438 22.730469 C 20.390625 22.730469 20.300781 22.695312 20.300781 22.644531 C 20.300781 22.527344 22.523438 20.304688 22.640625 20.304688 Z M 16.015625 23.644531 C 16.703125 23.648438 17.386719 23.691406 17.417969 23.773438 C 17.445312 23.839844 17.40625 23.945312 17.328125 24.019531 C 17.214844 24.128906 17.050781 24.160156 16.371094 24.183594 C 15.253906 24.226562 14.847656 24.183594 14.691406 24.015625 C 14.625 23.941406 14.589844 23.832031 14.613281 23.769531 C 14.644531 23.6875 15.332031 23.644531 16.015625 23.644531 Z M 16.015625 23.644531 "/>
</g>
</svg>
