
<svg xmlns="http://www.w3.org/2000/svg" xmlns:xlink="http://www.w3.org/1999/xlink" width="32px" height="32px" viewBox="0 0 32 32" version="1.1">
<g id="surface1">
<path style=" stroke:none;fill-rule:nonzero;fill:rgb(40.000001%,40.000001%,40.000001%);fill-opacity:1;" d="M 4.273438 0.746094 L 27.726562 0.746094 C 29.675781 0.746094 31.253906 2.324219 31.253906 4.273438 L 31.253906 27.726562 C 31.253906 29.675781 29.675781 31.253906 27.726562 31.253906 L 4.273438 31.253906 C 2.324219 31.253906 0.746094 29.675781 0.746094 27.726562 L 0.746094 4.273438 C 0.746094 2.324219 2.324219 0.746094 4.273438 0.746094 Z M 4.273438 0.746094 "/>
<path style=" stroke:none;fill-rule:nonzero;fill:rgb(20%,20%,20%);fill-opacity:1;" d="M 3.527344 2.207031 L 28.472656 2.207031 C 29.199219 2.207031 29.792969 2.800781 29.792969 3.527344 L 29.792969 28.472656 C 29.792969 29.199219 29.199219 29.792969 28.472656 29.792969 L 3.527344 29.792969 C 2.800781 29.792969 2.207031 29.199219 2.207031 28.472656 L 2.207031 3.527344 C 2.207031 2.800781 2.800781 2.207031 3.527344 2.207031 Z M 3.527344 2.207031 "/>
<path style=" stroke:none;fill-rule:nonzero;fill:rgb(100%,0%,0%);fill-opacity:1;" d="M 25.769531 25.671875 L 22.917969 21.722656 C 22.730469 21.484375 22.59375 21.222656 22.59375 21.089844 C 22.59375 20.910156 22.613281 20.746094 22.792969 20.527344 L 25.4375 17.265625 C 26.136719 16.402344 26.855469 16.160156 27.75 16.089844 C 27.875 15.964844 27.875 15.464844 27.75 15.347656 C 27.15625 15.371094 26.417969 15.378906 25.957031 15.378906 C 25.488281 15.378906 24.65625 15.371094 23.855469 15.347656 C 23.730469 15.464844 23.730469 15.964844 23.855469 16.089844 C 24.488281 16.128906 24.988281 16.246094 24.53125 16.878906 L 22.175781 20.109375 C 22.050781 20.285156 21.925781 20.328125 21.855469 20.328125 C 21.792969 20.328125 21.707031 20.265625 21.613281 20.128906 L 19.40625 17.003906 C 18.855469 16.246094 18.75 16.140625 19.875 16.089844 C 19.988281 15.964844 19.988281 15.464844 19.875 15.347656 C 19.074219 15.371094 18.25 15.378906 17.59375 15.378906 C 16.8125 15.378906 16.144531 15.371094 15.550781 15.347656 C 15.425781 15.464844 15.449219 15.964844 15.574219 16.089844 C 16.40625 16.140625 16.855469 16.222656 17.613281 17.246094 L 20.449219 21.109375 C 20.613281 21.328125 20.730469 21.484375 20.730469 21.691406 C 20.730469 21.808594 20.65625 21.984375 20.53125 22.128906 L 17.574219 25.847656 C 16.886719 26.734375 16.25 26.871094 15.34375 26.953125 C 15.230469 27.066406 15.230469 27.566406 15.34375 27.691406 C 15.949219 27.671875 16.6875 27.652344 17.144531 27.652344 C 17.613281 27.652344 18.449219 27.671875 19.25 27.691406 C 19.375 27.566406 19.375 27.066406 19.25 26.953125 C 18.511719 26.910156 17.988281 26.871094 18.46875 26.234375 L 21.113281 22.746094 C 21.230469 22.589844 21.355469 22.484375 21.417969 22.484375 C 21.488281 22.484375 21.574219 22.546875 21.6875 22.691406 L 23.96875 25.996094 C 24.488281 26.765625 24.4375 26.910156 23.488281 26.953125 C 23.375 27.066406 23.375 27.566406 23.488281 27.691406 C 24.207031 27.671875 24.96875 27.652344 25.769531 27.652344 C 26.550781 27.652344 27.21875 27.671875 27.8125 27.691406 C 27.9375 27.566406 27.917969 27.066406 27.792969 26.953125 C 26.957031 26.890625 26.574219 26.785156 25.769531 25.671875 Z M 25.769531 25.671875 "/>
<path style=" stroke:none;fill-rule:nonzero;fill:rgb(0%,0%,100%);fill-opacity:1;" d="M 22.289062 24.664062 L 22.289062 19 C 22.289062 18.03125 22.476562 17.457031 23.164062 17.457031 L 23.707031 17.457031 C 25.132812 17.457031 26.226562 17.851562 26.550781 19.007812 C 26.757812 19.007812 27.027344 19 27.195312 18.925781 C 27.070312 18.226562 26.964844 17.46875 26.957031 16.789062 C 26.957031 16.769531 26.914062 16.757812 26.894531 16.757812 C 26.246094 16.800781 23.933594 16.863281 22.425781 16.863281 L 20.777344 16.863281 C 19.308594 16.863281 16.863281 16.800781 16.144531 16.757812 C 16.101562 16.757812 16.058594 16.769531 16.058594 16.789062 C 15.988281 17.46875 15.800781 18.25 15.582031 18.976562 C 15.777344 19.039062 16.007812 19.0625 16.238281 19.0625 C 16.613281 17.851562 17.683594 17.457031 18.945312 17.457031 L 19.613281 17.457031 C 20.320312 17.457031 20.519531 18.03125 20.519531 18.945312 L 20.519531 24.664062 C 20.519531 25.914062 20.183594 26 17.894531 26.050781 C 17.777344 26.144531 17.777344 26.539062 17.894531 26.632812 C 18.832031 26.625 20.039062 26.601562 21.414062 26.601562 C 22.769531 26.601562 23.957031 26.625 24.902344 26.632812 C 25.019531 26.539062 25.019531 26.144531 24.902344 26.050781 C 22.613281 26.019531 22.289062 25.914062 22.289062 24.664062 Z M 22.289062 24.664062 "/>
<path style=" stroke:none;fill-rule:nonzero;fill:rgb(0%,100%,0%);fill-opacity:1;" d="M 4.15625 3.421875 L 4.15625 5.496094 C 4.171875 5.503906 4.1875 5.511719 4.203125 5.519531 L 7.792969 7.863281 C 7.960938 7.972656 7.960938 8.148438 7.792969 8.253906 L 4.203125 10.597656 C 4.1875 10.609375 4.171875 10.617188 4.15625 10.625 L 4.15625 12.699219 C 4.261719 12.675781 4.355469 12.636719 4.4375 12.582031 L 10.398438 8.695312 L 10.398438 7.480469 C 10.398438 7.464844 10.402344 7.445312 10.402344 7.425781 L 4.4375 3.535156 C 4.355469 3.484375 4.261719 3.445312 4.15625 3.421875 Z M 4.15625 3.421875 "/>
<path style=" stroke:none;fill-rule:nonzero;fill:rgb(0%,100%,0%);fill-opacity:1;" d="M 7.230469 13.285156 L 14.035156 13.285156 L 14.035156 15.210938 L 7.230469 15.210938 Z M 7.230469 13.285156 "/>
</g>
</svg>
