
<svg xmlns="http://www.w3.org/2000/svg" xmlns:xlink="http://www.w3.org/1999/xlink" width="32px" height="32px" viewBox="0 0 32 32" version="1.1">
<g id="surface1">
<path style="fill-rule:nonzero;fill:rgb(17.647059%,61.176473%,17.647059%);fill-opacity:1;stroke-width:5.178082;stroke-linecap:butt;stroke-linejoin:miter;stroke:rgb(49.411765%,88.627452%,49.411765%);stroke-opacity:1;stroke-miterlimit:4;" d="M 15.949219 5.589844 L 80.050781 5.589844 C 85.769531 5.589844 90.410156 10.230469 90.410156 15.949219 L 90.410156 80.050781 C 90.410156 85.769531 85.769531 90.410156 80.050781 90.410156 L 15.949219 90.410156 C 10.230469 90.410156 5.589844 85.769531 5.589844 80.050781 L 5.589844 15.949219 C 5.589844 10.230469 10.230469 5.589844 15.949219 5.589844 Z M 15.949219 5.589844 " transform="matrix(0.333333,0,0,0.333333,0,0)"/>
<path style=" stroke:none;fill-rule:nonzero;fill:rgb(78.431374%,71.764708%,71.764708%);fill-opacity:1;" d="M 8.207031 8.332031 L 23.484375 8.332031 L 23.484375 23.613281 L 8.207031 23.613281 Z M 8.207031 8.332031 "/>
<path style=" stroke:none;fill-rule:nonzero;fill:rgb(100%,100%,100%);fill-opacity:0.313725;" d="M 8.207031 8.332031 L 23.484375 8.332031 L 23.484375 8.730469 L 8.207031 8.730469 Z M 8.207031 8.332031 "/>
<path style=" stroke:none;fill-rule:nonzero;fill:rgb(16.862746%,0%,0%);fill-opacity:0.388235;" d="M 8.207031 23.214844 L 23.484375 23.214844 L 23.484375 23.613281 L 8.207031 23.613281 Z M 8.207031 23.214844 "/>
<path style=" stroke:none;fill-rule:nonzero;fill:rgb(43.529412%,54.11765%,56.862748%);fill-opacity:1;" d="M 9.691406 9.777344 L 21.996094 9.777344 L 21.996094 19.863281 L 9.691406 19.863281 Z M 9.691406 9.777344 "/>
<path style=" stroke:none;fill-rule:nonzero;fill:rgb(54.509807%,43.921569%,43.921569%);fill-opacity:1;" d="M 12.304688 21.503906 C 12.304688 22.097656 11.824219 22.578125 11.230469 22.578125 C 10.636719 22.578125 10.15625 22.097656 10.15625 21.503906 C 10.15625 20.910156 10.636719 20.429688 11.230469 20.429688 C 11.824219 20.429688 12.304688 20.910156 12.304688 21.503906 Z M 12.304688 21.503906 "/>
<path style=" stroke:none;fill-rule:nonzero;fill:rgb(54.509807%,43.921569%,43.921569%);fill-opacity:1;" d="M 21.574219 21.503906 C 21.574219 22.097656 21.09375 22.578125 20.5 22.578125 C 19.90625 22.578125 19.425781 22.097656 19.425781 21.503906 C 19.425781 20.910156 19.90625 20.429688 20.5 20.429688 C 21.09375 20.429688 21.574219 20.910156 21.574219 21.503906 Z M 21.574219 21.503906 "/>
<path style=" stroke:none;fill-rule:nonzero;fill:rgb(83.137256%,66.666669%,0%);fill-opacity:1;" d="M 12.304688 21.144531 C 12.304688 21.738281 11.824219 22.21875 11.230469 22.21875 C 10.636719 22.21875 10.15625 21.738281 10.15625 21.144531 C 10.15625 20.550781 10.636719 20.070312 11.230469 20.070312 C 11.824219 20.070312 12.304688 20.550781 12.304688 21.144531 Z M 12.304688 21.144531 "/>
<path style=" stroke:none;fill-rule:nonzero;fill:rgb(83.137256%,66.666669%,0%);fill-opacity:1;" d="M 21.574219 21.144531 C 21.574219 21.738281 21.09375 22.21875 20.5 22.21875 C 19.90625 22.21875 19.425781 21.738281 19.425781 21.144531 C 19.425781 20.550781 19.90625 20.070312 20.5 20.070312 C 21.09375 20.070312 21.574219 20.550781 21.574219 21.144531 Z M 21.574219 21.144531 "/>
<path style=" stroke:none;fill-rule:nonzero;fill:rgb(16.862746%,0%,0%);fill-opacity:0.388235;" d="M 13.179688 21.703125 L 18.511719 21.703125 L 18.511719 22.101562 L 13.179688 22.101562 Z M 13.179688 21.703125 "/>
<path style=" stroke:none;fill-rule:nonzero;fill:rgb(16.862746%,0%,0%);fill-opacity:0.388235;" d="M 13.179688 21.066406 L 18.511719 21.066406 L 18.511719 21.464844 L 13.179688 21.464844 Z M 13.179688 21.066406 "/>
<path style=" stroke:none;fill-rule:nonzero;fill:rgb(16.862746%,0%,0%);fill-opacity:0.388235;" d="M 13.179688 20.429688 L 18.511719 20.429688 L 18.511719 20.828125 L 13.179688 20.828125 Z M 13.179688 20.429688 "/>
</g>
</svg>
