<!-- color: #41afd2 -->
<svg xmlns="http://www.w3.org/2000/svg" xmlns:xlink="http://www.w3.org/1999/xlink" width="32px" height="32px" viewBox="0 0 32 32" version="1.1">
<defs>
<clipPath id="clip1">
  <path d="M 7.523438 7.527344 L 23.777344 7.527344 L 23.777344 27.144531 L 7.523438 27.144531 Z M 7.523438 7.527344 "/>
</clipPath>
<clipPath id="clip2">
  <path d="M 31.121094 17.300781 C 31.121094 27.652344 24.195312 36.039062 15.660156 36.039062 C 7.125 36.039062 0.199219 27.652344 0.199219 17.300781 C 0.199219 6.949219 7.125 -1.433594 15.660156 -1.433594 C 24.195312 -1.433594 31.121094 6.949219 31.121094 17.300781 Z M 31.121094 17.300781 "/>
</clipPath>
<clipPath id="clip3">
  <path d="M 7.523438 7.527344 L 15.722656 7.527344 L 15.722656 27.144531 L 7.523438 27.144531 Z M 7.523438 7.527344 "/>
</clipPath>
<clipPath id="clip4">
  <path d="M 31.121094 17.300781 C 31.121094 27.652344 24.195312 36.039062 15.660156 36.039062 C 7.125 36.039062 0.199219 27.652344 0.199219 17.300781 C 0.199219 6.949219 7.125 -1.433594 15.660156 -1.433594 C 24.195312 -1.433594 31.121094 6.949219 31.121094 17.300781 Z M 31.121094 17.300781 "/>
</clipPath>
<clipPath id="clip5">
  <path d="M 7.523438 7.527344 L 9.644531 7.527344 L 9.644531 27.144531 L 7.523438 27.144531 Z M 7.523438 7.527344 "/>
</clipPath>
<clipPath id="clip6">
  <path d="M 31.121094 17.300781 C 31.121094 27.652344 24.195312 36.039062 15.660156 36.039062 C 7.125 36.039062 0.199219 27.652344 0.199219 17.300781 C 0.199219 6.949219 7.125 -1.433594 15.660156 -1.433594 C 24.195312 -1.433594 31.121094 6.949219 31.121094 17.300781 Z M 31.121094 17.300781 "/>
</clipPath>
<clipPath id="clip7">
  <path d="M 21.652344 7.527344 L 23.777344 7.527344 L 23.777344 27.144531 L 21.652344 27.144531 Z M 21.652344 7.527344 "/>
</clipPath>
<clipPath id="clip8">
  <path d="M 31.121094 17.300781 C 31.121094 27.652344 24.195312 36.039062 15.660156 36.039062 C 7.125 36.039062 0.199219 27.652344 0.199219 17.300781 C 0.199219 6.949219 7.125 -1.433594 15.660156 -1.433594 C 24.195312 -1.433594 31.121094 6.949219 31.121094 17.300781 Z M 31.121094 17.300781 "/>
</clipPath>
<clipPath id="clip9">
  <path d="M 9.574219 9.136719 L 14.332031 9.136719 L 14.332031 10.820312 L 9.574219 10.820312 Z M 9.574219 9.136719 "/>
</clipPath>
<clipPath id="clip10">
  <path d="M 31.121094 17.300781 C 31.121094 27.652344 24.195312 36.039062 15.660156 36.039062 C 7.125 36.039062 0.199219 27.652344 0.199219 17.300781 C 0.199219 6.949219 7.125 -1.433594 15.660156 -1.433594 C 24.195312 -1.433594 31.121094 6.949219 31.121094 17.300781 Z M 31.121094 17.300781 "/>
</clipPath>
<clipPath id="clip11">
  <path d="M 17 23.777344 L 21.726562 23.777344 L 21.726562 25.460938 L 17 25.460938 Z M 17 23.777344 "/>
</clipPath>
<clipPath id="clip12">
  <path d="M 31.121094 17.300781 C 31.121094 27.652344 24.195312 36.039062 15.660156 36.039062 C 7.125 36.039062 0.199219 27.652344 0.199219 17.300781 C 0.199219 6.949219 7.125 -1.433594 15.660156 -1.433594 C 24.195312 -1.433594 31.121094 6.949219 31.121094 17.300781 Z M 31.121094 17.300781 "/>
</clipPath>
<clipPath id="clip13">
  <path d="M 9.574219 13.160156 L 21.726562 13.160156 L 21.726562 14.113281 L 9.574219 14.113281 Z M 9.574219 13.160156 "/>
</clipPath>
<clipPath id="clip14">
  <path d="M 31.121094 17.300781 C 31.121094 27.652344 24.195312 36.039062 15.660156 36.039062 C 7.125 36.039062 0.199219 27.652344 0.199219 17.300781 C 0.199219 6.949219 7.125 -1.433594 15.660156 -1.433594 C 24.195312 -1.433594 31.121094 6.949219 31.121094 17.300781 Z M 31.121094 17.300781 "/>
</clipPath>
<clipPath id="clip15">
  <path d="M 9.574219 15.652344 L 21.726562 15.652344 L 21.726562 16.527344 L 9.574219 16.527344 Z M 9.574219 15.652344 "/>
</clipPath>
<clipPath id="clip16">
  <path d="M 31.121094 17.300781 C 31.121094 27.652344 24.195312 36.039062 15.660156 36.039062 C 7.125 36.039062 0.199219 27.652344 0.199219 17.300781 C 0.199219 6.949219 7.125 -1.433594 15.660156 -1.433594 C 24.195312 -1.433594 31.121094 6.949219 31.121094 17.300781 Z M 31.121094 17.300781 "/>
</clipPath>
<clipPath id="clip17">
  <path d="M 9.574219 18.066406 L 21.726562 18.066406 L 21.726562 18.945312 L 9.574219 18.945312 Z M 9.574219 18.066406 "/>
</clipPath>
<clipPath id="clip18">
  <path d="M 31.121094 17.300781 C 31.121094 27.652344 24.195312 36.039062 15.660156 36.039062 C 7.125 36.039062 0.199219 27.652344 0.199219 17.300781 C 0.199219 6.949219 7.125 -1.433594 15.660156 -1.433594 C 24.195312 -1.433594 31.121094 6.949219 31.121094 17.300781 Z M 31.121094 17.300781 "/>
</clipPath>
<clipPath id="clip19">
  <path d="M 9.574219 20.558594 L 21.726562 20.558594 L 21.726562 21.433594 L 9.574219 21.433594 Z M 9.574219 20.558594 "/>
</clipPath>
<clipPath id="clip20">
  <path d="M 31.121094 17.300781 C 31.121094 27.652344 24.195312 36.039062 15.660156 36.039062 C 7.125 36.039062 0.199219 27.652344 0.199219 17.300781 C 0.199219 6.949219 7.125 -1.433594 15.660156 -1.433594 C 24.195312 -1.433594 31.121094 6.949219 31.121094 17.300781 Z M 31.121094 17.300781 "/>
</clipPath>
</defs>
<g id="surface1">
<path style="fill-rule:nonzero;fill:rgb(100%,100%,100%);fill-opacity:1;stroke-width:28.025423;stroke-linecap:butt;stroke-linejoin:miter;stroke:rgb(56.078434%,56.078434%,56.078434%);stroke-opacity:1;stroke-miterlimit:4;" d="M 77.0625 24.3125 L 424.0625 24.3125 C 455.0625 24.3125 480.125 49.375 480.125 80.3125 L 480.125 427.3125 C 480.125 458.3125 455.0625 483.375 424.0625 483.375 L 77.0625 483.375 C 46.125 483.375 21.0625 458.3125 21.0625 427.3125 L 21.0625 80.3125 C 21.0625 49.375 46.125 24.3125 77.0625 24.3125 Z M 77.0625 24.3125 " transform="matrix(0.0625,0,0,0.0625,0,0)"/>
<path style=" stroke:none;fill-rule:nonzero;fill:rgb(78.039217%,43.921569%,20.784314%);fill-opacity:1;" d="M 7.835938 4.316406 L 23.484375 4.316406 C 24.675781 4.316406 25.640625 5.28125 25.640625 6.472656 L 25.640625 26.222656 C 25.640625 27.414062 24.675781 28.378906 23.484375 28.378906 L 7.835938 28.378906 C 6.644531 28.378906 5.679688 27.414062 5.679688 26.222656 L 5.679688 6.472656 C 5.679688 5.28125 6.644531 4.316406 7.835938 4.316406 Z M 7.835938 4.316406 "/>
<path style=" stroke:none;fill-rule:nonzero;fill:rgb(27.843139%,20.784314%,20.784314%);fill-opacity:1;" d="M 12.058594 5.140625 L 18.785156 5.140625 L 18.785156 6.222656 L 12.058594 6.222656 Z M 12.058594 5.140625 "/>
<path style=" stroke:none;fill-rule:nonzero;fill:rgb(65.882355%,61.960787%,54.901963%);fill-opacity:1;" d="M 13.730469 3.347656 L 17.355469 3.347656 L 17.355469 5.683594 L 13.730469 5.683594 Z M 13.730469 3.347656 "/>
<g clip-path="url(#clip1)" clip-rule="nonzero">
<g clip-path="url(#clip2)" clip-rule="nonzero">
<path style=" stroke:none;fill-rule:nonzero;fill:rgb(100%,100%,100%);fill-opacity:1;" d="M 8.9375 7.527344 L 22.382812 7.527344 C 23.125 7.527344 23.726562 8.253906 23.726562 9.15625 L 23.726562 25.449219 C 23.726562 26.347656 23.125 27.078125 22.382812 27.078125 L 8.9375 27.078125 C 8.195312 27.078125 7.59375 26.347656 7.59375 25.449219 L 7.59375 9.15625 C 7.59375 8.253906 8.195312 7.527344 8.9375 7.527344 M 8.9375 7.527344 "/>
</g>
</g>
<g clip-path="url(#clip3)" clip-rule="nonzero">
<g clip-path="url(#clip4)" clip-rule="nonzero">
<path style=" stroke:none;fill-rule:nonzero;fill:rgb(98.039216%,92.156863%,81.176472%);fill-opacity:1;" d="M 8.9375 7.527344 C 8.191406 7.527344 7.59375 8.253906 7.59375 9.15625 L 7.59375 25.449219 C 7.59375 26.351562 8.191406 27.078125 8.9375 27.078125 L 15.660156 27.078125 L 15.660156 7.527344 M 8.9375 7.527344 "/>
</g>
</g>
<g clip-path="url(#clip5)" clip-rule="nonzero">
<g clip-path="url(#clip6)" clip-rule="nonzero">
<path style=" stroke:none;fill-rule:nonzero;fill:rgb(100%,100%,100%);fill-opacity:1;" d="M 8.9375 7.527344 C 8.191406 7.527344 7.59375 8.253906 7.59375 9.15625 L 7.59375 25.449219 C 7.59375 26.351562 8.191406 27.078125 8.9375 27.078125 L 9.613281 27.078125 C 8.863281 27.078125 8.265625 26.351562 8.265625 25.449219 L 8.265625 9.15625 C 8.265625 8.253906 8.863281 7.527344 9.613281 7.527344 M 8.9375 7.527344 "/>
</g>
</g>
<g clip-path="url(#clip7)" clip-rule="nonzero">
<g clip-path="url(#clip8)" clip-rule="nonzero">
<path style=" stroke:none;fill-rule:nonzero;fill:rgb(98.039216%,92.156863%,81.176472%);fill-opacity:1;" d="M 21.710938 7.527344 C 22.457031 7.527344 23.054688 8.253906 23.054688 9.15625 L 23.054688 25.449219 C 23.054688 26.351562 22.457031 27.078125 21.710938 27.078125 L 22.382812 27.078125 C 23.128906 27.078125 23.726562 26.351562 23.726562 25.449219 L 23.726562 9.15625 C 23.726562 8.253906 23.128906 7.527344 22.382812 7.527344 M 21.710938 7.527344 "/>
</g>
</g>
<g clip-path="url(#clip9)" clip-rule="nonzero">
<g clip-path="url(#clip10)" clip-rule="nonzero">
<path style=" stroke:none;fill-rule:nonzero;fill:rgb(16.862746%,16.862746%,16.862746%);fill-opacity:0.4;" d="M 9.613281 9.15625 L 14.316406 9.15625 L 14.316406 10.785156 L 9.613281 10.785156 M 9.613281 9.15625 "/>
</g>
</g>
<g clip-path="url(#clip11)" clip-rule="nonzero">
<g clip-path="url(#clip12)" clip-rule="nonzero">
<path style=" stroke:none;fill-rule:nonzero;fill:rgb(16.862746%,16.862746%,16.862746%);fill-opacity:0.4;" d="M 17.003906 23.820312 L 21.710938 23.820312 L 21.710938 25.449219 L 17.003906 25.449219 M 17.003906 23.820312 "/>
</g>
</g>
<g clip-path="url(#clip13)" clip-rule="nonzero">
<g clip-path="url(#clip14)" clip-rule="nonzero">
<path style=" stroke:none;fill-rule:nonzero;fill:rgb(16.862746%,16.862746%,16.862746%);fill-opacity:0.4;" d="M 9.613281 13.230469 L 21.710938 13.230469 L 21.710938 14.042969 L 9.613281 14.042969 M 9.613281 13.230469 "/>
</g>
</g>
<g clip-path="url(#clip15)" clip-rule="nonzero">
<g clip-path="url(#clip16)" clip-rule="nonzero">
<path style=" stroke:none;fill-rule:nonzero;fill:rgb(16.862746%,16.862746%,16.862746%);fill-opacity:0.4;" d="M 9.613281 15.671875 L 21.710938 15.671875 L 21.710938 16.488281 L 9.613281 16.488281 M 9.613281 15.671875 "/>
</g>
</g>
<g clip-path="url(#clip17)" clip-rule="nonzero">
<g clip-path="url(#clip18)" clip-rule="nonzero">
<path style=" stroke:none;fill-rule:nonzero;fill:rgb(16.862746%,16.862746%,16.862746%);fill-opacity:0.4;" d="M 9.613281 18.117188 L 21.710938 18.117188 L 21.710938 18.933594 L 9.613281 18.933594 M 9.613281 18.117188 "/>
</g>
</g>
<g clip-path="url(#clip19)" clip-rule="nonzero">
<g clip-path="url(#clip20)" clip-rule="nonzero">
<path style=" stroke:none;fill-rule:nonzero;fill:rgb(16.862746%,16.862746%,16.862746%);fill-opacity:0.4;" d="M 9.613281 20.558594 L 21.710938 20.558594 L 21.710938 21.375 L 9.613281 21.375 M 9.613281 20.558594 "/>
</g>
</g>
<path style=" stroke:none;fill-rule:nonzero;fill:rgb(100%,0%,0%);fill-opacity:1;" d="M 14.589844 21.699219 L 16.652344 21.699219 L 16.652344 24.273438 L 14.589844 24.273438 Z M 14.589844 9.125 L 16.652344 9.125 L 16.652344 15.773438 L 16.441406 19.386719 L 14.796875 19.386719 L 14.589844 15.773438 Z M 14.589844 9.125 "/>
</g>
</svg>
