
<svg xmlns="http://www.w3.org/2000/svg" xmlns:xlink="http://www.w3.org/1999/xlink" width="32px" height="32px" viewBox="0 0 32 32" version="1.1">
<g id="surface1">
<path style=" stroke:none;fill-rule:evenodd;fill:rgb(80.392158%,61.176473%,42.745098%);fill-opacity:1;" d="M 5.019531 2.320312 L 27.074219 2.320312 C 28.808594 2.320312 30.214844 3.726562 30.214844 5.457031 L 30.214844 27.132812 C 30.214844 28.867188 28.808594 30.269531 27.074219 30.269531 L 5.019531 30.269531 C 3.285156 30.269531 1.882812 28.867188 1.882812 27.132812 L 1.882812 5.457031 C 1.882812 3.726562 3.285156 2.320312 5.019531 2.320312 Z M 5.019531 2.320312 "/>
<path style=" stroke:none;fill-rule:nonzero;fill:rgb(10.196079%,10.196079%,10.196079%);fill-opacity:1;" d="M 14.929688 10.074219 C 13.730469 10.261719 12.382812 10.960938 11.511719 11.839844 C 10.199219 13.160156 9.527344 15.097656 9.738281 16.910156 C 10.082031 19.863281 12.324219 22.117188 15.253906 22.457031 C 17.136719 22.675781 19.058594 22.003906 20.382812 20.667969 C 21.707031 19.328125 22.382812 17.398438 22.167969 15.574219 C 21.882812 13.148438 20.355469 11.210938 18.058594 10.363281 C 17.082031 10.003906 16.003906 9.902344 14.929688 10.074219 Z M 17.375 11.503906 C 19.050781 12.058594 20.40625 13.527344 20.839844 15.261719 C 20.957031 15.71875 20.957031 16.769531 20.84375 17.234375 C 20.421875 18.957031 19.058594 20.425781 17.355469 21 C 16.777344 21.195312 16.636719 21.214844 15.953125 21.214844 C 15.308594 21.214844 15.109375 21.183594 14.632812 21.035156 C 13.375 20.628906 12.417969 19.875 11.695312 18.714844 C 10.988281 17.582031 10.789062 16.347656 11.105469 15.117188 C 11.589844 13.238281 13.355469 11.625 15.277344 11.296875 C 15.867188 11.199219 16.703125 11.277344 17.375 11.503906 Z M 14.957031 13.914062 C 14.433594 14.484375 13.714844 15.261719 13.355469 15.644531 C 12.476562 16.59375 12.292969 16.832031 12.402344 16.871094 C 12.449219 16.890625 12.949219 16.910156 13.511719 16.921875 L 14.535156 16.9375 L 14.601562 19.644531 L 15.277344 19.675781 C 15.648438 19.695312 16.257812 19.695312 16.628906 19.675781 L 17.308594 19.644531 L 17.371094 16.9375 L 18.394531 16.921875 C 18.957031 16.910156 19.457031 16.890625 19.503906 16.871094 C 19.617188 16.832031 19.433594 16.59375 18.550781 15.644531 C 18.191406 15.261719 17.472656 14.484375 16.949219 13.914062 C 16.425781 13.347656 15.976562 12.878906 15.953125 12.878906 C 15.929688 12.878906 15.480469 13.347656 14.957031 13.914062 Z M 14.957031 13.914062 "/>
<path style=" stroke:none;fill-rule:evenodd;fill:rgb(89.019608%,76.862746%,66.274512%);fill-opacity:1;" d="M 13.492188 27.621094 L 18.054688 27.621094 C 18.128906 27.621094 18.191406 27.679688 18.191406 27.753906 L 18.191406 30.136719 C 18.191406 30.207031 18.128906 30.269531 18.054688 30.269531 L 13.492188 30.269531 C 13.417969 30.269531 13.359375 30.207031 13.359375 30.136719 L 13.359375 27.753906 C 13.359375 27.679688 13.417969 27.621094 13.492188 27.621094 Z M 13.492188 27.621094 "/>
<path style=" stroke:none;fill-rule:evenodd;fill:rgb(89.019608%,76.862746%,66.274512%);fill-opacity:1;" d="M 13.546875 2.320312 L 18.109375 2.320312 C 18.183594 2.320312 18.242188 2.378906 18.242188 2.453125 L 18.242188 4.835938 C 18.242188 4.910156 18.183594 4.96875 18.109375 4.96875 L 13.546875 4.96875 C 13.472656 4.96875 13.414062 4.910156 13.414062 4.835938 L 13.414062 2.453125 C 13.414062 2.378906 13.472656 2.320312 13.546875 2.320312 Z M 13.546875 2.320312 "/>
</g>
</svg>
