
<svg xmlns="http://www.w3.org/2000/svg" xmlns:xlink="http://www.w3.org/1999/xlink" width="32px" height="32px" viewBox="0 0 32 32" version="1.1">
<g id="surface1">
<path style="fill-rule:nonzero;fill:rgb(100%,100%,100%);fill-opacity:1;stroke-width:27.389011;stroke-linecap:butt;stroke-linejoin:miter;stroke:rgb(59.215689%,85.09804%,31.764707%);stroke-opacity:1;stroke-miterlimit:4;" d="M 86.4375 31.6875 L 425.5625 31.6875 C 455.8125 31.6875 480.3125 56.1875 480.3125 86.4375 L 480.3125 425.5625 C 480.3125 455.8125 455.8125 480.3125 425.5625 480.3125 L 86.4375 480.3125 C 56.1875 480.3125 31.6875 455.8125 31.6875 425.5625 L 31.6875 86.4375 C 31.6875 56.1875 56.1875 31.6875 86.4375 31.6875 Z M 86.4375 31.6875 " transform="matrix(0.0625,0,0,0.0625,0,0)"/>
<path style="fill-rule:nonzero;fill:rgb(100%,100%,100%);fill-opacity:1;stroke-width:3.6;stroke-linecap:butt;stroke-linejoin:miter;stroke:rgb(58.039218%,85.09804%,31.764707%);stroke-opacity:1;stroke-miterlimit:4;" d="M 50.863883 112.025504 C 38.472423 108.766779 29.484983 100.837905 25.624327 89.712575 L 24.773323 86.038725 L 24.067611 63.663527 C 23.299632 39.337245 23.735512 39.233464 21.327791 37.344649 C 20.352249 36.576669 19.605026 36.431376 16.740668 36.431376 C 14.851853 36.431376 12.319595 36.306838 11.094978 36.161545 L 8.894819 35.891714 L 8.894819 16.06953 L 48.85053 16.256336 C 92.459334 16.463898 91.047912 16.40163 97.565363 18.954644 C 105.784823 22.171857 112.966473 28.89687 116.453517 36.618181 C 119.151825 42.512946 119.089556 41.765722 119.276362 74.685077 C 119.442412 101.958741 119.400899 104.864611 118.778213 106.068471 C 117.615865 108.351655 115.062851 110.821644 112.862692 111.859455 L 110.766314 112.834997 L 82.28879 112.834997 C 56.03218 112.793484 53.582947 112.751972 50.863883 112.025504 Z M 92.04421 98.928334 C 101.093919 97.973548 108.088763 90.99946 109.334136 81.638408 C 109.645479 79.334468 109.728504 73.066092 109.603966 63.912602 C 109.354892 46.871751 109.292623 46.539651 104.663988 41.89026 C 101.259969 38.403216 98.603173 37.28238 93.933025 37.28238 C 90.259176 37.28238 87.623137 37.988092 84.86256 39.773126 L 82.807695 41.101524 L 79.341407 39.295733 C 75.895876 37.489942 75.854364 37.489942 71.371022 37.489942 C 67.510366 37.489942 66.597092 37.61448 64.853571 38.486241 C 61.864676 39.959932 58.834269 43.135632 57.256796 46.456627 L 55.928399 49.320984 L 55.679324 75.266251 L 65.413988 75.266251 L 65.413988 63.352184 C 65.413988 52.185341 65.476257 51.334337 66.244237 50.047451 C 68.153808 46.913263 72.554126 45.958477 75.086384 48.096367 C 77.597886 50.192745 77.639398 50.462576 77.639398 63.435209 L 77.639398 75.266251 L 87.270281 75.266251 L 87.394818 63.061597 C 87.540112 51.438118 87.60238 50.794675 88.432629 49.653083 C 91.172449 45.99999 96.195453 45.979234 98.810736 49.611571 C 99.786278 50.981481 99.786278 51.064506 99.910815 66.092004 L 100.056108 81.202528 L 98.89376 83.319661 C 97.565363 85.727382 95.55201 87.512416 92.542359 88.903083 C 90.529006 89.837112 90.3422 89.837112 71.640852 89.754088 C 50.697833 89.671063 51.362032 89.754088 48.290112 86.785949 C 47.439108 85.934944 46.297516 84.295203 45.757854 83.112099 L 44.7408 80.974209 L 44.7408 28.959139 L 41.523587 28.689308 C 39.738552 28.523258 37.642175 28.398721 36.874195 28.398721 L 35.462773 28.398721 L 35.483529 50.898456 C 35.504285 63.269159 35.670335 76.138012 35.836384 79.500518 C 36.126971 85.312258 36.209996 85.748138 37.538394 88.218128 C 39.115866 91.227779 42.789716 95.109191 45.571048 96.728175 C 49.61851 99.11514 51.299763 99.301946 70.686066 99.301946 C 80.420731 99.322702 90.030857 99.156652 92.04421 98.928334 Z M 92.04421 98.928334 " transform="matrix(0.188197,0,0,0.188197,3.931493,3.870299)"/>
<path style="fill-rule:nonzero;fill:rgb(58.039218%,85.09804%,31.764707%);fill-opacity:1;stroke-width:0.3;stroke-linecap:butt;stroke-linejoin:miter;stroke:rgb(58.039218%,85.09804%,31.764707%);stroke-opacity:1;stroke-miterlimit:4;" d="M 58.439901 99.11514 C 51.528082 98.94909 49.597754 98.637747 46.87869 97.309349 C 44.886093 96.313051 43.661477 95.399778 41.689637 93.448693 C 39.198891 90.916435 37.144026 87.844516 36.542096 85.706626 C 35.857141 83.236637 35.711847 78.33817 35.628822 51.790973 L 35.545797 28.440233 L 35.960922 28.440233 C 36.645877 28.440233 42.997278 28.855358 43.848283 28.959139 L 44.616263 29.042164 L 44.616263 80.870428 L 45.280461 82.302607 C 45.633317 83.091343 46.297516 84.274447 46.71264 84.91789 C 47.64667 86.308556 49.535485 88.176615 50.55254 88.674764 C 52.482867 89.671063 56.177473 89.837112 75.563777 89.754088 C 92.085722 89.712575 90.964887 89.774844 93.123533 88.674764 C 96.195453 87.138805 97.897462 85.416039 99.640984 82.095045 L 100.139133 81.161015 L 99.973083 66.922253 C 99.869302 58.765061 99.724009 52.268366 99.640984 51.687192 C 99.433422 50.400307 99.080566 49.694596 98.063512 48.698298 C 95.614279 46.249064 91.919673 46.228308 89.30439 48.656785 C 88.266579 49.611571 87.93448 50.192745 87.726918 51.417362 C 87.540112 52.434416 87.270281 62.521936 87.270281 69.039387 C 87.270281 71.447107 87.228769 73.813316 87.187256 74.311465 L 87.083475 75.224738 L 77.68091 75.224738 L 77.618642 63.891846 C 77.556373 52.102317 77.514861 51.541899 76.91293 50.130476 C 76.539319 49.258715 75.10714 47.868049 74.090085 47.3699 C 73.114543 46.913263 71.204972 46.809482 70.06338 47.141582 C 68.382127 47.618975 66.597092 49.030397 66.015919 50.338038 C 65.476257 51.541899 65.413988 52.766515 65.330963 64.099408 L 65.247939 75.224738 L 55.679324 75.224738 L 55.741593 74.311465 C 55.783105 73.813316 55.845374 67.98082 55.886886 61.359588 L 55.969911 49.34174 L 57.049234 47.162338 C 58.647463 43.882856 60.577791 41.475135 62.943999 39.773126 C 64.002566 39.025902 65.62155 38.174897 66.514068 37.905067 C 67.302804 37.655992 74.235379 37.531455 75.397727 37.739017 C 76.020413 37.842798 77.224274 38.361703 79.507457 39.503295 C 81.271735 40.395812 82.786939 41.101524 82.828451 41.101524 C 82.911476 41.101524 83.575675 40.707155 84.322899 40.229763 C 87.104231 38.423972 89.055315 37.739017 92.21026 37.427674 C 95.323692 37.137087 98.146537 37.572967 100.388208 38.693803 C 102.235511 39.648589 104.663988 41.72421 106.490534 43.965881 C 109.209598 47.286875 109.437917 49.196447 109.479429 68.084601 C 109.479429 76.781454 109.437917 80.185473 109.292623 81.24404 C 108.088763 90.605092 101.509043 97.537668 92.666896 98.762284 C 89.823295 99.156652 69.544475 99.364214 58.439901 99.11514 Z M 58.439901 99.11514 " transform="matrix(0.188197,0,0,0.188197,3.931493,3.870299)"/>
</g>
</svg>
