
<svg xmlns="http://www.w3.org/2000/svg" xmlns:xlink="http://www.w3.org/1999/xlink" width="32px" height="32px" viewBox="0 0 32 32" version="1.1">
<g id="surface1">
<path style=" stroke:none;fill-rule:evenodd;fill:rgb(80.392158%,61.176473%,42.745098%);fill-opacity:1;" d="M 5.019531 2.320312 L 27.074219 2.320312 C 28.808594 2.320312 30.214844 3.726562 30.214844 5.457031 L 30.214844 27.132812 C 30.214844 28.867188 28.808594 30.269531 27.074219 30.269531 L 5.019531 30.269531 C 3.285156 30.269531 1.882812 28.867188 1.882812 27.132812 L 1.882812 5.457031 C 1.882812 3.726562 3.285156 2.320312 5.019531 2.320312 Z M 5.019531 2.320312 "/>
<path style=" stroke:none;fill-rule:evenodd;fill:rgb(89.019608%,76.862746%,66.274512%);fill-opacity:1;" d="M 13.492188 27.621094 L 18.054688 27.621094 C 18.128906 27.621094 18.191406 27.679688 18.191406 27.753906 L 18.191406 30.136719 C 18.191406 30.207031 18.128906 30.269531 18.054688 30.269531 L 13.492188 30.269531 C 13.417969 30.269531 13.359375 30.207031 13.359375 30.136719 L 13.359375 27.753906 C 13.359375 27.679688 13.417969 27.621094 13.492188 27.621094 Z M 13.492188 27.621094 "/>
<path style=" stroke:none;fill-rule:evenodd;fill:rgb(89.019608%,76.862746%,66.274512%);fill-opacity:1;" d="M 13.546875 2.320312 L 18.109375 2.320312 C 18.183594 2.320312 18.242188 2.378906 18.242188 2.453125 L 18.242188 4.835938 C 18.242188 4.910156 18.183594 4.96875 18.109375 4.96875 L 13.546875 4.96875 C 13.472656 4.96875 13.414062 4.910156 13.414062 4.835938 L 13.414062 2.453125 C 13.414062 2.378906 13.472656 2.320312 13.546875 2.320312 Z M 13.546875 2.320312 "/>
<path style=" stroke:none;fill-rule:nonzero;fill:rgb(100%,100%,100%);fill-opacity:1;" d="M 14.246094 22.144531 C 12.804688 21.769531 11.761719 20.84375 11.3125 19.550781 L 11.164062 19.125 L 11.128906 16.523438 C 11.089844 13.691406 11.089844 13.683594 10.808594 13.460938 C 10.695312 13.371094 10.609375 13.355469 10.277344 13.355469 C 10.058594 13.355469 9.761719 13.339844 9.621094 13.324219 L 9.363281 13.292969 L 9.363281 10.988281 L 14.011719 11.011719 C 19.089844 11.035156 18.925781 11.027344 19.683594 11.324219 C 20.640625 11.699219 21.476562 12.480469 21.882812 13.375 C 22.195312 14.0625 22.191406 13.976562 22.214844 17.804688 C 22.230469 20.972656 22.226562 21.3125 22.152344 21.453125 C 22.015625 21.71875 21.722656 22.007812 21.464844 22.128906 L 21.21875 22.242188 L 17.90625 22.238281 C 14.847656 22.238281 14.566406 22.230469 14.246094 22.144531 Z M 19.042969 20.625 C 20.097656 20.511719 20.910156 19.699219 21.054688 18.613281 C 21.089844 18.347656 21.101562 17.617188 21.085938 16.550781 C 21.058594 14.570312 21.050781 14.53125 20.511719 13.988281 C 20.113281 13.585938 19.804688 13.453125 19.261719 13.453125 C 18.832031 13.453125 18.527344 13.539062 18.207031 13.746094 L 17.964844 13.898438 L 17.5625 13.6875 C 17.160156 13.480469 17.15625 13.480469 16.636719 13.480469 C 16.183594 13.480469 16.082031 13.496094 15.878906 13.59375 C 15.527344 13.765625 15.175781 14.136719 14.996094 14.519531 L 14.835938 14.851562 L 14.824219 16.363281 L 14.808594 17.871094 L 15.941406 17.871094 L 15.941406 16.484375 C 15.941406 15.1875 15.949219 15.089844 16.039062 14.9375 C 16.261719 14.574219 16.773438 14.464844 17.066406 14.710938 C 17.359375 14.957031 17.363281 14.988281 17.363281 16.496094 L 17.363281 17.871094 L 18.484375 17.871094 L 18.503906 16.453125 C 18.519531 15.097656 18.523438 15.027344 18.621094 14.894531 C 18.941406 14.46875 19.527344 14.464844 19.828125 14.886719 C 19.941406 15.050781 19.941406 15.058594 19.957031 16.804688 L 19.972656 18.558594 L 19.839844 18.808594 C 19.683594 19.089844 19.449219 19.292969 19.097656 19.457031 C 18.863281 19.566406 18.84375 19.566406 16.667969 19.558594 C 14.230469 19.546875 14.308594 19.558594 13.949219 19.210938 C 13.851562 19.113281 13.714844 18.921875 13.652344 18.785156 L 13.535156 18.535156 L 13.535156 12.488281 L 13.160156 12.453125 C 12.953125 12.4375 12.710938 12.421875 12.621094 12.421875 L 12.457031 12.421875 L 12.457031 15.035156 C 12.460938 16.472656 12.480469 17.972656 12.496094 18.363281 C 12.535156 19.042969 12.542969 19.089844 12.695312 19.378906 C 12.882812 19.726562 13.308594 20.175781 13.632812 20.367188 C 14.105469 20.644531 14.300781 20.664062 16.554688 20.667969 C 17.691406 20.667969 18.808594 20.648438 19.042969 20.625 Z M 19.042969 20.625 "/>
<path style="fill-rule:nonzero;fill:rgb(58.823532%,85.09804%,32.549021%);fill-opacity:1;stroke-width:0.3;stroke-linecap:butt;stroke-linejoin:miter;stroke:rgb(58.823532%,85.09804%,32.549021%);stroke-opacity:1;stroke-miterlimit:4;" d="M 60.515625 82.578125 C 57.296875 82.5 56.40625 82.359375 55.140625 81.734375 C 54.203125 81.28125 53.640625 80.859375 52.734375 79.9375 C 51.5625 78.765625 50.609375 77.34375 50.328125 76.34375 C 50.015625 75.1875 49.953125 72.921875 49.890625 60.5625 L 49.859375 49.703125 L 50.0625 49.703125 C 50.375 49.703125 53.328125 49.890625 53.734375 49.953125 L 54.078125 49.984375 L 54.078125 74.09375 L 54.390625 74.765625 C 54.5625 75.125 54.859375 75.671875 55.0625 75.96875 C 55.484375 76.609375 56.375 77.484375 56.84375 77.734375 C 57.75 78.1875 59.46875 78.265625 68.484375 78.234375 C 76.1875 78.203125 75.671875 78.234375 76.671875 77.734375 C 78.09375 77.015625 78.890625 76.203125 79.703125 74.65625 L 79.9375 74.234375 L 79.859375 67.609375 C 79.8125 63.796875 79.734375 60.796875 79.703125 60.515625 C 79.609375 59.921875 79.4375 59.59375 78.96875 59.125 C 77.828125 57.984375 76.109375 57.984375 74.890625 59.109375 C 74.421875 59.546875 74.265625 59.828125 74.15625 60.390625 C 74.0625 60.859375 73.953125 65.5625 73.953125 68.578125 C 73.953125 69.703125 73.921875 70.8125 73.90625 71.046875 L 73.859375 71.453125 L 69.484375 71.453125 L 69.453125 66.1875 C 69.421875 60.703125 69.40625 60.453125 69.125 59.796875 C 68.953125 59.390625 68.28125 58.734375 67.796875 58.515625 C 67.359375 58.296875 66.46875 58.25 65.9375 58.40625 C 65.140625 58.640625 64.3125 59.296875 64.046875 59.890625 C 63.796875 60.453125 63.765625 61.015625 63.734375 66.296875 L 63.6875 71.453125 L 59.234375 71.453125 L 59.265625 71.046875 C 59.28125 70.796875 59.3125 68.09375 59.328125 65.015625 L 59.375 59.421875 L 59.875 58.40625 C 60.609375 56.890625 61.515625 55.765625 62.625 54.984375 C 63.109375 54.640625 63.859375 54.234375 64.28125 54.109375 C 64.640625 53.984375 67.875 53.9375 68.421875 54.03125 C 68.703125 54.078125 69.265625 54.328125 70.328125 54.84375 C 71.15625 55.265625 71.859375 55.59375 71.890625 55.59375 C 71.90625 55.59375 72.21875 55.40625 72.578125 55.1875 C 73.859375 54.34375 74.765625 54.03125 76.234375 53.890625 C 77.6875 53.75 79.015625 53.953125 80.046875 54.484375 C 80.921875 54.921875 82.046875 55.890625 82.890625 56.921875 C 84.15625 58.46875 84.265625 59.359375 84.28125 68.140625 C 84.28125 72.1875 84.265625 73.765625 84.203125 74.265625 C 83.640625 78.625 80.578125 81.84375 76.453125 82.421875 C 75.125 82.59375 65.6875 82.703125 60.515625 82.578125 Z M 60.515625 82.578125 " transform="matrix(0.25,0,0,0.25,0,0)"/>
</g>
</svg>
