
<svg xmlns="http://www.w3.org/2000/svg" xmlns:xlink="http://www.w3.org/1999/xlink" width="32px" height="32px" viewBox="0 0 32 32" version="1.1">
<g id="surface1">
<path style="fill-rule:nonzero;fill:rgb(92.54902%,92.54902%,92.54902%);fill-opacity:1;stroke-width:27.442497;stroke-linecap:butt;stroke-linejoin:miter;stroke:rgb(59.215689%,85.490197%,32.941177%);stroke-opacity:1;stroke-miterlimit:4;" d="M 86.606281 31.749374 L 426.39347 31.749374 C 456.702537 31.749374 481.250377 56.297214 481.250377 86.606281 L 481.250377 426.39347 C 481.250377 456.702537 456.702537 481.250377 426.39347 481.250377 L 86.606281 481.250377 C 56.297214 481.250377 31.749374 456.702537 31.749374 426.39347 L 31.749374 86.606281 C 31.749374 56.297214 56.297214 31.749374 86.606281 31.749374 Z M 86.606281 31.749374 " transform="matrix(0.0623782,0,0,0.0623782,0,0)"/>
<path style=" stroke:none;fill-rule:nonzero;fill:rgb(100%,100%,100%);fill-opacity:1;" d="M 27.230469 16.09375 C 27.230469 22.289062 22.207031 27.3125 16.011719 27.3125 C 9.816406 27.3125 4.792969 22.289062 4.792969 16.09375 C 4.792969 9.898438 9.816406 4.875 16.011719 4.875 C 22.207031 4.875 27.230469 9.898438 27.230469 16.09375 Z M 27.230469 16.09375 "/>
<path style=" stroke:none;fill-rule:nonzero;fill:rgb(59.215689%,85.490197%,32.941177%);fill-opacity:1;" d="M 14.949219 27.835938 C 13.300781 27.691406 11.496094 27.105469 10.042969 26.246094 C 6.863281 24.355469 4.808594 21.226562 4.324219 17.53125 C 4.160156 16.28125 4.242188 14.625 4.527344 13.410156 C 4.832031 12.125 5.464844 10.628906 6.140625 9.605469 C 8.121094 6.601562 11.308594 4.667969 14.894531 4.300781 C 15.695312 4.214844 17.179688 4.265625 17.976562 4.402344 C 22.378906 5.15625 25.902344 8.1875 27.296875 12.425781 C 27.675781 13.570312 27.847656 14.730469 27.847656 16.074219 C 27.847656 17.503906 27.652344 18.691406 27.183594 20.03125 C 26.804688 21.128906 25.980469 22.605469 25.246094 23.496094 C 22.722656 26.578125 18.910156 28.183594 14.949219 27.835938 Z M 17.488281 23.339844 C 18.226562 23.191406 18.703125 23.027344 19.378906 22.691406 C 20.605469 22.078125 21.667969 21.097656 22.402344 19.902344 C 23.199219 18.601562 23.585938 16.925781 23.4375 15.425781 C 23.253906 13.558594 22.503906 11.996094 21.183594 10.722656 C 20.136719 9.714844 18.878906 9.058594 17.449219 8.769531 C 16.800781 8.636719 15.253906 8.636719 14.640625 8.769531 C 13.125 9.09375 11.859375 9.769531 10.8125 10.820312 C 9.539062 12.097656 8.796875 13.6875 8.652344 15.453125 L 8.613281 15.917969 L 7.96875 15.945312 C 7.386719 15.964844 7.320312 15.980469 7.300781 16.066406 C 7.277344 16.199219 9.390625 18.324219 9.546875 18.324219 C 9.679688 18.324219 11.871094 16.136719 11.835938 16.039062 C 11.816406 15.988281 11.636719 15.964844 11.082031 15.957031 L 10.347656 15.941406 L 10.347656 15.769531 C 10.347656 15.226562 10.648438 14.09375 10.957031 13.488281 C 11.527344 12.359375 12.660156 11.292969 13.808594 10.816406 C 14.578125 10.496094 15.097656 10.394531 15.984375 10.386719 C 16.832031 10.382812 17.113281 10.425781 17.824219 10.652344 C 18.695312 10.933594 19.394531 11.367188 20.074219 12.058594 C 21.199219 13.199219 21.726562 14.476562 21.726562 16.074219 C 21.726562 17.074219 21.542969 17.839844 21.097656 18.695312 C 20.523438 19.800781 19.644531 20.652344 18.519531 21.191406 C 16.328125 22.238281 13.828125 21.832031 12.058594 20.140625 C 11.878906 19.964844 11.707031 19.824219 11.6875 19.824219 C 11.664062 19.824219 11.386719 20.050781 11.074219 20.328125 C 10.714844 20.640625 10.503906 20.867188 10.503906 20.929688 C 10.503906 21.152344 11.636719 22.101562 12.441406 22.554688 C 13.1875 22.972656 14.285156 23.335938 15.148438 23.441406 C 15.753906 23.515625 16.863281 23.46875 17.488281 23.339844 Z M 17.488281 23.339844 "/>
</g>
</svg>
