
<svg xmlns="http://www.w3.org/2000/svg" xmlns:xlink="http://www.w3.org/1999/xlink" width="32px" height="32px" viewBox="0 0 32 32" version="1.1">
<g id="surface1">
<path style="fill-rule:nonzero;fill:rgb(100%,100%,100%);fill-opacity:0.976471;stroke-width:28.636707;stroke-linecap:butt;stroke-linejoin:miter;stroke:rgb(9.803922%,72.941178%,61.176473%);stroke-opacity:1;stroke-miterlimit:4;" d="M 78.6875 21.4375 L 433.3125 21.4375 C 464.9375 21.4375 490.5625 47.0625 490.5625 78.6875 L 490.5625 433.3125 C 490.5625 464.9375 464.9375 490.5625 433.3125 490.5625 L 78.6875 490.5625 C 47.0625 490.5625 21.4375 464.9375 21.4375 433.3125 L 21.4375 78.6875 C 21.4375 47.0625 47.0625 21.4375 78.6875 21.4375 Z M 78.6875 21.4375 " transform="matrix(0.0625,0,0,0.0625,0,0)"/>
<path style=" stroke:none;fill-rule:nonzero;fill:rgb(9.803922%,72.941178%,61.176473%);fill-opacity:1;" d="M 24.757812 8.636719 C 24.578125 8.480469 24.367188 8.402344 24.121094 8.402344 L 7.878906 8.402344 C 7.632812 8.402344 7.421875 8.480469 7.246094 8.636719 C 7.066406 8.789062 6.976562 8.972656 6.976562 9.183594 L 6.976562 18.589844 C 6.976562 19.292969 7.132812 19.988281 7.449219 20.679688 C 7.761719 21.371094 8.152344 21.980469 8.617188 22.515625 C 9.082031 23.050781 9.636719 23.570312 10.28125 24.078125 C 10.925781 24.582031 11.519531 25.003906 12.066406 25.339844 C 12.613281 25.675781 13.179688 25.988281 13.769531 26.285156 C 14.363281 26.585938 14.785156 26.785156 15.035156 26.894531 C 15.285156 27 15.480469 27.082031 15.632812 27.136719 C 15.746094 27.1875 15.867188 27.210938 16 27.210938 C 16.132812 27.210938 16.253906 27.1875 16.367188 27.136719 C 16.519531 27.082031 16.714844 27 16.964844 26.894531 C 17.214844 26.785156 17.636719 26.585938 18.230469 26.285156 C 18.820312 25.988281 19.386719 25.675781 19.933594 25.339844 C 20.480469 25.003906 21.074219 24.582031 21.71875 24.078125 C 22.363281 23.570312 22.917969 23.050781 23.378906 22.515625 C 23.847656 21.980469 24.238281 21.371094 24.550781 20.679688 C 24.867188 19.988281 25.023438 19.292969 25.023438 18.589844 L 25.023438 9.183594 C 25.023438 8.972656 24.933594 8.789062 24.757812 8.636719 Z M 22.316406 18.589844 C 22.316406 20.027344 21.214844 21.496094 19.003906 23 C 18.121094 23.605469 17.121094 24.160156 16 24.675781 L 16 10.753906 L 22.316406 10.753906 Z M 22.316406 18.589844 "/>
<path style=" stroke:none;fill-rule:nonzero;fill:rgb(9.803922%,72.941178%,61.176473%);fill-opacity:1;" d="M 15.996094 4.789062 C 15.617188 4.789062 15.234375 4.917969 14.941406 5.175781 L 7.417969 8.339844 C 6.832031 8.847656 6.828125 9.671875 7.410156 10.179688 L 7.605469 10.347656 L 24.394531 10.347656 L 24.582031 10.1875 C 25.167969 9.675781 25.171875 8.855469 24.589844 8.347656 L 17.050781 5.167969 C 16.757812 4.910156 16.378906 4.785156 15.996094 4.789062 Z M 15.996094 4.789062 "/>
<path style=" stroke:none;fill-rule:nonzero;fill:rgb(0%,50.196081%,0%);fill-opacity:1;" d="M 13.402344 18.394531 L 20.285156 12.414062 C 20.660156 12.089844 21.214844 12.042969 21.523438 12.3125 L 21.773438 12.53125 C 22.082031 12.800781 22.03125 13.28125 21.65625 13.605469 L 14.777344 19.585938 C 14.402344 19.910156 13.847656 19.957031 13.535156 19.6875 L 13.285156 19.46875 C 12.972656 19.199219 13.027344 18.71875 13.402344 18.394531 Z M 13.402344 18.394531 "/>
<path style=" stroke:none;fill-rule:nonzero;fill:rgb(0%,50.196081%,0%);fill-opacity:1;" d="M 11.644531 15.660156 L 14.5625 18.195312 C 14.902344 18.488281 14.894531 18.96875 14.542969 19.269531 L 14.425781 19.371094 C 14.082031 19.671875 13.527344 19.679688 13.191406 19.386719 L 10.269531 16.851562 C 9.933594 16.558594 9.941406 16.078125 10.289062 15.777344 L 10.40625 15.675781 C 10.753906 15.371094 11.308594 15.367188 11.644531 15.660156 Z M 11.644531 15.660156 "/>
<path style=" stroke:none;fill-rule:nonzero;fill:rgb(0%,50.196081%,0%);fill-opacity:1;" d="M 21.011719 12.136719 C 20.925781 12.136719 20.835938 12.148438 20.75 12.171875 C 21.371094 12.285156 21.847656 12.667969 21.957031 13.144531 C 22.011719 12.917969 21.957031 12.691406 21.773438 12.53125 L 21.523438 12.3125 C 21.386719 12.195312 21.207031 12.136719 21.011719 12.136719 Z M 16 16.136719 L 13.402344 18.394531 C 13.027344 18.71875 12.972656 19.199219 13.285156 19.46875 L 13.535156 19.6875 C 13.847656 19.957031 14.398438 19.910156 14.777344 19.585938 L 16 18.519531 Z M 16 16.136719 "/>
<path style=" stroke:none;fill-rule:nonzero;fill:rgb(0%,50.196081%,0%);fill-opacity:1;" d="M 11.644531 15.660156 L 14.5625 18.195312 C 14.902344 18.488281 14.894531 18.96875 14.542969 19.269531 L 14.425781 19.371094 C 14.082031 19.671875 13.527344 19.679688 13.191406 19.386719 L 10.269531 16.851562 C 9.933594 16.558594 9.941406 16.078125 10.289062 15.777344 L 10.40625 15.675781 C 10.753906 15.371094 11.308594 15.367188 11.644531 15.660156 Z M 11.644531 15.660156 "/>
</g>
</svg>
