
<svg xmlns="http://www.w3.org/2000/svg" xmlns:xlink="http://www.w3.org/1999/xlink" width="32px" height="32px" viewBox="0 0 32 32" version="1.1">
<g id="surface1">
<path style="fill-rule:nonzero;fill:rgb(100%,100%,100%);fill-opacity:1;stroke-width:28.191782;stroke-linecap:butt;stroke-linejoin:miter;stroke:rgb(12.941177%,75.294119%,93.725491%);stroke-opacity:1;stroke-miterlimit:4;" d="M 81.5 23.130368 L 430.5 23.130368 C 461.6875 23.130368 486.9375 48.307121 486.9375 79.499011 L 486.9375 428.500911 C 486.9375 459.6928 461.6875 484.869554 430.5 484.869554 L 81.5 484.869554 C 50.3125 484.869554 25.0625 459.6928 25.0625 428.500911 L 25.0625 79.499011 C 25.0625 48.307121 50.3125 23.130368 81.5 23.130368 Z M 81.5 23.130368 " transform="matrix(0.0625,0,0,0.0629921,0,0)"/>
<path style=" stroke:none;fill-rule:nonzero;fill:rgb(12.941177%,75.294119%,93.725491%);fill-opacity:1;" d="M 15.296875 27.398438 C 15.230469 27.355469 15.230469 27.347656 15.296875 27.300781 C 15.335938 27.277344 15.398438 27.253906 15.433594 27.253906 C 15.566406 27.253906 16.386719 26.945312 16.875 26.714844 C 17.152344 26.582031 17.394531 26.476562 17.417969 26.476562 C 17.441406 26.476562 17.460938 26.519531 17.460938 26.574219 C 17.460938 26.691406 17.269531 27.304688 17.207031 27.386719 C 17.148438 27.460938 15.410156 27.472656 15.296875 27.398438 Z M 17.726562 27.304688 C 17.699219 27.261719 18.070312 26.085938 18.148438 25.957031 C 18.167969 25.925781 18.394531 25.777344 18.652344 25.625 C 19.207031 25.296875 19.800781 24.894531 20.128906 24.613281 L 20.371094 24.40625 L 21.214844 24.429688 C 21.972656 24.449219 23.410156 24.363281 23.871094 24.265625 C 24.089844 24.222656 24.03125 24.351562 23.703125 24.640625 C 22.214844 25.957031 20.339844 26.878906 18.398438 27.257812 C 17.855469 27.363281 17.765625 27.371094 17.726562 27.304688 Z M 13.800781 27.207031 C 13.574219 27.160156 13.050781 27.003906 12.636719 26.863281 L 11.890625 26.613281 L 11.675781 26.316406 C 10.691406 24.941406 9.980469 22.765625 9.875 20.8125 L 9.84375 20.261719 L 9.960938 20.296875 C 10.023438 20.316406 10.175781 20.382812 10.292969 20.441406 C 11.042969 20.824219 12.125 21.222656 12.738281 21.34375 C 12.863281 21.371094 13.09375 21.488281 13.316406 21.644531 C 13.9375 22.082031 14.613281 22.476562 15.375 22.847656 C 16.363281 23.332031 16.617188 23.441406 17.316406 23.667969 C 17.648438 23.777344 17.9375 23.886719 17.960938 23.910156 C 18.050781 23.996094 17.738281 25.792969 17.609375 25.949219 C 17.464844 26.125 16.632812 26.621094 16.105469 26.84375 C 15.015625 27.308594 14.585938 27.375 13.800781 27.207031 Z M 11.039062 26.203125 C 9.601562 25.4375 8.058594 24.03125 7.136719 22.648438 C 5.96875 20.898438 5.332031 19.144531 5.074219 16.988281 C 5.058594 16.828125 5.0625 16.730469 5.09375 16.730469 C 5.121094 16.730469 5.222656 16.855469 5.316406 17.011719 C 6.089844 18.234375 7.222656 19.277344 8.558594 20.003906 L 8.921875 20.199219 L 9.03125 20.855469 C 9.261719 22.257812 9.644531 23.433594 10.222656 24.519531 C 10.519531 25.082031 10.886719 25.65625 11.167969 26 C 11.269531 26.121094 11.351562 26.238281 11.351562 26.253906 C 11.351562 26.308594 11.183594 26.28125 11.039062 26.203125 Z M 18.402344 25.207031 C 18.425781 25.144531 18.488281 24.878906 18.542969 24.613281 L 18.644531 24.125 L 19.027344 24.070312 C 19.613281 23.980469 19.625 23.984375 19.625 24.136719 C 19.625 24.273438 19.46875 24.445312 18.789062 25.042969 C 18.460938 25.335938 18.347656 25.382812 18.402344 25.207031 Z M 22.269531 24.023438 C 22.179688 24.011719 21.800781 23.96875 21.429688 23.925781 C 21.058594 23.886719 20.738281 23.835938 20.71875 23.816406 C 20.695312 23.792969 20.839844 23.589844 21.035156 23.367188 C 21.226562 23.140625 21.449219 22.871094 21.527344 22.765625 C 21.605469 22.660156 21.796875 22.410156 21.949219 22.214844 C 22.367188 21.679688 22.675781 21.207031 22.980469 20.628906 C 23.171875 20.261719 23.292969 20.089844 23.390625 20.035156 C 24.101562 19.644531 24.914062 19.070312 25.503906 18.542969 C 25.632812 18.425781 25.757812 18.332031 25.777344 18.332031 C 25.941406 18.332031 26.019531 20.835938 25.886719 21.675781 C 25.828125 22.039062 25.789062 22.136719 25.5625 22.480469 C 25.179688 23.066406 24.566406 23.824219 24.382812 23.933594 C 24.238281 24.019531 24.128906 24.027344 23.332031 24.035156 C 22.839844 24.039062 22.363281 24.035156 22.269531 24.023438 Z M 19.363281 23.585938 C 19.070312 23.519531 18.808594 23.4375 18.777344 23.40625 C 18.734375 23.367188 18.730469 23.285156 18.761719 23.132812 C 18.785156 23.011719 18.820312 22.496094 18.839844 21.980469 C 18.863281 21.324219 18.890625 21.03125 18.933594 20.996094 C 18.964844 20.96875 19.269531 20.894531 19.609375 20.832031 C 20.503906 20.664062 21.222656 20.488281 21.714844 20.320312 C 21.953125 20.238281 22.164062 20.191406 22.183594 20.214844 C 22.253906 20.28125 21.402344 21.832031 20.765625 22.792969 C 20.296875 23.5 20.117188 23.714844 19.992188 23.710938 C 19.9375 23.707031 19.652344 23.652344 19.363281 23.585938 Z M 17.605469 23.0625 C 16.695312 22.707031 15.378906 22.042969 14.757812 21.621094 C 14.121094 21.191406 14.121094 21.125 14.75 21.304688 C 15.703125 21.578125 15.847656 21.59375 17.035156 21.570312 L 18.136719 21.550781 L 18.121094 22.375 C 18.113281 22.871094 18.089844 23.203125 18.0625 23.207031 C 18.035156 23.214844 17.832031 23.152344 17.605469 23.0625 Z M 26.246094 21.203125 C 26.234375 21.179688 26.253906 20.824219 26.296875 20.414062 C 26.347656 19.886719 26.363281 19.335938 26.347656 18.550781 L 26.324219 17.433594 L 26.882812 16.855469 C 27.191406 16.535156 27.460938 16.261719 27.488281 16.253906 C 27.609375 16.199219 27.394531 18.058594 27.175781 18.9375 C 26.988281 19.667969 26.386719 21.242188 26.292969 21.242188 C 26.28125 21.242188 26.261719 21.222656 26.246094 21.203125 Z M 15.03125 20.4375 C 14.457031 20.402344 13.625 20.316406 13.105469 20.238281 C 12.640625 20.171875 12.554688 20.144531 12.386719 20.003906 C 11.550781 19.324219 10.003906 17.574219 10.003906 17.3125 C 10.003906 17.089844 10.503906 15.0625 10.582031 14.972656 C 10.601562 14.949219 10.910156 14.867188 11.269531 14.792969 C 12.546875 14.519531 14.246094 14 15.136719 13.613281 C 15.289062 13.542969 15.621094 13.402344 15.871094 13.292969 C 16.121094 13.183594 16.339844 13.109375 16.359375 13.128906 C 16.433594 13.207031 16.980469 14.644531 17.191406 15.324219 C 17.390625 15.960938 17.636719 16.957031 17.820312 17.871094 C 17.894531 18.246094 18.011719 19.09375 18.078125 19.761719 C 18.101562 20.003906 18.128906 20.230469 18.140625 20.269531 C 18.152344 20.328125 18.089844 20.351562 17.847656 20.375 C 17.433594 20.414062 15.398438 20.457031 15.03125 20.4375 Z M 18.839844 20.230469 C 18.824219 20.210938 18.792969 19.921875 18.761719 19.589844 C 18.640625 18.152344 18.511719 17.386719 18.203125 16.230469 C 17.957031 15.292969 17.636719 14.394531 17.21875 13.460938 C 17.058594 13.105469 16.933594 12.769531 16.933594 12.710938 C 16.933594 12.558594 17.054688 12.460938 17.679688 12.125 C 19.214844 11.304688 20.324219 10.582031 20.910156 10.027344 C 21.023438 9.917969 21.089844 9.890625 21.175781 9.910156 C 21.242188 9.925781 21.527344 10.203125 21.828125 10.535156 C 22.648438 11.449219 23.089844 12.019531 23.660156 12.894531 L 23.867188 13.214844 L 23.835938 13.941406 C 23.808594 14.644531 23.675781 15.839844 23.574219 16.394531 C 23.464844 16.964844 23.164062 18.035156 22.910156 18.761719 L 22.785156 19.121094 L 22.488281 19.257812 C 22.148438 19.410156 21.050781 19.789062 20.59375 19.90625 C 20.292969 19.984375 18.960938 20.269531 18.894531 20.269531 C 18.878906 20.269531 18.851562 20.253906 18.839844 20.230469 Z M 10.476562 19.664062 C 10.167969 19.574219 9.894531 19.492188 9.871094 19.476562 C 9.847656 19.464844 9.835938 19.214844 9.847656 18.925781 C 9.867188 18.363281 9.890625 18.183594 9.945312 18.1875 C 9.964844 18.191406 10.089844 18.332031 10.222656 18.511719 C 10.484375 18.863281 10.808594 19.246094 11.144531 19.605469 L 11.363281 19.835938 L 11.199219 19.832031 C 11.113281 19.824219 10.785156 19.753906 10.476562 19.664062 Z M 8.175781 18.777344 C 7.21875 18.261719 6.503906 17.746094 5.863281 17.113281 C 5.378906 16.636719 5.058594 16.222656 5.019531 16.023438 C 4.980469 15.808594 5.019531 15.1875 5.078125 15.132812 C 5.101562 15.109375 5.292969 15.109375 5.503906 15.136719 C 5.71875 15.160156 6.367188 15.1875 6.949219 15.195312 L 8.007812 15.207031 L 8.246094 15.691406 C 8.378906 15.957031 8.601562 16.375 8.742188 16.621094 L 8.992188 17.066406 L 8.945312 17.640625 C 8.917969 17.953125 8.898438 18.410156 8.898438 18.660156 C 8.898438 18.984375 8.878906 19.105469 8.839844 19.105469 C 8.804688 19.105469 8.503906 18.957031 8.175781 18.777344 Z M 23.8125 18.460938 C 23.8125 18.398438 23.867188 18.1875 23.933594 17.988281 C 24.125 17.425781 24.453125 15.765625 24.511719 15.046875 C 24.53125 14.824219 24.566406 14.644531 24.585938 14.644531 C 24.738281 14.644531 25.742188 17.148438 25.667969 17.339844 C 25.632812 17.441406 23.945312 18.574219 23.832031 18.574219 C 23.820312 18.574219 23.8125 18.523438 23.8125 18.460938 Z M 26.105469 16.839844 C 26.09375 16.820312 26.027344 16.597656 25.957031 16.34375 C 25.652344 15.222656 25.238281 14.136719 24.78125 13.238281 C 24.496094 12.679688 24.46875 12.597656 24.40625 12.125 C 24.222656 10.679688 23.851562 9.378906 23.300781 8.246094 C 22.988281 7.597656 22.988281 7.597656 23.085938 7.5 C 23.222656 7.363281 23.316406 7.417969 23.925781 8.007812 C 25.3125 9.339844 26.269531 10.804688 26.910156 12.5625 C 27.136719 13.191406 27.269531 13.722656 27.398438 14.550781 C 27.503906 15.230469 27.503906 15.257812 27.421875 15.449219 C 27.269531 15.792969 26.171875 16.957031 26.105469 16.839844 Z M 8.878906 15.582031 C 8.558594 14.976562 8.582031 14.867188 8.996094 15.015625 C 9.128906 15.066406 9.261719 15.128906 9.285156 15.15625 C 9.308594 15.1875 9.300781 15.363281 9.257812 15.59375 C 9.222656 15.808594 9.1875 15.984375 9.1875 15.992188 C 9.1875 16 9.167969 16.003906 9.144531 16.003906 C 9.121094 16.003906 9.003906 15.816406 8.878906 15.582031 Z M 5.722656 14.554688 L 5.167969 14.527344 L 5.152344 14.386719 C 5.09375 13.871094 5.691406 12.058594 6.257812 11.027344 C 6.5625 10.476562 6.675781 10.316406 6.734375 10.355469 C 6.753906 10.367188 6.785156 10.527344 6.804688 10.707031 C 6.878906 11.445312 7.246094 12.929688 7.582031 13.859375 C 7.753906 14.339844 7.785156 14.472656 7.734375 14.507812 C 7.699219 14.527344 7.484375 14.550781 7.257812 14.550781 C 7.027344 14.550781 6.714844 14.558594 6.558594 14.566406 C 6.402344 14.574219 6.027344 14.570312 5.722656 14.554688 Z M 8.285156 14.394531 C 8.199219 14.25 8.003906 13.742188 7.738281 12.949219 C 7.464844 12.128906 7.285156 11.402344 7.066406 10.246094 L 6.964844 9.695312 L 7.230469 9.339844 C 7.816406 8.558594 8.730469 7.699219 9.644531 7.074219 C 10.210938 6.6875 10.828125 6.335938 10.925781 6.339844 C 11.097656 6.355469 12.214844 7.203125 12.933594 7.867188 L 13.285156 8.1875 L 13.003906 8.496094 C 11.542969 10.089844 10.460938 11.84375 9.761719 13.734375 C 9.648438 14.046875 9.523438 14.316406 9.484375 14.332031 C 9.410156 14.359375 8.617188 14.449219 8.433594 14.453125 C 8.371094 14.453125 8.308594 14.425781 8.285156 14.394531 Z M 10.871094 13.945312 C 10.871094 13.824219 11.4375 12.519531 11.746094 11.933594 C 12.316406 10.847656 13.589844 8.972656 13.757812 8.972656 C 13.855469 8.972656 14.632812 9.964844 15.144531 10.742188 C 15.527344 11.320312 16.058594 12.246094 16.03125 12.285156 C 16 12.339844 15.511719 12.5625 14.789062 12.855469 C 13.707031 13.289062 12.6875 13.621094 11.675781 13.875 C 11.03125 14.035156 10.871094 14.050781 10.871094 13.945312 Z M 16.558594 11.917969 C 16.535156 11.886719 16.433594 11.714844 16.332031 11.542969 C 15.808594 10.652344 15.125 9.699219 14.488281 8.988281 C 14.269531 8.742188 14.09375 8.496094 14.09375 8.445312 C 14.09375 8.320312 14.800781 7.65625 15.472656 7.148438 C 16.207031 6.597656 16.179688 6.605469 16.574219 6.769531 C 17.804688 7.261719 19.097656 7.996094 20.074219 8.753906 C 20.285156 8.914062 20.515625 9.089844 20.59375 9.144531 C 20.667969 9.195312 20.722656 9.261719 20.714844 9.289062 C 20.652344 9.496094 18.441406 11.011719 17.171875 11.722656 C 16.683594 11.996094 16.632812 12.011719 16.558594 11.917969 Z M 23.640625 11.363281 C 23.613281 11.339844 23.417969 11.105469 23.207031 10.839844 C 22.996094 10.574219 22.570312 10.089844 22.261719 9.769531 C 21.902344 9.398438 21.695312 9.144531 21.695312 9.082031 C 21.695312 8.988281 21.894531 8.816406 22.714844 8.203125 C 22.792969 8.144531 22.8125 8.160156 22.941406 8.445312 C 23.246094 9.128906 23.628906 10.472656 23.695312 11.09375 C 23.730469 11.40625 23.726562 11.421875 23.640625 11.363281 Z M 21.144531 8.734375 C 21.09375 8.652344 20.171875 7.96875 19.683594 7.648438 C 18.996094 7.199219 17.675781 6.523438 17.082031 6.316406 C 16.859375 6.238281 16.792969 6.152344 16.878906 6.042969 C 16.960938 5.945312 17.691406 5.636719 18.332031 5.433594 L 18.890625 5.253906 L 19.199219 5.335938 C 19.765625 5.484375 20.652344 5.828125 21.25 6.128906 L 21.839844 6.425781 L 22.222656 6.945312 C 22.433594 7.230469 22.609375 7.480469 22.609375 7.5 C 22.609375 7.542969 21.558594 8.589844 21.410156 8.695312 C 21.269531 8.789062 21.183594 8.800781 21.144531 8.734375 Z M 13.363281 7.824219 C 13.171875 7.589844 12.050781 6.683594 11.433594 6.261719 C 11.308594 6.175781 11.207031 6.089844 11.207031 6.066406 C 11.207031 5.980469 11.34375 5.925781 11.785156 5.816406 C 12.222656 5.714844 12.269531 5.714844 13.035156 5.769531 C 14.195312 5.859375 15.542969 6.125 15.597656 6.277344 C 15.636719 6.371094 15.589844 6.421875 15.269531 6.621094 C 14.894531 6.863281 14.128906 7.433594 13.835938 7.699219 C 13.582031 7.921875 13.46875 7.953125 13.363281 7.824219 Z M 22.636719 7.046875 C 22.421875 6.730469 22.507812 6.640625 22.792969 6.878906 C 22.921875 6.988281 22.949219 7.039062 22.925781 7.121094 C 22.875 7.277344 22.773438 7.25 22.636719 7.046875 Z M 15.824219 5.910156 C 15.496094 5.796875 14.140625 5.542969 13.660156 5.503906 C 13.027344 5.457031 12.890625 5.433594 12.890625 5.363281 C 12.890625 5.285156 13.292969 5.191406 14.167969 5.058594 C 14.636719 4.988281 15.078125 4.972656 16.605469 4.972656 C 17.886719 4.972656 18.480469 4.988281 18.519531 5.027344 C 18.597656 5.105469 18.503906 5.160156 18.136719 5.257812 C 17.8125 5.347656 16.640625 5.832031 16.476562 5.949219 C 16.351562 6.035156 16.152344 6.027344 15.824219 5.910156 Z M 15.824219 5.910156 "/>
<path style=" stroke:none;fill-rule:nonzero;fill:rgb(86.274511%,19.607843%,18.431373%);fill-opacity:1;" d="M 18.757812 25.886719 L 17.496094 24.617188 L 25.0625 16.992188 L 26.324219 18.261719 Z M 18.757812 25.886719 "/>
<path style=" stroke:none;fill-rule:evenodd;fill:rgb(86.274511%,19.607843%,18.431373%);fill-opacity:1;" d="M 17.707031 25.675781 C 20.027344 28.019531 23.792969 28.019531 26.113281 25.675781 C 28.4375 23.339844 28.4375 19.542969 26.113281 17.203125 C 23.792969 14.863281 20.027344 14.863281 17.707031 17.203125 C 15.386719 19.542969 15.386719 23.339844 17.707031 25.675781 Z M 18.96875 24.40625 C 17.34375 22.769531 17.34375 20.113281 18.96875 18.472656 C 20.59375 16.835938 23.230469 16.835938 24.855469 18.472656 C 26.480469 20.113281 26.480469 22.769531 24.855469 24.40625 C 23.230469 26.042969 20.59375 26.042969 18.96875 24.40625 Z M 18.96875 24.40625 "/>
</g>
</svg>
