
<svg xmlns="http://www.w3.org/2000/svg" xmlns:xlink="http://www.w3.org/1999/xlink" width="32px" height="32px" viewBox="0 0 32 32" version="1.1">
<g id="surface1">
<path style="fill-rule:nonzero;fill:rgb(100%,100%,100%);fill-opacity:1;stroke-width:18.73;stroke-linecap:butt;stroke-linejoin:miter;stroke:rgb(23.921569%,32.941177%,24.705882%);stroke-opacity:1;stroke-miterlimit:4;" d="M 78.625 31 L 433.375 31 C 459.6875 31 481 52.3125 481 78.625 L 481 433.375 C 481 459.6875 459.6875 481 433.375 481 L 78.625 481 C 52.3125 481 31 459.6875 31 433.375 L 31 78.625 C 31 52.3125 52.3125 31 78.625 31 Z M 78.625 31 " transform="matrix(0.0625,0,0,0.0625,0,0)"/>
<path style=" stroke:none;fill-rule:nonzero;fill:rgb(84.313726%,84.313726%,84.313726%);fill-opacity:1;" d="M 8.246094 22.527344 L 9.769531 22.527344 L 9.769531 25.199219 L 8.246094 25.199219 Z M 8.246094 22.527344 "/>
<path style=" stroke:none;fill-rule:nonzero;fill:rgb(84.313726%,84.313726%,84.313726%);fill-opacity:1;" d="M 9.550781 22.523438 L 11.074219 22.523438 L 11.074219 25.191406 L 9.550781 25.191406 Z M 9.550781 22.523438 "/>
<path style=" stroke:none;fill-rule:nonzero;fill:rgb(84.313726%,84.313726%,84.313726%);fill-opacity:1;" d="M 10.589844 22.523438 L 12.117188 22.523438 L 12.117188 25.191406 L 10.589844 25.191406 Z M 10.589844 22.523438 "/>
<path style=" stroke:none;fill-rule:nonzero;fill:rgb(97.254902%,87.058824%,40.784314%);fill-opacity:1;" d="M 8.449219 22.523438 L 9.972656 22.523438 L 9.972656 25.191406 L 8.449219 25.191406 Z M 8.449219 22.523438 "/>
<path style=" stroke:none;fill-rule:nonzero;fill:rgb(97.254902%,87.058824%,40.784314%);fill-opacity:1;" d="M 10.371094 22.523438 L 11.894531 22.523438 L 11.894531 25.191406 L 10.371094 25.191406 Z M 10.371094 22.523438 "/>
<path style=" stroke:none;fill-rule:nonzero;fill:rgb(43.921569%,80.000001%,70.19608%);fill-opacity:1;" d="M 7.308594 11.308594 L 27.3125 11.308594 C 27.980469 11.308594 28.519531 11.851562 28.519531 12.519531 L 28.519531 22.074219 C 28.519531 22.742188 27.980469 23.285156 27.3125 23.285156 L 7.308594 23.285156 C 6.644531 23.285156 6.101562 22.742188 6.101562 22.074219 L 6.101562 12.519531 C 6.101562 11.851562 6.644531 11.308594 7.308594 11.308594 Z M 7.308594 11.308594 "/>
<path style=" stroke:none;fill-rule:nonzero;fill:rgb(84.313726%,84.313726%,84.313726%);fill-opacity:1;" d="M 3.0625 7.902344 L 3.0625 8.945312 L 5.972656 8.945312 L 5.972656 23.285156 L 7.054688 23.285156 L 7.054688 7.90625 L 6.585938 7.90625 L 6.585938 7.902344 Z M 3.0625 7.902344 "/>
<path style=" stroke:none;fill-rule:nonzero;fill:rgb(9.803922%,63.137257%,52.941179%);fill-opacity:1;" d="M 18.734375 14.832031 L 18.734375 14.308594 L 17.753906 14.308594 L 17.753906 12.550781 L 8.789062 12.550781 L 8.789062 14.308594 L 7.808594 14.308594 L 7.808594 14.832031 L 8.789062 14.832031 L 8.789062 16.042969 L 7.808594 16.042969 L 7.808594 16.566406 L 8.789062 16.566406 L 8.789062 17.878906 L 7.808594 17.878906 L 7.808594 18.402344 L 8.789062 18.402344 L 8.789062 19.453125 L 7.808594 19.453125 L 7.808594 19.976562 L 8.789062 19.976562 L 8.789062 21.515625 L 17.753906 21.515625 L 17.753906 19.976562 L 18.734375 19.976562 L 18.734375 19.453125 L 17.753906 19.453125 L 17.753906 18.402344 L 18.734375 18.402344 L 18.734375 17.878906 L 17.753906 17.878906 L 17.753906 16.566406 L 18.734375 16.566406 L 18.734375 16.039062 L 17.753906 16.039062 L 17.753906 14.832031 Z M 18.734375 14.832031 "/>
<path style=" stroke:none;fill-rule:nonzero;fill:rgb(9.803922%,63.137257%,52.941179%);fill-opacity:1;" d="M 21.132812 13.949219 L 20.964844 13.953125 C 20.8125 13.957031 20.785156 13.964844 20.707031 14.003906 C 20.597656 14.054688 20.476562 14.175781 20.421875 14.285156 L 20.378906 14.371094 L 20.375 17.160156 C 20.371094 19.167969 20.375 19.972656 20.386719 20.027344 C 20.421875 20.191406 20.582031 20.367188 20.757812 20.429688 C 20.816406 20.449219 20.878906 20.457031 20.988281 20.457031 L 21.140625 20.457031 L 21.160156 20.410156 C 21.199219 20.324219 21.261719 20.277344 21.351562 20.269531 C 21.449219 20.261719 21.519531 20.304688 21.5625 20.394531 L 21.589844 20.457031 L 25.851562 20.457031 L 25.882812 20.398438 C 25.921875 20.316406 25.972656 20.277344 26.0625 20.269531 C 26.183594 20.261719 26.300781 20.34375 26.300781 20.4375 C 26.300781 20.457031 26.316406 20.460938 26.382812 20.457031 C 26.550781 20.441406 26.746094 20.296875 26.832031 20.125 L 26.871094 20.039062 L 26.878906 17.234375 C 26.878906 14.472656 26.878906 14.429688 26.851562 14.34375 C 26.777344 14.128906 26.550781 13.949219 26.351562 13.949219 C 26.3125 13.949219 26.300781 13.957031 26.300781 13.980469 C 26.300781 14.015625 26.238281 14.09375 26.183594 14.121094 C 26.128906 14.148438 26.046875 14.148438 25.996094 14.121094 C 25.941406 14.097656 25.878906 14.027344 25.867188 13.984375 L 25.855469 13.949219 L 21.589844 13.953125 L 21.5625 14.015625 C 21.480469 14.183594 21.25 14.183594 21.167969 14.015625 Z M 21.132812 13.949219 "/>
<path style=" stroke:none;fill-rule:nonzero;fill:rgb(90.196079%,90.196079%,90.196079%);fill-opacity:1;" d="M 22.730469 15.421875 L 24.515625 15.421875 C 24.757812 15.421875 24.953125 15.617188 24.953125 15.859375 L 24.953125 16.011719 C 24.953125 16.253906 24.757812 16.449219 24.515625 16.449219 L 22.730469 16.449219 C 22.488281 16.449219 22.292969 16.253906 22.292969 16.011719 L 22.292969 15.859375 C 22.292969 15.617188 22.488281 15.421875 22.730469 15.421875 Z M 22.730469 15.421875 "/>
<path style=" stroke:none;fill-rule:nonzero;fill:rgb(90.196079%,90.196079%,90.196079%);fill-opacity:1;" d="M 22.964844 14.285156 L 22.964844 15.410156 C 22.964844 15.480469 22.90625 15.535156 22.839844 15.535156 L 22.792969 15.535156 C 22.722656 15.535156 22.667969 15.480469 22.667969 15.410156 L 22.667969 14.285156 C 22.667969 14.214844 22.722656 14.160156 22.792969 14.160156 L 22.839844 14.160156 C 22.90625 14.160156 22.964844 14.214844 22.964844 14.285156 Z M 22.964844 14.285156 "/>
<path style=" stroke:none;fill-rule:nonzero;fill:rgb(90.196079%,90.196079%,90.196079%);fill-opacity:1;" d="M 23.5 14.28125 L 23.5 15.410156 C 23.5 15.480469 23.441406 15.535156 23.375 15.535156 L 23.332031 15.535156 C 23.261719 15.535156 23.207031 15.480469 23.207031 15.410156 L 23.207031 14.28125 C 23.207031 14.214844 23.261719 14.15625 23.332031 14.15625 L 23.375 14.15625 C 23.441406 14.15625 23.5 14.214844 23.5 14.28125 Z M 23.5 14.28125 "/>
<path style=" stroke:none;fill-rule:nonzero;fill:rgb(90.196079%,90.196079%,90.196079%);fill-opacity:1;" d="M 24.03125 14.28125 L 24.03125 15.410156 C 24.03125 15.480469 23.972656 15.535156 23.902344 15.535156 L 23.863281 15.535156 C 23.792969 15.535156 23.738281 15.480469 23.738281 15.410156 L 23.738281 14.28125 C 23.738281 14.214844 23.792969 14.15625 23.863281 14.15625 L 23.902344 14.15625 C 23.972656 14.15625 24.03125 14.214844 24.03125 14.28125 Z M 24.03125 14.28125 "/>
<path style=" stroke:none;fill-rule:nonzero;fill:rgb(90.196079%,90.196079%,90.196079%);fill-opacity:1;" d="M 24.566406 14.277344 L 24.566406 15.410156 C 24.566406 15.480469 24.507812 15.535156 24.441406 15.535156 L 24.394531 15.535156 C 24.328125 15.535156 24.269531 15.480469 24.269531 15.410156 L 24.269531 14.277344 C 24.269531 14.210938 24.328125 14.152344 24.394531 14.152344 L 24.441406 14.152344 C 24.507812 14.152344 24.566406 14.210938 24.566406 14.277344 Z M 24.566406 14.277344 "/>
<path style=" stroke:none;fill-rule:nonzero;fill:rgb(90.196079%,90.196079%,90.196079%);fill-opacity:1;" d="M 25.402344 16.28125 L 25.402344 18.066406 C 25.402344 18.308594 25.207031 18.503906 24.964844 18.503906 L 24.8125 18.503906 C 24.570312 18.503906 24.371094 18.308594 24.371094 18.066406 L 24.371094 16.28125 C 24.371094 16.039062 24.570312 15.839844 24.8125 15.839844 L 24.964844 15.839844 C 25.207031 15.839844 25.402344 16.039062 25.402344 16.28125 Z M 25.402344 16.28125 "/>
<path style=" stroke:none;fill-rule:nonzero;fill:rgb(90.196079%,90.196079%,90.196079%);fill-opacity:1;" d="M 26.539062 16.511719 L 25.410156 16.511719 C 25.34375 16.511719 25.285156 16.457031 25.285156 16.386719 L 25.285156 16.347656 C 25.285156 16.277344 25.34375 16.21875 25.410156 16.21875 L 26.539062 16.21875 C 26.609375 16.21875 26.667969 16.277344 26.667969 16.347656 L 26.667969 16.386719 C 26.667969 16.457031 26.609375 16.511719 26.539062 16.511719 Z M 26.539062 16.511719 "/>
<path style=" stroke:none;fill-rule:nonzero;fill:rgb(90.196079%,90.196079%,90.196079%);fill-opacity:1;" d="M 26.542969 17.050781 L 25.410156 17.050781 C 25.34375 17.050781 25.285156 16.996094 25.285156 16.925781 L 25.285156 16.882812 C 25.285156 16.8125 25.34375 16.757812 25.410156 16.757812 L 26.542969 16.757812 C 26.613281 16.757812 26.667969 16.8125 26.667969 16.882812 L 26.667969 16.925781 C 26.667969 16.996094 26.613281 17.050781 26.542969 17.050781 Z M 26.542969 17.050781 "/>
<path style=" stroke:none;fill-rule:nonzero;fill:rgb(90.196079%,90.196079%,90.196079%);fill-opacity:1;" d="M 26.542969 17.582031 L 25.410156 17.582031 C 25.34375 17.582031 25.285156 17.527344 25.285156 17.457031 L 25.285156 17.410156 C 25.285156 17.34375 25.34375 17.285156 25.410156 17.285156 L 26.542969 17.285156 C 26.613281 17.285156 26.667969 17.34375 26.667969 17.410156 L 26.667969 17.457031 C 26.667969 17.527344 26.613281 17.582031 26.542969 17.582031 Z M 26.542969 17.582031 "/>
<path style=" stroke:none;fill-rule:nonzero;fill:rgb(90.196079%,90.196079%,90.196079%);fill-opacity:1;" d="M 26.542969 18.117188 L 25.414062 18.117188 C 25.347656 18.117188 25.289062 18.058594 25.289062 17.988281 L 25.289062 17.949219 C 25.289062 17.878906 25.347656 17.824219 25.414062 17.824219 L 26.542969 17.824219 C 26.613281 17.824219 26.667969 17.878906 26.667969 17.949219 L 26.667969 17.988281 C 26.667969 18.058594 26.613281 18.117188 26.542969 18.117188 Z M 26.542969 18.117188 "/>
<path style=" stroke:none;fill-rule:nonzero;fill:rgb(90.196079%,90.196079%,90.196079%);fill-opacity:1;" d="M 21.84375 16.292969 L 21.84375 18.078125 C 21.84375 18.320312 22.039062 18.515625 22.285156 18.515625 L 22.433594 18.515625 C 22.675781 18.515625 22.871094 18.320312 22.871094 18.078125 L 22.871094 16.292969 C 22.871094 16.050781 22.675781 15.855469 22.433594 15.855469 L 22.285156 15.855469 C 22.039062 15.855469 21.84375 16.050781 21.84375 16.292969 Z M 21.84375 16.292969 "/>
<path style=" stroke:none;fill-rule:nonzero;fill:rgb(90.196079%,90.196079%,90.196079%);fill-opacity:1;" d="M 20.707031 16.527344 L 21.832031 16.527344 C 21.902344 16.527344 21.960938 16.46875 21.960938 16.402344 L 21.960938 16.355469 C 21.960938 16.285156 21.902344 16.230469 21.832031 16.230469 L 20.707031 16.230469 C 20.636719 16.230469 20.582031 16.285156 20.582031 16.355469 L 20.582031 16.402344 C 20.582031 16.46875 20.636719 16.527344 20.707031 16.527344 Z M 20.707031 16.527344 "/>
<path style=" stroke:none;fill-rule:nonzero;fill:rgb(90.196079%,90.196079%,90.196079%);fill-opacity:1;" d="M 20.703125 17.0625 L 21.832031 17.0625 C 21.902344 17.0625 21.960938 17.003906 21.960938 16.9375 L 21.960938 16.894531 C 21.960938 16.824219 21.902344 16.769531 21.832031 16.769531 L 20.703125 16.769531 C 20.636719 16.769531 20.578125 16.824219 20.578125 16.894531 L 20.578125 16.9375 C 20.578125 17.003906 20.636719 17.0625 20.703125 17.0625 Z M 20.703125 17.0625 "/>
<path style=" stroke:none;fill-rule:nonzero;fill:rgb(90.196079%,90.196079%,90.196079%);fill-opacity:1;" d="M 20.703125 17.59375 L 21.832031 17.59375 C 21.902344 17.59375 21.960938 17.535156 21.960938 17.464844 L 21.960938 17.425781 C 21.960938 17.355469 21.902344 17.300781 21.832031 17.300781 L 20.703125 17.300781 C 20.636719 17.300781 20.578125 17.355469 20.578125 17.425781 L 20.578125 17.464844 C 20.578125 17.535156 20.636719 17.59375 20.703125 17.59375 Z M 20.703125 17.59375 "/>
<path style=" stroke:none;fill-rule:nonzero;fill:rgb(90.196079%,90.196079%,90.196079%);fill-opacity:1;" d="M 20.703125 18.128906 L 21.832031 18.128906 C 21.902344 18.128906 21.957031 18.070312 21.957031 18.003906 L 21.957031 17.957031 C 21.957031 17.890625 21.902344 17.832031 21.832031 17.832031 L 20.703125 17.832031 C 20.632812 17.832031 20.578125 17.890625 20.578125 17.957031 L 20.578125 18.003906 C 20.578125 18.070312 20.632812 18.128906 20.703125 18.128906 Z M 20.703125 18.128906 "/>
<path style=" stroke:none;fill-rule:nonzero;fill:rgb(90.196079%,90.196079%,90.196079%);fill-opacity:1;" d="M 22.738281 18.996094 L 24.523438 18.996094 C 24.769531 18.996094 24.964844 18.800781 24.964844 18.558594 L 24.964844 18.40625 C 24.964844 18.164062 24.769531 17.964844 24.523438 17.964844 L 22.738281 17.964844 C 22.496094 17.964844 22.300781 18.164062 22.300781 18.40625 L 22.300781 18.558594 C 22.300781 18.800781 22.496094 18.996094 22.738281 18.996094 Z M 22.738281 18.996094 "/>
<path style=" stroke:none;fill-rule:nonzero;fill:rgb(90.196079%,90.196079%,90.196079%);fill-opacity:1;" d="M 22.972656 20.132812 L 22.972656 19.003906 C 22.972656 18.933594 22.917969 18.878906 22.847656 18.878906 L 22.804688 18.878906 C 22.734375 18.878906 22.675781 18.933594 22.675781 19.003906 L 22.675781 20.132812 C 22.675781 20.203125 22.734375 20.257812 22.804688 20.257812 L 22.847656 20.257812 C 22.917969 20.257812 22.972656 20.203125 22.972656 20.132812 Z M 22.972656 20.132812 "/>
<path style=" stroke:none;fill-rule:nonzero;fill:rgb(90.196079%,90.196079%,90.196079%);fill-opacity:1;" d="M 23.511719 20.136719 L 23.511719 19.003906 C 23.511719 18.933594 23.453125 18.878906 23.382812 18.878906 L 23.339844 18.878906 C 23.269531 18.878906 23.214844 18.933594 23.214844 19.003906 L 23.214844 20.136719 C 23.214844 20.207031 23.269531 20.261719 23.339844 20.261719 L 23.382812 20.261719 C 23.453125 20.261719 23.511719 20.207031 23.511719 20.136719 Z M 23.511719 20.136719 "/>
<path style=" stroke:none;fill-rule:nonzero;fill:rgb(90.196079%,90.196079%,90.196079%);fill-opacity:1;" d="M 24.039062 20.136719 L 24.039062 19.003906 C 24.039062 18.933594 23.984375 18.878906 23.914062 18.878906 L 23.871094 18.878906 C 23.800781 18.878906 23.746094 18.933594 23.746094 19.003906 L 23.746094 20.136719 C 23.746094 20.207031 23.800781 20.261719 23.871094 20.261719 L 23.914062 20.261719 C 23.984375 20.261719 24.039062 20.207031 24.039062 20.136719 Z M 24.039062 20.136719 "/>
<path style=" stroke:none;fill-rule:nonzero;fill:rgb(90.196079%,90.196079%,90.196079%);fill-opacity:1;" d="M 24.574219 20.136719 L 24.574219 19.007812 C 24.574219 18.9375 24.519531 18.882812 24.449219 18.882812 L 24.40625 18.882812 C 24.335938 18.882812 24.28125 18.9375 24.28125 19.007812 L 24.28125 20.136719 C 24.28125 20.207031 24.335938 20.261719 24.40625 20.261719 L 24.449219 20.261719 C 24.519531 20.261719 24.574219 20.207031 24.574219 20.136719 Z M 24.574219 20.136719 "/>
<path style=" stroke:none;fill-rule:nonzero;fill:rgb(12.941177%,20.784314%,32.941177%);fill-opacity:1;" d="M 22.289062 18.597656 C 22.195312 18.550781 22.199219 18.636719 22.199219 17.191406 L 22.203125 15.871094 L 22.238281 15.832031 C 22.253906 15.816406 22.28125 15.792969 22.292969 15.785156 C 22.328125 15.765625 24.917969 15.765625 24.949219 15.785156 C 24.964844 15.792969 24.992188 15.816406 25.011719 15.832031 L 25.042969 15.871094 L 25.042969 17.1875 C 25.042969 18.625 25.050781 18.550781 24.964844 18.597656 C 24.90625 18.625 22.347656 18.628906 22.289062 18.597656 Z M 24.824219 18.367188 C 24.847656 18.320312 24.824219 18.257812 24.785156 18.242188 C 24.683594 18.207031 24.621094 18.347656 24.714844 18.398438 C 24.761719 18.421875 24.804688 18.410156 24.824219 18.367188 Z M 22.554688 18.386719 C 22.589844 18.355469 22.574219 18.273438 22.535156 18.246094 C 22.460938 18.199219 22.382812 18.28125 22.421875 18.371094 C 22.433594 18.394531 22.449219 18.402344 22.488281 18.402344 C 22.515625 18.402344 22.542969 18.394531 22.554688 18.386719 Z M 22.554688 16.121094 C 22.582031 16.09375 22.574219 16.011719 22.542969 15.996094 C 22.480469 15.957031 22.410156 15.996094 22.410156 16.066406 C 22.410156 16.117188 22.433594 16.140625 22.492188 16.140625 C 22.515625 16.140625 22.542969 16.132812 22.554688 16.121094 Z M 24.8125 16.117188 C 24.84375 16.089844 24.839844 16.039062 24.8125 16.003906 C 24.742188 15.929688 24.625 16.019531 24.679688 16.105469 C 24.707031 16.148438 24.777344 16.152344 24.8125 16.117188 Z M 24.8125 16.117188 "/>
<path style=" stroke:none;fill-rule:evenodd;fill:rgb(97.254902%,87.058824%,40.784314%);fill-opacity:1;" d="M 22.363281 19.878906 L 22.820312 19.878906 L 22.820312 20.460938 L 22.363281 20.460938 Z M 22.363281 19.878906 "/>
<path style=" stroke:none;fill-rule:evenodd;fill:rgb(97.254902%,87.058824%,40.784314%);fill-opacity:1;" d="M 22.5625 19.449219 L 22.621094 19.449219 C 22.730469 19.449219 22.820312 19.539062 22.820312 19.648438 L 22.820312 19.867188 C 22.820312 19.980469 22.730469 20.066406 22.621094 20.066406 L 22.5625 20.066406 C 22.453125 20.066406 22.363281 19.980469 22.363281 19.867188 L 22.363281 19.648438 C 22.363281 19.539062 22.453125 19.449219 22.5625 19.449219 Z M 22.5625 19.449219 "/>
<path style=" stroke:none;fill-rule:evenodd;fill:rgb(97.254902%,87.058824%,40.784314%);fill-opacity:1;" d="M 22.984375 19.878906 L 23.441406 19.878906 L 23.441406 20.457031 L 22.984375 20.457031 Z M 22.984375 19.878906 "/>
<path style=" stroke:none;fill-rule:evenodd;fill:rgb(97.254902%,87.058824%,40.784314%);fill-opacity:1;" d="M 23.183594 19.449219 L 23.238281 19.449219 C 23.351562 19.449219 23.441406 19.539062 23.441406 19.648438 L 23.441406 19.867188 C 23.441406 19.980469 23.351562 20.066406 23.238281 20.066406 L 23.183594 20.066406 C 23.074219 20.066406 22.984375 19.980469 22.984375 19.867188 L 22.984375 19.648438 C 22.984375 19.539062 23.074219 19.449219 23.183594 19.449219 Z M 23.183594 19.449219 "/>
<path style=" stroke:none;fill-rule:evenodd;fill:rgb(97.254902%,87.058824%,40.784314%);fill-opacity:1;" d="M 23.8125 19.878906 L 24.269531 19.878906 L 24.269531 20.460938 L 23.8125 20.460938 Z M 23.8125 19.878906 "/>
<path style=" stroke:none;fill-rule:evenodd;fill:rgb(97.254902%,87.058824%,40.784314%);fill-opacity:1;" d="M 24.011719 19.449219 L 24.066406 19.449219 C 24.179688 19.449219 24.269531 19.539062 24.269531 19.652344 L 24.269531 19.867188 C 24.269531 19.980469 24.179688 20.070312 24.066406 20.070312 L 24.011719 20.070312 C 23.902344 20.070312 23.808594 19.980469 23.808594 19.867188 L 23.808594 19.652344 C 23.808594 19.539062 23.902344 19.449219 24.011719 19.449219 Z M 24.011719 19.449219 "/>
<path style=" stroke:none;fill-rule:evenodd;fill:rgb(97.254902%,87.058824%,40.784314%);fill-opacity:1;" d="M 24.417969 19.878906 L 24.878906 19.878906 L 24.878906 20.460938 L 24.417969 20.460938 Z M 24.417969 19.878906 "/>
<path style=" stroke:none;fill-rule:evenodd;fill:rgb(97.254902%,87.058824%,40.784314%);fill-opacity:1;" d="M 24.621094 19.449219 L 24.675781 19.449219 C 24.785156 19.449219 24.878906 19.539062 24.878906 19.648438 L 24.878906 19.867188 C 24.878906 19.980469 24.785156 20.066406 24.675781 20.066406 L 24.621094 20.066406 C 24.507812 20.066406 24.417969 19.980469 24.417969 19.867188 L 24.417969 19.648438 C 24.417969 19.539062 24.507812 19.449219 24.621094 19.449219 Z M 24.621094 19.449219 "/>
<path style=" stroke:none;fill-rule:nonzero;fill:rgb(90.196079%,90.196079%,90.196079%);fill-opacity:1;" d="M 11.179688 14.90625 L 11.179688 19.652344 L 11.742188 19.652344 L 11.742188 14.90625 Z M 12.035156 14.90625 L 12.035156 19.652344 L 12.597656 19.652344 L 12.597656 14.90625 Z M 12.890625 14.90625 L 12.890625 19.652344 L 13.453125 19.652344 L 13.453125 14.90625 Z M 13.769531 14.90625 L 13.769531 19.652344 L 14.332031 19.652344 L 14.332031 14.90625 Z M 14.644531 14.90625 L 14.644531 19.652344 L 15.207031 19.652344 L 15.207031 14.90625 Z M 14.644531 14.90625 "/>
</g>
</svg>
