
<svg xmlns="http://www.w3.org/2000/svg" xmlns:xlink="http://www.w3.org/1999/xlink" width="32px" height="32px" viewBox="0 0 32 32" version="1.1">
<g id="surface1">
<path style="fill-rule:nonzero;fill:rgb(100%,100%,100%);fill-opacity:1;stroke-width:3.6;stroke-linecap:butt;stroke-linejoin:miter;stroke:rgb(58.823532%,85.09804%,32.549021%);stroke-opacity:1;stroke-miterlimit:4;" d="M 50.859375 112.03125 C 38.46875 108.78125 29.484375 100.828125 25.640625 89.703125 L 24.765625 86.046875 L 24.0625 63.671875 C 23.296875 39.328125 23.734375 39.25 21.328125 37.34375 C 20.34375 36.578125 19.609375 36.421875 16.734375 36.421875 C 14.859375 36.421875 12.3125 36.296875 11.109375 36.15625 L 8.890625 35.890625 L 8.890625 16.078125 L 48.859375 16.265625 C 92.453125 16.46875 91.046875 16.390625 97.5625 18.953125 C 105.765625 22.171875 112.96875 28.890625 116.453125 36.609375 C 119.140625 42.515625 119.078125 41.765625 119.28125 74.703125 C 119.453125 101.953125 119.40625 104.859375 118.78125 106.078125 C 117.609375 108.359375 115.078125 110.828125 112.859375 111.859375 L 110.75 112.84375 L 82.28125 112.828125 C 56.03125 112.796875 53.578125 112.734375 50.859375 112.03125 Z M 92.046875 98.9375 C 101.09375 97.984375 108.09375 90.984375 109.328125 81.640625 C 109.640625 79.34375 109.734375 73.078125 109.609375 63.90625 C 109.359375 46.875 109.296875 46.546875 104.671875 41.875 C 101.25 38.421875 98.59375 37.265625 93.921875 37.265625 C 90.25 37.265625 87.625 38 84.859375 39.78125 L 82.8125 41.09375 L 79.34375 39.296875 C 75.890625 37.5 75.84375 37.484375 71.375 37.484375 C 67.515625 37.484375 66.609375 37.625 64.859375 38.484375 C 61.859375 39.953125 58.84375 43.140625 57.265625 46.453125 L 55.921875 49.3125 L 55.671875 75.265625 L 65.40625 75.265625 L 65.40625 63.34375 C 65.40625 52.1875 65.46875 51.328125 66.25 50.046875 C 68.140625 46.921875 72.546875 45.953125 75.09375 48.09375 C 77.59375 50.203125 77.640625 50.453125 77.640625 63.421875 L 77.640625 75.265625 L 87.265625 75.265625 L 87.40625 63.0625 C 87.546875 51.421875 87.59375 50.796875 88.4375 49.65625 C 91.171875 46 96.203125 45.984375 98.796875 49.609375 C 99.78125 50.984375 99.78125 51.0625 99.921875 66.09375 L 100.046875 81.1875 L 98.890625 83.328125 C 97.578125 85.734375 95.546875 87.515625 92.546875 88.890625 C 90.515625 89.828125 90.34375 89.84375 71.640625 89.765625 C 50.703125 89.671875 51.359375 89.765625 48.296875 86.78125 C 47.453125 85.953125 46.296875 84.296875 45.75 83.125 L 44.75 80.984375 L 44.734375 28.953125 L 41.515625 28.6875 C 39.734375 28.53125 37.640625 28.40625 36.875 28.40625 L 35.453125 28.40625 L 35.484375 50.890625 C 35.5 63.265625 35.65625 76.125 35.828125 79.5 C 36.125 85.328125 36.203125 85.734375 37.53125 88.234375 C 39.125 91.234375 42.796875 95.109375 45.5625 96.734375 C 49.640625 99.109375 51.296875 99.296875 70.671875 99.3125 C 80.421875 99.3125 90.03125 99.15625 92.046875 98.9375 Z M 92.046875 98.9375 " transform="matrix(0.25,0,0,0.25,0,0)"/>
<path style="fill-rule:nonzero;fill:rgb(58.823532%,85.09804%,32.549021%);fill-opacity:1;stroke-width:0.3;stroke-linecap:butt;stroke-linejoin:miter;stroke:rgb(58.823532%,85.09804%,32.549021%);stroke-opacity:1;stroke-miterlimit:4;" d="M 58.453125 99.109375 C 51.515625 98.953125 49.609375 98.65625 46.859375 97.296875 C 44.890625 96.328125 43.65625 95.40625 41.703125 93.4375 C 39.1875 90.921875 37.140625 87.859375 36.546875 85.703125 C 35.859375 83.234375 35.734375 78.359375 35.625 51.78125 L 35.546875 28.421875 L 35.96875 28.421875 C 36.640625 28.421875 43 28.859375 43.84375 28.953125 L 44.609375 29.046875 L 44.609375 80.859375 L 45.28125 82.296875 C 45.640625 83.09375 46.296875 84.265625 46.71875 84.921875 C 47.640625 86.296875 49.546875 88.171875 50.546875 88.671875 C 52.484375 89.671875 56.1875 89.828125 75.546875 89.765625 C 92.09375 89.703125 90.953125 89.765625 93.140625 88.671875 C 96.1875 87.140625 97.890625 85.421875 99.65625 82.09375 L 100.140625 81.171875 L 99.96875 66.9375 C 99.859375 58.765625 99.734375 52.265625 99.640625 51.6875 C 99.453125 50.390625 99.078125 49.703125 98.0625 48.6875 C 95.609375 46.234375 91.921875 46.234375 89.296875 48.65625 C 88.28125 49.59375 87.9375 50.1875 87.71875 51.421875 C 87.53125 52.421875 87.28125 62.53125 87.28125 69.03125 C 87.265625 71.453125 87.234375 73.828125 87.171875 74.328125 L 87.078125 75.21875 L 77.6875 75.21875 L 77.609375 63.890625 C 77.546875 52.109375 77.515625 51.546875 76.921875 50.125 C 76.546875 49.265625 75.109375 47.875 74.078125 47.375 C 73.125 46.921875 71.203125 46.796875 70.0625 47.140625 C 68.375 47.640625 66.578125 49.046875 66.015625 50.34375 C 65.484375 51.546875 65.421875 52.75 65.328125 64.109375 L 65.25 75.21875 L 55.671875 75.21875 L 55.734375 74.296875 C 55.78125 73.796875 55.859375 67.984375 55.890625 61.359375 L 55.984375 49.34375 L 57.046875 47.15625 C 58.640625 43.890625 60.578125 41.46875 62.953125 39.765625 C 64 39.03125 65.609375 38.171875 66.515625 37.890625 C 67.296875 37.65625 74.234375 37.53125 75.40625 37.734375 C 76.015625 37.84375 77.21875 38.359375 79.5 39.5 C 81.28125 40.390625 82.78125 41.109375 82.84375 41.109375 C 82.90625 41.109375 83.578125 40.703125 84.328125 40.21875 C 87.09375 38.421875 89.046875 37.734375 92.203125 37.4375 C 95.328125 37.140625 98.140625 37.578125 100.375 38.703125 C 102.234375 39.640625 104.671875 41.734375 106.484375 43.953125 C 109.21875 47.265625 109.453125 49.1875 109.46875 68.078125 C 109.484375 76.78125 109.421875 80.171875 109.296875 81.25 C 108.09375 90.609375 101.515625 97.546875 92.671875 98.765625 C 89.828125 99.15625 69.546875 99.359375 58.453125 99.109375 Z M 58.453125 99.109375 " transform="matrix(0.25,0,0,0.25,0,0)"/>
</g>
</svg>
