
<svg xmlns="http://www.w3.org/2000/svg" xmlns:xlink="http://www.w3.org/1999/xlink" width="32px" height="32px" viewBox="0 0 32 32" version="1.1">
<defs>
<clipPath id="clip1">
  <path d="M 1.9375 8.9375 L 30.0625 8.9375 L 30.0625 23.0625 L 1.9375 23.0625 Z M 1.9375 8.9375 "/>
</clipPath>
<clipPath id="clip2">
  <path d="M 5.382812 1.953125 L 26.617188 1.953125 C 28.511719 1.953125 30.046875 3.488281 30.046875 5.382812 L 30.046875 26.617188 C 30.046875 28.511719 28.511719 30.046875 26.617188 30.046875 L 5.382812 30.046875 C 3.488281 30.046875 1.953125 28.511719 1.953125 26.617188 L 1.953125 5.382812 C 1.953125 3.488281 3.488281 1.953125 5.382812 1.953125 Z M 5.382812 1.953125 "/>
</clipPath>
<clipPath id="clip3">
  <path d="M 2.0625 8.9375 L 30.0625 8.9375 L 30.0625 30.0625 L 2.0625 30.0625 Z M 2.0625 8.9375 "/>
</clipPath>
<clipPath id="clip4">
  <path d="M 5.382812 1.953125 L 26.617188 1.953125 C 28.511719 1.953125 30.046875 3.488281 30.046875 5.382812 L 30.046875 26.617188 C 30.046875 28.511719 28.511719 30.046875 26.617188 30.046875 L 5.382812 30.046875 C 3.488281 30.046875 1.953125 28.511719 1.953125 26.617188 L 1.953125 5.382812 C 1.953125 3.488281 3.488281 1.953125 5.382812 1.953125 Z M 5.382812 1.953125 "/>
</clipPath>
<clipPath id="clip5">
  <path d="M 1.9375 2.9375 L 30.0625 2.9375 L 30.0625 30.0625 L 1.9375 30.0625 Z M 1.9375 2.9375 "/>
</clipPath>
<clipPath id="clip6">
  <path d="M 5.382812 1.953125 L 26.617188 1.953125 C 28.511719 1.953125 30.046875 3.488281 30.046875 5.382812 L 30.046875 26.617188 C 30.046875 28.511719 28.511719 30.046875 26.617188 30.046875 L 5.382812 30.046875 C 3.488281 30.046875 1.953125 28.511719 1.953125 26.617188 L 1.953125 5.382812 C 1.953125 3.488281 3.488281 1.953125 5.382812 1.953125 Z M 5.382812 1.953125 "/>
</clipPath>
<clipPath id="clip7">
  <path d="M 1.9375 8.9375 L 23.1875 8.9375 L 23.1875 23.0625 L 1.9375 23.0625 Z M 1.9375 8.9375 "/>
</clipPath>
<clipPath id="clip8">
  <path d="M 5.382812 1.953125 L 26.617188 1.953125 C 28.511719 1.953125 30.046875 3.488281 30.046875 5.382812 L 30.046875 26.617188 C 30.046875 28.511719 28.511719 30.046875 26.617188 30.046875 L 5.382812 30.046875 C 3.488281 30.046875 1.953125 28.511719 1.953125 26.617188 L 1.953125 5.382812 C 1.953125 3.488281 3.488281 1.953125 5.382812 1.953125 Z M 5.382812 1.953125 "/>
</clipPath>
<clipPath id="clip9">
  <path d="M 9.0625 16 L 30.0625 16 L 30.0625 30.0625 L 9.0625 30.0625 Z M 9.0625 16 "/>
</clipPath>
<clipPath id="clip10">
  <path d="M 5.382812 1.953125 L 26.617188 1.953125 C 28.511719 1.953125 30.046875 3.488281 30.046875 5.382812 L 30.046875 26.617188 C 30.046875 28.511719 28.511719 30.046875 26.617188 30.046875 L 5.382812 30.046875 C 3.488281 30.046875 1.953125 28.511719 1.953125 26.617188 L 1.953125 5.382812 C 1.953125 3.488281 3.488281 1.953125 5.382812 1.953125 Z M 5.382812 1.953125 "/>
</clipPath>
<clipPath id="clip11">
  <path d="M 16.0625 1.9375 L 23.1875 1.9375 L 23.1875 9 L 16.0625 9 Z M 16.0625 1.9375 "/>
</clipPath>
<clipPath id="clip12">
  <path d="M 5.382812 1.953125 L 26.617188 1.953125 C 28.511719 1.953125 30.046875 3.488281 30.046875 5.382812 L 30.046875 26.617188 C 30.046875 28.511719 28.511719 30.046875 26.617188 30.046875 L 5.382812 30.046875 C 3.488281 30.046875 1.953125 28.511719 1.953125 26.617188 L 1.953125 5.382812 C 1.953125 3.488281 3.488281 1.953125 5.382812 1.953125 Z M 5.382812 1.953125 "/>
</clipPath>
<clipPath id="clip13">
  <path d="M 9.0625 1.9375 L 16.125 1.9375 L 16.125 9 L 9.0625 9 Z M 9.0625 1.9375 "/>
</clipPath>
<clipPath id="clip14">
  <path d="M 5.382812 1.953125 L 26.617188 1.953125 C 28.511719 1.953125 30.046875 3.488281 30.046875 5.382812 L 30.046875 26.617188 C 30.046875 28.511719 28.511719 30.046875 26.617188 30.046875 L 5.382812 30.046875 C 3.488281 30.046875 1.953125 28.511719 1.953125 26.617188 L 1.953125 5.382812 C 1.953125 3.488281 3.488281 1.953125 5.382812 1.953125 Z M 5.382812 1.953125 "/>
</clipPath>
<clipPath id="clip15">
  <path d="M 23.125 1.9375 L 29.1875 1.9375 L 29.1875 2 L 23.125 2 Z M 23.125 1.9375 "/>
</clipPath>
<clipPath id="clip16">
  <path d="M 5.382812 1.953125 L 26.617188 1.953125 C 28.511719 1.953125 30.046875 3.488281 30.046875 5.382812 L 30.046875 26.617188 C 30.046875 28.511719 28.511719 30.046875 26.617188 30.046875 L 5.382812 30.046875 C 3.488281 30.046875 1.953125 28.511719 1.953125 26.617188 L 1.953125 5.382812 C 1.953125 3.488281 3.488281 1.953125 5.382812 1.953125 Z M 5.382812 1.953125 "/>
</clipPath>
<clipPath id="clip17">
  <path d="M 23.125 1.9375 L 30.0625 1.9375 L 30.0625 9 L 23.125 9 Z M 23.125 1.9375 "/>
</clipPath>
<clipPath id="clip18">
  <path d="M 5.382812 1.953125 L 26.617188 1.953125 C 28.511719 1.953125 30.046875 3.488281 30.046875 5.382812 L 30.046875 26.617188 C 30.046875 28.511719 28.511719 30.046875 26.617188 30.046875 L 5.382812 30.046875 C 3.488281 30.046875 1.953125 28.511719 1.953125 26.617188 L 1.953125 5.382812 C 1.953125 3.488281 3.488281 1.953125 5.382812 1.953125 Z M 5.382812 1.953125 "/>
</clipPath>
<clipPath id="clip19">
  <path d="M 16.0625 1.9375 L 23.1875 1.9375 L 23.1875 2 L 16.0625 2 Z M 16.0625 1.9375 "/>
</clipPath>
<clipPath id="clip20">
  <path d="M 5.382812 1.953125 L 26.617188 1.953125 C 28.511719 1.953125 30.046875 3.488281 30.046875 5.382812 L 30.046875 26.617188 C 30.046875 28.511719 28.511719 30.046875 26.617188 30.046875 L 5.382812 30.046875 C 3.488281 30.046875 1.953125 28.511719 1.953125 26.617188 L 1.953125 5.382812 C 1.953125 3.488281 3.488281 1.953125 5.382812 1.953125 Z M 5.382812 1.953125 "/>
</clipPath>
<clipPath id="clip21">
  <path d="M 9.0625 1.9375 L 16.125 1.9375 L 16.125 2 L 9.0625 2 Z M 9.0625 1.9375 "/>
</clipPath>
<clipPath id="clip22">
  <path d="M 5.382812 1.953125 L 26.617188 1.953125 C 28.511719 1.953125 30.046875 3.488281 30.046875 5.382812 L 30.046875 26.617188 C 30.046875 28.511719 28.511719 30.046875 26.617188 30.046875 L 5.382812 30.046875 C 3.488281 30.046875 1.953125 28.511719 1.953125 26.617188 L 1.953125 5.382812 C 1.953125 3.488281 3.488281 1.953125 5.382812 1.953125 Z M 5.382812 1.953125 "/>
</clipPath>
<clipPath id="clip23">
  <path d="M 2.8125 1.9375 L 9.125 1.9375 L 9.125 2 L 2.8125 2 Z M 2.8125 1.9375 "/>
</clipPath>
<clipPath id="clip24">
  <path d="M 5.382812 1.953125 L 26.617188 1.953125 C 28.511719 1.953125 30.046875 3.488281 30.046875 5.382812 L 30.046875 26.617188 C 30.046875 28.511719 28.511719 30.046875 26.617188 30.046875 L 5.382812 30.046875 C 3.488281 30.046875 1.953125 28.511719 1.953125 26.617188 L 1.953125 5.382812 C 1.953125 3.488281 3.488281 1.953125 5.382812 1.953125 Z M 5.382812 1.953125 "/>
</clipPath>
<clipPath id="clip25">
  <path d="M 2.0625 1.9375 L 9.125 1.9375 L 9.125 9 L 2.0625 9 Z M 2.0625 1.9375 "/>
</clipPath>
<clipPath id="clip26">
  <path d="M 5.382812 1.953125 L 26.617188 1.953125 C 28.511719 1.953125 30.046875 3.488281 30.046875 5.382812 L 30.046875 26.617188 C 30.046875 28.511719 28.511719 30.046875 26.617188 30.046875 L 5.382812 30.046875 C 3.488281 30.046875 1.953125 28.511719 1.953125 26.617188 L 1.953125 5.382812 C 1.953125 3.488281 3.488281 1.953125 5.382812 1.953125 Z M 5.382812 1.953125 "/>
</clipPath>
<clipPath id="clip27">
  <path d="M 1.9375 2.6875 L 2.125 2.6875 L 2.125 9 L 1.9375 9 Z M 1.9375 2.6875 "/>
</clipPath>
<clipPath id="clip28">
  <path d="M 5.382812 1.953125 L 26.617188 1.953125 C 28.511719 1.953125 30.046875 3.488281 30.046875 5.382812 L 30.046875 26.617188 C 30.046875 28.511719 28.511719 30.046875 26.617188 30.046875 L 5.382812 30.046875 C 3.488281 30.046875 1.953125 28.511719 1.953125 26.617188 L 1.953125 5.382812 C 1.953125 3.488281 3.488281 1.953125 5.382812 1.953125 Z M 5.382812 1.953125 "/>
</clipPath>
</defs>
<g id="surface1">
<path style="fill-rule:nonzero;fill:rgb(52.941179%,80.392158%,87.058824%);fill-opacity:1;stroke-width:56.900398;stroke-linecap:butt;stroke-linejoin:miter;stroke:rgb(83.137256%,36.862746%,30.980393%);stroke-opacity:1;stroke-miterlimit:4;" d="M 159.75 46 L 864.25 46 C 927.125 46 978 96.875 978 159.75 L 978 864.25 C 978 927.125 927.125 978 864.25 978 L 159.75 978 C 96.875 978 46 927.125 46 864.25 L 46 159.75 C 46 96.875 96.875 46 159.75 46 Z M 159.75 46 " transform="matrix(0.03125,0,0,0.03125,0,0)"/>
<g clip-path="url(#clip1)" clip-rule="nonzero">
<g clip-path="url(#clip2)" clip-rule="nonzero">
<path style=" stroke:none;fill-rule:nonzero;fill:rgb(71.372551%,19.215687%,17.254902%);fill-opacity:1;" d="M 30.152344 8.980469 L 23.132812 8.980469 L 23.132812 16 L 30.152344 16 Z M 16.109375 16 L 9.089844 16 L 9.089844 23.019531 L 16.109375 23.019531 Z M 9.089844 8.980469 L 2.066406 8.980469 L 2.066406 16 L 9.089844 16 Z M -3.253906 16 L -3.253906 16.003906 C -3.253906 17.378906 -3.09375 18.734375 -2.78125 20.089844 C -2.707031 20.394531 -2.632812 20.699219 -2.550781 20.988281 C -2.363281 21.667969 -2.132812 22.34375 -1.867188 23.019531 L 2.066406 23.019531 L 2.066406 16 Z M -3.253906 16 "/>
</g>
</g>
<g clip-path="url(#clip3)" clip-rule="nonzero">
<g clip-path="url(#clip4)" clip-rule="nonzero">
<path style=" stroke:none;fill-rule:nonzero;fill:rgb(50.980395%,17.647059%,21.568628%);fill-opacity:1;" d="M 23.132812 23.019531 L 23.132812 16 L 16.109375 16 L 16.109375 23.019531 Z M 16.109375 8.980469 L 9.089844 8.980469 L 9.089844 16 L 16.109375 16 Z M 34.554688 11.011719 C 34.363281 10.335938 34.136719 9.65625 33.871094 8.980469 L 30.152344 8.980469 L 30.152344 16 L 35.261719 16 C 35.261719 15.625 35.246094 15.246094 35.222656 14.871094 C 35.207031 14.613281 35.183594 14.347656 35.152344 14.074219 C 35.144531 14 35.136719 13.917969 35.125 13.835938 C 35.042969 13.167969 34.925781 12.5 34.761719 11.816406 C 34.699219 11.550781 34.628906 11.285156 34.554688 11.011719 Z M 30.152344 23.019531 L 23.132812 23.019531 L 23.132812 30.042969 L 29.183594 30.042969 C 29.351562 29.886719 29.519531 29.726562 29.675781 29.5625 C 29.839844 29.398438 29.996094 29.230469 30.152344 29.0625 Z M 9.089844 23.019531 L 2.066406 23.019531 L 2.066406 29.292969 C 2.3125 29.550781 2.566406 29.800781 2.824219 30.042969 L 9.089844 30.042969 Z M 9.089844 23.019531 "/>
</g>
</g>
<g clip-path="url(#clip5)" clip-rule="nonzero">
<g clip-path="url(#clip6)" clip-rule="nonzero">
<path style=" stroke:none;fill-rule:nonzero;fill:rgb(62.352943%,19.215687%,20.784314%);fill-opacity:1;" d="M 23.132812 16 L 23.132812 23.019531 L 30.152344 23.019531 L 30.152344 16 Z M 16.109375 23.019531 L 9.089844 23.019531 L 9.089844 30.042969 L 16.109375 30.042969 Z M 33.871094 8.980469 C 33.867188 8.96875 33.863281 8.960938 33.859375 8.949219 C 33.449219 7.917969 32.980469 6.945312 32.433594 6.027344 C 32.015625 5.316406 31.550781 4.636719 31.046875 3.996094 C 30.761719 3.632812 30.464844 3.28125 30.152344 2.945312 L 30.152344 2.941406 L 30.152344 8.980469 Z M 33.300781 24.328125 C 33.40625 24.105469 33.511719 23.875 33.613281 23.644531 C 33.621094 23.617188 33.636719 23.589844 33.644531 23.566406 C 33.652344 23.554688 33.65625 23.542969 33.660156 23.53125 C 33.734375 23.363281 33.804688 23.191406 33.871094 23.019531 L 30.152344 23.019531 L 30.152344 29.0625 C 30.160156 29.054688 30.167969 29.042969 30.175781 29.035156 C 30.472656 28.707031 30.765625 28.363281 31.046875 28.003906 C 31.085938 27.957031 31.125 27.902344 31.160156 27.855469 C 31.613281 27.261719 32.035156 26.640625 32.425781 25.980469 C 32.738281 25.449219 33.027344 24.898438 33.300781 24.328125 Z M 23.050781 33.859375 C 23.078125 33.847656 23.105469 33.839844 23.132812 33.828125 L 23.132812 30.042969 L 16.109375 30.042969 L 16.109375 35.261719 C 17.183594 35.253906 18.253906 35.148438 19.328125 34.949219 C 19.910156 34.835938 20.496094 34.699219 21.070312 34.535156 C 21.734375 34.34375 22.394531 34.121094 23.050781 33.859375 Z M -1.867188 23.019531 C -1.863281 23.03125 -1.859375 23.042969 -1.855469 23.050781 C -1.441406 24.097656 -0.960938 25.078125 -0.429688 25.980469 C 0.0429688 26.78125 0.558594 27.523438 1.117188 28.210938 C 1.417969 28.585938 1.734375 28.945312 2.066406 29.292969 L 2.066406 23.019531 Z M 8.363281 33.613281 C 8.605469 33.714844 8.847656 33.816406 9.089844 33.914062 L 9.089844 30.042969 L 2.824219 30.042969 C 2.871094 30.085938 2.917969 30.128906 2.964844 30.175781 C 3.269531 30.449219 3.585938 30.71875 3.902344 30.964844 C 4.597656 31.523438 5.332031 32.019531 6.105469 32.472656 C 6.507812 32.707031 6.914062 32.925781 7.332031 33.136719 C 7.335938 33.136719 7.339844 33.136719 7.347656 33.140625 C 7.472656 33.203125 7.59375 33.261719 7.699219 33.308594 C 7.894531 33.40625 8.074219 33.488281 8.25 33.566406 C 8.285156 33.582031 8.324219 33.597656 8.363281 33.613281 Z M 8.363281 33.613281 "/>
</g>
</g>
<g clip-path="url(#clip7)" clip-rule="nonzero">
<g clip-path="url(#clip8)" clip-rule="nonzero">
<path style=" stroke:none;fill-rule:nonzero;fill:rgb(83.137256%,36.862746%,30.980393%);fill-opacity:1;" d="M 23.132812 16 L 23.132812 8.980469 L 16.109375 8.980469 L 16.109375 16 Z M 2.066406 16 L 2.066406 23.019531 L 9.089844 23.019531 L 9.089844 16 Z M -1.863281 8.980469 C -2.136719 9.65625 -2.367188 10.332031 -2.558594 11.011719 C -2.847656 12.035156 -3.039062 13.042969 -3.148438 14.039062 C -3.167969 14.222656 -3.183594 14.390625 -3.199219 14.558594 C -3.234375 15.039062 -3.253906 15.519531 -3.253906 16 L 2.066406 16 L 2.066406 8.980469 L -1.867188 8.980469 Z M -1.863281 8.980469 "/>
</g>
</g>
<g clip-path="url(#clip9)" clip-rule="nonzero">
<g clip-path="url(#clip10)" clip-rule="nonzero">
<path style=" stroke:none;fill-rule:nonzero;fill:rgb(42.352942%,16.862746%,36.862746%);fill-opacity:1;" d="M 23.132812 30.042969 L 23.132812 23.019531 L 16.109375 23.019531 L 16.109375 30.042969 Z M 33.871094 23.019531 C 33.914062 22.917969 33.953125 22.816406 33.992188 22.714844 C 34.207031 22.148438 34.398438 21.574219 34.566406 20.988281 C 34.753906 20.316406 34.910156 19.625 35.019531 18.933594 C 35.050781 18.753906 35.078125 18.558594 35.105469 18.367188 C 35.144531 18.066406 35.179688 17.761719 35.203125 17.449219 C 35.207031 17.386719 35.214844 17.320312 35.21875 17.246094 C 35.246094 16.882812 35.257812 16.515625 35.261719 16.144531 C 35.261719 16.097656 35.261719 16.050781 35.261719 16.003906 L 35.261719 16 L 30.152344 16 L 30.152344 23.019531 Z M 25.851562 32.511719 C 25.917969 32.46875 25.988281 32.429688 26.058594 32.386719 C 26.785156 31.953125 27.472656 31.480469 28.113281 30.964844 C 28.484375 30.671875 28.839844 30.363281 29.183594 30.042969 L 23.132812 30.042969 L 23.132812 33.828125 C 24.089844 33.445312 24.996094 33.003906 25.851562 32.511719 Z M 16.082031 35.261719 C 16.089844 35.261719 16.097656 35.261719 16.109375 35.261719 L 16.109375 30.042969 L 9.089844 30.042969 L 9.089844 33.914062 C 9.222656 33.964844 9.359375 34.019531 9.496094 34.066406 C 9.589844 34.101562 9.679688 34.136719 9.765625 34.167969 C 10.214844 34.324219 10.667969 34.464844 11.09375 34.585938 C 11.441406 34.679688 11.761719 34.757812 12.078125 34.828125 C 12.402344 34.898438 12.722656 34.960938 13.035156 35.011719 C 13.074219 35.019531 13.113281 35.027344 13.144531 35.03125 C 13.621094 35.105469 14.089844 35.164062 14.558594 35.203125 C 15.066406 35.246094 15.578125 35.261719 16.082031 35.261719 Z M 16.082031 35.261719 "/>
</g>
</g>
<g clip-path="url(#clip11)" clip-rule="nonzero">
<g clip-path="url(#clip12)" clip-rule="nonzero">
<path style=" stroke:none;fill-rule:nonzero;fill:rgb(75.686276%,23.137255%,21.568628%);fill-opacity:1;" d="M 23.132812 8.980469 L 23.132812 1.957031 L 16.109375 1.957031 L 16.109375 8.980469 Z M 23.132812 8.980469 "/>
</g>
</g>
<g clip-path="url(#clip13)" clip-rule="nonzero">
<g clip-path="url(#clip14)" clip-rule="nonzero">
<path style=" stroke:none;fill-rule:nonzero;fill:rgb(91.37255%,57.647061%,38.039216%);fill-opacity:1;" d="M 9.089844 8.980469 L 16.109375 8.980469 L 16.109375 1.957031 L 9.089844 1.957031 Z M 9.089844 8.980469 "/>
</g>
</g>
<g clip-path="url(#clip15)" clip-rule="nonzero">
<g clip-path="url(#clip16)" clip-rule="nonzero">
<path style=" stroke:none;fill-rule:nonzero;fill:rgb(79.215688%,39.607844%,35.686275%);fill-opacity:1;" d="M 29.175781 1.957031 C 29.128906 1.914062 29.082031 1.871094 29.035156 1.832031 C 28.738281 1.5625 28.433594 1.300781 28.105469 1.035156 C 27.613281 0.652344 27.085938 0.273438 26.53125 -0.0820312 C 26.378906 -0.179688 26.222656 -0.277344 26.058594 -0.371094 C 25.644531 -0.621094 25.207031 -0.863281 24.753906 -1.089844 C 24.398438 -1.269531 24.027344 -1.445312 23.644531 -1.609375 C 23.472656 -1.683594 23.300781 -1.753906 23.132812 -1.824219 L 23.132812 1.957031 L 29.171875 1.957031 "/>
</g>
</g>
<g clip-path="url(#clip17)" clip-rule="nonzero">
<g clip-path="url(#clip18)" clip-rule="nonzero">
<path style=" stroke:none;fill-rule:nonzero;fill:rgb(81.176472%,27.058825%,26.666668%);fill-opacity:1;" d="M 30.152344 2.945312 C 29.839844 2.601562 29.511719 2.269531 29.175781 1.957031 L 23.132812 1.957031 L 23.132812 8.980469 L 30.152344 8.980469 L 30.152344 2.941406 "/>
</g>
</g>
<g clip-path="url(#clip19)" clip-rule="nonzero">
<g clip-path="url(#clip20)" clip-rule="nonzero">
<path style=" stroke:none;fill-rule:nonzero;fill:rgb(89.411765%,41.960785%,38.431373%);fill-opacity:1;" d="M 23.132812 -1.824219 C 22.949219 -1.894531 22.769531 -1.964844 22.589844 -2.03125 C 22.085938 -2.222656 21.582031 -2.386719 21.070312 -2.535156 C 19.863281 -2.878906 18.660156 -3.101562 17.449219 -3.199219 C 17.003906 -3.230469 16.554688 -3.253906 16.109375 -3.253906 L 16.109375 1.957031 L 23.132812 1.957031 Z M 23.132812 -1.824219 "/>
</g>
</g>
<g clip-path="url(#clip21)" clip-rule="nonzero">
<g clip-path="url(#clip22)" clip-rule="nonzero">
<path style=" stroke:none;fill-rule:nonzero;fill:rgb(87.450981%,52.941179%,45.490196%);fill-opacity:1;" d="M 16.109375 -3.253906 C 16.097656 -3.253906 16.089844 -3.253906 16.082031 -3.253906 C 14.425781 -3.261719 12.769531 -3.035156 11.09375 -2.574219 C 10.425781 -2.386719 9.757812 -2.167969 9.089844 -1.910156 L 9.089844 1.957031 L 16.109375 1.957031 Z M 16.109375 -3.253906 "/>
</g>
</g>
<g clip-path="url(#clip23)" clip-rule="nonzero">
<g clip-path="url(#clip24)" clip-rule="nonzero">
<path style=" stroke:none;fill-rule:nonzero;fill:rgb(92.941177%,63.921571%,44.705883%);fill-opacity:1;" d="M 9.089844 -1.910156 C 9.042969 -1.890625 8.996094 -1.871094 8.949219 -1.855469 C 7.996094 -1.476562 7.09375 -1.042969 6.242188 -0.558594 C 6.195312 -0.53125 6.148438 -0.503906 6.105469 -0.476562 C 5.324219 -0.0195312 4.582031 0.488281 3.894531 1.035156 C 3.523438 1.332031 3.167969 1.636719 2.828125 1.957031 L 9.089844 1.957031 Z M 9.089844 -1.910156 "/>
</g>
</g>
<g clip-path="url(#clip25)" clip-rule="nonzero">
<g clip-path="url(#clip26)" clip-rule="nonzero">
<path style=" stroke:none;fill-rule:nonzero;fill:rgb(82.745099%,33.333334%,30.588236%);fill-opacity:1;" d="M 9.089844 8.980469 L 9.089844 1.957031 L 2.828125 1.957031 C 2.566406 2.203125 2.3125 2.453125 2.066406 2.714844 L 2.066406 8.980469 Z M 9.089844 8.980469 "/>
</g>
</g>
<g clip-path="url(#clip27)" clip-rule="nonzero">
<g clip-path="url(#clip28)" clip-rule="nonzero">
<path style=" stroke:none;fill-rule:nonzero;fill:rgb(85.882354%,52.549022%,39.215687%);fill-opacity:1;" d="M 2.066406 2.714844 C 1.988281 2.796875 1.90625 2.882812 1.832031 2.96875 C 1.582031 3.238281 1.347656 3.519531 1.117188 3.800781 C 0.554688 4.5 0.0429688 5.242188 -0.421875 6.027344 C -0.859375 6.769531 -1.253906 7.542969 -1.609375 8.359375 C -1.699219 8.566406 -1.785156 8.773438 -1.863281 8.980469 L -1.867188 8.980469 L 2.066406 8.980469 Z M 2.066406 2.714844 "/>
</g>
</g>
<path style=" stroke:none;fill-rule:nonzero;fill:rgb(100%,100%,100%);fill-opacity:1;" d="M 20.445312 13.0625 C 20.621094 13.210938 20.710938 13.441406 20.710938 13.753906 L 20.710938 21.988281 L 25.554688 21.988281 L 25.554688 12.804688 C 25.554688 11.832031 25.265625 11.105469 24.6875 10.628906 C 24.425781 10.410156 24.105469 10.242188 23.722656 10.125 C 23.628906 10.089844 23.558594 10.066406 23.507812 10.054688 C 23.421875 10.027344 23.34375 10.011719 23.269531 10.011719 L 6.445312 10.011719 L 6.445312 21.988281 L 11.164062 21.988281 L 11.164062 14.234375 C 11.164062 13.707031 11.261719 13.339844 11.457031 13.132812 C 11.65625 12.925781 11.980469 12.824219 12.429688 12.824219 C 12.792969 12.824219 13.066406 12.90625 13.253906 13.0625 C 13.429688 13.210938 13.519531 13.441406 13.519531 13.753906 L 13.519531 21.988281 L 18.359375 21.988281 L 18.359375 14.234375 C 18.359375 13.707031 18.457031 13.339844 18.652344 13.132812 C 18.847656 12.925781 19.171875 12.824219 19.625 12.824219 C 19.996094 12.824219 20.269531 12.90625 20.445312 13.0625 Z M 20.445312 13.0625 "/>
</g>
</svg>
