
<svg xmlns="http://www.w3.org/2000/svg" xmlns:xlink="http://www.w3.org/1999/xlink" width="32px" height="32px" viewBox="0 0 32 32" version="1.1">
<g id="surface1">
<path style="fill-rule:nonzero;fill:rgb(17.254902%,24.313726%,31.37255%);fill-opacity:1;stroke-width:2.632158;stroke-linecap:butt;stroke-linejoin:miter;stroke:rgb(10.196079%,73.725492%,61.176473%);stroke-opacity:1;stroke-miterlimit:4;" d="M 7.705078 2.443359 L 40.294922 2.443359 C 43.201172 2.443359 45.556641 4.798828 45.556641 7.705078 L 45.556641 40.294922 C 45.556641 43.201172 43.201172 45.556641 40.294922 45.556641 L 7.705078 45.556641 C 4.798828 45.556641 2.443359 43.201172 2.443359 40.294922 L 2.443359 7.705078 C 2.443359 4.798828 4.798828 2.443359 7.705078 2.443359 Z M 7.705078 2.443359 " transform="matrix(0.666667,0,0,0.666667,0,0)"/>
<path style=" stroke:none;fill-rule:nonzero;fill:rgb(10.196079%,73.725492%,61.176473%);fill-opacity:1;" d="M 25.058594 15.15625 C 25.269531 14.941406 26.992188 10.863281 27.011719 10.523438 C 27.027344 10.121094 25.457031 9.027344 23.535156 8.101562 C 19.179688 6.007812 13.332031 5.988281 8.828125 8.050781 C 7.527344 8.648438 5.238281 10.046875 5.042969 10.367188 C 4.984375 10.460938 5.386719 11.601562 5.933594 12.902344 C 6.480469 14.207031 6.949219 15.289062 6.972656 15.3125 C 6.996094 15.335938 8.277344 14.925781 9.824219 14.40625 L 12.636719 13.457031 L 12.65625 11.671875 L 12.671875 9.886719 L 13.628906 9.707031 C 14.707031 9.507812 17.683594 9.515625 18.683594 9.722656 L 19.347656 9.859375 L 19.347656 11.640625 L 19.34375 13.425781 L 22.144531 14.34375 C 23.6875 14.847656 24.996094 15.214844 25.058594 15.15625 Z M 25.058594 15.15625 "/>
<path style=" stroke:none;fill-rule:evenodd;fill:rgb(10.196079%,73.725492%,61.176473%);fill-opacity:1;" d="M 10.847656 15.792969 L 12.667969 15.792969 C 13.148438 15.792969 13.535156 16.273438 13.535156 16.863281 L 13.535156 17.425781 C 13.535156 18.019531 13.148438 18.496094 12.667969 18.496094 L 10.847656 18.496094 C 10.371094 18.496094 9.980469 18.019531 9.980469 17.425781 L 9.980469 16.863281 C 9.980469 16.273438 10.371094 15.792969 10.847656 15.792969 Z M 10.847656 15.792969 "/>
<path style=" stroke:none;fill-rule:evenodd;fill:rgb(10.196079%,73.725492%,61.176473%);fill-opacity:1;" d="M 14.96875 15.777344 L 16.792969 15.777344 C 17.269531 15.777344 17.65625 16.253906 17.65625 16.84375 L 17.65625 17.40625 C 17.65625 17.996094 17.269531 18.476562 16.792969 18.476562 L 14.96875 18.476562 C 14.488281 18.476562 14.101562 17.996094 14.101562 17.40625 L 14.101562 16.84375 C 14.101562 16.253906 14.488281 15.777344 14.96875 15.777344 Z M 14.96875 15.777344 "/>
<path style=" stroke:none;fill-rule:evenodd;fill:rgb(10.196079%,73.725492%,61.176473%);fill-opacity:1;" d="M 19.0625 15.730469 L 20.882812 15.730469 C 21.363281 15.730469 21.75 16.207031 21.75 16.800781 L 21.75 17.363281 C 21.75 17.953125 21.363281 18.429688 20.882812 18.429688 L 19.0625 18.429688 C 18.582031 18.429688 18.195312 17.953125 18.195312 17.363281 L 18.195312 16.800781 C 18.195312 16.207031 18.582031 15.730469 19.0625 15.730469 Z M 19.0625 15.730469 "/>
<path style=" stroke:none;fill-rule:evenodd;fill:rgb(10.196079%,73.725492%,61.176473%);fill-opacity:1;" d="M 10.871094 19.230469 L 12.691406 19.230469 C 13.171875 19.230469 13.558594 19.707031 13.558594 20.296875 L 13.558594 20.859375 C 13.558594 21.449219 13.171875 21.929688 12.691406 21.929688 L 10.871094 21.929688 C 10.394531 21.929688 10.003906 21.449219 10.003906 20.859375 L 10.003906 20.296875 C 10.003906 19.707031 10.394531 19.230469 10.871094 19.230469 Z M 10.871094 19.230469 "/>
<path style=" stroke:none;fill-rule:evenodd;fill:rgb(10.196079%,73.725492%,61.176473%);fill-opacity:1;" d="M 14.988281 19.207031 L 16.8125 19.207031 C 17.292969 19.207031 17.679688 19.6875 17.679688 20.277344 L 17.679688 20.839844 C 17.679688 21.429688 17.292969 21.910156 16.8125 21.910156 L 14.988281 21.910156 C 14.511719 21.910156 14.125 21.429688 14.125 20.839844 L 14.125 20.277344 C 14.125 19.6875 14.511719 19.207031 14.988281 19.207031 Z M 14.988281 19.207031 "/>
<path style=" stroke:none;fill-rule:evenodd;fill:rgb(10.196079%,73.725492%,61.176473%);fill-opacity:1;" d="M 19.082031 19.160156 L 20.90625 19.160156 C 21.386719 19.160156 21.769531 19.640625 21.769531 20.230469 L 21.769531 20.792969 C 21.769531 21.386719 21.386719 21.863281 20.90625 21.863281 L 19.082031 21.863281 C 18.605469 21.863281 18.21875 21.386719 18.21875 20.792969 L 18.21875 20.230469 C 18.21875 19.640625 18.605469 19.160156 19.082031 19.160156 Z M 19.082031 19.160156 "/>
<path style=" stroke:none;fill-rule:evenodd;fill:rgb(10.196079%,73.725492%,61.176473%);fill-opacity:1;" d="M 10.855469 22.660156 L 12.675781 22.660156 C 13.152344 22.660156 13.542969 23.140625 13.542969 23.730469 L 13.542969 24.292969 C 13.542969 24.882812 13.152344 25.363281 12.675781 25.363281 L 10.855469 25.363281 C 10.375 25.363281 9.988281 24.882812 9.988281 24.292969 L 9.988281 23.730469 C 9.988281 23.140625 10.375 22.660156 10.855469 22.660156 Z M 10.855469 22.660156 "/>
<path style=" stroke:none;fill-rule:evenodd;fill:rgb(10.196079%,73.725492%,61.176473%);fill-opacity:1;" d="M 14.972656 22.640625 L 16.796875 22.640625 C 17.273438 22.640625 17.660156 23.121094 17.660156 23.710938 L 17.660156 24.273438 C 17.660156 24.863281 17.273438 25.339844 16.796875 25.339844 L 14.972656 25.339844 C 14.496094 25.339844 14.105469 24.863281 14.105469 24.273438 L 14.105469 23.710938 C 14.105469 23.121094 14.496094 22.640625 14.972656 22.640625 Z M 14.972656 22.640625 "/>
<path style=" stroke:none;fill-rule:evenodd;fill:rgb(10.196079%,73.725492%,61.176473%);fill-opacity:1;" d="M 19.066406 22.597656 L 20.886719 22.597656 C 21.367188 22.597656 21.753906 23.074219 21.753906 23.664062 L 21.753906 24.226562 C 21.753906 24.816406 21.367188 25.296875 20.886719 25.296875 L 19.066406 25.296875 C 18.589844 25.296875 18.199219 24.816406 18.199219 24.226562 L 18.199219 23.664062 C 18.199219 23.074219 18.589844 22.597656 19.066406 22.597656 Z M 19.066406 22.597656 "/>
</g>
</svg>
