
<svg xmlns="http://www.w3.org/2000/svg" xmlns:xlink="http://www.w3.org/1999/xlink" width="32px" height="32px" viewBox="0 0 32 32" version="1.1">
<g id="surface1">
<path style="fill-rule:nonzero;fill:rgb(81.176472%,9.803922%,12.941177%);fill-opacity:1;stroke-width:28.191782;stroke-linecap:butt;stroke-linejoin:miter;stroke:rgb(95.686275%,38.039216%,40.784314%);stroke-opacity:1;stroke-miterlimit:4;" d="M 81.5 25.0625 L 430.5 25.0625 C 461.6875 25.0625 486.9375 50.3125 486.9375 81.5 L 486.9375 430.5 C 486.9375 461.6875 461.6875 486.9375 430.5 486.9375 L 81.5 486.9375 C 50.3125 486.9375 25.0625 461.6875 25.0625 430.5 L 25.0625 81.5 C 25.0625 50.3125 50.3125 25.0625 81.5 25.0625 Z M 81.5 25.0625 " transform="matrix(0.0625,0,0,0.0625,0,0)"/>
<path style=" stroke:none;fill-rule:nonzero;fill:rgb(100%,100%,100%);fill-opacity:1;" d="M 10.167969 7.128906 C 9.359375 7.128906 8.703125 7.78125 8.703125 8.589844 L 8.703125 23.839844 C 8.703125 24.652344 9.359375 25.304688 10.167969 25.304688 L 10.191406 25.304688 C 11.003906 25.304688 11.65625 24.652344 11.65625 23.839844 L 11.65625 8.589844 C 11.65625 7.78125 11.003906 7.128906 10.191406 7.128906 Z M 10.167969 7.128906 "/>
<path style=" stroke:none;fill-rule:nonzero;fill:rgb(100%,100%,100%);fill-opacity:1;" d="M 21.972656 7.128906 C 21.160156 7.128906 20.507812 7.78125 20.507812 8.589844 L 20.507812 23.839844 C 20.507812 24.652344 21.160156 25.304688 21.972656 25.304688 L 21.996094 25.304688 C 22.808594 25.304688 23.457031 24.652344 23.457031 23.839844 L 23.457031 8.589844 C 23.457031 7.78125 22.808594 7.128906 21.996094 7.128906 Z M 21.972656 7.128906 "/>
<path style=" stroke:none;fill-rule:nonzero;fill:rgb(72.549021%,72.549021%,72.549021%);fill-opacity:1;" d="M 16.082031 13.503906 C 15.261719 13.503906 14.605469 14.160156 14.605469 14.976562 L 14.605469 23.832031 C 14.605469 24.648438 15.261719 25.304688 16.082031 25.304688 C 16.898438 25.304688 17.558594 24.648438 17.558594 23.832031 L 17.558594 14.976562 C 17.558594 14.160156 16.898438 13.503906 16.082031 13.503906 Z M 16.082031 13.503906 "/>
</g>
</svg>
