
<svg xmlns="http://www.w3.org/2000/svg" xmlns:xlink="http://www.w3.org/1999/xlink" width="32px" height="32px" viewBox="0 0 32 32" version="1.1">
<g id="surface1">
<path style="fill-rule:nonzero;fill:rgb(100%,100%,100%);fill-opacity:1;stroke-width:5.627363;stroke-linecap:butt;stroke-linejoin:miter;stroke:rgb(46.27451%,18.039216%,20%);stroke-opacity:1;stroke-miterlimit:4;" d="M 16.3625 -97.287476 L 86.0375 -97.287476 C 92.25 -97.287476 97.2875 -92.249976 97.2875 -86.037476 L 97.2875 -16.362476 C 97.2875 -10.149976 92.25 -5.112476 86.0375 -5.112476 L 16.3625 -5.112476 C 10.15 -5.112476 5.1125 -10.149976 5.1125 -16.362476 L 5.1125 -86.037476 C 5.1125 -92.249976 10.15 -97.287476 16.3625 -97.287476 Z M 16.3625 -97.287476 " transform="matrix(0.3125,0,0,0.3125,0,31.999992)"/>
<path style=" stroke:none;fill-rule:nonzero;fill:rgb(98.431373%,79.215688%,59.215689%);fill-opacity:1;" d="M 27.726562 16.34375 C 27.726562 18.054688 26.339844 19.441406 24.628906 19.441406 C 22.917969 19.441406 21.53125 18.054688 21.53125 16.34375 C 21.53125 14.632812 22.917969 13.246094 24.628906 13.246094 C 26.339844 13.246094 27.726562 14.632812 27.726562 16.34375 "/>
<path style=" stroke:none;fill-rule:nonzero;fill:rgb(98.431373%,79.215688%,59.215689%);fill-opacity:1;" d="M 10.664062 16.34375 C 10.664062 18.054688 9.277344 19.441406 7.566406 19.441406 C 5.855469 19.441406 4.46875 18.054688 4.46875 16.34375 C 4.46875 14.632812 5.855469 13.246094 7.566406 13.246094 C 9.277344 13.246094 10.664062 14.632812 10.664062 16.34375 "/>
<path style=" stroke:none;fill-rule:nonzero;fill:rgb(84.705883%,30.980393%,31.764707%);fill-opacity:1;" d="M 9.335938 16.34375 C 9.335938 17.320312 8.542969 18.113281 7.566406 18.113281 C 6.589844 18.113281 5.796875 17.320312 5.796875 16.34375 C 5.796875 15.367188 6.589844 14.574219 7.566406 14.574219 C 8.542969 14.574219 9.335938 15.367188 9.335938 16.34375 "/>
<path style=" stroke:none;fill-rule:nonzero;fill:rgb(84.705883%,30.980393%,31.764707%);fill-opacity:1;" d="M 26.398438 16.34375 C 26.398438 17.320312 25.605469 18.113281 24.628906 18.113281 C 23.652344 18.113281 22.859375 17.320312 22.859375 16.34375 C 22.859375 15.367188 23.652344 14.574219 24.628906 14.574219 C 25.605469 14.574219 26.398438 15.367188 26.398438 16.34375 "/>
<path style=" stroke:none;fill-rule:nonzero;fill:rgb(46.27451%,18.039216%,20%);fill-opacity:1;" d="M 25.042969 16.34375 C 25.042969 21.292969 21.03125 25.304688 16.082031 25.304688 C 11.136719 25.304688 7.121094 21.292969 7.121094 16.34375 C 7.121094 11.394531 11.136719 7.382812 16.082031 7.382812 C 21.03125 7.382812 25.042969 11.394531 25.042969 16.34375 "/>
<path style=" stroke:none;fill-rule:nonzero;fill:rgb(98.431373%,79.215688%,59.215689%);fill-opacity:1;" d="M 23.46875 15.128906 C 23.46875 13.109375 21.832031 11.476562 19.816406 11.476562 C 18.183594 11.476562 16.796875 12.550781 16.332031 14.035156 C 15.871094 12.550781 14.484375 11.476562 12.847656 11.476562 C 10.832031 11.476562 9.199219 13.109375 9.199219 15.128906 C 9.199219 16.847656 10.394531 18.289062 11.996094 18.675781 C 11.453125 19.496094 11.132812 20.480469 11.132812 21.542969 C 11.132812 24.414062 13.460938 26.742188 16.332031 26.742188 C 19.203125 26.742188 21.53125 24.414062 21.53125 21.542969 C 21.53125 20.480469 21.214844 19.496094 20.667969 18.675781 C 22.273438 18.289062 23.46875 16.847656 23.46875 15.128906 "/>
<path style=" stroke:none;fill-rule:nonzero;fill:rgb(46.27451%,18.039216%,20%);fill-opacity:1;" d="M 12.035156 8.351562 C 12.035156 8.351562 15.199219 6.496094 19.734375 4.949219 L 17.332031 7.472656 L 20.730469 6.652344 L 20.136719 8.351562 L 21.53125 8.351562 L 21.53125 9.707031 Z M 12.035156 8.351562 "/>
<path style=" stroke:none;fill-rule:nonzero;fill:rgb(84.705883%,30.980393%,31.764707%);fill-opacity:1;" d="M 16.75 23.089844 C 16.75 23.496094 16.527344 23.828125 16.25 23.828125 C 15.972656 23.828125 15.75 23.496094 15.75 23.089844 C 15.75 22.683594 15.972656 22.355469 16.25 22.355469 C 16.527344 22.355469 16.75 22.683594 16.75 23.089844 "/>
<path style=" stroke:none;fill-rule:nonzero;fill:rgb(94.901961%,56.470591%,41.568628%);fill-opacity:1;" d="M 15.410156 15.128906 C 15.410156 16.539062 14.265625 17.683594 12.855469 17.683594 C 11.441406 17.683594 10.300781 16.539062 10.300781 15.128906 C 10.300781 13.714844 11.441406 12.570312 12.855469 12.570312 C 14.265625 12.570312 15.410156 13.714844 15.410156 15.128906 "/>
<path style=" stroke:none;fill-rule:nonzero;fill:rgb(24.313726%,11.372549%,8.235294%);fill-opacity:1;" d="M 14.355469 15.128906 C 14.355469 15.957031 13.683594 16.628906 12.855469 16.628906 C 12.027344 16.628906 11.355469 15.957031 11.355469 15.128906 C 11.355469 14.296875 12.027344 13.625 12.855469 13.625 C 13.683594 13.625 14.355469 14.296875 14.355469 15.128906 "/>
<path style=" stroke:none;fill-rule:nonzero;fill:rgb(46.27451%,18.039216%,20%);fill-opacity:1;" d="M 14.003906 15.128906 C 14.003906 15.761719 13.488281 16.277344 12.855469 16.277344 C 12.21875 16.277344 11.707031 15.761719 11.707031 15.128906 C 11.707031 14.492188 12.21875 13.976562 12.855469 13.976562 C 13.488281 13.976562 14.003906 14.492188 14.003906 15.128906 "/>
<path style=" stroke:none;fill-rule:nonzero;fill:rgb(24.313726%,11.372549%,8.235294%);fill-opacity:1;" d="M 13.832031 14.722656 C 13.832031 15.226562 13.425781 15.632812 12.925781 15.632812 C 12.425781 15.632812 12.019531 15.226562 12.019531 14.722656 C 12.019531 14.222656 12.425781 13.816406 12.925781 13.816406 C 13.425781 13.816406 13.832031 14.222656 13.832031 14.722656 "/>
<path style=" stroke:none;fill-rule:nonzero;fill:rgb(97.647059%,96.470588%,91.764706%);fill-opacity:1;" d="M 14.003906 14.675781 C 14.003906 14.984375 13.753906 15.238281 13.441406 15.238281 C 13.132812 15.238281 12.882812 14.984375 12.882812 14.675781 C 12.882812 14.363281 13.132812 14.113281 13.441406 14.113281 C 13.753906 14.113281 14.003906 14.363281 14.003906 14.675781 "/>
<path style=" stroke:none;fill-rule:nonzero;fill:rgb(94.901961%,56.470591%,41.568628%);fill-opacity:1;" d="M 22.535156 15.128906 C 22.535156 16.539062 21.390625 17.683594 19.980469 17.683594 C 18.566406 17.683594 17.421875 16.539062 17.421875 15.128906 C 17.421875 13.714844 18.566406 12.570312 19.980469 12.570312 C 21.390625 12.570312 22.535156 13.714844 22.535156 15.128906 "/>
<path style=" stroke:none;fill-rule:nonzero;fill:rgb(24.313726%,11.372549%,8.235294%);fill-opacity:1;" d="M 21.480469 15.128906 C 21.480469 15.957031 20.808594 16.628906 19.980469 16.628906 C 19.148438 16.628906 18.476562 15.957031 18.476562 15.128906 C 18.476562 14.296875 19.148438 13.625 19.980469 13.625 C 20.808594 13.625 21.480469 14.296875 21.480469 15.128906 "/>
<path style=" stroke:none;fill-rule:nonzero;fill:rgb(46.27451%,18.039216%,20%);fill-opacity:1;" d="M 21.128906 15.128906 C 21.128906 15.761719 20.613281 16.277344 19.980469 16.277344 C 19.34375 16.277344 18.828125 15.761719 18.828125 15.128906 C 18.828125 14.492188 19.34375 13.976562 19.980469 13.976562 C 20.613281 13.976562 21.128906 14.492188 21.128906 15.128906 "/>
<path style=" stroke:none;fill-rule:nonzero;fill:rgb(24.313726%,11.372549%,8.235294%);fill-opacity:1;" d="M 20.957031 14.722656 C 20.957031 15.226562 20.550781 15.632812 20.046875 15.632812 C 19.546875 15.632812 19.140625 15.226562 19.140625 14.722656 C 19.140625 14.222656 19.546875 13.816406 20.046875 13.816406 C 20.550781 13.816406 20.957031 14.222656 20.957031 14.722656 "/>
<path style=" stroke:none;fill-rule:nonzero;fill:rgb(97.647059%,96.470588%,91.764706%);fill-opacity:1;" d="M 21.128906 14.675781 C 21.128906 14.984375 20.878906 15.238281 20.566406 15.238281 C 20.257812 15.238281 20.003906 14.984375 20.003906 14.675781 C 20.003906 14.363281 20.257812 14.113281 20.566406 14.113281 C 20.878906 14.113281 21.128906 14.363281 21.128906 14.675781 "/>
<path style=" stroke:none;fill-rule:nonzero;fill:rgb(94.901961%,56.470591%,41.568628%);fill-opacity:1;" d="M 17.128906 19.089844 C 17.128906 19.21875 16.714844 19.320312 16.203125 19.320312 C 15.691406 19.320312 15.277344 19.21875 15.277344 19.089844 C 15.277344 18.964844 15.691406 18.863281 16.203125 18.863281 C 16.714844 18.863281 17.128906 18.964844 17.128906 19.089844 "/>
</g>
</svg>
