<!-- color: #6e90bb -->
<svg xmlns="http://www.w3.org/2000/svg" xmlns:xlink="http://www.w3.org/1999/xlink" width="32px" height="32px" viewBox="0 0 32 32" version="1.1">
<defs>
<clipPath id="clip1">
  <path d="M 2.1875 2.0625 L 29.75 2.0625 L 29.75 29.6875 L 2.1875 29.6875 Z M 2.1875 2.0625 "/>
</clipPath>
<clipPath id="clip2">
  <path d="M 6.964844 2.101562 L 24.964844 2.101562 C 27.578125 2.101562 29.695312 4.21875 29.695312 6.832031 L 29.695312 24.933594 C 29.695312 27.542969 27.578125 29.660156 24.964844 29.660156 L 6.964844 29.660156 C 4.355469 29.660156 2.238281 27.542969 2.238281 24.933594 L 2.238281 6.832031 C 2.238281 4.21875 4.355469 2.101562 6.964844 2.101562 Z M 6.964844 2.101562 "/>
</clipPath>
<clipPath id="clip3">
  <path d="M 42.582031 15.96875 C 42.582031 30.628906 30.695312 42.5 16.050781 42.5 C 1.402344 42.5 -10.480469 30.628906 -10.480469 15.96875 C -10.480469 1.308594 1.402344 -10.566406 16.050781 -10.566406 C 30.695312 -10.566406 42.582031 1.308594 42.582031 15.96875 Z M 42.582031 15.96875 "/>
</clipPath>
</defs>
<g id="surface1">
<g clip-path="url(#clip1)" clip-rule="nonzero">
<g clip-path="url(#clip2)" clip-rule="nonzero">
<g clip-path="url(#clip3)" clip-rule="nonzero">
<path style=" stroke:none;fill-rule:nonzero;fill:rgb(45.09804%,82.352942%,8.627451%);fill-opacity:1;" d="M 4.558594 29.726562 C 4.558594 29.554688 10.339844 22.605469 10.464844 22.632812 C 10.53125 22.652344 13.117188 23.746094 16.199219 25.070312 C 21.472656 27.332031 21.824219 27.46875 21.964844 27.277344 C 22.179688 26.988281 22.925781 25.433594 23.316406 24.453125 L 23.648438 23.621094 L 23.089844 23.3125 C 22.292969 22.878906 21.125 21.910156 20.394531 21.078125 C 19.730469 20.316406 18.527344 18.480469 18.527344 18.222656 C 18.527344 18.136719 18.910156 18.527344 19.378906 19.085938 C 20.691406 20.644531 23.714844 23.097656 23.902344 22.746094 C 24.128906 22.332031 24.277344 21.117188 24.265625 19.703125 C 24.257812 17.976562 24.03125 16.632812 23.4375 14.78125 L 23.105469 13.738281 L 21.464844 13.226562 C 20.558594 12.9375 19.652344 12.660156 19.449219 12.589844 C 18.738281 12.367188 19.183594 12.378906 20.21875 12.613281 C 21.464844 12.894531 22.730469 13.121094 23.511719 13.222656 C 24.203125 13.308594 24.351562 13.171875 24.425781 12.410156 C 24.519531 11.433594 23.894531 8.730469 23.253906 7.390625 C 23 6.855469 22.882812 6.734375 22.371094 6.503906 C 20.683594 5.714844 15.382812 4.992188 13.132812 5.230469 C 12.160156 5.328125 11.164062 5.566406 10.847656 5.765625 C 10.761719 5.832031 11.390625 5.984375 12.464844 6.183594 C 13.433594 6.363281 14.144531 6.519531 14.039062 6.546875 C 13.921875 6.566406 12.40625 6.398438 10.644531 6.175781 C 7.5625 5.777344 7.449219 5.769531 7.226562 5.964844 C 6.773438 6.371094 6.136719 7.476562 6 8.070312 C 5.871094 8.644531 5.882812 8.710938 6.167969 9.292969 C 6.652344 10.285156 7.5625 11.011719 9.621094 12.054688 C 10.597656 12.558594 11.371094 12.972656 11.34375 13.003906 C 11.3125 13.03125 10.480469 12.722656 9.496094 12.308594 L 7.699219 11.566406 L 5.0625 12.308594 C 3.613281 12.707031 2.378906 13.042969 2.320312 13.042969 C 2.25 13.042969 2.214844 11.292969 2.214844 8.328125 C 2.214844 3.789062 2.222656 3.601562 2.449219 3.136719 C 2.582031 2.851562 2.847656 2.550781 3.089844 2.40625 L 3.503906 2.148438 L 15.570312 2.113281 C 22.203125 2.09375 27.910156 2.113281 28.230469 2.148438 C 28.972656 2.238281 29.636719 2.78125 29.8125 3.433594 C 29.890625 3.714844 29.917969 8.011719 29.898438 16.179688 L 29.867188 28.488281 L 29.609375 28.894531 C 29.460938 29.140625 29.160156 29.402344 28.878906 29.542969 C 28.40625 29.769531 28.3125 29.777344 16.492188 29.777344 C 9.941406 29.777344 4.574219 29.734375 4.574219 29.691406 M 4.550781 29.714844 "/>
</g>
</g>
</g>
</g>
</svg>
