
<svg xmlns="http://www.w3.org/2000/svg" xmlns:xlink="http://www.w3.org/1999/xlink" width="32px" height="32px" viewBox="0 0 32 32" version="1.1">
<g id="surface1">
<path style="fill-rule:nonzero;fill:rgb(30.19608%,30.19608%,30.19608%);fill-opacity:1;stroke-width:54.653637;stroke-linecap:butt;stroke-linejoin:miter;stroke:rgb(16.862746%,30.980393%,51.372552%);stroke-opacity:1;stroke-miterlimit:4;" d="M 173.625 64.375 L 850.375 64.375 C 910.625 64.375 959.625 113.375 959.625 173.625 L 959.625 850.375 C 959.625 910.625 910.625 959.625 850.375 959.625 L 173.625 959.625 C 113.375 959.625 64.375 910.625 64.375 850.375 L 64.375 173.625 C 64.375 113.375 113.375 64.375 173.625 64.375 Z M 173.625 64.375 " transform="matrix(0.03125,0,0,0.03125,0,0)"/>
<path style=" stroke:none;fill-rule:nonzero;fill:rgb(25.098041%,30.980393%,52.549022%);fill-opacity:1;" d="M 22.464844 4.8125 C 22.191406 4.65625 21.90625 4.621094 21.605469 4.699219 L 8.941406 8.09375 L 23.941406 9.066406 L 22.988281 5.496094 C 22.90625 5.195312 22.730469 4.96875 22.464844 4.8125 Z M 9.019531 26.503906 C 9.097656 26.808594 9.269531 27.035156 9.542969 27.191406 C 9.808594 27.347656 10.097656 27.382812 10.394531 27.300781 L 23.253906 23.859375 L 8.066406 22.953125 Z M 9.019531 26.503906 "/>
<path style=" stroke:none;fill-rule:nonzero;fill:rgb(34.901962%,71.764708%,89.803922%);fill-opacity:1;" d="M 26.507812 22.988281 C 26.808594 22.910156 27.035156 22.730469 27.191406 22.464844 C 27.347656 22.191406 27.386719 21.90625 27.304688 21.605469 L 23.941406 9.066406 L 8.941406 8.09375 L 5.496094 9.019531 C 5.199219 9.097656 4.96875 9.269531 4.816406 9.542969 C 4.65625 9.8125 4.621094 10.097656 4.699219 10.394531 L 8.066406 22.953125 L 23.253906 23.859375 Z M 26.507812 22.988281 "/>
<path style=" stroke:none;fill-rule:nonzero;fill:rgb(100%,100%,100%);fill-opacity:1;" d="M 23.878906 9.066406 C 23.878906 8.804688 23.785156 8.585938 23.601562 8.402344 C 23.417969 8.21875 23.199219 8.128906 22.941406 8.128906 L 9.066406 8.128906 C 8.808594 8.128906 8.582031 8.21875 8.402344 8.402344 C 8.21875 8.582031 8.128906 8.808594 8.128906 9.066406 L 8.128906 22.941406 C 8.128906 23.199219 8.21875 23.417969 8.402344 23.601562 C 8.582031 23.785156 8.808594 23.878906 9.066406 23.878906 L 22.941406 23.878906 C 23.199219 23.878906 23.417969 23.785156 23.601562 23.601562 C 23.785156 23.417969 23.878906 23.199219 23.878906 22.941406 Z M 23.878906 9.066406 "/>
<path style=" stroke:none;fill-rule:nonzero;fill:rgb(25.882354%,32.549021%,51.764709%);fill-opacity:1;" d="M 14.246094 12.371094 C 14.089844 12.261719 13.917969 12.222656 13.730469 12.246094 C 13.539062 12.269531 13.382812 12.351562 13.253906 12.496094 C 13.128906 12.636719 13.066406 12.800781 13.066406 12.996094 L 13.066406 19.011719 C 13.066406 19.199219 13.128906 19.367188 13.253906 19.511719 C 13.382812 19.652344 13.539062 19.734375 13.730469 19.757812 C 13.917969 19.78125 14.089844 19.738281 14.246094 19.628906 L 18.613281 16.621094 C 18.75 16.527344 18.847656 16.398438 18.898438 16.238281 C 18.949219 16.082031 18.949219 15.921875 18.898438 15.761719 C 18.847656 15.605469 18.75 15.480469 18.613281 15.378906 Z M 14.246094 12.371094 "/>
</g>
</svg>
