
<svg xmlns="http://www.w3.org/2000/svg" xmlns:xlink="http://www.w3.org/1999/xlink" width="32px" height="32px" viewBox="0 0 32 32" version="1.1">
<g id="surface1">
<path style="fill-rule:nonzero;fill:rgb(80.000001%,80.000001%,80.000001%);fill-opacity:1;stroke-width:27.442497;stroke-linecap:butt;stroke-linejoin:miter;stroke:rgb(0%,66.666669%,83.137256%);stroke-opacity:1;stroke-miterlimit:4;" d="M 86.125 31.25 L 425.875 31.25 C 456.1875 31.25 480.75 55.8125 480.75 86.125 L 480.75 425.875 C 480.75 456.1875 456.1875 480.75 425.875 480.75 L 86.125 480.75 C 55.8125 480.75 31.25 456.1875 31.25 425.875 L 31.25 86.125 C 31.25 55.8125 55.8125 31.25 86.125 31.25 Z M 86.125 31.25 " transform="matrix(0.0625,0,0,0.0625,0,0)"/>
<path style=" stroke:none;fill-rule:evenodd;fill:rgb(100%,100%,100%);fill-opacity:1;" d="M 4.710938 23.519531 L 14.074219 23.519531 C 14.453125 23.519531 14.761719 23.210938 14.761719 22.832031 L 14.761719 16.054688 C 14.761719 15.675781 14.453125 15.367188 14.074219 15.367188 L 4.710938 15.367188 C 4.332031 15.367188 4.023438 15.675781 4.023438 16.054688 L 4.023438 22.832031 C 4.023438 23.210938 4.332031 23.519531 4.710938 23.519531 Z M 4.710938 23.519531 "/>
<path style=" stroke:none;fill-rule:evenodd;fill:rgb(100%,100%,100%);fill-opacity:1;" d="M 17.652344 23.425781 L 27.019531 23.425781 C 27.398438 23.425781 27.703125 23.117188 27.703125 22.738281 L 27.703125 15.960938 C 27.703125 15.582031 27.398438 15.273438 27.019531 15.273438 L 17.652344 15.273438 C 17.277344 15.273438 16.96875 15.582031 16.96875 15.960938 L 16.96875 22.738281 C 16.96875 23.117188 17.277344 23.425781 17.652344 23.425781 Z M 17.652344 23.425781 "/>
<path style=" stroke:none;fill-rule:evenodd;fill:rgb(100%,100%,100%);fill-opacity:1;" d="M 11.304688 13.113281 L 20.667969 13.113281 C 21.046875 13.113281 21.355469 12.808594 21.355469 12.429688 L 21.355469 5.652344 C 21.355469 5.273438 21.046875 4.964844 20.667969 4.964844 L 11.304688 4.964844 C 10.925781 4.964844 10.617188 5.273438 10.617188 5.652344 L 10.617188 12.429688 C 10.617188 12.808594 10.925781 13.113281 11.304688 13.113281 Z M 11.304688 13.113281 "/>
</g>
</svg>
