
<svg xmlns="http://www.w3.org/2000/svg" xmlns:xlink="http://www.w3.org/1999/xlink" width="32px" height="32px" viewBox="0 0 32 32" version="1.1">
<g id="surface1">
<path style="fill-rule:nonzero;fill:rgb(100%,100%,100%);fill-opacity:1;stroke-width:7.034204;stroke-linecap:butt;stroke-linejoin:miter;stroke:rgb(30.19608%,30.19608%,30.19608%);stroke-opacity:1;stroke-miterlimit:4;" d="M 20.453125 6.390625 L 107.546875 6.390625 C 115.3125 6.390625 121.609375 12.6875 121.609375 20.453125 L 121.609375 107.546875 C 121.609375 115.3125 115.3125 121.609375 107.546875 121.609375 L 20.453125 121.609375 C 12.6875 121.609375 6.390625 115.3125 6.390625 107.546875 L 6.390625 20.453125 C 6.390625 12.6875 12.6875 6.390625 20.453125 6.390625 Z M 20.453125 6.390625 " transform="matrix(0.25,0,0,0.25,0,0)"/>
<path style=" stroke:none;fill-rule:nonzero;fill:rgb(30.19608%,30.19608%,30.19608%);fill-opacity:1;" d="M 23.363281 23.136719 C 23.324219 22.292969 22.058594 19.785156 22.085938 18.8125 C 22.121094 17.707031 22.789062 16.347656 24.179688 19.007812 C 25.011719 20.597656 26.292969 19.609375 26.445312 18.832031 C 26.914062 16.488281 26.21875 13.675781 24.003906 10.921875 C 20.167969 6.15625 13.429688 4.847656 8.953125 7.996094 C 4.480469 11.148438 4.386719 18.246094 8.472656 22.359375 C 12.175781 26.085938 17.277344 27.722656 21.546875 25.929688 C 21.988281 25.742188 23.449219 25.171875 23.363281 23.136719 Z M 11.371094 9.320312 C 12.179688 8.753906 13.292969 8.945312 13.863281 9.753906 C 14.433594 10.5625 14.238281 11.675781 13.433594 12.246094 C 12.625 12.816406 11.507812 12.621094 10.941406 11.8125 C 10.371094 11.003906 10.566406 9.890625 11.371094 9.320312 Z M 7.886719 16.589844 C 7.316406 15.78125 7.511719 14.667969 8.316406 14.097656 C 9.125 13.527344 10.242188 13.722656 10.808594 14.527344 C 11.378906 15.339844 11.183594 16.453125 10.378906 17.019531 C 9.570312 17.589844 8.453125 17.398438 7.886719 16.589844 Z M 16.566406 11.933594 C 15.996094 11.128906 16.191406 10.011719 17 9.441406 C 17.808594 8.871094 18.921875 9.066406 19.492188 9.875 C 20.058594 10.683594 19.867188 11.796875 19.058594 12.367188 C 18.253906 12.933594 17.136719 12.742188 16.566406 11.933594 Z M 10.515625 21.152344 C 9.949219 20.347656 10.140625 19.230469 10.949219 18.660156 C 11.757812 18.09375 12.871094 18.285156 13.441406 19.09375 C 14.011719 19.902344 13.816406 21.019531 13.007812 21.585938 C 12.199219 22.15625 11.085938 21.960938 10.515625 21.152344 Z M 10.515625 21.152344 "/>
<path style=" stroke:none;fill-rule:nonzero;fill:rgb(100%,80.000001%,0%);fill-opacity:1;" d="M 11.851562 12.601562 C 10.9375 12.316406 10.316406 11.277344 10.511719 10.355469 C 10.613281 9.898438 10.800781 9.558594 11.128906 9.253906 C 11.5625 8.847656 11.875 8.726562 12.484375 8.726562 C 13.09375 8.726562 13.40625 8.847656 13.84375 9.257812 C 14.933594 10.277344 14.542969 12.101562 13.132812 12.597656 C 12.832031 12.707031 12.183594 12.707031 11.851562 12.601562 Z M 11.851562 12.601562 "/>
<path style=" stroke:none;fill-rule:nonzero;fill:rgb(0%,40.000001%,100%);fill-opacity:1;" d="M 17.433594 12.707031 C 16.554688 12.433594 15.957031 11.433594 16.144531 10.554688 C 16.242188 10.113281 16.421875 9.785156 16.738281 9.496094 C 17.152344 9.105469 17.453125 8.988281 18.039062 8.988281 C 18.625 8.988281 18.925781 9.105469 19.34375 9.496094 C 20.386719 10.472656 20.015625 12.230469 18.660156 12.707031 C 18.375 12.808594 17.753906 12.808594 17.433594 12.707031 Z M 17.433594 12.707031 "/>
<path style=" stroke:none;fill-rule:nonzero;fill:rgb(0%,100%,0%);fill-opacity:1;" d="M 8.875 17.378906 C 7.996094 17.105469 7.402344 16.105469 7.589844 15.226562 C 7.683594 14.785156 7.863281 14.460938 8.179688 14.167969 C 8.597656 13.777344 8.898438 13.660156 9.480469 13.660156 C 10.066406 13.660156 10.367188 13.777344 10.785156 14.167969 C 11.832031 15.144531 11.457031 16.902344 10.105469 17.378906 C 9.816406 17.480469 9.195312 17.480469 8.875 17.378906 Z M 8.875 17.378906 "/>
<path style=" stroke:none;fill-rule:nonzero;fill:rgb(100%,0%,80.000001%);fill-opacity:1;" d="M 11.394531 21.949219 C 10.515625 21.671875 9.921875 20.675781 10.109375 19.792969 C 10.203125 19.351562 10.386719 19.027344 10.699219 18.730469 C 11.113281 18.34375 11.417969 18.226562 12 18.226562 C 12.585938 18.226562 12.886719 18.34375 13.308594 18.738281 C 14.351562 19.714844 13.976562 21.46875 12.625 21.945312 C 12.335938 22.046875 11.714844 22.046875 11.394531 21.949219 Z M 11.394531 21.949219 "/>
<path style=" stroke:none;fill-rule:nonzero;fill:rgb(80.392158%,68.627453%,47.843137%);fill-opacity:1;" d="M 26.253906 7.082031 C 26.183594 7.082031 26.136719 7.089844 26.082031 7.121094 C 25.882812 7.210938 25.742188 7.339844 25.28125 7.84375 C 23.367188 9.933594 22.011719 11.671875 20.816406 13.570312 C 20.027344 14.816406 19.359375 16.003906 18.222656 18.164062 C 18.019531 18.558594 17.835938 18.894531 17.820312 18.910156 C 17.808594 18.929688 17.742188 19.035156 17.675781 19.148438 C 17.234375 19.929688 16.832031 20.773438 16.503906 21.605469 C 16.347656 22.003906 16.378906 21.964844 16.191406 22.007812 C 15.660156 22.125 15.089844 22.441406 14.722656 22.824219 C 14.421875 23.144531 14.277344 23.414062 13.902344 24.386719 C 13.675781 24.964844 13.628906 25.074219 13.519531 25.273438 C 13.214844 25.832031 12.761719 26.257812 11.941406 26.742188 C 11.855469 26.792969 11.78125 26.84375 11.777344 26.851562 C 11.773438 26.855469 11.792969 26.867188 11.832031 26.878906 C 11.847656 26.871094 11.863281 26.859375 11.886719 26.84375 C 12.621094 26.410156 13.140625 25.949219 13.433594 25.464844 C 13.539062 25.285156 13.679688 24.96875 13.871094 24.472656 C 14.230469 23.542969 14.363281 23.277344 14.640625 22.957031 C 14.894531 22.664062 15.308594 22.378906 15.71875 22.210938 C 15.894531 22.140625 16.144531 22.066406 16.257812 22.050781 C 16.300781 22.046875 16.339844 22.035156 16.347656 22.027344 C 16.355469 22.015625 16.410156 21.878906 16.472656 21.722656 C 16.707031 21.132812 16.945312 20.597656 17.242188 20.003906 C 17.414062 19.660156 17.761719 19.019531 17.792969 18.984375 C 17.800781 18.972656 19.421875 19.953125 19.421875 19.972656 C 19.421875 19.992188 19.121094 20.421875 18.914062 20.699219 C 18.738281 20.933594 18.535156 21.199219 18.3125 21.46875 C 18.398438 21.367188 18.496094 21.25 18.554688 21.175781 C 18.855469 20.800781 19.417969 20.027344 19.457031 19.929688 C 19.46875 19.902344 19.625 19.675781 19.808594 19.425781 C 20.433594 18.554688 21.308594 17.324219 21.652344 16.824219 C 23.472656 14.199219 24.589844 12.199219 25.746094 9.472656 C 26 8.875 26.34375 8.019531 26.398438 7.851562 C 26.519531 7.488281 26.519531 7.253906 26.402344 7.136719 C 26.351562 7.082031 26.34375 7.082031 26.253906 7.082031 Z M 17.839844 19.175781 C 17.832031 19.179688 17.777344 19.261719 17.722656 19.363281 C 17.644531 19.503906 17.625 19.550781 17.636719 19.570312 C 17.652344 19.597656 18.859375 20.496094 18.882812 20.496094 C 18.890625 20.496094 18.910156 20.480469 18.925781 20.464844 C 18.988281 20.394531 19.230469 20.035156 19.226562 20.019531 C 19.226562 20.015625 19.207031 20.003906 19.203125 20.003906 C 19.199219 20.023438 19.164062 20.074219 19.027344 20.261719 C 18.964844 20.355469 18.902344 20.429688 18.894531 20.429688 C 18.875 20.425781 17.699219 19.5625 17.683594 19.535156 C 17.671875 19.519531 17.691406 19.472656 17.753906 19.363281 C 17.800781 19.277344 17.847656 19.199219 17.855469 19.1875 C 17.859375 19.1875 17.863281 19.1875 17.863281 19.1875 C 17.863281 19.1875 17.839844 19.175781 17.839844 19.175781 Z M 17.582031 19.664062 C 17.550781 19.671875 17.511719 19.746094 17.304688 20.164062 C 17.183594 20.402344 17.105469 20.582031 17.109375 20.601562 C 17.113281 20.632812 17.207031 20.679688 18.09375 21.09375 L 18.347656 21.210938 L 18.378906 21.175781 C 18.402344 21.160156 18.503906 21.03125 18.605469 20.894531 C 18.835938 20.597656 18.839844 20.589844 18.808594 20.558594 C 18.800781 20.582031 18.691406 20.722656 18.496094 20.972656 C 18.425781 21.066406 18.363281 21.136719 18.355469 21.136719 C 18.335938 21.136719 17.171875 20.582031 17.15625 20.566406 C 17.144531 20.558594 17.207031 20.421875 17.363281 20.105469 C 17.519531 19.785156 17.578125 19.683594 17.601562 19.667969 C 17.601562 19.667969 17.59375 19.664062 17.59375 19.664062 C 17.589844 19.664062 17.585938 19.664062 17.582031 19.664062 Z M 17.066406 20.707031 C 17.035156 20.707031 16.792969 21.253906 16.800781 21.304688 C 16.804688 21.339844 17.679688 21.957031 17.71875 21.953125 C 17.730469 21.949219 17.863281 21.804688 18.011719 21.628906 C 18.160156 21.453125 18.277344 21.300781 18.277344 21.285156 C 18.277344 21.285156 18.25 21.273438 18.246094 21.269531 C 18.230469 21.300781 18.132812 21.417969 18.003906 21.574219 C 17.863281 21.742188 17.738281 21.878906 17.730469 21.878906 C 17.703125 21.878906 16.847656 21.285156 16.839844 21.261719 C 16.832031 21.242188 17.046875 20.75 17.082031 20.710938 C 17.082031 20.710938 17.066406 20.707031 17.066406 20.707031 Z M 16.765625 21.425781 C 16.730469 21.425781 16.722656 21.449219 16.613281 21.710938 C 16.550781 21.867188 16.5 22.011719 16.5 22.039062 C 16.496094 22.097656 16.582031 22.238281 16.667969 22.324219 C 16.800781 22.464844 17.050781 22.542969 17.230469 22.5 C 17.246094 22.496094 17.347656 22.398438 17.449219 22.28125 C 17.652344 22.050781 17.660156 22.042969 17.644531 22.019531 C 17.644531 22.019531 17.625 22.007812 17.621094 22.003906 C 17.605469 22.035156 17.558594 22.089844 17.453125 22.207031 C 17.347656 22.324219 17.25 22.425781 17.238281 22.433594 C 17.222656 22.4375 17.1875 22.441406 17.160156 22.441406 C 16.902344 22.433594 16.695312 22.304688 16.582031 22.089844 L 16.535156 22 L 16.621094 21.773438 C 16.710938 21.542969 16.746094 21.457031 16.765625 21.429688 C 16.765625 21.429688 16.765625 21.425781 16.765625 21.425781 Z M 18.171875 21.636719 C 18.148438 21.667969 18.125 21.691406 18.101562 21.722656 C 18.128906 21.691406 18.144531 21.667969 18.171875 21.636719 Z M 17.417969 22.515625 C 17.394531 22.550781 17.378906 22.574219 17.378906 22.582031 C 17.386719 22.59375 17.402344 22.652344 17.425781 22.707031 C 17.496094 22.910156 17.515625 23.046875 17.515625 23.335938 C 17.515625 23.667969 17.484375 23.847656 17.371094 24.160156 C 17.355469 24.207031 17.335938 24.253906 17.316406 24.296875 C 17.359375 24.203125 17.398438 24.109375 17.425781 24.023438 C 17.519531 23.746094 17.546875 23.566406 17.546875 23.269531 C 17.542969 22.988281 17.519531 22.832031 17.445312 22.628906 C 17.425781 22.578125 17.417969 22.535156 17.417969 22.515625 Z M 17.417969 22.515625 "/>
<path style=" stroke:none;fill-rule:nonzero;fill:rgb(80.000001%,80.000001%,80.000001%);fill-opacity:1;" d="M 12.722656 27.085938 C 12.441406 27.054688 12.144531 26.996094 11.867188 26.914062 C 11.8125 26.894531 11.769531 26.878906 11.769531 26.871094 C 11.769531 26.867188 11.832031 26.824219 11.90625 26.78125 C 12.644531 26.347656 13.164062 25.882812 13.457031 25.394531 C 13.566406 25.214844 13.703125 24.902344 13.894531 24.40625 C 14.257812 23.472656 14.390625 23.207031 14.667969 22.886719 C 14.925781 22.59375 15.339844 22.304688 15.753906 22.136719 C 15.917969 22.070312 16.171875 21.996094 16.28125 21.980469 C 16.367188 21.96875 16.367188 21.972656 16.519531 21.578125 C 16.792969 20.878906 17.144531 20.125 17.484375 19.496094 C 17.730469 19.042969 17.824219 18.875 17.847656 18.878906 C 17.859375 18.882812 19.179688 19.683594 19.441406 19.847656 C 19.511719 19.890625 19.519531 19.863281 19.308594 20.167969 C 18.871094 20.804688 18.285156 21.535156 17.683594 22.207031 C 17.554688 22.351562 17.445312 22.480469 17.4375 22.488281 C 17.429688 22.503906 17.441406 22.554688 17.464844 22.628906 C 17.535156 22.851562 17.554688 22.976562 17.554688 23.265625 C 17.554688 23.601562 17.523438 23.777344 17.410156 24.09375 C 17.320312 24.34375 17.183594 24.582031 16.863281 25.050781 C 16.648438 25.355469 16.191406 25.839844 15.851562 26.113281 C 15.367188 26.503906 14.820312 26.796875 14.28125 26.953125 C 13.800781 27.09375 13.230469 27.140625 12.722656 27.085938 Z M 17.253906 22.410156 C 17.269531 22.40625 17.367188 22.304688 17.472656 22.183594 C 17.628906 22.011719 17.664062 21.964844 17.648438 21.949219 C 17.609375 21.914062 16.839844 21.386719 16.816406 21.378906 C 16.785156 21.371094 16.769531 21.398438 16.636719 21.746094 L 16.550781 21.972656 L 16.597656 22.066406 C 16.714844 22.285156 16.921875 22.410156 17.175781 22.417969 C 17.207031 22.417969 17.242188 22.417969 17.253906 22.410156 Z M 18.03125 21.542969 C 18.175781 21.375 18.289062 21.226562 18.285156 21.21875 C 18.28125 21.199219 17.128906 20.65625 17.105469 20.664062 C 17.085938 20.675781 16.847656 21.210938 16.855469 21.230469 C 16.863281 21.253906 17.726562 21.851562 17.753906 21.851562 C 17.761719 21.855469 17.886719 21.714844 18.03125 21.542969 Z M 18.527344 20.941406 C 18.730469 20.679688 18.84375 20.527344 18.84375 20.511719 C 18.84375 20.496094 17.667969 19.628906 17.632812 19.617188 C 17.613281 19.613281 17.5625 19.707031 17.382812 20.0625 C 17.222656 20.386719 17.164062 20.519531 17.175781 20.53125 C 17.191406 20.546875 18.363281 21.105469 18.382812 21.105469 C 18.390625 21.105469 18.453125 21.03125 18.527344 20.941406 Z M 19.0625 20.222656 C 19.265625 19.933594 19.253906 19.957031 19.230469 19.933594 C 19.214844 19.925781 18.914062 19.738281 18.554688 19.519531 C 18.015625 19.191406 17.898438 19.121094 17.882812 19.140625 C 17.871094 19.152344 17.824219 19.230469 17.777344 19.3125 C 17.714844 19.425781 17.695312 19.472656 17.707031 19.488281 C 17.722656 19.519531 18.90625 20.390625 18.925781 20.390625 C 18.933594 20.390625 18.996094 20.316406 19.0625 20.222656 Z M 19.0625 20.222656 "/>
<path style=" stroke:none;fill-rule:nonzero;fill:rgb(99.215686%,8.235294%,8.235294%);fill-opacity:1;" d="M 12.761719 27.097656 C 12.589844 27.082031 12.363281 27.046875 12.195312 27.011719 C 12.027344 26.972656 11.738281 26.890625 11.738281 26.878906 C 11.738281 26.875 11.808594 26.8125 11.894531 26.761719 C 12.605469 26.332031 13.121094 25.917969 13.410156 25.449219 C 13.519531 25.273438 13.644531 25.019531 13.753906 24.730469 C 14.136719 23.765625 14.261719 23.472656 14.292969 23.472656 C 14.304688 23.472656 14.332031 23.554688 14.425781 23.875 C 14.507812 24.160156 14.605469 24.355469 14.714844 24.445312 C 14.804688 24.519531 14.914062 24.558594 15.03125 24.558594 C 15.175781 24.558594 15.300781 24.523438 15.613281 24.398438 C 15.933594 24.269531 16.027344 24.246094 16.175781 24.246094 C 16.324219 24.246094 16.410156 24.285156 16.535156 24.421875 C 16.675781 24.574219 16.792969 24.808594 16.824219 25.019531 C 16.832031 25.074219 16.828125 25.09375 16.800781 25.136719 C 16.710938 25.292969 16.464844 25.550781 16.265625 25.753906 C 15.511719 26.515625 14.671875 26.929688 13.730469 27.074219 C 13.507812 27.105469 12.980469 27.121094 12.761719 27.097656 Z M 12.761719 27.097656 "/>
<path style="fill-rule:nonzero;fill:rgb(60.000002%,60.000002%,60.000002%);fill-opacity:1;stroke-width:0.488254;stroke-linecap:butt;stroke-linejoin:miter;stroke:rgb(60.000002%,60.000002%,60.000002%);stroke-opacity:1;stroke-miterlimit:4;" d="M 67.953125 89.71875 C 67.578125 89.609375 67.125 89.359375 66.828125 89.0625 C 66.59375 88.828125 66.1875 88.203125 66.1875 88.0625 C 66.1875 87.921875 67.0625 85.765625 67.140625 85.734375 C 67.25 85.703125 70.421875 87.84375 70.484375 88 C 70.515625 88.078125 70.25 88.421875 69.46875 89.265625 L 68.984375 89.796875 L 68.609375 89.796875 C 68.390625 89.796875 68.109375 89.765625 67.953125 89.71875 Z M 67.953125 89.71875 " transform="matrix(0.25,0,0,0.25,0,0)"/>
<path style="fill-rule:nonzero;fill:rgb(60.000002%,60.000002%,60.000002%);fill-opacity:1;stroke-width:0.0517218;stroke-linecap:butt;stroke-linejoin:miter;stroke:rgb(60.000002%,60.000002%,60.000002%);stroke-opacity:1;stroke-miterlimit:4;" d="M 69.921875 86.671875 C 68.53125 85.71875 67.578125 85.03125 67.5 84.953125 C 67.453125 84.890625 67.53125 84.671875 67.765625 84.109375 C 67.953125 83.703125 68.171875 83.203125 68.265625 83.015625 C 68.421875 82.703125 68.4375 82.6875 68.578125 82.734375 C 68.890625 82.859375 70.71875 83.703125 71.890625 84.265625 L 73.140625 84.875 L 72.8125 85.28125 C 72.328125 85.890625 71.34375 87.046875 71.140625 87.234375 L 70.984375 87.390625 Z M 69.921875 86.671875 " transform="matrix(0.25,0,0,0.25,0,0)"/>
<path style="fill-rule:nonzero;fill:rgb(60.000002%,60.000002%,60.000002%);fill-opacity:1;stroke-width:0.0517218;stroke-linecap:butt;stroke-linejoin:miter;stroke:rgb(60.000002%,60.000002%,60.000002%);stroke-opacity:1;stroke-miterlimit:4;" d="M 72.1875 83.78125 C 69.9375 82.71875 68.71875 82.109375 68.71875 82.078125 C 68.71875 81.984375 69.59375 80.171875 69.953125 79.484375 C 70.171875 79.109375 70.375 78.734375 70.421875 78.640625 C 70.515625 78.4375 70.359375 78.34375 72.078125 79.59375 C 73.96875 80.984375 75.328125 82.015625 75.328125 82.0625 C 75.328125 82.125 74.015625 83.859375 73.71875 84.171875 L 73.515625 84.40625 Z M 72.1875 83.78125 " transform="matrix(0.25,0,0,0.25,0,0)"/>
<path style="fill-rule:nonzero;fill:rgb(60.000002%,60.000002%,60.000002%);fill-opacity:1;stroke-width:0.105788;stroke-linecap:butt;stroke-linejoin:miter;stroke:rgb(60.000002%,60.000002%,60.000002%);stroke-opacity:1;stroke-miterlimit:4;" d="M 74.28125 80.515625 C 72.328125 79.09375 70.84375 77.96875 70.84375 77.90625 C 70.84375 77.734375 71.515625 76.578125 71.609375 76.578125 C 71.765625 76.59375 76.9375 79.734375 76.9375 79.8125 C 76.9375 79.859375 75.921875 81.28125 75.796875 81.421875 C 75.6875 81.53125 75.625 81.484375 74.28125 80.515625 Z M 74.28125 80.515625 " transform="matrix(0.25,0,0,0.25,0,0)"/>
</g>
</svg>
