
<svg xmlns="http://www.w3.org/2000/svg" xmlns:xlink="http://www.w3.org/1999/xlink" width="32px" height="32px" viewBox="0 0 32 32" version="1.1">
<g id="surface1">
<path style=" stroke:none;fill-rule:evenodd;fill:rgb(20.392157%,28.627452%,36.862746%);fill-opacity:1;" d="M 5.230469 1.628906 L 26.769531 1.628906 C 28.683594 1.628906 30.238281 3.179688 30.238281 5.097656 L 30.238281 27.175781 C 30.238281 29.089844 28.683594 30.644531 26.769531 30.644531 L 5.230469 30.644531 C 3.316406 30.644531 1.761719 29.089844 1.761719 27.175781 L 1.761719 5.097656 C 1.761719 3.179688 3.316406 1.628906 5.230469 1.628906 Z M 5.230469 1.628906 "/>
<path style=" stroke:none;fill-rule:evenodd;fill:rgb(60.784316%,34.901962%,71.372551%);fill-opacity:1;" d="M 8.382812 12.746094 L 23.570312 12.746094 C 25.367188 12.746094 26.824219 14.199219 26.824219 16 C 26.824219 17.796875 25.367188 19.253906 23.570312 19.253906 L 8.382812 19.253906 C 6.585938 19.253906 5.128906 17.796875 5.128906 16 C 5.128906 14.199219 6.585938 12.746094 8.382812 12.746094 Z M 8.382812 12.746094 "/>
<path style=" stroke:none;fill-rule:nonzero;fill:rgb(100%,100%,100%);fill-opacity:1;" d="M 27.582031 16.0625 C 27.582031 18.308594 25.792969 20.128906 23.582031 20.128906 C 21.371094 20.128906 19.578125 18.308594 19.578125 16.0625 C 19.578125 13.816406 21.371094 11.996094 23.582031 11.996094 C 25.792969 11.996094 27.582031 13.816406 27.582031 16.0625 Z M 27.582031 16.0625 "/>
</g>
</svg>
