
<svg xmlns="http://www.w3.org/2000/svg" xmlns:xlink="http://www.w3.org/1999/xlink" width="32px" height="32px" viewBox="0 0 32 32" version="1.1">
<g id="surface1">
<path style=" stroke:none;fill-rule:nonzero;fill:rgb(86.274511%,60.392159%,0.392157%);fill-opacity:1;" d="M 11.488281 29.722656 L 10.300781 29.722656 L 10.214844 29.667969 C 10.097656 29.589844 9.910156 29.558594 9.617188 29.566406 C 9.359375 29.570312 9.171875 29.609375 9.066406 29.683594 L 9.003906 29.722656 L 8.519531 29.71875 C 7.878906 29.710938 7.984375 29.457031 7.617188 29.355469 C 7.316406 29.273438 7.339844 29.207031 7.261719 29.105469 C 7.226562 29.058594 6.722656 28.699219 6.734375 26.96875 L 6.746094 24.660156 L 6.863281 24.589844 C 7.019531 24.496094 7.421875 24.382812 7.746094 24.339844 C 7.957031 24.316406 8.074219 24.308594 8.496094 24.300781 L 8.996094 24.296875 L 9.109375 24.359375 C 9.375 24.496094 9.996094 24.496094 10.214844 24.355469 L 10.300781 24.300781 L 22.742188 24.300781 L 22.828125 24.355469 C 23.035156 24.476562 23.582031 24.496094 23.878906 24.390625 C 23.925781 24.371094 23.964844 24.347656 23.964844 24.335938 C 23.964844 24.324219 24 24.308594 24.039062 24.304688 C 24.136719 24.292969 24.59375 24.324219 24.800781 24.351562 C 25.082031 24.394531 25.488281 24.519531 25.605469 24.601562 L 25.707031 24.675781 L 25.707031 27.015625 L 25.582031 29.238281 L 25.386719 29.402344 C 25.253906 29.519531 25.035156 29.636719 24.722656 29.679688 C 24.589844 29.695312 24.378906 29.714844 24.246094 29.714844 C 24.042969 29.722656 24.007812 29.722656 23.988281 29.699219 C 23.890625 29.613281 23.671875 29.5625 23.375 29.5625 C 23.117188 29.5625 22.925781 29.597656 22.808594 29.667969 L 22.71875 29.722656 L 21.246094 29.734375 C 21.246094 29.734375 12.683594 29.726562 11.488281 29.722656 Z M 11.488281 29.722656 "/>
<path style=" stroke:none;fill-rule:nonzero;fill:rgb(0%,59.607846%,45.882353%);fill-opacity:1;" d="M 3.914062 29.613281 C 3.191406 29.378906 2.558594 28.722656 2.34375 27.980469 C 2.253906 27.667969 2.246094 26.492188 2.261719 15.824219 L 2.277344 4.015625 L 2.457031 3.648438 C 2.683594 3.179688 3.195312 2.667969 3.660156 2.449219 C 3.980469 2.292969 4.117188 2.269531 4.746094 2.246094 L 5.464844 2.222656 L 5.621094 2.519531 C 5.828125 2.914062 6.097656 3.0625 6.550781 3.027344 C 6.851562 3.003906 6.917969 2.972656 7.128906 2.746094 C 7.261719 2.605469 7.371094 2.429688 7.371094 2.359375 L 7.371094 2.234375 L 25.425781 2.234375 L 25.464844 2.375 C 25.519531 2.550781 25.789062 2.84375 26.007812 2.957031 C 26.226562 3.070312 26.578125 3.070312 26.800781 2.953125 C 27.03125 2.835938 27.308594 2.507812 27.308594 2.355469 C 27.308594 2.199219 27.527344 2.195312 28 2.332031 C 28.773438 2.558594 29.445312 3.238281 29.644531 3.996094 C 29.742188 4.359375 29.75 5.320312 29.730469 16.171875 L 29.714844 27.953125 L 29.535156 28.316406 C 29.175781 29.050781 28.375 29.640625 27.644531 29.714844 C 27.355469 29.746094 27.308594 29.734375 27.308594 29.644531 C 27.308594 29.4375 27.113281 29.167969 26.871094 29.046875 C 26.339844 28.773438 25.765625 28.953125 25.527344 29.46875 L 25.402344 29.734375 L 21.308594 29.734375 L 21.308594 27.980469 C 21.308594 26.359375 21.296875 26.210938 21.183594 25.988281 C 20.964844 25.550781 20.785156 25.476562 20.042969 25.496094 L 19.402344 25.515625 L 19.386719 27.625 L 19.367188 29.734375 L 18.683594 29.734375 L 18.683594 27.949219 C 18.683594 25.992188 18.675781 25.960938 18.300781 25.644531 C 18.113281 25.488281 18.078125 25.480469 17.472656 25.496094 L 16.839844 25.515625 L 16.824219 27.625 L 16.804688 29.734375 L 15.183594 29.734375 L 15.152344 25.515625 L 14.519531 25.496094 C 13.910156 25.480469 13.875 25.488281 13.6875 25.644531 C 13.3125 25.960938 13.308594 25.992188 13.308594 27.949219 L 13.308594 29.734375 L 12.621094 29.734375 L 12.589844 25.515625 L 11.945312 25.496094 C 11.367188 25.480469 11.28125 25.492188 11.109375 25.613281 C 10.714844 25.894531 10.683594 26.066406 10.683594 28 L 10.683594 29.734375 L 7.378906 29.734375 L 7.339844 29.546875 C 7.292969 29.339844 6.945312 29.003906 6.707031 28.945312 C 6.265625 28.832031 5.761719 29.078125 5.574219 29.496094 L 5.472656 29.734375 L 4.871094 29.730469 C 4.472656 29.726562 4.15625 29.6875 3.914062 29.613281 Z M 3.914062 29.613281 "/>
<path style="fill:none;stroke-width:14.999999;stroke-linecap:butt;stroke-linejoin:miter;stroke:rgb(80.000001%,80.000001%,80.000001%);stroke-opacity:1;stroke-miterlimit:4;" d="M 149.3125 365.1875 C 89.4375 305.3125 89.4375 208.1875 149.3125 148.25 C 209.25 88.375 306.3125 88.375 366.25 148.25 C 426.125 208.1875 426.125 305.3125 366.25 365.1875 " transform="matrix(0.0625,0,0,0.0625,0,0)"/>
<path style="fill:none;stroke-width:15;stroke-linecap:butt;stroke-linejoin:miter;stroke:rgb(80.000001%,80.000001%,80.000001%);stroke-opacity:1;stroke-miterlimit:4;" d="M 195.0625 319.375 C 160.5 284.8125 160.5 228.6875 195.0625 194.0625 C 229.6875 159.4375 285.8125 159.4375 320.4375 194.0625 C 355.0625 228.6875 355.0625 284.8125 320.4375 319.375 " transform="matrix(0.0625,0,0,0.0625,0,0)"/>
<path style=" stroke:none;fill-rule:nonzero;fill:rgb(80.000001%,80.000001%,80.000001%);fill-opacity:1;" d="M 18.75 16.042969 C 18.75 17.5 17.566406 18.683594 16.113281 18.683594 C 14.652344 18.683594 13.472656 17.5 13.472656 16.042969 C 13.472656 14.585938 14.652344 13.40625 16.113281 13.40625 C 17.566406 13.40625 18.75 14.585938 18.75 16.042969 Z M 18.75 16.042969 "/>
<path style=" stroke:none;fill-rule:nonzero;fill:rgb(80.000001%,80.000001%,80.000001%);fill-opacity:1;" d="M 14.703125 20.398438 L 14.703125 24.488281 C 14.703125 26.246094 14.703125 26.597656 16.113281 26.597656 C 17.519531 26.597656 17.519531 26.246094 17.519531 24.488281 L 17.519531 20.398438 C 17.074219 20.539062 16.601562 20.617188 16.113281 20.617188 C 15.621094 20.617188 15.144531 20.539062 14.703125 20.398438 Z M 14.703125 20.398438 "/>
</g>
</svg>
