
<svg xmlns="http://www.w3.org/2000/svg" xmlns:xlink="http://www.w3.org/1999/xlink" width="32px" height="32px" viewBox="0 0 32 32" version="1.1">
<g id="surface1">
<path style=" stroke:none;fill-rule:evenodd;fill:rgb(40.000001%,69.803923%,27.058825%);fill-opacity:1;" d="M 5.675781 0.882812 L 26.558594 0.882812 C 29.265625 0.882812 31.464844 3.082031 31.464844 5.789062 L 31.464844 26.46875 C 31.464844 29.175781 29.265625 31.371094 26.558594 31.371094 L 5.675781 31.371094 C 2.96875 31.371094 0.773438 29.175781 0.773438 26.46875 L 0.773438 5.789062 C 0.773438 3.082031 2.96875 0.882812 5.675781 0.882812 Z M 5.675781 0.882812 "/>
<path style=" stroke:none;fill-rule:evenodd;fill:rgb(0%,54.901963%,75.686276%);fill-opacity:1;" d="M 6.597656 2.226562 L 25.636719 2.226562 C 28.109375 2.226562 30.113281 4.230469 30.113281 6.699219 L 30.113281 25.558594 C 30.113281 28.027344 28.109375 30.03125 25.636719 30.03125 L 6.597656 30.03125 C 4.125 30.03125 2.121094 28.027344 2.121094 25.558594 L 2.121094 6.699219 C 2.121094 4.230469 4.125 2.226562 6.597656 2.226562 Z M 6.597656 2.226562 "/>
<path style=" stroke:none;fill-rule:nonzero;fill:rgb(100%,100%,100%);fill-opacity:1;" d="M 9.894531 11.84375 C 9.894531 12.316406 9.503906 12.707031 9.03125 12.707031 C 8.554688 12.707031 8.167969 12.316406 8.167969 11.84375 C 8.167969 11.367188 8.554688 10.980469 9.03125 10.980469 C 9.511719 10.980469 9.894531 11.367188 9.894531 11.84375 "/>
<path style=" stroke:none;fill-rule:nonzero;fill:rgb(100%,100%,100%);fill-opacity:1;" d="M 10.039062 14.210938 C 10.039062 14.683594 9.652344 15.074219 9.175781 15.074219 C 8.699219 15.074219 8.316406 14.683594 8.316406 14.210938 C 8.316406 13.734375 8.699219 13.347656 9.175781 13.347656 C 9.652344 13.347656 10.039062 13.730469 10.039062 14.210938 "/>
<path style=" stroke:none;fill-rule:nonzero;fill:rgb(100%,100%,100%);fill-opacity:1;" d="M 10.566406 16.71875 C 10.566406 17.191406 10.179688 17.582031 9.707031 17.582031 C 9.230469 17.582031 8.84375 17.191406 8.84375 16.71875 C 8.84375 16.242188 9.230469 15.855469 9.707031 15.855469 C 10.179688 15.851562 10.566406 16.238281 10.566406 16.71875 "/>
<path style=" stroke:none;fill-rule:nonzero;fill:rgb(100%,100%,100%);fill-opacity:1;" d="M 11.746094 18.964844 C 11.746094 19.441406 11.359375 19.824219 10.886719 19.824219 C 10.410156 19.824219 10.023438 19.441406 10.023438 18.964844 C 10.023438 18.488281 10.410156 18.101562 10.886719 18.101562 C 11.359375 18.097656 11.746094 18.484375 11.746094 18.964844 "/>
<path style=" stroke:none;fill-rule:nonzero;fill:rgb(100%,100%,100%);fill-opacity:1;" d="M 20.980469 22.105469 C 20.980469 22.578125 20.589844 22.964844 20.117188 22.964844 C 19.640625 22.964844 19.253906 22.578125 19.253906 22.105469 C 19.253906 21.628906 19.640625 21.242188 20.117188 21.242188 C 20.589844 21.242188 20.980469 21.628906 20.980469 22.105469 "/>
<path style=" stroke:none;fill-rule:nonzero;fill:rgb(100%,100%,100%);fill-opacity:1;" d="M 22.546875 20.25 C 22.546875 20.722656 22.160156 21.113281 21.683594 21.113281 C 21.207031 21.113281 20.824219 20.722656 20.824219 20.25 C 20.824219 19.773438 21.207031 19.386719 21.683594 19.386719 C 22.160156 19.386719 22.546875 19.773438 22.546875 20.25 "/>
<path style=" stroke:none;fill-rule:nonzero;fill:rgb(100%,100%,100%);fill-opacity:1;" d="M 18 7.136719 C 18 7.613281 17.613281 7.996094 17.136719 7.996094 C 16.664062 7.996094 16.277344 7.613281 16.277344 7.136719 C 16.277344 6.660156 16.664062 6.273438 17.136719 6.273438 C 17.613281 6.273438 18 6.660156 18 7.136719 "/>
<path style=" stroke:none;fill-rule:nonzero;fill:rgb(100%,100%,100%);fill-opacity:1;" d="M 15.734375 6.339844 C 15.734375 6.816406 15.347656 7.203125 14.871094 7.203125 C 14.394531 7.203125 14.011719 6.816406 14.011719 6.339844 C 14.011719 5.867188 14.394531 5.480469 14.871094 5.480469 C 15.347656 5.480469 15.734375 5.867188 15.734375 6.339844 "/>
<path style=" stroke:none;fill-rule:nonzero;fill:rgb(40.000001%,69.803923%,27.058825%);fill-opacity:1;" d="M 21.847656 7.0625 C 25.019531 7.0625 27.59375 9.636719 27.59375 12.808594 C 27.59375 15.984375 25.019531 18.558594 21.847656 18.558594 C 18.671875 18.558594 16.097656 15.984375 16.097656 12.808594 C 16.097656 9.636719 18.671875 7.0625 21.847656 7.0625 "/>
<path style=" stroke:none;fill-rule:nonzero;fill:rgb(100%,100%,100%);fill-opacity:1;" d="M 21.847656 18.710938 C 18.589844 18.710938 15.945312 16.0625 15.945312 12.808594 C 15.945312 9.558594 18.589844 6.910156 21.847656 6.910156 C 25.097656 6.910156 27.746094 9.558594 27.746094 12.808594 C 27.746094 16.0625 25.097656 18.710938 21.847656 18.710938 Z M 21.847656 7.214844 C 18.761719 7.214844 16.253906 9.726562 16.253906 12.808594 C 16.253906 15.894531 18.761719 18.402344 21.847656 18.402344 C 24.929688 18.402344 27.4375 15.894531 27.4375 12.808594 C 27.4375 9.726562 24.929688 7.214844 21.847656 7.214844 Z M 21.847656 7.214844 "/>
<path style=" stroke:none;fill-rule:nonzero;fill:rgb(40.000001%,69.803923%,27.058825%);fill-opacity:1;" d="M 13.972656 19.824219 C 16.570312 19.824219 18.675781 21.933594 18.675781 24.527344 C 18.675781 27.125 16.570312 29.230469 13.972656 29.230469 C 11.375 29.230469 9.269531 27.125 9.269531 24.527344 C 9.269531 21.933594 11.375 19.824219 13.972656 19.824219 "/>
<path style=" stroke:none;fill-rule:nonzero;fill:rgb(100%,100%,100%);fill-opacity:1;" d="M 13.972656 29.382812 C 11.292969 29.382812 9.117188 27.207031 9.117188 24.527344 C 9.117188 21.851562 11.292969 19.671875 13.972656 19.671875 C 16.652344 19.671875 18.828125 21.851562 18.828125 24.527344 C 18.828125 27.207031 16.652344 29.382812 13.972656 29.382812 Z M 13.972656 19.980469 C 11.464844 19.980469 9.425781 22.019531 9.425781 24.527344 C 9.425781 27.035156 11.464844 29.074219 13.972656 29.074219 C 16.480469 29.074219 18.519531 27.035156 18.519531 24.527344 C 18.519531 22.019531 16.480469 19.980469 13.972656 19.980469 Z M 13.972656 19.980469 "/>
<path style=" stroke:none;fill-rule:nonzero;fill:rgb(40.000001%,69.803923%,27.058825%);fill-opacity:1;" d="M 10.101562 3.898438 C 11.832031 3.898438 13.238281 5.300781 13.238281 7.03125 C 13.238281 8.761719 11.832031 10.167969 10.101562 10.167969 C 8.371094 10.167969 6.964844 8.761719 6.964844 7.03125 C 6.964844 5.300781 8.371094 3.898438 10.101562 3.898438 "/>
<path style=" stroke:none;fill-rule:nonzero;fill:rgb(100%,100%,100%);fill-opacity:1;" d="M 10.101562 10.320312 C 8.289062 10.320312 6.8125 8.84375 6.8125 7.03125 C 6.8125 5.21875 8.289062 3.742188 10.101562 3.742188 C 11.914062 3.742188 13.390625 5.21875 13.390625 7.03125 C 13.390625 8.84375 11.914062 10.320312 10.101562 10.320312 Z M 10.101562 4.050781 C 8.457031 4.050781 7.121094 5.386719 7.121094 7.03125 C 7.121094 8.675781 8.457031 10.011719 10.101562 10.011719 C 11.746094 10.011719 13.082031 8.675781 13.082031 7.03125 C 13.082031 5.386719 11.746094 4.050781 10.101562 4.050781 Z M 10.101562 4.050781 "/>
</g>
</svg>
