
<svg xmlns="http://www.w3.org/2000/svg" xmlns:xlink="http://www.w3.org/1999/xlink" width="32px" height="32px" viewBox="0 0 32 32" version="1.1">
<g id="surface1">
<path style=" stroke:none;fill-rule:evenodd;fill:rgb(100%,100%,100%);fill-opacity:1;" d="M 5.605469 2.972656 L 26.476562 2.972656 C 27.828125 2.972656 28.925781 4.066406 28.925781 5.417969 L 28.925781 26.558594 C 28.925781 27.910156 27.828125 29.003906 26.476562 29.003906 L 5.605469 29.003906 C 4.253906 29.003906 3.160156 27.910156 3.160156 26.558594 L 3.160156 5.417969 C 3.160156 4.066406 4.253906 2.972656 5.605469 2.972656 Z M 5.605469 2.972656 "/>
<path style=" stroke:none;fill-rule:nonzero;fill:rgb(78.039217%,15.294118%,15.294118%);fill-opacity:1;" d="M 4.113281 30.605469 C 2.847656 30.328125 1.707031 29.175781 1.433594 27.902344 C 1.300781 27.269531 1.300781 4.816406 1.433594 4.183594 C 1.707031 2.890625 2.851562 1.75 4.140625 1.476562 C 4.773438 1.34375 27.230469 1.34375 27.859375 1.476562 C 29.152344 1.75 30.292969 2.890625 30.566406 4.183594 C 30.699219 4.816406 30.699219 27.269531 30.566406 27.902344 C 30.292969 29.191406 29.152344 30.332031 27.859375 30.605469 C 27.25 30.738281 4.707031 30.734375 4.113281 30.605469 Z M 9.871094 25.601562 C 10.722656 25.378906 11.457031 24.800781 11.867188 24.019531 C 12.210938 23.363281 12.617188 23.074219 13.195312 23.074219 C 13.71875 23.074219 13.964844 23.191406 14.40625 23.640625 C 15.097656 24.347656 15.707031 24.738281 16.605469 25.042969 C 17.898438 25.484375 19.40625 25.386719 20.613281 24.785156 C 21.660156 24.261719 22.441406 23.488281 22.933594 22.480469 C 23.316406 21.707031 23.472656 21.121094 23.511719 20.289062 C 23.566406 19.191406 23.347656 18.320312 22.765625 17.355469 C 22.519531 16.953125 22.5 16.886719 22.5 16.480469 C 22.5 16.152344 22.535156 15.972656 22.636719 15.761719 C 22.835938 15.363281 23.300781 14.910156 23.648438 14.785156 C 24.691406 14.410156 24.996094 14.183594 25.328125 13.554688 C 25.476562 13.273438 25.5 13.160156 25.496094 12.699219 C 25.496094 12.257812 25.46875 12.105469 25.332031 11.816406 C 24.96875 11.027344 24.394531 10.632812 23.550781 10.585938 C 23.082031 10.558594 23.003906 10.574219 22.640625 10.746094 C 22.089844 11 21.824219 11.257812 21.566406 11.773438 C 21.351562 12.199219 21.34375 12.238281 21.34375 12.910156 C 21.339844 13.691406 21.265625 13.933594 20.898438 14.355469 C 20.558594 14.746094 20.183594 14.949219 19.816406 14.949219 C 19.335938 14.949219 18.488281 14.839844 18.113281 14.730469 C 17.714844 14.613281 17.308594 14.273438 17.148438 13.917969 C 17.019531 13.636719 16.996094 13.050781 17.09375 12.695312 C 17.128906 12.574219 17.292969 12.3125 17.464844 12.113281 C 18.066406 11.398438 18.363281 10.558594 18.363281 9.574219 C 18.363281 7.714844 17.273438 6.230469 15.480469 5.652344 C 14.808594 5.433594 13.75 5.425781 13.160156 5.628906 C 11.660156 6.152344 10.621094 7.285156 10.3125 8.730469 C 10.078125 9.839844 10.355469 11.050781 11.066406 12.019531 C 11.613281 12.761719 12.625 13.375 13.636719 13.578125 C 14.332031 13.71875 14.378906 13.738281 14.679688 14.074219 C 14.945312 14.367188 15.027344 14.542969 15.097656 14.972656 C 15.195312 15.527344 15.082031 15.828125 14.570312 16.375 C 14.324219 16.636719 14.0625 16.9375 13.988281 17.042969 C 13.683594 17.480469 13.328125 18.300781 13.152344 18.996094 C 12.941406 19.816406 12.800781 20.042969 12.363281 20.300781 C 12.132812 20.4375 11.996094 20.472656 11.660156 20.472656 C 11.273438 20.480469 11.191406 20.453125 10.589844 20.144531 C 10.019531 19.855469 9.878906 19.808594 9.46875 19.78125 C 8.421875 19.707031 7.359375 20.1875 6.78125 20.996094 C 6.472656 21.425781 6.21875 22.191406 6.21875 22.6875 C 6.21875 23.445312 6.566406 24.277344 7.105469 24.816406 C 7.433594 25.144531 8.109375 25.535156 8.507812 25.628906 C 8.886719 25.71875 9.472656 25.707031 9.871094 25.601562 Z M 8.5 24.203125 C 8.183594 24.058594 7.816406 23.675781 7.683594 23.359375 C 7.46875 22.839844 7.597656 22.121094 7.996094 21.652344 C 8.308594 21.28125 8.675781 21.113281 9.183594 21.113281 C 9.558594 21.109375 9.675781 21.132812 9.917969 21.277344 C 10.441406 21.582031 10.753906 22.035156 10.816406 22.582031 C 10.894531 23.25 10.574219 23.847656 9.972656 24.152344 C 9.550781 24.367188 8.898438 24.390625 8.5 24.203125 Z M 17.816406 23.566406 C 16.816406 23.421875 16.03125 22.941406 15.433594 22.101562 C 15.007812 21.503906 14.832031 20.980469 14.796875 20.199219 C 14.769531 19.605469 14.785156 19.492188 14.933594 19.042969 C 15.457031 17.480469 16.871094 16.503906 18.5 16.589844 C 19.65625 16.652344 20.605469 17.222656 21.277344 18.261719 C 21.671875 18.871094 21.75 19.175781 21.75 20.074219 C 21.75 20.992188 21.660156 21.316406 21.238281 21.960938 C 20.46875 23.128906 19.136719 23.753906 17.816406 23.566406 Z M 22.902344 13.492188 C 22.539062 13.25 22.390625 12.96875 22.421875 12.585938 C 22.464844 12.023438 22.875 11.636719 23.417969 11.636719 C 23.796875 11.636719 24.035156 11.753906 24.261719 12.050781 C 24.410156 12.246094 24.433594 12.339844 24.4375 12.679688 C 24.4375 13.078125 24.433594 13.082031 24.144531 13.359375 C 23.867188 13.621094 23.832031 13.636719 23.480469 13.636719 C 23.199219 13.636719 23.0625 13.601562 22.902344 13.492188 Z M 13.5625 11.984375 C 12.902344 11.777344 12.277344 11.230469 11.992188 10.617188 C 11.828125 10.261719 11.8125 10.167969 11.8125 9.511719 C 11.8125 8.851562 11.828125 8.761719 11.988281 8.4375 C 12.21875 7.964844 12.84375 7.382812 13.324219 7.191406 C 13.621094 7.074219 13.808594 7.042969 14.34375 7.042969 C 14.9375 7.042969 15.035156 7.058594 15.355469 7.214844 C 15.84375 7.457031 16.472656 8.132812 16.65625 8.613281 C 17.191406 10.019531 16.46875 11.507812 15.042969 11.949219 C 14.589844 12.089844 13.941406 12.105469 13.5625 11.984375 Z M 13.5625 11.984375 "/>
</g>
</svg>
