
<svg xmlns="http://www.w3.org/2000/svg" xmlns:xlink="http://www.w3.org/1999/xlink" width="32px" height="32px" viewBox="0 0 32 32" version="1.1">
<g id="surface1">
<path style="fill-rule:nonzero;fill:rgb(96.078432%,31.764707%,14.117648%);fill-opacity:1;stroke-width:27.910587;stroke-linecap:butt;stroke-linejoin:miter;stroke:rgb(89.019608%,54.901963%,45.882353%);stroke-opacity:1;stroke-miterlimit:4;" d="M 83.1875 27.4375 L 428.8125 27.4375 C 459.625 27.4375 484.5625 52.375 484.5625 83.1875 L 484.5625 428.8125 C 484.5625 459.625 459.625 484.5625 428.8125 484.5625 L 83.1875 484.5625 C 52.375 484.5625 27.4375 459.625 27.4375 428.8125 L 27.4375 83.1875 C 27.4375 52.375 52.375 27.4375 83.1875 27.4375 Z M 83.1875 27.4375 " transform="matrix(0.0625,0,0,0.0625,0,0)"/>
<path style=" stroke:none;fill-rule:nonzero;fill:rgb(100%,100%,100%);fill-opacity:1;" d="M 13.453125 19.292969 C 12.625 19.234375 11.953125 19 11.40625 18.578125 C 11.167969 18.390625 10.902344 18.089844 10.746094 17.824219 C 10.707031 17.761719 10.660156 17.703125 10.652344 17.691406 L 10.652344 19.164062 L 8.328125 19.164062 L 8.324219 17.464844 C 8.316406 15.707031 8.3125 15.621094 8.261719 15.410156 C 8.167969 15.023438 7.824219 14.875 7.460938 14.875 C 7.042969 14.863281 6.722656 15.035156 6.539062 15.425781 C 6.460938 15.636719 6.464844 15.519531 6.460938 17.421875 L 6.457031 19.164062 L 4.121094 19.164062 C 4.085938 17.566406 4.15625 15.960938 4.09375 14.363281 C 4.066406 14.101562 4.011719 13.890625 3.902344 13.582031 L 3.839844 13.414062 L 6.113281 13.425781 L 6.171875 13.542969 C 6.207031 13.613281 6.238281 13.707031 6.25 13.765625 C 6.261719 13.824219 6.277344 13.871094 6.28125 13.871094 C 6.285156 13.871094 6.363281 13.820312 6.457031 13.761719 C 6.808594 13.523438 7.160156 13.390625 7.617188 13.324219 C 7.855469 13.289062 8.460938 13.292969 8.707031 13.332031 C 9.273438 13.417969 9.722656 13.613281 10.070312 13.917969 C 10.328125 14.140625 10.511719 14.484375 10.589844 14.886719 L 10.621094 15.035156 L 10.679688 14.917969 C 10.796875 14.699219 10.933594 14.511719 11.121094 14.316406 C 11.679688 13.738281 12.445312 13.398438 13.441406 13.292969 C 13.675781 13.265625 14.28125 13.269531 14.519531 13.296875 C 15.027344 13.355469 15.4375 13.476562 15.816406 13.671875 C 16.113281 13.824219 16.335938 13.988281 16.566406 14.230469 C 16.785156 14.453125 16.980469 14.730469 17.105469 15 L 17.148438 15.089844 L 17.148438 14.824219 C 17.148438 14.257812 17.121094 13.945312 17.035156 13.621094 L 16.980469 13.410156 L 19.277344 13.425781 L 19.308594 13.523438 C 19.355469 13.675781 19.386719 13.863281 19.398438 14.027344 L 19.40625 14.175781 L 19.488281 14.066406 C 19.761719 13.691406 20.097656 13.464844 20.519531 13.355469 C 20.722656 13.304688 20.910156 13.289062 21.1875 13.296875 C 21.417969 13.304688 21.574219 13.324219 21.84375 13.386719 L 21.914062 13.402344 C 21.914062 13.628906 21.914062 13.859375 21.914062 14.085938 C 21.917969 14.085938 21.976562 14.054688 22.027344 14.015625 C 22.902344 13.390625 24.148438 13.136719 25.332031 13.339844 C 25.988281 13.449219 26.601562 13.703125 27.066406 14.054688 C 27.875 14.660156 28.269531 15.578125 28.171875 16.601562 C 28.105469 17.304688 27.777344 17.925781 27.234375 18.394531 C 26.519531 19.003906 25.492188 19.332031 24.375 19.300781 C 23.644531 19.277344 23.027344 19.128906 22.457031 18.832031 C 21.992188 18.589844 21.597656 18.238281 21.296875 17.804688 C 20.777344 17.019531 20.707031 15.960938 21.121094 15.078125 C 21.152344 15.011719 21.175781 14.949219 21.175781 14.949219 C 20.945312 14.871094 20.695312 14.871094 20.457031 14.921875 C 20.3125 14.964844 20.222656 15.011719 20.09375 15.109375 C 19.789062 15.339844 19.613281 15.675781 19.535156 16.164062 C 19.496094 16.417969 19.488281 16.667969 19.488281 17.914062 L 19.488281 19.164062 L 17.15625 19.164062 L 17.15625 17.765625 L 17.089844 17.878906 C 16.984375 18.058594 16.863281 18.210938 16.707031 18.363281 C 16.15625 18.917969 15.367188 19.222656 14.316406 19.292969 C 14.097656 19.304688 13.671875 19.304688 13.453125 19.292969 Z M 15.167969 17.363281 L 17.160156 17.398438 L 17.160156 16.746094 L 12.644531 16.746094 L 12.652344 16.832031 C 12.660156 16.878906 12.675781 16.972656 12.691406 17.035156 C 12.804688 17.472656 13.136719 17.746094 13.664062 17.828125 C 14.261719 17.882812 14.757812 17.855469 15.167969 17.363281 Z M 25.144531 17.699219 C 25.527344 17.460938 25.761719 17.007812 25.808594 16.425781 C 25.839844 16.003906 25.730469 15.554688 25.519531 15.246094 C 25.453125 15.144531 25.308594 14.988281 25.21875 14.933594 C 24.910156 14.714844 24.527344 14.691406 24.167969 14.769531 C 23.609375 14.941406 23.269531 15.464844 23.242188 16.191406 C 23.21875 16.722656 23.367188 17.179688 23.664062 17.484375 C 23.847656 17.675781 24.015625 17.769531 24.273438 17.824219 C 24.570312 17.875 24.875 17.839844 25.144531 17.699219 Z M 14.980469 15.480469 C 15.003906 15.457031 14.925781 15.207031 14.871094 15.09375 C 14.808594 14.980469 14.660156 14.84375 14.511719 14.773438 C 14.085938 14.566406 13.445312 14.605469 13.089844 14.859375 C 12.910156 14.988281 12.765625 15.195312 12.691406 15.441406 L 12.675781 15.496094 L 13.824219 15.492188 C 14.457031 15.488281 14.976562 15.484375 14.980469 15.480469 Z M 14.980469 15.480469 "/>
</g>
</svg>
