
<svg xmlns="http://www.w3.org/2000/svg" xmlns:xlink="http://www.w3.org/1999/xlink" width="32px" height="32px" viewBox="0 0 32 32" version="1.1">
<g id="surface1">
<path style="fill-rule:nonzero;fill:rgb(73.725492%,100%,98.431373%);fill-opacity:1;stroke-width:57.055691;stroke-linecap:butt;stroke-linejoin:miter;stroke:rgb(38.82353%,49.019608%,48.235294%);stroke-opacity:1;stroke-miterlimit:4;" d="M 158.875 44.625 L 865.125 44.625 C 928.25 44.625 979.375 95.75 979.375 158.875 L 979.375 865.125 C 979.375 928.25 928.25 979.375 865.125 979.375 L 158.875 979.375 C 95.75 979.375 44.625 928.25 44.625 865.125 L 44.625 158.875 C 44.625 95.75 95.75 44.625 158.875 44.625 Z M 158.875 44.625 " transform="matrix(0.03125,0,0,0.03125,0,0)"/>
<path style=" stroke:none;fill-rule:nonzero;fill:rgb(38.82353%,49.019608%,48.235294%);fill-opacity:1;" d="M 27.605469 9.871094 C 27.429688 9.652344 27.207031 9.503906 26.933594 9.425781 C 26.925781 9.425781 26.917969 9.421875 26.910156 9.417969 C 26.878906 9.410156 26.839844 9.402344 26.808594 9.394531 L 16.425781 5.808594 C 16.136719 5.714844 15.84375 5.714844 15.554688 5.808594 C 15.542969 5.8125 15.535156 5.816406 15.527344 5.820312 L 5.066406 9.425781 C 4.917969 9.464844 4.785156 9.535156 4.660156 9.621094 L 4.667969 9.617188 C 4.660156 9.621094 4.652344 9.625 4.644531 9.628906 C 4.636719 9.636719 4.628906 9.644531 4.613281 9.652344 L 4.609375 9.660156 C 4.605469 9.660156 4.605469 9.660156 4.605469 9.660156 C 4.605469 9.660156 4.601562 9.664062 4.597656 9.667969 C 4.582031 9.683594 4.558594 9.699219 4.542969 9.714844 C 4.527344 9.722656 4.519531 9.738281 4.507812 9.746094 C 4.496094 9.757812 4.480469 9.769531 4.472656 9.785156 C 4.46875 9.785156 4.46875 9.785156 4.464844 9.785156 C 4.433594 9.824219 4.398438 9.863281 4.371094 9.902344 C 4.355469 9.917969 4.34375 9.933594 4.332031 9.949219 C 4.230469 10.097656 4.160156 10.253906 4.125 10.433594 C 4.121094 10.433594 4.121094 10.4375 4.121094 10.441406 C 4.121094 10.445312 4.121094 10.449219 4.121094 10.457031 C 4.121094 10.457031 4.121094 10.460938 4.121094 10.464844 L 4.117188 10.464844 L 4.113281 10.503906 C 4.113281 10.503906 4.113281 10.507812 4.113281 10.511719 C 4.105469 10.527344 4.105469 10.542969 4.105469 10.554688 C 4.105469 10.574219 4.101562 10.597656 4.097656 10.617188 C 4.097656 10.621094 4.097656 10.628906 4.097656 10.636719 C 4.097656 10.65625 4.097656 10.675781 4.097656 10.691406 L 4.097656 10.71875 C 4.097656 10.738281 4.097656 10.753906 4.097656 10.777344 L 4.097656 21.285156 C 4.097656 21.5625 4.175781 21.816406 4.339844 22.050781 C 4.339844 22.050781 4.34375 22.054688 4.347656 22.058594 C 4.503906 22.277344 4.710938 22.433594 4.964844 22.527344 C 4.976562 22.535156 4.988281 22.542969 5.003906 22.542969 L 15.527344 26.179688 C 15.597656 26.207031 15.675781 26.230469 15.753906 26.246094 C 15.761719 26.246094 15.777344 26.246094 15.785156 26.25 C 15.785156 26.25 15.789062 26.25 15.792969 26.253906 C 15.792969 26.253906 15.800781 26.253906 15.804688 26.253906 C 15.871094 26.261719 15.9375 26.269531 16.003906 26.269531 C 16.003906 26.269531 16.003906 26.269531 16.007812 26.269531 C 16.011719 26.269531 16.019531 26.269531 16.019531 26.269531 C 16.023438 26.269531 16.027344 26.269531 16.027344 26.269531 C 16.03125 26.269531 16.035156 26.269531 16.042969 26.269531 C 16.105469 26.265625 16.167969 26.257812 16.230469 26.246094 C 16.238281 26.246094 16.246094 26.246094 16.25 26.246094 L 16.25 26.242188 L 16.230469 26.246094 C 16.238281 26.246094 16.246094 26.242188 16.253906 26.238281 C 16.269531 26.238281 16.28125 26.238281 16.292969 26.230469 C 16.355469 26.21875 16.421875 26.199219 16.480469 26.175781 L 27.007812 22.542969 L 27.011719 22.542969 C 27.015625 22.542969 27.019531 22.535156 27.027344 22.535156 C 27.027344 22.535156 27.03125 22.535156 27.035156 22.535156 C 27.292969 22.4375 27.5 22.277344 27.660156 22.058594 C 27.660156 22.054688 27.660156 22.050781 27.660156 22.050781 C 27.664062 22.050781 27.664062 22.042969 27.667969 22.042969 C 27.824219 21.816406 27.90625 21.566406 27.910156 21.292969 L 27.910156 10.699219 C 27.90625 10.410156 27.816406 10.144531 27.644531 9.910156 C 27.628906 9.894531 27.621094 9.882812 27.605469 9.871094 Z M 7.179688 10.980469 L 6.800781 10.714844 L 7.179688 10.84375 Z M 24.066406 10.550781 C 24.050781 10.574219 24.035156 10.597656 24.027344 10.625 C 24.019531 10.65625 24.011719 10.683594 24.011719 10.71875 C 24.011719 10.753906 24.019531 10.785156 24.027344 10.816406 C 24.035156 10.839844 24.050781 10.863281 24.066406 10.886719 C 24.097656 10.933594 24.144531 10.964844 24.199219 10.988281 L 24.214844 10.996094 C 24.269531 11.011719 24.332031 11.011719 24.386719 10.996094 L 24.300781 11.023438 L 24.992188 11.261719 C 25.050781 11.285156 25.113281 11.285156 25.171875 11.265625 C 25.230469 11.246094 25.277344 11.214844 25.316406 11.160156 C 25.355469 11.109375 25.375 11.054688 25.375 10.992188 L 25.375 10.542969 C 25.378906 10.550781 25.386719 10.558594 25.394531 10.566406 L 25.394531 10.570312 C 25.425781 10.613281 25.441406 10.664062 25.441406 10.71875 L 25.441406 10.722656 C 25.441406 10.746094 25.441406 10.769531 25.433594 10.792969 C 25.417969 10.863281 25.425781 10.9375 25.457031 11.007812 C 25.496094 11.074219 25.550781 11.121094 25.621094 11.152344 C 25.601562 11.175781 25.585938 11.199219 25.574219 11.222656 C 25.558594 11.261719 25.550781 11.296875 25.550781 11.339844 L 25.550781 11.535156 L 26.128906 11.339844 L 25.675781 11.574219 L 26.058594 11.84375 L 26.128906 11.339844 L 26.128906 11.945312 L 26.316406 11.878906 C 26.34375 11.871094 26.371094 11.855469 26.390625 11.839844 L 26.390625 20.964844 C 26.390625 21.019531 26.371094 21.070312 26.339844 21.113281 C 26.308594 21.160156 26.269531 21.191406 26.222656 21.207031 C 26.222656 21.207031 26.214844 21.207031 26.214844 21.210938 L 17.011719 24.386719 C 17.019531 24.363281 17.023438 24.332031 17.023438 24.304688 L 17.023438 24.105469 L 16.464844 24.300781 L 16.457031 24.300781 L 16.449219 24.304688 L 16.902344 24.070312 L 16.519531 23.800781 L 16.449219 24.300781 L 16.449219 23.699219 L 16.261719 23.761719 C 16.222656 23.777344 16.1875 23.792969 16.160156 23.820312 C 16.152344 23.832031 16.140625 23.839844 16.128906 23.855469 C 16.121094 23.867188 16.113281 23.878906 16.105469 23.894531 C 16.066406 23.957031 16.058594 24.027344 16.074219 24.097656 C 16.082031 24.140625 16.105469 24.183594 16.128906 24.214844 C 16.140625 24.226562 16.152344 24.238281 16.160156 24.246094 C 16.167969 24.253906 16.175781 24.261719 16.1875 24.269531 L 16.566406 24.539062 C 16.570312 24.539062 16.570312 24.539062 16.570312 24.542969 L 16.535156 24.550781 C 16.480469 24.570312 16.421875 24.574219 16.367188 24.558594 C 16.316406 24.539062 16.277344 24.511719 16.246094 24.472656 C 16.207031 24.425781 16.15625 24.386719 16.097656 24.371094 C 16.035156 24.351562 15.972656 24.351562 15.914062 24.371094 C 15.855469 24.386719 15.800781 24.421875 15.761719 24.472656 C 15.730469 24.511719 15.683594 24.542969 15.632812 24.558594 L 15.636719 24.554688 L 15.636719 24.558594 C 15.582031 24.574219 15.527344 24.574219 15.472656 24.550781 L 15.46875 24.550781 L 15.433594 24.542969 C 15.433594 24.539062 15.433594 24.539062 15.433594 24.539062 L 15.816406 24.269531 C 15.824219 24.261719 15.832031 24.253906 15.84375 24.246094 C 15.855469 24.238281 15.863281 24.226562 15.871094 24.214844 C 15.902344 24.183594 15.917969 24.140625 15.933594 24.097656 C 15.949219 24.027344 15.933594 23.957031 15.902344 23.894531 C 15.894531 23.878906 15.882812 23.867188 15.871094 23.855469 C 15.863281 23.839844 15.855469 23.832031 15.84375 23.820312 C 15.816406 23.792969 15.785156 23.777344 15.746094 23.761719 L 15.558594 23.699219 L 15.558594 24.300781 L 15.484375 23.800781 L 15.101562 24.070312 L 15.558594 24.304688 L 14.980469 24.105469 L 14.980469 24.304688 C 14.980469 24.332031 14.988281 24.363281 14.996094 24.386719 L 14.992188 24.386719 L 5.792969 21.210938 C 5.785156 21.207031 5.785156 21.207031 5.777344 21.207031 C 5.730469 21.1875 5.691406 21.160156 5.660156 21.113281 L 5.664062 21.117188 C 5.628906 21.070312 5.613281 21.019531 5.613281 20.964844 L 5.613281 11.839844 C 5.636719 11.855469 5.660156 11.871094 5.691406 11.878906 L 5.878906 11.945312 L 5.878906 11.75 C 5.878906 11.808594 5.894531 11.859375 5.929688 11.90625 C 5.964844 11.957031 6.011719 11.988281 6.070312 12.011719 L 6.082031 12.015625 C 6.109375 12.023438 6.136719 12.027344 6.164062 12.027344 C 6.191406 12.027344 6.222656 12.023438 6.25 12.015625 C 6.308594 11.996094 6.355469 11.960938 6.394531 11.910156 C 6.414062 11.886719 6.425781 11.863281 6.433594 11.832031 C 6.445312 11.808594 6.449219 11.777344 6.449219 11.746094 L 6.449219 11.738281 C 6.449219 11.675781 6.433594 11.621094 6.398438 11.574219 C 6.363281 11.527344 6.320312 11.492188 6.269531 11.472656 L 6.449219 11.535156 L 6.449219 11.339844 C 6.449219 11.296875 6.441406 11.261719 6.425781 11.222656 C 6.417969 11.199219 6.402344 11.167969 6.378906 11.144531 C 6.378906 11.144531 6.375 11.144531 6.371094 11.140625 C 6.441406 11.113281 6.488281 11.0625 6.523438 10.996094 C 6.558594 10.925781 6.566406 10.851562 6.542969 10.777344 C 6.542969 10.753906 6.535156 10.730469 6.535156 10.710938 C 6.535156 10.65625 6.550781 10.605469 6.585938 10.5625 L 6.589844 10.558594 C 6.589844 10.550781 6.597656 10.542969 6.605469 10.535156 L 6.605469 10.980469 C 6.605469 11.042969 6.621094 11.105469 6.660156 11.152344 C 6.699219 11.207031 6.746094 11.238281 6.808594 11.257812 C 6.867188 11.277344 6.925781 11.277344 6.988281 11.253906 L 7.683594 11.019531 L 7.179688 10.84375 L 7.179688 10.582031 L 7.683594 10.410156 L 7.277344 10.269531 L 15.902344 7.292969 C 15.90625 7.292969 15.910156 7.292969 15.910156 7.292969 C 15.964844 7.277344 16.019531 7.277344 16.074219 7.292969 L 24.703125 10.277344 L 24.300781 10.417969 L 24.378906 10.441406 C 24.324219 10.425781 24.265625 10.425781 24.207031 10.449219 L 24.195312 10.449219 C 24.144531 10.472656 24.097656 10.503906 24.066406 10.550781 Z M 26.261719 20.519531 C 26.230469 20.472656 26.183594 20.441406 26.128906 20.421875 L 26.128906 20.964844 L 25.613281 21.140625 C 25.652344 21.1875 25.699219 21.21875 25.753906 21.238281 C 25.808594 21.253906 25.871094 21.253906 25.933594 21.238281 C 25.988281 21.214844 26.039062 21.179688 26.074219 21.128906 L 26.269531 20.855469 C 26.304688 20.808594 26.324219 20.75 26.324219 20.691406 C 26.320312 20.625 26.300781 20.566406 26.261719 20.519531 Z M 25.800781 20.527344 L 25.605469 20.796875 L 26.128906 20.964844 Z M 25.605469 20.589844 C 25.636719 20.542969 25.683594 20.511719 25.738281 20.488281 L 25.550781 20.550781 L 25.550781 20.75 C 25.554688 20.691406 25.574219 20.636719 25.605469 20.589844 Z M 15.707031 7.597656 C 15.683594 7.613281 15.667969 7.636719 15.652344 7.660156 L 15.886719 7.582031 C 15.832031 7.601562 15.785156 7.636719 15.753906 7.683594 C 15.71875 7.730469 15.699219 7.785156 15.699219 7.847656 C 15.699219 7.878906 15.707031 7.910156 15.714844 7.941406 C 15.722656 7.964844 15.738281 7.988281 15.753906 8.011719 C 15.785156 8.0625 15.832031 8.097656 15.886719 8.117188 L 15.988281 8.152344 L 16.089844 8.117188 C 16.144531 8.097656 16.1875 8.0625 16.222656 8.015625 C 16.238281 7.988281 16.25 7.964844 16.261719 7.941406 C 16.269531 7.910156 16.277344 7.878906 16.277344 7.847656 C 16.277344 7.785156 16.261719 7.730469 16.222656 7.683594 C 16.1875 7.632812 16.144531 7.597656 16.089844 7.578125 L 16.324219 7.660156 C 16.308594 7.636719 16.292969 7.613281 16.269531 7.597656 C 16.214844 7.550781 16.152344 7.527344 16.082031 7.527344 L 15.894531 7.527344 C 15.824219 7.527344 15.761719 7.550781 15.707031 7.597656 Z M 5.878906 20.421875 C 5.820312 20.441406 5.777344 20.472656 5.742188 20.519531 C 5.703125 20.566406 5.683594 20.625 5.683594 20.691406 C 5.683594 20.75 5.699219 20.808594 5.738281 20.855469 L 5.929688 21.128906 C 5.964844 21.179688 6.011719 21.214844 6.074219 21.238281 C 6.132812 21.253906 6.191406 21.253906 6.253906 21.238281 C 6.308594 21.21875 6.355469 21.1875 6.390625 21.140625 L 5.878906 20.964844 L 6.398438 20.796875 L 6.207031 20.527344 L 5.878906 20.964844 Z M 6.398438 20.589844 C 6.433594 20.636719 6.449219 20.691406 6.449219 20.75 L 6.449219 20.550781 L 6.265625 20.488281 L 6.269531 20.488281 C 6.324219 20.511719 6.363281 20.542969 6.398438 20.589844 Z M 15.714844 13.582031 C 15.714844 13.644531 15.730469 13.699219 15.769531 13.746094 C 15.800781 13.800781 15.847656 13.832031 15.902344 13.855469 L 15.667969 13.769531 C 15.683594 13.792969 15.699219 13.816406 15.722656 13.835938 C 15.777344 13.878906 15.839844 13.902344 15.910156 13.902344 L 16.097656 13.902344 C 16.167969 13.902344 16.226562 13.878906 16.277344 13.835938 C 16.300781 13.816406 16.320312 13.792969 16.335938 13.769531 L 16.101562 13.855469 C 16.15625 13.832031 16.199219 13.800781 16.238281 13.746094 C 16.269531 13.699219 16.289062 13.644531 16.289062 13.582031 C 16.289062 13.550781 16.285156 13.519531 16.273438 13.488281 C 16.261719 13.464844 16.253906 13.441406 16.238281 13.417969 C 16.199219 13.367188 16.152344 13.332031 16.097656 13.3125 L 16.085938 13.308594 L 16.082031 13.308594 L 16.003906 13.277344 L 15.917969 13.308594 L 15.910156 13.3125 C 15.847656 13.332031 15.804688 13.367188 15.769531 13.417969 C 15.753906 13.441406 15.738281 13.464844 15.730469 13.488281 C 15.722656 13.519531 15.714844 13.550781 15.714844 13.582031 Z M 16.027344 14.347656 L 16.027344 14.34375 C 16.019531 14.332031 16.011719 14.324219 16.003906 14.316406 C 15.996094 14.324219 15.988281 14.339844 15.980469 14.347656 C 15.957031 14.378906 15.933594 14.417969 15.917969 14.457031 C 15.972656 14.464844 16.03125 14.464844 16.089844 14.457031 C 16.074219 14.417969 16.050781 14.378906 16.027344 14.347656 Z M 15.554688 14.675781 L 15.558594 14.675781 L 15.035156 14.84375 L 15.230469 15.113281 L 15.558594 14.679688 L 15.558594 15.222656 C 15.613281 15.199219 15.65625 15.167969 15.691406 15.121094 C 15.730469 15.074219 15.746094 15.011719 15.75 14.949219 C 15.753906 14.890625 15.730469 14.832031 15.699219 14.785156 L 15.503906 14.511719 C 15.464844 14.460938 15.417969 14.425781 15.359375 14.402344 C 15.300781 14.386719 15.238281 14.386719 15.183594 14.402344 C 15.125 14.421875 15.078125 14.453125 15.042969 14.5 Z M 16.3125 15.121094 C 16.347656 15.167969 16.394531 15.203125 16.449219 15.222656 L 16.449219 14.679688 L 16.777344 15.117188 L 16.972656 14.847656 L 16.449219 14.679688 L 16.964844 14.503906 C 16.925781 14.457031 16.878906 14.425781 16.824219 14.40625 C 16.761719 14.386719 16.707031 14.386719 16.644531 14.40625 C 16.585938 14.425781 16.535156 14.464844 16.503906 14.511719 L 16.308594 14.785156 C 16.273438 14.832031 16.253906 14.894531 16.253906 14.957031 C 16.253906 15.019531 16.277344 15.074219 16.3125 15.121094 Z M 17.023438 15.089844 L 17.023438 14.894531 C 17.019531 14.949219 17.003906 15.003906 16.972656 15.050781 C 16.9375 15.097656 16.894531 15.132812 16.839844 15.152344 Z M 15.167969 15.152344 C 15.113281 15.128906 15.066406 15.097656 15.035156 15.050781 C 15.003906 15.003906 14.980469 14.949219 14.980469 14.894531 L 14.980469 15.089844 Z M 26.339844 11.183594 C 26.371094 11.230469 26.390625 11.277344 26.390625 11.339844 L 26.390625 11.378906 C 26.386719 11.375 26.386719 11.375 26.386719 11.375 L 26.003906 11.105469 L 26.003906 11.101562 L 26.042969 11.089844 C 26.097656 11.070312 26.152344 11.066406 26.207031 11.085938 C 26.261719 11.105469 26.304688 11.136719 26.339844 11.183594 Z M 5.800781 11.085938 C 5.847656 11.070312 5.898438 11.070312 5.949219 11.082031 C 5.953125 11.085938 5.957031 11.089844 5.964844 11.089844 L 5.960938 11.089844 L 5.996094 11.101562 C 5.996094 11.105469 5.996094 11.105469 5.996094 11.105469 L 5.617188 11.375 C 5.613281 11.378906 5.613281 11.378906 5.613281 11.378906 L 5.613281 11.339844 C 5.613281 11.277344 5.628906 11.230469 5.667969 11.183594 L 5.664062 11.183594 L 5.667969 11.183594 C 5.699219 11.136719 5.746094 11.105469 5.800781 11.085938 Z M 5.800781 11.085938 "/>
<path style=" stroke:none;fill-rule:nonzero;fill:rgb(100%,100%,100%);fill-opacity:1;" d="M 26.691406 10.277344 C 26.660156 10.269531 26.628906 10.261719 26.597656 10.261719 L 16.132812 6.648438 C 16.035156 6.613281 15.941406 6.613281 15.839844 6.648438 L 5.316406 10.277344 C 5.265625 10.289062 5.214844 10.308594 5.171875 10.34375 L 5.160156 10.351562 C 5.144531 10.363281 5.132812 10.371094 5.121094 10.382812 L 5.113281 10.394531 C 5.09375 10.410156 5.078125 10.429688 5.0625 10.449219 C 5.027344 10.5 5.003906 10.554688 4.992188 10.613281 L 4.984375 10.648438 C 4.984375 10.664062 4.980469 10.679688 4.980469 10.695312 L 4.980469 10.71875 C 4.980469 10.722656 4.980469 10.730469 4.980469 10.738281 L 4.980469 21.28125 C 4.980469 21.375 5.011719 21.460938 5.066406 21.539062 C 5.121094 21.613281 5.191406 21.667969 5.285156 21.703125 L 15.820312 25.339844 C 15.855469 25.355469 15.890625 25.367188 15.929688 25.371094 C 15.953125 25.375 15.980469 25.378906 16.003906 25.378906 C 16.03125 25.378906 16.058594 25.375 16.082031 25.371094 L 16.085938 25.371094 C 16.117188 25.363281 16.148438 25.355469 16.175781 25.339844 L 26.714844 21.703125 C 26.808594 21.667969 26.878906 21.613281 26.933594 21.539062 C 26.988281 21.460938 27.019531 21.375 27.019531 21.28125 L 27.019531 10.707031 C 27.019531 10.609375 26.988281 10.519531 26.925781 10.441406 C 26.867188 10.359375 26.785156 10.304688 26.691406 10.277344 Z M 16 13.886719 L 6.796875 10.710938 L 15.988281 7.542969 L 25.179688 10.71875 Z M 26.125 11.335938 L 26.125 20.960938 L 16.449219 24.304688 L 16.449219 14.675781 Z M 15.554688 14.675781 L 15.554688 24.304688 L 5.875 20.960938 L 5.875 11.335938 Z M 15.554688 14.675781 "/>
<path style=" stroke:none;fill-rule:nonzero;fill:rgb(89.411765%,98.823529%,95.686275%);fill-opacity:1;" d="M 16 13.886719 L 25.179688 10.71875 L 15.988281 7.542969 L 6.796875 10.710938 Z M 16 13.886719 "/>
<path style=" stroke:none;fill-rule:nonzero;fill:rgb(65.098041%,81.960785%,80.784315%);fill-opacity:1;" d="M 26.125 11.335938 L 16.449219 14.675781 L 16.449219 24.304688 L 26.125 20.960938 Z M 26.125 11.335938 "/>
<path style=" stroke:none;fill-rule:nonzero;fill:rgb(56.470591%,76.862746%,75.686276%);fill-opacity:1;" d="M 15.554688 14.675781 L 5.875 11.335938 L 5.875 20.960938 L 15.554688 24.304688 Z M 15.554688 14.675781 "/>
</g>
</svg>
