
<svg xmlns="http://www.w3.org/2000/svg" xmlns:xlink="http://www.w3.org/1999/xlink" width="32px" height="32px" viewBox="0 0 32 32" version="1.1">
<g id="surface1">
<path style="fill-rule:nonzero;fill:rgb(82.352942%,16.862746%,15.294118%);fill-opacity:1;stroke-width:28.097435;stroke-linecap:butt;stroke-linejoin:miter;stroke:rgb(27.843139%,27.450982%,27.450982%);stroke-opacity:1;stroke-miterlimit:4;" d="M 82.0625 25.875 L 429.9375 25.875 C 460.9375 25.875 486.125 51.0625 486.125 82.0625 L 486.125 429.9375 C 486.125 460.9375 460.9375 486.125 429.9375 486.125 L 82.0625 486.125 C 51.0625 486.125 25.875 460.9375 25.875 429.9375 L 25.875 82.0625 C 25.875 51.0625 51.0625 25.875 82.0625 25.875 Z M 82.0625 25.875 " transform="matrix(0.0625,0,0,0.0625,0,0)"/>
<path style=" stroke:none;fill-rule:nonzero;fill:rgb(0%,0%,0%);fill-opacity:1;" d="M 4.214844 13.003906 L 4.214844 19.746094 L 4.292969 19.734375 C 4.292969 19.734375 4.503906 19.707031 4.953125 19.652344 L 5.011719 19.648438 L 5.011719 19.585938 L 4.972656 15.183594 L 5.640625 19.519531 L 5.652344 19.582031 L 5.714844 19.574219 C 5.714844 19.574219 5.976562 19.542969 6.863281 19.457031 L 6.921875 19.449219 L 6.921875 13.003906 L 6.105469 13.003906 L 6.105469 13.074219 L 6.128906 17.722656 L 5.417969 13.0625 L 5.40625 13.003906 L 4.214844 13.003906 M 10.574219 13.003906 L 8.984375 13.003906 L 8.984375 19.28125 L 9.054688 19.277344 C 9.054688 19.277344 9.445312 19.253906 10.574219 19.179688 L 10.636719 19.175781 L 10.636719 18.4375 L 10.566406 18.441406 L 9.785156 18.496094 L 9.785156 16.519531 L 10.636719 16.519531 L 10.636719 15.769531 L 9.78125 15.769531 L 9.78125 13.75 L 10.640625 13.75 L 10.640625 13.003906 L 10.574219 13.003906 M 17.855469 13.003906 L 16.332031 13.007812 L 16.265625 13.007812 L 16.265625 18.996094 L 17.066406 18.996094 L 17.066406 16.519531 L 17.917969 16.519531 L 17.917969 15.773438 L 17.066406 15.773438 L 17.066406 13.75 L 17.921875 13.75 L 17.921875 13.003906 L 17.855469 13.003906 M 19.878906 13.003906 L 19.878906 19.042969 L 19.945312 19.042969 C 19.945312 19.042969 20.394531 19.058594 21.472656 19.105469 L 21.542969 19.105469 L 21.542969 18.378906 L 21.484375 18.371094 C 21.484375 18.371094 21.285156 18.355469 20.675781 18.335938 L 20.675781 13.003906 L 19.878906 13.003906 M 23.992188 13.003906 L 23.332031 13.007812 L 23.269531 13.007812 L 23.269531 19.203125 L 23.332031 19.207031 C 23.332031 19.207031 23.574219 19.222656 23.988281 19.25 L 24.058594 19.253906 L 24.058594 13.003906 L 23.992188 13.003906 M 26.097656 13.003906 L 26.113281 13.085938 L 26.679688 15.984375 L 26.128906 19.386719 L 26.121094 19.457031 L 26.191406 19.464844 L 26.898438 19.53125 L 26.964844 19.539062 L 26.972656 19.472656 L 27.292969 17.019531 L 27.601562 19.550781 L 27.609375 19.605469 L 27.660156 19.609375 L 28.4375 19.699219 L 28.527344 19.707031 L 28.511719 19.621094 L 27.957031 16.066406 L 28.519531 13.085938 L 28.535156 13.003906 L 27.65625 13.003906 L 27.644531 13.0625 L 27.316406 15.140625 L 26.972656 13.0625 L 26.964844 13.003906 L 26.097656 13.003906 M 12.175781 13.007812 L 12.175781 13.75 L 12.894531 13.75 L 12.894531 19.074219 L 12.96875 19.066406 C 12.96875 19.066406 13.121094 19.050781 13.621094 19.042969 L 13.6875 19.039062 L 13.6875 18.972656 L 13.691406 13.75 L 14.417969 13.75 L 14.417969 13.007812 L 12.175781 13.007812 "/>
<path style=" stroke:none;fill-rule:nonzero;fill:rgb(100%,100%,100%);fill-opacity:1;" d="M 3.839844 12.628906 L 3.839844 19.371094 L 3.917969 19.359375 C 3.917969 19.359375 4.128906 19.332031 4.578125 19.277344 L 4.636719 19.273438 L 4.636719 19.210938 L 4.597656 14.808594 L 5.265625 19.144531 L 5.277344 19.207031 L 5.339844 19.199219 C 5.339844 19.199219 5.601562 19.167969 6.488281 19.082031 L 6.546875 19.074219 L 6.546875 12.628906 L 5.730469 12.628906 L 5.730469 12.699219 L 5.753906 17.347656 L 5.042969 12.6875 L 5.03125 12.628906 L 3.839844 12.628906 M 10.199219 12.628906 L 8.609375 12.628906 L 8.609375 18.90625 L 8.679688 18.902344 C 8.679688 18.902344 9.070312 18.878906 10.199219 18.804688 L 10.261719 18.800781 L 10.261719 18.0625 L 10.191406 18.066406 L 9.410156 18.121094 L 9.410156 16.144531 L 10.261719 16.144531 L 10.261719 15.394531 L 9.40625 15.394531 L 9.40625 13.375 L 10.265625 13.375 L 10.265625 12.628906 L 10.199219 12.628906 M 17.480469 12.628906 L 15.957031 12.632812 L 15.890625 12.632812 L 15.890625 18.621094 L 16.691406 18.621094 L 16.691406 16.144531 L 17.542969 16.144531 L 17.542969 15.398438 L 16.691406 15.398438 L 16.691406 13.375 L 17.546875 13.375 L 17.546875 12.628906 L 17.480469 12.628906 M 19.503906 12.628906 L 19.503906 18.667969 L 19.570312 18.667969 C 19.570312 18.667969 20.019531 18.683594 21.097656 18.730469 L 21.167969 18.730469 L 21.167969 18.003906 L 21.109375 17.996094 C 21.109375 17.996094 20.910156 17.980469 20.300781 17.960938 L 20.300781 12.628906 L 19.503906 12.628906 M 23.617188 12.628906 L 22.957031 12.632812 L 22.894531 12.632812 L 22.894531 18.828125 L 22.957031 18.832031 C 22.957031 18.832031 23.199219 18.847656 23.613281 18.875 L 23.683594 18.878906 L 23.683594 12.628906 L 23.617188 12.628906 M 25.722656 12.628906 L 25.738281 12.710938 L 26.304688 15.609375 L 25.753906 19.011719 L 25.746094 19.082031 L 25.816406 19.089844 L 26.523438 19.15625 L 26.589844 19.164062 L 26.597656 19.097656 L 26.917969 16.644531 L 27.226562 19.175781 L 27.234375 19.230469 L 27.285156 19.234375 L 28.0625 19.324219 L 28.152344 19.332031 L 28.136719 19.246094 L 27.582031 15.691406 L 28.144531 12.710938 L 28.160156 12.628906 L 27.28125 12.628906 L 27.269531 12.6875 L 26.941406 14.765625 L 26.597656 12.6875 L 26.589844 12.628906 L 25.722656 12.628906 M 11.800781 12.632812 L 11.800781 13.375 L 12.519531 13.375 L 12.519531 18.699219 L 12.59375 18.691406 C 12.59375 18.691406 12.746094 18.675781 13.246094 18.667969 L 13.3125 18.664062 L 13.3125 18.597656 L 13.316406 13.375 L 14.042969 13.375 L 14.042969 12.632812 L 11.800781 12.632812 "/>
</g>
</svg>
