
<svg xmlns="http://www.w3.org/2000/svg" xmlns:xlink="http://www.w3.org/1999/xlink" width="32px" height="32px" viewBox="0 0 32 32" version="1.1">
<g id="surface1">
<path style="fill-rule:nonzero;fill:rgb(59.607846%,77.64706%,18.039216%);fill-opacity:1;stroke-width:57.55497;stroke-linecap:butt;stroke-linejoin:miter;stroke:rgb(27.843139%,27.450982%,27.450982%);stroke-opacity:1;stroke-miterlimit:4;" d="M 155.75 40.625 L 868.25 40.625 C 931.875 40.625 983.375 92.125 983.375 155.75 L 983.375 868.25 C 983.375 931.875 931.875 983.375 868.25 983.375 L 155.75 983.375 C 92.125 983.375 40.625 931.875 40.625 868.25 L 40.625 155.75 C 40.625 92.125 92.125 40.625 155.75 40.625 Z M 155.75 40.625 " transform="matrix(0.03125,0,0,0.03125,0,0)"/>
<path style=" stroke:none;fill-rule:nonzero;fill:rgb(20%,20%,20%);fill-opacity:1;" d="M 23.621094 16.628906 C 24.511719 13 28.371094 7.953125 23.792969 6.433594 C 22.378906 5.964844 21.101562 5.746094 19.964844 5.769531 C 19.097656 5.785156 18.40625 5.941406 17.886719 6.230469 C 17.238281 6.527344 16.542969 6.175781 15.839844 6.191406 C 15.140625 6.175781 14.445312 6.527344 13.800781 6.230469 C 12.972656 5.769531 11.042969 5.386719 7.890625 6.433594 C 3.316406 7.953125 7.167969 13 8.066406 16.628906 C 8.753906 19.429688 9.574219 20.300781 11.464844 19.199219 C 13.277344 18.144531 13.332031 19.230469 13.726562 20.800781 C 14.121094 22.371094 15.007812 27.585938 15.007812 27.585938 L 14.9375 27.675781 L 15.007812 27.585938 C 15.007812 27.585938 14.386719 28.128906 15.988281 28.128906 C 17.527344 28.128906 16.894531 27.652344 16.894531 27.652344 L 16.964844 27.722656 L 16.894531 27.652344 C 16.894531 27.652344 17.558594 22.371094 17.957031 20.800781 C 18.347656 19.230469 18.40625 18.144531 20.214844 19.199219 C 22.113281 20.300781 22.933594 19.429688 23.621094 16.628906 Z M 23.621094 16.628906 "/>
<path style=" stroke:none;fill-rule:nonzero;fill:rgb(100%,100%,100%);fill-opacity:1;" d="M 13.722656 18.910156 C 13.621094 18.398438 12.636719 18.496094 12.542969 18.832031 C 12.496094 19.015625 12.558594 19.613281 12.734375 20.628906 C 12.910156 21.660156 13.046875 22.171875 13.144531 22.171875 C 13.359375 22.171875 13.828125 19.425781 13.722656 18.910156 Z M 13.722656 18.910156 "/>
<path style=" stroke:none;fill-rule:nonzero;fill:rgb(100%,100%,100%);fill-opacity:1;" d="M 19.140625 18.832031 C 19.046875 18.496094 18.0625 18.398438 17.957031 18.910156 C 17.855469 19.425781 18.324219 22.171875 18.535156 22.171875 C 18.636719 22.171875 18.777344 21.660156 18.953125 20.628906 C 19.128906 19.613281 19.191406 19.015625 19.140625 18.832031 Z M 19.140625 18.832031 "/>
<path style=" stroke:none;fill-rule:nonzero;fill:rgb(100%,100%,100%);fill-opacity:1;" d="M 13.082031 14.636719 C 13.480469 14.636719 14.175781 14.585938 14.507812 14.566406 L 12.261719 13.664062 C 12.125 13.769531 12.074219 13.917969 12.105469 14.105469 C 12.15625 14.402344 12.488281 14.636719 13.082031 14.636719 Z M 13.082031 14.636719 "/>
<path style=" stroke:none;fill-rule:nonzero;fill:rgb(100%,100%,100%);fill-opacity:1;" d="M 19.90625 14.105469 C 19.941406 13.917969 19.886719 13.769531 19.746094 13.664062 L 17.503906 14.566406 C 17.839844 14.585938 18.535156 14.636719 18.929688 14.636719 C 19.527344 14.636719 19.855469 14.402344 19.90625 14.105469 Z M 19.90625 14.105469 "/>
</g>
</svg>
