
<svg xmlns="http://www.w3.org/2000/svg" xmlns:xlink="http://www.w3.org/1999/xlink" width="32px" height="32px" viewBox="0 0 32 32" version="1.1">
<g id="surface1">
<path style="fill-rule:nonzero;fill:rgb(70.19608%,70.19608%,70.19608%);fill-opacity:1;stroke-width:8.836292;stroke-linecap:butt;stroke-linejoin:miter;stroke:rgb(30.19608%,30.19608%,30.19608%);stroke-opacity:1;stroke-miterlimit:4;" d="M 25.292968 7.636718 L 134.707026 7.636718 C 144.472651 7.636718 152.363275 15.527343 152.363275 25.292968 L 152.363275 134.707026 C 152.363275 144.472651 144.472651 152.363275 134.707026 152.363275 L 25.292968 152.363275 C 15.527343 152.363275 7.636718 144.472651 7.636718 134.707026 L 7.636718 25.292968 C 7.636718 15.527343 15.527343 7.636718 25.292968 7.636718 Z M 25.292968 7.636718 " transform="matrix(0.2,0,0,0.2,0,0)"/>
<path style=" stroke:none;fill-rule:evenodd;fill:rgb(30.19608%,30.19608%,30.19608%);fill-opacity:1;" d="M 16.269531 17.507812 C 17.332031 17.433594 18.144531 16.523438 18.089844 15.457031 C 18.039062 14.394531 17.140625 13.566406 16.074219 13.601562 C 15.007812 13.636719 14.167969 14.519531 14.183594 15.589844 C 14.203125 16.65625 15.074219 17.511719 16.140625 17.511719 "/>
<path style="fill:none;stroke-width:3.131226;stroke-linecap:square;stroke-linejoin:bevel;stroke:rgb(30.19608%,30.19608%,30.19608%);stroke-opacity:1;stroke-miterlimit:4;" d="M 0.00254988 -0.000451376 L 0.00254988 23.272178 " transform="matrix(0.481722,0,0,0.481722,16.143303,15.527561)"/>
<path style="fill:none;stroke-width:3.131226;stroke-linecap:square;stroke-linejoin:miter;stroke:rgb(30.19608%,30.19608%,30.19608%);stroke-opacity:1;stroke-miterlimit:2.012602;" d="M 17.908345 16.13931 C 21.151917 11.955102 20.584292 5.962603 16.594698 2.475763 C 12.605105 -1.019186 6.588279 -0.792136 2.86628 2.994735 C -0.84761 6.773496 -0.969244 12.798431 2.590576 16.723153 " transform="matrix(0.481722,0,0,0.481722,11.322375,10.885496)"/>
<path style="fill:none;stroke-width:3.131226;stroke-linecap:square;stroke-linejoin:miter;stroke:rgb(30.19608%,30.19608%,30.19608%);stroke-opacity:1;stroke-miterlimit:2.012602;" d="M 28.701686 25.87941 C 33.948164 19.124671 32.975092 9.442609 26.487948 3.871774 C 20.000804 -1.699061 10.278197 -1.196307 4.399223 5.007024 C -1.487861 11.218465 -1.463534 20.949181 4.447876 27.128185 " transform="matrix(0.481722,0,0,0.481722,8.376891,8.048944)"/>
<path style="fill:none;stroke-width:3.131226;stroke-linecap:square;stroke-linejoin:miter;stroke:rgb(30.19608%,30.19608%,30.19608%);stroke-opacity:1;stroke-miterlimit:2.012602;" d="M 39.249811 35.392703 C 46.409996 26.172849 45.104459 12.971511 36.273834 5.341008 C 27.451318 -2.289495 14.185108 -1.673216 6.108614 6.743853 C -1.967881 15.160922 -2.04897 28.435241 5.946435 36.941509 " transform="matrix(0.481722,0,0,0.481722,5.537815,5.309931)"/>
</g>
</svg>
