<!-- Generator: Adobe Illustrator 16.0.0, SVG Export Plug-In . SVG Version: 6.00 Build 0)  -->
<svg xmlns="http://www.w3.org/2000/svg" xmlns:xlink="http://www.w3.org/1999/xlink" width="32px" height="32px" viewBox="0 0 32 32" version="1.1">
<g id="surface1">
<path style="fill-rule:nonzero;fill:rgb(0%,41.568628%,72.549021%);fill-opacity:1;stroke-width:28.191782;stroke-linecap:butt;stroke-linejoin:miter;stroke:rgb(38.039216%,64.705884%,84.313726%);stroke-opacity:1;stroke-miterlimit:4;" d="M 81.5 25.0625 L 430.5 25.0625 C 461.6875 25.0625 486.9375 50.3125 486.9375 81.5 L 486.9375 430.5 C 486.9375 461.6875 461.6875 486.9375 430.5 486.9375 L 81.5 486.9375 C 50.3125 486.9375 25.0625 461.6875 25.0625 430.5 L 25.0625 81.5 C 25.0625 50.3125 50.3125 25.0625 81.5 25.0625 Z M 81.5 25.0625 " transform="matrix(0.0625,0,0,0.0625,0,0)"/>
<path style=" stroke:none;fill-rule:evenodd;fill:rgb(100%,100%,100%);fill-opacity:1;" d="M 20.558594 8.546875 C 19.929688 9.140625 18.472656 10.390625 18.472656 10.390625 L 21.886719 13.828125 C 21.886719 13.828125 23.363281 12.308594 24.03125 11.679688 C 24.199219 11.523438 24.175781 11.175781 24.011719 11.019531 C 23.492188 10.527344 22.636719 9.738281 22.636719 9.738281 C 22.636719 9.738281 21.824219 8.96875 21.328125 8.496094 C 21.148438 8.328125 20.742188 8.375 20.558594 8.546875 Z M 16.976562 11.617188 L 7.855469 20.210938 L 7.933594 23.609375 L 11.496094 23.589844 L 20.515625 15.074219 Z M 16.976562 11.617188 "/>
<path style=" stroke:none;fill-rule:nonzero;fill:rgb(100%,100%,100%);fill-opacity:1;" d="M 17.738281 22.558594 L 17.207031 22.558594 L 17.207031 25.613281 L 17.964844 25.613281 L 17.964844 23.292969 C 18.304688 23.152344 18.558594 23.121094 18.695312 23.121094 C 19.183594 23.121094 19.246094 23.515625 19.246094 23.746094 L 19.246094 25.613281 L 20.011719 25.613281 L 20.011719 23.878906 C 20.011719 23.34375 19.957031 22.5 18.898438 22.5 C 18.480469 22.5 18.082031 22.667969 17.839844 22.769531 Z M 17.738281 22.558594 "/>
<path style=" stroke:none;fill-rule:nonzero;fill:rgb(100%,100%,100%);fill-opacity:1;" d="M 22.949219 22.746094 C 22.738281 22.636719 22.402344 22.496094 22.035156 22.496094 C 21.449219 22.496094 20.578125 22.847656 20.578125 24.085938 C 20.578125 25.070312 21.144531 25.679688 22.136719 25.679688 C 22.402344 25.679688 22.59375 25.628906 22.804688 25.519531 L 22.804688 27.257812 L 23.566406 27.257812 L 23.566406 22.558594 L 23.03125 22.558594 Z M 22.246094 23.109375 C 22.410156 23.109375 22.59375 23.136719 22.796875 23.210938 L 22.796875 24.941406 C 22.660156 25.027344 22.488281 25.09375 22.269531 25.09375 C 21.761719 25.09375 21.359375 24.847656 21.359375 24.128906 C 21.359375 23.339844 21.738281 23.109375 22.246094 23.109375 Z M 22.246094 23.109375 "/>
<path style=" stroke:none;fill-rule:nonzero;fill:rgb(100%,100%,100%);fill-opacity:1;" d="M 26.542969 22.746094 C 26.332031 22.636719 25.996094 22.496094 25.628906 22.496094 C 25.039062 22.496094 24.167969 22.847656 24.167969 24.085938 C 24.167969 25.070312 24.734375 25.679688 25.730469 25.679688 C 25.996094 25.679688 26.1875 25.628906 26.394531 25.519531 L 26.394531 27.257812 L 27.160156 27.257812 L 27.160156 22.558594 L 26.625 22.558594 Z M 25.839844 23.109375 C 26.003906 23.109375 26.1875 23.136719 26.390625 23.210938 L 26.390625 24.941406 C 26.25 25.027344 26.082031 25.09375 25.863281 25.09375 C 25.355469 25.09375 24.949219 24.847656 24.949219 24.128906 C 24.949219 23.339844 25.332031 23.109375 25.839844 23.109375 Z M 25.839844 23.109375 "/>
</g>
</svg>
