
<svg xmlns="http://www.w3.org/2000/svg" xmlns:xlink="http://www.w3.org/1999/xlink" width="32px" height="32px" viewBox="0 0 32 32" version="1.1">
<g id="surface1">
<path style="fill-rule:nonzero;fill:rgb(92.54902%,92.54902%,92.54902%);fill-opacity:1;stroke-width:54.403629;stroke-linecap:butt;stroke-linejoin:miter;stroke:rgb(0%,66.666669%,83.137256%);stroke-opacity:1;stroke-miterlimit:4;" d="M 175.25 66.375 L 848.75 66.375 C 908.875 66.375 957.625 115.125 957.625 175.25 L 957.625 848.75 C 957.625 908.875 908.875 957.625 848.75 957.625 L 175.25 957.625 C 115.125 957.625 66.375 908.875 66.375 848.75 L 66.375 175.25 C 66.375 115.125 115.125 66.375 175.25 66.375 Z M 175.25 66.375 " transform="matrix(0.03125,0,0,0.03125,0,0)"/>
<path style=" stroke:none;fill-rule:nonzero;fill:rgb(0%,0%,0%);fill-opacity:0.0980392;" d="M 25.195312 6.824219 C 25.191406 6.515625 25.078125 6.25 24.863281 6.03125 C 24.640625 5.804688 24.371094 5.691406 24.058594 5.691406 L 8.730469 5.691406 C 8.414062 5.691406 8.144531 5.804688 7.925781 6.03125 C 7.710938 6.25 7.597656 6.515625 7.589844 6.824219 L 7.589844 26.378906 C 7.589844 26.699219 7.703125 26.972656 7.925781 27.199219 C 8.144531 27.425781 8.414062 27.539062 8.730469 27.539062 L 24.058594 27.539062 C 24.371094 27.539062 24.640625 27.425781 24.863281 27.199219 C 25.085938 26.972656 25.195312 26.699219 25.195312 26.378906 Z M 25.195312 6.824219 "/>
<path style=" stroke:none;fill-rule:nonzero;fill:rgb(80.000001%,80.000001%,80.000001%);fill-opacity:1;" d="M 25.046875 5.972656 C 24.820312 5.746094 24.546875 5.628906 24.226562 5.628906 L 8.589844 5.628906 C 8.269531 5.628906 7.996094 5.746094 7.769531 5.972656 C 7.550781 6.191406 7.4375 6.453125 7.429688 6.761719 L 7.429688 23.566406 C 7.4375 23.871094 7.550781 24.136719 7.769531 24.355469 C 7.996094 24.582031 8.269531 24.695312 8.589844 24.695312 L 24.226562 24.695312 C 24.546875 24.695312 24.820312 24.582031 25.046875 24.355469 C 25.265625 24.136719 25.378906 23.871094 25.386719 23.566406 L 25.386719 6.761719 C 25.378906 6.453125 25.265625 6.191406 25.046875 5.972656 Z M 25.046875 5.972656 "/>
<path style=" stroke:none;fill-rule:nonzero;fill:rgb(52.549022%,51.372552%,48.627451%);fill-opacity:0.988235;" d="M 7.769531 24.355469 C 7.550781 24.136719 7.4375 23.871094 7.429688 23.566406 L 7.429688 26.320312 C 7.429688 26.636719 7.542969 26.914062 7.769531 27.136719 C 7.996094 27.363281 8.269531 27.480469 8.589844 27.480469 L 24.226562 27.480469 C 24.546875 27.480469 24.820312 27.363281 25.046875 27.136719 C 25.273438 26.914062 25.386719 26.636719 25.386719 26.320312 L 25.386719 23.566406 C 25.378906 23.871094 25.265625 24.136719 25.046875 24.355469 C 24.820312 24.582031 24.546875 24.695312 24.226562 24.695312 L 8.589844 24.695312 C 8.269531 24.695312 7.996094 24.582031 7.769531 24.355469 Z M 7.769531 24.355469 "/>
<path style=" stroke:none;fill-rule:nonzero;fill:rgb(23.137255%,22.745098%,21.176471%);fill-opacity:1;" d="M 16.246094 25.566406 C 16.246094 25.441406 16.199219 25.332031 16.109375 25.238281 C 16.019531 25.148438 15.910156 25.105469 15.78125 25.105469 L 8.777344 25.105469 C 8.648438 25.105469 8.539062 25.148438 8.449219 25.238281 C 8.355469 25.332031 8.3125 25.4375 8.3125 25.566406 L 8.3125 25.757812 C 8.3125 25.886719 8.355469 25.996094 8.449219 26.085938 C 8.539062 26.175781 8.648438 26.222656 8.777344 26.222656 L 15.78125 26.222656 C 15.910156 26.222656 16.019531 26.175781 16.109375 26.085938 C 16.199219 25.996094 16.246094 25.886719 16.246094 25.757812 Z M 16.246094 25.566406 "/>
<path style=" stroke:none;fill-rule:nonzero;fill:rgb(0%,0%,0%);fill-opacity:0.2;" d="M 23.9375 25.433594 C 23.835938 25.332031 23.714844 25.277344 23.566406 25.277344 C 23.425781 25.277344 23.300781 25.332031 23.199219 25.433594 C 23.097656 25.535156 23.050781 25.65625 23.050781 25.800781 C 23.050781 25.945312 23.097656 26.066406 23.199219 26.167969 C 23.300781 26.269531 23.425781 26.320312 23.566406 26.320312 C 23.714844 26.320312 23.835938 26.269531 23.9375 26.167969 C 24.039062 26.066406 24.089844 25.945312 24.089844 25.800781 C 24.089844 25.65625 24.039062 25.535156 23.9375 25.433594 Z M 22.433594 25.800781 C 22.433594 25.65625 22.378906 25.535156 22.277344 25.433594 C 22.179688 25.332031 22.054688 25.277344 21.910156 25.277344 C 21.769531 25.277344 21.644531 25.332031 21.542969 25.433594 C 21.441406 25.535156 21.390625 25.65625 21.390625 25.800781 C 21.390625 25.945312 21.441406 26.066406 21.542969 26.167969 C 21.644531 26.269531 21.769531 26.320312 21.910156 26.320312 C 22.054688 26.320312 22.179688 26.269531 22.277344 26.167969 C 22.378906 26.066406 22.433594 25.945312 22.433594 25.800781 Z M 22.433594 25.800781 "/>
<path style=" stroke:none;fill-rule:nonzero;fill:rgb(100%,100%,100%);fill-opacity:0.0980392;" d="M 20.542969 19.167969 C 21.769531 17.941406 22.382812 16.460938 22.382812 14.730469 C 22.382812 12.996094 21.769531 11.515625 20.542969 10.289062 C 19.316406 9.066406 17.839844 8.449219 16.105469 8.449219 C 14.371094 8.449219 12.894531 9.066406 11.667969 10.289062 C 10.441406 11.515625 9.832031 12.996094 9.832031 14.730469 C 9.832031 16.460938 10.441406 17.941406 11.667969 19.167969 C 12.894531 20.390625 14.371094 21.003906 16.105469 21.003906 C 17.839844 21.003906 19.316406 20.390625 20.542969 19.167969 Z M 20.542969 19.167969 "/>
<path style=" stroke:none;fill-rule:nonzero;fill:rgb(80.000001%,80.000001%,0%);fill-opacity:1;" d="M 23.457031 26.089844 C 23.601562 26.089844 23.726562 26.039062 23.824219 25.9375 C 23.929688 25.835938 23.980469 25.714844 23.980469 25.566406 C 23.980469 25.425781 23.929688 25.300781 23.824219 25.199219 C 23.726562 25.097656 23.601562 25.046875 23.457031 25.046875 C 23.316406 25.046875 23.191406 25.097656 23.089844 25.199219 C 22.988281 25.300781 22.9375 25.425781 22.9375 25.566406 C 22.9375 25.714844 22.988281 25.835938 23.089844 25.9375 C 23.191406 26.039062 23.316406 26.089844 23.457031 26.089844 Z M 22.324219 25.566406 C 22.324219 25.425781 22.269531 25.300781 22.167969 25.199219 C 22.066406 25.097656 21.945312 25.046875 21.800781 25.046875 C 21.660156 25.046875 21.535156 25.097656 21.433594 25.199219 C 21.332031 25.300781 21.28125 25.425781 21.28125 25.566406 C 21.28125 25.714844 21.332031 25.835938 21.433594 25.9375 C 21.535156 26.039062 21.660156 26.089844 21.800781 26.089844 C 21.945312 26.089844 22.066406 26.039062 22.167969 25.9375 C 22.269531 25.835938 22.324219 25.714844 22.324219 25.566406 Z M 22.324219 25.566406 "/>
</g>
</svg>
