
<svg xmlns="http://www.w3.org/2000/svg" xmlns:xlink="http://www.w3.org/1999/xlink" width="32px" height="32px" viewBox="0 0 32 32" version="1.1">
<g id="surface1">
<path style="fill-rule:nonzero;fill:rgb(15.686275%,14.901961%,16.078432%);fill-opacity:1;stroke-width:27.910587;stroke-linecap:butt;stroke-linejoin:miter;stroke:rgb(49.411765%,76.078433%,2.352941%);stroke-opacity:1;stroke-miterlimit:4;" d="M 83.1875 27.4375 L 428.8125 27.4375 C 459.625 27.4375 484.5625 52.375 484.5625 83.1875 L 484.5625 428.8125 C 484.5625 459.625 459.625 484.5625 428.8125 484.5625 L 83.1875 484.5625 C 52.375 484.5625 27.4375 459.625 27.4375 428.8125 L 27.4375 83.1875 C 27.4375 52.375 52.375 27.4375 83.1875 27.4375 Z M 83.1875 27.4375 " transform="matrix(0.0625,0,0,0.0625,0,0)"/>
<path style="fill-rule:nonzero;fill:rgb(49.411765%,76.078433%,2.352941%);fill-opacity:1;stroke-width:27.910587;stroke-linecap:butt;stroke-linejoin:miter;stroke:rgb(49.411765%,76.078433%,2.352941%);stroke-opacity:1;stroke-miterlimit:4;" d="M 83.1875 27.4375 C 52.3125 27.4375 27.4375 52.3125 27.4375 83.1875 L 27.4375 428.8125 C 27.4375 459.6875 52.3125 484.5625 83.1875 484.5625 L 243 484.5625 L 243 27.4375 Z M 83.1875 27.4375 " transform="matrix(0.0625,0,0,0.0625,0,0)"/>
<path style=" stroke:none;fill-rule:evenodd;fill:rgb(100%,100%,100%);fill-opacity:1;" d="M 16.035156 8.316406 L 16.035156 8.496094 C 16.035156 8.4375 16.042969 8.378906 16.046875 8.316406 C 16.042969 8.316406 16.039062 8.316406 16.035156 8.316406 M 16.675781 10.011719 C 16.597656 10.011719 16.519531 10.011719 16.4375 10.015625 C 16.304688 10.019531 16.167969 10.035156 16.035156 10.042969 C 11.503906 10.410156 7.585938 14.246094 7.585938 14.246094 C 7.585938 14.246094 9.804688 20.667969 16.035156 21.253906 C 16.335938 21.285156 16.644531 21.308594 16.964844 21.308594 C 20.25 21.308594 26.050781 19.628906 28.539062 17.542969 C 28.175781 17.175781 26.394531 16.328125 25.960938 15.980469 C 23.34375 18.238281 20.636719 20.148438 16.902344 20.148438 C 16.601562 20.148438 16.3125 20.128906 16.035156 20.09375 C 11.464844 19.519531 9.902344 14.472656 9.902344 14.472656 C 9.902344 14.472656 11.945312 11.453125 16.035156 11.140625 C 16.167969 11.132812 16.300781 11.128906 16.4375 11.125 C 16.496094 11.121094 16.550781 11.121094 16.609375 11.121094 C 20.214844 11.109375 22.574219 14.300781 22.574219 14.300781 C 22.574219 14.300781 19.949219 17.953125 17.136719 17.953125 C 16.730469 17.953125 16.363281 17.878906 16.035156 17.769531 C 14.089844 17.113281 13.457031 14.847656 13.457031 14.847656 C 13.457031 14.847656 14.589844 13.492188 16.035156 13.667969 C 17.480469 13.839844 17.777344 14.480469 18.644531 15.925781 L 20.566406 14.292969 C 20.566406 14.292969 19.164062 12.449219 16.792969 12.449219 C 16.53125 12.449219 16.277344 12.46875 16.035156 12.496094 C 13.28125 12.792969 11.625 14.628906 11.625 14.628906 C 11.625 14.628906 12.582031 18.222656 16.035156 18.839844 C 16.359375 18.898438 16.703125 18.933594 17.074219 18.933594 C 21.089844 18.933594 24.941406 14.246094 24.941406 14.246094 C 24.941406 14.246094 21.691406 9.980469 16.675781 10.011719 "/>
</g>
</svg>
