
<svg xmlns="http://www.w3.org/2000/svg" xmlns:xlink="http://www.w3.org/1999/xlink" width="32px" height="32px" viewBox="0 0 32 32" version="1.1">
<g id="surface1">
<path style="fill-rule:nonzero;fill:rgb(16.078432%,50.196081%,72.549021%);fill-opacity:1;stroke-width:6.633275;stroke-linecap:butt;stroke-linejoin:miter;stroke:rgb(21.568628%,20.784314%,22.745098%);stroke-opacity:1;stroke-miterlimit:4;" d="M 21.015625 934.034098 L 103.140625 934.034098 C 110.46875 934.034098 116.421875 939.971598 116.421875 947.299723 L 116.421875 1029.424723 C 116.421875 1036.752848 110.46875 1042.690348 103.140625 1042.690348 L 21.015625 1042.690348 C 13.703125 1042.690348 7.75 1036.752848 7.75 1029.424723 L 7.75 947.299723 C 7.75 939.971598 13.703125 934.034098 21.015625 934.034098 Z M 21.015625 934.034098 " transform="matrix(0.25,0,0,0.25,0,-231.090556)"/>
<path style=" stroke:none;fill-rule:nonzero;fill:rgb(21.568628%,20.784314%,22.745098%);fill-opacity:1;" d="M 2.449219 3.015625 L 28.382812 3.015625 L 28.382812 7.515625 L 2.449219 7.515625 Z M 2.449219 3.015625 "/>
<path style=" stroke:none;fill-rule:nonzero;fill:rgb(100%,100%,100%);fill-opacity:1;" d="M 20.722656 4.796875 L 22.402344 4.796875 L 22.402344 6.445312 L 20.722656 6.445312 Z M 20.722656 4.796875 "/>
<path style=" stroke:none;fill-rule:nonzero;fill:rgb(100%,100%,100%);fill-opacity:1;" d="M 23.808594 4.796875 L 25.488281 4.796875 L 25.488281 6.445312 L 23.808594 6.445312 Z M 23.808594 4.796875 "/>
<path style=" stroke:none;fill-rule:nonzero;fill:rgb(100%,100%,100%);fill-opacity:1;" d="M 17.636719 4.796875 L 19.316406 4.796875 L 19.316406 6.445312 L 17.636719 6.445312 Z M 17.636719 4.796875 "/>
<path style=" stroke:none;fill-rule:nonzero;fill:rgb(80.000001%,80.000001%,80.000001%);fill-opacity:1;" d="M 20.628906 18 C 20.628906 15.519531 18.570312 13.507812 16.03125 13.507812 C 13.488281 13.507812 11.429688 15.519531 11.429688 18 C 11.429688 20.480469 13.488281 22.488281 16.03125 22.488281 C 18.570312 22.488281 20.628906 20.480469 20.628906 18 Z M 20.628906 18 "/>
<path style=" stroke:none;fill-rule:nonzero;fill:rgb(80.000001%,80.000001%,80.000001%);fill-opacity:1;" d="M 15.042969 24.980469 C 14.917969 24.925781 14.789062 24.785156 14.730469 24.644531 C 14.699219 24.570312 14.667969 24.292969 14.644531 23.847656 C 14.621094 23.472656 14.59375 23.132812 14.582031 23.097656 C 14.5625 23.046875 14.476562 23 14.261719 22.925781 C 14.097656 22.871094 13.855469 22.765625 13.714844 22.699219 C 13.582031 22.628906 13.4375 22.574219 13.402344 22.574219 C 13.363281 22.574219 13.136719 22.753906 12.820312 23.046875 C 12.535156 23.308594 12.257812 23.542969 12.203125 23.574219 C 12.085938 23.628906 11.828125 23.640625 11.691406 23.589844 C 11.585938 23.550781 10.457031 22.441406 10.386719 22.300781 C 10.316406 22.167969 10.324219 21.914062 10.402344 21.761719 C 10.441406 21.691406 10.675781 21.40625 10.933594 21.128906 C 11.207031 20.832031 11.394531 20.601562 11.394531 20.566406 C 11.394531 20.527344 11.339844 20.390625 11.269531 20.253906 C 11.203125 20.117188 11.101562 19.871094 11.042969 19.710938 C 10.988281 19.550781 10.917969 19.40625 10.890625 19.390625 C 10.863281 19.375 10.53125 19.347656 10.152344 19.324219 C 9.714844 19.300781 9.421875 19.269531 9.335938 19.238281 C 9.171875 19.183594 8.988281 18.980469 8.957031 18.839844 C 8.949219 18.78125 8.945312 18.351562 8.949219 17.886719 L 8.957031 17.035156 L 9.058594 16.914062 C 9.230469 16.699219 9.308594 16.675781 10.136719 16.625 C 10.601562 16.597656 10.886719 16.566406 10.910156 16.542969 C 10.925781 16.519531 10.996094 16.363281 11.0625 16.1875 C 11.128906 16.011719 11.230469 15.769531 11.289062 15.652344 C 11.347656 15.535156 11.394531 15.414062 11.394531 15.382812 C 11.394531 15.347656 11.199219 15.109375 10.964844 14.847656 C 10.722656 14.585938 10.496094 14.332031 10.457031 14.277344 C 10.34375 14.125 10.304688 13.941406 10.347656 13.757812 C 10.382812 13.621094 10.445312 13.546875 10.964844 13.019531 C 11.28125 12.699219 11.59375 12.410156 11.660156 12.378906 C 11.808594 12.300781 12.050781 12.296875 12.199219 12.375 C 12.261719 12.40625 12.539062 12.636719 12.8125 12.890625 C 13.089844 13.144531 13.332031 13.363281 13.355469 13.375 C 13.378906 13.386719 13.527344 13.335938 13.707031 13.25 C 13.878906 13.167969 14.136719 13.066406 14.277344 13.015625 C 14.46875 12.949219 14.542969 12.910156 14.570312 12.855469 C 14.589844 12.8125 14.621094 12.46875 14.644531 12.09375 C 14.683594 11.367188 14.710938 11.253906 14.859375 11.097656 C 15.027344 10.925781 15.121094 10.910156 16.050781 10.917969 L 16.894531 10.929688 L 17.027344 11.019531 C 17.253906 11.167969 17.285156 11.261719 17.339844 12.066406 C 17.363281 12.457031 17.390625 12.808594 17.402344 12.847656 C 17.410156 12.898438 17.480469 12.933594 17.707031 13.015625 C 17.871094 13.070312 18.128906 13.179688 18.28125 13.257812 C 18.4375 13.335938 18.574219 13.398438 18.589844 13.398438 C 18.605469 13.398438 18.851562 13.183594 19.140625 12.917969 C 19.425781 12.65625 19.714844 12.410156 19.78125 12.378906 C 19.933594 12.296875 20.164062 12.296875 20.332031 12.378906 C 20.410156 12.417969 20.683594 12.664062 21.023438 13.007812 C 21.605469 13.597656 21.652344 13.667969 21.652344 13.933594 C 21.652344 14.121094 21.570312 14.246094 21.066406 14.796875 C 20.792969 15.097656 20.570312 15.355469 20.570312 15.371094 C 20.570312 15.386719 20.644531 15.546875 20.730469 15.730469 C 20.816406 15.910156 20.917969 16.164062 20.960938 16.292969 C 21.011719 16.453125 21.050781 16.535156 21.097656 16.554688 C 21.128906 16.570312 21.484375 16.605469 21.878906 16.628906 C 22.664062 16.675781 22.789062 16.707031 22.921875 16.894531 C 23.046875 17.070312 23.058594 17.199219 23.050781 18.054688 L 23.039062 18.871094 L 22.941406 19.007812 C 22.769531 19.253906 22.730469 19.265625 21.859375 19.324219 C 21.433594 19.347656 21.078125 19.378906 21.066406 19.386719 C 21.058594 19.398438 21.003906 19.535156 20.949219 19.691406 C 20.894531 19.847656 20.785156 20.105469 20.707031 20.257812 C 20.628906 20.414062 20.570312 20.558594 20.578125 20.582031 C 20.582031 20.605469 20.792969 20.851562 21.050781 21.128906 C 21.300781 21.40625 21.542969 21.695312 21.582031 21.773438 C 21.667969 21.9375 21.675781 22.113281 21.605469 22.277344 C 21.542969 22.425781 20.507812 23.476562 20.339844 23.5625 C 20.199219 23.636719 19.945312 23.644531 19.796875 23.582031 C 19.738281 23.554688 19.457031 23.316406 19.167969 23.054688 C 18.878906 22.789062 18.621094 22.574219 18.589844 22.574219 C 18.566406 22.574219 18.402344 22.636719 18.230469 22.71875 C 18.058594 22.800781 17.808594 22.902344 17.667969 22.949219 C 17.476562 23.011719 17.410156 23.046875 17.402344 23.097656 C 17.390625 23.132812 17.363281 23.480469 17.339844 23.871094 C 17.28125 24.730469 17.246094 24.824219 16.949219 24.972656 C 16.863281 25.019531 16.71875 25.027344 15.992188 25.027344 C 15.351562 25.023438 15.113281 25.011719 15.042969 24.980469 Z M 16.300781 21.171875 C 17.074219 21.089844 17.714844 20.785156 18.261719 20.234375 C 18.679688 19.816406 18.949219 19.347656 19.113281 18.753906 C 19.214844 18.386719 19.214844 17.566406 19.113281 17.191406 C 18.800781 16.050781 17.988281 15.214844 16.859375 14.875 C 16.597656 14.796875 16.527344 14.789062 16.015625 14.785156 C 15.527344 14.785156 15.425781 14.792969 15.1875 14.859375 C 14.003906 15.183594 13.09375 16.136719 12.847656 17.316406 C 12.625 18.378906 12.949219 19.464844 13.726562 20.242188 C 14.128906 20.652344 14.660156 20.949219 15.230469 21.097656 C 15.390625 21.136719 15.621094 21.171875 15.949219 21.199219 C 15.980469 21.199219 16.136719 21.1875 16.300781 21.171875 Z M 15.511719 19.835938 C 14.699219 19.613281 14.128906 18.925781 14.082031 18.09375 C 14.046875 17.515625 14.230469 17.027344 14.644531 16.613281 C 15.394531 15.871094 16.589844 15.863281 17.328125 16.597656 C 17.9375 17.207031 18.085938 18.070312 17.707031 18.832031 C 17.386719 19.476562 16.792969 19.855469 16.0625 19.886719 C 15.816406 19.894531 15.691406 19.882812 15.511719 19.835938 Z M 16.421875 19.03125 C 16.644531 18.949219 16.914062 18.699219 17.027344 18.46875 C 17.105469 18.308594 17.113281 18.253906 17.113281 17.96875 C 17.113281 17.667969 17.109375 17.640625 17.003906 17.449219 C 16.796875 17.066406 16.484375 16.871094 16.046875 16.847656 C 15.695312 16.828125 15.484375 16.902344 15.230469 17.136719 C 14.90625 17.429688 14.777344 17.839844 14.882812 18.246094 C 14.972656 18.59375 15.160156 18.832031 15.480469 18.992188 C 15.777344 19.144531 16.085938 19.15625 16.421875 19.03125 Z M 16.421875 19.03125 "/>
<path style=" stroke:none;fill-rule:nonzero;fill:rgb(16.078432%,50.196081%,72.549021%);fill-opacity:1;" d="M 18.632812 17.972656 C 18.632812 19.425781 17.464844 20.609375 16.019531 20.621094 C 14.574219 20.628906 13.386719 19.464844 13.367188 18.011719 C 13.347656 16.554688 14.496094 15.355469 15.941406 15.324219 C 17.390625 15.292969 18.589844 16.441406 18.632812 17.894531 "/>
</g>
</svg>
