
<svg xmlns="http://www.w3.org/2000/svg" xmlns:xlink="http://www.w3.org/1999/xlink" width="32px" height="32px" viewBox="0 0 32 32" version="1.1">
<defs>
<linearGradient id="linear0" gradientUnits="userSpaceOnUse" x1="1" y1="0" x2="47" y2="0" gradientTransform="matrix(0,-0.666667,0.666667,0,0.00147645,32)">
<stop offset="0" style="stop-color:rgb(51.372552%,70.980394%,91.37255%);stop-opacity:1;"/>
<stop offset="1" style="stop-color:rgb(57.647061%,75.294119%,92.54902%);stop-opacity:1;"/>
</linearGradient>
</defs>
<g id="surface1">
<path style=" stroke:none;fill-rule:nonzero;fill:rgb(0%,0%,0%);fill-opacity:0.0196078;" d="M 0.667969 28.667969 L 0.667969 28.832031 C 0.667969 30.308594 1.855469 31.5 3.332031 31.5 L 28.667969 31.5 C 30.144531 31.5 31.332031 30.308594 31.332031 28.832031 L 31.332031 28.667969 C 31.332031 30.144531 30.144531 31.332031 28.667969 31.332031 L 3.332031 31.332031 C 1.855469 31.332031 0.667969 30.144531 0.667969 28.667969 Z M 0.667969 29 L 0.667969 29.332031 C 0.667969 30.808594 1.855469 32 3.332031 32 L 28.667969 32 C 30.144531 32 31.332031 30.808594 31.332031 29.332031 L 31.332031 29 C 31.332031 30.476562 30.144531 31.667969 28.667969 31.667969 L 3.332031 31.667969 C 1.855469 31.667969 0.667969 30.476562 0.667969 29 Z M 0.667969 29 "/>
<path style=" stroke:none;fill-rule:nonzero;fill:rgb(0%,0%,0%);fill-opacity:0.0509804;" d="M 0.667969 28.832031 L 0.667969 29 C 0.667969 30.476562 1.855469 31.667969 3.332031 31.667969 L 28.667969 31.667969 C 30.144531 31.667969 31.332031 30.476562 31.332031 29 L 31.332031 28.832031 C 31.332031 30.308594 30.144531 31.5 28.667969 31.5 L 3.332031 31.5 C 1.855469 31.5 0.667969 30.308594 0.667969 28.832031 Z M 0.667969 28.832031 "/>
<path style=" stroke:none;fill-rule:nonzero;fill:rgb(0%,0%,0%);fill-opacity:0.101961;" d="M 0.667969 28.667969 L 0.667969 28.832031 C 0.667969 30.308594 1.855469 31.5 3.332031 31.5 L 28.667969 31.5 C 30.144531 31.5 31.332031 30.308594 31.332031 28.832031 L 31.332031 28.667969 C 31.332031 30.144531 30.144531 31.332031 28.667969 31.332031 L 3.332031 31.332031 C 1.855469 31.332031 0.667969 30.144531 0.667969 28.667969 Z M 0.667969 28.667969 "/>
<path style=" stroke:none;fill-rule:nonzero;fill:url(#linear0);" d="M 0.667969 28.667969 L 0.667969 3.332031 C 0.667969 1.859375 1.859375 0.667969 3.332031 0.667969 L 28.667969 0.667969 C 30.140625 0.667969 31.332031 1.859375 31.332031 3.332031 L 31.332031 28.667969 C 31.332031 30.140625 30.140625 31.332031 28.667969 31.332031 L 3.332031 31.332031 C 1.859375 31.332031 0.667969 30.140625 0.667969 28.667969 Z M 0.667969 28.667969 "/>
<path style=" stroke:none;fill-rule:nonzero;fill:rgb(100%,100%,100%);fill-opacity:1;" d="M 30.285156 16.015625 C 30.285156 23.921875 23.875 30.332031 15.96875 30.332031 C 8.058594 30.332031 1.652344 23.921875 1.652344 16.015625 C 1.652344 8.105469 8.058594 1.695312 15.96875 1.695312 C 23.875 1.695312 30.285156 8.105469 30.285156 16.015625 Z M 30.285156 16.015625 "/>
<path style=" stroke:none;fill-rule:nonzero;fill:rgb(30.19608%,30.19608%,30.19608%);fill-opacity:1;" d="M 16 1.34375 C 7.90625 1.34375 1.34375 7.90625 1.34375 16 C 1.34375 24.09375 7.90625 30.65625 16 30.65625 C 24.09375 30.65625 30.65625 24.09375 30.65625 16 C 30.65625 7.90625 24.09375 1.34375 16 1.34375 Z M 16 2.132812 C 23.660156 2.132812 29.867188 8.339844 29.867188 16 C 29.867188 23.660156 23.660156 29.867188 16 29.867188 C 8.339844 29.867188 2.132812 23.660156 2.132812 16 C 2.132812 8.339844 8.339844 2.132812 16 2.132812 Z M 16 2.132812 "/>
<path style=" stroke:none;fill-rule:nonzero;fill:rgb(30.19608%,30.19608%,30.19608%);fill-opacity:1;" d="M 16.050781 1.554688 C 12.347656 1.554688 9.339844 4.558594 9.339844 8.261719 C 9.339844 11.96875 12.347656 14.972656 16.050781 14.972656 C 18.503906 14.972656 20.757812 13.632812 21.933594 11.480469 C 22.109375 11.464844 22.28125 11.453125 22.457031 11.449219 C 25.847656 11.449219 28.886719 14.101562 30.066406 18.097656 C 30.214844 17.296875 30.292969 16.488281 30.296875 15.675781 C 30.296875 9.039062 25.519531 3.371094 18.984375 2.238281 C 18.070312 1.792969 17.066406 1.558594 16.050781 1.554688 Z M 16.050781 1.554688 "/>
<path style=" stroke:none;fill-rule:nonzero;fill:rgb(30.19608%,30.19608%,30.19608%);fill-opacity:1;" d="M 3.417969 23.238281 C 5.269531 26.449219 9.371094 27.546875 12.582031 25.695312 C 15.789062 23.84375 16.886719 19.738281 15.035156 16.53125 C 13.808594 14.410156 11.523438 13.121094 9.070312 13.179688 C 8.96875 13.039062 8.871094 12.894531 8.78125 12.746094 C 7.085938 9.804688 7.863281 5.851562 10.730469 2.828125 C 9.964844 3.101562 9.226562 3.441406 8.519531 3.84375 C 2.773438 7.160156 0.25 14.132812 2.542969 20.355469 C 2.613281 21.371094 2.910156 22.355469 3.417969 23.238281 Z M 3.417969 23.238281 "/>
<path style=" stroke:none;fill-rule:nonzero;fill:rgb(30.19608%,30.19608%,30.19608%);fill-opacity:1;" d="M 28.511719 23.339844 C 30.363281 20.128906 29.265625 16.027344 26.058594 14.175781 C 22.847656 12.324219 18.746094 13.421875 16.894531 16.628906 C 15.667969 18.753906 15.699219 21.378906 16.972656 23.472656 C 16.902344 23.628906 16.824219 23.785156 16.742188 23.941406 C 15.042969 26.878906 11.230469 28.183594 7.175781 27.207031 C 7.796875 27.738281 8.460938 28.207031 9.160156 28.617188 C 14.910156 31.933594 22.207031 30.636719 26.453125 25.535156 C 27.296875 24.96875 28 24.21875 28.511719 23.339844 Z M 28.511719 23.339844 "/>
</g>
</svg>
