
<svg xmlns="http://www.w3.org/2000/svg" xmlns:xlink="http://www.w3.org/1999/xlink" width="32px" height="32px" viewBox="0 0 32 32" version="1.1">
<g id="surface1">
<path style="fill-rule:nonzero;fill:rgb(100%,100%,100%);fill-opacity:1;stroke-width:6.94235;stroke-linecap:butt;stroke-linejoin:miter;stroke:rgb(18.039216%,80.000001%,44.313726%);stroke-opacity:1;stroke-miterlimit:4;" d="M 21.015625 931.502848 L 106.984375 931.502848 C 114.640625 931.502848 120.859375 937.721598 120.859375 945.377848 L 120.859375 1031.346598 C 120.859375 1039.002848 114.640625 1045.221598 106.984375 1045.221598 L 21.015625 1045.221598 C 13.359375 1045.221598 7.140625 1039.002848 7.140625 1031.346598 L 7.140625 945.377848 C 7.140625 937.721598 13.359375 931.502848 21.015625 931.502848 Z M 21.015625 931.502848 " transform="matrix(0.25,0,0,0.25,0,-231.090556)"/>
<path style=" stroke:none;fill-rule:nonzero;fill:rgb(18.039216%,80.000001%,44.313726%);fill-opacity:1;" d="M 14.523438 4.292969 C 9.839844 4.292969 6.070312 8.050781 6.039062 12.722656 L 6.035156 12.722656 L 6.035156 25.363281 C 6.035156 26.660156 7.082031 27.707031 8.378906 27.707031 C 9.675781 27.707031 10.71875 26.660156 10.71875 25.363281 C 10.71875 26.660156 11.761719 27.707031 13.058594 27.707031 L 13.644531 27.707031 C 14.941406 27.707031 15.988281 26.660156 15.988281 25.363281 C 15.988281 26.660156 17.03125 27.707031 18.328125 27.707031 L 18.914062 27.707031 C 20.210938 27.707031 21.253906 26.660156 21.253906 25.363281 C 21.253906 26.660156 22.300781 27.707031 23.597656 27.707031 C 24.894531 27.707031 25.9375 26.660156 25.9375 25.363281 L 25.9375 12.722656 L 25.933594 12.722656 C 25.902344 8.050781 22.132812 4.292969 17.449219 4.292969 Z M 14.523438 4.292969 "/>
<path style=" stroke:none;fill-rule:nonzero;fill:rgb(92.54902%,94.117647%,94.509804%);fill-opacity:1;" d="M 12.839844 10.144531 C 14.292969 10.144531 15.472656 11.324219 15.472656 12.78125 C 15.472656 14.234375 14.292969 15.414062 12.839844 15.414062 C 11.386719 15.414062 10.207031 14.234375 10.207031 12.78125 C 10.207031 11.324219 11.386719 10.144531 12.839844 10.144531 Z M 12.839844 10.144531 "/>
<path style=" stroke:none;fill-rule:nonzero;fill:rgb(92.54902%,94.117647%,94.509804%);fill-opacity:1;" d="M 22.203125 10.144531 C 23.660156 10.144531 24.839844 11.324219 24.839844 12.78125 C 24.839844 14.234375 23.660156 15.414062 22.203125 15.414062 C 20.75 15.414062 19.570312 14.234375 19.570312 12.78125 C 19.570312 11.324219 20.75 10.144531 22.203125 10.144531 Z M 22.203125 10.144531 "/>
<path style=" stroke:none;fill-rule:nonzero;fill:rgb(20.392157%,28.627452%,36.862746%);fill-opacity:1;" d="M 14.742188 12.050781 C 15.144531 12.050781 15.472656 12.378906 15.472656 12.78125 C 15.472656 13.183594 15.144531 13.511719 14.742188 13.511719 C 14.335938 13.511719 14.011719 13.183594 14.011719 12.78125 C 14.011719 12.378906 14.335938 12.050781 14.742188 12.050781 Z M 14.742188 12.050781 "/>
<path style=" stroke:none;fill-rule:nonzero;fill:rgb(20.392157%,28.627452%,36.862746%);fill-opacity:1;" d="M 24.105469 12.050781 C 24.511719 12.050781 24.839844 12.378906 24.839844 12.78125 C 24.839844 13.183594 24.511719 13.511719 24.105469 13.511719 C 23.699219 13.511719 23.375 13.183594 23.375 12.78125 C 23.375 12.378906 23.699219 12.050781 24.105469 12.050781 Z M 24.105469 12.050781 "/>
</g>
</svg>
