
<svg xmlns="http://www.w3.org/2000/svg" xmlns:xlink="http://www.w3.org/1999/xlink" width="32px" height="32px" viewBox="0 0 32 32" version="1.1">
<g id="surface1">
<path style="fill-rule:nonzero;fill:rgb(100%,100%,100%);fill-opacity:1;stroke-width:54.639328;stroke-linecap:butt;stroke-linejoin:miter;stroke:rgb(30.19608%,30.19608%,30.19608%);stroke-opacity:1;stroke-miterlimit:4;" d="M 182.427973 86.194954 L 858.927973 86.194954 C 919.302973 86.194954 968.177973 135.069954 968.177973 195.444954 L 968.177973 871.944954 C 968.177973 932.319954 919.302973 981.194954 858.927973 981.194954 L 182.427973 981.194954 C 122.052973 981.194954 73.177973 932.319954 73.177973 871.944954 L 73.177973 195.444954 C 73.177973 135.069954 122.052973 86.194954 182.427973 86.194954 Z M 182.427973 86.194954 " transform="matrix(0.03125,0,0,0.03125,-0.271187,-0.677967)"/>
<path style=" stroke:none;fill-rule:nonzero;fill:rgb(70.19608%,70.19608%,70.19608%);fill-opacity:1;" d="M 5.941406 2.871094 C 4.71875 2.882812 3.785156 4.160156 3.964844 5.40625 C 3.96875 12.667969 3.949219 19.929688 3.972656 27.191406 C 4.0625 28.417969 5.230469 29.292969 6.363281 29.128906 C 13.347656 29.121094 20.332031 29.144531 27.3125 29.121094 C 28.480469 29.027344 29.308594 27.785156 29.152344 26.59375 C 29.152344 22.144531 29.152344 17.691406 29.152344 13.238281 C 28.679688 12.128906 27.542969 11.453125 26.808594 10.519531 C 24.40625 8.023438 22.023438 5.503906 19.605469 3.023438 C 18.929688 2.722656 18.152344 2.933594 17.433594 2.871094 C 13.601562 2.871094 9.769531 2.871094 5.941406 2.871094 Z M 22.351562 2.871094 C 21.886719 2.910156 21.863281 3.585938 22.246094 3.78125 C 24.34375 5.949219 26.410156 8.160156 28.527344 10.308594 C 28.941406 10.535156 29.273438 10.015625 29.152344 9.621094 C 29.125 7.949219 29.207031 6.265625 29.105469 4.597656 C 28.917969 3.425781 27.753906 2.710938 26.675781 2.871094 C 25.234375 2.871094 23.792969 2.871094 22.351562 2.871094 Z M 22.351562 2.871094 "/>
<path style=" stroke:none;fill-rule:nonzero;fill:rgb(30.19608%,30.19608%,30.19608%);fill-opacity:1;" d="M 2.589844 2.28125 L 7.621094 2.28125 L 7.621094 29.394531 L 2.589844 29.394531 Z M 2.589844 2.28125 "/>
<path style=" stroke:none;fill-rule:nonzero;fill:rgb(100%,100%,100%);fill-opacity:1;" d="M 13.855469 10.855469 L 20.042969 10.855469 L 20.042969 12.402344 L 20.816406 12.402344 L 20.816406 10.855469 C 20.816406 10.429688 20.46875 10.082031 20.042969 10.082031 L 13.855469 10.082031 C 13.429688 10.082031 13.082031 10.429688 13.082031 10.855469 L 13.082031 12.402344 L 13.855469 12.402344 L 13.855469 10.855469 "/>
<path style=" stroke:none;fill-rule:nonzero;fill:rgb(100%,100%,100%);fill-opacity:1;" d="M 22.363281 13.175781 L 11.535156 13.175781 C 11.109375 13.175781 10.761719 13.523438 10.761719 13.949219 L 10.761719 17.816406 C 10.761719 18.246094 11.109375 18.589844 11.535156 18.589844 L 13.082031 18.589844 L 13.082031 21.683594 C 13.082031 22.113281 13.429688 22.457031 13.855469 22.457031 L 20.042969 22.457031 C 20.46875 22.457031 20.816406 22.113281 20.816406 21.683594 L 20.816406 18.589844 L 22.363281 18.589844 C 22.789062 18.589844 23.136719 18.246094 23.136719 17.816406 L 23.136719 13.949219 C 23.136719 13.523438 22.789062 13.175781 22.363281 13.175781 M 20.042969 21.683594 L 13.855469 21.683594 L 13.855469 16.269531 L 20.042969 16.269531 L 20.042969 21.683594 M 21.589844 15.496094 C 21.160156 15.496094 20.816406 15.152344 20.816406 14.722656 C 20.816406 14.296875 21.160156 13.949219 21.589844 13.949219 C 22.015625 13.949219 22.363281 14.296875 22.363281 14.722656 C 22.363281 15.152344 22.015625 15.496094 21.589844 15.496094 "/>
<path style=" stroke:none;fill-rule:nonzero;fill:rgb(100%,100%,100%);fill-opacity:1;" d="M 14.628906 17.042969 L 17.722656 17.042969 L 17.722656 17.816406 L 14.628906 17.816406 Z M 14.628906 17.042969 "/>
<path style=" stroke:none;fill-rule:nonzero;fill:rgb(100%,100%,100%);fill-opacity:1;" d="M 14.628906 18.589844 L 19.269531 18.589844 L 19.269531 19.363281 L 14.628906 19.363281 Z M 14.628906 18.589844 "/>
<path style=" stroke:none;fill-rule:nonzero;fill:rgb(100%,100%,100%);fill-opacity:1;" d="M 14.628906 20.136719 L 19.269531 20.136719 L 19.269531 20.910156 L 14.628906 20.910156 Z M 14.628906 20.136719 "/>
</g>
</svg>
