
<svg xmlns="http://www.w3.org/2000/svg" xmlns:xlink="http://www.w3.org/1999/xlink" width="32px" height="32px" viewBox="0 0 32 32" version="1.1">
<g id="surface1">
<path style="fill-rule:nonzero;fill:rgb(100%,100%,100%);fill-opacity:1;stroke-width:13.891505;stroke-linecap:butt;stroke-linejoin:miter;stroke:rgb(0%,47.843137%,76.47059%);stroke-opacity:1;stroke-miterlimit:4;" d="M 42 14.21875 L 214 14.21875 C 229.34375 14.21875 241.78125 26.65625 241.78125 42 L 241.78125 214 C 241.78125 229.34375 229.34375 241.78125 214 241.78125 L 42 241.78125 C 26.65625 241.78125 14.21875 229.34375 14.21875 214 L 14.21875 42 C 14.21875 26.65625 26.65625 14.21875 42 14.21875 Z M 42 14.21875 " transform="matrix(0.125,0,0,0.125,0,0)"/>
<path style=" stroke:none;fill-rule:nonzero;fill:rgb(0%,47.843137%,76.47059%);fill-opacity:1;" d="M 13.273438 27.019531 C 12.09375 26.855469 10.777344 26.550781 9.957031 26.261719 C 8.238281 25.648438 6.832031 24.65625 6.367188 23.730469 C 6.136719 23.269531 6.128906 23.1875 6.128906 21.605469 C 6.128906 20.691406 6.167969 19.964844 6.214844 19.964844 C 6.257812 19.964844 6.402344 20.148438 6.535156 20.371094 C 7.742188 22.433594 12.042969 23.804688 16.730469 23.621094 C 21.074219 23.453125 24.511719 22.148438 25.453125 20.3125 C 25.578125 20.070312 25.714844 19.875 25.765625 19.875 C 25.921875 19.875 25.972656 20.511719 25.933594 21.886719 C 25.894531 23.113281 25.871094 23.28125 25.65625 23.699219 C 24.90625 25.160156 22.746094 26.289062 19.550781 26.894531 C 18.214844 27.144531 14.675781 27.21875 13.273438 27.019531 Z M 13.78125 22.535156 C 10.933594 22.25 8.292969 21.277344 7.050781 20.058594 C 6.230469 19.253906 6.179688 19.089844 6.144531 17.175781 C 6.128906 16.078125 6.148438 15.542969 6.214844 15.542969 C 6.269531 15.542969 6.414062 15.707031 6.542969 15.902344 C 7.339844 17.175781 9.429688 18.234375 12.160156 18.761719 C 17.601562 19.8125 23.96875 18.414062 25.414062 15.851562 C 25.566406 15.578125 25.726562 15.355469 25.769531 15.355469 C 25.910156 15.355469 25.976562 16.183594 25.933594 17.425781 C 25.894531 18.527344 25.867188 18.707031 25.640625 19.167969 C 24.480469 21.539062 19.089844 23.070312 13.78125 22.535156 Z M 14.058594 18.019531 C 10.402344 17.699219 7.296875 16.335938 6.425781 14.675781 C 6.191406 14.230469 6.175781 14.117188 6.144531 12.757812 C 6.105469 10.988281 6.164062 10.824219 6.589844 11.488281 C 7.367188 12.699219 9.195312 13.628906 11.839844 14.160156 C 17.636719 15.324219 24.128906 13.894531 25.527344 11.136719 C 25.613281 10.972656 25.714844 10.839844 25.753906 10.839844 C 25.871094 10.839844 25.957031 13.324219 25.859375 13.921875 C 25.417969 16.628906 19.925781 18.539062 14.058594 18.019531 Z M 14.511719 13.503906 C 10.707031 13.261719 7.242188 11.78125 6.441406 10.058594 C 5.339844 7.695312 8.660156 5.386719 13.957031 4.839844 C 15.445312 4.683594 18.332031 4.777344 19.644531 5.019531 C 21.179688 5.308594 22.199219 5.628906 23.34375 6.1875 C 25.023438 7.003906 25.859375 7.980469 25.859375 9.121094 C 25.859375 11.839844 20.554688 13.886719 14.511719 13.503906 Z M 14.511719 13.503906 "/>
</g>
</svg>
