
<svg xmlns="http://www.w3.org/2000/svg" xmlns:xlink="http://www.w3.org/1999/xlink" width="32px" height="32px" viewBox="0 0 32 32" version="1.1">
<g id="surface1">
<path style="fill-rule:nonzero;fill:rgb(44.313726%,78.431374%,21.568628%);fill-opacity:1;stroke-width:7.056338;stroke-linecap:butt;stroke-linejoin:miter;stroke:rgb(27.843139%,27.450982%,27.450982%);stroke-opacity:1;stroke-miterlimit:4;" d="M 20.32812 930.565348 L 107.67187 930.565348 C 115.48437 930.565348 121.79687 936.877848 121.79687 944.690348 L 121.79687 1032.034098 C 121.79687 1039.846598 115.48437 1046.159098 107.67187 1046.159098 L 20.32812 1046.159098 C 12.51562 1046.159098 6.20312 1039.846598 6.20312 1032.034098 L 6.20312 944.690348 C 6.20312 936.877848 12.51562 930.565348 20.32812 930.565348 Z M 20.32812 930.565348 " transform="matrix(0.25,0,0,0.25,0.00000125,-231.090556)"/>
<path style=" stroke:none;fill-rule:evenodd;fill:rgb(0%,16.862746%,0%);fill-opacity:1;" d="M 15.941406 9.601562 L 15.941406 17.773438 C 15.597656 17.449219 15.144531 17.242188 14.667969 17.242188 C 13.667969 17.242188 12.757812 18.152344 12.757812 19.152344 C 12.757812 20.152344 13.667969 21.0625 14.667969 21.0625 C 15.667969 21.0625 16.582031 20.152344 16.582031 19.152344 L 16.582031 12.394531 C 17.910156 13.191406 18.742188 14.660156 18.742188 16.222656 C 18.742188 16.625 18.675781 17.019531 18.558594 17.402344 C 18.917969 16.769531 19.125 16.0625 19.125 15.332031 C 19.125 14.164062 18.722656 13.050781 17.898438 12.230469 C 17.519531 11.847656 16.59375 11.148438 16.582031 9.636719 L 16.582031 9.601562 Z M 15.941406 9.601562 "/>
<path style=" stroke:none;fill-rule:nonzero;fill:rgb(40.392157%,42.352942%,32.549021%);fill-opacity:1;" d="M 4.921875 15.542969 L 2.796875 13.566406 L 3.957031 13.515625 C 4.597656 13.488281 5.160156 13.425781 5.214844 13.371094 C 5.269531 13.316406 5.386719 12.785156 5.472656 12.1875 C 6.09375 8.105469 8.933594 5.050781 13.246094 3.824219 C 14.105469 3.582031 14.324219 3.558594 16.011719 3.554688 C 17.917969 3.546875 18.363281 3.613281 19.777344 4.09375 C 21.03125 4.519531 23.441406 5.960938 23.441406 6.285156 C 23.441406 6.441406 21.417969 8.363281 21.253906 8.363281 C 21.183594 8.363281 20.878906 8.1875 20.578125 7.972656 C 19.894531 7.496094 18.445312 6.863281 17.707031 6.71875 C 16.796875 6.542969 15.109375 6.582031 14.171875 6.808594 C 11.75 7.382812 9.878906 9.023438 9.066406 11.277344 C 8.738281 12.191406 8.589844 13.410156 8.804688 13.433594 C 8.882812 13.4375 9.480469 13.472656 10.128906 13.503906 L 11.304688 13.566406 L 9.175781 15.542969 L 7.042969 17.519531 Z M 4.921875 15.542969 "/>
<path style=" stroke:none;fill-rule:nonzero;fill:rgb(80.000001%,100%,66.666669%);fill-opacity:1;" d="M 13.917969 28.058594 C 12.203125 27.742188 10.359375 27.019531 9.128906 26.179688 C 7.988281 25.402344 7.972656 25.542969 9.308594 24.367188 L 10.472656 23.339844 L 11.082031 23.738281 C 12.453125 24.632812 14.175781 25.160156 15.726562 25.164062 C 17.894531 25.171875 19.632812 24.523438 21.191406 23.136719 C 22.472656 21.988281 23.269531 20.46875 23.316406 19.078125 L 23.335938 18.476562 L 20.699219 18.382812 L 25.109375 14.496094 L 27.226562 16.363281 C 28.390625 17.394531 29.316406 18.257812 29.28125 18.285156 C 29.25 18.316406 28.695312 18.371094 28.054688 18.410156 L 26.886719 18.480469 L 26.714844 19.570312 C 26.503906 20.894531 26.222656 21.710938 25.570312 22.867188 C 24.164062 25.363281 21.464844 27.238281 18.285156 27.925781 C 17.144531 28.171875 14.894531 28.242188 13.917969 28.058594 Z M 13.917969 28.058594 "/>
</g>
</svg>
