
<svg xmlns="http://www.w3.org/2000/svg" xmlns:xlink="http://www.w3.org/1999/xlink" width="32px" height="32px" viewBox="0 0 32 32" version="1.1">
<g id="surface1">
<path style="fill-rule:nonzero;fill:rgb(92.54902%,94.117647%,94.509804%);fill-opacity:1;stroke-width:2.526949;stroke-linecap:butt;stroke-linejoin:miter;stroke:rgb(47.843137%,27.058825%,13.333334%);stroke-opacity:1;stroke-miterlimit:4;" d="M 8.355469 3.304688 L 39.644531 3.304688 C 42.433594 3.304688 44.695312 5.566406 44.695312 8.355469 L 44.695312 39.644531 C 44.695312 42.433594 42.433594 44.695312 39.644531 44.695312 L 8.355469 44.695312 C 5.566406 44.695312 3.304688 42.433594 3.304688 39.644531 L 3.304688 8.355469 C 3.304688 5.566406 5.566406 3.304688 8.355469 3.304688 Z M 8.355469 3.304688 " transform="matrix(0.666667,0,0,0.666667,0,0)"/>
<path style=" stroke:none;fill-rule:nonzero;fill:rgb(17.254902%,53.725493%,76.862746%);fill-opacity:1;" d="M 22 2.9375 L 27.332031 2.9375 L 27.332031 10.269531 L 24.667969 8.269531 L 22 10.269531 Z M 22 2.9375 "/>
<path style=" stroke:none;fill-rule:nonzero;fill:rgb(47.843137%,27.058825%,13.333334%);fill-opacity:1;" d="M 2.769531 2.464844 L 7.734375 2.464844 L 7.734375 29.214844 L 2.769531 29.214844 Z M 2.769531 2.464844 "/>
<path style=" stroke:none;fill-rule:nonzero;fill:rgb(17.254902%,53.725493%,76.862746%);fill-opacity:1;" d="M 23.738281 14.203125 C 23.898438 13.851562 23.988281 13.496094 23.988281 13.160156 C 23.988281 12.5625 23.738281 12.070312 23.230469 11.6875 C 22.695312 11.273438 21.941406 11.074219 20.957031 11.074219 C 20.765625 11.074219 20.558594 11.089844 20.363281 11.105469 C 18.714844 11.242188 17.097656 11.886719 15.507812 13.066406 C 14.082031 14.128906 13.117188 15.230469 12.597656 16.414062 C 12.195312 17.335938 11.988281 18.164062 11.988281 18.917969 C 11.988281 20.621094 13.058594 21.648438 14.617188 21.722656 C 14.839844 21.738281 15.046875 21.738281 15.242188 21.738281 C 17.660156 21.738281 19.847656 20.832031 21.792969 19.039062 C 23.050781 17.871094 23.691406 16.644531 23.691406 15.371094 C 23.691406 15.078125 23.648438 14.785156 23.574219 14.527344 Z M 23.378906 14.066406 C 22.964844 13.285156 22.238281 12.761719 21.195312 12.5 C 20.632812 12.363281 20.15625 12.300781 19.769531 12.300781 C 19.339844 12.300781 18.894531 12.378906 18.433594 12.53125 C 18.417969 12.546875 18.402344 12.5625 18.402344 12.578125 C 18.402344 12.609375 18.671875 12.636719 19.191406 12.652344 C 19.816406 12.667969 20.277344 12.714844 20.558594 12.792969 C 21.105469 12.960938 21.582031 13.222656 21.984375 13.589844 C 22.445312 14.003906 22.710938 14.496094 22.785156 15.066406 C 22.445312 15.496094 21.925781 16.015625 21.226562 16.644531 L 20.394531 17.351562 C 20.050781 17.644531 19.917969 17.78125 20.007812 17.78125 C 20.023438 17.78125 20.066406 17.765625 20.128906 17.75 C 21.390625 16.953125 22.28125 16.261719 22.800781 15.660156 C 22.695312 16.722656 22.011719 17.824219 20.75 18.992188 C 18.863281 20.726562 16.859375 21.542969 14.765625 21.417969 C 13.445312 21.339844 12.792969 20.621094 12.792969 19.285156 C 12.792969 18.457031 13.058594 17.503906 13.605469 16.445312 C 14.347656 14.988281 15.359375 13.804688 16.636719 12.886719 C 18.019531 11.886719 19.445312 11.394531 20.945312 11.394531 C 22.027344 11.394531 22.769531 11.703125 23.199219 12.316406 C 23.425781 12.636719 23.527344 12.960938 23.527344 13.316406 C 23.527344 13.558594 23.484375 13.804688 23.378906 14.066406 Z M 23.378906 14.066406 "/>
</g>
</svg>
