
<svg xmlns="http://www.w3.org/2000/svg" xmlns:xlink="http://www.w3.org/1999/xlink" width="32px" height="32px" viewBox="0 0 32 32" version="1.1">
<g id="surface1">
<path style=" stroke:none;fill-rule:nonzero;fill:rgb(100%,75.294119%,13.333334%);fill-opacity:1;" d="M 3.441406 2.246094 L 14.394531 2.246094 C 15.035156 2.246094 15.550781 2.761719 15.550781 3.398438 L 15.550781 14.355469 C 15.550781 14.988281 15.035156 15.507812 14.394531 15.507812 L 3.441406 15.507812 C 2.804688 15.507812 2.285156 14.988281 2.285156 14.355469 L 2.285156 3.398438 C 2.285156 2.761719 2.804688 2.246094 3.441406 2.246094 Z M 3.441406 2.246094 "/>
<path style=" stroke:none;fill-rule:nonzero;fill:rgb(80.000001%,80.000001%,80.000001%);fill-opacity:1;" d="M 3.441406 16.660156 L 14.394531 16.660156 C 15.035156 16.660156 15.550781 17.175781 15.550781 17.8125 L 15.550781 28.769531 C 15.550781 29.40625 15.035156 29.921875 14.394531 29.921875 L 3.441406 29.921875 C 2.804688 29.921875 2.285156 29.40625 2.285156 28.769531 L 2.285156 17.8125 C 2.285156 17.175781 2.804688 16.660156 3.441406 16.660156 Z M 3.441406 16.660156 "/>
<path style=" stroke:none;fill-rule:nonzero;fill:rgb(80.000001%,80.000001%,80.000001%);fill-opacity:1;" d="M 17.855469 2.246094 L 28.808594 2.246094 C 29.449219 2.246094 29.964844 2.761719 29.964844 3.398438 L 29.964844 14.355469 C 29.964844 14.988281 29.449219 15.507812 28.808594 15.507812 L 17.855469 15.507812 C 17.21875 15.507812 16.703125 14.988281 16.703125 14.355469 L 16.703125 3.398438 C 16.703125 2.761719 17.21875 2.246094 17.855469 2.246094 Z M 17.855469 2.246094 "/>
<path style=" stroke:none;fill-rule:nonzero;fill:rgb(0%,51.764709%,78.431374%);fill-opacity:1;" d="M 17.855469 16.660156 L 28.808594 16.660156 C 29.449219 16.660156 29.964844 17.175781 29.964844 17.8125 L 29.964844 28.769531 C 29.964844 29.40625 29.449219 29.921875 28.808594 29.921875 L 17.855469 29.921875 C 17.21875 29.921875 16.703125 29.40625 16.703125 28.769531 L 16.703125 17.8125 C 16.703125 17.175781 17.21875 16.660156 17.855469 16.660156 Z M 17.855469 16.660156 "/>
<path style=" stroke:none;fill-rule:nonzero;fill:rgb(0%,0%,0%);fill-opacity:1;" d="M 6.871094 4.847656 C 6.40625 4.847656 6.050781 5.019531 5.792969 5.363281 C 5.539062 5.703125 5.410156 6.183594 5.410156 6.804688 C 5.410156 7.421875 5.539062 7.902344 5.792969 8.242188 C 6.050781 8.585938 6.40625 8.753906 6.871094 8.753906 C 7.335938 8.753906 7.695312 8.585938 7.949219 8.242188 C 8.207031 7.902344 8.332031 7.421875 8.332031 6.804688 C 8.332031 6.183594 8.207031 5.703125 7.949219 5.363281 C 7.695312 5.019531 7.335938 4.847656 6.871094 4.847656 M 6.871094 3.75 C 7.816406 3.75 8.558594 4.019531 9.09375 4.5625 C 9.628906 5.105469 9.894531 5.851562 9.894531 6.804688 C 9.894531 7.753906 9.628906 8.503906 9.09375 9.042969 C 8.558594 9.585938 7.816406 9.855469 6.871094 9.855469 C 5.925781 9.855469 5.183594 9.585938 4.644531 9.042969 C 4.113281 8.503906 3.84375 7.753906 3.84375 6.804688 C 3.84375 5.851562 4.113281 5.105469 4.644531 4.5625 C 5.183594 4.019531 5.925781 3.75 6.871094 3.75 "/>
<path style=" stroke:none;fill-rule:nonzero;fill:rgb(0%,0%,0%);fill-opacity:1;" d="M 20.953125 20.550781 C 21.191406 20.550781 21.375 20.496094 21.496094 20.390625 C 21.621094 20.285156 21.683594 20.128906 21.683594 19.925781 C 21.683594 19.722656 21.621094 19.570312 21.496094 19.464844 C 21.375 19.355469 21.191406 19.304688 20.953125 19.304688 L 20.113281 19.304688 L 20.113281 20.550781 L 20.953125 20.550781 M 21.003906 23.121094 C 21.308594 23.121094 21.539062 23.058594 21.691406 22.929688 C 21.847656 22.800781 21.921875 22.605469 21.921875 22.347656 C 21.921875 22.089844 21.847656 21.902344 21.695312 21.777344 C 21.542969 21.644531 21.3125 21.582031 21.003906 21.582031 L 20.113281 21.582031 L 20.113281 23.121094 L 21.003906 23.121094 M 22.417969 21.003906 C 22.742188 21.101562 22.996094 21.277344 23.171875 21.53125 C 23.351562 21.785156 23.441406 22.097656 23.441406 22.46875 C 23.441406 23.035156 23.25 23.457031 22.863281 23.738281 C 22.480469 24.015625 21.898438 24.15625 21.113281 24.15625 L 18.597656 24.15625 L 18.597656 18.269531 L 20.875 18.269531 C 21.691406 18.269531 22.285156 18.394531 22.648438 18.640625 C 23.015625 18.886719 23.199219 19.285156 23.199219 19.828125 C 23.199219 20.113281 23.132812 20.359375 23 20.558594 C 22.863281 20.761719 22.671875 20.910156 22.417969 21.007812 "/>
</g>
</svg>
