
<svg xmlns="http://www.w3.org/2000/svg" xmlns:xlink="http://www.w3.org/1999/xlink" width="32px" height="32px" viewBox="0 0 32 32" version="1.1">
<g id="surface1">
<path style=" stroke:none;fill-rule:evenodd;fill:rgb(23.921569%,45.882353%,20%);fill-opacity:1;" d="M 6.519531 2.128906 L 25.652344 2.128906 C 28.136719 2.128906 30.144531 4.144531 30.144531 6.625 L 30.144531 25.574219 C 30.144531 28.058594 28.136719 30.070312 25.652344 30.070312 L 6.519531 30.070312 C 4.035156 30.070312 2.023438 28.058594 2.023438 25.574219 L 2.023438 6.625 C 2.023438 4.144531 4.035156 2.128906 6.519531 2.128906 Z M 6.519531 2.128906 "/>
<path style=" stroke:none;fill-rule:nonzero;fill:rgb(100%,100%,100%);fill-opacity:1;" d="M 15.359375 7.835938 L 15.359375 9.785156 C 14.496094 9.820312 13.753906 9.996094 13.160156 10.308594 C 12.5625 10.617188 12.097656 11.035156 11.761719 11.558594 C 11.425781 12.085938 11.261719 12.628906 11.261719 13.199219 C 11.261719 13.695312 11.398438 14.191406 11.667969 14.679688 C 11.933594 15.164062 12.304688 15.554688 12.773438 15.867188 C 13.238281 16.179688 14.101562 16.550781 15.359375 16.972656 L 15.359375 19.894531 C 15.054688 19.789062 14.769531 19.625 14.515625 19.414062 C 14.164062 19.136719 13.847656 18.808594 13.566406 18.425781 C 13.285156 18.042969 12.992188 17.515625 12.691406 16.847656 L 11.011719 17.253906 L 11.875 21.878906 L 12.824219 21.878906 L 13.253906 20.84375 C 13.984375 21.378906 14.6875 21.71875 15.359375 21.878906 L 15.359375 24.152344 L 17.050781 24.152344 L 17.050781 22.023438 C 17.863281 21.964844 18.585938 21.757812 19.230469 21.398438 C 19.871094 21.035156 20.359375 20.585938 20.691406 20.050781 C 21.019531 19.515625 21.191406 18.960938 21.191406 18.382812 C 21.191406 17.84375 21.050781 17.328125 20.773438 16.828125 C 20.496094 16.328125 20.089844 15.90625 19.566406 15.566406 C 19.039062 15.222656 18.203125 14.890625 17.050781 14.5625 L 17.050781 12.039062 C 17.984375 12.546875 18.664062 13.355469 19.082031 14.449219 L 20.691406 13.980469 L 19.667969 10.003906 L 18.707031 10.003906 L 18.386719 10.628906 C 18.09375 10.449219 17.859375 10.324219 17.6875 10.246094 C 17.511719 10.167969 17.300781 10.082031 17.050781 10.003906 L 17.050781 7.835938 Z M 15.359375 11.726562 L 15.359375 14.082031 C 14.808594 13.894531 14.429688 13.691406 14.222656 13.46875 C 14.015625 13.246094 13.910156 13.007812 13.910156 12.769531 C 13.910156 12.480469 14.050781 12.246094 14.339844 12.039062 C 14.535156 11.898438 14.878906 11.789062 15.359375 11.726562 Z M 17.050781 17.484375 C 17.566406 17.644531 17.957031 17.867188 18.238281 18.152344 C 18.441406 18.371094 18.542969 18.628906 18.542969 18.925781 C 18.542969 19.261719 18.40625 19.527344 18.136719 19.730469 C 17.863281 19.925781 17.503906 20.054688 17.050781 20.113281 Z M 17.050781 17.484375 "/>
<path style=" stroke:none;fill-rule:evenodd;fill:rgb(99.607843%,46.27451%,0%);fill-opacity:1;" d="M 16.097656 3.582031 L 3.691406 15.988281 L 16.097656 28.398438 L 28.511719 15.988281 Z M 15.355469 7.832031 L 17.050781 7.832031 L 17.050781 10.007812 C 17.300781 10.082031 17.511719 10.160156 17.683594 10.238281 C 17.855469 10.320312 18.089844 10.449219 18.382812 10.628906 L 18.714844 10.007812 L 19.667969 10.007812 L 20.695312 13.980469 L 19.082031 14.449219 C 18.660156 13.355469 17.984375 12.550781 17.050781 12.042969 L 17.050781 14.5625 C 18.199219 14.886719 19.039062 15.222656 19.566406 15.566406 C 20.089844 15.90625 20.492188 16.328125 20.769531 16.828125 C 21.050781 17.328125 21.1875 17.847656 21.1875 18.386719 C 21.1875 18.964844 21.023438 19.519531 20.691406 20.054688 C 20.363281 20.589844 19.875 21.039062 19.230469 21.398438 C 18.589844 21.757812 17.863281 21.964844 17.050781 22.023438 L 17.050781 24.144531 L 15.355469 24.144531 L 15.355469 21.878906 C 14.683594 21.71875 13.980469 21.375 13.25 20.839844 L 12.832031 21.878906 L 11.871094 21.878906 L 11.011719 17.253906 L 12.691406 16.851562 C 12.992188 17.519531 13.285156 18.042969 13.566406 18.425781 C 13.847656 18.808594 14.164062 19.136719 14.511719 19.417969 C 14.769531 19.628906 15.050781 19.789062 15.355469 19.894531 L 15.355469 16.972656 C 14.097656 16.550781 13.234375 16.183594 12.769531 15.871094 C 12.300781 15.558594 11.933594 15.160156 11.664062 14.675781 C 11.394531 14.191406 11.257812 13.699219 11.257812 13.203125 C 11.257812 12.636719 11.425781 12.085938 11.761719 11.558594 C 12.097656 11.035156 12.566406 10.617188 13.160156 10.308594 C 13.757812 9.996094 14.488281 9.824219 15.355469 9.789062 Z M 15.355469 11.726562 C 14.875 11.792969 14.535156 11.894531 14.335938 12.035156 C 14.050781 12.238281 13.910156 12.488281 13.910156 12.773438 C 13.910156 13.011719 14.011719 13.242188 14.21875 13.464844 C 14.425781 13.6875 14.804688 13.894531 15.355469 14.082031 Z M 17.050781 17.480469 L 17.050781 20.113281 C 17.503906 20.054688 17.867188 19.925781 18.140625 19.726562 C 18.410156 19.527344 18.546875 19.261719 18.546875 18.921875 C 18.546875 18.621094 18.445312 18.363281 18.242188 18.148438 C 17.960938 17.863281 17.5625 17.636719 17.050781 17.480469 Z M 17.050781 17.480469 "/>
<path style="fill-rule:evenodd;fill:rgb(41.960785%,73.333335%,18.039216%);fill-opacity:1;stroke-width:2.670781;stroke-linecap:round;stroke-linejoin:round;stroke:rgb(0%,0%,0%);stroke-opacity:1;stroke-miterlimit:4;" d="M 66.932087 34.802917 L 114.595511 34.802917 L 114.595511 47.61923 L 66.932087 47.61923 Z M 66.932087 34.802917 " transform="matrix(0.176777,0.176777,-0.176777,0.176777,0,0)"/>
<path style="fill:none;stroke-width:2.670781;stroke-linecap:round;stroke-linejoin:round;stroke:rgb(0%,0%,0%);stroke-opacity:1;stroke-miterlimit:4;" d="M 55.673619 -35.410587 L 125.865027 -35.421636 L 125.876075 34.791869 L 55.662571 34.78082 Z M 55.673619 -35.410587 " transform="matrix(0.176777,0.176777,-0.176777,0.176777,0,0)"/>
<path style="fill-rule:evenodd;fill:rgb(41.960785%,73.333335%,18.039216%);fill-opacity:1;stroke-width:2.670781;stroke-linecap:round;stroke-linejoin:round;stroke:rgb(0%,0%,0%);stroke-opacity:1;stroke-miterlimit:4;" d="M -24.141071 -138.692388 L 23.522353 -138.692388 L 23.522353 -125.876075 L -24.141071 -125.876075 Z M -24.141071 -138.692388 " transform="matrix(-0.176777,0.176777,-0.176777,-0.176777,0,0)"/>
<path style=" stroke:none;fill-rule:nonzero;fill:rgb(83.137256%,33.333334%,0%);fill-opacity:1;" d="M 15.359375 7.5 L 15.359375 7.835938 L 17.050781 7.835938 L 17.050781 7.5 Z M 15.359375 9.449219 C 14.496094 9.488281 13.753906 9.664062 13.160156 9.972656 C 12.5625 10.285156 12.097656 10.699219 11.761719 11.226562 C 11.425781 11.753906 11.261719 12.296875 11.261719 12.863281 C 11.261719 12.925781 11.265625 12.988281 11.269531 13.050781 C 11.296875 12.535156 11.453125 12.039062 11.761719 11.558594 C 12.097656 11.035156 12.5625 10.617188 13.160156 10.308594 C 13.753906 9.996094 14.496094 9.820312 15.359375 9.785156 Z M 17.050781 9.671875 L 17.050781 10.003906 C 17.300781 10.082031 17.511719 10.167969 17.6875 10.246094 C 17.859375 10.324219 18.09375 10.449219 18.386719 10.628906 L 18.707031 10.003906 L 19.667969 10.003906 L 20.605469 13.667969 L 20.691406 13.644531 L 19.667969 9.671875 L 18.707031 9.671875 L 18.386719 10.296875 C 18.09375 10.113281 17.859375 9.988281 17.6875 9.910156 C 17.511719 9.832031 17.300781 9.746094 17.050781 9.671875 Z M 13.929688 12.613281 C 13.921875 12.664062 13.910156 12.714844 13.910156 12.769531 C 13.910156 13.007812 14.015625 13.246094 14.222656 13.46875 C 14.429688 13.691406 14.808594 13.894531 15.359375 14.082031 L 15.359375 13.75 C 14.808594 13.5625 14.429688 13.355469 14.222656 13.136719 C 14.066406 12.96875 13.96875 12.792969 13.929688 12.613281 Z M 17.050781 14.230469 L 17.050781 14.5625 C 18.203125 14.890625 19.039062 15.222656 19.566406 15.566406 C 20.089844 15.90625 20.496094 16.328125 20.773438 16.828125 C 21.023438 17.277344 21.15625 17.746094 21.183594 18.226562 C 21.183594 18.167969 21.191406 18.109375 21.191406 18.050781 C 21.191406 17.511719 21.050781 16.996094 20.773438 16.496094 C 20.496094 15.996094 20.089844 15.574219 19.566406 15.230469 C 19.039062 14.890625 18.203125 14.558594 17.050781 14.230469 Z M 12.691406 16.515625 L 11.011719 16.921875 L 11.074219 17.246094 L 12.691406 16.847656 C 12.992188 17.515625 13.285156 18.042969 13.566406 18.425781 C 13.847656 18.808594 14.164062 19.136719 14.515625 19.414062 C 14.769531 19.625 15.054688 19.789062 15.359375 19.894531 L 15.359375 19.558594 C 15.054688 19.457031 14.769531 19.292969 14.515625 19.082031 C 14.164062 18.800781 13.847656 18.472656 13.566406 18.089844 C 13.285156 17.707031 12.992188 17.183594 12.691406 16.515625 Z M 18.53125 18.769531 C 18.488281 19.023438 18.355469 19.230469 18.136719 19.394531 C 17.863281 19.59375 17.503906 19.722656 17.050781 19.78125 L 17.050781 20.113281 C 17.503906 20.054688 17.863281 19.925781 18.136719 19.730469 C 18.40625 19.527344 18.542969 19.261719 18.542969 18.925781 C 18.542969 18.871094 18.535156 18.816406 18.53125 18.769531 Z M 18.53125 18.769531 "/>
</g>
</svg>
