
<svg xmlns="http://www.w3.org/2000/svg" xmlns:xlink="http://www.w3.org/1999/xlink" width="32px" height="32px" viewBox="0 0 32 32" version="1.1">
<g id="surface1">
<path style="fill-rule:nonzero;fill:rgb(5.490196%,52.156866%,80.392158%);fill-opacity:1;stroke-width:28.191782;stroke-linecap:butt;stroke-linejoin:miter;stroke:rgb(2.745098%,20.392157%,31.37255%);stroke-opacity:1;stroke-miterlimit:4;" d="M 81.5 25.0625 L 430.5 25.0625 C 461.6875 25.0625 486.9375 50.3125 486.9375 81.5 L 486.9375 430.5 C 486.9375 461.6875 461.6875 486.9375 430.5 486.9375 L 81.5 486.9375 C 50.3125 486.9375 25.0625 461.6875 25.0625 430.5 L 25.0625 81.5 C 25.0625 50.3125 50.3125 25.0625 81.5 25.0625 Z M 81.5 25.0625 " transform="matrix(0.0625,0,0,0.0625,0,0)"/>
<path style=" stroke:none;fill-rule:nonzero;fill:rgb(2.745098%,20.392157%,31.37255%);fill-opacity:1;" d="M 2.230469 2.191406 L 9.359375 2.191406 L 9.359375 29.980469 L 2.230469 29.980469 Z M 2.230469 2.191406 "/>
<path style=" stroke:none;fill-rule:evenodd;fill:rgb(100%,100%,100%);fill-opacity:1;" d="M 12.308594 6.421875 C 13.804688 5.605469 16.824219 5.441406 17.816406 6.738281 C 18.175781 5.199219 20.0625 4.003906 22.570312 3.855469 C 21.378906 3.574219 19.390625 2.785156 17.25 5.152344 C 13.886719 4.113281 12.613281 6.019531 12.308594 6.421875 Z M 12.308594 6.421875 "/>
<path style=" stroke:none;fill-rule:evenodd;fill:rgb(100%,100%,100%);fill-opacity:1;" d="M 6.484375 14.605469 C 8.925781 13.082031 14.003906 12.515625 15.800781 14.605469 C 16.253906 11.972656 19.320312 9.773438 23.53125 9.285156 C 21.492188 8.921875 18.066406 7.789062 14.6875 11.984375 C 8.917969 10.554688 6.953125 13.898438 6.484375 14.605469 Z M 6.484375 14.605469 "/>
<path style=" stroke:none;fill-rule:nonzero;fill:rgb(70.19608%,70.19608%,70.19608%);fill-opacity:1;" d="M 14.769531 19.972656 L 23.699219 19.972656 C 25.410156 19.972656 26.796875 21.597656 26.796875 23.605469 L 26.796875 24.304688 C 26.796875 26.3125 25.410156 27.941406 23.699219 27.941406 L 14.769531 27.941406 C 13.058594 27.941406 11.671875 26.3125 11.671875 24.304688 L 11.671875 23.605469 C 11.671875 21.597656 13.058594 19.972656 14.769531 19.972656 Z M 14.769531 19.972656 "/>
<path style=" stroke:none;fill-rule:nonzero;fill:rgb(100%,100%,100%);fill-opacity:1;" d="M 15.402344 20.453125 L 23.066406 20.453125 C 24.535156 20.453125 25.722656 21.644531 25.722656 23.109375 L 25.722656 23.621094 C 25.722656 25.089844 24.535156 26.277344 23.066406 26.277344 L 15.402344 26.277344 C 13.933594 26.277344 12.742188 25.089844 12.742188 23.621094 L 12.742188 23.109375 C 12.742188 21.644531 13.933594 20.453125 15.402344 20.453125 Z M 15.402344 20.453125 "/>
<path style=" stroke:none;fill-rule:nonzero;fill:rgb(90.196079%,90.196079%,90.196079%);fill-opacity:1;" d="M 15.363281 15.683594 L 22.746094 15.683594 L 22.746094 22.234375 L 15.363281 22.234375 Z M 15.363281 15.683594 "/>
<path style=" stroke:none;fill-rule:nonzero;fill:rgb(30.19608%,30.19608%,30.19608%);fill-opacity:1;" d="M 16 16.433594 L 21.894531 16.433594 L 21.894531 16.730469 L 16 16.730469 Z M 16 16.433594 "/>
<path style=" stroke:none;fill-rule:nonzero;fill:rgb(30.19608%,30.19608%,30.19608%);fill-opacity:1;" d="M 16 17.191406 L 21.894531 17.191406 L 21.894531 17.488281 L 16 17.488281 Z M 16 17.191406 "/>
<path style=" stroke:none;fill-rule:nonzero;fill:rgb(30.19608%,30.19608%,30.19608%);fill-opacity:1;" d="M 16 17.992188 L 21.894531 17.992188 L 21.894531 18.289062 L 16 18.289062 Z M 16 17.992188 "/>
<path style=" stroke:none;fill-rule:nonzero;fill:rgb(30.19608%,30.19608%,30.19608%);fill-opacity:1;" d="M 16 18.792969 L 21.894531 18.792969 L 21.894531 19.089844 L 16 19.089844 Z M 16 18.792969 "/>
<path style=" stroke:none;fill-rule:nonzero;fill:rgb(30.19608%,30.19608%,30.19608%);fill-opacity:1;" d="M 16 19.636719 L 21.894531 19.636719 L 21.894531 19.929688 L 16 19.929688 Z M 16 19.636719 "/>
<path style=" stroke:none;fill-rule:nonzero;fill:rgb(30.19608%,30.19608%,30.19608%);fill-opacity:1;" d="M 16 20.394531 L 21.894531 20.394531 L 21.894531 20.6875 L 16 20.6875 Z M 16 20.394531 "/>
<path style=" stroke:none;fill-rule:nonzero;fill:rgb(30.19608%,30.19608%,30.19608%);fill-opacity:1;" d="M 16 21.191406 L 21.894531 21.191406 L 21.894531 21.488281 L 16 21.488281 Z M 16 21.191406 "/>
<path style=" stroke:none;fill-rule:nonzero;fill:rgb(100%,0%,0%);fill-opacity:1;" d="M 24.253906 24.546875 C 24.253906 25.035156 23.855469 25.433594 23.367188 25.433594 C 22.878906 25.433594 22.484375 25.035156 22.484375 24.546875 C 22.484375 24.058594 22.878906 23.664062 23.367188 23.664062 C 23.855469 23.664062 24.253906 24.058594 24.253906 24.546875 Z M 24.253906 24.546875 "/>
<path style=" stroke:none;fill-rule:nonzero;fill:rgb(0%,100%,0%);fill-opacity:1;" d="M 22.148438 24.546875 C 22.148438 25.035156 21.753906 25.433594 21.261719 25.433594 C 20.777344 25.433594 20.378906 25.035156 20.378906 24.546875 C 20.378906 24.058594 20.777344 23.664062 21.261719 23.664062 C 21.753906 23.664062 22.148438 24.058594 22.148438 24.546875 Z M 22.148438 24.546875 "/>
</g>
</svg>
