
<svg xmlns="http://www.w3.org/2000/svg" xmlns:xlink="http://www.w3.org/1999/xlink" width="32px" height="32px" viewBox="0 0 32 32" version="1.1">
<g id="surface1">
<path style="fill-rule:nonzero;fill:rgb(94.901961%,45.09804%,5.882353%);fill-opacity:1;stroke-width:28.191782;stroke-linecap:butt;stroke-linejoin:miter;stroke:rgb(2.745098%,20.392157%,31.37255%);stroke-opacity:1;stroke-miterlimit:4;" d="M 81.5 25.0625 L 430.5 25.0625 C 461.6875 25.0625 486.9375 50.3125 486.9375 81.5 L 486.9375 430.5 C 486.9375 461.6875 461.6875 486.9375 430.5 486.9375 L 81.5 486.9375 C 50.3125 486.9375 25.0625 461.6875 25.0625 430.5 L 25.0625 81.5 C 25.0625 50.3125 50.3125 25.0625 81.5 25.0625 Z M 81.5 25.0625 " transform="matrix(0.0625,0,0,0.0625,0,0)"/>
<path style=" stroke:none;fill-rule:nonzero;fill:rgb(2.745098%,20.392157%,31.37255%);fill-opacity:1;" d="M 2.230469 2.191406 L 9.359375 2.191406 L 9.359375 29.980469 L 2.230469 29.980469 Z M 2.230469 2.191406 "/>
<path style=" stroke:none;fill-rule:evenodd;fill:rgb(100%,100%,100%);fill-opacity:1;" d="M 12.949219 6.707031 C 14.484375 5.863281 17.59375 5.699219 18.613281 7.03125 C 18.980469 5.445312 20.921875 4.214844 23.5 4.066406 C 22.273438 3.773438 20.230469 2.964844 18.027344 5.398438 C 14.570312 4.328125 13.257812 6.292969 12.949219 6.707031 Z M 12.949219 6.707031 "/>
<path style=" stroke:none;fill-rule:evenodd;fill:rgb(100%,100%,100%);fill-opacity:1;" d="M 6.957031 15.121094 C 9.464844 13.554688 14.6875 12.972656 16.539062 15.121094 C 17.003906 12.414062 20.160156 10.152344 24.488281 9.648438 C 22.394531 9.273438 18.871094 8.109375 15.394531 12.425781 C 9.457031 10.957031 7.4375 14.394531 6.957031 15.121094 Z M 6.957031 15.121094 "/>
<path style="fill-rule:nonzero;fill:rgb(94.901961%,45.09804%,5.882353%);fill-opacity:1;stroke-width:13.445017;stroke-linecap:butt;stroke-linejoin:miter;stroke:rgb(100%,100%,100%);stroke-opacity:1;stroke-miterlimit:4;" d="M 233.6875 299.625 L 385.5625 299.625 C 413.25 299.625 435.625 322.0625 435.625 349.6875 L 435.625 386.5625 C 435.625 414.1875 413.25 436.625 385.5625 436.625 L 233.6875 436.625 C 206.0625 436.625 183.625 414.1875 183.625 386.5625 L 183.625 349.6875 C 183.625 322.0625 206.0625 299.625 233.6875 299.625 Z M 233.6875 299.625 " transform="matrix(0.0625,0,0,0.0625,0,0)"/>
<path style=" stroke:none;fill-rule:nonzero;fill:rgb(100%,100%,100%);fill-opacity:1;" d="M 13.113281 19.992188 L 23.113281 19.992188 L 23.113281 20.808594 L 13.113281 20.808594 Z M 13.113281 19.992188 "/>
<path style=" stroke:none;fill-rule:nonzero;fill:rgb(100%,100%,100%);fill-opacity:1;" d="M 13.113281 24.203125 L 23.113281 24.203125 L 23.113281 25.019531 L 13.113281 25.019531 Z M 13.113281 24.203125 "/>
<path style=" stroke:none;fill-rule:nonzero;fill:rgb(100%,100%,100%);fill-opacity:1;" d="M 13.113281 22.140625 L 17.261719 22.140625 L 17.261719 22.957031 L 13.113281 22.957031 Z M 13.113281 22.140625 "/>
</g>
</svg>
