
<svg xmlns="http://www.w3.org/2000/svg" xmlns:xlink="http://www.w3.org/1999/xlink" width="32px" height="32px" viewBox="0 0 32 32" version="1.1">
<g id="surface1">
<path style="fill-rule:nonzero;fill:rgb(5.490196%,52.156866%,80.392158%);fill-opacity:1;stroke-width:28.191782;stroke-linecap:butt;stroke-linejoin:miter;stroke:rgb(2.745098%,20.392157%,31.37255%);stroke-opacity:1;stroke-miterlimit:4;" d="M 81.5 25.0625 L 430.5 25.0625 C 461.6875 25.0625 486.9375 50.3125 486.9375 81.5 L 486.9375 430.5 C 486.9375 461.6875 461.6875 486.9375 430.5 486.9375 L 81.5 486.9375 C 50.3125 486.9375 25.0625 461.6875 25.0625 430.5 L 25.0625 81.5 C 25.0625 50.3125 50.3125 25.0625 81.5 25.0625 Z M 81.5 25.0625 " transform="matrix(0.0625,0,0,0.0625,0,0)"/>
<path style=" stroke:none;fill-rule:nonzero;fill:rgb(2.745098%,20.392157%,31.37255%);fill-opacity:1;" d="M 2.230469 2.191406 L 9.359375 2.191406 L 9.359375 29.980469 L 2.230469 29.980469 Z M 2.230469 2.191406 "/>
<path style=" stroke:none;fill-rule:evenodd;fill:rgb(100%,100%,100%);fill-opacity:1;" d="M 13.863281 9.664062 C 15.816406 8.59375 19.769531 8.382812 21.066406 10.078125 C 21.53125 8.0625 24 6.496094 27.277344 6.308594 C 25.714844 5.9375 23.121094 4.910156 20.320312 8 C 15.925781 6.640625 14.257812 9.136719 13.863281 9.664062 Z M 13.863281 9.664062 "/>
<path style=" stroke:none;fill-rule:evenodd;fill:rgb(100%,100%,100%);fill-opacity:1;" d="M 6.246094 20.363281 C 9.4375 18.371094 16.074219 17.628906 18.425781 20.363281 C 19.019531 16.921875 23.027344 14.042969 28.535156 13.402344 C 25.867188 12.929688 21.390625 11.449219 16.972656 16.933594 C 9.425781 15.066406 6.859375 19.4375 6.246094 20.363281 Z M 6.246094 20.363281 "/>
</g>
</svg>
