
<svg xmlns="http://www.w3.org/2000/svg" xmlns:xlink="http://www.w3.org/1999/xlink" width="32px" height="32px" viewBox="0 0 32 32" version="1.1">
<g id="surface1">
<path style="fill-rule:nonzero;fill:rgb(83.529413%,90.588236%,92.156863%);fill-opacity:1;stroke-width:7.034781;stroke-linecap:butt;stroke-linejoin:miter;stroke:rgb(20.392157%,52.941179%,4.705882%);stroke-opacity:1;stroke-miterlimit:4;" d="M 20.453125 6.390625 L 107.546875 6.390625 C 115.328125 6.390625 121.609375 12.671875 121.609375 20.453125 L 121.609375 107.546875 C 121.609375 115.328125 115.328125 121.609375 107.546875 121.609375 L 20.453125 121.609375 C 12.671875 121.609375 6.390625 115.328125 6.390625 107.546875 L 6.390625 20.453125 C 6.390625 12.671875 12.671875 6.390625 20.453125 6.390625 Z M 20.453125 6.390625 " transform="matrix(0.25,0,0,0.25,0,0)"/>
<path style=" stroke:none;fill-rule:nonzero;fill:rgb(20.392157%,52.941179%,4.705882%);fill-opacity:1;" d="M 16.324219 7.210938 C 21.902344 7.210938 26.425781 11.734375 26.425781 17.3125 C 26.425781 22.894531 21.902344 27.414062 16.324219 27.414062 C 10.742188 27.414062 6.222656 22.894531 6.222656 17.3125 C 6.222656 11.734375 10.742188 7.210938 16.324219 7.210938 Z M 16.324219 7.210938 "/>
<path style=" stroke:none;fill-rule:nonzero;fill:rgb(100%,100%,100%);fill-opacity:1;" d="M 10.007812 4.6875 L 10.007812 17.3125 C 10.007812 20.800781 12.835938 23.628906 16.324219 23.628906 C 19.808594 23.628906 22.636719 20.800781 22.636719 17.3125 C 22.636719 13.824219 19.808594 11 16.324219 11 L 16.324219 14.15625 C 18.066406 14.15625 19.480469 15.570312 19.480469 17.3125 C 19.480469 19.058594 18.066406 20.472656 16.324219 20.472656 C 14.578125 20.472656 13.164062 19.058594 13.164062 17.3125 L 13.164062 4.6875 Z M 10.007812 4.6875 "/>
</g>
</svg>
