
<svg xmlns="http://www.w3.org/2000/svg" xmlns:xlink="http://www.w3.org/1999/xlink" width="32px" height="32px" viewBox="0 0 32 32" version="1.1">
<g id="surface1">
<path style=" stroke:none;fill-rule:nonzero;fill:rgb(17.254902%,24.313726%,31.37255%);fill-opacity:1;" d="M 2.667969 2.667969 L 2.667969 29.332031 L 29.332031 29.332031 L 29.332031 2.667969 Z M 4.667969 4.667969 L 6.667969 4.667969 L 6.667969 6.667969 L 4.667969 6.667969 Z M 25.332031 4.667969 L 27.332031 4.667969 L 27.332031 6.667969 L 25.332031 6.667969 Z M 4.667969 9.667969 L 6.667969 9.667969 L 6.667969 11.667969 L 4.667969 11.667969 Z M 25.332031 9.667969 L 27.332031 9.667969 L 27.332031 11.667969 L 25.332031 11.667969 Z M 4.667969 15 L 6.667969 15 L 6.667969 17 L 4.667969 17 Z M 25.332031 15 L 27.332031 15 L 27.332031 17 L 25.332031 17 Z M 4.667969 20.332031 L 6.667969 20.332031 L 6.667969 22.332031 L 4.667969 22.332031 Z M 25.332031 20.332031 L 27.332031 20.332031 L 27.332031 22.332031 L 25.332031 22.332031 Z M 4.667969 25.332031 L 6.667969 25.332031 L 6.667969 27.332031 L 4.667969 27.332031 Z M 25.332031 25.332031 L 27.332031 25.332031 L 27.332031 27.332031 L 25.332031 27.332031 Z M 25.332031 25.332031 "/>
<path style=" stroke:none;fill-rule:nonzero;fill:rgb(20.392157%,59.607846%,85.882354%);fill-opacity:1;" d="M 8.667969 4.667969 L 23.332031 4.667969 L 23.332031 10 L 8.667969 10 Z M 8.667969 4.667969 "/>
<path style=" stroke:none;fill-rule:nonzero;fill:rgb(20.392157%,59.607846%,85.882354%);fill-opacity:1;" d="M 8.667969 22 L 23.332031 22 L 23.332031 27.332031 L 8.667969 27.332031 Z M 8.667969 22 "/>
<path style=" stroke:none;fill-rule:nonzero;fill:rgb(20.392157%,59.607846%,85.882354%);fill-opacity:1;" d="M 8.667969 11.332031 L 23.332031 11.332031 L 23.332031 20.667969 L 8.667969 20.667969 Z M 8.667969 11.332031 "/>
<path style=" stroke:none;fill-rule:evenodd;fill:rgb(92.54902%,94.117647%,94.509804%);fill-opacity:1;" d="M 13.308594 19.667969 L 18.691406 16 L 13.308594 12.332031 Z M 13.308594 19.667969 "/>
</g>
</svg>
