
<svg xmlns="http://www.w3.org/2000/svg" xmlns:xlink="http://www.w3.org/1999/xlink" width="32px" height="32px" viewBox="0 0 32 32" version="1.1">
<g id="surface1">
<path style="fill-rule:nonzero;fill:rgb(100%,78.823531%,18.039216%);fill-opacity:1;stroke-width:28.191782;stroke-linecap:butt;stroke-linejoin:miter;stroke:rgb(2.745098%,20.392157%,31.37255%);stroke-opacity:1;stroke-miterlimit:4;" d="M 81.5 25.0625 L 430.5 25.0625 C 461.6875 25.0625 486.9375 50.3125 486.9375 81.5 L 486.9375 430.5 C 486.9375 461.6875 461.6875 486.9375 430.5 486.9375 L 81.5 486.9375 C 50.3125 486.9375 25.0625 461.6875 25.0625 430.5 L 25.0625 81.5 C 25.0625 50.3125 50.3125 25.0625 81.5 25.0625 Z M 81.5 25.0625 " transform="matrix(0.0625,0,0,0.0625,0,0)"/>
<path style=" stroke:none;fill-rule:nonzero;fill:rgb(2.745098%,20.392157%,31.37255%);fill-opacity:1;" d="M 2.230469 2.191406 L 9.359375 2.191406 L 9.359375 29.980469 L 2.230469 29.980469 Z M 2.230469 2.191406 "/>
<path style=" stroke:none;fill-rule:evenodd;fill:rgb(100%,100%,100%);fill-opacity:1;" d="M 12.949219 6.707031 C 14.484375 5.863281 17.59375 5.699219 18.613281 7.03125 C 18.980469 5.445312 20.921875 4.214844 23.5 4.066406 C 22.273438 3.773438 20.230469 2.964844 18.027344 5.398438 C 14.570312 4.328125 13.257812 6.292969 12.949219 6.707031 Z M 12.949219 6.707031 "/>
<path style=" stroke:none;fill-rule:evenodd;fill:rgb(100%,100%,100%);fill-opacity:1;" d="M 6.957031 15.121094 C 9.464844 13.554688 14.6875 12.972656 16.539062 15.121094 C 17.003906 12.414062 20.160156 10.152344 24.488281 9.648438 C 22.394531 9.273438 18.871094 8.109375 15.394531 12.425781 C 9.457031 10.957031 7.4375 14.394531 6.957031 15.121094 Z M 6.957031 15.121094 "/>
<path style="fill:none;stroke-width:32.948002;stroke-linecap:butt;stroke-linejoin:miter;stroke:rgb(100%,100%,100%);stroke-opacity:1;stroke-miterlimit:4;" d="M 252.75 341.5625 C 284.9375 295.75 348.875 287.1875 351 373.875 C 353.1875 462.0625 412.5625 441.8125 440.875 403.9375 " transform="matrix(0.0625,0,0,0.0625,0,0)"/>
</g>
</svg>
