
<svg xmlns="http://www.w3.org/2000/svg" xmlns:xlink="http://www.w3.org/1999/xlink" width="32px" height="32px" viewBox="0 0 32 32" version="1.1">
<g id="surface1">
<path style="fill-rule:nonzero;fill:rgb(100%,100%,100%);fill-opacity:1;stroke-width:28.971884;stroke-linecap:butt;stroke-linejoin:miter;stroke:rgb(17.254902%,28.235295%,60.000002%);stroke-opacity:1;stroke-miterlimit:4;" d="M 84.546167 20.033175 L 443.171167 20.033175 C 475.171167 20.033175 501.171167 46.033175 501.171167 78.033175 L 501.171167 436.658175 C 501.171167 468.658175 475.171167 494.658175 443.171167 494.658175 L 84.546167 494.658175 C 52.546167 494.658175 26.546167 468.658175 26.546167 436.658175 L 26.546167 78.033175 C 26.546167 46.033175 52.546167 20.033175 84.546167 20.033175 Z M 84.546167 20.033175 " transform="matrix(0.0625,0,0,0.0625,-0.491167,-0.0841047)"/>
<path style=" stroke:none;fill-rule:nonzero;fill:rgb(25.490198%,41.176471%,88.235295%);fill-opacity:1;" d="M 15.019531 28.578125 C 12.550781 28.351562 10.335938 27.503906 8.363281 26.03125 C 7.691406 25.53125 6.472656 24.308594 5.96875 23.636719 C 4.921875 22.238281 4.199219 20.742188 3.792969 19.132812 C 3.496094 17.949219 3.417969 17.324219 3.417969 16 C 3.417969 14.679688 3.496094 14.050781 3.792969 12.871094 C 4.367188 10.605469 5.605469 8.496094 7.308594 6.875 C 9.207031 5.070312 11.550781 3.929688 14.207031 3.519531 C 15.070312 3.382812 16.933594 3.382812 17.800781 3.519531 C 20.574219 3.949219 22.933594 5.136719 24.902344 7.101562 C 26.550781 8.746094 27.648438 10.660156 28.207031 12.871094 C 28.503906 14.050781 28.582031 14.679688 28.582031 16 C 28.582031 17.324219 28.503906 17.949219 28.207031 19.132812 C 27.316406 22.636719 24.941406 25.59375 21.683594 27.242188 C 20.449219 27.867188 19.207031 28.265625 17.855469 28.472656 C 17.300781 28.558594 15.519531 28.625 15.019531 28.578125 Z M 17.550781 26.488281 C 19.605469 25.941406 21.429688 24.097656 22.511719 21.460938 C 23.449219 19.160156 23.734375 16.28125 23.28125 13.570312 C 22.730469 10.257812 20.925781 7.386719 18.6875 6.261719 C 17.800781 5.816406 17.207031 5.667969 16.273438 5.667969 C 15.714844 5.667969 15.492188 5.695312 15.058594 5.808594 C 13.097656 6.324219 11.476562 7.828125 10.34375 10.1875 C 9.480469 11.984375 9.066406 13.910156 9.066406 16.121094 C 9.066406 18.652344 9.613281 20.894531 10.703125 22.8125 C 11.859375 24.847656 13.425781 26.132812 15.261719 26.546875 C 15.847656 26.675781 16.933594 26.652344 17.550781 26.488281 Z M 17.550781 26.488281 "/>
<path style=" stroke:none;fill-rule:nonzero;fill:rgb(17.254902%,28.235295%,60.000002%);fill-opacity:1;" d="M 15.277344 27.242188 C 14.335938 27.128906 13.4375 26.835938 12.511719 26.34375 C 11.808594 25.972656 11.261719 25.566406 10.621094 24.957031 C 9.664062 24.035156 9.050781 23.1875 8.417969 21.902344 C 6.824219 18.660156 6.699219 14.632812 8.085938 11.25 C 8.394531 10.496094 8.519531 10.253906 8.902344 9.621094 C 9.933594 7.921875 11.417969 6.554688 13.019531 5.835938 C 14.113281 5.347656 14.894531 5.179688 16.097656 5.179688 C 17.332031 5.175781 18.175781 5.359375 19.25 5.863281 C 20.246094 6.324219 20.96875 6.839844 21.800781 7.679688 C 23.535156 9.425781 24.613281 11.730469 24.988281 14.496094 C 25.097656 15.277344 25.113281 17.027344 25.019531 17.753906 C 24.777344 19.617188 24.203125 21.359375 23.386719 22.707031 C 21.910156 25.152344 19.816406 26.71875 17.425781 27.164062 C 16.863281 27.269531 15.816406 27.308594 15.277344 27.242188 Z M 17.335938 26.410156 C 18.890625 26.027344 20.238281 24.996094 21.328125 23.347656 C 23.34375 20.296875 23.847656 15.722656 22.582031 11.925781 C 21.769531 9.488281 20.386719 7.65625 18.660156 6.722656 C 16.988281 5.824219 15.058594 5.894531 13.425781 6.917969 C 9.296875 9.511719 7.851562 16.835938 10.417969 22.15625 C 10.957031 23.269531 11.480469 24.019531 12.269531 24.796875 C 13.273438 25.785156 14.351562 26.332031 15.699219 26.53125 C 16.019531 26.578125 16.925781 26.511719 17.335938 26.410156 Z M 17.335938 26.410156 "/>
</g>
</svg>
