
<svg xmlns="http://www.w3.org/2000/svg" xmlns:xlink="http://www.w3.org/1999/xlink" width="32px" height="32px" viewBox="0 0 32 32" version="1.1">
<g id="surface1">
<path style=" stroke:none;fill-rule:evenodd;fill:rgb(29.019609%,68.235296%,90.980393%);fill-opacity:1;" d="M 3.792969 1.9375 L 28.207031 1.9375 C 29.230469 1.9375 30.0625 2.769531 30.0625 3.792969 L 30.0625 28.207031 C 30.0625 29.230469 29.230469 30.0625 28.207031 30.0625 L 3.792969 30.0625 C 2.769531 30.0625 1.9375 29.230469 1.9375 28.207031 L 1.9375 3.792969 C 1.9375 2.769531 2.769531 1.9375 3.792969 1.9375 Z M 3.792969 1.9375 "/>
<path style=" stroke:none;fill-rule:nonzero;fill:rgb(100%,100%,100%);fill-opacity:1;" d="M 8.566406 28.808594 C 9.363281 28.128906 10.394531 26.324219 10.996094 25.5625 C 11.222656 25.480469 11.207031 25.335938 10.941406 24.972656 C 10.816406 24.808594 10.652344 24.445312 10.578125 24.164062 C 10.5 23.886719 10.363281 23.4375 10.269531 23.167969 C 10.457031 23.320312 10.824219 23.105469 10.996094 23.273438 C 12.339844 24.558594 13.480469 24.863281 13.777344 24.863281 C 17.050781 24.832031 20.621094 22.488281 20.929688 19.40625 C 21.046875 18.175781 20.667969 16.355469 19.871094 15.433594 C 18.679688 13.75 16.347656 13.164062 13.585938 14.371094 C 12.324219 14.945312 10.097656 16.402344 9.050781 17.363281 C 6.816406 19.410156 6.566406 17.492188 5.910156 16.222656 C 5.664062 15.738281 5.320312 17.386719 5.328125 15.839844 C 5.332031 14.464844 5.386719 13.964844 5.589844 13.230469 C 6.285156 10.785156 8.140625 8.324219 10.203125 7.125 C 11.382812 6.4375 12.527344 6.148438 14.527344 6.035156 C 18.152344 5.832031 20.171875 5.402344 22.179688 4.121094 C 23.371094 3.359375 23.832031 3.144531 24.191406 3.527344 C 24.597656 3.957031 23.847656 4.316406 22.761719 5.886719 C 21.605469 7.566406 22.175781 8.167969 23.566406 9.851562 C 24.957031 11.53125 25.613281 13.082031 25.792969 15.136719 C 26.21875 19.941406 24.136719 23.378906 19.839844 24.972656 C 19.324219 25.167969 18.367188 25.445312 17.714844 25.597656 C 17.066406 25.746094 16.058594 25.972656 15.472656 26.105469 C 13.257812 26.613281 10.863281 27.558594 9.339844 28.53125 C 8.675781 28.949219 8.566406 28.988281 8.566406 28.808594 Z M 8.566406 28.808594 "/>
<path style=" stroke:none;fill-rule:nonzero;fill:rgb(0%,0%,0%);fill-opacity:1;" d="M 10.535156 26.121094 C 11.480469 24.765625 11.253906 25.8125 10.953125 25.238281 C 10.574219 24.761719 9.886719 22.449219 10.070312 22.277344 C 10.113281 22.234375 10.566406 22.609375 11.078125 23.109375 C 12.160156 24.160156 13.019531 24.609375 14.382812 24.824219 C 19.65625 24.769531 22.261719 20.574219 22.289062 17.308594 C 22.335938 15.691406 21.433594 11.976562 19.628906 11.949219 C 18.285156 12.179688 17.863281 14.433594 18.175781 15.472656 C 18.363281 16.023438 18.445312 17.152344 18.269531 17.316406 C 18.050781 17.527344 17.167969 17.203125 16.394531 16.402344 C 15.710938 15.695312 15.605469 15.554688 15.660156 14.621094 C 15.699219 13.871094 15.441406 12.777344 14.886719 12.449219 C 12.527344 11.136719 7.726562 12.164062 7.644531 14.769531 C 7.628906 15.691406 8.117188 16.574219 9.035156 17.125 C 9.300781 17.28125 9.269531 17.269531 8.042969 18.15625 C 6.253906 19.457031 5.257812 18.910156 5.074219 16.644531 C 4.933594 14.851562 5.410156 12.695312 6.316406 11.046875 C 7.550781 8.800781 9.40625 7.105469 11.371094 6.429688 C 12.441406 6.058594 12.917969 5.984375 14.902344 5.871094 C 18.203125 5.679688 20.101562 5.175781 22.136719 3.949219 C 23.480469 3.136719 23.949219 2.96875 24.222656 3.1875 C 24.378906 3.3125 24.417969 3.484375 24.375 3.902344 C 24.332031 4.339844 24.152344 4.6875 23.503906 5.605469 C 23.058594 6.242188 22.636719 6.941406 22.574219 7.164062 C 22.351562 7.890625 22.597656 8.507812 23.566406 9.652344 C 28.800781 16.808594 25.636719 24.074219 17.042969 25.933594 C 13.433594 26.71875 11.59375 27.339844 9.796875 28.378906 C 9.191406 28.730469 8.519531 28.972656 8.480469 28.972656 C 9.027344 27.851562 9.90625 26.996094 10.535156 26.121094 Z M 10.535156 26.121094 "/>
</g>
</svg>
