
<svg xmlns="http://www.w3.org/2000/svg" xmlns:xlink="http://www.w3.org/1999/xlink" width="32px" height="32px" viewBox="0 0 32 32" version="1.1">
<g id="surface1">
<path style=" stroke:none;fill-rule:nonzero;fill:rgb(100%,100%,100%);fill-opacity:1;" d="M 11.753906 4.234375 C 11.273438 4.234375 10.886719 4.492188 10.886719 4.8125 L 10.886719 6.195312 L 7.738281 6.195312 C 7.054688 6.195312 6.507812 6.5625 6.507812 7.019531 L 6.507812 26.941406 C 6.507812 27.398438 7.054688 27.765625 7.738281 27.765625 L 24.261719 27.765625 C 24.945312 27.765625 25.492188 27.398438 25.492188 26.941406 L 25.492188 7.019531 C 25.492188 6.5625 24.945312 6.195312 24.261719 6.195312 L 21.113281 6.195312 L 21.113281 4.8125 C 21.113281 4.492188 20.726562 4.234375 20.246094 4.234375 Z M 11.753906 4.234375 "/>
<path style=" stroke:none;fill-rule:evenodd;fill:rgb(100%,100%,100%);fill-opacity:1;" d="M 16 9.078125 L 11.050781 17.382812 L 16 17.382812 L 16 22.921875 L 20.949219 14.613281 L 16 14.613281 Z M 16 9.078125 "/>
<path style="fill-rule:nonzero;fill:rgb(100%,100%,100%);fill-opacity:1;stroke-width:28.448776;stroke-linecap:butt;stroke-linejoin:miter;stroke:rgb(16.862746%,61.960787%,34.901962%);stroke-opacity:1;stroke-miterlimit:4;" d="M 79.875 23 L 432.125 23 C 463.5625 23 489 48.4375 489 79.875 L 489 432.125 C 489 463.5625 463.5625 489 432.125 489 L 79.875 489 C 48.4375 489 23 463.5625 23 432.125 L 23 79.875 C 23 48.4375 48.4375 23 79.875 23 Z M 79.875 23 " transform="matrix(0.0625,0,0,0.0625,0,0)"/>
<path style=" stroke:none;fill-rule:nonzero;fill:rgb(16.862746%,61.960787%,34.901962%);fill-opacity:1;" d="M 12.621094 4.894531 C 12.238281 4.894531 11.933594 5.097656 11.933594 5.355469 L 11.933594 6.773438 C 11.933594 6.777344 11.933594 6.785156 11.933594 6.789062 L 8.558594 6.789062 C 7.941406 6.789062 7.449219 7.136719 7.449219 7.566406 L 7.449219 26.332031 C 7.449219 26.761719 7.941406 27.105469 8.558594 27.105469 L 23.441406 27.105469 C 24.058594 27.105469 24.550781 26.761719 24.550781 26.332031 L 24.550781 7.566406 C 24.550781 7.136719 24.058594 6.789062 23.441406 6.789062 L 20.066406 6.789062 C 20.066406 6.785156 20.066406 6.777344 20.066406 6.773438 L 20.066406 5.355469 C 20.066406 5.097656 19.761719 4.894531 19.378906 4.894531 Z M 12.621094 4.894531 "/>
<path style=" stroke:none;fill-rule:nonzero;fill:rgb(0%,100%,0%);fill-opacity:1;" d="M 17.257812 23.851562 C 17.042969 23.578125 16.785156 22.691406 15.167969 16.652344 C 13.425781 10.152344 13.550781 10.558594 13.402344 10.839844 C 13.34375 10.957031 12.957031 12.296875 12.542969 13.816406 C 12.121094 15.386719 11.699219 16.660156 11.574219 16.761719 C 11.410156 16.886719 10.523438 16.9375 8.269531 16.9375 C 5.5625 16.9375 5.15625 16.910156 4.949219 16.699219 C 4.722656 16.472656 4.726562 16.441406 5.023438 16.199219 C 5.304688 15.972656 5.652344 15.945312 8.152344 15.945312 L 10.972656 15.945312 L 11.128906 15.339844 C 13.121094 7.878906 13.222656 7.609375 13.742188 8.160156 C 13.84375 8.269531 14.417969 10.175781 15.015625 12.398438 C 17.707031 22.394531 17.4375 21.449219 17.582031 21.300781 C 17.628906 21.257812 17.976562 20.050781 18.359375 18.621094 C 18.742188 17.1875 19.132812 15.871094 19.226562 15.695312 C 19.394531 15.378906 19.402344 15.378906 23.195312 15.378906 C 26.804688 15.378906 27.003906 15.390625 27.144531 15.652344 C 27.253906 15.855469 27.234375 15.980469 27.066406 16.148438 C 26.878906 16.339844 26.339844 16.371094 23.378906 16.371094 C 21.472656 16.371094 19.914062 16.398438 19.914062 16.433594 C 19.914062 16.605469 18.054688 23.429688 17.933594 23.707031 C 17.777344 24.058594 17.472656 24.125 17.257812 23.851562 Z M 17.257812 23.851562 "/>
</g>
</svg>
