
<svg xmlns="http://www.w3.org/2000/svg" xmlns:xlink="http://www.w3.org/1999/xlink" width="32px" height="32px" viewBox="0 0 32 32" version="1.1">
<g id="surface1">
<path style="fill-rule:evenodd;fill:rgb(16.078432%,50.196081%,72.549021%);fill-opacity:1;stroke-width:5.9325;stroke-linecap:butt;stroke-linejoin:miter;stroke:rgb(0%,41.568628%,72.549021%);stroke-opacity:1;stroke-miterlimit:4;" d="M 19.066521 166.824904 L 116.400039 166.824904 C 124.006804 166.824904 130.174898 172.992998 130.174898 180.599763 L 130.174898 277.93328 C 130.174898 285.540045 124.006804 291.708139 116.400039 291.708139 L 19.066521 291.708139 C 11.459757 291.708139 5.291663 285.540045 5.291663 277.93328 L 5.291663 180.599763 C 5.291663 172.992998 11.459757 166.824904 19.066521 166.824904 Z M 19.066521 166.824904 " transform="matrix(0.236221,0,0,0.236221,0,-38.157489)"/>
<path style=" stroke:none;fill-rule:nonzero;fill:rgb(100%,100%,100%);fill-opacity:1;" d="M 6.964844 10.933594 C 6.683594 10.933594 6.683594 11.785156 6.964844 11.785156 L 18.886719 11.785156 C 19.171875 11.785156 19.171875 10.933594 18.886719 10.933594 Z M 6.964844 13.488281 C 6.683594 13.488281 6.683594 14.339844 6.964844 14.339844 C 10.402344 14.339844 15.535156 14.339844 18.886719 14.339844 C 19.171875 14.339844 19.171875 13.488281 18.886719 13.488281 C 15.101562 13.488281 10.171875 13.488281 6.964844 13.488281 Z M 6.964844 16.042969 C 6.683594 16.042969 6.683594 16.894531 6.964844 16.894531 C 8.777344 16.894531 11.519531 16.894531 12.925781 16.894531 C 13.210938 16.894531 13.210938 16.042969 12.925781 16.042969 C 11.484375 16.042969 8.855469 16.042969 6.964844 16.042969 Z M 6.964844 16.042969 "/>
<path style="fill-rule:evenodd;fill:rgb(72.941178%,9.019608%,30.588236%);fill-opacity:1;stroke-width:2.892373;stroke-linecap:butt;stroke-linejoin:miter;stroke:rgb(18.039216%,18.039216%,18.039216%);stroke-opacity:1;stroke-miterlimit:0;" d="M 22.373811 195.333736 L 22.373811 243.983958 L 26.458313 243.983958 L 36.032914 257.609989 L 36.032914 243.983958 L 87.709306 243.983958 L 87.709306 195.333736 Z M 22.373811 195.333736 " transform="matrix(0.236221,0,0,0.236221,0,-38.157489)"/>
<path style="fill-rule:evenodd;fill:rgb(0%,41.568628%,72.549021%);fill-opacity:1;stroke-width:2.892373;stroke-linecap:butt;stroke-linejoin:miter;stroke:rgb(18.039216%,18.039216%,18.039216%);stroke-opacity:1;stroke-miterlimit:0;" d="M 46.533557 204.279952 L 46.533557 250.598536 L 98.739115 250.598536 L 98.739115 262.984333 L 108.164889 250.598536 L 113.09275 250.598536 L 113.09275 204.279952 Z M 46.533557 204.279952 " transform="matrix(0.236221,0,0,0.236221,0,-38.157489)"/>
<path style=" stroke:none;fill-rule:evenodd;fill:rgb(100%,100%,100%);fill-opacity:1;" d="M 15.480469 16.011719 C 15.257812 16.628906 14.574219 16.949219 13.953125 16.722656 C 13.332031 16.496094 13.011719 15.8125 13.238281 15.191406 C 13.460938 14.574219 14.144531 14.253906 14.765625 14.476562 C 15.386719 14.699219 15.707031 15.386719 15.484375 16.003906 "/>
<path style=" stroke:none;fill-rule:evenodd;fill:rgb(100%,100%,100%);fill-opacity:1;" d="M 20.039062 16.011719 C 19.8125 16.628906 19.128906 16.949219 18.507812 16.722656 C 17.886719 16.496094 17.566406 15.8125 17.792969 15.191406 C 18.015625 14.574219 18.699219 14.253906 19.320312 14.476562 C 19.941406 14.699219 20.261719 15.386719 20.039062 16.003906 "/>
<path style=" stroke:none;fill-rule:evenodd;fill:rgb(100%,100%,100%);fill-opacity:1;" d="M 24.410156 16.011719 C 24.183594 16.628906 23.5 16.949219 22.878906 16.722656 C 22.261719 16.496094 21.941406 15.8125 22.164062 15.191406 C 22.386719 14.574219 23.074219 14.253906 23.695312 14.476562 C 24.316406 14.699219 24.636719 15.386719 24.410156 16.003906 "/>
</g>
</svg>
