
<svg xmlns="http://www.w3.org/2000/svg" xmlns:xlink="http://www.w3.org/1999/xlink" width="32px" height="32px" viewBox="0 0 32 32" version="1.1">
<g id="surface1">
<path style="fill-rule:nonzero;fill:rgb(68.627453%,86.666667%,91.37255%);fill-opacity:1;stroke-width:27.910587;stroke-linecap:butt;stroke-linejoin:miter;stroke:rgb(9.019608%,36.862746%,60.000002%);stroke-opacity:1;stroke-miterlimit:4;" d="M 83.1875 27.4375 L 428.8125 27.4375 C 459.625 27.4375 484.5625 52.375 484.5625 83.1875 L 484.5625 428.8125 C 484.5625 459.625 459.625 484.5625 428.8125 484.5625 L 83.1875 484.5625 C 52.375 484.5625 27.4375 459.625 27.4375 428.8125 L 27.4375 83.1875 C 27.4375 52.375 52.375 27.4375 83.1875 27.4375 Z M 83.1875 27.4375 " transform="matrix(0.0625,0,0,0.0625,0,0)"/>
<path style=" stroke:none;fill-rule:nonzero;fill:rgb(100%,78.431374%,17.647059%);fill-opacity:1;" d="M 21.929688 15.722656 C 21.929688 19.535156 18.835938 22.628906 15.019531 22.628906 C 11.207031 22.628906 8.113281 19.535156 8.113281 15.722656 C 8.113281 11.90625 11.207031 8.8125 15.019531 8.8125 C 18.835938 8.8125 21.929688 11.90625 21.929688 15.722656 Z M 21.929688 15.722656 "/>
<path style=" stroke:none;fill-rule:nonzero;fill:rgb(100%,100%,100%);fill-opacity:0.301961;" d="M 15.019531 8.8125 C 11.207031 8.8125 8.113281 11.90625 8.113281 15.722656 C 8.113281 15.816406 8.117188 15.914062 8.121094 16.007812 C 8.230469 12.277344 11.285156 9.304688 15.019531 9.300781 C 18.722656 9.304688 21.765625 12.222656 21.917969 15.925781 C 21.925781 15.855469 21.925781 15.789062 21.929688 15.722656 C 21.929688 11.90625 18.835938 8.8125 15.019531 8.8125 Z M 15.019531 8.8125 "/>
<path style=" stroke:none;fill-rule:nonzero;fill:rgb(98.823529%,98.823529%,98.823529%);fill-opacity:1;" d="M 13.667969 13.464844 C 11.855469 13.46875 10.191406 14.472656 9.347656 16.078125 C 8.96875 15.949219 8.574219 15.882812 8.175781 15.878906 C 6.15625 15.878906 4.519531 17.515625 4.519531 19.535156 C 4.519531 21.550781 6.15625 23.1875 8.175781 23.1875 L 18.46875 23.1875 C 20.503906 23.1875 22.152344 21.539062 22.152344 19.503906 C 22.152344 17.472656 20.503906 15.824219 18.46875 15.824219 C 18.269531 15.824219 18.070312 15.839844 17.871094 15.875 C 16.996094 14.386719 15.394531 13.46875 13.667969 13.464844 Z M 13.667969 13.464844 "/>
<path style=" stroke:none;fill-rule:nonzero;fill:rgb(91.37255%,91.764706%,92.54902%);fill-opacity:1;" d="M 20.621094 13.347656 C 19.160156 13.347656 17.8125 14.160156 17.128906 15.457031 C 16.824219 15.351562 16.503906 15.300781 16.183594 15.296875 C 14.550781 15.296875 13.230469 16.621094 13.230469 18.25 C 13.230469 19.878906 14.550781 21.203125 16.183594 21.203125 L 24.503906 21.203125 C 26.148438 21.203125 27.480469 19.871094 27.480469 18.226562 C 27.480469 16.582031 26.148438 15.253906 24.503906 15.253906 C 24.34375 15.253906 24.179688 15.265625 24.019531 15.292969 C 23.3125 14.089844 22.019531 13.347656 20.621094 13.347656 Z M 20.621094 13.347656 "/>
<path style=" stroke:none;fill-rule:nonzero;fill:rgb(100%,100%,100%);fill-opacity:0.301961;" d="M 20.621094 13.347656 C 19.289062 13.347656 18.050781 14.023438 17.328125 15.125 C 16.410156 14.082031 15.082031 13.46875 13.667969 13.464844 C 11.855469 13.46875 10.191406 14.472656 9.347656 16.078125 C 8.96875 15.949219 8.574219 15.882812 8.175781 15.878906 C 6.15625 15.878906 4.519531 17.515625 4.519531 19.535156 C 4.519531 19.617188 4.523438 19.699219 4.527344 19.777344 C 4.65625 17.875 6.238281 16.371094 8.175781 16.371094 C 8.574219 16.371094 8.96875 16.4375 9.347656 16.566406 C 10.191406 14.960938 11.855469 13.957031 13.667969 13.957031 C 15.082031 13.957031 16.410156 14.574219 17.328125 15.613281 C 18.050781 14.511719 19.289062 13.835938 20.621094 13.835938 C 22.019531 13.839844 23.3125 14.578125 24.019531 15.78125 C 24.179688 15.753906 24.34375 15.742188 24.503906 15.738281 C 26.066406 15.738281 27.34375 16.941406 27.46875 18.472656 C 27.476562 18.390625 27.480469 18.308594 27.480469 18.226562 C 27.480469 16.582031 26.148438 15.253906 24.503906 15.253906 C 24.34375 15.253906 24.179688 15.265625 24.019531 15.292969 C 23.3125 14.089844 22.019531 13.347656 20.621094 13.347656 Z M 20.621094 13.347656 "/>
</g>
</svg>
