
<svg xmlns="http://www.w3.org/2000/svg" xmlns:xlink="http://www.w3.org/1999/xlink" width="32px" height="32px" viewBox="0 0 32 32" version="1.1">
<defs>
<clipPath id="clip1">
  <path d="M 2.25 2.25 L 29.75 2.25 L 29.75 29.75 L 2.25 29.75 Z M 2.25 2.25 "/>
</clipPath>
<clipPath id="clip2">
  <path d="M 5.613281 2.261719 L 26.386719 2.261719 C 28.238281 2.261719 29.738281 3.761719 29.738281 5.613281 L 29.738281 26.386719 C 29.738281 28.238281 28.238281 29.738281 26.386719 29.738281 L 5.613281 29.738281 C 3.761719 29.738281 2.261719 28.238281 2.261719 26.386719 L 2.261719 5.613281 C 2.261719 3.761719 3.761719 2.261719 5.613281 2.261719 Z M 5.613281 2.261719 "/>
</clipPath>
<clipPath id="clip3">
  <path d="M 15.5625 5.8125 L 29.75 5.8125 L 29.75 28.5 L 15.5625 28.5 Z M 15.5625 5.8125 "/>
</clipPath>
<clipPath id="clip4">
  <path d="M 5.613281 2.261719 L 26.386719 2.261719 C 28.238281 2.261719 29.738281 3.761719 29.738281 5.613281 L 29.738281 26.386719 C 29.738281 28.238281 28.238281 29.738281 26.386719 29.738281 L 5.613281 29.738281 C 3.761719 29.738281 2.261719 28.238281 2.261719 26.386719 L 2.261719 5.613281 C 2.261719 3.761719 3.761719 2.261719 5.613281 2.261719 Z M 5.613281 2.261719 "/>
</clipPath>
<clipPath id="clip5">
  <path d="M 2.25 4.3125 L 13.9375 4.3125 L 13.9375 24.5625 L 2.25 24.5625 Z M 2.25 4.3125 "/>
</clipPath>
<clipPath id="clip6">
  <path d="M 5.613281 2.261719 L 26.386719 2.261719 C 28.238281 2.261719 29.738281 3.761719 29.738281 5.613281 L 29.738281 26.386719 C 29.738281 28.238281 28.238281 29.738281 26.386719 29.738281 L 5.613281 29.738281 C 3.761719 29.738281 2.261719 28.238281 2.261719 26.386719 L 2.261719 5.613281 C 2.261719 3.761719 3.761719 2.261719 5.613281 2.261719 Z M 5.613281 2.261719 "/>
</clipPath>
<clipPath id="clip7">
  <path d="M 2.25 2.5 L 29.75 2.5 L 29.75 29.6875 L 2.25 29.6875 Z M 2.25 2.5 "/>
</clipPath>
<clipPath id="clip8">
  <path d="M 5.613281 2.261719 L 26.386719 2.261719 C 28.238281 2.261719 29.738281 3.761719 29.738281 5.613281 L 29.738281 26.386719 C 29.738281 28.238281 28.238281 29.738281 26.386719 29.738281 L 5.613281 29.738281 C 3.761719 29.738281 2.261719 28.238281 2.261719 26.386719 L 2.261719 5.613281 C 2.261719 3.761719 3.761719 2.261719 5.613281 2.261719 Z M 5.613281 2.261719 "/>
</clipPath>
</defs>
<g id="surface1">
<path style="fill-rule:nonzero;fill:rgb(21.568628%,44.313726%,78.431374%);fill-opacity:1;stroke-width:28.188719;stroke-linecap:butt;stroke-linejoin:miter;stroke:rgb(29.019609%,68.235296%,90.980393%);stroke-opacity:1;stroke-miterlimit:4;" d="M 81.5 25.125 L 430.5 25.125 C 461.625 25.125 486.875 50.375 486.875 81.5 L 486.875 430.5 C 486.875 461.625 461.625 486.875 430.5 486.875 L 81.5 486.875 C 50.375 486.875 25.125 461.625 25.125 430.5 L 25.125 81.5 C 25.125 50.375 50.375 25.125 81.5 25.125 Z M 81.5 25.125 " transform="matrix(0.0625,0,0,0.0625,0,0)"/>
<g clip-path="url(#clip1)" clip-rule="nonzero">
<g clip-path="url(#clip2)" clip-rule="nonzero">
<path style=" stroke:none;fill-rule:evenodd;fill:rgb(10.588235%,63.921571%,53.725493%);fill-opacity:1;" d="M 34.976562 16.050781 C 34.976562 26.527344 26.484375 35.019531 16.003906 35.019531 C 5.527344 35.019531 -2.964844 26.527344 -2.964844 16.050781 C -2.964844 5.570312 5.527344 -2.921875 16.003906 -2.921875 C 26.484375 -2.921875 34.976562 5.570312 34.976562 16.050781 "/>
</g>
</g>
<g clip-path="url(#clip3)" clip-rule="nonzero">
<g clip-path="url(#clip4)" clip-rule="nonzero">
<path style=" stroke:none;fill-rule:nonzero;fill:rgb(85.09804%,71.764708%,48.627451%);fill-opacity:1;" d="M 31.996094 5.835938 L 15.613281 15.222656 L 30.324219 28.492188 C 33.222656 25.160156 34.976562 20.808594 34.976562 16.050781 C 34.976562 12.289062 33.882812 8.785156 31.996094 5.835938 "/>
</g>
</g>
<g clip-path="url(#clip5)" clip-rule="nonzero">
<g clip-path="url(#clip6)" clip-rule="nonzero">
<path style=" stroke:none;fill-rule:nonzero;fill:rgb(23.921569%,57.647061%,82.745099%);fill-opacity:1;" d="M 1.074219 4.347656 C -1.457031 7.574219 -2.964844 11.636719 -2.964844 16.050781 C -2.964844 19.089844 -2.25 21.960938 -0.976562 24.507812 L 13.617188 16.417969 L 13.882812 14.558594 L 1.074219 4.347656 "/>
</g>
</g>
<g clip-path="url(#clip7)" clip-rule="nonzero">
<g clip-path="url(#clip8)" clip-rule="nonzero">
<path style=" stroke:none;fill-rule:nonzero;fill:rgb(97.647059%,87.058824%,41.176471%);fill-opacity:1;" d="M 2.722656 2.503906 C 1.980469 3.230469 1.292969 4.027344 0.675781 4.871094 L 12.597656 15.058594 L -1.746094 22.757812 C -1.355469 23.789062 -0.875 24.777344 -0.320312 25.714844 L 14.878906 17.03125 L 29.230469 29.644531 C 30.007812 28.890625 30.71875 28.074219 31.355469 27.199219 L 17.566406 15.597656 L 32.820312 7.253906 C 32.371094 6.402344 31.863281 5.585938 31.292969 4.816406 L 15.238281 13.582031 L 2.726562 2.503906 "/>
</g>
</g>
<path style=" stroke:none;fill-rule:nonzero;fill:rgb(100%,100%,100%);fill-opacity:1;" d="M 15.175781 6.0625 C 11.566406 6.0625 8.636719 8.992188 8.636719 12.605469 C 8.636719 16.214844 15.175781 23.625 15.175781 23.625 C 15.175781 23.625 21.714844 16.214844 21.714844 12.605469 C 21.714844 8.992188 18.785156 6.0625 15.175781 6.0625 M 15.175781 8.089844 C 17.667969 8.089844 19.691406 10.113281 19.691406 12.605469 C 19.691406 15.097656 17.667969 17.121094 15.175781 17.121094 C 12.683594 17.121094 10.660156 15.097656 10.660156 12.605469 C 10.660156 10.113281 12.683594 8.089844 15.175781 8.089844 M 15.0625 9.535156 C 13.433594 9.535156 12.109375 10.855469 12.109375 12.488281 C 12.109375 14.121094 13.433594 15.445312 15.0625 15.445312 C 16.695312 15.445312 18.019531 14.121094 18.019531 12.488281 C 18.019531 10.859375 16.695312 9.535156 15.066406 9.535156 "/>
</g>
</svg>
