
<svg xmlns="http://www.w3.org/2000/svg" xmlns:xlink="http://www.w3.org/1999/xlink" width="32px" height="32px" viewBox="0 0 32 32" version="1.1">
<g id="surface1">
<path style="fill-rule:nonzero;fill:rgb(99.215686%,23.529412%,33.333334%);fill-opacity:1;stroke-width:27.115198;stroke-linecap:butt;stroke-linejoin:miter;stroke:rgb(0%,34.509805%,41.960785%);stroke-opacity:1;stroke-miterlimit:4;" d="M 64.625 22.0625 L 447.375 22.0625 C 467.9375 22.0625 484.625 38.6875 484.625 59.3125 L 484.625 452.6875 C 484.625 473.3125 467.9375 489.9375 447.375 489.9375 L 64.625 489.9375 C 44.0625 489.9375 27.375 473.3125 27.375 452.6875 L 27.375 59.3125 C 27.375 38.6875 44.0625 22.0625 64.625 22.0625 Z M 64.625 22.0625 " transform="matrix(0.0625,0,0,0.0625,0,0)"/>
<path style=" stroke:none;fill-rule:nonzero;fill:rgb(100%,98.039216%,98.039216%);fill-opacity:1;" d="M 11.300781 24.964844 C 12.5625 24.605469 13.421875 23.695312 13.589844 22.535156 C 13.628906 22.246094 13.660156 20.066406 13.660156 17.308594 L 13.664062 12.578125 L 13.824219 12.472656 C 14.375 12.121094 17.382812 11.550781 20.265625 11.246094 C 21.230469 11.140625 21.410156 11.136719 21.464844 11.222656 C 21.5 11.277344 21.519531 12.707031 21.511719 14.433594 L 21.492188 17.539062 L 20.878906 17.515625 C 20.089844 17.484375 19.542969 17.589844 18.902344 17.894531 C 18.226562 18.214844 17.726562 18.683594 17.433594 19.28125 C 17.226562 19.703125 17.203125 19.816406 17.203125 20.363281 C 17.207031 21.09375 17.351562 21.472656 17.839844 21.996094 C 18.773438 22.988281 20.417969 23.199219 21.808594 22.5 C 22.730469 22.039062 23.304688 21.292969 23.457031 20.351562 C 23.503906 20.0625 23.53125 17.347656 23.53125 12.84375 C 23.53125 6.152344 23.523438 5.785156 23.402344 5.722656 C 23.136719 5.578125 20.542969 5.820312 18.453125 6.183594 C 16.355469 6.542969 12.074219 7.589844 11.824219 7.800781 C 11.753906 7.855469 11.730469 9.160156 11.714844 13.816406 L 11.695312 19.753906 L 10.910156 19.734375 C 10.355469 19.714844 10 19.746094 9.699219 19.824219 C 8.765625 20.074219 7.953125 20.710938 7.566406 21.492188 C 7.359375 21.917969 7.335938 22.03125 7.335938 22.574219 C 7.339844 23.3125 7.507812 23.71875 8.03125 24.242188 C 8.820312 25.035156 10.070312 25.308594 11.300781 24.964844 Z M 11.300781 24.964844 "/>
</g>
</svg>
