
<svg xmlns="http://www.w3.org/2000/svg" xmlns:xlink="http://www.w3.org/1999/xlink" width="32px" height="32px" viewBox="0 0 32 32" version="1.1">
<g id="surface1">
<path style="fill-rule:nonzero;fill:rgb(92.156863%,92.156863%,92.156863%);fill-opacity:1;stroke-width:27.276072;stroke-linecap:butt;stroke-linejoin:miter;stroke:rgb(0%,65.882355%,83.137256%);stroke-opacity:1;stroke-miterlimit:4;" d="M 87.1875 32.5625 L 424.8125 32.5625 C 455 32.5625 479.4375 57 479.4375 87.1875 L 479.4375 424.8125 C 479.4375 455 455 479.4375 424.8125 479.4375 L 87.1875 479.4375 C 57 479.4375 32.5625 455 32.5625 424.8125 L 32.5625 87.1875 C 32.5625 57 57 32.5625 87.1875 32.5625 Z M 87.1875 32.5625 " transform="matrix(0.0625,0,0,0.0625,0,0)"/>
<path style=" stroke:none;fill-rule:nonzero;fill:rgb(100%,100%,0%);fill-opacity:1;" d="M 13.429688 7.664062 C 8.449219 7.664062 4.414062 11.699219 4.414062 16.675781 C 4.414062 21.65625 8.449219 25.691406 13.429688 25.691406 C 16.785156 25.691406 19.863281 23.824219 21.417969 20.84375 L 14.378906 16.902344 L 21.972656 13.832031 C 20.746094 10.152344 17.308594 7.667969 13.429688 7.664062 Z M 13.429688 7.664062 "/>
<path style=" stroke:none;fill-rule:nonzero;fill:rgb(0%,100%,100%);fill-opacity:1;" d="M 13.894531 12.476562 C 13.894531 13.234375 13.28125 13.847656 12.523438 13.847656 C 11.765625 13.847656 11.152344 13.234375 11.152344 12.476562 C 11.152344 11.722656 11.765625 11.105469 12.523438 11.105469 C 13.28125 11.105469 13.894531 11.722656 13.894531 12.476562 Z M 13.894531 12.476562 "/>
<path style=" stroke:none;fill-rule:evenodd;fill:rgb(40.000001%,69.01961%,88.235295%);fill-opacity:1;" d="M 4.511719 3.355469 L 4.511719 4.527344 L 2.078125 4.527344 L 2.078125 4.714844 L 4.511719 4.714844 L 4.511719 8.316406 L 2.078125 8.316406 L 2.078125 8.503906 L 4.511719 8.503906 L 4.511719 12.101562 L 2.078125 12.101562 L 2.078125 12.292969 L 4.511719 12.292969 L 4.511719 15.894531 L 2.078125 15.894531 L 2.078125 16.082031 L 4.511719 16.082031 L 4.511719 19.679688 L 2.078125 19.679688 L 2.078125 19.871094 L 4.511719 19.871094 L 4.511719 23.46875 L 2.078125 23.46875 L 2.078125 23.660156 L 4.511719 23.660156 L 4.511719 27.257812 L 2.078125 27.257812 L 2.078125 27.449219 L 4.511719 27.449219 L 4.511719 28.617188 L 4.699219 28.617188 L 4.699219 27.449219 L 8.296875 27.449219 L 8.296875 28.617188 L 8.488281 28.617188 L 8.488281 27.449219 L 12.085938 27.449219 L 12.085938 28.617188 L 12.277344 28.617188 L 12.277344 27.449219 L 15.875 27.449219 L 15.875 28.617188 L 16.066406 28.617188 L 16.066406 27.449219 L 19.664062 27.449219 L 19.664062 28.617188 L 19.855469 28.617188 L 19.855469 27.449219 L 23.453125 27.449219 L 23.453125 28.617188 L 23.644531 28.617188 L 23.644531 27.449219 L 27.238281 27.449219 L 27.238281 28.617188 L 27.429688 28.617188 L 27.429688 27.449219 L 29.863281 27.449219 L 29.863281 27.257812 L 27.429688 27.257812 L 27.429688 23.660156 L 29.863281 23.660156 L 29.863281 23.46875 L 27.429688 23.46875 L 27.429688 19.871094 L 29.863281 19.871094 L 29.863281 19.679688 L 27.429688 19.679688 L 27.429688 16.082031 L 29.863281 16.082031 L 29.863281 15.894531 L 27.429688 15.894531 L 27.429688 12.292969 L 29.863281 12.292969 L 29.863281 12.101562 L 27.429688 12.101562 L 27.429688 8.503906 L 29.863281 8.503906 L 29.863281 8.316406 L 27.429688 8.316406 L 27.429688 4.714844 L 29.863281 4.714844 L 29.863281 4.527344 L 27.429688 4.527344 L 27.429688 3.355469 L 27.238281 3.355469 L 27.238281 4.527344 L 23.644531 4.527344 L 23.644531 3.355469 L 23.453125 3.355469 L 23.453125 4.527344 L 19.855469 4.527344 L 19.855469 3.355469 L 19.664062 3.355469 L 19.664062 4.527344 L 16.066406 4.527344 L 16.066406 3.355469 L 15.875 3.355469 L 15.875 4.527344 L 12.277344 4.527344 L 12.277344 3.355469 L 12.085938 3.355469 L 12.085938 4.527344 L 8.488281 4.527344 L 8.488281 3.355469 L 8.296875 3.355469 L 8.296875 4.527344 L 4.699219 4.527344 L 4.699219 3.355469 Z M 4.699219 4.714844 L 8.296875 4.714844 L 8.296875 8.316406 L 4.699219 8.316406 Z M 8.488281 4.714844 L 12.085938 4.714844 L 12.085938 8.316406 L 8.488281 8.316406 Z M 12.277344 4.714844 L 15.875 4.714844 L 15.875 8.316406 L 12.277344 8.316406 Z M 16.066406 4.714844 L 19.664062 4.714844 L 19.664062 8.316406 L 16.066406 8.316406 Z M 19.855469 4.714844 L 23.453125 4.714844 L 23.453125 8.316406 L 19.855469 8.316406 Z M 23.644531 4.714844 L 27.238281 4.714844 L 27.238281 8.316406 L 23.644531 8.316406 Z M 4.699219 8.503906 L 8.296875 8.503906 L 8.296875 12.101562 L 4.699219 12.101562 Z M 8.488281 8.503906 L 12.085938 8.503906 L 12.085938 12.101562 L 8.488281 12.101562 Z M 12.277344 8.503906 L 15.875 8.503906 L 15.875 12.101562 L 12.277344 12.101562 Z M 16.066406 8.503906 L 19.664062 8.503906 L 19.664062 12.101562 L 16.066406 12.101562 Z M 19.855469 8.503906 L 23.453125 8.503906 L 23.453125 12.101562 L 19.855469 12.101562 Z M 23.644531 8.503906 L 27.238281 8.503906 L 27.238281 12.101562 L 23.644531 12.101562 Z M 4.699219 12.292969 L 8.296875 12.292969 L 8.296875 15.894531 L 4.699219 15.894531 Z M 8.488281 12.292969 L 12.085938 12.292969 L 12.085938 15.894531 L 8.488281 15.894531 Z M 12.277344 12.292969 L 15.875 12.292969 L 15.875 15.894531 L 12.277344 15.894531 Z M 16.066406 12.292969 L 19.664062 12.292969 L 19.664062 15.894531 L 16.066406 15.894531 Z M 19.855469 12.292969 L 23.453125 12.292969 L 23.453125 15.894531 L 19.855469 15.894531 Z M 23.644531 12.292969 L 27.238281 12.292969 L 27.238281 15.894531 L 23.644531 15.894531 Z M 4.699219 16.082031 L 8.296875 16.082031 L 8.296875 19.679688 L 4.699219 19.679688 Z M 8.488281 16.082031 L 12.085938 16.082031 L 12.085938 19.679688 L 8.488281 19.679688 Z M 12.277344 16.082031 L 15.875 16.082031 L 15.875 19.679688 L 12.277344 19.679688 Z M 16.066406 16.082031 L 19.664062 16.082031 L 19.664062 19.679688 L 16.066406 19.679688 Z M 19.855469 16.082031 L 23.453125 16.082031 L 23.453125 19.679688 L 19.855469 19.679688 Z M 23.644531 16.082031 L 27.238281 16.082031 L 27.238281 19.679688 L 23.644531 19.679688 Z M 4.699219 19.871094 L 8.296875 19.871094 L 8.296875 23.46875 L 4.699219 23.46875 Z M 8.488281 19.871094 L 12.085938 19.871094 L 12.085938 23.46875 L 8.488281 23.46875 Z M 12.277344 19.871094 L 15.875 19.871094 L 15.875 23.46875 L 12.277344 23.46875 Z M 16.066406 19.871094 L 19.664062 19.871094 L 19.664062 23.46875 L 16.066406 23.46875 Z M 19.855469 19.871094 L 23.453125 19.871094 L 23.453125 23.46875 L 19.855469 23.46875 Z M 23.644531 19.871094 L 27.238281 19.871094 L 27.238281 23.46875 L 23.644531 23.46875 Z M 4.699219 23.660156 L 8.296875 23.660156 L 8.296875 27.257812 L 4.699219 27.257812 Z M 8.488281 23.660156 L 12.085938 23.660156 L 12.085938 27.257812 L 8.488281 27.257812 Z M 12.277344 23.660156 L 15.875 23.660156 L 15.875 27.257812 L 12.277344 27.257812 Z M 16.066406 23.660156 L 19.664062 23.660156 L 19.664062 27.257812 L 16.066406 27.257812 Z M 19.855469 23.660156 L 23.453125 23.660156 L 23.453125 27.257812 L 19.855469 27.257812 Z M 23.644531 23.660156 L 27.238281 23.660156 L 27.238281 27.257812 L 23.644531 27.257812 Z M 23.644531 23.660156 "/>
<path style=" stroke:none;fill-rule:nonzero;fill:rgb(100%,100%,0%);fill-opacity:1;" d="M 23.65625 17.359375 C 23.65625 18.117188 23.042969 18.730469 22.285156 18.730469 C 21.527344 18.730469 20.914062 18.117188 20.914062 17.359375 C 20.914062 16.601562 21.527344 15.988281 22.285156 15.988281 C 23.042969 15.988281 23.65625 16.601562 23.65625 17.359375 Z M 23.65625 17.359375 "/>
<path style=" stroke:none;fill-rule:nonzero;fill:rgb(100%,100%,0%);fill-opacity:1;" d="M 27.316406 17.359375 C 27.316406 18.117188 26.699219 18.730469 25.941406 18.730469 C 25.183594 18.730469 24.570312 18.117188 24.570312 17.359375 C 24.570312 16.601562 25.183594 15.988281 25.941406 15.988281 C 26.699219 15.988281 27.316406 16.601562 27.316406 17.359375 Z M 27.316406 17.359375 "/>
</g>
</svg>
