
<svg xmlns="http://www.w3.org/2000/svg" xmlns:xlink="http://www.w3.org/1999/xlink" width="32px" height="32px" viewBox="0 0 32 32" version="1.1">
<g id="surface1">
<path style="fill-rule:nonzero;fill:rgb(92.54902%,92.54902%,92.54902%);fill-opacity:1;stroke-width:53.405071;stroke-linecap:butt;stroke-linejoin:miter;stroke:rgb(0%,66.666669%,83.137256%);stroke-opacity:1;stroke-miterlimit:4;" d="M 181.375 74.625 L 842.625 74.625 C 901.625 74.625 949.375 122.375 949.375 181.375 L 949.375 842.625 C 949.375 901.625 901.625 949.375 842.625 949.375 L 181.375 949.375 C 122.375 949.375 74.625 901.625 74.625 842.625 L 74.625 181.375 C 74.625 122.375 122.375 74.625 181.375 74.625 Z M 181.375 74.625 " transform="matrix(0.03125,0,0,0.03125,0,0)"/>
<path style=" stroke:none;fill-rule:nonzero;fill:rgb(0%,0%,0%);fill-opacity:0.0980392;" d="M 24.929688 7.117188 C 24.925781 6.816406 24.816406 6.5625 24.605469 6.351562 C 24.394531 6.128906 24.132812 6.019531 23.828125 6.019531 L 8.960938 6.019531 C 8.65625 6.019531 8.394531 6.128906 8.183594 6.351562 C 7.972656 6.5625 7.863281 6.820312 7.859375 7.117188 L 7.859375 26.082031 C 7.859375 26.394531 7.964844 26.660156 8.183594 26.878906 C 8.394531 27.097656 8.65625 27.207031 8.960938 27.207031 L 23.828125 27.207031 C 24.132812 27.207031 24.394531 27.097656 24.605469 26.878906 C 24.824219 26.660156 24.929688 26.394531 24.929688 26.082031 Z M 24.929688 7.117188 "/>
<path style=" stroke:none;fill-rule:nonzero;fill:rgb(80.000001%,80.000001%,80.000001%);fill-opacity:1;" d="M 24.785156 6.292969 C 24.566406 6.070312 24.300781 5.960938 23.988281 5.960938 L 8.824219 5.960938 C 8.515625 5.960938 8.25 6.070312 8.03125 6.292969 C 7.816406 6.503906 7.707031 6.761719 7.699219 7.058594 L 7.699219 23.355469 C 7.707031 23.652344 7.816406 23.910156 8.03125 24.121094 C 8.25 24.339844 8.515625 24.449219 8.824219 24.449219 L 23.988281 24.449219 C 24.300781 24.449219 24.566406 24.339844 24.785156 24.121094 C 24.996094 23.910156 25.109375 23.652344 25.113281 23.355469 L 25.113281 7.058594 C 25.109375 6.761719 24.996094 6.503906 24.785156 6.292969 Z M 24.785156 6.292969 "/>
<path style=" stroke:none;fill-rule:nonzero;fill:rgb(52.549022%,51.372552%,48.627451%);fill-opacity:0.988235;" d="M 8.03125 24.121094 C 7.816406 23.910156 7.707031 23.652344 7.699219 23.355469 L 7.699219 26.027344 C 7.699219 26.335938 7.8125 26.601562 8.03125 26.820312 C 8.25 27.039062 8.515625 27.148438 8.824219 27.148438 L 23.988281 27.148438 C 24.300781 27.148438 24.566406 27.039062 24.785156 26.820312 C 25.003906 26.601562 25.113281 26.335938 25.113281 26.027344 L 25.113281 23.355469 C 25.109375 23.652344 24.996094 23.910156 24.785156 24.121094 C 24.566406 24.339844 24.300781 24.449219 23.988281 24.449219 L 8.824219 24.449219 C 8.515625 24.449219 8.25 24.339844 8.03125 24.121094 Z M 8.03125 24.121094 "/>
<path style=" stroke:none;fill-rule:nonzero;fill:rgb(23.137255%,22.745098%,21.176471%);fill-opacity:1;" d="M 16.25 25.296875 C 16.25 25.171875 16.207031 25.066406 16.117188 24.976562 C 16.03125 24.890625 15.925781 24.847656 15.800781 24.847656 L 9.007812 24.847656 C 8.882812 24.847656 8.777344 24.890625 8.6875 24.976562 C 8.601562 25.066406 8.558594 25.171875 8.558594 25.296875 L 8.558594 25.480469 C 8.558594 25.605469 8.601562 25.710938 8.6875 25.800781 C 8.777344 25.886719 8.882812 25.929688 9.007812 25.929688 L 15.800781 25.929688 C 15.925781 25.929688 16.03125 25.886719 16.117188 25.800781 C 16.207031 25.710938 16.25 25.605469 16.25 25.480469 Z M 16.25 25.296875 "/>
<path style=" stroke:none;fill-rule:nonzero;fill:rgb(0%,0%,0%);fill-opacity:0.2;" d="M 23.707031 25.164062 C 23.613281 25.066406 23.492188 25.019531 23.351562 25.019531 C 23.214844 25.019531 23.09375 25.066406 22.996094 25.164062 C 22.898438 25.261719 22.847656 25.382812 22.847656 25.523438 C 22.847656 25.660156 22.898438 25.78125 22.996094 25.878906 C 23.09375 25.976562 23.214844 26.027344 23.351562 26.027344 C 23.492188 26.027344 23.613281 25.976562 23.707031 25.878906 C 23.808594 25.78125 23.855469 25.660156 23.855469 25.523438 C 23.855469 25.382812 23.808594 25.261719 23.707031 25.164062 Z M 22.25 25.523438 C 22.25 25.382812 22.199219 25.261719 22.101562 25.164062 C 22.003906 25.066406 21.886719 25.019531 21.746094 25.019531 C 21.605469 25.019531 21.488281 25.066406 21.386719 25.164062 C 21.289062 25.261719 21.238281 25.382812 21.238281 25.523438 C 21.238281 25.660156 21.289062 25.78125 21.386719 25.878906 C 21.488281 25.976562 21.605469 26.027344 21.746094 26.027344 C 21.886719 26.027344 22.003906 25.976562 22.101562 25.878906 C 22.199219 25.78125 22.25 25.660156 22.25 25.523438 Z M 22.25 25.523438 "/>
<path style=" stroke:none;fill-rule:nonzero;fill:rgb(100%,100%,100%);fill-opacity:0.0980392;" d="M 20.417969 19.089844 C 21.605469 17.898438 22.203125 16.464844 22.203125 14.785156 C 22.203125 13.101562 21.609375 11.667969 20.417969 10.480469 C 19.230469 9.292969 17.796875 8.699219 16.113281 8.699219 C 14.433594 8.699219 13 9.292969 11.8125 10.480469 C 10.621094 11.667969 10.027344 13.101562 10.027344 14.785156 C 10.027344 16.464844 10.621094 17.898438 11.8125 19.089844 C 13 20.277344 14.433594 20.871094 16.113281 20.871094 C 17.796875 20.871094 19.230469 20.277344 20.417969 19.089844 Z M 20.417969 19.089844 "/>
<path style=" stroke:none;fill-rule:nonzero;fill:rgb(80.000001%,80.000001%,0%);fill-opacity:1;" d="M 23.246094 25.800781 C 23.386719 25.800781 23.503906 25.753906 23.601562 25.652344 C 23.699219 25.554688 23.75 25.4375 23.75 25.296875 C 23.75 25.160156 23.699219 25.039062 23.601562 24.941406 C 23.503906 24.839844 23.386719 24.792969 23.246094 24.792969 C 23.105469 24.792969 22.988281 24.839844 22.886719 24.941406 C 22.789062 25.039062 22.742188 25.160156 22.742188 25.296875 C 22.742188 25.4375 22.789062 25.554688 22.886719 25.652344 C 22.988281 25.753906 23.105469 25.800781 23.246094 25.800781 Z M 22.144531 25.296875 C 22.144531 25.160156 22.09375 25.039062 21.996094 24.941406 C 21.898438 24.839844 21.777344 24.792969 21.636719 24.792969 C 21.5 24.792969 21.378906 24.839844 21.28125 24.941406 C 21.183594 25.039062 21.132812 25.160156 21.132812 25.296875 C 21.132812 25.4375 21.183594 25.554688 21.28125 25.652344 C 21.378906 25.753906 21.5 25.800781 21.636719 25.800781 C 21.777344 25.800781 21.898438 25.753906 21.996094 25.652344 C 22.09375 25.554688 22.144531 25.4375 22.144531 25.296875 Z M 22.144531 25.296875 "/>
<path style=" stroke:none;fill-rule:nonzero;fill:rgb(100%,100%,100%);fill-opacity:1;" d="M 19.738281 14.769531 C 19.738281 12.832031 18.125 11.257812 16.136719 11.257812 C 14.152344 11.257812 12.539062 12.832031 12.539062 14.769531 C 12.539062 16.710938 14.152344 18.285156 16.136719 18.285156 C 18.125 18.285156 19.738281 16.710938 19.738281 14.769531 Z M 19.738281 14.769531 "/>
<path style=" stroke:none;fill-rule:nonzero;fill:rgb(52.549022%,56.470591%,58.039218%);fill-opacity:1;" d="M 15.367188 20.28125 C 15.269531 20.238281 15.167969 20.128906 15.121094 20.015625 C 15.097656 19.960938 15.074219 19.742188 15.054688 19.394531 C 15.035156 19.097656 15.011719 18.835938 15.003906 18.804688 C 14.988281 18.769531 14.921875 18.730469 14.753906 18.671875 C 14.628906 18.628906 14.433594 18.550781 14.328125 18.496094 C 14.222656 18.441406 14.113281 18.398438 14.082031 18.398438 C 14.050781 18.398438 13.875 18.539062 13.628906 18.769531 C 13.40625 18.972656 13.1875 19.15625 13.144531 19.179688 C 13.054688 19.222656 12.851562 19.230469 12.746094 19.191406 C 12.660156 19.160156 11.777344 18.292969 11.722656 18.183594 C 11.667969 18.082031 11.671875 17.882812 11.738281 17.761719 C 11.765625 17.707031 11.949219 17.484375 12.152344 17.269531 C 12.363281 17.035156 12.511719 16.855469 12.511719 16.824219 C 12.511719 16.800781 12.46875 16.691406 12.417969 16.582031 C 12.363281 16.476562 12.28125 16.285156 12.238281 16.160156 C 12.191406 16.03125 12.140625 15.917969 12.117188 15.90625 C 12.097656 15.894531 11.835938 15.871094 11.542969 15.855469 C 11.199219 15.839844 10.96875 15.816406 10.902344 15.789062 C 10.773438 15.746094 10.628906 15.589844 10.605469 15.476562 C 10.597656 15.433594 10.597656 15.097656 10.597656 14.730469 L 10.605469 14.066406 L 10.683594 13.972656 C 10.816406 13.800781 10.882812 13.785156 11.527344 13.746094 C 11.890625 13.722656 12.113281 13.699219 12.128906 13.679688 C 12.148438 13.664062 12.203125 13.539062 12.253906 13.402344 C 12.304688 13.261719 12.382812 13.074219 12.429688 12.984375 C 12.476562 12.894531 12.511719 12.796875 12.511719 12.769531 C 12.511719 12.746094 12.363281 12.558594 12.175781 12.355469 C 11.988281 12.152344 11.808594 11.949219 11.777344 11.90625 C 11.691406 11.789062 11.660156 11.644531 11.695312 11.503906 C 11.722656 11.394531 11.769531 11.335938 12.175781 10.925781 C 12.421875 10.675781 12.667969 10.449219 12.71875 10.421875 C 12.835938 10.359375 13.023438 10.359375 13.140625 10.417969 C 13.191406 10.445312 13.40625 10.628906 13.621094 10.824219 C 13.835938 11.019531 14.027344 11.191406 14.042969 11.203125 C 14.066406 11.214844 14.179688 11.171875 14.320312 11.105469 C 14.457031 11.042969 14.65625 10.957031 14.765625 10.921875 C 14.917969 10.871094 14.972656 10.839844 14.996094 10.792969 C 15.011719 10.761719 15.035156 10.496094 15.054688 10.199219 C 15.085938 9.632812 15.105469 9.542969 15.222656 9.421875 C 15.351562 9.285156 15.425781 9.273438 16.152344 9.28125 L 16.816406 9.289062 L 16.917969 9.359375 C 17.097656 9.476562 17.121094 9.550781 17.160156 10.179688 C 17.179688 10.484375 17.203125 10.757812 17.210938 10.789062 C 17.21875 10.828125 17.273438 10.859375 17.449219 10.921875 C 17.578125 10.964844 17.777344 11.050781 17.898438 11.113281 C 18.019531 11.171875 18.128906 11.222656 18.140625 11.222656 C 18.152344 11.222656 18.347656 11.050781 18.570312 10.847656 C 18.792969 10.640625 19.019531 10.449219 19.074219 10.421875 C 19.191406 10.359375 19.371094 10.359375 19.503906 10.425781 C 19.566406 10.453125 19.777344 10.644531 20.042969 10.917969 C 20.5 11.378906 20.535156 11.429688 20.535156 11.636719 C 20.535156 11.785156 20.472656 11.882812 20.078125 12.316406 C 19.863281 12.550781 19.691406 12.75 19.691406 12.761719 C 19.691406 12.777344 19.746094 12.902344 19.8125 13.042969 C 19.882812 13.183594 19.964844 13.386719 19.996094 13.484375 C 20.035156 13.613281 20.066406 13.675781 20.101562 13.691406 C 20.128906 13.703125 20.402344 13.726562 20.714844 13.746094 C 21.324219 13.785156 21.425781 13.808594 21.527344 13.957031 C 21.625 14.089844 21.636719 14.195312 21.628906 14.863281 L 21.621094 15.503906 L 21.546875 15.609375 C 21.410156 15.800781 21.378906 15.808594 20.695312 15.855469 C 20.363281 15.875 20.085938 15.898438 20.078125 15.90625 C 20.070312 15.914062 20.03125 16.019531 19.988281 16.144531 C 19.941406 16.265625 19.859375 16.464844 19.796875 16.585938 C 19.738281 16.707031 19.691406 16.824219 19.695312 16.839844 C 19.699219 16.859375 19.863281 17.050781 20.0625 17.269531 C 20.261719 17.484375 20.449219 17.710938 20.480469 17.769531 C 20.546875 17.902344 20.550781 18.035156 20.496094 18.167969 C 20.449219 18.28125 19.640625 19.105469 19.511719 19.171875 C 19.402344 19.230469 19.199219 19.234375 19.082031 19.183594 C 19.042969 19.164062 18.820312 18.980469 18.59375 18.773438 C 18.367188 18.566406 18.164062 18.398438 18.144531 18.398438 C 18.121094 18.398438 17.992188 18.449219 17.859375 18.511719 C 17.726562 18.574219 17.527344 18.652344 17.417969 18.691406 C 17.269531 18.738281 17.21875 18.765625 17.207031 18.808594 C 17.203125 18.835938 17.179688 19.105469 17.160156 19.414062 C 17.117188 20.082031 17.089844 20.15625 16.855469 20.277344 C 16.789062 20.308594 16.675781 20.316406 16.109375 20.316406 C 15.605469 20.316406 15.421875 20.304688 15.367188 20.28125 Z M 16.351562 17.300781 C 16.953125 17.238281 17.457031 16.996094 17.886719 16.566406 C 18.210938 16.238281 18.421875 15.875 18.550781 15.410156 C 18.628906 15.121094 18.628906 14.480469 18.546875 14.1875 C 18.304688 13.296875 17.667969 12.640625 16.785156 12.375 C 16.582031 12.316406 16.527344 12.308594 16.128906 12.308594 C 15.746094 12.304688 15.664062 12.3125 15.480469 12.363281 C 14.550781 12.617188 13.839844 13.363281 13.648438 14.285156 C 13.472656 15.117188 13.730469 15.964844 14.335938 16.574219 C 14.652344 16.894531 15.066406 17.128906 15.511719 17.242188 C 15.636719 17.277344 15.820312 17.300781 16.074219 17.324219 C 16.097656 17.324219 16.222656 17.3125 16.351562 17.300781 Z M 15.730469 16.253906 C 15.097656 16.082031 14.652344 15.542969 14.613281 14.894531 C 14.585938 14.441406 14.730469 14.058594 15.054688 13.738281 C 15.640625 13.152344 16.574219 13.148438 17.152344 13.722656 C 17.628906 14.199219 17.746094 14.875 17.449219 15.46875 C 17.199219 15.972656 16.734375 16.273438 16.164062 16.292969 C 15.96875 16.300781 15.875 16.292969 15.730469 16.253906 Z M 16.441406 15.628906 C 16.621094 15.5625 16.828125 15.367188 16.917969 15.1875 C 16.980469 15.058594 16.988281 15.019531 16.988281 14.796875 C 16.988281 14.558594 16.980469 14.539062 16.902344 14.390625 C 16.738281 14.089844 16.496094 13.933594 16.152344 13.917969 C 15.875 13.902344 15.710938 13.964844 15.511719 14.144531 C 15.261719 14.375 15.160156 14.695312 15.238281 15.011719 C 15.308594 15.285156 15.457031 15.472656 15.707031 15.597656 C 15.941406 15.714844 16.183594 15.722656 16.441406 15.628906 Z M 16.441406 15.628906 "/>
</g>
</svg>
