
<svg xmlns="http://www.w3.org/2000/svg" xmlns:xlink="http://www.w3.org/1999/xlink" width="32px" height="32px" viewBox="0 0 32 32" version="1.1">
<g id="surface1">
<path style="fill-rule:nonzero;fill:rgb(68.235296%,86.274511%,90.980393%);fill-opacity:1;stroke-width:25.925713;stroke-linecap:butt;stroke-linejoin:miter;stroke:rgb(54.509807%,59.215689%,60.000002%);stroke-opacity:1;stroke-miterlimit:4;" d="M 73 32.3125 L 439 32.3125 C 458.6875 32.3125 474.625 48.25 474.625 67.9375 L 474.625 444.0625 C 474.625 463.75 458.6875 479.6875 439 479.6875 L 73 479.6875 C 53.3125 479.6875 37.375 463.75 37.375 444.0625 L 37.375 67.9375 C 37.375 48.25 53.3125 32.3125 73 32.3125 Z M 73 32.3125 " transform="matrix(0.0625,0,0,0.0625,0,0)"/>
<path style=" stroke:none;fill-rule:nonzero;fill:rgb(100%,100%,0%);fill-opacity:1;" d="M 13.519531 6.984375 C 8.539062 6.984375 4.503906 11.019531 4.503906 16 C 4.503906 20.980469 8.539062 25.015625 13.519531 25.015625 C 16.875 25.011719 19.953125 23.144531 21.503906 20.167969 L 14.46875 16.222656 L 22.058594 13.15625 C 20.835938 9.472656 17.394531 6.988281 13.519531 6.984375 Z M 13.519531 6.984375 "/>
<path style=" stroke:none;fill-rule:nonzero;fill:rgb(100%,100%,0%);fill-opacity:1;" d="M 23.746094 16.683594 C 23.746094 17.4375 23.132812 18.050781 22.375 18.050781 C 21.617188 18.050781 21.003906 17.4375 21.003906 16.683594 C 21.003906 15.925781 21.617188 15.308594 22.375 15.308594 C 23.132812 15.308594 23.746094 15.925781 23.746094 16.683594 Z M 23.746094 16.683594 "/>
<path style=" stroke:none;fill-rule:nonzero;fill:rgb(100%,100%,0%);fill-opacity:1;" d="M 27.402344 16.683594 C 27.402344 17.4375 26.789062 18.050781 26.03125 18.050781 C 25.273438 18.050781 24.660156 17.4375 24.660156 16.683594 C 24.660156 15.925781 25.273438 15.308594 26.03125 15.308594 C 26.789062 15.308594 27.402344 15.925781 27.402344 16.683594 Z M 27.402344 16.683594 "/>
</g>
</svg>
