
<svg xmlns="http://www.w3.org/2000/svg" xmlns:xlink="http://www.w3.org/1999/xlink" width="32px" height="32px" viewBox="0 0 32 32" version="1.1">
<g id="surface1">
<path style="fill-rule:nonzero;fill:rgb(5.490196%,39.607844%,66.666669%);fill-opacity:1;stroke-width:28.330631;stroke-linecap:butt;stroke-linejoin:miter;stroke:rgb(6.666667%,20.392157%,31.37255%);stroke-opacity:1;stroke-miterlimit:4;" d="M 80.625 23.9375 L 431.375 23.9375 C 462.6875 23.9375 488.0625 49.3125 488.0625 80.625 L 488.0625 431.375 C 488.0625 462.6875 462.6875 488.0625 431.375 488.0625 L 80.625 488.0625 C 49.3125 488.0625 23.9375 462.6875 23.9375 431.375 L 23.9375 80.625 C 23.9375 49.3125 49.3125 23.9375 80.625 23.9375 Z M 80.625 23.9375 " transform="matrix(0.0625,0,0,0.0625,0,0)"/>
<path style=" stroke:none;fill-rule:nonzero;fill:rgb(100%,100%,100%);fill-opacity:1;" d="M 23.09375 11.582031 C 23.09375 12.535156 22.90625 13.386719 22.527344 14.121094 C 22.160156 14.855469 21.648438 15.460938 20.988281 15.941406 C 20.339844 16.421875 19.625 16.777344 18.847656 17 C 18.070312 17.222656 17.246094 17.332031 16.371094 17.332031 L 14.332031 17.332031 L 14.332031 22.878906 C 14.332031 23.179688 14.378906 23.445312 14.472656 23.675781 C 14.574219 23.902344 14.78125 24.074219 15.089844 24.191406 C 15.242188 24.253906 15.511719 24.308594 15.898438 24.363281 C 16.292969 24.414062 16.652344 24.441406 16.972656 24.453125 L 16.972656 25.367188 L 9.164062 25.367188 L 9.164062 24.453125 C 9.371094 24.433594 9.664062 24.402344 10.050781 24.363281 C 10.441406 24.316406 10.714844 24.261719 10.871094 24.191406 C 11.125 24.082031 11.308594 23.917969 11.421875 23.703125 C 11.542969 23.488281 11.601562 23.214844 11.601562 22.878906 L 11.601562 9.675781 C 11.601562 9.375 11.558594 9.105469 11.472656 8.863281 C 11.386719 8.621094 11.183594 8.441406 10.871094 8.320312 C 10.542969 8.207031 10.21875 8.132812 9.894531 8.089844 C 9.578125 8.035156 9.304688 8.003906 9.074219 7.988281 L 9.074219 7.070312 L 17.386719 7.070312 C 19.078125 7.070312 20.449219 7.484375 21.503906 8.308594 C 22.5625 9.125 23.09375 10.214844 23.09375 11.582031 M 19.191406 14.703125 C 19.484375 14.292969 19.675781 13.863281 19.769531 13.425781 C 19.863281 12.980469 19.910156 12.582031 19.910156 12.230469 C 19.910156 11.738281 19.851562 11.238281 19.730469 10.730469 C 19.621094 10.226562 19.425781 9.78125 19.144531 9.402344 C 18.84375 9 18.449219 8.6875 17.964844 8.464844 C 17.472656 8.238281 16.867188 8.128906 16.140625 8.128906 L 14.332031 8.128906 L 14.332031 16.214844 L 15.640625 16.214844 C 16.566406 16.214844 17.3125 16.070312 17.886719 15.785156 C 18.464844 15.496094 18.902344 15.132812 19.191406 14.703125 "/>
</g>
</svg>
