
<svg xmlns="http://www.w3.org/2000/svg" xmlns:xlink="http://www.w3.org/1999/xlink" width="32px" height="32px" viewBox="0 0 32 32" version="1.1">
<g id="surface1">
<path style="fill-rule:nonzero;fill:rgb(100%,100%,100%);fill-opacity:1;stroke-width:27.442497;stroke-linecap:butt;stroke-linejoin:miter;stroke:rgb(0%,66.666669%,83.137256%);stroke-opacity:1;stroke-miterlimit:4;" d="M 86.125 287.25 L 425.875 287.25 C 456.1875 287.25 480.75 311.8125 480.75 342.125 L 480.75 681.875 C 480.75 712.1875 456.1875 736.75 425.875 736.75 L 86.125 736.75 C 55.8125 736.75 31.25 712.1875 31.25 681.875 L 31.25 342.125 C 31.25 311.8125 55.8125 287.25 86.125 287.25 Z M 86.125 287.25 " transform="matrix(0.0625,0,0,0.0625,0,-16)"/>
<path style=" stroke:none;fill-rule:nonzero;fill:rgb(42.745098%,47.843137%,49.803922%);fill-opacity:1;" d="M 7.253906 4.050781 L 24.746094 4.050781 C 25.367188 4.050781 25.871094 4.558594 25.871094 5.179688 L 25.871094 26.882812 C 25.871094 27.507812 25.367188 28.011719 24.746094 28.011719 L 7.253906 28.011719 C 6.632812 28.011719 6.128906 27.507812 6.128906 26.882812 L 6.128906 5.179688 C 6.128906 4.558594 6.632812 4.050781 7.253906 4.050781 Z M 7.253906 4.050781 "/>
<path style=" stroke:none;fill-rule:nonzero;fill:rgb(8.235294%,28.627452%,36.470589%);fill-opacity:1;" d="M 7.597656 25.851562 L 15.902344 25.851562 C 16.074219 25.851562 16.210938 25.988281 16.210938 26.160156 L 16.210938 26.769531 C 16.210938 26.941406 16.074219 27.082031 15.902344 27.082031 L 7.597656 27.082031 C 7.425781 27.082031 7.289062 26.941406 7.289062 26.769531 L 7.289062 26.160156 C 7.289062 25.988281 7.425781 25.851562 7.597656 25.851562 Z M 7.597656 25.851562 "/>
<path style=" stroke:none;fill-rule:nonzero;fill:rgb(96.078432%,96.078432%,96.078432%);fill-opacity:1;" d="M 7.253906 3.988281 L 24.746094 3.988281 C 25.367188 3.988281 25.871094 4.433594 25.871094 4.976562 L 25.871094 24 C 25.871094 24.542969 25.367188 24.988281 24.746094 24.988281 L 7.253906 24.988281 C 6.632812 24.988281 6.128906 24.542969 6.128906 24 L 6.128906 4.976562 C 6.128906 4.433594 6.632812 3.988281 7.253906 3.988281 Z M 7.253906 3.988281 "/>
<path style=" stroke:none;fill-rule:nonzero;fill:rgb(96.470588%,27.843139%,27.843139%);fill-opacity:1;" d="M 20.167969 13.851562 C 20.167969 16.3125 18.175781 18.308594 15.710938 18.308594 C 13.25 18.308594 11.253906 16.3125 11.253906 13.851562 C 11.253906 11.390625 13.25 9.394531 15.710938 9.394531 C 18.175781 9.394531 20.167969 11.390625 20.167969 13.851562 Z M 20.167969 13.851562 "/>
<path style=" stroke:none;fill-rule:nonzero;fill:rgb(10.588235%,63.921571%,61.176473%);fill-opacity:1;" d="M 15.710938 6.773438 L 15.710938 14.113281 L 20.675781 18.894531 C 22.027344 17.566406 22.789062 15.746094 22.792969 13.851562 C 22.792969 9.941406 19.621094 6.773438 15.710938 6.773438 Z M 15.710938 6.773438 "/>
<path style=" stroke:none;fill-rule:nonzero;fill:rgb(55.686277%,26.666668%,67.843139%);fill-opacity:1;" d="M 15.710938 14.113281 L 10.75 18.894531 C 12.074219 20.199219 13.855469 20.929688 15.710938 20.933594 Z M 15.710938 14.113281 "/>
<path style=" stroke:none;fill-rule:nonzero;fill:rgb(97.647059%,87.058824%,41.176471%);fill-opacity:1;" d="M 9.425781 14.113281 C 9.496094 15.714844 10.171875 17.226562 11.316406 18.347656 L 15.710938 14.113281 Z M 9.425781 14.113281 "/>
<path style=" stroke:none;fill-rule:nonzero;fill:rgb(32.156864%,70.19608%,85.09804%);fill-opacity:1;" d="M 15.710938 14.113281 L 15.710938 20.144531 C 17.355469 20.144531 18.933594 19.5 20.109375 18.347656 Z M 15.710938 14.113281 "/>
<path style=" stroke:none;fill-rule:nonzero;fill:rgb(81.960785%,82.352942%,82.745099%);fill-opacity:1;" d="M 21.996094 26.464844 C 21.996094 26.769531 21.75 27.015625 21.445312 27.015625 C 21.140625 27.015625 20.894531 26.769531 20.894531 26.464844 C 20.894531 26.160156 21.140625 25.910156 21.445312 25.910156 C 21.75 25.910156 21.996094 26.160156 21.996094 26.464844 Z M 21.996094 26.464844 "/>
<path style=" stroke:none;fill-rule:nonzero;fill:rgb(81.960785%,82.352942%,82.745099%);fill-opacity:1;" d="M 23.703125 26.464844 C 23.703125 26.769531 23.457031 27.015625 23.152344 27.015625 C 22.847656 27.015625 22.597656 26.769531 22.597656 26.464844 C 22.597656 26.160156 22.847656 25.910156 23.152344 25.910156 C 23.457031 25.910156 23.703125 26.160156 23.703125 26.464844 Z M 23.703125 26.464844 "/>
</g>
</svg>
