
<svg xmlns="http://www.w3.org/2000/svg" xmlns:xlink="http://www.w3.org/1999/xlink" width="32px" height="32px" viewBox="0 0 32 32" version="1.1">
<g id="surface1">
<path style=" stroke:none;fill-rule:nonzero;fill:rgb(2.352941%,64.313728%,100%);fill-opacity:1;" d="M 8.253906 1.878906 L 23.84375 1.878906 C 27.296875 1.878906 30.097656 4.679688 30.097656 8.132812 L 30.097656 23.722656 C 30.097656 27.175781 27.296875 29.976562 23.84375 29.976562 L 8.253906 29.976562 C 4.800781 29.976562 2 27.175781 2 23.722656 L 2 8.132812 C 2 4.679688 4.800781 1.878906 8.253906 1.878906 Z M 8.253906 1.878906 "/>
<path style=" stroke:none;fill-rule:nonzero;fill:rgb(100%,100%,100%);fill-opacity:1;" d="M 7.484375 7.832031 L 24.675781 7.847656 L 24.675781 17.246094 L 10.21875 17.246094 L 10.21875 19.746094 L 24.632812 19.746094 L 24.632812 23.222656 L 7.589844 23.234375 L 7.574219 14.632812 L 21.527344 14.632812 L 21.542969 11.347656 L 7.46875 11.347656 Z M 7.484375 7.832031 "/>
</g>
</svg>
