
<svg xmlns="http://www.w3.org/2000/svg" xmlns:xlink="http://www.w3.org/1999/xlink" width="32px" height="32px" viewBox="0 0 32 32" version="1.1">
<g id="surface1">
<path style="fill-rule:nonzero;fill:rgb(41.176471%,41.176471%,41.176471%);fill-opacity:1;stroke-width:27.746531;stroke-linecap:butt;stroke-linejoin:miter;stroke:rgb(59.607846%,63.137257%,67.450982%);stroke-opacity:1;stroke-miterlimit:4;" d="M 84.249997 30.919493 L 427.749997 30.919493 C 458.437497 30.919493 483.249997 55.731993 483.249997 86.419493 L 483.249997 429.919493 C 483.249997 460.606993 458.437497 485.419493 427.749997 485.419493 L 84.249997 485.419493 C 53.562497 485.419493 28.749997 460.606993 28.749997 429.919493 L 28.749997 86.419493 C 28.749997 55.731993 53.562497 30.919493 84.249997 30.919493 Z M 84.249997 30.919493 " transform="matrix(0.0625,0,0,0.0625,0.000000160911,-0.135593)"/>
<path style=" stroke:none;fill-rule:nonzero;fill:rgb(100%,100%,100%);fill-opacity:1;" d="M 28.136719 16.003906 C 28.136719 9.402344 22.746094 4.050781 16.09375 4.050781 C 9.441406 4.050781 4.050781 9.402344 4.050781 16.003906 C 4.050781 22.605469 9.441406 27.957031 16.09375 27.957031 C 22.746094 27.957031 28.136719 22.605469 28.136719 16.003906 Z M 28.136719 16.003906 "/>
<path style=" stroke:none;fill-rule:nonzero;fill:rgb(41.176471%,41.176471%,41.176471%);fill-opacity:1;" d="M 15.113281 28.9375 C 11.828125 28.59375 9.050781 27.316406 6.871094 25.140625 C 4.582031 22.855469 3.296875 20.019531 3.007812 16.59375 C 2.886719 15.167969 3.167969 13.25 3.738281 11.574219 C 4.015625 10.761719 4.710938 9.359375 5.1875 8.648438 C 7.105469 5.785156 10.042969 3.785156 13.371094 3.078125 C 15.339844 2.660156 16.835938 2.660156 18.804688 3.078125 C 22.132812 3.785156 25.074219 5.785156 26.988281 8.648438 C 27.464844 9.359375 28.160156 10.761719 28.4375 11.574219 C 29.011719 13.25 29.289062 15.167969 29.167969 16.59375 C 28.917969 19.535156 27.980469 21.945312 26.238281 24.109375 C 24.578125 26.171875 22.167969 27.757812 19.628906 28.453125 C 19.046875 28.613281 18.535156 28.71875 17.554688 28.882812 C 17.105469 28.957031 15.617188 28.992188 15.113281 28.9375 Z M 16.878906 23.730469 C 16.894531 23.683594 16.910156 20.816406 16.910156 17.355469 L 16.910156 11.066406 L 17.023438 10.839844 C 17.132812 10.621094 17.152344 10.609375 17.386719 10.59375 C 17.613281 10.582031 17.648438 10.59375 17.828125 10.773438 C 17.972656 10.917969 18.035156 11.039062 18.082031 11.238281 C 18.121094 11.425781 18.136719 12.375 18.136719 14.148438 L 18.136719 16.785156 L 18.28125 16.859375 C 18.691406 17.070312 19.136719 17.167969 19.675781 17.171875 C 20.183594 17.171875 20.238281 17.160156 20.558594 17.003906 C 21.605469 16.488281 22.042969 15.351562 21.925781 13.472656 C 21.78125 11.15625 20.785156 10.042969 18.019531 9.101562 C 16.144531 8.464844 13.621094 7.804688 13.503906 7.917969 C 13.433594 7.992188 13.457031 22.683594 13.53125 22.757812 C 13.582031 22.8125 16.621094 23.796875 16.761719 23.804688 C 16.808594 23.808594 16.859375 23.773438 16.878906 23.730469 Z M 20.339844 22.597656 C 21.792969 22.074219 23.433594 21.488281 23.980469 21.289062 C 25.183594 20.855469 25.714844 20.589844 26.066406 20.246094 C 26.785156 19.550781 26.402344 18.867188 24.992188 18.339844 C 22.84375 17.539062 20.339844 17.480469 17.957031 18.179688 C 17.402344 18.34375 17.421875 18.300781 17.421875 19.328125 C 17.421875 19.816406 17.433594 20.25 17.449219 20.292969 C 17.46875 20.339844 17.523438 20.375 17.570312 20.375 C 17.621094 20.375 18.417969 20.105469 19.347656 19.78125 C 21.402344 19.058594 21.648438 18.992188 22.277344 18.992188 C 23.042969 18.992188 23.453125 19.144531 23.324219 19.386719 C 23.246094 19.535156 22.9375 19.652344 20.113281 20.65625 C 18.703125 21.15625 17.519531 21.601562 17.484375 21.644531 C 17.441406 21.703125 17.421875 21.980469 17.421875 22.605469 C 17.421875 23.503906 17.449219 23.644531 17.625 23.574219 C 17.667969 23.558594 18.890625 23.121094 20.339844 22.597656 Z M 12.449219 21.914062 C 12.632812 21.878906 12.808594 21.816406 12.847656 21.769531 C 12.910156 21.683594 12.941406 20.308594 12.878906 20.148438 C 12.832031 20.027344 12.730469 20.046875 12.035156 20.300781 C 10.984375 20.6875 10.828125 20.730469 10.351562 20.78125 C 9.605469 20.859375 8.910156 20.714844 8.910156 20.480469 C 8.910156 20.28125 9.113281 20.199219 11.882812 19.214844 C 12.347656 19.050781 12.769531 18.875 12.816406 18.824219 C 12.898438 18.746094 12.910156 18.628906 12.910156 17.894531 C 12.910156 17.429688 12.894531 17.015625 12.878906 16.972656 C 12.839844 16.871094 12.710938 16.867188 12.460938 16.964844 C 12.355469 17.003906 11.21875 17.410156 9.9375 17.863281 C 6.902344 18.9375 6.015625 19.367188 5.832031 19.851562 C 5.761719 20.03125 5.777344 20.363281 5.855469 20.519531 C 5.976562 20.753906 6.386719 21.09375 6.730469 21.25 C 7.335938 21.523438 8.683594 21.863281 9.628906 21.980469 C 9.984375 22.027344 12.121094 21.972656 12.449219 21.914062 Z M 12.449219 21.914062 "/>
</g>
</svg>
