
<svg xmlns="http://www.w3.org/2000/svg" xmlns:xlink="http://www.w3.org/1999/xlink" width="32px" height="32px" viewBox="0 0 32 32" version="1.1">
<g id="surface1">
<path style="fill-rule:nonzero;fill:rgb(100%,100%,100%);fill-opacity:1;stroke-width:27.746531;stroke-linecap:butt;stroke-linejoin:miter;stroke:rgb(100%,0%,0%);stroke-opacity:1;stroke-miterlimit:4;" d="M 84.25 28.75 L 427.75 28.75 C 458.4375 28.75 483.25 53.5625 483.25 84.25 L 483.25 427.75 C 483.25 458.4375 458.4375 483.25 427.75 483.25 L 84.25 483.25 C 53.5625 483.25 28.75 458.4375 28.75 427.75 L 28.75 84.25 C 28.75 53.5625 53.5625 28.75 84.25 28.75 Z M 84.25 28.75 " transform="matrix(0.0625,0,0,0.0625,0,0)"/>
<path style="fill-rule:evenodd;fill:rgb(100%,100%,100%);fill-opacity:1;stroke-width:42.271049;stroke-linecap:butt;stroke-linejoin:miter;stroke:rgb(100%,100%,100%);stroke-opacity:1;stroke-miterlimit:4;" d="M 443.9375 256.625 C 443.9375 360.6875 359.625 445 255.625 445 C 151.5625 445 67.25 360.6875 67.25 256.625 C 67.25 152.625 151.5625 68.3125 255.625 68.3125 C 359.625 68.3125 443.9375 152.625 443.9375 256.625 " transform="matrix(0.0625,0,0,0.0625,0,0)"/>
<path style=" stroke:none;fill-rule:nonzero;fill:rgb(82.745099%,82.745099%,82.745099%);fill-opacity:1;" d="M 18.914062 20.183594 C 18.984375 20.113281 20.804688 14.730469 20.804688 14.597656 C 20.804688 14.566406 20.492188 14.296875 20.113281 13.996094 C 19.378906 13.425781 16.195312 11.105469 15.984375 10.996094 C 15.878906 10.9375 15.671875 11.058594 14.675781 11.742188 C 12.34375 13.34375 10.949219 14.410156 10.949219 14.582031 C 10.949219 14.644531 11.363281 15.941406 11.871094 17.464844 L 12.792969 20.230469 L 13.078125 20.277344 C 13.238281 20.300781 14.597656 20.308594 16.097656 20.292969 C 18.175781 20.273438 18.855469 20.246094 18.914062 20.183594 Z M 18.914062 20.183594 "/>
<path style=" stroke:none;fill-rule:nonzero;fill:rgb(25.490198%,41.176471%,88.235295%);fill-opacity:1;" d="M 13.558594 27.925781 C 12.898438 27.78125 12.207031 27.5625 11.503906 27.277344 C 8.054688 25.890625 5.398438 22.9375 4.410156 19.386719 C 4.386719 19.289062 4.414062 19.207031 4.503906 19.121094 C 4.78125 18.863281 8.996094 15.824219 9.167969 15.761719 C 9.421875 15.664062 9.957031 15.675781 10.164062 15.78125 C 10.59375 16.003906 10.675781 16.171875 11.292969 18.042969 C 11.558594 18.855469 12.386719 21.371094 13.136719 23.628906 C 13.878906 25.886719 14.492188 27.792969 14.492188 27.863281 C 14.492188 27.980469 14.453125 27.996094 14.152344 27.988281 C 13.96875 27.984375 13.699219 27.957031 13.558594 27.925781 Z M 13.558594 27.925781 "/>
<path style=" stroke:none;fill-rule:nonzero;fill:rgb(60.000002%,19.607843%,80.000001%);fill-opacity:1;" d="M 4.195312 18.246094 C 3.921875 17.921875 3.933594 15.105469 4.210938 13.785156 C 4.753906 11.214844 6.167969 8.761719 8.054688 7.136719 C 8.746094 6.542969 9.371094 6.128906 9.480469 6.199219 C 9.65625 6.304688 13.011719 8.71875 13.605469 9.167969 C 14.394531 9.761719 14.582031 10.097656 14.429688 10.652344 C 14.300781 11.140625 14.546875 10.9375 10.429688 13.933594 C 6.496094 16.792969 4.4375 18.273438 4.351562 18.308594 C 4.308594 18.324219 4.238281 18.296875 4.195312 18.246094 Z M 4.195312 18.246094 "/>
<path style=" stroke:none;fill-rule:nonzero;fill:rgb(100%,0%,0%);fill-opacity:1;" d="M 20.050781 12.957031 C 19.933594 12.902344 19.613281 12.691406 19.339844 12.484375 C 19.066406 12.277344 17.871094 11.402344 16.683594 10.539062 C 12.804688 7.722656 10.304688 5.824219 10.304688 5.699219 C 10.304688 5.480469 11.585938 4.921875 12.800781 4.605469 C 16.28125 3.710938 20.050781 4.378906 22.882812 6.402344 C 23.15625 6.597656 23.378906 6.800781 23.378906 6.855469 C 23.378906 7.035156 21.699219 12.238281 21.558594 12.503906 C 21.300781 12.972656 20.582031 13.1875 20.050781 12.957031 Z M 20.050781 12.957031 "/>
<path style=" stroke:none;fill-rule:nonzero;fill:rgb(19.607843%,80.392158%,19.607843%);fill-opacity:1;" d="M 15.542969 27.949219 C 15.429688 27.933594 15.320312 27.875 15.296875 27.816406 C 15.273438 27.753906 14.863281 26.503906 14.386719 25.03125 C 13.457031 22.160156 13.453125 22.148438 13.730469 21.695312 C 13.800781 21.582031 13.972656 21.425781 14.109375 21.359375 C 14.351562 21.234375 14.515625 21.230469 20.410156 21.230469 C 23.742188 21.230469 26.480469 21.253906 26.5 21.285156 C 26.546875 21.363281 26.199219 22.003906 25.730469 22.714844 C 23.894531 25.46875 20.644531 27.476562 17.390625 27.859375 C 16.699219 27.941406 15.808594 27.984375 15.542969 27.949219 Z M 15.542969 27.949219 "/>
<path style=" stroke:none;fill-rule:nonzero;fill:rgb(100%,100%,0%);fill-opacity:1;" d="M 20.894531 20.175781 C 20.441406 19.972656 20.222656 19.429688 20.371094 18.851562 C 20.417969 18.652344 21.105469 16.523438 21.894531 14.113281 C 22.679688 11.703125 23.476562 9.273438 23.660156 8.710938 C 23.847656 8.128906 24.035156 7.671875 24.085938 7.652344 C 24.207031 7.605469 24.917969 8.375 25.472656 9.152344 C 26.582031 10.699219 27.308594 12.519531 27.605469 14.46875 C 27.738281 15.359375 27.738281 16.996094 27.605469 17.894531 C 27.488281 18.660156 27.160156 19.894531 27.015625 20.121094 L 26.921875 20.265625 L 24.007812 20.261719 C 21.714844 20.261719 21.050781 20.242188 20.894531 20.175781 Z M 20.894531 20.175781 "/>
</g>
</svg>
