
<svg xmlns="http://www.w3.org/2000/svg" xmlns:xlink="http://www.w3.org/1999/xlink" width="32px" height="32px" viewBox="0 0 32 32" version="1.1">
<g id="surface1">
<path style="fill-rule:nonzero;fill:rgb(80.392158%,61.176473%,42.745098%);fill-opacity:1;stroke-width:27.746531;stroke-linecap:butt;stroke-linejoin:miter;stroke:rgb(32.549021%,29.019609%,23.529412%);stroke-opacity:1;stroke-miterlimit:4;" d="M 84.25 28.75 L 427.75 28.75 C 458.4375 28.75 483.25 53.5625 483.25 84.25 L 483.25 427.75 C 483.25 458.4375 458.4375 483.25 427.75 483.25 L 84.25 483.25 C 53.5625 483.25 28.75 458.4375 28.75 427.75 L 28.75 84.25 C 28.75 53.5625 53.5625 28.75 84.25 28.75 Z M 84.25 28.75 " transform="matrix(0.0625,0,0,0.0625,0,0)"/>
<path style=" stroke:none;fill-rule:nonzero;fill:rgb(32.549021%,29.019609%,23.529412%);fill-opacity:1;" d="M 8.4375 24.199219 L 7.875 23.675781 L 8 23.535156 C 8.066406 23.457031 9.371094 22.042969 10.894531 20.386719 C 13.386719 17.683594 13.683594 17.382812 13.84375 17.394531 C 13.996094 17.410156 14.105469 17.316406 14.625 16.753906 C 14.957031 16.394531 15.21875 16.066406 15.199219 16.023438 C 15.183594 15.980469 15.027344 15.734375 14.851562 15.480469 C 14.296875 14.675781 13.96875 13.59375 13.96875 12.585938 C 13.972656 10.164062 15.648438 8.066406 18.03125 7.503906 C 18.683594 7.347656 19.769531 7.363281 20.4375 7.535156 C 21.910156 7.910156 23.148438 8.90625 23.816406 10.253906 C 24.226562 11.085938 24.359375 11.652344 24.359375 12.597656 C 24.359375 13.519531 24.230469 14.085938 23.847656 14.882812 C 22.527344 17.605469 19.164062 18.605469 16.511719 17.0625 L 16.019531 16.777344 L 15.566406 17.269531 C 14.789062 18.105469 14.75 18.160156 14.832031 18.292969 C 14.898438 18.398438 14.585938 18.753906 11.996094 21.566406 C 10.394531 23.304688 9.066406 24.722656 9.042969 24.722656 C 9.019531 24.722656 8.746094 24.484375 8.4375 24.199219 Z M 20.332031 16.464844 C 21.011719 16.257812 21.460938 15.984375 22.003906 15.441406 C 22.871094 14.589844 23.265625 13.570312 23.203125 12.355469 C 23.121094 10.691406 22.019531 9.253906 20.441406 8.746094 C 17.375 7.761719 14.480469 10.484375 15.261719 13.625 C 15.707031 15.429688 17.519531 16.746094 19.394531 16.625 C 19.683594 16.605469 20.105469 16.535156 20.332031 16.464844 Z M 20.332031 16.464844 "/>
<path style=" stroke:none;fill-rule:evenodd;fill:rgb(86.666667%,70.980394%,46.666667%);fill-opacity:1;" d="M 18.847656 10.371094 C 18.847656 10.785156 18.496094 11.121094 18.066406 11.121094 C 17.636719 11.121094 17.289062 10.785156 17.289062 10.371094 C 17.289062 9.960938 17.636719 9.628906 18.066406 9.628906 C 18.496094 9.628906 18.847656 9.960938 18.847656 10.371094 Z M 18.847656 10.371094 "/>
</g>
</svg>
