<!-- color: #70bdea -->
<svg xmlns="http://www.w3.org/2000/svg" xmlns:xlink="http://www.w3.org/1999/xlink" width="32px" height="32px" viewBox="0 0 32 32" version="1.1">
<defs>
<clipPath id="clip1">
  <path d="M 8.5625 8 L 23 8 L 23 23.625 L 8.5625 23.625 Z M 8.5625 8 "/>
</clipPath>
<clipPath id="clip2">
  <path d="M 29.527344 15.824219 C 29.527344 23.429688 23.363281 29.589844 15.761719 29.589844 C 8.167969 29.589844 2 23.429688 2 15.824219 C 2 8.222656 8.167969 2.0625 15.761719 2.0625 C 23.363281 2.0625 29.527344 8.222656 29.527344 15.824219 Z M 29.527344 15.824219 "/>
</clipPath>
</defs>
<g id="surface1">
<path style="fill-rule:nonzero;fill:rgb(29.019609%,68.235296%,90.980393%);fill-opacity:1;stroke-width:28.480503;stroke-linecap:butt;stroke-linejoin:miter;stroke:rgb(18.431373%,45.09804%,60.784316%);stroke-opacity:1;stroke-miterlimit:4;" d="M 79.6875 22.75 L 432.3125 22.75 C 463.75 22.75 489.25 48.25 489.25 79.6875 L 489.25 432.3125 C 489.25 463.75 463.75 489.25 432.3125 489.25 L 79.6875 489.25 C 48.25 489.25 22.75 463.75 22.75 432.3125 L 22.75 79.6875 C 22.75 48.25 48.25 22.75 79.6875 22.75 Z M 79.6875 22.75 " transform="matrix(0.0625,0,0,0.0625,0,0)"/>
<path style=" stroke:none;fill-rule:nonzero;fill:rgb(40.000001%,40.000001%,40.000001%);fill-opacity:1;" d="M 24.671875 16.800781 C 24.671875 12.355469 20.980469 8.75 16.429688 8.75 C 11.875 8.75 8.183594 12.355469 8.183594 16.800781 C 8.183594 21.246094 11.875 24.847656 16.429688 24.847656 C 20.980469 24.847656 24.671875 21.246094 24.671875 16.800781 Z M 24.671875 16.800781 "/>
<path style=" stroke:none;fill-rule:nonzero;fill:rgb(40.000001%,40.000001%,40.000001%);fill-opacity:1;" d="M 14.660156 29.308594 C 14.441406 29.210938 14.203125 28.957031 14.097656 28.707031 C 14.042969 28.574219 13.988281 28.074219 13.945312 27.277344 C 13.90625 26.605469 13.855469 25.996094 13.832031 25.933594 C 13.796875 25.84375 13.644531 25.761719 13.257812 25.628906 C 12.964844 25.527344 12.527344 25.339844 12.285156 25.21875 C 12.039062 25.097656 11.785156 24.996094 11.71875 24.996094 C 11.644531 24.996094 11.246094 25.320312 10.675781 25.84375 C 10.167969 26.308594 9.667969 26.734375 9.570312 26.785156 C 9.363281 26.890625 8.894531 26.910156 8.65625 26.820312 C 8.464844 26.746094 6.445312 24.757812 6.316406 24.511719 C 6.183594 24.269531 6.199219 23.816406 6.34375 23.539062 C 6.410156 23.414062 6.839844 22.90625 7.292969 22.410156 C 7.785156 21.878906 8.125 21.464844 8.125 21.394531 C 8.125 21.332031 8.023438 21.082031 7.902344 20.839844 C 7.777344 20.59375 7.59375 20.15625 7.496094 19.867188 C 7.394531 19.578125 7.269531 19.316406 7.21875 19.292969 C 7.167969 19.265625 6.574219 19.214844 5.898438 19.175781 C 5.113281 19.132812 4.585938 19.078125 4.433594 19.023438 C 4.140625 18.917969 3.804688 18.5625 3.757812 18.308594 C 3.738281 18.203125 3.730469 17.433594 3.738281 16.597656 L 3.757812 15.074219 L 3.933594 14.855469 C 4.242188 14.464844 4.386719 14.429688 5.863281 14.339844 C 6.699219 14.285156 7.207031 14.230469 7.25 14.191406 C 7.285156 14.152344 7.410156 13.863281 7.527344 13.550781 C 7.644531 13.238281 7.824219 12.808594 7.933594 12.597656 C 8.039062 12.386719 8.125 12.167969 8.125 12.109375 C 8.125 12.050781 7.777344 11.621094 7.347656 11.152344 C 6.921875 10.683594 6.511719 10.222656 6.441406 10.128906 C 6.238281 9.859375 6.167969 9.527344 6.246094 9.199219 C 6.308594 8.957031 6.417969 8.824219 7.347656 7.878906 C 7.917969 7.304688 8.476562 6.785156 8.59375 6.722656 C 8.863281 6.585938 9.292969 6.582031 9.5625 6.722656 C 9.675781 6.777344 10.171875 7.195312 10.664062 7.648438 C 11.15625 8.101562 11.59375 8.488281 11.636719 8.511719 C 11.675781 8.535156 11.941406 8.445312 12.265625 8.292969 C 12.574219 8.144531 13.03125 7.957031 13.285156 7.871094 C 13.628906 7.753906 13.761719 7.683594 13.8125 7.582031 C 13.847656 7.503906 13.90625 6.890625 13.945312 6.214844 C 14.019531 4.917969 14.066406 4.714844 14.332031 4.433594 C 14.628906 4.121094 14.800781 4.097656 16.464844 4.113281 L 17.980469 4.132812 L 18.21875 4.289062 C 18.625 4.558594 18.675781 4.730469 18.769531 6.171875 C 18.816406 6.871094 18.871094 7.496094 18.886719 7.566406 C 18.90625 7.660156 19.03125 7.726562 19.4375 7.871094 C 19.726562 7.96875 20.1875 8.167969 20.464844 8.304688 C 20.742188 8.441406 20.988281 8.558594 21.015625 8.558594 C 21.042969 8.558594 21.488281 8.167969 22.003906 7.699219 C 22.519531 7.222656 23.035156 6.785156 23.152344 6.726562 C 23.425781 6.582031 23.835938 6.582031 24.136719 6.730469 C 24.28125 6.800781 24.765625 7.242188 25.375 7.855469 C 26.421875 8.914062 26.503906 9.035156 26.507812 9.515625 C 26.507812 9.855469 26.355469 10.074219 25.457031 11.0625 C 24.964844 11.597656 24.566406 12.058594 24.566406 12.089844 C 24.566406 12.117188 24.691406 12.40625 24.847656 12.730469 C 25.003906 13.058594 25.191406 13.511719 25.261719 13.746094 C 25.351562 14.03125 25.429688 14.179688 25.507812 14.214844 C 25.570312 14.238281 26.203125 14.300781 26.910156 14.34375 C 28.316406 14.429688 28.542969 14.488281 28.777344 14.820312 C 29.003906 15.132812 29.027344 15.367188 29.007812 16.898438 L 28.988281 18.363281 L 28.816406 18.609375 C 28.511719 19.046875 28.433594 19.066406 26.871094 19.167969 C 26.113281 19.222656 25.472656 19.273438 25.457031 19.292969 C 25.441406 19.308594 25.347656 19.550781 25.246094 19.832031 C 25.148438 20.113281 24.953125 20.570312 24.8125 20.847656 C 24.675781 21.125 24.566406 21.386719 24.578125 21.429688 C 24.585938 21.472656 24.964844 21.910156 25.421875 22.40625 C 25.878906 22.902344 26.308594 23.425781 26.378906 23.5625 C 26.527344 23.859375 26.542969 24.171875 26.417969 24.46875 C 26.308594 24.730469 24.457031 26.613281 24.152344 26.769531 C 23.902344 26.902344 23.441406 26.914062 23.179688 26.800781 C 23.078125 26.753906 22.574219 26.332031 22.054688 25.855469 C 21.535156 25.382812 21.070312 24.996094 21.019531 24.996094 C 20.972656 24.996094 20.679688 25.113281 20.371094 25.253906 C 20.066406 25.398438 19.613281 25.582031 19.363281 25.664062 C 19.019531 25.777344 18.90625 25.839844 18.882812 25.933594 C 18.871094 25.996094 18.816406 26.625 18.769531 27.324219 C 18.667969 28.859375 18.609375 29.027344 18.074219 29.300781 C 17.917969 29.378906 17.664062 29.390625 16.363281 29.386719 C 15.210938 29.386719 14.789062 29.367188 14.660156 29.308594 Z M 16.917969 22.480469 C 18.296875 22.339844 19.449219 21.785156 20.433594 20.804688 C 21.179688 20.054688 21.660156 19.214844 21.953125 18.15625 C 22.136719 17.492188 22.132812 16.027344 21.949219 15.355469 C 21.394531 13.3125 19.933594 11.808594 17.914062 11.203125 C 17.445312 11.0625 17.316406 11.046875 16.402344 11.042969 C 15.527344 11.039062 15.34375 11.054688 14.917969 11.171875 C 12.792969 11.753906 11.167969 13.457031 10.722656 15.578125 C 10.324219 17.480469 10.910156 19.425781 12.300781 20.820312 C 13.027344 21.550781 13.972656 22.089844 14.992188 22.351562 C 15.285156 22.425781 15.699219 22.484375 16.289062 22.53125 C 16.335938 22.535156 16.617188 22.511719 16.917969 22.480469 Z M 15.5 20.089844 C 14.042969 19.695312 13.027344 18.457031 12.933594 16.972656 C 12.871094 15.933594 13.207031 15.054688 13.945312 14.320312 C 15.285156 12.980469 17.433594 12.972656 18.757812 14.292969 C 19.847656 15.378906 20.113281 16.929688 19.433594 18.289062 C 18.855469 19.445312 17.792969 20.128906 16.488281 20.179688 C 16.042969 20.199219 15.824219 20.175781 15.5 20.089844 Z M 17.128906 18.652344 C 17.53125 18.5 18.011719 18.054688 18.214844 17.644531 C 18.355469 17.355469 18.371094 17.257812 18.371094 16.746094 C 18.371094 16.207031 18.363281 16.160156 18.175781 15.816406 C 17.800781 15.125 17.246094 14.773438 16.457031 14.734375 C 15.828125 14.703125 15.449219 14.835938 14.996094 15.253906 C 14.417969 15.78125 14.1875 16.515625 14.371094 17.238281 C 14.535156 17.863281 14.875 18.292969 15.445312 18.582031 C 15.980469 18.851562 16.527344 18.875 17.128906 18.652344 Z M 17.128906 18.652344 "/>
<path style=" stroke:none;fill-rule:nonzero;fill:rgb(94.901961%,94.901961%,94.901961%);fill-opacity:1;" d="M 24.296875 16.050781 C 24.296875 11.605469 20.605469 8 16.054688 8 C 11.5 8 7.808594 11.605469 7.808594 16.050781 C 7.808594 20.496094 11.5 24.097656 16.054688 24.097656 C 20.605469 24.097656 24.296875 20.496094 24.296875 16.050781 Z M 24.296875 16.050781 "/>
<path style=" stroke:none;fill-rule:nonzero;fill:rgb(94.901961%,94.901961%,94.901961%);fill-opacity:1;" d="M 14.285156 28.558594 C 14.066406 28.460938 13.828125 28.207031 13.722656 27.957031 C 13.667969 27.824219 13.613281 27.324219 13.570312 26.527344 C 13.53125 25.855469 13.480469 25.246094 13.457031 25.183594 C 13.421875 25.09375 13.269531 25.011719 12.882812 24.878906 C 12.589844 24.777344 12.152344 24.589844 11.910156 24.46875 C 11.664062 24.347656 11.410156 24.246094 11.34375 24.246094 C 11.269531 24.246094 10.871094 24.570312 10.300781 25.09375 C 9.792969 25.558594 9.292969 25.984375 9.195312 26.035156 C 8.988281 26.140625 8.519531 26.160156 8.28125 26.070312 C 8.089844 25.996094 6.070312 24.007812 5.941406 23.761719 C 5.808594 23.519531 5.824219 23.066406 5.96875 22.789062 C 6.035156 22.664062 6.464844 22.15625 6.917969 21.660156 C 7.410156 21.128906 7.75 20.714844 7.75 20.644531 C 7.75 20.582031 7.648438 20.332031 7.527344 20.089844 C 7.402344 19.84375 7.21875 19.40625 7.121094 19.117188 C 7.019531 18.828125 6.894531 18.566406 6.84375 18.542969 C 6.792969 18.515625 6.199219 18.464844 5.523438 18.425781 C 4.738281 18.382812 4.210938 18.328125 4.058594 18.273438 C 3.765625 18.167969 3.429688 17.8125 3.382812 17.558594 C 3.363281 17.453125 3.355469 16.683594 3.363281 15.847656 L 3.382812 14.324219 L 3.558594 14.105469 C 3.867188 13.714844 4.011719 13.679688 5.488281 13.589844 C 6.324219 13.535156 6.832031 13.480469 6.875 13.441406 C 6.910156 13.402344 7.035156 13.113281 7.152344 12.800781 C 7.269531 12.488281 7.449219 12.058594 7.558594 11.847656 C 7.664062 11.636719 7.75 11.417969 7.75 11.359375 C 7.75 11.300781 7.402344 10.871094 6.972656 10.402344 C 6.546875 9.933594 6.136719 9.472656 6.066406 9.378906 C 5.863281 9.109375 5.792969 8.777344 5.871094 8.449219 C 5.933594 8.207031 6.042969 8.074219 6.972656 7.128906 C 7.542969 6.554688 8.101562 6.035156 8.21875 5.972656 C 8.488281 5.835938 8.917969 5.832031 9.1875 5.972656 C 9.300781 6.027344 9.796875 6.445312 10.289062 6.898438 C 10.78125 7.351562 11.21875 7.738281 11.261719 7.761719 C 11.300781 7.785156 11.566406 7.695312 11.890625 7.542969 C 12.199219 7.394531 12.65625 7.207031 12.910156 7.121094 C 13.253906 7.003906 13.386719 6.933594 13.4375 6.832031 C 13.472656 6.753906 13.53125 6.140625 13.570312 5.464844 C 13.644531 4.167969 13.691406 3.964844 13.957031 3.683594 C 14.253906 3.371094 14.425781 3.347656 16.089844 3.363281 L 17.605469 3.382812 L 17.84375 3.539062 C 18.25 3.808594 18.300781 3.980469 18.394531 5.421875 C 18.441406 6.121094 18.496094 6.746094 18.511719 6.816406 C 18.53125 6.910156 18.65625 6.976562 19.0625 7.121094 C 19.351562 7.21875 19.8125 7.417969 20.089844 7.554688 C 20.367188 7.691406 20.613281 7.808594 20.640625 7.808594 C 20.667969 7.808594 21.113281 7.417969 21.628906 6.949219 C 22.144531 6.472656 22.660156 6.035156 22.777344 5.976562 C 23.050781 5.832031 23.460938 5.832031 23.761719 5.980469 C 23.90625 6.050781 24.390625 6.492188 25 7.105469 C 26.046875 8.164062 26.128906 8.285156 26.132812 8.765625 C 26.132812 9.105469 25.980469 9.324219 25.082031 10.3125 C 24.589844 10.847656 24.191406 11.308594 24.191406 11.339844 C 24.191406 11.367188 24.316406 11.65625 24.472656 11.980469 C 24.628906 12.308594 24.816406 12.761719 24.886719 12.996094 C 24.976562 13.28125 25.054688 13.429688 25.132812 13.464844 C 25.195312 13.488281 25.828125 13.550781 26.535156 13.59375 C 27.941406 13.679688 28.167969 13.738281 28.402344 14.070312 C 28.628906 14.382812 28.652344 14.617188 28.632812 16.148438 L 28.613281 17.613281 L 28.441406 17.859375 C 28.136719 18.296875 28.058594 18.316406 26.496094 18.417969 C 25.738281 18.472656 25.097656 18.523438 25.082031 18.542969 C 25.066406 18.558594 24.972656 18.800781 24.871094 19.082031 C 24.773438 19.363281 24.578125 19.820312 24.4375 20.097656 C 24.300781 20.375 24.191406 20.636719 24.203125 20.679688 C 24.210938 20.722656 24.589844 21.160156 25.046875 21.65625 C 25.503906 22.152344 25.933594 22.675781 26.003906 22.8125 C 26.152344 23.109375 26.167969 23.421875 26.042969 23.71875 C 25.933594 23.980469 24.082031 25.863281 23.777344 26.019531 C 23.527344 26.152344 23.066406 26.164062 22.804688 26.050781 C 22.703125 26.003906 22.199219 25.582031 21.679688 25.105469 C 21.160156 24.632812 20.695312 24.246094 20.644531 24.246094 C 20.597656 24.246094 20.304688 24.363281 19.996094 24.503906 C 19.691406 24.648438 19.238281 24.832031 18.988281 24.914062 C 18.644531 25.027344 18.53125 25.089844 18.507812 25.183594 C 18.496094 25.246094 18.441406 25.875 18.394531 26.574219 C 18.292969 28.109375 18.234375 28.277344 17.699219 28.550781 C 17.542969 28.628906 17.289062 28.640625 15.988281 28.636719 C 14.835938 28.636719 14.414062 28.617188 14.285156 28.558594 Z M 16.542969 21.730469 C 17.921875 21.589844 19.074219 21.035156 20.058594 20.054688 C 20.804688 19.304688 21.285156 18.464844 21.578125 17.40625 C 21.761719 16.742188 21.757812 15.277344 21.574219 14.605469 C 21.019531 12.5625 19.558594 11.058594 17.539062 10.453125 C 17.070312 10.3125 16.941406 10.296875 16.027344 10.292969 C 15.152344 10.289062 14.96875 10.304688 14.542969 10.421875 C 12.417969 11.003906 10.792969 12.707031 10.347656 14.828125 C 9.949219 16.730469 10.535156 18.675781 11.925781 20.070312 C 12.652344 20.800781 13.597656 21.339844 14.617188 21.601562 C 14.910156 21.675781 15.324219 21.734375 15.914062 21.78125 C 15.960938 21.785156 16.242188 21.761719 16.542969 21.730469 Z M 15.125 19.339844 C 13.667969 18.945312 12.652344 17.707031 12.558594 16.222656 C 12.496094 15.183594 12.832031 14.304688 13.570312 13.570312 C 14.910156 12.230469 17.058594 12.222656 18.382812 13.542969 C 19.472656 14.628906 19.738281 16.179688 19.058594 17.539062 C 18.480469 18.695312 17.417969 19.378906 16.113281 19.429688 C 15.667969 19.449219 15.449219 19.425781 15.125 19.339844 Z M 16.753906 17.902344 C 17.15625 17.75 17.636719 17.304688 17.839844 16.894531 C 17.980469 16.605469 17.996094 16.507812 17.996094 15.996094 C 17.996094 15.457031 17.988281 15.410156 17.800781 15.066406 C 17.425781 14.375 16.871094 14.023438 16.082031 13.984375 C 15.453125 13.953125 15.074219 14.085938 14.621094 14.503906 C 14.042969 15.03125 13.8125 15.765625 13.996094 16.488281 C 14.160156 17.113281 14.5 17.542969 15.070312 17.832031 C 15.605469 18.101562 16.152344 18.125 16.753906 17.902344 Z M 16.753906 17.902344 "/>
<g clip-path="url(#clip1)" clip-rule="nonzero">
<g clip-path="url(#clip2)" clip-rule="nonzero">
<path style=" stroke:none;fill-rule:nonzero;fill:rgb(18.431373%,45.09804%,60.784316%);fill-opacity:1;" d="M 15.761719 8.042969 C 14.769531 8.042969 13.96875 8.820312 13.96875 9.773438 C 13.96875 10.492188 14.515625 11.085938 15.167969 11.347656 L 15.167969 12.832031 L 12.394531 12.832031 C 12.277344 12.832031 12.171875 12.980469 12.171875 13.105469 L 12.171875 13.75 C 12.171875 13.875 12.269531 14.050781 12.394531 14.023438 L 15.167969 14.023438 L 15.167969 21.007812 C 15.167969 21.230469 14.707031 21.234375 14.488281 21.257812 C 14.167969 21.257812 13.972656 21.175781 13.667969 21.097656 C 12.976562 20.902344 12.316406 20.632812 11.683594 20.304688 C 11.414062 20.164062 11.152344 20.027344 10.917969 19.839844 C 10.816406 19.753906 10.695312 19.636719 10.707031 19.496094 C 10.71875 19.390625 10.777344 19.277344 10.894531 19.261719 C 11.003906 19.246094 11.101562 19.300781 11.195312 19.335938 C 11.277344 19.367188 11.335938 19.273438 11.324219 19.207031 C 11.308594 19.035156 11.25 18.871094 11.15625 18.722656 C 10.960938 18.410156 10.660156 18.183594 10.347656 17.988281 C 10.015625 17.785156 9.660156 17.558594 9.449219 17.230469 C 9.40625 17.167969 9.359375 17.066406 9.265625 17.101562 C 9.132812 17.140625 9.0625 17.261719 9 17.371094 C 8.816406 17.695312 8.730469 18.054688 8.648438 18.417969 C 8.582031 18.703125 8.570312 19.007812 8.59375 19.300781 C 8.617188 19.589844 8.636719 19.886719 8.761719 20.164062 C 8.839844 20.34375 8.972656 20.488281 9.113281 20.632812 C 9.199219 20.542969 9.289062 20.449219 9.378906 20.363281 C 9.492188 20.25 9.636719 20.179688 9.808594 20.203125 C 10.035156 20.230469 10.246094 20.363281 10.425781 20.492188 C 10.679688 20.679688 10.914062 20.878906 11.175781 21.066406 C 11.582031 21.367188 12.035156 21.589844 12.5 21.800781 C 12.886719 21.972656 13.285156 22.144531 13.683594 22.285156 C 13.757812 22.316406 13.835938 22.316406 13.910156 22.339844 C 14.632812 22.628906 15.242188 22.96875 15.742188 23.570312 C 15.742188 23.582031 15.742188 23.597656 15.742188 23.605469 C 15.746094 23.597656 15.753906 23.589844 15.761719 23.585938 C 15.769531 23.59375 15.777344 23.601562 15.785156 23.605469 C 15.789062 23.589844 15.777344 23.566406 15.785156 23.550781 C 16.28125 22.953125 16.894531 22.628906 17.613281 22.339844 C 17.691406 22.316406 17.769531 22.316406 17.839844 22.285156 C 18.242188 22.148438 18.640625 21.972656 19.027344 21.800781 C 19.488281 21.589844 19.941406 21.363281 20.351562 21.066406 C 20.609375 20.878906 20.847656 20.679688 21.101562 20.492188 C 21.285156 20.363281 21.488281 20.226562 21.71875 20.203125 C 21.886719 20.179688 22.03125 20.253906 22.148438 20.363281 C 22.238281 20.449219 22.328125 20.546875 22.414062 20.632812 C 22.550781 20.492188 22.6875 20.34375 22.765625 20.164062 C 22.886719 19.890625 22.910156 19.59375 22.933594 19.300781 C 22.957031 19.007812 22.941406 18.699219 22.878906 18.417969 C 22.796875 18.054688 22.703125 17.699219 22.527344 17.371094 C 22.464844 17.261719 22.386719 17.140625 22.261719 17.101562 C 22.167969 17.066406 22.121094 17.167969 22.078125 17.230469 C 21.863281 17.558594 21.511719 17.78125 21.175781 17.988281 C 20.863281 18.183594 20.566406 18.410156 20.367188 18.722656 C 20.273438 18.871094 20.210938 19.035156 20.199219 19.207031 C 20.183594 19.269531 20.242188 19.371094 20.332031 19.339844 C 20.417969 19.300781 20.519531 19.246094 20.628906 19.261719 C 20.753906 19.28125 20.808594 19.394531 20.816406 19.5 C 20.832031 19.636719 20.710938 19.757812 20.605469 19.84375 C 20.371094 20.027344 20.109375 20.167969 19.84375 20.308594 C 19.207031 20.636719 18.550781 20.902344 17.859375 21.097656 C 17.550781 21.179688 17.355469 21.261719 17.039062 21.261719 C 16.761719 21.304688 16.355469 21.164062 16.355469 21.011719 L 16.355469 14.027344 L 19.125 14.027344 C 19.234375 14.027344 19.347656 13.886719 19.347656 13.753906 L 19.347656 13.105469 C 19.347656 12.980469 19.242188 12.859375 19.125 12.832031 L 16.355469 12.832031 L 16.355469 11.347656 C 17.011719 11.089844 17.550781 10.496094 17.550781 9.777344 C 17.550781 8.820312 16.746094 8.042969 15.753906 8.042969 M 15.71875 8.886719 C 16.199219 8.886719 16.597656 9.253906 16.597656 9.71875 C 16.597656 10.183594 16.203125 10.5625 15.71875 10.5625 C 15.238281 10.5625 14.835938 10.183594 14.835938 9.71875 C 14.835938 9.257812 15.234375 8.886719 15.71875 8.886719 M 15.71875 8.886719 "/>
</g>
</g>
</g>
</svg>
