<!-- color: #70bdea -->
<svg xmlns="http://www.w3.org/2000/svg" xmlns:xlink="http://www.w3.org/1999/xlink" width="32px" height="32px" viewBox="0 0 32 32" version="1.1">
<defs>
<clipPath id="clip1">
  <path d="M 8.5 7.875 L 22.9375 7.875 L 22.9375 23.5 L 8.5 23.5 Z M 8.5 7.875 "/>
</clipPath>
<clipPath id="clip2">
  <path d="M 29.464844 15.699219 C 29.464844 23.304688 23.300781 29.464844 15.699219 29.464844 C 8.105469 29.464844 1.9375 23.304688 1.9375 15.699219 C 1.9375 8.097656 8.105469 1.9375 15.699219 1.9375 C 23.300781 1.9375 29.464844 8.097656 29.464844 15.699219 Z M 29.464844 15.699219 "/>
</clipPath>
</defs>
<g id="surface1">
<path style="fill-rule:nonzero;fill:rgb(29.019609%,68.235296%,90.980393%);fill-opacity:1;stroke-width:28.480503;stroke-linecap:butt;stroke-linejoin:miter;stroke:rgb(18.431373%,45.09804%,60.784316%);stroke-opacity:1;stroke-miterlimit:4;" d="M 79.6875 22.75 L 432.3125 22.75 C 463.75 22.75 489.25 48.25 489.25 79.6875 L 489.25 432.3125 C 489.25 463.75 463.75 489.25 432.3125 489.25 L 79.6875 489.25 C 48.25 489.25 22.75 463.75 22.75 432.3125 L 22.75 79.6875 C 22.75 48.25 48.25 22.75 79.6875 22.75 Z M 79.6875 22.75 " transform="matrix(0.0625,0,0,0.0625,0,0)"/>
<g clip-path="url(#clip1)" clip-rule="nonzero">
<g clip-path="url(#clip2)" clip-rule="nonzero">
<path style=" stroke:none;fill-rule:nonzero;fill:rgb(18.431373%,45.09804%,60.784316%);fill-opacity:1;" d="M 15.699219 7.921875 C 14.707031 7.921875 13.90625 8.695312 13.90625 9.648438 C 13.90625 10.371094 14.453125 10.964844 15.105469 11.222656 L 15.105469 12.707031 L 12.332031 12.707031 C 12.214844 12.707031 12.109375 12.859375 12.109375 12.980469 L 12.109375 13.628906 C 12.109375 13.75 12.207031 13.929688 12.332031 13.902344 L 15.105469 13.902344 L 15.105469 20.882812 C 15.105469 21.105469 14.644531 21.109375 14.425781 21.132812 C 14.105469 21.132812 13.910156 21.054688 13.605469 20.972656 C 12.910156 20.777344 12.253906 20.507812 11.621094 20.183594 C 11.351562 20.039062 11.089844 19.902344 10.855469 19.714844 C 10.753906 19.628906 10.632812 19.511719 10.644531 19.371094 C 10.65625 19.265625 10.714844 19.15625 10.832031 19.136719 C 10.941406 19.121094 11.039062 19.175781 11.132812 19.210938 C 11.214844 19.246094 11.273438 19.148438 11.261719 19.082031 C 11.246094 18.910156 11.1875 18.746094 11.09375 18.597656 C 10.898438 18.285156 10.597656 18.058594 10.285156 17.863281 C 9.953125 17.660156 9.597656 17.433594 9.386719 17.105469 C 9.34375 17.046875 9.296875 16.941406 9.203125 16.976562 C 9.070312 17.015625 9 17.140625 8.933594 17.246094 C 8.753906 17.574219 8.667969 17.929688 8.585938 18.292969 C 8.519531 18.582031 8.507812 18.882812 8.53125 19.175781 C 8.554688 19.46875 8.574219 19.765625 8.699219 20.042969 C 8.777344 20.222656 8.910156 20.367188 9.046875 20.507812 C 9.136719 20.417969 9.226562 20.324219 9.316406 20.238281 C 9.429688 20.128906 9.574219 20.054688 9.746094 20.078125 C 9.972656 20.105469 10.183594 20.242188 10.363281 20.367188 C 10.617188 20.554688 10.851562 20.753906 11.113281 20.941406 C 11.519531 21.246094 11.972656 21.464844 12.4375 21.675781 C 12.824219 21.847656 13.222656 22.019531 13.621094 22.164062 C 13.695312 22.195312 13.769531 22.191406 13.847656 22.21875 C 14.570312 22.503906 15.179688 22.84375 15.679688 23.449219 C 15.679688 23.457031 15.679688 23.472656 15.679688 23.480469 C 15.683594 23.476562 15.691406 23.464844 15.699219 23.460938 C 15.707031 23.46875 15.714844 23.476562 15.722656 23.480469 C 15.726562 23.464844 15.714844 23.441406 15.722656 23.425781 C 16.21875 22.832031 16.832031 22.503906 17.550781 22.21875 C 17.628906 22.191406 17.707031 22.195312 17.777344 22.164062 C 18.179688 22.023438 18.578125 21.851562 18.964844 21.675781 C 19.425781 21.464844 19.878906 21.242188 20.289062 20.941406 C 20.546875 20.753906 20.785156 20.554688 21.039062 20.367188 C 21.222656 20.242188 21.425781 20.105469 21.65625 20.078125 C 21.824219 20.058594 21.96875 20.128906 22.085938 20.238281 C 22.175781 20.324219 22.265625 20.421875 22.351562 20.507812 C 22.488281 20.367188 22.625 20.222656 22.703125 20.042969 C 22.824219 19.769531 22.847656 19.472656 22.871094 19.175781 C 22.894531 18.886719 22.878906 18.578125 22.8125 18.292969 C 22.734375 17.929688 22.640625 17.574219 22.464844 17.246094 C 22.402344 17.140625 22.324219 17.015625 22.199219 16.976562 C 22.105469 16.941406 22.058594 17.042969 22.011719 17.105469 C 21.800781 17.433594 21.449219 17.65625 21.113281 17.863281 C 20.800781 18.058594 20.503906 18.289062 20.300781 18.597656 C 20.210938 18.746094 20.148438 18.910156 20.136719 19.082031 C 20.121094 19.148438 20.179688 19.246094 20.269531 19.214844 C 20.355469 19.179688 20.457031 19.121094 20.566406 19.136719 C 20.691406 19.160156 20.746094 19.269531 20.753906 19.375 C 20.769531 19.511719 20.648438 19.636719 20.542969 19.71875 C 20.308594 19.902344 20.046875 20.042969 19.78125 20.183594 C 19.144531 20.511719 18.488281 20.78125 17.796875 20.972656 C 17.488281 21.054688 17.292969 21.136719 16.976562 21.136719 C 16.699219 21.183594 16.292969 21.039062 16.292969 20.886719 L 16.292969 13.902344 L 19.0625 13.902344 C 19.171875 13.902344 19.285156 13.761719 19.285156 13.628906 L 19.285156 12.980469 C 19.285156 12.855469 19.179688 12.734375 19.0625 12.707031 L 16.292969 12.707031 L 16.292969 11.222656 C 16.949219 10.964844 17.488281 10.371094 17.488281 9.652344 C 17.488281 8.695312 16.683594 7.921875 15.691406 7.921875 M 15.65625 8.765625 C 16.136719 8.765625 16.535156 9.128906 16.535156 9.597656 C 16.535156 10.058594 16.140625 10.441406 15.65625 10.441406 C 15.175781 10.441406 14.769531 10.058594 14.769531 9.597656 C 14.769531 9.132812 15.171875 8.765625 15.65625 8.765625 M 15.65625 8.765625 "/>
</g>
</g>
</g>
</svg>
