
<svg xmlns="http://www.w3.org/2000/svg" xmlns:xlink="http://www.w3.org/1999/xlink" width="32px" height="32px" viewBox="0 0 32 32" version="1.1">
<g id="surface1">
<path style="fill-rule:nonzero;fill:rgb(17.254902%,24.313726%,31.37255%);fill-opacity:1;stroke-width:1.968772;stroke-linecap:butt;stroke-linejoin:miter;stroke:rgb(29.019609%,68.235296%,90.980393%);stroke-opacity:1;stroke-miterlimit:4;" d="M -32.245406 377.203044 L -7.868458 377.203044 C -5.694465 377.203044 -3.930576 378.966933 -3.930576 381.140926 L -3.930576 405.517874 C -3.930576 407.691867 -5.694465 409.455756 -7.868458 409.455756 L -32.245406 409.455756 C -34.419399 409.455756 -36.183288 407.691867 -36.183288 405.517874 L -36.183288 381.140926 C -36.183288 378.966933 -34.419399 377.203044 -32.245406 377.203044 Z M -32.245406 377.203044 " transform="matrix(0.885827,0,0,0.885827,33.766965,-332.421672)"/>
<path style=" stroke:none;fill-rule:nonzero;fill:rgb(90.588236%,29.803923%,23.529412%);fill-opacity:1;" d="M 19.628906 9.535156 C 20.078125 9.535156 20.445312 9.902344 20.445312 10.355469 C 20.445312 10.808594 20.078125 11.171875 19.628906 11.171875 C 19.175781 11.171875 18.808594 10.808594 18.808594 10.355469 C 18.808594 9.902344 19.175781 9.535156 19.628906 9.535156 Z M 19.628906 9.535156 "/>
<path style=" stroke:none;fill-rule:nonzero;fill:rgb(18.039216%,80.000001%,44.313726%);fill-opacity:1;" d="M 21.671875 10.503906 C 22.125 10.503906 22.492188 10.871094 22.492188 11.320312 C 22.492188 11.773438 22.125 12.136719 21.671875 12.136719 C 21.222656 12.136719 20.855469 11.773438 20.855469 11.320312 C 20.855469 10.871094 21.222656 10.503906 21.671875 10.503906 Z M 21.671875 10.503906 "/>
<path style=" stroke:none;fill-rule:evenodd;fill:rgb(95.294118%,61.176473%,7.058824%);fill-opacity:1;" d="M 11.917969 11.886719 C 9.871094 13.679688 8.050781 17.25 10.800781 20.316406 C 13.449219 23.269531 17.316406 22.683594 18.625 21.972656 C 20.378906 21.011719 20.355469 19.078125 20.230469 18.613281 C 19.78125 16.921875 18.5625 16.449219 17.785156 16.546875 C 16.84375 16.664062 15.027344 17.289062 13.957031 15.773438 C 13.050781 14.488281 13.867188 12.636719 14.785156 11.984375 C 15.164062 11.714844 15.152344 11.136719 14.671875 10.847656 C 13.71875 10.546875 12.457031 11.425781 11.917969 11.886719 Z M 11.917969 11.886719 "/>
<path style=" stroke:none;fill-rule:nonzero;fill:rgb(16.078432%,50.196081%,72.549021%);fill-opacity:1;" d="M 17.207031 9.664062 C 17.660156 9.664062 18.027344 10.027344 18.027344 10.480469 C 18.027344 10.933594 17.660156 11.300781 17.207031 11.300781 C 16.757812 11.300781 16.390625 10.933594 16.390625 10.480469 C 16.390625 10.027344 16.757812 9.664062 17.207031 9.664062 Z M 17.207031 9.664062 "/>
</g>
</svg>
