
<svg xmlns="http://www.w3.org/2000/svg" xmlns:xlink="http://www.w3.org/1999/xlink" width="32px" height="32px" viewBox="0 0 32 32" version="1.1">
<g id="surface1">
<path style=" stroke:none;fill-rule:evenodd;fill:rgb(80.000001%,61.176473%,41.960785%);fill-opacity:1;" d="M 4.78125 1.53125 L 27.21875 1.53125 C 29.015625 1.53125 30.46875 2.988281 30.46875 4.78125 L 30.46875 27.21875 C 30.46875 29.015625 29.015625 30.46875 27.21875 30.46875 L 4.78125 30.46875 C 2.984375 30.46875 1.53125 29.015625 1.53125 27.21875 L 1.53125 4.78125 C 1.53125 2.988281 2.984375 1.53125 4.78125 1.53125 Z M 4.78125 1.53125 "/>
<path style=" stroke:none;fill-rule:nonzero;fill:rgb(0%,0%,0%);fill-opacity:0.25098;" d="M 8.726562 6.632812 C 8.726562 7.425781 8.082031 8.070312 7.285156 8.070312 C 6.492188 8.070312 5.847656 7.425781 5.847656 6.632812 C 5.847656 5.839844 6.492188 5.191406 7.285156 5.191406 C 8.082031 5.191406 8.726562 5.839844 8.726562 6.632812 M 8.726562 6.632812 "/>
<path style=" stroke:none;fill-rule:nonzero;fill:rgb(0%,0%,0%);fill-opacity:0.25098;" d="M 26.152344 6.730469 C 26.152344 7.527344 25.507812 8.171875 24.714844 8.171875 C 23.917969 8.171875 23.273438 7.527344 23.273438 6.730469 C 23.273438 5.9375 23.917969 5.292969 24.714844 5.292969 C 25.507812 5.292969 26.152344 5.9375 26.152344 6.730469 M 26.152344 6.730469 "/>
<path style="fill-rule:nonzero;fill:rgb(0%,47.058824%,67.058825%);fill-opacity:1;stroke-width:7.9095;stroke-linecap:butt;stroke-linejoin:miter;stroke:rgb(100%,97.254902%,92.156863%);stroke-opacity:1;stroke-miterlimit:10;" d="M 1567.654332 96.172142 C 1567.654332 199.491191 1483.930275 283.126179 1380.700294 283.126179 C 1277.470314 283.126179 1193.746257 199.491191 1193.746257 96.172142 C 1193.746257 -7.057839 1277.470314 -90.781895 1380.700294 -90.781895 C 1483.930275 -90.781895 1567.654332 -7.057839 1567.654332 96.172142 Z M 1567.654332 96.172142 " transform="matrix(0.0438569,0,0,0.0438569,-38.459442,16.95016)"/>
<path style=" stroke:none;fill-rule:nonzero;fill:rgb(100%,97.254902%,92.156863%);fill-opacity:1;" d="M 22.886719 15.296875 L 20.925781 15.492188 L 20.925781 23.53125 L 22.867188 23.253906 L 22.867188 19.816406 L 25.453125 23.621094 L 27.476562 22.972656 L 24.828125 19.316406 L 27.5 15.859375 L 25.429688 15.382812 L 22.867188 18.839844 Z M 18.472656 17.261719 C 18.449219 17.261719 18.425781 17.277344 18.410156 17.285156 L 17.652344 18.066406 C 17.621094 18.097656 17.609375 18.152344 17.632812 18.195312 L 18.515625 19.664062 C 18.355469 19.933594 18.238281 20.222656 18.148438 20.527344 L 16.511719 20.875 C 16.464844 20.886719 16.425781 20.914062 16.425781 20.960938 L 16.425781 22.042969 C 16.425781 22.089844 16.46875 22.136719 16.511719 22.148438 L 18.105469 22.539062 C 18.191406 22.890625 18.320312 23.226562 18.496094 23.535156 L 17.566406 24.9375 C 17.542969 24.976562 17.554688 25.035156 17.589844 25.066406 L 18.34375 25.824219 C 18.375 25.855469 18.433594 25.871094 18.472656 25.847656 L 19.917969 24.960938 C 20.199219 25.125 20.496094 25.261719 20.820312 25.347656 L 21.164062 26.972656 C 21.175781 27.019531 21.207031 27.058594 21.25 27.058594 L 22.328125 27.058594 C 22.375 27.058594 22.425781 27.015625 22.433594 26.972656 L 22.824219 25.347656 C 23.15625 25.257812 23.480469 25.109375 23.769531 24.941406 L 25.191406 25.890625 C 25.230469 25.914062 25.289062 25.902344 25.324219 25.867188 L 26.078125 25.113281 C 26.109375 25.078125 26.121094 25.019531 26.097656 24.980469 L 25.582031 24.117188 L 25.410156 24.183594 C 25.386719 24.191406 25.359375 24.183594 25.34375 24.160156 C 25.34375 24.160156 25.019531 23.664062 24.589844 23.035156 C 24.078125 24.039062 23.035156 24.722656 21.832031 24.722656 C 20.125 24.722656 18.730469 23.34375 18.730469 21.628906 C 18.730469 20.371094 19.484375 19.285156 20.5625 18.800781 L 20.5625 17.996094 C 20.367188 18.066406 20.183594 18.136719 20.003906 18.238281 C 20.003906 18.238281 19.980469 18.238281 19.980469 18.238281 L 18.535156 17.285156 C 18.519531 17.273438 18.496094 17.261719 18.472656 17.261719 Z M 18.472656 17.261719 "/>
<path style=" stroke:none;fill-rule:nonzero;fill:rgb(40.000001%,40.000001%,40.000001%);fill-opacity:1;" d="M 7.058594 7.558594 C 9.941406 22.910156 22.410156 22.910156 25.285156 7.558594 C 25.488281 6.269531 24.605469 6.246094 24.332031 7.558594 C 22.410156 21.546875 9.941406 21.472656 8.019531 7.558594 C 7.84375 6.296875 6.886719 6.347656 7.066406 7.558594 M 7.066406 7.558594 "/>
</g>
</svg>
