<!-- color: #474747 -->
<svg xmlns="http://www.w3.org/2000/svg" xmlns:xlink="http://www.w3.org/1999/xlink" width="32px" height="32px" viewBox="0 0 32 32" version="1.1">
<defs>
<clipPath id="clip1">
  <path d="M 15.375 5.0625 L 25.125 5.0625 L 25.125 16.0625 L 15.375 16.0625 Z M 15.375 5.0625 "/>
</clipPath>
<clipPath id="clip2">
  <path d="M 35.457031 16.023438 C 35.457031 26.730469 26.777344 35.402344 16.078125 35.402344 C 5.378906 35.402344 -3.300781 26.730469 -3.300781 16.023438 C -3.300781 5.316406 5.378906 -3.355469 16.078125 -3.355469 C 26.777344 -3.355469 35.457031 5.316406 35.457031 16.023438 Z M 35.457031 16.023438 "/>
</clipPath>
<clipPath id="clip3">
  <path d="M 16.0625 15.332031 L 27.0625 15.332031 L 27.0625 25.0625 L 16.0625 25.0625 Z M 16.0625 15.332031 "/>
</clipPath>
<clipPath id="clip4">
  <path d="M 35.457031 16.023438 C 35.457031 26.730469 26.777344 35.402344 16.078125 35.402344 C 5.378906 35.402344 -3.300781 26.730469 -3.300781 16.023438 C -3.300781 5.316406 5.378906 -3.355469 16.078125 -3.355469 C 26.777344 -3.355469 35.457031 5.316406 35.457031 16.023438 Z M 35.457031 16.023438 "/>
</clipPath>
<clipPath id="clip5">
  <path d="M 7.0625 16 L 16.75 16 L 16.75 27 L 7.0625 27 Z M 7.0625 16 "/>
</clipPath>
<clipPath id="clip6">
  <path d="M 35.457031 16.023438 C 35.457031 26.730469 26.777344 35.402344 16.078125 35.402344 C 5.378906 35.402344 -3.300781 26.730469 -3.300781 16.023438 C -3.300781 5.316406 5.378906 -3.355469 16.078125 -3.355469 C 26.777344 -3.355469 35.457031 5.316406 35.457031 16.023438 Z M 35.457031 16.023438 "/>
</clipPath>
<clipPath id="clip7">
  <path d="M 5.0625 7 L 16.125 7 L 16.125 16.6875 L 5.0625 16.6875 Z M 5.0625 7 "/>
</clipPath>
<clipPath id="clip8">
  <path d="M 35.457031 16.023438 C 35.457031 26.730469 26.777344 35.402344 16.078125 35.402344 C 5.378906 35.402344 -3.300781 26.730469 -3.300781 16.023438 C -3.300781 5.316406 5.378906 -3.355469 16.078125 -3.355469 C 26.777344 -3.355469 35.457031 5.316406 35.457031 16.023438 Z M 35.457031 16.023438 "/>
</clipPath>
</defs>
<g id="surface1">
<path style="fill-rule:nonzero;fill:rgb(100%,100%,100%);fill-opacity:1;stroke-width:6.963993;stroke-linecap:butt;stroke-linejoin:miter;stroke:rgb(0%,67.058825%,92.54902%);stroke-opacity:1;stroke-miterlimit:4;" d="M 20.890625 6.953125 L 107.109375 6.953125 C 114.796875 6.953125 121.046875 13.203125 121.046875 20.890625 L 121.046875 107.109375 C 121.046875 114.796875 114.796875 121.046875 107.109375 121.046875 L 20.890625 121.046875 C 13.203125 121.046875 6.953125 114.796875 6.953125 107.109375 L 6.953125 20.890625 C 6.953125 13.203125 13.203125 6.953125 20.890625 6.953125 Z M 20.890625 6.953125 " transform="matrix(0.25,0,0,0.25,0,0)"/>
<g clip-path="url(#clip1)" clip-rule="nonzero">
<g clip-path="url(#clip2)" clip-rule="nonzero">
<path style=" stroke:none;fill-rule:nonzero;fill:rgb(49.803922%,80.000001%,15.686275%);fill-opacity:1;" d="M 19.210938 5.621094 C 15.441406 3.441406 15.417969 8.457031 15.417969 8.457031 L 16.078125 16.023438 L 22.960938 12.808594 C 22.960938 12.808594 27.296875 10.285156 23.523438 8.105469 C 22.359375 7.433594 21.503906 7.417969 20.871094 7.71875 C 20.816406 7.027344 20.378906 6.292969 19.210938 5.617188 M 19.210938 5.621094 "/>
</g>
</g>
<g clip-path="url(#clip3)" clip-rule="nonzero">
<g clip-path="url(#clip4)" clip-rule="nonzero">
<path style=" stroke:none;fill-rule:nonzero;fill:rgb(98.431373%,72.549021%,3.529412%);fill-opacity:1;" d="M 16.078125 16.023438 L 19.292969 22.90625 C 19.292969 22.90625 21.820312 27.242188 23.996094 23.46875 C 24.667969 22.304688 24.679688 21.449219 24.378906 20.816406 C 25.078125 20.761719 25.8125 20.324219 26.488281 19.160156 C 28.660156 15.386719 23.644531 15.363281 23.644531 15.363281 L 16.082031 16.023438 M 16.078125 16.023438 "/>
</g>
</g>
<g clip-path="url(#clip5)" clip-rule="nonzero">
<g clip-path="url(#clip6)" clip-rule="nonzero">
<path style=" stroke:none;fill-rule:nonzero;fill:rgb(0%,67.058825%,92.54902%);fill-opacity:1;" d="M 16.078125 16.023438 L 9.191406 19.238281 C 9.191406 19.238281 4.863281 21.765625 8.628906 23.941406 C 9.792969 24.613281 10.652344 24.625 11.28125 24.324219 C 11.339844 25.023438 11.777344 25.757812 12.941406 26.433594 C 16.714844 28.609375 16.738281 23.589844 16.738281 23.589844 L 16.078125 16.027344 M 16.078125 16.023438 "/>
</g>
</g>
<g clip-path="url(#clip7)" clip-rule="nonzero">
<g clip-path="url(#clip8)" clip-rule="nonzero">
<path style=" stroke:none;fill-rule:nonzero;fill:rgb(94.509804%,31.764707%,9.803922%);fill-opacity:1;" d="M 16.078125 16.023438 L 12.863281 9.136719 C 12.863281 9.136719 10.339844 4.808594 8.160156 8.574219 C 7.488281 9.742188 7.472656 10.597656 7.773438 11.230469 C 7.082031 11.285156 6.347656 11.722656 5.671875 12.886719 C 3.492188 16.660156 8.507812 16.683594 8.507812 16.683594 L 16.074219 16.023438 M 16.078125 16.023438 "/>
</g>
</g>
</g>
</svg>
