
<svg xmlns="http://www.w3.org/2000/svg" xmlns:xlink="http://www.w3.org/1999/xlink" width="32px" height="32px" viewBox="0 0 32 32" version="1.1">
<g id="surface1">
<path style="fill-rule:nonzero;fill:rgb(21.176471%,24.705882%,41.568628%);fill-opacity:1;stroke-width:56.696171;stroke-linecap:butt;stroke-linejoin:miter;stroke:rgb(21.176471%,24.705882%,41.568628%);stroke-opacity:1;stroke-miterlimit:4;" d="M 161 47.625 L 863 47.625 C 925.625 47.625 976.375 98.375 976.375 161 L 976.375 863 C 976.375 925.625 925.625 976.375 863 976.375 L 161 976.375 C 98.375 976.375 47.625 925.625 47.625 863 L 47.625 161 C 47.625 98.375 98.375 47.625 161 47.625 Z M 161 47.625 " transform="matrix(0.03125,0,0,0.03125,0,0)"/>
<path style="fill-rule:nonzero;fill:rgb(21.176471%,24.705882%,41.568628%);fill-opacity:1;stroke-width:51.753551;stroke-linecap:butt;stroke-linejoin:miter;stroke:rgb(29.019609%,68.235296%,90.980393%);stroke-opacity:1;stroke-miterlimit:4;" d="M 191.625 88.125 L 832.375 88.125 C 889.625 88.125 935.875 134.375 935.875 191.625 L 935.875 832.375 C 935.875 889.625 889.625 935.875 832.375 935.875 L 191.625 935.875 C 134.375 935.875 88.125 889.625 88.125 832.375 L 88.125 191.625 C 88.125 134.375 134.375 88.125 191.625 88.125 Z M 191.625 88.125 " transform="matrix(0.03125,0,0,0.03125,0,0)"/>
<path style=" stroke:none;fill-rule:nonzero;fill:rgb(74.509805%,74.509805%,74.509805%);fill-opacity:1;" d="M 15.972656 19.765625 L 18.199219 24.152344 L 23.035156 24.152344 L 18.136719 16.015625 Z M 15.972656 19.765625 "/>
<path style=" stroke:none;fill-rule:nonzero;fill:rgb(80.000001%,80.000001%,80.000001%);fill-opacity:1;" d="M 18.320312 7.746094 L 15.972656 12.292969 L 18.136719 16.015625 L 23.144531 7.746094 Z M 18.320312 7.746094 "/>
<path style=" stroke:none;fill-rule:nonzero;fill:rgb(97.647059%,69.803923%,19.607843%);fill-opacity:1;" d="M 13.621094 7.746094 L 11.128906 7.746094 L 15.988281 16.015625 L 11.222656 24.152344 L 13.679688 24.152344 L 15.972656 19.761719 L 15.972656 19.765625 L 18.136719 16.015625 L 15.972656 12.292969 Z M 13.621094 7.746094 "/>
<path style=" stroke:none;fill-rule:nonzero;fill:rgb(100%,80.000001%,0%);fill-opacity:1;" d="M 11.222656 24.152344 L 15.988281 16.015625 L 11.128906 7.746094 L 8.785156 7.746094 L 13.777344 16.015625 L 8.855469 24.152344 Z M 11.222656 24.152344 "/>
</g>
</svg>
