
<svg xmlns="http://www.w3.org/2000/svg" xmlns:xlink="http://www.w3.org/1999/xlink" width="32px" height="32px" viewBox="0 0 32 32" version="1.1">
<g id="surface1">
<path style="fill-rule:nonzero;fill:rgb(92.54902%,92.54902%,92.54902%);fill-opacity:1;stroke-width:6.841342;stroke-linecap:butt;stroke-linejoin:miter;stroke:rgb(0%,66.666669%,83.137256%);stroke-opacity:1;stroke-miterlimit:4;" d="M 21.640625 7.96875 L 106.359375 7.96875 C 113.90625 7.96875 120.03125 14.09375 120.03125 21.640625 L 120.03125 106.359375 C 120.03125 113.90625 113.90625 120.03125 106.359375 120.03125 L 21.640625 120.03125 C 14.09375 120.03125 7.96875 113.90625 7.96875 106.359375 L 7.96875 21.640625 C 7.96875 14.09375 14.09375 7.96875 21.640625 7.96875 Z M 21.640625 7.96875 " transform="matrix(0.25,0,0,0.25,0,0)"/>
<path style=" stroke:none;fill-rule:evenodd;fill:rgb(50.196081%,50.196081%,50.196081%);fill-opacity:1;" d="M 13.988281 25.539062 L 10.769531 27.648438 L 21.222656 27.648438 L 18.003906 25.539062 Z M 13.988281 25.539062 "/>
<path style=" stroke:none;fill-rule:evenodd;fill:rgb(50.196081%,50.196081%,50.196081%);fill-opacity:1;" d="M 13.988281 24.902344 L 10.769531 27.007812 L 21.222656 27.007812 L 18.003906 24.902344 Z M 13.988281 24.902344 "/>
<path style=" stroke:none;fill-rule:nonzero;fill:rgb(30.19608%,30.19608%,30.19608%);fill-opacity:1;" d="M 13.761719 21.027344 L 18.238281 21.027344 L 18.238281 26.003906 L 13.761719 26.003906 Z M 13.761719 21.027344 "/>
<path style=" stroke:none;fill-rule:nonzero;fill:rgb(50.196081%,50.196081%,50.196081%);fill-opacity:1;" d="M 4.902344 4.351562 L 27.097656 4.351562 C 27.875 4.351562 28.503906 4.953125 28.503906 5.695312 L 28.503906 21.238281 C 28.503906 21.980469 27.875 22.582031 27.097656 22.582031 L 4.902344 22.582031 C 4.125 22.582031 3.496094 21.980469 3.496094 21.238281 L 3.496094 5.695312 C 3.496094 4.953125 4.125 4.351562 4.902344 4.351562 Z M 4.902344 4.351562 "/>
<path style=" stroke:none;fill-rule:nonzero;fill:rgb(0%,66.666669%,83.137256%);fill-opacity:1;" d="M 5.835938 6.058594 L 26.164062 6.058594 L 26.164062 20.878906 L 5.835938 20.878906 Z M 5.835938 6.058594 "/>
<path style=" stroke:none;fill-rule:evenodd;fill:rgb(0%,0%,0%);fill-opacity:1;" d="M 10.769531 27.007812 L 10.769531 27.648438 L 21.230469 27.648438 L 21.230469 27.007812 Z M 10.769531 27.007812 "/>
<path style=" stroke:none;fill-rule:nonzero;fill:rgb(100%,100%,100%);fill-opacity:1;" d="M 12.898438 15.101562 C 12.898438 15.457031 12.609375 15.746094 12.253906 15.746094 C 11.894531 15.746094 11.605469 15.457031 11.605469 15.101562 C 11.605469 14.746094 11.894531 14.453125 12.253906 14.453125 C 12.609375 14.453125 12.898438 14.746094 12.898438 15.101562 Z M 12.898438 15.101562 "/>
<path style=" stroke:none;fill-rule:nonzero;fill:rgb(100%,100%,100%);fill-opacity:1;" d="M 14.773438 15.101562 C 14.773438 15.457031 14.484375 15.746094 14.128906 15.746094 C 13.769531 15.746094 13.480469 15.457031 13.480469 15.101562 C 13.480469 14.746094 13.769531 14.453125 14.128906 14.453125 C 14.484375 14.453125 14.773438 14.746094 14.773438 15.101562 Z M 14.773438 15.101562 "/>
<path style=" stroke:none;fill-rule:nonzero;fill:rgb(100%,100%,100%);fill-opacity:1;" d="M 16.648438 15.101562 C 16.648438 15.457031 16.359375 15.746094 16.003906 15.746094 C 15.644531 15.746094 15.355469 15.457031 15.355469 15.101562 C 15.355469 14.746094 15.644531 14.453125 16.003906 14.453125 C 16.359375 14.453125 16.648438 14.746094 16.648438 15.101562 Z M 16.648438 15.101562 "/>
<path style=" stroke:none;fill-rule:nonzero;fill:rgb(100%,100%,100%);fill-opacity:1;" d="M 18.523438 15.101562 C 18.523438 15.457031 18.234375 15.746094 17.878906 15.746094 C 17.519531 15.746094 17.230469 15.457031 17.230469 15.101562 C 17.230469 14.746094 17.519531 14.453125 17.878906 14.453125 C 18.234375 14.453125 18.523438 14.746094 18.523438 15.101562 Z M 18.523438 15.101562 "/>
<path style=" stroke:none;fill-rule:nonzero;fill:rgb(100%,100%,100%);fill-opacity:1;" d="M 20.398438 15.101562 C 20.398438 15.457031 20.109375 15.746094 19.753906 15.746094 C 19.394531 15.746094 19.105469 15.457031 19.105469 15.101562 C 19.105469 14.746094 19.394531 14.453125 19.753906 14.453125 C 20.109375 14.453125 20.398438 14.746094 20.398438 15.101562 Z M 20.398438 15.101562 "/>
</g>
</svg>
