
<svg xmlns="http://www.w3.org/2000/svg" xmlns:xlink="http://www.w3.org/1999/xlink" width="32px" height="32px" viewBox="0 0 32 32" version="1.1">
<g id="surface1">
<path style=" stroke:none;fill-rule:nonzero;fill:rgb(0%,20%,50.196081%);fill-opacity:1;" d="M 5.6875 1 L 26.3125 1 C 28.902344 1 31 3.097656 31 5.6875 L 31 26.3125 C 31 28.902344 28.902344 31 26.3125 31 L 5.6875 31 C 3.097656 31 1 28.902344 1 26.3125 L 1 5.6875 C 1 3.097656 3.097656 1 5.6875 1 Z M 5.6875 1 "/>
<path style=" stroke:none;fill-rule:nonzero;fill:rgb(90.196079%,90.196079%,90.196079%);fill-opacity:1;" d="M 15.402344 4.839844 C 14.636719 4.878906 13.855469 5.03125 13.09375 5.300781 C 12.507812 5.507812 11.964844 5.773438 11.457031 6.09375 C 11.515625 6.179688 11.582031 6.257812 11.644531 6.324219 C 11.566406 6.371094 11.417969 6.382812 11.359375 6.390625 C 11.285156 6.398438 11.238281 6.371094 11.175781 6.285156 C 9.789062 7.25 8.757812 8.617188 8.191406 10.167969 C 8.378906 10.367188 8.324219 10.433594 8.183594 10.597656 C 8.039062 10.765625 8.449219 10.886719 8.609375 10.988281 C 8.769531 11.085938 8.957031 11.425781 9.042969 11.601562 C 9.125 11.777344 9.378906 11.867188 9.449219 11.949219 C 9.527344 12.027344 10.003906 12.003906 10.363281 11.976562 C 10.722656 11.949219 10.628906 12.109375 10.597656 12.257812 C 10.5625 12.40625 10.875 12.316406 11.007812 12.40625 C 11.140625 12.5 11.203125 12.4375 11.410156 12.40625 C 11.617188 12.378906 11.542969 12.371094 11.679688 12.511719 C 11.816406 12.652344 11.796875 12.535156 11.910156 12.640625 C 12.027344 12.746094 12.003906 12.683594 12.230469 12.640625 C 12.457031 12.597656 12.378906 12.671875 12.472656 12.738281 C 12.519531 12.777344 12.511719 12.917969 12.546875 13.023438 C 12.519531 13.011719 12.492188 12.972656 12.464844 12.929688 C 12.386719 12.902344 12.328125 12.875 12.328125 12.875 L 12.265625 12.777344 C 12.152344 12.8125 12.535156 13.082031 12.363281 13.207031 C 12.183594 13.339844 12.128906 13.035156 12.128906 13.242188 C 12.136719 13.445312 12.394531 13.511719 12.394531 13.511719 C 12.394531 13.511719 12.191406 13.679688 12.316406 13.769531 C 12.4375 13.863281 12.152344 14.078125 12.050781 14.046875 C 11.953125 14.015625 11.800781 14.152344 11.820312 14.332031 C 11.835938 14.507812 12.09375 14.417969 12.039062 14.324219 C 11.984375 14.230469 12.355469 14.273438 12.386719 14.421875 C 12.414062 14.570312 12.613281 14.542969 12.613281 14.542969 C 12.613281 14.542969 12.410156 14.667969 12.324219 14.605469 C 12.234375 14.546875 12.253906 15.371094 12.355469 15.539062 C 12.460938 15.707031 12.746094 15.882812 12.902344 15.871094 C 13.054688 15.863281 13.210938 16.121094 13.339844 16.230469 C 13.46875 16.347656 14.207031 16.257812 14.125 16.402344 C 14.042969 16.546875 14.371094 16.585938 14.371094 16.585938 C 14.371094 16.585938 14.433594 16.816406 14.507812 16.902344 C 14.582031 16.992188 14.878906 17.019531 14.621094 17.046875 C 14.359375 17.070312 14.492188 17.386719 14.492188 17.386719 C 14.492188 17.386719 14.546875 17.410156 14.613281 17.34375 C 14.679688 17.273438 14.785156 17.253906 14.769531 17.464844 C 14.753906 17.675781 14.683594 17.730469 15.03125 18.011719 C 15.378906 18.300781 15.371094 18.34375 15.425781 18.4375 C 15.480469 18.53125 15.449219 18.636719 15.601562 18.691406 C 15.757812 18.75 16.003906 18.175781 15.84375 18.097656 C 15.679688 18.019531 15.808594 17.882812 15.878906 17.949219 C 15.949219 18.019531 16.355469 17.582031 16.246094 17.207031 C 16.148438 16.875 16.242188 16.683594 16.449219 16.699219 C 16.660156 16.714844 17.09375 15.988281 16.972656 16.097656 C 16.855469 16.207031 16.425781 15.433594 16.816406 15.589844 C 17.210938 15.746094 17.566406 15.222656 17.1875 15.292969 C 16.804688 15.363281 17.421875 14.933594 17.292969 14.886719 C 17.164062 14.84375 16.328125 14.539062 16.648438 14.421875 C 16.96875 14.308594 16.574219 13.117188 16.394531 13.113281 C 16.214844 13.113281 15.972656 12.761719 15.984375 12.597656 C 15.984375 12.589844 15.984375 12.582031 15.984375 12.570312 C 15.894531 12.476562 15.785156 12.449219 15.738281 12.527344 C 15.660156 12.652344 15.3125 12.625 15.207031 12.570312 C 15.101562 12.515625 15.085938 12.402344 15.007812 12.457031 C 14.933594 12.511719 14.933594 12.636719 14.875 12.527344 C 14.855469 12.488281 14.816406 12.429688 14.777344 12.363281 C 13.636719 12.019531 14.070312 12.730469 13.589844 12.457031 C 13.574219 12.464844 13.535156 12.457031 13.496094 12.441406 C 13.429688 12.488281 13.367188 12.535156 13.339844 12.476562 C 13.328125 12.453125 13.328125 12.4375 13.316406 12.421875 C 13.273438 12.421875 13.230469 12.410156 13.199219 12.394531 C 13.183594 12.394531 13.171875 12.394531 13.15625 12.402344 C 13.144531 12.402344 13.128906 12.414062 13.121094 12.421875 C 13.148438 12.527344 13.167969 12.652344 13.113281 12.703125 C 13.074219 12.742188 12.996094 12.726562 12.917969 12.738281 C 12.878906 12.777344 12.882812 12.832031 12.871094 12.859375 C 12.859375 12.894531 12.785156 12.917969 12.738281 12.957031 C 12.726562 12.855469 12.730469 12.753906 12.730469 12.753906 L 12.441406 12.457031 L 12.265625 12.414062 C 12.226562 12.40625 12.191406 12.394531 12.167969 12.386719 C 12.164062 12.386719 12.167969 12.390625 12.167969 12.394531 C 12.15625 12.402344 12.140625 12.414062 12.128906 12.421875 C 12.050781 12.46875 11.867188 12.417969 11.734375 12.433594 C 11.601562 12.457031 11.753906 12.449219 11.585938 12.222656 C 11.417969 12 11.210938 11.792969 11.210938 11.792969 L 11.21875 11.660156 C 11.183594 11.625 11.144531 11.558594 11.175781 11.460938 C 11.226562 11.300781 10.957031 11.1875 11.042969 10.957031 C 11.125 10.726562 10.992188 10.761719 11.253906 10.824219 C 11.519531 10.886719 11.675781 10.53125 11.707031 10.335938 C 11.730469 10.164062 11.78125 10.25 11.941406 10.265625 C 11.933594 10.246094 11.929688 10.21875 11.925781 10.179688 C 11.894531 9.964844 11.992188 9.933594 12.082031 9.980469 C 12.089844 9.988281 12.109375 9.984375 12.125 9.988281 C 12.113281 9.910156 12.105469 9.832031 12.125 9.761719 C 12.167969 9.625 12.417969 9.628906 12.644531 9.65625 C 12.574219 9.570312 12.488281 9.382812 12.605469 9.351562 C 12.632812 9.347656 12.660156 9.339844 12.683594 9.339844 C 12.613281 9.292969 12.730469 9.160156 12.886719 9.183594 C 12.886719 9.101562 12.894531 9.003906 12.929688 8.925781 C 12.957031 8.863281 13.007812 8.820312 13.070312 8.800781 C 13.050781 8.730469 13.03125 8.699219 13.019531 8.746094 C 12.988281 8.894531 12.804688 8.597656 12.695312 8.667969 C 12.589844 8.734375 12.542969 8.300781 12.464844 8.25 C 12.382812 8.199219 12.632812 7.761719 12.730469 7.597656 C 12.828125 7.441406 12.6875 7.527344 12.5625 7.492188 C 12.601562 7.457031 12.636719 7.414062 12.660156 7.359375 C 12.8125 6.984375 13.058594 7.785156 12.902344 7.796875 C 12.746094 7.808594 13.539062 7.980469 13.664062 7.824219 C 13.792969 7.667969 13.980469 7.726562 14.144531 8.007812 C 14.332031 8.324219 14.902344 8.320312 14.902344 8.230469 C 14.902344 8.136719 15.082031 8.140625 15.027344 8.308594 C 14.976562 8.472656 15.535156 8.671875 15.597656 8.527344 C 15.660156 8.378906 15.566406 8.335938 15.539062 8.234375 C 15.511719 8.136719 15.472656 8.113281 15.503906 7.683594 C 15.535156 7.253906 15.453125 7.273438 15.300781 7.144531 C 15.144531 7.019531 15.230469 6.957031 15.320312 6.957031 C 15.410156 6.957031 15.425781 6.90625 15.425781 6.90625 C 15.425781 6.90625 15.296875 6.605469 15.105469 6.769531 C 14.917969 6.9375 15.097656 6.710938 15.085938 6.601562 C 15.074219 6.492188 14.953125 6.296875 14.953125 6.296875 C 14.953125 6.296875 15.144531 6.035156 14.988281 6 C 14.832031 5.964844 15.375 5.515625 15.382812 5.351562 C 15.390625 5.199219 15.332031 4.957031 15.402344 4.839844 Z M 17.164062 4.949219 C 17.15625 4.957031 17.148438 4.96875 17.136719 4.976562 C 17.074219 5.019531 17.019531 5.058594 16.988281 5.117188 C 16.980469 5.136719 16.96875 5.15625 16.964844 5.175781 C 16.953125 5.292969 17.042969 5.410156 17.101562 5.511719 C 17.101562 5.5625 17.027344 5.574219 16.945312 5.652344 C 17.175781 5.910156 17.285156 6.171875 16.875 6.296875 C 16.832031 6.300781 16.796875 6.3125 16.792969 6.347656 C 16.785156 6.382812 16.792969 6.4375 16.855469 6.511719 C 16.972656 6.652344 17.246094 6.984375 17.3125 7.097656 C 17.117188 7.640625 17.132812 7.613281 17.058594 7.847656 L 17.101562 7.933594 C 17.101562 7.933594 17.070312 8.070312 17.25 8.15625 C 17.242188 8.132812 17.425781 8.074219 17.441406 8.066406 C 17.457031 8.054688 17.710938 8.308594 17.753906 8.332031 C 18.042969 8.253906 17.957031 8.371094 18.238281 8.214844 C 18.457031 8.179688 18.3125 7.785156 18.542969 7.734375 C 18.777344 7.683594 18.789062 7.742188 18.839844 7.902344 C 19.078125 7.910156 19.371094 7.445312 19.625 7.507812 C 19.621094 7.511719 19.609375 7.511719 19.605469 7.519531 C 19.582031 7.550781 19.582031 8.0625 19.605469 8.152344 C 19.652344 8.324219 19.753906 8.269531 19.769531 8.398438 C 19.363281 8.808594 19.394531 8.789062 19.230469 8.972656 L 19.230469 9.070312 C 19.230469 9.070312 19.148438 9.160156 19.273438 9.308594 C 19.277344 9.285156 19.46875 9.320312 19.484375 9.316406 C 19.503906 9.3125 19.621094 9.636719 19.648438 9.675781 C 19.941406 9.714844 20.015625 9.378906 20.332031 9.347656 C 20.542969 9.398438 20.578125 8.988281 20.808594 9.035156 C 21.035156 9.078125 21.023438 9.132812 21.003906 9.296875 C 21.289062 9.433594 21.671875 9.574219 21.859375 9.832031 C 21.941406 9.964844 22.320312 10.34375 22.433594 10.371094 C 22.472656 10.375 22.519531 10.382812 22.550781 10.378906 C 22.542969 10.398438 22.539062 10.414062 22.53125 10.433594 C 22.511719 10.488281 22.511719 10.496094 22.503906 10.511719 C 22.417969 10.503906 22.320312 10.519531 22.3125 10.625 C 22.300781 10.8125 21.894531 10.664062 21.859375 10.542969 C 21.824219 10.417969 21.582031 10.355469 21.414062 10.492188 C 21.246094 10.625 21.511719 10.835938 21.570312 10.714844 C 21.628906 10.597656 21.832031 11 21.699219 11.128906 C 21.566406 11.253906 21.71875 11.433594 21.71875 11.433594 C 21.71875 11.433594 21.460938 11.3125 21.464844 11.183594 C 21.464844 11.054688 20.640625 11.625 20.539062 11.839844 C 20.433594 12.058594 20.441406 12.460938 20.550781 12.613281 C 20.664062 12.761719 20.503906 13.089844 20.472656 13.296875 C 20.445312 13.503906 21.023438 14.199219 20.820312 14.210938 C 20.617188 14.21875 20.808594 14.585938 20.808594 14.585938 C 20.808594 14.585938 20.605469 14.789062 20.566406 14.925781 C 20.527344 15.058594 20.695312 15.386719 20.496094 15.136719 C 20.296875 14.886719 20.066406 15.230469 20.066406 15.230469 C 20.066406 15.230469 20.070312 15.300781 20.183594 15.320312 C 20.300781 15.339844 20.394531 15.4375 20.167969 15.558594 C 19.945312 15.683594 19.835938 15.648438 19.773438 16.191406 C 19.714844 16.730469 19.664062 16.757812 19.605469 16.875 C 19.546875 16.996094 19.417969 17.027344 19.464844 17.222656 C 19.507812 17.417969 20.253906 17.292969 20.226562 17.074219 C 20.199219 16.855469 20.425781 16.894531 20.402344 17.011719 C 20.378906 17.125 21.101562 17.261719 21.410156 16.902344 C 21.683594 16.585938 21.9375 16.546875 22.058594 16.769531 C 22.152344 16.941406 22.761719 16.960938 22.964844 16.941406 C 22.972656 16.921875 22.980469 16.90625 22.992188 16.890625 C 22.910156 16.796875 23.117188 16.355469 23.28125 16.28125 C 23.511719 15.75 23.683594 15.191406 23.796875 14.621094 C 23.796875 14.617188 23.800781 14.613281 23.796875 14.613281 C 23.800781 14.605469 23.800781 14.59375 23.804688 14.585938 C 23.851562 14.351562 23.886719 14.109375 23.910156 13.871094 C 23.925781 13.75 23.941406 13.628906 23.945312 13.511719 C 23.960938 13.269531 23.960938 13.03125 23.953125 12.789062 C 23.949219 12.667969 23.941406 12.542969 23.933594 12.421875 C 23.929688 12.386719 23.925781 12.351562 23.925781 12.316406 C 23.917969 12.226562 23.90625 12.140625 23.894531 12.054688 C 23.890625 12.011719 23.886719 11.96875 23.882812 11.925781 C 23.871094 11.847656 23.859375 11.765625 23.847656 11.683594 C 23.828125 11.566406 23.800781 11.445312 23.777344 11.324219 C 23.777344 11.324219 23.777344 11.320312 23.777344 11.316406 C 23.730469 11.113281 23.679688 10.914062 23.621094 10.710938 C 23.609375 10.667969 23.597656 10.628906 23.585938 10.589844 C 23.582031 10.589844 23.582031 10.589844 23.578125 10.589844 C 23.5625 10.539062 23.550781 10.488281 23.535156 10.433594 C 23.519531 10.386719 23.503906 10.335938 23.488281 10.285156 C 23.472656 10.246094 23.453125 10.207031 23.4375 10.167969 C 23.371094 9.980469 23.296875 9.800781 23.21875 9.628906 C 23.214844 9.625 23.214844 9.621094 23.210938 9.613281 C 23.207031 9.605469 23.199219 9.597656 23.199219 9.585938 C 22.039062 7.078125 19.742188 5.390625 17.164062 4.949219 Z M 17.335938 20.007812 C 17.238281 20.015625 17.1875 20.027344 17.242188 20.042969 C 17.433594 20.101562 17 20.238281 17.066406 20.355469 C 17.132812 20.472656 16.542969 20.445312 16.457031 20.519531 C 16.371094 20.589844 15.847656 20.269531 15.652344 20.144531 C 15.457031 20.019531 15.558594 20.1875 15.46875 20.304688 C 15.378906 20.425781 15.253906 20.277344 15.023438 20.253906 C 14.789062 20.234375 14.886719 20.320312 14.855469 20.539062 C 14.820312 20.753906 14.289062 20.664062 13.988281 20.363281 C 13.691406 20.058594 13.925781 20.535156 13.59375 20.730469 C 13.546875 20.757812 13.507812 20.785156 13.472656 20.808594 C 15.003906 21.28125 16.683594 21.308594 18.308594 20.785156 C 18.324219 20.714844 18.351562 20.640625 18.378906 20.566406 C 18.25 20.625 17.976562 20.679688 17.964844 20.558594 C 17.960938 20.53125 17.964844 20.503906 17.964844 20.480469 C 17.886719 20.542969 17.734375 20.398438 17.800781 20.246094 C 17.691406 20.234375 17.566406 20.21875 17.46875 20.171875 C 17.390625 20.132812 17.347656 20.074219 17.335938 20.007812 Z M 10.058594 21.769531 C 10.082031 21.816406 10.101562 21.867188 10.121094 21.917969 C 10.121094 21.898438 10.117188 21.878906 10.113281 21.863281 C 10.09375 21.832031 10.082031 21.800781 10.058594 21.769531 Z M 10.058594 21.769531 "/>
<path style=" stroke:none;fill-rule:nonzero;fill:rgb(90.196079%,90.196079%,90.196079%);fill-opacity:1;" d="M 15.84375 4.25 C 11.027344 4.25 7.113281 8.160156 7.113281 12.980469 C 7.113281 17.796875 11.027344 21.707031 15.84375 21.707031 C 20.660156 21.707031 24.574219 17.796875 24.574219 12.980469 C 24.574219 8.160156 20.660156 4.25 15.84375 4.25 Z M 15.84375 4.621094 C 20.464844 4.621094 24.203125 8.359375 24.203125 12.980469 C 24.203125 17.597656 20.464844 21.339844 15.84375 21.339844 C 11.222656 21.339844 7.484375 17.597656 7.484375 12.980469 C 7.484375 8.359375 11.222656 4.621094 15.84375 4.621094 Z M 15.84375 4.621094 "/>
<path style=" stroke:none;fill-rule:nonzero;fill:rgb(90.196079%,90.196079%,90.196079%);fill-opacity:1;" d="M 3 17.996094 C 4.828125 18.886719 6.199219 18.980469 7.152344 20.347656 C 5.25 20.203125 4.292969 18.949219 3 17.996094 Z M 3 17.996094 "/>
<path style=" stroke:none;fill-rule:nonzero;fill:rgb(90.196079%,90.196079%,90.196079%);fill-opacity:1;" d="M 7.136719 16.542969 C 7.085938 18.09375 6.378906 18.917969 7.40625 20.261719 C 8.363281 19.113281 7.476562 17.832031 7.136719 16.542969 Z M 7.136719 16.542969 "/>
<path style=" stroke:none;fill-rule:nonzero;fill:rgb(90.196079%,90.196079%,90.196079%);fill-opacity:1;" d="M 4.203125 19.800781 C 6.144531 20.570312 7.523438 20.574219 8.652344 21.875 C 6.742188 21.855469 5.621094 20.667969 4.203125 19.800781 Z M 4.203125 19.800781 "/>
<path style=" stroke:none;fill-rule:nonzero;fill:rgb(90.196079%,90.196079%,90.196079%);fill-opacity:1;" d="M 8.128906 18.089844 C 8.289062 19.636719 7.695312 20.503906 8.898438 21.773438 C 9.699219 20.566406 8.640625 19.351562 8.128906 18.089844 Z M 8.128906 18.089844 "/>
<path style=" stroke:none;fill-rule:nonzero;fill:rgb(90.196079%,90.196079%,90.196079%);fill-opacity:1;" d="M 5.558594 21.394531 C 7.585938 22.042969 8.960938 21.964844 10.246094 23.195312 C 8.339844 23.289062 7.078125 22.171875 5.558594 21.394531 Z M 5.558594 21.394531 "/>
<path style=" stroke:none;fill-rule:nonzero;fill:rgb(90.196079%,90.196079%,90.196079%);fill-opacity:1;" d="M 9.292969 19.449219 C 9.644531 20.980469 9.160156 21.878906 10.515625 23.070312 C 11.160156 21.824219 9.960938 20.675781 9.292969 19.449219 Z M 9.292969 19.449219 "/>
<path style=" stroke:none;fill-rule:nonzero;fill:rgb(90.196079%,90.196079%,90.196079%);fill-opacity:1;" d="M 3.691406 14.289062 C 5.027344 16.25 6.632812 17.011719 6.382812 19.144531 C 4.183594 18.074219 4.300781 16.074219 3.691406 14.289062 Z M 3.691406 14.289062 "/>
<path style=" stroke:none;fill-rule:nonzero;fill:rgb(90.196079%,90.196079%,90.196079%);fill-opacity:1;" d="M 7.332031 23.398438 C 9.457031 23.542969 10.753906 23.128906 12.320312 24.019531 C 10.515625 24.570312 9.003906 23.789062 7.332031 23.398438 Z M 7.332031 23.398438 "/>
<path style=" stroke:none;fill-rule:nonzero;fill:rgb(90.196079%,90.196079%,90.196079%);fill-opacity:1;" d="M 10.363281 20.613281 C 11.113281 22.023438 10.886719 23.011719 12.511719 23.847656 C 12.792969 22.476562 11.332031 21.652344 10.363281 20.613281 Z M 10.363281 20.613281 "/>
<path style=" stroke:none;fill-rule:nonzero;fill:rgb(90.196079%,90.196079%,90.196079%);fill-opacity:1;" d="M 9.222656 24.492188 C 11.382812 24.496094 12.644531 24.011719 14.328125 24.785156 C 12.574219 25.441406 10.953125 24.769531 9.222656 24.492188 Z M 9.222656 24.492188 "/>
<path style=" stroke:none;fill-rule:nonzero;fill:rgb(90.196079%,90.196079%,90.196079%);fill-opacity:1;" d="M 11.984375 21.542969 C 12.90625 22.878906 12.796875 23.871094 14.535156 24.585938 C 14.660156 23.21875 13.082031 22.5 11.984375 21.542969 Z M 11.984375 21.542969 "/>
<path style=" stroke:none;fill-rule:nonzero;fill:rgb(90.196079%,90.196079%,90.196079%);fill-opacity:1;" d="M 28.6875 17.996094 C 26.859375 18.886719 25.488281 18.980469 24.535156 20.347656 C 26.4375 20.203125 27.394531 18.949219 28.6875 17.996094 Z M 28.6875 17.996094 "/>
<path style=" stroke:none;fill-rule:nonzero;fill:rgb(90.196079%,90.196079%,90.196079%);fill-opacity:1;" d="M 24.550781 16.542969 C 24.601562 18.09375 25.308594 18.917969 24.28125 20.261719 C 23.324219 19.113281 24.210938 17.832031 24.550781 16.542969 Z M 24.550781 16.542969 "/>
<path style=" stroke:none;fill-rule:nonzero;fill:rgb(90.196079%,90.196079%,90.196079%);fill-opacity:1;" d="M 27.484375 19.800781 C 25.542969 20.570312 24.164062 20.574219 23.035156 21.875 C 24.945312 21.855469 26.066406 20.667969 27.484375 19.800781 Z M 27.484375 19.800781 "/>
<path style=" stroke:none;fill-rule:nonzero;fill:rgb(90.196079%,90.196079%,90.196079%);fill-opacity:1;" d="M 23.558594 18.089844 C 23.398438 19.636719 23.992188 20.503906 22.789062 21.773438 C 21.988281 20.566406 23.046875 19.351562 23.558594 18.089844 Z M 23.558594 18.089844 "/>
<path style=" stroke:none;fill-rule:nonzero;fill:rgb(90.196079%,90.196079%,90.196079%);fill-opacity:1;" d="M 26.128906 21.394531 C 24.101562 22.042969 22.726562 21.964844 21.441406 23.195312 C 23.347656 23.289062 24.609375 22.171875 26.128906 21.394531 Z M 26.128906 21.394531 "/>
<path style=" stroke:none;fill-rule:nonzero;fill:rgb(90.196079%,90.196079%,90.196079%);fill-opacity:1;" d="M 22.394531 19.449219 C 22.042969 20.980469 22.527344 21.878906 21.171875 23.070312 C 20.527344 21.824219 21.726562 20.675781 22.394531 19.449219 Z M 22.394531 19.449219 "/>
<path style=" stroke:none;fill-rule:nonzero;fill:rgb(90.196079%,90.196079%,90.196079%);fill-opacity:1;" d="M 27.996094 14.289062 C 26.660156 16.25 25.054688 17.011719 25.304688 19.144531 C 27.503906 18.074219 27.386719 16.074219 27.996094 14.289062 Z M 27.996094 14.289062 "/>
<path style=" stroke:none;fill-rule:nonzero;fill:rgb(90.196079%,90.196079%,90.196079%);fill-opacity:1;" d="M 24.355469 23.398438 C 22.230469 23.542969 20.933594 23.128906 19.367188 24.019531 C 21.171875 24.570312 22.683594 23.789062 24.355469 23.398438 Z M 24.355469 23.398438 "/>
<path style=" stroke:none;fill-rule:nonzero;fill:rgb(90.196079%,90.196079%,90.196079%);fill-opacity:1;" d="M 21.324219 20.613281 C 20.574219 22.023438 20.800781 23.011719 19.175781 23.847656 C 18.894531 22.476562 20.355469 21.652344 21.324219 20.613281 Z M 21.324219 20.613281 "/>
<path style=" stroke:none;fill-rule:nonzero;fill:rgb(90.196079%,90.196079%,90.196079%);fill-opacity:1;" d="M 22.464844 24.492188 C 20.304688 24.496094 19.042969 24.011719 17.359375 24.785156 C 19.113281 25.441406 20.734375 24.769531 22.464844 24.492188 Z M 22.464844 24.492188 "/>
<path style=" stroke:none;fill-rule:nonzero;fill:rgb(90.196079%,90.196079%,90.196079%);fill-opacity:1;" d="M 19.703125 21.542969 C 18.78125 22.878906 18.890625 23.871094 17.152344 24.585938 C 17.027344 23.21875 18.605469 22.5 19.703125 21.542969 Z M 19.703125 21.542969 "/>
<path style=" stroke:none;fill-rule:nonzero;fill:rgb(90.196079%,90.196079%,90.196079%);fill-opacity:1;" d="M 14.5625 24.761719 C 16.402344 25.738281 17.863281 25.667969 18.699219 27.4375 C 17.519531 26.273438 15.160156 25.765625 14.5625 24.761719 Z M 14.5625 24.761719 "/>
<path style=" stroke:none;fill-rule:nonzero;fill:rgb(90.196079%,90.196079%,90.196079%);fill-opacity:1;" d="M 17.125 24.761719 C 15.285156 25.738281 13.824219 25.667969 12.988281 27.4375 C 14.167969 26.273438 16.527344 25.765625 17.125 24.761719 Z M 17.125 24.761719 "/>
</g>
</svg>
