
<svg xmlns="http://www.w3.org/2000/svg" xmlns:xlink="http://www.w3.org/1999/xlink" width="32px" height="32px" viewBox="0 0 32 32" version="1.1">
<g id="surface1">
<path style="fill-rule:nonzero;fill:rgb(83.137256%,10.196079%,10.196079%);fill-opacity:1;stroke-width:27.746531;stroke-linecap:butt;stroke-linejoin:miter;stroke:rgb(88.627452%,53.725493%,53.725493%);stroke-opacity:1;stroke-miterlimit:4;" d="M 84.25 28.75 L 427.75 28.75 C 458.4375 28.75 483.25 53.5625 483.25 84.25 L 483.25 427.75 C 483.25 458.4375 458.4375 483.25 427.75 483.25 L 84.25 483.25 C 53.5625 483.25 28.75 458.4375 28.75 427.75 L 28.75 84.25 C 28.75 53.5625 53.5625 28.75 84.25 28.75 Z M 84.25 28.75 " transform="matrix(0.0625,0,0,0.0625,0,0)"/>
<path style=" stroke:none;fill-rule:nonzero;fill:rgb(100%,100%,100%);fill-opacity:1;" d="M 17.457031 7.328125 C 16.992188 7.328125 16.902344 7.339844 16.617188 7.414062 C 15.398438 7.738281 14.554688 8.464844 13.839844 9.800781 C 13.753906 9.972656 13.675781 10.105469 13.667969 10.105469 C 13.660156 10.105469 13.527344 9.976562 13.363281 9.816406 C 12.910156 9.371094 12.519531 9.171875 12.019531 9.144531 C 11.675781 9.121094 11.453125 9.167969 11.128906 9.332031 C 10.65625 9.566406 10.269531 10.0625 10.144531 10.597656 C 10.007812 11.183594 10.183594 11.839844 10.613281 12.363281 L 10.734375 12.507812 L 10.644531 12.570312 C 10.425781 12.722656 10.109375 13.082031 10.003906 13.296875 C 9.796875 13.730469 9.851562 14.257812 10.144531 14.652344 C 10.300781 14.867188 10.527344 15.035156 10.703125 15.058594 C 10.769531 15.070312 10.828125 15.089844 10.835938 15.097656 C 10.839844 15.109375 10.832031 15.214844 10.816406 15.332031 C 10.78125 15.601562 10.824219 15.695312 11.050781 15.824219 C 11.820312 16.269531 14.535156 16.523438 17.457031 16.421875 C 19.964844 16.335938 21.488281 16.066406 21.621094 15.6875 C 21.644531 15.609375 21.640625 15.589844 21.558594 15.519531 L 21.464844 15.441406 L 21.542969 15.390625 C 21.585938 15.363281 21.691406 15.277344 21.773438 15.199219 C 22.328125 14.683594 22.199219 13.761719 21.515625 13.320312 C 21.425781 13.261719 21.355469 13.199219 21.363281 13.175781 C 21.671875 12.46875 21.734375 12.210938 21.753906 11.550781 C 21.769531 10.984375 21.734375 10.699219 21.589844 10.25 C 21.179688 9.003906 20.074219 7.9375 18.753906 7.519531 C 18.257812 7.363281 18.011719 7.328125 17.457031 7.328125 Z M 19.195312 11.859375 C 19.320312 11.855469 19.449219 11.882812 19.574219 11.945312 C 20.195312 12.246094 20.113281 13.160156 19.449219 13.363281 C 19.253906 13.417969 19.175781 13.417969 18.964844 13.347656 C 18.542969 13.199219 18.339844 12.707031 18.535156 12.289062 C 18.660156 12.023438 18.917969 11.867188 19.195312 11.859375 Z M 13.90625 11.867188 C 14.09375 11.871094 14.261719 11.941406 14.410156 12.074219 C 14.636719 12.289062 14.710938 12.578125 14.621094 12.878906 C 14.535156 13.160156 14.199219 13.40625 13.886719 13.40625 C 13.789062 13.40625 13.671875 13.378906 13.574219 13.332031 C 13.207031 13.164062 13.039062 12.777344 13.15625 12.390625 C 13.207031 12.214844 13.472656 11.949219 13.636719 11.902344 C 13.730469 11.875 13.820312 11.863281 13.90625 11.867188 Z M 14.121094 12.058594 C 14.039062 12.058594 13.957031 12.101562 13.902344 12.191406 C 13.738281 12.453125 14.0625 12.71875 14.300781 12.515625 C 14.359375 12.464844 14.386719 12.410156 14.386719 12.347656 C 14.386719 12.167969 14.253906 12.058594 14.121094 12.058594 Z M 19.484375 12.070312 C 19.414062 12.066406 19.347656 12.097656 19.285156 12.167969 C 19.167969 12.300781 19.21875 12.523438 19.386719 12.589844 C 19.484375 12.628906 19.503906 12.628906 19.613281 12.558594 C 19.792969 12.449219 19.792969 12.226562 19.613281 12.117188 C 19.570312 12.089844 19.527344 12.074219 19.484375 12.070312 Z M 16.484375 13.453125 C 17.550781 13.453125 17.589844 13.457031 17.632812 13.515625 C 17.671875 13.566406 17.675781 13.65625 17.667969 13.957031 C 17.660156 14.269531 17.644531 14.359375 17.585938 14.480469 C 17.46875 14.71875 17.285156 14.902344 17.050781 15.011719 C 16.871094 15.101562 16.800781 15.113281 16.542969 15.125 C 16.347656 15.128906 16.199219 15.121094 16.113281 15.089844 C 15.796875 14.988281 15.542969 14.769531 15.390625 14.472656 C 15.308594 14.3125 15.300781 14.277344 15.300781 13.917969 C 15.300781 13.644531 15.316406 13.523438 15.34375 13.496094 C 15.375 13.464844 15.621094 13.453125 16.484375 13.453125 Z M 21.761719 15.738281 C 21.734375 15.734375 21.691406 15.761719 21.671875 15.800781 C 21.511719 16.101562 20.589844 16.324219 18.925781 16.472656 C 18.167969 16.539062 15.667969 16.566406 14.722656 16.519531 C 12.726562 16.417969 11.441406 16.210938 10.972656 15.914062 C 10.886719 15.863281 10.8125 15.824219 10.800781 15.839844 C 10.789062 15.847656 10.980469 17.5 11.230469 19.511719 L 11.675781 23.160156 L 11.792969 23.285156 C 11.941406 23.4375 12.398438 23.746094 12.722656 23.910156 C 13.472656 24.285156 14.542969 24.558594 15.632812 24.652344 C 16.082031 24.691406 17.136719 24.667969 17.59375 24.605469 C 18.636719 24.472656 19.558594 24.175781 20.234375 23.765625 C 20.472656 23.621094 20.90625 23.277344 20.949219 23.207031 C 20.964844 23.175781 21.175781 21.546875 21.417969 19.589844 C 21.875 15.910156 21.886719 15.761719 21.761719 15.738281 Z M 20.152344 16.554688 C 20.167969 16.558594 20.179688 16.558594 20.183594 16.558594 C 20.207031 16.585938 19.785156 23.679688 19.75 23.761719 C 19.722656 23.839844 19.28125 24.015625 18.824219 24.136719 C 18.523438 24.21875 18.441406 24.230469 18.417969 24.191406 C 18.402344 24.160156 18.613281 16.730469 18.632812 16.714844 C 18.636719 16.707031 18.875 16.683594 19.160156 16.65625 C 19.441406 16.632812 19.78125 16.597656 19.917969 16.574219 C 20.019531 16.5625 20.109375 16.554688 20.152344 16.554688 Z M 12.523438 16.558594 C 12.597656 16.558594 12.753906 16.574219 12.917969 16.59375 C 13.140625 16.621094 13.460938 16.652344 13.628906 16.664062 C 13.800781 16.675781 13.945312 16.699219 13.957031 16.714844 C 13.980469 16.757812 14.472656 24.183594 14.449219 24.21875 C 14.433594 24.25 14.402344 24.25 14.234375 24.210938 C 13.953125 24.144531 13.101562 23.863281 13.082031 23.828125 C 13.082031 23.824219 12.9375 22.191406 12.761719 20.199219 C 12.519531 17.480469 12.449219 16.570312 12.476562 16.558594 C 12.480469 16.558594 12.5 16.554688 12.523438 16.558594 Z M 15.507812 16.769531 L 17.03125 16.785156 L 17.058594 20.582031 C 17.074219 22.738281 17.074219 24.386719 17.058594 24.402344 C 17.027344 24.433594 16.304688 24.464844 16 24.445312 C 15.871094 24.4375 15.78125 24.417969 15.773438 24.394531 C 15.757812 24.355469 15.503906 17.335938 15.507812 16.980469 Z M 15.507812 16.769531 "/>
</g>
</svg>
