
<svg xmlns="http://www.w3.org/2000/svg" xmlns:xlink="http://www.w3.org/1999/xlink" width="32px" height="32px" viewBox="0 0 32 32" version="1.1">
<g id="surface1">
<path style="fill-rule:nonzero;fill:rgb(100%,100%,100%);fill-opacity:1;stroke-width:7.007607;stroke-linecap:butt;stroke-linejoin:miter;stroke:rgb(9.019608%,36.862746%,60.000002%);stroke-opacity:1;stroke-miterlimit:4;" d="M 20.609375 6.609375 L 107.390625 6.609375 C 115.125 6.609375 121.390625 12.875 121.390625 20.609375 L 121.390625 107.390625 C 121.390625 115.125 115.125 121.390625 107.390625 121.390625 L 20.609375 121.390625 C 12.875 121.390625 6.609375 115.125 6.609375 107.390625 L 6.609375 20.609375 C 6.609375 12.875 12.875 6.609375 20.609375 6.609375 Z M 20.609375 6.609375 " transform="matrix(0.25,0,0,0.25,0,0)"/>
<path style="fill-rule:nonzero;fill:rgb(0%,36.078432%,58.039218%);fill-opacity:1;stroke-width:0.962356;stroke-linecap:butt;stroke-linejoin:miter;stroke:rgb(0%,36.078432%,58.039218%);stroke-opacity:1;stroke-miterlimit:4;" d="M 822.998596 383.995769 L 813.00902 393.998038 L 813.00902 411.997045 L 822.998596 421.999314 Z M 822.998596 383.995769 " transform="matrix(0.307743,0,0,0.307743,-240.967102,-107.714854)"/>
<path style="fill-rule:nonzero;fill:rgb(0%,36.078432%,58.039218%);fill-opacity:1;stroke-width:0.962356;stroke-linecap:butt;stroke-linejoin:miter;stroke:rgb(0%,36.078432%,58.039218%);stroke-opacity:1;stroke-miterlimit:4;" d="M 808.37599 393.998038 C 804.314154 393.998038 803.996824 395.546612 803.996824 400.192336 L 803.996824 405.015766 C 803.996824 409.648796 804.4157 411.997045 808.37599 411.997045 L 811.003489 411.997045 L 811.003489 393.998038 Z M 808.37599 393.998038 " transform="matrix(0.307743,0,0,0.307743,-240.967102,-107.714854)"/>
<path style="fill:none;stroke-width:4.665237;stroke-linecap:butt;stroke-linejoin:round;stroke:rgb(0%,36.078432%,58.039218%);stroke-opacity:1;stroke-miterlimit:4;" d="M 62.03976 19.958092 C 68.685287 26.603619 72.415044 35.606061 72.415044 44.997273 C 72.415044 54.388484 68.685287 63.403075 62.03976 70.036454 " transform="matrix(0.321527,0,0,0.321527,0.716583,1.836834)"/>
<path style="fill:none;stroke-width:6.904553;stroke-linecap:butt;stroke-linejoin:round;stroke:rgb(0%,36.078432%,58.039218%);stroke-opacity:1;stroke-miterlimit:4;" d="M 62.029893 19.949031 C 68.682716 26.601854 72.422682 35.610136 72.422682 44.99601 C 72.422682 54.399865 68.682716 63.390167 62.029893 70.04299 " transform="matrix(0.217248,0,0,0.217248,4.574911,6.529394)"/>
<path style="fill:none;stroke-width:13.277991;stroke-linecap:butt;stroke-linejoin:round;stroke:rgb(0%,36.078432%,58.039218%);stroke-opacity:1;stroke-miterlimit:4;" d="M 62.036394 19.957853 C 68.675403 26.596862 72.409846 35.621765 72.409846 44.99245 C 72.409846 54.397713 68.675403 63.422617 62.036394 70.061626 " transform="matrix(0.112969,0,0,0.112969,8.433238,11.221951)"/>
</g>
</svg>
