
<svg xmlns="http://www.w3.org/2000/svg" xmlns:xlink="http://www.w3.org/1999/xlink" width="32px" height="32px" viewBox="0 0 32 32" version="1.1">
<g id="surface1">
<path style="fill-rule:nonzero;fill:rgb(100%,100%,100%);fill-opacity:1;stroke-width:0.740509;stroke-linecap:butt;stroke-linejoin:miter;stroke:rgb(94.509804%,76.862746%,5.882353%);stroke-opacity:1;stroke-miterlimit:4;" d="M -35.929724 398.55266 L -26.761911 398.55266 C -25.943356 398.55266 -25.280244 399.215772 -25.280244 400.034327 L -25.280244 409.20214 C -25.280244 410.020694 -25.943356 410.683806 -26.761911 410.683806 L -35.929724 410.683806 C -36.748278 410.683806 -37.41139 410.020694 -37.41139 409.20214 L -37.41139 400.034327 C -37.41139 399.215772 -36.748278 398.55266 -35.929724 398.55266 Z M -35.929724 398.55266 " transform="matrix(2.362205,0,0,2.362205,90.045237,-939.791097)"/>
<path style=" stroke:none;fill-rule:nonzero;fill:rgb(74.117649%,76.47059%,78.039217%);fill-opacity:1;" d="M 16 5.019531 C 11.894531 5.019531 8.589844 8.324219 8.589844 12.433594 L 8.589844 26.980469 L 10.234375 26.980469 L 10.234375 12.433594 C 10.234375 9.238281 12.808594 6.667969 16 6.667969 C 19.191406 6.667969 21.765625 9.238281 21.765625 12.433594 L 21.765625 26.980469 L 23.410156 26.980469 L 23.410156 12.433594 C 23.410156 8.324219 20.105469 5.019531 16 5.019531 Z M 16 5.019531 "/>
<path style=" stroke:none;fill-rule:nonzero;fill:rgb(94.509804%,76.862746%,5.882353%);fill-opacity:1;" d="M 6.667969 26.980469 L 25.332031 26.980469 L 25.332031 16 L 6.667969 16 Z M 6.667969 26.980469 "/>
<path style=" stroke:none;fill-rule:nonzero;fill:rgb(17.254902%,24.313726%,31.37255%);fill-opacity:1;" d="M 16 18.195312 C 15.242188 18.195312 14.628906 18.808594 14.628906 19.566406 C 14.628906 20.113281 14.949219 20.605469 15.449219 20.824219 L 15.449219 24.785156 L 16.550781 24.785156 L 16.550781 20.824219 C 17.050781 20.605469 17.371094 20.113281 17.371094 19.566406 C 17.371094 18.808594 16.757812 18.195312 16 18.195312 Z M 16 18.195312 "/>
</g>
</svg>
