
<svg xmlns="http://www.w3.org/2000/svg" xmlns:xlink="http://www.w3.org/1999/xlink" width="32px" height="32px" viewBox="0 0 32 32" version="1.1">
<g id="surface1">
<path style="fill-rule:nonzero;fill:rgb(100%,100%,100%);fill-opacity:1;stroke-width:27.200571;stroke-linecap:butt;stroke-linejoin:miter;stroke:rgb(30.588236%,66.666669%,2.745098%);stroke-opacity:1;stroke-miterlimit:4;" d="M 87.625 33.1875 L 424.375 33.1875 C 454.4375 33.1875 478.8125 57.5625 478.8125 87.625 L 478.8125 424.375 C 478.8125 454.4375 454.4375 478.8125 424.375 478.8125 L 87.625 478.8125 C 57.5625 478.8125 33.1875 454.4375 33.1875 424.375 L 33.1875 87.625 C 33.1875 57.5625 57.5625 33.1875 87.625 33.1875 Z M 87.625 33.1875 " transform="matrix(0.0625,0,0,0.0625,0,0)"/>
<path style=" stroke:none;fill-rule:nonzero;fill:rgb(100%,100%,100%);fill-opacity:1;" d="M 11.753906 4.234375 C 11.273438 4.234375 10.886719 4.492188 10.886719 4.8125 L 10.886719 6.195312 L 7.738281 6.195312 C 7.054688 6.195312 6.507812 6.5625 6.507812 7.019531 L 6.507812 26.941406 C 6.507812 27.398438 7.054688 27.765625 7.738281 27.765625 L 24.261719 27.765625 C 24.945312 27.765625 25.492188 27.398438 25.492188 26.941406 L 25.492188 7.019531 C 25.492188 6.5625 24.945312 6.195312 24.261719 6.195312 L 21.113281 6.195312 L 21.113281 4.8125 C 21.113281 4.492188 20.726562 4.234375 20.246094 4.234375 Z M 11.753906 4.234375 "/>
<path style=" stroke:none;fill-rule:nonzero;fill:rgb(17.254902%,62.7451%,35.294119%);fill-opacity:1;" d="M 12.621094 4.925781 C 12.238281 4.925781 11.933594 5.132812 11.933594 5.386719 L 11.933594 6.804688 C 11.933594 6.808594 11.933594 6.816406 11.933594 6.824219 L 8.558594 6.824219 C 7.941406 6.824219 7.449219 7.167969 7.449219 7.597656 L 7.449219 26.363281 C 7.449219 26.792969 7.941406 27.136719 8.558594 27.136719 L 23.441406 27.136719 C 24.058594 27.136719 24.550781 26.792969 24.550781 26.363281 L 24.550781 7.597656 C 24.550781 7.167969 24.058594 6.824219 23.441406 6.824219 L 20.066406 6.824219 C 20.066406 6.816406 20.066406 6.808594 20.066406 6.804688 L 20.066406 5.386719 C 20.066406 5.132812 19.761719 4.925781 19.378906 4.925781 Z M 12.621094 4.925781 "/>
<path style=" stroke:none;fill-rule:evenodd;fill:rgb(100%,100%,100%);fill-opacity:1;" d="M 16.089844 10.050781 L 11.140625 18.355469 L 16.089844 18.355469 L 16.089844 23.890625 L 21.035156 15.585938 L 16.089844 15.585938 Z M 16.089844 10.050781 "/>
</g>
</svg>
