<!-- color: #9d3c70 -->
<svg xmlns="http://www.w3.org/2000/svg" xmlns:xlink="http://www.w3.org/1999/xlink" width="32px" height="32px" viewBox="0 0 32 32" version="1.1">
<defs>
<linearGradient id="linear0" gradientUnits="userSpaceOnUse" x1="1" y1="0" x2="47" y2="0" gradientTransform="matrix(0,-0.554655,0.554655,0,2.688282,29.311717)">
<stop offset="0" style="stop-color:rgb(56.078434%,21.568628%,40.392157%);stop-opacity:1;"/>
<stop offset="1" style="stop-color:rgb(61.56863%,23.529412%,43.921569%);stop-opacity:1;"/>
</linearGradient>
<clipPath id="clip1">
  <path d="M 7.625 7.625 L 24.375 7.625 L 24.375 24.375 L 7.625 24.375 Z M 7.625 7.625 "/>
</clipPath>
<clipPath id="clip2">
  <path d="M 28.757812 16 C 28.757812 23.050781 23.042969 28.757812 16 28.757812 C 8.957031 28.757812 3.242188 23.050781 3.242188 16 C 3.242188 8.949219 8.957031 3.242188 16 3.242188 C 23.042969 3.242188 28.757812 8.949219 28.757812 16 Z M 28.757812 16 "/>
</clipPath>
</defs>
<g id="surface1">
<path style="fill-rule:nonzero;fill:rgb(100%,100%,100%);fill-opacity:1;stroke-width:2.693074;stroke-linecap:butt;stroke-linejoin:miter;stroke:rgb(60.392159%,23.137255%,43.137255%);stroke-opacity:1;stroke-miterlimit:4;" d="M 7.330078 1.939453 L 40.669922 1.939453 C 43.646484 1.939453 46.060547 4.353516 46.060547 7.330078 L 46.060547 40.669922 C 46.060547 43.646484 43.646484 46.060547 40.669922 46.060547 L 7.330078 46.060547 C 4.353516 46.060547 1.939453 43.646484 1.939453 40.669922 L 1.939453 7.330078 C 1.939453 4.353516 4.353516 1.939453 7.330078 1.939453 Z M 7.330078 1.939453 " transform="matrix(0.666667,0,0,0.666667,0,0)"/>
<path style=" stroke:none;fill-rule:nonzero;fill:url(#linear0);" d="M 16 3.242188 C 23.046875 3.242188 28.757812 8.953125 28.757812 16 C 28.757812 23.046875 23.046875 28.757812 16 28.757812 C 8.953125 28.757812 3.242188 23.046875 3.242188 16 C 3.242188 8.953125 8.953125 3.242188 16 3.242188 Z M 16 3.242188 "/>
<g clip-path="url(#clip1)" clip-rule="nonzero">
<g clip-path="url(#clip2)" clip-rule="nonzero">
<path style=" stroke:none;fill-rule:nonzero;fill:rgb(97.647059%,97.647059%,97.647059%);fill-opacity:1;" d="M 16 7.679688 C 11.402344 7.679688 7.679688 11.402344 7.679688 16 C 7.679688 20.597656 11.402344 24.320312 16 24.320312 C 20.597656 24.320312 24.320312 20.597656 24.320312 16 C 24.320312 11.402344 20.597656 7.679688 16 7.679688 M 16 9.144531 C 19.78125 9.144531 22.855469 12.21875 22.855469 16 C 22.855469 19.785156 19.78125 22.855469 16 22.855469 C 12.214844 22.855469 9.144531 19.78125 9.144531 16 C 9.144531 12.21875 12.214844 9.144531 16 9.144531 M 16 10.246094 C 12.816406 10.246094 10.246094 12.816406 10.246094 16 C 10.246094 19.183594 12.816406 21.753906 16 21.753906 C 19.183594 21.753906 21.753906 19.183594 21.753906 16 C 21.753906 12.816406 19.183594 10.246094 16 10.246094 M 16 10.246094 "/>
</g>
</g>
</g>
</svg>
