<!-- color: #474747 -->
<svg xmlns="http://www.w3.org/2000/svg" xmlns:xlink="http://www.w3.org/1999/xlink" width="32px" height="32px" viewBox="0 0 32 32" version="1.1">
<defs>
<clipPath id="clip1">
  <path d="M 10.875 12.125 L 23.6875 12.125 L 23.6875 19.875 L 10.875 19.875 Z M 10.875 12.125 "/>
</clipPath>
<clipPath id="clip2">
  <path d="M 30.6875 16 C 30.6875 24.113281 24.109375 30.6875 16 30.6875 C 7.890625 30.6875 1.3125 24.113281 1.3125 16 C 1.3125 7.886719 7.890625 1.3125 16 1.3125 C 24.109375 1.3125 30.6875 7.886719 30.6875 16 Z M 30.6875 16 "/>
</clipPath>
<clipPath id="clip3">
  <path d="M 8.3125 11.5 L 17.3125 11.5 L 17.3125 20.5 L 8.3125 20.5 Z M 8.3125 11.5 "/>
</clipPath>
<clipPath id="clip4">
  <path d="M 30.6875 16 C 30.6875 24.113281 24.109375 30.6875 16 30.6875 C 7.890625 30.6875 1.3125 24.113281 1.3125 16 C 1.3125 7.886719 7.890625 1.3125 16 1.3125 C 24.109375 1.3125 30.6875 7.886719 30.6875 16 Z M 30.6875 16 "/>
</clipPath>
<clipPath id="clip5">
  <path d="M 10.25 13.4375 L 15.375 13.4375 L 15.375 18.5625 L 10.25 18.5625 Z M 10.25 13.4375 "/>
</clipPath>
<clipPath id="clip6">
  <path d="M 30.6875 16 C 30.6875 24.113281 24.109375 30.6875 16 30.6875 C 7.890625 30.6875 1.3125 24.113281 1.3125 16 C 1.3125 7.886719 7.890625 1.3125 16 1.3125 C 24.109375 1.3125 30.6875 7.886719 30.6875 16 Z M 30.6875 16 "/>
</clipPath>
</defs>
<g id="surface1">
<path style="fill-rule:nonzero;fill:rgb(26.274511%,26.274511%,26.274511%);fill-opacity:1;stroke-width:7.093432;stroke-linecap:butt;stroke-linejoin:miter;stroke:rgb(66.666669%,66.666669%,66.666669%);stroke-opacity:1;stroke-miterlimit:4;" d="M 20.078125 5.90625 L 107.921875 5.90625 C 115.75 5.90625 122.09375 12.25 122.09375 20.078125 L 122.09375 107.921875 C 122.09375 115.75 115.75 122.09375 107.921875 122.09375 L 20.078125 122.09375 C 12.25 122.09375 5.90625 115.75 5.90625 107.921875 L 5.90625 20.078125 C 5.90625 12.25 12.25 5.90625 20.078125 5.90625 Z M 20.078125 5.90625 " transform="matrix(0.25,0,0,0.25,0,0)"/>
<g clip-path="url(#clip1)" clip-rule="nonzero">
<g clip-path="url(#clip2)" clip-rule="nonzero">
<path style=" stroke:none;fill-rule:nonzero;fill:rgb(97.647059%,97.647059%,97.647059%);fill-opacity:1;" d="M 13.65625 12.167969 L 20.898438 12.167969 C 22.425781 12.167969 23.664062 13.40625 23.664062 14.933594 L 23.664062 17.070312 C 23.664062 18.59375 22.425781 19.832031 20.898438 19.832031 L 13.65625 19.832031 C 12.128906 19.832031 10.890625 18.59375 10.890625 17.070312 L 10.890625 14.933594 C 10.890625 13.40625 12.128906 12.167969 13.65625 12.167969 M 13.65625 12.167969 "/>
</g>
</g>
<g clip-path="url(#clip3)" clip-rule="nonzero">
<g clip-path="url(#clip4)" clip-rule="nonzero">
<path style=" stroke:none;fill-rule:nonzero;fill:rgb(66.666669%,66.666669%,66.666669%);fill-opacity:1;" d="M 17.277344 16 C 17.277344 18.46875 15.277344 20.472656 12.808594 20.472656 C 10.335938 20.472656 8.335938 18.46875 8.335938 16 C 8.335938 13.53125 10.335938 11.527344 12.808594 11.527344 C 15.277344 11.527344 17.277344 13.53125 17.277344 16 M 17.277344 16 "/>
</g>
</g>
<g clip-path="url(#clip5)" clip-rule="nonzero">
<g clip-path="url(#clip6)" clip-rule="nonzero">
<path style=" stroke:none;fill-rule:nonzero;fill:rgb(81.568629%,27.058825%,21.176471%);fill-opacity:1;" d="M 15.363281 16 C 15.363281 17.410156 14.21875 18.554688 12.808594 18.554688 C 11.394531 18.554688 10.253906 17.410156 10.253906 16 C 10.253906 14.589844 11.394531 13.445312 12.808594 13.445312 C 14.21875 13.445312 15.363281 14.589844 15.363281 16 M 15.363281 16 "/>
</g>
</g>
</g>
</svg>
