
<svg xmlns="http://www.w3.org/2000/svg" xmlns:xlink="http://www.w3.org/1999/xlink" width="32px" height="32px" viewBox="0 0 32 32" version="1.1">
<g id="surface1">
<path style="fill-rule:nonzero;fill:rgb(98.431373%,94.901961%,94.901961%);fill-opacity:1;stroke-width:25.1982;stroke-linecap:butt;stroke-linejoin:miter;stroke:rgb(0%,34.509805%,41.960785%);stroke-opacity:1;stroke-miterlimit:4;" d="M 78.125 38.5625 L 433.875 38.5625 C 452.9375 38.5625 468.4375 54.0625 468.4375 73.1875 L 468.4375 438.8125 C 468.4375 457.9375 452.9375 473.4375 433.875 473.4375 L 78.125 473.4375 C 59.0625 473.4375 43.5625 457.9375 43.5625 438.8125 L 43.5625 73.1875 C 43.5625 54.0625 59.0625 38.5625 78.125 38.5625 Z M 78.125 38.5625 " transform="matrix(0.0625,0,0,0.0625,0,0)"/>
<path style=" stroke:none;fill-rule:evenodd;fill:rgb(26.274511%,31.37255%,36.078432%);fill-opacity:1;" d="M 22.609375 4.644531 C 23.578125 4.644531 24.363281 5.539062 24.363281 6.636719 L 24.363281 26.082031 C 24.363281 27.183594 23.578125 28.074219 22.609375 28.074219 C 21.644531 28.074219 20.859375 27.183594 20.859375 26.082031 L 20.859375 6.636719 C 20.859375 5.539062 21.644531 4.644531 22.609375 4.644531 Z M 22.609375 4.644531 "/>
<path style=" stroke:none;fill-rule:evenodd;fill:rgb(26.274511%,31.37255%,36.078432%);fill-opacity:1;" d="M 22.609375 5.269531 C 23.277344 5.269531 23.816406 5.953125 23.816406 6.792969 L 23.816406 25.941406 C 23.816406 26.78125 23.277344 27.464844 22.609375 27.464844 C 21.945312 27.464844 21.402344 26.78125 21.402344 25.941406 L 21.402344 6.792969 C 21.402344 5.953125 21.945312 5.269531 22.609375 5.269531 Z M 22.609375 5.269531 "/>
<path style=" stroke:none;fill-rule:nonzero;fill:rgb(16.470589%,16.470589%,100%);fill-opacity:1;" d="M 25.871094 11.371094 C 25.871094 13.09375 24.472656 14.488281 22.75 14.488281 C 21.027344 14.488281 19.628906 13.09375 19.628906 11.371094 C 19.628906 9.644531 21.027344 8.246094 22.75 8.246094 C 24.472656 8.246094 25.871094 9.644531 25.871094 11.371094 Z M 25.871094 11.371094 "/>
<path style=" stroke:none;fill-rule:evenodd;fill:rgb(26.274511%,31.37255%,36.078432%);fill-opacity:1;" d="M 16.113281 4.644531 C 17.082031 4.644531 17.863281 5.539062 17.863281 6.636719 L 17.863281 26.082031 C 17.863281 27.183594 17.082031 28.074219 16.113281 28.074219 C 15.144531 28.074219 14.363281 27.183594 14.363281 26.082031 L 14.363281 6.636719 C 14.363281 5.539062 15.144531 4.644531 16.113281 4.644531 Z M 16.113281 4.644531 "/>
<path style=" stroke:none;fill-rule:evenodd;fill:rgb(26.274511%,31.37255%,36.078432%);fill-opacity:1;" d="M 16.113281 5.269531 C 16.777344 5.269531 17.320312 5.953125 17.320312 6.792969 L 17.320312 25.941406 C 17.320312 26.78125 16.777344 27.464844 16.113281 27.464844 C 15.449219 27.464844 14.910156 26.78125 14.910156 25.941406 L 14.910156 6.792969 C 14.910156 5.953125 15.449219 5.269531 16.113281 5.269531 Z M 16.113281 5.269531 "/>
<path style=" stroke:none;fill-rule:nonzero;fill:rgb(16.470589%,16.470589%,100%);fill-opacity:1;" d="M 19.1875 18.191406 C 19.1875 19.914062 17.789062 21.308594 16.066406 21.308594 C 14.339844 21.308594 12.945312 19.914062 12.945312 18.191406 C 12.945312 16.464844 14.339844 15.066406 16.066406 15.066406 C 17.789062 15.066406 19.1875 16.464844 19.1875 18.191406 Z M 19.1875 18.191406 "/>
<path style=" stroke:none;fill-rule:evenodd;fill:rgb(26.274511%,31.37255%,36.078432%);fill-opacity:1;" d="M 9.605469 4.644531 C 10.574219 4.644531 11.355469 5.539062 11.355469 6.636719 L 11.355469 26.082031 C 11.355469 27.183594 10.574219 28.074219 9.605469 28.074219 C 8.636719 28.074219 7.855469 27.183594 7.855469 26.082031 L 7.855469 6.636719 C 7.855469 5.539062 8.636719 4.644531 9.605469 4.644531 Z M 9.605469 4.644531 "/>
<path style=" stroke:none;fill-rule:evenodd;fill:rgb(26.274511%,31.37255%,36.078432%);fill-opacity:1;" d="M 9.605469 5.269531 C 10.269531 5.269531 10.808594 5.953125 10.808594 6.792969 L 10.808594 25.941406 C 10.808594 26.78125 10.269531 27.464844 9.605469 27.464844 C 8.941406 27.464844 8.398438 26.78125 8.398438 25.941406 L 8.398438 6.792969 C 8.398438 5.953125 8.941406 5.269531 9.605469 5.269531 Z M 9.605469 5.269531 "/>
<path style=" stroke:none;fill-rule:nonzero;fill:rgb(16.470589%,16.470589%,100%);fill-opacity:1;" d="M 12.675781 9.40625 C 12.675781 11.128906 11.28125 12.527344 9.558594 12.527344 C 7.832031 12.527344 6.433594 11.128906 6.433594 9.40625 C 6.433594 7.683594 7.832031 6.285156 9.558594 6.285156 C 11.28125 6.285156 12.675781 7.683594 12.675781 9.40625 Z M 12.675781 9.40625 "/>
</g>
</svg>
