
<svg xmlns="http://www.w3.org/2000/svg" xmlns:xlink="http://www.w3.org/1999/xlink" width="32px" height="32px" viewBox="0 0 32 32" version="1.1">
<g id="surface1">
<path style="fill-rule:nonzero;fill:rgb(100%,100%,100%);fill-opacity:1;stroke-width:26.827002;stroke-linecap:butt;stroke-linejoin:miter;stroke:rgb(10.196079%,73.725492%,61.176473%);stroke-opacity:1;stroke-miterlimit:4;" d="M 90.4375 32.125 L 422.5625 32.125 C 452.1875 32.125 476.25 56.125 476.25 85.75 L 476.25 417.9375 C 476.25 447.5625 452.1875 471.5625 422.5625 471.5625 L 90.4375 471.5625 C 60.8125 471.5625 36.8125 447.5625 36.8125 417.9375 L 36.8125 85.75 C 36.8125 56.125 60.8125 32.125 90.4375 32.125 Z M 90.4375 32.125 " transform="matrix(0.0625,0,0,0.0625,0,0)"/>
<path style=" stroke:none;fill-rule:nonzero;fill:rgb(10.196079%,73.725492%,61.176473%);fill-opacity:1;" d="M 19.671875 17.816406 L 18.875 17.816406 L 18.59375 17.546875 C 19.582031 16.398438 20.175781 14.902344 20.175781 13.28125 C 20.175781 9.660156 17.242188 6.730469 13.621094 6.730469 C 10.003906 6.730469 7.070312 9.660156 7.070312 13.28125 C 7.070312 16.902344 10.003906 19.835938 13.621094 19.835938 C 15.246094 19.835938 16.738281 19.238281 17.886719 18.253906 L 18.160156 18.535156 L 18.160156 19.332031 L 23.199219 24.363281 L 24.703125 22.859375 Z M 13.621094 17.816406 C 11.113281 17.816406 9.085938 15.792969 9.085938 13.28125 C 9.085938 10.769531 11.113281 8.746094 13.621094 8.746094 C 16.132812 8.746094 18.160156 10.769531 18.160156 13.28125 C 18.160156 15.792969 16.132812 17.816406 13.621094 17.816406 Z M 13.621094 17.816406 "/>
</g>
</svg>
