
<svg xmlns="http://www.w3.org/2000/svg" xmlns:xlink="http://www.w3.org/1999/xlink" width="32px" height="32px" viewBox="0 0 32 32" version="1.1">
<g id="surface1">
<path style="fill-rule:nonzero;fill:rgb(100%,100%,100%);fill-opacity:1;stroke-width:6.994187;stroke-linecap:butt;stroke-linejoin:miter;stroke:rgb(45.490196%,47.843137%,54.901963%);stroke-opacity:1;stroke-miterlimit:4;" d="M 20.70312 1001.238281 L 107.29687 1001.238281 C 115.01562 1001.238281 121.281245 1007.503906 121.281245 1015.222656 L 121.281245 1101.816406 C 121.281245 1109.535156 115.01562 1115.800781 107.29687 1115.800781 L 20.70312 1115.800781 C 12.98437 1115.800781 6.718745 1109.535156 6.718745 1101.816406 L 6.718745 1015.222656 C 6.718745 1007.503906 12.98437 1001.238281 20.70312 1001.238281 Z M 20.70312 1001.238281 " transform="matrix(0.25,0,0,0.25,0.00000125,-248.629883)"/>
<path style=" stroke:none;fill-rule:nonzero;fill:rgb(64.313728%,66.666669%,74.509805%);fill-opacity:1;" d="M 28.371094 15.957031 C 28.371094 9.148438 22.851562 3.628906 16.042969 3.628906 C 9.234375 3.628906 3.714844 9.148438 3.714844 15.957031 C 3.714844 22.765625 9.234375 28.285156 16.042969 28.285156 C 22.851562 28.285156 28.371094 22.765625 28.371094 15.957031 Z M 28.371094 15.957031 "/>
<path style=" stroke:none;fill-rule:nonzero;fill:rgb(45.490196%,47.843137%,54.901963%);fill-opacity:1;" d="M 24.71875 15.957031 C 24.71875 11.164062 20.835938 7.28125 16.042969 7.28125 C 11.253906 7.28125 7.367188 11.164062 7.367188 15.957031 C 7.367188 20.746094 11.253906 24.632812 16.042969 24.632812 C 20.835938 24.632812 24.71875 20.746094 24.71875 15.957031 Z M 24.71875 15.957031 "/>
<path style=" stroke:none;fill-rule:nonzero;fill:rgb(26.274511%,30.588236%,37.254903%);fill-opacity:1;" d="M 22.433594 15.957031 C 22.433594 12.425781 19.574219 9.566406 16.042969 9.566406 C 12.511719 9.566406 9.652344 12.425781 9.652344 15.957031 C 9.652344 19.488281 12.511719 22.347656 16.042969 22.347656 C 19.574219 22.347656 22.433594 19.488281 22.433594 15.957031 Z M 22.433594 15.957031 "/>
<path style=" stroke:none;fill-rule:nonzero;fill:rgb(63.921571%,65.490198%,73.333335%);fill-opacity:1;" d="M 21.980469 15.957031 C 21.980469 12.679688 19.324219 10.019531 16.042969 10.019531 C 12.765625 10.019531 10.105469 12.679688 10.105469 15.957031 C 10.105469 19.234375 12.765625 21.894531 16.042969 21.894531 C 19.324219 21.894531 21.980469 19.234375 21.980469 15.957031 Z M 21.980469 15.957031 "/>
<path style=" stroke:none;fill-rule:nonzero;fill:rgb(37.254903%,38.431373%,46.27451%);fill-opacity:1;" d="M 18.785156 15.957031 C 18.785156 14.441406 17.558594 13.214844 16.042969 13.214844 C 14.53125 13.214844 13.304688 14.441406 13.304688 15.957031 C 13.304688 17.46875 14.53125 18.695312 16.042969 18.695312 C 17.558594 18.695312 18.785156 17.46875 18.785156 15.957031 Z M 18.785156 15.957031 "/>
<path style=" stroke:none;fill-rule:nonzero;fill:rgb(0%,4.705882%,12.941177%);fill-opacity:1;" d="M 15.128906 12.304688 L 16.957031 12.304688 L 16.957031 19.609375 L 15.128906 19.609375 Z M 15.128906 12.304688 "/>
</g>
</svg>
