
<svg xmlns="http://www.w3.org/2000/svg" xmlns:xlink="http://www.w3.org/1999/xlink" width="32px" height="32px" viewBox="0 0 32 32" version="1.1">
<g id="surface1">
<path style="fill-rule:nonzero;fill:rgb(31.764707%,72.549021%,76.47059%);fill-opacity:1;stroke-width:27.910587;stroke-linecap:butt;stroke-linejoin:miter;stroke:rgb(12.54902%,58.823532%,63.529414%);stroke-opacity:1;stroke-miterlimit:4;" d="M 83.1875 27.4375 L 428.8125 27.4375 C 459.625 27.4375 484.5625 52.375 484.5625 83.1875 L 484.5625 428.8125 C 484.5625 459.625 459.625 484.5625 428.8125 484.5625 L 83.1875 484.5625 C 52.375 484.5625 27.4375 459.625 27.4375 428.8125 L 27.4375 83.1875 C 27.4375 52.375 52.375 27.4375 83.1875 27.4375 Z M 83.1875 27.4375 " transform="matrix(0.0625,0,0,0.0625,0,0)"/>
<path style=" stroke:none;fill-rule:nonzero;fill:rgb(0%,0%,0%);fill-opacity:0.2;" d="M 7.691406 13.269531 L 7.691406 18.734375 L 11.382812 18.734375 L 16 23.289062 L 16 8.710938 L 11.382812 13.269531 Z M 20.152344 16 C 20.152344 14.386719 19.214844 13.003906 17.847656 12.328125 L 17.847656 19.660156 C 19.214844 18.996094 20.152344 17.613281 20.152344 16 Z M 17.847656 8.011719 L 17.847656 9.886719 C 20.515625 10.667969 22.464844 13.113281 22.464844 16 C 22.464844 18.886719 20.515625 21.332031 17.847656 22.113281 L 17.847656 23.988281 C 21.550781 23.160156 24.308594 19.898438 24.308594 16 C 24.308594 12.101562 21.550781 8.839844 17.847656 8.011719 Z M 17.847656 8.011719 "/>
<path style=" stroke:none;fill-rule:nonzero;fill:rgb(96.078432%,96.078432%,96.078432%);fill-opacity:1;" d="M 7.691406 13.269531 L 7.691406 18.734375 L 11.382812 18.734375 L 16 23.289062 L 16 8.710938 L 11.382812 13.269531 Z M 20.152344 16 C 20.152344 14.386719 19.214844 13.003906 17.847656 12.328125 L 17.847656 19.660156 C 19.214844 18.996094 20.152344 17.613281 20.152344 16 Z M 17.847656 8.011719 L 17.847656 9.886719 C 20.515625 10.667969 22.464844 13.113281 22.464844 16 C 22.464844 18.886719 20.515625 21.332031 17.847656 22.113281 L 17.847656 23.988281 C 21.550781 23.160156 24.308594 19.898438 24.308594 16 C 24.308594 12.101562 21.550781 8.839844 17.847656 8.011719 Z M 17.847656 8.011719 "/>
</g>
</svg>
