
<svg xmlns="http://www.w3.org/2000/svg" xmlns:xlink="http://www.w3.org/1999/xlink" width="32px" height="32px" viewBox="0 0 32 32" version="1.1">
<g id="surface1">
<path style="fill-rule:nonzero;fill:rgb(92.156863%,94.117647%,94.117647%);fill-opacity:1;stroke-width:24.505194;stroke-linecap:butt;stroke-linejoin:miter;stroke:rgb(27.058825%,27.058825%,27.058825%);stroke-opacity:0.627451;stroke-miterlimit:4;" d="M 83.0625 44.5625 L 428.9375 44.5625 C 447.5625 44.5625 462.625 59.625 462.625 78.1875 L 462.625 433.8125 C 462.625 452.375 447.5625 467.4375 428.9375 467.4375 L 83.0625 467.4375 C 64.4375 467.4375 49.375 452.375 49.375 433.8125 L 49.375 78.1875 C 49.375 59.625 64.4375 44.5625 83.0625 44.5625 Z M 83.0625 44.5625 " transform="matrix(0.0625,0,0,0.0625,0,0)"/>
<path style=" stroke:none;fill-rule:nonzero;fill:rgb(49.019608%,54.11765%,54.901963%);fill-opacity:1;" d="M 16 8.585938 L 8.585938 16 L 8.585938 17.648438 L 12.292969 17.648438 L 12.292969 23.414062 L 19.707031 23.414062 L 19.707031 17.648438 L 23.414062 17.648438 L 23.414062 16 L 17.164062 9.753906 Z M 16 10.917969 L 21.082031 16 L 18.058594 16 L 18.058594 21.765625 L 13.941406 21.765625 L 13.941406 16 L 10.917969 16 Z M 16 10.917969 "/>
</g>
</svg>
