<!-- color: #eeeeee -->
<svg xmlns="http://www.w3.org/2000/svg" xmlns:xlink="http://www.w3.org/1999/xlink" width="32px" height="32px" viewBox="0 0 32 32" version="1.1">
<defs>
<linearGradient id="linear0" gradientUnits="userSpaceOnUse" x1="1" y1="0" x2="47" y2="0" gradientTransform="matrix(0,-0.516595,0.516595,0,3.601711,28.398287)">
<stop offset="0" style="stop-color:rgb(89.411765%,89.411765%,89.411765%);stop-opacity:1;"/>
<stop offset="1" style="stop-color:rgb(93.333334%,93.333334%,93.333334%);stop-opacity:1;"/>
</linearGradient>
<clipPath id="clip1">
  <path d="M 8.25 8.25 L 23.75 8.25 L 23.75 23.75 L 8.25 23.75 Z M 8.25 8.25 "/>
</clipPath>
<clipPath id="clip2">
  <path d="M 27.882812 16 C 27.882812 22.566406 22.558594 27.882812 16 27.882812 C 9.441406 27.882812 4.117188 22.566406 4.117188 16 C 4.117188 9.433594 9.441406 4.117188 16 4.117188 C 22.558594 4.117188 27.882812 9.433594 27.882812 16 Z M 27.882812 16 "/>
</clipPath>
<clipPath id="clip3">
  <path d="M 11.8125 12.375 L 13.9375 12.375 L 13.9375 13.5 L 11.8125 13.5 Z M 11.8125 12.375 "/>
</clipPath>
<clipPath id="clip4">
  <path d="M 27.882812 16 C 27.882812 22.566406 22.558594 27.882812 16 27.882812 C 9.441406 27.882812 4.117188 22.566406 4.117188 16 C 4.117188 9.433594 9.441406 4.117188 16 4.117188 C 22.558594 4.117188 27.882812 9.433594 27.882812 16 Z M 27.882812 16 "/>
</clipPath>
<clipPath id="clip5">
  <path d="M 16.9375 9.8125 L 18.5625 9.8125 L 18.5625 10.9375 L 16.9375 10.9375 Z M 16.9375 9.8125 "/>
</clipPath>
<clipPath id="clip6">
  <path d="M 27.882812 16 C 27.882812 22.566406 22.558594 27.882812 16 27.882812 C 9.441406 27.882812 4.117188 22.566406 4.117188 16 C 4.117188 9.433594 9.441406 4.117188 16 4.117188 C 22.558594 4.117188 27.882812 9.433594 27.882812 16 Z M 27.882812 16 "/>
</clipPath>
<clipPath id="clip7">
  <path d="M 15.9375 12.9375 L 17.5625 12.9375 L 17.5625 14.5 L 15.9375 14.5 Z M 15.9375 12.9375 "/>
</clipPath>
<clipPath id="clip8">
  <path d="M 27.882812 16 C 27.882812 22.566406 22.558594 27.882812 16 27.882812 C 9.441406 27.882812 4.117188 22.566406 4.117188 16 C 4.117188 9.433594 9.441406 4.117188 16 4.117188 C 22.558594 4.117188 27.882812 9.433594 27.882812 16 Z M 27.882812 16 "/>
</clipPath>
<clipPath id="clip9">
  <path d="M 20.0625 12.375 L 21.6875 12.375 L 21.6875 14.5 L 20.0625 14.5 Z M 20.0625 12.375 "/>
</clipPath>
<clipPath id="clip10">
  <path d="M 27.882812 16 C 27.882812 22.566406 22.558594 27.882812 16 27.882812 C 9.441406 27.882812 4.117188 22.566406 4.117188 16 C 4.117188 9.433594 9.441406 4.117188 16 4.117188 C 22.558594 4.117188 27.882812 9.433594 27.882812 16 Z M 27.882812 16 "/>
</clipPath>
<clipPath id="clip11">
  <path d="M 12.3125 15 L 13.375 15 L 13.375 17.125 L 12.3125 17.125 Z M 12.3125 15 "/>
</clipPath>
<clipPath id="clip12">
  <path d="M 27.882812 16 C 27.882812 22.566406 22.558594 27.882812 16 27.882812 C 9.441406 27.882812 4.117188 22.566406 4.117188 16 C 4.117188 9.433594 9.441406 4.117188 16 4.117188 C 22.558594 4.117188 27.882812 9.433594 27.882812 16 Z M 27.882812 16 "/>
</clipPath>
<clipPath id="clip13">
  <path d="M 14.875 17.0625 L 16.5 17.0625 L 16.5 19.1875 L 14.875 19.1875 Z M 14.875 17.0625 "/>
</clipPath>
<clipPath id="clip14">
  <path d="M 27.882812 16 C 27.882812 22.566406 22.558594 27.882812 16 27.882812 C 9.441406 27.882812 4.117188 22.566406 4.117188 16 C 4.117188 9.433594 9.441406 4.117188 16 4.117188 C 22.558594 4.117188 27.882812 9.433594 27.882812 16 Z M 27.882812 16 "/>
</clipPath>
<clipPath id="clip15">
  <path d="M 13.875 10.3125 L 14.4375 10.3125 L 14.4375 11.4375 L 13.875 11.4375 Z M 13.875 10.3125 "/>
</clipPath>
<clipPath id="clip16">
  <path d="M 27.882812 16 C 27.882812 22.566406 22.558594 27.882812 16 27.882812 C 9.441406 27.882812 4.117188 22.566406 4.117188 16 C 4.117188 9.433594 9.441406 4.117188 16 4.117188 C 22.558594 4.117188 27.882812 9.433594 27.882812 16 Z M 27.882812 16 "/>
</clipPath>
<clipPath id="clip17">
  <path d="M 17.5 16 L 19.0625 16 L 19.0625 17.625 L 17.5 17.625 Z M 17.5 16 "/>
</clipPath>
<clipPath id="clip18">
  <path d="M 27.882812 16 C 27.882812 22.566406 22.558594 27.882812 16 27.882812 C 9.441406 27.882812 4.117188 22.566406 4.117188 16 C 4.117188 9.433594 9.441406 4.117188 16 4.117188 C 22.558594 4.117188 27.882812 9.433594 27.882812 16 Z M 27.882812 16 "/>
</clipPath>
<clipPath id="clip19">
  <path d="M 20.0625 16 L 22.1875 16 L 22.1875 18.625 L 20.0625 18.625 Z M 20.0625 16 "/>
</clipPath>
<clipPath id="clip20">
  <path d="M 27.882812 16 C 27.882812 22.566406 22.558594 27.882812 16 27.882812 C 9.441406 27.882812 4.117188 22.566406 4.117188 16 C 4.117188 9.433594 9.441406 4.117188 16 4.117188 C 22.558594 4.117188 27.882812 9.433594 27.882812 16 Z M 27.882812 16 "/>
</clipPath>
<clipPath id="clip21">
  <path d="M 17.5 19.625 L 20.125 19.625 L 20.125 21.75 L 17.5 21.75 Z M 17.5 19.625 "/>
</clipPath>
<clipPath id="clip22">
  <path d="M 27.882812 16 C 27.882812 22.566406 22.558594 27.882812 16 27.882812 C 9.441406 27.882812 4.117188 22.566406 4.117188 16 C 4.117188 9.433594 9.441406 4.117188 16 4.117188 C 22.558594 4.117188 27.882812 9.433594 27.882812 16 Z M 27.882812 16 "/>
</clipPath>
<clipPath id="clip23">
  <path d="M 13.332031 20.6875 L 15.5 20.6875 L 15.5 21.75 L 13.332031 21.75 Z M 13.332031 20.6875 "/>
</clipPath>
<clipPath id="clip24">
  <path d="M 27.882812 16 C 27.882812 22.566406 22.558594 27.882812 16 27.882812 C 9.441406 27.882812 4.117188 22.566406 4.117188 16 C 4.117188 9.433594 9.441406 4.117188 16 4.117188 C 22.558594 4.117188 27.882812 9.433594 27.882812 16 Z M 27.882812 16 "/>
</clipPath>
<clipPath id="clip25">
  <path d="M 11.25 18.0625 L 13.375 18.0625 L 13.375 19.1875 L 11.25 19.1875 Z M 11.25 18.0625 "/>
</clipPath>
<clipPath id="clip26">
  <path d="M 27.882812 16 C 27.882812 22.566406 22.558594 27.882812 16 27.882812 C 9.441406 27.882812 4.117188 22.566406 4.117188 16 C 4.117188 9.433594 9.441406 4.117188 16 4.117188 C 22.558594 4.117188 27.882812 9.433594 27.882812 16 Z M 27.882812 16 "/>
</clipPath>
<clipPath id="clip27">
  <path d="M 9.75 15 L 10.3125 15 L 10.3125 17.125 L 9.75 17.125 Z M 9.75 15 "/>
</clipPath>
<clipPath id="clip28">
  <path d="M 27.882812 16 C 27.882812 22.566406 22.558594 27.882812 16 27.882812 C 9.441406 27.882812 4.117188 22.566406 4.117188 16 C 4.117188 9.433594 9.441406 4.117188 16 4.117188 C 22.558594 4.117188 27.882812 9.433594 27.882812 16 Z M 27.882812 16 "/>
</clipPath>
</defs>
<g id="surface1">
<path style="fill-rule:nonzero;fill:rgb(100%,100%,100%);fill-opacity:1;stroke-width:2.648788;stroke-linecap:butt;stroke-linejoin:miter;stroke:rgb(82.745099%,66.274512%,41.568628%);stroke-opacity:1;stroke-miterlimit:4;" d="M 7.599609 2.302734 L 40.400391 2.302734 C 43.324219 2.302734 45.697266 4.675781 45.697266 7.599609 L 45.697266 40.400391 C 45.697266 43.324219 43.324219 45.697266 40.400391 45.697266 L 7.599609 45.697266 C 4.675781 45.697266 2.302734 43.324219 2.302734 40.400391 L 2.302734 7.599609 C 2.302734 4.675781 4.675781 2.302734 7.599609 2.302734 Z M 7.599609 2.302734 " transform="matrix(0.666667,0,0,0.666667,0,0)"/>
<path style=" stroke:none;fill-rule:nonzero;fill:url(#linear0);" d="M 16 4.117188 C 22.5625 4.117188 27.882812 9.4375 27.882812 16 C 27.882812 22.5625 22.5625 27.882812 16 27.882812 C 9.4375 27.882812 4.117188 22.5625 4.117188 16 C 4.117188 9.4375 9.4375 4.117188 16 4.117188 Z M 16 4.117188 "/>
<g clip-path="url(#clip1)" clip-rule="nonzero">
<g clip-path="url(#clip2)" clip-rule="nonzero">
<path style=" stroke:none;fill-rule:nonzero;fill:rgb(81.568629%,63.137257%,35.686275%);fill-opacity:0.886275;" d="M 23.75 16 C 23.75 20.28125 20.28125 23.75 16 23.75 C 11.71875 23.75 8.25 20.28125 8.25 16 C 8.25 11.71875 11.71875 8.25 16 8.25 C 20.28125 8.25 23.75 11.71875 23.75 16 M 23.75 16 "/>
</g>
</g>
<g clip-path="url(#clip3)" clip-rule="nonzero">
<g clip-path="url(#clip4)" clip-rule="nonzero">
<path style=" stroke:none;fill-rule:nonzero;fill:rgb(52.549022%,35.686275%,12.941177%);fill-opacity:1;" d="M 11.824219 12.429688 L 11.824219 13.464844 L 13.890625 12.949219 M 11.824219 12.429688 "/>
</g>
</g>
<g clip-path="url(#clip5)" clip-rule="nonzero">
<g clip-path="url(#clip6)" clip-rule="nonzero">
<path style=" stroke:none;fill-rule:nonzero;fill:rgb(52.549022%,35.686275%,12.941177%);fill-opacity:1;" d="M 16.988281 9.847656 L 16.988281 10.878906 L 18.539062 10.363281 M 16.988281 9.847656 "/>
</g>
</g>
<g clip-path="url(#clip7)" clip-rule="nonzero">
<g clip-path="url(#clip8)" clip-rule="nonzero">
<path style=" stroke:none;fill-rule:nonzero;fill:rgb(52.549022%,35.686275%,12.941177%);fill-opacity:1;" d="M 15.957031 12.949219 L 16.472656 14.496094 L 17.503906 13.464844 M 15.957031 12.949219 "/>
</g>
</g>
<g clip-path="url(#clip9)" clip-rule="nonzero">
<g clip-path="url(#clip10)" clip-rule="nonzero">
<path style=" stroke:none;fill-rule:nonzero;fill:rgb(52.549022%,35.686275%,12.941177%);fill-opacity:1;" d="M 20.605469 12.429688 L 20.089844 14.496094 L 21.636719 13.980469 M 20.605469 12.429688 "/>
</g>
</g>
<g clip-path="url(#clip11)" clip-rule="nonzero">
<g clip-path="url(#clip12)" clip-rule="nonzero">
<path style=" stroke:none;fill-rule:nonzero;fill:rgb(52.549022%,35.686275%,12.941177%);fill-opacity:1;" d="M 12.339844 15.011719 L 12.339844 17.082031 L 13.371094 15.527344 M 12.339844 15.011719 "/>
</g>
</g>
<g clip-path="url(#clip13)" clip-rule="nonzero">
<g clip-path="url(#clip14)" clip-rule="nonzero">
<path style=" stroke:none;fill-rule:nonzero;fill:rgb(52.549022%,35.686275%,12.941177%);fill-opacity:1;" d="M 14.921875 18.113281 L 14.921875 19.144531 L 16.472656 18.628906 L 15.441406 17.078125 M 14.921875 18.113281 "/>
</g>
</g>
<g clip-path="url(#clip15)" clip-rule="nonzero">
<g clip-path="url(#clip16)" clip-rule="nonzero">
<path style=" stroke:none;fill-rule:nonzero;fill:rgb(52.549022%,35.686275%,12.941177%);fill-opacity:1;" d="M 13.890625 10.363281 L 13.890625 10.878906 L 14.410156 11.394531 M 13.890625 10.363281 "/>
</g>
</g>
<g clip-path="url(#clip17)" clip-rule="nonzero">
<g clip-path="url(#clip18)" clip-rule="nonzero">
<path style=" stroke:none;fill-rule:nonzero;fill:rgb(52.549022%,35.686275%,12.941177%);fill-opacity:1;" d="M 19.058594 16.042969 L 17.507812 16.558594 L 18.542969 17.589844 L 19.058594 16.558594 L 19.058594 16.042969 M 19.058594 16.042969 "/>
</g>
</g>
<g clip-path="url(#clip19)" clip-rule="nonzero">
<g clip-path="url(#clip20)" clip-rule="nonzero">
<path style=" stroke:none;fill-rule:nonzero;fill:rgb(52.549022%,35.686275%,12.941177%);fill-opacity:1;" d="M 21.121094 16.042969 L 20.089844 18.625 L 20.605469 17.597656 L 22.15625 17.082031 M 21.121094 16.046875 "/>
</g>
</g>
<g clip-path="url(#clip21)" clip-rule="nonzero">
<g clip-path="url(#clip22)" clip-rule="nonzero">
<path style=" stroke:none;fill-rule:nonzero;fill:rgb(52.549022%,35.686275%,12.941177%);fill-opacity:1;" d="M 18.542969 19.660156 L 17.507812 20.691406 L 19.058594 21.726562 L 20.089844 20.691406 M 18.542969 19.660156 "/>
</g>
</g>
<g clip-path="url(#clip23)" clip-rule="nonzero">
<g clip-path="url(#clip24)" clip-rule="nonzero">
<path style=" stroke:none;fill-rule:nonzero;fill:rgb(52.549022%,35.686275%,12.941177%);fill-opacity:1;" d="M 14.410156 20.691406 L 13.375 20.691406 L 14.925781 21.722656 L 15.441406 21.207031 M 14.410156 20.691406 "/>
</g>
</g>
<g clip-path="url(#clip25)" clip-rule="nonzero">
<g clip-path="url(#clip26)" clip-rule="nonzero">
<path style=" stroke:none;fill-rule:nonzero;fill:rgb(52.549022%,35.686275%,12.941177%);fill-opacity:1;" d="M 11.308594 18.625 L 13.371094 18.113281 L 13.371094 19.140625 L 11.824219 19.140625 M 11.308594 18.625 "/>
</g>
</g>
<g clip-path="url(#clip27)" clip-rule="nonzero">
<g clip-path="url(#clip28)" clip-rule="nonzero">
<path style=" stroke:none;fill-rule:nonzero;fill:rgb(52.549022%,35.686275%,12.941177%);fill-opacity:1;" d="M 9.757812 15.011719 L 10.273438 17.082031 L 10.273438 15.011719 M 9.757812 15.011719 "/>
</g>
</g>
</g>
</svg>
