
<svg xmlns="http://www.w3.org/2000/svg" xmlns:xlink="http://www.w3.org/1999/xlink" width="32px" height="32px" viewBox="0 0 32 32" version="1.1">
<g id="surface1">
<path style="fill-rule:nonzero;fill:rgb(80.000001%,80.000001%,80.000001%);fill-opacity:1;stroke-width:26.147526;stroke-linecap:butt;stroke-linejoin:miter;stroke:rgb(32.941177%,32.941177%,32.941177%);stroke-opacity:1;stroke-miterlimit:4;" d="M 98.9375 49.3125 L 422.6875 49.3125 C 451.5625 49.3125 474.9375 72.75 474.9375 101.625 L 474.9375 425.3125 C 474.9375 454.25 451.5625 477.625 422.6875 477.625 L 98.9375 477.625 C 70.0625 477.625 46.625 454.25 46.625 425.3125 L 46.625 101.625 C 46.625 72.75 70.0625 49.3125 98.9375 49.3125 Z M 98.9375 49.3125 " transform="matrix(0.0625,0,0,0.0625,0,0)"/>
<path style=" stroke:none;fill-rule:nonzero;fill:rgb(16.470589%,49.803922%,100%);fill-opacity:1;" d="M 27.496094 15.417969 C 27.257812 15.089844 26.996094 14.773438 26.734375 14.464844 C 25.320312 12.808594 23.695312 11.335938 21.917969 10.261719 C 20.78125 9.578125 19.566406 9.027344 18.308594 8.761719 C 17.667969 8.628906 17.039062 8.558594 16.378906 8.558594 C 15.738281 8.558594 15.097656 8.628906 14.457031 8.761719 C 13.195312 9.027344 11.980469 9.578125 10.847656 10.261719 C 9.066406 11.335938 7.441406 12.8125 6.023438 14.464844 C 5.761719 14.773438 5.507812 15.085938 5.269531 15.417969 C 4.949219 15.863281 4.949219 16.386719 5.269531 16.828125 C 5.992188 17.839844 6.855469 18.738281 7.726562 19.566406 C 9.613281 21.335938 11.773438 22.820312 14.15625 23.417969 C 14.894531 23.601562 15.628906 23.691406 16.371094 23.691406 C 17.125 23.691406 17.855469 23.601562 18.59375 23.417969 C 20.976562 22.820312 23.136719 21.335938 25.027344 19.566406 C 25.90625 18.742188 26.765625 17.839844 27.488281 16.828125 C 27.808594 16.386719 27.808594 15.863281 27.488281 15.417969 M 27.488281 15.417969 "/>
<path style=" stroke:none;fill-rule:nonzero;fill:rgb(100%,100%,100%);fill-opacity:1;" d="M 26.226562 15.5 C 26.019531 15.207031 25.785156 14.929688 25.550781 14.65625 C 24.300781 13.1875 22.863281 11.878906 21.285156 10.933594 C 20.28125 10.324219 19.203125 9.835938 18.085938 9.601562 C 17.519531 9.480469 16.964844 9.421875 16.378906 9.417969 C 15.808594 9.417969 15.242188 9.480469 14.675781 9.601562 C 13.558594 9.835938 12.484375 10.324219 11.476562 10.933594 C 9.902344 11.878906 8.460938 13.191406 7.203125 14.65625 C 6.972656 14.925781 6.746094 15.207031 6.535156 15.5 C 6.25 15.894531 6.25 16.355469 6.535156 16.746094 C 7.175781 17.644531 7.941406 18.441406 8.714844 19.171875 C 10.386719 20.742188 12.300781 22.058594 14.410156 22.585938 C 15.0625 22.75 15.714844 22.828125 16.371094 22.828125 C 17.039062 22.828125 17.691406 22.75 18.339844 22.585938 C 20.453125 22.058594 22.371094 20.742188 24.042969 19.171875 C 24.820312 18.441406 25.582031 17.644531 26.222656 16.746094 C 26.503906 16.355469 26.503906 15.894531 26.222656 15.5 M 26.222656 15.5 "/>
<path style=" stroke:none;fill-rule:nonzero;fill:rgb(83.137256%,0%,0%);fill-opacity:1;" d="M 21.410156 16.125 C 21.410156 18.902344 19.160156 21.152344 16.382812 21.152344 C 13.605469 21.152344 11.355469 18.902344 11.355469 16.125 C 11.355469 13.347656 13.605469 11.097656 16.382812 11.097656 C 19.160156 11.097656 21.410156 13.347656 21.410156 16.125 M 21.410156 16.125 "/>
<path style=" stroke:none;fill-rule:nonzero;fill:rgb(0%,0%,0%);fill-opacity:1;" d="M 19.175781 16.125 C 19.175781 17.664062 17.925781 18.917969 16.382812 18.917969 C 14.839844 18.917969 13.589844 17.664062 13.589844 16.125 C 13.589844 14.582031 14.839844 13.332031 16.382812 13.332031 C 17.925781 13.332031 19.175781 14.582031 19.175781 16.125 M 19.175781 16.125 "/>
</g>
</svg>
