
<svg xmlns="http://www.w3.org/2000/svg" xmlns:xlink="http://www.w3.org/1999/xlink" width="32px" height="32px" viewBox="0 0 32 32" version="1.1">
<g id="surface1">
<path style="fill-rule:nonzero;fill:rgb(50.196081%,50.196081%,50.196081%);fill-opacity:1;stroke-width:6.392664;stroke-linecap:butt;stroke-linejoin:miter;stroke:rgb(21.568628%,20.784314%,22.745098%);stroke-opacity:1;stroke-miterlimit:4;" d="M 26.593532 935.930593 L 105.738181 935.930593 C 112.800087 935.930593 118.519024 941.64953 118.519024 948.711436 L 118.519024 1027.871175 C 118.519024 1034.933081 112.800087 1040.652017 105.738181 1040.652017 L 26.593532 1040.652017 C 19.531626 1040.652017 13.812689 1034.933081 13.812689 1027.871175 L 13.812689 948.711436 C 13.812689 941.64953 19.531626 935.930593 26.593532 935.930593 Z M 26.593532 935.930593 " transform="matrix(0.258871,0,0,0.258871,-1.606959,-239.840291)"/>
<path style=" stroke:none;fill-rule:nonzero;fill:rgb(21.568628%,20.784314%,22.745098%);fill-opacity:1;" d="M 2.480469 3.042969 L 28.359375 3.042969 L 28.359375 7.535156 L 2.480469 7.535156 Z M 2.480469 3.042969 "/>
<path style=" stroke:none;fill-rule:nonzero;fill:rgb(100%,100%,100%);fill-opacity:1;" d="M 20.714844 4.820312 L 22.390625 4.820312 L 22.390625 6.464844 L 20.714844 6.464844 Z M 20.714844 4.820312 "/>
<path style=" stroke:none;fill-rule:nonzero;fill:rgb(100%,100%,100%);fill-opacity:1;" d="M 23.792969 4.820312 L 25.46875 4.820312 L 25.46875 6.464844 L 23.792969 6.464844 Z M 23.792969 4.820312 "/>
<path style=" stroke:none;fill-rule:nonzero;fill:rgb(100%,100%,100%);fill-opacity:1;" d="M 17.636719 4.820312 L 19.3125 4.820312 L 19.3125 6.464844 L 17.636719 6.464844 Z M 17.636719 4.820312 "/>
<path style=" stroke:none;fill-rule:nonzero;fill:rgb(90.196079%,90.196079%,90.196079%);fill-opacity:1;" d="M 16 10.636719 C 11.882812 10.636719 8.546875 13.816406 8.546875 17.742188 C 8.546875 21.667969 11.882812 24.847656 16 24.847656 C 20.117188 24.847656 23.453125 21.667969 23.453125 17.742188 C 23.453125 13.816406 20.117188 10.636719 16 10.636719 Z M 18.792969 19.519531 L 18.792969 18.628906 L 16.933594 18.628906 L 16.933594 20.410156 L 17.863281 20.410156 L 16 22.183594 L 14.136719 20.410156 L 15.066406 20.410156 L 15.066406 18.628906 L 13.207031 18.628906 L 13.207031 19.519531 L 11.339844 17.742188 L 13.207031 15.964844 L 13.207031 16.855469 L 15.066406 16.855469 L 15.066406 15.078125 L 14.136719 15.078125 L 16 13.300781 L 17.863281 15.078125 L 16.933594 15.078125 L 16.933594 16.855469 L 18.792969 16.855469 L 18.792969 15.964844 L 20.660156 17.742188 Z M 18.792969 19.519531 "/>
</g>
</svg>
