
<svg xmlns="http://www.w3.org/2000/svg" xmlns:xlink="http://www.w3.org/1999/xlink" width="32px" height="32px" viewBox="0 0 32 32" version="1.1">
<g id="surface1">
<path style="fill-rule:nonzero;fill:rgb(12.941177%,12.941177%,12.941177%);fill-opacity:1;stroke-width:28.448774;stroke-linecap:butt;stroke-linejoin:miter;stroke:rgb(90.196079%,90.196079%,90.196079%);stroke-opacity:1;stroke-miterlimit:4;" d="M 82.044493 27.338976 L 434.294493 27.338976 C 465.731993 27.338976 491.169493 52.776476 491.169493 84.213976 L 491.169493 436.463976 C 491.169493 467.901476 465.731993 493.338976 434.294493 493.338976 L 82.044493 493.338976 C 50.606993 493.338976 25.169493 467.901476 25.169493 436.463976 L 25.169493 84.213976 C 25.169493 52.776476 50.606993 27.338976 82.044493 27.338976 Z M 82.044493 27.338976 " transform="matrix(0.0625,0,0,0.0625,-0.135593,-0.271186)"/>
<path style=" stroke:none;fill-rule:nonzero;fill:rgb(0%,100%,0%);fill-opacity:1;" d="M 16.925781 23.746094 C 16.707031 23.472656 16.449219 22.589844 14.835938 16.550781 C 13.097656 10.046875 13.21875 10.449219 13.070312 10.734375 C 13.011719 10.851562 12.621094 12.191406 12.214844 13.714844 C 11.789062 15.28125 11.367188 16.554688 11.242188 16.65625 C 11.078125 16.785156 10.191406 16.832031 7.9375 16.832031 C 5.230469 16.832031 4.824219 16.800781 4.613281 16.59375 C 4.386719 16.367188 4.394531 16.335938 4.691406 16.097656 C 4.972656 15.867188 5.316406 15.839844 7.824219 15.839844 L 10.636719 15.839844 L 10.800781 15.238281 C 12.789062 7.777344 12.886719 7.503906 13.410156 8.058594 C 13.511719 8.164062 14.085938 10.074219 14.683594 12.292969 C 17.375 22.285156 17.105469 21.34375 17.25 21.199219 C 17.292969 21.152344 17.644531 19.949219 18.027344 18.515625 C 18.410156 17.082031 18.800781 15.769531 18.894531 15.589844 C 19.0625 15.273438 19.066406 15.273438 22.863281 15.273438 C 26.472656 15.273438 26.671875 15.285156 26.808594 15.546875 C 26.921875 15.753906 26.902344 15.875 26.734375 16.042969 C 26.542969 16.230469 26.003906 16.265625 23.046875 16.265625 C 21.140625 16.265625 19.582031 16.292969 19.582031 16.332031 C 19.582031 16.5 17.722656 23.324219 17.601562 23.605469 C 17.449219 23.957031 17.140625 24.019531 16.925781 23.746094 Z M 16.925781 23.746094 "/>
</g>
</svg>
