
<svg xmlns="http://www.w3.org/2000/svg" xmlns:xlink="http://www.w3.org/1999/xlink" width="32px" height="32px" viewBox="0 0 32 32" version="1.1">
<g id="surface1">
<path style="fill-rule:nonzero;fill:rgb(92.54902%,92.54902%,92.54902%);fill-opacity:1;stroke-width:11.023891;stroke-linecap:butt;stroke-linejoin:miter;stroke:rgb(100%,16.470589%,40.000001%);stroke-opacity:1;stroke-miterlimit:4;" d="M 34.158375 12.111834 L 170.641729 12.111834 C 182.828637 12.111834 192.68827 21.996492 192.68827 34.158375 L 192.68827 170.641729 C 192.68827 182.828637 182.828637 192.68827 170.641729 192.68827 L 34.158375 192.68827 C 21.996492 192.68827 12.111834 182.828637 12.111834 170.641729 L 12.111834 34.158375 C 12.111834 21.996492 21.996492 12.111834 34.158375 12.111834 Z M 34.158375 12.111834 " transform="matrix(0.156097,0,0,0.156097,0,-0.000000000000002218)"/>
<path style=" stroke:none;fill-rule:nonzero;fill:rgb(100%,16.470589%,49.803922%);fill-opacity:1;" d="M 27.917969 19.933594 C 27.488281 22.546875 22.878906 27.390625 16.660156 27.390625 C 10.445312 27.390625 5.40625 24.050781 5.40625 19.933594 C 5.40625 15.816406 18.183594 7.296875 19.792969 12.171875 C 21.246094 16.582031 14.695312 18.160156 17.511719 18.472656 C 18.648438 18.601562 23.574219 16.574219 26.269531 16.972656 C 27.269531 17.121094 27.941406 19.785156 27.917969 19.933594 Z M 27.917969 19.933594 "/>
<path style=" stroke:none;fill-rule:nonzero;fill:rgb(100%,33.333334%,33.333334%);fill-opacity:1;" d="M 15.175781 13.917969 C 14.824219 13.402344 13.585938 13.449219 12.410156 14.019531 C 11.238281 14.59375 10.574219 15.472656 10.925781 15.988281 C 11.277344 16.503906 12.515625 16.457031 13.6875 15.886719 C 14.863281 15.3125 15.527344 14.433594 15.175781 13.917969 Z M 15.175781 13.917969 "/>
<path style=" stroke:none;fill-rule:nonzero;fill:rgb(0%,0%,100%);fill-opacity:1;" d="M 12.445312 17.496094 C 12.09375 16.980469 10.855469 17.027344 9.683594 17.597656 C 8.507812 18.167969 7.84375 19.050781 8.195312 19.5625 C 8.546875 20.078125 9.785156 20.03125 10.957031 19.460938 C 12.132812 18.886719 12.796875 18.007812 12.445312 17.496094 Z M 12.445312 17.496094 "/>
<path style=" stroke:none;fill-rule:nonzero;fill:rgb(10.196079%,10.196079%,10.196079%);fill-opacity:1;" d="M 22.230469 19.324219 C 21.878906 18.808594 20.644531 18.855469 19.46875 19.425781 C 18.292969 19.996094 17.628906 20.875 17.980469 21.390625 C 18.332031 21.902344 19.570312 21.859375 20.746094 21.289062 C 21.917969 20.714844 22.585938 19.835938 22.230469 19.324219 Z M 22.230469 19.324219 "/>
<path style=" stroke:none;fill-rule:nonzero;fill:rgb(100%,100%,0%);fill-opacity:1;" d="M 11.929688 21.199219 C 11.578125 20.683594 10.339844 20.730469 9.167969 21.300781 C 7.992188 21.871094 7.328125 22.753906 7.679688 23.265625 C 8.03125 23.78125 9.269531 23.734375 10.441406 23.164062 C 11.617188 22.59375 12.285156 21.714844 11.929688 21.199219 Z M 11.929688 21.199219 "/>
<path style=" stroke:none;fill-rule:nonzero;fill:rgb(0%,100%,0%);fill-opacity:1;" d="M 18.273438 23.253906 C 17.917969 22.742188 16.683594 22.785156 15.507812 23.359375 C 14.335938 23.929688 13.667969 24.808594 14.019531 25.324219 C 14.375 25.839844 15.613281 25.792969 16.785156 25.222656 C 17.957031 24.652344 18.625 23.769531 18.273438 23.253906 Z M 18.273438 23.253906 "/>
<path style=" stroke:none;fill-rule:nonzero;fill:rgb(100%,100%,100%);fill-opacity:1;" d="M 24.652344 21.632812 C 24.300781 21.117188 23.0625 21.164062 21.890625 21.734375 C 20.714844 22.308594 20.050781 23.1875 20.402344 23.699219 C 20.753906 24.214844 21.992188 24.167969 23.167969 23.597656 C 24.339844 23.027344 25.003906 22.144531 24.652344 21.632812 Z M 24.652344 21.632812 "/>
<path style=" stroke:none;fill-rule:evenodd;fill:rgb(20%,20%,20%);fill-opacity:1;" d="M 12.292969 22.195312 C 14.488281 21.816406 13.800781 21.167969 15.71875 18.285156 C 16.417969 17.234375 17.949219 18.464844 17.382812 19.316406 C 15.664062 21.902344 14.777344 22.253906 12.292969 22.195312 Z M 12.292969 22.195312 "/>
<path style=" stroke:none;fill-rule:evenodd;fill:rgb(49.019608%,15.294118%,15.294118%);fill-opacity:1;" d="M 26.484375 3.863281 C 26.847656 4.105469 21.636719 13.109375 19.542969 15.871094 C 17.445312 18.632812 16.359375 17.910156 18.097656 14.910156 C 19.832031 11.910156 26.121094 3.625 26.484375 3.863281 Z M 26.484375 3.863281 "/>
</g>
</svg>
