<!-- color: #5dac36 -->
<svg xmlns="http://www.w3.org/2000/svg" xmlns:xlink="http://www.w3.org/1999/xlink" width="32px" height="32px" viewBox="0 0 32 32" version="1.1">
<g id="surface1">
<path style=" stroke:none;fill-rule:nonzero;fill:rgb(0%,0%,0%);fill-opacity:0.0196078;" d="M 0.667969 14.332031 L 0.667969 14.5 C 0.667969 15.976562 1.855469 17.167969 3.332031 17.167969 L 28.667969 17.167969 C 30.144531 17.167969 31.332031 15.976562 31.332031 14.5 L 31.332031 14.332031 C 31.332031 15.808594 30.144531 17 28.667969 17 L 3.332031 17 C 1.855469 17 0.667969 15.808594 0.667969 14.332031 Z M 0.667969 14.667969 L 0.667969 15 C 0.667969 16.476562 1.855469 17.667969 3.332031 17.667969 L 28.667969 17.667969 C 30.144531 17.667969 31.332031 16.476562 31.332031 15 L 31.332031 14.667969 C 31.332031 16.144531 30.144531 17.332031 28.667969 17.332031 L 3.332031 17.332031 C 1.855469 17.332031 0.667969 16.144531 0.667969 14.667969 Z M 0.667969 14.667969 "/>
<path style=" stroke:none;fill-rule:nonzero;fill:rgb(0%,0%,0%);fill-opacity:0.0509804;" d="M 0.667969 14.582031 L 0.667969 14.75 C 0.667969 16.226562 1.855469 17.417969 3.332031 17.417969 L 28.667969 17.417969 C 30.144531 17.417969 31.332031 16.226562 31.332031 14.75 L 31.332031 14.582031 C 31.332031 16.058594 30.144531 17.25 28.667969 17.25 L 3.332031 17.25 C 1.855469 17.25 0.667969 16.058594 0.667969 14.582031 Z M 0.667969 14.582031 "/>
<path style=" stroke:none;fill-rule:nonzero;fill:rgb(0%,0%,0%);fill-opacity:0.101961;" d="M 0.667969 14.582031 L 0.667969 14.75 C 0.667969 16.226562 1.855469 17.417969 3.332031 17.417969 L 28.667969 17.417969 C 30.144531 17.417969 31.332031 16.226562 31.332031 14.75 L 31.332031 14.582031 C 31.332031 16.058594 30.144531 17.25 28.667969 17.25 L 3.332031 17.25 C 1.855469 17.25 0.667969 16.058594 0.667969 14.582031 Z M 0.667969 14.582031 "/>
<path style="fill-rule:nonzero;fill:rgb(36.078432%,66.666669%,20.784314%);fill-opacity:1;stroke-width:25.912724;stroke-linecap:butt;stroke-linejoin:miter;stroke:rgb(0%,50.196081%,0%);stroke-opacity:1;stroke-miterlimit:4;" d="M 28.9375 443.5625 L 28.9375 68.4375 C 28.9375 46.625 46.625 28.9375 68.4375 28.9375 L 443.5625 28.9375 C 465.375 28.9375 483.0625 46.625 483.0625 68.4375 L 483.0625 443.5625 C 483.0625 465.375 465.375 483.0625 443.5625 483.0625 L 68.4375 483.0625 C 46.625 483.0625 28.9375 465.375 28.9375 443.5625 Z M 28.9375 443.5625 " transform="matrix(0.0625,0,0,0.0625,0,0)"/>
<path style="fill-rule:nonzero;fill:rgb(100%,100%,100%);fill-opacity:1;stroke-width:4.266667;stroke-linecap:butt;stroke-linejoin:miter;stroke:rgb(100%,100%,100%);stroke-opacity:1;stroke-miterlimit:4;" d="M -152.61888 178.717132 C -152.61888 303.955788 -254.185873 405.522781 -379.424529 405.522781 C -504.663184 405.522781 -606.230177 303.955788 -606.230177 178.717132 C -606.230177 53.478477 -504.663184 -48.088516 -379.424529 -48.088516 C -254.185873 -48.088516 -152.61888 53.478477 -152.61888 178.717132 Z M -152.61888 178.717132 " transform="matrix(0.0476902,0,0,0.0476902,34.094831,7.476945)"/>
<path style="fill-rule:nonzero;fill:rgb(36.078432%,66.666669%,20.784314%);fill-opacity:1;stroke-width:4.266667;stroke-linecap:butt;stroke-linejoin:miter;stroke:rgb(100%,100%,100%);stroke-opacity:1;stroke-miterlimit:4;" d="M -379.424529 -48.088516 C -398.509294 -48.088516 -416.938789 -45.63125 -434.631104 -41.208172 L -446.262163 -35.638369 L -456.58268 -32.935376 L -463.299207 -25.973123 L -470.916731 -18.601325 L -478.9438 -19.911867 L -479.762889 -24.662581 C -489.510044 -19.911867 -498.765746 -14.342064 -507.693812 -8.280808 L -507.693812 -0.499465 L -498.683837 -1.810007 L -500.64965 6.872332 L -497.291386 15.554672 C -497.291386 15.554672 -498.192384 18.912936 -500.240105 19.895842 C -502.205918 20.960657 -508.430992 14.98131 -508.430992 14.98131 L -509.086263 6.872332 L -515.720881 5.643699 L -523.420314 10.230596 C -523.420314 10.230596 -526.61476 13.588859 -524.567038 16.947123 C -522.519317 20.223478 -521.208775 23.991285 -523.174588 24.892283 C -525.1404 26.039007 -535.215191 27.595275 -535.215191 27.595275 L -541.7679 34.967073 L -551.842691 40.29115 L -554.709501 46.270497 L -561.180301 54.051839 L -566.422469 60.522639 C -566.422469 60.522639 -573.138996 65.109536 -572.483725 67.157257 C -571.664636 69.12307 -571.337001 76.822504 -571.337001 76.822504 L -572.07418 81.491309 L -577.070621 77.232048 L -576.41535 70.515521 L -577.725892 68.713526 C -582.148971 76.576777 -586.080596 84.767664 -589.43886 93.122368 L -586.244414 96.808267 L -591.814217 102.787614 L -591.814217 107.538328 L -584.442419 114.091037 L -583.459513 118.514116 L -580.75652 128.179362 L -572.483725 126.131641 L -571.910363 131.865261 L -571.337001 126.623094 L -562.654661 121.954289 L -562.490843 121.380926 L -553.153232 121.380926 L -548.484427 123.756284 L -534.068467 126.705003 L -530.300659 133.585347 L -524.730856 139.237059 C -524.730856 139.237059 -518.833418 138.909424 -517.850511 138.909424 C -516.867605 138.909424 -511.789255 147.591763 -511.789255 147.591763 L -508.922445 154.554017 L -494.506485 162.826812 L -485.332692 162.089633 L -480.336251 168.150889 L -474.274995 171.918696 L -475.33981 179.290494 L -483.366879 190.184373 C -483.366879 190.184373 -484.513603 205.009878 -484.513603 206.402329 C -484.513603 207.79478 -487.871867 217.787661 -487.871867 217.787661 L -498.274293 222.784102 L -503.188824 234.578979 L -510.232987 251.616023 L -518.260056 252.680838 L -520.225868 258.086823 L -515.311337 260.380271 L -516.53997 266.769163 L -524.894674 268.816884 L -530.21875 275.697229 L -528.171028 280.775579 C -528.171028 280.775579 -526.450942 284.871022 -527.188122 285.853928 C -527.761484 286.836835 -532.512198 289.867463 -532.512198 289.867463 L -525.468036 293.553362 L -528.252937 301.334704 L -525.468036 308.706502 L -520.225868 315.095393 L -533.249378 309.525591 L -542.586989 294.781995 C -542.586989 294.781995 -547.255794 286.263473 -546.600523 285.280566 C -545.945252 284.379569 -549.057789 272.584692 -549.057789 272.584692 L -553.972321 252.353202 L -555.119045 216.149484 L -555.774316 208.122415 L -569.862641 194.115999 L -575.104808 179.126677 L -580.265067 166.840347 L -580.510793 154.881652 L -574.449537 146.854584 L -572.483725 136.206431 L -572.156089 133.585347 L -576.005806 130.554719 L -581.329882 134.568254 L -590.667493 125.558279 L -592.223761 117.776936 L -597.138293 115.155853 C -603.035731 135.305434 -606.230177 156.683647 -606.230177 178.717132 C -606.230177 253.172291 -570.272185 319.354654 -514.819883 360.636723 L -508.349083 357.524186 L -513.673159 350.807659 L -504.335549 346.548398 L -499.421017 339.094691 C -499.502925 339.012782 -499.666743 338.848964 -499.666743 338.848964 L -499.257199 338.848964 L -499.421017 339.094691 C -498.765746 339.749962 -494.342667 343.763496 -494.342667 345.483582 C -494.342667 347.449395 -487.380413 361.455811 -487.380413 361.455811 L -487.708049 362.192991 L -479.353345 366.206525 L -455.681682 363.831168 L -421.279959 366.206525 L -418.413149 365.87889 L -406.454454 355.558373 L -361.076943 353.59256 L -334.784197 354.575467 C -334.784197 354.575467 -330.361118 348.514211 -327.002855 348.514211 C -323.7265 348.514211 -310.784899 347.531304 -310.784899 347.531304 L -301.119653 340.896686 L -291.454407 348.841846 L -276.137449 347.85894 C -276.137449 347.85894 -284.655971 358.425183 -282.772067 358.834728 C -280.888163 359.326181 -265.079752 350.807659 -265.079752 350.807659 L -232.398115 344.25495 L -224.12532 343.927314 C -180.140259 302.563337 -152.61888 243.83468 -152.61888 178.717132 L -158.352501 172.328241 L -179.648806 140.301874 L -174.98 139.646603 L -175.143818 139.810421 L -163.348941 153.489202 L -155.977144 159.550458 L -152.782698 171.099608 C -153.274151 155.946468 -155.239964 141.120963 -158.598227 126.86882 L -161.465038 123.838192 L -164.741392 118.841752 L -165.478572 115.483488 L -169.164471 113.108131 L -170.147377 116.466395 L -173.096096 115.811124 L -174.160912 111.797589 L -173.833276 106.145877 L -174.488547 102.459979 L -177.846811 101.804708 L -177.519175 105.736333 L -181.286983 107.37451 L -182.18798 104.425791 L -182.18798 101.804708 L -187.512057 94.924363 L -189.150234 90.501284 L -189.805505 86.897294 L -191.525591 86.897294 L -195.539126 89.190742 L -198.81548 91.238464 L -201.846108 94.924363 C -201.846108 94.924363 -207.989273 101.804708 -208.480726 101.886616 C -208.97218 102.132343 -211.920899 105.900151 -211.920899 105.900151 L -214.623891 109.258414 L -214.214347 116.630212 L -215.524889 124.821099 L -216.507795 128.179362 L -219.947967 130.227084 L -222.323325 127.278365 L -225.272044 120.316111 L -227.319765 112.944313 L -231.087573 104.261974 L -232.561933 95.251998 L -233.708657 90.255558 L -234.691563 93.613821 L -237.640282 93.613821 L -238.868915 90.665102 L -243.210085 84.603846 L -249.271341 79.27977 L -248.943706 78.952134 L -267.946563 79.27977 L -270.567646 76.249142 L -274.826907 77.313957 L -281.297708 73.628058 L -284.983607 67.894437 L -287.932326 62.242726 L -287.932326 71.006974 L -283.263521 75.266235 L -280.39671 79.607405 L -279.086168 82.965669 L -274.66309 85.01339 L -273.024912 82.310398 L -270.403829 80.67222 L -266.390294 85.259117 L -263.523484 88.699289 L -263.687302 94.023365 L -267.455109 100.330348 L -273.844001 104.016247 L -278.594715 109.667959 L -284.983607 111.306136 L -290.55341 116.712121 L -296.942301 110.32323 L -301.611106 102.623796 L -305.952276 94.596727 L -309.883902 87.22493 L -315.289887 77.232048 L -317.99288 71.498427 L -322.661685 72.235607 L -321.678778 77.232048 L -317.2557 84.931481 L -313.979345 91.238464 L -311.030626 96.316814 L -309.31054 104.999153 L -302.348286 110.32323 L -299.317658 116.384486 L -295.631759 122.363833 L -289.652412 124.00201 L -286.621784 120.971382 L -280.314801 120.971382 L -280.970072 128.34318 L -283.673065 133.42153 L -285.311242 139.073241 L -289.734321 143.414411 L -301.037744 157.338918 L -307.426636 167.413709 L -306.116094 179.454312 L -304.068372 188.136652 L -304.068372 197.474263 L -312.668803 205.747058 L -316.436611 213.774127 L -316.764247 221.719287 L -323.644591 228.763449 L -324.381771 235.152341 L -334.702288 251.124569 L -340.354 251.124569 L -349.69161 252.025567 L -353.459418 255.711466 L -354.360416 248.421577 L -355.097596 242.032685 L -361.076943 234.005617 L -361.404578 229.009176 L -364.353297 217.296208 L -366.401019 215.330395 L -368.694467 203.044065 L -368.366832 196.327538 L -365.418113 189.365285 L -365.745748 181.092489 L -367.711561 168.396615 L -372.13464 163.400174 L -375.410994 157.338918 L -374.182361 153.734928 L -372.789911 148.984214 L -372.789911 143.414411 L -376.475809 140.711419 L -382.127521 140.383783 L -383.765699 137.02552 L -389.089775 136.370249 L -393.430945 138.336062 L -410.140353 138.336062 L -411.12326 142.349596 L -415.792065 141.36669 L -420.46087 137.353155 L -428.487939 127.687909 L -430.781387 121.053291 L -434.794922 114.172946 L -434.139651 107.702146 L -432.091929 102.37807 L -431.764294 85.01339 L -425.129676 76.003415 L -415.792065 68.713526 L -412.106166 58.229191 L -406.04491 52.987024 L -397.034935 52.659388 L -392.448038 48.400127 L -377.786351 49.055398 L -377.376807 45.779044 L -371.39746 45.451408 L -371.39746 55.44429 L -362.059849 61.014093 L -352.722238 66.338169 L -349.03634 61.341728 L -345.759985 58.3111 L -343.056992 61.669363 L -328.395305 64.372356 L -326.347584 59.375915 L -322.006414 60.031186 L -318.402424 60.358822 L -317.009973 52.086026 L -317.337609 47.826765 L -321.351143 47.089585 L -324.299862 49.464943 L -326.019948 46.598132 L -332.654566 48.89158 L -336.258557 44.632319 L -338.306278 39.55397 L -333.637473 38.571063 L -332.326931 36.523342 L -326.019948 33.165078 L -319.38533 33.165078 L -311.685897 34.721347 L -306.361821 33.492714 L -308.655269 28.742 L -312.668803 26.776187 L -317.337609 22.762652 L -314.962251 18.749118 L -322.006414 18.749118 L -320.368237 22.435017 L -322.98932 24.810374 L -325.364677 23.172197 L -326.347584 19.732024 L -332.40884 18.749118 L -333.965108 26.120916 L -336.668101 31.117357 L -336.422374 36.441433 L -338.060552 35.786162 L -342.729357 34.147985 L -344.69517 36.441433 L -345.678076 40.127332 L -344.039899 46.188588 L -346.988618 47.171494 L -351.002152 43.15796 L -352.967965 41.847418 L -352.967965 34.47562 L -357.063408 29.806815 L -365.090477 21.779746 L -368.694467 22.107381 L -369.759283 24.155103 L -358.37395 34.803256 L -357.063408 37.506248 L -359.029221 37.506248 L -358.046315 41.519783 L -361.404578 43.15796 L -362.71512 38.489155 L -374.428088 24.810374 L -376.721536 26.858096 L -387.123962 28.496273 L -392.775674 35.458527 L -399.164565 46.843859 L -405.471548 49.137307 L -413.498617 44.796137 L -413.498617 38.407246 L -411.450895 30.789721 L -406.78209 26.120916 L -405.471548 29.069635 L -398.509294 27.759093 L -397.444479 27.759093 L -395.478666 25.138009 C -395.478666 25.138009 -396.133937 22.762652 -396.461573 22.762652 C -396.789208 22.762652 -398.09975 20.387295 -398.09975 20.387295 L -400.147472 17.110941 L -403.096191 15.063219 L -401.458013 12.687862 L -398.755021 12.360226 C -398.755021 12.360226 -396.707299 11.868773 -396.052028 11.623047 C -395.396757 11.37732 -392.775674 10.64014 -392.775674 10.64014 L -389.089775 9.657234 L -386.386782 6.954241 L -384.748605 4.988429 C -384.748605 4.988429 -383.438063 2.858798 -383.438063 2.039709 C -383.438063 1.056803 -385.485785 0.0738966 -385.731511 -0.990919 C -385.977238 -2.055734 -384.093334 -1.64619 -384.093334 -1.64619 L -379.424529 0.729168 C -379.424529 0.729168 -376.393901 -0.253739 -376.066265 -0.663283 C -375.73863 -1.072827 -375.083359 -3.03864 -375.083359 -3.03864 C -375.083359 -3.03864 -376.557718 -5.413997 -376.393901 -5.987359 C -376.393901 -6.478813 -374.428088 -8.936079 -374.428088 -8.936079 L -371.479369 -6.64263 L -373.117546 -3.939638 L -373.445181 -1.564281 L -371.151733 -1.564281 C -370.742189 -1.564281 -366.810563 -1.318554 -364.762842 -1.564281 C -362.71512 -1.728098 -362.141758 -2.219552 -361.404578 -2.792914 C -360.58549 -3.448185 -359.029221 -3.530093 -359.029221 -3.530093 L -356.408137 -2.547187 L -356.080502 -2.547187 L -352.066968 -5.495906 L -351.329788 -5.987359 C -351.247879 -6.560721 -351.084061 -6.970266 -351.16597 -7.215992 C -351.493606 -7.871263 -351.16597 -10.574256 -351.16597 -10.574256 C -351.16597 -10.574256 -348.872522 -13.604884 -347.889615 -13.932519 C -346.742891 -14.342064 -343.22081 -13.359157 -342.565539 -13.604884 C -341.910268 -13.932519 -339.862547 -15.980241 -339.862547 -15.980241 L -339.207276 -18.273689 L -342.155995 -19.993775 L -345.432349 -19.256596 L -349.118248 -19.092778 L -351.16597 -20.567137 L -351.16597 -24.416854 L -350.510699 -27.037938 L -348.135342 -29.74093 L -348.135342 -31.051472 L -350.838335 -33.099194 L -353.131783 -31.461017 L -354.76996 -29.413295 L -357.145317 -26.464576 C -357.145317 -26.464576 -359.193039 -24.826398 -359.193039 -24.498763 C -359.193039 -24.00731 -360.503581 -23.352039 -360.503581 -23.352039 L -361.158852 -19.993775 L -359.520674 -19.256596 C -359.520674 -19.256596 -357.554862 -17.208874 -357.472953 -16.963147 C -357.391044 -16.717421 -358.210132 -15.32497 -358.210132 -15.32497 L -361.158852 -13.277248 C -361.158852 -13.277248 -361.240761 -9.263714 -361.404578 -8.936079 C -361.568396 -8.608443 -365.418113 -6.233086 -365.418113 -6.233086 L -366.482928 -8.936079 L -368.858285 -12.212433 L -370.824098 -16.225968 C -370.824098 -16.225968 -372.13464 -15.980241 -373.52709 -15.570697 C -374.919541 -15.161152 -375.165268 -13.932519 -375.165268 -13.932519 C -375.165268 -13.932519 -377.622534 -12.540069 -377.86826 -12.540069 C -378.032078 -12.540069 -379.506438 -14.260155 -379.506438 -14.260155 L -380.816979 -17.946054 L -379.834073 -21.550044 L -377.13108 -21.877679 L -370.168827 -29.577113 L -365.418113 -34.327827 L -355.097596 -42.600622 L -345.022805 -44.648344 L -335.685194 -42.928258 L -326.347584 -39.569994 L -319.712966 -36.29364 L -323.071229 -34.901189 L -330.443027 -35.310733 L -331.098298 -32.525832 L -329.460121 -29.904748 L -326.101857 -27.529391 L -314.634616 -33.672556 L -313.897436 -34.164009 L -313.078348 -34.491645 L -313.324074 -34.327827 L -305.297005 -35.638369 C -305.460823 -35.638369 -305.542732 -35.720278 -305.624641 -35.802186 L -313.405983 -34.409736 L -313.078348 -34.655462 C -312.832621 -34.655462 -310.293446 -35.720278 -307.918089 -36.539366 C -330.443027 -43.993073 -354.442325 -48.088516 -379.424529 -48.088516 Z M -428.815575 -33.426829 L -428.815575 -33.344921 L -416.611154 -33.344921 L -414.235796 -30.396201 L -417.921695 -26.710302 L -423.573407 -25.399761 C -423.573407 -25.399761 -425.375402 -25.317852 -430.208025 -29.08566 Z M -399.246474 -14.342064 L -397.690206 -10.082803 L -393.922398 -6.069268 L -392.939491 0.811076 L -389.990772 4.824611 L -395.314849 7.281877 L -401.294196 8.264783 L -402.932373 6.626606 L -400.475107 2.613071 L -397.854023 -0.0899211 L -398.509294 -3.03864 L -403.587644 -5.413997 C -403.587644 -5.413997 -402.604738 -8.772261 -401.949467 -12.048615 Z M -407.683087 -1.891916 L -405.062004 1.793983 L -406.618272 4.824611 L -410.631806 3.186434 Z M -290.389592 18.093847 C -290.635318 18.093847 -290.881045 18.093847 -291.044863 18.257665 L -291.126772 18.5853 C -292.519222 19.076753 -297.106119 22.844561 -297.106119 22.844561 L -298.416661 28.414364 C -298.416661 28.414364 -297.351845 30.625903 -295.795577 31.363083 C -294.321217 32.100263 -291.126772 36.359524 -291.126772 36.359524 L -288.751415 43.321778 L -283.099703 47.089585 L -278.758533 44.959955 L -282.853976 38.571063 L -285.720786 33.574623 L -288.669506 25.547554 L -289.734321 22.18929 L -287.031328 19.732024 C -287.031328 19.732024 -288.915232 18.093847 -290.389592 18.093847 Z M -375.329085 31.199266 L -373.445181 36.113797 L -373.772817 39.55397 L -376.393901 41.929327 L -379.34262 39.062517 Z M -388.844048 39.144425 L -387.205871 40.946421 L -388.844048 41.192147 Z M -365.909566 44.304684 L -361.568396 48.23631 L -364.599024 50.529758 L -367.957287 44.959955 Z M -580.674611 88.863107 L -571.992271 88.863107 L -564.620474 94.187183 L -563.965203 97.135902 L -568.224464 99.756986 L -571.992271 94.678636 L -578.381163 93.450003 L -583.950966 90.501284 L -580.592702 88.863107 Z M -173.833276 126.623094 L -160.482131 141.940052 L -157.533412 151.031936 C -157.533412 151.031936 -163.267033 150.294756 -164.16803 150.294756 C -165.150936 150.294756 -172.686552 128.015545 -173.833276 126.623094 Z M -212.166625 127.196456 L -210.937992 128.916542 L -210.200812 133.994892 L -213.886711 138.008426 L -215.524889 131.537626 Z M -287.113237 191.740642 L -284.082609 191.986369 L -283.099703 196.655174 L -283.099703 202.71643 L -284.328336 205.665149 L -288.423779 212.054041 L -287.768508 217.296208 L -290.471501 221.719287 L -294.812671 228.353905 L -298.416661 227.370998 L -300.136747 220.900198 L -300.136747 214.838942 L -295.795577 211.153043 L -297.433754 209.596775 L -300.136747 205.828967 L -296.450848 202.880248 L -291.290589 200.422982 C -291.290589 200.422982 -287.277055 197.146627 -287.113237 196.491356 Z M -505.973726 292.816182 L -505.809908 292.816182 L -505.973726 292.98 L -504.007913 297.484987 L -509.331989 294.863904 L -508.185265 294.536268 L -505.973726 292.98 Z M -515.311337 294.863904 L -515.147519 294.863904 L -515.147519 295.027721 L -512.854071 299.041256 L -517.522876 300.18798 L -515.147519 295.027721 Z M -496.144662 372.923052 L -496.472297 372.923052 C -493.851214 374.56123 -491.148221 376.117498 -488.445229 377.591858 L -481.646793 377.591858 Z M -496.144662 372.923052 " transform="matrix(0.0476902,0,0,0.0476902,34.094831,7.476945)"/>
</g>
</svg>
