
<svg xmlns="http://www.w3.org/2000/svg" xmlns:xlink="http://www.w3.org/1999/xlink" width="32px" height="32px" viewBox="0 0 32 32" version="1.1">
<g id="surface1">
<path style="fill-rule:nonzero;fill:rgb(72.941178%,9.019608%,30.588236%);fill-opacity:1;stroke-width:8.048979;stroke-linecap:butt;stroke-linejoin:miter;stroke:rgb(19.215687%,21.176471%,27.843139%);stroke-opacity:1;stroke-miterlimit:4;" d="M -15.700135 273.226191 L 83.959599 273.226191 C 92.8496 273.226191 100.046268 280.422859 100.046268 289.31286 L 100.046268 388.972594 C 100.046268 397.862595 92.8496 405.059263 83.959599 405.059263 L -15.700135 405.059263 C -24.590136 405.059263 -31.786803 397.862595 -31.786803 388.972594 L -31.786803 289.31286 C -31.786803 280.422859 -24.590136 273.226191 -15.700135 273.226191 Z M -15.700135 273.226191 " transform="matrix(0.221457,0,0,0.221457,8.441743,-59.105418)"/>
<path style=" stroke:none;fill-rule:nonzero;fill:rgb(100%,100%,100%);fill-opacity:1;" d="M 11.429688 9.671875 C 10.457031 9.671875 9.671875 10.457031 9.671875 11.429688 C 9.671875 12.285156 10.273438 12.988281 11.078125 13.152344 L 11.078125 18.847656 C 10.273438 19.011719 9.671875 19.714844 9.671875 20.570312 C 9.671875 21.542969 10.457031 22.328125 11.429688 22.328125 C 12.402344 22.328125 13.1875 21.542969 13.1875 20.570312 C 13.1875 20.167969 13.046875 19.800781 12.820312 19.503906 L 19.597656 12.894531 C 19.875 13.078125 20.207031 13.1875 20.570312 13.1875 C 21.542969 13.1875 22.328125 12.402344 22.328125 11.429688 C 22.328125 10.457031 21.542969 9.671875 20.570312 9.671875 C 19.597656 9.671875 18.8125 10.457031 18.8125 11.429688 C 18.8125 11.785156 18.917969 12.117188 19.101562 12.394531 L 12.285156 19.042969 C 12.128906 18.957031 11.964844 18.886719 11.78125 18.847656 L 11.78125 13.152344 C 12.585938 12.988281 13.1875 12.285156 13.1875 11.429688 C 13.1875 10.457031 12.402344 9.671875 11.429688 9.671875 Z M 11.429688 9.671875 "/>
</g>
</svg>
