
<svg xmlns="http://www.w3.org/2000/svg" xmlns:xlink="http://www.w3.org/1999/xlink" width="32px" height="32px" viewBox="0 0 32 32" version="1.1">
<g id="surface1">
<path style=" stroke:none;fill-rule:nonzero;fill:rgb(100%,100%,100%);fill-opacity:1;" d="M 4.398438 1.9375 L 27.601562 1.9375 C 28.960938 1.9375 30.0625 3.039062 30.0625 4.398438 L 30.0625 27.601562 C 30.0625 28.960938 28.960938 30.0625 27.601562 30.0625 L 4.398438 30.0625 C 3.039062 30.0625 1.9375 28.960938 1.9375 27.601562 L 1.9375 4.398438 C 1.9375 3.039062 3.039062 1.9375 4.398438 1.9375 Z M 4.398438 1.9375 "/>
<path style=" stroke:none;fill-rule:evenodd;fill:rgb(13.333334%,21.176471%,33.725491%);fill-opacity:1;" d="M 8.707031 8.707031 C 8.707031 8.707031 23.292969 8.707031 23.292969 8.707031 L 23.292969 19.644531 L 20.167969 19.644531 L 20.167969 21.207031 L 18.605469 21.207031 L 18.605469 23.292969 L 13.394531 23.292969 L 13.394531 21.207031 L 11.832031 21.207031 L 11.832031 19.644531 L 8.707031 19.644531 Z M 8.707031 8.707031 "/>
<path style=" stroke:none;fill-rule:nonzero;fill:rgb(94.509804%,79.607844%,42.745098%);fill-opacity:1;" d="M 10.792969 8.707031 L 10.792969 11.3125 L 11.832031 11.3125 L 11.832031 8.707031 Z M 13.917969 8.707031 L 13.917969 11.3125 L 14.957031 11.3125 L 14.957031 8.707031 Z M 17.042969 8.707031 L 17.042969 11.3125 L 18.082031 11.3125 L 18.082031 8.707031 Z M 20.167969 8.707031 L 20.167969 11.3125 L 21.207031 11.3125 L 21.207031 8.707031 Z M 20.167969 8.707031 "/>
<path style=" stroke:none;fill-rule:nonzero;fill:rgb(58.431375%,64.705884%,65.098041%);fill-opacity:1;" d="M 7.144531 7.144531 L 7.144531 21.207031 L 10.792969 21.207031 L 10.792969 23.292969 L 12.355469 23.292969 L 12.355469 24.855469 L 19.644531 24.855469 L 19.644531 23.292969 L 21.207031 23.292969 L 21.207031 21.207031 L 24.855469 21.207031 L 24.855469 7.144531 Z M 8.707031 8.707031 L 23.292969 8.707031 L 23.292969 19.644531 L 20.167969 19.644531 L 20.167969 21.207031 L 18.605469 21.207031 L 18.605469 23.292969 L 13.394531 23.292969 L 13.394531 21.207031 L 11.832031 21.207031 L 11.832031 19.644531 L 8.707031 19.644531 Z M 8.707031 8.707031 "/>
<path style=" stroke:none;fill-rule:nonzero;fill:rgb(96.862745%,87.058824%,63.921571%);fill-opacity:1;" d="M 10.792969 8.707031 L 10.792969 9.230469 L 11.832031 9.230469 L 11.832031 8.707031 Z M 13.917969 8.707031 L 13.917969 9.230469 L 14.957031 9.230469 L 14.957031 8.707031 Z M 17.042969 8.707031 L 17.042969 9.230469 L 18.082031 9.230469 L 18.082031 8.707031 Z M 20.167969 8.707031 L 20.167969 9.230469 L 21.207031 9.230469 L 21.207031 8.707031 Z M 20.167969 8.707031 "/>
<path style=" stroke:none;fill-rule:nonzero;fill:rgb(92.941177%,73.725492%,26.666668%);fill-opacity:1;" d="M 10.792969 10.792969 L 10.792969 11.3125 L 11.832031 11.3125 L 11.832031 10.792969 Z M 13.917969 10.792969 L 13.917969 11.3125 L 14.957031 11.3125 L 14.957031 10.792969 Z M 17.042969 10.792969 L 17.042969 11.3125 L 18.082031 11.3125 L 18.082031 10.792969 Z M 20.167969 10.792969 L 20.167969 11.3125 L 21.207031 11.3125 L 21.207031 10.792969 Z M 20.167969 10.792969 "/>
<path style=" stroke:none;fill-rule:nonzero;fill:rgb(0%,0%,0%);fill-opacity:0.101961;" d="M 4.398438 1.9375 C 3.035156 1.9375 1.9375 3.035156 1.9375 4.398438 L 1.9375 5.148438 C 1.9375 3.785156 3.035156 2.6875 4.398438 2.6875 L 27.601562 2.6875 C 28.964844 2.6875 30.0625 3.785156 30.0625 5.148438 L 30.0625 4.398438 C 30.0625 3.035156 28.964844 1.9375 27.601562 1.9375 Z M 4.398438 1.9375 "/>
<path style=" stroke:none;fill-rule:nonzero;fill:rgb(0%,0%,0%);fill-opacity:0.301961;" d="M 1.9375 26.601562 L 1.9375 27.601562 C 1.9375 28.964844 3.035156 30.0625 4.398438 30.0625 L 27.601562 30.0625 C 28.964844 30.0625 30.0625 28.964844 30.0625 27.601562 L 30.0625 26.601562 C 30.0625 27.964844 28.964844 29.0625 27.601562 29.0625 L 4.398438 29.0625 C 3.035156 29.0625 1.9375 27.964844 1.9375 26.601562 Z M 1.9375 26.601562 "/>
</g>
</svg>
