
<svg xmlns="http://www.w3.org/2000/svg" xmlns:xlink="http://www.w3.org/1999/xlink" width="32px" height="32px" viewBox="0 0 32 32" version="1.1">
<g id="surface1">
<path style="fill-rule:nonzero;fill:rgb(92.54902%,92.54902%,92.54902%);fill-opacity:1;stroke-width:25.836231;stroke-linecap:butt;stroke-linejoin:miter;stroke:rgb(0%,66.666669%,83.137256%);stroke-opacity:1;stroke-miterlimit:4;" d="M -754.58138 77.149081 L -434.70638 77.149081 C -406.20638 77.149081 -383.01888 100.336581 -383.01888 128.836581 L -383.01888 448.711581 C -383.01888 477.211581 -406.20638 500.399081 -434.70638 500.399081 L -754.58138 500.399081 C -783.08138 500.399081 -806.26888 477.211581 -806.26888 448.711581 L -806.26888 128.836581 C -806.26888 100.336581 -783.08138 77.149081 -754.58138 77.149081 Z M -754.58138 77.149081 " transform="matrix(0.0625,0,0,0.0625,53.165243,-2.04838)"/>
<path style=" stroke:none;fill-rule:evenodd;fill:rgb(50.196081%,50.196081%,50.196081%);fill-opacity:1;" d="M 14.097656 25.007812 L 11.0625 26.996094 L 20.929688 26.996094 L 17.894531 25.007812 Z M 14.097656 25.007812 "/>
<path style=" stroke:none;fill-rule:evenodd;fill:rgb(50.196081%,50.196081%,50.196081%);fill-opacity:1;" d="M 14.097656 24.402344 L 11.0625 26.394531 L 20.929688 26.394531 L 17.894531 24.402344 Z M 14.097656 24.402344 "/>
<path style=" stroke:none;fill-rule:nonzero;fill:rgb(30.19608%,30.19608%,30.19608%);fill-opacity:1;" d="M 13.886719 20.746094 L 18.113281 20.746094 L 18.113281 25.445312 L 13.886719 25.445312 Z M 13.886719 20.746094 "/>
<path style=" stroke:none;fill-rule:nonzero;fill:rgb(50.196081%,50.196081%,50.196081%);fill-opacity:1;" d="M 5.523438 5.003906 L 26.476562 5.003906 C 27.210938 5.003906 27.808594 5.570312 27.808594 6.269531 L 27.808594 20.945312 C 27.808594 21.644531 27.210938 22.214844 26.476562 22.214844 L 5.523438 22.214844 C 4.789062 22.214844 4.195312 21.644531 4.195312 20.945312 L 4.195312 6.269531 C 4.195312 5.570312 4.789062 5.003906 5.523438 5.003906 Z M 5.523438 5.003906 "/>
<path style=" stroke:none;fill-rule:nonzero;fill:rgb(0%,66.666669%,83.137256%);fill-opacity:1;" d="M 6.402344 6.613281 L 25.597656 6.613281 L 25.597656 20.605469 L 6.402344 20.605469 Z M 6.402344 6.613281 "/>
<path style=" stroke:none;fill-rule:evenodd;fill:rgb(0%,0%,0%);fill-opacity:1;" d="M 11.0625 26.394531 L 11.0625 26.996094 L 20.9375 26.996094 L 20.9375 26.394531 Z M 11.0625 26.394531 "/>
<path style=" stroke:none;fill-rule:nonzero;fill:rgb(100%,100%,100%);fill-opacity:1;" d="M 18.070312 18.09375 L 16.984375 18.09375 L 16.984375 19.25 L 18.070312 19.25 Z M 16.441406 18.09375 L 15.355469 18.09375 L 15.355469 19.25 L 16.441406 19.25 Z M 14.8125 18.09375 L 13.726562 18.09375 L 13.726562 19.25 L 14.8125 19.25 Z M 14.8125 18.09375 "/>
<path style=" stroke:none;fill-rule:evenodd;fill:rgb(20%,20%,20%);fill-opacity:1;" d="M 6.347656 6.648438 L 6.347656 7.746094 L 25.542969 7.746094 L 25.542969 6.648438 Z M 6.347656 6.648438 "/>
<path style=" stroke:none;fill-rule:nonzero;fill:rgb(100%,100%,100%);fill-opacity:1;" d="M 12.238281 8.386719 C 11.210938 8.375 10.199219 8.824219 9.425781 9.683594 C 7.753906 11.550781 8.371094 14.382812 10.683594 15.460938 C 11.660156 15.917969 11.675781 15.90625 11.257812 15.085938 C 10.871094 14.332031 10.777344 12.859375 11.074219 12.089844 C 11.574219 10.78125 12.660156 9.824219 13.949219 9.554688 C 14.570312 9.425781 14.636719 9.382812 14.488281 9.203125 C 14.394531 9.089844 14.011719 8.863281 13.636719 8.699219 C 13.179688 8.496094 12.707031 8.394531 12.238281 8.386719 Z M 18.355469 9.75 C 18.355469 9.746094 18.351562 9.75 18.347656 9.75 C 18.332031 9.761719 18.265625 9.949219 18.207031 10.171875 C 18.136719 10.425781 18.089844 10.539062 18.023438 10.613281 C 17.949219 10.695312 17.808594 10.753906 17.554688 10.808594 C 17.304688 10.863281 17.171875 10.90625 17.171875 10.933594 C 17.171875 10.972656 17.339844 11.03125 17.636719 11.105469 C 17.898438 11.167969 17.960938 11.191406 18.019531 11.238281 C 18.089844 11.300781 18.117188 11.367188 18.179688 11.625 C 18.269531 11.984375 18.292969 12.066406 18.339844 12.136719 C 18.363281 12.167969 18.363281 12.167969 18.378906 12.148438 C 18.398438 12.121094 18.433594 11.992188 18.511719 11.691406 C 18.605469 11.34375 18.644531 11.277344 18.785156 11.203125 C 18.832031 11.183594 18.957031 11.136719 19.058594 11.109375 C 19.433594 11.003906 19.550781 10.964844 19.535156 10.933594 C 19.519531 10.910156 19.34375 10.847656 19.128906 10.792969 C 18.785156 10.699219 18.730469 10.675781 18.65625 10.605469 C 18.601562 10.550781 18.578125 10.488281 18.53125 10.28125 C 18.460938 9.949219 18.394531 9.753906 18.355469 9.75 Z M 20.433594 13.820312 C 20.410156 13.816406 20.382812 13.90625 20.269531 14.316406 C 20.214844 14.535156 20.15625 14.722656 20.148438 14.734375 C 20.136719 14.746094 19.957031 14.796875 19.738281 14.851562 C 19.386719 14.941406 19.253906 14.988281 19.253906 15.011719 C 19.253906 15.035156 19.367188 15.078125 19.683594 15.164062 C 19.871094 15.214844 20.042969 15.269531 20.074219 15.292969 C 20.152344 15.339844 20.222656 15.515625 20.308594 15.847656 C 20.347656 16.003906 20.386719 16.152344 20.402344 16.175781 C 20.425781 16.21875 20.429688 16.21875 20.457031 16.183594 C 20.472656 16.160156 20.519531 16.023438 20.558594 15.875 C 20.597656 15.730469 20.652344 15.542969 20.675781 15.464844 C 20.730469 15.296875 20.722656 15.300781 21.160156 15.171875 C 21.3125 15.125 21.46875 15.070312 21.503906 15.050781 L 21.574219 15.019531 L 21.519531 14.988281 C 21.464844 14.957031 21.089844 14.832031 20.832031 14.761719 L 20.699219 14.726562 L 20.628906 14.425781 C 20.542969 14.089844 20.472656 13.855469 20.441406 13.824219 C 20.441406 13.824219 20.4375 13.820312 20.433594 13.820312 Z M 15.863281 14.871094 C 15.832031 14.878906 15.753906 15.105469 15.65625 15.46875 L 15.582031 15.742188 L 15.320312 15.808594 C 14.945312 15.898438 14.679688 15.980469 14.679688 16.011719 C 14.679688 16.042969 14.769531 16.074219 15.105469 16.15625 C 15.445312 16.238281 15.480469 16.253906 15.558594 16.359375 C 15.628906 16.449219 15.667969 16.5625 15.746094 16.863281 C 15.777344 16.992188 15.8125 17.121094 15.828125 17.160156 C 15.84375 17.199219 15.863281 17.214844 15.875 17.199219 C 15.886719 17.1875 15.941406 17.027344 15.996094 16.839844 C 16.050781 16.652344 16.121094 16.449219 16.148438 16.390625 C 16.199219 16.28125 16.199219 16.28125 16.394531 16.222656 C 16.863281 16.085938 17.035156 16.027344 17.035156 16.007812 C 17.035156 15.996094 16.960938 15.964844 16.871094 15.941406 C 16.347656 15.789062 16.191406 15.730469 16.160156 15.683594 C 16.140625 15.652344 16.089844 15.511719 16.050781 15.367188 C 15.957031 15.019531 15.894531 14.859375 15.863281 14.871094 Z M 15.863281 14.871094 "/>
</g>
</svg>
