
<svg xmlns="http://www.w3.org/2000/svg" xmlns:xlink="http://www.w3.org/1999/xlink" width="32px" height="32px" viewBox="0 0 32 32" version="1.1">
<g id="surface1">
<path style="fill-rule:nonzero;fill:rgb(52.941179%,80.392158%,87.058824%);fill-opacity:1;stroke-width:28.191782;stroke-linecap:butt;stroke-linejoin:miter;stroke:rgb(0%,41.568628%,72.549021%);stroke-opacity:1;stroke-miterlimit:4;" d="M 81.5 25.0625 L 430.5 25.0625 C 461.6875 25.0625 486.9375 50.3125 486.9375 81.5 L 486.9375 430.5 C 486.9375 461.6875 461.6875 486.9375 430.5 486.9375 L 81.5 486.9375 C 50.3125 486.9375 25.0625 461.6875 25.0625 430.5 L 25.0625 81.5 C 25.0625 50.3125 50.3125 25.0625 81.5 25.0625 Z M 81.5 25.0625 " transform="matrix(0.0625,0,0,0.0625,0,0)"/>
<path style=" stroke:none;fill-rule:nonzero;fill:rgb(100%,100%,100%);fill-opacity:1;" d="M 12.210938 3.613281 C 12.730469 4.316406 12.246094 5.484375 13.035156 5.472656 C 13.417969 6.015625 12.269531 5.636719 13.097656 6.050781 C 13.574219 6.425781 12.59375 6.640625 13.183594 6.976562 C 12.503906 7.328125 13.292969 8.8125 13.800781 9.183594 C 14.628906 9.882812 14.167969 7.703125 15.089844 7.589844 C 15.597656 7.011719 16.480469 6.644531 17.109375 6.066406 C 16.496094 6.015625 16.136719 5.636719 16.71875 5.398438 C 17.785156 6.496094 16.988281 4.878906 16.394531 4.621094 C 16.964844 4.441406 17.523438 4.574219 17.445312 4.097656 C 18.050781 3.65625 16.863281 3.511719 16.4375 3.613281 C 15.027344 3.613281 13.621094 3.613281 12.210938 3.613281 Z M 3.425781 4.070312 C 2.652344 4.292969 2.597656 6.144531 3.375 5.113281 C 3.566406 4.691406 4.449219 4.183594 3.425781 4.070312 Z M 7.042969 4.136719 C 6.597656 4.835938 7.105469 5.398438 7.480469 4.542969 C 7.738281 4.1875 7.285156 4.148438 7.042969 4.136719 Z M 8.15625 4.292969 C 7.292969 4.691406 7.945312 5.625 7.964844 5.832031 C 8.875 6.148438 9.378906 5.628906 9.722656 6.515625 C 10.589844 7.015625 9.707031 7.878906 9.382812 8.105469 C 9.964844 7.597656 11.089844 9.488281 10.792969 8.488281 C 10.445312 8.234375 11.738281 8.902344 11.066406 8.066406 C 10.449219 7.074219 11.117188 7.621094 11.378906 7.855469 C 12.261719 7.058594 10.375 6.964844 10.847656 6.144531 C 10.433594 5.808594 9.890625 4.796875 9.160156 4.996094 C 8.667969 5.628906 9.089844 3.613281 8.371094 4.621094 C 8.332031 5.183594 8.355469 5.902344 8.148438 4.925781 C 8.007812 4.753906 8.390625 4.355469 8.15625 4.292969 Z M 6.398438 4.300781 C 5.820312 4.492188 5.851562 5.277344 6.5625 5.359375 C 6.808594 5.082031 6.660156 4.355469 6.398438 4.300781 Z M 4.136719 4.550781 C 3.386719 4.730469 3.695312 5.335938 3.925781 5.503906 C 2.992188 5.738281 5.347656 5.804688 4.175781 5.953125 C 3.199219 6.339844 5.113281 6.800781 5.425781 6.339844 C 6.628906 6.632812 5.46875 5.375 5.363281 4.691406 C 4.855469 4.144531 5.34375 5.957031 4.882812 4.753906 C 4.722656 5.109375 4.210938 4.804688 4.136719 4.550781 Z M 28.035156 4.628906 C 27.023438 5.023438 28.660156 6.515625 28.253906 5.160156 C 28.214844 4.996094 28.34375 4.5625 28.035156 4.628906 Z M 6.964844 5.230469 C 6.238281 5.910156 7.886719 6.472656 6.753906 6.980469 C 6.585938 6.347656 6.292969 7.300781 5.648438 6.789062 C 4.535156 7.25 3.96875 6.546875 3.039062 6.066406 C 2.480469 5.996094 2.691406 6.597656 2.652344 7.160156 C 2.652344 8.714844 2.652344 10.269531 2.652344 11.824219 C 3.199219 12.398438 2.863281 12.074219 2.652344 11.917969 C 2.953125 12.941406 2.519531 14.441406 3.707031 15.035156 C 3.90625 15.410156 4.753906 17.003906 4.792969 16.527344 C 4.367188 16.082031 3.933594 14.75 4.648438 15.9375 C 5.292969 17.066406 6.160156 17.796875 7.425781 18.066406 C 8.117188 18.300781 8.683594 19.109375 9.292969 18.933594 C 9.636719 19.839844 8.273438 20.710938 9.339844 21.558594 C 9.894531 22.414062 10.832031 22.976562 10.324219 24.179688 C 9.972656 25.355469 10.121094 26.636719 9.816406 27.730469 C 9.722656 28.398438 10.746094 30.089844 10.65625 28.734375 C 10.957031 27.792969 10.949219 26.757812 11.652344 26.089844 C 12.613281 26.097656 11.835938 25.054688 12.792969 25.191406 C 13.375 24.425781 13.542969 23.511719 14.527344 23.210938 C 14.644531 22.28125 16.164062 20.859375 14.597656 20.496094 C 14.167969 20.285156 13.070312 20.210938 13.152344 20.109375 C 13.324219 19.1875 11.734375 18.925781 11.058594 18.546875 C 10.167969 17.917969 8.835938 19.597656 8.519531 18.148438 C 8.335938 17.695312 7.652344 17.6875 7.964844 16.984375 C 7.402344 17.546875 6.292969 17.375 6.582031 16.289062 C 7.023438 15.375 8.714844 15.332031 9 16.433594 C 8.601562 15.21875 9.773438 14.273438 10.425781 13.410156 C 10.558594 12.996094 11.34375 12.640625 11.074219 13.191406 C 11.535156 13.175781 12.234375 12.339844 11.414062 12.722656 C 11.402344 11.964844 10.695312 12.183594 10.464844 12.289062 C 10.890625 11.613281 13.074219 11.984375 12.160156 10.878906 C 11.449219 10.59375 11.511719 8.917969 10.792969 9.855469 C 10.855469 9.277344 9.335938 8.152344 9.371094 9.117188 C 9.554688 9.980469 9.402344 10.972656 9.011719 11.539062 C 8.925781 10.273438 6.773438 10.554688 7.050781 9.207031 C 7.449219 8.566406 7.917969 7.675781 7.964844 7.757812 C 8.683594 7.484375 9.261719 6.683594 8.429688 6.160156 C 8.386719 6.617188 7.800781 7.5625 7.882812 6.417969 C 7.34375 7.058594 7.46875 5.402344 6.964844 5.230469 Z M 24.171875 5.671875 C 22.910156 5.980469 22.410156 7.191406 21.785156 8.1875 C 20.863281 8.605469 20.898438 10.386719 21.925781 9.816406 C 22.203125 10.300781 21.734375 11.058594 22.535156 10.425781 C 23.183594 9.574219 22.648438 8.1875 23.75 7.644531 C 23.832031 8.066406 22.734375 9.636719 24.015625 9.378906 C 25.171875 9.417969 23.175781 9.492188 23.738281 10.230469 C 23.152344 9.886719 23.457031 11.179688 22.691406 10.878906 C 22.03125 11.238281 21.597656 10.710938 21.75 10.132812 C 21.230469 10.4375 21.910156 11.292969 21.011719 11.347656 C 20.808594 12.066406 19.144531 11.957031 20.089844 12.6875 C 20.511719 13.777344 18.523438 12.753906 19.089844 14.0625 C 19.570312 15.355469 20.582031 13.636719 20.988281 13.300781 C 21.78125 12.6875 22.953125 14.347656 22.242188 14.410156 C 23.039062 14.300781 22.875 13.542969 22.238281 13.25 C 21.890625 12.355469 23.332031 13.691406 23.25 14.136719 C 23.757812 15.089844 23.550781 13.164062 24.066406 14.015625 C 24.003906 14.917969 26.144531 14.230469 25.121094 15.371094 C 24.246094 15.550781 23.378906 15.144531 22.625 15.40625 C 21.921875 15.398438 21.957031 14.648438 21.699219 14.457031 C 20.808594 14.53125 19.699219 14.523438 19.101562 15.246094 C 18.457031 16.136719 17.519531 17.378906 18.226562 18.511719 C 18.933594 20.195312 20.683594 18.601562 21.691406 19.59375 C 21.988281 20.007812 21.433594 20.5 22.101562 20.949219 C 22.355469 21.902344 21.816406 22.8125 22.433594 23.722656 C 22.753906 24.582031 22.953125 25.871094 24.144531 25.085938 C 25.402344 24.324219 25.066406 22.929688 26.105469 22.152344 C 25.285156 20.5625 27.113281 19.863281 27.566406 18.570312 C 26.570312 18.714844 25.683594 17.722656 25.441406 16.722656 C 25.023438 16.238281 25.132812 15.519531 25.597656 16.433594 C 26.242188 17.054688 26.253906 18.90625 27.445312 17.953125 C 27.988281 17.726562 29.472656 16.859375 28.292969 16.464844 C 27.527344 17.015625 26.6875 14.8125 27.808594 16.089844 C 28.621094 16.433594 29.191406 16.640625 29.191406 15.496094 C 29.191406 12.410156 29.191406 9.28125 29.191406 6.175781 C 28.9375 6.433594 28.285156 6.910156 27.957031 6.59375 C 27.390625 6.671875 26.644531 7.773438 26.824219 6.707031 C 26.332031 6.675781 26.734375 7.664062 26.058594 7.691406 C 25.988281 8.199219 25.375 7.785156 25.605469 8.269531 C 25.132812 7.929688 24.730469 6.867188 25.667969 7.535156 C 27.054688 7.121094 24.75 6.179688 24.574219 5.953125 C 24.871094 5.878906 24.246094 5.566406 24.171875 5.671875 Z M 12.71875 5.953125 C 12.257812 6.335938 13.597656 6.410156 12.71875 5.953125 Z M 6.550781 6.160156 C 6.03125 6.699219 7.371094 6.65625 6.550781 6.160156 Z M 9.542969 6.695312 C 9.152344 7.335938 10.121094 6.933594 9.542969 6.695312 Z M 18.109375 7.453125 C 17.652344 7.980469 17.046875 7.316406 17.035156 7.769531 C 17.121094 7.90625 17.453125 8.882812 18.179688 8.160156 C 18.574219 7.996094 18.417969 7.582031 18.109375 7.453125 Z M 8.355469 7.769531 C 7.488281 8.527344 9.832031 8.597656 8.542969 7.855469 Z M 19.816406 9.871094 C 19.191406 10.277344 20.117188 11.144531 19.804688 11.550781 C 19.410156 12.234375 21.261719 11.503906 20.273438 10.957031 C 20.203125 10.488281 19.695312 9.917969 19.816406 9.871094 Z M 19.394531 10.691406 C 18.527344 10.9375 19.199219 12.210938 19.507812 11.011719 C 19.523438 10.941406 19.546875 10.691406 19.394531 10.691406 Z M 12.417969 11.613281 C 11.605469 12.167969 12.292969 12.71875 12.886719 12.472656 C 12.765625 12.136719 12.425781 11.925781 12.417969 11.613281 Z M 27.730469 12.542969 C 28.136719 12.746094 26.992188 13.097656 27.714844 13.457031 C 28.140625 13.953125 27.980469 15.019531 27.292969 14.265625 C 27.421875 13.421875 26.363281 12.792969 27.730469 12.542969 Z M 25.652344 12.550781 C 25.597656 13.09375 26.820312 13.933594 25.503906 13.660156 C 24.804688 13.742188 23.761719 13.636719 24.640625 12.769531 C 24.917969 12.601562 25.644531 13.34375 25.265625 12.652344 C 25.402344 12.644531 25.527344 12.589844 25.652344 12.550781 Z M 21.628906 13.722656 C 21.121094 14.050781 21.980469 14.300781 21.628906 13.722656 Z M 8.863281 16.777344 C 8.777344 17.0625 10.472656 17.351562 9.304688 16.894531 L 9.128906 16.832031 Z M 10.179688 17.183594 C 9.667969 17.707031 11.238281 17.339844 10.179688 17.183594 Z M 27.355469 21.964844 C 26.238281 21.996094 26.386719 24.875 27.164062 23.171875 C 27.238281 22.800781 27.535156 22.316406 27.355469 21.964844 Z M 27.355469 21.964844 "/>
</g>
</svg>
