
<svg xmlns="http://www.w3.org/2000/svg" xmlns:xlink="http://www.w3.org/1999/xlink" width="32px" height="32px" viewBox="0 0 32 32" version="1.1">
<g id="surface1">
<path style="fill-rule:nonzero;fill:rgb(92.54902%,92.54902%,92.54902%);fill-opacity:1;stroke-width:6.841342;stroke-linecap:butt;stroke-linejoin:miter;stroke:rgb(0%,66.666669%,83.137256%);stroke-opacity:1;stroke-miterlimit:4;" d="M 21.640625 7.96875 L 106.359375 7.96875 C 113.90625 7.96875 120.03125 14.09375 120.03125 21.640625 L 120.03125 106.359375 C 120.03125 113.90625 113.90625 120.03125 106.359375 120.03125 L 21.640625 120.03125 C 14.09375 120.03125 7.96875 113.90625 7.96875 106.359375 L 7.96875 21.640625 C 7.96875 14.09375 14.09375 7.96875 21.640625 7.96875 Z M 21.640625 7.96875 " transform="matrix(0.25,0,0,0.25,0,0)"/>
<path style=" stroke:none;fill-rule:evenodd;fill:rgb(50.196081%,50.196081%,50.196081%);fill-opacity:1;" d="M 13.988281 25.539062 L 10.769531 27.648438 L 21.222656 27.648438 L 18.003906 25.539062 Z M 13.988281 25.539062 "/>
<path style=" stroke:none;fill-rule:evenodd;fill:rgb(50.196081%,50.196081%,50.196081%);fill-opacity:1;" d="M 13.988281 24.902344 L 10.769531 27.007812 L 21.222656 27.007812 L 18.003906 24.902344 Z M 13.988281 24.902344 "/>
<path style=" stroke:none;fill-rule:nonzero;fill:rgb(30.19608%,30.19608%,30.19608%);fill-opacity:1;" d="M 13.761719 21.027344 L 18.238281 21.027344 L 18.238281 26.003906 L 13.761719 26.003906 Z M 13.761719 21.027344 "/>
<path style=" stroke:none;fill-rule:nonzero;fill:rgb(50.196081%,50.196081%,50.196081%);fill-opacity:1;" d="M 4.902344 4.351562 L 27.097656 4.351562 C 27.875 4.351562 28.503906 4.953125 28.503906 5.695312 L 28.503906 21.238281 C 28.503906 21.980469 27.875 22.582031 27.097656 22.582031 L 4.902344 22.582031 C 4.125 22.582031 3.496094 21.980469 3.496094 21.238281 L 3.496094 5.695312 C 3.496094 4.953125 4.125 4.351562 4.902344 4.351562 Z M 4.902344 4.351562 "/>
<path style=" stroke:none;fill-rule:nonzero;fill:rgb(0%,66.666669%,83.137256%);fill-opacity:1;" d="M 5.835938 6.058594 L 26.164062 6.058594 L 26.164062 20.878906 L 5.835938 20.878906 Z M 5.835938 6.058594 "/>
<path style=" stroke:none;fill-rule:evenodd;fill:rgb(0%,0%,0%);fill-opacity:1;" d="M 10.769531 27.007812 L 10.769531 27.648438 L 21.230469 27.648438 L 21.230469 27.007812 Z M 10.769531 27.007812 "/>
<path style=" stroke:none;fill-rule:nonzero;fill:rgb(100%,100%,100%);fill-opacity:1;" d="M 18.195312 18.21875 L 17.042969 18.21875 L 17.042969 19.441406 L 18.195312 19.441406 Z M 16.46875 18.21875 L 15.316406 18.21875 L 15.316406 19.441406 L 16.46875 19.441406 Z M 14.742188 18.21875 L 13.589844 18.21875 L 13.589844 19.441406 L 14.742188 19.441406 Z M 14.742188 18.21875 "/>
<path style=" stroke:none;fill-rule:evenodd;fill:rgb(20%,20%,20%);fill-opacity:1;" d="M 5.777344 6.09375 L 5.777344 7.257812 L 26.109375 7.257812 L 26.109375 6.09375 Z M 5.777344 6.09375 "/>
<path style=" stroke:none;fill-rule:evenodd;fill:rgb(20%,20%,20%);fill-opacity:1;" d="M 20.738281 8.285156 L 25.417969 8.285156 L 25.417969 11.859375 Z M 20.738281 8.285156 "/>
<path style=" stroke:none;fill-rule:evenodd;fill:rgb(20%,20%,20%);fill-opacity:1;" d="M 11.613281 20.226562 L 6.933594 20.226562 L 6.933594 16.652344 Z M 11.613281 20.226562 "/>
</g>
</svg>
