
<svg xmlns="http://www.w3.org/2000/svg" xmlns:xlink="http://www.w3.org/1999/xlink" width="32px" height="32px" viewBox="0 0 32 32" version="1.1">
<g id="surface1">
<path style="fill-rule:nonzero;fill:rgb(100%,100%,100%);fill-opacity:1;stroke-width:26.827003;stroke-linecap:butt;stroke-linejoin:miter;stroke:rgb(16.470589%,49.803922%,100%);stroke-opacity:1;stroke-miterlimit:4;" d="M 89.9375 36.3125 L 422.0625 36.3125 C 451.6875 36.3125 475.6875 60.3125 475.6875 89.9375 L 475.6875 422.0625 C 475.6875 451.6875 451.6875 475.6875 422.0625 475.6875 L 89.9375 475.6875 C 60.3125 475.6875 36.3125 451.6875 36.3125 422.0625 L 36.3125 89.9375 C 36.3125 60.3125 60.3125 36.3125 89.9375 36.3125 Z M 89.9375 36.3125 " transform="matrix(0.0625,0,0,0.0625,0,0)"/>
<path style=" stroke:none;fill-rule:nonzero;fill:rgb(0%,0%,100%);fill-opacity:1;" d="M 16 5.054688 C 14.992188 5.054688 14.175781 5.871094 14.175781 6.878906 C 14.175781 7.886719 14.992188 8.703125 16 8.703125 C 17.007812 8.703125 17.824219 7.886719 17.824219 6.878906 C 17.824219 5.871094 17.007812 5.054688 16 5.054688 Z M 6.878906 9.613281 L 6.878906 11.441406 L 13.261719 11.441406 L 13.261719 26.945312 L 15.089844 26.945312 L 15.089844 19.648438 L 16.910156 19.648438 L 16.910156 26.945312 L 18.738281 26.945312 L 18.738281 11.441406 L 25.121094 11.441406 L 25.121094 9.613281 Z M 6.878906 9.613281 "/>
</g>
</svg>
