
<svg xmlns="http://www.w3.org/2000/svg" xmlns:xlink="http://www.w3.org/1999/xlink" width="32px" height="32px" viewBox="0 0 32 32" version="1.1">
<g id="surface1">
<path style="fill-rule:nonzero;fill:rgb(29.019609%,68.235296%,90.196079%);fill-opacity:1;stroke-width:27.064299;stroke-linecap:butt;stroke-linejoin:miter;stroke:rgb(29.019609%,68.235296%,90.196079%);stroke-opacity:1;stroke-miterlimit:4;" d="M 88.4375 34.3125 L 423.5625 34.3125 C 453.4375 34.3125 477.6875 58.5625 477.6875 88.4375 L 477.6875 423.5625 C 477.6875 453.4375 453.4375 477.6875 423.5625 477.6875 L 88.4375 477.6875 C 58.5625 477.6875 34.3125 453.4375 34.3125 423.5625 L 34.3125 88.4375 C 34.3125 58.5625 58.5625 34.3125 88.4375 34.3125 Z M 88.4375 34.3125 " transform="matrix(0.0625,0,0,0.0625,0,0)"/>
<path style=" stroke:none;fill-rule:nonzero;fill:rgb(100%,100%,100%);fill-opacity:1;" d="M 28.171875 18.261719 C 28.027344 18.410156 27.867188 18.539062 27.699219 18.652344 C 27.613281 18.710938 27.523438 18.765625 27.433594 18.816406 C 27.707031 18.667969 27.953125 18.480469 28.171875 18.261719 Z M 28.171875 18.261719 "/>
<path style=" stroke:none;fill-rule:nonzero;fill:rgb(100%,100%,100%);fill-opacity:1;" d="M 28.722656 17.527344 C 28.671875 17.617188 28.621094 17.707031 28.5625 17.789062 C 28.449219 17.960938 28.316406 18.121094 28.171875 18.261719 C 28.386719 18.046875 28.574219 17.796875 28.722656 17.527344 Z M 28.722656 17.527344 "/>
<path style=" stroke:none;fill-rule:nonzero;fill:rgb(100%,100%,100%);fill-opacity:1;" d="M 28.964844 16.953125 C 28.933594 17.050781 28.898438 17.152344 28.855469 17.246094 C 28.816406 17.339844 28.769531 17.433594 28.722656 17.527344 C 28.820312 17.34375 28.902344 17.152344 28.964844 16.953125 Z M 28.964844 16.953125 "/>
<path style=" stroke:none;fill-rule:nonzero;fill:rgb(100%,100%,100%);fill-opacity:1;" d="M 29.109375 16 C 29.109375 16.109375 29.101562 16.21875 29.089844 16.328125 C 29.082031 16.433594 29.066406 16.542969 29.042969 16.644531 C 29.019531 16.75 28.996094 16.851562 28.964844 16.953125 C 29.058594 16.652344 29.109375 16.332031 29.109375 16 Z M 29.109375 16 "/>
<path style=" stroke:none;fill-rule:nonzero;fill:rgb(52.156866%,81.176472%,89.019608%);fill-opacity:1;" d="M 16 2.890625 L 16 16 L 29.109375 16 L 29.109375 6.09375 C 29.109375 4.324219 27.675781 2.890625 25.90625 2.890625 Z M 16 2.890625 "/>
<path style=" stroke:none;fill-rule:nonzero;fill:rgb(14.901961%,65.882355%,78.039217%);fill-opacity:1;" d="M 16 29.109375 L 16 16 L 2.890625 16 L 2.890625 25.90625 C 2.890625 27.675781 4.324219 29.109375 6.09375 29.109375 Z M 16 29.109375 "/>
<path style=" stroke:none;fill-rule:nonzero;fill:rgb(29.019609%,74.117649%,83.137256%);fill-opacity:1;" d="M 2.890625 16 L 16 16 L 16 2.890625 L 6.09375 2.890625 C 4.324219 2.890625 2.890625 4.324219 2.890625 6.09375 Z M 2.890625 16 "/>
<path style=" stroke:none;fill-rule:nonzero;fill:rgb(95.294118%,72.156864%,36.862746%);fill-opacity:1;" d="M 29.109375 16 L 16 16 L 16 29.109375 L 25.90625 29.109375 C 27.675781 29.109375 29.109375 27.675781 29.109375 25.90625 Z M 29.109375 16 "/>
<path style=" stroke:none;fill-rule:nonzero;fill:rgb(97.254902%,97.254902%,97.254902%);fill-opacity:1;" d="M 23.949219 7.996094 L 23.949219 10.472656 L 20.175781 10.472656 L 19.847656 15.625 C 19.78125 16.519531 19.75 17.292969 19.75 17.949219 C 19.75 19.519531 19.921875 20.476562 20.269531 20.832031 C 20.628906 21.167969 21.058594 21.339844 21.554688 21.339844 C 22.597656 21.339844 23.214844 20.652344 23.410156 19.285156 L 23.996094 19.285156 C 23.636719 22.429688 22.4375 24 20.382812 24 C 19.429688 24 18.660156 23.695312 18.074219 23.085938 C 17.5 22.476562 17.210938 21.570312 17.210938 20.375 C 17.210938 19.582031 17.324219 17.910156 17.554688 15.355469 L 17.992188 10.476562 L 14.542969 10.476562 C 14.316406 14.589844 14.035156 17.585938 13.714844 19.492188 C 13.398438 21.390625 13.046875 22.617188 12.652344 23.171875 C 12.273438 23.722656 11.753906 24.003906 11.09375 24.003906 C 10.59375 24.003906 10.171875 23.847656 9.824219 23.542969 C 9.488281 23.238281 9.316406 22.839844 9.316406 22.339844 C 9.316406 21.867188 9.613281 21.214844 10.199219 20.394531 C 11.054688 19.195312 11.695312 17.953125 12.117188 16.660156 C 12.542969 15.363281 12.863281 13.300781 13.082031 10.476562 L 11.972656 10.476562 C 11.082031 10.476562 10.398438 10.683594 9.921875 11.101562 C 9.453125 11.507812 9.011719 12.097656 8.589844 12.863281 L 8.003906 12.863281 C 8.316406 11.652344 8.722656 10.660156 9.222656 9.878906 C 9.722656 9.101562 10.234375 8.59375 10.753906 8.355469 C 11.285156 8.121094 12.222656 7.996094 13.570312 7.996094 L 23.957031 7.996094 "/>
</g>
</svg>
