
<svg xmlns="http://www.w3.org/2000/svg" xmlns:xlink="http://www.w3.org/1999/xlink" width="32px" height="32px" viewBox="0 0 32 32" version="1.1">
<g id="surface1">
<path style="fill-rule:nonzero;fill:rgb(50.196081%,50.196081%,50.196081%);fill-opacity:1;stroke-width:6.392664;stroke-linecap:butt;stroke-linejoin:miter;stroke:rgb(21.568628%,20.784314%,22.745098%);stroke-opacity:1;stroke-miterlimit:4;" d="M 26.58508 935.930819 L 105.736411 935.930819 C 112.803228 935.930819 118.528244 941.655836 118.528244 948.707744 L 118.528244 1027.873984 C 118.528244 1034.925892 112.803228 1040.650908 105.736411 1040.650908 L 26.58508 1040.650908 C 19.533172 1040.650908 13.808156 1034.925892 13.808156 1027.873984 L 13.808156 948.707744 C 13.808156 941.655836 19.533172 935.930819 26.58508 935.930819 Z M 26.58508 935.930819 " transform="matrix(0.262008,0,0,0.262008,-1.297535,-242.940104)"/>
<path style=" stroke:none;fill-rule:nonzero;fill:rgb(21.568628%,20.784314%,22.745098%);fill-opacity:1;" d="M 2.839844 2.886719 L 29.03125 2.886719 L 29.03125 7.433594 L 2.839844 7.433594 Z M 2.839844 2.886719 "/>
<path style=" stroke:none;fill-rule:nonzero;fill:rgb(100%,100%,100%);fill-opacity:1;" d="M 21.292969 4.683594 L 22.988281 4.683594 L 22.988281 6.347656 L 21.292969 6.347656 Z M 21.292969 4.683594 "/>
<path style=" stroke:none;fill-rule:nonzero;fill:rgb(100%,100%,100%);fill-opacity:1;" d="M 24.410156 4.683594 L 26.105469 4.683594 L 26.105469 6.347656 L 24.410156 6.347656 Z M 24.410156 4.683594 "/>
<path style=" stroke:none;fill-rule:nonzero;fill:rgb(100%,100%,100%);fill-opacity:1;" d="M 18.175781 4.683594 L 19.875 4.683594 L 19.875 6.347656 L 18.175781 6.347656 Z M 18.175781 4.683594 "/>
<path style=" stroke:none;fill-rule:nonzero;fill:rgb(82.352942%,82.352942%,82.352942%);fill-opacity:1;" d="M 20.769531 17.542969 C 20.769531 15.121094 18.761719 13.160156 16.285156 13.160156 C 13.808594 13.160156 11.796875 15.121094 11.796875 17.542969 C 11.796875 19.960938 13.808594 21.921875 16.285156 21.921875 C 18.761719 21.921875 20.769531 19.960938 20.769531 17.542969 Z M 20.769531 17.542969 "/>
<path style=" stroke:none;fill-rule:nonzero;fill:rgb(82.352942%,82.352942%,82.352942%);fill-opacity:1;" d="M 15.324219 24.351562 C 15.203125 24.296875 15.074219 24.160156 15.015625 24.023438 C 14.988281 23.953125 14.957031 23.679688 14.933594 23.246094 C 14.910156 22.878906 14.882812 22.550781 14.871094 22.511719 C 14.851562 22.464844 14.769531 22.421875 14.558594 22.347656 C 14.398438 22.292969 14.160156 22.191406 14.027344 22.125 C 13.894531 22.058594 13.757812 22.003906 13.722656 22.003906 C 13.683594 22.003906 13.464844 22.179688 13.152344 22.464844 C 12.878906 22.71875 12.605469 22.949219 12.550781 22.976562 C 12.4375 23.035156 12.183594 23.042969 12.054688 22.996094 C 11.949219 22.957031 10.847656 21.871094 10.777344 21.738281 C 10.707031 21.605469 10.714844 21.359375 10.792969 21.210938 C 10.832031 21.144531 11.066406 20.867188 11.3125 20.597656 C 11.582031 20.308594 11.765625 20.082031 11.765625 20.042969 C 11.765625 20.011719 11.710938 19.871094 11.644531 19.738281 C 11.574219 19.605469 11.476562 19.371094 11.421875 19.210938 C 11.367188 19.054688 11.300781 18.914062 11.269531 18.898438 C 11.242188 18.886719 10.917969 18.855469 10.550781 18.835938 C 10.125 18.8125 9.839844 18.78125 9.753906 18.753906 C 9.597656 18.695312 9.414062 18.5 9.386719 18.363281 C 9.378906 18.304688 9.371094 17.886719 9.378906 17.429688 L 9.386719 16.601562 L 9.480469 16.480469 C 9.652344 16.269531 9.730469 16.25 10.535156 16.199219 C 10.988281 16.175781 11.265625 16.144531 11.289062 16.121094 C 11.308594 16.101562 11.378906 15.945312 11.441406 15.773438 C 11.503906 15.601562 11.601562 15.367188 11.660156 15.253906 C 11.71875 15.136719 11.765625 15.019531 11.765625 14.988281 C 11.765625 14.957031 11.574219 14.722656 11.339844 14.46875 C 11.109375 14.214844 10.886719 13.960938 10.847656 13.910156 C 10.738281 13.761719 10.699219 13.582031 10.742188 13.40625 C 10.777344 13.269531 10.835938 13.199219 11.339844 12.6875 C 11.652344 12.371094 11.957031 12.089844 12.019531 12.058594 C 12.167969 11.980469 12.402344 11.980469 12.546875 12.054688 C 12.609375 12.085938 12.878906 12.3125 13.144531 12.558594 C 13.414062 12.808594 13.652344 13.019531 13.675781 13.03125 C 13.699219 13.042969 13.84375 12.992188 14.019531 12.910156 C 14.183594 12.832031 14.433594 12.730469 14.574219 12.683594 C 14.761719 12.617188 14.832031 12.578125 14.859375 12.523438 C 14.878906 12.480469 14.910156 12.148438 14.933594 11.78125 C 14.972656 11.074219 14.996094 10.960938 15.144531 10.808594 C 15.304688 10.640625 15.398438 10.628906 16.304688 10.636719 L 17.128906 10.644531 L 17.257812 10.730469 C 17.480469 10.878906 17.507812 10.972656 17.558594 11.757812 C 17.585938 12.136719 17.613281 12.480469 17.621094 12.515625 C 17.632812 12.566406 17.699219 12.601562 17.921875 12.679688 C 18.078125 12.734375 18.332031 12.839844 18.480469 12.917969 C 18.632812 12.992188 18.765625 13.054688 18.78125 13.054688 C 18.796875 13.054688 19.039062 12.84375 19.316406 12.585938 C 19.597656 12.328125 19.878906 12.089844 19.941406 12.058594 C 20.09375 11.980469 20.316406 11.980469 20.480469 12.058594 C 20.558594 12.097656 20.824219 12.339844 21.152344 12.675781 C 21.722656 13.25 21.769531 13.316406 21.769531 13.574219 C 21.769531 13.761719 21.6875 13.878906 21.199219 14.417969 C 20.933594 14.710938 20.714844 14.960938 20.714844 14.976562 C 20.714844 14.992188 20.785156 15.148438 20.867188 15.324219 C 20.953125 15.503906 21.054688 15.753906 21.09375 15.878906 C 21.140625 16.035156 21.183594 16.113281 21.226562 16.132812 C 21.261719 16.148438 21.605469 16.179688 21.988281 16.203125 C 22.753906 16.253906 22.878906 16.285156 23.007812 16.464844 C 23.128906 16.636719 23.144531 16.761719 23.132812 17.597656 L 23.121094 18.394531 L 23.027344 18.527344 C 22.863281 18.765625 22.816406 18.777344 21.96875 18.832031 C 21.554688 18.859375 21.207031 18.886719 21.199219 18.898438 C 21.191406 18.90625 21.136719 19.039062 21.082031 19.191406 C 21.03125 19.347656 20.925781 19.59375 20.847656 19.746094 C 20.773438 19.894531 20.714844 20.039062 20.71875 20.0625 C 20.722656 20.082031 20.933594 20.324219 21.179688 20.59375 C 21.425781 20.863281 21.660156 21.148438 21.699219 21.222656 C 21.78125 21.386719 21.789062 21.554688 21.722656 21.714844 C 21.660156 21.859375 20.652344 22.882812 20.488281 22.96875 C 20.351562 23.039062 20.101562 23.046875 19.957031 22.984375 C 19.902344 22.960938 19.628906 22.730469 19.347656 22.472656 C 19.066406 22.214844 18.8125 22.003906 18.785156 22.003906 C 18.753906 22.003906 18.597656 22.066406 18.429688 22.144531 C 18.261719 22.222656 18.019531 22.324219 17.882812 22.367188 C 17.695312 22.429688 17.632812 22.464844 17.621094 22.511719 C 17.613281 22.550781 17.585938 22.890625 17.558594 23.269531 C 17.503906 24.105469 17.472656 24.199219 17.179688 24.347656 C 17.097656 24.386719 16.957031 24.394531 16.246094 24.394531 C 15.621094 24.394531 15.394531 24.382812 15.324219 24.351562 Z M 16.550781 20.636719 C 17.300781 20.558594 17.929688 20.257812 18.464844 19.722656 C 18.871094 19.316406 19.132812 18.855469 19.292969 18.28125 C 19.390625 17.917969 19.390625 17.121094 19.289062 16.753906 C 18.988281 15.644531 18.191406 14.824219 17.09375 14.496094 C 16.839844 14.417969 16.769531 14.410156 16.269531 14.410156 C 15.792969 14.40625 15.695312 14.414062 15.464844 14.480469 C 14.304688 14.792969 13.421875 15.722656 13.179688 16.875 C 12.964844 17.910156 13.28125 18.96875 14.035156 19.730469 C 14.433594 20.128906 14.945312 20.417969 15.503906 20.5625 C 15.660156 20.605469 15.886719 20.636719 16.207031 20.660156 C 16.234375 20.664062 16.386719 20.652344 16.550781 20.636719 Z M 15.777344 19.332031 C 14.988281 19.117188 14.433594 18.441406 14.382812 17.636719 C 14.347656 17.070312 14.53125 16.589844 14.933594 16.191406 C 15.664062 15.464844 16.832031 15.457031 17.550781 16.175781 C 18.144531 16.769531 18.289062 17.613281 17.917969 18.351562 C 17.605469 18.980469 17.027344 19.355469 16.316406 19.382812 C 16.074219 19.390625 15.957031 19.378906 15.777344 19.332031 Z M 16.667969 18.550781 C 16.886719 18.464844 17.144531 18.222656 17.253906 18 C 17.332031 17.84375 17.339844 17.792969 17.339844 17.511719 C 17.339844 17.21875 17.335938 17.191406 17.238281 17.003906 C 17.03125 16.628906 16.730469 16.441406 16.300781 16.417969 C 15.957031 16.402344 15.753906 16.472656 15.503906 16.699219 C 15.191406 16.988281 15.066406 17.386719 15.167969 17.78125 C 15.253906 18.121094 15.4375 18.355469 15.75 18.511719 C 16.039062 18.660156 16.339844 18.671875 16.667969 18.550781 Z M 16.667969 18.550781 "/>
<path style=" stroke:none;fill-rule:nonzero;fill:rgb(50.196081%,50.196081%,50.196081%);fill-opacity:1;" d="M 19.421875 17.574219 C 19.421875 19.324219 18.003906 20.738281 16.257812 20.738281 C 14.511719 20.738281 13.097656 19.324219 13.097656 17.574219 C 13.097656 15.828125 14.511719 14.410156 16.257812 14.410156 C 18.003906 14.410156 19.421875 15.828125 19.421875 17.574219 Z M 19.421875 17.574219 "/>
</g>
</svg>
