
<svg xmlns="http://www.w3.org/2000/svg" xmlns:xlink="http://www.w3.org/1999/xlink" width="32px" height="32px" viewBox="0 0 32 32" version="1.1">
<g id="surface1">
<path style="fill-rule:nonzero;fill:rgb(100%,100%,100%);fill-opacity:1;stroke-width:27.746531;stroke-linecap:butt;stroke-linejoin:miter;stroke:rgb(52.549022%,56.470591%,58.039218%);stroke-opacity:1;stroke-miterlimit:4;" d="M 84.25 28.75 L 427.75 28.75 C 458.4375 28.75 483.25 53.5625 483.25 84.25 L 483.25 427.75 C 483.25 458.4375 458.4375 483.25 427.75 483.25 L 84.25 483.25 C 53.5625 483.25 28.75 458.4375 28.75 427.75 L 28.75 84.25 C 28.75 53.5625 53.5625 28.75 84.25 28.75 Z M 84.25 28.75 " transform="matrix(0.0625,0,0,0.0625,0,0)"/>
<path style=" stroke:none;fill-rule:nonzero;fill:rgb(100%,100%,100%);fill-opacity:1;" d="M 23.007812 16.167969 C 23.007812 12.398438 19.878906 9.34375 16.015625 9.34375 C 12.152344 9.34375 9.023438 12.398438 9.023438 16.167969 C 9.023438 19.941406 12.152344 22.996094 16.015625 22.996094 C 19.878906 22.996094 23.007812 19.941406 23.007812 16.167969 Z M 23.007812 16.167969 "/>
<path style=" stroke:none;fill-rule:nonzero;fill:rgb(52.549022%,56.470591%,58.039218%);fill-opacity:1;" d="M 14.515625 26.875 C 14.328125 26.792969 14.128906 26.574219 14.039062 26.363281 C 13.992188 26.253906 13.949219 25.828125 13.910156 25.152344 C 13.875 24.582031 13.832031 24.066406 13.808594 24.011719 C 13.785156 23.9375 13.652344 23.867188 13.324219 23.753906 C 13.078125 23.667969 12.707031 23.511719 12.5 23.40625 C 12.292969 23.300781 12.078125 23.214844 12.019531 23.214844 C 11.960938 23.214844 11.621094 23.492188 11.136719 23.933594 C 10.707031 24.332031 10.285156 24.691406 10.199219 24.734375 C 10.023438 24.824219 9.628906 24.839844 9.425781 24.761719 C 9.261719 24.703125 7.546875 23.011719 7.4375 22.804688 C 7.328125 22.597656 7.339844 22.214844 7.464844 21.980469 C 7.519531 21.875 7.878906 21.445312 8.269531 21.023438 C 8.683594 20.574219 8.972656 20.222656 8.972656 20.164062 C 8.972656 20.109375 8.886719 19.898438 8.785156 19.691406 C 8.679688 19.480469 8.523438 19.113281 8.4375 18.867188 C 8.351562 18.621094 8.246094 18.402344 8.203125 18.378906 C 8.160156 18.355469 7.65625 18.3125 7.085938 18.28125 C 6.417969 18.246094 5.972656 18.199219 5.839844 18.152344 C 5.59375 18.0625 5.308594 17.761719 5.269531 17.542969 C 5.253906 17.453125 5.246094 16.800781 5.253906 16.089844 L 5.269531 14.800781 L 5.417969 14.613281 C 5.679688 14.285156 5.800781 14.253906 7.054688 14.175781 C 7.761719 14.132812 8.195312 14.085938 8.230469 14.050781 C 8.261719 14.019531 8.367188 13.777344 8.464844 13.511719 C 8.566406 13.242188 8.71875 12.878906 8.808594 12.699219 C 8.898438 12.519531 8.972656 12.335938 8.972656 12.285156 C 8.972656 12.238281 8.675781 11.875 8.316406 11.476562 C 7.953125 11.078125 7.605469 10.6875 7.542969 10.605469 C 7.371094 10.378906 7.3125 10.097656 7.382812 9.820312 C 7.433594 9.613281 7.527344 9.496094 8.316406 8.699219 C 8.796875 8.210938 9.269531 7.769531 9.371094 7.71875 C 9.597656 7.601562 9.964844 7.597656 10.191406 7.714844 C 10.289062 7.765625 10.707031 8.121094 11.128906 8.503906 C 11.542969 8.886719 11.914062 9.214844 11.949219 9.238281 C 11.988281 9.257812 12.210938 9.175781 12.484375 9.046875 C 12.746094 8.925781 13.136719 8.765625 13.347656 8.691406 C 13.644531 8.59375 13.753906 8.53125 13.796875 8.445312 C 13.824219 8.378906 13.878906 7.859375 13.910156 7.289062 C 13.972656 6.1875 14.011719 6.011719 14.238281 5.777344 C 14.488281 5.511719 14.636719 5.492188 16.046875 5.507812 L 17.332031 5.519531 L 17.535156 5.652344 C 17.878906 5.882812 17.921875 6.027344 18.003906 7.25 C 18.042969 7.84375 18.085938 8.375 18.097656 8.433594 C 18.117188 8.511719 18.222656 8.570312 18.566406 8.691406 C 18.8125 8.777344 19.203125 8.941406 19.4375 9.058594 C 19.671875 9.175781 19.882812 9.273438 19.90625 9.273438 C 19.929688 9.273438 20.304688 8.945312 20.742188 8.542969 C 21.179688 8.144531 21.617188 7.773438 21.714844 7.722656 C 21.949219 7.597656 22.296875 7.597656 22.550781 7.722656 C 22.675781 7.78125 23.085938 8.15625 23.605469 8.679688 C 24.492188 9.578125 24.5625 9.679688 24.5625 10.085938 C 24.5625 10.371094 24.433594 10.5625 23.671875 11.398438 C 23.253906 11.855469 22.917969 12.246094 22.917969 12.269531 C 22.917969 12.292969 23.023438 12.535156 23.15625 12.8125 C 23.289062 13.089844 23.449219 13.476562 23.507812 13.671875 C 23.582031 13.917969 23.648438 14.042969 23.714844 14.070312 C 23.769531 14.09375 24.304688 14.144531 24.902344 14.179688 C 26.097656 14.253906 26.289062 14.304688 26.488281 14.585938 C 26.675781 14.851562 26.699219 15.050781 26.683594 16.347656 L 26.667969 17.589844 L 26.523438 17.800781 C 26.261719 18.167969 26.195312 18.191406 24.871094 18.277344 C 24.226562 18.316406 23.683594 18.363281 23.671875 18.378906 C 23.660156 18.390625 23.578125 18.597656 23.496094 18.835938 C 23.410156 19.074219 23.246094 19.464844 23.125 19.699219 C 23.007812 19.933594 22.917969 20.15625 22.925781 20.191406 C 22.933594 20.226562 23.253906 20.597656 23.644531 21.019531 C 24.027344 21.441406 24.394531 21.882812 24.453125 22 C 24.582031 22.253906 24.589844 22.519531 24.488281 22.769531 C 24.394531 22.988281 22.824219 24.589844 22.566406 24.722656 C 22.355469 24.832031 21.964844 24.84375 21.738281 24.746094 C 21.652344 24.707031 21.226562 24.347656 20.785156 23.949219 C 20.347656 23.542969 19.953125 23.214844 19.910156 23.214844 C 19.867188 23.214844 19.621094 23.316406 19.359375 23.4375 C 19.097656 23.558594 18.714844 23.714844 18.503906 23.785156 C 18.214844 23.878906 18.113281 23.933594 18.097656 24.011719 C 18.085938 24.066406 18.042969 24.597656 18.003906 25.191406 C 17.917969 26.496094 17.863281 26.636719 17.410156 26.863281 C 17.277344 26.933594 17.0625 26.941406 15.957031 26.941406 C 14.984375 26.941406 14.625 26.925781 14.515625 26.875 Z M 16.429688 21.082031 C 17.597656 20.960938 18.578125 20.496094 19.410156 19.660156 C 20.042969 19.027344 20.453125 18.3125 20.699219 17.414062 C 20.855469 16.851562 20.855469 15.605469 20.699219 15.035156 C 20.226562 13.308594 18.988281 12.035156 17.277344 11.519531 C 16.878906 11.398438 16.769531 11.386719 15.992188 11.382812 C 15.25 11.378906 15.097656 11.394531 14.734375 11.492188 C 12.933594 11.984375 11.554688 13.433594 11.175781 15.230469 C 10.839844 16.839844 11.332031 18.488281 12.511719 19.675781 C 13.128906 20.292969 13.929688 20.75 14.796875 20.972656 C 15.042969 21.035156 15.394531 21.085938 15.894531 21.128906 C 15.933594 21.128906 16.175781 21.113281 16.429688 21.082031 Z M 15.230469 19.054688 C 13.996094 18.71875 13.128906 17.667969 13.050781 16.410156 C 13 15.527344 13.285156 14.785156 13.910156 14.160156 C 15.046875 13.027344 16.863281 13.015625 17.988281 14.136719 C 18.917969 15.058594 19.136719 16.375 18.5625 17.527344 C 18.074219 18.507812 17.171875 19.089844 16.066406 19.132812 C 15.691406 19.144531 15.503906 19.128906 15.230469 19.054688 Z M 16.609375 17.832031 C 16.949219 17.707031 17.355469 17.328125 17.527344 16.980469 C 17.648438 16.734375 17.664062 16.652344 17.664062 16.222656 C 17.664062 15.761719 17.652344 15.722656 17.496094 15.429688 C 17.179688 14.84375 16.707031 14.546875 16.042969 14.511719 C 15.503906 14.488281 15.183594 14.597656 14.800781 14.953125 C 14.308594 15.402344 14.113281 16.023438 14.269531 16.636719 C 14.410156 17.167969 14.699219 17.527344 15.183594 17.777344 C 15.636719 18.003906 16.101562 18.023438 16.609375 17.832031 Z M 16.609375 17.832031 "/>
</g>
</svg>
