<!-- color: #54d160 -->
<svg xmlns="http://www.w3.org/2000/svg" xmlns:xlink="http://www.w3.org/1999/xlink" width="32px" height="32px" viewBox="0 0 32 32" version="1.1">
<defs>
<clipPath id="clip1">
  <path d="M 6 6 L 26 6 L 26 26 L 6 26 Z M 6 6 "/>
</clipPath>
<clipPath id="clip2">
  <path d="M 31.332031 16 C 31.332031 24.472656 24.464844 31.332031 16 31.332031 C 7.535156 31.332031 0.667969 24.472656 0.667969 16 C 0.667969 7.527344 7.535156 0.667969 16 0.667969 C 24.464844 0.667969 31.332031 7.527344 31.332031 16 Z M 31.332031 16 "/>
</clipPath>
</defs>
<g id="surface1">
<path style="fill-rule:nonzero;fill:rgb(31.764707%,81.568629%,36.470589%);fill-opacity:1;stroke-width:2.641764;stroke-linecap:butt;stroke-linejoin:miter;stroke:rgb(41.176471%,69.01961%,43.529412%);stroke-opacity:1;stroke-miterlimit:4;" d="M 7.646484 2.361328 L 40.353516 2.361328 C 43.271484 2.361328 45.638672 4.728516 45.638672 7.646484 L 45.638672 40.353516 C 45.638672 43.271484 43.271484 45.638672 40.353516 45.638672 L 7.646484 45.638672 C 4.728516 45.638672 2.361328 43.271484 2.361328 40.353516 L 2.361328 7.646484 C 2.361328 4.728516 4.728516 2.361328 7.646484 2.361328 Z M 7.646484 2.361328 " transform="matrix(0.666667,0,0,0.666667,0,0)"/>
<g clip-path="url(#clip1)" clip-rule="nonzero">
<g clip-path="url(#clip2)" clip-rule="nonzero">
<path style=" stroke:none;fill-rule:nonzero;fill:rgb(97.647059%,97.647059%,97.647059%);fill-opacity:1;" d="M 16 6 C 10.476562 6 6 10.476562 6 16 C 6 21.523438 10.476562 26 16 26 C 21.523438 26 26 21.523438 26 16 C 26 10.476562 21.523438 6 16 6 M 22 9.332031 L 24 11.332031 L 13.332031 22.667969 L 8 17.332031 L 10 15.332031 L 13.332031 18.667969 M 22 9.332031 "/>
</g>
</g>
</g>
</svg>
