
<svg xmlns="http://www.w3.org/2000/svg" xmlns:xlink="http://www.w3.org/1999/xlink" width="32px" height="32px" viewBox="0 0 32 32" version="1.1">
<g id="surface1">
<path style="fill-rule:nonzero;fill:rgb(92.54902%,92.54902%,92.54902%);fill-opacity:1;stroke-width:27.616438;stroke-linecap:butt;stroke-linejoin:miter;stroke:rgb(0%,66.666669%,83.137256%);stroke-opacity:1;stroke-miterlimit:4;" d="M 88.5 25.3125 L 430.4375 25.3125 C 460.9375 25.3125 485.6875 50 485.6875 80.5 L 485.6875 422.4375 C 485.6875 452.9375 460.9375 477.6875 430.4375 477.6875 L 88.5 477.6875 C 58 477.6875 33.3125 452.9375 33.3125 422.4375 L 33.3125 80.5 C 33.3125 50 58 25.3125 88.5 25.3125 Z M 88.5 25.3125 " transform="matrix(0.0625,0,0,0.0625,0,0)"/>
<path style=" stroke:none;fill-rule:evenodd;fill:rgb(50.196081%,50.196081%,50.196081%);fill-opacity:1;" d="M 14.183594 25.34375 L 10.941406 27.472656 L 21.488281 27.472656 L 18.242188 25.34375 Z M 14.183594 25.34375 "/>
<path style=" stroke:none;fill-rule:evenodd;fill:rgb(50.196081%,50.196081%,50.196081%);fill-opacity:1;" d="M 14.183594 24.699219 L 10.941406 26.828125 L 21.488281 26.828125 L 18.242188 24.699219 Z M 14.183594 24.699219 "/>
<path style=" stroke:none;fill-rule:nonzero;fill:rgb(30.19608%,30.19608%,30.19608%);fill-opacity:1;" d="M 13.960938 20.792969 L 18.472656 20.792969 L 18.472656 25.8125 L 13.960938 25.8125 Z M 13.960938 20.792969 "/>
<path style=" stroke:none;fill-rule:nonzero;fill:rgb(50.196081%,50.196081%,50.196081%);fill-opacity:1;" d="M 5.019531 3.960938 L 27.414062 3.960938 C 28.199219 3.960938 28.835938 4.570312 28.835938 5.316406 L 28.835938 21.003906 C 28.835938 21.753906 28.199219 22.359375 27.414062 22.359375 L 5.019531 22.359375 C 4.234375 22.359375 3.597656 21.753906 3.597656 21.003906 L 3.597656 5.316406 C 3.597656 4.570312 4.234375 3.960938 5.019531 3.960938 Z M 5.019531 3.960938 "/>
<path style=" stroke:none;fill-rule:nonzero;fill:rgb(0%,66.666669%,83.137256%);fill-opacity:1;" d="M 5.957031 5.683594 L 26.472656 5.683594 L 26.472656 20.636719 L 5.957031 20.636719 Z M 5.957031 5.683594 "/>
<path style=" stroke:none;fill-rule:evenodd;fill:rgb(0%,0%,0%);fill-opacity:1;" d="M 10.941406 26.828125 L 10.941406 27.472656 L 21.492188 27.472656 L 21.492188 26.828125 Z M 10.941406 26.828125 "/>
<path style=" stroke:none;fill-rule:nonzero;fill:rgb(100%,100%,100%);fill-opacity:1;" d="M 18.429688 17.957031 L 17.269531 17.957031 L 17.269531 19.191406 L 18.429688 19.191406 Z M 16.691406 17.957031 L 15.527344 17.957031 L 15.527344 19.191406 L 16.691406 19.191406 Z M 14.949219 17.957031 L 13.785156 17.957031 L 13.785156 19.191406 L 14.949219 19.191406 Z M 14.949219 17.957031 "/>
<path style=" stroke:none;fill-rule:evenodd;fill:rgb(20%,20%,20%);fill-opacity:1;" d="M 5.898438 5.722656 L 5.898438 6.894531 L 26.417969 6.894531 L 26.417969 5.722656 Z M 5.898438 5.722656 "/>
</g>
</svg>
