<!-- color: #e5373b -->
<svg xmlns="http://www.w3.org/2000/svg" xmlns:xlink="http://www.w3.org/1999/xlink" width="32px" height="32px" viewBox="0 0 32 32" version="1.1">
<defs>
<clipPath id="clip1">
  <path d="M 7.375 8 L 24.625 8 L 24.625 25.25 L 7.375 25.25 Z M 7.375 8 "/>
</clipPath>
<clipPath id="clip2">
  <path d="M 32.480469 15.882812 C 32.480469 24.988281 25.097656 32.359375 16 32.359375 C 6.902344 32.359375 -0.480469 24.988281 -0.480469 15.882812 C -0.480469 6.777344 6.902344 -0.597656 16 -0.597656 C 25.097656 -0.597656 32.480469 6.777344 32.480469 15.882812 Z M 32.480469 15.882812 "/>
</clipPath>
</defs>
<g id="surface1">
<path style="fill-rule:nonzero;fill:rgb(83.137256%,10.196079%,10.196079%);fill-opacity:1;stroke-width:27.910587;stroke-linecap:butt;stroke-linejoin:miter;stroke:rgb(92.54902%,37.254903%,37.254903%);stroke-opacity:1;stroke-miterlimit:4;" d="M 83.1875 27.4375 L 428.8125 27.4375 C 459.625 27.4375 484.5625 52.375 484.5625 83.1875 L 484.5625 428.8125 C 484.5625 459.625 459.625 484.5625 428.8125 484.5625 L 83.1875 484.5625 C 52.375 484.5625 27.4375 459.625 27.4375 428.8125 L 27.4375 83.1875 C 27.4375 52.375 52.375 27.4375 83.1875 27.4375 Z M 83.1875 27.4375 " transform="matrix(0.0625,0,0,0.0625,0,0)"/>
<g clip-path="url(#clip1)" clip-rule="nonzero">
<g clip-path="url(#clip2)" clip-rule="nonzero">
<path style=" stroke:none;fill-rule:nonzero;fill:rgb(100%,100%,100%);fill-opacity:1;" d="M 8.441406 8 C 7.863281 8 7.402344 8.464844 7.402344 9.042969 L 7.402344 20.394531 C 7.402344 20.972656 7.863281 21.644531 8.441406 21.613281 L 11.699219 21.613281 L 11.699219 25.195312 L 16 21.613281 L 23.558594 21.613281 C 24.136719 21.613281 24.597656 20.972656 24.597656 20.394531 L 24.597656 9.042969 C 24.597656 8.464844 24.136719 8 23.558594 8 M 15.285156 10.867188 L 16.714844 10.867188 L 16.714844 13.730469 L 18.863281 12.300781 L 19.582031 13.375 L 17.433594 14.808594 L 19.582031 16.238281 L 18.863281 17.316406 L 16.714844 15.882812 L 16.714844 18.746094 L 15.285156 18.746094 L 15.277344 15.859375 L 13.136719 17.316406 L 12.417969 16.242188 L 14.566406 14.808594 L 12.417969 13.375 L 13.136719 12.300781 L 15.285156 13.734375 M 15.285156 10.867188 "/>
</g>
</g>
</g>
</svg>
