
<svg xmlns="http://www.w3.org/2000/svg" xmlns:xlink="http://www.w3.org/1999/xlink" width="32px" height="32px" viewBox="0 0 32 32" version="1.1">
<defs>
<linearGradient id="linear0" gradientUnits="userSpaceOnUse" x1="1" y1="0" x2="47" y2="0" gradientTransform="matrix(0,-0.575396,0.575396,0,2.191768,29.809507)">
<stop offset="0" style="stop-color:rgb(26.274511%,40.392157%,41.176471%);stop-opacity:1;"/>
<stop offset="1" style="stop-color:rgb(29.411766%,45.09804%,46.27451%);stop-opacity:1;"/>
</linearGradient>
</defs>
<g id="surface1">
<path style=" stroke:none;fill-rule:nonzero;fill:url(#linear0);" d="M 2.765625 26.933594 L 2.765625 5.066406 C 2.765625 3.796875 3.796875 2.765625 5.066406 2.765625 L 26.933594 2.765625 C 28.203125 2.765625 29.234375 3.796875 29.234375 5.066406 L 29.234375 26.933594 C 29.234375 28.203125 28.203125 29.234375 26.933594 29.234375 L 5.066406 29.234375 C 3.796875 29.234375 2.765625 28.203125 2.765625 26.933594 Z M 2.765625 26.933594 "/>
<path style="fill-rule:nonzero;fill:rgb(100%,100%,100%);fill-opacity:1;stroke-width:0.4;stroke-linecap:butt;stroke-linejoin:miter;stroke:rgb(100%,100%,100%);stroke-opacity:1;stroke-miterlimit:4;" d="M 23.592573 4.674662 L 24.407426 4.674662 C 25.756547 4.678506 26.848144 5.770102 26.848144 7.115379 L 26.848144 30.507831 C 26.848144 31.853109 25.752704 32.948549 24.407426 32.948549 L 23.592573 32.948549 C 22.247295 32.948549 21.151855 31.853109 21.151855 30.507831 L 21.151855 7.115379 C 21.151855 5.770102 22.243451 4.678506 23.592573 4.674662 Z M 23.592573 4.674662 " transform="matrix(0.508143,0.508143,-0.508143,0.508143,15.023708,-7.414588)"/>
<path style="fill-rule:nonzero;fill:rgb(100%,33.333334%,33.333334%);fill-opacity:1;stroke-width:0.383166;stroke-linecap:butt;stroke-linejoin:miter;stroke:rgb(100%,100%,100%);stroke-opacity:1;stroke-miterlimit:4;" d="M 27.109512 36.327117 C 27.109512 34.46679 25.718111 32.96008 23.999999 32.956236 C 22.281888 32.96008 20.890487 34.46679 20.890487 36.327117 C 20.886643 38.1836 22.281888 39.694154 23.999999 39.69031 C 25.718111 39.694154 27.113356 38.1836 27.109512 36.327117 Z M 27.109512 36.327117 " transform="matrix(0.508143,0.508143,-0.508143,0.508143,15.023708,-7.414588)"/>
<path style="fill-rule:nonzero;fill:rgb(100%,33.333334%,33.333334%);fill-opacity:1;stroke-width:0.271515;stroke-linecap:butt;stroke-linejoin:miter;stroke:rgb(100%,100%,100%);stroke-opacity:1;stroke-miterlimit:4;" d="M 23.584885 20.272192 L 24.415114 20.272192 C 25.794984 20.276036 26.909642 20.768023 26.913486 21.371476 L 26.909642 31.914607 C 26.913486 32.51806 25.794984 33.013891 24.418957 33.013891 L 23.581042 33.013891 C 22.205015 33.013891 21.086513 32.51806 21.090357 31.914607 L 21.086513 21.371476 C 21.090357 20.768023 22.205015 20.276036 23.584885 20.272192 Z M 23.584885 20.272192 " transform="matrix(0.508143,0.508143,-0.508143,0.508143,15.023708,-7.414588)"/>
<path style=" stroke:none;fill-rule:nonzero;fill:rgb(100%,33.333334%,33.333334%);fill-opacity:1;" d="M 11.691406 20.308594 C 11.941406 20.558594 11.589844 21.316406 10.902344 22.003906 L 10.667969 22.234375 C 9.984375 22.917969 9.226562 23.269531 8.976562 23.023438 C 8.730469 22.773438 9.082031 22.015625 9.765625 21.332031 L 9.996094 21.097656 C 10.683594 20.410156 11.441406 20.058594 11.691406 20.308594 Z M 11.691406 20.308594 "/>
<path style=" stroke:none;fill-rule:nonzero;fill:rgb(20%,20%,20%);fill-opacity:1;" d="M 23.339844 8.761719 L 24.535156 9.957031 C 24.570312 9.988281 24.570312 10.042969 24.535156 10.074219 L 24.492188 10.121094 C 24.457031 10.152344 24.40625 10.152344 24.371094 10.121094 L 23.175781 8.925781 C 23.144531 8.890625 23.144531 8.839844 23.175781 8.804688 L 23.222656 8.761719 C 23.253906 8.726562 23.308594 8.726562 23.339844 8.761719 Z M 23.339844 8.761719 "/>
<path style=" stroke:none;fill-rule:nonzero;fill:rgb(20%,20%,20%);fill-opacity:1;" d="M 22.777344 10.230469 L 23.542969 10.992188 C 23.5625 11.015625 23.554688 11.058594 23.519531 11.089844 L 23.476562 11.136719 C 23.441406 11.167969 23.398438 11.179688 23.378906 11.15625 L 22.613281 10.394531 C 22.589844 10.371094 22.601562 10.328125 22.636719 10.292969 L 22.679688 10.25 C 22.710938 10.214844 22.753906 10.207031 22.777344 10.230469 Z M 22.777344 10.230469 "/>
<path style=" stroke:none;fill-rule:nonzero;fill:rgb(20%,20%,20%);fill-opacity:1;" d="M 21.308594 10.792969 L 22.503906 11.988281 C 22.535156 12.019531 22.535156 12.074219 22.503906 12.109375 L 22.460938 12.152344 C 22.425781 12.183594 22.371094 12.183594 22.339844 12.152344 L 21.144531 10.957031 C 21.113281 10.925781 21.113281 10.871094 21.144531 10.835938 L 21.1875 10.792969 C 21.222656 10.761719 21.277344 10.761719 21.308594 10.792969 Z M 21.308594 10.792969 "/>
<path style=" stroke:none;fill-rule:nonzero;fill:rgb(20%,20%,20%);fill-opacity:1;" d="M 20.746094 12.261719 L 21.511719 13.027344 C 21.53125 13.046875 21.519531 13.089844 21.488281 13.125 L 21.441406 13.167969 C 21.410156 13.199219 21.367188 13.210938 21.34375 13.191406 L 20.582031 12.425781 C 20.558594 12.402344 20.566406 12.359375 20.601562 12.324219 L 20.644531 12.285156 C 20.679688 12.25 20.722656 12.238281 20.746094 12.261719 Z M 20.746094 12.261719 "/>
<path style=" stroke:none;fill-rule:nonzero;fill:rgb(20%,20%,20%);fill-opacity:1;" d="M 19.277344 12.824219 L 20.472656 14.019531 C 20.503906 14.054688 20.503906 14.105469 20.472656 14.140625 L 20.425781 14.183594 C 20.394531 14.21875 20.339844 14.21875 20.308594 14.183594 L 19.113281 12.988281 C 19.078125 12.957031 19.078125 12.902344 19.113281 12.871094 L 19.15625 12.824219 C 19.191406 12.792969 19.242188 12.792969 19.277344 12.824219 Z M 19.277344 12.824219 "/>
<path style=" stroke:none;fill-rule:nonzero;fill:rgb(20%,20%,20%);fill-opacity:1;" d="M 18.710938 14.292969 L 19.476562 15.058594 C 19.496094 15.082031 19.488281 15.125 19.457031 15.15625 L 19.410156 15.199219 C 19.378906 15.234375 19.332031 15.246094 19.3125 15.222656 L 18.546875 14.457031 C 18.527344 14.4375 18.535156 14.394531 18.570312 14.359375 L 18.613281 14.316406 C 18.644531 14.28125 18.691406 14.273438 18.710938 14.292969 Z M 18.710938 14.292969 "/>
<path style=" stroke:none;fill-rule:nonzero;fill:rgb(20%,20%,20%);fill-opacity:1;" d="M 17.246094 14.855469 L 18.441406 16.050781 C 18.472656 16.085938 18.472656 16.140625 18.441406 16.175781 L 18.394531 16.214844 C 18.363281 16.25 18.308594 16.25 18.273438 16.214844 L 17.082031 15.023438 C 17.046875 14.988281 17.046875 14.933594 17.082031 14.902344 L 17.121094 14.855469 C 17.15625 14.824219 17.210938 14.824219 17.246094 14.855469 Z M 17.246094 14.855469 "/>
<path style=" stroke:none;fill-rule:nonzero;fill:rgb(20%,20%,20%);fill-opacity:1;" d="M 16.679688 16.324219 L 17.445312 17.089844 C 17.464844 17.113281 17.457031 17.15625 17.421875 17.191406 L 17.378906 17.234375 C 17.347656 17.265625 17.300781 17.277344 17.277344 17.253906 L 16.515625 16.488281 C 16.496094 16.46875 16.503906 16.425781 16.535156 16.390625 L 16.582031 16.347656 C 16.613281 16.316406 16.660156 16.304688 16.679688 16.324219 Z M 16.679688 16.324219 "/>
<path style=" stroke:none;fill-rule:nonzero;fill:rgb(20%,20%,20%);fill-opacity:1;" d="M 15.210938 16.890625 L 16.40625 18.085938 C 16.441406 18.121094 16.441406 18.171875 16.40625 18.207031 L 16.363281 18.25 C 16.328125 18.285156 16.277344 18.285156 16.242188 18.25 L 15.046875 17.054688 C 15.011719 17.019531 15.011719 16.96875 15.046875 16.933594 L 15.089844 16.890625 C 15.125 16.855469 15.175781 16.855469 15.210938 16.890625 Z M 15.210938 16.890625 "/>
<path style=" stroke:none;fill-rule:nonzero;fill:rgb(20%,20%,20%);fill-opacity:1;" d="M 14.644531 18.359375 L 15.410156 19.121094 C 15.433594 19.144531 15.425781 19.191406 15.390625 19.222656 L 15.347656 19.265625 C 15.3125 19.300781 15.269531 19.308594 15.246094 19.289062 L 14.480469 18.523438 C 14.460938 18.503906 14.472656 18.457031 14.503906 18.425781 L 14.546875 18.378906 C 14.582031 18.347656 14.625 18.339844 14.644531 18.359375 Z M 14.644531 18.359375 "/>
<path style=" stroke:none;fill-rule:nonzero;fill:rgb(20%,20%,20%);fill-opacity:1;" d="M 13.179688 18.921875 L 14.375 20.117188 C 14.40625 20.152344 14.40625 20.207031 14.375 20.238281 L 14.332031 20.28125 C 14.296875 20.316406 14.242188 20.316406 14.207031 20.28125 L 13.015625 19.089844 C 12.980469 19.054688 12.980469 19 13.015625 18.964844 L 13.058594 18.921875 C 13.089844 18.890625 13.144531 18.890625 13.179688 18.921875 Z M 13.179688 18.921875 "/>
<path style=" stroke:none;fill-rule:nonzero;fill:rgb(20%,20%,20%);fill-opacity:1;" d="M 12.613281 20.390625 L 13.378906 21.15625 C 13.402344 21.175781 13.390625 21.222656 13.355469 21.253906 L 13.3125 21.300781 C 13.28125 21.332031 13.238281 21.339844 13.214844 21.320312 L 12.449219 20.554688 C 12.429688 20.535156 12.4375 20.488281 12.472656 20.457031 L 12.515625 20.414062 C 12.550781 20.378906 12.59375 20.371094 12.613281 20.390625 Z M 12.613281 20.390625 "/>
</g>
</svg>
