
<svg xmlns="http://www.w3.org/2000/svg" xmlns:xlink="http://www.w3.org/1999/xlink" width="32px" height="32px" viewBox="0 0 32 32" version="1.1">
<g id="surface1">
<path style=" stroke:none;fill-rule:nonzero;fill:rgb(0%,0%,0%);fill-opacity:0.0196078;" d="M 5.609375 1.277344 L 26.707031 1.277344 C 29.007812 1.277344 30.871094 3.136719 30.871094 5.433594 L 30.871094 26.535156 C 30.871094 28.832031 29.007812 30.695312 26.707031 30.695312 L 5.609375 30.695312 C 3.3125 30.695312 1.449219 28.832031 1.449219 26.535156 L 1.449219 5.433594 C 1.449219 3.136719 3.3125 1.277344 5.609375 1.277344 Z M 5.609375 1.277344 "/>
<path style=" stroke:none;fill-rule:nonzero;fill:rgb(21.568628%,67.058825%,78.431374%);fill-opacity:1;" d="M 6.039062 1.871094 L 26.28125 1.871094 C 28.484375 1.871094 30.273438 3.660156 30.273438 5.863281 L 30.273438 26.105469 C 30.273438 28.308594 28.484375 30.097656 26.28125 30.097656 L 6.039062 30.097656 C 3.832031 30.097656 2.046875 28.308594 2.046875 26.105469 L 2.046875 5.863281 C 2.046875 3.660156 3.832031 1.871094 6.039062 1.871094 Z M 6.039062 1.871094 "/>
<path style=" stroke:none;fill-rule:evenodd;fill:rgb(0%,0%,0%);fill-opacity:0.498039;" d="M 6.398438 6.414062 L 6.398438 26.03125 C 12.972656 24.269531 19.894531 24.214844 26.015625 26.03125 L 26.015625 6.414062 C 22.351562 7.398438 10.425781 7.496094 6.398438 6.414062 Z M 8.359375 8.378906 L 24.054688 8.378906 L 24.054688 20.144531 L 20.128906 12.300781 L 15.535156 21.496094 L 12.773438 17.207031 L 8.359375 24.070312 Z M 8.359375 8.378906 "/>
</g>
</svg>
