
<svg xmlns="http://www.w3.org/2000/svg" xmlns:xlink="http://www.w3.org/1999/xlink" width="32px" height="32px" viewBox="0 0 32 32" version="1.1">
<g id="surface1">
<path style="fill-rule:nonzero;fill:rgb(92.54902%,92.54902%,92.54902%);fill-opacity:1;stroke-width:7.106125;stroke-linecap:butt;stroke-linejoin:miter;stroke:rgb(0%,66.666669%,83.137256%);stroke-opacity:1;stroke-miterlimit:4;" d="M 20.015625 5.796875 L 107.984375 5.796875 C 115.84375 5.796875 122.203125 12.15625 122.203125 20.015625 L 122.203125 107.984375 C 122.203125 115.84375 115.84375 122.203125 107.984375 122.203125 L 20.015625 122.203125 C 12.15625 122.203125 5.796875 115.84375 5.796875 107.984375 L 5.796875 20.015625 C 5.796875 12.15625 12.15625 5.796875 20.015625 5.796875 Z M 20.015625 5.796875 " transform="matrix(0.25,0,0,0.25,0,0)"/>
<path style=" stroke:none;fill-rule:nonzero;fill:rgb(75.294119%,15.294118%,29.411766%);fill-opacity:1;" d="M 3.40625 7.175781 L 21.433594 7.175781 L 21.433594 20.832031 L 3.40625 20.832031 Z M 3.40625 7.175781 "/>
<path style=" stroke:none;fill-rule:nonzero;fill:rgb(21.568628%,20.784314%,22.745098%);fill-opacity:1;" d="M 3.40625 7.175781 L 21.433594 7.175781 L 21.433594 8.785156 L 3.40625 8.785156 Z M 3.40625 7.175781 "/>
<path style=" stroke:none;fill-rule:nonzero;fill:rgb(100%,100%,100%);fill-opacity:1;" d="M 17.015625 7.5 L 17.996094 7.5 L 17.996094 8.460938 L 17.015625 8.460938 Z M 17.015625 7.5 "/>
<path style=" stroke:none;fill-rule:nonzero;fill:rgb(100%,100%,100%);fill-opacity:1;" d="M 18.816406 7.5 L 19.796875 7.5 L 19.796875 8.460938 L 18.816406 8.460938 Z M 18.816406 7.5 "/>
<path style=" stroke:none;fill-rule:nonzero;fill:rgb(100%,100%,100%);fill-opacity:1;" d="M 15.214844 7.5 L 16.195312 7.5 L 16.195312 8.460938 L 15.214844 8.460938 Z M 15.214844 7.5 "/>
<path style=" stroke:none;fill-rule:nonzero;fill:rgb(16.078432%,50.196081%,72.549021%);fill-opacity:1;" d="M 9.957031 13.203125 L 27.988281 13.203125 L 27.988281 26.859375 L 9.957031 26.859375 Z M 9.957031 13.203125 "/>
<path style=" stroke:none;fill-rule:nonzero;fill:rgb(21.568628%,20.784314%,22.745098%);fill-opacity:1;" d="M 9.957031 13.203125 L 27.988281 13.203125 L 27.988281 14.808594 L 9.957031 14.808594 Z M 9.957031 13.203125 "/>
<path style=" stroke:none;fill-rule:nonzero;fill:rgb(100%,100%,100%);fill-opacity:1;" d="M 23.566406 13.527344 L 24.550781 13.527344 L 24.550781 14.488281 L 23.566406 14.488281 Z M 23.566406 13.527344 "/>
<path style=" stroke:none;fill-rule:nonzero;fill:rgb(100%,100%,100%);fill-opacity:1;" d="M 25.367188 13.527344 L 26.347656 13.527344 L 26.347656 14.488281 L 25.367188 14.488281 Z M 25.367188 13.527344 "/>
<path style=" stroke:none;fill-rule:nonzero;fill:rgb(100%,100%,100%);fill-opacity:1;" d="M 21.769531 13.527344 L 22.746094 13.527344 L 22.746094 14.488281 L 21.769531 14.488281 Z M 21.769531 13.527344 "/>
<path style=" stroke:none;fill-rule:evenodd;fill:rgb(100%,80.000001%,0%);fill-opacity:1;" d="M 13.628906 8.042969 L 18.46875 18.183594 C 16.1875 18.011719 16.222656 18 16.113281 17.988281 C 15.957031 17.964844 15.828125 17.945312 15.558594 17.925781 L 17.507812 25.34375 L 11.496094 14.144531 L 14.660156 14.484375 L 13.628906 8.042969 "/>
</g>
</svg>
