
<svg xmlns="http://www.w3.org/2000/svg" xmlns:xlink="http://www.w3.org/1999/xlink" width="32px" height="32px" viewBox="0 0 32 32" version="1.1">
<g id="surface1">
<path style="fill-rule:nonzero;fill:rgb(100%,100%,100%);fill-opacity:1;stroke-width:7.075311;stroke-linecap:butt;stroke-linejoin:miter;stroke:rgb(92.54902%,46.666667%,8.235294%);stroke-opacity:1;stroke-miterlimit:4;" d="M 20.203125 6.046875 L 107.796875 6.046875 C 115.609375 6.046875 121.953125 12.390625 121.953125 20.203125 L 121.953125 107.796875 C 121.953125 115.609375 115.609375 121.953125 107.796875 121.953125 L 20.203125 121.953125 C 12.390625 121.953125 6.046875 115.609375 6.046875 107.796875 L 6.046875 20.203125 C 6.046875 12.390625 12.390625 6.046875 20.203125 6.046875 Z M 20.203125 6.046875 " transform="matrix(0.25,0,0,0.25,0,0)"/>
<path style="fill-rule:nonzero;fill:rgb(45.490196%,57.254905%,50.196081%);fill-opacity:1;stroke-width:1.04972;stroke-linecap:butt;stroke-linejoin:miter;stroke:rgb(92.54902%,46.666667%,8.235294%);stroke-opacity:1;stroke-miterlimit:4;" d="M 44.197675 187.566603 C 43.887619 187.635505 43.594788 187.704406 43.301957 187.773308 C 42.73352 187.842209 42.199535 187.980012 41.665549 188.13504 C 27.868044 191.321729 16.32706 200.709545 10.367089 213.559655 C 10.160385 214.007514 9.936456 214.455373 9.729751 214.903233 C 9.471371 215.54057 9.230216 216.195134 9.023512 216.832472 C 8.713456 217.624838 8.420625 218.399978 8.162245 219.20957 C 7.869414 220.191415 7.611033 221.190485 7.387104 222.206781 C 7.266526 222.671865 7.128724 223.154175 7.025372 223.636485 C 6.577512 225.944681 6.301907 228.287329 6.198555 230.629976 C 6.164104 231.31899 6.129653 232.02523 6.095203 232.731469 C 6.095203 232.731469 6.095203 232.731469 6.095203 232.748694 C 6.095203 232.76592 6.095203 232.76592 6.095203 232.76592 C 6.112428 233.179328 6.129653 233.609962 6.164104 234.02337 C 10.229287 237.520116 14.897356 240.586228 18.876412 240.637904 C 22.562637 240.68958 26.903425 238.20913 30.796353 235.177469 C 30.761903 234.936314 30.727452 234.660708 30.693001 234.402328 C 30.658551 233.920018 30.641325 233.420483 30.6241 232.938173 C 30.6241 232.869272 30.6241 232.817596 30.6241 232.748694 C 30.6241 232.679793 30.6241 232.610892 30.6241 232.559215 C 30.641325 232.05968 30.658551 231.577371 30.693001 231.095061 C 30.744677 230.681652 30.796353 230.251019 30.865255 229.854836 C 30.899706 229.648131 30.934156 229.441427 30.968607 229.251948 C 31.054734 228.769639 31.158086 228.32178 31.278663 227.856695 C 31.313114 227.718892 31.347565 227.563864 31.382015 227.426061 C 31.554269 226.926526 31.709297 226.426991 31.898776 225.927456 C 31.933227 225.841329 31.967677 225.755203 32.002128 225.669076 C 34.172522 220.294767 38.651113 216.195134 44.197675 214.5415 L 44.197675 214.265895 C 44.404379 214.28312 44.576633 214.300345 44.783337 214.300345 L 65.470981 214.300345 C 70.276854 214.300345 74.359262 211.09643 76.081797 206.514487 C 73.411867 207.203501 68.692122 208.305924 65.763812 208.271473 C 63.817348 208.271473 61.664179 208.185346 60.010546 207.1346 C 58.925349 206.428361 57.719574 203.965136 57.719574 203.965136 C 57.719574 203.965136 65.88439 205.498192 69.794544 204.533572 C 72.03384 203.982361 75.272205 201.760291 76.960289 200.520066 L 76.960289 200.347812 C 76.960289 193.31987 71.844361 187.65273 65.470981 187.65273 L 44.783337 187.65273 C 44.576633 187.65273 44.404379 187.669955 44.197675 187.687181 Z M 61.026841 193.905532 C 62.6977 193.905532 64.041277 195.249109 64.041277 196.919968 C 64.041277 198.590827 62.6977 199.934404 61.026841 199.934404 C 59.355982 199.934404 58.012405 198.590827 58.012405 196.919968 C 58.012405 195.249109 59.355982 193.905532 61.026841 193.905532 Z M 61.026841 193.905532 " transform="matrix(0.226773,0,0,0.226773,9.660739,-37.812449)"/>
<path style="fill-rule:nonzero;fill:rgb(45.490196%,57.254905%,50.196081%);fill-opacity:1;stroke-width:1.04972;stroke-linecap:butt;stroke-linejoin:miter;stroke:rgb(92.54902%,46.666667%,8.235294%);stroke-opacity:1;stroke-miterlimit:4;" d="M 47.918351 260.154225 C 40.597577 268.956378 29.728382 274.055082 18.29075 274.072307 C 17.80844 274.037856 17.343356 274.020631 16.878271 273.98618 C 18.118496 275.278082 19.462074 276.501081 20.857327 277.620729 C 20.960679 277.68963 21.046806 277.758532 21.150158 277.844659 C 22.25258 278.705926 23.406679 279.532743 24.595228 280.290658 C 24.69858 280.342334 24.784707 280.411236 24.888059 280.462912 C 26.076608 281.220827 27.316833 281.927066 28.557058 282.58163 C 28.694861 282.633306 28.832664 282.684982 28.953241 282.753883 C 32.174381 284.338615 35.567775 285.527164 39.064521 286.336756 C 39.581282 286.474559 40.098042 286.595136 40.632028 286.681263 C 40.95931 286.750164 41.269366 286.819065 41.579422 286.887967 L 41.579422 286.767389 C 41.786126 286.784615 41.975605 286.80184 42.165084 286.80184 L 62.852728 286.80184 C 69.226108 286.80184 74.342036 281.1347 74.342036 274.106758 L 74.342036 272.832082 C 74.342036 265.804139 69.226108 260.154225 62.852728 260.154225 Z M 47.918351 260.154225 " transform="matrix(0.226773,0,0,0.226773,9.660739,-37.812449)"/>
<path style="fill-rule:nonzero;fill:rgb(92.54902%,46.666667%,8.235294%);fill-opacity:1;stroke-width:1;stroke-linecap:butt;stroke-linejoin:miter;stroke:rgb(92.54902%,46.666667%,8.235294%);stroke-opacity:1;stroke-miterlimit:4;" d="M 13.467652 195.386912 C -5.428556 196.127602 -18.22699 209.322219 -20.621314 228.132301 C -20.845243 229.010794 -20.965821 229.906512 -20.965821 230.853906 L -20.965821 246.856255 L -21.086398 246.856255 L -21.086398 283.907981 L 2.167823 283.907981 L 2.167823 267.630026 C 6.784217 269.559266 11.727892 270.558336 16.723243 270.558336 C 37.531465 270.558336 54.395082 253.677494 54.395082 232.869272 C 54.395082 226.650921 52.741448 221.638344 49.795914 216.160683 L 44.817788 217.125303 C 44.611084 217.159753 44.404379 217.108077 44.197675 217.090852 L 44.197675 217.366457 C 38.375507 219.123443 37.341986 221.552217 35.06824 227.202132 C 35.033789 227.288259 34.964888 227.563864 34.930437 227.649991 C 34.775409 228.080625 34.930437 228.494033 34.80986 228.941892 C 35.274944 230.354371 34.293099 231.715173 34.310325 233.213779 C 34.310325 241.085763 24.733031 247.252438 16.861046 247.252438 C 8.989061 247.252438 2.615682 240.879059 2.615682 233.007075 C 2.632908 230.561075 1.306556 227.942822 2.408978 225.755203 C 2.581231 225.39347 2.632908 224.842259 2.719034 224.446076 C 2.805161 223.946541 2.960189 223.447006 3.097992 222.947471 C 3.321921 221.879499 3.597527 220.828753 3.890358 219.778006 C 4.183189 218.95119 4.47602 218.124373 4.803302 217.297556 C 5.044456 216.608542 5.285611 215.936753 5.561217 215.264965 C 5.785146 214.782655 5.991851 214.317571 6.233006 213.852486 C 9.505822 206.600614 12.778638 200.261686 19.703229 195.180208 C 17.55006 194.80125 15.500243 195.042405 13.467652 195.386912 Z M 13.467652 195.386912 " transform="matrix(0.226773,0,0,0.226773,9.660739,-37.812449)"/>
</g>
</svg>
