<!-- color: #474747 -->
<svg xmlns="http://www.w3.org/2000/svg" xmlns:xlink="http://www.w3.org/1999/xlink" width="32px" height="32px" viewBox="0 0 32 32" version="1.1">
<defs>
<clipPath id="clip1">
  <path d="M 4.4375 5.125 L 27.4375 5.125 L 27.4375 26.375 L 4.4375 26.375 Z M 4.4375 5.125 "/>
</clipPath>
<clipPath id="clip2">
  <path d="M 36.207031 15.734375 C 36.207031 26.945312 27.117188 36.027344 15.917969 36.027344 C 4.714844 36.027344 -4.375 26.945312 -4.375 15.734375 C -4.375 4.523438 4.714844 -4.558594 15.917969 -4.558594 C 27.117188 -4.558594 36.207031 4.523438 36.207031 15.734375 Z M 36.207031 15.734375 "/>
</clipPath>
</defs>
<g id="surface1">
<path style="fill-rule:nonzero;fill:rgb(82.352942%,85.882354%,90.980393%);fill-opacity:1;stroke-width:6.94016;stroke-linecap:butt;stroke-linejoin:miter;stroke:rgb(84.705883%,69.01961%,15.686275%);stroke-opacity:1;stroke-miterlimit:4;" d="M 21.046875 7.15625 L 106.953125 7.15625 C 114.625 7.15625 120.84375 13.375 120.84375 21.046875 L 120.84375 106.953125 C 120.84375 114.625 114.625 120.84375 106.953125 120.84375 L 21.046875 120.84375 C 13.375 120.84375 7.15625 114.625 7.15625 106.953125 L 7.15625 21.046875 C 7.15625 13.375 13.375 7.15625 21.046875 7.15625 Z M 21.046875 7.15625 " transform="matrix(0.25,0,0,0.25,0,0)"/>
<g clip-path="url(#clip1)" clip-rule="nonzero">
<g clip-path="url(#clip2)" clip-rule="nonzero">
<path style=" stroke:none;fill-rule:nonzero;fill:rgb(84.705883%,69.01961%,15.686275%);fill-opacity:1;" d="M 12.472656 26.296875 C 11.472656 26.230469 10.542969 26.035156 9.792969 25.746094 C 9.339844 25.570312 8.777344 25.285156 8.726562 25.207031 C 8.710938 25.183594 8.902344 24.691406 9.160156 24.117188 C 9.414062 23.542969 9.617188 23.042969 9.617188 23.011719 C 9.617188 22.957031 8.847656 21.207031 8.699219 20.921875 C 8.648438 20.824219 8.210938 20.28125 7.738281 19.707031 L 6.863281 18.660156 L 6.808594 18.199219 C 6.777344 17.949219 6.539062 16.082031 6.285156 14.050781 L 5.816406 10.359375 L 5.539062 10.324219 C 4.746094 10.222656 4.269531 9.527344 4.511719 8.8125 C 4.609375 8.507812 4.769531 8.324219 5.058594 8.152344 C 5.25 8.042969 5.335938 8.023438 5.648438 8.023438 C 5.957031 8.023438 6.042969 8.039062 6.230469 8.152344 C 6.527344 8.324219 6.683594 8.507812 6.785156 8.8125 C 6.960938 9.332031 6.730469 9.914062 6.246094 10.179688 C 6.191406 10.210938 6.550781 10.972656 8.019531 13.957031 C 9.035156 16.011719 9.871094 17.695312 9.875 17.703125 C 9.886719 17.714844 10.394531 8.753906 10.390625 8.605469 C 10.386719 8.503906 10.363281 8.476562 10.183594 8.433594 C 9.894531 8.359375 9.597656 8.136719 9.4375 7.867188 C 9.320312 7.667969 9.300781 7.589844 9.300781 7.273438 C 9.300781 6.957031 9.320312 6.886719 9.449219 6.675781 C 9.933594 5.898438 11.039062 5.898438 11.527344 6.675781 C 11.65625 6.882812 11.675781 6.953125 11.675781 7.277344 C 11.675781 7.597656 11.65625 7.667969 11.527344 7.878906 C 11.441406 8.019531 11.28125 8.175781 11.136719 8.269531 L 10.894531 8.433594 L 12.417969 12.789062 C 13.261719 15.1875 13.957031 17.148438 13.972656 17.148438 C 13.988281 17.148438 15.578125 8.253906 15.683594 7.550781 C 15.691406 7.535156 15.613281 7.488281 15.511719 7.449219 C 15.246094 7.355469 15.011719 7.160156 14.859375 6.910156 C 14.742188 6.71875 14.722656 6.628906 14.722656 6.324219 C 14.722656 6.007812 14.742188 5.9375 14.871094 5.726562 C 15.359375 4.949219 16.464844 4.949219 16.949219 5.726562 C 17.078125 5.933594 17.097656 6.003906 17.097656 6.324219 C 17.097656 6.632812 17.078125 6.71875 16.960938 6.910156 C 16.808594 7.160156 16.578125 7.355469 16.308594 7.449219 C 16.210938 7.484375 16.128906 7.535156 16.136719 7.550781 C 16.246094 8.253906 17.832031 17.148438 17.847656 17.148438 C 17.863281 17.148438 18.558594 15.1875 19.402344 12.789062 L 20.925781 8.433594 L 20.6875 8.269531 C 20.539062 8.175781 20.382812 8.019531 20.292969 7.878906 C 20.167969 7.671875 20.148438 7.597656 20.148438 7.277344 C 20.148438 6.957031 20.164062 6.886719 20.292969 6.675781 C 20.785156 5.898438 21.890625 5.898438 22.375 6.675781 C 22.503906 6.882812 22.519531 6.957031 22.519531 7.273438 C 22.519531 7.582031 22.503906 7.667969 22.382812 7.867188 C 22.222656 8.136719 21.925781 8.359375 21.636719 8.433594 C 21.464844 8.472656 21.433594 8.5 21.433594 8.605469 C 21.425781 8.753906 21.9375 17.714844 21.945312 17.703125 C 21.949219 17.695312 22.78125 16.011719 23.800781 13.957031 C 25.273438 10.96875 25.632812 10.207031 25.574219 10.179688 C 25.089844 9.914062 24.863281 9.332031 25.035156 8.8125 C 25.136719 8.507812 25.296875 8.324219 25.585938 8.152344 C 25.777344 8.042969 25.863281 8.023438 26.175781 8.023438 C 26.484375 8.023438 26.574219 8.039062 26.761719 8.152344 C 27.050781 8.324219 27.214844 8.507812 27.3125 8.8125 C 27.554688 9.527344 27.078125 10.222656 26.277344 10.324219 L 26.007812 10.359375 L 25.539062 14.050781 C 25.277344 16.082031 25.042969 17.949219 25.011719 18.199219 L 24.957031 18.660156 L 24.085938 19.707031 C 23.605469 20.277344 23.175781 20.824219 23.121094 20.921875 C 22.972656 21.203125 22.207031 22.953125 22.207031 23.011719 C 22.207031 23.042969 22.410156 23.542969 22.667969 24.117188 C 22.917969 24.691406 23.113281 25.183594 23.101562 25.207031 C 22.988281 25.386719 21.824219 25.863281 21.074219 26.039062 C 19.988281 26.296875 19.773438 26.308594 16.25 26.320312 C 14.449219 26.328125 12.746094 26.316406 12.464844 26.296875 M 12.464844 26.296875 "/>
</g>
</g>
</g>
</svg>
