
<svg xmlns="http://www.w3.org/2000/svg" xmlns:xlink="http://www.w3.org/1999/xlink" width="32px" height="32px" viewBox="0 0 32 32" version="1.1">
<g id="surface1">
<path style="fill-rule:nonzero;fill:rgb(100%,100%,100%);fill-opacity:1;stroke-width:7.075311;stroke-linecap:butt;stroke-linejoin:miter;stroke:rgb(27.058825%,52.549022%,72.549021%);stroke-opacity:1;stroke-miterlimit:4;" d="M 20.203125 6.046875 L 107.796875 6.046875 C 115.609375 6.046875 121.953125 12.390625 121.953125 20.203125 L 121.953125 107.796875 C 121.953125 115.609375 115.609375 121.953125 107.796875 121.953125 L 20.203125 121.953125 C 12.390625 121.953125 6.046875 115.609375 6.046875 107.796875 L 6.046875 20.203125 C 6.046875 12.390625 12.390625 6.046875 20.203125 6.046875 Z M 20.203125 6.046875 " transform="matrix(0.25,0,0,0.25,0,0)"/>
<path style=" stroke:none;fill-rule:nonzero;fill:rgb(97.647059%,97.647059%,97.647059%);fill-opacity:1;" d="M 13.746094 6.632812 C 13.746094 7.496094 13.042969 8.199219 12.175781 8.199219 C 11.308594 8.199219 10.605469 7.496094 10.605469 6.632812 C 10.605469 5.765625 11.308594 5.066406 12.175781 5.066406 C 13.042969 5.066406 13.746094 5.765625 13.746094 6.632812 M 13.746094 6.632812 "/>
<path style=" stroke:none;fill-rule:nonzero;fill:rgb(27.058825%,52.549022%,72.549021%);fill-opacity:1;" d="M 15.828125 3.511719 C 14.792969 3.515625 13.804688 3.605469 12.933594 3.757812 C 10.375 4.207031 9.910156 5.140625 9.910156 6.871094 L 9.910156 9.152344 L 15.960938 9.152344 L 15.960938 9.914062 L 7.636719 9.914062 C 5.875 9.914062 4.335938 10.960938 3.855469 12.949219 C 3.300781 15.230469 3.269531 16.652344 3.855469 19.03125 C 4.285156 20.800781 5.308594 22.066406 7.070312 22.066406 L 8.847656 22.066406 L 8.847656 19.035156 C 8.847656 17.0625 10.582031 15.332031 12.636719 15.332031 L 18.972656 15.332031 C 20.65625 15.332031 22.25 13.957031 22.25 12.285156 L 22.25 6.882812 C 22.25 5.261719 20.621094 4.039062 18.972656 3.769531 C 17.933594 3.597656 16.855469 3.519531 15.824219 3.523438 M 12.554688 5.347656 C 13.179688 5.347656 13.691406 5.863281 13.691406 6.496094 C 13.691406 7.125 13.179688 7.628906 12.554688 7.628906 C 11.925781 7.628906 11.414062 7.125 11.414062 6.496094 C 11.414062 5.863281 11.917969 5.347656 12.554688 5.347656 M 12.554688 5.347656 "/>
<path style=" stroke:none;fill-rule:nonzero;fill:rgb(97.647059%,97.647059%,97.647059%);fill-opacity:1;" d="M 21.070312 25.457031 C 21.070312 26.320312 20.367188 27.023438 19.5 27.023438 C 18.628906 27.023438 17.925781 26.320312 17.925781 25.457031 C 17.925781 24.589844 18.628906 23.886719 19.5 23.886719 C 20.367188 23.886719 21.070312 24.589844 21.070312 25.457031 M 21.070312 25.457031 "/>
<path style=" stroke:none;fill-rule:nonzero;fill:rgb(100%,90.196079%,20.392157%);fill-opacity:1;" d="M 23.113281 9.910156 L 23.113281 12.570312 C 23.113281 14.628906 21.34375 16.121094 19.328125 16.121094 L 12.6875 16.121094 C 11.03125 16.121094 9.660156 17.769531 9.660156 19.410156 L 9.660156 25.113281 C 9.660156 26.734375 11.085938 27.683594 12.6875 28.152344 C 14.601562 28.707031 16.691406 28.8125 18.980469 28.152344 C 20.503906 27.714844 22.007812 26.835938 22.007812 25.113281 L 22.007812 22.828125 L 15.964844 22.828125 L 15.964844 22.066406 L 25.042969 22.066406 C 26.796875 22.066406 27.457031 20.851562 28.066406 19.035156 C 28.699219 17.160156 28.667969 15.351562 28.066406 12.949219 C 27.628906 11.214844 26.800781 9.917969 25.042969 9.917969 M 19.367188 24.355469 C 19.992188 24.355469 20.503906 24.859375 20.503906 25.488281 C 20.503906 26.117188 19.996094 26.636719 19.367188 26.636719 C 18.738281 26.636719 18.226562 26.117188 18.226562 25.488281 C 18.226562 24.859375 18.738281 24.355469 19.367188 24.355469 M 19.367188 24.355469 "/>
</g>
</svg>
