
<svg xmlns="http://www.w3.org/2000/svg" xmlns:xlink="http://www.w3.org/1999/xlink" width="32px" height="32px" viewBox="0 0 32 32" version="1.1">
<g id="surface1">
<path style=" stroke:none;fill-rule:evenodd;fill:rgb(15.686275%,49.411765%,71.764708%);fill-opacity:1;" d="M 5.160156 2.179688 L 26.929688 2.179688 C 28.667969 2.179688 30.082031 3.589844 30.082031 5.332031 L 30.082031 27.097656 C 30.082031 28.839844 28.667969 30.246094 26.929688 30.246094 L 5.160156 30.246094 C 3.421875 30.246094 2.011719 28.839844 2.011719 27.097656 L 2.011719 5.332031 C 2.011719 3.589844 3.421875 2.179688 5.160156 2.179688 Z M 5.160156 2.179688 "/>
<path style=" stroke:none;fill-rule:nonzero;fill:rgb(17.254902%,24.313726%,31.37255%);fill-opacity:1;" d="M 16.074219 27.410156 C 22.15625 27.410156 27.085938 22.480469 27.085938 16.398438 C 27.085938 10.316406 22.15625 5.386719 16.074219 5.386719 L 16.074219 7.449219 C 21.015625 7.449219 25.023438 11.457031 25.023438 16.398438 C 25.023438 21.339844 21.015625 25.347656 16.074219 25.347656 Z M 16.074219 27.410156 "/>
<path style=" stroke:none;fill-rule:nonzero;fill:rgb(10.196079%,73.725492%,61.176473%);fill-opacity:1;" d="M 5.0625 16.398438 C 5.0625 22.480469 9.992188 27.410156 16.074219 27.410156 L 16.074219 25.347656 C 11.132812 25.347656 7.125 21.339844 7.125 16.398438 C 7.125 11.457031 11.132812 7.449219 16.074219 7.449219 L 16.074219 5.386719 C 9.992188 5.386719 5.0625 10.316406 5.0625 16.398438 Z M 5.0625 16.398438 "/>
<path style=" stroke:none;fill-rule:nonzero;fill:rgb(92.54902%,94.117647%,94.509804%);fill-opacity:1;" d="M 14.40625 11.390625 L 14.40625 15.683594 L 12.738281 15.683594 L 16.078125 19.496094 L 19.410156 15.683594 L 17.742188 15.683594 L 17.742188 11.390625 Z M 16.078125 19.496094 L 11.066406 19.496094 L 11.066406 21.402344 L 21.082031 21.402344 L 21.082031 19.496094 Z M 16.078125 19.496094 "/>
</g>
</svg>
