
<svg xmlns="http://www.w3.org/2000/svg" xmlns:xlink="http://www.w3.org/1999/xlink" width="32px" height="32px" viewBox="0 0 32 32" version="1.1">
<g id="surface1">
<path style=" stroke:none;fill-rule:evenodd;fill:rgb(17.254902%,24.313726%,31.37255%);fill-opacity:1;" d="M 5.746094 2.035156 L 26.660156 2.035156 C 28.785156 2.035156 30.507812 3.757812 30.507812 5.882812 L 30.507812 26.792969 C 30.507812 28.917969 28.785156 30.644531 26.660156 30.644531 L 5.746094 30.644531 C 3.621094 30.644531 1.898438 28.917969 1.898438 26.792969 L 1.898438 5.882812 C 1.898438 3.757812 3.621094 2.035156 5.746094 2.035156 Z M 5.746094 2.035156 "/>
<path style=" stroke:none;fill-rule:nonzero;fill:rgb(53.333336%,78.823531%,25.490198%);fill-opacity:1;" d="M 27.070312 6.597656 L 4.660156 14.027344 L 13.800781 17.84375 L 15.488281 27.140625 Z M 27.070312 6.597656 "/>
<path style=" stroke:none;fill-rule:nonzero;fill:rgb(92.54902%,94.117647%,94.509804%);fill-opacity:1;" d="M 16.382812 5.042969 C 10.597656 5.042969 5.914062 9.457031 5.914062 14.898438 C 5.914062 18.691406 8.207031 21.964844 11.550781 23.605469 L 9.402344 24.941406 L 10.070312 25.578125 C 10.070312 25.578125 11.164062 24.847656 11.796875 24.71875 C 12.464844 24.585938 13.839844 24.847656 13.839844 24.847656 C 14.820312 25.101562 13.679688 24.738281 15.570312 25.449219 C 15.570312 25.449219 19.472656 27.035156 21.550781 27.355469 C 22.207031 27.460938 22.917969 27.511719 23.5625 27.355469 C 24.78125 27.066406 26.886719 25.65625 26.886719 25.65625 L 26.886719 24.894531 C 26.886719 24.894531 25.394531 25.308594 24.625 25.355469 C 24.121094 25.386719 23.605469 25.335938 23.113281 25.230469 C 22.054688 24.992188 20.226562 24.183594 20.039062 24.097656 C 24.019531 22.707031 26.871094 19.125 26.871094 14.898438 C 26.871094 9.457031 22.167969 5.042969 16.382812 5.042969 Z M 16.402344 7.875 C 19.878906 7.875 22.699219 10.996094 22.699219 14.851562 C 22.699219 18.707031 19.878906 21.84375 16.402344 21.84375 C 12.921875 21.84375 10.101562 18.707031 10.101562 14.851562 C 10.101562 10.996094 12.921875 7.875 16.402344 7.875 Z M 16.402344 7.875 "/>
</g>
</svg>
