
<svg xmlns="http://www.w3.org/2000/svg" xmlns:xlink="http://www.w3.org/1999/xlink" width="32px" height="32px" viewBox="0 0 32 32" version="1.1">
<g id="surface1">
<path style="fill-rule:nonzero;fill:rgb(100%,77.64706%,45.882353%);fill-opacity:0.639216;stroke-width:6.815335;stroke-linecap:butt;stroke-linejoin:miter;stroke:rgb(95.686275%,55.686277%,31.764707%);stroke-opacity:1;stroke-miterlimit:4;" d="M 21.8125 8.171875 L 106.1875 8.171875 C 113.71875 8.171875 119.828125 14.28125 119.828125 21.8125 L 119.828125 106.1875 C 119.828125 113.71875 113.71875 119.828125 106.1875 119.828125 L 21.8125 119.828125 C 14.28125 119.828125 8.171875 113.71875 8.171875 106.1875 L 8.171875 21.8125 C 8.171875 14.28125 14.28125 8.171875 21.8125 8.171875 Z M 21.8125 8.171875 " transform="matrix(0.25,0,0,0.25,0,0)"/>
<path style=" stroke:none;fill-rule:nonzero;fill:rgb(95.686275%,55.686277%,31.764707%);fill-opacity:1;" d="M 15.613281 4.800781 C 13.222656 8.058594 5.113281 17.25 8.566406 22.558594 C 11.242188 26.667969 20.332031 26.691406 22.972656 22.558594 C 26.410156 17.183594 17.644531 8.058594 15.613281 4.800781 M 15.613281 4.800781 "/>
<path style=" stroke:none;fill-rule:nonzero;fill:rgb(100%,77.64706%,45.882353%);fill-opacity:1;" d="M 14.796875 11.542969 C 10.113281 11.84375 8.515625 18.648438 10.308594 21.746094 C 12.289062 24.789062 18 25.417969 21.535156 23.648438 C 20.917969 22.988281 20.054688 22.308594 18.929688 22.023438 C 16.402344 21.371094 12.625 17.460938 14.519531 14.855469 C 16.417969 12.246094 19.558594 14.855469 19.558594 14.855469 C 19.558594 14.855469 18.929688 12.246094 15.773438 11.59375 C 15.578125 11.554688 15.351562 11.550781 15.148438 11.542969 C 15.019531 11.535156 14.925781 11.535156 14.800781 11.542969 M 14.796875 11.542969 "/>
</g>
</svg>
