
<svg xmlns="http://www.w3.org/2000/svg" xmlns:xlink="http://www.w3.org/1999/xlink" width="32px" height="32px" viewBox="0 0 32 32" version="1.1">
<g id="surface1">
<path style="fill-rule:nonzero;fill:rgb(5.882353%,63.137257%,37.254903%);fill-opacity:1;stroke-width:28.076122;stroke-linecap:butt;stroke-linejoin:miter;stroke:rgb(0%,37.64706%,18.431373%);stroke-opacity:1;stroke-miterlimit:4;" d="M 82.1875 26.0625 L 429.8125 26.0625 C 460.8125 26.0625 485.9375 51.1875 485.9375 82.1875 L 485.9375 429.8125 C 485.9375 460.8125 460.8125 485.9375 429.8125 485.9375 L 82.1875 485.9375 C 51.1875 485.9375 26.0625 460.8125 26.0625 429.8125 L 26.0625 82.1875 C 26.0625 51.1875 51.1875 26.0625 82.1875 26.0625 Z M 82.1875 26.0625 " transform="matrix(0.0625,0,0,0.0625,0,0)"/>
<path style=" stroke:none;fill-rule:nonzero;fill:rgb(0%,40.000001%,25.882354%);fill-opacity:1;" d="M 12.492188 8.191406 C 11.910156 8.160156 11.316406 8.269531 10.820312 8.480469 C 9.835938 8.910156 9.082031 10.058594 8.710938 11.691406 C 8.449219 12.855469 8.464844 16.042969 8.730469 17.273438 C 9.117188 19.074219 10.03125 20.410156 11.132812 20.777344 C 11.539062 20.914062 11.585938 20.980469 11.757812 21.53125 C 12.023438 22.382812 12.277344 22.785156 12.65625 23.050781 C 13.035156 23.324219 13.769531 23.507812 14.234375 23.4375 C 14.410156 23.410156 14.675781 23.402344 14.820312 23.402344 C 15.070312 23.402344 15.078125 23.371094 15.078125 22.6875 C 15.078125 22.046875 15.050781 21.953125 14.859375 21.953125 C 14.449219 21.953125 14.113281 21.722656 13.921875 21.292969 C 13.816406 21.054688 13.75 20.832031 13.777344 20.816406 C 13.800781 20.792969 14.039062 20.648438 14.324219 20.484375 C 15.75 19.667969 16.394531 17.835938 16.398438 14.558594 C 16.402344 10.613281 15.414062 8.742188 13.058594 8.261719 C 12.875 8.222656 12.683594 8.199219 12.488281 8.1875 Z M 18.144531 8.996094 L 17.941406 9.769531 C 17.835938 10.191406 17.722656 10.664062 17.683594 10.832031 C 17.625 11.089844 17.574219 11.144531 17.246094 11.144531 L 16.859375 11.144531 L 16.859375 12.574219 L 17.519531 12.574219 L 17.519531 15.785156 C 17.519531 16.988281 17.515625 17.804688 17.554688 18.410156 C 18.074219 17.9375 18.707031 17.582031 19.410156 17.402344 C 19.402344 16.972656 19.390625 16.433594 19.390625 15.546875 L 19.390625 12.683594 L 20.710938 12.683594 L 20.710938 11.402344 L 20.050781 11.308594 L 19.390625 11.234375 L 19.390625 10.207031 C 19.390625 9.636719 19.34375 9.152344 19.300781 9.125 C 19.253906 9.097656 18.972656 9.058594 18.675781 9.035156 Z M 12.65625 9.804688 C 13.121094 9.804688 13.707031 10.363281 13.921875 11.015625 C 14.304688 12.167969 14.371094 16.046875 14.03125 17.675781 C 13.765625 18.972656 13.058594 19.636719 12.324219 19.273438 C 11.988281 19.105469 11.585938 18.511719 11.445312 17.988281 C 10.984375 16.269531 11.011719 12.011719 11.5 10.792969 C 11.722656 10.242188 12.238281 9.804688 12.65625 9.804688 Z M 20.519531 22.734375 C 19.925781 22.734375 19.449219 22.257812 19.449219 21.667969 C 19.449219 21.074219 19.925781 20.597656 20.519531 20.597656 C 21.109375 20.597656 21.585938 21.074219 21.585938 21.667969 C 21.585938 22.257812 21.109375 22.734375 20.519531 22.734375 Z M 24.335938 22.429688 L 24.335938 20.902344 L 23.484375 20.902344 C 23.417969 20.617188 23.308594 20.347656 23.167969 20.097656 L 23.757812 19.507812 L 22.675781 18.425781 L 22.097656 19.003906 C 21.847656 18.855469 21.574219 18.738281 21.28125 18.660156 L 21.28125 17.847656 L 19.753906 17.847656 L 19.753906 18.660156 C 19.464844 18.738281 19.191406 18.855469 18.9375 19.003906 L 18.359375 18.425781 L 17.277344 19.507812 L 17.871094 20.097656 C 17.730469 20.347656 17.621094 20.617188 17.550781 20.902344 L 16.699219 20.902344 L 16.699219 22.429688 L 17.578125 22.429688 C 17.652344 22.703125 17.765625 22.957031 17.910156 23.195312 L 17.277344 23.824219 L 18.359375 24.902344 L 19 24.261719 C 19.234375 24.398438 19.488281 24.5 19.753906 24.570312 L 19.753906 25.480469 L 21.28125 25.480469 L 21.28125 24.570312 C 21.550781 24.5 21.800781 24.398438 22.035156 24.261719 L 22.675781 24.902344 L 23.757812 23.824219 L 23.128906 23.195312 C 23.269531 22.957031 23.382812 22.703125 23.457031 22.429688 L 24.335938 22.429688 "/>
</g>
</svg>
