
<svg xmlns="http://www.w3.org/2000/svg" xmlns:xlink="http://www.w3.org/1999/xlink" width="32px" height="32px" viewBox="0 0 32 32" version="1.1">
<g id="surface1">
<path style=" stroke:none;fill-rule:nonzero;fill:rgb(100%,25.490198%,25.490198%);fill-opacity:1;" d="M 4.523438 1.109375 L 27.488281 1.109375 C 29.140625 1.109375 30.480469 2.449219 30.480469 4.097656 L 30.480469 26.417969 C 30.480469 28.070312 29.140625 29.410156 27.488281 29.410156 L 4.523438 29.410156 C 2.875 29.410156 1.535156 28.070312 1.535156 26.417969 L 1.535156 4.097656 C 1.535156 2.449219 2.875 1.109375 4.523438 1.109375 Z M 4.523438 1.109375 "/>
<path style=" stroke:none;fill-rule:nonzero;fill:rgb(0%,0%,0%);fill-opacity:1;" d="M 5.25 23.589844 L 5.25 21.316406 L 9.789062 21.316406 L 9.789062 25.855469 L 5.25 25.855469 Z M 9.140625 23.589844 L 9.140625 21.964844 L 5.898438 21.964844 L 5.898438 25.207031 L 9.140625 25.207031 Z M 6.546875 23.589844 L 6.546875 22.613281 L 8.492188 22.613281 L 8.492188 24.558594 L 6.546875 24.558594 Z M 10.441406 25.207031 L 10.441406 24.558594 L 11.089844 24.558594 L 11.089844 23.910156 L 11.738281 23.910156 L 11.738281 23.261719 L 10.441406 23.261719 L 10.441406 21.964844 L 12.386719 21.964844 L 12.386719 21.316406 L 13.035156 21.316406 L 13.035156 20.667969 L 12.386719 20.667969 L 12.386719 20.019531 L 13.035156 20.019531 L 13.035156 19.371094 L 13.683594 19.371094 L 13.683594 20.019531 L 15.628906 20.019531 L 15.628906 20.667969 L 16.277344 20.667969 L 16.277344 19.371094 L 14.980469 19.371094 L 14.980469 18.074219 L 14.332031 18.074219 L 14.332031 18.722656 L 13.683594 18.722656 L 13.683594 18.074219 L 13.035156 18.074219 L 13.035156 17.425781 L 11.738281 17.425781 L 11.738281 18.074219 L 11.089844 18.074219 L 11.089844 17.425781 L 10.441406 17.425781 L 10.441406 18.074219 L 9.140625 18.074219 L 9.140625 18.722656 L 9.789062 18.722656 L 9.789062 19.371094 L 9.140625 19.371094 L 9.140625 20.019531 L 9.789062 20.019531 L 9.789062 20.667969 L 8.492188 20.667969 L 8.492188 19.371094 L 7.195312 19.371094 L 7.195312 20.667969 L 5.25 20.667969 L 5.25 20.019531 L 6.546875 20.019531 L 6.546875 19.371094 L 7.195312 19.371094 L 7.195312 18.722656 L 5.25 18.722656 L 5.25 14.832031 L 5.898438 14.832031 L 5.898438 16.128906 L 7.195312 16.128906 L 7.195312 16.777344 L 8.492188 16.777344 L 8.492188 17.425781 L 6.546875 17.425781 L 6.546875 18.074219 L 7.195312 18.074219 L 7.195312 18.722656 L 8.492188 18.722656 L 8.492188 18.074219 L 9.140625 18.074219 L 9.140625 17.425781 L 9.789062 17.425781 L 9.789062 16.777344 L 9.140625 16.777344 L 9.140625 16.128906 L 9.789062 16.128906 L 9.789062 16.777344 L 11.738281 16.777344 L 11.738281 16.128906 L 10.441406 16.128906 L 10.441406 15.480469 L 8.492188 15.480469 L 8.492188 16.128906 L 7.84375 16.128906 L 7.84375 15.480469 L 8.492188 15.480469 L 8.492188 14.832031 L 7.84375 14.832031 L 7.84375 14.183594 L 7.195312 14.183594 L 7.195312 14.832031 L 6.546875 14.832031 L 6.546875 14.183594 L 7.195312 14.183594 L 7.195312 13.535156 L 5.898438 13.535156 L 5.898438 12.886719 L 6.546875 12.886719 L 6.546875 12.238281 L 5.898438 12.238281 L 5.898438 10.9375 L 9.789062 10.9375 L 9.789062 10.289062 L 7.84375 10.289062 L 7.84375 9.640625 L 9.789062 9.640625 L 9.789062 10.289062 L 10.441406 10.289062 L 10.441406 10.9375 L 11.089844 10.9375 L 11.089844 10.289062 L 12.386719 10.289062 L 12.386719 9.640625 L 13.035156 9.640625 L 13.035156 8.34375 L 12.386719 8.34375 L 12.386719 8.992188 L 11.738281 8.992188 L 11.738281 9.640625 L 11.089844 9.640625 L 11.089844 8.992188 L 10.441406 8.992188 L 10.441406 7.695312 L 11.089844 7.695312 L 11.089844 8.992188 L 11.738281 8.992188 L 11.738281 8.34375 L 12.386719 8.34375 L 12.386719 7.695312 L 13.683594 7.695312 L 13.683594 6.398438 L 14.980469 6.398438 L 14.980469 7.046875 L 15.628906 7.046875 L 15.628906 6.398438 L 16.277344 6.398438 L 16.277344 5.75 L 16.925781 5.75 L 16.925781 4.449219 L 17.574219 4.449219 L 17.574219 5.101562 L 18.871094 5.101562 L 18.871094 4.449219 L 19.519531 4.449219 L 19.519531 5.101562 L 20.167969 5.101562 L 20.167969 4.449219 L 20.816406 4.449219 L 20.816406 5.101562 L 20.167969 5.101562 L 20.167969 5.75 L 21.464844 5.75 L 21.464844 6.398438 L 20.816406 6.398438 L 20.816406 7.695312 L 21.464844 7.695312 L 21.464844 9.640625 L 19.519531 9.640625 L 19.519531 10.9375 L 18.871094 10.9375 L 18.871094 9.640625 L 18.222656 9.640625 L 18.222656 10.289062 L 17.574219 10.289062 L 17.574219 11.585938 L 16.925781 11.585938 L 16.925781 12.886719 L 17.574219 12.886719 L 17.574219 14.183594 L 16.925781 14.183594 L 16.925781 15.480469 L 17.574219 15.480469 L 17.574219 14.832031 L 18.222656 14.832031 L 18.222656 13.535156 L 18.871094 13.535156 L 18.871094 14.183594 L 19.519531 14.183594 L 19.519531 12.886719 L 18.222656 12.886719 L 18.222656 11.585938 L 19.519531 11.585938 L 19.519531 12.238281 L 20.816406 12.238281 L 20.816406 11.585938 L 20.167969 11.585938 L 20.167969 10.289062 L 20.816406 10.289062 L 20.816406 11.585938 L 21.464844 11.585938 L 21.464844 10.289062 L 22.113281 10.289062 L 22.113281 10.9375 L 22.761719 10.9375 L 22.761719 9.640625 L 23.410156 9.640625 L 23.410156 10.9375 L 22.761719 10.9375 L 22.761719 12.886719 L 23.410156 12.886719 L 23.410156 12.238281 L 24.058594 12.238281 L 24.058594 10.9375 L 25.359375 10.9375 L 25.359375 11.585938 L 24.710938 11.585938 L 24.710938 12.238281 L 24.058594 12.238281 L 24.058594 12.886719 L 24.710938 12.886719 L 24.710938 13.535156 L 26.007812 13.535156 L 26.007812 14.183594 L 24.710938 14.183594 L 24.710938 14.832031 L 24.058594 14.832031 L 24.058594 15.480469 L 24.710938 15.480469 L 24.710938 16.128906 L 26.007812 16.128906 L 26.007812 16.777344 L 24.710938 16.777344 L 24.710938 16.128906 L 24.058594 16.128906 L 24.058594 16.777344 L 23.410156 16.777344 L 23.410156 16.128906 L 22.761719 16.128906 L 22.761719 18.074219 L 22.113281 18.074219 L 22.113281 18.722656 L 22.761719 18.722656 L 22.761719 20.019531 L 23.410156 20.019531 L 23.410156 18.722656 L 24.058594 18.722656 L 24.058594 18.074219 L 23.410156 18.074219 L 23.410156 17.425781 L 24.058594 17.425781 L 24.058594 18.074219 L 25.359375 18.074219 L 25.359375 18.722656 L 26.007812 18.722656 L 26.007812 19.371094 L 24.710938 19.371094 L 24.710938 18.722656 L 24.058594 18.722656 L 24.058594 20.667969 L 24.710938 20.667969 L 24.710938 21.316406 L 25.359375 21.316406 L 25.359375 20.019531 L 26.007812 20.019531 L 26.007812 21.964844 L 24.058594 21.964844 L 24.058594 23.261719 L 24.710938 23.261719 L 24.710938 23.910156 L 25.359375 23.910156 L 25.359375 22.613281 L 26.65625 22.613281 L 26.65625 23.910156 L 26.007812 23.910156 L 26.007812 24.558594 L 24.710938 24.558594 L 24.710938 23.910156 L 24.058594 23.910156 L 24.058594 25.855469 L 22.761719 25.855469 L 22.761719 25.207031 L 23.410156 25.207031 L 23.410156 23.261719 L 22.761719 23.261719 L 22.761719 24.558594 L 21.464844 24.558594 L 21.464844 25.207031 L 22.113281 25.207031 L 22.113281 25.855469 L 18.871094 25.855469 L 18.871094 24.558594 L 21.464844 24.558594 L 21.464844 23.910156 L 22.113281 23.910156 L 22.113281 23.261719 L 20.816406 23.261719 L 20.816406 23.910156 L 20.167969 23.910156 L 20.167969 23.261719 L 20.816406 23.261719 L 20.816406 22.613281 L 20.167969 22.613281 L 20.167969 21.964844 L 20.816406 21.964844 L 20.816406 20.667969 L 20.167969 20.667969 L 20.167969 21.316406 L 19.519531 21.316406 L 19.519531 20.667969 L 18.871094 20.667969 L 18.871094 19.371094 L 19.519531 19.371094 L 19.519531 20.019531 L 20.816406 20.019531 L 20.816406 19.371094 L 20.167969 19.371094 L 20.167969 18.074219 L 19.519531 18.074219 L 19.519531 18.722656 L 18.222656 18.722656 L 18.222656 17.425781 L 16.925781 17.425781 L 16.925781 18.074219 L 16.277344 18.074219 L 16.277344 18.722656 L 17.574219 18.722656 L 17.574219 19.371094 L 16.925781 19.371094 L 16.925781 20.019531 L 18.222656 20.019531 L 18.222656 20.667969 L 17.574219 20.667969 L 17.574219 22.613281 L 16.277344 22.613281 L 16.277344 21.316406 L 15.628906 21.316406 L 15.628906 21.964844 L 14.980469 21.964844 L 14.980469 20.667969 L 13.683594 20.667969 L 13.683594 21.316406 L 13.035156 21.316406 L 13.035156 22.613281 L 13.683594 22.613281 L 13.683594 21.964844 L 14.332031 21.964844 L 14.332031 22.613281 L 15.628906 22.613281 L 15.628906 23.261719 L 17.574219 23.261719 L 17.574219 23.910156 L 16.925781 23.910156 L 16.925781 24.558594 L 17.574219 24.558594 L 17.574219 25.207031 L 18.222656 25.207031 L 18.222656 25.855469 L 17.574219 25.855469 L 17.574219 25.207031 L 16.925781 25.207031 L 16.925781 25.855469 L 16.277344 25.855469 L 16.277344 25.207031 L 15.628906 25.207031 L 15.628906 24.558594 L 14.980469 24.558594 L 14.980469 25.207031 L 14.332031 25.207031 L 14.332031 24.558594 L 13.683594 24.558594 L 13.683594 25.207031 L 13.035156 25.207031 L 13.035156 24.558594 L 12.386719 24.558594 L 12.386719 25.207031 L 11.738281 25.207031 L 11.738281 24.558594 L 11.089844 24.558594 L 11.089844 25.855469 L 10.441406 25.855469 Z M 16.277344 24.238281 L 16.277344 23.910156 L 15.628906 23.910156 L 15.628906 24.558594 L 16.277344 24.558594 Z M 13.683594 23.589844 L 13.683594 23.261719 L 14.332031 23.261719 L 14.332031 22.613281 L 13.683594 22.613281 L 13.683594 23.261719 L 13.035156 23.261719 L 13.035156 22.613281 L 11.738281 22.613281 L 11.738281 23.261719 L 12.386719 23.261719 L 12.386719 23.910156 L 13.683594 23.910156 Z M 23.410156 21.640625 L 23.410156 20.667969 L 21.464844 20.667969 L 21.464844 22.613281 L 23.410156 22.613281 Z M 22.113281 21.640625 L 22.113281 21.316406 L 22.761719 21.316406 L 22.761719 21.964844 L 22.113281 21.964844 Z M 21.464844 18.398438 L 21.464844 18.074219 L 22.113281 18.074219 L 22.113281 16.777344 L 20.167969 16.777344 L 20.167969 18.074219 L 20.816406 18.074219 L 20.816406 18.722656 L 21.464844 18.722656 Z M 20.816406 17.75 L 20.816406 17.425781 L 21.464844 17.425781 L 21.464844 18.074219 L 20.816406 18.074219 Z M 15.628906 17.425781 L 15.628906 16.777344 L 16.277344 16.777344 L 16.277344 16.128906 L 16.925781 16.128906 L 16.925781 16.777344 L 18.222656 16.777344 L 18.222656 16.128906 L 18.871094 16.128906 L 18.871094 14.832031 L 18.222656 14.832031 L 18.222656 16.128906 L 16.925781 16.128906 L 16.925781 15.480469 L 15.628906 15.480469 L 15.628906 16.777344 L 14.980469 16.777344 L 14.980469 18.074219 L 15.628906 18.074219 Z M 6.546875 17.101562 L 6.546875 16.777344 L 5.898438 16.777344 L 5.898438 17.425781 L 6.546875 17.425781 Z M 14.332031 16.777344 L 14.332031 16.128906 L 14.980469 16.128906 L 14.980469 15.480469 L 14.332031 15.480469 L 14.332031 14.832031 L 16.277344 14.832031 L 16.277344 13.535156 L 15.628906 13.535156 L 15.628906 14.183594 L 14.332031 14.183594 L 14.332031 13.535156 L 14.980469 13.535156 L 14.980469 12.886719 L 16.277344 12.886719 L 16.277344 12.238281 L 15.628906 12.238281 L 15.628906 11.585938 L 16.925781 11.585938 L 16.925781 10.289062 L 17.574219 10.289062 L 17.574219 9.640625 L 18.222656 9.640625 L 18.222656 8.34375 L 17.574219 8.34375 L 17.574219 7.695312 L 18.871094 7.695312 L 18.871094 8.992188 L 19.519531 8.992188 L 19.519531 7.046875 L 20.167969 7.046875 L 20.167969 6.398438 L 18.871094 6.398438 L 18.871094 5.75 L 18.222656 5.75 L 18.222656 6.398438 L 16.277344 6.398438 L 16.277344 7.046875 L 17.574219 7.046875 L 17.574219 7.695312 L 16.277344 7.695312 L 16.277344 8.992188 L 15.628906 8.992188 L 15.628906 7.695312 L 14.332031 7.695312 L 14.332031 8.34375 L 13.683594 8.34375 L 13.683594 9.640625 L 13.035156 9.640625 L 13.035156 10.289062 L 12.386719 10.289062 L 12.386719 10.9375 L 11.089844 10.9375 L 11.089844 11.585938 L 9.140625 11.585938 L 9.140625 12.238281 L 8.492188 12.238281 L 8.492188 11.585938 L 7.195312 11.585938 L 7.195312 12.238281 L 7.84375 12.238281 L 7.84375 12.886719 L 7.195312 12.886719 L 7.195312 13.535156 L 7.84375 13.535156 L 7.84375 14.183594 L 8.492188 14.183594 L 8.492188 13.535156 L 7.84375 13.535156 L 7.84375 12.886719 L 9.140625 12.886719 L 9.140625 13.535156 L 9.789062 13.535156 L 9.789062 14.183594 L 9.140625 14.183594 L 9.140625 14.832031 L 9.789062 14.832031 L 9.789062 14.183594 L 10.441406 14.183594 L 10.441406 15.480469 L 11.089844 15.480469 L 11.089844 14.832031 L 13.035156 14.832031 L 13.035156 15.480469 L 11.738281 15.480469 L 11.738281 16.128906 L 13.035156 16.128906 L 13.035156 15.480469 L 13.683594 15.480469 L 13.683594 16.777344 L 13.035156 16.777344 L 13.035156 17.425781 L 14.332031 17.425781 Z M 13.035156 14.503906 L 13.035156 14.183594 L 13.683594 14.183594 L 13.683594 14.832031 L 13.035156 14.832031 Z M 11.089844 13.855469 L 11.089844 13.535156 L 10.441406 13.535156 L 10.441406 12.238281 L 11.089844 12.238281 L 11.089844 13.535156 L 12.386719 13.535156 L 12.386719 14.183594 L 11.089844 14.183594 Z M 13.683594 13.207031 L 13.683594 12.886719 L 13.035156 12.886719 L 13.035156 12.238281 L 12.386719 12.238281 L 12.386719 12.886719 L 11.738281 12.886719 L 11.738281 11.585938 L 12.386719 11.585938 L 12.386719 10.9375 L 13.035156 10.9375 L 13.035156 10.289062 L 13.683594 10.289062 L 13.683594 10.9375 L 14.332031 10.9375 L 14.332031 10.289062 L 14.980469 10.289062 L 14.980469 9.640625 L 14.332031 9.640625 L 14.332031 8.34375 L 14.980469 8.34375 L 14.980469 9.640625 L 15.628906 9.640625 L 15.628906 10.289062 L 16.277344 10.289062 L 16.277344 10.9375 L 15.628906 10.9375 L 15.628906 11.585938 L 13.035156 11.585938 L 13.035156 12.238281 L 13.683594 12.238281 L 13.683594 12.886719 L 14.332031 12.886719 L 14.332031 13.535156 L 13.683594 13.535156 Z M 9.140625 12.558594 L 9.140625 12.238281 L 9.789062 12.238281 L 9.789062 12.886719 L 9.140625 12.886719 Z M 16.277344 9.316406 L 16.277344 8.992188 L 16.925781 8.992188 L 16.925781 8.34375 L 17.574219 8.34375 L 17.574219 9.640625 L 16.277344 9.640625 Z M 18.222656 6.722656 L 18.222656 6.398438 L 18.871094 6.398438 L 18.871094 7.046875 L 18.222656 7.046875 Z M 20.167969 15.804688 L 20.167969 15.480469 L 19.519531 15.480469 L 19.519531 16.128906 L 20.167969 16.128906 Z M 21.464844 15.804688 L 21.464844 15.480469 L 20.816406 15.480469 L 20.816406 16.128906 L 21.464844 16.128906 Z M 22.761719 15.804688 L 22.761719 15.480469 L 23.410156 15.480469 L 23.410156 16.128906 L 24.058594 16.128906 L 24.058594 15.480469 L 23.410156 15.480469 L 23.410156 14.832031 L 24.058594 14.832031 L 24.058594 14.183594 L 24.710938 14.183594 L 24.710938 13.535156 L 24.058594 13.535156 L 24.058594 12.886719 L 23.410156 12.886719 L 23.410156 13.535156 L 24.058594 13.535156 L 24.058594 14.183594 L 22.761719 14.183594 L 22.761719 15.480469 L 22.113281 15.480469 L 22.113281 16.128906 L 22.761719 16.128906 Z M 20.816406 14.503906 L 20.816406 14.183594 L 19.519531 14.183594 L 19.519531 14.832031 L 20.816406 14.832031 Z M 22.113281 13.855469 L 22.113281 13.535156 L 22.761719 13.535156 L 22.761719 12.886719 L 22.113281 12.886719 L 22.113281 12.238281 L 21.464844 12.238281 L 21.464844 12.886719 L 20.816406 12.886719 L 20.816406 13.535156 L 21.464844 13.535156 L 21.464844 14.183594 L 22.113281 14.183594 Z M 21.464844 13.207031 L 21.464844 12.886719 L 22.113281 12.886719 L 22.113281 13.535156 L 21.464844 13.535156 Z M 20.816406 8.34375 L 20.816406 7.695312 L 20.167969 7.695312 L 20.167969 8.992188 L 20.816406 8.992188 Z M 26.007812 25.535156 L 26.007812 25.207031 L 26.65625 25.207031 L 26.65625 25.855469 L 26.007812 25.855469 Z M 18.871094 23.589844 L 18.871094 23.261719 L 18.222656 23.261719 L 18.222656 22.613281 L 18.871094 22.613281 L 18.871094 21.964844 L 19.519531 21.964844 L 19.519531 23.910156 L 18.871094 23.910156 Z M 10.441406 20.992188 L 10.441406 20.667969 L 11.738281 20.667969 L 11.738281 21.316406 L 10.441406 21.316406 Z M 11.089844 19.695312 L 11.089844 19.371094 L 10.441406 19.371094 L 10.441406 18.722656 L 11.089844 18.722656 L 11.089844 19.371094 L 11.738281 19.371094 L 11.738281 18.722656 L 12.386719 18.722656 L 12.386719 19.371094 L 11.738281 19.371094 L 11.738281 20.019531 L 11.089844 20.019531 Z M 26.007812 17.75 L 26.007812 17.425781 L 26.65625 17.425781 L 26.65625 18.074219 L 26.007812 18.074219 Z M 26.007812 15.152344 L 26.007812 14.832031 L 26.65625 14.832031 L 26.65625 15.480469 L 26.007812 15.480469 Z M 25.359375 12.558594 L 25.359375 12.238281 L 26.65625 12.238281 L 26.65625 12.886719 L 25.359375 12.886719 Z M 5.25 9.964844 L 5.25 9.640625 L 6.546875 9.640625 L 6.546875 10.289062 L 5.25 10.289062 Z M 24.058594 9.964844 L 24.058594 9.640625 L 26.65625 9.640625 L 26.65625 10.289062 L 24.058594 10.289062 Z M 5.25 6.722656 L 5.25 4.449219 L 9.789062 4.449219 L 9.789062 8.992188 L 5.25 8.992188 Z M 9.140625 6.722656 L 9.140625 5.101562 L 5.898438 5.101562 L 5.898438 8.34375 L 9.140625 8.34375 Z M 6.546875 6.722656 L 6.546875 5.75 L 8.492188 5.75 L 8.492188 7.695312 L 6.546875 7.695312 Z M 22.113281 6.722656 L 22.113281 4.449219 L 26.65625 4.449219 L 26.65625 8.992188 L 22.113281 8.992188 Z M 26.007812 6.722656 L 26.007812 5.101562 L 22.761719 5.101562 L 22.761719 8.34375 L 26.007812 8.34375 Z M 23.410156 6.722656 L 23.410156 5.75 L 25.359375 5.75 L 25.359375 7.695312 L 23.410156 7.695312 Z M 10.441406 5.75 L 10.441406 4.449219 L 12.386719 4.449219 L 12.386719 5.75 L 13.035156 5.75 L 13.035156 7.046875 L 12.386719 7.046875 L 12.386719 6.398438 L 11.738281 6.398438 L 11.738281 7.046875 L 10.441406 7.046875 Z M 11.738281 6.074219 L 11.738281 5.75 L 11.089844 5.75 L 11.089844 6.398438 L 11.738281 6.398438 Z M 13.683594 5.425781 L 13.683594 5.101562 L 13.035156 5.101562 L 13.035156 4.449219 L 14.332031 4.449219 L 14.332031 5.75 L 13.683594 5.75 Z M 14.980469 4.777344 L 14.980469 4.449219 L 16.277344 4.449219 L 16.277344 5.101562 L 14.980469 5.101562 Z M 14.980469 4.777344 "/>
</g>
</svg>
