
<svg xmlns="http://www.w3.org/2000/svg" xmlns:xlink="http://www.w3.org/1999/xlink" width="32px" height="32px" viewBox="0 0 32 32" version="1.1">
<g id="surface1">
<path style="fill-rule:nonzero;fill:rgb(100%,100%,100%);fill-opacity:1;stroke-width:2.627763;stroke-linecap:butt;stroke-linejoin:miter;stroke:rgb(16.862746%,65.882355%,92.156863%);stroke-opacity:1;stroke-miterlimit:4;" d="M 7.734375 1006.840698 L 40.265625 1006.840698 C 43.166016 1006.840698 45.521484 1009.196167 45.521484 1012.096558 L 45.521484 1044.627808 C 45.521484 1047.528198 43.166016 1049.883667 40.265625 1049.883667 L 7.734375 1049.883667 C 4.833984 1049.883667 2.478516 1047.528198 2.478516 1044.627808 L 2.478516 1012.096558 C 2.478516 1009.196167 4.833984 1006.840698 7.734375 1006.840698 Z M 7.734375 1006.840698 " transform="matrix(0.666667,0,0,0.666667,0,-669.574788)"/>
<path style=" stroke:none;fill-rule:nonzero;fill:rgb(0%,66.666669%,83.137256%);fill-opacity:1;" d="M 4.878906 12.578125 L 10.074219 12.578125 L 10.074219 7.382812 L 4.878906 7.382812 Z M 4.878906 12.578125 "/>
<path style=" stroke:none;fill-rule:nonzero;fill:rgb(100%,33.333334%,33.333334%);fill-opacity:1;" d="M 17.253906 22.375 L 22.449219 22.375 L 22.449219 27.574219 L 17.253906 27.574219 Z M 17.253906 22.375 "/>
<path style=" stroke:none;fill-rule:nonzero;fill:rgb(0%,66.666669%,83.137256%);fill-opacity:1;" d="M 10.347656 12.578125 L 15.542969 12.578125 L 15.542969 7.382812 L 10.347656 7.382812 Z M 10.347656 12.578125 "/>
<path style=" stroke:none;fill-rule:nonzero;fill:rgb(0%,66.666669%,83.137256%);fill-opacity:1;" d="M 15.820312 12.578125 L 21.015625 12.578125 L 21.015625 7.382812 L 15.820312 7.382812 Z M 15.820312 12.578125 "/>
<path style=" stroke:none;fill-rule:nonzero;fill:rgb(0%,66.666669%,83.137256%);fill-opacity:1;" d="M 21.289062 12.578125 L 26.488281 12.578125 L 26.488281 7.382812 L 21.289062 7.382812 Z M 21.289062 12.578125 "/>
<path style=" stroke:none;fill-rule:nonzero;fill:rgb(0%,66.666669%,83.137256%);fill-opacity:1;" d="M 21.289062 17.949219 L 26.488281 17.949219 L 26.488281 12.753906 L 21.289062 12.753906 Z M 21.289062 17.949219 "/>
<path style=" stroke:none;fill-rule:nonzero;fill:rgb(100%,33.333334%,33.333334%);fill-opacity:1;" d="M 11.789062 22.375 L 16.988281 22.375 L 16.988281 27.574219 L 11.789062 27.574219 Z M 11.789062 22.375 "/>
<path style=" stroke:none;fill-rule:nonzero;fill:rgb(100%,33.333334%,33.333334%);fill-opacity:1;" d="M 6.230469 22.375 L 11.425781 22.375 L 11.425781 27.574219 L 6.230469 27.574219 Z M 6.230469 22.375 "/>
<path style=" stroke:none;fill-rule:nonzero;fill:rgb(100%,33.333334%,33.333334%);fill-opacity:1;" d="M 11.789062 16.910156 L 16.988281 16.910156 L 16.988281 22.105469 L 11.789062 22.105469 Z M 11.789062 16.910156 "/>
</g>
</svg>
