
<svg xmlns="http://www.w3.org/2000/svg" xmlns:xlink="http://www.w3.org/1999/xlink" width="32px" height="32px" viewBox="0 0 32 32" version="1.1">
<g id="surface1">
<path style="fill-rule:nonzero;fill:rgb(82.352942%,85.882354%,90.980393%);fill-opacity:1;stroke-width:7.086947;stroke-linecap:butt;stroke-linejoin:miter;stroke:rgb(19.215687%,21.176471%,27.843139%);stroke-opacity:1;stroke-miterlimit:4;" d="M 471.821411 1058.551921 L 559.571411 1058.551921 C 567.399536 1058.551921 573.743286 1064.895671 573.743286 1072.723796 L 573.743286 1160.473796 C 573.743286 1168.301921 567.399536 1174.645671 559.571411 1174.645671 L 471.821411 1174.645671 C 463.993286 1174.645671 457.649536 1168.301921 457.649536 1160.473796 L 457.649536 1072.723796 C 457.649536 1064.895671 463.993286 1058.551921 471.821411 1058.551921 Z M 471.821411 1058.551921 " transform="matrix(0.25,0,0,0.25,-112.924103,-263.149699)"/>
<path style=" stroke:none;fill-rule:nonzero;fill:rgb(16.078432%,50.196081%,72.549021%);fill-opacity:1;" d="M 16.175781 4.632812 C 13.066406 4.632812 10.347656 6.074219 8.839844 8.238281 C 8.710938 8.417969 8.597656 8.605469 8.488281 8.792969 L 6.273438 12.847656 C 6.128906 13.109375 6 13.375 5.886719 13.648438 C 5.4375 14.691406 5.195312 15.820312 5.195312 17 C 5.195312 22.300781 10.113281 26.601562 16.175781 26.601562 C 22.234375 26.601562 27.152344 22.300781 27.152344 17 C 27.152344 15.542969 26.78125 14.167969 26.121094 12.933594 L 23.941406 8.9375 C 22.566406 6.394531 19.605469 4.632812 16.175781 4.632812 Z M 16.160156 10.410156 C 18.746094 10.410156 21.042969 11.457031 22.550781 13.089844 C 22.273438 15.964844 19.519531 18.222656 16.160156 18.222656 C 12.804688 18.222656 10.050781 15.964844 9.773438 13.089844 C 11.277344 11.457031 13.582031 10.410156 16.160156 10.410156 Z M 16.160156 10.410156 "/>
<path style=" stroke:none;fill-rule:evenodd;fill:rgb(20.392157%,59.607846%,85.882354%);fill-opacity:1;" d="M 6.574219 12.34375 C 11.050781 5.167969 22.472656 6.085938 25.847656 12.464844 C 21.570312 6.433594 11.957031 5.363281 6.574219 12.34375 Z M 6.574219 12.34375 "/>
<path style=" stroke:none;fill-rule:evenodd;fill:rgb(20.392157%,59.607846%,85.882354%);fill-opacity:1;" d="M 22.714844 13.316406 C 26.066406 16.941406 23.675781 24.5 16.25 24.5 C 8.863281 24.5 6.164062 16.957031 9.765625 13.105469 C 5.582031 17.472656 8.402344 25.042969 16.25 25.042969 C 24.121094 25.042969 26.585938 17.503906 22.714844 13.316406 Z M 22.714844 13.316406 "/>
<path style=" stroke:none;fill-rule:nonzero;fill:rgb(20.392157%,28.627452%,36.862746%);fill-opacity:1;" d="M 23.257812 18.332031 C 23.257812 21.007812 21.089844 23.175781 18.414062 23.175781 C 15.738281 23.175781 13.570312 21.007812 13.570312 18.332031 C 13.570312 15.65625 15.738281 13.488281 18.414062 13.488281 C 21.089844 13.488281 23.257812 15.65625 23.257812 18.332031 Z M 23.257812 18.332031 "/>
</g>
</svg>
