
<svg xmlns="http://www.w3.org/2000/svg" xmlns:xlink="http://www.w3.org/1999/xlink" width="32px" height="32px" viewBox="0 0 32 32" version="1.1">
<g id="surface1">
<path style="fill-rule:nonzero;fill:rgb(81.960785%,85.09804%,90.196079%);fill-opacity:1;stroke-width:27.954165;stroke-linecap:butt;stroke-linejoin:miter;stroke:rgb(0%,25.882354%,32.941177%);stroke-opacity:1;stroke-miterlimit:4;" d="M 82.9375 27.0625 L 429.0625 27.0625 C 459.9375 27.0625 484.9375 52.0625 484.9375 82.9375 L 484.9375 429.0625 C 484.9375 459.9375 459.9375 484.9375 429.0625 484.9375 L 82.9375 484.9375 C 52.0625 484.9375 27.0625 459.9375 27.0625 429.0625 L 27.0625 82.9375 C 27.0625 52.0625 52.0625 27.0625 82.9375 27.0625 Z M 82.9375 27.0625 " transform="matrix(0.0625,0,0,0.0625,0,0)"/>
<path style="fill-rule:nonzero;fill:rgb(74.901962%,86.274511%,69.01961%);fill-opacity:1;stroke-width:3.441855;stroke-linecap:butt;stroke-linejoin:miter;stroke:rgb(0%,25.882354%,32.941177%);stroke-opacity:1;stroke-miterlimit:4;" d="M 435.6875 263.5625 C 435.6875 364.625 353.75 446.5 252.75 446.5 C 151.6875 446.5 69.8125 364.625 69.8125 263.5625 C 69.8125 162.5625 151.6875 80.6875 252.75 80.6875 C 353.75 80.6875 435.6875 162.5625 435.6875 263.5625 Z M 435.6875 263.5625 " transform="matrix(0.0625,0,0,0.0625,0,0)"/>
<path style="fill-rule:nonzero;fill:rgb(0%,25.882354%,32.941177%);fill-opacity:1;stroke-width:3.441855;stroke-linecap:butt;stroke-linejoin:miter;stroke:rgb(100%,100%,100%);stroke-opacity:1;stroke-miterlimit:4;" d="M 252.75 80.6875 C 237.375 80.6875 222.4375 82.5625 208.1875 86.125 L 198.8125 90.6875 L 190.5 92.875 L 185.125 98.5 L 178.9375 104.4375 L 172.4375 103.375 L 171.8125 99.5625 C 163.9375 103.4375 156.4375 107.8125 149.3125 112.6875 L 149.3125 119 L 156.5625 117.9375 L 154.9375 125 L 157.625 132 C 157.625 132 156.9375 134.6875 155.3125 135.4375 C 153.6875 136.3125 148.6875 131.4375 148.6875 131.4375 L 148.125 125 L 142.8125 123.9375 L 136.5625 127.6875 C 136.5625 127.6875 134.0625 130.375 135.6875 133.0625 C 137.3125 135.8125 138.4375 138.75 136.75 139.5 C 135.1875 140.4375 127.0625 141.6875 127.0625 141.6875 L 121.75 147.625 L 113.6875 151.9375 L 111.3125 156.75 L 106.1875 163.0625 L 101.875 168.1875 C 101.875 168.1875 96.4375 171.9375 97 173.5625 C 97.6875 175.1875 97.9375 181.375 97.9375 181.375 L 97.3125 185.1875 L 93.3125 181.6875 L 93.8125 176.3125 L 92.75 174.875 C 89.25 181.1875 86.0625 187.8125 83.3125 194.5625 L 85.9375 197.5 L 81.4375 202.375 L 81.4375 206.1875 L 87.3125 211.5 L 88.1875 215.0625 L 90.3125 222.8125 L 97.0625 221.1875 L 97.4375 225.8125 L 97.9375 221.5625 L 104.9375 217.8125 L 105.0625 217.3125 L 112.5625 217.3125 L 116.3125 219.25 L 128 221.6875 L 131.0625 227.25 L 135.5625 231.75 C 135.5625 231.75 140.3125 231.5 141.0625 231.5 C 141.8125 231.5 145.9375 238.5 145.9375 238.5 L 148.3125 244.125 L 159.9375 250.75 L 167.3125 250.1875 L 171.3125 255.0625 L 176.1875 258.125 L 175.3125 264.0625 L 168.875 272.8125 C 168.875 272.8125 167.9375 284.8125 167.9375 285.9375 C 167.9375 287.0625 165.3125 295.0625 165.3125 295.0625 L 156.9375 299.125 L 152.875 308.625 L 147.25 322.375 L 140.8125 323.3125 L 139.1875 327.5625 L 143.1875 329.4375 L 142.125 334.625 L 135.4375 336.25 L 131.0625 341.8125 L 132.75 345.9375 C 132.75 345.9375 134.125 349.1875 133.5625 350.0625 C 133.0625 350.8125 129.25 353.25 129.25 353.25 L 134.875 356.25 L 132.6875 362.5 L 134.875 368.4375 L 139.1875 373.625 L 128.625 369.0625 L 121.125 357.25 C 121.125 357.25 117.3125 350.3125 117.875 349.5625 C 118.4375 348.8125 115.9375 339.3125 115.9375 339.3125 L 111.9375 323 L 111.0625 293.75 L 110.5 287.3125 L 99.1875 276 L 94.8125 263.9375 L 90.75 254 L 90.5625 244.3125 L 95.4375 237.875 L 97.0625 229.25 L 97.3125 227.1875 L 94.1875 224.75 L 89.875 227.9375 L 82.3125 220.75 L 81.0625 214.4375 L 77.125 212.3125 C 72.375 228.5625 69.8125 245.8125 69.8125 263.5625 C 69.8125 323.6875 98.8125 377 143.5625 410.375 L 148.6875 407.8125 L 144.4375 402.4375 L 151.9375 398.9375 L 155.9375 393 C 155.875 392.9375 155.75 392.8125 155.75 392.8125 L 156.0625 392.75 L 155.9375 393 C 156.5 393.5 160.0625 396.6875 160.0625 398.125 C 160.0625 399.6875 165.6875 411.0625 165.6875 411.0625 L 165.4375 411.625 L 172.125 414.875 L 191.1875 412.9375 L 218.9375 414.875 L 221.3125 414.5625 L 230.9375 406.3125 L 267.5625 404.625 L 288.75 405.4375 C 288.75 405.4375 292.3125 400.5625 295.0625 400.5625 C 297.6875 400.5625 308.125 399.75 308.125 399.75 L 315.9375 394.4375 L 323.6875 400.875 L 336.0625 400.0625 C 336.0625 400.0625 329.1875 408.5625 330.6875 408.9375 C 332.25 409.25 344.9375 402.4375 344.9375 402.4375 L 371.3125 397.0625 L 378.0625 396.8125 C 413.5 363.5 435.6875 316.125 435.6875 263.5625 L 431.0625 258.4375 L 413.875 232.625 L 417.6875 232.0625 L 417.5625 232.25 L 427.0625 243.25 L 433 248.125 L 435.5625 257.5 C 435.1875 245.25 433.5625 233.3125 430.875 221.8125 L 428.5625 219.3125 L 425.9375 215.25 L 425.3125 212.5625 L 422.375 210.6875 L 421.5625 213.375 L 419.1875 212.8125 L 418.3125 209.625 L 418.625 205.0625 L 418.0625 202.0625 L 415.3125 201.5 L 415.625 204.75 L 412.625 206.0625 L 411.8125 203.6875 L 411.8125 201.5 L 407.5625 195.9375 L 406.25 192.4375 L 405.6875 189.5 L 404.3125 189.5 L 401.0625 191.375 L 398.4375 193 L 396 196.0625 C 396 196.0625 391 201.5 390.625 201.625 C 390.25 201.8125 387.875 204.8125 387.875 204.8125 L 385.6875 207.5625 L 385.9375 213.5 L 384.9375 220.125 L 384.125 222.8125 L 381.4375 224.4375 L 379.5 222.125 L 377.125 216.4375 L 375.5 210.5625 L 372.4375 203.5625 L 371.1875 196.25 L 370.3125 192.25 L 369.5 194.9375 L 367.0625 194.9375 L 366.125 192.5625 L 362.625 187.6875 L 357.75 183.4375 L 358 183.0625 L 342.6875 183.4375 L 340.5625 180.9375 L 337.125 181.8125 L 331.9375 178.8125 L 328.9375 174.1875 L 326.5625 169.6875 L 326.5625 176.6875 L 330.3125 180.1875 L 332.625 183.6875 L 333.6875 186.375 L 337.1875 188 L 338.5625 185.8125 L 340.6875 184.4375 L 343.9375 188.25 L 346.25 190.9375 L 346.0625 195.25 L 343.0625 200.375 L 337.875 203.3125 L 334.125 207.9375 L 328.9375 209.25 L 324.4375 213.5625 L 319.3125 208.4375 L 315.5 202.1875 L 312.0625 195.6875 L 308.8125 189.8125 L 304.5 181.6875 L 302.3125 177.125 L 298.5625 177.6875 L 299.3125 181.75 L 302.875 187.9375 L 305.5625 193.0625 L 307.9375 197.125 L 309.3125 204.125 L 314.9375 208.4375 L 317.375 213.3125 L 320.3125 218.125 L 325.1875 219.4375 L 327.5625 217.0625 L 332.6875 217.0625 L 332.1875 223 L 329.9375 227.0625 L 328.625 231.5625 L 325.125 235.0625 L 316 246.375 L 310.8125 254.5 L 311.9375 264.1875 L 313.5625 271.1875 L 313.5625 278.6875 L 306.5625 285.375 L 303.5625 291.875 L 303.3125 298.3125 L 297.6875 303.9375 L 297.125 309.0625 L 288.8125 322 L 284.25 322 L 276.6875 322.75 L 273.75 325.6875 L 272.9375 319.8125 L 272.375 314.6875 L 267.5625 308.25 L 267.3125 304.1875 L 264.9375 294.75 L 263.25 293.125 L 261.375 283.1875 L 261.625 277.8125 L 264.0625 272.1875 L 263.8125 265.5 L 262.1875 255.25 L 258.625 251.1875 L 256 246.375 L 257 243.4375 L 258.0625 239.5625 L 258.0625 235.0625 L 255.125 232.9375 L 250.5625 232.6875 L 249.1875 229.9375 L 244.9375 229.4375 L 241.4375 231.0625 L 227.9375 231.0625 L 227.1875 234.25 L 223.4375 233.4375 L 219.6875 230.25 L 213.1875 222.4375 L 211.3125 217.0625 L 208.0625 211.5 L 208.625 206.3125 L 210.25 202 L 210.5 188 L 215.875 180.75 L 223.4375 174.8125 L 226.375 166.4375 L 231.25 162.125 L 238.5 161.9375 L 242.25 158.4375 L 254.0625 159 L 254.375 156.3125 L 259.1875 156.0625 L 259.1875 164.1875 L 266.75 168.625 L 274.3125 172.9375 L 277.25 168.875 L 279.9375 166.4375 L 282.0625 169.1875 L 293.9375 171.3125 L 295.5625 167.3125 L 299.0625 167.875 L 302 168.1875 L 303.0625 161.4375 L 302.8125 158 L 299.5625 157.4375 L 297.1875 159.3125 L 295.8125 157 L 290.5 158.875 L 287.5625 155.375 L 285.9375 151.3125 L 289.625 150.5625 L 290.6875 148.9375 L 295.8125 146.1875 L 301.1875 146.1875 L 307.4375 147.4375 L 311.6875 146.4375 L 309.8125 142.625 L 306.5625 141.0625 L 302.8125 137.8125 L 304.6875 134.5625 L 299.0625 134.5625 L 300.4375 137.5625 L 298.25 139.4375 L 296.375 138.0625 L 295.5625 135.375 L 290.6875 134.5625 L 289.375 140.5 L 287.1875 144.5625 L 287.4375 148.8125 L 286.1875 148.3125 L 282.375 146.9375 L 280.75 148.8125 L 279.9375 151.8125 L 281.3125 156.6875 L 278.875 157.4375 L 275.6875 154.25 L 274.0625 153.1875 L 274.0625 147.25 L 270.8125 143.4375 L 264.3125 137 L 261.375 137.25 L 260.5625 138.875 L 269.75 147.5 L 270.8125 149.6875 L 269.1875 149.6875 L 269.9375 152.9375 L 267.3125 154.25 L 266.1875 150.4375 L 256.8125 139.4375 L 254.9375 141.0625 L 246.5625 142.4375 L 242 148.0625 L 236.875 157.1875 L 231.6875 159.0625 L 225.25 155.5625 L 225.25 150.4375 L 226.875 144.25 L 230.6875 140.5 L 231.75 142.9375 L 237.375 141.8125 L 238.1875 141.8125 L 239.8125 139.6875 C 239.8125 139.6875 239.3125 137.8125 239 137.8125 C 238.75 137.8125 237.6875 135.875 237.6875 135.875 L 236.0625 133.1875 L 233.6875 131.5625 L 235 129.6875 L 237.1875 129.375 C 237.1875 129.375 238.75 129 239.3125 128.8125 C 239.875 128.625 242 128 242 128 L 244.9375 127.25 L 247.1875 125.0625 L 248.5 123.4375 C 248.5 123.4375 249.5625 121.75 249.5625 121.0625 C 249.5625 120.3125 247.8125 119.5 247.6875 118.625 C 247.4375 117.75 249 118.0625 249 118.0625 L 252.75 119.9375 C 252.75 119.9375 255.1875 119.25 255.4375 118.9375 C 255.6875 118.5625 256.1875 117 256.1875 117 C 256.1875 117 255.0625 115.0625 255.1875 114.5625 C 255.1875 114.1875 256.75 112.1875 256.75 112.1875 L 259.1875 114.0625 L 257.8125 116.25 L 257.5625 118.1875 L 259.4375 118.1875 C 259.6875 118.1875 262.9375 118.375 264.5625 118.1875 C 266.1875 118.0625 266.6875 117.5625 267.25 117.1875 C 267.9375 116.6875 269.1875 116.5625 269.1875 116.5625 L 271.3125 117.4375 L 271.5625 117.4375 L 274.8125 115 L 275.375 114.5625 C 275.4375 114.125 275.5625 113.8125 275.5 113.5625 C 275.3125 113.0625 275.5 110.9375 275.5 110.9375 C 275.5 110.9375 277.375 108.4375 278.1875 108.1875 C 279.0625 107.875 281.9375 108.6875 282.5 108.4375 C 283.0625 108.1875 284.6875 106.5625 284.6875 106.5625 L 285.1875 104.6875 L 282.8125 103.3125 L 280.125 103.875 L 277.1875 104.0625 L 275.5625 102.8125 L 275.5625 99.75 L 276.0625 97.5625 L 278 95.4375 L 278 94.375 L 275.8125 92.75 L 273.9375 94.0625 L 272.625 95.6875 L 270.6875 98.0625 C 270.6875 98.0625 269.0625 99.4375 269.0625 99.6875 C 269.0625 100.0625 268.0625 100.5625 268.0625 100.5625 L 267.5 103.3125 L 268.8125 103.875 C 268.8125 103.875 270.3125 105.5625 270.4375 105.75 C 270.5 105.9375 269.875 107.0625 269.875 107.0625 L 267.5 108.6875 C 267.5 108.6875 267.4375 111.9375 267.25 112.25 C 267.1875 112.4375 264.0625 114.375 264.0625 114.375 L 263.1875 112.25 L 261.3125 109.5625 L 259.6875 106.3125 C 259.6875 106.3125 258.625 106.5625 257.5 106.875 C 256.4375 107.1875 256.1875 108.1875 256.1875 108.1875 C 256.1875 108.1875 254.1875 109.3125 254 109.3125 C 253.8125 109.3125 252.6875 107.9375 252.6875 107.9375 L 251.625 104.9375 L 252.4375 102 L 254.5625 101.75 L 260.25 95.5625 L 264.0625 91.75 L 272.4375 85.0625 L 280.5 83.4375 L 288.0625 84.8125 L 295.5625 87.4375 L 300.9375 90.1875 L 298.1875 91.25 L 292.25 90.9375 L 291.6875 93.1875 L 293.0625 95.3125 L 295.75 97.1875 L 305.0625 92.25 L 305.625 91.8125 L 305.9375 91.75 L 306.25 91.625 L 306.0625 91.75 L 312.5625 90.6875 C 312.4375 90.6875 312.375 90.625 312.25 90.5625 L 306.0625 91.6875 L 306.25 91.4375 C 306.4375 91.4375 308.5625 90.625 310.4375 89.9375 C 292.3125 83.9375 272.875 80.6875 252.75 80.6875 Z M 212.875 92.4375 L 212.875 92.5 L 222.75 92.5 L 224.6875 94.9375 L 221.6875 97.875 L 217.1875 98.9375 C 217.1875 98.9375 215.6875 98.9375 211.8125 96 Z M 236.75 107.8125 L 238 111.3125 L 241.0625 114.5625 L 241.875 120.0625 L 244.1875 123.3125 L 239.9375 125.3125 L 235.0625 126.0625 L 233.8125 124.75 L 235.75 121.5625 L 237.9375 119.3125 L 237.375 116.9375 L 233.3125 115.0625 C 233.3125 115.0625 234.0625 112.3125 234.5625 109.6875 Z M 229.9375 117.9375 L 232.0625 120.875 L 230.8125 123.3125 L 227.5625 121.9375 Z M 324.5625 134.0625 C 324.375 134.0625 324.1875 134.0625 324.0625 134.125 L 324 134.4375 C 322.8125 134.8125 319.125 137.8125 319.125 137.8125 L 318.0625 142.3125 C 318.0625 142.3125 318.9375 144.125 320.1875 144.6875 C 321.375 145.3125 324 148.75 324 148.75 L 325.875 154.375 L 330.4375 157.375 L 333.9375 155.6875 L 330.6875 150.5625 L 328.3125 146.5 L 325.9375 140.0625 L 325.125 137.3125 L 327.3125 135.375 C 327.3125 135.375 325.75 134.0625 324.5625 134.0625 Z M 256.0625 144.625 L 257.5625 148.5625 L 257.3125 151.3125 L 255.1875 153.25 L 252.8125 150.9375 Z M 245.1875 151 L 246.4375 152.4375 L 245.1875 152.6875 Z M 263.6875 155.1875 L 267.125 158.3125 L 264.6875 160.1875 L 262 155.6875 Z M 90.4375 191.125 L 97.4375 191.125 L 103.375 195.4375 L 103.9375 197.75 L 100.4375 199.9375 L 97.4375 195.8125 L 92.25 194.8125 L 87.75 192.4375 L 90.5 191.1875 Z M 418.5625 221.5625 L 429.4375 233.875 L 431.6875 241.25 C 431.6875 241.25 427.125 240.6875 426.375 240.6875 C 425.625 240.6875 419.5625 222.6875 418.5625 221.5625 Z M 387.6875 222.0625 L 388.6875 223.4375 L 389.25 227.5625 L 386.3125 230.75 L 384.9375 225.5625 Z M 327.25 274.125 L 329.6875 274.3125 L 330.4375 278.0625 L 330.4375 282.9375 L 329.5 285.3125 L 326.125 290.4375 L 326.6875 294.75 L 324.5 298.25 L 321 303.625 L 318.0625 302.8125 L 316.6875 297.625 L 316.6875 292.75 L 320.1875 289.75 L 318.875 288.4375 L 316.6875 285.4375 L 319.6875 283.0625 L 323.8125 281.125 C 323.8125 281.125 327.0625 278.4375 327.25 277.9375 Z M 150.625 355.625 L 150.8125 355.6875 L 150.6875 355.75 L 152.25 359.4375 L 147.9375 357.25 L 148.875 357 L 150.6875 355.75 Z M 143.125 357.25 L 143.3125 357.25 L 143.1875 357.4375 L 145.0625 360.6875 L 141.3125 361.5625 L 143.1875 357.4375 Z M 158.625 420.25 L 158.3125 420.3125 C 160.4375 421.5625 162.625 422.8125 164.8125 424.0625 L 170.3125 424.0625 Z M 158.625 420.25 " transform="matrix(0.0625,0,0,0.0625,0,0)"/>
</g>
</svg>
