<!-- Generator: Adobe Illustrator 16.0.0, SVG Export Plug-In . SVG Version: 6.00 Build 0)  -->
<svg xmlns="http://www.w3.org/2000/svg" xmlns:xlink="http://www.w3.org/1999/xlink" width="32px" height="32px" viewBox="0 0 32 32" version="1.1">
<g id="surface1">
<path style=" stroke:none;fill-rule:evenodd;fill:rgb(56.862748%,54.11765%,43.529412%);fill-opacity:1;" d="M 5.699219 1.949219 L 26.324219 1.949219 C 28.394531 1.949219 30.074219 3.628906 30.074219 5.699219 L 30.074219 26.585938 C 30.074219 28.65625 28.394531 30.335938 26.324219 30.335938 L 5.699219 30.335938 C 3.628906 30.335938 1.949219 28.65625 1.949219 26.585938 L 1.949219 5.699219 C 1.949219 3.628906 3.628906 1.949219 5.699219 1.949219 Z M 5.699219 1.949219 "/>
<path style=" stroke:none;fill-rule:nonzero;fill:rgb(91.37255%,86.666667%,68.627453%);fill-opacity:1;" d="M 18.84375 14.652344 C 18.84375 14.957031 18.597656 15.203125 18.292969 15.203125 C 17.988281 15.203125 17.742188 14.957031 17.742188 14.652344 C 17.742188 14.351562 17.988281 14.105469 18.292969 14.105469 C 18.597656 14.105469 18.84375 14.351562 18.84375 14.652344 Z M 18.84375 14.652344 "/>
<path style=" stroke:none;fill-rule:nonzero;fill:rgb(91.37255%,86.666667%,68.627453%);fill-opacity:1;" d="M 24.058594 22.222656 C 23.675781 21.503906 23.238281 20.6875 23.238281 19.40625 C 23.238281 17.261719 24.429688 16.507812 24.476562 16.480469 C 24.652344 16.375 24.710938 16.144531 24.605469 15.972656 C 24.503906 15.792969 24.277344 15.738281 24.097656 15.839844 C 24.035156 15.878906 22.5 16.816406 22.5 19.40625 C 22.5 20.871094 23 21.816406 23.402344 22.570312 C 23.691406 23.113281 23.917969 23.542969 23.917969 24.03125 C 23.917969 24.382812 23.839844 24.636719 23.699219 24.765625 C 23.550781 24.898438 23.359375 24.878906 23.355469 24.878906 C 23.339844 24.875 23.320312 24.875 23.300781 24.875 L 21.941406 24.875 C 22.097656 24.625 22.191406 24.332031 22.191406 24.015625 L 22.191406 7.332031 C 22.191406 7.164062 22.082031 7.019531 21.917969 6.972656 C 21.761719 6.929688 21.589844 6.996094 21.503906 7.136719 L 19.699219 10.128906 C 19.140625 10.121094 17.511719 10.109375 12.632812 10.109375 C 11.597656 10.109375 11.082031 10.109375 10.824219 10.109375 L 9.160156 6.902344 C 9.082031 6.753906 8.910156 6.675781 8.746094 6.714844 C 8.578125 6.753906 8.460938 6.902344 8.460938 7.074219 L 8.460938 24.015625 C 8.460938 24.894531 9.175781 25.613281 10.058594 25.613281 L 23.28125 25.613281 C 23.304688 25.617188 23.339844 25.617188 23.382812 25.617188 C 23.566406 25.617188 23.890625 25.578125 24.175781 25.332031 C 24.496094 25.054688 24.660156 24.617188 24.660156 24.03125 C 24.660156 23.355469 24.367188 22.808594 24.058594 22.222656 Z M 12.359375 15.945312 C 11.648438 15.945312 11.070312 15.363281 11.070312 14.652344 C 11.070312 13.941406 11.648438 13.363281 12.359375 13.363281 C 13.070312 13.363281 13.652344 13.941406 13.652344 14.652344 C 13.652344 15.363281 13.070312 15.945312 12.359375 15.945312 Z M 15.972656 17.433594 L 15.699219 17.433594 L 15.671875 17.945312 C 15.660156 18.144531 15.496094 18.292969 15.300781 18.292969 C 15.292969 18.292969 15.285156 18.292969 15.277344 18.292969 C 15.074219 18.28125 14.917969 18.105469 14.933594 17.902344 L 14.957031 17.433594 L 14.679688 17.433594 C 14.472656 17.433594 14.308594 17.265625 14.308594 17.0625 C 14.308594 16.855469 14.472656 16.691406 14.679688 16.691406 L 15.972656 16.691406 C 16.175781 16.691406 16.34375 16.855469 16.34375 17.0625 C 16.34375 17.265625 16.175781 17.433594 15.972656 17.433594 Z M 18.292969 15.945312 C 17.582031 15.945312 17.003906 15.363281 17.003906 14.652344 C 17.003906 13.941406 17.582031 13.363281 18.292969 13.363281 C 19.003906 13.363281 19.582031 13.941406 19.582031 14.652344 C 19.582031 15.363281 19.003906 15.945312 18.292969 15.945312 Z M 18.292969 15.945312 "/>
<path style=" stroke:none;fill-rule:nonzero;fill:rgb(91.37255%,86.666667%,68.627453%);fill-opacity:1;" d="M 12.910156 14.652344 C 12.910156 14.957031 12.664062 15.203125 12.359375 15.203125 C 12.054688 15.203125 11.808594 14.957031 11.808594 14.652344 C 11.808594 14.351562 12.054688 14.105469 12.359375 14.105469 C 12.664062 14.105469 12.910156 14.351562 12.910156 14.652344 Z M 12.910156 14.652344 "/>
<path style=" stroke:none;fill-rule:nonzero;fill:rgb(10.196079%,10.196079%,10.196079%);fill-opacity:1;" d="M 11.878906 15.820312 C 11.621094 15.707031 11.324219 15.417969 11.214844 15.167969 C 10.78125 14.1875 11.734375 13.128906 12.746094 13.464844 C 13.472656 13.707031 13.824219 14.539062 13.480469 15.207031 C 13.351562 15.457031 13.082031 15.710938 12.839844 15.8125 C 12.601562 15.910156 12.097656 15.914062 11.878906 15.820312 Z M 12.738281 15.0625 C 12.96875 14.847656 12.980469 14.496094 12.761719 14.265625 C 12.414062 13.894531 11.800781 14.148438 11.804688 14.660156 C 11.808594 15.15625 12.378906 15.402344 12.738281 15.0625 Z M 12.738281 15.0625 "/>
<path style=" stroke:none;fill-rule:nonzero;fill:rgb(10.196079%,10.196079%,10.196079%);fill-opacity:1;" d="M 17.730469 15.761719 C 16.808594 15.296875 16.8125 14.015625 17.738281 13.527344 C 18.027344 13.371094 18.546875 13.371094 18.835938 13.527344 C 19.105469 13.667969 19.355469 13.933594 19.460938 14.179688 C 19.574219 14.449219 19.558594 14.878906 19.433594 15.160156 C 19.21875 15.632812 18.898438 15.847656 18.363281 15.878906 C 18.050781 15.898438 17.964844 15.882812 17.730469 15.761719 Z M 18.644531 15.082031 C 19.042969 14.746094 18.832031 14.113281 18.316406 14.101562 C 18.070312 14.09375 17.890625 14.199219 17.789062 14.410156 C 17.53125 14.957031 18.183594 15.46875 18.644531 15.082031 Z M 18.644531 15.082031 "/>
<path style=" stroke:none;fill-rule:nonzero;fill:rgb(10.196079%,10.196079%,10.196079%);fill-opacity:1;" d="M 15.121094 18.207031 C 14.988281 18.121094 14.9375 17.929688 14.972656 17.671875 L 15.007812 17.410156 L 14.796875 17.410156 C 14.414062 17.410156 14.214844 17.085938 14.445312 16.832031 C 14.53125 16.738281 14.609375 16.730469 15.332031 16.730469 C 16.035156 16.730469 16.136719 16.738281 16.214844 16.824219 C 16.429688 17.066406 16.238281 17.410156 15.886719 17.410156 L 15.683594 17.410156 L 15.664062 17.722656 C 15.648438 17.925781 15.605469 18.070312 15.542969 18.140625 C 15.449219 18.246094 15.230469 18.277344 15.121094 18.207031 Z M 15.121094 18.207031 "/>
</g>
</svg>
