
<svg xmlns="http://www.w3.org/2000/svg" xmlns:xlink="http://www.w3.org/1999/xlink" width="32px" height="32px" viewBox="0 0 32 32" version="1.1">
<g id="surface1">
<path style="fill-rule:nonzero;fill:rgb(82.352942%,85.882354%,90.980393%);fill-opacity:1;stroke-width:55.351379;stroke-linecap:butt;stroke-linejoin:miter;stroke:rgb(19.215687%,21.176471%,27.843139%);stroke-opacity:1;stroke-miterlimit:4;" d="M 169.375 58.625 L 854.625 58.625 C 915.75 58.625 965.375 108.25 965.375 169.375 L 965.375 854.625 C 965.375 915.75 915.75 965.375 854.625 965.375 L 169.375 965.375 C 108.25 965.375 58.625 915.75 58.625 854.625 L 58.625 169.375 C 58.625 108.25 108.25 58.625 169.375 58.625 Z M 169.375 58.625 " transform="matrix(0.03125,0,0,0.03125,0,0)"/>
<path style=" stroke:none;fill-rule:nonzero;fill:rgb(85.882354%,89.019608%,87.058824%);fill-opacity:1;" d="M 15.851562 19.890625 C 15.617188 19.875 15.496094 19.824219 15.355469 19.675781 C 15.226562 19.539062 15.167969 19.394531 15.144531 19.175781 C 15.125 18.964844 15.121094 14.542969 15.140625 14.15625 L 15.152344 13.898438 L 25.070312 13.898438 L 25.070312 16.539062 C 25.070312 18.238281 25.066406 19.214844 25.050781 19.285156 C 25.007812 19.519531 24.886719 19.683594 24.660156 19.820312 L 24.507812 19.910156 L 20.277344 19.90625 C 17.949219 19.902344 15.957031 19.898438 15.851562 19.890625 Z M 15.851562 19.890625 "/>
<path style=" stroke:none;fill-rule:nonzero;fill:rgb(95.294118%,80.784315%,26.666668%);fill-opacity:1;" d="M 15.671875 9.644531 C 15.617188 9.636719 15.550781 9.605469 15.503906 9.566406 L 15.425781 9.503906 L 15.410156 8.855469 C 15.402344 8.496094 15.394531 7.714844 15.394531 7.121094 L 15.390625 6.042969 L 15.457031 5.945312 C 15.496094 5.878906 15.542969 5.839844 15.589844 5.828125 C 15.703125 5.792969 16.742188 5.800781 16.839844 5.832031 C 17.007812 5.894531 17.003906 5.800781 16.996094 7.753906 L 16.988281 9.503906 L 16.910156 9.566406 C 16.839844 9.628906 16.816406 9.636719 16.632812 9.644531 C 16.375 9.664062 15.789062 9.664062 15.671875 9.644531 Z M 15.671875 9.644531 "/>
<path style=" stroke:none;fill-rule:nonzero;fill:rgb(95.294118%,80.784315%,26.666668%);fill-opacity:1;" d="M 17.671875 9.644531 C 17.554688 9.628906 17.46875 9.558594 17.433594 9.464844 C 17.417969 9.414062 17.414062 8.816406 17.417969 7.652344 L 17.425781 5.910156 L 17.523438 5.828125 L 17.621094 5.75 L 18.734375 5.75 L 18.816406 5.804688 C 18.863281 5.835938 18.910156 5.882812 18.917969 5.910156 C 18.929688 5.941406 18.9375 6.746094 18.9375 7.707031 C 18.9375 9.636719 18.945312 9.523438 18.789062 9.609375 C 18.714844 9.652344 18.679688 9.652344 18.238281 9.65625 C 17.980469 9.660156 17.726562 9.652344 17.671875 9.644531 Z M 17.671875 9.644531 "/>
<path style=" stroke:none;fill-rule:nonzero;fill:rgb(95.294118%,80.784315%,26.666668%);fill-opacity:1;" d="M 19.648438 9.566406 C 19.554688 9.542969 19.46875 9.460938 19.449219 9.382812 C 19.429688 9.277344 19.433594 5.886719 19.457031 5.832031 C 19.46875 5.808594 19.503906 5.761719 19.535156 5.734375 C 19.597656 5.683594 19.597656 5.683594 20.125 5.675781 C 20.449219 5.675781 20.683594 5.679688 20.730469 5.691406 C 20.785156 5.707031 20.824219 5.738281 20.871094 5.800781 L 20.933594 5.890625 L 20.929688 6.664062 C 20.925781 7.808594 20.894531 9.390625 20.875 9.441406 C 20.867188 9.464844 20.824219 9.503906 20.785156 9.527344 C 20.714844 9.566406 20.667969 9.574219 20.210938 9.582031 C 19.925781 9.582031 19.6875 9.578125 19.648438 9.566406 Z M 19.648438 9.566406 "/>
<path style=" stroke:none;fill-rule:nonzero;fill:rgb(95.294118%,80.784315%,26.666668%);fill-opacity:1;" d="M 21.59375 9.589844 C 21.503906 9.578125 21.464844 9.558594 21.417969 9.507812 C 21.378906 9.472656 21.347656 9.414062 21.339844 9.378906 C 21.332031 9.347656 21.328125 8.554688 21.332031 7.621094 L 21.339844 5.925781 L 21.53125 5.769531 L 22.070312 5.769531 C 22.675781 5.769531 22.738281 5.777344 22.808594 5.890625 C 22.847656 5.953125 22.847656 6.050781 22.847656 7.675781 C 22.847656 9.328125 22.847656 9.402344 22.808594 9.460938 C 22.71875 9.585938 22.671875 9.597656 22.164062 9.597656 C 21.910156 9.601562 21.652344 9.597656 21.59375 9.589844 Z M 21.59375 9.589844 "/>
<path style=" stroke:none;fill-rule:nonzero;fill:rgb(95.294118%,80.784315%,26.666668%);fill-opacity:1;" d="M 23.605469 9.570312 C 23.503906 9.53125 23.472656 9.5 23.449219 9.402344 C 23.4375 9.355469 23.429688 8.777344 23.429688 8.113281 C 23.429688 6.816406 23.425781 6.84375 23.539062 6.761719 C 23.59375 6.71875 23.621094 6.71875 24.125 6.71875 C 24.707031 6.71875 24.683594 6.714844 24.773438 6.855469 C 24.824219 6.933594 24.824219 6.933594 24.820312 7.585938 C 24.820312 7.945312 24.8125 8.507812 24.804688 8.839844 L 24.792969 9.4375 L 24.722656 9.496094 C 24.6875 9.527344 24.621094 9.566406 24.578125 9.578125 C 24.457031 9.613281 23.707031 9.605469 23.605469 9.570312 Z M 23.605469 9.570312 "/>
<path style=" stroke:none;fill-rule:nonzero;fill:rgb(19.215687%,19.215687%,20%);fill-opacity:1;" d="M 14.382812 20.964844 C 14.265625 20.933594 14.164062 20.855469 14.101562 20.746094 L 14.050781 20.652344 L 14.050781 4.894531 L 14.085938 4.824219 C 14.144531 4.722656 14.222656 4.644531 14.316406 4.601562 L 14.398438 4.566406 L 24.332031 4.554688 L 26.277344 6.5 L 26.277344 13.539062 C 26.277344 18.277344 26.269531 20.601562 26.257812 20.644531 C 26.226562 20.753906 26.136719 20.871094 26.03125 20.925781 L 25.933594 20.980469 L 20.199219 20.984375 C 15.554688 20.988281 14.449219 20.984375 14.382812 20.964844 Z M 24.464844 19.707031 C 24.675781 19.601562 24.816406 19.433594 24.875 19.214844 C 24.902344 19.105469 24.902344 18.796875 24.890625 14.875 C 24.886719 12.550781 24.875 10.644531 24.871094 10.636719 C 24.859375 10.617188 15.421875 10.617188 15.410156 10.636719 C 15.40625 10.644531 15.394531 12.53125 15.390625 14.832031 C 15.378906 17.980469 15.382812 19.042969 15.398438 19.140625 C 15.441406 19.425781 15.632812 19.652344 15.902344 19.738281 C 15.996094 19.769531 16.144531 19.769531 20.175781 19.765625 L 24.347656 19.761719 Z M 16.683594 9.496094 C 16.707031 9.476562 16.746094 9.4375 16.769531 9.410156 C 16.800781 9.363281 16.800781 9.347656 16.808594 7.707031 C 16.8125 6.152344 16.808594 6.042969 16.78125 5.988281 C 16.765625 5.953125 16.730469 5.910156 16.699219 5.890625 C 16.65625 5.855469 16.625 5.855469 16.1875 5.847656 C 15.652344 5.84375 15.632812 5.847656 15.5625 5.984375 L 15.519531 6.0625 L 15.519531 7.675781 C 15.519531 8.671875 15.527344 9.308594 15.539062 9.347656 C 15.550781 9.378906 15.574219 9.425781 15.597656 9.449219 C 15.675781 9.535156 15.707031 9.539062 16.1875 9.535156 C 16.609375 9.53125 16.636719 9.527344 16.683594 9.496094 Z M 18.660156 9.5 C 18.707031 9.472656 18.746094 9.4375 18.769531 9.390625 C 18.808594 9.324219 18.808594 9.308594 18.808594 7.671875 C 18.808594 6.027344 18.808594 6.019531 18.769531 5.972656 C 18.75 5.945312 18.707031 5.90625 18.675781 5.886719 C 18.621094 5.847656 18.605469 5.847656 18.160156 5.847656 C 17.71875 5.847656 17.703125 5.847656 17.648438 5.886719 C 17.617188 5.90625 17.574219 5.945312 17.554688 5.972656 C 17.519531 6.019531 17.519531 6.027344 17.511719 7.644531 C 17.511719 8.707031 17.511719 9.285156 17.527344 9.332031 C 17.535156 9.367188 17.558594 9.417969 17.582031 9.445312 C 17.652344 9.53125 17.691406 9.539062 18.15625 9.539062 C 18.570312 9.539062 18.585938 9.539062 18.660156 9.5 Z M 20.675781 9.488281 C 20.800781 9.402344 20.792969 9.523438 20.800781 7.699219 L 20.804688 6.0625 L 20.761719 5.988281 C 20.691406 5.847656 20.675781 5.84375 20.136719 5.847656 C 19.699219 5.855469 19.667969 5.855469 19.621094 5.890625 C 19.597656 5.910156 19.558594 5.953125 19.542969 5.988281 C 19.515625 6.042969 19.511719 6.160156 19.511719 7.683594 C 19.511719 9.296875 19.511719 9.320312 19.550781 9.394531 C 19.574219 9.445312 19.605469 9.480469 19.660156 9.503906 C 19.726562 9.539062 19.753906 9.542969 20.175781 9.535156 C 20.609375 9.53125 20.621094 9.53125 20.675781 9.488281 Z M 22.609375 9.519531 C 22.675781 9.496094 22.738281 9.4375 22.765625 9.371094 C 22.785156 9.328125 22.789062 9.011719 22.789062 7.675781 C 22.792969 6.125 22.789062 6.03125 22.761719 5.980469 C 22.742188 5.949219 22.707031 5.910156 22.679688 5.890625 C 22.632812 5.855469 22.605469 5.855469 22.164062 5.847656 C 21.703125 5.84375 21.699219 5.84375 21.640625 5.882812 C 21.605469 5.90625 21.566406 5.945312 21.542969 5.972656 C 21.507812 6.019531 21.507812 6.027344 21.503906 7.644531 C 21.5 8.707031 21.503906 9.285156 21.519531 9.332031 C 21.539062 9.414062 21.597656 9.488281 21.664062 9.515625 C 21.730469 9.542969 22.535156 9.550781 22.609375 9.519531 Z M 24.636719 9.5 C 24.683594 9.476562 24.730469 9.4375 24.75 9.402344 C 24.785156 9.339844 24.785156 9.308594 24.789062 8.222656 L 24.792969 7.109375 L 24.753906 7.03125 C 24.683594 6.894531 24.664062 6.886719 24.128906 6.894531 C 23.6875 6.898438 23.660156 6.902344 23.613281 6.9375 C 23.589844 6.957031 23.550781 6.996094 23.535156 7.027344 C 23.503906 7.078125 23.503906 7.148438 23.503906 8.210938 C 23.503906 9.480469 23.5 9.421875 23.636719 9.5 C 23.703125 9.539062 23.722656 9.539062 24.132812 9.539062 C 24.542969 9.539062 24.5625 9.539062 24.636719 9.5 Z M 24.636719 9.5 "/>
<path style=" stroke:none;fill-rule:evenodd;fill:rgb(100%,16.470589%,16.470589%);fill-opacity:1;" d="M 15.394531 10.621094 L 24.886719 10.621094 L 24.886719 14.121094 L 15.394531 14.121094 Z M 15.394531 10.621094 "/>
<path style=" stroke:none;fill-rule:nonzero;fill:rgb(85.882354%,89.019608%,87.058824%);fill-opacity:1;" d="M 8 26.515625 C 7.769531 26.503906 7.644531 26.449219 7.507812 26.300781 C 7.378906 26.167969 7.316406 26.019531 7.296875 25.800781 C 7.277344 25.589844 7.269531 21.167969 7.292969 20.78125 L 7.304688 20.523438 L 17.222656 20.523438 L 17.222656 23.164062 C 17.222656 24.867188 17.214844 25.84375 17.203125 25.910156 C 17.160156 26.144531 17.035156 26.308594 16.808594 26.445312 L 16.660156 26.535156 L 12.429688 26.535156 C 10.101562 26.53125 8.109375 26.523438 8 26.515625 Z M 8 26.515625 "/>
<path style=" stroke:none;fill-rule:nonzero;fill:rgb(95.294118%,80.784315%,26.666668%);fill-opacity:1;" d="M 7.824219 16.269531 C 7.769531 16.261719 7.699219 16.230469 7.652344 16.191406 L 7.578125 16.128906 L 7.5625 15.480469 C 7.554688 15.121094 7.546875 14.339844 7.546875 13.746094 L 7.542969 12.667969 L 7.605469 12.570312 C 7.648438 12.503906 7.691406 12.46875 7.742188 12.453125 C 7.855469 12.421875 8.894531 12.425781 8.992188 12.460938 C 9.160156 12.519531 9.152344 12.425781 9.144531 14.378906 L 9.136719 16.128906 L 9.058594 16.195312 C 8.988281 16.253906 8.964844 16.261719 8.785156 16.273438 C 8.527344 16.292969 7.941406 16.289062 7.824219 16.269531 Z M 7.824219 16.269531 "/>
<path style=" stroke:none;fill-rule:nonzero;fill:rgb(95.294118%,80.784315%,26.666668%);fill-opacity:1;" d="M 9.824219 16.269531 C 9.707031 16.253906 9.621094 16.1875 9.585938 16.089844 C 9.570312 16.042969 9.566406 15.441406 9.570312 14.277344 L 9.574219 12.535156 L 9.769531 12.375 L 10.886719 12.375 L 10.96875 12.433594 C 11.015625 12.460938 11.058594 12.511719 11.070312 12.535156 C 11.082031 12.566406 11.089844 13.375 11.089844 14.335938 C 11.089844 16.261719 11.097656 16.148438 10.941406 16.234375 C 10.863281 16.277344 10.832031 16.28125 10.390625 16.285156 C 10.128906 16.285156 9.878906 16.277344 9.824219 16.269531 Z M 9.824219 16.269531 "/>
<path style=" stroke:none;fill-rule:nonzero;fill:rgb(95.294118%,80.784315%,26.666668%);fill-opacity:1;" d="M 11.800781 16.195312 C 11.707031 16.167969 11.621094 16.085938 11.601562 16.007812 C 11.582031 15.90625 11.585938 12.511719 11.609375 12.457031 C 11.621094 12.433594 11.65625 12.386719 11.6875 12.363281 C 11.746094 12.308594 11.746094 12.308594 12.277344 12.304688 C 12.597656 12.300781 12.832031 12.304688 12.882812 12.316406 C 12.9375 12.332031 12.976562 12.363281 13.019531 12.425781 L 13.082031 12.515625 L 13.082031 13.292969 C 13.074219 14.433594 13.046875 16.015625 13.027344 16.066406 C 13.019531 16.09375 12.976562 16.132812 12.933594 16.15625 C 12.863281 16.195312 12.820312 16.199219 12.363281 16.207031 C 12.078125 16.210938 11.839844 16.207031 11.800781 16.195312 Z M 11.800781 16.195312 "/>
<path style=" stroke:none;fill-rule:nonzero;fill:rgb(95.294118%,80.784315%,26.666668%);fill-opacity:1;" d="M 13.746094 16.214844 C 13.65625 16.203125 13.617188 16.1875 13.566406 16.132812 C 13.53125 16.097656 13.496094 16.039062 13.488281 16.007812 C 13.480469 15.972656 13.480469 15.183594 13.484375 14.246094 L 13.488281 12.550781 L 13.683594 12.394531 L 14.222656 12.394531 C 14.828125 12.394531 14.886719 12.40625 14.957031 12.519531 C 15 12.578125 15 12.675781 15 14.304688 C 15 15.957031 15 16.027344 14.957031 16.085938 C 14.871094 16.210938 14.824219 16.222656 14.316406 16.226562 C 14.0625 16.230469 13.804688 16.222656 13.746094 16.214844 Z M 13.746094 16.214844 "/>
<path style=" stroke:none;fill-rule:nonzero;fill:rgb(95.294118%,80.784315%,26.666668%);fill-opacity:1;" d="M 15.757812 16.195312 C 15.652344 16.160156 15.621094 16.125 15.597656 16.027344 C 15.589844 15.980469 15.582031 15.402344 15.582031 14.738281 C 15.582031 13.441406 15.578125 13.472656 15.691406 13.386719 C 15.746094 13.347656 15.773438 13.34375 16.277344 13.34375 C 16.855469 13.34375 16.832031 13.339844 16.925781 13.484375 C 16.972656 13.5625 16.972656 13.5625 16.972656 14.214844 C 16.972656 14.570312 16.964844 15.132812 16.957031 15.464844 L 16.941406 16.066406 L 16.875 16.121094 C 16.839844 16.15625 16.773438 16.191406 16.730469 16.207031 C 16.609375 16.238281 15.855469 16.230469 15.757812 16.195312 Z M 15.757812 16.195312 "/>
<path style=" stroke:none;fill-rule:nonzero;fill:rgb(19.215687%,29.803923%,32.941177%);fill-opacity:1;" d="M 6.535156 27.589844 C 6.417969 27.558594 6.316406 27.480469 6.253906 27.371094 L 6.199219 27.277344 L 6.199219 11.519531 L 6.238281 11.453125 C 6.292969 11.347656 6.371094 11.269531 6.464844 11.230469 L 6.550781 11.191406 L 11.515625 11.183594 L 16.480469 11.183594 L 17.453125 12.152344 L 18.425781 13.125 L 18.425781 20.167969 C 18.425781 24.902344 18.417969 27.230469 18.410156 27.269531 C 18.378906 27.382812 18.285156 27.496094 18.183594 27.554688 L 18.085938 27.609375 L 12.351562 27.613281 C 7.707031 27.613281 6.601562 27.609375 6.535156 27.589844 Z M 16.617188 26.332031 C 16.828125 26.226562 16.96875 26.058594 17.027344 25.839844 C 17.050781 25.734375 17.054688 25.421875 17.042969 21.5 C 17.035156 19.175781 17.027344 17.269531 17.019531 17.261719 C 17.011719 17.242188 7.574219 17.242188 7.5625 17.261719 C 7.558594 17.269531 7.546875 19.15625 7.542969 21.457031 C 7.53125 24.605469 7.535156 25.667969 7.550781 25.769531 C 7.59375 26.050781 7.785156 26.277344 8.050781 26.363281 C 8.148438 26.394531 8.296875 26.394531 12.324219 26.390625 L 16.5 26.386719 Z M 8.832031 16.121094 C 8.859375 16.101562 8.898438 16.066406 8.917969 16.035156 C 8.953125 15.988281 8.953125 15.976562 8.957031 14.332031 C 8.964844 12.777344 8.960938 12.667969 8.933594 12.613281 C 8.917969 12.578125 8.878906 12.535156 8.851562 12.515625 C 8.808594 12.480469 8.777344 12.480469 8.339844 12.476562 C 7.800781 12.46875 7.785156 12.472656 7.710938 12.613281 L 7.671875 12.6875 L 7.671875 14.300781 C 7.671875 15.296875 7.679688 15.9375 7.691406 15.972656 C 7.699219 16.003906 7.722656 16.050781 7.746094 16.074219 C 7.824219 16.160156 7.855469 16.167969 8.339844 16.160156 C 8.761719 16.160156 8.789062 16.15625 8.832031 16.121094 Z M 10.808594 16.128906 C 10.859375 16.101562 10.898438 16.0625 10.921875 16.019531 C 10.957031 15.949219 10.957031 15.933594 10.957031 14.300781 C 10.957031 12.652344 10.957031 12.648438 10.921875 12.597656 C 10.902344 12.574219 10.859375 12.53125 10.828125 12.511719 C 10.769531 12.472656 10.757812 12.472656 10.3125 12.472656 C 9.867188 12.472656 9.855469 12.472656 9.800781 12.511719 C 9.769531 12.53125 9.722656 12.574219 9.707031 12.597656 C 9.667969 12.648438 9.667969 12.65625 9.664062 14.269531 C 9.660156 15.332031 9.664062 15.910156 9.675781 15.957031 C 9.6875 15.992188 9.710938 16.042969 9.730469 16.070312 C 9.800781 16.160156 9.839844 16.164062 10.308594 16.167969 C 10.71875 16.167969 10.738281 16.164062 10.808594 16.128906 Z M 12.828125 16.117188 C 12.953125 16.027344 12.945312 16.148438 12.949219 14.328125 L 12.953125 12.691406 L 12.914062 12.613281 C 12.84375 12.472656 12.824219 12.46875 12.289062 12.476562 C 11.847656 12.480469 11.820312 12.480469 11.773438 12.515625 C 11.746094 12.535156 11.710938 12.578125 11.695312 12.613281 C 11.667969 12.667969 11.664062 12.785156 11.664062 14.308594 C 11.664062 15.925781 11.664062 15.949219 11.699219 16.019531 C 11.722656 16.074219 11.757812 16.105469 11.808594 16.128906 C 11.878906 16.167969 11.902344 16.167969 12.324219 16.160156 C 12.761719 16.160156 12.773438 16.15625 12.828125 16.117188 Z M 14.761719 16.148438 C 14.828125 16.121094 14.886719 16.066406 14.917969 15.996094 C 14.933594 15.953125 14.941406 15.636719 14.941406 14.300781 C 14.941406 12.753906 14.941406 12.65625 14.910156 12.605469 C 14.894531 12.578125 14.855469 12.535156 14.832031 12.515625 C 14.785156 12.480469 14.757812 12.480469 14.316406 12.472656 C 13.855469 12.46875 13.847656 12.472656 13.792969 12.511719 C 13.757812 12.53125 13.714844 12.574219 13.695312 12.597656 C 13.660156 12.648438 13.660156 12.65625 13.65625 14.269531 C 13.652344 15.332031 13.65625 15.910156 13.667969 15.957031 C 13.691406 16.042969 13.746094 16.113281 13.816406 16.140625 C 13.882812 16.171875 14.683594 16.175781 14.761719 16.148438 Z M 16.789062 16.128906 C 16.832031 16.105469 16.878906 16.0625 16.902344 16.027344 C 16.933594 15.96875 16.9375 15.933594 16.941406 14.851562 L 16.945312 13.734375 L 16.90625 13.660156 C 16.835938 13.519531 16.816406 13.515625 16.277344 13.519531 C 15.839844 13.527344 15.8125 13.527344 15.765625 13.5625 C 15.738281 13.582031 15.703125 13.621094 15.683594 13.652344 C 15.652344 13.703125 15.652344 13.777344 15.652344 14.835938 C 15.65625 16.105469 15.652344 16.050781 15.785156 16.128906 C 15.851562 16.164062 15.871094 16.167969 16.285156 16.167969 C 16.691406 16.167969 16.714844 16.164062 16.789062 16.128906 Z M 16.789062 16.128906 "/>
<path style=" stroke:none;fill-rule:evenodd;fill:rgb(17.254902%,53.725493%,62.7451%);fill-opacity:1;" d="M 7.542969 17.246094 L 17.039062 17.246094 L 17.039062 20.75 L 7.542969 20.75 Z M 7.542969 17.246094 "/>
</g>
</svg>
