
<svg xmlns="http://www.w3.org/2000/svg" xmlns:xlink="http://www.w3.org/1999/xlink" width="32px" height="32px" viewBox="0 0 32 32" version="1.1">
<g id="surface1">
<path style="fill-rule:nonzero;fill:rgb(100%,100%,100%);fill-opacity:1;stroke-width:7.072551;stroke-linecap:butt;stroke-linejoin:miter;stroke:rgb(19.215687%,21.176471%,27.843139%);stroke-opacity:1;stroke-miterlimit:4;" d="M 20.21875 6.078125 L 107.78125 6.078125 C 115.59375 6.078125 121.921875 12.40625 121.921875 20.21875 L 121.921875 107.78125 C 121.921875 115.59375 115.59375 121.921875 107.78125 121.921875 L 20.21875 121.921875 C 12.40625 121.921875 6.078125 115.59375 6.078125 107.78125 L 6.078125 20.21875 C 6.078125 12.40625 12.40625 6.078125 20.21875 6.078125 Z M 20.21875 6.078125 " transform="matrix(0.25,0,0,0.25,0,0)"/>
<path style=" stroke:none;fill-rule:nonzero;fill:rgb(100%,86.666667%,33.333334%);fill-opacity:1;" d="M 26.347656 11.824219 C 26.460938 12.089844 26.5625 12.359375 26.652344 12.640625 C 26.5625 12.363281 26.460938 12.089844 26.347656 11.824219 Z M 26.652344 12.640625 L 21.59375 14.277344 C 21.535156 14.085938 21.460938 13.910156 21.382812 13.730469 L 21.367188 13.730469 C 21.683594 14.449219 21.867188 15.238281 21.867188 16.078125 C 21.867188 18.121094 20.820312 19.917969 19.230469 20.949219 L 22.019531 25.480469 C 25.132812 23.503906 27.199219 20.035156 27.199219 16.074219 C 27.199219 14.871094 27.003906 13.722656 26.652344 12.636719 Z M 26.652344 12.640625 "/>
<path style=" stroke:none;fill-rule:nonzero;fill:rgb(33.333334%,86.666667%,100%);fill-opacity:1;" d="M 5.488281 12.578125 C 4.777344 22.660156 5.132812 17.621094 5.488281 12.578125 Z M 5.457031 12.640625 C 5.105469 13.722656 4.910156 14.878906 4.910156 16.074219 C 4.910156 19.777344 6.71875 23.058594 9.496094 25.085938 L 12.632812 20.785156 C 11.179688 19.730469 10.238281 18.015625 10.238281 16.074219 C 10.238281 15.449219 10.332031 14.839844 10.511719 14.273438 Z M 5.457031 12.640625 "/>
<path style=" stroke:none;fill-rule:nonzero;fill:rgb(37.254903%,82.745099%,37.254903%);fill-opacity:1;" d="M 12.632812 20.785156 L 9.496094 25.085938 C 11.339844 26.425781 13.601562 27.21875 16.054688 27.21875 C 18.503906 27.21875 20.769531 26.425781 22.609375 25.085938 L 19.476562 20.785156 C 18.519531 21.480469 17.332031 21.890625 16.054688 21.890625 C 14.773438 21.890625 13.589844 21.480469 12.636719 20.785156 Z M 12.632812 20.785156 "/>
<path style=" stroke:none;fill-rule:nonzero;fill:rgb(83.137256%,0%,0%);fill-opacity:1;" d="M 16.054688 4.933594 C 11.097656 4.933594 6.902344 8.167969 5.457031 12.640625 L 10.511719 14.273438 C 11.265625 11.9375 13.457031 10.261719 16.054688 10.261719 Z M 16.054688 4.933594 "/>
<path style=" stroke:none;fill-rule:nonzero;fill:rgb(100%,40.000001%,0%);fill-opacity:1;" d="M 16.039062 4.933594 L 16.054688 10.261719 C 18.648438 10.261719 20.84375 11.933594 21.597656 14.273438 L 26.652344 12.640625 C 25.203125 8.167969 21.011719 4.933594 16.054688 4.933594 C 16.050781 4.933594 16.042969 4.933594 16.039062 4.933594 Z M 16.039062 4.933594 "/>
</g>
</svg>
