<!-- color: #9ac9e8 -->
<svg xmlns="http://www.w3.org/2000/svg" xmlns:xlink="http://www.w3.org/1999/xlink" width="32px" height="32px" viewBox="0 0 32 32" version="1.1">
<defs>
<clipPath id="clip1">
  <path d="M 18.75 22.5625 L 23.4375 22.5625 L 23.4375 28.5625 L 18.75 28.5625 Z M 18.75 22.5625 "/>
</clipPath>
<clipPath id="clip2">
  <path d="M 35.90625 16.539062 C 35.90625 27.433594 27.070312 36.261719 16.183594 36.261719 C 5.300781 36.261719 -3.535156 27.433594 -3.535156 16.539062 C -3.535156 5.644531 5.300781 -3.179688 16.183594 -3.179688 C 27.070312 -3.179688 35.90625 5.644531 35.90625 16.539062 Z M 35.90625 16.539062 "/>
</clipPath>
<clipPath id="clip3">
  <path d="M 8.4375 22.5625 L 13.1875 22.5625 L 13.1875 28.5625 L 8.4375 28.5625 Z M 8.4375 22.5625 "/>
</clipPath>
<clipPath id="clip4">
  <path d="M 35.90625 16.539062 C 35.90625 27.433594 27.070312 36.261719 16.183594 36.261719 C 5.300781 36.261719 -3.535156 27.433594 -3.535156 16.539062 C -3.535156 5.644531 5.300781 -3.179688 16.183594 -3.179688 C 27.070312 -3.179688 35.90625 5.644531 35.90625 16.539062 Z M 35.90625 16.539062 "/>
</clipPath>
<clipPath id="clip5">
  <path d="M 19.875 5.5625 L 26.5 5.5625 L 26.5 12.3125 L 19.875 12.3125 Z M 19.875 5.5625 "/>
</clipPath>
<clipPath id="clip6">
  <path d="M 35.90625 16.539062 C 35.90625 27.433594 27.070312 36.261719 16.183594 36.261719 C 5.300781 36.261719 -3.535156 27.433594 -3.535156 16.539062 C -3.535156 5.644531 5.300781 -3.179688 16.183594 -3.179688 C 27.070312 -3.179688 35.90625 5.644531 35.90625 16.539062 Z M 35.90625 16.539062 "/>
</clipPath>
<clipPath id="clip7">
  <path d="M 5.875 5.625 L 12.5 5.625 L 12.5 12.3125 L 5.875 12.3125 Z M 5.875 5.625 "/>
</clipPath>
<clipPath id="clip8">
  <path d="M 35.90625 16.539062 C 35.90625 27.433594 27.070312 36.261719 16.183594 36.261719 C 5.300781 36.261719 -3.535156 27.433594 -3.535156 16.539062 C -3.535156 5.644531 5.300781 -3.179688 16.183594 -3.179688 C 27.070312 -3.179688 35.90625 5.644531 35.90625 16.539062 Z M 35.90625 16.539062 "/>
</clipPath>
<clipPath id="clip9">
  <path d="M 13.5625 3.625 L 18.8125 3.625 L 18.8125 8.875 L 13.5625 8.875 Z M 13.5625 3.625 "/>
</clipPath>
<clipPath id="clip10">
  <path d="M 35.90625 16.539062 C 35.90625 27.433594 27.070312 36.261719 16.183594 36.261719 C 5.300781 36.261719 -3.535156 27.433594 -3.535156 16.539062 C -3.535156 5.644531 5.300781 -3.179688 16.183594 -3.179688 C 27.070312 -3.179688 35.90625 5.644531 35.90625 16.539062 Z M 35.90625 16.539062 "/>
</clipPath>
<clipPath id="clip11">
  <path d="M 5.875 5.375 L 26.5 5.375 L 26.5 26 L 5.875 26 Z M 5.875 5.375 "/>
</clipPath>
<clipPath id="clip12">
  <path d="M 35.90625 16.539062 C 35.90625 27.433594 27.070312 36.261719 16.183594 36.261719 C 5.300781 36.261719 -3.535156 27.433594 -3.535156 16.539062 C -3.535156 5.644531 5.300781 -3.179688 16.183594 -3.179688 C 27.070312 -3.179688 35.90625 5.644531 35.90625 16.539062 Z M 35.90625 16.539062 "/>
</clipPath>
<clipPath id="clip13">
  <path d="M 7.5625 7.0625 L 24.8125 7.0625 L 24.8125 24.3125 L 7.5625 24.3125 Z M 7.5625 7.0625 "/>
</clipPath>
<clipPath id="clip14">
  <path d="M 35.90625 16.539062 C 35.90625 27.433594 27.070312 36.261719 16.183594 36.261719 C 5.300781 36.261719 -3.535156 27.433594 -3.535156 16.539062 C -3.535156 5.644531 5.300781 -3.179688 16.183594 -3.179688 C 27.070312 -3.179688 35.90625 5.644531 35.90625 16.539062 Z M 35.90625 16.539062 "/>
</clipPath>
<clipPath id="clip15">
  <path d="M 15.3125 8.8125 L 17.0625 8.8125 L 17.0625 14.875 L 15.3125 14.875 Z M 15.3125 8.8125 "/>
</clipPath>
<clipPath id="clip16">
  <path d="M 35.90625 16.539062 C 35.90625 27.433594 27.070312 36.261719 16.183594 36.261719 C 5.300781 36.261719 -3.535156 27.433594 -3.535156 16.539062 C -3.535156 5.644531 5.300781 -3.179688 16.183594 -3.179688 C 27.070312 -3.179688 35.90625 5.644531 35.90625 16.539062 Z M 35.90625 16.539062 "/>
</clipPath>
<clipPath id="clip17">
  <path d="M 15.3125 16.0625 L 20.125 16.0625 L 20.125 20.875 L 15.3125 20.875 Z M 15.3125 16.0625 "/>
</clipPath>
<clipPath id="clip18">
  <path d="M 35.90625 16.539062 C 35.90625 27.433594 27.070312 36.261719 16.183594 36.261719 C 5.300781 36.261719 -3.535156 27.433594 -3.535156 16.539062 C -3.535156 5.644531 5.300781 -3.179688 16.183594 -3.179688 C 27.070312 -3.179688 35.90625 5.644531 35.90625 16.539062 Z M 35.90625 16.539062 "/>
</clipPath>
<clipPath id="clip19">
  <path d="M 14.4375 13.9375 L 17.9375 13.9375 L 17.9375 17.4375 L 14.4375 17.4375 Z M 14.4375 13.9375 "/>
</clipPath>
<clipPath id="clip20">
  <path d="M 35.90625 16.539062 C 35.90625 27.433594 27.070312 36.261719 16.183594 36.261719 C 5.300781 36.261719 -3.535156 27.433594 -3.535156 16.539062 C -3.535156 5.644531 5.300781 -3.179688 16.183594 -3.179688 C 27.070312 -3.179688 35.90625 5.644531 35.90625 16.539062 Z M 35.90625 16.539062 "/>
</clipPath>
</defs>
<g id="surface1">
<path style="fill-rule:nonzero;fill:rgb(100%,100%,100%);fill-opacity:1;stroke-width:7.175771;stroke-linecap:butt;stroke-linejoin:miter;stroke:rgb(19.215687%,21.176471%,27.843139%);stroke-opacity:1;stroke-miterlimit:4;" d="M 19.578125 5.234375 L 108.421875 5.234375 C 116.34375 5.234375 122.765625 11.65625 122.765625 19.578125 L 122.765625 108.421875 C 122.765625 116.34375 116.34375 122.765625 108.421875 122.765625 L 19.578125 122.765625 C 11.65625 122.765625 5.234375 116.34375 5.234375 108.421875 L 5.234375 19.578125 C 5.234375 11.65625 11.65625 5.234375 19.578125 5.234375 Z M 19.578125 5.234375 " transform="matrix(0.25,0,0,0.25,0,0)"/>
<g clip-path="url(#clip1)" clip-rule="nonzero">
<g clip-path="url(#clip2)" clip-rule="nonzero">
<path style=" stroke:none;fill-rule:nonzero;fill:rgb(92.941177%,85.09804%,21.568628%);fill-opacity:1;" d="M 19.121094 22.773438 C 18.738281 23.042969 18.640625 23.582031 18.914062 23.964844 L 21.863281 28.183594 C 22.136719 28.566406 22.667969 28.664062 23.058594 28.390625 C 23.445312 28.121094 23.542969 27.585938 23.269531 27.199219 L 20.316406 22.984375 C 20.046875 22.597656 19.511719 22.5 19.121094 22.773438 M 19.121094 22.773438 "/>
</g>
</g>
<g clip-path="url(#clip3)" clip-rule="nonzero">
<g clip-path="url(#clip4)" clip-rule="nonzero">
<path style=" stroke:none;fill-rule:nonzero;fill:rgb(92.941177%,85.09804%,21.568628%);fill-opacity:1;" d="M 12.773438 22.773438 C 13.160156 23.042969 13.253906 23.582031 12.984375 23.964844 L 10.035156 28.183594 C 9.761719 28.566406 9.226562 28.664062 8.835938 28.390625 C 8.453125 28.121094 8.355469 27.585938 8.628906 27.199219 L 11.582031 22.984375 C 11.851562 22.597656 12.382812 22.5 12.773438 22.773438 M 12.773438 22.773438 "/>
</g>
</g>
<g clip-path="url(#clip5)" clip-rule="nonzero">
<g clip-path="url(#clip6)" clip-rule="nonzero">
<path style=" stroke:none;fill-rule:nonzero;fill:rgb(100%,89.803922%,9.803922%);fill-opacity:1;" d="M 20.109375 10.136719 L 23.675781 12.195312 C 23.917969 12.335938 24.261719 12.203125 24.441406 11.894531 L 26.371094 8.554688 C 26.546875 8.246094 26.492188 7.878906 26.246094 7.738281 L 22.683594 5.679688 C 22.433594 5.539062 22.09375 5.675781 21.914062 5.980469 L 19.988281 9.324219 C 19.808594 9.628906 19.863281 9.996094 20.109375 10.136719 M 20.109375 10.136719 "/>
</g>
</g>
<g clip-path="url(#clip7)" clip-rule="nonzero">
<g clip-path="url(#clip8)" clip-rule="nonzero">
<path style=" stroke:none;fill-rule:nonzero;fill:rgb(100%,89.803922%,9.803922%);fill-opacity:1;" d="M 6.125 7.742188 L 9.6875 5.683594 C 9.933594 5.542969 10.277344 5.675781 10.457031 5.984375 L 12.382812 9.324219 C 12.5625 9.628906 12.507812 9.996094 12.261719 10.140625 L 8.695312 12.195312 C 8.453125 12.335938 8.105469 12.203125 7.929688 11.894531 L 6 8.554688 C 5.824219 8.246094 5.878906 7.882812 6.125 7.742188 M 6.125 7.742188 "/>
</g>
</g>
<g clip-path="url(#clip9)" clip-rule="nonzero">
<g clip-path="url(#clip10)" clip-rule="nonzero">
<path style=" stroke:none;fill-rule:nonzero;fill:rgb(95.686275%,34.901962%,51.764709%);fill-opacity:1;" d="M 18.757812 6.25 C 18.757812 7.671875 17.605469 8.824219 16.183594 8.824219 C 14.765625 8.824219 13.613281 7.671875 13.613281 6.25 C 13.613281 4.832031 14.765625 3.679688 16.183594 3.679688 C 17.605469 3.679688 18.757812 4.832031 18.757812 6.25 M 18.757812 6.25 "/>
</g>
</g>
<g clip-path="url(#clip11)" clip-rule="nonzero">
<g clip-path="url(#clip12)" clip-rule="nonzero">
<path style=" stroke:none;fill-rule:nonzero;fill:rgb(23.529412%,31.764707%,35.686275%);fill-opacity:1;" d="M 26.472656 15.683594 C 26.472656 21.367188 21.871094 25.972656 16.183594 25.972656 C 10.5 25.972656 5.894531 21.367188 5.894531 15.683594 C 5.894531 9.996094 10.5 5.394531 16.183594 5.394531 C 21.871094 5.394531 26.472656 9.996094 26.472656 15.683594 M 26.472656 15.683594 "/>
</g>
</g>
<g clip-path="url(#clip13)" clip-rule="nonzero">
<g clip-path="url(#clip14)" clip-rule="nonzero">
<path style=" stroke:none;fill-rule:nonzero;fill:rgb(94.901961%,94.901961%,86.666667%);fill-opacity:1;" d="M 24.757812 15.683594 C 24.757812 20.417969 20.917969 24.253906 16.183594 24.253906 C 11.449219 24.253906 7.613281 20.417969 7.613281 15.683594 C 7.613281 10.949219 11.449219 7.109375 16.183594 7.109375 C 20.917969 7.109375 24.757812 10.949219 24.757812 15.683594 M 24.757812 15.683594 "/>
</g>
</g>
<g clip-path="url(#clip15)" clip-rule="nonzero">
<g clip-path="url(#clip16)" clip-rule="nonzero">
<path style=" stroke:none;fill-rule:nonzero;fill:rgb(12.54902%,78.431374%,48.627451%);fill-opacity:1;" d="M 16.183594 8.824219 C 16.65625 8.824219 17.042969 9.207031 17.042969 9.679688 L 17.042969 13.96875 C 17.042969 14.441406 16.65625 14.824219 16.183594 14.824219 C 15.714844 14.824219 15.328125 14.441406 15.328125 13.96875 L 15.328125 9.679688 C 15.328125 9.207031 15.714844 8.824219 16.183594 8.824219 M 16.183594 8.824219 "/>
</g>
</g>
<g clip-path="url(#clip17)" clip-rule="nonzero">
<g clip-path="url(#clip18)" clip-rule="nonzero">
<path style=" stroke:none;fill-rule:nonzero;fill:rgb(12.54902%,78.431374%,48.627451%);fill-opacity:1;" d="M 15.578125 16.332031 C 15.914062 15.996094 16.457031 15.996094 16.792969 16.332031 L 19.824219 19.363281 C 20.15625 19.699219 20.15625 20.238281 19.824219 20.574219 C 19.488281 20.910156 18.945312 20.910156 18.609375 20.574219 L 15.578125 17.542969 C 15.242188 17.207031 15.242188 16.667969 15.578125 16.332031 M 15.578125 16.332031 "/>
</g>
</g>
<g clip-path="url(#clip19)" clip-rule="nonzero">
<g clip-path="url(#clip20)" clip-rule="nonzero">
<path style=" stroke:none;fill-rule:nonzero;fill:rgb(33.725491%,40.392157%,57.254905%);fill-opacity:1;" d="M 17.898438 15.683594 C 17.898438 16.628906 17.132812 17.398438 16.183594 17.398438 C 15.238281 17.398438 14.472656 16.628906 14.472656 15.683594 C 14.472656 14.734375 15.238281 13.96875 16.183594 13.96875 C 17.132812 13.96875 17.898438 14.734375 17.898438 15.683594 M 17.898438 15.683594 "/>
</g>
</g>
</g>
</svg>
