
<svg xmlns="http://www.w3.org/2000/svg" xmlns:xlink="http://www.w3.org/1999/xlink" width="32px" height="32px" viewBox="0 0 32 32" version="1.1">
<defs>
<linearGradient id="linear0" gradientUnits="userSpaceOnUse" x1="423.727478" y1="539.224304" x2="423.727478" y2="508.465179" gradientTransform="matrix(0.674188,0,0,0.674188,-259.429871,-337.395243)">
<stop offset="0" style="stop-color:rgb(96.470588%,24.313726%,24.705882%);stop-opacity:1;"/>
<stop offset="1" style="stop-color:rgb(99.215686%,25.490198%,14.117648%);stop-opacity:1;"/>
</linearGradient>
</defs>
<g id="surface1">
<path style="fill-rule:nonzero;fill:rgb(100%,100%,100%);fill-opacity:1;stroke-width:7.002193;stroke-linecap:butt;stroke-linejoin:miter;stroke:rgb(98.039216%,25.098041%,18.82353%);stroke-opacity:1;stroke-miterlimit:4;" d="M 405.227661 426.438639 L 491.915161 426.438639 C 499.649536 426.438639 505.930786 432.719889 505.930786 440.454264 L 505.930786 527.141764 C 505.930786 534.876139 499.649536 541.157389 491.915161 541.157389 L 405.227661 541.157389 C 397.493286 541.157389 391.212036 534.876139 391.212036 527.141764 L 391.212036 440.454264 C 391.212036 432.719889 397.493286 426.438639 405.227661 426.438639 Z M 405.227661 426.438639 " transform="matrix(0.25,0,0,0.25,-96.142853,-104.949504)"/>
<path style=" stroke:none;fill-rule:nonzero;fill:url(#linear0);" d="M 17.628906 5.371094 C 17.464844 5.433594 16.984375 6.644531 16.480469 8.261719 C 16 9.792969 15.574219 11.144531 15.535156 11.269531 C 15.496094 11.390625 15.050781 11.542969 14.550781 11.605469 C 12.699219 11.835938 10.433594 12.472656 9.164062 13.121094 L 7.859375 13.785156 L 7.246094 13.410156 C 6.078125 12.695312 4.363281 13.167969 3.757812 14.371094 C 3.257812 15.363281 3.726562 17.207031 4.558594 17.527344 C 4.765625 17.605469 4.839844 17.941406 4.839844 18.800781 C 4.847656 22.054688 7.863281 24.828125 12.503906 25.855469 C 14.304688 26.253906 17.894531 26.203125 19.769531 25.753906 C 22.839844 25.015625 25.640625 23.105469 26.617188 21.074219 C 26.917969 20.457031 27.058594 19.816406 27.066406 19.050781 C 27.074219 18.011719 27.132812 17.875 27.789062 17.214844 C 28.425781 16.574219 28.496094 16.398438 28.496094 15.527344 C 28.496094 14.6875 28.410156 14.457031 27.875 13.871094 C 27.054688 12.972656 25.835938 12.785156 24.804688 13.394531 L 24.121094 13.796875 L 22.570312 13.042969 C 20.894531 12.230469 19.03125 11.714844 17.757812 11.710938 C 17.316406 11.707031 16.953125 11.621094 16.953125 11.515625 C 16.953125 11.324219 18.257812 7.164062 18.390625 6.941406 C 18.449219 6.835938 22.832031 7.824219 22.902344 7.957031 C 22.917969 7.980469 23.035156 8.246094 23.160156 8.539062 C 23.296875 8.855469 23.660156 9.183594 24.066406 9.355469 C 25.738281 10.054688 27.394531 8.308594 26.582031 6.710938 C 26.007812 5.589844 24.578125 5.277344 23.652344 6.074219 L 23.136719 6.519531 L 20.519531 5.890625 C 19.082031 5.546875 17.777344 5.3125 17.628906 5.371094 Z M 11.925781 15.371094 C 13.039062 15.371094 13.941406 16.277344 13.941406 17.394531 C 13.941406 18.511719 13.039062 19.417969 11.925781 19.417969 C 10.8125 19.417969 9.910156 18.511719 9.910156 17.394531 C 9.910156 16.277344 10.8125 15.371094 11.925781 15.371094 Z M 20.121094 15.371094 C 21.238281 15.371094 22.136719 16.277344 22.136719 17.394531 C 22.136719 18.511719 21.238281 19.417969 20.121094 19.417969 C 19.007812 19.417969 18.105469 18.511719 18.105469 17.394531 C 18.105469 16.277344 19.007812 15.371094 20.121094 15.371094 Z M 20.03125 21.671875 C 20.253906 21.699219 20.359375 21.886719 20.359375 22.242188 C 20.359375 23.480469 16.703125 24.394531 14.109375 23.804688 C 12.707031 23.484375 11.652344 22.816406 11.652344 22.25 C 11.652344 21.582031 12.152344 21.53125 13.019531 22.105469 C 14.902344 22.796875 17.203125 22.792969 19.019531 22.089844 C 19.472656 21.785156 19.808594 21.648438 20.03125 21.671875 Z M 20.03125 21.671875 "/>
</g>
</svg>
