
<svg xmlns="http://www.w3.org/2000/svg" xmlns:xlink="http://www.w3.org/1999/xlink" width="32px" height="32px" viewBox="0 0 32 32" version="1.1">
<g id="surface1">
<path style="fill-rule:nonzero;fill:rgb(100%,100%,100%);fill-opacity:1;stroke-width:28.808744;stroke-linecap:butt;stroke-linejoin:miter;stroke:rgb(0%,80.000001%,100%);stroke-opacity:1;stroke-miterlimit:4;" d="M 77.6875 20.0625 L 434.3125 20.0625 C 466.1875 20.0625 491.9375 45.8125 491.9375 77.6875 L 491.9375 434.3125 C 491.9375 466.1875 466.1875 491.9375 434.3125 491.9375 L 77.6875 491.9375 C 45.8125 491.9375 20.0625 466.1875 20.0625 434.3125 L 20.0625 77.6875 C 20.0625 45.8125 45.8125 20.0625 77.6875 20.0625 Z M 77.6875 20.0625 " transform="matrix(0.0625,0,0,0.0625,0,0)"/>
<path style="fill-rule:nonzero;fill:rgb(0%,80.000001%,100%);fill-opacity:1;stroke-width:2.441739;stroke-linecap:butt;stroke-linejoin:miter;stroke:rgb(100%,100%,100%);stroke-opacity:1;stroke-miterlimit:4;" d="M -247.737886 112.805443 C -247.737886 184.484491 -305.846187 242.592791 -377.479695 242.592791 C -449.158743 242.592791 -507.267043 184.484491 -507.267043 112.805443 C -507.267043 41.171935 -449.158743 -16.936365 -377.479695 -16.936365 C -305.846187 -16.936365 -247.737886 41.171935 -247.737886 112.805443 Z M -247.737886 112.805443 " transform="matrix(0.0857773,0,0,0.0857773,48.043264,7.816037)"/>
<path style="fill-rule:nonzero;fill:rgb(7.843138%,25.882354%,30.980393%);fill-opacity:1;stroke-width:2.441739;stroke-linecap:butt;stroke-linejoin:miter;stroke:rgb(100%,100%,100%);stroke-opacity:1;stroke-miterlimit:4;" d="M -377.479695 -16.936365 C -388.363616 -16.936365 -398.974301 -15.615722 -409.084053 -13.065515 L -415.732808 -9.832216 L -421.652933 -8.283876 L -425.478244 -4.276407 L -429.850028 -0.0867799 L -434.44951 -0.86095 L -434.904904 -3.547776 C -440.460713 -0.815411 -445.834365 2.28127 -450.889241 5.787805 L -450.889241 10.250669 L -445.743286 9.476498 L -446.881772 14.485835 L -444.969116 19.449631 C -444.969116 19.449631 -445.470049 21.362287 -446.608535 21.9543 C -447.747021 22.500773 -451.344635 19.085316 -451.344635 19.085316 L -451.70895 14.485835 L -455.488722 13.757204 L -459.906046 16.39849 C -459.906046 16.39849 -461.682083 18.311146 -460.543598 20.223802 C -459.359573 22.136457 -458.585403 24.231271 -459.769427 24.777744 C -460.907913 25.460835 -466.64588 26.326084 -466.64588 26.326084 L -470.425652 30.56125 L -476.163619 33.612391 L -477.803038 37.027848 L -481.491731 41.490711 L -484.542872 45.179404 C -484.542872 45.179404 -488.368184 47.82069 -488.003868 48.959176 C -487.457395 50.097661 -487.366316 54.469446 -487.366316 54.469446 L -487.730632 57.201811 L -490.599615 54.742682 L -490.2353 50.917371 L -491.00947 49.869964 C -493.468599 54.378367 -495.74557 59.023388 -497.703765 63.850566 L -495.836648 65.94538 L -499.024408 69.360836 L -499.024408 72.047662 L -494.834781 75.872973 L -494.242769 78.332102 L -492.694428 83.887911 L -487.958329 82.703886 L -487.639553 85.982725 L -487.320777 82.977123 L -482.35698 80.335837 L -482.265901 80.017061 L -476.937789 80.017061 L -474.250963 81.383243 L -465.962789 83.068202 L -463.822436 87.030131 L -460.634676 90.217891 C -460.634676 90.217891 -457.310299 90.035733 -456.718286 90.035733 C -456.171813 90.035733 -453.25729 94.99953 -453.25729 94.99953 L -451.572332 99.006999 L -443.329697 103.697559 L -438.138203 103.333244 L -435.269219 106.7487 L -431.808223 108.934593 L -432.400236 113.124219 L -436.999717 119.36312 C -436.999717 119.36312 -437.637269 127.878991 -437.637269 128.698701 C -437.637269 129.472871 -439.549925 135.165299 -439.549925 135.165299 L -445.470049 138.034282 L -448.339033 144.774116 L -452.346502 154.519552 L -456.945983 155.157104 L -458.084469 158.208245 L -455.215485 159.574428 L -455.944116 163.217582 L -460.771295 164.356067 L -463.776896 168.317997 L -462.638411 171.23252 C -462.638411 171.23252 -461.636544 173.55503 -462.046399 174.147043 C -462.410714 174.693516 -465.09754 176.424014 -465.09754 176.424014 L -461.090071 178.518827 L -462.638411 182.98169 L -461.090071 187.171317 L -458.03893 190.86001 L -465.552934 187.67225 L -470.881046 179.247458 C -470.881046 179.247458 -473.567872 174.3292 -473.158017 173.782727 C -472.793702 173.281794 -474.569739 166.541959 -474.569739 166.541959 L -477.393183 154.974947 L -478.030735 134.208971 L -478.44059 129.655029 L -486.455528 121.640091 L -489.506669 113.07868 L -492.421192 106.02007 L -492.55781 99.143617 L -489.096814 94.544136 L -487.958329 88.441853 L -487.776171 86.984592 L -490.007603 85.254094 L -493.013204 87.531065 L -498.386856 82.43065 L -499.297644 77.967787 L -502.075549 76.419446 C -505.445466 87.986459 -507.267043 100.191024 -507.267043 112.805443 C -507.267043 155.47588 -486.728764 193.273599 -454.942249 216.954098 L -451.299095 215.132521 L -454.350236 211.30721 L -449.022124 208.848081 L -446.19868 204.612915 C -446.19868 204.567375 -446.289759 204.476297 -446.289759 204.476297 L -446.062062 204.476297 L -446.19868 204.612915 C -445.788825 204.97723 -443.284157 207.254201 -443.284157 208.256068 C -443.284157 209.394554 -439.276688 217.409492 -439.276688 217.409492 L -439.458846 217.819347 L -434.677207 220.141857 L -421.151999 218.775675 L -401.478969 220.141857 L -399.794011 219.91416 L -392.963098 214.039575 L -367.005628 212.85555 L -351.93208 213.447562 C -351.93208 213.447562 -349.381872 209.986566 -347.469217 209.986566 C -345.64764 209.986566 -338.179175 209.394554 -338.179175 209.394554 L -332.668905 205.614782 L -327.158635 210.214264 L -318.369527 209.622251 C -318.369527 209.622251 -323.287785 215.678994 -322.149299 215.906691 C -321.101892 216.134388 -312.039548 211.30721 -312.039548 211.30721 L -293.368385 207.527438 L -288.632286 207.34528 C -263.448986 183.710321 -247.737886 150.102229 -247.737886 112.805443 L -250.971185 109.16229 L -263.17575 90.855443 L -260.488924 90.445588 L -260.580003 90.582206 L -253.840168 98.369447 L -249.650542 101.830443 L -247.828965 108.479198 C -248.102201 99.781169 -249.195148 91.356376 -251.107803 83.159281 L -252.747222 81.428783 L -254.659878 78.51426 L -255.024193 76.601604 L -257.164546 75.280961 L -257.756559 77.193617 L -259.395978 76.783762 L -260.03353 74.506791 L -259.851372 71.273492 L -260.215687 69.178679 L -262.128343 68.768824 L -261.946185 71.045795 L -264.040999 72.002123 L -264.633011 70.317164 L -264.633011 68.768824 L -267.684152 64.852434 L -268.594941 62.347765 L -269.004795 60.252952 L -269.961123 60.252952 L -272.238094 61.573595 L -274.15075 62.75762 L -275.881248 64.897973 C -275.881248 64.897973 -279.387783 68.768824 -279.706559 68.859903 C -279.934256 68.950981 -281.619215 71.136874 -281.619215 71.136874 L -283.167555 73.049529 L -282.985398 77.284695 L -283.714028 81.975256 L -284.260501 83.887911 L -286.218696 85.071936 L -287.584879 83.386978 L -289.269838 79.379509 L -290.408323 75.144343 L -292.594215 70.226085 L -293.459464 65.034591 L -294.097016 62.211147 L -294.643489 64.123803 L -296.373987 64.123803 L -297.057078 62.393305 L -299.561747 58.977848 L -303.022742 55.926707 L -302.840585 55.69901 L -313.678967 55.926707 L -315.227307 54.196209 L -317.640896 54.788222 L -321.329589 52.693408 L -323.424403 49.41457 L -325.154901 46.181271 L -325.154901 51.145068 L -322.468075 53.649736 L -320.783116 56.108865 L -320.054486 58.021521 L -317.595357 59.205545 L -316.59349 57.657205 L -315.090689 56.655338 L -312.813718 59.342164 L -311.128759 61.300359 L -311.265378 64.3515 L -313.45127 67.949114 L -317.094423 70.043928 L -319.781249 73.322766 L -323.424403 74.233554 L -326.657702 77.330235 L -330.255316 73.687081 L -332.987681 69.224218 L -335.44681 64.670276 L -337.723781 60.43511 L -340.774922 54.742682 L -342.323262 51.463844 L -344.964549 51.873699 L -344.418076 54.742682 L -341.913408 59.114467 L -340.000752 62.75762 L -338.315793 65.672143 L -337.359465 70.590401 L -333.351996 73.687081 L -331.621499 77.148077 L -329.526685 80.563534 L -326.111229 81.519861 L -324.42627 79.789364 L -320.783116 79.789364 L -321.147432 84.02453 L -322.695772 86.893513 L -323.6521 90.126812 L -326.156768 92.585941 L -332.623366 100.600879 L -336.266519 106.384385 L -335.537889 113.215298 L -334.353864 118.179095 L -334.353864 123.507207 L -339.317661 128.243307 L -341.458013 132.888328 L -341.640171 137.44227 L -345.602101 141.449739 L -346.011955 145.092892 L -351.886541 154.246316 L -355.119839 154.246316 L -360.493491 154.792789 L -362.588304 156.887602 L -363.134777 152.697976 L -363.544632 149.054822 L -366.960089 144.45534 L -367.187786 141.586357 L -368.872744 134.892062 L -370.056769 133.799116 L -371.377413 126.694967 L -371.195255 122.869655 L -369.464757 118.862186 L -369.646915 114.171626 L -370.7854 106.930858 L -373.335608 104.016335 L -375.202724 100.555339 L -374.474093 98.460526 L -373.699923 95.819239 L -373.699923 92.585941 L -375.794736 91.08314 L -379.073575 90.900982 L -379.984363 88.942787 L -383.035504 88.578472 L -385.540172 89.716957 L -395.103451 89.716957 L -395.649924 91.993928 L -398.29121 91.447455 L -400.978036 89.170484 L -405.577517 83.614675 L -406.89816 79.789364 L -409.175131 75.872973 L -408.765277 72.18428 L -407.672331 69.133139 L -407.444633 59.205545 L -403.664862 54.059591 L -398.29121 49.824425 L -396.196397 43.9043 L -392.735401 40.80762 L -387.589446 40.716541 L -384.94816 38.257412 L -376.523367 38.621727 L -376.341209 36.709072 L -372.880213 36.526914 L -372.880213 42.264881 L -367.552101 45.452641 L -362.223989 48.503782 L -360.129176 45.634798 L -358.21652 43.9043 L -356.66818 45.816956 L -348.288926 47.365296 L -347.104901 44.541852 L -344.645773 44.906167 L -342.550959 45.088325 L -341.776789 40.352225 L -341.958947 37.893097 L -344.281457 37.528781 L -345.966416 38.849425 L -346.922744 37.164466 L -350.702516 38.530649 L -352.842868 36.07152 L -353.935814 33.202536 L -351.294528 32.610524 L -350.565897 31.426499 L -346.922744 29.513843 L -343.097432 29.513843 L -338.725648 30.424632 L -335.674507 29.696001 L -336.99515 27.009175 L -339.272121 25.87069 L -341.958947 23.593719 L -340.638304 21.271208 L -344.645773 21.271208 L -343.689445 23.411561 L -345.192246 24.732204 L -346.558428 23.775876 L -347.104901 21.863221 L -350.565897 21.271208 L -351.476686 25.506374 L -353.025026 28.329818 L -352.842868 31.426499 L -353.799196 31.016644 L -356.486022 30.060316 L -357.624508 31.426499 L -358.170981 33.521312 L -357.214653 36.982308 L -358.945151 37.528781 L -361.222122 35.25181 L -362.406147 34.47764 L -362.406147 30.288014 L -364.683118 27.601188 L -369.282599 23.001706 L -371.377413 23.183864 L -371.969425 24.322349 L -365.411748 30.424632 L -364.683118 31.972972 L -365.867143 31.972972 L -365.27513 34.295483 L -367.187786 35.25181 L -367.961956 32.564985 L -374.610711 24.732204 L -375.976894 25.87069 L -381.897019 26.872557 L -385.130317 30.834487 L -388.773471 37.346624 L -392.416625 38.667267 L -397.016106 36.162599 L -397.016106 32.519445 L -395.832081 28.147661 L -393.145255 25.506374 L -392.371085 27.191333 L -388.409156 26.417163 L -387.817143 26.417163 L -386.678658 24.914362 C -386.678658 24.914362 -387.042973 23.593719 -387.225131 23.593719 C -387.452828 23.593719 -388.181459 22.227536 -388.181459 22.227536 L -389.365484 20.31488 L -391.004903 19.130856 L -390.094114 17.764673 L -388.545774 17.582515 C -388.545774 17.582515 -387.407288 17.354818 -386.997434 17.2182 C -386.633118 17.036042 -385.130317 16.626187 -385.130317 16.626187 L -382.989965 16.079714 L -381.441624 14.531374 L -380.530836 13.392889 C -380.530836 13.392889 -379.802205 12.208864 -379.802205 11.662391 C -379.802205 11.161457 -380.98623 10.569445 -381.122848 9.977432 C -381.259467 9.33988 -380.166521 9.567577 -380.166521 9.567577 L -377.479695 10.93376 C -377.479695 10.93376 -375.794736 10.387287 -375.612579 10.15959 C -375.430421 9.931893 -375.020566 8.838947 -375.020566 8.838947 C -375.020566 8.838947 -375.840276 7.472764 -375.794736 7.108449 C -375.749197 6.789673 -374.610711 5.377951 -374.610711 5.377951 L -372.925753 6.744133 L -373.882081 8.292473 L -374.064238 9.658656 L -372.698056 9.658656 C -372.515898 9.658656 -370.284466 9.795274 -369.100441 9.658656 C -367.916417 9.567577 -367.597641 9.248801 -367.187786 8.930025 C -366.686852 8.56571 -365.821603 8.520171 -365.821603 8.520171 L -364.318802 9.112183 L -364.136645 9.112183 L -361.814134 7.381685 L -361.404279 7.108449 C -361.35874 6.789673 -361.313201 6.516436 -361.35874 6.379818 C -361.495358 6.015502 -361.35874 4.467162 -361.35874 4.467162 C -361.35874 4.467162 -360.038097 2.736664 -359.446084 2.554507 C -358.808532 2.372349 -356.759259 2.918822 -356.394943 2.736664 C -356.030628 2.554507 -354.846603 1.370482 -354.846603 1.370482 L -354.482288 0.0498384 L -356.121707 -0.906489 L -358.034362 -0.496635 L -360.174715 -0.360016 L -361.313201 -1.270805 L -361.313201 -3.456697 L -360.948885 -4.959498 L -359.582703 -6.462299 L -359.582703 -7.236469 L -361.131043 -8.374954 L -362.451686 -7.464166 L -363.408014 -6.280141 L -364.728657 -4.595182 C -364.728657 -4.595182 -365.912682 -3.684394 -365.912682 -3.456697 C -365.912682 -3.229 -366.641313 -2.819145 -366.641313 -2.819145 L -367.051168 -0.906489 L -366.09484 -0.496635 C -366.09484 -0.496635 -365.001894 0.68739 -364.956354 0.824009 C -364.865275 0.960627 -365.32067 1.780336 -365.32067 1.780336 L -367.051168 2.918822 C -367.051168 2.918822 -367.096707 5.241332 -367.187786 5.42349 C -367.278865 5.605648 -369.510296 6.97183 -369.510296 6.97183 L -370.056769 5.42349 L -371.422952 3.510834 L -372.606977 1.233863 C -372.606977 1.233863 -373.335608 1.370482 -374.109778 1.643718 C -374.883948 1.871415 -375.066106 2.554507 -375.066106 2.554507 C -375.066106 2.554507 -376.477828 3.328677 -376.614446 3.328677 C -376.705525 3.328677 -377.525234 2.372349 -377.525234 2.372349 L -378.253865 0.277535 L -377.707392 -1.817278 L -376.159052 -1.999436 L -372.151583 -6.37122 L -369.510296 -9.103585 L -363.544632 -13.839685 L -357.806665 -14.97817 L -352.478553 -14.021843 L -347.104901 -12.109187 L -343.27959 -10.196531 L -345.237785 -9.4679 L -349.472951 -9.650058 L -349.837267 -8.101718 L -348.880939 -6.553378 L -346.968283 -5.187195 L -340.410607 -8.73927 L -340.000752 -9.012506 L -339.727515 -9.103585 L -339.545358 -9.194664 L -339.636436 -9.103585 L -335.082494 -9.832216 C -335.128034 -9.877755 -335.173573 -9.923295 -335.264652 -9.923295 L -339.681976 -9.194664 L -339.545358 -9.285743 C -339.3632 -9.331282 -337.905939 -9.923295 -336.585295 -10.378689 C -349.472951 -14.659394 -363.225856 -16.936365 -377.479695 -16.936365 Z M -405.759675 -8.602651 L -405.759675 -8.557112 L -398.746604 -8.557112 L -397.380422 -6.826614 L -399.520774 -4.731801 L -402.754073 -4.00317 C -402.754073 -4.00317 -403.80148 -3.957631 -406.579384 -6.097983 Z M -388.819011 2.28127 L -387.953762 4.785938 L -385.813409 7.062909 L -385.221396 11.024839 L -383.536438 13.30181 L -386.587579 14.713532 L -390.003035 15.260005 L -390.913824 14.303677 L -389.547641 12.026706 L -387.999301 10.478366 L -388.409156 8.793407 L -391.278139 7.427224 C -391.278139 7.427224 -390.777206 5.469029 -390.367351 3.647453 Z M -393.691729 9.476498 L -392.143388 11.571312 L -393.054177 13.30181 L -395.331148 12.345482 Z M -326.566623 20.906893 C -326.703241 20.906893 -326.79432 20.906893 -326.885399 20.952432 L -326.976478 21.180129 C -327.750648 21.407827 -330.391934 23.593719 -330.391934 23.593719 L -331.166104 26.781478 C -331.166104 26.781478 -330.528552 28.056582 -329.617764 28.466437 C -328.798054 28.921831 -326.976478 31.33542 -326.976478 31.33542 L -325.610295 35.342889 L -322.376996 37.437703 L -319.872328 36.299217 L -322.194838 32.610524 L -323.879797 29.74154 L -325.519216 25.142059 L -326.156768 23.229403 L -324.608428 21.863221 C -324.608428 21.863221 -325.701374 20.906893 -326.566623 20.906893 Z M -375.157184 28.420897 L -374.064238 31.244341 L -374.246396 33.156997 L -375.794736 34.52318 L -377.434155 32.88376 Z M -382.853346 32.974839 L -381.988097 33.976707 L -382.853346 34.113325 Z M -369.783533 35.889362 L -367.278865 38.166333 L -368.963823 39.486976 L -370.922018 36.299217 Z M -492.648889 61.391438 L -487.685092 61.391438 L -483.449926 64.442579 L -483.085611 66.127537 L -485.544739 67.630338 L -487.639553 64.715815 L -491.328246 63.987185 L -494.561545 62.347765 L -492.60335 61.391438 Z M -259.851372 83.022662 L -252.15521 91.720692 L -250.515791 96.957725 C -250.515791 96.957725 -253.794629 96.54787 -254.295563 96.54787 C -254.842036 96.54787 -259.168281 83.796832 -259.851372 83.022662 Z M -281.801373 83.341438 L -281.072742 84.297766 L -280.662887 87.257828 L -282.7577 89.534799 L -283.714028 85.800567 Z M -324.653967 120.273908 L -322.923469 120.410526 L -322.376996 123.097352 L -322.376996 126.512809 L -323.060087 128.243307 L -325.428137 131.88646 L -325.018283 134.937602 L -326.566623 137.39673 L -329.071291 141.222042 L -331.166104 140.630029 L -332.122432 136.941336 L -332.122432 133.52588 L -329.617764 131.339987 L -330.574092 130.474738 L -332.122432 128.334386 L -329.982079 126.649427 L -327.067556 125.237705 C -327.067556 125.237705 -324.790585 123.325049 -324.653967 122.960734 Z M -449.932913 178.108972 L -449.796294 178.154512 L -449.887373 178.200051 L -448.794427 180.795798 L -451.845568 179.247458 L -451.208016 179.0653 L -449.887373 178.200051 Z M -455.261025 179.247458 L -455.124407 179.247458 L -455.215485 179.338536 L -453.849303 181.706586 L -456.536129 182.344138 L -455.215485 179.338536 Z M -444.286025 223.967168 L -444.468182 223.967168 C -442.965381 224.877957 -441.417041 225.788745 -439.868701 226.608455 L -435.99785 226.608455 Z M -444.286025 223.967168 " transform="matrix(0.0857773,0,0,0.0857773,48.043264,7.816037)"/>
<path style=" stroke:none;fill-rule:nonzero;fill:rgb(60.000002%,60.000002%,60.000002%);fill-opacity:1;" d="M 10.808594 12.238281 L 10.660156 11.613281 L 10.574219 11.496094 C 10.457031 11.335938 10.453125 11.332031 10.402344 11.386719 C 10.316406 11.464844 10.304688 11.472656 10.242188 11.472656 C 10.105469 11.472656 9.894531 11.324219 9.75 11.121094 L 9.667969 11 L 9.492188 11 L 9.484375 11.082031 C 9.464844 11.3125 9.410156 11.582031 9.425781 12.132812 C 9.433594 12.46875 9.433594 12.742188 9.4375 12.75 C 9.445312 12.765625 9.855469 12.863281 10.042969 12.902344 C 10.246094 12.949219 10.292969 13.296875 10.394531 13.089844 C 10.425781 13.027344 10.472656 13.011719 10.507812 12.996094 C 10.984375 12.734375 10.835938 12.558594 10.808594 12.238281 Z M 10.808594 12.238281 "/>
<path style=" stroke:none;fill-rule:nonzero;fill:rgb(59.215689%,59.215689%,59.215689%);fill-opacity:1;" d="M 12.03125 28.339844 C 11.035156 27.019531 10.601562 25.710938 10.613281 23.074219 C 10.617188 21.167969 11.285156 18.824219 11.382812 18.496094 C 11.40625 18.417969 11.683594 18.136719 11.867188 18.160156 C 12.03125 18.183594 12.136719 18.433594 12.195312 18.574219 C 12.226562 18.652344 12.46875 18.996094 12.472656 20.152344 C 12.480469 22.617188 12.75 24.621094 13.296875 26.246094 C 13.566406 27.054688 13.792969 27.464844 14.1875 27.878906 C 14.523438 28.230469 15.050781 28.355469 16.164062 28.359375 C 16.785156 28.359375 16.855469 28.378906 16.855469 28.527344 C 15.347656 30.246094 12.910156 29.097656 12.03125 28.339844 Z M 12.03125 28.339844 "/>
<path style=" stroke:none;fill-rule:nonzero;fill:rgb(59.215689%,59.215689%,59.215689%);fill-opacity:1;" d="M 24.917969 23.628906 C 24.800781 23.492188 25.933594 21.910156 25.808594 21.113281 C 25.738281 20.699219 25.574219 20.4375 25.375 20.4375 C 25.339844 20.4375 25.125 20.617188 24.894531 20.835938 C 24.660156 21.058594 24.144531 21.539062 23.746094 21.910156 C 23.347656 22.277344 22.839844 22.761719 22.613281 22.980469 C 22.386719 23.199219 22.214844 23.246094 22.152344 23.246094 C 22 23.246094 21.574219 22.925781 21.589844 22.808594 C 21.605469 22.695312 21.613281 22.65625 21.722656 22.421875 C 22.230469 21.351562 22.617188 20.519531 22.863281 19.976562 C 23.011719 19.652344 23.246094 19.160156 23.378906 18.878906 L 23.628906 18.371094 L 23.605469 17.941406 L 23.308594 17.613281 L 21.386719 17.378906 C 20.328125 17.253906 19.605469 17.191406 19.355469 17.011719 C 19.222656 16.910156 19.085938 16.929688 19.085938 16.625 C 19.085938 16.410156 19.257812 16.285156 19.332031 16.226562 C 19.394531 16.171875 20.152344 15.832031 21.160156 15.554688 C 22.933594 15.066406 26.042969 14.089844 26.160156 13.980469 C 26.3125 13.835938 25.328125 11.882812 24.738281 11.152344 C 24.144531 10.417969 23.898438 10.136719 23.714844 9.980469 C 23.300781 9.621094 22.855469 9.101562 22.933594 9.125 C 25.601562 9.535156 27.660156 12.089844 28.179688 15.039062 C 28.265625 16.628906 28.082031 16.835938 28.089844 18.152344 C 27.898438 19.59375 27.867188 19.597656 27.746094 20.144531 C 27.601562 20.707031 27.574219 21.054688 26.9375 21.855469 L 25.757812 23.339844 L 25.402344 23.542969 C 25.246094 23.648438 25.121094 23.691406 25.011719 23.660156 Z M 24.917969 23.628906 "/>
<path style=" stroke:none;fill-rule:nonzero;fill:rgb(59.215689%,59.215689%,59.215689%);fill-opacity:1;" d="M 4.300781 19.699219 C 4.25 19.632812 4.246094 18.972656 4.292969 17.914062 C 4.375 16.066406 4.492188 17.464844 4.148438 17.53125 C 3.832031 17.589844 4.335938 15.660156 4.394531 14.605469 C 4.429688 13.902344 4.542969 13.136719 5.105469 12.007812 C 6.191406 9.832031 6.011719 10.105469 6.191406 9.832031 C 6.6875 9.003906 7.226562 8.183594 7.789062 7.941406 C 9.035156 7.363281 10.863281 6.769531 12.210938 7.164062 C 12.226562 7.210938 12.019531 7.347656 11.753906 7.472656 C 11.007812 7.824219 10.953125 7.878906 11.0625 8.171875 C 11.183594 8.488281 11.28125 8.546875 11.667969 8.550781 C 11.914062 8.550781 11.988281 8.511719 12.035156 8.363281 C 13.042969 6.105469 15.574219 4.839844 17.964844 4.96875 C 19.3125 5.167969 20.066406 6.367188 20.351562 7.445312 C 20.382812 7.566406 20.4375 7.558594 20.371094 7.527344 C 20.300781 7.492188 20.105469 7.40625 19.804688 7.300781 C 18.855469 6.964844 17.617188 7.539062 16.691406 8.832031 L 16.402344 9.242188 L 16.429688 10.519531 L 16.320312 11.742188 L 15.640625 13.472656 C 14.816406 15.5625 14.144531 15.523438 13.835938 15.90625 C 13.804688 15.945312 13.648438 16.097656 13.457031 16.195312 L 13.121094 16.371094 L 12.496094 16.535156 C 9.785156 17.148438 9.5625 14.957031 9.441406 12.574219 C 9.527344 12.488281 10.082031 12.675781 10.289062 12.863281 C 10.40625 12.96875 10.5625 12.941406 10.617188 12.933594 C 10.699219 12.925781 10.644531 12.863281 10.605469 12.605469 C 10.507812 11.871094 10.464844 11.757812 10.253906 11.617188 C 10.050781 11.488281 10.054688 11.515625 9.898438 11.476562 C 9.589844 11.355469 9.699219 11.449219 9.542969 11.300781 C 9.558594 9.535156 9.164062 9.308594 8.605469 9.941406 C 8.5 9.984375 7.78125 10.964844 7.566406 11.363281 C 7.175781 12.078125 7.191406 12.019531 7.335938 12.246094 C 7.410156 12.363281 7.566406 12.714844 7.761719 12.902344 C 8.070312 13.191406 8.269531 13.402344 8.222656 13.589844 C 8.105469 14.082031 7.980469 13.863281 7.292969 13.832031 L 6.664062 13.800781 L 6.589844 14.082031 C 6.542969 14.257812 6.582031 15.003906 6.691406 16.179688 C 6.988281 19.292969 7.007812 19.140625 6.785156 19.410156 C 6.652344 19.566406 6.539062 19.628906 6.449219 19.59375 C 6.375 19.566406 6.167969 19.203125 5.996094 18.785156 C 5.824219 18.371094 5.644531 18.046875 5.597656 18.0625 C 5.554688 18.074219 5.378906 18.425781 5.210938 18.839844 C 5.042969 19.257812 4.878906 19.644531 4.839844 19.699219 C 4.753906 19.835938 4.40625 19.835938 4.300781 19.699219 Z M 4.300781 19.699219 "/>
<path style=" stroke:none;fill-rule:nonzero;fill:rgb(60.000002%,60.000002%,60.000002%);fill-opacity:1;" d="M 12.539062 13.421875 C 12.527344 13.097656 12.511719 12.828125 12.503906 12.824219 C 12.496094 12.816406 12.324219 12.789062 12.117188 12.757812 L 11.746094 12.699219 L 11.800781 13.304688 C 11.855469 13.960938 11.925781 14.066406 12.316406 14.03125 L 12.558594 14.007812 Z M 12.539062 13.421875 "/>
<path style=" stroke:none;fill-rule:nonzero;fill:rgb(60.000002%,60.000002%,60.000002%);fill-opacity:1;" d="M 13.878906 13.683594 C 14.082031 13.429688 14.253906 13.402344 14.363281 13.605469 C 14.433594 13.722656 14.503906 13.734375 14.855469 13.667969 L 15.261719 13.589844 L 15.285156 13.007812 C 15.300781 12.691406 15.289062 12.367188 15.257812 12.292969 C 15.214844 12.179688 15.183594 12.1875 15.054688 12.347656 C 14.855469 12.589844 14.464844 12.746094 14.347656 12.625 C 14.214844 12.488281 13.824219 12.523438 13.644531 12.683594 C 13.488281 12.824219 13.035156 13.761719 13.035156 13.945312 C 13.035156 14.117188 13.703125 13.910156 13.878906 13.683594 Z M 13.878906 13.683594 "/>
<path style=" stroke:none;fill-rule:nonzero;fill:rgb(60.000002%,60.000002%,60.000002%);fill-opacity:1;" d="M 12.808594 13.277344 C 12.808594 13.257812 12.863281 13.175781 12.957031 13.050781 C 13.097656 12.863281 13.113281 12.84375 13.308594 12.691406 L 13.519531 12.527344 L 13.675781 12.078125 L 13.765625 11.992188 C 13.886719 11.875 13.886719 11.875 13.941406 11.910156 C 14.410156 13 14.339844 12.390625 13.785156 12.875 C 13.613281 12.949219 13.382812 13.113281 13.246094 13.183594 C 13.09375 13.253906 12.917969 13.3125 12.847656 13.3125 C 12.816406 13.3125 12.808594 13.308594 12.808594 13.277344 Z M 12.808594 13.277344 "/>
<path style=" stroke:none;fill-rule:nonzero;fill:rgb(60.000002%,60.000002%,60.000002%);fill-opacity:1;" d="M 12.699219 13.300781 C 12.683594 13.292969 12.675781 13.269531 12.675781 13.246094 C 12.675781 13.09375 13.058594 12.277344 13.238281 12.050781 C 13.328125 11.9375 13.503906 11.863281 13.691406 11.863281 C 13.75 11.863281 13.816406 11.863281 13.832031 11.871094 C 13.863281 11.878906 13.859375 11.886719 13.761719 11.980469 L 13.660156 12.078125 L 13.511719 12.511719 L 13.300781 12.679688 C 13.105469 12.839844 13.085938 12.855469 12.945312 13.046875 C 12.847656 13.175781 12.796875 13.257812 12.796875 13.277344 C 12.796875 13.308594 12.789062 13.3125 12.757812 13.3125 C 12.738281 13.3125 12.710938 13.308594 12.699219 13.300781 Z M 12.699219 13.300781 "/>
<path style=" stroke:none;fill-rule:nonzero;fill:rgb(56.862748%,47.843137%,47.843137%);fill-opacity:1;" d="M 8.195312 5.085938 C 8.097656 4.175781 8.035156 3.371094 8.0625 3.308594 C 8.089844 3.238281 8.164062 2.835938 8.433594 2.78125 C 8.851562 2.691406 9.089844 3.003906 9.175781 3.117188 C 9.226562 3.191406 9.566406 4.054688 9.925781 5.039062 C 10.28125 6.019531 10.613281 6.871094 10.660156 6.925781 C 10.804688 7.550781 10.6875 7.148438 11.0625 8.171875 C 11.183594 8.484375 11.28125 8.546875 11.667969 8.546875 C 11.914062 8.550781 13.300781 8.941406 13.347656 8.792969 C 14.238281 7.433594 14.164062 7.648438 15.480469 4.769531 L 15.917969 3.886719 C 16.230469 3.257812 16.414062 3.0625 16.503906 3.003906 C 16.589844 2.949219 16.90625 2.734375 17.109375 2.785156 C 17.636719 3.066406 17.445312 3.753906 17.40625 3.960938 C 16.933594 5.945312 16.867188 6.066406 16.398438 9.238281 L 16.425781 10.519531 L 16.363281 11.816406 C 15.691406 13.402344 15.097656 15.296875 13.644531 16.183594 C 13.351562 16.375 12.832031 16.445312 12.496094 16.535156 C 9.882812 17.394531 9.496094 14.742188 9.421875 12.628906 C 9.425781 12.332031 10.355469 12.644531 10.5625 12.832031 C 10.679688 12.9375 10.5625 12.941406 10.617188 12.933594 C 10.695312 12.921875 10.644531 12.863281 10.605469 12.605469 C 10.503906 11.871094 10.464844 11.753906 10.253906 11.617188 C 10.050781 11.484375 10.050781 11.511719 9.898438 11.476562 C 9.589844 11.355469 9.699219 11.449219 9.539062 11.296875 C 9.480469 10.820312 9.269531 10.296875 9.128906 9.871094 C 8.890625 8.054688 8.386719 6.800781 8.195312 5.085938 Z M 8.195312 5.085938 "/>
<path style=" stroke:none;fill-rule:nonzero;fill:rgb(56.862748%,47.843137%,47.843137%);fill-opacity:1;" d="M 10.820312 12.121094 L 10.667969 11.496094 L 10.582031 11.378906 C 10.46875 11.21875 10.464844 11.214844 10.414062 11.265625 C 10.332031 11.347656 10.316406 11.355469 10.253906 11.355469 C 10.113281 11.355469 9.90625 11.207031 9.761719 11.003906 L 9.679688 10.882812 L 9.503906 10.882812 L 9.496094 10.964844 C 9.476562 11.195312 9.421875 11.464844 9.4375 12.015625 C 9.445312 12.351562 9.441406 12.625 9.449219 12.632812 C 9.457031 12.648438 9.863281 12.746094 10.058594 12.785156 C 10.257812 12.832031 10.300781 13.179688 10.410156 12.96875 C 10.4375 12.910156 10.480469 12.894531 10.519531 12.878906 C 10.996094 12.617188 10.847656 12.441406 10.820312 12.121094 Z M 10.820312 12.121094 "/>
<path style=" stroke:none;fill-rule:nonzero;fill:rgb(56.862748%,47.843137%,47.843137%);fill-opacity:1;" d="M 12.550781 13.304688 C 12.539062 12.980469 12.523438 12.710938 12.515625 12.707031 C 12.503906 12.699219 12.332031 12.671875 12.128906 12.640625 L 11.761719 12.582031 L 11.8125 13.1875 C 11.867188 13.84375 11.941406 13.949219 12.324219 13.914062 L 12.574219 13.890625 Z M 12.550781 13.304688 "/>
<path style=" stroke:none;fill-rule:nonzero;fill:rgb(56.862748%,47.843137%,47.843137%);fill-opacity:1;" d="M 13.894531 13.566406 C 14.09375 13.3125 14.261719 13.285156 14.378906 13.488281 C 14.445312 13.605469 14.519531 13.617188 14.863281 13.550781 L 15.273438 13.472656 L 15.296875 12.890625 C 15.3125 12.574219 15.300781 12.25 15.269531 12.175781 C 15.226562 12.0625 15.195312 12.070312 15.066406 12.230469 C 14.867188 12.472656 14.480469 12.628906 14.359375 12.507812 C 14.222656 12.371094 13.839844 12.40625 13.65625 12.566406 C 13.503906 12.707031 13.046875 13.644531 13.046875 13.828125 C 13.046875 13.996094 13.714844 13.792969 13.894531 13.566406 Z M 13.894531 13.566406 "/>
<path style=" stroke:none;fill-rule:nonzero;fill:rgb(56.862748%,47.843137%,47.843137%);fill-opacity:1;" d="M 12.824219 13.160156 C 12.824219 13.140625 12.878906 13.058594 12.96875 12.933594 C 13.109375 12.746094 13.125 12.726562 13.324219 12.574219 L 13.527344 12.410156 L 13.6875 11.957031 L 13.777344 11.875 C 13.898438 11.757812 13.902344 11.757812 13.957031 11.792969 C 14.421875 12.882812 14.351562 12.269531 13.800781 12.757812 C 13.621094 12.832031 13.394531 12.996094 13.253906 13.066406 C 13.105469 13.136719 12.933594 13.195312 12.859375 13.195312 C 12.828125 13.195312 12.824219 13.191406 12.824219 13.160156 Z M 12.824219 13.160156 "/>
<path style=" stroke:none;fill-rule:nonzero;fill:rgb(56.862748%,47.843137%,47.843137%);fill-opacity:1;" d="M 12.707031 13.183594 C 12.695312 13.171875 12.683594 13.152344 12.683594 13.128906 C 12.683594 12.976562 13.070312 12.160156 13.25 11.933594 C 13.339844 11.820312 13.515625 11.746094 13.703125 11.746094 C 13.761719 11.746094 13.824219 11.746094 13.84375 11.753906 C 13.875 11.761719 13.871094 11.769531 13.777344 11.863281 L 13.675781 11.957031 L 13.597656 12.175781 L 13.527344 12.394531 L 13.316406 12.5625 C 13.113281 12.722656 13.097656 12.738281 12.957031 12.929688 C 12.863281 13.054688 12.808594 13.140625 12.808594 13.160156 C 12.808594 13.191406 12.800781 13.195312 12.769531 13.195312 C 12.75 13.195312 12.722656 13.1875 12.707031 13.183594 Z M 12.707031 13.183594 "/>
<path style=" stroke:none;fill-rule:nonzero;fill:rgb(56.862748%,47.843137%,47.843137%);fill-opacity:1;" d="M 12.621094 13.191406 L 12.765625 12.632812 L 12.996094 12.25 L 13.320312 12.070312 L 13.691406 12.003906 L 14.042969 12.042969 L 14.183594 12.144531 L 14.195312 12.550781 L 14.054688 12.871094 L 13.957031 13.039062 L 13.613281 13.246094 L 13.269531 13.308594 L 12.917969 13.289062 Z M 12.621094 13.191406 "/>
<path style=" stroke:none;fill-rule:nonzero;fill:rgb(56.862748%,47.843137%,47.843137%);fill-opacity:1;" d="M 12.664062 12.949219 C 12.664062 12.949219 12.941406 12.394531 13.371094 12.285156 C 13.742188 12.195312 14.207031 12.167969 14.207031 12.167969 L 14.078125 12.105469 L 13.6875 11.980469 L 13.136719 12.160156 L 12.902344 12.375 L 12.761719 12.640625 Z M 12.664062 12.949219 "/>
<path style=" stroke:none;fill-rule:nonzero;fill:rgb(56.862748%,47.843137%,47.843137%);fill-opacity:1;" d="M 12.683594 12.917969 C 12.683594 12.917969 12.902344 12.363281 13.332031 12.199219 C 13.683594 12.0625 14.195312 12.136719 14.195312 12.136719 L 14.074219 12.089844 L 13.6875 11.980469 L 13.136719 12.160156 L 12.898438 12.367188 L 12.707031 12.761719 Z M 12.683594 12.917969 "/>
<path style=" stroke:none;fill-rule:evenodd;fill:rgb(56.862748%,47.843137%,47.843137%);fill-opacity:1;" d="M 13.238281 12.046875 C 13.785156 11.808594 14.269531 12.042969 14.269531 12.042969 L 14.210938 12.097656 C 14.339844 12.453125 14.214844 12.863281 13.910156 13.105469 C 13.605469 13.347656 13.066406 13.445312 12.628906 13.207031 L 12.597656 13.191406 C 12.640625 12.773438 12.761719 12.253906 13.238281 12.046875 Z M 13.28125 12.144531 C 13.035156 12.230469 12.867188 12.488281 12.765625 12.730469 C 12.675781 12.957031 12.640625 13.144531 12.636719 13.171875 C 13.128906 13.382812 13.554688 13.292969 13.832031 13.074219 C 14.113281 12.851562 14.246094 12.492188 14.125 12.160156 C 14.105469 12.144531 13.800781 11.957031 13.28125 12.144531 Z M 13.28125 12.144531 "/>
<path style=" stroke:none;fill-rule:evenodd;fill:rgb(56.862748%,47.843137%,47.843137%);fill-opacity:1;" d="M 13.878906 12.578125 C 13.808594 12.371094 13.550781 12.265625 13.304688 12.347656 C 13.058594 12.429688 12.910156 12.664062 12.980469 12.875 C 13.050781 13.082031 13.304688 13.183594 13.550781 13.105469 C 13.800781 13.023438 13.945312 12.785156 13.878906 12.578125 Z M 13.878906 12.578125 "/>
<path style=" stroke:none;fill-rule:evenodd;fill:rgb(56.862748%,47.843137%,47.843137%);fill-opacity:1;" d="M 13.589844 12.675781 C 13.558594 12.59375 13.457031 12.550781 13.351562 12.585938 C 13.25 12.621094 13.1875 12.714844 13.214844 12.800781 C 13.246094 12.882812 13.347656 12.921875 13.453125 12.886719 C 13.554688 12.855469 13.613281 12.761719 13.589844 12.675781 Z M 13.589844 12.675781 "/>
<path style=" stroke:none;fill-rule:evenodd;fill:rgb(56.862748%,47.843137%,47.843137%);fill-opacity:1;" d="M 13.414062 12.667969 C 13.402344 12.636719 13.355469 12.617188 13.316406 12.632812 C 13.269531 12.644531 13.246094 12.6875 13.253906 12.722656 C 13.269531 12.757812 13.3125 12.777344 13.355469 12.761719 C 13.402344 12.746094 13.425781 12.707031 13.414062 12.667969 Z M 13.414062 12.667969 "/>
<path style=" stroke:none;fill-rule:nonzero;fill:rgb(56.862748%,47.843137%,47.843137%);fill-opacity:1;" d="M 10.882812 12.941406 L 10.949219 12.523438 L 10.882812 12.199219 L 10.6875 11.988281 L 10.414062 11.839844 L 10.125 11.769531 L 9.980469 11.796875 L 9.847656 12.066406 L 9.855469 12.324219 L 9.878906 12.464844 L 10.085938 12.699219 L 10.339844 12.839844 L 10.621094 12.921875 Z M 10.882812 12.941406 "/>
<path style=" stroke:none;fill-rule:nonzero;fill:rgb(56.862748%,47.843137%,47.843137%);fill-opacity:1;" d="M 10.925781 12.765625 C 10.925781 12.765625 10.886719 12.3125 10.578125 12.121094 C 10.316406 11.953125 9.957031 11.808594 9.957031 11.808594 L 10.078125 11.800781 L 10.425781 11.824219 L 10.800781 12.101562 L 10.921875 12.3125 L 10.949219 12.53125 Z M 10.925781 12.765625 "/>
<path style=" stroke:none;fill-rule:nonzero;fill:rgb(56.862748%,47.843137%,47.843137%);fill-opacity:1;" d="M 10.921875 12.738281 C 10.921875 12.738281 10.921875 12.304688 10.636719 12.074219 C 10.402344 11.882812 9.976562 11.789062 9.976562 11.789062 L 10.089844 11.792969 L 10.425781 11.824219 L 10.800781 12.101562 L 10.925781 12.308594 L 10.949219 12.628906 Z M 10.921875 12.738281 "/>
<path style=" stroke:none;fill-rule:evenodd;fill:rgb(56.862748%,47.843137%,47.843137%);fill-opacity:1;" d="M 10.757812 11.996094 C 10.402344 11.683594 9.949219 11.707031 9.949219 11.707031 L 9.976562 11.757812 C 9.761719 11.960938 9.730469 12.273438 9.894531 12.519531 C 10.058594 12.769531 10.457031 12.988281 10.875 12.949219 L 10.902344 12.949219 C 11.003906 12.652344 11.070312 12.269531 10.757812 11.996094 Z M 10.691406 12.050781 C 10.863281 12.175781 10.910156 12.398438 10.914062 12.589844 C 10.917969 12.769531 10.882812 12.902344 10.878906 12.925781 C 10.425781 12.925781 10.117188 12.75 9.964844 12.519531 C 9.816406 12.292969 9.824219 12.011719 10.023438 11.824219 C 10.042969 11.820312 10.34375 11.777344 10.691406 12.050781 Z M 10.691406 12.050781 "/>
<path style=" stroke:none;fill-rule:evenodd;fill:rgb(56.862748%,47.843137%,47.843137%);fill-opacity:1;" d="M 10.058594 12.277344 C 10.089844 12.132812 10.242188 12.054688 10.394531 12.097656 C 10.550781 12.144531 10.648438 12.292969 10.617188 12.4375 C 10.582031 12.582031 10.433594 12.660156 10.277344 12.613281 C 10.125 12.570312 10.027344 12.417969 10.058594 12.277344 Z M 10.058594 12.277344 "/>
<path style=" stroke:none;fill-rule:evenodd;fill:rgb(56.862748%,47.843137%,47.843137%);fill-opacity:1;" d="M 10.203125 12.332031 C 10.21875 12.273438 10.285156 12.242188 10.355469 12.261719 C 10.425781 12.277344 10.46875 12.339844 10.457031 12.394531 C 10.441406 12.453125 10.375 12.484375 10.304688 12.464844 C 10.234375 12.449219 10.191406 12.386719 10.203125 12.332031 Z M 10.203125 12.332031 "/>
<path style=" stroke:none;fill-rule:evenodd;fill:rgb(56.862748%,47.843137%,47.843137%);fill-opacity:1;" d="M 10.316406 12.332031 C 10.320312 12.308594 10.351562 12.296875 10.378906 12.304688 C 10.410156 12.3125 10.429688 12.339844 10.421875 12.363281 C 10.417969 12.386719 10.386719 12.398438 10.359375 12.390625 C 10.328125 12.382812 10.308594 12.355469 10.316406 12.332031 Z M 10.316406 12.332031 "/>
<path style=" stroke:none;fill-rule:nonzero;fill:rgb(81.960785%,89.019608%,95.294118%);fill-opacity:1;" d="M 12.609375 13.3125 L 12.753906 12.75 L 12.984375 12.367188 L 13.308594 12.1875 L 13.683594 12.121094 L 14.03125 12.160156 L 14.171875 12.261719 L 14.183594 12.667969 L 14.042969 12.988281 L 13.949219 13.15625 L 13.605469 13.363281 L 13.257812 13.425781 L 12.910156 13.40625 Z M 12.609375 13.3125 "/>
<path style=" stroke:none;fill-rule:evenodd;fill:rgb(0%,0%,0%);fill-opacity:1;" d="M 13.226562 12.164062 C 13.769531 11.925781 14.253906 12.160156 14.253906 12.160156 L 14.199219 12.214844 C 14.328125 12.570312 14.203125 12.980469 13.898438 13.222656 C 13.59375 13.464844 13.050781 13.5625 12.617188 13.324219 L 12.585938 13.308594 C 12.628906 12.890625 12.746094 12.371094 13.226562 12.164062 Z M 13.269531 12.261719 C 13.019531 12.347656 12.855469 12.605469 12.753906 12.847656 C 12.660156 13.074219 12.628906 13.261719 12.625 13.289062 C 13.117188 13.5 13.542969 13.410156 13.820312 13.191406 C 14.101562 12.96875 14.230469 12.609375 14.113281 12.277344 C 14.097656 12.265625 13.789062 12.074219 13.269531 12.261719 Z M 13.269531 12.261719 "/>
<path style=" stroke:none;fill-rule:nonzero;fill:rgb(81.960785%,89.019608%,95.294118%);fill-opacity:1;" d="M 10.871094 13.058594 L 10.9375 12.640625 L 10.871094 12.316406 L 10.675781 12.105469 L 10.402344 11.957031 L 10.113281 11.886719 L 9.972656 11.914062 L 9.832031 12.183594 L 9.84375 12.441406 L 9.867188 12.582031 L 10.074219 12.816406 L 10.324219 12.957031 L 10.605469 13.039062 Z M 10.871094 13.058594 "/>
<path style=" stroke:none;fill-rule:evenodd;fill:rgb(0%,0%,0%);fill-opacity:1;" d="M 10.746094 12.113281 C 10.394531 11.800781 9.9375 11.824219 9.9375 11.824219 L 9.964844 11.875 C 9.75 12.078125 9.722656 12.390625 9.886719 12.636719 C 10.050781 12.886719 10.445312 13.105469 10.863281 13.066406 L 10.890625 13.066406 C 10.988281 12.769531 11.058594 12.386719 10.746094 12.113281 Z M 10.683594 12.167969 C 10.847656 12.296875 10.898438 12.519531 10.902344 12.707031 C 10.90625 12.886719 10.871094 13.023438 10.867188 13.042969 C 10.410156 13.046875 10.105469 12.867188 9.957031 12.636719 C 9.804688 12.410156 9.816406 12.132812 10.011719 11.941406 C 10.03125 11.9375 10.332031 11.894531 10.683594 12.167969 Z M 10.683594 12.167969 "/>
</g>
</svg>
