
<svg xmlns="http://www.w3.org/2000/svg" xmlns:xlink="http://www.w3.org/1999/xlink" width="32px" height="32px" viewBox="0 0 32 32" version="1.1">
<defs>
<clipPath id="clip1">
  <path d="M 1.175781 1.332031 L 18.667969 1.332031 L 18.667969 27 L 1.175781 27 Z M 1.175781 1.332031 "/>
</clipPath>
</defs>
<g id="surface1">
<path style="fill-rule:nonzero;fill:rgb(80.000001%,80.000001%,80.000001%);fill-opacity:1;stroke-width:28.191782;stroke-linecap:butt;stroke-linejoin:miter;stroke:rgb(35.294119%,49.803922%,53.333336%);stroke-opacity:1;stroke-miterlimit:4;" d="M 294.642843 57.996122 L 643.642843 57.996122 C 674.830343 57.996122 700.080343 83.246122 700.080343 114.433622 L 700.080343 463.433622 C 700.080343 494.621122 674.830343 519.871122 643.642843 519.871122 L 294.642843 519.871122 C 263.455343 519.871122 238.205343 494.621122 238.205343 463.433622 L 238.205343 114.433622 C 238.205343 83.246122 263.455343 57.996122 294.642843 57.996122 Z M 294.642843 57.996122 " transform="matrix(0.0625,0,0,0.0625,-13.321428,-2.058351)"/>
<path style=" stroke:none;fill-rule:nonzero;fill:rgb(20%,20%,20%);fill-opacity:1;" d="M 28.265625 16 C 28.265625 22.609375 22.910156 27.964844 16.300781 27.964844 C 9.691406 27.964844 4.335938 22.609375 4.335938 16 C 4.335938 9.390625 9.691406 4.035156 16.300781 4.035156 C 22.910156 4.035156 28.265625 9.390625 28.265625 16 Z M 28.265625 16 "/>
<path style=" stroke:none;fill-rule:nonzero;fill:rgb(29.803923%,29.803923%,29.803923%);fill-opacity:1;" d="M 21.285156 16 C 21.285156 18.753906 19.054688 20.984375 16.300781 20.984375 C 13.546875 20.984375 11.316406 18.753906 11.316406 16 C 11.316406 13.246094 13.546875 11.015625 16.300781 11.015625 C 19.054688 11.015625 21.285156 13.246094 21.285156 16 Z M 21.285156 16 "/>
<path style=" stroke:none;fill-rule:nonzero;fill:rgb(9.803922%,72.941178%,61.176473%);fill-opacity:1;" d="M 19.957031 16 C 19.957031 18.019531 18.320312 19.65625 16.300781 19.65625 C 14.28125 19.65625 12.644531 18.019531 12.644531 16 C 12.644531 13.980469 14.28125 12.34375 16.300781 12.34375 C 18.320312 12.34375 19.957031 13.980469 19.957031 16 Z M 19.957031 16 "/>
<path style=" stroke:none;fill-rule:nonzero;fill:rgb(20%,20%,20%);fill-opacity:1;" d="M 16.632812 16 C 16.632812 16.183594 16.484375 16.332031 16.300781 16.332031 C 16.117188 16.332031 15.96875 16.183594 15.96875 16 C 15.96875 15.816406 16.117188 15.667969 16.300781 15.667969 C 16.484375 15.667969 16.632812 15.816406 16.632812 16 Z M 16.632812 16 "/>
<path style="fill:none;stroke-width:0.814285;stroke-linecap:butt;stroke-linejoin:miter;stroke:rgb(29.803923%,29.803923%,29.803923%);stroke-opacity:1;stroke-miterlimit:4;" d="M 82.044264 116.362078 C 82.044264 197.037166 16.681174 262.448106 -63.993914 262.448106 C -144.669001 262.448106 -210.032091 197.037166 -210.032091 116.362078 C -210.032091 35.68699 -144.669001 -29.72395 -63.993914 -29.72395 C 16.681174 -29.72395 82.044264 35.68699 82.044264 116.362078 Z M 82.044264 116.362078 " transform="matrix(0.0816353,0,0,0.0816353,21.524946,6.500743)"/>
<path style="fill:none;stroke-width:0.814286;stroke-linecap:butt;stroke-linejoin:miter;stroke:rgb(29.803923%,29.803923%,29.803923%);stroke-opacity:1;stroke-miterlimit:4;" d="M 73.909765 116.362078 C 73.909765 192.539266 12.183275 254.313607 -63.993914 254.313607 C -140.171102 254.313607 -201.897593 192.539266 -201.897593 116.362078 C -201.897593 40.18489 -140.171102 -21.589451 -63.993914 -21.589451 C 12.183275 -21.589451 73.909765 40.18489 73.909765 116.362078 Z M 73.909765 116.362078 " transform="matrix(0.0816353,0,0,0.0816353,21.524946,6.500743)"/>
<path style="fill:none;stroke-width:0.814286;stroke-linecap:butt;stroke-linejoin:miter;stroke:rgb(29.803923%,29.803923%,29.803923%);stroke-opacity:1;stroke-miterlimit:4;" d="M 69.842516 116.362078 C 69.842516 190.290317 9.934325 250.198508 -63.993914 250.198508 C -137.922152 250.198508 -197.878193 190.290317 -197.878193 116.362078 C -197.878193 42.433839 -137.922152 -17.474352 -63.993914 -17.474352 C 9.934325 -17.474352 69.842516 42.433839 69.842516 116.362078 Z M 69.842516 116.362078 " transform="matrix(0.0816353,0,0,0.0816353,21.524946,6.500743)"/>
<path style="fill:none;stroke-width:0.814286;stroke-linecap:butt;stroke-linejoin:miter;stroke:rgb(29.803923%,29.803923%,29.803923%);stroke-opacity:1;stroke-miterlimit:4;" d="M 65.775267 116.362078 C 65.775267 188.041367 7.685375 246.131258 -63.993914 246.131258 C -135.673203 246.131258 -193.763094 188.041367 -193.763094 116.362078 C -193.763094 44.682789 -135.673203 -13.407102 -63.993914 -13.407102 C 7.685375 -13.407102 65.775267 44.682789 65.775267 116.362078 Z M 65.775267 116.362078 " transform="matrix(0.0816353,0,0,0.0816353,21.524946,6.500743)"/>
<path style="fill:none;stroke-width:0.814286;stroke-linecap:butt;stroke-linejoin:miter;stroke:rgb(29.803923%,29.803923%,29.803923%);stroke-opacity:1;stroke-miterlimit:4;" d="M 61.708017 116.362078 C 61.708017 185.792417 5.436426 242.064009 -63.993914 242.064009 C -133.424253 242.064009 -189.695845 185.792417 -189.695845 116.362078 C -189.695845 46.931739 -133.424253 -9.339853 -63.993914 -9.339853 C 5.436426 -9.339853 61.708017 46.931739 61.708017 116.362078 Z M 61.708017 116.362078 " transform="matrix(0.0816353,0,0,0.0816353,21.524946,6.500743)"/>
<path style="fill:none;stroke-width:0.814286;stroke-linecap:butt;stroke-linejoin:miter;stroke:rgb(29.803923%,29.803923%,29.803923%);stroke-opacity:1;stroke-miterlimit:4;" d="M 57.640768 116.362078 C 57.640768 183.543468 3.187476 237.99676 -63.993914 237.99676 C -131.175303 237.99676 -185.628595 183.543468 -185.628595 116.362078 C -185.628595 49.180688 -131.175303 -5.272603 -63.993914 -5.272603 C 3.187476 -5.272603 57.640768 49.180688 57.640768 116.362078 Z M 57.640768 116.362078 " transform="matrix(0.0816353,0,0,0.0816353,21.524946,6.500743)"/>
<path style="fill:none;stroke-width:4.071427;stroke-linecap:butt;stroke-linejoin:miter;stroke:rgb(29.803923%,29.803923%,29.803923%);stroke-opacity:1;stroke-miterlimit:4;" d="M 53.573519 116.362078 C 53.573519 181.294518 0.938527 233.92951 -63.993914 233.92951 C -128.926354 233.92951 -181.561346 181.294518 -181.561346 116.362078 C -181.561346 51.429638 -128.926354 -1.205354 -63.993914 -1.205354 C 0.938527 -1.205354 53.573519 51.429638 53.573519 116.362078 Z M 53.573519 116.362078 " transform="matrix(0.0816353,0,0,0.0816353,21.524946,6.500743)"/>
<path style="fill:none;stroke-width:0.814286;stroke-linecap:butt;stroke-linejoin:miter;stroke:rgb(29.803923%,29.803923%,29.803923%);stroke-opacity:1;stroke-miterlimit:4;" d="M 49.506269 116.362078 C 49.506269 179.045569 -1.310423 229.862261 -63.993914 229.862261 C -126.677404 229.862261 -177.494096 179.045569 -177.494096 116.362078 C -177.494096 53.678588 -126.677404 2.861895 -63.993914 2.861895 C -1.310423 2.861895 49.506269 53.678588 49.506269 116.362078 Z M 49.506269 116.362078 " transform="matrix(0.0816353,0,0,0.0816353,21.524946,6.500743)"/>
<path style="fill:none;stroke-width:0.814286;stroke-linecap:butt;stroke-linejoin:miter;stroke:rgb(29.803923%,29.803923%,29.803923%);stroke-opacity:1;stroke-miterlimit:4;" d="M 45.39117 116.362078 C 45.39117 176.796619 -3.559373 225.795011 -63.993914 225.795011 C -124.428454 225.795011 -173.426847 176.796619 -173.426847 116.362078 C -173.426847 55.927537 -124.428454 6.929145 -63.993914 6.929145 C -3.559373 6.929145 45.39117 55.927537 45.39117 116.362078 Z M 45.39117 116.362078 " transform="matrix(0.0816353,0,0,0.0816353,21.524946,6.500743)"/>
<path style="fill:none;stroke-width:0.814286;stroke-linecap:butt;stroke-linejoin:miter;stroke:rgb(29.803923%,29.803923%,29.803923%);stroke-opacity:1;stroke-miterlimit:4;" d="M 41.37177 116.362078 C 41.37177 174.547669 -5.808322 221.727762 -63.993914 221.727762 C -122.179505 221.727762 -169.359598 174.547669 -169.359598 116.362078 C -169.359598 58.176487 -122.179505 10.996394 -63.993914 10.996394 C -5.808322 10.996394 41.37177 58.176487 41.37177 116.362078 Z M 41.37177 116.362078 " transform="matrix(0.0816353,0,0,0.0816353,21.524946,6.500743)"/>
<path style="fill:none;stroke-width:0.814286;stroke-linecap:butt;stroke-linejoin:miter;stroke:rgb(29.803923%,29.803923%,29.803923%);stroke-opacity:1;stroke-miterlimit:4;" d="M 37.256671 116.362078 C 37.256671 172.29872 -8.057272 217.660513 -63.993914 217.660513 C -119.930555 217.660513 -165.292348 172.29872 -165.292348 116.362078 C -165.292348 60.425437 -119.930555 15.063643 -63.993914 15.063643 C -8.057272 15.063643 37.256671 60.425437 37.256671 116.362078 Z M 37.256671 116.362078 " transform="matrix(0.0816353,0,0,0.0816353,21.524946,6.500743)"/>
<path style="fill:none;stroke-width:0.814286;stroke-linecap:butt;stroke-linejoin:miter;stroke:rgb(29.803923%,29.803923%,29.803923%);stroke-opacity:1;stroke-miterlimit:4;" d="M 33.237272 116.362078 C 33.237272 170.04977 -10.306222 213.545413 -63.993914 213.545413 C -117.681605 213.545413 -161.225099 170.04977 -161.225099 116.362078 C -161.225099 62.674386 -117.681605 19.178743 -63.993914 19.178743 C -10.306222 19.178743 33.237272 62.674386 33.237272 116.362078 Z M 33.237272 116.362078 " transform="matrix(0.0816353,0,0,0.0816353,21.524946,6.500743)"/>
<path style="fill:none;stroke-width:0.814285;stroke-linecap:butt;stroke-linejoin:miter;stroke:rgb(29.803923%,29.803923%,29.803923%);stroke-opacity:1;stroke-miterlimit:4;" d="M 29.122172 116.362078 C 29.122172 167.80082 -12.555171 209.526014 -63.993914 209.526014 C -115.432656 209.526014 -157.109999 167.80082 -157.109999 116.362078 C -157.109999 64.923336 -115.432656 23.198142 -63.993914 23.198142 C -12.555171 23.198142 29.122172 64.923336 29.122172 116.362078 Z M 29.122172 116.362078 " transform="matrix(0.0816353,0,0,0.0816353,21.524946,6.500743)"/>
<path style="fill:none;stroke-width:4.071428;stroke-linecap:butt;stroke-linejoin:miter;stroke:rgb(29.803923%,29.803923%,29.803923%);stroke-opacity:1;stroke-miterlimit:4;" d="M 25.054923 116.362078 C 25.054923 165.551871 -14.804121 205.410915 -63.993914 205.410915 C -113.183706 205.410915 -153.0906 165.551871 -153.0906 116.362078 C -153.0906 67.172286 -113.183706 27.313242 -63.993914 27.313242 C -14.804121 27.313242 25.054923 67.172286 25.054923 116.362078 Z M 25.054923 116.362078 " transform="matrix(0.0816353,0,0,0.0816353,21.524946,6.500743)"/>
<path style="fill:none;stroke-width:0.814286;stroke-linecap:butt;stroke-linejoin:miter;stroke:rgb(29.803923%,29.803923%,29.803923%);stroke-opacity:1;stroke-miterlimit:4;" d="M 20.987673 116.362078 C 20.987673 163.302921 -17.053071 201.343665 -63.993914 201.343665 C -110.934756 201.343665 -148.975501 163.302921 -148.975501 116.362078 C -148.975501 69.421235 -110.934756 31.380491 -63.993914 31.380491 C -17.053071 31.380491 20.987673 69.421235 20.987673 116.362078 Z M 20.987673 116.362078 " transform="matrix(0.0816353,0,0,0.0816353,21.524946,6.500743)"/>
<path style="fill:none;stroke-width:0.814286;stroke-linecap:butt;stroke-linejoin:miter;stroke:rgb(29.803923%,29.803923%,29.803923%);stroke-opacity:1;stroke-miterlimit:4;" d="M 16.920424 116.362078 C 16.920424 161.053971 -19.30202 197.276416 -63.993914 197.276416 C -108.685807 197.276416 -144.956101 161.053971 -144.956101 116.362078 C -144.956101 71.670185 -108.685807 35.44774 -63.993914 35.44774 C -19.30202 35.44774 16.920424 71.670185 16.920424 116.362078 Z M 16.920424 116.362078 " transform="matrix(0.0816353,0,0,0.0816353,21.524946,6.500743)"/>
<path style="fill:none;stroke-width:0.814286;stroke-linecap:butt;stroke-linejoin:miter;stroke:rgb(29.803923%,29.803923%,29.803923%);stroke-opacity:1;stroke-miterlimit:4;" d="M 12.853175 116.362078 C 12.853175 158.805022 -21.55097 193.209166 -63.993914 193.209166 C -106.436857 193.209166 -140.841002 158.805022 -140.841002 116.362078 C -140.841002 73.919134 -106.436857 39.51499 -63.993914 39.51499 C -21.55097 39.51499 12.853175 73.919134 12.853175 116.362078 Z M 12.853175 116.362078 " transform="matrix(0.0816353,0,0,0.0816353,21.524946,6.500743)"/>
<path style="fill:none;stroke-width:0.814286;stroke-linecap:butt;stroke-linejoin:miter;stroke:rgb(29.803923%,29.803923%,29.803923%);stroke-opacity:1;stroke-miterlimit:4;" d="M 8.785925 116.362078 C 8.785925 156.556072 -23.79992 189.141917 -63.993914 189.141917 C -104.187908 189.141917 -136.773753 156.556072 -136.773753 116.362078 C -136.773753 76.168084 -104.187908 43.582239 -63.993914 43.582239 C -23.79992 43.582239 8.785925 76.168084 8.785925 116.362078 Z M 8.785925 116.362078 " transform="matrix(0.0816353,0,0,0.0816353,21.524946,6.500743)"/>
<path style="fill:none;stroke-width:0.814286;stroke-linecap:butt;stroke-linejoin:miter;stroke:rgb(29.803923%,29.803923%,29.803923%);stroke-opacity:1;stroke-miterlimit:4;" d="M 4.718676 116.362078 C 4.718676 154.307122 -26.048869 185.074668 -63.993914 185.074668 C -101.938958 185.074668 -132.706503 154.307122 -132.706503 116.362078 C -132.706503 78.417034 -101.938958 47.649488 -63.993914 47.649488 C -26.048869 47.649488 4.718676 78.417034 4.718676 116.362078 Z M 4.718676 116.362078 " transform="matrix(0.0816353,0,0,0.0816353,21.524946,6.500743)"/>
<path style="fill:none;stroke-width:0.814286;stroke-linecap:butt;stroke-linejoin:miter;stroke:rgb(29.803923%,29.803923%,29.803923%);stroke-opacity:1;stroke-miterlimit:4;" d="M 0.651427 116.362078 C 0.651427 152.058173 -28.297819 181.007418 -63.993914 181.007418 C -99.690008 181.007418 -128.639254 152.058173 -128.639254 116.362078 C -128.639254 80.665983 -99.690008 51.716738 -63.993914 51.716738 C -28.297819 51.716738 0.651427 80.665983 0.651427 116.362078 Z M 0.651427 116.362078 " transform="matrix(0.0816353,0,0,0.0816353,21.524946,6.500743)"/>
<path style="fill:none;stroke-width:4.071428;stroke-linecap:butt;stroke-linejoin:miter;stroke:rgb(29.803923%,29.803923%,29.803923%);stroke-opacity:1;stroke-miterlimit:4;" d="M 80.513064 116.362078 C 80.513064 196.175866 15.819874 260.916906 -63.993914 260.916906 C -143.807701 260.916906 -208.548742 196.175866 -208.548742 116.362078 C -208.548742 36.54829 -143.807701 -28.19275 -63.993914 -28.19275 C 15.819874 -28.19275 80.513064 36.54829 80.513064 116.362078 Z M 80.513064 116.362078 " transform="matrix(0.0816353,0,0,0.0816353,21.524946,6.500743)"/>
<path style=" stroke:none;fill-rule:nonzero;fill:rgb(29.019609%,68.235296%,90.196079%);fill-opacity:0.980392;" d="M 7.417969 6.121094 C 7.417969 7.136719 6.59375 7.964844 5.574219 7.964844 C 4.558594 7.964844 3.734375 7.136719 3.734375 6.121094 C 3.734375 5.105469 4.558594 4.277344 5.574219 4.277344 C 6.59375 4.277344 7.417969 5.105469 7.417969 6.121094 Z M 7.417969 6.121094 "/>
<path style=" stroke:none;fill-rule:nonzero;fill:rgb(0%,0%,0%);fill-opacity:0.301961;" d="M 3.746094 5.933594 C 3.738281 5.996094 3.734375 6.058594 3.734375 6.121094 C 3.734375 7.136719 4.558594 7.964844 5.574219 7.964844 C 6.59375 7.964844 7.417969 7.136719 7.417969 6.121094 C 7.417969 6.066406 7.414062 6.007812 7.410156 5.949219 C 7.316406 6.894531 6.519531 7.609375 5.574219 7.609375 C 4.625 7.605469 3.832031 6.882812 3.746094 5.933594 Z M 3.746094 5.933594 "/>
<g clip-path="url(#clip1)" clip-rule="nonzero">
<path style="fill:none;stroke-width:15;stroke-linecap:round;stroke-linejoin:miter;stroke:rgb(0%,0%,0%);stroke-opacity:1;stroke-miterlimit:4;" d="M 722.135926 354.171646 L 754.793564 534.78028 C 754.793564 534.78028 760.478901 570.214477 783.947446 582.907324 C 807.415991 595.732388 842.651863 610.805144 842.651863 610.805144 " transform="matrix(0.0590884,0,0,0.0590884,-36.642512,-14.212592)"/>
</g>
<path style=" stroke:none;fill-rule:nonzero;fill:rgb(0%,0%,0%);fill-opacity:0.996078;" d="M 9.761719 21.253906 L 10.527344 19.652344 L 12.871094 20.777344 L 12.101562 22.378906 Z M 9.761719 21.253906 "/>
<path style=" stroke:none;fill-rule:nonzero;fill:rgb(0%,0%,0%);fill-opacity:0.996078;" d="M 4.621094 5.792969 L 5.210938 8.785156 L 6.253906 10.839844 L 7.058594 10.695312 L 7.277344 8.347656 L 6.6875 5.355469 C 5.980469 5.164062 4.972656 5.476562 4.621094 5.792969 Z M 4.621094 5.792969 "/>
<path style="fill:none;stroke-width:10.857144;stroke-linecap:round;stroke-linejoin:miter;stroke:rgb(29.019609%,68.235296%,90.196079%);stroke-opacity:1;stroke-miterlimit:4;" d="M -194.337294 -1.683854 L -170.699397 128.994476 C -170.699397 128.994476 -166.584298 154.642072 -149.645401 163.877121 C -132.610803 173.112169 -107.154607 184.021968 -107.154607 184.021968 " transform="matrix(0.0816353,0,0,0.0816353,21.524946,6.500743)"/>
<path style=" stroke:none;fill-rule:nonzero;fill:rgb(0%,0%,0%);fill-opacity:1;" d="M 9.507812 21.136719 L 10.277344 19.535156 L 12.621094 20.660156 L 11.847656 22.261719 Z M 9.507812 21.136719 "/>
<path style=" stroke:none;fill-rule:nonzero;fill:rgb(16.862746%,60.000002%,84.313726%);fill-opacity:0.996078;" d="M 9.390625 20.902344 L 10.160156 19.296875 L 12.503906 20.421875 L 11.730469 22.027344 Z M 9.390625 20.902344 "/>
<path style=" stroke:none;fill-rule:nonzero;fill:rgb(0%,0%,0%);fill-opacity:0.996078;" d="M 4.457031 5.894531 L 5.046875 8.890625 L 6.089844 10.945312 L 6.898438 10.796875 L 7.113281 8.449219 L 6.523438 5.457031 C 5.816406 5.269531 4.808594 5.582031 4.457031 5.894531 Z M 4.457031 5.894531 "/>
<path style=" stroke:none;fill-rule:nonzero;fill:rgb(16.862746%,60.000002%,84.313726%);fill-opacity:0.996078;" d="M 4.367188 5.46875 L 4.957031 8.464844 L 5.996094 10.519531 L 6.804688 10.371094 L 7.019531 8.027344 L 6.433594 5.03125 C 5.726562 4.839844 4.714844 5.152344 4.367188 5.46875 Z M 4.367188 5.46875 "/>
</g>
</svg>
