
<svg xmlns="http://www.w3.org/2000/svg" xmlns:xlink="http://www.w3.org/1999/xlink" width="32px" height="32px" viewBox="0 0 32 32" version="1.1">
<g id="surface1">
<path style="fill-rule:nonzero;fill:rgb(30.19608%,30.19608%,30.19608%);fill-opacity:1;stroke-width:28.191782;stroke-linecap:butt;stroke-linejoin:miter;stroke:rgb(35.294119%,49.803922%,53.333336%);stroke-opacity:1;stroke-miterlimit:4;" d="M 294.642843 57.996122 L 643.642843 57.996122 C 674.830343 57.996122 700.080343 83.246122 700.080343 114.433622 L 700.080343 463.433622 C 700.080343 494.621122 674.830343 519.871122 643.642843 519.871122 L 294.642843 519.871122 C 263.455343 519.871122 238.205343 494.621122 238.205343 463.433622 L 238.205343 114.433622 C 238.205343 83.246122 263.455343 57.996122 294.642843 57.996122 Z M 294.642843 57.996122 " transform="matrix(0.0625,0,0,0.0625,-13.321428,-2.058351)"/>
<path style=" stroke:none;fill-rule:nonzero;fill:rgb(100%,100%,100%);fill-opacity:1;" d="M 19.285156 7.195312 C 17.722656 8.453125 17.082031 10.425781 17.46875 12.222656 L 6.21875 21.273438 C 4.976562 22.273438 4.527344 23.761719 5.210938 24.613281 C 5.894531 25.460938 7.441406 25.339844 8.683594 24.339844 L 19.800781 15.394531 C 21.53125 16.378906 23.792969 16.242188 25.476562 14.886719 C 27.664062 13.128906 28.050781 9.980469 26.339844 7.855469 C 24.632812 5.730469 21.472656 5.433594 19.285156 7.195312 Z M 22.78125 8.359375 C 23.480469 7.792969 24.492188 7.890625 25.042969 8.570312 C 25.589844 9.25 25.464844 10.257812 24.761719 10.824219 C 24.066406 11.386719 23.050781 11.292969 22.503906 10.613281 C 21.957031 9.929688 22.082031 8.921875 22.78125 8.359375 Z M 7.257812 22.074219 L 7.800781 22.152344 L 7.933594 21.617188 L 8.199219 22.089844 L 8.699219 21.847656 L 8.488281 22.359375 L 8.980469 22.59375 L 8.453125 22.757812 L 8.5625 23.289062 L 8.113281 22.988281 L 7.761719 23.417969 L 7.730469 22.871094 L 7.183594 22.875 L 7.589844 22.496094 Z M 8.964844 20.699219 L 9.507812 20.777344 L 9.644531 20.242188 L 9.910156 20.714844 L 10.410156 20.472656 L 10.199219 20.984375 L 10.6875 21.21875 L 10.160156 21.386719 L 10.269531 21.917969 L 9.820312 21.613281 L 9.46875 22.042969 L 9.4375 21.496094 L 8.886719 21.5 L 9.300781 21.125 Z M 10.621094 19.367188 L 11.164062 19.441406 L 11.300781 18.910156 L 11.5625 19.378906 L 12.066406 19.140625 L 11.855469 19.652344 L 12.34375 19.886719 L 11.816406 20.050781 L 11.925781 20.582031 L 11.476562 20.28125 L 11.125 20.707031 L 11.09375 20.164062 L 10.542969 20.167969 L 10.957031 19.792969 Z M 12.433594 17.910156 L 12.972656 17.988281 L 13.109375 17.453125 L 13.375 17.925781 L 13.875 17.683594 L 13.664062 18.195312 L 14.152344 18.429688 L 13.628906 18.59375 L 13.738281 19.125 L 13.289062 18.824219 L 12.933594 19.253906 L 12.902344 18.707031 L 12.355469 18.710938 L 12.765625 18.332031 Z M 14.039062 16.617188 L 14.578125 16.695312 L 14.714844 16.160156 L 14.980469 16.632812 L 15.480469 16.394531 L 15.269531 16.902344 L 15.757812 17.136719 L 15.230469 17.300781 L 15.339844 17.835938 L 14.894531 17.53125 L 14.539062 17.960938 L 14.507812 17.417969 L 13.960938 17.417969 L 14.371094 17.042969 Z M 15.746094 15.246094 L 16.285156 15.320312 L 16.421875 14.789062 L 16.6875 15.257812 L 17.1875 15.019531 L 16.976562 15.527344 L 17.464844 15.761719 L 16.9375 15.929688 L 17.050781 16.460938 L 16.601562 16.15625 L 16.246094 16.585938 L 16.214844 16.042969 L 15.667969 16.042969 L 16.078125 15.667969 Z M 15.746094 15.246094 "/>
</g>
</svg>
