
<svg xmlns="http://www.w3.org/2000/svg" xmlns:xlink="http://www.w3.org/1999/xlink" width="32px" height="32px" viewBox="0 0 32 32" version="1.1">
<g id="surface1">
<path style="fill-rule:nonzero;fill:rgb(30.19608%,30.19608%,30.19608%);fill-opacity:1;stroke-width:28.191782;stroke-linecap:butt;stroke-linejoin:miter;stroke:rgb(35.294119%,49.803922%,53.333336%);stroke-opacity:1;stroke-miterlimit:4;" d="M 294.642843 57.996122 L 643.642843 57.996122 C 674.830343 57.996122 700.080343 83.246122 700.080343 114.433622 L 700.080343 463.433622 C 700.080343 494.621122 674.830343 519.871122 643.642843 519.871122 L 294.642843 519.871122 C 263.455343 519.871122 238.205343 494.621122 238.205343 463.433622 L 238.205343 114.433622 C 238.205343 83.246122 263.455343 57.996122 294.642843 57.996122 Z M 294.642843 57.996122 " transform="matrix(0.0625,0,0,0.0625,-13.321428,-2.058351)"/>
<path style=" stroke:none;fill-rule:nonzero;fill:rgb(100%,100%,100%);fill-opacity:1;" d="M 13.886719 5.136719 C 11.777344 5.136719 10.074219 6.839844 10.074219 8.953125 L 10.074219 12.183594 C 10.074219 12.375 10.085938 12.558594 10.113281 12.742188 L 11.019531 12.742188 C 10.953125 12.484375 10.917969 12.214844 10.917969 11.933594 L 10.917969 9.207031 C 10.917969 7.417969 12.355469 5.984375 14.140625 5.984375 L 16.871094 5.984375 C 18.652344 5.984375 20.089844 7.417969 20.089844 9.207031 L 20.089844 11.933594 C 20.089844 12.214844 20.054688 12.484375 19.988281 12.742188 L 20.894531 12.742188 C 20.921875 12.558594 20.933594 12.375 20.933594 12.183594 L 20.933594 8.953125 C 20.933594 6.839844 19.234375 5.136719 17.121094 5.136719 Z M 13.886719 5.136719 "/>
<path style=" stroke:none;fill-rule:nonzero;fill:rgb(100%,100%,100%);fill-opacity:1;" d="M 9.015625 11.777344 C 8.199219 11.777344 7.539062 12.316406 7.539062 12.992188 L 7.539062 23.894531 C 7.539062 24.566406 8.199219 25.113281 9.015625 25.113281 L 22.234375 25.113281 C 23.050781 25.113281 23.710938 24.566406 23.710938 23.894531 L 23.710938 12.992188 C 23.710938 12.316406 23.050781 11.777344 22.234375 11.777344 Z M 15.625 14.371094 C 16.808594 14.371094 17.765625 15.332031 17.765625 16.511719 C 17.765625 17.359375 17.273438 18.09375 16.558594 18.441406 L 16.558594 22.386719 C 16.558594 23.058594 16.144531 23.601562 15.625 23.601562 C 15.105469 23.601562 14.691406 23.058594 14.691406 22.386719 L 14.691406 18.441406 C 13.972656 18.09375 13.480469 17.359375 13.480469 16.511719 C 13.480469 15.332031 14.441406 14.371094 15.625 14.371094 Z M 15.625 14.371094 "/>
</g>
</svg>
