<?xml version="1.0" encoding="UTF-8" standalone="no"?>
<svg
   xmlns:dc="http://purl.org/dc/elements/1.1/"
   xmlns:cc="http://creativecommons.org/ns#"
   xmlns:rdf="http://www.w3.org/1999/02/22-rdf-syntax-ns#"
   xmlns:svg="http://www.w3.org/2000/svg"
   xmlns="http://www.w3.org/2000/svg"
   xmlns:sodipodi="http://sodipodi.sourceforge.net/DTD/sodipodi-0.dtd"
   xmlns:inkscape="http://www.inkscape.org/namespaces/inkscape"
   width="64px"
   height="64px"
   viewBox="0 0 64 64"
   version="1.1"
   id="svg7"
   sodipodi:docname="rpi-imager.svg"
   inkscape:version="0.92.5 (2060ec1f9f, 2020-04-08)">
  <metadata
     id="metadata13">
    <rdf:RDF>
      <cc:Work
         rdf:about="">
        <dc:format>image/svg+xml</dc:format>
        <dc:type
           rdf:resource="http://purl.org/dc/dcmitype/StillImage" />
        <dc:title></dc:title>
      </cc:Work>
    </rdf:RDF>
  </metadata>
  <defs
     id="defs11" />
  <sodipodi:namedview
     pagecolor="#ffffff"
     bordercolor="#666666"
     borderopacity="1"
     objecttolerance="10"
     gridtolerance="10"
     guidetolerance="10"
     inkscape:pageopacity="0"
     inkscape:pageshadow="2"
     inkscape:window-width="1280"
     inkscape:window-height="735"
     id="namedview9"
     showgrid="false"
     inkscape:zoom="5.2149125"
     inkscape:cx="37.400651"
     inkscape:cy="39.83908"
     inkscape:window-x="0"
     inkscape:window-y="0"
     inkscape:window-maximized="1"
     inkscape:current-layer="svg7" />
  <path
     inkscape:connector-curvature="0"
     id="path2"
     d="m 10.082028,2.9999993 h 43.835925 c 3.914062,0 7.08203,3.1679672 7.08203,7.0820287 v 43.835925 c 0,3.914062 -3.167968,7.08203 -7.08203,7.08203 H 10.082028 c -3.9140615,0 -7.0820287,-3.167968 -7.0820287,-7.08203 V 10.082028 c 0,-3.9140615 3.1679672,-7.0820287 7.0820287,-7.0820287 z m 0,0"
     style="fill:#ffd5d5;fill-opacity:1;fill-rule:nonzero;stroke:#bc1142;stroke-width:3.54075003;stroke-linecap:butt;stroke-linejoin:miter;stroke-miterlimit:4;stroke-opacity:1" />
  <g
     id="g902"
     transform="translate(0.6779661,-0.94915254)">
    <path
       id="path820"
       style="fill:#333333;stroke-width:0.07180422"
       d="m 21.687291,7.5247332 c -0.259881,0.00807 -0.539763,0.1040678 -0.857163,0.3545334 -0.777421,-0.299876 -1.531375,-0.4040559 -2.205735,0.2064371 -1.040721,-0.1350463 -1.37938,0.1436619 -1.63579,0.4689713 -0.228521,-0.00473 -1.710294,-0.2349484 -2.389735,0.778627 -1.707622,-0.2020155 -2.24724,1.004388 -1.635789,2.129444 -0.348747,0.539893 -0.710108,1.073274 0.105462,2.102517 -0.28851,0.57325 -0.109676,1.195112 0.569946,1.94769 -0.179357,0.80583 0.173197,1.374394 0.805554,1.817544 -0.118268,1.102738 1.011255,1.74394 1.348573,1.972372 0.129511,0.642553 0.39944,1.248869 1.689643,1.584181 0.212772,0.957588 0.988174,1.12295 1.739008,1.32389 -2.481692,1.442514 -4.609879,3.340523 -4.59547,7.997195 l -0.363509,0.648482 c -2.845663,1.730646 -5.4058018,7.292886 -1.402426,11.814038 0.261502,1.415145 0.700062,2.431575 1.090527,3.556553 0.584043,4.533042 4.395684,6.655649 5.401023,6.906668 1.473174,1.122165 3.042214,2.186921 5.165416,2.932754 2.001554,2.064332 4.16995,2.851087 6.350186,2.84973 0.03196,-2e-5 0.06452,3.59e-4 0.09649,0 2.180237,0.0014 4.348632,-0.785398 6.350186,-2.84973 2.123202,-0.745833 3.692242,-1.810589 5.165416,-2.932754 1.005339,-0.251019 4.81698,-2.373626 5.401023,-6.906668 0.390465,-1.124978 0.829025,-2.141408 1.090527,-3.556553 4.003375,-4.521152 1.443237,-10.083392 -1.402426,-11.814038 l -0.363509,-0.648482 c 0.01441,-4.656672 -2.113778,-6.554681 -4.59547,-7.997195 0.750834,-0.20094 1.526236,-0.366302 1.739008,-1.32389 1.290203,-0.335312 1.560132,-0.941628 1.689643,-1.584181 0.337319,-0.228432 1.466841,-0.869634 1.348573,-1.972372 0.632357,-0.44315 0.984911,-1.011714 0.805554,-1.817544 0.679623,-0.752578 0.858455,-1.37444 0.569946,-1.94769 0.81557,-1.029243 0.454209,-1.562624 0.105462,-2.102517 C 49.478883,10.33769 48.939265,9.1312865 47.231643,9.333302 46.552202,8.3197266 45.070429,8.5499456 44.841908,8.554675 44.585498,8.2293656 44.246839,7.9506573 43.206119,8.0857037 42.531758,7.4752107 41.777804,7.5793906 41.000383,7.8792666 40.077038,7.1506395 39.465764,7.7347034 38.76772,7.9555586 37.649452,7.5902346 37.393889,8.0906157 36.844713,8.2943847 35.625819,8.0367457 35.255284,8.5976521 34.670392,9.1896936 L 33.990496,9.1762303 C 32.151551,10.25998 31.237968,12.466695 30.914134,13.601165 30.590149,12.466517 29.678636,10.259789 27.840015,9.1762303 l -0.679896,0.013463 C 26.575227,8.5976521 26.204692,8.0367457 24.985798,8.2943847 24.436623,8.0906157 24.181059,7.5902347 23.062791,7.9555586 22.604699,7.8106224 22.183428,7.5093364 21.687291,7.5247332 Z"
       inkscape:connector-curvature="0" />
    <path
       id="path822"
       style="fill:#80ff80;stroke-width:0.07180422"
       d="m 18.026485,12.292486 c 4.87893,2.515399 7.71514,4.550159 9.269004,6.28319 -0.79576,3.18937 -4.947051,3.334921 -6.464935,3.245448 0.310798,-0.144666 0.570116,-0.317933 0.662071,-0.58418 -0.380885,-0.270688 -1.731407,-0.02852 -2.67425,-0.558218 0.362186,-0.07503 0.531601,-0.148133 0.701017,-0.415417 -0.890782,-0.284108 -1.850296,-0.52894 -2.414614,-0.999598 0.30454,0.0038 0.588878,0.06813 0.986616,-0.207709 -0.797866,-0.429977 -1.649279,-0.770711 -2.310759,-1.427998 0.41253,-0.0101 0.857303,-0.0041 0.986616,-0.155781 -0.73028,-0.452416 -1.346418,-0.955561 -1.856397,-1.505889 0.577305,0.06969 0.821102,0.0097 0.960653,-0.09087 -0.552016,-0.5654 -1.250654,-1.042826 -1.583779,-1.73956 0.428643,0.147736 0.820812,0.204287 1.103453,-0.01298 -0.187579,-0.423175 -0.991287,-0.672778 -1.453962,-1.66167 0.451244,0.04376 0.929837,0.09845 1.025562,0 -0.209834,-0.853649 -0.569225,-1.333406 -0.921707,-1.830434 0.96577,-0.01434 2.428975,0.0038 2.362687,-0.07789 L 15.806598,9.9427802 c 0.943337,-0.2539888 1.908603,0.040797 2.609341,0.2596358 0.314636,-0.2482759 -0.0056,-0.5622255 -0.389454,-0.882762 0.801692,0.1070347 1.526114,0.2913376 2.180942,0.5452354 0.349858,-0.3158904 -0.22718,-0.6317808 -0.50629,-0.9476711 1.238577,0.2349842 1.763308,0.565148 2.284797,0.895744 0.378361,-0.3626687 0.02166,-0.6708883 -0.233673,-0.9866167 0.933862,0.3458844 1.414887,0.7923992 1.921306,1.2332704 0.171697,-0.2317157 0.436206,-0.4015581 0.116836,-0.9606526 0.663052,0.3821941 1.162457,0.8325743 1.531853,1.3371246 0.410243,-0.261219 0.244412,-0.6184509 0.246654,-0.9476707 0.68908,0.5605407 1.126383,1.1570497 1.66167,1.7395607 0.107828,-0.07851 0.202244,-0.344783 0.285599,-0.765926 1.643986,1.594902 3.96689,5.612092 0.597163,7.204897 -2.866336,-2.365745 -6.291208,-4.084764 -10.086857,-5.374463 z"
       inkscape:connector-curvature="0" />
    <path
       id="path824"
       style="fill:#80ff80;stroke-width:0.07180422"
       d="m 43.914278,12.292486 c -4.878929,2.515399 -7.71514,4.550159 -9.269003,6.28319 0.795759,3.18937 4.947051,3.334921 6.464935,3.245448 -0.310799,-0.144666 -0.570117,-0.317933 -0.662071,-0.58418 0.380884,-0.270688 1.731407,-0.02852 2.674249,-0.558218 -0.362185,-0.07503 -0.531601,-0.148133 -0.701016,-0.415417 0.890782,-0.284108 1.850295,-0.52894 2.414614,-0.999598 -0.30454,0.0038 -0.588878,0.06813 -0.986617,-0.207709 0.797867,-0.429977 1.649279,-0.770711 2.31076,-1.427998 -0.41253,-0.0101 -0.857303,-0.0041 -0.986616,-0.155781 0.73028,-0.452416 1.346418,-0.955561 1.856396,-1.505889 -0.577304,0.06969 -0.821101,0.0097 -0.960652,-0.09087 0.552015,-0.5654 1.250654,-1.042826 1.583779,-1.73956 -0.428643,0.147736 -0.820812,0.204287 -1.103453,-0.01298 0.187579,-0.423175 0.991287,-0.672778 1.453961,-1.66167 -0.451243,0.04376 -0.929836,0.09845 -1.025562,0 0.209834,-0.853649 0.569225,-1.333406 0.921708,-1.830434 -0.96577,-0.01434 -2.428976,0.0038 -2.362687,-0.07789 L 46.134165,9.9427802 C 45.190829,9.6887914 44.225563,9.9835768 43.524824,10.202416 43.210188,9.9541401 43.530396,9.6401905 43.914278,9.319654 43.112587,9.4266887 42.388164,9.6109916 41.733336,9.8648894 41.383479,9.548999 41.960517,9.2331086 42.239627,8.9172183 41.00105,9.1522025 40.476319,9.4823663 39.95483,9.8129623 39.576468,9.4502936 39.933169,9.142074 40.188502,8.8263456 39.254641,9.17223 38.773616,9.6187448 38.267197,10.059616 38.095499,9.8279003 37.83099,9.6580579 38.15036,9.0989634 37.487309,9.4811575 36.987903,9.9315377 36.618508,10.436088 36.208264,10.174869 36.374096,9.8176371 36.371854,9.4884173 c -0.68908,0.5605407 -1.126384,1.1570497 -1.66167,1.7395607 -0.107828,-0.07851 -0.202245,-0.344783 -0.2856,-0.765926 -1.643985,1.594902 -3.966889,5.612092 -0.597162,7.204897 2.866336,-2.365745 6.291208,-4.084764 10.086856,-5.374463 z"
       inkscape:connector-curvature="0" />
    <path
       id="path826"
       style="fill:#bc1142;stroke-width:0.08110842"
       d="m 36.879008,44.769927 a 5.8441537,5.3890333 0 1 1 -11.688307,0 5.8441537,5.3890333 0 1 1 11.688307,0 z"
       inkscape:connector-curvature="0" />
    <path
       id="path828"
       style="fill:#bc1142;stroke-width:0.13648359"
       d="M 27.652716,29.375201 A 5.2416246,6.1844738 34.034239 1 1 20.833625,39.694347 5.2416246,6.1844738 34.034239 1 1 27.652716,29.375201 Z"
       inkscape:connector-curvature="0" />
    <path
       id="path830"
       style="fill:#bc1142;stroke-width:0.13648359"
       d="M 34.18921,29.087984 A 6.1844738,5.2416246 55.965761 1 0 41.008301,39.40713 6.1844738,5.2416246 55.965761 1 0 34.18921,29.087984 Z"
       inkscape:connector-curvature="0" />
    <path
       id="path832"
       style="fill:#bc1142;stroke-width:0.07180422"
       d="m 15.550562,31.969155 c 2.614694,-0.700588 0.882588,10.816337 -1.24461,9.871341 -2.339868,-1.882181 -3.093546,-7.394071 1.24461,-9.871341 z"
       inkscape:connector-curvature="0" />
    <path
       id="path834"
       style="fill:#bc1142;stroke-width:0.07180422"
       d="m 45.763482,31.825547 c -2.614695,-0.700588 -0.882589,10.816337 1.24461,9.87134 2.339867,-1.882181 3.093546,-7.39407 -1.24461,-9.87134 z"
       inkscape:connector-curvature="0" />
    <path
       id="path836"
       style="fill:#bc1142;stroke-width:0.07180422"
       d="m 36.880819,23.249653 c 4.511808,-0.761852 8.26581,1.918773 8.114694,6.811202 -0.148415,1.875606 -9.776771,-6.531964 -8.114694,-6.811202 z"
       inkscape:connector-curvature="0" />
    <path
       id="path838"
       style="fill:#bc1142;stroke-width:0.07180422"
       d="m 24.414757,23.106044 c -4.511808,-0.761852 -8.265811,1.918774 -8.114694,6.811202 0.148414,1.875607 9.77677,-6.531963 8.114694,-6.811202 z"
       inkscape:connector-curvature="0" />
    <path
       id="path840"
       style="fill:#bc1142;stroke-width:0.07180422"
       d="m 30.895775,21.964521 c -2.692845,-0.07004 -5.277286,1.998612 -5.283468,3.198478 -0.0075,1.457932 2.129081,2.950626 5.301827,2.988517 3.240025,0.02321 5.307452,-1.194858 5.317899,-2.699415 0.01184,-1.704629 -2.946758,-3.513914 -5.336258,-3.48758 z"
       inkscape:connector-curvature="0" />
    <path
       id="path842"
       style="fill:#bc1142;stroke-width:0.07180422"
       d="m 31.06021,51.861003 c 2.347814,-0.102473 5.498109,0.756239 5.504282,1.895343 0.03897,1.106158 -2.857068,3.605329 -5.660064,3.557012 -2.90285,0.12522 -5.749298,-2.377839 -5.711991,-3.24545 -0.04345,-1.272078 3.534635,-2.265276 5.867773,-2.206905 z"
       inkscape:connector-curvature="0" />
    <path
       id="path844"
       style="fill:#bc1142;stroke-width:0.07180422"
       d="m 22.388369,45.110468 c 1.671538,2.013802 2.433492,5.55183 1.038544,6.594753 -1.319702,0.796154 -4.524548,0.46828 -6.802462,-2.804067 -1.536255,-2.745914 -1.338257,-5.540172 -0.259636,-6.361081 1.613041,-0.98259 4.105294,0.344589 6.023554,2.570395 z"
       inkscape:connector-curvature="0" />
    <path
       id="path846"
       style="fill:#bc1142;stroke-width:0.07180422"
       d="m 39.397508,44.471991 c -1.80852,2.118343 -2.815607,5.981974 -1.496246,7.226578 1.261477,0.966744 4.64783,0.831609 7.149235,-2.639217 1.816359,-2.331104 1.207756,-6.224152 0.170231,-7.25762 -1.541211,-1.192103 -3.753703,0.333523 -5.82322,2.670259 z"
       inkscape:connector-curvature="0" />
  </g>
  <path
     inkscape:connector-curvature="0"
     id="path15"
     d="M 43.800354,19.729573 V 37.155354 H 35.534729 L 47.312073,55.577229 59.093323,37.155354 H 50.827698 V 19.729573 Z m 0,0"
     style="fill:#2a7fff;fill-opacity:1;fill-rule:nonzero;stroke:none" />
</svg>
