
<svg xmlns="http://www.w3.org/2000/svg" xmlns:xlink="http://www.w3.org/1999/xlink" width="32px" height="32px" viewBox="0 0 32 32" version="1.1">
<g id="surface1">
<path style="fill-rule:nonzero;fill:rgb(100%,100%,100%);fill-opacity:1;stroke-width:6.940816;stroke-linecap:butt;stroke-linejoin:miter;stroke:rgb(95.294118%,61.176473%,7.058824%);stroke-opacity:1;stroke-miterlimit:4;" d="M 21.03125 7.15625 L 106.96875 7.15625 C 114.640625 7.15625 120.84375 13.359375 120.84375 21.03125 L 120.84375 106.96875 C 120.84375 114.640625 114.640625 120.84375 106.96875 120.84375 L 21.03125 120.84375 C 13.359375 120.84375 7.15625 114.640625 7.15625 106.96875 L 7.15625 21.03125 C 7.15625 13.359375 13.359375 7.15625 21.03125 7.15625 Z M 21.03125 7.15625 " transform="matrix(0.25,0,0,0.25,0,0)"/>
<path style=" stroke:none;fill-rule:nonzero;fill:rgb(95.294118%,61.176473%,7.058824%);fill-opacity:1;" d="M 3.707031 4.226562 L 3.707031 9.121094 L 8.597656 9.121094 C 16.730469 9.121094 23.277344 15.664062 23.277344 23.796875 L 23.277344 28.6875 L 28.167969 28.6875 L 28.167969 23.796875 C 28.167969 12.957031 19.441406 4.226562 8.597656 4.226562 Z M 3.707031 14.011719 L 3.707031 18.902344 L 8.597656 18.902344 C 11.308594 18.902344 13.492188 21.085938 13.492188 23.796875 L 13.492188 28.6875 L 18.386719 28.6875 L 18.386719 23.796875 C 18.386719 18.375 14.019531 14.011719 8.597656 14.011719 Z M 6.5625 22.980469 C 4.980469 22.980469 3.707031 24.253906 3.707031 25.832031 C 3.707031 27.414062 4.980469 28.6875 6.5625 28.6875 C 8.144531 28.6875 9.414062 27.414062 9.414062 25.832031 C 9.414062 24.253906 8.144531 22.980469 6.5625 22.980469 Z M 6.5625 22.980469 "/>
</g>
</svg>
