
<svg xmlns="http://www.w3.org/2000/svg" xmlns:xlink="http://www.w3.org/1999/xlink" width="32px" height="32px" viewBox="0 0 32 32" version="1.1">
<g id="surface1">
<path style="fill-rule:nonzero;fill:rgb(16.078432%,50.196081%,72.549021%);fill-opacity:1;stroke-width:0.738769;stroke-linecap:butt;stroke-linejoin:miter;stroke:rgb(19.215687%,21.176471%,27.843139%);stroke-opacity:1;stroke-miterlimit:4;" d="M -35.918148 398.567543 L -26.773487 398.567543 C -25.956585 398.567543 -25.295127 399.229002 -25.295127 400.045903 L -25.295127 409.190564 C -25.295127 410.007465 -25.956585 410.668924 -26.773487 410.668924 L -35.918148 410.668924 C -36.735049 410.668924 -37.396507 410.007465 -37.396507 409.190564 L -37.396507 400.045903 C -37.396507 399.229002 -36.735049 398.567543 -35.918148 398.567543 Z M -35.918148 398.567543 " transform="matrix(2.362205,0,0,2.362205,90.045237,-939.791097)"/>
<path style=" stroke:none;fill-rule:nonzero;fill:rgb(92.54902%,94.117647%,94.509804%);fill-opacity:1;" d="M 18.855469 23.746094 L 15.613281 17.382812 C 15.410156 17.410156 15.207031 17.433594 14.992188 17.445312 C 14.785156 17.457031 14.574219 17.464844 14.355469 17.464844 C 14.101562 17.464844 13.839844 17.457031 13.574219 17.433594 C 13.3125 17.414062 13.039062 17.386719 12.757812 17.355469 L 12.757812 22.585938 L 15.085938 23.324219 L 15.085938 23.75 L 8.96875 23.75 L 8.96875 23.324219 L 10.863281 22.585938 L 10.863281 9.722656 L 8.96875 8.980469 L 8.96875 8.558594 L 14.765625 8.558594 C 15.660156 8.558594 16.453125 8.660156 17.144531 8.867188 C 17.839844 9.066406 18.421875 9.351562 18.894531 9.722656 C 19.378906 10.09375 19.742188 10.539062 19.988281 11.058594 C 20.234375 11.574219 20.359375 12.148438 20.359375 12.78125 C 20.359375 13.707031 20.121094 14.53125 19.636719 15.253906 C 19.164062 15.964844 18.460938 16.511719 17.527344 16.890625 L 20.523438 22.738281 L 22.039062 23.324219 L 22.039062 23.75 L 18.855469 23.75 M 15.066406 9.636719 L 12.757812 9.636719 L 12.757812 16.261719 C 13.039062 16.296875 13.304688 16.324219 13.550781 16.34375 C 13.804688 16.355469 14.050781 16.363281 14.292969 16.363281 C 16.941406 16.363281 18.269531 15.222656 18.269531 12.945312 C 18.269531 11.839844 17.996094 11.011719 17.445312 10.464844 C 16.894531 9.914062 16.101562 9.636719 15.066406 9.636719 "/>
</g>
</svg>
