
<svg xmlns="http://www.w3.org/2000/svg" xmlns:xlink="http://www.w3.org/1999/xlink" width="32px" height="32px" viewBox="0 0 32 32" version="1.1">
<g id="surface1">
<path style=" stroke:none;fill-rule:evenodd;fill:rgb(98.823529%,67.058825%,0%);fill-opacity:1;" d="M 4.347656 1.378906 L 27.757812 1.378906 C 29.441406 1.378906 30.808594 2.746094 30.808594 4.429688 L 30.808594 27.839844 C 30.808594 29.523438 29.441406 30.890625 27.757812 30.890625 L 4.347656 30.890625 C 2.660156 30.890625 1.296875 29.523438 1.296875 27.839844 L 1.296875 4.429688 C 1.296875 2.746094 2.660156 1.378906 4.347656 1.378906 Z M 4.347656 1.378906 "/>
<path style=" stroke:none;fill-rule:evenodd;fill:rgb(100%,100%,100%);fill-opacity:1;" d="M 6.660156 13.832031 L 25.433594 13.832031 C 25.753906 13.832031 26.011719 14.089844 26.011719 14.410156 L 26.011719 19.183594 C 26.011719 19.503906 25.753906 19.761719 25.433594 19.761719 L 6.660156 19.761719 C 6.339844 19.761719 6.078125 19.503906 6.078125 19.183594 L 6.078125 14.410156 C 6.078125 14.089844 6.339844 13.832031 6.660156 13.832031 Z M 6.660156 13.832031 "/>
<path style=" stroke:none;fill-rule:evenodd;fill:rgb(100%,100%,100%);fill-opacity:1;" d="M 19.824219 11.644531 L 22.613281 11.644531 L 22.613281 14.367188 L 19.824219 14.367188 Z M 19.824219 11.644531 "/>
<path style=" stroke:none;fill-rule:nonzero;fill:rgb(16.862746%,14.901961%,10.588235%);fill-opacity:1;" d="M 6.097656 19.832031 C 5.921875 19.65625 5.902344 19.3125 5.941406 16.746094 C 5.972656 14.335938 6.011719 13.839844 6.160156 13.746094 C 6.265625 13.675781 8.988281 13.628906 12.941406 13.628906 L 19.550781 13.628906 L 19.550781 12.644531 C 19.550781 12.035156 19.605469 11.605469 19.691406 11.519531 C 19.890625 11.324219 22.53125 11.324219 22.726562 11.519531 C 22.816406 11.605469 22.871094 12.035156 22.871094 12.644531 L 22.871094 13.628906 L 24.402344 13.628906 C 25.636719 13.628906 25.972656 13.664062 26.121094 13.816406 C 26.398438 14.09375 26.398438 19.5625 26.121094 19.839844 C 25.953125 20.007812 24.882812 20.027344 16.113281 20.027344 C 7.121094 20.027344 6.277344 20.011719 6.097656 19.832031 Z M 12.144531 18.074219 L 12.144531 16.53125 L 10.609375 16.496094 C 9.691406 16.480469 9.011719 16.410156 8.917969 16.332031 C 8.820312 16.25 8.769531 16.027344 8.789062 15.769531 L 8.824219 15.347656 L 10.246094 15.316406 C 12.214844 15.277344 12.222656 15.273438 12.179688 14.660156 L 12.144531 14.160156 L 6.519531 14.097656 L 6.453125 14.367188 C 6.417969 14.515625 6.402344 15.277344 6.417969 16.058594 L 6.457031 17.480469 L 9.773438 17.597656 L 9.773438 18.546875 L 8.113281 18.605469 L 6.457031 18.664062 L 6.417969 19 C 6.335938 19.699219 6.253906 19.679688 9.324219 19.644531 L 12.144531 19.613281 Z M 18.933594 16.917969 L 18.898438 14.160156 L 13.328125 14.160156 L 13.292969 14.621094 C 13.269531 14.914062 13.3125 15.121094 13.410156 15.183594 C 13.496094 15.238281 14.25 15.285156 15.082031 15.285156 L 16.601562 15.285156 L 16.527344 16.414062 L 13.269531 16.480469 L 13.269531 19.671875 L 18.964844 19.671875 Z M 15.691406 18.445312 C 15.652344 18.347656 15.640625 18.121094 15.660156 17.933594 C 15.695312 17.636719 15.746094 17.597656 16.113281 17.597656 C 16.519531 17.597656 16.527344 17.609375 16.527344 18.074219 C 16.527344 18.519531 16.507812 18.550781 16.144531 18.582031 C 15.886719 18.609375 15.734375 18.5625 15.691406 18.445312 Z M 25.773438 16.886719 L 25.773438 14.160156 L 22.457031 14.042969 L 22.417969 12.980469 C 22.398438 12.3125 22.332031 11.882812 22.242188 11.824219 C 22.007812 11.675781 20.324219 11.714844 20.167969 11.875 C 20.0625 11.980469 20.027344 13.007812 20.027344 15.765625 C 20.027344 17.828125 20.0625 19.550781 20.105469 19.597656 C 20.152344 19.640625 21.445312 19.660156 22.980469 19.644531 L 25.773438 19.613281 Z M 22.449219 18.457031 C 22.417969 18.371094 22.402344 17.632812 22.421875 16.820312 L 22.457031 15.347656 L 23.402344 15.347656 L 23.402344 18.546875 L 22.957031 18.582031 C 22.664062 18.605469 22.492188 18.566406 22.449219 18.457031 Z M 22.449219 18.457031 "/>
</g>
</svg>
