
<svg xmlns="http://www.w3.org/2000/svg" xmlns:xlink="http://www.w3.org/1999/xlink" width="32px" height="32px" viewBox="0 0 32 32" version="1.1">
<g id="surface1">
<path style="fill-rule:nonzero;fill:rgb(100%,100%,100%);fill-opacity:1;stroke-width:7.132443;stroke-linecap:butt;stroke-linejoin:miter;stroke:rgb(40.000001%,0%,100%);stroke-opacity:1;stroke-miterlimit:4;" d="M 19.84375 -74.421875 L 108.15625 -74.421875 C 116.03125 -74.421875 122.421875 -68.03125 122.421875 -60.15625 L 122.421875 28.15625 C 122.421875 36.03125 116.03125 42.421875 108.15625 42.421875 L 19.84375 42.421875 C 11.96875 42.421875 5.578125 36.03125 5.578125 28.15625 L 5.578125 -60.15625 C 5.578125 -68.03125 11.96875 -74.421875 19.84375 -74.421875 Z M 19.84375 -74.421875 " transform="matrix(0.25,0,0,0.25,0,20)"/>
<path style=" stroke:none;fill-rule:nonzero;fill:rgb(40.000001%,0%,100%);fill-opacity:0.988235;" d="M 12.367188 4.660156 C 11.894531 4.660156 11.511719 5.042969 11.511719 5.511719 C 11.511719 5.695312 11.582031 5.863281 11.683594 6.003906 L 9.546875 8.441406 C 9.460938 8.417969 9.382812 8.386719 9.292969 8.386719 C 8.714844 8.386719 8.238281 8.855469 8.238281 9.425781 C 8.238281 9.449219 8.261719 9.460938 8.265625 9.480469 L 6.386719 10.714844 C 6.246094 10.617188 6.082031 10.550781 5.902344 10.550781 C 5.425781 10.550781 5.046875 10.929688 5.046875 11.398438 C 5.046875 11.683594 5.199219 11.929688 5.417969 12.082031 L 5.074219 18.4375 C 4.863281 18.550781 4.730469 18.789062 4.730469 19.039062 C 4.730469 19.410156 5.042969 19.699219 5.417969 19.699219 C 5.433594 19.699219 5.453125 19.699219 5.472656 19.699219 L 10.144531 24.433594 C 10.144531 24.445312 10.144531 24.453125 10.144531 24.464844 C 10.144531 24.832031 10.429688 25.148438 10.800781 25.148438 C 10.933594 25.148438 11.066406 25.105469 11.171875 25.039062 L 13.734375 26.378906 C 13.730469 26.417969 13.707031 26.449219 13.707031 26.488281 C 13.707031 26.957031 14.089844 27.339844 14.5625 27.339844 C 15.003906 27.339844 15.34375 27 15.386719 26.574219 L 22.226562 24.574219 C 22.378906 24.789062 22.652344 24.929688 22.9375 24.929688 C 23.410156 24.929688 23.792969 24.550781 23.792969 24.082031 C 23.792969 23.882812 23.707031 23.703125 23.59375 23.558594 L 26.554688 17.066406 C 27.027344 17.066406 27.410156 16.6875 27.410156 16.21875 C 27.410156 15.808594 27.121094 15.476562 26.726562 15.398438 L 25.785156 12.300781 C 25.933594 12.179688 26.042969 12.015625 26.042969 11.808594 C 26.042969 11.441406 25.730469 11.152344 25.359375 11.152344 C 25.328125 11.152344 25.304688 11.175781 25.273438 11.179688 L 20.972656 5.976562 C 20.976562 5.941406 21 5.902344 21 5.867188 C 21 5.496094 20.6875 5.207031 20.316406 5.207031 C 20.097656 5.207031 19.925781 5.320312 19.804688 5.480469 L 13.164062 5.238281 C 13.050781 4.902344 12.742188 4.660156 12.367188 4.660156 Z M 13.164062 5.808594 L 19.691406 6.058594 C 19.730469 6.207031 19.820312 6.328125 19.945312 6.414062 L 19.777344 7.152344 C 19.46875 7.222656 19.226562 7.429688 19.089844 7.699219 L 11.796875 8.578125 L 12.28125 6.332031 C 12.316406 6.335938 12.332031 6.359375 12.367188 6.359375 C 12.730469 6.359375 13.042969 6.128906 13.164062 5.808594 Z M 20.601562 6.46875 L 24.789062 11.535156 C 24.746094 11.625 24.703125 11.703125 24.703125 11.808594 C 24.703125 11.992188 24.78125 12.152344 24.902344 12.277344 L 24.5625 13.234375 L 20.914062 8.632812 C 20.996094 8.488281 21.058594 8.316406 21.058594 8.136719 C 21.058594 7.691406 20.773438 7.324219 20.371094 7.179688 L 20.515625 6.496094 C 20.542969 6.488281 20.574219 6.480469 20.601562 6.46875 Z M 11.941406 6.605469 L 11.484375 8.605469 L 10.089844 8.769531 C 10.082031 8.757812 10.066406 8.753906 10.058594 8.742188 Z M 19.121094 8.878906 L 17.011719 17.042969 C 16.945312 17.054688 16.875 17.070312 16.8125 17.097656 L 11.398438 10.988281 L 13.933594 10.714844 C 14.050781 10.921875 14.277344 11.070312 14.535156 11.070312 C 14.902344 11.070312 15.1875 10.753906 15.1875 10.386719 C 15.1875 10.332031 15.171875 10.296875 15.160156 10.246094 L 18.808594 8.90625 Z M 17.550781 9.042969 L 15.019531 9.972656 C 14.894531 9.828125 14.738281 9.726562 14.535156 9.726562 C 14.160156 9.726562 13.847656 10.019531 13.847656 10.386719 C 13.847656 10.394531 13.847656 10.402344 13.847656 10.410156 L 11.339844 10.714844 L 11.542969 9.726562 Z M 20.261719 9.179688 L 24.21875 14.21875 L 23.394531 16.519531 L 18.433594 17.671875 C 18.363281 17.535156 18.265625 17.441406 18.152344 17.339844 Z M 11.199219 9.78125 L 11.027344 10.578125 L 10.402344 9.863281 Z M 8.492188 10.058594 C 8.542969 10.117188 8.601562 10.171875 8.664062 10.222656 L 8.519531 11.015625 L 6.726562 11.234375 C 6.722656 11.226562 6.730469 11.214844 6.726562 11.207031 Z M 9.234375 10.441406 C 9.253906 10.441406 9.269531 10.441406 9.292969 10.441406 C 9.308594 10.441406 9.328125 10.441406 9.347656 10.441406 L 9.746094 10.878906 L 9.148438 10.960938 Z M 10.003906 11.152344 L 10.746094 11.972656 L 10.402344 13.480469 C 10.042969 13.496094 9.777344 13.777344 9.777344 14.136719 C 9.777344 14.34375 9.882812 14.507812 10.03125 14.628906 L 7.78125 18.027344 L 9.089844 11.261719 Z M 8.464844 11.316406 L 7.039062 18.683594 C 6.785156 18.734375 6.589844 18.902344 6.46875 19.121094 L 6.070312 19.039062 C 6.070312 18.765625 5.914062 18.511719 5.671875 18.410156 L 6.011719 12.222656 C 6.394531 12.167969 6.675781 11.882812 6.726562 11.507812 Z M 10.972656 12.277344 L 16.042969 17.945312 C 16.035156 17.980469 16.019531 18.019531 16.015625 18.054688 L 7.808594 18.929688 C 7.753906 18.878906 7.703125 18.832031 7.636719 18.792969 L 10.261719 14.769531 C 10.316406 14.785156 10.371094 14.792969 10.429688 14.792969 C 10.800781 14.792969 11.113281 14.503906 11.113281 14.136719 C 11.113281 13.875 10.9375 13.644531 10.714844 13.535156 Z M 25.160156 12.441406 C 25.175781 12.445312 25.199219 12.433594 25.214844 12.441406 L 25.988281 15.066406 L 24.789062 13.507812 Z M 24.417969 14.496094 L 25.613281 16 L 23.734375 16.4375 Z M 25.699219 16.847656 L 22.996094 22.738281 L 23.050781 19.066406 C 23.339844 19.011719 23.566406 18.765625 23.566406 18.464844 C 23.566406 18.222656 23.402344 18.019531 23.195312 17.917969 L 23.394531 17.394531 Z M 23.082031 17.480469 L 22.9375 17.835938 C 22.589844 17.835938 22.308594 18.121094 22.308594 18.464844 C 22.308594 18.753906 22.5 18.996094 22.765625 19.066406 L 22.683594 23.257812 C 22.472656 23.324219 22.304688 23.484375 22.199219 23.667969 L 18.464844 22.847656 C 18.464844 22.480469 18.152344 22.191406 17.78125 22.191406 C 17.417969 22.191406 17.113281 22.464844 17.097656 22.820312 L 16.183594 23.039062 L 17.324219 19.589844 C 17.949219 19.574219 18.472656 19.113281 18.578125 18.519531 Z M 16.15625 18.902344 C 16.234375 19.046875 16.347656 19.183594 16.472656 19.285156 L 15.160156 23.285156 L 12.425781 23.972656 L 8.007812 19.832031 C 8.015625 19.816406 8.03125 19.796875 8.035156 19.777344 Z M 6.269531 19.613281 L 6.386719 19.644531 C 6.390625 19.675781 6.375 19.71875 6.386719 19.753906 Z M 6.953125 20.300781 C 7.035156 20.324219 7.121094 20.355469 7.210938 20.355469 C 7.230469 20.355469 7.25 20.355469 7.269531 20.355469 L 11 23.832031 C 10.941406 23.816406 10.863281 23.808594 10.800781 23.808594 C 10.667969 23.808594 10.5625 23.851562 10.457031 23.917969 Z M 17.152344 23.09375 C 17.25 23.347656 17.496094 23.503906 17.78125 23.503906 C 18.058594 23.503906 18.304688 23.359375 18.410156 23.121094 L 21.65625 23.832031 L 15.332031 25.667969 L 16.097656 23.339844 Z M 15.074219 23.613281 L 14.390625 25.667969 C 14.351562 25.675781 14.3125 25.683594 14.277344 25.695312 L 12.652344 24.191406 Z M 11.65625 24.433594 L 12.082031 24.847656 L 11.484375 24.519531 C 11.488281 24.5 11.484375 24.480469 11.484375 24.464844 Z M 11.65625 24.433594 "/>
</g>
</svg>
