
<svg xmlns="http://www.w3.org/2000/svg" xmlns:xlink="http://www.w3.org/1999/xlink" width="32px" height="32px" viewBox="0 0 32 32" version="1.1">
<g id="surface1">
<path style="fill-rule:nonzero;fill:rgb(100%,100%,100%);fill-opacity:1;stroke-width:6.988541;stroke-linecap:butt;stroke-linejoin:miter;stroke:rgb(29.019609%,54.901963%,61.56863%);stroke-opacity:1;stroke-miterlimit:4;" d="M 20.734375 6.765625 L 107.265625 6.765625 C 114.984375 6.765625 121.234375 13.015625 121.234375 20.734375 L 121.234375 107.265625 C 121.234375 114.984375 114.984375 121.234375 107.265625 121.234375 L 20.734375 121.234375 C 13.015625 121.234375 6.765625 114.984375 6.765625 107.265625 L 6.765625 20.734375 C 6.765625 13.015625 13.015625 6.765625 20.734375 6.765625 Z M 20.734375 6.765625 " transform="matrix(0.25,0,0,0.25,0,0)"/>
<path style=" stroke:none;fill-rule:nonzero;fill:rgb(29.019609%,54.901963%,61.56863%);fill-opacity:1;" d="M 15.457031 11.660156 L 16.761719 11.660156 C 18.710938 11.660156 18.671875 13.636719 18.671875 13.636719 L 18.671875 15.335938 C 18.671875 15.980469 17.53125 17.316406 17.53125 17.316406 L 17.53125 18.164062 L 20.09375 19.578125 L 20.09375 20.710938 L 12.125 20.710938 L 12.125 19.578125 L 14.6875 18.164062 L 14.6875 17.316406 C 14.6875 17.316406 13.542969 15.980469 13.546875 15.335938 L 13.546875 13.636719 C 13.546875 13.636719 13.507812 11.660156 15.457031 11.660156 Z M 15.457031 11.660156 "/>
<path style="fill:none;stroke-width:1.850622;stroke-linecap:round;stroke-linejoin:round;stroke:rgb(29.019609%,54.901963%,61.56863%);stroke-opacity:1;stroke-miterlimit:4;" d="M 224.878852 113.270138 C 224.878852 142.358602 190.706279 165.955103 148.518934 165.955103 C 106.331589 165.955103 72.159016 142.358602 72.159016 113.270138 C 72.159016 84.181674 106.331589 60.604111 148.518934 60.604111 C 190.706279 60.604111 224.878852 84.181674 224.878852 113.270138 Z M 224.878852 113.270138 " transform="matrix(0.142315,0,0,0.206267,-5.027147,-7.180336)"/>
<path style="fill:none;stroke-width:2.691718;stroke-linecap:round;stroke-linejoin:round;stroke:rgb(29.019609%,54.901963%,61.56863%);stroke-opacity:1;stroke-miterlimit:4;" d="M 224.890408 113.265602 C 224.890408 142.353134 190.715643 165.931664 148.516197 165.931664 C 106.356674 165.931664 72.141986 142.353134 72.141986 113.265602 C 72.141986 84.17807 106.356674 60.59954 148.516197 60.59954 C 190.715643 60.59954 224.890408 84.17807 224.890408 113.265602 Z M 224.890408 113.265602 " transform="matrix(0.0978427,0,0,0.141813,1.578155,0.121021)"/>
<path style=" stroke:none;fill-rule:nonzero;fill:rgb(29.019609%,54.901963%,61.56863%);fill-opacity:1;" d="M 10.082031 14.101562 C 10.082031 14.722656 9.578125 15.234375 8.953125 15.234375 C 8.328125 15.234375 7.820312 14.722656 7.820312 14.101562 C 7.820312 13.476562 8.328125 12.96875 8.953125 12.96875 C 9.578125 12.96875 10.082031 13.476562 10.082031 14.101562 Z M 10.082031 14.101562 "/>
<path style=" stroke:none;fill-rule:nonzero;fill:rgb(29.019609%,54.901963%,61.56863%);fill-opacity:1;" d="M 23.621094 12.613281 C 23.621094 13.234375 23.113281 13.742188 22.488281 13.742188 C 21.863281 13.742188 21.355469 13.234375 21.355469 12.613281 C 21.355469 11.984375 21.863281 11.480469 22.488281 11.480469 C 23.113281 11.480469 23.621094 11.984375 23.621094 12.613281 Z M 23.621094 12.613281 "/>
<path style=" stroke:none;fill-rule:nonzero;fill:rgb(29.019609%,54.901963%,61.56863%);fill-opacity:1;" d="M 17.535156 5.457031 C 17.535156 6.085938 17.03125 6.589844 16.402344 6.589844 C 15.78125 6.589844 15.273438 6.085938 15.273438 5.457031 C 15.273438 4.832031 15.78125 4.324219 16.402344 4.324219 C 17.03125 4.324219 17.535156 4.832031 17.535156 5.457031 Z M 17.535156 5.457031 "/>
<path style=" stroke:none;fill-rule:nonzero;fill:rgb(29.019609%,54.901963%,61.56863%);fill-opacity:1;" d="M 10.800781 24.949219 C 10.800781 25.574219 10.292969 26.078125 9.667969 26.078125 C 9.042969 26.078125 8.535156 25.574219 8.535156 24.949219 C 8.535156 24.324219 9.042969 23.816406 9.667969 23.816406 C 10.292969 23.816406 10.800781 24.324219 10.800781 24.949219 Z M 10.800781 24.949219 "/>
<path style=" stroke:none;fill-rule:nonzero;fill:rgb(29.019609%,54.901963%,61.56863%);fill-opacity:1;" d="M 23.082031 25.421875 C 23.082031 26.050781 22.574219 26.554688 21.949219 26.554688 C 21.324219 26.554688 20.816406 26.050781 20.816406 25.421875 C 20.816406 24.800781 21.324219 24.292969 21.949219 24.292969 C 22.574219 24.292969 23.082031 24.800781 23.082031 25.421875 Z M 23.082031 25.421875 "/>
</g>
</svg>
