<!-- color: #474747 -->
<svg xmlns="http://www.w3.org/2000/svg" xmlns:xlink="http://www.w3.org/1999/xlink" width="32px" height="32px" viewBox="0 0 32 32" version="1.1">
<defs>
<clipPath id="clip1">
  <path d="M 11.5 7.25 L 20.75 7.25 L 20.75 16.5 L 11.5 16.5 Z M 11.5 7.25 "/>
</clipPath>
<clipPath id="clip2">
  <path d="M 31.167969 15.789062 C 31.167969 24.105469 24.421875 30.847656 16.113281 30.847656 C 7.800781 30.847656 1.054688 24.105469 1.054688 15.789062 C 1.054688 7.472656 7.800781 0.734375 16.113281 0.734375 C 24.421875 0.734375 31.167969 7.472656 31.167969 15.789062 Z M 31.167969 15.789062 "/>
</clipPath>
<clipPath id="clip3">
  <path d="M 8.25 12.5 L 24 12.5 L 24 20.375 L 8.25 20.375 Z M 8.25 12.5 "/>
</clipPath>
<clipPath id="clip4">
  <path d="M 31.167969 15.789062 C 31.167969 24.105469 24.421875 30.847656 16.113281 30.847656 C 7.800781 30.847656 1.054688 24.105469 1.054688 15.789062 C 1.054688 7.472656 7.800781 0.734375 16.113281 0.734375 C 24.421875 0.734375 31.167969 7.472656 31.167969 15.789062 Z M 31.167969 15.789062 "/>
</clipPath>
<clipPath id="clip5">
  <path d="M 11.5 16.4375 L 20.75 16.4375 L 20.75 24.3125 L 11.5 24.3125 Z M 11.5 16.4375 "/>
</clipPath>
<clipPath id="clip6">
  <path d="M 31.167969 15.789062 C 31.167969 24.105469 24.421875 30.847656 16.113281 30.847656 C 7.800781 30.847656 1.054688 24.105469 1.054688 15.789062 C 1.054688 7.472656 7.800781 0.734375 16.113281 0.734375 C 24.421875 0.734375 31.167969 7.472656 31.167969 15.789062 Z M 31.167969 15.789062 "/>
</clipPath>
</defs>
<g id="surface1">
<path style="fill-rule:nonzero;fill:rgb(20.392157%,39.607844%,64.313728%);fill-opacity:1;stroke-width:7.175771;stroke-linecap:butt;stroke-linejoin:miter;stroke:rgb(19.215687%,21.176471%,27.843139%);stroke-opacity:1;stroke-miterlimit:4;" d="M 19.578125 5.234375 L 108.421875 5.234375 C 116.34375 5.234375 122.765625 11.65625 122.765625 19.578125 L 122.765625 108.421875 C 122.765625 116.34375 116.34375 122.765625 108.421875 122.765625 L 19.578125 122.765625 C 11.65625 122.765625 5.234375 116.34375 5.234375 108.421875 L 5.234375 19.578125 C 5.234375 11.65625 11.65625 5.234375 19.578125 5.234375 Z M 19.578125 5.234375 " transform="matrix(0.25,0,0,0.25,0,0)"/>
<g clip-path="url(#clip1)" clip-rule="nonzero">
<g clip-path="url(#clip2)" clip-rule="nonzero">
<path style=" stroke:none;fill-rule:nonzero;fill:rgb(63.921571%,63.921571%,63.921571%);fill-opacity:1;" d="M 12.183594 7.277344 L 20.039062 7.277344 C 20.398438 7.277344 20.691406 7.570312 20.691406 7.933594 L 20.691406 15.785156 C 20.691406 16.152344 20.398438 16.441406 20.039062 16.441406 L 12.183594 16.441406 C 11.820312 16.441406 11.527344 16.152344 11.527344 15.785156 L 11.527344 7.933594 C 11.527344 7.570312 11.820312 7.277344 12.183594 7.277344 M 12.183594 7.277344 "/>
</g>
</g>
<g clip-path="url(#clip3)" clip-rule="nonzero">
<g clip-path="url(#clip4)" clip-rule="nonzero">
<path style=" stroke:none;fill-rule:nonzero;fill:rgb(83.529413%,83.529413%,83.529413%);fill-opacity:1;" d="M 8.910156 12.511719 L 23.3125 12.511719 C 23.671875 12.511719 23.964844 12.808594 23.964844 13.167969 L 23.964844 19.714844 C 23.964844 20.074219 23.671875 20.371094 23.3125 20.371094 L 8.910156 20.371094 C 8.550781 20.371094 8.253906 20.074219 8.253906 19.714844 L 8.253906 13.167969 C 8.253906 12.808594 8.550781 12.511719 8.910156 12.511719 M 8.910156 12.511719 "/>
</g>
</g>
<g clip-path="url(#clip5)" clip-rule="nonzero">
<g clip-path="url(#clip6)" clip-rule="nonzero">
<path style=" stroke:none;fill-rule:nonzero;fill:rgb(97.647059%,97.647059%,97.647059%);fill-opacity:1;" d="M 11.527344 16.457031 L 20.691406 16.457031 L 20.691406 24.3125 L 11.527344 24.3125 M 11.527344 16.457031 "/>
</g>
</g>
</g>
</svg>
