
<svg xmlns="http://www.w3.org/2000/svg" xmlns:xlink="http://www.w3.org/1999/xlink" width="32px" height="32px" viewBox="0 0 32 32" version="1.1">
<g id="surface1">
<path style="fill-rule:evenodd;fill:rgb(0%,0%,0%);fill-opacity:1;stroke-width:21.5;stroke-linecap:butt;stroke-linejoin:miter;stroke:rgb(78.039217%,17.647059%,17.647059%);stroke-opacity:1;stroke-miterlimit:4;" d="M 78.625 28.9375 L 435.5625 28.9375 C 461.9375 28.9375 483.375 50.3125 483.375 76.75 L 483.375 436.6875 C 483.375 463.125 461.9375 484.5625 435.5625 484.5625 L 78.625 484.5625 C 52.25 484.5625 30.8125 463.125 30.8125 436.6875 L 30.8125 76.75 C 30.8125 50.3125 52.25 28.9375 78.625 28.9375 Z M 78.625 28.9375 " transform="matrix(0.0625,0,0,0.0625,0,0)"/>
<path style=" stroke:none;fill-rule:nonzero;fill:rgb(98.431373%,16.078432%,16.078432%);fill-opacity:1;" d="M 10.207031 17.261719 C 10.207031 18.503906 9.199219 19.515625 7.957031 19.515625 C 6.710938 19.515625 5.703125 18.503906 5.703125 17.261719 C 5.703125 16.019531 6.710938 15.007812 7.957031 15.007812 C 9.199219 15.007812 10.207031 16.019531 10.207031 17.261719 Z M 10.207031 17.261719 "/>
<path style=" stroke:none;fill-rule:nonzero;fill:rgb(98.431373%,16.078432%,16.078432%);fill-opacity:1;" d="M 14.015625 21.371094 C 14.015625 22.617188 13.007812 23.628906 11.761719 23.628906 C 10.519531 23.628906 9.511719 22.617188 9.511719 21.371094 C 9.511719 20.128906 10.519531 19.121094 11.761719 19.121094 C 13.007812 19.121094 14.015625 20.128906 14.015625 21.371094 Z M 14.015625 21.371094 "/>
<path style=" stroke:none;fill-rule:nonzero;fill:rgb(98.431373%,16.078432%,16.078432%);fill-opacity:1;" d="M 15.464844 11.433594 C 15.464844 12.492188 14.605469 13.351562 13.546875 13.351562 C 12.488281 13.351562 11.628906 12.492188 11.628906 11.433594 C 11.628906 10.375 12.488281 9.515625 13.546875 9.515625 C 14.605469 9.515625 15.464844 10.375 15.464844 11.433594 Z M 15.464844 11.433594 "/>
<path style=" stroke:none;fill-rule:nonzero;fill:rgb(90.196079%,38.82353%,38.82353%);fill-opacity:1;" d="M 18.820312 15.222656 C 18.820312 16.464844 17.808594 17.472656 16.566406 17.472656 C 15.324219 17.472656 14.3125 16.464844 14.3125 15.222656 C 14.3125 13.976562 15.324219 12.96875 16.566406 12.96875 C 17.808594 12.96875 18.820312 13.976562 18.820312 15.222656 Z M 18.820312 15.222656 "/>
<path style=" stroke:none;fill-rule:nonzero;fill:rgb(90.196079%,38.82353%,38.82353%);fill-opacity:1;" d="M 21.027344 20.925781 C 21.027344 21.933594 20.207031 22.746094 19.203125 22.746094 C 18.199219 22.746094 17.378906 21.933594 17.378906 20.925781 C 17.378906 19.917969 18.199219 19.105469 19.203125 19.105469 C 20.207031 19.105469 21.027344 19.917969 21.027344 20.925781 Z M 21.027344 20.925781 "/>
<path style=" stroke:none;fill-rule:nonzero;fill:rgb(90.196079%,38.82353%,38.82353%);fill-opacity:1;" d="M 23.488281 11.289062 C 23.488281 12.296875 22.675781 13.113281 21.667969 13.113281 C 20.660156 13.113281 19.847656 12.296875 19.847656 11.289062 C 19.847656 10.285156 20.660156 9.46875 21.667969 9.46875 C 22.675781 9.46875 23.488281 10.285156 23.488281 11.289062 Z M 23.488281 11.289062 "/>
<path style=" stroke:none;fill-rule:nonzero;fill:rgb(100%,40.000001%,0%);fill-opacity:1;" d="M 20.902344 6.785156 C 20.902344 7.683594 20.171875 8.414062 19.269531 8.414062 C 18.371094 8.414062 17.640625 7.683594 17.640625 6.785156 C 17.640625 5.882812 18.371094 5.152344 19.269531 5.152344 C 20.171875 5.152344 20.902344 5.882812 20.902344 6.785156 Z M 20.902344 6.785156 "/>
<path style=" stroke:none;fill-rule:nonzero;fill:rgb(95.686275%,84.313726%,84.313726%);fill-opacity:1;" d="M 25.703125 16.246094 C 25.703125 17.253906 24.886719 18.066406 23.882812 18.066406 C 22.875 18.066406 22.058594 17.253906 22.058594 16.246094 C 22.058594 15.238281 22.875 14.425781 23.882812 14.425781 C 24.886719 14.425781 25.703125 15.238281 25.703125 16.246094 Z M 25.703125 16.246094 "/>
<path style=" stroke:none;fill-rule:nonzero;fill:rgb(95.686275%,84.313726%,84.313726%);fill-opacity:1;" d="M 27.902344 21.40625 C 27.902344 22.542969 26.976562 23.464844 25.839844 23.464844 C 24.699219 23.464844 23.777344 22.542969 23.777344 21.40625 C 23.777344 20.265625 24.699219 19.34375 25.839844 19.34375 C 26.976562 19.34375 27.902344 20.265625 27.902344 21.40625 Z M 27.902344 21.40625 "/>
</g>
</svg>
