
<svg xmlns="http://www.w3.org/2000/svg" xmlns:xlink="http://www.w3.org/1999/xlink" width="32px" height="32px" viewBox="0 0 32 32" version="1.1">
<g id="surface1">
<path style="fill-rule:nonzero;fill:rgb(100%,100%,100%);fill-opacity:1;stroke-width:7.865799;stroke-linecap:butt;stroke-linejoin:miter;stroke:rgb(97.647059%,87.058824%,41.176471%);stroke-opacity:1;stroke-miterlimit:4;" d="M -14.571246 274.707858 L 82.83071 274.707858 C 91.509045 274.707858 98.564601 281.763415 98.564601 290.441749 L 98.564601 387.843705 C 98.564601 396.522039 91.509045 403.577596 82.83071 403.577596 L -14.571246 403.577596 C -23.24958 403.577596 -30.305136 396.522039 -30.305136 387.843705 L -30.305136 290.441749 C -30.305136 281.763415 -23.24958 274.707858 -14.571246 274.707858 Z M -14.571246 274.707858 " transform="matrix(0.221457,0,0,0.221457,8.441743,-59.105418)"/>
<path style=" stroke:none;fill-rule:evenodd;fill:rgb(97.647059%,87.058824%,41.176471%);fill-opacity:1;" d="M 16 5.269531 C 13.15625 5.269531 10.855469 7.566406 10.855469 10.410156 C 10.855469 12.40625 11.980469 14.144531 13.636719 15.003906 L 13.636719 25.339844 L 15.949219 26.730469 C 15.96875 19.292969 15.988281 15.605469 15.984375 15.574219 C 15.988281 15.574219 15.996094 15.574219 16 15.574219 C 18.84375 15.574219 21.144531 13.253906 21.144531 10.410156 C 21.144531 7.566406 18.84375 5.269531 16 5.269531 Z M 15.984375 6.792969 C 16.828125 6.792969 17.507812 7.472656 17.507812 8.316406 C 17.507812 9.160156 16.828125 9.839844 15.984375 9.839844 C 15.136719 9.839844 14.457031 9.160156 14.457031 8.316406 C 14.457031 7.472656 15.136719 6.792969 15.984375 6.792969 Z M 15.984375 6.792969 "/>
<path style=" stroke:none;fill-rule:evenodd;fill:rgb(100%,78.431374%,19.215687%);fill-opacity:1;" d="M 15.949219 26.730469 L 18.320312 25.339844 C 18.320312 25.054688 18.320312 24.640625 18.320312 24.101562 L 17.261719 22.972656 L 18.320312 22.035156 L 18.320312 21.683594 L 17.253906 20.578125 L 18.320312 19.433594 L 17.246094 18.277344 L 18.320312 17.242188 C 18.320312 16.003906 18.320312 15.238281 18.320312 14.949219 C 17.765625 15.199219 16.851562 15.527344 15.972656 15.515625 C 15.964844 15.515625 15.953125 19.246094 15.949219 26.730469 Z M 15.949219 26.730469 "/>
</g>
</svg>
