
<svg xmlns="http://www.w3.org/2000/svg" xmlns:xlink="http://www.w3.org/1999/xlink" width="32px" height="32px" viewBox="0 0 32 32" version="1.1">
<g id="surface1">
<path style="fill-rule:nonzero;fill:rgb(100%,100%,100%);fill-opacity:1;stroke-width:6.869196;stroke-linecap:butt;stroke-linejoin:miter;stroke:rgb(29.803923%,65.490198%,75.686276%);stroke-opacity:1;stroke-miterlimit:4;" d="M 406.055786 427.532389 L 491.087036 427.532389 C 498.680786 427.532389 504.837036 433.688639 504.837036 441.282389 L 504.837036 526.313639 C 504.837036 533.907389 498.680786 540.063639 491.087036 540.063639 L 406.055786 540.063639 C 398.462036 540.063639 392.305786 533.907389 392.305786 526.313639 L 392.305786 441.282389 C 392.305786 433.688639 398.462036 427.532389 406.055786 427.532389 Z M 406.055786 427.532389 " transform="matrix(0.25,0,0,0.25,-96.142853,-104.949504)"/>
<path style=" stroke:none;fill-rule:nonzero;fill:rgb(29.803923%,65.490198%,75.686276%);fill-opacity:1;" d="M 19.410156 27.910156 C 22.277344 27.089844 24.042969 24.933594 24.050781 22.246094 C 24.058594 19.667969 22.582031 17.996094 19.65625 17.269531 C 18.253906 16.917969 15.46875 16.925781 14.050781 17.277344 C 12.820312 17.582031 11.660156 18.132812 10.972656 18.738281 C 10.089844 19.511719 9.957031 20.007812 10.488281 20.582031 C 10.84375 20.972656 11.238281 20.902344 11.910156 20.320312 C 12.511719 19.800781 13.230469 19.402344 13.578125 19.394531 C 13.816406 19.394531 13.816406 19.425781 13.597656 20.28125 C 13.1875 21.871094 14.007812 23.609375 15.484375 24.277344 C 16.308594 24.648438 17.605469 24.628906 18.371094 24.234375 C 19.441406 23.675781 20.082031 22.671875 20.152344 21.441406 C 20.199219 20.589844 20.089844 20.269531 19.625 19.925781 C 19.230469 19.628906 18.96875 19.761719 18.96875 20.253906 C 18.96875 20.949219 18.433594 21.261719 17.886719 20.878906 C 17.707031 20.753906 17.640625 20.597656 17.640625 20.28125 C 17.640625 18.808594 20.417969 18.898438 21.511719 20.402344 C 22.671875 22.011719 21.808594 24.480469 19.714844 25.542969 C 18.316406 26.253906 15.933594 26.332031 13.605469 25.746094 C 12.035156 25.347656 10.613281 24.347656 10.050781 23.234375 C 9.605469 22.355469 9.480469 21.566406 9.410156 19.175781 C 9.316406 16.222656 9.203125 15.371094 8.816406 14.816406 C 8.480469 14.328125 7.898438 13.980469 7.269531 13.898438 C 6.65625 13.816406 6.574219 13.972656 6.753906 14.917969 C 6.835938 15.339844 6.957031 17.082031 7.023438 18.785156 C 7.097656 20.65625 7.214844 22.199219 7.316406 22.683594 C 7.945312 25.683594 10.496094 27.632812 14.433594 28.121094 C 15.828125 28.296875 18.449219 28.183594 19.410156 27.910156 Z M 22.488281 17.097656 C 22.90625 16.746094 23.582031 14.785156 24.902344 10.050781 C 25.089844 9.378906 25.019531 8.894531 24.683594 8.578125 C 24.113281 8.042969 23.402344 8.230469 22.992188 9.023438 C 22.898438 9.207031 22.59375 10.332031 22.316406 11.527344 C 21.152344 16.589844 21.136719 16.683594 21.484375 16.984375 C 21.875 17.328125 22.179688 17.363281 22.488281 17.097656 Z M 12.824219 16.457031 C 13.046875 16.230469 13.050781 15.328125 12.832031 13.886719 C 12.554688 12.027344 11.445312 6.449219 11.265625 6 C 10.917969 5.132812 10.113281 4.792969 9.347656 5.1875 C 8.90625 5.414062 8.792969 5.667969 8.796875 6.421875 C 8.796875 7.5 10.519531 14.449219 11.179688 16.019531 C 11.265625 16.226562 11.425781 16.449219 11.53125 16.511719 C 11.832031 16.683594 12.625 16.652344 12.824219 16.457031 Z M 19.582031 15.949219 C 19.835938 15.460938 20.234375 13.367188 20.785156 9.621094 C 21.101562 7.476562 21.261719 6.046875 21.21875 5.777344 C 21.117188 5.144531 20.714844 4.800781 20.078125 4.800781 C 19.507812 4.800781 19.195312 5.027344 18.972656 5.609375 C 18.816406 6.027344 18.113281 12.457031 18.035156 14.199219 C 17.964844 15.785156 18.046875 16.066406 18.628906 16.253906 C 19.128906 16.417969 19.386719 16.335938 19.582031 15.949219 Z M 16.410156 15.804688 C 16.808594 15.410156 16.488281 4.894531 16.054688 4.058594 C 15.769531 3.503906 15.457031 3.304688 14.867188 3.304688 C 14.171875 3.304688 13.792969 3.652344 13.648438 4.417969 C 13.535156 5.035156 14.191406 12.285156 14.546875 14.359375 C 14.730469 15.410156 14.800781 15.613281 15.058594 15.839844 C 15.300781 16.050781 15.441406 16.089844 15.796875 16.042969 C 16.035156 16.011719 16.316406 15.902344 16.410156 15.804688 Z M 16.410156 15.804688 "/>
</g>
</svg>
