
<svg xmlns="http://www.w3.org/2000/svg" xmlns:xlink="http://www.w3.org/1999/xlink" width="32px" height="32px" viewBox="0 0 32 32" version="1.1">
<g id="surface1">
<path style="fill-rule:nonzero;fill:rgb(100%,100%,100%);fill-opacity:1;stroke-width:7.840856;stroke-linecap:butt;stroke-linejoin:miter;stroke:rgb(97.647059%,87.058824%,41.176471%);stroke-opacity:1;stroke-miterlimit:4;" d="M -14.412496 274.919525 L 82.67196 274.919525 C 91.332656 274.919525 98.352934 281.939804 98.352934 290.600499 L 98.352934 387.684955 C 98.352934 396.34565 91.332656 403.365929 82.67196 403.365929 L -14.412496 403.365929 C -23.073191 403.365929 -30.09347 396.34565 -30.09347 387.684955 L -30.09347 290.600499 C -30.09347 281.939804 -23.073191 274.919525 -14.412496 274.919525 Z M -14.412496 274.919525 " transform="matrix(0.221457,0,0,0.221457,8.441743,-59.105418)"/>
<path style=" stroke:none;fill-rule:nonzero;fill:rgb(90.196079%,90.196079%,90.196079%);fill-opacity:1;" d="M 16 4.292969 C 11.621094 4.292969 8.097656 7.816406 8.097656 12.195312 L 8.097656 27.707031 L 9.851562 27.707031 L 9.851562 12.195312 C 9.851562 8.789062 12.59375 6.046875 16 6.046875 C 19.40625 6.046875 22.148438 8.789062 22.148438 12.195312 L 22.148438 27.707031 L 23.902344 27.707031 L 23.902344 12.195312 C 23.902344 7.816406 20.378906 4.292969 16 4.292969 Z M 16 4.292969 "/>
<path style=" stroke:none;fill-rule:nonzero;fill:rgb(97.647059%,87.058824%,41.176471%);fill-opacity:1;" d="M 6.046875 27.707031 L 25.953125 27.707031 L 25.953125 16 L 6.046875 16 Z M 6.046875 27.707031 "/>
<path style=" stroke:none;fill-rule:nonzero;fill:rgb(13.333334%,21.176471%,33.725491%);fill-opacity:1;" d="M 16 18.339844 C 15.191406 18.339844 14.535156 18.996094 14.535156 19.804688 C 14.535156 20.386719 14.882812 20.914062 15.414062 21.144531 L 15.414062 25.367188 L 16.585938 25.367188 L 16.585938 21.144531 C 17.117188 20.914062 17.464844 20.386719 17.464844 19.804688 C 17.464844 18.996094 16.808594 18.339844 16 18.339844 Z M 16 18.339844 "/>
</g>
</svg>
