
<svg xmlns="http://www.w3.org/2000/svg" xmlns:xlink="http://www.w3.org/1999/xlink" width="32px" height="32px" viewBox="0 0 32 32" version="1.1">
<g id="surface1">
<path style="fill-rule:nonzero;fill:rgb(100%,100%,100%);fill-opacity:1;stroke-width:27.206659;stroke-linecap:butt;stroke-linejoin:miter;stroke:rgb(0%,26.666668%,33.333334%);stroke-opacity:1;stroke-miterlimit:4;" d="M 87.5625 33.1875 L 424.4375 33.1875 C 454.4375 33.1875 478.8125 57.5625 478.8125 87.5625 L 478.8125 424.4375 C 478.8125 454.4375 454.4375 478.8125 424.4375 478.8125 L 87.5625 478.8125 C 57.5625 478.8125 33.1875 454.4375 33.1875 424.4375 L 33.1875 87.5625 C 33.1875 57.5625 57.5625 33.1875 87.5625 33.1875 Z M 87.5625 33.1875 " transform="matrix(0.0625,0,0,0.0625,0,0)"/>
<path style=" stroke:none;fill-rule:nonzero;fill:rgb(92.54902%,92.54902%,92.54902%);fill-opacity:1;" d="M 8.691406 25.792969 C 8.519531 24.210938 8.816406 23.703125 9.277344 24.796875 C 9.589844 25.554688 9.910156 25.660156 10.835938 25.308594 C 11.769531 24.953125 11.542969 25.257812 10.398438 25.898438 C 9.78125 26.246094 9.175781 26.652344 9.050781 26.800781 C 8.875 27.019531 8.800781 26.8125 8.691406 25.792969 Z M 8.691406 25.792969 "/>
<path style=" stroke:none;fill-rule:nonzero;fill:rgb(82.352942%,22.745098%,20%);fill-opacity:1;" d="M 12.875 26.96875 C 12.597656 26.777344 12.628906 26.601562 12.988281 26.285156 C 13.605469 25.738281 13.839844 24.519531 13.472656 23.757812 C 13.371094 23.546875 13.300781 23.320312 13.316406 23.253906 C 13.351562 23.097656 15.445312 21.132812 15.941406 20.785156 C 16.300781 20.53125 16.332031 20.527344 16.578125 20.652344 C 17.285156 21.019531 17.742188 21.777344 17.746094 22.597656 C 17.746094 23.222656 17.605469 23.578125 17.089844 24.242188 C 16.300781 25.261719 15.238281 26.125 14.089844 26.683594 C 13.21875 27.105469 13.105469 27.132812 12.875 26.96875 Z M 12.875 26.96875 "/>
<path style=" stroke:none;fill-rule:nonzero;fill:rgb(82.352942%,22.745098%,20%);fill-opacity:1;" d="M 7.355469 23.582031 C 7.050781 23.277344 7.222656 21.402344 7.667969 20.199219 C 7.886719 19.605469 8.4375 18.621094 8.777344 18.21875 C 9.070312 17.871094 9.820312 17.503906 10.386719 17.4375 C 10.988281 17.367188 11.761719 17.597656 12.164062 17.96875 L 12.480469 18.257812 L 12.324219 18.789062 C 12.242188 19.082031 11.976562 19.878906 11.738281 20.566406 L 11.300781 21.808594 L 10.480469 21.808594 C 9.738281 21.808594 9.617188 21.832031 9.183594 22.074219 C 8.636719 22.375 8.140625 22.914062 8.058594 23.289062 C 7.972656 23.683594 7.605469 23.835938 7.355469 23.582031 Z M 7.355469 23.582031 "/>
<path style=" stroke:none;fill-rule:nonzero;fill:rgb(82.352942%,22.745098%,20%);fill-opacity:1;" d="M 19.0625 14.011719 C 17.480469 13.738281 16.324219 12.488281 16.324219 10.992188 C 16.324219 9.78125 17.15625 8.621094 18.359375 8.160156 C 19.210938 7.832031 20.226562 7.863281 21.035156 8.242188 C 22.230469 8.800781 22.894531 9.785156 22.894531 11.003906 C 22.894531 12.425781 21.769531 13.746094 20.371094 13.980469 C 19.632812 14.097656 19.511719 14.085938 19.0625 14.011719 Z M 19.0625 14.011719 "/>
<path style=" stroke:none;fill-rule:nonzero;fill:rgb(82.352942%,22.745098%,20%);fill-opacity:1;" d="M 23.265625 7.917969 C 22.625 7.777344 21.808594 7.367188 21.289062 6.921875 C 20.960938 6.640625 20.394531 5.921875 20.394531 5.785156 C 20.394531 5.675781 21.558594 5.199219 22.152344 5.0625 C 23.613281 4.722656 24.25 5.324219 24.375 7.148438 C 24.441406 8.128906 24.390625 8.160156 23.265625 7.917969 Z M 23.265625 7.917969 "/>
<path style=" stroke:none;fill-rule:nonzero;fill:rgb(100%,80.000001%,0%);fill-opacity:1;" d="M 12.945312 20.796875 C 12.148438 20.296875 10.597656 21.332031 9.480469 23.113281 C 8.363281 24.894531 8.105469 26.742188 8.90625 27.242188 C 9.703125 27.742188 11.253906 26.707031 12.371094 24.925781 C 13.488281 23.144531 13.746094 21.296875 12.945312 20.796875 Z M 12.945312 20.796875 "/>
<path style=" stroke:none;fill-rule:nonzero;fill:rgb(60.000002%,60.000002%,60.000002%);fill-opacity:1;" d="M 12 22.582031 C 11.667969 22.339844 11.871094 22.480469 12.902344 20.964844 C 13.964844 19.398438 14.347656 19.113281 13.738281 19.113281 C 13.457031 19.113281 13.324219 19.636719 12.027344 21.527344 C 11.410156 22.429688 11.609375 22.398438 10.84375 21.871094 C 10.460938 21.605469 10.375 21.734375 10.964844 19.828125 C 11.691406 17.503906 13.285156 13.550781 14.003906 12.300781 C 15.371094 9.933594 17.300781 7.746094 19.121094 6.496094 C 19.722656 6.078125 20.292969 5.738281 20.386719 5.738281 C 20.480469 5.738281 20.769531 5.960938 21.023438 6.234375 C 21.714844 6.972656 22.621094 7.472656 23.554688 7.636719 L 24.386719 7.785156 L 24.363281 8.738281 C 24.328125 10.082031 23.339844 12.457031 22.300781 14.125 C 21.820312 14.902344 20.753906 16.40625 19.785156 17.378906 C 17.960938 19.210938 14.839844 22.316406 13.324219 23.226562 C 13.242188 23.277344 12.195312 22.722656 12 22.582031 Z M 20.527344 13.855469 C 21.519531 13.582031 22.535156 12.347656 22.644531 11.605469 C 22.976562 9.402344 21.730469 8.054688 19.660156 8.054688 C 16.804688 8.054688 15.371094 11.144531 17.359375 13.019531 C 17.902344 13.535156 18.855469 13.925781 19.417969 13.972656 C 19.574219 13.976562 20.101562 13.972656 20.527344 13.855469 Z M 20.527344 13.855469 "/>
<path style=" stroke:none;fill-rule:nonzero;fill:rgb(82.352942%,22.745098%,20%);fill-opacity:1;" d="M 10.246094 24.285156 C 10.246094 24.175781 10.808594 23.222656 11.496094 22.175781 C 13.664062 18.871094 13.554688 19.023438 13.824219 18.992188 C 14.121094 18.957031 14.226562 19.15625 14.085938 19.46875 C 14.03125 19.585938 13.515625 20.332031 12.9375 21.128906 C 12.363281 21.925781 11.746094 22.800781 11.566406 23.066406 C 10.765625 24.292969 10.246094 24.773438 10.246094 24.285156 Z M 10.246094 24.285156 "/>
</g>
</svg>
