
<svg xmlns="http://www.w3.org/2000/svg" xmlns:xlink="http://www.w3.org/1999/xlink" width="32px" height="32px" viewBox="0 0 32 32" version="1.1">
<g id="surface1">
<path style=" stroke:none;fill-rule:nonzero;fill:rgb(95.294118%,34.509805%,13.725491%);fill-opacity:1;" d="M 6.089844 1.914062 L 26.128906 1.914062 C 28.429688 1.914062 30.296875 3.78125 30.296875 6.082031 L 30.296875 26.121094 C 30.296875 28.421875 28.429688 30.289062 26.128906 30.289062 L 6.089844 30.289062 C 3.789062 30.289062 1.925781 28.421875 1.925781 26.121094 L 1.925781 6.082031 C 1.925781 3.78125 3.789062 1.914062 6.089844 1.914062 Z M 6.089844 1.914062 "/>
<path style="fill:none;stroke-width:2;stroke-linecap:butt;stroke-linejoin:miter;stroke:rgb(100%,100%,100%);stroke-opacity:1;stroke-miterlimit:4;" d="M 305.560875 72.498821 L 309.503189 72.498821 L 309.503189 69.189562 L 310.284213 68.405145 L 311.49914 68.405145 L 312.590095 66.517641 L 323.37567 66.517641 L 324.503816 67.571701 L 324.503816 68.625762 L 325.50799 69.502103 L 327.497743 69.502103 L 327.497743 71.499915 L 329.499893 71.499915 L 329.499893 69.502103 L 332.066116 69.502103 C 332.066116 69.502103 333.436008 72.933928 333.374022 74.625327 C 333.312036 76.310598 332.884332 80.496198 332.190088 80.496198 L 329.499893 80.496198 L 329.499893 78.559669 L 326.04107 78.559669 L 326.04107 79.938527 L 324.026523 81.513489 L 316.309259 81.513489 L 313.067388 77.493352 L 310.12305 77.554634 L 309.472196 76.966322 L 309.472196 72.627515 " transform="matrix(0.630182,0,0,0.637416,-184.781616,-30.610346)"/>
<path style="fill:none;stroke-width:2;stroke-linecap:butt;stroke-linejoin:miter;stroke:rgb(100%,100%,100%);stroke-opacity:1;stroke-miterlimit:4;" d="M 314.003377 63.49641 L 321.999579 63.49641 " transform="matrix(0.630182,0,0,0.637416,-184.781616,-30.610346)"/>
<path style="fill:none;stroke-width:2;stroke-linecap:butt;stroke-linejoin:miter;stroke:rgb(100%,100%,100%);stroke-opacity:1;stroke-miterlimit:4;" d="M 315.999328 63.998927 L 320.003628 63.998927 L 320.003628 65.996739 L 315.999328 65.996739 Z M 315.999328 63.998927 " transform="matrix(0.630182,0,0,0.637416,-184.781616,-30.610346)"/>
<path style="fill:none;stroke-width:3;stroke-linecap:butt;stroke-linejoin:miter;stroke:rgb(100%,100%,100%);stroke-opacity:1;stroke-miterlimit:4;" d="M 304.500914 67.467521 L 304.500914 71.843098 L 305.498889 74.815303 L 305.498889 76.996963 " transform="matrix(0.630182,0,0,0.637416,-184.781616,-30.610346)"/>
<path style="fill-rule:nonzero;fill:rgb(100%,100%,100%);fill-opacity:1;stroke-width:1.015513;stroke-linecap:butt;stroke-linejoin:miter;stroke:rgb(95.294118%,34.509805%,13.725491%);stroke-opacity:1;stroke-miterlimit:4;" d="M 82.015625 63.265625 L 62.703125 74.578125 L 65.578125 63.265625 C 66.140625 63.03125 70.453125 63.515625 70.796875 63.265625 L 77.203125 52.140625 L 73.78125 52.0625 C 73.78125 52.0625 72.703125 52.015625 72.484375 51.125 C 72.203125 50 72.359375 49.4375 73.25 48.40625 L 86.171875 27.9375 L 102.03125 27.9375 L 82.25 44.890625 L 93.890625 44.90625 L 74.640625 63.265625 Z M 82.015625 63.265625 " transform="matrix(0.25,0,0,0.25,0,0)"/>
</g>
</svg>
