
<svg xmlns="http://www.w3.org/2000/svg" xmlns:xlink="http://www.w3.org/1999/xlink" width="32px" height="32px" viewBox="0 0 32 32" version="1.1">
<g id="surface1">
<path style="fill-rule:nonzero;fill:rgb(70.19608%,43.529412%,11.764706%);fill-opacity:1;stroke-width:7.117036;stroke-linecap:butt;stroke-linejoin:miter;stroke:rgb(20%,20%,20%);stroke-opacity:1;stroke-miterlimit:4;" d="M 19.9375 5.703125 L 108.0625 5.703125 C 115.921875 5.703125 122.296875 12.078125 122.296875 19.9375 L 122.296875 108.0625 C 122.296875 115.921875 115.921875 122.296875 108.0625 122.296875 L 19.9375 122.296875 C 12.078125 122.296875 5.703125 115.921875 5.703125 108.0625 L 5.703125 19.9375 C 5.703125 12.078125 12.078125 5.703125 19.9375 5.703125 Z M 19.9375 5.703125 " transform="matrix(0.25,0,0,0.25,0,0)"/>
<path style=" stroke:none;fill-rule:evenodd;fill:rgb(20%,20%,20%);fill-opacity:1;" d="M 27.824219 15.976562 C 27.71875 9.40625 22.320312 4.160156 15.753906 4.238281 C 9.183594 4.316406 3.914062 9.691406 3.964844 16.261719 C 4.019531 22.832031 9.371094 28.121094 15.941406 28.097656 C 22.511719 28.070312 27.824219 22.738281 27.824219 16.167969 "/>
<path style=" stroke:none;fill-rule:evenodd;fill:rgb(99.607843%,82.352942%,42.352942%);fill-opacity:0.4;" d="M 25.839844 16.1875 C 25.839844 10.699219 21.386719 6.246094 15.898438 6.246094 C 10.40625 6.246094 5.957031 10.699219 5.957031 16.1875 C 5.957031 21.675781 10.40625 26.128906 15.898438 26.128906 C 21.386719 26.128906 25.839844 21.675781 25.839844 16.1875 "/>
<path style=" stroke:none;fill-rule:evenodd;fill:rgb(46.27451%,32.549021%,12.941177%);fill-opacity:0.686275;" d="M 22.371094 16.175781 C 22.371094 12.609375 19.476562 9.714844 15.90625 9.714844 C 12.339844 9.714844 9.445312 12.609375 9.445312 16.175781 C 9.445312 19.746094 12.339844 22.640625 15.90625 22.640625 C 19.476562 22.640625 22.371094 19.746094 22.371094 16.175781 "/>
<path style=" stroke:none;fill-rule:evenodd;fill:rgb(32.549021%,18.039216%,0%);fill-opacity:1;" d="M 20.085938 16.164062 C 20.085938 13.851562 18.210938 11.976562 15.898438 11.976562 C 13.585938 11.976562 11.710938 13.851562 11.710938 16.164062 C 11.710938 18.476562 13.585938 20.347656 15.898438 20.347656 C 18.210938 20.347656 20.085938 18.476562 20.085938 16.164062 "/>
<path style=" stroke:none;fill-rule:evenodd;fill:rgb(100%,100%,100%);fill-opacity:0.643137;" d="M 19.96875 13.777344 C 20.378906 12.898438 19.984375 11.847656 19.089844 11.425781 C 18.191406 11.007812 17.128906 11.378906 16.71875 12.257812 C 16.308594 13.136719 16.703125 14.1875 17.601562 14.605469 C 18.496094 15.027344 19.558594 14.652344 19.96875 13.777344 "/>
<path style=" stroke:none;fill-rule:evenodd;fill:rgb(100%,100%,100%);fill-opacity:0.364706;" d="M 13.980469 19.304688 C 14.328125 18.878906 14.300781 18.25 13.917969 17.902344 C 13.535156 17.550781 12.941406 17.613281 12.589844 18.042969 C 12.242188 18.464844 12.269531 19.097656 12.652344 19.445312 C 13.035156 19.792969 13.628906 19.730469 13.980469 19.304688 "/>
</g>
</svg>
