
<svg xmlns="http://www.w3.org/2000/svg" xmlns:xlink="http://www.w3.org/1999/xlink" width="32px" height="32px" viewBox="0 0 32 32" version="1.1">
<g id="surface1">
<path style=" stroke:none;fill-rule:nonzero;fill:rgb(24.313726%,80.392158%,96.470588%);fill-opacity:1;" d="M 1.171875 3.160156 C 0.898438 3.160156 0.679688 3.378906 0.679688 3.652344 L 0.679688 28.363281 C 0.679688 28.636719 0.898438 28.859375 1.171875 28.859375 L 30.828125 28.859375 C 31.101562 28.859375 31.320312 28.636719 31.320312 28.363281 L 31.320312 3.652344 C 31.320312 3.378906 31.101562 3.160156 30.828125 3.160156 Z M 1.171875 3.160156 "/>
<path style=" stroke:none;fill-rule:nonzero;fill:rgb(0%,33.333334%,83.137256%);fill-opacity:1;" d="M 0.679688 3.257812 L 0.679688 5.410156 C 0.679688 5.808594 0.898438 6.128906 1.171875 6.128906 L 30.828125 6.128906 C 31.101562 6.128906 31.320312 5.808594 31.320312 5.410156 L 31.320312 3.257812 Z M 0.679688 3.257812 "/>
<path style=" stroke:none;fill-rule:nonzero;fill:rgb(100%,100%,100%);fill-opacity:1;" d="M 29.839844 4.378906 C 29.839844 4.238281 29.730469 4.128906 29.589844 4.128906 C 29.457031 4.128906 29.34375 4.238281 29.34375 4.378906 C 29.34375 4.511719 29.457031 4.625 29.589844 4.625 C 29.730469 4.625 29.839844 4.511719 29.839844 4.378906 Z M 29.839844 4.378906 "/>
<path style=" stroke:none;fill-rule:nonzero;fill:rgb(100%,100%,100%);fill-opacity:1;" d="M 28.355469 4.378906 C 28.355469 4.238281 28.246094 4.128906 28.109375 4.128906 C 27.972656 4.128906 27.863281 4.238281 27.863281 4.378906 C 27.863281 4.511719 27.972656 4.625 28.109375 4.625 C 28.246094 4.625 28.355469 4.511719 28.355469 4.378906 Z M 28.355469 4.378906 "/>
<path style=" stroke:none;fill-rule:nonzero;fill:rgb(100%,100%,100%);fill-opacity:1;" d="M 26.871094 4.378906 C 26.871094 4.238281 26.761719 4.128906 26.625 4.128906 C 26.488281 4.128906 26.378906 4.238281 26.378906 4.378906 C 26.378906 4.511719 26.488281 4.625 26.625 4.625 C 26.761719 4.625 26.871094 4.511719 26.871094 4.378906 Z M 26.871094 4.378906 "/>
<path style=" stroke:none;fill-rule:nonzero;fill:rgb(65.098041%,90.588236%,95.294118%);fill-opacity:1;" d="M 0.679688 3.636719 C 0.679688 3.363281 0.898438 3.140625 1.171875 3.140625 L 30.828125 3.140625 C 31.101562 3.140625 31.320312 3.363281 31.320312 3.636719 Z M 0.679688 3.636719 "/>
<path style=" stroke:none;fill-rule:nonzero;fill:rgb(100%,100%,100%);fill-opacity:1;" d="M 1.667969 4.378906 C 1.667969 4.238281 1.558594 4.128906 1.417969 4.128906 C 1.285156 4.128906 1.171875 4.238281 1.171875 4.378906 C 1.171875 4.511719 1.285156 4.625 1.417969 4.625 C 1.558594 4.625 1.667969 4.511719 1.667969 4.378906 Z M 1.667969 4.378906 "/>
<path style=" stroke:none;fill-rule:nonzero;fill:rgb(100%,100%,100%);fill-opacity:1;" d="M 2.65625 4.378906 C 2.65625 4.238281 2.542969 4.128906 2.410156 4.128906 C 2.269531 4.128906 2.160156 4.238281 2.160156 4.378906 C 2.160156 4.511719 2.269531 4.625 2.410156 4.625 C 2.542969 4.625 2.65625 4.511719 2.65625 4.378906 Z M 2.65625 4.378906 "/>
<path style=" stroke:none;fill-rule:nonzero;fill:rgb(80.000001%,80.000001%,80.000001%);fill-opacity:1;" d="M 5.835938 7.734375 C 5.648438 7.734375 5.492188 7.90625 5.460938 8.136719 L 6.945312 8.136719 C 6.917969 7.90625 6.761719 7.734375 6.574219 7.734375 Z M 5.835938 7.734375 "/>
<path style=" stroke:none;fill-rule:nonzero;fill:rgb(14.509805%,68.235296%,87.450981%);fill-opacity:1;" d="M 3.820312 8.199219 L 6.957031 8.199219 C 7.207031 8.199219 7.410156 8.402344 7.410156 8.648438 L 7.410156 10.222656 C 7.410156 10.472656 7.207031 10.675781 6.957031 10.675781 L 3.820312 10.675781 C 3.574219 10.675781 3.371094 10.472656 3.371094 10.222656 L 3.371094 8.648438 C 3.371094 8.402344 3.574219 8.199219 3.820312 8.199219 Z M 3.820312 8.199219 "/>
<path style=" stroke:none;fill-rule:nonzero;fill:rgb(14.509805%,68.235296%,87.450981%);fill-opacity:1;" d="M 3.820312 8.777344 L 6.957031 8.777344 C 7.207031 8.777344 7.410156 8.976562 7.410156 9.226562 L 7.410156 10.800781 C 7.410156 11.050781 7.207031 11.253906 6.957031 11.253906 L 3.820312 11.253906 C 3.574219 11.253906 3.371094 11.050781 3.371094 10.800781 L 3.371094 9.226562 C 3.371094 8.976562 3.574219 8.777344 3.820312 8.777344 Z M 3.820312 8.777344 "/>
<path style=" stroke:none;fill-rule:nonzero;fill:rgb(80.000001%,80.000001%,80.000001%);fill-opacity:1;" d="M 5.835938 12.691406 C 5.648438 12.691406 5.492188 12.863281 5.460938 13.089844 L 6.945312 13.089844 C 6.917969 12.863281 6.761719 12.691406 6.574219 12.691406 Z M 5.835938 12.691406 "/>
<path style=" stroke:none;fill-rule:nonzero;fill:rgb(14.509805%,68.235296%,87.450981%);fill-opacity:1;" d="M 3.820312 13.15625 L 6.957031 13.15625 C 7.207031 13.15625 7.410156 13.355469 7.410156 13.605469 L 7.410156 15.183594 C 7.410156 15.429688 7.207031 15.628906 6.957031 15.628906 L 3.820312 15.628906 C 3.574219 15.628906 3.371094 15.429688 3.371094 15.183594 L 3.371094 13.605469 C 3.371094 13.355469 3.574219 13.15625 3.820312 13.15625 Z M 3.820312 13.15625 "/>
<path style=" stroke:none;fill-rule:nonzero;fill:rgb(14.509805%,68.235296%,87.450981%);fill-opacity:1;" d="M 3.820312 13.734375 L 6.957031 13.734375 C 7.207031 13.734375 7.410156 13.933594 7.410156 14.183594 L 7.410156 15.761719 C 7.410156 16.007812 7.207031 16.207031 6.957031 16.207031 L 3.820312 16.207031 C 3.574219 16.207031 3.371094 16.007812 3.371094 15.761719 L 3.371094 14.183594 C 3.371094 13.933594 3.574219 13.734375 3.820312 13.734375 Z M 3.820312 13.734375 "/>
</g>
</svg>
