
<svg xmlns="http://www.w3.org/2000/svg" xmlns:xlink="http://www.w3.org/1999/xlink" width="32px" height="32px" viewBox="0 0 32 32" version="1.1">
<g id="surface1">
<path style="fill-rule:nonzero;fill:rgb(82.352942%,85.882354%,90.980393%);fill-opacity:1;stroke-width:26.401737;stroke-linecap:butt;stroke-linejoin:miter;stroke:rgb(0%,40.000001%,100%);stroke-opacity:1;stroke-miterlimit:4;" d="M 92.5625 39.75 L 419.4375 39.75 C 448.5625 39.75 472.25 63.4375 472.25 92.5625 L 472.25 419.4375 C 472.25 448.5625 448.5625 472.25 419.4375 472.25 L 92.5625 472.25 C 63.4375 472.25 39.75 448.5625 39.75 419.4375 L 39.75 92.5625 C 39.75 63.4375 63.4375 39.75 92.5625 39.75 Z M 92.5625 39.75 " transform="matrix(0.0625,0,0,0.0625,0,0)"/>
<path style=" stroke:none;fill-rule:nonzero;fill:rgb(0%,40.000001%,100%);fill-opacity:1;" d="M 14.792969 27.847656 C 14.699219 27.808594 14.625 27.734375 14.625 27.6875 C 14.625 27.636719 14.816406 27.292969 15.054688 26.921875 C 15.707031 25.894531 16.128906 25.140625 16.582031 24.199219 C 17.464844 22.355469 17.980469 20.902344 18.894531 17.644531 C 19 17.277344 19.109375 17.285156 19.375 17.671875 C 19.597656 18 20.121094 19.011719 20.339844 19.546875 C 21.011719 21.15625 21.324219 22.445312 21.285156 23.4375 C 21.265625 23.957031 21.261719 23.980469 20.996094 24.511719 C 20.199219 26.121094 18.753906 27.28125 16.964844 27.753906 C 16.328125 27.917969 15.070312 27.976562 14.792969 27.847656 Z M 14.792969 27.847656 "/>
<path style=" stroke:none;fill-rule:nonzero;fill:rgb(0%,40.000001%,100%);fill-opacity:1;" d="M 11.238281 26.449219 C 10.207031 26.308594 9.28125 25.941406 8.4375 25.347656 C 7.65625 24.792969 6.96875 24.019531 6.953125 23.667969 L 6.945312 23.503906 L 7.386719 23.4375 C 11.105469 22.882812 13.253906 22.230469 16.941406 20.535156 C 17.320312 20.363281 17.675781 20.21875 17.738281 20.21875 C 17.835938 20.21875 17.839844 20.238281 17.8125 20.457031 C 17.742188 20.972656 17.09375 22.402344 16.417969 23.535156 C 15.488281 25.097656 14.640625 25.972656 13.808594 26.238281 C 13.050781 26.472656 12.011719 26.558594 11.238281 26.449219 Z M 11.238281 26.449219 "/>
<path style=" stroke:none;fill-rule:nonzero;fill:rgb(65.490198%,64.313728%,65.882355%);fill-opacity:1;" d="M 8.582031 22.253906 C 8.121094 22.164062 7.890625 22.050781 7.40625 21.691406 C 6.167969 20.765625 5.324219 19.410156 5.050781 17.890625 C 4.855469 16.796875 5.0625 15.097656 5.394531 15.097656 C 5.4375 15.097656 5.699219 15.304688 5.976562 15.554688 C 8.167969 17.53125 10.476562 19.007812 13.75 20.527344 C 14.355469 20.808594 14.863281 21.066406 14.871094 21.09375 C 14.902344 21.183594 14.574219 21.347656 13.925781 21.558594 C 11.980469 22.203125 9.777344 22.488281 8.582031 22.253906 Z M 8.582031 22.253906 "/>
<path style=" stroke:none;fill-rule:nonzero;fill:rgb(65.490198%,64.313728%,65.882355%);fill-opacity:1;" d="M 12.050781 19.363281 C 10.582031 18.59375 8.710938 17.089844 7.9375 16.054688 C 7.550781 15.535156 7.40625 15.21875 7.335938 14.714844 C 7.074219 12.820312 7.785156 10.863281 9.226562 9.519531 C 9.910156 8.878906 10.808594 8.367188 10.972656 8.527344 C 11.011719 8.570312 11.035156 8.988281 11.039062 9.917969 C 11.054688 12.847656 11.429688 15.132812 12.480469 18.707031 C 12.609375 19.144531 12.699219 19.519531 12.683594 19.546875 C 12.628906 19.636719 12.515625 19.601562 12.050781 19.363281 Z M 12.050781 19.363281 "/>
<path style=" stroke:none;fill-rule:nonzero;fill:rgb(0%,40.000001%,100%);fill-opacity:1;" d="M 11.996094 15.835938 C 11.980469 15.785156 11.964844 15.070312 11.964844 14.246094 C 11.976562 11.84375 12.28125 9.523438 12.773438 8.121094 C 13.0625 7.292969 13.332031 6.949219 14.097656 6.449219 C 15.800781 5.324219 19.175781 4.503906 22.71875 4.347656 C 24.75 4.257812 26.207031 4.472656 26.363281 4.886719 C 26.488281 5.210938 26.222656 5.4375 24.992188 6.058594 C 20.347656 8.402344 15.121094 12.328125 12.59375 15.371094 C 12.339844 15.675781 12.109375 15.925781 12.082031 15.925781 C 12.058594 15.925781 12.019531 15.886719 11.996094 15.835938 Z M 11.996094 15.835938 "/>
<path style=" stroke:none;fill-rule:nonzero;fill:rgb(0%,40.000001%,100%);fill-opacity:1;" d="M 23.246094 24.574219 C 23.152344 24.621094 23.046875 24.632812 23.011719 24.601562 C 22.972656 24.570312 22.832031 24.199219 22.699219 23.777344 C 22.332031 22.617188 22.027344 21.8125 21.59375 20.863281 C 20.746094 19 19.964844 17.671875 18.054688 14.878906 C 17.839844 14.5625 17.914062 14.480469 18.382812 14.527344 C 18.777344 14.570312 19.886719 14.820312 20.441406 14.992188 C 22.105469 15.511719 23.292969 16.097656 24.03125 16.765625 C 24.414062 17.113281 24.429688 17.136719 24.667969 17.675781 C 25.386719 19.320312 25.351562 21.175781 24.5625 22.847656 C 24.28125 23.445312 23.519531 24.445312 23.246094 24.574219 Z M 23.246094 24.574219 "/>
<path style=" stroke:none;fill-rule:nonzero;fill:rgb(0%,40.000001%,100%);fill-opacity:1;" d="M 25.851562 15.339844 C 25.835938 15.441406 25.785156 15.53125 25.738281 15.542969 C 25.691406 15.558594 25.308594 15.464844 24.886719 15.339844 C 23.71875 14.988281 22.878906 14.789062 21.851562 14.609375 C 19.839844 14.261719 18.300781 14.160156 14.917969 14.164062 C 14.53125 14.164062 14.507812 14.058594 14.8125 13.695312 C 15.066406 13.394531 15.898438 12.613281 16.351562 12.253906 C 17.71875 11.175781 18.875 10.519531 19.839844 10.289062 C 20.34375 10.167969 20.371094 10.167969 20.949219 10.277344 C 22.714844 10.605469 24.226562 11.683594 25.167969 13.273438 C 25.5 13.839844 25.894531 15.035156 25.851562 15.339844 Z M 25.851562 15.339844 "/>
</g>
</svg>
