
<svg xmlns="http://www.w3.org/2000/svg" xmlns:xlink="http://www.w3.org/1999/xlink" width="32px" height="32px" viewBox="0 0 32 32" version="1.1">
<g id="surface1">
<path style="fill-rule:nonzero;fill:rgb(82.352942%,85.882354%,90.980393%);fill-opacity:1;stroke-width:56.358555;stroke-linecap:butt;stroke-linejoin:miter;stroke:rgb(19.215687%,21.176471%,27.843139%);stroke-opacity:1;stroke-miterlimit:4;" d="M 163.125 50.375 L 860.875 50.375 C 923.125 50.375 973.625 100.875 973.625 163.125 L 973.625 860.875 C 973.625 923.125 923.125 973.625 860.875 973.625 L 163.125 973.625 C 100.875 973.625 50.375 923.125 50.375 860.875 L 50.375 163.125 C 50.375 100.875 100.875 50.375 163.125 50.375 Z M 163.125 50.375 " transform="matrix(0.03125,0,0,0.03125,0,0)"/>
<path style=" stroke:none;fill-rule:nonzero;fill:rgb(0%,66.666669%,0%);fill-opacity:1;" d="M 24.972656 9.433594 C 24.683594 8.894531 24.222656 8.378906 23.605469 7.894531 C 22.988281 7.414062 22.207031 7.023438 21.277344 6.734375 C 20.355469 6.445312 19.25 6.300781 17.988281 6.300781 C 16.417969 6.300781 15.027344 6.519531 13.855469 6.953125 C 12.664062 7.394531 11.753906 8.027344 11.125 8.851562 C 10.488281 9.679688 10.167969 10.636719 10.167969 11.699219 C 10.167969 12.820312 10.472656 13.769531 11.078125 14.527344 C 11.671875 15.269531 12.488281 15.867188 13.496094 16.300781 C 14.484375 16.71875 15.730469 17.089844 17.1875 17.402344 C 18.265625 17.625 19.136719 17.839844 19.773438 18.042969 C 20.386719 18.234375 20.894531 18.515625 21.277344 18.871094 C 21.644531 19.214844 21.820312 19.652344 21.820312 20.207031 C 21.820312 20.910156 21.480469 21.488281 20.78125 21.964844 C 20.0625 22.453125 19.105469 22.703125 17.941406 22.703125 C 17.09375 22.703125 16.40625 22.582031 15.894531 22.339844 C 15.386719 22.097656 14.992188 21.792969 14.710938 21.425781 C 14.425781 21.046875 14.152344 20.5625 13.902344 19.992188 C 13.679688 19.464844 13.402344 19.058594 13.078125 18.785156 C 12.738281 18.5 12.324219 18.351562 11.839844 18.351562 C 11.25 18.351562 10.753906 18.535156 10.367188 18.902344 C 9.980469 19.265625 9.777344 19.714844 9.777344 20.230469 C 9.777344 21.054688 10.082031 21.914062 10.683594 22.777344 C 11.277344 23.628906 12.054688 24.324219 13 24.835938 C 14.324219 25.535156 16.019531 25.890625 18.042969 25.890625 C 19.730469 25.890625 21.210938 25.632812 22.449219 25.121094 C 23.695312 24.601562 24.660156 23.867188 25.308594 22.945312 C 25.964844 22.023438 26.296875 20.964844 26.296875 19.804688 C 26.296875 18.832031 26.105469 18 25.722656 17.324219 C 25.34375 16.652344 24.808594 16.082031 24.132812 15.644531 C 23.472656 15.214844 22.664062 14.84375 21.726562 14.542969 C 20.800781 14.25 19.746094 13.972656 18.609375 13.726562 C 17.710938 13.519531 17.050781 13.363281 16.660156 13.25 C 16.277344 13.144531 15.894531 12.996094 15.527344 12.8125 C 15.167969 12.628906 14.886719 12.417969 14.683594 12.175781 C 14.496094 11.941406 14.40625 11.675781 14.40625 11.355469 C 14.40625 10.832031 14.691406 10.386719 15.277344 10.003906 C 15.886719 9.601562 16.707031 9.402344 17.722656 9.402344 C 18.808594 9.402344 19.597656 9.582031 20.074219 9.941406 C 20.558594 10.3125 20.984375 10.839844 21.335938 11.507812 C 21.636719 12.03125 21.914062 12.394531 22.175781 12.628906 C 22.457031 12.878906 22.867188 13.003906 23.386719 13.003906 C 23.964844 13.003906 24.449219 12.800781 24.835938 12.402344 C 25.21875 12.003906 25.417969 11.546875 25.417969 11.042969 C 25.417969 10.519531 25.269531 9.976562 24.972656 9.433594 Z M 24.972656 9.433594 "/>
<path style="fill-rule:nonzero;fill:rgb(0%,66.666669%,0%);fill-opacity:1;stroke-width:1;stroke-linecap:round;stroke-linejoin:miter;stroke:rgb(0%,65.882355%,96.470588%);stroke-opacity:1;stroke-miterlimit:4;" d="M 715.943938 316.274991 C 707.448163 300.431519 693.900846 285.276894 675.761219 271.040731 C 657.621592 256.919375 634.660039 245.438599 607.33579 236.942824 C 580.241157 228.447049 547.750559 224.199162 510.66765 224.199162 C 464.514928 224.199162 423.643362 230.628397 389.201032 243.372059 C 354.184663 256.345337 327.434453 274.944195 308.950403 299.168634 C 290.236737 323.50788 280.8225 351.635783 280.8225 382.863496 C 280.8225 415.813325 289.777506 443.711613 307.57271 465.98432 C 325.02349 487.797795 349.018314 505.363384 378.638718 518.107046 C 407.685083 530.391477 444.30876 541.298215 487.132058 550.482836 C 518.819001 557.026879 544.421133 563.341306 563.1348 569.31131 C 581.159619 574.936891 596.084629 583.20305 607.33579 593.650557 C 618.12772 603.75364 623.29407 616.61211 623.29407 632.914813 C 623.29407 653.580211 613.305794 670.571761 592.755203 684.578308 C 571.630574 698.929279 543.502671 706.276976 509.289957 706.276976 C 484.376671 706.276976 464.170504 702.717936 449.130687 695.599854 C 434.205677 688.481772 422.610092 679.526767 414.343933 668.734836 C 405.962966 657.598483 397.926423 643.36232 390.578725 626.600386 C 384.034683 611.101337 375.883331 599.16133 366.354287 591.124786 C 356.366011 582.743819 344.196387 578.381124 329.960224 578.381124 C 312.624251 578.381124 298.043665 583.777089 286.677696 594.569019 C 275.311727 605.246141 269.341723 618.449034 269.341723 633.60366 C 269.341723 657.828099 278.296729 683.085807 295.977125 708.458324 C 313.427906 733.486417 336.274652 753.9222 364.058131 768.962017 C 402.977964 789.512608 452.804535 799.960114 512.274959 799.960114 C 561.871914 799.960114 605.384058 792.382802 641.77812 777.342984 C 678.401798 762.073551 706.759316 740.489691 725.817406 713.395058 C 745.105111 686.300425 754.863771 655.18752 754.863771 621.089613 C 754.863771 592.502479 749.23819 568.048425 737.987029 548.186681 C 726.850676 528.439745 711.122012 511.677811 691.260268 498.819341 C 671.857755 486.190487 648.092547 475.283749 620.538683 466.443551 C 593.329242 457.832968 562.331145 449.681617 528.922085 442.448727 C 502.516298 436.363916 483.113786 431.771605 471.633009 428.44218 C 460.381848 425.34237 449.130687 420.979675 438.338757 415.58371 C 427.776442 410.187745 419.510283 403.988125 413.540279 396.870044 C 408.029506 389.981578 405.388927 382.174649 405.388927 372.760413 C 405.388927 357.376172 413.769894 344.288086 430.991059 333.036925 C 448.901071 321.211725 473.010702 315.356529 502.860722 315.356529 C 534.777281 315.356529 557.96845 320.637686 571.974998 331.200001 C 586.211161 342.106739 598.725207 357.605787 609.057906 377.237915 C 617.898105 392.622156 626.049456 403.299279 633.741576 410.187745 C 642.007736 417.535442 654.062551 421.20929 669.331984 421.20929 C 686.323534 421.20929 700.559697 415.239286 711.925666 403.528894 C 723.176827 391.818502 729.032023 378.385993 729.032023 363.575791 C 729.032023 348.19155 724.669328 332.233271 715.943938 316.274991 Z M 715.943938 316.274991 " transform="matrix(0.0340243,0,0,0.0340243,0.613189,-1.327431)"/>
<path style=" stroke:none;fill-rule:nonzero;fill:rgb(9.803922%,68.235296%,100%);fill-opacity:1;" d="M 21.464844 9.414062 C 21.179688 8.878906 20.71875 8.359375 20.097656 7.875 C 19.480469 7.394531 18.699219 7.003906 17.773438 6.714844 C 16.847656 6.425781 15.742188 6.285156 14.484375 6.285156 C 12.910156 6.285156 11.519531 6.503906 10.351562 6.933594 C 9.160156 7.375 8.246094 8.007812 7.617188 8.832031 C 6.980469 9.660156 6.660156 10.621094 6.660156 11.683594 C 6.660156 12.800781 6.964844 13.75 7.574219 14.507812 C 8.167969 15.253906 8.980469 15.847656 9.992188 16.28125 C 10.980469 16.699219 12.222656 17.070312 13.683594 17.386719 C 14.761719 17.605469 15.628906 17.824219 16.269531 18.023438 C 16.878906 18.214844 17.386719 18.496094 17.773438 18.851562 C 18.136719 19.195312 18.3125 19.632812 18.3125 20.191406 C 18.3125 20.894531 17.972656 21.46875 17.273438 21.949219 C 16.554688 22.433594 15.597656 22.683594 14.433594 22.683594 C 13.589844 22.683594 12.898438 22.566406 12.386719 22.324219 C 11.882812 22.082031 11.484375 21.773438 11.207031 21.40625 C 10.917969 21.027344 10.644531 20.542969 10.394531 19.972656 C 10.171875 19.449219 9.898438 19.039062 9.574219 18.769531 C 9.230469 18.480469 8.816406 18.332031 8.332031 18.332031 C 7.742188 18.332031 7.246094 18.519531 6.863281 18.882812 C 6.472656 19.246094 6.269531 19.695312 6.269531 20.214844 C 6.269531 21.035156 6.578125 21.894531 7.175781 22.757812 C 7.769531 23.613281 8.546875 24.300781 9.492188 24.816406 C 10.820312 25.519531 12.511719 25.871094 14.535156 25.871094 C 16.222656 25.871094 17.707031 25.613281 18.941406 25.101562 C 20.1875 24.582031 21.152344 23.847656 21.800781 22.925781 C 22.457031 22.003906 22.789062 20.945312 22.789062 19.785156 C 22.789062 18.8125 22.597656 17.980469 22.214844 17.304688 C 21.835938 16.632812 21.300781 16.066406 20.628906 15.625 C 19.964844 15.195312 19.15625 14.824219 18.21875 14.527344 C 17.292969 14.230469 16.242188 13.957031 15.105469 13.707031 C 14.203125 13.5 13.546875 13.34375 13.152344 13.230469 C 12.769531 13.128906 12.386719 12.980469 12.019531 12.792969 C 11.664062 12.613281 11.378906 12.402344 11.179688 12.15625 C 10.988281 11.925781 10.898438 11.65625 10.898438 11.335938 C 10.898438 10.8125 11.1875 10.371094 11.773438 9.984375 C 12.378906 9.582031 13.199219 9.382812 14.214844 9.382812 C 15.300781 9.382812 16.089844 9.566406 16.566406 9.925781 C 17.054688 10.292969 17.476562 10.820312 17.832031 11.488281 C 18.132812 12.011719 18.410156 12.375 18.667969 12.609375 C 18.953125 12.859375 19.363281 12.988281 19.882812 12.988281 C 20.457031 12.988281 20.945312 12.785156 21.332031 12.382812 C 21.714844 11.984375 21.910156 11.527344 21.910156 11.027344 C 21.910156 10.5 21.761719 9.957031 21.464844 9.414062 Z M 21.464844 9.414062 "/>
<path style="fill-rule:nonzero;fill:rgb(9.803922%,68.235296%,100%);fill-opacity:1;stroke-width:1;stroke-linecap:round;stroke-linejoin:miter;stroke:rgb(0%,65.882355%,96.470588%);stroke-opacity:1;stroke-miterlimit:4;" d="M 715.910301 316.24347 C 707.529334 300.514806 693.982018 285.245373 675.727583 271.00921 C 657.587956 256.887854 634.626402 245.407077 607.416961 236.911303 C 580.207521 228.415528 547.716922 224.282448 510.748821 224.282448 C 464.481291 224.282448 423.609726 230.711683 389.282204 243.340538 C 354.265835 256.313815 327.400817 274.912674 308.916767 299.137113 C 290.203101 323.476359 280.788864 351.71907 280.788864 382.946783 C 280.788864 415.781804 289.74387 443.680091 307.653881 465.952798 C 325.104662 487.881082 348.984677 505.331862 378.719889 518.075525 C 407.766254 530.359956 444.275124 541.266694 487.213229 550.566123 C 518.900173 556.995358 544.387497 563.424593 563.215971 569.279789 C 581.125983 574.905369 596.050992 583.171529 607.416961 593.619035 C 618.094084 603.722119 623.260433 616.580589 623.260433 632.9981 C 623.260433 653.663498 613.272158 670.54024 592.721567 684.661595 C 571.596938 698.897758 543.469035 706.245455 509.25632 706.245455 C 484.457843 706.245455 464.136868 702.801222 449.09705 695.683141 C 434.286848 688.565059 422.576456 679.495245 414.425105 668.703315 C 405.92933 657.566962 397.892786 643.330799 390.545089 626.568865 C 384.001046 611.184624 375.964503 599.129808 366.435458 591.208072 C 356.332375 582.712298 344.162751 578.349602 329.926588 578.349602 C 312.590615 578.349602 298.010029 583.860375 286.758868 594.537498 C 275.278091 605.21462 269.308087 618.417513 269.308087 633.686946 C 269.308087 657.796577 278.377901 683.054286 295.943489 708.426803 C 313.39427 733.569704 336.241015 753.775871 364.024495 768.930496 C 403.059136 789.595894 452.770899 799.928593 512.241322 799.928593 C 561.838278 799.928593 605.465229 792.351281 641.744484 777.311463 C 678.368162 762.04203 706.72568 740.45817 725.783769 713.363537 C 745.071474 686.268904 754.830135 655.155999 754.830135 621.058092 C 754.830135 592.470958 749.204554 568.016903 737.953393 548.15516 C 726.817039 528.408224 711.088375 511.761097 691.341439 498.78782 C 671.824119 486.158965 648.058911 475.252227 620.505047 466.526837 C 593.295606 457.801447 562.412317 449.764903 529.003256 442.417206 C 502.482662 436.332394 483.194957 431.740084 471.599373 428.410658 C 460.348212 425.425656 449.09705 421.062961 438.30512 415.552189 C 427.857614 410.271031 419.476646 404.071412 413.62145 396.838522 C 407.99587 390.064864 405.355291 382.143128 405.355291 372.728891 C 405.355291 357.344651 413.851066 344.371373 431.072231 333.005404 C 448.867435 321.180204 472.977066 315.325008 502.827086 315.325008 C 534.743645 315.325008 557.934814 320.720973 571.941361 331.283287 C 586.292332 342.075217 598.691571 357.574266 609.139078 377.206394 C 617.979276 392.590635 626.130627 403.267757 633.70794 410.156223 C 642.088907 417.503921 654.143723 421.292577 669.413156 421.292577 C 686.289898 421.292577 700.640868 415.322573 712.006837 403.497373 C 723.257999 391.786981 728.998387 378.354472 728.998387 363.659078 C 728.998387 348.160029 724.635692 332.20175 715.910301 316.24347 Z M 715.910301 316.24347 " transform="matrix(0.0340243,0,0,0.0340243,-2.893479,-1.345889)"/>
</g>
</svg>
