
<svg xmlns="http://www.w3.org/2000/svg" xmlns:xlink="http://www.w3.org/1999/xlink" width="32px" height="32px" viewBox="0 0 32 32" version="1.1">
<g id="surface1">
<path style="fill-rule:nonzero;fill:rgb(100%,100%,100%);fill-opacity:1;stroke-width:27.460871;stroke-linecap:butt;stroke-linejoin:miter;stroke:rgb(29.019609%,80.392158%,20.784314%);stroke-opacity:1;stroke-miterlimit:4;" d="M 86 31.0625 L 426 31.0625 C 456.3125 31.0625 480.9375 55.6875 480.9375 86 L 480.9375 426 C 480.9375 456.3125 456.3125 480.9375 426 480.9375 L 86 480.9375 C 55.6875 480.9375 31.0625 456.3125 31.0625 426 L 31.0625 86 C 31.0625 55.6875 55.6875 31.0625 86 31.0625 Z M 86 31.0625 " transform="matrix(0.0625,0,0,0.0625,0,0)"/>
<path style=" stroke:none;fill-rule:nonzero;fill:rgb(29.019609%,80.392158%,20.784314%);fill-opacity:1;" d="M 14.238281 26.722656 C 13.976562 26.5 13.964844 26.433594 13.964844 24.972656 L 13.964844 23.632812 L 13.625 23.535156 C 12.925781 23.332031 12.6875 23.238281 12.085938 22.941406 C 11.75 22.777344 11.457031 22.636719 11.441406 22.636719 C 11.421875 22.636719 10.96875 23.074219 10.433594 23.605469 C 9.410156 24.617188 9.433594 24.605469 9.042969 24.574219 C 8.816406 24.554688 8.660156 24.429688 7.792969 23.550781 C 6.554688 22.292969 6.550781 22.363281 7.894531 21.011719 C 8.410156 20.496094 8.832031 20.058594 8.832031 20.039062 C 8.832031 20.019531 8.753906 19.878906 8.664062 19.71875 C 8.410156 19.285156 8.089844 18.535156 7.953125 18.050781 C 7.886719 17.816406 7.808594 17.597656 7.785156 17.566406 C 7.746094 17.519531 7.421875 17.503906 6.441406 17.503906 C 5.011719 17.503906 4.925781 17.488281 4.722656 17.207031 C 4.621094 17.058594 4.617188 17.027344 4.617188 15.691406 C 4.617188 14.15625 4.617188 14.152344 4.976562 13.972656 C 5.140625 13.886719 5.261719 13.878906 6.445312 13.878906 C 7.421875 13.878906 7.75 13.863281 7.785156 13.820312 C 7.808594 13.789062 7.878906 13.59375 7.933594 13.386719 C 8.058594 12.933594 8.394531 12.132812 8.644531 11.699219 C 8.746094 11.519531 8.832031 11.363281 8.832031 11.34375 C 8.832031 11.328125 8.410156 10.886719 7.894531 10.371094 C 6.78125 9.253906 6.742188 9.175781 7.011719 8.671875 C 7.109375 8.480469 8.628906 6.984375 8.816406 6.890625 C 8.902344 6.847656 9.078125 6.816406 9.214844 6.816406 L 9.460938 6.816406 L 10.433594 7.78125 C 10.96875 8.3125 11.421875 8.746094 11.441406 8.746094 C 11.460938 8.746094 11.777344 8.597656 12.144531 8.417969 C 12.570312 8.207031 13.015625 8.03125 13.378906 7.925781 L 13.941406 7.765625 L 13.964844 6.382812 C 13.984375 5.203125 14 4.980469 14.066406 4.855469 C 14.234375 4.554688 14.238281 4.554688 15.789062 4.554688 C 17.335938 4.554688 17.304688 4.550781 17.492188 4.855469 C 17.585938 5.003906 17.589844 5.078125 17.589844 6.351562 C 17.589844 7.355469 17.605469 7.710938 17.652344 7.761719 C 17.683594 7.800781 17.878906 7.886719 18.085938 7.945312 C 18.597656 8.097656 19.027344 8.277344 19.558594 8.558594 C 19.808594 8.6875 20.03125 8.792969 20.058594 8.792969 C 20.085938 8.792969 20.550781 8.355469 21.085938 7.816406 L 22.058594 6.84375 L 22.34375 6.824219 C 22.570312 6.808594 22.65625 6.824219 22.78125 6.902344 C 22.867188 6.953125 23.308594 7.375 23.769531 7.835938 C 25.019531 9.097656 25.019531 9.019531 23.644531 10.394531 C 23.070312 10.96875 22.675781 11.394531 22.675781 11.449219 C 22.675781 11.496094 22.742188 11.648438 22.820312 11.785156 C 23.042969 12.179688 23.355469 12.925781 23.476562 13.363281 C 23.539062 13.582031 23.609375 13.789062 23.632812 13.820312 C 23.667969 13.863281 24.011719 13.878906 25.078125 13.878906 C 26.453125 13.878906 26.480469 13.878906 26.636719 13.984375 C 26.726562 14.042969 26.839844 14.175781 26.894531 14.28125 C 26.980469 14.453125 26.988281 14.5625 26.988281 15.691406 C 26.988281 16.824219 26.980469 16.933594 26.894531 17.105469 C 26.839844 17.207031 26.726562 17.339844 26.636719 17.398438 C 26.480469 17.503906 26.453125 17.503906 25.105469 17.503906 C 24.078125 17.503906 23.714844 17.519531 23.660156 17.566406 C 23.617188 17.597656 23.539062 17.796875 23.480469 18.007812 C 23.375 18.414062 23.050781 19.199219 22.816406 19.613281 C 22.738281 19.746094 22.675781 19.894531 22.675781 19.941406 C 22.675781 19.984375 23.121094 20.46875 23.660156 21.011719 C 25.035156 22.394531 25.035156 22.300781 23.660156 23.660156 C 22.726562 24.582031 22.636719 24.636719 22.253906 24.570312 C 22.074219 24.535156 21.957031 24.4375 21.082031 23.5625 C 20.546875 23.027344 20.09375 22.589844 20.070312 22.589844 C 20.050781 22.589844 19.710938 22.75 19.316406 22.941406 C 18.925781 23.136719 18.402344 23.347656 18.15625 23.417969 C 17.910156 23.492188 17.683594 23.582031 17.652344 23.621094 C 17.605469 23.675781 17.589844 24.03125 17.589844 25.03125 C 17.589844 26.308594 17.585938 26.378906 17.492188 26.53125 C 17.304688 26.835938 17.335938 26.832031 15.777344 26.832031 C 14.382812 26.832031 14.363281 26.828125 14.238281 26.722656 Z M 16.683594 21.011719 C 17.058594 20.941406 17.582031 20.769531 18.0625 20.554688 C 19.003906 20.136719 20.152344 19.003906 20.566406 18.074219 C 21.023438 17.058594 21.101562 16.695312 21.097656 15.621094 C 21.09375 14.890625 21.078125 14.746094 20.972656 14.34375 C 20.710938 13.378906 20.128906 12.394531 19.410156 11.730469 C 18.714844 11.078125 17.773438 10.578125 16.886719 10.386719 C 16.191406 10.238281 15.222656 10.238281 14.53125 10.386719 C 13.277344 10.65625 12 11.519531 11.246094 12.597656 C 10.929688 13.054688 10.558594 13.890625 10.425781 14.445312 C 10.269531 15.089844 10.273438 16.300781 10.425781 16.925781 C 10.558594 17.457031 10.890625 18.222656 11.179688 18.660156 C 11.660156 19.382812 12.636719 20.238281 13.339844 20.550781 C 13.800781 20.753906 14.355469 20.941406 14.699219 21.011719 C 15.148438 21.097656 16.21875 21.101562 16.683594 21.011719 Z M 16.683594 21.011719 "/>
</g>
</svg>
