<!-- color: #20bef9 -->
<svg xmlns="http://www.w3.org/2000/svg" xmlns:xlink="http://www.w3.org/1999/xlink" width="32px" height="32px" viewBox="0 0 32 32" version="1.1">
<defs>
<clipPath id="clip1">
  <path d="M 3.5 3.5 L 28.5 3.5 L 28.5 28.5 L 3.5 28.5 Z M 3.5 3.5 "/>
</clipPath>
<clipPath id="clip2">
  <path d="M 38.042969 16.003906 C 38.042969 28.183594 28.167969 38.050781 15.996094 38.050781 C 3.824219 38.050781 -6.050781 28.183594 -6.050781 16.003906 C -6.050781 3.824219 3.824219 -6.042969 15.996094 -6.042969 C 28.167969 -6.042969 38.042969 3.824219 38.042969 16.003906 Z M 38.042969 16.003906 "/>
</clipPath>
</defs>
<g id="surface1">
<path style="fill-rule:nonzero;fill:rgb(100%,100%,100%);fill-opacity:1;stroke-width:1.651844;stroke-linecap:butt;stroke-linejoin:miter;stroke:rgb(71.372551%,8.627451%,8.627451%);stroke-opacity:1;stroke-miterlimit:4;" d="M 14.041016 10.744487 L 34.490391 10.744487 C 36.315183 10.744487 37.796227 12.225531 37.796227 14.050323 L 37.796227 34.499698 C 37.796227 36.32449 36.315183 37.805534 34.490391 37.805534 L 14.041016 37.805534 C 12.216223 37.805534 10.73518 36.32449 10.73518 34.499698 L 10.73518 14.050323 C 10.73518 12.225531 12.216223 10.744487 14.041016 10.744487 Z M 14.041016 10.744487 " transform="matrix(1.068187,0,0,1.068187,-9.920301,-9.930243)"/>
<path style=" stroke:none;fill-rule:nonzero;fill:rgb(100%,100%,100%);fill-opacity:1;" d="M 25.746094 15.644531 C 25.746094 10.121094 21.394531 5.644531 16.023438 5.644531 C 10.652344 5.644531 6.300781 10.121094 6.300781 15.644531 C 6.300781 21.167969 10.652344 25.644531 16.023438 25.644531 C 21.394531 25.644531 25.746094 21.167969 25.746094 15.644531 Z M 25.746094 15.644531 "/>
<g clip-path="url(#clip1)" clip-rule="nonzero">
<g clip-path="url(#clip2)" clip-rule="nonzero">
<path style=" stroke:none;fill-rule:nonzero;fill:rgb(71.372551%,8.627451%,8.627451%);fill-opacity:1;" d="M 10.300781 3.542969 C 6.566406 3.542969 3.542969 6.566406 3.542969 10.300781 C 3.542969 11.453125 3.835938 12.566406 4.347656 13.519531 C 4.175781 14.324219 4.082031 15.144531 4.082031 15.996094 C 4.082031 22.574219 9.417969 27.910156 16.007812 27.910156 C 16.855469 27.910156 17.679688 27.824219 18.480469 27.652344 C 19.4375 28.167969 20.535156 28.457031 21.699219 28.457031 C 25.433594 28.457031 28.457031 25.433594 28.457031 21.699219 C 28.457031 20.539062 28.164062 19.433594 27.652344 18.476562 C 27.816406 17.675781 27.910156 16.851562 27.910156 16.003906 C 27.910156 9.425781 22.574219 4.089844 15.996094 4.089844 C 15.140625 4.089844 14.316406 4.175781 13.515625 4.347656 C 12.566406 3.839844 11.449219 3.542969 10.296875 3.542969 M 15.761719 8.488281 C 19.484375 8.488281 21.40625 10.445312 21.40625 11.59375 C 21.40625 12.746094 20.851562 12.921875 19.9375 12.921875 C 18.160156 12.921875 18.886719 10.789062 15.566406 10.789062 C 14.464844 10.789062 13.089844 11.292969 13.089844 12.574219 C 13.089844 13.601562 14.308594 13.980469 16.457031 14.507812 C 19.695312 15.371094 22.125 16.234375 22.125 19.195312 C 22.125 22.074219 19.773438 23.511719 16.050781 23.511719 C 12.328125 23.511719 9.949219 21.296875 9.949219 20.144531 C 9.949219 18.996094 10.390625 18.707031 11.300781 18.707031 C 13.082031 18.707031 12.839844 21.128906 16.167969 21.128906 C 17.269531 21.128906 18.902344 20.625 18.902344 19.339844 C 18.902344 18.316406 18.816406 17.960938 16.457031 17.328125 C 13.933594 16.988281 9.863281 16.167969 9.863281 13.039062 C 9.863281 10.164062 12.042969 8.488281 15.765625 8.488281 M 15.765625 8.488281 "/>
</g>
</g>
</g>
</svg>
