<!-- color: #20bef9 -->
<svg xmlns="http://www.w3.org/2000/svg" xmlns:xlink="http://www.w3.org/1999/xlink" width="32px" height="32px" viewBox="0 0 32 32" version="1.1">
<defs>
<clipPath id="clip1">
  <path d="M 3.9375 3.9375 L 28.0625 3.9375 L 28.0625 28.0625 L 3.9375 28.0625 Z M 3.9375 3.9375 "/>
</clipPath>
<clipPath id="clip2">
  <path d="M 37.300781 16.003906 C 37.300781 27.769531 27.753906 37.304688 15.996094 37.304688 C 4.238281 37.304688 -5.304688 27.769531 -5.304688 16.003906 C -5.304688 4.230469 4.238281 -5.300781 15.996094 -5.300781 C 27.753906 -5.300781 37.300781 4.230469 37.300781 16.003906 Z M 37.300781 16.003906 "/>
</clipPath>
</defs>
<g id="surface1">
<path style="fill-rule:nonzero;fill:rgb(100%,100%,100%);fill-opacity:1;stroke-width:27.278761;stroke-linecap:butt;stroke-linejoin:miter;stroke:rgb(21.176471%,48.235294%,94.117647%);stroke-opacity:1;stroke-miterlimit:4;" d="M 87.125 32.5625 L 424.875 32.5625 C 455 32.5625 479.4375 57 479.4375 87.125 L 479.4375 424.875 C 479.4375 455 455 479.4375 424.875 479.4375 L 87.125 479.4375 C 57 479.4375 32.5625 455 32.5625 424.875 L 32.5625 87.125 C 32.5625 57 57 32.5625 87.125 32.5625 Z M 87.125 32.5625 " transform="matrix(0.0625,0,0,0.0625,0,0)"/>
<path style=" stroke:none;fill-rule:nonzero;fill:rgb(100%,100%,100%);fill-opacity:1;" d="M 25.417969 15.65625 C 25.417969 10.320312 21.210938 5.992188 16.023438 5.992188 C 10.832031 5.992188 6.628906 10.320312 6.628906 15.65625 C 6.628906 20.996094 10.832031 25.320312 16.023438 25.320312 C 21.210938 25.320312 25.417969 20.996094 25.417969 15.65625 Z M 25.417969 15.65625 "/>
<g clip-path="url(#clip1)" clip-rule="nonzero">
<g clip-path="url(#clip2)" clip-rule="nonzero">
<path style=" stroke:none;fill-rule:nonzero;fill:rgb(21.176471%,48.235294%,94.117647%);fill-opacity:1;" d="M 10.496094 3.960938 C 6.886719 3.960938 3.964844 6.886719 3.964844 10.492188 C 3.964844 11.605469 4.246094 12.683594 4.738281 13.601562 C 4.574219 14.378906 4.488281 15.171875 4.488281 15.996094 C 4.488281 22.355469 9.640625 27.511719 16.007812 27.511719 C 16.828125 27.511719 17.621094 27.421875 18.398438 27.261719 C 19.320312 27.761719 20.386719 28.039062 21.503906 28.039062 C 25.113281 28.039062 28.035156 25.113281 28.035156 21.507812 C 28.035156 20.386719 27.753906 19.316406 27.257812 18.394531 C 27.417969 17.621094 27.507812 16.824219 27.507812 16.003906 C 27.507812 9.648438 22.351562 4.488281 15.996094 4.488281 C 15.167969 4.488281 14.371094 4.574219 13.597656 4.738281 C 12.679688 4.246094 11.601562 3.960938 10.488281 3.960938 M 15.769531 8.742188 C 19.367188 8.742188 21.222656 10.632812 21.222656 11.746094 C 21.222656 12.855469 20.6875 13.023438 19.804688 13.023438 C 18.089844 13.023438 18.792969 10.964844 15.578125 10.964844 C 14.515625 10.964844 13.1875 11.449219 13.1875 12.6875 C 13.1875 13.683594 14.363281 14.046875 16.441406 14.558594 C 19.570312 15.394531 21.917969 16.226562 21.917969 19.089844 C 21.917969 21.867188 19.644531 23.261719 16.050781 23.261719 C 12.453125 23.261719 10.15625 21.117188 10.15625 20.007812 C 10.15625 18.894531 10.578125 18.617188 11.460938 18.617188 C 13.179688 18.617188 12.949219 20.957031 16.160156 20.957031 C 17.230469 20.957031 18.800781 20.472656 18.800781 19.230469 C 18.800781 18.238281 18.71875 17.894531 16.441406 17.28125 C 14.003906 16.953125 10.074219 16.164062 10.074219 13.140625 C 10.074219 10.363281 12.175781 8.746094 15.773438 8.746094 M 15.773438 8.746094 "/>
</g>
</g>
</g>
</svg>
