
<svg xmlns="http://www.w3.org/2000/svg" xmlns:xlink="http://www.w3.org/1999/xlink" width="32px" height="32px" viewBox="0 0 32 32" version="1.1">
<g id="surface1">
<path style="fill-rule:nonzero;fill:rgb(82.352942%,85.882354%,90.980393%);fill-opacity:1;stroke-width:56.358555;stroke-linecap:butt;stroke-linejoin:miter;stroke:rgb(100%,80.000001%,0%);stroke-opacity:1;stroke-miterlimit:4;" d="M 163.125 50.375 L 860.875 50.375 C 923.125 50.375 973.625 100.875 973.625 163.125 L 973.625 860.875 C 973.625 923.125 923.125 973.625 860.875 973.625 L 163.125 973.625 C 100.875 973.625 50.375 923.125 50.375 860.875 L 50.375 163.125 C 50.375 100.875 100.875 50.375 163.125 50.375 Z M 163.125 50.375 " transform="matrix(0.03125,0,0,0.03125,0,0)"/>
<path style=" stroke:none;fill-rule:nonzero;fill:rgb(100%,80.000001%,0%);fill-opacity:1;" d="M 19.625 8.792969 C 19.5625 8.824219 19.507812 8.863281 19.460938 8.910156 L 18.777344 9.605469 C 18.734375 9.652344 18.699219 9.699219 18.671875 9.75 L 18.671875 9.753906 L 18.527344 10.066406 C 18.5 10.136719 18.484375 10.207031 18.484375 10.28125 C 18.484375 10.355469 18.5 10.429688 18.527344 10.496094 L 18.671875 10.8125 C 18.699219 10.867188 18.734375 10.917969 18.777344 10.960938 L 23.816406 15.996094 L 18.777344 21.03125 C 18.730469 21.078125 18.695312 21.128906 18.667969 21.183594 L 18.527344 21.511719 C 18.496094 21.582031 18.484375 21.652344 18.484375 21.722656 C 18.484375 21.800781 18.5 21.867188 18.527344 21.933594 L 18.527344 21.9375 L 18.671875 22.25 C 18.699219 22.308594 18.734375 22.355469 18.777344 22.398438 L 19.464844 23.085938 C 19.507812 23.128906 19.558594 23.164062 19.613281 23.191406 L 19.925781 23.332031 C 19.992188 23.367188 20.066406 23.382812 20.140625 23.382812 C 20.214844 23.382812 20.285156 23.367188 20.355469 23.339844 L 20.675781 23.191406 L 20.679688 23.191406 C 20.738281 23.164062 20.789062 23.128906 20.832031 23.085938 L 27.234375 16.683594 C 27.277344 16.640625 27.3125 16.589844 27.339844 16.53125 L 27.484375 16.207031 C 27.515625 16.136719 27.53125 16.066406 27.53125 15.992188 C 27.53125 15.917969 27.515625 15.84375 27.480469 15.777344 L 27.335938 15.464844 C 27.308594 15.410156 27.277344 15.359375 27.234375 15.316406 L 20.832031 8.902344 C 20.785156 8.855469 20.730469 8.816406 20.664062 8.792969 L 20.339844 8.660156 C 20.207031 8.605469 20.074219 8.605469 19.941406 8.660156 L 19.628906 8.792969 Z M 4.765625 15.316406 C 4.722656 15.363281 4.691406 15.414062 4.664062 15.46875 L 4.660156 15.472656 L 4.515625 15.796875 C 4.488281 15.863281 4.472656 15.933594 4.472656 16.011719 C 4.472656 16.085938 4.488281 16.15625 4.519531 16.222656 L 4.664062 16.535156 L 4.664062 16.539062 C 4.691406 16.589844 4.722656 16.644531 4.765625 16.683594 L 11.167969 23.097656 C 11.21875 23.144531 11.273438 23.183594 11.339844 23.210938 L 11.660156 23.34375 C 11.792969 23.394531 11.925781 23.394531 12.0625 23.339844 L 12.375 23.207031 L 12.378906 23.207031 C 12.4375 23.179688 12.492188 23.140625 12.542969 23.089844 L 13.226562 22.394531 C 13.269531 22.351562 13.300781 22.304688 13.328125 22.25 L 13.328125 22.246094 L 13.472656 21.933594 C 13.503906 21.867188 13.519531 21.792969 13.519531 21.71875 C 13.519531 21.644531 13.503906 21.574219 13.472656 21.503906 L 13.328125 21.191406 C 13.300781 21.132812 13.269531 21.082031 13.222656 21.042969 L 8.1875 16.007812 L 13.222656 10.972656 C 13.269531 10.925781 13.308594 10.871094 13.332031 10.816406 L 13.476562 10.492188 L 13.476562 10.488281 C 13.503906 10.421875 13.519531 10.351562 13.519531 10.277344 C 13.515625 10.203125 13.5 10.132812 13.472656 10.066406 L 13.328125 9.75 C 13.300781 9.695312 13.269531 9.644531 13.222656 9.601562 L 12.535156 8.917969 L 12.535156 8.914062 C 12.496094 8.871094 12.445312 8.839844 12.390625 8.8125 L 12.386719 8.8125 L 12.074219 8.667969 C 12.011719 8.636719 11.9375 8.621094 11.863281 8.621094 C 11.789062 8.621094 11.714844 8.636719 11.648438 8.664062 L 11.324219 8.808594 C 11.265625 8.835938 11.214844 8.871094 11.167969 8.914062 Z M 4.765625 15.316406 "/>
</g>
</svg>
