
<svg xmlns="http://www.w3.org/2000/svg" xmlns:xlink="http://www.w3.org/1999/xlink" width="32px" height="32px" viewBox="0 0 32 32" version="1.1">
<g id="surface1">
<path style="fill-rule:nonzero;fill:rgb(82.352942%,85.882354%,90.980393%);fill-opacity:1;stroke-width:7.118063;stroke-linecap:butt;stroke-linejoin:miter;stroke:rgb(19.215687%,21.176471%,27.843139%);stroke-opacity:1;stroke-miterlimit:4;" d="M 19.937495 1000.222656 L 108.062495 1000.222656 C 115.92187 1000.222656 122.29687 1006.597656 122.29687 1014.457031 L 122.29687 1102.582031 C 122.29687 1110.441406 115.92187 1116.816406 108.062495 1116.816406 L 19.937495 1116.816406 C 12.07812 1116.816406 5.70312 1110.441406 5.70312 1102.582031 L 5.70312 1014.457031 C 5.70312 1006.597656 12.07812 1000.222656 19.937495 1000.222656 Z M 19.937495 1000.222656 " transform="matrix(0.25,0,0,0.25,0.00000125,-248.629883)"/>
<path style=" stroke:none;fill-rule:nonzero;fill:rgb(50.980395%,52.941179%,54.901963%);fill-opacity:1;" d="M 15.9375 4.246094 C 22.464844 4.246094 27.753906 9.535156 27.753906 16.0625 C 27.753906 22.589844 22.464844 27.878906 15.9375 27.878906 C 9.410156 27.878906 4.121094 22.589844 4.121094 16.0625 C 4.121094 9.535156 9.410156 4.246094 15.9375 4.246094 Z M 15.9375 4.246094 "/>
<path style=" stroke:none;fill-rule:nonzero;fill:rgb(81.960785%,81.960785%,80.392158%);fill-opacity:1;" d="M 17.796875 9.320312 L 17.847656 9.371094 C 18.882812 10.40625 18.882812 12.074219 17.847656 13.109375 L 12.984375 17.972656 C 11.949219 19.007812 10.28125 19.007812 9.246094 17.972656 L 9.195312 17.921875 C 8.160156 16.886719 8.160156 15.21875 9.195312 14.183594 L 14.058594 9.320312 C 15.09375 8.285156 16.761719 8.285156 17.796875 9.320312 Z M 17.796875 9.320312 "/>
<path style=" stroke:none;fill-rule:nonzero;fill:rgb(0%,48.235294%,78.823531%);fill-opacity:1;" d="M 15.9375 9.082031 C 17.125 9.082031 18.085938 10.042969 18.085938 11.230469 C 18.085938 12.417969 17.125 13.378906 15.9375 13.378906 C 14.75 13.378906 13.789062 12.417969 13.789062 11.230469 C 13.789062 10.042969 14.75 9.082031 15.9375 9.082031 Z M 15.9375 9.082031 "/>
<path style=" stroke:none;fill-rule:nonzero;fill:rgb(81.960785%,81.960785%,80.392158%);fill-opacity:1;" d="M 22.628906 14.101562 L 22.679688 14.152344 C 23.714844 15.183594 23.714844 16.855469 22.679688 17.886719 L 17.816406 22.75 C 16.78125 23.785156 15.113281 23.785156 14.078125 22.75 L 14.027344 22.699219 C 12.992188 21.664062 12.992188 19.996094 14.027344 18.960938 L 18.890625 14.101562 C 19.925781 13.066406 21.59375 13.066406 22.628906 14.101562 Z M 22.628906 14.101562 "/>
<path style=" stroke:none;fill-rule:nonzero;fill:rgb(98.039216%,76.078433%,22.745098%);fill-opacity:1;" d="M 15.9375 18.746094 C 17.125 18.746094 18.085938 19.707031 18.085938 20.894531 C 18.085938 22.082031 17.125 23.042969 15.9375 23.042969 C 14.75 23.042969 13.789062 22.082031 13.789062 20.894531 C 13.789062 19.707031 14.75 18.746094 15.9375 18.746094 Z M 15.9375 18.746094 "/>
<path style=" stroke:none;fill-rule:nonzero;fill:rgb(89.803922%,17.647059%,23.137255%);fill-opacity:1;" d="M 22.917969 16.0625 C 22.917969 17.25 21.957031 18.210938 20.769531 18.210938 C 19.582031 18.210938 18.621094 17.25 18.621094 16.0625 C 18.621094 14.875 19.582031 13.914062 20.769531 13.914062 C 21.957031 13.914062 22.917969 14.875 22.917969 16.0625 Z M 22.917969 16.0625 "/>
<path style=" stroke:none;fill-rule:nonzero;fill:rgb(1.176471%,64.705884%,43.137255%);fill-opacity:1;" d="M 13.253906 16.0625 C 13.253906 17.25 12.292969 18.210938 11.105469 18.210938 C 9.917969 18.210938 8.957031 17.25 8.957031 16.0625 C 8.957031 14.875 9.917969 13.914062 11.105469 13.914062 C 12.292969 13.914062 13.253906 14.875 13.253906 16.0625 Z M 13.253906 16.0625 "/>
</g>
</svg>
