
<svg xmlns="http://www.w3.org/2000/svg" xmlns:xlink="http://www.w3.org/1999/xlink" width="32px" height="32px" viewBox="0 0 32 32" version="1.1">
<g id="surface1">
<path style=" stroke:none;fill-rule:evenodd;fill:rgb(80.392158%,61.176473%,42.745098%);fill-opacity:1;" d="M 5.097656 1.9375 L 26.902344 1.9375 C 28.648438 1.9375 30.0625 3.351562 30.0625 5.097656 L 30.0625 26.902344 C 30.0625 28.648438 28.648438 30.0625 26.902344 30.0625 L 5.097656 30.0625 C 3.351562 30.0625 1.9375 28.648438 1.9375 26.902344 L 1.9375 5.097656 C 1.9375 3.351562 3.351562 1.9375 5.097656 1.9375 Z M 5.097656 1.9375 "/>
<path style=" stroke:none;fill-rule:nonzero;fill:rgb(41.568628%,30.19608%,21.960784%);fill-opacity:1;" d="M 14.699219 21.675781 C 13.511719 21.488281 12.171875 20.785156 11.304688 19.894531 C 10.003906 18.570312 9.335938 16.621094 9.546875 14.796875 C 9.890625 11.824219 12.113281 9.558594 15.023438 9.214844 C 16.890625 8.996094 18.796875 9.671875 20.113281 11.019531 C 21.425781 12.363281 22.097656 14.304688 21.886719 16.140625 C 21.605469 18.582031 20.085938 20.53125 17.804688 21.386719 C 16.835938 21.746094 15.765625 21.847656 14.699219 21.675781 Z M 17.128906 20.238281 C 18.789062 19.679688 20.136719 18.199219 20.570312 16.457031 C 20.683594 15.996094 20.683594 14.941406 20.570312 14.472656 C 20.152344 12.738281 18.800781 11.261719 17.105469 10.683594 C 16.53125 10.488281 16.394531 10.464844 15.714844 10.464844 C 15.078125 10.46875 14.878906 10.496094 14.40625 10.648438 C 13.15625 11.054688 12.207031 11.816406 11.488281 12.980469 C 10.789062 14.121094 10.589844 15.363281 10.902344 16.601562 C 11.382812 18.488281 13.136719 20.117188 15.042969 20.445312 C 15.628906 20.542969 16.460938 20.464844 17.128906 20.238281 Z M 14.730469 17.8125 C 14.207031 17.238281 13.496094 16.453125 13.136719 16.066406 C 12.261719 15.113281 12.082031 14.878906 12.191406 14.835938 C 12.238281 14.816406 12.734375 14.796875 13.292969 14.785156 L 14.308594 14.769531 L 14.339844 13.410156 L 14.371094 12.046875 L 15.042969 12.011719 C 15.414062 11.996094 16.019531 11.996094 16.386719 12.011719 L 17.058594 12.046875 L 17.089844 13.410156 L 17.125 14.769531 L 18.140625 14.785156 C 18.699219 14.796875 19.195312 14.816406 19.242188 14.835938 C 19.351562 14.878906 19.167969 15.113281 18.292969 16.066406 C 17.941406 16.453125 17.222656 17.238281 16.707031 17.8125 C 16.183594 18.382812 15.738281 18.851562 15.714844 18.851562 C 15.691406 18.851562 15.246094 18.382812 14.730469 17.8125 Z M 14.730469 17.8125 "/>
<path style=" stroke:none;fill-rule:evenodd;fill:rgb(89.019608%,76.862746%,66.274512%);fill-opacity:1;" d="M 13.464844 27.394531 L 17.992188 27.394531 C 18.066406 27.394531 18.125 27.453125 18.125 27.527344 L 18.125 29.925781 C 18.125 30 18.066406 30.058594 17.992188 30.058594 L 13.464844 30.058594 C 13.390625 30.058594 13.332031 30 13.332031 29.925781 L 13.332031 27.527344 C 13.332031 27.453125 13.390625 27.394531 13.464844 27.394531 Z M 13.464844 27.394531 "/>
<path style=" stroke:none;fill-rule:evenodd;fill:rgb(89.019608%,76.862746%,66.274512%);fill-opacity:1;" d="M 13.519531 1.9375 L 18.046875 1.9375 C 18.121094 1.9375 18.179688 1.996094 18.179688 2.070312 L 18.179688 4.46875 C 18.179688 4.542969 18.121094 4.601562 18.046875 4.601562 L 13.519531 4.601562 C 13.445312 4.601562 13.386719 4.542969 13.386719 4.46875 L 13.386719 2.070312 C 13.386719 1.996094 13.445312 1.9375 13.519531 1.9375 Z M 13.519531 1.9375 "/>
</g>
</svg>
