
<svg xmlns="http://www.w3.org/2000/svg" xmlns:xlink="http://www.w3.org/1999/xlink" width="32px" height="32px" viewBox="0 0 32 32" version="1.1">
<g id="surface1">
<path style=" stroke:none;fill-rule:evenodd;fill:rgb(80.392158%,61.176473%,42.745098%);fill-opacity:1;" d="M 4.78125 1.53125 L 27.21875 1.53125 C 29.015625 1.53125 30.46875 2.988281 30.46875 4.78125 L 30.46875 27.21875 C 30.46875 29.015625 29.015625 30.46875 27.21875 30.46875 L 4.78125 30.46875 C 2.984375 30.46875 1.53125 29.015625 1.53125 27.21875 L 1.53125 4.78125 C 1.53125 2.988281 2.984375 1.53125 4.78125 1.53125 Z M 4.78125 1.53125 "/>
<path style=" stroke:none;fill-rule:nonzero;fill:rgb(91.764706%,92.156863%,87.058824%);fill-opacity:1;" d="M 29.105469 22.441406 C 29.105469 25.898438 26.300781 28.707031 22.84375 28.707031 C 19.386719 28.707031 16.582031 25.902344 16.582031 22.441406 C 16.582031 18.984375 19.386719 16.175781 22.84375 16.175781 C 26.300781 16.175781 29.105469 18.980469 29.105469 22.441406 M 29.105469 22.441406 "/>
<path style=" stroke:none;fill-rule:nonzero;fill:rgb(86.666667%,27.058825%,7.058824%);fill-opacity:1;" d="M 22.914062 15.871094 C 19.101562 15.871094 16.007812 18.964844 16.007812 22.78125 C 16.007812 26.597656 19.101562 29.6875 22.914062 29.6875 C 26.730469 29.6875 29.824219 26.59375 29.824219 22.78125 C 29.824219 18.964844 26.730469 15.871094 22.914062 15.871094 M 25.199219 17.796875 C 25.375 17.78125 25.558594 17.808594 25.722656 17.902344 C 26.160156 18.160156 26.316406 18.738281 26.066406 19.179688 C 25.808594 19.621094 25.246094 19.757812 24.804688 19.503906 C 24.363281 19.253906 24.207031 18.6875 24.460938 18.246094 C 24.621094 17.96875 24.90625 17.816406 25.199219 17.796875 M 22.914062 18.769531 C 23.285156 18.769531 23.652344 18.816406 23.996094 18.910156 C 24.058594 19.28125 24.277344 19.628906 24.621094 19.832031 C 24.972656 20.035156 25.371094 20.050781 25.722656 19.921875 C 26.402344 20.59375 26.84375 21.515625 26.910156 22.53125 L 25.59375 22.546875 C 25.472656 21.171875 24.320312 20.074219 22.914062 20.074219 C 22.507812 20.074219 22.125 20.167969 21.777344 20.328125 L 21.132812 19.175781 C 21.667969 18.910156 22.273438 18.761719 22.910156 18.761719 M 20.6875 19.449219 L 21.371094 20.566406 C 20.675781 21.050781 20.214844 21.867188 20.214844 22.78125 C 20.214844 23.691406 20.675781 24.503906 21.371094 24.992188 L 20.6875 26.105469 C 19.878906 25.570312 19.28125 24.753906 19.03125 23.785156 C 19.320312 23.550781 19.515625 23.183594 19.515625 22.78125 C 19.515625 22.371094 19.320312 22.007812 19.03125 21.769531 C 19.28125 20.804688 19.878906 19.988281 20.6875 19.449219 M 18.214844 21.859375 C 18.722656 21.859375 19.132812 22.269531 19.132812 22.78125 C 19.132812 23.285156 18.722656 23.699219 18.214844 23.699219 C 17.707031 23.699219 17.292969 23.285156 17.292969 22.78125 C 17.292969 22.269531 17.707031 21.859375 18.214844 21.859375 M 25.582031 23.011719 L 26.894531 23.027344 C 26.832031 24.046875 26.390625 24.96875 25.707031 25.636719 C 25.355469 25.503906 24.960938 25.523438 24.613281 25.730469 C 24.261719 25.933594 24.039062 26.273438 23.984375 26.648438 C 23.644531 26.742188 23.273438 26.789062 22.902344 26.789062 C 22.261719 26.789062 21.65625 26.640625 21.121094 26.371094 L 21.769531 25.222656 C 22.113281 25.386719 22.496094 25.472656 22.902344 25.472656 C 24.308594 25.472656 25.460938 24.382812 25.582031 23.003906 M 25.128906 25.925781 C 25.488281 25.878906 25.855469 26.054688 26.046875 26.390625 C 26.300781 26.832031 26.148438 27.394531 25.703125 27.652344 C 25.265625 27.894531 24.699219 27.75 24.449219 27.308594 C 24.191406 26.859375 24.347656 26.304688 24.789062 26.046875 C 24.902344 25.988281 25.011719 25.941406 25.132812 25.925781 M 25.128906 25.925781 "/>
<path style=" stroke:none;fill-rule:nonzero;fill:rgb(0%,0%,0%);fill-opacity:0.25098;" d="M 8.726562 6.632812 C 8.726562 7.425781 8.082031 8.070312 7.285156 8.070312 C 6.492188 8.070312 5.847656 7.425781 5.847656 6.632812 C 5.847656 5.839844 6.492188 5.191406 7.285156 5.191406 C 8.082031 5.191406 8.726562 5.839844 8.726562 6.632812 M 8.726562 6.632812 "/>
<path style=" stroke:none;fill-rule:nonzero;fill:rgb(0%,0%,0%);fill-opacity:0.25098;" d="M 26.152344 6.730469 C 26.152344 7.527344 25.507812 8.171875 24.714844 8.171875 C 23.917969 8.171875 23.273438 7.527344 23.273438 6.730469 C 23.273438 5.9375 23.917969 5.292969 24.714844 5.292969 C 25.507812 5.292969 26.152344 5.9375 26.152344 6.730469 M 26.152344 6.730469 "/>
<path style=" stroke:none;fill-rule:nonzero;fill:rgb(100%,100%,100%);fill-opacity:1;" d="M 7.058594 7.558594 C 9.941406 22.910156 22.410156 22.910156 25.285156 7.558594 C 25.488281 6.269531 24.605469 6.246094 24.332031 7.558594 C 22.410156 21.546875 9.941406 21.472656 8.019531 7.558594 C 7.84375 6.296875 6.886719 6.347656 7.066406 7.558594 M 7.066406 7.558594 "/>
</g>
</svg>
