
<svg xmlns="http://www.w3.org/2000/svg" xmlns:xlink="http://www.w3.org/1999/xlink" width="32px" height="32px" viewBox="0 0 32 32" version="1.1">
<g id="surface1">
<path style="fill-rule:nonzero;fill:rgb(19.215687%,63.921571%,76.862746%);fill-opacity:1;stroke-width:28.016188;stroke-linecap:butt;stroke-linejoin:miter;stroke:rgb(23.921569%,80.000001%,96.078432%);stroke-opacity:1;stroke-miterlimit:4;" d="M 82.5625 26.5625 L 429.4375 26.5625 C 460.375 26.5625 485.4375 51.625 485.4375 82.5625 L 485.4375 429.4375 C 485.4375 460.375 460.375 485.4375 429.4375 485.4375 L 82.5625 485.4375 C 51.625 485.4375 26.5625 460.375 26.5625 429.4375 L 26.5625 82.5625 C 26.5625 51.625 51.625 26.5625 82.5625 26.5625 Z M 82.5625 26.5625 " transform="matrix(0.0625,0,0,0.0625,0,0)"/>
<path style=" stroke:none;fill-rule:nonzero;fill:rgb(100%,100%,100%);fill-opacity:1;" d="M 17.707031 7.019531 L 14.101562 7.042969 L 14.199219 18.871094 L 11.214844 16.25 L 9.050781 18.191406 L 13.894531 22.441406 L 8.886719 22.441406 L 8.886719 24.980469 L 23.113281 24.980469 L 23.113281 22.441406 L 18.136719 22.441406 L 22.949219 18.121094 L 20.761719 16.203125 L 17.808594 18.851562 Z M 17.707031 7.019531 "/>
</g>
</svg>
