
<svg xmlns="http://www.w3.org/2000/svg" xmlns:xlink="http://www.w3.org/1999/xlink" width="32px" height="32px" viewBox="0 0 32 32" version="1.1">
<g id="surface1">
<path style=" stroke:none;fill-rule:evenodd;fill:rgb(80.392158%,61.176473%,42.745098%);fill-opacity:1;" d="M 5.019531 2.320312 L 27.074219 2.320312 C 28.808594 2.320312 30.214844 3.726562 30.214844 5.457031 L 30.214844 27.132812 C 30.214844 28.867188 28.808594 30.269531 27.074219 30.269531 L 5.019531 30.269531 C 3.285156 30.269531 1.882812 28.867188 1.882812 27.132812 L 1.882812 5.457031 C 1.882812 3.726562 3.285156 2.320312 5.019531 2.320312 Z M 5.019531 2.320312 "/>
<path style=" stroke:none;fill-rule:nonzero;fill:rgb(12.156863%,9.019608%,5.882353%);fill-opacity:1;" d="M 14.738281 21.9375 C 13.539062 21.746094 12.191406 21.050781 11.316406 20.167969 C 10.011719 18.847656 9.332031 16.914062 9.546875 15.097656 C 9.894531 12.148438 12.136719 9.894531 15.0625 9.554688 C 16.945312 9.335938 18.863281 10.003906 20.191406 11.34375 C 21.511719 12.683594 22.191406 14.613281 21.976562 16.433594 C 21.691406 18.863281 20.164062 20.800781 17.863281 21.648438 C 16.886719 22.007812 15.8125 22.105469 14.738281 21.9375 Z M 17.183594 20.507812 C 18.855469 19.953125 20.214844 18.484375 20.652344 16.75 C 20.765625 16.292969 20.765625 15.246094 20.652344 14.777344 C 20.230469 13.054688 18.867188 11.585938 17.160156 11.011719 C 16.582031 10.816406 16.449219 10.792969 15.761719 10.796875 C 15.121094 10.796875 14.917969 10.824219 14.441406 10.980469 C 13.183594 11.382812 12.226562 12.136719 11.503906 13.296875 C 10.800781 14.425781 10.597656 15.660156 10.914062 16.894531 C 11.394531 18.769531 13.160156 20.386719 15.085938 20.714844 C 15.675781 20.8125 16.511719 20.730469 17.183594 20.507812 Z M 14.765625 18.097656 C 14.242188 17.527344 13.523438 16.746094 13.167969 16.363281 C 12.285156 15.417969 12.097656 15.179688 12.207031 15.136719 C 12.257812 15.121094 12.757812 15.097656 13.320312 15.089844 L 14.34375 15.074219 L 14.410156 12.367188 L 15.085938 12.332031 C 15.457031 12.316406 16.066406 12.316406 16.4375 12.332031 L 17.113281 12.367188 L 17.179688 15.074219 L 18.203125 15.089844 C 18.765625 15.097656 19.265625 15.121094 19.316406 15.136719 C 19.425781 15.179688 19.238281 15.417969 18.355469 16.363281 C 18 16.746094 17.28125 17.527344 16.757812 18.097656 C 16.234375 18.664062 15.785156 19.128906 15.761719 19.128906 C 15.738281 19.128906 15.289062 18.664062 14.765625 18.097656 Z M 14.765625 18.097656 "/>
<path style=" stroke:none;fill-rule:evenodd;fill:rgb(89.019608%,76.862746%,66.274512%);fill-opacity:1;" d="M 13.492188 27.621094 L 18.054688 27.621094 C 18.128906 27.621094 18.191406 27.679688 18.191406 27.753906 L 18.191406 30.136719 C 18.191406 30.207031 18.128906 30.269531 18.054688 30.269531 L 13.492188 30.269531 C 13.417969 30.269531 13.359375 30.207031 13.359375 30.136719 L 13.359375 27.753906 C 13.359375 27.679688 13.417969 27.621094 13.492188 27.621094 Z M 13.492188 27.621094 "/>
<path style=" stroke:none;fill-rule:evenodd;fill:rgb(89.019608%,76.862746%,66.274512%);fill-opacity:1;" d="M 13.546875 2.320312 L 18.109375 2.320312 C 18.183594 2.320312 18.242188 2.378906 18.242188 2.453125 L 18.242188 4.835938 C 18.242188 4.910156 18.183594 4.96875 18.109375 4.96875 L 13.546875 4.96875 C 13.472656 4.96875 13.414062 4.910156 13.414062 4.835938 L 13.414062 2.453125 C 13.414062 2.378906 13.472656 2.320312 13.546875 2.320312 Z M 13.546875 2.320312 "/>
</g>
</svg>
