
<svg xmlns="http://www.w3.org/2000/svg" xmlns:xlink="http://www.w3.org/1999/xlink" width="32px" height="32px" viewBox="0 0 32 32" version="1.1">
<g id="surface1">
<path style=" stroke:none;fill-rule:evenodd;fill:rgb(80.392158%,61.176473%,42.745098%);fill-opacity:1;" d="M 4.570312 1.261719 L 27.429688 1.261719 C 29.257812 1.261719 30.738281 2.742188 30.738281 4.570312 L 30.738281 27.429688 C 30.738281 29.257812 29.257812 30.738281 27.429688 30.738281 L 4.570312 30.738281 C 2.742188 30.738281 1.261719 29.257812 1.261719 27.429688 L 1.261719 4.570312 C 1.261719 2.742188 2.742188 1.261719 4.570312 1.261719 Z M 4.570312 1.261719 "/>
<path style=" stroke:none;fill-rule:nonzero;fill:rgb(83.92157%,1.176471%,31.764707%);fill-opacity:1;" d="M 30.3125 22.902344 C 30.3125 26.800781 27.152344 29.960938 23.253906 29.960938 C 19.355469 29.960938 16.195312 26.800781 16.195312 22.902344 C 16.195312 19.003906 19.355469 15.839844 23.253906 15.839844 C 27.152344 15.839844 30.3125 19.003906 30.3125 22.902344 M 30.3125 22.902344 "/>
<path style=" stroke:none;fill-rule:nonzero;fill:rgb(97.647059%,97.647059%,97.647059%);fill-opacity:1;" d="M 27.441406 21.925781 C 27.453125 22.289062 27.332031 22.464844 27.222656 22.78125 L 27.027344 22.878906 C 26.867188 23.191406 27.042969 23.074219 26.929688 23.324219 C 26.679688 23.546875 26.167969 24.019531 26.007812 24.0625 C 25.886719 24.058594 26.085938 23.925781 26.113281 23.871094 C 25.78125 24.097656 25.84375 24.214844 25.332031 24.351562 L 25.316406 24.316406 C 24.054688 24.914062 22.300781 23.738281 22.324219 22.128906 C 22.3125 22.230469 22.289062 22.207031 22.261719 22.246094 C 22.191406 21.417969 22.640625 20.589844 23.394531 20.253906 C 24.132812 19.886719 24.996094 20.039062 25.523438 20.527344 C 25.234375 20.148438 24.65625 19.746094 23.972656 19.785156 C 23.300781 19.796875 22.675781 20.222656 22.464844 20.683594 C 22.121094 20.902344 22.082031 21.515625 21.933594 21.628906 C 21.730469 23.109375 22.3125 23.746094 23.292969 24.5 C 23.445312 24.605469 23.335938 24.621094 23.355469 24.699219 C 23.03125 24.546875 22.730469 24.316406 22.488281 24.035156 C 22.617188 24.222656 22.753906 24.410156 22.941406 24.554688 C 22.628906 24.449219 22.21875 23.808594 22.101562 23.785156 C 22.628906 24.730469 24.25 25.449219 25.097656 25.089844 C 24.703125 25.105469 24.207031 25.101562 23.765625 24.9375 C 23.582031 24.84375 23.328125 24.644531 23.375 24.605469 C 24.53125 25.039062 25.726562 24.933594 26.726562 24.132812 C 26.980469 23.933594 27.261719 23.597656 27.339844 23.59375 C 27.21875 23.773438 27.359375 23.679688 27.269531 23.839844 C 27.523438 23.429688 27.15625 23.675781 27.53125 23.132812 L 27.667969 23.324219 C 27.617188 22.984375 28.089844 22.570312 28.042969 22.035156 C 28.152344 21.867188 28.164062 22.210938 28.050781 22.589844 C 28.207031 22.167969 28.089844 22.101562 28.132812 21.753906 C 28.175781 21.871094 28.234375 21.996094 28.261719 22.121094 C 28.160156 21.710938 28.371094 21.433594 28.425781 21.199219 C 28.371094 21.179688 28.261719 21.378906 28.238281 20.898438 C 28.238281 20.683594 28.292969 20.792969 28.316406 20.738281 C 28.277344 20.714844 28.167969 20.558594 28.101562 20.25 C 28.152344 20.179688 28.230469 20.4375 28.296875 20.449219 C 28.253906 20.203125 28.183594 20.019531 28.179688 19.832031 C 27.988281 19.441406 28.113281 19.886719 27.957031 19.664062 C 27.761719 19.042969 28.125 19.519531 28.152344 19.234375 C 28.453125 19.675781 28.628906 20.355469 28.707031 20.636719 C 28.644531 20.292969 28.546875 19.960938 28.425781 19.640625 C 28.519531 19.675781 28.28125 18.933594 28.546875 19.425781 C 28.261719 18.375 27.324219 17.390625 26.460938 16.929688 C 26.566406 17.023438 26.699219 17.144531 26.652344 17.164062 C 26.222656 16.910156 26.300781 16.886719 26.238281 16.78125 C 25.886719 16.640625 25.863281 16.792969 25.628906 16.78125 C 24.972656 16.433594 24.847656 16.472656 24.242188 16.253906 L 24.269531 16.378906 C 23.828125 16.234375 23.761719 16.433594 23.289062 16.378906 C 23.261719 16.359375 23.4375 16.300781 23.589844 16.277344 C 23.167969 16.332031 23.183594 16.195312 22.773438 16.292969 C 22.871094 16.222656 22.984375 16.175781 23.089844 16.113281 C 22.746094 16.136719 22.265625 16.316406 22.417969 16.152344 C 21.855469 16.402344 20.855469 16.753906 20.296875 17.277344 L 20.28125 17.164062 C 20.023438 17.472656 19.160156 18.082031 19.089844 18.480469 L 19.019531 18.496094 C 18.886719 18.722656 18.800781 18.976562 18.695312 19.210938 C 18.519531 19.507812 18.441406 19.324219 18.464844 19.371094 C 18.121094 20.066406 17.949219 20.652344 17.800781 21.136719 C 17.910156 21.292969 17.804688 22.078125 17.847656 22.710938 C 17.675781 25.824219 20.027344 28.847656 22.605469 29.542969 C 22.988281 29.683594 23.546875 29.675781 24.027344 29.6875 C 23.460938 29.527344 23.386719 29.605469 22.839844 29.410156 C 22.441406 29.222656 22.359375 29.011719 22.074219 28.769531 L 22.1875 28.964844 C 21.636719 28.769531 21.867188 28.722656 21.417969 28.582031 L 21.535156 28.429688 C 21.359375 28.414062 21.066406 28.128906 20.984375 27.96875 L 20.789062 27.976562 C 20.554688 27.6875 20.429688 27.480469 20.441406 27.316406 L 20.375 27.429688 C 20.304688 27.308594 19.515625 26.347656 19.925781 26.570312 C 19.847656 26.496094 19.746094 26.457031 19.636719 26.253906 L 19.71875 26.160156 C 19.523438 25.902344 19.359375 25.582031 19.371094 25.472656 C 19.472656 25.613281 19.550781 25.640625 19.621094 25.667969 C 19.121094 24.425781 19.09375 25.59375 18.714844 24.40625 L 18.796875 24.398438 C 18.738281 24.304688 18.699219 24.207031 18.648438 24.109375 L 18.683594 23.761719 C 18.324219 23.351562 18.582031 21.996094 18.636719 21.261719 C 18.667969 20.953125 18.933594 20.636719 19.136719 20.132812 L 19.011719 20.113281 C 19.246094 19.703125 20.347656 18.480469 20.855469 18.535156 C 21.105469 18.226562 20.808594 18.535156 20.757812 18.457031 C 21.300781 17.894531 21.472656 18.0625 21.839844 17.960938 C 22.230469 17.722656 21.5 18.050781 21.691406 17.871094 C 22.371094 17.699219 22.175781 17.472656 23.0625 17.386719 C 23.15625 17.441406 22.847656 17.472656 22.765625 17.539062 C 23.335938 17.261719 24.566406 17.324219 25.363281 17.695312 C 26.292969 18.128906 27.332031 19.40625 27.378906 20.613281 L 27.421875 20.628906 C 27.398438 21.105469 27.496094 21.660156 27.328125 22.167969 L 27.441406 21.929688 "/>
<path style=" stroke:none;fill-rule:nonzero;fill:rgb(0%,0%,0%);fill-opacity:0.25098;" d="M 8.589844 6.457031 C 8.589844 7.265625 7.933594 7.921875 7.125 7.921875 C 6.316406 7.921875 5.660156 7.265625 5.660156 6.457031 C 5.660156 5.648438 6.316406 4.988281 7.125 4.988281 C 7.933594 4.988281 8.589844 5.648438 8.589844 6.457031 M 8.589844 6.457031 "/>
<path style=" stroke:none;fill-rule:nonzero;fill:rgb(0%,0%,0%);fill-opacity:0.25098;" d="M 26.339844 6.558594 C 26.339844 7.371094 25.683594 8.027344 24.875 8.027344 C 24.066406 8.027344 23.410156 7.371094 23.410156 6.558594 C 23.410156 5.75 24.066406 5.09375 24.875 5.09375 C 25.683594 5.09375 26.339844 5.75 26.339844 6.558594 M 26.339844 6.558594 "/>
<path style=" stroke:none;fill-rule:nonzero;fill:rgb(100%,100%,100%);fill-opacity:1;" d="M 6.894531 7.402344 C 9.824219 23.039062 22.53125 23.039062 25.460938 7.402344 C 25.667969 6.089844 24.765625 6.0625 24.488281 7.402344 C 22.53125 21.652344 9.824219 21.574219 7.871094 7.402344 C 7.691406 6.117188 6.71875 6.167969 6.898438 7.402344 M 6.898438 7.402344 "/>
</g>
</svg>
