
<svg xmlns="http://www.w3.org/2000/svg" xmlns:xlink="http://www.w3.org/1999/xlink" width="32px" height="32px" viewBox="0 0 32 32" version="1.1">
<g id="surface1">
<path style=" stroke:none;fill-rule:evenodd;fill:rgb(80.392158%,61.176473%,42.745098%);fill-opacity:1;" d="M 4.722656 1.457031 L 27.277344 1.457031 C 29.082031 1.457031 30.542969 2.917969 30.542969 4.722656 L 30.542969 27.277344 C 30.542969 29.082031 29.082031 30.542969 27.277344 30.542969 L 4.722656 30.542969 C 2.917969 30.542969 1.457031 29.082031 1.457031 27.277344 L 1.457031 4.722656 C 1.457031 2.917969 2.917969 1.457031 4.722656 1.457031 Z M 4.722656 1.457031 "/>
<path style=" stroke:none;fill-rule:nonzero;fill:rgb(0%,0%,0%);fill-opacity:0.25098;" d="M 8.691406 6.582031 C 8.691406 7.382812 8.042969 8.03125 7.242188 8.03125 C 6.445312 8.03125 5.796875 7.382812 5.796875 6.582031 C 5.796875 5.785156 6.445312 5.136719 7.242188 5.136719 C 8.042969 5.136719 8.691406 5.785156 8.691406 6.582031 M 8.691406 6.582031 "/>
<path style=" stroke:none;fill-rule:nonzero;fill:rgb(0%,0%,0%);fill-opacity:0.25098;" d="M 26.203125 6.683594 C 26.203125 7.484375 25.554688 8.132812 24.757812 8.132812 C 23.957031 8.132812 23.308594 7.484375 23.308594 6.683594 C 23.308594 5.886719 23.957031 5.238281 24.757812 5.238281 C 25.554688 5.238281 26.203125 5.886719 26.203125 6.683594 M 26.203125 6.683594 "/>
<path style=" stroke:none;fill-rule:nonzero;fill:rgb(100%,100%,100%);fill-opacity:1;" d="M 7.015625 7.519531 C 9.910156 22.945312 22.445312 22.945312 25.332031 7.519531 C 25.535156 6.222656 24.648438 6.195312 24.371094 7.519531 C 22.445312 21.574219 9.910156 21.5 7.980469 7.519531 C 7.800781 6.246094 6.839844 6.300781 7.019531 7.519531 M 7.019531 7.519531 "/>
</g>
</svg>
