<!-- color: #eeeeee -->
<svg xmlns="http://www.w3.org/2000/svg" xmlns:xlink="http://www.w3.org/1999/xlink" width="32px" height="32px" viewBox="0 0 32 32" version="1.1">
<defs>
<clipPath id="clip1">
  <path d="M 8.6875 8.5 L 23.8125 8.5 L 23.8125 23.625 L 8.6875 23.625 Z M 8.6875 8.5 "/>
</clipPath>
<clipPath id="clip2">
  <path d="M 30.664062 16.082031 C 30.664062 24.046875 24.203125 30.503906 16.242188 30.503906 C 8.28125 30.503906 1.820312 24.046875 1.820312 16.082031 C 1.820312 8.113281 8.28125 1.65625 16.242188 1.65625 C 24.203125 1.65625 30.664062 8.113281 30.664062 16.082031 Z M 30.664062 16.082031 "/>
</clipPath>
</defs>
<g id="surface1">
<path style="fill-rule:nonzero;fill:rgb(90.588236%,90.588236%,90.588236%);fill-opacity:1;stroke-width:2.850446;stroke-linecap:butt;stroke-linejoin:miter;stroke:rgb(54.509807%,54.509807%,54.509807%);stroke-opacity:1;stroke-miterlimit:4;" d="M 6.245574 0.614795 L 41.535844 0.614795 C 44.684512 0.614795 47.234933 3.165216 47.234933 6.313884 L 47.234933 41.604154 C 47.234933 44.752822 44.684512 47.303243 41.535844 47.303243 L 6.245574 47.303243 C 3.096906 47.303243 0.546485 44.752822 0.546485 41.604154 L 0.546485 6.313884 C 0.546485 3.165216 3.096906 0.614795 6.245574 0.614795 Z M 6.245574 0.614795 " transform="matrix(0.620302,0,0,0.620302,1.180545,1.138173)"/>
<g clip-path="url(#clip1)" clip-rule="nonzero">
<g clip-path="url(#clip2)" clip-rule="nonzero">
<path style=" stroke:none;fill-rule:nonzero;fill:rgb(6.27451%,52.549022%,72.549021%);fill-opacity:1;" d="M 23.769531 9.792969 C 23.769531 9.792969 22.511719 11.683594 20.632812 11.683594 C 18.878906 11.34375 18.183594 11.628906 18.125 11.683594 L 18.125 19.277344 C 18.042969 20.875 16.730469 22.480469 14.777344 23.214844 C 12.300781 24.152344 9.683594 23.339844 8.925781 21.394531 C 8.167969 19.449219 9.554688 17.09375 12.03125 16.15625 C 13.949219 15.433594 15.710938 15.613281 16.871094 16.699219 L 16.871094 9.167969 C 19.378906 7.5 21.710938 9.769531 23.769531 9.796875 M 23.769531 9.792969 "/>
</g>
</g>
</g>
</svg>
