
<svg xmlns="http://www.w3.org/2000/svg" xmlns:xlink="http://www.w3.org/1999/xlink" width="32px" height="32px" viewBox="0 0 32 32" version="1.1">
<g id="surface1">
<path style="fill-rule:nonzero;fill:rgb(100%,100%,100%);fill-opacity:1;stroke-width:7.20504;stroke-linecap:butt;stroke-linejoin:miter;stroke:rgb(94.117647%,52.549022%,8.235294%);stroke-opacity:1;stroke-miterlimit:4;" d="M 19.390625 4.984375 L 108.609375 4.984375 C 116.5625 4.984375 123.015625 11.4375 123.015625 19.390625 L 123.015625 108.609375 C 123.015625 116.5625 116.5625 123.015625 108.609375 123.015625 L 19.390625 123.015625 C 11.4375 123.015625 4.984375 116.5625 4.984375 108.609375 L 4.984375 19.390625 C 4.984375 11.4375 11.4375 4.984375 19.390625 4.984375 Z M 19.390625 4.984375 " transform="matrix(0.25,0,0,0.25,0,0)"/>
<path style=" stroke:none;fill-rule:nonzero;fill:rgb(1.568628%,78.431374%,98.823529%);fill-opacity:1;" d="M 28.832031 15.875 C 28.832031 22.894531 23.144531 28.582031 16.128906 28.582031 C 9.109375 28.582031 3.421875 22.894531 3.421875 15.875 C 3.421875 8.855469 9.109375 3.167969 16.128906 3.167969 C 23.144531 3.167969 28.832031 8.855469 28.832031 15.875 Z M 28.832031 15.875 "/>
<path style="fill-rule:nonzero;fill:rgb(0%,43.921569%,89.411765%);fill-opacity:1;stroke-width:0.991399;stroke-linecap:butt;stroke-linejoin:miter;stroke:rgb(100%,100%,100%);stroke-opacity:1;stroke-miterlimit:4;" d="M 84.171875 63.5 C 84.171875 74.359375 75.359375 83.15625 64.515625 83.15625 C 53.65625 83.15625 44.859375 74.359375 44.859375 63.5 C 44.859375 52.640625 53.65625 43.84375 64.515625 43.84375 C 75.359375 43.84375 84.171875 52.640625 84.171875 63.5 Z M 84.171875 63.5 " transform="matrix(0.25,0,0,0.25,0,0)"/>
<path style=" stroke:none;fill-rule:nonzero;fill:rgb(100%,100%,100%);fill-opacity:1;" d="M 19.695312 15.875 C 19.695312 17.847656 18.097656 19.441406 16.128906 19.441406 C 14.15625 19.441406 12.558594 17.847656 12.558594 15.875 C 12.558594 13.902344 14.15625 12.308594 16.128906 12.308594 C 18.097656 12.308594 19.695312 13.902344 19.695312 15.875 Z M 19.695312 15.875 "/>
<path style="fill-rule:nonzero;fill:rgb(100%,100%,100%);fill-opacity:1;stroke-width:1.412;stroke-linecap:square;stroke-linejoin:round;stroke:rgb(94.117647%,52.549022%,8.235294%);stroke-opacity:1;stroke-miterlimit:4;" d="M 64.006319 13.26676 C 92.0128 13.26676 114.723739 35.993459 114.723739 63.99994 C 114.723739 92.00642 92.0128 114.73312 64.006319 114.73312 " transform="matrix(0.24785,0,0,0.24785,0.26494,0.0126149)"/>
<path style="fill-rule:nonzero;fill:rgb(94.117647%,52.549022%,8.235294%);fill-opacity:1;stroke-width:2.052321;stroke-linecap:butt;stroke-linejoin:round;stroke:rgb(100%,100%,100%);stroke-opacity:1;stroke-miterlimit:4;" d="M 64.010166 59.811361 C 62.101042 59.820475 60.464307 61.098195 59.964158 62.92628 C 59.46401 64.754365 60.261734 66.670261 61.907784 67.620606 L 106.291646 93.245583 C 108.294671 94.402027 110.829135 93.721991 111.986366 91.7176 C 116.85282 83.334423 119.455351 73.697093 119.424681 63.994818 C 119.429907 61.695767 117.552463 59.818009 115.254198 59.814137 Z M 64.010166 59.811361 " transform="matrix(0.0852313,0.147726,-0.147625,0.0852893,20.823219,3.587295)"/>
<path style="fill-rule:nonzero;fill:rgb(94.117647%,52.549022%,8.235294%);fill-opacity:1;stroke-width:2.052321;stroke-linecap:butt;stroke-linejoin:round;stroke:rgb(100%,100%,100%);stroke-opacity:1;stroke-miterlimit:4;" d="M 63.993422 59.826387 C 62.114947 59.826777 60.466256 61.095956 59.959471 62.922215 C 59.472531 64.737016 60.276331 66.679214 61.902941 67.617514 L 106.280152 93.242048 C 108.299865 94.402914 110.834759 93.706231 111.988816 91.717812 C 116.856159 83.328285 119.441976 73.691067 119.427237 63.995166 C 119.423365 61.696901 117.545607 59.819457 115.246556 59.824684 Z M 63.993422 59.826387 " transform="matrix(0.147625,0.0852893,-0.0852313,0.147726,14.054376,2.883819)"/>
<path style="fill-rule:nonzero;fill:rgb(94.117647%,52.549022%,8.235294%);fill-opacity:1;stroke-width:2.052321;stroke-linecap:butt;stroke-linejoin:round;stroke:rgb(100%,100%,100%);stroke-opacity:1;stroke-miterlimit:4;" d="M 63.996833 59.807997 C 62.094848 59.807997 60.444933 61.090396 59.963708 62.922396 C 59.482483 64.754395 60.261609 66.677995 61.911524 67.616894 L 106.275906 93.241986 C 108.292469 94.386986 110.836088 93.699986 112.004778 91.730586 C 116.862861 83.326289 119.429395 73.685392 119.429395 63.998695 C 119.429395 61.685796 117.550326 59.807997 115.258777 59.807997 Z M 63.996833 59.807997 " transform="matrix(0.170463,0,0,0.170579,7.840887,5.661313)"/>
<path style="fill-rule:nonzero;fill:rgb(94.117647%,52.549022%,8.235294%);fill-opacity:1;stroke-width:2.052321;stroke-linecap:butt;stroke-linejoin:round;stroke:rgb(100%,100%,100%);stroke-opacity:1;stroke-miterlimit:4;" d="M 63.999616 59.82441 C 62.101296 59.812562 60.464755 61.088881 59.965514 62.916048 C 59.466273 64.743215 60.265398 66.658928 61.901121 67.629752 L 106.275557 93.24925 C 108.279948 94.406481 110.846171 93.719797 112.002615 91.716772 C 116.845942 83.327865 119.443678 73.695356 119.438571 63.987997 C 119.442444 61.689732 117.551801 59.83134 115.252749 59.826113 Z M 63.999616 59.82441 " transform="matrix(0.147625,-0.0852893,0.0852313,0.147726,3.847652,11.175551)"/>
<path style="fill-rule:nonzero;fill:rgb(94.117647%,52.549022%,8.235294%);fill-opacity:1;stroke-width:2.052321;stroke-linecap:butt;stroke-linejoin:round;stroke:rgb(100%,100%,100%);stroke-opacity:1;stroke-miterlimit:4;" d="M 63.992222 59.819617 C 62.114388 59.818899 60.447175 61.09899 59.961472 62.914123 C 59.475768 64.729256 60.280439 66.672592 61.907047 67.612171 L 106.292613 93.240328 C 108.281033 94.394385 110.845941 93.707355 111.998432 91.718937 C 116.859169 83.329416 119.438421 73.690434 119.437802 63.979763 C 119.432575 61.680712 117.565808 59.821365 115.247712 59.836687 Z M 63.992222 59.819617 " transform="matrix(0.0852313,-0.147726,0.147625,0.0852893,3.144654,17.948996)"/>
<path style="fill-rule:nonzero;fill:rgb(94.117647%,52.549022%,8.235294%);fill-opacity:1;stroke-width:2.052321;stroke-linecap:butt;stroke-linejoin:round;stroke:rgb(100%,100%,100%);stroke-opacity:1;stroke-miterlimit:4;" d="M 63.998099 59.81889 C 62.0974 59.81889 60.4486 61.079241 59.9677 62.91248 C 59.486801 64.745719 60.2654 66.67062 61.9142 67.633071 L 106.294385 93.252585 C 108.286685 94.398359 110.828584 93.710894 111.996483 91.717247 C 116.851282 83.330179 119.438981 73.682759 119.438981 63.989508 C 119.438981 61.675044 117.561182 59.81889 115.248282 59.81889 Z M 63.998099 59.81889 " transform="matrix(0,-0.170579,0.170463,0,5.920261,24.16671)"/>
</g>
</svg>
