
<svg xmlns="http://www.w3.org/2000/svg" xmlns:xlink="http://www.w3.org/1999/xlink" width="32px" height="32px" viewBox="0 0 32 32" version="1.1">
<defs>
<linearGradient id="linear0" gradientUnits="userSpaceOnUse" x1="1" y1="0" x2="47" y2="0" gradientTransform="matrix(0,-0.666667,0.666667,0,0.00147645,32)">
<stop offset="0" style="stop-color:rgb(31.764707%,72.156864%,87.450981%);stop-opacity:1;"/>
<stop offset="1" style="stop-color:rgb(38.431373%,74.509805%,88.627452%);stop-opacity:1;"/>
</linearGradient>
</defs>
<g id="surface1">
<path style=" stroke:none;fill-rule:nonzero;fill:rgb(0%,0%,0%);fill-opacity:0.0196078;" d="M 0.667969 28.667969 L 0.667969 28.832031 C 0.667969 30.308594 1.855469 31.5 3.332031 31.5 L 28.667969 31.5 C 30.144531 31.5 31.332031 30.308594 31.332031 28.832031 L 31.332031 28.667969 C 31.332031 30.144531 30.144531 31.332031 28.667969 31.332031 L 3.332031 31.332031 C 1.855469 31.332031 0.667969 30.144531 0.667969 28.667969 Z M 0.667969 29 L 0.667969 29.332031 C 0.667969 30.808594 1.855469 32 3.332031 32 L 28.667969 32 C 30.144531 32 31.332031 30.808594 31.332031 29.332031 L 31.332031 29 C 31.332031 30.476562 30.144531 31.667969 28.667969 31.667969 L 3.332031 31.667969 C 1.855469 31.667969 0.667969 30.476562 0.667969 29 Z M 0.667969 29 "/>
<path style=" stroke:none;fill-rule:nonzero;fill:rgb(0%,0%,0%);fill-opacity:0.0509804;" d="M 0.667969 28.832031 L 0.667969 29 C 0.667969 30.476562 1.855469 31.667969 3.332031 31.667969 L 28.667969 31.667969 C 30.144531 31.667969 31.332031 30.476562 31.332031 29 L 31.332031 28.832031 C 31.332031 30.308594 30.144531 31.5 28.667969 31.5 L 3.332031 31.5 C 1.855469 31.5 0.667969 30.308594 0.667969 28.832031 Z M 0.667969 28.832031 "/>
<path style=" stroke:none;fill-rule:nonzero;fill:rgb(0%,0%,0%);fill-opacity:0.101961;" d="M 0.667969 28.667969 L 0.667969 28.832031 C 0.667969 30.308594 1.855469 31.5 3.332031 31.5 L 28.667969 31.5 C 30.144531 31.5 31.332031 30.308594 31.332031 28.832031 L 31.332031 28.667969 C 31.332031 30.144531 30.144531 31.332031 28.667969 31.332031 L 3.332031 31.332031 C 1.855469 31.332031 0.667969 30.144531 0.667969 28.667969 Z M 0.667969 28.667969 "/>
<path style=" stroke:none;fill-rule:nonzero;fill:url(#linear0);" d="M 0.667969 28.667969 L 0.667969 3.332031 C 0.667969 1.859375 1.859375 0.667969 3.332031 0.667969 L 28.667969 0.667969 C 30.140625 0.667969 31.332031 1.859375 31.332031 3.332031 L 31.332031 28.667969 C 31.332031 30.140625 30.140625 31.332031 28.667969 31.332031 L 3.332031 31.332031 C 1.859375 31.332031 0.667969 30.140625 0.667969 28.667969 Z M 0.667969 28.667969 "/>
<path style=" stroke:none;fill-rule:nonzero;fill:rgb(90.196079%,90.196079%,90.196079%);fill-opacity:1;" d="M 18.300781 6.894531 C 17.332031 6.894531 16.53125 7.785156 16.371094 8.964844 L 24.058594 8.964844 C 23.902344 7.785156 23.101562 6.894531 22.128906 6.894531 Z M 18.300781 6.894531 "/>
<path style=" stroke:none;fill-rule:nonzero;fill:rgb(90.196079%,90.196079%,90.196079%);fill-opacity:1;" d="M 7.878906 9.296875 L 24.121094 9.296875 C 25.40625 9.296875 26.449219 10.339844 26.449219 11.621094 L 26.449219 19.785156 C 26.449219 21.070312 25.40625 22.113281 24.121094 22.113281 L 7.878906 22.113281 C 6.59375 22.113281 5.550781 21.070312 5.550781 19.785156 L 5.550781 11.621094 C 5.550781 10.339844 6.59375 9.296875 7.878906 9.296875 Z M 7.878906 9.296875 "/>
<path style=" stroke:none;fill-rule:nonzero;fill:rgb(90.196079%,90.196079%,90.196079%);fill-opacity:1;" d="M 7.878906 12.285156 L 24.121094 12.285156 C 25.40625 12.285156 26.449219 13.328125 26.449219 14.613281 L 26.449219 22.777344 C 26.449219 24.0625 25.40625 25.105469 24.121094 25.105469 L 7.878906 25.105469 C 6.59375 25.105469 5.550781 24.0625 5.550781 22.777344 L 5.550781 14.613281 C 5.550781 13.328125 6.59375 12.285156 7.878906 12.285156 Z M 7.878906 12.285156 "/>
</g>
</svg>
