
<svg xmlns="http://www.w3.org/2000/svg" xmlns:xlink="http://www.w3.org/1999/xlink" width="32px" height="32px" viewBox="0 0 32 32" version="1.1">
<g id="surface1">
<path style=" stroke:none;fill-rule:nonzero;fill:rgb(23.529412%,58.823532%,83.92157%);fill-opacity:1;" d="M 5.058594 29.878906 C 3.839844 29.558594 2.839844 28.550781 2.527344 27.324219 C 2.445312 27 2.433594 25.605469 2.433594 16.140625 C 2.433594 4.222656 2.410156 5.015625 2.824219 4.175781 C 3.09375 3.632812 3.769531 2.960938 4.308594 2.691406 C 5.148438 2.277344 4.359375 2.300781 16.210938 2.300781 C 28.058594 2.300781 27.273438 2.277344 28.113281 2.691406 C 28.652344 2.960938 29.324219 3.632812 29.597656 4.175781 C 30.011719 5.015625 29.988281 4.222656 29.988281 16.140625 C 29.988281 25.605469 29.972656 27 29.890625 27.324219 C 29.574219 28.566406 28.574219 29.566406 27.332031 29.882812 C 26.785156 30.023438 5.589844 30.019531 5.058594 29.878906 Z M 5.058594 29.878906 "/>
<path style=" stroke:none;fill-rule:evenodd;fill:rgb(100%,100%,100%);fill-opacity:1;" d="M 16 5.550781 L 5.550781 18.613281 L 8.160156 18.613281 L 16 8.160156 L 23.839844 18.613281 L 21.488281 18.613281 L 21.488281 26.449219 L 24.097656 26.449219 L 24.097656 18.613281 L 26.449219 18.613281 Z M 8.160156 18.613281 L 8.160156 26.449219 L 10.777344 26.449219 L 10.777344 18.613281 Z M 21.222656 5.550781 L 21.222656 10.777344 L 23.839844 13.910156 L 23.839844 5.550781 Z M 16 13.125 C 14.988281 13.125 14.171875 13.945312 14.171875 14.957031 C 14.171875 15.964844 14.988281 16.785156 16 16.785156 C 17.011719 16.785156 17.828125 15.964844 17.828125 14.957031 C 17.828125 13.945312 17.011719 13.125 16 13.125 Z M 12.082031 23.839844 L 12.082031 26.449219 L 19.917969 26.449219 L 19.917969 23.839844 Z M 12.082031 23.839844 "/>
</g>
</svg>
