<!-- color: #474747 -->
<svg xmlns="http://www.w3.org/2000/svg" xmlns:xlink="http://www.w3.org/1999/xlink" width="32px" height="32px" viewBox="0 0 32 32" version="1.1">
<defs>
<clipPath id="clip1">
  <path d="M 11.875 3.6875 L 14.8125 3.6875 L 14.8125 6.1875 L 11.875 6.1875 Z M 11.875 3.6875 "/>
</clipPath>
<clipPath id="clip2">
  <path d="M 38.363281 15.898438 C 38.363281 28.316406 28.292969 38.375 15.886719 38.375 C 3.480469 38.375 -6.589844 28.316406 -6.589844 15.898438 C -6.589844 3.480469 3.480469 -6.578125 15.886719 -6.578125 C 28.292969 -6.578125 38.363281 3.480469 38.363281 15.898438 Z M 38.363281 15.898438 "/>
</clipPath>
<clipPath id="clip3">
  <path d="M 10 3.1875 L 27.625 3.1875 L 27.625 16.9375 L 10 16.9375 Z M 10 3.1875 "/>
</clipPath>
<clipPath id="clip4">
  <path d="M 38.363281 15.898438 C 38.363281 28.316406 28.292969 38.375 15.886719 38.375 C 3.480469 38.375 -6.589844 28.316406 -6.589844 15.898438 C -6.589844 3.480469 3.480469 -6.578125 15.886719 -6.578125 C 28.292969 -6.578125 38.363281 3.480469 38.363281 15.898438 Z M 38.363281 15.898438 "/>
</clipPath>
<clipPath id="clip5">
  <path d="M 9 8.9375 L 28.625 8.9375 L 28.625 28.75 L 9 28.75 Z M 9 8.9375 "/>
</clipPath>
<clipPath id="clip6">
  <path d="M 38.363281 15.898438 C 38.363281 28.316406 28.292969 38.375 15.886719 38.375 C 3.480469 38.375 -6.589844 28.316406 -6.589844 15.898438 C -6.589844 3.480469 3.480469 -6.578125 15.886719 -6.578125 C 28.292969 -6.578125 38.363281 3.480469 38.363281 15.898438 Z M 38.363281 15.898438 "/>
</clipPath>
<clipPath id="clip7">
  <path d="M 3.125 9 L 22.75 9 L 22.75 14.9375 L 3.125 14.9375 Z M 3.125 9 "/>
</clipPath>
<clipPath id="clip8">
  <path d="M 38.363281 15.898438 C 38.363281 28.316406 28.292969 38.375 15.886719 38.375 C 3.480469 38.375 -6.589844 28.316406 -6.589844 15.898438 C -6.589844 3.480469 3.480469 -6.578125 15.886719 -6.578125 C 28.292969 -6.578125 38.363281 3.480469 38.363281 15.898438 Z M 38.363281 15.898438 "/>
</clipPath>
<clipPath id="clip9">
  <path d="M 3.125 11.9375 L 20.8125 11.9375 L 20.8125 24.75 L 3.125 24.75 Z M 3.125 11.9375 "/>
</clipPath>
<clipPath id="clip10">
  <path d="M 38.363281 15.898438 C 38.363281 28.316406 28.292969 38.375 15.886719 38.375 C 3.480469 38.375 -6.589844 28.316406 -6.589844 15.898438 C -6.589844 3.480469 3.480469 -6.578125 15.886719 -6.578125 C 28.292969 -6.578125 38.363281 3.480469 38.363281 15.898438 Z M 38.363281 15.898438 "/>
</clipPath>
<clipPath id="clip11">
  <path d="M 13.875 13.875 L 23.75 13.875 L 23.75 23.8125 L 13.875 23.8125 Z M 13.875 13.875 "/>
</clipPath>
<clipPath id="clip12">
  <path d="M 38.363281 15.898438 C 38.363281 28.316406 28.292969 38.375 15.886719 38.375 C 3.480469 38.375 -6.589844 28.316406 -6.589844 15.898438 C -6.589844 3.480469 3.480469 -6.578125 15.886719 -6.578125 C 28.292969 -6.578125 38.363281 3.480469 38.363281 15.898438 Z M 38.363281 15.898438 "/>
</clipPath>
</defs>
<g id="surface1">
<path style="fill-rule:nonzero;fill:rgb(100%,100%,100%);fill-opacity:1;stroke-width:7.039455;stroke-linecap:butt;stroke-linejoin:miter;stroke:rgb(86.274511%,61.56863%,0%);stroke-opacity:1;stroke-miterlimit:4;" d="M 20.421875 6.34375 L 107.578125 6.34375 C 115.359375 6.34375 121.65625 12.640625 121.65625 20.421875 L 121.65625 107.578125 C 121.65625 115.359375 115.359375 121.65625 107.578125 121.65625 L 20.421875 121.65625 C 12.640625 121.65625 6.34375 115.359375 6.34375 107.578125 L 6.34375 20.421875 C 6.34375 12.640625 12.640625 6.34375 20.421875 6.34375 Z M 20.421875 6.34375 " transform="matrix(0.25,0,0,0.25,0,0)"/>
<g clip-path="url(#clip1)" clip-rule="nonzero">
<g clip-path="url(#clip2)" clip-rule="nonzero">
<path style=" stroke:none;fill-rule:nonzero;fill:rgb(97.647059%,97.647059%,97.647059%);fill-opacity:1;" d="M 14.777344 4.917969 C 14.78125 5.359375 14.511719 5.769531 14.066406 5.988281 C 13.625 6.207031 13.074219 6.207031 12.632812 5.988281 C 12.191406 5.769531 11.917969 5.359375 11.921875 4.917969 C 11.917969 4.480469 12.1875 4.074219 12.632812 3.851562 C 13.074219 3.632812 13.625 3.632812 14.066406 3.851562 C 14.511719 4.074219 14.78125 4.480469 14.777344 4.917969 M 14.777344 4.917969 "/>
</g>
</g>
<g clip-path="url(#clip3)" clip-rule="nonzero">
<g clip-path="url(#clip4)" clip-rule="nonzero">
<path style=" stroke:none;fill-rule:nonzero;fill:rgb(23.529412%,61.56863%,9.019608%);fill-opacity:1;" d="M 26.183594 16.464844 C 27.011719 15.957031 27.613281 14.847656 27.613281 13.84375 C 27.613281 12.933594 27.152344 11.457031 26.347656 9.738281 C 25.488281 7.925781 23.066406 5.425781 21.257812 4.484375 C 19.054688 3.34375 18.007812 3.136719 14.648438 3.207031 C 12.0625 3.265625 11.667969 3.316406 11.230469 3.65625 C 10.628906 4.121094 9.949219 5.507812 10.027344 6.09375 C 10.121094 6.761719 11.246094 7.089844 12.929688 6.941406 C 14.558594 6.800781 14.796875 6.980469 14.035156 7.792969 C 13.65625 8.199219 13.257812 8.386719 12.613281 8.480469 C 12.125 8.550781 11.601562 8.625 11.453125 8.648438 C 11.265625 8.679688 11.324219 8.78125 11.632812 8.972656 C 11.941406 9.160156 12.910156 9.277344 14.722656 9.351562 C 17.058594 9.441406 17.464844 9.511719 18.351562 9.949219 C 19.421875 10.484375 20.746094 11.761719 21.203125 12.703125 C 21.355469 13.019531 21.636719 13.761719 21.832031 14.347656 C 22.386719 16.070312 23.332031 16.886719 24.75 16.878906 C 25.207031 16.875 25.800781 16.707031 26.191406 16.464844 M 12.574219 5.648438 C 12.042969 5.074219 12.558594 3.757812 13.324219 3.757812 C 14.1875 3.757812 14.671875 4.9375 14.070312 5.578125 C 13.730469 5.9375 12.886719 5.976562 12.578125 5.652344 M 12.578125 5.648438 "/>
</g>
</g>
<g clip-path="url(#clip5)" clip-rule="nonzero">
<g clip-path="url(#clip6)" clip-rule="nonzero">
<path style=" stroke:none;fill-rule:nonzero;fill:rgb(86.274511%,61.56863%,0%);fill-opacity:1;" d="M 28.589844 18.832031 C 28.625 22.34375 26.765625 25.601562 23.730469 27.371094 C 20.691406 29.132812 16.941406 29.132812 13.910156 27.371094 C 10.875 25.601562 9.023438 22.339844 9.050781 18.832031 C 9.019531 15.316406 10.871094 12.058594 13.910156 10.292969 C 16.949219 8.527344 20.695312 8.527344 23.730469 10.292969 C 26.765625 12.058594 28.625 15.320312 28.589844 18.832031 M 28.589844 18.832031 "/>
</g>
</g>
<g clip-path="url(#clip7)" clip-rule="nonzero">
<g clip-path="url(#clip8)" clip-rule="nonzero">
<path style=" stroke:none;fill-rule:nonzero;fill:rgb(86.274511%,61.56863%,0%);fill-opacity:1;" d="M 6.316406 9.058594 L 19.585938 9.058594 C 21.316406 9.058594 22.722656 10.308594 22.722656 11.847656 L 22.722656 12.128906 C 22.722656 13.671875 21.316406 14.917969 19.585938 14.917969 L 6.316406 14.917969 C 4.585938 14.917969 3.183594 13.671875 3.183594 12.128906 L 3.183594 11.847656 C 3.183594 10.308594 4.585938 9.058594 6.316406 9.058594 M 6.316406 9.058594 "/>
</g>
</g>
<g clip-path="url(#clip9)" clip-rule="nonzero">
<g clip-path="url(#clip10)" clip-rule="nonzero">
<path style=" stroke:none;fill-rule:nonzero;fill:rgb(86.274511%,61.56863%,0%);fill-opacity:1;" d="M 4.839844 19.074219 L 16.246094 12.449219 C 17.738281 11.582031 19.554688 11.980469 20.304688 13.332031 L 20.441406 13.578125 C 21.199219 14.933594 20.597656 16.734375 19.113281 17.601562 L 7.707031 24.230469 C 6.222656 25.09375 4.398438 24.699219 3.648438 23.34375 L 3.511719 23.097656 C 2.757812 21.742188 3.355469 19.941406 4.839844 19.074219 M 4.839844 19.074219 "/>
</g>
</g>
<g clip-path="url(#clip11)" clip-rule="nonzero">
<g clip-path="url(#clip12)" clip-rule="nonzero">
<path style=" stroke:none;fill-rule:nonzero;fill:rgb(0%,43.921569%,72.549021%);fill-opacity:1;" d="M 23.703125 18.832031 C 23.71875 20.585938 22.792969 22.214844 21.273438 23.097656 C 19.757812 23.984375 17.878906 23.984375 16.367188 23.097656 C 14.847656 22.214844 13.917969 20.585938 13.933594 18.832031 C 13.917969 17.074219 14.847656 15.445312 16.367188 14.5625 C 17.882812 13.675781 19.761719 13.675781 21.273438 14.5625 C 22.792969 15.445312 23.71875 17.074219 23.703125 18.832031 M 23.703125 18.832031 "/>
</g>
</g>
</g>
</svg>
