
<svg xmlns="http://www.w3.org/2000/svg" xmlns:xlink="http://www.w3.org/1999/xlink" width="32px" height="32px" viewBox="0 0 32 32" version="1.1">
<g id="surface1">
<path style="fill-rule:nonzero;fill:rgb(18.82353%,20.784314%,27.058825%);fill-opacity:1;stroke-width:27.936749;stroke-linecap:butt;stroke-linejoin:miter;stroke:rgb(18.82353%,20.784314%,27.058825%);stroke-opacity:1;stroke-miterlimit:4;" d="M 83.0625 27.1875 L 428.9375 27.1875 C 459.8125 27.1875 484.8125 52.1875 484.8125 83.0625 L 484.8125 428.9375 C 484.8125 459.8125 459.8125 484.8125 428.9375 484.8125 L 83.0625 484.8125 C 52.1875 484.8125 27.1875 459.8125 27.1875 428.9375 L 27.1875 83.0625 C 27.1875 52.1875 52.1875 27.1875 83.0625 27.1875 Z M 83.0625 27.1875 " transform="matrix(0.0625,0,0,0.0625,0,0)"/>
<path style=" stroke:none;fill-rule:nonzero;fill:rgb(18.82353%,20.784314%,27.058825%);fill-opacity:1;" d="M 4.347656 2.445312 L 26.953125 2.445312 C 28.199219 2.445312 29.214844 3.457031 29.214844 4.703125 L 29.214844 27.3125 C 29.214844 28.558594 28.199219 29.570312 26.953125 29.570312 L 4.347656 29.570312 C 3.097656 29.570312 2.085938 28.558594 2.085938 27.3125 L 2.085938 4.703125 C 2.085938 3.457031 3.097656 2.445312 4.347656 2.445312 Z M 4.347656 2.445312 "/>
<path style=" stroke:none;fill-rule:nonzero;fill:rgb(90.196079%,49.019608%,12.941177%);fill-opacity:1;" d="M 28.96875 4.480469 C 29 4.546875 29.027344 4.613281 29.050781 4.683594 C 29.027344 4.613281 29 4.546875 28.96875 4.480469 Z M 29.191406 9.777344 L 2.066406 17.046875 L 2.066406 21.996094 L 29.191406 14.726562 Z M 29.191406 9.777344 "/>
<path style=" stroke:none;fill-rule:nonzero;fill:rgb(95.294118%,61.176473%,6.666667%);fill-opacity:1;" d="M 24.648438 2.445312 L 14.519531 12.574219 L 19.847656 14.003906 L 29.214844 4.636719 C 29.179688 3.417969 28.183594 2.445312 26.957031 2.445312 Z M 24.648438 2.445312 "/>
<path style=" stroke:none;fill-rule:nonzero;fill:rgb(74.901962%,21.960784%,15.686275%);fill-opacity:1;" d="M 13.261719 17.152344 L 13.261719 29.570312 L 18.039062 29.570312 L 18.039062 17.152344 Z M 13.261719 17.152344 "/>
<path style=" stroke:none;fill-rule:nonzero;fill:rgb(94.117647%,76.078433%,4.705882%);fill-opacity:1;" d="M 17.496094 2.429688 L 13.714844 16.542969 C 14.617188 16.316406 15.558594 16.183594 16.539062 16.183594 C 17.277344 16.183594 18 16.257812 18.699219 16.390625 L 22.441406 2.429688 Z M 29.863281 3.089844 C 29.886719 3.113281 29.910156 3.140625 29.933594 3.167969 C 29.910156 3.140625 29.886719 3.113281 29.863281 3.089844 Z M 29.863281 3.089844 "/>
<path style=" stroke:none;fill-rule:nonzero;fill:rgb(90.196079%,49.019608%,12.941177%);fill-opacity:1;" d="M 9.28125 2.449219 L 13.019531 16.410156 C 13.722656 16.277344 14.441406 16.203125 15.183594 16.203125 C 16.160156 16.203125 17.105469 16.335938 18.011719 16.566406 L 14.230469 2.449219 Z M 28.503906 3.109375 C 28.53125 3.136719 28.558594 3.160156 28.582031 3.1875 C 28.558594 3.160156 28.53125 3.136719 28.503906 3.109375 Z M 28.582031 28.839844 C 28.558594 28.863281 28.53125 28.890625 28.503906 28.917969 C 28.53125 28.890625 28.558594 28.863281 28.582031 28.839844 Z M 28.582031 28.839844 "/>
<path style=" stroke:none;fill-rule:nonzero;fill:rgb(95.294118%,61.176473%,6.666667%);fill-opacity:1;" d="M 4.347656 2.445312 C 3.09375 2.445312 2.085938 3.453125 2.085938 4.703125 L 2.085938 5.476562 L 13.019531 16.410156 C 13.738281 16.273438 14.472656 16.195312 15.230469 16.195312 C 17.472656 16.195312 19.550781 16.84375 21.316406 17.945312 L 5.8125 2.445312 Z M 28.550781 3.105469 C 28.578125 3.128906 28.605469 3.15625 28.628906 3.183594 C 28.605469 3.15625 28.578125 3.128906 28.550781 3.105469 Z M 28.628906 28.832031 C 28.605469 28.859375 28.578125 28.886719 28.550781 28.910156 C 28.578125 28.886719 28.605469 28.859375 28.628906 28.832031 Z M 28.628906 28.832031 "/>
<path style=" stroke:none;fill-rule:nonzero;fill:rgb(90.196079%,49.019608%,12.941177%);fill-opacity:1;" d="M 4.347656 3.730469 C 4.269531 3.730469 4.195312 3.734375 4.121094 3.738281 C 4.195312 3.734375 4.269531 3.730469 4.347656 3.730469 Z M 26.957031 3.730469 C 27.035156 3.730469 27.109375 3.734375 27.183594 3.742188 C 27.109375 3.734375 27.035156 3.730469 26.957031 3.730469 Z M 2.085938 10.527344 L 2.085938 15.476562 L 29.214844 22.746094 L 29.214844 17.796875 Z M 2.085938 10.527344 "/>
</g>
</svg>
