
<svg xmlns="http://www.w3.org/2000/svg" xmlns:xlink="http://www.w3.org/1999/xlink" width="32px" height="32px" viewBox="0 0 32 32" version="1.1">
<g id="surface1">
<path style="fill-rule:nonzero;fill:rgb(5.882353%,63.137257%,37.254903%);fill-opacity:1;stroke-width:28.191782;stroke-linecap:butt;stroke-linejoin:miter;stroke:rgb(4.313726%,28.235295%,17.647059%);stroke-opacity:1;stroke-miterlimit:4;" d="M 81.5 25.0625 L 430.5 25.0625 C 461.6875 25.0625 486.9375 50.3125 486.9375 81.5 L 486.9375 430.5 C 486.9375 461.6875 461.6875 486.9375 430.5 486.9375 L 81.5 486.9375 C 50.3125 486.9375 25.0625 461.6875 25.0625 430.5 L 25.0625 81.5 C 25.0625 50.3125 50.3125 25.0625 81.5 25.0625 Z M 81.5 25.0625 " transform="matrix(0.0625,0,0,0.0625,0,0)"/>
<path style=" stroke:none;fill-rule:nonzero;fill:rgb(0%,40.000001%,25.882354%);fill-opacity:1;" d="M 19.085938 29.375 C 18.800781 28.960938 17.753906 28.019531 17.238281 27.707031 C 16.207031 27.089844 15.148438 26.773438 13.878906 26.707031 C 12.386719 26.628906 11.015625 27.03125 9.632812 27.957031 L 9.128906 28.292969 L 8.589844 27.96875 C 7.738281 27.449219 6.886719 26.777344 6.078125 25.980469 C 5.550781 25.460938 5.335938 25.210938 5.363281 25.144531 C 5.410156 25.011719 6.058594 24.5 6.742188 24.050781 C 7.425781 23.605469 8.71875 22.964844 9.464844 22.703125 C 11.511719 21.992188 14.007812 21.824219 16.117188 22.25 C 19.027344 22.839844 21.632812 24.449219 23.527344 26.832031 C 23.769531 27.136719 23.964844 27.433594 23.964844 27.496094 C 23.964844 27.707031 22.445312 28.582031 21.234375 29.058594 C 20.496094 29.355469 19.621094 29.625 19.410156 29.625 C 19.304688 29.625 19.210938 29.550781 19.085938 29.375 Z M 21.019531 20.871094 C 19.582031 20.15625 18.199219 19.734375 16.457031 19.476562 C 15.902344 19.394531 15.324219 19.371094 14.125 19.371094 C 12.433594 19.371094 11.566406 19.441406 9.894531 19.730469 C 9.289062 19.835938 8.964844 19.863281 8.839844 19.828125 C 8.078125 19.609375 7.910156 18.839844 8.519531 18.332031 C 8.894531 18.015625 10.144531 17.75 12.042969 17.589844 C 15.605469 17.277344 18.980469 17.84375 21.539062 19.171875 C 22.984375 19.921875 23.382812 20.730469 22.550781 21.226562 C 22.433594 21.296875 22.253906 21.355469 22.152344 21.351562 C 22.050781 21.347656 21.546875 21.136719 21.019531 20.871094 Z M 23.105469 17.273438 C 21.125 16.199219 19.1875 15.609375 16.578125 15.28125 C 15.789062 15.179688 12.882812 15.179688 11.949219 15.277344 C 10.875 15.394531 9.773438 15.53125 9.15625 15.628906 C 8.402344 15.75 8.066406 15.742188 7.785156 15.597656 C 7.316406 15.359375 7.132812 14.890625 7.320312 14.402344 C 7.550781 13.792969 8.285156 13.496094 10.261719 13.214844 C 14.023438 12.675781 17.445312 12.871094 20.511719 13.796875 C 21.898438 14.214844 23.355469 14.882812 24.152344 15.46875 C 25.078125 16.148438 25.207031 16.910156 24.46875 17.378906 C 24.042969 17.648438 23.753906 17.625 23.105469 17.273438 Z M 25.058594 13.113281 C 22.488281 11.730469 20.128906 11.015625 16.792969 10.621094 C 15.898438 10.519531 13.019531 10.535156 11.828125 10.660156 C 10.652344 10.777344 9.367188 10.957031 8.46875 11.128906 C 7.382812 11.332031 6.988281 11.261719 6.542969 10.773438 C 5.996094 10.160156 6.273438 9.308594 7.171875 8.855469 C 7.753906 8.566406 8.914062 8.324219 10.90625 8.082031 C 12.210938 7.921875 16.191406 7.925781 17.496094 8.082031 C 20.875 8.496094 23.988281 9.46875 25.847656 10.691406 C 26.925781 11.402344 27.308594 12.097656 26.957031 12.722656 C 26.75 13.089844 26.214844 13.390625 25.769531 13.390625 C 25.644531 13.390625 25.363281 13.28125 25.058594 13.113281 Z M 25.058594 13.113281 "/>
</g>
</svg>
