
<svg xmlns="http://www.w3.org/2000/svg" xmlns:xlink="http://www.w3.org/1999/xlink" width="32px" height="32px" viewBox="0 0 32 32" version="1.1">
<g id="surface1">
<path style=" stroke:none;fill-rule:evenodd;fill:rgb(6.27451%,80.784315%,19.215687%);fill-opacity:1;" d="M 7.195312 2.070312 L 24.738281 2.070312 C 27.644531 2.070312 30 4.425781 30 7.332031 L 30 24.875 C 30 27.78125 27.644531 30.136719 24.738281 30.136719 L 7.195312 30.136719 C 4.289062 30.136719 1.933594 27.78125 1.933594 24.875 L 1.933594 7.332031 C 1.933594 4.425781 4.289062 2.070312 7.195312 2.070312 Z M 7.195312 2.070312 "/>
<path style=" stroke:none;fill-rule:nonzero;fill:rgb(2.352941%,2.352941%,2.352941%);fill-opacity:0.92549;" d="M 7.011719 6.449219 C 7.503906 12.613281 9.386719 23.734375 20.859375 22.988281 L 23.679688 26.554688 L 24.828125 25.542969 L 22.089844 22.734375 L 16.199219 15.929688 L 13.539062 12.855469 L 22.765625 21.511719 C 23.109375 8.691406 14.316406 7.167969 7.011719 6.449219 Z M 7.011719 6.449219 "/>
<path style=" stroke:none;fill-rule:nonzero;fill:rgb(0%,20%,0%);fill-opacity:1;" d="M 7.011719 7.082031 C 7.488281 13.054688 9.316406 23.824219 20.457031 23.097656 L 23.199219 26.554688 L 24.3125 25.574219 L 21.652344 22.855469 L 15.933594 16.265625 L 13.347656 13.289062 L 22.308594 21.671875 C 22.644531 9.257812 14.105469 7.777344 7.011719 7.082031 Z M 7.011719 7.082031 "/>
</g>
</svg>
