
<svg xmlns="http://www.w3.org/2000/svg" xmlns:xlink="http://www.w3.org/1999/xlink" width="32px" height="32px" viewBox="0 0 32 32" version="1.1">
<g id="surface1">
<path style="fill-rule:nonzero;fill:rgb(92.156863%,92.156863%,92.156863%);fill-opacity:1;stroke-width:28.520006;stroke-linecap:butt;stroke-linejoin:miter;stroke:rgb(92.156863%,92.156863%,92.156863%);stroke-opacity:1;stroke-miterlimit:4;" d="M 79.4375 22.4375 L 432.5625 22.4375 C 464.0625 22.4375 489.5625 47.9375 489.5625 79.4375 L 489.5625 432.5625 C 489.5625 464.0625 464.0625 489.5625 432.5625 489.5625 L 79.4375 489.5625 C 47.9375 489.5625 22.4375 464.0625 22.4375 432.5625 L 22.4375 79.4375 C 22.4375 47.9375 47.9375 22.4375 79.4375 22.4375 Z M 79.4375 22.4375 " transform="matrix(0.0625,0,0,0.0625,0,0)"/>
<path style=" stroke:none;fill-rule:nonzero;fill:rgb(25.490198%,25.490198%,25.490198%);fill-opacity:1;" d="M 5.847656 2.566406 C 4.035156 2.566406 2.566406 4.035156 2.566406 5.847656 L 2.566406 11.035156 L 8.167969 10.082031 L 7.109375 2.566406 Z M 9.613281 2.566406 L 10.613281 9.664062 L 17.886719 8.425781 L 21.144531 2.566406 Z M 23.980469 2.566406 L 20.160156 9.445312 L 23.996094 16.089844 L 29.433594 13.714844 L 29.433594 5.847656 C 29.433594 4.035156 27.964844 2.566406 26.152344 2.566406 Z M 18.136719 10.902344 L 10.410156 12.214844 L 9.410156 19.550781 L 16.558594 23.386719 L 22 17.597656 Z M 8.082031 12.613281 L 2.566406 13.550781 L 2.566406 25.621094 L 7.03125 20.300781 Z M 29.433594 16.421875 L 25.261719 18.246094 L 29.433594 25.464844 Z M 23.175781 19.636719 L 18.027344 25.121094 L 17.804688 29.433594 L 26.152344 29.433594 C 26.996094 29.433594 27.765625 29.113281 28.347656 28.589844 Z M 8.957031 21.867188 L 3.472656 28.410156 C 4.066406 29.035156 4.910156 29.433594 5.847656 29.433594 L 15.320312 29.433594 L 15.527344 25.394531 Z M 8.957031 21.867188 "/>
<path style="fill:none;stroke-width:12;stroke-linecap:butt;stroke-linejoin:miter;stroke:rgb(93.333334%,0%,0%);stroke-opacity:1;stroke-miterlimit:4;" d="M 11.371245 69.994589 L 30.642973 50.72286 C 36.097881 45.267952 46.067195 45.011452 51.829904 50.75706 L 61.696618 60.640875 " transform="matrix(0.228435,0,0,0.228435,1.550843,2.823263)"/>
<path style="fill:none;stroke-width:12;stroke-linecap:butt;stroke-linejoin:miter;stroke:rgb(93.333334%,0%,0%);stroke-opacity:1;stroke-miterlimit:4;" d="M 111.303791 50.55186 L 92.032063 69.806488 C 86.594255 75.261396 76.60784 75.534997 70.845132 69.772288 L 60.978417 59.905574 " transform="matrix(0.228435,0,0,0.228435,1.550843,2.823263)"/>
<path style="fill-rule:nonzero;fill:rgb(100%,0%,0%);fill-opacity:1;stroke-width:14;stroke-linecap:round;stroke-linejoin:round;stroke:rgb(93.333334%,0%,0%);stroke-opacity:1;stroke-miterlimit:4;" d="M 102.505782 45.039044 C 102.519901 39.068029 99.851401 34.239531 96.589902 34.22593 C 93.314284 34.22593 90.659904 39.068029 90.659904 45.025443 C 90.645785 50.996458 93.300165 55.838557 96.575783 55.838557 C 99.851401 55.838557 102.505782 50.996458 102.505782 45.039044 Z M 102.505782 45.039044 " transform="matrix(0.138333,0.138333,-0.143597,0.143597,18.889151,-4.327072)"/>
</g>
</svg>
