
<svg xmlns="http://www.w3.org/2000/svg" xmlns:xlink="http://www.w3.org/1999/xlink" width="32px" height="32px" viewBox="0 0 32 32" version="1.1">
<g id="surface1">
<path style=" stroke:none;fill-rule:nonzero;fill:rgb(0%,47.058824%,67.843139%);fill-opacity:1;" d="M 4.933594 1.824219 L 27.066406 1.824219 C 28.828125 1.824219 30.253906 3.253906 30.253906 5.011719 L 30.253906 27.144531 C 30.253906 28.90625 28.828125 30.332031 27.066406 30.332031 L 4.933594 30.332031 C 3.175781 30.332031 1.746094 28.90625 1.746094 27.144531 L 1.746094 5.011719 C 1.746094 3.253906 3.175781 1.824219 4.933594 1.824219 Z M 4.933594 1.824219 "/>
<path style=" stroke:none;fill-rule:nonzero;fill:rgb(100%,97.254902%,92.156863%);fill-opacity:1;" d="M 17.574219 6.5 L 14.242188 6.832031 L 14.242188 20.503906 L 17.539062 20.027344 L 17.539062 14.183594 L 21.933594 20.652344 L 25.378906 19.550781 L 20.871094 13.339844 L 25.417969 7.457031 L 21.898438 6.644531 L 17.539062 12.527344 Z M 10.066406 9.84375 C 10.027344 9.84375 9.984375 9.867188 9.957031 9.882812 L 8.671875 11.207031 C 8.617188 11.261719 8.597656 11.359375 8.636719 11.425781 L 10.136719 13.925781 C 9.867188 14.382812 9.667969 14.878906 9.515625 15.394531 L 6.730469 15.984375 C 6.652344 16.003906 6.582031 16.050781 6.582031 16.132812 L 6.582031 17.972656 C 6.582031 18.050781 6.65625 18.136719 6.730469 18.152344 L 9.441406 18.816406 C 9.585938 19.414062 9.804688 19.984375 10.101562 20.503906 L 8.527344 22.894531 C 8.480469 22.964844 8.503906 23.058594 8.5625 23.117188 L 9.847656 24.402344 C 9.898438 24.457031 9.996094 24.484375 10.066406 24.441406 L 12.519531 22.933594 C 13.003906 23.214844 13.507812 23.445312 14.058594 23.597656 L 14.644531 26.351562 C 14.660156 26.433594 14.710938 26.5 14.792969 26.5 L 16.621094 26.5 C 16.699219 26.5 16.785156 26.429688 16.804688 26.351562 L 17.464844 23.597656 C 18.03125 23.441406 18.582031 23.191406 19.078125 22.898438 L 21.496094 24.515625 C 21.5625 24.558594 21.660156 24.535156 21.714844 24.476562 L 22.996094 23.191406 C 23.050781 23.132812 23.074219 23.035156 23.035156 22.96875 L 22.15625 21.5 L 21.863281 21.609375 C 21.820312 21.628906 21.777344 21.609375 21.753906 21.570312 C 21.753906 21.570312 21.199219 20.730469 20.46875 19.660156 C 19.597656 21.371094 17.824219 22.527344 15.78125 22.527344 C 12.875 22.527344 10.503906 20.183594 10.503906 17.269531 C 10.503906 15.125 11.789062 13.28125 13.621094 12.457031 L 13.621094 11.09375 C 13.285156 11.210938 12.972656 11.332031 12.667969 11.5 C 12.667969 11.5 12.628906 11.5 12.628906 11.5 L 10.175781 9.878906 C 10.140625 9.859375 10.101562 9.839844 10.066406 9.847656 Z M 10.066406 9.84375 "/>
</g>
</svg>
