
<svg xmlns="http://www.w3.org/2000/svg" xmlns:xlink="http://www.w3.org/1999/xlink" width="32px" height="32px" viewBox="0 0 32 32" version="1.1">
<g id="surface1">
<path style="fill-rule:nonzero;fill:rgb(100%,100%,100%);fill-opacity:1;stroke-width:28.330631;stroke-linecap:butt;stroke-linejoin:miter;stroke:rgb(29.019609%,30.980393%,32.941177%);stroke-opacity:1;stroke-miterlimit:4;" d="M 80.625 23.9375 L 431.375 23.9375 C 462.6875 23.9375 488.0625 49.3125 488.0625 80.625 L 488.0625 431.375 C 488.0625 462.6875 462.6875 488.0625 431.375 488.0625 L 80.625 488.0625 C 49.3125 488.0625 23.9375 462.6875 23.9375 431.375 L 23.9375 80.625 C 23.9375 49.3125 49.3125 23.9375 80.625 23.9375 Z M 80.625 23.9375 " transform="matrix(0.0625,0,0,0.0625,0,0)"/>
<path style=" stroke:none;fill-rule:nonzero;fill:rgb(29.019609%,30.980393%,32.941177%);fill-opacity:1;" d="M 15.179688 24.488281 C 14.042969 24.175781 13.113281 23.449219 12.597656 22.410156 C 12.363281 21.933594 12.058594 20.707031 12.144531 20.625 C 12.160156 20.605469 12.597656 21.019531 12.84375 21.1875 C 13.089844 21.355469 13.308594 21.511719 13.308594 21.511719 C 13.339844 21.535156 13.710938 21.800781 14.207031 22.167969 C 15.261719 22.949219 15.558594 23.03125 16.191406 23.035156 C 17.050781 23.042969 17.769531 22.667969 18.230469 21.964844 C 18.636719 21.34375 18.761719 20.542969 18.554688 19.867188 C 18.332031 19.136719 18.007812 18.785156 16.914062 18.089844 C 16.503906 17.824219 16.074219 17.578125 15.972656 17.519531 C 15.878906 17.46875 15.269531 17.179688 15.039062 17.019531 C 14.902344 16.925781 14.722656 16.808594 14.742188 16.796875 C 14.863281 16.734375 15.113281 16.730469 15.488281 16.613281 L 15.714844 16.542969 L 16.308594 15.613281 C 16.632812 15.109375 16.964844 14.574219 17.050781 14.410156 C 17.222656 14.082031 17.433594 13.722656 17.472656 13.683594 C 17.496094 13.679688 17.53125 13.976562 17.550781 14.179688 C 17.628906 15.074219 18.121094 16.234375 18.746094 17.027344 C 19.597656 18.101562 21.019531 18.917969 22.3125 19.074219 C 22.480469 19.089844 22.644531 19.085938 22.644531 19.113281 C 22.644531 19.167969 22.203125 19.46875 22.058594 19.554688 C 22.003906 19.585938 21.542969 19.878906 21.042969 20.230469 L 20.132812 20.867188 L 20.042969 21.332031 C 19.761719 22.792969 18.777344 23.9375 17.394531 24.414062 C 16.800781 24.617188 15.769531 24.652344 15.179688 24.488281 Z M 15.179688 24.488281 "/>
<path style=" stroke:none;fill-rule:nonzero;fill:rgb(29.019609%,30.980393%,32.941177%);fill-opacity:1;" d="M 6.433594 18.542969 C 4.613281 18.226562 3.320312 16.730469 3.117188 14.917969 C 2.898438 12.949219 4.058594 11.207031 5.964844 10.605469 C 6.488281 10.441406 7.515625 10.425781 8.054688 10.574219 C 8.761719 10.773438 9.4375 11.1875 9.949219 11.726562 C 10.25 12.042969 10.457031 12.410156 10.6875 12.769531 C 10.941406 13.164062 11.175781 14.386719 11.117188 14.445312 C 11.101562 14.460938 10.734375 14.027344 10.511719 13.855469 C 10.308594 13.699219 10.105469 13.519531 10.066406 13.5 C 10.035156 13.480469 9.632812 13.175781 9.152344 12.839844 C 8.125 12.128906 7.742188 12.015625 7.128906 12.015625 C 6.464844 12.011719 5.917969 12.222656 5.46875 12.652344 C 4.566406 13.507812 4.40625 14.832031 5.082031 15.867188 C 5.28125 16.171875 5.609375 16.488281 5.871094 16.628906 C 6.238281 16.824219 8.609375 18.246094 8.613281 18.308594 C 8.621094 18.378906 8.246094 18.503906 7.792969 18.558594 C 7.300781 18.613281 6.722656 18.59375 6.433594 18.542969 Z M 6.433594 18.542969 "/>
<path style=" stroke:none;fill-rule:nonzero;fill:rgb(56.862748%,69.01961%,90.980393%);fill-opacity:1;" d="M 22.949219 8.300781 C 22.105469 8.296875 21.582031 8.386719 20.894531 8.660156 C 19.003906 9.410156 17.648438 11.242188 17.527344 13.214844 C 17.511719 13.441406 17.503906 13.570312 17.472656 13.683594 C 17.496094 13.679688 17.53125 13.976562 17.550781 14.179688 C 17.632812 15.074219 18.121094 16.234375 18.746094 17.027344 C 19.597656 18.101562 21.019531 18.917969 22.3125 19.074219 C 22.472656 19.089844 22.621094 19.085938 22.640625 19.105469 C 22.746094 19.070312 22.910156 19.050781 23.246094 19.035156 C 24.535156 18.96875 25.738281 18.425781 26.683594 17.488281 C 28.296875 15.886719 28.730469 13.449219 27.765625 11.394531 C 27.078125 9.925781 25.800781 8.867188 24.214844 8.449219 C 23.773438 8.332031 23.566406 8.308594 22.949219 8.300781 Z M 7.128906 12.015625 C 6.464844 12.011719 5.917969 12.222656 5.46875 12.652344 C 4.566406 13.507812 4.40625 14.832031 5.082031 15.867188 C 5.28125 16.171875 5.609375 16.488281 5.871094 16.628906 C 6.238281 16.824219 8.609375 18.246094 8.613281 18.308594 C 8.613281 18.3125 8.613281 18.316406 8.613281 18.316406 L 8.632812 18.308594 L 9.300781 18.742188 C 9.664062 18.980469 10.449219 19.5 11.046875 19.898438 L 12.128906 20.621094 L 12.132812 20.644531 C 12.136719 20.636719 12.136719 20.628906 12.144531 20.625 C 12.160156 20.605469 12.597656 21.019531 12.84375 21.1875 C 13.089844 21.355469 13.308594 21.511719 13.308594 21.511719 C 13.339844 21.535156 13.710938 21.800781 14.207031 22.167969 C 15.261719 22.949219 15.558594 23.03125 16.191406 23.035156 C 17.050781 23.042969 17.769531 22.667969 18.230469 21.964844 C 18.636719 21.34375 18.761719 20.542969 18.554688 19.867188 C 18.332031 19.136719 18.007812 18.785156 16.914062 18.089844 C 16.503906 17.824219 16.074219 17.578125 15.972656 17.519531 C 15.878906 17.46875 15.269531 17.179688 15.039062 17.019531 C 14.90625 16.925781 14.730469 16.8125 14.742188 16.800781 C 14.566406 16.734375 14.039062 16.402344 12.910156 15.644531 L 11.121094 14.449219 L 11.121094 14.441406 C 11.121094 14.441406 11.117188 14.441406 11.117188 14.445312 C 11.101562 14.460938 10.734375 14.027344 10.511719 13.855469 C 10.308594 13.699219 10.105469 13.519531 10.066406 13.5 C 10.035156 13.480469 9.632812 13.175781 9.152344 12.839844 C 8.125 12.128906 7.742188 12.015625 7.128906 12.015625 Z M 10.953125 13.472656 C 10.988281 13.597656 11.019531 13.726562 11.042969 13.847656 C 11.019531 13.722656 10.992188 13.59375 10.953125 13.472656 Z M 16.804688 14.828125 C 16.746094 14.925781 16.703125 14.992188 16.636719 15.097656 C 16.699219 15 16.753906 14.910156 16.804688 14.828125 Z M 12.191406 21.109375 C 12.242188 21.441406 12.332031 21.753906 12.457031 22.054688 C 12.351562 21.761719 12.253906 21.394531 12.191406 21.109375 Z M 12.191406 21.109375 "/>
<path style=" stroke:none;fill-rule:nonzero;fill:rgb(29.019609%,30.980393%,32.941177%);fill-opacity:1;" d="M 22.15625 17.160156 C 21.363281 16.980469 20.535156 16.449219 20.058594 15.816406 C 19.503906 15.0625 19.261719 14.28125 19.300781 13.351562 C 19.371094 11.828125 20.339844 10.519531 21.761719 10.019531 C 22.171875 9.878906 22.269531 9.863281 22.957031 9.867188 C 23.667969 9.871094 23.734375 9.878906 24.152344 10.042969 C 25.078125 10.398438 25.761719 11.015625 26.179688 11.878906 C 26.492188 12.523438 26.597656 13.027344 26.558594 13.730469 C 26.480469 15.289062 25.492188 16.589844 24.03125 17.0625 C 23.480469 17.242188 22.699219 17.28125 22.15625 17.160156 Z M 22.15625 17.160156 "/>
</g>
</svg>
