
<svg xmlns="http://www.w3.org/2000/svg" xmlns:xlink="http://www.w3.org/1999/xlink" width="32px" height="32px" viewBox="0 0 32 32" version="1.1">
<g id="surface1">
<path style="fill-rule:nonzero;fill:rgb(9.019608%,36.078432%,60.000002%);fill-opacity:1;stroke-width:27.910587;stroke-linecap:butt;stroke-linejoin:miter;stroke:rgb(9.019608%,36.078432%,60.000002%);stroke-opacity:1;stroke-miterlimit:4;" d="M 83.1875 27.4375 L 428.8125 27.4375 C 459.625 27.4375 484.5625 52.375 484.5625 83.1875 L 484.5625 428.8125 C 484.5625 459.625 459.625 484.5625 428.8125 484.5625 L 83.1875 484.5625 C 52.375 484.5625 27.4375 459.625 27.4375 428.8125 L 27.4375 83.1875 C 27.4375 52.375 52.375 27.4375 83.1875 27.4375 Z M 83.1875 27.4375 " transform="matrix(0.0625,0,0,0.0625,0,0)"/>
<path style=" stroke:none;fill-rule:nonzero;fill:rgb(100%,100%,100%);fill-opacity:1;" d="M 9.957031 3.933594 L 21.773438 3.933594 C 23.453125 3.933594 24.8125 5.035156 24.8125 6.398438 L 24.8125 24.925781 C 24.8125 26.285156 23.453125 27.390625 21.773438 27.390625 L 9.957031 27.390625 C 8.277344 27.390625 6.914062 26.285156 6.914062 24.925781 L 6.914062 6.398438 C 6.914062 5.035156 8.277344 3.933594 9.957031 3.933594 Z M 9.957031 3.933594 "/>
<path style=" stroke:none;fill-rule:nonzero;fill:rgb(13.725491%,54.11765%,81.176472%);fill-opacity:1;" d="M 6.019531 2.796875 C 4.238281 2.796875 2.796875 4.238281 2.796875 6.019531 L 2.796875 25.980469 C 2.796875 27.761719 4.238281 29.203125 6.019531 29.203125 L 25.980469 29.203125 C 27.761719 29.203125 29.203125 27.761719 29.203125 25.980469 L 29.203125 6.019531 C 29.203125 4.238281 27.761719 2.796875 25.980469 2.796875 Z M 15.898438 6.835938 C 17.378906 6.835938 18.5625 7.226562 19.453125 8.003906 C 20.355469 8.785156 20.804688 9.816406 20.804688 11.09375 C 20.804688 11.703125 20.660156 12.285156 20.371094 12.839844 C 20.082031 13.386719 19.574219 14.007812 18.851562 14.699219 L 17.792969 15.734375 C 17.410156 16.113281 17.144531 16.410156 16.980469 16.628906 C 16.832031 16.835938 16.722656 17.042969 16.65625 17.242188 C 16.609375 17.410156 16.574219 17.613281 16.550781 17.855469 C 16.523438 18.097656 16.511719 18.425781 16.511719 18.847656 L 16.511719 20.328125 L 14.207031 20.328125 L 14.207031 18.472656 C 14.207031 17.660156 14.324219 16.992188 14.546875 16.472656 C 14.773438 15.949219 15.246094 15.339844 15.96875 14.648438 L 17.054688 13.574219 C 17.511719 13.152344 17.84375 12.746094 18.042969 12.371094 C 18.253906 11.992188 18.355469 11.605469 18.355469 11.214844 C 18.355469 10.496094 18.089844 9.917969 17.5625 9.476562 C 17.039062 9.035156 16.34375 8.816406 15.476562 8.816406 C 14.839844 8.816406 14.160156 8.957031 13.4375 9.238281 C 12.722656 9.519531 11.972656 9.925781 11.195312 10.464844 L 11.195312 8.199219 C 11.949219 7.742188 12.714844 7.398438 13.488281 7.175781 C 14.265625 6.949219 15.070312 6.835938 15.898438 6.835938 Z M 14.136719 22.101562 L 16.585938 22.101562 L 16.585938 25.164062 L 14.136719 25.164062 Z M 14.136719 22.101562 "/>
</g>
</svg>
