
<svg xmlns="http://www.w3.org/2000/svg" xmlns:xlink="http://www.w3.org/1999/xlink" width="32px" height="32px" viewBox="0 0 32 32" version="1.1">
<g id="surface1">
<path style=" stroke:none;fill-rule:evenodd;fill:rgb(31.764707%,31.764707%,31.764707%);fill-opacity:1;" d="M 4.40625 1.394531 L 27.613281 1.394531 C 29.382812 1.394531 30.816406 2.828125 30.816406 4.597656 L 30.816406 27.25 C 30.816406 29.019531 29.382812 30.453125 27.613281 30.453125 L 4.40625 30.453125 C 2.636719 30.453125 1.199219 29.019531 1.199219 27.25 L 1.199219 4.597656 C 1.199219 2.828125 2.636719 1.394531 4.40625 1.394531 Z M 4.40625 1.394531 "/>
<path style=" stroke:none;fill-rule:evenodd;fill:rgb(100%,100%,0%);fill-opacity:1;" d="M 18.542969 11.605469 C 18.542969 15.402344 15.464844 18.480469 11.667969 18.480469 C 7.871094 18.480469 4.792969 15.402344 4.792969 11.605469 C 4.792969 7.808594 7.871094 4.730469 11.667969 4.730469 C 15.464844 4.730469 18.542969 7.808594 18.542969 11.605469 Z M 18.542969 11.605469 "/>
<path style=" stroke:none;fill-rule:evenodd;fill:rgb(100%,100%,0%);fill-opacity:1;" d="M 27.644531 20.464844 C 27.644531 24.261719 24.566406 27.339844 20.769531 27.339844 C 16.972656 27.339844 13.894531 24.261719 13.894531 20.464844 C 13.894531 16.667969 16.972656 13.589844 20.769531 13.589844 C 24.566406 13.589844 27.644531 16.667969 27.644531 20.464844 Z M 27.644531 20.464844 "/>
<path style=" stroke:none;fill-rule:evenodd;fill:rgb(31.764707%,31.764707%,31.764707%);fill-opacity:1;" d="M 15.789062 14.394531 L 7.308594 14.382812 L 11.558594 7.042969 Z M 15.789062 14.394531 "/>
<path style=" stroke:none;fill-rule:evenodd;fill:rgb(31.764707%,31.764707%,31.764707%);fill-opacity:1;" d="M 20.808594 25.167969 L 16.582031 17.8125 L 25.066406 17.832031 Z M 20.808594 25.167969 "/>
</g>
</svg>
