
<svg xmlns="http://www.w3.org/2000/svg" xmlns:xlink="http://www.w3.org/1999/xlink" width="32px" height="32px" viewBox="0 0 32 32" version="1.1">
<g id="surface1">
<path style="fill-rule:nonzero;fill:rgb(20.392157%,28.627452%,36.862746%);fill-opacity:1;stroke-width:1.959286;stroke-linecap:butt;stroke-linejoin:miter;stroke:rgb(92.54902%,94.117647%,94.509804%);stroke-opacity:1;stroke-miterlimit:4;" d="M -32.188079 377.282419 L -7.925785 377.282419 C -5.765021 377.282419 -4.009951 379.037489 -4.009951 381.198253 L -4.009951 405.460547 C -4.009951 407.621311 -5.765021 409.376381 -7.925785 409.376381 L -32.188079 409.376381 C -34.348843 409.376381 -36.103913 407.621311 -36.103913 405.460547 L -36.103913 381.198253 C -36.103913 379.037489 -34.348843 377.282419 -32.188079 377.282419 Z M -32.188079 377.282419 " transform="matrix(0.885827,0,0,0.885827,33.766965,-332.421672)"/>
<path style=" stroke:none;fill-rule:nonzero;fill:rgb(90.196079%,49.411765%,13.333334%);fill-opacity:1;" d="M 20.394531 12.863281 L 18.546875 12.9375 C 18.421875 12.394531 18.101562 11.980469 17.582031 11.699219 C 17.078125 11.414062 16.519531 11.277344 15.902344 11.292969 C 14.828125 11.316406 14.046875 11.644531 13.550781 12.269531 C 13.308594 12.589844 13.203125 12.992188 13.238281 13.472656 C 13.25 13.730469 13.324219 13.953125 13.460938 14.136719 C 13.597656 14.324219 13.746094 14.472656 13.902344 14.582031 C 14.066406 14.691406 14.292969 14.785156 14.589844 14.859375 C 14.886719 14.933594 15.128906 14.984375 15.328125 15.007812 C 15.539062 15.035156 15.820312 15.0625 16.179688 15.101562 C 16.707031 15.160156 17.171875 15.242188 17.566406 15.339844 C 17.972656 15.441406 18.402344 15.589844 18.859375 15.785156 C 19.328125 15.96875 19.710938 16.242188 20.007812 16.597656 C 20.316406 16.941406 20.53125 17.363281 20.652344 17.855469 C 20.714844 18.164062 20.746094 18.449219 20.746094 18.707031 C 20.746094 19.890625 20.261719 20.847656 19.285156 21.574219 C 18.3125 22.285156 17.195312 22.644531 15.9375 22.644531 C 15.246094 22.644531 14.570312 22.519531 13.902344 22.277344 C 13.238281 22.015625 12.652344 21.613281 12.148438 21.074219 C 11.644531 20.519531 11.351562 19.878906 11.277344 19.152344 L 11.261719 18.800781 L 13.144531 18.761719 L 13.164062 19.039062 L 13.164062 18.964844 C 13.226562 19.53125 13.542969 19.980469 14.105469 20.316406 C 14.675781 20.636719 15.292969 20.796875 15.957031 20.796875 C 16.707031 20.796875 17.378906 20.605469 17.972656 20.222656 C 18.566406 19.828125 18.859375 19.316406 18.859375 18.6875 C 18.859375 18.566406 18.839844 18.417969 18.804688 18.246094 C 18.753906 18.011719 18.644531 17.8125 18.472656 17.652344 C 18.300781 17.492188 18.058594 17.371094 17.75 17.285156 C 17.457031 17.195312 17.183594 17.136719 16.9375 17.097656 C 16.691406 17.050781 16.363281 17.003906 15.957031 16.96875 C 15.476562 16.917969 15.058594 16.863281 14.699219 16.800781 C 14.355469 16.738281 13.964844 16.636719 13.535156 16.488281 C 13.113281 16.328125 12.761719 16.136719 12.480469 15.914062 C 12.199219 15.679688 11.949219 15.371094 11.742188 14.988281 C 11.53125 14.597656 11.410156 14.136719 11.371094 13.621094 L 11.371094 13.640625 C 11.296875 12.714844 11.53125 11.894531 12.074219 11.179688 C 12.492188 10.636719 13.054688 10.21875 13.757812 9.921875 C 14.472656 9.613281 15.21875 9.460938 15.996094 9.460938 C 17.089844 9.460938 18.058594 9.75 18.898438 10.332031 C 19.734375 10.910156 20.234375 11.753906 20.394531 12.863281 Z M 20.394531 12.863281 "/>
</g>
</svg>
