
<svg xmlns="http://www.w3.org/2000/svg" xmlns:xlink="http://www.w3.org/1999/xlink" width="32px" height="32px" viewBox="0 0 32 32" version="1.1">
<g id="surface1">
<path style="fill-rule:nonzero;fill:rgb(20.392157%,59.607846%,85.882354%);fill-opacity:1;stroke-width:2.680109;stroke-linecap:butt;stroke-linejoin:miter;stroke:rgb(6.666667%,20.392157%,31.37255%);stroke-opacity:1;stroke-miterlimit:4;" d="M 7.412109 2.044922 L 40.587891 2.044922 C 43.552734 2.044922 45.955078 4.447266 45.955078 7.412109 L 45.955078 40.587891 C 45.955078 43.552734 43.552734 45.955078 40.587891 45.955078 L 7.412109 45.955078 C 4.447266 45.955078 2.044922 43.552734 2.044922 40.587891 L 2.044922 7.412109 C 2.044922 4.447266 4.447266 2.044922 7.412109 2.044922 Z M 7.412109 2.044922 " transform="matrix(0.666667,0,0,0.666667,0,0)"/>
<path style=" stroke:none;fill-rule:nonzero;fill:rgb(20.392157%,59.607846%,85.882354%);fill-opacity:1;" d="M 16 2.632812 C 23.382812 2.632812 29.367188 8.617188 29.367188 16 C 29.367188 23.382812 23.382812 29.367188 16 29.367188 C 8.617188 29.367188 2.632812 23.382812 2.632812 16 C 2.632812 8.617188 8.617188 2.632812 16 2.632812 Z M 16 2.632812 "/>
<path style=" stroke:none;fill-rule:nonzero;fill:rgb(92.54902%,94.117647%,94.509804%);fill-opacity:1;" d="M 8.597656 9.167969 L 15.671875 9.167969 L 15.671875 14.667969 L 8.597656 14.667969 Z M 8.597656 9.167969 "/>
<path style=" stroke:none;fill-rule:nonzero;fill:rgb(92.54902%,94.117647%,94.509804%);fill-opacity:1;" d="M 11.644531 14.667969 L 12.429688 14.667969 L 12.429688 20.960938 L 11.644531 20.960938 Z M 11.644531 14.667969 "/>
<path style=" stroke:none;fill-rule:nonzero;fill:rgb(92.54902%,94.117647%,94.509804%);fill-opacity:1;" d="M 20.292969 20.175781 L 20.292969 20.960938 L 11.644531 20.960938 L 11.644531 20.175781 Z M 20.292969 20.175781 "/>
<path style=" stroke:none;fill-rule:nonzero;fill:rgb(60.784316%,34.901962%,71.372551%);fill-opacity:1;" d="M 18.03125 9.167969 L 21.964844 9.167969 L 21.964844 12.3125 L 18.03125 12.3125 Z M 18.03125 9.167969 "/>
<path style=" stroke:none;fill-rule:nonzero;fill:rgb(92.54902%,94.117647%,94.509804%);fill-opacity:1;" d="M 19.605469 12.3125 L 20.390625 12.3125 L 20.390625 18.601562 L 19.605469 18.601562 Z M 19.605469 12.3125 "/>
<path style=" stroke:none;fill-rule:nonzero;fill:rgb(20.392157%,28.627452%,36.862746%);fill-opacity:1;" d="M 19.996094 17.816406 C 21.519531 17.816406 22.75 19.046875 22.75 20.566406 C 22.75 22.089844 21.519531 23.320312 19.996094 23.320312 C 18.476562 23.320312 17.246094 22.089844 17.246094 20.566406 C 17.246094 19.046875 18.476562 17.816406 19.996094 17.816406 Z M 19.996094 17.816406 "/>
</g>
</svg>
