
<svg xmlns="http://www.w3.org/2000/svg" xmlns:xlink="http://www.w3.org/1999/xlink" width="32px" height="32px" viewBox="0 0 32 32" version="1.1">
<g id="surface1">
<path style="fill-rule:nonzero;fill:rgb(100%,100%,100%);fill-opacity:1;stroke-width:26.401737;stroke-linecap:butt;stroke-linejoin:miter;stroke:rgb(54.901963%,56.078434%,56.078434%);stroke-opacity:1;stroke-miterlimit:4;" d="M 92.5625 39.75 L 419.4375 39.75 C 448.5625 39.75 472.25 63.4375 472.25 92.5625 L 472.25 419.4375 C 472.25 448.5625 448.5625 472.25 419.4375 472.25 L 92.5625 472.25 C 63.4375 472.25 39.75 448.5625 39.75 419.4375 L 39.75 92.5625 C 39.75 63.4375 63.4375 39.75 92.5625 39.75 Z M 92.5625 39.75 " transform="matrix(0.0625,0,0,0.0625,0,0)"/>
<path style=" stroke:none;fill-rule:nonzero;fill:rgb(27.450982%,47.450981%,72.549021%);fill-opacity:1;" d="M 16.613281 27.347656 C 16.59375 27.324219 16.613281 24.875 16.613281 21.910156 L 16.613281 16.488281 L 22.152344 16.535156 L 27.730469 16.546875 L 27.742188 20.648438 C 27.757812 25.183594 27.761719 25.160156 27.410156 25.832031 C 27.179688 26.265625 26.652344 26.792969 26.222656 27.027344 C 25.558594 27.375 25.605469 27.359375 20.910156 27.359375 C 18.566406 27.359375 16.632812 27.367188 16.613281 27.347656 Z M 16.613281 27.347656 "/>
<path style=" stroke:none;fill-rule:nonzero;fill:rgb(27.450982%,47.450981%,72.549021%);fill-opacity:1;" d="M 4.277344 11.089844 C 4.277344 7.480469 4.289062 6.632812 4.355469 6.421875 C 4.640625 5.476562 5.40625 4.738281 6.378906 4.464844 C 6.605469 4.398438 7.441406 4.382812 11.03125 4.382812 L 15.40625 4.382812 L 15.40625 15.488281 L 4.277344 15.488281 Z M 4.277344 11.089844 "/>
<path style=" stroke:none;fill-rule:nonzero;fill:rgb(27.450982%,47.450981%,72.549021%);fill-opacity:1;" d="M 16.628906 9.9375 L 16.640625 4.386719 L 20.777344 4.371094 C 23.464844 4.359375 25.050781 4.375 25.304688 4.410156 C 26.488281 4.589844 27.480469 5.566406 27.675781 6.742188 C 27.71875 7.011719 27.734375 8.382812 27.722656 11.292969 L 27.726562 15.488281 L 22.160156 15.480469 L 16.613281 15.488281 Z M 16.628906 9.9375 "/>
<path style=" stroke:none;fill-rule:nonzero;fill:rgb(51.764709%,85.882354%,18.039216%);fill-opacity:1;" d="M 15.40625 27.355469 C 15.425781 27.332031 15.40625 24.417969 15.40625 21.894531 L 15.40625 16.488281 L 9.847656 16.511719 L 4.269531 16.527344 L 4.257812 20.628906 C 4.242188 25.164062 4.238281 25.136719 4.589844 25.808594 C 4.820312 26.246094 5.347656 26.777344 5.777344 27.003906 C 6.441406 27.355469 6.394531 27.355469 11.089844 27.355469 C 13.433594 27.355469 15.386719 27.375 15.40625 27.355469 Z M 15.40625 27.355469 "/>
<path style="fill-rule:nonzero;fill:rgb(0%,50.196081%,0%);fill-opacity:1;stroke-width:0.613877;stroke-linecap:butt;stroke-linejoin:miter;stroke:rgb(63.137257%,34.901962%,18.431373%);stroke-opacity:1;stroke-miterlimit:4;" d="M 99.9375 286.3125 C 95.5625 286.3125 92.0625 290.5 92.0625 295.6875 L 92.0625 405 C 92.0625 410.25 95.5625 414.4375 99.9375 414.4375 L 219 414.4375 C 223.375 414.4375 226.875 410.25 226.875 405 L 226.875 295.6875 C 226.875 290.5 223.375 286.3125 219 286.3125 Z M 112.25 299.5625 L 206.6875 299.5625 C 210.125 299.5625 212.9375 302.875 212.9375 307.0625 L 212.9375 393.6875 C 212.9375 397.875 210.125 401.1875 206.6875 401.1875 L 112.25 401.1875 C 108.8125 401.1875 105.9375 397.875 105.9375 393.6875 L 105.9375 307.0625 C 105.9375 302.875 108.8125 299.5625 112.25 299.5625 Z M 112.25 299.5625 " transform="matrix(0.0625,0,0,0.0625,0,0)"/>
<path style="fill-rule:nonzero;fill:rgb(0%,0%,100%);fill-opacity:1;stroke-width:0.8;stroke-linecap:butt;stroke-linejoin:miter;stroke:rgb(63.137257%,34.901962%,18.431373%);stroke-opacity:1;stroke-miterlimit:4;" d="M 158.375 81.375 C 113.4375 81.375 77 117.8125 77 162.6875 C 77 207.625 113.4375 244.0625 158.375 244.0625 C 203.3125 244.0625 239.6875 207.625 239.6875 162.6875 C 239.6875 117.8125 203.3125 81.375 158.375 81.375 Z M 158.375 96.4375 C 194.9375 96.4375 224.625 126.125 224.625 162.6875 C 224.625 199.3125 194.9375 228.9375 158.375 228.9375 C 121.8125 228.9375 92.125 199.3125 92.125 162.6875 C 92.125 126.125 121.8125 96.4375 158.375 96.4375 Z M 158.375 96.4375 " transform="matrix(0.0625,0,0,0.0625,0,0)"/>
<path style="fill-rule:nonzero;fill:rgb(0%,0%,100%);fill-opacity:1;stroke-width:0.8;stroke-linecap:butt;stroke-linejoin:miter;stroke:rgb(63.137257%,34.901962%,18.431373%);stroke-opacity:1;stroke-miterlimit:4;" d="M 352.5625 79.1875 C 307.625 79.1875 271.1875 115.625 271.1875 160.5625 C 271.1875 205.4375 307.625 241.9375 352.5625 241.9375 C 397.4375 241.9375 433.9375 205.4375 433.9375 160.5625 C 433.9375 115.625 397.4375 79.1875 352.5625 79.1875 Z M 352.5625 94.3125 C 389.125 94.3125 418.8125 123.9375 418.8125 160.5625 C 418.8125 197.125 389.125 226.8125 352.5625 226.8125 C 315.9375 226.8125 286.3125 197.125 286.3125 160.5625 C 286.3125 123.9375 315.9375 94.3125 352.5625 94.3125 Z M 352.5625 94.3125 " transform="matrix(0.0625,0,0,0.0625,0,0)"/>
<path style="fill-rule:nonzero;fill:rgb(0%,0%,100%);fill-opacity:1;stroke-width:0.8;stroke-linecap:butt;stroke-linejoin:miter;stroke:rgb(63.137257%,34.901962%,18.431373%);stroke-opacity:1;stroke-miterlimit:4;" d="M 354.6875 270.0625 C 309.8125 270.0625 273.375 306.5625 273.375 351.4375 C 273.375 396.375 309.8125 432.8125 354.6875 432.8125 C 399.625 432.8125 436.0625 396.375 436.0625 351.4375 C 436.0625 306.5625 399.625 270.0625 354.6875 270.0625 Z M 354.6875 285.1875 C 391.3125 285.1875 420.9375 314.875 420.9375 351.4375 C 420.9375 388.0625 391.3125 417.6875 354.6875 417.6875 C 318.125 417.6875 288.4375 388.0625 288.4375 351.4375 C 288.4375 314.875 318.125 285.1875 354.6875 285.1875 Z M 354.6875 285.1875 " transform="matrix(0.0625,0,0,0.0625,0,0)"/>
</g>
</svg>
