
<svg xmlns="http://www.w3.org/2000/svg" xmlns:xlink="http://www.w3.org/1999/xlink" width="32px" height="32px" viewBox="0 0 32 32" version="1.1">
<g id="surface1">
<path style="fill-rule:nonzero;fill:rgb(20%,27.843139%,36.078432%);fill-opacity:1;stroke-width:27.537834;stroke-linecap:butt;stroke-linejoin:miter;stroke:rgb(20%,27.843139%,36.078432%);stroke-opacity:1;stroke-miterlimit:4;" d="M 85.5625 30.4375 L 426.4375 30.4375 C 456.875 30.4375 481.5625 55.125 481.5625 85.5625 L 481.5625 426.4375 C 481.5625 456.875 456.875 481.5625 426.4375 481.5625 L 85.5625 481.5625 C 55.125 481.5625 30.4375 456.875 30.4375 426.4375 L 30.4375 85.5625 C 30.4375 55.125 55.125 30.4375 85.5625 30.4375 Z M 85.5625 30.4375 " transform="matrix(0.0625,0,0,0.0625,0,0)"/>
<path style=" stroke:none;fill-rule:nonzero;fill:rgb(74.117649%,76.078433%,78.039217%);fill-opacity:1;" d="M 6.042969 2.828125 L 25.957031 2.828125 C 27.730469 2.828125 29.171875 4.269531 29.171875 6.042969 L 29.171875 25.957031 C 29.171875 27.730469 27.730469 29.171875 25.957031 29.171875 L 6.042969 29.171875 C 4.269531 29.171875 2.828125 27.730469 2.828125 25.957031 L 2.828125 6.042969 C 2.828125 4.269531 4.269531 2.828125 6.042969 2.828125 Z M 6.042969 2.828125 "/>
<path style="fill-rule:nonzero;fill:rgb(58.039218%,63.921571%,65.098041%);fill-opacity:1;stroke-width:10.50525;stroke-linecap:butt;stroke-linejoin:miter;stroke:rgb(20%,27.843139%,36.078432%);stroke-opacity:1;stroke-miterlimit:4;" d="M 96.6875 45.25 C 68.3125 45.25 45.25 68.3125 45.25 96.6875 L 45.25 162.5 L 466.75 162.5 L 466.75 96.6875 C 466.75 68.3125 443.6875 45.25 415.3125 45.25 Z M 96.6875 45.25 " transform="matrix(0.0625,0,0,0.0625,0,0)"/>
<path style=" stroke:none;fill-rule:nonzero;fill:rgb(20%,27.843139%,36.078432%);fill-opacity:1;" d="M 15.667969 2.824219 L 16.332031 2.824219 L 16.332031 10.160156 L 15.667969 10.160156 Z M 15.667969 2.824219 "/>
</g>
</svg>
