
<svg xmlns="http://www.w3.org/2000/svg" xmlns:xlink="http://www.w3.org/1999/xlink" width="32px" height="32px" viewBox="0 0 32 32" version="1.1">
<g id="surface1">
<path style="fill-rule:nonzero;fill:rgb(100%,100%,100%);fill-opacity:1;stroke-width:2.650535;stroke-linecap:butt;stroke-linejoin:miter;stroke:rgb(46.666667%,67.843139%,100%);stroke-opacity:1;stroke-miterlimit:4;" d="M 371.465003 436.607994 L 404.356122 436.607994 C 407.294725 436.607994 409.672752 438.974863 409.672752 441.899679 L 409.672752 474.636471 C 409.672752 477.561287 407.294725 479.928156 404.356122 479.928156 L 371.465003 479.928156 C 368.5264 479.928156 366.148373 477.561287 366.148373 474.636471 L 366.148373 441.899679 C 366.148373 438.974863 368.5264 436.607994 371.465003 436.607994 Z M 371.465003 436.607994 " transform="matrix(0.661985,0,0,0.665106,-240.791097,-288.796855)"/>
<path style=" stroke:none;fill-rule:nonzero;fill:rgb(46.666667%,67.843139%,100%);fill-opacity:1;" d="M 16.003906 4 C 9.390625 4.039062 4.035156 9.390625 4 16.003906 L 9.621094 16.003906 C 9.65625 12.496094 12.496094 9.660156 16.003906 9.621094 Z M 16.003906 4 "/>
<path style=" stroke:none;fill-rule:nonzero;fill:rgb(20.392157%,28.627452%,36.862746%);fill-opacity:1;" d="M 15.996094 4 L 15.996094 9.621094 C 19.503906 9.65625 22.34375 12.496094 22.378906 16.003906 L 28 16.003906 C 27.964844 9.390625 22.609375 4.039062 15.996094 4 Z M 15.996094 4 "/>
<path style=" stroke:none;fill-rule:nonzero;fill:rgb(53.333336%,78.823531%,25.490198%);fill-opacity:1;" d="M 4 15.996094 C 4.035156 22.609375 9.390625 27.964844 16.003906 28 L 16.003906 22.378906 C 12.496094 22.34375 9.65625 19.503906 9.621094 15.996094 Z M 4 15.996094 "/>
<path style=" stroke:none;fill-rule:nonzero;fill:rgb(24.313726%,66.666669%,83.92157%);fill-opacity:1;" d="M 22.378906 15.996094 C 22.34375 19.503906 19.503906 22.34375 15.996094 22.378906 L 15.996094 28 C 22.609375 27.964844 27.964844 22.609375 28 15.996094 Z M 22.378906 15.996094 "/>
</g>
</svg>
