
<svg xmlns="http://www.w3.org/2000/svg" xmlns:xlink="http://www.w3.org/1999/xlink" width="32px" height="32px" viewBox="0 0 32 32" version="1.1">
<g id="surface1">
<path style=" stroke:none;fill-rule:nonzero;fill:rgb(80.000001%,80.000001%,80.000001%);fill-opacity:1;" d="M 19.222656 3.289062 C 17.863281 3.289062 16.746094 4.535156 16.519531 6.179688 L 27.273438 6.179688 C 27.050781 4.535156 25.933594 3.289062 24.574219 3.289062 Z M 19.222656 3.289062 "/>
<path style=" stroke:none;fill-rule:nonzero;fill:rgb(14.509805%,68.235296%,87.450981%);fill-opacity:1;" d="M 4.636719 6.640625 L 27.363281 6.640625 C 29.160156 6.640625 30.617188 8.097656 30.617188 9.890625 L 30.617188 21.285156 C 30.617188 23.082031 29.160156 24.535156 27.363281 24.535156 L 4.636719 24.535156 C 2.839844 24.535156 1.382812 23.082031 1.382812 21.285156 L 1.382812 9.890625 C 1.382812 8.097656 2.839844 6.640625 4.636719 6.640625 Z M 4.636719 6.640625 "/>
<path style=" stroke:none;fill-rule:nonzero;fill:rgb(14.509805%,68.235296%,87.450981%);fill-opacity:1;" d="M 4.636719 10.816406 L 27.363281 10.816406 C 29.160156 10.816406 30.617188 12.269531 30.617188 14.066406 L 30.617188 25.460938 C 30.617188 27.253906 29.160156 28.710938 27.363281 28.710938 L 4.636719 28.710938 C 2.839844 28.710938 1.382812 27.253906 1.382812 25.460938 L 1.382812 14.066406 C 1.382812 12.269531 2.839844 10.816406 4.636719 10.816406 Z M 4.636719 10.816406 "/>
</g>
</svg>
