
<svg xmlns="http://www.w3.org/2000/svg" xmlns:xlink="http://www.w3.org/1999/xlink" width="32px" height="32px" viewBox="0 0 32 32" version="1.1">
<defs>
<linearGradient id="linear0" gradientUnits="userSpaceOnUse" x1="1" y1="0" x2="47" y2="0" gradientTransform="matrix(0,-0.666667,0.666667,0,0.00147645,32)">
<stop offset="0" style="stop-color:rgb(22.352941%,79.607844%,76.078433%);stop-opacity:1;"/>
<stop offset="1" style="stop-color:rgb(28.235295%,81.176472%,78.039217%);stop-opacity:1;"/>
</linearGradient>
</defs>
<g id="surface1">
<path style=" stroke:none;fill-rule:nonzero;fill:url(#linear0);" d="M 0.667969 28.667969 L 0.667969 3.332031 C 0.667969 1.859375 1.859375 0.667969 3.332031 0.667969 L 28.667969 0.667969 C 30.140625 0.667969 31.332031 1.859375 31.332031 3.332031 L 31.332031 28.667969 C 31.332031 30.140625 30.140625 31.332031 28.667969 31.332031 L 3.332031 31.332031 C 1.859375 31.332031 0.667969 30.140625 0.667969 28.667969 Z M 0.667969 28.667969 "/>
<path style=" stroke:none;fill-rule:nonzero;fill:rgb(100%,100%,100%);fill-opacity:1;" d="M 12.675781 5.71875 C 12.394531 5.71875 12.171875 5.949219 12.171875 6.238281 L 12.171875 7.242188 C 11.667969 7.375 11.191406 7.578125 10.753906 7.835938 L 10.03125 7.121094 C 9.929688 7.019531 9.8125 6.960938 9.683594 6.957031 C 9.550781 6.957031 9.417969 7.003906 9.316406 7.105469 L 7.914062 8.507812 C 7.714844 8.707031 7.726562 9.019531 7.929688 9.222656 L 8.644531 9.941406 C 8.386719 10.382812 8.183594 10.863281 8.050781 11.363281 L 7.042969 11.363281 C 6.761719 11.363281 6.527344 11.585938 6.527344 11.867188 L 6.527344 13.847656 C 6.527344 14.128906 6.761719 14.347656 7.042969 14.347656 L 8.050781 14.347656 C 8.183594 14.851562 8.386719 15.328125 8.644531 15.769531 L 7.929688 16.488281 C 7.726562 16.691406 7.714844 17.003906 7.914062 17.203125 L 9.316406 18.605469 C 9.515625 18.804688 9.828125 18.792969 10.03125 18.589844 L 10.753906 17.878906 C 11.191406 18.132812 11.667969 18.335938 12.171875 18.46875 L 12.171875 19.472656 C 12.171875 19.761719 12.394531 19.996094 12.675781 19.996094 L 14.652344 19.996094 C 14.933594 19.996094 15.15625 19.761719 15.15625 19.472656 L 15.15625 18.46875 C 15.660156 18.335938 16.136719 18.132812 16.574219 17.878906 L 17.300781 18.589844 C 17.5 18.792969 17.8125 18.804688 18.011719 18.605469 L 19.417969 17.203125 C 19.613281 17.003906 19.601562 16.691406 19.398438 16.488281 L 18.683594 15.769531 C 18.941406 15.328125 19.144531 14.851562 19.277344 14.347656 L 20.285156 14.347656 C 20.570312 14.347656 20.800781 14.128906 20.800781 13.847656 L 20.800781 11.867188 C 20.800781 11.585938 20.570312 11.363281 20.285156 11.363281 L 19.277344 11.363281 C 19.144531 10.863281 18.941406 10.382812 18.683594 9.941406 L 19.398438 9.222656 C 19.601562 9.019531 19.613281 8.707031 19.417969 8.507812 L 18.011719 7.105469 C 17.8125 6.90625 17.5 6.917969 17.300781 7.121094 L 16.574219 7.835938 C 16.136719 7.578125 15.660156 7.375 15.15625 7.242188 L 15.15625 6.238281 C 15.15625 5.949219 14.933594 5.71875 14.652344 5.71875 Z M 13.664062 9.222656 C 15.671875 9.222656 17.300781 10.847656 17.300781 12.855469 C 17.300781 14.863281 15.671875 16.488281 13.664062 16.488281 C 11.65625 16.488281 10.03125 14.863281 10.03125 12.855469 C 10.03125 10.847656 11.65625 9.222656 13.664062 9.222656 Z M 13.664062 9.222656 "/>
<path style=" stroke:none;fill-rule:nonzero;fill:rgb(100%,100%,100%);fill-opacity:1;" d="M 18.753906 18.191406 C 18.597656 18.175781 18.460938 18.296875 18.445312 18.457031 L 18.394531 19.019531 C 18.105469 19.066406 17.828125 19.160156 17.570312 19.277344 L 17.203125 18.84375 C 17.152344 18.78125 17.089844 18.742188 17.015625 18.734375 C 16.941406 18.726562 16.863281 18.746094 16.804688 18.796875 L 15.949219 19.511719 C 15.824219 19.613281 15.816406 19.789062 15.921875 19.914062 L 16.285156 20.351562 C 16.121094 20.585938 15.980469 20.84375 15.878906 21.117188 L 15.316406 21.066406 C 15.160156 21.050781 15.015625 21.164062 15.003906 21.324219 L 14.902344 22.429688 C 14.886719 22.585938 15.007812 22.722656 15.167969 22.738281 L 15.730469 22.789062 C 15.78125 23.074219 15.871094 23.355469 15.988281 23.613281 L 15.554688 23.980469 C 15.429688 24.082031 15.410156 24.257812 15.511719 24.378906 L 16.222656 25.238281 C 16.324219 25.355469 16.5 25.363281 16.625 25.261719 L 17.066406 24.898438 C 17.296875 25.066406 17.554688 25.203125 17.828125 25.300781 L 17.777344 25.863281 C 17.761719 26.027344 17.878906 26.167969 18.035156 26.183594 L 19.140625 26.28125 C 19.300781 26.296875 19.433594 26.175781 19.449219 26.015625 L 19.5 25.453125 C 19.789062 25.402344 20.066406 25.316406 20.324219 25.191406 L 20.691406 25.628906 C 20.792969 25.753906 20.96875 25.777344 21.089844 25.675781 L 21.949219 24.957031 C 22.066406 24.859375 22.078125 24.683594 21.972656 24.558594 L 21.613281 24.121094 C 21.777344 23.886719 21.914062 23.628906 22.011719 23.355469 L 22.578125 23.40625 C 22.738281 23.417969 22.878906 23.308594 22.894531 23.148438 L 22.992188 22.042969 C 23.007812 21.886719 22.886719 21.746094 22.726562 21.734375 L 22.164062 21.683594 C 22.113281 21.394531 22.027344 21.117188 21.902344 20.859375 L 22.339844 20.492188 C 22.464844 20.386719 22.488281 20.214844 22.386719 20.089844 L 21.671875 19.238281 C 21.570312 19.113281 21.394531 19.105469 21.269531 19.207031 L 20.832031 19.574219 C 20.597656 19.40625 20.339844 19.269531 20.066406 19.167969 L 20.117188 18.605469 C 20.128906 18.445312 20.019531 18.304688 19.863281 18.289062 Z M 19.128906 20.203125 C 20.253906 20.300781 21.082031 21.296875 20.980469 22.417969 C 20.878906 23.542969 19.886719 24.371094 18.765625 24.269531 C 17.640625 24.167969 16.8125 23.175781 16.914062 22.050781 C 17.015625 20.929688 18.007812 20.101562 19.128906 20.203125 Z M 19.128906 20.203125 "/>
<path style=" stroke:none;fill-rule:nonzero;fill:rgb(100%,100%,100%);fill-opacity:1;" d="M 22.476562 13.445312 C 22.363281 13.4375 22.269531 13.519531 22.257812 13.632812 L 22.222656 14.03125 C 22.019531 14.066406 21.824219 14.128906 21.640625 14.214844 L 21.378906 13.90625 C 21.34375 13.863281 21.300781 13.835938 21.246094 13.832031 C 21.195312 13.824219 21.140625 13.839844 21.097656 13.875 L 20.492188 14.378906 C 20.40625 14.453125 20.402344 14.574219 20.472656 14.664062 L 20.730469 14.972656 C 20.613281 15.140625 20.515625 15.320312 20.445312 15.515625 L 20.046875 15.480469 C 19.933594 15.46875 19.832031 15.550781 19.824219 15.660156 L 19.753906 16.441406 C 19.746094 16.554688 19.828125 16.652344 19.941406 16.660156 L 20.339844 16.695312 C 20.375 16.902344 20.4375 17.097656 20.523438 17.277344 L 20.214844 17.539062 C 20.128906 17.613281 20.113281 17.738281 20.183594 17.820312 L 20.6875 18.425781 C 20.761719 18.511719 20.882812 18.519531 20.972656 18.445312 L 21.28125 18.191406 C 21.449219 18.304688 21.628906 18.402344 21.824219 18.472656 L 21.785156 18.871094 C 21.777344 18.984375 21.855469 19.085938 21.964844 19.097656 L 22.75 19.167969 C 22.863281 19.175781 22.957031 19.089844 22.96875 18.980469 L 23.003906 18.582031 C 23.207031 18.542969 23.402344 18.480469 23.585938 18.394531 L 23.847656 18.707031 C 23.917969 18.792969 24.042969 18.808594 24.128906 18.738281 L 24.734375 18.230469 C 24.820312 18.160156 24.824219 18.035156 24.753906 17.949219 L 24.496094 17.636719 C 24.613281 17.472656 24.710938 17.292969 24.78125 17.097656 L 25.179688 17.132812 C 25.292969 17.144531 25.394531 17.0625 25.402344 16.953125 L 25.472656 16.167969 C 25.484375 16.058594 25.398438 15.960938 25.285156 15.949219 L 24.886719 15.917969 C 24.851562 15.710938 24.789062 15.515625 24.703125 15.332031 L 25.011719 15.074219 C 25.097656 15 25.113281 14.875 25.042969 14.792969 L 24.539062 14.183594 C 24.464844 14.097656 24.34375 14.09375 24.253906 14.167969 L 23.945312 14.421875 C 23.777344 14.308594 23.597656 14.207031 23.402344 14.136719 L 23.441406 13.738281 C 23.449219 13.628906 23.371094 13.527344 23.261719 13.515625 Z M 22.742188 14.867188 C 23.535156 14.941406 24.121094 15.640625 24.050781 16.433594 C 23.980469 17.230469 23.277344 17.816406 22.484375 17.746094 C 21.691406 17.671875 21.105469 16.972656 21.175781 16.175781 C 21.246094 15.382812 21.949219 14.796875 22.742188 14.867188 Z M 22.742188 14.867188 "/>
<path style=" stroke:none;fill-rule:nonzero;fill:rgb(89.803922%,35.686275%,25.882354%);fill-opacity:1;" d="M 8.589844 16.644531 L 13.921875 16.644531 L 13.921875 23.308594 L 16.589844 23.308594 L 11.253906 28.644531 L 5.921875 23.308594 L 8.589844 23.308594 "/>
</g>
</svg>
