
<svg xmlns="http://www.w3.org/2000/svg" xmlns:xlink="http://www.w3.org/1999/xlink" width="32px" height="32px" viewBox="0 0 32 32" version="1.1">
<g id="surface1">
<path style=" stroke:none;fill-rule:nonzero;fill:rgb(23.529412%,58.823532%,83.92157%);fill-opacity:1;" d="M 4.730469 29.980469 C 3.496094 29.660156 2.492188 28.644531 2.175781 27.402344 C 2.09375 27.074219 2.082031 25.664062 2.082031 16.105469 C 2.082031 4.070312 2.054688 4.875 2.476562 4.027344 C 2.746094 3.480469 3.425781 2.800781 3.972656 2.527344 C 4.820312 2.105469 4.027344 2.132812 15.992188 2.132812 C 27.957031 2.132812 27.160156 2.105469 28.011719 2.527344 C 28.558594 2.800781 29.234375 3.480469 29.507812 4.027344 C 29.929688 4.875 29.902344 4.070312 29.902344 16.105469 C 29.902344 25.664062 29.890625 27.074219 29.808594 27.402344 C 29.488281 28.65625 28.476562 29.667969 27.222656 29.988281 C 26.671875 30.128906 5.265625 30.121094 4.730469 29.980469 Z M 4.730469 29.980469 "/>
<path style=" stroke:none;fill-rule:nonzero;fill:rgb(100%,100%,100%);fill-opacity:1;" d="M 18.890625 19.902344 C 20.566406 18.039062 21.753906 16.671875 21.722656 16.636719 C 21.691406 16.609375 20.972656 16.574219 20.121094 16.566406 L 18.578125 16.550781 L 18.515625 9.863281 L 13.277344 9.863281 L 13.214844 16.550781 L 11.636719 16.582031 C 10.613281 16.601562 10.0625 16.636719 10.0625 16.675781 C 10.0625 16.804688 15.800781 23.136719 15.902344 23.125 C 15.957031 23.117188 17.300781 21.667969 18.890625 19.902344 Z M 18.890625 19.902344 "/>
</g>
</svg>
