
<svg xmlns="http://www.w3.org/2000/svg" xmlns:xlink="http://www.w3.org/1999/xlink" width="32px" height="32px" viewBox="0 0 32 32" version="1.1">
<g id="surface1">
<path style="fill-rule:nonzero;fill:rgb(98.431373%,94.901961%,94.901961%);fill-opacity:1;stroke-width:27.285545;stroke-linecap:butt;stroke-linejoin:miter;stroke:rgb(60.000002%,60.000002%,60.000002%);stroke-opacity:1;stroke-miterlimit:4;" d="M 63.4375 20.5625 L 448.5625 20.5625 C 469.3125 20.5625 486.0625 37.375 486.0625 58.0625 L 486.0625 453.9375 C 486.0625 474.625 469.3125 491.4375 448.5625 491.4375 L 63.4375 491.4375 C 42.6875 491.4375 25.9375 474.625 25.9375 453.9375 L 25.9375 58.0625 C 25.9375 37.375 42.6875 20.5625 63.4375 20.5625 Z M 63.4375 20.5625 " transform="matrix(0.0625,0,0,0.0625,0,0)"/>
<path style=" stroke:none;fill-rule:nonzero;fill:rgb(60.000002%,60.000002%,60.000002%);fill-opacity:1;" d="M 21.960938 11.386719 C 21.960938 7.214844 19.292969 3.828125 16 3.828125 C 12.707031 3.828125 10.035156 7.214844 10.035156 11.386719 C 10.035156 15.558594 12.707031 18.941406 16 18.941406 C 19.292969 18.941406 21.960938 15.558594 21.960938 11.386719 Z M 21.960938 11.386719 "/>
<path style=" stroke:none;fill-rule:nonzero;fill:rgb(60.000002%,60.000002%,60.000002%);fill-opacity:1;" d="M 21.222656 18.109375 C 20.175781 20.527344 18.175781 22.03125 15.996094 22.03125 C 13.824219 22.027344 11.824219 20.527344 10.78125 18.113281 C 6.140625 19.714844 3.066406 23.300781 2.875 27.328125 L 29.117188 27.328125 C 28.929688 23.300781 25.859375 19.714844 21.222656 18.109375 Z M 21.222656 18.109375 "/>
</g>
</svg>
