
<svg xmlns="http://www.w3.org/2000/svg" xmlns:xlink="http://www.w3.org/1999/xlink" width="32px" height="32px" viewBox="0 0 32 32" version="1.1">
<g id="surface1">
<path style="fill-rule:nonzero;fill:rgb(83.137256%,10.196079%,10.196079%);fill-opacity:1;stroke-width:28.191782;stroke-linecap:butt;stroke-linejoin:miter;stroke:rgb(38.431373%,5.490196%,5.490196%);stroke-opacity:1;stroke-miterlimit:4;" d="M 81.5 25.0625 L 430.5 25.0625 C 461.6875 25.0625 486.9375 50.3125 486.9375 81.5 L 486.9375 430.5 C 486.9375 461.6875 461.6875 486.9375 430.5 486.9375 L 81.5 486.9375 C 50.3125 486.9375 25.0625 461.6875 25.0625 430.5 L 25.0625 81.5 C 25.0625 50.3125 50.3125 25.0625 81.5 25.0625 Z M 81.5 25.0625 " transform="matrix(0.0625,0,0,0.0625,0,0)"/>
<path style=" stroke:none;fill-rule:evenodd;fill:rgb(100%,100%,100%);fill-opacity:1;" d="M 15.75 7.761719 C 13.417969 7.761719 11.535156 9.605469 11.535156 11.898438 L 11.535156 14.863281 L 10.574219 14.863281 L 10.574219 24.238281 L 21.425781 24.238281 L 21.425781 14.863281 L 20.535156 14.863281 L 20.535156 11.898438 C 20.535156 9.605469 18.65625 7.761719 16.324219 7.761719 Z M 15.902344 9.574219 L 16.246094 9.574219 C 17.667969 9.574219 18.804688 10.957031 18.808594 12.675781 L 18.8125 14.863281 L 13.34375 14.863281 L 13.339844 12.675781 C 13.339844 10.957031 14.480469 9.574219 15.902344 9.574219 Z M 16.136719 17.277344 C 16.800781 17.304688 17.332031 17.839844 17.332031 18.496094 C 17.332031 18.929688 17.09375 19.332031 16.707031 19.546875 L 17.050781 20.894531 C 16.800781 20.992188 16.535156 21.046875 16.257812 21.046875 L 15.910156 21.046875 C 15.632812 21.046875 15.367188 20.992188 15.117188 20.894531 L 15.453125 19.539062 C 15.078125 19.320312 14.847656 18.921875 14.847656 18.496094 C 14.847656 17.851562 15.355469 17.320312 16.011719 17.277344 Z M 16.136719 17.277344 "/>
</g>
</svg>
