
<svg xmlns="http://www.w3.org/2000/svg" xmlns:xlink="http://www.w3.org/1999/xlink" width="32px" height="32px" viewBox="0 0 32 32" version="1.1">
<g id="surface1">
<path style="fill-rule:nonzero;fill:rgb(5.490196%,39.607844%,66.666669%);fill-opacity:1;stroke-width:6.998944;stroke-linecap:butt;stroke-linejoin:miter;stroke:rgb(6.666667%,20.392157%,31.37255%);stroke-opacity:1;stroke-miterlimit:4;" d="M 20.671875 6.671875 L 107.328125 6.671875 C 115.0625 6.671875 121.328125 12.9375 121.328125 20.671875 L 121.328125 107.328125 C 121.328125 115.0625 115.0625 121.328125 107.328125 121.328125 L 20.671875 121.328125 C 12.9375 121.328125 6.671875 115.0625 6.671875 107.328125 L 6.671875 20.671875 C 6.671875 12.9375 12.9375 6.671875 20.671875 6.671875 Z M 20.671875 6.671875 " transform="matrix(0.25,0,0,0.25,0,0)"/>
<path style=" stroke:none;fill-rule:nonzero;fill:rgb(100%,100%,100%);fill-opacity:1;" d="M 28.652344 14.851562 C 29.214844 30.414062 9.65625 27.953125 9.746094 19.859375 L 5.746094 19.859375 L 11.96875 13.386719 L 18.492188 19.859375 C 18.492188 19.859375 14.371094 19.859375 14.371094 19.859375 C 14.121094 25.328125 28.539062 26.925781 28.652344 14.851562 Z M 28.652344 14.851562 "/>
<path style=" stroke:none;fill-rule:nonzero;fill:rgb(100%,100%,100%);fill-opacity:1;" d="M 3.285156 17.148438 C 2.722656 1.585938 22.339844 4.046875 22.25 12.140625 L 26.25 12.140625 L 20.027344 18.613281 L 13.503906 12.140625 C 13.503906 12.140625 17.625 12.140625 17.625 12.140625 C 17.875 6.671875 3.398438 5.074219 3.285156 17.148438 Z M 3.285156 17.148438 "/>
</g>
</svg>
