<!-- color: #5b92d9 -->
<svg xmlns="http://www.w3.org/2000/svg" xmlns:xlink="http://www.w3.org/1999/xlink" width="32px" height="32px" viewBox="0 0 32 32" version="1.1">
<defs>
<clipPath id="clip1">
  <path d="M 6.125 6.4375 L 25.6875 6.4375 L 25.6875 25.9375 L 6.125 25.9375 Z M 6.125 6.4375 "/>
</clipPath>
<clipPath id="clip2">
  <path d="M 30.839844 16.199219 C 30.839844 24.445312 24.148438 31.125 15.910156 31.125 C 7.667969 31.125 0.980469 24.445312 0.980469 16.199219 C 0.980469 7.949219 7.667969 1.269531 15.910156 1.269531 C 24.148438 1.269531 30.839844 7.949219 30.839844 16.199219 Z M 30.839844 16.199219 "/>
</clipPath>
<clipPath id="clip3">
  <path d="M 8.0625 12.9375 L 23.75 12.9375 L 23.75 19.5 L 8.0625 19.5 Z M 8.0625 12.9375 "/>
</clipPath>
<clipPath id="clip4">
  <path d="M 30.839844 16.199219 C 30.839844 24.445312 24.148438 31.125 15.910156 31.125 C 7.667969 31.125 0.980469 24.445312 0.980469 16.199219 C 0.980469 7.949219 7.667969 1.269531 15.910156 1.269531 C 24.148438 1.269531 30.839844 7.949219 30.839844 16.199219 Z M 30.839844 16.199219 "/>
</clipPath>
</defs>
<g id="surface1">
<path style="fill-rule:nonzero;fill:rgb(21.568628%,44.313726%,78.431374%);fill-opacity:1;stroke-width:6.815335;stroke-linecap:butt;stroke-linejoin:miter;stroke:rgb(29.019609%,68.235296%,90.980393%);stroke-opacity:1;stroke-miterlimit:4;" d="M 21.8125 8.171875 L 106.1875 8.171875 C 113.71875 8.171875 119.828125 14.28125 119.828125 21.8125 L 119.828125 106.1875 C 119.828125 113.71875 113.71875 119.828125 106.1875 119.828125 L 21.8125 119.828125 C 14.28125 119.828125 8.171875 113.71875 8.171875 106.1875 L 8.171875 21.8125 C 8.171875 14.28125 14.28125 8.171875 21.8125 8.171875 Z M 21.8125 8.171875 " transform="matrix(0.25,0,0,0.25,0,0)"/>
<g clip-path="url(#clip1)" clip-rule="nonzero">
<g clip-path="url(#clip2)" clip-rule="nonzero">
<path style=" stroke:none;fill-rule:nonzero;fill:rgb(97.647059%,97.647059%,97.647059%);fill-opacity:1;" d="M 15.910156 6.460938 C 10.527344 6.460938 6.171875 10.816406 6.171875 16.199219 C 6.171875 21.578125 10.527344 25.929688 15.910156 25.929688 C 21.289062 25.929688 25.644531 21.578125 25.644531 16.199219 C 25.644531 10.816406 21.289062 6.460938 15.910156 6.460938 M 15.910156 6.460938 "/>
</g>
</g>
<g clip-path="url(#clip3)" clip-rule="nonzero">
<g clip-path="url(#clip4)" clip-rule="nonzero">
<path style=" stroke:none;fill-rule:nonzero;fill:rgb(29.019609%,52.549022%,83.92157%);fill-opacity:1;" d="M 13.3125 12.949219 L 13.3125 14.898438 L 18.503906 14.898438 L 18.503906 12.949219 L 21.027344 14.574219 L 23.699219 16.199219 L 21.027344 17.824219 L 18.503906 19.445312 L 18.503906 17.496094 L 13.3125 17.496094 L 13.3125 19.445312 L 10.789062 17.824219 L 8.117188 16.199219 L 10.789062 14.574219 M 13.3125 12.949219 "/>
</g>
</g>
</g>
</svg>
