
<svg xmlns="http://www.w3.org/2000/svg" xmlns:xlink="http://www.w3.org/1999/xlink" width="32px" height="32px" viewBox="0 0 32 32" version="1.1">
<g id="surface1">
<path style="fill-rule:nonzero;fill:rgb(29.019609%,68.235296%,90.980393%);fill-opacity:1;stroke-width:27.209011;stroke-linecap:butt;stroke-linejoin:miter;stroke:rgb(65.098041%,84.705883%,98.039216%);stroke-opacity:1;stroke-miterlimit:4;" d="M 87.5625 33.125 L 424.4375 33.125 C 454.5 33.125 478.875 57.5 478.875 87.5625 L 478.875 424.4375 C 478.875 454.5 454.5 478.875 424.4375 478.875 L 87.5625 478.875 C 57.5 478.875 33.125 454.5 33.125 424.4375 L 33.125 87.5625 C 33.125 57.5 57.5 33.125 87.5625 33.125 Z M 87.5625 33.125 " transform="matrix(0.0625,0,0,0.0625,0,0)"/>
<path style=" stroke:none;fill-rule:nonzero;fill:rgb(100%,100%,100%);fill-opacity:1;" d="M 16.472656 22.660156 C 16.316406 22.503906 15.773438 21.554688 15.261719 20.546875 C 14.75 19.542969 14.230469 18.570312 14.101562 18.390625 C 13.957031 18.183594 13.144531 17.695312 11.917969 17.078125 C 9.707031 15.964844 9.410156 15.730469 9.472656 15.113281 C 9.527344 14.550781 9.75 14.433594 12.855469 13.355469 C 14.277344 12.859375 16.570312 12.0625 17.949219 11.582031 C 19.332031 11.105469 20.613281 10.710938 20.800781 10.710938 C 21.191406 10.710938 21.558594 11.054688 21.558594 11.425781 C 21.558594 11.5625 21.097656 13.003906 20.535156 14.628906 C 19.972656 16.253906 19.324219 18.121094 19.097656 18.78125 C 18.332031 21.011719 17.746094 22.503906 17.550781 22.722656 C 17.285156 23.027344 16.808594 23 16.472656 22.660156 Z M 16.472656 22.660156 "/>
</g>
</svg>
