
<svg xmlns="http://www.w3.org/2000/svg" xmlns:xlink="http://www.w3.org/1999/xlink" width="32px" height="32px" viewBox="0 0 32 32" version="1.1">
<g id="surface1">
<path style=" stroke:none;fill-rule:nonzero;fill:rgb(20%,20%,20%);fill-opacity:1;" d="M 23.871094 4.277344 L 24.238281 4.277344 C 24.351562 4.277344 24.445312 4.300781 24.445312 4.332031 L 24.445312 6.628906 C 24.445312 6.65625 24.351562 6.683594 24.238281 6.683594 L 23.871094 6.683594 C 23.753906 6.683594 23.664062 6.65625 23.664062 6.628906 L 23.664062 4.332031 C 23.664062 4.300781 23.753906 4.277344 23.871094 4.277344 Z M 23.871094 4.277344 "/>
<path style=" stroke:none;fill-rule:nonzero;fill:rgb(20%,20%,20%);fill-opacity:1;" d="M 7.746094 6.910156 L 8.113281 6.910156 C 8.226562 6.910156 8.320312 6.988281 8.320312 7.082031 L 8.320312 14.378906 C 8.320312 14.472656 8.226562 14.550781 8.113281 14.550781 L 7.746094 14.550781 C 7.628906 14.550781 7.539062 14.472656 7.539062 14.378906 L 7.539062 7.082031 C 7.539062 6.988281 7.628906 6.910156 7.746094 6.910156 Z M 7.746094 6.910156 "/>
<path style=" stroke:none;fill-rule:nonzero;fill:rgb(20%,20%,20%);fill-opacity:1;" d="M 9.347656 1.722656 L 22.652344 1.722656 C 23.5 1.722656 24.191406 2.460938 24.191406 3.371094 L 24.191406 28.628906 C 24.191406 29.539062 23.5 30.277344 22.652344 30.277344 L 9.347656 30.277344 C 8.5 30.277344 7.808594 29.539062 7.808594 28.628906 L 7.808594 3.371094 C 7.808594 2.460938 8.5 1.722656 9.347656 1.722656 Z M 9.347656 1.722656 "/>
<path style=" stroke:none;fill-rule:nonzero;fill:rgb(70.19608%,70.19608%,70.19608%);fill-opacity:1;" d="M 9.410156 1.855469 L 22.589844 1.855469 C 23.433594 1.855469 24.113281 2.582031 24.113281 3.484375 L 24.113281 28.515625 C 24.113281 29.417969 23.433594 30.144531 22.589844 30.144531 L 9.410156 30.144531 C 8.566406 30.144531 7.886719 29.417969 7.886719 28.515625 L 7.886719 3.484375 C 7.886719 2.582031 8.566406 1.855469 9.410156 1.855469 Z M 9.410156 1.855469 "/>
<path style=" stroke:none;fill-rule:nonzero;fill:rgb(100%,100%,100%);fill-opacity:1;" d="M 9.726562 2.164062 L 22.273438 2.164062 C 23.074219 2.164062 23.726562 2.878906 23.726562 3.757812 L 23.726562 28.242188 C 23.726562 29.121094 23.074219 29.835938 22.273438 29.835938 L 9.726562 29.835938 C 8.925781 29.835938 8.273438 29.121094 8.273438 28.242188 L 8.273438 3.757812 C 8.273438 2.878906 8.925781 2.164062 9.726562 2.164062 Z M 9.726562 2.164062 "/>
<path style=" stroke:none;fill-rule:nonzero;fill:rgb(0%,0%,0%);fill-opacity:1;" d="M 9.621094 6.253906 L 22.378906 6.253906 L 22.378906 26.835938 L 9.621094 26.835938 Z M 9.621094 6.253906 "/>
<path style=" stroke:none;fill-rule:nonzero;fill:rgb(50.196081%,50.196081%,50.196081%);fill-opacity:1;" d="M 13.132812 3.558594 L 18.867188 3.558594 C 19.027344 3.558594 19.152344 3.6875 19.152344 3.847656 L 19.152344 3.902344 C 19.152344 4.058594 19.027344 4.1875 18.867188 4.1875 L 13.132812 4.1875 C 12.972656 4.1875 12.847656 4.058594 12.847656 3.902344 L 12.847656 3.847656 C 12.847656 3.6875 12.972656 3.558594 13.132812 3.558594 Z M 13.132812 3.558594 "/>
<path style=" stroke:none;fill-rule:nonzero;fill:rgb(10.196079%,10.196079%,10.196079%);fill-opacity:1;" d="M 18.269531 3.875 C 18.269531 3.957031 18.199219 4.027344 18.117188 4.027344 C 18.035156 4.027344 17.964844 3.957031 17.964844 3.875 C 17.964844 3.789062 18.035156 3.722656 18.117188 3.722656 C 18.199219 3.722656 18.269531 3.789062 18.269531 3.875 Z M 18.269531 3.875 "/>
<path style=" stroke:none;fill-rule:nonzero;fill:rgb(10.196079%,10.196079%,10.196079%);fill-opacity:1;" d="M 17.738281 3.875 C 17.738281 3.957031 17.671875 4.027344 17.589844 4.027344 C 17.503906 4.027344 17.433594 3.957031 17.433594 3.875 C 17.433594 3.789062 17.503906 3.722656 17.589844 3.722656 C 17.671875 3.722656 17.738281 3.789062 17.738281 3.875 Z M 17.738281 3.875 "/>
<path style=" stroke:none;fill-rule:nonzero;fill:rgb(10.196079%,10.196079%,10.196079%);fill-opacity:1;" d="M 17.210938 3.875 C 17.210938 3.957031 17.144531 4.027344 17.058594 4.027344 C 16.972656 4.027344 16.90625 3.957031 16.90625 3.875 C 16.90625 3.789062 16.972656 3.722656 17.058594 3.722656 C 17.144531 3.722656 17.210938 3.789062 17.210938 3.875 Z M 17.210938 3.875 "/>
<path style=" stroke:none;fill-rule:nonzero;fill:rgb(10.196079%,10.196079%,10.196079%);fill-opacity:1;" d="M 16.683594 3.875 C 16.683594 3.957031 16.613281 4.027344 16.527344 4.027344 C 16.445312 4.027344 16.378906 3.957031 16.378906 3.875 C 16.378906 3.789062 16.445312 3.722656 16.527344 3.722656 C 16.613281 3.722656 16.683594 3.789062 16.683594 3.875 Z M 16.683594 3.875 "/>
<path style=" stroke:none;fill-rule:nonzero;fill:rgb(10.196079%,10.196079%,10.196079%);fill-opacity:1;" d="M 16.152344 3.875 C 16.152344 3.957031 16.082031 4.027344 16 4.027344 C 15.917969 4.027344 15.847656 3.957031 15.847656 3.875 C 15.847656 3.789062 15.917969 3.722656 16 3.722656 C 16.082031 3.722656 16.152344 3.789062 16.152344 3.875 Z M 16.152344 3.875 "/>
<path style=" stroke:none;fill-rule:nonzero;fill:rgb(10.196079%,10.196079%,10.196079%);fill-opacity:1;" d="M 15.621094 3.875 C 15.621094 3.957031 15.554688 4.027344 15.472656 4.027344 C 15.386719 4.027344 15.316406 3.957031 15.316406 3.875 C 15.316406 3.789062 15.386719 3.722656 15.472656 3.722656 C 15.554688 3.722656 15.621094 3.789062 15.621094 3.875 Z M 15.621094 3.875 "/>
<path style=" stroke:none;fill-rule:nonzero;fill:rgb(10.196079%,10.196079%,10.196079%);fill-opacity:1;" d="M 15.09375 3.875 C 15.09375 3.957031 15.027344 4.027344 14.941406 4.027344 C 14.855469 4.027344 14.789062 3.957031 14.789062 3.875 C 14.789062 3.789062 14.855469 3.722656 14.941406 3.722656 C 15.027344 3.722656 15.09375 3.789062 15.09375 3.875 Z M 15.09375 3.875 "/>
<path style=" stroke:none;fill-rule:nonzero;fill:rgb(10.196079%,10.196079%,10.196079%);fill-opacity:1;" d="M 14.566406 3.875 C 14.566406 3.957031 14.496094 4.027344 14.410156 4.027344 C 14.328125 4.027344 14.261719 3.957031 14.261719 3.875 C 14.261719 3.789062 14.328125 3.722656 14.410156 3.722656 C 14.496094 3.722656 14.566406 3.789062 14.566406 3.875 Z M 14.566406 3.875 "/>
<path style=" stroke:none;fill-rule:nonzero;fill:rgb(10.196079%,10.196079%,10.196079%);fill-opacity:1;" d="M 14.035156 3.875 C 14.035156 3.957031 13.964844 4.027344 13.882812 4.027344 C 13.800781 4.027344 13.730469 3.957031 13.730469 3.875 C 13.730469 3.789062 13.800781 3.722656 13.882812 3.722656 C 13.964844 3.722656 14.035156 3.789062 14.035156 3.875 Z M 14.035156 3.875 "/>
<path style=" stroke:none;fill-rule:nonzero;fill:rgb(10.196079%,10.196079%,10.196079%);fill-opacity:1;" d="M 13.503906 3.875 C 13.503906 3.957031 13.4375 4.027344 13.355469 4.027344 C 13.269531 4.027344 13.199219 3.957031 13.199219 3.875 C 13.199219 3.789062 13.269531 3.722656 13.355469 3.722656 C 13.4375 3.722656 13.503906 3.789062 13.503906 3.875 Z M 13.503906 3.875 "/>
<path style=" stroke:none;fill-rule:nonzero;fill:rgb(10.196079%,10.196079%,10.196079%);fill-opacity:1;" d="M 18.800781 3.875 C 18.800781 3.957031 18.730469 4.027344 18.644531 4.027344 C 18.5625 4.027344 18.496094 3.957031 18.496094 3.875 C 18.496094 3.789062 18.5625 3.722656 18.644531 3.722656 C 18.730469 3.722656 18.800781 3.789062 18.800781 3.875 Z M 18.800781 3.875 "/>
<path style=" stroke:none;fill-rule:nonzero;fill:rgb(40.000001%,40.000001%,40.000001%);fill-opacity:1;" d="M 20.175781 3.859375 C 20.175781 4.035156 20.035156 4.171875 19.863281 4.171875 C 19.691406 4.171875 19.550781 4.035156 19.550781 3.859375 C 19.550781 3.6875 19.691406 3.546875 19.863281 3.546875 C 20.035156 3.546875 20.175781 3.6875 20.175781 3.859375 Z M 20.175781 3.859375 "/>
<path style=" stroke:none;fill-rule:nonzero;fill:rgb(40.000001%,40.000001%,40.000001%);fill-opacity:1;" d="M 20.175781 3.859375 C 20.175781 4.035156 20.035156 4.171875 19.863281 4.171875 C 19.691406 4.171875 19.550781 4.035156 19.550781 3.859375 C 19.550781 3.6875 19.691406 3.546875 19.863281 3.546875 C 20.035156 3.546875 20.175781 3.6875 20.175781 3.859375 Z M 20.175781 3.859375 "/>
<path style=" stroke:none;fill-rule:nonzero;fill:rgb(80.000001%,80.000001%,80.000001%);fill-opacity:1;" d="M 20.085938 3.859375 C 20.085938 3.980469 19.984375 4.082031 19.863281 4.082031 C 19.742188 4.082031 19.644531 3.980469 19.644531 3.859375 C 19.644531 3.738281 19.742188 3.636719 19.863281 3.636719 C 19.984375 3.636719 20.085938 3.738281 20.085938 3.859375 Z M 20.085938 3.859375 "/>
<path style=" stroke:none;fill-rule:nonzero;fill:rgb(100%,100%,100%);fill-opacity:1;" d="M 19.878906 3.800781 C 19.878906 3.839844 19.84375 3.871094 19.804688 3.871094 C 19.761719 3.871094 19.730469 3.839844 19.730469 3.800781 C 19.730469 3.757812 19.761719 3.726562 19.804688 3.726562 C 19.84375 3.726562 19.878906 3.757812 19.878906 3.800781 Z M 19.878906 3.800781 "/>
<path style=" stroke:none;fill-rule:nonzero;fill:rgb(40.000001%,40.000001%,40.000001%);fill-opacity:1;" d="M 21.050781 3.859375 C 21.050781 4.035156 20.910156 4.171875 20.738281 4.171875 C 20.566406 4.171875 20.425781 4.035156 20.425781 3.859375 C 20.425781 3.6875 20.566406 3.546875 20.738281 3.546875 C 20.910156 3.546875 21.050781 3.6875 21.050781 3.859375 Z M 21.050781 3.859375 "/>
<path style=" stroke:none;fill-rule:nonzero;fill:rgb(40.000001%,40.000001%,40.000001%);fill-opacity:1;" d="M 21.050781 3.859375 C 21.050781 4.035156 20.910156 4.171875 20.738281 4.171875 C 20.566406 4.171875 20.425781 4.035156 20.425781 3.859375 C 20.425781 3.6875 20.566406 3.546875 20.738281 3.546875 C 20.910156 3.546875 21.050781 3.6875 21.050781 3.859375 Z M 21.050781 3.859375 "/>
<path style=" stroke:none;fill-rule:nonzero;fill:rgb(80.000001%,80.000001%,80.000001%);fill-opacity:1;" d="M 20.960938 3.859375 C 20.960938 3.980469 20.859375 4.082031 20.738281 4.082031 C 20.617188 4.082031 20.519531 3.980469 20.519531 3.859375 C 20.519531 3.738281 20.617188 3.636719 20.738281 3.636719 C 20.859375 3.636719 20.960938 3.738281 20.960938 3.859375 Z M 20.960938 3.859375 "/>
<path style=" stroke:none;fill-rule:nonzero;fill:rgb(100%,100%,100%);fill-opacity:1;" d="M 20.753906 3.800781 C 20.753906 3.839844 20.71875 3.871094 20.679688 3.871094 C 20.636719 3.871094 20.605469 3.839844 20.605469 3.800781 C 20.605469 3.757812 20.636719 3.726562 20.679688 3.726562 C 20.71875 3.726562 20.753906 3.757812 20.753906 3.800781 Z M 20.753906 3.800781 "/>
<path style=" stroke:none;fill-rule:nonzero;fill:rgb(40.000001%,40.000001%,40.000001%);fill-opacity:1;" d="M 22.851562 4.210938 C 22.851562 4.59375 22.542969 4.902344 22.160156 4.902344 C 21.777344 4.902344 21.46875 4.59375 21.46875 4.210938 C 21.46875 3.832031 21.777344 3.519531 22.160156 3.519531 C 22.542969 3.519531 22.851562 3.832031 22.851562 4.210938 Z M 22.851562 4.210938 "/>
<path style=" stroke:none;fill-rule:nonzero;fill:rgb(40.000001%,40.000001%,40.000001%);fill-opacity:1;" d="M 22.851562 4.210938 C 22.851562 4.59375 22.542969 4.902344 22.160156 4.902344 C 21.777344 4.902344 21.46875 4.59375 21.46875 4.210938 C 21.46875 3.832031 21.777344 3.519531 22.160156 3.519531 C 22.542969 3.519531 22.851562 3.832031 22.851562 4.210938 Z M 22.851562 4.210938 "/>
<path style=" stroke:none;fill-rule:nonzero;fill:rgb(80.000001%,80.000001%,80.000001%);fill-opacity:1;" d="M 22.648438 4.210938 C 22.648438 4.480469 22.429688 4.699219 22.160156 4.699219 C 21.890625 4.699219 21.671875 4.480469 21.671875 4.210938 C 21.671875 3.941406 21.890625 3.722656 22.160156 3.722656 C 22.429688 3.722656 22.648438 3.941406 22.648438 4.210938 Z M 22.648438 4.210938 "/>
<path style=" stroke:none;fill-rule:nonzero;fill:rgb(100%,100%,100%);fill-opacity:1;" d="M 22.191406 4.082031 C 22.191406 4.167969 22.117188 4.242188 22.027344 4.242188 C 21.9375 4.242188 21.863281 4.167969 21.863281 4.082031 C 21.863281 3.988281 21.9375 3.917969 22.027344 3.917969 C 22.117188 3.917969 22.191406 3.988281 22.191406 4.082031 Z M 22.191406 4.082031 "/>
<path style=" stroke:none;fill-rule:nonzero;fill:rgb(30.19608%,30.19608%,30.19608%);fill-opacity:1;" d="M 13.691406 27.433594 L 18.625 27.433594 C 18.828125 27.433594 18.992188 27.660156 18.992188 27.933594 L 18.992188 28.476562 C 18.992188 28.753906 18.828125 28.972656 18.625 28.972656 L 13.691406 28.972656 C 13.488281 28.972656 13.324219 28.753906 13.324219 28.476562 L 13.324219 27.933594 C 13.324219 27.660156 13.488281 27.433594 13.691406 27.433594 Z M 13.691406 27.433594 "/>
<path style=" stroke:none;fill-rule:nonzero;fill:rgb(60.000002%,60.000002%,60.000002%);fill-opacity:1;" d="M 13.789062 27.527344 L 18.527344 27.527344 C 18.722656 27.527344 18.878906 27.722656 18.878906 27.964844 L 18.878906 28.445312 C 18.878906 28.683594 18.722656 28.882812 18.527344 28.882812 L 13.789062 28.882812 C 13.59375 28.882812 13.433594 28.683594 13.433594 28.445312 L 13.433594 27.964844 C 13.433594 27.722656 13.59375 27.527344 13.789062 27.527344 Z M 13.789062 27.527344 "/>
<path style=" stroke:none;fill-rule:nonzero;fill:rgb(92.54902%,92.54902%,92.54902%);fill-opacity:1;" d="M 13.886719 27.675781 L 18.433594 27.675781 C 18.621094 27.675781 18.769531 27.828125 18.769531 28.019531 L 18.769531 28.394531 C 18.769531 28.582031 18.621094 28.734375 18.433594 28.734375 L 13.886719 28.734375 C 13.699219 28.734375 13.546875 28.582031 13.546875 28.394531 L 13.546875 28.019531 C 13.546875 27.828125 13.699219 27.675781 13.886719 27.675781 Z M 13.886719 27.675781 "/>
<path style=" stroke:none;fill-rule:nonzero;fill:rgb(0%,47.058824%,67.058825%);fill-opacity:1;" d="M 9.828125 6.433594 L 22.171875 6.433594 L 22.171875 26.65625 L 9.828125 26.65625 Z M 9.828125 6.433594 "/>
</g>
</svg>
