
<svg xmlns="http://www.w3.org/2000/svg" xmlns:xlink="http://www.w3.org/1999/xlink" width="32px" height="32px" viewBox="0 0 32 32" version="1.1">
<g id="surface1">
<path style="fill-rule:nonzero;fill:rgb(20%,20%,20%);fill-opacity:1;stroke-width:27.910587;stroke-linecap:butt;stroke-linejoin:miter;stroke:rgb(20%,20%,20%);stroke-opacity:1;stroke-miterlimit:4;" d="M -493.897217 -81.037069 L -148.272217 -81.037069 C -117.459717 -81.037069 -92.522217 -56.099569 -92.522217 -25.287069 L -92.522217 320.337931 C -92.522217 351.150431 -117.459717 376.087931 -148.272217 376.087931 L -493.897217 376.087931 C -524.709717 376.087931 -549.647217 351.150431 -549.647217 320.337931 L -549.647217 -25.287069 C -549.647217 -56.099569 -524.709717 -81.037069 -493.897217 -81.037069 Z M -493.897217 -81.037069 " transform="matrix(0.0625,0,0,0.0625,36.067795,6.779661)"/>
<path style=" stroke:none;fill-rule:nonzero;fill:rgb(95.294118%,87.058824%,77.254903%);fill-opacity:1;" d="M 5.917969 2.660156 L 26.082031 2.660156 C 27.878906 2.660156 29.339844 4.121094 29.339844 5.917969 L 29.339844 26.082031 C 29.339844 27.878906 27.878906 29.339844 26.082031 29.339844 L 5.917969 29.339844 C 4.121094 29.339844 2.660156 27.878906 2.660156 26.082031 L 2.660156 5.917969 C 2.660156 4.121094 4.121094 2.660156 5.917969 2.660156 Z M 5.917969 2.660156 "/>
<path style=" stroke:none;fill-rule:nonzero;fill:rgb(81.176472%,61.176473%,40.784314%);fill-opacity:1;" d="M 2.660156 6.617188 L 29.074219 6.617188 L 29.074219 6.847656 L 2.660156 6.847656 Z M 2.660156 6.617188 "/>
<path style=" stroke:none;fill-rule:nonzero;fill:rgb(81.176472%,61.176473%,40.784314%);fill-opacity:1;" d="M 2.660156 10.699219 L 29.074219 10.699219 L 29.074219 10.925781 L 2.660156 10.925781 Z M 2.660156 10.699219 "/>
<path style=" stroke:none;fill-rule:nonzero;fill:rgb(81.176472%,61.176473%,40.784314%);fill-opacity:1;" d="M 2.660156 14.777344 L 29.074219 14.777344 L 29.074219 15.003906 L 2.660156 15.003906 Z M 2.660156 14.777344 "/>
<path style=" stroke:none;fill-rule:nonzero;fill:rgb(81.176472%,61.176473%,40.784314%);fill-opacity:1;" d="M 2.660156 18.855469 L 29.074219 18.855469 L 29.074219 19.085938 L 2.660156 19.085938 Z M 2.660156 18.855469 "/>
<path style=" stroke:none;fill-rule:nonzero;fill:rgb(81.176472%,61.176473%,40.784314%);fill-opacity:1;" d="M 2.660156 22.9375 L 29.074219 22.9375 L 29.074219 23.164062 L 2.660156 23.164062 Z M 2.660156 22.9375 "/>
<path style=" stroke:none;fill-rule:nonzero;fill:rgb(90.196079%,49.803922%,45.09804%);fill-opacity:1;" d="M 8.683594 29.339844 L 8.683594 2.660156 L 9.070312 2.660156 L 9.070312 29.339844 Z M 8.683594 29.339844 "/>
<path style=" stroke:none;fill-rule:nonzero;fill:rgb(7.843138%,9.019608%,9.019608%);fill-opacity:1;" d="M 12.464844 11.167969 L 4.449219 11.167969 L 4.214844 14.082031 L 4.464844 14.082031 C 4.644531 11.902344 4.839844 11.519531 6.992188 11.519531 C 7.242188 11.519531 7.648438 11.519531 7.757812 11.519531 C 8.023438 11.558594 8.023438 11.71875 8.023438 12.019531 L 8.023438 19.195312 C 8.023438 19.671875 7.980469 19.816406 6.8125 19.816406 L 6.417969 19.816406 L 6.417969 20.136719 C 7.085938 20.121094 7.777344 20.109375 8.457031 20.109375 C 9.136719 20.109375 9.832031 20.121094 10.5 20.136719 L 10.5 19.816406 L 10.113281 19.816406 C 8.960938 19.816406 8.917969 19.671875 8.917969 19.195312 L 8.917969 12.019531 C 8.917969 11.730469 8.917969 11.574219 9.167969 11.519531 L 9.929688 11.519531 C 12.050781 11.519531 12.261719 11.898438 12.441406 14.082031 L 12.691406 14.082031 "/>
<path style=" stroke:none;fill-rule:nonzero;fill:rgb(7.843138%,9.019608%,9.019608%);fill-opacity:1;" d="M 19.425781 19.675781 L 19.175781 19.675781 C 18.871094 21.628906 18.691406 22.691406 16.25 22.691406 L 14.324219 22.691406 C 13.769531 22.691406 13.746094 22.625 13.746094 22.171875 L 13.746094 18.488281 L 15.054688 18.488281 C 16.363281 18.488281 16.488281 18.941406 16.488281 20.058594 L 16.710938 20.058594 L 16.710938 16.628906 L 16.488281 16.628906 C 16.488281 17.722656 16.363281 18.167969 15.054688 18.167969 L 13.746094 18.167969 L 13.746094 14.902344 C 13.746094 14.457031 13.769531 14.390625 14.324219 14.390625 L 16.222656 14.390625 C 18.371094 14.390625 18.621094 15.199219 18.816406 16.941406 L 19.066406 16.941406 L 18.730469 14.027344 L 11.707031 14.027344 L 11.707031 14.390625 C 12.6875 14.390625 12.847656 14.390625 12.847656 14.984375 L 12.847656 22.097656 C 12.847656 22.6875 12.691406 22.6875 11.707031 22.6875 L 11.707031 23.003906 L 18.925781 23.003906 "/>
<path style=" stroke:none;fill-rule:nonzero;fill:rgb(7.843138%,9.019608%,9.019608%);fill-opacity:1;" d="M 23.167969 15.148438 L 25.21875 12.328125 C 25.425781 12.050781 25.839844 11.480469 26.980469 11.46875 L 26.980469 11.148438 C 26.664062 11.175781 26.136719 11.175781 25.800781 11.175781 C 25.347656 11.175781 24.777344 11.175781 24.429688 11.148438 L 24.429688 11.46875 C 24.875 11.507812 24.984375 11.769531 24.984375 11.984375 C 24.984375 12.140625 24.917969 12.246094 24.816406 12.378906 L 22.988281 14.902344 L 20.933594 12.046875 C 20.835938 11.902344 20.824219 11.863281 20.824219 11.824219 C 20.824219 11.707031 20.972656 11.480469 21.433594 11.46875 L 21.433594 11.148438 C 20.988281 11.175781 20.3125 11.175781 19.855469 11.175781 C 19.496094 11.175781 18.800781 11.175781 18.464844 11.148438 L 18.464844 11.46875 C 19.230469 11.46875 19.476562 11.496094 19.785156 11.902344 L 22.460938 15.636719 L 20.046875 18.988281 C 19.449219 19.808594 18.550781 19.820312 18.285156 19.820312 L 18.285156 20.136719 C 18.601562 20.113281 19.128906 20.113281 19.464844 20.113281 C 19.835938 20.113281 20.488281 20.113281 20.835938 20.136719 L 20.835938 19.820312 C 20.40625 19.78125 20.28125 19.519531 20.28125 19.304688 C 20.28125 19.136719 20.347656 19.042969 20.417969 18.949219 L 22.636719 15.871094 L 25.050781 19.238281 C 25.160156 19.386719 25.160156 19.425781 25.160156 19.464844 C 25.160156 19.570312 25.035156 19.796875 24.550781 19.824219 L 24.550781 20.140625 C 24.996094 20.117188 25.675781 20.117188 26.128906 20.117188 C 26.488281 20.117188 27.183594 20.117188 27.519531 20.140625 L 27.519531 19.824219 C 26.632812 19.824219 26.492188 19.757812 26.214844 19.386719 "/>
<path style=" stroke:none;fill-rule:nonzero;fill:rgb(20%,20%,20%);fill-opacity:1;" d="M 4.800781 2.269531 L 7.011719 2.269531 L 7.011719 5.960938 L 4.800781 5.960938 Z M 4.800781 2.269531 "/>
<path style=" stroke:none;fill-rule:nonzero;fill:rgb(20%,20%,20%);fill-opacity:1;" d="M 11.441406 2.269531 L 13.652344 2.269531 L 13.652344 5.960938 L 11.441406 5.960938 Z M 11.441406 2.269531 "/>
<path style=" stroke:none;fill-rule:nonzero;fill:rgb(20%,20%,20%);fill-opacity:1;" d="M 18.082031 2.269531 L 20.296875 2.269531 L 20.296875 5.960938 L 18.082031 5.960938 Z M 18.082031 2.269531 "/>
<path style=" stroke:none;fill-rule:nonzero;fill:rgb(20%,20%,20%);fill-opacity:1;" d="M 24.722656 2.269531 L 26.9375 2.269531 L 26.9375 5.960938 L 24.722656 5.960938 Z M 24.722656 2.269531 "/>
</g>
</svg>
