
<svg xmlns="http://www.w3.org/2000/svg" xmlns:xlink="http://www.w3.org/1999/xlink" width="32px" height="32px" viewBox="0 0 32 32" version="1.1">
<g id="surface1">
<path style="fill-rule:nonzero;fill:rgb(10.588235%,20%,35.686275%);fill-opacity:1;stroke-width:55.152916;stroke-linecap:butt;stroke-linejoin:miter;stroke:rgb(52.156866%,67.843139%,94.509804%);stroke-opacity:1;stroke-miterlimit:4;" d="M 170.625 60.25 L 853.375 60.25 C 914.375 60.25 963.75 109.625 963.75 170.625 L 963.75 853.375 C 963.75 914.375 914.375 963.75 853.375 963.75 L 170.625 963.75 C 109.625 963.75 60.25 914.375 60.25 853.375 L 60.25 170.625 C 60.25 109.625 109.625 60.25 170.625 60.25 Z M 170.625 60.25 " transform="matrix(0.03125,0,0,0.03125,0,0)"/>
<path style=" stroke:none;fill-rule:nonzero;fill:rgb(20.392157%,0%,0%);fill-opacity:1;" d="M 7.457031 8.675781 L 4.527344 12.425781 L 6.082031 20.335938 L 20.386719 24.96875 L 23.808594 19.15625 L 22.804688 10.445312 L 11.824219 5.378906 L 7.535156 8.574219 Z M 7.457031 8.675781 "/>
<path style=" stroke:none;fill-rule:nonzero;fill:rgb(100%,100%,100%);fill-opacity:1;" d="M 22.933594 13.558594 L 11.996094 17.671875 L 6.964844 9.675781 L 4.769531 12.484375 L 6.277344 20.160156 L 20.28125 24.691406 L 23.574219 19.105469 Z M 22.933594 13.558594 "/>
<path style=" stroke:none;fill-rule:nonzero;fill:rgb(20.392157%,0%,0%);fill-opacity:1;" d="M 26.464844 12.226562 L 11.996094 17.671875 L 6.75 9.332031 L 6.554688 9.453125 L 11.898438 17.953125 L 26.546875 12.441406 Z M 26.464844 12.226562 "/>
<path style=" stroke:none;fill-rule:nonzero;fill:rgb(100%,100%,100%);fill-opacity:1;" d="M 22.933594 13.558594 L 22.714844 11.675781 L 7.183594 9.394531 L 6.964844 9.675781 L 11.996094 17.671875 Z M 22.933594 13.558594 "/>
<path style=" stroke:none;fill-rule:nonzero;fill:rgb(0%,40.000001%,100%);fill-opacity:1;" d="M 14.6875 4.175781 C 14.6875 4.175781 6.835938 5.433594 4.804688 10.363281 C 3.410156 13.847656 6.5625 16.828125 7.039062 16.355469 C 7.035156 16.355469 5.328125 14.128906 7.011719 10.804688 C 8.132812 8.589844 10.691406 6.378906 14.6875 4.175781 Z M 14.6875 4.175781 "/>
<path style=" stroke:none;fill-rule:nonzero;fill:rgb(0%,40.000001%,100%);fill-opacity:1;" d="M 14.6875 4.175781 C 14.6875 4.175781 6.835938 5.433594 4.804688 10.363281 C 3.410156 13.847656 6.5625 16.828125 7.039062 16.355469 C 7.035156 16.355469 4.859375 13.773438 6.78125 10.277344 C 8.0625 7.949219 10.699219 5.910156 14.6875 4.175781 Z M 14.6875 4.175781 "/>
<path style=" stroke:none;fill-rule:nonzero;fill:rgb(0%,40.000001%,100%);fill-opacity:1;" d="M 22.382812 5.449219 C 21.785156 4.890625 20.402344 4.519531 19.617188 4.359375 C 18.941406 4.222656 18.222656 4.179688 17.542969 4.128906 C 17.074219 4.097656 15.734375 4.121094 15.167969 4.179688 C 13.730469 4.332031 13.15625 4.859375 12.003906 5.675781 C 10.941406 6.417969 9.386719 7.230469 8.925781 8.53125 C 8.5625 9.253906 8.890625 10.40625 8.910156 11.117188 L 8.925781 11.617188 C 8.90625 11.582031 8.894531 11.558594 8.898438 11.558594 C 8.902344 11.558594 8.261719 13.140625 8.972656 13.851562 C 9.050781 13.105469 10.234375 12.535156 10.238281 12.535156 L 11.109375 12.09375 C 11.242188 12.003906 11.609375 11.78125 11.726562 11.664062 C 12.421875 11.261719 13.003906 10.820312 13.828125 10.738281 C 14.914062 10.628906 15.941406 11.113281 17.023438 10.996094 C 17.910156 10.898438 19.125 10.773438 19.894531 10.28125 C 20.257812 10.046875 20.269531 9.574219 20.480469 9.222656 C 20.730469 8.796875 20.761719 8.417969 20.753906 7.929688 C 21.335938 7.792969 21.984375 7.550781 22.363281 7.058594 C 22.675781 6.628906 22.832031 5.867188 22.386719 5.449219 Z M 22.382812 5.449219 "/>
<path style=" stroke:none;fill-rule:nonzero;fill:rgb(0%,40.000001%,100%);fill-opacity:1;" d="M 14.230469 3.542969 C 14.105469 3.597656 13.976562 3.667969 13.851562 3.757812 C 13.980469 3.667969 14.105469 3.59375 14.230469 3.542969 Z M 14.230469 3.542969 C 13.125 4.261719 12.71875 5.742188 12.722656 5.742188 C 12.835938 5.691406 13.003906 5.480469 13.222656 5.222656 C 13.089844 5.378906 12.976562 5.519531 12.886719 5.613281 C 12.890625 5.585938 13.339844 4.390625 14.230469 3.542969 Z M 13.886719 2.742188 C 11.421875 4.542969 11.535156 5.988281 11.535156 5.988281 C 11.574219 5.96875 11.621094 5.933594 11.675781 5.890625 C 11.671875 5.890625 11.605469 4.777344 13.886719 2.742188 Z M 14.496094 4.175781 C 13.925781 4.976562 14.363281 5.148438 14.367188 5.148438 C 14.371094 5.148438 14.207031 4.878906 14.496094 4.175781 Z M 13.890625 4.546875 C 14.074219 4.398438 14.273438 4.265625 14.5 4.175781 C 14.265625 4.269531 14.066406 4.402344 13.894531 4.546875 C 13.890625 4.546875 13.890625 4.546875 13.894531 4.546875 Z M 13.890625 4.546875 "/>
<path style=" stroke:none;fill-rule:nonzero;fill:rgb(0%,40.000001%,100%);fill-opacity:1;" d="M 9.179688 8.003906 C 10.742188 3.238281 13.886719 2.742188 13.886719 2.742188 C 11.421875 4.542969 11.535156 5.988281 11.539062 5.988281 C 11.941406 5.785156 13.234375 3.964844 14.230469 3.542969 C 13.128906 4.261719 12.722656 5.742188 12.722656 5.742188 C 12.996094 5.625 13.574219 4.5625 14.503906 4.175781 C 13.933594 4.976562 14.367188 5.148438 14.371094 5.148438 Z M 9.179688 8.003906 "/>
<path style=" stroke:none;fill-rule:nonzero;fill:rgb(0%,40.000001%,100%);fill-opacity:1;" d="M 10.113281 11.730469 C 12.777344 11.644531 11.363281 9.828125 14.917969 6.390625 C 12.023438 8.070312 9.003906 8.035156 10.113281 11.730469 Z M 10.113281 11.730469 "/>
<path style=" stroke:none;fill-rule:nonzero;fill:rgb(0%,40.000001%,100%);fill-opacity:1;" d="M 10.113281 11.730469 C 10.582031 11.050781 12.167969 8.414062 14.917969 6.390625 C 12.023438 8.070312 9.003906 8.035156 10.113281 11.730469 Z M 10.113281 11.730469 "/>
<path style=" stroke:none;fill-rule:nonzero;fill:rgb(0%,40.000001%,100%);fill-opacity:1;" d="M 10.265625 12.496094 C 10.265625 12.496094 10.265625 12.207031 10.183594 11.921875 C 9.195312 12.253906 8.890625 11.558594 8.894531 11.558594 C 8.898438 11.558594 8.253906 13.140625 8.964844 13.851562 C 9.042969 13.105469 10.230469 12.535156 10.230469 12.535156 "/>
<path style=" stroke:none;fill-rule:nonzero;fill:rgb(0%,40.000001%,100%);fill-opacity:1;" d="M 10.226562 12.535156 L 10.265625 12.496094 C 10.265625 12.496094 10.265625 12.207031 10.183594 11.921875 C 8.613281 12.761719 8.964844 13.851562 8.96875 13.851562 C 9.042969 13.105469 10.226562 12.535156 10.230469 12.535156 Z M 10.226562 12.535156 "/>
<path style=" stroke:none;fill-rule:nonzero;fill:rgb(0%,40.000001%,100%);fill-opacity:1;" d="M 8.964844 12.585938 C 8.964844 12.585938 8.972656 12.113281 9.1875 12.027344 C 9.183594 12.121094 9.292969 12.191406 9.40625 12.191406 C 9.105469 12.222656 8.964844 12.585938 8.964844 12.585938 Z M 8.964844 12.585938 "/>
<path style=" stroke:none;fill-rule:nonzero;fill:rgb(0%,40.000001%,100%);fill-opacity:1;" d="M 9.179688 8.003906 L 9.183594 8.003906 C 9.074219 8.167969 8.988281 8.34375 8.921875 8.53125 C 8.609375 9.152344 8.804688 10.085938 8.878906 10.785156 C 8.949219 11.03125 9.023438 11.285156 9.160156 11.425781 L 9.332031 11.480469 C 9.328125 11.089844 9.464844 10.730469 9.449219 10.335938 C 9.425781 9.859375 9.300781 9.378906 9.394531 8.902344 C 9.472656 8.480469 9.722656 8.117188 9.824219 7.699219 C 9.949219 7.179688 9.933594 6.621094 10.007812 6.089844 C 9.699219 6.636719 9.417969 7.269531 9.183594 8.003906 "/>
<path style=" stroke:none;fill-rule:nonzero;fill:rgb(0%,40.000001%,100%);fill-opacity:1;" d="M 11.132812 21.730469 L 6.277344 20.160156 L 5.703125 17.746094 L 4.683594 17.414062 C 4.683594 17.414062 5.746094 20.738281 7.636719 23.410156 C 11.46875 26.082031 10.53125 24.777344 10.535156 24.777344 C 11.222656 25.179688 11.679688 25.179688 11.683594 25.179688 C 11.679688 24.777344 9.960938 24.691406 9.476562 21.972656 C 9.992188 23.003906 12.054688 23.574219 12.171875 23.460938 C 12.246094 23.386719 11.921875 22.820312 11.191406 21.769531 Z M 11.132812 21.730469 "/>
<path style=" stroke:none;fill-rule:nonzero;fill:rgb(0%,40.000001%,100%);fill-opacity:1;" d="M 9.699219 24.433594 C 9.699219 24.433594 7.253906 24.269531 5.171875 20.136719 C 3.941406 15.867188 6.792969 22.597656 9.707031 24.433594 Z M 9.699219 24.433594 "/>
<path style=" stroke:none;fill-rule:nonzero;fill:rgb(0%,40.000001%,100%);fill-opacity:1;" d="M 3.960938 15.011719 C 3.960938 15.011719 4.253906 21.457031 7.527344 22.515625 C 5.863281 20.25 5.390625 15.839844 5.394531 15.839844 Z M 3.960938 15.011719 "/>
<path style=" stroke:none;fill-rule:nonzero;fill:rgb(0%,40.000001%,100%);fill-opacity:1;" d="M 5.890625 19.105469 C 5.199219 19.246094 3.898438 16.839844 3.945312 14.347656 C 3.972656 12.683594 4.257812 11.355469 4.800781 10.363281 L 5.371094 15.09375 C 5.371094 15.09375 5.371094 18.332031 5.894531 19.105469 Z M 5.890625 19.105469 "/>
<path style=" stroke:none;fill-rule:nonzero;fill:rgb(0%,40.000001%,100%);fill-opacity:1;" d="M 4.792969 11.300781 C 4.371094 14.109375 5.277344 13.058594 5.980469 10.878906 C 5.277344 12.09375 4.792969 11.769531 4.792969 11.300781 Z M 5.667969 9.355469 C 4.417969 11.90625 5.597656 11.179688 6.925781 9.316406 C 5.890625 10.261719 5.527344 9.800781 5.667969 9.355469 Z M 8.167969 6.746094 C 6.347656 8.367188 7.519531 8.171875 9.179688 7.121094 C 8.050781 7.539062 7.910156 7.058594 8.167969 6.746094 Z M 6.878906 7.902344 C 5.054688 9.890625 6.324219 9.542969 8.035156 8.199219 C 6.839844 8.785156 6.628906 8.269531 6.878906 7.902344 Z M 10.414062 6.289062 C 9.421875 6.566406 9.332031 6.144531 9.578125 5.902344 C 7.910156 7.15625 8.925781 7.070312 10.417969 6.289062 Z M 10.414062 6.289062 "/>
<path style=" stroke:none;fill-rule:nonzero;fill:rgb(84.313726%,95.686275%,93.333334%);fill-opacity:1;" d="M 11.484375 10.667969 C 10.984375 11.171875 10.386719 11.054688 10.335938 10.394531 C 10.261719 9.460938 11.265625 9.363281 11.699219 9.503906 C 11.847656 9.925781 11.660156 10.339844 11.488281 10.667969 "/>
<path style=" stroke:none;fill-rule:nonzero;fill:rgb(84.313726%,95.686275%,93.333334%);fill-opacity:1;" d="M 11.535156 10.542969 C 11.371094 10.847656 10.996094 10.96875 10.785156 10.855469 C 10.574219 10.742188 10.574219 10.363281 10.738281 10.058594 C 10.898438 9.757812 11.601562 9.894531 11.605469 9.894531 C 11.609375 9.894531 11.695312 10.246094 11.535156 10.542969 Z M 11.535156 10.542969 "/>
<path style=" stroke:none;fill-rule:nonzero;fill:rgb(100%,100%,100%);fill-opacity:1;" d="M 10.820312 10.5625 C 10.96875 10.746094 11.191406 10.8125 11.324219 10.707031 C 11.453125 10.605469 11.511719 10.300781 11.367188 10.113281 C 11.21875 9.929688 10.921875 9.941406 10.792969 10.042969 C 10.660156 10.144531 10.671875 10.378906 10.824219 10.5625 Z M 10.820312 10.5625 "/>
<path style=" stroke:none;fill-rule:nonzero;fill:rgb(0%,40.000001%,100%);fill-opacity:1;" d="M 27.925781 13.503906 C 27.925781 13.503906 27.925781 13.503906 27.929688 13.503906 C 27.746094 12.300781 27.421875 11.160156 26.988281 10.136719 C 25.871094 7.519531 24.019531 5.921875 21.878906 5.261719 C 17.003906 4.804688 14.597656 8.222656 14.597656 8.222656 C 16.433594 8.222656 18.402344 8.8125 19.683594 10.679688 C 21.15625 12.835938 21.707031 16.4375 20.082031 18.617188 C 20.082031 18.617188 23.464844 18.160156 23.121094 12.542969 C 23.121094 12.542969 24.324219 14.894531 22.78125 18.128906 C 22.777344 18.128906 25.902344 17.355469 24.933594 11.339844 C 24.929688 11.339844 25.644531 12.714844 25.417969 15.894531 C 25.417969 15.894531 26.707031 15 26.710938 12.253906 C 26.707031 12.253906 27.597656 15.152344 26.710938 16.984375 C 26.707031 16.984375 26.722656 16.933594 26.792969 16.882812 C 27.066406 16.648438 28.152344 15.722656 27.929688 13.503906 Z M 27.925781 13.503906 "/>
<path style=" stroke:none;fill-rule:nonzero;fill:rgb(0%,40.000001%,100%);fill-opacity:1;" d="M 19.890625 11.019531 C 20.511719 12.046875 20.886719 13.230469 21.019531 14.417969 C 21.109375 14.664062 21.339844 15.050781 21.664062 14.964844 C 21.925781 14.886719 22.167969 14.582031 22.324219 14.363281 C 22.519531 14.078125 22.597656 13.730469 22.785156 13.441406 C 22.875 13.300781 22.996094 13.171875 23.015625 12.996094 C 23.019531 12.933594 22.996094 12.566406 23.125 12.578125 C 23.121094 12.566406 23.121094 12.554688 23.125 12.542969 C 23.121094 12.542969 23.128906 12.558594 23.144531 12.589844 C 23.234375 12.664062 23.269531 12.839844 23.304688 12.949219 C 23.355469 13.113281 23.398438 13.28125 23.441406 13.449219 C 23.511719 13.738281 23.710938 14.261719 24.082031 13.9375 C 24.25 13.785156 24.355469 13.558594 24.445312 13.355469 C 24.527344 13.152344 24.582031 12.957031 24.613281 12.738281 C 24.667969 12.332031 24.652344 11.773438 24.953125 11.453125 C 24.945312 11.414062 24.941406 11.375 24.9375 11.339844 C 24.933594 11.339844 24.957031 11.382812 25 11.472656 C 25.136719 11.5625 25.324219 11.648438 25.488281 11.558594 C 25.636719 11.476562 25.699219 11.285156 25.742188 11.128906 C 25.800781 10.894531 25.824219 10.644531 25.875 10.398438 C 25.925781 10.121094 25.984375 9.835938 25.964844 9.550781 C 26.085938 9.832031 26.21875 10.105469 26.328125 10.394531 C 26.414062 10.632812 26.503906 10.875 26.523438 11.132812 C 26.535156 11.347656 26.535156 11.566406 26.5625 11.785156 C 26.582031 11.960938 26.621094 12.171875 26.777344 12.285156 C 26.84375 11.355469 26.988281 10.347656 26.6875 9.441406 C 26.199219 8.496094 25.570312 7.625 24.785156 6.910156 C 23.957031 6.160156 22.972656 5.589844 21.90625 5.261719 C 17.03125 4.804688 14.621094 8.222656 14.628906 8.222656 C 15.617188 8.222656 16.621094 8.394531 17.527344 8.816406 C 18.503906 9.292969 19.316406 10.0625 19.894531 11.019531 Z M 19.890625 11.019531 "/>
<path style=" stroke:none;fill-rule:nonzero;fill:rgb(0%,40.000001%,100%);fill-opacity:1;" d="M 27.863281 13.113281 L 22.855469 11.023438 L 22.425781 15.867188 C 22.480469 16.179688 22.519531 16.519531 22.542969 16.875 C 22.535156 16.816406 22.53125 16.757812 22.53125 16.699219 C 22.113281 23.355469 18.167969 26.765625 16.183594 27.644531 C 18.675781 27.816406 20.207031 26.949219 20.207031 26.949219 C 20.210938 26.949219 19.875 27.359375 18.988281 27.902344 C 20.105469 27.902344 22.882812 26.84375 23.433594 25.722656 L 23.714844 25.839844 C 23.714844 25.839844 29.132812 22.058594 27.863281 13.113281 Z M 27.863281 13.113281 "/>
<path style=" stroke:none;fill-rule:nonzero;fill:rgb(0%,40.000001%,100%);fill-opacity:1;" d="M 22.527344 16.699219 C 22.113281 23.355469 18.164062 26.765625 16.183594 27.644531 C 21.070312 26.582031 22.804688 20.460938 22.527344 16.699219 Z M 22.527344 16.699219 "/>
<path style=" stroke:none;fill-rule:nonzero;fill:rgb(0%,40.000001%,100%);fill-opacity:1;" d="M 18.988281 27.902344 C 18.988281 27.902344 22.910156 26.355469 23.375 22.832031 C 25.207031 23.089844 21.449219 27.359375 18.988281 27.902344 Z M 18.988281 27.902344 "/>
<path style=" stroke:none;fill-rule:nonzero;fill:rgb(0%,40.000001%,100%);fill-opacity:1;" d="M 22.542969 16.480469 C 21.652344 18.402344 20.074219 18.617188 20.078125 18.617188 C 20.082031 18.617188 21.394531 18.847656 22.484375 17.527344 C 22.640625 17.339844 22.644531 16.972656 22.542969 16.480469 Z M 22.542969 16.480469 "/>
<path style=" stroke:none;fill-rule:nonzero;fill:rgb(0%,40.000001%,100%);fill-opacity:1;" d="M 27.863281 13.113281 L 22.855469 11.023438 L 22.425781 15.867188 C 22.472656 16.128906 22.503906 16.410156 22.527344 16.707031 C 22.527344 16.703125 22.527344 16.699219 22.53125 16.699219 C 22.535156 16.757812 22.535156 16.816406 22.542969 16.875 C 22.535156 16.816406 22.535156 16.761719 22.53125 16.707031 C 22.515625 16.949219 22.496094 17.183594 22.472656 17.417969 C 22.410156 18.460938 22.402344 20.398438 23.046875 21.570312 C 23.484375 20.90625 23.925781 20.078125 24.082031 19.246094 C 24.148438 20.089844 23.75 21.175781 23.359375 22.015625 C 23.488281 22.160156 23.640625 22.285156 23.8125 22.371094 C 23.878906 22.398438 23.945312 22.417969 24.015625 22.4375 C 24.566406 21.757812 25.457031 20.503906 25.6875 19.246094 C 25.769531 20.238281 25.203125 21.5625 24.761719 22.433594 C 26.644531 21.917969 27.925781 17.789062 27.953125 17.714844 C 27.953125 17.714844 27.953125 17.714844 27.957031 17.710938 C 28.101562 16.363281 28.105469 14.832031 27.863281 13.113281 Z M 27.863281 13.113281 "/>
<path style=" stroke:none;fill-rule:nonzero;fill:rgb(0%,40.000001%,100%);fill-opacity:1;" d="M 25.214844 21.402344 C 25.066406 21.777344 24.898438 22.132812 24.75 22.433594 C 25.429688 22.246094 26.03125 21.589844 26.527344 20.820312 C 26.082031 21.144531 25.535156 21.320312 25.222656 21.402344 Z M 25.214844 21.402344 "/>
<path style=" stroke:none;fill-rule:nonzero;fill:rgb(0%,40.000001%,100%);fill-opacity:1;" d="M 23.535156 21.597656 C 23.472656 21.738281 23.410156 21.878906 23.351562 22.015625 C 23.480469 22.160156 23.628906 22.285156 23.804688 22.371094 C 23.871094 22.398438 23.9375 22.417969 24.007812 22.4375 C 24.558594 21.757812 25.449219 20.503906 25.679688 19.246094 C 25.050781 20.859375 24.101562 21.410156 23.535156 21.597656 Z M 23.535156 21.597656 "/>
<path style=" stroke:none;fill-rule:nonzero;fill:rgb(0%,40.000001%,100%);fill-opacity:1;" d="M 23.945312 15.378906 C 24.261719 17.214844 23.027344 19.90625 23.03125 19.90625 C 23.035156 19.90625 24.871094 19.546875 25.683594 15.628906 C 25.683594 15.628906 25.511719 18.347656 25.152344 18.988281 C 25.152344 18.988281 26.925781 18.160156 27.300781 14.777344 C 27.679688 11.394531 25.238281 9.332031 24.464844 9.734375 C 23.949219 10 23.773438 11.882812 23.945312 15.378906 Z M 23.945312 15.378906 "/>
<path style=" stroke:none;fill-rule:nonzero;fill:rgb(0%,40.000001%,100%);fill-opacity:1;" d="M 21.699219 15.042969 C 20.917969 14.527344 21.011719 13.25 21.015625 13.25 C 21.082031 13.640625 21.632812 13.542969 21.636719 13.542969 C 21.519531 13.183594 21.53125 11.203125 21.535156 11.203125 C 22.316406 14.144531 22.871094 13.78125 22.632812 10.886719 C 22.625 10.886719 23.820312 13.097656 21.703125 15.042969 Z M 21.699219 15.042969 "/>
</g>
</svg>
