
<svg xmlns="http://www.w3.org/2000/svg" xmlns:xlink="http://www.w3.org/1999/xlink" width="32px" height="32px" viewBox="0 0 32 32" version="1.1">
<defs>
<linearGradient id="linear0" gradientUnits="userSpaceOnUse" x1="1" y1="0" x2="47" y2="0" gradientTransform="matrix(0,-0.666667,0.666667,0,0.00147645,32)">
<stop offset="0" style="stop-color:rgb(40.392157%,40.392157%,60.000002%);stop-opacity:1;"/>
<stop offset="1" style="stop-color:rgb(45.09804%,45.09804%,63.137257%);stop-opacity:1;"/>
</linearGradient>
</defs>
<g id="surface1">
<path style=" stroke:none;fill-rule:nonzero;fill:rgb(0%,0%,0%);fill-opacity:0.0196078;" d="M 0.667969 28.667969 L 0.667969 28.832031 C 0.667969 30.308594 1.855469 31.5 3.332031 31.5 L 28.667969 31.5 C 30.144531 31.5 31.332031 30.308594 31.332031 28.832031 L 31.332031 28.667969 C 31.332031 30.144531 30.144531 31.332031 28.667969 31.332031 L 3.332031 31.332031 C 1.855469 31.332031 0.667969 30.144531 0.667969 28.667969 Z M 0.667969 29 L 0.667969 29.332031 C 0.667969 30.808594 1.855469 32 3.332031 32 L 28.667969 32 C 30.144531 32 31.332031 30.808594 31.332031 29.332031 L 31.332031 29 C 31.332031 30.476562 30.144531 31.667969 28.667969 31.667969 L 3.332031 31.667969 C 1.855469 31.667969 0.667969 30.476562 0.667969 29 Z M 0.667969 29 "/>
<path style=" stroke:none;fill-rule:nonzero;fill:rgb(0%,0%,0%);fill-opacity:0.0509804;" d="M 0.667969 28.832031 L 0.667969 29 C 0.667969 30.476562 1.855469 31.667969 3.332031 31.667969 L 28.667969 31.667969 C 30.144531 31.667969 31.332031 30.476562 31.332031 29 L 31.332031 28.832031 C 31.332031 30.308594 30.144531 31.5 28.667969 31.5 L 3.332031 31.5 C 1.855469 31.5 0.667969 30.308594 0.667969 28.832031 Z M 0.667969 28.832031 "/>
<path style=" stroke:none;fill-rule:nonzero;fill:rgb(0%,0%,0%);fill-opacity:0.101961;" d="M 0.667969 28.667969 L 0.667969 28.832031 C 0.667969 30.308594 1.855469 31.5 3.332031 31.5 L 28.667969 31.5 C 30.144531 31.5 31.332031 30.308594 31.332031 28.832031 L 31.332031 28.667969 C 31.332031 30.144531 30.144531 31.332031 28.667969 31.332031 L 3.332031 31.332031 C 1.855469 31.332031 0.667969 30.144531 0.667969 28.667969 Z M 0.667969 28.667969 "/>
<path style=" stroke:none;fill-rule:nonzero;fill:url(#linear0);" d="M 0.667969 28.667969 L 0.667969 3.332031 C 0.667969 1.859375 1.859375 0.667969 3.332031 0.667969 L 28.667969 0.667969 C 30.140625 0.667969 31.332031 1.859375 31.332031 3.332031 L 31.332031 28.667969 C 31.332031 30.140625 30.140625 31.332031 28.667969 31.332031 L 3.332031 31.332031 C 1.859375 31.332031 0.667969 30.140625 0.667969 28.667969 Z M 0.667969 28.667969 "/>
<path style=" stroke:none;fill-rule:nonzero;fill:rgb(80.000001%,80.000001%,80.000001%);fill-opacity:1;" d="M 18.300781 6.894531 C 17.332031 6.894531 16.53125 7.785156 16.371094 8.964844 L 24.058594 8.964844 C 23.902344 7.785156 23.101562 6.894531 22.128906 6.894531 Z M 18.300781 6.894531 "/>
<path style=" stroke:none;fill-rule:nonzero;fill:rgb(14.509805%,68.235296%,87.450981%);fill-opacity:1;" d="M 7.878906 9.296875 L 24.121094 9.296875 C 25.40625 9.296875 26.449219 10.339844 26.449219 11.621094 L 26.449219 19.785156 C 26.449219 21.070312 25.40625 22.113281 24.121094 22.113281 L 7.878906 22.113281 C 6.59375 22.113281 5.550781 21.070312 5.550781 19.785156 L 5.550781 11.621094 C 5.550781 10.339844 6.59375 9.296875 7.878906 9.296875 Z M 7.878906 9.296875 "/>
<path style=" stroke:none;fill-rule:nonzero;fill:rgb(14.509805%,68.235296%,87.450981%);fill-opacity:1;" d="M 7.878906 12.285156 L 24.121094 12.285156 C 25.40625 12.285156 26.449219 13.328125 26.449219 14.613281 L 26.449219 22.777344 C 26.449219 24.0625 25.40625 25.105469 24.121094 25.105469 L 7.878906 25.105469 C 6.59375 25.105469 5.550781 24.0625 5.550781 22.777344 L 5.550781 14.613281 C 5.550781 13.328125 6.59375 12.285156 7.878906 12.285156 Z M 7.878906 12.285156 "/>
<path style=" stroke:none;fill-rule:nonzero;fill:rgb(100%,100%,100%);fill-opacity:1;" d="M 12.539062 12.113281 C 12.019531 12.113281 11.515625 12.183594 11.039062 12.308594 C 11.039062 12.300781 11.039062 12.296875 11.039062 12.285156 C 10.503906 12.425781 10.097656 12.609375 10.019531 12.644531 C 10.019531 12.65625 10.019531 12.667969 10.019531 12.679688 C 10.015625 12.679688 10.007812 12.683594 10 12.6875 C 10.054688 13.125 10.136719 13.554688 10.175781 13.753906 C 10.597656 15.546875 11.824219 17.027344 13.445312 17.8125 C 13.4375 17.933594 13.425781 18.050781 13.425781 18.179688 C 13.425781 19.835938 14.089844 21.335938 15.164062 22.433594 C 15.15625 22.433594 15.171875 22.441406 15.164062 22.441406 C 15.472656 22.734375 15.894531 23.074219 15.980469 23.136719 C 16.003906 23.152344 16.042969 23.160156 16.050781 23.175781 C 16.40625 22.863281 16.726562 22.519531 16.808594 22.433594 C 17.878906 21.335938 18.550781 19.835938 18.550781 18.179688 C 18.550781 18.066406 18.527344 17.957031 18.527344 17.839844 C 20.175781 17.078125 21.417969 15.597656 21.863281 13.800781 C 21.839844 13.796875 21.867188 13.792969 21.863281 13.785156 C 21.964844 13.304688 22.050781 12.78125 22.050781 12.726562 C 22.042969 12.722656 22.03125 12.71875 22.027344 12.714844 C 22.027344 12.6875 22.027344 12.71875 22.027344 12.691406 C 21.796875 12.589844 21.277344 12.414062 21.003906 12.324219 C 21.003906 12.34375 21.003906 12.316406 21.003906 12.335938 C 20.503906 12.199219 19.980469 12.121094 19.445312 12.121094 C 18.152344 12.121094 16.957031 12.535156 15.976562 13.230469 C 15.601562 13.515625 15.328125 13.761719 15.15625 13.925781 C 15.136719 13.945312 15.125 13.96875 15.105469 13.988281 C 14.539062 14.574219 14.101562 15.277344 13.804688 16.058594 C 14.121094 16.246094 14.4375 16.402344 14.722656 16.535156 C 14.957031 15.855469 15.34375 15.238281 15.835938 14.71875 C 15.839844 14.710938 15.855469 14.691406 15.867188 14.679688 C 15.886719 14.652344 15.914062 14.621094 15.929688 14.589844 C 15.953125 14.574219 15.953125 14.574219 15.960938 14.566406 C 16.316406 14.257812 16.585938 14.058594 16.789062 13.925781 C 16.894531 13.863281 16.996094 13.800781 17.105469 13.746094 C 17.800781 13.375 18.582031 13.164062 19.429688 13.164062 C 19.933594 13.164062 20.417969 13.238281 20.878906 13.378906 C 20.566406 14.847656 19.636719 16.074219 18.34375 16.761719 C 18.144531 15.910156 17.777344 15.121094 17.253906 14.457031 C 16.808594 14.757812 16.433594 15.0625 16.425781 15.089844 C 16.851562 15.628906 17.15625 16.261719 17.335938 16.953125 C 17.335938 16.953125 17.355469 17.023438 17.386719 17.15625 C 17.402344 17.21875 17.40625 17.257812 17.433594 17.386719 C 17.5 17.699219 17.492188 18.058594 17.488281 18.207031 C 17.488281 18.230469 17.488281 18.308594 17.488281 18.308594 L 17.472656 18.324219 C 17.433594 19.683594 16.863281 20.902344 15.953125 21.777344 C 15.007812 20.871094 14.421875 19.601562 14.421875 18.183594 C 14.925781 18.320312 15.449219 18.398438 15.996094 18.398438 C 16.292969 18.398438 16.585938 18.367188 16.851562 18.324219 C 16.875 18.222656 16.875 18.105469 16.882812 17.925781 C 16.894531 17.613281 16.863281 17.398438 16.816406 17.277344 C 16.546875 17.324219 16.261719 17.347656 15.976562 17.347656 C 15.472656 17.347656 14.980469 17.269531 14.515625 17.136719 C 14.160156 17.058594 13.804688 16.878906 13.554688 16.722656 C 13.410156 16.636719 13.324219 16.574219 13.269531 16.542969 C 12.164062 15.824219 11.359375 14.699219 11.082031 13.359375 C 11.523438 13.230469 11.992188 13.15625 12.488281 13.15625 C 13.195312 13.15625 13.863281 13.304688 14.472656 13.574219 C 14.769531 13.292969 15.128906 13.011719 15.332031 12.855469 C 14.472656 12.390625 13.507812 12.121094 12.480469 12.121094 M 12.488281 12.125 "/>
</g>
</svg>
