
<svg xmlns="http://www.w3.org/2000/svg" xmlns:xlink="http://www.w3.org/1999/xlink" width="32px" height="32px" viewBox="0 0 32 32" version="1.1">
<g id="surface1">
<path style="fill-rule:nonzero;fill:rgb(100%,100%,100%);fill-opacity:1;stroke-width:27.910587;stroke-linecap:butt;stroke-linejoin:miter;stroke:rgb(0.392157%,67.843139%,93.333334%);stroke-opacity:1;stroke-miterlimit:4;" d="M 83.1875 27.4375 L 428.8125 27.4375 C 459.625 27.4375 484.5625 52.375 484.5625 83.1875 L 484.5625 428.8125 C 484.5625 459.625 459.625 484.5625 428.8125 484.5625 L 83.1875 484.5625 C 52.375 484.5625 27.4375 459.625 27.4375 428.8125 L 27.4375 83.1875 C 27.4375 52.375 52.375 27.4375 83.1875 27.4375 Z M 83.1875 27.4375 " transform="matrix(0.0625,0,0,0.0625,0,0)"/>
<path style=" stroke:none;fill-rule:nonzero;fill:rgb(0.392157%,67.843139%,93.333334%);fill-opacity:1;" d="M 6.007812 27.320312 C 6.007812 27.285156 6.300781 26.949219 6.664062 26.582031 C 8.015625 25.199219 8.738281 24.433594 8.738281 24.394531 C 8.738281 24.371094 8.570312 24.15625 8.363281 23.917969 C 7.050781 22.394531 6.246094 20.507812 6 18.371094 C 5.929688 17.75 5.972656 16.386719 6.082031 15.808594 C 6.125 15.578125 6.183594 15.253906 6.210938 15.089844 C 6.257812 14.808594 6.476562 14.132812 6.769531 13.367188 C 7.011719 12.730469 7.644531 11.699219 8.246094 10.964844 C 8.578125 10.554688 9.542969 9.621094 9.84375 9.414062 C 9.960938 9.332031 10.199219 9.171875 10.378906 9.050781 C 10.554688 8.933594 10.761719 8.796875 10.832031 8.746094 C 11.261719 8.460938 12.398438 7.96875 12.988281 7.8125 C 13.207031 7.753906 13.484375 7.675781 13.605469 7.636719 C 13.730469 7.597656 14.121094 7.519531 14.476562 7.457031 C 15.753906 7.246094 17.273438 7.332031 18.476562 7.6875 C 18.707031 7.753906 18.941406 7.808594 18.988281 7.8125 C 19.074219 7.8125 19.953125 8.148438 20.152344 8.253906 C 20.199219 8.28125 20.40625 8.386719 20.613281 8.484375 C 21.425781 8.882812 22.597656 9.757812 23.234375 10.441406 C 24.667969 11.980469 25.582031 13.898438 25.925781 16.105469 C 26 16.589844 25.988281 18.242188 25.902344 18.738281 C 25.609375 20.527344 24.90625 22.222656 23.96875 23.410156 C 23.808594 23.613281 23.566406 23.898438 23.433594 24.042969 C 23.300781 24.183594 23.195312 24.328125 23.195312 24.367188 C 23.195312 24.4375 23.371094 24.625 24.925781 26.234375 C 25.460938 26.792969 25.910156 27.277344 25.917969 27.316406 C 25.933594 27.371094 25.503906 27.382812 23.183594 27.382812 L 20.4375 27.382812 L 20.105469 27.035156 C 19.925781 26.847656 19.75 26.6875 19.714844 26.6875 C 19.679688 26.6875 19.511719 26.746094 19.339844 26.8125 C 18.949219 26.96875 17.871094 27.21875 17.183594 27.3125 C 15.863281 27.488281 14.195312 27.332031 12.910156 26.902344 C 12.707031 26.835938 12.457031 26.753906 12.359375 26.726562 L 12.179688 26.671875 L 11.835938 27.027344 L 11.496094 27.382812 L 8.75 27.382812 C 6.527344 27.382812 6.007812 27.371094 6.007812 27.320312 Z M 6.007812 27.320312 "/>
<path style=" stroke:none;fill-rule:nonzero;fill:rgb(0.392157%,67.843139%,93.333334%);fill-opacity:1;" d="M 25.671875 11.972656 C 25.617188 11.84375 25.425781 11.46875 25.242188 11.140625 C 24.644531 10.058594 23.753906 8.992188 22.796875 8.207031 C 22.566406 8.019531 22.34375 7.832031 22.300781 7.796875 C 21.949219 7.496094 20.71875 6.765625 20.324219 6.625 C 20.105469 6.550781 19.917969 6.441406 19.917969 6.394531 C 19.917969 6.324219 20.550781 5.730469 20.792969 5.574219 C 21.289062 5.257812 21.546875 5.152344 21.964844 5.101562 C 22.785156 4.996094 23.414062 5.121094 24.074219 5.511719 C 24.386719 5.695312 26.199219 7.480469 26.527344 7.917969 C 27.011719 8.578125 27.183594 9.324219 27.050781 10.207031 C 26.972656 10.71875 26.875 10.972656 26.574219 11.414062 C 26.410156 11.660156 25.886719 12.210938 25.816406 12.210938 C 25.792969 12.210938 25.730469 12.105469 25.671875 11.972656 Z M 25.671875 11.972656 "/>
<path style=" stroke:none;fill-rule:nonzero;fill:rgb(0.392157%,67.843139%,93.333334%);fill-opacity:1;" d="M 5.6875 11.804688 C 5.144531 11.214844 4.816406 10.425781 4.816406 9.699219 C 4.816406 9.292969 4.902344 8.925781 5.121094 8.394531 C 5.273438 8.027344 5.324219 7.96875 6.402344 6.878906 C 7.019531 6.253906 7.628906 5.664062 7.757812 5.570312 C 8.496094 5.023438 9.808594 4.902344 10.652344 5.300781 C 10.832031 5.378906 11.058594 5.511719 11.160156 5.582031 C 11.464844 5.804688 11.96875 6.316406 11.964844 6.394531 C 11.964844 6.441406 11.722656 6.589844 11.332031 6.777344 C 9.152344 7.835938 7.511719 9.457031 6.421875 11.625 C 6.273438 11.921875 6.125 12.160156 6.085938 12.160156 C 6.046875 12.160156 5.867188 12 5.6875 11.804688 Z M 5.6875 11.804688 "/>
<path style=" stroke:none;fill-rule:evenodd;fill:rgb(100%,100%,100%);fill-opacity:1;" d="M 24.527344 17.449219 C 24.527344 12.71875 20.691406 8.882812 15.957031 8.882812 C 11.226562 8.882812 7.386719 12.71875 7.386719 17.449219 C 7.386719 22.183594 11.226562 26.019531 15.957031 26.019531 C 20.691406 26.019531 24.527344 22.183594 24.527344 17.449219 Z M 24.527344 17.449219 "/>
<path style=" stroke:none;fill-rule:nonzero;fill:rgb(23.137255%,21.960784%,22.745098%);fill-opacity:1;" d="M 15.445312 18.554688 C 15.019531 18.363281 14.824219 17.96875 14.902344 17.464844 C 14.925781 17.28125 14.980469 17.1875 15.183594 16.980469 L 15.433594 16.730469 L 15.449219 11.355469 L 15.566406 11.226562 C 15.632812 11.15625 15.726562 11.085938 15.777344 11.070312 C 15.886719 11.035156 16.144531 11.164062 16.183594 11.273438 C 16.203125 11.316406 16.214844 12.558594 16.214844 14.03125 L 16.214844 16.707031 L 16.550781 16.957031 L 21.019531 16.957031 L 21.183594 17.070312 C 21.441406 17.246094 21.558594 17.433594 21.558594 17.679688 C 21.558594 17.949219 21.425781 18.136719 21.132812 18.289062 C 20.910156 18.402344 20.902344 18.402344 18.738281 18.398438 L 16.566406 18.394531 L 16.347656 18.519531 C 16.085938 18.675781 15.738281 18.6875 15.445312 18.554688 Z M 15.445312 18.554688 "/>
</g>
</svg>
