<!-- color: #ef5353 -->
<svg xmlns="http://www.w3.org/2000/svg" xmlns:xlink="http://www.w3.org/1999/xlink" width="32px" height="32px" viewBox="0 0 32 32" version="1.1">
<defs>
<clipPath id="clip1">
  <path d="M 6.375 6.25 L 25.75 6.25 L 25.75 25.625 L 6.375 25.625 Z M 6.375 6.25 "/>
</clipPath>
<clipPath id="clip2">
  <path d="M 30.871094 15.941406 C 30.871094 24.121094 24.238281 30.75 16.058594 30.75 C 7.886719 30.75 1.25 24.121094 1.25 15.941406 C 1.25 7.757812 7.886719 1.128906 16.058594 1.128906 C 24.238281 1.128906 30.871094 7.757812 30.871094 15.941406 Z M 30.871094 15.941406 "/>
</clipPath>
<clipPath id="clip3">
  <path d="M 6.375 13.332031 L 10.9375 13.332031 L 10.9375 19.1875 L 6.375 19.1875 Z M 6.375 13.332031 "/>
</clipPath>
<clipPath id="clip4">
  <path d="M 30.871094 15.941406 C 30.871094 24.121094 24.238281 30.75 16.058594 30.75 C 7.886719 30.75 1.25 24.121094 1.25 15.941406 C 1.25 7.757812 7.886719 1.128906 16.058594 1.128906 C 24.238281 1.128906 30.871094 7.757812 30.871094 15.941406 Z M 30.871094 15.941406 "/>
</clipPath>
</defs>
<g id="surface1">
<path style="fill-rule:nonzero;fill:rgb(93.333334%,29.803923%,29.803923%);fill-opacity:1;stroke-width:6.881345;stroke-linecap:butt;stroke-linejoin:miter;stroke:rgb(4.313726%,11.764706%,18.039216%);stroke-opacity:1;stroke-miterlimit:4;" d="M 21.40625 7.640625 L 106.59375 7.640625 C 114.203125 7.640625 120.359375 13.796875 120.359375 21.40625 L 120.359375 106.59375 C 120.359375 114.203125 114.203125 120.359375 106.59375 120.359375 L 21.40625 120.359375 C 13.796875 120.359375 7.640625 114.203125 7.640625 106.59375 L 7.640625 21.40625 C 7.640625 13.796875 13.796875 7.640625 21.40625 7.640625 Z M 21.40625 7.640625 " transform="matrix(0.25,0,0,0.25,0,0)"/>
<g clip-path="url(#clip1)" clip-rule="nonzero">
<g clip-path="url(#clip2)" clip-rule="nonzero">
<path style=" stroke:none;fill-rule:nonzero;fill:rgb(17.647059%,17.647059%,17.647059%);fill-opacity:0.501961;" d="M 16.050781 6.28125 C 10.730469 6.28125 6.402344 10.59375 6.402344 15.929688 C 6.402344 21.265625 10.734375 25.59375 16.050781 25.59375 C 21.371094 25.59375 25.71875 21.265625 25.71875 15.929688 C 25.71875 10.589844 21.371094 6.28125 16.050781 6.28125 M 16.050781 7.566406 C 20.695312 7.566406 24.4375 11.308594 24.4375 15.929688 C 24.4375 20.550781 20.691406 24.3125 16.050781 24.3125 C 11.410156 24.3125 7.683594 20.550781 7.683594 15.929688 C 7.683594 11.308594 11.40625 7.566406 16.050781 7.566406 M 16.050781 7.566406 "/>
<path style=" stroke:none;fill-rule:nonzero;fill:rgb(17.647059%,17.647059%,17.647059%);fill-opacity:1;" d="M 16.050781 6.28125 C 10.730469 6.28125 6.402344 10.59375 6.402344 15.929688 L 7.683594 15.929688 C 7.683594 11.308594 11.40625 7.566406 16.050781 7.566406 C 20.695312 7.566406 24.4375 11.308594 24.4375 15.929688 L 24.4375 16.019531 C 24.386719 20.605469 20.664062 24.308594 16.050781 24.308594 L 16.050781 25.597656 C 21.371094 25.597656 25.71875 21.265625 25.71875 15.929688 C 25.71875 10.59375 21.371094 6.285156 16.050781 6.285156 M 16.050781 6.285156 "/>
</g>
</g>
<g clip-path="url(#clip3)" clip-rule="nonzero">
<g clip-path="url(#clip4)" clip-rule="nonzero">
<path style=" stroke:none;fill-rule:nonzero;fill:rgb(17.647059%,17.647059%,17.647059%);fill-opacity:1;" d="M 6.761719 13.363281 C 6.535156 14.183594 6.402344 15.050781 6.402344 15.941406 C 6.402344 17.050781 6.597656 18.125 6.945312 19.121094 L 7.042969 19.160156 L 10.910156 13.363281 M 6.761719 13.363281 "/>
</g>
</g>
</g>
</svg>
