
<svg xmlns="http://www.w3.org/2000/svg" xmlns:xlink="http://www.w3.org/1999/xlink" width="32px" height="32px" viewBox="0 0 32 32" version="1.1">
<g id="surface1">
<path style="fill-rule:nonzero;fill:rgb(100%,100%,100%);fill-opacity:1;stroke-width:28.330631;stroke-linecap:butt;stroke-linejoin:miter;stroke:rgb(83.137256%,10.196079%,10.196079%);stroke-opacity:1;stroke-miterlimit:4;" d="M 80.625 23.9375 L 431.375 23.9375 C 462.6875 23.9375 488.0625 49.3125 488.0625 80.625 L 488.0625 431.375 C 488.0625 462.6875 462.6875 488.0625 431.375 488.0625 L 80.625 488.0625 C 49.3125 488.0625 23.9375 462.6875 23.9375 431.375 L 23.9375 80.625 C 23.9375 49.3125 49.3125 23.9375 80.625 23.9375 Z M 80.625 23.9375 " transform="matrix(0.0625,0,0,0.0625,0,0)"/>
<path style=" stroke:none;fill-rule:nonzero;fill:rgb(83.137256%,10.196079%,10.196079%);fill-opacity:1;" d="M 16 3.519531 C 9.105469 3.519531 3.519531 9.105469 3.519531 16 C 3.519531 22.894531 9.105469 28.480469 16 28.480469 C 22.894531 28.480469 28.480469 22.894531 28.480469 16 C 28.480469 9.105469 22.894531 3.519531 16 3.519531 Z M 16 6.207031 C 21.410156 6.207031 25.792969 10.589844 25.792969 16 C 25.792969 19.40625 24.058594 22.398438 21.421875 24.152344 L 21.421875 10.074219 L 17.972656 10.074219 L 17.972656 14.699219 L 15.433594 13.035156 L 10.9375 10.136719 L 10.9375 21.777344 L 15.433594 18.878906 L 17.972656 17.21875 L 17.972656 25.601562 C 17.339844 25.730469 16.675781 25.792969 16 25.792969 C 10.589844 25.792969 6.207031 21.410156 6.207031 16 C 6.207031 10.589844 10.589844 6.207031 16 6.207031 Z M 16 6.207031 "/>
</g>
</svg>
