<!-- color: #41afd2 -->
<svg xmlns="http://www.w3.org/2000/svg" xmlns:xlink="http://www.w3.org/1999/xlink" width="32px" height="32px" viewBox="0 0 32 32" version="1.1">
<defs>
<clipPath id="clip1">
  <path d="M 4.667969 5.847656 L 19.199219 5.847656 L 19.199219 23.414062 L 4.667969 23.414062 Z M 4.667969 5.847656 "/>
</clipPath>
<clipPath id="clip2">
  <path d="M 25.777344 14.601562 C 25.777344 23.871094 19.578125 31.378906 11.933594 31.378906 C 4.292969 31.378906 -1.90625 23.871094 -1.90625 14.601562 C -1.90625 5.332031 4.292969 -2.175781 11.933594 -2.175781 C 19.578125 -2.175781 25.777344 5.332031 25.777344 14.601562 Z M 25.777344 14.601562 "/>
</clipPath>
<clipPath id="clip3">
  <path d="M 4.667969 5.847656 L 11.992188 5.847656 L 11.992188 23.414062 L 4.667969 23.414062 Z M 4.667969 5.847656 "/>
</clipPath>
<clipPath id="clip4">
  <path d="M 25.777344 14.601562 C 25.777344 23.871094 19.578125 31.378906 11.933594 31.378906 C 4.292969 31.378906 -1.90625 23.871094 -1.90625 14.601562 C -1.90625 5.332031 4.292969 -2.175781 11.933594 -2.175781 C 19.578125 -2.175781 25.777344 5.332031 25.777344 14.601562 Z M 25.777344 14.601562 "/>
</clipPath>
<clipPath id="clip5">
  <path d="M 4.667969 5.847656 L 6.550781 5.847656 L 6.550781 23.414062 L 4.667969 23.414062 Z M 4.667969 5.847656 "/>
</clipPath>
<clipPath id="clip6">
  <path d="M 25.777344 14.601562 C 25.777344 23.871094 19.578125 31.378906 11.933594 31.378906 C 4.292969 31.378906 -1.90625 23.871094 -1.90625 14.601562 C -1.90625 5.332031 4.292969 -2.175781 11.933594 -2.175781 C 19.578125 -2.175781 25.777344 5.332031 25.777344 14.601562 Z M 25.777344 14.601562 "/>
</clipPath>
<clipPath id="clip7">
  <path d="M 17.332031 5.847656 L 19.199219 5.847656 L 19.199219 23.414062 L 17.332031 23.414062 Z M 17.332031 5.847656 "/>
</clipPath>
<clipPath id="clip8">
  <path d="M 25.777344 14.601562 C 25.777344 23.871094 19.578125 31.378906 11.933594 31.378906 C 4.292969 31.378906 -1.90625 23.871094 -1.90625 14.601562 C -1.90625 5.332031 4.292969 -2.175781 11.933594 -2.175781 C 19.578125 -2.175781 25.777344 5.332031 25.777344 14.601562 Z M 25.777344 14.601562 "/>
</clipPath>
<clipPath id="clip9">
  <path d="M 6.484375 7.289062 L 10.746094 7.289062 L 10.746094 8.796875 L 6.484375 8.796875 Z M 6.484375 7.289062 "/>
</clipPath>
<clipPath id="clip10">
  <path d="M 25.777344 14.601562 C 25.777344 23.871094 19.578125 31.378906 11.933594 31.378906 C 4.292969 31.378906 -1.90625 23.871094 -1.90625 14.601562 C -1.90625 5.332031 4.292969 -2.175781 11.933594 -2.175781 C 19.578125 -2.175781 25.777344 5.332031 25.777344 14.601562 Z M 25.777344 14.601562 "/>
</clipPath>
<clipPath id="clip11">
  <path d="M 13.105469 20.398438 L 17.367188 20.398438 L 17.367188 21.90625 L 13.105469 21.90625 Z M 13.105469 20.398438 "/>
</clipPath>
<clipPath id="clip12">
  <path d="M 25.777344 14.601562 C 25.777344 23.871094 19.578125 31.378906 11.933594 31.378906 C 4.292969 31.378906 -1.90625 23.871094 -1.90625 14.601562 C -1.90625 5.332031 4.292969 -2.175781 11.933594 -2.175781 C 19.578125 -2.175781 25.777344 5.332031 25.777344 14.601562 Z M 25.777344 14.601562 "/>
</clipPath>
<clipPath id="clip13">
  <path d="M 6.484375 10.894531 L 17.367188 10.894531 L 17.367188 11.746094 L 6.484375 11.746094 Z M 6.484375 10.894531 "/>
</clipPath>
<clipPath id="clip14">
  <path d="M 25.777344 14.601562 C 25.777344 23.871094 19.578125 31.378906 11.933594 31.378906 C 4.292969 31.378906 -1.90625 23.871094 -1.90625 14.601562 C -1.90625 5.332031 4.292969 -2.175781 11.933594 -2.175781 C 19.578125 -2.175781 25.777344 5.332031 25.777344 14.601562 Z M 25.777344 14.601562 "/>
</clipPath>
<clipPath id="clip15">
  <path d="M 6.484375 13.121094 L 17.367188 13.121094 L 17.367188 13.910156 L 6.484375 13.910156 Z M 6.484375 13.121094 "/>
</clipPath>
<clipPath id="clip16">
  <path d="M 25.777344 14.601562 C 25.777344 23.871094 19.578125 31.378906 11.933594 31.378906 C 4.292969 31.378906 -1.90625 23.871094 -1.90625 14.601562 C -1.90625 5.332031 4.292969 -2.175781 11.933594 -2.175781 C 19.578125 -2.175781 25.777344 5.332031 25.777344 14.601562 Z M 25.777344 14.601562 "/>
</clipPath>
<clipPath id="clip17">
  <path d="M 6.484375 15.285156 L 17.367188 15.285156 L 17.367188 16.074219 L 6.484375 16.074219 Z M 6.484375 15.285156 "/>
</clipPath>
<clipPath id="clip18">
  <path d="M 25.777344 14.601562 C 25.777344 23.871094 19.578125 31.378906 11.933594 31.378906 C 4.292969 31.378906 -1.90625 23.871094 -1.90625 14.601562 C -1.90625 5.332031 4.292969 -2.175781 11.933594 -2.175781 C 19.578125 -2.175781 25.777344 5.332031 25.777344 14.601562 Z M 25.777344 14.601562 "/>
</clipPath>
<clipPath id="clip19">
  <path d="M 6.484375 17.515625 L 17.367188 17.515625 L 17.367188 18.300781 L 6.484375 18.300781 Z M 6.484375 17.515625 "/>
</clipPath>
<clipPath id="clip20">
  <path d="M 25.777344 14.601562 C 25.777344 23.871094 19.578125 31.378906 11.933594 31.378906 C 4.292969 31.378906 -1.90625 23.871094 -1.90625 14.601562 C -1.90625 5.332031 4.292969 -2.175781 11.933594 -2.175781 C 19.578125 -2.175781 25.777344 5.332031 25.777344 14.601562 Z M 25.777344 14.601562 "/>
</clipPath>
</defs>
<g id="surface1">
<path style="fill-rule:nonzero;fill:rgb(100%,100%,100%);fill-opacity:1;stroke-width:28.025423;stroke-linecap:butt;stroke-linejoin:miter;stroke:rgb(36.078432%,36.078432%,36.078432%);stroke-opacity:1;stroke-miterlimit:4;" d="M 82.5 26.4375 L 429.5 26.4375 C 460.4375 26.4375 485.5625 51.5625 485.5625 82.5 L 485.5625 429.5 C 485.5625 460.4375 460.4375 485.5625 429.5 485.5625 L 82.5 485.5625 C 51.5625 485.5625 26.4375 460.4375 26.4375 429.5 L 26.4375 82.5 C 26.4375 51.5625 51.5625 26.4375 82.5 26.4375 Z M 82.5 26.4375 " transform="matrix(0.0625,0,0,0.0625,0,0)"/>
<path style=" stroke:none;fill-rule:nonzero;fill:rgb(78.039217%,43.921569%,20.784314%);fill-opacity:1;" d="M 5.253906 3.785156 L 18.617188 3.785156 C 19.632812 3.785156 20.457031 4.609375 20.457031 5.628906 L 20.457031 22.488281 C 20.457031 23.503906 19.632812 24.332031 18.617188 24.332031 L 5.253906 24.332031 C 4.238281 24.332031 3.414062 23.503906 3.414062 22.488281 L 3.414062 5.628906 C 3.414062 4.609375 4.238281 3.785156 5.253906 3.785156 Z M 5.253906 3.785156 "/>
<g clip-path="url(#clip1)" clip-rule="nonzero">
<g clip-path="url(#clip2)" clip-rule="nonzero">
<path style=" stroke:none;fill-rule:nonzero;fill:rgb(100%,100%,100%);fill-opacity:1;" d="M 5.917969 5.847656 L 17.957031 5.847656 C 18.621094 5.847656 19.160156 6.5 19.160156 7.308594 L 19.160156 21.894531 C 19.160156 22.699219 18.621094 23.355469 17.957031 23.355469 L 5.917969 23.355469 C 5.253906 23.355469 4.714844 22.699219 4.714844 21.894531 L 4.714844 7.308594 C 4.714844 6.5 5.253906 5.847656 5.917969 5.847656 M 5.917969 5.847656 "/>
</g>
</g>
<g clip-path="url(#clip3)" clip-rule="nonzero">
<g clip-path="url(#clip4)" clip-rule="nonzero">
<path style=" stroke:none;fill-rule:nonzero;fill:rgb(98.039216%,92.156863%,81.176472%);fill-opacity:1;" d="M 5.917969 5.847656 C 5.25 5.847656 4.714844 6.496094 4.714844 7.308594 L 4.714844 21.894531 C 4.714844 22.703125 5.25 23.355469 5.917969 23.355469 L 11.933594 23.355469 L 11.933594 5.847656 M 5.917969 5.847656 "/>
</g>
</g>
<g clip-path="url(#clip5)" clip-rule="nonzero">
<g clip-path="url(#clip6)" clip-rule="nonzero">
<path style=" stroke:none;fill-rule:nonzero;fill:rgb(100%,100%,100%);fill-opacity:1;" d="M 5.917969 5.847656 C 5.25 5.847656 4.714844 6.496094 4.714844 7.308594 L 4.714844 21.894531 C 4.714844 22.703125 5.25 23.355469 5.917969 23.355469 L 6.519531 23.355469 C 5.851562 23.355469 5.316406 22.703125 5.316406 21.894531 L 5.316406 7.308594 C 5.316406 6.496094 5.851562 5.847656 6.519531 5.847656 M 5.917969 5.847656 "/>
</g>
</g>
<g clip-path="url(#clip7)" clip-rule="nonzero">
<g clip-path="url(#clip8)" clip-rule="nonzero">
<path style=" stroke:none;fill-rule:nonzero;fill:rgb(98.039216%,92.156863%,81.176472%);fill-opacity:1;" d="M 17.355469 5.847656 C 18.019531 5.847656 18.558594 6.496094 18.558594 7.308594 L 18.558594 21.894531 C 18.558594 22.703125 18.019531 23.355469 17.355469 23.355469 L 17.957031 23.355469 C 18.621094 23.355469 19.160156 22.703125 19.160156 21.894531 L 19.160156 7.308594 C 19.160156 6.496094 18.621094 5.847656 17.957031 5.847656 M 17.355469 5.847656 "/>
</g>
</g>
<g clip-path="url(#clip9)" clip-rule="nonzero">
<g clip-path="url(#clip10)" clip-rule="nonzero">
<path style=" stroke:none;fill-rule:nonzero;fill:rgb(16.862746%,16.862746%,16.862746%);fill-opacity:0.4;" d="M 6.519531 7.308594 L 10.730469 7.308594 L 10.730469 8.765625 L 6.519531 8.765625 M 6.519531 7.308594 "/>
</g>
</g>
<g clip-path="url(#clip11)" clip-rule="nonzero">
<g clip-path="url(#clip12)" clip-rule="nonzero">
<path style=" stroke:none;fill-rule:nonzero;fill:rgb(16.862746%,16.862746%,16.862746%);fill-opacity:0.4;" d="M 13.140625 20.4375 L 17.355469 20.4375 L 17.355469 21.894531 L 13.140625 21.894531 M 13.140625 20.4375 "/>
</g>
</g>
<g clip-path="url(#clip13)" clip-rule="nonzero">
<g clip-path="url(#clip14)" clip-rule="nonzero">
<path style=" stroke:none;fill-rule:nonzero;fill:rgb(16.862746%,16.862746%,16.862746%);fill-opacity:0.4;" d="M 6.519531 10.953125 L 17.355469 10.953125 L 17.355469 11.683594 L 6.519531 11.683594 M 6.519531 10.953125 "/>
</g>
</g>
<g clip-path="url(#clip15)" clip-rule="nonzero">
<g clip-path="url(#clip16)" clip-rule="nonzero">
<path style=" stroke:none;fill-rule:nonzero;fill:rgb(16.862746%,16.862746%,16.862746%);fill-opacity:0.4;" d="M 6.519531 13.144531 L 17.355469 13.144531 L 17.355469 13.871094 L 6.519531 13.871094 M 6.519531 13.144531 "/>
</g>
</g>
<g clip-path="url(#clip17)" clip-rule="nonzero">
<g clip-path="url(#clip18)" clip-rule="nonzero">
<path style=" stroke:none;fill-rule:nonzero;fill:rgb(16.862746%,16.862746%,16.862746%);fill-opacity:0.4;" d="M 6.519531 15.332031 L 17.355469 15.332031 L 17.355469 16.058594 L 6.519531 16.058594 M 6.519531 15.332031 "/>
</g>
</g>
<g clip-path="url(#clip19)" clip-rule="nonzero">
<g clip-path="url(#clip20)" clip-rule="nonzero">
<path style=" stroke:none;fill-rule:nonzero;fill:rgb(16.862746%,16.862746%,16.862746%);fill-opacity:0.4;" d="M 6.519531 17.519531 L 17.355469 17.519531 L 17.355469 18.246094 L 6.519531 18.246094 M 6.519531 17.519531 "/>
</g>
</g>
<path style=" stroke:none;fill-rule:nonzero;fill:rgb(27.843139%,20.784314%,20.784314%);fill-opacity:1;" d="M 8.863281 4.488281 L 14.605469 4.488281 L 14.605469 5.414062 L 8.863281 5.414062 Z M 8.863281 4.488281 "/>
<path style=" stroke:none;fill-rule:nonzero;fill:rgb(65.882355%,61.960787%,54.901963%);fill-opacity:1;" d="M 10.285156 2.957031 L 13.382812 2.957031 L 13.382812 4.949219 L 10.285156 4.949219 Z M 10.285156 2.957031 "/>
<path style=" stroke:none;fill-rule:nonzero;fill:rgb(20%,20%,20%);fill-opacity:1;" d="M 21.441406 15.167969 C 19.429688 15.167969 17.785156 16.894531 17.59375 19.113281 L 25.289062 19.113281 C 25.097656 16.894531 23.453125 15.167969 21.441406 15.167969 Z M 15.640625 19.726562 C 15.210938 19.726562 14.867188 20.117188 14.867188 20.605469 C 14.867188 21.089844 15.210938 21.480469 15.640625 21.480469 L 27.242188 21.480469 C 27.671875 21.480469 28.015625 21.089844 28.015625 20.605469 C 28.015625 20.117188 27.671875 19.726562 27.242188 19.726562 Z M 16.027344 23.058594 C 15.597656 23.058594 15.253906 23.449219 15.253906 23.933594 C 15.253906 24.417969 15.597656 24.8125 16.027344 24.8125 L 19.464844 24.8125 L 16.605469 26.679688 C 16.238281 26.925781 16.109375 27.457031 16.324219 27.878906 C 16.539062 28.300781 17.011719 28.441406 17.382812 28.199219 L 20.863281 25.921875 L 20.863281 23.058594 Z M 22.019531 23.058594 L 22.019531 25.921875 L 25.503906 28.199219 C 25.871094 28.441406 26.34375 28.300781 26.558594 27.878906 C 26.773438 27.457031 26.644531 26.925781 26.277344 26.679688 L 23.417969 24.8125 L 26.855469 24.8125 C 27.285156 24.8125 27.628906 24.417969 27.628906 23.933594 C 27.628906 23.449219 27.285156 23.058594 26.855469 23.058594 Z M 22.019531 23.058594 "/>
<path style=" stroke:none;fill-rule:nonzero;fill:rgb(83.137256%,9.803922%,9.803922%);fill-opacity:1;" d="M 16.800781 19.726562 L 16.800781 23.671875 C 16.800781 23.6875 16.800781 23.699219 16.800781 23.714844 C 16.800781 26.265625 18.472656 28.316406 20.550781 28.316406 L 20.863281 28.316406 L 20.863281 22.183594 L 22.019531 22.183594 L 22.019531 28.316406 L 22.332031 28.316406 C 24.410156 28.316406 26.082031 26.265625 26.082031 23.714844 C 26.082031 23.699219 26.082031 23.6875 26.082031 23.671875 L 26.082031 19.726562 Z M 16.800781 19.726562 "/>
<path style=" stroke:none;fill-rule:nonzero;fill:rgb(97.254902%,97.254902%,97.254902%);fill-opacity:1;" d="M 24.363281 21.582031 C 24.363281 21.894531 24.113281 22.144531 23.800781 22.144531 C 23.492188 22.144531 23.242188 21.894531 23.242188 21.582031 C 23.242188 21.273438 23.492188 21.023438 23.800781 21.023438 C 24.113281 21.023438 24.363281 21.273438 24.363281 21.582031 Z M 24.363281 21.582031 "/>
<path style=" stroke:none;fill-rule:nonzero;fill:rgb(97.254902%,97.254902%,97.254902%);fill-opacity:1;" d="M 19.800781 25.945312 C 19.800781 26.253906 19.550781 26.503906 19.242188 26.503906 C 18.933594 26.503906 18.679688 26.253906 18.679688 25.945312 C 18.679688 25.636719 18.933594 25.386719 19.242188 25.386719 C 19.550781 25.386719 19.800781 25.636719 19.800781 25.945312 Z M 19.800781 25.945312 "/>
<path style=" stroke:none;fill-rule:nonzero;fill:rgb(97.254902%,97.254902%,97.254902%);fill-opacity:1;" d="M 21.878906 20.703125 C 21.878906 21.011719 21.628906 21.261719 21.320312 21.261719 C 21.011719 21.261719 20.761719 21.011719 20.761719 20.703125 C 20.761719 20.394531 21.011719 20.144531 21.320312 20.144531 C 21.628906 20.144531 21.878906 20.394531 21.878906 20.703125 Z M 21.878906 20.703125 "/>
<path style=" stroke:none;fill-rule:nonzero;fill:rgb(97.254902%,97.254902%,97.254902%);fill-opacity:1;" d="M 24.519531 25.746094 C 24.519531 26.054688 24.269531 26.304688 23.960938 26.304688 C 23.652344 26.304688 23.402344 26.054688 23.402344 25.746094 C 23.402344 25.433594 23.652344 25.183594 23.960938 25.183594 C 24.269531 25.183594 24.519531 25.433594 24.519531 25.746094 Z M 24.519531 25.746094 "/>
<path style=" stroke:none;fill-rule:nonzero;fill:rgb(97.254902%,97.254902%,97.254902%);fill-opacity:1;" d="M 25.644531 23.105469 C 25.644531 23.414062 25.390625 23.664062 25.082031 23.664062 C 24.773438 23.664062 24.519531 23.414062 24.519531 23.105469 C 24.519531 22.792969 24.773438 22.542969 25.082031 22.542969 C 25.390625 22.542969 25.644531 22.792969 25.644531 23.105469 Z M 25.644531 23.105469 "/>
<path style=" stroke:none;fill-rule:nonzero;fill:rgb(97.254902%,97.254902%,97.254902%);fill-opacity:1;" d="M 23.5625 24.066406 C 23.5625 24.371094 23.308594 24.625 23.003906 24.625 C 22.691406 24.625 22.441406 24.371094 22.441406 24.066406 C 22.441406 23.753906 22.691406 23.503906 23.003906 23.503906 C 23.308594 23.503906 23.5625 23.753906 23.5625 24.066406 Z M 23.5625 24.066406 "/>
<path style=" stroke:none;fill-rule:nonzero;fill:rgb(97.254902%,97.254902%,97.254902%);fill-opacity:1;" d="M 19.160156 21.222656 C 19.160156 21.535156 18.910156 21.785156 18.601562 21.785156 C 18.292969 21.785156 18.042969 21.535156 18.042969 21.222656 C 18.042969 20.914062 18.292969 20.664062 18.601562 20.664062 C 18.910156 20.664062 19.160156 20.914062 19.160156 21.222656 Z M 19.160156 21.222656 "/>
<path style=" stroke:none;fill-rule:nonzero;fill:rgb(97.254902%,97.254902%,97.254902%);fill-opacity:1;" d="M 20.199219 23.382812 C 20.199219 23.691406 19.949219 23.941406 19.640625 23.941406 C 19.332031 23.941406 19.082031 23.691406 19.082031 23.382812 C 19.082031 23.074219 19.332031 22.824219 19.640625 22.824219 C 19.949219 22.824219 20.199219 23.074219 20.199219 23.382812 Z M 20.199219 23.382812 "/>
<path style=" stroke:none;fill-rule:nonzero;fill:rgb(97.254902%,97.254902%,97.254902%);fill-opacity:1;" d="M 24.363281 21.582031 C 24.363281 21.894531 24.113281 22.144531 23.800781 22.144531 C 23.492188 22.144531 23.242188 21.894531 23.242188 21.582031 C 23.242188 21.273438 23.492188 21.023438 23.800781 21.023438 C 24.113281 21.023438 24.363281 21.273438 24.363281 21.582031 Z M 24.363281 21.582031 "/>
<path style=" stroke:none;fill-rule:nonzero;fill:rgb(97.254902%,97.254902%,97.254902%);fill-opacity:1;" d="M 18.519531 24.222656 C 18.519531 24.535156 18.269531 24.785156 17.960938 24.785156 C 17.652344 24.785156 17.402344 24.535156 17.402344 24.222656 C 17.402344 23.914062 17.652344 23.664062 17.960938 23.664062 C 18.269531 23.664062 18.519531 23.914062 18.519531 24.222656 Z M 18.519531 24.222656 "/>
</g>
</svg>
