
<svg xmlns="http://www.w3.org/2000/svg" xmlns:xlink="http://www.w3.org/1999/xlink" width="32px" height="32px" viewBox="0 0 32 32" version="1.1">
<g id="surface1">
<path style="fill-rule:nonzero;fill:rgb(67.058825%,80.392158%,1.176471%);fill-opacity:1;stroke-width:6.815335;stroke-linecap:butt;stroke-linejoin:miter;stroke:rgb(9.411765%,23.529412%,0.784314%);stroke-opacity:1;stroke-miterlimit:4;" d="M 21.8125 932.534098 L 106.1875 932.534098 C 113.71875 932.534098 119.828125 938.643473 119.828125 946.174723 L 119.828125 1030.549723 C 119.828125 1038.080973 113.71875 1044.190348 106.1875 1044.190348 L 21.8125 1044.190348 C 14.28125 1044.190348 8.171875 1038.080973 8.171875 1030.549723 L 8.171875 946.174723 C 8.171875 938.643473 14.28125 932.534098 21.8125 932.534098 Z M 21.8125 932.534098 " transform="matrix(0.25,0,0,0.25,0,-231.090556)"/>
<path style=" stroke:none;fill-rule:nonzero;fill:rgb(26.274511%,44.705883%,0.784314%);fill-opacity:1;" d="M 21.464844 13.316406 C 21.464844 9.996094 17.789062 7.296875 13.253906 7.296875 C 8.707031 7.296875 5.03125 9.996094 5.03125 13.316406 C 5.03125 15.363281 6.433594 17.160156 8.5625 18.25 L 6.519531 22.128906 L 10.945312 19.070312 C 11.683594 19.226562 12.449219 19.339844 13.253906 19.339844 C 17.792969 19.339844 21.464844 16.644531 21.464844 13.316406 Z M 10.667969 13.972656 L 8.933594 13.972656 L 8.933594 12.234375 L 10.667969 12.234375 Z M 15.933594 12.234375 L 17.671875 12.234375 L 17.671875 13.972656 L 15.933594 13.972656 Z M 12.433594 12.234375 L 14.167969 12.234375 L 14.167969 13.972656 L 12.433594 13.972656 Z M 12.433594 12.234375 "/>
<path style=" stroke:none;fill-rule:nonzero;fill:rgb(9.411765%,23.529412%,0.784314%);fill-opacity:1;" d="M 26.84375 17.105469 C 26.84375 14.921875 25.160156 13.027344 22.695312 12.074219 C 22.816406 12.523438 22.882812 12.988281 22.882812 13.464844 C 22.882812 17.40625 18.527344 20.601562 13.152344 20.601562 C 13.085938 20.601562 13.023438 20.585938 12.957031 20.585938 C 14.375 21.925781 16.589844 22.792969 19.082031 22.792969 C 19.839844 22.792969 20.5625 22.683594 21.257812 22.535156 L 25.441406 25.425781 L 23.511719 21.761719 C 25.519531 20.734375 26.84375 19.035156 26.84375 17.105469 Z M 26.84375 17.105469 "/>
<path style=" stroke:none;fill-rule:nonzero;fill:rgb(100%,100%,100%);fill-opacity:1;" d="M 8.941406 13.121094 L 8.941406 12.277344 L 10.628906 12.277344 L 10.628906 13.964844 L 8.941406 13.964844 Z M 8.941406 13.121094 "/>
<path style=" stroke:none;fill-rule:nonzero;fill:rgb(100%,100%,100%);fill-opacity:1;" d="M 12.441406 13.121094 L 12.441406 12.277344 L 14.128906 12.277344 L 14.128906 13.964844 L 12.441406 13.964844 Z M 12.441406 13.121094 "/>
<path style=" stroke:none;fill-rule:nonzero;fill:rgb(100%,100%,100%);fill-opacity:1;" d="M 15.941406 13.121094 L 15.941406 12.277344 L 17.632812 12.277344 L 17.632812 13.964844 L 15.941406 13.964844 Z M 15.941406 13.121094 "/>
</g>
</svg>
