
<svg xmlns="http://www.w3.org/2000/svg" xmlns:xlink="http://www.w3.org/1999/xlink" width="32px" height="32px" viewBox="0 0 32 32" version="1.1">
<defs>
<clipPath id="clip1">
  <path d="M 2.5625 2.5 L 29.625 2.5 L 29.625 29.75 L 2.5625 29.75 Z M 2.5625 2.5 "/>
</clipPath>
<clipPath id="clip2">
  <path d="M 29.597656 16.101562 C 29.597656 23.609375 23.558594 29.695312 16.109375 29.695312 C 8.660156 29.695312 2.621094 23.609375 2.621094 16.101562 C 2.621094 8.59375 8.660156 2.507812 16.109375 2.507812 C 23.558594 2.507812 29.597656 8.59375 29.597656 16.101562 Z M 29.597656 16.101562 "/>
</clipPath>
</defs>
<g id="surface1">
<path style="fill-rule:nonzero;fill:rgb(100%,100%,100%);fill-opacity:1;stroke-width:28.133291;stroke-linecap:butt;stroke-linejoin:miter;stroke:rgb(83.137256%,16.470589%,100%);stroke-opacity:1;stroke-miterlimit:4;" d="M 81.8125 23.564449 L 430.1875 23.564449 C 461.25 23.564449 486.4375 48.803215 486.4375 79.80907 L 486.4375 428.190852 C 486.4375 459.196707 461.25 484.435472 430.1875 484.435472 L 81.8125 484.435472 C 50.75 484.435472 25.5625 459.196707 25.5625 428.190852 L 25.5625 79.80907 C 25.5625 48.803215 50.75 23.564449 81.8125 23.564449 Z M 81.8125 23.564449 " transform="matrix(0.0625,0,0,0.0629921,0,0)"/>
<g clip-path="url(#clip1)" clip-rule="nonzero">
<g clip-path="url(#clip2)" clip-rule="nonzero">
<path style=" stroke:none;fill-rule:nonzero;fill:rgb(83.137256%,16.470589%,100%);fill-opacity:1;" d="M 15.050781 29.703125 C 14.972656 29.652344 14.972656 29.636719 15.050781 29.585938 C 15.097656 29.554688 15.175781 29.527344 15.21875 29.527344 C 15.378906 29.527344 16.375 29.152344 16.972656 28.871094 C 17.308594 28.710938 17.605469 28.582031 17.636719 28.582031 C 17.660156 28.582031 17.683594 28.636719 17.683594 28.699219 C 17.683594 28.839844 17.449219 29.585938 17.375 29.6875 C 17.304688 29.777344 15.183594 29.792969 15.050781 29.703125 Z M 18.011719 29.589844 C 17.976562 29.535156 18.425781 28.105469 18.523438 27.949219 C 18.546875 27.910156 18.824219 27.726562 19.136719 27.542969 C 19.8125 27.144531 20.53125 26.652344 20.933594 26.308594 L 21.226562 26.058594 L 22.253906 26.089844 C 23.175781 26.113281 24.925781 26.003906 25.488281 25.890625 C 25.753906 25.835938 25.683594 25.992188 25.285156 26.347656 C 23.472656 27.945312 21.1875 29.074219 18.828125 29.53125 C 18.164062 29.660156 18.058594 29.667969 18.011719 29.589844 Z M 13.230469 29.46875 C 12.953125 29.410156 12.316406 29.222656 11.816406 29.054688 L 10.902344 28.746094 L 10.644531 28.382812 C 9.445312 26.710938 8.578125 24.0625 8.449219 21.683594 L 8.414062 21.03125 L 8.550781 21.074219 C 8.839844 21.171875 8.957031 21.199219 9.113281 21.238281 C 10.144531 21.519531 10.628906 21.632812 11.351562 21.820312 C 11.480469 21.851562 11.542969 21.828125 11.8125 22.019531 C 12.566406 22.550781 14.488281 23.710938 15.414062 24.164062 C 16.691406 24.726562 17.332031 25.046875 18.292969 25.453125 C 18.402344 25.558594 18.023438 27.746094 17.863281 27.9375 C 17.6875 28.152344 16.675781 28.753906 16.035156 29.027344 C 14.710938 29.589844 14.183594 29.671875 13.230469 29.46875 Z M 9.867188 28.246094 C 8.121094 27.316406 6.238281 25.601562 5.113281 23.917969 C 3.699219 21.789062 2.917969 19.652344 2.609375 17.027344 C 2.585938 16.835938 2.59375 16.71875 2.628906 16.71875 C 2.664062 16.71875 2.785156 16.871094 2.902344 17.058594 C 3.847656 18.546875 5.222656 19.820312 6.851562 20.699219 L 7.292969 20.941406 L 7.421875 21.734375 C 7.707031 23.445312 8.171875 24.875 8.871094 26.199219 C 9.234375 26.878906 9.679688 27.582031 10.023438 28 C 10.144531 28.152344 10.246094 28.289062 10.246094 28.308594 C 10.246094 28.375 10.042969 28.339844 9.867188 28.246094 Z M 18.832031 27.03125 C 18.855469 26.957031 18.933594 26.632812 19.003906 26.308594 L 19.128906 25.71875 L 19.566406 25.832031 C 20.269531 26.003906 20.273438 25.894531 20.273438 26.078125 C 20.273438 26.246094 20.164062 26.214844 19.300781 26.835938 C 18.867188 27.152344 18.761719 27.25 18.832031 27.03125 Z M 23.542969 25.59375 C 23.425781 25.582031 22.964844 25.527344 22.515625 25.480469 C 22.066406 25.429688 21.675781 25.367188 21.648438 25.339844 C 21.621094 25.316406 21.792969 25.066406 22.03125 24.792969 C 22.269531 24.519531 22.542969 24.191406 22.636719 24.0625 C 22.730469 23.933594 22.964844 23.632812 23.152344 23.394531 C 23.660156 22.742188 24.03125 22.164062 24.402344 21.460938 C 24.636719 21.015625 24.761719 20.722656 24.886719 20.652344 C 25.75 20.179688 26.757812 19.5625 27.472656 18.921875 C 27.632812 18.78125 27.785156 18.667969 27.808594 18.667969 C 28.007812 18.667969 28.105469 21.714844 27.941406 22.738281 C 27.871094 23.179688 27.824219 23.296875 27.546875 23.71875 C 27.082031 24.433594 26.332031 25.347656 26.109375 25.484375 C 25.933594 25.589844 25.800781 25.601562 24.828125 25.609375 C 24.234375 25.613281 23.652344 25.605469 23.542969 25.59375 Z M 19.996094 25.058594 C 19.644531 24.980469 19.324219 24.882812 19.285156 24.84375 C 19.238281 24.792969 19.230469 24.699219 19.269531 24.511719 C 19.296875 24.363281 19.339844 23.730469 19.363281 23.105469 C 19.390625 22.3125 19.425781 21.953125 19.472656 21.910156 C 19.515625 21.875 19.886719 21.785156 20.300781 21.707031 C 21.386719 21.503906 22.265625 21.292969 22.863281 21.089844 C 23.152344 20.988281 23.710938 20.8125 23.738281 20.839844 C 23.820312 20.921875 22.480469 22.925781 21.707031 24.097656 C 21.136719 24.957031 20.917969 25.21875 20.765625 25.214844 C 20.699219 25.210938 20.351562 25.144531 19.996094 25.058594 Z M 17.859375 24.425781 C 16.753906 23.988281 15.132812 23.175781 14.328125 22.738281 C 13.539062 22.308594 12.746094 22.007812 13.539062 22.046875 C 14.699219 22.101562 15.644531 22.167969 17.082031 22.046875 L 18.53125 21.925781 L 18.492188 23.585938 C 18.476562 24.191406 18.453125 24.59375 18.417969 24.605469 C 18.386719 24.613281 18.136719 24.53125 17.859375 24.425781 Z M 28.378906 22.160156 C 28.363281 22.136719 28.390625 21.703125 28.441406 21.199219 C 28.503906 20.558594 28.519531 19.886719 28.503906 18.933594 L 28.476562 17.574219 L 29.152344 16.867188 C 29.527344 16.476562 29.855469 16.148438 29.886719 16.136719 C 30.039062 16.074219 29.777344 18.332031 29.507812 19.402344 C 29.285156 20.292969 28.550781 22.207031 28.433594 22.207031 C 28.417969 22.207031 28.394531 22.1875 28.378906 22.160156 Z M 14.726562 21.226562 C 14.03125 21.183594 13.015625 21.082031 12.386719 20.988281 C 11.816406 20.90625 11.714844 20.871094 11.507812 20.703125 C 10.492188 19.871094 8.609375 17.746094 8.609375 17.425781 C 8.609375 17.152344 9.21875 14.683594 9.3125 14.574219 C 9.335938 14.546875 9.710938 14.449219 10.148438 14.355469 C 11.703125 14.023438 13.773438 13.394531 14.855469 12.921875 C 15.042969 12.839844 15.445312 12.664062 15.746094 12.53125 C 16.050781 12.398438 16.320312 12.308594 16.34375 12.335938 C 16.433594 12.425781 17.097656 14.179688 17.355469 15.007812 C 17.597656 15.78125 17.898438 16.996094 18.121094 18.105469 C 18.214844 18.5625 18.355469 19.59375 18.4375 20.40625 C 18.464844 20.699219 18.5 20.980469 18.511719 21.027344 C 18.527344 21.097656 18.449219 21.125 18.152344 21.152344 C 17.652344 21.199219 15.175781 21.253906 14.726562 21.226562 Z M 19.359375 20.980469 C 19.34375 20.953125 19.300781 20.601562 19.269531 20.199219 C 19.121094 18.445312 18.964844 17.515625 18.589844 16.105469 C 18.285156 14.96875 17.894531 13.871094 17.390625 12.738281 C 17.199219 12.304688 17.042969 11.894531 17.042969 11.824219 C 17.042969 11.636719 17.191406 11.519531 17.953125 11.113281 C 19.816406 10.113281 21.167969 9.238281 21.882812 8.558594 C 22.019531 8.425781 22.105469 8.390625 22.207031 8.417969 C 22.285156 8.4375 22.636719 8.773438 23 9.175781 C 24 10.289062 24.535156 10.980469 25.230469 12.050781 L 25.484375 12.441406 L 25.445312 13.324219 C 25.410156 14.175781 25.253906 15.628906 25.121094 16.304688 C 24.988281 17.003906 24.628906 18.304688 24.316406 19.191406 L 24.164062 19.628906 L 23.800781 19.792969 C 23.390625 19.980469 22.050781 20.441406 21.496094 20.582031 C 21.132812 20.675781 19.511719 21.027344 19.429688 21.027344 C 19.410156 21.027344 19.378906 21.003906 19.359375 20.980469 Z M 9.183594 20.289062 C 8.804688 20.179688 8.472656 20.078125 8.445312 20.058594 C 8.417969 20.042969 8.402344 19.742188 8.417969 19.390625 C 8.441406 18.703125 8.46875 18.488281 8.535156 18.492188 C 8.558594 18.492188 8.710938 18.667969 8.871094 18.882812 C 9.191406 19.3125 9.589844 19.78125 10 20.214844 L 10.261719 20.496094 L 10.066406 20.488281 C 9.957031 20.484375 9.558594 20.394531 9.183594 20.289062 Z M 6.378906 19.210938 C 5.21875 18.578125 4.347656 17.953125 3.566406 17.183594 C 2.980469 16.605469 2.585938 16.097656 2.542969 15.855469 C 2.496094 15.597656 2.542969 14.839844 2.613281 14.769531 C 2.640625 14.742188 2.871094 14.746094 3.132812 14.777344 C 3.390625 14.808594 4.183594 14.839844 4.890625 14.847656 L 6.175781 14.863281 L 6.472656 15.449219 C 6.632812 15.777344 6.902344 16.285156 7.070312 16.582031 L 7.378906 17.128906 L 7.320312 17.824219 C 7.289062 18.207031 7.261719 18.765625 7.261719 19.066406 C 7.261719 19.460938 7.242188 19.609375 7.1875 19.609375 C 7.148438 19.609375 6.785156 19.429688 6.378906 19.210938 Z M 25.414062 18.824219 C 25.414062 18.75 25.480469 18.488281 25.566406 18.25 C 25.796875 17.566406 26.195312 15.542969 26.269531 14.667969 C 26.289062 14.402344 26.332031 14.179688 26.359375 14.179688 C 26.539062 14.179688 27.765625 17.222656 27.675781 17.457031 C 27.628906 17.582031 25.578125 18.960938 25.441406 18.960938 C 25.425781 18.960938 25.414062 18.898438 25.414062 18.824219 Z M 28.207031 16.851562 C 28.191406 16.828125 28.113281 16.554688 28.027344 16.246094 C 27.652344 14.882812 27.152344 13.558594 26.597656 12.46875 C 26.246094 11.785156 26.214844 11.683594 26.140625 11.113281 C 25.910156 9.351562 25.460938 7.769531 24.796875 6.390625 C 24.414062 5.601562 24.414062 5.601562 24.53125 5.484375 C 24.699219 5.316406 24.808594 5.382812 25.554688 6.101562 C 27.242188 7.722656 28.410156 9.503906 29.183594 11.644531 C 29.460938 12.410156 29.621094 13.054688 29.777344 14.0625 C 29.910156 14.894531 29.910156 14.925781 29.808594 15.152344 C 29.625 15.574219 28.285156 16.988281 28.207031 16.851562 Z M 7.382812 15.453125 C 6.992188 14.714844 7.089844 14.84375 7.527344 14.761719 C 7.695312 14.730469 7.949219 14.683594 7.980469 14.71875 C 8.011719 14.753906 7.890625 15.1875 7.84375 15.464844 C 7.796875 15.722656 7.757812 15.941406 7.757812 15.949219 C 7.753906 15.957031 7.734375 15.964844 7.707031 15.964844 C 7.679688 15.964844 7.535156 15.734375 7.382812 15.453125 Z M 3.394531 14.070312 L 2.722656 14.035156 L 2.703125 13.867188 C 2.632812 13.238281 3.359375 11.03125 4.050781 9.777344 C 4.417969 9.105469 4.554688 8.914062 4.628906 8.957031 C 4.652344 8.972656 4.691406 9.164062 4.714844 9.386719 C 4.808594 10.285156 5.25 12.089844 5.65625 13.222656 C 5.867188 13.808594 5.90625 13.972656 5.847656 14.011719 C 5.800781 14.039062 5.542969 14.0625 5.265625 14.0625 C 4.988281 14.0625 4.605469 14.074219 4.414062 14.082031 C 4.226562 14.097656 3.765625 14.089844 3.394531 14.070312 Z M 6.519531 13.871094 C 6.410156 13.699219 6.175781 13.078125 5.855469 12.113281 C 5.519531 11.121094 5.300781 10.230469 5.035156 8.820312 L 4.910156 8.152344 L 5.234375 7.71875 C 5.941406 6.769531 7.058594 5.722656 8.167969 4.964844 C 8.859375 4.492188 9.609375 4.0625 9.730469 4.074219 C 9.9375 4.089844 11.332031 5.121094 12.109375 6.027344 L 12.519531 6.507812 L 12.160156 6.898438 C 10.4375 8.769531 9.164062 10.769531 8.316406 13.070312 C 8.175781 13.449219 8.023438 13.777344 7.976562 13.796875 C 7.886719 13.832031 6.917969 13.941406 6.691406 13.941406 C 6.621094 13.945312 6.542969 13.910156 6.519531 13.871094 Z M 9.660156 13.324219 C 9.660156 13.175781 10.355469 11.59375 10.730469 10.875 C 11.421875 9.558594 12.972656 7.277344 13.175781 7.277344 C 13.296875 7.277344 14.242188 8.480469 14.867188 9.425781 C 15.332031 10.132812 15.972656 11.257812 15.945312 11.308594 C 15.90625 11.375 15.316406 11.644531 14.433594 11.996094 C 13.113281 12.527344 11.875 12.933594 10.640625 13.242188 C 9.859375 13.4375 9.660156 13.453125 9.660156 13.324219 Z M 16.589844 10.863281 C 16.558594 10.820312 16.433594 10.613281 16.308594 10.402344 C 15.675781 9.324219 14.839844 8.160156 14.066406 7.292969 C 13.800781 6.992188 13.585938 6.695312 13.585938 6.632812 C 13.585938 6.480469 14.445312 5.671875 15.265625 5.054688 C 16.15625 4.382812 16.125 4.394531 16.605469 4.589844 C 18.105469 5.191406 19.679688 6.085938 20.867188 7.007812 C 21.121094 7.203125 21.402344 7.417969 21.496094 7.480469 C 21.589844 7.546875 21.65625 7.628906 21.644531 7.660156 C 21.570312 7.910156 18.878906 9.757812 17.332031 10.621094 C 16.738281 10.957031 16.675781 10.972656 16.589844 10.863281 Z M 25.207031 10.183594 C 25.175781 10.15625 24.9375 9.871094 24.679688 9.546875 C 24.425781 9.222656 23.902344 8.636719 23.527344 8.242188 C 23.089844 7.792969 22.839844 7.484375 22.839844 7.40625 C 22.839844 7.292969 23.082031 7.082031 24.078125 6.339844 C 24.175781 6.261719 24.199219 6.285156 24.355469 6.632812 C 24.722656 7.464844 25.191406 9.101562 25.273438 9.855469 C 25.3125 10.238281 25.308594 10.253906 25.207031 10.183594 Z M 22.167969 6.988281 C 22.105469 6.886719 20.984375 6.050781 20.386719 5.660156 C 19.554688 5.117188 17.949219 4.292969 17.226562 4.042969 C 16.953125 3.949219 16.871094 3.839844 16.976562 3.710938 C 17.074219 3.589844 17.964844 3.214844 18.746094 2.964844 L 19.425781 2.75 L 19.800781 2.847656 C 20.488281 3.027344 21.574219 3.445312 22.296875 3.8125 L 23.011719 4.171875 L 23.480469 4.808594 C 23.738281 5.15625 23.949219 5.460938 23.949219 5.480469 C 23.949219 5.535156 22.671875 6.808594 22.488281 6.933594 C 22.324219 7.050781 22.21875 7.066406 22.167969 6.988281 Z M 12.699219 5.878906 C 12.464844 5.59375 11.097656 4.484375 10.351562 3.976562 C 10.199219 3.871094 10.074219 3.765625 10.074219 3.738281 C 10.074219 3.636719 10.238281 3.5625 10.777344 3.433594 C 11.3125 3.308594 11.367188 3.308594 12.296875 3.378906 C 13.707031 3.484375 15.347656 3.808594 15.417969 3.992188 C 15.464844 4.105469 15.402344 4.167969 15.019531 4.414062 C 14.558594 4.707031 13.628906 5.402344 13.269531 5.722656 C 12.964844 5.996094 12.828125 6.035156 12.699219 5.878906 Z M 23.980469 4.929688 C 23.722656 4.542969 23.828125 4.433594 24.175781 4.730469 C 24.332031 4.859375 24.367188 4.921875 24.332031 5.023438 C 24.277344 5.210938 24.148438 5.179688 23.980469 4.929688 Z M 15.691406 3.550781 C 15.292969 3.410156 13.644531 3.097656 13.058594 3.054688 C 12.285156 2.996094 12.121094 2.964844 12.121094 2.878906 C 12.121094 2.785156 12.609375 2.667969 13.675781 2.511719 C 14.25 2.425781 14.785156 2.410156 16.644531 2.40625 C 18.203125 2.40625 18.929688 2.425781 18.972656 2.472656 C 19.066406 2.566406 18.953125 2.632812 18.507812 2.753906 C 18.113281 2.863281 16.683594 3.453125 16.488281 3.59375 C 16.332031 3.699219 16.089844 3.6875 15.691406 3.550781 Z M 15.691406 3.550781 "/>
</g>
</g>
</g>
</svg>
