
<svg xmlns="http://www.w3.org/2000/svg" xmlns:xlink="http://www.w3.org/1999/xlink" width="32px" height="32px" viewBox="0 0 32 32" version="1.1">
<g id="surface1">
<path style="fill-rule:nonzero;fill:rgb(100%,100%,100%);fill-opacity:1;stroke-width:28.191782;stroke-linecap:butt;stroke-linejoin:miter;stroke:rgb(13.333334%,21.176471%,33.725491%);stroke-opacity:1;stroke-miterlimit:4;" d="M 81.5 25.0625 L 430.5 25.0625 C 461.6875 25.0625 486.9375 50.3125 486.9375 81.5 L 486.9375 430.5 C 486.9375 461.6875 461.6875 486.9375 430.5 486.9375 L 81.5 486.9375 C 50.3125 486.9375 25.0625 461.6875 25.0625 430.5 L 25.0625 81.5 C 25.0625 50.3125 50.3125 25.0625 81.5 25.0625 Z M 81.5 25.0625 " transform="matrix(0.0625,0,0,0.0625,0,0)"/>
<path style=" stroke:none;fill-rule:nonzero;fill:rgb(13.333334%,21.176471%,33.725491%);fill-opacity:1;" d="M 4.640625 4.640625 L 4.640625 27.359375 L 27.359375 27.359375 L 27.359375 4.640625 Z M 6.34375 6.34375 L 8.050781 6.34375 L 8.050781 8.050781 L 6.34375 8.050781 Z M 23.949219 6.34375 L 25.65625 6.34375 L 25.65625 8.050781 L 23.949219 8.050781 Z M 6.34375 10.605469 L 8.050781 10.605469 L 8.050781 12.308594 L 6.34375 12.308594 Z M 23.949219 10.605469 L 25.65625 10.605469 L 25.65625 12.308594 L 23.949219 12.308594 Z M 6.34375 15.148438 L 8.050781 15.148438 L 8.050781 16.851562 L 6.34375 16.851562 Z M 23.949219 15.148438 L 25.65625 15.148438 L 25.65625 16.851562 L 23.949219 16.851562 Z M 6.34375 19.691406 L 8.050781 19.691406 L 8.050781 21.394531 L 6.34375 21.394531 Z M 23.949219 19.691406 L 25.65625 19.691406 L 25.65625 21.394531 L 23.949219 21.394531 Z M 6.34375 23.949219 L 8.050781 23.949219 L 8.050781 25.65625 L 6.34375 25.65625 Z M 23.949219 23.949219 L 25.65625 23.949219 L 25.65625 25.65625 L 23.949219 25.65625 Z M 23.949219 23.949219 "/>
<path style=" stroke:none;fill-rule:nonzero;fill:rgb(29.019609%,68.235296%,90.980393%);fill-opacity:1;" d="M 9.753906 6.34375 L 22.246094 6.34375 L 22.246094 10.886719 L 9.753906 10.886719 Z M 9.753906 6.34375 "/>
<path style=" stroke:none;fill-rule:nonzero;fill:rgb(29.019609%,68.235296%,90.980393%);fill-opacity:1;" d="M 9.753906 21.113281 L 22.246094 21.113281 L 22.246094 25.65625 L 9.753906 25.65625 Z M 9.753906 21.113281 "/>
<path style=" stroke:none;fill-rule:nonzero;fill:rgb(29.019609%,68.235296%,90.980393%);fill-opacity:1;" d="M 9.753906 12.023438 L 22.246094 12.023438 L 22.246094 19.976562 L 9.753906 19.976562 Z M 9.753906 12.023438 "/>
<path style=" stroke:none;fill-rule:evenodd;fill:rgb(100%,100%,100%);fill-opacity:1;" d="M 14.121094 14.175781 L 14.121094 18.3125 L 18.457031 16.246094 Z M 14.121094 14.175781 "/>
</g>
</svg>
