
<svg xmlns="http://www.w3.org/2000/svg" xmlns:xlink="http://www.w3.org/1999/xlink" width="32px" height="32px" viewBox="0 0 32 32" version="1.1">
<g id="surface1">
<path style=" stroke:none;fill-rule:evenodd;fill:rgb(83.137256%,10.196079%,10.196079%);fill-opacity:1;" d="M 5.070312 1.9375 L 26.929688 1.9375 C 28.660156 1.9375 30.0625 3.339844 30.0625 5.070312 L 30.0625 26.929688 C 30.0625 28.660156 28.660156 30.0625 26.929688 30.0625 L 5.070312 30.0625 C 3.339844 30.0625 1.9375 28.660156 1.9375 26.929688 L 1.9375 5.070312 C 1.9375 3.339844 3.339844 1.9375 5.070312 1.9375 Z M 5.070312 1.9375 "/>
<path style="fill-rule:nonzero;fill:rgb(83.529413%,83.529413%,83.529413%);fill-opacity:1;stroke-width:16.912533;stroke-linecap:butt;stroke-linejoin:miter;stroke:rgb(100%,100%,100%);stroke-opacity:1;stroke-miterlimit:4;" d="M 443.5 256.3125 C 443.5 151.3125 359.5625 66.125 256 66.125 C 152.4375 66.125 68.5 151.3125 68.5 256.3125 C 68.5 361.375 152.4375 446.5625 256 446.5625 C 359.5625 446.5625 443.5 361.375 443.5 256.3125 Z M 443.5 256.3125 " transform="matrix(0.0625,0,0,0.0625,0,0)"/>
<path style=" stroke:none;fill-rule:nonzero;fill:rgb(40.000001%,40.000001%,40.000001%);fill-opacity:1;" d="M 18.667969 14.738281 L 13.332031 14.738281 L 13.332031 21.050781 L 9.777344 21.050781 L 16 27.363281 L 22.222656 21.050781 L 18.667969 21.050781 Z M 18.667969 14.738281 "/>
<path style=" stroke:none;fill-rule:nonzero;fill:rgb(40.000001%,40.000001%,40.000001%);fill-opacity:1;" d="M 13.332031 17.277344 L 18.667969 17.277344 L 18.667969 10.964844 L 22.222656 10.964844 L 16 4.652344 L 9.777344 10.964844 L 13.332031 10.964844 Z M 13.332031 17.277344 "/>
<path style=" stroke:none;fill-rule:evenodd;fill:rgb(83.137256%,10.196079%,10.196079%);fill-opacity:1;" d="M 10.070312 12.808594 L 21.929688 12.808594 C 22.980469 12.808594 23.835938 13.660156 23.835938 14.710938 L 23.835938 17.289062 C 23.835938 18.339844 22.980469 19.191406 21.929688 19.191406 L 10.070312 19.191406 C 9.019531 19.191406 8.164062 18.339844 8.164062 17.289062 L 8.164062 14.710938 C 8.164062 13.660156 9.019531 12.808594 10.070312 12.808594 Z M 10.070312 12.808594 "/>
</g>
</svg>
