
<svg xmlns="http://www.w3.org/2000/svg" xmlns:xlink="http://www.w3.org/1999/xlink" width="32px" height="32px" viewBox="0 0 32 32" version="1.1">
<g id="surface1">
<path style="fill-rule:nonzero;fill:rgb(21.960784%,39.607844%,60.392159%);fill-opacity:1;stroke-width:57.039246;stroke-linecap:butt;stroke-linejoin:miter;stroke:rgb(6.666667%,20.392157%,31.37255%);stroke-opacity:1;stroke-miterlimit:4;" d="M 158.875 44.875 L 865.125 44.875 C 928.125 44.875 979.125 95.875 979.125 158.875 L 979.125 865.125 C 979.125 928.125 928.125 979.125 865.125 979.125 L 158.875 979.125 C 95.875 979.125 44.875 928.125 44.875 865.125 L 44.875 158.875 C 44.875 95.875 95.875 44.875 158.875 44.875 Z M 158.875 44.875 " transform="matrix(0.03125,0,0,0.03125,0,0)"/>
<path style=" stroke:none;fill-rule:nonzero;fill:rgb(100%,100%,100%);fill-opacity:1;" d="M 21.832031 9.304688 C 21.917969 9.386719 22.003906 9.460938 22.101562 9.519531 C 22.308594 9.644531 22.542969 9.707031 22.808594 9.707031 C 23.1875 9.707031 23.511719 9.574219 23.78125 9.304688 C 24.050781 9.035156 24.183594 8.710938 24.183594 8.332031 C 24.183594 8.066406 24.121094 7.832031 23.992188 7.621094 C 23.933594 7.527344 23.863281 7.441406 23.78125 7.355469 C 23.511719 7.085938 23.1875 6.953125 22.808594 6.953125 C 22.425781 6.953125 22.101562 7.085938 21.832031 7.355469 C 21.5625 7.625 21.429688 7.949219 21.429688 8.332031 C 21.429688 8.710938 21.5625 9.035156 21.832031 9.304688 Z M 20.660156 4.617188 C 20.660156 4.355469 20.597656 4.121094 20.472656 3.910156 C 20.410156 3.816406 20.339844 3.722656 20.257812 3.640625 C 19.988281 3.371094 19.667969 3.238281 19.285156 3.238281 C 18.902344 3.238281 18.582031 3.371094 18.308594 3.640625 C 18.042969 3.910156 17.90625 4.238281 17.90625 4.617188 C 17.90625 4.996094 18.042969 5.324219 18.308594 5.589844 C 18.394531 5.675781 18.480469 5.746094 18.578125 5.800781 C 18.785156 5.933594 19.023438 5.996094 19.285156 5.996094 C 19.667969 5.996094 19.988281 5.859375 20.257812 5.589844 C 20.527344 5.324219 20.660156 4.996094 20.660156 4.617188 Z M 17.136719 4.617188 C 17.136719 4.355469 17.074219 4.121094 16.949219 3.910156 C 16.890625 3.816406 16.816406 3.722656 16.738281 3.640625 C 16.464844 3.371094 16.144531 3.238281 15.761719 3.238281 C 15.378906 3.238281 15.058594 3.371094 14.785156 3.640625 C 14.519531 3.910156 14.386719 4.238281 14.386719 4.617188 C 14.386719 4.996094 14.519531 5.324219 14.785156 5.589844 C 14.871094 5.675781 14.957031 5.746094 15.054688 5.800781 C 15.261719 5.933594 15.5 5.996094 15.761719 5.996094 C 16.144531 5.996094 16.464844 5.859375 16.738281 5.589844 C 17.003906 5.324219 17.136719 4.996094 17.136719 4.617188 Z M 20.472656 11.339844 C 20.410156 11.242188 20.339844 11.152344 20.257812 11.070312 C 19.988281 10.800781 19.667969 10.667969 19.285156 10.667969 C 18.902344 10.667969 18.582031 10.800781 18.308594 11.070312 C 18.042969 11.339844 17.90625 11.667969 17.90625 12.042969 C 17.90625 12.425781 18.042969 12.75 18.308594 13.019531 C 18.394531 13.105469 18.480469 13.175781 18.578125 13.230469 C 18.785156 13.359375 19.023438 13.425781 19.285156 13.425781 C 19.667969 13.425781 19.988281 13.285156 20.257812 13.019531 C 20.527344 12.75 20.660156 12.425781 20.660156 12.042969 C 20.660156 11.785156 20.597656 11.546875 20.472656 11.339844 Z M 16.949219 11.339844 C 16.890625 11.242188 16.816406 11.152344 16.738281 11.070312 C 16.464844 10.800781 16.144531 10.667969 15.761719 10.667969 C 15.378906 10.667969 15.058594 10.800781 14.785156 11.070312 C 14.519531 11.339844 14.386719 11.667969 14.386719 12.042969 C 14.386719 12.425781 14.519531 12.75 14.785156 13.019531 C 14.871094 13.105469 14.957031 13.175781 15.054688 13.230469 C 15.261719 13.359375 15.5 13.425781 15.761719 13.425781 C 16.144531 13.425781 16.464844 13.285156 16.738281 13.019531 C 17.003906 12.75 17.136719 12.425781 17.136719 12.042969 C 17.136719 11.785156 17.074219 11.546875 16.949219 11.339844 Z M 17.136719 15.761719 C 17.136719 15.496094 17.074219 15.261719 16.949219 15.050781 C 16.886719 14.957031 16.816406 14.867188 16.738281 14.785156 C 16.464844 14.515625 16.144531 14.378906 15.761719 14.378906 C 15.378906 14.378906 15.058594 14.515625 14.785156 14.785156 C 14.519531 15.050781 14.386719 15.378906 14.386719 15.761719 C 14.386719 16.140625 14.519531 16.464844 14.785156 16.734375 C 14.871094 16.816406 14.957031 16.886719 15.054688 16.949219 C 15.261719 17.074219 15.5 17.136719 15.761719 17.136719 C 16.144531 17.136719 16.464844 17.003906 16.738281 16.734375 C 17.003906 16.464844 17.136719 16.140625 17.136719 15.761719 Z M 16.949219 18.769531 C 16.890625 18.671875 16.816406 18.582031 16.738281 18.496094 C 16.464844 18.230469 16.144531 18.097656 15.761719 18.097656 C 15.378906 18.097656 15.058594 18.230469 14.785156 18.496094 C 14.519531 18.769531 14.386719 19.09375 14.386719 19.472656 C 14.386719 19.855469 14.519531 20.179688 14.785156 20.449219 C 14.871094 20.53125 14.957031 20.605469 15.054688 20.660156 C 15.261719 20.789062 15.5 20.855469 15.761719 20.855469 C 16.144531 20.855469 16.464844 20.714844 16.738281 20.449219 C 17.003906 20.179688 17.136719 19.855469 17.136719 19.472656 C 17.136719 19.214844 17.074219 18.976562 16.949219 18.769531 Z M 17.136719 23.191406 C 17.136719 22.925781 17.074219 22.691406 16.949219 22.480469 C 16.890625 22.386719 16.816406 22.296875 16.738281 22.214844 C 16.464844 21.945312 16.144531 21.808594 15.761719 21.808594 C 15.378906 21.808594 15.058594 21.945312 14.785156 22.214844 C 14.519531 22.480469 14.386719 22.808594 14.386719 23.191406 C 14.386719 23.566406 14.519531 23.894531 14.785156 24.160156 C 14.871094 24.246094 14.957031 24.316406 15.054688 24.375 C 15.261719 24.503906 15.5 24.566406 15.761719 24.566406 C 16.144531 24.566406 16.464844 24.433594 16.738281 24.160156 C 17.003906 23.894531 17.136719 23.566406 17.136719 23.191406 Z M 16.949219 26.195312 C 16.890625 26.097656 16.816406 26.011719 16.738281 25.925781 C 16.464844 25.660156 16.144531 25.527344 15.761719 25.527344 C 15.378906 25.527344 15.058594 25.660156 14.785156 25.925781 C 14.519531 26.199219 14.386719 26.523438 14.386719 26.902344 C 14.386719 27.285156 14.519531 27.605469 14.785156 27.878906 C 14.871094 27.957031 14.957031 28.03125 15.054688 28.089844 C 15.261719 28.214844 15.5 28.28125 15.761719 28.28125 C 16.144531 28.28125 16.464844 28.144531 16.738281 27.878906 C 17.003906 27.605469 17.136719 27.285156 17.136719 26.902344 C 17.136719 26.640625 17.074219 26.402344 16.949219 26.195312 Z M 13.425781 3.910156 C 13.371094 3.816406 13.296875 3.722656 13.214844 3.640625 C 12.941406 3.371094 12.621094 3.238281 12.238281 3.238281 C 11.855469 3.238281 11.535156 3.371094 11.261719 3.640625 C 10.996094 3.910156 10.863281 4.238281 10.863281 4.617188 C 10.863281 4.996094 10.996094 5.324219 11.261719 5.589844 C 11.347656 5.675781 11.433594 5.746094 11.53125 5.800781 C 11.738281 5.933594 11.976562 5.996094 12.238281 5.996094 C 12.621094 5.996094 12.941406 5.859375 13.214844 5.589844 C 13.480469 5.324219 13.621094 4.996094 13.621094 4.617188 C 13.621094 4.355469 13.554688 4.121094 13.425781 3.910156 Z M 7.738281 9.304688 C 7.824219 9.386719 7.917969 9.460938 8.011719 9.519531 C 8.21875 9.644531 8.457031 9.707031 8.714844 9.707031 C 9.097656 9.707031 9.417969 9.574219 9.691406 9.304688 C 9.957031 9.035156 10.097656 8.710938 10.097656 8.332031 C 10.097656 8.066406 10.03125 7.832031 9.902344 7.621094 C 9.84375 7.527344 9.769531 7.441406 9.691406 7.355469 C 9.417969 7.085938 9.097656 6.953125 8.714844 6.953125 C 8.335938 6.953125 8.011719 7.085938 7.738281 7.355469 C 7.472656 7.625 7.339844 7.949219 7.339844 8.332031 C 7.339844 8.710938 7.472656 9.035156 7.738281 9.304688 Z M 13.425781 11.339844 C 13.371094 11.246094 13.296875 11.152344 13.214844 11.070312 C 12.941406 10.800781 12.621094 10.667969 12.238281 10.667969 C 11.855469 10.667969 11.535156 10.800781 11.261719 11.070312 C 10.996094 11.339844 10.863281 11.667969 10.863281 12.042969 C 10.863281 12.425781 10.996094 12.75 11.261719 13.019531 C 11.347656 13.105469 11.433594 13.175781 11.53125 13.230469 C 11.738281 13.359375 11.976562 13.425781 12.238281 13.425781 C 12.621094 13.425781 12.941406 13.285156 13.214844 13.019531 C 13.480469 12.75 13.621094 12.425781 13.621094 12.042969 C 13.621094 11.785156 13.554688 11.550781 13.425781 11.339844 Z M 13.425781 26.195312 C 13.371094 26.097656 13.296875 26.011719 13.214844 25.925781 C 12.941406 25.660156 12.621094 25.527344 12.238281 25.527344 C 11.855469 25.527344 11.535156 25.660156 11.261719 25.925781 C 10.996094 26.199219 10.863281 26.523438 10.863281 26.902344 C 10.863281 27.285156 10.996094 27.605469 11.261719 27.878906 C 11.347656 27.957031 11.433594 28.03125 11.53125 28.089844 C 11.738281 28.214844 11.976562 28.28125 12.238281 28.28125 C 12.621094 28.28125 12.941406 28.144531 13.214844 27.878906 C 13.480469 27.605469 13.621094 27.285156 13.621094 26.902344 C 13.621094 26.644531 13.554688 26.40625 13.425781 26.195312 Z M 13.425781 26.195312 "/>
<path style=" stroke:none;fill-rule:nonzero;fill:rgb(0%,0%,0%);fill-opacity:0.2;" d="M 22.101562 9.519531 C 22.160156 9.613281 22.230469 9.699219 22.308594 9.785156 C 22.582031 10.050781 22.902344 10.191406 23.285156 10.191406 C 23.667969 10.191406 23.988281 10.050781 24.261719 9.785156 C 24.527344 9.515625 24.664062 9.191406 24.664062 8.808594 C 24.664062 8.429688 24.527344 8.105469 24.261719 7.832031 C 24.175781 7.75 24.089844 7.679688 23.992188 7.621094 C 24.121094 7.832031 24.183594 8.066406 24.183594 8.332031 C 24.183594 8.710938 24.050781 9.035156 23.78125 9.304688 C 23.511719 9.574219 23.1875 9.707031 22.808594 9.707031 C 22.542969 9.707031 22.308594 9.644531 22.101562 9.519531 Z M 20.472656 3.910156 C 20.597656 4.121094 20.660156 4.355469 20.660156 4.617188 C 20.660156 4.996094 20.527344 5.324219 20.257812 5.589844 C 19.988281 5.859375 19.667969 5.996094 19.285156 5.996094 C 19.023438 5.996094 18.785156 5.933594 18.578125 5.800781 C 18.636719 5.894531 18.707031 5.988281 18.789062 6.066406 C 19.058594 6.339844 19.382812 6.472656 19.761719 6.472656 C 20.144531 6.472656 20.464844 6.339844 20.738281 6.066406 C 21.003906 5.800781 21.140625 5.476562 21.140625 5.097656 C 21.140625 4.714844 21.003906 4.386719 20.738281 4.121094 C 20.652344 4.035156 20.566406 3.964844 20.472656 3.910156 Z M 16.949219 3.910156 C 17.074219 4.121094 17.136719 4.355469 17.136719 4.617188 C 17.136719 4.996094 17.003906 5.324219 16.738281 5.589844 C 16.464844 5.859375 16.144531 5.996094 15.761719 5.996094 C 15.5 5.996094 15.261719 5.933594 15.054688 5.800781 C 15.113281 5.894531 15.183594 5.988281 15.265625 6.066406 C 15.535156 6.339844 15.859375 6.472656 16.238281 6.472656 C 16.621094 6.472656 16.945312 6.339844 17.214844 6.066406 C 17.480469 5.800781 17.621094 5.476562 17.621094 5.097656 C 17.621094 4.714844 17.480469 4.386719 17.214844 4.121094 C 17.128906 4.035156 17.042969 3.964844 16.949219 3.910156 Z M 17.214844 7.832031 C 17.128906 7.753906 17.042969 7.683594 16.949219 7.621094 C 17.074219 7.832031 17.136719 8.066406 17.136719 8.332031 C 17.136719 8.710938 17.003906 9.035156 16.738281 9.304688 C 16.464844 9.574219 16.144531 9.707031 15.761719 9.707031 C 15.5 9.707031 15.261719 9.644531 15.054688 9.519531 C 15.113281 9.613281 15.183594 9.699219 15.265625 9.785156 C 15.535156 10.050781 15.859375 10.191406 16.238281 10.191406 C 16.621094 10.191406 16.945312 10.050781 17.214844 9.785156 C 17.480469 9.515625 17.621094 9.191406 17.621094 8.808594 C 17.621094 8.429688 17.480469 8.105469 17.214844 7.832031 Z M 20.738281 7.832031 C 20.652344 7.75 20.566406 7.679688 20.46875 7.621094 C 20.597656 7.832031 20.660156 8.066406 20.660156 8.332031 C 20.660156 8.710938 20.527344 9.035156 20.257812 9.304688 C 19.988281 9.574219 19.667969 9.707031 19.285156 9.707031 C 19.023438 9.707031 18.785156 9.644531 18.582031 9.519531 C 18.636719 9.613281 18.707031 9.699219 18.789062 9.785156 C 19.058594 10.050781 19.382812 10.191406 19.761719 10.191406 C 20.144531 10.191406 20.464844 10.050781 20.738281 9.785156 C 21.003906 9.515625 21.140625 9.191406 21.140625 8.808594 C 21.140625 8.429688 21.003906 8.105469 20.738281 7.832031 Z M 20.472656 11.339844 C 20.597656 11.546875 20.660156 11.785156 20.660156 12.042969 C 20.660156 12.425781 20.527344 12.75 20.257812 13.019531 C 19.988281 13.285156 19.667969 13.425781 19.285156 13.425781 C 19.023438 13.425781 18.785156 13.359375 18.578125 13.230469 C 18.636719 13.324219 18.707031 13.417969 18.789062 13.496094 C 19.058594 13.769531 19.382812 13.902344 19.761719 13.902344 C 20.144531 13.902344 20.464844 13.769531 20.738281 13.496094 C 21.003906 13.230469 21.140625 12.902344 21.140625 12.527344 C 21.140625 12.144531 21.003906 11.816406 20.738281 11.550781 C 20.652344 11.464844 20.566406 11.394531 20.472656 11.339844 Z M 16.949219 11.339844 C 17.074219 11.546875 17.136719 11.785156 17.136719 12.042969 C 17.136719 12.425781 17.003906 12.75 16.738281 13.019531 C 16.464844 13.285156 16.144531 13.425781 15.761719 13.425781 C 15.5 13.425781 15.261719 13.359375 15.054688 13.230469 C 15.113281 13.324219 15.183594 13.417969 15.265625 13.496094 C 15.535156 13.769531 15.859375 13.902344 16.238281 13.902344 C 16.621094 13.902344 16.945312 13.769531 17.214844 13.496094 C 17.480469 13.230469 17.621094 12.902344 17.621094 12.527344 C 17.621094 12.144531 17.480469 11.816406 17.214844 11.550781 C 17.128906 11.464844 17.042969 11.394531 16.949219 11.339844 Z M 16.949219 15.050781 C 17.074219 15.261719 17.136719 15.496094 17.136719 15.761719 C 17.136719 16.140625 17.003906 16.464844 16.738281 16.734375 C 16.464844 17.003906 16.144531 17.136719 15.761719 17.136719 C 15.5 17.136719 15.261719 17.074219 15.054688 16.949219 C 15.113281 17.042969 15.183594 17.128906 15.265625 17.214844 C 15.535156 17.480469 15.859375 17.617188 16.238281 17.617188 C 16.621094 17.617188 16.945312 17.480469 17.214844 17.214844 C 17.480469 16.941406 17.621094 16.621094 17.621094 16.238281 C 17.621094 15.859375 17.480469 15.535156 17.214844 15.261719 C 17.128906 15.179688 17.042969 15.109375 16.949219 15.050781 Z M 20.46875 15.050781 C 20.597656 15.261719 20.660156 15.496094 20.660156 15.761719 C 20.660156 16.140625 20.527344 16.464844 20.257812 16.734375 C 19.988281 17.003906 19.667969 17.136719 19.285156 17.136719 C 19.023438 17.136719 18.785156 17.074219 18.582031 16.949219 C 18.636719 17.042969 18.707031 17.128906 18.789062 17.214844 C 19.058594 17.480469 19.382812 17.617188 19.761719 17.617188 C 20.144531 17.617188 20.464844 17.480469 20.738281 17.214844 C 21.003906 16.941406 21.140625 16.621094 21.140625 16.238281 C 21.140625 15.859375 21.003906 15.535156 20.738281 15.261719 C 20.652344 15.179688 20.566406 15.109375 20.46875 15.050781 Z M 24.664062 12.527344 C 24.664062 12.144531 24.527344 11.816406 24.261719 11.550781 C 24.175781 11.464844 24.089844 11.394531 23.992188 11.339844 C 24.121094 11.546875 24.183594 11.785156 24.183594 12.042969 C 24.183594 12.425781 24.050781 12.75 23.78125 13.019531 C 23.511719 13.285156 23.1875 13.425781 22.808594 13.425781 C 22.542969 13.425781 22.308594 13.359375 22.101562 13.230469 C 22.160156 13.324219 22.230469 13.417969 22.308594 13.496094 C 22.582031 13.769531 22.902344 13.902344 23.285156 13.902344 C 23.667969 13.902344 23.988281 13.769531 24.261719 13.496094 C 24.527344 13.230469 24.664062 12.902344 24.664062 12.527344 Z M 25.621094 13.230469 C 25.683594 13.324219 25.753906 13.417969 25.832031 13.496094 C 26.105469 13.769531 26.425781 13.902344 26.808594 13.902344 C 27.191406 13.902344 27.511719 13.769531 27.785156 13.496094 C 28.050781 13.230469 28.183594 12.902344 28.183594 12.527344 C 28.183594 12.144531 28.050781 11.816406 27.785156 11.550781 C 27.699219 11.464844 27.613281 11.394531 27.515625 11.339844 C 27.644531 11.546875 27.707031 11.785156 27.707031 12.042969 C 27.707031 12.425781 27.574219 12.75 27.300781 13.019531 C 27.035156 13.285156 26.710938 13.425781 26.332031 13.425781 C 26.066406 13.425781 25.832031 13.359375 25.621094 13.230469 Z M 23.992188 15.050781 C 24.121094 15.261719 24.183594 15.496094 24.183594 15.761719 C 24.183594 16.140625 24.050781 16.464844 23.78125 16.734375 C 23.511719 17.003906 23.1875 17.136719 22.808594 17.136719 C 22.542969 17.136719 22.308594 17.074219 22.101562 16.949219 C 22.160156 17.042969 22.230469 17.128906 22.308594 17.214844 C 22.582031 17.480469 22.902344 17.617188 23.285156 17.617188 C 23.667969 17.617188 23.988281 17.480469 24.261719 17.214844 C 24.527344 16.941406 24.664062 16.621094 24.664062 16.238281 C 24.664062 15.859375 24.527344 15.535156 24.261719 15.261719 C 24.175781 15.179688 24.089844 15.109375 23.992188 15.050781 Z M 27.511719 15.050781 C 27.644531 15.261719 27.707031 15.496094 27.707031 15.761719 C 27.707031 16.140625 27.574219 16.464844 27.300781 16.734375 C 27.035156 17.003906 26.710938 17.136719 26.332031 17.136719 C 26.066406 17.136719 25.832031 17.074219 25.625 16.949219 C 25.683594 17.042969 25.753906 17.128906 25.832031 17.214844 C 26.105469 17.480469 26.425781 17.617188 26.808594 17.617188 C 27.191406 17.617188 27.511719 17.480469 27.785156 17.214844 C 28.050781 16.941406 28.183594 16.621094 28.183594 16.238281 C 28.183594 15.859375 28.050781 15.535156 27.785156 15.261719 C 27.699219 15.179688 27.609375 15.109375 27.511719 15.050781 Z M 27.785156 18.980469 C 27.699219 18.894531 27.609375 18.824219 27.515625 18.765625 C 27.644531 18.976562 27.707031 19.214844 27.707031 19.472656 C 27.707031 19.855469 27.574219 20.179688 27.300781 20.449219 C 27.035156 20.714844 26.710938 20.855469 26.332031 20.855469 C 26.066406 20.855469 25.832031 20.789062 25.621094 20.660156 C 25.683594 20.753906 25.753906 20.847656 25.832031 20.925781 C 26.105469 21.195312 26.425781 21.332031 26.808594 21.332031 C 27.191406 21.332031 27.511719 21.195312 27.785156 20.925781 C 28.050781 20.660156 28.183594 20.332031 28.183594 19.953125 C 28.183594 19.574219 28.050781 19.246094 27.785156 18.980469 Z M 24.261719 18.980469 C 24.175781 18.894531 24.089844 18.824219 23.992188 18.765625 C 24.121094 18.976562 24.183594 19.214844 24.183594 19.472656 C 24.183594 19.855469 24.050781 20.179688 23.78125 20.449219 C 23.511719 20.714844 23.1875 20.855469 22.808594 20.855469 C 22.542969 20.855469 22.308594 20.789062 22.101562 20.660156 C 22.160156 20.753906 22.230469 20.847656 22.308594 20.925781 C 22.582031 21.195312 22.902344 21.332031 23.285156 21.332031 C 23.667969 21.332031 23.988281 21.195312 24.261719 20.925781 C 24.527344 20.660156 24.664062 20.332031 24.664062 19.953125 C 24.664062 19.574219 24.527344 19.246094 24.261719 18.980469 Z M 20.738281 18.980469 C 20.652344 18.894531 20.566406 18.824219 20.472656 18.765625 C 20.597656 18.976562 20.660156 19.214844 20.660156 19.472656 C 20.660156 19.855469 20.527344 20.179688 20.257812 20.449219 C 19.988281 20.714844 19.667969 20.855469 19.285156 20.855469 C 19.023438 20.855469 18.785156 20.789062 18.578125 20.660156 C 18.636719 20.753906 18.707031 20.847656 18.789062 20.925781 C 19.058594 21.195312 19.382812 21.332031 19.761719 21.332031 C 20.144531 21.332031 20.464844 21.195312 20.738281 20.925781 C 21.003906 20.660156 21.140625 20.332031 21.140625 19.953125 C 21.140625 19.574219 21.003906 19.246094 20.738281 18.980469 Z M 17.214844 18.980469 C 17.128906 18.894531 17.042969 18.824219 16.949219 18.769531 C 17.074219 18.976562 17.136719 19.214844 17.136719 19.472656 C 17.136719 19.855469 17.003906 20.179688 16.738281 20.449219 C 16.464844 20.714844 16.144531 20.855469 15.761719 20.855469 C 15.5 20.855469 15.261719 20.789062 15.054688 20.660156 C 15.113281 20.753906 15.183594 20.847656 15.265625 20.925781 C 15.535156 21.195312 15.859375 21.332031 16.238281 21.332031 C 16.621094 21.332031 16.945312 21.195312 17.214844 20.925781 C 17.480469 20.660156 17.621094 20.332031 17.621094 19.953125 C 17.621094 19.574219 17.480469 19.246094 17.214844 18.980469 Z M 20.472656 22.480469 C 20.597656 22.691406 20.660156 22.925781 20.660156 23.191406 C 20.660156 23.566406 20.527344 23.894531 20.257812 24.160156 C 19.988281 24.433594 19.667969 24.566406 19.285156 24.566406 C 19.023438 24.566406 18.785156 24.503906 18.578125 24.378906 C 18.636719 24.472656 18.707031 24.558594 18.789062 24.644531 C 19.058594 24.910156 19.382812 25.042969 19.761719 25.042969 C 20.144531 25.042969 20.464844 24.910156 20.738281 24.644531 C 21.003906 24.371094 21.140625 24.050781 21.140625 23.667969 C 21.140625 23.285156 21.003906 22.960938 20.738281 22.691406 C 20.652344 22.605469 20.566406 22.535156 20.472656 22.480469 Z M 16.949219 22.480469 C 17.074219 22.691406 17.136719 22.925781 17.136719 23.191406 C 17.136719 23.566406 17.003906 23.894531 16.738281 24.160156 C 16.464844 24.433594 16.144531 24.566406 15.761719 24.566406 C 15.5 24.566406 15.261719 24.503906 15.054688 24.375 C 15.113281 24.472656 15.183594 24.558594 15.265625 24.644531 C 15.535156 24.910156 15.859375 25.042969 16.238281 25.042969 C 16.621094 25.042969 16.945312 24.910156 17.214844 24.644531 C 17.480469 24.371094 17.621094 24.050781 17.621094 23.667969 C 17.621094 23.285156 17.480469 22.960938 17.214844 22.691406 C 17.128906 22.609375 17.042969 22.539062 16.949219 22.480469 Z M 17.214844 26.40625 C 17.128906 26.324219 17.042969 26.253906 16.949219 26.195312 C 17.074219 26.402344 17.136719 26.640625 17.136719 26.902344 C 17.136719 27.285156 17.003906 27.605469 16.738281 27.878906 C 16.464844 28.144531 16.144531 28.28125 15.761719 28.28125 C 15.5 28.28125 15.261719 28.214844 15.054688 28.089844 C 15.113281 28.183594 15.183594 28.273438 15.265625 28.355469 C 15.535156 28.621094 15.859375 28.761719 16.238281 28.761719 C 16.621094 28.761719 16.945312 28.621094 17.214844 28.355469 C 17.480469 28.089844 17.621094 27.761719 17.621094 27.378906 C 17.621094 27.003906 17.480469 26.675781 17.214844 26.40625 Z M 20.738281 26.40625 C 20.652344 26.324219 20.566406 26.253906 20.472656 26.191406 C 20.597656 26.402344 20.660156 26.640625 20.660156 26.902344 C 20.660156 27.285156 20.527344 27.605469 20.257812 27.878906 C 19.988281 28.144531 19.667969 28.28125 19.285156 28.28125 C 19.023438 28.28125 18.785156 28.214844 18.578125 28.089844 C 18.636719 28.183594 18.707031 28.273438 18.789062 28.355469 C 19.058594 28.621094 19.382812 28.761719 19.761719 28.761719 C 20.144531 28.761719 20.464844 28.621094 20.738281 28.355469 C 21.003906 28.089844 21.140625 27.761719 21.140625 27.378906 C 21.140625 27.003906 21.003906 26.675781 20.738281 26.40625 Z M 23.992188 22.480469 C 24.121094 22.691406 24.183594 22.925781 24.183594 23.191406 C 24.183594 23.566406 24.050781 23.894531 23.78125 24.160156 C 23.511719 24.433594 23.1875 24.566406 22.808594 24.566406 C 22.542969 24.566406 22.308594 24.503906 22.101562 24.378906 C 22.160156 24.472656 22.230469 24.558594 22.308594 24.644531 C 22.582031 24.910156 22.902344 25.042969 23.285156 25.042969 C 23.667969 25.042969 23.988281 24.910156 24.261719 24.644531 C 24.527344 24.371094 24.664062 24.050781 24.664062 23.667969 C 24.664062 23.285156 24.527344 22.960938 24.261719 22.691406 C 24.175781 22.605469 24.089844 22.535156 23.992188 22.480469 Z M 4.699219 13.496094 C 4.964844 13.769531 5.292969 13.902344 5.675781 13.902344 C 6.050781 13.902344 6.378906 13.769531 6.644531 13.496094 C 6.917969 13.230469 7.050781 12.902344 7.050781 12.527344 C 7.050781 12.144531 6.917969 11.816406 6.644531 11.550781 C 6.5625 11.464844 6.472656 11.394531 6.378906 11.339844 C 6.507812 11.546875 6.574219 11.785156 6.574219 12.042969 C 6.574219 12.425781 6.433594 12.75 6.167969 13.019531 C 5.894531 13.285156 5.574219 13.425781 5.191406 13.425781 C 4.933594 13.425781 4.695312 13.359375 4.488281 13.230469 C 4.542969 13.324219 4.613281 13.417969 4.699219 13.496094 Z M 6.378906 15.050781 C 6.507812 15.261719 6.574219 15.496094 6.574219 15.761719 C 6.574219 16.140625 6.433594 16.464844 6.167969 16.734375 C 5.894531 17.003906 5.574219 17.136719 5.191406 17.136719 C 4.933594 17.136719 4.695312 17.074219 4.488281 16.949219 C 4.542969 17.042969 4.613281 17.128906 4.699219 17.214844 C 4.964844 17.480469 5.292969 17.617188 5.675781 17.617188 C 6.050781 17.617188 6.378906 17.480469 6.644531 17.214844 C 6.917969 16.941406 7.050781 16.621094 7.050781 16.238281 C 7.050781 15.859375 6.917969 15.535156 6.644531 15.261719 C 6.5625 15.179688 6.472656 15.109375 6.378906 15.050781 Z M 14.097656 5.097656 C 14.097656 4.714844 13.960938 4.386719 13.691406 4.121094 C 13.605469 4.035156 13.519531 3.964844 13.425781 3.910156 C 13.554688 4.121094 13.621094 4.355469 13.621094 4.617188 C 13.621094 4.996094 13.480469 5.324219 13.214844 5.589844 C 12.941406 5.859375 12.621094 5.996094 12.238281 5.996094 C 11.976562 5.996094 11.738281 5.933594 11.53125 5.800781 C 11.589844 5.894531 11.660156 5.988281 11.742188 6.066406 C 12.011719 6.339844 12.339844 6.472656 12.71875 6.472656 C 13.097656 6.472656 13.421875 6.339844 13.691406 6.066406 C 13.960938 5.800781 14.097656 5.476562 14.097656 5.097656 Z M 11.535156 9.519531 C 11.589844 9.613281 11.660156 9.699219 11.742188 9.785156 C 12.011719 10.050781 12.339844 10.191406 12.71875 10.191406 C 13.097656 10.191406 13.421875 10.050781 13.691406 9.785156 C 13.960938 9.515625 14.097656 9.191406 14.097656 8.808594 C 14.097656 8.429688 13.960938 8.105469 13.691406 7.832031 C 13.605469 7.753906 13.519531 7.683594 13.425781 7.621094 C 13.554688 7.832031 13.621094 8.066406 13.621094 8.332031 C 13.621094 8.710938 13.480469 9.035156 13.214844 9.304688 C 12.941406 9.574219 12.621094 9.707031 12.238281 9.707031 C 11.980469 9.707031 11.742188 9.644531 11.535156 9.519531 Z M 8.011719 9.519531 C 8.066406 9.613281 8.136719 9.699219 8.222656 9.785156 C 8.488281 10.050781 8.816406 10.191406 9.195312 10.191406 C 9.574219 10.191406 9.898438 10.050781 10.167969 9.785156 C 10.4375 9.515625 10.574219 9.191406 10.574219 8.808594 C 10.574219 8.429688 10.4375 8.105469 10.167969 7.832031 C 10.085938 7.753906 9.996094 7.683594 9.902344 7.621094 C 10.03125 7.832031 10.097656 8.066406 10.097656 8.332031 C 10.097656 8.710938 9.957031 9.035156 9.691406 9.304688 C 9.417969 9.574219 9.097656 9.707031 8.714844 9.707031 C 8.457031 9.707031 8.21875 9.644531 8.011719 9.519531 Z M 10.574219 12.527344 C 10.574219 12.144531 10.4375 11.816406 10.167969 11.550781 C 10.085938 11.464844 9.996094 11.394531 9.902344 11.339844 C 10.03125 11.546875 10.097656 11.785156 10.097656 12.042969 C 10.097656 12.425781 9.957031 12.75 9.691406 13.019531 C 9.417969 13.285156 9.097656 13.425781 8.714844 13.425781 C 8.457031 13.425781 8.21875 13.359375 8.011719 13.230469 C 8.066406 13.324219 8.136719 13.417969 8.222656 13.496094 C 8.488281 13.769531 8.816406 13.902344 9.195312 13.902344 C 9.574219 13.902344 9.898438 13.769531 10.167969 13.496094 C 10.4375 13.230469 10.574219 12.902344 10.574219 12.527344 Z M 9.902344 15.050781 C 10.03125 15.261719 10.097656 15.496094 10.097656 15.761719 C 10.097656 16.140625 9.957031 16.464844 9.691406 16.734375 C 9.417969 17.003906 9.097656 17.136719 8.714844 17.136719 C 8.457031 17.136719 8.21875 17.074219 8.011719 16.949219 C 8.066406 17.042969 8.136719 17.128906 8.222656 17.214844 C 8.488281 17.480469 8.816406 17.617188 9.195312 17.617188 C 9.574219 17.617188 9.898438 17.480469 10.167969 17.214844 C 10.4375 16.941406 10.574219 16.621094 10.574219 16.238281 C 10.574219 15.859375 10.4375 15.535156 10.167969 15.261719 C 10.085938 15.179688 9.996094 15.109375 9.902344 15.050781 Z M 14.097656 12.527344 C 14.097656 12.144531 13.960938 11.816406 13.691406 11.550781 C 13.605469 11.464844 13.519531 11.394531 13.425781 11.339844 C 13.554688 11.550781 13.621094 11.785156 13.621094 12.042969 C 13.621094 12.425781 13.480469 12.75 13.214844 13.019531 C 12.941406 13.285156 12.621094 13.425781 12.238281 13.425781 C 11.976562 13.425781 11.738281 13.359375 11.53125 13.230469 C 11.589844 13.324219 11.660156 13.417969 11.742188 13.496094 C 12.011719 13.769531 12.339844 13.902344 12.71875 13.902344 C 13.097656 13.902344 13.421875 13.769531 13.691406 13.496094 C 13.960938 13.230469 14.097656 12.902344 14.097656 12.527344 Z M 13.425781 15.050781 C 13.554688 15.261719 13.621094 15.496094 13.621094 15.761719 C 13.621094 16.140625 13.480469 16.464844 13.214844 16.734375 C 12.941406 17.003906 12.621094 17.136719 12.238281 17.136719 C 11.980469 17.136719 11.742188 17.074219 11.535156 16.949219 C 11.589844 17.042969 11.660156 17.128906 11.742188 17.214844 C 12.011719 17.480469 12.339844 17.617188 12.71875 17.617188 C 13.097656 17.617188 13.421875 17.480469 13.691406 17.214844 C 13.960938 16.941406 14.097656 16.621094 14.097656 16.238281 C 14.097656 15.859375 13.960938 15.535156 13.691406 15.261719 C 13.605469 15.179688 13.519531 15.109375 13.425781 15.050781 Z M 11.53125 20.660156 C 11.589844 20.753906 11.660156 20.847656 11.742188 20.925781 C 12.011719 21.195312 12.339844 21.332031 12.71875 21.332031 C 13.097656 21.332031 13.421875 21.195312 13.691406 20.925781 C 13.960938 20.660156 14.097656 20.332031 14.097656 19.953125 C 14.097656 19.574219 13.960938 19.246094 13.691406 18.980469 C 13.605469 18.894531 13.519531 18.824219 13.425781 18.769531 C 13.554688 18.980469 13.621094 19.214844 13.621094 19.472656 C 13.621094 19.855469 13.480469 20.179688 13.214844 20.449219 C 12.941406 20.714844 12.621094 20.855469 12.238281 20.855469 C 11.976562 20.855469 11.738281 20.789062 11.53125 20.660156 Z M 10.167969 18.980469 C 10.085938 18.894531 9.996094 18.824219 9.902344 18.769531 C 10.03125 18.976562 10.097656 19.214844 10.097656 19.472656 C 10.097656 19.855469 9.957031 20.179688 9.691406 20.449219 C 9.417969 20.714844 9.097656 20.855469 8.714844 20.855469 C 8.457031 20.855469 8.21875 20.789062 8.011719 20.660156 C 8.066406 20.753906 8.136719 20.847656 8.222656 20.925781 C 8.488281 21.195312 8.816406 21.332031 9.195312 21.332031 C 9.574219 21.332031 9.898438 21.195312 10.167969 20.925781 C 10.4375 20.660156 10.574219 20.332031 10.574219 19.953125 C 10.574219 19.574219 10.4375 19.246094 10.167969 18.980469 Z M 6.644531 18.980469 C 6.5625 18.894531 6.472656 18.824219 6.378906 18.769531 C 6.507812 18.976562 6.574219 19.214844 6.574219 19.472656 C 6.574219 19.855469 6.433594 20.179688 6.167969 20.449219 C 5.894531 20.714844 5.574219 20.855469 5.191406 20.855469 C 4.933594 20.855469 4.695312 20.789062 4.488281 20.660156 C 4.542969 20.753906 4.613281 20.847656 4.699219 20.925781 C 4.964844 21.195312 5.292969 21.332031 5.675781 21.332031 C 6.050781 21.332031 6.378906 21.195312 6.644531 20.925781 C 6.917969 20.660156 7.050781 20.332031 7.050781 19.953125 C 7.050781 19.574219 6.917969 19.246094 6.644531 18.980469 Z M 9.902344 22.480469 C 10.03125 22.691406 10.097656 22.925781 10.097656 23.191406 C 10.097656 23.566406 9.957031 23.894531 9.691406 24.160156 C 9.417969 24.433594 9.097656 24.566406 8.714844 24.566406 C 8.457031 24.566406 8.21875 24.503906 8.011719 24.378906 C 8.066406 24.472656 8.136719 24.558594 8.222656 24.644531 C 8.488281 24.910156 8.816406 25.042969 9.195312 25.042969 C 9.574219 25.042969 9.898438 24.910156 10.167969 24.644531 C 10.4375 24.371094 10.574219 24.050781 10.574219 23.667969 C 10.574219 23.285156 10.4375 22.960938 10.167969 22.691406 C 10.085938 22.609375 9.996094 22.539062 9.902344 22.480469 Z M 14.097656 23.667969 C 14.097656 23.285156 13.960938 22.960938 13.691406 22.691406 C 13.605469 22.609375 13.519531 22.539062 13.425781 22.480469 C 13.554688 22.691406 13.621094 22.925781 13.621094 23.191406 C 13.621094 23.566406 13.480469 23.894531 13.214844 24.160156 C 12.941406 24.433594 12.621094 24.566406 12.238281 24.566406 C 11.976562 24.566406 11.738281 24.503906 11.53125 24.375 C 11.589844 24.472656 11.660156 24.558594 11.742188 24.644531 C 12.011719 24.910156 12.339844 25.042969 12.71875 25.042969 C 13.097656 25.042969 13.421875 24.910156 13.691406 24.644531 C 13.960938 24.371094 14.097656 24.050781 14.097656 23.667969 Z M 11.53125 28.089844 C 11.589844 28.183594 11.660156 28.273438 11.742188 28.355469 C 12.011719 28.621094 12.339844 28.761719 12.71875 28.761719 C 13.097656 28.761719 13.421875 28.621094 13.691406 28.355469 C 13.960938 28.089844 14.097656 27.761719 14.097656 27.378906 C 14.097656 27.003906 13.960938 26.675781 13.691406 26.40625 C 13.605469 26.324219 13.519531 26.253906 13.425781 26.195312 C 13.554688 26.40625 13.621094 26.644531 13.621094 26.902344 C 13.621094 27.285156 13.480469 27.605469 13.214844 27.878906 C 12.941406 28.144531 12.621094 28.28125 12.238281 28.28125 C 11.976562 28.28125 11.738281 28.214844 11.53125 28.089844 Z M 11.53125 28.089844 "/>
<path style=" stroke:none;fill-rule:nonzero;fill:rgb(39.215687%,63.529414%,94.509804%);fill-opacity:1;" d="M 16.949219 7.621094 C 16.886719 7.527344 16.816406 7.441406 16.738281 7.355469 C 16.464844 7.085938 16.144531 6.953125 15.761719 6.953125 C 15.378906 6.953125 15.058594 7.085938 14.785156 7.355469 C 14.519531 7.625 14.386719 7.949219 14.386719 8.332031 C 14.386719 8.710938 14.519531 9.035156 14.785156 9.304688 C 14.871094 9.386719 14.957031 9.457031 15.054688 9.519531 C 15.261719 9.644531 15.5 9.707031 15.761719 9.707031 C 16.144531 9.707031 16.464844 9.574219 16.738281 9.304688 C 17.003906 9.035156 17.136719 8.710938 17.136719 8.332031 C 17.136719 8.066406 17.074219 7.832031 16.949219 7.621094 Z M 17.90625 8.332031 C 17.90625 8.710938 18.042969 9.035156 18.308594 9.304688 C 18.394531 9.386719 18.484375 9.460938 18.582031 9.519531 C 18.785156 9.644531 19.023438 9.707031 19.285156 9.707031 C 19.667969 9.707031 19.988281 9.574219 20.257812 9.304688 C 20.527344 9.035156 20.660156 8.710938 20.660156 8.332031 C 20.660156 8.066406 20.597656 7.832031 20.46875 7.621094 C 20.410156 7.527344 20.339844 7.441406 20.257812 7.355469 C 19.988281 7.085938 19.667969 6.953125 19.285156 6.953125 C 18.902344 6.953125 18.582031 7.085938 18.308594 7.355469 C 18.042969 7.625 17.90625 7.949219 17.90625 8.332031 Z M 18.308594 14.785156 C 18.042969 15.050781 17.90625 15.378906 17.90625 15.761719 C 17.90625 16.140625 18.042969 16.464844 18.308594 16.734375 C 18.394531 16.816406 18.484375 16.890625 18.582031 16.949219 C 18.785156 17.074219 19.023438 17.136719 19.285156 17.136719 C 19.667969 17.136719 19.988281 17.003906 20.257812 16.734375 C 20.527344 16.464844 20.660156 16.140625 20.660156 15.761719 C 20.660156 15.496094 20.597656 15.261719 20.46875 15.050781 C 20.410156 14.957031 20.339844 14.867188 20.257812 14.785156 C 19.988281 14.515625 19.667969 14.378906 19.285156 14.378906 C 18.902344 14.378906 18.582031 14.515625 18.308594 14.785156 Z M 23.992188 11.339844 C 23.933594 11.242188 23.863281 11.152344 23.78125 11.070312 C 23.511719 10.800781 23.1875 10.667969 22.808594 10.667969 C 22.425781 10.667969 22.101562 10.800781 21.832031 11.070312 C 21.5625 11.339844 21.429688 11.667969 21.429688 12.042969 C 21.429688 12.425781 21.5625 12.75 21.832031 13.019531 C 21.917969 13.105469 22.003906 13.175781 22.101562 13.230469 C 22.308594 13.359375 22.542969 13.425781 22.808594 13.425781 C 23.1875 13.425781 23.511719 13.285156 23.78125 13.019531 C 24.050781 12.75 24.183594 12.425781 24.183594 12.042969 C 24.183594 11.785156 24.121094 11.546875 23.992188 11.339844 Z M 25.355469 11.070312 C 25.085938 11.339844 24.953125 11.667969 24.953125 12.042969 C 24.953125 12.425781 25.085938 12.75 25.355469 13.019531 C 25.441406 13.105469 25.527344 13.175781 25.621094 13.230469 C 25.832031 13.359375 26.066406 13.425781 26.332031 13.425781 C 26.710938 13.425781 27.035156 13.285156 27.300781 13.019531 C 27.574219 12.75 27.707031 12.425781 27.707031 12.042969 C 27.707031 11.785156 27.644531 11.546875 27.515625 11.339844 C 27.457031 11.242188 27.386719 11.152344 27.300781 11.070312 C 27.035156 10.800781 26.710938 10.667969 26.332031 10.667969 C 25.949219 10.667969 25.625 10.800781 25.355469 11.070312 Z M 21.832031 14.785156 C 21.5625 15.050781 21.429688 15.378906 21.429688 15.761719 C 21.429688 16.140625 21.5625 16.464844 21.832031 16.734375 C 21.917969 16.816406 22.003906 16.890625 22.101562 16.949219 C 22.308594 17.074219 22.542969 17.136719 22.808594 17.136719 C 23.1875 17.136719 23.511719 17.003906 23.78125 16.734375 C 24.050781 16.464844 24.183594 16.140625 24.183594 15.761719 C 24.183594 15.496094 24.121094 15.261719 23.992188 15.050781 C 23.933594 14.957031 23.863281 14.867188 23.78125 14.785156 C 23.511719 14.515625 23.1875 14.378906 22.808594 14.378906 C 22.425781 14.378906 22.101562 14.515625 21.832031 14.785156 Z M 25.355469 14.785156 C 25.085938 15.050781 24.953125 15.378906 24.953125 15.761719 C 24.953125 16.140625 25.085938 16.464844 25.355469 16.734375 C 25.441406 16.816406 25.527344 16.890625 25.625 16.949219 C 25.832031 17.074219 26.066406 17.136719 26.332031 17.136719 C 26.710938 17.136719 27.035156 17.003906 27.300781 16.734375 C 27.574219 16.464844 27.707031 16.140625 27.707031 15.761719 C 27.707031 15.496094 27.644531 15.261719 27.511719 15.050781 C 27.457031 14.957031 27.386719 14.867188 27.300781 14.785156 C 27.035156 14.515625 26.710938 14.378906 26.332031 14.378906 C 25.949219 14.378906 25.625 14.515625 25.355469 14.785156 Z M 27.300781 18.496094 C 27.035156 18.230469 26.710938 18.097656 26.332031 18.097656 C 25.949219 18.097656 25.625 18.230469 25.355469 18.496094 C 25.085938 18.769531 24.953125 19.09375 24.953125 19.472656 C 24.953125 19.855469 25.085938 20.179688 25.355469 20.449219 C 25.441406 20.535156 25.527344 20.605469 25.621094 20.660156 C 25.832031 20.789062 26.066406 20.855469 26.332031 20.855469 C 26.710938 20.855469 27.035156 20.714844 27.300781 20.449219 C 27.574219 20.179688 27.707031 19.855469 27.707031 19.472656 C 27.707031 19.214844 27.644531 18.976562 27.515625 18.765625 C 27.457031 18.671875 27.386719 18.582031 27.300781 18.496094 Z M 23.992188 18.765625 C 23.933594 18.671875 23.863281 18.582031 23.78125 18.496094 C 23.511719 18.230469 23.1875 18.097656 22.808594 18.097656 C 22.425781 18.097656 22.101562 18.230469 21.832031 18.496094 C 21.5625 18.769531 21.429688 19.09375 21.429688 19.472656 C 21.429688 19.855469 21.5625 20.179688 21.832031 20.449219 C 21.917969 20.535156 22.003906 20.605469 22.101562 20.660156 C 22.308594 20.789062 22.542969 20.855469 22.808594 20.855469 C 23.1875 20.855469 23.511719 20.714844 23.78125 20.449219 C 24.050781 20.179688 24.183594 19.855469 24.183594 19.472656 C 24.183594 19.214844 24.121094 18.976562 23.992188 18.765625 Z M 20.472656 18.765625 C 20.410156 18.671875 20.339844 18.582031 20.257812 18.496094 C 19.988281 18.230469 19.667969 18.097656 19.285156 18.097656 C 18.902344 18.097656 18.582031 18.230469 18.308594 18.496094 C 18.042969 18.769531 17.90625 19.09375 17.90625 19.472656 C 17.90625 19.855469 18.042969 20.179688 18.308594 20.449219 C 18.394531 20.535156 18.480469 20.605469 18.578125 20.660156 C 18.785156 20.789062 19.023438 20.855469 19.285156 20.855469 C 19.667969 20.855469 19.988281 20.714844 20.257812 20.449219 C 20.527344 20.179688 20.660156 19.855469 20.660156 19.472656 C 20.660156 19.214844 20.597656 18.976562 20.472656 18.765625 Z M 20.660156 23.191406 C 20.660156 22.925781 20.597656 22.691406 20.472656 22.480469 C 20.410156 22.386719 20.339844 22.296875 20.257812 22.214844 C 19.988281 21.945312 19.667969 21.808594 19.285156 21.808594 C 18.902344 21.808594 18.582031 21.945312 18.308594 22.214844 C 18.042969 22.480469 17.90625 22.808594 17.90625 23.191406 C 17.90625 23.566406 18.042969 23.894531 18.308594 24.160156 C 18.394531 24.246094 18.480469 24.316406 18.578125 24.378906 C 18.785156 24.503906 19.023438 24.566406 19.285156 24.566406 C 19.667969 24.566406 19.988281 24.433594 20.257812 24.160156 C 20.527344 23.894531 20.660156 23.566406 20.660156 23.191406 Z M 17.90625 26.902344 C 17.90625 27.285156 18.042969 27.605469 18.308594 27.878906 C 18.394531 27.960938 18.480469 28.035156 18.578125 28.089844 C 18.785156 28.214844 19.023438 28.28125 19.285156 28.28125 C 19.667969 28.28125 19.988281 28.144531 20.257812 27.878906 C 20.527344 27.605469 20.660156 27.285156 20.660156 26.902344 C 20.660156 26.640625 20.597656 26.402344 20.472656 26.191406 C 20.410156 26.097656 20.339844 26.011719 20.257812 25.925781 C 19.988281 25.660156 19.667969 25.527344 19.285156 25.527344 C 18.902344 25.527344 18.582031 25.660156 18.308594 25.925781 C 18.042969 26.199219 17.90625 26.523438 17.90625 26.902344 Z M 24.183594 23.191406 C 24.183594 22.925781 24.121094 22.691406 23.992188 22.480469 C 23.933594 22.386719 23.863281 22.296875 23.78125 22.214844 C 23.511719 21.945312 23.1875 21.808594 22.808594 21.808594 C 22.425781 21.808594 22.101562 21.945312 21.832031 22.214844 C 21.5625 22.480469 21.429688 22.808594 21.429688 23.191406 C 21.429688 23.566406 21.5625 23.894531 21.832031 24.160156 C 21.917969 24.246094 22.003906 24.316406 22.101562 24.378906 C 22.308594 24.503906 22.542969 24.566406 22.808594 24.566406 C 23.1875 24.566406 23.511719 24.433594 23.78125 24.160156 C 24.050781 23.894531 24.183594 23.566406 24.183594 23.191406 Z M 4.21875 11.070312 C 3.949219 11.339844 3.816406 11.667969 3.816406 12.042969 C 3.816406 12.425781 3.949219 12.75 4.21875 13.019531 C 4.300781 13.105469 4.394531 13.175781 4.488281 13.230469 C 4.695312 13.359375 4.933594 13.425781 5.191406 13.425781 C 5.574219 13.425781 5.894531 13.285156 6.167969 13.019531 C 6.433594 12.75 6.574219 12.425781 6.574219 12.042969 C 6.574219 11.785156 6.507812 11.546875 6.378906 11.339844 C 6.324219 11.242188 6.25 11.152344 6.167969 11.070312 C 5.894531 10.800781 5.574219 10.667969 5.191406 10.667969 C 4.8125 10.667969 4.488281 10.800781 4.21875 11.070312 Z M 4.21875 14.785156 C 3.949219 15.050781 3.816406 15.378906 3.816406 15.761719 C 3.816406 16.140625 3.949219 16.464844 4.21875 16.734375 C 4.300781 16.816406 4.394531 16.890625 4.488281 16.949219 C 4.695312 17.074219 4.933594 17.136719 5.191406 17.136719 C 5.574219 17.136719 5.894531 17.003906 6.167969 16.734375 C 6.433594 16.464844 6.574219 16.140625 6.574219 15.761719 C 6.574219 15.496094 6.507812 15.261719 6.378906 15.050781 C 6.324219 14.957031 6.25 14.867188 6.167969 14.785156 C 5.894531 14.515625 5.574219 14.378906 5.191406 14.378906 C 4.8125 14.378906 4.488281 14.515625 4.21875 14.785156 Z M 13.425781 7.621094 C 13.367188 7.527344 13.296875 7.441406 13.214844 7.355469 C 12.941406 7.085938 12.621094 6.953125 12.238281 6.953125 C 11.855469 6.953125 11.535156 7.085938 11.261719 7.355469 C 10.996094 7.625 10.863281 7.949219 10.863281 8.332031 C 10.863281 8.710938 10.996094 9.035156 11.261719 9.304688 C 11.347656 9.386719 11.4375 9.457031 11.535156 9.519531 C 11.742188 9.644531 11.980469 9.707031 12.238281 9.707031 C 12.621094 9.707031 12.941406 9.574219 13.214844 9.304688 C 13.480469 9.035156 13.621094 8.710938 13.621094 8.332031 C 13.621094 8.066406 13.554688 7.832031 13.425781 7.621094 Z M 9.902344 11.339844 C 9.847656 11.242188 9.773438 11.152344 9.691406 11.070312 C 9.417969 10.800781 9.097656 10.667969 8.714844 10.667969 C 8.335938 10.667969 8.011719 10.800781 7.738281 11.070312 C 7.472656 11.339844 7.339844 11.667969 7.339844 12.042969 C 7.339844 12.425781 7.472656 12.75 7.738281 13.019531 C 7.824219 13.105469 7.914062 13.175781 8.011719 13.230469 C 8.21875 13.359375 8.457031 13.425781 8.714844 13.425781 C 9.097656 13.425781 9.417969 13.285156 9.691406 13.019531 C 9.957031 12.75 10.097656 12.425781 10.097656 12.042969 C 10.097656 11.785156 10.03125 11.546875 9.902344 11.339844 Z M 7.738281 14.785156 C 7.472656 15.050781 7.339844 15.378906 7.339844 15.761719 C 7.339844 16.140625 7.472656 16.464844 7.738281 16.734375 C 7.824219 16.816406 7.917969 16.890625 8.011719 16.949219 C 8.21875 17.074219 8.457031 17.136719 8.714844 17.136719 C 9.097656 17.136719 9.417969 17.003906 9.691406 16.734375 C 9.957031 16.464844 10.097656 16.140625 10.097656 15.761719 C 10.097656 15.496094 10.03125 15.261719 9.902344 15.050781 C 9.84375 14.957031 9.769531 14.867188 9.691406 14.785156 C 9.417969 14.515625 9.097656 14.378906 8.714844 14.378906 C 8.335938 14.378906 8.011719 14.515625 7.738281 14.785156 Z M 13.425781 15.050781 C 13.371094 14.957031 13.296875 14.871094 13.214844 14.785156 C 12.941406 14.515625 12.621094 14.378906 12.238281 14.378906 C 11.855469 14.378906 11.535156 14.515625 11.261719 14.785156 C 10.996094 15.050781 10.863281 15.378906 10.863281 15.761719 C 10.863281 16.140625 10.996094 16.464844 11.261719 16.734375 C 11.347656 16.816406 11.4375 16.886719 11.535156 16.949219 C 11.742188 17.074219 11.980469 17.136719 12.238281 17.136719 C 12.621094 17.136719 12.941406 17.003906 13.214844 16.734375 C 13.480469 16.464844 13.621094 16.140625 13.621094 15.761719 C 13.621094 15.496094 13.554688 15.261719 13.425781 15.050781 Z M 13.425781 18.769531 C 13.371094 18.671875 13.296875 18.582031 13.214844 18.496094 C 12.941406 18.230469 12.621094 18.097656 12.238281 18.097656 C 11.855469 18.097656 11.535156 18.230469 11.261719 18.496094 C 10.996094 18.769531 10.863281 19.09375 10.863281 19.472656 C 10.863281 19.855469 10.996094 20.179688 11.261719 20.449219 C 11.347656 20.53125 11.433594 20.605469 11.53125 20.660156 C 11.738281 20.789062 11.976562 20.855469 12.238281 20.855469 C 12.621094 20.855469 12.941406 20.714844 13.214844 20.449219 C 13.480469 20.179688 13.621094 19.855469 13.621094 19.472656 C 13.621094 19.214844 13.554688 18.980469 13.425781 18.769531 Z M 9.902344 18.769531 C 9.847656 18.671875 9.773438 18.582031 9.691406 18.496094 C 9.417969 18.230469 9.097656 18.097656 8.714844 18.097656 C 8.335938 18.097656 8.011719 18.230469 7.738281 18.496094 C 7.472656 18.769531 7.339844 19.09375 7.339844 19.472656 C 7.339844 19.855469 7.472656 20.179688 7.738281 20.449219 C 7.824219 20.535156 7.914062 20.605469 8.011719 20.660156 C 8.21875 20.789062 8.457031 20.855469 8.714844 20.855469 C 9.097656 20.855469 9.417969 20.714844 9.691406 20.449219 C 9.957031 20.179688 10.097656 19.855469 10.097656 19.472656 C 10.097656 19.214844 10.03125 18.976562 9.902344 18.769531 Z M 6.378906 18.769531 C 6.324219 18.671875 6.25 18.582031 6.167969 18.496094 C 5.894531 18.230469 5.574219 18.097656 5.191406 18.097656 C 4.8125 18.097656 4.488281 18.230469 4.21875 18.496094 C 3.949219 18.769531 3.816406 19.09375 3.816406 19.472656 C 3.816406 19.855469 3.949219 20.179688 4.21875 20.449219 C 4.300781 20.535156 4.394531 20.605469 4.488281 20.660156 C 4.695312 20.789062 4.933594 20.855469 5.191406 20.855469 C 5.574219 20.855469 5.894531 20.714844 6.167969 20.449219 C 6.433594 20.179688 6.574219 19.855469 6.574219 19.472656 C 6.574219 19.214844 6.507812 18.976562 6.378906 18.769531 Z M 10.097656 23.191406 C 10.097656 22.925781 10.03125 22.691406 9.902344 22.480469 C 9.847656 22.386719 9.773438 22.296875 9.691406 22.214844 C 9.417969 21.945312 9.097656 21.808594 8.714844 21.808594 C 8.335938 21.808594 8.011719 21.945312 7.738281 22.214844 C 7.472656 22.480469 7.339844 22.808594 7.339844 23.191406 C 7.339844 23.566406 7.472656 23.894531 7.738281 24.160156 C 7.824219 24.246094 7.914062 24.316406 8.011719 24.378906 C 8.21875 24.503906 8.457031 24.566406 8.714844 24.566406 C 9.097656 24.566406 9.417969 24.433594 9.691406 24.160156 C 9.957031 23.894531 10.097656 23.566406 10.097656 23.191406 Z M 13.425781 22.480469 C 13.371094 22.386719 13.296875 22.296875 13.214844 22.214844 C 12.941406 21.945312 12.621094 21.808594 12.238281 21.808594 C 11.855469 21.808594 11.535156 21.945312 11.261719 22.214844 C 10.996094 22.480469 10.863281 22.808594 10.863281 23.191406 C 10.863281 23.566406 10.996094 23.894531 11.261719 24.160156 C 11.347656 24.246094 11.433594 24.316406 11.53125 24.375 C 11.738281 24.503906 11.976562 24.566406 12.238281 24.566406 C 12.621094 24.566406 12.941406 24.433594 13.214844 24.160156 C 13.480469 23.894531 13.621094 23.566406 13.621094 23.191406 C 13.621094 22.925781 13.554688 22.691406 13.425781 22.480469 Z M 13.425781 22.480469 "/>
</g>
</svg>
