
<svg xmlns="http://www.w3.org/2000/svg" xmlns:xlink="http://www.w3.org/1999/xlink" width="32px" height="32px" viewBox="0 0 32 32" version="1.1">
<g id="surface1">
<path style="fill-rule:nonzero;fill:rgb(100%,100%,100%);fill-opacity:1;stroke-width:27.965042;stroke-linecap:butt;stroke-linejoin:miter;stroke:rgb(32.941177%,56.078434%,94.117647%);stroke-opacity:1;stroke-miterlimit:4;" d="M 82.875 26.9375 L 429.125 26.9375 C 460 26.9375 485.0625 52 485.0625 82.875 L 485.0625 429.125 C 485.0625 460 460 485.0625 429.125 485.0625 L 82.875 485.0625 C 52 485.0625 26.9375 460 26.9375 429.125 L 26.9375 82.875 C 26.9375 52 52 26.9375 82.875 26.9375 Z M 82.875 26.9375 " transform="matrix(0.0625,0,0,0.0625,0,0)"/>
<path style=" stroke:none;fill-rule:nonzero;fill:rgb(32.941177%,56.078434%,94.117647%);fill-opacity:1;" d="M 10.996094 25.386719 C 10.136719 25.332031 9.039062 25.152344 8.066406 24.90625 C 6.914062 24.613281 5.273438 23.9375 4.921875 23.609375 L 4.777344 23.472656 L 5.6875 23.417969 C 6.191406 23.386719 6.722656 23.347656 6.871094 23.328125 C 8.578125 23.105469 9.871094 22.628906 10.992188 21.792969 C 11.449219 21.453125 11.527344 21.296875 11.257812 21.253906 C 11.167969 21.242188 10.941406 21.207031 10.75 21.175781 C 9.503906 20.980469 8.203125 20.207031 7.542969 19.277344 C 7.300781 18.941406 6.988281 18.332031 7.03125 18.285156 C 7.046875 18.269531 7.207031 18.285156 7.394531 18.316406 C 7.796875 18.386719 8.324219 18.351562 8.722656 18.226562 C 9.15625 18.09375 9.132812 17.992188 8.625 17.792969 C 6.761719 17.058594 5.785156 15.785156 5.5625 13.804688 C 5.546875 13.648438 5.546875 13.519531 5.5625 13.519531 C 5.582031 13.519531 5.863281 13.613281 6.191406 13.726562 C 6.652344 13.878906 6.871094 13.929688 7.140625 13.933594 C 7.628906 13.945312 7.628906 13.871094 7.136719 13.359375 C 5.761719 11.925781 5.347656 10.378906 5.863281 8.59375 C 5.933594 8.355469 6.035156 8.066406 6.089844 7.945312 L 6.183594 7.722656 L 6.789062 8.320312 C 8.25 9.761719 9.550781 10.722656 10.996094 11.425781 C 12.480469 12.144531 13.953125 12.535156 15.269531 12.550781 L 15.886719 12.558594 L 15.875 12.410156 C 15.871094 12.328125 15.847656 12.050781 15.832031 11.789062 C 15.746094 10.605469 16.1875 9.28125 16.992188 8.292969 C 17.449219 7.738281 18.441406 7.160156 19.34375 6.925781 C 20.308594 6.671875 21.621094 6.777344 22.464844 7.175781 C 22.933594 7.394531 23.207031 7.589844 23.644531 8.003906 L 24.003906 8.34375 L 24.363281 8.238281 C 25.242188 7.976562 25.996094 7.660156 26.542969 7.316406 L 26.738281 7.191406 L 26.707031 7.375 C 26.691406 7.476562 26.585938 7.746094 26.472656 7.980469 C 26.261719 8.398438 26.082031 8.609375 25.378906 9.269531 C 25.21875 9.417969 25.097656 9.5625 25.109375 9.589844 C 25.164062 9.757812 25.953125 9.621094 26.816406 9.300781 C 27.128906 9.183594 27.398438 9.097656 27.410156 9.105469 C 27.449219 9.140625 26.960938 9.769531 26.597656 10.160156 C 26.386719 10.378906 25.976562 10.773438 25.679688 11.035156 L 25.144531 11.503906 L 25.144531 12.082031 C 25.136719 15.492188 23.6875 18.980469 21.222656 21.511719 C 19.59375 23.183594 17.75 24.300781 15.582031 24.925781 C 14.277344 25.304688 12.480469 25.484375 10.996094 25.386719 Z M 10.996094 25.386719 "/>
<path style=" stroke:none;fill-rule:nonzero;fill:rgb(23.529412%,50.588238%,93.725491%);fill-opacity:1;" d="M 10.785156 25.371094 C 10.707031 25.363281 10.394531 25.347656 10.140625 25.316406 C 9.078125 25.199219 7.605469 24.824219 6.621094 24.449219 C 6.230469 24.296875 5.710938 24.089844 5.332031 23.886719 C 4.824219 23.613281 4.550781 23.371094 4.972656 23.519531 C 5.738281 23.777344 7.402344 24.171875 8.402344 24.3125 C 9.332031 24.445312 11.289062 24.433594 12.207031 24.292969 C 15.105469 23.84375 17.363281 22.699219 19.417969 20.644531 C 20.496094 19.566406 21.277344 18.496094 21.957031 17.167969 C 22.792969 15.535156 23.230469 13.992188 23.402344 12.085938 C 23.570312 10.164062 23.046875 8.175781 22.105469 7.179688 C 22.019531 7.09375 21.898438 7.011719 21.917969 6.992188 C 21.972656 6.9375 22.65625 7.21875 23.027344 7.46875 C 23.214844 7.597656 23.503906 7.835938 23.667969 8 C 23.855469 8.191406 24 8.300781 24.070312 8.300781 C 24.402344 8.300781 26.003906 7.675781 26.578125 7.292969 L 26.734375 7.191406 L 26.714844 7.320312 C 26.621094 8.019531 26.261719 8.449219 25.625 9.035156 C 25.335938 9.300781 25.089844 9.554688 25.109375 9.585938 C 25.164062 9.675781 25.246094 9.679688 25.644531 9.625 C 25.996094 9.574219 26.699219 9.355469 27.152344 9.167969 C 27.261719 9.121094 27.40625 9.097656 27.417969 9.105469 C 27.425781 9.117188 27.320312 9.277344 27.195312 9.449219 C 26.898438 9.855469 26.273438 10.601562 25.628906 11.078125 L 25.140625 11.503906 L 25.136719 12.136719 C 25.105469 14.875 24.175781 17.757812 22.433594 20.089844 C 20.300781 22.941406 17.378906 24.773438 13.933594 25.269531 C 13.449219 25.339844 11.128906 25.417969 10.785156 25.371094 Z M 10.785156 25.371094 "/>
</g>
</svg>
