
<svg xmlns="http://www.w3.org/2000/svg" xmlns:xlink="http://www.w3.org/1999/xlink" width="32px" height="32px" viewBox="0 0 32 32" version="1.1">
<g id="surface1">
<path style="fill-rule:nonzero;fill:rgb(37.254903%,82.745099%,73.725492%);fill-opacity:1;stroke-width:2.018116;stroke-linecap:butt;stroke-linejoin:miter;stroke:rgb(92.54902%,94.117647%,94.509804%);stroke-opacity:1;stroke-miterlimit:4;" d="M -32.549677 376.79735 L -7.564187 376.79735 C -5.332868 376.79735 -3.524881 378.605336 -3.524881 380.836656 L -3.524881 405.822145 C -3.524881 408.053464 -5.332868 409.861451 -7.564187 409.861451 L -32.549677 409.861451 C -34.780996 409.861451 -36.588983 408.053464 -36.588983 405.822145 L -36.588983 380.836656 C -36.588983 378.605336 -34.780996 376.79735 -32.549677 376.79735 Z M -32.549677 376.79735 " transform="matrix(0.885827,0,0,0.885827,33.766965,-332.421672)"/>
<path style=" stroke:none;fill-rule:nonzero;fill:rgb(92.54902%,94.117647%,94.509804%);fill-opacity:0.901961;" d="M 7.871094 24.230469 L 23.042969 24.292969 C 26.523438 24.667969 32.433594 16.867188 23.417969 12.5625 C 23.230469 4.511719 16.824219 2.636719 12.597656 8.378906 C 9.636719 7.105469 5.507812 8.816406 6.441406 13.871094 C 1.167969 16.003906 3.269531 23.359375 7.871094 24.230469 Z M 7.871094 24.230469 "/>
<path style=" stroke:none;fill-rule:nonzero;fill:rgb(12.54902%,17.647059%,22.745098%);fill-opacity:1;" d="M 13.152344 18.667969 L 11.683594 21.335938 L 10.09375 21.335938 C 11.214844 19.316406 12.300781 17.460938 13.359375 15.761719 C 14.429688 14.066406 15.480469 12.464844 16.519531 10.957031 L 17.941406 10.957031 C 18.09375 11.703125 18.230469 12.464844 18.347656 13.230469 C 18.480469 13.988281 18.601562 14.789062 18.722656 15.628906 C 18.84375 16.464844 18.957031 17.355469 19.066406 18.292969 C 19.175781 19.234375 19.292969 20.246094 19.410156 21.335938 L 17.941406 21.335938 C 17.894531 20.886719 17.847656 20.4375 17.808594 19.988281 C 17.769531 19.527344 17.722656 19.089844 17.675781 18.667969 L 13.152344 18.667969 M 17.539062 17.5 C 17.457031 16.691406 17.363281 15.886719 17.253906 15.089844 C 17.152344 14.289062 17.035156 13.464844 16.894531 12.617188 C 16.546875 13.128906 16.113281 13.785156 15.589844 14.59375 C 15.074219 15.394531 14.484375 16.363281 13.824219 17.5 L 17.539062 17.5 "/>
</g>
</svg>
