
<svg xmlns="http://www.w3.org/2000/svg" xmlns:xlink="http://www.w3.org/1999/xlink" width="32px" height="32px" viewBox="0 0 32 32" version="1.1">
<g id="surface1">
<path style=" stroke:none;fill-rule:evenodd;fill:rgb(94.509804%,76.862746%,5.882353%);fill-opacity:1;" d="M 24.191406 3.074219 L 26.707031 3.074219 L 26.707031 6.523438 L 24.191406 6.523438 Z M 24.191406 3.074219 "/>
<path style=" stroke:none;fill-rule:evenodd;fill:rgb(94.509804%,76.862746%,5.882353%);fill-opacity:1;" d="M 5.332031 3.042969 L 7.84375 3.042969 L 7.84375 6.496094 L 5.332031 6.496094 Z M 5.332031 3.042969 "/>
<path style=" stroke:none;fill-rule:evenodd;fill:rgb(90.588236%,29.803923%,23.529412%);fill-opacity:1;" d="M 2.832031 3.949219 L 29.378906 3.949219 L 29.378906 15.40625 L 2.832031 15.40625 Z M 2.832031 3.949219 "/>
<path style=" stroke:none;fill-rule:evenodd;fill:rgb(75.294119%,22.352941%,16.862746%);fill-opacity:1;" d="M 4.148438 5.4375 L 27.921875 5.4375 L 27.921875 15.695312 L 4.148438 15.695312 Z M 4.148438 5.4375 "/>
<path style=" stroke:none;fill-rule:nonzero;fill:rgb(70.19608%,70.19608%,70.19608%);fill-opacity:1;" d="M 9.605469 10.910156 L 8.804688 9.558594 L 9.507812 8.347656 C 10.613281 6.449219 10.917969 6.433594 10.917969 8.285156 C 10.917969 9.578125 11.191406 10.109375 11.863281 10.109375 C 12.402344 10.109375 12.582031 9.738281 12.730469 8.324219 C 12.820312 7.464844 12.941406 7.046875 13.089844 7.09375 C 13.210938 7.132812 13.628906 7.707031 14.011719 8.363281 L 14.710938 9.5625 L 14.011719 10.792969 C 13.386719 11.890625 13.246094 12.023438 12.714844 12.027344 C 12.386719 12.027344 11.261719 12.078125 11.253906 12.078125 L 10.410156 12.007812 Z M 9.605469 10.910156 "/>
<path style=" stroke:none;fill-rule:evenodd;fill:rgb(90.588236%,29.803923%,23.529412%);fill-opacity:1;" d="M 1.355469 14.789062 L 30.777344 14.789062 L 30.777344 29.027344 L 1.355469 29.027344 Z M 1.355469 14.789062 "/>
<path style=" stroke:none;fill-rule:evenodd;fill:rgb(17.254902%,24.313726%,31.37255%);fill-opacity:1;" d="M 10.460938 11.988281 L 13.15625 11.988281 L 13.15625 15.441406 L 10.460938 15.441406 Z M 10.460938 11.988281 "/>
<path style=" stroke:none;fill-rule:evenodd;fill:rgb(59.607846%,63.921571%,63.921571%);fill-opacity:1;" d="M 18.503906 7.910156 L 20.476562 7.910156 L 20.476562 14.820312 L 18.503906 14.820312 Z M 18.503906 7.910156 "/>
<path style=" stroke:none;fill-rule:evenodd;fill:rgb(96.078432%,37.64706%,31.764707%);fill-opacity:1;" d="M 1.359375 14.785156 L 30.785156 14.785156 L 30.785156 19.527344 L 1.359375 19.527344 Z M 1.359375 14.785156 "/>
<path style=" stroke:none;fill-rule:evenodd;fill:rgb(94.509804%,76.862746%,5.882353%);fill-opacity:1;" d="M 5.273438 13.460938 L 6.566406 13.460938 L 6.566406 16.914062 L 5.273438 16.914062 Z M 5.273438 13.460938 "/>
<path style=" stroke:none;fill-rule:evenodd;fill:rgb(95.294118%,61.176473%,7.058824%);fill-opacity:1;" d="M 6.539062 13.464844 L 7.832031 13.464844 L 7.832031 16.917969 L 6.539062 16.917969 Z M 6.539062 13.464844 "/>
<path style=" stroke:none;fill-rule:evenodd;fill:rgb(94.509804%,76.862746%,5.882353%);fill-opacity:1;" d="M 24.15625 13.5 L 25.449219 13.5 L 25.449219 16.949219 L 24.15625 16.949219 Z M 24.15625 13.5 "/>
<path style=" stroke:none;fill-rule:evenodd;fill:rgb(95.294118%,61.176473%,7.058824%);fill-opacity:1;" d="M 25.421875 13.5 L 26.714844 13.5 L 26.714844 16.953125 L 25.421875 16.953125 Z M 25.421875 13.5 "/>
<path style=" stroke:none;fill-rule:evenodd;fill:rgb(70.19608%,70.19608%,70.19608%);fill-opacity:1;" d="M 19.488281 7.878906 C 20.035156 7.878906 20.476562 8.429688 20.476562 9.105469 L 20.476562 9.933594 C 20.476562 10.613281 20.035156 11.160156 19.488281 11.160156 C 18.945312 11.160156 18.503906 10.613281 18.503906 9.933594 L 18.503906 9.105469 C 18.503906 8.429688 18.945312 7.878906 19.488281 7.878906 Z M 19.488281 7.878906 "/>
<path style=" stroke:none;fill-rule:evenodd;fill:rgb(70.19608%,70.19608%,70.19608%);fill-opacity:1;" d="M 18.5 7.832031 L 20.472656 7.832031 L 20.472656 9.769531 L 18.5 9.769531 Z M 18.5 7.832031 "/>
</g>
</svg>
