
<svg xmlns="http://www.w3.org/2000/svg" xmlns:xlink="http://www.w3.org/1999/xlink" width="32px" height="32px" viewBox="0 0 32 32" version="1.1">
<g id="surface1">
<path style=" stroke:none;fill-rule:nonzero;fill:rgb(87.843138%,29.411766%,14.901961%);fill-opacity:1;" d="M 24.527344 1.9375 C 22.9375 1.9375 21.644531 3.210938 21.644531 4.785156 C 21.644531 6.355469 22.9375 7.628906 24.527344 7.628906 C 26.121094 7.628906 27.414062 6.355469 27.414062 4.785156 C 27.414062 3.210938 26.121094 1.9375 24.527344 1.9375 Z M 18.441406 4.167969 C 16.664062 4.167969 14.867188 4.605469 13.246094 5.398438 C 13.1875 5.425781 13.144531 5.476562 13.128906 5.539062 C 13.113281 5.597656 13.121094 5.664062 13.152344 5.71875 L 15.488281 9.375 C 15.546875 9.46875 15.667969 9.503906 15.769531 9.464844 C 16.632812 9.101562 17.535156 8.917969 18.441406 8.917969 C 21.777344 8.917969 24.691406 11.363281 25.214844 14.605469 C 25.230469 14.714844 25.324219 14.792969 25.4375 14.792969 L 29.835938 14.800781 C 29.898438 14.800781 29.960938 14.773438 30.003906 14.726562 C 30.046875 14.679688 30.066406 14.617188 30.0625 14.554688 C 29.824219 12.148438 28.789062 9.828125 27.144531 8.019531 C 27.066406 7.941406 26.945312 7.921875 26.851562 7.980469 C 26.1875 8.40625 25.433594 8.628906 24.675781 8.628906 C 22.453125 8.628906 20.644531 6.855469 20.644531 4.675781 C 20.644531 4.675781 20.652344 4.589844 20.652344 4.589844 C 20.652344 4.480469 20.570312 4.386719 20.460938 4.367188 C 19.769531 4.25 19.089844 4.167969 18.441406 4.167969 Z M 11.429688 6.542969 C 11.378906 6.546875 11.335938 6.5625 11.296875 6.589844 C 9.390625 8.042969 7.957031 10.082031 7.261719 12.339844 C 7.234375 12.425781 7.265625 12.519531 7.339844 12.578125 C 8.296875 13.328125 8.871094 14.480469 8.871094 15.664062 C 8.871094 16.847656 8.296875 18.003906 7.339844 18.753906 C 7.265625 18.808594 7.234375 18.902344 7.261719 18.992188 C 7.953125 21.230469 9.371094 23.257812 11.253906 24.707031 C 11.300781 24.746094 11.367188 24.761719 11.429688 24.75 C 11.492188 24.738281 11.550781 24.699219 11.582031 24.648438 L 13.9375 21 C 13.996094 20.90625 13.980469 20.785156 13.894531 20.710938 C 12.417969 19.425781 11.570312 17.589844 11.570312 15.664062 C 11.570312 13.730469 12.425781 11.878906 13.917969 10.597656 C 14.003906 10.523438 14.023438 10.402344 13.964844 10.308594 L 11.628906 6.648438 C 11.59375 6.597656 11.539062 6.558594 11.476562 6.550781 C 11.460938 6.546875 11.445312 6.542969 11.429688 6.542969 Z M 4.886719 12.804688 C 3.257812 12.804688 1.9375 14.109375 1.9375 15.71875 C 1.9375 17.328125 3.257812 18.632812 4.886719 18.632812 C 6.519531 18.632812 7.839844 17.328125 7.839844 15.71875 C 7.839844 14.109375 6.519531 12.804688 4.886719 12.804688 Z M 29.832031 16.566406 L 25.433594 16.582031 C 25.324219 16.582031 25.226562 16.660156 25.207031 16.769531 C 24.679688 19.984375 21.769531 22.410156 18.441406 22.410156 C 17.523438 22.410156 16.613281 22.222656 15.738281 21.855469 C 15.636719 21.808594 15.519531 21.847656 15.457031 21.941406 L 13.105469 25.585938 C 13.070312 25.640625 13.058594 25.707031 13.078125 25.765625 C 13.09375 25.828125 13.136719 25.878906 13.195312 25.90625 C 14.828125 26.714844 16.644531 27.140625 18.441406 27.140625 C 19.105469 27.140625 19.800781 27.078125 20.503906 26.957031 C 20.605469 26.941406 20.679688 26.859375 20.691406 26.761719 C 20.925781 24.761719 22.636719 23.253906 24.675781 23.253906 C 25.304688 23.253906 25.949219 23.414062 26.53125 23.714844 C 26.621094 23.761719 26.726562 23.746094 26.796875 23.675781 C 28.636719 21.820312 29.796875 19.382812 30.058594 16.8125 C 30.066406 16.75 30.042969 16.6875 30 16.640625 C 29.957031 16.589844 29.894531 16.566406 29.832031 16.566406 Z M 24.640625 24.265625 C 23.011719 24.265625 21.691406 25.5625 21.691406 27.164062 C 21.691406 28.765625 23.011719 30.0625 24.640625 30.0625 C 26.269531 30.0625 27.59375 28.765625 27.59375 27.164062 C 27.59375 25.5625 26.269531 24.265625 24.640625 24.265625 Z M 24.640625 24.265625 "/>
</g>
</svg>
