<!-- color: #70bdea -->
<svg xmlns="http://www.w3.org/2000/svg" xmlns:xlink="http://www.w3.org/1999/xlink" width="32px" height="32px" viewBox="0 0 32 32" version="1.1">
<g id="surface1">
<path style="fill-rule:nonzero;fill:rgb(29.019609%,68.235296%,90.196079%);fill-opacity:1;stroke-width:28.480503;stroke-linecap:butt;stroke-linejoin:miter;stroke:rgb(18.039216%,45.09804%,60.000002%);stroke-opacity:1;stroke-miterlimit:4;" d="M 79.6875 22.75 L 432.3125 22.75 C 463.75 22.75 489.25 48.25 489.25 79.6875 L 489.25 432.3125 C 489.25 463.75 463.75 489.25 432.3125 489.25 L 79.6875 489.25 C 48.25 489.25 22.75 463.75 22.75 432.3125 L 22.75 79.6875 C 22.75 48.25 48.25 22.75 79.6875 22.75 Z M 79.6875 22.75 " transform="matrix(0.0625,0,0,0.0625,0,0)"/>
<path style=" stroke:none;fill-rule:nonzero;fill:rgb(40.000001%,40.000001%,40.000001%);fill-opacity:1;" d="M 25.300781 16.832031 C 25.300781 12.058594 21.335938 8.1875 16.445312 8.1875 C 11.558594 8.1875 7.59375 12.058594 7.59375 16.832031 C 7.59375 21.605469 11.558594 25.472656 16.445312 25.472656 C 21.335938 25.472656 25.300781 21.605469 25.300781 16.832031 Z M 25.300781 16.832031 "/>
<path style=" stroke:none;fill-rule:nonzero;fill:rgb(40.000001%,40.000001%,40.000001%);fill-opacity:1;" d="M 14.550781 30.261719 C 14.308594 30.15625 14.058594 29.886719 13.945312 29.613281 C 13.886719 29.472656 13.828125 28.9375 13.777344 28.082031 C 13.738281 27.355469 13.683594 26.707031 13.65625 26.636719 C 13.621094 26.542969 13.457031 26.453125 13.042969 26.308594 C 12.730469 26.199219 12.257812 26.003906 11.996094 25.871094 C 11.730469 25.738281 11.460938 25.628906 11.390625 25.628906 C 11.3125 25.628906 10.882812 25.980469 10.269531 26.542969 C 9.722656 27.042969 9.191406 27.496094 9.082031 27.550781 C 8.859375 27.667969 8.359375 27.683594 8.101562 27.589844 C 7.894531 27.511719 5.726562 25.375 5.589844 25.113281 C 5.449219 24.851562 5.464844 24.363281 5.621094 24.066406 C 5.691406 23.933594 6.148438 23.386719 6.636719 22.855469 C 7.167969 22.285156 7.53125 21.839844 7.53125 21.769531 C 7.53125 21.699219 7.421875 21.429688 7.292969 21.167969 C 7.160156 20.902344 6.960938 20.433594 6.855469 20.125 C 6.746094 19.8125 6.613281 19.535156 6.558594 19.507812 C 6.503906 19.480469 5.863281 19.425781 5.140625 19.382812 C 4.296875 19.339844 3.730469 19.277344 3.566406 19.21875 C 3.253906 19.105469 2.894531 18.722656 2.839844 18.449219 C 2.820312 18.335938 2.8125 17.511719 2.824219 16.613281 L 2.839844 14.980469 L 3.027344 14.742188 C 3.363281 14.324219 3.519531 14.285156 5.105469 14.1875 C 6 14.132812 6.546875 14.074219 6.589844 14.027344 C 6.628906 13.988281 6.765625 13.679688 6.890625 13.34375 C 7.015625 13.003906 7.210938 12.542969 7.324219 12.316406 C 7.4375 12.089844 7.53125 11.855469 7.53125 11.792969 C 7.53125 11.734375 7.15625 11.273438 6.699219 10.769531 C 6.238281 10.265625 5.800781 9.769531 5.722656 9.667969 C 5.503906 9.378906 5.429688 9.023438 5.515625 8.671875 C 5.582031 8.410156 5.699219 8.265625 6.699219 7.253906 C 7.308594 6.636719 7.910156 6.078125 8.035156 6.011719 C 8.324219 5.863281 8.785156 5.863281 9.074219 6.011719 C 9.195312 6.070312 9.730469 6.519531 10.257812 7.003906 C 10.785156 7.492188 11.253906 7.910156 11.300781 7.933594 C 11.347656 7.960938 11.628906 7.859375 11.976562 7.695312 C 12.308594 7.539062 12.800781 7.335938 13.074219 7.246094 C 13.441406 7.121094 13.585938 7.042969 13.636719 6.933594 C 13.675781 6.851562 13.738281 6.191406 13.78125 5.46875 C 13.859375 4.074219 13.90625 3.855469 14.195312 3.554688 C 14.515625 3.21875 14.699219 3.191406 16.484375 3.214844 L 18.113281 3.230469 L 18.367188 3.398438 C 18.804688 3.691406 18.859375 3.871094 18.960938 5.421875 C 19.011719 6.171875 19.066406 6.84375 19.082031 6.914062 C 19.105469 7.015625 19.238281 7.089844 19.675781 7.242188 C 19.988281 7.347656 20.484375 7.558594 20.78125 7.707031 C 21.074219 7.859375 21.34375 7.980469 21.371094 7.980469 C 21.402344 7.980469 21.878906 7.566406 22.429688 7.058594 C 22.984375 6.550781 23.539062 6.082031 23.664062 6.015625 C 23.957031 5.863281 24.398438 5.863281 24.722656 6.019531 C 24.875 6.09375 25.398438 6.566406 26.050781 7.230469 C 27.175781 8.363281 27.265625 8.496094 27.265625 9.007812 C 27.269531 9.371094 27.105469 9.613281 26.136719 10.671875 C 25.613281 11.246094 25.183594 11.742188 25.183594 11.773438 C 25.183594 11.800781 25.320312 12.113281 25.488281 12.464844 C 25.65625 12.8125 25.855469 13.300781 25.933594 13.550781 C 26.027344 13.859375 26.113281 14.019531 26.195312 14.054688 C 26.261719 14.082031 26.941406 14.144531 27.699219 14.191406 C 29.210938 14.285156 29.453125 14.347656 29.707031 14.707031 C 29.945312 15.042969 29.972656 15.292969 29.953125 16.9375 L 29.933594 18.511719 L 29.746094 18.773438 C 29.417969 19.242188 29.335938 19.269531 27.660156 19.378906 C 26.839844 19.429688 26.160156 19.488281 26.140625 19.503906 C 26.121094 19.523438 26.019531 19.785156 25.914062 20.085938 C 25.808594 20.386719 25.597656 20.878906 25.449219 21.175781 C 25.300781 21.476562 25.183594 21.753906 25.195312 21.800781 C 25.207031 21.847656 25.613281 22.316406 26.101562 22.851562 C 26.589844 23.386719 27.054688 23.941406 27.128906 24.09375 C 27.292969 24.410156 27.304688 24.746094 27.171875 25.066406 C 27.054688 25.347656 25.066406 27.367188 24.742188 27.535156 C 24.472656 27.675781 23.980469 27.691406 23.695312 27.566406 C 23.585938 27.519531 23.042969 27.066406 22.488281 26.558594 C 21.929688 26.046875 21.429688 25.628906 21.378906 25.628906 C 21.324219 25.628906 21.011719 25.757812 20.679688 25.910156 C 20.351562 26.0625 19.863281 26.261719 19.597656 26.347656 C 19.230469 26.472656 19.105469 26.539062 19.082031 26.636719 C 19.066406 26.707031 19.011719 27.378906 18.960938 28.128906 C 18.851562 29.78125 18.789062 29.957031 18.214844 30.25 C 18.046875 30.335938 17.769531 30.347656 16.375 30.347656 C 15.140625 30.347656 14.6875 30.324219 14.550781 30.261719 Z M 16.96875 22.933594 C 18.449219 22.777344 19.691406 22.183594 20.746094 21.128906 C 21.546875 20.328125 22.066406 19.425781 22.378906 18.285156 C 22.574219 17.574219 22.574219 16 22.375 15.277344 C 21.777344 13.085938 20.210938 11.472656 18.042969 10.824219 C 17.535156 10.667969 17.402344 10.65625 16.417969 10.652344 C 15.476562 10.644531 15.28125 10.664062 14.824219 10.789062 C 12.542969 11.410156 10.800781 13.246094 10.324219 15.519531 C 9.894531 17.5625 10.519531 19.648438 12.011719 21.148438 C 12.792969 21.933594 13.808594 22.507812 14.90625 22.792969 C 15.21875 22.871094 15.660156 22.933594 16.296875 22.988281 C 16.347656 22.988281 16.648438 22.964844 16.96875 22.933594 Z M 15.449219 20.363281 C 13.886719 19.941406 12.792969 18.609375 12.695312 17.015625 C 12.628906 15.902344 12.988281 14.957031 13.777344 14.167969 C 15.222656 12.730469 17.523438 12.71875 18.949219 14.136719 C 20.121094 15.308594 20.402344 16.96875 19.671875 18.429688 C 19.050781 19.671875 17.910156 20.40625 16.511719 20.460938 C 16.035156 20.480469 15.796875 20.457031 15.449219 20.363281 Z M 17.199219 18.816406 C 17.628906 18.65625 18.144531 18.175781 18.363281 17.738281 C 18.515625 17.425781 18.535156 17.324219 18.535156 16.777344 C 18.535156 16.191406 18.523438 16.144531 18.324219 15.773438 C 17.917969 15.035156 17.324219 14.65625 16.480469 14.613281 C 15.800781 14.582031 15.394531 14.722656 14.90625 15.167969 C 14.285156 15.738281 14.039062 16.527344 14.238281 17.300781 C 14.410156 17.976562 14.777344 18.433594 15.390625 18.746094 C 15.964844 19.035156 16.554688 19.058594 17.199219 18.816406 Z M 17.199219 18.816406 "/>
<path style=" stroke:none;fill-rule:nonzero;fill:rgb(94.117647%,94.117647%,94.117647%);fill-opacity:1;" d="M 24.894531 16.027344 C 24.894531 11.253906 20.933594 7.382812 16.042969 7.382812 C 11.15625 7.382812 7.191406 11.253906 7.191406 16.027344 C 7.191406 20.796875 11.15625 24.667969 16.042969 24.667969 C 20.933594 24.667969 24.894531 20.796875 24.894531 16.027344 Z M 24.894531 16.027344 "/>
<path style=" stroke:none;fill-rule:nonzero;fill:rgb(94.117647%,94.117647%,94.117647%);fill-opacity:1;" d="M 14.144531 29.457031 C 13.910156 29.351562 13.65625 29.082031 13.542969 28.808594 C 13.484375 28.667969 13.425781 28.132812 13.375 27.277344 C 13.332031 26.550781 13.277344 25.902344 13.253906 25.832031 C 13.21875 25.738281 13.050781 25.648438 12.636719 25.503906 C 12.324219 25.394531 11.855469 25.199219 11.59375 25.066406 C 11.332031 24.933594 11.058594 24.824219 10.988281 24.824219 C 10.910156 24.824219 10.480469 25.175781 9.867188 25.738281 C 9.324219 26.238281 8.785156 26.691406 8.679688 26.746094 C 8.457031 26.863281 7.957031 26.878906 7.699219 26.785156 C 7.496094 26.707031 5.324219 24.566406 5.183594 24.304688 C 5.046875 24.042969 5.0625 23.558594 5.214844 23.261719 C 5.285156 23.128906 5.746094 22.582031 6.238281 22.050781 C 6.765625 21.480469 7.128906 21.035156 7.128906 20.960938 C 7.128906 20.894531 7.019531 20.625 6.886719 20.363281 C 6.753906 20.097656 6.558594 19.628906 6.449219 19.316406 C 6.339844 19.007812 6.207031 18.730469 6.152344 18.703125 C 6.097656 18.675781 5.464844 18.617188 4.738281 18.578125 C 3.894531 18.53125 3.328125 18.472656 3.164062 18.414062 C 2.851562 18.300781 2.488281 17.917969 2.441406 17.644531 C 2.417969 17.53125 2.410156 16.707031 2.417969 15.808594 L 2.441406 14.171875 L 2.628906 13.9375 C 2.957031 13.519531 3.113281 13.480469 4.699219 13.382812 C 5.597656 13.328125 6.144531 13.269531 6.1875 13.222656 C 6.230469 13.183594 6.363281 12.875 6.488281 12.535156 C 6.613281 12.199219 6.808594 11.738281 6.921875 11.511719 C 7.035156 11.285156 7.128906 11.050781 7.128906 10.988281 C 7.128906 10.929688 6.753906 10.46875 6.292969 9.964844 C 5.835938 9.460938 5.394531 8.964844 5.320312 8.863281 C 5.101562 8.574219 5.027344 8.21875 5.113281 7.867188 C 5.179688 7.605469 5.300781 7.460938 6.292969 6.449219 C 6.90625 5.832031 7.503906 5.273438 7.628906 5.207031 C 7.921875 5.058594 8.382812 5.058594 8.671875 5.203125 C 8.792969 5.265625 9.324219 5.714844 9.855469 6.199219 C 10.382812 6.683594 10.851562 7.105469 10.894531 7.128906 C 10.941406 7.152344 11.230469 7.054688 11.574219 6.890625 C 11.902344 6.734375 12.394531 6.53125 12.667969 6.441406 C 13.039062 6.316406 13.183594 6.234375 13.234375 6.128906 C 13.269531 6.046875 13.335938 5.386719 13.378906 4.660156 C 13.457031 3.269531 13.503906 3.050781 13.792969 2.746094 C 14.113281 2.414062 14.296875 2.386719 16.082031 2.40625 L 17.710938 2.425781 L 17.964844 2.59375 C 18.402344 2.886719 18.457031 3.066406 18.558594 4.613281 C 18.609375 5.367188 18.664062 6.039062 18.679688 6.109375 C 18.703125 6.210938 18.839844 6.285156 19.273438 6.4375 C 19.582031 6.542969 20.082031 6.753906 20.378906 6.902344 C 20.675781 7.054688 20.941406 7.175781 20.96875 7.175781 C 20.996094 7.175781 21.472656 6.761719 22.027344 6.253906 C 22.582031 5.746094 23.136719 5.277344 23.261719 5.210938 C 23.558594 5.054688 23.996094 5.058594 24.320312 5.214844 C 24.472656 5.289062 24.996094 5.761719 25.652344 6.425781 C 26.773438 7.558594 26.863281 7.691406 26.863281 8.203125 C 26.863281 8.566406 26.703125 8.808594 25.738281 9.863281 C 25.210938 10.441406 24.78125 10.9375 24.78125 10.96875 C 24.78125 10.996094 24.917969 11.308594 25.085938 11.65625 C 25.253906 12.007812 25.453125 12.496094 25.527344 12.746094 C 25.625 13.054688 25.707031 13.214844 25.792969 13.25 C 25.859375 13.277344 26.535156 13.339844 27.296875 13.386719 C 28.808594 13.480469 29.050781 13.542969 29.304688 13.902344 C 29.542969 14.238281 29.570312 14.488281 29.550781 16.132812 L 29.53125 17.707031 L 29.347656 17.96875 C 29.015625 18.4375 28.933594 18.460938 27.257812 18.570312 C 26.441406 18.625 25.753906 18.683594 25.738281 18.699219 C 25.71875 18.71875 25.621094 18.980469 25.511719 19.28125 C 25.40625 19.582031 25.195312 20.074219 25.046875 20.371094 C 24.894531 20.667969 24.78125 20.949219 24.792969 20.996094 C 24.800781 21.042969 25.210938 21.511719 25.699219 22.046875 C 26.1875 22.582031 26.652344 23.136719 26.726562 23.285156 C 26.886719 23.605469 26.902344 23.941406 26.769531 24.261719 C 26.652344 24.539062 24.660156 26.5625 24.339844 26.730469 C 24.066406 26.871094 23.574219 26.886719 23.292969 26.761719 C 23.183594 26.714844 22.640625 26.261719 22.082031 25.753906 C 21.527344 25.242188 21.027344 24.824219 20.972656 24.824219 C 20.917969 24.824219 20.605469 24.949219 20.277344 25.105469 C 19.949219 25.257812 19.460938 25.457031 19.195312 25.542969 C 18.824219 25.667969 18.703125 25.734375 18.679688 25.832031 C 18.664062 25.902344 18.609375 26.574219 18.558594 27.324219 C 18.449219 28.972656 18.386719 29.152344 17.8125 29.445312 C 17.644531 29.527344 17.371094 29.542969 15.972656 29.542969 C 14.738281 29.539062 14.285156 29.519531 14.144531 29.457031 Z M 16.566406 22.128906 C 18.050781 21.972656 19.285156 21.378906 20.339844 20.324219 C 21.144531 19.519531 21.664062 18.621094 21.972656 17.480469 C 22.167969 16.769531 22.167969 15.195312 21.972656 14.472656 C 21.375 12.28125 19.808594 10.667969 17.640625 10.015625 C 17.136719 9.863281 16.996094 9.847656 16.015625 9.847656 C 15.074219 9.839844 14.878906 9.859375 14.421875 9.984375 C 12.140625 10.605469 10.394531 12.441406 9.917969 14.714844 C 9.492188 16.757812 10.117188 18.84375 11.609375 20.339844 C 12.390625 21.128906 13.402344 21.703125 14.503906 21.988281 C 14.816406 22.066406 15.261719 22.128906 15.894531 22.179688 C 15.941406 22.183594 16.246094 22.160156 16.566406 22.128906 Z M 15.046875 19.558594 C 13.484375 19.132812 12.390625 17.804688 12.292969 16.207031 C 12.226562 15.09375 12.585938 14.152344 13.378906 13.363281 C 14.816406 11.925781 17.121094 11.914062 18.542969 13.332031 C 19.714844 14.503906 19.996094 16.164062 19.269531 17.625 C 18.652344 18.867188 17.507812 19.597656 16.105469 19.65625 C 15.628906 19.675781 15.394531 19.652344 15.046875 19.558594 Z M 16.796875 18.011719 C 17.226562 17.851562 17.742188 17.371094 17.957031 16.933594 C 18.113281 16.621094 18.128906 16.515625 18.128906 15.96875 C 18.128906 15.386719 18.121094 15.335938 17.917969 14.96875 C 17.519531 14.226562 16.921875 13.851562 16.078125 13.808594 C 15.398438 13.773438 14.996094 13.917969 14.503906 14.363281 C 13.886719 14.933594 13.636719 15.71875 13.835938 16.496094 C 14.011719 17.167969 14.375 17.628906 14.988281 17.9375 C 15.5625 18.230469 16.152344 18.253906 16.796875 18.011719 Z M 16.796875 18.011719 "/>
<path style=" stroke:none;fill-rule:nonzero;fill:rgb(100%,100%,100%);fill-opacity:1;" d="M 25.4375 16 C 25.4375 21.082031 21.410156 25.253906 16.332031 25.433594 C 11.25 25.609375 6.941406 21.730469 6.585938 16.660156 C 6.230469 11.589844 9.953125 7.148438 15.011719 6.613281 C 20.066406 6.082031 24.636719 9.648438 25.347656 14.683594 "/>
<path style=" stroke:none;fill-rule:evenodd;fill:rgb(20.784314%,78.039217%,43.921569%);fill-opacity:1;" d="M 16.011719 9.699219 C 15.976562 9.699219 15.941406 9.699219 15.90625 9.703125 C 14.84375 9.785156 14.246094 11.082031 14.695312 12.503906 C 14.152344 11.589844 13.441406 10.886719 12.550781 10.894531 C 12.476562 10.894531 12.402344 10.902344 12.332031 10.910156 C 11.261719 11.054688 11.109375 12.394531 12.230469 13.023438 C 12.472656 13.160156 12.714844 13.324219 12.945312 13.503906 C 12.554688 13.285156 12.160156 13.152344 11.777344 13.152344 C 11.515625 13.152344 11.261719 13.214844 11.019531 13.355469 C 10.242188 13.808594 10.503906 14.855469 11.496094 15.066406 C 11.230469 15.132812 10.992188 15.261719 10.792969 15.476562 C 10.164062 16.136719 10.777344 17.097656 11.847656 16.914062 C 11.941406 16.894531 12.042969 16.882812 12.148438 16.871094 C 11.894531 16.988281 11.6875 17.167969 11.558594 17.433594 C 11.246094 18.082031 11.9375 18.660156 12.699219 18.265625 C 13.292969 17.957031 14.066406 17.816406 14.730469 17.746094 L 14.839844 17.804688 L 14.722656 17.871094 L 14.890625 18.152344 L 14.722656 18.429688 C 14.722656 18.429688 14.722656 18.433594 14.722656 18.433594 L 14.839844 18.496094 L 14.722656 18.558594 C 14.722656 18.5625 14.722656 18.5625 14.722656 18.5625 L 14.890625 18.84375 L 14.722656 19.121094 C 14.722656 19.121094 14.722656 19.125 14.722656 19.125 L 14.839844 19.191406 L 14.722656 19.253906 L 14.890625 19.535156 L 14.722656 19.816406 L 14.839844 19.878906 L 14.722656 19.945312 C 14.722656 19.945312 14.722656 19.949219 14.722656 19.949219 L 14.890625 20.226562 L 14.722656 20.507812 L 14.839844 20.574219 L 14.722656 20.636719 C 14.722656 20.636719 14.722656 20.640625 14.722656 20.640625 L 14.890625 20.917969 L 14.722656 21.199219 L 14.839844 21.265625 L 14.722656 21.332031 L 14.890625 21.613281 L 14.722656 21.894531 L 14.839844 21.957031 L 14.722656 22.023438 C 14.722656 22.023438 14.722656 22.023438 14.722656 22.027344 L 14.890625 22.304688 L 14.863281 22.347656 L 17.105469 22.347656 L 17.082031 22.304688 L 17.246094 22.027344 C 17.246094 22.023438 17.246094 22.023438 17.246094 22.023438 L 17.128906 21.957031 L 17.246094 21.894531 L 17.082031 21.613281 L 17.246094 21.332031 L 17.128906 21.265625 L 17.246094 21.199219 L 17.082031 20.917969 L 17.246094 20.640625 C 17.246094 20.640625 17.246094 20.636719 17.246094 20.636719 L 17.128906 20.574219 L 17.246094 20.507812 L 17.082031 20.226562 L 17.246094 19.949219 C 17.246094 19.949219 17.246094 19.945312 17.246094 19.945312 L 17.128906 19.878906 L 17.246094 19.816406 L 17.082031 19.535156 L 17.246094 19.253906 L 17.128906 19.191406 L 17.246094 19.125 C 17.246094 19.125 17.246094 19.121094 17.246094 19.121094 L 17.082031 18.84375 L 17.246094 18.5625 C 17.246094 18.5625 17.246094 18.5625 17.246094 18.558594 L 17.128906 18.496094 L 17.246094 18.433594 C 17.246094 18.433594 17.246094 18.429688 17.246094 18.429688 L 17.082031 18.152344 L 17.246094 17.871094 L 17.128906 17.804688 L 17.246094 17.738281 C 17.914062 17.808594 18.699219 17.957031 19.300781 18.265625 C 20.0625 18.660156 20.753906 18.082031 20.441406 17.433594 C 20.3125 17.167969 20.105469 16.988281 19.851562 16.871094 C 19.957031 16.882812 20.058594 16.894531 20.152344 16.914062 C 21.222656 17.097656 21.835938 16.136719 21.207031 15.476562 C 21.007812 15.261719 20.769531 15.132812 20.503906 15.066406 C 21.496094 14.855469 21.757812 13.808594 20.980469 13.355469 C 20.382812 13.003906 19.707031 13.136719 19.054688 13.503906 C 19.285156 13.324219 19.527344 13.160156 19.769531 13.023438 C 20.890625 12.394531 20.738281 11.054688 19.667969 10.910156 C 18.609375 10.769531 17.792969 11.613281 17.195312 12.695312 C 17.707031 10.96875 17.003906 9.707031 16.011719 9.699219 Z M 16.011719 9.699219 "/>
<path style=" stroke:none;fill-rule:evenodd;fill:rgb(22.745098%,77.254903%,90.196079%);fill-opacity:1;" d="M 12.609375 7.800781 C 9.304688 9.171875 7.148438 12.398438 7.148438 15.976562 C 7.152344 20.53125 10.613281 24.339844 15.148438 24.777344 L 15.148438 23.074219 C 11.554688 22.644531 8.847656 19.597656 8.847656 15.976562 C 8.847656 13.347656 10.292969 10.929688 12.609375 9.683594 Z M 19.390625 7.808594 L 19.390625 9.675781 C 21.707031 10.925781 23.152344 13.34375 23.152344 15.976562 C 23.152344 19.59375 20.441406 22.640625 16.851562 23.070312 L 16.851562 24.785156 C 21.386719 24.347656 24.851562 20.535156 24.851562 15.976562 C 24.847656 12.402344 22.691406 9.175781 19.390625 7.808594 Z M 19.390625 7.808594 "/>
</g>
</svg>
