
<svg xmlns="http://www.w3.org/2000/svg" xmlns:xlink="http://www.w3.org/1999/xlink" width="32px" height="32px" viewBox="0 0 32 32" version="1.1">
<g id="surface1">
<path style="fill-rule:nonzero;fill:rgb(100%,100%,100%);fill-opacity:1;stroke-width:28.191782;stroke-linecap:butt;stroke-linejoin:miter;stroke:rgb(14.509805%,68.235296%,87.450981%);stroke-opacity:1;stroke-miterlimit:4;" d="M 81.5 25.0625 L 430.5 25.0625 C 461.6875 25.0625 486.9375 50.3125 486.9375 81.5 L 486.9375 430.5 C 486.9375 461.6875 461.6875 486.9375 430.5 486.9375 L 81.5 486.9375 C 50.3125 486.9375 25.0625 461.6875 25.0625 430.5 L 25.0625 81.5 C 25.0625 50.3125 50.3125 25.0625 81.5 25.0625 Z M 81.5 25.0625 " transform="matrix(0.0625,0,0,0.0625,0,0)"/>
<path style=" stroke:none;fill-rule:nonzero;fill:rgb(100%,100%,100%);fill-opacity:1;" d="M 26.035156 16.144531 C 26.035156 10.753906 21.558594 6.382812 16.035156 6.382812 C 10.511719 6.382812 6.035156 10.753906 6.035156 16.144531 C 6.035156 21.539062 10.511719 25.910156 16.035156 25.910156 C 21.558594 25.910156 26.035156 21.539062 26.035156 16.144531 Z M 26.035156 16.144531 "/>
<path style=" stroke:none;fill-rule:nonzero;fill:rgb(30.19608%,30.19608%,30.19608%);fill-opacity:1;" d="M 13.257812 26.730469 C 13.046875 26.636719 12.824219 26.394531 12.722656 26.15625 C 12.671875 26.035156 12.621094 25.558594 12.574219 24.800781 C 12.539062 24.160156 12.488281 23.585938 12.464844 23.523438 C 12.4375 23.441406 12.289062 23.363281 11.921875 23.230469 C 11.644531 23.136719 11.230469 22.960938 10.996094 22.84375 C 10.765625 22.730469 10.523438 22.632812 10.464844 22.632812 C 10.394531 22.632812 10.011719 22.941406 9.472656 23.4375 C 8.988281 23.882812 8.515625 24.285156 8.417969 24.332031 C 8.222656 24.433594 7.78125 24.449219 7.550781 24.363281 C 7.371094 24.296875 5.449219 22.40625 5.328125 22.171875 C 5.207031 21.941406 5.21875 21.511719 5.355469 21.25 C 5.417969 21.128906 5.824219 20.648438 6.257812 20.175781 C 6.726562 19.671875 7.046875 19.277344 7.046875 19.214844 C 7.046875 19.152344 6.953125 18.914062 6.835938 18.683594 C 6.71875 18.449219 6.542969 18.035156 6.449219 17.761719 C 6.351562 17.484375 6.234375 17.238281 6.183594 17.214844 C 6.136719 17.191406 5.574219 17.140625 4.933594 17.105469 C 4.1875 17.0625 3.683594 17.011719 3.539062 16.957031 C 3.261719 16.859375 2.945312 16.519531 2.898438 16.277344 C 2.878906 16.179688 2.871094 15.449219 2.882812 14.652344 L 2.898438 13.207031 L 3.066406 12.996094 C 3.359375 12.628906 3.496094 12.59375 4.902344 12.507812 C 5.691406 12.457031 6.175781 12.40625 6.214844 12.363281 C 6.25 12.332031 6.371094 12.058594 6.480469 11.761719 C 6.589844 11.460938 6.761719 11.050781 6.863281 10.851562 C 6.964844 10.652344 7.046875 10.441406 7.046875 10.390625 C 7.046875 10.335938 6.714844 9.925781 6.308594 9.480469 C 5.902344 9.035156 5.515625 8.597656 5.449219 8.507812 C 5.253906 8.253906 5.191406 7.9375 5.265625 7.628906 C 5.324219 7.394531 5.429688 7.265625 6.308594 6.371094 C 6.851562 5.824219 7.382812 5.332031 7.492188 5.273438 C 7.75 5.144531 8.160156 5.140625 8.414062 5.269531 C 8.519531 5.324219 8.992188 5.722656 9.460938 6.152344 C 9.925781 6.582031 10.34375 6.949219 10.382812 6.972656 C 10.421875 6.996094 10.675781 6.910156 10.980469 6.761719 C 11.273438 6.625 11.707031 6.445312 11.949219 6.363281 C 12.277344 6.253906 12.402344 6.183594 12.449219 6.085938 C 12.484375 6.015625 12.542969 5.433594 12.578125 4.792969 C 12.648438 3.558594 12.691406 3.363281 12.941406 3.097656 C 13.226562 2.800781 13.390625 2.777344 14.972656 2.792969 L 16.410156 2.8125 L 16.636719 2.960938 C 17.023438 3.21875 17.070312 3.378906 17.160156 4.75 C 17.207031 5.414062 17.253906 6.007812 17.269531 6.074219 C 17.289062 6.160156 17.410156 6.226562 17.792969 6.363281 C 18.066406 6.457031 18.507812 6.644531 18.769531 6.777344 C 19.03125 6.90625 19.269531 7.015625 19.292969 7.015625 C 19.320312 7.015625 19.742188 6.644531 20.230469 6.199219 C 20.71875 5.746094 21.210938 5.332031 21.320312 5.277344 C 21.582031 5.136719 21.972656 5.140625 22.257812 5.277344 C 22.394531 5.34375 22.855469 5.765625 23.433594 6.347656 C 24.429688 7.355469 24.507812 7.46875 24.511719 7.925781 C 24.511719 8.246094 24.367188 8.457031 23.511719 9.394531 C 23.046875 9.90625 22.667969 10.34375 22.667969 10.371094 C 22.667969 10.394531 22.785156 10.671875 22.933594 10.980469 C 23.082031 11.289062 23.261719 11.722656 23.328125 11.941406 C 23.414062 12.214844 23.488281 12.355469 23.558594 12.386719 C 23.621094 12.414062 24.21875 12.46875 24.894531 12.511719 C 26.230469 12.59375 26.445312 12.652344 26.667969 12.964844 C 26.878906 13.261719 26.902344 13.488281 26.886719 14.941406 L 26.871094 16.332031 L 26.707031 16.566406 C 26.414062 16.980469 26.339844 17.003906 24.855469 17.097656 C 24.132812 17.144531 23.527344 17.199219 23.511719 17.214844 C 23.496094 17.230469 23.40625 17.457031 23.3125 17.726562 C 23.21875 17.996094 23.035156 18.429688 22.902344 18.691406 C 22.769531 18.957031 22.667969 19.203125 22.675781 19.246094 C 22.683594 19.285156 23.046875 19.703125 23.480469 20.175781 C 23.910156 20.644531 24.320312 21.136719 24.386719 21.269531 C 24.53125 21.550781 24.542969 21.851562 24.425781 22.132812 C 24.324219 22.378906 22.558594 24.167969 22.277344 24.316406 C 22.035156 24.441406 21.597656 24.457031 21.347656 24.347656 C 21.253906 24.304688 20.769531 23.902344 20.277344 23.449219 C 19.785156 23.003906 19.347656 22.632812 19.296875 22.632812 C 19.25 22.632812 18.972656 22.746094 18.683594 22.878906 C 18.390625 23.015625 17.960938 23.191406 17.722656 23.269531 C 17.398438 23.375 17.289062 23.4375 17.269531 23.523438 C 17.253906 23.585938 17.207031 24.179688 17.160156 24.84375 C 17.066406 26.304688 17.007812 26.464844 16.5 26.722656 C 16.351562 26.792969 16.109375 26.808594 14.871094 26.808594 C 13.777344 26.804688 13.378906 26.785156 13.257812 26.730469 Z M 15.398438 20.246094 C 16.710938 20.105469 17.804688 19.582031 18.738281 18.652344 C 19.449219 17.941406 19.90625 17.140625 20.183594 16.136719 C 20.355469 15.503906 20.355469 14.109375 20.183594 13.472656 C 19.652344 11.535156 18.265625 10.105469 16.347656 9.527344 C 15.902344 9.394531 15.78125 9.378906 14.910156 9.378906 C 14.078125 9.375 13.90625 9.386719 13.5 9.5 C 11.480469 10.050781 9.941406 11.671875 9.519531 13.683594 C 9.136719 15.492188 9.691406 17.339844 11.011719 18.664062 C 11.703125 19.359375 12.601562 19.871094 13.574219 20.121094 C 13.847656 20.191406 14.242188 20.246094 14.800781 20.292969 C 14.847656 20.296875 15.113281 20.273438 15.398438 20.246094 Z M 14.054688 17.972656 C 12.671875 17.597656 11.703125 16.417969 11.617188 15.007812 C 11.558594 14.023438 11.875 13.1875 12.574219 12.488281 C 13.851562 11.21875 15.886719 11.207031 17.148438 12.464844 C 18.183594 13.496094 18.433594 14.96875 17.792969 16.261719 C 17.242188 17.359375 16.230469 18.007812 14.992188 18.058594 C 14.570312 18.074219 14.363281 18.054688 14.054688 17.972656 Z M 15.601562 16.605469 C 15.984375 16.460938 16.441406 16.035156 16.628906 15.648438 C 16.765625 15.371094 16.78125 15.28125 16.78125 14.796875 C 16.78125 14.28125 16.773438 14.238281 16.597656 13.910156 C 16.238281 13.253906 15.710938 12.921875 14.964844 12.886719 C 14.363281 12.855469 14.007812 12.980469 13.574219 13.378906 C 13.027344 13.878906 12.808594 14.574219 12.984375 15.261719 C 13.136719 15.859375 13.457031 16.261719 14.003906 16.539062 C 14.511719 16.796875 15.03125 16.816406 15.601562 16.605469 Z M 15.601562 16.605469 "/>
<path style=" stroke:none;fill-rule:evenodd;fill:rgb(100%,49.803922%,16.470589%);fill-opacity:1;" d="M 25.847656 21.546875 C 25.917969 21.617188 25.636719 22.011719 25.214844 22.433594 L 20.167969 27.480469 C 19.75 27.898438 19.355469 28.183594 19.285156 28.113281 C 19.214844 28.042969 19.5 27.648438 19.917969 27.230469 L 24.964844 22.183594 C 25.386719 21.761719 25.78125 21.480469 25.847656 21.546875 Z M 25.847656 21.546875 "/>
<path style=" stroke:none;fill-rule:evenodd;fill:rgb(100%,49.803922%,16.470589%);fill-opacity:1;" d="M 26.699219 22.394531 C 26.765625 22.464844 26.480469 22.859375 26.0625 23.277344 L 21.019531 28.324219 C 20.597656 28.746094 20.199219 29.027344 20.132812 28.960938 C 20.0625 28.890625 20.347656 28.496094 20.765625 28.074219 L 25.8125 23.027344 C 26.230469 22.609375 26.628906 22.324219 26.699219 22.394531 Z M 26.699219 22.394531 "/>
<path style=" stroke:none;fill-rule:evenodd;fill:rgb(100%,49.803922%,16.470589%);fill-opacity:1;" d="M 26.414062 22.113281 C 26.484375 22.183594 26.199219 22.578125 25.78125 22.996094 L 20.734375 28.042969 C 20.316406 28.464844 19.917969 28.746094 19.847656 28.675781 C 19.78125 28.609375 20.066406 28.214844 20.484375 27.792969 L 25.53125 22.746094 C 25.949219 22.328125 26.347656 22.042969 26.414062 22.113281 Z M 26.414062 22.113281 "/>
<path style=" stroke:none;fill-rule:evenodd;fill:rgb(100%,49.803922%,16.470589%);fill-opacity:1;" d="M 26.132812 21.832031 C 26.199219 21.898438 25.917969 22.292969 25.496094 22.714844 L 20.453125 27.761719 C 20.035156 28.179688 19.636719 28.464844 19.566406 28.394531 C 19.496094 28.324219 19.78125 27.929688 20.199219 27.511719 L 25.246094 22.464844 C 25.667969 22.042969 26.0625 21.761719 26.132812 21.832031 Z M 26.132812 21.832031 "/>
<path style=" stroke:none;fill-rule:evenodd;fill:rgb(100%,49.803922%,16.470589%);fill-opacity:1;" d="M 25.566406 21.265625 C 25.636719 21.332031 25.351562 21.730469 24.933594 22.148438 L 19.886719 27.195312 C 19.46875 27.613281 19.070312 27.898438 19.003906 27.832031 C 18.933594 27.761719 19.214844 27.363281 19.636719 26.945312 L 24.683594 21.898438 C 25.101562 21.480469 25.496094 21.195312 25.566406 21.265625 Z M 25.566406 21.265625 "/>
<path style=" stroke:none;fill-rule:evenodd;fill:rgb(100%,49.803922%,16.470589%);fill-opacity:1;" d="M 25.285156 20.980469 C 25.355469 21.050781 25.070312 21.449219 24.652344 21.867188 L 19.605469 26.914062 C 19.183594 27.332031 18.789062 27.617188 18.71875 27.546875 C 18.652344 27.480469 18.933594 27.082031 19.355469 26.664062 L 24.402344 21.617188 C 24.820312 21.199219 25.214844 20.914062 25.285156 20.980469 Z M 25.285156 20.980469 "/>
<path style=" stroke:none;fill-rule:evenodd;fill:rgb(100%,49.803922%,16.470589%);fill-opacity:1;" d="M 24.71875 20.417969 C 24.789062 20.488281 24.503906 20.882812 24.085938 21.300781 L 19.039062 26.347656 C 18.621094 26.769531 18.222656 27.050781 18.152344 26.980469 C 18.085938 26.914062 18.371094 26.519531 18.789062 26.097656 L 23.835938 21.050781 C 24.253906 20.632812 24.652344 20.347656 24.71875 20.417969 Z M 24.71875 20.417969 "/>
<path style=" stroke:none;fill-rule:evenodd;fill:rgb(100%,49.803922%,16.470589%);fill-opacity:1;" d="M 24.152344 19.851562 C 24.222656 19.921875 23.941406 20.316406 23.519531 20.738281 L 18.472656 25.785156 C 18.054688 26.203125 17.660156 26.488281 17.589844 26.417969 C 17.519531 26.347656 17.804688 25.953125 18.222656 25.535156 L 23.269531 20.488281 C 23.691406 20.066406 24.085938 19.785156 24.152344 19.851562 Z M 24.152344 19.851562 "/>
<path style=" stroke:none;fill-rule:evenodd;fill:rgb(100%,49.803922%,16.470589%);fill-opacity:1;" d="M 23.589844 19.285156 C 23.660156 19.355469 23.375 19.753906 22.957031 20.171875 L 17.910156 25.21875 C 17.488281 25.636719 17.09375 25.921875 17.023438 25.851562 C 16.957031 25.785156 17.238281 25.386719 17.660156 24.96875 L 22.707031 19.921875 C 23.125 19.503906 23.519531 19.21875 23.589844 19.285156 Z M 23.589844 19.285156 "/>
<path style=" stroke:none;fill-rule:evenodd;fill:rgb(100%,49.803922%,16.470589%);fill-opacity:1;" d="M 25.003906 20.699219 C 25.070312 20.769531 24.785156 21.164062 24.367188 21.582031 L 19.324219 26.628906 C 18.902344 27.050781 18.503906 27.332031 18.4375 27.265625 C 18.367188 27.195312 18.652344 26.800781 19.070312 26.378906 L 24.117188 21.332031 C 24.535156 20.914062 24.933594 20.628906 25.003906 20.699219 Z M 25.003906 20.699219 "/>
<path style=" stroke:none;fill-rule:evenodd;fill:rgb(100%,49.803922%,16.470589%);fill-opacity:1;" d="M 24.4375 20.136719 C 24.503906 20.203125 24.222656 20.597656 23.800781 21.019531 L 18.757812 26.066406 C 18.339844 26.484375 17.941406 26.769531 17.871094 26.699219 C 17.800781 26.628906 18.085938 26.234375 18.503906 25.816406 L 23.550781 20.769531 C 23.972656 20.347656 24.367188 20.066406 24.4375 20.136719 Z M 24.4375 20.136719 "/>
<path style=" stroke:none;fill-rule:evenodd;fill:rgb(100%,49.803922%,16.470589%);fill-opacity:1;" d="M 23.871094 19.570312 C 23.941406 19.636719 23.65625 20.035156 23.238281 20.457031 L 18.191406 25.5 C 17.773438 25.917969 17.375 26.203125 17.308594 26.136719 C 17.238281 26.066406 17.519531 25.667969 17.941406 25.25 L 22.988281 20.203125 C 23.40625 19.785156 23.800781 19.5 23.871094 19.570312 Z M 23.871094 19.570312 "/>
<path style=" stroke:none;fill-rule:evenodd;fill:rgb(100%,49.803922%,16.470589%);fill-opacity:1;" d="M 23.308594 19.003906 C 23.378906 19.074219 23.089844 19.46875 22.671875 19.890625 L 17.628906 24.933594 C 17.207031 25.355469 16.808594 25.636719 16.742188 25.570312 C 16.671875 25.5 16.957031 25.105469 17.375 24.683594 L 22.421875 19.636719 C 22.839844 19.21875 23.238281 18.933594 23.308594 19.003906 Z M 23.308594 19.003906 "/>
<path style=" stroke:none;fill-rule:evenodd;fill:rgb(100%,49.803922%,16.470589%);fill-opacity:1;" d="M 23.023438 18.722656 C 23.09375 18.792969 22.808594 19.1875 22.390625 19.605469 L 17.34375 24.652344 C 16.925781 25.074219 16.527344 25.355469 16.457031 25.285156 C 16.390625 25.21875 16.675781 24.824219 17.09375 24.402344 L 22.140625 19.355469 C 22.558594 18.9375 22.957031 18.652344 23.023438 18.722656 Z M 23.023438 18.722656 "/>
<path style=" stroke:none;fill-rule:evenodd;fill:rgb(100%,49.803922%,16.470589%);fill-opacity:1;" d="M 22.457031 18.15625 C 22.527344 18.226562 22.246094 18.621094 21.824219 19.042969 L 16.777344 24.089844 C 16.359375 24.507812 15.964844 24.792969 15.894531 24.722656 C 15.824219 24.652344 16.109375 24.257812 16.527344 23.839844 L 21.574219 18.792969 C 21.996094 18.371094 22.390625 18.089844 22.457031 18.15625 Z M 22.457031 18.15625 "/>
<path style=" stroke:none;fill-rule:evenodd;fill:rgb(100%,49.803922%,16.470589%);fill-opacity:1;" d="M 21.613281 17.308594 C 21.683594 17.378906 21.398438 17.773438 20.976562 18.195312 L 15.933594 23.238281 C 15.511719 23.660156 15.113281 23.941406 15.046875 23.875 C 14.976562 23.804688 15.261719 23.410156 15.679688 22.988281 L 20.726562 17.941406 C 21.144531 17.523438 21.542969 17.238281 21.613281 17.308594 Z M 21.613281 17.308594 "/>
<path style=" stroke:none;fill-rule:evenodd;fill:rgb(100%,49.803922%,16.470589%);fill-opacity:1;" d="M 20.761719 16.460938 C 20.832031 16.53125 20.550781 16.925781 20.128906 17.347656 L 15.082031 22.394531 C 14.664062 22.8125 14.269531 23.097656 14.199219 23.027344 C 14.128906 22.957031 14.414062 22.5625 14.832031 22.144531 L 19.878906 17.097656 C 20.300781 16.675781 20.695312 16.394531 20.761719 16.460938 Z M 20.761719 16.460938 "/>
<path style=" stroke:none;fill-rule:evenodd;fill:rgb(100%,49.803922%,16.470589%);fill-opacity:1;" d="M 22.742188 18.441406 C 22.8125 18.507812 22.527344 18.902344 22.105469 19.324219 L 17.0625 24.371094 C 16.644531 24.789062 16.246094 25.074219 16.175781 25.003906 C 16.105469 24.933594 16.390625 24.539062 16.808594 24.121094 L 21.855469 19.074219 C 22.277344 18.652344 22.671875 18.371094 22.742188 18.441406 Z M 22.742188 18.441406 "/>
<path style=" stroke:none;fill-rule:evenodd;fill:rgb(100%,49.803922%,16.470589%);fill-opacity:1;" d="M 21.894531 17.589844 C 21.964844 17.660156 21.679688 18.058594 21.261719 18.476562 L 16.214844 23.523438 C 15.792969 23.941406 15.398438 24.226562 15.328125 24.15625 C 15.261719 24.089844 15.542969 23.691406 15.964844 23.273438 L 21.011719 18.226562 C 21.429688 17.808594 21.824219 17.523438 21.894531 17.589844 Z M 21.894531 17.589844 "/>
<path style=" stroke:none;fill-rule:evenodd;fill:rgb(100%,49.803922%,16.470589%);fill-opacity:1;" d="M 21.046875 16.746094 C 21.117188 16.8125 20.832031 17.207031 20.410156 17.628906 L 15.367188 22.675781 C 14.949219 23.09375 14.550781 23.378906 14.480469 23.308594 C 14.410156 23.238281 14.695312 22.84375 15.113281 22.425781 L 20.160156 17.378906 C 20.582031 16.957031 20.976562 16.675781 21.046875 16.746094 Z M 21.046875 16.746094 "/>
<path style=" stroke:none;fill-rule:evenodd;fill:rgb(100%,49.803922%,16.470589%);fill-opacity:1;" d="M 20.199219 15.894531 C 20.269531 15.964844 19.984375 16.363281 19.566406 16.78125 L 14.519531 21.828125 C 14.097656 22.246094 13.703125 22.53125 13.632812 22.460938 C 13.566406 22.394531 13.847656 21.996094 14.269531 21.578125 L 19.316406 16.53125 C 19.734375 16.113281 20.128906 15.828125 20.199219 15.894531 Z M 20.199219 15.894531 "/>
<path style=" stroke:none;fill-rule:evenodd;fill:rgb(100%,49.803922%,16.470589%);fill-opacity:1;" d="M 22.175781 17.875 C 22.246094 17.941406 21.964844 18.339844 21.542969 18.761719 L 16.496094 23.804688 C 16.078125 24.222656 15.679688 24.507812 15.613281 24.441406 C 15.542969 24.371094 15.824219 23.972656 16.246094 23.554688 L 21.292969 18.507812 C 21.710938 18.089844 22.105469 17.804688 22.175781 17.875 Z M 22.175781 17.875 "/>
<path style=" stroke:none;fill-rule:evenodd;fill:rgb(100%,49.803922%,16.470589%);fill-opacity:1;" d="M 21.328125 17.027344 C 21.398438 17.097656 21.113281 17.492188 20.695312 17.910156 L 15.648438 22.957031 C 15.230469 23.378906 14.832031 23.660156 14.761719 23.589844 C 14.695312 23.523438 14.980469 23.128906 15.398438 22.707031 L 20.445312 17.660156 C 20.863281 17.242188 21.261719 16.957031 21.328125 17.027344 Z M 21.328125 17.027344 "/>
<path style=" stroke:none;fill-rule:evenodd;fill:rgb(100%,49.803922%,16.470589%);fill-opacity:1;" d="M 20.480469 16.179688 C 20.550781 16.246094 20.269531 16.644531 19.847656 17.066406 L 14.800781 22.109375 C 14.382812 22.527344 13.984375 22.8125 13.917969 22.746094 C 13.847656 22.675781 14.128906 22.277344 14.550781 21.859375 L 19.597656 16.8125 C 20.015625 16.394531 20.410156 16.109375 20.480469 16.179688 Z M 20.480469 16.179688 "/>
<path style=" stroke:none;fill-rule:evenodd;fill:rgb(100%,49.803922%,16.470589%);fill-opacity:1;" d="M 19.917969 15.613281 C 19.988281 15.683594 19.703125 16.082031 19.28125 16.5 L 14.238281 21.542969 C 13.816406 21.964844 13.421875 22.246094 13.351562 22.179688 C 13.28125 22.109375 13.566406 21.714844 13.984375 21.292969 L 19.03125 16.246094 C 19.449219 15.828125 19.847656 15.542969 19.917969 15.613281 Z M 19.917969 15.613281 "/>
<path style=" stroke:none;fill-rule:evenodd;fill:rgb(100%,49.803922%,16.470589%);fill-opacity:1;" d="M 19.636719 15.332031 C 19.703125 15.402344 19.417969 15.796875 19 16.214844 L 13.953125 21.261719 C 13.535156 21.683594 13.136719 21.964844 13.066406 21.894531 C 13 21.828125 13.285156 21.433594 13.703125 21.011719 L 18.75 15.964844 C 19.167969 15.546875 19.566406 15.261719 19.636719 15.332031 Z M 19.636719 15.332031 "/>
<path style=" stroke:none;fill-rule:evenodd;fill:rgb(100%,49.803922%,16.470589%);fill-opacity:1;" d="M 19.351562 15.050781 C 19.421875 15.117188 19.136719 15.515625 18.714844 15.933594 L 13.671875 20.980469 C 13.253906 21.398438 12.855469 21.683594 12.785156 21.613281 C 12.714844 21.542969 13 21.148438 13.417969 20.730469 L 18.464844 15.683594 C 18.886719 15.261719 19.28125 14.980469 19.351562 15.050781 Z M 19.351562 15.050781 "/>
<path style=" stroke:none;fill-rule:evenodd;fill:rgb(100%,49.803922%,16.470589%);fill-opacity:1;" d="M 19.070312 14.765625 C 19.136719 14.835938 18.855469 15.230469 18.433594 15.652344 L 13.386719 20.699219 C 12.96875 21.117188 12.574219 21.402344 12.503906 21.332031 C 12.433594 21.261719 12.71875 20.867188 13.136719 20.449219 L 18.183594 15.402344 C 18.605469 14.980469 19 14.699219 19.070312 14.765625 Z M 19.070312 14.765625 "/>
<path style=" stroke:none;fill-rule:evenodd;fill:rgb(100%,49.803922%,16.470589%);fill-opacity:1;" d="M 18.785156 14.484375 C 18.855469 14.550781 18.574219 14.949219 18.152344 15.371094 L 13.105469 20.414062 C 12.6875 20.832031 12.292969 21.117188 12.222656 21.050781 C 12.152344 20.980469 12.433594 20.582031 12.855469 20.164062 L 17.902344 15.117188 C 18.320312 14.699219 18.714844 14.414062 18.785156 14.484375 Z M 18.785156 14.484375 "/>
<path style=" stroke:none;fill-rule:evenodd;fill:rgb(100%,49.803922%,16.470589%);fill-opacity:1;" d="M 18.503906 14.199219 C 18.574219 14.269531 18.289062 14.667969 17.871094 15.085938 L 12.824219 20.132812 C 12.402344 20.550781 12.007812 20.835938 11.9375 20.765625 C 11.871094 20.699219 12.152344 20.300781 12.574219 19.882812 L 17.621094 14.835938 C 18.039062 14.417969 18.433594 14.132812 18.503906 14.199219 Z M 18.503906 14.199219 "/>
<path style=" stroke:none;fill-rule:evenodd;fill:rgb(100%,49.803922%,16.470589%);fill-opacity:1;" d="M 18.222656 13.917969 C 18.292969 13.988281 18.007812 14.386719 17.589844 14.804688 L 12.542969 19.847656 C 12.121094 20.269531 11.726562 20.550781 11.65625 20.484375 C 11.585938 20.414062 11.871094 20.019531 12.289062 19.597656 L 17.335938 14.550781 C 17.753906 14.132812 18.152344 13.847656 18.222656 13.917969 Z M 18.222656 13.917969 "/>
<path style=" stroke:none;fill-rule:evenodd;fill:rgb(100%,49.803922%,16.470589%);fill-opacity:1;" d="M 17.941406 13.636719 C 18.007812 13.707031 17.722656 14.101562 17.304688 14.519531 L 12.257812 19.566406 C 11.839844 19.988281 11.441406 20.269531 11.371094 20.199219 C 11.304688 20.132812 11.589844 19.738281 12.007812 19.316406 L 17.054688 14.269531 C 17.472656 13.851562 17.871094 13.566406 17.941406 13.636719 Z M 17.941406 13.636719 "/>
<path style=" stroke:none;fill-rule:evenodd;fill:rgb(100%,49.803922%,16.470589%);fill-opacity:1;" d="M 17.65625 13.355469 C 17.726562 13.421875 17.441406 13.820312 17.023438 14.238281 L 11.976562 19.285156 C 11.558594 19.703125 11.160156 19.988281 11.089844 19.917969 C 11.019531 19.847656 11.304688 19.453125 11.722656 19.035156 L 16.769531 13.988281 C 17.191406 13.566406 17.585938 13.285156 17.65625 13.355469 Z M 17.65625 13.355469 "/>
<path style=" stroke:none;fill-rule:evenodd;fill:rgb(25.490198%,49.411765%,49.803922%);fill-opacity:1;" d="M 27.890625 11.816406 C 27.179688 11.105469 26.269531 10.871094 25.847656 11.292969 L 22.199219 14.941406 L 21.292969 14.03125 C 20.007812 12.746094 18.117188 12.570312 17.050781 13.636719 L 16.371094 14.316406 L 25.75 23.695312 L 26.429688 23.011719 C 27.496094 21.949219 27.316406 20.058594 26.035156 18.773438 L 25.125 17.863281 L 28.769531 14.21875 C 29.191406 13.796875 28.957031 12.886719 28.246094 12.175781 Z M 27.890625 11.816406 "/>
</g>
</svg>
