
<svg xmlns="http://www.w3.org/2000/svg" xmlns:xlink="http://www.w3.org/1999/xlink" width="32px" height="32px" viewBox="0 0 32 32" version="1.1">
<g id="surface1">
<path style="fill-rule:nonzero;fill:rgb(100%,100%,100%);fill-opacity:1;stroke-width:27.910587;stroke-linecap:butt;stroke-linejoin:miter;stroke:rgb(9.803922%,63.137257%,52.941179%);stroke-opacity:1;stroke-miterlimit:4;" d="M 85.356993 29.606993 L 430.981993 29.606993 C 461.794493 29.606993 486.731993 54.544493 486.731993 85.356993 L 486.731993 430.981993 C 486.731993 461.794493 461.794493 486.731993 430.981993 486.731993 L 85.356993 486.731993 C 54.544493 486.731993 29.606993 461.794493 29.606993 430.981993 L 29.606993 85.356993 C 29.606993 54.544493 54.544493 29.606993 85.356993 29.606993 Z M 85.356993 29.606993 " transform="matrix(0.0625,0,0,0.0625,-0.135593,-0.135593)"/>
<path style=" stroke:none;fill-rule:nonzero;fill:rgb(84.313726%,84.313726%,84.313726%);fill-opacity:1;" d="M 8.160156 20.804688 L 9.660156 20.804688 L 9.660156 23.433594 L 8.160156 23.433594 Z M 8.160156 20.804688 "/>
<path style=" stroke:none;fill-rule:nonzero;fill:rgb(84.313726%,84.313726%,84.313726%);fill-opacity:1;" d="M 9.441406 20.796875 L 10.949219 20.796875 L 10.949219 23.425781 L 9.441406 23.425781 Z M 9.441406 20.796875 "/>
<path style=" stroke:none;fill-rule:nonzero;fill:rgb(84.313726%,84.313726%,84.313726%);fill-opacity:1;" d="M 10.46875 20.796875 L 11.972656 20.796875 L 11.972656 23.425781 L 10.46875 23.425781 Z M 10.46875 20.796875 "/>
<path style=" stroke:none;fill-rule:nonzero;fill:rgb(97.254902%,87.058824%,40.784314%);fill-opacity:1;" d="M 8.359375 20.796875 L 9.863281 20.796875 L 9.863281 23.425781 L 8.359375 23.425781 Z M 8.359375 20.796875 "/>
<path style=" stroke:none;fill-rule:nonzero;fill:rgb(97.254902%,87.058824%,40.784314%);fill-opacity:1;" d="M 10.253906 20.796875 L 11.753906 20.796875 L 11.753906 23.425781 L 10.253906 23.425781 Z M 10.253906 20.796875 "/>
<path style=" stroke:none;fill-rule:nonzero;fill:rgb(43.921569%,80.000001%,70.19608%);fill-opacity:1;" d="M 7.238281 9.753906 L 26.941406 9.753906 C 27.601562 9.753906 28.132812 10.285156 28.132812 10.941406 L 28.132812 20.355469 C 28.132812 21.011719 27.601562 21.546875 26.941406 21.546875 L 7.238281 21.546875 C 6.578125 21.546875 6.046875 21.011719 6.046875 20.355469 L 6.046875 10.941406 C 6.046875 10.285156 6.578125 9.753906 7.238281 9.753906 Z M 7.238281 9.753906 "/>
<path style=" stroke:none;fill-rule:nonzero;fill:rgb(84.313726%,84.313726%,84.313726%);fill-opacity:1;" d="M 3.054688 6.394531 L 3.054688 7.421875 L 5.917969 7.421875 L 5.917969 21.546875 L 6.988281 21.546875 L 6.988281 6.398438 L 6.523438 6.398438 L 6.523438 6.394531 Z M 3.054688 6.394531 "/>
<path style=" stroke:none;fill-rule:nonzero;fill:rgb(9.803922%,63.137257%,52.941179%);fill-opacity:1;" d="M 18.492188 13.21875 L 18.492188 12.703125 L 17.527344 12.703125 L 17.527344 10.972656 L 8.691406 10.972656 L 8.691406 12.703125 L 7.730469 12.703125 L 7.730469 13.21875 L 8.691406 13.21875 L 8.691406 14.410156 L 7.730469 14.410156 L 7.730469 14.925781 L 8.691406 14.925781 L 8.691406 16.222656 L 7.730469 16.222656 L 7.730469 16.738281 L 8.691406 16.738281 L 8.691406 17.773438 L 7.730469 17.773438 L 7.730469 18.289062 L 8.691406 18.289062 L 8.691406 19.808594 L 17.527344 19.808594 L 17.527344 18.289062 L 18.492188 18.289062 L 18.492188 17.773438 L 17.527344 17.773438 L 17.527344 16.738281 L 18.492188 16.738281 L 18.492188 16.222656 L 17.527344 16.222656 L 17.527344 14.925781 L 18.492188 14.925781 L 18.492188 14.410156 L 17.527344 14.410156 L 17.527344 13.21875 Z M 18.492188 13.21875 "/>
<path style=" stroke:none;fill-rule:nonzero;fill:rgb(9.803922%,63.137257%,52.941179%);fill-opacity:1;" d="M 20.855469 12.347656 L 20.6875 12.355469 C 20.542969 12.359375 20.511719 12.367188 20.433594 12.402344 C 20.324219 12.457031 20.207031 12.574219 20.152344 12.683594 L 20.113281 12.769531 L 20.105469 15.515625 C 20.105469 17.492188 20.109375 18.285156 20.121094 18.339844 C 20.152344 18.5 20.316406 18.675781 20.484375 18.734375 C 20.542969 18.753906 20.605469 18.761719 20.714844 18.761719 L 20.863281 18.765625 L 20.882812 18.714844 C 20.917969 18.632812 20.984375 18.585938 21.070312 18.578125 C 21.167969 18.570312 21.234375 18.613281 21.277344 18.703125 L 21.308594 18.761719 L 21.691406 18.761719 L 21.871094 18.765625 L 25.503906 18.765625 L 25.535156 18.703125 C 25.574219 18.625 25.625 18.589844 25.710938 18.578125 C 25.832031 18.566406 25.949219 18.652344 25.949219 18.746094 C 25.949219 18.765625 25.960938 18.769531 26.027344 18.761719 C 26.191406 18.746094 26.382812 18.605469 26.46875 18.433594 L 26.511719 18.347656 L 26.511719 15.589844 C 26.519531 12.867188 26.515625 12.824219 26.488281 12.738281 C 26.417969 12.527344 26.191406 12.351562 25.996094 12.351562 C 25.957031 12.351562 25.949219 12.359375 25.949219 12.378906 C 25.949219 12.417969 25.886719 12.492188 25.832031 12.519531 C 25.777344 12.546875 25.699219 12.550781 25.644531 12.519531 C 25.59375 12.496094 25.53125 12.425781 25.519531 12.386719 L 25.511719 12.351562 L 21.308594 12.355469 L 21.277344 12.414062 C 21.199219 12.582031 20.96875 12.582031 20.886719 12.417969 Z M 20.855469 12.347656 "/>
<path style=" stroke:none;fill-rule:nonzero;fill:rgb(90.196079%,90.196079%,90.196079%);fill-opacity:1;" d="M 22.425781 13.800781 L 24.1875 13.800781 C 24.425781 13.800781 24.621094 13.996094 24.621094 14.234375 L 24.621094 14.382812 C 24.621094 14.621094 24.425781 14.816406 24.1875 14.816406 L 22.425781 14.816406 C 22.191406 14.816406 21.996094 14.621094 21.996094 14.382812 L 21.996094 14.234375 C 21.996094 13.996094 22.191406 13.800781 22.425781 13.800781 Z M 22.425781 13.800781 "/>
<path style=" stroke:none;fill-rule:nonzero;fill:rgb(90.196079%,90.196079%,90.196079%);fill-opacity:1;" d="M 22.660156 12.679688 L 22.660156 13.792969 C 22.660156 13.859375 22.601562 13.917969 22.535156 13.917969 L 22.492188 13.917969 C 22.425781 13.917969 22.367188 13.859375 22.367188 13.792969 L 22.367188 12.679688 C 22.367188 12.613281 22.425781 12.558594 22.492188 12.558594 L 22.535156 12.558594 C 22.601562 12.558594 22.660156 12.613281 22.660156 12.679688 Z M 22.660156 12.679688 "/>
<path style=" stroke:none;fill-rule:nonzero;fill:rgb(90.196079%,90.196079%,90.196079%);fill-opacity:1;" d="M 23.1875 12.679688 L 23.1875 13.792969 C 23.1875 13.859375 23.132812 13.917969 23.0625 13.917969 L 23.019531 13.917969 C 22.953125 13.917969 22.898438 13.859375 22.898438 13.792969 L 22.898438 12.679688 C 22.898438 12.609375 22.953125 12.554688 23.019531 12.554688 L 23.0625 12.554688 C 23.132812 12.554688 23.1875 12.609375 23.1875 12.679688 Z M 23.1875 12.679688 "/>
<path style=" stroke:none;fill-rule:nonzero;fill:rgb(90.196079%,90.196079%,90.196079%);fill-opacity:1;" d="M 23.710938 12.679688 L 23.710938 13.792969 C 23.710938 13.859375 23.652344 13.917969 23.585938 13.917969 L 23.542969 13.917969 C 23.472656 13.917969 23.417969 13.859375 23.417969 13.792969 L 23.417969 12.679688 C 23.417969 12.609375 23.472656 12.554688 23.542969 12.554688 L 23.585938 12.554688 C 23.652344 12.554688 23.710938 12.609375 23.710938 12.679688 Z M 23.710938 12.679688 "/>
<path style=" stroke:none;fill-rule:nonzero;fill:rgb(90.196079%,90.196079%,90.196079%);fill-opacity:1;" d="M 24.238281 12.675781 L 24.238281 13.789062 C 24.238281 13.859375 24.183594 13.914062 24.113281 13.914062 L 24.070312 13.914062 C 24.003906 13.914062 23.949219 13.859375 23.949219 13.789062 L 23.949219 12.675781 C 23.949219 12.609375 24.003906 12.550781 24.070312 12.550781 L 24.113281 12.550781 C 24.183594 12.550781 24.238281 12.609375 24.238281 12.675781 Z M 24.238281 12.675781 "/>
<path style=" stroke:none;fill-rule:nonzero;fill:rgb(90.196079%,90.196079%,90.196079%);fill-opacity:1;" d="M 25.0625 14.648438 L 25.0625 16.40625 C 25.0625 16.644531 24.871094 16.839844 24.628906 16.839844 L 24.480469 16.839844 C 24.242188 16.839844 24.046875 16.644531 24.046875 16.40625 L 24.046875 14.648438 C 24.046875 14.410156 24.242188 14.214844 24.480469 14.214844 L 24.628906 14.214844 C 24.871094 14.214844 25.0625 14.410156 25.0625 14.648438 Z M 25.0625 14.648438 "/>
<path style=" stroke:none;fill-rule:nonzero;fill:rgb(90.196079%,90.196079%,90.196079%);fill-opacity:1;" d="M 26.183594 14.878906 L 25.070312 14.878906 C 25.003906 14.878906 24.949219 14.824219 24.949219 14.753906 L 24.949219 14.710938 C 24.949219 14.644531 25.003906 14.589844 25.070312 14.589844 L 26.183594 14.589844 C 26.25 14.589844 26.308594 14.644531 26.308594 14.710938 L 26.308594 14.753906 C 26.308594 14.824219 26.25 14.878906 26.183594 14.878906 Z M 26.183594 14.878906 "/>
<path style=" stroke:none;fill-rule:nonzero;fill:rgb(90.196079%,90.196079%,90.196079%);fill-opacity:1;" d="M 26.183594 15.40625 L 25.070312 15.40625 C 25.003906 15.40625 24.949219 15.351562 24.949219 15.285156 L 24.949219 15.238281 C 24.949219 15.171875 25.003906 15.117188 25.070312 15.117188 L 26.183594 15.117188 C 26.253906 15.117188 26.308594 15.171875 26.308594 15.238281 L 26.308594 15.285156 C 26.308594 15.351562 26.253906 15.40625 26.183594 15.40625 Z M 26.183594 15.40625 "/>
<path style=" stroke:none;fill-rule:nonzero;fill:rgb(90.196079%,90.196079%,90.196079%);fill-opacity:1;" d="M 26.183594 15.929688 L 25.070312 15.929688 C 25.003906 15.929688 24.949219 15.875 24.949219 15.804688 L 24.949219 15.761719 C 24.949219 15.695312 25.003906 15.640625 25.070312 15.640625 L 26.183594 15.640625 C 26.253906 15.640625 26.308594 15.695312 26.308594 15.761719 L 26.308594 15.804688 C 26.308594 15.875 26.253906 15.929688 26.183594 15.929688 Z M 26.183594 15.929688 "/>
<path style=" stroke:none;fill-rule:nonzero;fill:rgb(90.196079%,90.196079%,90.196079%);fill-opacity:1;" d="M 26.1875 16.457031 L 25.074219 16.457031 C 25.003906 16.457031 24.949219 16.402344 24.949219 16.332031 L 24.949219 16.289062 C 24.949219 16.222656 25.003906 16.167969 25.074219 16.167969 L 26.1875 16.167969 C 26.253906 16.167969 26.308594 16.222656 26.308594 16.289062 L 26.308594 16.332031 C 26.308594 16.402344 26.253906 16.457031 26.1875 16.457031 Z M 26.1875 16.457031 "/>
<path style=" stroke:none;fill-rule:nonzero;fill:rgb(90.196079%,90.196079%,90.196079%);fill-opacity:1;" d="M 21.554688 14.660156 L 21.554688 16.417969 C 21.554688 16.65625 21.75 16.851562 21.988281 16.851562 L 22.136719 16.851562 C 22.375 16.851562 22.570312 16.65625 22.570312 16.417969 L 22.570312 14.660156 C 22.570312 14.417969 22.375 14.226562 22.136719 14.226562 L 21.988281 14.226562 C 21.75 14.226562 21.554688 14.417969 21.554688 14.660156 Z M 21.554688 14.660156 "/>
<path style=" stroke:none;fill-rule:nonzero;fill:rgb(90.196079%,90.196079%,90.196079%);fill-opacity:1;" d="M 20.433594 14.886719 L 21.546875 14.886719 C 21.613281 14.886719 21.667969 14.832031 21.667969 14.765625 L 21.667969 14.722656 C 21.667969 14.652344 21.613281 14.597656 21.546875 14.597656 L 20.433594 14.597656 C 20.367188 14.597656 20.3125 14.652344 20.3125 14.722656 L 20.3125 14.765625 C 20.3125 14.832031 20.367188 14.886719 20.433594 14.886719 Z M 20.433594 14.886719 "/>
<path style=" stroke:none;fill-rule:nonzero;fill:rgb(90.196079%,90.196079%,90.196079%);fill-opacity:1;" d="M 20.433594 15.417969 L 21.546875 15.417969 C 21.613281 15.417969 21.667969 15.363281 21.667969 15.292969 L 21.667969 15.253906 C 21.667969 15.183594 21.613281 15.128906 21.546875 15.128906 L 20.433594 15.128906 C 20.363281 15.128906 20.308594 15.183594 20.308594 15.253906 L 20.308594 15.292969 C 20.308594 15.363281 20.363281 15.417969 20.433594 15.417969 Z M 20.433594 15.417969 "/>
<path style=" stroke:none;fill-rule:nonzero;fill:rgb(90.196079%,90.196079%,90.196079%);fill-opacity:1;" d="M 20.433594 15.941406 L 21.546875 15.941406 C 21.613281 15.941406 21.667969 15.886719 21.667969 15.816406 L 21.667969 15.773438 C 21.667969 15.707031 21.613281 15.652344 21.546875 15.652344 L 20.433594 15.652344 C 20.363281 15.652344 20.308594 15.707031 20.308594 15.773438 L 20.308594 15.816406 C 20.308594 15.886719 20.363281 15.941406 20.433594 15.941406 Z M 20.433594 15.941406 "/>
<path style=" stroke:none;fill-rule:nonzero;fill:rgb(90.196079%,90.196079%,90.196079%);fill-opacity:1;" d="M 20.433594 16.46875 L 21.542969 16.46875 C 21.613281 16.46875 21.667969 16.410156 21.667969 16.34375 L 21.667969 16.300781 C 21.667969 16.230469 21.613281 16.175781 21.542969 16.175781 L 20.433594 16.175781 C 20.363281 16.175781 20.308594 16.230469 20.308594 16.300781 L 20.308594 16.34375 C 20.308594 16.410156 20.363281 16.46875 20.433594 16.46875 Z M 20.433594 16.46875 "/>
<path style=" stroke:none;fill-rule:nonzero;fill:rgb(90.196079%,90.196079%,90.196079%);fill-opacity:1;" d="M 22.4375 17.324219 L 24.195312 17.324219 C 24.433594 17.324219 24.628906 17.128906 24.628906 16.890625 L 24.628906 16.742188 C 24.628906 16.503906 24.433594 16.308594 24.195312 16.308594 L 22.4375 16.308594 C 22.199219 16.308594 22.003906 16.503906 22.003906 16.742188 L 22.003906 16.890625 C 22.003906 17.128906 22.199219 17.324219 22.4375 17.324219 Z M 22.4375 17.324219 "/>
<path style=" stroke:none;fill-rule:nonzero;fill:rgb(90.196079%,90.196079%,90.196079%);fill-opacity:1;" d="M 22.667969 18.441406 L 22.667969 17.332031 C 22.667969 17.261719 22.613281 17.207031 22.542969 17.207031 L 22.5 17.207031 C 22.433594 17.207031 22.378906 17.261719 22.378906 17.332031 L 22.378906 18.441406 C 22.378906 18.511719 22.433594 18.566406 22.5 18.566406 L 22.542969 18.566406 C 22.613281 18.566406 22.667969 18.511719 22.667969 18.441406 Z M 22.667969 18.441406 "/>
<path style=" stroke:none;fill-rule:nonzero;fill:rgb(90.196079%,90.196079%,90.196079%);fill-opacity:1;" d="M 23.195312 18.445312 L 23.195312 17.332031 C 23.195312 17.261719 23.140625 17.207031 23.074219 17.207031 L 23.03125 17.207031 C 22.960938 17.207031 22.90625 17.261719 22.90625 17.332031 L 22.90625 18.445312 C 22.90625 18.511719 22.960938 18.570312 23.03125 18.570312 L 23.074219 18.570312 C 23.140625 18.570312 23.195312 18.511719 23.195312 18.445312 Z M 23.195312 18.445312 "/>
<path style=" stroke:none;fill-rule:nonzero;fill:rgb(90.196079%,90.196079%,90.196079%);fill-opacity:1;" d="M 23.71875 18.445312 L 23.71875 17.332031 C 23.71875 17.261719 23.664062 17.207031 23.597656 17.207031 L 23.550781 17.207031 C 23.484375 17.207031 23.429688 17.261719 23.429688 17.332031 L 23.429688 18.445312 C 23.429688 18.511719 23.484375 18.570312 23.550781 18.570312 L 23.597656 18.570312 C 23.664062 18.570312 23.71875 18.511719 23.71875 18.445312 Z M 23.71875 18.445312 "/>
<path style=" stroke:none;fill-rule:nonzero;fill:rgb(90.196079%,90.196079%,90.196079%);fill-opacity:1;" d="M 24.246094 18.449219 L 24.246094 17.332031 C 24.246094 17.265625 24.191406 17.210938 24.121094 17.210938 L 24.082031 17.210938 C 24.011719 17.210938 23.957031 17.265625 23.957031 17.332031 L 23.957031 18.449219 C 23.957031 18.515625 24.011719 18.570312 24.082031 18.570312 L 24.121094 18.570312 C 24.191406 18.570312 24.246094 18.515625 24.246094 18.449219 Z M 24.246094 18.449219 "/>
<path style=" stroke:none;fill-rule:nonzero;fill:rgb(12.941177%,20.784314%,32.941177%);fill-opacity:1;" d="M 21.992188 16.929688 C 21.902344 16.886719 21.90625 16.96875 21.910156 15.542969 L 21.910156 14.242188 L 21.941406 14.207031 C 21.960938 14.1875 21.988281 14.167969 22 14.160156 C 22.035156 14.140625 24.582031 14.140625 24.617188 14.160156 C 24.628906 14.167969 24.65625 14.191406 24.675781 14.207031 L 24.707031 14.246094 L 24.707031 15.542969 C 24.707031 16.957031 24.714844 16.882812 24.628906 16.929688 C 24.574219 16.957031 22.050781 16.960938 21.992188 16.929688 Z M 24.492188 16.703125 C 24.511719 16.65625 24.496094 16.597656 24.457031 16.582031 C 24.355469 16.542969 24.289062 16.6875 24.386719 16.734375 C 24.429688 16.757812 24.472656 16.746094 24.492188 16.703125 Z M 22.253906 16.722656 C 22.289062 16.691406 22.277344 16.613281 22.238281 16.585938 C 22.164062 16.535156 22.085938 16.621094 22.125 16.707031 C 22.136719 16.730469 22.152344 16.738281 22.191406 16.738281 C 22.214844 16.738281 22.246094 16.730469 22.253906 16.722656 Z M 22.253906 14.492188 C 22.285156 14.464844 22.277344 14.382812 22.246094 14.363281 C 22.183594 14.332031 22.113281 14.367188 22.113281 14.4375 C 22.113281 14.488281 22.136719 14.511719 22.191406 14.511719 C 22.21875 14.511719 22.246094 14.503906 22.253906 14.492188 Z M 24.480469 14.488281 C 24.511719 14.457031 24.511719 14.410156 24.480469 14.378906 C 24.410156 14.300781 24.292969 14.394531 24.347656 14.476562 C 24.378906 14.515625 24.445312 14.523438 24.480469 14.488281 Z M 24.480469 14.488281 "/>
<path style=" stroke:none;fill-rule:evenodd;fill:rgb(97.254902%,87.058824%,40.784314%);fill-opacity:1;" d="M 22.066406 18.191406 L 22.519531 18.191406 L 22.519531 18.765625 L 22.066406 18.765625 Z M 22.066406 18.191406 "/>
<path style=" stroke:none;fill-rule:evenodd;fill:rgb(97.254902%,87.058824%,40.784314%);fill-opacity:1;" d="M 22.265625 17.769531 L 22.320312 17.769531 C 22.429688 17.769531 22.519531 17.855469 22.519531 17.964844 L 22.519531 18.183594 C 22.519531 18.292969 22.429688 18.378906 22.320312 18.378906 L 22.265625 18.378906 C 22.152344 18.378906 22.066406 18.292969 22.066406 18.183594 L 22.066406 17.964844 C 22.066406 17.855469 22.152344 17.769531 22.265625 17.769531 Z M 22.265625 17.769531 "/>
<path style=" stroke:none;fill-rule:evenodd;fill:rgb(97.254902%,87.058824%,40.784314%);fill-opacity:1;" d="M 22.679688 18.191406 L 23.128906 18.191406 L 23.128906 18.765625 L 22.679688 18.765625 Z M 22.679688 18.191406 "/>
<path style=" stroke:none;fill-rule:evenodd;fill:rgb(97.254902%,87.058824%,40.784314%);fill-opacity:1;" d="M 22.878906 17.769531 L 22.933594 17.769531 C 23.042969 17.769531 23.128906 17.855469 23.128906 17.964844 L 23.128906 18.179688 C 23.128906 18.292969 23.042969 18.378906 22.933594 18.378906 L 22.878906 18.378906 C 22.769531 18.378906 22.675781 18.292969 22.675781 18.179688 L 22.675781 17.964844 C 22.675781 17.855469 22.769531 17.769531 22.878906 17.769531 Z M 22.878906 17.769531 "/>
<path style=" stroke:none;fill-rule:evenodd;fill:rgb(97.254902%,87.058824%,40.784314%);fill-opacity:1;" d="M 23.496094 18.191406 L 23.945312 18.191406 L 23.945312 18.765625 L 23.496094 18.765625 Z M 23.496094 18.191406 "/>
<path style=" stroke:none;fill-rule:evenodd;fill:rgb(97.254902%,87.058824%,40.784314%);fill-opacity:1;" d="M 23.691406 17.769531 L 23.746094 17.769531 C 23.855469 17.769531 23.945312 17.855469 23.945312 17.964844 L 23.945312 18.183594 C 23.945312 18.292969 23.855469 18.378906 23.746094 18.378906 L 23.691406 18.378906 C 23.582031 18.378906 23.496094 18.292969 23.496094 18.183594 L 23.496094 17.964844 C 23.496094 17.855469 23.582031 17.769531 23.691406 17.769531 Z M 23.691406 17.769531 "/>
<path style=" stroke:none;fill-rule:evenodd;fill:rgb(97.254902%,87.058824%,40.784314%);fill-opacity:1;" d="M 24.089844 18.191406 L 24.542969 18.191406 L 24.542969 18.765625 L 24.089844 18.765625 Z M 24.089844 18.191406 "/>
<path style=" stroke:none;fill-rule:evenodd;fill:rgb(97.254902%,87.058824%,40.784314%);fill-opacity:1;" d="M 24.289062 17.769531 L 24.34375 17.769531 C 24.457031 17.769531 24.542969 17.855469 24.542969 17.964844 L 24.542969 18.183594 C 24.542969 18.292969 24.457031 18.378906 24.34375 18.378906 L 24.289062 18.378906 C 24.179688 18.378906 24.089844 18.292969 24.089844 18.183594 L 24.089844 17.964844 C 24.089844 17.855469 24.179688 17.769531 24.289062 17.769531 Z M 24.289062 17.769531 "/>
<path style=" stroke:none;fill-rule:nonzero;fill:rgb(90.196079%,90.196079%,90.196079%);fill-opacity:1;" d="M 11.050781 13.292969 L 11.050781 17.96875 L 11.605469 17.96875 L 11.605469 13.292969 Z M 11.890625 13.292969 L 11.890625 17.96875 L 12.445312 17.96875 L 12.445312 13.292969 Z M 12.734375 13.292969 L 12.734375 17.96875 L 13.292969 17.96875 L 13.292969 13.292969 Z M 13.601562 13.292969 L 13.601562 17.96875 L 14.15625 17.96875 L 14.15625 13.292969 Z M 14.460938 13.292969 L 14.460938 17.96875 L 15.019531 17.96875 L 15.019531 13.292969 Z M 14.460938 13.292969 "/>
</g>
</svg>
