
<svg xmlns="http://www.w3.org/2000/svg" xmlns:xlink="http://www.w3.org/1999/xlink" width="32px" height="32px" viewBox="0 0 32 32" version="1.1">
<g id="surface1">
<path style="fill-rule:nonzero;fill:rgb(20%,20%,20%);fill-opacity:1;stroke-width:35.663811;stroke-linecap:butt;stroke-linejoin:miter;stroke:rgb(6.666667%,20.392157%,31.37255%);stroke-opacity:1;stroke-miterlimit:4;" d="M 99.218746 27.890624 L 540.781229 27.890624 C 580.156227 27.890624 612.109351 59.843748 612.109351 99.218746 L 612.109351 540.781229 C 612.109351 580.156227 580.156227 612.109351 540.781229 612.109351 L 99.218746 612.109351 C 59.843748 612.109351 27.890624 580.156227 27.890624 540.781229 L 27.890624 99.218746 C 27.890624 59.843748 59.843748 27.890624 99.218746 27.890624 Z M 99.218746 27.890624 " transform="matrix(0.05,0,0,0.05,0,0)"/>
<path style=" stroke:none;fill-rule:nonzero;fill:rgb(66.666669%,80.000001%,100%);fill-opacity:1;" d="M 15.953125 16.269531 C 15.34375 16.269531 14.667969 16.207031 13.960938 16.070312 L 8.9375 26.636719 L 22.925781 26.800781 L 18.089844 16.058594 C 17.328125 16.222656 16.605469 16.269531 15.953125 16.269531 Z M 15.953125 16.269531 "/>
<path style=" stroke:none;fill-rule:nonzero;fill:rgb(20%,20%,20%);fill-opacity:1;" d="M 15.503906 22.375 C 15.121094 22.640625 15.027344 23.164062 15.292969 23.542969 C 15.558594 23.925781 16.082031 24.019531 16.464844 23.753906 C 16.84375 23.488281 16.9375 22.964844 16.671875 22.582031 C 16.40625 22.203125 15.882812 22.109375 15.503906 22.375 Z M 16.859375 20.402344 L 16.308594 20.785156 C 16.230469 20.839844 16.109375 20.839844 16.035156 20.785156 L 15.59375 20.457031 C 15.519531 20.402344 15.398438 20.398438 15.320312 20.449219 L 13.757812 21.542969 C 13.683594 21.59375 13.644531 21.710938 13.667969 21.800781 L 13.824219 22.324219 C 13.851562 22.414062 13.808594 22.53125 13.734375 22.582031 L 13.183594 22.96875 C 12.929688 23.144531 12.867188 23.496094 13.042969 23.746094 L 14.488281 25.816406 C 14.660156 26.070312 15.011719 26.132812 15.265625 25.957031 L 18.941406 23.390625 C 19.195312 23.214844 19.257812 22.863281 19.082031 22.609375 L 17.640625 20.542969 C 17.464844 20.289062 17.113281 20.226562 16.859375 20.402344 Z M 16.785156 24.214844 C 16.148438 24.65625 15.277344 24.5 14.832031 23.863281 C 14.390625 23.230469 14.546875 22.355469 15.183594 21.914062 C 15.816406 21.472656 16.691406 21.628906 17.132812 22.261719 C 17.574219 22.898438 17.417969 23.769531 16.785156 24.214844 Z M 17.242188 21.296875 C 17.152344 21.359375 17.03125 21.335938 16.972656 21.246094 C 16.910156 21.160156 16.929688 21.035156 17.019531 20.972656 C 17.105469 20.910156 17.230469 20.933594 17.292969 21.023438 C 17.355469 21.113281 17.332031 21.234375 17.242188 21.296875 Z M 17.242188 21.296875 "/>
<path style=" stroke:none;fill-rule:nonzero;fill:rgb(82.745099%,73.725492%,37.254903%);fill-opacity:1;" d="M 15.613281 15.191406 C 14.714844 15.148438 13.609375 14.9375 12.910156 14.671875 C 12.433594 14.492188 11.863281 14.183594 11.535156 13.921875 C 11.363281 13.792969 11.238281 13.675781 11.246094 13.667969 C 11.253906 13.65625 11.644531 13.6875 12.109375 13.734375 C 13.621094 13.886719 14.582031 13.925781 16.566406 13.898438 C 18.339844 13.875 19.144531 13.832031 20.289062 13.6875 C 20.511719 13.660156 20.703125 13.648438 20.714844 13.660156 C 20.765625 13.710938 20.171875 14.132812 19.730469 14.363281 C 18.625 14.941406 17.050781 15.253906 15.613281 15.191406 Z M 14.589844 13.082031 C 13.558594 13.050781 12.195312 12.953125 11.472656 12.863281 C 11.28125 12.839844 10.964844 12.800781 10.765625 12.777344 C 10.199219 12.710938 9.214844 12.53125 8.597656 12.386719 C 6.25 11.828125 5.207031 11.082031 5.746094 10.34375 C 6.144531 9.792969 7.648438 9.210938 9.535156 8.875 C 9.917969 8.808594 10.101562 8.726562 10.101562 8.628906 C 10.101562 8.53125 10.425781 7.898438 10.644531 7.566406 C 11.527344 6.246094 13.082031 5.273438 14.808594 4.972656 C 15.492188 4.855469 16.472656 4.855469 17.160156 4.972656 C 19.285156 5.34375 21.046875 6.667969 21.804688 8.464844 L 21.941406 8.792969 L 22.460938 8.882812 C 24.359375 9.222656 25.824219 9.792969 26.222656 10.34375 C 26.667969 10.960938 26.035156 11.578125 24.414062 12.101562 C 23.171875 12.503906 21.230469 12.832031 19.097656 12.996094 C 18.546875 13.039062 15.953125 13.132812 15.746094 13.121094 C 15.695312 13.113281 15.175781 13.097656 14.589844 13.082031 Z M 16.546875 10.324219 C 16.839844 10.214844 17.167969 9.902344 17.316406 9.585938 C 17.457031 9.28125 17.464844 8.796875 17.332031 8.441406 C 17.207031 8.105469 16.871094 7.769531 16.535156 7.644531 C 15.972656 7.433594 15.371094 7.554688 14.960938 7.964844 C 14.402344 8.527344 14.386719 9.425781 14.933594 9.984375 C 15.382812 10.449219 15.917969 10.558594 16.546875 10.324219 Z M 13.042969 10.335938 C 13.324219 10.230469 13.660156 9.925781 13.808594 9.636719 C 13.957031 9.347656 13.976562 8.789062 13.847656 8.453125 C 13.738281 8.160156 13.4375 7.824219 13.148438 7.675781 C 12.859375 7.527344 12.300781 7.507812 11.960938 7.636719 C 11.414062 7.839844 11.058594 8.375 11.058594 8.988281 C 11.058594 9.570312 11.382812 10.082031 11.898438 10.316406 C 12.207031 10.457031 12.695312 10.464844 13.042969 10.335938 Z M 20.070312 10.316406 C 20.382812 10.171875 20.703125 9.832031 20.816406 9.53125 C 20.949219 9.175781 20.941406 8.691406 20.800781 8.386719 C 20.652344 8.074219 20.316406 7.753906 20.011719 7.640625 C 19.472656 7.4375 18.863281 7.558594 18.464844 7.941406 C 17.996094 8.402344 17.878906 9.082031 18.171875 9.660156 C 18.300781 9.914062 18.652344 10.230469 18.914062 10.332031 C 19.257812 10.464844 19.769531 10.457031 20.070312 10.316406 Z M 20.070312 10.316406 "/>
</g>
</svg>
