
<svg xmlns="http://www.w3.org/2000/svg" xmlns:xlink="http://www.w3.org/1999/xlink" width="32px" height="32px" viewBox="0 0 32 32" version="1.1">
<defs>
<clipPath id="clip1">
  <path d="M 2.125 2.0625 L 30.125 2.0625 L 30.125 29.9375 L 2.125 29.9375 Z M 2.125 2.0625 "/>
</clipPath>
<clipPath id="clip2">
  <path d="M 6.082031 2.085938 L 26.230469 2.085938 C 28.425781 2.085938 30.203125 3.863281 30.203125 6.058594 L 30.203125 25.917969 C 30.203125 28.113281 28.425781 29.890625 26.230469 29.890625 L 6.082031 29.890625 C 3.886719 29.890625 2.109375 28.113281 2.109375 25.917969 L 2.109375 6.058594 C 2.109375 3.863281 3.886719 2.085938 6.082031 2.085938 Z M 6.082031 2.085938 "/>
</clipPath>
<clipPath id="clip3">
  <path d="M 2.0625 2.0625 L 30.125 2.0625 L 30.125 29.9375 L 2.0625 29.9375 Z M 2.0625 2.0625 "/>
</clipPath>
<clipPath id="clip4">
  <path d="M 6.082031 2.085938 L 26.230469 2.085938 C 28.425781 2.085938 30.203125 3.863281 30.203125 6.058594 L 30.203125 25.917969 C 30.203125 28.113281 28.425781 29.890625 26.230469 29.890625 L 6.082031 29.890625 C 3.886719 29.890625 2.109375 28.113281 2.109375 25.917969 L 2.109375 6.058594 C 2.109375 3.863281 3.886719 2.085938 6.082031 2.085938 Z M 6.082031 2.085938 "/>
</clipPath>
<clipPath id="clip5">
  <path d="M 5.0625 7 L 26.9375 7 L 26.9375 25.5 L 5.0625 25.5 Z M 5.0625 7 "/>
</clipPath>
<clipPath id="clip6">
  <path d="M 6.082031 2.085938 L 26.230469 2.085938 C 28.425781 2.085938 30.203125 3.863281 30.203125 6.058594 L 30.203125 25.917969 C 30.203125 28.113281 28.425781 29.890625 26.230469 29.890625 L 6.082031 29.890625 C 3.886719 29.890625 2.109375 28.113281 2.109375 25.917969 L 2.109375 6.058594 C 2.109375 3.863281 3.886719 2.085938 6.082031 2.085938 Z M 6.082031 2.085938 "/>
</clipPath>
</defs>
<g id="surface1">
<g clip-path="url(#clip1)" clip-rule="nonzero">
<g clip-path="url(#clip2)" clip-rule="nonzero">
<path style=" stroke:none;fill-rule:nonzero;fill:rgb(47.450981%,78.039217%,16.078432%);fill-opacity:1;" d="M 4.683594 29.769531 C 4.105469 29.613281 3.699219 29.367188 3.199219 28.871094 C 2.722656 28.398438 2.441406 27.925781 2.28125 27.328125 C 2.152344 26.839844 2.152344 5.160156 2.28125 4.671875 C 2.59375 3.503906 3.582031 2.515625 4.746094 2.207031 C 5.234375 2.074219 27.035156 2.074219 27.523438 2.207031 C 28.746094 2.53125 29.792969 3.628906 30.015625 4.816406 C 30.0625 5.074219 30.074219 8.21875 30.066406 16.148438 L 30.046875 27.121094 L 29.90625 27.390625 C 29.222656 28.691406 28.761719 29.265625 28.167969 29.542969 C 27.414062 29.898438 28.082031 29.878906 16.074219 29.878906 C 5.746094 29.875 5.050781 29.867188 4.683594 29.769531 Z M 20.675781 23.652344 C 22.296875 23.566406 22.894531 23.402344 23.683594 22.808594 C 23.949219 22.605469 24.269531 22.292969 24.414062 22.097656 C 24.808594 21.5625 24.902344 21.242188 24.972656 20.199219 C 25.050781 18.972656 25.167969 14.359375 25.121094 14.214844 C 25.085938 14.105469 25.007812 14.101562 22.691406 14.101562 C 20.644531 14.101562 20.292969 14.113281 20.230469 14.191406 C 20.125 14.316406 20.167969 16.183594 20.28125 16.316406 C 20.347656 16.394531 20.527344 16.414062 21.324219 16.429688 L 22.292969 16.445312 L 20.066406 19.113281 C 18.839844 20.582031 17.816406 21.785156 17.789062 21.785156 C 17.742188 21.785156 13.527344 16.503906 13.527344 16.441406 C 13.527344 16.425781 13.988281 16.414062 14.550781 16.414062 C 15.269531 16.414062 15.597656 16.394531 15.648438 16.34375 C 15.703125 16.292969 15.722656 15.484375 15.722656 13.082031 L 15.722656 9.890625 L 20.167969 9.890625 L 20.167969 11.359375 C 20.171875 12.179688 20.195312 12.863281 20.226562 12.914062 C 20.277344 12.992188 20.613281 13.007812 22.570312 13.019531 C 24.109375 13.03125 24.894531 13.019531 24.972656 12.972656 C 25.089844 12.914062 25.09375 12.847656 25.09375 10.667969 C 25.09375 8.890625 25.078125 8.410156 25.015625 8.355469 C 24.925781 8.28125 17.660156 8.363281 15.363281 8.46875 C 13.730469 8.542969 13.515625 8.574219 12.957031 8.847656 C 12.097656 9.269531 11.453125 10.066406 11.246094 10.964844 C 11.121094 11.503906 11.035156 13.644531 11.035156 16.253906 L 11.035156 18.492188 L 9.964844 18.492188 L 9.964844 15.832031 C 9.964844 13.847656 9.949219 13.160156 9.894531 13.105469 C 9.792969 13.003906 7.292969 13.003906 7.191406 13.105469 C 7.105469 13.191406 7.09375 17.441406 7.175781 18.917969 C 7.222656 19.777344 7.238281 19.871094 7.410156 20.234375 C 7.617188 20.664062 7.925781 20.960938 8.386719 21.164062 C 8.722656 21.3125 9.617188 21.417969 10.113281 21.371094 C 10.308594 21.351562 10.613281 21.363281 10.789062 21.394531 C 11.097656 21.457031 11.144531 21.492188 11.886719 22.25 C 12.894531 23.277344 13.175781 23.449219 13.976562 23.539062 C 15.242188 23.679688 18.957031 23.742188 20.675781 23.652344 Z M 20.675781 23.652344 "/>
</g>
</g>
<g clip-path="url(#clip3)" clip-rule="nonzero">
<g clip-path="url(#clip4)" clip-rule="nonzero">
<path style=" stroke:none;fill-rule:evenodd;fill:rgb(52.156866%,79.607844%,23.921569%);fill-opacity:1;" d="M 3.34375 1.941406 L 28.792969 1.941406 C 29.515625 1.941406 30.101562 2.527344 30.101562 3.253906 L 30.101562 28.699219 C 30.101562 29.417969 29.515625 30.003906 28.792969 30.003906 L 3.34375 30.003906 C 2.621094 30.003906 2.035156 29.417969 2.035156 28.699219 L 2.035156 3.253906 C 2.035156 2.527344 2.621094 1.941406 3.34375 1.941406 Z M 3.34375 1.941406 "/>
</g>
</g>
<g clip-path="url(#clip5)" clip-rule="nonzero">
<g clip-path="url(#clip6)" clip-rule="nonzero">
<path style=" stroke:none;fill-rule:nonzero;fill:rgb(100%,100%,100%);fill-opacity:1;" d="M 13.601562 25.378906 C 12.535156 25.246094 12.277344 25.105469 11.226562 24.089844 C 9.964844 22.875 9.574219 22.691406 8.234375 22.691406 C 6.472656 22.691406 5.566406 22.035156 5.285156 20.558594 C 5.195312 20.074219 5.121094 18.136719 5.121094 16.246094 L 5.121094 12.808594 L 8.414062 12.808594 L 8.414062 19.394531 L 9.851562 19.394531 L 9.933594 14.910156 C 10.023438 9.980469 10.0625 9.757812 11.070312 8.613281 C 12.082031 7.457031 12.554688 7.347656 17.214844 7.195312 C 19.484375 7.121094 22.539062 7.058594 24 7.050781 L 26.65625 7.042969 L 26.773438 8.457031 C 26.839844 9.238281 26.839844 10.453125 26.777344 11.164062 L 26.660156 12.457031 L 25.636719 12.566406 C 24.363281 12.703125 21.332031 12.609375 21.152344 12.429688 C 21.082031 12.355469 20.992188 11.519531 20.957031 10.574219 L 20.894531 8.855469 L 15.335938 8.855469 L 15.292969 12.769531 L 15.25 16.679688 L 12.695312 16.84375 L 15.265625 20.054688 C 16.675781 21.820312 17.917969 23.265625 18.015625 23.265625 C 18.117188 23.265625 19.410156 21.820312 20.894531 20.054688 L 23.589844 16.84375 L 22.417969 16.792969 C 21.324219 16.75 21.234375 16.71875 21.082031 16.3125 C 20.988281 16.074219 20.9375 15.503906 20.964844 15.042969 L 21.011719 14.207031 L 26.898438 14.121094 L 26.785156 17.621094 C 26.644531 21.953125 26.511719 22.875 25.9375 23.628906 C 25.355469 24.394531 24.214844 25.097656 23.210938 25.316406 C 22.460938 25.476562 14.789062 25.527344 13.601562 25.378906 Z M 13.601562 25.378906 "/>
</g>
</g>
</g>
</svg>
