
<svg xmlns="http://www.w3.org/2000/svg" xmlns:xlink="http://www.w3.org/1999/xlink" width="32px" height="32px" viewBox="0 0 32 32" version="1.1">
<g id="surface1">
<path style="fill-rule:nonzero;fill:rgb(100%,100%,100%);fill-opacity:1;stroke-width:27.910587;stroke-linecap:butt;stroke-linejoin:miter;stroke:rgb(9.019608%,36.078432%,60.000002%);stroke-opacity:1;stroke-miterlimit:4;" d="M 83.1875 27.4375 L 428.8125 27.4375 C 459.625 27.4375 484.5625 52.375 484.5625 83.1875 L 484.5625 428.8125 C 484.5625 459.625 459.625 484.5625 428.8125 484.5625 L 83.1875 484.5625 C 52.375 484.5625 27.4375 459.625 27.4375 428.8125 L 27.4375 83.1875 C 27.4375 52.375 52.375 27.4375 83.1875 27.4375 Z M 83.1875 27.4375 " transform="matrix(0.0625,0,0,0.0625,0,0)"/>
<path style=" stroke:none;fill-rule:nonzero;fill:rgb(12.941177%,39.607844%,69.01961%);fill-opacity:1;" d="M 25.5625 4.171875 L 19.667969 6.691406 L 19.667969 16.878906 C 19.675781 19.011719 25.5625 18.539062 25.5625 16.992188 Z M 25.5625 4.171875 "/>
<path style=" stroke:none;fill-rule:nonzero;fill:rgb(12.941177%,39.607844%,69.01961%);fill-opacity:1;" d="M 10.824219 11.0625 L 4.925781 13.683594 L 4.925781 17.277344 C 4.925781 18.816406 5.128906 20.230469 5.527344 21.511719 C 5.925781 22.789062 6.542969 23.890625 7.382812 24.8125 C 8.089844 25.597656 8.964844 26.234375 10.003906 26.726562 L 11.464844 27.1875 C 16.175781 26.683594 17.851562 23.316406 18.386719 22.257812 L 18.527344 21.914062 C 17.695312 22.789062 16.535156 23.332031 15.246094 23.332031 C 12.703125 23.332031 10.824219 21.230469 10.824219 18.617188 Z M 10.824219 11.0625 "/>
<path style=" stroke:none;fill-rule:nonzero;fill:rgb(49.411765%,75.686276%,51.372552%);fill-opacity:1;" d="M 19.664062 7.726562 L 19.664062 8.277344 C 19.664062 8.285156 19.667969 8.292969 19.667969 8.300781 L 19.667969 18.617188 C 19.667969 19.957031 19.289062 21.15625 18.421875 22.011719 C 18.457031 21.980469 18.492188 21.949219 18.527344 21.914062 L 18.386719 22.257812 C 17.851562 23.316406 15.390625 26.207031 10.683594 26.707031 L 10.074219 26.722656 C 10.222656 26.816406 10.382812 26.902344 10.566406 26.976562 C 11.855469 27.496094 13.382812 27.753906 15.152344 27.753906 L 15.148438 27.746094 C 16.949219 27.746094 18.5 27.5 19.808594 26.992188 C 21.121094 26.488281 22.199219 25.769531 23.050781 24.847656 C 23.898438 23.925781 24.527344 22.816406 24.941406 21.527344 C 25.355469 20.238281 25.558594 18.820312 25.558594 17.273438 L 25.558594 15.429688 C 25.179688 11.914062 21.996094 8.675781 19.664062 7.726562 Z M 18.386719 22.050781 C 18.273438 22.15625 18.15625 22.257812 18.035156 22.355469 C 18.15625 22.257812 18.273438 22.15625 18.386719 22.050781 Z M 18.386719 22.050781 "/>
</g>
</svg>
