
<svg xmlns="http://www.w3.org/2000/svg" xmlns:xlink="http://www.w3.org/1999/xlink" width="32px" height="32px" viewBox="0 0 32 32" version="1.1">
<g id="surface1">
<path style="fill-rule:nonzero;fill:rgb(100%,100%,100%);fill-opacity:1;stroke-width:27.478176;stroke-linecap:butt;stroke-linejoin:miter;stroke:rgb(100%,80.000001%,0%);stroke-opacity:1;stroke-miterlimit:4;" d="M 85.875 30.9375 L 426.125 30.9375 C 456.4375 30.9375 481.0625 55.5625 481.0625 85.875 L 481.0625 426.125 C 481.0625 456.4375 456.4375 481.0625 426.125 481.0625 L 85.875 481.0625 C 55.5625 481.0625 30.9375 456.4375 30.9375 426.125 L 30.9375 85.875 C 30.9375 55.5625 55.5625 30.9375 85.875 30.9375 Z M 85.875 30.9375 " transform="matrix(0.0625,0,0,0.0625,0,0)"/>
<path style=" stroke:none;fill-rule:nonzero;fill:rgb(100%,80.000001%,0%);fill-opacity:1;" d="M 16.144531 26.417969 C 16.507812 26.410156 16.957031 26.382812 17.558594 26.3125 C 19.722656 26.0625 20.847656 25.191406 21.347656 24.902344 C 21.847656 24.609375 23.59375 23.03125 23.59375 20.988281 L 23.59375 9.160156 L 24.117188 9.160156 C 24.304688 9.164062 24.488281 9.097656 24.585938 9 C 24.679688 8.898438 24.683594 8.769531 24.585938 8.667969 L 21.832031 5.75 C 21.746094 5.65625 21.574219 5.589844 21.394531 5.585938 C 21.375 5.582031 21.359375 5.582031 21.339844 5.582031 C 21.339844 5.582031 21.335938 5.582031 21.335938 5.582031 C 21.15625 5.585938 20.984375 5.652344 20.894531 5.746094 L 18.136719 8.660156 C 18.035156 8.761719 18.035156 8.894531 18.128906 8.996094 C 18.222656 9.097656 18.414062 9.164062 18.605469 9.160156 L 19.097656 9.160156 L 19.097656 21.484375 C 19.097656 22.277344 19.019531 22.863281 18.433594 23.695312 C 17.929688 24.417969 16.707031 24.574219 16.144531 24.601562 L 15.855469 24.601562 C 15.292969 24.574219 14.070312 24.417969 13.566406 23.695312 C 12.980469 22.863281 12.902344 22.277344 12.902344 21.484375 L 12.902344 9.160156 L 13.394531 9.160156 C 13.585938 9.164062 13.777344 9.097656 13.871094 8.996094 C 13.964844 8.894531 13.964844 8.761719 13.863281 8.660156 L 11.105469 5.746094 C 11.015625 5.648438 10.839844 5.585938 10.660156 5.582031 C 10.640625 5.582031 10.625 5.582031 10.605469 5.585938 C 10.425781 5.589844 10.253906 5.65625 10.167969 5.75 L 7.414062 8.667969 C 7.316406 8.769531 7.320312 8.898438 7.414062 9 C 7.511719 9.097656 7.695312 9.164062 7.882812 9.160156 L 8.40625 9.160156 L 8.40625 20.988281 C 8.40625 23.03125 10.152344 24.609375 10.652344 24.902344 C 11.152344 25.191406 12.277344 26.0625 14.441406 26.3125 C 15.042969 26.382812 15.492188 26.410156 15.855469 26.417969 Z M 16.144531 26.417969 "/>
</g>
</svg>
