
<svg xmlns="http://www.w3.org/2000/svg" xmlns:xlink="http://www.w3.org/1999/xlink" width="32px" height="32px" viewBox="0 0 32 32" version="1.1">
<g id="surface1">
<path style="fill-rule:nonzero;fill:rgb(98.431373%,94.901961%,94.901961%);fill-opacity:1;stroke-width:28.5;stroke-linecap:butt;stroke-linejoin:miter;stroke:rgb(11.372549%,81.176472%,96.078432%);stroke-opacity:1;stroke-miterlimit:4;" d="M 91.899323 45.595658 L 494.259766 45.595658 C 515.853983 45.595658 533.341759 63.154235 533.341759 84.748452 L 533.341759 498.224606 C 533.341759 519.889624 515.853983 537.4482 494.259766 537.4482 L 91.899323 537.4482 C 70.305106 537.4482 52.74653 519.889624 52.74653 498.224606 L 52.74653 84.748452 C 52.74653 63.154235 70.305106 45.595658 91.899323 45.595658 Z M 91.899323 45.595658 " transform="matrix(0.0551725,0,0,0.0551725,0,0)"/>
<path style=" stroke:none;fill-rule:evenodd;fill:rgb(26.274511%,31.37255%,36.078432%);fill-opacity:1;" d="M 22.769531 4.746094 C 23.734375 4.746094 24.519531 5.636719 24.519531 6.734375 L 24.519531 26.152344 C 24.519531 27.246094 23.734375 28.136719 22.769531 28.136719 C 21.804688 28.136719 21.019531 27.246094 21.019531 26.152344 L 21.019531 6.734375 C 21.019531 5.636719 21.804688 4.746094 22.769531 4.746094 Z M 22.769531 4.746094 "/>
<path style=" stroke:none;fill-rule:evenodd;fill:rgb(26.274511%,31.37255%,36.078432%);fill-opacity:1;" d="M 22.769531 5.371094 C 23.433594 5.371094 23.972656 6.050781 23.972656 6.890625 L 23.972656 26.011719 C 23.972656 26.847656 23.433594 27.527344 22.769531 27.527344 C 22.105469 27.527344 21.566406 26.847656 21.566406 26.011719 L 21.566406 6.890625 C 21.566406 6.050781 22.105469 5.371094 22.769531 5.371094 Z M 22.769531 5.371094 "/>
<path style=" stroke:none;fill-rule:nonzero;fill:rgb(100%,33.333334%,33.333334%);fill-opacity:1;" d="M 26.023438 11.457031 C 26.023438 13.179688 24.628906 14.574219 22.910156 14.574219 C 21.1875 14.574219 19.792969 13.179688 19.792969 11.457031 C 19.792969 9.738281 21.1875 8.34375 22.910156 8.34375 C 24.628906 8.34375 26.023438 9.738281 26.023438 11.457031 Z M 26.023438 11.457031 "/>
<path style=" stroke:none;fill-rule:evenodd;fill:rgb(26.274511%,31.37255%,36.078432%);fill-opacity:1;" d="M 16.28125 4.746094 C 17.246094 4.746094 18.03125 5.636719 18.03125 6.734375 L 18.03125 26.152344 C 18.03125 27.246094 17.246094 28.136719 16.28125 28.136719 C 15.316406 28.136719 14.535156 27.246094 14.535156 26.152344 L 14.535156 6.734375 C 14.535156 5.636719 15.316406 4.746094 16.28125 4.746094 Z M 16.28125 4.746094 "/>
<path style=" stroke:none;fill-rule:evenodd;fill:rgb(26.274511%,31.37255%,36.078432%);fill-opacity:1;" d="M 16.28125 5.371094 C 16.949219 5.371094 17.488281 6.050781 17.488281 6.890625 L 17.488281 26.011719 C 17.488281 26.847656 16.949219 27.527344 16.28125 27.527344 C 15.617188 27.527344 15.078125 26.847656 15.078125 26.011719 L 15.078125 6.890625 C 15.078125 6.050781 15.617188 5.371094 16.28125 5.371094 Z M 16.28125 5.371094 "/>
<path style=" stroke:none;fill-rule:nonzero;fill:rgb(100%,33.333334%,33.333334%);fill-opacity:1;" d="M 19.351562 18.269531 C 19.351562 19.988281 17.957031 21.386719 16.234375 21.386719 C 14.511719 21.386719 13.117188 19.988281 13.117188 18.269531 C 13.117188 16.550781 14.511719 15.152344 16.234375 15.152344 C 17.957031 15.152344 19.351562 16.550781 19.351562 18.269531 Z M 19.351562 18.269531 "/>
<path style=" stroke:none;fill-rule:evenodd;fill:rgb(26.274511%,31.37255%,36.078432%);fill-opacity:1;" d="M 9.785156 4.746094 C 10.75 4.746094 11.535156 5.636719 11.535156 6.734375 L 11.535156 26.152344 C 11.535156 27.246094 10.75 28.136719 9.785156 28.136719 C 8.816406 28.136719 8.035156 27.246094 8.035156 26.152344 L 8.035156 6.734375 C 8.035156 5.636719 8.816406 4.746094 9.785156 4.746094 Z M 9.785156 4.746094 "/>
<path style=" stroke:none;fill-rule:evenodd;fill:rgb(26.274511%,31.37255%,36.078432%);fill-opacity:1;" d="M 9.785156 5.371094 C 10.449219 5.371094 10.988281 6.050781 10.988281 6.890625 L 10.988281 26.011719 C 10.988281 26.847656 10.449219 27.527344 9.785156 27.527344 C 9.121094 27.527344 8.582031 26.847656 8.582031 26.011719 L 8.582031 6.890625 C 8.582031 6.050781 9.121094 5.371094 9.785156 5.371094 Z M 9.785156 5.371094 "/>
<path style=" stroke:none;fill-rule:nonzero;fill:rgb(100%,33.333334%,33.333334%);fill-opacity:1;" d="M 12.851562 9.5 C 12.851562 11.222656 11.457031 12.617188 9.738281 12.617188 C 8.015625 12.617188 6.621094 11.222656 6.621094 9.5 C 6.621094 7.777344 8.015625 6.382812 9.738281 6.382812 C 11.457031 6.382812 12.851562 7.777344 12.851562 9.5 Z M 12.851562 9.5 "/>
</g>
</svg>
