
<svg xmlns="http://www.w3.org/2000/svg" xmlns:xlink="http://www.w3.org/1999/xlink" width="32px" height="32px" viewBox="0 0 32 32" version="1.1">
<defs>
<clipPath id="clip1">
  <path d="M 8.0625 19.375 L 28.0625 19.375 L 28.0625 26.1875 L 8.0625 26.1875 Z M 8.0625 19.375 "/>
</clipPath>
<clipPath id="clip2">
  <path d="M 37.265625 16.046875 C 37.265625 27.746094 27.777344 37.222656 16.089844 37.222656 C 4.402344 37.222656 -5.082031 27.746094 -5.082031 16.046875 C -5.082031 4.347656 4.402344 -5.128906 16.089844 -5.128906 C 27.777344 -5.128906 37.265625 4.347656 37.265625 16.046875 Z M 37.265625 16.046875 "/>
</clipPath>
<clipPath id="clip3">
  <path d="M 12.0625 5.875 L 28.0625 5.875 L 28.0625 19.4375 L 12.0625 19.4375 Z M 12.0625 5.875 "/>
</clipPath>
<clipPath id="clip4">
  <path d="M 37.265625 16.046875 C 37.265625 27.746094 27.777344 37.222656 16.089844 37.222656 C 4.402344 37.222656 -5.082031 27.746094 -5.082031 16.046875 C -5.082031 4.347656 4.402344 -5.128906 16.089844 -5.128906 C 27.777344 -5.128906 37.265625 4.347656 37.265625 16.046875 Z M 37.265625 16.046875 "/>
</clipPath>
<clipPath id="clip5">
  <path d="M 4.0625 5.875 L 16.125 5.875 L 16.125 26.1875 L 4.0625 26.1875 Z M 4.0625 5.875 "/>
</clipPath>
<clipPath id="clip6">
  <path d="M 37.265625 16.046875 C 37.265625 27.746094 27.777344 37.222656 16.089844 37.222656 C 4.402344 37.222656 -5.082031 27.746094 -5.082031 16.046875 C -5.082031 4.347656 4.402344 -5.128906 16.089844 -5.128906 C 27.777344 -5.128906 37.265625 4.347656 37.265625 16.046875 Z M 37.265625 16.046875 "/>
</clipPath>
</defs>
<g id="surface1">
<path style="fill-rule:nonzero;fill:rgb(100%,100%,100%);fill-opacity:1;stroke-width:27.082432;stroke-linecap:butt;stroke-linejoin:miter;stroke:rgb(24.313726%,52.549022%,98.431373%);stroke-opacity:1;stroke-miterlimit:4;" d="M 88.3125 34.1875 L 423.6875 34.1875 C 453.5625 34.1875 477.8125 58.4375 477.8125 88.3125 L 477.8125 423.6875 C 477.8125 453.5625 453.5625 477.8125 423.6875 477.8125 L 88.3125 477.8125 C 58.4375 477.8125 34.1875 453.5625 34.1875 423.6875 L 34.1875 88.3125 C 34.1875 58.4375 58.4375 34.1875 88.3125 34.1875 Z M 88.3125 34.1875 " transform="matrix(0.0625,0,0,0.0625,0,0)"/>
<g clip-path="url(#clip1)" clip-rule="nonzero">
<g clip-path="url(#clip2)" clip-rule="nonzero">
<path style=" stroke:none;fill-rule:evenodd;fill:rgb(24.313726%,52.549022%,98.431373%);fill-opacity:1;" d="M 12.101562 19.417969 L 28.058594 19.417969 L 24.070312 26.167969 L 8.109375 26.167969 M 12.101562 19.417969 "/>
</g>
</g>
<g clip-path="url(#clip3)" clip-rule="nonzero">
<g clip-path="url(#clip4)" clip-rule="nonzero">
<path style=" stroke:none;fill-rule:evenodd;fill:rgb(98.431373%,81.176472%,29.411766%);fill-opacity:1;" d="M 28.058594 19.417969 L 20.078125 5.917969 L 12.101562 5.917969 L 20.078125 19.417969 M 28.058594 19.417969 "/>
</g>
</g>
<g clip-path="url(#clip5)" clip-rule="nonzero">
<g clip-path="url(#clip6)" clip-rule="nonzero">
<path style=" stroke:none;fill-rule:evenodd;fill:rgb(3.921569%,63.921571%,37.254903%);fill-opacity:1;" d="M 8.109375 26.167969 L 16.089844 12.667969 L 12.101562 5.917969 L 4.121094 19.417969 M 8.109375 26.167969 "/>
</g>
</g>
</g>
</svg>
