
<svg xmlns="http://www.w3.org/2000/svg" xmlns:xlink="http://www.w3.org/1999/xlink" width="32px" height="32px" viewBox="0 0 32 32" version="1.1">
<g id="surface1">
<path style="fill-rule:nonzero;fill:rgb(100%,100%,100%);fill-opacity:1;stroke-width:14.942825;stroke-linecap:butt;stroke-linejoin:miter;stroke:rgb(0%,65.490198%,92.156863%);stroke-opacity:1;stroke-miterlimit:4;" d="M 39.78125 13.28125 L 216.21875 13.28125 C 230.84375 13.28125 242.71875 25.15625 242.71875 39.78125 L 242.71875 216.21875 C 242.71875 230.84375 230.84375 242.71875 216.21875 242.71875 L 39.78125 242.71875 C 25.15625 242.71875 13.28125 230.84375 13.28125 216.21875 L 13.28125 39.78125 C 13.28125 25.15625 25.15625 13.28125 39.78125 13.28125 Z M 39.78125 13.28125 " transform="matrix(0.125,0,0,0.125,0,0)"/>
<path style=" stroke:none;fill-rule:nonzero;fill:rgb(0%,65.490198%,92.156863%);fill-opacity:1;" d="M 4.773438 24.253906 C 5.3125 23.703125 13.210938 17.011719 13.320312 17.011719 C 13.378906 17.011719 13.921875 17.441406 14.527344 17.96875 C 15.1875 18.542969 15.726562 18.925781 15.878906 18.925781 C 16.035156 18.925781 16.613281 18.519531 17.324219 17.910156 C 18.050781 17.292969 18.558594 16.9375 18.628906 16.996094 C 18.699219 17.050781 19.535156 17.765625 20.492188 18.582031 C 25.339844 22.71875 27.339844 24.445312 27.339844 24.488281 C 27.339844 24.511719 22.199219 24.535156 15.917969 24.535156 L 4.496094 24.535156 Z M 3.199219 16.128906 C 3.199219 11.890625 3.238281 8.421875 3.285156 8.421875 C 3.410156 8.425781 12.214844 15.984375 12.25 16.121094 C 12.277344 16.238281 3.679688 23.648438 3.363281 23.777344 C 3.222656 23.835938 3.199219 22.859375 3.199219 16.128906 Z M 23.953125 19.960938 C 21.566406 17.910156 19.578125 16.199219 19.535156 16.160156 C 19.472656 16.089844 28.210938 8.535156 28.46875 8.441406 C 28.535156 8.414062 28.574219 11.175781 28.574219 16.050781 C 28.574219 22.09375 28.546875 23.699219 28.433594 23.691406 C 28.359375 23.6875 26.339844 22.007812 23.953125 19.960938 Z M 11.339844 13.652344 C 8.871094 11.542969 6.308594 9.355469 5.644531 8.789062 L 4.445312 7.761719 L 10.167969 7.730469 C 13.3125 7.714844 18.460938 7.714844 21.609375 7.730469 L 27.332031 7.761719 L 23.839844 10.746094 C 21.925781 12.386719 19.363281 14.578125 18.15625 15.613281 C 16.949219 16.644531 15.933594 17.492188 15.894531 17.492188 C 15.859375 17.492188 13.808594 15.761719 11.339844 13.652344 Z M 11.339844 13.652344 "/>
</g>
</svg>
