
<svg xmlns="http://www.w3.org/2000/svg" xmlns:xlink="http://www.w3.org/1999/xlink" width="32px" height="32px" viewBox="0 0 32 32" version="1.1">
<g id="surface1">
<path style="fill-rule:nonzero;fill:rgb(100%,100%,100%);fill-opacity:1;stroke-width:27.910587;stroke-linecap:butt;stroke-linejoin:miter;stroke:rgb(42.745098%,18.431373%,48.235294%);stroke-opacity:1;stroke-miterlimit:4;" d="M 83.1875 27.4375 L 428.8125 27.4375 C 459.625 27.4375 484.5625 52.375 484.5625 83.1875 L 484.5625 428.8125 C 484.5625 459.625 459.625 484.5625 428.8125 484.5625 L 83.1875 484.5625 C 52.375 484.5625 27.4375 459.625 27.4375 428.8125 L 27.4375 83.1875 C 27.4375 52.375 52.375 27.4375 83.1875 27.4375 Z M 83.1875 27.4375 " transform="matrix(0.0625,0,0,0.0625,0,0)"/>
<path style=" stroke:none;fill-rule:nonzero;fill:rgb(60.000002%,60.000002%,60.000002%);fill-opacity:1;" d="M 20.5 16.074219 C 20.5 13.667969 18.496094 11.710938 16.027344 11.710938 C 13.558594 11.710938 11.558594 13.667969 11.558594 16.074219 C 11.558594 18.488281 13.558594 20.441406 16.027344 20.441406 C 18.496094 20.441406 20.5 18.488281 20.5 16.074219 Z M 20.5 16.074219 "/>
<path style=" stroke:none;fill-rule:nonzero;fill:rgb(60.000002%,60.000002%,60.000002%);fill-opacity:1;" d="M 15.070312 22.921875 C 14.949219 22.867188 14.824219 22.730469 14.765625 22.59375 C 14.738281 22.523438 14.707031 22.253906 14.683594 21.820312 C 14.660156 21.453125 14.632812 21.125 14.621094 21.089844 C 14.601562 21.042969 14.519531 20.996094 14.308594 20.925781 C 14.152344 20.871094 13.914062 20.769531 13.78125 20.703125 C 13.648438 20.636719 13.511719 20.582031 13.476562 20.582031 C 13.4375 20.582031 13.21875 20.757812 12.910156 21.042969 C 12.636719 21.292969 12.363281 21.527344 12.308594 21.550781 C 12.199219 21.609375 11.945312 21.621094 11.816406 21.570312 C 11.710938 21.535156 10.613281 20.453125 10.542969 20.320312 C 10.476562 20.1875 10.480469 19.941406 10.558594 19.792969 C 10.597656 19.722656 10.828125 19.449219 11.074219 19.179688 C 11.34375 18.890625 11.527344 18.667969 11.527344 18.628906 C 11.527344 18.597656 11.472656 18.460938 11.40625 18.328125 C 11.339844 18.195312 11.238281 17.957031 11.183594 17.800781 C 11.128906 17.644531 11.0625 17.503906 11.035156 17.488281 C 11.007812 17.476562 10.683594 17.449219 10.320312 17.425781 C 9.894531 17.402344 9.605469 17.371094 9.523438 17.34375 C 9.367188 17.285156 9.183594 17.09375 9.160156 16.957031 C 9.148438 16.898438 9.144531 16.480469 9.148438 16.027344 L 9.160156 15.203125 L 9.253906 15.082031 C 9.421875 14.871094 9.5 14.851562 10.300781 14.800781 C 10.753906 14.777344 11.027344 14.746094 11.050781 14.722656 C 11.074219 14.703125 11.140625 14.546875 11.203125 14.375 C 11.265625 14.207031 11.363281 13.972656 11.421875 13.859375 C 11.480469 13.746094 11.527344 13.625 11.527344 13.59375 C 11.527344 13.5625 11.335938 13.332031 11.105469 13.074219 C 10.875 12.824219 10.652344 12.574219 10.613281 12.519531 C 10.503906 12.375 10.464844 12.195312 10.511719 12.019531 C 10.542969 11.882812 10.601562 11.8125 11.105469 11.300781 C 11.414062 10.988281 11.71875 10.707031 11.78125 10.675781 C 11.925781 10.597656 12.160156 10.597656 12.304688 10.671875 C 12.367188 10.703125 12.636719 10.929688 12.902344 11.175781 C 13.171875 11.417969 13.410156 11.632812 13.429688 11.644531 C 13.453125 11.65625 13.597656 11.605469 13.773438 11.523438 C 13.9375 11.445312 14.1875 11.34375 14.324219 11.296875 C 14.511719 11.234375 14.582031 11.191406 14.609375 11.136719 C 14.628906 11.097656 14.660156 10.765625 14.683594 10.398438 C 14.722656 9.695312 14.746094 9.582031 14.894531 9.433594 C 15.054688 9.261719 15.144531 9.25 16.050781 9.261719 L 16.871094 9.269531 L 17 9.355469 C 17.222656 9.5 17.246094 9.589844 17.300781 10.375 C 17.324219 10.753906 17.351562 11.09375 17.363281 11.128906 C 17.371094 11.179688 17.441406 11.21875 17.660156 11.292969 C 17.816406 11.347656 18.066406 11.457031 18.21875 11.53125 C 18.367188 11.605469 18.503906 11.667969 18.515625 11.667969 C 18.53125 11.667969 18.769531 11.457031 19.050781 11.199219 C 19.332031 10.945312 19.613281 10.707031 19.675781 10.675781 C 19.824219 10.597656 20.042969 10.597656 20.207031 10.675781 C 20.285156 10.714844 20.550781 10.953125 20.878906 11.289062 C 21.449219 11.863281 21.492188 11.925781 21.496094 12.1875 C 21.496094 12.371094 21.410156 12.492188 20.925781 13.027344 C 20.660156 13.316406 20.441406 13.566406 20.441406 13.582031 C 20.441406 13.597656 20.511719 13.753906 20.597656 13.933594 C 20.679688 14.105469 20.78125 14.355469 20.820312 14.480469 C 20.867188 14.636719 20.910156 14.714844 20.953125 14.734375 C 20.988281 14.75 21.328125 14.78125 21.714844 14.804688 C 22.472656 14.855469 22.597656 14.886719 22.726562 15.066406 C 22.847656 15.234375 22.863281 15.363281 22.847656 16.191406 L 22.839844 16.988281 L 22.746094 17.121094 C 22.582031 17.355469 22.539062 17.367188 21.691406 17.425781 C 21.277344 17.449219 20.933594 17.480469 20.925781 17.488281 C 20.917969 17.496094 20.863281 17.628906 20.808594 17.78125 C 20.757812 17.933594 20.652344 18.183594 20.574219 18.332031 C 20.5 18.484375 20.441406 18.625 20.449219 18.648438 C 20.453125 18.671875 20.660156 18.910156 20.90625 19.179688 C 21.152344 19.449219 21.386719 19.730469 21.425781 19.804688 C 21.503906 19.964844 21.511719 20.136719 21.445312 20.296875 C 21.386719 20.4375 20.378906 21.460938 20.21875 21.542969 C 20.082031 21.613281 19.832031 21.621094 19.691406 21.558594 C 19.636719 21.535156 19.359375 21.308594 19.078125 21.050781 C 18.800781 20.792969 18.546875 20.582031 18.519531 20.582031 C 18.492188 20.582031 18.332031 20.644531 18.167969 20.722656 C 18 20.800781 17.753906 20.902344 17.621094 20.945312 C 17.433594 21.007812 17.371094 21.042969 17.359375 21.089844 C 17.351562 21.125 17.324219 21.464844 17.300781 21.84375 C 17.246094 22.675781 17.210938 22.769531 16.921875 22.917969 C 16.839844 22.957031 16.699219 22.964844 15.992188 22.964844 C 15.371094 22.964844 15.140625 22.953125 15.070312 22.921875 Z M 16.292969 19.21875 C 17.042969 19.140625 17.667969 18.839844 18.199219 18.308594 C 18.605469 17.902344 18.867188 17.449219 19.023438 16.871094 C 19.121094 16.511719 19.121094 15.71875 19.023438 15.355469 C 18.722656 14.246094 17.929688 13.433594 16.835938 13.101562 C 16.582031 13.027344 16.511719 13.019531 16.015625 13.015625 C 15.539062 13.015625 15.441406 13.023438 15.210938 13.085938 C 14.058594 13.402344 13.175781 14.324219 12.933594 15.472656 C 12.71875 16.507812 13.035156 17.558594 13.789062 18.316406 C 14.183594 18.714844 14.695312 19.003906 15.25 19.148438 C 15.410156 19.191406 15.632812 19.222656 15.953125 19.246094 C 15.980469 19.246094 16.132812 19.238281 16.292969 19.21875 Z M 15.527344 17.921875 C 14.738281 17.707031 14.183594 17.035156 14.136719 16.230469 C 14.101562 15.667969 14.28125 15.191406 14.683594 14.792969 C 15.410156 14.066406 16.574219 14.058594 17.292969 14.777344 C 17.882812 15.367188 18.027344 16.207031 17.660156 16.945312 C 17.347656 17.574219 16.769531 17.941406 16.0625 17.972656 C 15.820312 17.980469 15.699219 17.96875 15.527344 17.921875 Z M 16.410156 17.140625 C 16.628906 17.058594 16.886719 16.816406 16.996094 16.597656 C 17.074219 16.4375 17.105469 16.230469 17.105469 16.066406 C 17.105469 15.933594 17.078125 15.789062 16.976562 15.605469 C 16.773438 15.230469 16.472656 15.039062 16.046875 15.019531 C 15.703125 15 15.5 15.074219 15.253906 15.300781 C 14.9375 15.585938 14.816406 15.984375 14.914062 16.375 C 15.003906 16.714844 15.183594 16.949219 15.496094 17.105469 C 15.785156 17.25 16.082031 17.261719 16.410156 17.140625 Z M 16.410156 17.140625 "/>
<path style=" stroke:none;fill-rule:evenodd;fill:rgb(36.078432%,43.921569%,47.843137%);fill-opacity:1;" d="M 18.179688 12.351562 C 18.503906 12.351562 18.761719 12.648438 18.761719 13.015625 L 18.761719 19.488281 C 18.761719 19.855469 18.503906 20.148438 18.179688 20.148438 C 17.855469 20.148438 17.597656 19.855469 17.597656 19.488281 L 17.597656 13.015625 C 17.597656 12.648438 17.855469 12.351562 18.179688 12.351562 Z M 18.179688 12.351562 "/>
<path style=" stroke:none;fill-rule:evenodd;fill:rgb(16.862746%,25.882354%,31.764707%);fill-opacity:1;" d="M 18.179688 12.558594 C 18.402344 12.558594 18.582031 12.785156 18.582031 13.066406 L 18.582031 19.441406 C 18.582031 19.71875 18.402344 19.945312 18.179688 19.945312 C 17.957031 19.945312 17.777344 19.71875 17.777344 19.441406 L 17.777344 13.066406 C 17.777344 12.785156 17.957031 12.558594 18.179688 12.558594 Z M 18.179688 12.558594 "/>
<path style=" stroke:none;fill-rule:nonzero;fill:rgb(90.196079%,90.196079%,90.196079%);fill-opacity:1;" d="M 19.265625 14.589844 C 19.265625 14.015625 18.800781 13.550781 18.226562 13.550781 C 17.652344 13.550781 17.1875 14.015625 17.1875 14.589844 C 17.1875 15.164062 17.652344 15.628906 18.226562 15.628906 C 18.800781 15.628906 19.265625 15.164062 19.265625 14.589844 Z M 19.265625 14.589844 "/>
<path style=" stroke:none;fill-rule:evenodd;fill:rgb(36.078432%,43.921569%,47.843137%);fill-opacity:1;" d="M 16.019531 12.351562 C 16.339844 12.351562 16.597656 12.648438 16.597656 13.015625 L 16.597656 19.488281 C 16.597656 19.855469 16.339844 20.148438 16.019531 20.148438 C 15.695312 20.148438 15.433594 19.855469 15.433594 19.488281 L 15.433594 13.015625 C 15.433594 12.648438 15.695312 12.351562 16.019531 12.351562 Z M 16.019531 12.351562 "/>
<path style=" stroke:none;fill-rule:evenodd;fill:rgb(16.862746%,25.882354%,31.764707%);fill-opacity:1;" d="M 16.019531 12.558594 C 16.238281 12.558594 16.417969 12.785156 16.417969 13.066406 L 16.417969 19.441406 C 16.417969 19.71875 16.238281 19.945312 16.019531 19.945312 C 15.792969 19.945312 15.613281 19.71875 15.613281 19.441406 L 15.613281 13.066406 C 15.613281 12.785156 15.792969 12.558594 16.019531 12.558594 Z M 16.019531 12.558594 "/>
<path style=" stroke:none;fill-rule:nonzero;fill:rgb(90.196079%,90.196079%,90.196079%);fill-opacity:1;" d="M 17.039062 16.859375 C 17.039062 16.285156 16.574219 15.820312 16 15.820312 C 15.425781 15.820312 14.964844 16.285156 14.964844 16.859375 C 14.964844 17.433594 15.425781 17.898438 16 17.898438 C 16.574219 17.898438 17.039062 17.433594 17.039062 16.859375 Z M 17.039062 16.859375 "/>
<path style=" stroke:none;fill-rule:evenodd;fill:rgb(36.078432%,43.921569%,47.843137%);fill-opacity:1;" d="M 13.851562 12.351562 C 14.171875 12.351562 14.433594 12.648438 14.433594 13.015625 L 14.433594 19.488281 C 14.433594 19.855469 14.171875 20.148438 13.851562 20.148438 C 13.527344 20.148438 13.269531 19.855469 13.269531 19.488281 L 13.269531 13.015625 C 13.269531 12.648438 13.527344 12.351562 13.851562 12.351562 Z M 13.851562 12.351562 "/>
<path style=" stroke:none;fill-rule:evenodd;fill:rgb(16.862746%,25.882354%,31.764707%);fill-opacity:1;" d="M 13.851562 12.558594 C 14.074219 12.558594 14.253906 12.785156 14.253906 13.066406 L 14.253906 19.441406 C 14.253906 19.71875 14.074219 19.945312 13.851562 19.945312 C 13.628906 19.945312 13.449219 19.71875 13.449219 19.441406 L 13.449219 13.066406 C 13.449219 12.785156 13.628906 12.558594 13.851562 12.558594 Z M 13.851562 12.558594 "/>
<path style=" stroke:none;fill-rule:nonzero;fill:rgb(90.196079%,90.196079%,90.196079%);fill-opacity:1;" d="M 14.875 13.9375 C 14.875 13.363281 14.410156 12.898438 13.835938 12.898438 C 13.261719 12.898438 12.796875 13.363281 12.796875 13.9375 C 12.796875 14.511719 13.261719 14.972656 13.835938 14.972656 C 14.410156 14.972656 14.875 14.511719 14.875 13.9375 Z M 14.875 13.9375 "/>
<path style=" stroke:none;fill-rule:nonzero;fill:rgb(25.882354%,70.19608%,61.176473%);fill-opacity:1;" d="M 14.628906 13.941406 C 14.628906 13.5 14.273438 13.144531 13.832031 13.144531 C 13.394531 13.144531 13.035156 13.5 13.035156 13.941406 C 13.035156 14.378906 13.394531 14.734375 13.832031 14.734375 C 14.273438 14.734375 14.628906 14.378906 14.628906 13.941406 Z M 14.628906 13.941406 "/>
<path style=" stroke:none;fill-rule:nonzero;fill:rgb(25.882354%,70.19608%,61.176473%);fill-opacity:1;" d="M 16.796875 16.863281 C 16.796875 16.425781 16.441406 16.066406 16 16.066406 C 15.558594 16.066406 15.207031 16.425781 15.207031 16.863281 C 15.207031 17.304688 15.558594 17.660156 16 17.660156 C 16.441406 17.660156 16.796875 17.304688 16.796875 16.863281 Z M 16.796875 16.863281 "/>
<path style=" stroke:none;fill-rule:nonzero;fill:rgb(25.882354%,70.19608%,61.176473%);fill-opacity:1;" d="M 19.015625 14.597656 C 19.015625 14.160156 18.660156 13.800781 18.21875 13.800781 C 17.777344 13.800781 17.421875 14.160156 17.421875 14.597656 C 17.421875 15.035156 17.777344 15.394531 18.21875 15.394531 C 18.660156 15.394531 19.015625 15.035156 19.015625 14.597656 Z M 19.015625 14.597656 "/>
<path style=" stroke:none;fill-rule:nonzero;fill:rgb(67.058825%,20.784314%,78.039217%);fill-opacity:1;" d="M 22.949219 7.3125 L 26.511719 7.3125 L 26.511719 20.882812 C 26.511719 22.828125 25.53125 24.378906 23.574219 25.53125 C 21.621094 26.675781 19.003906 27.25 15.730469 27.25 C 12.410156 27.25 9.792969 26.679688 7.886719 25.539062 C 5.980469 24.394531 5.03125 22.84375 5.03125 20.882812 L 5.03125 7.3125 L 8.605469 7.3125 L 8.605469 20.882812 C 8.605469 22.28125 9.25 23.328125 10.542969 24.03125 C 11.832031 24.726562 13.5625 25.070312 15.730469 25.070312 C 17.980469 25.070312 19.742188 24.703125 21.019531 23.957031 C 22.304688 23.214844 22.949219 22.191406 22.949219 20.882812 Z M 22.949219 7.3125 "/>
</g>
</svg>
