
<svg xmlns="http://www.w3.org/2000/svg" xmlns:xlink="http://www.w3.org/1999/xlink" width="32px" height="32px" viewBox="0 0 32 32" version="1.1">
<g id="surface1">
<path style=" stroke:none;fill-rule:nonzero;fill:rgb(22.745098%,77.254903%,90.196079%);fill-opacity:1;" d="M 4.851562 1.375 L 27.292969 1.375 C 29.214844 1.375 30.773438 2.933594 30.773438 4.851562 L 30.773438 27.292969 C 30.773438 29.214844 29.214844 30.773438 27.292969 30.773438 L 4.851562 30.773438 C 2.933594 30.773438 1.375 29.214844 1.375 27.292969 L 1.375 4.851562 C 1.375 2.933594 2.933594 1.375 4.851562 1.375 Z M 4.851562 1.375 "/>
<path style=" stroke:none;fill-rule:nonzero;fill:rgb(100%,100%,100%);fill-opacity:1;" d="M 29.808594 16 C 29.808594 23.4375 23.917969 29.542969 16.484375 29.800781 C 9.050781 30.0625 2.746094 24.386719 2.222656 16.964844 C 1.703125 9.546875 7.152344 3.046875 14.550781 2.265625 C 21.949219 1.484375 28.636719 6.707031 29.675781 14.070312 "/>
<path style=" stroke:none;fill-rule:evenodd;fill:rgb(20.784314%,78.039217%,43.921569%);fill-opacity:1;" d="M 16.015625 6.78125 C 15.964844 6.78125 15.914062 6.785156 15.863281 6.785156 C 14.308594 6.910156 13.433594 8.800781 14.089844 10.886719 C 13.292969 9.546875 12.257812 8.519531 10.949219 8.53125 C 10.847656 8.53125 10.738281 8.539062 10.628906 8.550781 C 9.066406 8.761719 8.84375 10.726562 10.484375 11.644531 C 10.839844 11.84375 11.191406 12.082031 11.53125 12.347656 C 10.960938 12.03125 10.378906 11.832031 9.816406 11.832031 C 9.4375 11.832031 9.066406 11.925781 8.710938 12.128906 C 7.574219 12.792969 7.960938 14.324219 9.40625 14.632812 C 9.019531 14.730469 8.671875 14.921875 8.378906 15.230469 C 7.460938 16.199219 8.359375 17.605469 9.917969 17.335938 C 10.066406 17.308594 10.214844 17.292969 10.363281 17.277344 C 9.988281 17.449219 9.691406 17.710938 9.503906 18.097656 C 9.042969 19.042969 10.058594 19.890625 11.171875 19.316406 C 12.039062 18.867188 13.167969 18.65625 14.140625 18.550781 L 14.300781 18.640625 L 14.128906 18.734375 C 14.128906 18.734375 14.128906 18.734375 14.128906 18.738281 L 14.375 19.144531 L 14.128906 19.554688 C 14.128906 19.558594 14.128906 19.558594 14.128906 19.558594 L 14.300781 19.652344 L 14.128906 19.746094 C 14.128906 19.746094 14.128906 19.746094 14.128906 19.75 L 14.375 20.160156 L 14.128906 20.570312 L 14.300781 20.667969 L 14.128906 20.761719 L 14.375 21.171875 L 14.128906 21.582031 L 14.300781 21.679688 L 14.128906 21.773438 C 14.128906 21.773438 14.128906 21.777344 14.128906 21.777344 L 14.375 22.183594 L 14.128906 22.597656 L 14.300781 22.691406 L 14.128906 22.785156 C 14.128906 22.785156 14.128906 22.789062 14.128906 22.789062 L 14.375 23.199219 L 14.128906 23.609375 C 14.128906 23.609375 14.128906 23.613281 14.128906 23.613281 L 14.300781 23.707031 L 14.128906 23.800781 L 14.375 24.214844 L 14.128906 24.621094 C 14.128906 24.621094 14.128906 24.625 14.128906 24.625 L 14.300781 24.71875 L 14.128906 24.816406 L 14.375 25.226562 L 14.339844 25.285156 L 17.613281 25.285156 L 17.582031 25.226562 L 17.824219 24.816406 L 17.652344 24.71875 L 17.824219 24.625 C 17.824219 24.625 17.824219 24.621094 17.824219 24.621094 L 17.582031 24.214844 L 17.824219 23.800781 L 17.652344 23.707031 L 17.824219 23.613281 C 17.824219 23.613281 17.824219 23.609375 17.824219 23.609375 L 17.582031 23.199219 L 17.824219 22.789062 C 17.824219 22.789062 17.824219 22.785156 17.824219 22.785156 L 17.652344 22.691406 L 17.824219 22.597656 L 17.582031 22.183594 L 17.824219 21.777344 C 17.824219 21.777344 17.824219 21.773438 17.824219 21.773438 L 17.652344 21.679688 L 17.824219 21.582031 L 17.582031 21.171875 L 17.824219 20.761719 L 17.652344 20.667969 L 17.824219 20.570312 L 17.582031 20.160156 L 17.824219 19.75 C 17.824219 19.746094 17.824219 19.746094 17.824219 19.746094 L 17.652344 19.652344 L 17.824219 19.558594 C 17.824219 19.558594 17.824219 19.558594 17.824219 19.554688 L 17.582031 19.144531 L 17.824219 18.738281 C 17.824219 18.734375 17.824219 18.734375 17.824219 18.734375 L 17.652344 18.640625 L 17.820312 18.546875 C 18.800781 18.652344 19.949219 18.863281 20.828125 19.316406 C 21.941406 19.890625 22.957031 19.042969 22.496094 18.097656 C 22.308594 17.710938 22.011719 17.449219 21.636719 17.277344 C 21.785156 17.292969 21.933594 17.308594 22.082031 17.335938 C 23.640625 17.605469 24.539062 16.199219 23.621094 15.230469 C 23.328125 14.921875 22.980469 14.730469 22.59375 14.632812 C 24.039062 14.324219 24.425781 12.792969 23.289062 12.128906 C 22.414062 11.617188 21.425781 11.8125 20.472656 12.347656 C 20.808594 12.082031 21.160156 11.84375 21.515625 11.644531 C 23.15625 10.726562 22.933594 8.761719 21.371094 8.550781 C 19.816406 8.347656 18.625 9.582031 17.75 11.167969 C 18.496094 8.636719 17.464844 6.792969 16.015625 6.78125 Z M 16.015625 6.78125 "/>
<path style=" stroke:none;fill-rule:evenodd;fill:rgb(22.745098%,77.254903%,90.196079%);fill-opacity:1;" d="M 11.035156 4.003906 C 6.203125 6.011719 3.050781 10.730469 3.046875 15.964844 C 3.054688 22.628906 8.121094 28.203125 14.753906 28.84375 L 14.753906 26.351562 C 9.496094 25.722656 5.535156 21.261719 5.53125 15.964844 C 5.535156 12.117188 7.648438 8.582031 11.035156 6.753906 Z M 20.964844 4.011719 L 20.964844 6.75 C 24.351562 8.574219 26.46875 12.113281 26.46875 15.964844 C 26.464844 21.261719 22.503906 25.714844 17.246094 26.347656 L 17.246094 28.855469 C 23.882812 28.214844 28.949219 22.636719 28.953125 15.964844 C 28.949219 10.730469 25.792969 6.015625 20.964844 4.011719 Z M 20.964844 4.011719 "/>
</g>
</svg>
