
<svg xmlns="http://www.w3.org/2000/svg" xmlns:xlink="http://www.w3.org/1999/xlink" width="32px" height="32px" viewBox="0 0 32 32" version="1.1">
<g id="surface1">
<path style=" stroke:none;fill-rule:evenodd;fill:rgb(80.000001%,61.176473%,41.960785%);fill-opacity:1;" d="M 4.78125 1.53125 L 27.21875 1.53125 C 29.015625 1.53125 30.46875 2.988281 30.46875 4.78125 L 30.46875 27.21875 C 30.46875 29.015625 29.015625 30.46875 27.21875 30.46875 L 4.78125 30.46875 C 2.984375 30.46875 1.53125 29.015625 1.53125 27.21875 L 1.53125 4.78125 C 1.53125 2.988281 2.984375 1.53125 4.78125 1.53125 Z M 4.78125 1.53125 "/>
<path style=" stroke:none;fill-rule:nonzero;fill:rgb(0%,0%,0%);fill-opacity:0.25098;" d="M 8.726562 6.632812 C 8.726562 7.425781 8.082031 8.070312 7.285156 8.070312 C 6.492188 8.070312 5.847656 7.425781 5.847656 6.632812 C 5.847656 5.839844 6.492188 5.191406 7.285156 5.191406 C 8.082031 5.191406 8.726562 5.839844 8.726562 6.632812 M 8.726562 6.632812 "/>
<path style=" stroke:none;fill-rule:nonzero;fill:rgb(0%,0%,0%);fill-opacity:0.25098;" d="M 26.152344 6.730469 C 26.152344 7.527344 25.507812 8.171875 24.714844 8.171875 C 23.917969 8.171875 23.273438 7.527344 23.273438 6.730469 C 23.273438 5.9375 23.917969 5.292969 24.714844 5.292969 C 25.507812 5.292969 26.152344 5.9375 26.152344 6.730469 M 26.152344 6.730469 "/>
<path style=" stroke:none;fill-rule:nonzero;fill:rgb(100%,100%,100%);fill-opacity:1;" d="M 31.246094 21.753906 C 31.246094 26.769531 27.273438 30.886719 22.257812 31.0625 C 17.246094 31.238281 12.992188 27.410156 12.640625 22.40625 C 12.289062 17.402344 15.964844 13.015625 20.957031 12.488281 C 25.945312 11.960938 30.457031 15.480469 31.15625 20.449219 "/>
<path style=" stroke:none;fill-rule:evenodd;fill:rgb(20.784314%,78.039217%,43.921569%);fill-opacity:1;" d="M 21.941406 15.535156 C 21.910156 15.535156 21.875 15.535156 21.839844 15.539062 C 20.792969 15.621094 20.203125 16.898438 20.644531 18.300781 C 20.105469 17.398438 19.410156 16.707031 18.527344 16.714844 C 18.457031 16.714844 18.382812 16.71875 18.308594 16.730469 C 17.253906 16.871094 17.105469 18.195312 18.210938 18.816406 C 18.453125 18.949219 18.6875 19.109375 18.917969 19.292969 C 18.53125 19.074219 18.140625 18.941406 17.761719 18.941406 C 17.503906 18.941406 17.253906 19.003906 17.015625 19.144531 C 16.25 19.589844 16.511719 20.625 17.484375 20.832031 C 17.222656 20.894531 16.988281 21.027344 16.789062 21.234375 C 16.171875 21.886719 16.777344 22.832031 17.832031 22.652344 C 17.929688 22.636719 18.027344 22.625 18.128906 22.613281 C 17.878906 22.730469 17.675781 22.90625 17.550781 23.167969 C 17.238281 23.808594 17.921875 24.378906 18.675781 23.988281 C 19.261719 23.6875 20.023438 23.542969 20.679688 23.472656 L 20.785156 23.535156 L 20.671875 23.597656 C 20.667969 23.597656 20.667969 23.597656 20.671875 23.597656 L 20.835938 23.875 L 20.671875 24.152344 C 20.667969 24.152344 20.667969 24.152344 20.671875 24.152344 L 20.785156 24.214844 L 20.671875 24.28125 C 20.667969 24.28125 20.667969 24.28125 20.671875 24.28125 L 20.835938 24.558594 L 20.671875 24.835938 C 20.667969 24.835938 20.667969 24.835938 20.671875 24.835938 L 20.785156 24.902344 L 20.671875 24.964844 C 20.667969 24.964844 20.667969 24.964844 20.671875 24.964844 L 20.835938 25.242188 L 20.671875 25.519531 C 20.667969 25.519531 20.667969 25.519531 20.671875 25.519531 L 20.785156 25.582031 L 20.671875 25.648438 C 20.667969 25.648438 20.667969 25.648438 20.671875 25.648438 L 20.835938 25.925781 L 20.671875 26.203125 C 20.667969 26.203125 20.667969 26.203125 20.671875 26.203125 L 20.785156 26.269531 L 20.671875 26.332031 C 20.667969 26.332031 20.667969 26.332031 20.671875 26.332031 L 20.835938 26.609375 L 20.671875 26.886719 C 20.667969 26.886719 20.667969 26.886719 20.671875 26.886719 L 20.785156 26.949219 L 20.671875 27.015625 C 20.667969 27.015625 20.667969 27.015625 20.671875 27.015625 L 20.835938 27.292969 L 20.671875 27.570312 C 20.667969 27.570312 20.667969 27.570312 20.671875 27.570312 L 20.785156 27.636719 L 20.671875 27.699219 C 20.667969 27.699219 20.667969 27.699219 20.671875 27.699219 L 20.835938 27.976562 L 20.8125 28.019531 L 23.023438 28.019531 L 22.996094 27.976562 L 23.164062 27.699219 L 23.050781 27.636719 L 23.164062 27.570312 L 22.996094 27.292969 L 23.164062 27.015625 L 23.050781 26.949219 L 23.164062 26.886719 L 22.996094 26.609375 L 23.164062 26.332031 L 23.050781 26.269531 L 23.164062 26.203125 L 22.996094 25.925781 L 23.164062 25.648438 L 23.050781 25.582031 L 23.164062 25.519531 L 22.996094 25.242188 L 23.164062 24.964844 L 23.050781 24.902344 L 23.164062 24.835938 L 22.996094 24.558594 L 23.164062 24.28125 L 23.050781 24.214844 L 23.164062 24.152344 L 22.996094 23.875 L 23.164062 23.597656 L 23.050781 23.535156 L 23.160156 23.472656 C 23.824219 23.542969 24.597656 23.683594 25.191406 23.988281 C 25.941406 24.378906 26.625 23.808594 26.316406 23.167969 C 26.1875 22.90625 25.988281 22.730469 25.734375 22.613281 C 25.835938 22.625 25.933594 22.636719 26.035156 22.652344 C 27.085938 22.832031 27.691406 21.886719 27.074219 21.234375 C 26.875 21.027344 26.640625 20.894531 26.378906 20.832031 C 27.355469 20.625 27.613281 19.589844 26.847656 19.144531 C 26.257812 18.796875 25.59375 18.929688 24.949219 19.289062 C 25.175781 19.109375 25.414062 18.949219 25.652344 18.816406 C 26.757812 18.195312 26.613281 16.871094 25.554688 16.730469 C 24.507812 16.589844 23.703125 17.421875 23.113281 18.492188 C 23.617188 16.785156 22.921875 15.542969 21.941406 15.535156 Z M 21.941406 15.535156 "/>
<path style=" stroke:none;fill-rule:evenodd;fill:rgb(22.745098%,77.254903%,90.196079%);fill-opacity:1;" d="M 18.585938 13.660156 C 15.324219 15.011719 13.195312 18.199219 13.195312 21.730469 C 13.199219 26.226562 16.617188 29.984375 21.09375 30.417969 L 21.09375 28.734375 C 17.542969 28.308594 14.871094 25.300781 14.871094 21.730469 C 14.871094 19.132812 16.300781 16.746094 18.585938 15.519531 Z M 25.277344 13.667969 L 25.277344 15.511719 C 27.566406 16.746094 28.996094 19.128906 28.996094 21.730469 C 28.988281 25.300781 26.316406 28.308594 22.769531 28.730469 L 22.769531 30.425781 C 27.25 29.992188 30.667969 26.230469 30.667969 21.730469 C 30.667969 18.199219 28.539062 15.019531 25.277344 13.667969 Z M 25.277344 13.667969 "/>
<path style=" stroke:none;fill-rule:nonzero;fill:rgb(40.000001%,40.000001%,40.000001%);fill-opacity:1;" d="M 7.058594 7.558594 C 9.941406 22.910156 22.410156 22.910156 25.285156 7.558594 C 25.488281 6.269531 24.605469 6.246094 24.332031 7.558594 C 22.410156 21.546875 9.941406 21.472656 8.019531 7.558594 C 7.84375 6.296875 6.886719 6.347656 7.066406 7.558594 M 7.066406 7.558594 "/>
</g>
</svg>
