
<svg xmlns="http://www.w3.org/2000/svg" xmlns:xlink="http://www.w3.org/1999/xlink" width="32px" height="32px" viewBox="0 0 32 32" version="1.1">
<g id="surface1">
<path style=" stroke:none;fill-rule:nonzero;fill:rgb(38.82353%,47.843137%,50.980395%);fill-opacity:1;" d="M 9.144531 7.355469 L 18.300781 7.355469 L 18.300781 1.632812 L 9.144531 1.632812 Z M 9.144531 7.355469 "/>
<path style=" stroke:none;fill-rule:nonzero;fill:rgb(100%,100%,100%);fill-opacity:0.654902;" d="M 10.46875 5.246094 L 12.757812 5.246094 L 12.757812 2.957031 L 10.46875 2.957031 Z M 10.46875 5.246094 "/>
<path style=" stroke:none;fill-rule:nonzero;fill:rgb(1.960784%,20.784314%,24.705882%);fill-opacity:0.654902;" d="M 10.289062 5.066406 L 12.578125 5.066406 L 12.578125 2.777344 L 10.289062 2.777344 Z M 10.289062 5.066406 "/>
<path style=" stroke:none;fill-rule:nonzero;fill:rgb(100%,100%,100%);fill-opacity:0.654902;" d="M 15.046875 5.246094 L 17.335938 5.246094 L 17.335938 2.957031 L 15.046875 2.957031 Z M 15.046875 5.246094 "/>
<path style=" stroke:none;fill-rule:nonzero;fill:rgb(1.960784%,20.784314%,24.705882%);fill-opacity:0.654902;" d="M 14.867188 5.066406 L 17.15625 5.066406 L 17.15625 2.777344 L 14.867188 2.777344 Z M 14.867188 5.066406 "/>
<path style="fill-rule:nonzero;fill:rgb(14.509805%,68.235296%,87.450981%);fill-opacity:1;stroke-width:9.766254;stroke-linecap:butt;stroke-linejoin:miter;stroke:rgb(14.509805%,68.235296%,87.450981%);stroke-opacity:1;stroke-miterlimit:4;" d="M 118.8125 122.5625 L 320.3125 122.5625 C 328.5625 122.5625 335.3125 129.3125 335.3125 137.625 L 335.3125 473.8125 C 335.3125 482.0625 328.5625 488.8125 320.3125 488.8125 L 118.8125 488.8125 C 110.5 488.8125 103.8125 482.0625 103.8125 473.8125 L 103.8125 137.625 C 103.8125 129.3125 110.5 122.5625 118.8125 122.5625 Z M 118.8125 122.5625 " transform="matrix(0.0625,0,0,0.0625,0,0)"/>
<path style=" stroke:none;fill-rule:nonzero;fill:rgb(92.54902%,94.117647%,94.509804%);fill-opacity:1;" d="M 15.621094 14.042969 L 15.621094 12.171875 L 17.5 12.171875 L 17.5 14.042969 Z M 15.621094 14.042969 "/>
<path style=" stroke:none;fill-rule:nonzero;fill:rgb(92.54902%,94.117647%,94.509804%);fill-opacity:1;" d="M 13.902344 21.109375 C 14.605469 21.109375 15.175781 21.679688 15.175781 22.382812 C 15.175781 23.085938 14.605469 23.65625 13.902344 23.65625 C 13.195312 23.65625 12.625 23.085938 12.625 22.382812 C 12.625 21.679688 13.195312 21.109375 13.902344 21.109375 Z M 13.902344 21.109375 "/>
<path style=" stroke:none;fill-rule:nonzero;fill:rgb(92.54902%,94.117647%,94.509804%);fill-opacity:1;" d="M 11.511719 13.816406 C 12.132812 13.816406 12.636719 14.320312 12.636719 14.945312 C 12.636719 15.566406 12.132812 16.074219 11.511719 16.074219 C 10.886719 16.074219 10.378906 15.566406 10.378906 14.945312 C 10.378906 14.320312 10.886719 13.816406 11.511719 13.816406 Z M 11.511719 13.816406 "/>
<path style=" stroke:none;fill-rule:evenodd;fill:rgb(92.54902%,94.117647%,94.509804%);fill-opacity:1;" d="M 12.894531 11.042969 C 12.894531 11.042969 13.902344 8.769531 13.925781 8.804688 C 13.949219 8.839844 14.925781 11.042969 14.925781 11.042969 Z M 12.894531 11.042969 "/>
<path style="fill:none;stroke-width:6.079651;stroke-linecap:butt;stroke-linejoin:miter;stroke:rgb(92.54902%,94.117647%,94.509804%);stroke-opacity:1;stroke-miterlimit:2.012602;" d="M 256.722399 269.535654 C 253.722587 241.514688 213.088778 227.674649 213.0206 211.380218 C 212.952423 200.403635 213.429665 195.563031 213.361488 181.654814 " transform="matrix(0.0572953,0,0,0.0572953,-0.814447,5.04907)"/>
<path style="fill:none;stroke-width:6.079651;stroke-linecap:butt;stroke-linejoin:miter;stroke:rgb(92.54902%,94.117647%,94.509804%);stroke-opacity:1;stroke-miterlimit:2.012602;" d="M 256.722399 239.742072 C 256.722399 212.198349 287.061401 205.653306 302.060458 185.268223 C 304.378494 181.791169 302.878588 150.702214 302.878588 148.656888 " transform="matrix(0.0572953,0,0,0.0572953,-0.814447,5.04907)"/>
<path style="fill:none;stroke-width:6.079651;stroke-linecap:butt;stroke-linejoin:miter;stroke:rgb(92.54902%,94.117647%,94.509804%);stroke-opacity:1;stroke-miterlimit:2.012602;" d="M 256.722399 302.942645 L 256.722399 96.160188 " transform="matrix(0.0572953,0,0,0.0572953,-0.814447,5.04907)"/>
<path style=" stroke:none;fill-rule:evenodd;fill:rgb(10.196079%,73.725492%,61.176473%);fill-opacity:1;" d="M 29.199219 23.53125 C 29.191406 19.839844 26.214844 16.851562 22.542969 16.855469 C 18.871094 16.863281 15.902344 19.855469 15.902344 23.550781 C 15.90625 27.242188 18.886719 30.234375 22.554688 30.230469 C 26.222656 30.230469 29.199219 27.238281 29.199219 23.542969 "/>
<path style=" stroke:none;fill-rule:evenodd;fill:rgb(100%,100%,100%);fill-opacity:1;" d="M 21.988281 20.308594 L 21.988281 22.964844 L 19.335938 22.964844 L 19.335938 24.144531 L 21.988281 24.144531 L 21.988281 26.8125 L 23.191406 26.8125 L 23.191406 24.144531 L 25.832031 24.144531 L 25.832031 22.964844 L 23.191406 22.964844 L 23.191406 20.308594 Z M 21.988281 20.308594 "/>
</g>
</svg>
