
<svg xmlns="http://www.w3.org/2000/svg" xmlns:xlink="http://www.w3.org/1999/xlink" width="32px" height="32px" viewBox="0 0 32 32" version="1.1">
<g id="surface1">
<path style=" stroke:none;fill-rule:nonzero;fill:rgb(38.039216%,47.058824%,49.803922%);fill-opacity:1;" d="M 9.144531 7.355469 L 18.300781 7.355469 L 18.300781 1.632812 L 9.144531 1.632812 Z M 9.144531 7.355469 "/>
<path style=" stroke:none;fill-rule:nonzero;fill:rgb(100%,100%,100%);fill-opacity:0.654902;" d="M 10.46875 5.246094 L 12.757812 5.246094 L 12.757812 2.957031 L 10.46875 2.957031 Z M 10.46875 5.246094 "/>
<path style=" stroke:none;fill-rule:nonzero;fill:rgb(0.784314%,20%,23.921569%);fill-opacity:0.654902;" d="M 10.289062 5.066406 L 12.578125 5.066406 L 12.578125 2.777344 L 10.289062 2.777344 Z M 10.289062 5.066406 "/>
<path style=" stroke:none;fill-rule:nonzero;fill:rgb(100%,100%,100%);fill-opacity:0.654902;" d="M 15.046875 5.246094 L 17.335938 5.246094 L 17.335938 2.957031 L 15.046875 2.957031 Z M 15.046875 5.246094 "/>
<path style=" stroke:none;fill-rule:nonzero;fill:rgb(0.784314%,20%,23.921569%);fill-opacity:0.654902;" d="M 14.867188 5.066406 L 17.15625 5.066406 L 17.15625 2.777344 L 14.867188 2.777344 Z M 14.867188 5.066406 "/>
<path style="fill-rule:nonzero;fill:rgb(13.725491%,68.235296%,87.058824%);fill-opacity:1;stroke-width:9.766254;stroke-linecap:butt;stroke-linejoin:miter;stroke:rgb(13.725491%,68.235296%,87.058824%);stroke-opacity:1;stroke-miterlimit:4;" d="M 118.8125 122.5625 L 320.3125 122.5625 C 328.5625 122.5625 335.3125 129.3125 335.3125 137.625 L 335.3125 473.8125 C 335.3125 482.0625 328.5625 488.8125 320.3125 488.8125 L 118.8125 488.8125 C 110.5 488.8125 103.8125 482.0625 103.8125 473.8125 L 103.8125 137.625 C 103.8125 129.3125 110.5 122.5625 118.8125 122.5625 Z M 118.8125 122.5625 " transform="matrix(0.0625,0,0,0.0625,0,0)"/>
<path style=" stroke:none;fill-rule:nonzero;fill:rgb(92.156863%,94.117647%,94.117647%);fill-opacity:1;" d="M 15.621094 14.042969 L 15.621094 12.171875 L 17.5 12.171875 L 17.5 14.042969 Z M 15.621094 14.042969 "/>
<path style=" stroke:none;fill-rule:nonzero;fill:rgb(92.156863%,94.117647%,94.117647%);fill-opacity:1;" d="M 13.902344 21.109375 C 14.605469 21.109375 15.175781 21.679688 15.175781 22.382812 C 15.175781 23.085938 14.605469 23.65625 13.902344 23.65625 C 13.195312 23.65625 12.625 23.085938 12.625 22.382812 C 12.625 21.679688 13.195312 21.109375 13.902344 21.109375 Z M 13.902344 21.109375 "/>
<path style=" stroke:none;fill-rule:nonzero;fill:rgb(92.156863%,94.117647%,94.117647%);fill-opacity:1;" d="M 11.511719 13.816406 C 12.132812 13.816406 12.636719 14.320312 12.636719 14.945312 C 12.636719 15.566406 12.132812 16.074219 11.511719 16.074219 C 10.886719 16.074219 10.378906 15.566406 10.378906 14.945312 C 10.378906 14.320312 10.886719 13.816406 11.511719 13.816406 Z M 11.511719 13.816406 "/>
<path style=" stroke:none;fill-rule:evenodd;fill:rgb(92.156863%,94.117647%,94.117647%);fill-opacity:1;" d="M 12.894531 11.042969 C 12.894531 11.042969 13.902344 8.769531 13.925781 8.804688 C 13.949219 8.839844 14.925781 11.042969 14.925781 11.042969 Z M 12.894531 11.042969 "/>
<path style="fill:none;stroke-width:5.573362;stroke-linecap:butt;stroke-linejoin:miter;stroke:rgb(92.156863%,94.117647%,94.117647%);stroke-opacity:1;stroke-miterlimit:2.012602;" d="M 222.3125 327.875 C 219.5625 302.1875 182.3125 289.5 182.25 274.5625 C 182.1875 264.5 182.625 260.0625 182.5625 247.3125 " transform="matrix(0.0625,0,0,0.0625,0,0)"/>
<path style="fill:none;stroke-width:5.573362;stroke-linecap:butt;stroke-linejoin:miter;stroke:rgb(92.156863%,94.117647%,94.117647%);stroke-opacity:1;stroke-miterlimit:2.012602;" d="M 222.3125 300.5625 C 222.3125 275.3125 250.125 269.3125 263.875 250.625 C 266 247.4375 264.625 218.9375 264.625 217.0625 " transform="matrix(0.0625,0,0,0.0625,0,0)"/>
<path style="fill:none;stroke-width:5.573362;stroke-linecap:butt;stroke-linejoin:miter;stroke:rgb(92.156863%,94.117647%,94.117647%);stroke-opacity:1;stroke-miterlimit:2.012602;" d="M 222.3125 358.5 L 222.3125 168.9375 " transform="matrix(0.0625,0,0,0.0625,0,0)"/>
<path style=" stroke:none;fill-rule:nonzero;fill:rgb(100%,100%,100%);fill-opacity:1;" d="M 29.246094 23.863281 C 29.246094 27.421875 26.429688 30.339844 22.875 30.464844 C 19.320312 30.589844 16.304688 27.875 16.058594 24.328125 C 15.808594 20.777344 18.414062 17.667969 21.949219 17.296875 C 25.488281 16.925781 28.683594 19.417969 29.183594 22.941406 "/>
<path style=" stroke:none;fill-rule:evenodd;fill:rgb(20.784314%,78.039217%,43.921569%);fill-opacity:1;" d="M 22.652344 19.457031 C 22.628906 19.457031 22.601562 19.457031 22.578125 19.457031 C 21.832031 19.515625 21.417969 20.421875 21.730469 21.417969 C 21.347656 20.777344 20.855469 20.289062 20.230469 20.292969 C 20.179688 20.292969 20.128906 20.296875 20.074219 20.300781 C 19.328125 20.402344 19.222656 21.34375 20.007812 21.78125 C 20.175781 21.878906 20.34375 21.992188 20.507812 22.121094 C 20.234375 21.964844 19.957031 21.871094 19.6875 21.871094 C 19.503906 21.871094 19.328125 21.914062 19.160156 22.011719 C 18.617188 22.332031 18.800781 23.066406 19.492188 23.210938 C 19.308594 23.257812 19.140625 23.347656 19 23.496094 C 18.558594 23.960938 18.988281 24.628906 19.738281 24.503906 C 19.804688 24.492188 19.878906 24.480469 19.949219 24.476562 C 19.769531 24.558594 19.628906 24.683594 19.535156 24.867188 C 19.316406 25.320312 19.800781 25.722656 20.335938 25.449219 C 20.75 25.234375 21.292969 25.136719 21.753906 25.082031 L 21.832031 25.128906 L 21.75 25.171875 L 21.867188 25.371094 L 21.75 25.566406 L 21.832031 25.613281 L 21.75 25.65625 L 21.867188 25.855469 L 21.75 26.050781 L 21.832031 26.097656 L 21.75 26.140625 L 21.867188 26.339844 L 21.75 26.535156 L 21.832031 26.582031 L 21.75 26.625 C 21.75 26.625 21.75 26.625 21.75 26.628906 L 21.867188 26.824219 L 21.75 27.019531 L 21.832031 27.066406 L 21.75 27.109375 C 21.75 27.109375 21.75 27.109375 21.75 27.113281 L 21.867188 27.308594 L 21.75 27.503906 L 21.832031 27.550781 L 21.75 27.59375 C 21.75 27.59375 21.75 27.597656 21.75 27.597656 L 21.867188 27.792969 L 21.75 27.988281 L 21.832031 28.035156 L 21.75 28.078125 C 21.75 28.078125 21.75 28.082031 21.75 28.082031 L 21.867188 28.277344 L 21.847656 28.304688 L 23.417969 28.304688 L 23.398438 28.277344 L 23.515625 28.082031 C 23.519531 28.082031 23.519531 28.078125 23.515625 28.078125 L 23.433594 28.035156 L 23.515625 27.988281 C 23.519531 27.988281 23.519531 27.988281 23.515625 27.988281 L 23.398438 27.792969 L 23.515625 27.597656 C 23.519531 27.597656 23.519531 27.59375 23.515625 27.59375 L 23.433594 27.550781 L 23.515625 27.503906 C 23.519531 27.503906 23.519531 27.503906 23.515625 27.503906 L 23.398438 27.308594 L 23.515625 27.113281 C 23.519531 27.109375 23.519531 27.109375 23.515625 27.109375 L 23.433594 27.066406 L 23.515625 27.019531 C 23.519531 27.019531 23.519531 27.019531 23.515625 27.019531 L 23.398438 26.824219 L 23.515625 26.628906 C 23.519531 26.625 23.519531 26.625 23.515625 26.625 L 23.433594 26.582031 L 23.515625 26.535156 C 23.519531 26.535156 23.519531 26.535156 23.515625 26.535156 L 23.398438 26.339844 L 23.515625 26.140625 C 23.519531 26.140625 23.519531 26.140625 23.515625 26.140625 L 23.433594 26.097656 L 23.515625 26.050781 C 23.519531 26.050781 23.519531 26.050781 23.515625 26.050781 L 23.398438 25.855469 L 23.515625 25.65625 C 23.519531 25.65625 23.519531 25.65625 23.515625 25.65625 L 23.433594 25.613281 L 23.515625 25.566406 C 23.519531 25.566406 23.519531 25.566406 23.515625 25.566406 L 23.398438 25.371094 L 23.515625 25.171875 C 23.519531 25.171875 23.519531 25.171875 23.515625 25.171875 L 23.433594 25.128906 L 23.515625 25.082031 C 23.984375 25.132812 24.535156 25.230469 24.953125 25.449219 C 25.488281 25.722656 25.972656 25.320312 25.75 24.867188 C 25.660156 24.683594 25.519531 24.558594 25.339844 24.476562 C 25.410156 24.480469 25.480469 24.492188 25.550781 24.503906 C 26.296875 24.628906 26.726562 23.960938 26.289062 23.496094 C 26.148438 23.347656 25.980469 23.257812 25.796875 23.210938 C 26.488281 23.066406 26.671875 22.332031 26.128906 22.011719 C 25.710938 21.769531 25.238281 21.863281 24.78125 22.121094 C 24.945312 21.992188 25.113281 21.878906 25.28125 21.78125 C 26.066406 21.34375 25.960938 20.402344 25.210938 20.300781 C 24.46875 20.203125 23.902344 20.792969 23.480469 21.550781 C 23.839844 20.34375 23.347656 19.464844 22.652344 19.457031 Z M 22.652344 19.457031 "/>
<path style=" stroke:none;fill-rule:evenodd;fill:rgb(22.745098%,77.254903%,90.196079%);fill-opacity:1;" d="M 20.269531 18.128906 C 17.957031 19.089844 16.449219 21.34375 16.449219 23.847656 C 16.453125 27.035156 18.875 29.699219 22.050781 30.003906 L 22.050781 28.816406 C 19.535156 28.511719 17.640625 26.378906 17.636719 23.847656 C 17.640625 22.007812 18.652344 20.316406 20.269531 19.445312 Z M 25.019531 18.132812 L 25.019531 19.441406 C 26.636719 20.3125 27.648438 22.003906 27.652344 23.847656 C 27.644531 26.378906 25.753906 28.511719 23.238281 28.8125 L 23.238281 30.011719 C 26.414062 29.707031 28.835938 27.035156 28.839844 23.847656 C 28.835938 21.347656 27.328125 19.089844 25.019531 18.132812 Z M 25.019531 18.132812 "/>
</g>
</svg>
