
<svg xmlns="http://www.w3.org/2000/svg" xmlns:xlink="http://www.w3.org/1999/xlink" width="32px" height="32px" viewBox="0 0 32 32" version="1.1">
<g id="surface1">
<path style="fill-rule:nonzero;fill:rgb(100%,100%,100%);fill-opacity:1;stroke-width:27.082432;stroke-linecap:butt;stroke-linejoin:miter;stroke:rgb(60.000002%,60.000002%,60.000002%);stroke-opacity:1;stroke-miterlimit:4;" d="M 88.3125 34.1875 L 423.6875 34.1875 C 453.5625 34.1875 477.8125 58.4375 477.8125 88.3125 L 477.8125 423.6875 C 477.8125 453.5625 453.5625 477.8125 423.6875 477.8125 L 88.3125 477.8125 C 58.4375 477.8125 34.1875 453.5625 34.1875 423.6875 L 34.1875 88.3125 C 34.1875 58.4375 58.4375 34.1875 88.3125 34.1875 Z M 88.3125 34.1875 " transform="matrix(0.0625,0,0,0.0625,0,0)"/>
<path style=" stroke:none;fill-rule:nonzero;fill:rgb(60.000002%,60.000002%,60.000002%);fill-opacity:1;" d="M 23.113281 16.207031 C 23.113281 12.46875 20.011719 9.4375 16.179688 9.4375 C 12.351562 9.4375 9.246094 12.46875 9.246094 16.207031 C 9.246094 19.949219 12.351562 22.980469 16.179688 22.980469 C 20.011719 22.980469 23.113281 19.949219 23.113281 16.207031 Z M 23.113281 16.207031 "/>
<path style=" stroke:none;fill-rule:nonzero;fill:rgb(60.000002%,60.000002%,60.000002%);fill-opacity:1;" d="M 14.695312 26.824219 C 14.507812 26.742188 14.308594 26.527344 14.222656 26.316406 C 14.175781 26.207031 14.128906 25.789062 14.089844 25.117188 C 14.058594 24.550781 14.015625 24.039062 13.996094 23.984375 C 13.96875 23.910156 13.839844 23.839844 13.511719 23.730469 C 13.269531 23.644531 12.898438 23.488281 12.691406 23.386719 C 12.488281 23.28125 12.273438 23.199219 12.21875 23.199219 C 12.160156 23.199219 11.824219 23.472656 11.34375 23.910156 C 10.914062 24.300781 10.496094 24.660156 10.410156 24.703125 C 10.238281 24.792969 9.847656 24.808594 9.644531 24.730469 C 9.480469 24.671875 7.785156 22.996094 7.675781 22.789062 C 7.566406 22.585938 7.578125 22.203125 7.699219 21.972656 C 7.753906 21.867188 8.113281 21.441406 8.496094 21.023438 C 8.910156 20.574219 9.195312 20.226562 9.195312 20.167969 C 9.195312 20.117188 9.113281 19.90625 9.007812 19.699219 C 8.902344 19.496094 8.75 19.125 8.667969 18.882812 C 8.582031 18.636719 8.476562 18.421875 8.433594 18.398438 C 8.390625 18.378906 7.890625 18.332031 7.324219 18.300781 C 6.664062 18.265625 6.21875 18.21875 6.089844 18.175781 C 5.847656 18.085938 5.5625 17.785156 5.523438 17.570312 C 5.507812 17.480469 5.5 16.835938 5.507812 16.128906 L 5.523438 14.851562 L 5.667969 14.667969 C 5.929688 14.339844 6.050781 14.308594 7.292969 14.230469 C 7.996094 14.1875 8.425781 14.144531 8.460938 14.105469 C 8.492188 14.074219 8.597656 13.832031 8.695312 13.570312 C 8.792969 13.304688 8.945312 12.945312 9.035156 12.765625 C 9.121094 12.589844 9.195312 12.402344 9.195312 12.355469 C 9.195312 12.308594 8.902344 11.949219 8.542969 11.554688 C 8.183594 11.160156 7.839844 10.769531 7.777344 10.691406 C 7.609375 10.464844 7.550781 10.183594 7.617188 9.910156 C 7.667969 9.703125 7.761719 9.589844 8.542969 8.800781 C 9.019531 8.316406 9.492188 7.878906 9.589844 7.828125 C 9.816406 7.710938 10.179688 7.707031 10.40625 7.824219 C 10.5 7.871094 10.917969 8.222656 11.332031 8.605469 C 11.746094 8.984375 12.113281 9.3125 12.148438 9.332031 C 12.183594 9.351562 12.410156 9.273438 12.679688 9.144531 C 12.9375 9.023438 13.324219 8.863281 13.535156 8.792969 C 13.828125 8.695312 13.941406 8.632812 13.980469 8.546875 C 14.007812 8.484375 14.058594 7.964844 14.089844 7.398438 C 14.152344 6.308594 14.191406 6.136719 14.417969 5.902344 C 14.667969 5.636719 14.8125 5.617188 16.210938 5.632812 L 17.488281 5.644531 L 17.683594 5.777344 C 18.027344 6.003906 18.070312 6.148438 18.152344 7.363281 C 18.191406 7.949219 18.234375 8.476562 18.246094 8.535156 C 18.265625 8.613281 18.371094 8.667969 18.710938 8.789062 C 18.953125 8.875 19.34375 9.039062 19.574219 9.15625 C 19.808594 9.273438 20.015625 9.367188 20.039062 9.367188 C 20.0625 9.367188 20.433594 9.042969 20.871094 8.644531 C 21.300781 8.246094 21.738281 7.878906 21.835938 7.828125 C 22.066406 7.707031 22.410156 7.707031 22.664062 7.832031 C 22.785156 7.890625 23.191406 8.261719 23.707031 8.777344 C 24.585938 9.667969 24.65625 9.769531 24.65625 10.175781 C 24.660156 10.457031 24.53125 10.644531 23.773438 11.476562 C 23.363281 11.925781 23.027344 12.316406 23.027344 12.339844 C 23.027344 12.363281 23.132812 12.605469 23.261719 12.878906 C 23.394531 13.152344 23.550781 13.535156 23.613281 13.730469 C 23.6875 13.972656 23.753906 14.097656 23.816406 14.128906 C 23.871094 14.148438 24.402344 14.199219 24.996094 14.234375 C 26.179688 14.308594 26.371094 14.355469 26.566406 14.636719 C 26.753906 14.902344 26.777344 15.097656 26.761719 16.386719 L 26.746094 17.621094 L 26.601562 17.824219 C 26.34375 18.191406 26.277344 18.210938 24.964844 18.296875 C 24.324219 18.339844 23.789062 18.382812 23.777344 18.398438 C 23.761719 18.410156 23.683594 18.617188 23.597656 18.855469 C 23.515625 19.089844 23.347656 19.472656 23.230469 19.707031 C 23.113281 19.941406 23.027344 20.160156 23.035156 20.195312 C 23.042969 20.230469 23.363281 20.601562 23.746094 21.019531 C 24.128906 21.4375 24.488281 21.875 24.550781 21.992188 C 24.675781 22.238281 24.6875 22.503906 24.582031 22.753906 C 24.492188 22.972656 22.933594 24.558594 22.679688 24.691406 C 22.464844 24.800781 22.082031 24.808594 21.859375 24.714844 C 21.773438 24.675781 21.347656 24.320312 20.910156 23.921875 C 20.476562 23.523438 20.085938 23.199219 20.042969 23.199219 C 20 23.199219 19.753906 23.292969 19.496094 23.417969 C 19.238281 23.535156 18.859375 23.691406 18.648438 23.761719 C 18.359375 23.855469 18.261719 23.910156 18.246094 23.984375 C 18.234375 24.039062 18.191406 24.566406 18.152344 25.152344 C 18.066406 26.449219 18.015625 26.589844 17.566406 26.816406 C 17.433594 26.882812 17.21875 26.894531 16.125 26.894531 C 15.15625 26.890625 14.800781 26.875 14.695312 26.824219 Z M 16.589844 21.082031 C 17.753906 20.960938 18.722656 20.496094 19.546875 19.671875 C 20.175781 19.042969 20.582031 18.332031 20.828125 17.441406 C 20.980469 16.886719 20.980469 15.652344 20.824219 15.085938 C 20.355469 13.371094 19.128906 12.105469 17.433594 11.59375 C 17.035156 11.476562 16.925781 11.464844 16.160156 11.460938 C 15.421875 11.457031 15.269531 11.472656 14.910156 11.566406 C 13.121094 12.058594 11.753906 13.492188 11.382812 15.273438 C 11.046875 16.875 11.539062 18.511719 12.707031 19.683594 C 13.316406 20.300781 14.113281 20.75 14.972656 20.972656 C 15.21875 21.035156 15.566406 21.082031 16.0625 21.125 C 16.101562 21.128906 16.339844 21.109375 16.589844 21.082031 Z M 15.402344 19.070312 C 14.175781 18.738281 13.316406 17.695312 13.242188 16.445312 C 13.191406 15.574219 13.472656 14.832031 14.089844 14.214844 C 15.222656 13.089844 17.023438 13.082031 18.140625 14.191406 C 19.058594 15.109375 19.277344 16.410156 18.707031 17.554688 C 18.222656 18.527344 17.328125 19.101562 16.230469 19.144531 C 15.855469 19.160156 15.671875 19.144531 15.402344 19.070312 Z M 16.769531 17.859375 C 17.109375 17.730469 17.511719 17.355469 17.683594 17.011719 C 17.800781 16.769531 17.855469 16.445312 17.855469 16.1875 C 17.855469 15.984375 17.808594 15.761719 17.652344 15.472656 C 17.335938 14.894531 16.867188 14.597656 16.207031 14.566406 C 15.675781 14.539062 15.359375 14.652344 14.972656 15 C 14.488281 15.445312 14.296875 16.0625 14.449219 16.671875 C 14.585938 17.199219 14.871094 17.558594 15.355469 17.800781 C 15.804688 18.027344 16.265625 18.046875 16.769531 17.859375 Z M 16.769531 17.859375 "/>
<path style=" stroke:none;fill-rule:evenodd;fill:rgb(36.078432%,44.313726%,48.627451%);fill-opacity:1;" d="M 19.515625 10.429688 C 20.015625 10.429688 20.421875 10.890625 20.421875 11.457031 L 20.421875 21.496094 C 20.421875 22.066406 20.015625 22.527344 19.515625 22.527344 C 19.019531 22.527344 18.613281 22.066406 18.613281 21.496094 L 18.613281 11.457031 C 18.613281 10.890625 19.019531 10.429688 19.515625 10.429688 Z M 19.515625 10.429688 "/>
<path style=" stroke:none;fill-rule:evenodd;fill:rgb(17.647059%,26.666668%,32.549021%);fill-opacity:1;" d="M 19.515625 10.753906 C 19.859375 10.753906 20.140625 11.105469 20.140625 11.535156 L 20.140625 21.425781 C 20.140625 21.859375 19.859375 22.210938 19.515625 22.210938 C 19.171875 22.210938 18.894531 21.859375 18.894531 21.425781 L 18.894531 11.535156 C 18.894531 11.105469 19.171875 10.753906 19.515625 10.753906 Z M 19.515625 10.753906 "/>
<path style=" stroke:none;fill-rule:nonzero;fill:rgb(90.196079%,90.588236%,90.980393%);fill-opacity:1;" d="M 21.199219 13.902344 C 21.199219 13.011719 20.480469 12.289062 19.589844 12.289062 C 18.699219 12.289062 17.976562 13.011719 17.976562 13.902344 C 17.976562 14.792969 18.699219 15.511719 19.589844 15.511719 C 20.480469 15.511719 21.199219 14.792969 21.199219 13.902344 Z M 21.199219 13.902344 "/>
<path style=" stroke:none;fill-rule:evenodd;fill:rgb(36.078432%,44.313726%,48.627451%);fill-opacity:1;" d="M 16.160156 10.429688 C 16.660156 10.429688 17.066406 10.890625 17.066406 11.457031 L 17.066406 21.496094 C 17.066406 22.066406 16.660156 22.527344 16.160156 22.527344 C 15.664062 22.527344 15.257812 22.066406 15.257812 21.496094 L 15.257812 11.457031 C 15.257812 10.890625 15.664062 10.429688 16.160156 10.429688 Z M 16.160156 10.429688 "/>
<path style=" stroke:none;fill-rule:evenodd;fill:rgb(17.647059%,26.666668%,32.549021%);fill-opacity:1;" d="M 16.160156 10.753906 C 16.503906 10.753906 16.785156 11.105469 16.785156 11.535156 L 16.785156 21.425781 C 16.785156 21.859375 16.503906 22.210938 16.160156 22.210938 C 15.816406 22.210938 15.539062 21.859375 15.539062 21.425781 L 15.539062 11.535156 C 15.539062 11.105469 15.816406 10.753906 16.160156 10.753906 Z M 16.160156 10.753906 "/>
<path style=" stroke:none;fill-rule:nonzero;fill:rgb(90.196079%,90.588236%,90.980393%);fill-opacity:1;" d="M 17.75 17.421875 C 17.75 16.535156 17.027344 15.808594 16.136719 15.808594 C 15.246094 15.808594 14.527344 16.535156 14.527344 17.421875 C 14.527344 18.3125 15.246094 19.035156 16.136719 19.035156 C 17.027344 19.035156 17.75 18.3125 17.75 17.421875 Z M 17.75 17.421875 "/>
<path style=" stroke:none;fill-rule:evenodd;fill:rgb(36.078432%,44.313726%,48.627451%);fill-opacity:1;" d="M 12.800781 10.429688 C 13.300781 10.429688 13.707031 10.890625 13.707031 11.457031 L 13.707031 21.496094 C 13.707031 22.066406 13.300781 22.527344 12.800781 22.527344 C 12.300781 22.527344 11.898438 22.066406 11.898438 21.496094 L 11.898438 11.457031 C 11.898438 10.890625 12.300781 10.429688 12.800781 10.429688 Z M 12.800781 10.429688 "/>
<path style=" stroke:none;fill-rule:evenodd;fill:rgb(17.647059%,26.666668%,32.549021%);fill-opacity:1;" d="M 12.800781 10.753906 C 13.144531 10.753906 13.425781 11.105469 13.425781 11.535156 L 13.425781 21.425781 C 13.425781 21.859375 13.144531 22.210938 12.800781 22.210938 C 12.457031 22.210938 12.179688 21.859375 12.179688 21.425781 L 12.179688 11.535156 C 12.179688 11.105469 12.457031 10.753906 12.800781 10.753906 Z M 12.800781 10.753906 "/>
<path style=" stroke:none;fill-rule:nonzero;fill:rgb(90.196079%,90.588236%,90.980393%);fill-opacity:1;" d="M 14.386719 12.886719 C 14.386719 11.996094 13.667969 11.277344 12.777344 11.277344 C 11.886719 11.277344 11.164062 11.996094 11.164062 12.886719 C 11.164062 13.777344 11.886719 14.5 12.777344 14.5 C 13.667969 14.5 14.386719 13.777344 14.386719 12.886719 Z M 14.386719 12.886719 "/>
<path style=" stroke:none;fill-rule:nonzero;fill:rgb(26.666668%,70.19608%,61.56863%);fill-opacity:1;" d="M 14.007812 12.890625 C 14.007812 12.210938 13.457031 11.65625 12.773438 11.65625 C 12.09375 11.65625 11.539062 12.210938 11.539062 12.890625 C 11.539062 13.574219 12.09375 14.125 12.773438 14.125 C 13.457031 14.125 14.007812 13.574219 14.007812 12.890625 Z M 14.007812 12.890625 "/>
<path style=" stroke:none;fill-rule:nonzero;fill:rgb(26.666668%,70.19608%,61.56863%);fill-opacity:1;" d="M 17.371094 17.429688 C 17.371094 16.746094 16.816406 16.195312 16.136719 16.195312 C 15.453125 16.195312 14.902344 16.746094 14.902344 17.429688 C 14.902344 18.113281 15.453125 18.664062 16.136719 18.664062 C 16.816406 18.664062 17.371094 18.113281 17.371094 17.429688 Z M 17.371094 17.429688 "/>
<path style=" stroke:none;fill-rule:nonzero;fill:rgb(26.666668%,70.19608%,61.56863%);fill-opacity:1;" d="M 20.8125 13.910156 C 20.8125 13.230469 20.257812 12.675781 19.578125 12.675781 C 18.894531 12.675781 18.34375 13.230469 18.34375 13.910156 C 18.34375 14.59375 18.894531 15.144531 19.578125 15.144531 C 20.257812 15.144531 20.8125 14.59375 20.8125 13.910156 Z M 20.8125 13.910156 "/>
</g>
</svg>
