
<svg xmlns="http://www.w3.org/2000/svg" xmlns:xlink="http://www.w3.org/1999/xlink" width="32px" height="32px" viewBox="0 0 32 32" version="1.1">
<g id="surface1">
<path style="fill-rule:nonzero;fill:rgb(20%,27.843139%,36.078432%);fill-opacity:1;stroke-width:27.936705;stroke-linecap:butt;stroke-linejoin:miter;stroke:rgb(36.862746%,39.607844%,41.568628%);stroke-opacity:1;stroke-miterlimit:4;" d="M 83.0625 25.018007 L 428.9375 25.018007 C 459.8125 25.018007 484.8125 50.018007 484.8125 80.893007 L 484.8125 426.768007 C 484.8125 457.643007 459.8125 482.643007 428.9375 482.643007 L 83.0625 482.643007 C 52.1875 482.643007 27.1875 457.643007 27.1875 426.768007 L 27.1875 80.893007 C 27.1875 50.018007 52.1875 25.018007 83.0625 25.018007 Z M 83.0625 25.018007 " transform="matrix(0.0625,0,0,0.0625,0.0000000231629,0.135593)"/>
<path style=" stroke:none;fill-rule:nonzero;fill:rgb(15.686275%,20.784314%,24.705882%);fill-opacity:1;" d="M 9.03125 4.042969 L 9.03125 9.472656 L 2.566406 9.472656 L 2.566406 9.894531 L 9.03125 9.894531 L 9.03125 11.980469 L 2.566406 11.980469 L 2.566406 12.398438 L 9.03125 12.398438 L 9.03125 15.324219 L 2.566406 15.324219 L 2.566406 15.742188 L 9.03125 15.742188 L 9.03125 18.246094 L 2.566406 18.246094 L 2.566406 18.667969 L 9.03125 18.667969 L 9.03125 20.753906 L 2.566406 20.753906 L 2.566406 21.171875 L 9.03125 21.171875 L 9.03125 26.601562 L 9.527344 26.601562 L 9.527344 21.171875 L 12.015625 21.171875 L 12.015625 26.601562 L 12.511719 26.601562 L 12.511719 21.171875 L 15.996094 21.171875 L 15.996094 26.601562 L 16.496094 26.601562 L 16.496094 21.171875 L 19.480469 21.171875 L 19.480469 26.601562 L 19.976562 26.601562 L 19.976562 21.171875 L 22.464844 21.171875 L 22.464844 26.601562 L 22.960938 26.601562 L 22.960938 21.171875 L 29.429688 21.171875 L 29.429688 20.753906 L 22.960938 20.753906 L 22.960938 18.667969 L 29.429688 18.667969 L 29.429688 18.246094 L 22.960938 18.246094 L 22.960938 15.742188 L 29.429688 15.742188 L 29.429688 15.324219 L 22.960938 15.324219 L 22.960938 12.398438 L 29.429688 12.398438 L 29.429688 11.980469 L 22.960938 11.980469 L 22.960938 9.894531 L 29.429688 9.894531 L 29.429688 9.472656 L 22.960938 9.472656 L 22.960938 4.042969 L 22.464844 4.042969 L 22.464844 9.472656 L 19.976562 9.472656 L 19.976562 4.042969 L 19.480469 4.042969 L 19.480469 9.472656 L 16.496094 9.472656 L 16.496094 4.042969 L 15.996094 4.042969 L 15.996094 9.472656 L 12.511719 9.472656 L 12.511719 4.042969 L 12.015625 4.042969 L 12.015625 9.472656 L 9.527344 9.472656 L 9.527344 4.042969 Z M 9.527344 9.894531 L 12.015625 9.894531 L 12.015625 11.980469 L 9.527344 11.980469 Z M 12.511719 9.894531 L 15.996094 9.894531 L 15.996094 11.980469 L 12.511719 11.980469 Z M 16.496094 9.894531 L 19.480469 9.894531 L 19.480469 11.980469 L 16.496094 11.980469 Z M 19.976562 9.894531 L 22.464844 9.894531 L 22.464844 11.980469 L 19.976562 11.980469 Z M 9.527344 12.398438 L 12.015625 12.398438 L 12.015625 15.324219 L 9.527344 15.324219 Z M 12.511719 12.398438 L 15.996094 12.398438 L 15.996094 15.324219 L 12.511719 15.324219 Z M 16.496094 12.398438 L 19.480469 12.398438 L 19.480469 15.324219 L 16.496094 15.324219 Z M 19.976562 12.398438 L 22.464844 12.398438 L 22.464844 15.324219 L 19.976562 15.324219 Z M 9.527344 15.742188 L 12.015625 15.742188 L 12.015625 18.246094 L 9.527344 18.246094 Z M 12.511719 15.742188 L 15.996094 15.742188 L 15.996094 18.246094 L 12.511719 18.246094 Z M 16.496094 15.742188 L 19.480469 15.742188 L 19.480469 18.246094 L 16.496094 18.246094 Z M 19.976562 15.742188 L 22.464844 15.742188 L 22.464844 18.246094 L 19.976562 18.246094 Z M 9.527344 18.667969 L 12.015625 18.667969 L 12.015625 20.753906 L 9.527344 20.753906 Z M 12.511719 18.667969 L 15.996094 18.667969 L 15.996094 20.753906 L 12.511719 20.753906 Z M 16.496094 18.667969 L 19.480469 18.667969 L 19.480469 20.753906 L 16.496094 20.753906 Z M 19.976562 18.667969 L 22.464844 18.667969 L 22.464844 20.753906 L 19.976562 20.753906 Z M 19.976562 18.667969 "/>
<path style=" stroke:none;fill-rule:nonzero;fill:rgb(97.254902%,87.058824%,40.784314%);fill-opacity:1;" d="M 25.449219 10.671875 L 21.964844 12.441406 L 18.980469 12 L 16.496094 13.769531 L 14.007812 13.328125 L 12.511719 13.769531 L 11.519531 14.214844 L 10.027344 14.214844 L 9.527344 14.65625 L 7.042969 14.214844 L 5.050781 15.097656 L 4.554688 14.65625 L 2.566406 18.785156 L 2.566406 26.601562 L 29.429688 26.601562 L 29.429688 11.113281 L 27.4375 11.113281 Z M 25.449219 10.671875 "/>
<path style=" stroke:none;fill-rule:nonzero;fill:rgb(9.803922%,63.137257%,52.941179%);fill-opacity:1;" d="M 20.472656 15.980469 L 18.484375 16.425781 L 16.992188 17.753906 L 13.511719 17.753906 L 12.015625 18.195312 L 11.019531 18.195312 L 9.03125 20.851562 L 8.535156 20.410156 L 6.542969 23.949219 L 4.058594 23.0625 L 2.566406 24.058594 L 2.566406 26.601562 L 29.429688 26.601562 L 29.429688 15.980469 Z M 20.472656 15.980469 "/>
<path style=" stroke:none;fill-rule:nonzero;fill:rgb(30.980393%,72.156864%,76.078433%);fill-opacity:1;" d="M 23.957031 14.65625 L 20.472656 16.867188 L 18.980469 18.195312 L 16.992188 18.636719 L 15.003906 18.195312 L 13.011719 18.195312 L 9.527344 22.175781 L 8.535156 21.734375 L 6.542969 23.949219 L 5.550781 23.949219 L 5.050781 24.390625 L 4.058594 23.949219 L 2.566406 24.941406 L 2.566406 26.601562 L 29.429688 26.601562 L 29.429688 15.097656 L 28.933594 15.097656 L 27.9375 15.539062 L 25.945312 15.980469 Z M 23.957031 14.65625 "/>
</g>
</svg>
