
<svg xmlns="http://www.w3.org/2000/svg" xmlns:xlink="http://www.w3.org/1999/xlink" width="32px" height="32px" viewBox="0 0 32 32" version="1.1">
<g id="surface1">
<path style="fill-rule:nonzero;fill:rgb(40.000001%,40.000001%,40.000001%);fill-opacity:1;stroke-width:1.199;stroke-linecap:butt;stroke-linejoin:miter;stroke:rgb(0%,0%,0%);stroke-opacity:1;stroke-miterlimit:4;" d="M 68.375 -436.0625 L 443.625 -436.0625 C 474.8125 -436.0625 500.0625 -410.8125 500.0625 -379.625 L 500.0625 -4.375 C 500.0625 26.8125 474.8125 52.0625 443.625 52.0625 L 68.375 52.0625 C 37.1875 52.0625 11.9375 26.8125 11.9375 -4.375 L 11.9375 -379.625 C 11.9375 -410.8125 37.1875 -436.0625 68.375 -436.0625 Z M 68.375 -436.0625 " transform="matrix(0.0625,0,0,0.0625,0,28)"/>
<path style="fill-rule:nonzero;fill:rgb(20%,20%,20%);fill-opacity:1;stroke-width:1.000025;stroke-linecap:butt;stroke-linejoin:miter;stroke:rgb(0%,0%,0%);stroke-opacity:1;stroke-miterlimit:4;" d="M 86.290746 -379.67234 L 425.707377 -379.67234 C 435.593298 -379.67234 443.672115 -371.593523 443.672115 -361.707602 L 443.672115 -22.290971 C 443.672115 -12.40505 435.593298 -4.326232 425.707377 -4.326232 L 86.290746 -4.326232 C 76.404825 -4.326232 68.326008 -12.40505 68.326008 -22.290971 L 68.326008 -361.707602 C 68.326008 -371.593523 76.404825 -379.67234 86.290746 -379.67234 Z M 86.290746 -379.67234 " transform="matrix(0.0734947,0,0,0.0734947,-2.814566,30.110924)"/>
<path style="fill-rule:nonzero;fill:rgb(100%,100%,100%);fill-opacity:1;stroke-width:1.373076;stroke-linecap:butt;stroke-linejoin:miter;stroke:rgb(0%,0%,0%);stroke-opacity:1;stroke-miterlimit:4;" d="M 122.903406 -315.005491 L 122.903406 -268.883619 C 123.341272 -268.737664 123.633183 -268.591708 123.925093 -268.299798 L 203.908593 -216.193759 C 207.557476 -213.785496 207.557476 -209.917681 203.908593 -207.509419 L 123.925093 -155.403379 C 123.633183 -155.184446 123.341272 -155.038491 122.903406 -154.819558 L 122.903406 -108.697686 C 125.238691 -109.208529 127.355042 -110.084261 129.179484 -111.251903 L 261.779867 -197.730414 L 261.779867 -224.732143 C 261.779867 -225.097031 261.779867 -225.534897 261.852844 -225.972763 L 129.179484 -312.524251 C 127.355042 -313.691894 125.238691 -314.494648 122.903406 -315.005491 Z M 122.903406 -315.005491 " transform="matrix(0.0535267,0,0,0.0535267,-0.160641,23.326037)"/>
<path style="fill-rule:nonzero;fill:rgb(100%,100%,100%);fill-opacity:1;stroke-width:1.373076;stroke-linecap:butt;stroke-linejoin:miter;stroke:rgb(0%,0%,0%);stroke-opacity:1;stroke-miterlimit:4;" d="M 191.28346 -95.707665 L 342.712076 -95.707665 L 342.712076 -52.869787 L 191.28346 -52.869787 Z M 191.28346 -95.707665 " transform="matrix(0.0535267,0,0,0.0535267,-0.160641,23.326037)"/>
</g>
</svg>
