
<svg xmlns="http://www.w3.org/2000/svg" xmlns:xlink="http://www.w3.org/1999/xlink" width="32px" height="32px" viewBox="0 0 32 32" version="1.1">
<g id="surface1">
<path style="fill-rule:nonzero;fill:rgb(72.156864%,0%,0%);fill-opacity:1;stroke-width:1.199;stroke-linecap:butt;stroke-linejoin:miter;stroke:rgb(0%,0%,0%);stroke-opacity:1;stroke-miterlimit:4;" d="M 68.375 11.9375 L 443.625 11.9375 C 474.8125 11.9375 500.0625 37.1875 500.0625 68.375 L 500.0625 443.625 C 500.0625 474.8125 474.8125 500.0625 443.625 500.0625 L 68.375 500.0625 C 37.1875 500.0625 11.9375 474.8125 11.9375 443.625 L 11.9375 68.375 C 11.9375 37.1875 37.1875 11.9375 68.375 11.9375 Z M 68.375 11.9375 " transform="matrix(0.0625,0,0,0.0625,0,0)"/>
<path style=" stroke:none;fill-rule:nonzero;fill:rgb(100%,33.333334%,33.333334%);fill-opacity:1;" d="M 3.777344 2.480469 L 28.222656 2.480469 C 28.941406 2.480469 29.519531 3.058594 29.519531 3.777344 L 29.519531 28.222656 C 29.519531 28.941406 28.941406 29.519531 28.222656 29.519531 L 3.777344 29.519531 C 3.058594 29.519531 2.480469 28.941406 2.480469 28.222656 L 2.480469 3.777344 C 2.480469 3.058594 3.058594 2.480469 3.777344 2.480469 Z M 3.777344 2.480469 "/>
<path style=" stroke:none;fill-rule:nonzero;fill:rgb(100%,100%,100%);fill-opacity:1;" d="M 6.609375 6.652344 L 6.609375 9.074219 C 6.628906 9.082031 6.644531 9.089844 6.660156 9.101562 L 10.855469 11.835938 C 11.050781 11.964844 11.050781 12.167969 10.855469 12.292969 L 6.660156 15.027344 C 6.644531 15.039062 6.628906 15.050781 6.609375 15.058594 L 6.609375 17.480469 C 6.730469 17.449219 6.839844 17.40625 6.9375 17.34375 L 13.894531 12.808594 L 13.894531 11.390625 C 13.894531 11.371094 13.894531 11.347656 13.894531 11.324219 L 6.9375 6.785156 C 6.839844 6.722656 6.730469 6.679688 6.609375 6.652344 Z M 6.609375 6.652344 "/>
<path style=" stroke:none;fill-rule:nonzero;fill:rgb(100%,100%,100%);fill-opacity:1;" d="M 10.195312 18.160156 L 18.136719 18.160156 L 18.136719 20.410156 L 10.195312 20.410156 Z M 10.195312 18.160156 "/>
</g>
</svg>
