
<svg xmlns="http://www.w3.org/2000/svg" xmlns:xlink="http://www.w3.org/1999/xlink" width="32px" height="32px" viewBox="0 0 32 32" version="1.1">
<g id="surface1">
<path style=" stroke:none;fill-rule:nonzero;fill:rgb(39.215687%,81.176472%,11.764706%);fill-opacity:1;" d="M 5.488281 1.664062 L 26.683594 1.664062 C 28.753906 1.664062 30.433594 3.339844 30.433594 5.414062 L 30.433594 26.609375 C 30.433594 28.683594 28.753906 30.359375 26.683594 30.359375 L 5.488281 30.359375 C 3.414062 30.359375 1.738281 28.683594 1.738281 26.609375 L 1.738281 5.414062 C 1.738281 3.339844 3.414062 1.664062 5.488281 1.664062 Z M 5.488281 1.664062 "/>
<path style=" stroke:none;fill-rule:nonzero;fill:rgb(89.803922%,100%,83.529413%);fill-opacity:1;" d="M 16.117188 5.792969 C 10.457031 5.792969 5.867188 10.382812 5.867188 16.042969 C 5.867188 21.703125 10.457031 26.292969 16.117188 26.292969 C 21.777344 26.292969 26.367188 21.703125 26.367188 16.042969 C 26.367188 10.382812 21.777344 5.792969 16.117188 5.792969 Z M 16.117188 7.65625 C 20.75 7.65625 24.503906 11.410156 24.503906 16.042969 C 24.503906 20.675781 20.75 24.429688 16.117188 24.429688 C 11.488281 24.429688 7.730469 20.675781 7.730469 16.042969 C 7.730469 11.410156 11.488281 7.65625 16.117188 7.65625 Z M 16.117188 7.65625 "/>
<path style=" stroke:none;fill-rule:nonzero;fill:rgb(89.803922%,100%,83.529413%);fill-opacity:1;" d="M 15.433594 11.386719 L 15.433594 14.792969 L 12.222656 12.84375 L 11.457031 14.027344 L 14.820312 16.042969 L 11.457031 17.988281 L 12.222656 19.171875 L 15.433594 17.292969 L 15.433594 20.703125 L 16.882812 20.703125 L 16.882812 17.292969 L 19.9375 19.171875 L 20.777344 17.988281 L 17.492188 16.042969 L 20.777344 14.027344 L 19.9375 12.84375 L 16.882812 14.722656 L 16.882812 11.386719 Z M 15.433594 11.386719 "/>
</g>
</svg>
