
<svg xmlns="http://www.w3.org/2000/svg" xmlns:xlink="http://www.w3.org/1999/xlink" width="32px" height="32px" viewBox="0 0 32 32" version="1.1">
<g id="surface1">
<path style=" stroke:none;fill-rule:nonzero;fill:rgb(60.784316%,82.352942%,12.156863%);fill-opacity:1;" d="M 5.019531 2.292969 L 27.027344 2.292969 C 28.699219 2.292969 30.050781 3.648438 30.050781 5.316406 L 30.050781 27.070312 C 30.050781 28.738281 28.699219 30.089844 27.027344 30.089844 L 5.019531 30.089844 C 3.355469 30.089844 2 28.738281 2 27.070312 L 2 5.316406 C 2 3.648438 3.355469 2.292969 5.019531 2.292969 Z M 5.019531 2.292969 "/>
<path style=" stroke:none;fill-rule:nonzero;fill:rgb(100%,100%,100%);fill-opacity:1;" d="M 23.953125 6.738281 C 22.175781 6.738281 21.277344 7.347656 20.570312 8.199219 C 19.863281 9.050781 19.4375 10.183594 18.953125 11.15625 C 18.625 11.808594 17.898438 14.238281 17.230469 16.53125 C 16.894531 17.675781 16.558594 18.816406 16.242188 19.769531 C 15.929688 20.714844 15.691406 21.425781 15.328125 21.96875 C 14.730469 22.867188 13.769531 23.371094 12.804688 23.371094 C 12.464844 23.371094 12.125 23.308594 11.800781 23.191406 C 12.949219 24.785156 15.597656 27.375 18.6875 23.0625 C 20.832031 20.070312 21.550781 13.628906 23.0625 11.203125 C 24.988281 8.121094 25.953125 8.847656 26.183594 9.105469 C 26.226562 8.855469 26.25 8.589844 26.238281 8.339844 C 26.21875 7.875 26.097656 7.519531 25.824219 7.257812 C 25.550781 6.992188 25.03125 6.738281 23.953125 6.738281 Z M 9.496094 9.457031 C 9.953125 9.972656 10.320312 10.628906 10.542969 11.402344 C 11.035156 13.136719 11.128906 15.285156 11.242188 17.179688 C 11.296875 18.128906 11.351562 19.007812 11.441406 19.699219 C 11.535156 20.386719 11.710938 20.902344 11.761719 20.980469 C 12.058594 21.417969 12.433594 21.585938 12.804688 21.585938 C 13.175781 21.585938 13.550781 21.417969 13.847656 20.980469 C 13.925781 20.863281 14.203125 20.21875 14.480469 19.402344 C 14.011719 19.207031 13.332031 18.101562 12.804688 13.882812 C 12.5 11.449219 10.722656 10.105469 9.496094 9.457031 Z M 6.683594 9.886719 C 6.457031 9.890625 6.265625 9.953125 6.113281 10.058594 C 5.910156 10.199219 5.738281 10.425781 5.660156 10.902344 L 5.605469 10.894531 C 5.640625 12.191406 6.496094 13.050781 6.496094 13.050781 C 6.496094 13.050781 6.496094 12.160156 7.386719 11.710938 C 7.871094 11.472656 8.46875 11.863281 8.921875 12.273438 C 8.890625 12.144531 8.859375 12.015625 8.824219 11.894531 C 8.460938 10.625 7.597656 10.011719 6.925781 9.910156 C 6.839844 9.894531 6.757812 9.886719 6.683594 9.886719 Z M 6.683594 9.886719 "/>
</g>
</svg>
