
<svg xmlns="http://www.w3.org/2000/svg" xmlns:xlink="http://www.w3.org/1999/xlink" width="32px" height="32px" viewBox="0 0 32 32" version="1.1">
<g id="surface1">
<path style="fill-rule:nonzero;fill:rgb(60.784316%,34.901962%,71.372551%);fill-opacity:1;stroke-width:1.980376;stroke-linecap:butt;stroke-linejoin:miter;stroke:rgb(6.666667%,20.392157%,31.37255%);stroke-opacity:1;stroke-miterlimit:4;" d="M -32.315961 377.110463 L -7.797903 377.110463 C -5.61068 377.110463 -3.837972 378.883171 -3.837972 381.070394 L -3.837972 405.588452 C -3.837972 407.775675 -5.61068 409.548383 -7.797903 409.548383 L -32.315961 409.548383 C -34.503184 409.548383 -36.275892 407.775675 -36.275892 405.588452 L -36.275892 381.070394 C -36.275892 378.883171 -34.503184 377.110463 -32.315961 377.110463 Z M -32.315961 377.110463 " transform="matrix(0.885827,0,0,0.885827,33.766965,-332.421692)"/>
<path style=" stroke:none;fill-rule:nonzero;fill:rgb(92.54902%,94.117647%,94.509804%);fill-opacity:1;" d="M 10.222656 6.585938 L 10.222656 10.273438 L 6.570312 10.273438 L 6.570312 13.628906 L 10.222656 13.628906 L 10.222656 17.277344 L 13.609375 17.277344 L 13.609375 13.628906 L 17.261719 13.628906 L 17.261719 10.273438 L 13.609375 10.273438 L 13.609375 6.585938 Z M 10.222656 6.585938 "/>
<path style=" stroke:none;fill-rule:nonzero;fill:rgb(92.54902%,94.117647%,94.509804%);fill-opacity:1;" d="M 25.867188 16.773438 C 25.867188 18.542969 24.433594 19.980469 22.660156 19.980469 C 20.890625 19.980469 19.457031 18.542969 19.457031 16.773438 C 19.457031 15.003906 20.890625 13.566406 22.660156 13.566406 C 24.433594 13.566406 25.867188 15.003906 25.867188 16.773438 Z M 25.867188 16.773438 "/>
<path style=" stroke:none;fill-rule:nonzero;fill:rgb(49.803922%,54.901963%,55.29412%);fill-opacity:1;" d="M 23.746094 18.910156 L 23.4375 17.894531 L 21.886719 17.894531 L 21.574219 18.910156 L 20.605469 18.910156 L 22.105469 14.636719 L 23.210938 14.636719 L 24.71875 18.910156 L 23.746094 18.910156 M 23.222656 17.140625 C 22.9375 16.222656 22.777344 15.699219 22.738281 15.582031 C 22.703125 15.460938 22.679688 15.363281 22.664062 15.296875 C 22.597656 15.542969 22.417969 16.160156 22.113281 17.140625 L 23.222656 17.140625 "/>
<path style=" stroke:none;fill-rule:nonzero;fill:rgb(92.54902%,94.117647%,94.509804%);fill-opacity:1;" d="M 18.683594 22.621094 C 18.683594 24.390625 17.25 25.824219 15.480469 25.824219 C 13.707031 25.824219 12.269531 24.390625 12.269531 22.621094 C 12.269531 20.847656 13.707031 19.414062 15.480469 19.414062 C 17.25 19.414062 18.683594 20.847656 18.683594 22.621094 Z M 18.683594 22.621094 "/>
<path style=" stroke:none;fill-rule:nonzero;fill:rgb(49.803922%,54.901963%,55.29412%);fill-opacity:1;" d="M 13.894531 20.480469 L 15.222656 20.480469 C 15.832031 20.480469 16.269531 20.566406 16.542969 20.742188 C 16.816406 20.914062 16.957031 21.1875 16.957031 21.566406 C 16.957031 21.820312 16.894531 22.027344 16.773438 22.191406 C 16.65625 22.355469 16.496094 22.457031 16.296875 22.488281 L 16.296875 22.519531 C 16.566406 22.578125 16.761719 22.691406 16.882812 22.855469 C 17.003906 23.023438 17.066406 23.242188 17.066406 23.519531 C 17.066406 23.90625 16.921875 24.210938 16.640625 24.429688 C 16.359375 24.648438 15.976562 24.757812 15.492188 24.757812 L 13.894531 24.757812 L 13.894531 20.480469 M 14.800781 22.175781 L 15.324219 22.175781 C 15.574219 22.175781 15.75 22.136719 15.859375 22.058594 C 15.972656 21.984375 16.027344 21.859375 16.027344 21.683594 C 16.027344 21.519531 15.964844 21.402344 15.84375 21.332031 C 15.726562 21.261719 15.535156 21.222656 15.277344 21.222656 L 14.800781 21.222656 L 14.800781 22.175781 M 14.800781 22.894531 L 14.800781 24.007812 L 15.390625 24.007812 C 15.640625 24.007812 15.824219 23.960938 15.941406 23.863281 C 16.0625 23.769531 16.121094 23.625 16.121094 23.425781 C 16.121094 23.074219 15.871094 22.894531 15.363281 22.894531 L 14.800781 22.894531 "/>
</g>
</svg>
