
<svg xmlns="http://www.w3.org/2000/svg" xmlns:xlink="http://www.w3.org/1999/xlink" width="32px" height="32px" viewBox="0 0 32 32" version="1.1">
<g id="surface1">
<path style=" stroke:none;fill-rule:evenodd;fill:rgb(61.176473%,18.039216%,58.039218%);fill-opacity:1;" d="M 6.429688 1.351562 L 25.472656 1.351562 C 27.808594 1.351562 29.699219 3.246094 29.699219 5.582031 L 29.699219 26.339844 C 29.699219 28.675781 27.808594 30.570312 25.472656 30.570312 L 6.429688 30.570312 C 4.09375 30.570312 2.199219 28.675781 2.199219 26.339844 L 2.199219 5.582031 C 2.199219 3.246094 4.09375 1.351562 6.429688 1.351562 Z M 6.429688 1.351562 "/>
<path style=" stroke:none;fill-rule:nonzero;fill:rgb(100%,100%,100%);fill-opacity:0.552941;" d="M 13.449219 5.476562 L 15.949219 5.476562 L 15.949219 25.851562 C 6.519531 27.835938 4.316406 17.527344 8.578125 12.824219 C 11.011719 10.136719 15.933594 9.988281 13.449219 5.476562 Z M 13.449219 5.476562 "/>
<path style=" stroke:none;fill-rule:nonzero;fill:rgb(100%,100%,100%);fill-opacity:0.552941;" d="M 18.449219 5.476562 L 15.949219 5.476562 L 15.949219 25.851562 C 25.382812 27.835938 27.582031 17.527344 23.324219 12.824219 C 20.890625 10.136719 15.96875 9.988281 18.449219 5.476562 Z M 18.449219 5.476562 "/>
<path style=" stroke:none;fill-rule:nonzero;fill:rgb(10.196079%,10.196079%,10.196079%);fill-opacity:0.168627;" d="M 14.058594 5.476562 L 15.949219 5.476562 L 15.949219 25.851562 C 8.804688 27.835938 7.136719 17.527344 10.363281 12.824219 C 12.207031 10.136719 15.9375 9.988281 14.058594 5.476562 Z M 14.058594 5.476562 "/>
<path style=" stroke:none;fill-rule:nonzero;fill:rgb(10.196079%,10.196079%,10.196079%);fill-opacity:0.168627;" d="M 14.332031 5.476562 L 15.949219 5.476562 L 15.949219 25.582031 C 9.84375 27.539062 8.421875 17.371094 11.175781 12.726562 C 12.753906 10.074219 15.941406 9.925781 14.332031 5.476562 Z M 14.332031 5.476562 "/>
<path style=" stroke:none;fill-rule:nonzero;fill:rgb(10.196079%,10.196079%,10.196079%);fill-opacity:0.168627;" d="M 14.59375 5.476562 L 15.949219 5.476562 L 15.949219 25.144531 C 10.835938 27.0625 9.640625 17.113281 11.949219 12.570312 C 13.273438 9.972656 15.941406 9.832031 14.59375 5.476562 Z M 14.59375 5.476562 "/>
<path style=" stroke:none;fill-rule:nonzero;fill:rgb(10.196079%,10.196079%,10.196079%);fill-opacity:0.168627;" d="M 14.855469 5.476562 L 15.949219 5.476562 L 15.949219 24.605469 C 11.824219 26.46875 10.863281 16.792969 12.726562 12.375 C 13.792969 9.847656 15.941406 9.710938 14.855469 5.476562 Z M 14.855469 5.476562 "/>
<path style=" stroke:none;fill-rule:nonzero;fill:rgb(10.196079%,10.196079%,10.196079%);fill-opacity:0.168627;" d="M 15.132812 5.476562 L 15.949219 5.476562 L 15.949219 24.066406 C 12.863281 25.875 12.144531 16.472656 13.539062 12.179688 C 14.335938 9.726562 15.945312 9.589844 15.132812 5.476562 Z M 15.132812 5.476562 "/>
<path style=" stroke:none;fill-rule:nonzero;fill:rgb(10.196079%,10.196079%,10.196079%);fill-opacity:0.168627;" d="M 15.410156 5.476562 L 15.949219 5.476562 L 15.949219 23.414062 C 13.902344 25.160156 13.425781 16.089844 14.351562 11.945312 C 14.878906 9.578125 15.949219 9.449219 15.410156 5.476562 Z M 15.410156 5.476562 "/>
<path style=" stroke:none;fill-rule:nonzero;fill:rgb(31.37255%,31.37255%,31.37255%);fill-opacity:0.168627;" d="M 17.121094 5.476562 L 15.949219 5.476562 L 15.949219 25.851562 C 20.371094 27.835938 21.402344 17.527344 19.410156 12.824219 C 18.265625 10.136719 15.957031 9.988281 17.121094 5.476562 Z M 17.121094 5.476562 "/>
<path style=" stroke:none;fill-rule:nonzero;fill:rgb(31.37255%,31.37255%,31.37255%);fill-opacity:0.168627;" d="M 16.953125 5.476562 L 15.949219 5.476562 L 15.949219 25.582031 C 19.730469 27.539062 20.613281 17.371094 18.90625 12.726562 C 17.929688 10.074219 15.957031 9.925781 16.953125 5.476562 Z M 16.953125 5.476562 "/>
<path style=" stroke:none;fill-rule:nonzero;fill:rgb(31.37255%,31.37255%,31.37255%);fill-opacity:0.168627;" d="M 16.789062 5.476562 L 15.949219 5.476562 L 15.949219 25.144531 C 19.117188 27.0625 19.855469 17.113281 18.425781 12.570312 C 17.609375 9.972656 15.957031 9.832031 16.789062 5.476562 Z M 16.789062 5.476562 "/>
<path style=" stroke:none;fill-rule:nonzero;fill:rgb(31.37255%,31.37255%,31.37255%);fill-opacity:0.168627;" d="M 16.628906 5.476562 L 15.949219 5.476562 L 15.949219 24.605469 C 18.503906 26.46875 19.097656 16.792969 17.949219 12.375 C 17.285156 9.847656 15.957031 9.710938 16.628906 5.476562 Z M 16.628906 5.476562 "/>
<path style=" stroke:none;fill-rule:nonzero;fill:rgb(31.37255%,31.37255%,31.37255%);fill-opacity:0.168627;" d="M 16.457031 5.476562 L 15.949219 5.476562 L 15.949219 24.066406 C 17.863281 25.875 18.308594 16.472656 17.441406 12.179688 C 16.949219 9.726562 15.953125 9.589844 16.457031 5.476562 Z M 16.457031 5.476562 "/>
<path style=" stroke:none;fill-rule:nonzero;fill:rgb(31.37255%,31.37255%,31.37255%);fill-opacity:0.168627;" d="M 16.285156 5.476562 L 15.949219 5.476562 L 15.949219 23.414062 C 17.21875 25.160156 17.511719 16.089844 16.941406 11.945312 C 16.613281 9.578125 15.953125 9.449219 16.285156 5.476562 Z M 16.285156 5.476562 "/>
</g>
</svg>
