
<svg xmlns="http://www.w3.org/2000/svg" xmlns:xlink="http://www.w3.org/1999/xlink" width="32px" height="32px" viewBox="0 0 32 32" version="1.1">
<g id="surface1">
<path style=" stroke:none;fill-rule:evenodd;fill:rgb(46.27451%,71.372551%,22.745098%);fill-opacity:1;" d="M 15.925781 4.644531 L 28.5 4.644531 L 28.5 27.425781 L 15.925781 27.425781 Z M 15.925781 4.644531 "/>
<path style=" stroke:none;fill-rule:evenodd;fill:rgb(57.647061%,78.039217%,37.64706%);fill-opacity:1;" d="M 3.855469 4.609375 L 16.160156 4.609375 L 16.160156 27.390625 L 3.855469 27.390625 Z M 3.855469 4.609375 "/>
<path style=" stroke:none;fill-rule:nonzero;fill:rgb(12.156863%,14.117648%,16.078432%);fill-opacity:1;" d="M 4.878906 29.90625 C 3.648438 29.546875 2.765625 28.648438 2.453125 27.433594 C 2.375 27.128906 2.367188 26.003906 2.378906 16.152344 L 2.394531 5.207031 L 2.546875 4.796875 C 2.910156 3.800781 3.710938 3.015625 4.695312 2.691406 L 5.097656 2.558594 L 27.167969 2.558594 L 27.574219 2.691406 C 28.558594 3.015625 29.359375 3.800781 29.71875 4.796875 L 29.867188 5.207031 L 29.898438 7.773438 C 29.914062 9.183594 29.917969 14.164062 29.902344 18.835938 L 29.871094 27.332031 L 29.722656 27.738281 C 29.363281 28.722656 28.613281 29.472656 27.636719 29.832031 L 27.222656 29.980469 L 16.214844 29.992188 C 5.882812 30 5.191406 29.996094 4.878906 29.90625 Z M 15.085938 23.941406 L 15.085938 22.808594 L 10.726562 22.753906 L 10.726562 20.714844 L 21.597656 20.714844 L 21.609375 21.746094 L 21.625 22.78125 L 19.429688 22.792969 L 17.238281 22.808594 L 17.238281 25.070312 L 21.707031 25.070312 L 21.722656 23.980469 L 21.734375 22.894531 L 22.824219 22.878906 L 23.910156 22.863281 L 23.96875 18.503906 L 26.007812 18.503906 L 26.066406 22.863281 L 28.324219 22.863281 L 28.324219 16.1875 L 26.175781 16.132812 L 26.121094 13.980469 L 25.042969 13.953125 L 23.96875 13.925781 L 23.941406 12.851562 L 23.910156 11.773438 L 21.761719 11.71875 L 21.746094 10.683594 L 21.730469 9.652344 L 22.824219 9.636719 L 23.910156 9.621094 L 23.910156 7.363281 L 21.652344 7.363281 L 21.636719 8.449219 L 21.621094 9.539062 L 20.53125 9.550781 L 19.441406 9.566406 L 19.429688 10.660156 L 19.414062 11.746094 L 16.175781 11.734375 L 12.933594 11.71875 L 12.878906 9.566406 L 10.726562 9.511719 L 10.671875 7.363281 L 8.410156 7.363281 L 8.410156 9.621094 L 9.484375 9.652344 L 10.558594 9.675781 L 10.558594 11.71875 L 8.410156 11.773438 L 8.382812 12.851562 L 8.355469 13.925781 L 6.203125 13.980469 L 6.144531 16.132812 L 3.996094 16.1875 L 3.996094 22.863281 L 6.257812 22.863281 L 6.3125 18.503906 L 8.355469 18.503906 L 8.410156 22.863281 L 10.558594 22.917969 L 10.574219 23.941406 C 10.582031 24.503906 10.601562 24.992188 10.613281 25.03125 C 10.636719 25.085938 11.113281 25.097656 12.863281 25.085938 L 15.085938 25.070312 Z M 10.722656 16.089844 C 10.707031 16.050781 10.703125 15.585938 10.710938 15.054688 L 10.726562 14.089844 L 12.769531 14.089844 L 12.769531 16.132812 L 11.761719 16.148438 C 10.96875 16.160156 10.746094 16.148438 10.722656 16.089844 Z M 19.550781 16.089844 C 19.535156 16.050781 19.53125 15.585938 19.539062 15.054688 L 19.554688 14.089844 L 21.597656 14.089844 L 21.609375 15.128906 L 21.625 16.160156 L 20.601562 16.160156 C 19.816406 16.160156 19.574219 16.144531 19.550781 16.089844 Z M 19.550781 16.089844 "/>
</g>
</svg>
