
<svg xmlns="http://www.w3.org/2000/svg" xmlns:xlink="http://www.w3.org/1999/xlink" width="32px" height="32px" viewBox="0 0 32 32" version="1.1">
<g id="surface1">
<path style="fill-rule:nonzero;fill:rgb(100%,0%,0%);fill-opacity:1;stroke-width:56.032078;stroke-linecap:butt;stroke-linejoin:miter;stroke:rgb(92.54902%,92.54902%,92.54902%);stroke-opacity:1;stroke-miterlimit:4;" d="M 165.125 53.125 L 858.875 53.125 C 920.75 53.125 970.875 103.25 970.875 165.125 L 970.875 858.875 C 970.875 920.75 920.75 970.875 858.875 970.875 L 165.125 970.875 C 103.25 970.875 53.125 920.75 53.125 858.875 L 53.125 165.125 C 53.125 103.25 103.25 53.125 165.125 53.125 Z M 165.125 53.125 " transform="matrix(0.03125,0,0,0.03125,0,0)"/>
<path style=" stroke:none;fill-rule:evenodd;fill:rgb(92.54902%,92.54902%,92.54902%);fill-opacity:1;" d="M 27.285156 16.542969 C 27.285156 10.453125 22.347656 5.519531 16.257812 5.519531 C 10.167969 5.519531 5.230469 10.453125 5.230469 16.542969 C 5.230469 22.632812 10.167969 27.570312 16.257812 27.570312 C 22.347656 27.570312 27.285156 22.632812 27.285156 16.542969 Z M 27.285156 16.542969 "/>
<path style=" stroke:none;fill-rule:nonzero;fill:rgb(100%,0%,0%);fill-opacity:1;" d="M 15.144531 28.527344 C 14.542969 28.46875 14.273438 28.4375 14.019531 28.398438 C 11.886719 28.0625 10.015625 27.246094 8.347656 25.917969 C 6.097656 24.125 4.546875 21.808594 3.890625 19.246094 C 3.597656 18.09375 3.503906 17.324219 3.503906 15.980469 C 3.503906 14.867188 3.539062 14.460938 3.699219 13.589844 C 4.214844 10.777344 5.660156 8.324219 7.953125 6.363281 C 10.246094 4.402344 12.953125 3.414062 16.042969 3.414062 C 19.527344 3.414062 22.476562 4.632812 24.9375 7.09375 C 27.164062 9.320312 28.355469 11.894531 28.589844 14.988281 C 28.636719 15.601562 28.613281 16.957031 28.542969 17.511719 C 28.152344 20.691406 26.742188 23.324219 24.28125 25.488281 C 22.347656 27.183594 20.179688 28.152344 17.601562 28.46875 C 17.210938 28.515625 15.46875 28.558594 15.144531 28.527344 Z M 21.28125 16.730469 C 23.714844 8.617188 23.8125 8.285156 23.753906 8.238281 C 23.703125 8.203125 23.316406 8.199219 21.375 8.207031 C 20.101562 8.207031 19.046875 8.222656 19.035156 8.234375 C 19.027344 8.246094 18.347656 10.761719 17.535156 13.828125 C 16.722656 16.894531 16.050781 19.40625 16.042969 19.417969 C 16.03125 19.425781 16.015625 19.390625 16.003906 19.339844 C 15.988281 19.289062 15.375 16.777344 14.636719 13.753906 C 13.894531 10.734375 13.277344 8.25 13.265625 8.238281 C 13.238281 8.207031 8.753906 8.183594 8.597656 8.214844 C 8.519531 8.226562 8.496094 8.246094 8.496094 8.300781 C 8.496094 8.375 13.207031 25.050781 13.253906 25.140625 C 13.277344 25.191406 13.433594 25.195312 16.011719 25.1875 L 18.746094 25.179688 Z M 21.28125 16.730469 "/>
<path style=" stroke:none;fill-rule:evenodd;fill:rgb(100%,0%,0%);fill-opacity:1;" d="M 21.285156 21.839844 C 21.285156 22.472656 20.769531 22.988281 20.136719 22.988281 C 19.5 22.988281 18.984375 22.472656 18.984375 21.839844 C 18.984375 21.207031 19.5 20.691406 20.136719 20.691406 C 20.769531 20.691406 21.285156 21.207031 21.285156 21.839844 Z M 21.285156 21.839844 "/>
<path style=" stroke:none;fill-rule:evenodd;fill:rgb(100%,0%,0%);fill-opacity:1;" d="M 21.066406 20.527344 C 21.066406 21.160156 20.550781 21.675781 19.914062 21.675781 C 19.277344 21.675781 18.761719 21.160156 18.761719 20.527344 C 18.761719 19.894531 19.277344 19.378906 19.914062 19.378906 C 20.550781 19.378906 21.066406 19.894531 21.066406 20.527344 Z M 21.066406 20.527344 "/>
<path style=" stroke:none;fill-rule:evenodd;fill:rgb(100%,0%,0%);fill-opacity:1;" d="M 21.765625 19.441406 C 21.765625 20.074219 21.25 20.589844 20.613281 20.589844 C 19.980469 20.589844 19.464844 20.074219 19.464844 19.441406 C 19.464844 18.804688 19.980469 18.292969 20.613281 18.292969 C 21.25 18.292969 21.765625 18.804688 21.765625 19.441406 Z M 21.765625 19.441406 "/>
<path style=" stroke:none;fill-rule:evenodd;fill:rgb(100%,0%,0%);fill-opacity:1;" d="M 22.433594 18.960938 C 22.433594 19.59375 21.921875 20.109375 21.285156 20.109375 C 20.648438 20.109375 20.136719 19.59375 20.136719 18.960938 C 20.136719 18.324219 20.648438 17.8125 21.285156 17.8125 C 21.921875 17.8125 22.433594 18.324219 22.433594 18.960938 Z M 22.433594 18.960938 "/>
</g>
</svg>
