<!-- color: #eeeeee -->
<svg xmlns="http://www.w3.org/2000/svg" xmlns:xlink="http://www.w3.org/1999/xlink" width="32px" height="32px" viewBox="0 0 32 32" version="1.1">
<defs>
<clipPath id="clip1">
  <path d="M 3.5 4.25 L 28.5 4.25 L 28.5 27.3125 L 3.5 27.3125 Z M 3.5 4.25 "/>
</clipPath>
<clipPath id="clip2">
  <path d="M 38.03125 15.804688 C 38.03125 27.984375 28.15625 37.847656 15.988281 37.847656 C 3.820312 37.847656 -6.054688 27.984375 -6.054688 15.804688 C -6.054688 3.628906 3.820312 -6.238281 15.988281 -6.238281 C 28.15625 -6.238281 38.03125 3.628906 38.03125 15.804688 Z M 38.03125 15.804688 "/>
</clipPath>
<clipPath id="clip3">
  <path d="M 20.6875 7.9375 L 22.125 7.9375 L 22.125 9.332031 L 20.6875 9.332031 Z M 20.6875 7.9375 "/>
</clipPath>
<clipPath id="clip4">
  <path d="M 38.03125 15.804688 C 38.03125 27.984375 28.15625 37.847656 15.988281 37.847656 C 3.820312 37.847656 -6.054688 27.984375 -6.054688 15.804688 C -6.054688 3.628906 3.820312 -6.238281 15.988281 -6.238281 C 28.15625 -6.238281 38.03125 3.628906 38.03125 15.804688 Z M 38.03125 15.804688 "/>
</clipPath>
<clipPath id="clip5">
  <path d="M 19.6875 5.625 L 20.75 5.625 L 20.75 6.667969 L 19.6875 6.667969 Z M 19.6875 5.625 "/>
</clipPath>
<clipPath id="clip6">
  <path d="M 38.03125 15.804688 C 38.03125 27.984375 28.15625 37.847656 15.988281 37.847656 C 3.820312 37.847656 -6.054688 27.984375 -6.054688 15.804688 C -6.054688 3.628906 3.820312 -6.238281 15.988281 -6.238281 C 28.15625 -6.238281 38.03125 3.628906 38.03125 15.804688 Z M 38.03125 15.804688 "/>
</clipPath>
</defs>
<g id="surface1">
<path style="fill-rule:nonzero;fill:rgb(97.254902%,98.431373%,99.215686%);fill-opacity:1;stroke-width:6.958898;stroke-linecap:butt;stroke-linejoin:miter;stroke:rgb(28.627452%,29.803923%,52.549022%);stroke-opacity:1;stroke-miterlimit:4;" d="M 20.921875 7 L 107.078125 7 C 114.765625 7 121 13.234375 121 20.921875 L 121 107.078125 C 121 114.765625 114.765625 121 107.078125 121 L 20.921875 121 C 13.234375 121 7 114.765625 7 107.078125 L 7 20.921875 C 7 13.234375 13.234375 7 20.921875 7 Z M 20.921875 7 " transform="matrix(0.25,0,0,0.25,0,0)"/>
<g clip-path="url(#clip1)" clip-rule="nonzero">
<g clip-path="url(#clip2)" clip-rule="nonzero">
<path style=" stroke:none;fill-rule:nonzero;fill:rgb(28.627452%,29.803923%,52.549022%);fill-opacity:1;" d="M 24.042969 4.304688 C 23.121094 4.320312 22.214844 4.933594 22.066406 6.074219 C 21.835938 7.894531 23.578125 7.210938 24.972656 7.210938 C 26.367188 7.210938 26.828125 10.167969 26.472656 11.761719 C 26.261719 12.714844 24.847656 14.441406 21.976562 14.878906 L 21.976562 15.894531 C 22.953125 16.082031 23.652344 16.605469 23.652344 17.246094 C 23.652344 17.886719 22.953125 18.410156 21.976562 18.589844 L 21.976562 25.328125 C 25.828125 22.691406 28.445312 17.820312 28.445312 13.199219 C 28.445312 12.425781 28.347656 11.660156 28.207031 10.925781 C 28.078125 10.550781 27.980469 10.152344 27.875 9.816406 C 27.707031 9.207031 27.5 8.703125 27.335938 8.230469 C 27.332031 8.214844 27.34375 8.1875 27.335938 8.167969 C 26.675781 6.730469 25.757812 5.441406 24.609375 4.363281 C 24.605469 4.355469 24.589844 4.371094 24.582031 4.363281 C 24.402344 4.320312 24.230469 4.300781 24.042969 4.304688 M 8.59375 12.210938 C 5.324219 12.425781 3.660156 14.402344 3.539062 14.457031 C 3.964844 18.550781 6.476562 22.890625 10.007812 25.328125 L 10.007812 18.589844 C 9.035156 18.410156 8.332031 17.886719 8.332031 17.246094 C 8.332031 16.605469 9.035156 16.082031 10.007812 15.902344 L 10.007812 12.242188 C 9.507812 12.203125 9.03125 12.1875 8.59375 12.222656 M 11.445312 12.480469 L 11.445312 15.902344 C 12.414062 16.082031 13.121094 16.605469 13.121094 17.246094 C 13.121094 17.886719 12.410156 18.410156 11.445312 18.589844 L 11.445312 26.199219 C 12.644531 26.804688 13.941406 27.152344 15.277344 27.25 L 15.277344 25.304688 C 14.304688 25.121094 13.601562 24.601562 13.601562 23.957031 C 13.601562 23.316406 14.304688 22.796875 15.277344 22.609375 L 15.277344 13.863281 C 14.882812 13.714844 14.464844 13.546875 14.050781 13.355469 C 13.113281 12.933594 12.253906 12.667969 11.445312 12.488281 M 16.714844 14.347656 L 16.714844 22.613281 C 17.6875 22.792969 18.394531 23.320312 18.394531 23.960938 C 18.394531 24.601562 17.683594 25.125 16.714844 25.304688 L 16.714844 27.25 C 18.058594 27.148438 19.339844 26.777344 20.550781 26.171875 L 20.550781 18.597656 C 19.574219 18.414062 18.871094 17.890625 18.871094 17.253906 C 18.871094 16.613281 19.574219 16.082031 20.550781 15.902344 L 20.550781 14.976562 C 19.441406 14.972656 18.167969 14.78125 16.714844 14.347656 M 16.714844 14.347656 "/>
</g>
</g>
<g clip-path="url(#clip3)" clip-rule="nonzero">
<g clip-path="url(#clip4)" clip-rule="nonzero">
<path style=" stroke:none;fill-rule:nonzero;fill:rgb(26.274511%,29.019609%,55.686277%);fill-opacity:1;" d="M 22.117188 8.632812 C 22.117188 9.011719 21.808594 9.316406 21.417969 9.316406 C 21.039062 9.316406 20.722656 9.011719 20.722656 8.632812 C 20.722656 8.253906 21.035156 7.949219 21.417969 7.949219 C 21.804688 7.949219 22.117188 8.253906 22.117188 8.632812 M 22.117188 8.632812 "/>
</g>
</g>
<g clip-path="url(#clip5)" clip-rule="nonzero">
<g clip-path="url(#clip6)" clip-rule="nonzero">
<path style=" stroke:none;fill-rule:nonzero;fill:rgb(26.274511%,29.019609%,55.686277%);fill-opacity:1;" d="M 20.722656 6.160156 C 20.722656 6.425781 20.5 6.640625 20.230469 6.640625 C 19.957031 6.640625 19.734375 6.425781 19.734375 6.160156 C 19.734375 5.890625 19.957031 5.671875 20.230469 5.671875 C 20.5 5.671875 20.722656 5.890625 20.722656 6.160156 M 20.722656 6.160156 "/>
</g>
</g>
</g>
</svg>
