
<svg xmlns="http://www.w3.org/2000/svg" xmlns:xlink="http://www.w3.org/1999/xlink" width="32px" height="32px" viewBox="0 0 32 32" version="1.1">
<g id="surface1">
<path style="fill-rule:nonzero;fill:rgb(92.156863%,92.156863%,92.156863%);fill-opacity:1;stroke-width:27.442497;stroke-linecap:butt;stroke-linejoin:miter;stroke:rgb(0%,65.882355%,83.137256%);stroke-opacity:1;stroke-miterlimit:4;" d="M 86.125 31.25 L 425.875 31.25 C 456.1875 31.25 480.75 55.8125 480.75 86.125 L 480.75 425.875 C 480.75 456.1875 456.1875 480.75 425.875 480.75 L 86.125 480.75 C 55.8125 480.75 31.25 456.1875 31.25 425.875 L 31.25 86.125 C 31.25 55.8125 55.8125 31.25 86.125 31.25 Z M 86.125 31.25 " transform="matrix(0.0625,0,0,0.0625,0,0)"/>
<path style=" stroke:none;fill-rule:evenodd;fill:rgb(49.803922%,49.803922%,49.803922%);fill-opacity:1;" d="M 14.1875 24.730469 L 11.246094 26.65625 L 20.808594 26.65625 L 17.863281 24.730469 Z M 14.1875 24.730469 "/>
<path style=" stroke:none;fill-rule:evenodd;fill:rgb(49.803922%,49.803922%,49.803922%);fill-opacity:1;" d="M 14.1875 24.144531 L 11.246094 26.074219 L 20.808594 26.074219 L 17.863281 24.144531 Z M 14.1875 24.144531 "/>
<path style=" stroke:none;fill-rule:nonzero;fill:rgb(29.803923%,29.803923%,29.803923%);fill-opacity:1;" d="M 13.984375 20.601562 L 18.074219 20.601562 L 18.074219 25.152344 L 13.984375 25.152344 Z M 13.984375 20.601562 "/>
<path style=" stroke:none;fill-rule:nonzero;fill:rgb(49.803922%,49.803922%,49.803922%);fill-opacity:1;" d="M 5.878906 5.34375 L 26.183594 5.34375 C 26.894531 5.34375 27.472656 5.894531 27.472656 6.574219 L 27.472656 20.792969 C 27.472656 21.472656 26.894531 22.023438 26.183594 22.023438 L 5.878906 22.023438 C 5.167969 22.023438 4.589844 21.472656 4.589844 20.792969 L 4.589844 6.574219 C 4.589844 5.894531 5.167969 5.34375 5.878906 5.34375 Z M 5.878906 5.34375 "/>
<path style=" stroke:none;fill-rule:nonzero;fill:rgb(0%,65.882355%,83.137256%);fill-opacity:1;" d="M 6.730469 6.902344 L 25.328125 6.902344 L 25.328125 20.460938 L 6.730469 20.460938 Z M 6.730469 6.902344 "/>
<path style=" stroke:none;fill-rule:evenodd;fill:rgb(0%,0%,0%);fill-opacity:1;" d="M 11.246094 26.074219 L 11.246094 26.65625 L 20.8125 26.65625 L 20.8125 26.074219 Z M 11.246094 26.074219 "/>
<path style=" stroke:none;fill-rule:nonzero;fill:rgb(100%,100%,100%);fill-opacity:1;" d="M 18.035156 18.027344 L 16.984375 18.027344 L 16.984375 19.148438 L 18.035156 19.148438 Z M 16.457031 18.027344 L 15.40625 18.027344 L 15.40625 19.148438 L 16.457031 19.148438 Z M 14.878906 18.027344 L 13.824219 18.027344 L 13.824219 19.148438 L 14.878906 19.148438 Z M 14.878906 18.027344 "/>
<path style=" stroke:none;fill-rule:evenodd;fill:rgb(20%,20%,20%);fill-opacity:1;" d="M 6.675781 6.9375 L 6.675781 8 L 25.277344 8 L 25.277344 6.9375 Z M 6.675781 6.9375 "/>
<path style=" stroke:none;fill-rule:nonzero;fill:rgb(100%,100%,100%);fill-opacity:1;" d="M 11.453125 9.011719 L 7.570312 11.425781 L 11.441406 13.699219 Z M 11.453125 10.34375 L 11.453125 12.355469 L 20.019531 12.355469 L 20.019531 10.34375 Z M 11.453125 10.34375 "/>
<path style=" stroke:none;fill-rule:nonzero;fill:rgb(100%,100%,100%);fill-opacity:1;" d="M 20.378906 13.347656 L 24.261719 15.757812 L 20.386719 18.027344 Z M 20.378906 14.675781 L 20.378906 16.6875 L 11.8125 16.6875 L 11.8125 14.675781 Z M 20.378906 14.675781 "/>
</g>
</svg>
