
<svg xmlns="http://www.w3.org/2000/svg" xmlns:xlink="http://www.w3.org/1999/xlink" width="32px" height="32px" viewBox="0 0 32 32" version="1.1">
<g id="surface1">
<path style=" stroke:none;fill-rule:nonzero;fill:rgb(100%,100%,100%);fill-opacity:1;" d="M 27.59375 16.363281 C 27.597656 22.636719 22.488281 27.726562 16.183594 27.726562 C 9.878906 27.726562 4.769531 22.636719 4.773438 16.363281 C 4.769531 10.085938 9.878906 4.996094 16.183594 4.996094 C 22.488281 4.996094 27.597656 10.085938 27.59375 16.363281 Z M 27.59375 16.363281 "/>
<path style=" stroke:none;fill-rule:nonzero;fill:rgb(29.803923%,61.960787%,97.647059%);fill-opacity:1;" d="M 4.742188 30.082031 C 3.4375 29.800781 2.339844 28.691406 2.058594 27.375 C 1.925781 26.746094 1.925781 5.226562 2.058594 4.597656 C 2.238281 3.769531 2.765625 2.980469 3.492188 2.460938 C 4 2.097656 4.386719 1.953125 5.066406 1.871094 C 5.824219 1.777344 26.449219 1.773438 27.25 1.867188 C 28.660156 2.027344 29.847656 3.074219 30.203125 4.464844 C 30.308594 4.871094 30.3125 5.582031 30.3125 16.019531 L 30.3125 27.144531 L 30.167969 27.640625 C 29.824219 28.839844 28.761719 29.828125 27.546875 30.085938 C 26.941406 30.214844 5.332031 30.210938 4.742188 30.082031 Z M 18.007812 23.296875 C 19.535156 23.082031 21.113281 22.445312 22.308594 21.558594 C 23.695312 20.527344 24.648438 19.191406 25.105469 17.632812 C 25.230469 17.199219 25.246094 17.011719 25.246094 15.925781 C 25.246094 14.839844 25.230469 14.65625 25.105469 14.21875 C 24.519531 12.226562 23.140625 10.625 21.109375 9.578125 C 20.164062 9.089844 19.679688 8.910156 18.859375 8.738281 C 16.664062 8.285156 14.410156 8.5 12.609375 9.335938 C 10.777344 10.191406 9.421875 11.441406 8.691406 12.957031 C 8.121094 14.140625 7.96875 14.800781 7.960938 16.175781 C 7.949219 17.277344 8.046875 17.769531 8.441406 18.625 C 8.59375 18.960938 8.71875 19.285156 8.71875 19.347656 C 8.71875 19.730469 7.9375 20.710938 7.285156 21.148438 C 6.648438 21.574219 6.71875 21.871094 7.523438 22.136719 C 8.542969 22.472656 10.519531 22.496094 11.351562 22.179688 L 11.667969 22.058594 L 12.082031 22.269531 C 13.089844 22.769531 14.144531 23.113281 15.132812 23.265625 C 15.8125 23.371094 17.351562 23.386719 18.007812 23.296875 Z M 15.664062 21.917969 C 14.636719 21.800781 13.476562 21.394531 12.507812 20.820312 C 11.816406 20.410156 10.792969 19.386719 10.386719 18.699219 C 9.363281 16.96875 9.363281 14.949219 10.386719 13.21875 C 10.792969 12.53125 11.816406 11.507812 12.507812 11.097656 C 15.097656 9.558594 18.214844 9.558594 20.804688 11.097656 C 21.496094 11.507812 22.519531 12.53125 22.929688 13.21875 C 23.953125 14.949219 23.953125 16.96875 22.929688 18.699219 C 22.519531 19.386719 21.496094 20.410156 20.804688 20.820312 C 19.230469 21.753906 17.480469 22.128906 15.664062 21.917969 Z M 15.664062 21.917969 "/>
</g>
</svg>
