
<svg xmlns="http://www.w3.org/2000/svg" xmlns:xlink="http://www.w3.org/1999/xlink" width="32px" height="32px" viewBox="0 0 32 32" version="1.1">
<g id="surface1">
<path style="fill-rule:nonzero;fill:rgb(21.176471%,48.235294%,94.117647%);fill-opacity:1;stroke-width:27.291676;stroke-linecap:butt;stroke-linejoin:miter;stroke:rgb(14.117648%,36.470589%,76.862746%);stroke-opacity:1;stroke-miterlimit:4;" d="M 91.5625 41.375 L 429.4375 41.375 C 459.625 41.375 484.0625 65.8125 484.0625 95.9375 L 484.0625 433.8125 C 484.0625 464 459.625 488.4375 429.4375 488.4375 L 91.5625 488.4375 C 61.4375 488.4375 37 464 37 433.8125 L 37 95.9375 C 37 65.8125 61.4375 41.375 91.5625 41.375 Z M 91.5625 41.375 " transform="matrix(0.0625,0,0,0.0625,0,0)"/>
<path style=" stroke:none;fill-rule:evenodd;fill:rgb(12.941177%,26.666668%,47.058824%);fill-opacity:1;" d="M 3.738281 16.058594 L 7.292969 16.058594 L 9.464844 24.167969 L 13.71875 8.28125 L 16.691406 19.375 L 19.679688 8.222656 L 22.488281 18.703125 L 28.492188 18.703125 L 28.195312 28.738281 L 3.738281 28.738281 Z M 3.738281 16.058594 "/>
<path style="fill:none;stroke-width:28.259117;stroke-linecap:butt;stroke-linejoin:miter;stroke:rgb(100%,100%,100%);stroke-opacity:1;stroke-miterlimit:4;" d="M 50.5625 262.5625 L 110.8125 262.5625 L 147.6875 402.4375 L 219.8125 128.375 L 270.25 319.8125 L 320.9375 127.3125 L 368.5625 308.1875 L 470.5 308.1875 " transform="matrix(0.0625,0,0,0.0625,0,0)"/>
<path style="fill:none;stroke-width:25.037243;stroke-linecap:butt;stroke-linejoin:miter;stroke:rgb(100%,100%,100%);stroke-opacity:1;stroke-miterlimit:4;" d="M 105.5625 59.8125 L 415.5 59.8125 C 443.1875 59.8125 465.5625 82.25 465.5625 109.9375 L 465.5625 419.875 C 465.5625 447.5625 443.1875 469.9375 415.5 469.9375 L 105.5625 469.9375 C 77.875 469.9375 55.4375 447.5625 55.4375 419.875 L 55.4375 109.9375 C 55.4375 82.25 77.875 59.8125 105.5625 59.8125 Z M 105.5625 59.8125 " transform="matrix(0.0625,0,0,0.0625,0,0)"/>
</g>
</svg>
