
<svg xmlns="http://www.w3.org/2000/svg" xmlns:xlink="http://www.w3.org/1999/xlink" width="32px" height="32px" viewBox="0 0 32 32" version="1.1">
<g id="surface1">
<path style="fill-rule:nonzero;fill:rgb(92.54902%,92.54902%,92.54902%);fill-opacity:1;stroke-width:27.291676;stroke-linecap:butt;stroke-linejoin:miter;stroke:rgb(48.235294%,22.352941%,29.019609%);stroke-opacity:1;stroke-miterlimit:4;" d="M 91.5625 41.375 L 429.4375 41.375 C 459.625 41.375 484.0625 65.8125 484.0625 95.9375 L 484.0625 433.8125 C 484.0625 464 459.625 488.4375 429.4375 488.4375 L 91.5625 488.4375 C 61.4375 488.4375 37 464 37 433.8125 L 37 95.9375 C 37 65.8125 61.4375 41.375 91.5625 41.375 Z M 91.5625 41.375 " transform="matrix(0.0625,0,0,0.0625,0,0)"/>
<path style=" stroke:none;fill-rule:nonzero;fill:rgb(44.313726%,47.058824%,47.843137%);fill-opacity:1;" d="M 16.628906 20.75 L 20.074219 11.25 L 22.414062 11.25 L 18.972656 20.75 Z M 16.628906 20.75 "/>
<path style=" stroke:none;fill-rule:nonzero;fill:rgb(48.235294%,22.352941%,29.019609%);fill-opacity:1;" d="M 3.746094 11.25 L 7.191406 20.75 L 9.535156 20.75 L 6.089844 11.25 Z M 3.746094 11.25 "/>
<path style=" stroke:none;fill-rule:nonzero;fill:rgb(48.235294%,22.352941%,29.019609%);fill-opacity:1;" d="M 10.675781 11.25 L 7.234375 20.75 L 9.578125 20.75 L 13.019531 11.25 Z M 10.675781 11.25 "/>
<path style=" stroke:none;fill-rule:nonzero;fill:rgb(43.137255%,46.27451%,47.058824%);fill-opacity:1;" d="M 9.582031 20.75 L 13.023438 11.25 L 15.363281 11.25 L 11.921875 20.75 Z M 9.582031 20.75 "/>
<path style=" stroke:none;fill-rule:nonzero;fill:rgb(29.803923%,31.37255%,32.156864%);fill-opacity:1;" d="M 11.929688 20.75 L 15.371094 11.25 L 17.714844 11.25 L 14.273438 20.75 Z M 11.929688 20.75 "/>
<path style=" stroke:none;fill-rule:nonzero;fill:rgb(29.803923%,31.37255%,32.156864%);fill-opacity:1;" d="M 18.980469 20.75 L 22.421875 11.25 L 24.765625 11.25 L 21.324219 20.75 Z M 18.980469 20.75 "/>
<path style=" stroke:none;fill-rule:nonzero;fill:rgb(40.000001%,40.000001%,40.000001%);fill-opacity:1;" d="M 18.859375 20.75 L 15.417969 11.25 L 17.757812 11.25 L 21.203125 20.75 Z M 18.859375 20.75 "/>
<path style=" stroke:none;fill-rule:nonzero;fill:rgb(40.000001%,40.000001%,40.000001%);fill-opacity:1;" d="M 25.910156 20.75 L 22.464844 11.25 L 24.808594 11.25 L 28.253906 20.75 Z M 25.910156 20.75 "/>
<path style=" stroke:none;fill-rule:nonzero;fill:rgb(65.098041%,67.058825%,67.450982%);fill-opacity:1;" d="M 16.511719 20.75 L 13.066406 11.25 L 15.410156 11.25 L 18.851562 20.75 Z M 16.511719 20.75 "/>
<path style=" stroke:none;fill-rule:nonzero;fill:rgb(69.803923%,71.764708%,71.764708%);fill-opacity:1;" d="M 23.558594 20.75 L 20.117188 11.25 L 22.457031 11.25 L 25.902344 20.75 Z M 23.558594 20.75 "/>
</g>
</svg>
