
<svg xmlns="http://www.w3.org/2000/svg" xmlns:xlink="http://www.w3.org/1999/xlink" width="32px" height="32px" viewBox="0 0 32 32" version="1.1">
<g id="surface1">
<path style="fill-rule:nonzero;fill:rgb(100%,100%,100%);fill-opacity:1;stroke-width:28.191782;stroke-linecap:butt;stroke-linejoin:miter;stroke:rgb(96.470588%,27.843139%,27.843139%);stroke-opacity:1;stroke-miterlimit:4;" d="M 81.5 25.0625 L 430.5 25.0625 C 461.6875 25.0625 486.9375 50.3125 486.9375 81.5 L 486.9375 430.5 C 486.9375 461.6875 461.6875 486.9375 430.5 486.9375 L 81.5 486.9375 C 50.3125 486.9375 25.0625 461.6875 25.0625 430.5 L 25.0625 81.5 C 25.0625 50.3125 50.3125 25.0625 81.5 25.0625 Z M 81.5 25.0625 " transform="matrix(0.0625,0,0,0.0625,0,0)"/>
<path style=" stroke:none;fill-rule:nonzero;fill:rgb(95.294118%,25.490198%,25.490198%);fill-opacity:1;" d="M 5.097656 4.332031 C 4.675781 4.332031 4.332031 4.675781 4.332031 5.097656 L 4.332031 26.902344 C 4.332031 27.324219 4.675781 27.667969 5.097656 27.667969 L 26.902344 27.667969 C 27.324219 27.667969 27.667969 27.324219 27.667969 26.902344 L 27.667969 5.097656 C 27.667969 4.675781 27.324219 4.332031 26.902344 4.332031 Z M 5.097656 4.332031 "/>
<path style=" stroke:none;fill-rule:nonzero;fill:rgb(100%,100%,100%);fill-opacity:1;" d="M 20.207031 11.738281 C 19.566406 10.457031 20.246094 9.019531 21.644531 8.710938 C 22.777344 8.460938 23.953125 9.292969 24.105469 10.445312 C 24.167969 10.949219 24.070312 11.414062 23.816406 11.847656 C 21.75 15.4375 19.675781 19.023438 17.613281 22.613281 C 17.230469 23.277344 16.667969 23.683594 15.902344 23.738281 C 15.046875 23.800781 14.371094 23.441406 13.941406 22.699219 C 12.632812 20.449219 11.335938 18.191406 10.035156 15.9375 C 9.246094 14.566406 8.453125 13.199219 7.664062 11.824219 C 6.871094 10.4375 7.765625 8.753906 9.359375 8.671875 C 10.203125 8.628906 10.851562 9.019531 11.277344 9.746094 C 11.863281 10.746094 12.433594 11.746094 13.011719 12.75 C 13.429688 13.46875 13.839844 14.195312 14.265625 14.910156 C 14.886719 15.945312 15.796875 16.527344 17.011719 16.601562 C 18.730469 16.703125 20.324219 15.460938 20.527344 13.636719 C 20.542969 13.503906 20.554688 13.367188 20.5625 13.296875 C 20.550781 12.707031 20.441406 12.207031 20.207031 11.738281 "/>
<path style=" stroke:none;fill-rule:nonzero;fill:rgb(97.254902%,85.882354%,86.274511%);fill-opacity:1;" d="M 10.773438 9.746094 C 11.359375 10.746094 11.933594 11.746094 12.507812 12.75 C 12.925781 13.46875 13.332031 14.195312 13.761719 14.910156 C 14.382812 15.945312 15.292969 16.527344 16.507812 16.601562 C 16.660156 16.609375 16.808594 16.609375 16.957031 16.597656 C 15.769531 16.511719 14.878906 15.929688 14.265625 14.910156 C 13.839844 14.195312 13.429688 13.46875 13.011719 12.75 C 12.433594 11.746094 11.863281 10.746094 11.277344 9.746094 C 10.851562 9.019531 10.203125 8.628906 9.359375 8.671875 C 9.316406 8.675781 9.273438 8.679688 9.230469 8.683594 C 9.894531 8.757812 10.414062 9.128906 10.773438 9.746094 "/>
<path style=" stroke:none;fill-rule:nonzero;fill:rgb(97.254902%,85.882354%,86.274511%);fill-opacity:1;" d="M 24.105469 10.445312 C 23.960938 9.347656 22.886719 8.539062 21.804688 8.683594 C 22.695312 8.800781 23.480469 9.519531 23.601562 10.445312 C 23.667969 10.949219 23.566406 11.414062 23.316406 11.847656 C 21.246094 15.4375 19.175781 19.023438 17.109375 22.613281 C 16.738281 23.257812 16.203125 23.65625 15.472656 23.730469 C 15.613281 23.746094 15.753906 23.75 15.902344 23.738281 C 16.667969 23.683594 17.230469 23.277344 17.613281 22.613281 C 19.675781 19.023438 21.75 15.4375 23.816406 11.847656 C 24.070312 11.414062 24.167969 10.949219 24.105469 10.445312 "/>
</g>
</svg>
