
<svg xmlns="http://www.w3.org/2000/svg" xmlns:xlink="http://www.w3.org/1999/xlink" width="32px" height="32px" viewBox="0 0 32 32" version="1.1">
<defs>
<clipPath id="clip1">
  <path d="M 4.8125 3.332031 L 27.3125 3.332031 L 27.3125 29.1875 L 4.8125 29.1875 Z M 4.8125 3.332031 "/>
</clipPath>
<clipPath id="clip2">
  <path d="M 3.792969 2.644531 L 28.140625 2.644531 C 29.035156 2.644531 29.761719 3.371094 29.761719 4.265625 L 29.761719 27.53125 C 29.761719 28.425781 29.035156 29.152344 28.140625 29.152344 L 3.792969 29.152344 C 2.894531 29.152344 2.167969 28.425781 2.167969 27.53125 L 2.167969 4.265625 C 2.167969 3.371094 2.894531 2.644531 3.792969 2.644531 Z M 3.792969 2.644531 "/>
</clipPath>
<clipPath id="clip3">
  <path d="M 2.125 2.625 L 29.8125 2.625 L 29.8125 29.1875 L 2.125 29.1875 Z M 2.125 2.625 "/>
</clipPath>
<clipPath id="clip4">
  <path d="M 3.792969 2.644531 L 28.140625 2.644531 C 29.035156 2.644531 29.761719 3.371094 29.761719 4.265625 L 29.761719 27.53125 C 29.761719 28.425781 29.035156 29.152344 28.140625 29.152344 L 3.792969 29.152344 C 2.894531 29.152344 2.167969 28.425781 2.167969 27.53125 L 2.167969 4.265625 C 2.167969 3.371094 2.894531 2.644531 3.792969 2.644531 Z M 3.792969 2.644531 "/>
</clipPath>
<clipPath id="clip5">
  <path d="M 16.4375 8.125 L 18.667969 8.125 L 18.667969 11.3125 L 16.4375 11.3125 Z M 16.4375 8.125 "/>
</clipPath>
<clipPath id="clip6">
  <path d="M 3.792969 2.644531 L 28.140625 2.644531 C 29.035156 2.644531 29.761719 3.371094 29.761719 4.265625 L 29.761719 27.53125 C 29.761719 28.425781 29.035156 29.152344 28.140625 29.152344 L 3.792969 29.152344 C 2.894531 29.152344 2.167969 28.425781 2.167969 27.53125 L 2.167969 4.265625 C 2.167969 3.371094 2.894531 2.644531 3.792969 2.644531 Z M 3.792969 2.644531 "/>
</clipPath>
<clipPath id="clip7">
  <path d="M 20.25 8.125 L 22.5 8.125 L 22.5 11.3125 L 20.25 11.3125 Z M 20.25 8.125 "/>
</clipPath>
<clipPath id="clip8">
  <path d="M 3.792969 2.644531 L 28.140625 2.644531 C 29.035156 2.644531 29.761719 3.371094 29.761719 4.265625 L 29.761719 27.53125 C 29.761719 28.425781 29.035156 29.152344 28.140625 29.152344 L 3.792969 29.152344 C 2.894531 29.152344 2.167969 28.425781 2.167969 27.53125 L 2.167969 4.265625 C 2.167969 3.371094 2.894531 2.644531 3.792969 2.644531 Z M 3.792969 2.644531 "/>
</clipPath>
<clipPath id="clip9">
  <path d="M 24.0625 8.0625 L 26.25 8.0625 L 26.25 11.1875 L 24.0625 11.1875 Z M 24.0625 8.0625 "/>
</clipPath>
<clipPath id="clip10">
  <path d="M 3.792969 2.644531 L 28.140625 2.644531 C 29.035156 2.644531 29.761719 3.371094 29.761719 4.265625 L 29.761719 27.53125 C 29.761719 28.425781 29.035156 29.152344 28.140625 29.152344 L 3.792969 29.152344 C 2.894531 29.152344 2.167969 28.425781 2.167969 27.53125 L 2.167969 4.265625 C 2.167969 3.371094 2.894531 2.644531 3.792969 2.644531 Z M 3.792969 2.644531 "/>
</clipPath>
<clipPath id="clip11">
  <path d="M 21.125 6.0625 L 26.3125 6.0625 L 26.3125 7.332031 L 21.125 7.332031 Z M 21.125 6.0625 "/>
</clipPath>
<clipPath id="clip12">
  <path d="M 3.792969 2.644531 L 28.140625 2.644531 C 29.035156 2.644531 29.761719 3.371094 29.761719 4.265625 L 29.761719 27.53125 C 29.761719 28.425781 29.035156 29.152344 28.140625 29.152344 L 3.792969 29.152344 C 2.894531 29.152344 2.167969 28.425781 2.167969 27.53125 L 2.167969 4.265625 C 2.167969 3.371094 2.894531 2.644531 3.792969 2.644531 Z M 3.792969 2.644531 "/>
</clipPath>
<clipPath id="clip13">
  <path d="M 15.375 6.0625 L 20.5625 6.0625 L 20.5625 7.332031 L 15.375 7.332031 Z M 15.375 6.0625 "/>
</clipPath>
<clipPath id="clip14">
  <path d="M 3.792969 2.644531 L 28.140625 2.644531 C 29.035156 2.644531 29.761719 3.371094 29.761719 4.265625 L 29.761719 27.53125 C 29.761719 28.425781 29.035156 29.152344 28.140625 29.152344 L 3.792969 29.152344 C 2.894531 29.152344 2.167969 28.425781 2.167969 27.53125 L 2.167969 4.265625 C 2.167969 3.371094 2.894531 2.644531 3.792969 2.644531 Z M 3.792969 2.644531 "/>
</clipPath>
</defs>
<g id="surface1">
<g clip-path="url(#clip1)" clip-rule="nonzero">
<g clip-path="url(#clip2)" clip-rule="nonzero">
<path style=" stroke:none;fill-rule:evenodd;fill:rgb(100%,100%,100%);fill-opacity:1;" d="M 4.847656 3.355469 L 27.300781 3.355469 L 27.300781 29.304688 L 4.847656 29.304688 Z M 4.847656 3.355469 "/>
</g>
</g>
<g clip-path="url(#clip3)" clip-rule="nonzero">
<g clip-path="url(#clip4)" clip-rule="nonzero">
<path style=" stroke:none;fill-rule:nonzero;fill:rgb(23.921569%,23.921569%,23.921569%);fill-opacity:1;" d="M 3.421875 29.175781 C 2.851562 29.011719 2.277344 28.300781 2.183594 27.648438 C 2.140625 27.347656 2.121094 21.847656 2.144531 15.417969 C 2.179688 3.839844 2.183594 3.730469 2.441406 3.386719 C 2.582031 3.191406 2.855469 2.917969 3.050781 2.777344 C 3.394531 2.519531 3.464844 2.515625 16.050781 2.515625 C 28.636719 2.515625 28.707031 2.519531 29.054688 2.777344 C 29.246094 2.917969 29.519531 3.191406 29.660156 3.386719 C 29.921875 3.730469 29.921875 3.808594 29.921875 15.882812 C 29.921875 27.957031 29.921875 28.035156 29.660156 28.382812 C 29.140625 29.082031 28.808594 29.226562 27.625 29.289062 L 26.519531 29.347656 L 27.148438 28.832031 L 27.214844 13.929688 L 23.175781 13.929688 L 23.175781 23.511719 L 22.292969 23.511719 L 22.292969 26.160156 C 22.292969 28.640625 22.308594 28.824219 22.546875 29.058594 C 22.796875 29.3125 22.796875 29.3125 21.84375 29.3125 L 20.886719 29.3125 L 21.148438 28.980469 C 21.394531 28.667969 21.410156 28.488281 21.410156 26.082031 L 21.410156 23.511719 L 20.402344 23.511719 L 20.402344 13.929688 L 17.375 13.929688 L 17.375 23.511719 L 16.492188 23.511719 L 16.492188 26.121094 C 16.492188 28.625 16.503906 28.738281 16.765625 29.019531 L 17.042969 29.3125 L 15.0625 29.3125 L 15.335938 29.019531 C 15.597656 28.738281 15.609375 28.625 15.609375 26.121094 L 15.609375 23.511719 L 14.726562 23.511719 L 14.726562 13.929688 L 11.699219 13.929688 L 11.699219 23.511719 L 10.691406 23.511719 L 10.691406 26.082031 C 10.691406 28.488281 10.707031 28.667969 10.953125 28.980469 L 11.214844 29.3125 L 10.261719 29.3125 C 9.304688 29.3125 9.269531 29.421875 9.519531 29.167969 C 9.757812 28.933594 9.808594 28.640625 9.808594 26.160156 L 9.808594 23.511719 L 8.925781 23.511719 L 8.925781 13.929688 L 5.902344 13.929688 L 5.902344 21.289062 C 5.902344 28.542969 5.902344 28.652344 6.160156 28.980469 L 6.421875 29.3125 L 5.121094 29.300781 C 4.40625 29.292969 3.640625 29.238281 3.421875 29.175781 Z M 10.214844 11.828125 C 11.066406 11.558594 11.960938 10.707031 12.390625 9.753906 C 12.699219 9.066406 12.734375 8.863281 12.683594 8.011719 C 12.597656 6.496094 11.898438 5.421875 10.53125 4.691406 C 10.089844 4.457031 9.800781 4.410156 8.863281 4.410156 C 7.878906 4.410156 7.644531 4.453125 7.089844 4.746094 C 5.757812 5.445312 4.988281 6.703125 4.980469 8.195312 C 4.96875 10.109375 6.304688 11.722656 8.160156 12.035156 C 8.828125 12.148438 9.378906 12.089844 10.214844 11.828125 Z M 7.839844 9.210938 C 7.484375 8.855469 7.414062 8.691406 7.414062 8.230469 C 7.414062 7.601562 7.644531 7.199219 8.171875 6.929688 C 9.457031 6.261719 10.792969 7.597656 10.125 8.882812 C 9.855469 9.410156 9.453125 9.640625 8.824219 9.640625 C 8.363281 9.640625 8.199219 9.570312 7.839844 9.210938 Z M 18.449219 9.640625 L 18.449219 8.191406 L 16.554688 8.191406 L 16.519531 9.503906 C 16.5 10.230469 16.511719 10.898438 16.550781 10.992188 C 16.597656 11.121094 16.847656 11.15625 17.53125 11.128906 L 18.449219 11.089844 Z M 22.292969 9.640625 L 22.292969 8.128906 L 20.402344 8.128906 L 20.402344 11.152344 L 22.292969 11.152344 Z M 26.203125 9.640625 L 26.203125 8.128906 L 24.183594 8.128906 L 24.183594 11.152344 L 26.203125 11.152344 Z M 20.402344 6.738281 L 20.402344 6.238281 L 16.492188 6.238281 L 16.492188 7.246094 L 20.402344 7.246094 Z M 26.203125 6.738281 L 26.203125 6.238281 L 21.285156 6.238281 L 21.285156 7.246094 L 26.203125 7.246094 Z M 26.203125 6.738281 "/>
</g>
</g>
<g clip-path="url(#clip5)" clip-rule="nonzero">
<g clip-path="url(#clip6)" clip-rule="nonzero">
<path style=" stroke:none;fill-rule:evenodd;fill:rgb(100%,0%,0%);fill-opacity:1;" d="M 16.472656 8.136719 L 18.644531 8.136719 L 18.644531 11.253906 L 16.472656 11.253906 Z M 16.472656 8.136719 "/>
</g>
</g>
<g clip-path="url(#clip7)" clip-rule="nonzero">
<g clip-path="url(#clip8)" clip-rule="nonzero">
<path style=" stroke:none;fill-rule:evenodd;fill:rgb(0%,50.196081%,0%);fill-opacity:1;" d="M 20.269531 8.136719 L 22.441406 8.136719 L 22.441406 11.253906 L 20.269531 11.253906 Z M 20.269531 8.136719 "/>
</g>
</g>
<g clip-path="url(#clip9)" clip-rule="nonzero">
<g clip-path="url(#clip10)" clip-rule="nonzero">
<path style=" stroke:none;fill-rule:evenodd;fill:rgb(50.196081%,0%,50.196081%);fill-opacity:1;" d="M 24.066406 8.066406 L 26.238281 8.066406 L 26.238281 11.1875 L 24.066406 11.1875 Z M 24.066406 8.066406 "/>
</g>
</g>
<g clip-path="url(#clip11)" clip-rule="nonzero">
<g clip-path="url(#clip12)" clip-rule="nonzero">
<path style=" stroke:none;fill-rule:evenodd;fill:rgb(100%,100%,100%);fill-opacity:1;" d="M 21.152344 6.101562 L 26.304688 6.101562 L 26.304688 7.324219 L 21.152344 7.324219 Z M 21.152344 6.101562 "/>
</g>
</g>
<g clip-path="url(#clip13)" clip-rule="nonzero">
<g clip-path="url(#clip14)" clip-rule="nonzero">
<path style=" stroke:none;fill-rule:evenodd;fill:rgb(100%,100%,100%);fill-opacity:1;" d="M 15.390625 6.101562 L 20.542969 6.101562 L 20.542969 7.324219 L 15.390625 7.324219 Z M 15.390625 6.101562 "/>
</g>
</g>
</g>
</svg>
