
<svg xmlns="http://www.w3.org/2000/svg" xmlns:xlink="http://www.w3.org/1999/xlink" width="32px" height="32px" viewBox="0 0 32 32" version="1.1">
<g id="surface1">
<path style="fill-rule:nonzero;fill:rgb(100%,100%,100%);fill-opacity:1;stroke-width:2.553895;stroke-linecap:butt;stroke-linejoin:miter;stroke:rgb(94.901961%,60.784316%,9.803922%);stroke-opacity:1;stroke-miterlimit:4;" d="M 8.4375 3.316406 L 40.054688 3.316406 C 42.878906 3.316406 45.164062 5.601562 45.164062 8.419922 L 45.164062 40.042969 C 45.164062 42.861328 42.878906 45.152344 40.054688 45.152344 L 8.4375 45.152344 C 5.619141 45.152344 3.328125 42.861328 3.328125 40.042969 L 3.328125 8.419922 C 3.328125 5.601562 5.619141 3.316406 8.4375 3.316406 Z M 8.4375 3.316406 " transform="matrix(0.666667,0,0,0.666667,0,0)"/>
<path style=" stroke:none;fill-rule:evenodd;fill:rgb(94.901961%,60.784316%,9.803922%);fill-opacity:1;" d="M 16.101562 3.894531 C 15.734375 3.921875 15.300781 3.976562 14.890625 4.140625 C 14.480469 4.300781 14.074219 4.582031 13.867188 5.027344 C 13.863281 5.042969 13.859375 5.058594 13.855469 5.074219 C 13.363281 6.832031 12.777344 8.5625 12.292969 10.351562 C 12.289062 10.355469 12.292969 10.355469 12.292969 10.363281 C 11.777344 12.113281 11.273438 13.875 10.734375 15.605469 C 10.730469 15.613281 10.726562 15.621094 10.722656 15.628906 C 10.488281 16.269531 10.304688 16.917969 10.101562 17.550781 C 9.925781 17.550781 9.738281 17.542969 9.503906 17.539062 C 9.183594 17.535156 8.796875 17.578125 8.480469 17.847656 C 8.453125 17.875 8.429688 17.90625 8.414062 17.9375 C 7.984375 18.65625 7.78125 19.441406 7.480469 20.105469 C 7.480469 20.109375 7.480469 20.113281 7.480469 20.113281 C 6.789062 21.867188 6.066406 23.628906 5.390625 25.394531 C 5.375 25.433594 5.367188 25.480469 5.371094 25.527344 C 5.386719 26.085938 5.246094 26.769531 5.457031 27.472656 C 5.464844 27.503906 5.476562 27.53125 5.492188 27.558594 C 5.75 27.972656 6.207031 28.09375 6.570312 28.105469 C 6.933594 28.113281 7.269531 28.054688 7.480469 28.082031 C 7.496094 28.082031 7.511719 28.082031 7.523438 28.082031 C 13.574219 28.074219 19.628906 28.097656 25.675781 28.070312 C 25.691406 28.070312 25.699219 28.070312 25.710938 28.070312 C 26.15625 28.03125 26.464844 27.699219 26.578125 27.371094 C 26.683594 27.0625 26.667969 26.753906 26.644531 26.492188 C 26.644531 26.480469 26.644531 26.460938 26.644531 26.449219 C 26.644531 26.445312 26.644531 26.441406 26.644531 26.4375 C 26.671875 25.875 26.65625 25.269531 26.355469 24.691406 C 26.351562 24.679688 26.347656 24.660156 26.34375 24.648438 C 25.496094 22.480469 24.660156 20.292969 23.800781 18.128906 C 23.792969 18.105469 23.78125 18.082031 23.769531 18.058594 C 23.488281 17.671875 23.039062 17.5625 22.679688 17.550781 C 22.410156 17.542969 22.195312 17.558594 21.988281 17.558594 C 21.351562 15.292969 20.746094 13.023438 20.121094 10.75 C 20.121094 10.746094 20.121094 10.742188 20.121094 10.738281 C 19.550781 8.832031 19.078125 6.921875 18.5 4.996094 C 18.488281 4.949219 18.472656 4.910156 18.445312 4.871094 C 17.878906 4.167969 16.917969 3.929688 16.136719 3.894531 C 16.121094 3.894531 16.113281 3.894531 16.101562 3.894531 Z M 16.101562 3.894531 "/>
<path style=" stroke:none;fill-rule:evenodd;fill:rgb(100%,100%,100%);fill-opacity:1;" d="M 14.015625 10.273438 C 14.015625 10.273438 14.558594 11.027344 16.121094 11.050781 C 17.449219 11.070312 18.339844 10.433594 18.339844 10.433594 L 19.429688 14.265625 C 19.429688 14.265625 17.464844 15.257812 16.054688 15.214844 C 14.160156 15.15625 12.898438 14.136719 12.898438 14.136719 Z M 14.015625 10.273438 "/>
<path style=" stroke:none;fill-rule:evenodd;fill:rgb(100%,100%,100%);fill-opacity:1;" d="M 11.707031 17.347656 C 11.707031 17.347656 13.679688 18.660156 16.296875 18.707031 C 18.179688 18.738281 20.570312 17.511719 20.570312 17.511719 L 21.535156 21.011719 C 21.535156 21.011719 19.816406 22.886719 16.191406 22.871094 C 12.878906 22.855469 10.660156 20.675781 10.660156 20.675781 Z M 11.707031 17.347656 "/>
</g>
</svg>
