
<svg xmlns="http://www.w3.org/2000/svg" xmlns:xlink="http://www.w3.org/1999/xlink" width="32px" height="32px" viewBox="0 0 32 32" version="1.1">
<g id="surface1">
<path style="fill-rule:nonzero;fill:rgb(100%,100%,100%);fill-opacity:1;stroke-width:55.072239;stroke-linecap:butt;stroke-linejoin:miter;stroke:rgb(41.960785%,60.784316%,84.705883%);stroke-opacity:1;stroke-miterlimit:4;" d="M 171.125 60.875 L 852.875 60.875 C 913.75 60.875 963.125 110.25 963.125 171.125 L 963.125 852.875 C 963.125 913.75 913.75 963.125 852.875 963.125 L 171.125 963.125 C 110.25 963.125 60.875 913.75 60.875 852.875 L 60.875 171.125 C 60.875 110.25 110.25 60.875 171.125 60.875 Z M 171.125 60.875 " transform="matrix(0.03125,0,0,0.03125,0,0)"/>
<path style="fill:none;stroke-width:90.158714;stroke-linecap:butt;stroke-linejoin:miter;stroke:rgb(41.960785%,60.784316%,84.705883%);stroke-opacity:1;stroke-miterlimit:4;" d="M 225.25 213.5 C 219.125 213.5 214.125 218.5 214.125 224.625 L 214.125 625.125 C 214.125 631.25 219.125 636.25 225.25 636.25 L 501.375 636.25 L 456.75 590.125 L 266.375 590.125 C 260.25 590.125 255.375 585.125 255.375 579 L 255.375 269.375 C 255.375 263.375 260.25 258.375 266.375 258.375 L 572.875 258.375 C 579 258.375 583.875 263.375 583.875 269.375 L 583.875 453.125 L 628 498.625 L 628 224.625 C 628 218.5 623.125 213.5 616.875 213.5 Z M 225.25 213.5 " transform="matrix(0.03125,0,0,0.03125,0,0)"/>
<path style="fill:none;stroke-width:90.158714;stroke-linecap:butt;stroke-linejoin:miter;stroke:rgb(76.862746%,18.431373%,25.490198%);stroke-opacity:1;stroke-miterlimit:4;" d="M 801.625 815.5 C 807.875 815.5 812.75 810.625 812.75 804.375 L 812.75 403.875 C 812.75 397.75 807.875 392.875 801.625 392.875 L 525.625 392.875 L 570.25 438.875 L 760.5 438.875 C 766.625 438.875 771.625 443.875 771.625 450 L 771.625 759.625 C 771.625 765.75 766.625 770.625 760.5 770.625 L 454.125 770.625 C 447.875 770.625 443 765.75 443 759.625 L 443 575.875 L 398.875 530.375 L 398.875 804.375 C 398.875 810.625 403.875 815.5 410 815.5 Z M 801.625 815.5 " transform="matrix(0.03125,0,0,0.03125,0,0)"/>
<path style=" stroke:none;fill-rule:nonzero;fill:rgb(76.862746%,18.431373%,25.490198%);fill-opacity:1;" d="M 11.992188 17.027344 L 14.316406 17.027344 C 14.832031 17.027344 15.253906 17.445312 15.253906 17.960938 L 15.253906 20.347656 C 15.253906 20.863281 14.832031 21.277344 14.316406 21.277344 L 11.992188 21.277344 C 11.476562 21.277344 11.058594 20.863281 11.058594 20.347656 L 11.058594 17.960938 C 11.058594 17.445312 11.476562 17.027344 11.992188 17.027344 Z M 11.992188 17.027344 "/>
<path style=" stroke:none;fill-rule:nonzero;fill:rgb(41.960785%,60.784316%,84.705883%);fill-opacity:1;" d="M 16.847656 10.484375 L 21.039062 10.484375 L 21.039062 14.738281 L 16.847656 14.738281 Z M 16.847656 10.484375 "/>
<path style=" stroke:none;fill-rule:nonzero;fill:rgb(41.960785%,60.784316%,84.705883%);fill-opacity:1;" d="M 18.242188 13.390625 L 19.566406 14.765625 L 18.175781 16.113281 L 16.847656 14.738281 Z M 18.242188 13.390625 "/>
<path style=" stroke:none;fill-rule:nonzero;fill:rgb(41.960785%,60.784316%,84.705883%);fill-opacity:1;" d="M 18.925781 14.675781 L 21.039062 14.675781 L 21.039062 15.214844 L 18.925781 15.214844 Z M 18.925781 14.675781 "/>
</g>
</svg>
