
<svg xmlns="http://www.w3.org/2000/svg" xmlns:xlink="http://www.w3.org/1999/xlink" width="32px" height="32px" viewBox="0 0 32 32" version="1.1">
<g id="surface1">
<path style="fill-rule:nonzero;fill:rgb(20%,27.843139%,36.078432%);fill-opacity:1;stroke-width:27.936705;stroke-linecap:butt;stroke-linejoin:miter;stroke:rgb(20%,27.843139%,36.078432%);stroke-opacity:1;stroke-miterlimit:4;" d="M 83.0625 27.1875 L 428.9375 27.1875 C 459.8125 27.1875 484.8125 52.1875 484.8125 83.0625 L 484.8125 428.9375 C 484.8125 459.8125 459.8125 484.8125 428.9375 484.8125 L 83.0625 484.8125 C 52.1875 484.8125 27.1875 459.8125 27.1875 428.9375 L 27.1875 83.0625 C 27.1875 52.1875 52.1875 27.1875 83.0625 27.1875 Z M 83.0625 27.1875 " transform="matrix(0.0625,0,0,0.0625,0,0)"/>
<path style=" stroke:none;fill-rule:nonzero;fill:rgb(20%,59.215689%,85.09804%);fill-opacity:1;" d="M 5.601562 2.242188 C 3.746094 2.242188 2.242188 3.746094 2.242188 5.601562 L 2.242188 26.398438 C 2.242188 26.515625 2.246094 26.628906 2.257812 26.742188 C 2.269531 26.855469 2.285156 26.964844 2.308594 27.074219 C 2.332031 27.183594 2.359375 27.292969 2.394531 27.398438 C 2.554688 27.925781 2.847656 28.394531 3.226562 28.773438 C 3.300781 28.851562 3.378906 28.921875 3.464844 28.992188 C 3.546875 29.058594 3.632812 29.125 3.722656 29.183594 C 3.777344 29.222656 3.835938 29.253906 3.894531 29.289062 C 4.023438 29.363281 4.152344 29.433594 4.292969 29.496094 C 4.394531 29.535156 4.496094 29.574219 4.601562 29.605469 C 4.707031 29.640625 4.816406 29.667969 4.925781 29.691406 C 5.035156 29.714844 5.144531 29.730469 5.257812 29.742188 C 5.371094 29.753906 5.484375 29.757812 5.601562 29.757812 L 26.398438 29.757812 C 26.515625 29.757812 26.628906 29.753906 26.742188 29.742188 C 26.855469 29.730469 26.964844 29.714844 27.074219 29.691406 C 27.183594 29.667969 27.292969 29.640625 27.398438 29.605469 C 28.175781 29.367188 28.824219 28.847656 29.246094 28.171875 C 29.285156 28.113281 29.324219 28.054688 29.355469 27.996094 C 29.414062 27.886719 29.464844 27.777344 29.511719 27.664062 C 29.527344 27.628906 29.535156 27.589844 29.550781 27.550781 C 29.582031 27.472656 29.609375 27.386719 29.632812 27.304688 C 29.644531 27.261719 29.65625 27.214844 29.667969 27.171875 C 29.683594 27.085938 29.703125 27 29.714844 26.910156 C 29.722656 26.871094 29.730469 26.832031 29.734375 26.789062 C 29.746094 26.664062 29.757812 26.535156 29.757812 26.40625 C 29.757812 26.402344 29.757812 26.402344 29.757812 26.398438 L 29.757812 11.769531 L 20.230469 2.242188 Z M 5.601562 2.242188 "/>
<path style=" stroke:none;fill-rule:nonzero;fill:rgb(100%,100%,100%);fill-opacity:1;" d="M 29.757812 11.769531 L 20.230469 2.242188 L 20.230469 8.410156 C 20.230469 10.265625 21.734375 11.769531 23.589844 11.769531 Z M 29.757812 11.769531 "/>
</g>
</svg>
