
<svg xmlns="http://www.w3.org/2000/svg" xmlns:xlink="http://www.w3.org/1999/xlink" width="32px" height="32px" viewBox="0 0 32 32" version="1.1">
<g id="surface1">
<path style="fill-rule:nonzero;fill:rgb(100%,100%,100%);fill-opacity:1;stroke-width:28.216997;stroke-linecap:butt;stroke-linejoin:miter;stroke:rgb(50.196081%,50.196081%,50.196081%);stroke-opacity:1;stroke-miterlimit:4;" d="M 81.3125 24.875 L 430.6875 24.875 C 461.8125 24.875 487.125 50.1875 487.125 81.3125 L 487.125 430.6875 C 487.125 461.8125 461.8125 487.125 430.6875 487.125 L 81.3125 487.125 C 50.1875 487.125 24.875 461.8125 24.875 430.6875 L 24.875 81.3125 C 24.875 50.1875 50.1875 24.875 81.3125 24.875 Z M 81.3125 24.875 " transform="matrix(0.0625,0,0,0.0625,0,0)"/>
<path style=" stroke:none;fill-rule:evenodd;fill:rgb(50.196081%,50.196081%,50.196081%);fill-opacity:1;" d="M 14.046875 25.261719 L 10.925781 27.308594 L 21.070312 27.308594 L 17.949219 25.261719 Z M 14.046875 25.261719 "/>
<path style=" stroke:none;fill-rule:evenodd;fill:rgb(50.196081%,50.196081%,50.196081%);fill-opacity:1;" d="M 14.046875 24.640625 L 10.925781 26.6875 L 21.070312 26.6875 L 17.949219 24.640625 Z M 14.046875 24.640625 "/>
<path style=" stroke:none;fill-rule:nonzero;fill:rgb(30.19608%,30.19608%,30.19608%);fill-opacity:1;" d="M 13.828125 20.878906 L 18.171875 20.878906 L 18.171875 25.710938 L 13.828125 25.710938 Z M 13.828125 20.878906 "/>
<path style=" stroke:none;fill-rule:nonzero;fill:rgb(50.196081%,50.196081%,50.196081%);fill-opacity:1;" d="M 5.226562 4.691406 L 26.773438 4.691406 C 27.527344 4.691406 28.140625 5.277344 28.140625 5.996094 L 28.140625 21.085938 C 28.140625 21.808594 27.527344 22.390625 26.773438 22.390625 L 5.226562 22.390625 C 4.472656 22.390625 3.859375 21.808594 3.859375 21.085938 L 3.859375 5.996094 C 3.859375 5.277344 4.472656 4.691406 5.226562 4.691406 Z M 5.226562 4.691406 "/>
<path style=" stroke:none;fill-rule:nonzero;fill:rgb(0%,66.666669%,83.137256%);fill-opacity:1;" d="M 6.132812 6.347656 L 25.867188 6.347656 L 25.867188 20.734375 L 6.132812 20.734375 Z M 6.132812 6.347656 "/>
<path style=" stroke:none;fill-rule:evenodd;fill:rgb(0%,0%,0%);fill-opacity:1;" d="M 10.925781 26.6875 L 10.925781 27.308594 L 21.074219 27.308594 L 21.074219 26.6875 Z M 10.925781 26.6875 "/>
<path style=" stroke:none;fill-rule:nonzero;fill:rgb(100%,100%,100%);fill-opacity:1;" d="M 18.128906 18.152344 L 17.011719 18.152344 L 17.011719 19.339844 L 18.128906 19.339844 Z M 16.453125 18.152344 L 15.335938 18.152344 L 15.335938 19.339844 L 16.453125 19.339844 Z M 14.777344 18.152344 L 13.660156 18.152344 L 13.660156 19.339844 L 14.777344 19.339844 Z M 14.777344 18.152344 "/>
<path style=" stroke:none;fill-rule:evenodd;fill:rgb(20%,20%,20%);fill-opacity:1;" d="M 6.074219 6.382812 L 6.074219 7.511719 L 25.8125 7.511719 L 25.8125 6.382812 Z M 6.074219 6.382812 "/>
<path style=" stroke:none;fill-rule:evenodd;fill:rgb(100%,100%,100%);fill-opacity:1;" d="M 9.265625 17.105469 L 23.289062 17.105469 L 19.535156 9.796875 L 17.265625 14.636719 L 15.089844 11.476562 Z M 9.265625 17.105469 "/>
<path style=" stroke:none;fill-rule:nonzero;fill:rgb(100%,100%,100%);fill-opacity:1;" d="M 12.425781 10.785156 C 12.425781 11.765625 11.628906 12.5625 10.648438 12.5625 C 9.667969 12.5625 8.871094 11.765625 8.871094 10.785156 C 8.871094 9.800781 9.667969 9.007812 10.648438 9.007812 C 11.628906 9.007812 12.425781 9.800781 12.425781 10.785156 Z M 12.425781 10.785156 "/>
</g>
</svg>
