
<svg xmlns="http://www.w3.org/2000/svg" xmlns:xlink="http://www.w3.org/1999/xlink" width="32px" height="32px" viewBox="0 0 32 32" version="1.1">
<g id="surface1">
<path style="fill-rule:nonzero;fill:rgb(31.764707%,72.549021%,76.47059%);fill-opacity:1;stroke-width:28.191782;stroke-linecap:butt;stroke-linejoin:miter;stroke:rgb(11.764706%,51.764709%,55.686277%);stroke-opacity:1;stroke-miterlimit:4;" d="M 81.5 25.0625 L 430.5 25.0625 C 461.6875 25.0625 486.9375 50.3125 486.9375 81.5 L 486.9375 430.5 C 486.9375 461.6875 461.6875 486.9375 430.5 486.9375 L 81.5 486.9375 C 50.3125 486.9375 25.0625 461.6875 25.0625 430.5 L 25.0625 81.5 C 25.0625 50.3125 50.3125 25.0625 81.5 25.0625 Z M 81.5 25.0625 " transform="matrix(0.0625,0,0,0.0625,0,0)"/>
<path style="fill-rule:nonzero;fill:rgb(100%,100%,100%);fill-opacity:1;stroke-width:1.427982;stroke-linecap:butt;stroke-linejoin:miter;stroke:rgb(100%,100%,100%);stroke-opacity:1;stroke-miterlimit:4;" d="M 256.125 153.4375 C 255.875 153.4375 253.6875 161.4375 251.3125 171.1875 C 246.5 190.6875 245.0625 195.8125 244.25 197 C 243.9375 197.375 241.875 198.4375 239.6875 199.1875 C 231.9375 202 223.4375 206.5625 219.375 210.125 C 209.9375 218.25 204.0625 226.8125 200.125 237.9375 C 198.8125 241.625 197.6875 244.75 197.5625 244.875 C 197.375 245.125 194 245.9375 165.0625 252.8125 C 158.625 254.3125 153.625 255.8125 153.9375 256.0625 C 154.4375 256.5625 164.4375 259 189.3125 264.9375 C 197.5625 266.875 197.125 266.5 200.1875 274.5 C 202.0625 279.5625 204.9375 285.4375 206.3125 286.9375 C 206.875 287.625 207.4375 288.125 207.5 288.125 C 207.625 288.125 209.5 285.625 211.6875 282.5625 L 215.6875 277.0625 L 213.5625 270.625 C 211.6875 264.8125 211.4375 263.5625 211.4375 256.0625 C 211.4375 246.625 212.3125 243 216.5 234.8125 C 221.4375 225.3125 231.8125 216.5 242.4375 212.875 C 248.875 210.6875 259.9375 210.375 267.5625 212.1875 L 273.3125 213.5625 L 276.6875 210.6875 C 282.4375 205.8125 283.75 204.4375 283.3125 203.8125 C 283.125 203.4375 279.8125 201.9375 275.9375 200.5 C 272.0625 199 268.4375 197.4375 267.9375 197 C 267 196.3125 265.1875 189.5625 257.3125 156.1875 C 256.9375 154.6875 256.4375 153.4375 256.125 153.4375 Z M 306.3125 225.0625 L 304.75 227 C 303.9375 228.0625 301.875 230.625 300.25 232.6875 L 297.3125 236.4375 L 299 241.9375 C 304.25 259.1875 299.8125 276.1875 286.75 288.5625 C 281.8125 293.25 274.1875 297.6875 268.5625 299.1875 C 261.1875 301.1875 247.3125 301.0625 242 298.9375 C 239.5625 297.9375 239.125 297.9375 237.4375 298.8125 C 234.4375 300.4375 227.8125 306.75 228.3125 307.5625 C 228.5625 307.9375 232.1875 309.6875 236.5 311.3125 C 243 313.8125 244.375 314.625 244.9375 316.125 C 245.375 317.0625 247.75 326.875 250.3125 337.8125 C 252.8125 348.8125 255.125 358.5 255.3125 359.4375 C 255.8125 361.375 255.1875 363.625 262.0625 336 C 264.8125 324.75 267.5 315.125 268 314.6875 C 268.5 314.1875 270.8125 313.125 273.1875 312.3125 C 279.5625 310.0625 286.75 306.3125 291.1875 302.9375 C 299.6875 296.5625 307.4375 286.5 310.8125 277.5 C 313.875 269.3125 314.875 267.3125 316.125 266.9375 C 316.8125 266.75 326.5625 264.375 337.875 261.6875 C 349.1875 258.9375 358.6875 256.5 359 256.1875 C 359.3125 255.9375 349.75 253.3125 337.8125 250.4375 C 323.5625 247.0625 315.75 244.9375 315.125 244.1875 C 314.625 243.625 312.9375 239.875 311.4375 235.9375 C 309.9375 231.9375 308.1875 227.875 307.5 226.875 Z M 306.3125 225.0625 " transform="matrix(0.0625,0,0,0.0625,0,0)"/>
<path style="fill-rule:nonzero;fill:rgb(93.725491%,93.725491%,93.725491%);fill-opacity:1;stroke-width:1.903976;stroke-linecap:butt;stroke-linejoin:miter;stroke:rgb(84.313726%,84.313726%,84.313726%);stroke-opacity:1;stroke-miterlimit:4;" d="M 235.5625 237.5625 L 152.0625 359.1875 L 273.5625 276.625 Z M 235.5625 237.5625 " transform="matrix(0.0625,0,0,0.0625,0,0)"/>
<path style="fill-rule:nonzero;fill:rgb(96.470588%,27.843139%,27.843139%);fill-opacity:0.996078;stroke-width:1.903976;stroke-linecap:butt;stroke-linejoin:miter;stroke:rgb(87.058824%,24.313726%,24.313726%);stroke-opacity:1;stroke-miterlimit:4;" d="M 274.75 275.4375 L 358.25 153.875 L 236.8125 236.375 Z M 274.75 275.4375 " transform="matrix(0.0625,0,0,0.0625,0,0)"/>
</g>
</svg>
