
<svg xmlns="http://www.w3.org/2000/svg" xmlns:xlink="http://www.w3.org/1999/xlink" width="32px" height="32px" viewBox="0 0 32 32" version="1.1">
<g id="surface1">
<path style="fill-rule:nonzero;fill:rgb(100%,100%,100%);fill-opacity:1;stroke-width:11.089861;stroke-linecap:butt;stroke-linejoin:miter;stroke:rgb(6.666667%,20.392157%,31.37255%);stroke-opacity:1;stroke-miterlimit:4;" d="M 31.347657 9.155274 L 168.652348 9.155274 C 180.908207 9.155274 190.844731 19.091797 190.844731 31.347657 L 190.844731 168.652348 C 190.844731 180.908207 180.908207 190.844731 168.652348 190.844731 L 31.347657 190.844731 C 19.091797 190.844731 9.155274 180.908207 9.155274 168.652348 L 9.155274 31.347657 C 9.155274 19.091797 19.091797 9.155274 31.347657 9.155274 Z M 31.347657 9.155274 " transform="matrix(0.16,0,0,0.16,0,0)"/>
<path style=" stroke:none;fill-rule:nonzero;fill:rgb(0.392157%,50.196081%,70.980394%);fill-opacity:1;" d="M 8.121094 26.691406 C 8.082031 26.570312 7.121094 21.910156 5.980469 16.332031 C 4.839844 10.757812 3.867188 6.019531 3.816406 5.796875 C 3.722656 5.398438 3.726562 5.398438 6.042969 5.398438 C 7.316406 5.398438 8.40625 5.46875 8.457031 5.554688 C 8.511719 5.640625 8.914062 7.574219 9.351562 9.847656 C 9.789062 12.125 10.226562 14.070312 10.324219 14.167969 C 10.589844 14.429688 10.726562 13.957031 11.664062 9.574219 C 12.125 7.425781 12.5625 5.601562 12.636719 5.523438 C 12.710938 5.449219 13.640625 5.410156 14.707031 5.433594 L 16.644531 5.488281 L 17.535156 9.933594 C 17.894531 11.714844 17.910156 12.96875 18.183594 13.925781 C 18.730469 15.851562 19.554688 16.589844 20.980469 18.0625 C 22.367188 19.503906 22.242188 19.855469 22.3125 20.632812 C 22.417969 21.765625 22.257812 22.308594 20.042969 24.878906 L 18.28125 26.929688 L 17.308594 26.878906 L 16.335938 26.824219 L 15.5 22.601562 C 15.039062 20.277344 14.609375 18.324219 14.542969 18.253906 C 14.277344 17.988281 14.070312 18.632812 13.265625 22.292969 C 12.800781 24.394531 12.355469 26.292969 12.273438 26.511719 C 12.132812 26.894531 12.035156 26.914062 10.160156 26.914062 C 8.746094 26.914062 8.175781 26.851562 8.121094 26.691406 Z M 8.121094 26.691406 "/>
<path style=" stroke:none;fill-rule:nonzero;fill:rgb(94.901961%,56.078434%,4.313726%);fill-opacity:1;" d="M 19.398438 26.761719 C 19.347656 26.675781 19.511719 26.417969 19.761719 26.183594 C 20.582031 25.421875 22.363281 23.109375 22.699219 22.378906 C 23.058594 21.585938 23.128906 20.085938 22.839844 19.324219 C 22.734375 19.046875 22.066406 18.222656 21.355469 17.488281 C 19.050781 15.113281 18.480469 13.808594 18.625 11.253906 C 18.726562 9.472656 19.3125 7.980469 20.554688 6.332031 L 21.261719 5.398438 L 24.277344 5.398438 C 25.9375 5.398438 27.296875 5.464844 27.296875 5.550781 C 27.296875 5.628906 26.746094 6.324219 26.070312 7.089844 C 25.394531 7.855469 24.578125 8.917969 24.253906 9.453125 C 23.746094 10.296875 23.667969 10.582031 23.667969 11.601562 C 23.671875 12.246094 23.777344 12.972656 23.910156 13.214844 C 24.039062 13.453125 24.847656 14.386719 25.699219 15.28125 C 27.351562 17.015625 27.925781 18.085938 28.132812 19.820312 C 28.339844 21.570312 27.558594 24.023438 26.097656 26.230469 L 25.648438 26.914062 L 22.570312 26.914062 C 20.878906 26.914062 19.449219 26.847656 19.398438 26.761719 Z M 19.398438 26.761719 "/>
</g>
</svg>
