
<svg xmlns="http://www.w3.org/2000/svg" xmlns:xlink="http://www.w3.org/1999/xlink" width="32px" height="32px" viewBox="0 0 32 32" version="1.1">
<g id="surface1">
<path style="fill-rule:nonzero;fill:rgb(74.117649%,76.078433%,78.039217%);fill-opacity:1;stroke-width:20.298223;stroke-linecap:butt;stroke-linejoin:miter;stroke:rgb(29.019609%,68.235296%,90.196079%);stroke-opacity:1;stroke-miterlimit:4;" d="M 117.30737 102.771681 L 368.657488 102.771681 C 391.068236 102.771681 409.245332 120.966599 409.245332 143.345879 L 409.245332 394.689635 C 409.245332 417.068915 391.068236 435.263833 368.657488 435.263833 L 117.30737 435.263833 C 94.896621 435.263833 76.719525 417.068915 76.719525 394.689635 L 76.719525 143.345879 C 76.719525 120.966599 94.896621 102.771681 117.30737 102.771681 Z M 117.30737 102.771681 " transform="matrix(0.0848853,0,0,0.0830847,-4.625643,-6.351251)"/>
<path style=" stroke:none;fill-rule:nonzero;fill:rgb(15.686275%,49.803922%,72.156864%);fill-opacity:1;" d="M 16.609375 4.316406 L 16.609375 15.402344 L 27.933594 15.402344 L 27.933594 7.027344 C 27.933594 5.53125 26.699219 4.316406 25.167969 4.316406 Z M 16.609375 4.316406 "/>
<path style=" stroke:none;fill-rule:nonzero;fill:rgb(15.686275%,49.803922%,72.156864%);fill-opacity:1;" d="M 15.390625 27.683594 L 15.390625 16.597656 L 4.066406 16.597656 L 4.066406 24.972656 C 4.066406 26.46875 5.300781 27.683594 6.832031 27.683594 Z M 15.390625 27.683594 "/>
<path style=" stroke:none;fill-rule:nonzero;fill:rgb(54.901963%,25.882354%,67.058825%);fill-opacity:1;" d="M 4.066406 15.402344 L 15.390625 15.402344 L 15.390625 4.316406 L 6.832031 4.316406 C 5.300781 4.316406 4.066406 5.53125 4.066406 7.027344 Z M 4.066406 15.402344 "/>
<path style=" stroke:none;fill-rule:nonzero;fill:rgb(54.901963%,25.882354%,67.058825%);fill-opacity:1;" d="M 27.933594 16.597656 L 16.609375 16.597656 L 16.609375 27.683594 L 25.167969 27.683594 C 26.699219 27.683594 27.933594 26.46875 27.933594 24.972656 Z M 27.933594 16.597656 "/>
</g>
</svg>
