
<svg xmlns="http://www.w3.org/2000/svg" xmlns:xlink="http://www.w3.org/1999/xlink" width="32px" height="32px" viewBox="0 0 32 32" version="1.1">
<g id="surface1">
<path style="fill-rule:nonzero;fill:rgb(96.078432%,96.078432%,96.078432%);fill-opacity:1;stroke-width:28.097435;stroke-linecap:butt;stroke-linejoin:miter;stroke:rgb(60.000002%,60.000002%,60.000002%);stroke-opacity:1;stroke-miterlimit:4;" d="M 82.0625 25.875 L 429.9375 25.875 C 460.9375 25.875 486.125 51.0625 486.125 82.0625 L 486.125 429.9375 C 486.125 460.9375 460.9375 486.125 429.9375 486.125 L 82.0625 486.125 C 51.0625 486.125 25.875 460.9375 25.875 429.9375 L 25.875 82.0625 C 25.875 51.0625 51.0625 25.875 82.0625 25.875 Z M 82.0625 25.875 " transform="matrix(0.0625,0,0,0.0625,0,0)"/>
<path style=" stroke:none;fill-rule:nonzero;fill:rgb(60.000002%,60.000002%,60.000002%);fill-opacity:1;" d="M 12.207031 26.121094 C 11.941406 25.96875 11.800781 25.707031 11.800781 25.375 C 11.800781 25 11.9375 24.738281 12.207031 24.597656 C 12.402344 24.492188 12.429688 24.492188 13.867188 24.492188 C 14.941406 24.492188 15.339844 24.476562 15.382812 24.4375 C 15.425781 24.394531 15.4375 23.628906 15.4375 21.257812 L 15.4375 18.128906 L 15.175781 17.996094 C 14.457031 17.621094 14.074219 16.933594 14.132812 16.113281 C 14.175781 15.441406 14.550781 14.890625 15.179688 14.558594 C 15.476562 14.398438 15.542969 14.382812 15.941406 14.367188 C 16.464844 14.34375 16.761719 14.417969 17.121094 14.65625 C 17.636719 15 17.929688 15.519531 17.972656 16.15625 C 18.015625 16.886719 17.726562 17.472656 17.105469 17.886719 L 16.800781 18.089844 L 16.800781 21.238281 C 16.800781 23.621094 16.8125 24.394531 16.855469 24.4375 C 16.894531 24.476562 17.292969 24.492188 18.363281 24.492188 C 19.714844 24.492188 19.828125 24.496094 20 24.582031 C 20.28125 24.714844 20.433594 24.984375 20.433594 25.332031 C 20.433594 25.707031 20.300781 25.972656 20.027344 26.113281 L 19.832031 26.21875 L 16.097656 26.21875 C 12.402344 26.214844 12.367188 26.214844 12.207031 26.121094 Z M 12.207031 26.121094 "/>
<path style=" stroke:none;fill-rule:nonzero;fill:rgb(47.058824%,73.725492%,55.686277%);fill-opacity:1;" d="M 22.867188 23.96875 C 22.816406 23.957031 22.71875 23.894531 22.652344 23.828125 C 22.550781 23.734375 22.527344 23.667969 22.527344 23.511719 C 22.527344 23.328125 22.550781 23.292969 22.941406 22.875 C 24.394531 21.324219 25.277344 19.441406 25.527344 17.351562 C 25.597656 16.792969 25.558594 15.261719 25.464844 14.730469 C 25.105469 12.71875 24.195312 10.949219 22.800781 9.558594 C 22.230469 8.984375 22.003906 8.792969 21.457031 8.425781 C 19.035156 6.796875 16.152344 6.328125 13.410156 7.121094 C 11.699219 7.613281 10.058594 8.652344 8.917969 9.957031 C 7.648438 11.402344 6.847656 13.167969 6.589844 15.089844 C 6.496094 15.808594 6.53125 17.28125 6.664062 17.957031 C 7.035156 19.867188 7.824219 21.421875 9.152344 22.878906 C 9.402344 23.152344 9.4375 23.214844 9.4375 23.367188 C 9.4375 23.671875 9.214844 23.847656 8.859375 23.824219 C 8.730469 23.816406 8.339844 23.429688 7.871094 22.839844 C 7.421875 22.277344 7.363281 22.195312 7.0625 21.695312 C 6.566406 20.871094 6.308594 20.28125 6.007812 19.296875 C 5.375 17.222656 5.433594 14.828125 6.171875 12.769531 C 6.523438 11.785156 6.808594 11.222656 7.363281 10.390625 C 7.890625 9.605469 8.871094 8.566406 9.675781 7.941406 C 10.089844 7.621094 10.910156 7.113281 11.460938 6.832031 C 12.160156 6.480469 13.335938 6.109375 14.324219 5.933594 C 14.800781 5.847656 16.136719 5.769531 16.597656 5.800781 C 19.167969 5.980469 21.320312 6.886719 23.136719 8.546875 C 23.566406 8.941406 24.441406 9.933594 24.640625 10.253906 C 24.683594 10.328125 24.761719 10.429688 24.800781 10.480469 C 24.945312 10.644531 25.425781 11.53125 25.703125 12.140625 C 25.964844 12.722656 26.285156 13.835938 26.410156 14.640625 C 26.53125 15.371094 26.550781 16.761719 26.457031 17.554688 C 26.324219 18.683594 25.933594 20 25.453125 20.964844 C 25.023438 21.824219 24.261719 22.894531 23.574219 23.601562 C 23.230469 23.957031 23.09375 24.027344 22.867188 23.96875 Z M 10.558594 21.765625 C 10.386719 21.625 9.902344 21.046875 9.644531 20.675781 C 9.167969 19.996094 8.777344 19.144531 8.558594 18.308594 C 8.355469 17.539062 8.324219 17.25 8.324219 16.253906 C 8.324219 15.152344 8.402344 14.675781 8.707031 13.773438 C 8.957031 13.027344 9.109375 12.722656 9.542969 12.058594 C 10.96875 9.894531 13.128906 8.667969 15.753906 8.527344 C 17.800781 8.421875 19.964844 9.242188 21.425781 10.675781 C 22.527344 11.765625 23.167969 12.839844 23.589844 14.320312 C 23.839844 15.199219 23.894531 16.667969 23.710938 17.660156 C 23.519531 18.699219 23.058594 19.824219 22.511719 20.589844 C 21.960938 21.359375 21.671875 21.675781 21.472656 21.730469 C 21.25 21.789062 21.152344 21.761719 21.003906 21.585938 C 20.8125 21.355469 20.84375 21.148438 21.121094 20.832031 C 22.980469 18.71875 23.402344 15.824219 22.207031 13.367188 C 21.273438 11.441406 19.660156 10.144531 17.574219 9.648438 C 15.464844 9.144531 13.210938 9.722656 11.519531 11.199219 C 10.894531 11.746094 10.253906 12.605469 9.90625 13.355469 C 9.65625 13.894531 9.402344 14.71875 9.328125 15.234375 C 9.019531 17.320312 9.648438 19.378906 11.066406 20.925781 C 11.199219 21.074219 11.328125 21.242188 11.347656 21.300781 C 11.457031 21.582031 11.210938 21.910156 10.902344 21.910156 C 10.785156 21.90625 10.683594 21.863281 10.558594 21.765625 Z M 12.386719 19.898438 C 12.292969 19.816406 12.125 19.636719 12.011719 19.496094 C 10.910156 18.113281 10.605469 16.222656 11.207031 14.484375 C 11.542969 13.527344 12.414062 12.472656 13.371094 11.878906 C 13.878906 11.566406 14.222656 11.421875 14.851562 11.269531 C 15.21875 11.175781 15.390625 11.160156 16.097656 11.164062 C 16.875 11.164062 16.9375 11.171875 17.417969 11.308594 C 18.394531 11.589844 18.949219 11.917969 19.683594 12.660156 C 20.105469 13.082031 20.292969 13.308594 20.492188 13.644531 C 20.636719 13.886719 20.753906 14.105469 20.753906 14.128906 C 20.753906 14.152344 20.796875 14.269531 20.851562 14.394531 C 20.902344 14.511719 21 14.808594 21.0625 15.042969 C 21.160156 15.425781 21.175781 15.578125 21.179688 16.273438 C 21.183594 17.011719 21.175781 17.105469 21.058594 17.546875 C 20.832031 18.378906 20.480469 19.050781 19.957031 19.628906 C 19.808594 19.792969 19.742188 19.832031 19.570312 19.851562 C 19.375 19.871094 19.355469 19.863281 19.21875 19.707031 C 18.996094 19.457031 19.015625 19.316406 19.34375 18.886719 C 19.949219 18.082031 20.253906 17.214844 20.253906 16.292969 C 20.253906 14.296875 18.855469 12.582031 16.875 12.160156 C 16.339844 12.042969 15.417969 12.085938 14.871094 12.25 C 13.707031 12.597656 12.746094 13.433594 12.214844 14.566406 C 11.871094 15.296875 11.757812 16.328125 11.9375 17.117188 C 12.113281 17.882812 12.402344 18.457031 12.945312 19.121094 C 13.257812 19.496094 13.289062 19.671875 13.09375 19.90625 C 12.992188 20.027344 12.945312 20.046875 12.761719 20.042969 C 12.589844 20.042969 12.519531 20.019531 12.386719 19.898438 Z M 15.738281 17.160156 C 15.175781 16.960938 14.945312 16.246094 15.285156 15.761719 C 15.472656 15.492188 15.714844 15.367188 16.042969 15.367188 C 16.925781 15.363281 17.316406 16.402344 16.648438 16.988281 C 16.386719 17.21875 16.066406 17.277344 15.738281 17.160156 Z M 15.738281 17.160156 "/>
<path style="fill-rule:nonzero;fill:rgb(100%,0%,0%);fill-opacity:1;stroke-width:3.417207;stroke-linecap:butt;stroke-linejoin:miter;stroke:rgb(100%,0%,0%);stroke-opacity:1;stroke-miterlimit:4;" d="M 252.75 274.5625 C 248.75 273.375 245.9375 270.9375 243.875 266.8125 C 239.375 258 245.3125 247.3125 255.25 246.25 C 266.1875 245.125 274.3125 255.5625 270.4375 265.75 C 269.1875 268.9375 264.4375 273.5 261.25 274.4375 C 258.8125 275.1875 254.9375 275.25 252.75 274.5625 Z M 252.75 274.5625 " transform="matrix(0.0625,0,0,0.0625,0,0)"/>
</g>
</svg>
