
<svg xmlns="http://www.w3.org/2000/svg" xmlns:xlink="http://www.w3.org/1999/xlink" width="32px" height="32px" viewBox="0 0 32 32" version="1.1">
<g id="surface1">
<path style=" stroke:none;fill-rule:nonzero;fill:rgb(30.19608%,30.19608%,30.19608%);fill-opacity:1;" d="M 4.648438 1.628906 L 27.351562 1.628906 C 29.019531 1.628906 30.371094 2.980469 30.371094 4.648438 L 30.371094 27.351562 C 30.371094 29.019531 29.019531 30.371094 27.351562 30.371094 L 4.648438 30.371094 C 2.980469 30.371094 1.628906 29.019531 1.628906 27.351562 L 1.628906 4.648438 C 1.628906 2.980469 2.980469 1.628906 4.648438 1.628906 Z M 4.648438 1.628906 "/>
<path style=" stroke:none;fill-rule:nonzero;fill:rgb(90.196079%,90.196079%,90.196079%);fill-opacity:1;" d="M 16.039062 3.441406 L 28.59375 15.949219 L 16.082031 28.507812 L 3.527344 15.996094 Z M 16.039062 3.441406 "/>
<path style=" stroke:none;fill-rule:nonzero;fill:rgb(0%,0%,0%);fill-opacity:0.623529;" d="M 6.925781 26.199219 C 7.683594 25.332031 13.28125 19.628906 13.566406 19.433594 C 13.953125 19.167969 14.820312 18.152344 14.730469 18.066406 C 12.632812 17.964844 11.003906 17.980469 8.589844 17.988281 L 9.691406 17.265625 C 11.371094 16.160156 14.273438 14.277344 18.035156 11.859375 C 19.902344 10.652344 21.449219 9.632812 21.46875 9.589844 C 21.488281 9.546875 21.5625 9.511719 21.636719 9.511719 C 21.710938 9.511719 22.464844 9.074219 23.308594 8.539062 C 24.15625 8.003906 24.863281 7.585938 24.882812 7.605469 C 24.902344 7.625 23.238281 9.355469 21.179688 11.449219 C 19.125 13.546875 17.46875 15.300781 17.5 15.347656 C 17.53125 15.402344 18.640625 15.417969 20.226562 15.382812 C 21.699219 15.355469 22.976562 15.359375 23.070312 15.394531 C 23.207031 15.449219 23.097656 15.558594 22.558594 15.941406 C 16.539062 20.035156 17.683594 19.167969 11.828125 23.144531 C 8.96875 25.082031 6.601562 26.671875 6.570312 26.671875 C 6.535156 26.671875 6.699219 26.457031 6.925781 26.199219 Z M 6.925781 26.199219 "/>
<path style=" stroke:none;fill-rule:nonzero;fill:rgb(97.254902%,77.64706%,23.921569%);fill-opacity:1;" d="M 7.042969 24.746094 C 7.800781 23.882812 13.394531 18.179688 13.683594 17.984375 C 14.070312 17.71875 14.933594 16.707031 14.847656 16.617188 C 12.589844 16.527344 10.964844 16.535156 8.703125 16.542969 C 13.8125 13.164062 19.191406 9.730469 23.425781 7.089844 C 24.273438 6.558594 24.980469 6.136719 24.996094 6.15625 C 25.019531 6.175781 23.351562 7.90625 21.296875 10.003906 C 19.242188 12.097656 17.582031 13.851562 17.613281 13.898438 C 19.761719 13.910156 21.101562 13.917969 23.183594 13.945312 C 15.894531 19.0625 15.902344 19.066406 6.683594 25.222656 C 6.652344 25.222656 6.8125 25.011719 7.042969 24.746094 Z M 7.042969 24.746094 "/>
</g>
</svg>
