
<svg xmlns="http://www.w3.org/2000/svg" xmlns:xlink="http://www.w3.org/1999/xlink" width="32px" height="32px" viewBox="0 0 32 32" version="1.1">
<g id="surface1">
<path style=" stroke:none;fill-rule:nonzero;fill:rgb(4.313726%,69.803923%,92.941177%);fill-opacity:1;" d="M 22.027344 28.863281 C 18.390625 28.136719 15.109375 27.480469 14.738281 27.402344 L 14.066406 27.261719 L 14.066406 16.90625 L 18.371094 16.941406 C 20.734375 16.964844 24.105469 17.011719 25.863281 17.050781 L 29.050781 17.121094 L 29.050781 23.664062 C 29.050781 29.824219 29.039062 30.207031 28.847656 30.195312 C 28.734375 30.1875 25.664062 29.589844 22.027344 28.863281 Z M 7.628906 25.996094 L 3.121094 25.109375 L 3.089844 20.949219 L 3.058594 16.785156 L 7.597656 16.835938 C 10.09375 16.867188 12.148438 16.902344 12.167969 16.917969 C 12.183594 16.929688 12.183594 19.175781 12.167969 21.910156 L 12.136719 26.878906 Z M 3.0625 11.066406 C 3.0625 8.78125 3.078125 6.910156 3.097656 6.910156 C 3.113281 6.910156 5.101562 6.515625 7.511719 6.035156 C 9.921875 5.550781 11.960938 5.15625 12.042969 5.15625 C 12.164062 5.15625 12.195312 6.148438 12.195312 10.113281 L 12.195312 15.066406 L 9.824219 15.144531 C 8.519531 15.1875 6.464844 15.222656 5.257812 15.222656 L 3.0625 15.222656 Z M 14.066406 9.941406 L 14.066406 4.738281 L 21.355469 3.300781 C 25.363281 2.507812 28.734375 1.832031 28.847656 1.800781 C 29.039062 1.746094 29.050781 2.117188 29.050781 8.367188 L 29.050781 14.988281 L 25.089844 14.988281 C 22.910156 14.988281 19.539062 15.023438 17.597656 15.066406 L 14.066406 15.144531 Z M 14.066406 9.941406 "/>
</g>
</svg>
