
<svg xmlns="http://www.w3.org/2000/svg" xmlns:xlink="http://www.w3.org/1999/xlink" width="32px" height="32px" viewBox="0 0 32 32" version="1.1">
<g id="surface1">
<path style="fill-rule:nonzero;fill:rgb(0%,41.568628%,72.549021%);fill-opacity:1;stroke-width:27.878233;stroke-linecap:butt;stroke-linejoin:miter;stroke:rgb(0%,25.098041%,43.921569%);stroke-opacity:1;stroke-miterlimit:4;" d="M 83.4375 27.6875 L 428.5625 27.6875 C 459.375 27.6875 484.3125 52.625 484.3125 83.4375 L 484.3125 428.5625 C 484.3125 459.375 459.375 484.3125 428.5625 484.3125 L 83.4375 484.3125 C 52.625 484.3125 27.6875 459.375 27.6875 428.5625 L 27.6875 83.4375 C 27.6875 52.625 52.625 27.6875 83.4375 27.6875 Z M 83.4375 27.6875 " transform="matrix(0.0625,0,0,0.0625,0,0)"/>
<path style=" stroke:none;fill-rule:evenodd;fill:rgb(100%,100%,100%);fill-opacity:1;" d="M 20.980469 5.011719 C 20.203125 5.75 18.398438 7.300781 18.398438 7.300781 L 22.628906 11.558594 C 22.628906 11.558594 24.457031 9.675781 25.285156 8.898438 C 25.488281 8.703125 25.460938 8.269531 25.257812 8.074219 C 24.613281 7.472656 23.550781 6.488281 23.550781 6.488281 C 23.550781 6.488281 22.550781 5.535156 21.933594 4.957031 C 21.710938 4.742188 21.207031 4.800781 20.980469 5.011719 Z M 16.542969 8.820312 L 5.238281 19.464844 L 5.339844 23.675781 L 9.75 23.652344 L 20.925781 13.105469 Z M 16.542969 8.820312 "/>
<path style=" stroke:none;fill-rule:nonzero;fill:rgb(10.196079%,10.196079%,10.196079%);fill-opacity:1;" d="M 25.933594 31.027344 C 23.761719 30.59375 21.808594 30.199219 21.589844 30.15625 L 21.1875 30.074219 L 21.1875 23.902344 L 23.753906 23.921875 C 25.160156 23.933594 27.167969 23.964844 28.214844 23.988281 L 30.117188 24.03125 L 30.117188 27.925781 C 30.117188 31.597656 30.109375 31.824219 29.996094 31.816406 C 29.925781 31.816406 28.097656 31.457031 25.933594 31.027344 Z M 17.351562 29.316406 L 14.667969 28.789062 L 14.628906 23.828125 L 17.332031 23.859375 C 18.820312 23.878906 20.046875 23.898438 20.054688 23.90625 C 20.066406 23.917969 20.066406 25.253906 20.054688 26.882812 L 20.035156 29.839844 Z M 14.632812 20.421875 C 14.632812 19.058594 14.640625 17.945312 14.652344 17.945312 C 14.664062 17.945312 15.847656 17.710938 17.28125 17.421875 C 18.71875 17.136719 19.933594 16.902344 19.980469 16.902344 C 20.054688 16.902344 20.074219 17.492188 20.074219 19.855469 L 20.074219 22.808594 L 18.660156 22.851562 C 17.882812 22.878906 16.660156 22.898438 15.941406 22.898438 L 14.632812 22.898438 Z M 21.1875 19.75 L 21.1875 16.652344 L 25.53125 15.792969 C 27.917969 15.324219 29.925781 14.921875 29.996094 14.902344 C 30.109375 14.871094 30.117188 15.089844 30.117188 18.8125 L 30.117188 22.757812 L 27.753906 22.757812 C 26.457031 22.757812 24.449219 22.777344 23.292969 22.804688 L 21.1875 22.851562 Z M 21.1875 19.75 "/>
<path style=" stroke:none;fill-rule:nonzero;fill:rgb(83.137256%,10.196079%,10.196079%);fill-opacity:1;" d="M 25.308594 30.527344 C 23.136719 30.09375 21.183594 29.699219 20.964844 29.65625 L 20.5625 29.574219 L 20.5625 23.402344 L 23.128906 23.421875 C 24.535156 23.433594 26.542969 23.464844 27.589844 23.488281 L 29.492188 23.53125 L 29.492188 27.425781 C 29.492188 31.097656 29.484375 31.324219 29.371094 31.316406 C 29.300781 31.316406 27.472656 30.957031 25.308594 30.527344 Z M 16.726562 28.816406 L 14.042969 28.289062 L 14.003906 23.328125 L 16.707031 23.359375 C 18.195312 23.378906 19.421875 23.398438 19.429688 23.40625 C 19.441406 23.417969 19.441406 24.753906 19.429688 26.382812 L 19.410156 29.339844 Z M 14.007812 19.921875 C 14.007812 18.558594 14.015625 17.445312 14.027344 17.445312 C 14.039062 17.445312 15.222656 17.210938 16.65625 16.921875 C 18.09375 16.636719 19.308594 16.402344 19.355469 16.402344 C 19.429688 16.402344 19.449219 16.992188 19.449219 19.355469 L 19.449219 22.308594 L 18.035156 22.351562 C 17.257812 22.378906 16.035156 22.398438 15.316406 22.398438 L 14.007812 22.398438 Z M 20.5625 19.25 L 20.5625 16.152344 L 24.90625 15.292969 C 27.292969 14.824219 29.300781 14.421875 29.371094 14.402344 C 29.484375 14.371094 29.492188 14.589844 29.492188 18.3125 L 29.492188 22.257812 L 27.128906 22.257812 C 25.832031 22.257812 23.824219 22.277344 22.667969 22.304688 L 20.5625 22.351562 Z M 20.5625 19.25 "/>
</g>
</svg>
