
<svg xmlns="http://www.w3.org/2000/svg" xmlns:xlink="http://www.w3.org/1999/xlink" width="32px" height="32px" viewBox="0 0 32 32" version="1.1">
<g id="surface1">
<path style="fill-rule:nonzero;fill:rgb(17.254902%,24.313726%,31.37255%);fill-opacity:1;stroke-width:2.597645;stroke-linecap:butt;stroke-linejoin:miter;stroke:rgb(83.137256%,10.196079%,10.196079%);stroke-opacity:1;stroke-miterlimit:4;" d="M 7.916016 1007.086792 L 40.083984 1007.086792 C 42.949219 1007.086792 45.275391 1009.412964 45.275391 1012.278198 L 45.275391 1044.446167 C 45.275391 1047.311401 42.949219 1049.637573 40.083984 1049.637573 L 7.916016 1049.637573 C 5.050781 1049.637573 2.724609 1047.311401 2.724609 1044.446167 L 2.724609 1012.278198 C 2.724609 1009.412964 5.050781 1007.086792 7.916016 1007.086792 Z M 7.916016 1007.086792 " transform="matrix(0.666667,0,0,0.666667,0,-669.574788)"/>
<path style=" stroke:none;fill-rule:nonzero;fill:rgb(90.588236%,29.803923%,23.529412%);fill-opacity:1;" d="M 18.652344 9.152344 L 13.230469 9.152344 L 14.441406 5.085938 L 17.441406 5.085938 Z M 18.652344 9.152344 "/>
<path style=" stroke:none;fill-rule:nonzero;fill:rgb(90.588236%,29.803923%,23.529412%);fill-opacity:1;" d="M 13.230469 22.847656 L 18.652344 22.847656 L 17.441406 26.914062 L 14.441406 26.914062 Z M 13.230469 22.847656 "/>
<path style=" stroke:none;fill-rule:nonzero;fill:rgb(90.588236%,29.803923%,23.529412%);fill-opacity:1;" d="M 22.789062 18.617188 L 22.789062 13.195312 L 26.855469 14.402344 L 26.855469 17.40625 Z M 22.789062 18.617188 "/>
<path style=" stroke:none;fill-rule:nonzero;fill:rgb(90.588236%,29.803923%,23.529412%);fill-opacity:1;" d="M 9.09375 13.195312 L 9.09375 18.617188 L 5.027344 17.40625 L 5.027344 14.402344 Z M 9.09375 13.195312 "/>
<path style=" stroke:none;fill-rule:nonzero;fill:rgb(90.588236%,29.803923%,23.529412%);fill-opacity:1;" d="M 13.058594 9.199219 L 9.222656 13.03125 L 7.207031 9.300781 L 9.328125 7.179688 Z M 13.058594 9.199219 "/>
<path style=" stroke:none;fill-rule:nonzero;fill:rgb(90.588236%,29.803923%,23.529412%);fill-opacity:1;" d="M 18.910156 22.714844 L 22.742188 18.886719 L 24.761719 22.613281 L 22.640625 24.738281 Z M 18.910156 22.714844 "/>
<path style=" stroke:none;fill-rule:nonzero;fill:rgb(90.588236%,29.803923%,23.529412%);fill-opacity:1;" d="M 22.660156 13.03125 L 18.824219 9.199219 L 22.554688 7.179688 L 24.679688 9.300781 Z M 22.660156 13.03125 "/>
<path style=" stroke:none;fill-rule:nonzero;fill:rgb(90.588236%,29.803923%,23.529412%);fill-opacity:1;" d="M 9.140625 18.886719 L 12.972656 22.714844 L 9.246094 24.738281 L 7.121094 22.613281 Z M 9.140625 18.886719 "/>
<path style=" stroke:none;fill-rule:nonzero;fill:rgb(90.588236%,29.803923%,23.529412%);fill-opacity:1;" d="M 16.03125 19.980469 C 13.777344 19.980469 11.953125 18.152344 11.953125 15.902344 C 11.953125 13.648438 13.777344 11.824219 16.03125 11.824219 C 18.28125 11.824219 20.105469 13.648438 20.105469 15.902344 C 20.105469 18.152344 18.28125 19.980469 16.03125 19.980469 M 15.941406 7.480469 C 11.242188 7.480469 7.433594 11.289062 7.433594 15.988281 C 7.433594 20.6875 11.242188 24.5 15.941406 24.5 C 20.640625 24.5 24.449219 20.6875 24.449219 15.988281 C 24.449219 11.289062 20.640625 7.480469 15.941406 7.480469 "/>
</g>
</svg>
