
<svg xmlns="http://www.w3.org/2000/svg" xmlns:xlink="http://www.w3.org/1999/xlink" width="32px" height="32px" viewBox="0 0 32 32" version="1.1">
<g id="surface1">
<path style="fill-rule:nonzero;fill:rgb(14.509805%,60.392159%,92.156863%);fill-opacity:1;stroke-width:28.097435;stroke-linecap:butt;stroke-linejoin:miter;stroke:rgb(1.176471%,22.745098%,55.29412%);stroke-opacity:1;stroke-miterlimit:4;" d="M 82.0625 566.237183 L 429.9375 566.237183 C 460.9375 566.237183 486.125 591.424683 486.125 622.424683 L 486.125 970.299683 C 486.125 1001.299683 460.9375 1026.487183 429.9375 1026.487183 L 82.0625 1026.487183 C 51.0625 1026.487183 25.875 1001.299683 25.875 970.299683 L 25.875 622.424683 C 25.875 591.424683 51.0625 566.237183 82.0625 566.237183 Z M 82.0625 566.237183 " transform="matrix(0.0625,0,0,0.0625,0,-33.772636)"/>
<path style=" stroke:none;fill-rule:nonzero;fill:rgb(94.509804%,94.509804%,94.509804%);fill-opacity:1;" d="M 9.828125 26.183594 C 9.671875 26.011719 9.558594 25.699219 9.558594 25.441406 C 9.558594 25.308594 9.699219 24.847656 9.957031 24.128906 C 10.171875 23.519531 10.355469 22.96875 10.355469 22.902344 C 10.363281 22.8125 10.253906 22.683594 9.964844 22.417969 C 9.746094 22.222656 9.433594 21.894531 9.261719 21.699219 C 9.09375 21.496094 8.910156 21.316406 8.851562 21.292969 C 8.785156 21.261719 8.3125 21.402344 7.617188 21.648438 C 6.996094 21.871094 6.398438 22.054688 6.292969 22.0625 C 6.070312 22.082031 5.65625 21.921875 5.476562 21.753906 C 5.335938 21.621094 4.300781 19.113281 4.277344 18.851562 C 4.253906 18.589844 4.4375 18.195312 4.667969 18.007812 C 4.769531 17.921875 5.335938 17.632812 5.921875 17.371094 C 6.554688 17.082031 7.003906 16.847656 7.03125 16.785156 C 7.054688 16.730469 7.058594 16.472656 7.042969 16.210938 C 7.027344 15.949219 7.027344 15.496094 7.046875 15.207031 C 7.066406 14.914062 7.050781 14.636719 7.019531 14.597656 C 6.984375 14.554688 6.480469 14.289062 5.902344 14.003906 C 5.226562 13.675781 4.785156 13.425781 4.667969 13.324219 C 4.449219 13.121094 4.289062 12.683594 4.34375 12.441406 C 4.363281 12.339844 4.644531 11.660156 4.964844 10.929688 L 5.550781 9.597656 L 5.785156 9.46875 C 6.199219 9.246094 6.34375 9.265625 7.675781 9.734375 C 8.429688 10 8.894531 10.144531 8.949219 10.121094 C 8.996094 10.101562 9.210938 9.894531 9.433594 9.664062 C 9.652344 9.429688 9.972656 9.121094 10.144531 8.972656 C 10.316406 8.828125 10.472656 8.667969 10.496094 8.617188 C 10.515625 8.566406 10.367188 8.058594 10.167969 7.488281 C 9.964844 6.917969 9.777344 6.359375 9.75 6.246094 C 9.671875 5.933594 9.738281 5.617188 9.925781 5.363281 C 10.074219 5.167969 10.222656 5.089844 11.386719 4.609375 C 12.101562 4.316406 12.789062 4.066406 12.914062 4.058594 C 13.203125 4.035156 13.582031 4.195312 13.765625 4.414062 C 13.84375 4.507812 14.125 5.058594 14.390625 5.640625 C 14.652344 6.222656 14.894531 6.730469 14.921875 6.761719 C 14.949219 6.800781 15.21875 6.816406 15.558594 6.804688 C 15.882812 6.792969 16.355469 6.796875 16.613281 6.816406 C 16.957031 6.839844 17.105469 6.824219 17.183594 6.753906 C 17.242188 6.699219 17.523438 6.183594 17.808594 5.605469 C 18.359375 4.492188 18.472656 4.328125 18.8125 4.183594 C 19.191406 4.019531 19.351562 4.058594 20.808594 4.699219 L 22.136719 5.277344 L 22.285156 5.503906 C 22.542969 5.894531 22.523438 6.058594 22.070312 7.367188 C 21.847656 7.996094 21.660156 8.566406 21.652344 8.632812 C 21.632812 8.722656 21.71875 8.832031 22.023438 9.105469 C 22.238281 9.300781 22.574219 9.644531 22.761719 9.871094 C 22.957031 10.097656 23.128906 10.289062 23.152344 10.300781 C 23.175781 10.308594 23.714844 10.136719 24.339844 9.910156 C 24.972656 9.6875 25.589844 9.496094 25.714844 9.484375 C 26.011719 9.460938 26.371094 9.613281 26.582031 9.855469 C 26.679688 9.972656 26.941406 10.539062 27.25 11.308594 C 27.777344 12.628906 27.800781 12.769531 27.625 13.1875 C 27.5 13.488281 27.285156 13.625 26.125 14.160156 C 25.496094 14.449219 24.96875 14.703125 24.957031 14.730469 C 24.949219 14.753906 24.953125 15.054688 24.96875 15.398438 C 24.984375 15.746094 24.980469 16.214844 24.957031 16.445312 C 24.925781 16.730469 24.9375 16.890625 24.996094 16.949219 C 25.039062 16.996094 25.574219 17.28125 26.179688 17.585938 C 27.386719 18.1875 27.5625 18.324219 27.644531 18.699219 C 27.722656 19.058594 27.660156 19.277344 27.074219 20.617188 L 26.511719 21.898438 L 26.265625 22.050781 C 25.832031 22.316406 25.757812 22.308594 24.347656 21.816406 C 23.660156 21.574219 23.078125 21.386719 23.058594 21.394531 C 23.035156 21.402344 22.863281 21.582031 22.671875 21.792969 C 22.480469 22.003906 22.136719 22.332031 21.910156 22.523438 C 21.683594 22.714844 21.492188 22.90625 21.488281 22.949219 C 21.480469 22.988281 21.648438 23.515625 21.863281 24.121094 C 22.082031 24.730469 22.265625 25.347656 22.273438 25.496094 C 22.296875 25.8125 22.191406 26.09375 21.972656 26.308594 C 21.777344 26.496094 19.445312 27.460938 19.121094 27.488281 C 18.855469 27.507812 18.445312 27.347656 18.253906 27.148438 C 18.183594 27.074219 17.894531 26.511719 17.617188 25.902344 C 17.339844 25.292969 17.074219 24.777344 17.027344 24.757812 C 16.984375 24.738281 16.683594 24.734375 16.363281 24.746094 C 16.039062 24.757812 15.570312 24.75 15.324219 24.730469 C 14.980469 24.699219 14.855469 24.714844 14.800781 24.785156 C 14.761719 24.839844 14.484375 25.371094 14.183594 25.964844 C 13.519531 27.28125 13.40625 27.40625 12.835938 27.445312 C 12.667969 27.457031 12.4375 27.371094 11.292969 26.886719 C 10.285156 26.457031 9.921875 26.28125 9.828125 26.183594 Z M 14.355469 21.019531 C 15.625 21.40625 16.84375 21.351562 18.074219 20.855469 C 19.011719 20.472656 19.746094 19.914062 20.398438 19.089844 C 20.808594 18.574219 21.351562 17.285156 21.441406 16.625 C 21.714844 14.621094 20.988281 12.757812 19.441406 11.472656 C 19.082031 11.171875 18.972656 11.113281 18.167969 10.765625 C 17.402344 10.4375 17.234375 10.382812 16.816406 10.324219 C 14.730469 10.042969 12.667969 10.941406 11.488281 12.636719 C 10.425781 14.160156 10.214844 16.089844 10.917969 17.832031 C 11.285156 18.75 11.914062 19.574219 12.714844 20.183594 C 12.941406 20.359375 13.285156 20.566406 13.785156 20.828125 C 13.824219 20.847656 14.082031 20.933594 14.355469 21.019531 Z M 14.003906 18.386719 C 12.871094 17.496094 12.4375 16.027344 12.910156 14.6875 C 13.246094 13.75 13.863281 13.101562 14.785156 12.730469 C 16.464844 12.058594 18.355469 12.84375 19.027344 14.5 C 19.582031 15.863281 19.238281 17.324219 18.136719 18.269531 C 17.195312 19.070312 16.003906 19.277344 14.839844 18.832031 C 14.441406 18.683594 14.257812 18.582031 14.003906 18.386719 Z M 15.972656 17.726562 C 16.382812 17.746094 17.101562 17.53125 17.433594 17.246094 C 17.667969 17.042969 17.71875 16.964844 17.90625 16.519531 C 18.109375 16.042969 17.988281 15.996094 17.949219 15.625 C 17.878906 14.878906 17.519531 14.363281 16.84375 14.035156 C 16.300781 13.769531 15.917969 13.746094 15.363281 13.941406 C 14.660156 14.191406 14.183594 14.753906 14.074219 15.457031 C 13.984375 16.070312 14.125 16.570312 14.519531 17.039062 C 14.886719 17.476562 15.363281 17.699219 15.972656 17.726562 Z M 15.972656 17.726562 "/>
<path style=" stroke:none;fill-rule:evenodd;fill:rgb(83.137256%,10.196079%,10.196079%);fill-opacity:1;" d="M 26.980469 20.003906 C 27.203125 21.628906 25.476562 22.410156 23.808594 22.011719 C 22.902344 21.796875 22.335938 20.855469 22.644531 19.828125 C 24.128906 19.316406 25.386719 20.351562 26.980469 20.003906 "/>
<path style=" stroke:none;fill-rule:nonzero;fill:rgb(0%,0%,0%);fill-opacity:1;" d="M 27.402344 20.175781 C 27.339844 19.300781 27.070312 18.5 26.726562 17.722656 C 26.691406 17.644531 26.554688 17.667969 26.445312 17.664062 C 26.65625 18.464844 27.136719 19.324219 27.152344 20.234375 C 27.167969 21.675781 26.097656 22.324219 24.742188 22.382812 C 23.390625 22.324219 22.316406 21.675781 22.335938 20.234375 C 22.347656 19.324219 22.828125 18.464844 23.042969 17.664062 C 22.933594 17.667969 22.792969 17.644531 22.761719 17.722656 C 22.417969 18.5 22.144531 19.300781 22.082031 20.175781 C 22.066406 20.363281 22.058594 20.597656 22.082031 20.796875 C 22.230469 22.121094 23.582031 22.25 24.226562 23.054688 C 24.609375 23.535156 24.628906 26.953125 24.453125 27.488281 C 24.316406 27.898438 23.761719 28.015625 23.292969 28.082031 C 23.125 28.101562 22.847656 28.050781 22.761719 28.25 C 23.234375 28.351562 23.996094 28.386719 24.742188 28.382812 C 25.492188 28.386719 26.253906 28.351562 26.726562 28.25 C 26.636719 28.050781 26.359375 28.101562 26.191406 28.082031 C 25.726562 28.015625 25.167969 27.898438 25.035156 27.488281 C 24.855469 26.953125 24.875 23.535156 25.261719 23.054688 C 25.902344 22.25 27.257812 22.121094 27.402344 20.796875 C 27.425781 20.597656 27.417969 20.363281 27.402344 20.175781 "/>
</g>
</svg>
