
<svg xmlns="http://www.w3.org/2000/svg" xmlns:xlink="http://www.w3.org/1999/xlink" width="32px" height="32px" viewBox="0 0 32 32" version="1.1">
<g id="surface1">
<path style="fill-rule:nonzero;fill:rgb(100%,100%,100%);fill-opacity:1;stroke-width:31.174202;stroke-linecap:butt;stroke-linejoin:miter;stroke:rgb(83.137256%,10.196079%,10.196079%);stroke-opacity:1;stroke-miterlimit:4;" d="M 137.955616 -508.993093 L 523.876407 -508.993093 C 558.36324 -508.993093 586.284443 -481.07189 586.284443 -446.585057 L 586.284443 -60.664266 C 586.284443 -26.177433 558.36324 1.74377 523.876407 1.74377 L 137.955616 1.74377 C 103.468783 1.74377 75.54758 -26.177433 75.54758 -60.664266 L 75.54758 -446.585057 C 75.54758 -481.07189 103.468783 -508.993093 137.955616 -508.993093 Z M 137.955616 -508.993093 " transform="matrix(0.0565207,0,0,0.0565207,-2.703593,30.335035)"/>
<path style=" stroke:none;fill-rule:nonzero;fill:rgb(83.137256%,10.196079%,10.196079%);fill-opacity:1;" d="M 21.378906 27.589844 C 18.101562 26.933594 15.148438 26.34375 14.816406 26.273438 L 14.207031 26.148438 L 14.207031 16.816406 L 18.082031 16.851562 C 20.214844 16.871094 23.25 16.914062 24.832031 16.949219 L 27.707031 17.011719 L 27.707031 22.90625 C 27.707031 28.453125 27.691406 28.800781 27.519531 28.785156 C 27.417969 28.78125 24.652344 28.242188 21.378906 27.589844 Z M 8.410156 25.003906 L 4.351562 24.207031 L 4.292969 16.707031 L 8.382812 16.757812 C 10.628906 16.785156 12.480469 16.816406 12.496094 16.828125 C 12.511719 16.839844 12.511719 18.863281 12.496094 21.324219 L 12.46875 25.800781 Z M 4.296875 11.558594 C 4.296875 9.503906 4.3125 7.816406 4.328125 7.816406 C 4.347656 7.816406 6.136719 7.460938 8.304688 7.027344 C 10.472656 6.589844 12.3125 6.238281 12.386719 6.238281 C 12.496094 6.238281 12.519531 7.128906 12.519531 10.699219 L 12.519531 15.164062 L 10.386719 15.234375 C 9.214844 15.269531 7.363281 15.300781 6.277344 15.300781 L 4.296875 15.300781 Z M 14.207031 10.546875 L 14.207031 5.859375 L 20.773438 4.5625 C 24.382812 3.851562 27.417969 3.246094 27.519531 3.214844 C 27.695312 3.167969 27.707031 3.5 27.707031 9.128906 L 27.707031 15.09375 L 24.136719 15.09375 C 22.175781 15.09375 19.136719 15.125 17.386719 15.160156 L 14.207031 15.230469 Z M 14.207031 10.546875 "/>
</g>
</svg>
