<!-- Generator: Adobe Illustrator 16.0.4, SVG Export Plug-In . SVG Version: 6.00 Build 0)  -->
<svg xmlns="http://www.w3.org/2000/svg" xmlns:xlink="http://www.w3.org/1999/xlink" width="32px" height="32px" viewBox="0 0 32 32" version="1.1">
<g id="surface1">
<path style=" stroke:none;fill-rule:nonzero;fill:rgb(33.333334%,86.666667%,100%);fill-opacity:1;" d="M 30.222656 17.398438 C 30.222656 16.476562 30.121094 15.582031 29.9375 14.710938 L 29.9375 14.550781 L 29.902344 14.550781 C 28.878906 10.050781 25.488281 6.453125 21.105469 5.132812 C 24.285156 3.796875 27.003906 3.683594 28.453125 5.132812 C 29.664062 6.34375 29.789062 8.449219 29.011719 10.960938 C 30.3125 7.589844 30.324219 4.710938 28.742188 3.128906 C 26.632812 1.019531 22.222656 1.753906 17.414062 4.578125 C 17.410156 4.578125 17.40625 4.578125 17.402344 4.578125 C 10.332031 4.578125 4.589844 10.308594 4.582031 17.382812 C 1.722656 22.214844 0.972656 26.660156 3.09375 28.777344 C 4.675781 30.363281 7.554688 30.347656 10.925781 29.050781 C 8.410156 29.824219 6.308594 29.699219 5.097656 28.488281 C 3.640625 27.027344 3.765625 24.285156 5.121094 21.082031 C 6.707031 26.371094 11.601562 30.222656 17.402344 30.222656 C 23.089844 30.222656 27.910156 26.515625 29.585938 21.390625 L 22.042969 21.390625 C 20.917969 22.695312 19.257812 23.527344 17.398438 23.527344 C 14.5625 23.527344 12.179688 21.589844 11.484375 18.96875 L 30.125 18.96875 C 30.183594 18.453125 30.222656 17.929688 30.222656 17.398438 Z M 11.980469 14.550781 C 13.007812 12.605469 15.046875 11.277344 17.402344 11.277344 C 19.753906 11.277344 21.796875 12.605469 22.824219 14.550781 Z M 11.980469 14.550781 "/>
</g>
</svg>
