
<svg xmlns="http://www.w3.org/2000/svg" xmlns:xlink="http://www.w3.org/1999/xlink" width="32px" height="32px" viewBox="0 0 32 32" version="1.1">
<g id="surface1">
<path style="fill-rule:evenodd;fill:rgb(94.509804%,94.509804%,94.509804%);fill-opacity:1;stroke-width:28.5;stroke-linecap:butt;stroke-linejoin:miter;stroke:rgb(100%,16.470589%,49.803922%);stroke-opacity:1;stroke-miterlimit:4;" d="M 86.447669 42.976032 L 494.259766 42.976032 C 516.207987 42.976032 533.978965 60.67621 533.978965 82.62443 L 533.978965 501.835442 C 533.978965 523.712862 516.207987 541.483841 494.259766 541.483841 L 86.447669 541.483841 C 64.499448 541.483841 46.79927 523.712862 46.79927 501.835442 L 46.79927 82.62443 C 46.79927 60.67621 64.499448 42.976032 86.447669 42.976032 Z M 86.447669 42.976032 " transform="matrix(0.0551725,0,0,0.0551725,0,0)"/>
<path style="fill-rule:evenodd;fill:rgb(54.901963%,53.725493%,53.725493%);fill-opacity:1;stroke-width:5;stroke-linecap:butt;stroke-linejoin:miter;stroke:rgb(54.901963%,53.725493%,53.725493%);stroke-opacity:1;stroke-miterlimit:4;" d="M 411.635336 95.368558 C 423.883859 95.368558 433.795959 107.900284 433.795959 123.334839 L 433.795959 474.577169 C 433.795959 490.011724 423.883859 502.472649 411.635336 502.472649 C 399.386813 502.472649 389.474713 490.011724 389.474713 474.577169 L 389.474713 123.334839 C 389.474713 107.900284 399.386813 95.368558 411.635336 95.368558 Z M 411.635336 95.368558 " transform="matrix(0.0551725,0,0,0.0551725,0,0)"/>
<path style=" stroke:none;fill-rule:nonzero;fill:rgb(0%,83.137256%,0%);fill-opacity:1;" d="M 26.011719 11.433594 C 26.011719 13.179688 24.597656 14.59375 22.851562 14.59375 C 21.105469 14.59375 19.691406 13.179688 19.691406 11.433594 C 19.691406 9.691406 21.105469 8.277344 22.851562 8.277344 C 24.597656 8.277344 26.011719 9.691406 26.011719 11.433594 Z M 26.011719 11.433594 "/>
<path style="fill-rule:evenodd;fill:rgb(54.901963%,53.725493%,53.725493%);fill-opacity:1;stroke-width:5;stroke-linecap:butt;stroke-linejoin:miter;stroke:rgb(54.901963%,53.725493%,53.725493%);stroke-opacity:1;stroke-miterlimit:4;" d="M 292.477739 95.368558 C 304.655461 95.368558 314.567561 107.900284 314.567561 123.334839 L 314.567561 474.577169 C 314.567561 490.011724 304.655461 502.472649 292.477739 502.472649 C 280.229216 502.472649 270.317116 490.011724 270.317116 474.577169 L 270.317116 123.334839 C 270.317116 107.900284 280.229216 95.368558 292.477739 95.368558 Z M 292.477739 95.368558 " transform="matrix(0.0551725,0,0,0.0551725,0,0)"/>
<path style=" stroke:none;fill-rule:nonzero;fill:rgb(0%,83.137256%,0%);fill-opacity:1;" d="M 19.246094 18.339844 C 19.246094 20.082031 17.832031 21.496094 16.085938 21.496094 C 14.339844 21.496094 12.925781 20.082031 12.925781 18.339844 C 12.925781 16.59375 14.339844 15.179688 16.085938 15.179688 C 17.832031 15.179688 19.246094 16.59375 19.246094 18.339844 Z M 19.246094 18.339844 "/>
<path style="fill-rule:evenodd;fill:rgb(54.901963%,53.725493%,53.725493%);fill-opacity:1;stroke-width:5;stroke-linecap:butt;stroke-linejoin:miter;stroke:rgb(54.901963%,53.725493%,53.725493%);stroke-opacity:1;stroke-miterlimit:4;" d="M 173.036939 95.368558 C 185.285462 95.368558 195.197561 107.900284 195.197561 123.334839 L 195.197561 474.577169 C 195.197561 490.011724 185.285462 502.472649 173.036939 502.472649 C 160.859216 502.472649 150.947117 490.011724 150.947117 474.577169 L 150.947117 123.334839 C 150.947117 107.900284 160.859216 95.368558 173.036939 95.368558 Z M 173.036939 95.368558 " transform="matrix(0.0551725,0,0,0.0551725,0,0)"/>
<path style=" stroke:none;fill-rule:nonzero;fill:rgb(0%,83.137256%,0%);fill-opacity:1;" d="M 12.660156 9.449219 C 12.660156 11.195312 11.246094 12.609375 9.5 12.609375 C 7.753906 12.609375 6.339844 11.195312 6.339844 9.449219 C 6.339844 7.707031 7.753906 6.292969 9.5 6.292969 C 11.246094 6.292969 12.660156 7.707031 12.660156 9.449219 Z M 12.660156 9.449219 "/>
</g>
</svg>
