
<svg xmlns="http://www.w3.org/2000/svg" xmlns:xlink="http://www.w3.org/1999/xlink" width="32px" height="32px" viewBox="0 0 32 32" version="1.1">
<g id="surface1">
<path style=" stroke:none;fill-rule:nonzero;fill:rgb(38.82353%,47.843137%,50.980395%);fill-opacity:1;" d="M 11.421875 7.109375 L 20.578125 7.109375 L 20.578125 1.386719 L 11.421875 1.386719 Z M 11.421875 7.109375 "/>
<path style=" stroke:none;fill-rule:nonzero;fill:rgb(100%,100%,100%);fill-opacity:0.654902;" d="M 12.746094 5 L 15.035156 5 L 15.035156 2.710938 L 12.746094 2.710938 Z M 12.746094 5 "/>
<path style=" stroke:none;fill-rule:nonzero;fill:rgb(1.960784%,20.784314%,24.705882%);fill-opacity:0.654902;" d="M 12.566406 4.820312 L 14.855469 4.820312 L 14.855469 2.53125 L 12.566406 2.53125 Z M 12.566406 4.820312 "/>
<path style=" stroke:none;fill-rule:nonzero;fill:rgb(100%,100%,100%);fill-opacity:0.654902;" d="M 17.324219 5 L 19.613281 5 L 19.613281 2.710938 L 17.324219 2.710938 Z M 17.324219 5 "/>
<path style=" stroke:none;fill-rule:nonzero;fill:rgb(1.960784%,20.784314%,24.705882%);fill-opacity:0.654902;" d="M 17.144531 4.820312 L 19.433594 4.820312 L 19.433594 2.53125 L 17.144531 2.53125 Z M 17.144531 4.820312 "/>
<path style="fill-rule:nonzero;fill:rgb(14.509805%,68.235296%,87.450981%);fill-opacity:1;stroke-width:2.44179;stroke-linecap:butt;stroke-linejoin:miter;stroke:rgb(14.509805%,68.235296%,87.450981%);stroke-opacity:1;stroke-miterlimit:4;" d="M 423.383911 449.454264 L 473.758911 449.454264 C 475.837036 449.454264 477.524536 451.141764 477.524536 453.219889 L 477.524536 537.266764 C 477.524536 539.344889 475.837036 541.032389 473.758911 541.032389 L 423.383911 541.032389 C 421.305786 541.032389 419.618286 539.344889 419.618286 537.266764 L 419.618286 453.219889 C 419.618286 451.141764 421.305786 449.454264 423.383911 449.454264 Z M 423.383911 449.454264 " transform="matrix(0.25,0,0,0.25,-96.142853,-104.949504)"/>
<path style=" stroke:none;fill-rule:nonzero;fill:rgb(92.54902%,94.117647%,94.509804%);fill-opacity:1;" d="M 18.03125 16.253906 L 18.03125 13.996094 L 20.300781 13.996094 L 20.300781 16.253906 Z M 18.03125 16.253906 "/>
<path style=" stroke:none;fill-rule:nonzero;fill:rgb(92.54902%,94.117647%,94.509804%);fill-opacity:1;" d="M 15.953125 24.792969 C 16.800781 24.792969 17.492188 25.480469 17.492188 26.332031 C 17.492188 27.179688 16.800781 27.867188 15.953125 27.867188 C 15.101562 27.867188 14.410156 27.179688 14.410156 26.332031 C 14.410156 25.480469 15.101562 24.792969 15.953125 24.792969 Z M 15.953125 24.792969 "/>
<path style=" stroke:none;fill-rule:nonzero;fill:rgb(92.54902%,94.117647%,94.509804%);fill-opacity:1;" d="M 13.066406 15.984375 C 13.816406 15.984375 14.429688 16.59375 14.429688 17.347656 C 14.429688 18.097656 13.816406 18.707031 13.066406 18.707031 C 12.3125 18.707031 11.699219 18.097656 11.699219 17.347656 C 11.699219 16.59375 12.3125 15.984375 13.066406 15.984375 Z M 13.066406 15.984375 "/>
<path style=" stroke:none;fill-rule:evenodd;fill:rgb(92.54902%,94.117647%,94.509804%);fill-opacity:1;" d="M 14.738281 12.632812 C 14.738281 12.632812 15.953125 9.890625 15.984375 9.929688 C 16.011719 9.972656 17.1875 12.632812 17.1875 12.632812 Z M 14.738281 12.632812 "/>
<path style="fill:none;stroke-width:6.079651;stroke-linecap:butt;stroke-linejoin:miter;stroke:rgb(92.54902%,94.117647%,94.509804%);stroke-opacity:1;stroke-miterlimit:2.012602;" d="M 256.776924 269.485926 C 253.728753 241.487911 213.086474 227.658247 212.973579 211.401335 C 212.917131 200.394051 213.425159 195.596004 213.312264 181.596997 " transform="matrix(0.0692013,0,0,0.0692013,-1.820087,5.394183)"/>
<path style="fill:none;stroke-width:6.079651;stroke-linecap:butt;stroke-linejoin:miter;stroke:rgb(92.54902%,94.117647%,94.509804%);stroke-opacity:1;stroke-miterlimit:2.012602;" d="M 256.776924 239.738035 C 256.776924 212.135154 287.032843 205.700126 302.047907 185.266091 C 304.362259 181.822787 302.838174 150.663706 302.838174 148.68804 " transform="matrix(0.0692013,0,0,0.0692013,-1.820087,5.394183)"/>
<path style="fill:none;stroke-width:6.079651;stroke-linecap:butt;stroke-linejoin:miter;stroke:rgb(92.54902%,94.117647%,94.509804%);stroke-opacity:1;stroke-miterlimit:2.012602;" d="M 256.664029 302.902911 L 256.664029 96.135315 " transform="matrix(0.0692013,0,0,0.0692013,-1.820087,5.394183)"/>
</g>
</svg>
