
<svg xmlns="http://www.w3.org/2000/svg" xmlns:xlink="http://www.w3.org/1999/xlink" width="32px" height="32px" viewBox="0 0 32 32" version="1.1">
<defs>
<clipPath id="clip1">
  <path d="M 0.5625 8 L 31.5 8 L 31.5 22.3125 L 0.5625 22.3125 Z M 0.5625 8 "/>
</clipPath>
<clipPath id="clip2">
  <path d="M 31.457031 15.816406 C 31.457031 24.011719 24.539062 30.644531 16.011719 30.644531 C 7.488281 30.644531 0.570312 24.011719 0.570312 15.816406 C 0.570312 7.621094 7.488281 0.988281 16.011719 0.988281 C 24.539062 0.988281 31.457031 7.621094 31.457031 15.816406 Z M 31.457031 15.816406 "/>
</clipPath>
</defs>
<g id="surface1">
<path style="fill-rule:nonzero;fill:rgb(39.215687%,58.431375%,92.941177%);fill-opacity:1;stroke-width:28.097435;stroke-linecap:butt;stroke-linejoin:miter;stroke:rgb(9.803922%,32.549021%,43.529412%);stroke-opacity:1;stroke-miterlimit:4;" d="M 82.0625 25.875 L 429.9375 25.875 C 460.9375 25.875 486.125 51.0625 486.125 82.0625 L 486.125 429.9375 C 486.125 460.9375 460.9375 486.125 429.9375 486.125 L 82.0625 486.125 C 51.0625 486.125 25.875 460.9375 25.875 429.9375 L 25.875 82.0625 C 25.875 51.0625 51.0625 25.875 82.0625 25.875 Z M 82.0625 25.875 " transform="matrix(0.0625,0,0,0.0625,0,0)"/>
<g clip-path="url(#clip1)" clip-rule="nonzero">
<g clip-path="url(#clip2)" clip-rule="nonzero">
<path style=" stroke:none;fill-rule:nonzero;fill:rgb(9.803922%,32.549021%,43.529412%);fill-opacity:1;" d="M 22.496094 8.058594 C 16.242188 8.152344 12.742188 11.574219 10.894531 14.910156 C 9.207031 17.964844 8.949219 20.488281 8.902344 20.972656 L -0.101562 20.972656 L -0.101562 22.265625 L 9.425781 22.265625 C 9.617188 22.265625 9.804688 22.183594 9.929688 22.042969 C 10 21.960938 10.050781 21.863281 10.074219 21.761719 C 10.078125 21.730469 10.078125 21.707031 10.074219 21.679688 C 10.074219 21.679688 10.390625 18.625 12.089844 15.554688 C 13.675781 12.691406 16.496094 9.921875 21.53125 9.488281 C 18.535156 15.246094 21.683594 21.902344 21.683594 21.902344 C 21.707031 21.929688 21.734375 21.957031 21.765625 21.980469 C 21.878906 22.144531 22.082031 22.253906 22.285156 22.265625 L 32.128906 22.265625 L 32.128906 20.972656 L 22.792969 20.972656 C 22.535156 20.425781 19.636719 14.0625 23.109375 9.046875 C 23.199219 8.894531 23.222656 8.707031 23.171875 8.542969 C 23.148438 8.441406 23.097656 8.339844 23.023438 8.261719 C 22.890625 8.125 22.691406 8.050781 22.5 8.058594 M 22.5 8.058594 "/>
</g>
</g>
</g>
</svg>
