<!-- color: #ffbe33 -->
<svg xmlns="http://www.w3.org/2000/svg" xmlns:xlink="http://www.w3.org/1999/xlink" width="32px" height="32px" viewBox="0 0 32 32" version="1.1">
<defs>
<clipPath id="clip1">
  <path d="M 5.9375 6.0625 L 25.8125 6.0625 L 25.8125 25.125 L 5.9375 25.125 Z M 5.9375 6.0625 "/>
</clipPath>
<clipPath id="clip2">
  <path d="M 34.066406 15.570312 C 34.066406 25.628906 25.90625 33.777344 15.855469 33.777344 C 5.804688 33.777344 -2.351562 25.628906 -2.351562 15.570312 C -2.351562 5.511719 5.804688 -2.636719 15.855469 -2.636719 C 25.90625 -2.636719 34.066406 5.511719 34.066406 15.570312 Z M 34.066406 15.570312 "/>
</clipPath>
</defs>
<g id="surface1">
<path style="fill-rule:nonzero;fill:rgb(100%,73.333335%,16.078432%);fill-opacity:1;stroke-width:7.050111;stroke-linecap:butt;stroke-linejoin:miter;stroke:rgb(17.647059%,17.647059%,17.647059%);stroke-opacity:1;stroke-miterlimit:4;" d="M 20.359375 6.265625 L 107.640625 6.265625 C 115.421875 6.265625 121.734375 12.578125 121.734375 20.359375 L 121.734375 107.640625 C 121.734375 115.421875 115.421875 121.734375 107.640625 121.734375 L 20.359375 121.734375 C 12.578125 121.734375 6.265625 115.421875 6.265625 107.640625 L 6.265625 20.359375 C 6.265625 12.578125 12.578125 6.265625 20.359375 6.265625 Z M 20.359375 6.265625 " transform="matrix(0.25,0,0,0.25,0,0)"/>
<path style=" stroke:none;fill-rule:nonzero;fill:rgb(17.647059%,17.647059%,17.647059%);fill-opacity:1;" d="M 16 3.472656 C 9.082031 3.472656 3.472656 9.082031 3.472656 16 C 3.472656 22.917969 9.082031 28.527344 16 28.527344 C 22.917969 28.527344 28.527344 22.917969 28.527344 16 C 28.527344 9.082031 22.917969 3.472656 16 3.472656 Z M 16 4.566406 C 22.316406 4.566406 27.433594 9.683594 27.433594 16 C 27.433594 22.316406 22.316406 27.433594 16 27.433594 C 9.683594 27.433594 4.566406 22.316406 4.566406 16 C 4.566406 9.683594 9.683594 4.566406 16 4.566406 Z M 16 4.566406 "/>
<g clip-path="url(#clip1)" clip-rule="nonzero">
<g clip-path="url(#clip2)" clip-rule="nonzero">
<path style=" stroke:none;fill-rule:nonzero;fill:rgb(17.647059%,17.647059%,17.647059%);fill-opacity:1;" d="M 15.683594 6.070312 C 14.175781 6.105469 12.535156 6.570312 10.734375 7.628906 L 14.273438 13.492188 C 15.441406 12.824219 16.503906 12.949219 17.539062 13.492188 L 21.003906 7.628906 C 19.351562 6.683594 17.621094 6.023438 15.683594 6.070312 M 15.878906 14.332031 C 14.84375 14.332031 14 15.199219 14 16.261719 C 14 17.324219 14.84375 18.191406 15.878906 18.191406 C 16.917969 18.191406 17.761719 17.324219 17.761719 16.261719 C 17.761719 15.199219 16.917969 14.332031 15.878906 14.332031 M 5.960938 15.792969 C 5.917969 19.824219 7.476562 22.847656 10.636719 24.871094 L 14.222656 19.035156 C 13.125 18.246094 12.765625 17.230469 12.789062 16.039062 M 25.753906 15.867188 L 19.023438 16.113281 C 19.003906 17.488281 18.386719 18.359375 17.414062 19.007812 L 20.855469 25.070312 C 25.023438 22.382812 25.769531 19.175781 25.753906 15.867188 M 25.753906 15.867188 "/>
</g>
</g>
</g>
</svg>
