
<svg xmlns="http://www.w3.org/2000/svg" xmlns:xlink="http://www.w3.org/1999/xlink" width="32px" height="32px" viewBox="0 0 32 32" version="1.1">
<g id="surface1">
<path style="fill-rule:nonzero;fill:rgb(90.588236%,29.803923%,23.529412%);fill-opacity:1;stroke-width:2.634141;stroke-linecap:butt;stroke-linejoin:miter;stroke:rgb(90.588236%,53.725493%,49.803922%);stroke-opacity:1;stroke-miterlimit:4;" d="M 7.693359 2.425781 L 40.306641 2.425781 C 43.212891 2.425781 45.574219 4.787109 45.574219 7.693359 L 45.574219 40.306641 C 45.574219 43.212891 43.212891 45.574219 40.306641 45.574219 L 7.693359 45.574219 C 4.787109 45.574219 2.425781 43.212891 2.425781 40.306641 L 2.425781 7.693359 C 2.425781 4.787109 4.787109 2.425781 7.693359 2.425781 Z M 7.693359 2.425781 " transform="matrix(0.666667,0,0,0.666667,0,0)"/>
<path style=" stroke:none;fill-rule:nonzero;fill:rgb(100%,100%,100%);fill-opacity:1;" d="M 7.347656 11.269531 L 10.027344 11.269531 L 13.003906 17.011719 L 16.109375 10.894531 L 19.324219 17.066406 L 22.1875 11.269531 L 24.84375 11.269531 L 19.378906 21.832031 L 16.132812 15.050781 L 12.882812 21.832031 Z M 7.347656 11.269531 "/>
</g>
</svg>
