
<svg xmlns="http://www.w3.org/2000/svg" xmlns:xlink="http://www.w3.org/1999/xlink" width="32px" height="32px" viewBox="0 0 32 32" version="1.1">
<defs>
<radialGradient id="radial0" gradientUnits="userSpaceOnUse" cx="-495.987457" cy="-87.834587" fx="-495.987457" fy="-87.834587" r="88.03125" gradientTransform="matrix(0.0843187,0,0,0.0860087,55.495575,16.638596)">
<stop offset="0" style="stop-color:rgb(23.921569%,33.725491%,43.137255%);stop-opacity:1;"/>
<stop offset="1" style="stop-color:rgb(23.921569%,33.725491%,43.137255%);stop-opacity:0;"/>
</radialGradient>
<linearGradient id="linear0" gradientUnits="userSpaceOnUse" x1="-516.702759" y1="20.883038" x2="-518.813416" y2="29.600176" gradientTransform="matrix(0.0843187,0,0,0.0843187,55.495575,14.996422)">
<stop offset="0" style="stop-color:rgb(45.490196%,40.784314%,42.352942%);stop-opacity:1;"/>
<stop offset="1" style="stop-color:rgb(89.411765%,88.235295%,88.627452%);stop-opacity:1;"/>
</linearGradient>
<linearGradient id="linear1" gradientUnits="userSpaceOnUse" x1="-130.897247" y1="16.472939" x2="-128.056137" y2="38.053318" gradientTransform="matrix(0.0843187,0,0,0.0843187,34.415911,14.996422)">
<stop offset="0" style="stop-color:rgb(45.490196%,40.784314%,42.352942%);stop-opacity:1;"/>
<stop offset="1" style="stop-color:rgb(89.411765%,88.235295%,88.627452%);stop-opacity:1;"/>
</linearGradient>
<radialGradient id="radial1" gradientUnits="userSpaceOnUse" cx="-500.146637" cy="-15.092947" fx="-500.146637" fy="-15.092947" r="26.649689" gradientTransform="matrix(0.0843187,0,0,0.0281815,55.495575,14.149147)">
<stop offset="0" style="stop-color:rgb(98.039216%,82.745099%,29.411766%);stop-opacity:1;"/>
<stop offset="1" style="stop-color:rgb(98.039216%,73.725492%,21.568628%);stop-opacity:1;"/>
</radialGradient>
<radialGradient id="radial2" gradientUnits="userSpaceOnUse" cx="-400.115356" cy="-16.508318" fx="-400.115356" fy="-16.508318" r="15.88463" gradientTransform="matrix(0.0843187,0,0,0.0451287,55.495575,14.349462)">
<stop offset="0" style="stop-color:rgb(98.039216%,82.745099%,29.411766%);stop-opacity:1;"/>
<stop offset="1" style="stop-color:rgb(98.039216%,73.725492%,21.568628%);stop-opacity:1;"/>
</radialGradient>
</defs>
<g id="surface1">
<path style="fill-rule:nonzero;fill:rgb(68.235296%,57.647061%,50.588238%);fill-opacity:1;stroke-width:27.565153;stroke-linecap:butt;stroke-linejoin:miter;stroke:rgb(20%,27.843139%,36.078432%);stroke-opacity:1;stroke-miterlimit:4;" d="M 85.375 30.1875 L 426.625 30.1875 C 457.0625 30.1875 481.8125 54.9375 481.8125 85.375 L 481.8125 426.625 C 481.8125 457.0625 457.0625 481.8125 426.625 481.8125 L 85.375 481.8125 C 54.9375 481.8125 30.1875 457.0625 30.1875 426.625 L 30.1875 85.375 C 30.1875 54.9375 54.9375 30.1875 85.375 30.1875 Z M 85.375 30.1875 " transform="matrix(0.0625,0,0,0.0625,0,0)"/>
<path style=" stroke:none;fill-rule:nonzero;fill:rgb(63.137257%,50.980395%,43.137255%);fill-opacity:1;" d="M 5.617188 2.839844 L 15.78125 17.289062 L 11.511719 2.839844 Z M 15.78125 17.289062 L 20.460938 2.839844 L 15.617188 2.839844 Z M 15.78125 17.289062 L 29.328125 9.980469 L 29.328125 4.675781 C 29.328125 4.003906 28.964844 3.414062 28.421875 3.097656 Z M 15.78125 17.289062 L 29.328125 19.8125 L 29.328125 13.324219 Z M 15.78125 17.289062 L 21.628906 29.292969 L 27.484375 29.292969 C 28.277344 29.292969 28.949219 28.800781 29.210938 28.101562 Z M 15.78125 17.289062 L 11.871094 29.292969 L 16.402344 29.292969 Z M 15.78125 17.289062 L 2.976562 28.46875 C 3.308594 28.964844 3.871094 29.292969 4.515625 29.292969 L 8.363281 29.292969 Z M 15.78125 17.289062 L 2.671875 17.542969 L 2.671875 24.5 Z M 15.78125 17.289062 L 2.671875 10.066406 L 2.671875 14.949219 Z M 15.78125 17.289062 "/>
<path style=" stroke:none;fill-rule:nonzero;fill:rgb(0%,0%,0%);fill-opacity:1;" d="M 19.957031 24.804688 C 18.332031 24.667969 17.574219 24.476562 17.292969 24.140625 C 17.226562 24.058594 17.019531 24.019531 16.675781 24.019531 C 15.941406 24.015625 15.222656 23.828125 14.949219 23.566406 C 14.777344 23.402344 14.628906 23.34375 14.382812 23.34375 C 13.855469 23.34375 12.042969 23.089844 11.9375 23 C 11.875 22.949219 11.808594 22.960938 11.742188 23.039062 C 11.515625 23.3125 10.136719 23.441406 9.355469 23.261719 C 9.15625 23.214844 8.855469 23.15625 8.6875 23.132812 C 8.304688 23.074219 8.199219 22.808594 8.449219 22.539062 C 8.707031 22.265625 8.660156 22.042969 8.320312 21.921875 C 8.027344 21.816406 7.1875 21.234375 6.730469 20.820312 C 6.378906 20.507812 5.949219 19.804688 5.785156 19.285156 C 5.707031 19.035156 5.601562 18.699219 5.550781 18.539062 C 5.496094 18.371094 5.460938 17.8125 5.472656 17.253906 C 5.488281 16.113281 5.683594 15.332031 6.113281 14.6875 C 6.496094 14.109375 7.710938 12.917969 9.121094 11.738281 C 9.902344 11.082031 10.558594 10.449219 10.933594 9.980469 C 12.492188 8.054688 12.808594 7.703125 13.324219 7.355469 C 14.128906 6.804688 15.542969 6.433594 16.792969 6.445312 C 17.746094 6.457031 18.53125 6.695312 19.300781 7.210938 C 19.566406 7.390625 19.894531 7.585938 20.027344 7.644531 C 20.476562 7.839844 20.839844 8.183594 21.472656 9.015625 C 22.167969 9.941406 22.578125 10.695312 22.855469 11.582031 C 23.132812 12.457031 23.652344 13.472656 24.050781 13.902344 C 24.371094 14.25 25.246094 15.488281 25.480469 15.925781 C 25.535156 16.027344 25.609375 16.308594 25.644531 16.546875 C 25.683594 16.785156 25.773438 17.285156 25.847656 17.65625 C 26.144531 19.125 25.886719 20.574219 25.214844 21.246094 C 25.035156 21.425781 24.886719 21.589844 24.886719 21.613281 C 24.886719 21.636719 25.105469 21.660156 25.371094 21.660156 C 26.191406 21.660156 27.121094 22.226562 26.964844 22.628906 C 26.878906 22.851562 26.191406 23.097656 25.550781 23.136719 C 25.21875 23.15625 24.925781 23.191406 24.902344 23.214844 C 24.878906 23.238281 24.914062 23.261719 24.980469 23.261719 C 25.175781 23.269531 25.5 23.585938 25.449219 23.71875 C 25.332031 24.03125 23.851562 24.46875 22.449219 24.609375 C 20.757812 24.777344 20.167969 24.824219 19.957031 24.804688 Z M 19.957031 24.804688 "/>
<path style=" stroke:none;fill-rule:nonzero;fill:rgb(22.745098%,31.764707%,40.784314%);fill-opacity:1;" d="M 15.007812 7.074219 C 13.917969 7.480469 12.699219 8.015625 12.125 9.207031 C 11.648438 10.207031 10.652344 10.980469 9.820312 11.660156 C 8.789062 12.226562 7.597656 13.636719 6.902344 14.527344 C 6.226562 15.535156 6.167969 15.902344 5.882812 17.125 C 5.605469 18.304688 6.316406 19.570312 6.859375 20.515625 C 7.519531 21.246094 8.753906 21.644531 9.238281 22.269531 C 8.636719 22.277344 8.210938 23.042969 9.046875 23.082031 C 9.84375 23.191406 11.199219 23.441406 11.652344 22.761719 C 10.960938 21.960938 12.140625 23.019531 12.574219 22.914062 C 13.628906 23.328125 14.695312 22.824219 15.769531 22.925781 C 16.214844 22.894531 17.238281 23.140625 16.246094 23.035156 C 15.730469 22.792969 14.722656 23.355469 15.609375 23.683594 C 16.75 23.503906 17.652344 24.050781 18.613281 24.480469 C 20.0625 24.738281 21.046875 24.535156 22.417969 24.464844 C 23.105469 24.117188 24.191406 24.273438 24.6875 23.640625 C 23.628906 23.121094 22.640625 22.519531 21.472656 22.222656 C 20.550781 21.949219 19.117188 23.335938 18.941406 23.332031 C 19.878906 22.605469 20.871094 21.542969 22.191406 22.066406 C 23.328125 22.367188 24.28125 22.988281 25.546875 22.964844 C 26.746094 22.9375 26.800781 21.628906 25.621094 21.679688 C 25.121094 21.558594 23.855469 21.910156 23.855469 21.863281 C 24.988281 21.523438 25.335938 20.289062 25.628906 19.378906 C 25.613281 18.210938 25.585938 17.011719 25.089844 15.949219 C 24.339844 15.109375 23.828125 13.964844 23.039062 13.15625 C 22.597656 12.246094 22.253906 11.285156 21.710938 10.402344 C 21.226562 9.671875 20.820312 8.558594 19.992188 8.207031 C 19.234375 7.660156 18.441406 7.074219 17.523438 6.925781 C 16.675781 6.828125 15.804688 6.78125 15.007812 7.074219 Z M 15.007812 7.074219 "/>
<path style=" stroke:none;fill-rule:nonzero;fill:rgb(22.745098%,31.764707%,40.784314%);fill-opacity:1;" d="M 16.246094 6.851562 C 15.824219 6.863281 15.40625 6.929688 15.007812 7.074219 C 13.917969 7.480469 12.699219 8.015625 12.128906 9.207031 C 11.648438 10.207031 10.648438 10.980469 9.816406 11.660156 C 8.789062 12.226562 7.597656 13.632812 6.902344 14.523438 C 6.355469 15.339844 6.210938 15.742188 6.027344 16.507812 C 5.90625 17.246094 5.894531 17.988281 6.160156 18.730469 C 6.847656 20.175781 8.441406 21.121094 10.050781 21.039062 C 12.113281 21.484375 14.183594 20.878906 16.238281 20.734375 C 17.925781 20.785156 19.777344 21.488281 21.292969 20.386719 C 22.410156 19.324219 22.683594 17.667969 22.917969 16.214844 C 23.269531 14.417969 20.035156 14.253906 21.484375 12.390625 C 21.722656 11.824219 21.828125 11.207031 21.816406 10.582031 C 21.785156 10.523438 21.746094 10.464844 21.710938 10.402344 C 21.226562 9.671875 20.824219 8.554688 19.992188 8.207031 C 19.234375 7.660156 18.441406 7.074219 17.523438 6.925781 C 17.101562 6.878906 16.671875 6.839844 16.246094 6.851562 Z M 26.15625 21.777344 C 25.902344 21.808594 25.648438 21.882812 25.394531 21.914062 C 25.011719 21.972656 24.964844 22.496094 25.3125 22.652344 C 25.441406 22.746094 25.5625 22.851562 25.6875 22.949219 C 26.539062 22.855469 26.714844 22.058594 26.15625 21.777344 Z M 9.519531 22.386719 C 9.253906 22.386719 9.023438 22.402344 8.9375 22.429688 C 8.847656 22.460938 8.746094 22.519531 8.640625 22.589844 C 8.640625 22.589844 8.636719 22.589844 8.636719 22.589844 C 8.503906 22.808594 8.574219 23.058594 9.046875 23.082031 C 9.628906 23.160156 10.511719 23.316406 11.121094 23.128906 C 11.027344 23.023438 10.902344 22.933594 10.867188 22.863281 C 10.792969 22.714844 10.707031 22.648438 10.589844 22.53125 C 10.488281 22.433594 9.957031 22.386719 9.519531 22.386719 Z M 21.324219 22.636719 C 20.753906 22.632812 20.199219 22.714844 19.644531 22.863281 C 19.285156 23.113281 19.011719 23.332031 18.9375 23.332031 C 19.109375 23.199219 19.28125 23.058594 19.457031 22.917969 C 19.175781 23 18.894531 23.097656 18.621094 23.207031 C 17.683594 23.238281 16.519531 22.636719 15.589844 22.910156 C 15.652344 22.914062 15.710938 22.917969 15.769531 22.925781 C 16.214844 22.894531 17.238281 23.144531 16.246094 23.039062 C 15.730469 22.792969 14.722656 23.355469 15.605469 23.683594 C 16.75 23.503906 17.65625 24.050781 18.613281 24.480469 C 20.0625 24.738281 21.050781 24.535156 22.421875 24.464844 C 23.105469 24.117188 24.191406 24.273438 24.6875 23.636719 C 24.175781 23.386719 23.683594 23.121094 23.175781 22.875 C 22.859375 22.808594 22.542969 22.765625 22.253906 22.722656 C 21.941406 22.667969 21.628906 22.636719 21.324219 22.636719 Z M 21.324219 22.636719 "/>
<path style=" stroke:none;fill-rule:nonzero;fill:rgb(22.745098%,31.764707%,40.784314%);fill-opacity:1;" d="M 16.246094 6.851562 C 15.824219 6.863281 15.40625 6.929688 15.007812 7.074219 C 13.917969 7.480469 12.699219 8.015625 12.128906 9.207031 C 11.648438 10.207031 10.648438 10.980469 9.816406 11.660156 C 8.789062 12.226562 7.597656 13.632812 6.902344 14.523438 C 6.230469 15.535156 6.167969 15.902344 5.882812 17.125 C 5.847656 17.273438 5.828125 17.421875 5.820312 17.570312 C 5.824219 17.574219 5.820312 17.574219 5.820312 17.578125 C 5.910156 18.046875 6.09375 18.484375 6.445312 18.851562 C 7.808594 20.769531 10.191406 21.144531 12.378906 20.898438 C 14.804688 20.066406 17.0625 20.410156 19.464844 20.285156 C 21.570312 20.195312 22.929688 17.351562 22.019531 15.5625 C 20.574219 14.707031 20.328125 12.816406 21.199219 11.480469 C 21.121094 10.878906 21.175781 10.195312 21.195312 9.519531 C 20.878906 8.96875 20.523438 8.433594 19.992188 8.207031 C 19.234375 7.660156 18.441406 7.074219 17.523438 6.925781 C 17.101562 6.878906 16.671875 6.839844 16.246094 6.851562 Z M 26.273438 21.851562 C 25.480469 21.902344 25.382812 22.527344 25.636719 22.957031 C 26.464844 22.894531 26.691406 22.1875 26.273438 21.851562 Z M 9.800781 22.488281 C 9.339844 22.488281 8.917969 22.707031 8.675781 22.972656 C 8.75 23.035156 8.871094 23.074219 9.046875 23.082031 C 9.566406 23.152344 10.316406 23.28125 10.90625 23.175781 C 10.914062 22.941406 10.710938 22.699219 10.183594 22.539062 C 10.054688 22.503906 9.925781 22.488281 9.800781 22.488281 Z M 21.765625 22.707031 C 20.824219 22.898438 19.964844 23.113281 19.109375 23.242188 C 19.027344 23.292969 18.964844 23.332031 18.9375 23.332031 C 18.972656 23.308594 19.007812 23.277344 19.042969 23.253906 C 18.089844 23.386719 17.144531 23.402344 16.117188 23.132812 C 15.800781 23.308594 15.617188 23.488281 15.53125 23.652344 C 15.554688 23.664062 15.582031 23.675781 15.605469 23.683594 C 16.75 23.503906 17.65625 24.050781 18.613281 24.480469 C 20.0625 24.738281 21.050781 24.535156 22.421875 24.464844 C 22.984375 24.179688 23.816406 24.234375 24.371094 23.914062 C 23.902344 23.160156 22.527344 23.011719 21.765625 22.707031 Z M 21.765625 22.707031 "/>
<path style=" stroke:none;fill-rule:nonzero;fill:rgb(22.745098%,30.980393%,38.82353%);fill-opacity:1;" d="M 16.246094 6.851562 C 15.824219 6.863281 15.40625 6.929688 15.007812 7.074219 C 13.917969 7.480469 12.699219 8.015625 12.128906 9.207031 C 11.648438 10.207031 10.648438 10.980469 9.816406 11.660156 C 8.789062 12.226562 7.597656 13.632812 6.902344 14.523438 C 6.253906 15.496094 6.171875 15.878906 5.914062 16.988281 C 5.960938 17.714844 6.199219 18.417969 6.710938 18.945312 C 7.550781 19.679688 8.617188 20.261719 9.714844 20.339844 C 11.027344 20.429688 12.34375 20.035156 13.65625 20.027344 C 14.933594 19.976562 16.15625 19.402344 17.449219 19.605469 C 18.726562 19.625 19.773438 19.621094 20.816406 18.851562 C 21.644531 18.238281 21.671875 16.972656 21.804688 16.011719 C 21.175781 15.054688 20.035156 13.878906 20.351562 12.683594 C 21.011719 11.523438 20.792969 10.003906 20.691406 8.761719 C 20.492188 8.523438 20.265625 8.324219 19.992188 8.207031 C 19.234375 7.660156 18.441406 7.074219 17.523438 6.925781 C 17.101562 6.878906 16.671875 6.839844 16.246094 6.851562 Z M 25.972656 22.003906 C 25.667969 22.347656 25.859375 22.621094 26.183594 22.78125 C 26.4375 22.601562 26.527344 22.324219 26.449219 22.09375 C 26.289062 22.066406 26.128906 22.042969 25.972656 22.003906 Z M 9.421875 22.566406 C 9.109375 22.578125 8.808594 22.707031 8.597656 22.878906 C 8.648438 22.988281 8.785156 23.070312 9.046875 23.082031 C 9.535156 23.148438 10.234375 23.265625 10.808594 23.191406 C 10.78125 23.0625 10.691406 22.914062 10.503906 22.746094 C 10.324219 22.644531 10.105469 22.636719 9.902344 22.648438 C 9.746094 22.582031 9.582031 22.558594 9.421875 22.566406 Z M 21.832031 23.019531 C 20.53125 23.128906 19.960938 23.574219 18.664062 23.664062 C 17.566406 23.546875 16.492188 23.21875 15.378906 23.449219 C 15.351562 23.460938 15.324219 23.476562 15.300781 23.488281 C 15.347656 23.558594 15.449219 23.625 15.605469 23.683594 C 16.75 23.503906 17.65625 24.050781 18.613281 24.480469 C 20.0625 24.738281 21.050781 24.535156 22.421875 24.464844 C 22.988281 24.175781 23.828125 24.234375 24.382812 23.90625 C 23.988281 23.34375 22.339844 23.125 21.832031 23.019531 Z M 21.832031 23.019531 "/>
<path style=" stroke:none;fill-rule:nonzero;fill:url(#radial0);" d="M 16.246094 6.851562 C 15.824219 6.863281 15.40625 6.929688 15.007812 7.074219 C 13.917969 7.480469 12.699219 8.015625 12.128906 9.207031 C 11.648438 10.207031 10.648438 10.980469 9.816406 11.660156 C 8.945312 12.140625 7.960938 13.222656 7.253906 14.082031 C 7.257812 14.199219 7.273438 14.316406 7.3125 14.429688 C 7.824219 14.570312 8.535156 14.324219 8.925781 14.050781 C 9.628906 13.753906 11.445312 11.824219 12.136719 11.699219 C 12.449219 12.652344 13.972656 12.769531 15.988281 11.636719 C 16.621094 11.296875 18.261719 10.039062 17.742188 7.953125 C 17.933594 8.160156 19.394531 8.605469 20.511719 9.519531 C 20.953125 9.882812 21.472656 10.734375 22.097656 11.109375 C 21.980469 10.871094 21.851562 10.632812 21.710938 10.402344 C 21.226562 9.671875 20.824219 8.554688 19.992188 8.207031 C 19.234375 7.660156 18.441406 7.074219 17.523438 6.925781 C 17.101562 6.878906 16.671875 6.839844 16.246094 6.851562 Z M 16.246094 6.851562 "/>
<path style=" stroke:none;fill-rule:nonzero;fill:rgb(0%,0%,0%);fill-opacity:1;" d="M 16.355469 16.714844 C 14.777344 16.894531 13.011719 16.460938 11.46875 16.175781 C 10.464844 15.988281 9.257812 15.765625 9.023438 16.886719 C 8.847656 17.722656 9.292969 18.355469 10.058594 18.558594 C 11.238281 18.867188 12.898438 18.25 14.359375 17.96875 C 15.171875 17.808594 16.230469 17.597656 17.136719 17.527344 C 18.332031 17.441406 19.492188 17.285156 20.722656 17.363281 C 22.066406 17.449219 23.402344 17.761719 24.777344 18.261719 C 25.542969 18.542969 25.308594 16.636719 24.765625 16.160156 C 24.257812 15.714844 23.554688 15.710938 22.886719 15.980469 C 20.839844 16.800781 18.550781 16.464844 16.355469 16.714844 Z M 16.355469 16.714844 "/>
<path style=" stroke:none;fill-rule:nonzero;fill:rgb(9.803922%,7.843138%,11.764706%);fill-opacity:1;" d="M 23.886719 16.164062 C 23.632812 16.144531 23.347656 16.199219 23.054688 16.316406 C 20.878906 17.1875 18.554688 16.835938 16.425781 17.074219 C 14.746094 17.269531 12.949219 16.816406 11.421875 16.53125 C 10.921875 16.4375 10.394531 16.355469 10.035156 16.402344 C 9.855469 16.425781 9.726562 16.476562 9.636719 16.550781 C 9.542969 16.628906 9.472656 16.730469 9.425781 16.941406 C 9.355469 17.277344 9.414062 17.527344 9.542969 17.722656 C 9.667969 17.921875 9.878906 18.074219 10.183594 18.152344 C 11.15625 18.410156 12.800781 17.855469 14.308594 17.5625 C 15.121094 17.402344 16.1875 17.1875 17.136719 17.117188 C 18.3125 17.027344 19.492188 16.867188 20.769531 16.949219 C 22.132812 17.035156 23.492188 17.351562 24.871094 17.847656 C 24.886719 17.777344 24.910156 17.65625 24.902344 17.492188 C 24.871094 17.074219 24.632812 16.511719 24.535156 16.425781 C 24.347656 16.261719 24.136719 16.183594 23.886719 16.164062 Z M 23.886719 16.164062 "/>
<path style=" stroke:none;fill-rule:nonzero;fill:rgb(0%,0%,0%);fill-opacity:0.4;" d="M 23.789062 16.160156 C 23.558594 16.160156 23.308594 16.210938 23.058594 16.316406 C 22.003906 16.738281 20.914062 16.871094 19.828125 16.925781 C 20.136719 16.921875 20.449219 16.929688 20.769531 16.949219 C 20.902344 16.957031 21.039062 16.96875 21.175781 16.984375 C 21.839844 16.894531 22.496094 16.742188 23.140625 16.480469 C 23.429688 16.367188 23.71875 16.316406 23.972656 16.332031 C 24.222656 16.347656 24.433594 16.429688 24.621094 16.59375 C 24.636719 16.609375 24.660156 16.644531 24.683594 16.683594 C 24.625 16.554688 24.570312 16.457031 24.535156 16.425781 C 24.347656 16.261719 24.136719 16.183594 23.886719 16.164062 C 23.855469 16.160156 23.824219 16.160156 23.789062 16.160156 Z M 10.332031 16.386719 C 10.222656 16.386719 10.125 16.386719 10.035156 16.402344 C 9.855469 16.425781 9.726562 16.476562 9.636719 16.550781 C 9.546875 16.625 9.472656 16.730469 9.429688 16.941406 C 9.359375 17.273438 9.414062 17.523438 9.539062 17.722656 C 9.476562 17.554688 9.460938 17.355469 9.511719 17.109375 C 9.558594 16.898438 9.628906 16.792969 9.722656 16.71875 C 9.8125 16.644531 9.941406 16.59375 10.121094 16.570312 C 10.480469 16.519531 11.007812 16.605469 11.507812 16.699219 C 12.816406 16.941406 14.320312 17.308594 15.78125 17.289062 C 16.234375 17.214844 16.699219 17.148438 17.136719 17.113281 C 17.835938 17.0625 18.535156 16.988281 19.257812 16.949219 C 18.292969 16.976562 17.34375 16.972656 16.425781 17.074219 C 14.746094 17.265625 12.949219 16.816406 11.425781 16.53125 C 11.046875 16.460938 10.65625 16.394531 10.332031 16.386719 Z M 19.257812 16.949219 C 19.4375 16.941406 19.617188 16.9375 19.796875 16.925781 C 19.617188 16.933594 19.433594 16.941406 19.257812 16.949219 Z M 19.257812 16.949219 "/>
<path style=" stroke:none;fill-rule:nonzero;fill:rgb(0%,0%,0%);fill-opacity:1;" d="M 12.074219 16.464844 C 11.730469 16.441406 11.371094 16.441406 11.027344 16.445312 C 10.769531 16.480469 10.542969 16.511719 10.574219 16.773438 C 10.59375 17.058594 10.824219 17.402344 11.027344 17.582031 C 11.238281 17.765625 11.441406 17.902344 11.714844 17.957031 C 11.949219 17.996094 12.230469 17.84375 12.441406 17.757812 C 12.714844 17.628906 13.085938 17.402344 13.265625 17.160156 C 13.367188 17.011719 13.347656 16.933594 13.246094 16.769531 C 13.152344 16.640625 12.898438 16.691406 12.757812 16.621094 C 12.527344 16.523438 12.324219 16.488281 12.074219 16.464844 Z M 12.074219 16.464844 "/>
<path style=" stroke:none;fill-rule:nonzero;fill:url(#linear0);" d="M 11.042969 16.546875 C 10.519531 16.714844 11.472656 17.527344 11.855469 17.683594 C 12.152344 17.617188 12.886719 17.164062 12.910156 16.828125 C 12.246094 16.445312 11.824219 16.542969 11.042969 16.546875 Z M 11.042969 16.546875 "/>
<path style=" stroke:none;fill-rule:nonzero;fill:rgb(0%,0%,0%);fill-opacity:1;" d="M 23.957031 16.085938 C 23.957031 16.085938 23.761719 16.078125 23.464844 16.136719 C 23.167969 16.195312 22.871094 16.214844 22.59375 16.421875 C 22.511719 16.484375 22.332031 16.519531 22.351562 16.621094 C 22.425781 16.988281 22.703125 17.203125 22.925781 17.328125 C 23.148438 17.453125 23.355469 17.503906 23.355469 17.503906 C 23.410156 17.515625 23.464844 17.511719 23.519531 17.496094 C 23.519531 17.496094 23.753906 17.410156 23.953125 17.203125 C 24.152344 16.992188 24.324219 16.613281 24.226562 16.136719 C 24.199219 16.003906 24.089844 16.074219 23.957031 16.085938 Z M 23.957031 16.085938 "/>
<path style=" stroke:none;fill-rule:nonzero;fill:url(#linear1);" d="M 22.628906 16.566406 C 23.027344 16.269531 23.949219 16.195312 23.949219 16.195312 C 24.113281 16.984375 23.425781 17.230469 23.425781 17.230469 C 23.425781 17.230469 22.726562 17.054688 22.628906 16.566406 Z M 22.628906 16.566406 "/>
<path style=" stroke:none;fill-rule:nonzero;fill:rgb(0%,0%,0%);fill-opacity:1;" d="M 22.269531 12.605469 C 21.972656 12.601562 21.65625 12.699219 21.355469 12.886719 C 21.121094 13.035156 20.847656 13.285156 20.613281 13.519531 C 20.496094 13.640625 20.390625 13.753906 20.308594 13.859375 C 20.269531 13.910156 20.230469 13.960938 20.203125 14.011719 C 20.175781 14.050781 20.136719 14.117188 20.136719 14.234375 C 20.136719 14.273438 20.136719 14.316406 20.148438 14.363281 C 20.152344 14.386719 20.160156 14.417969 20.183594 14.457031 C 20.191406 14.472656 20.210938 14.503906 20.25 14.539062 C 20.292969 14.574219 20.363281 14.609375 20.449219 14.605469 C 20.5 14.605469 20.511719 14.601562 20.488281 14.605469 C 20.496094 14.605469 20.5 14.601562 20.507812 14.601562 C 20.523438 14.597656 20.546875 14.59375 20.574219 14.589844 C 20.625 14.582031 20.699219 14.570312 20.789062 14.554688 C 20.96875 14.523438 21.210938 14.480469 21.480469 14.433594 C 21.742188 14.390625 22.007812 14.347656 22.21875 14.316406 C 22.324219 14.300781 22.421875 14.289062 22.496094 14.28125 C 22.53125 14.277344 22.558594 14.273438 22.582031 14.269531 C 22.605469 14.269531 22.628906 14.269531 22.617188 14.269531 C 22.839844 14.269531 23.050781 14.207031 23.203125 14.058594 C 23.359375 13.90625 23.414062 13.667969 23.359375 13.457031 C 23.230469 12.933594 22.773438 12.609375 22.269531 12.605469 Z M 22.269531 12.605469 "/>
<path style=" stroke:none;fill-rule:nonzero;fill:rgb(34.117648%,13.725491%,4.705882%);fill-opacity:1;" d="M 22.316406 12.953125 C 21.832031 12.949219 21.300781 12.988281 20.953125 13.308594 C 20.679688 13.554688 20.484375 13.734375 20.28125 14.042969 C 20.191406 14.191406 20.183594 14.285156 20.210938 14.46875 C 20.324219 14.511719 20.855469 14.394531 20.96875 14.355469 C 21.808594 14.058594 21.847656 14.175781 22.492188 14.117188 C 22.757812 14.121094 22.949219 14.066406 23.039062 13.800781 C 23.140625 13.503906 22.730469 13.484375 22.535156 13.269531 C 22.335938 13.0625 22.597656 12.957031 22.316406 12.953125 Z M 22.316406 12.953125 "/>
<path style=" stroke:none;fill-rule:nonzero;fill:rgb(0%,0%,0%);fill-opacity:1;" d="M 13 12.589844 C 12.378906 12.589844 12.128906 12.660156 11.625 12.988281 C 11.347656 13.171875 11.113281 13.355469 10.949219 13.539062 C 10.867188 13.628906 10.792969 13.726562 10.746094 13.839844 C 10.691406 13.964844 10.652344 14.160156 10.761719 14.339844 C 10.800781 14.402344 10.84375 14.449219 10.894531 14.476562 C 10.949219 14.503906 10.996094 14.519531 10.964844 14.503906 C 10.992188 14.515625 11.019531 14.519531 11.042969 14.527344 C 11.089844 14.539062 11.128906 14.542969 11.175781 14.550781 C 11.277344 14.566406 11.40625 14.582031 11.558594 14.59375 C 11.863281 14.621094 12.265625 14.644531 12.707031 14.660156 C 13.574219 14.699219 14.535156 14.757812 14.71875 14.785156 C 15.066406 14.832031 15.246094 14.859375 15.402344 14.859375 C 15.480469 14.859375 15.578125 14.855469 15.679688 14.808594 C 15.796875 14.753906 15.859375 14.671875 15.898438 14.613281 C 15.996094 14.449219 15.933594 14.265625 15.917969 14.226562 C 15.894531 14.167969 15.859375 14.128906 15.839844 14.105469 C 15.796875 14.046875 15.746094 13.996094 15.6875 13.9375 C 15.566406 13.824219 15.414062 13.699219 15.242188 13.558594 C 14.894531 13.285156 14.488281 12.996094 14.171875 12.824219 C 13.847656 12.648438 13.527344 12.589844 13 12.589844 Z M 13 12.589844 "/>
<path style=" stroke:none;fill-rule:nonzero;fill:rgb(34.117648%,13.725491%,4.705882%);fill-opacity:1;" d="M 11.699219 13 C 11.332031 13.230469 11.003906 13.464844 10.785156 13.847656 C 10.605469 14.152344 10.914062 14.386719 11.160156 14.378906 C 11.546875 14.441406 12.066406 14.21875 12.457031 14.246094 C 13.4375 14.296875 14.277344 14.546875 15.253906 14.691406 C 15.4375 14.707031 15.675781 14.707031 15.765625 14.503906 C 15.875 14.269531 15.597656 14.101562 15.464844 13.953125 C 15.058594 13.613281 14.695312 13.316406 14.246094 13.042969 C 13.628906 12.816406 12.683594 12.820312 11.699219 13 Z M 11.699219 13 "/>
<path style=" stroke:none;fill-rule:nonzero;fill:url(#radial1);" d="M 15.566406 14.410156 C 15.625 14.316406 14.535156 13.457031 13.988281 13.160156 C 13.714844 13.011719 13.503906 12.972656 12.996094 12.972656 C 12.394531 12.972656 12.328125 12.992188 11.835938 13.3125 C 11.316406 13.652344 11.003906 13.996094 11.089844 14.136719 C 11.117188 14.175781 11.851562 14.242188 12.722656 14.277344 C 13.59375 14.3125 14.515625 14.371094 14.769531 14.402344 C 15.460938 14.496094 15.511719 14.496094 15.566406 14.410156 Z M 15.566406 14.410156 "/>
<path style=" stroke:none;fill-rule:nonzero;fill:url(#radial2);" d="M 21.429688 14.152344 C 21.964844 14.058594 22.496094 13.984375 22.617188 13.984375 C 22.960938 13.984375 23.152344 13.796875 23.082031 13.527344 C 22.917969 12.871094 22.199219 12.6875 21.511719 13.128906 C 21.117188 13.378906 20.417969 14.089844 20.417969 14.234375 C 20.417969 14.285156 20.429688 14.320312 20.441406 14.320312 C 20.449219 14.320312 20.898438 14.246094 21.429688 14.152344 Z M 21.429688 14.152344 "/>
<path style=" stroke:none;fill-rule:nonzero;fill:rgb(0%,0%,0%);fill-opacity:1;" d="M 11.917969 12.859375 C 11.242188 13.078125 10.636719 13.496094 10.160156 14.011719 C 9.863281 14.410156 10.746094 14.953125 10.746094 14.519531 C 10.308594 14.132812 10.886719 13.636719 11.207031 13.398438 C 11.433594 13.207031 11.722656 13.089844 11.917969 12.859375 Z M 11.917969 12.859375 "/>
<path style=" stroke:none;fill-rule:nonzero;fill:rgb(0%,0%,0%);fill-opacity:1;" d="M 15.1875 13.550781 C 15.636719 13.738281 15.988281 14.183594 16.082031 14.660156 C 16.199219 14.914062 15.652344 15.296875 15.898438 14.871094 C 15.964844 14.316406 15.386719 14.003906 15.1875 13.550781 Z M 15.1875 13.550781 "/>
<path style=" stroke:none;fill-rule:nonzero;fill:rgb(18.039216%,20.784314%,24.705882%);fill-opacity:1;" d="M 18.480469 11.871094 C 18.605469 11.933594 18.738281 12.027344 18.746094 12.175781 C 18.878906 12.707031 18.910156 13.277344 18.734375 13.800781 C 18.644531 14.019531 18.457031 14.179688 18.308594 14.359375 C 18.214844 14.445312 18.074219 14.378906 18.019531 14.277344 C 17.925781 14.136719 17.945312 13.953125 18.003906 13.800781 C 18.0625 13.621094 18.140625 13.445312 18.152344 13.253906 C 18.191406 12.960938 18.238281 12.664062 18.34375 12.386719 C 18.394531 12.214844 18.441406 12.046875 18.480469 11.871094 Z M 18.480469 11.871094 "/>
<path style=" stroke:none;fill-rule:nonzero;fill:rgb(0%,0%,0%);fill-opacity:1;" d="M 18.6875 14.027344 C 18.066406 14.246094 18.453125 13.316406 18.578125 13.027344 C 18.773438 12.246094 18.78125 13.488281 18.6875 14.027344 Z M 18.6875 14.027344 "/>
<path style=" stroke:none;fill-rule:nonzero;fill:rgb(0%,0%,0%);fill-opacity:1;" d="M 20.957031 13.019531 C 21.214844 12.265625 22.21875 12.070312 22.382812 11.261719 C 22.617188 11.132812 22.484375 12.003906 22.230469 12.082031 C 21.910156 12.503906 21.464844 12.855469 20.957031 13.019531 Z M 20.957031 13.019531 "/>
<path style=" stroke:none;fill-rule:nonzero;fill:rgb(0%,0%,0%);fill-opacity:1;" d="M 22.617188 14.292969 C 22.964844 14.175781 23.949219 14.585938 23.847656 13.824219 C 23.425781 13.808594 23 14.097656 22.617188 14.292969 Z M 22.617188 14.292969 "/>
</g>
</svg>
