
<svg xmlns="http://www.w3.org/2000/svg" xmlns:xlink="http://www.w3.org/1999/xlink" width="32px" height="32px" viewBox="0 0 32 32" version="1.1">
<g id="surface1">
<path style="fill-rule:nonzero;fill:rgb(100%,100%,100%);fill-opacity:1;stroke-width:57.047081;stroke-linecap:butt;stroke-linejoin:miter;stroke:rgb(20%,20%,20%);stroke-opacity:1;stroke-miterlimit:4;" d="M 158.875 44.75 L 865.125 44.75 C 928.125 44.75 979.25 95.875 979.25 158.875 L 979.25 865.125 C 979.25 928.125 928.125 979.25 865.125 979.25 L 158.875 979.25 C 95.875 979.25 44.75 928.125 44.75 865.125 L 44.75 158.875 C 44.75 95.875 95.875 44.75 158.875 44.75 Z M 158.875 44.75 " transform="matrix(0.03125,0,0,0.03125,0,0)"/>
<path style=" stroke:none;fill-rule:nonzero;fill:rgb(0%,0%,0%);fill-opacity:0.0980392;" d="M 27.410156 12.222656 C 27.269531 11.882812 27.113281 11.550781 26.9375 11.226562 C 26.839844 11.042969 26.730469 10.859375 26.621094 10.679688 C 26.144531 9.902344 25.5625 9.171875 24.875 8.484375 C 22.621094 6.234375 19.90625 5.109375 16.722656 5.109375 C 13.539062 5.109375 10.820312 6.234375 8.570312 8.484375 C 6.320312 10.738281 5.191406 13.453125 5.191406 16.636719 C 5.191406 19.820312 6.320312 22.539062 8.570312 24.789062 C 10.820312 27.039062 13.539062 28.164062 16.722656 28.164062 C 19.90625 28.164062 22.621094 27.039062 24.875 24.789062 C 26.113281 23.550781 27.011719 22.167969 27.570312 20.644531 C 28.023438 19.402344 28.25 18.066406 28.25 16.636719 C 28.25 15.539062 28.117188 14.496094 27.847656 13.511719 C 27.816406 13.402344 27.785156 13.289062 27.753906 13.179688 C 27.652344 12.855469 27.539062 12.535156 27.410156 12.222656 Z M 27.410156 12.222656 "/>
<path style=" stroke:none;fill-rule:nonzero;fill:rgb(20%,20%,20%);fill-opacity:1;" d="M 21.488281 5.886719 C 21.277344 5.777344 21.050781 5.671875 20.824219 5.574219 C 20.613281 5.480469 20.402344 5.398438 20.191406 5.320312 C 19.164062 4.933594 18.132812 4.699219 17.101562 4.621094 C 15.40625 4.484375 13.707031 4.753906 12 5.425781 C 11.425781 5.652344 10.886719 5.910156 10.375 6.207031 C 9.363281 6.785156 8.480469 7.492188 7.722656 8.324219 C 6.882812 9.246094 6.195312 10.324219 5.660156 11.558594 C 5.164062 12.699219 4.855469 13.84375 4.734375 14.972656 C 4.722656 15.082031 4.714844 15.183594 4.707031 15.28125 C 4.613281 16.394531 4.699219 17.5 4.957031 18.605469 C 5.09375 19.203125 5.277344 19.792969 5.511719 20.382812 C 6.1875 22.089844 7.152344 23.519531 8.40625 24.660156 C 9.175781 25.359375 10.046875 25.949219 11.027344 26.4375 C 11.03125 26.441406 11.035156 26.441406 11.035156 26.441406 C 11.113281 26.480469 11.183594 26.515625 11.246094 26.542969 C 11.367188 26.601562 11.472656 26.648438 11.578125 26.695312 C 11.605469 26.707031 11.625 26.714844 11.644531 26.722656 C 11.878906 26.824219 12.105469 26.917969 12.328125 27 C 12.386719 27.019531 12.4375 27.039062 12.488281 27.058594 C 12.953125 27.222656 13.421875 27.355469 13.878906 27.457031 C 14.070312 27.496094 14.265625 27.535156 14.453125 27.566406 C 14.476562 27.570312 14.5 27.574219 14.519531 27.578125 C 14.800781 27.621094 15.085938 27.65625 15.367188 27.679688 C 17.074219 27.8125 18.769531 27.542969 20.46875 26.871094 C 21.0625 26.636719 21.621094 26.371094 22.148438 26.0625 C 23.003906 25.566406 23.769531 24.976562 24.449219 24.292969 C 24.546875 24.191406 24.644531 24.085938 24.746094 23.976562 C 24.949219 23.753906 25.148438 23.515625 25.339844 23.265625 C 25.828125 22.628906 26.253906 21.921875 26.621094 21.148438 C 26.6875 21.015625 26.75 20.878906 26.808594 20.738281 C 26.816406 20.722656 26.824219 20.707031 26.828125 20.691406 C 26.832031 20.683594 26.835938 20.675781 26.839844 20.667969 C 26.90625 20.511719 26.972656 20.347656 27.035156 20.183594 C 27.320312 19.433594 27.527344 18.675781 27.65625 17.910156 C 27.671875 17.800781 27.691406 17.683594 27.707031 17.570312 C 27.730469 17.390625 27.75 17.207031 27.765625 17.019531 C 27.769531 16.980469 27.769531 16.941406 27.773438 16.894531 C 27.808594 16.425781 27.808594 15.953125 27.777344 15.472656 C 27.765625 15.316406 27.753906 15.15625 27.734375 14.992188 C 27.730469 14.949219 27.722656 14.898438 27.71875 14.847656 C 27.667969 14.449219 27.597656 14.046875 27.5 13.636719 C 27.367188 13.070312 27.183594 12.492188 26.957031 11.917969 C 26.285156 10.210938 25.320312 8.789062 24.058594 7.636719 C 23.605469 7.222656 23.097656 6.839844 22.558594 6.492188 C 22.21875 6.277344 21.867188 6.074219 21.488281 5.886719 Z M 21.488281 5.886719 "/>
<path style=" stroke:none;fill-rule:nonzero;fill:rgb(0%,0%,0%);fill-opacity:0.298039;" d="M 21.316406 16.636719 C 21.316406 15.371094 20.867188 14.285156 19.96875 13.390625 C 19.074219 12.496094 17.992188 12.046875 16.722656 12.046875 C 15.453125 12.046875 14.371094 12.496094 13.476562 13.390625 C 12.578125 14.285156 12.128906 15.371094 12.128906 16.636719 C 12.128906 17.90625 12.578125 18.988281 13.476562 19.886719 C 14.371094 20.78125 15.453125 21.230469 16.722656 21.230469 C 17.992188 21.230469 19.074219 20.78125 19.96875 19.886719 C 20.867188 18.988281 21.316406 17.90625 21.316406 16.636719 Z M 21.316406 16.636719 "/>
<path style=" stroke:none;fill-rule:nonzero;fill:rgb(12.156863%,12.156863%,12.156863%);fill-opacity:1;" d="M 19.480469 12.902344 C 18.585938 12.003906 17.503906 11.558594 16.234375 11.558594 C 14.964844 11.558594 13.882812 12.003906 12.988281 12.902344 C 12.089844 13.800781 11.644531 14.878906 11.644531 16.148438 C 11.644531 17.417969 12.089844 18.5 12.988281 19.394531 C 13.882812 20.292969 14.964844 20.742188 16.234375 20.742188 C 17.503906 20.742188 18.585938 20.292969 19.480469 19.394531 C 20.378906 18.5 20.824219 17.417969 20.824219 16.148438 C 20.824219 14.878906 20.378906 13.800781 19.480469 12.902344 Z M 19.480469 12.902344 "/>
<path style=" stroke:none;fill-rule:nonzero;fill:rgb(0%,0%,0%);fill-opacity:0.2;" d="M 18.699219 14.570312 L 16.082031 15.332031 L 14.34375 14.902344 L 15.824219 16.386719 L 15.382812 17.78125 L 13.328125 17.339844 L 16.707031 20.71875 C 17.773438 20.621094 18.699219 20.179688 19.480469 19.394531 C 20.253906 18.625 20.691406 17.71875 20.800781 16.667969 Z M 18.699219 14.570312 "/>
<path style=" stroke:none;fill-rule:nonzero;fill:rgb(20%,100%,40.000001%);fill-opacity:1;" d="M 17.714844 15.0625 C 18.015625 15.0625 18.273438 15.167969 18.484375 15.378906 C 18.519531 15.417969 18.554688 15.453125 18.585938 15.492188 C 18.652344 15.578125 18.734375 15.625 18.839844 15.636719 C 18.945312 15.652344 19.042969 15.625 19.125 15.558594 C 19.207031 15.496094 19.257812 15.410156 19.269531 15.304688 C 19.285156 15.199219 19.257812 15.105469 19.191406 15.019531 C 19.144531 14.957031 19.089844 14.894531 19.027344 14.835938 C 18.667969 14.472656 18.230469 14.292969 17.714844 14.292969 C 17.203125 14.292969 16.765625 14.472656 16.402344 14.835938 C 16.339844 14.894531 16.285156 14.957031 16.234375 15.023438 C 16.183594 14.957031 16.128906 14.894531 16.066406 14.835938 C 15.707031 14.472656 15.269531 14.292969 14.753906 14.292969 C 14.714844 14.292969 14.671875 14.292969 14.628906 14.292969 C 14.523438 14.300781 14.4375 14.347656 14.367188 14.425781 C 14.296875 14.503906 14.265625 14.597656 14.269531 14.703125 C 14.277344 14.808594 14.324219 14.894531 14.402344 14.96875 C 14.480469 15.039062 14.574219 15.070312 14.679688 15.066406 C 14.703125 15.0625 14.730469 15.0625 14.753906 15.0625 C 15.054688 15.0625 15.308594 15.167969 15.523438 15.378906 C 15.738281 15.59375 15.839844 15.847656 15.84375 16.148438 C 15.839844 16.449219 15.738281 16.707031 15.523438 16.917969 C 15.308594 17.128906 15.054688 17.238281 14.753906 17.238281 C 14.453125 17.238281 14.199219 17.128906 13.984375 16.917969 C 13.949219 16.882812 13.914062 16.84375 13.886719 16.808594 C 13.820312 16.722656 13.734375 16.675781 13.628906 16.660156 C 13.523438 16.648438 13.429688 16.675781 13.347656 16.738281 C 13.261719 16.804688 13.214844 16.890625 13.199219 16.996094 C 13.1875 17.101562 13.214844 17.195312 13.277344 17.277344 C 13.324219 17.34375 13.378906 17.402344 13.441406 17.464844 C 13.800781 17.824219 14.242188 18.007812 14.753906 18.007812 C 15.269531 18.007812 15.707031 17.824219 16.066406 17.464844 C 16.128906 17.402344 16.183594 17.339844 16.234375 17.277344 C 16.285156 17.339844 16.339844 17.402344 16.402344 17.464844 C 16.765625 17.824219 17.203125 18.007812 17.714844 18.007812 C 17.757812 18.007812 17.800781 18.007812 17.839844 18.003906 C 17.945312 17.996094 18.035156 17.953125 18.101562 17.875 C 18.175781 17.792969 18.207031 17.699219 18.199219 17.597656 C 18.191406 17.488281 18.148438 17.402344 18.066406 17.332031 C 17.988281 17.261719 17.894531 17.230469 17.789062 17.234375 C 17.765625 17.238281 17.742188 17.238281 17.714844 17.238281 C 17.414062 17.238281 17.160156 17.128906 16.945312 16.917969 C 16.734375 16.707031 16.628906 16.449219 16.628906 16.148438 C 16.628906 15.847656 16.734375 15.59375 16.945312 15.378906 C 17.160156 15.167969 17.414062 15.0625 17.714844 15.0625 Z M 17.714844 15.0625 "/>
<path style=" stroke:none;fill-rule:nonzero;fill:rgb(0%,0%,0%);fill-opacity:0.0980392;" d="M 17.175781 6.964844 C 16.914062 6.707031 16.601562 6.574219 16.234375 6.574219 L 16.230469 6.574219 C 15.863281 6.574219 15.550781 6.707031 15.289062 6.964844 L 14.089844 8.167969 C 13.933594 8.320312 13.859375 8.503906 13.859375 8.714844 C 13.863281 8.933594 13.9375 9.113281 14.089844 9.265625 C 14.238281 9.414062 14.417969 9.492188 14.636719 9.492188 C 14.851562 9.492188 15.035156 9.417969 15.183594 9.265625 L 16.234375 8.21875 L 17.28125 9.265625 C 17.433594 9.417969 17.613281 9.492188 17.832031 9.492188 C 18.046875 9.492188 18.230469 9.414062 18.378906 9.265625 C 18.527344 9.113281 18.605469 8.933594 18.605469 8.71875 L 18.605469 8.714844 C 18.605469 8.503906 18.53125 8.324219 18.382812 8.171875 L 18.382812 8.167969 Z M 23.117188 14.003906 C 22.964844 14.152344 22.890625 14.335938 22.890625 14.550781 C 22.890625 14.765625 22.964844 14.949219 23.117188 15.101562 L 24.164062 16.148438 L 23.117188 17.195312 C 22.964844 17.347656 22.890625 17.53125 22.890625 17.746094 L 22.890625 17.75 C 22.890625 17.960938 22.964844 18.144531 23.117188 18.292969 C 23.269531 18.445312 23.449219 18.519531 23.660156 18.523438 L 23.667969 18.523438 C 23.878906 18.519531 24.058594 18.445312 24.210938 18.300781 L 25.417969 17.089844 C 25.675781 16.832031 25.808594 16.515625 25.808594 16.148438 C 25.808594 15.777344 25.675781 15.464844 25.417969 15.207031 L 24.214844 14.003906 C 24.0625 13.851562 23.878906 13.777344 23.667969 13.777344 C 23.453125 13.777344 23.269531 13.851562 23.117188 14.003906 Z M 8.804688 13.777344 L 8.796875 13.777344 C 8.589844 13.777344 8.40625 13.851562 8.253906 14 L 7.050781 15.207031 C 6.789062 15.46875 6.660156 15.78125 6.660156 16.148438 L 6.660156 16.152344 C 6.660156 16.519531 6.789062 16.832031 7.050781 17.09375 L 8.253906 18.292969 C 8.40625 18.445312 8.589844 18.523438 8.800781 18.523438 C 9.015625 18.519531 9.199219 18.445312 9.347656 18.292969 C 9.5 18.144531 9.574219 17.964844 9.574219 17.746094 C 9.578125 17.53125 9.503906 17.347656 9.351562 17.199219 L 8.300781 16.148438 L 9.351562 15.101562 C 9.503906 14.949219 9.578125 14.765625 9.578125 14.550781 C 9.574219 14.335938 9.5 14.152344 9.347656 14.003906 C 9.199219 13.855469 9.019531 13.777344 8.804688 13.777344 Z M 14.089844 23.035156 C 13.9375 23.183594 13.863281 23.363281 13.859375 23.578125 L 13.859375 23.582031 C 13.863281 23.792969 13.933594 23.976562 14.082031 24.128906 L 15.292969 25.332031 C 15.550781 25.589844 15.867188 25.722656 16.234375 25.722656 C 16.605469 25.722656 16.917969 25.589844 17.175781 25.332031 L 18.378906 24.128906 C 18.53125 23.976562 18.605469 23.792969 18.605469 23.582031 C 18.605469 23.367188 18.53125 23.183594 18.378906 23.035156 C 18.230469 22.882812 18.046875 22.808594 17.832031 22.804688 C 17.832031 22.804688 17.828125 22.804688 17.828125 22.804688 C 17.613281 22.804688 17.433594 22.878906 17.28125 23.03125 L 16.234375 24.082031 L 15.1875 23.03125 C 15.035156 22.878906 14.851562 22.804688 14.636719 22.804688 L 14.632812 22.804688 C 14.421875 22.804688 14.238281 22.882812 14.089844 23.035156 Z M 14.089844 23.035156 "/>
<path style=" stroke:none;fill-rule:nonzero;fill:rgb(60.000002%,60.000002%,60.000002%);fill-opacity:1;" d="M 16.863281 7.277344 C 16.6875 7.105469 16.480469 7.019531 16.234375 7.019531 C 15.988281 7.019531 15.777344 7.105469 15.605469 7.28125 L 14.402344 8.484375 C 14.339844 8.546875 14.304688 8.625 14.304688 8.714844 C 14.304688 8.808594 14.339844 8.886719 14.402344 8.949219 C 14.464844 9.015625 14.542969 9.046875 14.636719 9.046875 C 14.730469 9.046875 14.804688 9.015625 14.871094 8.949219 L 16.074219 7.75 C 16.117188 7.703125 16.171875 7.683594 16.234375 7.683594 C 16.296875 7.683594 16.347656 7.707031 16.394531 7.75 L 17.597656 8.949219 C 17.660156 9.015625 17.738281 9.046875 17.832031 9.046875 C 17.921875 9.046875 18 9.015625 18.066406 8.949219 C 18.128906 8.886719 18.160156 8.808594 18.160156 8.714844 C 18.160156 8.625 18.128906 8.546875 18.066406 8.480469 Z M 23.335938 14.550781 C 23.332031 14.644531 23.367188 14.722656 23.433594 14.785156 L 24.632812 15.988281 C 24.675781 16.035156 24.699219 16.085938 24.699219 16.148438 C 24.699219 16.210938 24.675781 16.265625 24.632812 16.308594 L 23.433594 17.511719 C 23.367188 17.574219 23.332031 17.652344 23.332031 17.746094 C 23.335938 17.835938 23.367188 17.914062 23.433594 17.980469 C 23.496094 18.042969 23.574219 18.074219 23.667969 18.078125 C 23.757812 18.074219 23.835938 18.042969 23.902344 17.980469 L 25.105469 16.777344 C 25.277344 16.605469 25.363281 16.394531 25.363281 16.148438 C 25.363281 15.902344 25.277344 15.691406 25.101562 15.519531 L 23.898438 14.316406 C 23.835938 14.253906 23.757812 14.222656 23.667969 14.222656 C 23.574219 14.222656 23.496094 14.253906 23.433594 14.316406 C 23.367188 14.382812 23.335938 14.460938 23.335938 14.550781 Z M 8.800781 14.222656 C 8.710938 14.222656 8.632812 14.253906 8.566406 14.316406 L 7.363281 15.519531 C 7.191406 15.695312 7.105469 15.902344 7.105469 16.148438 C 7.105469 16.394531 7.191406 16.605469 7.363281 16.777344 L 8.566406 17.980469 C 8.632812 18.042969 8.710938 18.078125 8.800781 18.078125 C 8.894531 18.078125 8.972656 18.042969 9.035156 17.980469 C 9.097656 17.917969 9.132812 17.839844 9.132812 17.746094 C 9.132812 17.652344 9.101562 17.574219 9.035156 17.511719 L 7.832031 16.308594 C 7.789062 16.265625 7.765625 16.210938 7.765625 16.148438 C 7.769531 16.085938 7.789062 16.035156 7.832031 15.988281 L 9.035156 14.785156 C 9.101562 14.722656 9.132812 14.644531 9.132812 14.550781 C 9.132812 14.460938 9.097656 14.382812 9.035156 14.316406 C 8.972656 14.253906 8.894531 14.222656 8.800781 14.222656 Z M 14.402344 23.347656 C 14.339844 23.410156 14.308594 23.488281 14.304688 23.582031 C 14.308594 23.671875 14.339844 23.75 14.402344 23.816406 L 15.605469 25.019531 C 15.777344 25.191406 15.988281 25.277344 16.234375 25.277344 C 16.480469 25.277344 16.691406 25.191406 16.863281 25.019531 L 18.066406 23.816406 C 18.128906 23.75 18.160156 23.671875 18.160156 23.582031 C 18.160156 23.488281 18.128906 23.410156 18.066406 23.347656 C 18 23.285156 17.921875 23.25 17.832031 23.25 C 17.738281 23.25 17.660156 23.28125 17.597656 23.347656 L 16.394531 24.550781 C 16.347656 24.59375 16.296875 24.613281 16.234375 24.613281 C 16.171875 24.613281 16.117188 24.589844 16.074219 24.550781 L 14.871094 23.347656 C 14.808594 23.28125 14.730469 23.25 14.636719 23.25 C 14.546875 23.25 14.46875 23.285156 14.402344 23.347656 Z M 14.402344 23.347656 "/>
</g>
</svg>
