
<svg xmlns="http://www.w3.org/2000/svg" xmlns:xlink="http://www.w3.org/1999/xlink" width="32px" height="32px" viewBox="0 0 32 32" version="1.1">
<g id="surface1">
<path style=" stroke:none;fill-rule:evenodd;fill:rgb(98.431373%,67.058825%,6.27451%);fill-opacity:1;" d="M 5.160156 1.761719 L 26.976562 1.761719 C 28.703125 1.761719 30.101562 3.160156 30.101562 4.886719 L 30.101562 27.246094 C 30.101562 28.972656 28.703125 30.371094 26.976562 30.371094 L 5.160156 30.371094 C 3.433594 30.371094 2.035156 28.972656 2.035156 27.246094 L 2.035156 4.886719 C 2.035156 3.160156 3.433594 1.761719 5.160156 1.761719 Z M 5.160156 1.761719 "/>
<path style=" stroke:none;fill-rule:nonzero;fill:rgb(0%,0%,0%);fill-opacity:1;" d="M 11.878906 12.910156 C 11.761719 13.144531 11.75 13.417969 11.835938 13.664062 C 11.921875 13.910156 12.105469 14.113281 12.339844 14.226562 L 13.214844 14.644531 C 13.707031 14.882812 14.292969 14.675781 14.53125 14.1875 L 14.617188 14.007812 L 14.730469 14.058594 C 15.21875 14.292969 15.804688 14.089844 16.042969 13.597656 L 17.359375 10.875 C 18.082031 11.28125 18.839844 11.832031 19.375 12.554688 C 20.117188 11.878906 21.105469 11.464844 22.1875 11.464844 C 22.296875 11.464844 22.402344 11.472656 22.503906 11.480469 C 21.605469 9.832031 20.097656 8.710938 18.757812 7.988281 L 19.339844 6.78125 C 19.457031 6.542969 19.472656 6.269531 19.386719 6.027344 C 19.300781 5.777344 19.117188 5.574219 18.878906 5.460938 L 18.777344 5.410156 C 18.851562 5.257812 18.863281 5.082031 18.804688 4.917969 C 18.75 4.757812 18.628906 4.628906 18.476562 4.550781 L 16.980469 3.835938 C 16.660156 3.683594 16.277344 3.816406 16.121094 4.136719 L 16.011719 4.082031 C 15.519531 3.847656 14.933594 4.058594 14.695312 4.542969 L 11.398438 11.363281 C 11.285156 11.601562 11.269531 11.871094 11.355469 12.121094 C 11.441406 12.367188 11.621094 12.570312 11.859375 12.683594 L 11.964844 12.730469 Z M 11.878906 12.910156 "/>
<path style=" stroke:none;fill-rule:nonzero;fill:rgb(0%,0%,0%);fill-opacity:1;" d="M 19.378906 18.707031 C 19.214844 19.011719 19.011719 19.3125 18.765625 19.589844 C 18.167969 20.257812 17.367188 20.730469 16.355469 21 L 16.355469 20.03125 L 17.175781 20.03125 L 17.175781 19.160156 C 17.175781 18.800781 16.890625 18.515625 16.535156 18.515625 L 9.613281 18.515625 C 9.257812 18.515625 8.972656 18.800781 8.972656 19.160156 L 8.972656 20.03125 L 10.421875 20.03125 L 10.421875 25.058594 C 10.410156 25.0625 10.402344 25.066406 10.394531 25.070312 C 8.8125 25.707031 7.511719 26.847656 6.710938 28.363281 L 19.457031 28.363281 C 18.757812 27.035156 17.671875 26.003906 16.355469 25.332031 C 16.324219 25.316406 16.292969 25.304688 16.261719 25.289062 C 16.292969 25.304688 16.324219 25.316406 16.355469 25.332031 L 16.355469 24.285156 C 18.316406 23.925781 19.953125 23.066406 21.15625 21.71875 C 21.699219 21.109375 22.113281 20.449219 22.421875 19.777344 C 22.34375 19.785156 22.265625 19.785156 22.1875 19.785156 C 21.105469 19.785156 20.121094 19.375 19.378906 18.707031 Z M 19.378906 18.707031 "/>
<path style=" stroke:none;fill-rule:nonzero;fill:rgb(0%,0%,0%);fill-opacity:1;" d="M 22.1875 12.265625 C 20.328125 12.265625 18.8125 13.773438 18.8125 15.628906 C 18.8125 17.480469 20.328125 18.984375 22.1875 18.984375 C 24.050781 18.984375 25.5625 17.480469 25.5625 15.628906 C 25.5625 13.773438 24.050781 12.265625 22.1875 12.265625 Z M 22.1875 12.265625 "/>
</g>
</svg>
