
<svg xmlns="http://www.w3.org/2000/svg" xmlns:xlink="http://www.w3.org/1999/xlink" width="32px" height="32px" viewBox="0 0 32 32" version="1.1">
<g id="surface1">
<path style=" stroke:none;fill-rule:nonzero;fill:rgb(0%,0%,0%);fill-opacity:0.0980392;" d="M 28.25 3.433594 C 28.238281 3.015625 28.089844 2.660156 27.800781 2.363281 C 27.5 2.058594 27.140625 1.910156 26.714844 1.910156 L 6.0625 1.910156 C 5.636719 1.910156 5.277344 2.058594 4.980469 2.363281 C 4.691406 2.660156 4.539062 3.019531 4.527344 3.433594 L 4.527344 29.785156 C 4.527344 30.214844 4.679688 30.582031 4.980469 30.886719 C 5.277344 31.191406 5.636719 31.347656 6.0625 31.347656 L 26.714844 31.347656 C 27.140625 31.347656 27.5 31.191406 27.800781 30.886719 C 28.097656 30.582031 28.25 30.214844 28.25 29.785156 Z M 28.25 3.433594 "/>
<path style=" stroke:none;fill-rule:nonzero;fill:rgb(80.000001%,80.000001%,80.000001%);fill-opacity:1;" d="M 28.046875 2.285156 C 27.742188 1.980469 27.375 1.824219 26.941406 1.824219 L 5.875 1.824219 C 5.441406 1.824219 5.074219 1.980469 4.769531 2.285156 C 4.472656 2.578125 4.320312 2.933594 4.3125 3.347656 L 4.3125 25.988281 C 4.320312 26.402344 4.472656 26.761719 4.769531 27.054688 C 5.074219 27.359375 5.441406 27.511719 5.875 27.511719 L 26.941406 27.511719 C 27.375 27.511719 27.742188 27.359375 28.046875 27.054688 C 28.34375 26.761719 28.496094 26.402344 28.503906 25.988281 L 28.503906 3.347656 C 28.496094 2.933594 28.34375 2.578125 28.046875 2.285156 Z M 28.046875 2.285156 "/>
<path style=" stroke:none;fill-rule:nonzero;fill:rgb(52.549022%,51.372552%,48.627451%);fill-opacity:0.988235;" d="M 4.769531 27.054688 C 4.472656 26.761719 4.320312 26.402344 4.3125 25.988281 L 4.3125 29.699219 C 4.3125 30.128906 4.464844 30.5 4.769531 30.804688 C 5.074219 31.109375 5.441406 31.261719 5.875 31.261719 L 26.941406 31.261719 C 27.375 31.261719 27.742188 31.109375 28.046875 30.804688 C 28.351562 30.5 28.503906 30.128906 28.503906 29.699219 L 28.503906 25.988281 C 28.496094 26.402344 28.34375 26.761719 28.046875 27.054688 C 27.742188 27.359375 27.375 27.511719 26.941406 27.511719 L 5.875 27.511719 C 5.441406 27.511719 5.074219 27.359375 4.769531 27.054688 Z M 4.769531 27.054688 "/>
<path style=" stroke:none;fill-rule:nonzero;fill:rgb(23.137255%,22.745098%,21.176471%);fill-opacity:1;" d="M 16.1875 28.6875 C 16.1875 28.515625 16.128906 28.367188 16.003906 28.246094 C 15.882812 28.121094 15.738281 28.0625 15.5625 28.0625 L 6.125 28.0625 C 5.949219 28.0625 5.804688 28.121094 5.683594 28.246094 C 5.558594 28.367188 5.5 28.511719 5.5 28.6875 L 5.5 28.941406 C 5.5 29.117188 5.558594 29.261719 5.683594 29.386719 C 5.804688 29.507812 5.949219 29.566406 6.125 29.566406 L 15.5625 29.566406 C 15.738281 29.566406 15.882812 29.507812 16.003906 29.386719 C 16.128906 29.261719 16.1875 29.117188 16.1875 28.941406 Z M 16.1875 28.6875 "/>
<path style=" stroke:none;fill-rule:nonzero;fill:rgb(0%,0%,0%);fill-opacity:0.2;" d="M 26.550781 28.503906 C 26.414062 28.367188 26.25 28.300781 26.058594 28.300781 C 25.863281 28.300781 25.699219 28.371094 25.558594 28.503906 C 25.425781 28.644531 25.355469 28.808594 25.355469 29.003906 C 25.355469 29.195312 25.425781 29.363281 25.558594 29.496094 C 25.699219 29.636719 25.863281 29.703125 26.058594 29.703125 C 26.25 29.703125 26.417969 29.636719 26.550781 29.496094 C 26.691406 29.363281 26.757812 29.195312 26.757812 29.003906 C 26.757812 28.808594 26.691406 28.644531 26.550781 28.503906 Z M 24.527344 29.003906 C 24.527344 28.808594 24.457031 28.644531 24.316406 28.503906 C 24.183594 28.371094 24.019531 28.300781 23.824219 28.300781 C 23.628906 28.300781 23.464844 28.371094 23.324219 28.503906 C 23.191406 28.644531 23.121094 28.808594 23.121094 29.003906 C 23.121094 29.195312 23.191406 29.363281 23.324219 29.496094 C 23.464844 29.636719 23.628906 29.703125 23.824219 29.703125 C 24.019531 29.703125 24.183594 29.636719 24.316406 29.496094 C 24.457031 29.363281 24.527344 29.195312 24.527344 29.003906 Z M 24.527344 29.003906 "/>
<path style=" stroke:none;fill-rule:nonzero;fill:rgb(100%,100%,100%);fill-opacity:0.0980392;" d="M 21.980469 20.0625 C 23.632812 18.410156 24.457031 16.417969 24.457031 14.082031 C 24.457031 11.746094 23.632812 9.753906 21.980469 8.105469 C 20.332031 6.449219 18.339844 5.628906 16.003906 5.628906 C 13.667969 5.628906 11.675781 6.449219 10.019531 8.105469 C 8.371094 9.753906 7.542969 11.746094 7.542969 14.082031 C 7.542969 16.417969 8.371094 18.410156 10.019531 20.0625 C 11.675781 21.714844 13.667969 22.539062 16.003906 22.539062 C 18.339844 22.539062 20.332031 21.714844 21.980469 20.0625 Z M 21.980469 20.0625 "/>
<path style=" stroke:none;fill-rule:nonzero;fill:rgb(80.000001%,80.000001%,0%);fill-opacity:1;" d="M 25.910156 29.390625 C 26.101562 29.390625 26.269531 29.324219 26.402344 29.183594 C 26.542969 29.050781 26.609375 28.882812 26.609375 28.691406 C 26.609375 28.496094 26.542969 28.332031 26.402344 28.191406 C 26.269531 28.058594 26.101562 27.988281 25.910156 27.988281 C 25.714844 27.988281 25.550781 28.058594 25.410156 28.191406 C 25.277344 28.332031 25.207031 28.496094 25.207031 28.691406 C 25.207031 28.882812 25.277344 29.050781 25.410156 29.183594 C 25.550781 29.324219 25.714844 29.390625 25.910156 29.390625 Z M 24.378906 28.691406 C 24.378906 28.496094 24.308594 28.332031 24.167969 28.191406 C 24.035156 28.058594 23.871094 27.988281 23.675781 27.988281 C 23.480469 27.988281 23.316406 28.058594 23.175781 28.191406 C 23.042969 28.332031 22.972656 28.496094 22.972656 28.691406 C 22.972656 28.882812 23.042969 29.050781 23.175781 29.183594 C 23.316406 29.324219 23.480469 29.390625 23.675781 29.390625 C 23.871094 29.390625 24.035156 29.324219 24.167969 29.183594 C 24.308594 29.050781 24.378906 28.882812 24.378906 28.691406 Z M 24.378906 28.691406 "/>
<path style=" stroke:none;fill-rule:nonzero;fill:rgb(100%,57.254905%,0%);fill-opacity:1;" d="M 15.945312 6.398438 C 15.753906 6.402344 15.566406 6.53125 15.425781 6.769531 L 9.167969 17.628906 C 8.882812 18.113281 9.136719 18.53125 9.691406 18.53125 L 22.226562 18.53125 C 22.863281 18.53125 23.011719 18.082031 22.746094 17.628906 L 16.476562 6.769531 C 16.328125 6.511719 16.136719 6.394531 15.945312 6.398438 Z M 15.878906 9.015625 C 16.199219 9.015625 16.449219 9.113281 16.632812 9.308594 C 16.820312 9.5 16.910156 9.757812 16.910156 10.082031 C 16.910156 10.527344 16.828125 11.136719 16.65625 11.902344 C 16.464844 12.785156 16.351562 13.386719 16.316406 13.710938 C 16.308594 13.914062 16.300781 14.121094 16.300781 14.332031 C 16.277344 14.605469 16.207031 14.777344 16.082031 14.84375 C 16.035156 14.871094 15.976562 14.886719 15.90625 14.886719 C 15.738281 14.886719 15.636719 14.753906 15.605469 14.496094 C 15.597656 14.46875 15.597656 14.273438 15.597656 13.910156 C 15.597656 13.246094 15.457031 12.296875 15.175781 11.050781 C 15.066406 10.566406 15.011719 10.246094 15.011719 10.09375 C 15.011719 9.816406 15.082031 9.574219 15.226562 9.363281 C 15.390625 9.128906 15.605469 9.015625 15.878906 9.015625 Z M 15.886719 15.464844 C 16.109375 15.464844 16.304688 15.53125 16.46875 15.664062 C 16.644531 15.808594 16.730469 15.996094 16.730469 16.214844 C 16.730469 16.460938 16.652344 16.664062 16.496094 16.820312 C 16.34375 16.976562 16.144531 17.050781 15.898438 17.050781 C 15.695312 17.050781 15.515625 16.976562 15.363281 16.824219 C 15.210938 16.671875 15.136719 16.492188 15.136719 16.289062 C 15.136719 16.070312 15.207031 15.878906 15.347656 15.714844 C 15.488281 15.546875 15.667969 15.464844 15.886719 15.464844 Z M 15.886719 15.464844 "/>
</g>
</svg>
