
<svg xmlns="http://www.w3.org/2000/svg" xmlns:xlink="http://www.w3.org/1999/xlink" width="32px" height="32px" viewBox="0 0 32 32" version="1.1">
<g id="surface1">
<path style="fill-rule:nonzero;fill:rgb(36.862746%,64.705884%,83.137256%);fill-opacity:1;stroke-width:2.444939;stroke-linecap:butt;stroke-linejoin:miter;stroke:rgb(0%,23.921569%,29.019609%);stroke-opacity:1;stroke-miterlimit:4;" d="M 6.744141 1007.268433 L 41.255859 1007.268433 C 43.113281 1007.268433 44.619141 1008.774292 44.619141 1010.625854 L 44.619141 1046.098511 C 44.619141 1047.950073 43.113281 1049.455933 41.255859 1049.455933 L 6.744141 1049.455933 C 4.886719 1049.455933 3.380859 1047.950073 3.380859 1046.098511 L 3.380859 1010.625854 C 3.380859 1008.774292 4.886719 1007.268433 6.744141 1007.268433 Z M 6.744141 1007.268433 " transform="matrix(0.666667,0,0,0.666667,0,-669.574788)"/>
<path style=" stroke:none;fill-rule:evenodd;fill:rgb(88.235295%,32.156864%,32.156864%);fill-opacity:1;" d="M 18.597656 2.84375 L 26.96875 2.84375 C 28.042969 2.738281 28.664062 3.128906 28.886719 3.949219 L 28.886719 27.917969 C 28.6875 29.011719 28.144531 29.109375 27.597656 29.207031 L 10.882812 29.207031 Z M 18.597656 2.84375 "/>
<path style=" stroke:none;fill-rule:nonzero;fill:rgb(100%,100%,100%);fill-opacity:1;" d="M 12.984375 6.671875 C 12.730469 6.671875 12.527344 6.882812 12.527344 7.144531 L 12.527344 8.054688 C 12.070312 8.175781 11.636719 8.363281 11.238281 8.59375 L 10.582031 7.945312 C 10.492188 7.855469 10.386719 7.800781 10.269531 7.796875 C 10.148438 7.796875 10.027344 7.839844 9.9375 7.929688 L 8.664062 9.203125 C 8.484375 9.382812 8.496094 9.667969 8.679688 9.851562 L 9.324219 10.503906 C 9.09375 10.902344 8.910156 11.339844 8.789062 11.792969 L 7.875 11.792969 C 7.617188 11.792969 7.40625 11.996094 7.40625 12.25 L 7.40625 14.042969 C 7.40625 14.300781 7.617188 14.503906 7.875 14.503906 L 8.789062 14.503906 C 8.910156 14.957031 9.09375 15.390625 9.324219 15.789062 L 8.679688 16.445312 C 8.496094 16.628906 8.484375 16.910156 8.664062 17.089844 L 9.9375 18.363281 C 10.117188 18.542969 10.402344 18.535156 10.582031 18.351562 L 11.238281 17.703125 C 11.636719 17.933594 12.070312 18.121094 12.527344 18.238281 L 12.527344 19.152344 C 12.527344 19.410156 12.730469 19.621094 12.984375 19.621094 L 14.777344 19.621094 C 15.035156 19.621094 15.234375 19.410156 15.234375 19.152344 L 15.234375 18.238281 C 15.691406 18.121094 16.125 17.933594 16.523438 17.703125 L 17.175781 18.351562 C 17.363281 18.535156 17.644531 18.542969 17.824219 18.363281 L 19.097656 17.089844 C 19.277344 16.910156 19.269531 16.628906 19.082031 16.445312 L 18.4375 15.789062 C 18.667969 15.390625 18.851562 14.957031 18.972656 14.503906 L 19.886719 14.503906 C 20.144531 14.503906 20.355469 14.300781 20.355469 14.042969 L 20.355469 12.25 C 20.355469 11.996094 20.144531 11.792969 19.886719 11.792969 L 18.972656 11.792969 C 18.851562 11.339844 18.667969 10.902344 18.4375 10.503906 L 19.082031 9.851562 C 19.269531 9.667969 19.277344 9.382812 19.097656 9.203125 L 17.824219 7.929688 C 17.644531 7.75 17.363281 7.761719 17.175781 7.945312 L 16.523438 8.59375 C 16.125 8.363281 15.691406 8.175781 15.234375 8.054688 L 15.234375 7.144531 C 15.234375 6.882812 15.035156 6.671875 14.777344 6.671875 Z M 13.878906 9.851562 C 15.703125 9.851562 17.175781 11.328125 17.175781 13.148438 C 17.175781 14.96875 15.703125 16.445312 13.878906 16.445312 C 12.058594 16.445312 10.582031 14.96875 10.582031 13.148438 C 10.582031 11.328125 12.058594 9.851562 13.878906 9.851562 Z M 13.878906 9.851562 "/>
<path style=" stroke:none;fill-rule:nonzero;fill:rgb(100%,100%,100%);fill-opacity:1;" d="M 18.496094 17.988281 C 18.355469 17.972656 18.230469 18.082031 18.21875 18.226562 L 18.171875 18.738281 C 17.910156 18.785156 17.660156 18.863281 17.425781 18.972656 L 17.089844 18.578125 C 17.042969 18.523438 16.988281 18.488281 16.921875 18.480469 C 16.855469 18.472656 16.785156 18.492188 16.730469 18.539062 L 15.953125 19.1875 C 15.84375 19.277344 15.835938 19.4375 15.925781 19.550781 L 16.257812 19.949219 C 16.105469 20.160156 15.980469 20.394531 15.890625 20.644531 L 15.378906 20.597656 C 15.238281 20.582031 15.105469 20.683594 15.09375 20.828125 L 15.003906 21.832031 C 14.992188 21.976562 15.097656 22.097656 15.246094 22.113281 L 15.753906 22.160156 C 15.800781 22.417969 15.882812 22.671875 15.992188 22.90625 L 15.597656 23.238281 C 15.484375 23.332031 15.464844 23.492188 15.554688 23.601562 L 16.203125 24.378906 C 16.292969 24.488281 16.457031 24.496094 16.566406 24.402344 L 16.964844 24.074219 C 17.175781 24.222656 17.410156 24.347656 17.660156 24.441406 L 17.613281 24.949219 C 17.601562 25.097656 17.703125 25.222656 17.84375 25.238281 L 18.847656 25.328125 C 18.992188 25.339844 19.117188 25.230469 19.128906 25.085938 L 19.175781 24.574219 C 19.4375 24.53125 19.6875 24.449219 19.921875 24.339844 L 20.257812 24.734375 C 20.351562 24.847656 20.507812 24.867188 20.621094 24.777344 L 21.394531 24.128906 C 21.503906 24.035156 21.511719 23.878906 21.417969 23.765625 L 21.089844 23.363281 C 21.238281 23.152344 21.363281 22.921875 21.457031 22.671875 L 21.964844 22.71875 C 22.113281 22.730469 22.238281 22.628906 22.253906 22.488281 L 22.34375 21.480469 C 22.355469 21.339844 22.246094 21.214844 22.105469 21.203125 L 21.59375 21.15625 C 21.546875 20.894531 21.464844 20.644531 21.355469 20.410156 L 21.753906 20.074219 C 21.863281 19.980469 21.886719 19.824219 21.792969 19.714844 L 21.144531 18.933594 C 21.050781 18.824219 20.894531 18.816406 20.78125 18.910156 L 20.382812 19.238281 C 20.171875 19.089844 19.9375 18.964844 19.6875 18.875 L 19.734375 18.363281 C 19.746094 18.21875 19.644531 18.089844 19.503906 18.078125 Z M 18.839844 19.8125 C 19.859375 19.902344 20.613281 20.804688 20.519531 21.824219 C 20.425781 22.84375 19.527344 23.59375 18.507812 23.503906 C 17.488281 23.410156 16.738281 22.511719 16.828125 21.492188 C 16.917969 20.472656 17.820312 19.722656 18.839844 19.8125 Z M 18.839844 19.8125 "/>
<path style=" stroke:none;fill-rule:nonzero;fill:rgb(100%,100%,100%);fill-opacity:1;" d="M 21.875 13.683594 C 21.773438 13.675781 21.6875 13.75 21.675781 13.855469 L 21.644531 14.214844 C 21.460938 14.246094 21.28125 14.304688 21.117188 14.378906 L 20.878906 14.101562 C 20.847656 14.0625 20.808594 14.035156 20.761719 14.03125 C 20.714844 14.027344 20.664062 14.039062 20.625 14.074219 L 20.074219 14.53125 C 19.996094 14.597656 19.992188 14.707031 20.058594 14.785156 L 20.292969 15.070312 C 20.183594 15.21875 20.097656 15.386719 20.035156 15.558594 L 19.671875 15.527344 C 19.570312 15.519531 19.480469 15.589844 19.46875 15.691406 L 19.40625 16.402344 C 19.394531 16.503906 19.472656 16.589844 19.574219 16.597656 L 19.9375 16.632812 C 19.96875 16.816406 20.027344 16.996094 20.105469 17.160156 L 19.824219 17.394531 C 19.746094 17.464844 19.730469 17.574219 19.792969 17.652344 L 20.253906 18.199219 C 20.316406 18.277344 20.429688 18.285156 20.511719 18.21875 L 20.792969 17.988281 C 20.941406 18.089844 21.105469 18.179688 21.28125 18.246094 L 21.25 18.605469 C 21.238281 18.707031 21.3125 18.800781 21.414062 18.808594 L 22.125 18.871094 C 22.222656 18.878906 22.3125 18.804688 22.320312 18.703125 L 22.355469 18.339844 C 22.539062 18.308594 22.714844 18.253906 22.882812 18.175781 L 23.121094 18.453125 C 23.183594 18.535156 23.296875 18.546875 23.375 18.480469 L 23.925781 18.023438 C 24 17.957031 24.007812 17.847656 23.941406 17.769531 L 23.707031 17.484375 C 23.8125 17.335938 23.902344 17.171875 23.964844 16.996094 L 24.328125 17.027344 C 24.429688 17.035156 24.519531 16.964844 24.53125 16.863281 L 24.59375 16.152344 C 24.605469 16.050781 24.527344 15.964844 24.425781 15.957031 L 24.0625 15.925781 C 24.03125 15.738281 23.972656 15.558594 23.894531 15.394531 L 24.175781 15.160156 C 24.253906 15.09375 24.269531 14.980469 24.207031 14.902344 L 23.746094 14.355469 C 23.683594 14.277344 23.566406 14.269531 23.488281 14.335938 L 23.207031 14.570312 C 23.058594 14.464844 22.894531 14.375 22.714844 14.308594 L 22.75 13.949219 C 22.757812 13.847656 22.6875 13.753906 22.585938 13.746094 Z M 22.117188 14.972656 C 22.839844 15.039062 23.371094 15.675781 23.304688 16.394531 C 23.238281 17.113281 22.601562 17.644531 21.882812 17.582031 C 21.160156 17.519531 20.628906 16.878906 20.695312 16.160156 C 20.761719 15.441406 21.394531 14.910156 22.117188 14.972656 Z M 22.117188 14.972656 "/>
</g>
</svg>
