
<svg xmlns="http://www.w3.org/2000/svg" xmlns:xlink="http://www.w3.org/1999/xlink" width="32px" height="32px" viewBox="0 0 32 32" version="1.1">
<g id="surface1">
<path style="fill-rule:nonzero;fill:rgb(100%,100%,100%);fill-opacity:1;stroke-width:20.298223;stroke-linecap:butt;stroke-linejoin:miter;stroke:rgb(29.019609%,68.235296%,90.196079%);stroke-opacity:1;stroke-miterlimit:4;" d="M 73.921875 22.5 L 325.265625 22.5 C 347.671875 22.5 365.859375 40.640625 365.859375 63.09375 L 365.859375 314.390625 C 365.859375 336.796875 347.671875 354.984375 325.265625 354.984375 L 73.921875 354.984375 C 51.515625 354.984375 33.328125 336.796875 33.328125 314.390625 L 33.328125 63.09375 C 33.328125 40.640625 51.515625 22.5 73.921875 22.5 Z M 73.921875 22.5 " transform="matrix(0.0833333,0,0,0.0833333,0,0)"/>
<path style=" stroke:none;fill-rule:nonzero;fill:rgb(97.254902%,97.254902%,97.254902%);fill-opacity:1;" d="M 28.804688 17.992188 C 28.660156 18.136719 28.5 18.269531 28.332031 18.382812 C 28.246094 18.441406 28.15625 18.496094 28.066406 18.542969 C 28.339844 18.394531 28.585938 18.207031 28.804688 17.992188 Z M 28.804688 17.992188 "/>
<path style=" stroke:none;fill-rule:nonzero;fill:rgb(97.254902%,97.254902%,97.254902%);fill-opacity:1;" d="M 29.355469 17.253906 C 29.304688 17.347656 29.253906 17.433594 29.195312 17.519531 C 29.082031 17.6875 28.949219 17.847656 28.804688 17.992188 C 29.019531 17.777344 29.207031 17.527344 29.355469 17.253906 Z M 29.355469 17.253906 "/>
<path style=" stroke:none;fill-rule:nonzero;fill:rgb(97.254902%,97.254902%,97.254902%);fill-opacity:1;" d="M 29.597656 16.679688 C 29.566406 16.78125 29.53125 16.878906 29.488281 16.972656 C 29.449219 17.070312 29.402344 17.164062 29.355469 17.253906 C 29.453125 17.074219 29.535156 16.878906 29.597656 16.679688 Z M 29.597656 16.679688 "/>
<path style=" stroke:none;fill-rule:nonzero;fill:rgb(97.254902%,97.254902%,97.254902%);fill-opacity:1;" d="M 29.742188 15.730469 C 29.742188 15.839844 29.734375 15.949219 29.722656 16.058594 C 29.714844 16.164062 29.699219 16.269531 29.675781 16.375 C 29.652344 16.480469 29.628906 16.582031 29.597656 16.679688 C 29.691406 16.378906 29.742188 16.058594 29.742188 15.730469 Z M 29.742188 15.730469 "/>
<path style=" stroke:none;fill-rule:nonzero;fill:rgb(16.862746%,22.745098%,29.019609%);fill-opacity:1;" d="M 17.230469 4.011719 L 17.230469 15.132812 L 28.347656 15.132812 L 28.347656 6.726562 C 28.347656 5.226562 27.132812 4.011719 25.636719 4.011719 Z M 17.230469 4.011719 "/>
<path style=" stroke:none;fill-rule:nonzero;fill:rgb(21.960784%,30.980393%,40.000001%);fill-opacity:1;" d="M 16.035156 27.445312 L 16.035156 16.324219 L 4.917969 16.324219 L 4.917969 24.730469 C 4.917969 26.230469 6.128906 27.445312 7.628906 27.445312 Z M 16.035156 27.445312 "/>
<path style=" stroke:none;fill-rule:nonzero;fill:rgb(10.980392%,14.901961%,20%);fill-opacity:1;" d="M 4.917969 15.132812 L 16.035156 15.132812 L 16.035156 4.011719 L 7.628906 4.011719 C 6.128906 4.011719 4.917969 5.226562 4.917969 6.726562 Z M 4.917969 15.132812 "/>
<path style=" stroke:none;fill-rule:nonzero;fill:rgb(27.058825%,38.82353%,49.803922%);fill-opacity:1;" d="M 28.347656 16.324219 L 17.230469 16.324219 L 17.230469 27.445312 L 25.636719 27.445312 C 27.132812 27.445312 28.347656 26.230469 28.347656 24.730469 Z M 28.347656 16.324219 "/>
</g>
</svg>
