
<svg xmlns="http://www.w3.org/2000/svg" xmlns:xlink="http://www.w3.org/1999/xlink" width="32px" height="32px" viewBox="0 0 32 32" version="1.1">
<g id="surface1">
<path style=" stroke:none;fill-rule:nonzero;fill:rgb(0%,0%,0%);fill-opacity:0.0980392;" d="M 28.25 3.433594 C 28.238281 3.015625 28.089844 2.660156 27.800781 2.363281 C 27.5 2.058594 27.140625 1.910156 26.714844 1.910156 L 6.0625 1.910156 C 5.636719 1.910156 5.277344 2.058594 4.980469 2.363281 C 4.691406 2.660156 4.539062 3.019531 4.527344 3.433594 L 4.527344 29.785156 C 4.527344 30.214844 4.679688 30.582031 4.980469 30.886719 C 5.277344 31.191406 5.636719 31.347656 6.0625 31.347656 L 26.714844 31.347656 C 27.140625 31.347656 27.5 31.191406 27.800781 30.886719 C 28.097656 30.582031 28.25 30.214844 28.25 29.785156 Z M 28.25 3.433594 "/>
<path style=" stroke:none;fill-rule:nonzero;fill:rgb(80.000001%,80.000001%,80.000001%);fill-opacity:1;" d="M 28.046875 2.285156 C 27.742188 1.980469 27.375 1.824219 26.941406 1.824219 L 5.875 1.824219 C 5.441406 1.824219 5.074219 1.980469 4.769531 2.285156 C 4.472656 2.578125 4.320312 2.933594 4.3125 3.347656 L 4.3125 25.988281 C 4.320312 26.402344 4.472656 26.761719 4.769531 27.054688 C 5.074219 27.359375 5.441406 27.511719 5.875 27.511719 L 26.941406 27.511719 C 27.375 27.511719 27.742188 27.359375 28.046875 27.054688 C 28.34375 26.761719 28.496094 26.402344 28.503906 25.988281 L 28.503906 3.347656 C 28.496094 2.933594 28.34375 2.578125 28.046875 2.285156 Z M 28.046875 2.285156 "/>
<path style=" stroke:none;fill-rule:nonzero;fill:rgb(52.549022%,51.372552%,48.627451%);fill-opacity:0.988235;" d="M 4.769531 27.054688 C 4.472656 26.761719 4.320312 26.402344 4.3125 25.988281 L 4.3125 29.699219 C 4.3125 30.128906 4.464844 30.5 4.769531 30.804688 C 5.074219 31.109375 5.441406 31.261719 5.875 31.261719 L 26.941406 31.261719 C 27.375 31.261719 27.742188 31.109375 28.046875 30.804688 C 28.351562 30.5 28.503906 30.128906 28.503906 29.699219 L 28.503906 25.988281 C 28.496094 26.402344 28.34375 26.761719 28.046875 27.054688 C 27.742188 27.359375 27.375 27.511719 26.941406 27.511719 L 5.875 27.511719 C 5.441406 27.511719 5.074219 27.359375 4.769531 27.054688 Z M 4.769531 27.054688 "/>
<path style=" stroke:none;fill-rule:nonzero;fill:rgb(23.137255%,22.745098%,21.176471%);fill-opacity:1;" d="M 16.1875 28.6875 C 16.1875 28.515625 16.128906 28.367188 16.003906 28.246094 C 15.882812 28.121094 15.738281 28.0625 15.5625 28.0625 L 6.125 28.0625 C 5.949219 28.0625 5.804688 28.121094 5.683594 28.246094 C 5.558594 28.367188 5.5 28.511719 5.5 28.6875 L 5.5 28.941406 C 5.5 29.117188 5.558594 29.261719 5.683594 29.386719 C 5.804688 29.507812 5.949219 29.566406 6.125 29.566406 L 15.5625 29.566406 C 15.738281 29.566406 15.882812 29.507812 16.003906 29.386719 C 16.128906 29.261719 16.1875 29.117188 16.1875 28.941406 Z M 16.1875 28.6875 "/>
<path style=" stroke:none;fill-rule:nonzero;fill:rgb(0%,0%,0%);fill-opacity:0.2;" d="M 26.550781 28.503906 C 26.414062 28.367188 26.25 28.300781 26.058594 28.300781 C 25.863281 28.300781 25.699219 28.371094 25.558594 28.503906 C 25.425781 28.644531 25.355469 28.808594 25.355469 29.003906 C 25.355469 29.195312 25.425781 29.363281 25.558594 29.496094 C 25.699219 29.636719 25.863281 29.703125 26.058594 29.703125 C 26.25 29.703125 26.417969 29.636719 26.550781 29.496094 C 26.691406 29.363281 26.757812 29.195312 26.757812 29.003906 C 26.757812 28.808594 26.691406 28.644531 26.550781 28.503906 Z M 24.527344 29.003906 C 24.527344 28.808594 24.457031 28.644531 24.316406 28.503906 C 24.183594 28.371094 24.019531 28.300781 23.824219 28.300781 C 23.628906 28.300781 23.464844 28.371094 23.324219 28.503906 C 23.191406 28.644531 23.121094 28.808594 23.121094 29.003906 C 23.121094 29.195312 23.191406 29.363281 23.324219 29.496094 C 23.464844 29.636719 23.628906 29.703125 23.824219 29.703125 C 24.019531 29.703125 24.183594 29.636719 24.316406 29.496094 C 24.457031 29.363281 24.527344 29.195312 24.527344 29.003906 Z M 24.527344 29.003906 "/>
<path style=" stroke:none;fill-rule:nonzero;fill:rgb(100%,100%,100%);fill-opacity:0.0980392;" d="M 21.980469 20.0625 C 23.632812 18.410156 24.457031 16.417969 24.457031 14.082031 C 24.457031 11.746094 23.632812 9.753906 21.980469 8.105469 C 20.332031 6.449219 18.339844 5.628906 16.003906 5.628906 C 13.667969 5.628906 11.675781 6.449219 10.019531 8.105469 C 8.371094 9.753906 7.542969 11.746094 7.542969 14.082031 C 7.542969 16.417969 8.371094 18.410156 10.019531 20.0625 C 11.675781 21.714844 13.667969 22.539062 16.003906 22.539062 C 18.339844 22.539062 20.332031 21.714844 21.980469 20.0625 Z M 21.980469 20.0625 "/>
<path style=" stroke:none;fill-rule:nonzero;fill:rgb(80.000001%,80.000001%,0%);fill-opacity:1;" d="M 25.910156 29.390625 C 26.101562 29.390625 26.269531 29.324219 26.402344 29.183594 C 26.542969 29.050781 26.609375 28.882812 26.609375 28.691406 C 26.609375 28.496094 26.542969 28.332031 26.402344 28.191406 C 26.269531 28.058594 26.101562 27.988281 25.910156 27.988281 C 25.714844 27.988281 25.550781 28.058594 25.410156 28.191406 C 25.277344 28.332031 25.207031 28.496094 25.207031 28.691406 C 25.207031 28.882812 25.277344 29.050781 25.410156 29.183594 C 25.550781 29.324219 25.714844 29.390625 25.910156 29.390625 Z M 24.378906 28.691406 C 24.378906 28.496094 24.308594 28.332031 24.167969 28.191406 C 24.035156 28.058594 23.871094 27.988281 23.675781 27.988281 C 23.480469 27.988281 23.316406 28.058594 23.175781 28.191406 C 23.042969 28.332031 22.972656 28.496094 22.972656 28.691406 C 22.972656 28.882812 23.042969 29.050781 23.175781 29.183594 C 23.316406 29.324219 23.480469 29.390625 23.675781 29.390625 C 23.871094 29.390625 24.035156 29.324219 24.167969 29.183594 C 24.308594 29.050781 24.378906 28.882812 24.378906 28.691406 Z M 24.378906 28.691406 "/>
<path style=" stroke:none;fill-rule:nonzero;fill:rgb(100%,100%,100%);fill-opacity:1;" d="M 21.03125 14.0625 C 21.03125 11.367188 18.792969 9.183594 16.035156 9.183594 C 13.269531 9.183594 11.035156 11.367188 11.035156 14.0625 C 11.035156 16.761719 13.269531 18.945312 16.035156 18.945312 C 18.792969 18.945312 21.03125 16.761719 21.03125 14.0625 Z M 21.03125 14.0625 "/>
<path style=" stroke:none;fill-rule:nonzero;fill:rgb(52.549022%,56.470591%,58.039218%);fill-opacity:1;" d="M 14.960938 21.71875 C 14.824219 21.660156 14.683594 21.503906 14.621094 21.351562 C 14.585938 21.273438 14.554688 20.972656 14.527344 20.488281 C 14.503906 20.078125 14.472656 19.710938 14.457031 19.667969 C 14.4375 19.617188 14.34375 19.566406 14.109375 19.488281 C 13.933594 19.425781 13.667969 19.3125 13.519531 19.238281 C 13.371094 19.164062 13.214844 19.101562 13.175781 19.101562 C 13.132812 19.101562 12.890625 19.300781 12.542969 19.617188 C 12.238281 19.902344 11.933594 20.15625 11.871094 20.1875 C 11.746094 20.253906 11.464844 20.261719 11.320312 20.207031 C 11.203125 20.167969 9.976562 18.957031 9.898438 18.808594 C 9.820312 18.660156 9.832031 18.386719 9.917969 18.21875 C 9.957031 18.144531 10.214844 17.835938 10.492188 17.535156 C 10.792969 17.210938 10.996094 16.960938 10.996094 16.917969 C 10.996094 16.882812 10.933594 16.730469 10.863281 16.582031 C 10.785156 16.433594 10.675781 16.167969 10.613281 15.992188 C 10.550781 15.816406 10.476562 15.660156 10.449219 15.644531 C 10.417969 15.628906 10.058594 15.597656 9.644531 15.574219 C 9.171875 15.546875 8.851562 15.511719 8.757812 15.480469 C 8.582031 15.417969 8.378906 15.199219 8.347656 15.046875 C 8.335938 14.980469 8.332031 14.515625 8.339844 14.007812 L 8.347656 13.085938 L 8.457031 12.953125 C 8.644531 12.714844 8.730469 12.691406 9.625 12.636719 C 10.132812 12.605469 10.441406 12.574219 10.464844 12.550781 C 10.488281 12.527344 10.566406 12.351562 10.636719 12.160156 C 10.707031 11.972656 10.816406 11.710938 10.878906 11.582031 C 10.945312 11.457031 10.996094 11.324219 10.996094 11.285156 C 10.996094 11.253906 10.785156 10.992188 10.527344 10.707031 C 10.265625 10.425781 10.019531 10.144531 9.976562 10.085938 C 9.851562 9.921875 9.808594 9.722656 9.859375 9.523438 C 9.894531 9.375 9.964844 9.292969 10.527344 8.722656 C 10.871094 8.371094 11.210938 8.058594 11.28125 8.019531 C 11.445312 7.9375 11.707031 7.933594 11.871094 8.019531 C 11.9375 8.054688 12.238281 8.308594 12.535156 8.582031 C 12.835938 8.855469 13.101562 9.089844 13.125 9.105469 C 13.152344 9.121094 13.3125 9.066406 13.507812 8.972656 C 13.695312 8.882812 13.972656 8.769531 14.128906 8.714844 C 14.335938 8.644531 14.417969 8.601562 14.445312 8.539062 C 14.464844 8.496094 14.503906 8.121094 14.527344 7.714844 C 14.570312 6.925781 14.597656 6.800781 14.761719 6.632812 C 14.941406 6.441406 15.042969 6.425781 16.054688 6.441406 L 16.972656 6.449219 L 17.117188 6.542969 C 17.363281 6.707031 17.394531 6.808594 17.453125 7.6875 C 17.480469 8.109375 17.511719 8.488281 17.519531 8.53125 C 17.535156 8.589844 17.613281 8.628906 17.855469 8.714844 C 18.03125 8.777344 18.3125 8.894531 18.480469 8.980469 C 18.648438 9.0625 18.796875 9.132812 18.816406 9.132812 C 18.832031 9.132812 19.097656 8.898438 19.410156 8.613281 C 19.722656 8.324219 20.039062 8.058594 20.109375 8.023438 C 20.277344 7.933594 20.523438 7.933594 20.707031 8.023438 C 20.792969 8.066406 21.089844 8.335938 21.457031 8.707031 C 22.09375 9.347656 22.144531 9.421875 22.144531 9.714844 C 22.144531 9.917969 22.050781 10.054688 21.507812 10.652344 C 21.210938 10.976562 20.964844 11.257812 20.964844 11.273438 C 20.964844 11.292969 21.042969 11.464844 21.136719 11.664062 C 21.234375 11.863281 21.347656 12.136719 21.390625 12.277344 C 21.445312 12.453125 21.492188 12.542969 21.539062 12.5625 C 21.574219 12.582031 21.957031 12.613281 22.386719 12.640625 C 23.242188 12.695312 23.378906 12.730469 23.519531 12.933594 C 23.65625 13.121094 23.671875 13.261719 23.660156 14.191406 L 23.652344 15.082031 L 23.546875 15.230469 C 23.359375 15.496094 23.3125 15.507812 22.367188 15.570312 C 21.902344 15.597656 21.519531 15.632812 21.507812 15.644531 C 21.496094 15.652344 21.441406 15.800781 21.378906 15.972656 C 21.320312 16.140625 21.199219 16.417969 21.117188 16.585938 C 21.03125 16.753906 20.96875 16.914062 20.972656 16.941406 C 20.980469 16.964844 21.210938 17.230469 21.488281 17.535156 C 21.761719 17.832031 22.023438 18.148438 22.066406 18.234375 C 22.15625 18.414062 22.167969 18.605469 22.089844 18.785156 C 22.023438 18.941406 20.902344 20.082031 20.71875 20.179688 C 20.566406 20.257812 20.285156 20.265625 20.128906 20.195312 C 20.066406 20.167969 19.757812 19.914062 19.441406 19.625 C 19.128906 19.339844 18.847656 19.101562 18.816406 19.101562 C 18.785156 19.101562 18.609375 19.175781 18.425781 19.261719 C 18.238281 19.347656 17.964844 19.457031 17.8125 19.507812 C 17.605469 19.578125 17.535156 19.617188 17.519531 19.671875 C 17.511719 19.710938 17.480469 20.089844 17.453125 20.511719 C 17.390625 21.445312 17.355469 21.546875 17.03125 21.710938 C 16.9375 21.761719 16.78125 21.769531 15.992188 21.765625 C 15.292969 21.765625 15.039062 21.753906 14.960938 21.71875 Z M 16.328125 17.578125 C 17.164062 17.488281 17.863281 17.15625 18.460938 16.558594 C 18.914062 16.105469 19.207031 15.597656 19.382812 14.953125 C 19.492188 14.550781 19.492188 13.660156 19.378906 13.253906 C 19.042969 12.019531 18.160156 11.105469 16.933594 10.738281 C 16.648438 10.652344 16.570312 10.644531 16.015625 10.640625 C 15.484375 10.636719 15.375 10.648438 15.117188 10.71875 C 13.828125 11.070312 12.84375 12.105469 12.574219 13.390625 C 12.332031 14.542969 12.683594 15.722656 13.527344 16.570312 C 13.96875 17.011719 14.542969 17.339844 15.160156 17.496094 C 15.339844 17.542969 15.589844 17.578125 15.949219 17.609375 C 15.976562 17.613281 16.148438 17.597656 16.328125 17.578125 Z M 15.46875 16.128906 C 14.585938 15.886719 13.96875 15.136719 13.914062 14.238281 C 13.878906 13.605469 14.078125 13.074219 14.527344 12.628906 C 15.339844 11.816406 16.640625 11.808594 17.445312 12.613281 C 18.105469 13.269531 18.265625 14.210938 17.855469 15.035156 C 17.503906 15.738281 16.859375 16.152344 16.066406 16.183594 C 15.800781 16.191406 15.667969 16.179688 15.46875 16.128906 Z M 16.457031 15.253906 C 16.699219 15.164062 16.992188 14.894531 17.113281 14.644531 C 17.199219 14.46875 17.210938 14.410156 17.210938 14.097656 C 17.210938 13.769531 17.207031 13.742188 17.089844 13.535156 C 16.863281 13.117188 16.527344 12.902344 16.050781 12.878906 C 15.667969 12.859375 15.441406 12.941406 15.164062 13.191406 C 14.8125 13.511719 14.675781 13.957031 14.785156 14.398438 C 14.882812 14.777344 15.089844 15.035156 15.4375 15.214844 C 15.761719 15.378906 16.09375 15.390625 16.457031 15.253906 Z M 16.457031 15.253906 "/>
</g>
</svg>
