
<svg xmlns="http://www.w3.org/2000/svg" xmlns:xlink="http://www.w3.org/1999/xlink" width="32px" height="32px" viewBox="0 0 32 32" version="1.1">
<g id="surface1">
<path style="fill-rule:nonzero;fill:rgb(100%,100%,100%);fill-opacity:1;stroke-width:28.097435;stroke-linecap:butt;stroke-linejoin:miter;stroke:rgb(63.921571%,65.098041%,60.784316%);stroke-opacity:1;stroke-miterlimit:4;" d="M 82.598471 26.363879 L 430.40128 26.363879 C 461.461812 26.363879 486.635872 51.537939 486.635872 82.598471 L 486.635872 430.40128 C 486.635872 461.461812 461.461812 486.635872 430.40128 486.635872 L 82.598471 486.635872 C 51.537939 486.635872 26.363879 461.461812 26.363879 430.40128 L 26.363879 82.598471 C 26.363879 51.537939 51.537939 26.363879 82.598471 26.363879 Z M 82.598471 26.363879 " transform="matrix(0.0623782,0,0,0.0623782,0,0)"/>
<path style=" stroke:none;fill-rule:nonzero;fill:rgb(0.392157%,0.392157%,0.392157%);fill-opacity:1;" d="M 9.597656 24.792969 C 9.472656 24.730469 9.308594 24.574219 9.230469 24.453125 C 9.117188 24.265625 9.097656 24.160156 9.117188 23.753906 L 9.136719 23.277344 L 8.871094 23.199219 C 8.574219 23.109375 8.300781 22.917969 8.191406 22.714844 C 8.082031 22.527344 8.089844 21.957031 8.199219 21.742188 C 8.371094 21.410156 8.582031 21.304688 9.050781 21.304688 L 9.476562 21.304688 L 9.816406 21.644531 L 10.15625 21.988281 L 10.394531 21.902344 C 10.621094 21.816406 11.386719 21.488281 13.066406 20.738281 C 13.480469 20.558594 13.851562 20.382812 13.894531 20.347656 C 14.035156 20.242188 13.976562 20.121094 13.738281 20.019531 C 13.503906 19.917969 12.679688 19.574219 11.308594 19.003906 C 10.902344 18.832031 10.179688 18.527344 9.699219 18.316406 C 9.222656 18.105469 8.792969 17.933594 8.753906 17.933594 C 8.710938 17.933594 8.585938 18.046875 8.476562 18.183594 C 8.238281 18.476562 7.949219 18.589844 7.558594 18.535156 C 7.183594 18.484375 7 18.355469 6.855469 18.039062 C 6.699219 17.695312 6.707031 17.394531 6.878906 17.09375 C 6.992188 16.894531 7.09375 16.816406 7.363281 16.707031 C 7.550781 16.636719 7.734375 16.546875 7.773438 16.511719 C 7.816406 16.472656 7.832031 16.277344 7.816406 15.992188 C 7.792969 15.605469 7.808594 15.5 7.917969 15.328125 C 8.238281 14.816406 9.179688 14.800781 9.535156 15.300781 C 9.730469 15.582031 9.757812 15.867188 9.617188 16.265625 C 9.519531 16.535156 9.511719 16.636719 9.566406 16.707031 C 9.636719 16.800781 9.832031 16.886719 11.851562 17.714844 C 13.351562 18.332031 14.128906 18.652344 15.140625 19.082031 L 15.964844 19.429688 L 16.511719 19.207031 C 16.816406 19.082031 17.257812 18.902344 17.496094 18.808594 C 17.738281 18.714844 18.101562 18.566406 18.308594 18.480469 C 18.511719 18.394531 18.921875 18.222656 19.214844 18.105469 C 21.84375 17.019531 22.386719 16.777344 22.429688 16.664062 C 22.449219 16.613281 22.421875 16.488281 22.371094 16.386719 C 22.105469 15.878906 22.261719 15.273438 22.707031 15.050781 C 23.15625 14.824219 23.785156 14.957031 24.019531 15.328125 C 24.128906 15.5 24.144531 15.605469 24.121094 15.988281 C 24.097656 16.464844 24.160156 16.625 24.371094 16.625 C 24.570312 16.625 24.964844 16.910156 25.082031 17.136719 C 25.421875 17.804688 24.964844 18.558594 24.214844 18.558594 C 23.878906 18.558594 23.632812 18.433594 23.417969 18.152344 C 23.328125 18.035156 23.21875 17.933594 23.175781 17.933594 C 23.109375 17.933594 22.722656 18.09375 21.332031 18.683594 C 21.179688 18.746094 20.546875 19.023438 19.929688 19.292969 C 19.3125 19.5625 18.617188 19.863281 18.386719 19.964844 C 18.152344 20.066406 17.964844 20.183594 17.964844 20.222656 C 17.964844 20.269531 18.03125 20.347656 18.113281 20.398438 C 18.296875 20.519531 20.441406 21.457031 21.480469 21.871094 L 21.785156 21.996094 L 22.042969 21.71875 C 22.378906 21.359375 22.5 21.304688 22.941406 21.304688 C 23.355469 21.304688 23.570312 21.425781 23.738281 21.742188 C 23.867188 21.996094 23.855469 22.539062 23.714844 22.769531 C 23.613281 22.9375 23.503906 23.007812 22.957031 23.261719 C 22.808594 23.332031 22.800781 23.363281 22.800781 23.835938 C 22.800781 24.417969 22.710938 24.605469 22.332031 24.796875 C 22.027344 24.953125 21.753906 24.953125 21.417969 24.800781 C 20.976562 24.601562 20.84375 24.253906 20.960938 23.605469 C 21.042969 23.136719 21.007812 23.082031 20.398438 22.835938 C 20.175781 22.746094 19.089844 22.304688 17.984375 21.859375 L 15.976562 21.050781 L 14.644531 21.589844 C 12.898438 22.300781 12.714844 22.378906 12.164062 22.609375 C 11.90625 22.71875 11.550781 22.863281 11.375 22.929688 C 10.914062 23.105469 10.882812 23.160156 10.980469 23.609375 C 11.105469 24.210938 10.96875 24.578125 10.535156 24.800781 C 10.238281 24.953125 9.890625 24.949219 9.597656 24.792969 Z M 13.707031 17.464844 C 13.441406 17.316406 13.390625 17.148438 13.355469 16.261719 C 13.320312 15.46875 13.308594 15.421875 13.160156 15.304688 C 12.804688 15.023438 12.144531 14.332031 11.941406 14.027344 C 11.398438 13.207031 11.152344 12.355469 11.152344 11.324219 C 11.15625 10.496094 11.289062 9.871094 11.59375 9.234375 C 12.296875 7.769531 13.5 6.855469 15.128906 6.546875 C 16.699219 6.253906 18.269531 6.757812 19.441406 7.933594 C 20.316406 8.8125 20.792969 9.980469 20.800781 11.261719 C 20.808594 12.878906 20.230469 14.066406 18.851562 15.261719 L 18.589844 15.492188 L 18.589844 16.167969 C 18.589844 16.960938 18.519531 17.257812 18.296875 17.433594 C 18.140625 17.558594 18.058594 17.558594 16.007812 17.558594 C 14.25 17.558594 13.847656 17.539062 13.707031 17.464844 Z M 14.304688 13.53125 C 14.8125 13.359375 15.34375 12.609375 15.34375 12.070312 C 15.34375 11.816406 15.140625 11.324219 14.929688 11.078125 C 14.316406 10.363281 13.328125 10.324219 12.644531 10.996094 C 12.34375 11.292969 12.164062 11.695312 12.164062 12.070312 C 12.164062 12.4375 12.347656 12.859375 12.628906 13.136719 C 13.097656 13.601562 13.6875 13.742188 14.304688 13.53125 Z M 18.601562 13.566406 C 18.957031 13.464844 19.34375 13.136719 19.535156 12.765625 C 20.210938 11.472656 18.824219 10.042969 17.496094 10.660156 C 17.15625 10.816406 16.8125 11.164062 16.679688 11.488281 C 16.566406 11.753906 16.566406 12.390625 16.679688 12.65625 C 16.984375 13.386719 17.824219 13.78125 18.601562 13.566406 Z M 18.601562 13.566406 "/>
</g>
</svg>
