
<svg xmlns="http://www.w3.org/2000/svg" xmlns:xlink="http://www.w3.org/1999/xlink" width="32px" height="32px" viewBox="0 0 32 32" version="1.1">
<g id="surface1">
<path style="fill-rule:nonzero;fill:rgb(100%,100%,100%);fill-opacity:0.27451;stroke-width:0.748945;stroke-linecap:butt;stroke-linejoin:miter;stroke:rgb(17.254902%,24.313726%,31.37255%);stroke-opacity:1;stroke-miterlimit:4;" d="M -35.98264 398.484861 L -26.708994 398.484861 C -25.882171 398.484861 -25.212445 399.154588 -25.212445 399.98141 L -25.212445 409.255056 C -25.212445 410.081879 -25.882171 410.751606 -26.708994 410.751606 L -35.98264 410.751606 C -36.809463 410.751606 -37.47919 410.081879 -37.47919 409.255056 L -37.47919 399.98141 C -37.47919 399.154588 -36.809463 398.484861 -35.98264 398.484861 Z M -35.98264 398.484861 " transform="matrix(2.362205,0,0,2.362205,90.045237,-939.791097)"/>
<path style=" stroke:none;fill-rule:nonzero;fill:rgb(17.254902%,24.313726%,31.37255%);fill-opacity:1;" d="M 4.917969 29.324219 L 13.476562 16.632812 L 4.667969 2.675781 L 10.332031 2.683594 L 17.351562 13.65625 L 6.855469 29.324219 Z M 4.917969 29.324219 "/>
<path style=" stroke:none;fill-rule:nonzero;fill:rgb(90.196079%,49.411765%,13.333334%);fill-opacity:1;" d="M 21.667969 29.332031 L 14.699219 18.339844 L 25.285156 2.667969 L 27.167969 2.667969 L 18.574219 15.417969 L 27.332031 29.332031 Z M 21.667969 29.332031 "/>
</g>
</svg>
