
<svg xmlns="http://www.w3.org/2000/svg" xmlns:xlink="http://www.w3.org/1999/xlink" width="32px" height="32px" viewBox="0 0 32 32" version="1.1">
<g id="surface1">
<path style="fill-rule:nonzero;fill:rgb(14.509805%,60.392159%,92.156863%);fill-opacity:1;stroke-width:28.097435;stroke-linecap:butt;stroke-linejoin:miter;stroke:rgb(1.176471%,22.745098%,55.29412%);stroke-opacity:1;stroke-miterlimit:4;" d="M 82.598471 26.363879 L 430.40128 26.363879 C 461.461812 26.363879 486.635872 51.537939 486.635872 82.598471 L 486.635872 430.40128 C 486.635872 461.461812 461.461812 486.635872 430.40128 486.635872 L 82.598471 486.635872 C 51.537939 486.635872 26.363879 461.461812 26.363879 430.40128 L 26.363879 82.598471 C 26.363879 51.537939 51.537939 26.363879 82.598471 26.363879 Z M 82.598471 26.363879 " transform="matrix(0.0623782,0,0,0.0623782,0,0)"/>
<path style=" stroke:none;fill-rule:nonzero;fill:rgb(1.176471%,22.745098%,55.29412%);fill-opacity:1;" d="M 2.207031 1.839844 L 2.207031 29.796875 L 6.207031 29.796875 L 6.207031 1.839844 Z M 2.207031 1.839844 "/>
<path style=" stroke:none;fill-rule:nonzero;fill:rgb(90.588236%,90.588236%,90.588236%);fill-opacity:1;" d="M 26.574219 4.472656 L 27.796875 4.472656 L 27.796875 9.355469 L 26.574219 9.355469 Z M 26.574219 4.472656 "/>
<path style=" stroke:none;fill-rule:nonzero;fill:rgb(90.588236%,90.588236%,90.588236%);fill-opacity:1;" d="M 26.574219 10.464844 L 27.796875 10.464844 L 27.796875 15.34375 L 26.574219 15.34375 Z M 26.574219 10.464844 "/>
<path style=" stroke:none;fill-rule:nonzero;fill:rgb(90.588236%,90.588236%,90.588236%);fill-opacity:1;" d="M 26.574219 16.699219 L 27.796875 16.699219 L 27.796875 21.582031 L 26.574219 21.582031 Z M 26.574219 16.699219 "/>
<path style=" stroke:none;fill-rule:nonzero;fill:rgb(90.588236%,90.588236%,90.588236%);fill-opacity:1;" d="M 26.574219 22.8125 L 27.796875 22.8125 L 27.796875 27.695312 L 26.574219 27.695312 Z M 26.574219 22.8125 "/>
</g>
</svg>
