
<svg xmlns="http://www.w3.org/2000/svg" xmlns:xlink="http://www.w3.org/1999/xlink" width="32px" height="32px" viewBox="0 0 32 32" version="1.1">
<g id="surface1">
<path style="fill-rule:nonzero;fill:rgb(40.000001%,40.000001%,40.000001%);fill-opacity:1;stroke-width:28.200493;stroke-linecap:butt;stroke-linejoin:miter;stroke:rgb(18.82353%,20.784314%,27.058825%);stroke-opacity:1;stroke-miterlimit:4;" d="M 81.4375 25.0625 L 430.5625 25.0625 C 461.6875 25.0625 486.9375 50.3125 486.9375 81.4375 L 486.9375 430.5625 C 486.9375 461.6875 461.6875 486.9375 430.5625 486.9375 L 81.4375 486.9375 C 50.3125 486.9375 25.0625 461.6875 25.0625 430.5625 L 25.0625 81.4375 C 25.0625 50.3125 50.3125 25.0625 81.4375 25.0625 Z M 81.4375 25.0625 " transform="matrix(0.0625,0,0,0.0625,0,0)"/>
<path style=" stroke:none;fill-rule:nonzero;fill:rgb(0%,0%,0%);fill-opacity:1;" d="M 5.703125 2.308594 C 3.859375 2.308594 2.363281 3.371094 2.363281 4.675781 L 2.363281 8.183594 L 29.703125 8.183594 L 29.703125 4.675781 C 29.703125 3.371094 28.207031 2.308594 26.363281 2.308594 Z M 5.703125 2.308594 "/>
<path style=" stroke:none;fill-rule:nonzero;fill:rgb(100%,100%,100%);fill-opacity:1;" d="M 20.207031 2.835938 L 17.941406 5.511719 L 20.941406 5.511719 L 23.207031 2.835938 Z M 20.207031 2.835938 "/>
<path style=" stroke:none;fill-rule:nonzero;fill:rgb(100%,100%,100%);fill-opacity:1;" d="M 14.9375 2.835938 L 12.675781 5.511719 L 15.675781 5.511719 L 17.941406 2.835938 Z M 14.9375 2.835938 "/>
<path style=" stroke:none;fill-rule:nonzero;fill:rgb(100%,100%,100%);fill-opacity:1;" d="M 25.214844 2.835938 L 22.949219 5.511719 L 25.949219 5.511719 L 28.214844 2.835938 Z M 25.214844 2.835938 "/>
<path style=" stroke:none;fill-rule:nonzero;fill:rgb(100%,100%,100%);fill-opacity:1;" d="M 5.0625 2.835938 L 2.796875 5.511719 L 5.800781 5.511719 L 8.066406 2.835938 Z M 5.0625 2.835938 "/>
<path style=" stroke:none;fill-rule:nonzero;fill:rgb(100%,100%,100%);fill-opacity:1;" d="M 10.070312 2.835938 L 7.808594 5.511719 L 10.808594 5.511719 L 13.074219 2.835938 Z M 10.070312 2.835938 "/>
<path style=" stroke:none;fill-rule:nonzero;fill:rgb(100%,100%,100%);fill-opacity:1;" d="M 20.207031 8.183594 L 17.941406 5.511719 L 20.941406 5.511719 L 23.207031 8.183594 Z M 20.207031 8.183594 "/>
<path style=" stroke:none;fill-rule:nonzero;fill:rgb(100%,100%,100%);fill-opacity:1;" d="M 14.9375 8.183594 L 12.675781 5.511719 L 15.675781 5.511719 L 17.941406 8.183594 Z M 14.9375 8.183594 "/>
<path style=" stroke:none;fill-rule:nonzero;fill:rgb(100%,100%,100%);fill-opacity:1;" d="M 25.214844 8.183594 L 22.949219 5.511719 L 25.949219 5.511719 L 28.214844 8.183594 Z M 25.214844 8.183594 "/>
<path style=" stroke:none;fill-rule:nonzero;fill:rgb(100%,100%,100%);fill-opacity:1;" d="M 2.796875 5.511719 L 5.0625 8.183594 L 8.066406 8.183594 L 5.800781 5.511719 Z M 2.796875 5.511719 "/>
<path style=" stroke:none;fill-rule:nonzero;fill:rgb(100%,100%,100%);fill-opacity:1;" d="M 10.070312 8.183594 L 7.808594 5.511719 L 10.808594 5.511719 L 13.074219 8.183594 Z M 10.070312 8.183594 "/>
<path style=" stroke:none;fill-rule:nonzero;fill:rgb(100%,100%,100%);fill-opacity:1;" d="M 24.226562 18.101562 L 11.535156 25.238281 L 11.535156 10.964844 Z M 24.226562 18.101562 "/>
</g>
</svg>
