
<svg xmlns="http://www.w3.org/2000/svg" xmlns:xlink="http://www.w3.org/1999/xlink" width="32px" height="32px" viewBox="0 0 32 32" version="1.1">
<defs>
<linearGradient id="linear0" gradientUnits="userSpaceOnUse" x1="1" y1="0" x2="47" y2="0" gradientTransform="matrix(0,-0.666667,0.666667,0,0.00147645,32)">
<stop offset="0" style="stop-color:rgb(26.274511%,40.392157%,41.176471%);stop-opacity:1;"/>
<stop offset="1" style="stop-color:rgb(29.411766%,45.09804%,46.27451%);stop-opacity:1;"/>
</linearGradient>
</defs>
<g id="surface1">
<path style=" stroke:none;fill-rule:nonzero;fill:url(#linear0);" d="M 0.667969 28.667969 L 0.667969 3.332031 C 0.667969 1.859375 1.859375 0.667969 3.332031 0.667969 L 28.667969 0.667969 C 30.140625 0.667969 31.332031 1.859375 31.332031 3.332031 L 31.332031 28.667969 C 31.332031 30.140625 30.140625 31.332031 28.667969 31.332031 L 3.332031 31.332031 C 1.859375 31.332031 0.667969 30.140625 0.667969 28.667969 Z M 0.667969 28.667969 "/>
<path style="fill-rule:nonzero;fill:rgb(100%,100%,100%);fill-opacity:1;stroke-width:0.4;stroke-linecap:butt;stroke-linejoin:miter;stroke:rgb(100%,100%,100%);stroke-opacity:1;stroke-miterlimit:4;" d="M 23.591959 4.678776 L 24.408047 4.678776 C 25.754925 4.678776 26.84636 5.770211 26.849678 7.120406 L 26.849678 30.508304 C 26.84636 31.858499 25.754925 32.949935 24.408047 32.949935 L 23.591959 32.949935 C 22.245082 32.949935 21.153646 31.858499 21.150329 30.508304 L 21.150329 7.120406 C 21.153646 5.770211 22.245082 4.678776 23.591959 4.678776 Z M 23.591959 4.678776 " transform="matrix(0.588746,0.588746,-0.588746,0.588746,14.868846,-11.128657)"/>
<path style="fill-rule:nonzero;fill:rgb(100%,33.333334%,33.333334%);fill-opacity:1;stroke-width:0.383166;stroke-linecap:butt;stroke-linejoin:miter;stroke:rgb(100%,100%,100%);stroke-opacity:1;stroke-miterlimit:4;" d="M 27.115072 36.327081 C 27.111755 34.466001 25.718433 32.959887 24.000003 32.959887 C 22.281573 32.959887 20.888252 34.466001 20.884934 36.327081 C 20.888252 38.18816 22.281573 39.694275 24.000003 39.694275 C 25.718433 39.694275 27.111755 38.18816 27.115072 36.327081 Z M 27.115072 36.327081 " transform="matrix(0.588746,0.588746,-0.588746,0.588746,14.868846,-11.128657)"/>
<path style="fill-rule:nonzero;fill:rgb(100%,33.333334%,33.333334%);fill-opacity:1;stroke-width:0.271515;stroke-linecap:butt;stroke-linejoin:miter;stroke:rgb(100%,100%,100%);stroke-opacity:1;stroke-miterlimit:4;" d="M 23.582007 20.274026 L 24.418 20.274026 C 25.794734 20.277343 26.912709 20.765006 26.912709 21.375413 L 26.912709 31.911578 C 26.912709 32.521986 25.798052 33.012966 24.418 33.012966 L 23.582007 33.012966 C 22.201955 33.012966 21.087298 32.521986 21.087298 31.911578 L 21.087298 21.375413 C 21.087298 20.765006 22.205272 20.277343 23.582007 20.274026 Z M 23.582007 20.274026 " transform="matrix(0.588746,0.588746,-0.588746,0.588746,14.868846,-11.128657)"/>
<path style=" stroke:none;fill-rule:nonzero;fill:rgb(100%,33.333334%,33.333334%);fill-opacity:1;" d="M 11.007812 20.992188 C 11.296875 21.28125 10.886719 22.160156 10.09375 22.953125 L 9.824219 23.222656 C 9.03125 24.015625 8.152344 24.425781 7.863281 24.136719 C 7.574219 23.847656 7.984375 22.96875 8.777344 22.175781 L 9.046875 21.90625 C 9.839844 21.113281 10.71875 20.703125 11.007812 20.992188 Z M 11.007812 20.992188 "/>
<path style=" stroke:none;fill-rule:nonzero;fill:rgb(20%,20%,20%);fill-opacity:1;" d="M 24.503906 7.613281 L 25.890625 8.996094 C 25.929688 9.035156 25.929688 9.097656 25.890625 9.136719 L 25.839844 9.1875 C 25.800781 9.226562 25.738281 9.226562 25.699219 9.1875 L 24.316406 7.800781 C 24.277344 7.761719 24.277344 7.699219 24.316406 7.660156 L 24.367188 7.613281 C 24.40625 7.574219 24.46875 7.574219 24.503906 7.613281 Z M 24.503906 7.613281 "/>
<path style=" stroke:none;fill-rule:nonzero;fill:rgb(20%,20%,20%);fill-opacity:1;" d="M 23.851562 9.3125 L 24.738281 10.199219 C 24.761719 10.222656 24.753906 10.277344 24.714844 10.3125 L 24.660156 10.363281 C 24.625 10.402344 24.574219 10.414062 24.546875 10.390625 L 23.660156 9.503906 C 23.636719 9.480469 23.648438 9.425781 23.6875 9.386719 L 23.738281 9.339844 C 23.777344 9.300781 23.828125 9.289062 23.851562 9.3125 Z M 23.851562 9.3125 "/>
<path style=" stroke:none;fill-rule:nonzero;fill:rgb(20%,20%,20%);fill-opacity:1;" d="M 22.152344 9.964844 L 23.535156 11.351562 C 23.574219 11.390625 23.574219 11.453125 23.535156 11.492188 L 23.484375 11.542969 C 23.445312 11.582031 23.382812 11.582031 23.347656 11.542969 L 21.960938 10.15625 C 21.921875 10.121094 21.921875 10.058594 21.960938 10.019531 L 22.011719 9.964844 C 22.050781 9.925781 22.113281 9.925781 22.152344 9.964844 Z M 22.152344 9.964844 "/>
<path style=" stroke:none;fill-rule:nonzero;fill:rgb(20%,20%,20%);fill-opacity:1;" d="M 21.496094 11.667969 L 22.382812 12.554688 C 22.410156 12.578125 22.394531 12.628906 22.359375 12.667969 L 22.308594 12.71875 C 22.269531 12.757812 22.21875 12.769531 22.191406 12.746094 L 21.308594 11.859375 C 21.28125 11.832031 21.292969 11.78125 21.332031 11.746094 L 21.382812 11.691406 C 21.421875 11.652344 21.472656 11.644531 21.496094 11.667969 Z M 21.496094 11.667969 "/>
<path style=" stroke:none;fill-rule:nonzero;fill:rgb(20%,20%,20%);fill-opacity:1;" d="M 19.796875 12.324219 L 21.179688 13.707031 C 21.21875 13.746094 21.21875 13.808594 21.179688 13.847656 L 21.128906 13.894531 C 21.089844 13.933594 21.027344 13.933594 20.988281 13.894531 L 19.605469 12.511719 C 19.566406 12.472656 19.566406 12.410156 19.605469 12.371094 L 19.65625 12.324219 C 19.695312 12.285156 19.757812 12.285156 19.796875 12.324219 Z M 19.796875 12.324219 "/>
<path style=" stroke:none;fill-rule:nonzero;fill:rgb(20%,20%,20%);fill-opacity:1;" d="M 19.144531 14.023438 L 20.027344 14.910156 C 20.050781 14.933594 20.042969 14.984375 20.003906 15.023438 L 19.953125 15.074219 C 19.914062 15.113281 19.863281 15.125 19.839844 15.097656 L 18.953125 14.214844 C 18.925781 14.1875 18.9375 14.136719 18.976562 14.097656 L 19.027344 14.046875 C 19.066406 14.011719 19.117188 13.996094 19.144531 14.023438 Z M 19.144531 14.023438 "/>
<path style=" stroke:none;fill-rule:nonzero;fill:rgb(20%,20%,20%);fill-opacity:1;" d="M 17.441406 14.675781 L 18.824219 16.0625 C 18.863281 16.097656 18.863281 16.160156 18.824219 16.199219 L 18.777344 16.253906 C 18.738281 16.289062 18.675781 16.289062 18.636719 16.253906 L 17.25 14.867188 C 17.210938 14.828125 17.210938 14.765625 17.25 14.726562 L 17.300781 14.675781 C 17.339844 14.636719 17.402344 14.636719 17.441406 14.675781 Z M 17.441406 14.675781 "/>
<path style=" stroke:none;fill-rule:nonzero;fill:rgb(20%,20%,20%);fill-opacity:1;" d="M 16.785156 16.378906 L 17.675781 17.261719 C 17.699219 17.289062 17.6875 17.339844 17.648438 17.378906 L 17.597656 17.429688 C 17.558594 17.46875 17.507812 17.480469 17.480469 17.453125 L 16.597656 16.566406 C 16.574219 16.542969 16.582031 16.492188 16.621094 16.453125 L 16.671875 16.402344 C 16.710938 16.363281 16.761719 16.355469 16.785156 16.378906 Z M 16.785156 16.378906 "/>
<path style=" stroke:none;fill-rule:nonzero;fill:rgb(20%,20%,20%);fill-opacity:1;" d="M 15.085938 17.03125 L 16.472656 18.417969 C 16.511719 18.457031 16.511719 18.519531 16.472656 18.554688 L 16.417969 18.605469 C 16.378906 18.644531 16.316406 18.644531 16.28125 18.605469 L 14.894531 17.222656 C 14.855469 17.183594 14.855469 17.121094 14.894531 17.082031 L 14.949219 17.03125 C 14.984375 16.992188 15.046875 16.992188 15.085938 17.03125 Z M 15.085938 17.03125 "/>
<path style=" stroke:none;fill-rule:nonzero;fill:rgb(20%,20%,20%);fill-opacity:1;" d="M 14.433594 18.730469 L 15.316406 19.621094 C 15.34375 19.644531 15.332031 19.695312 15.292969 19.734375 L 15.242188 19.785156 C 15.203125 19.824219 15.152344 19.832031 15.128906 19.808594 L 14.242188 18.925781 C 14.214844 18.898438 14.230469 18.847656 14.269531 18.808594 L 14.316406 18.757812 C 14.355469 18.71875 14.410156 18.707031 14.433594 18.730469 Z M 14.433594 18.730469 "/>
<path style=" stroke:none;fill-rule:nonzero;fill:rgb(20%,20%,20%);fill-opacity:1;" d="M 12.730469 19.386719 L 14.113281 20.769531 C 14.152344 20.808594 14.152344 20.871094 14.113281 20.910156 L 14.066406 20.960938 C 14.027344 21 13.964844 21 13.925781 20.960938 L 12.542969 19.578125 C 12.503906 19.539062 12.503906 19.476562 12.542969 19.4375 L 12.589844 19.386719 C 12.628906 19.347656 12.691406 19.347656 12.730469 19.386719 Z M 12.730469 19.386719 "/>
<path style=" stroke:none;fill-rule:nonzero;fill:rgb(20%,20%,20%);fill-opacity:1;" d="M 12.078125 21.089844 L 12.964844 21.972656 C 12.988281 21.996094 12.976562 22.050781 12.9375 22.089844 L 12.886719 22.136719 C 12.847656 22.175781 12.796875 22.191406 12.773438 22.164062 L 11.886719 21.277344 C 11.863281 21.253906 11.871094 21.203125 11.910156 21.164062 L 11.964844 21.113281 C 12.003906 21.074219 12.050781 21.0625 12.078125 21.089844 Z M 12.078125 21.089844 "/>
</g>
</svg>
