
<svg xmlns="http://www.w3.org/2000/svg" xmlns:xlink="http://www.w3.org/1999/xlink" width="32px" height="32px" viewBox="0 0 32 32" version="1.1">
<g id="surface1">
<path style="fill-rule:nonzero;fill:rgb(100%,100%,100%);fill-opacity:1;stroke-width:28.191782;stroke-linecap:butt;stroke-linejoin:miter;stroke:rgb(76.078433%,65.882355%,45.09804%);stroke-opacity:1;stroke-miterlimit:4;" d="M 81.5 25.0625 L 430.5 25.0625 C 461.6875 25.0625 486.9375 50.3125 486.9375 81.5 L 486.9375 430.5 C 486.9375 461.6875 461.6875 486.9375 430.5 486.9375 L 81.5 486.9375 C 50.3125 486.9375 25.0625 461.6875 25.0625 430.5 L 25.0625 81.5 C 25.0625 50.3125 50.3125 25.0625 81.5 25.0625 Z M 81.5 25.0625 " transform="matrix(0.0625,0,0,0.0625,0,0)"/>
<path style=" stroke:none;fill-rule:evenodd;fill:rgb(65.098041%,58.039218%,40.784314%);fill-opacity:1;" d="M 27.976562 5.574219 L 28.339844 22.550781 L 4.988281 23.046875 L 4.625 6.070312 Z M 27.976562 5.574219 "/>
<path style=" stroke:none;fill-rule:evenodd;fill:rgb(90.196079%,84.313726%,74.117649%);fill-opacity:1;" d="M 25.785156 8.457031 L 26.042969 20.730469 L 6.449219 21.148438 L 6.1875 8.871094 Z M 25.785156 8.457031 "/>
<path style=" stroke:none;fill-rule:evenodd;fill:rgb(90.196079%,84.313726%,74.117649%);fill-opacity:1;" d="M 24.234375 5.671875 L 26.800781 18.613281 L 7.628906 22.933594 L 5.0625 9.988281 Z M 24.234375 5.671875 "/>
<path style=" stroke:none;fill-rule:evenodd;fill:rgb(52.156866%,87.058824%,80.000001%);fill-opacity:1;" d="M 27.136719 14.589844 L 5.921875 20.15625 L 7.160156 24.132812 L 27.753906 19.097656 Z M 27.136719 14.589844 "/>
<path style=" stroke:none;fill-rule:evenodd;fill:rgb(49.803922%,89.019608%,100%);fill-opacity:1;" d="M 4.773438 10.238281 L 24.394531 4.070312 L 25.898438 11.871094 L 5.746094 18.386719 Z M 4.773438 10.238281 "/>
<path style="fill:none;stroke-width:32.285721;stroke-linecap:butt;stroke-linejoin:miter;stroke:rgb(76.078433%,65.882355%,45.09804%);stroke-opacity:1;stroke-miterlimit:4;" d="M 399.9375 73.8125 L 446.5625 307.8125 L 115.0625 382.125 L 68.4375 148.125 Z M 399.9375 73.8125 " transform="matrix(0.0625,0,0,0.0625,0,0)"/>
<path style=" stroke:none;fill-rule:evenodd;fill:rgb(40.000001%,40.000001%,40.000001%);fill-opacity:1;" d="M 9.484375 18.484375 L 12.230469 13.265625 L 16.667969 16.183594 L 20.089844 8.28125 L 25.019531 15.886719 L 8.332031 19.824219 Z M 9.484375 18.484375 "/>
<path style=" stroke:none;fill-rule:nonzero;fill:rgb(100%,86.274511%,32.941177%);fill-opacity:1;" d="M 11.425781 12.085938 C 11.636719 13.039062 11.03125 13.980469 10.078125 14.191406 C 9.125 14.402344 8.183594 13.796875 7.972656 12.84375 C 7.761719 11.890625 8.367188 10.949219 9.320312 10.738281 C 10.273438 10.527344 11.214844 11.132812 11.425781 12.085938 Z M 11.425781 12.085938 "/>
<path style="fill-rule:nonzero;fill:rgb(0%,50.196081%,50.196081%);fill-opacity:0.372549;stroke-width:24.14362;stroke-linecap:butt;stroke-linejoin:miter;stroke:rgb(100%,32.941177%,32.941177%);stroke-opacity:1;stroke-miterlimit:4;" d="M 372.5625 325.25 C 358 361.8125 316.5625 379.6875 279.9375 365.1875 C 243.4375 350.625 225.5625 309.1875 240.0625 272.5625 C 254.625 236 296.0625 218.1875 332.6875 232.6875 C 369.25 247.25 387.0625 288.6875 372.5625 325.25 Z M 372.5625 325.25 " transform="matrix(0.0625,0,0,0.0625,0,0)"/>
<path style=" stroke:none;fill-rule:evenodd;fill:rgb(100%,32.941177%,32.941177%);fill-opacity:1;" d="M 20.539062 22.152344 L 20.660156 22.085938 C 21.027344 21.890625 21.484375 22.03125 21.679688 22.398438 L 24.507812 27.71875 C 24.703125 28.085938 24.5625 28.542969 24.195312 28.738281 L 24.074219 28.804688 C 23.707031 29 23.246094 28.859375 23.050781 28.492188 L 20.222656 23.171875 C 20.027344 22.804688 20.167969 22.347656 20.539062 22.152344 Z M 20.539062 22.152344 "/>
<path style=" stroke:none;fill-rule:evenodd;fill:rgb(100%,100%,100%);fill-opacity:1;" d="M 18.296875 12.378906 L 20.066406 8.3125 L 22.539062 11.933594 L 20.59375 11.316406 L 20.59375 12.730469 L 19.445312 11.847656 Z M 18.296875 12.378906 "/>
<path style=" stroke:none;fill-rule:evenodd;fill:rgb(100%,100%,100%);fill-opacity:1;" d="M 10.785156 15.914062 L 12.199219 12.910156 L 14.847656 15.207031 L 13.167969 14.941406 L 13.167969 16.089844 L 12.375 15.472656 Z M 10.785156 15.914062 "/>
</g>
</svg>
