
<svg xmlns="http://www.w3.org/2000/svg" xmlns:xlink="http://www.w3.org/1999/xlink" width="32px" height="32px" viewBox="0 0 32 32" version="1.1">
<g id="surface1">
<path style="fill-rule:nonzero;fill:rgb(80.000001%,0%,100%);fill-opacity:1;stroke-width:28.097435;stroke-linecap:butt;stroke-linejoin:miter;stroke:rgb(47.450981%,19.215687%,54.509807%);stroke-opacity:1;stroke-miterlimit:4;" d="M 82.0625 25.875 L 429.9375 25.875 C 460.9375 25.875 486.125 51.0625 486.125 82.0625 L 486.125 429.9375 C 486.125 460.9375 460.9375 486.125 429.9375 486.125 L 82.0625 486.125 C 51.0625 486.125 25.875 460.9375 25.875 429.9375 L 25.875 82.0625 C 25.875 51.0625 51.0625 25.875 82.0625 25.875 Z M 82.0625 25.875 " transform="matrix(0.0625,0,0,0.0625,0,0)"/>
<path style=" stroke:none;fill-rule:nonzero;fill:rgb(100%,100%,100%);fill-opacity:1;" d="M 11.035156 22.542969 C 11.035156 22.378906 11.074219 22.191406 11.117188 22.125 C 11.160156 22.058594 11.730469 21.953125 12.386719 21.886719 C 13.296875 21.796875 13.605469 21.722656 13.710938 21.578125 C 13.808594 21.441406 13.851562 20.910156 13.851562 19.734375 L 13.851562 18.078125 L 12.996094 16.945312 C 11.933594 15.53125 9.695312 12.859375 9.058594 12.242188 L 8.582031 11.777344 L 5.777344 11.621094 L 5.742188 11.089844 C 5.722656 10.738281 5.757812 10.527344 5.851562 10.46875 C 5.929688 10.417969 8.023438 10.378906 10.503906 10.378906 L 15.019531 10.375 L 15.074219 10.667969 C 15.105469 10.832031 15.105469 11.125 15.074219 11.320312 L 15.015625 11.675781 L 13.917969 11.683594 C 12.296875 11.695312 12.308594 11.683594 13.042969 12.710938 C 13.886719 13.886719 15.730469 16.25 15.945312 16.429688 C 16.160156 16.605469 16.175781 16.59375 18.105469 14.859375 C 18.871094 14.175781 19.464844 13.570312 19.425781 13.511719 C 19.394531 13.457031 19.015625 13.410156 18.585938 13.410156 C 18.15625 13.410156 17.753906 13.371094 17.6875 13.328125 C 17.550781 13.234375 17.316406 12.597656 17.316406 12.308594 C 17.316406 12.121094 17.5 12.109375 21.328125 12.109375 C 23.535156 12.109375 25.339844 12.144531 25.339844 12.191406 C 25.339844 12.238281 25.152344 12.515625 24.925781 12.816406 L 24.519531 13.355469 L 23.546875 13.417969 C 22.660156 13.476562 22.519531 13.519531 21.941406 13.886719 C 20.945312 14.53125 18.746094 16.339844 17.886719 17.234375 L 17.101562 18.046875 L 17.101562 19.5625 C 17.101562 20.394531 17.128906 21.222656 17.167969 21.402344 L 17.230469 21.722656 L 18.585938 21.785156 C 19.332031 21.816406 19.988281 21.890625 20.050781 21.949219 C 20.109375 22.011719 20.128906 22.203125 20.089844 22.378906 L 20.019531 22.699219 L 18.21875 22.769531 C 17.226562 22.808594 15.207031 22.839844 13.722656 22.839844 L 11.035156 22.839844 Z M 11.035156 22.542969 "/>
<path style=" stroke:none;fill-rule:nonzero;fill:rgb(100%,100%,100%);fill-opacity:1;" d="M 24.050781 20.464844 C 23.929688 20.386719 23.898438 19.835938 23.886719 17.605469 C 23.878906 16.082031 23.90625 14.808594 23.941406 14.769531 C 24.019531 14.695312 26.433594 14.902344 26.527344 14.996094 C 26.582031 15.050781 25.417969 19.777344 25.21875 20.320312 C 25.144531 20.519531 25.046875 20.5625 24.664062 20.5625 C 24.410156 20.558594 24.132812 20.515625 24.050781 20.464844 Z M 24.050781 20.464844 "/>
<path style=" stroke:none;fill-rule:nonzero;fill:rgb(100%,100%,100%);fill-opacity:1;" d="M 23.847656 22.769531 C 23.761719 22.730469 23.714844 22.480469 23.714844 22.070312 L 23.714844 21.429688 L 24.261719 21.429688 C 24.910156 21.429688 25.261719 21.585938 25.191406 21.84375 C 25.164062 21.941406 25.109375 22.207031 25.074219 22.433594 C 25.003906 22.835938 25 22.839844 24.496094 22.832031 C 24.214844 22.824219 23.921875 22.796875 23.847656 22.769531 Z M 23.847656 22.769531 "/>
</g>
</svg>
