
<svg xmlns="http://www.w3.org/2000/svg" xmlns:xlink="http://www.w3.org/1999/xlink" width="32px" height="32px" viewBox="0 0 32 32" version="1.1">
<g id="surface1">
<path style=" stroke:none;fill-rule:nonzero;fill:rgb(0%,50.196081%,50.196081%);fill-opacity:1;" d="M 3.308594 1.964844 L 28.691406 1.964844 C 29.433594 1.964844 30.035156 2.566406 30.035156 3.308594 L 30.035156 28.691406 C 30.035156 29.433594 29.433594 30.035156 28.691406 30.035156 L 3.308594 30.035156 C 2.566406 30.035156 1.964844 29.433594 1.964844 28.691406 L 1.964844 3.308594 C 1.964844 2.566406 2.566406 1.964844 3.308594 1.964844 Z M 3.308594 1.964844 "/>
<path style=" stroke:none;fill-rule:nonzero;fill:rgb(100%,100%,100%);fill-opacity:1;" d="M 6.253906 6.292969 L 6.253906 8.808594 C 6.269531 8.816406 6.289062 8.828125 6.308594 8.839844 L 10.660156 11.675781 C 10.859375 11.808594 10.859375 12.019531 10.660156 12.152344 L 6.308594 14.992188 C 6.289062 15.003906 6.269531 15.011719 6.253906 15.019531 L 6.253906 17.535156 C 6.375 17.503906 6.492188 17.460938 6.589844 17.394531 L 13.8125 12.683594 L 13.8125 11.214844 C 13.8125 11.191406 13.816406 11.167969 13.816406 11.148438 L 6.589844 6.433594 C 6.492188 6.371094 6.375 6.324219 6.253906 6.292969 Z M 6.253906 6.292969 "/>
<path style=" stroke:none;fill-rule:nonzero;fill:rgb(100%,100%,100%);fill-opacity:1;" d="M 9.972656 18.242188 L 18.222656 18.242188 L 18.222656 20.574219 L 9.972656 20.574219 Z M 9.972656 18.242188 "/>
</g>
</svg>
