
<svg xmlns="http://www.w3.org/2000/svg" xmlns:xlink="http://www.w3.org/1999/xlink" width="32px" height="32px" viewBox="0 0 32 32" version="1.1">
<g id="surface1">
<path style="fill-rule:nonzero;fill:rgb(100%,100%,100%);fill-opacity:1;stroke-width:7.084184;stroke-linecap:butt;stroke-linejoin:miter;stroke:rgb(21.568628%,67.058825%,78.431374%);stroke-opacity:1;stroke-miterlimit:4;" d="M 20.140625 5.984375 L 107.859375 5.984375 C 115.671875 5.984375 122.015625 12.328125 122.015625 20.140625 L 122.015625 107.859375 C 122.015625 115.671875 115.671875 122.015625 107.859375 122.015625 L 20.140625 122.015625 C 12.328125 122.015625 5.984375 115.671875 5.984375 107.859375 L 5.984375 20.140625 C 5.984375 12.328125 12.328125 5.984375 20.140625 5.984375 Z M 20.140625 5.984375 " transform="matrix(0.25,0,0,0.25,0,0)"/>
<path style=" stroke:none;fill-rule:evenodd;fill:rgb(21.568628%,67.058825%,78.431374%);fill-opacity:1;" d="M 19.292969 6.113281 C 19.058594 6.121094 18.832031 6.152344 18.589844 6.175781 C 14.046875 6.675781 10.246094 8.597656 10.910156 13.464844 C 11.542969 15.558594 14.988281 16.5 16.0625 16.007812 C 16.449219 14.539062 18.488281 11.753906 21.480469 13.136719 C 24.09375 14.636719 26.34375 18.785156 25.941406 22.949219 C 27.324219 20.984375 28.140625 18.589844 28.140625 16.007812 C 28.140625 12.496094 26.644531 9.335938 24.253906 7.128906 C 24.238281 7.125 24.230469 7.117188 24.21875 7.113281 C 22.910156 6.511719 21.496094 6.152344 20.003906 6.113281 C 19.769531 6.105469 19.53125 6.101562 19.296875 6.113281 Z M 19.292969 6.113281 "/>
<path style=" stroke:none;fill-rule:evenodd;fill:rgb(100%,16.470589%,16.470589%);fill-opacity:1;" d="M 16.058594 3.929688 C 11.613281 3.929688 7.738281 6.324219 5.640625 9.902344 C 5.269531 13.167969 6.675781 16.039062 9.019531 17.386719 C 12.007812 18.769531 15.671875 17.476562 16.058594 16.007812 C 14.988281 16.5 11.539062 15.558594 10.90625 13.464844 C 10.246094 8.597656 14.046875 6.675781 18.585938 6.175781 C 20.613281 5.957031 22.515625 6.320312 24.230469 7.113281 C 22.082031 5.136719 19.210938 3.929688 16.058594 3.929688 Z M 20.738281 12.871094 C 20.839844 12.898438 20.945312 12.933594 21.050781 12.972656 C 20.941406 12.933594 20.839844 12.898438 20.738281 12.871094 Z M 20.738281 12.871094 "/>
<path style=" stroke:none;fill-rule:nonzero;fill:rgb(37.254903%,82.745099%,37.254903%);fill-opacity:1;" d="M 19.898438 12.757812 C 17.777344 12.746094 16.375 14.816406 16.058594 16.007812 C 16.242188 15.949219 19.933594 14.941406 20.621094 16.828125 C 21.285156 21.699219 18.074219 25.339844 13.53125 25.839844 C 11.503906 26.058594 9.605469 25.699219 7.886719 24.902344 C 10.035156 26.882812 12.90625 28.085938 16.058594 28.085938 C 20.144531 28.085938 23.753906 26.058594 25.9375 22.949219 C 26.339844 18.785156 24.089844 14.640625 21.472656 13.136719 C 20.914062 12.878906 20.386719 12.761719 19.898438 12.761719 Z M 19.898438 12.757812 "/>
<path style=" stroke:none;fill-rule:nonzero;fill:rgb(100%,83.137256%,16.470589%);fill-opacity:1;" d="M 5.640625 9.902344 C 4.589844 11.691406 3.980469 13.78125 3.980469 16.007812 C 3.980469 19.527344 5.488281 22.695312 7.886719 24.902344 C 9.605469 25.695312 11.507812 26.058594 13.535156 25.835938 C 18.074219 25.339844 21.285156 21.699219 20.621094 16.824219 C 20.589844 16.714844 20.542969 16.613281 20.492188 16.515625 C 20.480469 16.496094 20.484375 16.480469 20.472656 16.464844 C 20.425781 16.386719 20.367188 16.320312 20.308594 16.253906 C 20.289062 16.226562 20.277344 16.191406 20.261719 16.167969 C 20.195312 16.097656 20.117188 16.03125 20.046875 15.972656 C 20.027344 15.957031 20.011719 15.9375 19.996094 15.925781 C 19.945312 15.886719 19.878906 15.871094 19.832031 15.839844 C 19.78125 15.808594 19.730469 15.769531 19.667969 15.742188 C 19.628906 15.722656 19.582031 15.710938 19.539062 15.691406 C 19.464844 15.660156 19.394531 15.636719 19.308594 15.613281 C 19.28125 15.605469 19.253906 15.585938 19.226562 15.578125 C 19.078125 15.535156 18.910156 15.519531 18.75 15.496094 C 18.675781 15.488281 18.585938 15.488281 18.503906 15.480469 C 18.332031 15.464844 18.160156 15.445312 17.980469 15.449219 C 17.753906 15.449219 17.53125 15.472656 17.308594 15.496094 C 17.089844 15.519531 16.875 15.539062 16.667969 15.578125 C 16.269531 15.738281 16.230469 15.863281 16.089844 15.988281 C 16.097656 15.988281 16.078125 15.988281 16.074219 15.988281 C 16.074219 15.988281 16.066406 16.003906 16.058594 16.003906 C 15.675781 17.472656 12.003906 18.769531 9.019531 17.382812 C 6.675781 16.035156 5.273438 13.167969 5.640625 9.902344 Z M 5.640625 9.902344 "/>
</g>
</svg>
