
<svg xmlns="http://www.w3.org/2000/svg" xmlns:xlink="http://www.w3.org/1999/xlink" width="32px" height="32px" viewBox="0 0 32 32" version="1.1">
<g id="surface1">
<path style=" stroke:none;fill-rule:evenodd;fill:rgb(90.588236%,67.843139%,67.843139%);fill-opacity:1;" d="M 5.691406 1.738281 L 26.308594 1.738281 C 28.554688 1.738281 30.375 3.558594 30.375 5.808594 L 30.375 26.421875 C 30.375 28.667969 28.554688 30.488281 26.308594 30.488281 L 5.691406 30.488281 C 3.445312 30.488281 1.625 28.667969 1.625 26.421875 L 1.625 5.808594 C 1.625 3.558594 3.445312 1.738281 5.691406 1.738281 Z M 5.691406 1.738281 "/>
<path style="fill-rule:nonzero;fill:rgb(92.54902%,92.54902%,92.54902%);fill-opacity:1;stroke-width:21.5;stroke-linecap:round;stroke-linejoin:miter;stroke:rgb(92.54902%,92.54902%,92.54902%);stroke-opacity:1;stroke-miterlimit:4;" d="M 330.125 136.125 C 302.25 120.3125 279.25 106.75 279 105.9375 C 278.75 105.1875 280 102.8125 281.8125 100.5625 L 283.5625 97.5625 L 292.6875 100.4375 C 303.625 103.75 385.9375 152.5625 388.1875 154.5625 C 389.5 155.8125 389.3125 157.0625 387.125 160.625 C 385.5625 163.0625 383.5625 165.0625 382.5625 165 C 381.5625 164.9375 358 151.9375 330.125 136.125 Z M 330.125 136.125 " transform="matrix(0.0625,0,0,0.0625,0,0)"/>
<path style=" stroke:none;fill-rule:nonzero;fill:rgb(61.960787%,77.254903%,41.176471%);fill-opacity:1;" d="M 15.707031 22.855469 C 15.019531 22.449219 13.902344 21.792969 13.230469 21.398438 C 12.558594 21.003906 11.824219 20.574219 11.605469 20.441406 C 11.386719 20.308594 10.859375 20 10.433594 19.761719 C 10.003906 19.519531 9.480469 19.453125 9.414062 19.394531 C 9.292969 19.296875 9.425781 19.113281 13.082031 12.777344 C 15.097656 9.289062 16.734375 6.527344 16.769531 6.511719 C 16.832031 6.492188 18.332031 7.390625 18.546875 7.519531 C 18.628906 7.570312 18.949219 7.722656 19.246094 7.875 C 19.542969 8.027344 20.261719 8.355469 20.816406 8.683594 C 21.375 9.007812 22.386719 9.597656 23.066406 9.996094 C 23.746094 10.394531 24.3125 10.757812 24.324219 10.804688 C 24.332031 10.851562 23.597656 12.179688 22.691406 13.753906 C 21.785156 15.332031 20.175781 18.128906 19.117188 19.976562 C 18.054688 21.824219 17.136719 23.390625 17.074219 23.460938 L 16.957031 23.589844 Z M 15.707031 22.855469 "/>
<path style=" stroke:none;fill-rule:nonzero;fill:rgb(61.960787%,77.254903%,41.176471%);fill-opacity:1;" d="M 23.761719 9.222656 C 23.152344 8.871094 21.5 7.921875 20.089844 7.113281 C 18.683594 6.304688 17.484375 5.601562 17.429688 5.550781 C 17.339844 5.464844 17.34375 5.441406 17.507812 5.160156 C 17.667969 4.878906 17.722656 4.839844 18.261719 4.582031 C 18.96875 4.238281 19.40625 4.125 20.160156 4.082031 C 22.660156 3.941406 24.839844 5.671875 25.269531 8.136719 C 25.398438 8.878906 25.386719 9.082031 25.183594 9.441406 C 25.089844 9.613281 24.980469 9.773438 24.941406 9.804688 C 24.894531 9.84375 24.542969 9.667969 23.761719 9.222656 Z M 23.761719 9.222656 "/>
<path style=" stroke:none;fill-rule:nonzero;fill:rgb(22.352941%,76.862746%,65.882355%);fill-opacity:1;" d="M 15.714844 22.78125 C 15.066406 22.398438 13.976562 21.761719 13.296875 21.363281 C 12.378906 20.828125 12.0625 20.617188 12.066406 20.539062 C 12.070312 20.382812 19.269531 7.9375 19.355469 7.9375 C 19.394531 7.9375 19.957031 8.246094 20.605469 8.621094 C 21.253906 8.996094 21.800781 9.300781 21.820312 9.300781 C 21.925781 9.304688 24.308594 10.730469 24.324219 10.804688 C 24.332031 10.851562 23.589844 12.191406 22.675781 13.785156 C 17.304688 23.128906 17.113281 23.453125 17.007812 23.464844 C 16.949219 23.472656 16.371094 23.164062 15.714844 22.78125 Z M 15.714844 22.78125 "/>
<path style=" stroke:none;fill-rule:nonzero;fill:rgb(22.352941%,76.862746%,65.882355%);fill-opacity:1;" d="M 10.324219 19.609375 C 9.902344 19.359375 9.558594 19.136719 9.558594 19.105469 C 9.558594 19.011719 16.789062 6.515625 16.84375 6.515625 C 16.875 6.515625 17.246094 6.714844 17.671875 6.964844 C 18.234375 7.292969 18.4375 7.441406 18.433594 7.519531 C 18.421875 7.675781 11.261719 20.035156 11.171875 20.046875 C 11.128906 20.054688 10.746094 19.855469 10.324219 19.609375 Z M 10.324219 19.609375 "/>
<path style=" stroke:none;fill-rule:nonzero;fill:rgb(22.352941%,76.862746%,65.882355%);fill-opacity:1;" d="M 23.480469 9.0625 C 22.773438 8.652344 21.121094 7.699219 19.804688 6.941406 C 18.488281 6.179688 17.367188 5.550781 17.359375 5.503906 C 17.324219 5.339844 17.660156 4.832031 18.011719 4.644531 C 18.484375 4.402344 19.292969 4.15625 19.90625 4.082031 C 21.664062 3.878906 23.476562 4.746094 24.496094 6.246094 C 24.964844 6.929688 25.289062 7.929688 25.308594 8.734375 C 25.316406 9.121094 25.300781 9.191406 25.132812 9.488281 C 25.019531 9.691406 24.910156 9.8125 24.855469 9.808594 C 24.800781 9.808594 24.183594 9.472656 23.480469 9.0625 Z M 23.480469 9.0625 "/>
<path style=" stroke:none;fill-rule:nonzero;fill:rgb(43.137255%,76.078433%,21.960784%);fill-opacity:1;" d="M 15.714844 22.78125 C 15.066406 22.398438 13.976562 21.761719 13.296875 21.363281 C 12.378906 20.828125 12.0625 20.617188 12.066406 20.539062 C 12.070312 20.382812 19.269531 7.9375 19.355469 7.9375 C 19.394531 7.9375 20.011719 8.226562 20.660156 8.601562 C 21.308594 8.980469 21.820312 9.28125 21.839844 9.28125 C 21.945312 9.28125 24.332031 10.753906 24.347656 10.824219 C 24.355469 10.875 23.589844 12.191406 22.675781 13.785156 C 17.304688 23.128906 17.113281 23.453125 17.007812 23.464844 C 16.949219 23.472656 16.371094 23.164062 15.714844 22.78125 Z M 15.714844 22.78125 "/>
<path style=" stroke:none;fill-rule:nonzero;fill:rgb(43.137255%,76.078433%,21.960784%);fill-opacity:1;" d="M 10.324219 19.609375 C 9.902344 19.359375 9.390625 19.277344 9.390625 19.25 C 9.390625 19.152344 16.714844 6.511719 16.769531 6.511719 C 16.800781 6.511719 17.246094 6.714844 17.671875 6.964844 C 18.234375 7.292969 18.4375 7.441406 18.433594 7.519531 C 18.421875 7.675781 11.261719 20.035156 11.171875 20.046875 C 11.128906 20.054688 10.746094 19.855469 10.324219 19.609375 Z M 10.324219 19.609375 "/>
<path style=" stroke:none;fill-rule:nonzero;fill:rgb(43.137255%,76.078433%,21.960784%);fill-opacity:1;" d="M 23.734375 9.125 C 23.140625 8.78125 22.621094 8.464844 22.578125 8.425781 C 22.515625 8.363281 22.535156 8.296875 22.691406 8.042969 C 22.867188 7.761719 22.878906 7.707031 22.871094 7.296875 C 22.847656 6.441406 22.511719 5.4375 21.996094 4.683594 C 21.734375 4.300781 21.765625 4.277344 22.285156 4.488281 C 22.816406 4.703125 23.292969 5.019531 23.753906 5.457031 C 24.628906 6.289062 25.113281 7.269531 25.253906 8.511719 L 25.316406 9.0625 L 25.125 9.410156 C 25.019531 9.601562 24.90625 9.757812 24.875 9.753906 C 24.84375 9.753906 24.332031 9.472656 23.734375 9.125 Z M 23.734375 9.125 "/>
<path style=" stroke:none;fill-rule:nonzero;fill:rgb(26.274511%,46.27451%,12.54902%);fill-opacity:1;" d="M 15.816406 22.835938 C 15.222656 22.488281 14.59375 22.105469 14.425781 21.996094 C 14.253906 21.882812 13.65625 21.527344 13.101562 21.207031 C 12.542969 20.886719 12.089844 20.597656 12.089844 20.5625 C 12.089844 20.457031 19.285156 8.039062 19.363281 8.007812 C 19.40625 7.992188 19.933594 8.261719 20.535156 8.609375 C 21.136719 8.957031 21.734375 9.3125 21.878906 9.371094 C 22.355469 9.582031 24.316406 10.773438 24.332031 10.863281 C 24.339844 10.910156 23.589844 12.191406 22.675781 13.785156 C 17.277344 23.175781 17.113281 23.453125 17.007812 23.460938 C 16.949219 23.464844 16.414062 23.183594 15.816406 22.835938 Z M 15.816406 22.835938 "/>
<path style=" stroke:none;fill-rule:nonzero;fill:rgb(26.274511%,46.27451%,12.54902%);fill-opacity:1;" d="M 23.691406 9.214844 C 23.097656 8.867188 22.574219 8.550781 22.535156 8.511719 C 22.472656 8.453125 22.535156 8.296875 22.691406 8.042969 C 22.867188 7.761719 22.878906 7.707031 22.871094 7.296875 C 22.847656 6.441406 22.511719 5.4375 21.996094 4.683594 C 21.734375 4.300781 21.820312 4.222656 22.339844 4.433594 C 22.871094 4.648438 23.347656 4.964844 23.808594 5.402344 C 24.683594 6.230469 25.238281 7.199219 25.339844 8.441406 L 25.363281 9.058594 L 25.222656 9.429688 C 25.144531 9.632812 25.003906 9.875 24.972656 9.875 C 24.941406 9.871094 24.285156 9.558594 23.691406 9.214844 Z M 23.691406 9.214844 "/>
<path style=" stroke:none;fill-rule:nonzero;fill:rgb(9.411765%,14.509805%,3.921569%);fill-opacity:1;" d="M 9.542969 27.261719 C 9.542969 27.070312 9.511719 26.429688 9.480469 25.835938 C 9.449219 25.246094 9.441406 24.738281 9.46875 24.707031 C 9.519531 24.652344 12.078125 26.097656 12.113281 26.203125 C 12.128906 26.253906 9.941406 27.464844 9.613281 27.582031 C 9.578125 27.597656 9.546875 27.453125 9.542969 27.261719 Z M 9.542969 27.261719 "/>
<path style=" stroke:none;fill-rule:nonzero;fill:rgb(9.411765%,14.509805%,3.921569%);fill-opacity:1;" d="M 15.886719 22.742188 C 15.246094 22.367188 14.714844 22.039062 14.703125 22.011719 C 14.695312 21.980469 15.050781 21.332031 15.492188 20.570312 C 15.933594 19.808594 17.566406 16.984375 19.117188 14.300781 C 20.667969 11.613281 21.953125 9.417969 21.972656 9.417969 C 21.992188 9.417969 22.535156 9.722656 23.175781 10.09375 C 23.96875 10.550781 24.339844 10.800781 24.335938 10.863281 C 24.332031 10.910156 23.585938 12.238281 22.675781 13.816406 C 21.769531 15.386719 20.160156 18.1875 19.09375 20.035156 C 18.03125 21.878906 17.007812 23.605469 16.980469 23.613281 C 16.949219 23.621094 16.527344 23.113281 15.886719 22.742188 Z M 15.886719 22.742188 "/>
<path style="fill-rule:nonzero;fill:rgb(92.54902%,92.54902%,92.54902%);fill-opacity:1;stroke-width:21.5;stroke-linecap:round;stroke-linejoin:miter;stroke:rgb(92.54902%,92.54902%,92.54902%);stroke-opacity:1;stroke-miterlimit:4;" d="M 187.1875 405.0625 C 183.5625 402.875 176.4375 398.4375 171.3125 395.1875 L 161.9375 389.3125 L 161.0625 364.5625 C 160.625 351 159.8125 333.9375 159.4375 326.5625 C 158.6875 314.6875 158.8125 313.3125 160.8125 313.3125 C 163.1875 313.3125 172.8125 318.6875 221.3125 346.75 C 255.8125 366.75 263 371.375 262.0625 372.875 C 261 374.5625 195.9375 409.4375 194.3125 409.1875 C 194 409.125 190.8125 407.25 187.1875 405.0625 Z M 187.1875 405.0625 " transform="matrix(0.0625,0,0,0.0625,0,0)"/>
</g>
</svg>
