
<svg xmlns="http://www.w3.org/2000/svg" xmlns:xlink="http://www.w3.org/1999/xlink" width="32px" height="32px" viewBox="0 0 32 32" version="1.1">
<g id="surface1">
<path style=" stroke:none;fill-rule:evenodd;fill:rgb(57.647061%,67.450982%,61.56863%);fill-opacity:1;" d="M 4.621094 1.574219 L 27.238281 1.574219 C 29.082031 1.574219 30.574219 3.066406 30.574219 4.910156 L 30.574219 27.527344 C 30.574219 29.371094 29.082031 30.863281 27.238281 30.863281 L 4.621094 30.863281 C 2.78125 30.863281 1.289062 29.371094 1.289062 27.527344 L 1.289062 4.910156 C 1.289062 3.066406 2.78125 1.574219 4.621094 1.574219 Z M 4.621094 1.574219 "/>
<path style=" stroke:none;fill-rule:evenodd;fill:rgb(90.196079%,90.196079%,90.196079%);fill-opacity:1;" d="M 9.988281 16.898438 L 22.429688 16.898438 C 24.054688 16.898438 25.371094 18.214844 25.371094 19.839844 L 25.371094 25.132812 C 25.371094 26.757812 24.054688 28.074219 22.429688 28.074219 L 9.988281 28.074219 C 8.363281 28.074219 7.042969 26.757812 7.042969 25.132812 L 7.042969 19.839844 C 7.042969 18.214844 8.363281 16.898438 9.988281 16.898438 Z M 9.988281 16.898438 "/>
<path style=" stroke:none;fill-rule:nonzero;fill:rgb(61.960787%,66.274512%,67.450982%);fill-opacity:1;" d="M 10.394531 24.238281 C 10.058594 24.117188 9.832031 23.925781 9.699219 23.648438 C 9.316406 22.855469 9.878906 21.957031 10.753906 21.957031 C 11.855469 21.957031 12.335938 23.277344 11.503906 24.003906 C 11.171875 24.300781 10.789062 24.378906 10.394531 24.238281 Z M 10.394531 24.238281 "/>
<path style=" stroke:none;fill-rule:nonzero;fill:rgb(61.960787%,66.274512%,67.450982%);fill-opacity:1;" d="M 21.011719 24.234375 C 20.714844 24.128906 20.457031 23.878906 20.316406 23.582031 C 19.964844 22.816406 20.53125 21.957031 21.386719 21.957031 C 22.277344 21.957031 22.84375 22.890625 22.429688 23.675781 C 22.175781 24.160156 21.511719 24.417969 21.011719 24.234375 Z M 21.011719 24.234375 "/>
<path style=" stroke:none;fill-rule:evenodd;fill:rgb(100%,83.529413%,83.529413%);fill-opacity:1;" d="M 10.613281 16.46875 L 21.628906 16.46875 C 24.722656 16.46875 27.230469 17.328125 27.230469 18.386719 L 27.230469 18.457031 C 27.230469 19.515625 24.722656 20.375 21.628906 20.375 L 10.613281 20.375 C 7.519531 20.375 5.011719 19.515625 5.011719 18.457031 L 5.011719 18.386719 C 5.011719 17.328125 7.519531 16.46875 10.613281 16.46875 Z M 10.613281 16.46875 "/>
<path style=" stroke:none;fill-rule:nonzero;fill:rgb(80.392158%,3.529412%,3.529412%);fill-opacity:1;" d="M 4.34375 19.089844 C 4.132812 18.757812 3.773438 16.109375 3.941406 16.109375 C 3.957031 16.109375 4.160156 16.167969 4.386719 16.234375 C 4.988281 16.417969 5.683594 16.378906 6.207031 16.128906 C 7.265625 15.632812 7.875 14.503906 7.691406 13.394531 C 7.496094 12.199219 6.539062 11.300781 5.371094 11.222656 C 5.113281 11.207031 4.890625 11.167969 4.875 11.144531 C 4.828125 11.066406 5.457031 9.863281 5.894531 9.199219 C 7.402344 6.910156 9.613281 5.207031 12.1875 4.347656 C 17.933594 2.425781 24.191406 4.992188 26.941406 10.394531 C 27.28125 11.066406 27.292969 11.207031 26.996094 11.207031 C 26.734375 11.207031 26.128906 11.425781 25.847656 11.621094 C 25.097656 12.144531 24.691406 12.894531 24.691406 13.777344 C 24.691406 14.949219 25.425781 15.933594 26.542969 16.257812 C 26.886719 16.355469 27.558594 16.355469 28.054688 16.253906 L 28.253906 16.210938 L 28.214844 16.8125 C 28.171875 17.484375 27.910156 18.917969 27.804688 19.082031 C 27.738281 19.183594 27.292969 19.191406 16.074219 19.199219 C 4.480469 19.210938 4.417969 19.207031 4.34375 19.089844 Z M 4.34375 19.089844 "/>
<path style=" stroke:none;fill-rule:nonzero;fill:rgb(100%,100%,100%);fill-opacity:1;" d="M 17.515625 15.464844 C 19.011719 15.015625 20.167969 14.0625 20.867188 12.707031 C 21.28125 11.910156 21.394531 11.453125 21.425781 10.441406 C 21.460938 9.5 21.371094 8.949219 21.0625 8.191406 C 20.605469 7.058594 19.589844 5.972656 18.460938 5.40625 C 17.300781 4.820312 15.730469 4.703125 14.449219 5.105469 C 12.589844 5.691406 11.175781 7.261719 10.777344 9.183594 C 10.707031 9.527344 10.691406 9.839844 10.714844 10.46875 C 10.746094 11.449219 10.867188 11.917969 11.273438 12.707031 C 12.035156 14.183594 13.320312 15.167969 14.976562 15.550781 C 15.519531 15.675781 16.980469 15.628906 17.515625 15.464844 Z M 17.515625 15.464844 "/>
<path style=" stroke:none;fill-rule:evenodd;fill:rgb(100%,100%,100%);fill-opacity:1;" d="M 26.875 16.453125 C 25.636719 16.277344 24.699219 15.125 24.703125 13.796875 C 24.710938 12.46875 25.597656 11.425781 26.964844 11.140625 C 27.136719 11.105469 27.191406 11.082031 27.203125 11.097656 C 27.21875 11.113281 27.363281 11.371094 27.460938 11.632812 C 27.925781 12.90625 28.308594 14.785156 28.269531 15.910156 C 28.253906 16.355469 28.25 16.371094 28.125 16.402344 C 27.898438 16.464844 27.160156 16.496094 26.875 16.453125 Z M 26.875 16.453125 "/>
<path style=" stroke:none;fill-rule:evenodd;fill:rgb(100%,100%,100%);fill-opacity:1;" d="M 4.90625 16.324219 C 4.625 16.292969 4.050781 16.144531 3.996094 16.085938 C 3.96875 16.058594 3.957031 16.019531 3.953125 15.933594 C 3.9375 15.714844 4.011719 14.613281 4.074219 14.105469 C 4.15625 13.46875 4.386719 12.554688 4.683594 11.664062 C 4.765625 11.425781 4.839844 11.203125 4.851562 11.171875 L 4.871094 11.113281 L 5.039062 11.125 C 5.527344 11.152344 5.714844 11.183594 5.992188 11.28125 C 6.355469 11.40625 6.65625 11.597656 6.949219 11.894531 C 7.316406 12.273438 7.542969 12.707031 7.664062 13.253906 C 7.71875 13.515625 7.71875 13.980469 7.660156 14.238281 C 7.460938 15.164062 6.800781 15.925781 5.957031 16.214844 C 5.667969 16.308594 5.210938 16.359375 4.90625 16.324219 Z M 4.90625 16.324219 "/>
</g>
</svg>
