<svg xmlns="http://www.w3.org/2000/svg" width="16" height="16"><path d="M8.895 5.5 8 6.395 10.105 8.5 8 10.605l.895.895L11 9.395l2.105 2.105.895-.895L11.895 8.5 14 6.395l-.895-.895L11 7.605z" style="color:#000;fill:#000;fill-opacity:.14901961"/><path d="M6 4 4 6v5l2 2V9.997L7.5 8.5 6 7zM1.75 6c-.391 0-.75.416-.75.836v3.328c0 .483.327.836.75.836H4V6z" style="fill:#000;fill-opacity:.30196078"/><path style="fill:#dcdcdc" d="M6 3 4 5v5l2 2V8.997L7.5 7.5 6 6zM1.75 5c-.391 0-.75.416-.75.836v3.328c0 .483.327.836.75.836H4V5z"/><path style="color:#000;fill:#dbdbdb;fill-opacity:.50196081" d="M8.895 4.5 8 5.395 10.105 7.5 8 9.605l.895.895L11 8.395l2.105 2.105.895-.895L11.895 7.5 14 5.395l-.895-.895L11 6.605z"/></svg>