
<svg xmlns="http://www.w3.org/2000/svg" xmlns:xlink="http://www.w3.org/1999/xlink" width="22px" height="22px" viewBox="0 0 22 22" version="1.1">
<g id="surface1">
<path style="fill-rule:nonzero;fill:rgb(100%,100%,100%);fill-opacity:1;stroke-width:27.910587;stroke-linecap:butt;stroke-linejoin:miter;stroke:rgb(0%,67.058824%,93.333333%);stroke-opacity:1;stroke-miterlimit:4;" d="M 83.181818 27.363636 L 428.818182 27.363636 C 459.636364 27.363636 484.636364 52.363636 484.636364 83.181818 L 484.636364 428.818182 C 484.636364 459.636364 459.636364 484.636364 428.818182 484.636364 L 83.181818 484.636364 C 52.363636 484.636364 27.363636 459.636364 27.363636 428.818182 L 27.363636 83.181818 C 27.363636 52.363636 52.363636 27.363636 83.181818 27.363636 Z M 83.181818 27.363636 " transform="matrix(0.0429688,0,0,0.0429688,0,0)"/>
<path style=" stroke:none;fill-rule:nonzero;fill:rgb(22.745098%,20.784314%,21.960784%);fill-opacity:1;" d="M 10.769531 11.496094 C 11.164062 11.644531 11.539062 11.519531 11.8125 11.148438 C 11.914062 11.015625 11.9375 10.921875 11.9375 10.660156 L 11.941406 10.339844 L 13.648438 8.628906 L 15.351562 6.914062 L 15.359375 6.757812 C 15.359375 6.667969 15.34375 6.566406 15.324219 6.523438 C 15.277344 6.433594 15.03125 6.347656 14.933594 6.390625 C 14.894531 6.410156 14.097656 7.1875 13.160156 8.125 L 11.457031 9.828125 L 11.273438 9.804688 L 11.085938 9.777344 L 8.238281 6.933594 L 8.0625 6.898438 C 7.789062 6.847656 7.597656 6.894531 7.441406 7.050781 C 7.265625 7.222656 7.230469 7.425781 7.324219 7.707031 C 7.390625 7.917969 7.398438 7.925781 8.777344 9.300781 L 10.160156 10.683594 L 10.21875 10.898438 C 10.289062 11.164062 10.5 11.394531 10.769531 11.496094 Z M 10.769531 11.496094 "/>
<path style="fill:none;stroke-width:35.849998;stroke-linecap:butt;stroke-linejoin:miter;stroke:rgb(0%,67.058824%,93.333333%);stroke-opacity:1;stroke-miterlimit:4;" d="M 425.454545 256 C 425.454545 349.636364 349.636364 425.454545 256 425.454545 C 162.363636 425.454545 86.545455 349.636364 86.545455 256 C 86.545455 162.363636 162.363636 86.545455 256 86.545455 C 349.636364 86.545455 425.454545 162.363636 425.454545 256 Z M 425.454545 256 " transform="matrix(0.0429688,0,0,0.0429688,0,0)"/>
</g>
</svg>
