
<svg xmlns="http://www.w3.org/2000/svg" xmlns:xlink="http://www.w3.org/1999/xlink" width="22px" height="22px" viewBox="0 0 22 22" version="1.1">
<g id="surface1">
<path style="fill-rule:nonzero;fill:rgb(0%,65.882353%,83.137255%);fill-opacity:1;stroke-width:27.442497;stroke-linecap:butt;stroke-linejoin:miter;stroke:rgb(1.176471%,48.235294%,61.176471%);stroke-opacity:1;stroke-miterlimit:4;" d="M 86.090909 31.272727 L 425.909091 31.272727 C 456.181818 31.272727 480.727273 55.818182 480.727273 86.090909 L 480.727273 425.909091 C 480.727273 456.181818 456.181818 480.727273 425.909091 480.727273 L 86.090909 480.727273 C 55.818182 480.727273 31.272727 456.181818 31.272727 425.909091 L 31.272727 86.090909 C 31.272727 55.818182 55.818182 31.272727 86.090909 31.272727 Z M 86.090909 31.272727 " transform="matrix(0.0429688,0,0,0.0429688,0,0)"/>
<path style=" stroke:none;fill-rule:nonzero;fill:rgb(100%,100%,100%);fill-opacity:1;" d="M 6.847656 5.019531 L 3.839844 8.15625 L 10.242188 8.15625 L 10.242188 5.019531 Z M 11.757812 5.019531 L 11.757812 8.15625 L 18.160156 8.15625 L 15.152344 5.019531 Z M 3.433594 9.007812 L 3.433594 16.980469 L 18.566406 16.980469 L 18.566406 9.007812 Z M 3.433594 9.007812 "/>
</g>
</svg>
