
<svg xmlns="http://www.w3.org/2000/svg" xmlns:xlink="http://www.w3.org/1999/xlink" width="22px" height="22px" viewBox="0 0 22 22" version="1.1">
<g id="surface1">
<path style="fill-rule:nonzero;fill:rgb(100%,100%,100%);fill-opacity:1;stroke-width:23.5;stroke-linecap:butt;stroke-linejoin:miter;stroke:rgb(0%,0%,0%);stroke-opacity:1;stroke-miterlimit:4;" d="M 87.090909 23.818182 L 427 23.818182 C 460.818182 23.818182 488.181818 51.181818 488.181818 85 L 488.181818 431.363636 C 488.181818 465.090909 460.818182 492.454545 427 492.454545 L 87.090909 492.454545 C 53.363636 492.454545 26 465.090909 26 431.363636 L 26 85 C 26 51.181818 53.363636 23.818182 87.090909 23.818182 Z M 87.090909 23.818182 " transform="matrix(0.0429688,0,0,0.0429688,0,0)"/>
<path style=" stroke:none;fill-rule:nonzero;fill:rgb(20.784314%,30.588235%,34.901961%);fill-opacity:1;" d="M 4.183594 12.273438 L 17.898438 12.273438 C 18.660156 12.273438 19.28125 12.796875 19.28125 13.4375 L 19.28125 16.585938 C 19.28125 17.230469 18.660156 17.75 17.898438 17.75 L 4.183594 17.75 C 3.421875 17.75 2.804688 17.230469 2.804688 16.585938 L 2.804688 13.4375 C 2.804688 12.796875 3.421875 12.273438 4.183594 12.273438 Z M 4.183594 12.273438 "/>
<path style="fill-rule:nonzero;fill:rgb(60.784314%,81.568627%,94.117647%);fill-opacity:1;stroke-width:0.75;stroke-linecap:butt;stroke-linejoin:miter;stroke:rgb(0%,0%,0%);stroke-opacity:1;stroke-miterlimit:4;" d="M -26.22202 -1131.681015 L 35.28346 -1082.635697 L 88.968201 -1099.470171 L 102.753912 -1163.229085 L 11.556131 -1150.901478 Z M -26.22202 -1131.681015 " transform="matrix(0.0294689,0,0,0.0294689,8.425078,41.521291)"/>
<path style="fill-rule:nonzero;fill:rgb(60.784314%,81.568627%,94.117647%);fill-opacity:1;stroke-width:0.75;stroke-linecap:butt;stroke-linejoin:miter;stroke:rgb(0%,0%,0%);stroke-opacity:1;stroke-miterlimit:4;" d="M 35.28346 -1082.635697 L 35.28346 -1043.531997 L -19.991939 -1011.586263 L -49.15402 -1127.174148 L -16.147846 -1123.330056 Z M 35.28346 -1082.635697 " transform="matrix(0.0294689,0,0,0.0294689,8.425078,41.521291)"/>
<path style="fill-rule:nonzero;fill:rgb(60.784314%,81.568627%,94.117647%);fill-opacity:1;stroke-width:0.75;stroke-linecap:butt;stroke-linejoin:miter;stroke:rgb(0%,0%,0%);stroke-opacity:1;stroke-miterlimit:4;" d="M 35.28346 -1043.531997 L 107.790998 -1024.046425 L 105.1399 -961.480506 L -28.342898 -956.841084 L -41.465835 -994.486679 L -32.186991 -1006.018957 Z M 35.28346 -1043.531997 " transform="matrix(0.0294689,0,0,0.0294689,8.425078,41.521291)"/>
<path style=" stroke:none;fill-rule:nonzero;fill:rgb(16.862745%,60.392157%,85.098039%);fill-opacity:1;" d="M 12.644531 2.457031 L 6.636719 6.039062 L 6.636719 14.15625 L 12.644531 16.652344 Z M 10.789062 7.730469 L 10.789062 12.082031 L 8.488281 11.316406 L 8.488281 8.828125 Z M 10.789062 7.730469 "/>
<path style="fill-rule:nonzero;fill:rgb(60.784314%,81.568627%,94.117647%);fill-opacity:1;stroke-width:0.75;stroke-linecap:butt;stroke-linejoin:miter;stroke:rgb(0%,0%,0%);stroke-opacity:1;stroke-miterlimit:4;" d="M 143.580825 -1325.343745 L 213.0396 -1251.643213 L 213.0396 -874.126817 L 143.580825 -843.771742 Z M 143.580825 -1325.343745 " transform="matrix(0.0294689,0,0,0.0294689,8.425078,41.521291)"/>
</g>
</svg>
