
<svg xmlns="http://www.w3.org/2000/svg" xmlns:xlink="http://www.w3.org/1999/xlink" width="22px" height="22px" viewBox="0 0 22 22" version="1.1">
<g id="surface1">
<path style="fill-rule:nonzero;fill:rgb(74.117647%,76.078431%,78.039216%);fill-opacity:1;stroke-width:27.27438;stroke-linecap:butt;stroke-linejoin:miter;stroke:rgb(48.627451%,53.333333%,57.647059%);stroke-opacity:1;stroke-miterlimit:4;" d="M -506.907534 0.288137 L -165.634806 0.288137 C -135.180261 0.288137 -110.452988 24.469955 -110.452988 54.288137 L -110.452988 388.288137 C -110.452988 418.106319 -135.180261 442.288137 -165.634806 442.288137 L -506.907534 442.288137 C -537.362079 442.288137 -562.089352 418.106319 -562.089352 388.288137 L -562.089352 54.288137 C -562.089352 24.469955 -537.362079 0.288137 -506.907534 0.288137 Z M -506.907534 0.288137 " transform="matrix(0.0429688,0,0,0.0429688,25.449152,1.491525)"/>
<path style=" stroke:none;fill-rule:nonzero;fill:rgb(29.803922%,29.803922%,29.803922%);fill-opacity:1;" d="M 9.128906 7.253906 C 12.230469 7.253906 14.746094 9.769531 14.746094 12.871094 C 14.746094 15.972656 12.230469 18.488281 9.128906 18.488281 C 6.027344 18.488281 3.511719 15.972656 3.511719 12.871094 C 3.511719 9.769531 6.027344 7.253906 9.128906 7.253906 Z M 9.128906 7.253906 "/>
<path style=" stroke:none;fill-rule:nonzero;fill:rgb(29.803922%,29.803922%,29.803922%);fill-opacity:1;" d="M 12.609375 3.511719 C 11.121094 4.5 10.230469 5.398438 9.890625 6.554688 C 12.308594 6.84375 14.296875 8.472656 15.101562 10.6875 C 17.214844 9.613281 18.488281 6.128906 18.488281 6.128906 C 18.488281 6.128906 15.679688 5.351562 13.316406 6.332031 C 13.492188 5.242188 12.609375 3.511719 12.609375 3.511719 Z M 12.609375 3.511719 "/>
</g>
</svg>
