
<svg xmlns="http://www.w3.org/2000/svg" xmlns:xlink="http://www.w3.org/1999/xlink" width="22px" height="22px" viewBox="0 0 22 22" version="1.1">
<g id="surface1">
<path style="fill-rule:nonzero;fill:rgb(40%,40%,40%);fill-opacity:1;stroke-width:1.199;stroke-linecap:butt;stroke-linejoin:miter;stroke:rgb(0%,0%,0%);stroke-opacity:1;stroke-miterlimit:4;" d="M 68.363636 11.909091 L 443.636364 11.909091 C 474.818182 11.909091 500.090909 37.181818 500.090909 68.363636 L 500.090909 443.636364 C 500.090909 474.818182 474.818182 500.090909 443.636364 500.090909 L 68.363636 500.090909 C 37.181818 500.090909 11.909091 474.818182 11.909091 443.636364 L 11.909091 68.363636 C 11.909091 37.181818 37.181818 11.909091 68.363636 11.909091 Z M 68.363636 11.909091 " transform="matrix(0.0429688,0,0,0.0429688,0,0)"/>
<path style="fill-rule:nonzero;fill:rgb(20%,20%,20%);fill-opacity:1;stroke-width:1.175939;stroke-linecap:butt;stroke-linejoin:miter;stroke:rgb(0%,0%,0%);stroke-opacity:1;stroke-miterlimit:4;" d="M 56.454545 35.363636 L 455.545455 35.363636 C 467.181818 35.363636 476.636364 44.818182 476.636364 56.454545 L 476.636364 455.545455 C 476.636364 467.181818 467.181818 476.636364 455.545455 476.636364 L 56.454545 476.636364 C 44.818182 476.636364 35.363636 467.181818 35.363636 455.545455 L 35.363636 56.454545 C 35.363636 44.818182 44.818182 35.363636 56.454545 35.363636 Z M 56.454545 35.363636 " transform="matrix(0.0429688,0,0,0.0429688,0,0)"/>
<path style=" stroke:none;fill-rule:nonzero;fill:rgb(100%,100%,100%);fill-opacity:1;" d="M 3.46875 2.878906 L 3.46875 3.941406 C 3.476562 3.949219 3.484375 3.953125 3.492188 3.957031 L 5.335938 5.160156 C 5.421875 5.214844 5.421875 5.304688 5.335938 5.359375 L 3.492188 6.5625 C 3.484375 6.570312 3.476562 6.574219 3.46875 6.578125 L 3.46875 7.640625 C 3.519531 7.628906 3.570312 7.609375 3.613281 7.582031 L 6.671875 5.585938 L 6.671875 4.964844 C 6.671875 4.953125 6.675781 4.945312 6.675781 4.933594 L 3.613281 2.9375 C 3.570312 2.910156 3.519531 2.890625 3.46875 2.878906 Z M 3.46875 2.878906 "/>
<path style=" stroke:none;fill-rule:nonzero;fill:rgb(100%,100%,100%);fill-opacity:1;" d="M 5.046875 7.941406 L 8.542969 7.941406 L 8.542969 8.929688 L 5.046875 8.929688 Z M 5.046875 7.941406 "/>
<path style=" stroke:none;fill-rule:nonzero;fill:rgb(100%,100%,100%);fill-opacity:1;" d="M 11.496094 2.925781 L 11.496094 19.074219 L 10.503906 19.074219 L 10.503906 2.925781 Z M 11.496094 2.925781 "/>
<path style=" stroke:none;fill-rule:nonzero;fill:rgb(100%,100%,100%);fill-opacity:1;" d="M 13.96875 2.878906 L 13.96875 3.941406 C 13.976562 3.949219 13.984375 3.953125 13.992188 3.957031 L 15.835938 5.160156 C 15.921875 5.214844 15.921875 5.304688 15.835938 5.359375 L 13.992188 6.5625 C 13.984375 6.570312 13.976562 6.574219 13.96875 6.578125 L 13.96875 7.640625 C 14.019531 7.628906 14.070312 7.609375 14.113281 7.582031 L 17.171875 5.585938 L 17.171875 4.964844 C 17.171875 4.953125 17.175781 4.945312 17.175781 4.933594 L 14.113281 2.9375 C 14.070312 2.910156 14.019531 2.890625 13.96875 2.878906 Z M 13.96875 2.878906 "/>
<path style=" stroke:none;fill-rule:nonzero;fill:rgb(100%,100%,100%);fill-opacity:1;" d="M 15.546875 7.941406 L 19.042969 7.941406 L 19.042969 8.929688 L 15.546875 8.929688 Z M 15.546875 7.941406 "/>
</g>
</svg>
