
<svg xmlns="http://www.w3.org/2000/svg" xmlns:xlink="http://www.w3.org/1999/xlink" width="22px" height="22px" viewBox="0 0 22 22" version="1.1">
<g id="surface1">
<path style="fill-rule:nonzero;fill:rgb(20%,20%,20%);fill-opacity:1;stroke-width:28.191782;stroke-linecap:butt;stroke-linejoin:miter;stroke:rgb(29.019608%,68.235294%,90.196078%);stroke-opacity:1;stroke-miterlimit:4;" d="M 81.454545 25.090909 L 430.545455 25.090909 C 461.636364 25.090909 486.909091 50.363636 486.909091 81.454545 L 486.909091 430.545455 C 486.909091 461.636364 461.636364 486.909091 430.545455 486.909091 L 81.454545 486.909091 C 50.363636 486.909091 25.090909 461.636364 25.090909 430.545455 L 25.090909 81.454545 C 25.090909 50.363636 50.363636 25.090909 81.454545 25.090909 Z M 81.454545 25.090909 " transform="matrix(0.0429688,0,0,0.0429688,0,0)"/>
<path style=" stroke:none;fill-rule:nonzero;fill:rgb(100%,100%,100%);fill-opacity:1;" d="M 16.925781 11 C 16.925781 7.730469 14.269531 5.078125 11 5.078125 C 7.726562 5.078125 5.074219 7.730469 5.074219 11 C 5.074219 14.269531 7.726562 16.921875 11 16.921875 C 14.269531 16.921875 16.925781 14.269531 16.925781 11 Z M 16.925781 11 "/>
<path style=" stroke:none;fill-rule:nonzero;fill:rgb(20%,20%,20%);fill-opacity:1;" d="M 10.363281 17.832031 C 9.40625 17.75 8.355469 17.410156 7.511719 16.910156 C 5.664062 15.8125 4.46875 13.992188 4.1875 11.847656 C 4.09375 11.121094 4.140625 10.160156 4.308594 9.453125 C 4.484375 8.707031 4.851562 7.839844 5.246094 7.246094 C 6.398438 5.5 8.246094 4.378906 10.332031 4.164062 C 10.796875 4.113281 11.660156 4.144531 12.125 4.222656 C 14.679688 4.660156 16.726562 6.421875 17.539062 8.882812 C 17.757812 9.546875 17.859375 10.21875 17.859375 11 C 17.859375 11.832031 17.746094 12.519531 17.472656 13.300781 C 17.253906 13.9375 16.773438 14.792969 16.347656 15.3125 C 14.882812 17.101562 12.667969 18.035156 10.363281 17.832031 Z M 11.839844 15.222656 C 12.269531 15.136719 12.546875 15.039062 12.9375 14.84375 C 13.652344 14.488281 14.269531 13.921875 14.695312 13.222656 C 15.15625 12.46875 15.382812 11.496094 15.296875 10.625 C 15.1875 9.539062 14.753906 8.632812 13.984375 7.894531 C 13.378906 7.308594 12.644531 6.925781 11.816406 6.757812 C 11.441406 6.683594 10.539062 6.683594 10.183594 6.757812 C 9.304688 6.945312 8.566406 7.339844 7.960938 7.949219 C 7.21875 8.691406 6.789062 9.617188 6.703125 10.640625 L 6.683594 10.910156 L 6.304688 10.925781 C 5.96875 10.941406 5.929688 10.945312 5.921875 10.996094 C 5.90625 11.074219 7.132812 12.308594 7.222656 12.308594 C 7.300781 12.308594 8.574219 11.039062 8.554688 10.980469 C 8.542969 10.949219 8.4375 10.9375 8.113281 10.933594 L 7.6875 10.925781 L 7.6875 10.824219 C 7.6875 10.507812 7.863281 9.851562 8.042969 9.5 C 8.375 8.84375 9.035156 8.226562 9.699219 7.949219 C 10.148438 7.761719 10.449219 7.703125 10.964844 7.699219 C 11.457031 7.695312 11.621094 7.71875 12.035156 7.851562 C 12.542969 8.015625 12.945312 8.269531 13.339844 8.667969 C 13.996094 9.332031 14.304688 10.074219 14.304688 11 C 14.304688 11.582031 14.195312 12.027344 13.9375 12.523438 C 13.601562 13.167969 13.09375 13.660156 12.4375 13.972656 C 11.164062 14.582031 9.710938 14.347656 8.683594 13.363281 C 8.578125 13.261719 8.480469 13.179688 8.46875 13.179688 C 8.453125 13.179688 8.292969 13.3125 8.113281 13.472656 C 7.902344 13.65625 7.777344 13.785156 7.777344 13.820312 C 7.777344 13.949219 8.4375 14.5 8.90625 14.765625 C 9.339844 15.007812 9.980469 15.21875 10.480469 15.28125 C 10.832031 15.324219 11.476562 15.296875 11.839844 15.222656 Z M 11.839844 15.222656 "/>
</g>
</svg>
