<!-- color: #d6e4eb -->
<svg xmlns="http://www.w3.org/2000/svg" xmlns:xlink="http://www.w3.org/1999/xlink" width="22px" height="22px" viewBox="0 0 22 22" version="1.1">
<defs>
<clipPath id="clip1">
  <path d="M 4.640625 5.410156 L 11.917969 5.410156 L 11.917969 10.601562 L 4.640625 10.601562 Z M 4.640625 5.410156 "/>
</clipPath>
<clipPath id="clip2">
  <path d="M 3.363281 2.316406 L 13.191406 2.316406 C 13.765625 2.316406 14.226562 2.777344 14.226562 3.347656 L 14.226562 13.179688 C 14.226562 13.753906 13.765625 14.214844 13.191406 14.214844 L 3.363281 14.214844 C 2.789062 14.214844 2.328125 13.753906 2.328125 13.179688 L 2.328125 3.347656 C 2.328125 2.777344 2.789062 2.316406 3.363281 2.316406 Z M 3.363281 2.316406 "/>
</clipPath>
</defs>
<g id="surface1">
<path style="fill-rule:nonzero;fill:rgb(92.156863%,92.156863%,92.156863%);fill-opacity:1;stroke-width:28.032269;stroke-linecap:butt;stroke-linejoin:miter;stroke:rgb(90.980392%,13.72549%,13.72549%);stroke-opacity:1;stroke-miterlimit:4;" d="M 82.454545 26.363636 L 429.545455 26.363636 C 460.454545 26.363636 485.636364 51.545455 485.636364 82.454545 L 485.636364 429.545455 C 485.636364 460.454545 460.454545 485.636364 429.545455 485.636364 L 82.454545 485.636364 C 51.545455 485.636364 26.363636 460.454545 26.363636 429.545455 L 26.363636 82.454545 C 26.363636 51.545455 51.545455 26.363636 82.454545 26.363636 Z M 82.454545 26.363636 " transform="matrix(0.0429688,0,0,0.0429688,0,0)"/>
<g clip-path="url(#clip1)" clip-rule="nonzero">
<g clip-path="url(#clip2)" clip-rule="nonzero">
<path style=" stroke:none;fill-rule:nonzero;fill:rgb(90.980392%,13.72549%,13.72549%);fill-opacity:1;" d="M 11.898438 6.109375 C 11.011719 6.898438 8.359375 9.875 7.910156 9.875 C 7.613281 9.875 7.367188 9.667969 7.28125 9.351562 C 7.234375 9.15625 7.308594 9.402344 4.65625 10.59375 C 4.921875 10.421875 6.78125 8.992188 7.023438 8.820312 C 7.265625 8.648438 8.460938 7.808594 8.808594 7.542969 C 9.445312 7.046875 9.695312 6.644531 9.695312 6.097656 C 9.695312 5.671875 9.433594 5.417969 9.023438 5.417969 C 8.761719 5.417969 8.570312 5.480469 8.300781 5.636719 C 7.851562 5.90625 7.449219 6.230469 7.199219 6.523438 C 6.753906 7.082031 6.351562 8.417969 6.351562 9.398438 C 6.351562 10.117188 6.714844 10.566406 7.320312 10.566406 C 8.015625 10.566406 10.46875 8.179688 11.402344 7.21875 L 11.898438 6.105469 M 7.261719 8.234375 C 7.460938 6.9375 8.003906 5.929688 8.511719 5.929688 C 8.714844 5.929688 8.84375 6.136719 8.84375 6.425781 C 8.84375 7.035156 8.527344 7.398438 7.261719 8.234375 "/>
</g>
</g>
<path style=" stroke:none;fill-rule:nonzero;fill:rgb(60%,60%,60%);fill-opacity:1;" d="M 13.949219 12.46875 L 13.21875 12.46875 L 12.960938 12.21875 C 13.867188 11.167969 14.414062 9.796875 14.414062 8.3125 C 14.414062 4.992188 11.722656 2.304688 8.40625 2.304688 C 5.085938 2.304688 2.398438 4.992188 2.398438 8.3125 C 2.398438 11.628906 5.085938 14.316406 8.40625 14.316406 C 9.894531 14.316406 11.261719 13.773438 12.316406 12.867188 L 12.566406 13.125 L 12.566406 13.855469 L 17.1875 18.46875 L 18.5625 17.089844 Z M 8.40625 12.46875 C 6.105469 12.46875 4.246094 10.613281 4.246094 8.3125 C 4.246094 6.007812 6.105469 4.152344 8.40625 4.152344 C 10.707031 4.152344 12.566406 6.007812 12.566406 8.3125 C 12.566406 10.613281 10.707031 12.46875 8.40625 12.46875 Z M 8.40625 12.46875 "/>
</g>
</svg>
