
<svg xmlns="http://www.w3.org/2000/svg" xmlns:xlink="http://www.w3.org/1999/xlink" width="22px" height="22px" viewBox="0 0 22 22" version="1.1">
<g id="surface1">
<path style="fill-rule:nonzero;fill:rgb(100%,33.333333%,33.333333%);fill-opacity:1;stroke-width:28.191782;stroke-linecap:butt;stroke-linejoin:miter;stroke:rgb(60%,61.176471%,65.098039%);stroke-opacity:1;stroke-miterlimit:4;" d="M 81.454545 25.090909 L 430.545455 25.090909 C 461.636364 25.090909 486.909091 50.363636 486.909091 81.454545 L 486.909091 430.545455 C 486.909091 461.636364 461.636364 486.909091 430.545455 486.909091 L 81.454545 486.909091 C 50.363636 486.909091 25.090909 461.636364 25.090909 430.545455 L 25.090909 81.454545 C 25.090909 50.363636 50.363636 25.090909 81.454545 25.090909 Z M 81.454545 25.090909 " transform="matrix(0.0429688,0,0,0.0429688,0,0)"/>
<path style=" stroke:none;fill-rule:nonzero;fill:rgb(100%,100%,100%);fill-opacity:1;" d="M 3.851562 1.539062 C 2.574219 1.539062 1.539062 2.574219 1.539062 3.851562 L 1.539062 18.148438 C 1.539062 19.425781 2.574219 20.460938 3.851562 20.460938 L 18.148438 20.460938 C 19.425781 20.460938 20.460938 19.425781 20.460938 18.148438 L 20.460938 3.851562 C 20.460938 2.574219 19.425781 1.539062 18.148438 1.539062 Z M 5.445312 4.769531 L 12.894531 4.769531 L 12.894531 6.242188 L 7.199219 6.242188 L 7.199219 10.066406 L 12.339844 10.066406 L 12.339844 11.539062 L 7.199219 11.539062 L 7.199219 17.730469 L 5.445312 17.730469 Z M 5.445312 4.769531 "/>
<path style=" stroke:none;fill-rule:nonzero;fill:rgb(15.686275%,49.019608%,100%);fill-opacity:1;" d="M 13.757812 20.355469 C 13.671875 20.316406 13.578125 20.21875 13.539062 20.121094 C 13.515625 20.070312 13.496094 19.875 13.476562 19.5625 C 13.460938 19.296875 13.441406 19.058594 13.433594 19.035156 C 13.421875 19 13.359375 18.96875 13.207031 18.914062 C 13.09375 18.875 12.921875 18.804688 12.828125 18.753906 C 12.730469 18.707031 12.632812 18.667969 12.605469 18.667969 C 12.578125 18.667969 12.421875 18.796875 12.199219 19 C 12 19.183594 11.804688 19.347656 11.765625 19.367188 C 11.683594 19.410156 11.503906 19.417969 11.410156 19.382812 C 11.332031 19.355469 10.542969 18.574219 10.492188 18.476562 C 10.441406 18.382812 10.445312 18.207031 10.503906 18.097656 C 10.527344 18.050781 10.695312 17.851562 10.875 17.65625 C 11.066406 17.449219 11.199219 17.285156 11.199219 17.257812 C 11.199219 17.234375 11.160156 17.136719 11.113281 17.039062 C 11.066406 16.945312 10.992188 16.773438 10.953125 16.660156 C 10.914062 16.546875 10.863281 16.445312 10.84375 16.4375 C 10.824219 16.425781 10.59375 16.40625 10.328125 16.390625 C 10.023438 16.375 9.816406 16.351562 9.753906 16.332031 C 9.640625 16.289062 9.511719 16.148438 9.492188 16.050781 C 9.484375 16.007812 9.480469 15.707031 9.484375 15.378906 L 9.492188 14.785156 L 9.558594 14.699219 C 9.679688 14.546875 9.738281 14.53125 10.316406 14.496094 C 10.644531 14.476562 10.839844 14.457031 10.859375 14.4375 C 10.871094 14.425781 10.921875 14.3125 10.964844 14.1875 C 11.011719 14.066406 11.082031 13.898438 11.125 13.816406 C 11.167969 13.734375 11.199219 13.648438 11.199219 13.625 C 11.199219 13.601562 11.0625 13.433594 10.894531 13.25 C 10.730469 13.066406 10.570312 12.886719 10.542969 12.851562 C 10.460938 12.746094 10.433594 12.613281 10.464844 12.488281 C 10.488281 12.390625 10.535156 12.339844 10.898438 11.96875 C 11.117188 11.746094 11.339844 11.542969 11.382812 11.519531 C 11.488281 11.464844 11.65625 11.460938 11.761719 11.515625 C 11.808594 11.539062 12 11.703125 12.195312 11.878906 C 12.386719 12.054688 12.558594 12.207031 12.574219 12.21875 C 12.589844 12.226562 12.695312 12.191406 12.820312 12.132812 C 12.941406 12.074219 13.121094 12 13.21875 11.964844 C 13.355469 11.921875 13.40625 11.890625 13.425781 11.851562 C 13.4375 11.824219 13.460938 11.582031 13.476562 11.320312 C 13.507812 10.8125 13.523438 10.730469 13.628906 10.621094 C 13.746094 10.5 13.8125 10.488281 14.464844 10.496094 L 15.058594 10.503906 L 15.148438 10.566406 C 15.308594 10.671875 15.328125 10.738281 15.367188 11.300781 C 15.382812 11.574219 15.402344 11.820312 15.410156 11.847656 C 15.417969 11.882812 15.46875 11.910156 15.625 11.964844 C 15.738281 12.003906 15.921875 12.082031 16.027344 12.136719 C 16.136719 12.191406 16.234375 12.234375 16.246094 12.234375 C 16.253906 12.234375 16.429688 12.082031 16.628906 11.898438 C 16.832031 11.714844 17.035156 11.542969 17.078125 11.519531 C 17.1875 11.460938 17.347656 11.460938 17.464844 11.519531 C 17.519531 11.546875 17.710938 11.71875 17.949219 11.960938 C 18.359375 12.375 18.390625 12.421875 18.390625 12.609375 C 18.394531 12.742188 18.332031 12.828125 17.980469 13.214844 C 17.789062 13.425781 17.632812 13.605469 17.632812 13.617188 C 17.632812 13.628906 17.683594 13.742188 17.746094 13.867188 C 17.804688 13.996094 17.878906 14.175781 17.90625 14.265625 C 17.941406 14.378906 17.972656 14.4375 18 14.449219 C 18.027344 14.457031 18.273438 14.480469 18.550781 14.5 C 19.101562 14.535156 19.191406 14.554688 19.28125 14.6875 C 19.367188 14.808594 19.378906 14.898438 19.371094 15.5 L 19.363281 16.074219 L 19.296875 16.167969 C 19.175781 16.339844 19.144531 16.347656 18.535156 16.386719 C 18.238281 16.40625 17.988281 16.429688 17.980469 16.433594 C 17.976562 16.441406 17.9375 16.535156 17.898438 16.648438 C 17.859375 16.757812 17.785156 16.9375 17.730469 17.042969 C 17.675781 17.152344 17.632812 17.253906 17.636719 17.273438 C 17.640625 17.289062 17.789062 17.460938 17.96875 17.65625 C 18.144531 17.847656 18.316406 18.050781 18.34375 18.105469 C 18.402344 18.222656 18.40625 18.34375 18.359375 18.460938 C 18.316406 18.5625 17.589844 19.300781 17.472656 19.363281 C 17.375 19.414062 17.195312 19.417969 17.089844 19.375 C 17.050781 19.355469 16.851562 19.191406 16.652344 19.003906 C 16.449219 18.820312 16.265625 18.667969 16.246094 18.667969 C 16.226562 18.667969 16.113281 18.714844 15.992188 18.769531 C 15.871094 18.824219 15.695312 18.898438 15.597656 18.929688 C 15.464844 18.972656 15.417969 19 15.410156 19.035156 C 15.402344 19.058594 15.382812 19.304688 15.367188 19.578125 C 15.324219 20.179688 15.304688 20.246094 15.09375 20.351562 C 15.03125 20.382812 14.933594 20.386719 14.421875 20.386719 C 13.972656 20.386719 13.808594 20.378906 13.757812 20.355469 Z M 14.640625 17.683594 C 15.179688 17.628906 15.632812 17.414062 16.015625 17.027344 C 16.308594 16.734375 16.496094 16.40625 16.609375 15.992188 C 16.683594 15.730469 16.683594 15.15625 16.609375 14.894531 C 16.390625 14.097656 15.820312 13.507812 15.03125 13.269531 C 14.847656 13.214844 14.796875 13.210938 14.4375 13.207031 C 14.097656 13.207031 14.023438 13.210938 13.859375 13.257812 C 13.027344 13.484375 12.390625 14.152344 12.21875 14.980469 C 12.0625 15.726562 12.289062 16.488281 12.832031 17.035156 C 13.117188 17.320312 13.488281 17.53125 13.886719 17.632812 C 14 17.664062 14.164062 17.683594 14.394531 17.703125 C 14.414062 17.707031 14.523438 17.695312 14.640625 17.683594 Z M 14.085938 16.746094 C 13.515625 16.59375 13.117188 16.109375 13.082031 15.527344 C 13.058594 15.121094 13.1875 14.777344 13.476562 14.488281 C 14.003906 13.96875 14.839844 13.960938 15.359375 14.480469 C 15.789062 14.90625 15.890625 15.511719 15.625 16.042969 C 15.398438 16.496094 14.984375 16.761719 14.472656 16.785156 C 14.300781 16.789062 14.214844 16.78125 14.085938 16.746094 Z M 14.722656 16.183594 C 14.878906 16.125 15.070312 15.953125 15.148438 15.789062 C 15.203125 15.675781 15.210938 15.640625 15.210938 15.441406 C 15.210938 15.226562 15.207031 15.210938 15.132812 15.074219 C 14.988281 14.804688 14.769531 14.667969 14.460938 14.652344 C 14.214844 14.640625 14.066406 14.691406 13.886719 14.855469 C 13.664062 15.0625 13.574219 15.347656 13.644531 15.632812 C 13.707031 15.878906 13.839844 16.042969 14.066406 16.15625 C 14.273438 16.261719 14.488281 16.273438 14.722656 16.183594 Z M 14.722656 16.183594 "/>
</g>
</svg>
