
<svg xmlns="http://www.w3.org/2000/svg" xmlns:xlink="http://www.w3.org/1999/xlink" width="22px" height="22px" viewBox="0 0 22 22" version="1.1">
<g id="surface1">
<path style="fill-rule:nonzero;fill:rgb(41.960784%,61.176471%,67.058824%);fill-opacity:1;stroke-width:28.191782;stroke-linecap:butt;stroke-linejoin:miter;stroke:rgb(9.803922%,9.803922%,9.803922%);stroke-opacity:1;stroke-miterlimit:4;" d="M -659.278085 -125.901311 L -310.187175 -125.901311 C -279.096266 -125.901311 -253.823539 -100.628584 -253.823539 -69.537675 L -253.823539 279.553235 C -253.823539 310.644144 -279.096266 335.916871 -310.187175 335.916871 L -659.278085 335.916871 C -690.368994 335.916871 -715.641721 310.644144 -715.641721 279.553235 L -715.641721 -69.537675 C -715.641721 -100.628584 -690.368994 -125.901311 -659.278085 -125.901311 Z M -659.278085 -125.901311 " transform="matrix(0.0429688,0,0,0.0429688,31.828355,6.487947)"/>
<path style="fill-rule:nonzero;fill:rgb(100%,33.333333%,33.333333%);fill-opacity:1;stroke-width:28.191753;stroke-linecap:butt;stroke-linejoin:miter;stroke:rgb(9.803922%,9.803922%,9.803922%);stroke-opacity:1;stroke-miterlimit:4;" d="M -659.278085 -125.901311 C -690.368994 -125.901311 -715.641721 -100.628584 -715.641721 -69.537675 L -715.641721 105.00778 L -484.73263 105.00778 L -484.73263 -125.901311 Z M -484.73263 105.00778 L -484.73263 335.916871 L -310.187175 335.916871 C -279.096266 335.916871 -253.823539 310.644144 -253.823539 279.553235 L -253.823539 105.00778 Z M -484.73263 105.00778 " transform="matrix(0.0429688,0,0,0.0429688,31.828355,6.487947)"/>
</g>
</svg>
