
<svg xmlns="http://www.w3.org/2000/svg" xmlns:xlink="http://www.w3.org/1999/xlink" width="22px" height="22px" viewBox="0 0 22 22" version="1.1">
<g id="surface1">
<path style="fill-rule:nonzero;fill:rgb(100%,100%,100%);fill-opacity:1;stroke-width:26.401737;stroke-linecap:butt;stroke-linejoin:miter;stroke:rgb(18.823529%,27.843137%,32.941176%);stroke-opacity:1;stroke-miterlimit:4;" d="M -48.498818 -16.661103 L 278.410273 -16.661103 C 307.592091 -16.661103 331.228455 6.975261 331.228455 36.157079 L 331.228455 363.06617 C 331.228455 392.157079 307.592091 415.793443 278.410273 415.793443 L -48.498818 415.793443 C -77.589727 415.793443 -101.226091 392.157079 -101.226091 363.06617 L -101.226091 36.157079 C -101.226091 6.975261 -77.589727 -16.661103 -48.498818 -16.661103 Z M -48.498818 -16.661103 " transform="matrix(0.0429688,0,0,0.0429688,6.201121,2.532313)"/>
<path style=" stroke:none;fill-rule:nonzero;fill:rgb(100%,78.039216%,18.823529%);fill-opacity:1;" d="M 4.117188 1.816406 C 3.9375 1.816406 3.765625 1.839844 3.597656 1.878906 L 8.019531 9.304688 C 7.816406 9.726562 7.628906 10.152344 7.574219 10.597656 C 7.507812 11.148438 7.550781 11.691406 7.691406 12.21875 C 7.832031 12.742188 8.074219 13.253906 8.410156 13.695312 C 8.742188 14.136719 9.171875 14.507812 9.675781 14.800781 C 10.253906 15.136719 10.878906 15.324219 11.503906 15.367188 C 12.128906 15.40625 12.707031 15 13.285156 14.777344 L 10.164062 20.398438 L 18.164062 20.398438 C 19.417969 20.398438 20.433594 19.382812 20.433594 18.132812 L 20.433594 4.085938 C 20.433594 2.832031 19.417969 1.816406 18.164062 1.816406 Z M 4.117188 1.816406 "/>
<path style=" stroke:none;fill-rule:nonzero;fill:rgb(83.137255%,9.803922%,9.803922%);fill-opacity:1;" d="M 4.117188 1.816406 C 2.867188 1.816406 1.851562 2.832031 1.851562 4.085938 L 1.851562 18.132812 C 1.851562 19.382812 2.867188 20.398438 4.117188 20.398438 L 8.0625 20.398438 L 10.988281 15.308594 L 10.988281 15.328125 C 11.457031 15.289062 11.917969 15.238281 12.332031 15.066406 C 12.839844 14.847656 13.292969 14.535156 13.675781 14.148438 C 14.058594 13.757812 14.382812 13.289062 14.597656 12.78125 C 14.8125 12.28125 14.921875 11.714844 14.921875 11.128906 C 14.921875 10.460938 14.773438 9.832031 14.496094 9.269531 C 14.21875 8.699219 13.777344 8.195312 13.292969 7.804688 L 20.433594 7.804688 L 20.433594 4.085938 C 20.433594 2.832031 19.417969 1.816406 18.164062 1.816406 Z M 4.117188 1.816406 "/>
<path style=" stroke:none;fill-rule:nonzero;fill:rgb(4.705882%,63.137255%,36.862745%);fill-opacity:1;" d="M 2.410156 2.59375 C 2.0625 2.992188 1.851562 3.515625 1.851562 4.085938 L 1.851562 18.132812 C 1.851562 19.382812 2.867188 20.398438 4.117188 20.398438 L 10.164062 20.398438 L 13.390625 14.710938 C 12.8125 14.9375 12.195312 15.226562 11.503906 15.367188 C 10.878906 15.324219 10.253906 15.136719 9.675781 14.800781 C 9.171875 14.507812 8.742188 14.136719 8.410156 13.695312 C 8.074219 13.253906 7.832031 12.742188 7.691406 12.21875 C 7.550781 11.691406 7.507812 11.148438 7.574219 10.597656 C 7.628906 10.152344 7.816406 9.726562 8.019531 9.304688 L 7.636719 8.660156 C 7.628906 8.675781 7.621094 8.6875 7.613281 8.699219 C 7.265625 9.21875 7.042969 9.8125 6.949219 10.425781 Z M 2.410156 2.59375 "/>
<path style=" stroke:none;fill-rule:nonzero;fill:rgb(97.254902%,97.254902%,97.254902%);fill-opacity:1;" d="M 15.390625 11.109375 C 15.390625 13.457031 13.488281 15.355469 11.140625 15.355469 C 8.796875 15.355469 6.894531 13.453125 6.894531 11.109375 C 6.894531 8.761719 8.796875 6.859375 11.140625 6.859375 C 13.488281 6.859375 15.390625 8.761719 15.390625 11.109375 M 15.390625 11.109375 "/>
<path style=" stroke:none;fill-rule:nonzero;fill:rgb(22.745098%,49.019608%,89.019608%);fill-opacity:1;" d="M 14.445312 11.109375 C 14.445312 12.933594 12.96875 14.414062 11.140625 14.414062 C 9.316406 14.414062 7.839844 12.933594 7.839844 11.109375 C 7.839844 9.285156 9.316406 7.804688 11.140625 7.804688 C 12.96875 7.804688 14.445312 9.285156 14.445312 11.109375 M 14.445312 11.109375 "/>
<path style=" stroke:none;fill-rule:nonzero;fill:rgb(23.921569%,23.921569%,24.705882%);fill-opacity:1;" d="M 20.175781 20.136719 C 20.203125 20.09375 20.375 19.859375 20.558594 19.613281 C 20.742188 19.371094 20.894531 19.125 20.894531 19.070312 C 20.894531 18.980469 20.667969 18.972656 18.160156 18.972656 C 16.660156 18.972656 15.417969 18.984375 15.402344 19 C 15.355469 19.046875 9.539062 19.105469 9.34375 19.0625 L 9.167969 19.019531 L 9.183594 16.335938 L 9.199219 13.648438 L 15.71875 13.632812 L 22.234375 13.621094 L 22.222656 16.339844 C 22.210938 18.105469 22.183594 19.058594 22.148438 19.058594 C 22.117188 19.058594 21.671875 19.316406 21.15625 19.636719 C 20.234375 20.207031 20.085938 20.285156 20.175781 20.136719 Z M 20.175781 20.136719 "/>
<path style=" stroke:none;fill-rule:nonzero;fill:rgb(100%,100%,100%);fill-opacity:1;" d="M 12.613281 17.753906 C 12.722656 17.6875 12.875 17.546875 12.945312 17.4375 C 13.160156 17.113281 13.101562 16.550781 12.824219 16.316406 C 12.746094 16.253906 12.753906 16.21875 12.882812 16.027344 C 13.140625 15.640625 12.996094 15.128906 12.550781 14.867188 C 12.394531 14.773438 12.210938 14.746094 11.65625 14.726562 C 11.03125 14.703125 10.949219 14.710938 10.878906 14.808594 C 10.820312 14.890625 10.800781 15.242188 10.800781 16.320312 C 10.800781 17.554688 10.8125 17.734375 10.902344 17.820312 C 11.050781 17.972656 12.328125 17.925781 12.613281 17.753906 Z M 12.613281 17.753906 "/>
<path style=" stroke:none;fill-rule:nonzero;fill:rgb(23.921569%,23.921569%,24.705882%);fill-opacity:1;" d="M 11.546875 17.28125 C 11.523438 17.257812 11.503906 17.082031 11.503906 16.894531 L 11.503906 16.546875 L 11.808594 16.546875 C 12.207031 16.546875 12.378906 16.664062 12.378906 16.929688 C 12.378906 17.035156 12.339844 17.15625 12.292969 17.195312 C 12.195312 17.277344 11.609375 17.347656 11.546875 17.28125 Z M 11.546875 17.28125 "/>
<path style=" stroke:none;fill-rule:nonzero;fill:rgb(23.921569%,23.921569%,24.705882%);fill-opacity:1;" d="M 11.503906 15.660156 L 11.503906 15.367188 L 11.839844 15.367188 C 12.203125 15.367188 12.320312 15.429688 12.320312 15.640625 C 12.320312 15.859375 12.167969 15.957031 11.820312 15.957031 L 11.503906 15.957031 Z M 11.503906 15.660156 "/>
<path style=" stroke:none;fill-rule:nonzero;fill:rgb(100%,100%,100%);fill-opacity:1;" d="M 15.339844 17.871094 C 15.457031 17.839844 15.472656 17.800781 15.457031 17.589844 L 15.441406 17.347656 L 14.097656 17.285156 L 14.097656 16.578125 L 14.648438 16.558594 C 15.234375 16.542969 15.292969 16.515625 15.292969 16.25 C 15.292969 16 15.195312 15.957031 14.609375 15.957031 L 14.070312 15.957031 L 14.070312 15.367188 L 14.65625 15.367188 C 15.347656 15.367188 15.46875 15.320312 15.46875 15.050781 C 15.46875 14.730469 15.417969 14.714844 14.410156 14.714844 C 13.546875 14.714844 13.484375 14.722656 13.425781 14.835938 C 13.382812 14.914062 13.367188 15.433594 13.378906 16.375 C 13.394531 17.558594 13.414062 17.804688 13.484375 17.851562 C 13.582031 17.910156 15.125 17.929688 15.339844 17.871094 Z M 15.339844 17.871094 "/>
<path style=" stroke:none;fill-rule:nonzero;fill:rgb(100%,100%,100%);fill-opacity:1;" d="M 17.046875 17.847656 C 17.152344 17.789062 17.160156 17.710938 17.160156 16.574219 L 17.160156 15.367188 L 17.464844 15.363281 C 17.636719 15.363281 17.828125 15.347656 17.898438 15.328125 C 18.050781 15.289062 18.113281 15.074219 18.035156 14.867188 L 17.980469 14.714844 L 16.855469 14.714844 C 16.238281 14.714844 15.695312 14.738281 15.652344 14.765625 C 15.574219 14.820312 15.542969 15.222656 15.613281 15.292969 C 15.632812 15.316406 15.832031 15.34375 16.054688 15.355469 L 16.460938 15.378906 L 16.460938 16.582031 C 16.460938 17.664062 16.46875 17.789062 16.5625 17.84375 C 16.695312 17.921875 16.90625 17.921875 17.046875 17.847656 Z M 17.046875 17.847656 "/>
<path style=" stroke:none;fill-rule:nonzero;fill:rgb(100%,100%,100%);fill-opacity:1;" d="M 18.324219 17.851562 C 18.382812 17.816406 18.480469 17.65625 18.535156 17.492188 L 18.644531 17.195312 L 19.164062 17.210938 L 19.6875 17.226562 L 19.78125 17.511719 C 19.882812 17.824219 19.972656 17.90625 20.203125 17.90625 C 20.417969 17.90625 20.542969 17.851562 20.542969 17.753906 C 20.542969 17.613281 19.484375 14.804688 19.414062 14.761719 C 19.304688 14.6875 18.980469 14.710938 18.894531 14.796875 C 18.851562 14.839844 18.570312 15.523438 18.273438 16.316406 C 17.765625 17.660156 17.738281 17.757812 17.835938 17.832031 C 17.960938 17.921875 18.175781 17.929688 18.324219 17.851562 Z M 18.324219 17.851562 "/>
<path style=" stroke:none;fill-rule:nonzero;fill:rgb(23.921569%,23.921569%,24.705882%);fill-opacity:1;" d="M 18.898438 16.574219 C 18.878906 16.554688 18.914062 16.402344 18.976562 16.234375 C 19.039062 16.066406 19.105469 15.886719 19.121094 15.839844 C 19.148438 15.761719 19.429688 16.417969 19.433594 16.5625 C 19.433594 16.613281 18.945312 16.625 18.898438 16.574219 Z M 18.898438 16.574219 "/>
</g>
</svg>
