
<svg xmlns="http://www.w3.org/2000/svg" xmlns:xlink="http://www.w3.org/1999/xlink" width="22px" height="22px" viewBox="0 0 22 22" version="1.1">
<g id="surface1">
<path style="fill-rule:nonzero;fill:rgb(100%,100%,100%);fill-opacity:1;stroke-width:26.401737;stroke-linecap:butt;stroke-linejoin:miter;stroke:rgb(18.823529%,27.843137%,32.941176%);stroke-opacity:1;stroke-miterlimit:4;" d="M -48.471485 -16.679507 L 278.437605 -16.679507 C 307.619424 -16.679507 331.255787 6.956856 331.255787 36.138675 L 331.255787 363.047765 C 331.255787 392.229584 307.619424 415.865947 278.437605 415.865947 L -48.471485 415.865947 C -77.653304 415.865947 -101.289667 392.229584 -101.289667 363.047765 L -101.289667 36.138675 C -101.289667 6.956856 -77.653304 -16.679507 -48.471485 -16.679507 Z M -48.471485 -16.679507 " transform="matrix(0.0429688,0,0,0.0429688,6.059322,2.423729)"/>
<path style=" stroke:none;fill-rule:nonzero;fill:rgb(100%,78.039216%,18.823529%);fill-opacity:1;" d="M 3.976562 1.707031 C 3.796875 1.707031 3.621094 1.730469 3.457031 1.769531 L 7.878906 9.195312 C 7.671875 9.617188 7.488281 10.042969 7.433594 10.492188 C 7.363281 11.039062 7.410156 11.585938 7.550781 12.109375 C 7.6875 12.632812 7.933594 13.144531 8.265625 13.585938 C 8.597656 14.027344 9.027344 14.398438 9.535156 14.691406 C 10.113281 15.027344 10.734375 15.214844 11.359375 15.257812 C 11.984375 15.296875 12.566406 14.894531 13.144531 14.667969 L 10.023438 20.292969 L 18.023438 20.292969 C 19.277344 20.292969 20.292969 19.277344 20.292969 18.023438 L 20.292969 3.976562 C 20.292969 2.722656 19.277344 1.707031 18.023438 1.707031 Z M 3.976562 1.707031 "/>
<path style=" stroke:none;fill-rule:nonzero;fill:rgb(83.137255%,9.803922%,9.803922%);fill-opacity:1;" d="M 3.976562 1.707031 C 2.722656 1.707031 1.707031 2.722656 1.707031 3.976562 L 1.707031 18.023438 C 1.707031 19.277344 2.722656 20.292969 3.976562 20.292969 L 7.921875 20.292969 L 10.847656 15.199219 L 10.847656 15.21875 C 11.316406 15.179688 11.777344 15.128906 12.191406 14.957031 C 12.699219 14.738281 13.148438 14.425781 13.535156 14.039062 C 13.917969 13.648438 14.238281 13.179688 14.457031 12.671875 C 14.667969 12.171875 14.777344 11.605469 14.777344 11.019531 C 14.777344 10.351562 14.632812 9.722656 14.355469 9.160156 C 14.078125 8.59375 13.632812 8.085938 13.148438 7.695312 L 20.292969 7.695312 L 20.292969 3.976562 C 20.292969 2.722656 19.277344 1.707031 18.023438 1.707031 Z M 3.976562 1.707031 "/>
<path style=" stroke:none;fill-rule:nonzero;fill:rgb(4.705882%,63.137255%,36.862745%);fill-opacity:1;" d="M 2.265625 2.488281 C 1.917969 2.886719 1.707031 3.40625 1.707031 3.976562 L 1.707031 18.023438 C 1.707031 19.277344 2.722656 20.292969 3.976562 20.292969 L 10.023438 20.292969 L 13.25 14.605469 C 12.671875 14.828125 12.054688 15.117188 11.359375 15.257812 C 10.734375 15.214844 10.113281 15.027344 9.535156 14.691406 C 9.027344 14.398438 8.597656 14.027344 8.265625 13.585938 C 7.933594 13.144531 7.6875 12.632812 7.550781 12.109375 C 7.410156 11.585938 7.363281 11.039062 7.433594 10.492188 C 7.488281 10.042969 7.671875 9.617188 7.878906 9.195312 L 7.496094 8.554688 C 7.488281 8.566406 7.480469 8.578125 7.46875 8.589844 C 7.125 9.109375 6.902344 9.703125 6.808594 10.316406 Z M 2.265625 2.488281 "/>
<path style=" stroke:none;fill-rule:nonzero;fill:rgb(97.254902%,97.254902%,97.254902%);fill-opacity:1;" d="M 15.246094 11 C 15.246094 13.347656 13.347656 15.246094 11 15.246094 C 8.65625 15.246094 6.753906 13.347656 6.753906 11 C 6.753906 8.65625 8.652344 6.753906 11 6.753906 C 13.347656 6.753906 15.246094 8.652344 15.246094 11 M 15.246094 11 "/>
<path style=" stroke:none;fill-rule:nonzero;fill:rgb(22.745098%,49.019608%,89.019608%);fill-opacity:1;" d="M 14.304688 11 C 14.304688 12.824219 12.824219 14.304688 11 14.304688 C 9.175781 14.304688 7.695312 12.824219 7.695312 11 C 7.695312 9.175781 9.175781 7.695312 11 7.695312 C 12.824219 7.695312 14.304688 9.175781 14.304688 11 M 14.304688 11 "/>
</g>
</svg>
