
<svg xmlns="http://www.w3.org/2000/svg" xmlns:xlink="http://www.w3.org/1999/xlink" width="22px" height="22px" viewBox="0 0 22 22" version="1.1">
<g id="surface1">
<path style="fill-rule:nonzero;fill:rgb(100%,100%,100%);fill-opacity:1;stroke-width:27.987738;stroke-linecap:butt;stroke-linejoin:miter;stroke:rgb(60%,60%,60%);stroke-opacity:1;stroke-miterlimit:4;" d="M 82.727273 26.727273 L 429.272727 26.727273 C 460.181818 26.727273 485.272727 51.818182 485.272727 82.727273 L 485.272727 429.272727 C 485.272727 460.181818 460.181818 485.272727 429.272727 485.272727 L 82.727273 485.272727 C 51.818182 485.272727 26.727273 460.181818 26.727273 429.272727 L 26.727273 82.727273 C 26.727273 51.818182 51.818182 26.727273 82.727273 26.727273 Z M 82.727273 26.727273 " transform="matrix(0.0429688,0,0,0.0429688,0,0)"/>
<path style="fill-rule:nonzero;fill:rgb(60%,60%,60%);fill-opacity:1;stroke-width:10.546;stroke-linecap:butt;stroke-linejoin:miter;stroke:rgb(60%,60%,60%);stroke-opacity:1;stroke-miterlimit:10;" d="M 341.333342 89.696972 C 202.303036 89.696972 89.696972 202.303036 89.696972 341.333342 C 89.696972 480.363649 202.303036 592.969713 341.333342 592.969713 C 480.363649 592.969713 592.969713 480.363649 592.969713 341.333342 C 592.969713 202.303036 480.363649 89.696972 341.333342 89.696972 Z M 312.363645 128.36364 L 370.30304 128.36364 L 370.30304 315.272736 L 364.60607 417.09092 L 318.424251 417.09092 L 312.363645 315.272736 Z M 312.363645 481.818195 L 370.30304 481.818195 L 370.30304 554.303045 L 312.363645 554.303045 Z M 312.363645 481.818195 " transform="matrix(0.0322266,0,0,0.0322266,0,0)"/>
</g>
</svg>
