
<svg xmlns="http://www.w3.org/2000/svg" xmlns:xlink="http://www.w3.org/1999/xlink" width="22px" height="22px" viewBox="0 0 22 22" version="1.1">
<g id="surface1">
<path style="fill-rule:nonzero;fill:rgb(12.54902%,43.921569%,56.862745%);fill-opacity:1;stroke-width:27.285545;stroke-linecap:butt;stroke-linejoin:miter;stroke:rgb(16.470588%,49.803922%,100%);stroke-opacity:1;stroke-miterlimit:4;" d="M 63.363636 20.545455 L 448.636364 20.545455 C 469.272727 20.545455 486.090909 37.363636 486.090909 58.090909 L 486.090909 453.909091 C 486.090909 474.636364 469.272727 491.454545 448.636364 491.454545 L 63.363636 491.454545 C 42.727273 491.454545 25.909091 474.636364 25.909091 453.909091 L 25.909091 58.090909 C 25.909091 37.363636 42.727273 20.545455 63.363636 20.545455 Z M 63.363636 20.545455 " transform="matrix(0.0429688,0,0,0.0429688,0,0)"/>
<path style=" stroke:none;fill-rule:nonzero;fill:rgb(100%,100%,100%);fill-opacity:1;" d="M 13.53125 9.101562 C 14.625 8.359375 14.699219 7.167969 13.691406 6.4375 C 12.683594 5.710938 10.980469 5.71875 9.886719 6.460938 C 8.789062 7.199219 8.71875 8.390625 9.722656 9.121094 C 10.730469 9.851562 12.433594 9.84375 13.53125 9.101562 Z M 13.53125 9.101562 "/>
<path style=" stroke:none;fill-rule:nonzero;fill:rgb(100%,100%,100%);fill-opacity:1;" d="M 10.230469 9.820312 C 10.90625 10.195312 11.058594 10.988281 10.570312 11.589844 L 6.230469 16.949219 C 5.746094 17.550781 4.800781 17.734375 4.125 17.355469 C 3.449219 16.976562 3.296875 16.183594 3.785156 15.582031 L 8.125 10.226562 C 8.609375 9.625 9.554688 9.441406 10.230469 9.820312 Z M 10.230469 9.820312 "/>
<path style=" stroke:none;fill-rule:nonzero;fill:rgb(100%,100%,100%);fill-opacity:1;" d="M 12.984375 12.09375 C 12.941406 12.082031 12.894531 12.074219 12.851562 12.066406 C 12.582031 12.023438 12.28125 12.03125 11.96875 12.089844 C 11.921875 12.042969 11.859375 12.011719 11.777344 11.992188 L 11.496094 11.933594 C 11.183594 11.863281 10.734375 12.074219 10.488281 12.402344 L 7.316406 16.625 C 7.070312 16.953125 7.128906 17.269531 7.441406 17.339844 L 7.722656 17.398438 C 8.035156 17.464844 8.484375 17.257812 8.730469 16.929688 L 9.734375 15.609375 C 10.40625 16.003906 11.546875 15.839844 12.523438 15.210938 C 13.09375 14.839844 13.539062 14.351562 13.761719 13.847656 C 13.984375 13.347656 13.964844 12.875 13.710938 12.535156 C 13.550781 12.320312 13.300781 12.167969 12.984375 12.09375 Z M 12.308594 12.847656 C 12.527344 12.882812 12.703125 12.976562 12.808594 13.121094 C 13.117188 13.53125 12.808594 14.226562 12.117188 14.671875 C 11.429688 15.121094 10.621094 15.152344 10.3125 14.742188 C 10.003906 14.332031 10.3125 13.636719 11 13.1875 C 11.425781 12.914062 11.917969 12.785156 12.308594 12.847656 Z M 12.308594 12.847656 "/>
<path style=" stroke:none;fill-rule:nonzero;fill:rgb(100%,100%,100%);fill-opacity:1;" d="M 11.914062 2.234375 C 8.144531 2.347656 4.441406 4.449219 2.589844 7.527344 C 2.5625 7.574219 2.535156 7.625 2.507812 7.671875 C 5.222656 4.09375 10.320312 2.363281 14.40625 3.632812 C 17.4375 5.148438 18.722656 8.292969 17.640625 11.539062 L 18.914062 12.382812 C 21.109375 8.339844 19.449219 4.0625 15.144531 2.667969 C 14.144531 2.347656 13.046875 2.199219 11.914062 2.234375 Z M 11.914062 2.234375 "/>
</g>
</svg>
