
<svg xmlns="http://www.w3.org/2000/svg" xmlns:xlink="http://www.w3.org/1999/xlink" width="22px" height="22px" viewBox="0 0 22 22" version="1.1">
<g id="surface1">
<path style="fill-rule:nonzero;fill:rgb(100%,100%,100%);fill-opacity:1;stroke-width:3.131993;stroke-linecap:butt;stroke-linejoin:miter;stroke:rgb(27.058824%,27.058824%,27.058824%);stroke-opacity:0.627451;stroke-miterlimit:4;" d="M 9.897727 4.977273 L 54.102273 4.977273 C 56.488636 4.977273 58.409091 6.897727 58.409091 9.272727 L 58.409091 54.727273 C 58.409091 57.102273 56.488636 59.022727 54.102273 59.022727 L 9.897727 59.022727 C 7.511364 59.022727 5.590909 57.102273 5.590909 54.727273 L 5.590909 9.272727 C 5.590909 6.897727 7.511364 4.977273 9.897727 4.977273 Z M 9.897727 4.977273 " transform="matrix(0.34375,0,0,0.34375,0,0)"/>
<path style="fill-rule:nonzero;fill:rgb(100%,100%,100%);fill-opacity:1;stroke-width:3.131993;stroke-linecap:butt;stroke-linejoin:miter;stroke:rgb(27.058824%,27.058824%,27.058824%);stroke-opacity:0.627451;stroke-miterlimit:4;" d="M 9.897727 4.977273 C 7.511364 4.977273 5.590909 6.897727 5.590909 9.272727 L 5.590909 54.727273 C 5.590909 57.102273 7.511364 59.022727 9.897727 59.022727 L 54.102273 59.022727 C 56.488636 59.022727 58.409091 57.102273 58.409091 54.727273 L 58.409091 9.272727 C 58.409091 6.897727 56.488636 4.977273 54.102273 4.977273 Z M 22.409091 19.352273 L 25.772727 19.352273 L 34.102273 41.215909 L 31.022727 41.215909 L 29.034091 35.613636 L 19.181818 35.613636 L 17.181818 41.215909 L 14.068182 41.215909 Z M 24.079545 22.261364 L 20.068182 33.147727 L 28.113636 33.147727 Z M 42.920455 24.420455 C 45.295455 24.420455 47.068182 25.034091 48.238636 26.261364 C 49.409091 27.5 50 29.363636 50 31.863636 L 50 41.215909 L 47.306818 41.215909 L 47.306818 38.727273 C 46.681818 39.727273 45.920455 40.465909 45 40.943182 C 44.079545 41.409091 42.965909 41.647727 41.636364 41.647727 C 39.954545 41.647727 38.613636 41.181818 37.625 40.238636 C 36.636364 39.295455 36.136364 38.022727 36.136364 36.443182 C 36.136364 34.602273 36.75 33.204545 37.988636 32.272727 C 39.227273 31.329545 41.068182 30.863636 43.522727 30.863636 L 47.306818 30.863636 L 47.306818 30.602273 C 47.306818 29.363636 46.897727 28.409091 46.068182 27.727273 C 45.261364 27.045455 44.113636 26.704545 42.647727 26.704545 C 41.704545 26.704545 40.795455 26.818182 39.909091 27.045455 C 39.011364 27.261364 38.159091 27.602273 37.340909 28.056818 L 37.340909 25.556818 C 38.329545 25.181818 39.284091 24.897727 40.215909 24.715909 C 41.136364 24.522727 42.045455 24.420455 42.920455 24.420455 Z M 44.625 32.977273 C 42.443182 32.977273 40.931818 33.227273 40.090909 33.715909 C 39.25 34.215909 38.840909 35.068182 38.840909 36.272727 C 38.840909 37.227273 39.147727 37.988636 39.772727 38.556818 C 40.409091 39.113636 41.272727 39.386364 42.352273 39.386364 C 43.840909 39.386364 45.045455 38.863636 45.943182 37.806818 C 46.852273 36.738636 47.306818 35.329545 47.306818 33.579545 L 47.306818 32.977273 Z M 44.625 32.977273 " transform="matrix(0.34375,0,0,0.34375,0,0)"/>
</g>
</svg>
