<!-- color: #54d160 -->
<svg xmlns="http://www.w3.org/2000/svg" xmlns:xlink="http://www.w3.org/1999/xlink" width="22px" height="22px" viewBox="0 0 22 22" version="1.1">
<g id="surface1">
<path style="fill-rule:nonzero;fill:rgb(100%,100%,100%);fill-opacity:1;stroke-width:28.178816;stroke-linecap:butt;stroke-linejoin:miter;stroke:rgb(56.078431%,85.098039%,0.784314%);stroke-opacity:1;stroke-miterlimit:4;" d="M 81.545455 25.181818 L 430.454545 25.181818 C 461.545455 25.181818 486.818182 50.454545 486.818182 81.545455 L 486.818182 430.454545 C 486.818182 461.545455 461.545455 486.818182 430.454545 486.818182 L 81.545455 486.818182 C 50.454545 486.818182 25.181818 461.545455 25.181818 430.454545 L 25.181818 81.545455 C 25.181818 50.454545 50.454545 25.181818 81.545455 25.181818 Z M 81.545455 25.181818 " transform="matrix(0.0429688,0,0,0.0429688,0,0)"/>
<path style="fill-rule:nonzero;fill:rgb(56.078431%,85.098039%,0.784314%);fill-opacity:1;stroke-width:40.818562;stroke-linecap:butt;stroke-linejoin:miter;stroke:rgb(56.078431%,85.098039%,0.784314%);stroke-opacity:1;stroke-miterlimit:4;" d="M 411.818182 256 C 411.818182 342.090909 342.090909 411.818182 256 411.818182 C 170 411.818182 100.181818 342.090909 100.181818 256 C 100.181818 169.909091 170 100.181818 256 100.181818 C 342.090909 100.181818 411.818182 169.909091 411.818182 256 Z M 411.818182 256 " transform="matrix(0.0429688,0,0,0.0429688,0,0)"/>
<path style="fill-rule:nonzero;fill:rgb(56.078431%,85.098039%,0.784314%);fill-opacity:1;stroke-width:40.818562;stroke-linecap:butt;stroke-linejoin:miter;stroke:rgb(56.078431%,85.098039%,0.784314%);stroke-opacity:1;stroke-miterlimit:4;" d="M 411.818182 256 C 411.818182 342.090909 342.090909 411.818182 256 411.818182 C 170 411.818182 100.181818 342.090909 100.181818 256 C 100.181818 169.909091 170 100.181818 256 100.181818 C 342.090909 100.181818 411.818182 169.909091 411.818182 256 Z M 411.818182 256 " transform="matrix(0.0429688,0,0,0.0429688,0,0)"/>
<path style=" stroke:none;fill-rule:nonzero;fill:rgb(30.196078%,30.196078%,30.196078%);fill-opacity:1;" d="M 3.429688 9.054688 L 3.429688 12.945312 L 6.273438 12.945312 L 6.273438 11.890625 L 18.59375 11.890625 L 18.59375 10.109375 L 6.273438 10.109375 L 6.273438 9.054688 Z M 3.429688 9.054688 "/>
<path style=" stroke:none;fill-rule:nonzero;fill:rgb(56.078431%,85.098039%,0.784314%);fill-opacity:1;" d="M 5.292969 18.570312 L 3.429688 18.570312 L 3.429688 16.710938 L 5.292969 16.710938 Z M 5.292969 18.570312 "/>
<path style=" stroke:none;fill-rule:nonzero;fill:rgb(56.078431%,85.098039%,0.784314%);fill-opacity:1;" d="M 18.574219 18.570312 L 16.710938 18.570312 L 16.710938 16.710938 L 18.574219 16.710938 Z M 18.574219 18.570312 "/>
<path style=" stroke:none;fill-rule:nonzero;fill:rgb(56.078431%,85.098039%,0.784314%);fill-opacity:1;" d="M 18.574219 5.289062 L 16.710938 5.289062 L 16.710938 3.429688 L 18.574219 3.429688 Z M 18.574219 5.289062 "/>
<path style=" stroke:none;fill-rule:nonzero;fill:rgb(56.078431%,85.098039%,0.784314%);fill-opacity:1;" d="M 5.292969 5.289062 L 3.429688 5.289062 L 3.429688 3.429688 L 5.292969 3.429688 Z M 5.292969 5.289062 "/>
</g>
</svg>
