
<svg xmlns="http://www.w3.org/2000/svg" xmlns:xlink="http://www.w3.org/1999/xlink" width="22px" height="22px" viewBox="0 0 22 22" version="1.1">
<g id="surface1">
<path style="fill-rule:nonzero;fill:rgb(16.862745%,23.921569%,30.980392%);fill-opacity:1;stroke-width:27.27438;stroke-linecap:butt;stroke-linejoin:miter;stroke:rgb(16.862745%,23.921569%,30.980392%);stroke-opacity:1;stroke-miterlimit:4;" d="M 83.181818 43.636364 L 424.454545 43.636364 C 454.909091 43.636364 479.636364 67.818182 479.636364 97.636364 L 479.636364 431.727273 C 479.636364 461.545455 454.909091 485.727273 424.454545 485.727273 L 83.181818 485.727273 C 52.727273 485.727273 28 461.545455 28 431.727273 L 28 97.636364 C 28 67.818182 52.727273 43.636364 83.181818 43.636364 Z M 83.181818 43.636364 " transform="matrix(0.0429688,0,0,0.0429688,0,0)"/>
<path style=" stroke:none;fill-rule:nonzero;fill:rgb(49.019608%,72.156863%,0%);fill-opacity:1;" d="M 11.324219 3.339844 L 11.324219 10.964844 L 19.113281 10.964844 L 19.113281 5.203125 C 19.113281 4.175781 18.261719 3.339844 17.210938 3.339844 Z M 11.324219 3.339844 "/>
<path style=" stroke:none;fill-rule:nonzero;fill:rgb(0%,63.137255%,93.333333%);fill-opacity:1;" d="M 10.488281 19.402344 L 10.488281 11.78125 L 2.703125 11.78125 L 2.703125 17.542969 C 2.703125 18.570312 3.550781 19.402344 4.601562 19.402344 Z M 10.488281 19.402344 "/>
<path style=" stroke:none;fill-rule:nonzero;fill:rgb(94.117647%,29.803922%,11.764706%);fill-opacity:1;" d="M 2.703125 10.964844 L 10.488281 10.964844 L 10.488281 3.339844 L 4.601562 3.339844 C 3.550781 3.339844 2.703125 4.175781 2.703125 5.203125 Z M 2.703125 10.964844 "/>
<path style=" stroke:none;fill-rule:nonzero;fill:rgb(99.215686%,72.156863%,0%);fill-opacity:1;" d="M 19.113281 11.78125 L 11.324219 11.78125 L 11.324219 19.402344 L 17.210938 19.402344 C 18.261719 19.402344 19.113281 18.570312 19.113281 17.542969 Z M 19.113281 11.78125 "/>
</g>
</svg>
