
<svg xmlns="http://www.w3.org/2000/svg" xmlns:xlink="http://www.w3.org/1999/xlink" width="22px" height="22px" viewBox="0 0 22 22" version="1.1">
<g id="surface1">
<path style="fill-rule:nonzero;fill:rgb(98.039216%,94.117647%,94.117647%);fill-opacity:1;stroke-width:27.285545;stroke-linecap:butt;stroke-linejoin:miter;stroke:rgb(60%,60%,60%);stroke-opacity:1;stroke-miterlimit:4;" d="M 63.363636 20.545455 L 448.636364 20.545455 C 469.272727 20.545455 486.090909 37.363636 486.090909 58.090909 L 486.090909 453.909091 C 486.090909 474.636364 469.272727 491.454545 448.636364 491.454545 L 63.363636 491.454545 C 42.727273 491.454545 25.909091 474.636364 25.909091 453.909091 L 25.909091 58.090909 C 25.909091 37.363636 42.727273 20.545455 63.363636 20.545455 Z M 63.363636 20.545455 " transform="matrix(0.0429688,0,0,0.0429688,0,0)"/>
<path style=" stroke:none;fill-rule:nonzero;fill:rgb(21.568627%,78.431373%,21.568627%);fill-opacity:1;" d="M 9.710938 7.15625 C 9.710938 5.9375 8.933594 4.945312 7.96875 4.945312 C 7.007812 4.945312 6.226562 5.9375 6.226562 7.15625 C 6.226562 8.375 7.007812 9.363281 7.96875 9.363281 C 8.933594 9.363281 9.710938 8.375 9.710938 7.15625 Z M 9.710938 7.15625 "/>
<path style=" stroke:none;fill-rule:nonzero;fill:rgb(21.568627%,78.431373%,21.568627%);fill-opacity:1;" d="M 7.96875 9.363281 C 9.71875 9.363281 11.484375 10.480469 11.125 11.757812 L 9.75 16.640625 C 9.390625 17.914062 9.71875 19.03125 7.96875 19.03125 C 6.222656 19.03125 6.632812 17.910156 6.257812 16.640625 L 4.816406 11.757812 C 4.441406 10.484375 6.222656 9.363281 7.96875 9.363281 Z M 7.96875 9.363281 "/>
<path style=" stroke:none;fill-rule:nonzero;fill:rgb(16.470588%,49.803922%,100%);fill-opacity:1;" d="M 14.988281 5.019531 C 14.988281 3.542969 14.042969 2.347656 12.882812 2.347656 C 11.71875 2.347656 10.777344 3.542969 10.777344 5.019531 C 10.777344 6.492188 11.71875 7.6875 12.882812 7.6875 C 14.042969 7.6875 14.988281 6.492188 14.988281 5.019531 Z M 14.988281 5.019531 "/>
<path style=" stroke:none;fill-rule:nonzero;fill:rgb(16.470588%,49.803922%,100%);fill-opacity:1;" d="M 12.882812 7.6875 C 14.992188 7.6875 17.125 9.035156 16.691406 10.574219 L 15.03125 16.472656 C 14.597656 18.011719 14.992188 19.359375 12.882812 19.359375 C 10.769531 19.359375 11.269531 18.007812 10.816406 16.472656 L 9.070312 10.574219 C 8.617188 9.039062 10.769531 7.6875 12.882812 7.6875 Z M 12.882812 7.6875 "/>
</g>
</svg>
