<!-- color: #474747 -->
<svg xmlns="http://www.w3.org/2000/svg" xmlns:xlink="http://www.w3.org/1999/xlink" width="22px" height="22px" viewBox="0 0 22 22" version="1.1">
<defs>
<clipPath id="clip1">
  <path d="M 5.671875 4.640625 L 16.457031 4.640625 L 16.457031 16.328125 L 5.671875 16.328125 Z M 5.671875 4.640625 "/>
</clipPath>
<clipPath id="clip2">
  <path d="M 21.34375 10.917969 C 21.34375 16.601562 16.734375 21.207031 11.050781 21.207031 C 5.371094 21.207031 0.761719 16.601562 0.761719 10.917969 C 0.761719 5.230469 5.371094 0.625 11.050781 0.625 C 16.734375 0.625 21.34375 5.230469 21.34375 10.917969 Z M 21.34375 10.917969 "/>
</clipPath>
</defs>
<g id="surface1">
<path style="fill-rule:nonzero;fill:rgb(100%,100%,100%);fill-opacity:1;stroke-width:28.797188;stroke-linecap:butt;stroke-linejoin:miter;stroke:rgb(50.196078%,50.196078%,50.196078%);stroke-opacity:1;stroke-miterlimit:4;" d="M 77.727273 20.181818 L 434.272727 20.181818 C 466.090909 20.181818 491.818182 45.909091 491.818182 77.727273 L 491.818182 434.272727 C 491.818182 466.090909 466.090909 491.818182 434.272727 491.818182 L 77.727273 491.818182 C 45.909091 491.818182 20.181818 466.090909 20.181818 434.272727 L 20.181818 77.727273 C 20.181818 45.909091 45.909091 20.181818 77.727273 20.181818 Z M 77.727273 20.181818 " transform="matrix(0.0429688,0,0,0.0429688,0,0)"/>
<g clip-path="url(#clip1)" clip-rule="nonzero">
<g clip-path="url(#clip2)" clip-rule="nonzero">
<path style=" stroke:none;fill-rule:nonzero;fill:rgb(50.196078%,50.196078%,50.196078%);fill-opacity:1;" d="M 11.050781 4.652344 C 11.050781 4.652344 15.078125 4.652344 15.078125 7.269531 L 15.078125 9.574219 C 15.078125 9.574219 16.421875 9.574219 16.421875 10.46875 L 16.421875 15.121094 C 16.421875 16.285156 15.078125 16.285156 15.078125 16.285156 L 7.023438 16.285156 C 7.023438 16.285156 5.683594 16.285156 5.683594 15.121094 L 5.683594 10.46875 C 5.683594 9.574219 7.023438 9.574219 7.023438 9.574219 L 7.023438 7.269531 C 7.023438 4.652344 11.050781 4.652344 11.050781 4.652344 M 11.050781 6.105469 C 11.050781 6.105469 8.816406 6.039062 8.816406 7.785156 L 8.816406 9.574219 L 13.289062 9.574219 L 13.289062 7.785156 C 13.289062 6.039062 11.050781 6.105469 11.050781 6.105469 M 11.050781 6.105469 "/>
</g>
</g>
</g>
</svg>
