
<svg xmlns="http://www.w3.org/2000/svg" xmlns:xlink="http://www.w3.org/1999/xlink" width="22px" height="22px" viewBox="0 0 22 22" version="1.1">
<g id="surface1">
<path style="fill-rule:nonzero;fill:rgb(12.941176%,12.941176%,12.941176%);fill-opacity:1;stroke-width:27.27438;stroke-linecap:butt;stroke-linejoin:miter;stroke:rgb(48.627451%,53.333333%,57.647059%);stroke-opacity:1;stroke-miterlimit:4;" d="M 85.363636 35 L 426.636364 35 C 457.090909 35 481.818182 59.181818 481.818182 89 L 481.818182 423 C 481.818182 452.818182 457.090909 477 426.636364 477 L 85.363636 477 C 54.909091 477 30.181818 452.818182 30.181818 423 L 30.181818 89 C 30.181818 59.181818 54.909091 35 85.363636 35 Z M 85.363636 35 " transform="matrix(0.0429688,0,0,0.0429688,0,0)"/>
<path style=" stroke:none;fill-rule:nonzero;fill:rgb(12.941176%,12.941176%,12.941176%);fill-opacity:1;" d="M 2.375 5.1875 L 19.707031 5.1875 L 19.707031 10.066406 L 2.375 10.066406 Z M 2.375 5.1875 "/>
<path style=" stroke:none;fill-rule:nonzero;fill:rgb(11.764706%,18.039216%,21.960784%);fill-opacity:0.992157;" d="M 2.378906 5.097656 L 2.378906 10.3125 L 19.628906 10.3125 L 19.628906 5.097656 Z M 2.382812 11.707031 L 2.382812 16.921875 L 19.632812 16.921875 L 19.632812 11.707031 Z M 2.382812 11.707031 "/>
<path style="fill-rule:evenodd;fill:rgb(15.686275%,21.960784%,27.058824%);fill-opacity:1;stroke-width:1.871346;stroke-linecap:butt;stroke-linejoin:miter;stroke:rgb(12.941176%,12.941176%,12.941176%);stroke-opacity:1;stroke-miterlimit:4;" d="M 54.907533 119.564191 L 54.907533 240.927828 M 72.362079 119.564191 L 72.362079 240.927828 M 89.816624 119.564191 L 89.816624 240.927828 M 107.271169 119.564191 L 107.271169 240.927828 M 124.725715 119.564191 L 124.725715 240.927828 M 142.18026 119.564191 L 142.18026 240.927828 M 159.634806 119.564191 L 159.634806 240.927828 M 177.089351 119.564191 L 177.089351 240.927828 M 194.634806 119.564191 L 194.634806 240.927828 M 212.089351 119.564191 L 212.089351 240.927828 M 229.543897 119.564191 L 229.543897 240.927828 M 246.998442 119.564191 L 246.998442 240.927828 M 264.452988 119.564191 L 264.452988 240.927828 M 281.907533 119.564191 L 281.907533 240.927828 M 299.362079 119.564191 L 299.362079 240.927828 M 316.816624 119.564191 L 316.816624 240.927828 M 334.362079 119.564191 L 334.362079 240.927828 M 351.816624 119.564191 L 351.816624 240.927828 M 369.271169 119.564191 L 369.271169 240.927828 M 386.725715 119.564191 L 386.725715 240.927828 M 404.18026 119.564191 L 404.18026 240.927828 M 421.634806 119.564191 L 421.634806 240.927828 M 439.089351 119.564191 L 439.089351 240.927828 M 456.634806 119.564191 L 456.634806 240.927828 M 54.907533 119.564191 L 458.18026 119.564191 M 54.907533 136.836919 L 458.18026 136.836919 M 54.907533 154.109646 L 458.18026 154.109646 M 54.907533 171.382373 L 458.18026 171.382373 M 54.907533 188.6551 L 458.18026 188.6551 M 54.907533 205.927828 L 458.18026 205.927828 M 54.907533 223.200555 L 458.18026 223.200555 M 54.907533 240.473282 L 458.18026 240.473282 " transform="matrix(0.0429688,0,0,0.0429688,-0.0233706,-0.0398676)"/>
<path style="fill-rule:evenodd;fill:rgb(43.137255%,45.098039%,45.098039%);fill-opacity:0.905882;stroke-width:1.871346;stroke-linecap:butt;stroke-linejoin:miter;stroke:rgb(12.941176%,12.941176%,12.941176%);stroke-opacity:1;stroke-miterlimit:4;" d="M 54.998442 273.382373 L 54.998442 394.746009 M 72.452988 273.382373 L 72.452988 394.746009 M 89.907533 273.382373 L 89.907533 394.746009 M 107.362079 273.382373 L 107.362079 394.746009 M 124.816624 273.382373 L 124.816624 394.746009 M 142.271169 273.382373 L 142.271169 394.746009 M 159.725715 273.382373 L 159.725715 394.746009 M 177.18026 273.382373 L 177.18026 394.746009 M 194.634806 273.382373 L 194.634806 394.746009 M 212.18026 273.382373 L 212.18026 394.746009 M 229.634806 273.382373 L 229.634806 394.746009 M 247.089351 273.382373 L 247.089351 394.746009 M 264.543897 273.382373 L 264.543897 394.746009 M 281.998442 273.382373 L 281.998442 394.746009 M 299.452988 273.382373 L 299.452988 394.746009 M 316.907533 273.382373 L 316.907533 394.746009 M 334.362079 273.382373 L 334.362079 394.746009 M 351.907533 273.382373 L 351.907533 394.746009 M 369.362079 273.382373 L 369.362079 394.746009 M 386.816624 273.382373 L 386.816624 394.746009 M 404.271169 273.382373 L 404.271169 394.746009 M 421.725715 273.382373 L 421.725715 394.746009 M 439.18026 273.382373 L 439.18026 394.746009 M 456.634806 273.382373 L 456.634806 394.746009 M 54.998442 273.382373 L 458.271169 273.382373 M 54.998442 290.6551 L 458.271169 290.6551 M 54.998442 307.927828 L 458.271169 307.927828 M 54.998442 325.200555 L 458.271169 325.200555 M 54.998442 342.473282 L 458.271169 342.473282 M 54.998442 359.746009 L 458.271169 359.746009 M 54.998442 377.018737 L 458.271169 377.018737 M 54.998442 394.291464 L 458.271169 394.291464 " transform="matrix(0.0429688,0,0,0.0429688,-0.0233706,-0.0398676)"/>
<path style=" stroke:none;fill-rule:nonzero;fill:rgb(29.019608%,68.235294%,90.196078%);fill-opacity:0.992157;" d="M 3.128906 5.894531 L 3.128906 6.53125 L 3.765625 6.53125 L 3.765625 5.894531 Z M 3.898438 5.894531 L 3.898438 6.53125 L 4.535156 6.53125 L 4.535156 5.894531 Z M 6.144531 5.894531 L 6.144531 6.53125 L 6.78125 6.53125 L 6.78125 5.894531 Z M 6.878906 5.894531 L 6.878906 6.53125 L 7.515625 6.53125 L 7.515625 5.894531 Z M 7.652344 5.894531 L 7.652344 6.53125 L 8.289062 6.53125 L 8.289062 5.894531 Z M 9.894531 5.894531 L 9.894531 6.53125 L 10.53125 6.53125 L 10.53125 5.894531 Z M 10.632812 5.894531 L 10.632812 6.53125 L 11.269531 6.53125 L 11.269531 5.894531 Z M 11.402344 5.894531 L 11.402344 6.53125 L 12.039062 6.53125 L 12.039062 5.894531 Z M 12.910156 5.894531 L 12.910156 6.53125 L 13.546875 6.53125 L 13.546875 5.894531 Z M 15.15625 5.894531 L 15.15625 6.53125 L 15.792969 6.53125 L 15.792969 5.894531 Z M 17.402344 5.894531 L 17.402344 6.53125 L 18.039062 6.53125 L 18.039062 5.894531 Z M 18.136719 5.894531 L 18.136719 6.53125 L 18.773438 6.53125 L 18.773438 5.894531 Z M 2.390625 6.632812 L 2.390625 7.269531 L 3.027344 7.269531 L 3.027344 6.632812 Z M 4.636719 6.632812 L 4.636719 7.269531 L 5.273438 7.269531 L 5.273438 6.632812 Z M 6.144531 6.632812 L 6.144531 7.269531 L 6.78125 7.269531 L 6.78125 6.632812 Z M 8.386719 6.632812 L 8.386719 7.269531 L 9.023438 7.269531 L 9.023438 6.632812 Z M 10.632812 6.632812 L 10.632812 7.269531 L 11.269531 7.269531 L 11.269531 6.632812 Z M 12.910156 6.632812 L 12.910156 7.269531 L 13.546875 7.269531 L 13.546875 6.632812 Z M 15.15625 6.632812 L 15.15625 7.269531 L 15.792969 7.269531 L 15.792969 6.632812 Z M 16.664062 6.632812 L 16.664062 7.269531 L 17.300781 7.269531 L 17.300781 6.632812 Z M 18.910156 6.632812 L 18.910156 7.269531 L 19.546875 7.269531 L 19.546875 6.632812 Z M 2.390625 7.371094 L 2.390625 8.007812 L 3.027344 8.007812 L 3.027344 7.371094 Z M 4.636719 7.371094 L 4.636719 8.007812 L 5.273438 8.007812 L 5.273438 7.371094 Z M 6.144531 7.371094 L 6.144531 8.007812 L 6.78125 8.007812 L 6.78125 7.371094 Z M 8.386719 7.371094 L 8.386719 8.007812 L 9.023438 8.007812 L 9.023438 7.371094 Z M 10.632812 7.371094 L 10.632812 8.007812 L 11.269531 8.007812 L 11.269531 7.371094 Z M 12.910156 7.371094 L 12.910156 8.007812 L 13.546875 8.007812 L 13.546875 7.371094 Z M 15.15625 7.371094 L 15.15625 8.007812 L 15.792969 8.007812 L 15.792969 7.371094 Z M 16.664062 7.371094 L 16.664062 8.007812 L 17.300781 8.007812 L 17.300781 7.371094 Z M 18.910156 7.371094 L 18.910156 8.007812 L 19.546875 8.007812 L 19.546875 7.371094 Z M 2.390625 8.105469 L 2.390625 8.742188 L 3.027344 8.742188 L 3.027344 8.105469 Z M 3.128906 8.105469 L 3.128906 8.742188 L 3.765625 8.742188 L 3.765625 8.105469 Z M 3.898438 8.105469 L 3.898438 8.742188 L 4.535156 8.742188 L 4.535156 8.105469 Z M 4.636719 8.105469 L 4.636719 8.742188 L 5.273438 8.742188 L 5.273438 8.105469 Z M 6.144531 8.105469 L 6.144531 8.742188 L 6.78125 8.742188 L 6.78125 8.105469 Z M 6.878906 8.105469 L 6.878906 8.742188 L 7.515625 8.742188 L 7.515625 8.105469 Z M 7.652344 8.105469 L 7.652344 8.742188 L 8.289062 8.742188 L 8.289062 8.105469 Z M 10.632812 8.105469 L 10.632812 8.742188 L 11.269531 8.742188 L 11.269531 8.105469 Z M 12.910156 8.105469 L 12.910156 8.742188 L 13.546875 8.742188 L 13.546875 8.105469 Z M 15.15625 8.105469 L 15.15625 8.742188 L 15.792969 8.742188 L 15.792969 8.105469 Z M 16.664062 8.105469 L 16.664062 8.742188 L 17.300781 8.742188 L 17.300781 8.105469 Z M 17.402344 8.105469 L 17.402344 8.742188 L 18.039062 8.742188 L 18.039062 8.105469 Z M 18.136719 8.105469 L 18.136719 8.742188 L 18.773438 8.742188 L 18.773438 8.105469 Z M 18.910156 8.105469 L 18.910156 8.742188 L 19.546875 8.742188 L 19.546875 8.105469 Z M 2.390625 8.878906 L 2.390625 9.480469 L 3.027344 9.480469 L 3.027344 8.878906 Z M 4.636719 8.878906 L 4.636719 9.480469 L 5.273438 9.480469 L 5.273438 8.878906 Z M 6.144531 8.878906 L 6.144531 9.480469 L 6.78125 9.480469 L 6.78125 8.878906 Z M 8.386719 8.878906 L 8.386719 9.480469 L 9.023438 9.480469 L 9.023438 8.878906 Z M 10.632812 8.878906 L 10.632812 9.480469 L 11.269531 9.480469 L 11.269531 8.878906 Z M 13.648438 8.878906 L 13.648438 9.480469 L 14.285156 9.480469 L 14.285156 8.878906 Z M 14.386719 8.878906 L 14.386719 9.480469 L 15.023438 9.480469 L 15.023438 8.878906 Z M 16.664062 8.878906 L 16.664062 9.480469 L 17.300781 9.480469 L 17.300781 8.878906 Z M 18.910156 8.878906 L 18.910156 9.480469 L 19.546875 9.480469 L 19.546875 8.878906 Z M 2.398438 12.503906 L 2.398438 13.140625 L 3.035156 13.140625 L 3.035156 12.503906 Z M 3.136719 12.503906 L 3.136719 13.140625 L 3.773438 13.140625 L 3.773438 12.503906 Z M 5.382812 12.503906 L 5.382812 13.140625 L 6.019531 13.140625 L 6.019531 12.503906 Z M 7.660156 12.503906 L 7.660156 13.140625 L 8.296875 13.140625 L 8.296875 12.503906 Z M 9.90625 12.503906 L 9.90625 13.140625 L 10.542969 13.140625 L 10.542969 12.503906 Z M 10.640625 12.503906 L 10.640625 13.140625 L 11.277344 13.140625 L 11.277344 12.503906 Z M 14.394531 12.503906 L 14.394531 13.140625 L 15.03125 13.140625 L 15.03125 12.503906 Z M 15.164062 12.503906 L 15.164062 13.140625 L 15.800781 13.140625 L 15.800781 12.503906 Z M 16.640625 12.503906 L 16.640625 13.140625 L 17.277344 13.140625 L 17.277344 12.503906 Z M 17.410156 12.503906 L 17.410156 13.140625 L 18.046875 13.140625 L 18.046875 12.503906 Z M 18.148438 12.503906 L 18.148438 13.140625 L 18.785156 13.140625 L 18.785156 12.503906 Z M 18.917969 12.503906 L 18.917969 13.140625 L 19.554688 13.140625 L 19.554688 12.503906 Z M 3.90625 13.242188 L 3.90625 13.878906 L 4.542969 13.878906 L 4.542969 13.242188 Z M 5.382812 13.242188 L 5.382812 13.878906 L 6.019531 13.878906 L 6.019531 13.242188 Z M 7.660156 13.242188 L 7.660156 13.878906 L 8.296875 13.878906 L 8.296875 13.242188 Z M 9.132812 13.242188 L 9.132812 13.878906 L 9.769531 13.878906 L 9.769531 13.242188 Z M 11.414062 13.242188 L 11.414062 13.878906 L 12.050781 13.878906 L 12.050781 13.242188 Z M 12.886719 13.242188 L 12.886719 13.878906 L 13.523438 13.878906 L 13.523438 13.242188 Z M 15.164062 13.242188 L 15.164062 13.878906 L 15.800781 13.878906 L 15.800781 13.242188 Z M 18.917969 13.242188 L 18.917969 13.878906 L 19.554688 13.878906 L 19.554688 13.242188 Z M 3.90625 13.976562 L 3.90625 14.613281 L 4.542969 14.613281 L 4.542969 13.976562 Z M 6.152344 13.976562 L 6.152344 14.613281 L 6.789062 14.613281 L 6.789062 13.976562 Z M 6.890625 13.976562 L 6.890625 14.613281 L 7.527344 14.613281 L 7.527344 13.976562 Z M 9.90625 13.976562 L 9.90625 14.613281 L 10.542969 14.613281 L 10.542969 13.976562 Z M 10.640625 13.976562 L 10.640625 14.613281 L 11.277344 14.613281 L 11.277344 13.976562 Z M 15.164062 13.976562 L 15.164062 14.613281 L 15.800781 14.613281 L 15.800781 13.976562 Z M 18.148438 13.976562 L 18.148438 14.613281 L 18.785156 14.613281 L 18.785156 13.976562 Z M 2.398438 14.75 L 2.398438 15.351562 L 3.035156 15.351562 L 3.035156 14.75 Z M 3.136719 14.75 L 3.136719 15.351562 L 3.773438 15.351562 L 3.773438 14.75 Z M 3.90625 14.75 L 3.90625 15.351562 L 4.542969 15.351562 L 4.542969 14.75 Z M 6.890625 14.75 L 6.890625 15.351562 L 7.527344 15.351562 L 7.527344 14.75 Z M 9.132812 14.75 L 9.132812 15.351562 L 9.769531 15.351562 L 9.769531 14.75 Z M 11.414062 14.75 L 11.414062 15.351562 L 12.050781 15.351562 L 12.050781 14.75 Z M 12.886719 14.75 L 12.886719 15.351562 L 13.523438 15.351562 L 13.523438 14.75 Z M 15.164062 14.75 L 15.164062 15.351562 L 15.800781 15.351562 L 15.800781 14.75 Z M 17.410156 14.75 L 17.410156 15.351562 L 18.046875 15.351562 L 18.046875 14.75 Z M 3.90625 15.484375 L 3.90625 16.089844 L 4.542969 16.089844 L 4.542969 15.484375 Z M 6.152344 15.484375 L 6.152344 16.089844 L 6.789062 16.089844 L 6.789062 15.484375 Z M 9.90625 15.484375 L 9.90625 16.089844 L 10.542969 16.089844 L 10.542969 15.484375 Z M 10.640625 15.484375 L 10.640625 16.089844 L 11.277344 16.089844 L 11.277344 15.484375 Z M 15.164062 15.484375 L 15.164062 16.089844 L 15.800781 16.089844 L 15.800781 15.484375 Z M 17.410156 15.484375 L 17.410156 16.089844 L 18.046875 16.089844 L 18.046875 15.484375 Z M 17.410156 15.484375 "/>
<path style=" stroke:none;fill-rule:nonzero;fill:rgb(29.803922%,74.117647%,93.333333%);fill-opacity:1;" d="M 13.648438 9.179688 L 13.648438 8.878906 L 14.285156 8.878906 L 14.285156 9.480469 L 13.648438 9.480469 Z M 13.648438 9.179688 "/>
</g>
</svg>
