
<svg xmlns="http://www.w3.org/2000/svg" xmlns:xlink="http://www.w3.org/1999/xlink" width="22px" height="22px" viewBox="0 0 22 22" version="1.1">
<defs>
<clipPath id="clip1">
  <path d="M 1 1 L 21 1 L 21 21 L 1 21 Z M 1 1 "/>
</clipPath>
<clipPath id="clip2">
  <path d="M 3.882812 1.582031 L 18.117188 1.582031 C 19.386719 1.582031 20.417969 2.613281 20.417969 3.882812 L 20.417969 18.117188 C 20.417969 19.386719 19.386719 20.417969 18.117188 20.417969 L 3.882812 20.417969 C 2.613281 20.417969 1.582031 19.386719 1.582031 18.117188 L 1.582031 3.882812 C 1.582031 2.613281 2.613281 1.582031 3.882812 1.582031 Z M 3.882812 1.582031 "/>
</clipPath>
<clipPath id="clip3">
  <path d="M 1 11 L 11 11 L 11 21 L 1 21 Z M 1 11 "/>
</clipPath>
<clipPath id="clip4">
  <path d="M 3.882812 1.582031 L 18.117188 1.582031 C 19.386719 1.582031 20.417969 2.613281 20.417969 3.882812 L 20.417969 18.117188 C 20.417969 19.386719 19.386719 20.417969 18.117188 20.417969 L 3.882812 20.417969 C 2.613281 20.417969 1.582031 19.386719 1.582031 18.117188 L 1.582031 3.882812 C 1.582031 2.613281 2.613281 1.582031 3.882812 1.582031 Z M 3.882812 1.582031 "/>
</clipPath>
<clipPath id="clip5">
  <path d="M 1 18 L 4 18 L 4 21 L 1 21 Z M 1 18 "/>
</clipPath>
<clipPath id="clip6">
  <path d="M 3.882812 1.582031 L 18.117188 1.582031 C 19.386719 1.582031 20.417969 2.613281 20.417969 3.882812 L 20.417969 18.117188 C 20.417969 19.386719 19.386719 20.417969 18.117188 20.417969 L 3.882812 20.417969 C 2.613281 20.417969 1.582031 19.386719 1.582031 18.117188 L 1.582031 3.882812 C 1.582031 2.613281 2.613281 1.582031 3.882812 1.582031 Z M 3.882812 1.582031 "/>
</clipPath>
<clipPath id="clip7">
  <path d="M 3 18 L 7 18 L 7 21 L 3 21 Z M 3 18 "/>
</clipPath>
<clipPath id="clip8">
  <path d="M 3.882812 1.582031 L 18.117188 1.582031 C 19.386719 1.582031 20.417969 2.613281 20.417969 3.882812 L 20.417969 18.117188 C 20.417969 19.386719 19.386719 20.417969 18.117188 20.417969 L 3.882812 20.417969 C 2.613281 20.417969 1.582031 19.386719 1.582031 18.117188 L 1.582031 3.882812 C 1.582031 2.613281 2.613281 1.582031 3.882812 1.582031 Z M 3.882812 1.582031 "/>
</clipPath>
<clipPath id="clip9">
  <path d="M 6 18 L 9 18 L 9 21 L 6 21 Z M 6 18 "/>
</clipPath>
<clipPath id="clip10">
  <path d="M 3.882812 1.582031 L 18.117188 1.582031 C 19.386719 1.582031 20.417969 2.613281 20.417969 3.882812 L 20.417969 18.117188 C 20.417969 19.386719 19.386719 20.417969 18.117188 20.417969 L 3.882812 20.417969 C 2.613281 20.417969 1.582031 19.386719 1.582031 18.117188 L 1.582031 3.882812 C 1.582031 2.613281 2.613281 1.582031 3.882812 1.582031 Z M 3.882812 1.582031 "/>
</clipPath>
<clipPath id="clip11">
  <path d="M 8 18 L 11 18 L 11 21 L 8 21 Z M 8 18 "/>
</clipPath>
<clipPath id="clip12">
  <path d="M 3.882812 1.582031 L 18.117188 1.582031 C 19.386719 1.582031 20.417969 2.613281 20.417969 3.882812 L 20.417969 18.117188 C 20.417969 19.386719 19.386719 20.417969 18.117188 20.417969 L 3.882812 20.417969 C 2.613281 20.417969 1.582031 19.386719 1.582031 18.117188 L 1.582031 3.882812 C 1.582031 2.613281 2.613281 1.582031 3.882812 1.582031 Z M 3.882812 1.582031 "/>
</clipPath>
<clipPath id="clip13">
  <path d="M 11 18 L 14 18 L 14 21 L 11 21 Z M 11 18 "/>
</clipPath>
<clipPath id="clip14">
  <path d="M 3.882812 1.582031 L 18.117188 1.582031 C 19.386719 1.582031 20.417969 2.613281 20.417969 3.882812 L 20.417969 18.117188 C 20.417969 19.386719 19.386719 20.417969 18.117188 20.417969 L 3.882812 20.417969 C 2.613281 20.417969 1.582031 19.386719 1.582031 18.117188 L 1.582031 3.882812 C 1.582031 2.613281 2.613281 1.582031 3.882812 1.582031 Z M 3.882812 1.582031 "/>
</clipPath>
<clipPath id="clip15">
  <path d="M 13 18 L 16 18 L 16 21 L 13 21 Z M 13 18 "/>
</clipPath>
<clipPath id="clip16">
  <path d="M 3.882812 1.582031 L 18.117188 1.582031 C 19.386719 1.582031 20.417969 2.613281 20.417969 3.882812 L 20.417969 18.117188 C 20.417969 19.386719 19.386719 20.417969 18.117188 20.417969 L 3.882812 20.417969 C 2.613281 20.417969 1.582031 19.386719 1.582031 18.117188 L 1.582031 3.882812 C 1.582031 2.613281 2.613281 1.582031 3.882812 1.582031 Z M 3.882812 1.582031 "/>
</clipPath>
<clipPath id="clip17">
  <path d="M 15 18 L 19 18 L 19 21 L 15 21 Z M 15 18 "/>
</clipPath>
<clipPath id="clip18">
  <path d="M 3.882812 1.582031 L 18.117188 1.582031 C 19.386719 1.582031 20.417969 2.613281 20.417969 3.882812 L 20.417969 18.117188 C 20.417969 19.386719 19.386719 20.417969 18.117188 20.417969 L 3.882812 20.417969 C 2.613281 20.417969 1.582031 19.386719 1.582031 18.117188 L 1.582031 3.882812 C 1.582031 2.613281 2.613281 1.582031 3.882812 1.582031 Z M 3.882812 1.582031 "/>
</clipPath>
<clipPath id="clip19">
  <path d="M 18 18 L 21 18 L 21 21 L 18 21 Z M 18 18 "/>
</clipPath>
<clipPath id="clip20">
  <path d="M 3.882812 1.582031 L 18.117188 1.582031 C 19.386719 1.582031 20.417969 2.613281 20.417969 3.882812 L 20.417969 18.117188 C 20.417969 19.386719 19.386719 20.417969 18.117188 20.417969 L 3.882812 20.417969 C 2.613281 20.417969 1.582031 19.386719 1.582031 18.117188 L 1.582031 3.882812 C 1.582031 2.613281 2.613281 1.582031 3.882812 1.582031 Z M 3.882812 1.582031 "/>
</clipPath>
<clipPath id="clip21">
  <path d="M 1 15 L 4 15 L 4 19 L 1 19 Z M 1 15 "/>
</clipPath>
<clipPath id="clip22">
  <path d="M 3.882812 1.582031 L 18.117188 1.582031 C 19.386719 1.582031 20.417969 2.613281 20.417969 3.882812 L 20.417969 18.117188 C 20.417969 19.386719 19.386719 20.417969 18.117188 20.417969 L 3.882812 20.417969 C 2.613281 20.417969 1.582031 19.386719 1.582031 18.117188 L 1.582031 3.882812 C 1.582031 2.613281 2.613281 1.582031 3.882812 1.582031 Z M 3.882812 1.582031 "/>
</clipPath>
<clipPath id="clip23">
  <path d="M 3 15 L 7 15 L 7 19 L 3 19 Z M 3 15 "/>
</clipPath>
<clipPath id="clip24">
  <path d="M 3.882812 1.582031 L 18.117188 1.582031 C 19.386719 1.582031 20.417969 2.613281 20.417969 3.882812 L 20.417969 18.117188 C 20.417969 19.386719 19.386719 20.417969 18.117188 20.417969 L 3.882812 20.417969 C 2.613281 20.417969 1.582031 19.386719 1.582031 18.117188 L 1.582031 3.882812 C 1.582031 2.613281 2.613281 1.582031 3.882812 1.582031 Z M 3.882812 1.582031 "/>
</clipPath>
<clipPath id="clip25">
  <path d="M 6 15 L 9 15 L 9 19 L 6 19 Z M 6 15 "/>
</clipPath>
<clipPath id="clip26">
  <path d="M 3.882812 1.582031 L 18.117188 1.582031 C 19.386719 1.582031 20.417969 2.613281 20.417969 3.882812 L 20.417969 18.117188 C 20.417969 19.386719 19.386719 20.417969 18.117188 20.417969 L 3.882812 20.417969 C 2.613281 20.417969 1.582031 19.386719 1.582031 18.117188 L 1.582031 3.882812 C 1.582031 2.613281 2.613281 1.582031 3.882812 1.582031 Z M 3.882812 1.582031 "/>
</clipPath>
<clipPath id="clip27">
  <path d="M 8 15 L 11 15 L 11 19 L 8 19 Z M 8 15 "/>
</clipPath>
<clipPath id="clip28">
  <path d="M 3.882812 1.582031 L 18.117188 1.582031 C 19.386719 1.582031 20.417969 2.613281 20.417969 3.882812 L 20.417969 18.117188 C 20.417969 19.386719 19.386719 20.417969 18.117188 20.417969 L 3.882812 20.417969 C 2.613281 20.417969 1.582031 19.386719 1.582031 18.117188 L 1.582031 3.882812 C 1.582031 2.613281 2.613281 1.582031 3.882812 1.582031 Z M 3.882812 1.582031 "/>
</clipPath>
<clipPath id="clip29">
  <path d="M 11 15 L 14 15 L 14 19 L 11 19 Z M 11 15 "/>
</clipPath>
<clipPath id="clip30">
  <path d="M 3.882812 1.582031 L 18.117188 1.582031 C 19.386719 1.582031 20.417969 2.613281 20.417969 3.882812 L 20.417969 18.117188 C 20.417969 19.386719 19.386719 20.417969 18.117188 20.417969 L 3.882812 20.417969 C 2.613281 20.417969 1.582031 19.386719 1.582031 18.117188 L 1.582031 3.882812 C 1.582031 2.613281 2.613281 1.582031 3.882812 1.582031 Z M 3.882812 1.582031 "/>
</clipPath>
<clipPath id="clip31">
  <path d="M 13 15 L 16 15 L 16 19 L 13 19 Z M 13 15 "/>
</clipPath>
<clipPath id="clip32">
  <path d="M 3.882812 1.582031 L 18.117188 1.582031 C 19.386719 1.582031 20.417969 2.613281 20.417969 3.882812 L 20.417969 18.117188 C 20.417969 19.386719 19.386719 20.417969 18.117188 20.417969 L 3.882812 20.417969 C 2.613281 20.417969 1.582031 19.386719 1.582031 18.117188 L 1.582031 3.882812 C 1.582031 2.613281 2.613281 1.582031 3.882812 1.582031 Z M 3.882812 1.582031 "/>
</clipPath>
<clipPath id="clip33">
  <path d="M 15 15 L 19 15 L 19 19 L 15 19 Z M 15 15 "/>
</clipPath>
<clipPath id="clip34">
  <path d="M 3.882812 1.582031 L 18.117188 1.582031 C 19.386719 1.582031 20.417969 2.613281 20.417969 3.882812 L 20.417969 18.117188 C 20.417969 19.386719 19.386719 20.417969 18.117188 20.417969 L 3.882812 20.417969 C 2.613281 20.417969 1.582031 19.386719 1.582031 18.117188 L 1.582031 3.882812 C 1.582031 2.613281 2.613281 1.582031 3.882812 1.582031 Z M 3.882812 1.582031 "/>
</clipPath>
<clipPath id="clip35">
  <path d="M 18 15 L 21 15 L 21 19 L 18 19 Z M 18 15 "/>
</clipPath>
<clipPath id="clip36">
  <path d="M 3.882812 1.582031 L 18.117188 1.582031 C 19.386719 1.582031 20.417969 2.613281 20.417969 3.882812 L 20.417969 18.117188 C 20.417969 19.386719 19.386719 20.417969 18.117188 20.417969 L 3.882812 20.417969 C 2.613281 20.417969 1.582031 19.386719 1.582031 18.117188 L 1.582031 3.882812 C 1.582031 2.613281 2.613281 1.582031 3.882812 1.582031 Z M 3.882812 1.582031 "/>
</clipPath>
<clipPath id="clip37">
  <path d="M 1 13 L 4 13 L 4 16 L 1 16 Z M 1 13 "/>
</clipPath>
<clipPath id="clip38">
  <path d="M 3.882812 1.582031 L 18.117188 1.582031 C 19.386719 1.582031 20.417969 2.613281 20.417969 3.882812 L 20.417969 18.117188 C 20.417969 19.386719 19.386719 20.417969 18.117188 20.417969 L 3.882812 20.417969 C 2.613281 20.417969 1.582031 19.386719 1.582031 18.117188 L 1.582031 3.882812 C 1.582031 2.613281 2.613281 1.582031 3.882812 1.582031 Z M 3.882812 1.582031 "/>
</clipPath>
<clipPath id="clip39">
  <path d="M 3 13 L 7 13 L 7 16 L 3 16 Z M 3 13 "/>
</clipPath>
<clipPath id="clip40">
  <path d="M 3.882812 1.582031 L 18.117188 1.582031 C 19.386719 1.582031 20.417969 2.613281 20.417969 3.882812 L 20.417969 18.117188 C 20.417969 19.386719 19.386719 20.417969 18.117188 20.417969 L 3.882812 20.417969 C 2.613281 20.417969 1.582031 19.386719 1.582031 18.117188 L 1.582031 3.882812 C 1.582031 2.613281 2.613281 1.582031 3.882812 1.582031 Z M 3.882812 1.582031 "/>
</clipPath>
<clipPath id="clip41">
  <path d="M 6 13 L 9 13 L 9 16 L 6 16 Z M 6 13 "/>
</clipPath>
<clipPath id="clip42">
  <path d="M 3.882812 1.582031 L 18.117188 1.582031 C 19.386719 1.582031 20.417969 2.613281 20.417969 3.882812 L 20.417969 18.117188 C 20.417969 19.386719 19.386719 20.417969 18.117188 20.417969 L 3.882812 20.417969 C 2.613281 20.417969 1.582031 19.386719 1.582031 18.117188 L 1.582031 3.882812 C 1.582031 2.613281 2.613281 1.582031 3.882812 1.582031 Z M 3.882812 1.582031 "/>
</clipPath>
<clipPath id="clip43">
  <path d="M 8 13 L 11 13 L 11 16 L 8 16 Z M 8 13 "/>
</clipPath>
<clipPath id="clip44">
  <path d="M 3.882812 1.582031 L 18.117188 1.582031 C 19.386719 1.582031 20.417969 2.613281 20.417969 3.882812 L 20.417969 18.117188 C 20.417969 19.386719 19.386719 20.417969 18.117188 20.417969 L 3.882812 20.417969 C 2.613281 20.417969 1.582031 19.386719 1.582031 18.117188 L 1.582031 3.882812 C 1.582031 2.613281 2.613281 1.582031 3.882812 1.582031 Z M 3.882812 1.582031 "/>
</clipPath>
<clipPath id="clip45">
  <path d="M 11 13 L 14 13 L 14 16 L 11 16 Z M 11 13 "/>
</clipPath>
<clipPath id="clip46">
  <path d="M 3.882812 1.582031 L 18.117188 1.582031 C 19.386719 1.582031 20.417969 2.613281 20.417969 3.882812 L 20.417969 18.117188 C 20.417969 19.386719 19.386719 20.417969 18.117188 20.417969 L 3.882812 20.417969 C 2.613281 20.417969 1.582031 19.386719 1.582031 18.117188 L 1.582031 3.882812 C 1.582031 2.613281 2.613281 1.582031 3.882812 1.582031 Z M 3.882812 1.582031 "/>
</clipPath>
<clipPath id="clip47">
  <path d="M 13 13 L 16 13 L 16 16 L 13 16 Z M 13 13 "/>
</clipPath>
<clipPath id="clip48">
  <path d="M 3.882812 1.582031 L 18.117188 1.582031 C 19.386719 1.582031 20.417969 2.613281 20.417969 3.882812 L 20.417969 18.117188 C 20.417969 19.386719 19.386719 20.417969 18.117188 20.417969 L 3.882812 20.417969 C 2.613281 20.417969 1.582031 19.386719 1.582031 18.117188 L 1.582031 3.882812 C 1.582031 2.613281 2.613281 1.582031 3.882812 1.582031 Z M 3.882812 1.582031 "/>
</clipPath>
<clipPath id="clip49">
  <path d="M 15 13 L 19 13 L 19 16 L 15 16 Z M 15 13 "/>
</clipPath>
<clipPath id="clip50">
  <path d="M 3.882812 1.582031 L 18.117188 1.582031 C 19.386719 1.582031 20.417969 2.613281 20.417969 3.882812 L 20.417969 18.117188 C 20.417969 19.386719 19.386719 20.417969 18.117188 20.417969 L 3.882812 20.417969 C 2.613281 20.417969 1.582031 19.386719 1.582031 18.117188 L 1.582031 3.882812 C 1.582031 2.613281 2.613281 1.582031 3.882812 1.582031 Z M 3.882812 1.582031 "/>
</clipPath>
<clipPath id="clip51">
  <path d="M 18 13 L 21 13 L 21 16 L 18 16 Z M 18 13 "/>
</clipPath>
<clipPath id="clip52">
  <path d="M 3.882812 1.582031 L 18.117188 1.582031 C 19.386719 1.582031 20.417969 2.613281 20.417969 3.882812 L 20.417969 18.117188 C 20.417969 19.386719 19.386719 20.417969 18.117188 20.417969 L 3.882812 20.417969 C 2.613281 20.417969 1.582031 19.386719 1.582031 18.117188 L 1.582031 3.882812 C 1.582031 2.613281 2.613281 1.582031 3.882812 1.582031 Z M 3.882812 1.582031 "/>
</clipPath>
<clipPath id="clip53">
  <path d="M 1 11 L 4 11 L 4 14 L 1 14 Z M 1 11 "/>
</clipPath>
<clipPath id="clip54">
  <path d="M 3.882812 1.582031 L 18.117188 1.582031 C 19.386719 1.582031 20.417969 2.613281 20.417969 3.882812 L 20.417969 18.117188 C 20.417969 19.386719 19.386719 20.417969 18.117188 20.417969 L 3.882812 20.417969 C 2.613281 20.417969 1.582031 19.386719 1.582031 18.117188 L 1.582031 3.882812 C 1.582031 2.613281 2.613281 1.582031 3.882812 1.582031 Z M 3.882812 1.582031 "/>
</clipPath>
<clipPath id="clip55">
  <path d="M 3 11 L 7 11 L 7 14 L 3 14 Z M 3 11 "/>
</clipPath>
<clipPath id="clip56">
  <path d="M 3.882812 1.582031 L 18.117188 1.582031 C 19.386719 1.582031 20.417969 2.613281 20.417969 3.882812 L 20.417969 18.117188 C 20.417969 19.386719 19.386719 20.417969 18.117188 20.417969 L 3.882812 20.417969 C 2.613281 20.417969 1.582031 19.386719 1.582031 18.117188 L 1.582031 3.882812 C 1.582031 2.613281 2.613281 1.582031 3.882812 1.582031 Z M 3.882812 1.582031 "/>
</clipPath>
<clipPath id="clip57">
  <path d="M 6 11 L 9 11 L 9 14 L 6 14 Z M 6 11 "/>
</clipPath>
<clipPath id="clip58">
  <path d="M 3.882812 1.582031 L 18.117188 1.582031 C 19.386719 1.582031 20.417969 2.613281 20.417969 3.882812 L 20.417969 18.117188 C 20.417969 19.386719 19.386719 20.417969 18.117188 20.417969 L 3.882812 20.417969 C 2.613281 20.417969 1.582031 19.386719 1.582031 18.117188 L 1.582031 3.882812 C 1.582031 2.613281 2.613281 1.582031 3.882812 1.582031 Z M 3.882812 1.582031 "/>
</clipPath>
<clipPath id="clip59">
  <path d="M 8 11 L 11 11 L 11 14 L 8 14 Z M 8 11 "/>
</clipPath>
<clipPath id="clip60">
  <path d="M 3.882812 1.582031 L 18.117188 1.582031 C 19.386719 1.582031 20.417969 2.613281 20.417969 3.882812 L 20.417969 18.117188 C 20.417969 19.386719 19.386719 20.417969 18.117188 20.417969 L 3.882812 20.417969 C 2.613281 20.417969 1.582031 19.386719 1.582031 18.117188 L 1.582031 3.882812 C 1.582031 2.613281 2.613281 1.582031 3.882812 1.582031 Z M 3.882812 1.582031 "/>
</clipPath>
<clipPath id="clip61">
  <path d="M 11 11 L 14 11 L 14 14 L 11 14 Z M 11 11 "/>
</clipPath>
<clipPath id="clip62">
  <path d="M 3.882812 1.582031 L 18.117188 1.582031 C 19.386719 1.582031 20.417969 2.613281 20.417969 3.882812 L 20.417969 18.117188 C 20.417969 19.386719 19.386719 20.417969 18.117188 20.417969 L 3.882812 20.417969 C 2.613281 20.417969 1.582031 19.386719 1.582031 18.117188 L 1.582031 3.882812 C 1.582031 2.613281 2.613281 1.582031 3.882812 1.582031 Z M 3.882812 1.582031 "/>
</clipPath>
<clipPath id="clip63">
  <path d="M 13 11 L 16 11 L 16 14 L 13 14 Z M 13 11 "/>
</clipPath>
<clipPath id="clip64">
  <path d="M 3.882812 1.582031 L 18.117188 1.582031 C 19.386719 1.582031 20.417969 2.613281 20.417969 3.882812 L 20.417969 18.117188 C 20.417969 19.386719 19.386719 20.417969 18.117188 20.417969 L 3.882812 20.417969 C 2.613281 20.417969 1.582031 19.386719 1.582031 18.117188 L 1.582031 3.882812 C 1.582031 2.613281 2.613281 1.582031 3.882812 1.582031 Z M 3.882812 1.582031 "/>
</clipPath>
<clipPath id="clip65">
  <path d="M 15 11 L 19 11 L 19 14 L 15 14 Z M 15 11 "/>
</clipPath>
<clipPath id="clip66">
  <path d="M 3.882812 1.582031 L 18.117188 1.582031 C 19.386719 1.582031 20.417969 2.613281 20.417969 3.882812 L 20.417969 18.117188 C 20.417969 19.386719 19.386719 20.417969 18.117188 20.417969 L 3.882812 20.417969 C 2.613281 20.417969 1.582031 19.386719 1.582031 18.117188 L 1.582031 3.882812 C 1.582031 2.613281 2.613281 1.582031 3.882812 1.582031 Z M 3.882812 1.582031 "/>
</clipPath>
<clipPath id="clip67">
  <path d="M 18 11 L 21 11 L 21 14 L 18 14 Z M 18 11 "/>
</clipPath>
<clipPath id="clip68">
  <path d="M 3.882812 1.582031 L 18.117188 1.582031 C 19.386719 1.582031 20.417969 2.613281 20.417969 3.882812 L 20.417969 18.117188 C 20.417969 19.386719 19.386719 20.417969 18.117188 20.417969 L 3.882812 20.417969 C 2.613281 20.417969 1.582031 19.386719 1.582031 18.117188 L 1.582031 3.882812 C 1.582031 2.613281 2.613281 1.582031 3.882812 1.582031 Z M 3.882812 1.582031 "/>
</clipPath>
<clipPath id="clip69">
  <path d="M 1 1 L 11 1 L 11 11 L 1 11 Z M 1 1 "/>
</clipPath>
<clipPath id="clip70">
  <path d="M 3.882812 1.582031 L 18.117188 1.582031 C 19.386719 1.582031 20.417969 2.613281 20.417969 3.882812 L 20.417969 18.117188 C 20.417969 19.386719 19.386719 20.417969 18.117188 20.417969 L 3.882812 20.417969 C 2.613281 20.417969 1.582031 19.386719 1.582031 18.117188 L 1.582031 3.882812 C 1.582031 2.613281 2.613281 1.582031 3.882812 1.582031 Z M 3.882812 1.582031 "/>
</clipPath>
<clipPath id="clip71">
  <path d="M 1 8 L 4 8 L 4 11 L 1 11 Z M 1 8 "/>
</clipPath>
<clipPath id="clip72">
  <path d="M 3.882812 1.582031 L 18.117188 1.582031 C 19.386719 1.582031 20.417969 2.613281 20.417969 3.882812 L 20.417969 18.117188 C 20.417969 19.386719 19.386719 20.417969 18.117188 20.417969 L 3.882812 20.417969 C 2.613281 20.417969 1.582031 19.386719 1.582031 18.117188 L 1.582031 3.882812 C 1.582031 2.613281 2.613281 1.582031 3.882812 1.582031 Z M 3.882812 1.582031 "/>
</clipPath>
<clipPath id="clip73">
  <path d="M 3 8 L 7 8 L 7 11 L 3 11 Z M 3 8 "/>
</clipPath>
<clipPath id="clip74">
  <path d="M 3.882812 1.582031 L 18.117188 1.582031 C 19.386719 1.582031 20.417969 2.613281 20.417969 3.882812 L 20.417969 18.117188 C 20.417969 19.386719 19.386719 20.417969 18.117188 20.417969 L 3.882812 20.417969 C 2.613281 20.417969 1.582031 19.386719 1.582031 18.117188 L 1.582031 3.882812 C 1.582031 2.613281 2.613281 1.582031 3.882812 1.582031 Z M 3.882812 1.582031 "/>
</clipPath>
<clipPath id="clip75">
  <path d="M 6 8 L 9 8 L 9 11 L 6 11 Z M 6 8 "/>
</clipPath>
<clipPath id="clip76">
  <path d="M 3.882812 1.582031 L 18.117188 1.582031 C 19.386719 1.582031 20.417969 2.613281 20.417969 3.882812 L 20.417969 18.117188 C 20.417969 19.386719 19.386719 20.417969 18.117188 20.417969 L 3.882812 20.417969 C 2.613281 20.417969 1.582031 19.386719 1.582031 18.117188 L 1.582031 3.882812 C 1.582031 2.613281 2.613281 1.582031 3.882812 1.582031 Z M 3.882812 1.582031 "/>
</clipPath>
<clipPath id="clip77">
  <path d="M 8 8 L 11 8 L 11 11 L 8 11 Z M 8 8 "/>
</clipPath>
<clipPath id="clip78">
  <path d="M 3.882812 1.582031 L 18.117188 1.582031 C 19.386719 1.582031 20.417969 2.613281 20.417969 3.882812 L 20.417969 18.117188 C 20.417969 19.386719 19.386719 20.417969 18.117188 20.417969 L 3.882812 20.417969 C 2.613281 20.417969 1.582031 19.386719 1.582031 18.117188 L 1.582031 3.882812 C 1.582031 2.613281 2.613281 1.582031 3.882812 1.582031 Z M 3.882812 1.582031 "/>
</clipPath>
<clipPath id="clip79">
  <path d="M 11 8 L 14 8 L 14 11 L 11 11 Z M 11 8 "/>
</clipPath>
<clipPath id="clip80">
  <path d="M 3.882812 1.582031 L 18.117188 1.582031 C 19.386719 1.582031 20.417969 2.613281 20.417969 3.882812 L 20.417969 18.117188 C 20.417969 19.386719 19.386719 20.417969 18.117188 20.417969 L 3.882812 20.417969 C 2.613281 20.417969 1.582031 19.386719 1.582031 18.117188 L 1.582031 3.882812 C 1.582031 2.613281 2.613281 1.582031 3.882812 1.582031 Z M 3.882812 1.582031 "/>
</clipPath>
<clipPath id="clip81">
  <path d="M 13 8 L 16 8 L 16 11 L 13 11 Z M 13 8 "/>
</clipPath>
<clipPath id="clip82">
  <path d="M 3.882812 1.582031 L 18.117188 1.582031 C 19.386719 1.582031 20.417969 2.613281 20.417969 3.882812 L 20.417969 18.117188 C 20.417969 19.386719 19.386719 20.417969 18.117188 20.417969 L 3.882812 20.417969 C 2.613281 20.417969 1.582031 19.386719 1.582031 18.117188 L 1.582031 3.882812 C 1.582031 2.613281 2.613281 1.582031 3.882812 1.582031 Z M 3.882812 1.582031 "/>
</clipPath>
<clipPath id="clip83">
  <path d="M 15 8 L 19 8 L 19 11 L 15 11 Z M 15 8 "/>
</clipPath>
<clipPath id="clip84">
  <path d="M 3.882812 1.582031 L 18.117188 1.582031 C 19.386719 1.582031 20.417969 2.613281 20.417969 3.882812 L 20.417969 18.117188 C 20.417969 19.386719 19.386719 20.417969 18.117188 20.417969 L 3.882812 20.417969 C 2.613281 20.417969 1.582031 19.386719 1.582031 18.117188 L 1.582031 3.882812 C 1.582031 2.613281 2.613281 1.582031 3.882812 1.582031 Z M 3.882812 1.582031 "/>
</clipPath>
<clipPath id="clip85">
  <path d="M 18 8 L 21 8 L 21 11 L 18 11 Z M 18 8 "/>
</clipPath>
<clipPath id="clip86">
  <path d="M 3.882812 1.582031 L 18.117188 1.582031 C 19.386719 1.582031 20.417969 2.613281 20.417969 3.882812 L 20.417969 18.117188 C 20.417969 19.386719 19.386719 20.417969 18.117188 20.417969 L 3.882812 20.417969 C 2.613281 20.417969 1.582031 19.386719 1.582031 18.117188 L 1.582031 3.882812 C 1.582031 2.613281 2.613281 1.582031 3.882812 1.582031 Z M 3.882812 1.582031 "/>
</clipPath>
<clipPath id="clip87">
  <path d="M 1 6 L 4 6 L 4 9 L 1 9 Z M 1 6 "/>
</clipPath>
<clipPath id="clip88">
  <path d="M 3.882812 1.582031 L 18.117188 1.582031 C 19.386719 1.582031 20.417969 2.613281 20.417969 3.882812 L 20.417969 18.117188 C 20.417969 19.386719 19.386719 20.417969 18.117188 20.417969 L 3.882812 20.417969 C 2.613281 20.417969 1.582031 19.386719 1.582031 18.117188 L 1.582031 3.882812 C 1.582031 2.613281 2.613281 1.582031 3.882812 1.582031 Z M 3.882812 1.582031 "/>
</clipPath>
<clipPath id="clip89">
  <path d="M 3 6 L 7 6 L 7 9 L 3 9 Z M 3 6 "/>
</clipPath>
<clipPath id="clip90">
  <path d="M 3.882812 1.582031 L 18.117188 1.582031 C 19.386719 1.582031 20.417969 2.613281 20.417969 3.882812 L 20.417969 18.117188 C 20.417969 19.386719 19.386719 20.417969 18.117188 20.417969 L 3.882812 20.417969 C 2.613281 20.417969 1.582031 19.386719 1.582031 18.117188 L 1.582031 3.882812 C 1.582031 2.613281 2.613281 1.582031 3.882812 1.582031 Z M 3.882812 1.582031 "/>
</clipPath>
<clipPath id="clip91">
  <path d="M 6 6 L 9 6 L 9 9 L 6 9 Z M 6 6 "/>
</clipPath>
<clipPath id="clip92">
  <path d="M 3.882812 1.582031 L 18.117188 1.582031 C 19.386719 1.582031 20.417969 2.613281 20.417969 3.882812 L 20.417969 18.117188 C 20.417969 19.386719 19.386719 20.417969 18.117188 20.417969 L 3.882812 20.417969 C 2.613281 20.417969 1.582031 19.386719 1.582031 18.117188 L 1.582031 3.882812 C 1.582031 2.613281 2.613281 1.582031 3.882812 1.582031 Z M 3.882812 1.582031 "/>
</clipPath>
<clipPath id="clip93">
  <path d="M 8 6 L 11 6 L 11 9 L 8 9 Z M 8 6 "/>
</clipPath>
<clipPath id="clip94">
  <path d="M 3.882812 1.582031 L 18.117188 1.582031 C 19.386719 1.582031 20.417969 2.613281 20.417969 3.882812 L 20.417969 18.117188 C 20.417969 19.386719 19.386719 20.417969 18.117188 20.417969 L 3.882812 20.417969 C 2.613281 20.417969 1.582031 19.386719 1.582031 18.117188 L 1.582031 3.882812 C 1.582031 2.613281 2.613281 1.582031 3.882812 1.582031 Z M 3.882812 1.582031 "/>
</clipPath>
<clipPath id="clip95">
  <path d="M 11 6 L 14 6 L 14 9 L 11 9 Z M 11 6 "/>
</clipPath>
<clipPath id="clip96">
  <path d="M 3.882812 1.582031 L 18.117188 1.582031 C 19.386719 1.582031 20.417969 2.613281 20.417969 3.882812 L 20.417969 18.117188 C 20.417969 19.386719 19.386719 20.417969 18.117188 20.417969 L 3.882812 20.417969 C 2.613281 20.417969 1.582031 19.386719 1.582031 18.117188 L 1.582031 3.882812 C 1.582031 2.613281 2.613281 1.582031 3.882812 1.582031 Z M 3.882812 1.582031 "/>
</clipPath>
<clipPath id="clip97">
  <path d="M 13 6 L 16 6 L 16 9 L 13 9 Z M 13 6 "/>
</clipPath>
<clipPath id="clip98">
  <path d="M 3.882812 1.582031 L 18.117188 1.582031 C 19.386719 1.582031 20.417969 2.613281 20.417969 3.882812 L 20.417969 18.117188 C 20.417969 19.386719 19.386719 20.417969 18.117188 20.417969 L 3.882812 20.417969 C 2.613281 20.417969 1.582031 19.386719 1.582031 18.117188 L 1.582031 3.882812 C 1.582031 2.613281 2.613281 1.582031 3.882812 1.582031 Z M 3.882812 1.582031 "/>
</clipPath>
<clipPath id="clip99">
  <path d="M 15 6 L 19 6 L 19 9 L 15 9 Z M 15 6 "/>
</clipPath>
<clipPath id="clip100">
  <path d="M 3.882812 1.582031 L 18.117188 1.582031 C 19.386719 1.582031 20.417969 2.613281 20.417969 3.882812 L 20.417969 18.117188 C 20.417969 19.386719 19.386719 20.417969 18.117188 20.417969 L 3.882812 20.417969 C 2.613281 20.417969 1.582031 19.386719 1.582031 18.117188 L 1.582031 3.882812 C 1.582031 2.613281 2.613281 1.582031 3.882812 1.582031 Z M 3.882812 1.582031 "/>
</clipPath>
<clipPath id="clip101">
  <path d="M 18 6 L 21 6 L 21 9 L 18 9 Z M 18 6 "/>
</clipPath>
<clipPath id="clip102">
  <path d="M 3.882812 1.582031 L 18.117188 1.582031 C 19.386719 1.582031 20.417969 2.613281 20.417969 3.882812 L 20.417969 18.117188 C 20.417969 19.386719 19.386719 20.417969 18.117188 20.417969 L 3.882812 20.417969 C 2.613281 20.417969 1.582031 19.386719 1.582031 18.117188 L 1.582031 3.882812 C 1.582031 2.613281 2.613281 1.582031 3.882812 1.582031 Z M 3.882812 1.582031 "/>
</clipPath>
<clipPath id="clip103">
  <path d="M 1 3 L 4 3 L 4 7 L 1 7 Z M 1 3 "/>
</clipPath>
<clipPath id="clip104">
  <path d="M 3.882812 1.582031 L 18.117188 1.582031 C 19.386719 1.582031 20.417969 2.613281 20.417969 3.882812 L 20.417969 18.117188 C 20.417969 19.386719 19.386719 20.417969 18.117188 20.417969 L 3.882812 20.417969 C 2.613281 20.417969 1.582031 19.386719 1.582031 18.117188 L 1.582031 3.882812 C 1.582031 2.613281 2.613281 1.582031 3.882812 1.582031 Z M 3.882812 1.582031 "/>
</clipPath>
<clipPath id="clip105">
  <path d="M 3 3 L 7 3 L 7 7 L 3 7 Z M 3 3 "/>
</clipPath>
<clipPath id="clip106">
  <path d="M 3.882812 1.582031 L 18.117188 1.582031 C 19.386719 1.582031 20.417969 2.613281 20.417969 3.882812 L 20.417969 18.117188 C 20.417969 19.386719 19.386719 20.417969 18.117188 20.417969 L 3.882812 20.417969 C 2.613281 20.417969 1.582031 19.386719 1.582031 18.117188 L 1.582031 3.882812 C 1.582031 2.613281 2.613281 1.582031 3.882812 1.582031 Z M 3.882812 1.582031 "/>
</clipPath>
<clipPath id="clip107">
  <path d="M 6 3 L 9 3 L 9 7 L 6 7 Z M 6 3 "/>
</clipPath>
<clipPath id="clip108">
  <path d="M 3.882812 1.582031 L 18.117188 1.582031 C 19.386719 1.582031 20.417969 2.613281 20.417969 3.882812 L 20.417969 18.117188 C 20.417969 19.386719 19.386719 20.417969 18.117188 20.417969 L 3.882812 20.417969 C 2.613281 20.417969 1.582031 19.386719 1.582031 18.117188 L 1.582031 3.882812 C 1.582031 2.613281 2.613281 1.582031 3.882812 1.582031 Z M 3.882812 1.582031 "/>
</clipPath>
<clipPath id="clip109">
  <path d="M 8 3 L 11 3 L 11 7 L 8 7 Z M 8 3 "/>
</clipPath>
<clipPath id="clip110">
  <path d="M 3.882812 1.582031 L 18.117188 1.582031 C 19.386719 1.582031 20.417969 2.613281 20.417969 3.882812 L 20.417969 18.117188 C 20.417969 19.386719 19.386719 20.417969 18.117188 20.417969 L 3.882812 20.417969 C 2.613281 20.417969 1.582031 19.386719 1.582031 18.117188 L 1.582031 3.882812 C 1.582031 2.613281 2.613281 1.582031 3.882812 1.582031 Z M 3.882812 1.582031 "/>
</clipPath>
<clipPath id="clip111">
  <path d="M 11 3 L 14 3 L 14 7 L 11 7 Z M 11 3 "/>
</clipPath>
<clipPath id="clip112">
  <path d="M 3.882812 1.582031 L 18.117188 1.582031 C 19.386719 1.582031 20.417969 2.613281 20.417969 3.882812 L 20.417969 18.117188 C 20.417969 19.386719 19.386719 20.417969 18.117188 20.417969 L 3.882812 20.417969 C 2.613281 20.417969 1.582031 19.386719 1.582031 18.117188 L 1.582031 3.882812 C 1.582031 2.613281 2.613281 1.582031 3.882812 1.582031 Z M 3.882812 1.582031 "/>
</clipPath>
<clipPath id="clip113">
  <path d="M 13 3 L 16 3 L 16 7 L 13 7 Z M 13 3 "/>
</clipPath>
<clipPath id="clip114">
  <path d="M 3.882812 1.582031 L 18.117188 1.582031 C 19.386719 1.582031 20.417969 2.613281 20.417969 3.882812 L 20.417969 18.117188 C 20.417969 19.386719 19.386719 20.417969 18.117188 20.417969 L 3.882812 20.417969 C 2.613281 20.417969 1.582031 19.386719 1.582031 18.117188 L 1.582031 3.882812 C 1.582031 2.613281 2.613281 1.582031 3.882812 1.582031 Z M 3.882812 1.582031 "/>
</clipPath>
<clipPath id="clip115">
  <path d="M 15 3 L 19 3 L 19 7 L 15 7 Z M 15 3 "/>
</clipPath>
<clipPath id="clip116">
  <path d="M 3.882812 1.582031 L 18.117188 1.582031 C 19.386719 1.582031 20.417969 2.613281 20.417969 3.882812 L 20.417969 18.117188 C 20.417969 19.386719 19.386719 20.417969 18.117188 20.417969 L 3.882812 20.417969 C 2.613281 20.417969 1.582031 19.386719 1.582031 18.117188 L 1.582031 3.882812 C 1.582031 2.613281 2.613281 1.582031 3.882812 1.582031 Z M 3.882812 1.582031 "/>
</clipPath>
<clipPath id="clip117">
  <path d="M 18 3 L 21 3 L 21 7 L 18 7 Z M 18 3 "/>
</clipPath>
<clipPath id="clip118">
  <path d="M 3.882812 1.582031 L 18.117188 1.582031 C 19.386719 1.582031 20.417969 2.613281 20.417969 3.882812 L 20.417969 18.117188 C 20.417969 19.386719 19.386719 20.417969 18.117188 20.417969 L 3.882812 20.417969 C 2.613281 20.417969 1.582031 19.386719 1.582031 18.117188 L 1.582031 3.882812 C 1.582031 2.613281 2.613281 1.582031 3.882812 1.582031 Z M 3.882812 1.582031 "/>
</clipPath>
<clipPath id="clip119">
  <path d="M 1 1 L 4 1 L 4 4 L 1 4 Z M 1 1 "/>
</clipPath>
<clipPath id="clip120">
  <path d="M 3.882812 1.582031 L 18.117188 1.582031 C 19.386719 1.582031 20.417969 2.613281 20.417969 3.882812 L 20.417969 18.117188 C 20.417969 19.386719 19.386719 20.417969 18.117188 20.417969 L 3.882812 20.417969 C 2.613281 20.417969 1.582031 19.386719 1.582031 18.117188 L 1.582031 3.882812 C 1.582031 2.613281 2.613281 1.582031 3.882812 1.582031 Z M 3.882812 1.582031 "/>
</clipPath>
<clipPath id="clip121">
  <path d="M 3 1 L 7 1 L 7 4 L 3 4 Z M 3 1 "/>
</clipPath>
<clipPath id="clip122">
  <path d="M 3.882812 1.582031 L 18.117188 1.582031 C 19.386719 1.582031 20.417969 2.613281 20.417969 3.882812 L 20.417969 18.117188 C 20.417969 19.386719 19.386719 20.417969 18.117188 20.417969 L 3.882812 20.417969 C 2.613281 20.417969 1.582031 19.386719 1.582031 18.117188 L 1.582031 3.882812 C 1.582031 2.613281 2.613281 1.582031 3.882812 1.582031 Z M 3.882812 1.582031 "/>
</clipPath>
<clipPath id="clip123">
  <path d="M 6 1 L 9 1 L 9 4 L 6 4 Z M 6 1 "/>
</clipPath>
<clipPath id="clip124">
  <path d="M 3.882812 1.582031 L 18.117188 1.582031 C 19.386719 1.582031 20.417969 2.613281 20.417969 3.882812 L 20.417969 18.117188 C 20.417969 19.386719 19.386719 20.417969 18.117188 20.417969 L 3.882812 20.417969 C 2.613281 20.417969 1.582031 19.386719 1.582031 18.117188 L 1.582031 3.882812 C 1.582031 2.613281 2.613281 1.582031 3.882812 1.582031 Z M 3.882812 1.582031 "/>
</clipPath>
<clipPath id="clip125">
  <path d="M 8 1 L 11 1 L 11 4 L 8 4 Z M 8 1 "/>
</clipPath>
<clipPath id="clip126">
  <path d="M 3.882812 1.582031 L 18.117188 1.582031 C 19.386719 1.582031 20.417969 2.613281 20.417969 3.882812 L 20.417969 18.117188 C 20.417969 19.386719 19.386719 20.417969 18.117188 20.417969 L 3.882812 20.417969 C 2.613281 20.417969 1.582031 19.386719 1.582031 18.117188 L 1.582031 3.882812 C 1.582031 2.613281 2.613281 1.582031 3.882812 1.582031 Z M 3.882812 1.582031 "/>
</clipPath>
<clipPath id="clip127">
  <path d="M 11 1 L 14 1 L 14 4 L 11 4 Z M 11 1 "/>
</clipPath>
<clipPath id="clip128">
  <path d="M 3.882812 1.582031 L 18.117188 1.582031 C 19.386719 1.582031 20.417969 2.613281 20.417969 3.882812 L 20.417969 18.117188 C 20.417969 19.386719 19.386719 20.417969 18.117188 20.417969 L 3.882812 20.417969 C 2.613281 20.417969 1.582031 19.386719 1.582031 18.117188 L 1.582031 3.882812 C 1.582031 2.613281 2.613281 1.582031 3.882812 1.582031 Z M 3.882812 1.582031 "/>
</clipPath>
<clipPath id="clip129">
  <path d="M 13 1 L 16 1 L 16 4 L 13 4 Z M 13 1 "/>
</clipPath>
<clipPath id="clip130">
  <path d="M 3.882812 1.582031 L 18.117188 1.582031 C 19.386719 1.582031 20.417969 2.613281 20.417969 3.882812 L 20.417969 18.117188 C 20.417969 19.386719 19.386719 20.417969 18.117188 20.417969 L 3.882812 20.417969 C 2.613281 20.417969 1.582031 19.386719 1.582031 18.117188 L 1.582031 3.882812 C 1.582031 2.613281 2.613281 1.582031 3.882812 1.582031 Z M 3.882812 1.582031 "/>
</clipPath>
<clipPath id="clip131">
  <path d="M 15 1 L 19 1 L 19 4 L 15 4 Z M 15 1 "/>
</clipPath>
<clipPath id="clip132">
  <path d="M 3.882812 1.582031 L 18.117188 1.582031 C 19.386719 1.582031 20.417969 2.613281 20.417969 3.882812 L 20.417969 18.117188 C 20.417969 19.386719 19.386719 20.417969 18.117188 20.417969 L 3.882812 20.417969 C 2.613281 20.417969 1.582031 19.386719 1.582031 18.117188 L 1.582031 3.882812 C 1.582031 2.613281 2.613281 1.582031 3.882812 1.582031 Z M 3.882812 1.582031 "/>
</clipPath>
<clipPath id="clip133">
  <path d="M 18 1 L 21 1 L 21 4 L 18 4 Z M 18 1 "/>
</clipPath>
<clipPath id="clip134">
  <path d="M 3.882812 1.582031 L 18.117188 1.582031 C 19.386719 1.582031 20.417969 2.613281 20.417969 3.882812 L 20.417969 18.117188 C 20.417969 19.386719 19.386719 20.417969 18.117188 20.417969 L 3.882812 20.417969 C 2.613281 20.417969 1.582031 19.386719 1.582031 18.117188 L 1.582031 3.882812 C 1.582031 2.613281 2.613281 1.582031 3.882812 1.582031 Z M 3.882812 1.582031 "/>
</clipPath>
<clipPath id="clip135">
  <path d="M 1 6 L 21 6 L 21 21 L 1 21 Z M 1 6 "/>
</clipPath>
<clipPath id="clip136">
  <path d="M 3.882812 1.582031 L 18.117188 1.582031 C 19.386719 1.582031 20.417969 2.613281 20.417969 3.882812 L 20.417969 18.117188 C 20.417969 19.386719 19.386719 20.417969 18.117188 20.417969 L 3.882812 20.417969 C 2.613281 20.417969 1.582031 19.386719 1.582031 18.117188 L 1.582031 3.882812 C 1.582031 2.613281 2.613281 1.582031 3.882812 1.582031 Z M 3.882812 1.582031 "/>
</clipPath>
</defs>
<g id="surface1">
<path style="fill-rule:nonzero;fill:rgb(40.784314%,27.843137%,15.686275%);fill-opacity:1;stroke-width:28.071352;stroke-linecap:butt;stroke-linejoin:miter;stroke:rgb(40.784314%,27.843137%,15.686275%);stroke-opacity:1;stroke-miterlimit:4;" d="M 82.181818 26.090909 L 429.818182 26.090909 C 460.818182 26.090909 485.909091 51.181818 485.909091 82.181818 L 485.909091 429.818182 C 485.909091 460.818182 460.818182 485.909091 429.818182 485.909091 L 82.181818 485.909091 C 51.181818 485.909091 26.090909 460.818182 26.090909 429.818182 L 26.090909 82.181818 C 26.090909 51.181818 51.181818 26.090909 82.181818 26.090909 Z M 82.181818 26.090909 " transform="matrix(0.0429688,0,0,0.0429688,0,0)"/>
<g clip-path="url(#clip1)" clip-rule="nonzero">
<g clip-path="url(#clip2)" clip-rule="nonzero">
<path style=" stroke:none;fill-rule:nonzero;fill:rgb(45.882353%,74.117647%,45.098039%);fill-opacity:1;" d="M 1.171875 1.046875 L 20.828125 1.046875 L 20.828125 20.953125 L 1.171875 20.953125 Z M 1.171875 1.046875 "/>
</g>
</g>
<g clip-path="url(#clip3)" clip-rule="nonzero">
<g clip-path="url(#clip4)" clip-rule="nonzero">
<path style=" stroke:none;fill-rule:nonzero;fill:rgb(34.901961%,69.019608%,34.117647%);fill-opacity:1;" d="M 1.171875 11 L 11 11 L 11 20.953125 L 1.171875 20.953125 Z M 1.171875 11 "/>
</g>
</g>
<g clip-path="url(#clip5)" clip-rule="nonzero">
<g clip-path="url(#clip6)" clip-rule="nonzero">
<path style=" stroke:none;fill-rule:nonzero;fill:rgb(56.078431%,38.039216%,20%);fill-opacity:1;" d="M 1.171875 18.464844 L 3.628906 18.464844 L 3.628906 20.953125 L 1.171875 20.953125 Z M 1.171875 18.464844 "/>
</g>
</g>
<g clip-path="url(#clip7)" clip-rule="nonzero">
<g clip-path="url(#clip8)" clip-rule="nonzero">
<path style=" stroke:none;fill-rule:nonzero;fill:rgb(63.137255%,43.137255%,22.745098%);fill-opacity:1;" d="M 3.628906 18.464844 L 6.085938 18.464844 L 6.085938 20.953125 L 3.628906 20.953125 Z M 3.628906 18.464844 "/>
</g>
</g>
<g clip-path="url(#clip9)" clip-rule="nonzero">
<g clip-path="url(#clip10)" clip-rule="nonzero">
<path style=" stroke:none;fill-rule:nonzero;fill:rgb(52.156863%,36.078431%,18.823529%);fill-opacity:1;" d="M 6.085938 18.464844 L 8.542969 18.464844 L 8.542969 20.953125 L 6.085938 20.953125 Z M 6.085938 18.464844 "/>
</g>
</g>
<g clip-path="url(#clip11)" clip-rule="nonzero">
<g clip-path="url(#clip12)" clip-rule="nonzero">
<path style=" stroke:none;fill-rule:nonzero;fill:rgb(70.980392%,47.058824%,21.960784%);fill-opacity:1;" d="M 8.542969 18.464844 L 11 18.464844 L 11 20.953125 L 8.542969 20.953125 Z M 8.542969 18.464844 "/>
</g>
</g>
<g clip-path="url(#clip13)" clip-rule="nonzero">
<g clip-path="url(#clip14)" clip-rule="nonzero">
<path style=" stroke:none;fill-rule:nonzero;fill:rgb(58.039216%,40%,20.784314%);fill-opacity:1;" d="M 11 18.464844 L 13.457031 18.464844 L 13.457031 20.953125 L 11 20.953125 Z M 11 18.464844 "/>
</g>
</g>
<g clip-path="url(#clip15)" clip-rule="nonzero">
<g clip-path="url(#clip16)" clip-rule="nonzero">
<path style=" stroke:none;fill-rule:nonzero;fill:rgb(63.137255%,43.137255%,22.745098%);fill-opacity:1;" d="M 13.457031 18.464844 L 15.914062 18.464844 L 15.914062 20.953125 L 13.457031 20.953125 Z M 13.457031 18.464844 "/>
</g>
</g>
<g clip-path="url(#clip17)" clip-rule="nonzero">
<g clip-path="url(#clip18)" clip-rule="nonzero">
<path style=" stroke:none;fill-rule:nonzero;fill:rgb(58.039216%,40%,20.784314%);fill-opacity:1;" d="M 15.914062 18.464844 L 18.371094 18.464844 L 18.371094 20.953125 L 15.914062 20.953125 Z M 15.914062 18.464844 "/>
</g>
</g>
<g clip-path="url(#clip19)" clip-rule="nonzero">
<g clip-path="url(#clip20)" clip-rule="nonzero">
<path style=" stroke:none;fill-rule:nonzero;fill:rgb(63.137255%,43.137255%,22.745098%);fill-opacity:1;" d="M 18.371094 18.464844 L 20.828125 18.464844 L 20.828125 20.953125 L 18.371094 20.953125 Z M 18.371094 18.464844 "/>
</g>
</g>
<g clip-path="url(#clip21)" clip-rule="nonzero">
<g clip-path="url(#clip22)" clip-rule="nonzero">
<path style=" stroke:none;fill-rule:nonzero;fill:rgb(63.137255%,43.137255%,22.745098%);fill-opacity:1;" d="M 1.171875 15.976562 L 3.628906 15.976562 L 3.628906 18.464844 L 1.171875 18.464844 Z M 1.171875 15.976562 "/>
</g>
</g>
<g clip-path="url(#clip23)" clip-rule="nonzero">
<g clip-path="url(#clip24)" clip-rule="nonzero">
<path style=" stroke:none;fill-rule:nonzero;fill:rgb(58.039216%,43.137255%,16.862745%);fill-opacity:1;" d="M 3.628906 15.976562 L 6.085938 15.976562 L 6.085938 18.464844 L 3.628906 18.464844 Z M 3.628906 15.976562 "/>
</g>
</g>
<g clip-path="url(#clip25)" clip-rule="nonzero">
<g clip-path="url(#clip26)" clip-rule="nonzero">
<path style=" stroke:none;fill-rule:nonzero;fill:rgb(56.078431%,38.039216%,20%);fill-opacity:1;" d="M 6.085938 15.976562 L 8.542969 15.976562 L 8.542969 18.464844 L 6.085938 18.464844 Z M 6.085938 15.976562 "/>
</g>
</g>
<g clip-path="url(#clip27)" clip-rule="nonzero">
<g clip-path="url(#clip28)" clip-rule="nonzero">
<path style=" stroke:none;fill-rule:nonzero;fill:rgb(65.882353%,43.137255%,20%);fill-opacity:1;" d="M 8.542969 15.976562 L 11 15.976562 L 11 18.464844 L 8.542969 18.464844 Z M 8.542969 15.976562 "/>
</g>
</g>
<g clip-path="url(#clip29)" clip-rule="nonzero">
<g clip-path="url(#clip30)" clip-rule="nonzero">
<path style=" stroke:none;fill-rule:nonzero;fill:rgb(58.039216%,40%,20.784314%);fill-opacity:1;" d="M 11 15.976562 L 13.457031 15.976562 L 13.457031 18.464844 L 11 18.464844 Z M 11 15.976562 "/>
</g>
</g>
<g clip-path="url(#clip31)" clip-rule="nonzero">
<g clip-path="url(#clip32)" clip-rule="nonzero">
<path style=" stroke:none;fill-rule:nonzero;fill:rgb(56.078431%,38.039216%,20%);fill-opacity:1;" d="M 13.457031 15.976562 L 15.914062 15.976562 L 15.914062 18.464844 L 13.457031 18.464844 Z M 13.457031 15.976562 "/>
</g>
</g>
<g clip-path="url(#clip33)" clip-rule="nonzero">
<g clip-path="url(#clip34)" clip-rule="nonzero">
<path style=" stroke:none;fill-rule:nonzero;fill:rgb(56.078431%,38.039216%,20%);fill-opacity:1;" d="M 15.914062 15.976562 L 18.371094 15.976562 L 18.371094 18.464844 L 15.914062 18.464844 Z M 15.914062 15.976562 "/>
</g>
</g>
<g clip-path="url(#clip35)" clip-rule="nonzero">
<g clip-path="url(#clip36)" clip-rule="nonzero">
<path style=" stroke:none;fill-rule:nonzero;fill:rgb(67.058824%,45.882353%,24.705882%);fill-opacity:1;" d="M 18.371094 15.976562 L 20.828125 15.976562 L 20.828125 18.464844 L 18.371094 18.464844 Z M 18.371094 15.976562 "/>
</g>
</g>
<g clip-path="url(#clip37)" clip-rule="nonzero">
<g clip-path="url(#clip38)" clip-rule="nonzero">
<path style=" stroke:none;fill-rule:nonzero;fill:rgb(63.137255%,40.784314%,18.039216%);fill-opacity:1;" d="M 1.171875 13.488281 L 3.628906 13.488281 L 3.628906 15.976562 L 1.171875 15.976562 Z M 1.171875 13.488281 "/>
</g>
</g>
<g clip-path="url(#clip39)" clip-rule="nonzero">
<g clip-path="url(#clip40)" clip-rule="nonzero">
<path style=" stroke:none;fill-rule:nonzero;fill:rgb(63.137255%,43.137255%,22.745098%);fill-opacity:1;" d="M 3.628906 13.488281 L 6.085938 13.488281 L 6.085938 15.976562 L 3.628906 15.976562 Z M 3.628906 13.488281 "/>
</g>
</g>
<g clip-path="url(#clip41)" clip-rule="nonzero">
<g clip-path="url(#clip42)" clip-rule="nonzero">
<path style=" stroke:none;fill-rule:nonzero;fill:rgb(47.843137%,30.980392%,18.039216%);fill-opacity:1;" d="M 6.085938 13.488281 L 8.542969 13.488281 L 8.542969 15.976562 L 6.085938 15.976562 Z M 6.085938 13.488281 "/>
</g>
</g>
<g clip-path="url(#clip43)" clip-rule="nonzero">
<g clip-path="url(#clip44)" clip-rule="nonzero">
<path style=" stroke:none;fill-rule:nonzero;fill:rgb(63.137255%,43.137255%,22.745098%);fill-opacity:1;" d="M 8.542969 13.488281 L 11 13.488281 L 11 15.976562 L 8.542969 15.976562 Z M 8.542969 13.488281 "/>
</g>
</g>
<g clip-path="url(#clip45)" clip-rule="nonzero">
<g clip-path="url(#clip46)" clip-rule="nonzero">
<path style=" stroke:none;fill-rule:nonzero;fill:rgb(72.941176%,50.980392%,29.019608%);fill-opacity:1;" d="M 11 13.488281 L 13.457031 13.488281 L 13.457031 15.976562 L 11 15.976562 Z M 11 13.488281 "/>
</g>
</g>
<g clip-path="url(#clip47)" clip-rule="nonzero">
<g clip-path="url(#clip48)" clip-rule="nonzero">
<path style=" stroke:none;fill-rule:nonzero;fill:rgb(63.137255%,43.137255%,22.745098%);fill-opacity:1;" d="M 13.457031 13.488281 L 15.914062 13.488281 L 15.914062 15.976562 L 13.457031 15.976562 Z M 13.457031 13.488281 "/>
</g>
</g>
<g clip-path="url(#clip49)" clip-rule="nonzero">
<g clip-path="url(#clip50)" clip-rule="nonzero">
<path style=" stroke:none;fill-rule:nonzero;fill:rgb(52.156863%,40.784314%,22.745098%);fill-opacity:1;" d="M 15.914062 13.488281 L 18.371094 13.488281 L 18.371094 15.976562 L 15.914062 15.976562 Z M 15.914062 13.488281 "/>
</g>
</g>
<g clip-path="url(#clip51)" clip-rule="nonzero">
<g clip-path="url(#clip52)" clip-rule="nonzero">
<path style=" stroke:none;fill-rule:nonzero;fill:rgb(63.137255%,43.137255%,22.745098%);fill-opacity:1;" d="M 18.371094 13.488281 L 20.828125 13.488281 L 20.828125 15.976562 L 18.371094 15.976562 Z M 18.371094 13.488281 "/>
</g>
</g>
<g clip-path="url(#clip53)" clip-rule="nonzero">
<g clip-path="url(#clip54)" clip-rule="nonzero">
<path style=" stroke:none;fill-rule:nonzero;fill:rgb(63.137255%,43.137255%,22.745098%);fill-opacity:1;" d="M 1.171875 11 L 3.628906 11 L 3.628906 13.488281 L 1.171875 13.488281 Z M 1.171875 11 "/>
</g>
</g>
<g clip-path="url(#clip55)" clip-rule="nonzero">
<g clip-path="url(#clip56)" clip-rule="nonzero">
<path style=" stroke:none;fill-rule:nonzero;fill:rgb(58.039216%,40%,20.784314%);fill-opacity:1;" d="M 3.628906 11 L 6.085938 11 L 6.085938 13.488281 L 3.628906 13.488281 Z M 3.628906 11 "/>
</g>
</g>
<g clip-path="url(#clip57)" clip-rule="nonzero">
<g clip-path="url(#clip58)" clip-rule="nonzero">
<path style=" stroke:none;fill-rule:nonzero;fill:rgb(63.137255%,40.784314%,18.039216%);fill-opacity:1;" d="M 6.085938 11 L 8.542969 11 L 8.542969 13.488281 L 6.085938 13.488281 Z M 6.085938 11 "/>
</g>
</g>
<g clip-path="url(#clip59)" clip-rule="nonzero">
<g clip-path="url(#clip60)" clip-rule="nonzero">
<path style=" stroke:none;fill-rule:nonzero;fill:rgb(67.058824%,43.137255%,20%);fill-opacity:1;" d="M 8.542969 11 L 11 11 L 11 13.488281 L 8.542969 13.488281 Z M 8.542969 11 "/>
</g>
</g>
<g clip-path="url(#clip61)" clip-rule="nonzero">
<g clip-path="url(#clip62)" clip-rule="nonzero">
<path style=" stroke:none;fill-rule:nonzero;fill:rgb(56.078431%,38.039216%,20%);fill-opacity:1;" d="M 11 11 L 13.457031 11 L 13.457031 13.488281 L 11 13.488281 Z M 11 11 "/>
</g>
</g>
<g clip-path="url(#clip63)" clip-rule="nonzero">
<g clip-path="url(#clip64)" clip-rule="nonzero">
<path style=" stroke:none;fill-rule:nonzero;fill:rgb(50.980392%,32.941176%,18.823529%);fill-opacity:1;" d="M 13.457031 11 L 15.914062 11 L 15.914062 13.488281 L 13.457031 13.488281 Z M 13.457031 11 "/>
</g>
</g>
<g clip-path="url(#clip65)" clip-rule="nonzero">
<g clip-path="url(#clip66)" clip-rule="nonzero">
<path style=" stroke:none;fill-rule:nonzero;fill:rgb(63.137255%,43.137255%,22.745098%);fill-opacity:1;" d="M 15.914062 11 L 18.371094 11 L 18.371094 13.488281 L 15.914062 13.488281 Z M 15.914062 11 "/>
</g>
</g>
<g clip-path="url(#clip67)" clip-rule="nonzero">
<g clip-path="url(#clip68)" clip-rule="nonzero">
<path style=" stroke:none;fill-rule:nonzero;fill:rgb(67.058824%,45.882353%,24.705882%);fill-opacity:1;" d="M 18.371094 11 L 20.828125 11 L 20.828125 13.488281 L 18.371094 13.488281 Z M 18.371094 11 "/>
</g>
</g>
<g clip-path="url(#clip69)" clip-rule="nonzero">
<g clip-path="url(#clip70)" clip-rule="nonzero">
<path style=" stroke:none;fill-rule:nonzero;fill:rgb(34.901961%,69.019608%,34.117647%);fill-opacity:1;" d="M 1.171875 1.046875 L 11 1.046875 L 11 11 L 1.171875 11 Z M 1.171875 1.046875 "/>
</g>
</g>
<g clip-path="url(#clip71)" clip-rule="nonzero">
<g clip-path="url(#clip72)" clip-rule="nonzero">
<path style=" stroke:none;fill-rule:nonzero;fill:rgb(23.921569%,63.137255%,22.745098%);fill-opacity:1;" d="M 1.171875 8.511719 L 3.628906 8.511719 L 3.628906 11 L 1.171875 11 Z M 1.171875 8.511719 "/>
</g>
</g>
<g clip-path="url(#clip73)" clip-rule="nonzero">
<g clip-path="url(#clip74)" clip-rule="nonzero">
<path style=" stroke:none;fill-rule:nonzero;fill:rgb(40%,27.058824%,13.72549%);fill-opacity:1;" d="M 3.628906 8.511719 L 6.085938 8.511719 L 6.085938 11 L 3.628906 11 Z M 3.628906 8.511719 "/>
</g>
</g>
<g clip-path="url(#clip75)" clip-rule="nonzero">
<g clip-path="url(#clip76)" clip-rule="nonzero">
<path style=" stroke:none;fill-rule:nonzero;fill:rgb(63.137255%,40.784314%,18.039216%);fill-opacity:1;" d="M 6.085938 8.511719 L 8.542969 8.511719 L 8.542969 11 L 6.085938 11 Z M 6.085938 8.511719 "/>
</g>
</g>
<g clip-path="url(#clip77)" clip-rule="nonzero">
<g clip-path="url(#clip78)" clip-rule="nonzero">
<path style=" stroke:none;fill-rule:nonzero;fill:rgb(59.215686%,43.137255%,27.058824%);fill-opacity:1;" d="M 8.542969 8.511719 L 11 8.511719 L 11 11 L 8.542969 11 Z M 8.542969 8.511719 "/>
</g>
</g>
<g clip-path="url(#clip79)" clip-rule="nonzero">
<g clip-path="url(#clip80)" clip-rule="nonzero">
<path style=" stroke:none;fill-rule:nonzero;fill:rgb(63.137255%,40.784314%,18.039216%);fill-opacity:1;" d="M 11 8.511719 L 13.457031 8.511719 L 13.457031 11 L 11 11 Z M 11 8.511719 "/>
</g>
</g>
<g clip-path="url(#clip81)" clip-rule="nonzero">
<g clip-path="url(#clip82)" clip-rule="nonzero">
<path style=" stroke:none;fill-rule:nonzero;fill:rgb(22.745098%,50.980392%,21.960784%);fill-opacity:1;" d="M 13.457031 8.511719 L 15.914062 8.511719 L 15.914062 11 L 13.457031 11 Z M 13.457031 8.511719 "/>
</g>
</g>
<g clip-path="url(#clip83)" clip-rule="nonzero">
<g clip-path="url(#clip84)" clip-rule="nonzero">
<path style=" stroke:none;fill-rule:nonzero;fill:rgb(69.019608%,47.058824%,24.705882%);fill-opacity:1;" d="M 15.914062 8.511719 L 18.371094 8.511719 L 18.371094 11 L 15.914062 11 Z M 15.914062 8.511719 "/>
</g>
</g>
<g clip-path="url(#clip85)" clip-rule="nonzero">
<g clip-path="url(#clip86)" clip-rule="nonzero">
<path style=" stroke:none;fill-rule:nonzero;fill:rgb(63.137255%,43.137255%,22.745098%);fill-opacity:1;" d="M 18.371094 8.511719 L 20.828125 8.511719 L 20.828125 11 L 18.371094 11 Z M 18.371094 8.511719 "/>
</g>
</g>
<g clip-path="url(#clip87)" clip-rule="nonzero">
<g clip-path="url(#clip88)" clip-rule="nonzero">
<path style=" stroke:none;fill-rule:nonzero;fill:rgb(29.803922%,72.156863%,29.019608%);fill-opacity:1;" d="M 1.171875 6.023438 L 3.628906 6.023438 L 3.628906 8.511719 L 1.171875 8.511719 Z M 1.171875 6.023438 "/>
</g>
</g>
<g clip-path="url(#clip89)" clip-rule="nonzero">
<g clip-path="url(#clip90)" clip-rule="nonzero">
<path style=" stroke:none;fill-rule:nonzero;fill:rgb(58.039216%,40%,20.784314%);fill-opacity:1;" d="M 3.628906 6.023438 L 6.085938 6.023438 L 6.085938 8.511719 L 3.628906 8.511719 Z M 3.628906 6.023438 "/>
</g>
</g>
<g clip-path="url(#clip91)" clip-rule="nonzero">
<g clip-path="url(#clip92)" clip-rule="nonzero">
<path style=" stroke:none;fill-rule:nonzero;fill:rgb(47.843137%,30.980392%,18.039216%);fill-opacity:1;" d="M 6.085938 6.023438 L 8.542969 6.023438 L 8.542969 8.511719 L 6.085938 8.511719 Z M 6.085938 6.023438 "/>
</g>
</g>
<g clip-path="url(#clip93)" clip-rule="nonzero">
<g clip-path="url(#clip94)" clip-rule="nonzero">
<path style=" stroke:none;fill-rule:nonzero;fill:rgb(30.980392%,65.098039%,36.862745%);fill-opacity:1;" d="M 8.542969 6.023438 L 11 6.023438 L 11 8.511719 L 8.542969 8.511719 Z M 8.542969 6.023438 "/>
</g>
</g>
<g clip-path="url(#clip95)" clip-rule="nonzero">
<g clip-path="url(#clip96)" clip-rule="nonzero">
<path style=" stroke:none;fill-rule:nonzero;fill:rgb(25.882353%,76.078431%,24.705882%);fill-opacity:1;" d="M 11 6.023438 L 13.457031 6.023438 L 13.457031 8.511719 L 11 8.511719 Z M 11 6.023438 "/>
</g>
</g>
<g clip-path="url(#clip97)" clip-rule="nonzero">
<g clip-path="url(#clip98)" clip-rule="nonzero">
<path style=" stroke:none;fill-rule:nonzero;fill:rgb(22.745098%,50.980392%,21.960784%);fill-opacity:1;" d="M 13.457031 6.023438 L 15.914062 6.023438 L 15.914062 8.511719 L 13.457031 8.511719 Z M 13.457031 6.023438 "/>
</g>
</g>
<g clip-path="url(#clip99)" clip-rule="nonzero">
<g clip-path="url(#clip100)" clip-rule="nonzero">
<path style=" stroke:none;fill-rule:nonzero;fill:rgb(60%,47.058824%,21.960784%);fill-opacity:1;" d="M 15.914062 6.023438 L 18.371094 6.023438 L 18.371094 8.511719 L 15.914062 8.511719 Z M 15.914062 6.023438 "/>
</g>
</g>
<g clip-path="url(#clip101)" clip-rule="nonzero">
<g clip-path="url(#clip102)" clip-rule="nonzero">
<path style=" stroke:none;fill-rule:nonzero;fill:rgb(20.784314%,47.843137%,20.784314%);fill-opacity:1;" d="M 18.371094 6.023438 L 20.828125 6.023438 L 20.828125 8.511719 L 18.371094 8.511719 Z M 18.371094 6.023438 "/>
</g>
</g>
<g clip-path="url(#clip103)" clip-rule="nonzero">
<g clip-path="url(#clip104)" clip-rule="nonzero">
<path style=" stroke:none;fill-rule:nonzero;fill:rgb(27.843137%,58.039216%,27.843137%);fill-opacity:1;" d="M 1.171875 3.535156 L 3.628906 3.535156 L 3.628906 6.023438 L 1.171875 6.023438 Z M 1.171875 3.535156 "/>
</g>
</g>
<g clip-path="url(#clip105)" clip-rule="nonzero">
<g clip-path="url(#clip106)" clip-rule="nonzero">
<path style=" stroke:none;fill-rule:nonzero;fill:rgb(27.058824%,65.882353%,25.882353%);fill-opacity:1;" d="M 3.628906 3.535156 L 6.085938 3.535156 L 6.085938 6.023438 L 3.628906 6.023438 Z M 3.628906 3.535156 "/>
</g>
</g>
<g clip-path="url(#clip107)" clip-rule="nonzero">
<g clip-path="url(#clip108)" clip-rule="nonzero">
<path style=" stroke:none;fill-rule:nonzero;fill:rgb(22.745098%,50.980392%,21.960784%);fill-opacity:1;" d="M 6.085938 3.535156 L 8.542969 3.535156 L 8.542969 6.023438 L 6.085938 6.023438 Z M 6.085938 3.535156 "/>
</g>
</g>
<g clip-path="url(#clip109)" clip-rule="nonzero">
<g clip-path="url(#clip110)" clip-rule="nonzero">
<path style=" stroke:none;fill-rule:nonzero;fill:rgb(29.803922%,72.156863%,29.019608%);fill-opacity:1;" d="M 8.542969 3.535156 L 11 3.535156 L 11 6.023438 L 8.542969 6.023438 Z M 8.542969 3.535156 "/>
</g>
</g>
<g clip-path="url(#clip111)" clip-rule="nonzero">
<g clip-path="url(#clip112)" clip-rule="nonzero">
<path style=" stroke:none;fill-rule:nonzero;fill:rgb(27.843137%,58.039216%,27.843137%);fill-opacity:1;" d="M 11 3.535156 L 13.457031 3.535156 L 13.457031 6.023438 L 11 6.023438 Z M 11 3.535156 "/>
</g>
</g>
<g clip-path="url(#clip113)" clip-rule="nonzero">
<g clip-path="url(#clip114)" clip-rule="nonzero">
<path style=" stroke:none;fill-rule:nonzero;fill:rgb(27.058824%,65.882353%,25.882353%);fill-opacity:1;" d="M 13.457031 3.535156 L 15.914062 3.535156 L 15.914062 6.023438 L 13.457031 6.023438 Z M 13.457031 3.535156 "/>
</g>
</g>
<g clip-path="url(#clip115)" clip-rule="nonzero">
<g clip-path="url(#clip116)" clip-rule="nonzero">
<path style=" stroke:none;fill-rule:nonzero;fill:rgb(22.745098%,63.137255%,22.745098%);fill-opacity:1;" d="M 15.914062 3.535156 L 18.371094 3.535156 L 18.371094 6.023438 L 15.914062 6.023438 Z M 15.914062 3.535156 "/>
</g>
</g>
<g clip-path="url(#clip117)" clip-rule="nonzero">
<g clip-path="url(#clip118)" clip-rule="nonzero">
<path style=" stroke:none;fill-rule:nonzero;fill:rgb(27.843137%,58.039216%,27.843137%);fill-opacity:1;" d="M 18.371094 3.535156 L 20.828125 3.535156 L 20.828125 6.023438 L 18.371094 6.023438 Z M 18.371094 3.535156 "/>
</g>
</g>
<g clip-path="url(#clip119)" clip-rule="nonzero">
<g clip-path="url(#clip120)" clip-rule="nonzero">
<path style=" stroke:none;fill-rule:nonzero;fill:rgb(23.921569%,69.019608%,22.745098%);fill-opacity:1;" d="M 1.171875 1.046875 L 3.628906 1.046875 L 3.628906 3.535156 L 1.171875 3.535156 Z M 1.171875 1.046875 "/>
</g>
</g>
<g clip-path="url(#clip121)" clip-rule="nonzero">
<g clip-path="url(#clip122)" clip-rule="nonzero">
<path style=" stroke:none;fill-rule:nonzero;fill:rgb(27.843137%,58.039216%,27.843137%);fill-opacity:1;" d="M 3.628906 1.046875 L 6.085938 1.046875 L 6.085938 3.535156 L 3.628906 3.535156 Z M 3.628906 1.046875 "/>
</g>
</g>
<g clip-path="url(#clip123)" clip-rule="nonzero">
<g clip-path="url(#clip124)" clip-rule="nonzero">
<path style=" stroke:none;fill-rule:nonzero;fill:rgb(31.764706%,54.117647%,31.764706%);fill-opacity:1;" d="M 6.085938 1.046875 L 8.542969 1.046875 L 8.542969 3.535156 L 6.085938 3.535156 Z M 6.085938 1.046875 "/>
</g>
</g>
<g clip-path="url(#clip125)" clip-rule="nonzero">
<g clip-path="url(#clip126)" clip-rule="nonzero">
<path style=" stroke:none;fill-rule:nonzero;fill:rgb(22.745098%,50.980392%,21.960784%);fill-opacity:1;" d="M 8.542969 1.046875 L 11 1.046875 L 11 3.535156 L 8.542969 3.535156 Z M 8.542969 1.046875 "/>
</g>
</g>
<g clip-path="url(#clip127)" clip-rule="nonzero">
<g clip-path="url(#clip128)" clip-rule="nonzero">
<path style=" stroke:none;fill-rule:nonzero;fill:rgb(22.745098%,50.980392%,21.960784%);fill-opacity:1;" d="M 11 1.046875 L 13.457031 1.046875 L 13.457031 3.535156 L 11 3.535156 Z M 11 1.046875 "/>
</g>
</g>
<g clip-path="url(#clip129)" clip-rule="nonzero">
<g clip-path="url(#clip130)" clip-rule="nonzero">
<path style=" stroke:none;fill-rule:nonzero;fill:rgb(27.843137%,58.039216%,27.843137%);fill-opacity:1;" d="M 13.457031 1.046875 L 15.914062 1.046875 L 15.914062 3.535156 L 13.457031 3.535156 Z M 13.457031 1.046875 "/>
</g>
</g>
<g clip-path="url(#clip131)" clip-rule="nonzero">
<g clip-path="url(#clip132)" clip-rule="nonzero">
<path style=" stroke:none;fill-rule:nonzero;fill:rgb(27.058824%,69.019608%,25.882353%);fill-opacity:1;" d="M 15.914062 1.046875 L 18.371094 1.046875 L 18.371094 3.535156 L 15.914062 3.535156 Z M 15.914062 1.046875 "/>
</g>
</g>
<g clip-path="url(#clip133)" clip-rule="nonzero">
<g clip-path="url(#clip134)" clip-rule="nonzero">
<path style=" stroke:none;fill-rule:nonzero;fill:rgb(27.058824%,65.882353%,25.882353%);fill-opacity:1;" d="M 18.371094 1.046875 L 20.828125 1.046875 L 20.828125 3.535156 L 18.371094 3.535156 Z M 18.371094 1.046875 "/>
</g>
</g>
<g clip-path="url(#clip135)" clip-rule="nonzero">
<g clip-path="url(#clip136)" clip-rule="nonzero">
<path style=" stroke:none;fill-rule:nonzero;fill:rgb(61.176471%,41.960784%,24.705882%);fill-opacity:0.756863;" d="M 1.175781 11 L 1.175781 20.953125 L 20.828125 20.953125 L 20.828125 8.511719 L 18.371094 8.507812 L 18.371094 6.023438 L 15.914062 6.023438 L 15.914062 11 L 13.457031 11 L 13.457031 8.507812 L 8.546875 8.511719 L 8.546875 6.015625 L 3.636719 6.019531 L 3.628906 11 Z M 1.175781 11 "/>
</g>
</g>
</g>
</svg>
