
<svg xmlns="http://www.w3.org/2000/svg" xmlns:xlink="http://www.w3.org/1999/xlink" width="22px" height="22px" viewBox="0 0 22 22" version="1.1">
<g id="surface1">
<path style="fill-rule:nonzero;fill:rgb(100%,100%,100%);fill-opacity:1;stroke-width:18.73;stroke-linecap:butt;stroke-linejoin:miter;stroke:rgb(23.921569%,32.941176%,24.705882%);stroke-opacity:1;stroke-miterlimit:4;" d="M 78.636364 31 L 433.363636 31 C 459.636364 31 481 52.363636 481 78.636364 L 481 433.363636 C 481 459.636364 459.636364 481 433.363636 481 L 78.636364 481 C 52.363636 481 31 459.636364 31 433.363636 L 31 78.636364 C 31 52.363636 52.363636 31 78.636364 31 Z M 78.636364 31 " transform="matrix(0.0429688,0,0,0.0429688,0,0)"/>
<path style=" stroke:none;fill-rule:nonzero;fill:rgb(84.313725%,84.313725%,84.313725%);fill-opacity:1;" d="M 5.667969 15.488281 L 6.71875 15.488281 L 6.71875 17.324219 L 5.667969 17.324219 Z M 5.667969 15.488281 "/>
<path style=" stroke:none;fill-rule:nonzero;fill:rgb(84.313725%,84.313725%,84.313725%);fill-opacity:1;" d="M 6.566406 15.484375 L 7.613281 15.484375 L 7.613281 17.320312 L 6.566406 17.320312 Z M 6.566406 15.484375 "/>
<path style=" stroke:none;fill-rule:nonzero;fill:rgb(84.313725%,84.313725%,84.313725%);fill-opacity:1;" d="M 7.28125 15.484375 L 8.332031 15.484375 L 8.332031 17.320312 L 7.28125 17.320312 Z M 7.28125 15.484375 "/>
<path style=" stroke:none;fill-rule:nonzero;fill:rgb(97.254902%,87.058824%,40.784314%);fill-opacity:1;" d="M 5.808594 15.484375 L 6.859375 15.484375 L 6.859375 17.320312 L 5.808594 17.320312 Z M 5.808594 15.484375 "/>
<path style=" stroke:none;fill-rule:nonzero;fill:rgb(97.254902%,87.058824%,40.784314%);fill-opacity:1;" d="M 7.128906 15.484375 L 8.179688 15.484375 L 8.179688 17.320312 L 7.128906 17.320312 Z M 7.128906 15.484375 "/>
<path style=" stroke:none;fill-rule:nonzero;fill:rgb(43.921569%,80%,70.196078%);fill-opacity:1;" d="M 5.023438 7.777344 L 18.777344 7.777344 C 19.234375 7.777344 19.605469 8.148438 19.605469 8.605469 L 19.605469 15.175781 C 19.605469 15.636719 19.234375 16.007812 18.777344 16.007812 L 5.023438 16.007812 C 4.566406 16.007812 4.195312 15.636719 4.195312 15.175781 L 4.195312 8.605469 C 4.195312 8.148438 4.566406 7.777344 5.023438 7.777344 Z M 5.023438 7.777344 "/>
<path style=" stroke:none;fill-rule:nonzero;fill:rgb(84.313725%,84.313725%,84.313725%);fill-opacity:1;" d="M 2.105469 5.433594 L 2.105469 6.148438 L 4.105469 6.148438 L 4.105469 16.007812 L 4.851562 16.007812 L 4.851562 5.4375 L 4.527344 5.4375 L 4.527344 5.433594 Z M 2.105469 5.433594 "/>
<path style=" stroke:none;fill-rule:nonzero;fill:rgb(9.803922%,63.137255%,52.941176%);fill-opacity:1;" d="M 12.878906 10.195312 L 12.878906 9.835938 L 12.207031 9.835938 L 12.207031 8.628906 L 6.042969 8.628906 L 6.042969 9.835938 L 5.367188 9.835938 L 5.367188 10.195312 L 6.042969 10.195312 L 6.042969 11.027344 L 5.367188 11.027344 L 5.367188 11.386719 L 6.042969 11.386719 L 6.042969 12.292969 L 5.367188 12.292969 L 5.367188 12.652344 L 6.042969 12.652344 L 6.042969 13.375 L 5.367188 13.375 L 5.367188 13.734375 L 6.042969 13.734375 L 6.042969 14.792969 L 12.207031 14.792969 L 12.207031 13.734375 L 12.878906 13.734375 L 12.878906 13.375 L 12.207031 13.375 L 12.207031 12.652344 L 12.878906 12.652344 L 12.878906 12.292969 L 12.207031 12.292969 L 12.207031 11.386719 L 12.878906 11.386719 L 12.878906 11.027344 L 12.207031 11.027344 L 12.207031 10.195312 Z M 12.878906 10.195312 "/>
<path style=" stroke:none;fill-rule:nonzero;fill:rgb(9.803922%,63.137255%,52.941176%);fill-opacity:1;" d="M 14.527344 9.589844 L 14.414062 9.59375 C 14.308594 9.597656 14.289062 9.601562 14.234375 9.625 C 14.160156 9.664062 14.078125 9.746094 14.039062 9.820312 L 14.011719 9.882812 L 14.007812 11.796875 C 14.003906 13.175781 14.007812 13.730469 14.015625 13.769531 C 14.039062 13.882812 14.152344 14.003906 14.269531 14.042969 C 14.308594 14.058594 14.355469 14.066406 14.429688 14.066406 L 14.535156 14.066406 L 14.546875 14.03125 C 14.574219 13.972656 14.617188 13.941406 14.679688 13.9375 C 14.746094 13.929688 14.792969 13.960938 14.824219 14.023438 L 14.84375 14.066406 L 17.773438 14.066406 L 17.792969 14.023438 C 17.820312 13.96875 17.859375 13.941406 17.917969 13.9375 C 18 13.929688 18.082031 13.984375 18.082031 14.050781 C 18.082031 14.066406 18.09375 14.066406 18.136719 14.0625 C 18.253906 14.054688 18.386719 13.953125 18.445312 13.835938 L 18.476562 13.777344 L 18.476562 11.847656 C 18.480469 9.949219 18.480469 9.921875 18.460938 9.863281 C 18.410156 9.714844 18.253906 9.589844 18.117188 9.589844 C 18.089844 9.589844 18.082031 9.59375 18.082031 9.609375 C 18.082031 9.636719 18.039062 9.6875 18 9.707031 C 17.964844 9.726562 17.90625 9.726562 17.871094 9.710938 C 17.835938 9.691406 17.792969 9.644531 17.785156 9.613281 L 17.777344 9.589844 L 14.84375 9.59375 L 14.824219 9.636719 C 14.769531 9.753906 14.609375 9.753906 14.550781 9.636719 Z M 14.527344 9.589844 "/>
<path style=" stroke:none;fill-rule:nonzero;fill:rgb(90.196078%,90.196078%,90.196078%);fill-opacity:1;" d="M 15.625 10.601562 L 16.855469 10.601562 C 17.019531 10.601562 17.15625 10.738281 17.15625 10.902344 L 17.15625 11.007812 C 17.15625 11.175781 17.019531 11.308594 16.855469 11.308594 L 15.625 11.308594 C 15.460938 11.308594 15.324219 11.175781 15.324219 11.007812 L 15.324219 10.902344 C 15.324219 10.738281 15.460938 10.601562 15.625 10.601562 Z M 15.625 10.601562 "/>
<path style=" stroke:none;fill-rule:nonzero;fill:rgb(90.196078%,90.196078%,90.196078%);fill-opacity:1;" d="M 15.785156 9.820312 L 15.785156 10.59375 C 15.785156 10.644531 15.75 10.683594 15.699219 10.683594 L 15.671875 10.683594 C 15.625 10.683594 15.585938 10.644531 15.585938 10.59375 L 15.585938 9.820312 C 15.585938 9.773438 15.625 9.734375 15.671875 9.734375 L 15.699219 9.734375 C 15.75 9.734375 15.785156 9.773438 15.785156 9.820312 Z M 15.785156 9.820312 "/>
<path style=" stroke:none;fill-rule:nonzero;fill:rgb(90.196078%,90.196078%,90.196078%);fill-opacity:1;" d="M 16.15625 9.820312 L 16.15625 10.59375 C 16.15625 10.644531 16.117188 10.683594 16.070312 10.683594 L 16.039062 10.683594 C 15.992188 10.683594 15.953125 10.644531 15.953125 10.59375 L 15.953125 9.820312 C 15.953125 9.769531 15.992188 9.730469 16.039062 9.730469 L 16.070312 9.730469 C 16.117188 9.730469 16.15625 9.769531 16.15625 9.820312 Z M 16.15625 9.820312 "/>
<path style=" stroke:none;fill-rule:nonzero;fill:rgb(90.196078%,90.196078%,90.196078%);fill-opacity:1;" d="M 16.519531 9.820312 L 16.519531 10.59375 C 16.519531 10.644531 16.480469 10.683594 16.433594 10.683594 L 16.40625 10.683594 C 16.355469 10.683594 16.320312 10.644531 16.320312 10.59375 L 16.320312 9.820312 C 16.320312 9.769531 16.355469 9.730469 16.40625 9.730469 L 16.433594 9.730469 C 16.480469 9.730469 16.519531 9.769531 16.519531 9.820312 Z M 16.519531 9.820312 "/>
<path style=" stroke:none;fill-rule:nonzero;fill:rgb(90.196078%,90.196078%,90.196078%);fill-opacity:1;" d="M 16.886719 9.816406 L 16.886719 10.59375 C 16.886719 10.640625 16.851562 10.679688 16.800781 10.679688 L 16.773438 10.679688 C 16.726562 10.679688 16.6875 10.640625 16.6875 10.59375 L 16.6875 9.816406 C 16.6875 9.769531 16.726562 9.730469 16.773438 9.730469 L 16.800781 9.730469 C 16.851562 9.730469 16.886719 9.769531 16.886719 9.816406 Z M 16.886719 9.816406 "/>
<path style=" stroke:none;fill-rule:nonzero;fill:rgb(90.196078%,90.196078%,90.196078%);fill-opacity:1;" d="M 17.464844 11.191406 L 17.464844 12.421875 C 17.464844 12.585938 17.328125 12.722656 17.164062 12.722656 L 17.058594 12.722656 C 16.890625 12.722656 16.757812 12.585938 16.757812 12.421875 L 16.757812 11.191406 C 16.757812 11.027344 16.890625 10.890625 17.058594 10.890625 L 17.164062 10.890625 C 17.328125 10.890625 17.464844 11.027344 17.464844 11.191406 Z M 17.464844 11.191406 "/>
<path style=" stroke:none;fill-rule:nonzero;fill:rgb(90.196078%,90.196078%,90.196078%);fill-opacity:1;" d="M 18.246094 11.351562 L 17.472656 11.351562 C 17.421875 11.351562 17.386719 11.316406 17.386719 11.265625 L 17.386719 11.238281 C 17.386719 11.191406 17.421875 11.152344 17.472656 11.152344 L 18.246094 11.152344 C 18.292969 11.152344 18.332031 11.191406 18.332031 11.238281 L 18.332031 11.265625 C 18.332031 11.316406 18.292969 11.351562 18.246094 11.351562 Z M 18.246094 11.351562 "/>
<path style=" stroke:none;fill-rule:nonzero;fill:rgb(90.196078%,90.196078%,90.196078%);fill-opacity:1;" d="M 18.246094 11.722656 L 17.472656 11.722656 C 17.421875 11.722656 17.386719 11.683594 17.386719 11.636719 L 17.386719 11.605469 C 17.386719 11.558594 17.421875 11.519531 17.472656 11.519531 L 18.246094 11.519531 C 18.296875 11.519531 18.335938 11.558594 18.335938 11.605469 L 18.335938 11.636719 C 18.335938 11.683594 18.296875 11.722656 18.246094 11.722656 Z M 18.246094 11.722656 "/>
<path style=" stroke:none;fill-rule:nonzero;fill:rgb(90.196078%,90.196078%,90.196078%);fill-opacity:1;" d="M 18.246094 12.085938 L 17.472656 12.085938 C 17.421875 12.085938 17.386719 12.046875 17.386719 12 L 17.386719 11.972656 C 17.386719 11.921875 17.421875 11.886719 17.472656 11.886719 L 18.246094 11.886719 C 18.296875 11.886719 18.335938 11.921875 18.335938 11.972656 L 18.335938 12 C 18.335938 12.046875 18.296875 12.085938 18.246094 12.085938 Z M 18.246094 12.085938 "/>
<path style=" stroke:none;fill-rule:nonzero;fill:rgb(90.196078%,90.196078%,90.196078%);fill-opacity:1;" d="M 18.25 12.453125 L 17.472656 12.453125 C 17.425781 12.453125 17.386719 12.417969 17.386719 12.367188 L 17.386719 12.339844 C 17.386719 12.292969 17.425781 12.253906 17.472656 12.253906 L 18.25 12.253906 C 18.296875 12.253906 18.335938 12.292969 18.335938 12.339844 L 18.335938 12.367188 C 18.335938 12.417969 18.296875 12.453125 18.25 12.453125 Z M 18.25 12.453125 "/>
<path style=" stroke:none;fill-rule:nonzero;fill:rgb(90.196078%,90.196078%,90.196078%);fill-opacity:1;" d="M 15.015625 11.199219 L 15.015625 12.429688 C 15.015625 12.59375 15.152344 12.730469 15.320312 12.730469 L 15.421875 12.730469 C 15.589844 12.730469 15.726562 12.59375 15.726562 12.429688 L 15.726562 11.199219 C 15.726562 11.035156 15.589844 10.898438 15.421875 10.898438 L 15.320312 10.898438 C 15.152344 10.898438 15.015625 11.035156 15.015625 11.199219 Z M 15.015625 11.199219 "/>
<path style=" stroke:none;fill-rule:nonzero;fill:rgb(90.196078%,90.196078%,90.196078%);fill-opacity:1;" d="M 14.234375 11.359375 L 15.011719 11.359375 C 15.058594 11.359375 15.097656 11.324219 15.097656 11.273438 L 15.097656 11.246094 C 15.097656 11.199219 15.058594 11.160156 15.011719 11.160156 L 14.234375 11.160156 C 14.1875 11.160156 14.148438 11.199219 14.148438 11.246094 L 14.148438 11.273438 C 14.148438 11.324219 14.1875 11.359375 14.234375 11.359375 Z M 14.234375 11.359375 "/>
<path style=" stroke:none;fill-rule:nonzero;fill:rgb(90.196078%,90.196078%,90.196078%);fill-opacity:1;" d="M 14.234375 11.730469 L 15.011719 11.730469 C 15.058594 11.730469 15.097656 11.691406 15.097656 11.644531 L 15.097656 11.613281 C 15.097656 11.566406 15.058594 11.527344 15.011719 11.527344 L 14.234375 11.527344 C 14.1875 11.527344 14.148438 11.566406 14.148438 11.613281 L 14.148438 11.644531 C 14.148438 11.691406 14.1875 11.730469 14.234375 11.730469 Z M 14.234375 11.730469 "/>
<path style=" stroke:none;fill-rule:nonzero;fill:rgb(90.196078%,90.196078%,90.196078%);fill-opacity:1;" d="M 14.234375 12.09375 L 15.011719 12.09375 C 15.058594 12.09375 15.097656 12.054688 15.097656 12.007812 L 15.097656 11.980469 C 15.097656 11.929688 15.058594 11.894531 15.011719 11.894531 L 14.234375 11.894531 C 14.1875 11.894531 14.148438 11.929688 14.148438 11.980469 L 14.148438 12.007812 C 14.148438 12.054688 14.1875 12.09375 14.234375 12.09375 Z M 14.234375 12.09375 "/>
<path style=" stroke:none;fill-rule:nonzero;fill:rgb(90.196078%,90.196078%,90.196078%);fill-opacity:1;" d="M 14.234375 12.460938 L 15.007812 12.460938 C 15.058594 12.460938 15.097656 12.425781 15.097656 12.375 L 15.097656 12.347656 C 15.097656 12.300781 15.058594 12.261719 15.007812 12.261719 L 14.234375 12.261719 C 14.183594 12.261719 14.148438 12.300781 14.148438 12.347656 L 14.148438 12.375 C 14.148438 12.425781 14.183594 12.460938 14.234375 12.460938 Z M 14.234375 12.460938 "/>
<path style=" stroke:none;fill-rule:nonzero;fill:rgb(90.196078%,90.196078%,90.196078%);fill-opacity:1;" d="M 15.632812 13.058594 L 16.859375 13.058594 C 17.027344 13.058594 17.164062 12.925781 17.164062 12.757812 L 17.164062 12.652344 C 17.164062 12.488281 17.027344 12.351562 16.859375 12.351562 L 15.632812 12.351562 C 15.464844 12.351562 15.332031 12.488281 15.332031 12.652344 L 15.332031 12.757812 C 15.332031 12.925781 15.464844 13.058594 15.632812 13.058594 Z M 15.632812 13.058594 "/>
<path style=" stroke:none;fill-rule:nonzero;fill:rgb(90.196078%,90.196078%,90.196078%);fill-opacity:1;" d="M 15.792969 13.839844 L 15.792969 13.066406 C 15.792969 13.019531 15.753906 12.980469 15.707031 12.980469 L 15.675781 12.980469 C 15.628906 12.980469 15.589844 13.019531 15.589844 13.066406 L 15.589844 13.839844 C 15.589844 13.890625 15.628906 13.929688 15.675781 13.929688 L 15.707031 13.929688 C 15.753906 13.929688 15.792969 13.890625 15.792969 13.839844 Z M 15.792969 13.839844 "/>
<path style=" stroke:none;fill-rule:nonzero;fill:rgb(90.196078%,90.196078%,90.196078%);fill-opacity:1;" d="M 16.164062 13.84375 L 16.164062 13.066406 C 16.164062 13.019531 16.125 12.980469 16.078125 12.980469 L 16.046875 12.980469 C 16 12.980469 15.960938 13.019531 15.960938 13.066406 L 15.960938 13.84375 C 15.960938 13.890625 16 13.929688 16.046875 13.929688 L 16.078125 13.929688 C 16.125 13.929688 16.164062 13.890625 16.164062 13.84375 Z M 16.164062 13.84375 "/>
<path style=" stroke:none;fill-rule:nonzero;fill:rgb(90.196078%,90.196078%,90.196078%);fill-opacity:1;" d="M 16.527344 13.84375 L 16.527344 13.066406 C 16.527344 13.019531 16.488281 12.980469 16.441406 12.980469 L 16.410156 12.980469 C 16.363281 12.980469 16.324219 13.019531 16.324219 13.066406 L 16.324219 13.84375 C 16.324219 13.890625 16.363281 13.929688 16.410156 13.929688 L 16.441406 13.929688 C 16.488281 13.929688 16.527344 13.890625 16.527344 13.84375 Z M 16.527344 13.84375 "/>
<path style=" stroke:none;fill-rule:nonzero;fill:rgb(90.196078%,90.196078%,90.196078%);fill-opacity:1;" d="M 16.894531 13.84375 L 16.894531 13.066406 C 16.894531 13.019531 16.855469 12.980469 16.808594 12.980469 L 16.777344 12.980469 C 16.730469 12.980469 16.691406 13.019531 16.691406 13.066406 L 16.691406 13.84375 C 16.691406 13.890625 16.730469 13.929688 16.777344 13.929688 L 16.808594 13.929688 C 16.855469 13.929688 16.894531 13.890625 16.894531 13.84375 Z M 16.894531 13.84375 "/>
<path style=" stroke:none;fill-rule:nonzero;fill:rgb(12.941176%,20.784314%,32.941176%);fill-opacity:1;" d="M 15.324219 12.785156 C 15.257812 12.753906 15.261719 12.8125 15.261719 11.816406 L 15.265625 10.910156 L 15.285156 10.886719 C 15.300781 10.871094 15.316406 10.855469 15.328125 10.851562 C 15.351562 10.839844 17.128906 10.839844 17.152344 10.851562 C 17.164062 10.855469 17.179688 10.871094 17.195312 10.886719 L 17.21875 10.910156 L 17.21875 11.816406 C 17.21875 12.804688 17.222656 12.753906 17.160156 12.785156 C 17.125 12.804688 15.363281 12.804688 15.324219 12.785156 Z M 17.066406 12.625 C 17.082031 12.59375 17.066406 12.550781 17.042969 12.542969 C 16.972656 12.515625 16.925781 12.617188 16.992188 12.648438 C 17.023438 12.664062 17.054688 12.65625 17.066406 12.625 Z M 15.507812 12.640625 C 15.527344 12.617188 15.519531 12.5625 15.492188 12.546875 C 15.441406 12.511719 15.386719 12.570312 15.414062 12.628906 C 15.425781 12.648438 15.433594 12.652344 15.460938 12.652344 C 15.480469 12.652344 15.5 12.648438 15.507812 12.640625 Z M 15.507812 11.085938 C 15.527344 11.066406 15.519531 11.007812 15.5 10.996094 C 15.453125 10.972656 15.40625 10.996094 15.40625 11.046875 C 15.40625 11.082031 15.425781 11.097656 15.460938 11.097656 C 15.480469 11.097656 15.5 11.089844 15.507812 11.085938 Z M 17.058594 11.082031 C 17.078125 11.058594 17.078125 11.027344 17.058594 11.003906 C 17.011719 10.953125 16.929688 11.015625 16.96875 11.074219 C 16.984375 11.101562 17.035156 11.105469 17.058594 11.082031 Z M 17.058594 11.082031 "/>
<path style=" stroke:none;fill-rule:evenodd;fill:rgb(97.254902%,87.058824%,40.784314%);fill-opacity:1;" d="M 15.375 13.664062 L 15.691406 13.664062 L 15.691406 14.066406 L 15.375 14.066406 Z M 15.375 13.664062 "/>
<path style=" stroke:none;fill-rule:evenodd;fill:rgb(97.254902%,87.058824%,40.784314%);fill-opacity:1;" d="M 15.511719 13.371094 L 15.550781 13.371094 C 15.628906 13.371094 15.691406 13.433594 15.691406 13.507812 L 15.691406 13.660156 C 15.691406 13.734375 15.628906 13.796875 15.550781 13.796875 L 15.511719 13.796875 C 15.4375 13.796875 15.375 13.734375 15.375 13.660156 L 15.375 13.507812 C 15.375 13.433594 15.4375 13.371094 15.511719 13.371094 Z M 15.511719 13.371094 "/>
<path style=" stroke:none;fill-rule:evenodd;fill:rgb(97.254902%,87.058824%,40.784314%);fill-opacity:1;" d="M 15.800781 13.664062 L 16.117188 13.664062 L 16.117188 14.066406 L 15.800781 14.066406 Z M 15.800781 13.664062 "/>
<path style=" stroke:none;fill-rule:evenodd;fill:rgb(97.254902%,87.058824%,40.784314%);fill-opacity:1;" d="M 15.941406 13.371094 L 15.976562 13.371094 C 16.054688 13.371094 16.117188 13.433594 16.117188 13.507812 L 16.117188 13.660156 C 16.117188 13.734375 16.054688 13.796875 15.976562 13.796875 L 15.941406 13.796875 C 15.863281 13.796875 15.800781 13.734375 15.800781 13.660156 L 15.800781 13.507812 C 15.800781 13.433594 15.863281 13.371094 15.941406 13.371094 Z M 15.941406 13.371094 "/>
<path style=" stroke:none;fill-rule:evenodd;fill:rgb(97.254902%,87.058824%,40.784314%);fill-opacity:1;" d="M 16.371094 13.664062 L 16.6875 13.664062 L 16.6875 14.066406 L 16.371094 14.066406 Z M 16.371094 13.664062 "/>
<path style=" stroke:none;fill-rule:evenodd;fill:rgb(97.254902%,87.058824%,40.784314%);fill-opacity:1;" d="M 16.507812 13.371094 L 16.546875 13.371094 C 16.625 13.371094 16.6875 13.433594 16.6875 13.507812 L 16.6875 13.660156 C 16.6875 13.734375 16.625 13.796875 16.546875 13.796875 L 16.507812 13.796875 C 16.433594 13.796875 16.371094 13.734375 16.371094 13.660156 L 16.371094 13.507812 C 16.371094 13.433594 16.433594 13.371094 16.507812 13.371094 Z M 16.507812 13.371094 "/>
<path style=" stroke:none;fill-rule:evenodd;fill:rgb(97.254902%,87.058824%,40.784314%);fill-opacity:1;" d="M 16.789062 13.664062 L 17.101562 13.664062 L 17.101562 14.066406 L 16.789062 14.066406 Z M 16.789062 13.664062 "/>
<path style=" stroke:none;fill-rule:evenodd;fill:rgb(97.254902%,87.058824%,40.784314%);fill-opacity:1;" d="M 16.925781 13.371094 L 16.964844 13.371094 C 17.039062 13.371094 17.101562 13.433594 17.101562 13.507812 L 17.101562 13.660156 C 17.101562 13.734375 17.039062 13.796875 16.964844 13.796875 L 16.925781 13.796875 C 16.847656 13.796875 16.785156 13.734375 16.785156 13.660156 L 16.785156 13.507812 C 16.785156 13.433594 16.847656 13.371094 16.925781 13.371094 Z M 16.925781 13.371094 "/>
<path style=" stroke:none;fill-rule:nonzero;fill:rgb(90.196078%,90.196078%,90.196078%);fill-opacity:1;" d="M 7.6875 10.246094 L 7.6875 13.511719 L 8.074219 13.511719 L 8.074219 10.246094 Z M 8.273438 10.246094 L 8.273438 13.511719 L 8.660156 13.511719 L 8.660156 10.246094 Z M 8.863281 10.246094 L 8.863281 13.511719 L 9.25 13.511719 L 9.25 10.246094 Z M 9.464844 10.246094 L 9.464844 13.511719 L 9.855469 13.511719 L 9.855469 10.246094 Z M 10.066406 10.246094 L 10.066406 13.511719 L 10.453125 13.511719 L 10.453125 10.246094 Z M 10.066406 10.246094 "/>
</g>
</svg>
