
<svg xmlns="http://www.w3.org/2000/svg" xmlns:xlink="http://www.w3.org/1999/xlink" width="22px" height="22px" viewBox="0 0 22 22" version="1.1">
<g id="surface1">
<path style="fill-rule:nonzero;fill:rgb(100%,100%,100%);fill-opacity:1;stroke-width:27.389011;stroke-linecap:butt;stroke-linejoin:miter;stroke:rgb(59.215686%,85.098039%,31.764706%);stroke-opacity:1;stroke-miterlimit:4;" d="M 86.454545 31.636364 L 425.545455 31.636364 C 455.818182 31.636364 480.363636 56.181818 480.363636 86.454545 L 480.363636 425.545455 C 480.363636 455.818182 455.818182 480.363636 425.545455 480.363636 L 86.454545 480.363636 C 56.181818 480.363636 31.636364 455.818182 31.636364 425.545455 L 31.636364 86.454545 C 31.636364 56.181818 56.181818 31.636364 86.454545 31.636364 Z M 86.454545 31.636364 " transform="matrix(0.0429688,0,0,0.0429688,0,0)"/>
<path style="fill-rule:nonzero;fill:rgb(100%,100%,100%);fill-opacity:1;stroke-width:3.6;stroke-linecap:butt;stroke-linejoin:miter;stroke:rgb(58.039216%,85.098039%,31.764706%);stroke-opacity:1;stroke-miterlimit:4;" d="M 50.84318 112.033166 C 38.464916 108.772551 29.498223 100.832348 25.63379 89.722102 L 24.758254 86.038814 L 24.063864 63.667367 C 23.309092 39.333513 23.731764 39.24294 21.316493 37.340914 C 20.350385 36.586142 19.595613 36.435188 16.727478 36.435188 C 14.855643 36.435188 12.319609 36.314424 11.111974 36.16347 L 8.877848 35.891752 L 8.877848 16.05634 L 48.850581 16.267676 C 92.446221 16.479012 91.05744 16.388439 97.54848 18.954665 C 105.760401 22.154899 112.976023 28.887466 116.447975 36.616333 C 119.134964 42.503556 119.074582 41.778975 119.285918 74.68704 C 119.467064 101.949411 119.406682 104.847736 118.772673 106.085562 C 117.595229 108.349878 115.059194 110.825531 112.85526 111.852021 L 110.741898 112.84832 L 82.271892 112.81813 C 56.036012 112.81813 53.59055 112.757748 50.84318 112.033166 Z M 92.023548 98.930322 C 101.111005 97.994404 108.0851 90.990119 109.322926 81.630944 C 109.624835 79.336437 109.715407 73.086923 109.594644 63.908894 C 109.353117 46.881234 109.292735 46.549135 104.67353 41.869547 C 101.261959 38.427786 98.574971 37.280533 93.925574 37.280533 C 90.242286 37.280533 87.615679 38.005114 84.868308 39.786376 L 82.815328 41.084584 L 79.343376 39.303322 C 75.901615 37.491869 75.841233 37.491869 71.372982 37.491869 C 67.508549 37.491869 66.602822 37.612632 64.851751 38.488168 C 61.862853 39.967521 58.843764 43.137565 57.273838 46.458562 L 55.915249 49.296505 L 55.673721 75.260667 L 65.395187 75.260667 L 65.395187 63.335267 C 65.425378 52.19483 65.455569 51.319295 66.240532 50.051277 C 68.142557 46.911425 72.550427 45.945317 75.086461 48.08887 C 77.592305 50.202232 77.652686 50.47395 77.652686 63.42584 L 77.652686 75.260667 L 87.253388 75.260667 L 87.404343 63.063549 C 87.555297 51.440058 87.585488 50.80605 88.430833 49.658796 C 91.178203 46.005699 96.220081 45.975508 98.816498 49.628605 C 99.782606 50.987195 99.782606 51.047577 99.90337 66.082638 L 100.054324 81.178081 L 98.876879 83.321634 C 97.578671 85.736905 95.555882 87.518167 92.536793 88.906948 C 90.514004 89.842865 90.332859 89.842865 71.6447 89.752293 C 50.692225 89.66172 51.356425 89.752293 48.307145 86.793586 C 47.43161 85.948241 46.284356 84.287742 45.74092 83.110298 L 44.744621 80.966745 L 44.744621 28.947848 L 41.514196 28.67613 C 39.732934 28.525176 37.649762 28.404412 36.864799 28.404412 L 35.445828 28.404412 L 35.476019 50.896622 C 35.50621 63.244695 35.657164 76.136203 35.838309 79.487391 C 36.110027 85.314232 36.2006 85.736905 37.528999 88.212557 C 39.129116 91.231646 42.782213 95.096079 45.559775 96.726387 C 49.635544 99.111467 51.296043 99.292613 70.678592 99.322803 C 80.430248 99.322803 90.03095 99.141658 92.023548 98.930322 Z M 92.023548 98.930322 " transform="matrix(0.129385,0,0,0.129385,2.702901,2.660831)"/>
<path style="fill-rule:nonzero;fill:rgb(58.039216%,85.098039%,31.764706%);fill-opacity:1;stroke-width:0.3;stroke-linecap:butt;stroke-linejoin:miter;stroke:rgb(58.039216%,85.098039%,31.764706%);stroke-opacity:1;stroke-miterlimit:4;" d="M 58.451283 99.111467 C 51.507379 98.960513 49.605353 98.658604 46.857983 97.300014 C 44.895575 96.333906 43.657749 95.397988 41.695341 93.435581 C 39.189498 90.929737 37.136517 87.850267 36.562891 85.706714 C 35.8685 83.231061 35.717546 78.340138 35.626973 51.772158 L 35.5364 28.434603 L 35.959073 28.434603 C 36.653463 28.434603 42.993549 28.857275 43.838894 28.947848 L 44.623857 29.038421 L 44.623857 80.876172 L 45.288057 82.295144 C 45.650347 83.080107 46.284356 84.257551 46.737219 84.921751 C 47.642946 86.310532 49.544972 88.182366 50.541271 88.665421 C 52.503678 89.66172 56.186967 89.812674 75.539324 89.752293 C 92.08393 89.691911 90.966867 89.782483 93.140611 88.695612 C 96.189891 87.155876 97.910771 85.404805 99.661842 82.083808 L 100.144897 81.178081 L 99.963751 66.927983 C 99.873179 58.746253 99.722224 52.255212 99.631652 51.681585 C 99.450506 50.383377 99.088216 49.688987 98.061725 48.692688 C 95.616264 46.247226 91.932976 46.217035 89.306369 48.662497 C 88.279878 49.598414 87.947779 50.202232 87.706252 51.409867 C 87.525106 52.436357 87.283579 62.520113 87.283579 69.041345 C 87.283579 71.456616 87.223197 73.811505 87.193006 74.32475 L 87.072243 75.200285 L 77.682877 75.200285 L 77.622496 63.878703 C 77.562114 52.104258 77.531923 51.560822 76.897914 50.111659 C 76.535624 49.266314 75.116652 47.877534 74.090162 47.394479 C 73.124054 46.911425 71.222028 46.820853 70.074774 47.152952 C 68.384084 47.636007 66.572631 49.054978 65.999004 50.353186 C 65.485759 51.560822 65.425378 52.738266 65.334805 64.090039 L 65.244232 75.200285 L 55.673721 75.200285 L 55.734103 74.294559 C 55.794485 73.811505 55.854867 67.984664 55.885058 61.37286 L 55.97563 49.356887 L 57.062502 47.152952 C 58.632428 43.892337 60.594836 41.477066 62.949725 39.786376 C 64.006406 39.031604 65.606523 38.186259 66.51225 37.88435 C 67.297213 37.642823 74.241116 37.52206 75.418561 37.733396 C 76.022379 37.854159 77.230014 38.367405 79.494331 39.514658 C 81.275593 40.390194 82.785137 41.114775 82.845519 41.114775 C 82.905901 41.114775 83.5701 40.722294 84.324872 40.209049 C 87.102434 38.427786 89.064841 37.733396 92.204694 37.431487 C 95.314355 37.129578 98.152298 37.582441 100.386424 38.699504 C 102.228068 39.635422 104.67353 41.718593 106.484983 43.952718 C 109.202162 47.273716 109.44369 49.175742 109.47388 68.075236 C 109.47388 76.770212 109.44369 80.181782 109.292735 81.238463 C 108.0851 90.597637 101.503486 97.541541 92.657557 98.779368 C 89.819614 99.171849 69.531338 99.352994 58.451283 99.111467 Z M 58.451283 99.111467 " transform="matrix(0.129385,0,0,0.129385,2.702901,2.660831)"/>
</g>
</svg>
