
<svg xmlns="http://www.w3.org/2000/svg" xmlns:xlink="http://www.w3.org/1999/xlink" width="22px" height="22px" viewBox="0 0 22 22" version="1.1">
<g id="surface1">
<path style="fill-rule:nonzero;fill:rgb(100%,100%,100%);fill-opacity:0.976471;stroke-width:28.636707;stroke-linecap:butt;stroke-linejoin:miter;stroke:rgb(9.803922%,72.941176%,61.176471%);stroke-opacity:1;stroke-miterlimit:4;" d="M 78.727273 21.454545 L 433.272727 21.454545 C 464.909091 21.454545 490.545455 47.090909 490.545455 78.727273 L 490.545455 433.272727 C 490.545455 464.909091 464.909091 490.545455 433.272727 490.545455 L 78.727273 490.545455 C 47.090909 490.545455 21.454545 464.909091 21.454545 433.272727 L 21.454545 78.727273 C 21.454545 47.090909 47.090909 21.454545 78.727273 21.454545 Z M 78.727273 21.454545 " transform="matrix(0.0429688,0,0,0.0429688,0,0)"/>
<path style=" stroke:none;fill-rule:nonzero;fill:rgb(9.803922%,72.941176%,61.176471%);fill-opacity:1;" d="M 17.019531 5.9375 C 16.898438 5.828125 16.75 5.777344 16.582031 5.777344 L 5.417969 5.777344 C 5.25 5.777344 5.101562 5.828125 4.980469 5.9375 C 4.855469 6.042969 4.796875 6.167969 4.796875 6.316406 L 4.796875 12.78125 C 4.796875 13.265625 4.902344 13.742188 5.121094 14.214844 C 5.335938 14.691406 5.605469 15.113281 5.925781 15.480469 C 6.246094 15.847656 6.625 16.207031 7.070312 16.554688 C 7.511719 16.902344 7.921875 17.191406 8.296875 17.421875 C 8.671875 17.648438 9.0625 17.867188 9.46875 18.074219 C 9.875 18.277344 10.164062 18.417969 10.335938 18.488281 C 10.507812 18.5625 10.644531 18.617188 10.746094 18.65625 C 10.824219 18.691406 10.910156 18.707031 11 18.707031 C 11.089844 18.707031 11.175781 18.691406 11.253906 18.65625 C 11.355469 18.617188 11.492188 18.5625 11.664062 18.488281 C 11.835938 18.417969 12.125 18.277344 12.53125 18.074219 C 12.9375 17.867188 13.328125 17.648438 13.703125 17.421875 C 14.078125 17.191406 14.488281 16.902344 14.929688 16.554688 C 15.375 16.207031 15.753906 15.847656 16.074219 15.480469 C 16.394531 15.113281 16.664062 14.691406 16.878906 14.214844 C 17.097656 13.742188 17.203125 13.265625 17.203125 12.78125 L 17.203125 6.316406 C 17.203125 6.167969 17.144531 6.042969 17.019531 5.9375 Z M 15.34375 12.78125 C 15.34375 13.769531 14.582031 14.777344 13.066406 15.8125 C 12.457031 16.226562 11.769531 16.613281 11 16.964844 L 11 7.394531 L 15.34375 7.394531 Z M 15.34375 12.78125 "/>
<path style=" stroke:none;fill-rule:nonzero;fill:rgb(9.803922%,72.941176%,61.176471%);fill-opacity:1;" d="M 10.996094 3.292969 C 10.734375 3.292969 10.472656 3.382812 10.273438 3.558594 L 5.101562 5.730469 C 4.695312 6.085938 4.695312 6.648438 5.09375 6.996094 L 5.226562 7.117188 L 16.773438 7.117188 L 16.898438 7.003906 C 17.304688 6.652344 17.304688 6.085938 16.90625 5.738281 L 11.722656 3.550781 C 11.519531 3.378906 11.261719 3.289062 10.996094 3.292969 Z M 10.996094 3.292969 "/>
<path style=" stroke:none;fill-rule:nonzero;fill:rgb(0%,50.196078%,0%);fill-opacity:1;" d="M 9.214844 12.644531 L 13.945312 8.535156 C 14.203125 8.3125 14.582031 8.28125 14.796875 8.464844 L 14.96875 8.617188 C 15.183594 8.800781 15.148438 9.132812 14.890625 9.355469 L 10.15625 13.464844 C 9.898438 13.6875 9.519531 13.71875 9.304688 13.535156 L 9.132812 13.382812 C 8.921875 13.199219 8.957031 12.867188 9.214844 12.644531 Z M 9.214844 12.644531 "/>
<path style=" stroke:none;fill-rule:nonzero;fill:rgb(0%,50.196078%,0%);fill-opacity:1;" d="M 8.003906 10.765625 L 10.011719 12.507812 C 10.242188 12.710938 10.238281 13.039062 10 13.246094 L 9.917969 13.316406 C 9.679688 13.523438 9.300781 13.527344 9.070312 13.328125 L 7.0625 11.585938 C 6.828125 11.382812 6.835938 11.054688 7.074219 10.847656 L 7.15625 10.777344 C 7.394531 10.570312 7.773438 10.5625 8.003906 10.765625 Z M 8.003906 10.765625 "/>
<path style=" stroke:none;fill-rule:nonzero;fill:rgb(0%,50.196078%,0%);fill-opacity:1;" d="M 14.445312 8.34375 C 14.386719 8.34375 14.324219 8.351562 14.265625 8.367188 C 14.691406 8.445312 15.023438 8.707031 15.09375 9.035156 C 15.132812 8.878906 15.09375 8.722656 14.96875 8.617188 L 14.796875 8.464844 C 14.703125 8.382812 14.578125 8.34375 14.445312 8.34375 Z M 11 11.09375 L 9.214844 12.644531 C 8.957031 12.867188 8.917969 13.199219 9.132812 13.382812 L 9.304688 13.535156 C 9.519531 13.71875 9.898438 13.6875 10.15625 13.464844 L 11 12.734375 Z M 11 11.09375 "/>
<path style=" stroke:none;fill-rule:nonzero;fill:rgb(0%,50.196078%,0%);fill-opacity:1;" d="M 8.003906 10.765625 L 10.011719 12.507812 C 10.242188 12.710938 10.238281 13.039062 10 13.246094 L 9.917969 13.316406 C 9.679688 13.523438 9.300781 13.527344 9.070312 13.328125 L 7.0625 11.585938 C 6.828125 11.382812 6.835938 11.054688 7.074219 10.847656 L 7.15625 10.777344 C 7.394531 10.570312 7.773438 10.5625 8.003906 10.765625 Z M 8.003906 10.765625 "/>
</g>
</svg>
