
<svg xmlns="http://www.w3.org/2000/svg" xmlns:xlink="http://www.w3.org/1999/xlink" width="22px" height="22px" viewBox="0 0 22 22" version="1.1">
<g id="surface1">
<path style="fill-rule:nonzero;fill:rgb(0%,50.196078%,50.196078%);fill-opacity:1;stroke-width:27.27438;stroke-linecap:butt;stroke-linejoin:miter;stroke:rgb(90.196078%,90.196078%,90.196078%);stroke-opacity:1;stroke-miterlimit:4;" d="M 85.363636 35 L 426.636364 35 C 457.090909 35 481.818182 59.181818 481.818182 89 L 481.818182 423 C 481.818182 452.818182 457.090909 477 426.636364 477 L 85.363636 477 C 54.909091 477 30.181818 452.818182 30.181818 423 L 30.181818 89 C 30.181818 59.181818 54.909091 35 85.363636 35 Z M 85.363636 35 " transform="matrix(0.0429688,0,0,0.0429688,0,0)"/>
<path style=" stroke:none;fill-rule:nonzero;fill:rgb(90.196078%,90.196078%,90.196078%);fill-opacity:1;" d="M 4.152344 19.773438 C 4.113281 19.496094 3.867188 18.882812 3.753906 18.785156 C 3.667969 18.710938 3.605469 18.695312 3.367188 18.695312 C 3.210938 18.695312 2.949219 18.683594 2.785156 18.671875 L 2.484375 18.644531 L 2.449219 18.503906 C 2.40625 18.351562 2.34375 17.84375 2.316406 17.464844 L 2.296875 17.226562 L 2.914062 17.078125 L 3.53125 16.925781 L 3.578125 16.550781 C 3.601562 16.347656 3.636719 15.96875 3.652344 15.714844 C 3.675781 15.316406 3.667969 15.246094 3.617188 15.230469 C 3.355469 15.136719 2.597656 14.746094 2.578125 14.691406 C 2.527344 14.5625 2.914062 13.4375 3.023438 13.394531 C 3.054688 13.382812 3.335938 13.421875 3.644531 13.480469 C 3.953125 13.535156 4.222656 13.574219 4.242188 13.5625 C 4.300781 13.527344 4.558594 13.136719 4.726562 12.828125 C 4.855469 12.597656 4.867188 12.554688 4.824219 12.496094 C 4.792969 12.460938 4.632812 12.261719 4.460938 12.058594 C 4.058594 11.574219 4.046875 11.550781 4.179688 11.378906 C 4.320312 11.195312 4.820312 10.652344 4.9375 10.558594 C 5.039062 10.476562 5.035156 10.476562 5.832031 11.042969 L 6.074219 11.214844 L 6.261719 11.082031 C 6.902344 10.628906 7.015625 10.53125 7.015625 10.445312 C 7.015625 10.394531 6.96875 10.207031 6.914062 10.023438 C 6.722656 9.390625 6.703125 9.257812 6.777344 9.191406 C 6.882812 9.09375 7.820312 8.660156 7.921875 8.660156 C 7.992188 8.660156 8.046875 8.710938 8.148438 8.878906 C 8.480469 9.417969 8.660156 9.679688 8.707031 9.699219 C 8.824219 9.742188 10.050781 9.417969 10.097656 9.328125 C 10.117188 9.292969 10.152344 9.097656 10.175781 8.894531 C 10.199219 8.691406 10.238281 8.429688 10.261719 8.320312 L 10.300781 8.113281 L 11.011719 8.125 L 11.71875 8.132812 L 11.761719 8.523438 C 11.832031 9.140625 11.855469 9.277344 11.925781 9.359375 C 11.976562 9.421875 12.136719 9.46875 12.554688 9.558594 C 12.867188 9.625 13.167969 9.675781 13.226562 9.675781 C 13.335938 9.675781 13.449219 9.527344 13.851562 8.847656 C 13.925781 8.722656 14.007812 8.621094 14.035156 8.621094 C 14.109375 8.621094 14.898438 8.980469 15.089844 9.101562 C 15.300781 9.238281 15.300781 9.277344 15.09375 9.929688 L 14.933594 10.4375 L 15.101562 10.585938 C 15.195312 10.667969 15.410156 10.828125 15.582031 10.945312 C 15.949219 11.191406 15.882812 11.203125 16.53125 10.765625 C 16.75 10.617188 16.953125 10.496094 16.988281 10.496094 C 17.09375 10.496094 17.910156 11.40625 17.910156 11.527344 C 17.910156 11.566406 17.523438 12.058594 17.179688 12.453125 C 17.128906 12.511719 17.136719 12.542969 17.226562 12.726562 C 17.328125 12.921875 17.738281 13.582031 17.761719 13.582031 C 17.769531 13.582031 18.027344 13.527344 18.339844 13.464844 C 18.652344 13.398438 18.925781 13.347656 18.953125 13.347656 C 18.980469 13.347656 19.035156 13.414062 19.074219 13.492188 C 19.171875 13.683594 19.433594 14.503906 19.433594 14.621094 C 19.433594 14.699219 19.355469 14.75 18.902344 14.972656 C 18.613281 15.113281 18.359375 15.261719 18.339844 15.296875 C 18.300781 15.371094 18.429688 16.699219 18.492188 16.84375 C 18.519531 16.910156 18.605469 16.941406 18.929688 17.015625 C 19.707031 17.183594 19.683594 17.175781 19.699219 17.351562 C 19.714844 17.515625 19.652344 18.109375 19.585938 18.449219 L 19.546875 18.648438 L 19.011719 18.671875 C 18.230469 18.710938 18.230469 18.714844 18.140625 18.917969 C 18 19.242188 17.828125 19.808594 17.84375 19.875 C 17.863281 19.941406 17.808594 19.945312 17.074219 19.945312 L 16.28125 19.945312 L 16.488281 19.53125 C 16.726562 19.042969 16.894531 18.558594 17.015625 17.992188 C 17.132812 17.433594 17.144531 16.328125 17.035156 15.75 C 16.75 14.203125 15.894531 12.824219 14.648438 11.890625 C 14.265625 11.605469 13.382812 11.148438 12.910156 10.988281 C 12.25 10.769531 11.863281 10.714844 10.996094 10.714844 C 10.09375 10.714844 9.738281 10.769531 9 11.027344 C 7.0625 11.699219 5.546875 13.367188 5.046875 15.378906 C 4.714844 16.71875 4.953125 18.585938 5.59375 19.683594 C 5.667969 19.808594 5.726562 19.917969 5.726562 19.929688 C 5.726562 19.9375 5.378906 19.945312 4.949219 19.945312 L 4.175781 19.945312 Z M 4.152344 19.773438 "/>
</g>
</svg>
