
<svg xmlns="http://www.w3.org/2000/svg" xmlns:xlink="http://www.w3.org/1999/xlink" width="22px" height="22px" viewBox="0 0 22 22" version="1.1">
<g id="surface1">
<path style=" stroke:none;fill-rule:nonzero;fill:rgb(100%,100%,100%);fill-opacity:1;" d="M 8.078125 2.910156 C 7.75 2.910156 7.484375 3.089844 7.484375 3.308594 L 7.484375 4.257812 L 5.320312 4.257812 C 4.851562 4.257812 4.472656 4.511719 4.472656 4.824219 L 4.472656 18.523438 C 4.472656 18.835938 4.851562 19.089844 5.320312 19.089844 L 16.679688 19.089844 C 17.148438 19.089844 17.527344 18.835938 17.527344 18.523438 L 17.527344 4.824219 C 17.527344 4.511719 17.148438 4.257812 16.679688 4.257812 L 14.515625 4.257812 L 14.515625 3.308594 C 14.515625 3.089844 14.25 2.910156 13.921875 2.910156 Z M 8.078125 2.910156 "/>
<path style=" stroke:none;fill-rule:evenodd;fill:rgb(100%,100%,100%);fill-opacity:1;" d="M 11 6.242188 L 7.597656 11.953125 L 11 11.953125 L 11 15.757812 L 14.402344 10.046875 L 11 10.046875 Z M 11 6.242188 "/>
<path style="fill-rule:nonzero;fill:rgb(100%,100%,100%);fill-opacity:1;stroke-width:28.448776;stroke-linecap:butt;stroke-linejoin:miter;stroke:rgb(16.862745%,61.960784%,34.901961%);stroke-opacity:1;stroke-miterlimit:4;" d="M 79.909091 23 L 432.090909 23 C 463.545455 23 489 48.454545 489 79.909091 L 489 432.090909 C 489 463.545455 463.545455 489 432.090909 489 L 79.909091 489 C 48.454545 489 23 463.545455 23 432.090909 L 23 79.909091 C 23 48.454545 48.454545 23 79.909091 23 Z M 79.909091 23 " transform="matrix(0.0429688,0,0,0.0429688,0,0)"/>
<path style=" stroke:none;fill-rule:nonzero;fill:rgb(16.862745%,61.960784%,34.901961%);fill-opacity:1;" d="M 8.675781 3.363281 C 8.414062 3.363281 8.203125 3.503906 8.203125 3.679688 L 8.203125 4.65625 C 8.203125 4.660156 8.203125 4.664062 8.207031 4.667969 L 5.882812 4.667969 C 5.460938 4.667969 5.121094 4.90625 5.121094 5.203125 L 5.121094 18.101562 C 5.121094 18.398438 5.460938 18.636719 5.882812 18.636719 L 16.117188 18.636719 C 16.539062 18.636719 16.878906 18.398438 16.878906 18.101562 L 16.878906 5.203125 C 16.878906 4.90625 16.539062 4.667969 16.117188 4.667969 L 13.792969 4.667969 C 13.796875 4.664062 13.796875 4.660156 13.796875 4.65625 L 13.796875 3.679688 C 13.796875 3.503906 13.585938 3.363281 13.324219 3.363281 Z M 8.675781 3.363281 "/>
<path style=" stroke:none;fill-rule:nonzero;fill:rgb(0%,100%,0%);fill-opacity:1;" d="M 11.863281 16.398438 C 11.714844 16.210938 11.539062 15.601562 10.429688 11.449219 C 9.230469 6.980469 9.316406 7.257812 9.214844 7.453125 C 9.171875 7.53125 8.90625 8.453125 8.625 9.5 C 8.332031 10.578125 8.042969 11.453125 7.957031 11.523438 C 7.847656 11.613281 7.234375 11.644531 5.683594 11.644531 C 3.824219 11.644531 3.546875 11.625 3.402344 11.480469 C 3.246094 11.324219 3.25 11.304688 3.453125 11.136719 C 3.648438 10.980469 3.886719 10.960938 5.605469 10.960938 L 7.542969 10.960938 L 7.652344 10.546875 C 9.019531 5.417969 9.089844 5.230469 9.449219 5.609375 C 9.515625 5.683594 9.910156 6.996094 10.324219 8.523438 C 12.175781 15.394531 11.988281 14.746094 12.089844 14.644531 C 12.117188 14.613281 12.359375 13.785156 12.621094 12.800781 C 12.886719 11.816406 13.152344 10.910156 13.21875 10.792969 C 13.335938 10.570312 13.335938 10.570312 15.945312 10.570312 C 18.429688 10.570312 18.566406 10.582031 18.660156 10.761719 C 18.738281 10.902344 18.722656 10.984375 18.609375 11.101562 C 18.476562 11.230469 18.109375 11.253906 16.074219 11.253906 C 14.761719 11.253906 13.691406 11.273438 13.691406 11.300781 C 13.691406 11.414062 12.414062 16.105469 12.328125 16.300781 C 12.222656 16.542969 12.011719 16.585938 11.863281 16.398438 Z M 11.863281 16.398438 "/>
</g>
</svg>
