
<svg xmlns="http://www.w3.org/2000/svg" xmlns:xlink="http://www.w3.org/1999/xlink" width="22px" height="22px" viewBox="0 0 22 22" version="1.1">
<g id="surface1">
<path style=" stroke:none;fill-rule:evenodd;fill:rgb(80%,61.176471%,41.960784%);fill-opacity:1;" d="M 3.285156 1.054688 L 18.714844 1.054688 C 19.949219 1.054688 20.949219 2.054688 20.949219 3.285156 L 20.949219 18.714844 C 20.949219 19.949219 19.949219 20.949219 18.714844 20.949219 L 3.285156 20.949219 C 2.050781 20.949219 1.050781 19.949219 1.050781 18.714844 L 1.050781 3.285156 C 1.050781 2.054688 2.050781 1.054688 3.285156 1.054688 Z M 3.285156 1.054688 "/>
<path style=" stroke:none;fill-rule:nonzero;fill:rgb(0%,0%,0%);fill-opacity:0.25098;" d="M 6 4.558594 C 6 5.105469 5.554688 5.550781 5.007812 5.550781 C 4.464844 5.550781 4.019531 5.105469 4.019531 4.558594 C 4.019531 4.011719 4.464844 3.570312 5.007812 3.570312 C 5.554688 3.570312 6 4.011719 6 4.558594 M 6 4.558594 "/>
<path style=" stroke:none;fill-rule:nonzero;fill:rgb(0%,0%,0%);fill-opacity:0.25098;" d="M 17.980469 4.628906 C 17.980469 5.175781 17.535156 5.617188 16.992188 5.617188 C 16.445312 5.617188 16 5.175781 16 4.628906 C 16 4.082031 16.445312 3.640625 16.992188 3.640625 C 17.535156 3.640625 17.980469 4.082031 17.980469 4.628906 M 17.980469 4.628906 "/>
<path style="fill-rule:nonzero;fill:rgb(0%,47.058824%,67.058824%);fill-opacity:1;stroke-width:7.9095;stroke-linecap:butt;stroke-linejoin:miter;stroke:rgb(100%,97.254902%,92.156863%);stroke-opacity:1;stroke-miterlimit:10;" d="M 1567.581823 96.228838 C 1567.581823 199.483134 1483.890135 283.174822 1380.635839 283.174822 C 1277.381542 283.174822 1193.689854 199.483134 1193.689854 96.228838 C 1193.689854 -7.025459 1277.381542 -90.717147 1380.635839 -90.717147 C 1483.890135 -90.717147 1567.581823 -7.025459 1567.581823 96.228838 Z M 1567.581823 96.228838 " transform="matrix(0.0301516,0,0,0.0301516,-26.440866,11.653235)"/>
<path style=" stroke:none;fill-rule:nonzero;fill:rgb(100%,97.254902%,92.156863%);fill-opacity:1;" d="M 15.734375 10.515625 L 14.386719 10.652344 L 14.386719 16.179688 L 15.722656 15.984375 L 15.722656 13.621094 L 17.5 16.238281 L 18.890625 15.792969 L 17.070312 13.28125 L 18.90625 10.902344 L 17.484375 10.574219 L 15.722656 12.953125 Z M 12.699219 11.867188 C 12.683594 11.867188 12.667969 11.878906 12.65625 11.882812 L 12.136719 12.417969 C 12.113281 12.441406 12.105469 12.480469 12.121094 12.507812 L 12.730469 13.519531 C 12.621094 13.703125 12.539062 13.902344 12.476562 14.113281 L 11.351562 14.351562 C 11.320312 14.359375 11.292969 14.378906 11.292969 14.410156 L 11.292969 15.152344 C 11.292969 15.183594 11.320312 15.21875 11.351562 15.226562 L 12.449219 15.496094 C 12.507812 15.738281 12.59375 15.96875 12.714844 16.179688 L 12.078125 17.144531 C 12.058594 17.171875 12.070312 17.210938 12.09375 17.234375 L 12.609375 17.753906 C 12.632812 17.777344 12.671875 17.785156 12.699219 17.769531 L 13.691406 17.160156 C 13.886719 17.273438 14.089844 17.367188 14.3125 17.429688 L 14.550781 18.542969 C 14.558594 18.574219 14.578125 18.601562 14.609375 18.601562 L 15.351562 18.601562 C 15.382812 18.601562 15.417969 18.574219 15.425781 18.542969 L 15.691406 17.429688 C 15.921875 17.367188 16.144531 17.261719 16.34375 17.144531 L 17.320312 17.800781 C 17.347656 17.816406 17.386719 17.808594 17.410156 17.785156 L 17.929688 17.265625 C 17.949219 17.242188 17.957031 17.203125 17.941406 17.175781 L 17.585938 16.582031 L 17.46875 16.625 C 17.453125 16.632812 17.433594 16.625 17.425781 16.609375 C 17.425781 16.609375 17.199219 16.269531 16.90625 15.835938 C 16.554688 16.527344 15.835938 16.996094 15.011719 16.996094 C 13.835938 16.996094 12.878906 16.050781 12.878906 14.871094 C 12.878906 14.003906 13.394531 13.257812 14.136719 12.921875 L 14.136719 12.375 C 14 12.421875 13.875 12.46875 13.75 12.539062 C 13.75 12.539062 13.738281 12.539062 13.738281 12.539062 L 12.742188 11.882812 C 12.730469 11.875 12.714844 11.867188 12.699219 11.867188 Z M 12.699219 11.867188 "/>
<path style=" stroke:none;fill-rule:nonzero;fill:rgb(40%,40%,40%);fill-opacity:1;" d="M 4.855469 5.199219 C 6.832031 15.75 15.40625 15.75 17.382812 5.199219 C 17.523438 4.3125 16.914062 4.292969 16.726562 5.199219 C 15.40625 14.8125 6.832031 14.761719 5.515625 5.199219 C 5.390625 4.328125 4.734375 4.363281 4.855469 5.199219 M 4.855469 5.199219 "/>
</g>
</svg>
