
<svg xmlns="http://www.w3.org/2000/svg" xmlns:xlink="http://www.w3.org/1999/xlink" width="22px" height="22px" viewBox="0 0 22 22" version="1.1">
<g id="surface1">
<path style="fill-rule:nonzero;fill:rgb(92.156863%,94.117647%,94.117647%);fill-opacity:1;stroke-width:24.505194;stroke-linecap:butt;stroke-linejoin:miter;stroke:rgb(27.058824%,27.058824%,27.058824%);stroke-opacity:0.627451;stroke-miterlimit:4;" d="M 83 44.545455 L 429 44.545455 C 447.545455 44.545455 462.636364 59.636364 462.636364 78.181818 L 462.636364 433.818182 C 462.636364 452.363636 447.545455 467.454545 429 467.454545 L 83 467.454545 C 64.454545 467.454545 49.363636 452.363636 49.363636 433.818182 L 49.363636 78.181818 C 49.363636 59.636364 64.454545 44.545455 83 44.545455 Z M 83 44.545455 " transform="matrix(0.0429688,0,0,0.0429688,0,0)"/>
<path style=" stroke:none;fill-rule:nonzero;fill:rgb(49.019608%,54.117647%,54.901961%);fill-opacity:1;" d="M 11 5.902344 L 5.902344 11 L 5.902344 12.132812 L 8.453125 12.132812 L 8.453125 16.097656 L 13.546875 16.097656 L 13.546875 12.132812 L 16.097656 12.132812 L 16.097656 11 Z M 11 7.503906 L 14.496094 11 L 12.414062 11 L 12.414062 14.964844 L 9.585938 14.964844 L 9.585938 11 L 7.503906 11 Z M 11 7.503906 "/>
</g>
</svg>
