
<svg xmlns="http://www.w3.org/2000/svg" xmlns:xlink="http://www.w3.org/1999/xlink" width="22px" height="22px" viewBox="0 0 22 22" version="1.1">
<g id="surface1">
<path style="fill-rule:nonzero;fill:rgb(12.941176%,12.941176%,12.941176%);fill-opacity:1;stroke-width:28.448774;stroke-linecap:butt;stroke-linejoin:miter;stroke:rgb(90.196078%,90.196078%,90.196078%);stroke-opacity:1;stroke-miterlimit:4;" d="M 82.07858 27.338977 L 434.260398 27.338977 C 465.714943 27.338977 491.169489 52.793523 491.169489 84.248068 L 491.169489 436.429886 C 491.169489 467.884432 465.714943 493.338977 434.260398 493.338977 L 82.07858 493.338977 C 50.624034 493.338977 25.169489 467.884432 25.169489 436.429886 L 25.169489 84.248068 C 25.169489 52.793523 50.624034 27.338977 82.07858 27.338977 Z M 82.07858 27.338977 " transform="matrix(0.0429688,0,0,0.0429688,-0.0932202,-0.18644)"/>
<path style=" stroke:none;fill-rule:nonzero;fill:rgb(0%,100%,0%);fill-opacity:1;" d="M 11.636719 16.324219 C 11.488281 16.136719 11.308594 15.527344 10.199219 11.378906 C 9.003906 6.90625 9.085938 7.183594 8.984375 7.378906 C 8.945312 7.460938 8.679688 8.382812 8.394531 9.425781 C 8.105469 10.507812 7.816406 11.382812 7.730469 11.449219 C 7.617188 11.539062 7.003906 11.574219 5.457031 11.574219 C 3.59375 11.574219 3.316406 11.550781 3.171875 11.40625 C 3.015625 11.253906 3.019531 11.230469 3.226562 11.066406 C 3.417969 10.910156 3.65625 10.890625 5.378906 10.890625 L 7.3125 10.890625 L 7.421875 10.476562 C 8.792969 5.347656 8.859375 5.160156 9.21875 5.539062 C 9.289062 5.613281 9.683594 6.925781 10.09375 8.453125 C 11.945312 15.324219 11.757812 14.675781 11.859375 14.574219 C 11.890625 14.542969 12.128906 13.714844 12.394531 12.730469 C 12.65625 11.746094 12.925781 10.839844 12.988281 10.71875 C 13.105469 10.5 13.109375 10.5 15.71875 10.5 C 18.199219 10.5 18.335938 10.507812 18.433594 10.6875 C 18.507812 10.832031 18.496094 10.914062 18.378906 11.03125 C 18.25 11.160156 17.878906 11.183594 15.84375 11.183594 C 14.535156 11.183594 13.464844 11.203125 13.464844 11.226562 C 13.464844 11.34375 12.183594 16.035156 12.101562 16.226562 C 11.996094 16.46875 11.785156 16.515625 11.636719 16.324219 Z M 11.636719 16.324219 "/>
</g>
</svg>
