<!-- color: #5dac36 -->
<svg xmlns="http://www.w3.org/2000/svg" xmlns:xlink="http://www.w3.org/1999/xlink" width="22px" height="22px" viewBox="0 0 22 22" version="1.1">
<g id="surface1">
<path style=" stroke:none;fill-rule:nonzero;fill:rgb(0%,0%,0%);fill-opacity:0.0196078;" d="M 0.457031 9.855469 L 0.457031 9.96875 C 0.457031 10.984375 1.277344 11.800781 2.292969 11.800781 L 19.707031 11.800781 C 20.722656 11.800781 21.542969 10.984375 21.542969 9.96875 L 21.542969 9.855469 C 21.542969 10.871094 20.722656 11.6875 19.707031 11.6875 L 2.292969 11.6875 C 1.277344 11.6875 0.457031 10.871094 0.457031 9.855469 Z M 0.457031 10.082031 L 0.457031 10.3125 C 0.457031 11.328125 1.277344 12.144531 2.292969 12.144531 L 19.707031 12.144531 C 20.722656 12.144531 21.542969 11.328125 21.542969 10.3125 L 21.542969 10.082031 C 21.542969 11.097656 20.722656 11.917969 19.707031 11.917969 L 2.292969 11.917969 C 1.277344 11.917969 0.457031 11.097656 0.457031 10.082031 Z M 0.457031 10.082031 "/>
<path style=" stroke:none;fill-rule:nonzero;fill:rgb(0%,0%,0%);fill-opacity:0.0509804;" d="M 0.457031 10.027344 L 0.457031 10.140625 C 0.457031 11.15625 1.277344 11.972656 2.292969 11.972656 L 19.707031 11.972656 C 20.722656 11.972656 21.542969 11.15625 21.542969 10.140625 L 21.542969 10.027344 C 21.542969 11.042969 20.722656 11.859375 19.707031 11.859375 L 2.292969 11.859375 C 1.277344 11.859375 0.457031 11.042969 0.457031 10.027344 Z M 0.457031 10.027344 "/>
<path style=" stroke:none;fill-rule:nonzero;fill:rgb(0%,0%,0%);fill-opacity:0.101961;" d="M 0.457031 10.027344 L 0.457031 10.140625 C 0.457031 11.15625 1.277344 11.972656 2.292969 11.972656 L 19.707031 11.972656 C 20.722656 11.972656 21.542969 11.15625 21.542969 10.140625 L 21.542969 10.027344 C 21.542969 11.042969 20.722656 11.859375 19.707031 11.859375 L 2.292969 11.859375 C 1.277344 11.859375 0.457031 11.042969 0.457031 10.027344 Z M 0.457031 10.027344 "/>
<path style="fill-rule:nonzero;fill:rgb(36.078431%,66.666667%,20.784314%);fill-opacity:1;stroke-width:25.912724;stroke-linecap:butt;stroke-linejoin:miter;stroke:rgb(0%,50.196078%,0%);stroke-opacity:1;stroke-miterlimit:4;" d="M 29 443.545455 L 29 68.454545 C 29 46.636364 46.636364 29 68.454545 29 L 443.545455 29 C 465.363636 29 483 46.636364 483 68.454545 L 483 443.545455 C 483 465.363636 465.363636 483 443.545455 483 L 68.454545 483 C 46.636364 483 29 465.363636 29 443.545455 Z M 29 443.545455 " transform="matrix(0.0429688,0,0,0.0429688,0,0)"/>
<path style="fill-rule:nonzero;fill:rgb(100%,100%,100%);fill-opacity:1;stroke-width:4.266667;stroke-linecap:butt;stroke-linejoin:miter;stroke:rgb(100%,100%,100%);stroke-opacity:1;stroke-miterlimit:4;" d="M -152.700773 178.717095 C -152.700773 303.933391 -254.208179 405.440797 -379.424475 405.440797 C -504.640771 405.440797 -606.148178 303.933391 -606.148178 178.717095 C -606.148178 53.500799 -504.640771 -48.006608 -379.424475 -48.006608 C -254.208179 -48.006608 -152.700773 53.500799 -152.700773 178.717095 Z M -152.700773 178.717095 " transform="matrix(0.032787,0,0,0.032787,23.440196,5.1404)"/>
<path style="fill-rule:nonzero;fill:rgb(36.078431%,66.666667%,20.784314%);fill-opacity:1;stroke-width:4.266667;stroke-linecap:butt;stroke-linejoin:miter;stroke:rgb(100%,100%,100%);stroke-opacity:1;stroke-miterlimit:4;" d="M -379.424475 -48.006608 C -398.486899 -48.006608 -416.953622 -45.623805 -434.586364 -41.215619 L -446.262099 -35.616032 L -456.627292 -32.875809 L -463.29914 -25.96568 L -470.924109 -18.578991 L -478.906499 -19.889533 L -479.74048 -24.655139 C -489.509973 -19.889533 -498.802904 -14.409086 -507.619275 -8.332938 L -507.619275 -0.469689 L -498.683764 -1.78023 L -500.709147 6.917001 L -497.373222 15.614231 C -497.373222 15.614231 -498.207203 18.950156 -500.232586 19.903277 C -502.257969 20.975538 -508.453256 14.899391 -508.453256 14.899391 L -509.168097 6.917001 L -515.720805 5.606459 L -523.464915 10.252925 C -523.464915 10.252925 -526.562559 13.588849 -524.537176 16.924773 C -522.511794 20.260697 -521.201252 23.954042 -523.226635 24.907163 C -525.132877 26.098565 -535.25979 27.647386 -535.25979 27.647386 L -541.812498 35.034076 L -551.82027 40.276242 L -554.679634 46.23325 L -561.113202 54.096499 L -566.474509 60.530067 C -566.474509 60.530067 -573.146357 65.176533 -572.550656 67.201916 C -571.597535 69.108158 -571.359255 76.852268 -571.359255 76.852268 L -572.074096 81.498734 L -577.077982 77.209688 L -576.363141 70.53784 L -577.792823 68.750738 C -582.081868 76.613988 -586.013493 84.715518 -589.468557 93.174468 L -586.251773 96.748673 L -591.85136 102.82482 L -591.85136 107.471286 L -584.464671 114.143134 L -583.39241 118.55132 L -580.771326 128.082532 L -572.431516 126.176289 L -571.954955 131.895016 L -571.359255 126.65285 L -562.662024 121.887244 L -562.542884 121.410683 L -553.130812 121.410683 L -548.484346 123.793486 L -534.068388 126.77199 L -530.255903 133.682119 L -524.775457 139.162565 C -524.775457 139.162565 -518.818449 138.924285 -517.865328 138.924285 C -516.912207 138.924285 -511.78918 147.621516 -511.78918 147.621516 L -508.929817 154.650785 L -494.513859 162.752315 L -485.340067 162.156614 L -480.336181 168.113622 L -474.260034 171.926106 L -475.332295 179.312796 L -483.433825 190.154549 C -483.433825 190.154549 -484.506086 205.047068 -484.506086 206.476749 C -484.506086 207.787291 -487.842011 217.795064 -487.842011 217.795064 L -498.207203 222.79895 L -503.21109 234.593824 L -510.240358 251.630866 L -518.222748 252.703127 L -520.248131 258.064434 L -515.244245 260.447237 L -516.554786 266.761665 L -524.894597 268.787047 L -530.255903 275.697176 L -528.230521 280.820202 C -528.230521 280.820202 -526.443419 284.870967 -527.15826 285.824088 C -527.8731 286.77721 -532.519566 289.874853 -532.519566 289.874853 L -525.490297 293.568198 L -528.230521 301.312308 L -525.490297 308.698997 L -520.248131 315.132565 L -533.234407 309.532978 L -542.646479 294.87874 C -542.646479 294.87874 -547.292945 286.300649 -546.578104 285.228388 C -545.982403 284.394407 -549.080047 272.599532 -549.080047 272.599532 L -553.964793 252.345707 L -555.156194 216.127101 L -555.751895 208.144711 L -569.810433 194.086174 L -575.171739 179.193655 L -580.294766 166.80308 L -580.533046 154.889065 L -574.456899 146.787535 L -572.431516 136.184062 L -572.193236 133.562979 L -576.00572 130.584475 L -581.367027 134.5161 L -590.659959 125.580589 L -592.208781 117.836479 L -597.093527 115.096255 C -603.050534 135.350081 -606.148178 156.676167 -606.148178 178.717095 C -606.148178 253.179688 -570.286993 319.30247 -514.767684 360.644102 L -508.334116 357.546458 L -513.695423 350.874609 L -504.402491 346.466424 L -499.398605 339.079735 C -499.517745 339.079735 -499.636885 338.841454 -499.636885 338.841454 L -499.279465 338.841454 L -499.398605 339.079735 C -498.683764 339.794576 -494.394719 343.726201 -494.394719 345.513303 C -494.394719 347.419545 -487.36545 361.478083 -487.36545 361.478083 L -487.72287 362.192924 L -479.38306 366.243689 L -455.67417 363.860886 L -421.361808 366.243689 L -418.383304 365.886268 L -406.469289 355.640215 L -361.076893 353.495693 L -334.74692 354.567954 C -334.74692 354.567954 -330.338734 348.491806 -327.00281 348.491806 C -323.786026 348.491806 -310.79975 347.538685 -310.79975 347.538685 L -301.149398 340.866837 L -291.499046 348.849227 L -276.129967 347.896106 C -276.129967 347.896106 -284.708057 358.380439 -282.801815 358.856999 C -280.895573 359.33356 -265.049933 350.874609 -265.049933 350.874609 L -232.405532 344.202761 L -224.065722 343.964481 C -180.103007 302.503709 -152.700773 243.886756 -152.700773 178.717095 L -158.30036 172.283527 L -179.626446 140.353967 L -174.97998 139.639126 L -175.099121 139.877406 L -163.304246 153.459383 L -156.036697 159.535531 L -152.819913 171.092125 C -153.296473 155.961326 -155.321856 141.187948 -158.65778 126.89113 L -161.398004 123.793486 L -164.733928 118.7896 L -165.448769 115.453676 L -169.142113 113.070873 L -170.214375 116.406797 L -173.073738 115.811096 L -174.145999 111.760331 L -173.788579 106.160744 L -174.50342 102.4674 L -177.839344 101.752559 L -177.481924 105.803324 L -181.175268 107.471286 L -182.24753 104.373642 L -182.24753 101.752559 L -187.489696 94.84243 L -189.157658 90.553385 L -189.872499 86.86004 L -191.540461 86.86004 L -195.472086 89.242843 L -198.80801 91.268226 L -201.905654 94.96157 C -201.905654 94.96157 -207.981802 101.752559 -208.577502 101.871699 C -208.934923 102.109979 -211.913427 105.922464 -211.913427 105.922464 L -214.65365 109.258388 L -214.29623 116.645077 L -215.606771 124.865748 L -216.559892 128.201672 L -219.895816 130.227054 L -222.278619 127.248551 L -225.257123 120.338422 L -227.282506 112.951733 L -231.09499 104.254502 L -232.643812 95.318991 L -233.716074 90.315105 L -234.669195 93.651029 L -237.647699 93.651029 L -238.8391 90.672525 L -243.247286 84.596377 L -249.323433 79.354211 L -248.966013 78.87765 L -267.909296 79.354211 L -270.64952 76.256567 L -274.819425 77.328828 L -281.252993 73.635484 L -284.946338 67.916757 L -287.924841 62.31717 L -287.924841 71.014401 L -283.278376 75.303446 L -280.419012 79.592491 L -279.10847 83.047556 L -274.700285 84.953798 L -273.032323 82.332715 L -270.411239 80.664753 L -266.360474 85.311218 L -263.501111 88.647143 L -263.739391 94.008449 L -267.551876 100.322877 L -273.866304 104.016222 L -278.51277 109.734949 L -284.946338 111.402911 L -290.545925 116.645077 L -296.979493 110.33065 L -301.625958 102.58654 L -305.915004 94.60415 L -309.965769 87.217461 L -315.327075 77.209688 L -317.948159 71.490961 L -322.594625 72.205802 L -321.641503 77.209688 L -317.233318 84.953798 L -313.897394 91.268226 L -311.03803 96.272112 L -309.370068 104.969343 L -302.340799 110.33065 L -299.362296 116.287657 L -295.668951 122.363805 L -289.592803 124.031767 L -286.6143 121.053263 L -280.299872 121.053263 L -281.014713 128.439952 L -283.754936 133.443838 L -285.303758 139.043425 L -289.711944 143.332471 L -301.030258 157.391008 L -307.463826 167.398781 L -306.034144 179.431936 L -304.127902 188.129167 L -304.127902 197.422098 L -312.705992 205.761909 L -316.399337 213.744298 L -316.756757 221.726688 L -323.666886 228.755957 L -324.381727 235.070385 L -334.74692 251.154305 L -340.346507 251.154305 L -349.758578 252.107426 L -353.451923 255.681631 L -354.405044 248.414082 L -355.119885 242.099654 L -361.076893 233.998124 L -361.434313 228.994237 L -364.412817 217.318503 L -366.438199 215.29312 L -368.701862 203.021685 L -368.344442 196.349837 L -365.365938 189.320568 L -365.723358 181.099898 L -367.748741 168.351902 L -372.156926 163.348016 L -375.37371 157.391008 L -374.182309 153.697664 L -372.871767 148.932058 L -372.871767 143.451611 L -376.445972 140.711387 L -382.164699 140.353967 L -383.832661 137.018043 L -389.074827 136.303202 L -393.483013 138.328584 L -410.162634 138.328584 L -411.115755 142.37935 L -415.762221 141.307088 L -420.408686 137.375463 L -428.510217 127.725111 L -430.773879 121.053263 L -434.824644 114.143134 L -434.109804 107.709566 L -432.084421 102.34826 L -431.727001 85.072938 L -425.174292 76.018287 L -415.762221 68.631598 L -412.068876 58.266405 L -406.111869 52.905098 L -397.057217 52.666818 L -392.410752 48.377772 L -377.756513 49.092613 L -377.399093 45.756689 L -371.442085 45.399269 L -371.442085 55.407041 L -362.030014 61.006628 L -352.737082 66.367935 L -349.043738 61.364048 L -345.707813 58.266405 L -343.08673 61.721469 L -328.432492 64.342552 L -326.407109 59.338666 L -321.998924 60.053507 L -318.305579 60.410927 L -316.995038 52.071117 L -317.352458 47.782072 L -321.403223 47.067231 L -324.381727 49.450034 L -326.049689 46.59067 L -332.602397 48.854333 L -336.295742 44.565288 L -338.321124 39.561401 L -333.674658 38.60828 L -332.364117 36.582898 L -326.049689 33.246973 L -319.377841 33.246973 L -311.633731 34.795795 L -306.391564 33.485254 L -308.655227 28.838788 L -312.705992 26.813405 L -317.352458 22.76264 L -314.969655 18.831015 L -321.998924 18.831015 L -320.330962 22.40522 L -323.071185 24.788023 L -325.334848 23.120061 L -326.407109 19.784137 L -332.364117 18.831015 L -334.032079 26.098565 L -336.653162 31.102451 L -336.414882 36.463757 L -337.963704 35.748917 L -342.72931 34.080954 L -344.754692 36.463757 L -345.707813 40.157102 L -344.039851 46.114109 L -347.018355 47.186371 L -351.06912 43.135606 L -352.975362 41.825064 L -352.975362 34.438375 L -357.026127 29.791909 L -365.008517 21.809519 L -368.701862 22.16694 L -369.774123 24.073182 L -358.336669 34.795795 L -357.026127 37.536019 L -359.05151 37.536019 L -358.098389 41.467644 L -361.434313 43.135606 L -362.744855 38.48914 L -374.420589 24.788023 L -376.803392 26.813405 L -387.168585 28.481368 L -392.768172 35.510636 L -399.0826 46.82895 L -405.516168 49.211753 L -413.498558 44.803568 L -413.498558 38.48914 L -411.473175 30.74503 L -406.82671 26.098565 L -405.516168 29.077068 L -398.486899 27.766527 L -397.414638 27.766527 L -395.508395 25.145443 C -395.508395 25.145443 -396.104096 22.76264 -396.461517 22.76264 C -396.818937 22.76264 -398.129479 20.379837 -398.129479 20.379837 L -400.154861 17.043913 L -403.133365 15.018531 L -401.465403 12.635728 L -398.725179 12.397447 C -398.725179 12.397447 -396.699797 11.920887 -396.104096 11.682607 C -395.389255 11.444326 -392.768172 10.610345 -392.768172 10.610345 L -389.074827 9.657224 L -386.334604 6.917001 L -384.666642 5.010758 C -384.666642 5.010758 -383.3561 2.866236 -383.3561 2.032255 C -383.3561 1.079133 -385.500623 0.126012 -385.738903 -0.946249 C -385.977184 -2.018511 -384.070941 -1.66109 -384.070941 -1.66109 L -379.424475 0.721713 C -379.424475 0.721713 -376.445972 -0.231408 -376.088551 -0.707969 C -375.731131 -1.065389 -375.13543 -2.971632 -375.13543 -2.971632 C -375.13543 -2.971632 -376.565112 -5.354435 -376.445972 -5.950135 C -376.326832 -6.545836 -374.420589 -8.928639 -374.420589 -8.928639 L -371.442085 -6.664976 L -373.110048 -3.924753 L -373.467468 -1.54195 L -371.084665 -1.54195 C -370.727245 -1.54195 -366.79562 -1.30367 -364.770237 -1.54195 C -362.744855 -1.66109 -362.149154 -2.256791 -361.434313 -2.852492 C -360.600332 -3.448192 -359.05151 -3.567332 -359.05151 -3.567332 L -356.430427 -2.495071 L -356.073006 -2.495071 L -352.022241 -5.473575 L -351.3074 -6.069276 C -351.3074 -6.545836 -351.06912 -7.022397 -351.18826 -7.260677 C -351.42654 -7.856378 -351.18826 -10.596601 -351.18826 -10.596601 C -351.18826 -10.596601 -348.924597 -13.575105 -347.852336 -13.932525 C -346.780075 -14.289946 -343.20587 -13.336825 -342.491029 -13.575105 C -341.895329 -13.932525 -339.869946 -15.957908 -339.869946 -15.957908 L -339.155105 -18.340711 L -342.133609 -20.008673 L -345.469533 -19.293832 L -349.162878 -19.055552 L -351.18826 -20.604374 L -351.18826 -24.416858 L -350.473419 -27.037942 L -348.090616 -29.778165 L -348.090616 -31.088707 L -350.83084 -33.114089 L -353.094503 -31.446127 L -354.762465 -29.420745 L -357.145268 -26.442241 C -357.145268 -26.442241 -359.17065 -24.774279 -359.17065 -24.416858 C -359.17065 -24.059438 -360.481192 -23.344597 -360.481192 -23.344597 L -361.196033 -20.008673 L -359.528071 -19.293832 C -359.528071 -19.293832 -357.621828 -17.149309 -357.502688 -16.911029 C -357.383548 -16.672749 -358.217529 -15.243067 -358.217529 -15.243067 L -361.196033 -13.336825 C -361.196033 -13.336825 -361.315173 -9.28606 -361.434313 -8.928639 C -361.553453 -8.571219 -365.365938 -6.188416 -365.365938 -6.188416 L -366.438199 -8.928639 L -368.821002 -12.264563 L -370.846385 -16.196188 C -370.846385 -16.196188 -372.156926 -15.957908 -373.467468 -15.600487 C -374.89715 -15.123927 -375.13543 -13.932525 -375.13543 -13.932525 C -375.13543 -13.932525 -377.637373 -12.621984 -377.875653 -12.621984 C -377.994794 -12.621984 -379.424475 -14.289946 -379.424475 -14.289946 L -380.854157 -17.86415 L -379.901036 -21.557495 L -377.160813 -21.914915 L -370.131544 -29.539885 L -365.485078 -34.305491 L -355.000745 -42.526161 L -344.992972 -44.551544 L -335.700041 -43.002722 L -326.407109 -39.666797 L -319.735261 -36.211733 L -323.071185 -34.901192 L -330.457874 -35.258612 L -331.053575 -32.518389 L -329.385613 -29.897305 L -326.049689 -27.514502 L -314.612235 -33.70979 L -313.897394 -34.186351 L -313.420833 -34.305491 L -313.063413 -34.424631 L -313.301693 -34.305491 L -305.319303 -35.616032 C -305.438443 -35.735173 -305.557583 -35.735173 -305.676723 -35.735173 L -313.420833 -34.424631 L -313.063413 -34.662911 C -312.825132 -34.662911 -310.323189 -35.735173 -307.940386 -36.569154 C -330.457874 -43.955843 -354.405044 -48.006608 -379.424475 -48.006608 Z M -428.867637 -33.47151 L -428.867637 -33.35237 L -416.596202 -33.35237 L -414.213399 -30.373866 L -417.906743 -26.680521 L -423.50633 -25.36998 C -423.50633 -25.36998 -425.412573 -25.36998 -430.178179 -29.063324 Z M -399.20174 -14.409086 L -397.652918 -10.120041 L -393.959574 -6.069276 L -392.887312 0.840853 L -390.027949 4.772478 L -395.270115 7.274421 L -401.346263 8.227542 L -402.895085 6.55958 L -400.512282 2.627955 L -397.772058 -0.112268 L -398.486899 -3.090772 L -403.490785 -5.473575 C -403.490785 -5.473575 -402.656804 -8.809499 -401.941963 -12.026283 Z M -407.660691 -1.89937 L -405.039607 1.793974 L -406.588429 4.772478 L -410.639194 3.104516 Z M -290.426784 18.116175 C -290.665065 18.116175 -290.784205 18.116175 -291.022485 18.235315 L -291.141625 18.592735 C -292.571307 19.069296 -297.098633 22.76264 -297.098633 22.76264 L -298.409174 28.362227 C -298.409174 28.362227 -297.336913 30.62589 -295.788091 31.340731 C -294.358409 32.174712 -291.141625 36.344617 -291.141625 36.344617 L -288.758822 43.373886 L -283.159235 47.067231 L -278.75105 45.041848 L -282.801815 38.60828 L -285.780319 33.604394 L -288.639682 25.622004 L -289.711944 22.16694 L -286.97172 19.784137 C -286.97172 19.784137 -288.877962 18.116175 -290.426784 18.116175 Z M -375.37371 31.221591 L -373.467468 36.225477 L -373.824888 39.561401 L -376.445972 41.944204 L -379.305335 39.084841 Z M -388.836547 39.203981 L -387.287725 40.991083 L -388.836547 41.229363 Z M -365.961639 44.327007 L -361.553453 48.258632 L -364.531957 50.522295 L -367.987021 45.041848 Z M -580.652186 88.885423 L -571.954955 88.885423 L -564.568266 94.246729 L -563.972565 97.106093 L -568.142471 99.727176 L -571.954955 94.60415 L -578.388523 93.412748 L -583.98811 90.553385 L -580.533046 88.885423 Z M -173.788579 126.65285 L -160.444882 141.902789 L -157.585519 150.95744 C -157.585519 150.95744 -163.304246 150.361739 -164.138227 150.361739 C -165.091348 150.361739 -172.716318 127.963392 -173.788579 126.65285 Z M -212.151707 127.248551 L -210.841165 128.916513 L -210.245464 134.039539 L -213.938809 137.971164 L -215.606771 131.537596 Z M -287.09086 191.703371 L -284.112357 191.941651 L -283.159235 196.707257 L -283.159235 202.664265 L -284.231497 205.642768 L -288.401402 212.076336 L -287.805701 217.318503 L -290.426784 221.726688 L -294.83497 228.398537 L -298.409174 227.326275 L -300.077136 220.892707 L -300.077136 214.9357 L -295.788091 211.123215 L -297.456053 209.574393 L -300.077136 205.761909 L -296.383792 202.902545 L -291.260765 200.519742 C -291.260765 200.519742 -287.329141 197.183818 -287.09086 196.468977 Z M -505.951313 292.853357 L -505.832173 292.853357 L -505.951313 292.972497 L -504.045071 297.499823 L -509.287237 294.87874 L -508.214976 294.521319 L -505.951313 292.972497 Z M -515.244245 294.87874 L -515.125105 294.87874 L -515.244245 294.99788 L -512.861442 299.048645 L -517.507908 300.120906 L -515.244245 294.99788 Z M -496.062681 372.915537 L -496.420101 372.915537 C -493.799018 374.583499 -491.177935 376.132321 -488.437711 377.562003 L -481.646723 377.562003 Z M -496.062681 372.915537 " transform="matrix(0.032787,0,0,0.032787,23.440196,5.1404)"/>
</g>
</svg>
