
<svg xmlns="http://www.w3.org/2000/svg" xmlns:xlink="http://www.w3.org/1999/xlink" width="22px" height="22px" viewBox="0 0 22 22" version="1.1">
<g id="surface1">
<path style="fill-rule:nonzero;fill:rgb(29.019608%,68.235294%,90.196078%);fill-opacity:1;stroke-width:27.064299;stroke-linecap:butt;stroke-linejoin:miter;stroke:rgb(29.019608%,68.235294%,90.196078%);stroke-opacity:1;stroke-miterlimit:4;" d="M 88.454545 34.363636 L 423.545455 34.363636 C 453.454545 34.363636 477.636364 58.545455 477.636364 88.454545 L 477.636364 423.545455 C 477.636364 453.454545 453.454545 477.636364 423.545455 477.636364 L 88.454545 477.636364 C 58.545455 477.636364 34.363636 453.454545 34.363636 423.545455 L 34.363636 88.454545 C 34.363636 58.545455 58.545455 34.363636 88.454545 34.363636 Z M 88.454545 34.363636 " transform="matrix(0.0429688,0,0,0.0429688,0,0)"/>
<path style=" stroke:none;fill-rule:nonzero;fill:rgb(100%,100%,100%);fill-opacity:1;" d="M 19.367188 12.554688 C 19.269531 12.65625 19.160156 12.746094 19.042969 12.824219 C 18.984375 12.863281 18.921875 12.902344 18.859375 12.933594 C 19.046875 12.832031 19.21875 12.707031 19.367188 12.554688 Z M 19.367188 12.554688 "/>
<path style=" stroke:none;fill-rule:nonzero;fill:rgb(100%,100%,100%);fill-opacity:1;" d="M 19.746094 12.050781 C 19.710938 12.109375 19.675781 12.171875 19.636719 12.230469 C 19.558594 12.347656 19.46875 12.457031 19.367188 12.554688 C 19.515625 12.40625 19.644531 12.234375 19.746094 12.050781 Z M 19.746094 12.050781 "/>
<path style=" stroke:none;fill-rule:nonzero;fill:rgb(100%,100%,100%);fill-opacity:1;" d="M 19.914062 11.65625 C 19.890625 11.722656 19.867188 11.789062 19.839844 11.855469 C 19.8125 11.921875 19.78125 11.988281 19.746094 12.050781 C 19.8125 11.925781 19.871094 11.792969 19.914062 11.65625 Z M 19.914062 11.65625 "/>
<path style=" stroke:none;fill-rule:nonzero;fill:rgb(100%,100%,100%);fill-opacity:1;" d="M 20.011719 11 C 20.011719 11.074219 20.007812 11.152344 20 11.226562 C 19.992188 11.300781 19.980469 11.371094 19.96875 11.445312 C 19.953125 11.515625 19.933594 11.585938 19.914062 11.65625 C 19.976562 11.449219 20.011719 11.226562 20.011719 11 Z M 20.011719 11 "/>
<path style=" stroke:none;fill-rule:nonzero;fill:rgb(52.156863%,81.176471%,89.019608%);fill-opacity:1;" d="M 11 1.988281 L 11 11 L 20.011719 11 L 20.011719 4.1875 C 20.011719 2.972656 19.027344 1.988281 17.8125 1.988281 Z M 11 1.988281 "/>
<path style=" stroke:none;fill-rule:nonzero;fill:rgb(14.901961%,65.882353%,78.039216%);fill-opacity:1;" d="M 11 20.011719 L 11 11 L 1.988281 11 L 1.988281 17.8125 C 1.988281 19.027344 2.972656 20.011719 4.1875 20.011719 Z M 11 20.011719 "/>
<path style=" stroke:none;fill-rule:nonzero;fill:rgb(29.019608%,74.117647%,83.137255%);fill-opacity:1;" d="M 1.988281 11 L 11 11 L 11 1.988281 L 4.1875 1.988281 C 2.972656 1.988281 1.988281 2.972656 1.988281 4.1875 Z M 1.988281 11 "/>
<path style=" stroke:none;fill-rule:nonzero;fill:rgb(95.294118%,72.156863%,36.862745%);fill-opacity:1;" d="M 20.011719 11 L 11 11 L 11 20.011719 L 17.8125 20.011719 C 19.027344 20.011719 20.011719 19.027344 20.011719 17.8125 Z M 20.011719 11 "/>
<path style=" stroke:none;fill-rule:nonzero;fill:rgb(97.254902%,97.254902%,97.254902%);fill-opacity:1;" d="M 16.464844 5.496094 L 16.464844 7.199219 L 13.871094 7.199219 L 13.644531 10.742188 C 13.601562 11.355469 13.578125 11.890625 13.578125 12.339844 C 13.578125 13.417969 13.695312 14.078125 13.9375 14.320312 C 14.183594 14.554688 14.476562 14.671875 14.820312 14.671875 C 15.535156 14.671875 15.960938 14.199219 16.09375 13.257812 L 16.5 13.257812 C 16.25 15.421875 15.425781 16.5 14.011719 16.5 C 13.359375 16.5 12.828125 16.289062 12.425781 15.871094 C 12.03125 15.453125 11.832031 14.828125 11.832031 14.007812 C 11.832031 13.464844 11.910156 12.3125 12.070312 10.558594 L 12.371094 7.203125 L 9.996094 7.203125 C 9.839844 10.03125 9.648438 12.089844 9.429688 13.402344 C 9.210938 14.707031 8.96875 15.550781 8.699219 15.929688 C 8.4375 16.308594 8.082031 16.503906 7.628906 16.503906 C 7.285156 16.503906 6.992188 16.398438 6.753906 16.1875 C 6.523438 15.976562 6.40625 15.703125 6.40625 15.359375 C 6.40625 15.035156 6.609375 14.585938 7.011719 14.019531 C 7.601562 13.195312 8.039062 12.34375 8.332031 11.453125 C 8.621094 10.5625 8.84375 9.144531 8.992188 7.203125 L 8.230469 7.203125 C 7.617188 7.203125 7.148438 7.347656 6.820312 7.632812 C 6.5 7.910156 6.195312 8.316406 5.90625 8.84375 L 5.5 8.84375 C 5.71875 8.011719 5.996094 7.328125 6.339844 6.792969 C 6.683594 6.257812 7.035156 5.90625 7.394531 5.742188 C 7.757812 5.582031 8.402344 5.5 9.328125 5.5 L 16.46875 5.5 "/>
</g>
</svg>
