
<svg xmlns="http://www.w3.org/2000/svg" xmlns:xlink="http://www.w3.org/1999/xlink" width="22px" height="22px" viewBox="0 0 22 22" version="1.1">
<g id="surface1">
<path style="fill-rule:nonzero;fill:rgb(81.960784%,85.098039%,90.196078%);fill-opacity:1;stroke-width:27.954165;stroke-linecap:butt;stroke-linejoin:miter;stroke:rgb(0%,25.882353%,32.941176%);stroke-opacity:1;stroke-miterlimit:4;" d="M 82.909091 27 L 429.090909 27 C 459.909091 27 485 52.090909 485 82.909091 L 485 429.090909 C 485 459.909091 459.909091 485 429.090909 485 L 82.909091 485 C 52.090909 485 27 459.909091 27 429.090909 L 27 82.909091 C 27 52.090909 52.090909 27 82.909091 27 Z M 82.909091 27 " transform="matrix(0.0429688,0,0,0.0429688,0,0)"/>
<path style="fill-rule:nonzero;fill:rgb(74.901961%,86.27451%,69.019608%);fill-opacity:1;stroke-width:3.441855;stroke-linecap:butt;stroke-linejoin:miter;stroke:rgb(0%,25.882353%,32.941176%);stroke-opacity:1;stroke-miterlimit:4;" d="M 435.636364 263.636364 C 435.636364 364.636364 353.727273 446.545455 252.727273 446.545455 C 151.727273 446.545455 69.818182 364.636364 69.818182 263.636364 C 69.818182 162.545455 151.727273 80.636364 252.727273 80.636364 C 353.727273 80.636364 435.636364 162.545455 435.636364 263.636364 Z M 435.636364 263.636364 " transform="matrix(0.0429688,0,0,0.0429688,0,0)"/>
<path style="fill-rule:nonzero;fill:rgb(0%,25.882353%,32.941176%);fill-opacity:1;stroke-width:3.441855;stroke-linecap:butt;stroke-linejoin:miter;stroke:rgb(100%,100%,100%);stroke-opacity:1;stroke-miterlimit:4;" d="M 252.727273 80.636364 C 237.363636 80.636364 222.454545 82.545455 208.181818 86.181818 L 198.818182 90.727273 L 190.454545 92.909091 L 185.090909 98.545455 L 178.909091 104.454545 L 172.454545 103.363636 L 171.818182 99.545455 C 164 103.363636 156.454545 107.818182 149.272727 112.727273 L 149.272727 119 L 156.545455 118 L 154.909091 125 L 157.636364 132 C 157.636364 132 156.909091 134.727273 155.272727 135.454545 C 153.727273 136.363636 148.636364 131.454545 148.636364 131.454545 L 148.090909 125 L 142.818182 123.909091 L 136.545455 127.727273 C 136.545455 127.727273 134 130.363636 135.727273 133.090909 C 137.363636 135.818182 138.363636 138.727273 136.727273 139.545455 C 135.181818 140.454545 127.090909 141.727273 127.090909 141.727273 L 121.727273 147.636364 L 113.727273 151.909091 L 111.363636 156.727273 L 106.181818 163 L 101.909091 168.181818 C 101.909091 168.181818 96.454545 172 97 173.636364 C 97.727273 175.181818 97.909091 181.363636 97.909091 181.363636 L 97.363636 185.181818 L 93.272727 181.727273 L 93.818182 176.363636 L 92.727273 174.909091 C 89.272727 181.181818 86.090909 187.818182 83.272727 194.545455 L 85.909091 197.545455 L 81.454545 202.363636 L 81.454545 206.181818 L 87.363636 211.454545 L 88.181818 215 L 90.363636 222.818182 L 97 221.181818 L 97.454545 225.818182 L 97.909091 221.545455 L 104.909091 217.818182 L 105.090909 217.363636 L 112.545455 217.363636 L 116.363636 219.272727 L 128 221.636364 L 131 227.272727 L 135.545455 231.727273 C 135.545455 231.727273 140.272727 231.454545 141.090909 231.454545 C 141.818182 231.454545 146 238.454545 146 238.454545 L 148.272727 244.181818 L 159.909091 250.727273 L 167.272727 250.181818 L 171.363636 255.090909 L 176.181818 258.090909 L 175.363636 264.090909 L 168.909091 272.818182 C 168.909091 272.818182 168 284.818182 168 285.909091 C 168 287.090909 165.272727 295.090909 165.272727 295.090909 L 156.909091 299.090909 L 152.909091 308.636364 L 147.272727 322.363636 L 140.818182 323.272727 L 139.181818 327.636364 L 143.181818 329.454545 L 142.090909 334.636364 L 135.363636 336.272727 L 131.090909 341.818182 L 132.727273 345.909091 C 132.727273 345.909091 134.090909 349.181818 133.545455 350 C 133 350.818182 129.272727 353.272727 129.272727 353.272727 L 134.909091 356.272727 L 132.727273 362.545455 L 134.909091 368.454545 L 139.181818 373.636364 L 128.636364 369.090909 L 121.090909 357.272727 C 121.090909 357.272727 117.363636 350.363636 117.909091 349.545455 C 118.454545 348.818182 115.909091 339.272727 115.909091 339.272727 L 111.909091 323 L 111 293.727273 L 110.454545 287.272727 L 99.181818 276 L 94.818182 263.909091 L 90.727273 254 L 90.545455 244.363636 L 95.454545 237.909091 L 97 229.272727 L 97.272727 227.181818 L 94.181818 224.727273 L 89.909091 228 L 82.363636 220.727273 L 81.090909 214.454545 L 77.090909 212.272727 C 72.363636 228.545455 69.818182 245.818182 69.818182 263.636364 C 69.818182 323.727273 98.818182 377 143.545455 410.363636 L 148.727273 407.818182 L 144.454545 402.454545 L 151.909091 398.909091 L 155.909091 393 C 155.909091 392.909091 155.727273 392.818182 155.727273 392.818182 L 156.090909 392.727273 L 155.909091 393 C 156.454545 393.454545 160 396.727273 160 398.181818 C 160 399.727273 165.636364 411.090909 165.636364 411.090909 L 165.454545 411.636364 L 172.090909 414.909091 L 191.181818 412.909091 L 219 414.909091 L 221.272727 414.545455 L 230.909091 406.272727 L 267.545455 404.636364 L 288.727273 405.454545 C 288.727273 405.454545 292.363636 400.545455 295.090909 400.545455 C 297.636364 400.545455 308.090909 399.727273 308.090909 399.727273 L 315.909091 394.454545 L 323.727273 400.909091 L 336.090909 400.090909 C 336.090909 400.090909 329.181818 408.545455 330.727273 408.909091 C 332.272727 409.272727 345 402.454545 345 402.454545 L 371.363636 397.090909 L 378 396.818182 C 413.545455 363.454545 435.636364 316.090909 435.636364 263.636364 L 431.090909 258.454545 L 413.909091 232.636364 L 417.636364 232.090909 L 417.545455 232.272727 L 427.090909 243.272727 L 433 248.090909 L 435.545455 257.454545 C 435.181818 245.272727 433.545455 233.272727 430.818182 221.818182 L 428.636364 219.363636 L 425.909091 215.272727 L 425.363636 212.545455 L 422.363636 210.727273 L 421.545455 213.363636 L 419.181818 212.818182 L 418.363636 209.636364 L 418.636364 205 L 418.090909 202.090909 L 415.363636 201.545455 L 415.636364 204.727273 L 412.636364 206.090909 L 411.818182 203.636364 L 411.818182 201.545455 L 407.545455 196 L 406.272727 192.454545 L 405.636364 189.545455 L 404.363636 189.545455 L 401.090909 191.363636 L 398.363636 193 L 396 196 C 396 196 391 201.545455 390.636364 201.636364 C 390.272727 201.818182 387.909091 204.818182 387.909091 204.818182 L 385.727273 207.545455 L 386 213.545455 L 384.909091 220.090909 L 384.090909 222.818182 L 381.363636 224.454545 L 379.454545 222.090909 L 377.090909 216.454545 L 375.454545 210.545455 L 372.454545 203.545455 L 371.181818 196.272727 L 370.272727 192.272727 L 369.454545 194.909091 L 367.090909 194.909091 L 366.181818 192.545455 L 362.636364 187.727273 L 357.727273 183.363636 L 358 183.090909 L 342.727273 183.363636 L 340.545455 181 L 337.090909 181.818182 L 331.909091 178.818182 L 328.909091 174.181818 L 326.545455 169.636364 L 326.545455 176.636364 L 330.363636 180.181818 L 332.636364 183.636364 L 333.727273 186.363636 L 337.181818 188 L 338.545455 185.818182 L 340.727273 184.454545 L 343.909091 188.272727 L 346.272727 191 L 346.090909 195.272727 L 343 200.363636 L 337.909091 203.363636 L 334.090909 207.909091 L 329 209.272727 L 324.363636 213.545455 L 319.272727 208.363636 L 315.545455 202.181818 L 312 195.727273 L 308.818182 189.818182 L 304.454545 181.727273 L 302.272727 177.181818 L 298.545455 177.727273 L 299.363636 181.727273 L 302.909091 187.909091 L 305.545455 193 L 308 197.090909 L 309.272727 204.090909 L 314.909091 208.454545 L 317.363636 213.272727 L 320.363636 218.090909 L 325.181818 219.454545 L 327.545455 217.090909 L 332.727273 217.090909 L 332.181818 223 L 330 227 L 328.636364 231.636364 L 325.090909 235.090909 L 316 246.363636 L 310.818182 254.454545 L 311.909091 264.181818 L 313.545455 271.181818 L 313.545455 278.727273 L 306.545455 285.363636 L 303.545455 291.909091 L 303.272727 298.363636 L 297.727273 304 L 297.090909 309.090909 L 288.818182 322 L 284.272727 322 L 276.727273 322.727273 L 273.727273 325.727273 L 273 319.818182 L 272.363636 314.727273 L 267.545455 308.272727 L 267.272727 304.181818 L 264.909091 294.727273 L 263.272727 293.090909 L 261.363636 283.181818 L 261.636364 277.818182 L 264.090909 272.181818 L 263.818182 265.545455 L 262.181818 255.272727 L 258.636364 251.272727 L 256 246.363636 L 257 243.363636 L 258.090909 239.636364 L 258.090909 235.090909 L 255.090909 232.909091 L 250.545455 232.727273 L 249.272727 230 L 244.909091 229.454545 L 241.454545 231 L 228 231 L 227.181818 234.272727 L 223.454545 233.454545 L 219.636364 230.272727 L 213.181818 222.454545 L 211.272727 217.090909 L 208.090909 211.545455 L 208.636364 206.272727 L 210.272727 202 L 210.545455 188 L 215.909091 180.727273 L 223.454545 174.818182 L 226.363636 166.454545 L 231.272727 162.090909 L 238.545455 161.909091 L 242.272727 158.454545 L 254.090909 159 L 254.363636 156.272727 L 259.181818 156.090909 L 259.181818 164.181818 L 266.727273 168.636364 L 274.272727 172.909091 L 277.272727 168.909091 L 279.909091 166.454545 L 282.090909 169.181818 L 293.909091 171.363636 L 295.545455 167.363636 L 299.090909 167.909091 L 302 168.181818 L 303.090909 161.454545 L 302.818182 158 L 299.636364 157.454545 L 297.181818 159.363636 L 295.818182 157 L 290.454545 158.909091 L 287.545455 155.363636 L 285.909091 151.363636 L 289.636364 150.545455 L 290.727273 148.909091 L 295.818182 146.181818 L 301.181818 146.181818 L 307.363636 147.454545 L 311.727273 146.454545 L 309.818182 142.636364 L 306.545455 141 L 302.818182 137.818182 L 304.727273 134.545455 L 299.090909 134.545455 L 300.363636 137.545455 L 298.272727 139.454545 L 296.363636 138.090909 L 295.545455 135.363636 L 290.727273 134.545455 L 289.363636 140.454545 L 287.272727 144.545455 L 287.454545 148.818182 L 286.181818 148.272727 L 282.363636 146.909091 L 280.727273 148.818182 L 280 151.818182 L 281.272727 156.636364 L 278.909091 157.454545 L 275.636364 154.272727 L 274 153.181818 L 274 147.272727 L 270.818182 143.454545 L 264.363636 137 L 261.363636 137.272727 L 260.545455 138.909091 L 269.727273 147.454545 L 270.818182 149.636364 L 269.181818 149.636364 L 270 152.909091 L 267.272727 154.272727 L 266.181818 150.454545 L 256.818182 139.454545 L 254.909091 141.090909 L 246.545455 142.454545 L 242 148 L 236.818182 157.181818 L 231.727273 159.090909 L 225.272727 155.545455 L 225.272727 150.454545 L 226.909091 144.272727 L 230.636364 140.454545 L 231.727273 142.909091 L 237.363636 141.818182 L 238.181818 141.818182 L 239.818182 139.636364 C 239.818182 139.636364 239.272727 137.818182 239 137.818182 C 238.727273 137.818182 237.636364 135.909091 237.636364 135.909091 L 236.090909 133.181818 L 233.636364 131.545455 L 235 129.636364 L 237.181818 129.363636 C 237.181818 129.363636 238.727273 129 239.272727 128.818182 C 239.909091 128.636364 242 128 242 128 L 245 127.272727 L 247.181818 125.090909 L 248.454545 123.454545 C 248.454545 123.454545 249.545455 121.727273 249.545455 121.090909 C 249.545455 120.272727 247.818182 119.545455 247.636364 118.636364 C 247.454545 117.727273 249 118.090909 249 118.090909 L 252.727273 120 C 252.727273 120 255.181818 119.272727 255.454545 118.909091 C 255.727273 118.545455 256.181818 117 256.181818 117 C 256.181818 117 255.090909 115.090909 255.181818 114.636364 C 255.181818 114.181818 256.727273 112.181818 256.727273 112.181818 L 259.181818 114.090909 L 257.818182 116.272727 L 257.545455 118.181818 L 259.454545 118.181818 C 259.727273 118.181818 262.909091 118.363636 264.545455 118.181818 C 266.181818 118 266.727273 117.636364 267.272727 117.181818 C 267.909091 116.636364 269.181818 116.545455 269.181818 116.545455 L 271.363636 117.363636 L 271.636364 117.363636 L 274.818182 115 L 275.363636 114.545455 C 275.454545 114.090909 275.636364 113.727273 275.454545 113.636364 C 275.272727 113.090909 275.454545 110.909091 275.454545 110.909091 C 275.454545 110.909091 277.363636 108.454545 278.181818 108.181818 C 279.090909 107.909091 281.909091 108.636364 282.454545 108.454545 C 283 108.181818 284.636364 106.545455 284.636364 106.545455 L 285.181818 104.636364 L 282.818182 103.272727 L 280.181818 103.909091 L 277.181818 104.090909 L 275.545455 102.818182 L 275.545455 99.727273 L 276.090909 97.636364 L 278 95.454545 L 278 94.363636 L 275.818182 92.727273 L 273.909091 94.090909 L 272.636364 95.727273 L 270.727273 98.090909 C 270.727273 98.090909 269.090909 99.363636 269.090909 99.727273 C 269.090909 100 268 100.636364 268 100.636364 L 267.454545 103.272727 L 268.818182 103.818182 C 268.818182 103.818182 270.363636 105.545455 270.454545 105.727273 C 270.545455 105.909091 269.909091 107.090909 269.909091 107.090909 L 267.454545 108.727273 C 267.454545 108.727273 267.363636 112 267.272727 112.272727 C 267.181818 112.454545 264 114.363636 264 114.363636 L 263.181818 112.272727 L 261.272727 109.545455 L 259.636364 106.272727 C 259.636364 106.272727 258.636364 106.545455 257.545455 106.818182 C 256.363636 107.181818 256.181818 108.181818 256.181818 108.181818 C 256.181818 108.181818 254.181818 109.272727 254 109.272727 C 253.818182 109.272727 252.727273 107.909091 252.727273 107.909091 L 251.636364 105 L 252.363636 102 L 254.545455 101.727273 L 260.272727 95.545455 L 264 91.727273 L 272.363636 85.090909 L 280.454545 83.454545 L 288 84.818182 L 295.545455 87.454545 L 300.909091 90.181818 L 298.181818 91.272727 L 292.272727 91 L 291.727273 93.181818 L 293.090909 95.272727 L 295.727273 97.181818 L 305 92.272727 L 305.636364 91.818182 L 306 91.727273 L 306.272727 91.636364 L 306.090909 91.727273 L 312.545455 90.636364 C 312.454545 90.636364 312.363636 90.636364 312.272727 90.545455 L 306 91.636364 L 306.272727 91.454545 C 306.454545 91.454545 308.545455 90.636364 310.363636 90 C 292.272727 83.909091 272.909091 80.636364 252.727273 80.636364 Z M 212.818182 92.454545 L 222.727273 92.454545 L 224.727273 94.909091 L 221.727273 97.909091 L 217.181818 98.909091 C 217.181818 98.909091 215.636364 99 211.818182 96 Z M 236.727273 107.818182 L 238 111.272727 L 241 114.545455 L 241.909091 120.090909 L 244.181818 123.272727 L 239.909091 125.272727 L 235.090909 126.090909 L 233.818182 124.727273 L 235.727273 121.545455 L 237.909091 119.363636 L 237.363636 117 L 233.272727 115 C 233.272727 115 234 112.363636 234.636364 109.727273 Z M 229.909091 117.909091 L 232.090909 120.909091 L 230.818182 123.272727 L 227.545455 122 Z M 324.545455 134 C 324.363636 134 324.181818 134.090909 324.090909 134.090909 L 324 134.454545 C 322.818182 134.818182 319.181818 137.818182 319.181818 137.818182 L 318.090909 142.272727 C 318.090909 142.272727 318.909091 144.090909 320.181818 144.727273 C 321.363636 145.363636 324 148.727273 324 148.727273 L 325.909091 154.363636 L 330.454545 157.363636 L 333.909091 155.727273 L 330.636364 150.545455 L 328.363636 146.545455 L 326 140.090909 L 325.090909 137.363636 L 327.272727 135.363636 C 327.272727 135.363636 325.727273 134 324.545455 134 Z M 256.090909 144.636364 L 257.545455 148.636364 L 257.272727 151.363636 L 255.181818 153.272727 L 252.818182 150.909091 Z M 245.181818 151 L 246.454545 152.454545 L 245.181818 152.636364 Z M 263.636364 155.181818 L 267.181818 158.363636 L 264.727273 160.181818 L 262 155.727273 Z M 90.454545 191.090909 L 97.363636 191.090909 L 103.363636 195.454545 L 103.909091 197.727273 L 100.454545 199.909091 L 97.454545 195.818182 L 92.272727 194.818182 L 87.727273 192.454545 L 90.454545 191.181818 Z M 418.545455 221.545455 L 429.363636 233.909091 L 431.727273 241.272727 C 431.727273 241.272727 427.090909 240.636364 426.363636 240.636364 C 425.636364 240.636364 419.545455 222.727273 418.545455 221.545455 Z M 387.636364 222.090909 L 388.727273 223.363636 L 389.272727 227.545455 L 386.272727 230.727273 L 384.909091 225.545455 Z M 327.272727 274.090909 L 329.636364 274.272727 L 330.454545 278.090909 L 330.454545 282.909091 L 329.454545 285.363636 L 326.090909 290.454545 L 326.727273 294.727273 L 324.545455 298.272727 L 321 303.636364 L 318.090909 302.818182 L 316.727273 297.636364 L 316.727273 292.727273 L 320.181818 289.727273 L 318.909091 288.454545 L 316.727273 285.454545 L 319.727273 283.090909 L 323.818182 281.090909 C 323.818182 281.090909 327.090909 278.454545 327.272727 277.909091 Z M 150.636364 355.636364 L 150.818182 355.636364 L 150.727273 355.727273 L 152.272727 359.454545 L 147.909091 357.272727 L 148.818182 357 L 150.727273 355.727273 Z M 143.181818 357.272727 L 143.272727 357.272727 L 143.181818 357.363636 L 145.090909 360.727273 L 141.363636 361.545455 L 143.181818 357.363636 Z M 158.636364 420.272727 L 158.363636 420.272727 C 160.454545 421.545455 162.636364 422.818182 164.818182 424 L 170.272727 424 Z M 158.636364 420.272727 " transform="matrix(0.0429688,0,0,0.0429688,0,0)"/>
</g>
</svg>
