
<svg xmlns="http://www.w3.org/2000/svg" xmlns:xlink="http://www.w3.org/1999/xlink" width="22px" height="22px" viewBox="0 0 22 22" version="1.1">
<g id="surface1">
<path style="fill-rule:nonzero;fill:rgb(100%,100%,100%);fill-opacity:1;stroke-width:28.808744;stroke-linecap:butt;stroke-linejoin:miter;stroke:rgb(0%,80%,100%);stroke-opacity:1;stroke-miterlimit:4;" d="M 77.636364 20 L 434.363636 20 C 466.181818 20 492 45.818182 492 77.636364 L 492 434.363636 C 492 466.181818 466.181818 492 434.363636 492 L 77.636364 492 C 45.818182 492 20 466.181818 20 434.363636 L 20 77.636364 C 20 45.818182 45.818182 20 77.636364 20 Z M 77.636364 20 " transform="matrix(0.0429688,0,0,0.0429688,0,0)"/>
<path style="fill-rule:nonzero;fill:rgb(0%,80%,100%);fill-opacity:1;stroke-width:2.441739;stroke-linecap:butt;stroke-linejoin:miter;stroke:rgb(100%,100%,100%);stroke-opacity:1;stroke-miterlimit:4;" d="M -247.708489 112.830094 C -247.708489 184.500738 -305.80013 242.592379 -377.470774 242.592379 C -449.141419 242.592379 -507.23306 184.500738 -507.23306 112.830094 C -507.23306 41.159449 -449.141419 -16.932192 -377.470774 -16.932192 C -305.80013 -16.932192 -247.708489 41.159449 -247.708489 112.830094 Z M -247.708489 112.830094 " transform="matrix(0.058972,0,0,0.058972,33.029744,5.373526)"/>
<path style="fill-rule:nonzero;fill:rgb(7.843137%,25.882353%,30.980392%);fill-opacity:1;stroke-width:2.441739;stroke-linecap:butt;stroke-linejoin:miter;stroke:rgb(100%,100%,100%);stroke-opacity:1;stroke-miterlimit:4;" d="M -377.470774 -16.932192 C -388.400217 -16.932192 -398.998463 -15.607411 -409.066798 -13.090327 L -415.756941 -9.844614 L -421.652216 -8.321116 L -425.494081 -4.280535 L -429.865857 -0.107475 L -434.436351 -0.836104 L -434.900025 -3.551905 C -440.464104 -0.836104 -445.829467 2.277131 -450.863634 5.7878 L -450.863634 10.225816 L -445.696989 9.497186 L -446.889292 14.465115 L -444.968359 19.433043 C -444.968359 19.433043 -445.498272 21.353975 -446.624335 21.950127 C -447.750399 22.546278 -451.327307 19.101848 -451.327307 19.101848 L -451.724742 14.465115 L -455.500367 13.736485 L -459.872144 16.386047 C -459.872144 16.386047 -461.726837 18.306979 -460.534534 20.227911 C -459.342232 22.148844 -458.613602 24.268493 -459.805905 24.798405 C -460.931969 25.460796 -466.628526 26.321903 -466.628526 26.321903 L -470.404152 30.561202 L -476.166949 33.608198 L -477.822925 37.052628 L -481.466072 41.490644 L -484.513068 45.133792 C -484.513068 45.133792 -488.354933 47.849592 -487.957498 48.975656 C -487.493825 50.10172 -487.361347 54.473497 -487.361347 54.473497 L -487.758781 57.189297 L -490.60706 54.738453 L -490.209626 50.896588 L -491.004494 49.903003 C -493.521578 54.341019 -495.707466 59.043991 -497.694638 63.813202 L -495.839944 65.932851 L -499.019418 69.377281 L -499.019418 72.093082 L -494.846359 75.868708 L -494.250207 78.385791 L -492.726709 83.883632 L -487.957498 82.691329 L -487.692542 86.003281 L -487.295108 83.022524 L -482.32718 80.306724 L -482.260941 79.975528 L -476.961817 79.975528 L -474.246016 81.366548 L -465.966136 83.088763 L -463.846487 86.996867 L -460.667013 90.176341 C -460.667013 90.176341 -457.288821 90.043863 -456.69267 90.043863 C -456.162758 90.043863 -453.24824 95.011791 -453.24824 95.011791 L -451.592264 98.986134 L -443.312383 103.689106 L -438.145738 103.357911 L -435.23122 106.736102 L -431.78679 108.92199 L -432.382941 113.161289 L -437.019674 119.387759 C -437.019674 119.387759 -437.615826 127.866356 -437.615826 128.661225 C -437.615826 129.456093 -439.536758 135.152651 -439.536758 135.152651 L -445.498272 138.00093 L -448.346551 144.757312 L -452.320893 154.494452 L -456.957626 155.156842 L -458.08369 158.203838 L -455.235411 159.528619 L -455.96404 163.171766 L -460.733252 164.364069 L -463.780248 168.338412 L -462.654184 171.25293 C -462.654184 171.25293 -461.660598 173.571296 -462.058032 174.101209 C -462.389228 174.69736 -465.105028 176.419575 -465.105028 176.419575 L -461.130686 178.539224 L -462.654184 182.97724 L -461.130686 187.216539 L -458.017451 190.859686 L -465.568702 187.680212 L -470.867825 179.267854 C -470.867825 179.267854 -473.583626 174.366165 -473.186192 173.770013 C -472.788757 173.30634 -474.577212 166.549958 -474.577212 166.549958 L -477.42549 154.958125 L -478.021642 134.225305 L -478.419076 129.654811 L -486.434 121.639886 L -489.480996 113.09505 L -492.395514 106.007472 L -492.527992 99.118612 L -489.083562 94.548118 L -487.957498 88.454126 L -487.758781 86.996867 L -490.010909 85.274652 L -493.057905 87.526779 L -498.357028 82.426373 L -499.284375 77.922118 L -502.066414 76.39862 C -505.444606 87.990453 -507.23306 100.178436 -507.23306 112.830094 C -507.23306 155.421798 -486.698956 193.310531 -454.970455 216.957869 L -451.261068 215.103176 L -454.308064 211.327551 L -449.008941 208.810467 L -446.160662 204.637407 C -446.226901 204.571168 -446.29314 204.504929 -446.29314 204.504929 L -446.094423 204.43869 L -446.160662 204.637407 C -445.763228 204.968603 -443.246144 207.22073 -443.246144 208.280555 C -443.246144 209.406619 -439.271802 217.421543 -439.271802 217.421543 L -439.470519 217.818977 L -434.701308 220.137343 L -421.188543 218.746324 L -401.449308 220.137343 L -399.793332 219.938626 L -392.97071 214.043352 L -367.005006 212.851049 L -351.902504 213.4472 C -351.902504 213.4472 -349.38542 210.00277 -347.464488 210.00277 C -345.609795 210.00277 -338.191022 209.406619 -338.191022 209.406619 L -332.693181 205.630993 L -327.129102 210.201487 L -318.385548 209.605336 C -318.385548 209.605336 -323.287237 215.633089 -322.161173 215.898045 C -321.101349 216.163001 -312.092839 211.327551 -312.092839 211.327551 L -293.34719 207.551925 L -288.577979 207.353208 C -263.407142 183.70587 -247.708489 150.056436 -247.708489 112.830094 L -250.954202 109.186946 L -263.142186 90.838731 L -260.492624 90.441297 L -260.558863 90.573775 L -253.802481 98.389982 L -249.629421 101.834413 L -247.774728 108.458317 C -248.105923 99.781002 -249.231987 91.302405 -251.152919 83.155002 L -252.742656 81.432787 L -254.663588 78.518269 L -255.061023 76.597337 L -257.180672 75.272556 L -257.776824 77.193488 L -259.4328 76.796054 L -260.028951 74.543927 L -259.830234 71.298214 L -260.227668 69.178564 L -262.1486 68.78113 L -261.949883 71.033257 L -264.069533 72.026843 L -264.599445 70.304628 L -264.599445 68.78113 L -267.646441 64.806787 L -268.573788 62.355943 L -268.971222 60.236293 L -269.964807 60.236293 L -272.216935 61.561074 L -274.137867 62.753377 L -275.860082 64.873026 C -275.860082 64.873026 -279.370752 68.78113 -279.701947 68.847369 C -279.966903 68.979847 -281.622879 71.165736 -281.622879 71.165736 L -283.146377 73.086668 L -282.94766 77.259728 L -283.742528 81.9627 L -284.272441 83.883632 L -286.193373 85.075935 L -287.584393 83.419959 L -289.240369 79.379377 L -290.432672 75.140078 L -292.552321 70.238389 L -293.479668 65.071744 L -294.075819 62.157226 L -294.671971 64.078158 L -296.394186 64.078158 L -297.056576 62.422182 L -299.57366 58.977752 L -303.01809 55.930756 L -302.819373 55.732039 L -313.682576 55.930756 L -315.206074 54.208541 L -317.656918 54.804692 L -321.366305 52.685043 L -323.419715 49.439329 L -325.14193 46.193616 L -325.14193 51.161545 L -322.42613 53.612389 L -320.836393 56.129473 L -320.041524 58.050405 L -317.590679 59.176469 L -316.597094 57.652971 L -315.073596 56.659385 L -312.821468 59.375186 L -311.165492 61.296118 L -311.29797 64.343114 L -313.41762 67.986262 L -317.060767 70.039672 L -319.776568 73.285385 L -323.419715 74.278971 L -326.665428 77.325967 L -330.308576 73.682819 L -332.958137 69.244803 L -335.408982 64.674309 L -337.727349 60.435011 L -340.774345 54.738453 L -342.297843 51.49274 L -344.947404 51.890174 L -344.417492 54.738453 L -341.900408 59.11023 L -340.045715 62.753377 L -338.3235 65.667895 L -337.396153 70.635823 L -333.355572 73.682819 L -331.633357 77.127249 L -329.579946 80.57168 L -326.135516 81.499026 L -324.413301 79.776811 L -320.770154 79.776811 L -321.167588 84.01611 L -322.691086 86.864389 L -323.684671 90.110102 L -326.135516 92.627186 L -332.626942 100.64211 L -336.27009 106.338667 L -335.54146 113.227528 L -334.349157 118.195456 L -334.349157 123.49458 L -339.317086 128.263791 L -341.436735 132.900524 L -341.635452 137.471018 L -345.609795 141.44536 L -346.007229 145.088508 L -351.902504 154.229496 L -355.148217 154.229496 L -360.513579 154.759408 L -362.633229 156.879057 L -363.163141 152.705998 L -363.560575 149.06285 L -367.005006 144.492356 L -367.203723 141.577838 L -368.859699 134.887695 L -370.052002 133.761631 L -371.376782 126.740293 L -371.178065 122.898428 L -369.45585 118.924086 L -369.654567 114.154875 L -370.780631 106.934819 L -373.297715 104.020301 L -375.218647 100.575871 L -374.490017 98.456221 L -373.695149 95.80666 L -373.695149 92.627186 L -375.814798 91.103688 L -379.060511 90.90497 L -379.987858 88.984038 L -383.034854 88.586604 L -385.485699 89.712668 L -395.09036 89.712668 L -395.620272 92.031034 L -398.269834 91.434883 L -400.985635 89.116516 L -405.556129 83.618676 L -406.88091 79.776811 L -409.199276 75.868708 L -408.801842 72.159321 L -407.675778 69.112325 L -407.477061 59.176469 L -403.635196 54.076062 L -398.269834 49.836764 L -396.216424 43.87525 L -392.771993 40.828254 L -387.605348 40.695776 L -384.955786 38.244931 L -376.543428 38.642365 L -376.344711 36.721433 L -372.90028 36.522716 L -372.90028 42.285513 L -367.534918 45.464987 L -362.235794 48.511983 L -360.116145 45.597465 L -358.195213 43.941489 L -356.671715 45.862421 L -348.259356 47.385919 L -347.133293 44.53764 L -344.616209 44.935075 L -342.562799 45.133792 L -341.76793 40.364581 L -341.966647 37.913736 L -344.285014 37.516302 L -345.94099 38.841083 L -346.934576 37.185106 L -350.710201 38.509887 L -352.82985 36.059043 L -353.955914 33.210764 L -351.306352 32.614612 L -350.577723 31.42231 L -346.934576 29.567617 L -343.092711 29.567617 L -338.720934 30.428724 L -335.673938 29.700095 L -336.998719 26.984294 L -339.317086 25.85823 L -341.966647 23.606103 L -340.641866 21.287736 L -344.616209 21.287736 L -343.688862 23.407386 L -345.21236 24.732166 L -346.537141 23.738581 L -347.133293 21.883888 L -350.577723 21.287736 L -351.50507 25.460796 L -353.028567 28.375314 L -352.896089 31.42231 L -353.823436 31.024875 L -356.472998 30.03129 L -357.599061 31.42231 L -358.195213 33.47572 L -357.201627 36.986389 L -358.923842 37.516302 L -361.242209 35.264174 L -362.368273 34.469306 L -362.368273 30.296246 L -364.686639 27.580445 L -369.257133 23.009951 L -371.376782 23.208668 L -371.972934 24.334732 L -365.415269 30.428724 L -364.686639 32.018461 L -365.812703 32.018461 L -365.28279 34.270589 L -367.203723 35.264174 L -367.932352 32.548373 L -374.622496 24.732166 L -375.947276 25.924469 L -381.90879 26.851816 L -385.088264 30.826158 L -388.731412 37.317585 L -392.440798 38.642365 L -397.011292 36.191521 L -397.011292 32.548373 L -395.818989 28.176597 L -393.169428 25.460796 L -392.374559 27.183011 L -388.400217 26.454381 L -387.804065 26.454381 L -386.678001 24.930883 C -386.678001 24.930883 -387.075436 23.539864 -387.207914 23.539864 C -387.406631 23.539864 -388.201499 22.215083 -388.201499 22.215083 L -389.327563 20.29415 L -391.049778 19.168087 L -390.056193 17.777067 L -388.532695 17.57835 C -388.532695 17.57835 -387.406631 17.313394 -387.009197 17.180915 C -386.611762 17.048437 -385.088264 16.651003 -385.088264 16.651003 L -383.034854 16.054852 L -381.445117 14.531354 L -380.51777 13.40529 C -380.51777 13.40529 -379.789141 12.212987 -379.789141 11.683075 C -379.789141 11.153163 -380.981444 10.62325 -381.113922 9.96086 C -381.2464 9.364708 -380.186575 9.563425 -380.186575 9.563425 L -377.470774 10.954445 C -377.470774 10.954445 -375.814798 10.424533 -375.616081 10.159577 C -375.417364 9.894621 -375.01993 8.834796 -375.01993 8.834796 C -375.01993 8.834796 -375.814798 7.443776 -375.814798 7.112581 C -375.748559 6.781386 -374.622496 5.390366 -374.622496 5.390366 L -372.90028 6.781386 L -373.893866 8.304884 L -374.092583 9.695904 L -372.701563 9.695904 C -372.569085 9.695904 -370.250719 9.762143 -369.124655 9.695904 C -367.932352 9.563425 -367.601157 9.23223 -367.203723 8.901035 C -366.740049 8.56984 -365.812703 8.503601 -365.812703 8.503601 L -364.289205 9.099752 L -364.090488 9.099752 L -361.83836 7.377537 L -361.440926 7.112581 C -361.374687 6.781386 -361.308448 6.51643 -361.374687 6.383951 C -361.507165 5.986517 -361.374687 4.463019 -361.374687 4.463019 C -361.374687 4.463019 -359.983667 2.740804 -359.453755 2.542087 C -358.791364 2.34337 -356.737954 2.939521 -356.406759 2.740804 C -356.009324 2.542087 -354.883261 1.416023 -354.883261 1.416023 L -354.485826 0.0250033 L -356.141803 -0.902343 L -358.062735 -0.504909 L -360.182384 -0.372431 L -361.308448 -1.233539 L -361.308448 -3.419427 L -360.911014 -4.942925 L -359.586233 -6.466423 L -359.586233 -7.261291 L -361.109731 -8.387355 L -362.434512 -7.460009 L -363.428097 -6.267706 L -364.752878 -4.61173 C -364.752878 -4.61173 -365.878942 -3.684383 -365.878942 -3.485666 C -365.878942 -3.22071 -366.67381 -2.823276 -366.67381 -2.823276 L -367.005006 -0.902343 L -366.077659 -0.504909 C -366.077659 -0.504909 -365.017834 0.687394 -364.951595 0.819872 C -364.885356 0.95235 -365.34903 1.813457 -365.34903 1.813457 L -367.005006 2.939521 C -367.005006 2.939521 -367.071245 5.257888 -367.203723 5.456605 C -367.269962 5.589083 -369.45585 6.980103 -369.45585 6.980103 L -370.052002 5.456605 L -371.443021 3.535673 L -372.569085 1.217306 C -372.569085 1.217306 -373.297715 1.416023 -374.092583 1.61474 C -374.887452 1.879696 -375.01993 2.542087 -375.01993 2.542087 C -375.01993 2.542087 -376.477189 3.336955 -376.609667 3.336955 C -376.675906 3.336955 -377.537013 2.409609 -377.537013 2.409609 L -378.265643 0.289959 L -377.735731 -1.82969 L -376.212233 -2.028407 L -372.171651 -6.400184 L -369.45585 -9.115985 L -363.560575 -13.818957 L -357.797779 -15.011259 L -352.432416 -14.017674 L -347.133293 -12.162981 L -343.291428 -10.175809 L -345.21236 -9.44718 L -349.451659 -9.645897 L -349.849093 -8.122399 L -348.855508 -6.598901 L -347.000815 -5.207881 L -340.37691 -8.71855 L -339.979476 -9.049746 L -339.71452 -9.049746 L -339.515803 -9.182224 L -339.648281 -9.115985 L -335.077787 -9.844614 C -335.144026 -9.910853 -335.210265 -9.910853 -335.276504 -9.910853 L -339.71452 -9.182224 L -339.515803 -9.314702 C -339.383325 -9.314702 -337.926066 -9.910853 -336.601285 -10.374526 C -349.451659 -14.613825 -363.22938 -16.932192 -377.470774 -16.932192 Z M -405.821085 -8.586072 L -398.733507 -8.586072 L -397.408726 -6.863857 L -399.528376 -4.744208 L -402.70785 -4.015578 C -402.70785 -4.015578 -403.767675 -3.949339 -406.549714 -6.068989 Z M -388.86389 2.277131 L -387.936543 4.794214 L -385.816894 7.046342 L -385.220742 11.020684 L -383.564766 13.272812 L -386.611762 14.730071 L -390.056193 15.259983 L -390.9173 14.332637 L -389.52628 12.01427 L -388.002782 10.490772 L -388.400217 8.768557 L -391.314734 7.443776 C -391.314734 7.443776 -390.784822 5.522844 -390.387388 3.668151 Z M -393.69934 9.497186 L -392.175842 11.550597 L -393.03695 13.272812 L -395.355316 12.345465 Z M -326.53295 20.890302 C -326.665428 20.890302 -326.797906 20.890302 -326.930385 20.956541 L -326.930385 21.155258 C -327.791492 21.420214 -330.374815 23.606103 -330.374815 23.606103 L -331.169683 26.785577 C -331.169683 26.785577 -330.507293 28.044119 -329.646185 28.441553 C -328.785078 28.905226 -326.930385 31.356071 -326.930385 31.356071 L -325.605604 35.330413 L -322.359891 37.450063 L -319.909046 36.25776 L -322.227412 32.614612 L -323.883389 29.766334 L -325.539365 25.19584 L -326.135516 23.274907 L -324.612018 21.883888 C -324.612018 21.883888 -325.738082 20.890302 -326.53295 20.890302 Z M -375.152408 28.441553 L -374.092583 31.223593 L -374.2913 33.144525 L -375.814798 34.535545 L -377.404535 32.879569 Z M -382.836137 32.945808 L -381.975029 34.005632 L -382.836137 34.13811 Z M -369.787045 35.926565 L -367.269962 38.112453 L -368.992177 39.503473 L -370.913109 36.25776 Z M -492.66047 61.362357 L -487.692542 61.362357 L -483.453243 64.475592 L -483.055809 66.131568 L -485.506654 67.655066 L -487.692542 64.740548 L -491.335689 64.011919 L -494.515164 62.355943 L -492.594231 61.428596 Z M -259.830234 83.022524 L -252.146505 91.766078 L -250.490529 96.932723 C -250.490529 96.932723 -253.802481 96.535289 -254.332393 96.535289 C -254.862306 96.535289 -259.167843 83.817393 -259.830234 83.022524 Z M -281.755357 83.35372 L -281.026728 84.281066 L -280.629293 87.195584 L -282.748943 89.513951 L -283.742528 85.804564 Z M -324.612018 120.248867 L -322.956042 120.381345 L -322.359891 123.097145 L -322.359891 126.541576 L -323.022281 128.263791 L -325.406887 131.840699 L -325.009452 134.953934 L -326.599189 137.404779 L -329.050034 141.246643 L -331.169683 140.650492 L -332.09703 136.941105 L -332.09703 133.496675 L -329.646185 131.377026 L -330.573532 130.449679 L -332.09703 128.33003 L -329.97738 126.674054 L -327.062863 125.283034 C -327.062863 125.283034 -324.744496 123.362102 -324.612018 122.964667 Z M -449.936288 178.075551 L -449.803809 178.14179 L -449.870048 178.208029 L -448.810224 180.791352 L -451.85722 179.267854 L -451.194829 179.069137 L -449.870048 178.208029 Z M -455.235411 179.267854 L -455.169172 179.267854 L -455.169172 179.334093 L -453.844391 181.718698 L -456.560192 182.31485 L -455.169172 179.334093 Z M -444.23973 223.979208 L -444.504686 223.979208 C -442.981188 224.906555 -441.45769 225.767662 -439.867953 226.62877 L -436.026088 226.62877 Z M -444.23973 223.979208 " transform="matrix(0.058972,0,0,0.058972,33.029744,5.373526)"/>
<path style=" stroke:none;fill-rule:nonzero;fill:rgb(60%,60%,60%);fill-opacity:1;" d="M 7.429688 8.414062 L 7.328125 7.984375 L 7.269531 7.902344 C 7.191406 7.792969 7.1875 7.792969 7.152344 7.828125 C 7.09375 7.882812 7.082031 7.886719 7.042969 7.886719 C 6.945312 7.886719 6.800781 7.785156 6.703125 7.644531 L 6.644531 7.5625 L 6.523438 7.5625 L 6.519531 7.617188 C 6.507812 7.777344 6.46875 7.960938 6.480469 8.34375 C 6.484375 8.574219 6.484375 8.761719 6.488281 8.765625 C 6.496094 8.777344 6.773438 8.84375 6.90625 8.871094 C 7.042969 8.902344 7.074219 9.140625 7.148438 8.996094 C 7.167969 8.957031 7.199219 8.949219 7.222656 8.933594 C 7.550781 8.753906 7.449219 8.632812 7.429688 8.414062 Z M 7.429688 8.414062 "/>
<path style=" stroke:none;fill-rule:nonzero;fill:rgb(59.215686%,59.215686%,59.215686%);fill-opacity:1;" d="M 8.269531 19.484375 C 7.585938 18.574219 7.289062 17.675781 7.296875 15.863281 C 7.300781 14.550781 7.757812 12.941406 7.828125 12.714844 C 7.84375 12.664062 8.035156 12.46875 8.160156 12.484375 C 8.269531 12.5 8.34375 12.671875 8.382812 12.769531 C 8.40625 12.824219 8.570312 13.058594 8.574219 13.855469 C 8.578125 15.550781 8.765625 16.925781 9.140625 18.042969 C 9.328125 18.601562 9.480469 18.882812 9.753906 19.167969 C 9.984375 19.40625 10.347656 19.496094 11.113281 19.496094 C 11.539062 19.496094 11.589844 19.507812 11.589844 19.613281 C 10.550781 20.792969 8.875 20.007812 8.269531 19.484375 Z M 8.269531 19.484375 "/>
<path style=" stroke:none;fill-rule:nonzero;fill:rgb(59.215686%,59.215686%,59.215686%);fill-opacity:1;" d="M 17.128906 16.246094 C 17.050781 16.152344 17.832031 15.0625 17.742188 14.515625 C 17.695312 14.230469 17.582031 14.050781 17.445312 14.050781 C 17.421875 14.050781 17.273438 14.175781 17.113281 14.324219 C 16.957031 14.476562 16.601562 14.808594 16.328125 15.0625 C 16.050781 15.316406 15.699219 15.648438 15.546875 15.796875 C 15.390625 15.949219 15.273438 15.980469 15.230469 15.980469 C 15.125 15.980469 14.832031 15.761719 14.84375 15.679688 C 14.851562 15.601562 14.859375 15.578125 14.933594 15.414062 C 15.28125 14.679688 15.546875 14.105469 15.71875 13.734375 C 15.820312 13.511719 15.980469 13.171875 16.074219 12.980469 L 16.246094 12.628906 L 16.230469 12.335938 L 16.023438 12.109375 L 14.703125 11.949219 C 13.976562 11.859375 13.476562 11.820312 13.308594 11.695312 C 13.214844 11.625 13.121094 11.640625 13.121094 11.429688 C 13.121094 11.28125 13.242188 11.195312 13.289062 11.15625 C 13.335938 11.117188 13.851562 10.882812 14.546875 10.691406 C 15.769531 10.359375 17.902344 9.683594 17.984375 9.609375 C 18.089844 9.511719 17.414062 8.167969 17.007812 7.667969 C 16.597656 7.164062 16.429688 6.96875 16.304688 6.863281 C 16.019531 6.613281 15.714844 6.257812 15.765625 6.273438 C 17.601562 6.554688 19.015625 8.3125 19.375 10.339844 C 19.433594 11.433594 19.308594 11.574219 19.3125 12.480469 C 19.179688 13.472656 19.160156 13.472656 19.078125 13.851562 C 18.976562 14.234375 18.957031 14.476562 18.519531 15.027344 L 17.707031 16.046875 L 17.464844 16.1875 C 17.355469 16.257812 17.269531 16.289062 17.195312 16.265625 Z M 17.128906 16.246094 "/>
<path style=" stroke:none;fill-rule:nonzero;fill:rgb(59.215686%,59.215686%,59.215686%);fill-opacity:1;" d="M 2.957031 13.542969 C 2.921875 13.496094 2.921875 13.042969 2.953125 12.316406 C 3.007812 11.046875 3.089844 12.007812 2.851562 12.050781 C 2.632812 12.09375 2.980469 10.769531 3.019531 10.039062 C 3.046875 9.558594 3.125 9.03125 3.511719 8.253906 C 4.257812 6.757812 4.132812 6.945312 4.257812 6.757812 C 4.597656 6.1875 4.96875 5.625 5.355469 5.460938 C 6.210938 5.0625 7.46875 4.65625 8.394531 4.925781 C 8.40625 4.957031 8.265625 5.054688 8.082031 5.136719 C 7.566406 5.378906 7.53125 5.417969 7.605469 5.617188 C 7.6875 5.835938 7.757812 5.875 8.019531 5.878906 C 8.191406 5.878906 8.242188 5.851562 8.273438 5.75 C 8.96875 4.199219 10.707031 3.328125 12.351562 3.417969 C 13.277344 3.554688 13.796875 4.378906 13.992188 5.121094 C 14.011719 5.203125 14.050781 5.195312 14.007812 5.175781 C 13.957031 5.152344 13.824219 5.089844 13.617188 5.019531 C 12.964844 4.789062 12.113281 5.183594 11.476562 6.074219 L 11.273438 6.355469 L 11.296875 7.230469 L 11.21875 8.074219 L 10.753906 9.261719 C 10.1875 10.699219 9.726562 10.671875 9.511719 10.933594 C 9.488281 10.960938 9.382812 11.066406 9.253906 11.132812 L 9.023438 11.253906 L 8.59375 11.367188 C 6.726562 11.789062 6.574219 10.285156 6.492188 8.644531 C 6.550781 8.585938 6.933594 8.714844 7.074219 8.84375 C 7.152344 8.914062 7.261719 8.898438 7.300781 8.894531 C 7.355469 8.882812 7.316406 8.84375 7.292969 8.667969 C 7.222656 8.160156 7.195312 8.082031 7.050781 7.988281 C 6.910156 7.898438 6.914062 7.917969 6.804688 7.890625 C 6.59375 7.808594 6.667969 7.871094 6.558594 7.769531 C 6.570312 6.554688 6.300781 6.402344 5.914062 6.835938 C 5.84375 6.863281 5.347656 7.539062 5.203125 7.8125 C 4.933594 8.304688 4.945312 8.261719 5.042969 8.417969 C 5.09375 8.5 5.203125 8.742188 5.339844 8.871094 C 5.546875 9.070312 5.683594 9.214844 5.652344 9.34375 C 5.574219 9.679688 5.484375 9.53125 5.011719 9.507812 L 4.582031 9.488281 L 4.53125 9.679688 C 4.5 9.800781 4.523438 10.316406 4.601562 11.125 C 4.804688 13.265625 4.816406 13.160156 4.664062 13.34375 C 4.574219 13.453125 4.496094 13.496094 4.433594 13.472656 C 4.382812 13.449219 4.242188 13.203125 4.121094 12.917969 C 4.003906 12.632812 3.878906 12.40625 3.847656 12.417969 C 3.816406 12.425781 3.699219 12.667969 3.582031 12.953125 C 3.46875 13.238281 3.351562 13.503906 3.328125 13.542969 C 3.265625 13.636719 3.027344 13.636719 2.957031 13.542969 Z M 2.957031 13.542969 "/>
<path style=" stroke:none;fill-rule:nonzero;fill:rgb(60%,60%,60%);fill-opacity:1;" d="M 8.621094 9.226562 C 8.613281 9.003906 8.601562 8.820312 8.59375 8.816406 C 8.589844 8.8125 8.472656 8.792969 8.332031 8.769531 L 8.078125 8.730469 L 8.113281 9.148438 C 8.148438 9.597656 8.199219 9.667969 8.464844 9.644531 L 8.636719 9.632812 Z M 8.621094 9.226562 "/>
<path style=" stroke:none;fill-rule:nonzero;fill:rgb(60%,60%,60%);fill-opacity:1;" d="M 9.542969 9.40625 C 9.679688 9.234375 9.796875 9.214844 9.875 9.351562 C 9.921875 9.4375 9.972656 9.441406 10.210938 9.394531 L 10.492188 9.34375 L 10.507812 8.945312 C 10.519531 8.722656 10.511719 8.503906 10.492188 8.453125 C 10.460938 8.375 10.4375 8.378906 10.347656 8.488281 C 10.210938 8.65625 9.945312 8.761719 9.863281 8.679688 C 9.769531 8.585938 9.503906 8.609375 9.378906 8.722656 C 9.273438 8.816406 8.960938 9.460938 8.960938 9.585938 C 8.960938 9.703125 9.421875 9.5625 9.542969 9.40625 Z M 9.542969 9.40625 "/>
<path style=" stroke:none;fill-rule:nonzero;fill:rgb(60%,60%,60%);fill-opacity:1;" d="M 8.808594 9.128906 C 8.808594 9.117188 8.84375 9.058594 8.90625 8.972656 C 9.003906 8.84375 9.015625 8.828125 9.152344 8.722656 L 9.292969 8.613281 L 9.402344 8.304688 L 9.464844 8.242188 C 9.546875 8.164062 9.546875 8.164062 9.585938 8.1875 C 9.90625 8.9375 9.859375 8.519531 9.476562 8.851562 C 9.359375 8.902344 9.203125 9.015625 9.105469 9.0625 C 9 9.113281 8.882812 9.152344 8.832031 9.152344 C 8.8125 9.152344 8.808594 9.148438 8.808594 9.128906 Z M 8.808594 9.128906 "/>
<path style=" stroke:none;fill-rule:nonzero;fill:rgb(60%,60%,60%);fill-opacity:1;" d="M 8.730469 9.144531 C 8.71875 9.136719 8.714844 9.121094 8.714844 9.105469 C 8.714844 9.003906 8.976562 8.441406 9.101562 8.285156 C 9.164062 8.207031 9.28125 8.15625 9.414062 8.15625 C 9.453125 8.15625 9.496094 8.15625 9.511719 8.160156 C 9.53125 8.167969 9.527344 8.171875 9.460938 8.234375 L 9.390625 8.304688 L 9.289062 8.601562 L 9.144531 8.71875 C 9.007812 8.828125 8.996094 8.839844 8.898438 8.96875 C 8.835938 9.058594 8.796875 9.113281 8.796875 9.128906 C 8.796875 9.148438 8.792969 9.152344 8.773438 9.152344 C 8.757812 9.152344 8.738281 9.148438 8.730469 9.144531 Z M 8.730469 9.144531 "/>
<path style=" stroke:none;fill-rule:nonzero;fill:rgb(56.862745%,47.843137%,47.843137%);fill-opacity:1;" d="M 5.632812 3.496094 C 5.566406 2.871094 5.527344 2.320312 5.542969 2.273438 C 5.5625 2.226562 5.613281 1.949219 5.796875 1.910156 C 6.085938 1.851562 6.25 2.0625 6.308594 2.144531 C 6.34375 2.195312 6.574219 2.789062 6.824219 3.464844 C 7.070312 4.140625 7.296875 4.722656 7.328125 4.761719 C 7.429688 5.191406 7.347656 4.914062 7.605469 5.617188 C 7.6875 5.832031 7.753906 5.875 8.019531 5.875 C 8.191406 5.878906 9.144531 6.148438 9.175781 6.042969 C 9.789062 5.113281 9.738281 5.257812 10.640625 3.277344 L 10.941406 2.671875 C 11.15625 2.238281 11.285156 2.105469 11.347656 2.066406 C 11.40625 2.027344 11.625 1.878906 11.761719 1.914062 C 12.125 2.109375 11.992188 2.582031 11.964844 2.722656 C 11.640625 4.085938 11.59375 4.167969 11.273438 6.351562 L 11.292969 7.230469 L 11.25 8.125 C 10.789062 9.214844 10.378906 10.515625 9.378906 11.125 C 9.179688 11.257812 8.820312 11.308594 8.589844 11.367188 C 6.792969 11.960938 6.53125 10.136719 6.476562 8.679688 C 6.480469 8.480469 7.121094 8.691406 7.261719 8.820312 C 7.339844 8.894531 7.261719 8.898438 7.300781 8.890625 C 7.355469 8.882812 7.316406 8.84375 7.292969 8.664062 C 7.222656 8.160156 7.195312 8.082031 7.046875 7.984375 C 6.910156 7.894531 6.910156 7.914062 6.804688 7.890625 C 6.59375 7.804688 6.667969 7.871094 6.558594 7.765625 C 6.515625 7.4375 6.371094 7.078125 6.277344 6.785156 C 6.113281 5.535156 5.765625 4.675781 5.632812 3.496094 Z M 5.632812 3.496094 "/>
<path style=" stroke:none;fill-rule:nonzero;fill:rgb(56.862745%,47.843137%,47.843137%);fill-opacity:1;" d="M 7.4375 8.335938 L 7.335938 7.90625 L 7.277344 7.824219 C 7.199219 7.714844 7.195312 7.710938 7.160156 7.746094 C 7.101562 7.800781 7.09375 7.804688 7.050781 7.808594 C 6.953125 7.808594 6.8125 7.703125 6.710938 7.5625 L 6.652344 7.480469 L 6.535156 7.480469 L 6.527344 7.535156 C 6.515625 7.695312 6.476562 7.882812 6.488281 8.261719 C 6.492188 8.492188 6.492188 8.679688 6.496094 8.683594 C 6.503906 8.695312 6.78125 8.761719 6.914062 8.789062 C 7.054688 8.820312 7.082031 9.0625 7.15625 8.917969 C 7.175781 8.875 7.207031 8.867188 7.230469 8.855469 C 7.558594 8.675781 7.457031 8.554688 7.4375 8.335938 Z M 7.4375 8.335938 "/>
<path style=" stroke:none;fill-rule:nonzero;fill:rgb(56.862745%,47.843137%,47.843137%);fill-opacity:1;" d="M 8.628906 9.144531 C 8.621094 8.925781 8.609375 8.738281 8.605469 8.734375 C 8.597656 8.730469 8.480469 8.710938 8.339844 8.691406 L 8.085938 8.652344 L 8.121094 9.066406 C 8.160156 9.515625 8.207031 9.589844 8.472656 9.566406 L 8.644531 9.550781 Z M 8.628906 9.144531 "/>
<path style=" stroke:none;fill-rule:nonzero;fill:rgb(56.862745%,47.843137%,47.843137%);fill-opacity:1;" d="M 9.550781 9.328125 C 9.6875 9.152344 9.804688 9.132812 9.882812 9.273438 C 9.929688 9.355469 9.980469 9.363281 10.21875 9.316406 L 10.5 9.261719 L 10.515625 8.863281 C 10.527344 8.644531 10.519531 8.421875 10.5 8.371094 C 10.46875 8.292969 10.449219 8.296875 10.355469 8.410156 C 10.222656 8.574219 9.953125 8.679688 9.871094 8.597656 C 9.78125 8.503906 9.515625 8.527344 9.390625 8.640625 C 9.28125 8.734375 8.96875 9.382812 8.96875 9.507812 C 8.96875 9.625 9.429688 9.480469 9.550781 9.328125 Z M 9.550781 9.328125 "/>
<path style=" stroke:none;fill-rule:nonzero;fill:rgb(56.862745%,47.843137%,47.843137%);fill-opacity:1;" d="M 8.816406 9.050781 C 8.816406 9.035156 8.851562 8.976562 8.917969 8.890625 C 9.011719 8.761719 9.023438 8.75 9.160156 8.644531 L 9.300781 8.53125 L 9.410156 8.222656 L 9.472656 8.164062 C 9.554688 8.085938 9.558594 8.082031 9.59375 8.109375 C 9.914062 8.859375 9.867188 8.4375 9.488281 8.769531 C 9.367188 8.820312 9.210938 8.933594 9.113281 8.980469 C 9.007812 9.03125 8.890625 9.070312 8.839844 9.070312 C 8.820312 9.070312 8.816406 9.066406 8.816406 9.050781 Z M 8.816406 9.050781 "/>
<path style=" stroke:none;fill-rule:nonzero;fill:rgb(56.862745%,47.843137%,47.843137%);fill-opacity:1;" d="M 8.738281 9.0625 C 8.726562 9.054688 8.722656 9.042969 8.722656 9.023438 C 8.722656 8.921875 8.988281 8.359375 9.109375 8.203125 C 9.171875 8.125 9.292969 8.078125 9.421875 8.074219 C 9.460938 8.074219 9.503906 8.078125 9.519531 8.082031 C 9.539062 8.085938 9.535156 8.089844 9.46875 8.15625 L 9.402344 8.222656 L 9.347656 8.371094 L 9.296875 8.519531 L 9.152344 8.636719 C 9.015625 8.746094 9.003906 8.757812 8.90625 8.886719 C 8.84375 8.976562 8.804688 9.035156 8.804688 9.046875 C 8.804688 9.066406 8.800781 9.070312 8.78125 9.070312 C 8.765625 9.070312 8.746094 9.066406 8.738281 9.0625 Z M 8.738281 9.0625 "/>
<path style=" stroke:none;fill-rule:nonzero;fill:rgb(56.862745%,47.843137%,47.843137%);fill-opacity:1;" d="M 8.675781 9.070312 L 8.777344 8.683594 L 8.9375 8.421875 L 9.15625 8.296875 L 9.414062 8.25 L 9.65625 8.28125 L 9.75 8.351562 L 9.757812 8.628906 L 9.664062 8.847656 L 9.597656 8.964844 L 9.359375 9.105469 L 9.125 9.148438 L 8.882812 9.136719 Z M 8.675781 9.070312 "/>
<path style=" stroke:none;fill-rule:nonzero;fill:rgb(56.862745%,47.843137%,47.843137%);fill-opacity:1;" d="M 8.707031 8.902344 C 8.707031 8.902344 8.894531 8.519531 9.195312 8.445312 C 9.449219 8.382812 9.765625 8.367188 9.765625 8.367188 L 9.679688 8.324219 L 9.410156 8.238281 L 9.03125 8.359375 L 8.871094 8.507812 L 8.773438 8.691406 Z M 8.707031 8.902344 "/>
<path style=" stroke:none;fill-rule:nonzero;fill:rgb(56.862745%,47.843137%,47.843137%);fill-opacity:1;" d="M 8.722656 8.882812 C 8.722656 8.882812 8.871094 8.5 9.164062 8.386719 C 9.410156 8.292969 9.757812 8.34375 9.757812 8.34375 L 9.675781 8.3125 L 9.410156 8.238281 L 9.03125 8.359375 L 8.867188 8.503906 L 8.738281 8.773438 Z M 8.722656 8.882812 "/>
<path style=" stroke:none;fill-rule:evenodd;fill:rgb(56.862745%,47.843137%,47.843137%);fill-opacity:1;" d="M 9.101562 8.28125 C 9.476562 8.117188 9.808594 8.28125 9.808594 8.28125 L 9.769531 8.316406 C 9.859375 8.5625 9.773438 8.84375 9.5625 9.007812 C 9.355469 9.175781 8.980469 9.242188 8.679688 9.078125 L 8.660156 9.070312 C 8.691406 8.78125 8.773438 8.425781 9.101562 8.28125 Z M 9.132812 8.347656 C 8.960938 8.410156 8.847656 8.585938 8.777344 8.753906 C 8.714844 8.90625 8.691406 9.039062 8.6875 9.054688 C 9.027344 9.199219 9.320312 9.140625 9.511719 8.988281 C 9.703125 8.835938 9.792969 8.585938 9.710938 8.359375 C 9.699219 8.351562 9.488281 8.222656 9.132812 8.347656 Z M 9.132812 8.347656 "/>
<path style=" stroke:none;fill-rule:evenodd;fill:rgb(56.862745%,47.843137%,47.843137%);fill-opacity:1;" d="M 9.539062 8.648438 C 9.492188 8.503906 9.316406 8.433594 9.148438 8.488281 C 8.976562 8.546875 8.875 8.707031 8.925781 8.851562 C 8.972656 8.996094 9.148438 9.066406 9.316406 9.007812 C 9.488281 8.953125 9.585938 8.792969 9.539062 8.648438 Z M 9.539062 8.648438 "/>
<path style=" stroke:none;fill-rule:evenodd;fill:rgb(56.862745%,47.843137%,47.843137%);fill-opacity:1;" d="M 9.339844 8.714844 C 9.324219 8.65625 9.25 8.628906 9.179688 8.652344 C 9.109375 8.675781 9.066406 8.742188 9.085938 8.800781 C 9.105469 8.855469 9.175781 8.882812 9.25 8.859375 C 9.320312 8.839844 9.359375 8.773438 9.339844 8.714844 Z M 9.339844 8.714844 "/>
<path style=" stroke:none;fill-rule:evenodd;fill:rgb(56.862745%,47.843137%,47.843137%);fill-opacity:1;" d="M 9.222656 8.710938 C 9.214844 8.6875 9.183594 8.675781 9.152344 8.683594 C 9.125 8.695312 9.105469 8.722656 9.113281 8.746094 C 9.121094 8.769531 9.152344 8.78125 9.183594 8.773438 C 9.210938 8.761719 9.230469 8.734375 9.222656 8.710938 Z M 9.222656 8.710938 "/>
<path style=" stroke:none;fill-rule:nonzero;fill:rgb(56.862745%,47.843137%,47.843137%);fill-opacity:1;" d="M 7.484375 8.898438 L 7.527344 8.609375 L 7.484375 8.386719 L 7.347656 8.242188 L 7.160156 8.140625 L 6.960938 8.089844 L 6.863281 8.109375 L 6.769531 8.296875 L 6.777344 8.472656 L 6.792969 8.570312 L 6.933594 8.730469 L 7.105469 8.828125 L 7.300781 8.882812 Z M 7.484375 8.898438 "/>
<path style=" stroke:none;fill-rule:nonzero;fill:rgb(56.862745%,47.843137%,47.843137%);fill-opacity:1;" d="M 7.511719 8.777344 C 7.511719 8.777344 7.484375 8.464844 7.273438 8.332031 C 7.089844 8.21875 6.847656 8.117188 6.847656 8.117188 L 6.929688 8.113281 L 7.167969 8.128906 L 7.425781 8.320312 L 7.507812 8.464844 L 7.527344 8.613281 Z M 7.511719 8.777344 "/>
<path style=" stroke:none;fill-rule:nonzero;fill:rgb(56.862745%,47.843137%,47.843137%);fill-opacity:1;" d="M 7.507812 8.757812 C 7.507812 8.757812 7.507812 8.457031 7.3125 8.300781 C 7.152344 8.167969 6.859375 8.105469 6.859375 8.105469 L 6.933594 8.105469 L 7.167969 8.128906 L 7.425781 8.320312 L 7.511719 8.460938 L 7.527344 8.679688 Z M 7.507812 8.757812 "/>
<path style=" stroke:none;fill-rule:evenodd;fill:rgb(56.862745%,47.843137%,47.843137%);fill-opacity:1;" d="M 7.398438 8.246094 C 7.152344 8.03125 6.839844 8.046875 6.839844 8.046875 L 6.859375 8.082031 C 6.710938 8.222656 6.691406 8.4375 6.804688 8.609375 C 6.917969 8.78125 7.1875 8.929688 7.476562 8.902344 L 7.496094 8.902344 C 7.5625 8.699219 7.609375 8.4375 7.398438 8.246094 Z M 7.351562 8.285156 C 7.46875 8.371094 7.5 8.523438 7.503906 8.65625 C 7.507812 8.777344 7.484375 8.871094 7.480469 8.886719 C 7.167969 8.886719 6.957031 8.765625 6.851562 8.609375 C 6.75 8.453125 6.753906 8.257812 6.890625 8.128906 C 6.902344 8.125 7.109375 8.097656 7.351562 8.285156 Z M 7.351562 8.285156 "/>
<path style=" stroke:none;fill-rule:evenodd;fill:rgb(56.862745%,47.843137%,47.843137%);fill-opacity:1;" d="M 6.914062 8.441406 C 6.9375 8.34375 7.042969 8.289062 7.148438 8.316406 C 7.253906 8.347656 7.320312 8.453125 7.296875 8.550781 C 7.277344 8.648438 7.171875 8.703125 7.066406 8.671875 C 6.960938 8.640625 6.894531 8.539062 6.914062 8.441406 Z M 6.914062 8.441406 "/>
<path style=" stroke:none;fill-rule:evenodd;fill:rgb(56.862745%,47.843137%,47.843137%);fill-opacity:1;" d="M 7.015625 8.476562 C 7.023438 8.4375 7.070312 8.417969 7.121094 8.429688 C 7.167969 8.441406 7.199219 8.484375 7.1875 8.523438 C 7.179688 8.5625 7.132812 8.582031 7.085938 8.570312 C 7.035156 8.558594 7.003906 8.515625 7.015625 8.476562 Z M 7.015625 8.476562 "/>
<path style=" stroke:none;fill-rule:evenodd;fill:rgb(56.862745%,47.843137%,47.843137%);fill-opacity:1;" d="M 7.09375 8.480469 C 7.097656 8.460938 7.117188 8.453125 7.136719 8.457031 C 7.15625 8.464844 7.167969 8.480469 7.164062 8.5 C 7.160156 8.515625 7.140625 8.523438 7.121094 8.519531 C 7.101562 8.515625 7.085938 8.496094 7.09375 8.480469 Z M 7.09375 8.480469 "/>
<path style=" stroke:none;fill-rule:nonzero;fill:rgb(81.960784%,89.019608%,95.294118%);fill-opacity:1;" d="M 8.667969 9.152344 L 8.765625 8.765625 L 8.925781 8.503906 L 9.148438 8.378906 L 9.40625 8.332031 L 9.644531 8.359375 L 9.742188 8.429688 L 9.75 8.710938 L 9.65625 8.929688 L 9.589844 9.046875 L 9.351562 9.1875 L 9.113281 9.230469 L 8.875 9.214844 Z M 8.667969 9.152344 "/>
<path style=" stroke:none;fill-rule:evenodd;fill:rgb(0%,0%,0%);fill-opacity:1;" d="M 9.09375 8.363281 C 9.46875 8.199219 9.800781 8.363281 9.800781 8.363281 L 9.761719 8.398438 C 9.851562 8.640625 9.765625 8.921875 9.554688 9.089844 C 9.347656 9.257812 8.972656 9.324219 8.671875 9.160156 L 8.652344 9.152344 C 8.683594 8.863281 8.765625 8.507812 9.09375 8.363281 Z M 9.125 8.429688 C 8.953125 8.488281 8.835938 8.667969 8.769531 8.835938 C 8.703125 8.988281 8.683594 9.117188 8.679688 9.136719 C 9.019531 9.28125 9.3125 9.222656 9.503906 9.070312 C 9.695312 8.914062 9.785156 8.667969 9.703125 8.441406 C 9.691406 8.433594 9.480469 8.300781 9.125 8.429688 Z M 9.125 8.429688 "/>
<path style=" stroke:none;fill-rule:nonzero;fill:rgb(81.960784%,89.019608%,95.294118%);fill-opacity:1;" d="M 7.476562 8.980469 L 7.519531 8.691406 L 7.472656 8.46875 L 7.339844 8.324219 L 7.152344 8.21875 L 6.953125 8.171875 L 6.855469 8.191406 L 6.761719 8.378906 L 6.769531 8.550781 L 6.785156 8.648438 L 6.925781 8.8125 L 7.097656 8.90625 L 7.292969 8.964844 Z M 7.476562 8.980469 "/>
<path style=" stroke:none;fill-rule:evenodd;fill:rgb(0%,0%,0%);fill-opacity:1;" d="M 7.386719 8.328125 C 7.144531 8.113281 6.832031 8.128906 6.832031 8.128906 L 6.851562 8.164062 C 6.703125 8.304688 6.683594 8.519531 6.796875 8.6875 C 6.910156 8.859375 7.179688 9.011719 7.46875 8.984375 L 7.488281 8.984375 C 7.554688 8.78125 7.601562 8.515625 7.386719 8.328125 Z M 7.34375 8.363281 C 7.460938 8.453125 7.492188 8.605469 7.496094 8.738281 C 7.496094 8.859375 7.472656 8.953125 7.472656 8.964844 C 7.160156 8.96875 6.949219 8.847656 6.84375 8.691406 C 6.742188 8.53125 6.746094 8.339844 6.882812 8.210938 C 6.894531 8.207031 7.101562 8.179688 7.34375 8.363281 Z M 7.34375 8.363281 "/>
</g>
</svg>
