<?xml version="1.0" encoding="UTF-8"?>
<svg xmlns="http://www.w3.org/2000/svg" xmlns:xlink="http://www.w3.org/1999/xlink" width="22pt" height="22pt" viewBox="0 0 22 22" version="1.1">
<defs>
<clipPath id="clip1">
  <path d="M 0.808594 1 L 13 1 L 13 19 L 0.808594 19 Z M 0.808594 1 "/>
</clipPath>
</defs>
<g id="surface1">
<path style="fill-rule:nonzero;fill:rgb(80%,80%,80%);fill-opacity:1;stroke-width:28.191782;stroke-linecap:butt;stroke-linejoin:miter;stroke:rgb(35.294118%,49.803922%,53.333333%);stroke-opacity:1;stroke-miterlimit:4;" d="M 294.597395 58.024529 L 643.688305 58.024529 C 674.779214 58.024529 700.051941 83.297256 700.051941 114.388165 L 700.051941 463.479075 C 700.051941 494.569984 674.779214 519.842711 643.688305 519.842711 L 294.597395 519.842711 C 263.506486 519.842711 238.233759 494.569984 238.233759 463.479075 L 238.233759 114.388165 C 238.233759 83.297256 263.506486 58.024529 294.597395 58.024529 Z M 294.597395 58.024529 " transform="matrix(0.0429688,0,0,0.0429688,-9.158482,-1.415116)"/>
<path style=" stroke:none;fill-rule:nonzero;fill:rgb(20%,20%,20%);fill-opacity:1;" d="M 19.433594 11 C 19.433594 15.542969 15.75 19.226562 11.207031 19.226562 C 6.664062 19.226562 2.980469 15.542969 2.980469 11 C 2.980469 6.457031 6.664062 2.773438 11.207031 2.773438 C 15.75 2.773438 19.433594 6.457031 19.433594 11 Z M 19.433594 11 "/>
<path style=" stroke:none;fill-rule:nonzero;fill:rgb(29.803922%,29.803922%,29.803922%);fill-opacity:1;" d="M 14.632812 11 C 14.632812 12.894531 13.097656 14.425781 11.207031 14.425781 C 9.3125 14.425781 7.777344 12.894531 7.777344 11 C 7.777344 9.105469 9.3125 7.574219 11.207031 7.574219 C 13.097656 7.574219 14.632812 9.105469 14.632812 11 Z M 14.632812 11 "/>
<path style=" stroke:none;fill-rule:nonzero;fill:rgb(9.803922%,72.941176%,61.176471%);fill-opacity:1;" d="M 13.71875 11 C 13.71875 12.386719 12.59375 13.511719 11.207031 13.511719 C 9.816406 13.511719 8.691406 12.386719 8.691406 11 C 8.691406 9.613281 9.816406 8.488281 11.207031 8.488281 C 12.59375 8.488281 13.71875 9.613281 13.71875 11 Z M 13.71875 11 "/>
<path style=" stroke:none;fill-rule:nonzero;fill:rgb(20%,20%,20%);fill-opacity:1;" d="M 11.433594 11 C 11.433594 11.125 11.332031 11.226562 11.207031 11.226562 C 11.082031 11.226562 10.976562 11.125 10.976562 11 C 10.976562 10.875 11.082031 10.773438 11.207031 10.773438 C 11.332031 10.773438 11.433594 10.875 11.433594 11 Z M 11.433594 11 "/>
<path style="fill:none;stroke-width:0.814285;stroke-linecap:butt;stroke-linejoin:miter;stroke:rgb(29.803922%,29.803922%,29.803922%);stroke-opacity:1;stroke-miterlimit:4;" d="M 82.031303 116.362195 C 82.031303 197.028663 16.676848 262.452718 -63.98962 262.452718 C -144.656088 262.452718 -210.080143 197.028663 -210.080143 116.362195 C -210.080143 35.695727 -144.656088 -29.728328 -63.98962 -29.728328 C 16.676848 -29.728328 82.031303 35.695727 82.031303 116.362195 Z M 82.031303 116.362195 " transform="matrix(0.0561242,0,0,0.0561242,14.7984,4.469261)"/>
<path style="fill:none;stroke-width:0.814286;stroke-linecap:butt;stroke-linejoin:miter;stroke:rgb(29.803922%,29.803922%,29.803922%);stroke-opacity:1;stroke-miterlimit:4;" d="M 73.888096 116.362195 C 73.888096 192.504659 12.152844 254.309511 -63.98962 254.309511 C -140.201684 254.309511 -201.936936 192.504659 -201.936936 116.362195 C -201.936936 40.219731 -140.201684 -21.585121 -63.98962 -21.585121 C 12.152844 -21.585121 73.888096 40.219731 73.888096 116.362195 Z M 73.888096 116.362195 " transform="matrix(0.0561242,0,0,0.0561242,14.7984,4.469261)"/>
<path style="fill:none;stroke-width:0.814286;stroke-linecap:butt;stroke-linejoin:miter;stroke:rgb(29.803922%,29.803922%,29.803922%);stroke-opacity:1;stroke-miterlimit:4;" d="M 69.851293 116.362195 C 69.851293 190.277457 9.925642 250.203108 -63.98962 250.203108 C -137.904882 250.203108 -197.830533 190.277457 -197.830533 116.362195 C -197.830533 42.446933 -137.904882 -17.478718 -63.98962 -17.478718 C 9.925642 -17.478718 69.851293 42.446933 69.851293 116.362195 Z M 69.851293 116.362195 " transform="matrix(0.0561242,0,0,0.0561242,14.7984,4.469261)"/>
<path style="fill:none;stroke-width:0.814286;stroke-linecap:butt;stroke-linejoin:miter;stroke:rgb(29.803922%,29.803922%,29.803922%);stroke-opacity:1;stroke-miterlimit:4;" d="M 65.744889 116.362195 C 65.744889 188.050255 7.69844 246.166304 -63.98962 246.166304 C -135.67768 246.166304 -193.793729 188.050255 -193.793729 116.362195 C -193.793729 44.674135 -135.67768 -13.441914 -63.98962 -13.441914 C 7.69844 -13.441914 65.744889 44.674135 65.744889 116.362195 Z M 65.744889 116.362195 " transform="matrix(0.0561242,0,0,0.0561242,14.7984,4.469261)"/>
<path style="fill:none;stroke-width:0.814286;stroke-linecap:butt;stroke-linejoin:miter;stroke:rgb(29.803922%,29.803922%,29.803922%);stroke-opacity:1;stroke-miterlimit:4;" d="M 61.708086 116.362195 C 61.708086 185.823053 5.401638 242.059901 -63.98962 242.059901 C -133.450479 242.059901 -189.687326 185.823053 -189.687326 116.362195 C -189.687326 46.901336 -133.450479 -9.335511 -63.98962 -9.335511 C 5.401638 -9.335511 61.708086 46.901336 61.708086 116.362195 Z M 61.708086 116.362195 " transform="matrix(0.0561242,0,0,0.0561242,14.7984,4.469261)"/>
<path style="fill:none;stroke-width:0.814286;stroke-linecap:butt;stroke-linejoin:miter;stroke:rgb(29.803922%,29.803922%,29.803922%);stroke-opacity:1;stroke-miterlimit:4;" d="M 57.671282 116.362195 C 57.671282 183.526251 3.174436 238.023097 -63.98962 238.023097 C -131.153677 238.023097 -185.650523 183.526251 -185.650523 116.362195 C -185.650523 49.198138 -131.153677 -5.298707 -63.98962 -5.298707 C 3.174436 -5.298707 57.671282 49.198138 57.671282 116.362195 Z M 57.671282 116.362195 " transform="matrix(0.0561242,0,0,0.0561242,14.7984,4.469261)"/>
<path style="fill:none;stroke-width:4.071427;stroke-linecap:butt;stroke-linejoin:miter;stroke:rgb(29.803922%,29.803922%,29.803922%);stroke-opacity:1;stroke-miterlimit:4;" d="M 53.564879 116.362195 C 53.564879 181.29905 0.947235 233.916694 -63.98962 233.916694 C -128.926475 233.916694 -181.544119 181.29905 -181.544119 116.362195 C -181.544119 51.42534 -128.926475 -1.192304 -63.98962 -1.192304 C 0.947235 -1.192304 53.564879 51.42534 53.564879 116.362195 Z M 53.564879 116.362195 " transform="matrix(0.0561242,0,0,0.0561242,14.7984,4.469261)"/>
<path style="fill:none;stroke-width:0.814286;stroke-linecap:butt;stroke-linejoin:miter;stroke:rgb(29.803922%,29.803922%,29.803922%);stroke-opacity:1;stroke-miterlimit:4;" d="M 49.528075 116.362195 C 49.528075 179.071848 -1.349567 229.87989 -63.98962 229.87989 C -126.699273 229.87989 -177.507316 179.071848 -177.507316 116.362195 C -177.507316 53.652542 -126.699273 2.844499 -63.98962 2.844499 C -1.349567 2.844499 49.528075 53.652542 49.528075 116.362195 Z M 49.528075 116.362195 " transform="matrix(0.0561242,0,0,0.0561242,14.7984,4.469261)"/>
<path style="fill:none;stroke-width:0.814286;stroke-linecap:butt;stroke-linejoin:miter;stroke:rgb(29.803922%,29.803922%,29.803922%);stroke-opacity:1;stroke-miterlimit:4;" d="M 45.421672 116.362195 C 45.421672 176.775046 -3.576769 225.773487 -63.98962 225.773487 C -124.402471 225.773487 -173.400912 176.775046 -173.400912 116.362195 C -173.400912 55.949344 -124.402471 6.950903 -63.98962 6.950903 C -3.576769 6.950903 45.421672 55.949344 45.421672 116.362195 Z M 45.421672 116.362195 " transform="matrix(0.0561242,0,0,0.0561242,14.7984,4.469261)"/>
<path style="fill:none;stroke-width:0.814286;stroke-linecap:butt;stroke-linejoin:miter;stroke:rgb(29.803922%,29.803922%,29.803922%);stroke-opacity:1;stroke-miterlimit:4;" d="M 41.384869 116.362195 C 41.384869 174.547844 -5.803971 221.736684 -63.98962 221.736684 C -122.175269 221.736684 -169.364109 174.547844 -169.364109 116.362195 C -169.364109 58.176546 -122.175269 10.987706 -63.98962 10.987706 C -5.803971 10.987706 41.384869 58.176546 41.384869 116.362195 Z M 41.384869 116.362195 " transform="matrix(0.0561242,0,0,0.0561242,14.7984,4.469261)"/>
<path style="fill:none;stroke-width:0.814286;stroke-linecap:butt;stroke-linejoin:miter;stroke:rgb(29.803922%,29.803922%,29.803922%);stroke-opacity:1;stroke-miterlimit:4;" d="M 37.278465 116.362195 C 37.278465 172.320642 -8.031173 217.63028 -63.98962 217.63028 C -119.948067 217.63028 -165.257705 172.320642 -165.257705 116.362195 C -165.257705 60.403748 -119.948067 15.09411 -63.98962 15.09411 C -8.031173 15.09411 37.278465 60.403748 37.278465 116.362195 Z M 37.278465 116.362195 " transform="matrix(0.0561242,0,0,0.0561242,14.7984,4.469261)"/>
<path style="fill:none;stroke-width:0.814286;stroke-linecap:butt;stroke-linejoin:miter;stroke:rgb(29.803922%,29.803922%,29.803922%);stroke-opacity:1;stroke-miterlimit:4;" d="M 33.241662 116.362195 C 33.241662 170.02384 -10.327975 213.593477 -63.98962 213.593477 C -117.720865 213.593477 -161.220902 170.02384 -161.220902 116.362195 C -161.220902 62.70055 -117.720865 19.130913 -63.98962 19.130913 C -10.327975 19.130913 33.241662 62.70055 33.241662 116.362195 Z M 33.241662 116.362195 " transform="matrix(0.0561242,0,0,0.0561242,14.7984,4.469261)"/>
<path style="fill:none;stroke-width:0.814285;stroke-linecap:butt;stroke-linejoin:miter;stroke:rgb(29.803922%,29.803922%,29.803922%);stroke-opacity:1;stroke-miterlimit:4;" d="M 29.135258 116.362195 C 29.135258 167.796638 -12.555177 209.487073 -63.98962 209.487073 C -115.424063 209.487073 -157.114498 167.796638 -157.114498 116.362195 C -157.114498 64.927752 -115.424063 23.237317 -63.98962 23.237317 C -12.555177 23.237317 29.135258 64.927752 29.135258 116.362195 Z M 29.135258 116.362195 " transform="matrix(0.0561242,0,0,0.0561242,14.7984,4.469261)"/>
<path style="fill:none;stroke-width:4.071428;stroke-linecap:butt;stroke-linejoin:miter;stroke:rgb(29.803922%,29.803922%,29.803922%);stroke-opacity:1;stroke-miterlimit:4;" d="M 25.098455 116.362195 C 25.098455 165.569436 -14.782379 205.45027 -63.98962 205.45027 C -113.196862 205.45027 -153.077695 165.569436 -153.077695 116.362195 C -153.077695 67.154954 -113.196862 27.27412 -63.98962 27.27412 C -14.782379 27.27412 25.098455 67.154954 25.098455 116.362195 Z M 25.098455 116.362195 " transform="matrix(0.0561242,0,0,0.0561242,14.7984,4.469261)"/>
<path style="fill:none;stroke-width:0.814286;stroke-linecap:butt;stroke-linejoin:miter;stroke:rgb(29.803922%,29.803922%,29.803922%);stroke-opacity:1;stroke-miterlimit:4;" d="M 20.992051 116.362195 C 20.992051 163.272634 -17.079181 201.343866 -63.98962 201.343866 C -110.96966 201.343866 -148.971292 163.272634 -148.971292 116.362195 C -148.971292 69.451755 -110.96966 31.380523 -63.98962 31.380523 C -17.079181 31.380523 20.992051 69.451755 20.992051 116.362195 Z M 20.992051 116.362195 " transform="matrix(0.0561242,0,0,0.0561242,14.7984,4.469261)"/>
<path style="fill:none;stroke-width:0.814286;stroke-linecap:butt;stroke-linejoin:miter;stroke:rgb(29.803922%,29.803922%,29.803922%);stroke-opacity:1;stroke-miterlimit:4;" d="M 16.955248 116.362195 C 16.955248 161.045433 -19.306383 197.307063 -63.98962 197.307063 C -108.672858 197.307063 -144.934488 161.045433 -144.934488 116.362195 C -144.934488 71.678957 -108.672858 35.417327 -63.98962 35.417327 C -19.306383 35.417327 16.955248 71.678957 16.955248 116.362195 Z M 16.955248 116.362195 " transform="matrix(0.0561242,0,0,0.0561242,14.7984,4.469261)"/>
<path style="fill:none;stroke-width:0.814286;stroke-linecap:butt;stroke-linejoin:miter;stroke:rgb(29.803922%,29.803922%,29.803922%);stroke-opacity:1;stroke-miterlimit:4;" d="M 12.848845 116.362195 C 12.848845 158.818231 -21.533584 193.20066 -63.98962 193.20066 C -106.445656 193.20066 -140.828085 158.818231 -140.828085 116.362195 C -140.828085 73.906159 -106.445656 39.52373 -63.98962 39.52373 C -21.533584 39.52373 12.848845 73.906159 12.848845 116.362195 Z M 12.848845 116.362195 " transform="matrix(0.0561242,0,0,0.0561242,14.7984,4.469261)"/>
<path style="fill:none;stroke-width:0.814286;stroke-linecap:butt;stroke-linejoin:miter;stroke:rgb(29.803922%,29.803922%,29.803922%);stroke-opacity:1;stroke-miterlimit:4;" d="M 8.812041 116.362195 C 8.812041 156.591029 -23.830386 189.163856 -63.98962 189.163856 C -104.218454 189.163856 -136.791281 156.591029 -136.791281 116.362195 C -136.791281 76.133361 -104.218454 43.560534 -63.98962 43.560534 C -23.830386 43.560534 8.812041 76.133361 8.812041 116.362195 Z M 8.812041 116.362195 " transform="matrix(0.0561242,0,0,0.0561242,14.7984,4.469261)"/>
<path style="fill:none;stroke-width:0.814286;stroke-linecap:butt;stroke-linejoin:miter;stroke:rgb(29.803922%,29.803922%,29.803922%);stroke-opacity:1;stroke-miterlimit:4;" d="M 4.705638 116.362195 C 4.705638 154.294227 -26.057588 185.057453 -63.98962 185.057453 C -101.921652 185.057453 -132.684878 154.294227 -132.684878 116.362195 C -132.684878 78.430163 -101.921652 47.666937 -63.98962 47.666937 C -26.057588 47.666937 4.705638 78.430163 4.705638 116.362195 Z M 4.705638 116.362195 " transform="matrix(0.0561242,0,0,0.0561242,14.7984,4.469261)"/>
<path style="fill:none;stroke-width:0.814286;stroke-linecap:butt;stroke-linejoin:miter;stroke:rgb(29.803922%,29.803922%,29.803922%);stroke-opacity:1;stroke-miterlimit:4;" d="M 0.668834 116.362195 C 0.668834 152.067025 -28.28479 181.020649 -63.98962 181.020649 C -99.69445 181.020649 -128.648075 152.067025 -128.648075 116.362195 C -128.648075 80.657365 -99.69445 51.703741 -63.98962 51.703741 C -28.28479 51.703741 0.668834 80.657365 0.668834 116.362195 Z M 0.668834 116.362195 " transform="matrix(0.0561242,0,0,0.0561242,14.7984,4.469261)"/>
<path style="fill:none;stroke-width:4.071428;stroke-linecap:butt;stroke-linejoin:miter;stroke:rgb(29.803922%,29.803922%,29.803922%);stroke-opacity:1;stroke-miterlimit:4;" d="M 80.569702 116.362195 C 80.569702 196.193462 15.841647 260.921517 -63.98962 260.921517 C -143.820887 260.921517 -208.548942 196.193462 -208.548942 116.362195 C -208.548942 36.530928 -143.820887 -28.197127 -63.98962 -28.197127 C 15.841647 -28.197127 80.569702 36.530928 80.569702 116.362195 Z M 80.569702 116.362195 " transform="matrix(0.0561242,0,0,0.0561242,14.7984,4.469261)"/>
<path style=" stroke:none;fill-rule:nonzero;fill:rgb(29.019608%,68.235294%,90.196078%);fill-opacity:0.980392;" d="M 5.101562 4.207031 C 5.101562 4.90625 4.535156 5.476562 3.832031 5.476562 C 3.132812 5.476562 2.566406 4.90625 2.566406 4.207031 C 2.566406 3.507812 3.132812 2.941406 3.832031 2.941406 C 4.535156 2.941406 5.101562 3.507812 5.101562 4.207031 Z M 5.101562 4.207031 "/>
<path style=" stroke:none;fill-rule:nonzero;fill:rgb(0%,0%,0%);fill-opacity:0.301961;" d="M 2.574219 4.082031 C 2.570312 4.125 2.566406 4.164062 2.566406 4.207031 C 2.566406 4.90625 3.132812 5.476562 3.832031 5.476562 C 4.535156 5.476562 5.101562 4.90625 5.101562 4.207031 C 5.101562 4.167969 5.097656 4.128906 5.09375 4.089844 C 5.027344 4.738281 4.484375 5.230469 3.832031 5.230469 C 3.179688 5.230469 2.632812 4.730469 2.574219 4.082031 Z M 2.574219 4.082031 "/>
<g clip-path="url(#clip1)" clip-rule="nonzero">
<path style="fill:none;stroke-width:15;stroke-linecap:round;stroke-linejoin:miter;stroke:rgb(0%,0%,0%);stroke-opacity:1;stroke-miterlimit:4;" d="M 722.154202 354.189808 L 754.847911 534.774467 C 754.847911 534.774467 760.52123 570.160598 783.983774 582.949608 C 807.446318 595.738617 842.640133 610.73926 842.640133 610.73926 " transform="matrix(0.0406233,0,0,0.0406233,-25.191726,-9.771157)"/>
</g>
<path style=" stroke:none;fill-rule:nonzero;fill:rgb(0%,0%,0%);fill-opacity:0.996078;" d="M 6.710938 14.613281 L 7.238281 13.511719 L 8.847656 14.28125 L 8.320312 15.386719 Z M 6.710938 14.613281 "/>
<path style=" stroke:none;fill-rule:nonzero;fill:rgb(0%,0%,0%);fill-opacity:0.996078;" d="M 3.175781 3.984375 L 3.582031 6.039062 L 4.296875 7.453125 L 4.855469 7.351562 L 5.003906 5.738281 L 4.597656 3.679688 C 4.113281 3.550781 3.417969 3.765625 3.175781 3.984375 Z M 3.175781 3.984375 "/>
<path style="fill:none;stroke-width:10.857144;stroke-linecap:round;stroke-linejoin:miter;stroke:rgb(29.019608%,68.235294%,90.196078%);stroke-opacity:1;stroke-miterlimit:4;" d="M -194.35053 -1.679504 L -170.68651 129.029406 C -170.68651 129.029406 -166.580106 154.642227 -149.597692 163.899035 C -132.615278 173.086243 -107.141656 184.013452 -107.141656 184.013452 " transform="matrix(0.0561242,0,0,0.0561242,14.7984,4.469261)"/>
<path style=" stroke:none;fill-rule:nonzero;fill:rgb(0%,0%,0%);fill-opacity:1;" d="M 6.535156 14.535156 L 7.066406 13.429688 L 8.675781 14.203125 L 8.148438 15.304688 Z M 6.535156 14.535156 "/>
<path style=" stroke:none;fill-rule:nonzero;fill:rgb(16.862745%,60%,84.313725%);fill-opacity:0.996078;" d="M 6.457031 14.371094 L 6.984375 13.265625 L 8.59375 14.039062 L 8.066406 15.144531 Z M 6.457031 14.371094 "/>
<path style=" stroke:none;fill-rule:nonzero;fill:rgb(0%,0%,0%);fill-opacity:0.996078;" d="M 3.066406 4.054688 L 3.46875 6.113281 L 4.1875 7.523438 L 4.742188 7.421875 L 4.890625 5.808594 L 4.484375 3.753906 C 4 3.621094 3.304688 3.835938 3.066406 4.054688 Z M 3.066406 4.054688 "/>
<path style=" stroke:none;fill-rule:nonzero;fill:rgb(16.862745%,60%,84.313725%);fill-opacity:0.996078;" d="M 3.003906 3.761719 L 3.40625 5.820312 L 4.125 7.230469 L 4.679688 7.128906 L 4.828125 5.515625 L 4.421875 3.457031 C 3.9375 3.328125 3.242188 3.542969 3.003906 3.761719 Z M 3.003906 3.761719 "/>
</g>
</svg>
