
<svg xmlns="http://www.w3.org/2000/svg" xmlns:xlink="http://www.w3.org/1999/xlink" width="22px" height="22px" viewBox="0 0 22 22" version="1.1">
<defs>
<filter id="alpha" filterUnits="objectBoundingBox" x="0%" y="0%" width="100%" height="100%">
  <feColorMatrix type="matrix" in="SourceGraphic" values="0 0 0 0 1 0 0 0 0 1 0 0 0 0 1 0 0 0 1 0"/>
</filter>
<mask id="mask0">
  <g filter="url(#alpha)">
<rect x="0" y="0" width="22" height="22" style="fill:rgb(0%,0%,0%);fill-opacity:0.2;stroke:none;"/>
  </g>
</mask>
<clipPath id="clip1">
  <rect x="0" y="0" width="22" height="22"/>
</clipPath>
<g id="surface5" clip-path="url(#clip1)">
<path style=" stroke:none;fill-rule:nonzero;fill:rgb(0%,0%,0%);fill-opacity:1;" d="M 11.132812 5.679688 C 6.683594 5.679688 3.078125 8.257812 3.078125 11.433594 C 3.078125 14.613281 6.683594 17.1875 11.132812 17.1875 C 15.582031 17.1875 19.1875 14.613281 19.1875 11.433594 C 19.1875 8.257812 15.582031 5.679688 11.132812 5.679688 Z M 12.285156 6.832031 C 15.460938 6.832031 18.039062 8.890625 18.039062 11.433594 C 18.039062 13.976562 15.460938 16.035156 12.285156 16.035156 C 9.105469 16.035156 6.53125 13.976562 6.53125 11.433594 C 6.53125 8.890625 9.105469 6.832031 12.285156 6.832031 Z M 12.285156 6.832031 "/>
</g>
</defs>
<g id="surface1">
<path style="fill-rule:nonzero;fill:rgb(100%,100%,100%);fill-opacity:1;stroke-width:27.910587;stroke-linecap:butt;stroke-linejoin:miter;stroke:rgb(0%,67.058824%,93.333333%);stroke-opacity:1;stroke-miterlimit:4;" d="M 83.181818 27.363636 L 428.818182 27.363636 C 459.636364 27.363636 484.636364 52.363636 484.636364 83.181818 L 484.636364 428.818182 C 484.636364 459.636364 459.636364 484.636364 428.818182 484.636364 L 83.181818 484.636364 C 52.363636 484.636364 27.363636 459.636364 27.363636 428.818182 L 27.363636 83.181818 C 27.363636 52.363636 52.363636 27.363636 83.181818 27.363636 Z M 83.181818 27.363636 " transform="matrix(0.0429688,0,0,0.0429688,0,0)"/>
<use xlink:href="#surface5" mask="url(#mask0)"/>
<path style=" stroke:none;fill-rule:evenodd;fill:rgb(11.764706%,38.431373%,69.803922%);fill-opacity:1;" d="M 15.964844 13.503906 C 15.964844 13.503906 16.222656 13.433594 16.476562 13.5625 C 16.5625 13.605469 16.714844 13.695312 16.824219 13.816406 C 16.933594 13.929688 16.984375 14.046875 16.984375 14.046875 L 18.039062 17.152344 L 15.160156 17.152344 C 15.160156 17.152344 14.507812 15.007812 13.820312 14.085938 C 13.683594 13.976562 13.570312 13.683594 13.433594 13.703125 L 12.285156 13.703125 L 12.285156 17.152344 L 9.984375 17.152344 L 9.984375 7.949219 L 14.964844 7.949219 C 15.507812 7.949219 17.382812 8.523438 17.460938 10.824219 C 17.382812 13.128906 15.964844 13.539062 15.964844 13.539062 Z M 12.285156 10.21875 L 12.285156 11.945312 L 14.585938 11.945312 C 14.585938 11.945312 15.179688 11.894531 15.160156 11.023438 C 15.144531 10.199219 14.585938 10.21875 14.585938 10.21875 Z M 12.285156 10.21875 "/>
</g>
</svg>
