
<svg xmlns="http://www.w3.org/2000/svg" xmlns:xlink="http://www.w3.org/1999/xlink" width="22px" height="22px" viewBox="0 0 22 22" version="1.1">
<g id="surface3">
<path style="fill-rule:nonzero;fill:rgb(19.215686%,63.921569%,76.862745%);fill-opacity:1;stroke-width:28.016188;stroke-linecap:butt;stroke-linejoin:miter;stroke:rgb(23.921569%,80%,96.078431%);stroke-opacity:1;stroke-miterlimit:4;" d="M 82.545455 26.545455 L 429.454545 26.545455 C 460.363636 26.545455 485.454545 51.636364 485.454545 82.545455 L 485.454545 429.454545 C 485.454545 460.363636 460.363636 485.454545 429.454545 485.454545 L 82.545455 485.454545 C 51.636364 485.454545 26.545455 460.363636 26.545455 429.454545 L 26.545455 82.545455 C 26.545455 51.636364 51.636364 26.545455 82.545455 26.545455 Z M 82.545455 26.545455 " transform="matrix(0.0429688,0,0,0.0429688,0,0)"/>
<path style=" stroke:none;fill-rule:nonzero;fill:rgb(100%,100%,100%);fill-opacity:1;" d="M 12.175781 4.828125 L 9.695312 4.839844 L 9.761719 12.972656 L 7.707031 11.171875 L 6.222656 12.507812 L 9.550781 15.425781 L 6.109375 15.425781 L 6.109375 17.171875 L 15.890625 17.171875 L 15.890625 15.425781 L 12.46875 15.425781 L 15.777344 12.457031 L 14.273438 11.140625 L 12.242188 12.960938 Z M 12.175781 4.828125 "/>
</g>
</svg>
