
<svg xmlns="http://www.w3.org/2000/svg" xmlns:xlink="http://www.w3.org/1999/xlink" width="22px" height="22px" viewBox="0 0 22 22" version="1.1">
<g id="surface1">
<path style="fill-rule:nonzero;fill:rgb(18.823529%,20.784314%,27.058824%);fill-opacity:1;stroke-width:27.936749;stroke-linecap:butt;stroke-linejoin:miter;stroke:rgb(18.823529%,20.784314%,27.058824%);stroke-opacity:1;stroke-miterlimit:4;" d="M 83.090909 27.181818 L 428.909091 27.181818 C 459.818182 27.181818 484.818182 52.181818 484.818182 83.090909 L 484.818182 428.909091 C 484.818182 459.818182 459.818182 484.818182 428.909091 484.818182 L 83.090909 484.818182 C 52.181818 484.818182 27.181818 459.818182 27.181818 428.909091 L 27.181818 83.090909 C 27.181818 52.181818 52.181818 27.181818 83.090909 27.181818 Z M 83.090909 27.181818 " transform="matrix(0.0429688,0,0,0.0429688,0,0)"/>
<path style=" stroke:none;fill-rule:nonzero;fill:rgb(18.823529%,20.784314%,27.058824%);fill-opacity:1;" d="M 2.988281 1.679688 L 18.53125 1.679688 C 19.386719 1.679688 20.082031 2.375 20.082031 3.234375 L 20.082031 18.777344 C 20.082031 19.632812 19.386719 20.328125 18.53125 20.328125 L 2.988281 20.328125 C 2.128906 20.328125 1.433594 19.632812 1.433594 18.777344 L 1.433594 3.234375 C 1.433594 2.375 2.128906 1.679688 2.988281 1.679688 Z M 2.988281 1.679688 "/>
<path style=" stroke:none;fill-rule:nonzero;fill:rgb(90.196078%,49.019608%,12.941176%);fill-opacity:1;" d="M 19.914062 3.082031 C 19.9375 3.125 19.957031 3.171875 19.972656 3.21875 C 19.957031 3.171875 19.9375 3.125 19.914062 3.082031 Z M 20.066406 6.722656 L 1.417969 11.71875 L 1.417969 15.121094 L 20.066406 10.125 Z M 20.066406 6.722656 "/>
<path style=" stroke:none;fill-rule:nonzero;fill:rgb(95.294118%,61.176471%,6.666667%);fill-opacity:1;" d="M 16.945312 1.679688 L 9.980469 8.644531 L 13.644531 9.625 L 20.082031 3.1875 C 20.058594 2.351562 19.378906 1.679688 18.53125 1.679688 Z M 16.945312 1.679688 "/>
<path style=" stroke:none;fill-rule:nonzero;fill:rgb(74.901961%,21.960784%,15.686275%);fill-opacity:1;" d="M 9.117188 11.792969 L 9.117188 20.328125 L 12.402344 20.328125 L 12.402344 11.792969 Z M 9.117188 11.792969 "/>
<path style=" stroke:none;fill-rule:nonzero;fill:rgb(94.117647%,76.078431%,4.705882%);fill-opacity:1;" d="M 12.027344 1.671875 L 9.425781 11.375 C 10.050781 11.214844 10.699219 11.125 11.371094 11.125 C 11.878906 11.125 12.375 11.175781 12.855469 11.269531 L 15.429688 1.671875 Z M 20.53125 2.125 C 20.546875 2.140625 20.5625 2.160156 20.582031 2.179688 C 20.5625 2.160156 20.546875 2.140625 20.53125 2.125 Z M 20.53125 2.125 "/>
<path style=" stroke:none;fill-rule:nonzero;fill:rgb(90.196078%,49.019608%,12.941176%);fill-opacity:1;" d="M 6.378906 1.683594 L 8.953125 11.28125 C 9.433594 11.191406 9.929688 11.140625 10.4375 11.140625 C 11.109375 11.140625 11.757812 11.230469 12.382812 11.386719 L 9.78125 1.683594 Z M 19.597656 2.136719 C 19.613281 2.15625 19.632812 2.171875 19.648438 2.191406 C 19.632812 2.171875 19.613281 2.15625 19.597656 2.136719 Z M 19.648438 19.824219 C 19.632812 19.84375 19.613281 19.863281 19.597656 19.878906 C 19.613281 19.863281 19.632812 19.84375 19.648438 19.824219 Z M 19.648438 19.824219 "/>
<path style=" stroke:none;fill-rule:nonzero;fill:rgb(95.294118%,61.176471%,6.666667%);fill-opacity:1;" d="M 2.988281 1.679688 C 2.128906 1.679688 1.433594 2.375 1.433594 3.234375 L 1.433594 3.765625 L 8.953125 11.28125 C 9.445312 11.1875 9.949219 11.136719 10.472656 11.136719 C 12.011719 11.136719 13.441406 11.578125 14.652344 12.335938 L 3.996094 1.679688 Z M 19.628906 2.132812 C 19.648438 2.152344 19.664062 2.167969 19.679688 2.1875 C 19.664062 2.167969 19.648438 2.152344 19.628906 2.132812 Z M 19.679688 19.820312 C 19.664062 19.839844 19.648438 19.859375 19.628906 19.875 C 19.648438 19.859375 19.664062 19.839844 19.679688 19.820312 Z M 19.679688 19.820312 "/>
<path style=" stroke:none;fill-rule:nonzero;fill:rgb(90.196078%,49.019608%,12.941176%);fill-opacity:1;" d="M 2.988281 2.5625 C 2.9375 2.5625 2.886719 2.566406 2.835938 2.570312 C 2.882812 2.566406 2.9375 2.5625 2.988281 2.5625 Z M 18.53125 2.5625 C 18.585938 2.5625 18.636719 2.566406 18.691406 2.574219 C 18.636719 2.566406 18.585938 2.5625 18.53125 2.5625 Z M 1.433594 7.238281 L 1.433594 10.640625 L 20.082031 15.636719 L 20.082031 12.234375 Z M 1.433594 7.238281 "/>
</g>
</svg>
