
<svg xmlns="http://www.w3.org/2000/svg" xmlns:xlink="http://www.w3.org/1999/xlink" width="22px" height="22px" viewBox="0 0 22 22" version="1.1">
<g id="surface1">
<path style="fill-rule:nonzero;fill:rgb(92.156863%,92.156863%,92.156863%);fill-opacity:1;stroke-width:28.520006;stroke-linecap:butt;stroke-linejoin:miter;stroke:rgb(92.156863%,92.156863%,92.156863%);stroke-opacity:1;stroke-miterlimit:4;" d="M 79.454545 22.363636 L 432.545455 22.363636 C 464.090909 22.363636 489.636364 47.909091 489.636364 79.454545 L 489.636364 432.545455 C 489.636364 464.090909 464.090909 489.636364 432.545455 489.636364 L 79.454545 489.636364 C 47.909091 489.636364 22.363636 464.090909 22.363636 432.545455 L 22.363636 79.454545 C 22.363636 47.909091 47.909091 22.363636 79.454545 22.363636 Z M 79.454545 22.363636 " transform="matrix(0.0429688,0,0,0.0429688,0,0)"/>
<path style=" stroke:none;fill-rule:nonzero;fill:rgb(25.490196%,25.490196%,25.490196%);fill-opacity:1;" d="M 4.019531 1.765625 C 2.777344 1.765625 1.765625 2.777344 1.765625 4.019531 L 1.765625 7.585938 L 5.613281 6.929688 L 4.886719 1.765625 Z M 6.609375 1.765625 L 7.296875 6.644531 L 12.296875 5.792969 L 14.535156 1.765625 Z M 16.488281 1.765625 L 13.859375 6.492188 L 16.496094 11.0625 L 20.234375 9.429688 L 20.234375 4.019531 C 20.234375 2.777344 19.222656 1.765625 17.980469 1.765625 Z M 12.46875 7.496094 L 7.15625 8.398438 L 6.46875 13.441406 L 11.386719 16.078125 L 15.125 12.097656 Z M 5.554688 8.671875 L 1.765625 9.316406 L 1.765625 17.613281 L 4.835938 13.957031 Z M 20.234375 11.289062 L 17.367188 12.542969 L 20.234375 17.507812 Z M 15.933594 13.5 L 12.394531 17.269531 L 12.242188 20.234375 L 17.980469 20.234375 C 18.558594 20.234375 19.089844 20.015625 19.488281 19.652344 Z M 6.15625 15.035156 L 2.386719 19.53125 C 2.796875 19.964844 3.378906 20.234375 4.019531 20.234375 L 10.53125 20.234375 L 10.675781 17.457031 Z M 6.15625 15.035156 "/>
<path style="fill:none;stroke-width:12;stroke-linecap:butt;stroke-linejoin:miter;stroke:rgb(93.333333%,0%,0%);stroke-opacity:1;stroke-miterlimit:4;" d="M 11.368135 69.994588 L 30.644527 50.718196 C 36.091663 45.271061 46.065641 44.997461 51.836122 50.767942 L 61.710609 60.642429 " transform="matrix(0.157049,0,0,0.157049,1.066205,1.940993)"/>
<path style="fill:none;stroke-width:12;stroke-linecap:butt;stroke-linejoin:miter;stroke:rgb(93.333333%,0%,0%);stroke-opacity:1;stroke-miterlimit:4;" d="M 111.3069 50.544087 L 92.030508 69.795606 C 86.583373 75.267614 76.609395 75.541215 70.838913 69.770733 L 60.964426 59.896246 " transform="matrix(0.157049,0,0,0.157049,1.066205,1.940993)"/>
<path style="fill-rule:nonzero;fill:rgb(100%,0%,0%);fill-opacity:1;stroke-width:14;stroke-linecap:round;stroke-linejoin:round;stroke:rgb(93.333333%,0%,0%);stroke-opacity:1;stroke-miterlimit:4;" d="M 102.500557 45.029086 C 102.521093 39.074154 99.87185 34.227116 96.585966 34.227116 C 93.300082 34.227116 90.650838 39.074154 90.650838 45.04887 C 90.671375 51.003803 93.320619 55.850841 96.585966 55.831057 C 99.851313 55.850841 102.500557 51.003803 102.500557 45.029086 Z M 102.500557 45.029086 " transform="matrix(0.0951038,0.0951038,-0.0987233,0.0987233,12.986291,-2.974862)"/>
</g>
</svg>
