
<svg xmlns="http://www.w3.org/2000/svg" xmlns:xlink="http://www.w3.org/1999/xlink" width="22px" height="22px" viewBox="0 0 22 22" version="1.1">
<g id="surface1">
<path style="fill-rule:nonzero;fill:rgb(9.019608%,36.078431%,60%);fill-opacity:1;stroke-width:27.910587;stroke-linecap:butt;stroke-linejoin:miter;stroke:rgb(9.019608%,36.078431%,60%);stroke-opacity:1;stroke-miterlimit:4;" d="M 83.181818 27.363636 L 428.818182 27.363636 C 459.636364 27.363636 484.636364 52.363636 484.636364 83.181818 L 484.636364 428.818182 C 484.636364 459.636364 459.636364 484.636364 428.818182 484.636364 L 83.181818 484.636364 C 52.363636 484.636364 27.363636 459.636364 27.363636 428.818182 L 27.363636 83.181818 C 27.363636 52.363636 52.363636 27.363636 83.181818 27.363636 Z M 83.181818 27.363636 " transform="matrix(0.0429688,0,0,0.0429688,0,0)"/>
<path style=" stroke:none;fill-rule:nonzero;fill:rgb(100%,100%,100%);fill-opacity:1;" d="M 6.84375 2.703125 L 14.96875 2.703125 C 16.125 2.703125 17.058594 3.460938 17.058594 4.398438 L 17.058594 17.136719 C 17.058594 18.070312 16.125 18.832031 14.96875 18.832031 L 6.84375 18.832031 C 5.691406 18.832031 4.753906 18.070312 4.753906 17.136719 L 4.753906 4.398438 C 4.753906 3.460938 5.691406 2.703125 6.84375 2.703125 Z M 6.84375 2.703125 "/>
<path style=" stroke:none;fill-rule:nonzero;fill:rgb(13.72549%,54.117647%,81.176471%);fill-opacity:1;" d="M 4.140625 1.921875 C 2.914062 1.921875 1.921875 2.914062 1.921875 4.140625 L 1.921875 17.859375 C 1.921875 19.085938 2.914062 20.078125 4.140625 20.078125 L 17.859375 20.078125 C 19.085938 20.078125 20.078125 19.085938 20.078125 17.859375 L 20.078125 4.140625 C 20.078125 2.914062 19.085938 1.921875 17.859375 1.921875 Z M 10.929688 4.699219 C 11.945312 4.699219 12.761719 4.96875 13.375 5.503906 C 13.992188 6.039062 14.304688 6.746094 14.304688 7.625 C 14.304688 8.046875 14.203125 8.445312 14.003906 8.828125 C 13.804688 9.203125 13.457031 9.628906 12.960938 10.105469 L 12.230469 10.816406 C 11.972656 11.078125 11.785156 11.28125 11.675781 11.429688 C 11.570312 11.574219 11.496094 11.714844 11.453125 11.855469 C 11.417969 11.96875 11.394531 12.109375 11.378906 12.277344 C 11.359375 12.441406 11.351562 12.667969 11.351562 12.957031 L 11.351562 13.976562 L 9.769531 13.976562 L 9.769531 12.699219 C 9.769531 12.140625 9.847656 11.683594 10 11.324219 C 10.15625 10.964844 10.480469 10.546875 10.980469 10.070312 L 11.726562 9.332031 C 12.039062 9.042969 12.265625 8.765625 12.40625 8.503906 C 12.546875 8.246094 12.621094 7.980469 12.621094 7.710938 C 12.621094 7.21875 12.4375 6.820312 12.074219 6.515625 C 11.714844 6.210938 11.234375 6.058594 10.640625 6.058594 C 10.203125 6.058594 9.734375 6.15625 9.238281 6.351562 C 8.746094 6.542969 8.234375 6.824219 7.695312 7.195312 L 7.695312 5.636719 C 8.214844 5.320312 8.742188 5.085938 9.273438 4.933594 C 9.808594 4.777344 10.359375 4.699219 10.929688 4.699219 Z M 9.71875 15.195312 L 11.402344 15.195312 L 11.402344 17.300781 L 9.71875 17.300781 Z M 9.71875 15.195312 "/>
</g>
</svg>
