
<svg xmlns="http://www.w3.org/2000/svg" xmlns:xlink="http://www.w3.org/1999/xlink" width="22px" height="22px" viewBox="0 0 22 22" version="1.1">
<g id="surface1">
<path style="fill-rule:nonzero;fill:rgb(20%,27.843137%,36.078431%);fill-opacity:1;stroke-width:27.537834;stroke-linecap:butt;stroke-linejoin:miter;stroke:rgb(20%,27.843137%,36.078431%);stroke-opacity:1;stroke-miterlimit:4;" d="M 85.545455 30.454545 L 426.454545 30.454545 C 456.909091 30.454545 481.545455 55.090909 481.545455 85.545455 L 481.545455 426.454545 C 481.545455 456.909091 456.909091 481.545455 426.454545 481.545455 L 85.545455 481.545455 C 55.090909 481.545455 30.454545 456.909091 30.454545 426.454545 L 30.454545 85.545455 C 30.454545 55.090909 55.090909 30.454545 85.545455 30.454545 Z M 85.545455 30.454545 " transform="matrix(0.0429688,0,0,0.0429688,0,0)"/>
<path style=" stroke:none;fill-rule:nonzero;fill:rgb(74.117647%,76.078431%,78.039216%);fill-opacity:1;" d="M 4.15625 1.945312 L 17.84375 1.945312 C 19.066406 1.945312 20.054688 2.933594 20.054688 4.15625 L 20.054688 17.84375 C 20.054688 19.066406 19.066406 20.054688 17.84375 20.054688 L 4.15625 20.054688 C 2.933594 20.054688 1.945312 19.066406 1.945312 17.84375 L 1.945312 4.15625 C 1.945312 2.933594 2.933594 1.945312 4.15625 1.945312 Z M 4.15625 1.945312 "/>
<path style="fill-rule:nonzero;fill:rgb(58.039216%,63.921569%,65.098039%);fill-opacity:1;stroke-width:10.50525;stroke-linecap:butt;stroke-linejoin:miter;stroke:rgb(20%,27.843137%,36.078431%);stroke-opacity:1;stroke-miterlimit:4;" d="M 96.727273 45.272727 C 68.272727 45.272727 45.272727 68.272727 45.272727 96.727273 L 45.272727 162.454545 L 466.727273 162.454545 L 466.727273 96.727273 C 466.727273 68.272727 443.727273 45.272727 415.272727 45.272727 Z M 96.727273 45.272727 " transform="matrix(0.0429688,0,0,0.0429688,0,0)"/>
<path style=" stroke:none;fill-rule:nonzero;fill:rgb(20%,27.843137%,36.078431%);fill-opacity:1;" d="M 10.769531 1.941406 L 11.230469 1.941406 L 11.230469 6.984375 L 10.769531 6.984375 Z M 10.769531 1.941406 "/>
</g>
</svg>
