
<svg xmlns="http://www.w3.org/2000/svg" xmlns:xlink="http://www.w3.org/1999/xlink" width="22px" height="22px" viewBox="0 0 22 22" version="1.1">
<g id="surface1">
<path style="fill-rule:nonzero;fill:rgb(100%,100%,100%);fill-opacity:1;stroke-width:26.827002;stroke-linecap:butt;stroke-linejoin:miter;stroke:rgb(9.803922%,72.941176%,61.176471%);stroke-opacity:1;stroke-miterlimit:4;" d="M 90.454545 32.090909 L 422.545455 32.090909 C 452.181818 32.090909 476.272727 56.181818 476.272727 85.727273 L 476.272727 417.909091 C 476.272727 447.545455 452.181818 471.545455 422.545455 471.545455 L 90.454545 471.545455 C 60.818182 471.545455 36.818182 447.545455 36.818182 417.909091 L 36.818182 85.727273 C 36.818182 56.181818 60.818182 32.090909 90.454545 32.090909 Z M 90.454545 32.090909 " transform="matrix(0.0429688,0,0,0.0429688,0,0)"/>
<path style="fill:none;stroke-width:88.656181;stroke-linecap:butt;stroke-linejoin:miter;stroke:rgb(9.803922%,72.941176%,61.176471%);stroke-opacity:1;stroke-miterlimit:4;" d="M 1326.383603 266.449405 L 551.197565 266.2752 L 745.089795 -69.213712 L 938.980553 -404.975185 L 1132.681342 -69.39917 Z M 1326.383603 266.449405 " transform="matrix(-0.0000774052,0.0143313,-0.0143313,-0.0000774052,11.050129,-2.870929)"/>
</g>
</svg>
