
<svg xmlns="http://www.w3.org/2000/svg" xmlns:xlink="http://www.w3.org/1999/xlink" width="22px" height="22px" viewBox="0 0 22 22" version="1.1">
<g id="surface1">
<path style="fill-rule:nonzero;fill:rgb(20%,20%,20%);fill-opacity:1;stroke-width:27.910587;stroke-linecap:butt;stroke-linejoin:miter;stroke:rgb(20%,20%,20%);stroke-opacity:1;stroke-miterlimit:4;" d="M -493.902912 -81.110934 L -148.266548 -81.110934 C -117.448366 -81.110934 -92.448366 -56.110934 -92.448366 -25.292752 L -92.448366 320.343612 C -92.448366 351.161794 -117.448366 376.161794 -148.266548 376.161794 L -493.902912 376.161794 C -524.721094 376.161794 -549.721094 351.161794 -549.721094 320.343612 L -549.721094 -25.292752 C -549.721094 -56.110934 -524.721094 -81.110934 -493.902912 -81.110934 Z M -493.902912 -81.110934 " transform="matrix(0.0429688,0,0,0.0429688,24.796609,4.661017)"/>
<path style=" stroke:none;fill-rule:nonzero;fill:rgb(95.294118%,87.058824%,77.254902%);fill-opacity:1;" d="M 4.070312 1.828125 L 17.929688 1.828125 C 19.167969 1.828125 20.171875 2.832031 20.171875 4.070312 L 20.171875 17.929688 C 20.171875 19.167969 19.167969 20.171875 17.929688 20.171875 L 4.070312 20.171875 C 2.832031 20.171875 1.828125 19.167969 1.828125 17.929688 L 1.828125 4.070312 C 1.828125 2.832031 2.832031 1.828125 4.070312 1.828125 Z M 4.070312 1.828125 "/>
<path style=" stroke:none;fill-rule:nonzero;fill:rgb(81.176471%,61.176471%,40.784314%);fill-opacity:1;" d="M 1.828125 4.550781 L 19.988281 4.550781 L 19.988281 4.707031 L 1.828125 4.707031 Z M 1.828125 4.550781 "/>
<path style=" stroke:none;fill-rule:nonzero;fill:rgb(81.176471%,61.176471%,40.784314%);fill-opacity:1;" d="M 1.828125 7.355469 L 19.988281 7.355469 L 19.988281 7.511719 L 1.828125 7.511719 Z M 1.828125 7.355469 "/>
<path style=" stroke:none;fill-rule:nonzero;fill:rgb(81.176471%,61.176471%,40.784314%);fill-opacity:1;" d="M 1.828125 10.160156 L 19.988281 10.160156 L 19.988281 10.316406 L 1.828125 10.316406 Z M 1.828125 10.160156 "/>
<path style=" stroke:none;fill-rule:nonzero;fill:rgb(81.176471%,61.176471%,40.784314%);fill-opacity:1;" d="M 1.828125 12.964844 L 19.988281 12.964844 L 19.988281 13.121094 L 1.828125 13.121094 Z M 1.828125 12.964844 "/>
<path style=" stroke:none;fill-rule:nonzero;fill:rgb(81.176471%,61.176471%,40.784314%);fill-opacity:1;" d="M 1.828125 15.769531 L 19.988281 15.769531 L 19.988281 15.925781 L 1.828125 15.925781 Z M 1.828125 15.769531 "/>
<path style=" stroke:none;fill-rule:nonzero;fill:rgb(90.196078%,49.803922%,45.098039%);fill-opacity:1;" d="M 5.96875 20.171875 L 5.96875 1.828125 L 6.234375 1.828125 L 6.234375 20.171875 Z M 5.96875 20.171875 "/>
<path style=" stroke:none;fill-rule:nonzero;fill:rgb(7.843137%,9.019608%,9.019608%);fill-opacity:1;" d="M 8.566406 7.679688 L 3.058594 7.679688 L 2.898438 9.683594 L 3.070312 9.683594 C 3.191406 8.179688 3.328125 7.917969 4.808594 7.917969 C 4.980469 7.917969 5.257812 7.917969 5.335938 7.917969 C 5.515625 7.945312 5.515625 8.054688 5.515625 8.265625 L 5.515625 13.195312 C 5.515625 13.523438 5.488281 13.625 4.683594 13.625 L 4.414062 13.625 L 4.414062 13.84375 C 4.871094 13.835938 5.347656 13.824219 5.816406 13.824219 C 6.28125 13.824219 6.761719 13.835938 7.21875 13.84375 L 7.21875 13.625 L 6.953125 13.625 C 6.160156 13.625 6.132812 13.523438 6.132812 13.195312 L 6.132812 8.265625 C 6.132812 8.0625 6.132812 7.957031 6.304688 7.917969 L 6.828125 7.917969 C 8.285156 7.917969 8.429688 8.179688 8.554688 9.683594 L 8.722656 9.683594 "/>
<path style=" stroke:none;fill-rule:nonzero;fill:rgb(7.843137%,9.019608%,9.019608%);fill-opacity:1;" d="M 13.355469 13.527344 L 13.183594 13.527344 C 12.972656 14.871094 12.851562 15.601562 11.171875 15.601562 L 9.847656 15.601562 C 9.46875 15.601562 9.449219 15.554688 9.449219 15.242188 L 9.449219 12.710938 L 10.347656 12.710938 C 11.25 12.710938 11.335938 13.023438 11.335938 13.789062 L 11.488281 13.789062 L 11.488281 11.429688 L 11.335938 11.429688 C 11.335938 12.183594 11.25 12.492188 10.347656 12.492188 L 9.449219 12.492188 L 9.449219 10.246094 C 9.449219 9.9375 9.46875 9.894531 9.847656 9.894531 L 11.152344 9.894531 C 12.628906 9.894531 12.800781 10.449219 12.933594 11.648438 L 13.105469 11.648438 L 12.878906 9.644531 L 8.046875 9.644531 L 8.046875 9.894531 C 8.722656 9.894531 8.832031 9.894531 8.832031 10.300781 L 8.832031 15.191406 C 8.832031 15.597656 8.722656 15.597656 8.046875 15.597656 L 8.046875 15.816406 L 13.011719 15.816406 "/>
<path style=" stroke:none;fill-rule:nonzero;fill:rgb(7.843137%,9.019608%,9.019608%);fill-opacity:1;" d="M 15.925781 10.414062 L 17.335938 8.476562 C 17.480469 8.285156 17.765625 7.894531 18.550781 7.882812 L 18.550781 7.664062 C 18.332031 7.683594 17.96875 7.683594 17.738281 7.683594 C 17.425781 7.683594 17.035156 7.683594 16.796875 7.664062 L 16.796875 7.882812 C 17.101562 7.910156 17.175781 8.09375 17.175781 8.238281 C 17.175781 8.347656 17.128906 8.421875 17.0625 8.511719 L 15.804688 10.246094 L 14.390625 8.28125 C 14.324219 8.183594 14.316406 8.15625 14.316406 8.128906 C 14.316406 8.046875 14.421875 7.894531 14.734375 7.882812 L 14.734375 7.664062 C 14.429688 7.683594 13.964844 7.683594 13.648438 7.683594 C 13.402344 7.683594 12.925781 7.683594 12.695312 7.664062 L 12.695312 7.882812 C 13.21875 7.882812 13.390625 7.902344 13.601562 8.183594 L 15.441406 10.75 L 13.78125 13.054688 C 13.371094 13.617188 12.753906 13.625 12.570312 13.625 L 12.570312 13.84375 C 12.789062 13.828125 13.152344 13.828125 13.378906 13.828125 C 13.636719 13.828125 14.085938 13.828125 14.324219 13.84375 L 14.324219 13.625 C 14.027344 13.601562 13.941406 13.417969 13.941406 13.273438 C 13.941406 13.15625 13.988281 13.089844 14.039062 13.027344 L 15.5625 10.910156 L 17.222656 13.226562 C 17.296875 13.328125 17.296875 13.355469 17.296875 13.382812 C 17.296875 13.453125 17.214844 13.609375 16.878906 13.628906 L 16.878906 13.847656 C 17.183594 13.828125 17.652344 13.828125 17.964844 13.828125 C 18.210938 13.828125 18.6875 13.828125 18.921875 13.847656 L 18.921875 13.628906 C 18.308594 13.628906 18.214844 13.585938 18.023438 13.328125 "/>
<path style=" stroke:none;fill-rule:nonzero;fill:rgb(20%,20%,20%);fill-opacity:1;" d="M 3.300781 1.5625 L 4.820312 1.5625 L 4.820312 4.097656 L 3.300781 4.097656 Z M 3.300781 1.5625 "/>
<path style=" stroke:none;fill-rule:nonzero;fill:rgb(20%,20%,20%);fill-opacity:1;" d="M 7.867188 1.5625 L 9.386719 1.5625 L 9.386719 4.097656 L 7.867188 4.097656 Z M 7.867188 1.5625 "/>
<path style=" stroke:none;fill-rule:nonzero;fill:rgb(20%,20%,20%);fill-opacity:1;" d="M 12.429688 1.5625 L 13.953125 1.5625 L 13.953125 4.097656 L 12.429688 4.097656 Z M 12.429688 1.5625 "/>
<path style=" stroke:none;fill-rule:nonzero;fill:rgb(20%,20%,20%);fill-opacity:1;" d="M 16.996094 1.5625 L 18.519531 1.5625 L 18.519531 4.097656 L 16.996094 4.097656 Z M 16.996094 1.5625 "/>
</g>
</svg>
