<!-- color: #41afd2 -->
<svg xmlns="http://www.w3.org/2000/svg" xmlns:xlink="http://www.w3.org/1999/xlink" width="22px" height="22px" viewBox="0 0 22 22" version="1.1">
<defs>
<clipPath id="clip1">
  <path d="M 3.195312 4.019531 L 13.199219 4.019531 L 13.199219 16.097656 L 3.195312 16.097656 Z M 3.195312 4.019531 "/>
</clipPath>
<clipPath id="clip2">
  <path d="M 17.722656 10.039062 C 17.722656 16.410156 13.460938 21.570312 8.207031 21.570312 C 2.953125 21.570312 -1.3125 16.410156 -1.3125 10.039062 C -1.3125 3.664062 2.953125 -1.496094 8.207031 -1.496094 C 13.460938 -1.496094 17.722656 3.664062 17.722656 10.039062 Z M 17.722656 10.039062 "/>
</clipPath>
<clipPath id="clip3">
  <path d="M 3.195312 4.019531 L 8.246094 4.019531 L 8.246094 16.097656 L 3.195312 16.097656 Z M 3.195312 4.019531 "/>
</clipPath>
<clipPath id="clip4">
  <path d="M 17.722656 10.039062 C 17.722656 16.410156 13.460938 21.570312 8.207031 21.570312 C 2.953125 21.570312 -1.3125 16.410156 -1.3125 10.039062 C -1.3125 3.664062 2.953125 -1.496094 8.207031 -1.496094 C 13.460938 -1.496094 17.722656 3.664062 17.722656 10.039062 Z M 17.722656 10.039062 "/>
</clipPath>
<clipPath id="clip5">
  <path d="M 3.195312 4.019531 L 4.503906 4.019531 L 4.503906 16.097656 L 3.195312 16.097656 Z M 3.195312 4.019531 "/>
</clipPath>
<clipPath id="clip6">
  <path d="M 17.722656 10.039062 C 17.722656 16.410156 13.460938 21.570312 8.207031 21.570312 C 2.953125 21.570312 -1.3125 16.410156 -1.3125 10.039062 C -1.3125 3.664062 2.953125 -1.496094 8.207031 -1.496094 C 13.460938 -1.496094 17.722656 3.664062 17.722656 10.039062 Z M 17.722656 10.039062 "/>
</clipPath>
<clipPath id="clip7">
  <path d="M 11.894531 4.019531 L 13.199219 4.019531 L 13.199219 16.097656 L 11.894531 16.097656 Z M 11.894531 4.019531 "/>
</clipPath>
<clipPath id="clip8">
  <path d="M 17.722656 10.039062 C 17.722656 16.410156 13.460938 21.570312 8.207031 21.570312 C 2.953125 21.570312 -1.3125 16.410156 -1.3125 10.039062 C -1.3125 3.664062 2.953125 -1.496094 8.207031 -1.496094 C 13.460938 -1.496094 17.722656 3.664062 17.722656 10.039062 Z M 17.722656 10.039062 "/>
</clipPath>
<clipPath id="clip9">
  <path d="M 4.457031 5.011719 L 7.386719 5.011719 L 7.386719 6.046875 L 4.457031 6.046875 Z M 4.457031 5.011719 "/>
</clipPath>
<clipPath id="clip10">
  <path d="M 17.722656 10.039062 C 17.722656 16.410156 13.460938 21.570312 8.207031 21.570312 C 2.953125 21.570312 -1.3125 16.410156 -1.3125 10.039062 C -1.3125 3.664062 2.953125 -1.496094 8.207031 -1.496094 C 13.460938 -1.496094 17.722656 3.664062 17.722656 10.039062 Z M 17.722656 10.039062 "/>
</clipPath>
<clipPath id="clip11">
  <path d="M 9.011719 14.023438 L 11.9375 14.023438 L 11.9375 15.058594 L 9.011719 15.058594 Z M 9.011719 14.023438 "/>
</clipPath>
<clipPath id="clip12">
  <path d="M 17.722656 10.039062 C 17.722656 16.410156 13.460938 21.570312 8.207031 21.570312 C 2.953125 21.570312 -1.3125 16.410156 -1.3125 10.039062 C -1.3125 3.664062 2.953125 -1.496094 8.207031 -1.496094 C 13.460938 -1.496094 17.722656 3.664062 17.722656 10.039062 Z M 17.722656 10.039062 "/>
</clipPath>
<clipPath id="clip13">
  <path d="M 4.457031 7.488281 L 11.9375 7.488281 L 11.9375 8.074219 L 4.457031 8.074219 Z M 4.457031 7.488281 "/>
</clipPath>
<clipPath id="clip14">
  <path d="M 17.722656 10.039062 C 17.722656 16.410156 13.460938 21.570312 8.207031 21.570312 C 2.953125 21.570312 -1.3125 16.410156 -1.3125 10.039062 C -1.3125 3.664062 2.953125 -1.496094 8.207031 -1.496094 C 13.460938 -1.496094 17.722656 3.664062 17.722656 10.039062 Z M 17.722656 10.039062 "/>
</clipPath>
<clipPath id="clip15">
  <path d="M 4.457031 9.023438 L 11.9375 9.023438 L 11.9375 9.5625 L 4.457031 9.5625 Z M 4.457031 9.023438 "/>
</clipPath>
<clipPath id="clip16">
  <path d="M 17.722656 10.039062 C 17.722656 16.410156 13.460938 21.570312 8.207031 21.570312 C 2.953125 21.570312 -1.3125 16.410156 -1.3125 10.039062 C -1.3125 3.664062 2.953125 -1.496094 8.207031 -1.496094 C 13.460938 -1.496094 17.722656 3.664062 17.722656 10.039062 Z M 17.722656 10.039062 "/>
</clipPath>
<clipPath id="clip17">
  <path d="M 4.457031 10.507812 L 11.9375 10.507812 L 11.9375 11.050781 L 4.457031 11.050781 Z M 4.457031 10.507812 "/>
</clipPath>
<clipPath id="clip18">
  <path d="M 17.722656 10.039062 C 17.722656 16.410156 13.460938 21.570312 8.207031 21.570312 C 2.953125 21.570312 -1.3125 16.410156 -1.3125 10.039062 C -1.3125 3.664062 2.953125 -1.496094 8.207031 -1.496094 C 13.460938 -1.496094 17.722656 3.664062 17.722656 10.039062 Z M 17.722656 10.039062 "/>
</clipPath>
<clipPath id="clip19">
  <path d="M 4.457031 12.042969 L 11.9375 12.042969 L 11.9375 12.582031 L 4.457031 12.582031 Z M 4.457031 12.042969 "/>
</clipPath>
<clipPath id="clip20">
  <path d="M 17.722656 10.039062 C 17.722656 16.410156 13.460938 21.570312 8.207031 21.570312 C 2.953125 21.570312 -1.3125 16.410156 -1.3125 10.039062 C -1.3125 3.664062 2.953125 -1.496094 8.207031 -1.496094 C 13.460938 -1.496094 17.722656 3.664062 17.722656 10.039062 Z M 17.722656 10.039062 "/>
</clipPath>
</defs>
<g id="surface1">
<path style="fill-rule:nonzero;fill:rgb(100%,100%,100%);fill-opacity:1;stroke-width:28.025423;stroke-linecap:butt;stroke-linejoin:miter;stroke:rgb(36.078431%,36.078431%,36.078431%);stroke-opacity:1;stroke-miterlimit:4;" d="M 82.545455 26.454545 L 429.454545 26.454545 C 460.454545 26.454545 485.545455 51.545455 485.545455 82.545455 L 485.545455 429.454545 C 485.545455 460.454545 460.454545 485.545455 429.454545 485.545455 L 82.545455 485.545455 C 51.545455 485.545455 26.454545 460.454545 26.454545 429.454545 L 26.454545 82.545455 C 26.454545 51.545455 51.545455 26.454545 82.545455 26.454545 Z M 82.545455 26.454545 " transform="matrix(0.0429688,0,0,0.0429688,0,0)"/>
<path style=" stroke:none;fill-rule:nonzero;fill:rgb(78.039216%,43.921569%,20.784314%);fill-opacity:1;" d="M 3.613281 2.601562 L 12.796875 2.601562 C 13.496094 2.601562 14.0625 3.167969 14.0625 3.867188 L 14.0625 15.460938 C 14.0625 16.160156 13.496094 16.726562 12.796875 16.726562 L 3.613281 16.726562 C 2.914062 16.726562 2.347656 16.160156 2.347656 15.460938 L 2.347656 3.867188 C 2.347656 3.167969 2.914062 2.601562 3.613281 2.601562 Z M 3.613281 2.601562 "/>
<g clip-path="url(#clip1)" clip-rule="nonzero">
<g clip-path="url(#clip2)" clip-rule="nonzero">
<path style=" stroke:none;fill-rule:nonzero;fill:rgb(100%,100%,100%);fill-opacity:1;" d="M 4.066406 4.019531 L 12.34375 4.019531 C 12.800781 4.019531 13.171875 4.46875 13.171875 5.023438 L 13.171875 15.054688 C 13.171875 15.605469 12.800781 16.054688 12.34375 16.054688 L 4.066406 16.054688 C 3.609375 16.054688 3.242188 15.605469 3.242188 15.054688 L 3.242188 5.023438 C 3.242188 4.46875 3.609375 4.019531 4.066406 4.019531 M 4.066406 4.019531 "/>
</g>
</g>
<g clip-path="url(#clip3)" clip-rule="nonzero">
<g clip-path="url(#clip4)" clip-rule="nonzero">
<path style=" stroke:none;fill-rule:nonzero;fill:rgb(98.039216%,92.156863%,81.176471%);fill-opacity:1;" d="M 4.066406 4.019531 C 3.609375 4.019531 3.242188 4.46875 3.242188 5.023438 L 3.242188 15.054688 C 3.242188 15.609375 3.609375 16.054688 4.066406 16.054688 L 8.207031 16.054688 L 8.207031 4.019531 M 4.066406 4.019531 "/>
</g>
</g>
<g clip-path="url(#clip5)" clip-rule="nonzero">
<g clip-path="url(#clip6)" clip-rule="nonzero">
<path style=" stroke:none;fill-rule:nonzero;fill:rgb(100%,100%,100%);fill-opacity:1;" d="M 4.066406 4.019531 C 3.609375 4.019531 3.242188 4.46875 3.242188 5.023438 L 3.242188 15.054688 C 3.242188 15.609375 3.609375 16.054688 4.066406 16.054688 L 4.480469 16.054688 C 4.023438 16.054688 3.652344 15.609375 3.652344 15.054688 L 3.652344 5.023438 C 3.652344 4.46875 4.023438 4.019531 4.480469 4.019531 M 4.066406 4.019531 "/>
</g>
</g>
<g clip-path="url(#clip7)" clip-rule="nonzero">
<g clip-path="url(#clip8)" clip-rule="nonzero">
<path style=" stroke:none;fill-rule:nonzero;fill:rgb(98.039216%,92.156863%,81.176471%);fill-opacity:1;" d="M 11.929688 4.019531 C 12.390625 4.019531 12.757812 4.46875 12.757812 5.023438 L 12.757812 15.054688 C 12.757812 15.609375 12.390625 16.054688 11.929688 16.054688 L 12.34375 16.054688 C 12.804688 16.054688 13.171875 15.609375 13.171875 15.054688 L 13.171875 5.023438 C 13.171875 4.46875 12.804688 4.019531 12.34375 4.019531 M 11.929688 4.019531 "/>
</g>
</g>
<g clip-path="url(#clip9)" clip-rule="nonzero">
<g clip-path="url(#clip10)" clip-rule="nonzero">
<path style=" stroke:none;fill-rule:nonzero;fill:rgb(16.862745%,16.862745%,16.862745%);fill-opacity:0.4;" d="M 4.480469 5.023438 L 7.378906 5.023438 L 7.378906 6.027344 L 4.480469 6.027344 M 4.480469 5.023438 "/>
</g>
</g>
<g clip-path="url(#clip11)" clip-rule="nonzero">
<g clip-path="url(#clip12)" clip-rule="nonzero">
<path style=" stroke:none;fill-rule:nonzero;fill:rgb(16.862745%,16.862745%,16.862745%);fill-opacity:0.4;" d="M 9.035156 14.050781 L 11.929688 14.050781 L 11.929688 15.054688 L 9.035156 15.054688 M 9.035156 14.050781 "/>
</g>
</g>
<g clip-path="url(#clip13)" clip-rule="nonzero">
<g clip-path="url(#clip14)" clip-rule="nonzero">
<path style=" stroke:none;fill-rule:nonzero;fill:rgb(16.862745%,16.862745%,16.862745%);fill-opacity:0.4;" d="M 4.480469 7.53125 L 11.929688 7.53125 L 11.929688 8.03125 L 4.480469 8.03125 M 4.480469 7.53125 "/>
</g>
</g>
<g clip-path="url(#clip15)" clip-rule="nonzero">
<g clip-path="url(#clip16)" clip-rule="nonzero">
<path style=" stroke:none;fill-rule:nonzero;fill:rgb(16.862745%,16.862745%,16.862745%);fill-opacity:0.4;" d="M 4.480469 9.035156 L 11.929688 9.035156 L 11.929688 9.535156 L 4.480469 9.535156 M 4.480469 9.035156 "/>
</g>
</g>
<g clip-path="url(#clip17)" clip-rule="nonzero">
<g clip-path="url(#clip18)" clip-rule="nonzero">
<path style=" stroke:none;fill-rule:nonzero;fill:rgb(16.862745%,16.862745%,16.862745%);fill-opacity:0.4;" d="M 4.480469 10.539062 L 11.929688 10.539062 L 11.929688 11.042969 L 4.480469 11.042969 M 4.480469 10.539062 "/>
</g>
</g>
<g clip-path="url(#clip19)" clip-rule="nonzero">
<g clip-path="url(#clip20)" clip-rule="nonzero">
<path style=" stroke:none;fill-rule:nonzero;fill:rgb(16.862745%,16.862745%,16.862745%);fill-opacity:0.4;" d="M 4.480469 12.042969 L 11.929688 12.042969 L 11.929688 12.546875 L 4.480469 12.546875 M 4.480469 12.042969 "/>
</g>
</g>
<path style=" stroke:none;fill-rule:nonzero;fill:rgb(27.843137%,20.784314%,20.784314%);fill-opacity:1;" d="M 6.09375 3.085938 L 10.042969 3.085938 L 10.042969 3.722656 L 6.09375 3.722656 Z M 6.09375 3.085938 "/>
<path style=" stroke:none;fill-rule:nonzero;fill:rgb(65.882353%,61.960784%,54.901961%);fill-opacity:1;" d="M 7.074219 2.035156 L 9.199219 2.035156 L 9.199219 3.402344 L 7.074219 3.402344 Z M 7.074219 2.035156 "/>
<path style=" stroke:none;fill-rule:nonzero;fill:rgb(20%,20%,20%);fill-opacity:1;" d="M 14.742188 10.429688 C 13.359375 10.429688 12.226562 11.613281 12.09375 13.140625 L 17.386719 13.140625 C 17.253906 11.613281 16.125 10.429688 14.742188 10.429688 Z M 10.753906 13.5625 C 10.457031 13.5625 10.222656 13.832031 10.222656 14.164062 C 10.222656 14.5 10.457031 14.769531 10.753906 14.769531 L 18.730469 14.769531 C 19.023438 14.769531 19.261719 14.5 19.261719 14.164062 C 19.261719 13.832031 19.023438 13.5625 18.730469 13.5625 Z M 11.019531 15.851562 C 10.722656 15.851562 10.488281 16.121094 10.488281 16.457031 C 10.488281 16.789062 10.722656 17.058594 11.019531 17.058594 L 13.382812 17.058594 L 11.417969 18.34375 C 11.164062 18.511719 11.074219 18.878906 11.222656 19.167969 C 11.371094 19.457031 11.695312 19.554688 11.949219 19.386719 L 14.34375 17.820312 L 14.34375 15.851562 Z M 15.140625 15.851562 L 15.140625 17.820312 L 17.53125 19.386719 C 17.789062 19.554688 18.113281 19.457031 18.257812 19.167969 C 18.40625 18.878906 18.320312 18.511719 18.0625 18.34375 L 16.097656 17.058594 L 18.464844 17.058594 C 18.757812 17.058594 18.996094 16.789062 18.996094 16.457031 C 18.996094 16.121094 18.757812 15.851562 18.464844 15.851562 Z M 15.140625 15.851562 "/>
<path style=" stroke:none;fill-rule:nonzero;fill:rgb(83.137255%,9.803922%,9.803922%);fill-opacity:1;" d="M 11.550781 13.5625 L 11.550781 16.273438 C 11.550781 16.285156 11.550781 16.292969 11.550781 16.304688 C 11.550781 18.058594 12.699219 19.46875 14.128906 19.46875 L 14.34375 19.46875 L 14.34375 15.25 L 15.140625 15.25 L 15.140625 19.46875 L 15.355469 19.46875 C 16.78125 19.46875 17.929688 18.058594 17.929688 16.304688 C 17.929688 16.292969 17.929688 16.285156 17.929688 16.273438 L 17.929688 13.5625 Z M 11.550781 13.5625 "/>
<path style=" stroke:none;fill-rule:nonzero;fill:rgb(97.254902%,97.254902%,97.254902%);fill-opacity:1;" d="M 16.75 14.839844 C 16.75 15.050781 16.578125 15.222656 16.363281 15.222656 C 16.152344 15.222656 15.980469 15.050781 15.980469 14.839844 C 15.980469 14.625 16.152344 14.453125 16.363281 14.453125 C 16.578125 14.453125 16.75 14.625 16.75 14.839844 Z M 16.75 14.839844 "/>
<path style=" stroke:none;fill-rule:nonzero;fill:rgb(97.254902%,97.254902%,97.254902%);fill-opacity:1;" d="M 13.613281 17.835938 C 13.613281 18.050781 13.441406 18.222656 13.226562 18.222656 C 13.015625 18.222656 12.84375 18.050781 12.84375 17.835938 C 12.84375 17.625 13.015625 17.453125 13.226562 17.453125 C 13.441406 17.453125 13.613281 17.625 13.613281 17.835938 Z M 13.613281 17.835938 "/>
<path style=" stroke:none;fill-rule:nonzero;fill:rgb(97.254902%,97.254902%,97.254902%);fill-opacity:1;" d="M 15.042969 14.234375 C 15.042969 14.445312 14.871094 14.617188 14.660156 14.617188 C 14.445312 14.617188 14.273438 14.445312 14.273438 14.234375 C 14.273438 14.019531 14.445312 13.847656 14.660156 13.847656 C 14.871094 13.847656 15.042969 14.019531 15.042969 14.234375 Z M 15.042969 14.234375 "/>
<path style=" stroke:none;fill-rule:nonzero;fill:rgb(97.254902%,97.254902%,97.254902%);fill-opacity:1;" d="M 16.859375 17.699219 C 16.859375 17.910156 16.6875 18.085938 16.472656 18.085938 C 16.261719 18.085938 16.089844 17.910156 16.089844 17.699219 C 16.089844 17.488281 16.261719 17.3125 16.472656 17.3125 C 16.6875 17.3125 16.859375 17.488281 16.859375 17.699219 Z M 16.859375 17.699219 "/>
<path style=" stroke:none;fill-rule:nonzero;fill:rgb(97.254902%,97.254902%,97.254902%);fill-opacity:1;" d="M 17.628906 15.882812 C 17.628906 16.097656 17.457031 16.269531 17.242188 16.269531 C 17.03125 16.269531 16.859375 16.097656 16.859375 15.882812 C 16.859375 15.671875 17.03125 15.5 17.242188 15.5 C 17.457031 15.5 17.628906 15.671875 17.628906 15.882812 Z M 17.628906 15.882812 "/>
<path style=" stroke:none;fill-rule:nonzero;fill:rgb(97.254902%,97.254902%,97.254902%);fill-opacity:1;" d="M 16.199219 16.542969 C 16.199219 16.757812 16.027344 16.929688 15.8125 16.929688 C 15.601562 16.929688 15.429688 16.757812 15.429688 16.542969 C 15.429688 16.332031 15.601562 16.160156 15.8125 16.160156 C 16.027344 16.160156 16.199219 16.332031 16.199219 16.542969 Z M 16.199219 16.542969 "/>
<path style=" stroke:none;fill-rule:nonzero;fill:rgb(97.254902%,97.254902%,97.254902%);fill-opacity:1;" d="M 13.171875 14.589844 C 13.171875 14.804688 13 14.976562 12.789062 14.976562 C 12.574219 14.976562 12.402344 14.804688 12.402344 14.589844 C 12.402344 14.378906 12.574219 14.207031 12.789062 14.207031 C 13 14.207031 13.171875 14.378906 13.171875 14.589844 Z M 13.171875 14.589844 "/>
<path style=" stroke:none;fill-rule:nonzero;fill:rgb(97.254902%,97.254902%,97.254902%);fill-opacity:1;" d="M 13.886719 16.078125 C 13.886719 16.289062 13.714844 16.460938 13.503906 16.460938 C 13.289062 16.460938 13.117188 16.289062 13.117188 16.078125 C 13.117188 15.863281 13.289062 15.691406 13.503906 15.691406 C 13.714844 15.691406 13.886719 15.863281 13.886719 16.078125 Z M 13.886719 16.078125 "/>
<path style=" stroke:none;fill-rule:nonzero;fill:rgb(97.254902%,97.254902%,97.254902%);fill-opacity:1;" d="M 16.75 14.839844 C 16.75 15.050781 16.578125 15.222656 16.363281 15.222656 C 16.152344 15.222656 15.980469 15.050781 15.980469 14.839844 C 15.980469 14.625 16.152344 14.453125 16.363281 14.453125 C 16.578125 14.453125 16.75 14.625 16.75 14.839844 Z M 16.75 14.839844 "/>
<path style=" stroke:none;fill-rule:nonzero;fill:rgb(97.254902%,97.254902%,97.254902%);fill-opacity:1;" d="M 12.734375 16.652344 C 12.734375 16.867188 12.5625 17.039062 12.347656 17.039062 C 12.136719 17.039062 11.964844 16.867188 11.964844 16.652344 C 11.964844 16.441406 12.136719 16.269531 12.347656 16.269531 C 12.5625 16.269531 12.734375 16.441406 12.734375 16.652344 Z M 12.734375 16.652344 "/>
</g>
</svg>
