<!-- color: #70bdea -->
<svg xmlns="http://www.w3.org/2000/svg" xmlns:xlink="http://www.w3.org/1999/xlink" width="22px" height="22px" viewBox="0 0 22 22" version="1.1">
<g id="surface1">
<path style="fill-rule:nonzero;fill:rgb(29.019608%,68.235294%,90.196078%);fill-opacity:1;stroke-width:28.480503;stroke-linecap:butt;stroke-linejoin:miter;stroke:rgb(18.039216%,45.098039%,60%);stroke-opacity:1;stroke-miterlimit:4;" d="M 79.727273 22.727273 L 432.272727 22.727273 C 463.727273 22.727273 489.272727 48.272727 489.272727 79.727273 L 489.272727 432.272727 C 489.272727 463.727273 463.727273 489.272727 432.272727 489.272727 L 79.727273 489.272727 C 48.272727 489.272727 22.727273 463.727273 22.727273 432.272727 L 22.727273 79.727273 C 22.727273 48.272727 48.272727 22.727273 79.727273 22.727273 Z M 79.727273 22.727273 " transform="matrix(0.0429688,0,0,0.0429688,0,0)"/>
<path style=" stroke:none;fill-rule:nonzero;fill:rgb(40%,40%,40%);fill-opacity:1;" d="M 17.390625 11.570312 C 17.390625 8.289062 14.667969 5.628906 11.308594 5.628906 C 7.945312 5.628906 5.222656 8.289062 5.222656 11.570312 C 5.222656 14.851562 7.945312 17.511719 11.308594 17.511719 C 14.667969 17.511719 17.390625 14.851562 17.390625 11.570312 Z M 17.390625 11.570312 "/>
<path style=" stroke:none;fill-rule:nonzero;fill:rgb(40%,40%,40%);fill-opacity:1;" d="M 10.003906 20.804688 C 9.839844 20.734375 9.664062 20.546875 9.585938 20.359375 C 9.546875 20.265625 9.507812 19.894531 9.472656 19.304688 C 9.445312 18.808594 9.40625 18.359375 9.386719 18.3125 C 9.363281 18.246094 9.25 18.1875 8.964844 18.085938 C 8.75 18.011719 8.425781 17.878906 8.246094 17.785156 C 8.066406 17.695312 7.878906 17.621094 7.832031 17.621094 C 7.777344 17.621094 7.480469 17.859375 7.0625 18.246094 C 6.6875 18.589844 6.316406 18.90625 6.242188 18.941406 C 6.089844 19.019531 5.746094 19.035156 5.570312 18.96875 C 5.429688 18.914062 3.9375 17.445312 3.839844 17.265625 C 3.746094 17.085938 3.757812 16.75 3.863281 16.546875 C 3.910156 16.453125 4.226562 16.078125 4.5625 15.714844 C 4.925781 15.320312 5.175781 15.015625 5.175781 14.964844 C 5.175781 14.917969 5.101562 14.734375 5.011719 14.550781 C 4.921875 14.371094 4.785156 14.050781 4.710938 13.835938 C 4.636719 13.621094 4.546875 13.429688 4.507812 13.410156 C 4.46875 13.390625 4.03125 13.355469 3.535156 13.328125 C 2.953125 13.292969 2.566406 13.253906 2.453125 13.214844 C 2.238281 13.136719 1.988281 12.871094 1.953125 12.683594 C 1.941406 12.605469 1.933594 12.039062 1.941406 11.421875 L 1.953125 10.296875 L 2.082031 10.136719 C 2.3125 9.851562 2.417969 9.820312 3.507812 9.753906 C 4.125 9.714844 4.5 9.675781 4.53125 9.644531 C 4.558594 9.617188 4.652344 9.40625 4.738281 9.171875 C 4.824219 8.941406 4.957031 8.625 5.035156 8.46875 C 5.113281 8.3125 5.175781 8.152344 5.175781 8.109375 C 5.175781 8.066406 4.917969 7.75 4.605469 7.402344 C 4.289062 7.058594 3.988281 6.71875 3.933594 6.648438 C 3.785156 6.449219 3.734375 6.203125 3.792969 5.960938 C 3.835938 5.78125 3.917969 5.683594 4.605469 4.988281 C 5.023438 4.5625 5.4375 4.179688 5.523438 4.132812 C 5.722656 4.03125 6.039062 4.03125 6.238281 4.132812 C 6.320312 4.175781 6.6875 4.480469 7.050781 4.816406 C 7.414062 5.148438 7.738281 5.4375 7.769531 5.453125 C 7.800781 5.472656 7.996094 5.402344 8.234375 5.289062 C 8.460938 5.183594 8.800781 5.042969 8.988281 4.980469 C 9.242188 4.894531 9.339844 4.839844 9.375 4.765625 C 9.402344 4.710938 9.445312 4.257812 9.472656 3.757812 C 9.527344 2.800781 9.5625 2.648438 9.757812 2.441406 C 9.980469 2.214844 10.105469 2.195312 11.332031 2.207031 L 12.453125 2.222656 L 12.628906 2.335938 C 12.929688 2.535156 12.964844 2.660156 13.035156 3.726562 C 13.070312 4.242188 13.109375 4.707031 13.121094 4.753906 C 13.136719 4.824219 13.226562 4.875 13.527344 4.980469 C 13.742188 5.054688 14.082031 5.199219 14.285156 5.300781 C 14.488281 5.402344 14.671875 5.488281 14.691406 5.488281 C 14.714844 5.488281 15.039062 5.199219 15.421875 4.851562 C 15.800781 4.503906 16.183594 4.179688 16.269531 4.136719 C 16.472656 4.03125 16.773438 4.03125 16.996094 4.136719 C 17.101562 4.1875 17.460938 4.515625 17.910156 4.96875 C 18.683594 5.75 18.746094 5.839844 18.746094 6.195312 C 18.746094 6.445312 18.636719 6.609375 17.96875 7.335938 C 17.609375 7.730469 17.3125 8.074219 17.3125 8.09375 C 17.3125 8.113281 17.40625 8.328125 17.523438 8.566406 C 17.636719 8.808594 17.777344 9.144531 17.828125 9.316406 C 17.894531 9.527344 17.953125 9.636719 18.007812 9.664062 C 18.054688 9.683594 18.519531 9.726562 19.042969 9.757812 C 20.082031 9.824219 20.25 9.863281 20.421875 10.109375 C 20.589844 10.339844 20.605469 10.515625 20.59375 11.644531 L 20.578125 12.726562 L 20.453125 12.90625 C 20.226562 13.230469 20.167969 13.246094 19.015625 13.320312 C 18.453125 13.359375 17.984375 13.398438 17.972656 13.410156 C 17.960938 13.421875 17.890625 13.601562 17.816406 13.808594 C 17.742188 14.015625 17.597656 14.355469 17.496094 14.558594 C 17.394531 14.765625 17.316406 14.957031 17.320312 14.988281 C 17.328125 15.019531 17.609375 15.34375 17.945312 15.710938 C 18.28125 16.078125 18.597656 16.460938 18.652344 16.5625 C 18.761719 16.78125 18.773438 17.011719 18.679688 17.230469 C 18.601562 17.425781 17.230469 18.816406 17.007812 18.929688 C 16.824219 19.027344 16.484375 19.039062 16.289062 18.953125 C 16.214844 18.921875 15.84375 18.609375 15.460938 18.257812 C 15.078125 17.90625 14.734375 17.621094 14.695312 17.621094 C 14.660156 17.621094 14.445312 17.707031 14.21875 17.8125 C 13.992188 17.917969 13.65625 18.054688 13.472656 18.117188 C 13.21875 18.199219 13.136719 18.246094 13.121094 18.3125 C 13.109375 18.359375 13.070312 18.824219 13.035156 19.339844 C 12.960938 20.472656 12.917969 20.597656 12.523438 20.796875 C 12.40625 20.855469 12.21875 20.867188 11.257812 20.863281 C 10.410156 20.863281 10.097656 20.847656 10.003906 20.804688 Z M 11.667969 15.765625 C 12.6875 15.660156 13.535156 15.253906 14.261719 14.527344 C 14.8125 13.976562 15.171875 13.355469 15.382812 12.574219 C 15.519531 12.082031 15.519531 11 15.382812 10.503906 C 14.972656 8.996094 13.894531 7.890625 12.402344 7.441406 C 12.058594 7.335938 11.960938 7.324219 11.289062 7.324219 C 10.640625 7.320312 10.507812 7.332031 10.191406 7.417969 C 8.625 7.84375 7.425781 9.105469 7.097656 10.667969 C 6.800781 12.074219 7.234375 13.507812 8.257812 14.539062 C 8.796875 15.078125 9.492188 15.472656 10.246094 15.667969 C 10.460938 15.722656 10.769531 15.765625 11.203125 15.804688 C 11.238281 15.804688 11.445312 15.789062 11.667969 15.765625 Z M 10.621094 14 C 9.546875 13.707031 8.796875 12.792969 8.730469 11.699219 C 8.683594 10.929688 8.929688 10.28125 9.472656 9.742188 C 10.464844 8.753906 12.046875 8.746094 13.027344 9.71875 C 13.832031 10.523438 14.023438 11.667969 13.523438 12.671875 C 13.097656 13.523438 12.3125 14.027344 11.351562 14.066406 C 11.023438 14.078125 10.859375 14.0625 10.621094 14 Z M 11.824219 12.9375 C 12.121094 12.824219 12.476562 12.496094 12.625 12.195312 C 12.730469 11.980469 12.742188 11.910156 12.742188 11.53125 C 12.742188 11.132812 12.734375 11.097656 12.597656 10.84375 C 12.320312 10.335938 11.910156 10.078125 11.328125 10.046875 C 10.863281 10.023438 10.585938 10.121094 10.25 10.429688 C 9.820312 10.820312 9.652344 11.359375 9.789062 11.894531 C 9.90625 12.359375 10.160156 12.671875 10.582031 12.886719 C 10.976562 13.085938 11.382812 13.101562 11.824219 12.9375 Z M 11.824219 12.9375 "/>
<path style=" stroke:none;fill-rule:nonzero;fill:rgb(94.117647%,94.117647%,94.117647%);fill-opacity:1;" d="M 17.117188 11.015625 C 17.117188 7.734375 14.390625 5.074219 11.03125 5.074219 C 7.667969 5.074219 4.945312 7.734375 4.945312 11.015625 C 4.945312 14.296875 7.667969 16.957031 11.03125 16.957031 C 14.390625 16.957031 17.117188 14.296875 17.117188 11.015625 Z M 17.117188 11.015625 "/>
<path style=" stroke:none;fill-rule:nonzero;fill:rgb(94.117647%,94.117647%,94.117647%);fill-opacity:1;" d="M 9.726562 20.253906 C 9.5625 20.179688 9.386719 19.992188 9.308594 19.804688 C 9.269531 19.710938 9.230469 19.339844 9.195312 18.753906 C 9.167969 18.253906 9.128906 17.808594 9.113281 17.757812 C 9.089844 17.695312 8.972656 17.632812 8.6875 17.535156 C 8.472656 17.460938 8.152344 17.324219 7.96875 17.234375 C 7.789062 17.140625 7.601562 17.066406 7.554688 17.066406 C 7.5 17.066406 7.207031 17.308594 6.785156 17.695312 C 6.410156 18.039062 6.039062 18.351562 5.964844 18.390625 C 5.8125 18.46875 5.46875 18.480469 5.292969 18.414062 C 5.152344 18.359375 3.660156 16.890625 3.566406 16.710938 C 3.46875 16.53125 3.480469 16.195312 3.585938 15.992188 C 3.632812 15.898438 3.949219 15.527344 4.289062 15.160156 C 4.652344 14.765625 4.902344 14.460938 4.902344 14.410156 C 4.902344 14.363281 4.828125 14.179688 4.734375 14 C 4.644531 13.816406 4.507812 13.496094 4.433594 13.28125 C 4.359375 13.066406 4.269531 12.878906 4.230469 12.859375 C 4.195312 12.839844 3.753906 12.800781 3.257812 12.773438 C 2.679688 12.742188 2.289062 12.699219 2.175781 12.660156 C 1.960938 12.582031 1.710938 12.320312 1.675781 12.128906 C 1.664062 12.054688 1.65625 11.484375 1.664062 10.867188 L 1.675781 9.742188 L 1.804688 9.582031 C 2.035156 9.296875 2.140625 9.265625 3.230469 9.199219 C 3.847656 9.164062 4.222656 9.121094 4.253906 9.089844 C 4.28125 9.0625 4.375 8.851562 4.460938 8.621094 C 4.546875 8.386719 4.679688 8.070312 4.757812 7.914062 C 4.835938 7.757812 4.902344 7.597656 4.902344 7.554688 C 4.902344 7.515625 4.644531 7.195312 4.328125 6.851562 C 4.011719 6.503906 3.710938 6.164062 3.65625 6.09375 C 3.507812 5.894531 3.457031 5.648438 3.515625 5.410156 C 3.558594 5.226562 3.640625 5.128906 4.328125 4.433594 C 4.746094 4.007812 5.160156 3.625 5.246094 3.582031 C 5.445312 3.476562 5.761719 3.476562 5.960938 3.578125 C 6.046875 3.621094 6.410156 3.929688 6.773438 4.261719 C 7.140625 4.597656 7.460938 4.882812 7.492188 4.902344 C 7.523438 4.917969 7.71875 4.851562 7.957031 4.738281 C 8.183594 4.628906 8.523438 4.492188 8.710938 4.425781 C 8.964844 4.339844 9.0625 4.285156 9.097656 4.210938 C 9.125 4.15625 9.167969 3.703125 9.195312 3.207031 C 9.25 2.246094 9.285156 2.097656 9.480469 1.890625 C 9.703125 1.660156 9.828125 1.640625 11.058594 1.65625 L 12.175781 1.667969 L 12.351562 1.785156 C 12.652344 1.984375 12.6875 2.105469 12.757812 3.171875 C 12.792969 3.6875 12.832031 4.152344 12.84375 4.199219 C 12.859375 4.269531 12.953125 4.320312 13.25 4.425781 C 13.464844 4.5 13.804688 4.644531 14.007812 4.746094 C 14.214844 4.847656 14.398438 4.933594 14.417969 4.933594 C 14.4375 4.933594 14.765625 4.648438 15.144531 4.296875 C 15.523438 3.949219 15.90625 3.628906 15.992188 3.582031 C 16.195312 3.476562 16.496094 3.476562 16.71875 3.585938 C 16.824219 3.636719 17.183594 3.960938 17.632812 4.417969 C 18.40625 5.195312 18.46875 5.285156 18.46875 5.640625 C 18.46875 5.890625 18.359375 6.054688 17.695312 6.78125 C 17.332031 7.179688 17.035156 7.519531 17.035156 7.539062 C 17.035156 7.5625 17.132812 7.773438 17.246094 8.015625 C 17.363281 8.253906 17.5 8.589844 17.550781 8.761719 C 17.617188 8.972656 17.675781 9.085938 17.730469 9.109375 C 17.777344 9.128906 18.246094 9.171875 18.765625 9.203125 C 19.804688 9.269531 19.972656 9.3125 20.148438 9.554688 C 20.3125 9.789062 20.332031 9.960938 20.316406 11.089844 L 20.300781 12.171875 L 20.175781 12.351562 C 19.949219 12.675781 19.890625 12.691406 18.738281 12.769531 C 18.175781 12.804688 17.707031 12.84375 17.695312 12.855469 C 17.683594 12.867188 17.613281 13.046875 17.539062 13.257812 C 17.464844 13.464844 17.320312 13.800781 17.21875 14.007812 C 17.117188 14.210938 17.039062 14.402344 17.042969 14.433594 C 17.050781 14.464844 17.332031 14.789062 17.667969 15.15625 C 18.003906 15.523438 18.324219 15.90625 18.375 16.011719 C 18.484375 16.226562 18.496094 16.460938 18.402344 16.679688 C 18.324219 16.871094 16.957031 18.261719 16.734375 18.378906 C 16.546875 18.472656 16.207031 18.484375 16.011719 18.398438 C 15.9375 18.367188 15.566406 18.054688 15.183594 17.703125 C 14.800781 17.355469 14.457031 17.066406 14.417969 17.066406 C 14.382812 17.066406 14.167969 17.152344 13.941406 17.257812 C 13.714844 17.363281 13.378906 17.5 13.195312 17.5625 C 12.941406 17.644531 12.859375 17.691406 12.84375 17.757812 C 12.832031 17.808594 12.792969 18.269531 12.757812 18.785156 C 12.683594 19.921875 12.640625 20.042969 12.246094 20.242188 C 12.132812 20.300781 11.941406 20.3125 10.980469 20.308594 C 10.132812 20.308594 9.820312 20.292969 9.726562 20.253906 Z M 11.390625 15.210938 C 12.410156 15.105469 13.261719 14.699219 13.984375 13.972656 C 14.535156 13.421875 14.894531 12.800781 15.109375 12.019531 C 15.242188 11.527344 15.242188 10.445312 15.105469 9.949219 C 14.695312 8.445312 13.617188 7.335938 12.128906 6.886719 C 11.78125 6.78125 11.6875 6.773438 11.011719 6.769531 C 10.363281 6.765625 10.230469 6.777344 9.914062 6.863281 C 8.347656 7.292969 7.148438 8.550781 6.820312 10.117188 C 6.523438 11.519531 6.957031 12.953125 7.980469 13.984375 C 8.519531 14.523438 9.214844 14.921875 9.96875 15.117188 C 10.1875 15.171875 10.492188 15.214844 10.925781 15.25 C 10.960938 15.253906 11.167969 15.234375 11.390625 15.210938 Z M 10.34375 13.445312 C 9.269531 13.15625 8.519531 12.238281 8.453125 11.144531 C 8.40625 10.378906 8.652344 9.730469 9.195312 9.1875 C 10.1875 8.199219 11.769531 8.191406 12.75 9.167969 C 13.554688 9.96875 13.75 11.113281 13.25 12.117188 C 12.820312 12.972656 12.035156 13.476562 11.074219 13.511719 C 10.746094 13.527344 10.585938 13.511719 10.34375 13.445312 Z M 11.546875 12.382812 C 11.84375 12.273438 12.199219 11.945312 12.347656 11.640625 C 12.453125 11.425781 12.464844 11.355469 12.464844 10.980469 C 12.464844 10.578125 12.457031 10.542969 12.320312 10.292969 C 12.042969 9.78125 11.632812 9.523438 11.054688 9.492188 C 10.585938 9.46875 10.308594 9.570312 9.972656 9.875 C 9.546875 10.265625 9.375 10.808594 9.511719 11.34375 C 9.632812 11.804688 9.882812 12.117188 10.304688 12.332031 C 10.699219 12.53125 11.105469 12.550781 11.546875 12.382812 Z M 11.546875 12.382812 "/>
<path style=" stroke:none;fill-rule:nonzero;fill:rgb(100%,100%,100%);fill-opacity:1;" d="M 17.488281 11 C 17.488281 14.496094 14.71875 17.363281 11.226562 17.484375 C 7.734375 17.605469 4.773438 14.941406 4.527344 11.453125 C 4.28125 7.96875 6.84375 4.914062 10.320312 4.546875 C 13.792969 4.179688 16.9375 6.632812 17.425781 10.09375 "/>
<path style=" stroke:none;fill-rule:evenodd;fill:rgb(20.784314%,78.039216%,43.921569%);fill-opacity:1;" d="M 11.007812 6.667969 C 10.984375 6.667969 10.960938 6.667969 10.933594 6.671875 C 10.203125 6.726562 9.792969 7.617188 10.101562 8.597656 C 9.730469 7.96875 9.242188 7.484375 8.628906 7.492188 C 8.578125 7.492188 8.527344 7.496094 8.476562 7.5 C 7.742188 7.597656 7.636719 8.523438 8.410156 8.953125 C 8.574219 9.046875 8.738281 9.160156 8.898438 9.285156 C 8.632812 9.136719 8.359375 9.042969 8.09375 9.042969 C 7.917969 9.042969 7.742188 9.085938 7.574219 9.183594 C 7.042969 9.492188 7.222656 10.214844 7.902344 10.359375 C 7.722656 10.402344 7.558594 10.492188 7.417969 10.640625 C 6.988281 11.09375 7.410156 11.753906 8.144531 11.628906 C 8.210938 11.617188 8.28125 11.605469 8.351562 11.601562 C 8.175781 11.679688 8.035156 11.804688 7.949219 11.984375 C 7.730469 12.429688 8.207031 12.828125 8.730469 12.558594 C 9.140625 12.347656 9.671875 12.246094 10.128906 12.199219 L 10.203125 12.238281 L 10.121094 12.285156 L 10.238281 12.476562 L 10.121094 12.671875 L 10.203125 12.714844 L 10.121094 12.761719 L 10.238281 12.953125 L 10.121094 13.148438 L 10.203125 13.191406 L 10.121094 13.238281 L 10.238281 13.429688 L 10.121094 13.621094 C 10.121094 13.625 10.121094 13.625 10.121094 13.625 L 10.203125 13.667969 L 10.121094 13.710938 C 10.121094 13.714844 10.121094 13.714844 10.121094 13.714844 L 10.238281 13.90625 L 10.121094 14.097656 C 10.121094 14.097656 10.121094 14.101562 10.121094 14.101562 L 10.203125 14.144531 L 10.121094 14.1875 C 10.121094 14.1875 10.121094 14.191406 10.121094 14.191406 L 10.238281 14.382812 L 10.121094 14.574219 L 10.203125 14.621094 L 10.121094 14.664062 C 10.121094 14.664062 10.121094 14.664062 10.121094 14.667969 L 10.238281 14.859375 L 10.121094 15.050781 L 10.203125 15.097656 L 10.121094 15.140625 L 10.238281 15.335938 L 10.21875 15.363281 L 11.757812 15.363281 L 11.742188 15.335938 L 11.859375 15.140625 C 11.859375 15.140625 11.859375 15.140625 11.855469 15.140625 L 11.777344 15.097656 L 11.855469 15.050781 C 11.859375 15.050781 11.859375 15.050781 11.859375 15.050781 L 11.742188 14.859375 L 11.859375 14.667969 C 11.859375 14.664062 11.859375 14.664062 11.855469 14.664062 L 11.777344 14.621094 L 11.855469 14.574219 C 11.859375 14.574219 11.859375 14.574219 11.859375 14.574219 L 11.742188 14.382812 L 11.859375 14.191406 C 11.859375 14.191406 11.859375 14.1875 11.855469 14.1875 L 11.777344 14.144531 L 11.855469 14.101562 C 11.859375 14.101562 11.859375 14.097656 11.859375 14.097656 L 11.742188 13.90625 L 11.859375 13.714844 C 11.859375 13.714844 11.859375 13.714844 11.855469 13.710938 L 11.777344 13.667969 L 11.855469 13.625 C 11.859375 13.625 11.859375 13.625 11.859375 13.621094 L 11.742188 13.429688 L 11.859375 13.238281 C 11.859375 13.238281 11.859375 13.238281 11.855469 13.238281 L 11.777344 13.191406 L 11.855469 13.148438 C 11.859375 13.148438 11.859375 13.148438 11.859375 13.148438 L 11.742188 12.953125 L 11.859375 12.761719 C 11.859375 12.761719 11.859375 12.761719 11.855469 12.761719 L 11.777344 12.714844 L 11.855469 12.671875 C 11.859375 12.671875 11.859375 12.671875 11.859375 12.671875 L 11.742188 12.476562 L 11.859375 12.285156 C 11.859375 12.285156 11.859375 12.285156 11.855469 12.285156 L 11.777344 12.238281 L 11.855469 12.195312 C 12.316406 12.246094 12.855469 12.34375 13.269531 12.558594 C 13.792969 12.828125 14.269531 12.429688 14.050781 11.984375 C 13.964844 11.804688 13.824219 11.679688 13.648438 11.601562 C 13.71875 11.605469 13.789062 11.617188 13.855469 11.628906 C 14.589844 11.753906 15.011719 11.09375 14.582031 10.640625 C 14.445312 10.492188 14.277344 10.402344 14.097656 10.359375 C 14.777344 10.214844 14.957031 9.492188 14.425781 9.183594 C 14.011719 8.941406 13.550781 9.03125 13.101562 9.285156 C 13.261719 9.160156 13.425781 9.046875 13.589844 8.953125 C 14.363281 8.523438 14.257812 7.597656 13.523438 7.5 C 12.792969 7.402344 12.234375 7.984375 11.824219 8.730469 C 12.171875 7.542969 11.691406 6.675781 11.007812 6.667969 Z M 11.007812 6.667969 "/>
<path style=" stroke:none;fill-rule:evenodd;fill:rgb(22.745098%,77.254902%,90.196078%);fill-opacity:1;" d="M 8.667969 5.363281 C 6.398438 6.304688 4.914062 8.523438 4.914062 10.984375 C 4.917969 14.117188 7.296875 16.734375 10.414062 17.035156 L 10.414062 15.863281 C 7.945312 15.566406 6.082031 13.472656 6.082031 10.984375 C 6.082031 9.175781 7.078125 7.515625 8.667969 6.65625 Z M 13.332031 5.367188 L 13.332031 6.652344 C 14.925781 7.511719 15.917969 9.175781 15.917969 10.984375 C 15.914062 13.472656 14.054688 15.566406 11.585938 15.859375 L 11.585938 17.039062 C 14.703125 16.738281 17.085938 14.117188 17.085938 10.984375 C 17.082031 8.523438 15.601562 6.308594 13.332031 5.367188 Z M 13.332031 5.367188 "/>
</g>
</svg>
