
<svg xmlns="http://www.w3.org/2000/svg" xmlns:xlink="http://www.w3.org/1999/xlink" width="22px" height="22px" viewBox="0 0 22 22" version="1.1">
<g id="surface1">
<path style="fill-rule:nonzero;fill:rgb(100%,100%,100%);fill-opacity:1;stroke-width:27.910587;stroke-linecap:butt;stroke-linejoin:miter;stroke:rgb(9.803922%,63.137255%,52.941176%);stroke-opacity:1;stroke-miterlimit:4;" d="M 85.351308 29.533126 L 430.987671 29.533126 C 461.805853 29.533126 486.805853 54.533126 486.805853 85.351308 L 486.805853 430.987671 C 486.805853 461.805853 461.805853 486.805853 430.987671 486.805853 L 85.351308 486.805853 C 54.533126 486.805853 29.533126 461.805853 29.533126 430.987671 L 29.533126 85.351308 C 29.533126 54.533126 54.533126 29.533126 85.351308 29.533126 Z M 85.351308 29.533126 " transform="matrix(0.0429688,0,0,0.0429688,-0.0932203,-0.0932203)"/>
<path style=" stroke:none;fill-rule:nonzero;fill:rgb(84.313725%,84.313725%,84.313725%);fill-opacity:1;" d="M 5.609375 14.304688 L 6.644531 14.304688 L 6.644531 16.113281 L 5.609375 16.113281 Z M 5.609375 14.304688 "/>
<path style=" stroke:none;fill-rule:nonzero;fill:rgb(84.313725%,84.313725%,84.313725%);fill-opacity:1;" d="M 6.492188 14.296875 L 7.527344 14.296875 L 7.527344 16.105469 L 6.492188 16.105469 Z M 6.492188 14.296875 "/>
<path style=" stroke:none;fill-rule:nonzero;fill:rgb(84.313725%,84.313725%,84.313725%);fill-opacity:1;" d="M 7.199219 14.296875 L 8.230469 14.296875 L 8.230469 16.105469 L 7.199219 16.105469 Z M 7.199219 14.296875 "/>
<path style=" stroke:none;fill-rule:nonzero;fill:rgb(97.254902%,87.058824%,40.784314%);fill-opacity:1;" d="M 5.746094 14.296875 L 6.78125 14.296875 L 6.78125 16.105469 L 5.746094 16.105469 Z M 5.746094 14.296875 "/>
<path style=" stroke:none;fill-rule:nonzero;fill:rgb(97.254902%,87.058824%,40.784314%);fill-opacity:1;" d="M 7.046875 14.296875 L 8.082031 14.296875 L 8.082031 16.105469 L 7.046875 16.105469 Z M 7.046875 14.296875 "/>
<path style=" stroke:none;fill-rule:nonzero;fill:rgb(43.921569%,80%,70.196078%);fill-opacity:1;" d="M 4.976562 6.703125 L 18.523438 6.703125 C 18.976562 6.703125 19.339844 7.070312 19.339844 7.523438 L 19.339844 13.996094 C 19.339844 14.445312 18.976562 14.8125 18.523438 14.8125 L 4.976562 14.8125 C 4.523438 14.8125 4.15625 14.445312 4.15625 13.996094 L 4.15625 7.523438 C 4.15625 7.070312 4.523438 6.703125 4.976562 6.703125 Z M 4.976562 6.703125 "/>
<path style=" stroke:none;fill-rule:nonzero;fill:rgb(84.313725%,84.313725%,84.313725%);fill-opacity:1;" d="M 2.097656 4.398438 L 2.097656 5.101562 L 4.066406 5.101562 L 4.066406 14.8125 L 4.804688 14.8125 L 4.804688 4.398438 Z M 2.097656 4.398438 "/>
<path style=" stroke:none;fill-rule:nonzero;fill:rgb(9.803922%,63.137255%,52.941176%);fill-opacity:1;" d="M 12.714844 9.089844 L 12.714844 8.734375 L 12.050781 8.734375 L 12.050781 7.542969 L 5.976562 7.542969 L 5.976562 8.734375 L 5.3125 8.734375 L 5.3125 9.089844 L 5.976562 9.089844 L 5.976562 9.910156 L 5.3125 9.910156 L 5.3125 10.261719 L 5.976562 10.261719 L 5.976562 11.152344 L 5.3125 11.152344 L 5.3125 11.507812 L 5.976562 11.507812 L 5.976562 12.21875 L 5.3125 12.21875 L 5.3125 12.574219 L 5.976562 12.574219 L 5.976562 13.617188 L 12.050781 13.617188 L 12.050781 12.574219 L 12.710938 12.574219 L 12.710938 12.21875 L 12.050781 12.21875 L 12.050781 11.507812 L 12.710938 11.507812 L 12.710938 11.152344 L 12.050781 11.152344 L 12.050781 10.261719 L 12.710938 10.261719 L 12.710938 9.90625 L 12.050781 9.90625 L 12.050781 9.089844 Z M 12.714844 9.089844 "/>
<path style=" stroke:none;fill-rule:nonzero;fill:rgb(9.803922%,63.137255%,52.941176%);fill-opacity:1;" d="M 14.339844 8.492188 L 14.222656 8.496094 C 14.121094 8.496094 14.101562 8.5 14.050781 8.527344 C 13.976562 8.5625 13.894531 8.644531 13.855469 8.71875 L 13.828125 8.777344 L 13.824219 10.667969 C 13.820312 12.027344 13.824219 12.570312 13.832031 12.605469 C 13.855469 12.71875 13.964844 12.839844 14.082031 12.878906 C 14.121094 12.894531 14.167969 12.898438 14.242188 12.898438 L 14.34375 12.902344 L 14.355469 12.867188 C 14.382812 12.8125 14.425781 12.777344 14.484375 12.773438 C 14.550781 12.769531 14.597656 12.796875 14.628906 12.859375 L 14.648438 12.898438 L 14.910156 12.902344 L 17.535156 12.902344 L 17.554688 12.859375 C 17.582031 12.804688 17.617188 12.777344 17.675781 12.773438 C 17.757812 12.765625 17.839844 12.820312 17.839844 12.886719 C 17.839844 12.902344 17.847656 12.902344 17.894531 12.898438 C 18.007812 12.890625 18.140625 12.792969 18.195312 12.675781 L 18.226562 12.613281 L 18.226562 10.714844 C 18.230469 8.84375 18.230469 8.816406 18.210938 8.757812 C 18.160156 8.613281 18.007812 8.492188 17.875 8.492188 C 17.847656 8.492188 17.839844 8.496094 17.839844 8.511719 C 17.839844 8.535156 17.796875 8.589844 17.757812 8.609375 C 17.722656 8.625 17.667969 8.628906 17.632812 8.609375 C 17.597656 8.589844 17.554688 8.542969 17.542969 8.515625 L 17.539062 8.492188 L 14.648438 8.492188 L 14.628906 8.535156 C 14.574219 8.652344 14.417969 8.652344 14.359375 8.535156 Z M 14.339844 8.492188 "/>
<path style=" stroke:none;fill-rule:nonzero;fill:rgb(90.196078%,90.196078%,90.196078%);fill-opacity:1;" d="M 15.417969 9.488281 L 16.628906 9.488281 C 16.792969 9.488281 16.925781 9.621094 16.925781 9.785156 L 16.925781 9.886719 C 16.925781 10.050781 16.792969 10.183594 16.628906 10.183594 L 15.417969 10.183594 C 15.253906 10.183594 15.121094 10.050781 15.121094 9.886719 L 15.121094 9.785156 C 15.121094 9.621094 15.253906 9.488281 15.417969 9.488281 Z M 15.417969 9.488281 "/>
<path style=" stroke:none;fill-rule:nonzero;fill:rgb(90.196078%,90.196078%,90.196078%);fill-opacity:1;" d="M 15.578125 8.71875 L 15.578125 9.480469 C 15.578125 9.527344 15.539062 9.566406 15.492188 9.566406 L 15.464844 9.566406 C 15.417969 9.566406 15.378906 9.527344 15.378906 9.480469 L 15.378906 8.71875 C 15.378906 8.671875 15.417969 8.632812 15.464844 8.632812 L 15.492188 8.632812 C 15.539062 8.632812 15.578125 8.671875 15.578125 8.71875 Z M 15.578125 8.71875 "/>
<path style=" stroke:none;fill-rule:nonzero;fill:rgb(90.196078%,90.196078%,90.196078%);fill-opacity:1;" d="M 15.941406 8.714844 L 15.941406 9.480469 C 15.941406 9.527344 15.902344 9.566406 15.855469 9.566406 L 15.828125 9.566406 C 15.78125 9.566406 15.742188 9.527344 15.742188 9.480469 L 15.742188 8.714844 C 15.742188 8.667969 15.78125 8.632812 15.828125 8.632812 L 15.855469 8.632812 C 15.902344 8.632812 15.941406 8.667969 15.941406 8.714844 Z M 15.941406 8.714844 "/>
<path style=" stroke:none;fill-rule:nonzero;fill:rgb(90.196078%,90.196078%,90.196078%);fill-opacity:1;" d="M 16.300781 8.714844 L 16.300781 9.480469 C 16.300781 9.527344 16.261719 9.566406 16.214844 9.566406 L 16.1875 9.566406 C 16.140625 9.566406 16.101562 9.527344 16.101562 9.480469 L 16.101562 8.714844 C 16.101562 8.667969 16.140625 8.632812 16.1875 8.632812 L 16.214844 8.632812 C 16.261719 8.632812 16.300781 8.667969 16.300781 8.714844 Z M 16.300781 8.714844 "/>
<path style=" stroke:none;fill-rule:nonzero;fill:rgb(90.196078%,90.196078%,90.196078%);fill-opacity:1;" d="M 16.664062 8.714844 L 16.664062 9.480469 C 16.664062 9.527344 16.625 9.566406 16.578125 9.566406 L 16.546875 9.566406 C 16.5 9.566406 16.464844 9.527344 16.464844 9.480469 L 16.464844 8.714844 C 16.464844 8.667969 16.5 8.628906 16.546875 8.628906 L 16.578125 8.628906 C 16.625 8.628906 16.664062 8.667969 16.664062 8.714844 Z M 16.664062 8.714844 "/>
<path style=" stroke:none;fill-rule:nonzero;fill:rgb(90.196078%,90.196078%,90.196078%);fill-opacity:1;" d="M 17.230469 10.070312 L 17.230469 11.28125 C 17.230469 11.445312 17.097656 11.578125 16.933594 11.578125 L 16.832031 11.578125 C 16.667969 11.578125 16.53125 11.445312 16.53125 11.28125 L 16.53125 10.070312 C 16.53125 9.90625 16.667969 9.773438 16.832031 9.773438 L 16.933594 9.773438 C 17.097656 9.773438 17.230469 9.90625 17.230469 10.070312 Z M 17.230469 10.070312 "/>
<path style=" stroke:none;fill-rule:nonzero;fill:rgb(90.196078%,90.196078%,90.196078%);fill-opacity:1;" d="M 18 10.226562 L 17.238281 10.226562 C 17.191406 10.226562 17.152344 10.191406 17.152344 10.144531 L 17.152344 10.113281 C 17.152344 10.066406 17.191406 10.027344 17.238281 10.027344 L 18 10.027344 C 18.046875 10.027344 18.085938 10.066406 18.085938 10.113281 L 18.085938 10.144531 C 18.085938 10.191406 18.046875 10.226562 18 10.226562 Z M 18 10.226562 "/>
<path style=" stroke:none;fill-rule:nonzero;fill:rgb(90.196078%,90.196078%,90.196078%);fill-opacity:1;" d="M 18 10.59375 L 17.238281 10.59375 C 17.191406 10.59375 17.152344 10.554688 17.152344 10.507812 L 17.152344 10.476562 C 17.152344 10.429688 17.191406 10.394531 17.238281 10.394531 L 18 10.394531 C 18.046875 10.394531 18.085938 10.429688 18.085938 10.476562 L 18.085938 10.507812 C 18.085938 10.554688 18.046875 10.59375 18 10.59375 Z M 18 10.59375 "/>
<path style=" stroke:none;fill-rule:nonzero;fill:rgb(90.196078%,90.196078%,90.196078%);fill-opacity:1;" d="M 18 10.953125 L 17.238281 10.953125 C 17.191406 10.953125 17.152344 10.914062 17.152344 10.867188 L 17.152344 10.835938 C 17.152344 10.789062 17.191406 10.753906 17.238281 10.753906 L 18 10.753906 C 18.046875 10.753906 18.085938 10.789062 18.085938 10.835938 L 18.085938 10.867188 C 18.085938 10.914062 18.046875 10.953125 18 10.953125 Z M 18 10.953125 "/>
<path style=" stroke:none;fill-rule:nonzero;fill:rgb(90.196078%,90.196078%,90.196078%);fill-opacity:1;" d="M 18.003906 11.3125 L 17.238281 11.3125 C 17.191406 11.3125 17.152344 11.277344 17.152344 11.230469 L 17.152344 11.199219 C 17.152344 11.152344 17.191406 11.113281 17.238281 11.113281 L 18.003906 11.113281 C 18.050781 11.113281 18.089844 11.152344 18.089844 11.199219 L 18.089844 11.230469 C 18.089844 11.277344 18.050781 11.3125 18.003906 11.3125 Z M 18.003906 11.3125 "/>
<path style=" stroke:none;fill-rule:nonzero;fill:rgb(90.196078%,90.196078%,90.196078%);fill-opacity:1;" d="M 14.820312 10.078125 L 14.820312 11.289062 C 14.820312 11.453125 14.953125 11.585938 15.117188 11.585938 L 15.21875 11.585938 C 15.382812 11.585938 15.515625 11.453125 15.515625 11.289062 L 15.515625 10.078125 C 15.515625 9.914062 15.382812 9.78125 15.21875 9.78125 L 15.117188 9.78125 C 14.953125 9.78125 14.820312 9.914062 14.820312 10.078125 Z M 14.820312 10.078125 "/>
<path style=" stroke:none;fill-rule:nonzero;fill:rgb(90.196078%,90.196078%,90.196078%);fill-opacity:1;" d="M 14.050781 10.234375 L 14.8125 10.234375 C 14.859375 10.234375 14.898438 10.199219 14.898438 10.152344 L 14.898438 10.121094 C 14.898438 10.074219 14.859375 10.035156 14.8125 10.035156 L 14.050781 10.035156 C 14.003906 10.035156 13.964844 10.074219 13.964844 10.121094 L 13.964844 10.152344 C 13.964844 10.199219 14.003906 10.234375 14.050781 10.234375 Z M 14.050781 10.234375 "/>
<path style=" stroke:none;fill-rule:nonzero;fill:rgb(90.196078%,90.196078%,90.196078%);fill-opacity:1;" d="M 14.046875 10.601562 L 14.8125 10.601562 C 14.859375 10.601562 14.898438 10.5625 14.898438 10.515625 L 14.898438 10.484375 C 14.898438 10.4375 14.859375 10.402344 14.8125 10.402344 L 14.046875 10.402344 C 14 10.402344 13.960938 10.4375 13.960938 10.484375 L 13.960938 10.515625 C 13.960938 10.5625 14 10.601562 14.046875 10.601562 Z M 14.046875 10.601562 "/>
<path style=" stroke:none;fill-rule:nonzero;fill:rgb(90.196078%,90.196078%,90.196078%);fill-opacity:1;" d="M 14.046875 10.960938 L 14.8125 10.960938 C 14.859375 10.960938 14.898438 10.921875 14.898438 10.875 L 14.898438 10.84375 C 14.898438 10.796875 14.859375 10.761719 14.8125 10.761719 L 14.046875 10.761719 C 14 10.761719 13.960938 10.796875 13.960938 10.84375 L 13.960938 10.875 C 13.960938 10.921875 14 10.960938 14.046875 10.960938 Z M 14.046875 10.960938 "/>
<path style=" stroke:none;fill-rule:nonzero;fill:rgb(90.196078%,90.196078%,90.196078%);fill-opacity:1;" d="M 14.046875 11.320312 L 14.8125 11.320312 C 14.859375 11.320312 14.898438 11.285156 14.898438 11.238281 L 14.898438 11.207031 C 14.898438 11.160156 14.859375 11.121094 14.8125 11.121094 L 14.046875 11.121094 C 14 11.121094 13.960938 11.160156 13.960938 11.207031 L 13.960938 11.238281 C 13.960938 11.285156 14 11.320312 14.046875 11.320312 Z M 14.046875 11.320312 "/>
<path style=" stroke:none;fill-rule:nonzero;fill:rgb(90.196078%,90.196078%,90.196078%);fill-opacity:1;" d="M 15.425781 11.910156 L 16.636719 11.910156 C 16.800781 11.910156 16.933594 11.777344 16.933594 11.613281 L 16.933594 11.511719 C 16.933594 11.34375 16.800781 11.210938 16.636719 11.210938 L 15.425781 11.210938 C 15.261719 11.210938 15.128906 11.34375 15.128906 11.511719 L 15.128906 11.613281 C 15.128906 11.777344 15.261719 11.910156 15.425781 11.910156 Z M 15.425781 11.910156 "/>
<path style=" stroke:none;fill-rule:nonzero;fill:rgb(90.196078%,90.196078%,90.196078%);fill-opacity:1;" d="M 15.582031 12.679688 L 15.582031 11.914062 C 15.582031 11.867188 15.546875 11.832031 15.5 11.832031 L 15.46875 11.832031 C 15.421875 11.832031 15.382812 11.867188 15.382812 11.914062 L 15.382812 12.679688 C 15.382812 12.726562 15.421875 12.765625 15.46875 12.765625 L 15.5 12.765625 C 15.546875 12.765625 15.582031 12.726562 15.582031 12.679688 Z M 15.582031 12.679688 "/>
<path style=" stroke:none;fill-rule:nonzero;fill:rgb(90.196078%,90.196078%,90.196078%);fill-opacity:1;" d="M 15.949219 12.679688 L 15.949219 11.914062 C 15.949219 11.867188 15.910156 11.832031 15.863281 11.832031 L 15.832031 11.832031 C 15.785156 11.832031 15.75 11.867188 15.75 11.914062 L 15.75 12.679688 C 15.75 12.726562 15.785156 12.765625 15.832031 12.765625 L 15.863281 12.765625 C 15.910156 12.765625 15.949219 12.726562 15.949219 12.679688 Z M 15.949219 12.679688 "/>
<path style=" stroke:none;fill-rule:nonzero;fill:rgb(90.196078%,90.196078%,90.196078%);fill-opacity:1;" d="M 16.304688 12.679688 L 16.304688 11.914062 C 16.304688 11.867188 16.269531 11.832031 16.222656 11.832031 L 16.191406 11.832031 C 16.144531 11.832031 16.105469 11.867188 16.105469 11.914062 L 16.105469 12.679688 C 16.105469 12.726562 16.144531 12.765625 16.191406 12.765625 L 16.222656 12.765625 C 16.269531 12.765625 16.304688 12.726562 16.304688 12.679688 Z M 16.304688 12.679688 "/>
<path style=" stroke:none;fill-rule:nonzero;fill:rgb(90.196078%,90.196078%,90.196078%);fill-opacity:1;" d="M 16.667969 12.683594 L 16.667969 11.917969 C 16.667969 11.871094 16.632812 11.832031 16.582031 11.832031 L 16.554688 11.832031 C 16.507812 11.832031 16.46875 11.871094 16.46875 11.917969 L 16.46875 12.683594 C 16.46875 12.730469 16.507812 12.769531 16.554688 12.769531 L 16.582031 12.769531 C 16.632812 12.769531 16.667969 12.730469 16.667969 12.683594 Z M 16.667969 12.683594 "/>
<path style=" stroke:none;fill-rule:nonzero;fill:rgb(12.941176%,20.784314%,32.941176%);fill-opacity:1;" d="M 15.121094 11.640625 C 15.058594 11.609375 15.0625 11.667969 15.0625 10.6875 L 15.0625 9.792969 L 15.085938 9.769531 C 15.097656 9.753906 15.117188 9.738281 15.125 9.734375 C 15.148438 9.722656 16.902344 9.722656 16.925781 9.734375 C 16.933594 9.738281 16.953125 9.753906 16.964844 9.769531 L 16.988281 9.792969 L 16.988281 10.683594 C 16.988281 11.660156 16.992188 11.605469 16.933594 11.636719 C 16.894531 11.660156 15.160156 11.660156 15.121094 11.640625 Z M 16.839844 11.484375 C 16.851562 11.453125 16.839844 11.410156 16.8125 11.398438 C 16.742188 11.375 16.699219 11.472656 16.765625 11.503906 C 16.792969 11.519531 16.824219 11.511719 16.839844 11.484375 Z M 15.300781 11.496094 C 15.324219 11.476562 15.316406 11.421875 15.289062 11.402344 C 15.238281 11.371094 15.183594 11.425781 15.210938 11.484375 C 15.21875 11.503906 15.230469 11.507812 15.253906 11.507812 C 15.273438 11.507812 15.292969 11.503906 15.300781 11.496094 Z M 15.300781 9.964844 C 15.320312 9.945312 15.316406 9.886719 15.292969 9.875 C 15.25 9.851562 15.203125 9.878906 15.203125 9.925781 C 15.203125 9.960938 15.21875 9.976562 15.257812 9.976562 C 15.273438 9.976562 15.292969 9.96875 15.300781 9.964844 Z M 16.832031 9.960938 C 16.851562 9.941406 16.851562 9.90625 16.828125 9.882812 C 16.785156 9.832031 16.703125 9.894531 16.742188 9.953125 C 16.757812 9.980469 16.804688 9.984375 16.832031 9.960938 Z M 16.832031 9.960938 "/>
<path style=" stroke:none;fill-rule:evenodd;fill:rgb(97.254902%,87.058824%,40.784314%);fill-opacity:1;" d="M 15.171875 12.507812 L 15.480469 12.507812 L 15.480469 12.902344 L 15.171875 12.902344 Z M 15.171875 12.507812 "/>
<path style=" stroke:none;fill-rule:evenodd;fill:rgb(97.254902%,87.058824%,40.784314%);fill-opacity:1;" d="M 15.308594 12.214844 L 15.34375 12.214844 C 15.421875 12.214844 15.480469 12.277344 15.480469 12.351562 L 15.480469 12.5 C 15.480469 12.574219 15.421875 12.636719 15.34375 12.636719 L 15.308594 12.636719 C 15.230469 12.636719 15.171875 12.574219 15.171875 12.5 L 15.171875 12.351562 C 15.171875 12.277344 15.230469 12.214844 15.308594 12.214844 Z M 15.308594 12.214844 "/>
<path style=" stroke:none;fill-rule:evenodd;fill:rgb(97.254902%,87.058824%,40.784314%);fill-opacity:1;" d="M 15.589844 12.507812 L 15.902344 12.507812 L 15.902344 12.902344 L 15.589844 12.902344 Z M 15.589844 12.507812 "/>
<path style=" stroke:none;fill-rule:evenodd;fill:rgb(97.254902%,87.058824%,40.784314%);fill-opacity:1;" d="M 15.726562 12.214844 L 15.765625 12.214844 C 15.839844 12.214844 15.902344 12.277344 15.902344 12.351562 L 15.902344 12.5 C 15.902344 12.574219 15.839844 12.636719 15.765625 12.636719 L 15.726562 12.636719 C 15.652344 12.636719 15.589844 12.574219 15.589844 12.5 L 15.589844 12.351562 C 15.589844 12.277344 15.652344 12.214844 15.726562 12.214844 Z M 15.726562 12.214844 "/>
<path style=" stroke:none;fill-rule:evenodd;fill:rgb(97.254902%,87.058824%,40.784314%);fill-opacity:1;" d="M 16.152344 12.507812 L 16.464844 12.507812 L 16.464844 12.902344 L 16.152344 12.902344 Z M 16.152344 12.507812 "/>
<path style=" stroke:none;fill-rule:evenodd;fill:rgb(97.254902%,87.058824%,40.784314%);fill-opacity:1;" d="M 16.289062 12.214844 L 16.328125 12.214844 C 16.402344 12.214844 16.464844 12.277344 16.464844 12.351562 L 16.464844 12.5 C 16.464844 12.574219 16.402344 12.636719 16.328125 12.636719 L 16.289062 12.636719 C 16.214844 12.636719 16.152344 12.574219 16.152344 12.5 L 16.152344 12.351562 C 16.152344 12.277344 16.214844 12.214844 16.289062 12.214844 Z M 16.289062 12.214844 "/>
<path style=" stroke:none;fill-rule:evenodd;fill:rgb(97.254902%,87.058824%,40.784314%);fill-opacity:1;" d="M 16.5625 12.507812 L 16.875 12.507812 L 16.875 12.902344 L 16.5625 12.902344 Z M 16.5625 12.507812 "/>
<path style=" stroke:none;fill-rule:evenodd;fill:rgb(97.254902%,87.058824%,40.784314%);fill-opacity:1;" d="M 16.699219 12.214844 L 16.738281 12.214844 C 16.8125 12.214844 16.875 12.277344 16.875 12.351562 L 16.875 12.5 C 16.875 12.574219 16.8125 12.636719 16.738281 12.636719 L 16.699219 12.636719 C 16.625 12.636719 16.5625 12.574219 16.5625 12.5 L 16.5625 12.351562 C 16.5625 12.277344 16.625 12.214844 16.699219 12.214844 Z M 16.699219 12.214844 "/>
<path style=" stroke:none;fill-rule:nonzero;fill:rgb(90.196078%,90.196078%,90.196078%);fill-opacity:1;" d="M 7.597656 9.140625 L 7.597656 12.355469 L 7.976562 12.355469 L 7.976562 9.140625 Z M 8.175781 9.140625 L 8.175781 12.355469 L 8.554688 12.355469 L 8.554688 9.140625 Z M 8.753906 9.140625 L 8.753906 12.355469 L 9.136719 12.355469 L 9.136719 9.140625 Z M 9.351562 9.140625 L 9.351562 12.355469 L 9.730469 12.355469 L 9.730469 9.140625 Z M 9.941406 9.140625 L 9.941406 12.355469 L 10.324219 12.355469 L 10.324219 9.140625 Z M 9.941406 9.140625 "/>
</g>
</svg>
