
<svg xmlns="http://www.w3.org/2000/svg" xmlns:xlink="http://www.w3.org/1999/xlink" width="22px" height="22px" viewBox="0 0 22 22" version="1.1">
<g id="surface1">
<path style="fill-rule:nonzero;fill:rgb(100%,100%,100%);fill-opacity:1;stroke-width:27.910587;stroke-linecap:butt;stroke-linejoin:miter;stroke:rgb(9.019608%,36.078431%,60%);stroke-opacity:1;stroke-miterlimit:4;" d="M 83.181818 27.363636 L 428.818182 27.363636 C 459.636364 27.363636 484.636364 52.363636 484.636364 83.181818 L 484.636364 428.818182 C 484.636364 459.636364 459.636364 484.636364 428.818182 484.636364 L 83.181818 484.636364 C 52.363636 484.636364 27.363636 459.636364 27.363636 428.818182 L 27.363636 83.181818 C 27.363636 52.363636 52.363636 27.363636 83.181818 27.363636 Z M 83.181818 27.363636 " transform="matrix(0.0429688,0,0,0.0429688,0,0)"/>
<path style=" stroke:none;fill-rule:nonzero;fill:rgb(12.941176%,39.607843%,69.019608%);fill-opacity:1;" d="M 17.574219 2.867188 L 13.519531 4.601562 L 13.519531 11.605469 C 13.527344 13.070312 17.574219 12.746094 17.574219 11.683594 Z M 17.574219 2.867188 "/>
<path style=" stroke:none;fill-rule:nonzero;fill:rgb(12.941176%,39.607843%,69.019608%);fill-opacity:1;" d="M 7.441406 7.605469 L 3.386719 9.40625 L 3.386719 11.875 C 3.386719 12.9375 3.523438 13.910156 3.800781 14.789062 C 4.074219 15.667969 4.5 16.425781 5.074219 17.058594 C 5.5625 17.597656 6.164062 18.035156 6.875 18.375 L 7.882812 18.691406 C 11.121094 18.347656 12.273438 16.03125 12.640625 15.300781 L 12.738281 15.066406 C 12.164062 15.667969 11.367188 16.042969 10.480469 16.042969 C 8.734375 16.042969 7.441406 14.59375 7.441406 12.800781 Z M 7.441406 7.605469 "/>
<path style=" stroke:none;fill-rule:nonzero;fill:rgb(49.411765%,75.686275%,51.372549%);fill-opacity:1;" d="M 13.519531 5.3125 L 13.519531 5.691406 C 13.519531 5.695312 13.519531 5.699219 13.519531 5.707031 L 13.519531 12.800781 C 13.519531 13.71875 13.261719 14.546875 12.664062 15.132812 C 12.6875 15.109375 12.714844 15.089844 12.738281 15.066406 L 12.640625 15.300781 C 12.273438 16.03125 10.582031 18.015625 7.34375 18.363281 L 6.925781 18.375 C 7.027344 18.4375 7.136719 18.496094 7.265625 18.546875 C 8.148438 18.902344 9.203125 19.082031 10.417969 19.082031 L 10.414062 19.078125 C 11.652344 19.078125 12.71875 18.90625 13.621094 18.554688 C 14.519531 18.210938 15.261719 17.71875 15.847656 17.082031 C 16.429688 16.449219 16.863281 15.6875 17.148438 14.800781 C 17.429688 13.914062 17.570312 12.9375 17.570312 11.875 L 17.570312 10.609375 C 17.3125 8.191406 15.121094 5.964844 13.519531 5.3125 Z M 12.640625 15.160156 C 12.5625 15.234375 12.484375 15.304688 12.398438 15.367188 C 12.484375 15.304688 12.5625 15.234375 12.640625 15.160156 Z M 12.640625 15.160156 "/>
</g>
</svg>
