
<svg xmlns="http://www.w3.org/2000/svg" xmlns:xlink="http://www.w3.org/1999/xlink" width="22px" height="22px" viewBox="0 0 22 22" version="1.1">
<g id="surface1">
<path style="fill-rule:nonzero;fill:rgb(100%,100%,100%);fill-opacity:1;stroke-width:27.478176;stroke-linecap:butt;stroke-linejoin:miter;stroke:rgb(100%,80%,0%);stroke-opacity:1;stroke-miterlimit:4;" d="M 85.909091 30.909091 L 426.090909 30.909091 C 456.454545 30.909091 481.090909 55.545455 481.090909 85.909091 L 481.090909 426.090909 C 481.090909 456.454545 456.454545 481.090909 426.090909 481.090909 L 85.909091 481.090909 C 55.545455 481.090909 30.909091 456.454545 30.909091 426.090909 L 30.909091 85.909091 C 30.909091 55.545455 55.545455 30.909091 85.909091 30.909091 Z M 85.909091 30.909091 " transform="matrix(0.0429688,0,0,0.0429688,0,0)"/>
<path style=" stroke:none;fill-rule:nonzero;fill:rgb(100%,80%,0%);fill-opacity:1;" d="M 11.101562 18.164062 C 11.347656 18.15625 11.660156 18.136719 12.070312 18.089844 C 13.558594 17.917969 14.332031 17.320312 14.675781 17.121094 C 15.019531 16.917969 16.21875 15.832031 16.21875 14.429688 L 16.21875 6.300781 L 16.582031 6.300781 C 16.710938 6.300781 16.835938 6.253906 16.902344 6.1875 C 16.96875 6.117188 16.96875 6.027344 16.902344 5.960938 L 15.011719 3.953125 C 14.949219 3.886719 14.832031 3.84375 14.707031 3.839844 C 14.695312 3.839844 14.683594 3.835938 14.671875 3.835938 C 14.671875 3.835938 14.667969 3.835938 14.667969 3.835938 C 14.542969 3.839844 14.425781 3.882812 14.363281 3.949219 L 12.46875 5.957031 C 12.398438 6.023438 12.398438 6.117188 12.464844 6.1875 C 12.53125 6.253906 12.660156 6.300781 12.792969 6.300781 L 13.132812 6.300781 L 13.132812 14.769531 C 13.132812 15.3125 13.074219 15.71875 12.675781 16.292969 C 12.328125 16.789062 11.488281 16.894531 11.101562 16.914062 L 10.898438 16.914062 C 10.511719 16.894531 9.671875 16.789062 9.324219 16.292969 C 8.925781 15.71875 8.867188 15.3125 8.867188 14.769531 L 8.867188 6.300781 L 9.207031 6.300781 C 9.339844 6.300781 9.46875 6.253906 9.535156 6.1875 C 9.601562 6.117188 9.601562 6.023438 9.53125 5.957031 L 7.636719 3.949219 C 7.574219 3.882812 7.453125 3.839844 7.328125 3.835938 C 7.316406 3.835938 7.304688 3.839844 7.292969 3.839844 C 7.167969 3.84375 7.050781 3.886719 6.988281 3.953125 L 5.097656 5.960938 C 5.03125 6.027344 5.03125 6.117188 5.097656 6.1875 C 5.164062 6.253906 5.289062 6.300781 5.417969 6.300781 L 5.78125 6.300781 L 5.78125 14.429688 C 5.78125 15.832031 6.980469 16.917969 7.324219 17.121094 C 7.667969 17.320312 8.441406 17.917969 9.929688 18.089844 C 10.339844 18.136719 10.652344 18.15625 10.898438 18.164062 Z M 11.101562 18.164062 "/>
</g>
</svg>
