
<svg xmlns="http://www.w3.org/2000/svg" xmlns:xlink="http://www.w3.org/1999/xlink" width="22px" height="22px" viewBox="0 0 22 22" version="1.1">
<g id="surface1">
<path style=" stroke:none;fill-rule:evenodd;fill:rgb(80%,61.176471%,41.960784%);fill-opacity:1;" d="M 3.285156 1.054688 L 18.714844 1.054688 C 19.949219 1.054688 20.949219 2.054688 20.949219 3.285156 L 20.949219 18.714844 C 20.949219 19.949219 19.949219 20.949219 18.714844 20.949219 L 3.285156 20.949219 C 2.050781 20.949219 1.050781 19.949219 1.050781 18.714844 L 1.050781 3.285156 C 1.050781 2.054688 2.050781 1.054688 3.285156 1.054688 Z M 3.285156 1.054688 "/>
<path style=" stroke:none;fill-rule:nonzero;fill:rgb(0%,0%,0%);fill-opacity:0.25098;" d="M 6 4.558594 C 6 5.105469 5.554688 5.550781 5.007812 5.550781 C 4.464844 5.550781 4.019531 5.105469 4.019531 4.558594 C 4.019531 4.011719 4.464844 3.570312 5.007812 3.570312 C 5.554688 3.570312 6 4.011719 6 4.558594 M 6 4.558594 "/>
<path style=" stroke:none;fill-rule:nonzero;fill:rgb(0%,0%,0%);fill-opacity:0.25098;" d="M 17.980469 4.628906 C 17.980469 5.175781 17.535156 5.617188 16.992188 5.617188 C 16.445312 5.617188 16 5.175781 16 4.628906 C 16 4.082031 16.445312 3.640625 16.992188 3.640625 C 17.535156 3.640625 17.980469 4.082031 17.980469 4.628906 M 17.980469 4.628906 "/>
<path style=" stroke:none;fill-rule:nonzero;fill:rgb(100%,100%,100%);fill-opacity:1;" d="M 21.484375 14.957031 C 21.484375 18.40625 18.75 21.234375 15.304688 21.355469 C 11.855469 21.476562 8.929688 18.84375 8.691406 15.402344 C 8.449219 11.960938 10.976562 8.949219 14.40625 8.585938 C 17.835938 8.222656 20.9375 10.644531 21.421875 14.058594 "/>
<path style=" stroke:none;fill-rule:evenodd;fill:rgb(20.784314%,78.039216%,43.921569%);fill-opacity:1;" d="M 15.085938 10.679688 C 15.0625 10.679688 15.039062 10.679688 15.015625 10.683594 C 14.292969 10.738281 13.890625 11.617188 14.191406 12.582031 C 13.824219 11.960938 13.34375 11.488281 12.738281 11.492188 C 12.6875 11.492188 12.636719 11.496094 12.589844 11.5 C 11.863281 11.597656 11.761719 12.507812 12.519531 12.933594 C 12.6875 13.027344 12.847656 13.136719 13.003906 13.261719 C 12.742188 13.113281 12.472656 13.023438 12.210938 13.023438 C 12.035156 13.023438 11.863281 13.066406 11.699219 13.160156 C 11.171875 13.46875 11.351562 14.179688 12.019531 14.320312 C 11.839844 14.367188 11.679688 14.457031 11.542969 14.597656 C 11.117188 15.046875 11.535156 15.699219 12.257812 15.574219 C 12.324219 15.5625 12.394531 15.554688 12.464844 15.546875 C 12.292969 15.625 12.152344 15.75 12.066406 15.925781 C 11.851562 16.367188 12.320312 16.757812 12.839844 16.492188 C 13.242188 16.285156 13.765625 16.1875 14.214844 16.136719 L 14.289062 16.179688 L 14.210938 16.222656 L 14.324219 16.414062 L 14.210938 16.605469 L 14.289062 16.648438 L 14.210938 16.691406 C 14.210938 16.691406 14.210938 16.695312 14.210938 16.695312 L 14.324219 16.882812 L 14.210938 17.074219 L 14.289062 17.117188 L 14.210938 17.164062 L 14.324219 17.355469 L 14.210938 17.542969 C 14.210938 17.542969 14.210938 17.542969 14.210938 17.546875 L 14.289062 17.589844 L 14.210938 17.632812 L 14.324219 17.824219 L 14.210938 18.015625 L 14.289062 18.058594 L 14.210938 18.101562 C 14.210938 18.101562 14.210938 18.101562 14.210938 18.105469 L 14.324219 18.292969 L 14.210938 18.484375 L 14.289062 18.527344 L 14.210938 18.574219 L 14.324219 18.765625 L 14.210938 18.953125 L 14.289062 19 L 14.210938 19.042969 L 14.324219 19.234375 L 14.308594 19.261719 L 15.828125 19.261719 L 15.8125 19.234375 L 15.925781 19.042969 L 15.847656 19 L 15.925781 18.953125 L 15.8125 18.765625 L 15.925781 18.574219 L 15.847656 18.527344 L 15.925781 18.484375 L 15.8125 18.292969 L 15.925781 18.105469 C 15.925781 18.101562 15.925781 18.101562 15.925781 18.101562 L 15.847656 18.058594 L 15.925781 18.015625 L 15.8125 17.824219 L 15.925781 17.632812 L 15.847656 17.589844 L 15.925781 17.546875 C 15.925781 17.542969 15.925781 17.542969 15.925781 17.542969 L 15.8125 17.355469 L 15.925781 17.164062 L 15.847656 17.117188 L 15.925781 17.074219 L 15.8125 16.882812 L 15.925781 16.695312 C 15.925781 16.695312 15.925781 16.691406 15.925781 16.691406 L 15.847656 16.648438 L 15.925781 16.605469 L 15.8125 16.414062 L 15.925781 16.222656 L 15.847656 16.179688 L 15.921875 16.136719 C 16.378906 16.183594 16.910156 16.28125 17.316406 16.492188 C 17.835938 16.757812 18.304688 16.367188 18.089844 15.925781 C 18.003906 15.75 17.867188 15.625 17.691406 15.546875 C 17.761719 15.554688 17.832031 15.5625 17.898438 15.574219 C 18.621094 15.699219 19.039062 15.046875 18.613281 14.597656 C 18.476562 14.457031 18.316406 14.367188 18.136719 14.320312 C 18.804688 14.179688 18.984375 13.46875 18.460938 13.160156 C 18.050781 12.921875 17.597656 13.011719 17.152344 13.261719 C 17.308594 13.136719 17.472656 13.027344 17.636719 12.933594 C 18.398438 12.507812 18.292969 11.597656 17.570312 11.5 C 16.847656 11.40625 16.296875 11.976562 15.890625 12.714844 C 16.238281 11.542969 15.757812 10.6875 15.085938 10.679688 Z M 15.085938 10.679688 "/>
<path style=" stroke:none;fill-rule:evenodd;fill:rgb(22.745098%,77.254902%,90.196078%);fill-opacity:1;" d="M 12.777344 9.390625 C 10.535156 10.324219 9.074219 12.511719 9.070312 14.9375 C 9.074219 18.03125 11.425781 20.613281 14.5 20.910156 L 14.5 19.753906 C 12.0625 19.464844 10.226562 17.394531 10.222656 14.9375 C 10.226562 13.152344 11.207031 11.515625 12.777344 10.667969 Z M 17.378906 9.394531 L 17.378906 10.664062 C 18.953125 11.511719 19.933594 13.152344 19.933594 14.9375 C 19.929688 17.394531 18.09375 19.460938 15.65625 19.753906 L 15.65625 20.917969 C 18.734375 20.621094 21.085938 18.03125 21.085938 14.9375 C 21.082031 12.511719 19.621094 10.324219 17.378906 9.394531 Z M 17.378906 9.394531 "/>
<path style=" stroke:none;fill-rule:nonzero;fill:rgb(40%,40%,40%);fill-opacity:1;" d="M 4.855469 5.199219 C 6.832031 15.75 15.40625 15.75 17.382812 5.199219 C 17.523438 4.3125 16.914062 4.292969 16.726562 5.199219 C 15.40625 14.8125 6.832031 14.761719 5.515625 5.199219 C 5.390625 4.328125 4.734375 4.363281 4.855469 5.199219 M 4.855469 5.199219 "/>
</g>
</svg>
