
<svg xmlns="http://www.w3.org/2000/svg" xmlns:xlink="http://www.w3.org/1999/xlink" width="22px" height="22px" viewBox="0 0 22 22" version="1.1">
<g id="surface1">
<path style=" stroke:none;fill-rule:nonzero;fill:rgb(22.745098%,77.254902%,90.196078%);fill-opacity:1;" d="M 3.335938 0.945312 L 18.765625 0.945312 C 20.085938 0.945312 21.15625 2.015625 21.15625 3.335938 L 21.15625 18.765625 C 21.15625 20.085938 20.085938 21.15625 18.765625 21.15625 L 3.335938 21.15625 C 2.015625 21.15625 0.945312 20.085938 0.945312 18.765625 L 0.945312 3.335938 C 0.945312 2.015625 2.015625 0.945312 3.335938 0.945312 Z M 3.335938 0.945312 "/>
<path style=" stroke:none;fill-rule:nonzero;fill:rgb(100%,100%,100%);fill-opacity:1;" d="M 20.496094 11 C 20.496094 16.113281 16.445312 20.308594 11.332031 20.488281 C 6.222656 20.667969 1.886719 16.765625 1.527344 11.664062 C 1.171875 6.5625 4.917969 2.09375 10.003906 1.558594 C 15.089844 1.019531 19.6875 4.609375 20.402344 9.671875 "/>
<path style=" stroke:none;fill-rule:evenodd;fill:rgb(20.784314%,78.039216%,43.921569%);fill-opacity:1;" d="M 11.011719 4.664062 C 10.976562 4.664062 10.941406 4.664062 10.90625 4.667969 C 9.835938 4.75 9.238281 6.050781 9.6875 7.484375 C 9.140625 6.5625 8.425781 5.859375 7.527344 5.863281 C 7.457031 5.863281 7.382812 5.871094 7.308594 5.878906 C 6.230469 6.023438 6.082031 7.375 7.207031 8.003906 C 7.453125 8.140625 7.691406 8.308594 7.925781 8.492188 C 7.535156 8.269531 7.136719 8.132812 6.75 8.132812 C 6.488281 8.132812 6.230469 8.195312 5.988281 8.339844 C 5.207031 8.796875 5.472656 9.847656 6.46875 10.0625 C 6.203125 10.128906 5.960938 10.257812 5.757812 10.472656 C 5.128906 11.136719 5.746094 12.101562 6.820312 11.917969 C 6.917969 11.902344 7.019531 11.886719 7.125 11.878906 C 6.867188 11.996094 6.660156 12.175781 6.53125 12.441406 C 6.21875 13.09375 6.914062 13.675781 7.679688 13.277344 C 8.277344 12.972656 9.054688 12.824219 9.722656 12.753906 L 9.832031 12.816406 L 9.714844 12.878906 C 9.714844 12.878906 9.714844 12.878906 9.714844 12.882812 L 9.882812 13.164062 L 9.714844 13.445312 L 9.832031 13.511719 L 9.714844 13.578125 L 9.882812 13.859375 L 9.714844 14.140625 C 9.714844 14.140625 9.714844 14.140625 9.714844 14.144531 L 9.832031 14.207031 L 9.714844 14.273438 L 9.882812 14.554688 L 9.714844 14.839844 L 9.832031 14.90625 L 9.714844 14.96875 C 9.714844 14.96875 9.714844 14.96875 9.714844 14.972656 L 9.882812 15.253906 L 9.714844 15.535156 L 9.832031 15.601562 L 9.714844 15.667969 L 9.882812 15.949219 L 9.714844 16.230469 C 9.714844 16.230469 9.714844 16.234375 9.714844 16.234375 L 9.832031 16.296875 L 9.714844 16.363281 L 9.882812 16.644531 L 9.714844 16.929688 L 9.832031 16.996094 L 9.714844 17.058594 C 9.714844 17.058594 9.714844 17.058594 9.714844 17.0625 L 9.882812 17.34375 L 9.859375 17.382812 L 12.109375 17.382812 L 12.085938 17.34375 L 12.253906 17.0625 C 12.253906 17.058594 12.253906 17.058594 12.253906 17.058594 L 12.136719 16.996094 L 12.253906 16.929688 L 12.085938 16.644531 L 12.253906 16.363281 L 12.136719 16.296875 L 12.253906 16.234375 C 12.253906 16.234375 12.253906 16.230469 12.253906 16.230469 L 12.085938 15.949219 L 12.253906 15.667969 L 12.136719 15.601562 L 12.253906 15.535156 L 12.085938 15.253906 L 12.253906 14.972656 C 12.253906 14.96875 12.253906 14.96875 12.253906 14.96875 L 12.136719 14.90625 L 12.253906 14.839844 L 12.085938 14.554688 L 12.253906 14.273438 L 12.136719 14.207031 L 12.253906 14.144531 C 12.253906 14.140625 12.253906 14.140625 12.253906 14.140625 L 12.085938 13.859375 L 12.253906 13.578125 L 12.136719 13.511719 L 12.253906 13.445312 L 12.085938 13.164062 L 12.253906 12.882812 C 12.253906 12.878906 12.253906 12.878906 12.253906 12.878906 L 12.136719 12.816406 L 12.25 12.75 C 12.925781 12.820312 13.714844 12.96875 14.320312 13.277344 C 15.085938 13.675781 15.78125 13.09375 15.46875 12.441406 C 15.339844 12.175781 15.132812 11.996094 14.875 11.878906 C 14.980469 11.886719 15.082031 11.902344 15.179688 11.917969 C 16.253906 12.101562 16.871094 11.136719 16.242188 10.472656 C 16.039062 10.257812 15.796875 10.128906 15.535156 10.0625 C 16.527344 9.847656 16.792969 8.796875 16.011719 8.339844 C 15.410156 7.988281 14.730469 8.121094 14.074219 8.488281 C 14.308594 8.304688 14.546875 8.140625 14.792969 8.003906 C 15.917969 7.375 15.769531 6.023438 14.691406 5.878906 C 13.625 5.738281 12.804688 6.585938 12.203125 7.675781 C 12.71875 5.941406 12.007812 4.671875 11.011719 4.664062 Z M 11.011719 4.664062 "/>
<path style=" stroke:none;fill-rule:evenodd;fill:rgb(22.745098%,77.254902%,90.196078%);fill-opacity:1;" d="M 7.589844 2.753906 C 4.265625 4.132812 2.097656 7.375 2.09375 10.976562 C 2.101562 15.558594 5.582031 19.390625 10.144531 19.832031 L 10.144531 18.117188 C 6.527344 17.683594 3.804688 14.617188 3.800781 10.976562 C 3.804688 8.328125 5.257812 5.898438 7.589844 4.644531 Z M 14.410156 2.757812 L 14.410156 4.640625 C 16.742188 5.894531 18.195312 8.328125 18.199219 10.976562 C 18.191406 14.617188 15.46875 17.679688 11.855469 18.113281 L 11.855469 19.835938 C 16.421875 19.398438 19.902344 15.5625 19.90625 10.976562 C 19.902344 7.378906 17.734375 4.136719 14.410156 2.757812 Z M 14.410156 2.757812 "/>
</g>
</svg>
