
<svg xmlns="http://www.w3.org/2000/svg" xmlns:xlink="http://www.w3.org/1999/xlink" width="22px" height="22px" viewBox="0 0 22 22" version="1.1">
<g id="surface1">
<path style=" stroke:none;fill-rule:nonzero;fill:rgb(38.039216%,47.058824%,49.803922%);fill-opacity:1;" d="M 6.285156 5.058594 L 12.582031 5.058594 L 12.582031 1.121094 L 6.285156 1.121094 Z M 6.285156 5.058594 "/>
<path style=" stroke:none;fill-rule:nonzero;fill:rgb(100%,100%,100%);fill-opacity:0.654902;" d="M 7.199219 3.605469 L 8.769531 3.605469 L 8.769531 2.035156 L 7.199219 2.035156 Z M 7.199219 3.605469 "/>
<path style=" stroke:none;fill-rule:nonzero;fill:rgb(0.784314%,20%,23.921569%);fill-opacity:0.654902;" d="M 7.074219 3.484375 L 8.648438 3.484375 L 8.648438 1.910156 L 7.074219 1.910156 Z M 7.074219 3.484375 "/>
<path style=" stroke:none;fill-rule:nonzero;fill:rgb(100%,100%,100%);fill-opacity:0.654902;" d="M 10.34375 3.605469 L 11.917969 3.605469 L 11.917969 2.035156 L 10.34375 2.035156 Z M 10.34375 3.605469 "/>
<path style=" stroke:none;fill-rule:nonzero;fill:rgb(0.784314%,20%,23.921569%);fill-opacity:0.654902;" d="M 10.222656 3.484375 L 11.792969 3.484375 L 11.792969 1.910156 L 10.222656 1.910156 Z M 10.222656 3.484375 "/>
<path style="fill-rule:nonzero;fill:rgb(13.72549%,68.235294%,87.058824%);fill-opacity:1;stroke-width:9.766254;stroke-linecap:butt;stroke-linejoin:miter;stroke:rgb(13.72549%,68.235294%,87.058824%);stroke-opacity:1;stroke-miterlimit:4;" d="M 118.818182 122.545455 L 320.272727 122.545455 C 328.636364 122.545455 335.363636 129.272727 335.363636 137.636364 L 335.363636 473.818182 C 335.363636 482.090909 328.636364 488.818182 320.272727 488.818182 L 118.818182 488.818182 C 110.545455 488.818182 103.818182 482.090909 103.818182 473.818182 L 103.818182 137.636364 C 103.818182 129.272727 110.545455 122.545455 118.818182 122.545455 Z M 118.818182 122.545455 " transform="matrix(0.0429688,0,0,0.0429688,0,0)"/>
<path style=" stroke:none;fill-rule:nonzero;fill:rgb(92.156863%,94.117647%,94.117647%);fill-opacity:1;" d="M 10.742188 9.652344 L 10.742188 8.367188 L 12.03125 8.367188 L 12.03125 9.652344 Z M 10.742188 9.652344 "/>
<path style=" stroke:none;fill-rule:nonzero;fill:rgb(92.156863%,94.117647%,94.117647%);fill-opacity:1;" d="M 9.554688 14.511719 C 10.039062 14.511719 10.433594 14.90625 10.433594 15.386719 C 10.433594 15.871094 10.039062 16.265625 9.554688 16.265625 C 9.074219 16.265625 8.679688 15.871094 8.679688 15.386719 C 8.679688 14.90625 9.074219 14.511719 9.554688 14.511719 Z M 9.554688 14.511719 "/>
<path style=" stroke:none;fill-rule:nonzero;fill:rgb(92.156863%,94.117647%,94.117647%);fill-opacity:1;" d="M 7.914062 9.5 C 8.34375 9.5 8.6875 9.847656 8.6875 10.273438 C 8.6875 10.703125 8.34375 11.050781 7.914062 11.050781 C 7.484375 11.050781 7.136719 10.703125 7.136719 10.273438 C 7.136719 9.847656 7.484375 9.5 7.914062 9.5 Z M 7.914062 9.5 "/>
<path style=" stroke:none;fill-rule:evenodd;fill:rgb(92.156863%,94.117647%,94.117647%);fill-opacity:1;" d="M 8.867188 7.589844 C 8.867188 7.589844 9.558594 6.03125 9.574219 6.054688 C 9.589844 6.078125 10.261719 7.589844 10.261719 7.589844 Z M 8.867188 7.589844 "/>
<path style="fill:none;stroke-width:5.573362;stroke-linecap:butt;stroke-linejoin:miter;stroke:rgb(92.156863%,94.117647%,94.117647%);stroke-opacity:1;stroke-miterlimit:2.012602;" d="M 222.363636 327.818182 C 219.636364 302.181818 182.363636 289.454545 182.272727 274.545455 C 182.181818 264.545455 182.636364 260.090909 182.545455 247.272727 " transform="matrix(0.0429688,0,0,0.0429688,0,0)"/>
<path style="fill:none;stroke-width:5.573362;stroke-linecap:butt;stroke-linejoin:miter;stroke:rgb(92.156863%,94.117647%,94.117647%);stroke-opacity:1;stroke-miterlimit:2.012602;" d="M 222.363636 300.545455 C 222.363636 275.272727 250.090909 269.363636 263.909091 250.636364 C 266 247.454545 264.636364 218.909091 264.636364 217.090909 " transform="matrix(0.0429688,0,0,0.0429688,0,0)"/>
<path style="fill:none;stroke-width:5.573362;stroke-linecap:butt;stroke-linejoin:miter;stroke:rgb(92.156863%,94.117647%,94.117647%);stroke-opacity:1;stroke-miterlimit:2.012602;" d="M 222.272727 358.454545 L 222.272727 168.909091 " transform="matrix(0.0429688,0,0,0.0429688,0,0)"/>
<path style=" stroke:none;fill-rule:nonzero;fill:rgb(100%,100%,100%);fill-opacity:1;" d="M 20.109375 16.40625 C 20.109375 18.851562 18.171875 20.859375 15.726562 20.945312 C 13.28125 21.03125 11.210938 19.164062 11.039062 16.726562 C 10.867188 14.285156 12.660156 12.148438 15.089844 11.890625 C 17.523438 11.636719 19.722656 13.351562 20.0625 15.773438 "/>
<path style=" stroke:none;fill-rule:evenodd;fill:rgb(20.784314%,78.039216%,43.921569%);fill-opacity:1;" d="M 15.574219 13.375 C 15.554688 13.375 15.539062 13.375 15.523438 13.378906 C 15.011719 13.417969 14.722656 14.039062 14.941406 14.726562 C 14.679688 14.285156 14.335938 13.949219 13.90625 13.949219 C 13.875 13.953125 13.839844 13.953125 13.800781 13.957031 C 13.289062 14.027344 13.214844 14.671875 13.753906 14.976562 C 13.871094 15.039062 13.988281 15.117188 14.097656 15.207031 C 13.910156 15.101562 13.71875 15.035156 13.535156 15.035156 C 13.410156 15.035156 13.289062 15.066406 13.171875 15.132812 C 12.796875 15.351562 12.925781 15.855469 13.398438 15.957031 C 13.273438 15.988281 13.160156 16.050781 13.0625 16.15625 C 12.761719 16.472656 13.054688 16.933594 13.570312 16.847656 C 13.617188 16.835938 13.664062 16.832031 13.714844 16.828125 C 13.59375 16.882812 13.492188 16.96875 13.433594 17.097656 C 13.28125 17.40625 13.613281 17.6875 13.980469 17.496094 C 14.265625 17.347656 14.636719 17.28125 14.957031 17.246094 L 15.007812 17.273438 L 14.953125 17.304688 L 15.035156 17.441406 L 14.953125 17.574219 C 14.953125 17.574219 14.953125 17.578125 14.953125 17.578125 L 15.007812 17.609375 L 14.953125 17.640625 L 15.035156 17.773438 L 14.953125 17.910156 L 15.007812 17.941406 L 14.953125 17.972656 L 15.035156 18.105469 L 14.953125 18.242188 L 15.007812 18.273438 L 14.953125 18.304688 L 15.035156 18.441406 L 14.953125 18.574219 L 15.007812 18.605469 L 14.953125 18.636719 C 14.953125 18.636719 14.953125 18.636719 14.953125 18.640625 L 15.035156 18.773438 L 14.953125 18.910156 L 15.007812 18.941406 L 14.953125 18.972656 L 15.035156 19.105469 L 14.953125 19.242188 L 15.007812 19.273438 L 14.953125 19.304688 L 15.035156 19.441406 L 15.023438 19.460938 L 16.097656 19.460938 L 16.085938 19.441406 L 16.167969 19.304688 L 16.113281 19.273438 L 16.167969 19.242188 L 16.085938 19.105469 L 16.167969 18.972656 L 16.113281 18.941406 L 16.167969 18.910156 L 16.085938 18.773438 L 16.167969 18.640625 C 16.167969 18.636719 16.167969 18.636719 16.167969 18.636719 L 16.113281 18.605469 L 16.167969 18.574219 L 16.085938 18.441406 L 16.167969 18.304688 L 16.113281 18.273438 L 16.167969 18.242188 L 16.085938 18.105469 L 16.167969 17.972656 L 16.113281 17.941406 L 16.167969 17.910156 L 16.085938 17.773438 L 16.167969 17.640625 L 16.113281 17.609375 L 16.167969 17.578125 C 16.167969 17.578125 16.167969 17.574219 16.167969 17.574219 L 16.085938 17.441406 L 16.167969 17.304688 L 16.113281 17.273438 L 16.167969 17.242188 C 16.488281 17.277344 16.867188 17.347656 17.15625 17.496094 C 17.523438 17.6875 17.855469 17.40625 17.703125 17.097656 C 17.640625 16.96875 17.542969 16.882812 17.421875 16.828125 C 17.46875 16.832031 17.519531 16.835938 17.566406 16.847656 C 18.078125 16.933594 18.375 16.472656 18.074219 16.15625 C 17.976562 16.050781 17.863281 15.988281 17.734375 15.957031 C 18.210938 15.855469 18.335938 15.351562 17.964844 15.132812 C 17.675781 14.964844 17.351562 15.03125 17.039062 15.207031 C 17.148438 15.117188 17.265625 15.039062 17.382812 14.976562 C 17.921875 14.671875 17.847656 14.027344 17.332031 13.957031 C 16.824219 13.890625 16.429688 14.296875 16.144531 14.816406 C 16.390625 13.988281 16.050781 13.378906 15.574219 13.375 Z M 15.574219 13.375 "/>
<path style=" stroke:none;fill-rule:evenodd;fill:rgb(22.745098%,77.254902%,90.196078%);fill-opacity:1;" d="M 13.9375 12.464844 C 12.347656 13.121094 11.308594 14.675781 11.308594 16.394531 C 11.3125 18.585938 12.976562 20.417969 15.160156 20.628906 L 15.160156 19.808594 C 13.429688 19.601562 12.128906 18.136719 12.125 16.394531 C 12.128906 15.128906 12.824219 13.96875 13.9375 13.367188 Z M 17.199219 12.464844 L 17.199219 13.367188 C 18.3125 13.964844 19.007812 15.128906 19.007812 16.394531 C 19.007812 18.136719 17.707031 19.601562 15.976562 19.808594 L 15.976562 20.632812 C 18.160156 20.421875 19.824219 18.589844 19.824219 16.394531 C 19.824219 14.675781 18.789062 13.125 17.199219 12.464844 Z M 17.199219 12.464844 "/>
</g>
</svg>
