
<svg xmlns="http://www.w3.org/2000/svg" xmlns:xlink="http://www.w3.org/1999/xlink" width="22px" height="22px" viewBox="0 0 22 22" version="1.1">
<g id="surface1">
<path style="fill-rule:nonzero;fill:rgb(20%,27.843137%,36.078431%);fill-opacity:1;stroke-width:27.936705;stroke-linecap:butt;stroke-linejoin:miter;stroke:rgb(36.862745%,39.607843%,41.568627%);stroke-opacity:1;stroke-miterlimit:4;" d="M 83.090909 25.012327 L 428.909091 25.012327 C 459.818181 25.012327 484.818181 50.012327 484.818181 80.921418 L 484.818181 426.7396 C 484.818181 457.64869 459.818181 482.64869 428.909091 482.64869 L 83.090909 482.64869 C 52.181818 482.64869 27.181818 457.64869 27.181818 426.7396 L 27.181818 80.921418 C 27.181818 50.012327 52.181818 25.012327 83.090909 25.012327 Z M 83.090909 25.012327 " transform="matrix(0.0429688,0,0,0.0429688,0.0000000159245,0.0932203)"/>
<path style=" stroke:none;fill-rule:nonzero;fill:rgb(15.686275%,20.784314%,24.705882%);fill-opacity:1;" d="M 6.210938 2.78125 L 6.210938 6.515625 L 1.761719 6.515625 L 1.761719 6.800781 L 6.210938 6.800781 L 6.210938 8.238281 L 1.761719 8.238281 L 1.761719 8.523438 L 6.210938 8.523438 L 6.210938 10.535156 L 1.761719 10.535156 L 1.761719 10.820312 L 6.210938 10.820312 L 6.210938 12.546875 L 1.761719 12.546875 L 1.761719 12.832031 L 6.210938 12.832031 L 6.210938 14.269531 L 1.761719 14.269531 L 1.761719 14.554688 L 6.210938 14.554688 L 6.210938 18.289062 L 6.550781 18.289062 L 6.550781 14.554688 L 8.261719 14.554688 L 8.261719 18.289062 L 8.605469 18.289062 L 8.605469 14.554688 L 10.996094 14.554688 L 10.996094 18.289062 L 11.339844 18.289062 L 11.339844 14.554688 L 13.390625 14.554688 L 13.390625 18.289062 L 13.734375 18.289062 L 13.734375 14.554688 L 15.445312 14.554688 L 15.445312 18.289062 L 15.785156 18.289062 L 15.785156 14.554688 L 20.230469 14.554688 L 20.230469 14.269531 L 15.785156 14.269531 L 15.785156 12.832031 L 20.230469 12.832031 L 20.230469 12.546875 L 15.785156 12.546875 L 15.785156 10.820312 L 20.230469 10.820312 L 20.230469 10.535156 L 15.785156 10.535156 L 15.785156 8.523438 L 20.230469 8.523438 L 20.230469 8.238281 L 15.785156 8.238281 L 15.785156 6.800781 L 20.230469 6.800781 L 20.230469 6.515625 L 15.785156 6.515625 L 15.785156 2.78125 L 15.445312 2.78125 L 15.445312 6.515625 L 13.734375 6.515625 L 13.734375 2.78125 L 13.390625 2.78125 L 13.390625 6.515625 L 11.339844 6.515625 L 11.339844 2.78125 L 10.996094 2.78125 L 10.996094 6.515625 L 8.605469 6.515625 L 8.605469 2.78125 L 8.261719 2.78125 L 8.261719 6.515625 L 6.550781 6.515625 L 6.550781 2.78125 Z M 6.550781 6.800781 L 8.261719 6.800781 L 8.261719 8.238281 L 6.550781 8.238281 Z M 8.605469 6.800781 L 10.996094 6.800781 L 10.996094 8.238281 L 8.605469 8.238281 Z M 11.339844 6.800781 L 13.390625 6.800781 L 13.390625 8.238281 L 11.339844 8.238281 Z M 13.734375 6.800781 L 15.445312 6.800781 L 15.445312 8.238281 L 13.734375 8.238281 Z M 6.550781 8.523438 L 8.261719 8.523438 L 8.261719 10.535156 L 6.550781 10.535156 Z M 8.605469 8.523438 L 10.996094 8.523438 L 10.996094 10.535156 L 8.605469 10.535156 Z M 11.339844 8.523438 L 13.390625 8.523438 L 13.390625 10.535156 L 11.339844 10.535156 Z M 13.734375 8.523438 L 15.445312 8.523438 L 15.445312 10.535156 L 13.734375 10.535156 Z M 6.550781 10.820312 L 8.261719 10.820312 L 8.261719 12.546875 L 6.550781 12.546875 Z M 8.605469 10.820312 L 10.996094 10.820312 L 10.996094 12.546875 L 8.605469 12.546875 Z M 11.339844 10.820312 L 13.390625 10.820312 L 13.390625 12.546875 L 11.339844 12.546875 Z M 13.734375 10.820312 L 15.445312 10.820312 L 15.445312 12.546875 L 13.734375 12.546875 Z M 6.550781 12.832031 L 8.261719 12.832031 L 8.261719 14.269531 L 6.550781 14.269531 Z M 8.605469 12.832031 L 10.996094 12.832031 L 10.996094 14.269531 L 8.605469 14.269531 Z M 11.339844 12.832031 L 13.390625 12.832031 L 13.390625 14.269531 L 11.339844 14.269531 Z M 13.734375 12.832031 L 15.445312 12.832031 L 15.445312 14.269531 L 13.734375 14.269531 Z M 13.734375 12.832031 "/>
<path style=" stroke:none;fill-rule:nonzero;fill:rgb(97.254902%,87.058824%,40.784314%);fill-opacity:1;" d="M 17.496094 7.335938 L 15.101562 8.554688 L 13.050781 8.25 L 11.339844 9.46875 L 9.628906 9.164062 L 8.605469 9.46875 L 7.917969 9.769531 L 6.894531 9.769531 L 6.550781 10.074219 L 4.839844 9.769531 L 3.472656 10.378906 L 3.132812 10.074219 L 1.761719 12.914062 L 1.761719 18.289062 L 20.230469 18.289062 L 20.230469 7.640625 L 18.863281 7.640625 Z M 17.496094 7.335938 "/>
<path style=" stroke:none;fill-rule:nonzero;fill:rgb(9.803922%,63.137255%,52.941176%);fill-opacity:1;" d="M 14.074219 10.988281 L 12.707031 11.292969 L 11.683594 12.203125 L 9.289062 12.203125 L 8.261719 12.507812 L 7.578125 12.507812 L 6.210938 14.335938 L 5.867188 14.03125 L 4.5 16.464844 L 2.789062 15.855469 L 1.761719 16.539062 L 1.761719 18.289062 L 20.230469 18.289062 L 20.230469 10.988281 Z M 14.074219 10.988281 "/>
<path style=" stroke:none;fill-rule:nonzero;fill:rgb(30.980392%,72.156863%,76.078431%);fill-opacity:1;" d="M 16.46875 10.074219 L 14.074219 11.597656 L 13.050781 12.507812 L 11.683594 12.8125 L 10.3125 12.507812 L 8.945312 12.507812 L 6.550781 15.246094 L 5.867188 14.941406 L 4.5 16.464844 L 3.816406 16.464844 L 3.472656 16.769531 L 2.789062 16.464844 L 1.761719 17.148438 L 1.761719 18.289062 L 20.230469 18.289062 L 20.230469 10.378906 L 19.890625 10.378906 L 19.207031 10.683594 L 17.839844 10.988281 Z M 16.46875 10.074219 "/>
</g>
</svg>
