
<svg xmlns="http://www.w3.org/2000/svg" xmlns:xlink="http://www.w3.org/1999/xlink" width="22px" height="22px" viewBox="0 0 22 22" version="1.1">
<g id="surface1">
<path style="fill-rule:nonzero;fill:rgb(92.156863%,92.156863%,92.156863%);fill-opacity:1;stroke-width:27.442497;stroke-linecap:butt;stroke-linejoin:miter;stroke:rgb(0%,65.882353%,83.137255%);stroke-opacity:1;stroke-miterlimit:4;" d="M 86.090909 31.272727 L 425.909091 31.272727 C 456.181818 31.272727 480.727273 55.818182 480.727273 86.090909 L 480.727273 425.909091 C 480.727273 456.181818 456.181818 480.727273 425.909091 480.727273 L 86.090909 480.727273 C 55.818182 480.727273 31.272727 456.181818 31.272727 425.909091 L 31.272727 86.090909 C 31.272727 55.818182 55.818182 31.272727 86.090909 31.272727 Z M 86.090909 31.272727 " transform="matrix(0.0429688,0,0,0.0429688,0,0)"/>
<path style=" stroke:none;fill-rule:evenodd;fill:rgb(49.803922%,49.803922%,49.803922%);fill-opacity:1;" d="M 9.753906 17 L 7.730469 18.328125 L 14.304688 18.328125 L 12.28125 17 Z M 9.753906 17 "/>
<path style=" stroke:none;fill-rule:evenodd;fill:rgb(49.803922%,49.803922%,49.803922%);fill-opacity:1;" d="M 9.753906 16.597656 L 7.730469 17.925781 L 14.304688 17.925781 L 12.28125 16.597656 Z M 9.753906 16.597656 "/>
<path style=" stroke:none;fill-rule:nonzero;fill:rgb(29.803922%,29.803922%,29.803922%);fill-opacity:1;" d="M 9.613281 14.164062 L 12.425781 14.164062 L 12.425781 17.292969 L 9.613281 17.292969 Z M 9.613281 14.164062 "/>
<path style=" stroke:none;fill-rule:nonzero;fill:rgb(49.803922%,49.803922%,49.803922%);fill-opacity:1;" d="M 4.039062 3.671875 L 18 3.671875 C 18.488281 3.671875 18.886719 4.050781 18.886719 4.519531 L 18.886719 14.296875 C 18.886719 14.761719 18.488281 15.140625 18 15.140625 L 4.039062 15.140625 C 3.550781 15.140625 3.15625 14.761719 3.15625 14.296875 L 3.15625 4.519531 C 3.15625 4.050781 3.550781 3.671875 4.039062 3.671875 Z M 4.039062 3.671875 "/>
<path style=" stroke:none;fill-rule:nonzero;fill:rgb(0%,65.882353%,83.137255%);fill-opacity:1;" d="M 4.628906 4.746094 L 17.414062 4.746094 L 17.414062 14.066406 L 4.628906 14.066406 Z M 4.628906 4.746094 "/>
<path style=" stroke:none;fill-rule:evenodd;fill:rgb(0%,0%,0%);fill-opacity:1;" d="M 7.730469 17.925781 L 7.730469 18.328125 L 14.308594 18.328125 L 14.308594 17.925781 Z M 7.730469 17.925781 "/>
<path style=" stroke:none;fill-rule:nonzero;fill:rgb(100%,100%,100%);fill-opacity:1;" d="M 12.402344 12.394531 L 11.675781 12.394531 L 11.675781 13.164062 L 12.402344 13.164062 Z M 11.316406 12.394531 L 10.589844 12.394531 L 10.589844 13.164062 L 11.316406 13.164062 Z M 10.230469 12.394531 L 9.503906 12.394531 L 9.503906 13.164062 L 10.230469 13.164062 Z M 10.230469 12.394531 "/>
<path style=" stroke:none;fill-rule:evenodd;fill:rgb(20%,20%,20%);fill-opacity:1;" d="M 4.589844 4.769531 L 4.589844 5.5 L 17.378906 5.5 L 17.378906 4.769531 Z M 4.589844 4.769531 "/>
<path style=" stroke:none;fill-rule:nonzero;fill:rgb(100%,100%,100%);fill-opacity:1;" d="M 7.875 6.195312 L 5.203125 7.855469 L 7.867188 9.417969 Z M 7.875 7.109375 L 7.875 8.496094 L 13.761719 8.496094 L 13.761719 7.109375 Z M 7.875 7.109375 "/>
<path style=" stroke:none;fill-rule:nonzero;fill:rgb(100%,100%,100%);fill-opacity:1;" d="M 14.007812 9.175781 L 16.679688 10.832031 L 14.015625 12.394531 Z M 14.007812 10.089844 L 14.007812 11.472656 L 8.121094 11.472656 L 8.121094 10.089844 Z M 14.007812 10.089844 "/>
</g>
</svg>
