
<svg xmlns="http://www.w3.org/2000/svg" xmlns:xlink="http://www.w3.org/1999/xlink" width="22px" height="22px" viewBox="0 0 22 22" version="1.1">
<g id="surface1">
<path style="fill-rule:nonzero;fill:rgb(20%,27.843137%,36.078431%);fill-opacity:1;stroke-width:27.936705;stroke-linecap:butt;stroke-linejoin:miter;stroke:rgb(20%,27.843137%,36.078431%);stroke-opacity:1;stroke-miterlimit:4;" d="M 83.090909 27.181818 L 428.909091 27.181818 C 459.818182 27.181818 484.818182 52.181818 484.818182 83.090909 L 484.818182 428.909091 C 484.818182 459.818182 459.818182 484.818182 428.909091 484.818182 L 83.090909 484.818182 C 52.181818 484.818182 27.181818 459.818182 27.181818 428.909091 L 27.181818 83.090909 C 27.181818 52.181818 52.181818 27.181818 83.090909 27.181818 Z M 83.090909 27.181818 " transform="matrix(0.0429688,0,0,0.0429688,0,0)"/>
<path style=" stroke:none;fill-rule:nonzero;fill:rgb(20%,59.215686%,85.098039%);fill-opacity:1;" d="M 3.851562 1.539062 C 2.574219 1.539062 1.539062 2.574219 1.539062 3.851562 L 1.539062 18.148438 C 1.539062 18.230469 1.542969 18.308594 1.554688 18.386719 C 1.5625 18.464844 1.574219 18.539062 1.585938 18.613281 C 1.601562 18.691406 1.621094 18.765625 1.644531 18.835938 C 1.757812 19.199219 1.957031 19.519531 2.21875 19.78125 C 2.269531 19.835938 2.324219 19.882812 2.382812 19.929688 C 2.4375 19.980469 2.496094 20.023438 2.558594 20.066406 C 2.597656 20.089844 2.636719 20.113281 2.679688 20.136719 C 2.765625 20.1875 2.855469 20.238281 2.953125 20.277344 C 3.019531 20.308594 3.089844 20.332031 3.164062 20.355469 C 3.234375 20.378906 3.308594 20.398438 3.386719 20.414062 C 3.460938 20.425781 3.535156 20.4375 3.613281 20.445312 C 3.691406 20.453125 3.769531 20.460938 3.851562 20.460938 L 18.148438 20.460938 C 18.230469 20.460938 18.308594 20.453125 18.386719 20.445312 C 18.464844 20.4375 18.539062 20.425781 18.613281 20.414062 C 18.691406 20.398438 18.765625 20.378906 18.835938 20.355469 C 19.371094 20.1875 19.816406 19.832031 20.109375 19.367188 C 20.132812 19.328125 20.160156 19.289062 20.183594 19.246094 C 20.222656 19.171875 20.257812 19.097656 20.289062 19.019531 C 20.296875 18.992188 20.308594 18.96875 20.316406 18.941406 C 20.335938 18.886719 20.355469 18.828125 20.371094 18.769531 C 20.378906 18.742188 20.386719 18.710938 20.394531 18.679688 C 20.410156 18.621094 20.421875 18.5625 20.429688 18.5 C 20.433594 18.472656 20.4375 18.445312 20.441406 18.417969 C 20.453125 18.332031 20.457031 18.242188 20.457031 18.152344 C 20.457031 18.152344 20.460938 18.152344 20.460938 18.148438 L 20.460938 8.09375 L 13.90625 1.539062 Z M 3.851562 1.539062 "/>
<path style=" stroke:none;fill-rule:nonzero;fill:rgb(100%,100%,100%);fill-opacity:1;" d="M 20.460938 8.09375 L 13.90625 1.539062 L 13.90625 5.78125 C 13.90625 7.058594 14.941406 8.09375 16.21875 8.09375 Z M 20.460938 8.09375 "/>
</g>
</svg>
