
<svg xmlns="http://www.w3.org/2000/svg" xmlns:xlink="http://www.w3.org/1999/xlink" width="22px" height="22px" viewBox="0 0 22 22" version="1.1">
<g id="surface1">
<path style="fill-rule:nonzero;fill:rgb(74.117647%,76.078431%,78.039216%);fill-opacity:1;stroke-width:20.298223;stroke-linecap:butt;stroke-linejoin:miter;stroke:rgb(29.019608%,68.235294%,90.196078%);stroke-opacity:1;stroke-miterlimit:4;" d="M 117.34532 102.771366 L 368.620777 102.771366 C 391.044133 102.771366 409.250559 120.961956 409.250559 143.392457 L 409.250559 394.641424 C 409.250559 417.071925 391.044133 435.262514 368.620777 435.262514 L 117.34532 435.262514 C 94.921964 435.262514 76.715537 417.071925 76.715537 394.641424 L 76.715537 143.392457 C 76.715537 120.961956 94.921964 102.771366 117.34532 102.771366 Z M 117.34532 102.771366 " transform="matrix(0.0583585,0,0,0.0571209,-3.18013,-4.366485)"/>
<path style=" stroke:none;fill-rule:nonzero;fill:rgb(15.686275%,49.803922%,72.156863%);fill-opacity:1;" d="M 11.417969 2.96875 L 11.417969 10.589844 L 19.207031 10.589844 L 19.207031 4.828125 C 19.207031 3.800781 18.355469 2.96875 17.304688 2.96875 Z M 11.417969 2.96875 "/>
<path style=" stroke:none;fill-rule:nonzero;fill:rgb(15.686275%,49.803922%,72.156863%);fill-opacity:1;" d="M 10.582031 19.03125 L 10.582031 11.410156 L 2.792969 11.410156 L 2.792969 17.171875 C 2.792969 18.199219 3.644531 19.03125 4.695312 19.03125 Z M 10.582031 19.03125 "/>
<path style=" stroke:none;fill-rule:nonzero;fill:rgb(54.901961%,25.882353%,67.058824%);fill-opacity:1;" d="M 2.792969 10.589844 L 10.582031 10.589844 L 10.582031 2.96875 L 4.695312 2.96875 C 3.644531 2.96875 2.792969 3.800781 2.792969 4.828125 Z M 2.792969 10.589844 "/>
<path style=" stroke:none;fill-rule:nonzero;fill:rgb(54.901961%,25.882353%,67.058824%);fill-opacity:1;" d="M 19.207031 11.410156 L 11.417969 11.410156 L 11.417969 19.03125 L 17.304688 19.03125 C 18.355469 19.03125 19.207031 18.199219 19.207031 17.171875 Z M 19.207031 11.410156 "/>
</g>
</svg>
