
<svg xmlns="http://www.w3.org/2000/svg" xmlns:xlink="http://www.w3.org/1999/xlink" width="22px" height="22px" viewBox="0 0 22 22" version="1.1">
<defs>
<radialGradient id="radial0" gradientUnits="userSpaceOnUse" cx="-495.98746" cy="-87.834587" fx="-495.98746" fy="-87.834587" r="88.03125" gradientTransform="matrix(0.0579691,0,0,0.059131,38.153207,11.439034)">
<stop offset="0" style="stop-color:rgb(23.921569%,33.72549%,43.137255%);stop-opacity:1;"/>
<stop offset="1" style="stop-color:rgb(23.921569%,33.72549%,43.137255%);stop-opacity:0;"/>
</radialGradient>
<linearGradient id="linear0" gradientUnits="userSpaceOnUse" x1="-516.70276" y1="20.883038" x2="-518.81342" y2="29.600176" gradientTransform="matrix(0.0579691,0,0,0.0579691,38.153207,10.31004)">
<stop offset="0" style="stop-color:rgb(45.490196%,40.784314%,42.352941%);stop-opacity:1;"/>
<stop offset="1" style="stop-color:rgb(89.411765%,88.235294%,88.627451%);stop-opacity:1;"/>
</linearGradient>
<linearGradient id="linear1" gradientUnits="userSpaceOnUse" x1="-130.89725" y1="16.472939" x2="-128.05614" y2="38.053318" gradientTransform="matrix(0.0579691,0,0,0.0579691,23.660939,10.31004)">
<stop offset="0" style="stop-color:rgb(45.490196%,40.784314%,42.352941%);stop-opacity:1;"/>
<stop offset="1" style="stop-color:rgb(89.411765%,88.235294%,88.627451%);stop-opacity:1;"/>
</linearGradient>
<radialGradient id="radial1" gradientUnits="userSpaceOnUse" cx="-500.14664" cy="-15.092947" fx="-500.14664" fy="-15.092947" r="26.649689" gradientTransform="matrix(0.0579691,0,0,0.0193748,38.153207,9.727539)">
<stop offset="0" style="stop-color:rgb(98.039216%,82.745098%,29.411765%);stop-opacity:1;"/>
<stop offset="1" style="stop-color:rgb(98.039216%,73.72549%,21.568627%);stop-opacity:1;"/>
</radialGradient>
<radialGradient id="radial2" gradientUnits="userSpaceOnUse" cx="-400.11536" cy="-16.508318" fx="-400.11536" fy="-16.508318" r="15.88463" gradientTransform="matrix(0.0579691,0,0,0.031026,38.153207,9.865255)">
<stop offset="0" style="stop-color:rgb(98.039216%,82.745098%,29.411765%);stop-opacity:1;"/>
<stop offset="1" style="stop-color:rgb(98.039216%,73.72549%,21.568627%);stop-opacity:1;"/>
</radialGradient>
</defs>
<g id="surface2">
<path style="fill-rule:nonzero;fill:rgb(68.235294%,57.647059%,50.588235%);fill-opacity:1;stroke-width:27.565153;stroke-linecap:butt;stroke-linejoin:miter;stroke:rgb(20%,27.843137%,36.078431%);stroke-opacity:1;stroke-miterlimit:4;" d="M 85.363636 30.181818 L 426.636364 30.181818 C 457.090909 30.181818 481.818182 54.909091 481.818182 85.363636 L 481.818182 426.636364 C 481.818182 457.090909 457.090909 481.818182 426.636364 481.818182 L 85.363636 481.818182 C 54.909091 481.818182 30.181818 457.090909 30.181818 426.636364 L 30.181818 85.363636 C 30.181818 54.909091 54.909091 30.181818 85.363636 30.181818 Z M 85.363636 30.181818 " transform="matrix(0.0429688,0,0,0.0429688,0,0)"/>
<path style=" stroke:none;fill-rule:nonzero;fill:rgb(63.137255%,50.980392%,43.137255%);fill-opacity:1;" d="M 3.863281 1.953125 L 10.851562 11.886719 L 7.914062 1.953125 Z M 10.851562 11.886719 L 14.066406 1.953125 L 10.738281 1.953125 Z M 10.851562 11.886719 L 20.164062 6.859375 L 20.164062 3.214844 C 20.164062 2.75 19.914062 2.347656 19.539062 2.128906 Z M 10.851562 11.886719 L 20.164062 13.621094 L 20.164062 9.160156 Z M 10.851562 11.886719 L 14.871094 20.140625 L 18.894531 20.140625 C 19.441406 20.140625 19.902344 19.800781 20.082031 19.320312 Z M 10.851562 11.886719 L 8.160156 20.140625 L 11.277344 20.140625 Z M 10.851562 11.886719 L 2.046875 19.574219 C 2.273438 19.914062 2.664062 20.140625 3.105469 20.140625 L 5.75 20.140625 Z M 10.851562 11.886719 L 1.835938 12.0625 L 1.835938 16.84375 Z M 10.851562 11.886719 L 1.835938 6.917969 L 1.835938 10.277344 Z M 10.851562 11.886719 "/>
<path style=" stroke:none;fill-rule:nonzero;fill:rgb(0%,0%,0%);fill-opacity:1;" d="M 13.71875 17.054688 C 12.601562 16.957031 12.082031 16.828125 11.890625 16.597656 C 11.84375 16.539062 11.703125 16.511719 11.464844 16.511719 C 10.960938 16.511719 10.464844 16.382812 10.277344 16.199219 C 10.160156 16.089844 10.058594 16.050781 9.886719 16.050781 C 9.527344 16.050781 8.28125 15.875 8.207031 15.8125 C 8.164062 15.777344 8.117188 15.785156 8.074219 15.839844 C 7.917969 16.027344 6.96875 16.117188 6.429688 15.992188 C 6.292969 15.960938 6.089844 15.921875 5.972656 15.902344 C 5.710938 15.863281 5.636719 15.679688 5.808594 15.496094 C 5.984375 15.308594 5.953125 15.15625 5.722656 15.070312 C 5.519531 15 4.941406 14.597656 4.625 14.3125 C 4.386719 14.097656 4.089844 13.617188 3.980469 13.257812 C 3.925781 13.085938 3.851562 12.855469 3.816406 12.746094 C 3.777344 12.628906 3.753906 12.246094 3.761719 11.863281 C 3.773438 11.078125 3.910156 10.539062 4.203125 10.097656 C 4.464844 9.699219 5.300781 8.878906 6.269531 8.070312 C 6.808594 7.617188 7.257812 7.183594 7.515625 6.863281 C 8.585938 5.535156 8.808594 5.296875 9.160156 5.054688 C 9.714844 4.679688 10.6875 4.421875 11.546875 4.433594 C 12.199219 4.4375 12.742188 4.601562 13.269531 4.957031 C 13.453125 5.082031 13.675781 5.214844 13.769531 5.253906 C 14.078125 5.390625 14.328125 5.628906 14.761719 6.199219 C 15.242188 6.832031 15.523438 7.351562 15.714844 7.960938 C 15.902344 8.566406 16.261719 9.261719 16.535156 9.554688 C 16.753906 9.796875 17.355469 10.648438 17.515625 10.949219 C 17.554688 11.019531 17.605469 11.210938 17.632812 11.375 C 17.65625 11.539062 17.71875 11.882812 17.769531 12.140625 C 17.972656 13.148438 17.796875 14.144531 17.335938 14.605469 C 17.210938 14.730469 17.109375 14.84375 17.109375 14.859375 C 17.109375 14.875 17.261719 14.890625 17.445312 14.890625 C 18.007812 14.890625 18.644531 15.28125 18.539062 15.558594 C 18.480469 15.710938 18.003906 15.878906 17.5625 15.90625 C 17.335938 15.917969 17.136719 15.945312 17.121094 15.960938 C 17.105469 15.976562 17.128906 15.992188 17.171875 15.992188 C 17.304688 15.996094 17.53125 16.214844 17.496094 16.308594 C 17.414062 16.519531 16.398438 16.824219 15.433594 16.917969 C 14.269531 17.035156 13.867188 17.066406 13.71875 17.054688 Z M 13.71875 17.054688 "/>
<path style=" stroke:none;fill-rule:nonzero;fill:rgb(22.745098%,31.764706%,40.784314%);fill-opacity:1;" d="M 10.316406 4.863281 C 9.566406 5.140625 8.730469 5.511719 8.335938 6.332031 C 8.007812 7.015625 7.320312 7.550781 6.75 8.015625 C 6.042969 8.40625 5.222656 9.375 4.742188 9.984375 C 4.28125 10.683594 4.242188 10.929688 4.042969 11.773438 C 3.851562 12.582031 4.34375 13.453125 4.714844 14.105469 C 5.171875 14.605469 6.015625 14.878906 6.351562 15.3125 C 5.9375 15.3125 5.644531 15.839844 6.21875 15.871094 C 6.769531 15.945312 7.699219 16.113281 8.007812 15.648438 C 7.535156 15.097656 8.347656 15.824219 8.644531 15.753906 C 9.371094 16.039062 10.101562 15.691406 10.84375 15.761719 C 11.148438 15.738281 11.851562 15.910156 11.171875 15.839844 C 10.816406 15.667969 10.121094 16.054688 10.730469 16.28125 C 11.515625 16.160156 12.136719 16.535156 12.796875 16.832031 C 13.792969 17.007812 14.46875 16.867188 15.414062 16.820312 C 15.886719 16.578125 16.632812 16.6875 16.972656 16.253906 C 16.246094 15.894531 15.566406 15.480469 14.761719 15.277344 C 14.128906 15.089844 13.140625 16.042969 13.019531 16.042969 C 13.667969 15.539062 14.351562 14.808594 15.257812 15.171875 C 16.039062 15.378906 16.691406 15.804688 17.5625 15.789062 C 18.386719 15.769531 18.425781 14.871094 17.613281 14.90625 C 17.273438 14.820312 16.402344 15.0625 16.398438 15.03125 C 17.179688 14.796875 17.417969 13.949219 17.621094 13.320312 C 17.609375 12.519531 17.589844 11.695312 17.246094 10.964844 C 16.734375 10.386719 16.382812 9.601562 15.839844 9.042969 C 15.535156 8.417969 15.300781 7.757812 14.925781 7.152344 C 14.59375 6.648438 14.316406 5.882812 13.742188 5.644531 C 13.222656 5.265625 12.679688 4.863281 12.046875 4.761719 C 11.464844 4.695312 10.867188 4.660156 10.316406 4.863281 Z M 10.316406 4.863281 "/>
<path style=" stroke:none;fill-rule:nonzero;fill:rgb(22.745098%,31.764706%,40.784314%);fill-opacity:1;" d="M 11.171875 4.710938 C 10.878906 4.71875 10.589844 4.761719 10.316406 4.863281 C 9.566406 5.140625 8.730469 5.511719 8.335938 6.332031 C 8.007812 7.015625 7.320312 7.550781 6.75 8.015625 C 6.042969 8.40625 5.222656 9.375 4.746094 9.984375 C 4.371094 10.546875 4.269531 10.824219 4.144531 11.351562 C 4.058594 11.859375 4.050781 12.367188 4.234375 12.878906 C 4.707031 13.871094 5.804688 14.519531 6.910156 14.464844 C 8.328125 14.769531 9.75 14.355469 11.164062 14.253906 C 12.324219 14.289062 13.59375 14.773438 14.636719 14.015625 C 15.40625 13.285156 15.59375 12.148438 15.757812 11.148438 C 16 9.914062 13.773438 9.800781 14.769531 8.519531 C 14.933594 8.128906 15.007812 7.707031 15 7.277344 C 14.976562 7.234375 14.949219 7.191406 14.925781 7.152344 C 14.59375 6.648438 14.316406 5.882812 13.746094 5.644531 C 13.222656 5.265625 12.679688 4.863281 12.046875 4.761719 C 11.757812 4.726562 11.460938 4.703125 11.171875 4.710938 Z M 17.980469 14.972656 C 17.804688 14.992188 17.632812 15.042969 17.460938 15.066406 C 17.195312 15.105469 17.164062 15.46875 17.402344 15.574219 C 17.492188 15.636719 17.574219 15.710938 17.660156 15.777344 C 18.246094 15.710938 18.363281 15.164062 17.980469 14.972656 Z M 6.542969 15.390625 C 6.363281 15.390625 6.203125 15.402344 6.144531 15.421875 C 6.082031 15.441406 6.011719 15.484375 5.941406 15.527344 C 5.941406 15.53125 5.9375 15.53125 5.9375 15.53125 C 5.847656 15.679688 5.894531 15.851562 6.21875 15.871094 C 6.621094 15.921875 7.226562 16.03125 7.644531 15.902344 C 7.582031 15.828125 7.496094 15.765625 7.472656 15.71875 C 7.421875 15.617188 7.359375 15.570312 7.277344 15.492188 C 7.210938 15.421875 6.847656 15.390625 6.542969 15.390625 Z M 14.660156 15.5625 C 14.269531 15.558594 13.886719 15.617188 13.507812 15.71875 C 13.257812 15.890625 13.070312 16.042969 13.019531 16.042969 C 13.136719 15.949219 13.257812 15.855469 13.375 15.753906 C 13.183594 15.8125 12.992188 15.878906 12.800781 15.953125 C 12.160156 15.976562 11.355469 15.5625 10.71875 15.75 C 10.757812 15.753906 10.800781 15.757812 10.84375 15.761719 C 11.148438 15.738281 11.851562 15.910156 11.171875 15.839844 C 10.816406 15.671875 10.121094 16.054688 10.730469 16.28125 C 11.515625 16.160156 12.136719 16.535156 12.796875 16.832031 C 13.792969 17.007812 14.472656 16.867188 15.414062 16.820312 C 15.886719 16.582031 16.632812 16.6875 16.972656 16.25 C 16.621094 16.078125 16.28125 15.894531 15.933594 15.726562 C 15.714844 15.679688 15.496094 15.652344 15.300781 15.621094 C 15.085938 15.582031 14.871094 15.5625 14.660156 15.5625 Z M 14.660156 15.5625 "/>
<path style=" stroke:none;fill-rule:nonzero;fill:rgb(22.745098%,31.764706%,40.784314%);fill-opacity:1;" d="M 11.171875 4.710938 C 10.878906 4.71875 10.589844 4.761719 10.316406 4.863281 C 9.566406 5.140625 8.730469 5.511719 8.335938 6.332031 C 8.007812 7.015625 7.320312 7.550781 6.75 8.015625 C 6.042969 8.40625 5.222656 9.375 4.746094 9.984375 C 4.28125 10.679688 4.238281 10.933594 4.042969 11.773438 C 4.019531 11.875 4.007812 11.976562 4.003906 12.078125 C 4.003906 12.082031 4 12.082031 4.003906 12.085938 C 4.0625 12.40625 4.1875 12.707031 4.429688 12.960938 C 5.367188 14.28125 7.003906 14.539062 8.507812 14.367188 C 10.179688 13.796875 11.730469 14.03125 13.382812 13.949219 C 14.828125 13.882812 15.765625 11.929688 15.140625 10.699219 C 14.144531 10.109375 13.976562 8.8125 14.574219 7.894531 C 14.519531 7.480469 14.558594 7.007812 14.574219 6.542969 C 14.355469 6.164062 14.109375 5.796875 13.746094 5.644531 C 13.222656 5.265625 12.679688 4.863281 12.046875 4.761719 C 11.757812 4.726562 11.460938 4.703125 11.171875 4.710938 Z M 18.0625 15.023438 C 17.519531 15.058594 17.449219 15.488281 17.625 15.785156 C 18.195312 15.742188 18.347656 15.253906 18.0625 15.023438 Z M 6.738281 15.460938 C 6.421875 15.460938 6.128906 15.613281 5.964844 15.796875 C 6.015625 15.835938 6.097656 15.863281 6.21875 15.871094 C 6.578125 15.917969 7.09375 16.003906 7.5 15.933594 C 7.503906 15.769531 7.363281 15.605469 7 15.496094 C 6.914062 15.472656 6.824219 15.460938 6.738281 15.460938 Z M 14.964844 15.609375 C 14.316406 15.742188 13.722656 15.890625 13.136719 15.976562 C 13.082031 16.015625 13.039062 16.042969 13.019531 16.042969 C 13.042969 16.023438 13.066406 16.003906 13.089844 15.984375 C 12.4375 16.078125 11.789062 16.085938 11.078125 15.902344 C 10.863281 16.027344 10.734375 16.148438 10.675781 16.261719 C 10.695312 16.269531 10.710938 16.277344 10.730469 16.28125 C 11.515625 16.160156 12.136719 16.535156 12.796875 16.832031 C 13.792969 17.007812 14.472656 16.867188 15.414062 16.820312 C 15.800781 16.625 16.371094 16.660156 16.753906 16.441406 C 16.433594 15.921875 15.488281 15.820312 14.964844 15.609375 Z M 14.964844 15.609375 "/>
<path style=" stroke:none;fill-rule:nonzero;fill:rgb(22.745098%,30.980392%,38.823529%);fill-opacity:1;" d="M 11.171875 4.710938 C 10.878906 4.71875 10.589844 4.761719 10.316406 4.863281 C 9.566406 5.140625 8.730469 5.511719 8.335938 6.332031 C 8.007812 7.015625 7.320312 7.550781 6.75 8.015625 C 6.042969 8.40625 5.222656 9.375 4.746094 9.984375 C 4.300781 10.652344 4.242188 10.917969 4.066406 11.679688 C 4.097656 12.179688 4.261719 12.660156 4.613281 13.027344 C 5.191406 13.53125 5.925781 13.929688 6.679688 13.980469 C 7.582031 14.042969 8.488281 13.773438 9.386719 13.769531 C 10.265625 13.734375 11.109375 13.339844 11.996094 13.480469 C 12.875 13.492188 13.59375 13.488281 14.3125 12.960938 C 14.882812 12.539062 14.898438 11.671875 14.992188 11.007812 C 14.554688 10.351562 13.773438 9.539062 13.992188 8.71875 C 14.445312 7.921875 14.296875 6.878906 14.226562 6.023438 C 14.085938 5.859375 13.933594 5.722656 13.746094 5.644531 C 13.222656 5.265625 12.679688 4.863281 12.046875 4.761719 C 11.757812 4.726562 11.460938 4.703125 11.171875 4.710938 Z M 17.855469 15.125 C 17.648438 15.363281 17.777344 15.550781 18 15.660156 C 18.175781 15.539062 18.238281 15.347656 18.183594 15.191406 C 18.074219 15.171875 17.964844 15.152344 17.855469 15.125 Z M 6.476562 15.511719 C 6.261719 15.523438 6.054688 15.613281 5.910156 15.730469 C 5.945312 15.804688 6.042969 15.859375 6.21875 15.871094 C 6.554688 15.914062 7.035156 15.996094 7.429688 15.945312 C 7.410156 15.855469 7.347656 15.753906 7.222656 15.636719 C 7.097656 15.566406 6.945312 15.5625 6.804688 15.570312 C 6.699219 15.523438 6.589844 15.507812 6.476562 15.511719 Z M 15.007812 15.824219 C 14.113281 15.902344 13.722656 16.207031 12.832031 16.269531 C 12.074219 16.1875 11.339844 15.964844 10.574219 16.121094 C 10.554688 16.128906 10.535156 16.140625 10.519531 16.148438 C 10.554688 16.195312 10.621094 16.242188 10.730469 16.28125 C 11.515625 16.160156 12.136719 16.535156 12.796875 16.832031 C 13.792969 17.007812 14.472656 16.867188 15.414062 16.820312 C 15.804688 16.621094 16.382812 16.660156 16.761719 16.433594 C 16.488281 16.050781 15.359375 15.898438 15.007812 15.824219 Z M 15.007812 15.824219 "/>
<path style=" stroke:none;fill-rule:nonzero;fill:url(#radial0);" d="M 11.171875 4.710938 C 10.878906 4.71875 10.589844 4.761719 10.316406 4.863281 C 9.566406 5.140625 8.730469 5.511719 8.335938 6.332031 C 8.007812 7.015625 7.320312 7.550781 6.75 8.015625 C 6.152344 8.347656 5.472656 9.089844 4.988281 9.679688 C 4.988281 9.761719 5 9.84375 5.027344 9.921875 C 5.382812 10.015625 5.867188 9.847656 6.136719 9.660156 C 6.621094 9.453125 7.867188 8.128906 8.347656 8.042969 C 8.558594 8.699219 9.605469 8.777344 10.992188 8 C 11.425781 7.765625 12.554688 6.902344 12.199219 5.46875 C 12.328125 5.609375 13.332031 5.917969 14.101562 6.546875 C 14.40625 6.792969 14.765625 7.378906 15.195312 7.636719 C 15.109375 7.472656 15.023438 7.3125 14.925781 7.152344 C 14.59375 6.648438 14.316406 5.882812 13.746094 5.644531 C 13.222656 5.265625 12.679688 4.863281 12.046875 4.761719 C 11.757812 4.726562 11.460938 4.703125 11.171875 4.710938 Z M 11.171875 4.710938 "/>
<path style=" stroke:none;fill-rule:nonzero;fill:rgb(0%,0%,0%);fill-opacity:1;" d="M 11.246094 11.492188 C 10.15625 11.613281 8.945312 11.316406 7.886719 11.121094 C 7.195312 10.992188 6.363281 10.839844 6.203125 11.609375 C 6.082031 12.183594 6.390625 12.621094 6.914062 12.757812 C 7.726562 12.972656 8.867188 12.546875 9.871094 12.351562 C 10.429688 12.246094 11.15625 12.097656 11.78125 12.050781 C 12.601562 11.988281 13.402344 11.882812 14.246094 11.9375 C 15.167969 11.996094 16.089844 12.210938 17.035156 12.554688 C 17.5625 12.746094 17.398438 11.4375 17.027344 11.109375 C 16.675781 10.804688 16.195312 10.800781 15.734375 10.984375 C 14.328125 11.550781 12.753906 11.320312 11.246094 11.492188 Z M 11.246094 11.492188 "/>
<path style=" stroke:none;fill-rule:nonzero;fill:rgb(9.803922%,7.843137%,11.764706%);fill-opacity:1;" d="M 16.421875 11.113281 C 16.25 11.101562 16.050781 11.136719 15.851562 11.214844 C 14.355469 11.816406 12.757812 11.574219 11.292969 11.738281 C 10.136719 11.871094 8.902344 11.558594 7.851562 11.363281 C 7.507812 11.300781 7.144531 11.242188 6.898438 11.277344 C 6.773438 11.292969 6.6875 11.328125 6.625 11.378906 C 6.5625 11.429688 6.511719 11.5 6.480469 11.648438 C 6.433594 11.878906 6.472656 12.050781 6.558594 12.1875 C 6.648438 12.320312 6.792969 12.425781 7 12.480469 C 7.671875 12.65625 8.800781 12.273438 9.839844 12.074219 C 10.394531 11.964844 11.128906 11.816406 11.78125 11.765625 C 12.589844 11.707031 13.402344 11.597656 14.277344 11.652344 C 15.214844 11.714844 16.148438 11.929688 17.097656 12.269531 C 17.109375 12.222656 17.125 12.140625 17.117188 12.027344 C 17.101562 11.738281 16.933594 11.351562 16.867188 11.292969 C 16.738281 11.179688 16.59375 11.125 16.421875 11.113281 Z M 16.421875 11.113281 "/>
<path style=" stroke:none;fill-rule:nonzero;fill:rgb(0%,0%,0%);fill-opacity:0.4;" d="M 16.355469 11.109375 C 16.199219 11.109375 16.027344 11.144531 15.851562 11.214844 C 15.128906 11.507812 14.378906 11.601562 13.632812 11.636719 C 13.84375 11.632812 14.058594 11.636719 14.277344 11.652344 C 14.371094 11.660156 14.464844 11.667969 14.558594 11.675781 C 15.011719 11.613281 15.464844 11.507812 15.910156 11.332031 C 16.109375 11.25 16.308594 11.214844 16.480469 11.226562 C 16.652344 11.242188 16.796875 11.296875 16.925781 11.40625 C 16.9375 11.417969 16.953125 11.441406 16.96875 11.46875 C 16.929688 11.378906 16.894531 11.3125 16.867188 11.292969 C 16.738281 11.179688 16.59375 11.125 16.421875 11.113281 C 16.398438 11.109375 16.378906 11.109375 16.355469 11.109375 Z M 7.101562 11.265625 C 7.03125 11.265625 6.960938 11.265625 6.898438 11.277344 C 6.773438 11.292969 6.6875 11.328125 6.625 11.378906 C 6.5625 11.429688 6.511719 11.5 6.480469 11.648438 C 6.433594 11.875 6.472656 12.046875 6.558594 12.183594 C 6.515625 12.066406 6.503906 11.929688 6.539062 11.761719 C 6.570312 11.617188 6.621094 11.546875 6.683594 11.496094 C 6.746094 11.441406 6.832031 11.410156 6.957031 11.390625 C 7.203125 11.359375 7.566406 11.417969 7.910156 11.480469 C 8.808594 11.648438 9.84375 11.898438 10.851562 11.886719 C 11.160156 11.835938 11.480469 11.789062 11.78125 11.765625 C 12.261719 11.730469 12.742188 11.679688 13.238281 11.652344 C 12.578125 11.671875 11.921875 11.667969 11.292969 11.738281 C 10.136719 11.871094 8.902344 11.558594 7.851562 11.363281 C 7.59375 11.316406 7.324219 11.273438 7.101562 11.265625 Z M 13.238281 11.652344 C 13.363281 11.648438 13.488281 11.644531 13.609375 11.636719 C 13.484375 11.640625 13.363281 11.644531 13.238281 11.652344 Z M 13.238281 11.652344 "/>
<path style=" stroke:none;fill-rule:nonzero;fill:rgb(0%,0%,0%);fill-opacity:1;" d="M 8.300781 11.320312 C 8.0625 11.304688 7.816406 11.304688 7.578125 11.308594 C 7.402344 11.332031 7.246094 11.351562 7.269531 11.53125 C 7.285156 11.726562 7.441406 11.964844 7.582031 12.089844 C 7.726562 12.214844 7.867188 12.308594 8.054688 12.34375 C 8.214844 12.371094 8.410156 12.269531 8.550781 12.207031 C 8.738281 12.121094 8.996094 11.964844 9.121094 11.796875 C 9.191406 11.695312 9.175781 11.640625 9.105469 11.53125 C 9.039062 11.441406 8.867188 11.476562 8.769531 11.429688 C 8.609375 11.359375 8.472656 11.335938 8.300781 11.320312 Z M 8.300781 11.320312 "/>
<path style=" stroke:none;fill-rule:nonzero;fill:url(#linear0);" d="M 7.59375 11.375 C 7.234375 11.492188 7.886719 12.050781 8.152344 12.15625 C 8.351562 12.109375 8.859375 11.800781 8.878906 11.570312 C 8.421875 11.308594 8.128906 11.371094 7.59375 11.375 Z M 7.59375 11.375 "/>
<path style=" stroke:none;fill-rule:nonzero;fill:rgb(0%,0%,0%);fill-opacity:1;" d="M 16.46875 11.058594 C 16.46875 11.058594 16.335938 11.054688 16.132812 11.09375 C 15.925781 11.136719 15.722656 11.148438 15.535156 11.289062 C 15.476562 11.332031 15.351562 11.355469 15.367188 11.425781 C 15.417969 11.679688 15.609375 11.828125 15.761719 11.914062 C 15.914062 12 16.054688 12.03125 16.054688 12.03125 C 16.09375 12.042969 16.132812 12.039062 16.167969 12.027344 C 16.167969 12.027344 16.328125 11.972656 16.46875 11.828125 C 16.605469 11.679688 16.722656 11.421875 16.65625 11.09375 C 16.636719 11.003906 16.5625 11.050781 16.46875 11.058594 Z M 16.46875 11.058594 "/>
<path style=" stroke:none;fill-rule:nonzero;fill:url(#linear1);" d="M 15.554688 11.390625 C 15.828125 11.183594 16.464844 11.132812 16.464844 11.132812 C 16.578125 11.675781 16.105469 11.84375 16.105469 11.84375 C 16.105469 11.84375 15.625 11.726562 15.554688 11.390625 Z M 15.554688 11.390625 "/>
<path style=" stroke:none;fill-rule:nonzero;fill:rgb(0%,0%,0%);fill-opacity:1;" d="M 15.3125 8.664062 C 15.105469 8.664062 14.886719 8.730469 14.683594 8.859375 C 14.523438 8.964844 14.332031 9.132812 14.171875 9.296875 C 14.09375 9.378906 14.019531 9.457031 13.960938 9.527344 C 13.933594 9.5625 13.910156 9.597656 13.890625 9.632812 C 13.871094 9.660156 13.84375 9.703125 13.84375 9.785156 C 13.84375 9.8125 13.84375 9.84375 13.851562 9.875 C 13.855469 9.890625 13.863281 9.910156 13.875 9.9375 C 13.882812 9.949219 13.894531 9.972656 13.921875 9.996094 C 13.953125 10.019531 14 10.042969 14.058594 10.042969 C 14.09375 10.039062 14.101562 10.039062 14.085938 10.039062 C 14.089844 10.039062 14.09375 10.039062 14.101562 10.039062 C 14.109375 10.035156 14.125 10.035156 14.144531 10.03125 C 14.179688 10.023438 14.230469 10.015625 14.292969 10.003906 C 14.414062 9.984375 14.582031 9.957031 14.765625 9.925781 C 14.949219 9.894531 15.128906 9.863281 15.273438 9.84375 C 15.347656 9.832031 15.414062 9.824219 15.464844 9.820312 C 15.492188 9.816406 15.511719 9.8125 15.523438 9.8125 C 15.539062 9.808594 15.554688 9.808594 15.550781 9.808594 C 15.703125 9.808594 15.847656 9.769531 15.953125 9.664062 C 16.058594 9.558594 16.097656 9.398438 16.058594 9.25 C 15.96875 8.890625 15.65625 8.667969 15.3125 8.664062 Z M 15.3125 8.664062 "/>
<path style=" stroke:none;fill-rule:nonzero;fill:rgb(34.117647%,13.72549%,4.705882%);fill-opacity:1;" d="M 15.34375 8.90625 C 15.007812 8.902344 14.644531 8.929688 14.40625 9.152344 C 14.21875 9.320312 14.082031 9.441406 13.941406 9.652344 C 13.882812 9.757812 13.875 9.820312 13.894531 9.945312 C 13.972656 9.976562 14.339844 9.898438 14.414062 9.871094 C 14.996094 9.664062 15.019531 9.746094 15.464844 9.707031 C 15.644531 9.707031 15.777344 9.671875 15.839844 9.488281 C 15.910156 9.285156 15.628906 9.269531 15.492188 9.121094 C 15.355469 8.980469 15.539062 8.90625 15.34375 8.90625 Z M 15.34375 8.90625 "/>
<path style=" stroke:none;fill-rule:nonzero;fill:rgb(0%,0%,0%);fill-opacity:1;" d="M 8.9375 8.65625 C 8.511719 8.65625 8.339844 8.703125 7.992188 8.929688 C 7.800781 9.054688 7.640625 9.183594 7.527344 9.308594 C 7.46875 9.371094 7.421875 9.4375 7.386719 9.515625 C 7.347656 9.601562 7.324219 9.734375 7.398438 9.859375 C 7.425781 9.902344 7.457031 9.933594 7.492188 9.953125 C 7.527344 9.972656 7.558594 9.980469 7.535156 9.972656 C 7.554688 9.980469 7.574219 9.984375 7.59375 9.988281 C 7.625 9.996094 7.652344 10 7.683594 10.003906 C 7.753906 10.011719 7.839844 10.023438 7.945312 10.03125 C 8.15625 10.050781 8.433594 10.066406 8.734375 10.078125 C 9.332031 10.105469 9.992188 10.144531 10.121094 10.164062 C 10.355469 10.195312 10.484375 10.214844 10.589844 10.214844 C 10.644531 10.214844 10.710938 10.210938 10.777344 10.179688 C 10.859375 10.140625 10.902344 10.085938 10.929688 10.046875 C 11 9.933594 10.957031 9.808594 10.945312 9.78125 C 10.925781 9.742188 10.902344 9.714844 10.890625 9.699219 C 10.859375 9.65625 10.824219 9.621094 10.785156 9.582031 C 10.703125 9.503906 10.597656 9.417969 10.476562 9.324219 C 10.242188 9.136719 9.960938 8.933594 9.742188 8.816406 C 9.519531 8.695312 9.296875 8.65625 8.9375 8.65625 Z M 8.9375 8.65625 "/>
<path style=" stroke:none;fill-rule:nonzero;fill:rgb(34.117647%,13.72549%,4.705882%);fill-opacity:1;" d="M 8.042969 8.9375 C 7.789062 9.09375 7.5625 9.253906 7.414062 9.519531 C 7.292969 9.730469 7.503906 9.890625 7.671875 9.886719 C 7.9375 9.929688 8.296875 9.773438 8.566406 9.792969 C 9.238281 9.828125 9.816406 10 10.484375 10.097656 C 10.613281 10.109375 10.777344 10.109375 10.839844 9.972656 C 10.914062 9.808594 10.726562 9.695312 10.628906 9.59375 C 10.355469 9.359375 10.101562 9.15625 9.796875 8.964844 C 9.371094 8.8125 8.722656 8.816406 8.042969 8.9375 Z M 8.042969 8.9375 "/>
<path style=" stroke:none;fill-rule:nonzero;fill:url(#radial1);" d="M 10.703125 9.90625 C 10.742188 9.84375 9.992188 9.253906 9.617188 9.050781 C 9.425781 8.945312 9.28125 8.917969 8.9375 8.917969 C 8.519531 8.917969 8.476562 8.929688 8.136719 9.152344 C 7.777344 9.386719 7.566406 9.621094 7.625 9.71875 C 7.644531 9.746094 8.148438 9.789062 8.746094 9.816406 C 9.34375 9.839844 9.980469 9.878906 10.152344 9.902344 C 10.628906 9.96875 10.667969 9.96875 10.703125 9.90625 Z M 10.703125 9.90625 "/>
<path style=" stroke:none;fill-rule:nonzero;fill:url(#radial2);" d="M 14.734375 9.730469 C 15.101562 9.667969 15.46875 9.613281 15.546875 9.613281 C 15.785156 9.613281 15.917969 9.484375 15.871094 9.300781 C 15.757812 8.847656 15.261719 8.722656 14.789062 9.023438 C 14.519531 9.199219 14.039062 9.683594 14.039062 9.785156 C 14.039062 9.820312 14.042969 9.847656 14.050781 9.847656 C 14.0625 9.847656 14.367188 9.792969 14.734375 9.730469 Z M 14.734375 9.730469 "/>
<path style=" stroke:none;fill-rule:nonzero;fill:rgb(0%,0%,0%);fill-opacity:1;" d="M 8.191406 8.839844 C 7.730469 8.992188 7.3125 9.28125 6.984375 9.632812 C 6.78125 9.90625 7.386719 10.28125 7.386719 9.980469 C 7.085938 9.714844 7.484375 9.375 7.703125 9.210938 C 7.859375 9.082031 8.058594 9 8.191406 8.839844 Z M 8.191406 8.839844 "/>
<path style=" stroke:none;fill-rule:nonzero;fill:rgb(0%,0%,0%);fill-opacity:1;" d="M 10.441406 9.316406 C 10.75 9.445312 10.992188 9.75 11.058594 10.078125 C 11.136719 10.253906 10.761719 10.515625 10.929688 10.222656 C 10.976562 9.84375 10.582031 9.625 10.441406 9.316406 Z M 10.441406 9.316406 "/>
<path style=" stroke:none;fill-rule:nonzero;fill:rgb(18.039216%,20.784314%,24.705882%);fill-opacity:1;" d="M 12.707031 8.164062 C 12.789062 8.207031 12.882812 8.269531 12.886719 8.371094 C 12.980469 8.734375 13 9.128906 12.878906 9.488281 C 12.816406 9.640625 12.691406 9.75 12.589844 9.871094 C 12.519531 9.933594 12.425781 9.886719 12.390625 9.816406 C 12.324219 9.71875 12.335938 9.59375 12.375 9.488281 C 12.417969 9.363281 12.472656 9.242188 12.480469 9.109375 C 12.507812 8.910156 12.539062 8.707031 12.609375 8.515625 C 12.648438 8.398438 12.679688 8.28125 12.707031 8.164062 Z M 12.707031 8.164062 "/>
<path style=" stroke:none;fill-rule:nonzero;fill:rgb(0%,0%,0%);fill-opacity:1;" d="M 12.847656 9.644531 C 12.421875 9.796875 12.6875 9.152344 12.773438 8.957031 C 12.90625 8.417969 12.910156 9.273438 12.847656 9.644531 Z M 12.847656 9.644531 "/>
<path style=" stroke:none;fill-rule:nonzero;fill:rgb(0%,0%,0%);fill-opacity:1;" d="M 14.410156 8.953125 C 14.582031 8.433594 15.277344 8.296875 15.386719 7.742188 C 15.546875 7.65625 15.457031 8.253906 15.28125 8.308594 C 15.0625 8.597656 14.757812 8.839844 14.410156 8.953125 Z M 14.410156 8.953125 "/>
<path style=" stroke:none;fill-rule:nonzero;fill:rgb(0%,0%,0%);fill-opacity:1;" d="M 15.550781 9.824219 C 15.789062 9.746094 16.464844 10.027344 16.394531 9.503906 C 16.105469 9.492188 15.8125 9.691406 15.550781 9.824219 Z M 15.550781 9.824219 "/>
</g>
</svg>
