
<svg xmlns="http://www.w3.org/2000/svg" xmlns:xlink="http://www.w3.org/1999/xlink" width="22px" height="22px" viewBox="0 0 22 22" version="1.1">
<g id="surface1">
<path style="fill-rule:nonzero;fill:rgb(100%,100%,100%);fill-opacity:1;stroke-width:20.298223;stroke-linecap:butt;stroke-linejoin:miter;stroke:rgb(29.019608%,68.235294%,90.196078%);stroke-opacity:1;stroke-miterlimit:4;" d="M 73.909089 22.499999 L 325.227264 22.499999 C 347.659082 22.499999 365.863627 40.704544 365.863627 63.06818 L 365.863627 314.386355 C 365.863627 336.818173 347.659082 355.022718 325.227264 355.022718 L 73.909089 355.022718 C 51.545453 355.022718 33.340908 336.818173 33.340908 314.386355 L 33.340908 63.06818 C 33.340908 40.704544 51.545453 22.499999 73.909089 22.499999 Z M 73.909089 22.499999 " transform="matrix(0.0572917,0,0,0.0572917,0,0)"/>
<path style=" stroke:none;fill-rule:nonzero;fill:rgb(97.254902%,97.254902%,97.254902%);fill-opacity:1;" d="M 19.800781 12.371094 C 19.703125 12.46875 19.59375 12.558594 19.476562 12.636719 C 19.417969 12.679688 19.359375 12.714844 19.296875 12.75 C 19.484375 12.648438 19.652344 12.519531 19.800781 12.371094 Z M 19.800781 12.371094 "/>
<path style=" stroke:none;fill-rule:nonzero;fill:rgb(97.254902%,97.254902%,97.254902%);fill-opacity:1;" d="M 20.179688 11.863281 C 20.148438 11.925781 20.109375 11.984375 20.070312 12.042969 C 19.992188 12.160156 19.902344 12.269531 19.800781 12.371094 C 19.953125 12.21875 20.078125 12.050781 20.179688 11.863281 Z M 20.179688 11.863281 "/>
<path style=" stroke:none;fill-rule:nonzero;fill:rgb(97.254902%,97.254902%,97.254902%);fill-opacity:1;" d="M 20.347656 11.46875 C 20.328125 11.535156 20.300781 11.605469 20.273438 11.671875 C 20.246094 11.734375 20.214844 11.800781 20.179688 11.863281 C 20.25 11.738281 20.304688 11.605469 20.347656 11.46875 Z M 20.347656 11.46875 "/>
<path style=" stroke:none;fill-rule:nonzero;fill:rgb(97.254902%,97.254902%,97.254902%);fill-opacity:1;" d="M 20.445312 10.8125 C 20.445312 10.890625 20.441406 10.964844 20.4375 11.039062 C 20.429688 11.113281 20.417969 11.183594 20.402344 11.257812 C 20.386719 11.328125 20.371094 11.398438 20.347656 11.46875 C 20.414062 11.261719 20.445312 11.042969 20.445312 10.8125 Z M 20.445312 10.8125 "/>
<path style=" stroke:none;fill-rule:nonzero;fill:rgb(16.862745%,22.745098%,29.019608%);fill-opacity:1;" d="M 11.84375 2.757812 L 11.84375 10.402344 L 19.492188 10.402344 L 19.492188 4.625 C 19.492188 3.59375 18.65625 2.757812 17.625 2.757812 Z M 11.84375 2.757812 "/>
<path style=" stroke:none;fill-rule:nonzero;fill:rgb(21.960784%,30.980392%,40%);fill-opacity:1;" d="M 11.023438 18.867188 L 11.023438 11.222656 L 3.378906 11.222656 L 3.378906 17.003906 C 3.378906 18.03125 4.214844 18.867188 5.246094 18.867188 Z M 11.023438 18.867188 "/>
<path style=" stroke:none;fill-rule:nonzero;fill:rgb(10.980392%,14.901961%,20%);fill-opacity:1;" d="M 3.378906 10.402344 L 11.023438 10.402344 L 11.023438 2.757812 L 5.246094 2.757812 C 4.214844 2.757812 3.378906 3.59375 3.378906 4.625 Z M 3.378906 10.402344 "/>
<path style=" stroke:none;fill-rule:nonzero;fill:rgb(27.058824%,38.823529%,49.803922%);fill-opacity:1;" d="M 19.492188 11.222656 L 11.84375 11.222656 L 11.84375 18.867188 L 17.625 18.867188 C 18.65625 18.867188 19.492188 18.03125 19.492188 17.003906 Z M 19.492188 11.222656 "/>
</g>
</svg>
