
<svg xmlns="http://www.w3.org/2000/svg" xmlns:xlink="http://www.w3.org/1999/xlink" width="22px" height="22px" viewBox="0 0 22 22" version="1.1">
<g id="surface1">
<path style="fill-rule:nonzero;fill:rgb(40%,40%,40%);fill-opacity:1;stroke-width:28.200493;stroke-linecap:butt;stroke-linejoin:miter;stroke:rgb(18.823529%,20.784314%,27.058824%);stroke-opacity:1;stroke-miterlimit:4;" d="M 81.454545 25 L 430.545455 25 C 461.727273 25 487 50.272727 487 81.454545 L 487 430.545455 C 487 461.727273 461.727273 487 430.545455 487 L 81.454545 487 C 50.272727 487 25 461.727273 25 430.545455 L 25 81.454545 C 25 50.272727 50.272727 25 81.454545 25 Z M 81.454545 25 " transform="matrix(0.0429688,0,0,0.0429688,0,0)"/>
<path style=" stroke:none;fill-rule:nonzero;fill:rgb(0%,0%,0%);fill-opacity:1;" d="M 3.921875 1.589844 C 2.652344 1.589844 1.625 2.316406 1.625 3.214844 L 1.625 5.625 L 20.421875 5.625 L 20.421875 3.214844 C 20.421875 2.316406 19.394531 1.589844 18.125 1.589844 Z M 3.921875 1.589844 "/>
<path style=" stroke:none;fill-rule:nonzero;fill:rgb(100%,100%,100%);fill-opacity:1;" d="M 13.890625 1.949219 L 12.332031 3.789062 L 14.398438 3.789062 L 15.953125 1.949219 Z M 13.890625 1.949219 "/>
<path style=" stroke:none;fill-rule:nonzero;fill:rgb(100%,100%,100%);fill-opacity:1;" d="M 10.269531 1.949219 L 8.714844 3.789062 L 10.777344 3.789062 L 12.332031 1.949219 Z M 10.269531 1.949219 "/>
<path style=" stroke:none;fill-rule:nonzero;fill:rgb(100%,100%,100%);fill-opacity:1;" d="M 17.335938 1.949219 L 15.777344 3.789062 L 17.839844 3.789062 L 19.398438 1.949219 Z M 17.335938 1.949219 "/>
<path style=" stroke:none;fill-rule:nonzero;fill:rgb(100%,100%,100%);fill-opacity:1;" d="M 3.480469 1.949219 L 1.921875 3.789062 L 3.988281 3.789062 L 5.542969 1.949219 Z M 3.480469 1.949219 "/>
<path style=" stroke:none;fill-rule:nonzero;fill:rgb(100%,100%,100%);fill-opacity:1;" d="M 6.921875 1.949219 L 5.367188 3.789062 L 7.429688 3.789062 L 8.988281 1.949219 Z M 6.921875 1.949219 "/>
<path style=" stroke:none;fill-rule:nonzero;fill:rgb(100%,100%,100%);fill-opacity:1;" d="M 13.890625 5.625 L 12.332031 3.789062 L 14.398438 3.789062 L 15.953125 5.625 Z M 13.890625 5.625 "/>
<path style=" stroke:none;fill-rule:nonzero;fill:rgb(100%,100%,100%);fill-opacity:1;" d="M 10.269531 5.625 L 8.714844 3.789062 L 10.777344 3.789062 L 12.332031 5.625 Z M 10.269531 5.625 "/>
<path style=" stroke:none;fill-rule:nonzero;fill:rgb(100%,100%,100%);fill-opacity:1;" d="M 17.335938 5.625 L 15.777344 3.789062 L 17.839844 3.789062 L 19.398438 5.625 Z M 17.335938 5.625 "/>
<path style=" stroke:none;fill-rule:nonzero;fill:rgb(100%,100%,100%);fill-opacity:1;" d="M 1.921875 3.789062 L 3.480469 5.625 L 5.542969 5.625 L 3.988281 3.789062 Z M 1.921875 3.789062 "/>
<path style=" stroke:none;fill-rule:nonzero;fill:rgb(100%,100%,100%);fill-opacity:1;" d="M 6.921875 5.625 L 5.367188 3.789062 L 7.429688 3.789062 L 8.988281 5.625 Z M 6.921875 5.625 "/>
<path style=" stroke:none;fill-rule:nonzero;fill:rgb(100%,100%,100%);fill-opacity:1;" d="M 16.65625 12.445312 L 7.929688 17.351562 L 7.929688 7.535156 Z M 16.65625 12.445312 "/>
</g>
</svg>
