
<svg xmlns="http://www.w3.org/2000/svg" xmlns:xlink="http://www.w3.org/1999/xlink" width="22px" height="22px" viewBox="0 0 22 22" version="1.1">
<g id="surface1">
<path style="fill-rule:nonzero;fill:rgb(100%,100%,100%);fill-opacity:1;stroke-width:28.191782;stroke-linecap:butt;stroke-linejoin:miter;stroke:rgb(76.078431%,65.882353%,45.098039%);stroke-opacity:1;stroke-miterlimit:4;" d="M 81.454545 25.090909 L 430.545455 25.090909 C 461.636364 25.090909 486.909091 50.363636 486.909091 81.454545 L 486.909091 430.545455 C 486.909091 461.636364 461.636364 486.909091 430.545455 486.909091 L 81.454545 486.909091 C 50.363636 486.909091 25.090909 461.636364 25.090909 430.545455 L 25.090909 81.454545 C 25.090909 50.363636 50.363636 25.090909 81.454545 25.090909 Z M 81.454545 25.090909 " transform="matrix(0.0429688,0,0,0.0429688,0,0)"/>
<path style=" stroke:none;fill-rule:evenodd;fill:rgb(65.098039%,58.039216%,40.784314%);fill-opacity:1;" d="M 19.234375 3.832031 L 19.484375 15.503906 L 3.429688 15.84375 L 3.179688 4.171875 Z M 19.234375 3.832031 "/>
<path style=" stroke:none;fill-rule:evenodd;fill:rgb(90.196078%,84.313725%,74.117647%);fill-opacity:1;" d="M 17.726562 5.8125 L 17.90625 14.253906 L 4.433594 14.539062 L 4.253906 6.101562 Z M 17.726562 5.8125 "/>
<path style=" stroke:none;fill-rule:evenodd;fill:rgb(90.196078%,84.313725%,74.117647%);fill-opacity:1;" d="M 16.660156 3.898438 L 18.425781 12.796875 L 5.246094 15.765625 L 3.480469 6.867188 Z M 16.660156 3.898438 "/>
<path style=" stroke:none;fill-rule:evenodd;fill:rgb(52.156863%,87.058824%,80%);fill-opacity:1;" d="M 18.65625 10.027344 L 4.070312 13.855469 L 4.921875 16.59375 L 19.082031 13.128906 Z M 18.65625 10.027344 "/>
<path style=" stroke:none;fill-rule:evenodd;fill:rgb(49.803922%,89.019608%,100%);fill-opacity:1;" d="M 3.28125 7.039062 L 16.773438 2.796875 L 17.804688 8.160156 L 3.949219 12.640625 Z M 3.28125 7.039062 "/>
<path style="fill:none;stroke-width:32.285721;stroke-linecap:butt;stroke-linejoin:miter;stroke:rgb(76.078431%,65.882353%,45.098039%);stroke-opacity:1;stroke-miterlimit:4;" d="M 400 73.818182 L 446.545455 307.818182 L 115 382.090909 L 68.454545 148.090909 Z M 400 73.818182 " transform="matrix(0.0429688,0,0,0.0429688,0,0)"/>
<path style=" stroke:none;fill-rule:evenodd;fill:rgb(40%,40%,40%);fill-opacity:1;" d="M 6.519531 12.707031 L 8.40625 9.121094 L 11.460938 11.125 L 13.8125 5.691406 L 17.203125 10.921875 L 5.726562 13.628906 Z M 6.519531 12.707031 "/>
<path style=" stroke:none;fill-rule:nonzero;fill:rgb(100%,86.27451%,32.941176%);fill-opacity:1;" d="M 7.855469 8.308594 C 8 8.964844 7.585938 9.613281 6.929688 9.757812 C 6.273438 9.902344 5.625 9.484375 5.480469 8.832031 C 5.335938 8.175781 5.75 7.527344 6.40625 7.382812 C 7.0625 7.238281 7.710938 7.652344 7.855469 8.308594 Z M 7.855469 8.308594 "/>
<path style="fill-rule:nonzero;fill:rgb(0%,50.196078%,50.196078%);fill-opacity:0.372549;stroke-width:24.14362;stroke-linecap:butt;stroke-linejoin:miter;stroke:rgb(100%,32.941176%,32.941176%);stroke-opacity:1;stroke-miterlimit:4;" d="M 372.545455 325.272727 C 358 361.818182 316.545455 379.727273 280 365.181818 C 243.363636 350.636364 225.545455 309.181818 240.090909 272.545455 C 254.636364 236 296.090909 218.181818 332.636364 232.727273 C 369.272727 247.272727 387.090909 288.727273 372.545455 325.272727 Z M 372.545455 325.272727 " transform="matrix(0.0429688,0,0,0.0429688,0,0)"/>
<path style=" stroke:none;fill-rule:evenodd;fill:rgb(100%,32.941176%,32.941176%);fill-opacity:1;" d="M 14.121094 15.226562 L 14.203125 15.183594 C 14.457031 15.050781 14.769531 15.144531 14.90625 15.398438 L 16.847656 19.054688 C 16.984375 19.308594 16.886719 19.625 16.632812 19.757812 L 16.550781 19.804688 C 16.296875 19.9375 15.984375 19.839844 15.847656 19.585938 L 13.90625 15.929688 C 13.769531 15.675781 13.867188 15.363281 14.121094 15.226562 Z M 14.121094 15.226562 "/>
<path style=" stroke:none;fill-rule:evenodd;fill:rgb(100%,100%,100%);fill-opacity:1;" d="M 12.578125 8.507812 L 13.792969 5.714844 L 15.496094 8.207031 L 14.160156 7.78125 L 14.160156 8.753906 L 13.367188 8.144531 Z M 12.578125 8.507812 "/>
<path style=" stroke:none;fill-rule:evenodd;fill:rgb(100%,100%,100%);fill-opacity:1;" d="M 7.414062 10.941406 L 8.386719 8.875 L 10.207031 10.453125 L 9.054688 10.273438 L 9.054688 11.0625 L 8.507812 10.636719 Z M 7.414062 10.941406 "/>
</g>
</svg>
