
<svg xmlns="http://www.w3.org/2000/svg" xmlns:xlink="http://www.w3.org/1999/xlink" width="16px" height="16px" viewBox="0 0 16 16" version="1.1">
<g id="surface1">
<path style="fill-rule:nonzero;fill:rgb(100%,100%,100%);fill-opacity:1;stroke-width:27.910587;stroke-linecap:butt;stroke-linejoin:miter;stroke:rgb(0%,67.058824%,93.333333%);stroke-opacity:1;stroke-miterlimit:4;" d="M 83.25 27.375 L 428.75 27.375 C 459.625 27.375 484.625 52.375 484.625 83.25 L 484.625 428.75 C 484.625 459.625 459.625 484.625 428.75 484.625 L 83.25 484.625 C 52.375 484.625 27.375 459.625 27.375 428.75 L 27.375 83.25 C 27.375 52.375 52.375 27.375 83.25 27.375 Z M 83.25 27.375 " transform="matrix(0.03125,0,0,0.03125,0,0)"/>
<path style=" stroke:none;fill-rule:nonzero;fill:rgb(22.745098%,20.784314%,21.960784%);fill-opacity:1;" d="M 7.832031 8.359375 C 8.121094 8.46875 8.390625 8.378906 8.589844 8.109375 C 8.664062 8.011719 8.679688 7.941406 8.683594 7.753906 L 8.683594 7.519531 L 9.925781 6.273438 L 11.164062 5.027344 L 11.167969 4.914062 C 11.171875 4.851562 11.160156 4.773438 11.144531 4.746094 C 11.109375 4.679688 10.929688 4.617188 10.859375 4.648438 C 10.832031 4.660156 10.253906 5.230469 9.570312 5.910156 L 8.332031 7.148438 L 8.199219 7.128906 L 8.0625 7.113281 L 5.992188 5.042969 L 5.863281 5.019531 C 5.664062 4.980469 5.523438 5.015625 5.410156 5.128906 C 5.285156 5.253906 5.257812 5.398438 5.324219 5.605469 C 5.375 5.757812 5.378906 5.765625 6.382812 6.765625 L 7.390625 7.769531 L 7.429688 7.925781 C 7.480469 8.121094 7.636719 8.285156 7.832031 8.359375 Z M 7.832031 8.359375 "/>
<path style="fill:none;stroke-width:35.849998;stroke-linecap:butt;stroke-linejoin:miter;stroke:rgb(0%,67.058824%,93.333333%);stroke-opacity:1;stroke-miterlimit:4;" d="M 425.5 256 C 425.5 349.625 349.625 425.5 256 425.5 C 162.375 425.5 86.5 349.625 86.5 256 C 86.5 162.375 162.375 86.5 256 86.5 C 349.625 86.5 425.5 162.375 425.5 256 Z M 425.5 256 " transform="matrix(0.03125,0,0,0.03125,0,0)"/>
</g>
</svg>
