
<svg xmlns="http://www.w3.org/2000/svg" xmlns:xlink="http://www.w3.org/1999/xlink" width="16px" height="16px" viewBox="0 0 16 16" version="1.1">
<g id="surface1">
<path style="fill-rule:nonzero;fill:rgb(0%,65.882353%,83.137255%);fill-opacity:1;stroke-width:27.442497;stroke-linecap:butt;stroke-linejoin:miter;stroke:rgb(1.176471%,48.235294%,61.176471%);stroke-opacity:1;stroke-miterlimit:4;" d="M 86.125 31.25 L 425.875 31.25 C 456.25 31.25 480.75 55.75 480.75 86.125 L 480.75 425.875 C 480.75 456.25 456.25 480.75 425.875 480.75 L 86.125 480.75 C 55.75 480.75 31.25 456.25 31.25 425.875 L 31.25 86.125 C 31.25 55.75 55.75 31.25 86.125 31.25 Z M 86.125 31.25 " transform="matrix(0.03125,0,0,0.03125,0,0)"/>
<path style=" stroke:none;fill-rule:nonzero;fill:rgb(100%,100%,100%);fill-opacity:1;" d="M 4.980469 3.652344 L 2.792969 5.933594 L 7.449219 5.933594 L 7.449219 3.652344 Z M 8.550781 3.652344 L 8.550781 5.933594 L 13.207031 5.933594 L 11.019531 3.652344 Z M 2.496094 6.550781 L 2.496094 12.347656 L 13.503906 12.347656 L 13.503906 6.550781 Z M 2.496094 6.550781 "/>
</g>
</svg>
