
<svg xmlns="http://www.w3.org/2000/svg" xmlns:xlink="http://www.w3.org/1999/xlink" width="16px" height="16px" viewBox="0 0 16 16" version="1.1">
<g id="surface1">
<path style="fill-rule:nonzero;fill:rgb(100%,100%,100%);fill-opacity:1;stroke-width:23.5;stroke-linecap:butt;stroke-linejoin:miter;stroke:rgb(0%,0%,0%);stroke-opacity:1;stroke-miterlimit:4;" d="M 87.125 23.875 L 427 23.875 C 460.75 23.875 488.125 51.25 488.125 85 L 488.125 431.375 C 488.125 465.125 460.75 492.5 427 492.5 L 87.125 492.5 C 53.375 492.5 26 465.125 26 431.375 L 26 85 C 26 51.25 53.375 23.875 87.125 23.875 Z M 87.125 23.875 " transform="matrix(0.03125,0,0,0.03125,0,0)"/>
<path style=" stroke:none;fill-rule:nonzero;fill:rgb(20.784314%,30.588235%,34.901961%);fill-opacity:1;" d="M 3.042969 8.925781 L 13.015625 8.925781 C 13.570312 8.925781 14.023438 9.304688 14.023438 9.773438 L 14.023438 12.0625 C 14.023438 12.53125 13.570312 12.910156 13.015625 12.910156 L 3.042969 12.910156 C 2.488281 12.910156 2.039062 12.53125 2.039062 12.0625 L 2.039062 9.773438 C 2.039062 9.304688 2.488281 8.925781 3.042969 8.925781 Z M 3.042969 8.925781 "/>
<path style="fill-rule:nonzero;fill:rgb(60.784314%,81.568627%,94.117647%);fill-opacity:1;stroke-width:0.75;stroke-linecap:butt;stroke-linejoin:miter;stroke:rgb(0%,0%,0%);stroke-opacity:1;stroke-miterlimit:4;" d="M -26.172312 -1131.581599 L 35.250322 -1082.735113 L 89.017909 -1099.50331 L 102.869897 -1163.113099 L 11.556131 -1150.901478 Z M -26.172312 -1131.581599 " transform="matrix(0.0214319,0,0,0.0214319,6.12733,30.197302)"/>
<path style="fill-rule:nonzero;fill:rgb(60.784314%,81.568627%,94.117647%);fill-opacity:1;stroke-width:0.75;stroke-linecap:butt;stroke-linejoin:miter;stroke:rgb(0%,0%,0%);stroke-opacity:1;stroke-miterlimit:4;" d="M 35.250322 -1082.735113 L 35.250322 -1043.548567 L -19.975369 -1011.652541 L -49.137451 -1127.207287 L -16.147846 -1123.379764 Z M 35.250322 -1082.735113 " transform="matrix(0.0214319,0,0,0.0214319,6.12733,30.197302)"/>
<path style="fill-rule:nonzero;fill:rgb(60.784314%,81.568627%,94.117647%);fill-opacity:1;stroke-width:0.75;stroke-linecap:butt;stroke-linejoin:miter;stroke:rgb(0%,0%,0%);stroke-opacity:1;stroke-miterlimit:4;" d="M 35.250322 -1043.548567 L 107.790998 -1024.046425 L 105.057053 -961.530214 L -28.359468 -956.791376 L -41.482404 -994.519818 L -32.186991 -1006.002387 Z M 35.250322 -1043.548567 " transform="matrix(0.0214319,0,0,0.0214319,6.12733,30.197302)"/>
<path style=" stroke:none;fill-rule:nonzero;fill:rgb(16.862745%,60.392157%,85.098039%);fill-opacity:1;" d="M 9.195312 1.789062 L 4.824219 4.390625 L 4.824219 10.296875 L 9.195312 12.109375 Z M 7.847656 5.625 L 7.847656 8.785156 L 6.171875 8.230469 L 6.171875 6.421875 Z M 7.847656 5.625 "/>
<path style="fill-rule:nonzero;fill:rgb(60.784314%,81.568627%,94.117647%);fill-opacity:1;stroke-width:0.75;stroke-linecap:butt;stroke-linejoin:miter;stroke:rgb(0%,0%,0%);stroke-opacity:1;stroke-miterlimit:4;" d="M 143.514548 -1325.327176 L 212.956753 -1251.692921 L 212.956753 -874.04397 L 143.514548 -843.788311 Z M 143.514548 -1325.327176 " transform="matrix(0.0214319,0,0,0.0214319,6.12733,30.197302)"/>
</g>
</svg>
