
<svg xmlns="http://www.w3.org/2000/svg" xmlns:xlink="http://www.w3.org/1999/xlink" width="16px" height="16px" viewBox="0 0 16 16" version="1.1">
<g id="surface1">
<path style="fill-rule:nonzero;fill:rgb(100%,100%,100%);fill-opacity:1;stroke-width:26.401737;stroke-linecap:butt;stroke-linejoin:miter;stroke:rgb(18.823529%,27.843137%,32.941176%);stroke-opacity:1;stroke-miterlimit:4;" d="M 92.5 39.75 L 419.5 39.75 C 448.625 39.75 472.25 63.375 472.25 92.5 L 472.25 419.5 C 472.25 448.625 448.625 472.25 419.5 472.25 L 92.5 472.25 C 63.375 472.25 39.75 448.625 39.75 419.5 L 39.75 92.5 C 39.75 63.375 63.375 39.75 92.5 39.75 Z M 92.5 39.75 " transform="matrix(0.03125,0,0,0.03125,0,0)"/>
<path style=" stroke:none;fill-rule:nonzero;fill:rgb(13.72549%,36.078431%,76.078431%);fill-opacity:1;" d="M 2.890625 1.242188 C 2.761719 1.242188 2.636719 1.257812 2.511719 1.285156 L 5.730469 6.6875 C 5.582031 6.996094 5.445312 7.304688 5.40625 7.628906 C 5.355469 8.027344 5.386719 8.425781 5.492188 8.808594 C 5.59375 9.1875 5.769531 9.558594 6.011719 9.882812 C 6.253906 10.203125 6.566406 10.472656 6.933594 10.6875 C 7.355469 10.929688 7.808594 11.066406 8.261719 11.097656 C 8.714844 11.125 9.136719 10.832031 9.558594 10.667969 L 7.289062 14.757812 L 13.105469 14.757812 C 14.019531 14.757812 14.757812 14.019531 14.757812 13.109375 L 14.757812 2.890625 C 14.757812 1.980469 14.019531 1.242188 13.105469 1.242188 Z M 2.890625 1.242188 "/>
<path style=" stroke:none;fill-rule:nonzero;fill:rgb(31.764706%,54.117647%,90.196078%);fill-opacity:1;" d="M 2.890625 1.242188 C 1.980469 1.242188 1.242188 1.980469 1.242188 2.890625 L 1.242188 13.109375 C 1.242188 14.019531 1.980469 14.757812 2.890625 14.757812 L 5.761719 14.757812 L 7.890625 11.054688 L 7.890625 11.070312 C 8.230469 11.042969 8.566406 11.003906 8.867188 10.878906 C 9.234375 10.71875 9.5625 10.492188 9.84375 10.210938 C 10.121094 9.925781 10.355469 9.585938 10.511719 9.214844 C 10.667969 8.851562 10.746094 8.441406 10.746094 8.015625 C 10.746094 7.527344 10.640625 7.070312 10.441406 6.664062 C 10.238281 6.25 9.917969 5.878906 9.5625 5.597656 L 14.757812 5.597656 L 14.757812 2.890625 C 14.757812 1.980469 14.019531 1.242188 13.109375 1.242188 Z M 2.890625 1.242188 "/>
<path style=" stroke:none;fill-rule:nonzero;fill:rgb(56.078431%,69.019608%,90.196078%);fill-opacity:1;" d="M 1.648438 1.808594 C 1.394531 2.097656 1.242188 2.476562 1.242188 2.890625 L 1.242188 13.109375 C 1.242188 14.019531 1.980469 14.757812 2.890625 14.757812 L 7.289062 14.757812 L 9.636719 10.621094 C 9.214844 10.785156 8.765625 10.992188 8.261719 11.097656 C 7.808594 11.066406 7.355469 10.929688 6.933594 10.6875 C 6.566406 10.472656 6.253906 10.203125 6.011719 9.882812 C 5.769531 9.558594 5.59375 9.1875 5.492188 8.808594 C 5.386719 8.425781 5.355469 8.027344 5.40625 7.628906 C 5.445312 7.304688 5.582031 6.996094 5.730469 6.6875 L 5.453125 6.21875 C 5.445312 6.230469 5.4375 6.238281 5.433594 6.246094 C 5.179688 6.625 5.019531 7.054688 4.949219 7.503906 Z M 1.648438 1.808594 "/>
<path style=" stroke:none;fill-rule:nonzero;fill:rgb(97.254902%,97.254902%,97.254902%);fill-opacity:1;" d="M 11.089844 8 C 11.089844 9.707031 9.707031 11.089844 8 11.089844 C 6.292969 11.089844 4.910156 9.707031 4.910156 8 C 4.910156 6.292969 6.292969 4.910156 8 4.910156 C 9.707031 4.910156 11.089844 6.292969 11.089844 8 M 11.089844 8 "/>
<path style=" stroke:none;fill-rule:nonzero;fill:rgb(22.745098%,49.019608%,89.019608%);fill-opacity:1;" d="M 10.402344 8 C 10.402344 9.328125 9.328125 10.402344 8 10.402344 C 6.671875 10.402344 5.597656 9.328125 5.597656 8 C 5.597656 6.671875 6.671875 5.597656 8 5.597656 C 9.328125 5.597656 10.402344 6.671875 10.402344 8 M 10.402344 8 "/>
</g>
</svg>
