
<svg xmlns="http://www.w3.org/2000/svg" xmlns:xlink="http://www.w3.org/1999/xlink" width="16px" height="16px" viewBox="0 0 16 16" version="1.1">
<g id="surface1">
<path style="fill-rule:nonzero;fill:rgb(74.117647%,76.078431%,78.039216%);fill-opacity:1;stroke-width:27.27438;stroke-linecap:butt;stroke-linejoin:miter;stroke:rgb(48.627451%,53.333333%,57.647059%);stroke-opacity:1;stroke-miterlimit:4;" d="M 85.375 35 L 426.625 35 C 457.125 35 481.75 59.125 481.75 89 L 481.75 423 C 481.75 452.875 457.125 477 426.625 477 L 85.375 477 C 54.875 477 30.25 452.875 30.25 423 L 30.25 89 C 30.25 59.125 54.875 35 85.375 35 Z M 85.375 35 " transform="matrix(0.03125,0,0,0.03125,0,0)"/>
<path style=" stroke:none;fill-rule:nonzero;fill:rgb(100%,100%,100%);fill-opacity:1;" d="M 6.636719 5.277344 C 8.894531 5.277344 10.722656 7.105469 10.722656 9.363281 C 10.722656 11.617188 8.894531 13.445312 6.636719 13.445312 C 4.382812 13.445312 2.554688 11.617188 2.554688 9.363281 C 2.554688 7.105469 4.382812 5.277344 6.636719 5.277344 Z M 6.636719 5.277344 "/>
<path style=" stroke:none;fill-rule:nonzero;fill:rgb(100%,100%,100%);fill-opacity:1;" d="M 9.171875 2.554688 C 8.085938 3.273438 7.441406 3.925781 7.191406 4.769531 C 8.953125 4.976562 10.398438 6.164062 10.984375 7.773438 C 12.519531 6.992188 13.445312 4.457031 13.445312 4.457031 C 13.445312 4.457031 11.402344 3.890625 9.683594 4.605469 C 9.8125 3.8125 9.171875 2.554688 9.171875 2.554688 Z M 9.171875 2.554688 "/>
</g>
</svg>
