
<svg xmlns="http://www.w3.org/2000/svg" xmlns:xlink="http://www.w3.org/1999/xlink" width="16px" height="16px" viewBox="0 0 16 16" version="1.1">
<g id="surface1">
<path style="fill-rule:nonzero;fill:rgb(74.117647%,76.078431%,78.039216%);fill-opacity:1;stroke-width:27.27438;stroke-linecap:butt;stroke-linejoin:miter;stroke:rgb(48.627451%,53.333333%,57.647059%);stroke-opacity:1;stroke-miterlimit:4;" d="M -506.89617 0.288137 L -165.64617 0.288137 C -135.14617 0.288137 -110.52117 24.413137 -110.52117 54.288137 L -110.52117 388.288137 C -110.52117 418.163137 -135.14617 442.288137 -165.64617 442.288137 L -506.89617 442.288137 C -537.39617 442.288137 -562.02117 418.163137 -562.02117 388.288137 L -562.02117 54.288137 C -562.02117 24.413137 -537.39617 0.288137 -506.89617 0.288137 Z M -506.89617 0.288137 " transform="matrix(0.03125,0,0,0.03125,18.508474,1.084746)"/>
<path style=" stroke:none;fill-rule:nonzero;fill:rgb(29.803922%,29.803922%,29.803922%);fill-opacity:1;" d="M 6.636719 5.277344 C 8.894531 5.277344 10.722656 7.105469 10.722656 9.363281 C 10.722656 11.617188 8.894531 13.445312 6.636719 13.445312 C 4.382812 13.445312 2.554688 11.617188 2.554688 9.363281 C 2.554688 7.105469 4.382812 5.277344 6.636719 5.277344 Z M 6.636719 5.277344 "/>
<path style=" stroke:none;fill-rule:nonzero;fill:rgb(29.803922%,29.803922%,29.803922%);fill-opacity:1;" d="M 9.171875 2.554688 C 8.085938 3.273438 7.441406 3.925781 7.191406 4.769531 C 8.953125 4.976562 10.398438 6.164062 10.984375 7.773438 C 12.519531 6.992188 13.445312 4.457031 13.445312 4.457031 C 13.445312 4.457031 11.402344 3.890625 9.683594 4.605469 C 9.8125 3.8125 9.171875 2.554688 9.171875 2.554688 Z M 9.171875 2.554688 "/>
</g>
</svg>
