
<svg xmlns="http://www.w3.org/2000/svg" xmlns:xlink="http://www.w3.org/1999/xlink" width="16px" height="16px" viewBox="0 0 16 16" version="1.1">
<g id="surface1">
<path style="fill-rule:nonzero;fill:rgb(40%,40%,40%);fill-opacity:1;stroke-width:1.199;stroke-linecap:butt;stroke-linejoin:miter;stroke:rgb(0%,0%,0%);stroke-opacity:1;stroke-miterlimit:4;" d="M 68.375 11.875 L 443.625 11.875 C 474.75 11.875 500.125 37.25 500.125 68.375 L 500.125 443.625 C 500.125 474.75 474.75 500.125 443.625 500.125 L 68.375 500.125 C 37.25 500.125 11.875 474.75 11.875 443.625 L 11.875 68.375 C 11.875 37.25 37.25 11.875 68.375 11.875 Z M 68.375 11.875 " transform="matrix(0.03125,0,0,0.03125,0,0)"/>
<path style="fill-rule:nonzero;fill:rgb(20%,20%,20%);fill-opacity:1;stroke-width:1.175939;stroke-linecap:butt;stroke-linejoin:miter;stroke:rgb(0%,0%,0%);stroke-opacity:1;stroke-miterlimit:4;" d="M 56.5 35.375 L 455.5 35.375 C 467.25 35.375 476.625 44.75 476.625 56.5 L 476.625 455.5 C 476.625 467.25 467.25 476.625 455.5 476.625 L 56.5 476.625 C 44.75 476.625 35.375 467.25 35.375 455.5 L 35.375 56.5 C 35.375 44.75 44.75 35.375 56.5 35.375 Z M 56.5 35.375 " transform="matrix(0.03125,0,0,0.03125,0,0)"/>
<path style=" stroke:none;fill-rule:nonzero;fill:rgb(100%,100%,100%);fill-opacity:1;" d="M 2.523438 2.09375 L 2.523438 2.867188 C 2.527344 2.871094 2.535156 2.875 2.539062 2.878906 L 3.882812 3.753906 C 3.945312 3.792969 3.945312 3.859375 3.882812 3.898438 L 2.539062 4.773438 C 2.535156 4.777344 2.527344 4.78125 2.523438 4.78125 L 2.523438 5.558594 C 2.5625 5.550781 2.597656 5.535156 2.628906 5.515625 L 4.855469 4.0625 L 4.855469 3.609375 C 4.855469 3.601562 4.855469 3.597656 4.855469 3.589844 L 2.628906 2.136719 C 2.597656 2.117188 2.5625 2.101562 2.523438 2.09375 Z M 2.523438 2.09375 "/>
<path style=" stroke:none;fill-rule:nonzero;fill:rgb(100%,100%,100%);fill-opacity:1;" d="M 3.671875 5.777344 L 6.210938 5.777344 L 6.210938 6.496094 L 3.671875 6.496094 Z M 3.671875 5.777344 "/>
<path style=" stroke:none;fill-rule:nonzero;fill:rgb(100%,100%,100%);fill-opacity:1;" d="M 8.359375 2.128906 L 8.359375 13.871094 L 7.640625 13.871094 L 7.640625 2.128906 Z M 8.359375 2.128906 "/>
<path style=" stroke:none;fill-rule:nonzero;fill:rgb(100%,100%,100%);fill-opacity:1;" d="M 10.160156 2.09375 L 10.160156 2.867188 C 10.164062 2.871094 10.171875 2.875 10.175781 2.878906 L 11.515625 3.753906 C 11.578125 3.792969 11.578125 3.859375 11.515625 3.898438 L 10.175781 4.773438 C 10.171875 4.777344 10.164062 4.78125 10.160156 4.78125 L 10.160156 5.558594 C 10.195312 5.550781 10.234375 5.535156 10.261719 5.515625 L 12.488281 4.0625 L 12.488281 3.609375 C 12.488281 3.601562 12.488281 3.597656 12.492188 3.589844 L 10.261719 2.136719 C 10.234375 2.117188 10.195312 2.101562 10.160156 2.09375 Z M 10.160156 2.09375 "/>
<path style=" stroke:none;fill-rule:nonzero;fill:rgb(100%,100%,100%);fill-opacity:1;" d="M 11.304688 5.777344 L 13.847656 5.777344 L 13.847656 6.496094 L 11.304688 6.496094 Z M 11.304688 5.777344 "/>
</g>
</svg>
