<?xml version="1.0" encoding="UTF-8" standalone="no"?>
<svg
   xmlns:dc="http://purl.org/dc/elements/1.1/"
   xmlns:cc="http://creativecommons.org/ns#"
   xmlns:rdf="http://www.w3.org/1999/02/22-rdf-syntax-ns#"
   xmlns:svg="http://www.w3.org/2000/svg"
   xmlns="http://www.w3.org/2000/svg"
   xmlns:sodipodi="http://sodipodi.sourceforge.net/DTD/sodipodi-0.dtd"
   xmlns:inkscape="http://www.inkscape.org/namespaces/inkscape"
   width="16px"
   height="16px"
   viewBox="0 0 16 16"
   version="1.1"
   id="svg13"
   sodipodi:docname="cubic.svg"
   inkscape:version="0.92.5 (2060ec1f9f, 2020-04-08)">
  <metadata
     id="metadata19">
    <rdf:RDF>
      <cc:Work
         rdf:about="">
        <dc:format>image/svg+xml</dc:format>
        <dc:type
           rdf:resource="http://purl.org/dc/dcmitype/StillImage" />
        <dc:title></dc:title>
      </cc:Work>
    </rdf:RDF>
  </metadata>
  <defs
     id="defs17" />
  <sodipodi:namedview
     pagecolor="#ffffff"
     bordercolor="#666666"
     borderopacity="1"
     objecttolerance="10"
     gridtolerance="10"
     guidetolerance="10"
     inkscape:pageopacity="0"
     inkscape:pageshadow="2"
     inkscape:window-width="1280"
     inkscape:window-height="735"
     id="namedview15"
     showgrid="false"
     inkscape:zoom="16"
     inkscape:cx="9.8191839"
     inkscape:cy="3.4145117"
     inkscape:window-x="0"
     inkscape:window-y="0"
     inkscape:window-maximized="1"
     inkscape:current-layer="svg13" />
  <path
     inkscape:connector-curvature="0"
     id="path2"
     d="m 2.546875,0.78515625 h 10.90625 c 0.972656,0 1.761719,0.78906245 1.761719,1.76171875 v 10.90625 c 0,0.972656 -0.789063,1.761719 -1.761719,1.761719 H 2.546875 c -0.9726562,0 -1.76171875,-0.789063 -1.76171875,-1.761719 V 2.546875 c 0,-0.9726562 0.78906245,-1.76171875 1.76171875,-1.76171875 z m 0,0"
     style="fill:#ffd5d5;fill-opacity:1;fill-rule:nonzero;stroke:#a1230f;stroke-width:0.88099313;stroke-linecap:butt;stroke-linejoin:miter;stroke-miterlimit:4;stroke-opacity:1" />
  <g
     transform="matrix(0.02838858,0,0,0.02838858,0.45410098,-14.782354)"
     id="g4143">
    <path
       inkscape:connector-curvature="0"
       id="path3521"
       d="m 305.06836,790.65891 c 48.71419,0 97.42839,0 146.14258,0 -24.35612,-42.1875 -48.71224,-84.375 -73.06836,-126.5625 -48.71419,0 -97.42839,0 -146.14258,0 24.35612,42.1875 48.71224,84.375 73.06836,126.5625 z"
       style="fill:#f44800;fill-opacity:1;fill-rule:evenodd;stroke:#000000;stroke-width:0.5;stroke-linecap:round;stroke-linejoin:round;stroke-miterlimit:4;stroke-dasharray:none;stroke-opacity:1" />
    <path
       inkscape:connector-curvature="0"
       id="path3523"
       d="m 232,929.22336 c 48.71419,0 97.42839,0 146.14258,0 24.35612,-42.18815 48.71224,-84.3763 73.06836,-126.56445 -48.71419,0 -97.42839,0 -146.14258,0 C 280.71224,844.84706 256.35612,887.03521 232,929.22336 Z"
       style="fill:#d40000;fill-opacity:1;fill-rule:evenodd;stroke:#000000;stroke-width:0.5;stroke-linecap:round;stroke-linejoin:round;stroke-miterlimit:4;stroke-dasharray:none;stroke-opacity:1" />
    <path
       inkscape:connector-curvature="0"
       id="path3525"
       d="m 148.53711,796.65891 c 24.35612,42.18815 48.71224,84.3763 73.06836,126.56445 24.35612,-42.18815 48.71224,-84.3763 73.06836,-126.56445 -24.35612,-42.1875 -48.71224,-84.375 -73.06836,-126.5625 -24.35612,42.1875 -48.71224,84.375 -73.06836,126.5625 z"
       style="fill:#fb8b00;fill-opacity:1;fill-rule:evenodd;stroke:#000000;stroke-width:0.5;stroke-linecap:round;stroke-linejoin:round;stroke-miterlimit:4;stroke-dasharray:none;stroke-opacity:1" />
    <path
       inkscape:connector-curvature="0"
       id="path3527"
       d="m 225.06836,652.09641 c 51.02474,0 102.04948,0 153.07422,0 13.68945,-23.71289 27.37891,-47.42578 41.06836,-71.13867 -78.40365,0 -156.80729,0 -235.21094,0 13.68945,23.71289 27.37891,47.42578 41.06836,71.13867 z"
       style="fill:#d40000;fill-opacity:1;fill-rule:evenodd;stroke:#000000;stroke-width:0.5;stroke-linecap:round;stroke-linejoin:round;stroke-miterlimit:4;stroke-dasharray:none;stroke-opacity:1" />
    <path
       inkscape:connector-curvature="0"
       id="path3529"
       d="m 184,1012.3622 c 78.40365,0 156.80729,0 235.21094,0 -13.68945,-23.71304 -27.37891,-47.42594 -41.06836,-71.13884 -51.02474,0 -102.04948,0 -153.07422,0 -13.68945,23.7129 -27.37891,47.4258 -41.06836,71.13884 z"
       style="fill:#f44800;fill-opacity:1;fill-rule:evenodd;stroke:#000000;stroke-width:0.5;stroke-linecap:round;stroke-linejoin:round;stroke-miterlimit:4;stroke-dasharray:none;stroke-opacity:1" />
    <path
       inkscape:connector-curvature="0"
       id="path3531"
       d="m 173.60547,1006.3622 c 13.68945,-23.71304 27.37891,-47.42595 41.06836,-71.13884 -25.51042,-44.18815 -51.02083,-88.3763 -76.53125,-132.56445 -27.38086,0 -54.76172,0 -82.14258,0 39.20182,67.90104 78.40365,135.80208 117.60547,203.70329 z"
       style="fill:#f44800;fill-opacity:1;fill-rule:evenodd;stroke:#000000;stroke-width:0.5;stroke-linecap:round;stroke-linejoin:round;stroke-miterlimit:4;stroke-dasharray:none;stroke-opacity:1" />
    <path
       inkscape:connector-curvature="0"
       id="path3533"
       d="m 56,790.65891 c 27.38086,0 54.76172,0 82.14258,0 25.51042,-44.1875 51.02083,-88.375 76.53125,-132.5625 C 200.98438,634.38352 187.29492,610.67063 173.60547,586.95774 134.40365,654.85813 95.20182,722.75852 56,790.65891 Z"
       style="fill:#d40000;fill-opacity:1;fill-rule:evenodd;stroke:#000000;stroke-width:0.5;stroke-linecap:round;stroke-linejoin:round;stroke-miterlimit:4;stroke-dasharray:none;stroke-opacity:1" />
  </g>
</svg>
