
<svg xmlns="http://www.w3.org/2000/svg" xmlns:xlink="http://www.w3.org/1999/xlink" width="16px" height="16px" viewBox="0 0 16 16" version="1.1">
<g id="surface1">
<path style="fill-rule:nonzero;fill:rgb(20%,20%,20%);fill-opacity:1;stroke-width:28.191782;stroke-linecap:butt;stroke-linejoin:miter;stroke:rgb(29.019608%,68.235294%,90.196078%);stroke-opacity:1;stroke-miterlimit:4;" d="M 81.5 25.125 L 430.5 25.125 C 461.625 25.125 486.875 50.375 486.875 81.5 L 486.875 430.5 C 486.875 461.625 461.625 486.875 430.5 486.875 L 81.5 486.875 C 50.375 486.875 25.125 461.625 25.125 430.5 L 25.125 81.5 C 25.125 50.375 50.375 25.125 81.5 25.125 Z M 81.5 25.125 " transform="matrix(0.03125,0,0,0.03125,0,0)"/>
<path style=" stroke:none;fill-rule:nonzero;fill:rgb(100%,100%,100%);fill-opacity:1;" d="M 12.308594 8 C 12.308594 5.621094 10.378906 3.695312 8 3.695312 C 5.621094 3.695312 3.691406 5.621094 3.691406 8 C 3.691406 10.378906 5.621094 12.304688 8 12.304688 C 10.378906 12.304688 12.308594 10.378906 12.308594 8 Z M 12.308594 8 "/>
<path style=" stroke:none;fill-rule:nonzero;fill:rgb(20%,20%,20%);fill-opacity:1;" d="M 7.539062 12.96875 C 6.839844 12.910156 6.078125 12.660156 5.464844 12.296875 C 4.121094 11.5 3.25 10.175781 3.046875 8.617188 C 2.976562 8.089844 3.011719 7.390625 3.132812 6.875 C 3.261719 6.332031 3.53125 5.703125 3.816406 5.269531 C 4.652344 4 6 3.183594 7.515625 3.027344 C 7.851562 2.992188 8.480469 3.011719 8.816406 3.070312 C 10.675781 3.390625 12.167969 4.671875 12.757812 6.460938 C 12.914062 6.945312 12.988281 7.433594 12.988281 8 C 12.988281 8.605469 12.90625 9.105469 12.707031 9.671875 C 12.546875 10.136719 12.199219 10.757812 11.890625 11.136719 C 10.824219 12.4375 9.210938 13.117188 7.539062 12.96875 Z M 8.609375 11.070312 C 8.921875 11.007812 9.125 10.9375 9.410156 10.796875 C 9.929688 10.539062 10.378906 10.125 10.6875 9.617188 C 11.023438 9.070312 11.1875 8.359375 11.125 7.726562 C 11.046875 6.9375 10.730469 6.28125 10.171875 5.742188 C 9.730469 5.316406 9.199219 5.039062 8.59375 4.914062 C 8.320312 4.859375 7.664062 4.859375 7.40625 4.914062 C 6.765625 5.050781 6.230469 5.339844 5.789062 5.78125 C 5.25 6.320312 4.9375 6.992188 4.875 7.738281 L 4.859375 7.933594 L 4.585938 7.945312 C 4.339844 7.957031 4.3125 7.960938 4.304688 8 C 4.292969 8.054688 5.1875 8.953125 5.253906 8.953125 C 5.308594 8.953125 6.234375 8.027344 6.222656 7.984375 C 6.214844 7.964844 6.136719 7.957031 5.902344 7.949219 L 5.59375 7.945312 L 5.59375 7.871094 C 5.59375 7.644531 5.71875 7.164062 5.847656 6.910156 C 6.089844 6.429688 6.570312 5.980469 7.054688 5.78125 C 7.378906 5.644531 7.601562 5.601562 7.976562 5.601562 C 8.332031 5.597656 8.453125 5.613281 8.75 5.710938 C 9.121094 5.828125 9.414062 6.011719 9.703125 6.304688 C 10.179688 6.785156 10.402344 7.328125 10.402344 8 C 10.402344 8.421875 10.324219 8.746094 10.136719 9.109375 C 9.894531 9.574219 9.523438 9.933594 9.046875 10.164062 C 8.121094 10.605469 7.0625 10.433594 6.316406 9.71875 C 6.238281 9.644531 6.167969 9.585938 6.160156 9.585938 C 6.148438 9.585938 6.03125 9.679688 5.898438 9.796875 C 5.75 9.929688 5.65625 10.027344 5.65625 10.050781 C 5.65625 10.144531 6.136719 10.546875 6.476562 10.738281 C 6.792969 10.914062 7.257812 11.066406 7.621094 11.113281 C 7.875 11.144531 8.34375 11.125 8.609375 11.070312 Z M 8.609375 11.070312 "/>
</g>
</svg>
