<!-- color: #d6e4eb -->
<svg xmlns="http://www.w3.org/2000/svg" xmlns:xlink="http://www.w3.org/1999/xlink" width="16px" height="16px" viewBox="0 0 16 16" version="1.1">
<defs>
<clipPath id="clip1">
  <path d="M 3.375 3.933594 L 8.667969 3.933594 L 8.667969 7.710938 L 3.375 7.710938 Z M 3.375 3.933594 "/>
</clipPath>
<clipPath id="clip2">
  <path d="M 2.445312 1.683594 L 9.59375 1.683594 C 10.011719 1.683594 10.347656 2.019531 10.347656 2.4375 L 10.347656 9.585938 C 10.347656 10 10.011719 10.339844 9.59375 10.339844 L 2.445312 10.339844 C 2.03125 10.339844 1.691406 10 1.691406 9.585938 L 1.691406 2.4375 C 1.691406 2.019531 2.03125 1.683594 2.445312 1.683594 Z M 2.445312 1.683594 "/>
</clipPath>
</defs>
<g id="surface1">
<path style="fill-rule:nonzero;fill:rgb(92.156863%,92.156863%,92.156863%);fill-opacity:1;stroke-width:28.032269;stroke-linecap:butt;stroke-linejoin:miter;stroke:rgb(90.980392%,13.72549%,13.72549%);stroke-opacity:1;stroke-miterlimit:4;" d="M 82.5 26.375 L 429.5 26.375 C 460.5 26.375 485.625 51.5 485.625 82.5 L 485.625 429.5 C 485.625 460.5 460.5 485.625 429.5 485.625 L 82.5 485.625 C 51.5 485.625 26.375 460.5 26.375 429.5 L 26.375 82.5 C 26.375 51.5 51.5 26.375 82.5 26.375 Z M 82.5 26.375 " transform="matrix(0.03125,0,0,0.03125,0,0)"/>
<g clip-path="url(#clip1)" clip-rule="nonzero">
<g clip-path="url(#clip2)" clip-rule="nonzero">
<path style=" stroke:none;fill-rule:nonzero;fill:rgb(90.980392%,13.72549%,13.72549%);fill-opacity:1;" d="M 8.65625 4.441406 C 8.007812 5.015625 6.078125 7.179688 5.753906 7.179688 C 5.539062 7.179688 5.355469 7.03125 5.296875 6.800781 C 5.261719 6.660156 5.316406 6.839844 3.386719 7.703125 C 3.578125 7.582031 4.933594 6.542969 5.109375 6.414062 C 5.285156 6.289062 6.152344 5.679688 6.40625 5.484375 C 6.871094 5.125 7.050781 4.832031 7.050781 4.433594 C 7.050781 4.125 6.863281 3.941406 6.5625 3.941406 C 6.375 3.941406 6.234375 3.984375 6.035156 4.097656 C 5.710938 4.292969 5.417969 4.53125 5.238281 4.742188 C 4.910156 5.152344 4.617188 6.121094 4.617188 6.835938 C 4.617188 7.359375 4.886719 7.683594 5.324219 7.683594 C 5.828125 7.683594 7.613281 5.949219 8.292969 5.25 L 8.65625 4.441406 M 5.28125 5.988281 C 5.425781 5.046875 5.820312 4.3125 6.191406 4.3125 C 6.335938 4.3125 6.433594 4.460938 6.433594 4.675781 C 6.433594 5.117188 6.199219 5.378906 5.28125 5.988281 "/>
</g>
</g>
<path style=" stroke:none;fill-rule:nonzero;fill:rgb(60%,60%,60%);fill-opacity:1;" d="M 10.144531 9.070312 L 9.613281 9.070312 L 9.425781 8.886719 C 10.085938 8.121094 10.480469 7.125 10.480469 6.042969 C 10.480469 3.628906 8.527344 1.675781 6.113281 1.675781 C 3.699219 1.675781 1.742188 3.628906 1.742188 6.042969 C 1.742188 8.457031 3.699219 10.414062 6.113281 10.414062 C 7.195312 10.414062 8.191406 10.015625 8.957031 9.359375 L 9.136719 9.546875 L 9.136719 10.078125 L 12.5 13.429688 L 13.5 12.429688 Z M 6.113281 9.070312 C 4.4375 9.070312 3.089844 7.71875 3.089844 6.042969 C 3.089844 4.371094 4.4375 3.019531 6.113281 3.019531 C 7.785156 3.019531 9.136719 4.371094 9.136719 6.042969 C 9.136719 7.71875 7.785156 9.070312 6.113281 9.070312 Z M 6.113281 9.070312 "/>
</g>
</svg>
