
<svg xmlns="http://www.w3.org/2000/svg" xmlns:xlink="http://www.w3.org/1999/xlink" width="16px" height="16px" viewBox="0 0 16 16" version="1.1">
<g id="surface1">
<path style="fill-rule:nonzero;fill:rgb(100%,33.333333%,33.333333%);fill-opacity:1;stroke-width:28.191782;stroke-linecap:butt;stroke-linejoin:miter;stroke:rgb(60%,61.176471%,65.098039%);stroke-opacity:1;stroke-miterlimit:4;" d="M 81.5 25.125 L 430.5 25.125 C 461.625 25.125 486.875 50.375 486.875 81.5 L 486.875 430.5 C 486.875 461.625 461.625 486.875 430.5 486.875 L 81.5 486.875 C 50.375 486.875 25.125 461.625 25.125 430.5 L 25.125 81.5 C 25.125 50.375 50.375 25.125 81.5 25.125 Z M 81.5 25.125 " transform="matrix(0.03125,0,0,0.03125,0,0)"/>
<path style=" stroke:none;fill-rule:nonzero;fill:rgb(100%,100%,100%);fill-opacity:1;" d="M 2.800781 1.121094 C 1.871094 1.121094 1.121094 1.871094 1.121094 2.800781 L 1.121094 13.199219 C 1.121094 14.128906 1.871094 14.878906 2.800781 14.878906 L 13.199219 14.878906 C 14.128906 14.878906 14.878906 14.128906 14.878906 13.199219 L 14.878906 2.800781 C 14.878906 1.871094 14.128906 1.121094 13.199219 1.121094 Z M 3.960938 3.46875 L 9.378906 3.46875 L 9.378906 4.542969 L 5.234375 4.542969 L 5.234375 7.320312 L 8.972656 7.320312 L 8.972656 8.394531 L 5.234375 8.394531 L 5.234375 12.894531 L 3.960938 12.894531 Z M 3.960938 3.46875 "/>
<path style=" stroke:none;fill-rule:nonzero;fill:rgb(15.686275%,49.019608%,100%);fill-opacity:1;" d="M 10.003906 14.804688 C 9.941406 14.777344 9.875 14.703125 9.84375 14.632812 C 9.832031 14.59375 9.816406 14.453125 9.800781 14.226562 C 9.789062 14.035156 9.777344 13.863281 9.769531 13.84375 C 9.761719 13.816406 9.714844 13.792969 9.605469 13.757812 C 9.523438 13.726562 9.398438 13.675781 9.328125 13.640625 C 9.257812 13.605469 9.1875 13.578125 9.167969 13.578125 C 9.148438 13.578125 9.035156 13.667969 8.871094 13.816406 C 8.726562 13.949219 8.585938 14.070312 8.558594 14.085938 C 8.496094 14.117188 8.367188 14.121094 8.296875 14.09375 C 8.242188 14.074219 7.667969 13.507812 7.628906 13.4375 C 7.59375 13.371094 7.597656 13.242188 7.640625 13.164062 C 7.65625 13.125 7.777344 12.980469 7.910156 12.839844 C 8.050781 12.6875 8.144531 12.570312 8.144531 12.550781 C 8.144531 12.535156 8.117188 12.464844 8.082031 12.394531 C 8.046875 12.324219 7.996094 12.199219 7.964844 12.117188 C 7.9375 12.035156 7.902344 11.960938 7.886719 11.953125 C 7.875 11.945312 7.703125 11.929688 7.511719 11.921875 C 7.289062 11.910156 7.136719 11.894531 7.09375 11.878906 C 7.011719 11.847656 6.917969 11.746094 6.902344 11.671875 C 6.898438 11.644531 6.894531 11.425781 6.898438 11.1875 L 6.902344 10.753906 L 6.953125 10.691406 C 7.039062 10.582031 7.082031 10.570312 7.503906 10.542969 C 7.738281 10.527344 7.882812 10.511719 7.898438 10.5 C 7.90625 10.492188 7.941406 10.410156 7.976562 10.320312 C 8.007812 10.230469 8.0625 10.109375 8.089844 10.046875 C 8.121094 9.988281 8.144531 9.925781 8.144531 9.910156 C 8.144531 9.894531 8.046875 9.769531 7.925781 9.636719 C 7.804688 9.503906 7.6875 9.371094 7.667969 9.34375 C 7.609375 9.269531 7.589844 9.175781 7.613281 9.082031 C 7.628906 9.011719 7.660156 8.972656 7.925781 8.707031 C 8.085938 8.542969 8.246094 8.394531 8.277344 8.375 C 8.355469 8.335938 8.476562 8.335938 8.554688 8.375 C 8.585938 8.390625 8.726562 8.511719 8.867188 8.640625 C 9.007812 8.769531 9.132812 8.878906 9.144531 8.886719 C 9.15625 8.894531 9.230469 8.867188 9.324219 8.824219 C 9.410156 8.78125 9.542969 8.726562 9.613281 8.703125 C 9.710938 8.671875 9.75 8.648438 9.765625 8.621094 C 9.773438 8.597656 9.792969 8.425781 9.800781 8.230469 C 9.824219 7.863281 9.835938 7.804688 9.910156 7.726562 C 9.996094 7.636719 10.046875 7.628906 10.519531 7.632812 L 10.949219 7.640625 L 11.019531 7.683594 C 11.132812 7.761719 11.148438 7.808594 11.175781 8.21875 C 11.1875 8.417969 11.203125 8.597656 11.207031 8.617188 C 11.214844 8.640625 11.25 8.660156 11.363281 8.703125 C 11.445312 8.730469 11.578125 8.785156 11.65625 8.828125 C 11.734375 8.867188 11.804688 8.898438 11.8125 8.898438 C 11.820312 8.898438 11.949219 8.789062 12.09375 8.652344 C 12.242188 8.519531 12.386719 8.394531 12.421875 8.378906 C 12.5 8.335938 12.617188 8.335938 12.703125 8.378906 C 12.742188 8.398438 12.882812 8.523438 13.054688 8.699219 C 13.351562 9 13.375 9.035156 13.375 9.171875 C 13.375 9.265625 13.332031 9.332031 13.078125 9.609375 C 12.9375 9.765625 12.824219 9.894531 12.824219 9.902344 C 12.824219 9.910156 12.859375 9.992188 12.90625 10.085938 C 12.949219 10.179688 13.003906 10.308594 13.023438 10.375 C 13.046875 10.457031 13.070312 10.5 13.09375 10.507812 C 13.109375 10.515625 13.289062 10.53125 13.492188 10.542969 C 13.890625 10.570312 13.957031 10.585938 14.023438 10.679688 C 14.085938 10.769531 14.09375 10.835938 14.089844 11.273438 L 14.082031 11.6875 L 14.035156 11.757812 C 13.945312 11.882812 13.925781 11.890625 13.480469 11.917969 C 13.265625 11.933594 13.082031 11.949219 13.078125 11.953125 C 13.074219 11.957031 13.046875 12.027344 13.019531 12.105469 C 12.988281 12.1875 12.933594 12.316406 12.894531 12.394531 C 12.855469 12.476562 12.824219 12.550781 12.828125 12.5625 C 12.828125 12.574219 12.9375 12.699219 13.066406 12.839844 C 13.199219 12.980469 13.320312 13.128906 13.339844 13.167969 C 13.382812 13.253906 13.386719 13.34375 13.351562 13.425781 C 13.320312 13.5 12.792969 14.035156 12.707031 14.082031 C 12.636719 14.117188 12.503906 14.121094 12.429688 14.089844 C 12.402344 14.078125 12.257812 13.957031 12.109375 13.820312 C 11.960938 13.6875 11.828125 13.578125 11.816406 13.578125 C 11.800781 13.578125 11.71875 13.609375 11.628906 13.652344 C 11.542969 13.691406 11.414062 13.742188 11.34375 13.765625 C 11.246094 13.800781 11.214844 13.816406 11.207031 13.84375 C 11.203125 13.863281 11.1875 14.039062 11.175781 14.238281 C 11.144531 14.675781 11.128906 14.722656 10.976562 14.800781 C 10.933594 14.824219 10.859375 14.828125 10.488281 14.828125 C 10.164062 14.828125 10.042969 14.820312 10.003906 14.804688 Z M 10.648438 12.859375 C 11.039062 12.820312 11.367188 12.664062 11.648438 12.382812 C 11.859375 12.171875 11.996094 11.929688 12.082031 11.628906 C 12.132812 11.441406 12.132812 11.023438 12.078125 10.832031 C 11.921875 10.25 11.507812 9.824219 10.929688 9.652344 C 10.796875 9.609375 10.761719 9.605469 10.5 9.605469 C 10.25 9.605469 10.199219 9.609375 10.078125 9.640625 C 9.472656 9.808594 9.011719 10.292969 8.886719 10.894531 C 8.773438 11.4375 8.9375 11.992188 9.332031 12.386719 C 9.539062 12.597656 9.808594 12.75 10.101562 12.824219 C 10.183594 12.84375 10.300781 12.863281 10.46875 12.875 C 10.480469 12.875 10.5625 12.871094 10.648438 12.859375 Z M 10.246094 12.179688 C 9.832031 12.066406 9.539062 11.714844 9.515625 11.292969 C 9.496094 10.996094 9.59375 10.746094 9.800781 10.539062 C 10.183594 10.15625 10.792969 10.152344 11.171875 10.53125 C 11.480469 10.839844 11.554688 11.28125 11.363281 11.667969 C 11.199219 11.996094 10.898438 12.191406 10.527344 12.207031 C 10.398438 12.210938 10.335938 12.207031 10.246094 12.179688 Z M 10.707031 11.769531 C 10.824219 11.726562 10.957031 11.601562 11.015625 11.484375 C 11.058594 11.402344 11.0625 11.375 11.0625 11.230469 C 11.0625 11.074219 11.058594 11.0625 11.007812 10.964844 C 10.898438 10.765625 10.742188 10.667969 10.515625 10.65625 C 10.335938 10.648438 10.230469 10.683594 10.101562 10.804688 C 9.9375 10.953125 9.871094 11.164062 9.921875 11.367188 C 9.96875 11.546875 10.066406 11.667969 10.230469 11.75 C 10.382812 11.828125 10.539062 11.835938 10.707031 11.769531 Z M 10.707031 11.769531 "/>
</g>
</svg>
