
<svg xmlns="http://www.w3.org/2000/svg" xmlns:xlink="http://www.w3.org/1999/xlink" width="16px" height="16px" viewBox="0 0 16 16" version="1.1">
<g id="surface1">
<path style="fill-rule:nonzero;fill:rgb(41.960784%,61.176471%,67.058824%);fill-opacity:1;stroke-width:28.191782;stroke-linecap:butt;stroke-linejoin:miter;stroke:rgb(9.803922%,9.803922%,9.803922%);stroke-opacity:1;stroke-miterlimit:4;" d="M -659.23263 -125.86722 L -310.23263 -125.86722 C -279.10763 -125.86722 -253.85763 -100.61722 -253.85763 -69.49222 L -253.85763 279.50778 C -253.85763 310.63278 -279.10763 335.88278 -310.23263 335.88278 L -659.23263 335.88278 C -690.35763 335.88278 -715.60763 310.63278 -715.60763 279.50778 L -715.60763 -69.49222 C -715.60763 -100.61722 -690.35763 -125.86722 -659.23263 -125.86722 Z M -659.23263 -125.86722 " transform="matrix(0.03125,0,0,0.03125,23.147895,4.718507)"/>
<path style="fill-rule:nonzero;fill:rgb(100%,33.333333%,33.333333%);fill-opacity:1;stroke-width:28.191753;stroke-linecap:butt;stroke-linejoin:miter;stroke:rgb(9.803922%,9.803922%,9.803922%);stroke-opacity:1;stroke-miterlimit:4;" d="M -659.23263 -125.86722 C -690.35763 -125.86722 -715.60763 -100.61722 -715.60763 -69.49222 L -715.60763 105.00778 L -484.73263 105.00778 L -484.73263 -125.86722 Z M -484.73263 105.00778 L -484.73263 335.88278 L -310.23263 335.88278 C -279.10763 335.88278 -253.85763 310.63278 -253.85763 279.50778 L -253.85763 105.00778 Z M -484.73263 105.00778 " transform="matrix(0.03125,0,0,0.03125,23.147895,4.718507)"/>
</g>
</svg>
