
<svg xmlns="http://www.w3.org/2000/svg" xmlns:xlink="http://www.w3.org/1999/xlink" width="16px" height="16px" viewBox="0 0 16 16" version="1.1">
<g id="surface1">
<path style="fill-rule:nonzero;fill:rgb(100%,100%,100%);fill-opacity:1;stroke-width:26.401737;stroke-linecap:butt;stroke-linejoin:miter;stroke:rgb(18.823529%,27.843137%,32.941176%);stroke-opacity:1;stroke-miterlimit:4;" d="M -48.442 -16.68383 L 278.433 -16.68383 C 307.558 -16.68383 331.183 6.94117 331.183 36.19117 L 331.183 363.06617 C 331.183 392.19117 307.558 415.81617 278.433 415.81617 L -48.442 415.81617 C -77.567 415.81617 -101.317 392.19117 -101.317 363.06617 L -101.317 36.19117 C -101.317 6.94117 -77.567 -16.68383 -48.442 -16.68383 Z M -48.442 -16.68383 " transform="matrix(0.03125,0,0,0.03125,4.509906,1.841682)"/>
<path style=" stroke:none;fill-rule:nonzero;fill:rgb(100%,78.039216%,18.823529%);fill-opacity:1;" d="M 2.996094 1.320312 C 2.863281 1.320312 2.738281 1.335938 2.617188 1.367188 L 5.832031 6.769531 L 5.832031 6.765625 C 5.683594 7.074219 5.550781 7.382812 5.507812 7.707031 C 5.460938 8.105469 5.492188 8.503906 5.59375 8.886719 C 5.695312 9.265625 5.871094 9.640625 6.113281 9.960938 C 6.355469 10.28125 6.667969 10.550781 7.039062 10.765625 C 7.457031 11.007812 7.910156 11.144531 8.367188 11.175781 C 8.820312 11.203125 9.242188 10.910156 9.664062 10.746094 L 7.394531 14.835938 L 13.210938 14.835938 C 14.121094 14.835938 14.859375 14.097656 14.859375 13.1875 L 14.859375 2.972656 C 14.859375 2.058594 14.121094 1.320312 13.210938 1.320312 Z M 2.996094 1.320312 "/>
<path style=" stroke:none;fill-rule:nonzero;fill:rgb(83.137255%,9.803922%,9.803922%);fill-opacity:1;" d="M 2.996094 1.320312 C 2.085938 1.320312 1.34375 2.058594 1.34375 2.972656 L 1.34375 13.1875 C 1.34375 14.097656 2.085938 14.835938 2.996094 14.835938 L 5.863281 14.835938 L 7.992188 11.132812 L 7.992188 11.148438 C 8.332031 11.121094 8.667969 11.082031 8.96875 10.957031 C 9.339844 10.796875 9.667969 10.570312 9.945312 10.289062 C 10.226562 10.003906 10.460938 9.664062 10.617188 9.296875 C 10.773438 8.933594 10.851562 8.519531 10.851562 8.09375 C 10.851562 7.605469 10.746094 7.148438 10.542969 6.742188 C 10.339844 6.328125 10.019531 5.960938 9.667969 5.675781 L 14.859375 5.675781 L 14.859375 2.972656 C 14.859375 2.058594 14.121094 1.320312 13.210938 1.320312 Z M 2.996094 1.320312 "/>
<path style=" stroke:none;fill-rule:nonzero;fill:rgb(4.705882%,63.137255%,36.862745%);fill-opacity:1;" d="M 1.753906 1.886719 C 1.5 2.175781 1.34375 2.554688 1.34375 2.972656 L 1.34375 13.1875 C 1.34375 14.097656 2.085938 14.835938 2.996094 14.835938 L 7.394531 14.835938 L 9.738281 10.699219 C 9.316406 10.863281 8.871094 11.074219 8.367188 11.175781 C 7.910156 11.144531 7.457031 11.007812 7.039062 10.765625 C 6.667969 10.550781 6.355469 10.28125 6.113281 9.960938 C 5.871094 9.640625 5.695312 9.265625 5.59375 8.886719 C 5.492188 8.503906 5.460938 8.105469 5.507812 7.707031 C 5.550781 7.382812 5.683594 7.074219 5.832031 6.765625 L 5.832031 6.769531 L 5.554688 6.300781 C 5.546875 6.308594 5.542969 6.316406 5.535156 6.328125 C 5.285156 6.703125 5.125 7.136719 5.054688 7.582031 Z M 1.753906 1.886719 "/>
<path style=" stroke:none;fill-rule:nonzero;fill:rgb(97.254902%,97.254902%,97.254902%);fill-opacity:1;" d="M 11.191406 8.078125 C 11.191406 9.785156 9.808594 11.167969 8.101562 11.167969 C 6.398438 11.167969 5.015625 9.785156 5.015625 8.078125 C 5.015625 6.375 6.398438 4.988281 8.101562 4.988281 C 9.808594 4.988281 11.191406 6.371094 11.191406 8.078125 M 11.191406 8.078125 "/>
<path style=" stroke:none;fill-rule:nonzero;fill:rgb(22.745098%,49.019608%,89.019608%);fill-opacity:1;" d="M 10.507812 8.078125 C 10.507812 9.40625 9.429688 10.480469 8.101562 10.480469 C 6.777344 10.480469 5.699219 9.40625 5.699219 8.078125 C 5.699219 6.75 6.777344 5.675781 8.101562 5.675781 C 9.429688 5.675781 10.507812 6.75 10.507812 8.078125 M 10.507812 8.078125 "/>
<path style=" stroke:none;fill-rule:nonzero;fill:rgb(23.921569%,23.921569%,24.705882%);fill-opacity:1;" d="M 14.671875 14.644531 C 14.691406 14.613281 14.816406 14.445312 14.953125 14.265625 C 15.085938 14.085938 15.195312 13.910156 15.195312 13.871094 C 15.195312 13.804688 15.03125 13.796875 13.207031 13.796875 C 12.117188 13.796875 11.210938 13.808594 11.203125 13.820312 C 11.167969 13.851562 6.9375 13.894531 6.796875 13.863281 L 6.667969 13.832031 L 6.691406 9.925781 L 11.429688 9.914062 L 16.171875 9.90625 L 16.160156 11.882812 C 16.152344 13.167969 16.132812 13.863281 16.105469 13.859375 C 16.082031 13.859375 15.761719 14.050781 15.386719 14.28125 C 14.714844 14.695312 14.609375 14.753906 14.671875 14.644531 Z M 14.671875 14.644531 "/>
<path style=" stroke:none;fill-rule:nonzero;fill:rgb(100%,100%,100%);fill-opacity:1;" d="M 9.171875 12.914062 C 9.253906 12.863281 9.363281 12.761719 9.414062 12.683594 C 9.570312 12.445312 9.527344 12.039062 9.324219 11.867188 C 9.269531 11.820312 9.277344 11.792969 9.367188 11.65625 C 9.558594 11.375 9.453125 11.003906 9.128906 10.8125 C 9.015625 10.746094 8.882812 10.722656 8.476562 10.710938 C 8.023438 10.691406 7.964844 10.699219 7.914062 10.769531 C 7.871094 10.828125 7.855469 11.085938 7.855469 11.867188 C 7.855469 12.769531 7.863281 12.898438 7.929688 12.960938 C 8.035156 13.070312 8.964844 13.035156 9.171875 12.914062 Z M 9.171875 12.914062 "/>
<path style=" stroke:none;fill-rule:nonzero;fill:rgb(23.921569%,23.921569%,24.705882%);fill-opacity:1;" d="M 8.398438 12.570312 C 8.378906 12.550781 8.367188 12.421875 8.367188 12.285156 L 8.367188 12.035156 L 8.589844 12.035156 C 8.875 12.035156 9 12.117188 9 12.3125 C 9 12.390625 8.972656 12.476562 8.941406 12.503906 C 8.867188 12.566406 8.441406 12.617188 8.398438 12.570312 Z M 8.398438 12.570312 "/>
<path style=" stroke:none;fill-rule:nonzero;fill:rgb(23.921569%,23.921569%,24.705882%);fill-opacity:1;" d="M 8.367188 11.390625 L 8.367188 11.175781 L 8.609375 11.175781 C 8.875 11.175781 8.960938 11.222656 8.960938 11.375 C 8.960938 11.535156 8.847656 11.605469 8.59375 11.605469 L 8.367188 11.605469 Z M 8.367188 11.390625 "/>
<path style=" stroke:none;fill-rule:nonzero;fill:rgb(100%,100%,100%);fill-opacity:1;" d="M 11.15625 12.996094 C 11.242188 12.972656 11.253906 12.945312 11.242188 12.792969 L 11.230469 12.617188 L 10.253906 12.570312 L 10.253906 12.054688 L 10.65625 12.042969 C 11.078125 12.03125 11.121094 12.011719 11.121094 11.816406 C 11.121094 11.636719 11.050781 11.605469 10.625 11.605469 L 10.230469 11.605469 L 10.230469 11.175781 L 10.660156 11.175781 C 11.164062 11.175781 11.25 11.140625 11.25 10.945312 C 11.25 10.714844 11.210938 10.703125 10.480469 10.703125 C 9.851562 10.703125 9.808594 10.707031 9.765625 10.789062 C 9.734375 10.847656 9.722656 11.222656 9.730469 11.910156 C 9.742188 12.769531 9.753906 12.949219 9.808594 12.980469 C 9.878906 13.027344 11 13.039062 11.15625 12.996094 Z M 11.15625 12.996094 "/>
<path style=" stroke:none;fill-rule:nonzero;fill:rgb(100%,100%,100%);fill-opacity:1;" d="M 12.398438 12.980469 C 12.476562 12.9375 12.480469 12.878906 12.480469 12.054688 L 12.480469 11.175781 L 12.703125 11.175781 C 12.824219 11.175781 12.96875 11.164062 13.015625 11.148438 C 13.128906 11.117188 13.175781 10.964844 13.117188 10.8125 L 13.074219 10.703125 L 12.257812 10.703125 C 11.808594 10.703125 11.414062 10.71875 11.382812 10.738281 C 11.324219 10.777344 11.304688 11.070312 11.355469 11.121094 C 11.371094 11.136719 11.515625 11.160156 11.675781 11.167969 L 11.972656 11.183594 L 11.972656 12.058594 C 11.972656 12.847656 11.976562 12.9375 12.046875 12.976562 C 12.140625 13.035156 12.296875 13.035156 12.398438 12.980469 Z M 12.398438 12.980469 "/>
<path style=" stroke:none;fill-rule:nonzero;fill:rgb(100%,100%,100%);fill-opacity:1;" d="M 13.328125 12.980469 C 13.371094 12.957031 13.4375 12.84375 13.480469 12.722656 L 13.558594 12.503906 L 13.9375 12.515625 L 14.320312 12.53125 L 14.386719 12.734375 C 14.460938 12.964844 14.523438 13.023438 14.691406 13.023438 C 14.851562 13.023438 14.941406 12.984375 14.941406 12.910156 C 14.941406 12.808594 14.171875 10.769531 14.117188 10.734375 C 14.039062 10.683594 13.804688 10.699219 13.742188 10.761719 C 13.710938 10.792969 13.507812 11.289062 13.289062 11.867188 C 12.921875 12.84375 12.902344 12.914062 12.972656 12.96875 C 13.0625 13.035156 13.21875 13.039062 13.328125 12.980469 Z M 13.328125 12.980469 "/>
<path style=" stroke:none;fill-rule:nonzero;fill:rgb(23.921569%,23.921569%,24.705882%);fill-opacity:1;" d="M 13.742188 12.054688 C 13.730469 12.039062 13.757812 11.929688 13.800781 11.808594 C 13.847656 11.683594 13.894531 11.554688 13.90625 11.519531 C 13.925781 11.464844 14.132812 11.941406 14.132812 12.046875 C 14.132812 12.082031 13.777344 12.089844 13.742188 12.054688 Z M 13.742188 12.054688 "/>
</g>
</svg>
