
<svg xmlns="http://www.w3.org/2000/svg" xmlns:xlink="http://www.w3.org/1999/xlink" width="16px" height="16px" viewBox="0 0 16 16" version="1.1">
<g id="surface1">
<path style="fill-rule:nonzero;fill:rgb(100%,100%,100%);fill-opacity:1;stroke-width:27.987738;stroke-linecap:butt;stroke-linejoin:miter;stroke:rgb(60%,60%,60%);stroke-opacity:1;stroke-miterlimit:4;" d="M 82.75 26.75 L 429.25 26.75 C 460.125 26.75 485.25 51.875 485.25 82.75 L 485.25 429.25 C 485.25 460.125 460.125 485.25 429.25 485.25 L 82.75 485.25 C 51.875 485.25 26.75 460.125 26.75 429.25 L 26.75 82.75 C 26.75 51.875 51.875 26.75 82.75 26.75 Z M 82.75 26.75 " transform="matrix(0.03125,0,0,0.03125,0,0)"/>
<path style="fill-rule:nonzero;fill:rgb(60%,60%,60%);fill-opacity:1;stroke-width:10.546;stroke-linecap:butt;stroke-linejoin:miter;stroke:rgb(60%,60%,60%);stroke-opacity:1;stroke-miterlimit:10;" d="M 341.333342 89.666669 C 202.333339 89.666669 89.666669 202.333339 89.666669 341.333342 C 89.666669 480.333346 202.333339 593.000016 341.333342 593.000016 C 480.333346 593.000016 593.000016 480.333346 593.000016 341.333342 C 593.000016 202.333339 480.333346 89.666669 341.333342 89.666669 Z M 312.333342 128.333337 L 370.333343 128.333337 L 370.333343 315.166675 L 364.666676 417.166678 L 318.333342 417.166678 L 312.333342 315.166675 Z M 312.333342 481.833346 L 370.333343 481.833346 L 370.333343 554.333348 L 312.333342 554.333348 Z M 312.333342 481.833346 " transform="matrix(0.0234375,0,0,0.0234375,0,0)"/>
</g>
</svg>
