
<svg xmlns="http://www.w3.org/2000/svg" xmlns:xlink="http://www.w3.org/1999/xlink" width="16px" height="16px" viewBox="0 0 16 16" version="1.1">
<g id="surface1">
<path style="fill-rule:nonzero;fill:rgb(12.54902%,43.921569%,56.862745%);fill-opacity:1;stroke-width:27.285545;stroke-linecap:butt;stroke-linejoin:miter;stroke:rgb(16.470588%,49.803922%,100%);stroke-opacity:1;stroke-miterlimit:4;" d="M 63.375 20.625 L 448.625 20.625 C 469.25 20.625 486.125 37.375 486.125 58 L 486.125 454 C 486.125 474.625 469.25 491.375 448.625 491.375 L 63.375 491.375 C 42.75 491.375 25.875 474.625 25.875 454 L 25.875 58 C 25.875 37.375 42.75 20.625 63.375 20.625 Z M 63.375 20.625 " transform="matrix(0.03125,0,0,0.03125,0,0)"/>
<path style=" stroke:none;fill-rule:nonzero;fill:rgb(100%,100%,100%);fill-opacity:1;" d="M 9.839844 6.621094 C 10.636719 6.082031 10.6875 5.214844 9.957031 4.683594 C 9.226562 4.152344 7.988281 4.160156 7.191406 4.699219 C 6.394531 5.234375 6.339844 6.101562 7.070312 6.632812 C 7.804688 7.164062 9.042969 7.15625 9.839844 6.621094 Z M 9.839844 6.621094 "/>
<path style=" stroke:none;fill-rule:nonzero;fill:rgb(100%,100%,100%);fill-opacity:1;" d="M 7.441406 7.140625 C 7.933594 7.414062 8.042969 7.992188 7.6875 8.429688 L 4.53125 12.328125 C 4.175781 12.765625 3.492188 12.898438 3 12.621094 C 2.507812 12.347656 2.398438 11.769531 2.75 11.332031 L 5.910156 7.4375 C 6.261719 7 6.949219 6.867188 7.441406 7.140625 Z M 7.441406 7.140625 "/>
<path style=" stroke:none;fill-rule:nonzero;fill:rgb(100%,100%,100%);fill-opacity:1;" d="M 9.445312 8.792969 C 9.414062 8.785156 9.378906 8.78125 9.34375 8.773438 C 9.152344 8.742188 8.933594 8.75 8.703125 8.792969 C 8.671875 8.757812 8.625 8.734375 8.566406 8.722656 L 8.363281 8.679688 C 8.132812 8.628906 7.804688 8.78125 7.628906 9.019531 L 5.320312 12.089844 C 5.140625 12.328125 5.183594 12.5625 5.414062 12.609375 L 5.617188 12.652344 C 5.84375 12.703125 6.171875 12.550781 6.351562 12.3125 L 7.078125 11.351562 C 7.566406 11.640625 8.398438 11.519531 9.105469 11.0625 C 9.523438 10.792969 9.847656 10.4375 10.007812 10.070312 C 10.171875 9.707031 10.15625 9.363281 9.972656 9.117188 C 9.855469 8.960938 9.671875 8.851562 9.445312 8.792969 Z M 8.953125 9.34375 C 9.109375 9.371094 9.238281 9.4375 9.316406 9.542969 C 9.539062 9.839844 9.316406 10.347656 8.8125 10.671875 C 8.3125 10.996094 7.722656 11.019531 7.5 10.722656 C 7.273438 10.421875 7.5 9.917969 8 9.589844 C 8.308594 9.390625 8.667969 9.296875 8.953125 9.34375 Z M 8.953125 9.34375 "/>
<path style=" stroke:none;fill-rule:nonzero;fill:rgb(100%,100%,100%);fill-opacity:1;" d="M 8.664062 1.625 C 5.921875 1.707031 3.230469 3.238281 1.882812 5.476562 C 1.863281 5.511719 1.84375 5.542969 1.824219 5.578125 C 3.796875 2.976562 7.503906 1.71875 10.476562 2.640625 C 12.683594 3.746094 13.617188 6.03125 12.832031 8.394531 L 13.753906 9.003906 C 15.351562 6.066406 14.144531 2.953125 11.011719 1.941406 C 10.285156 1.707031 9.488281 1.597656 8.664062 1.625 Z M 8.664062 1.625 "/>
</g>
</svg>
