
<svg xmlns="http://www.w3.org/2000/svg" xmlns:xlink="http://www.w3.org/1999/xlink" width="16px" height="16px" viewBox="0 0 16 16" version="1.1">
<g id="surface1">
<path style="fill-rule:nonzero;fill:rgb(100%,100%,100%);fill-opacity:1;stroke-width:3.131993;stroke-linecap:butt;stroke-linejoin:miter;stroke:rgb(27.058824%,27.058824%,27.058824%);stroke-opacity:0.627451;stroke-miterlimit:4;" d="M 9.890625 4.96875 L 54.109375 4.96875 C 56.484375 4.96875 58.40625 6.90625 58.40625 9.28125 L 58.40625 54.71875 C 58.40625 57.09375 56.484375 59.03125 54.109375 59.03125 L 9.890625 59.03125 C 7.515625 59.03125 5.59375 57.09375 5.59375 54.71875 L 5.59375 9.28125 C 5.59375 6.90625 7.515625 4.96875 9.890625 4.96875 Z M 9.890625 4.96875 " transform="matrix(0.25,0,0,0.25,0,0)"/>
<path style="fill-rule:nonzero;fill:rgb(100%,100%,100%);fill-opacity:1;stroke-width:3.131993;stroke-linecap:butt;stroke-linejoin:miter;stroke:rgb(27.058824%,27.058824%,27.058824%);stroke-opacity:0.627451;stroke-miterlimit:4;" d="M 9.890625 4.96875 C 7.515625 4.96875 5.59375 6.90625 5.59375 9.28125 L 5.59375 54.71875 C 5.59375 57.09375 7.515625 59.015625 9.890625 59.015625 L 54.109375 59.015625 C 56.484375 59.015625 58.40625 57.09375 58.40625 54.71875 L 58.40625 9.28125 C 58.40625 6.90625 56.484375 4.96875 54.109375 4.96875 Z M 22.421875 19.34375 L 25.765625 19.34375 L 34.109375 41.21875 L 31.03125 41.21875 L 29.03125 35.609375 L 19.171875 35.609375 L 17.1875 41.21875 L 14.0625 41.21875 Z M 24.078125 22.265625 L 20.078125 33.15625 L 28.109375 33.15625 Z M 42.921875 24.421875 C 45.296875 24.421875 47.0625 25.03125 48.234375 26.265625 C 49.40625 27.5 50 29.359375 50 31.859375 L 50 41.21875 L 47.296875 41.21875 L 47.296875 38.734375 C 46.6875 39.734375 45.921875 40.46875 45 40.9375 C 44.078125 41.40625 42.96875 41.640625 41.640625 41.640625 C 39.953125 41.640625 38.609375 41.171875 37.625 40.234375 C 36.640625 39.296875 36.140625 38.03125 36.140625 36.453125 C 36.140625 34.59375 36.75 33.203125 37.984375 32.265625 C 39.21875 31.328125 41.078125 30.859375 43.515625 30.859375 L 47.296875 30.859375 L 47.296875 30.59375 C 47.296875 29.359375 46.890625 28.40625 46.078125 27.734375 C 45.265625 27.046875 44.125 26.703125 42.640625 26.703125 C 41.703125 26.703125 40.796875 26.8125 39.90625 27.046875 C 39.015625 27.265625 38.15625 27.609375 37.34375 28.046875 L 37.34375 25.5625 C 38.328125 25.1875 39.28125 24.890625 40.21875 24.71875 C 41.140625 24.515625 42.046875 24.421875 42.921875 24.421875 Z M 44.625 32.96875 C 42.4375 32.96875 40.9375 33.21875 40.09375 33.71875 C 39.25 34.21875 38.828125 35.0625 38.828125 36.265625 C 38.828125 37.234375 39.140625 37.984375 39.765625 38.5625 C 40.40625 39.109375 41.265625 39.390625 42.34375 39.390625 C 43.84375 39.390625 45.046875 38.859375 45.9375 37.8125 C 46.84375 36.75 47.296875 35.328125 47.296875 33.578125 L 47.296875 32.96875 Z M 44.625 32.96875 " transform="matrix(0.25,0,0,0.25,0,0)"/>
</g>
</svg>
