<!-- color: #54d160 -->
<svg xmlns="http://www.w3.org/2000/svg" xmlns:xlink="http://www.w3.org/1999/xlink" width="16px" height="16px" viewBox="0 0 16 16" version="1.1">
<g id="surface1">
<path style="fill-rule:nonzero;fill:rgb(100%,100%,100%);fill-opacity:1;stroke-width:28.178816;stroke-linecap:butt;stroke-linejoin:miter;stroke:rgb(56.078431%,85.098039%,0.784314%);stroke-opacity:1;stroke-miterlimit:4;" d="M 81.5 25.25 L 430.5 25.25 C 461.625 25.25 486.75 50.375 486.75 81.5 L 486.75 430.5 C 486.75 461.625 461.625 486.75 430.5 486.75 L 81.5 486.75 C 50.375 486.75 25.25 461.625 25.25 430.5 L 25.25 81.5 C 25.25 50.375 50.375 25.25 81.5 25.25 Z M 81.5 25.25 " transform="matrix(0.03125,0,0,0.03125,0,0)"/>
<path style="fill-rule:nonzero;fill:rgb(56.078431%,85.098039%,0.784314%);fill-opacity:1;stroke-width:40.818562;stroke-linecap:butt;stroke-linejoin:miter;stroke:rgb(56.078431%,85.098039%,0.784314%);stroke-opacity:1;stroke-miterlimit:4;" d="M 411.875 256 C 411.875 342 342.125 411.75 256 411.75 C 170 411.75 100.25 342 100.25 256 C 100.25 170 170 100.25 256 100.25 C 342.125 100.25 411.875 170 411.875 256 Z M 411.875 256 " transform="matrix(0.03125,0,0,0.03125,0,0)"/>
<path style="fill-rule:nonzero;fill:rgb(56.078431%,85.098039%,0.784314%);fill-opacity:1;stroke-width:40.818562;stroke-linecap:butt;stroke-linejoin:miter;stroke:rgb(56.078431%,85.098039%,0.784314%);stroke-opacity:1;stroke-miterlimit:4;" d="M 411.875 256 C 411.875 342 342.125 411.75 256 411.75 C 170 411.75 100.25 342 100.25 256 C 100.25 170 170 100.25 256 100.25 C 342.125 100.25 411.875 170 411.875 256 Z M 411.875 256 " transform="matrix(0.03125,0,0,0.03125,0,0)"/>
<path style=" stroke:none;fill-rule:nonzero;fill:rgb(30.196078%,30.196078%,30.196078%);fill-opacity:1;" d="M 2.496094 6.585938 L 2.496094 9.414062 L 4.5625 9.414062 L 4.5625 8.648438 L 13.523438 8.648438 L 13.523438 7.351562 L 4.5625 7.351562 L 4.5625 6.585938 Z M 2.496094 6.585938 "/>
<path style=" stroke:none;fill-rule:nonzero;fill:rgb(56.078431%,85.098039%,0.784314%);fill-opacity:1;" d="M 3.847656 13.507812 L 2.496094 13.507812 L 2.496094 12.152344 L 3.847656 12.152344 Z M 3.847656 13.507812 "/>
<path style=" stroke:none;fill-rule:nonzero;fill:rgb(56.078431%,85.098039%,0.784314%);fill-opacity:1;" d="M 13.507812 13.507812 L 12.152344 13.507812 L 12.152344 12.152344 L 13.507812 12.152344 Z M 13.507812 13.507812 "/>
<path style=" stroke:none;fill-rule:nonzero;fill:rgb(56.078431%,85.098039%,0.784314%);fill-opacity:1;" d="M 13.507812 3.847656 L 12.152344 3.847656 L 12.152344 2.492188 L 13.507812 2.492188 Z M 13.507812 3.847656 "/>
<path style=" stroke:none;fill-rule:nonzero;fill:rgb(56.078431%,85.098039%,0.784314%);fill-opacity:1;" d="M 3.847656 3.847656 L 2.496094 3.847656 L 2.496094 2.492188 L 3.847656 2.492188 Z M 3.847656 3.847656 "/>
</g>
</svg>
