
<svg xmlns="http://www.w3.org/2000/svg" xmlns:xlink="http://www.w3.org/1999/xlink" width="16px" height="16px" viewBox="0 0 16 16" version="1.1">
<g id="surface1">
<path style="fill-rule:nonzero;fill:rgb(16.862745%,23.921569%,30.980392%);fill-opacity:1;stroke-width:27.27438;stroke-linecap:butt;stroke-linejoin:miter;stroke:rgb(16.862745%,23.921569%,30.980392%);stroke-opacity:1;stroke-miterlimit:4;" d="M 83.125 43.625 L 424.5 43.625 C 455 43.625 479.625 67.875 479.625 97.625 L 479.625 431.75 C 479.625 461.5 455 485.625 424.5 485.625 L 83.125 485.625 C 52.75 485.625 28 461.5 28 431.75 L 28 97.625 C 28 67.875 52.75 43.625 83.125 43.625 Z M 83.125 43.625 " transform="matrix(0.03125,0,0,0.03125,0,0)"/>
<path style=" stroke:none;fill-rule:nonzero;fill:rgb(49.019608%,72.156863%,0%);fill-opacity:1;" d="M 8.238281 2.429688 L 8.238281 7.972656 L 13.898438 7.972656 L 13.898438 3.785156 C 13.898438 3.035156 13.28125 2.429688 12.515625 2.429688 Z M 8.238281 2.429688 "/>
<path style=" stroke:none;fill-rule:nonzero;fill:rgb(0%,63.137255%,93.333333%);fill-opacity:1;" d="M 7.628906 14.113281 L 7.628906 8.570312 L 1.964844 8.570312 L 1.964844 12.757812 C 1.964844 13.507812 2.582031 14.113281 3.347656 14.113281 Z M 7.628906 14.113281 "/>
<path style=" stroke:none;fill-rule:nonzero;fill:rgb(94.117647%,29.803922%,11.764706%);fill-opacity:1;" d="M 1.964844 7.972656 L 7.628906 7.972656 L 7.628906 2.429688 L 3.347656 2.429688 C 2.582031 2.429688 1.964844 3.035156 1.964844 3.785156 Z M 1.964844 7.972656 "/>
<path style=" stroke:none;fill-rule:nonzero;fill:rgb(99.215686%,72.156863%,0%);fill-opacity:1;" d="M 13.898438 8.570312 L 8.238281 8.570312 L 8.238281 14.113281 L 12.515625 14.113281 C 13.28125 14.113281 13.898438 13.507812 13.898438 12.757812 Z M 13.898438 8.570312 "/>
</g>
</svg>
