
<svg xmlns="http://www.w3.org/2000/svg" xmlns:xlink="http://www.w3.org/1999/xlink" width="16px" height="16px" viewBox="0 0 16 16" version="1.1">
<g id="surface1">
<path style="fill-rule:nonzero;fill:rgb(98.039216%,94.117647%,94.117647%);fill-opacity:1;stroke-width:27.285545;stroke-linecap:butt;stroke-linejoin:miter;stroke:rgb(60%,60%,60%);stroke-opacity:1;stroke-miterlimit:4;" d="M 63.375 20.625 L 448.625 20.625 C 469.25 20.625 486.125 37.375 486.125 58 L 486.125 454 C 486.125 474.625 469.25 491.375 448.625 491.375 L 63.375 491.375 C 42.75 491.375 25.875 474.625 25.875 454 L 25.875 58 C 25.875 37.375 42.75 20.625 63.375 20.625 Z M 63.375 20.625 " transform="matrix(0.03125,0,0,0.03125,0,0)"/>
<path style=" stroke:none;fill-rule:nonzero;fill:rgb(21.568627%,78.431373%,21.568627%);fill-opacity:1;" d="M 7.0625 5.203125 C 7.0625 4.316406 6.496094 3.597656 5.796875 3.597656 C 5.097656 3.597656 4.527344 4.316406 4.527344 5.203125 C 4.527344 6.089844 5.097656 6.8125 5.796875 6.8125 C 6.496094 6.8125 7.0625 6.089844 7.0625 5.203125 Z M 7.0625 5.203125 "/>
<path style=" stroke:none;fill-rule:nonzero;fill:rgb(21.568627%,78.431373%,21.568627%);fill-opacity:1;" d="M 5.796875 6.8125 C 7.066406 6.8125 8.351562 7.621094 8.089844 8.550781 L 7.089844 12.101562 C 6.828125 13.027344 7.066406 13.839844 5.796875 13.839844 C 4.523438 13.839844 4.824219 13.023438 4.550781 12.101562 L 3.5 8.550781 C 3.230469 7.625 4.523438 6.8125 5.796875 6.8125 Z M 5.796875 6.8125 "/>
<path style=" stroke:none;fill-rule:nonzero;fill:rgb(16.470588%,49.803922%,100%);fill-opacity:1;" d="M 10.898438 3.648438 C 10.898438 2.578125 10.214844 1.707031 9.367188 1.707031 C 8.523438 1.707031 7.835938 2.578125 7.835938 3.648438 C 7.835938 4.722656 8.523438 5.589844 9.367188 5.589844 C 10.214844 5.589844 10.898438 4.722656 10.898438 3.648438 Z M 10.898438 3.648438 "/>
<path style=" stroke:none;fill-rule:nonzero;fill:rgb(16.470588%,49.803922%,100%);fill-opacity:1;" d="M 9.367188 5.589844 C 10.902344 5.589844 12.457031 6.570312 12.140625 7.691406 L 10.929688 11.980469 C 10.617188 13.101562 10.902344 14.082031 9.367188 14.082031 C 7.832031 14.082031 8.195312 13.097656 7.867188 11.980469 L 6.597656 7.691406 C 6.269531 6.574219 7.832031 5.589844 9.367188 5.589844 Z M 9.367188 5.589844 "/>
</g>
</svg>
