<!-- color: #474747 -->
<svg xmlns="http://www.w3.org/2000/svg" xmlns:xlink="http://www.w3.org/1999/xlink" width="16px" height="16px" viewBox="0 0 16 16" version="1.1">
<defs>
<clipPath id="clip1">
  <path d="M 4.125 3.375 L 11.96875 3.375 L 11.96875 11.875 L 4.125 11.875 Z M 4.125 3.375 "/>
</clipPath>
<clipPath id="clip2">
  <path d="M 15.523438 7.941406 C 15.523438 12.074219 12.167969 15.425781 8.039062 15.425781 C 3.90625 15.425781 0.554688 12.074219 0.554688 7.941406 C 0.554688 3.804688 3.90625 0.453125 8.039062 0.453125 C 12.167969 0.453125 15.523438 3.804688 15.523438 7.941406 Z M 15.523438 7.941406 "/>
</clipPath>
</defs>
<g id="surface1">
<path style="fill-rule:nonzero;fill:rgb(100%,100%,100%);fill-opacity:1;stroke-width:28.797188;stroke-linecap:butt;stroke-linejoin:miter;stroke:rgb(50.196078%,50.196078%,50.196078%);stroke-opacity:1;stroke-miterlimit:4;" d="M 77.75 20.125 L 434.25 20.125 C 466.125 20.125 491.875 45.875 491.875 77.75 L 491.875 434.25 C 491.875 466.125 466.125 491.875 434.25 491.875 L 77.75 491.875 C 45.875 491.875 20.125 466.125 20.125 434.25 L 20.125 77.75 C 20.125 45.875 45.875 20.125 77.75 20.125 Z M 77.75 20.125 " transform="matrix(0.03125,0,0,0.03125,0,0)"/>
<g clip-path="url(#clip1)" clip-rule="nonzero">
<g clip-path="url(#clip2)" clip-rule="nonzero">
<path style=" stroke:none;fill-rule:nonzero;fill:rgb(50.196078%,50.196078%,50.196078%);fill-opacity:1;" d="M 8.039062 3.382812 C 8.039062 3.382812 10.96875 3.382812 10.96875 5.285156 L 10.96875 6.964844 C 10.96875 6.964844 11.941406 6.964844 11.941406 7.613281 L 11.941406 10.996094 C 11.941406 11.84375 10.96875 11.84375 10.96875 11.84375 L 5.109375 11.84375 C 5.109375 11.84375 4.132812 11.84375 4.132812 10.996094 L 4.132812 7.613281 C 4.132812 6.964844 5.109375 6.964844 5.109375 6.964844 L 5.109375 5.285156 C 5.109375 3.382812 8.039062 3.382812 8.039062 3.382812 M 8.039062 4.441406 C 8.039062 4.441406 6.410156 4.390625 6.410156 5.660156 L 6.410156 6.964844 L 9.664062 6.964844 L 9.664062 5.660156 C 9.664062 4.390625 8.039062 4.441406 8.039062 4.441406 M 8.039062 4.441406 "/>
</g>
</g>
</g>
</svg>
