
<svg xmlns="http://www.w3.org/2000/svg" xmlns:xlink="http://www.w3.org/1999/xlink" width="16px" height="16px" viewBox="0 0 16 16" version="1.1">
<g id="surface1">
<path style="fill-rule:nonzero;fill:rgb(12.941176%,12.941176%,12.941176%);fill-opacity:1;stroke-width:27.27438;stroke-linecap:butt;stroke-linejoin:miter;stroke:rgb(48.627451%,53.333333%,57.647059%);stroke-opacity:1;stroke-miterlimit:4;" d="M 85.375 35 L 426.625 35 C 457.125 35 481.75 59.125 481.75 89 L 481.75 423 C 481.75 452.875 457.125 477 426.625 477 L 85.375 477 C 54.875 477 30.25 452.875 30.25 423 L 30.25 89 C 30.25 59.125 54.875 35 85.375 35 Z M 85.375 35 " transform="matrix(0.03125,0,0,0.03125,0,0)"/>
<path style=" stroke:none;fill-rule:nonzero;fill:rgb(12.941176%,12.941176%,12.941176%);fill-opacity:1;" d="M 1.726562 3.773438 L 14.332031 3.773438 L 14.332031 7.320312 L 1.726562 7.320312 Z M 1.726562 3.773438 "/>
<path style=" stroke:none;fill-rule:nonzero;fill:rgb(11.764706%,18.039216%,21.960784%);fill-opacity:0.992157;" d="M 1.730469 3.707031 L 1.730469 7.5 L 14.277344 7.5 L 14.277344 3.707031 Z M 1.734375 8.515625 L 1.734375 12.308594 L 14.277344 12.308594 L 14.277344 8.515625 Z M 1.734375 8.515625 "/>
<path style="fill-rule:evenodd;fill:rgb(15.686275%,21.960784%,27.058824%);fill-opacity:1;stroke-width:1.871346;stroke-linecap:butt;stroke-linejoin:miter;stroke:rgb(12.941176%,12.941176%,12.941176%);stroke-opacity:1;stroke-miterlimit:4;" d="M 54.918897 119.552828 L 54.918897 240.927828 M 72.293897 119.552828 L 72.293897 240.927828 M 89.793897 119.552828 L 89.793897 240.927828 M 107.293897 119.552828 L 107.293897 240.927828 M 124.793897 119.552828 L 124.793897 240.927828 M 142.168897 119.552828 L 142.168897 240.927828 M 159.668897 119.552828 L 159.668897 240.927828 M 177.168897 119.552828 L 177.168897 240.927828 M 194.543897 119.552828 L 194.543897 240.927828 M 212.043897 119.552828 L 212.043897 240.927828 M 229.543897 119.552828 L 229.543897 240.927828 M 247.043897 119.552828 L 247.043897 240.927828 M 264.418897 119.552828 L 264.418897 240.927828 M 281.918897 119.552828 L 281.918897 240.927828 M 299.418897 119.552828 L 299.418897 240.927828 M 316.918897 119.552828 L 316.918897 240.927828 M 334.293897 119.552828 L 334.293897 240.927828 M 351.793897 119.552828 L 351.793897 240.927828 M 369.293897 119.552828 L 369.293897 240.927828 M 386.668897 119.552828 L 386.668897 240.927828 M 404.168897 119.552828 L 404.168897 240.927828 M 421.668897 119.552828 L 421.668897 240.927828 M 439.168897 119.552828 L 439.168897 240.927828 M 456.543897 119.552828 L 456.543897 240.927828 M 54.918897 119.552828 L 458.168897 119.552828 M 54.918897 136.802828 L 458.168897 136.802828 M 54.918897 154.177828 L 458.168897 154.177828 M 54.918897 171.427828 L 458.168897 171.427828 M 54.918897 188.677828 L 458.168897 188.677828 M 54.918897 205.927828 L 458.168897 205.927828 M 54.918897 223.177828 L 458.168897 223.177828 M 54.918897 240.427828 L 458.168897 240.427828 " transform="matrix(0.03125,0,0,0.03125,-0.0169968,-0.0289946)"/>
<path style="fill-rule:evenodd;fill:rgb(43.137255%,45.098039%,45.098039%);fill-opacity:0.905882;stroke-width:1.871346;stroke-linecap:butt;stroke-linejoin:miter;stroke:rgb(12.941176%,12.941176%,12.941176%);stroke-opacity:1;stroke-miterlimit:4;" d="M 54.918897 273.427828 L 54.918897 394.802828 M 72.418897 273.427828 L 72.418897 394.802828 M 89.918897 273.427828 L 89.918897 394.802828 M 107.293897 273.427828 L 107.293897 394.802828 M 124.793897 273.427828 L 124.793897 394.802828 M 142.293897 273.427828 L 142.293897 394.802828 M 159.793897 273.427828 L 159.793897 394.802828 M 177.168897 273.427828 L 177.168897 394.802828 M 194.668897 273.427828 L 194.668897 394.802828 M 212.168897 273.427828 L 212.168897 394.802828 M 229.668897 273.427828 L 229.668897 394.802828 M 247.043897 273.427828 L 247.043897 394.802828 M 264.543897 273.427828 L 264.543897 394.802828 M 282.043897 273.427828 L 282.043897 394.802828 M 299.418897 273.427828 L 299.418897 394.802828 M 316.918897 273.427828 L 316.918897 394.802828 M 334.418897 273.427828 L 334.418897 394.802828 M 351.918897 273.427828 L 351.918897 394.802828 M 369.293897 273.427828 L 369.293897 394.802828 M 386.793897 273.427828 L 386.793897 394.802828 M 404.293897 273.427828 L 404.293897 394.802828 M 421.793897 273.427828 L 421.793897 394.802828 M 439.168897 273.427828 L 439.168897 394.802828 M 456.668897 273.427828 L 456.668897 394.802828 M 54.918897 273.427828 L 458.293897 273.427828 M 54.918897 290.677828 L 458.293897 290.677828 M 54.918897 307.927828 L 458.293897 307.927828 M 54.918897 325.177828 L 458.293897 325.177828 M 54.918897 342.427828 L 458.293897 342.427828 M 54.918897 359.677828 L 458.293897 359.677828 M 54.918897 377.052828 L 458.293897 377.052828 M 54.918897 394.302828 L 458.293897 394.302828 " transform="matrix(0.03125,0,0,0.03125,-0.0169968,-0.0289946)"/>
<path style=" stroke:none;fill-rule:nonzero;fill:rgb(29.019608%,68.235294%,90.196078%);fill-opacity:0.992157;" d="M 2.273438 4.289062 L 2.273438 4.75 L 2.738281 4.75 L 2.738281 4.289062 Z M 2.835938 4.289062 L 2.835938 4.75 L 3.296875 4.75 L 3.296875 4.289062 Z M 4.46875 4.289062 L 4.46875 4.75 L 4.929688 4.75 L 4.929688 4.289062 Z M 5.003906 4.289062 L 5.003906 4.75 L 5.46875 4.75 L 5.46875 4.289062 Z M 5.566406 4.289062 L 5.566406 4.75 L 6.027344 4.75 L 6.027344 4.289062 Z M 7.195312 4.289062 L 7.195312 4.75 L 7.660156 4.75 L 7.660156 4.289062 Z M 7.734375 4.289062 L 7.734375 4.75 L 8.195312 4.75 L 8.195312 4.289062 Z M 8.292969 4.289062 L 8.292969 4.75 L 8.757812 4.75 L 8.757812 4.289062 Z M 9.390625 4.289062 L 9.390625 4.75 L 9.851562 4.75 L 9.851562 4.289062 Z M 11.023438 4.289062 L 11.023438 4.75 L 11.484375 4.75 L 11.484375 4.289062 Z M 12.65625 4.289062 L 12.65625 4.75 L 13.117188 4.75 L 13.117188 4.289062 Z M 13.191406 4.289062 L 13.191406 4.75 L 13.652344 4.75 L 13.652344 4.289062 Z M 1.738281 4.824219 L 1.738281 5.285156 L 2.203125 5.285156 L 2.203125 4.824219 Z M 3.371094 4.824219 L 3.371094 5.285156 L 3.835938 5.285156 L 3.835938 4.824219 Z M 4.46875 4.824219 L 4.46875 5.285156 L 4.929688 5.285156 L 4.929688 4.824219 Z M 6.101562 4.824219 L 6.101562 5.285156 L 6.5625 5.285156 L 6.5625 4.824219 Z M 7.734375 4.824219 L 7.734375 5.285156 L 8.195312 5.285156 L 8.195312 4.824219 Z M 9.390625 4.824219 L 9.390625 5.285156 L 9.851562 5.285156 L 9.851562 4.824219 Z M 11.023438 4.824219 L 11.023438 5.285156 L 11.484375 5.285156 L 11.484375 4.824219 Z M 12.121094 4.824219 L 12.121094 5.285156 L 12.582031 5.285156 L 12.582031 4.824219 Z M 13.75 4.824219 L 13.75 5.285156 L 14.214844 5.285156 L 14.214844 4.824219 Z M 1.738281 5.359375 L 1.738281 5.824219 L 2.203125 5.824219 L 2.203125 5.359375 Z M 3.371094 5.359375 L 3.371094 5.824219 L 3.835938 5.824219 L 3.835938 5.359375 Z M 4.46875 5.359375 L 4.46875 5.824219 L 4.929688 5.824219 L 4.929688 5.359375 Z M 6.101562 5.359375 L 6.101562 5.824219 L 6.5625 5.824219 L 6.5625 5.359375 Z M 7.734375 5.359375 L 7.734375 5.824219 L 8.195312 5.824219 L 8.195312 5.359375 Z M 9.390625 5.359375 L 9.390625 5.824219 L 9.851562 5.824219 L 9.851562 5.359375 Z M 11.023438 5.359375 L 11.023438 5.824219 L 11.484375 5.824219 L 11.484375 5.359375 Z M 12.121094 5.359375 L 12.121094 5.824219 L 12.582031 5.824219 L 12.582031 5.359375 Z M 13.75 5.359375 L 13.75 5.824219 L 14.214844 5.824219 L 14.214844 5.359375 Z M 1.738281 5.894531 L 1.738281 6.359375 L 2.203125 6.359375 L 2.203125 5.894531 Z M 2.273438 5.894531 L 2.273438 6.359375 L 2.738281 6.359375 L 2.738281 5.894531 Z M 2.835938 5.894531 L 2.835938 6.359375 L 3.296875 6.359375 L 3.296875 5.894531 Z M 3.371094 5.894531 L 3.371094 6.359375 L 3.835938 6.359375 L 3.835938 5.894531 Z M 4.46875 5.894531 L 4.46875 6.359375 L 4.929688 6.359375 L 4.929688 5.894531 Z M 5.003906 5.894531 L 5.003906 6.359375 L 5.46875 6.359375 L 5.46875 5.894531 Z M 5.566406 5.894531 L 5.566406 6.359375 L 6.027344 6.359375 L 6.027344 5.894531 Z M 7.734375 5.894531 L 7.734375 6.359375 L 8.195312 6.359375 L 8.195312 5.894531 Z M 9.390625 5.894531 L 9.390625 6.359375 L 9.851562 6.359375 L 9.851562 5.894531 Z M 11.023438 5.894531 L 11.023438 6.359375 L 11.484375 6.359375 L 11.484375 5.894531 Z M 12.121094 5.894531 L 12.121094 6.359375 L 12.582031 6.359375 L 12.582031 5.894531 Z M 12.65625 5.894531 L 12.65625 6.359375 L 13.117188 6.359375 L 13.117188 5.894531 Z M 13.191406 5.894531 L 13.191406 6.359375 L 13.652344 6.359375 L 13.652344 5.894531 Z M 13.75 5.894531 L 13.75 6.359375 L 14.214844 6.359375 L 14.214844 5.894531 Z M 1.738281 6.457031 L 1.738281 6.894531 L 2.203125 6.894531 L 2.203125 6.457031 Z M 3.371094 6.457031 L 3.371094 6.894531 L 3.835938 6.894531 L 3.835938 6.457031 Z M 4.46875 6.457031 L 4.46875 6.894531 L 4.929688 6.894531 L 4.929688 6.457031 Z M 6.101562 6.457031 L 6.101562 6.894531 L 6.5625 6.894531 L 6.5625 6.457031 Z M 7.734375 6.457031 L 7.734375 6.894531 L 8.195312 6.894531 L 8.195312 6.457031 Z M 9.925781 6.457031 L 9.925781 6.894531 L 10.390625 6.894531 L 10.390625 6.457031 Z M 10.460938 6.457031 L 10.460938 6.894531 L 10.925781 6.894531 L 10.925781 6.457031 Z M 12.121094 6.457031 L 12.121094 6.894531 L 12.582031 6.894531 L 12.582031 6.457031 Z M 13.75 6.457031 L 13.75 6.894531 L 14.214844 6.894531 L 14.214844 6.457031 Z M 1.746094 9.09375 L 1.746094 9.554688 L 2.207031 9.554688 L 2.207031 9.09375 Z M 2.28125 9.09375 L 2.28125 9.554688 L 2.746094 9.554688 L 2.746094 9.09375 Z M 3.914062 9.09375 L 3.914062 9.554688 L 4.378906 9.554688 L 4.378906 9.09375 Z M 5.570312 9.09375 L 5.570312 9.554688 L 6.035156 9.554688 L 6.035156 9.09375 Z M 7.203125 9.09375 L 7.203125 9.554688 L 7.667969 9.554688 L 7.667969 9.09375 Z M 7.738281 9.09375 L 7.738281 9.554688 L 8.203125 9.554688 L 8.203125 9.09375 Z M 10.46875 9.09375 L 10.46875 9.554688 L 10.929688 9.554688 L 10.929688 9.09375 Z M 11.027344 9.09375 L 11.027344 9.554688 L 11.492188 9.554688 L 11.492188 9.09375 Z M 12.101562 9.09375 L 12.101562 9.554688 L 12.5625 9.554688 L 12.5625 9.09375 Z M 12.660156 9.09375 L 12.660156 9.554688 L 13.125 9.554688 L 13.125 9.09375 Z M 13.199219 9.09375 L 13.199219 9.554688 L 13.660156 9.554688 L 13.660156 9.09375 Z M 13.757812 9.09375 L 13.757812 9.554688 L 14.222656 9.554688 L 14.222656 9.09375 Z M 2.84375 9.628906 L 2.84375 10.09375 L 3.304688 10.09375 L 3.304688 9.628906 Z M 3.914062 9.628906 L 3.914062 10.09375 L 4.378906 10.09375 L 4.378906 9.628906 Z M 5.570312 9.628906 L 5.570312 10.09375 L 6.035156 10.09375 L 6.035156 9.628906 Z M 6.644531 9.628906 L 6.644531 10.09375 L 7.105469 10.09375 L 7.105469 9.628906 Z M 8.300781 9.628906 L 8.300781 10.09375 L 8.761719 10.09375 L 8.761719 9.628906 Z M 9.371094 9.628906 L 9.371094 10.09375 L 9.835938 10.09375 L 9.835938 9.628906 Z M 11.027344 9.628906 L 11.027344 10.09375 L 11.492188 10.09375 L 11.492188 9.628906 Z M 13.757812 9.628906 L 13.757812 10.09375 L 14.222656 10.09375 L 14.222656 9.628906 Z M 2.84375 10.164062 L 2.84375 10.628906 L 3.304688 10.628906 L 3.304688 10.164062 Z M 4.472656 10.164062 L 4.472656 10.628906 L 4.9375 10.628906 L 4.9375 10.164062 Z M 5.011719 10.164062 L 5.011719 10.628906 L 5.472656 10.628906 L 5.472656 10.164062 Z M 7.203125 10.164062 L 7.203125 10.628906 L 7.667969 10.628906 L 7.667969 10.164062 Z M 7.738281 10.164062 L 7.738281 10.628906 L 8.203125 10.628906 L 8.203125 10.164062 Z M 11.027344 10.164062 L 11.027344 10.628906 L 11.492188 10.628906 L 11.492188 10.164062 Z M 13.199219 10.164062 L 13.199219 10.628906 L 13.660156 10.628906 L 13.660156 10.164062 Z M 1.746094 10.726562 L 1.746094 11.164062 L 2.207031 11.164062 L 2.207031 10.726562 Z M 2.28125 10.726562 L 2.28125 11.164062 L 2.746094 11.164062 L 2.746094 10.726562 Z M 2.84375 10.726562 L 2.84375 11.164062 L 3.304688 11.164062 L 3.304688 10.726562 Z M 5.011719 10.726562 L 5.011719 11.164062 L 5.472656 11.164062 L 5.472656 10.726562 Z M 6.644531 10.726562 L 6.644531 11.164062 L 7.105469 11.164062 L 7.105469 10.726562 Z M 8.300781 10.726562 L 8.300781 11.164062 L 8.761719 11.164062 L 8.761719 10.726562 Z M 9.371094 10.726562 L 9.371094 11.164062 L 9.835938 11.164062 L 9.835938 10.726562 Z M 11.027344 10.726562 L 11.027344 11.164062 L 11.492188 11.164062 L 11.492188 10.726562 Z M 12.660156 10.726562 L 12.660156 11.164062 L 13.125 11.164062 L 13.125 10.726562 Z M 2.84375 11.261719 L 2.84375 11.699219 L 3.304688 11.699219 L 3.304688 11.261719 Z M 4.472656 11.261719 L 4.472656 11.699219 L 4.9375 11.699219 L 4.9375 11.261719 Z M 7.203125 11.261719 L 7.203125 11.699219 L 7.667969 11.699219 L 7.667969 11.261719 Z M 7.738281 11.261719 L 7.738281 11.699219 L 8.203125 11.699219 L 8.203125 11.261719 Z M 11.027344 11.261719 L 11.027344 11.699219 L 11.492188 11.699219 L 11.492188 11.261719 Z M 12.660156 11.261719 L 12.660156 11.699219 L 13.125 11.699219 L 13.125 11.261719 Z M 12.660156 11.261719 "/>
<path style=" stroke:none;fill-rule:nonzero;fill:rgb(29.803922%,74.117647%,93.333333%);fill-opacity:1;" d="M 9.925781 6.675781 L 9.925781 6.457031 L 10.390625 6.457031 L 10.390625 6.894531 L 9.925781 6.894531 Z M 9.925781 6.675781 "/>
</g>
</svg>
