
<svg xmlns="http://www.w3.org/2000/svg" xmlns:xlink="http://www.w3.org/1999/xlink" width="16px" height="16px" viewBox="0 0 16 16" version="1.1">
<defs>
<clipPath id="clip1">
  <path d="M 1 1 L 15 1 L 15 15 L 1 15 Z M 1 1 "/>
</clipPath>
<clipPath id="clip2">
  <path d="M 2.824219 1.152344 L 13.175781 1.152344 C 14.101562 1.152344 14.847656 1.898438 14.847656 2.824219 L 14.847656 13.175781 C 14.847656 14.101562 14.101562 14.847656 13.175781 14.847656 L 2.824219 14.847656 C 1.898438 14.847656 1.152344 14.101562 1.152344 13.175781 L 1.152344 2.824219 C 1.152344 1.898438 1.898438 1.152344 2.824219 1.152344 Z M 2.824219 1.152344 "/>
</clipPath>
<clipPath id="clip3">
  <path d="M 1 8 L 8 8 L 8 15 L 1 15 Z M 1 8 "/>
</clipPath>
<clipPath id="clip4">
  <path d="M 2.824219 1.152344 L 13.175781 1.152344 C 14.101562 1.152344 14.847656 1.898438 14.847656 2.824219 L 14.847656 13.175781 C 14.847656 14.101562 14.101562 14.847656 13.175781 14.847656 L 2.824219 14.847656 C 1.898438 14.847656 1.152344 14.101562 1.152344 13.175781 L 1.152344 2.824219 C 1.152344 1.898438 1.898438 1.152344 2.824219 1.152344 Z M 2.824219 1.152344 "/>
</clipPath>
<clipPath id="clip5">
  <path d="M 1 13 L 3 13 L 3 15 L 1 15 Z M 1 13 "/>
</clipPath>
<clipPath id="clip6">
  <path d="M 2.824219 1.152344 L 13.175781 1.152344 C 14.101562 1.152344 14.847656 1.898438 14.847656 2.824219 L 14.847656 13.175781 C 14.847656 14.101562 14.101562 14.847656 13.175781 14.847656 L 2.824219 14.847656 C 1.898438 14.847656 1.152344 14.101562 1.152344 13.175781 L 1.152344 2.824219 C 1.152344 1.898438 1.898438 1.152344 2.824219 1.152344 Z M 2.824219 1.152344 "/>
</clipPath>
<clipPath id="clip7">
  <path d="M 2 13 L 5 13 L 5 15 L 2 15 Z M 2 13 "/>
</clipPath>
<clipPath id="clip8">
  <path d="M 2.824219 1.152344 L 13.175781 1.152344 C 14.101562 1.152344 14.847656 1.898438 14.847656 2.824219 L 14.847656 13.175781 C 14.847656 14.101562 14.101562 14.847656 13.175781 14.847656 L 2.824219 14.847656 C 1.898438 14.847656 1.152344 14.101562 1.152344 13.175781 L 1.152344 2.824219 C 1.152344 1.898438 1.898438 1.152344 2.824219 1.152344 Z M 2.824219 1.152344 "/>
</clipPath>
<clipPath id="clip9">
  <path d="M 4 13 L 7 13 L 7 15 L 4 15 Z M 4 13 "/>
</clipPath>
<clipPath id="clip10">
  <path d="M 2.824219 1.152344 L 13.175781 1.152344 C 14.101562 1.152344 14.847656 1.898438 14.847656 2.824219 L 14.847656 13.175781 C 14.847656 14.101562 14.101562 14.847656 13.175781 14.847656 L 2.824219 14.847656 C 1.898438 14.847656 1.152344 14.101562 1.152344 13.175781 L 1.152344 2.824219 C 1.152344 1.898438 1.898438 1.152344 2.824219 1.152344 Z M 2.824219 1.152344 "/>
</clipPath>
<clipPath id="clip11">
  <path d="M 6 13 L 8 13 L 8 15 L 6 15 Z M 6 13 "/>
</clipPath>
<clipPath id="clip12">
  <path d="M 2.824219 1.152344 L 13.175781 1.152344 C 14.101562 1.152344 14.847656 1.898438 14.847656 2.824219 L 14.847656 13.175781 C 14.847656 14.101562 14.101562 14.847656 13.175781 14.847656 L 2.824219 14.847656 C 1.898438 14.847656 1.152344 14.101562 1.152344 13.175781 L 1.152344 2.824219 C 1.152344 1.898438 1.898438 1.152344 2.824219 1.152344 Z M 2.824219 1.152344 "/>
</clipPath>
<clipPath id="clip13">
  <path d="M 8 13 L 10 13 L 10 15 L 8 15 Z M 8 13 "/>
</clipPath>
<clipPath id="clip14">
  <path d="M 2.824219 1.152344 L 13.175781 1.152344 C 14.101562 1.152344 14.847656 1.898438 14.847656 2.824219 L 14.847656 13.175781 C 14.847656 14.101562 14.101562 14.847656 13.175781 14.847656 L 2.824219 14.847656 C 1.898438 14.847656 1.152344 14.101562 1.152344 13.175781 L 1.152344 2.824219 C 1.152344 1.898438 1.898438 1.152344 2.824219 1.152344 Z M 2.824219 1.152344 "/>
</clipPath>
<clipPath id="clip15">
  <path d="M 9 13 L 12 13 L 12 15 L 9 15 Z M 9 13 "/>
</clipPath>
<clipPath id="clip16">
  <path d="M 2.824219 1.152344 L 13.175781 1.152344 C 14.101562 1.152344 14.847656 1.898438 14.847656 2.824219 L 14.847656 13.175781 C 14.847656 14.101562 14.101562 14.847656 13.175781 14.847656 L 2.824219 14.847656 C 1.898438 14.847656 1.152344 14.101562 1.152344 13.175781 L 1.152344 2.824219 C 1.152344 1.898438 1.898438 1.152344 2.824219 1.152344 Z M 2.824219 1.152344 "/>
</clipPath>
<clipPath id="clip17">
  <path d="M 11 13 L 14 13 L 14 15 L 11 15 Z M 11 13 "/>
</clipPath>
<clipPath id="clip18">
  <path d="M 2.824219 1.152344 L 13.175781 1.152344 C 14.101562 1.152344 14.847656 1.898438 14.847656 2.824219 L 14.847656 13.175781 C 14.847656 14.101562 14.101562 14.847656 13.175781 14.847656 L 2.824219 14.847656 C 1.898438 14.847656 1.152344 14.101562 1.152344 13.175781 L 1.152344 2.824219 C 1.152344 1.898438 1.898438 1.152344 2.824219 1.152344 Z M 2.824219 1.152344 "/>
</clipPath>
<clipPath id="clip19">
  <path d="M 13 13 L 15 13 L 15 15 L 13 15 Z M 13 13 "/>
</clipPath>
<clipPath id="clip20">
  <path d="M 2.824219 1.152344 L 13.175781 1.152344 C 14.101562 1.152344 14.847656 1.898438 14.847656 2.824219 L 14.847656 13.175781 C 14.847656 14.101562 14.101562 14.847656 13.175781 14.847656 L 2.824219 14.847656 C 1.898438 14.847656 1.152344 14.101562 1.152344 13.175781 L 1.152344 2.824219 C 1.152344 1.898438 1.898438 1.152344 2.824219 1.152344 Z M 2.824219 1.152344 "/>
</clipPath>
<clipPath id="clip21">
  <path d="M 1 11 L 3 11 L 3 14 L 1 14 Z M 1 11 "/>
</clipPath>
<clipPath id="clip22">
  <path d="M 2.824219 1.152344 L 13.175781 1.152344 C 14.101562 1.152344 14.847656 1.898438 14.847656 2.824219 L 14.847656 13.175781 C 14.847656 14.101562 14.101562 14.847656 13.175781 14.847656 L 2.824219 14.847656 C 1.898438 14.847656 1.152344 14.101562 1.152344 13.175781 L 1.152344 2.824219 C 1.152344 1.898438 1.898438 1.152344 2.824219 1.152344 Z M 2.824219 1.152344 "/>
</clipPath>
<clipPath id="clip23">
  <path d="M 2 11 L 5 11 L 5 14 L 2 14 Z M 2 11 "/>
</clipPath>
<clipPath id="clip24">
  <path d="M 2.824219 1.152344 L 13.175781 1.152344 C 14.101562 1.152344 14.847656 1.898438 14.847656 2.824219 L 14.847656 13.175781 C 14.847656 14.101562 14.101562 14.847656 13.175781 14.847656 L 2.824219 14.847656 C 1.898438 14.847656 1.152344 14.101562 1.152344 13.175781 L 1.152344 2.824219 C 1.152344 1.898438 1.898438 1.152344 2.824219 1.152344 Z M 2.824219 1.152344 "/>
</clipPath>
<clipPath id="clip25">
  <path d="M 4 11 L 7 11 L 7 14 L 4 14 Z M 4 11 "/>
</clipPath>
<clipPath id="clip26">
  <path d="M 2.824219 1.152344 L 13.175781 1.152344 C 14.101562 1.152344 14.847656 1.898438 14.847656 2.824219 L 14.847656 13.175781 C 14.847656 14.101562 14.101562 14.847656 13.175781 14.847656 L 2.824219 14.847656 C 1.898438 14.847656 1.152344 14.101562 1.152344 13.175781 L 1.152344 2.824219 C 1.152344 1.898438 1.898438 1.152344 2.824219 1.152344 Z M 2.824219 1.152344 "/>
</clipPath>
<clipPath id="clip27">
  <path d="M 6 11 L 8 11 L 8 14 L 6 14 Z M 6 11 "/>
</clipPath>
<clipPath id="clip28">
  <path d="M 2.824219 1.152344 L 13.175781 1.152344 C 14.101562 1.152344 14.847656 1.898438 14.847656 2.824219 L 14.847656 13.175781 C 14.847656 14.101562 14.101562 14.847656 13.175781 14.847656 L 2.824219 14.847656 C 1.898438 14.847656 1.152344 14.101562 1.152344 13.175781 L 1.152344 2.824219 C 1.152344 1.898438 1.898438 1.152344 2.824219 1.152344 Z M 2.824219 1.152344 "/>
</clipPath>
<clipPath id="clip29">
  <path d="M 8 11 L 10 11 L 10 14 L 8 14 Z M 8 11 "/>
</clipPath>
<clipPath id="clip30">
  <path d="M 2.824219 1.152344 L 13.175781 1.152344 C 14.101562 1.152344 14.847656 1.898438 14.847656 2.824219 L 14.847656 13.175781 C 14.847656 14.101562 14.101562 14.847656 13.175781 14.847656 L 2.824219 14.847656 C 1.898438 14.847656 1.152344 14.101562 1.152344 13.175781 L 1.152344 2.824219 C 1.152344 1.898438 1.898438 1.152344 2.824219 1.152344 Z M 2.824219 1.152344 "/>
</clipPath>
<clipPath id="clip31">
  <path d="M 9 11 L 12 11 L 12 14 L 9 14 Z M 9 11 "/>
</clipPath>
<clipPath id="clip32">
  <path d="M 2.824219 1.152344 L 13.175781 1.152344 C 14.101562 1.152344 14.847656 1.898438 14.847656 2.824219 L 14.847656 13.175781 C 14.847656 14.101562 14.101562 14.847656 13.175781 14.847656 L 2.824219 14.847656 C 1.898438 14.847656 1.152344 14.101562 1.152344 13.175781 L 1.152344 2.824219 C 1.152344 1.898438 1.898438 1.152344 2.824219 1.152344 Z M 2.824219 1.152344 "/>
</clipPath>
<clipPath id="clip33">
  <path d="M 11 11 L 14 11 L 14 14 L 11 14 Z M 11 11 "/>
</clipPath>
<clipPath id="clip34">
  <path d="M 2.824219 1.152344 L 13.175781 1.152344 C 14.101562 1.152344 14.847656 1.898438 14.847656 2.824219 L 14.847656 13.175781 C 14.847656 14.101562 14.101562 14.847656 13.175781 14.847656 L 2.824219 14.847656 C 1.898438 14.847656 1.152344 14.101562 1.152344 13.175781 L 1.152344 2.824219 C 1.152344 1.898438 1.898438 1.152344 2.824219 1.152344 Z M 2.824219 1.152344 "/>
</clipPath>
<clipPath id="clip35">
  <path d="M 13 11 L 15 11 L 15 14 L 13 14 Z M 13 11 "/>
</clipPath>
<clipPath id="clip36">
  <path d="M 2.824219 1.152344 L 13.175781 1.152344 C 14.101562 1.152344 14.847656 1.898438 14.847656 2.824219 L 14.847656 13.175781 C 14.847656 14.101562 14.101562 14.847656 13.175781 14.847656 L 2.824219 14.847656 C 1.898438 14.847656 1.152344 14.101562 1.152344 13.175781 L 1.152344 2.824219 C 1.152344 1.898438 1.898438 1.152344 2.824219 1.152344 Z M 2.824219 1.152344 "/>
</clipPath>
<clipPath id="clip37">
  <path d="M 1 9 L 3 9 L 3 12 L 1 12 Z M 1 9 "/>
</clipPath>
<clipPath id="clip38">
  <path d="M 2.824219 1.152344 L 13.175781 1.152344 C 14.101562 1.152344 14.847656 1.898438 14.847656 2.824219 L 14.847656 13.175781 C 14.847656 14.101562 14.101562 14.847656 13.175781 14.847656 L 2.824219 14.847656 C 1.898438 14.847656 1.152344 14.101562 1.152344 13.175781 L 1.152344 2.824219 C 1.152344 1.898438 1.898438 1.152344 2.824219 1.152344 Z M 2.824219 1.152344 "/>
</clipPath>
<clipPath id="clip39">
  <path d="M 2 9 L 5 9 L 5 12 L 2 12 Z M 2 9 "/>
</clipPath>
<clipPath id="clip40">
  <path d="M 2.824219 1.152344 L 13.175781 1.152344 C 14.101562 1.152344 14.847656 1.898438 14.847656 2.824219 L 14.847656 13.175781 C 14.847656 14.101562 14.101562 14.847656 13.175781 14.847656 L 2.824219 14.847656 C 1.898438 14.847656 1.152344 14.101562 1.152344 13.175781 L 1.152344 2.824219 C 1.152344 1.898438 1.898438 1.152344 2.824219 1.152344 Z M 2.824219 1.152344 "/>
</clipPath>
<clipPath id="clip41">
  <path d="M 4 9 L 7 9 L 7 12 L 4 12 Z M 4 9 "/>
</clipPath>
<clipPath id="clip42">
  <path d="M 2.824219 1.152344 L 13.175781 1.152344 C 14.101562 1.152344 14.847656 1.898438 14.847656 2.824219 L 14.847656 13.175781 C 14.847656 14.101562 14.101562 14.847656 13.175781 14.847656 L 2.824219 14.847656 C 1.898438 14.847656 1.152344 14.101562 1.152344 13.175781 L 1.152344 2.824219 C 1.152344 1.898438 1.898438 1.152344 2.824219 1.152344 Z M 2.824219 1.152344 "/>
</clipPath>
<clipPath id="clip43">
  <path d="M 6 9 L 8 9 L 8 12 L 6 12 Z M 6 9 "/>
</clipPath>
<clipPath id="clip44">
  <path d="M 2.824219 1.152344 L 13.175781 1.152344 C 14.101562 1.152344 14.847656 1.898438 14.847656 2.824219 L 14.847656 13.175781 C 14.847656 14.101562 14.101562 14.847656 13.175781 14.847656 L 2.824219 14.847656 C 1.898438 14.847656 1.152344 14.101562 1.152344 13.175781 L 1.152344 2.824219 C 1.152344 1.898438 1.898438 1.152344 2.824219 1.152344 Z M 2.824219 1.152344 "/>
</clipPath>
<clipPath id="clip45">
  <path d="M 8 9 L 10 9 L 10 12 L 8 12 Z M 8 9 "/>
</clipPath>
<clipPath id="clip46">
  <path d="M 2.824219 1.152344 L 13.175781 1.152344 C 14.101562 1.152344 14.847656 1.898438 14.847656 2.824219 L 14.847656 13.175781 C 14.847656 14.101562 14.101562 14.847656 13.175781 14.847656 L 2.824219 14.847656 C 1.898438 14.847656 1.152344 14.101562 1.152344 13.175781 L 1.152344 2.824219 C 1.152344 1.898438 1.898438 1.152344 2.824219 1.152344 Z M 2.824219 1.152344 "/>
</clipPath>
<clipPath id="clip47">
  <path d="M 9 9 L 12 9 L 12 12 L 9 12 Z M 9 9 "/>
</clipPath>
<clipPath id="clip48">
  <path d="M 2.824219 1.152344 L 13.175781 1.152344 C 14.101562 1.152344 14.847656 1.898438 14.847656 2.824219 L 14.847656 13.175781 C 14.847656 14.101562 14.101562 14.847656 13.175781 14.847656 L 2.824219 14.847656 C 1.898438 14.847656 1.152344 14.101562 1.152344 13.175781 L 1.152344 2.824219 C 1.152344 1.898438 1.898438 1.152344 2.824219 1.152344 Z M 2.824219 1.152344 "/>
</clipPath>
<clipPath id="clip49">
  <path d="M 11 9 L 14 9 L 14 12 L 11 12 Z M 11 9 "/>
</clipPath>
<clipPath id="clip50">
  <path d="M 2.824219 1.152344 L 13.175781 1.152344 C 14.101562 1.152344 14.847656 1.898438 14.847656 2.824219 L 14.847656 13.175781 C 14.847656 14.101562 14.101562 14.847656 13.175781 14.847656 L 2.824219 14.847656 C 1.898438 14.847656 1.152344 14.101562 1.152344 13.175781 L 1.152344 2.824219 C 1.152344 1.898438 1.898438 1.152344 2.824219 1.152344 Z M 2.824219 1.152344 "/>
</clipPath>
<clipPath id="clip51">
  <path d="M 13 9 L 15 9 L 15 12 L 13 12 Z M 13 9 "/>
</clipPath>
<clipPath id="clip52">
  <path d="M 2.824219 1.152344 L 13.175781 1.152344 C 14.101562 1.152344 14.847656 1.898438 14.847656 2.824219 L 14.847656 13.175781 C 14.847656 14.101562 14.101562 14.847656 13.175781 14.847656 L 2.824219 14.847656 C 1.898438 14.847656 1.152344 14.101562 1.152344 13.175781 L 1.152344 2.824219 C 1.152344 1.898438 1.898438 1.152344 2.824219 1.152344 Z M 2.824219 1.152344 "/>
</clipPath>
<clipPath id="clip53">
  <path d="M 1 8 L 3 8 L 3 10 L 1 10 Z M 1 8 "/>
</clipPath>
<clipPath id="clip54">
  <path d="M 2.824219 1.152344 L 13.175781 1.152344 C 14.101562 1.152344 14.847656 1.898438 14.847656 2.824219 L 14.847656 13.175781 C 14.847656 14.101562 14.101562 14.847656 13.175781 14.847656 L 2.824219 14.847656 C 1.898438 14.847656 1.152344 14.101562 1.152344 13.175781 L 1.152344 2.824219 C 1.152344 1.898438 1.898438 1.152344 2.824219 1.152344 Z M 2.824219 1.152344 "/>
</clipPath>
<clipPath id="clip55">
  <path d="M 2 8 L 5 8 L 5 10 L 2 10 Z M 2 8 "/>
</clipPath>
<clipPath id="clip56">
  <path d="M 2.824219 1.152344 L 13.175781 1.152344 C 14.101562 1.152344 14.847656 1.898438 14.847656 2.824219 L 14.847656 13.175781 C 14.847656 14.101562 14.101562 14.847656 13.175781 14.847656 L 2.824219 14.847656 C 1.898438 14.847656 1.152344 14.101562 1.152344 13.175781 L 1.152344 2.824219 C 1.152344 1.898438 1.898438 1.152344 2.824219 1.152344 Z M 2.824219 1.152344 "/>
</clipPath>
<clipPath id="clip57">
  <path d="M 4 8 L 7 8 L 7 10 L 4 10 Z M 4 8 "/>
</clipPath>
<clipPath id="clip58">
  <path d="M 2.824219 1.152344 L 13.175781 1.152344 C 14.101562 1.152344 14.847656 1.898438 14.847656 2.824219 L 14.847656 13.175781 C 14.847656 14.101562 14.101562 14.847656 13.175781 14.847656 L 2.824219 14.847656 C 1.898438 14.847656 1.152344 14.101562 1.152344 13.175781 L 1.152344 2.824219 C 1.152344 1.898438 1.898438 1.152344 2.824219 1.152344 Z M 2.824219 1.152344 "/>
</clipPath>
<clipPath id="clip59">
  <path d="M 6 8 L 8 8 L 8 10 L 6 10 Z M 6 8 "/>
</clipPath>
<clipPath id="clip60">
  <path d="M 2.824219 1.152344 L 13.175781 1.152344 C 14.101562 1.152344 14.847656 1.898438 14.847656 2.824219 L 14.847656 13.175781 C 14.847656 14.101562 14.101562 14.847656 13.175781 14.847656 L 2.824219 14.847656 C 1.898438 14.847656 1.152344 14.101562 1.152344 13.175781 L 1.152344 2.824219 C 1.152344 1.898438 1.898438 1.152344 2.824219 1.152344 Z M 2.824219 1.152344 "/>
</clipPath>
<clipPath id="clip61">
  <path d="M 8 8 L 10 8 L 10 10 L 8 10 Z M 8 8 "/>
</clipPath>
<clipPath id="clip62">
  <path d="M 2.824219 1.152344 L 13.175781 1.152344 C 14.101562 1.152344 14.847656 1.898438 14.847656 2.824219 L 14.847656 13.175781 C 14.847656 14.101562 14.101562 14.847656 13.175781 14.847656 L 2.824219 14.847656 C 1.898438 14.847656 1.152344 14.101562 1.152344 13.175781 L 1.152344 2.824219 C 1.152344 1.898438 1.898438 1.152344 2.824219 1.152344 Z M 2.824219 1.152344 "/>
</clipPath>
<clipPath id="clip63">
  <path d="M 9 8 L 12 8 L 12 10 L 9 10 Z M 9 8 "/>
</clipPath>
<clipPath id="clip64">
  <path d="M 2.824219 1.152344 L 13.175781 1.152344 C 14.101562 1.152344 14.847656 1.898438 14.847656 2.824219 L 14.847656 13.175781 C 14.847656 14.101562 14.101562 14.847656 13.175781 14.847656 L 2.824219 14.847656 C 1.898438 14.847656 1.152344 14.101562 1.152344 13.175781 L 1.152344 2.824219 C 1.152344 1.898438 1.898438 1.152344 2.824219 1.152344 Z M 2.824219 1.152344 "/>
</clipPath>
<clipPath id="clip65">
  <path d="M 11 8 L 14 8 L 14 10 L 11 10 Z M 11 8 "/>
</clipPath>
<clipPath id="clip66">
  <path d="M 2.824219 1.152344 L 13.175781 1.152344 C 14.101562 1.152344 14.847656 1.898438 14.847656 2.824219 L 14.847656 13.175781 C 14.847656 14.101562 14.101562 14.847656 13.175781 14.847656 L 2.824219 14.847656 C 1.898438 14.847656 1.152344 14.101562 1.152344 13.175781 L 1.152344 2.824219 C 1.152344 1.898438 1.898438 1.152344 2.824219 1.152344 Z M 2.824219 1.152344 "/>
</clipPath>
<clipPath id="clip67">
  <path d="M 13 8 L 15 8 L 15 10 L 13 10 Z M 13 8 "/>
</clipPath>
<clipPath id="clip68">
  <path d="M 2.824219 1.152344 L 13.175781 1.152344 C 14.101562 1.152344 14.847656 1.898438 14.847656 2.824219 L 14.847656 13.175781 C 14.847656 14.101562 14.101562 14.847656 13.175781 14.847656 L 2.824219 14.847656 C 1.898438 14.847656 1.152344 14.101562 1.152344 13.175781 L 1.152344 2.824219 C 1.152344 1.898438 1.898438 1.152344 2.824219 1.152344 Z M 2.824219 1.152344 "/>
</clipPath>
<clipPath id="clip69">
  <path d="M 1 1 L 8 1 L 8 8 L 1 8 Z M 1 1 "/>
</clipPath>
<clipPath id="clip70">
  <path d="M 2.824219 1.152344 L 13.175781 1.152344 C 14.101562 1.152344 14.847656 1.898438 14.847656 2.824219 L 14.847656 13.175781 C 14.847656 14.101562 14.101562 14.847656 13.175781 14.847656 L 2.824219 14.847656 C 1.898438 14.847656 1.152344 14.101562 1.152344 13.175781 L 1.152344 2.824219 C 1.152344 1.898438 1.898438 1.152344 2.824219 1.152344 Z M 2.824219 1.152344 "/>
</clipPath>
<clipPath id="clip71">
  <path d="M 1 6 L 3 6 L 3 8 L 1 8 Z M 1 6 "/>
</clipPath>
<clipPath id="clip72">
  <path d="M 2.824219 1.152344 L 13.175781 1.152344 C 14.101562 1.152344 14.847656 1.898438 14.847656 2.824219 L 14.847656 13.175781 C 14.847656 14.101562 14.101562 14.847656 13.175781 14.847656 L 2.824219 14.847656 C 1.898438 14.847656 1.152344 14.101562 1.152344 13.175781 L 1.152344 2.824219 C 1.152344 1.898438 1.898438 1.152344 2.824219 1.152344 Z M 2.824219 1.152344 "/>
</clipPath>
<clipPath id="clip73">
  <path d="M 2 6 L 5 6 L 5 8 L 2 8 Z M 2 6 "/>
</clipPath>
<clipPath id="clip74">
  <path d="M 2.824219 1.152344 L 13.175781 1.152344 C 14.101562 1.152344 14.847656 1.898438 14.847656 2.824219 L 14.847656 13.175781 C 14.847656 14.101562 14.101562 14.847656 13.175781 14.847656 L 2.824219 14.847656 C 1.898438 14.847656 1.152344 14.101562 1.152344 13.175781 L 1.152344 2.824219 C 1.152344 1.898438 1.898438 1.152344 2.824219 1.152344 Z M 2.824219 1.152344 "/>
</clipPath>
<clipPath id="clip75">
  <path d="M 4 6 L 7 6 L 7 8 L 4 8 Z M 4 6 "/>
</clipPath>
<clipPath id="clip76">
  <path d="M 2.824219 1.152344 L 13.175781 1.152344 C 14.101562 1.152344 14.847656 1.898438 14.847656 2.824219 L 14.847656 13.175781 C 14.847656 14.101562 14.101562 14.847656 13.175781 14.847656 L 2.824219 14.847656 C 1.898438 14.847656 1.152344 14.101562 1.152344 13.175781 L 1.152344 2.824219 C 1.152344 1.898438 1.898438 1.152344 2.824219 1.152344 Z M 2.824219 1.152344 "/>
</clipPath>
<clipPath id="clip77">
  <path d="M 6 6 L 8 6 L 8 8 L 6 8 Z M 6 6 "/>
</clipPath>
<clipPath id="clip78">
  <path d="M 2.824219 1.152344 L 13.175781 1.152344 C 14.101562 1.152344 14.847656 1.898438 14.847656 2.824219 L 14.847656 13.175781 C 14.847656 14.101562 14.101562 14.847656 13.175781 14.847656 L 2.824219 14.847656 C 1.898438 14.847656 1.152344 14.101562 1.152344 13.175781 L 1.152344 2.824219 C 1.152344 1.898438 1.898438 1.152344 2.824219 1.152344 Z M 2.824219 1.152344 "/>
</clipPath>
<clipPath id="clip79">
  <path d="M 8 6 L 10 6 L 10 8 L 8 8 Z M 8 6 "/>
</clipPath>
<clipPath id="clip80">
  <path d="M 2.824219 1.152344 L 13.175781 1.152344 C 14.101562 1.152344 14.847656 1.898438 14.847656 2.824219 L 14.847656 13.175781 C 14.847656 14.101562 14.101562 14.847656 13.175781 14.847656 L 2.824219 14.847656 C 1.898438 14.847656 1.152344 14.101562 1.152344 13.175781 L 1.152344 2.824219 C 1.152344 1.898438 1.898438 1.152344 2.824219 1.152344 Z M 2.824219 1.152344 "/>
</clipPath>
<clipPath id="clip81">
  <path d="M 9 6 L 12 6 L 12 8 L 9 8 Z M 9 6 "/>
</clipPath>
<clipPath id="clip82">
  <path d="M 2.824219 1.152344 L 13.175781 1.152344 C 14.101562 1.152344 14.847656 1.898438 14.847656 2.824219 L 14.847656 13.175781 C 14.847656 14.101562 14.101562 14.847656 13.175781 14.847656 L 2.824219 14.847656 C 1.898438 14.847656 1.152344 14.101562 1.152344 13.175781 L 1.152344 2.824219 C 1.152344 1.898438 1.898438 1.152344 2.824219 1.152344 Z M 2.824219 1.152344 "/>
</clipPath>
<clipPath id="clip83">
  <path d="M 11 6 L 14 6 L 14 8 L 11 8 Z M 11 6 "/>
</clipPath>
<clipPath id="clip84">
  <path d="M 2.824219 1.152344 L 13.175781 1.152344 C 14.101562 1.152344 14.847656 1.898438 14.847656 2.824219 L 14.847656 13.175781 C 14.847656 14.101562 14.101562 14.847656 13.175781 14.847656 L 2.824219 14.847656 C 1.898438 14.847656 1.152344 14.101562 1.152344 13.175781 L 1.152344 2.824219 C 1.152344 1.898438 1.898438 1.152344 2.824219 1.152344 Z M 2.824219 1.152344 "/>
</clipPath>
<clipPath id="clip85">
  <path d="M 13 6 L 15 6 L 15 8 L 13 8 Z M 13 6 "/>
</clipPath>
<clipPath id="clip86">
  <path d="M 2.824219 1.152344 L 13.175781 1.152344 C 14.101562 1.152344 14.847656 1.898438 14.847656 2.824219 L 14.847656 13.175781 C 14.847656 14.101562 14.101562 14.847656 13.175781 14.847656 L 2.824219 14.847656 C 1.898438 14.847656 1.152344 14.101562 1.152344 13.175781 L 1.152344 2.824219 C 1.152344 1.898438 1.898438 1.152344 2.824219 1.152344 Z M 2.824219 1.152344 "/>
</clipPath>
<clipPath id="clip87">
  <path d="M 1 4 L 3 4 L 3 7 L 1 7 Z M 1 4 "/>
</clipPath>
<clipPath id="clip88">
  <path d="M 2.824219 1.152344 L 13.175781 1.152344 C 14.101562 1.152344 14.847656 1.898438 14.847656 2.824219 L 14.847656 13.175781 C 14.847656 14.101562 14.101562 14.847656 13.175781 14.847656 L 2.824219 14.847656 C 1.898438 14.847656 1.152344 14.101562 1.152344 13.175781 L 1.152344 2.824219 C 1.152344 1.898438 1.898438 1.152344 2.824219 1.152344 Z M 2.824219 1.152344 "/>
</clipPath>
<clipPath id="clip89">
  <path d="M 2 4 L 5 4 L 5 7 L 2 7 Z M 2 4 "/>
</clipPath>
<clipPath id="clip90">
  <path d="M 2.824219 1.152344 L 13.175781 1.152344 C 14.101562 1.152344 14.847656 1.898438 14.847656 2.824219 L 14.847656 13.175781 C 14.847656 14.101562 14.101562 14.847656 13.175781 14.847656 L 2.824219 14.847656 C 1.898438 14.847656 1.152344 14.101562 1.152344 13.175781 L 1.152344 2.824219 C 1.152344 1.898438 1.898438 1.152344 2.824219 1.152344 Z M 2.824219 1.152344 "/>
</clipPath>
<clipPath id="clip91">
  <path d="M 4 4 L 7 4 L 7 7 L 4 7 Z M 4 4 "/>
</clipPath>
<clipPath id="clip92">
  <path d="M 2.824219 1.152344 L 13.175781 1.152344 C 14.101562 1.152344 14.847656 1.898438 14.847656 2.824219 L 14.847656 13.175781 C 14.847656 14.101562 14.101562 14.847656 13.175781 14.847656 L 2.824219 14.847656 C 1.898438 14.847656 1.152344 14.101562 1.152344 13.175781 L 1.152344 2.824219 C 1.152344 1.898438 1.898438 1.152344 2.824219 1.152344 Z M 2.824219 1.152344 "/>
</clipPath>
<clipPath id="clip93">
  <path d="M 6 4 L 8 4 L 8 7 L 6 7 Z M 6 4 "/>
</clipPath>
<clipPath id="clip94">
  <path d="M 2.824219 1.152344 L 13.175781 1.152344 C 14.101562 1.152344 14.847656 1.898438 14.847656 2.824219 L 14.847656 13.175781 C 14.847656 14.101562 14.101562 14.847656 13.175781 14.847656 L 2.824219 14.847656 C 1.898438 14.847656 1.152344 14.101562 1.152344 13.175781 L 1.152344 2.824219 C 1.152344 1.898438 1.898438 1.152344 2.824219 1.152344 Z M 2.824219 1.152344 "/>
</clipPath>
<clipPath id="clip95">
  <path d="M 8 4 L 10 4 L 10 7 L 8 7 Z M 8 4 "/>
</clipPath>
<clipPath id="clip96">
  <path d="M 2.824219 1.152344 L 13.175781 1.152344 C 14.101562 1.152344 14.847656 1.898438 14.847656 2.824219 L 14.847656 13.175781 C 14.847656 14.101562 14.101562 14.847656 13.175781 14.847656 L 2.824219 14.847656 C 1.898438 14.847656 1.152344 14.101562 1.152344 13.175781 L 1.152344 2.824219 C 1.152344 1.898438 1.898438 1.152344 2.824219 1.152344 Z M 2.824219 1.152344 "/>
</clipPath>
<clipPath id="clip97">
  <path d="M 9 4 L 12 4 L 12 7 L 9 7 Z M 9 4 "/>
</clipPath>
<clipPath id="clip98">
  <path d="M 2.824219 1.152344 L 13.175781 1.152344 C 14.101562 1.152344 14.847656 1.898438 14.847656 2.824219 L 14.847656 13.175781 C 14.847656 14.101562 14.101562 14.847656 13.175781 14.847656 L 2.824219 14.847656 C 1.898438 14.847656 1.152344 14.101562 1.152344 13.175781 L 1.152344 2.824219 C 1.152344 1.898438 1.898438 1.152344 2.824219 1.152344 Z M 2.824219 1.152344 "/>
</clipPath>
<clipPath id="clip99">
  <path d="M 11 4 L 14 4 L 14 7 L 11 7 Z M 11 4 "/>
</clipPath>
<clipPath id="clip100">
  <path d="M 2.824219 1.152344 L 13.175781 1.152344 C 14.101562 1.152344 14.847656 1.898438 14.847656 2.824219 L 14.847656 13.175781 C 14.847656 14.101562 14.101562 14.847656 13.175781 14.847656 L 2.824219 14.847656 C 1.898438 14.847656 1.152344 14.101562 1.152344 13.175781 L 1.152344 2.824219 C 1.152344 1.898438 1.898438 1.152344 2.824219 1.152344 Z M 2.824219 1.152344 "/>
</clipPath>
<clipPath id="clip101">
  <path d="M 13 4 L 15 4 L 15 7 L 13 7 Z M 13 4 "/>
</clipPath>
<clipPath id="clip102">
  <path d="M 2.824219 1.152344 L 13.175781 1.152344 C 14.101562 1.152344 14.847656 1.898438 14.847656 2.824219 L 14.847656 13.175781 C 14.847656 14.101562 14.101562 14.847656 13.175781 14.847656 L 2.824219 14.847656 C 1.898438 14.847656 1.152344 14.101562 1.152344 13.175781 L 1.152344 2.824219 C 1.152344 1.898438 1.898438 1.152344 2.824219 1.152344 Z M 2.824219 1.152344 "/>
</clipPath>
<clipPath id="clip103">
  <path d="M 1 2 L 3 2 L 3 5 L 1 5 Z M 1 2 "/>
</clipPath>
<clipPath id="clip104">
  <path d="M 2.824219 1.152344 L 13.175781 1.152344 C 14.101562 1.152344 14.847656 1.898438 14.847656 2.824219 L 14.847656 13.175781 C 14.847656 14.101562 14.101562 14.847656 13.175781 14.847656 L 2.824219 14.847656 C 1.898438 14.847656 1.152344 14.101562 1.152344 13.175781 L 1.152344 2.824219 C 1.152344 1.898438 1.898438 1.152344 2.824219 1.152344 Z M 2.824219 1.152344 "/>
</clipPath>
<clipPath id="clip105">
  <path d="M 2 2 L 5 2 L 5 5 L 2 5 Z M 2 2 "/>
</clipPath>
<clipPath id="clip106">
  <path d="M 2.824219 1.152344 L 13.175781 1.152344 C 14.101562 1.152344 14.847656 1.898438 14.847656 2.824219 L 14.847656 13.175781 C 14.847656 14.101562 14.101562 14.847656 13.175781 14.847656 L 2.824219 14.847656 C 1.898438 14.847656 1.152344 14.101562 1.152344 13.175781 L 1.152344 2.824219 C 1.152344 1.898438 1.898438 1.152344 2.824219 1.152344 Z M 2.824219 1.152344 "/>
</clipPath>
<clipPath id="clip107">
  <path d="M 4 2 L 7 2 L 7 5 L 4 5 Z M 4 2 "/>
</clipPath>
<clipPath id="clip108">
  <path d="M 2.824219 1.152344 L 13.175781 1.152344 C 14.101562 1.152344 14.847656 1.898438 14.847656 2.824219 L 14.847656 13.175781 C 14.847656 14.101562 14.101562 14.847656 13.175781 14.847656 L 2.824219 14.847656 C 1.898438 14.847656 1.152344 14.101562 1.152344 13.175781 L 1.152344 2.824219 C 1.152344 1.898438 1.898438 1.152344 2.824219 1.152344 Z M 2.824219 1.152344 "/>
</clipPath>
<clipPath id="clip109">
  <path d="M 6 2 L 8 2 L 8 5 L 6 5 Z M 6 2 "/>
</clipPath>
<clipPath id="clip110">
  <path d="M 2.824219 1.152344 L 13.175781 1.152344 C 14.101562 1.152344 14.847656 1.898438 14.847656 2.824219 L 14.847656 13.175781 C 14.847656 14.101562 14.101562 14.847656 13.175781 14.847656 L 2.824219 14.847656 C 1.898438 14.847656 1.152344 14.101562 1.152344 13.175781 L 1.152344 2.824219 C 1.152344 1.898438 1.898438 1.152344 2.824219 1.152344 Z M 2.824219 1.152344 "/>
</clipPath>
<clipPath id="clip111">
  <path d="M 8 2 L 10 2 L 10 5 L 8 5 Z M 8 2 "/>
</clipPath>
<clipPath id="clip112">
  <path d="M 2.824219 1.152344 L 13.175781 1.152344 C 14.101562 1.152344 14.847656 1.898438 14.847656 2.824219 L 14.847656 13.175781 C 14.847656 14.101562 14.101562 14.847656 13.175781 14.847656 L 2.824219 14.847656 C 1.898438 14.847656 1.152344 14.101562 1.152344 13.175781 L 1.152344 2.824219 C 1.152344 1.898438 1.898438 1.152344 2.824219 1.152344 Z M 2.824219 1.152344 "/>
</clipPath>
<clipPath id="clip113">
  <path d="M 9 2 L 12 2 L 12 5 L 9 5 Z M 9 2 "/>
</clipPath>
<clipPath id="clip114">
  <path d="M 2.824219 1.152344 L 13.175781 1.152344 C 14.101562 1.152344 14.847656 1.898438 14.847656 2.824219 L 14.847656 13.175781 C 14.847656 14.101562 14.101562 14.847656 13.175781 14.847656 L 2.824219 14.847656 C 1.898438 14.847656 1.152344 14.101562 1.152344 13.175781 L 1.152344 2.824219 C 1.152344 1.898438 1.898438 1.152344 2.824219 1.152344 Z M 2.824219 1.152344 "/>
</clipPath>
<clipPath id="clip115">
  <path d="M 11 2 L 14 2 L 14 5 L 11 5 Z M 11 2 "/>
</clipPath>
<clipPath id="clip116">
  <path d="M 2.824219 1.152344 L 13.175781 1.152344 C 14.101562 1.152344 14.847656 1.898438 14.847656 2.824219 L 14.847656 13.175781 C 14.847656 14.101562 14.101562 14.847656 13.175781 14.847656 L 2.824219 14.847656 C 1.898438 14.847656 1.152344 14.101562 1.152344 13.175781 L 1.152344 2.824219 C 1.152344 1.898438 1.898438 1.152344 2.824219 1.152344 Z M 2.824219 1.152344 "/>
</clipPath>
<clipPath id="clip117">
  <path d="M 13 2 L 15 2 L 15 5 L 13 5 Z M 13 2 "/>
</clipPath>
<clipPath id="clip118">
  <path d="M 2.824219 1.152344 L 13.175781 1.152344 C 14.101562 1.152344 14.847656 1.898438 14.847656 2.824219 L 14.847656 13.175781 C 14.847656 14.101562 14.101562 14.847656 13.175781 14.847656 L 2.824219 14.847656 C 1.898438 14.847656 1.152344 14.101562 1.152344 13.175781 L 1.152344 2.824219 C 1.152344 1.898438 1.898438 1.152344 2.824219 1.152344 Z M 2.824219 1.152344 "/>
</clipPath>
<clipPath id="clip119">
  <path d="M 1 1 L 3 1 L 3 3 L 1 3 Z M 1 1 "/>
</clipPath>
<clipPath id="clip120">
  <path d="M 2.824219 1.152344 L 13.175781 1.152344 C 14.101562 1.152344 14.847656 1.898438 14.847656 2.824219 L 14.847656 13.175781 C 14.847656 14.101562 14.101562 14.847656 13.175781 14.847656 L 2.824219 14.847656 C 1.898438 14.847656 1.152344 14.101562 1.152344 13.175781 L 1.152344 2.824219 C 1.152344 1.898438 1.898438 1.152344 2.824219 1.152344 Z M 2.824219 1.152344 "/>
</clipPath>
<clipPath id="clip121">
  <path d="M 2 1 L 5 1 L 5 3 L 2 3 Z M 2 1 "/>
</clipPath>
<clipPath id="clip122">
  <path d="M 2.824219 1.152344 L 13.175781 1.152344 C 14.101562 1.152344 14.847656 1.898438 14.847656 2.824219 L 14.847656 13.175781 C 14.847656 14.101562 14.101562 14.847656 13.175781 14.847656 L 2.824219 14.847656 C 1.898438 14.847656 1.152344 14.101562 1.152344 13.175781 L 1.152344 2.824219 C 1.152344 1.898438 1.898438 1.152344 2.824219 1.152344 Z M 2.824219 1.152344 "/>
</clipPath>
<clipPath id="clip123">
  <path d="M 4 1 L 7 1 L 7 3 L 4 3 Z M 4 1 "/>
</clipPath>
<clipPath id="clip124">
  <path d="M 2.824219 1.152344 L 13.175781 1.152344 C 14.101562 1.152344 14.847656 1.898438 14.847656 2.824219 L 14.847656 13.175781 C 14.847656 14.101562 14.101562 14.847656 13.175781 14.847656 L 2.824219 14.847656 C 1.898438 14.847656 1.152344 14.101562 1.152344 13.175781 L 1.152344 2.824219 C 1.152344 1.898438 1.898438 1.152344 2.824219 1.152344 Z M 2.824219 1.152344 "/>
</clipPath>
<clipPath id="clip125">
  <path d="M 6 1 L 8 1 L 8 3 L 6 3 Z M 6 1 "/>
</clipPath>
<clipPath id="clip126">
  <path d="M 2.824219 1.152344 L 13.175781 1.152344 C 14.101562 1.152344 14.847656 1.898438 14.847656 2.824219 L 14.847656 13.175781 C 14.847656 14.101562 14.101562 14.847656 13.175781 14.847656 L 2.824219 14.847656 C 1.898438 14.847656 1.152344 14.101562 1.152344 13.175781 L 1.152344 2.824219 C 1.152344 1.898438 1.898438 1.152344 2.824219 1.152344 Z M 2.824219 1.152344 "/>
</clipPath>
<clipPath id="clip127">
  <path d="M 8 1 L 10 1 L 10 3 L 8 3 Z M 8 1 "/>
</clipPath>
<clipPath id="clip128">
  <path d="M 2.824219 1.152344 L 13.175781 1.152344 C 14.101562 1.152344 14.847656 1.898438 14.847656 2.824219 L 14.847656 13.175781 C 14.847656 14.101562 14.101562 14.847656 13.175781 14.847656 L 2.824219 14.847656 C 1.898438 14.847656 1.152344 14.101562 1.152344 13.175781 L 1.152344 2.824219 C 1.152344 1.898438 1.898438 1.152344 2.824219 1.152344 Z M 2.824219 1.152344 "/>
</clipPath>
<clipPath id="clip129">
  <path d="M 9 1 L 12 1 L 12 3 L 9 3 Z M 9 1 "/>
</clipPath>
<clipPath id="clip130">
  <path d="M 2.824219 1.152344 L 13.175781 1.152344 C 14.101562 1.152344 14.847656 1.898438 14.847656 2.824219 L 14.847656 13.175781 C 14.847656 14.101562 14.101562 14.847656 13.175781 14.847656 L 2.824219 14.847656 C 1.898438 14.847656 1.152344 14.101562 1.152344 13.175781 L 1.152344 2.824219 C 1.152344 1.898438 1.898438 1.152344 2.824219 1.152344 Z M 2.824219 1.152344 "/>
</clipPath>
<clipPath id="clip131">
  <path d="M 11 1 L 14 1 L 14 3 L 11 3 Z M 11 1 "/>
</clipPath>
<clipPath id="clip132">
  <path d="M 2.824219 1.152344 L 13.175781 1.152344 C 14.101562 1.152344 14.847656 1.898438 14.847656 2.824219 L 14.847656 13.175781 C 14.847656 14.101562 14.101562 14.847656 13.175781 14.847656 L 2.824219 14.847656 C 1.898438 14.847656 1.152344 14.101562 1.152344 13.175781 L 1.152344 2.824219 C 1.152344 1.898438 1.898438 1.152344 2.824219 1.152344 Z M 2.824219 1.152344 "/>
</clipPath>
<clipPath id="clip133">
  <path d="M 13 1 L 15 1 L 15 3 L 13 3 Z M 13 1 "/>
</clipPath>
<clipPath id="clip134">
  <path d="M 2.824219 1.152344 L 13.175781 1.152344 C 14.101562 1.152344 14.847656 1.898438 14.847656 2.824219 L 14.847656 13.175781 C 14.847656 14.101562 14.101562 14.847656 13.175781 14.847656 L 2.824219 14.847656 C 1.898438 14.847656 1.152344 14.101562 1.152344 13.175781 L 1.152344 2.824219 C 1.152344 1.898438 1.898438 1.152344 2.824219 1.152344 Z M 2.824219 1.152344 "/>
</clipPath>
<clipPath id="clip135">
  <path d="M 1 4 L 15 4 L 15 15 L 1 15 Z M 1 4 "/>
</clipPath>
<clipPath id="clip136">
  <path d="M 2.824219 1.152344 L 13.175781 1.152344 C 14.101562 1.152344 14.847656 1.898438 14.847656 2.824219 L 14.847656 13.175781 C 14.847656 14.101562 14.101562 14.847656 13.175781 14.847656 L 2.824219 14.847656 C 1.898438 14.847656 1.152344 14.101562 1.152344 13.175781 L 1.152344 2.824219 C 1.152344 1.898438 1.898438 1.152344 2.824219 1.152344 Z M 2.824219 1.152344 "/>
</clipPath>
</defs>
<g id="surface1">
<path style="fill-rule:nonzero;fill:rgb(40.784314%,27.843137%,15.686275%);fill-opacity:1;stroke-width:28.071352;stroke-linecap:butt;stroke-linejoin:miter;stroke:rgb(40.784314%,27.843137%,15.686275%);stroke-opacity:1;stroke-miterlimit:4;" d="M 82.25 26.125 L 429.75 26.125 C 460.75 26.125 485.875 51.25 485.875 82.25 L 485.875 429.75 C 485.875 460.75 460.75 485.875 429.75 485.875 L 82.25 485.875 C 51.25 485.875 26.125 460.75 26.125 429.75 L 26.125 82.25 C 26.125 51.25 51.25 26.125 82.25 26.125 Z M 82.25 26.125 " transform="matrix(0.03125,0,0,0.03125,0,0)"/>
<g clip-path="url(#clip1)" clip-rule="nonzero">
<g clip-path="url(#clip2)" clip-rule="nonzero">
<path style=" stroke:none;fill-rule:nonzero;fill:rgb(45.882353%,74.117647%,45.098039%);fill-opacity:1;" d="M 0.851562 0.761719 L 15.148438 0.761719 L 15.148438 15.238281 L 0.851562 15.238281 Z M 0.851562 0.761719 "/>
</g>
</g>
<g clip-path="url(#clip3)" clip-rule="nonzero">
<g clip-path="url(#clip4)" clip-rule="nonzero">
<path style=" stroke:none;fill-rule:nonzero;fill:rgb(34.901961%,69.019608%,34.117647%);fill-opacity:1;" d="M 0.851562 8 L 8 8 L 8 15.238281 L 0.851562 15.238281 Z M 0.851562 8 "/>
</g>
</g>
<g clip-path="url(#clip5)" clip-rule="nonzero">
<g clip-path="url(#clip6)" clip-rule="nonzero">
<path style=" stroke:none;fill-rule:nonzero;fill:rgb(56.078431%,38.039216%,20%);fill-opacity:1;" d="M 0.851562 13.429688 L 2.640625 13.429688 L 2.640625 15.238281 L 0.851562 15.238281 Z M 0.851562 13.429688 "/>
</g>
</g>
<g clip-path="url(#clip7)" clip-rule="nonzero">
<g clip-path="url(#clip8)" clip-rule="nonzero">
<path style=" stroke:none;fill-rule:nonzero;fill:rgb(63.137255%,43.137255%,22.745098%);fill-opacity:1;" d="M 2.640625 13.429688 L 4.425781 13.429688 L 4.425781 15.238281 L 2.640625 15.238281 Z M 2.640625 13.429688 "/>
</g>
</g>
<g clip-path="url(#clip9)" clip-rule="nonzero">
<g clip-path="url(#clip10)" clip-rule="nonzero">
<path style=" stroke:none;fill-rule:nonzero;fill:rgb(52.156863%,36.078431%,18.823529%);fill-opacity:1;" d="M 4.425781 13.429688 L 6.214844 13.429688 L 6.214844 15.238281 L 4.425781 15.238281 Z M 4.425781 13.429688 "/>
</g>
</g>
<g clip-path="url(#clip11)" clip-rule="nonzero">
<g clip-path="url(#clip12)" clip-rule="nonzero">
<path style=" stroke:none;fill-rule:nonzero;fill:rgb(70.980392%,47.058824%,21.960784%);fill-opacity:1;" d="M 6.214844 13.429688 L 8 13.429688 L 8 15.238281 L 6.214844 15.238281 Z M 6.214844 13.429688 "/>
</g>
</g>
<g clip-path="url(#clip13)" clip-rule="nonzero">
<g clip-path="url(#clip14)" clip-rule="nonzero">
<path style=" stroke:none;fill-rule:nonzero;fill:rgb(58.039216%,40%,20.784314%);fill-opacity:1;" d="M 8 13.429688 L 9.785156 13.429688 L 9.785156 15.238281 L 8 15.238281 Z M 8 13.429688 "/>
</g>
</g>
<g clip-path="url(#clip15)" clip-rule="nonzero">
<g clip-path="url(#clip16)" clip-rule="nonzero">
<path style=" stroke:none;fill-rule:nonzero;fill:rgb(63.137255%,43.137255%,22.745098%);fill-opacity:1;" d="M 9.785156 13.429688 L 11.574219 13.429688 L 11.574219 15.238281 L 9.785156 15.238281 Z M 9.785156 13.429688 "/>
</g>
</g>
<g clip-path="url(#clip17)" clip-rule="nonzero">
<g clip-path="url(#clip18)" clip-rule="nonzero">
<path style=" stroke:none;fill-rule:nonzero;fill:rgb(58.039216%,40%,20.784314%);fill-opacity:1;" d="M 11.574219 13.429688 L 13.359375 13.429688 L 13.359375 15.238281 L 11.574219 15.238281 Z M 11.574219 13.429688 "/>
</g>
</g>
<g clip-path="url(#clip19)" clip-rule="nonzero">
<g clip-path="url(#clip20)" clip-rule="nonzero">
<path style=" stroke:none;fill-rule:nonzero;fill:rgb(63.137255%,43.137255%,22.745098%);fill-opacity:1;" d="M 13.359375 13.429688 L 15.148438 13.429688 L 15.148438 15.238281 L 13.359375 15.238281 Z M 13.359375 13.429688 "/>
</g>
</g>
<g clip-path="url(#clip21)" clip-rule="nonzero">
<g clip-path="url(#clip22)" clip-rule="nonzero">
<path style=" stroke:none;fill-rule:nonzero;fill:rgb(63.137255%,43.137255%,22.745098%);fill-opacity:1;" d="M 0.851562 11.621094 L 2.640625 11.621094 L 2.640625 13.429688 L 0.851562 13.429688 Z M 0.851562 11.621094 "/>
</g>
</g>
<g clip-path="url(#clip23)" clip-rule="nonzero">
<g clip-path="url(#clip24)" clip-rule="nonzero">
<path style=" stroke:none;fill-rule:nonzero;fill:rgb(58.039216%,43.137255%,16.862745%);fill-opacity:1;" d="M 2.640625 11.621094 L 4.425781 11.621094 L 4.425781 13.429688 L 2.640625 13.429688 Z M 2.640625 11.621094 "/>
</g>
</g>
<g clip-path="url(#clip25)" clip-rule="nonzero">
<g clip-path="url(#clip26)" clip-rule="nonzero">
<path style=" stroke:none;fill-rule:nonzero;fill:rgb(56.078431%,38.039216%,20%);fill-opacity:1;" d="M 4.425781 11.621094 L 6.214844 11.621094 L 6.214844 13.429688 L 4.425781 13.429688 Z M 4.425781 11.621094 "/>
</g>
</g>
<g clip-path="url(#clip27)" clip-rule="nonzero">
<g clip-path="url(#clip28)" clip-rule="nonzero">
<path style=" stroke:none;fill-rule:nonzero;fill:rgb(65.882353%,43.137255%,20%);fill-opacity:1;" d="M 6.214844 11.621094 L 8 11.621094 L 8 13.429688 L 6.214844 13.429688 Z M 6.214844 11.621094 "/>
</g>
</g>
<g clip-path="url(#clip29)" clip-rule="nonzero">
<g clip-path="url(#clip30)" clip-rule="nonzero">
<path style=" stroke:none;fill-rule:nonzero;fill:rgb(58.039216%,40%,20.784314%);fill-opacity:1;" d="M 8 11.621094 L 9.785156 11.621094 L 9.785156 13.429688 L 8 13.429688 Z M 8 11.621094 "/>
</g>
</g>
<g clip-path="url(#clip31)" clip-rule="nonzero">
<g clip-path="url(#clip32)" clip-rule="nonzero">
<path style=" stroke:none;fill-rule:nonzero;fill:rgb(56.078431%,38.039216%,20%);fill-opacity:1;" d="M 9.785156 11.621094 L 11.574219 11.621094 L 11.574219 13.429688 L 9.785156 13.429688 Z M 9.785156 11.621094 "/>
</g>
</g>
<g clip-path="url(#clip33)" clip-rule="nonzero">
<g clip-path="url(#clip34)" clip-rule="nonzero">
<path style=" stroke:none;fill-rule:nonzero;fill:rgb(56.078431%,38.039216%,20%);fill-opacity:1;" d="M 11.574219 11.621094 L 13.359375 11.621094 L 13.359375 13.429688 L 11.574219 13.429688 Z M 11.574219 11.621094 "/>
</g>
</g>
<g clip-path="url(#clip35)" clip-rule="nonzero">
<g clip-path="url(#clip36)" clip-rule="nonzero">
<path style=" stroke:none;fill-rule:nonzero;fill:rgb(67.058824%,45.882353%,24.705882%);fill-opacity:1;" d="M 13.359375 11.621094 L 15.148438 11.621094 L 15.148438 13.429688 L 13.359375 13.429688 Z M 13.359375 11.621094 "/>
</g>
</g>
<g clip-path="url(#clip37)" clip-rule="nonzero">
<g clip-path="url(#clip38)" clip-rule="nonzero">
<path style=" stroke:none;fill-rule:nonzero;fill:rgb(63.137255%,40.784314%,18.039216%);fill-opacity:1;" d="M 0.851562 9.808594 L 2.640625 9.808594 L 2.640625 11.621094 L 0.851562 11.621094 Z M 0.851562 9.808594 "/>
</g>
</g>
<g clip-path="url(#clip39)" clip-rule="nonzero">
<g clip-path="url(#clip40)" clip-rule="nonzero">
<path style=" stroke:none;fill-rule:nonzero;fill:rgb(63.137255%,43.137255%,22.745098%);fill-opacity:1;" d="M 2.640625 9.808594 L 4.425781 9.808594 L 4.425781 11.621094 L 2.640625 11.621094 Z M 2.640625 9.808594 "/>
</g>
</g>
<g clip-path="url(#clip41)" clip-rule="nonzero">
<g clip-path="url(#clip42)" clip-rule="nonzero">
<path style=" stroke:none;fill-rule:nonzero;fill:rgb(47.843137%,30.980392%,18.039216%);fill-opacity:1;" d="M 4.425781 9.808594 L 6.214844 9.808594 L 6.214844 11.621094 L 4.425781 11.621094 Z M 4.425781 9.808594 "/>
</g>
</g>
<g clip-path="url(#clip43)" clip-rule="nonzero">
<g clip-path="url(#clip44)" clip-rule="nonzero">
<path style=" stroke:none;fill-rule:nonzero;fill:rgb(63.137255%,43.137255%,22.745098%);fill-opacity:1;" d="M 6.214844 9.808594 L 8 9.808594 L 8 11.621094 L 6.214844 11.621094 Z M 6.214844 9.808594 "/>
</g>
</g>
<g clip-path="url(#clip45)" clip-rule="nonzero">
<g clip-path="url(#clip46)" clip-rule="nonzero">
<path style=" stroke:none;fill-rule:nonzero;fill:rgb(72.941176%,50.980392%,29.019608%);fill-opacity:1;" d="M 8 9.808594 L 9.785156 9.808594 L 9.785156 11.621094 L 8 11.621094 Z M 8 9.808594 "/>
</g>
</g>
<g clip-path="url(#clip47)" clip-rule="nonzero">
<g clip-path="url(#clip48)" clip-rule="nonzero">
<path style=" stroke:none;fill-rule:nonzero;fill:rgb(63.137255%,43.137255%,22.745098%);fill-opacity:1;" d="M 9.785156 9.808594 L 11.574219 9.808594 L 11.574219 11.621094 L 9.785156 11.621094 Z M 9.785156 9.808594 "/>
</g>
</g>
<g clip-path="url(#clip49)" clip-rule="nonzero">
<g clip-path="url(#clip50)" clip-rule="nonzero">
<path style=" stroke:none;fill-rule:nonzero;fill:rgb(52.156863%,40.784314%,22.745098%);fill-opacity:1;" d="M 11.574219 9.808594 L 13.359375 9.808594 L 13.359375 11.621094 L 11.574219 11.621094 Z M 11.574219 9.808594 "/>
</g>
</g>
<g clip-path="url(#clip51)" clip-rule="nonzero">
<g clip-path="url(#clip52)" clip-rule="nonzero">
<path style=" stroke:none;fill-rule:nonzero;fill:rgb(63.137255%,43.137255%,22.745098%);fill-opacity:1;" d="M 13.359375 9.808594 L 15.148438 9.808594 L 15.148438 11.621094 L 13.359375 11.621094 Z M 13.359375 9.808594 "/>
</g>
</g>
<g clip-path="url(#clip53)" clip-rule="nonzero">
<g clip-path="url(#clip54)" clip-rule="nonzero">
<path style=" stroke:none;fill-rule:nonzero;fill:rgb(63.137255%,43.137255%,22.745098%);fill-opacity:1;" d="M 0.851562 8 L 2.640625 8 L 2.640625 9.808594 L 0.851562 9.808594 Z M 0.851562 8 "/>
</g>
</g>
<g clip-path="url(#clip55)" clip-rule="nonzero">
<g clip-path="url(#clip56)" clip-rule="nonzero">
<path style=" stroke:none;fill-rule:nonzero;fill:rgb(58.039216%,40%,20.784314%);fill-opacity:1;" d="M 2.640625 8 L 4.425781 8 L 4.425781 9.808594 L 2.640625 9.808594 Z M 2.640625 8 "/>
</g>
</g>
<g clip-path="url(#clip57)" clip-rule="nonzero">
<g clip-path="url(#clip58)" clip-rule="nonzero">
<path style=" stroke:none;fill-rule:nonzero;fill:rgb(63.137255%,40.784314%,18.039216%);fill-opacity:1;" d="M 4.425781 8 L 6.214844 8 L 6.214844 9.808594 L 4.425781 9.808594 Z M 4.425781 8 "/>
</g>
</g>
<g clip-path="url(#clip59)" clip-rule="nonzero">
<g clip-path="url(#clip60)" clip-rule="nonzero">
<path style=" stroke:none;fill-rule:nonzero;fill:rgb(67.058824%,43.137255%,20%);fill-opacity:1;" d="M 6.214844 8 L 8 8 L 8 9.808594 L 6.214844 9.808594 Z M 6.214844 8 "/>
</g>
</g>
<g clip-path="url(#clip61)" clip-rule="nonzero">
<g clip-path="url(#clip62)" clip-rule="nonzero">
<path style=" stroke:none;fill-rule:nonzero;fill:rgb(56.078431%,38.039216%,20%);fill-opacity:1;" d="M 8 8 L 9.785156 8 L 9.785156 9.808594 L 8 9.808594 Z M 8 8 "/>
</g>
</g>
<g clip-path="url(#clip63)" clip-rule="nonzero">
<g clip-path="url(#clip64)" clip-rule="nonzero">
<path style=" stroke:none;fill-rule:nonzero;fill:rgb(50.980392%,32.941176%,18.823529%);fill-opacity:1;" d="M 9.785156 8 L 11.574219 8 L 11.574219 9.808594 L 9.785156 9.808594 Z M 9.785156 8 "/>
</g>
</g>
<g clip-path="url(#clip65)" clip-rule="nonzero">
<g clip-path="url(#clip66)" clip-rule="nonzero">
<path style=" stroke:none;fill-rule:nonzero;fill:rgb(63.137255%,43.137255%,22.745098%);fill-opacity:1;" d="M 11.574219 8 L 13.359375 8 L 13.359375 9.808594 L 11.574219 9.808594 Z M 11.574219 8 "/>
</g>
</g>
<g clip-path="url(#clip67)" clip-rule="nonzero">
<g clip-path="url(#clip68)" clip-rule="nonzero">
<path style=" stroke:none;fill-rule:nonzero;fill:rgb(67.058824%,45.882353%,24.705882%);fill-opacity:1;" d="M 13.359375 8 L 15.148438 8 L 15.148438 9.808594 L 13.359375 9.808594 Z M 13.359375 8 "/>
</g>
</g>
<g clip-path="url(#clip69)" clip-rule="nonzero">
<g clip-path="url(#clip70)" clip-rule="nonzero">
<path style=" stroke:none;fill-rule:nonzero;fill:rgb(34.901961%,69.019608%,34.117647%);fill-opacity:1;" d="M 0.851562 0.761719 L 8 0.761719 L 8 8 L 0.851562 8 Z M 0.851562 0.761719 "/>
</g>
</g>
<g clip-path="url(#clip71)" clip-rule="nonzero">
<g clip-path="url(#clip72)" clip-rule="nonzero">
<path style=" stroke:none;fill-rule:nonzero;fill:rgb(23.921569%,63.137255%,22.745098%);fill-opacity:1;" d="M 0.851562 6.191406 L 2.640625 6.191406 L 2.640625 8 L 0.851562 8 Z M 0.851562 6.191406 "/>
</g>
</g>
<g clip-path="url(#clip73)" clip-rule="nonzero">
<g clip-path="url(#clip74)" clip-rule="nonzero">
<path style=" stroke:none;fill-rule:nonzero;fill:rgb(40%,27.058824%,13.72549%);fill-opacity:1;" d="M 2.640625 6.191406 L 4.425781 6.191406 L 4.425781 8 L 2.640625 8 Z M 2.640625 6.191406 "/>
</g>
</g>
<g clip-path="url(#clip75)" clip-rule="nonzero">
<g clip-path="url(#clip76)" clip-rule="nonzero">
<path style=" stroke:none;fill-rule:nonzero;fill:rgb(63.137255%,40.784314%,18.039216%);fill-opacity:1;" d="M 4.425781 6.191406 L 6.214844 6.191406 L 6.214844 8 L 4.425781 8 Z M 4.425781 6.191406 "/>
</g>
</g>
<g clip-path="url(#clip77)" clip-rule="nonzero">
<g clip-path="url(#clip78)" clip-rule="nonzero">
<path style=" stroke:none;fill-rule:nonzero;fill:rgb(59.215686%,43.137255%,27.058824%);fill-opacity:1;" d="M 6.214844 6.191406 L 8 6.191406 L 8 8 L 6.214844 8 Z M 6.214844 6.191406 "/>
</g>
</g>
<g clip-path="url(#clip79)" clip-rule="nonzero">
<g clip-path="url(#clip80)" clip-rule="nonzero">
<path style=" stroke:none;fill-rule:nonzero;fill:rgb(63.137255%,40.784314%,18.039216%);fill-opacity:1;" d="M 8 6.191406 L 9.785156 6.191406 L 9.785156 8 L 8 8 Z M 8 6.191406 "/>
</g>
</g>
<g clip-path="url(#clip81)" clip-rule="nonzero">
<g clip-path="url(#clip82)" clip-rule="nonzero">
<path style=" stroke:none;fill-rule:nonzero;fill:rgb(22.745098%,50.980392%,21.960784%);fill-opacity:1;" d="M 9.785156 6.191406 L 11.574219 6.191406 L 11.574219 8 L 9.785156 8 Z M 9.785156 6.191406 "/>
</g>
</g>
<g clip-path="url(#clip83)" clip-rule="nonzero">
<g clip-path="url(#clip84)" clip-rule="nonzero">
<path style=" stroke:none;fill-rule:nonzero;fill:rgb(69.019608%,47.058824%,24.705882%);fill-opacity:1;" d="M 11.574219 6.191406 L 13.359375 6.191406 L 13.359375 8 L 11.574219 8 Z M 11.574219 6.191406 "/>
</g>
</g>
<g clip-path="url(#clip85)" clip-rule="nonzero">
<g clip-path="url(#clip86)" clip-rule="nonzero">
<path style=" stroke:none;fill-rule:nonzero;fill:rgb(63.137255%,43.137255%,22.745098%);fill-opacity:1;" d="M 13.359375 6.191406 L 15.148438 6.191406 L 15.148438 8 L 13.359375 8 Z M 13.359375 6.191406 "/>
</g>
</g>
<g clip-path="url(#clip87)" clip-rule="nonzero">
<g clip-path="url(#clip88)" clip-rule="nonzero">
<path style=" stroke:none;fill-rule:nonzero;fill:rgb(29.803922%,72.156863%,29.019608%);fill-opacity:1;" d="M 0.851562 4.378906 L 2.640625 4.378906 L 2.640625 6.191406 L 0.851562 6.191406 Z M 0.851562 4.378906 "/>
</g>
</g>
<g clip-path="url(#clip89)" clip-rule="nonzero">
<g clip-path="url(#clip90)" clip-rule="nonzero">
<path style=" stroke:none;fill-rule:nonzero;fill:rgb(58.039216%,40%,20.784314%);fill-opacity:1;" d="M 2.640625 4.378906 L 4.425781 4.378906 L 4.425781 6.191406 L 2.640625 6.191406 Z M 2.640625 4.378906 "/>
</g>
</g>
<g clip-path="url(#clip91)" clip-rule="nonzero">
<g clip-path="url(#clip92)" clip-rule="nonzero">
<path style=" stroke:none;fill-rule:nonzero;fill:rgb(47.843137%,30.980392%,18.039216%);fill-opacity:1;" d="M 4.425781 4.378906 L 6.214844 4.378906 L 6.214844 6.191406 L 4.425781 6.191406 Z M 4.425781 4.378906 "/>
</g>
</g>
<g clip-path="url(#clip93)" clip-rule="nonzero">
<g clip-path="url(#clip94)" clip-rule="nonzero">
<path style=" stroke:none;fill-rule:nonzero;fill:rgb(30.980392%,65.098039%,36.862745%);fill-opacity:1;" d="M 6.214844 4.378906 L 8 4.378906 L 8 6.191406 L 6.214844 6.191406 Z M 6.214844 4.378906 "/>
</g>
</g>
<g clip-path="url(#clip95)" clip-rule="nonzero">
<g clip-path="url(#clip96)" clip-rule="nonzero">
<path style=" stroke:none;fill-rule:nonzero;fill:rgb(25.882353%,76.078431%,24.705882%);fill-opacity:1;" d="M 8 4.378906 L 9.785156 4.378906 L 9.785156 6.191406 L 8 6.191406 Z M 8 4.378906 "/>
</g>
</g>
<g clip-path="url(#clip97)" clip-rule="nonzero">
<g clip-path="url(#clip98)" clip-rule="nonzero">
<path style=" stroke:none;fill-rule:nonzero;fill:rgb(22.745098%,50.980392%,21.960784%);fill-opacity:1;" d="M 9.785156 4.378906 L 11.574219 4.378906 L 11.574219 6.191406 L 9.785156 6.191406 Z M 9.785156 4.378906 "/>
</g>
</g>
<g clip-path="url(#clip99)" clip-rule="nonzero">
<g clip-path="url(#clip100)" clip-rule="nonzero">
<path style=" stroke:none;fill-rule:nonzero;fill:rgb(60%,47.058824%,21.960784%);fill-opacity:1;" d="M 11.574219 4.378906 L 13.359375 4.378906 L 13.359375 6.191406 L 11.574219 6.191406 Z M 11.574219 4.378906 "/>
</g>
</g>
<g clip-path="url(#clip101)" clip-rule="nonzero">
<g clip-path="url(#clip102)" clip-rule="nonzero">
<path style=" stroke:none;fill-rule:nonzero;fill:rgb(20.784314%,47.843137%,20.784314%);fill-opacity:1;" d="M 13.359375 4.378906 L 15.148438 4.378906 L 15.148438 6.191406 L 13.359375 6.191406 Z M 13.359375 4.378906 "/>
</g>
</g>
<g clip-path="url(#clip103)" clip-rule="nonzero">
<g clip-path="url(#clip104)" clip-rule="nonzero">
<path style=" stroke:none;fill-rule:nonzero;fill:rgb(27.843137%,58.039216%,27.843137%);fill-opacity:1;" d="M 0.851562 2.570312 L 2.640625 2.570312 L 2.640625 4.378906 L 0.851562 4.378906 Z M 0.851562 2.570312 "/>
</g>
</g>
<g clip-path="url(#clip105)" clip-rule="nonzero">
<g clip-path="url(#clip106)" clip-rule="nonzero">
<path style=" stroke:none;fill-rule:nonzero;fill:rgb(27.058824%,65.882353%,25.882353%);fill-opacity:1;" d="M 2.640625 2.570312 L 4.425781 2.570312 L 4.425781 4.378906 L 2.640625 4.378906 Z M 2.640625 2.570312 "/>
</g>
</g>
<g clip-path="url(#clip107)" clip-rule="nonzero">
<g clip-path="url(#clip108)" clip-rule="nonzero">
<path style=" stroke:none;fill-rule:nonzero;fill:rgb(22.745098%,50.980392%,21.960784%);fill-opacity:1;" d="M 4.425781 2.570312 L 6.214844 2.570312 L 6.214844 4.378906 L 4.425781 4.378906 Z M 4.425781 2.570312 "/>
</g>
</g>
<g clip-path="url(#clip109)" clip-rule="nonzero">
<g clip-path="url(#clip110)" clip-rule="nonzero">
<path style=" stroke:none;fill-rule:nonzero;fill:rgb(29.803922%,72.156863%,29.019608%);fill-opacity:1;" d="M 6.214844 2.570312 L 8 2.570312 L 8 4.378906 L 6.214844 4.378906 Z M 6.214844 2.570312 "/>
</g>
</g>
<g clip-path="url(#clip111)" clip-rule="nonzero">
<g clip-path="url(#clip112)" clip-rule="nonzero">
<path style=" stroke:none;fill-rule:nonzero;fill:rgb(27.843137%,58.039216%,27.843137%);fill-opacity:1;" d="M 8 2.570312 L 9.785156 2.570312 L 9.785156 4.378906 L 8 4.378906 Z M 8 2.570312 "/>
</g>
</g>
<g clip-path="url(#clip113)" clip-rule="nonzero">
<g clip-path="url(#clip114)" clip-rule="nonzero">
<path style=" stroke:none;fill-rule:nonzero;fill:rgb(27.058824%,65.882353%,25.882353%);fill-opacity:1;" d="M 9.785156 2.570312 L 11.574219 2.570312 L 11.574219 4.378906 L 9.785156 4.378906 Z M 9.785156 2.570312 "/>
</g>
</g>
<g clip-path="url(#clip115)" clip-rule="nonzero">
<g clip-path="url(#clip116)" clip-rule="nonzero">
<path style=" stroke:none;fill-rule:nonzero;fill:rgb(22.745098%,63.137255%,22.745098%);fill-opacity:1;" d="M 11.574219 2.570312 L 13.359375 2.570312 L 13.359375 4.378906 L 11.574219 4.378906 Z M 11.574219 2.570312 "/>
</g>
</g>
<g clip-path="url(#clip117)" clip-rule="nonzero">
<g clip-path="url(#clip118)" clip-rule="nonzero">
<path style=" stroke:none;fill-rule:nonzero;fill:rgb(27.843137%,58.039216%,27.843137%);fill-opacity:1;" d="M 13.359375 2.570312 L 15.148438 2.570312 L 15.148438 4.378906 L 13.359375 4.378906 Z M 13.359375 2.570312 "/>
</g>
</g>
<g clip-path="url(#clip119)" clip-rule="nonzero">
<g clip-path="url(#clip120)" clip-rule="nonzero">
<path style=" stroke:none;fill-rule:nonzero;fill:rgb(23.921569%,69.019608%,22.745098%);fill-opacity:1;" d="M 0.851562 0.761719 L 2.640625 0.761719 L 2.640625 2.570312 L 0.851562 2.570312 Z M 0.851562 0.761719 "/>
</g>
</g>
<g clip-path="url(#clip121)" clip-rule="nonzero">
<g clip-path="url(#clip122)" clip-rule="nonzero">
<path style=" stroke:none;fill-rule:nonzero;fill:rgb(27.843137%,58.039216%,27.843137%);fill-opacity:1;" d="M 2.640625 0.761719 L 4.425781 0.761719 L 4.425781 2.570312 L 2.640625 2.570312 Z M 2.640625 0.761719 "/>
</g>
</g>
<g clip-path="url(#clip123)" clip-rule="nonzero">
<g clip-path="url(#clip124)" clip-rule="nonzero">
<path style=" stroke:none;fill-rule:nonzero;fill:rgb(31.764706%,54.117647%,31.764706%);fill-opacity:1;" d="M 4.425781 0.761719 L 6.214844 0.761719 L 6.214844 2.570312 L 4.425781 2.570312 Z M 4.425781 0.761719 "/>
</g>
</g>
<g clip-path="url(#clip125)" clip-rule="nonzero">
<g clip-path="url(#clip126)" clip-rule="nonzero">
<path style=" stroke:none;fill-rule:nonzero;fill:rgb(22.745098%,50.980392%,21.960784%);fill-opacity:1;" d="M 6.214844 0.761719 L 8 0.761719 L 8 2.570312 L 6.214844 2.570312 Z M 6.214844 0.761719 "/>
</g>
</g>
<g clip-path="url(#clip127)" clip-rule="nonzero">
<g clip-path="url(#clip128)" clip-rule="nonzero">
<path style=" stroke:none;fill-rule:nonzero;fill:rgb(22.745098%,50.980392%,21.960784%);fill-opacity:1;" d="M 8 0.761719 L 9.785156 0.761719 L 9.785156 2.570312 L 8 2.570312 Z M 8 0.761719 "/>
</g>
</g>
<g clip-path="url(#clip129)" clip-rule="nonzero">
<g clip-path="url(#clip130)" clip-rule="nonzero">
<path style=" stroke:none;fill-rule:nonzero;fill:rgb(27.843137%,58.039216%,27.843137%);fill-opacity:1;" d="M 9.785156 0.761719 L 11.574219 0.761719 L 11.574219 2.570312 L 9.785156 2.570312 Z M 9.785156 0.761719 "/>
</g>
</g>
<g clip-path="url(#clip131)" clip-rule="nonzero">
<g clip-path="url(#clip132)" clip-rule="nonzero">
<path style=" stroke:none;fill-rule:nonzero;fill:rgb(27.058824%,69.019608%,25.882353%);fill-opacity:1;" d="M 11.574219 0.761719 L 13.359375 0.761719 L 13.359375 2.570312 L 11.574219 2.570312 Z M 11.574219 0.761719 "/>
</g>
</g>
<g clip-path="url(#clip133)" clip-rule="nonzero">
<g clip-path="url(#clip134)" clip-rule="nonzero">
<path style=" stroke:none;fill-rule:nonzero;fill:rgb(27.058824%,65.882353%,25.882353%);fill-opacity:1;" d="M 13.359375 0.761719 L 15.148438 0.761719 L 15.148438 2.570312 L 13.359375 2.570312 Z M 13.359375 0.761719 "/>
</g>
</g>
<g clip-path="url(#clip135)" clip-rule="nonzero">
<g clip-path="url(#clip136)" clip-rule="nonzero">
<path style=" stroke:none;fill-rule:nonzero;fill:rgb(61.176471%,41.960784%,24.705882%);fill-opacity:0.756863;" d="M 0.855469 8 L 0.855469 15.238281 L 15.148438 15.238281 L 15.148438 6.191406 L 13.359375 6.1875 L 13.359375 4.378906 L 11.574219 4.378906 L 11.574219 8 L 9.785156 8 L 9.785156 6.1875 L 6.214844 6.191406 L 6.214844 4.375 L 2.644531 4.378906 L 2.640625 8 Z M 0.855469 8 "/>
</g>
</g>
</g>
</svg>
