
<svg xmlns="http://www.w3.org/2000/svg" xmlns:xlink="http://www.w3.org/1999/xlink" width="16px" height="16px" viewBox="0 0 16 16" version="1.1">
<g id="surface1">
<path style="fill-rule:nonzero;fill:rgb(100%,100%,100%);fill-opacity:0.976471;stroke-width:28.636707;stroke-linecap:butt;stroke-linejoin:miter;stroke:rgb(9.803922%,72.941176%,61.176471%);stroke-opacity:1;stroke-miterlimit:4;" d="M 78.75 21.5 L 433.25 21.5 C 464.875 21.5 490.5 47.125 490.5 78.75 L 490.5 433.25 C 490.5 464.875 464.875 490.5 433.25 490.5 L 78.75 490.5 C 47.125 490.5 21.5 464.875 21.5 433.25 L 21.5 78.75 C 21.5 47.125 47.125 21.5 78.75 21.5 Z M 78.75 21.5 " transform="matrix(0.03125,0,0,0.03125,0,0)"/>
<path style=" stroke:none;fill-rule:nonzero;fill:rgb(9.803922%,72.941176%,61.176471%);fill-opacity:1;" d="M 12.378906 4.316406 C 12.289062 4.238281 12.183594 4.199219 12.0625 4.199219 L 3.9375 4.199219 C 3.816406 4.199219 3.710938 4.238281 3.621094 4.316406 C 3.53125 4.394531 3.488281 4.488281 3.488281 4.59375 L 3.488281 9.296875 C 3.488281 9.644531 3.566406 9.996094 3.722656 10.339844 C 3.882812 10.683594 4.078125 10.992188 4.308594 11.257812 C 4.542969 11.523438 4.820312 11.785156 5.140625 12.039062 C 5.464844 12.292969 5.761719 12.5 6.03125 12.667969 C 6.304688 12.835938 6.589844 12.996094 6.886719 13.144531 C 7.183594 13.292969 7.390625 13.394531 7.515625 13.445312 C 7.640625 13.5 7.742188 13.539062 7.816406 13.570312 C 7.871094 13.59375 7.933594 13.605469 8 13.605469 C 8.066406 13.605469 8.125 13.59375 8.183594 13.570312 C 8.257812 13.539062 8.359375 13.5 8.484375 13.445312 C 8.605469 13.394531 8.816406 13.292969 9.113281 13.144531 C 9.410156 12.996094 9.695312 12.835938 9.96875 12.667969 C 10.238281 12.5 10.535156 12.292969 10.859375 12.039062 C 11.179688 11.785156 11.457031 11.523438 11.691406 11.257812 C 11.921875 10.992188 12.117188 10.683594 12.277344 10.339844 C 12.433594 9.996094 12.511719 9.644531 12.511719 9.296875 L 12.511719 4.59375 C 12.511719 4.488281 12.46875 4.394531 12.378906 4.316406 Z M 11.160156 9.296875 C 11.160156 10.015625 10.605469 10.75 9.5 11.5 C 9.058594 11.800781 8.558594 12.082031 8 12.339844 L 8 5.375 L 11.160156 5.375 Z M 11.160156 9.296875 "/>
<path style=" stroke:none;fill-rule:nonzero;fill:rgb(9.803922%,72.941176%,61.176471%);fill-opacity:1;" d="M 8 2.394531 C 7.808594 2.394531 7.617188 2.460938 7.46875 2.585938 L 3.710938 4.167969 C 3.417969 4.425781 3.414062 4.835938 3.703125 5.089844 L 3.800781 5.175781 L 12.199219 5.175781 L 12.289062 5.09375 C 12.582031 4.835938 12.585938 4.425781 12.296875 4.171875 L 8.523438 2.582031 C 8.378906 2.457031 8.1875 2.394531 8 2.394531 Z M 8 2.394531 "/>
<path style=" stroke:none;fill-rule:nonzero;fill:rgb(0%,50.196078%,0%);fill-opacity:1;" d="M 6.699219 9.195312 L 10.140625 6.207031 C 10.328125 6.046875 10.605469 6.023438 10.761719 6.15625 L 10.886719 6.265625 C 11.042969 6.402344 11.015625 6.640625 10.828125 6.804688 L 7.386719 9.792969 C 7.199219 9.953125 6.921875 9.976562 6.769531 9.84375 L 6.640625 9.734375 C 6.488281 9.597656 6.515625 9.359375 6.699219 9.195312 Z M 6.699219 9.195312 "/>
<path style=" stroke:none;fill-rule:nonzero;fill:rgb(0%,50.196078%,0%);fill-opacity:1;" d="M 5.820312 7.828125 L 7.28125 9.097656 C 7.449219 9.242188 7.445312 9.484375 7.273438 9.632812 L 7.214844 9.683594 C 7.039062 9.835938 6.761719 9.839844 6.59375 9.691406 L 5.136719 8.425781 C 4.96875 8.277344 4.972656 8.039062 5.144531 7.886719 L 5.203125 7.835938 C 5.375 7.6875 5.652344 7.683594 5.820312 7.828125 Z M 5.820312 7.828125 "/>
<path style=" stroke:none;fill-rule:nonzero;fill:rgb(0%,50.196078%,0%);fill-opacity:1;" d="M 10.503906 6.070312 C 10.460938 6.070312 10.417969 6.074219 10.375 6.085938 C 10.6875 6.140625 10.925781 6.332031 10.976562 6.574219 C 11.007812 6.457031 10.976562 6.34375 10.886719 6.265625 L 10.761719 6.15625 C 10.695312 6.097656 10.601562 6.070312 10.503906 6.070312 Z M 8 8.066406 L 6.699219 9.195312 C 6.511719 9.359375 6.488281 9.597656 6.640625 9.734375 L 6.769531 9.84375 C 6.921875 9.976562 7.199219 9.957031 7.386719 9.792969 L 8 9.261719 Z M 8 8.066406 "/>
<path style=" stroke:none;fill-rule:nonzero;fill:rgb(0%,50.196078%,0%);fill-opacity:1;" d="M 5.820312 7.828125 L 7.28125 9.097656 C 7.449219 9.242188 7.445312 9.484375 7.273438 9.632812 L 7.214844 9.683594 C 7.039062 9.835938 6.761719 9.839844 6.59375 9.691406 L 5.136719 8.425781 C 4.96875 8.277344 4.972656 8.039062 5.144531 7.886719 L 5.203125 7.835938 C 5.375 7.6875 5.652344 7.683594 5.820312 7.828125 Z M 5.820312 7.828125 "/>
</g>
</svg>
