
<svg xmlns="http://www.w3.org/2000/svg" xmlns:xlink="http://www.w3.org/1999/xlink" width="16px" height="16px" viewBox="0 0 16 16" version="1.1">
<g id="surface1">
<path style="fill-rule:nonzero;fill:rgb(100%,100%,100%);fill-opacity:1;stroke-width:18.73;stroke-linecap:butt;stroke-linejoin:miter;stroke:rgb(23.921569%,32.941176%,24.705882%);stroke-opacity:1;stroke-miterlimit:4;" d="M 78.625 31 L 433.375 31 C 459.625 31 481 52.375 481 78.625 L 481 433.375 C 481 459.625 459.625 481 433.375 481 L 78.625 481 C 52.375 481 31 459.625 31 433.375 L 31 78.625 C 31 52.375 52.375 31 78.625 31 Z M 78.625 31 " transform="matrix(0.03125,0,0,0.03125,0,0)"/>
<path style=" stroke:none;fill-rule:nonzero;fill:rgb(84.313725%,84.313725%,84.313725%);fill-opacity:1;" d="M 4.121094 11.265625 L 4.886719 11.265625 L 4.886719 12.601562 L 4.121094 12.601562 Z M 4.121094 11.265625 "/>
<path style=" stroke:none;fill-rule:nonzero;fill:rgb(84.313725%,84.313725%,84.313725%);fill-opacity:1;" d="M 4.773438 11.261719 L 5.539062 11.261719 L 5.539062 12.597656 L 4.773438 12.597656 Z M 4.773438 11.261719 "/>
<path style=" stroke:none;fill-rule:nonzero;fill:rgb(84.313725%,84.313725%,84.313725%);fill-opacity:1;" d="M 5.296875 11.261719 L 6.058594 11.261719 L 6.058594 12.597656 L 5.296875 12.597656 Z M 5.296875 11.261719 "/>
<path style=" stroke:none;fill-rule:nonzero;fill:rgb(97.254902%,87.058824%,40.784314%);fill-opacity:1;" d="M 4.226562 11.261719 L 4.988281 11.261719 L 4.988281 12.597656 L 4.226562 12.597656 Z M 4.226562 11.261719 "/>
<path style=" stroke:none;fill-rule:nonzero;fill:rgb(97.254902%,87.058824%,40.784314%);fill-opacity:1;" d="M 5.183594 11.261719 L 5.949219 11.261719 L 5.949219 12.597656 L 5.183594 12.597656 Z M 5.183594 11.261719 "/>
<path style=" stroke:none;fill-rule:nonzero;fill:rgb(43.921569%,80%,70.196078%);fill-opacity:1;" d="M 3.65625 5.65625 L 13.65625 5.65625 C 13.988281 5.65625 14.261719 5.925781 14.261719 6.257812 L 14.261719 11.039062 C 14.261719 11.371094 13.988281 11.640625 13.65625 11.640625 L 3.65625 11.640625 C 3.320312 11.640625 3.050781 11.371094 3.050781 11.039062 L 3.050781 6.257812 C 3.050781 5.925781 3.320312 5.65625 3.65625 5.65625 Z M 3.65625 5.65625 "/>
<path style=" stroke:none;fill-rule:nonzero;fill:rgb(84.313725%,84.313725%,84.313725%);fill-opacity:1;" d="M 1.53125 3.953125 L 1.53125 4.472656 L 2.984375 4.472656 L 2.984375 11.640625 L 3.527344 11.640625 L 3.527344 3.953125 Z M 1.53125 3.953125 "/>
<path style=" stroke:none;fill-rule:nonzero;fill:rgb(9.803922%,63.137255%,52.941176%);fill-opacity:1;" d="M 9.367188 7.414062 L 9.367188 7.152344 L 8.878906 7.152344 L 8.878906 6.273438 L 4.394531 6.273438 L 4.394531 7.152344 L 3.90625 7.152344 L 3.90625 7.414062 L 4.394531 7.414062 L 4.394531 8.019531 L 3.90625 8.019531 L 3.90625 8.28125 L 4.394531 8.28125 L 4.394531 8.941406 L 3.90625 8.941406 L 3.90625 9.203125 L 4.394531 9.203125 L 4.394531 9.726562 L 3.90625 9.726562 L 3.90625 9.988281 L 4.394531 9.988281 L 4.394531 10.757812 L 8.878906 10.757812 L 8.878906 9.988281 L 9.367188 9.988281 L 9.367188 9.726562 L 8.878906 9.726562 L 8.878906 9.203125 L 9.367188 9.203125 L 9.367188 8.941406 L 8.878906 8.941406 L 8.878906 8.28125 L 9.367188 8.28125 L 9.367188 8.019531 L 8.878906 8.019531 L 8.878906 7.414062 Z M 9.367188 7.414062 "/>
<path style=" stroke:none;fill-rule:nonzero;fill:rgb(9.803922%,63.137255%,52.941176%);fill-opacity:1;" d="M 10.566406 6.972656 L 10.480469 6.976562 C 10.40625 6.980469 10.390625 6.980469 10.351562 7 C 10.296875 7.027344 10.238281 7.085938 10.210938 7.144531 L 10.191406 7.1875 L 10.1875 8.582031 C 10.1875 9.582031 10.1875 9.984375 10.191406 10.011719 C 10.210938 10.09375 10.292969 10.183594 10.378906 10.214844 C 10.40625 10.226562 10.441406 10.230469 10.496094 10.230469 L 10.570312 10.230469 L 10.582031 10.207031 C 10.597656 10.164062 10.632812 10.140625 10.675781 10.136719 C 10.722656 10.132812 10.757812 10.152344 10.78125 10.199219 L 10.796875 10.230469 L 12.925781 10.230469 L 12.941406 10.199219 C 12.960938 10.160156 12.988281 10.140625 13.03125 10.136719 C 13.089844 10.128906 13.152344 10.171875 13.152344 10.21875 C 13.152344 10.230469 13.15625 10.230469 13.191406 10.226562 C 13.273438 10.222656 13.371094 10.148438 13.414062 10.0625 L 13.4375 10.019531 L 13.4375 8.617188 C 13.441406 7.234375 13.441406 7.214844 13.425781 7.171875 C 13.390625 7.066406 13.277344 6.976562 13.175781 6.976562 C 13.15625 6.976562 13.152344 6.980469 13.152344 6.988281 C 13.152344 7.007812 13.117188 7.046875 13.09375 7.0625 C 13.066406 7.074219 13.023438 7.074219 12.996094 7.0625 C 12.972656 7.046875 12.941406 7.011719 12.933594 6.992188 L 12.929688 6.976562 L 10.796875 6.976562 L 10.78125 7.007812 C 10.742188 7.09375 10.625 7.09375 10.582031 7.007812 Z M 10.566406 6.972656 "/>
<path style=" stroke:none;fill-rule:nonzero;fill:rgb(90.196078%,90.196078%,90.196078%);fill-opacity:1;" d="M 11.363281 7.710938 L 12.257812 7.710938 C 12.378906 7.710938 12.476562 7.808594 12.476562 7.929688 L 12.476562 8.003906 C 12.476562 8.125 12.378906 8.226562 12.257812 8.226562 L 11.363281 8.226562 C 11.242188 8.226562 11.144531 8.125 11.144531 8.003906 L 11.144531 7.929688 C 11.144531 7.808594 11.242188 7.710938 11.363281 7.710938 Z M 11.363281 7.710938 "/>
<path style=" stroke:none;fill-rule:nonzero;fill:rgb(90.196078%,90.196078%,90.196078%);fill-opacity:1;" d="M 11.480469 7.140625 L 11.480469 7.707031 C 11.480469 7.742188 11.453125 7.769531 11.417969 7.769531 L 11.398438 7.769531 C 11.363281 7.769531 11.335938 7.742188 11.335938 7.707031 L 11.335938 7.140625 C 11.335938 7.105469 11.363281 7.078125 11.398438 7.078125 L 11.417969 7.078125 C 11.453125 7.078125 11.480469 7.105469 11.480469 7.140625 Z M 11.480469 7.140625 "/>
<path style=" stroke:none;fill-rule:nonzero;fill:rgb(90.196078%,90.196078%,90.196078%);fill-opacity:1;" d="M 11.75 7.140625 L 11.75 7.707031 C 11.75 7.742188 11.722656 7.769531 11.6875 7.769531 L 11.664062 7.769531 C 11.632812 7.769531 11.601562 7.742188 11.601562 7.707031 L 11.601562 7.140625 C 11.601562 7.105469 11.632812 7.078125 11.664062 7.078125 L 11.6875 7.078125 C 11.722656 7.078125 11.75 7.105469 11.75 7.140625 Z M 11.75 7.140625 "/>
<path style=" stroke:none;fill-rule:nonzero;fill:rgb(90.196078%,90.196078%,90.196078%);fill-opacity:1;" d="M 12.015625 7.140625 L 12.015625 7.707031 C 12.015625 7.742188 11.988281 7.769531 11.953125 7.769531 L 11.929688 7.769531 C 11.894531 7.769531 11.867188 7.742188 11.867188 7.707031 L 11.867188 7.140625 C 11.867188 7.105469 11.894531 7.078125 11.929688 7.078125 L 11.953125 7.078125 C 11.988281 7.078125 12.015625 7.105469 12.015625 7.140625 Z M 12.015625 7.140625 "/>
<path style=" stroke:none;fill-rule:nonzero;fill:rgb(90.196078%,90.196078%,90.196078%);fill-opacity:1;" d="M 12.28125 7.140625 L 12.28125 7.703125 C 12.28125 7.738281 12.253906 7.769531 12.21875 7.769531 L 12.199219 7.769531 C 12.164062 7.769531 12.136719 7.738281 12.136719 7.703125 L 12.136719 7.140625 C 12.136719 7.105469 12.164062 7.078125 12.199219 7.078125 L 12.21875 7.078125 C 12.253906 7.078125 12.28125 7.105469 12.28125 7.140625 Z M 12.28125 7.140625 "/>
<path style=" stroke:none;fill-rule:nonzero;fill:rgb(90.196078%,90.196078%,90.196078%);fill-opacity:1;" d="M 12.703125 8.140625 L 12.703125 9.03125 C 12.703125 9.152344 12.601562 9.253906 12.480469 9.253906 L 12.40625 9.253906 C 12.285156 9.253906 12.1875 9.152344 12.1875 9.03125 L 12.1875 8.140625 C 12.1875 8.019531 12.285156 7.921875 12.40625 7.921875 L 12.480469 7.921875 C 12.601562 7.921875 12.703125 8.019531 12.703125 8.140625 Z M 12.703125 8.140625 "/>
<path style=" stroke:none;fill-rule:nonzero;fill:rgb(90.196078%,90.196078%,90.196078%);fill-opacity:1;" d="M 13.269531 8.257812 L 12.707031 8.257812 C 12.671875 8.257812 12.644531 8.230469 12.644531 8.195312 L 12.644531 8.171875 C 12.644531 8.136719 12.671875 8.109375 12.707031 8.109375 L 13.269531 8.109375 C 13.304688 8.109375 13.332031 8.136719 13.332031 8.171875 L 13.332031 8.195312 C 13.332031 8.230469 13.304688 8.257812 13.269531 8.257812 Z M 13.269531 8.257812 "/>
<path style=" stroke:none;fill-rule:nonzero;fill:rgb(90.196078%,90.196078%,90.196078%);fill-opacity:1;" d="M 13.269531 8.527344 L 12.707031 8.527344 C 12.671875 8.527344 12.644531 8.496094 12.644531 8.460938 L 12.644531 8.441406 C 12.644531 8.40625 12.671875 8.378906 12.707031 8.378906 L 13.269531 8.378906 C 13.304688 8.378906 13.332031 8.40625 13.332031 8.441406 L 13.332031 8.460938 C 13.332031 8.496094 13.304688 8.527344 13.269531 8.527344 Z M 13.269531 8.527344 "/>
<path style=" stroke:none;fill-rule:nonzero;fill:rgb(90.196078%,90.196078%,90.196078%);fill-opacity:1;" d="M 13.269531 8.789062 L 12.707031 8.789062 C 12.671875 8.789062 12.644531 8.761719 12.644531 8.726562 L 12.644531 8.707031 C 12.644531 8.671875 12.671875 8.644531 12.707031 8.644531 L 13.269531 8.644531 C 13.304688 8.644531 13.332031 8.671875 13.332031 8.707031 L 13.332031 8.726562 C 13.332031 8.761719 13.304688 8.789062 13.269531 8.789062 Z M 13.269531 8.789062 "/>
<path style=" stroke:none;fill-rule:nonzero;fill:rgb(90.196078%,90.196078%,90.196078%);fill-opacity:1;" d="M 13.273438 9.058594 L 12.707031 9.058594 C 12.671875 9.058594 12.644531 9.03125 12.644531 8.996094 L 12.644531 8.972656 C 12.644531 8.9375 12.671875 8.910156 12.707031 8.910156 L 13.273438 8.910156 C 13.308594 8.910156 13.335938 8.9375 13.335938 8.972656 L 13.335938 8.996094 C 13.335938 9.03125 13.308594 9.058594 13.273438 9.058594 Z M 13.273438 9.058594 "/>
<path style=" stroke:none;fill-rule:nonzero;fill:rgb(90.196078%,90.196078%,90.196078%);fill-opacity:1;" d="M 10.921875 8.144531 L 10.921875 9.039062 C 10.921875 9.160156 11.019531 9.257812 11.140625 9.257812 L 11.21875 9.257812 C 11.339844 9.257812 11.4375 9.160156 11.4375 9.039062 L 11.4375 8.144531 C 11.4375 8.023438 11.339844 7.925781 11.21875 7.925781 L 11.140625 7.925781 C 11.019531 7.925781 10.921875 8.023438 10.921875 8.144531 Z M 10.921875 8.144531 "/>
<path style=" stroke:none;fill-rule:nonzero;fill:rgb(90.196078%,90.196078%,90.196078%);fill-opacity:1;" d="M 10.351562 8.261719 L 10.917969 8.261719 C 10.953125 8.261719 10.980469 8.234375 10.980469 8.199219 L 10.980469 8.179688 C 10.980469 8.144531 10.953125 8.117188 10.917969 8.117188 L 10.351562 8.117188 C 10.320312 8.117188 10.289062 8.144531 10.289062 8.179688 L 10.289062 8.199219 C 10.289062 8.234375 10.320312 8.261719 10.351562 8.261719 Z M 10.351562 8.261719 "/>
<path style=" stroke:none;fill-rule:nonzero;fill:rgb(90.196078%,90.196078%,90.196078%);fill-opacity:1;" d="M 10.351562 8.53125 L 10.917969 8.53125 C 10.953125 8.53125 10.980469 8.503906 10.980469 8.46875 L 10.980469 8.445312 C 10.980469 8.414062 10.953125 8.382812 10.917969 8.382812 L 10.351562 8.382812 C 10.316406 8.382812 10.289062 8.414062 10.289062 8.445312 L 10.289062 8.46875 C 10.289062 8.503906 10.316406 8.53125 10.351562 8.53125 Z M 10.351562 8.53125 "/>
<path style=" stroke:none;fill-rule:nonzero;fill:rgb(90.196078%,90.196078%,90.196078%);fill-opacity:1;" d="M 10.351562 8.796875 L 10.917969 8.796875 C 10.953125 8.796875 10.980469 8.769531 10.980469 8.734375 L 10.980469 8.710938 C 10.980469 8.675781 10.953125 8.648438 10.917969 8.648438 L 10.351562 8.648438 C 10.316406 8.648438 10.289062 8.675781 10.289062 8.710938 L 10.289062 8.734375 C 10.289062 8.769531 10.316406 8.796875 10.351562 8.796875 Z M 10.351562 8.796875 "/>
<path style=" stroke:none;fill-rule:nonzero;fill:rgb(90.196078%,90.196078%,90.196078%);fill-opacity:1;" d="M 10.351562 9.0625 L 10.917969 9.0625 C 10.949219 9.0625 10.980469 9.035156 10.980469 9 L 10.980469 8.980469 C 10.980469 8.945312 10.949219 8.917969 10.917969 8.917969 L 10.351562 8.917969 C 10.316406 8.917969 10.289062 8.945312 10.289062 8.980469 L 10.289062 9 C 10.289062 9.035156 10.316406 9.0625 10.351562 9.0625 Z M 10.351562 9.0625 "/>
<path style=" stroke:none;fill-rule:nonzero;fill:rgb(90.196078%,90.196078%,90.196078%);fill-opacity:1;" d="M 11.371094 9.5 L 12.261719 9.5 C 12.382812 9.5 12.480469 9.398438 12.480469 9.277344 L 12.480469 9.203125 C 12.480469 9.082031 12.382812 8.984375 12.261719 8.984375 L 11.371094 8.984375 C 11.25 8.984375 11.148438 9.082031 11.148438 9.203125 L 11.148438 9.277344 C 11.148438 9.398438 11.25 9.5 11.371094 9.5 Z M 11.371094 9.5 "/>
<path style=" stroke:none;fill-rule:nonzero;fill:rgb(90.196078%,90.196078%,90.196078%);fill-opacity:1;" d="M 11.484375 10.066406 L 11.484375 9.503906 C 11.484375 9.46875 11.457031 9.441406 11.421875 9.441406 L 11.402344 9.441406 C 11.367188 9.441406 11.339844 9.46875 11.339844 9.503906 L 11.339844 10.066406 C 11.339844 10.101562 11.367188 10.128906 11.402344 10.128906 L 11.421875 10.128906 C 11.457031 10.128906 11.484375 10.101562 11.484375 10.066406 Z M 11.484375 10.066406 "/>
<path style=" stroke:none;fill-rule:nonzero;fill:rgb(90.196078%,90.196078%,90.196078%);fill-opacity:1;" d="M 11.753906 10.066406 L 11.753906 9.503906 C 11.753906 9.46875 11.726562 9.441406 11.691406 9.441406 L 11.671875 9.441406 C 11.636719 9.441406 11.609375 9.46875 11.609375 9.503906 L 11.609375 10.066406 C 11.609375 10.101562 11.636719 10.128906 11.671875 10.128906 L 11.691406 10.128906 C 11.726562 10.128906 11.753906 10.101562 11.753906 10.066406 Z M 11.753906 10.066406 "/>
<path style=" stroke:none;fill-rule:nonzero;fill:rgb(90.196078%,90.196078%,90.196078%);fill-opacity:1;" d="M 12.019531 10.066406 L 12.019531 9.503906 C 12.019531 9.46875 11.992188 9.441406 11.957031 9.441406 L 11.933594 9.441406 C 11.902344 9.441406 11.871094 9.46875 11.871094 9.503906 L 11.871094 10.066406 C 11.871094 10.101562 11.902344 10.128906 11.933594 10.128906 L 11.957031 10.128906 C 11.992188 10.128906 12.019531 10.101562 12.019531 10.066406 Z M 12.019531 10.066406 "/>
<path style=" stroke:none;fill-rule:nonzero;fill:rgb(90.196078%,90.196078%,90.196078%);fill-opacity:1;" d="M 12.289062 10.070312 L 12.289062 9.503906 C 12.289062 9.46875 12.257812 9.441406 12.222656 9.441406 L 12.203125 9.441406 C 12.167969 9.441406 12.140625 9.46875 12.140625 9.503906 L 12.140625 10.070312 C 12.140625 10.101562 12.167969 10.132812 12.203125 10.132812 L 12.222656 10.132812 C 12.257812 10.132812 12.289062 10.101562 12.289062 10.070312 Z M 12.289062 10.070312 "/>
<path style=" stroke:none;fill-rule:nonzero;fill:rgb(12.941176%,20.784314%,32.941176%);fill-opacity:1;" d="M 11.144531 9.300781 C 11.097656 9.277344 11.101562 9.316406 11.101562 8.59375 L 11.101562 7.933594 L 11.117188 7.917969 C 11.128906 7.90625 11.140625 7.894531 11.148438 7.890625 C 11.164062 7.882812 12.457031 7.882812 12.476562 7.890625 C 12.480469 7.894531 12.496094 7.90625 12.503906 7.917969 L 12.523438 7.933594 L 12.523438 8.59375 C 12.523438 9.3125 12.523438 9.273438 12.480469 9.296875 C 12.453125 9.3125 11.175781 9.3125 11.144531 9.300781 Z M 12.410156 9.183594 C 12.421875 9.160156 12.414062 9.128906 12.394531 9.121094 C 12.34375 9.101562 12.308594 9.175781 12.359375 9.199219 C 12.378906 9.210938 12.402344 9.203125 12.410156 9.183594 Z M 11.277344 9.191406 C 11.292969 9.175781 11.289062 9.136719 11.265625 9.125 C 11.230469 9.097656 11.191406 9.140625 11.210938 9.183594 C 11.21875 9.199219 11.226562 9.203125 11.242188 9.203125 C 11.257812 9.203125 11.273438 9.199219 11.277344 9.191406 Z M 11.277344 8.0625 C 11.292969 8.046875 11.289062 8.003906 11.273438 7.996094 C 11.238281 7.980469 11.203125 8 11.203125 8.035156 C 11.203125 8.058594 11.21875 8.070312 11.246094 8.070312 C 11.257812 8.070312 11.273438 8.066406 11.277344 8.0625 Z M 12.40625 8.058594 C 12.421875 8.042969 12.421875 8.019531 12.40625 8.003906 C 12.371094 7.964844 12.3125 8.011719 12.339844 8.054688 C 12.355469 8.074219 12.386719 8.078125 12.40625 8.058594 Z M 12.40625 8.058594 "/>
<path style=" stroke:none;fill-rule:evenodd;fill:rgb(97.254902%,87.058824%,40.784314%);fill-opacity:1;" d="M 11.179688 9.9375 L 11.410156 9.9375 L 11.410156 10.230469 L 11.179688 10.230469 Z M 11.179688 9.9375 "/>
<path style=" stroke:none;fill-rule:evenodd;fill:rgb(97.254902%,87.058824%,40.784314%);fill-opacity:1;" d="M 11.28125 9.722656 L 11.308594 9.722656 C 11.367188 9.722656 11.410156 9.769531 11.410156 9.824219 L 11.410156 9.933594 C 11.410156 9.988281 11.367188 10.035156 11.308594 10.035156 L 11.28125 10.035156 C 11.226562 10.035156 11.179688 9.988281 11.179688 9.933594 L 11.179688 9.824219 C 11.179688 9.769531 11.226562 9.722656 11.28125 9.722656 Z M 11.28125 9.722656 "/>
<path style=" stroke:none;fill-rule:evenodd;fill:rgb(97.254902%,87.058824%,40.784314%);fill-opacity:1;" d="M 11.492188 9.9375 L 11.722656 9.9375 L 11.722656 10.230469 L 11.492188 10.230469 Z M 11.492188 9.9375 "/>
<path style=" stroke:none;fill-rule:evenodd;fill:rgb(97.254902%,87.058824%,40.784314%);fill-opacity:1;" d="M 11.59375 9.722656 L 11.621094 9.722656 C 11.675781 9.722656 11.722656 9.769531 11.722656 9.824219 L 11.722656 9.933594 C 11.722656 9.988281 11.675781 10.035156 11.621094 10.035156 L 11.59375 10.035156 C 11.535156 10.035156 11.492188 9.988281 11.492188 9.933594 L 11.492188 9.824219 C 11.492188 9.769531 11.535156 9.722656 11.59375 9.722656 Z M 11.59375 9.722656 "/>
<path style=" stroke:none;fill-rule:evenodd;fill:rgb(97.254902%,87.058824%,40.784314%);fill-opacity:1;" d="M 11.90625 9.9375 L 12.136719 9.9375 L 12.136719 10.230469 L 11.90625 10.230469 Z M 11.90625 9.9375 "/>
<path style=" stroke:none;fill-rule:evenodd;fill:rgb(97.254902%,87.058824%,40.784314%);fill-opacity:1;" d="M 12.007812 9.722656 L 12.035156 9.722656 C 12.089844 9.722656 12.136719 9.769531 12.136719 9.824219 L 12.136719 9.933594 C 12.136719 9.988281 12.089844 10.035156 12.035156 10.035156 L 12.007812 10.035156 C 11.949219 10.035156 11.90625 9.988281 11.90625 9.933594 L 11.90625 9.824219 C 11.90625 9.769531 11.949219 9.722656 12.007812 9.722656 Z M 12.007812 9.722656 "/>
<path style=" stroke:none;fill-rule:evenodd;fill:rgb(97.254902%,87.058824%,40.784314%);fill-opacity:1;" d="M 12.207031 9.9375 L 12.4375 9.9375 L 12.4375 10.230469 L 12.207031 10.230469 Z M 12.207031 9.9375 "/>
<path style=" stroke:none;fill-rule:evenodd;fill:rgb(97.254902%,87.058824%,40.784314%);fill-opacity:1;" d="M 12.308594 9.722656 L 12.335938 9.722656 C 12.394531 9.722656 12.4375 9.769531 12.4375 9.824219 L 12.4375 9.933594 C 12.4375 9.988281 12.394531 10.035156 12.335938 10.035156 L 12.308594 10.035156 C 12.253906 10.035156 12.207031 9.988281 12.207031 9.933594 L 12.207031 9.824219 C 12.207031 9.769531 12.253906 9.722656 12.308594 9.722656 Z M 12.308594 9.722656 "/>
<path style=" stroke:none;fill-rule:nonzero;fill:rgb(90.196078%,90.196078%,90.196078%);fill-opacity:1;" d="M 5.589844 7.453125 L 5.589844 9.824219 L 5.871094 9.824219 L 5.871094 7.453125 Z M 6.015625 7.453125 L 6.015625 9.824219 L 6.296875 9.824219 L 6.296875 7.453125 Z M 6.445312 7.453125 L 6.445312 9.824219 L 6.726562 9.824219 L 6.726562 7.453125 Z M 6.882812 7.453125 L 6.882812 9.824219 L 7.167969 9.824219 L 7.167969 7.453125 Z M 7.320312 7.453125 L 7.320312 9.824219 L 7.605469 9.824219 L 7.605469 7.453125 Z M 7.320312 7.453125 "/>
</g>
</svg>
