
<svg xmlns="http://www.w3.org/2000/svg" xmlns:xlink="http://www.w3.org/1999/xlink" width="16px" height="16px" viewBox="0 0 16 16" version="1.1">
<g id="surface1">
<path style="fill-rule:nonzero;fill:rgb(100%,100%,100%);fill-opacity:1;stroke-width:27.389011;stroke-linecap:butt;stroke-linejoin:miter;stroke:rgb(59.215686%,85.098039%,31.764706%);stroke-opacity:1;stroke-miterlimit:4;" d="M 86.5 31.625 L 425.5 31.625 C 455.75 31.625 480.375 56.25 480.375 86.5 L 480.375 425.5 C 480.375 455.75 455.75 480.375 425.5 480.375 L 86.5 480.375 C 56.25 480.375 31.625 455.75 31.625 425.5 L 31.625 86.5 C 31.625 56.25 56.25 31.625 86.5 31.625 Z M 86.5 31.625 " transform="matrix(0.03125,0,0,0.03125,0,0)"/>
<path style="fill-rule:nonzero;fill:rgb(100%,100%,100%);fill-opacity:1;stroke-width:3.6;stroke-linecap:butt;stroke-linejoin:miter;stroke:rgb(58.039216%,85.098039%,31.764706%);stroke-opacity:1;stroke-miterlimit:4;" d="M 50.84318 112.025619 C 38.472464 108.787646 29.505771 100.817252 25.645111 89.691911 L 24.77335 86.038814 L 24.067638 63.663593 C 23.320413 39.337287 23.735538 39.254262 21.327815 37.344688 C 20.331515 36.597464 19.625803 36.431414 16.719931 36.431414 C 14.85187 36.431414 12.319609 36.306877 11.115747 36.140827 L 8.874074 35.891752 L 8.874074 16.090304 L 48.850581 16.256354 C 92.438673 16.463917 91.068761 16.380892 97.544707 18.954665 C 105.764175 22.151125 112.945832 28.876145 116.474392 36.597464 C 119.13119 42.533747 119.089678 41.786522 119.29724 74.70591 C 119.46329 101.938089 119.421777 104.843962 118.79909 106.089336 C 117.595229 108.331009 115.062968 110.821757 112.862807 111.859569 L 110.745671 112.855868 L 82.268118 112.814356 C 56.032238 112.814356 53.583003 112.731331 50.84318 112.025619 Z M 92.023548 98.949191 C 101.114779 97.994404 108.088873 90.978797 109.334248 81.638492 C 109.624835 79.355306 109.749372 73.086923 109.583322 63.912668 C 109.37576 46.892556 109.292735 46.518944 104.684851 41.869547 C 101.239316 38.424012 98.582518 37.261663 93.933122 37.261663 C 90.238512 37.261663 87.623227 38.008888 84.841891 39.793924 L 82.80778 41.08081 L 79.320733 39.295774 C 75.875198 37.510738 75.833686 37.469226 71.391851 37.469226 C 67.489679 37.469226 66.617918 37.635276 64.874394 38.465525 C 61.843984 39.959974 58.855086 43.114921 57.277612 46.435919 L 55.907701 49.300279 L 55.658626 75.287084 L 65.414056 75.287084 L 65.414056 63.331493 C 65.414056 52.206152 65.455569 51.33439 66.244305 50.047504 C 68.153879 46.934068 72.554201 45.937769 75.086461 48.096418 C 77.577209 50.213553 77.660234 50.462628 77.660234 63.414518 L 77.660234 75.287084 L 87.249614 75.287084 L 87.415664 63.040906 C 87.540202 51.417415 87.581714 50.794728 88.453476 49.673891 C 91.151786 45.979282 96.216308 45.979282 98.790081 49.632379 C 99.78638 51.00229 99.78638 51.043803 99.910917 66.112829 L 100.035455 81.181855 L 98.873106 83.340503 C 97.586219 85.748226 95.552108 87.49175 92.56321 88.903174 C 90.529099 89.816448 90.36305 89.857961 71.640926 89.774936 C 50.67713 89.691911 51.382842 89.774936 48.310919 86.786038 C 47.439157 85.955789 46.276808 84.29529 45.737146 83.132941 L 44.740847 80.974292 L 44.740847 28.95917 L 41.502874 28.668582 C 39.717838 28.544045 37.642215 28.419508 36.853478 28.419508 L 35.442054 28.419508 L 35.483566 50.877753 C 35.525079 63.248468 35.649616 76.117334 35.815666 79.479844 C 36.106253 85.333102 36.189278 85.748226 37.517677 88.238974 C 39.136664 91.227872 42.789761 95.088532 45.571096 96.74903 C 49.639318 99.115241 51.299817 99.281291 70.68614 99.322803 C 80.44157 99.322803 90.03095 99.156754 92.023548 98.949191 Z M 92.023548 98.949191 " transform="matrix(0.0940982,0,0,0.0940982,1.965747,1.93515)"/>
<path style="fill-rule:nonzero;fill:rgb(58.039216%,85.098039%,31.764706%);fill-opacity:1;stroke-width:0.3;stroke-linecap:butt;stroke-linejoin:miter;stroke:rgb(58.039216%,85.098039%,31.764706%);stroke-opacity:1;stroke-miterlimit:4;" d="M 58.439961 99.115241 C 51.507379 98.949191 49.597806 98.658604 46.857983 97.288693 C 44.865384 96.333906 43.661523 95.420631 41.710437 93.428033 C 39.178176 90.937285 37.144065 87.865362 36.562891 85.706714 C 35.857179 83.215966 35.732641 78.359007 35.608104 51.791027 L 35.525079 28.419508 L 35.981716 28.419508 C 36.645916 28.419508 42.997323 28.834632 43.827573 28.95917 L 44.616309 29.042195 L 44.616309 80.849755 L 45.280509 82.302691 C 45.654121 83.091428 46.276808 84.253777 46.733445 84.917977 C 47.64672 86.287888 49.556293 88.155949 50.552592 88.695612 C 52.503678 89.650398 56.198288 89.816448 75.543098 89.774936 C 92.106573 89.691911 90.944224 89.774936 93.144385 88.695612 C 96.174795 87.15965 97.918319 85.416127 99.661842 82.095129 L 100.11848 81.181855 L 99.95243 66.943078 C 99.869405 58.765122 99.744867 52.247664 99.62033 51.708002 C 99.45428 50.379603 99.080668 49.715404 98.084369 48.677592 C 95.635133 46.228356 91.899011 46.228356 89.283725 48.63608 C 88.287426 49.590866 87.955326 50.172041 87.706252 51.417415 C 87.540202 52.413714 87.291127 62.542757 87.291127 69.018702 C 87.291127 71.467937 87.249614 73.834148 87.166589 74.332298 L 87.083565 75.204059 L 77.701747 75.204059 L 77.618722 63.871156 C 77.535697 52.123127 77.535697 51.541952 76.91301 50.130528 C 76.539398 49.258767 75.086461 47.888855 74.090162 47.390706 C 73.135375 46.934068 71.225802 46.809531 70.063453 47.141631 C 68.361441 47.63978 66.576405 49.051204 65.995231 50.338091 C 65.497081 51.541952 65.414056 52.745814 65.331031 64.12023 L 65.248006 75.204059 L 55.658626 75.204059 L 55.741651 74.290785 C 55.783163 73.792635 55.866188 67.98089 55.907701 61.380407 L 55.990726 49.341792 L 57.028537 47.141631 C 58.647524 43.903658 60.59861 41.454423 62.96482 39.752411 C 64.002632 39.046699 65.621618 38.174938 66.534893 37.88435 C 67.32363 37.635276 74.214699 37.510738 75.418561 37.7183 C 76.041248 37.842838 77.203597 38.3825 79.486783 39.503337 C 81.271819 40.375098 82.766268 41.122323 82.849293 41.122323 C 82.890805 41.122323 83.555005 40.707198 84.343742 40.209049 C 87.083565 38.424012 89.034651 37.7183 92.189598 37.427713 C 95.303033 37.137126 98.125881 37.593763 100.367554 38.7146 C 102.235615 39.627874 104.684851 41.74501 106.469887 43.945171 C 109.20971 47.266168 109.458785 49.175742 109.458785 68.063915 C 109.458785 76.781533 109.417272 80.185556 109.292735 81.26488 C 108.088873 90.605185 101.529903 97.537767 92.646235 98.783141 C 89.823387 99.156754 69.52379 99.364316 58.439961 99.115241 Z M 58.439961 99.115241 " transform="matrix(0.0940982,0,0,0.0940982,1.965747,1.93515)"/>
</g>
</svg>
