
<svg xmlns="http://www.w3.org/2000/svg" xmlns:xlink="http://www.w3.org/1999/xlink" width="16px" height="16px" viewBox="0 0 16 16" version="1.1">
<g id="surface1">
<path style=" stroke:none;fill-rule:nonzero;fill:rgb(100%,100%,100%);fill-opacity:1;" d="M 5.875 2.117188 C 5.636719 2.117188 5.445312 2.246094 5.445312 2.40625 L 5.445312 3.097656 L 3.867188 3.097656 C 3.527344 3.097656 3.253906 3.28125 3.253906 3.507812 L 3.253906 13.472656 C 3.253906 13.699219 3.527344 13.882812 3.867188 13.882812 L 12.132812 13.882812 C 12.472656 13.882812 12.746094 13.699219 12.746094 13.472656 L 12.746094 3.507812 C 12.746094 3.28125 12.472656 3.097656 12.132812 3.097656 L 10.554688 3.097656 L 10.554688 2.40625 C 10.554688 2.246094 10.363281 2.117188 10.125 2.117188 Z M 5.875 2.117188 "/>
<path style=" stroke:none;fill-rule:evenodd;fill:rgb(100%,100%,100%);fill-opacity:1;" d="M 8 4.539062 L 5.527344 8.691406 L 8 8.691406 L 8 11.460938 L 10.472656 7.308594 L 8 7.308594 Z M 8 4.539062 "/>
<path style="fill-rule:nonzero;fill:rgb(100%,100%,100%);fill-opacity:1;stroke-width:28.448776;stroke-linecap:butt;stroke-linejoin:miter;stroke:rgb(16.862745%,61.960784%,34.901961%);stroke-opacity:1;stroke-miterlimit:4;" d="M 79.875 23 L 432.125 23 C 463.5 23 489 48.5 489 79.875 L 489 432.125 C 489 463.5 463.5 489 432.125 489 L 79.875 489 C 48.5 489 23 463.5 23 432.125 L 23 79.875 C 23 48.5 48.5 23 79.875 23 Z M 79.875 23 " transform="matrix(0.03125,0,0,0.03125,0,0)"/>
<path style=" stroke:none;fill-rule:nonzero;fill:rgb(16.862745%,61.960784%,34.901961%);fill-opacity:1;" d="M 6.308594 2.445312 C 6.121094 2.445312 5.96875 2.550781 5.96875 2.675781 L 5.96875 3.386719 C 5.96875 3.390625 5.96875 3.390625 5.96875 3.394531 L 4.277344 3.394531 C 3.972656 3.394531 3.726562 3.566406 3.726562 3.785156 L 3.726562 13.164062 C 3.726562 13.378906 3.972656 13.554688 4.277344 13.554688 L 11.722656 13.554688 C 12.027344 13.554688 12.273438 13.378906 12.273438 13.164062 L 12.273438 3.785156 C 12.273438 3.566406 12.027344 3.394531 11.722656 3.394531 L 10.03125 3.394531 C 10.03125 3.390625 10.03125 3.390625 10.03125 3.386719 L 10.03125 2.675781 C 10.03125 2.550781 9.878906 2.445312 9.691406 2.445312 Z M 6.308594 2.445312 "/>
<path style=" stroke:none;fill-rule:nonzero;fill:rgb(0%,100%,0%);fill-opacity:1;" d="M 8.628906 11.925781 C 8.519531 11.789062 8.390625 11.347656 7.585938 8.328125 C 6.714844 5.074219 6.777344 5.277344 6.703125 5.417969 C 6.671875 5.476562 6.476562 6.148438 6.273438 6.910156 C 6.058594 7.691406 5.851562 8.328125 5.789062 8.378906 C 5.707031 8.445312 5.261719 8.46875 4.136719 8.46875 C 2.78125 8.46875 2.578125 8.453125 2.472656 8.347656 C 2.359375 8.234375 2.363281 8.222656 2.511719 8.101562 C 2.652344 7.984375 2.824219 7.972656 4.078125 7.972656 L 5.484375 7.972656 L 5.566406 7.671875 C 6.5625 3.941406 6.609375 3.804688 6.871094 4.082031 C 6.921875 4.132812 7.207031 5.089844 7.507812 6.199219 C 8.855469 11.195312 8.71875 10.722656 8.792969 10.652344 C 8.8125 10.628906 8.988281 10.027344 9.179688 9.308594 C 9.371094 8.59375 9.566406 7.9375 9.613281 7.847656 C 9.699219 7.6875 9.699219 7.6875 11.597656 7.6875 C 13.402344 7.6875 13.5 7.695312 13.570312 7.824219 C 13.625 7.929688 13.617188 7.988281 13.535156 8.074219 C 13.4375 8.167969 13.167969 8.183594 11.691406 8.183594 C 10.738281 8.183594 9.957031 8.199219 9.957031 8.21875 C 9.957031 8.300781 9.027344 11.714844 8.964844 11.855469 C 8.890625 12.03125 8.738281 12.0625 8.628906 11.925781 Z M 8.628906 11.925781 "/>
</g>
</svg>
