
<svg xmlns="http://www.w3.org/2000/svg" xmlns:xlink="http://www.w3.org/1999/xlink" width="16px" height="16px" viewBox="0 0 16 16" version="1.1">
<g id="surface1">
<path style="fill-rule:nonzero;fill:rgb(0%,50.196078%,50.196078%);fill-opacity:1;stroke-width:27.27438;stroke-linecap:butt;stroke-linejoin:miter;stroke:rgb(90.196078%,90.196078%,90.196078%);stroke-opacity:1;stroke-miterlimit:4;" d="M 85.375 35 L 426.625 35 C 457.125 35 481.75 59.125 481.75 89 L 481.75 423 C 481.75 452.875 457.125 477 426.625 477 L 85.375 477 C 54.875 477 30.25 452.875 30.25 423 L 30.25 89 C 30.25 59.125 54.875 35 85.375 35 Z M 85.375 35 " transform="matrix(0.03125,0,0,0.03125,0,0)"/>
<path style=" stroke:none;fill-rule:nonzero;fill:rgb(90.196078%,90.196078%,90.196078%);fill-opacity:1;" d="M 3.019531 14.382812 C 2.992188 14.179688 2.8125 13.734375 2.730469 13.660156 C 2.667969 13.609375 2.625 13.597656 2.449219 13.597656 C 2.335938 13.597656 2.144531 13.589844 2.023438 13.578125 L 1.808594 13.5625 L 1.78125 13.457031 C 1.75 13.347656 1.703125 12.976562 1.683594 12.703125 L 1.671875 12.527344 L 2.570312 12.308594 L 2.601562 12.039062 C 2.621094 11.886719 2.644531 11.613281 2.65625 11.429688 C 2.671875 11.140625 2.667969 11.089844 2.632812 11.078125 C 2.441406 11.007812 1.886719 10.722656 1.875 10.683594 C 1.835938 10.589844 2.121094 9.773438 2.199219 9.742188 C 2.222656 9.734375 2.425781 9.761719 2.648438 9.800781 C 2.875 9.84375 3.070312 9.871094 3.085938 9.863281 C 3.125 9.835938 3.316406 9.550781 3.4375 9.328125 C 3.53125 9.164062 3.539062 9.128906 3.507812 9.089844 C 3.484375 9.0625 3.367188 8.917969 3.246094 8.769531 C 2.949219 8.417969 2.945312 8.398438 3.039062 8.273438 C 3.140625 8.140625 3.507812 7.746094 3.589844 7.679688 C 3.664062 7.621094 3.660156 7.617188 4.242188 8.03125 L 4.417969 8.15625 L 4.554688 8.058594 C 5.019531 7.730469 5.101562 7.660156 5.101562 7.597656 C 5.101562 7.558594 5.070312 7.421875 5.03125 7.289062 C 4.890625 6.828125 4.875 6.734375 4.929688 6.683594 C 5.007812 6.613281 5.6875 6.296875 5.761719 6.296875 C 5.8125 6.296875 5.851562 6.335938 5.925781 6.457031 C 6.167969 6.851562 6.296875 7.039062 6.332031 7.054688 C 6.417969 7.085938 7.308594 6.847656 7.34375 6.785156 C 7.355469 6.757812 7.382812 6.617188 7.402344 6.46875 C 7.417969 6.320312 7.445312 6.132812 7.460938 6.050781 L 7.492188 5.898438 L 8.523438 5.914062 L 8.554688 6.199219 C 8.605469 6.648438 8.625 6.746094 8.675781 6.808594 C 8.710938 6.851562 8.828125 6.886719 9.132812 6.953125 C 9.355469 7 9.574219 7.039062 9.617188 7.039062 C 9.699219 7.039062 9.78125 6.929688 10.074219 6.433594 C 10.125 6.34375 10.1875 6.269531 10.207031 6.269531 C 10.261719 6.269531 10.835938 6.53125 10.972656 6.621094 C 11.125 6.71875 11.125 6.746094 10.976562 7.21875 L 10.859375 7.589844 L 10.984375 7.699219 C 11.050781 7.757812 11.207031 7.875 11.332031 7.960938 C 11.601562 8.136719 11.550781 8.148438 12.023438 7.828125 C 12.179688 7.722656 12.332031 7.632812 12.355469 7.632812 C 12.433594 7.632812 13.023438 8.296875 13.023438 8.382812 C 13.023438 8.414062 12.742188 8.769531 12.492188 9.058594 C 12.457031 9.097656 12.460938 9.125 12.53125 9.257812 C 12.601562 9.398438 12.902344 9.878906 12.917969 9.878906 C 12.921875 9.875 13.109375 9.839844 13.335938 9.792969 C 13.5625 9.746094 13.765625 9.707031 13.785156 9.707031 C 13.804688 9.707031 13.84375 9.753906 13.875 9.8125 C 13.945312 9.953125 14.132812 10.550781 14.132812 10.632812 C 14.132812 10.691406 14.078125 10.726562 13.75 10.886719 C 13.535156 10.992188 13.351562 11.097656 13.335938 11.125 C 13.308594 11.179688 13.40625 12.144531 13.449219 12.25 C 13.46875 12.296875 13.53125 12.320312 13.769531 12.375 C 14.332031 12.496094 14.316406 12.488281 14.328125 12.617188 C 14.335938 12.738281 14.292969 13.171875 14.242188 13.417969 L 14.214844 13.5625 L 13.824219 13.582031 C 13.257812 13.609375 13.257812 13.609375 13.195312 13.757812 C 13.09375 13.996094 12.964844 14.40625 12.976562 14.457031 C 12.992188 14.503906 12.953125 14.507812 12.417969 14.507812 L 11.839844 14.507812 L 11.992188 14.207031 C 12.167969 13.851562 12.289062 13.496094 12.375 13.085938 C 12.460938 12.679688 12.46875 11.875 12.390625 11.453125 C 12.179688 10.332031 11.558594 9.328125 10.652344 8.648438 C 10.375 8.441406 9.734375 8.105469 9.390625 7.992188 C 8.910156 7.832031 8.625 7.792969 8 7.792969 C 7.339844 7.792969 7.082031 7.832031 6.546875 8.019531 C 5.136719 8.507812 4.035156 9.71875 3.671875 11.183594 C 3.429688 12.160156 3.601562 13.515625 4.066406 14.316406 C 4.121094 14.40625 4.164062 14.488281 4.164062 14.492188 C 4.164062 14.5 3.910156 14.507812 3.601562 14.507812 L 3.035156 14.507812 Z M 3.019531 14.382812 "/>
</g>
</svg>
