
<svg xmlns="http://www.w3.org/2000/svg" xmlns:xlink="http://www.w3.org/1999/xlink" width="16px" height="16px" viewBox="0 0 16 16" version="1.1">
<g id="surface1">
<path style=" stroke:none;fill-rule:evenodd;fill:rgb(80%,61.176471%,41.960784%);fill-opacity:1;" d="M 2.390625 0.765625 L 13.609375 0.765625 C 14.507812 0.765625 15.234375 1.492188 15.234375 2.390625 L 15.234375 13.609375 C 15.234375 14.507812 14.507812 15.234375 13.609375 15.234375 L 2.390625 15.234375 C 1.492188 15.234375 0.765625 14.507812 0.765625 13.609375 L 0.765625 2.390625 C 0.765625 1.492188 1.492188 0.765625 2.390625 0.765625 Z M 2.390625 0.765625 "/>
<path style=" stroke:none;fill-rule:nonzero;fill:rgb(0%,0%,0%);fill-opacity:0.25098;" d="M 4.363281 3.316406 C 4.363281 3.714844 4.039062 4.035156 3.644531 4.035156 C 3.246094 4.035156 2.921875 3.714844 2.921875 3.316406 C 2.921875 2.917969 3.246094 2.597656 3.644531 2.597656 C 4.039062 2.597656 4.363281 2.917969 4.363281 3.316406 M 4.363281 3.316406 "/>
<path style=" stroke:none;fill-rule:nonzero;fill:rgb(0%,0%,0%);fill-opacity:0.25098;" d="M 13.074219 3.367188 C 13.074219 3.765625 12.753906 4.085938 12.355469 4.085938 C 11.960938 4.085938 11.636719 3.765625 11.636719 3.367188 C 11.636719 2.96875 11.960938 2.648438 12.355469 2.648438 C 12.753906 2.648438 13.074219 2.96875 13.074219 3.367188 M 13.074219 3.367188 "/>
<path style="fill-rule:nonzero;fill:rgb(0%,47.058824%,67.058824%);fill-opacity:1;stroke-width:7.9095;stroke-linecap:butt;stroke-linejoin:miter;stroke:rgb(100%,97.254902%,92.156863%);stroke-opacity:1;stroke-miterlimit:10;" d="M 1567.565629 96.261226 C 1567.565629 199.402163 1483.841552 283.12624 1380.700616 283.12624 C 1277.381542 283.12624 1193.657466 199.402163 1193.657466 96.261226 C 1193.657466 -7.057847 1277.381542 -90.781924 1380.700616 -90.781924 C 1483.841552 -90.781924 1567.565629 -7.057847 1567.565629 96.261226 Z M 1567.565629 96.261226 " transform="matrix(0.0219284,0,0,0.0219284,-19.229721,8.47508)"/>
<path style=" stroke:none;fill-rule:nonzero;fill:rgb(100%,97.254902%,92.156863%);fill-opacity:1;" d="M 11.445312 7.648438 L 10.464844 7.746094 L 10.464844 11.765625 L 11.433594 11.625 L 11.433594 9.90625 L 12.726562 11.808594 L 13.738281 11.484375 L 12.414062 9.660156 L 13.75 7.929688 L 12.714844 7.691406 L 11.433594 9.421875 Z M 9.234375 8.632812 C 9.226562 8.632812 9.210938 8.636719 9.203125 8.644531 L 8.828125 9.03125 C 8.8125 9.050781 8.804688 9.078125 8.816406 9.097656 L 9.257812 9.832031 C 9.179688 9.964844 9.121094 10.113281 9.074219 10.265625 L 8.257812 10.4375 C 8.234375 10.445312 8.210938 10.457031 8.210938 10.480469 L 8.210938 11.019531 C 8.210938 11.042969 8.234375 11.070312 8.257812 11.074219 L 9.054688 11.269531 C 9.09375 11.445312 9.160156 11.613281 9.246094 11.765625 L 8.785156 12.46875 C 8.769531 12.488281 8.777344 12.515625 8.792969 12.535156 L 9.171875 12.914062 C 9.1875 12.925781 9.214844 12.9375 9.234375 12.921875 L 9.957031 12.480469 C 10.101562 12.5625 10.25 12.632812 10.410156 12.675781 L 10.582031 13.484375 C 10.585938 13.507812 10.601562 13.527344 10.625 13.527344 L 11.164062 13.527344 C 11.1875 13.527344 11.210938 13.507812 11.21875 13.484375 L 11.410156 12.675781 C 11.578125 12.628906 11.742188 12.554688 11.886719 12.46875 L 12.597656 12.945312 C 12.617188 12.957031 12.644531 12.953125 12.660156 12.933594 L 13.039062 12.554688 C 13.054688 12.539062 13.0625 12.511719 13.050781 12.492188 L 12.789062 12.058594 L 12.703125 12.089844 C 12.691406 12.097656 12.679688 12.089844 12.671875 12.078125 C 12.671875 12.078125 12.507812 11.832031 12.296875 11.515625 C 12.039062 12.019531 11.519531 12.359375 10.917969 12.359375 C 10.0625 12.359375 9.367188 11.671875 9.367188 10.816406 C 9.367188 10.183594 9.742188 9.640625 10.28125 9.398438 L 10.28125 9 C 10.183594 9.035156 10.089844 9.070312 10 9.117188 C 10 9.117188 9.992188 9.117188 9.988281 9.117188 L 9.269531 8.644531 C 9.257812 8.636719 9.246094 8.628906 9.234375 8.632812 Z M 9.234375 8.632812 "/>
<path style=" stroke:none;fill-rule:nonzero;fill:rgb(40%,40%,40%);fill-opacity:1;" d="M 3.53125 3.78125 C 4.96875 11.457031 11.207031 11.457031 12.644531 3.78125 C 12.746094 3.136719 12.300781 3.121094 12.164062 3.78125 C 11.207031 10.773438 4.96875 10.734375 4.011719 3.78125 C 3.921875 3.148438 3.445312 3.175781 3.53125 3.78125 M 3.53125 3.78125 "/>
</g>
</svg>
