
<svg xmlns="http://www.w3.org/2000/svg" xmlns:xlink="http://www.w3.org/1999/xlink" width="16px" height="16px" viewBox="0 0 16 16" version="1.1">
<g id="surface1">
<path style="fill-rule:nonzero;fill:rgb(12.941176%,12.941176%,12.941176%);fill-opacity:1;stroke-width:28.448774;stroke-linecap:butt;stroke-linejoin:miter;stroke:rgb(90.196078%,90.196078%,90.196078%);stroke-opacity:1;stroke-miterlimit:4;" d="M 82.044489 27.338977 L 434.294489 27.338977 C 465.669489 27.338977 491.169489 52.838977 491.169489 84.213977 L 491.169489 436.463977 C 491.169489 467.838977 465.669489 493.338977 434.294489 493.338977 L 82.044489 493.338977 C 50.669489 493.338977 25.169489 467.838977 25.169489 436.463977 L 25.169489 84.213977 C 25.169489 52.838977 50.669489 27.338977 82.044489 27.338977 Z M 82.044489 27.338977 " transform="matrix(0.03125,0,0,0.03125,-0.0677965,-0.135593)"/>
<path style=" stroke:none;fill-rule:nonzero;fill:rgb(0%,100%,0%);fill-opacity:1;" d="M 8.460938 11.875 C 8.355469 11.738281 8.226562 11.292969 7.417969 8.273438 C 6.546875 5.023438 6.609375 5.226562 6.535156 5.367188 C 6.503906 5.425781 6.3125 6.097656 6.105469 6.855469 C 5.894531 7.640625 5.683594 8.277344 5.621094 8.328125 C 5.539062 8.390625 5.09375 8.417969 3.96875 8.417969 C 2.613281 8.417969 2.414062 8.402344 2.308594 8.296875 C 2.195312 8.183594 2.195312 8.167969 2.34375 8.046875 C 2.484375 7.933594 2.660156 7.921875 3.910156 7.921875 L 5.320312 7.921875 L 5.398438 7.617188 C 6.394531 3.886719 6.445312 3.753906 6.703125 4.027344 C 6.753906 4.082031 7.042969 5.035156 7.339844 6.148438 C 8.6875 11.144531 8.550781 10.671875 8.625 10.597656 C 8.648438 10.578125 8.820312 9.972656 9.011719 9.257812 C 9.207031 8.542969 9.398438 7.882812 9.445312 7.796875 C 9.53125 7.636719 9.535156 7.636719 11.429688 7.636719 C 13.238281 7.636719 13.335938 7.644531 13.40625 7.773438 C 13.460938 7.875 13.449219 7.9375 13.367188 8.019531 C 13.273438 8.117188 13.003906 8.132812 11.523438 8.132812 C 10.570312 8.132812 9.792969 8.148438 9.792969 8.164062 C 9.792969 8.25 8.863281 11.664062 8.800781 11.800781 C 8.722656 11.976562 8.570312 12.011719 8.460938 11.875 Z M 8.460938 11.875 "/>
</g>
</svg>
