
<svg xmlns="http://www.w3.org/2000/svg" xmlns:xlink="http://www.w3.org/1999/xlink" width="16px" height="16px" viewBox="0 0 16 16" version="1.1">
<g id="surface1">
<path style="fill-rule:nonzero;fill:rgb(29.019608%,68.235294%,90.196078%);fill-opacity:1;stroke-width:27.064299;stroke-linecap:butt;stroke-linejoin:miter;stroke:rgb(29.019608%,68.235294%,90.196078%);stroke-opacity:1;stroke-miterlimit:4;" d="M 88.5 34.375 L 423.5 34.375 C 453.375 34.375 477.625 58.625 477.625 88.5 L 477.625 423.5 C 477.625 453.375 453.375 477.625 423.5 477.625 L 88.5 477.625 C 58.625 477.625 34.375 453.375 34.375 423.5 L 34.375 88.5 C 34.375 58.625 58.625 34.375 88.5 34.375 Z M 88.5 34.375 " transform="matrix(0.03125,0,0,0.03125,0,0)"/>
<path style=" stroke:none;fill-rule:nonzero;fill:rgb(100%,100%,100%);fill-opacity:1;" d="M 14.085938 9.132812 C 14.011719 9.203125 13.933594 9.269531 13.847656 9.328125 C 13.804688 9.355469 13.761719 9.382812 13.714844 9.40625 C 13.851562 9.332031 13.976562 9.242188 14.085938 9.132812 Z M 14.085938 9.132812 "/>
<path style=" stroke:none;fill-rule:nonzero;fill:rgb(100%,100%,100%);fill-opacity:1;" d="M 14.359375 8.761719 C 14.335938 8.808594 14.308594 8.851562 14.28125 8.894531 C 14.222656 8.980469 14.15625 9.058594 14.085938 9.132812 C 14.195312 9.023438 14.289062 8.898438 14.359375 8.761719 Z M 14.359375 8.761719 "/>
<path style=" stroke:none;fill-rule:nonzero;fill:rgb(100%,100%,100%);fill-opacity:1;" d="M 14.480469 8.476562 C 14.464844 8.527344 14.449219 8.574219 14.429688 8.621094 C 14.410156 8.671875 14.386719 8.71875 14.359375 8.761719 C 14.410156 8.671875 14.449219 8.574219 14.480469 8.476562 Z M 14.480469 8.476562 "/>
<path style=" stroke:none;fill-rule:nonzero;fill:rgb(100%,100%,100%);fill-opacity:1;" d="M 14.554688 8 C 14.554688 8.054688 14.550781 8.109375 14.546875 8.164062 C 14.539062 8.21875 14.53125 8.269531 14.523438 8.324219 C 14.511719 8.375 14.496094 8.425781 14.480469 8.476562 C 14.527344 8.324219 14.554688 8.164062 14.554688 8 Z M 14.554688 8 "/>
<path style=" stroke:none;fill-rule:nonzero;fill:rgb(52.156863%,81.176471%,89.019608%);fill-opacity:1;" d="M 8 1.445312 L 8 8 L 14.554688 8 L 14.554688 3.046875 C 14.554688 2.164062 13.835938 1.445312 12.953125 1.445312 Z M 8 1.445312 "/>
<path style=" stroke:none;fill-rule:nonzero;fill:rgb(14.901961%,65.882353%,78.039216%);fill-opacity:1;" d="M 8 14.554688 L 8 8 L 1.445312 8 L 1.445312 12.953125 C 1.445312 13.835938 2.164062 14.554688 3.046875 14.554688 Z M 8 14.554688 "/>
<path style=" stroke:none;fill-rule:nonzero;fill:rgb(29.019608%,74.117647%,83.137255%);fill-opacity:1;" d="M 1.445312 8 L 8 8 L 8 1.445312 L 3.046875 1.445312 C 2.164062 1.445312 1.445312 2.164062 1.445312 3.046875 Z M 1.445312 8 "/>
<path style=" stroke:none;fill-rule:nonzero;fill:rgb(95.294118%,72.156863%,36.862745%);fill-opacity:1;" d="M 14.554688 8 L 8 8 L 8 14.554688 L 12.953125 14.554688 C 13.835938 14.554688 14.554688 13.835938 14.554688 12.953125 Z M 14.554688 8 "/>
<path style=" stroke:none;fill-rule:nonzero;fill:rgb(97.254902%,97.254902%,97.254902%);fill-opacity:1;" d="M 11.976562 4 L 11.976562 5.238281 L 10.085938 5.238281 L 9.921875 7.8125 C 9.890625 8.257812 9.875 8.648438 9.875 8.972656 C 9.875 9.757812 9.960938 10.238281 10.136719 10.414062 C 10.316406 10.585938 10.527344 10.667969 10.777344 10.667969 C 11.296875 10.667969 11.609375 10.328125 11.707031 9.644531 L 12 9.644531 C 11.820312 11.214844 11.21875 12 10.191406 12 C 9.714844 12 9.328125 11.847656 9.035156 11.542969 C 8.75 11.238281 8.605469 10.785156 8.605469 10.1875 C 8.605469 9.792969 8.664062 8.953125 8.777344 7.679688 L 8.996094 5.238281 L 7.269531 5.238281 C 7.15625 7.292969 7.019531 8.792969 6.855469 9.746094 C 6.699219 10.695312 6.523438 11.308594 6.328125 11.585938 C 6.136719 11.863281 5.878906 12 5.546875 12 C 5.296875 12 5.085938 11.925781 4.914062 11.773438 C 4.746094 11.621094 4.660156 11.417969 4.660156 11.171875 C 4.660156 10.933594 4.804688 10.609375 5.097656 10.195312 C 5.527344 9.597656 5.847656 8.976562 6.058594 8.332031 C 6.269531 7.683594 6.429688 6.652344 6.539062 5.238281 L 5.984375 5.238281 C 5.539062 5.238281 5.199219 5.34375 4.960938 5.550781 C 4.726562 5.753906 4.503906 6.046875 4.292969 6.433594 L 4 6.433594 C 4.160156 5.828125 4.363281 5.332031 4.613281 4.941406 C 4.863281 4.550781 5.117188 4.296875 5.378906 4.175781 C 5.644531 4.058594 6.113281 4 6.785156 4 L 11.976562 4 "/>
</g>
</svg>
