<!-- color: #5dac36 -->
<svg xmlns="http://www.w3.org/2000/svg" xmlns:xlink="http://www.w3.org/1999/xlink" width="16px" height="16px" viewBox="0 0 16 16" version="1.1">
<g id="surface1">
<path style=" stroke:none;fill-rule:nonzero;fill:rgb(0%,0%,0%);fill-opacity:0.0196078;" d="M 0.332031 7.167969 L 0.332031 7.25 C 0.332031 7.988281 0.929688 8.582031 1.667969 8.582031 L 14.332031 8.582031 C 15.070312 8.582031 15.667969 7.988281 15.667969 7.25 L 15.667969 7.167969 C 15.667969 7.90625 15.070312 8.5 14.332031 8.5 L 1.667969 8.5 C 0.929688 8.5 0.332031 7.90625 0.332031 7.167969 Z M 0.332031 7.332031 L 0.332031 7.5 C 0.332031 8.238281 0.929688 8.832031 1.667969 8.832031 L 14.332031 8.832031 C 15.070312 8.832031 15.667969 8.238281 15.667969 7.5 L 15.667969 7.332031 C 15.667969 8.070312 15.070312 8.667969 14.332031 8.667969 L 1.667969 8.667969 C 0.929688 8.667969 0.332031 8.070312 0.332031 7.332031 Z M 0.332031 7.332031 "/>
<path style=" stroke:none;fill-rule:nonzero;fill:rgb(0%,0%,0%);fill-opacity:0.0509804;" d="M 0.332031 7.292969 L 0.332031 7.375 C 0.332031 8.113281 0.929688 8.707031 1.667969 8.707031 L 14.332031 8.707031 C 15.070312 8.707031 15.667969 8.113281 15.667969 7.375 L 15.667969 7.292969 C 15.667969 8.03125 15.070312 8.625 14.332031 8.625 L 1.667969 8.625 C 0.929688 8.625 0.332031 8.03125 0.332031 7.292969 Z M 0.332031 7.292969 "/>
<path style=" stroke:none;fill-rule:nonzero;fill:rgb(0%,0%,0%);fill-opacity:0.101961;" d="M 0.332031 7.292969 L 0.332031 7.375 C 0.332031 8.113281 0.929688 8.707031 1.667969 8.707031 L 14.332031 8.707031 C 15.070312 8.707031 15.667969 8.113281 15.667969 7.375 L 15.667969 7.292969 C 15.667969 8.03125 15.070312 8.625 14.332031 8.625 L 1.667969 8.625 C 0.929688 8.625 0.332031 8.03125 0.332031 7.292969 Z M 0.332031 7.292969 "/>
<path style="fill-rule:nonzero;fill:rgb(36.078431%,66.666667%,20.784314%);fill-opacity:1;stroke-width:25.912724;stroke-linecap:butt;stroke-linejoin:miter;stroke:rgb(0%,50.196078%,0%);stroke-opacity:1;stroke-miterlimit:4;" d="M 29 443.5 L 29 68.5 C 29 46.625 46.625 29 68.5 29 L 443.5 29 C 465.375 29 483 46.625 483 68.5 L 483 443.5 C 483 465.375 465.375 483 443.5 483 L 68.5 483 C 46.625 483 29 465.375 29 443.5 Z M 29 443.5 " transform="matrix(0.03125,0,0,0.03125,0,0)"/>
<path style="fill-rule:nonzero;fill:rgb(100%,100%,100%);fill-opacity:1;stroke-width:4.266667;stroke-linecap:butt;stroke-linejoin:miter;stroke:rgb(100%,100%,100%);stroke-opacity:1;stroke-miterlimit:4;" d="M -152.700773 178.717095 C -152.700773 303.873821 -254.267749 405.440797 -379.424475 405.440797 C -504.581201 405.440797 -606.148178 303.873821 -606.148178 178.717095 C -606.148178 53.560369 -504.581201 -48.006608 -379.424475 -48.006608 C -254.267749 -48.006608 -152.700773 53.560369 -152.700773 178.717095 Z M -152.700773 178.717095 " transform="matrix(0.0238451,0,0,0.0238451,17.047416,3.738472)"/>
<path style="fill-rule:nonzero;fill:rgb(36.078431%,66.666667%,20.784314%);fill-opacity:1;stroke-width:4.266667;stroke-linecap:butt;stroke-linejoin:miter;stroke:rgb(100%,100%,100%);stroke-opacity:1;stroke-miterlimit:4;" d="M -379.424475 -48.006608 C -398.427329 -48.006608 -416.93873 -45.71316 -434.631042 -41.290082 L -446.262099 -35.556462 L -456.582614 -32.935379 L -463.29914 -25.891218 L -470.998572 -18.519421 L -478.861822 -19.99378 L -479.844728 -24.744494 C -489.509973 -19.829963 -498.847582 -14.423978 -507.693738 -8.362723 L -507.693738 -0.499474 L -498.683764 -1.810015 L -500.649577 6.872323 L -497.373222 15.554661 C -497.373222 15.554661 -498.192311 18.994833 -500.158123 19.977739 C -502.123936 20.960646 -508.512826 14.899391 -508.512826 14.899391 L -509.168097 6.872323 L -515.720805 5.561781 L -523.420237 10.312495 C -523.420237 10.312495 -526.532774 13.588849 -524.566961 16.865203 C -522.437331 20.305375 -521.12679 23.909364 -523.25642 24.892271 C -525.222232 26.038994 -535.215112 27.677172 -535.215112 27.677172 L -541.76782 35.048968 L -551.7607 40.291135 L -554.709419 46.35239 L -561.098309 54.051822 L -566.504294 60.440712 C -566.504294 60.440712 -573.220819 65.191426 -572.565549 67.157238 C -571.582642 69.123051 -571.418825 76.822483 -571.418825 76.822483 L -572.074096 81.409378 L -577.152444 77.150118 L -576.333356 70.59741 L -577.807715 68.795415 C -582.066976 76.658665 -585.9986 84.685733 -589.438772 93.204253 L -586.326236 96.808243 L -591.73222 102.869498 L -591.73222 107.456393 L -584.524241 114.172919 L -583.377517 118.43218 L -580.756434 128.097424 L -572.401731 126.131612 L -571.910278 131.865231 L -571.255007 126.623065 L -562.572669 121.872351 L -562.572669 121.380898 L -553.23506 121.380898 L -548.484346 123.838164 L -534.068388 126.786883 L -530.300581 133.667226 L -524.730779 139.237028 C -524.730779 139.237028 -518.833342 138.909393 -517.850435 138.909393 C -516.867529 138.909393 -511.78918 147.591731 -511.78918 147.591731 L -508.840462 154.635892 L -494.424504 162.826777 L -485.41453 162.171507 L -480.336181 168.068944 L -474.274926 172.000569 L -475.42165 179.372366 L -483.448718 190.184334 C -483.448718 190.184334 -484.431624 205.091745 -484.431624 206.402287 C -484.431624 207.876646 -487.871796 217.705708 -487.871796 217.705708 L -498.192311 222.784057 L -503.27066 234.578932 L -510.151003 251.615973 L -518.178071 252.762697 L -520.307701 258.004864 L -515.229352 260.462129 L -516.539894 266.687202 L -524.894597 268.816832 L -530.300581 275.697176 L -528.170951 280.775525 C -528.170951 280.775525 -526.532774 284.870967 -527.188045 285.853873 C -527.843315 286.83678 -532.594029 289.785498 -532.594029 289.785498 L -525.549868 293.553305 L -528.170951 301.252738 L -525.549868 308.624534 L -520.143883 315.177242 L -533.2493 309.443623 L -542.586909 294.863847 C -542.586909 294.863847 -547.337622 286.181509 -546.682351 285.36242 C -546.027081 284.379514 -548.975799 272.584639 -548.975799 272.584639 L -554.054148 252.435062 L -555.037054 216.067531 L -555.856143 208.204282 L -569.780648 194.115959 L -575.186632 179.208548 L -580.264981 166.758402 L -580.428798 154.79971 L -574.367543 146.772642 L -572.401731 136.124492 L -572.074096 133.503408 L -576.00572 130.55469 L -581.411705 134.486315 L -590.585496 125.640159 L -592.223673 117.776909 L -597.138204 115.155826 C -603.035642 135.305403 -606.148178 156.601705 -606.148178 178.717095 C -606.148178 253.25415 -570.272101 319.272685 -514.737899 360.718564 L -508.349009 357.44221 L -513.754993 350.889502 L -504.417384 346.466424 L -499.502853 339.094627 C -499.502853 339.094627 -499.66667 338.93081 -499.66667 338.93081 L -499.175217 338.766992 L -499.502853 339.094627 C -498.683764 339.749898 -494.424504 343.681523 -494.424504 345.483518 C -494.424504 347.44933 -487.380342 361.537653 -487.380342 361.537653 L -487.707978 362.192924 L -479.353275 366.288366 L -455.763526 363.831101 L -421.361808 366.288366 L -418.413089 365.960731 L -406.454397 355.640215 L -361.076893 353.510585 L -334.702242 354.493491 C -334.702242 354.493491 -330.279164 348.596054 -327.00281 348.596054 C -323.726456 348.596054 -310.784857 347.44933 -310.784857 347.44933 L -301.119613 340.896622 L -291.454368 348.92369 L -276.055504 347.940783 C -276.055504 347.940783 -284.737842 358.425116 -282.77203 358.916569 C -280.970035 359.244205 -265.079718 350.889502 -265.079718 350.889502 L -232.479995 344.172976 L -224.125292 343.845341 C -180.058329 302.563279 -152.700773 243.916541 -152.700773 178.717095 L -158.270575 172.328204 L -179.730694 140.383752 L -174.97998 139.564663 L -175.143798 139.892299 L -163.348923 153.489168 L -155.977127 159.550423 L -152.86459 171.18148 C -153.356044 155.946434 -155.321856 141.202841 -158.59821 126.9507 L -161.383111 123.838164 L -164.823283 118.759815 L -165.478554 115.483461 L -169.082543 113.190013 L -170.229267 116.466367 L -173.177986 115.811096 L -174.160892 111.715654 L -173.833257 106.145852 L -174.488527 102.378045 L -177.928699 101.722774 L -177.601064 105.818216 L -181.205053 107.456393 L -182.187959 104.343857 L -182.187959 101.722774 L -187.593944 94.84243 L -189.068303 90.58317 L -189.887392 86.815363 L -191.525569 86.815363 L -195.457194 89.272628 L -198.897365 91.238441 L -201.846084 95.006248 C -201.846084 95.006248 -208.071157 101.722774 -208.56261 101.886592 C -209.054063 102.050409 -211.838964 105.818216 -211.838964 105.818216 L -214.623865 109.258388 L -214.29623 116.630185 L -215.606771 124.82107 L -216.589677 128.261242 L -219.866031 130.227054 L -222.323297 127.278336 L -225.272016 120.234174 L -227.237828 112.862378 L -231.005635 104.343857 L -232.643812 95.333883 L -233.626719 90.255535 L -234.773443 93.531889 L -237.722161 93.531889 L -238.868885 90.58317 L -243.291963 84.685733 L -249.189401 79.279748 L -248.861765 78.952113 L -267.864619 79.279748 L -270.64952 76.33103 L -274.90878 77.313936 L -281.297671 73.709946 L -284.90166 67.976327 L -288.014196 62.242707 L -288.014196 70.925045 L -283.263483 75.348123 L -280.314764 79.607384 L -279.16804 83.047556 L -274.744962 85.013368 L -273.106785 82.228467 L -270.321884 80.59029 L -266.390259 85.341003 L -263.441541 88.617357 L -263.769176 94.023342 L -267.536983 100.412232 L -273.925874 104.016222 L -278.51277 109.749841 L -284.90166 111.388018 L -290.63528 116.630185 L -296.860352 110.241294 L -301.611066 102.541862 L -305.870326 94.514795 L -309.965769 87.142998 L -315.207935 77.150118 L -317.992836 71.580316 L -322.579732 72.235587 L -321.596826 77.313936 L -317.337565 84.84955 L -313.897394 91.238441 L -310.948675 96.31679 L -309.310498 104.999128 L -302.266337 110.241294 L -299.317618 116.302549 L -295.713629 122.363805 L -289.652373 124.001982 L -286.703655 121.053263 L -280.314764 121.053263 L -280.970035 128.42506 L -283.754936 133.339591 L -285.393113 139.07321 L -289.652373 143.332471 L -300.955795 157.420793 L -307.344686 167.413673 L -306.034144 179.372366 L -304.068331 188.054704 L -304.068331 197.392313 L -312.75067 205.747016 L -316.354659 213.774084 L -316.682295 221.801151 L -323.726456 228.845312 L -324.381727 235.070385 L -334.702242 251.12452 L -340.435862 251.12452 L -349.773471 252.107426 L -353.37746 255.711416 L -354.360367 248.339619 L -355.015637 242.114546 L -361.076893 234.087479 L -361.404528 229.00913 L -364.353247 217.378073 L -366.319059 215.412261 L -368.776325 202.962115 L -368.448689 196.409407 L -365.336153 189.365246 L -365.663788 181.17436 L -367.793418 168.396579 L -372.052679 163.318231 L -375.329033 157.420793 L -374.182309 153.652986 L -372.871767 148.902273 L -372.871767 143.332471 L -376.475757 140.711387 L -382.209376 140.383752 L -383.847553 137.107398 L -389.08972 136.288309 L -393.512798 138.41794 L -410.222204 138.41794 L -411.20511 142.349564 L -415.792006 141.366658 L -420.378901 137.435033 L -428.405969 127.769789 L -430.863235 121.053263 L -434.794859 114.172919 L -434.139589 107.620211 L -432.173776 102.378045 L -431.846141 85.013368 L -425.129615 76.003394 L -415.792006 68.631598 L -412.188016 58.311082 L -406.126761 52.905098 L -397.116787 52.74128 L -392.366074 48.48202 L -377.786298 49.137291 L -377.458663 45.697119 L -371.397408 45.369484 L -371.397408 55.362364 L -362.059799 60.932165 L -352.72219 66.33815 L -349.1182 61.259801 L -345.678028 58.311082 L -343.056945 61.751254 L -328.313352 64.372337 L -326.347539 59.457806 L -322.088279 60.113077 L -318.320472 60.440712 L -317.00993 52.086009 L -317.337565 47.826749 L -321.26919 47.171478 L -324.381727 49.464926 L -326.019904 46.516207 L -332.572612 48.973473 L -336.340419 44.550395 L -338.306232 39.635864 L -333.719336 38.652958 L -332.408794 36.523328 L -326.019904 33.246973 L -319.303378 33.246973 L -311.603946 34.721333 L -306.361779 33.410791 L -308.655227 28.823895 L -312.75067 26.858083 L -317.337565 22.76264 L -315.044118 18.831015 L -322.088279 18.831015 L -320.286284 22.435005 L -323.071185 24.728453 L -325.364633 23.090276 L -326.347539 19.813922 L -332.408794 18.831015 L -334.046971 26.038994 L -336.668055 31.117343 L -336.340419 36.523328 L -337.978596 35.704239 L -342.72931 34.066062 L -344.695122 36.523328 L -345.678028 40.127317 L -344.039851 46.188572 L -346.98857 47.171478 L -351.084013 43.239853 L -353.049825 41.765494 L -353.049825 34.557515 L -356.98145 29.806802 L -365.008517 21.779734 L -368.776325 22.10737 L -369.759231 24.073182 L -358.291992 34.721333 L -356.98145 37.506234 L -359.11108 37.506234 L -358.128174 41.437859 L -361.404528 43.239853 L -362.71507 38.48914 L -374.346127 24.892271 L -376.803392 26.858083 L -387.123907 28.49626 L -392.693709 35.376604 L -399.0826 46.843843 L -405.47149 49.137291 L -413.498558 44.87803 L -413.498558 38.48914 L -411.532745 30.789708 L -406.782032 26.038994 L -405.47149 29.151531 L -398.427329 27.840989 L -397.444423 27.840989 L -395.47861 25.056088 C -395.47861 25.056088 -396.133881 22.76264 -396.461517 22.76264 C -396.789152 22.76264 -398.099694 20.469193 -398.099694 20.469193 L -400.065506 17.029021 L -403.014225 15.063208 L -401.376048 12.605943 L -398.754964 12.278307 C -398.754964 12.278307 -396.789152 11.950672 -396.133881 11.623036 C -395.314793 11.459219 -392.693709 10.64013 -392.693709 10.64013 L -389.08972 9.657224 L -386.304819 7.036141 L -384.666642 4.906511 C -384.666642 4.906511 -383.3561 2.940698 -383.3561 1.957792 C -383.3561 1.138703 -385.48573 0.155797 -385.813366 -0.990927 C -385.977184 -2.137651 -384.011371 -1.646198 -384.011371 -1.646198 L -379.424475 0.64725 C -379.424475 0.64725 -376.475757 -0.171838 -376.148121 -0.663291 C -375.820486 -0.990927 -375.165215 -2.956739 -375.165215 -2.956739 C -375.165215 -2.956739 -376.475757 -5.414005 -376.475757 -6.069276 C -376.311939 -6.560729 -374.509944 -9.017994 -374.509944 -9.017994 L -371.397408 -6.560729 L -373.035585 -3.939645 L -373.36322 -1.48238 L -371.069772 -1.48238 C -370.742137 -1.48238 -366.810512 -1.318562 -364.8447 -1.48238 C -362.71507 -1.646198 -362.059799 -2.301468 -361.404528 -2.792921 C -360.585439 -3.448192 -359.11108 -3.448192 -359.11108 -3.448192 L -356.326179 -2.465286 L -355.998544 -2.465286 L -352.066919 -5.577822 L -351.411648 -6.069276 C -351.24783 -6.560729 -351.084013 -7.052182 -351.24783 -7.216 C -351.411648 -7.87127 -351.24783 -10.492354 -351.24783 -10.492354 C -351.24783 -10.492354 -348.954382 -13.60489 -347.807658 -13.932525 C -346.824752 -14.260161 -343.220763 -13.277255 -342.565492 -13.60489 C -341.910221 -13.932525 -339.944409 -16.062156 -339.944409 -16.062156 L -339.12532 -18.355603 L -342.074039 -19.99378 L -345.514211 -19.33851 L -349.1182 -19.010874 L -351.24783 -20.649051 L -351.24783 -24.416858 L -350.428742 -27.037942 L -348.135294 -29.659025 L -348.135294 -31.133384 L -350.756377 -33.099197 L -353.213643 -31.46102 L -354.85182 -29.33139 L -357.145268 -26.382671 C -357.145268 -26.382671 -359.11108 -24.744494 -359.11108 -24.416858 C -359.11108 -24.089223 -360.421622 -23.270135 -360.421622 -23.270135 L -361.076893 -19.99378 L -359.438715 -19.33851 C -359.438715 -19.33851 -357.636721 -17.208879 -357.472903 -16.881244 C -357.472903 -16.717426 -358.128174 -15.243067 -358.128174 -15.243067 L -361.076893 -13.277255 C -361.076893 -13.277255 -361.24071 -9.181812 -361.404528 -8.854177 C -361.568346 -8.690359 -365.499971 -6.233093 -365.499971 -6.233093 L -366.482877 -8.854177 L -368.776325 -12.294348 L -370.905955 -16.225973 C -370.905955 -16.225973 -372.216496 -16.062156 -373.527038 -15.570702 C -374.83758 -15.243067 -375.165215 -13.932525 -375.165215 -13.932525 C -375.165215 -13.932525 -377.622481 -12.621984 -377.786298 -12.621984 C -378.113934 -12.621984 -379.424475 -14.260161 -379.424475 -14.260161 L -380.735017 -17.86415 L -379.915928 -21.631957 L -377.131028 -21.959593 L -370.086866 -29.659025 L -365.499971 -34.245921 L -355.015637 -42.600624 L -345.022757 -44.566436 L -335.685148 -42.928259 L -326.347539 -39.651905 L -319.631013 -36.211733 L -323.071185 -34.901192 L -330.442982 -35.228827 L -331.098253 -32.607744 L -329.460076 -29.822843 L -326.019904 -27.529395 L -314.552665 -33.59065 L -313.897394 -34.245921 L -313.405941 -34.245921 L -313.078305 -34.409738 L -313.405941 -34.245921 L -305.378873 -35.72028 C -305.378873 -35.72028 -305.542691 -35.72028 -305.706508 -35.72028 L -313.405941 -34.409738 L -313.078305 -34.573556 C -312.75067 -34.737374 -310.293404 -35.72028 -307.999956 -36.539369 C -330.442982 -43.911165 -354.524184 -48.006608 -379.424475 -48.006608 Z M -428.897422 -33.426832 L -416.611094 -33.426832 L -414.153829 -30.314296 L -417.921636 -26.710306 L -423.491438 -25.399765 C -423.491438 -25.399765 -425.293433 -25.399765 -430.207964 -29.003754 Z M -399.246418 -14.423978 L -397.772058 -10.0009 L -394.004251 -6.069276 L -392.857527 0.811068 L -390.072626 4.742693 L -395.314793 7.199958 L -401.376048 8.346682 L -402.850407 6.544688 L -400.556959 2.613063 L -397.772058 -0.171838 L -398.427329 -3.120557 L -403.505678 -5.414005 C -403.505678 -5.414005 -402.686589 -8.854177 -401.867501 -12.130531 Z M -407.764938 -1.810015 L -404.980037 1.793974 L -406.618214 4.742693 L -410.549839 3.104516 Z M -290.471462 18.175745 C -290.63528 18.175745 -290.799097 18.175745 -290.962915 18.175745 L -291.126733 18.50338 C -292.601092 18.994833 -297.187988 22.76264 -297.187988 22.76264 L -298.498529 28.332442 C -298.498529 28.332442 -297.351806 30.62589 -295.713629 31.281161 C -294.403087 32.10025 -291.126733 36.35951 -291.126733 36.35951 L -288.833285 43.403671 L -283.099665 47.007661 L -278.840405 45.041848 L -282.77203 38.652958 L -285.720749 33.574609 L -288.669467 25.547541 L -289.652373 22.271187 L -287.03129 19.813922 C -287.03129 19.813922 -288.997103 18.175745 -290.471462 18.175745 Z M -375.329033 31.281161 L -373.527038 36.195692 L -373.854673 39.472046 L -376.475757 41.929312 L -379.260658 38.980593 Z M -388.762085 39.144411 L -387.287725 40.946406 L -388.762085 41.274041 Z M -365.827606 44.386577 L -361.568346 48.318202 L -364.517064 50.61165 L -367.957236 45.041848 Z M -580.592616 88.944993 L -571.910278 88.944993 L -564.538481 94.187159 L -563.88321 97.135878 L -568.142471 99.756961 L -571.910278 94.678613 L -578.299168 93.368071 L -583.86897 90.58317 Z M -173.833257 126.623065 L -160.400205 141.858111 L -157.615304 151.031903 C -157.615304 151.031903 -163.185106 150.376632 -164.168012 150.376632 C -165.150918 150.376632 -172.686533 128.097424 -173.833257 126.623065 Z M -212.166599 127.278336 L -210.856058 128.916513 L -210.200787 133.994862 L -213.968594 138.090304 L -215.606771 131.537596 Z M -287.03129 191.822511 L -284.082572 191.986329 L -283.099665 196.737042 L -283.099665 202.63448 L -284.246389 205.747016 L -288.50565 211.972089 L -287.686561 217.378073 L -290.471462 221.637333 L -294.730722 228.353859 L -298.498529 227.370953 L -300.136707 220.818245 L -300.136707 214.920807 L -295.877446 211.153 L -297.515623 209.514823 L -300.136707 205.747016 L -296.368899 202.962115 L -291.290551 200.504849 C -291.290551 200.504849 -287.358926 197.064678 -287.03129 196.409407 Z M -506.055561 292.734217 L -505.727925 292.898035 L -505.891743 292.898035 L -503.925931 297.48493 L -509.331915 294.863847 L -508.185191 294.536212 L -505.891743 292.898035 Z M -515.229352 294.863847 L -515.065534 294.863847 L -515.229352 295.027665 L -512.935904 299.123107 L -517.5228 300.106014 L -515.229352 295.027665 Z M -496.062681 373.004892 L -496.554134 373.004892 C -493.769233 374.479251 -491.14815 376.117428 -488.363249 377.591788 L -481.646723 377.591788 Z M -496.062681 373.004892 " transform="matrix(0.0238451,0,0,0.0238451,17.047416,3.738472)"/>
</g>
</svg>
