
<svg xmlns="http://www.w3.org/2000/svg" xmlns:xlink="http://www.w3.org/1999/xlink" width="16px" height="16px" viewBox="0 0 16 16" version="1.1">
<g id="surface1">
<path style="fill-rule:nonzero;fill:rgb(81.960784%,85.098039%,90.196078%);fill-opacity:1;stroke-width:27.954165;stroke-linecap:butt;stroke-linejoin:miter;stroke:rgb(0%,25.882353%,32.941176%);stroke-opacity:1;stroke-miterlimit:4;" d="M 83 27 L 429 27 C 459.875 27 485 52.125 485 83 L 485 429 C 485 459.875 459.875 485 429 485 L 83 485 C 52.125 485 27 459.875 27 429 L 27 83 C 27 52.125 52.125 27 83 27 Z M 83 27 " transform="matrix(0.03125,0,0,0.03125,0,0)"/>
<path style="fill-rule:nonzero;fill:rgb(74.901961%,86.27451%,69.019608%);fill-opacity:1;stroke-width:3.441855;stroke-linecap:butt;stroke-linejoin:miter;stroke:rgb(0%,25.882353%,32.941176%);stroke-opacity:1;stroke-miterlimit:4;" d="M 435.625 263.625 C 435.625 364.625 353.75 446.5 252.75 446.5 C 151.75 446.5 69.875 364.625 69.875 263.625 C 69.875 162.625 151.75 80.625 252.75 80.625 C 353.75 80.625 435.625 162.625 435.625 263.625 Z M 435.625 263.625 " transform="matrix(0.03125,0,0,0.03125,0,0)"/>
<path style="fill-rule:nonzero;fill:rgb(0%,25.882353%,32.941176%);fill-opacity:1;stroke-width:3.441855;stroke-linecap:butt;stroke-linejoin:miter;stroke:rgb(100%,100%,100%);stroke-opacity:1;stroke-miterlimit:4;" d="M 252.75 80.625 C 237.375 80.625 222.5 82.625 208.25 86.125 L 198.875 90.75 L 190.5 92.875 L 185.125 98.5 L 178.875 104.375 L 172.5 103.375 L 171.75 99.5 C 164 103.375 156.5 107.875 149.25 112.75 L 149.25 119 L 156.5 118 L 155 125 L 157.625 132 C 157.625 132 156.875 134.75 155.25 135.5 C 153.75 136.375 148.625 131.5 148.625 131.5 L 148.125 125 L 142.75 124 L 136.625 127.625 C 136.625 127.625 134 130.375 135.625 133 C 137.375 135.75 138.375 138.75 136.75 139.5 C 135.125 140.5 127.125 141.75 127.125 141.75 L 121.75 147.625 L 113.75 151.875 L 111.375 156.75 L 106.125 163 L 101.875 168.25 C 101.875 168.25 96.5 172 97 173.625 C 97.75 175.25 97.875 181.375 97.875 181.375 L 97.375 185.125 L 93.25 181.75 L 93.875 176.375 L 92.75 174.875 C 89.25 181.25 86.125 187.75 83.375 194.5 L 85.875 197.5 L 81.375 202.375 L 81.375 206.125 L 87.375 211.5 L 88.25 215 L 90.375 222.75 L 97 221.125 L 97.5 225.75 L 98 221.625 L 105 217.75 L 105 217.375 L 112.625 217.375 L 116.375 219.25 L 128 221.625 L 131 227.25 L 135.5 231.75 C 135.5 231.75 140.25 231.5 141.125 231.5 C 141.875 231.5 146 238.5 146 238.5 L 148.25 244.125 L 160 250.75 L 167.25 250.25 L 171.375 255.125 L 176.25 258.125 L 175.375 264.125 L 168.875 272.875 C 168.875 272.875 168 284.75 168 286 C 168 287 165.25 295.125 165.25 295.125 L 156.875 299.125 L 152.875 308.625 L 147.25 322.375 L 140.75 323.25 L 139.125 327.625 L 143.125 329.5 L 142.125 334.625 L 135.375 336.25 L 131.125 341.875 L 132.75 345.875 C 132.75 345.875 134.125 349.25 133.5 350 C 133 350.75 129.25 353.25 129.25 353.25 L 134.875 356.25 L 132.75 362.5 L 134.875 368.5 L 139.25 373.625 L 128.625 369.125 L 121.125 357.25 C 121.125 357.25 117.375 350.375 117.875 349.5 C 118.375 348.875 115.875 339.25 115.875 339.25 L 111.875 323 L 111 293.75 L 110.5 287.375 L 99.125 276 L 94.875 264 L 90.75 254 L 90.5 244.375 L 95.375 237.875 L 97 229.25 L 97.25 227.125 L 94.125 224.75 L 89.875 228 L 82.375 220.75 L 81.125 214.5 L 77.125 212.25 C 72.375 228.625 69.875 245.75 69.875 263.625 C 69.875 323.75 98.75 377 143.5 410.375 L 148.75 407.875 L 144.375 402.5 L 152 399 L 155.875 393 C 155.875 393 155.75 392.75 155.75 392.75 L 156.125 392.75 L 155.875 393 C 156.5 393.5 160 396.75 160 398.125 C 160 399.75 165.625 411 165.625 411 L 165.375 411.625 L 172.125 414.875 L 191.25 412.875 L 219 414.875 L 221.25 414.625 L 231 406.25 L 267.5 404.625 L 288.75 405.5 C 288.75 405.5 292.375 400.625 295 400.625 C 297.625 400.625 308.125 399.75 308.125 399.75 L 315.875 394.375 L 323.75 400.875 L 336.125 400 C 336.125 400 329.125 408.625 330.75 408.875 C 332.25 409.25 345 402.5 345 402.5 L 371.375 397.125 L 378 396.875 C 413.5 363.5 435.625 316.125 435.625 263.625 L 431.125 258.5 L 413.875 232.625 L 417.625 232.125 L 417.5 232.25 L 427 243.25 L 433 248.125 L 435.5 257.5 C 435.125 245.25 433.5 233.25 430.875 221.75 L 428.625 219.375 L 425.875 215.25 L 425.375 212.625 L 422.375 210.625 L 421.5 213.375 L 419.125 212.875 L 418.375 209.625 L 418.625 205 L 418.125 202.125 L 415.375 201.5 L 415.625 204.75 L 412.625 206.125 L 411.875 203.625 L 411.875 201.5 L 407.5 196 L 406.25 192.5 L 405.625 189.5 L 404.375 189.5 L 401.125 191.375 L 398.375 193 L 396 196 C 396 196 391 201.5 390.625 201.625 C 390.25 201.75 387.875 204.875 387.875 204.875 L 385.75 207.5 L 386 213.5 L 384.875 220.125 L 384.125 222.875 L 381.375 224.5 L 379.5 222.125 L 377.125 216.5 L 375.5 210.5 L 372.375 203.5 L 371.125 196.25 L 370.25 192.25 L 369.5 194.875 L 367.125 194.875 L 366.125 192.5 L 362.625 187.75 L 357.75 183.375 L 358 183.125 L 342.625 183.375 L 340.5 181 L 337.125 181.75 L 331.875 178.875 L 329 174.25 L 326.5 169.625 L 326.5 176.625 L 330.375 180.125 L 332.625 183.625 L 333.625 186.375 L 337.25 188 L 338.5 185.875 L 340.75 184.5 L 343.875 188.25 L 346.25 191 L 346.125 195.25 L 343 200.375 L 337.875 203.375 L 334.125 207.875 L 329 209.25 L 324.375 213.5 L 319.25 208.375 L 315.5 202.125 L 312 195.75 L 308.75 189.75 L 304.5 181.75 L 302.375 177.125 L 298.625 177.75 L 299.375 181.75 L 302.875 187.875 L 305.625 193 L 308 197.125 L 309.25 204.125 L 315 208.375 L 317.375 213.25 L 320.375 218.125 L 325.125 219.5 L 327.625 217 L 332.75 217 L 332.125 223 L 330 227 L 328.625 231.625 L 325.125 235.125 L 316 246.375 L 310.875 254.5 L 311.875 264.125 L 313.5 271.125 L 313.5 278.75 L 306.625 285.375 L 303.625 291.875 L 303.25 298.375 L 297.75 304 L 297.125 309.125 L 288.875 322 L 284.25 322 L 276.75 322.75 L 273.75 325.75 L 273 319.75 L 272.375 314.625 L 267.5 308.25 L 267.25 304.125 L 264.875 294.75 L 263.25 293.125 L 261.375 283.125 L 261.625 277.75 L 264 272.125 L 263.75 265.5 L 262.125 255.25 L 258.625 251.25 L 256 246.375 L 257 243.375 L 258.125 239.625 L 258.125 235.125 L 255.125 233 L 250.5 232.625 L 249.25 230 L 244.875 229.375 L 241.375 231 L 228 231 L 227.125 234.25 L 223.375 233.5 L 219.625 230.25 L 213.25 222.375 L 211.25 217 L 208.125 211.5 L 208.625 206.25 L 210.25 202 L 210.5 188 L 215.875 180.75 L 223.375 174.875 L 226.375 166.375 L 231.25 162.125 L 238.5 161.875 L 242.25 158.5 L 254.125 159 L 254.375 156.375 L 259.25 156 L 259.25 164.125 L 266.75 168.625 L 274.25 172.875 L 277.25 168.875 L 279.875 166.5 L 282.125 169.25 L 293.875 171.375 L 295.5 167.375 L 299 167.875 L 302 168.125 L 303.125 161.5 L 302.875 158 L 299.625 157.375 L 297.125 159.375 L 295.875 157 L 290.5 158.875 L 287.5 155.375 L 285.875 151.375 L 289.625 150.5 L 290.75 148.875 L 295.875 146.25 L 301.25 146.25 L 307.375 147.5 L 311.75 146.375 L 309.875 142.625 L 306.625 141 L 302.875 137.75 L 304.75 134.625 L 299 134.625 L 300.375 137.5 L 298.25 139.375 L 296.375 138.125 L 295.5 135.375 L 290.75 134.625 L 289.375 140.5 L 287.25 144.5 L 287.5 148.875 L 286.125 148.25 L 282.375 147 L 280.75 148.875 L 280 151.75 L 281.25 156.625 L 278.875 157.5 L 275.625 154.25 L 274 153.125 L 274 147.25 L 270.875 143.5 L 264.375 137 L 261.375 137.25 L 260.5 138.875 L 269.75 147.5 L 270.75 149.625 L 269.125 149.625 L 270 152.875 L 267.25 154.25 L 266.25 150.5 L 256.75 139.5 L 254.875 141.125 L 246.5 142.375 L 242 148 L 236.875 157.25 L 231.75 159.125 L 225.25 155.625 L 225.25 150.5 L 226.875 144.25 L 230.625 140.5 L 231.75 142.875 L 237.375 141.875 L 238.25 141.875 L 239.875 139.625 C 239.875 139.625 239.25 137.75 239 137.75 C 238.75 137.75 237.625 135.875 237.625 135.875 L 236 133.25 L 233.625 131.625 L 235 129.625 L 237.125 129.375 C 237.125 129.375 238.75 129 239.25 128.875 C 239.875 128.625 242 128 242 128 L 245 127.25 L 247.125 125 L 248.5 123.375 C 248.5 123.375 249.5 121.75 249.5 121 C 249.5 120.25 247.875 119.5 247.625 118.625 C 247.5 117.75 249 118.125 249 118.125 L 252.75 120 C 252.75 120 255.125 119.25 255.375 118.875 C 255.625 118.5 256.25 117 256.25 117 C 256.25 117 255.125 115.125 255.125 114.625 C 255.25 114.125 256.75 112.125 256.75 112.125 L 259.125 114.125 L 257.875 116.25 L 257.625 118.25 L 259.5 118.25 C 259.75 118.25 262.875 118.375 264.625 118.25 C 266.25 118 266.75 117.625 267.25 117.125 C 267.875 116.625 269.125 116.625 269.125 116.625 L 271.375 117.375 L 271.625 117.375 L 274.875 115 L 275.375 114.5 C 275.5 114.125 275.625 113.75 275.5 113.625 C 275.25 113 275.5 110.875 275.5 110.875 C 275.5 110.875 277.375 108.5 278.25 108.125 C 279.125 107.875 282 108.625 282.5 108.5 C 283 108.125 284.625 106.5 284.625 106.5 L 285.25 104.625 L 282.875 103.25 L 280.125 103.875 L 277.125 104 L 275.5 102.75 L 275.5 99.75 L 276.125 97.625 L 278 95.5 L 278 94.375 L 275.875 92.75 L 274 94 L 272.625 95.75 L 270.75 98.125 C 270.75 98.125 269.125 99.375 269.125 99.75 C 269.125 100 268 100.625 268 100.625 L 267.5 103.25 L 268.75 103.875 C 268.75 103.875 270.375 105.5 270.5 105.75 C 270.5 106 269.875 107.125 269.875 107.125 L 267.5 108.75 C 267.5 108.75 267.375 112 267.25 112.25 C 267.125 112.5 264 114.375 264 114.375 L 263.25 112.25 L 261.25 109.5 L 259.625 106.375 C 259.625 106.375 258.625 106.5 257.5 106.875 C 256.375 107.25 256.25 108.25 256.25 108.25 C 256.25 108.25 254.125 109.25 254 109.25 C 253.875 109.25 252.75 107.875 252.75 107.875 L 251.625 105 L 252.375 102 L 254.625 101.75 L 260.25 95.5 L 264 91.75 L 272.375 85.125 L 280.5 83.5 L 288 84.75 L 295.5 87.5 L 300.875 90.25 L 298.25 91.25 L 292.25 91 L 291.75 93.125 L 293.125 95.25 L 295.75 97.25 L 305 92.25 L 305.625 91.875 L 306 91.75 L 306.25 91.625 L 306.125 91.75 L 312.5 90.625 C 312.5 90.625 312.375 90.625 312.25 90.625 L 306 91.625 L 306.25 91.5 C 306.5 91.375 308.5 90.625 310.375 90 C 292.25 84 272.875 80.625 252.75 80.625 Z M 212.875 92.5 L 222.75 92.5 L 224.75 94.875 L 221.75 97.875 L 217.125 99 C 217.125 99 215.625 99 211.75 96 Z M 236.75 107.875 L 238 111.25 L 241 114.5 L 241.875 120.125 L 244.25 123.25 L 239.875 125.25 L 235.125 126.125 L 233.75 124.75 L 235.75 121.5 L 237.875 119.375 L 237.375 117 L 233.25 115 C 233.25 115 234 112.375 234.625 109.75 Z M 229.875 117.875 L 232.125 120.875 L 230.75 123.25 L 227.625 122 Z M 324.5 134 C 324.375 134 324.25 134 324 134.125 L 324 134.375 C 322.875 134.75 319.125 137.75 319.125 137.75 L 318.125 142.25 C 318.125 142.25 319 144.125 320.25 144.75 C 321.375 145.375 324 148.75 324 148.75 L 325.875 154.375 L 330.5 157.375 L 333.875 155.75 L 330.625 150.5 L 328.375 146.5 L 326 140 L 325.125 137.375 L 327.25 135.375 C 327.25 135.375 325.75 134 324.5 134 Z M 256 144.625 L 257.625 148.625 L 257.25 151.375 L 255.125 153.25 L 252.875 150.875 Z M 245.125 151 L 246.5 152.5 L 245.125 152.625 Z M 263.625 155.125 L 267.125 158.375 L 264.75 160.25 L 262 155.75 Z M 90.375 191.125 L 97.375 191.125 L 103.375 195.375 L 103.875 197.75 L 100.5 199.875 L 97.5 195.75 L 92.25 194.75 L 87.75 192.5 L 90.5 191.125 Z M 418.625 221.625 L 429.375 233.875 L 431.75 241.25 C 431.75 241.25 427.125 240.625 426.375 240.625 C 425.625 240.625 419.5 222.75 418.625 221.625 Z M 387.625 222 L 388.75 223.375 L 389.25 227.5 L 386.25 230.75 L 384.875 225.5 Z M 327.25 274.125 L 329.625 274.25 L 330.375 278.125 L 330.375 282.875 L 329.5 285.375 L 326.125 290.5 L 326.75 294.75 L 324.5 298.25 L 321 303.625 L 318 302.875 L 316.75 297.625 L 316.75 292.75 L 320.25 289.75 L 318.875 288.5 L 316.75 285.5 L 319.75 283.125 L 323.875 281.125 C 323.875 281.125 327.125 278.5 327.25 277.875 Z M 150.625 355.625 L 150.75 355.625 L 150.75 355.75 L 152.25 359.375 L 148 357.25 L 148.875 357 L 150.75 355.75 Z M 143.125 357.25 L 143.25 357.25 L 143.25 357.375 L 145.125 360.75 L 141.375 361.625 L 143.25 357.375 Z M 158.625 420.25 L 158.375 420.25 C 160.5 421.625 162.625 422.875 164.875 424 L 170.25 424 Z M 158.625 420.25 " transform="matrix(0.03125,0,0,0.03125,0,0)"/>
</g>
</svg>
