
<svg xmlns="http://www.w3.org/2000/svg" xmlns:xlink="http://www.w3.org/1999/xlink" width="16px" height="16px" viewBox="0 0 16 16" version="1.1">
<g id="surface1">
<path style="fill-rule:nonzero;fill:rgb(100%,100%,100%);fill-opacity:1;stroke-width:28.808744;stroke-linecap:butt;stroke-linejoin:miter;stroke:rgb(0%,80%,100%);stroke-opacity:1;stroke-miterlimit:4;" d="M 77.625 20 L 434.375 20 C 466.125 20 492 45.875 492 77.625 L 492 434.375 C 492 466.125 466.125 492 434.375 492 L 77.625 492 C 45.875 492 20 466.125 20 434.375 L 20 77.625 C 20 45.875 45.875 20 77.625 20 Z M 77.625 20 " transform="matrix(0.03125,0,0,0.03125,0,0)"/>
<path style="fill-rule:nonzero;fill:rgb(0%,80%,100%);fill-opacity:1;stroke-width:2.441739;stroke-linecap:butt;stroke-linejoin:miter;stroke:rgb(100%,100%,100%);stroke-opacity:1;stroke-miterlimit:4;" d="M -247.691929 112.805254 C -247.691929 184.484179 -305.80013 242.592379 -377.479054 242.592379 C -449.157979 242.592379 -507.266179 184.484179 -507.266179 112.805254 C -507.266179 41.12633 -449.157979 -16.981871 -377.479054 -16.981871 C -305.80013 -16.981871 -247.691929 41.12633 -247.691929 112.805254 Z M -247.691929 112.805254 " transform="matrix(0.0428887,0,0,0.0428887,24.021632,3.908019)"/>
<path style="fill-rule:nonzero;fill:rgb(7.843137%,25.882353%,30.980392%);fill-opacity:1;stroke-width:2.441739;stroke-linecap:butt;stroke-linejoin:miter;stroke:rgb(100%,100%,100%);stroke-opacity:1;stroke-miterlimit:4;" d="M -377.479054 -16.981871 C -388.408496 -16.981871 -398.973624 -15.615691 -409.083358 -13.065488 L -415.732102 -9.786655 L -421.652216 -8.329396 L -425.477521 -4.321934 L -429.849298 -0.132314 L -434.403232 -0.860944 L -434.949704 -3.593304 C -440.505504 -0.860944 -445.788067 2.32681 -450.888474 5.7878 L -450.888474 10.250656 L -445.696989 9.522026 L -446.881012 14.440275 L -444.968359 19.449603 C -444.968359 19.449603 -445.423753 21.362255 -446.607776 21.908727 C -447.791799 22.546278 -451.343867 19.085288 -451.343867 19.085288 L -451.708182 14.440275 L -455.442408 13.711646 L -459.905264 16.352927 C -459.905264 16.352927 -461.726837 18.26558 -460.542814 20.178232 C -459.358791 22.181963 -458.630162 24.276773 -459.814185 24.823245 C -460.907129 25.460796 -466.645086 26.371583 -466.645086 26.371583 L -470.379312 30.561202 L -476.117269 33.566799 L -477.756686 37.027789 L -481.490912 41.490644 L -484.496508 45.133792 C -484.496508 45.133792 -488.412892 47.775073 -487.957498 48.959096 C -487.502105 50.143119 -487.319947 54.514896 -487.319947 54.514896 L -487.775341 57.156178 L -490.59878 54.697053 L -490.234465 50.871749 L -490.963095 49.869883 C -493.513298 54.332739 -495.699186 59.06883 -497.702917 63.804922 L -495.881344 65.899732 L -499.069098 69.360722 L -499.069098 72.093082 L -494.7884 75.827308 L -494.241927 78.377511 L -492.69359 83.842232 L -487.957498 82.749288 L -487.684262 86.028121 L -487.319947 83.022524 L -482.31062 80.290164 L -482.31062 80.016928 L -476.936977 80.016928 L -474.295696 81.383108 L -466.007535 83.022524 L -463.821647 87.029986 L -460.633893 90.21774 C -460.633893 90.21774 -457.263982 90.035583 -456.71751 90.035583 C -456.171037 90.035583 -453.25652 95.044911 -453.25652 95.044911 L -451.617103 99.052373 L -443.328943 103.697386 L -438.137458 103.333071 L -435.22294 106.794061 L -431.76195 108.888871 L -432.399501 113.169569 L -436.953435 119.362919 C -436.953435 119.362919 -437.590986 127.833237 -437.590986 128.652945 C -437.590986 129.472653 -439.503638 135.119532 -439.503638 135.119532 L -445.514831 138.03405 L -448.338271 144.773872 L -452.345733 154.519291 L -456.899667 155.156842 L -458.08369 158.253517 L -455.260251 159.528619 L -455.98888 163.171766 L -460.724972 164.355789 L -463.821647 168.272173 L -462.637624 171.186691 C -462.637624 171.186691 -461.635759 173.554736 -462.091152 174.101209 C -462.455467 174.647681 -465.096749 176.378176 -465.096749 176.378176 L -461.089286 178.564064 L -462.637624 183.02692 L -461.089286 187.216539 L -458.08369 190.859686 L -465.552142 187.671932 L -470.834706 179.292694 C -470.834706 179.292694 -473.567066 174.374445 -473.202751 173.827972 C -472.747358 173.2815 -474.568932 166.541678 -474.568932 166.541678 L -477.392371 154.974685 L -478.029922 134.208745 L -478.394236 129.654811 L -486.409161 121.639886 L -489.505836 113.07849 L -492.420354 105.974353 L -492.511432 99.143451 L -489.141521 94.589517 L -487.957498 88.487245 L -487.775341 86.938908 L -489.961229 85.208413 L -493.057905 87.576459 L -498.340468 82.384973 L -499.251255 77.922118 L -502.074694 76.464859 C -505.444606 87.940773 -507.266179 100.145317 -507.266179 112.805254 C -507.266179 155.430078 -486.682397 193.318811 -454.987015 216.90819 L -451.252789 215.177695 L -454.349464 211.35239 L -448.975821 208.802187 L -446.152382 204.612568 C -446.243461 204.612568 -446.33454 204.43041 -446.33454 204.43041 L -446.061304 204.43041 L -446.152382 204.612568 C -445.788067 204.976883 -443.237864 207.25385 -443.237864 208.255715 C -443.237864 209.348659 -439.230402 217.454662 -439.230402 217.454662 L -439.41256 217.818977 L -434.676468 220.095944 L -421.196823 218.729764 L -401.432748 220.095944 L -399.793332 219.913787 L -392.962431 213.993672 L -367.005006 212.900728 L -351.977023 213.4472 C -351.977023 213.4472 -349.42682 209.98621 -347.514167 209.98621 C -345.601515 209.98621 -338.224141 209.439738 -338.224141 209.439738 L -332.668342 205.614433 L -327.112542 210.168368 L -318.368988 209.621895 C -318.368988 209.621895 -323.287237 215.633089 -322.194293 215.906325 C -321.101349 216.179561 -312.084559 211.35239 -312.084559 211.35239 L -293.413429 207.527086 L -288.586258 207.344928 C -263.448542 183.66447 -247.691929 150.056436 -247.691929 112.805254 L -250.970762 109.162107 L -263.175306 90.855291 L -260.442945 90.399898 L -260.534024 90.582055 L -253.794201 98.414822 L -249.604582 101.875812 L -247.783008 108.433477 C -248.056244 99.781002 -249.240267 91.310685 -251.152919 83.113603 L -252.701257 81.383108 L -254.613909 78.559669 L -255.069303 76.647016 L -257.164112 75.280836 L -257.710584 77.193488 L -259.441079 76.829174 L -259.987552 74.552207 L -259.805394 71.273374 L -260.169709 69.178564 L -262.17344 68.81425 L -261.991283 71.091217 L -264.086092 72.002003 L -264.632564 70.271508 L -264.632564 68.81425 L -267.638161 64.806787 L -268.640027 62.347663 L -269.004341 60.252853 L -269.915128 60.252853 L -272.283174 61.619033 L -274.195826 62.711978 L -275.835243 64.897866 C -275.835243 64.897866 -279.387311 68.81425 -279.660547 68.81425 C -279.933783 68.996407 -281.5732 71.091217 -281.5732 71.091217 L -283.121537 73.094948 L -282.93938 77.284567 L -283.668009 82.020659 L -284.30556 83.933311 L -286.218213 85.026255 L -287.584393 83.386839 L -289.223809 79.379377 L -290.407832 75.189757 L -292.593721 70.18043 L -293.504507 65.080023 L -294.050979 62.165506 L -294.68853 64.078158 L -296.419025 64.078158 L -297.056576 62.438742 L -299.515701 58.977752 L -302.976691 55.881076 L -302.794533 55.698919 L -313.723975 55.881076 L -315.181234 54.24166 L -317.640359 54.788132 L -321.374585 52.693322 L -323.469395 49.41449 L -325.108811 46.135657 L -325.108811 51.144985 L -322.467529 53.604109 L -320.828113 56.063234 L -320.099483 58.066965 L -317.54928 59.159909 L -316.638493 57.611571 L -315.090156 56.700785 L -312.813188 59.342066 L -311.173772 61.254719 L -311.264851 64.351394 L -313.450739 67.994541 L -317.093887 70.089351 L -319.735168 73.277105 L -323.378316 74.278971 L -326.657148 77.284567 L -330.300296 73.64142 L -332.941578 69.269643 L -335.400702 64.62463 L -337.768748 60.435011 L -340.774345 54.697053 L -342.322682 51.5093 L -344.963964 51.873614 L -344.417492 54.788132 L -341.958367 59.159909 L -340.045715 62.803056 L -338.31522 65.626496 L -337.404433 70.635823 L -333.396971 73.64142 L -331.666476 77.10241 L -329.571666 80.5634 L -326.110676 81.474187 L -324.380181 79.83477 L -320.737034 79.83477 L -321.192427 84.02439 L -322.740765 86.847829 L -323.651552 90.126662 L -326.110676 92.585786 L -332.668342 100.60071 L -336.311489 106.338667 L -335.491781 113.260647 L -334.398837 118.178896 L -334.398837 123.552539 L -339.317086 128.28863 L -341.411895 132.842565 L -341.594053 137.487577 L -345.601515 141.49504 L -345.96583 145.047108 L -351.885944 154.246055 L -355.164777 154.246055 L -360.538419 154.792527 L -362.633229 156.887337 L -363.179701 152.697718 L -363.544016 149.05457 L -367.005006 144.500636 L -367.187163 141.586118 L -368.826579 134.937374 L -370.010602 133.753351 L -371.376782 126.740293 L -371.194625 122.914988 L -369.46413 118.907526 L -369.646287 114.171434 L -370.83031 106.88514 L -373.289435 104.0617 L -375.202087 100.60071 L -374.473458 98.505901 L -373.744828 95.77354 L -373.744828 92.585786 L -375.839638 91.037449 L -379.027392 90.855291 L -380.029257 88.942639 L -383.034854 88.578324 L -385.493978 89.762347 L -395.05724 89.762347 L -395.694791 92.039314 L -398.336073 91.401763 L -400.977355 89.124796 L -405.531289 83.660075 L -406.897469 79.83477 L -409.174436 75.827308 L -408.810122 72.184161 L -407.626099 69.087486 L -407.443941 59.159909 L -403.618637 54.059503 L -398.336073 49.869883 L -396.241263 43.85869 L -392.780273 40.853093 L -387.588788 40.670936 L -384.947506 38.211812 L -376.568267 38.576126 L -376.295031 36.663474 L -372.92512 36.481317 L -372.92512 42.219274 L -367.551478 45.407028 L -362.177835 48.503703 L -360.083026 45.589185 L -358.170373 43.949769 L -356.713114 45.862421 L -348.242797 47.410759 L -347.149852 44.496241 L -344.599649 44.951634 L -342.50484 45.133792 L -341.77621 40.3977 L -341.958367 37.938576 L -344.235335 37.483182 L -345.96583 38.849362 L -346.967695 37.209946 L -350.701921 38.485048 L -352.796731 36.025923 L -353.980754 33.202484 L -351.339472 32.656012 L -350.519764 31.471989 L -346.967695 29.559337 L -343.14239 29.559337 L -338.679535 30.379045 L -335.673938 29.650415 L -337.040118 27.009133 L -339.317086 25.825111 L -341.958367 23.548143 L -340.592187 21.271176 L -344.599649 21.271176 L -343.688862 23.365986 L -345.2372 24.732166 L -346.512302 23.730301 L -347.149852 21.817648 L -350.610842 21.271176 L -351.521629 25.460796 L -353.069967 28.375314 L -352.88781 31.38091 L -353.798596 31.016596 L -356.439878 30.105809 L -357.623901 31.38091 L -358.170373 33.47572 L -357.259586 36.93671 L -358.899003 37.483182 L -361.267048 35.206215 L -362.359993 34.477586 L -362.359993 30.287966 L -364.63696 27.555606 L -369.281973 23.001671 L -371.376782 23.183829 L -371.923255 24.367852 L -365.456668 30.470123 L -364.63696 32.018461 L -365.820983 32.018461 L -365.274511 34.295428 L -367.187163 35.206215 L -367.915792 32.564933 L -374.655615 24.732166 L -375.930717 25.916189 L -381.850831 26.826976 L -385.129664 30.834438 L -388.772811 37.301025 L -392.415958 38.667205 L -396.969893 36.208081 L -396.969893 32.564933 L -395.876948 28.193156 L -393.144588 25.460796 L -392.415958 27.191291 L -388.408496 26.462661 L -387.770946 26.462661 L -386.678001 24.914324 C -386.678001 24.914324 -387.042316 23.548143 -387.224473 23.548143 C -387.406631 23.548143 -388.226339 22.181963 -388.226339 22.181963 L -389.319283 20.36039 L -391.049778 19.176367 L -390.047913 17.810186 L -388.590654 17.628029 C -388.590654 17.628029 -387.406631 17.354793 -387.042316 17.172636 C -386.586923 17.081557 -385.129664 16.626163 -385.129664 16.626163 L -383.034854 16.079691 L -381.486516 14.531354 L -380.484651 13.347331 C -380.484651 13.347331 -379.756021 12.163308 -379.756021 11.707915 C -379.756021 11.161442 -380.940044 10.61497 -381.122202 9.97742 C -381.21328 9.339869 -380.120336 9.613105 -380.120336 9.613105 L -377.479054 10.888206 C -377.479054 10.888206 -375.748559 10.432813 -375.566402 10.159577 C -375.384245 9.886341 -375.01993 8.793397 -375.01993 8.793397 C -375.01993 8.793397 -375.839638 7.427216 -375.748559 7.15398 C -375.748559 6.789666 -374.655615 5.423485 -374.655615 5.423485 L -372.92512 6.789666 L -373.835907 8.246925 L -374.109143 9.704183 L -372.742963 9.704183 C -372.560805 9.704183 -370.283838 9.795262 -369.099815 9.704183 C -367.915792 9.522026 -367.551478 9.24879 -367.187163 8.884475 C -366.73177 8.611239 -365.820983 8.520161 -365.820983 8.520161 L -364.272645 9.066633 L -364.090488 9.066633 L -361.813521 7.427216 L -361.449206 7.062902 C -361.358127 6.789666 -361.267048 6.51643 -361.358127 6.425351 C -361.449206 6.061036 -361.358127 4.512698 -361.358127 4.512698 C -361.358127 4.512698 -359.991947 2.782203 -359.445475 2.600046 C -358.807924 2.32681 -356.804193 2.873282 -356.3488 2.782203 C -355.984485 2.600046 -354.891541 1.416023 -354.891541 1.416023 L -354.436147 0.0498429 L -356.166642 -0.860944 L -358.079295 -0.496629 L -360.174104 -0.40555 L -361.358127 -1.225259 L -361.358127 -3.411147 L -360.902734 -4.959485 L -359.627632 -6.507822 L -359.627632 -7.236452 L -361.084891 -8.420475 L -362.451071 -7.418609 L -363.361858 -6.325665 L -364.728038 -4.59517 C -364.728038 -4.59517 -365.912061 -3.684383 -365.912061 -3.411147 C -365.912061 -3.22899 -366.640691 -2.773596 -366.640691 -2.773596 L -367.005006 -0.860944 L -366.094219 -0.496629 C -366.094219 -0.496629 -365.001275 0.687394 -364.910196 0.869551 C -364.910196 0.96063 -365.365589 1.780338 -365.365589 1.780338 L -367.005006 2.964361 C -367.005006 2.964361 -367.096084 5.241328 -367.187163 5.423485 C -367.278242 5.605643 -369.46413 6.971823 -369.46413 6.971823 L -370.101681 5.423485 L -371.467861 3.510833 L -372.560805 1.233866 C -372.560805 1.233866 -373.289435 1.416023 -374.109143 1.598181 C -374.928851 1.871417 -375.01993 2.600046 -375.01993 2.600046 C -375.01993 2.600046 -376.477189 3.328676 -376.568267 3.328676 C -376.750425 3.328676 -377.479054 2.417889 -377.479054 2.417889 L -378.298762 0.323079 L -377.75229 -1.771731 L -376.203953 -2.044967 L -372.196491 -6.416744 L -369.46413 -9.058025 L -363.544016 -13.794117 L -357.806058 -14.97814 L -352.432416 -14.067353 L -347.149852 -12.154701 L -343.324548 -10.242048 L -345.2372 -9.42234 L -349.42682 -9.695576 L -349.791134 -8.05616 L -348.880347 -6.598901 L -346.967695 -5.232721 L -340.41003 -8.693711 L -339.954636 -9.058025 L -339.772479 -9.058025 L -339.499243 -9.149104 L -339.6814 -9.058025 L -335.036387 -9.877734 C -335.127466 -9.877734 -335.218545 -9.877734 -335.309623 -9.968812 L -339.6814 -9.149104 L -339.499243 -9.331262 C -339.408164 -9.331262 -337.950905 -9.877734 -336.584725 -10.333127 C -349.42682 -14.613825 -363.179701 -16.981871 -377.479054 -16.981871 Z M -405.804525 -8.602632 L -398.791466 -8.602632 L -397.425286 -6.872137 L -399.520096 -4.777327 L -402.70785 -3.957619 C -402.70785 -3.957619 -403.800794 -3.957619 -406.533155 -6.052429 Z M -388.86389 2.32681 L -387.953103 4.785935 L -385.767215 7.062902 L -385.220742 10.979285 L -383.581326 13.256252 L -386.586923 14.713511 L -390.047913 15.259983 L -390.9587 14.349196 L -389.501441 12.072229 L -388.044182 10.523892 L -388.408496 8.793397 L -391.323014 7.427216 C -391.323014 7.427216 -390.776542 5.514564 -390.321149 3.601912 Z M -393.69106 9.522026 L -392.142722 11.616836 L -393.053509 13.256252 L -395.330476 12.345465 Z M -326.56607 20.906862 C -326.657148 20.906862 -326.839306 20.906862 -326.930385 20.99794 L -326.930385 21.180098 C -327.750093 21.453334 -330.391375 23.548143 -330.391375 23.548143 L -331.120004 26.735897 C -331.120004 26.735897 -330.573532 28.102078 -329.662745 28.466392 C -328.843037 28.921786 -326.930385 31.38091 -326.930385 31.38091 L -325.655283 35.297294 L -322.37645 37.483182 L -319.917326 36.299159 L -322.194293 32.656012 L -323.833709 29.741494 L -325.564204 25.18756 L -326.110676 23.274907 L -324.653417 21.817648 C -324.653417 21.817648 -325.746362 20.906862 -326.56607 20.906862 Z M -375.111008 28.375314 L -374.109143 31.198753 L -374.2913 33.202484 L -375.748559 34.568664 L -377.387976 32.838169 Z M -382.852697 32.929248 L -381.94191 33.931113 L -382.852697 34.113271 Z M -369.737366 35.934845 L -367.278242 38.120733 L -369.008737 39.486913 L -370.921389 36.299159 Z M -492.69359 61.436876 L -487.684262 61.436876 L -483.494643 64.442473 L -483.130328 66.081889 L -485.498374 67.630227 L -487.684262 64.715709 L -491.32741 63.987079 L -494.515164 62.347663 L -492.602511 61.436876 Z M -259.805394 83.022524 L -252.154785 91.766078 L -250.515368 96.957563 C -250.515368 96.957563 -253.794201 96.593248 -254.340673 96.593248 C -254.887145 96.593248 -259.167843 83.842232 -259.805394 83.022524 Z M -281.755357 83.386839 L -281.026728 84.297626 L -280.662413 87.212144 L -282.757223 89.489111 L -283.668009 85.845963 Z M -324.653417 120.273706 L -322.922922 120.364785 L -322.37645 123.097145 L -322.37645 126.558135 L -323.014001 128.28863 L -325.473126 131.840699 L -325.017732 134.937374 L -326.56607 137.396499 L -329.025194 141.221804 L -331.120004 140.675331 L -332.12187 136.941105 L -332.12187 133.480115 L -329.662745 131.385306 L -330.573532 130.474519 L -332.12187 128.28863 L -330.02706 126.649214 L -327.021463 125.283034 C -327.021463 125.283034 -324.744496 123.370381 -324.653417 123.006067 Z M -449.886608 178.108671 L -449.79553 178.108671 L -449.886608 178.199749 L -448.793664 180.841031 L -451.799261 179.292694 L -451.16171 179.110536 L -449.886608 178.199749 Z M -455.260251 179.292694 L -455.169172 179.292694 L -455.169172 179.383772 L -453.89407 181.660739 L -456.535352 182.29829 L -455.169172 179.383772 Z M -444.23973 223.921249 L -444.512966 224.012328 C -442.964628 224.923114 -441.416291 225.742823 -439.867953 226.653609 L -435.95157 226.653609 Z M -444.23973 223.921249 " transform="matrix(0.0428887,0,0,0.0428887,24.021632,3.908019)"/>
<path style=" stroke:none;fill-rule:nonzero;fill:rgb(60%,60%,60%);fill-opacity:1;" d="M 5.402344 6.121094 L 5.328125 5.808594 L 5.285156 5.75 C 5.230469 5.667969 5.226562 5.667969 5.199219 5.691406 C 5.160156 5.734375 5.152344 5.734375 5.121094 5.738281 C 5.050781 5.738281 4.945312 5.660156 4.875 5.558594 L 4.832031 5.5 L 4.746094 5.5 L 4.742188 5.539062 C 4.734375 5.65625 4.703125 5.789062 4.710938 6.066406 C 4.714844 6.234375 4.714844 6.371094 4.71875 6.375 C 4.722656 6.382812 4.925781 6.429688 5.023438 6.453125 C 5.125 6.472656 5.144531 6.648438 5.199219 6.542969 C 5.214844 6.515625 5.234375 6.507812 5.253906 6.496094 C 5.492188 6.367188 5.417969 6.277344 5.402344 6.121094 Z M 5.402344 6.121094 "/>
<path style=" stroke:none;fill-rule:nonzero;fill:rgb(59.215686%,59.215686%,59.215686%);fill-opacity:1;" d="M 6.015625 14.167969 C 5.515625 13.507812 5.300781 12.855469 5.304688 11.535156 C 5.308594 10.582031 5.640625 9.410156 5.691406 9.25 C 5.703125 9.210938 5.84375 9.070312 5.933594 9.082031 C 6.015625 9.089844 6.070312 9.214844 6.097656 9.289062 C 6.113281 9.328125 6.234375 9.496094 6.234375 10.078125 C 6.238281 11.308594 6.375 12.308594 6.648438 13.125 C 6.785156 13.527344 6.894531 13.734375 7.09375 13.9375 C 7.261719 14.113281 7.527344 14.179688 8.082031 14.179688 C 8.390625 14.179688 8.429688 14.1875 8.429688 14.265625 C 7.675781 15.121094 6.457031 14.550781 6.015625 14.167969 Z M 6.015625 14.167969 "/>
<path style=" stroke:none;fill-rule:nonzero;fill:rgb(59.215686%,59.215686%,59.215686%);fill-opacity:1;" d="M 12.457031 11.816406 C 12.398438 11.746094 12.96875 10.953125 12.902344 10.554688 C 12.871094 10.347656 12.785156 10.21875 12.6875 10.21875 C 12.671875 10.21875 12.5625 10.308594 12.445312 10.417969 C 12.332031 10.527344 12.074219 10.769531 11.875 10.953125 C 11.675781 11.140625 11.417969 11.378906 11.304688 11.488281 C 11.191406 11.597656 11.109375 11.625 11.074219 11.625 C 11 11.625 10.789062 11.464844 10.796875 11.402344 C 10.800781 11.347656 10.804688 11.328125 10.863281 11.210938 C 11.113281 10.675781 11.308594 10.257812 11.433594 9.988281 C 11.503906 9.824219 11.621094 9.578125 11.691406 9.4375 L 11.816406 9.183594 L 11.804688 8.972656 L 11.652344 8.808594 L 10.691406 8.691406 C 10.164062 8.625 9.800781 8.597656 9.679688 8.503906 C 9.609375 8.453125 9.542969 8.464844 9.542969 8.3125 C 9.542969 8.203125 9.628906 8.140625 9.664062 8.113281 C 9.699219 8.085938 10.074219 7.914062 10.578125 7.777344 C 11.46875 7.53125 13.019531 7.042969 13.078125 6.988281 C 13.15625 6.917969 12.664062 5.941406 12.367188 5.574219 C 12.070312 5.210938 11.949219 5.070312 11.859375 4.992188 C 11.652344 4.808594 11.425781 4.550781 11.46875 4.5625 C 12.800781 4.769531 13.828125 6.046875 14.089844 7.519531 C 14.132812 8.316406 14.042969 8.417969 14.042969 9.078125 C 13.949219 9.796875 13.933594 9.800781 13.875 10.074219 C 13.800781 10.351562 13.789062 10.527344 13.46875 10.929688 L 12.878906 11.671875 L 12.699219 11.769531 C 12.625 11.824219 12.5625 11.847656 12.507812 11.832031 Z M 12.457031 11.816406 "/>
<path style=" stroke:none;fill-rule:nonzero;fill:rgb(59.215686%,59.215686%,59.215686%);fill-opacity:1;" d="M 2.152344 9.851562 C 2.125 9.816406 2.125 9.488281 2.148438 8.957031 C 2.1875 8.035156 2.246094 8.734375 2.074219 8.765625 C 1.914062 8.796875 2.167969 7.832031 2.195312 7.300781 C 2.214844 6.953125 2.269531 6.570312 2.554688 6.003906 C 3.097656 4.914062 3.003906 5.050781 3.097656 4.914062 C 3.34375 4.5 3.613281 4.09375 3.894531 3.972656 C 4.515625 3.679688 5.429688 3.386719 6.105469 3.582031 C 6.113281 3.605469 6.011719 3.675781 5.878906 3.738281 C 5.503906 3.910156 5.476562 3.941406 5.53125 4.085938 C 5.589844 4.242188 5.640625 4.273438 5.832031 4.273438 C 5.957031 4.273438 5.996094 4.257812 6.019531 4.179688 C 6.523438 3.054688 7.785156 2.421875 8.980469 2.484375 C 9.65625 2.585938 10.03125 3.183594 10.175781 3.722656 C 10.191406 3.785156 10.21875 3.777344 10.1875 3.761719 C 10.148438 3.746094 10.054688 3.703125 9.902344 3.648438 C 9.429688 3.484375 8.808594 3.769531 8.347656 4.417969 L 8.199219 4.621094 L 8.214844 5.261719 L 8.160156 5.871094 L 7.820312 6.734375 C 7.410156 7.78125 7.074219 7.761719 6.917969 7.953125 C 6.902344 7.972656 6.824219 8.046875 6.730469 8.097656 L 6.5625 8.183594 L 6.25 8.269531 C 4.890625 8.574219 4.78125 7.480469 4.722656 6.289062 C 4.765625 6.242188 5.042969 6.335938 5.144531 6.429688 C 5.203125 6.484375 5.28125 6.472656 5.308594 6.46875 C 5.347656 6.460938 5.320312 6.433594 5.304688 6.300781 C 5.253906 5.9375 5.234375 5.878906 5.125 5.808594 C 5.027344 5.742188 5.027344 5.757812 4.949219 5.738281 C 4.796875 5.679688 4.851562 5.726562 4.769531 5.648438 C 4.777344 4.765625 4.582031 4.65625 4.300781 4.972656 C 4.25 4.992188 3.890625 5.484375 3.78125 5.679688 C 3.589844 6.039062 3.597656 6.007812 3.667969 6.121094 C 3.703125 6.179688 3.78125 6.359375 3.882812 6.453125 C 4.035156 6.597656 4.132812 6.699219 4.113281 6.796875 C 4.050781 7.039062 3.988281 6.929688 3.644531 6.914062 L 3.332031 6.902344 L 3.296875 7.039062 C 3.273438 7.128906 3.289062 7.5 3.347656 8.089844 C 3.496094 9.648438 3.503906 9.570312 3.390625 9.707031 C 3.328125 9.78125 3.269531 9.8125 3.226562 9.796875 C 3.1875 9.78125 3.085938 9.601562 3 9.394531 C 2.910156 9.1875 2.820312 9.023438 2.800781 9.03125 C 2.777344 9.039062 2.691406 9.214844 2.605469 9.421875 C 2.523438 9.628906 2.4375 9.820312 2.417969 9.851562 C 2.375 9.917969 2.203125 9.917969 2.152344 9.851562 Z M 2.152344 9.851562 "/>
<path style=" stroke:none;fill-rule:nonzero;fill:rgb(60%,60%,60%);fill-opacity:1;" d="M 6.269531 6.710938 C 6.261719 6.546875 6.253906 6.414062 6.25 6.410156 C 6.246094 6.410156 6.160156 6.394531 6.058594 6.378906 L 5.875 6.351562 L 5.898438 6.652344 C 5.925781 6.980469 5.964844 7.03125 6.15625 7.015625 L 6.28125 7.003906 Z M 6.269531 6.710938 "/>
<path style=" stroke:none;fill-rule:nonzero;fill:rgb(60%,60%,60%);fill-opacity:1;" d="M 6.941406 6.84375 C 7.039062 6.714844 7.125 6.699219 7.183594 6.800781 C 7.214844 6.863281 7.253906 6.867188 7.425781 6.832031 L 7.628906 6.792969 L 7.644531 6.503906 C 7.648438 6.34375 7.644531 6.183594 7.628906 6.148438 C 7.605469 6.089844 7.59375 6.09375 7.527344 6.175781 C 7.425781 6.296875 7.234375 6.371094 7.175781 6.3125 C 7.105469 6.246094 6.914062 6.261719 6.824219 6.34375 C 6.746094 6.410156 6.515625 6.882812 6.515625 6.972656 C 6.515625 7.058594 6.851562 6.953125 6.941406 6.84375 Z M 6.941406 6.84375 "/>
<path style=" stroke:none;fill-rule:nonzero;fill:rgb(60%,60%,60%);fill-opacity:1;" d="M 6.40625 6.640625 C 6.40625 6.628906 6.433594 6.585938 6.480469 6.523438 C 6.546875 6.429688 6.558594 6.421875 6.65625 6.34375 L 6.757812 6.265625 L 6.835938 6.039062 L 6.882812 5.996094 C 6.941406 5.9375 6.945312 5.9375 6.972656 5.957031 C 7.207031 6.5 7.171875 6.195312 6.894531 6.4375 C 6.804688 6.472656 6.691406 6.554688 6.621094 6.589844 C 6.546875 6.628906 6.460938 6.65625 6.421875 6.65625 C 6.410156 6.65625 6.40625 6.652344 6.40625 6.640625 Z M 6.40625 6.640625 "/>
<path style=" stroke:none;fill-rule:nonzero;fill:rgb(60%,60%,60%);fill-opacity:1;" d="M 6.347656 6.648438 C 6.339844 6.644531 6.335938 6.632812 6.335938 6.621094 C 6.335938 6.546875 6.53125 6.140625 6.617188 6.027344 C 6.664062 5.96875 6.75 5.933594 6.84375 5.929688 C 6.875 5.929688 6.90625 5.933594 6.917969 5.9375 C 6.933594 5.941406 6.929688 5.941406 6.882812 5.988281 L 6.832031 6.039062 L 6.757812 6.257812 L 6.652344 6.339844 C 6.550781 6.417969 6.542969 6.429688 6.472656 6.523438 C 6.425781 6.585938 6.398438 6.628906 6.398438 6.640625 C 6.398438 6.652344 6.394531 6.65625 6.378906 6.65625 C 6.367188 6.65625 6.355469 6.652344 6.347656 6.648438 Z M 6.347656 6.648438 "/>
<path style=" stroke:none;fill-rule:nonzero;fill:rgb(56.862745%,47.843137%,47.843137%);fill-opacity:1;" d="M 4.097656 2.542969 C 4.046875 2.085938 4.019531 1.6875 4.03125 1.652344 C 4.042969 1.621094 4.082031 1.417969 4.214844 1.390625 C 4.425781 1.347656 4.542969 1.5 4.585938 1.558594 C 4.613281 1.59375 4.78125 2.027344 4.960938 2.519531 C 5.140625 3.011719 5.304688 3.4375 5.328125 3.464844 C 5.402344 3.777344 5.34375 3.574219 5.53125 4.085938 C 5.589844 4.242188 5.640625 4.273438 5.832031 4.273438 C 5.957031 4.273438 6.648438 4.472656 6.671875 4.394531 C 7.121094 3.71875 7.082031 3.824219 7.738281 2.382812 L 7.957031 1.941406 C 8.113281 1.628906 8.207031 1.53125 8.25 1.503906 C 8.296875 1.476562 8.453125 1.367188 8.554688 1.394531 C 8.820312 1.535156 8.722656 1.878906 8.703125 1.980469 C 8.46875 2.972656 8.433594 3.03125 8.199219 4.621094 L 8.214844 5.257812 L 8.179688 5.90625 C 7.847656 6.699219 7.546875 7.648438 6.820312 8.089844 C 6.675781 8.1875 6.414062 8.222656 6.25 8.265625 C 4.941406 8.699219 4.75 7.371094 4.710938 6.3125 C 4.714844 6.167969 5.179688 6.320312 5.28125 6.414062 C 5.339844 6.46875 5.28125 6.46875 5.308594 6.464844 C 5.347656 6.460938 5.320312 6.433594 5.304688 6.300781 C 5.253906 5.933594 5.230469 5.878906 5.125 5.808594 C 5.027344 5.742188 5.027344 5.757812 4.949219 5.738281 C 4.796875 5.675781 4.847656 5.722656 4.769531 5.648438 C 4.738281 5.410156 4.632812 5.148438 4.566406 4.933594 C 4.445312 4.027344 4.195312 3.398438 4.097656 2.542969 Z M 4.097656 2.542969 "/>
<path style=" stroke:none;fill-rule:nonzero;fill:rgb(56.862745%,47.843137%,47.843137%);fill-opacity:1;" d="M 5.410156 6.0625 L 5.371094 5.90625 L 5.335938 5.75 L 5.292969 5.6875 C 5.234375 5.609375 5.234375 5.609375 5.207031 5.632812 C 5.164062 5.671875 5.15625 5.675781 5.128906 5.675781 C 5.058594 5.679688 4.953125 5.601562 4.882812 5.5 L 4.839844 5.441406 L 4.75 5.441406 L 4.75 5.480469 C 4.738281 5.597656 4.710938 5.730469 4.71875 6.007812 C 4.722656 6.175781 4.722656 6.3125 4.722656 6.316406 C 4.730469 6.324219 4.933594 6.371094 5.027344 6.394531 C 5.128906 6.414062 5.152344 6.589844 5.203125 6.484375 C 5.21875 6.457031 5.242188 6.449219 5.257812 6.4375 C 5.496094 6.308594 5.421875 6.21875 5.410156 6.0625 Z M 5.410156 6.0625 "/>
<path style=" stroke:none;fill-rule:nonzero;fill:rgb(56.862745%,47.843137%,47.843137%);fill-opacity:1;" d="M 6.273438 6.652344 C 6.269531 6.488281 6.261719 6.355469 6.257812 6.351562 C 6.253906 6.351562 6.167969 6.335938 6.066406 6.320312 L 5.878906 6.292969 L 5.90625 6.59375 C 5.933594 6.921875 5.96875 6.972656 6.164062 6.957031 L 6.285156 6.945312 Z M 6.273438 6.652344 "/>
<path style=" stroke:none;fill-rule:nonzero;fill:rgb(56.862745%,47.843137%,47.843137%);fill-opacity:1;" d="M 6.945312 6.785156 C 7.046875 6.65625 7.132812 6.640625 7.1875 6.742188 C 7.222656 6.804688 7.257812 6.808594 7.433594 6.773438 L 7.636719 6.734375 L 7.648438 6.445312 C 7.65625 6.285156 7.648438 6.125 7.636719 6.089844 C 7.613281 6.03125 7.597656 6.035156 7.53125 6.113281 C 7.433594 6.238281 7.238281 6.3125 7.179688 6.253906 C 7.113281 6.1875 6.917969 6.203125 6.828125 6.285156 C 6.75 6.351562 6.523438 6.824219 6.523438 6.914062 C 6.523438 7 6.859375 6.894531 6.945312 6.785156 Z M 6.945312 6.785156 "/>
<path style=" stroke:none;fill-rule:nonzero;fill:rgb(56.862745%,47.843137%,47.843137%);fill-opacity:1;" d="M 6.410156 6.582031 C 6.410156 6.570312 6.4375 6.527344 6.484375 6.464844 C 6.554688 6.371094 6.5625 6.363281 6.660156 6.285156 L 6.765625 6.207031 L 6.84375 5.980469 L 6.886719 5.9375 C 6.949219 5.878906 6.949219 5.878906 6.976562 5.898438 C 7.210938 6.441406 7.175781 6.136719 6.898438 6.378906 C 6.8125 6.414062 6.699219 6.496094 6.628906 6.53125 C 6.550781 6.570312 6.464844 6.597656 6.429688 6.597656 C 6.414062 6.597656 6.410156 6.59375 6.410156 6.582031 Z M 6.410156 6.582031 "/>
<path style=" stroke:none;fill-rule:nonzero;fill:rgb(56.862745%,47.843137%,47.843137%);fill-opacity:1;" d="M 6.355469 6.589844 C 6.347656 6.585938 6.34375 6.574219 6.34375 6.5625 C 6.34375 6.488281 6.535156 6.078125 6.625 5.964844 C 6.667969 5.910156 6.757812 5.875 6.851562 5.871094 C 6.882812 5.871094 6.914062 5.875 6.921875 5.878906 C 6.9375 5.882812 6.9375 5.882812 6.886719 5.929688 L 6.835938 5.980469 L 6.800781 6.089844 L 6.761719 6.199219 L 6.65625 6.28125 C 6.558594 6.359375 6.546875 6.371094 6.476562 6.464844 C 6.429688 6.527344 6.402344 6.570312 6.402344 6.582031 C 6.402344 6.59375 6.402344 6.597656 6.386719 6.597656 C 6.375 6.597656 6.359375 6.59375 6.355469 6.589844 Z M 6.355469 6.589844 "/>
<path style=" stroke:none;fill-rule:nonzero;fill:rgb(56.862745%,47.843137%,47.843137%);fill-opacity:1;" d="M 6.3125 6.597656 L 6.382812 6.316406 L 6.5 6.125 L 6.660156 6.035156 L 6.847656 6 L 7.019531 6.019531 L 7.089844 6.074219 L 7.097656 6.277344 L 7.027344 6.433594 L 6.980469 6.519531 L 6.808594 6.621094 L 6.636719 6.65625 L 6.460938 6.644531 Z M 6.3125 6.597656 "/>
<path style=" stroke:none;fill-rule:nonzero;fill:rgb(56.862745%,47.843137%,47.843137%);fill-opacity:1;" d="M 6.332031 6.476562 C 6.332031 6.476562 6.46875 6.195312 6.6875 6.144531 C 6.871094 6.097656 7.101562 6.085938 7.101562 6.085938 L 7.039062 6.054688 L 6.84375 5.988281 L 6.566406 6.082031 L 6.449219 6.1875 L 6.378906 6.320312 Z M 6.332031 6.476562 "/>
<path style=" stroke:none;fill-rule:nonzero;fill:rgb(56.862745%,47.843137%,47.843137%);fill-opacity:1;" d="M 6.34375 6.460938 C 6.34375 6.460938 6.453125 6.183594 6.664062 6.101562 C 6.84375 6.03125 7.097656 6.066406 7.097656 6.066406 L 7.035156 6.042969 L 6.84375 5.988281 L 6.566406 6.082031 L 6.449219 6.183594 L 6.355469 6.382812 Z M 6.34375 6.460938 "/>
<path style=" stroke:none;fill-rule:evenodd;fill:rgb(56.862745%,47.843137%,47.843137%);fill-opacity:1;" d="M 6.617188 6.023438 C 6.890625 5.902344 7.132812 6.023438 7.132812 6.023438 L 7.105469 6.050781 C 7.171875 6.226562 7.109375 6.429688 6.957031 6.550781 C 6.804688 6.671875 6.53125 6.722656 6.3125 6.601562 L 6.300781 6.597656 C 6.320312 6.386719 6.378906 6.128906 6.617188 6.023438 Z M 6.640625 6.070312 C 6.515625 6.117188 6.433594 6.246094 6.382812 6.367188 C 6.335938 6.476562 6.320312 6.574219 6.316406 6.585938 C 6.566406 6.691406 6.777344 6.648438 6.917969 6.535156 C 7.054688 6.425781 7.121094 6.246094 7.0625 6.078125 C 7.054688 6.074219 6.898438 5.980469 6.640625 6.070312 Z M 6.640625 6.070312 "/>
<path style=" stroke:none;fill-rule:evenodd;fill:rgb(56.862745%,47.843137%,47.843137%);fill-opacity:1;" d="M 6.9375 6.289062 C 6.902344 6.183594 6.777344 6.132812 6.652344 6.175781 C 6.527344 6.214844 6.457031 6.332031 6.488281 6.4375 C 6.523438 6.542969 6.652344 6.59375 6.777344 6.550781 C 6.902344 6.511719 6.972656 6.394531 6.9375 6.289062 Z M 6.9375 6.289062 "/>
<path style=" stroke:none;fill-rule:evenodd;fill:rgb(56.862745%,47.843137%,47.843137%);fill-opacity:1;" d="M 6.792969 6.339844 C 6.78125 6.296875 6.726562 6.277344 6.675781 6.292969 C 6.625 6.308594 6.59375 6.359375 6.609375 6.398438 C 6.621094 6.441406 6.675781 6.460938 6.726562 6.445312 C 6.777344 6.425781 6.808594 6.378906 6.792969 6.339844 Z M 6.792969 6.339844 "/>
<path style=" stroke:none;fill-rule:evenodd;fill:rgb(56.862745%,47.843137%,47.843137%);fill-opacity:1;" d="M 6.707031 6.335938 C 6.703125 6.316406 6.679688 6.308594 6.65625 6.316406 C 6.636719 6.324219 6.621094 6.34375 6.628906 6.359375 C 6.632812 6.378906 6.65625 6.386719 6.679688 6.378906 C 6.699219 6.375 6.714844 6.351562 6.707031 6.335938 Z M 6.707031 6.335938 "/>
<path style=" stroke:none;fill-rule:nonzero;fill:rgb(56.862745%,47.843137%,47.843137%);fill-opacity:1;" d="M 5.441406 6.472656 L 5.472656 6.261719 L 5.441406 6.101562 L 5.34375 5.996094 L 5.207031 5.917969 L 5.0625 5.882812 L 4.992188 5.898438 L 4.921875 6.035156 L 4.929688 6.160156 L 4.941406 6.230469 L 5.042969 6.347656 L 5.167969 6.417969 L 5.308594 6.460938 Z M 5.441406 6.472656 "/>
<path style=" stroke:none;fill-rule:nonzero;fill:rgb(56.862745%,47.843137%,47.843137%);fill-opacity:1;" d="M 5.464844 6.382812 C 5.464844 6.382812 5.441406 6.15625 5.289062 6.058594 C 5.15625 5.976562 4.980469 5.902344 4.980469 5.902344 L 5.039062 5.898438 L 5.214844 5.914062 L 5.402344 6.050781 L 5.460938 6.15625 L 5.476562 6.265625 Z M 5.464844 6.382812 "/>
<path style=" stroke:none;fill-rule:nonzero;fill:rgb(56.862745%,47.843137%,47.843137%);fill-opacity:1;" d="M 5.460938 6.371094 C 5.460938 6.371094 5.460938 6.152344 5.320312 6.035156 C 5.199219 5.941406 4.988281 5.894531 4.988281 5.894531 L 5.042969 5.894531 L 5.214844 5.914062 L 5.402344 6.050781 L 5.464844 6.152344 L 5.476562 6.3125 Z M 5.460938 6.371094 "/>
<path style=" stroke:none;fill-rule:evenodd;fill:rgb(56.862745%,47.843137%,47.843137%);fill-opacity:1;" d="M 5.378906 5.996094 C 5.203125 5.839844 4.972656 5.851562 4.972656 5.851562 L 4.988281 5.878906 C 4.882812 5.980469 4.867188 6.136719 4.949219 6.261719 C 5.03125 6.386719 5.226562 6.496094 5.4375 6.476562 L 5.453125 6.472656 C 5.5 6.328125 5.535156 6.136719 5.378906 5.996094 Z M 5.347656 6.023438 C 5.429688 6.089844 5.457031 6.199219 5.457031 6.296875 C 5.457031 6.382812 5.441406 6.453125 5.441406 6.460938 C 5.210938 6.464844 5.058594 6.375 4.984375 6.261719 C 4.910156 6.148438 4.914062 6.007812 5.011719 5.910156 C 5.019531 5.910156 5.171875 5.890625 5.347656 6.023438 Z M 5.347656 6.023438 "/>
<path style=" stroke:none;fill-rule:evenodd;fill:rgb(56.862745%,47.843137%,47.843137%);fill-opacity:1;" d="M 5.03125 6.136719 C 5.046875 6.066406 5.121094 6.027344 5.199219 6.050781 C 5.273438 6.070312 5.324219 6.148438 5.308594 6.21875 C 5.292969 6.289062 5.214844 6.328125 5.140625 6.308594 C 5.0625 6.285156 5.011719 6.210938 5.03125 6.136719 Z M 5.03125 6.136719 "/>
<path style=" stroke:none;fill-rule:evenodd;fill:rgb(56.862745%,47.843137%,47.843137%);fill-opacity:1;" d="M 5.101562 6.164062 C 5.109375 6.136719 5.144531 6.121094 5.179688 6.128906 C 5.210938 6.140625 5.234375 6.171875 5.226562 6.199219 C 5.222656 6.226562 5.1875 6.242188 5.152344 6.234375 C 5.117188 6.222656 5.09375 6.195312 5.101562 6.164062 Z M 5.101562 6.164062 "/>
<path style=" stroke:none;fill-rule:evenodd;fill:rgb(56.862745%,47.843137%,47.843137%);fill-opacity:1;" d="M 5.15625 6.167969 C 5.160156 6.15625 5.175781 6.148438 5.191406 6.152344 C 5.203125 6.15625 5.214844 6.167969 5.210938 6.179688 C 5.207031 6.191406 5.195312 6.199219 5.179688 6.195312 C 5.164062 6.191406 5.15625 6.179688 5.15625 6.167969 Z M 5.15625 6.167969 "/>
<path style=" stroke:none;fill-rule:nonzero;fill:rgb(81.960784%,89.019608%,95.294118%);fill-opacity:1;" d="M 6.304688 6.65625 L 6.375 6.375 L 6.492188 6.183594 L 6.652344 6.09375 L 6.839844 6.058594 L 7.015625 6.082031 L 7.085938 6.132812 L 7.089844 6.335938 L 7.023438 6.492188 L 6.972656 6.578125 L 6.800781 6.679688 L 6.628906 6.714844 L 6.453125 6.703125 Z M 6.304688 6.65625 "/>
<path style=" stroke:none;fill-rule:evenodd;fill:rgb(0%,0%,0%);fill-opacity:1;" d="M 6.613281 6.082031 C 6.886719 5.964844 7.128906 6.082031 7.128906 6.082031 L 7.097656 6.109375 C 7.164062 6.285156 7.101562 6.488281 6.949219 6.609375 C 6.796875 6.730469 6.527344 6.78125 6.308594 6.660156 L 6.292969 6.65625 C 6.3125 6.445312 6.375 6.1875 6.613281 6.082031 Z M 6.636719 6.128906 C 6.511719 6.175781 6.425781 6.304688 6.378906 6.425781 C 6.332031 6.539062 6.316406 6.632812 6.3125 6.644531 C 6.558594 6.75 6.773438 6.707031 6.910156 6.59375 C 7.050781 6.484375 7.117188 6.304688 7.058594 6.136719 C 7.046875 6.132812 6.894531 6.039062 6.636719 6.128906 Z M 6.636719 6.128906 "/>
<path style=" stroke:none;fill-rule:nonzero;fill:rgb(81.960784%,89.019608%,95.294118%);fill-opacity:1;" d="M 5.4375 6.53125 L 5.46875 6.320312 L 5.4375 6.160156 L 5.335938 6.054688 L 5.199219 5.976562 L 5.058594 5.941406 L 4.984375 5.957031 L 4.917969 6.09375 L 4.921875 6.21875 L 4.933594 6.289062 L 5.035156 6.410156 L 5.164062 6.476562 L 5.304688 6.519531 Z M 5.4375 6.53125 "/>
<path style=" stroke:none;fill-rule:evenodd;fill:rgb(0%,0%,0%);fill-opacity:1;" d="M 5.375 6.054688 C 5.195312 5.898438 4.96875 5.910156 4.96875 5.910156 L 4.980469 5.9375 C 4.875 6.039062 4.859375 6.195312 4.941406 6.320312 C 5.023438 6.445312 5.222656 6.554688 5.433594 6.535156 L 5.445312 6.53125 C 5.496094 6.386719 5.527344 6.195312 5.375 6.054688 Z M 5.339844 6.082031 C 5.425781 6.148438 5.449219 6.257812 5.453125 6.355469 C 5.453125 6.441406 5.4375 6.511719 5.433594 6.519531 C 5.207031 6.523438 5.050781 6.433594 4.976562 6.320312 C 4.902344 6.207031 4.90625 6.066406 5.007812 5.96875 C 5.015625 5.96875 5.164062 5.949219 5.339844 6.082031 Z M 5.339844 6.082031 "/>
</g>
</svg>
