<?xml version="1.0" encoding="UTF-8"?>
<svg xmlns="http://www.w3.org/2000/svg" xmlns:xlink="http://www.w3.org/1999/xlink" width="16pt" height="16pt" viewBox="0 0 16 16" version="1.1">
<defs>
<clipPath id="clip1">
  <path d="M 0.585938 0.4375 L 10 0.4375 L 10 14 L 0.585938 14 Z M 0.585938 0.4375 "/>
</clipPath>
</defs>
<g id="surface1">
<path style="fill-rule:nonzero;fill:rgb(80%,80%,80%);fill-opacity:1;stroke-width:28.191782;stroke-linecap:butt;stroke-linejoin:miter;stroke:rgb(35.294118%,49.803922%,53.333333%);stroke-opacity:1;stroke-miterlimit:4;" d="M 294.64285 58.05862 L 643.64285 58.05862 C 674.76785 58.05862 700.01785 83.30862 700.01785 114.43362 L 700.01785 463.43362 C 700.01785 494.55862 674.76785 519.80862 643.64285 519.80862 L 294.64285 519.80862 C 263.51785 519.80862 238.26785 494.55862 238.26785 463.43362 L 238.26785 114.43362 C 238.26785 83.30862 263.51785 58.05862 294.64285 58.05862 Z M 294.64285 58.05862 " transform="matrix(0.03125,0,0,0.03125,-6.660714,-1.029176)"/>
<path style=" stroke:none;fill-rule:nonzero;fill:rgb(20%,20%,20%);fill-opacity:1;" d="M 14.132812 8 C 14.132812 11.304688 11.453125 13.984375 8.148438 13.984375 C 4.847656 13.984375 2.167969 11.304688 2.167969 8 C 2.167969 4.695312 4.847656 2.015625 8.148438 2.015625 C 11.453125 2.015625 14.132812 4.695312 14.132812 8 Z M 14.132812 8 "/>
<path style=" stroke:none;fill-rule:nonzero;fill:rgb(29.803922%,29.803922%,29.803922%);fill-opacity:1;" d="M 10.644531 8 C 10.644531 9.375 9.527344 10.492188 8.148438 10.492188 C 6.773438 10.492188 5.65625 9.375 5.65625 8 C 5.65625 6.625 6.773438 5.507812 8.148438 5.507812 C 9.527344 5.507812 10.644531 6.625 10.644531 8 Z M 10.644531 8 "/>
<path style=" stroke:none;fill-rule:nonzero;fill:rgb(9.803922%,72.941176%,61.176471%);fill-opacity:1;" d="M 9.976562 8 C 9.976562 9.007812 9.160156 9.828125 8.148438 9.828125 C 7.140625 9.828125 6.320312 9.007812 6.320312 8 C 6.320312 6.992188 7.140625 6.171875 8.148438 6.171875 C 9.160156 6.171875 9.976562 6.992188 9.976562 8 Z M 9.976562 8 "/>
<path style=" stroke:none;fill-rule:nonzero;fill:rgb(20%,20%,20%);fill-opacity:1;" d="M 8.316406 8 C 8.316406 8.089844 8.242188 8.167969 8.148438 8.167969 C 8.058594 8.167969 7.984375 8.089844 7.984375 8 C 7.984375 7.910156 8.058594 7.832031 8.148438 7.832031 C 8.242188 7.832031 8.316406 7.910156 8.316406 8 Z M 8.316406 8 "/>
<path style="fill:none;stroke-width:0.814285;stroke-linecap:butt;stroke-linejoin:miter;stroke:rgb(29.803922%,29.803922%,29.803922%);stroke-opacity:1;stroke-miterlimit:4;" d="M 82.092203 116.362195 C 82.092203 197.037363 16.633348 262.400518 -64.04182 262.400518 C -144.621288 262.400518 -210.080143 197.037363 -210.080143 116.362195 C -210.080143 35.687027 -144.621288 -29.676128 -64.04182 -29.676128 C 16.633348 -29.676128 82.092203 35.687027 82.092203 116.362195 Z M 82.092203 116.362195 " transform="matrix(0.0408176,0,0,0.0408176,10.762472,3.250372)"/>
<path style="fill:none;stroke-width:0.814286;stroke-linecap:butt;stroke-linejoin:miter;stroke:rgb(29.803922%,29.803922%,29.803922%);stroke-opacity:1;stroke-miterlimit:4;" d="M 73.957696 116.362195 C 73.957696 192.539459 12.135444 254.266011 -64.04182 254.266011 C -140.219084 254.266011 -201.945636 192.539459 -201.945636 116.362195 C -201.945636 40.184931 -140.219084 -21.541621 -64.04182 -21.541621 C 12.135444 -21.541621 73.957696 40.184931 73.957696 116.362195 Z M 73.957696 116.362195 " transform="matrix(0.0408176,0,0,0.0408176,10.762472,3.250372)"/>
<path style="fill:none;stroke-width:0.814286;stroke-linecap:butt;stroke-linejoin:miter;stroke:rgb(29.803922%,29.803922%,29.803922%);stroke-opacity:1;stroke-miterlimit:4;" d="M 69.842593 116.362195 C 69.842593 190.242657 9.934342 250.246608 -64.04182 250.246608 C -137.922282 250.246608 -197.830533 190.242657 -197.830533 116.362195 C -197.830533 42.481733 -137.922282 -17.522218 -64.04182 -17.522218 C 9.934342 -17.522218 69.842593 42.481733 69.842593 116.362195 Z M 69.842593 116.362195 " transform="matrix(0.0408176,0,0,0.0408176,10.762472,3.250372)"/>
<path style="fill:none;stroke-width:0.814286;stroke-linecap:butt;stroke-linejoin:miter;stroke:rgb(29.803922%,29.803922%,29.803922%);stroke-opacity:1;stroke-miterlimit:4;" d="M 65.823189 116.362195 C 65.823189 188.041555 7.63754 246.131504 -64.04182 246.131504 C -135.72118 246.131504 -193.811129 188.041555 -193.811129 116.362195 C -193.811129 44.682835 -135.72118 -13.407114 -64.04182 -13.407114 C 7.63754 -13.407114 65.823189 44.682835 65.823189 116.362195 Z M 65.823189 116.362195 " transform="matrix(0.0408176,0,0,0.0408176,10.762472,3.250372)"/>
<path style="fill:none;stroke-width:0.814286;stroke-linecap:butt;stroke-linejoin:miter;stroke:rgb(29.803922%,29.803922%,29.803922%);stroke-opacity:1;stroke-miterlimit:4;" d="M 61.708086 116.362195 C 61.708086 185.744753 5.436438 242.112101 -64.04182 242.112101 C -133.424379 242.112101 -189.696026 185.744753 -189.696026 116.362195 C -189.696026 46.979637 -133.424379 -9.387711 -64.04182 -9.387711 C 5.436438 -9.387711 61.708086 46.979637 61.708086 116.362195 Z M 61.708086 116.362195 " transform="matrix(0.0408176,0,0,0.0408176,10.762472,3.250372)"/>
<path style="fill:none;stroke-width:0.814286;stroke-linecap:butt;stroke-linejoin:miter;stroke:rgb(29.803922%,29.803922%,29.803922%);stroke-opacity:1;stroke-miterlimit:4;" d="M 57.592982 116.362195 C 57.592982 183.543651 3.139636 237.996997 -64.04182 237.996997 C -131.223277 237.996997 -185.676623 183.543651 -185.676623 116.362195 C -185.676623 49.180738 -131.223277 -5.272607 -64.04182 -5.272607 C 3.139636 -5.272607 57.592982 49.180738 57.592982 116.362195 Z M 57.592982 116.362195 " transform="matrix(0.0408176,0,0,0.0408176,10.762472,3.250372)"/>
<path style="fill:none;stroke-width:4.071427;stroke-linecap:butt;stroke-linejoin:miter;stroke:rgb(29.803922%,29.803922%,29.803922%);stroke-opacity:1;stroke-miterlimit:4;" d="M 53.573579 116.362195 C 53.573579 181.24685 0.938535 233.881894 -64.04182 233.881894 C -128.926475 233.881894 -181.561519 181.24685 -181.561519 116.362195 C -181.561519 51.47754 -128.926475 -1.157504 -64.04182 -1.157504 C 0.938535 -1.157504 53.573579 51.47754 53.573579 116.362195 Z M 53.573579 116.362195 " transform="matrix(0.0408176,0,0,0.0408176,10.762472,3.250372)"/>
<path style="fill:none;stroke-width:0.814286;stroke-linecap:butt;stroke-linejoin:miter;stroke:rgb(29.803922%,29.803922%,29.803922%);stroke-opacity:1;stroke-miterlimit:4;" d="M 49.458475 116.362195 C 49.458475 179.045748 -1.358267 229.86249 -64.04182 229.86249 C -126.725373 229.86249 -177.446416 179.045748 -177.446416 116.362195 C -177.446416 53.678642 -126.725373 2.861899 -64.04182 2.861899 C -1.358267 2.861899 49.458475 53.678642 49.458475 116.362195 Z M 49.458475 116.362195 " transform="matrix(0.0408176,0,0,0.0408176,10.762472,3.250372)"/>
<path style="fill:none;stroke-width:0.814286;stroke-linecap:butt;stroke-linejoin:miter;stroke:rgb(29.803922%,29.803922%,29.803922%);stroke-opacity:1;stroke-miterlimit:4;" d="M 45.439072 116.362195 C 45.439072 176.748946 -3.559369 225.747387 -64.04182 225.747387 C -124.428571 225.747387 -173.427012 176.748946 -173.427012 116.362195 C -173.427012 55.975444 -124.428571 6.977003 -64.04182 6.977003 C -3.559369 6.977003 45.439072 55.975444 45.439072 116.362195 Z M 45.439072 116.362195 " transform="matrix(0.0408176,0,0,0.0408176,10.762472,3.250372)"/>
<path style="fill:none;stroke-width:0.814286;stroke-linecap:butt;stroke-linejoin:miter;stroke:rgb(29.803922%,29.803922%,29.803922%);stroke-opacity:1;stroke-miterlimit:4;" d="M 41.323969 116.362195 C 41.323969 174.547844 -5.856171 221.727984 -64.04182 221.727984 C -122.227469 221.727984 -169.311909 174.547844 -169.311909 116.362195 C -169.311909 58.176546 -122.227469 10.996406 -64.04182 10.996406 C -5.856171 10.996406 41.323969 58.176546 41.323969 116.362195 Z M 41.323969 116.362195 " transform="matrix(0.0408176,0,0,0.0408176,10.762472,3.250372)"/>
<path style="fill:none;stroke-width:0.814286;stroke-linecap:butt;stroke-linejoin:miter;stroke:rgb(29.803922%,29.803922%,29.803922%);stroke-opacity:1;stroke-miterlimit:4;" d="M 37.304565 116.362195 C 37.304565 172.346742 -8.057273 217.61288 -64.04182 217.61288 C -119.930667 217.61288 -165.292505 172.346742 -165.292505 116.362195 C -165.292505 60.377648 -119.930667 15.11151 -64.04182 15.11151 C -8.057273 15.11151 37.304565 60.377648 37.304565 116.362195 Z M 37.304565 116.362195 " transform="matrix(0.0408176,0,0,0.0408176,10.762472,3.250372)"/>
<path style="fill:none;stroke-width:0.814286;stroke-linecap:butt;stroke-linejoin:miter;stroke:rgb(29.803922%,29.803922%,29.803922%);stroke-opacity:1;stroke-miterlimit:4;" d="M 33.189462 116.362195 C 33.189462 170.04994 -10.354075 213.593477 -64.04182 213.593477 C -117.729565 213.593477 -161.177402 170.04994 -161.177402 116.362195 C -161.177402 62.67445 -117.729565 19.130913 -64.04182 19.130913 C -10.354075 19.130913 33.189462 62.67445 33.189462 116.362195 Z M 33.189462 116.362195 " transform="matrix(0.0408176,0,0,0.0408176,10.762472,3.250372)"/>
<path style="fill:none;stroke-width:0.814285;stroke-linecap:butt;stroke-linejoin:miter;stroke:rgb(29.803922%,29.803922%,29.803922%);stroke-opacity:1;stroke-miterlimit:4;" d="M 29.170058 116.362195 C 29.170058 167.753138 -12.555177 209.478373 -64.04182 209.478373 C -115.432763 209.478373 -157.157999 167.753138 -157.157999 116.362195 C -157.157999 64.971252 -115.432763 23.246017 -64.04182 23.246017 C -12.555177 23.246017 29.170058 64.971252 29.170058 116.362195 Z M 29.170058 116.362195 " transform="matrix(0.0408176,0,0,0.0408176,10.762472,3.250372)"/>
<path style="fill:none;stroke-width:4.071428;stroke-linecap:butt;stroke-linejoin:miter;stroke:rgb(29.803922%,29.803922%,29.803922%);stroke-opacity:1;stroke-miterlimit:4;" d="M 25.054955 116.362195 C 25.054955 165.552036 -14.851979 205.45897 -64.04182 205.45897 C -113.231662 205.45897 -153.042895 165.552036 -153.042895 116.362195 C -153.042895 67.172354 -113.231662 27.26542 -64.04182 27.26542 C -14.851979 27.26542 25.054955 67.172354 25.054955 116.362195 Z M 25.054955 116.362195 " transform="matrix(0.0408176,0,0,0.0408176,10.762472,3.250372)"/>
<path style="fill:none;stroke-width:0.814286;stroke-linecap:butt;stroke-linejoin:miter;stroke:rgb(29.803922%,29.803922%,29.803922%);stroke-opacity:1;stroke-miterlimit:4;" d="M 21.035551 116.362195 C 21.035551 163.350934 -17.053081 201.343866 -64.04182 201.343866 C -110.93486 201.343866 -149.023492 163.350934 -149.023492 116.362195 C -149.023492 69.373455 -110.93486 31.380523 -64.04182 31.380523 C -17.053081 31.380523 21.035551 69.373455 21.035551 116.362195 Z M 21.035551 116.362195 " transform="matrix(0.0408176,0,0,0.0408176,10.762472,3.250372)"/>
<path style="fill:none;stroke-width:0.814286;stroke-linecap:butt;stroke-linejoin:miter;stroke:rgb(29.803922%,29.803922%,29.803922%);stroke-opacity:1;stroke-miterlimit:4;" d="M 16.920448 116.362195 C 16.920448 161.054133 -19.349883 197.324463 -64.04182 197.324463 C -108.733758 197.324463 -144.908388 161.054133 -144.908388 116.362195 C -144.908388 71.670257 -108.733758 35.399927 -64.04182 35.399927 C -19.349883 35.399927 16.920448 71.670257 16.920448 116.362195 Z M 16.920448 116.362195 " transform="matrix(0.0408176,0,0,0.0408176,10.762472,3.250372)"/>
<path style="fill:none;stroke-width:0.814286;stroke-linecap:butt;stroke-linejoin:miter;stroke:rgb(29.803922%,29.803922%,29.803922%);stroke-opacity:1;stroke-miterlimit:4;" d="M 12.901045 116.362195 C 12.901045 158.853031 -21.550984 193.20936 -64.04182 193.20936 C -106.436956 193.20936 -140.888985 158.853031 -140.888985 116.362195 C -140.888985 73.871359 -106.436956 39.51503 -64.04182 39.51503 C -21.550984 39.51503 12.901045 73.871359 12.901045 116.362195 Z M 12.901045 116.362195 " transform="matrix(0.0408176,0,0,0.0408176,10.762472,3.250372)"/>
<path style="fill:none;stroke-width:0.814286;stroke-linecap:butt;stroke-linejoin:miter;stroke:rgb(29.803922%,29.803922%,29.803922%);stroke-opacity:1;stroke-miterlimit:4;" d="M 8.785941 116.362195 C 8.785941 156.556229 -23.847786 189.189956 -64.04182 189.189956 C -104.235854 189.189956 -136.773881 156.556229 -136.773881 116.362195 C -136.773881 76.168161 -104.235854 43.534434 -64.04182 43.534434 C -23.847786 43.534434 8.785941 76.168161 8.785941 116.362195 Z M 8.785941 116.362195 " transform="matrix(0.0408176,0,0,0.0408176,10.762472,3.250372)"/>
<path style="fill:none;stroke-width:0.814286;stroke-linecap:butt;stroke-linejoin:miter;stroke:rgb(29.803922%,29.803922%,29.803922%);stroke-opacity:1;stroke-miterlimit:4;" d="M 4.670838 116.362195 C 4.670838 154.355127 -26.048888 185.074853 -64.04182 185.074853 C -101.939052 185.074853 -132.754478 154.355127 -132.754478 116.362195 C -132.754478 78.369263 -101.939052 47.649537 -64.04182 47.649537 C -26.048888 47.649537 4.670838 78.369263 4.670838 116.362195 Z M 4.670838 116.362195 " transform="matrix(0.0408176,0,0,0.0408176,10.762472,3.250372)"/>
<path style="fill:none;stroke-width:0.814286;stroke-linecap:butt;stroke-linejoin:miter;stroke:rgb(29.803922%,29.803922%,29.803922%);stroke-opacity:1;stroke-miterlimit:4;" d="M 0.651434 116.362195 C 0.651434 152.058325 -28.34569 180.959749 -64.04182 180.959749 C -99.73795 180.959749 -128.639375 152.058325 -128.639375 116.362195 C -128.639375 80.666065 -99.73795 51.764641 -64.04182 51.764641 C -28.34569 51.764641 0.651434 80.666065 0.651434 116.362195 Z M 0.651434 116.362195 " transform="matrix(0.0408176,0,0,0.0408176,10.762472,3.250372)"/>
<path style="fill:none;stroke-width:4.071428;stroke-linecap:butt;stroke-linejoin:miter;stroke:rgb(29.803922%,29.803922%,29.803922%);stroke-opacity:1;stroke-miterlimit:4;" d="M 80.561002 116.362195 C 80.561002 196.176062 15.867747 260.869317 -64.04182 260.869317 C -143.855687 260.869317 -208.548942 196.176062 -208.548942 116.362195 C -208.548942 36.548328 -143.855687 -28.144927 -64.04182 -28.144927 C 15.867747 -28.144927 80.561002 36.548328 80.561002 116.362195 Z M 80.561002 116.362195 " transform="matrix(0.0408176,0,0,0.0408176,10.762472,3.250372)"/>
<path style=" stroke:none;fill-rule:nonzero;fill:rgb(29.019608%,68.235294%,90.196078%);fill-opacity:0.980392;" d="M 3.710938 3.0625 C 3.710938 3.570312 3.296875 3.980469 2.789062 3.980469 C 2.28125 3.980469 1.867188 3.570312 1.867188 3.0625 C 1.867188 2.550781 2.28125 2.140625 2.789062 2.140625 C 3.296875 2.140625 3.710938 2.550781 3.710938 3.0625 Z M 3.710938 3.0625 "/>
<path style=" stroke:none;fill-rule:nonzero;fill:rgb(0%,0%,0%);fill-opacity:0.301961;" d="M 1.871094 2.96875 C 1.867188 3 1.867188 3.03125 1.867188 3.0625 C 1.867188 3.570312 2.28125 3.980469 2.789062 3.980469 C 3.296875 3.980469 3.710938 3.570312 3.710938 3.0625 C 3.707031 3.03125 3.707031 3.003906 3.703125 2.976562 C 3.65625 3.445312 3.261719 3.804688 2.789062 3.804688 C 2.3125 3.804688 1.914062 3.441406 1.871094 2.96875 Z M 1.871094 2.96875 "/>
<g clip-path="url(#clip1)" clip-rule="nonzero">
<path style="fill:none;stroke-width:15;stroke-linecap:round;stroke-linejoin:miter;stroke:rgb(0%,0%,0%);stroke-opacity:1;stroke-miterlimit:4;" d="M 722.070064 354.237887 L 754.85993 534.714368 C 754.85993 534.714368 760.54527 570.148579 783.947715 582.973647 C 807.35016 595.666499 842.652153 610.73926 842.652153 610.73926 " transform="matrix(0.0295442,0,0,0.0295442,-18.321256,-7.106296)"/>
</g>
<path style=" stroke:none;fill-rule:nonzero;fill:rgb(0%,0%,0%);fill-opacity:0.996078;" d="M 4.878906 10.628906 L 5.265625 9.824219 L 6.4375 10.386719 L 6.050781 11.191406 Z M 4.878906 10.628906 "/>
<path style=" stroke:none;fill-rule:nonzero;fill:rgb(0%,0%,0%);fill-opacity:0.996078;" d="M 2.3125 2.894531 L 2.605469 4.394531 L 3.125 5.421875 L 3.53125 5.347656 L 3.636719 4.175781 L 3.34375 2.675781 C 2.992188 2.582031 2.484375 2.738281 2.3125 2.894531 Z M 2.3125 2.894531 "/>
<path style="fill:none;stroke-width:10.857144;stroke-linecap:round;stroke-linejoin:miter;stroke:rgb(29.019608%,68.235294%,90.196078%);stroke-opacity:1;stroke-miterlimit:4;" d="M -194.38533 -1.731704 L -170.74741 128.994606 C -170.74741 128.994606 -166.632307 154.642227 -149.597692 163.829435 C -132.658778 173.112343 -107.106856 184.022152 -107.106856 184.022152 " transform="matrix(0.0408176,0,0,0.0408176,10.762472,3.250372)"/>
<path style=" stroke:none;fill-rule:nonzero;fill:rgb(0%,0%,0%);fill-opacity:1;" d="M 4.753906 10.570312 L 5.140625 9.765625 L 6.308594 10.328125 L 5.925781 11.132812 Z M 4.753906 10.570312 "/>
<path style=" stroke:none;fill-rule:nonzero;fill:rgb(16.862745%,60%,84.313725%);fill-opacity:0.996078;" d="M 4.695312 10.453125 L 5.082031 9.648438 L 6.25 10.210938 L 5.867188 11.011719 Z M 4.695312 10.453125 "/>
<path style=" stroke:none;fill-rule:nonzero;fill:rgb(0%,0%,0%);fill-opacity:0.996078;" d="M 2.230469 2.949219 L 2.523438 4.445312 L 3.042969 5.472656 L 3.449219 5.398438 L 3.554688 4.226562 L 3.261719 2.730469 C 2.910156 2.632812 2.402344 2.789062 2.230469 2.949219 Z M 2.230469 2.949219 "/>
<path style=" stroke:none;fill-rule:nonzero;fill:rgb(16.862745%,60%,84.313725%);fill-opacity:0.996078;" d="M 2.183594 2.734375 L 2.476562 4.230469 L 3 5.257812 L 3.402344 5.1875 L 3.511719 4.011719 L 3.214844 2.515625 C 2.863281 2.421875 2.359375 2.578125 2.183594 2.734375 Z M 2.183594 2.734375 "/>
</g>
</svg>
