
<svg xmlns="http://www.w3.org/2000/svg" xmlns:xlink="http://www.w3.org/1999/xlink" width="16px" height="16px" viewBox="0 0 16 16" version="1.1">
<defs>
<filter id="alpha" filterUnits="objectBoundingBox" x="0%" y="0%" width="100%" height="100%">
  <feColorMatrix type="matrix" in="SourceGraphic" values="0 0 0 0 1 0 0 0 0 1 0 0 0 0 1 0 0 0 1 0"/>
</filter>
<mask id="mask0">
  <g filter="url(#alpha)">
<rect x="0" y="0" width="16" height="16" style="fill:rgb(0%,0%,0%);fill-opacity:0.2;stroke:none;"/>
  </g>
</mask>
<clipPath id="clip1">
  <rect x="0" y="0" width="16" height="16"/>
</clipPath>
<g id="surface5" clip-path="url(#clip1)">
<path style=" stroke:none;fill-rule:nonzero;fill:rgb(0%,0%,0%);fill-opacity:1;" d="M 8.097656 4.132812 C 4.863281 4.132812 2.238281 6.003906 2.238281 8.316406 C 2.238281 10.625 4.863281 12.5 8.097656 12.5 C 11.332031 12.5 13.957031 10.625 13.957031 8.316406 C 13.957031 6.003906 11.332031 4.132812 8.097656 4.132812 Z M 8.933594 4.96875 C 11.246094 4.96875 13.117188 6.46875 13.117188 8.316406 C 13.117188 10.164062 11.246094 11.664062 8.933594 11.664062 C 6.625 11.664062 4.75 10.164062 4.75 8.316406 C 4.75 6.46875 6.625 4.96875 8.933594 4.96875 Z M 8.933594 4.96875 "/>
</g>
</defs>
<g id="surface1">
<path style="fill-rule:nonzero;fill:rgb(100%,100%,100%);fill-opacity:1;stroke-width:27.910587;stroke-linecap:butt;stroke-linejoin:miter;stroke:rgb(0%,67.058824%,93.333333%);stroke-opacity:1;stroke-miterlimit:4;" d="M 83.25 27.375 L 428.75 27.375 C 459.625 27.375 484.625 52.375 484.625 83.25 L 484.625 428.75 C 484.625 459.625 459.625 484.625 428.75 484.625 L 83.25 484.625 C 52.375 484.625 27.375 459.625 27.375 428.75 L 27.375 83.25 C 27.375 52.375 52.375 27.375 83.25 27.375 Z M 83.25 27.375 " transform="matrix(0.03125,0,0,0.03125,0,0)"/>
<use xlink:href="#surface5" mask="url(#mask0)"/>
<path style=" stroke:none;fill-rule:evenodd;fill:rgb(11.764706%,38.431373%,69.803922%);fill-opacity:1;" d="M 11.613281 9.820312 C 11.613281 9.820312 11.796875 9.769531 11.980469 9.863281 C 12.046875 9.894531 12.15625 9.960938 12.238281 10.046875 C 12.316406 10.132812 12.351562 10.214844 12.351562 10.214844 L 13.117188 12.476562 L 11.027344 12.476562 C 11.027344 12.476562 10.550781 10.914062 10.050781 10.246094 C 9.953125 10.164062 9.867188 9.953125 9.769531 9.964844 L 8.933594 9.964844 L 8.933594 12.472656 L 7.261719 12.472656 L 7.261719 5.78125 L 10.882812 5.78125 C 11.277344 5.78125 12.640625 6.199219 12.699219 7.875 C 12.640625 9.546875 11.613281 9.84375 11.613281 9.84375 Z M 8.933594 7.429688 L 8.933594 8.6875 L 10.609375 8.6875 C 10.609375 8.6875 11.039062 8.648438 11.027344 8.015625 C 11.015625 7.417969 10.609375 7.429688 10.609375 7.429688 Z M 8.933594 7.429688 "/>
</g>
</svg>
