
<svg xmlns="http://www.w3.org/2000/svg" xmlns:xlink="http://www.w3.org/1999/xlink" width="16px" height="16px" viewBox="0 0 16 16" version="1.1">
<g id="surface1">
<path style="fill-rule:nonzero;fill:rgb(18.823529%,20.784314%,27.058824%);fill-opacity:1;stroke-width:27.936749;stroke-linecap:butt;stroke-linejoin:miter;stroke:rgb(18.823529%,20.784314%,27.058824%);stroke-opacity:1;stroke-miterlimit:4;" d="M 83 27.125 L 429 27.125 C 459.75 27.125 484.875 52.25 484.875 83 L 484.875 429 C 484.875 459.75 459.75 484.875 429 484.875 L 83 484.875 C 52.25 484.875 27.125 459.75 27.125 429 L 27.125 83 C 27.125 52.25 52.25 27.125 83 27.125 Z M 83 27.125 " transform="matrix(0.03125,0,0,0.03125,0,0)"/>
<path style=" stroke:none;fill-rule:nonzero;fill:rgb(18.823529%,20.784314%,27.058824%);fill-opacity:1;" d="M 2.171875 1.222656 L 13.476562 1.222656 C 14.101562 1.222656 14.605469 1.726562 14.605469 2.351562 L 14.605469 13.65625 C 14.605469 14.28125 14.101562 14.785156 13.476562 14.785156 L 2.171875 14.785156 C 1.550781 14.785156 1.042969 14.28125 1.042969 13.65625 L 1.042969 2.351562 C 1.042969 1.726562 1.550781 1.222656 2.171875 1.222656 Z M 2.171875 1.222656 "/>
<path style=" stroke:none;fill-rule:nonzero;fill:rgb(90.196078%,49.019608%,12.941176%);fill-opacity:1;" d="M 14.484375 2.242188 C 14.5 2.273438 14.515625 2.308594 14.527344 2.34375 C 14.515625 2.308594 14.5 2.273438 14.484375 2.242188 Z M 14.59375 4.890625 L 1.03125 8.523438 L 1.03125 10.996094 L 14.59375 7.363281 Z M 14.59375 4.890625 "/>
<path style=" stroke:none;fill-rule:nonzero;fill:rgb(95.294118%,61.176471%,6.666667%);fill-opacity:1;" d="M 12.324219 1.222656 L 7.257812 6.289062 L 9.925781 7 L 14.605469 2.320312 C 14.589844 1.707031 14.09375 1.222656 13.476562 1.222656 Z M 12.324219 1.222656 "/>
<path style=" stroke:none;fill-rule:nonzero;fill:rgb(74.901961%,21.960784%,15.686275%);fill-opacity:1;" d="M 6.628906 8.574219 L 6.628906 14.785156 L 9.019531 14.785156 L 9.019531 8.574219 Z M 6.628906 8.574219 "/>
<path style=" stroke:none;fill-rule:nonzero;fill:rgb(94.117647%,76.078431%,4.705882%);fill-opacity:1;" d="M 8.746094 1.214844 L 6.855469 8.273438 C 7.308594 8.15625 7.78125 8.089844 8.269531 8.089844 C 8.640625 8.089844 9 8.128906 9.351562 8.195312 L 11.222656 1.214844 Z M 14.929688 1.542969 C 14.945312 1.558594 14.957031 1.570312 14.96875 1.582031 C 14.957031 1.570312 14.945312 1.558594 14.929688 1.542969 Z M 14.929688 1.542969 "/>
<path style=" stroke:none;fill-rule:nonzero;fill:rgb(90.196078%,49.019608%,12.941176%);fill-opacity:1;" d="M 4.640625 1.226562 L 6.511719 8.207031 C 6.859375 8.140625 7.222656 8.101562 7.589844 8.101562 C 8.082031 8.101562 8.550781 8.167969 9.003906 8.28125 L 7.113281 1.226562 Z M 14.253906 1.554688 C 14.265625 1.566406 14.277344 1.582031 14.289062 1.59375 C 14.277344 1.582031 14.265625 1.566406 14.253906 1.554688 Z M 14.289062 14.417969 C 14.277344 14.433594 14.265625 14.445312 14.253906 14.457031 C 14.265625 14.445312 14.277344 14.433594 14.289062 14.417969 Z M 14.289062 14.417969 "/>
<path style=" stroke:none;fill-rule:nonzero;fill:rgb(95.294118%,61.176471%,6.666667%);fill-opacity:1;" d="M 2.171875 1.222656 C 1.546875 1.222656 1.042969 1.726562 1.042969 2.351562 L 1.042969 2.738281 L 6.511719 8.207031 C 6.867188 8.136719 7.238281 8.097656 7.613281 8.097656 C 8.734375 8.097656 9.777344 8.421875 10.65625 8.972656 L 2.90625 1.222656 Z M 14.277344 1.550781 C 14.289062 1.566406 14.300781 1.578125 14.3125 1.589844 C 14.300781 1.578125 14.289062 1.566406 14.277344 1.550781 Z M 14.3125 14.417969 C 14.300781 14.429688 14.289062 14.441406 14.277344 14.457031 C 14.289062 14.441406 14.300781 14.429688 14.3125 14.417969 Z M 14.3125 14.417969 "/>
<path style=" stroke:none;fill-rule:nonzero;fill:rgb(90.196078%,49.019608%,12.941176%);fill-opacity:1;" d="M 2.171875 1.863281 C 2.136719 1.863281 2.097656 1.867188 2.0625 1.871094 C 2.097656 1.867188 2.136719 1.863281 2.171875 1.863281 Z M 13.476562 1.863281 C 13.515625 1.863281 13.554688 1.867188 13.59375 1.871094 C 13.554688 1.867188 13.515625 1.863281 13.476562 1.863281 Z M 1.042969 5.265625 L 1.042969 7.738281 L 14.605469 11.375 L 14.605469 8.898438 Z M 1.042969 5.265625 "/>
</g>
</svg>
