
<svg xmlns="http://www.w3.org/2000/svg" xmlns:xlink="http://www.w3.org/1999/xlink" width="16px" height="16px" viewBox="0 0 16 16" version="1.1">
<g id="surface1">
<path style="fill-rule:nonzero;fill:rgb(92.156863%,92.156863%,92.156863%);fill-opacity:1;stroke-width:28.520006;stroke-linecap:butt;stroke-linejoin:miter;stroke:rgb(92.156863%,92.156863%,92.156863%);stroke-opacity:1;stroke-miterlimit:4;" d="M 79.5 22.375 L 432.5 22.375 C 464 22.375 489.625 48 489.625 79.5 L 489.625 432.5 C 489.625 464 464 489.625 432.5 489.625 L 79.5 489.625 C 48 489.625 22.375 464 22.375 432.5 L 22.375 79.5 C 22.375 48 48 22.375 79.5 22.375 Z M 79.5 22.375 " transform="matrix(0.03125,0,0,0.03125,0,0)"/>
<path style=" stroke:none;fill-rule:nonzero;fill:rgb(25.490196%,25.490196%,25.490196%);fill-opacity:1;" d="M 2.925781 1.285156 C 2.019531 1.285156 1.285156 2.019531 1.285156 2.925781 L 1.285156 5.515625 L 4.082031 5.039062 L 3.554688 1.285156 Z M 4.808594 1.285156 L 5.304688 4.832031 L 8.941406 4.214844 L 10.570312 1.285156 Z M 11.992188 1.285156 L 10.078125 4.722656 L 11.996094 8.046875 L 14.714844 6.859375 L 14.714844 2.925781 C 14.714844 2.019531 13.980469 1.285156 13.074219 1.285156 Z M 9.066406 5.449219 L 5.203125 6.109375 L 4.703125 9.777344 L 8.28125 11.695312 L 11 8.796875 Z M 4.039062 6.304688 L 1.285156 6.773438 L 1.285156 12.8125 L 3.515625 10.148438 Z M 14.714844 8.210938 L 12.628906 9.121094 L 14.714844 12.734375 Z M 11.589844 9.816406 L 9.011719 12.558594 L 8.902344 14.714844 L 13.074219 14.714844 C 13.496094 14.714844 13.882812 14.554688 14.171875 14.292969 Z M 4.476562 10.933594 L 1.734375 14.203125 C 2.035156 14.519531 2.457031 14.714844 2.925781 14.714844 L 7.660156 14.714844 L 7.765625 12.695312 Z M 4.476562 10.933594 "/>
<path style="fill:none;stroke-width:12;stroke-linecap:butt;stroke-linejoin:miter;stroke:rgb(93.333333%,0%,0%);stroke-opacity:1;stroke-miterlimit:4;" d="M 11.371244 69.994588 L 30.625873 50.73996 C 36.097881 45.267952 46.084295 44.994352 51.829904 50.77416 L 61.713718 60.623774 " transform="matrix(0.114218,0,0,0.114218,0.775422,1.411631)"/>
<path style="fill:none;stroke-width:12;stroke-linecap:butt;stroke-linejoin:miter;stroke:rgb(93.333333%,0%,0%);stroke-opacity:1;stroke-miterlimit:4;" d="M 111.303791 50.53476 L 92.049163 69.789388 C 86.577155 75.261396 76.59074 75.534996 70.845132 69.789388 L 60.961317 59.905573 " transform="matrix(0.114218,0,0,0.114218,0.775422,1.411631)"/>
<path style="fill-rule:nonzero;fill:rgb(100%,0%,0%);fill-opacity:1;stroke-width:14;stroke-linecap:round;stroke-linejoin:round;stroke:rgb(93.333333%,0%,0%);stroke-opacity:1;stroke-miterlimit:4;" d="M 102.505691 45.038978 C 102.505691 39.05437 99.851313 34.212278 96.575698 34.212278 C 93.300082 34.212278 90.645704 39.05437 90.645704 45.038978 C 90.673942 50.996384 93.32832 55.838476 96.603936 55.838476 C 99.851313 55.865679 102.505691 51.023587 102.505691 45.038978 Z M 102.505691 45.038978 " transform="matrix(0.0691664,0.0691664,-0.0717988,0.0717988,9.444575,-2.163536)"/>
</g>
</svg>
