
<svg xmlns="http://www.w3.org/2000/svg" xmlns:xlink="http://www.w3.org/1999/xlink" width="16px" height="16px" viewBox="0 0 16 16" version="1.1">
<g id="surface1">
<path style="fill-rule:nonzero;fill:rgb(9.019608%,36.078431%,60%);fill-opacity:1;stroke-width:27.910587;stroke-linecap:butt;stroke-linejoin:miter;stroke:rgb(9.019608%,36.078431%,60%);stroke-opacity:1;stroke-miterlimit:4;" d="M 83.25 27.375 L 428.75 27.375 C 459.625 27.375 484.625 52.375 484.625 83.25 L 484.625 428.75 C 484.625 459.625 459.625 484.625 428.75 484.625 L 83.25 484.625 C 52.375 484.625 27.375 459.625 27.375 428.75 L 27.375 83.25 C 27.375 52.375 52.375 27.375 83.25 27.375 Z M 83.25 27.375 " transform="matrix(0.03125,0,0,0.03125,0,0)"/>
<path style=" stroke:none;fill-rule:nonzero;fill:rgb(100%,100%,100%);fill-opacity:1;" d="M 4.976562 1.964844 L 10.886719 1.964844 C 11.726562 1.964844 12.40625 2.519531 12.40625 3.199219 L 12.40625 12.460938 C 12.40625 13.144531 11.726562 13.695312 10.886719 13.695312 L 4.976562 13.695312 C 4.136719 13.695312 3.457031 13.144531 3.457031 12.460938 L 3.457031 3.199219 C 3.457031 2.519531 4.136719 1.964844 4.976562 1.964844 Z M 4.976562 1.964844 "/>
<path style=" stroke:none;fill-rule:nonzero;fill:rgb(13.72549%,54.117647%,81.176471%);fill-opacity:1;" d="M 3.011719 1.398438 C 2.121094 1.398438 1.398438 2.121094 1.398438 3.011719 L 1.398438 12.988281 C 1.398438 13.878906 2.121094 14.601562 3.011719 14.601562 L 12.988281 14.601562 C 13.878906 14.601562 14.601562 13.878906 14.601562 12.988281 L 14.601562 3.011719 C 14.601562 2.121094 13.878906 1.398438 12.988281 1.398438 Z M 7.949219 3.417969 C 8.6875 3.417969 9.28125 3.613281 9.726562 4.003906 C 10.175781 4.394531 10.402344 4.90625 10.402344 5.546875 C 10.402344 5.851562 10.328125 6.144531 10.183594 6.421875 C 10.039062 6.695312 9.789062 7.003906 9.425781 7.347656 L 8.894531 7.867188 C 8.707031 8.054688 8.570312 8.203125 8.492188 8.3125 C 8.414062 8.417969 8.359375 8.519531 8.328125 8.621094 C 8.304688 8.707031 8.285156 8.808594 8.273438 8.929688 C 8.261719 9.050781 8.257812 9.214844 8.257812 9.421875 L 8.257812 10.164062 L 7.105469 10.164062 L 7.105469 9.234375 C 7.105469 8.828125 7.160156 8.496094 7.273438 8.234375 C 7.386719 7.972656 7.625 7.671875 7.984375 7.324219 L 8.527344 6.789062 C 8.757812 6.574219 8.921875 6.375 9.023438 6.183594 C 9.125 5.996094 9.179688 5.804688 9.179688 5.605469 C 9.179688 5.25 9.046875 4.960938 8.78125 4.738281 C 8.519531 4.515625 8.171875 4.40625 7.738281 4.40625 C 7.421875 4.40625 7.082031 4.476562 6.71875 4.617188 C 6.359375 4.757812 5.988281 4.964844 5.597656 5.234375 L 5.597656 4.097656 C 5.976562 3.871094 6.355469 3.699219 6.742188 3.585938 C 7.132812 3.476562 7.535156 3.417969 7.949219 3.417969 Z M 7.070312 11.050781 L 8.292969 11.050781 L 8.292969 12.582031 L 7.070312 12.582031 Z M 7.070312 11.050781 "/>
</g>
</svg>
