
<svg xmlns="http://www.w3.org/2000/svg" xmlns:xlink="http://www.w3.org/1999/xlink" width="16px" height="16px" viewBox="0 0 16 16" version="1.1">
<g id="surface1">
<path style="fill-rule:nonzero;fill:rgb(100%,100%,100%);fill-opacity:1;stroke-width:26.827002;stroke-linecap:butt;stroke-linejoin:miter;stroke:rgb(9.803922%,72.941176%,61.176471%);stroke-opacity:1;stroke-miterlimit:4;" d="M 90.5 32.125 L 422.625 32.125 C 452.25 32.125 476.25 56.125 476.25 85.75 L 476.25 417.875 C 476.25 447.5 452.25 471.625 422.625 471.625 L 90.5 471.625 C 60.875 471.625 36.75 447.5 36.75 417.875 L 36.75 85.75 C 36.75 56.125 60.875 32.125 90.5 32.125 Z M 90.5 32.125 " transform="matrix(0.03125,0,0,0.03125,0,0)"/>
<path style="fill:none;stroke-width:88.656181;stroke-linecap:butt;stroke-linejoin:miter;stroke:rgb(9.803922%,72.941176%,61.176471%);stroke-opacity:1;stroke-miterlimit:4;" d="M 1326.486365 266.551063 L 938.961118 266.395452 L 551.061101 266.241866 L 938.706704 -405.212203 L 1132.78392 -69.331582 Z M 1326.486365 266.551063 " transform="matrix(-0.0000562947,0.0104227,-0.0104227,-0.0000562947,8.036458,-2.087948)"/>
</g>
</svg>
