
<svg xmlns="http://www.w3.org/2000/svg" xmlns:xlink="http://www.w3.org/1999/xlink" width="16px" height="16px" viewBox="0 0 16 16" version="1.1">
<g id="surface1">
<path style="fill-rule:nonzero;fill:rgb(20%,20%,20%);fill-opacity:1;stroke-width:27.910587;stroke-linecap:butt;stroke-linejoin:miter;stroke:rgb(20%,20%,20%);stroke-opacity:1;stroke-miterlimit:4;" d="M -493.83473 -81.09957 L -148.33473 -81.09957 C -117.45973 -81.09957 -92.45973 -56.09957 -92.45973 -25.22457 L -92.45973 320.27543 C -92.45973 351.15043 -117.45973 376.15043 -148.33473 376.15043 L -493.83473 376.15043 C -524.70973 376.15043 -549.70973 351.15043 -549.70973 320.27543 L -549.70973 -25.22457 C -549.70973 -56.09957 -524.70973 -81.09957 -493.83473 -81.09957 Z M -493.83473 -81.09957 " transform="matrix(0.03125,0,0,0.03125,18.033898,3.38983)"/>
<path style=" stroke:none;fill-rule:nonzero;fill:rgb(95.294118%,87.058824%,77.254902%);fill-opacity:1;" d="M 2.960938 1.332031 L 13.039062 1.332031 C 13.941406 1.332031 14.667969 2.058594 14.667969 2.960938 L 14.667969 13.039062 C 14.667969 13.941406 13.941406 14.667969 13.039062 14.667969 L 2.960938 14.667969 C 2.058594 14.667969 1.332031 13.941406 1.332031 13.039062 L 1.332031 2.960938 C 1.332031 2.058594 2.058594 1.332031 2.960938 1.332031 Z M 2.960938 1.332031 "/>
<path style=" stroke:none;fill-rule:nonzero;fill:rgb(81.176471%,61.176471%,40.784314%);fill-opacity:1;" d="M 1.332031 3.308594 L 14.539062 3.308594 L 14.539062 3.421875 L 1.332031 3.421875 Z M 1.332031 3.308594 "/>
<path style=" stroke:none;fill-rule:nonzero;fill:rgb(81.176471%,61.176471%,40.784314%);fill-opacity:1;" d="M 1.332031 5.347656 L 14.539062 5.347656 L 14.539062 5.460938 L 1.332031 5.460938 Z M 1.332031 5.347656 "/>
<path style=" stroke:none;fill-rule:nonzero;fill:rgb(81.176471%,61.176471%,40.784314%);fill-opacity:1;" d="M 1.332031 7.386719 L 14.539062 7.386719 L 14.539062 7.503906 L 1.332031 7.503906 Z M 1.332031 7.386719 "/>
<path style=" stroke:none;fill-rule:nonzero;fill:rgb(81.176471%,61.176471%,40.784314%);fill-opacity:1;" d="M 1.332031 9.429688 L 14.539062 9.429688 L 14.539062 9.542969 L 1.332031 9.542969 Z M 1.332031 9.429688 "/>
<path style=" stroke:none;fill-rule:nonzero;fill:rgb(81.176471%,61.176471%,40.784314%);fill-opacity:1;" d="M 1.332031 11.46875 L 14.539062 11.46875 L 14.539062 11.582031 L 1.332031 11.582031 Z M 1.332031 11.46875 "/>
<path style=" stroke:none;fill-rule:nonzero;fill:rgb(90.196078%,49.803922%,45.098039%);fill-opacity:1;" d="M 4.339844 14.667969 L 4.339844 1.332031 L 4.535156 1.332031 L 4.535156 14.667969 Z M 4.339844 14.667969 "/>
<path style=" stroke:none;fill-rule:nonzero;fill:rgb(7.843137%,9.019608%,9.019608%);fill-opacity:1;" d="M 6.230469 5.585938 L 2.226562 5.585938 L 2.109375 7.042969 L 2.230469 7.042969 C 2.320312 5.949219 2.421875 5.757812 3.496094 5.757812 C 3.621094 5.757812 3.824219 5.757812 3.878906 5.757812 C 4.011719 5.777344 4.011719 5.859375 4.011719 6.011719 L 4.011719 9.597656 C 4.011719 9.835938 3.992188 9.910156 3.40625 9.910156 L 3.210938 9.910156 L 3.210938 10.066406 C 3.542969 10.0625 3.890625 10.054688 4.230469 10.054688 C 4.570312 10.054688 4.917969 10.0625 5.25 10.066406 L 5.25 9.910156 L 5.054688 9.910156 C 4.480469 9.910156 4.460938 9.835938 4.460938 9.597656 L 4.460938 6.011719 C 4.460938 5.863281 4.460938 5.785156 4.585938 5.757812 L 4.964844 5.757812 C 6.027344 5.757812 6.128906 5.949219 6.21875 7.042969 L 6.34375 7.042969 "/>
<path style=" stroke:none;fill-rule:nonzero;fill:rgb(7.843137%,9.019608%,9.019608%);fill-opacity:1;" d="M 9.710938 9.835938 L 9.585938 9.835938 C 9.4375 10.816406 9.347656 11.347656 8.125 11.347656 L 7.164062 11.347656 C 6.886719 11.347656 6.871094 11.3125 6.871094 11.085938 L 6.871094 9.246094 L 7.527344 9.246094 C 8.179688 9.246094 8.242188 9.472656 8.242188 10.027344 L 8.355469 10.027344 L 8.355469 8.3125 L 8.242188 8.3125 C 8.242188 8.859375 8.179688 9.085938 7.527344 9.085938 L 6.871094 9.085938 L 6.871094 7.449219 C 6.871094 7.230469 6.886719 7.195312 7.164062 7.195312 L 8.109375 7.195312 C 9.183594 7.195312 9.308594 7.601562 9.40625 8.472656 L 9.53125 8.472656 L 9.367188 7.015625 L 5.851562 7.015625 L 5.851562 7.195312 C 6.34375 7.195312 6.421875 7.195312 6.421875 7.492188 L 6.421875 11.046875 C 6.421875 11.34375 6.34375 11.34375 5.851562 11.34375 L 5.851562 11.503906 L 9.464844 11.503906 "/>
<path style=" stroke:none;fill-rule:nonzero;fill:rgb(7.843137%,9.019608%,9.019608%);fill-opacity:1;" d="M 11.582031 7.574219 L 12.609375 6.164062 C 12.710938 6.027344 12.921875 5.742188 13.492188 5.734375 L 13.492188 5.574219 C 13.332031 5.585938 13.066406 5.585938 12.902344 5.585938 C 12.671875 5.585938 12.386719 5.585938 12.214844 5.574219 L 12.214844 5.734375 C 12.4375 5.753906 12.492188 5.886719 12.492188 5.992188 C 12.492188 6.070312 12.457031 6.125 12.410156 6.1875 L 11.492188 7.449219 L 10.464844 6.023438 C 10.417969 5.953125 10.410156 5.929688 10.410156 5.910156 C 10.410156 5.851562 10.488281 5.738281 10.71875 5.734375 L 10.71875 5.574219 C 10.496094 5.585938 10.15625 5.585938 9.925781 5.585938 C 9.746094 5.585938 9.402344 5.585938 9.234375 5.574219 L 9.234375 5.734375 C 9.613281 5.734375 9.738281 5.746094 9.890625 5.953125 L 11.230469 7.820312 L 10.023438 9.492188 C 9.726562 9.902344 9.273438 9.910156 9.140625 9.910156 L 9.140625 10.070312 C 9.300781 10.058594 9.566406 10.058594 9.730469 10.058594 C 9.917969 10.058594 10.246094 10.058594 10.417969 10.070312 L 10.417969 9.910156 C 10.203125 9.890625 10.140625 9.757812 10.140625 9.652344 C 10.140625 9.566406 10.175781 9.519531 10.210938 9.472656 L 11.320312 7.933594 L 12.527344 9.621094 C 12.582031 9.691406 12.582031 9.714844 12.582031 9.734375 C 12.582031 9.785156 12.519531 9.898438 12.277344 9.910156 L 12.277344 10.070312 C 12.496094 10.058594 12.835938 10.058594 13.066406 10.058594 C 13.246094 10.058594 13.59375 10.058594 13.761719 10.070312 L 13.761719 9.910156 C 13.316406 9.910156 13.246094 9.878906 13.109375 9.691406 "/>
<path style=" stroke:none;fill-rule:nonzero;fill:rgb(20%,20%,20%);fill-opacity:1;" d="M 2.398438 1.136719 L 3.507812 1.136719 L 3.507812 2.980469 L 2.398438 2.980469 Z M 2.398438 1.136719 "/>
<path style=" stroke:none;fill-rule:nonzero;fill:rgb(20%,20%,20%);fill-opacity:1;" d="M 5.71875 1.136719 L 6.828125 1.136719 L 6.828125 2.980469 L 5.71875 2.980469 Z M 5.71875 1.136719 "/>
<path style=" stroke:none;fill-rule:nonzero;fill:rgb(20%,20%,20%);fill-opacity:1;" d="M 9.039062 1.136719 L 10.148438 1.136719 L 10.148438 2.980469 L 9.039062 2.980469 Z M 9.039062 1.136719 "/>
<path style=" stroke:none;fill-rule:nonzero;fill:rgb(20%,20%,20%);fill-opacity:1;" d="M 12.363281 1.136719 L 13.46875 1.136719 L 13.46875 2.980469 L 12.363281 2.980469 Z M 12.363281 1.136719 "/>
</g>
</svg>
