<!-- color: #41afd2 -->
<svg xmlns="http://www.w3.org/2000/svg" xmlns:xlink="http://www.w3.org/1999/xlink" width="16px" height="16px" viewBox="0 0 16 16" version="1.1">
<defs>
<clipPath id="clip1">
  <path d="M 2.324219 2.921875 L 9.601562 2.921875 L 9.601562 11.707031 L 2.324219 11.707031 Z M 2.324219 2.921875 "/>
</clipPath>
<clipPath id="clip2">
  <path d="M 12.890625 7.300781 C 12.890625 11.933594 9.789062 15.6875 5.96875 15.6875 C 2.148438 15.6875 -0.953125 11.933594 -0.953125 7.300781 C -0.953125 2.667969 2.148438 -1.085938 5.96875 -1.085938 C 9.789062 -1.085938 12.890625 2.667969 12.890625 7.300781 Z M 12.890625 7.300781 "/>
</clipPath>
<clipPath id="clip3">
  <path d="M 2.324219 2.921875 L 5.996094 2.921875 L 5.996094 11.707031 L 2.324219 11.707031 Z M 2.324219 2.921875 "/>
</clipPath>
<clipPath id="clip4">
  <path d="M 12.890625 7.300781 C 12.890625 11.933594 9.789062 15.6875 5.96875 15.6875 C 2.148438 15.6875 -0.953125 11.933594 -0.953125 7.300781 C -0.953125 2.667969 2.148438 -1.085938 5.96875 -1.085938 C 9.789062 -1.085938 12.890625 2.667969 12.890625 7.300781 Z M 12.890625 7.300781 "/>
</clipPath>
<clipPath id="clip5">
  <path d="M 2.324219 2.921875 L 3.277344 2.921875 L 3.277344 11.707031 L 2.324219 11.707031 Z M 2.324219 2.921875 "/>
</clipPath>
<clipPath id="clip6">
  <path d="M 12.890625 7.300781 C 12.890625 11.933594 9.789062 15.6875 5.96875 15.6875 C 2.148438 15.6875 -0.953125 11.933594 -0.953125 7.300781 C -0.953125 2.667969 2.148438 -1.085938 5.96875 -1.085938 C 9.789062 -1.085938 12.890625 2.667969 12.890625 7.300781 Z M 12.890625 7.300781 "/>
</clipPath>
<clipPath id="clip7">
  <path d="M 8.652344 2.921875 L 9.601562 2.921875 L 9.601562 11.707031 L 8.652344 11.707031 Z M 8.652344 2.921875 "/>
</clipPath>
<clipPath id="clip8">
  <path d="M 12.890625 7.300781 C 12.890625 11.933594 9.789062 15.6875 5.96875 15.6875 C 2.148438 15.6875 -0.953125 11.933594 -0.953125 7.300781 C -0.953125 2.667969 2.148438 -1.085938 5.96875 -1.085938 C 9.789062 -1.085938 12.890625 2.667969 12.890625 7.300781 Z M 12.890625 7.300781 "/>
</clipPath>
<clipPath id="clip9">
  <path d="M 3.242188 3.644531 L 5.375 3.644531 L 5.375 4.398438 L 3.242188 4.398438 Z M 3.242188 3.644531 "/>
</clipPath>
<clipPath id="clip10">
  <path d="M 12.890625 7.300781 C 12.890625 11.933594 9.789062 15.6875 5.96875 15.6875 C 2.148438 15.6875 -0.953125 11.933594 -0.953125 7.300781 C -0.953125 2.667969 2.148438 -1.085938 5.96875 -1.085938 C 9.789062 -1.085938 12.890625 2.667969 12.890625 7.300781 Z M 12.890625 7.300781 "/>
</clipPath>
<clipPath id="clip11">
  <path d="M 6.554688 10.199219 L 8.683594 10.199219 L 8.683594 10.953125 L 6.554688 10.953125 Z M 6.554688 10.199219 "/>
</clipPath>
<clipPath id="clip12">
  <path d="M 12.890625 7.300781 C 12.890625 11.933594 9.789062 15.6875 5.96875 15.6875 C 2.148438 15.6875 -0.953125 11.933594 -0.953125 7.300781 C -0.953125 2.667969 2.148438 -1.085938 5.96875 -1.085938 C 9.789062 -1.085938 12.890625 2.667969 12.890625 7.300781 Z M 12.890625 7.300781 "/>
</clipPath>
<clipPath id="clip13">
  <path d="M 3.242188 5.445312 L 8.683594 5.445312 L 8.683594 5.875 L 3.242188 5.875 Z M 3.242188 5.445312 "/>
</clipPath>
<clipPath id="clip14">
  <path d="M 12.890625 7.300781 C 12.890625 11.933594 9.789062 15.6875 5.96875 15.6875 C 2.148438 15.6875 -0.953125 11.933594 -0.953125 7.300781 C -0.953125 2.667969 2.148438 -1.085938 5.96875 -1.085938 C 9.789062 -1.085938 12.890625 2.667969 12.890625 7.300781 Z M 12.890625 7.300781 "/>
</clipPath>
<clipPath id="clip15">
  <path d="M 3.242188 6.5625 L 8.683594 6.5625 L 8.683594 6.953125 L 3.242188 6.953125 Z M 3.242188 6.5625 "/>
</clipPath>
<clipPath id="clip16">
  <path d="M 12.890625 7.300781 C 12.890625 11.933594 9.789062 15.6875 5.96875 15.6875 C 2.148438 15.6875 -0.953125 11.933594 -0.953125 7.300781 C -0.953125 2.667969 2.148438 -1.085938 5.96875 -1.085938 C 9.789062 -1.085938 12.890625 2.667969 12.890625 7.300781 Z M 12.890625 7.300781 "/>
</clipPath>
<clipPath id="clip17">
  <path d="M 3.242188 7.644531 L 8.683594 7.644531 L 8.683594 8.035156 L 3.242188 8.035156 Z M 3.242188 7.644531 "/>
</clipPath>
<clipPath id="clip18">
  <path d="M 12.890625 7.300781 C 12.890625 11.933594 9.789062 15.6875 5.96875 15.6875 C 2.148438 15.6875 -0.953125 11.933594 -0.953125 7.300781 C -0.953125 2.667969 2.148438 -1.085938 5.96875 -1.085938 C 9.789062 -1.085938 12.890625 2.667969 12.890625 7.300781 Z M 12.890625 7.300781 "/>
</clipPath>
<clipPath id="clip19">
  <path d="M 3.242188 8.757812 L 8.683594 8.757812 L 8.683594 9.152344 L 3.242188 9.152344 Z M 3.242188 8.757812 "/>
</clipPath>
<clipPath id="clip20">
  <path d="M 12.890625 7.300781 C 12.890625 11.933594 9.789062 15.6875 5.96875 15.6875 C 2.148438 15.6875 -0.953125 11.933594 -0.953125 7.300781 C -0.953125 2.667969 2.148438 -1.085938 5.96875 -1.085938 C 9.789062 -1.085938 12.890625 2.667969 12.890625 7.300781 Z M 12.890625 7.300781 "/>
</clipPath>
</defs>
<g id="surface1">
<path style="fill-rule:nonzero;fill:rgb(100%,100%,100%);fill-opacity:1;stroke-width:28.025423;stroke-linecap:butt;stroke-linejoin:miter;stroke:rgb(36.078431%,36.078431%,36.078431%);stroke-opacity:1;stroke-miterlimit:4;" d="M 82.5 26.5 L 429.5 26.5 C 460.5 26.5 485.5 51.5 485.5 82.5 L 485.5 429.5 C 485.5 460.5 460.5 485.5 429.5 485.5 L 82.5 485.5 C 51.5 485.5 26.5 460.5 26.5 429.5 L 26.5 82.5 C 26.5 51.5 51.5 26.5 82.5 26.5 Z M 82.5 26.5 " transform="matrix(0.03125,0,0,0.03125,0,0)"/>
<path style=" stroke:none;fill-rule:nonzero;fill:rgb(78.039216%,43.921569%,20.784314%);fill-opacity:1;" d="M 2.628906 1.894531 L 9.308594 1.894531 C 9.816406 1.894531 10.230469 2.304688 10.230469 2.8125 L 10.230469 11.246094 C 10.230469 11.753906 9.816406 12.164062 9.308594 12.164062 L 2.628906 12.164062 C 2.121094 12.164062 1.707031 11.753906 1.707031 11.246094 L 1.707031 2.8125 C 1.707031 2.304688 2.121094 1.894531 2.628906 1.894531 Z M 2.628906 1.894531 "/>
<g clip-path="url(#clip1)" clip-rule="nonzero">
<g clip-path="url(#clip2)" clip-rule="nonzero">
<path style=" stroke:none;fill-rule:nonzero;fill:rgb(100%,100%,100%);fill-opacity:1;" d="M 2.957031 2.925781 L 8.976562 2.925781 C 9.308594 2.925781 9.578125 3.25 9.578125 3.652344 L 9.578125 10.949219 C 9.578125 11.351562 9.308594 11.675781 8.976562 11.675781 L 2.957031 11.675781 C 2.625 11.675781 2.355469 11.351562 2.355469 10.949219 L 2.355469 3.652344 C 2.355469 3.25 2.625 2.925781 2.957031 2.925781 M 2.957031 2.925781 "/>
</g>
</g>
<g clip-path="url(#clip3)" clip-rule="nonzero">
<g clip-path="url(#clip4)" clip-rule="nonzero">
<path style=" stroke:none;fill-rule:nonzero;fill:rgb(98.039216%,92.156863%,81.176471%);fill-opacity:1;" d="M 2.957031 2.925781 C 2.625 2.925781 2.355469 3.25 2.355469 3.652344 L 2.355469 10.949219 C 2.355469 11.351562 2.625 11.675781 2.957031 11.675781 L 5.96875 11.675781 L 5.96875 2.925781 M 2.957031 2.925781 "/>
</g>
</g>
<g clip-path="url(#clip5)" clip-rule="nonzero">
<g clip-path="url(#clip6)" clip-rule="nonzero">
<path style=" stroke:none;fill-rule:nonzero;fill:rgb(100%,100%,100%);fill-opacity:1;" d="M 2.957031 2.925781 C 2.625 2.925781 2.355469 3.25 2.355469 3.652344 L 2.355469 10.949219 C 2.355469 11.351562 2.625 11.675781 2.957031 11.675781 L 3.257812 11.675781 C 2.925781 11.675781 2.65625 11.351562 2.65625 10.949219 L 2.65625 3.652344 C 2.65625 3.25 2.925781 2.925781 3.257812 2.925781 M 2.957031 2.925781 "/>
</g>
</g>
<g clip-path="url(#clip7)" clip-rule="nonzero">
<g clip-path="url(#clip8)" clip-rule="nonzero">
<path style=" stroke:none;fill-rule:nonzero;fill:rgb(98.039216%,92.156863%,81.176471%);fill-opacity:1;" d="M 8.675781 2.925781 C 9.011719 2.925781 9.277344 3.25 9.277344 3.652344 L 9.277344 10.949219 C 9.277344 11.351562 9.011719 11.675781 8.675781 11.675781 L 8.976562 11.675781 C 9.3125 11.675781 9.578125 11.351562 9.578125 10.949219 L 9.578125 3.652344 C 9.578125 3.25 9.3125 2.925781 8.976562 2.925781 M 8.675781 2.925781 "/>
</g>
</g>
<g clip-path="url(#clip9)" clip-rule="nonzero">
<g clip-path="url(#clip10)" clip-rule="nonzero">
<path style=" stroke:none;fill-rule:nonzero;fill:rgb(16.862745%,16.862745%,16.862745%);fill-opacity:0.4;" d="M 3.257812 3.652344 L 5.367188 3.652344 L 5.367188 4.382812 L 3.257812 4.382812 M 3.257812 3.652344 "/>
</g>
</g>
<g clip-path="url(#clip11)" clip-rule="nonzero">
<g clip-path="url(#clip12)" clip-rule="nonzero">
<path style=" stroke:none;fill-rule:nonzero;fill:rgb(16.862745%,16.862745%,16.862745%);fill-opacity:0.4;" d="M 6.570312 10.21875 L 8.675781 10.21875 L 8.675781 10.949219 L 6.570312 10.949219 M 6.570312 10.21875 "/>
</g>
</g>
<g clip-path="url(#clip13)" clip-rule="nonzero">
<g clip-path="url(#clip14)" clip-rule="nonzero">
<path style=" stroke:none;fill-rule:nonzero;fill:rgb(16.862745%,16.862745%,16.862745%);fill-opacity:0.4;" d="M 3.257812 5.476562 L 8.675781 5.476562 L 8.675781 5.839844 L 3.257812 5.839844 M 3.257812 5.476562 "/>
</g>
</g>
<g clip-path="url(#clip15)" clip-rule="nonzero">
<g clip-path="url(#clip16)" clip-rule="nonzero">
<path style=" stroke:none;fill-rule:nonzero;fill:rgb(16.862745%,16.862745%,16.862745%);fill-opacity:0.4;" d="M 3.257812 6.570312 L 8.675781 6.570312 L 8.675781 6.9375 L 3.257812 6.9375 M 3.257812 6.570312 "/>
</g>
</g>
<g clip-path="url(#clip17)" clip-rule="nonzero">
<g clip-path="url(#clip18)" clip-rule="nonzero">
<path style=" stroke:none;fill-rule:nonzero;fill:rgb(16.862745%,16.862745%,16.862745%);fill-opacity:0.4;" d="M 3.257812 7.664062 L 8.675781 7.664062 L 8.675781 8.03125 L 3.257812 8.03125 M 3.257812 7.664062 "/>
</g>
</g>
<g clip-path="url(#clip19)" clip-rule="nonzero">
<g clip-path="url(#clip20)" clip-rule="nonzero">
<path style=" stroke:none;fill-rule:nonzero;fill:rgb(16.862745%,16.862745%,16.862745%);fill-opacity:0.4;" d="M 3.257812 8.757812 L 8.675781 8.757812 L 8.675781 9.125 L 3.257812 9.125 M 3.257812 8.757812 "/>
</g>
</g>
<path style=" stroke:none;fill-rule:nonzero;fill:rgb(27.843137%,20.784314%,20.784314%);fill-opacity:1;" d="M 4.429688 2.246094 L 7.300781 2.246094 L 7.300781 2.707031 L 4.429688 2.707031 Z M 4.429688 2.246094 "/>
<path style=" stroke:none;fill-rule:nonzero;fill:rgb(65.882353%,61.960784%,54.901961%);fill-opacity:1;" d="M 5.144531 1.480469 L 6.691406 1.480469 L 6.691406 2.476562 L 5.144531 2.476562 Z M 5.144531 1.480469 "/>
<path style=" stroke:none;fill-rule:nonzero;fill:rgb(20%,20%,20%);fill-opacity:1;" d="M 10.722656 7.585938 C 9.714844 7.585938 8.894531 8.445312 8.796875 9.558594 L 12.644531 9.558594 C 12.546875 8.445312 11.726562 7.585938 10.722656 7.585938 Z M 7.820312 9.863281 C 7.605469 9.863281 7.433594 10.058594 7.433594 10.300781 C 7.433594 10.542969 7.605469 10.742188 7.820312 10.742188 L 13.621094 10.742188 C 13.835938 10.742188 14.007812 10.542969 14.007812 10.300781 C 14.007812 10.058594 13.835938 9.863281 13.621094 9.863281 Z M 8.011719 11.527344 C 7.800781 11.527344 7.625 11.722656 7.625 11.96875 C 7.625 12.210938 7.800781 12.40625 8.011719 12.40625 L 9.734375 12.40625 L 8.304688 13.339844 C 8.117188 13.460938 8.054688 13.730469 8.164062 13.9375 C 8.269531 14.148438 8.503906 14.222656 8.691406 14.101562 L 10.429688 12.960938 L 10.429688 11.527344 Z M 11.011719 11.527344 L 11.011719 12.960938 L 12.75 14.101562 C 12.9375 14.222656 13.171875 14.148438 13.277344 13.9375 C 13.386719 13.730469 13.324219 13.460938 13.136719 13.339844 L 11.707031 12.40625 L 13.429688 12.40625 C 13.640625 12.40625 13.816406 12.210938 13.816406 11.96875 C 13.816406 11.722656 13.640625 11.527344 13.429688 11.527344 Z M 11.011719 11.527344 "/>
<path style=" stroke:none;fill-rule:nonzero;fill:rgb(83.137255%,9.803922%,9.803922%);fill-opacity:1;" d="M 8.398438 9.863281 L 8.398438 11.835938 L 8.402344 11.835938 C 8.402344 11.84375 8.398438 11.851562 8.398438 11.859375 C 8.398438 13.132812 9.234375 14.160156 10.273438 14.160156 L 10.429688 14.160156 L 10.429688 11.089844 L 11.011719 11.089844 L 11.011719 14.160156 L 11.167969 14.160156 C 12.207031 14.160156 13.042969 13.132812 13.042969 11.859375 C 13.042969 11.851562 13.039062 11.84375 13.039062 11.835938 L 13.042969 11.835938 L 13.042969 9.863281 Z M 8.398438 9.863281 "/>
<path style=" stroke:none;fill-rule:nonzero;fill:rgb(97.254902%,97.254902%,97.254902%);fill-opacity:1;" d="M 12.179688 10.792969 C 12.179688 10.945312 12.054688 11.070312 11.902344 11.070312 C 11.746094 11.070312 11.621094 10.945312 11.621094 10.792969 C 11.621094 10.636719 11.746094 10.511719 11.902344 10.511719 C 12.054688 10.511719 12.179688 10.636719 12.179688 10.792969 Z M 12.179688 10.792969 "/>
<path style=" stroke:none;fill-rule:nonzero;fill:rgb(97.254902%,97.254902%,97.254902%);fill-opacity:1;" d="M 9.902344 12.972656 C 9.902344 13.125 9.773438 13.253906 9.621094 13.253906 C 9.464844 13.253906 9.339844 13.125 9.339844 12.972656 C 9.339844 12.816406 9.464844 12.691406 9.621094 12.691406 C 9.773438 12.691406 9.902344 12.816406 9.902344 12.972656 Z M 9.902344 12.972656 "/>
<path style=" stroke:none;fill-rule:nonzero;fill:rgb(97.254902%,97.254902%,97.254902%);fill-opacity:1;" d="M 10.941406 10.351562 C 10.941406 10.507812 10.816406 10.632812 10.660156 10.632812 C 10.507812 10.632812 10.378906 10.507812 10.378906 10.351562 C 10.378906 10.195312 10.507812 10.070312 10.660156 10.070312 C 10.816406 10.070312 10.941406 10.195312 10.941406 10.351562 Z M 10.941406 10.351562 "/>
<path style=" stroke:none;fill-rule:nonzero;fill:rgb(97.254902%,97.254902%,97.254902%);fill-opacity:1;" d="M 12.261719 12.871094 C 12.261719 13.027344 12.136719 13.152344 11.980469 13.152344 C 11.828125 13.152344 11.699219 13.027344 11.699219 12.871094 C 11.699219 12.71875 11.828125 12.59375 11.980469 12.59375 C 12.136719 12.59375 12.261719 12.71875 12.261719 12.871094 Z M 12.261719 12.871094 "/>
<path style=" stroke:none;fill-rule:nonzero;fill:rgb(97.254902%,97.254902%,97.254902%);fill-opacity:1;" d="M 12.820312 11.550781 C 12.820312 11.707031 12.695312 11.832031 12.542969 11.832031 C 12.386719 11.832031 12.261719 11.707031 12.261719 11.550781 C 12.261719 11.398438 12.386719 11.273438 12.542969 11.273438 C 12.695312 11.273438 12.820312 11.398438 12.820312 11.550781 Z M 12.820312 11.550781 "/>
<path style=" stroke:none;fill-rule:nonzero;fill:rgb(97.254902%,97.254902%,97.254902%);fill-opacity:1;" d="M 11.78125 12.03125 C 11.78125 12.1875 11.65625 12.3125 11.5 12.3125 C 11.347656 12.3125 11.222656 12.1875 11.222656 12.03125 C 11.222656 11.878906 11.347656 11.75 11.5 11.75 C 11.65625 11.75 11.78125 11.878906 11.78125 12.03125 Z M 11.78125 12.03125 "/>
<path style=" stroke:none;fill-rule:nonzero;fill:rgb(97.254902%,97.254902%,97.254902%);fill-opacity:1;" d="M 9.582031 10.613281 C 9.582031 10.765625 9.457031 10.890625 9.300781 10.890625 C 9.144531 10.890625 9.019531 10.765625 9.019531 10.613281 C 9.019531 10.457031 9.144531 10.332031 9.300781 10.332031 C 9.457031 10.332031 9.582031 10.457031 9.582031 10.613281 Z M 9.582031 10.613281 "/>
<path style=" stroke:none;fill-rule:nonzero;fill:rgb(97.254902%,97.254902%,97.254902%);fill-opacity:1;" d="M 10.101562 11.691406 C 10.101562 11.847656 9.976562 11.972656 9.820312 11.972656 C 9.664062 11.972656 9.539062 11.847656 9.539062 11.691406 C 9.539062 11.539062 9.664062 11.410156 9.820312 11.410156 C 9.976562 11.410156 10.101562 11.539062 10.101562 11.691406 Z M 10.101562 11.691406 "/>
<path style=" stroke:none;fill-rule:nonzero;fill:rgb(97.254902%,97.254902%,97.254902%);fill-opacity:1;" d="M 12.179688 10.792969 C 12.179688 10.945312 12.054688 11.070312 11.902344 11.070312 C 11.746094 11.070312 11.621094 10.945312 11.621094 10.792969 C 11.621094 10.636719 11.746094 10.511719 11.902344 10.511719 C 12.054688 10.511719 12.179688 10.636719 12.179688 10.792969 Z M 12.179688 10.792969 "/>
<path style=" stroke:none;fill-rule:nonzero;fill:rgb(97.254902%,97.254902%,97.254902%);fill-opacity:1;" d="M 9.261719 12.113281 C 9.261719 12.265625 9.136719 12.390625 8.980469 12.390625 C 8.824219 12.390625 8.699219 12.265625 8.699219 12.113281 C 8.699219 11.957031 8.824219 11.832031 8.980469 11.832031 C 9.136719 11.832031 9.261719 11.957031 9.261719 12.113281 Z M 9.261719 12.113281 "/>
</g>
</svg>
