<!-- color: #70bdea -->
<svg xmlns="http://www.w3.org/2000/svg" xmlns:xlink="http://www.w3.org/1999/xlink" width="16px" height="16px" viewBox="0 0 16 16" version="1.1">
<g id="surface1">
<path style="fill-rule:nonzero;fill:rgb(29.019608%,68.235294%,90.196078%);fill-opacity:1;stroke-width:28.480503;stroke-linecap:butt;stroke-linejoin:miter;stroke:rgb(18.039216%,45.098039%,60%);stroke-opacity:1;stroke-miterlimit:4;" d="M 79.75 22.75 L 432.25 22.75 C 463.75 22.75 489.25 48.25 489.25 79.75 L 489.25 432.25 C 489.25 463.75 463.75 489.25 432.25 489.25 L 79.75 489.25 C 48.25 489.25 22.75 463.75 22.75 432.25 L 22.75 79.75 C 22.75 48.25 48.25 22.75 79.75 22.75 Z M 79.75 22.75 " transform="matrix(0.03125,0,0,0.03125,0,0)"/>
<path style=" stroke:none;fill-rule:nonzero;fill:rgb(40%,40%,40%);fill-opacity:1;" d="M 12.648438 8.414062 C 12.648438 6.027344 10.667969 4.09375 8.222656 4.09375 C 5.777344 4.09375 3.796875 6.027344 3.796875 8.414062 C 3.796875 10.800781 5.777344 12.734375 8.222656 12.734375 C 10.667969 12.734375 12.648438 10.800781 12.648438 8.414062 Z M 12.648438 8.414062 "/>
<path style=" stroke:none;fill-rule:nonzero;fill:rgb(40%,40%,40%);fill-opacity:1;" d="M 7.273438 15.132812 C 7.15625 15.078125 7.027344 14.941406 6.972656 14.808594 C 6.945312 14.738281 6.914062 14.46875 6.890625 14.042969 C 6.867188 13.679688 6.839844 13.351562 6.828125 13.316406 C 6.8125 13.269531 6.726562 13.226562 6.519531 13.15625 C 6.363281 13.101562 6.128906 13 5.996094 12.933594 C 5.867188 12.871094 5.730469 12.816406 5.695312 12.816406 C 5.65625 12.816406 5.441406 12.988281 5.136719 13.269531 C 4.863281 13.519531 4.59375 13.75 4.539062 13.777344 C 4.429688 13.832031 4.179688 13.84375 4.050781 13.792969 C 3.949219 13.757812 2.863281 12.6875 2.792969 12.554688 C 2.722656 12.425781 2.730469 12.179688 2.808594 12.035156 C 2.84375 11.964844 3.074219 11.695312 3.320312 11.429688 C 3.582031 11.140625 3.765625 10.917969 3.765625 10.882812 C 3.765625 10.851562 3.710938 10.714844 3.644531 10.582031 C 3.578125 10.453125 3.480469 10.21875 3.425781 10.0625 C 3.371094 9.90625 3.304688 9.769531 3.277344 9.753906 C 3.25 9.738281 2.933594 9.710938 2.570312 9.691406 C 2.148438 9.667969 1.863281 9.640625 1.78125 9.609375 C 1.625 9.554688 1.445312 9.363281 1.421875 9.222656 C 1.410156 9.167969 1.40625 8.753906 1.410156 8.304688 L 1.421875 7.488281 L 1.515625 7.371094 C 1.679688 7.164062 1.757812 7.140625 2.550781 7.09375 C 3 7.066406 3.273438 7.035156 3.296875 7.015625 C 3.316406 6.996094 3.382812 6.839844 3.445312 6.671875 C 3.507812 6.503906 3.605469 6.273438 3.660156 6.160156 C 3.71875 6.046875 3.765625 5.929688 3.765625 5.898438 C 3.765625 5.867188 3.578125 5.636719 3.347656 5.386719 C 3.117188 5.132812 2.898438 4.886719 2.859375 4.835938 C 2.75 4.691406 2.714844 4.511719 2.757812 4.335938 C 2.789062 4.203125 2.851562 4.132812 3.347656 3.628906 C 3.652344 3.320312 3.953125 3.039062 4.015625 3.007812 C 4.164062 2.933594 4.394531 2.929688 4.535156 3.003906 C 4.597656 3.035156 4.863281 3.257812 5.128906 3.503906 C 5.394531 3.746094 5.628906 3.953125 5.648438 3.96875 C 5.671875 3.980469 5.816406 3.929688 5.988281 3.847656 C 6.152344 3.769531 6.398438 3.667969 6.535156 3.621094 C 6.722656 3.558594 6.792969 3.519531 6.820312 3.464844 C 6.835938 3.425781 6.871094 3.097656 6.890625 2.734375 C 6.929688 2.035156 6.953125 1.925781 7.097656 1.777344 C 7.257812 1.609375 7.347656 1.597656 8.242188 1.605469 L 9.054688 1.617188 L 9.183594 1.699219 C 9.402344 1.84375 9.429688 1.933594 9.480469 2.710938 C 9.507812 3.085938 9.535156 3.421875 9.542969 3.457031 C 9.554688 3.507812 9.621094 3.542969 9.839844 3.621094 C 9.992188 3.675781 10.242188 3.78125 10.390625 3.855469 C 10.539062 3.929688 10.671875 3.992188 10.6875 3.992188 C 10.699219 3.992188 10.9375 3.78125 11.214844 3.527344 C 11.492188 3.273438 11.769531 3.039062 11.832031 3.007812 C 11.980469 2.929688 12.199219 2.929688 12.363281 3.007812 C 12.4375 3.046875 12.699219 3.285156 13.027344 3.613281 C 13.589844 4.183594 13.632812 4.246094 13.632812 4.503906 C 13.632812 4.6875 13.550781 4.804688 13.070312 5.335938 C 12.808594 5.625 12.589844 5.871094 12.589844 5.886719 C 12.589844 5.902344 12.660156 6.054688 12.742188 6.230469 C 12.828125 6.40625 12.929688 6.652344 12.964844 6.773438 C 13.015625 6.929688 13.054688 7.007812 13.097656 7.027344 C 13.132812 7.042969 13.46875 7.074219 13.851562 7.097656 C 14.605469 7.144531 14.726562 7.175781 14.851562 7.351562 C 14.972656 7.519531 14.988281 7.648438 14.976562 8.46875 L 14.964844 9.253906 L 14.875 9.386719 C 14.710938 9.621094 14.667969 9.632812 13.832031 9.6875 C 13.421875 9.714844 13.078125 9.742188 13.070312 9.753906 C 13.0625 9.761719 13.011719 9.890625 12.957031 10.042969 C 12.902344 10.195312 12.800781 10.441406 12.722656 10.589844 C 12.648438 10.738281 12.59375 10.878906 12.597656 10.902344 C 12.601562 10.921875 12.808594 11.160156 13.050781 11.425781 C 13.296875 11.691406 13.527344 11.972656 13.566406 12.046875 C 13.644531 12.207031 13.652344 12.375 13.585938 12.53125 C 13.527344 12.671875 12.53125 13.683594 12.371094 13.769531 C 12.234375 13.835938 11.988281 13.84375 11.847656 13.785156 C 11.792969 13.761719 11.519531 13.53125 11.242188 13.277344 C 10.964844 13.023438 10.714844 12.816406 10.6875 12.816406 C 10.660156 12.816406 10.503906 12.878906 10.339844 12.953125 C 10.175781 13.03125 9.933594 13.128906 9.796875 13.175781 C 9.613281 13.234375 9.550781 13.269531 9.542969 13.320312 C 9.535156 13.351562 9.507812 13.6875 9.480469 14.066406 C 9.425781 14.890625 9.394531 14.980469 9.105469 15.125 C 9.023438 15.167969 8.886719 15.175781 8.1875 15.171875 C 7.570312 15.171875 7.34375 15.164062 7.273438 15.132812 Z M 8.484375 11.464844 C 9.226562 11.386719 9.84375 11.09375 10.371094 10.566406 C 10.773438 10.164062 11.03125 9.710938 11.1875 9.144531 C 11.285156 8.789062 11.285156 8 11.1875 7.640625 C 10.890625 6.542969 10.105469 5.738281 9.019531 5.410156 C 8.769531 5.335938 8.699219 5.328125 8.210938 5.324219 C 7.738281 5.324219 7.640625 5.332031 7.414062 5.394531 C 6.273438 5.707031 5.398438 6.621094 5.160156 7.757812 C 4.945312 8.78125 5.261719 9.824219 6.007812 10.574219 C 6.398438 10.964844 6.902344 11.253906 7.453125 11.394531 C 7.609375 11.4375 7.832031 11.46875 8.148438 11.492188 C 8.171875 11.496094 8.324219 11.484375 8.484375 11.464844 Z M 7.726562 10.179688 C 6.945312 9.96875 6.398438 9.304688 6.347656 8.507812 C 6.3125 7.949219 6.492188 7.480469 6.890625 7.085938 C 7.609375 6.367188 8.761719 6.359375 9.472656 7.070312 C 10.058594 7.652344 10.199219 8.484375 9.835938 9.214844 C 9.527344 9.835938 8.957031 10.203125 8.253906 10.230469 C 8.015625 10.238281 7.898438 10.230469 7.726562 10.179688 Z M 8.597656 9.410156 C 8.816406 9.328125 9.074219 9.089844 9.179688 8.867188 C 9.257812 8.710938 9.265625 8.660156 9.265625 8.386719 C 9.265625 8.097656 9.261719 8.070312 9.160156 7.886719 C 8.960938 7.515625 8.660156 7.328125 8.238281 7.308594 C 7.902344 7.289062 7.699219 7.363281 7.453125 7.585938 C 7.144531 7.867188 7.019531 8.261719 7.121094 8.652344 C 7.207031 8.988281 7.386719 9.214844 7.695312 9.371094 C 7.980469 9.515625 8.277344 9.527344 8.597656 9.410156 Z M 8.597656 9.410156 "/>
<path style=" stroke:none;fill-rule:nonzero;fill:rgb(94.117647%,94.117647%,94.117647%);fill-opacity:1;" d="M 12.449219 8.011719 C 12.449219 5.625 10.464844 3.691406 8.023438 3.691406 C 5.578125 3.691406 3.597656 5.625 3.597656 8.011719 C 3.597656 10.398438 5.578125 12.332031 8.023438 12.332031 C 10.464844 12.332031 12.449219 10.398438 12.449219 8.011719 Z M 12.449219 8.011719 "/>
<path style=" stroke:none;fill-rule:nonzero;fill:rgb(94.117647%,94.117647%,94.117647%);fill-opacity:1;" d="M 7.074219 14.730469 C 6.953125 14.675781 6.828125 14.539062 6.769531 14.40625 C 6.742188 14.335938 6.714844 14.066406 6.6875 13.636719 C 6.667969 13.277344 6.640625 12.949219 6.625 12.914062 C 6.609375 12.867188 6.527344 12.824219 6.320312 12.753906 C 6.164062 12.699219 5.925781 12.597656 5.796875 12.53125 C 5.664062 12.464844 5.527344 12.414062 5.492188 12.414062 C 5.453125 12.414062 5.238281 12.585938 4.933594 12.867188 C 4.660156 13.117188 4.394531 13.347656 4.339844 13.375 C 4.226562 13.429688 3.980469 13.441406 3.851562 13.390625 C 3.746094 13.355469 2.660156 12.285156 2.59375 12.152344 C 2.523438 12.023438 2.53125 11.777344 2.609375 11.632812 C 2.644531 11.5625 2.871094 11.292969 3.117188 11.027344 C 3.382812 10.738281 3.5625 10.515625 3.5625 10.480469 C 3.5625 10.445312 3.511719 10.3125 3.445312 10.179688 C 3.378906 10.050781 3.28125 9.816406 3.226562 9.660156 C 3.171875 9.503906 3.105469 9.367188 3.078125 9.351562 C 3.050781 9.335938 2.730469 9.308594 2.367188 9.289062 C 1.949219 9.265625 1.664062 9.238281 1.582031 9.207031 C 1.425781 9.152344 1.246094 8.960938 1.21875 8.820312 C 1.210938 8.765625 1.207031 8.351562 1.210938 7.902344 L 1.21875 7.085938 L 1.3125 6.96875 C 1.480469 6.761719 1.558594 6.738281 2.351562 6.691406 C 2.800781 6.664062 3.070312 6.632812 3.09375 6.613281 C 3.113281 6.589844 3.179688 6.4375 3.242188 6.269531 C 3.304688 6.101562 3.402344 5.871094 3.460938 5.757812 C 3.519531 5.644531 3.5625 5.523438 3.5625 5.496094 C 3.5625 5.464844 3.375 5.234375 3.148438 4.980469 C 2.917969 4.730469 2.699219 4.484375 2.660156 4.429688 C 2.550781 4.289062 2.515625 4.109375 2.558594 3.933594 C 2.589844 3.800781 2.648438 3.730469 3.148438 3.226562 C 3.453125 2.914062 3.753906 2.636719 3.816406 2.605469 C 3.960938 2.53125 4.191406 2.527344 4.335938 2.601562 C 4.394531 2.632812 4.664062 2.855469 4.925781 3.101562 C 5.191406 3.34375 5.425781 3.550781 5.449219 3.5625 C 5.472656 3.578125 5.613281 3.527344 5.789062 3.445312 C 5.953125 3.367188 6.199219 3.265625 6.335938 3.21875 C 6.519531 3.15625 6.589844 3.117188 6.617188 3.0625 C 6.636719 3.023438 6.667969 2.695312 6.6875 2.332031 C 6.730469 1.632812 6.753906 1.523438 6.894531 1.375 C 7.054688 1.207031 7.148438 1.195312 8.042969 1.203125 L 8.855469 1.210938 L 8.984375 1.296875 C 9.203125 1.441406 9.226562 1.53125 9.28125 2.308594 C 9.304688 2.683594 9.332031 3.019531 9.339844 3.054688 C 9.351562 3.105469 9.417969 3.140625 9.636719 3.21875 C 9.792969 3.273438 10.039062 3.378906 10.1875 3.453125 C 10.335938 3.527344 10.46875 3.585938 10.484375 3.585938 C 10.5 3.585938 10.738281 3.378906 11.015625 3.125 C 11.289062 2.871094 11.566406 2.636719 11.628906 2.605469 C 11.777344 2.527344 12 2.527344 12.160156 2.605469 C 12.238281 2.644531 12.496094 2.882812 12.824219 3.210938 C 13.386719 3.78125 13.429688 3.84375 13.433594 4.101562 C 13.433594 4.285156 13.351562 4.402344 12.867188 4.933594 C 12.605469 5.222656 12.390625 5.46875 12.390625 5.484375 C 12.390625 5.5 12.457031 5.652344 12.542969 5.828125 C 12.625 6.003906 12.726562 6.246094 12.765625 6.371094 C 12.8125 6.527344 12.855469 6.605469 12.894531 6.625 C 12.929688 6.640625 13.269531 6.671875 13.648438 6.695312 C 14.402344 6.742188 14.527344 6.773438 14.652344 6.949219 C 14.773438 7.117188 14.785156 7.246094 14.773438 8.066406 L 14.765625 8.851562 L 14.671875 8.984375 C 14.507812 9.21875 14.464844 9.230469 13.628906 9.285156 C 13.21875 9.3125 12.878906 9.339844 12.867188 9.351562 C 12.859375 9.359375 12.808594 9.488281 12.757812 9.640625 C 12.703125 9.792969 12.597656 10.039062 12.523438 10.1875 C 12.449219 10.335938 12.390625 10.476562 12.394531 10.496094 C 12.402344 10.519531 12.605469 10.757812 12.851562 11.023438 C 13.09375 11.289062 13.324219 11.570312 13.363281 11.644531 C 13.445312 11.800781 13.453125 11.972656 13.386719 12.128906 C 13.328125 12.269531 12.332031 13.28125 12.167969 13.363281 C 12.035156 13.433594 11.789062 13.441406 11.644531 13.382812 C 11.59375 13.359375 11.320312 13.128906 11.042969 12.875 C 10.765625 12.621094 10.515625 12.414062 10.488281 12.414062 C 10.460938 12.414062 10.304688 12.476562 10.140625 12.550781 C 9.972656 12.628906 9.730469 12.726562 9.597656 12.773438 C 9.414062 12.832031 9.351562 12.867188 9.339844 12.914062 C 9.332031 12.949219 9.304688 13.285156 9.28125 13.660156 C 9.226562 14.488281 9.191406 14.578125 8.90625 14.722656 C 8.824219 14.765625 8.683594 14.773438 7.988281 14.769531 C 7.367188 14.769531 7.140625 14.757812 7.074219 14.730469 Z M 8.285156 11.0625 C 9.023438 10.984375 9.644531 10.691406 10.171875 10.164062 C 10.574219 9.761719 10.832031 9.308594 10.988281 8.742188 C 11.085938 8.382812 11.085938 7.597656 10.988281 7.234375 C 10.6875 6.140625 9.902344 5.335938 8.820312 5.007812 C 8.566406 4.933594 8.5 4.925781 8.007812 4.921875 C 7.539062 4.921875 7.441406 4.929688 7.210938 4.992188 C 6.070312 5.304688 5.199219 6.21875 4.960938 7.355469 C 4.746094 8.378906 5.058594 9.421875 5.804688 10.171875 C 6.195312 10.5625 6.703125 10.851562 7.25 10.992188 C 7.40625 11.035156 7.628906 11.066406 7.945312 11.089844 C 7.972656 11.09375 8.125 11.082031 8.285156 11.0625 Z M 7.523438 9.777344 C 6.742188 9.566406 6.195312 8.902344 6.148438 8.105469 C 6.113281 7.546875 6.292969 7.074219 6.6875 6.683594 C 7.410156 5.964844 8.558594 5.957031 9.273438 6.667969 C 9.859375 7.25 10 8.082031 9.636719 8.8125 C 9.324219 9.433594 8.753906 9.800781 8.054688 9.828125 C 7.816406 9.835938 7.699219 9.824219 7.523438 9.777344 Z M 8.398438 9.007812 C 8.613281 8.925781 8.871094 8.6875 8.980469 8.464844 C 9.054688 8.308594 9.066406 8.257812 9.066406 7.984375 C 9.066406 7.695312 9.058594 7.667969 8.960938 7.484375 C 8.757812 7.113281 8.460938 6.925781 8.039062 6.902344 C 7.699219 6.886719 7.496094 6.960938 7.253906 7.183594 C 6.941406 7.464844 6.820312 7.859375 6.917969 8.25 C 7.003906 8.585938 7.1875 8.8125 7.496094 8.96875 C 7.78125 9.113281 8.074219 9.125 8.398438 9.007812 Z M 8.398438 9.007812 "/>
<path style=" stroke:none;fill-rule:nonzero;fill:rgb(100%,100%,100%);fill-opacity:1;" d="M 12.71875 8 C 12.71875 10.542969 10.707031 12.625 8.164062 12.714844 C 5.625 12.804688 3.472656 10.867188 3.292969 8.332031 C 3.113281 5.792969 4.976562 3.574219 7.503906 3.308594 C 10.03125 3.039062 12.316406 4.824219 12.671875 7.339844 "/>
<path style=" stroke:none;fill-rule:evenodd;fill:rgb(20.784314%,78.039216%,43.921569%);fill-opacity:1;" d="M 8.003906 4.851562 C 7.988281 4.851562 7.96875 4.851562 7.953125 4.851562 C 7.421875 4.894531 7.125 5.539062 7.347656 6.253906 C 7.074219 5.792969 6.722656 5.445312 6.273438 5.449219 C 6.238281 5.449219 6.203125 5.449219 6.164062 5.457031 C 5.628906 5.527344 5.554688 6.199219 6.117188 6.511719 C 6.238281 6.578125 6.355469 6.660156 6.472656 6.753906 C 6.277344 6.644531 6.078125 6.574219 5.886719 6.574219 C 5.757812 6.574219 5.628906 6.605469 5.507812 6.679688 C 5.121094 6.90625 5.253906 7.429688 5.746094 7.535156 C 5.613281 7.566406 5.496094 7.632812 5.394531 7.738281 C 5.082031 8.066406 5.390625 8.546875 5.921875 8.457031 C 5.972656 8.449219 6.023438 8.441406 6.074219 8.4375 C 5.945312 8.496094 5.84375 8.585938 5.78125 8.714844 C 5.621094 9.039062 5.96875 9.328125 6.351562 9.132812 C 6.648438 8.980469 7.03125 8.90625 7.363281 8.871094 L 7.417969 8.902344 L 7.359375 8.933594 L 7.445312 9.074219 L 7.359375 9.214844 L 7.417969 9.25 L 7.359375 9.28125 L 7.445312 9.421875 L 7.359375 9.5625 L 7.417969 9.59375 L 7.359375 9.625 C 7.359375 9.625 7.359375 9.628906 7.359375 9.628906 L 7.445312 9.765625 L 7.359375 9.90625 C 7.359375 9.90625 7.359375 9.90625 7.359375 9.910156 L 7.417969 9.941406 L 7.359375 9.972656 L 7.445312 10.113281 L 7.359375 10.253906 L 7.417969 10.285156 L 7.359375 10.320312 L 7.445312 10.460938 L 7.359375 10.601562 L 7.417969 10.632812 L 7.359375 10.664062 C 7.359375 10.664062 7.359375 10.664062 7.359375 10.667969 L 7.445312 10.804688 L 7.359375 10.945312 L 7.417969 10.980469 L 7.359375 11.011719 L 7.445312 11.152344 L 7.433594 11.171875 L 8.550781 11.171875 L 8.539062 11.152344 L 8.625 11.011719 L 8.566406 10.980469 L 8.625 10.945312 L 8.539062 10.804688 L 8.625 10.667969 C 8.625 10.664062 8.625 10.664062 8.625 10.664062 L 8.566406 10.632812 L 8.625 10.601562 L 8.539062 10.460938 L 8.625 10.320312 L 8.566406 10.285156 L 8.625 10.253906 L 8.539062 10.113281 L 8.625 9.972656 L 8.566406 9.941406 L 8.625 9.910156 C 8.625 9.90625 8.625 9.90625 8.625 9.90625 L 8.539062 9.765625 L 8.625 9.628906 C 8.625 9.628906 8.625 9.625 8.625 9.625 L 8.566406 9.59375 L 8.625 9.5625 L 8.539062 9.421875 L 8.625 9.28125 L 8.566406 9.25 L 8.625 9.214844 L 8.539062 9.074219 L 8.625 8.933594 L 8.566406 8.902344 L 8.621094 8.871094 C 8.957031 8.90625 9.351562 8.976562 9.648438 9.132812 C 10.03125 9.328125 10.378906 9.039062 10.21875 8.714844 C 10.15625 8.585938 10.054688 8.496094 9.925781 8.4375 C 9.976562 8.441406 10.027344 8.449219 10.078125 8.457031 C 10.609375 8.546875 10.917969 8.066406 10.605469 7.738281 C 10.503906 7.632812 10.386719 7.566406 10.253906 7.53125 C 10.746094 7.429688 10.878906 6.90625 10.492188 6.679688 C 10.191406 6.503906 9.855469 6.570312 9.527344 6.753906 C 9.644531 6.660156 9.761719 6.578125 9.882812 6.511719 C 10.445312 6.199219 10.371094 5.527344 9.835938 5.457031 C 9.304688 5.382812 8.898438 5.804688 8.597656 6.347656 C 8.855469 5.484375 8.5 4.855469 8.003906 4.851562 Z M 8.003906 4.851562 "/>
<path style=" stroke:none;fill-rule:evenodd;fill:rgb(22.745098%,77.254902%,90.196078%);fill-opacity:1;" d="M 6.304688 3.902344 C 4.652344 4.585938 3.574219 6.199219 3.574219 7.988281 C 3.578125 10.265625 5.308594 12.171875 7.574219 12.390625 L 7.574219 11.535156 C 5.777344 11.320312 4.425781 9.796875 4.421875 7.988281 C 4.425781 6.671875 5.148438 5.464844 6.304688 4.839844 Z M 9.695312 3.902344 L 9.695312 4.839844 C 10.855469 5.460938 11.578125 6.671875 11.578125 7.988281 C 11.574219 9.796875 10.222656 11.320312 8.425781 11.535156 L 8.425781 12.390625 C 10.695312 12.171875 12.425781 10.265625 12.425781 7.988281 C 12.425781 6.199219 11.347656 4.589844 9.695312 3.902344 Z M 9.695312 3.902344 "/>
</g>
</svg>
