
<svg xmlns="http://www.w3.org/2000/svg" xmlns:xlink="http://www.w3.org/1999/xlink" width="16px" height="16px" viewBox="0 0 16 16" version="1.1">
<g id="surface1">
<path style="fill-rule:nonzero;fill:rgb(100%,100%,100%);fill-opacity:1;stroke-width:27.910587;stroke-linecap:butt;stroke-linejoin:miter;stroke:rgb(9.803922%,63.137255%,52.941176%);stroke-opacity:1;stroke-miterlimit:4;" d="M 85.41949 29.54449 L 430.91949 29.54449 C 461.79449 29.54449 486.79449 54.54449 486.79449 85.41949 L 486.79449 430.91949 C 486.79449 461.79449 461.79449 486.79449 430.91949 486.79449 L 85.41949 486.79449 C 54.54449 486.79449 29.54449 461.79449 29.54449 430.91949 L 29.54449 85.41949 C 29.54449 54.54449 54.54449 29.54449 85.41949 29.54449 Z M 85.41949 29.54449 " transform="matrix(0.03125,0,0,0.03125,-0.0677965,-0.0677965)"/>
<path style=" stroke:none;fill-rule:nonzero;fill:rgb(84.313725%,84.313725%,84.313725%);fill-opacity:1;" d="M 4.078125 10.402344 L 4.832031 10.402344 L 4.832031 11.71875 L 4.078125 11.71875 Z M 4.078125 10.402344 "/>
<path style=" stroke:none;fill-rule:nonzero;fill:rgb(84.313725%,84.313725%,84.313725%);fill-opacity:1;" d="M 4.722656 10.398438 L 5.472656 10.398438 L 5.472656 11.714844 L 4.722656 11.714844 Z M 4.722656 10.398438 "/>
<path style=" stroke:none;fill-rule:nonzero;fill:rgb(84.313725%,84.313725%,84.313725%);fill-opacity:1;" d="M 5.234375 10.398438 L 5.988281 10.398438 L 5.988281 11.714844 L 5.234375 11.714844 Z M 5.234375 10.398438 "/>
<path style=" stroke:none;fill-rule:nonzero;fill:rgb(97.254902%,87.058824%,40.784314%);fill-opacity:1;" d="M 4.179688 10.398438 L 4.929688 10.398438 L 4.929688 11.714844 L 4.179688 11.714844 Z M 4.179688 10.398438 "/>
<path style=" stroke:none;fill-rule:nonzero;fill:rgb(97.254902%,87.058824%,40.784314%);fill-opacity:1;" d="M 5.125 10.398438 L 5.878906 10.398438 L 5.878906 11.714844 L 5.125 11.714844 Z M 5.125 10.398438 "/>
<path style=" stroke:none;fill-rule:nonzero;fill:rgb(43.921569%,80%,70.196078%);fill-opacity:1;" d="M 3.617188 4.875 L 13.472656 4.875 C 13.800781 4.875 14.066406 5.140625 14.066406 5.46875 L 14.066406 10.179688 C 14.066406 10.507812 13.800781 10.773438 13.472656 10.773438 L 3.617188 10.773438 C 3.289062 10.773438 3.023438 10.507812 3.023438 10.179688 L 3.023438 5.46875 C 3.023438 5.140625 3.289062 4.875 3.617188 4.875 Z M 3.617188 4.875 "/>
<path style=" stroke:none;fill-rule:nonzero;fill:rgb(84.313725%,84.313725%,84.313725%);fill-opacity:1;" d="M 1.527344 3.199219 L 1.527344 3.710938 L 2.957031 3.710938 L 2.957031 10.773438 L 3.492188 10.773438 L 3.492188 3.199219 Z M 1.527344 3.199219 "/>
<path style=" stroke:none;fill-rule:nonzero;fill:rgb(9.803922%,63.137255%,52.941176%);fill-opacity:1;" d="M 9.246094 6.609375 L 9.246094 6.351562 L 8.761719 6.351562 L 8.761719 5.484375 L 4.347656 5.484375 L 4.347656 6.351562 L 3.863281 6.351562 L 3.863281 6.609375 L 4.347656 6.609375 L 4.347656 7.207031 L 3.863281 7.207031 L 3.863281 7.464844 L 4.347656 7.464844 L 4.347656 8.113281 L 3.863281 8.113281 L 3.863281 8.371094 L 4.347656 8.371094 L 4.347656 8.886719 L 3.863281 8.886719 L 3.863281 9.144531 L 4.347656 9.144531 L 4.347656 9.902344 L 8.761719 9.902344 L 8.761719 9.144531 L 9.246094 9.144531 L 9.246094 8.886719 L 8.761719 8.886719 L 8.761719 8.371094 L 9.246094 8.371094 L 9.246094 8.113281 L 8.761719 8.113281 L 8.761719 7.464844 L 9.246094 7.464844 L 9.246094 7.207031 L 8.761719 7.207031 L 8.761719 6.609375 Z M 9.246094 6.609375 "/>
<path style=" stroke:none;fill-rule:nonzero;fill:rgb(9.803922%,63.137255%,52.941176%);fill-opacity:1;" d="M 10.429688 6.175781 L 10.34375 6.179688 C 10.269531 6.179688 10.253906 6.183594 10.21875 6.203125 C 10.164062 6.226562 10.105469 6.285156 10.078125 6.339844 L 10.054688 6.382812 L 10.054688 7.757812 C 10.050781 8.746094 10.054688 9.140625 10.058594 9.167969 C 10.078125 9.25 10.15625 9.335938 10.242188 9.367188 C 10.269531 9.378906 10.304688 9.382812 10.355469 9.382812 L 10.429688 9.382812 L 10.441406 9.359375 C 10.460938 9.316406 10.492188 9.292969 10.535156 9.289062 C 10.582031 9.285156 10.617188 9.304688 10.640625 9.351562 L 10.652344 9.382812 L 12.753906 9.382812 L 12.765625 9.351562 C 12.785156 9.3125 12.8125 9.292969 12.855469 9.289062 C 12.914062 9.285156 12.972656 9.324219 12.972656 9.371094 C 12.972656 9.382812 12.980469 9.382812 13.011719 9.382812 C 13.097656 9.375 13.191406 9.304688 13.234375 9.21875 L 13.253906 9.175781 L 13.257812 7.792969 C 13.257812 6.433594 13.257812 6.414062 13.246094 6.371094 C 13.207031 6.265625 13.097656 6.175781 13 6.175781 C 12.980469 6.175781 12.972656 6.179688 12.972656 6.191406 C 12.972656 6.207031 12.941406 6.246094 12.914062 6.261719 C 12.890625 6.273438 12.847656 6.273438 12.824219 6.261719 C 12.796875 6.246094 12.765625 6.214844 12.757812 6.191406 L 12.753906 6.175781 L 10.652344 6.175781 L 10.640625 6.207031 C 10.597656 6.292969 10.484375 6.292969 10.445312 6.207031 Z M 10.429688 6.175781 "/>
<path style=" stroke:none;fill-rule:nonzero;fill:rgb(90.196078%,90.196078%,90.196078%);fill-opacity:1;" d="M 11.214844 6.902344 L 12.09375 6.902344 C 12.214844 6.902344 12.308594 6.996094 12.308594 7.117188 L 12.308594 7.191406 C 12.308594 7.3125 12.214844 7.40625 12.09375 7.40625 L 11.214844 7.40625 C 11.09375 7.40625 10.996094 7.3125 10.996094 7.191406 L 10.996094 7.117188 C 10.996094 6.996094 11.09375 6.902344 11.214844 6.902344 Z M 11.214844 6.902344 "/>
<path style=" stroke:none;fill-rule:nonzero;fill:rgb(90.196078%,90.196078%,90.196078%);fill-opacity:1;" d="M 11.328125 6.339844 L 11.328125 6.894531 C 11.328125 6.929688 11.300781 6.957031 11.265625 6.957031 L 11.246094 6.957031 C 11.210938 6.957031 11.183594 6.929688 11.183594 6.894531 L 11.183594 6.339844 C 11.183594 6.304688 11.210938 6.277344 11.246094 6.277344 L 11.265625 6.277344 C 11.300781 6.277344 11.328125 6.304688 11.328125 6.339844 Z M 11.328125 6.339844 "/>
<path style=" stroke:none;fill-rule:nonzero;fill:rgb(90.196078%,90.196078%,90.196078%);fill-opacity:1;" d="M 11.59375 6.339844 L 11.59375 6.894531 C 11.59375 6.929688 11.566406 6.957031 11.53125 6.957031 L 11.511719 6.957031 C 11.476562 6.957031 11.449219 6.929688 11.449219 6.894531 L 11.449219 6.339844 C 11.449219 6.304688 11.476562 6.277344 11.511719 6.277344 L 11.53125 6.277344 C 11.566406 6.277344 11.59375 6.304688 11.59375 6.339844 Z M 11.59375 6.339844 "/>
<path style=" stroke:none;fill-rule:nonzero;fill:rgb(90.196078%,90.196078%,90.196078%);fill-opacity:1;" d="M 11.855469 6.339844 L 11.855469 6.894531 C 11.855469 6.929688 11.828125 6.957031 11.792969 6.957031 L 11.773438 6.957031 C 11.738281 6.957031 11.710938 6.929688 11.710938 6.894531 L 11.710938 6.339844 C 11.710938 6.304688 11.738281 6.277344 11.773438 6.277344 L 11.792969 6.277344 C 11.828125 6.277344 11.855469 6.304688 11.855469 6.339844 Z M 11.855469 6.339844 "/>
<path style=" stroke:none;fill-rule:nonzero;fill:rgb(90.196078%,90.196078%,90.196078%);fill-opacity:1;" d="M 12.117188 6.339844 L 12.117188 6.894531 C 12.117188 6.929688 12.089844 6.957031 12.054688 6.957031 L 12.035156 6.957031 C 12 6.957031 11.972656 6.929688 11.972656 6.894531 L 11.972656 6.339844 C 11.972656 6.304688 12 6.277344 12.035156 6.277344 L 12.054688 6.277344 C 12.089844 6.277344 12.117188 6.304688 12.117188 6.339844 Z M 12.117188 6.339844 "/>
<path style=" stroke:none;fill-rule:nonzero;fill:rgb(90.196078%,90.196078%,90.196078%);fill-opacity:1;" d="M 12.53125 7.324219 L 12.53125 8.203125 C 12.53125 8.324219 12.433594 8.417969 12.316406 8.417969 L 12.242188 8.417969 C 12.121094 8.417969 12.023438 8.324219 12.023438 8.203125 L 12.023438 7.324219 C 12.023438 7.203125 12.121094 7.109375 12.242188 7.109375 L 12.316406 7.109375 C 12.433594 7.109375 12.53125 7.203125 12.53125 7.324219 Z M 12.53125 7.324219 "/>
<path style=" stroke:none;fill-rule:nonzero;fill:rgb(90.196078%,90.196078%,90.196078%);fill-opacity:1;" d="M 13.089844 7.4375 L 12.535156 7.4375 C 12.5 7.4375 12.472656 7.410156 12.472656 7.378906 L 12.472656 7.355469 C 12.472656 7.320312 12.5 7.292969 12.535156 7.292969 L 13.089844 7.292969 C 13.125 7.292969 13.152344 7.320312 13.152344 7.355469 L 13.152344 7.378906 C 13.152344 7.410156 13.125 7.4375 13.089844 7.4375 Z M 13.089844 7.4375 "/>
<path style=" stroke:none;fill-rule:nonzero;fill:rgb(90.196078%,90.196078%,90.196078%);fill-opacity:1;" d="M 13.09375 7.703125 L 12.535156 7.703125 C 12.5 7.703125 12.472656 7.675781 12.472656 7.640625 L 12.472656 7.621094 C 12.472656 7.585938 12.5 7.558594 12.535156 7.558594 L 13.09375 7.558594 C 13.125 7.558594 13.152344 7.585938 13.152344 7.621094 L 13.152344 7.640625 C 13.152344 7.675781 13.125 7.703125 13.09375 7.703125 Z M 13.09375 7.703125 "/>
<path style=" stroke:none;fill-rule:nonzero;fill:rgb(90.196078%,90.196078%,90.196078%);fill-opacity:1;" d="M 13.09375 7.964844 L 12.535156 7.964844 C 12.5 7.964844 12.472656 7.9375 12.472656 7.902344 L 12.472656 7.882812 C 12.472656 7.847656 12.5 7.820312 12.535156 7.820312 L 13.09375 7.820312 C 13.125 7.820312 13.152344 7.847656 13.152344 7.882812 L 13.152344 7.902344 C 13.152344 7.9375 13.125 7.964844 13.09375 7.964844 Z M 13.09375 7.964844 "/>
<path style=" stroke:none;fill-rule:nonzero;fill:rgb(90.196078%,90.196078%,90.196078%);fill-opacity:1;" d="M 13.09375 8.226562 L 12.535156 8.226562 C 12.503906 8.226562 12.476562 8.199219 12.476562 8.167969 L 12.476562 8.144531 C 12.476562 8.109375 12.503906 8.082031 12.535156 8.082031 L 13.09375 8.082031 C 13.128906 8.082031 13.15625 8.109375 13.15625 8.144531 L 13.15625 8.167969 C 13.15625 8.199219 13.128906 8.226562 13.09375 8.226562 Z M 13.09375 8.226562 "/>
<path style=" stroke:none;fill-rule:nonzero;fill:rgb(90.196078%,90.196078%,90.196078%);fill-opacity:1;" d="M 10.777344 7.328125 L 10.777344 8.210938 C 10.777344 8.328125 10.875 8.425781 10.992188 8.425781 L 11.070312 8.425781 C 11.1875 8.425781 11.285156 8.328125 11.285156 8.210938 L 11.285156 7.328125 C 11.285156 7.210938 11.1875 7.113281 11.070312 7.113281 L 10.992188 7.113281 C 10.875 7.113281 10.777344 7.210938 10.777344 7.328125 Z M 10.777344 7.328125 "/>
<path style=" stroke:none;fill-rule:nonzero;fill:rgb(90.196078%,90.196078%,90.196078%);fill-opacity:1;" d="M 10.21875 7.445312 L 10.773438 7.445312 C 10.808594 7.445312 10.835938 7.417969 10.835938 7.382812 L 10.835938 7.363281 C 10.835938 7.328125 10.808594 7.300781 10.773438 7.300781 L 10.21875 7.300781 C 10.183594 7.300781 10.15625 7.328125 10.15625 7.363281 L 10.15625 7.382812 C 10.15625 7.417969 10.183594 7.445312 10.21875 7.445312 Z M 10.21875 7.445312 "/>
<path style=" stroke:none;fill-rule:nonzero;fill:rgb(90.196078%,90.196078%,90.196078%);fill-opacity:1;" d="M 10.214844 7.710938 L 10.773438 7.710938 C 10.808594 7.710938 10.835938 7.679688 10.835938 7.648438 L 10.835938 7.625 C 10.835938 7.59375 10.808594 7.5625 10.773438 7.5625 L 10.214844 7.5625 C 10.183594 7.5625 10.15625 7.59375 10.15625 7.625 L 10.15625 7.648438 C 10.15625 7.679688 10.183594 7.710938 10.214844 7.710938 Z M 10.214844 7.710938 "/>
<path style=" stroke:none;fill-rule:nonzero;fill:rgb(90.196078%,90.196078%,90.196078%);fill-opacity:1;" d="M 10.214844 7.96875 L 10.773438 7.96875 C 10.808594 7.96875 10.835938 7.941406 10.835938 7.910156 L 10.835938 7.886719 C 10.835938 7.851562 10.808594 7.824219 10.773438 7.824219 L 10.214844 7.824219 C 10.183594 7.824219 10.15625 7.851562 10.15625 7.886719 L 10.15625 7.910156 C 10.15625 7.941406 10.183594 7.96875 10.214844 7.96875 Z M 10.214844 7.96875 "/>
<path style=" stroke:none;fill-rule:nonzero;fill:rgb(90.196078%,90.196078%,90.196078%);fill-opacity:1;" d="M 10.214844 8.234375 L 10.773438 8.234375 C 10.804688 8.234375 10.832031 8.207031 10.832031 8.171875 L 10.832031 8.152344 C 10.832031 8.117188 10.804688 8.089844 10.773438 8.089844 L 10.214844 8.089844 C 10.179688 8.089844 10.152344 8.117188 10.152344 8.152344 L 10.152344 8.171875 C 10.152344 8.207031 10.179688 8.234375 10.214844 8.234375 Z M 10.214844 8.234375 "/>
<path style=" stroke:none;fill-rule:nonzero;fill:rgb(90.196078%,90.196078%,90.196078%);fill-opacity:1;" d="M 11.21875 8.660156 L 12.097656 8.660156 C 12.21875 8.660156 12.316406 8.566406 12.316406 8.445312 L 12.316406 8.371094 C 12.316406 8.25 12.21875 8.15625 12.097656 8.15625 L 11.21875 8.15625 C 11.097656 8.15625 11.003906 8.25 11.003906 8.371094 L 11.003906 8.445312 C 11.003906 8.566406 11.097656 8.660156 11.21875 8.660156 Z M 11.21875 8.660156 "/>
<path style=" stroke:none;fill-rule:nonzero;fill:rgb(90.196078%,90.196078%,90.196078%);fill-opacity:1;" d="M 11.332031 9.222656 L 11.332031 8.667969 C 11.332031 8.632812 11.304688 8.605469 11.273438 8.605469 L 11.25 8.605469 C 11.214844 8.605469 11.1875 8.632812 11.1875 8.667969 L 11.1875 9.222656 C 11.1875 9.257812 11.214844 9.285156 11.25 9.285156 L 11.273438 9.285156 C 11.304688 9.285156 11.332031 9.257812 11.332031 9.222656 Z M 11.332031 9.222656 "/>
<path style=" stroke:none;fill-rule:nonzero;fill:rgb(90.196078%,90.196078%,90.196078%);fill-opacity:1;" d="M 11.597656 9.222656 L 11.597656 8.667969 C 11.597656 8.632812 11.570312 8.605469 11.535156 8.605469 L 11.515625 8.605469 C 11.480469 8.605469 11.453125 8.632812 11.453125 8.667969 L 11.453125 9.222656 C 11.453125 9.257812 11.480469 9.285156 11.515625 9.285156 L 11.535156 9.285156 C 11.570312 9.285156 11.597656 9.257812 11.597656 9.222656 Z M 11.597656 9.222656 "/>
<path style=" stroke:none;fill-rule:nonzero;fill:rgb(90.196078%,90.196078%,90.196078%);fill-opacity:1;" d="M 11.859375 9.222656 L 11.859375 8.667969 C 11.859375 8.632812 11.832031 8.605469 11.796875 8.605469 L 11.777344 8.605469 C 11.742188 8.605469 11.714844 8.632812 11.714844 8.667969 L 11.714844 9.222656 C 11.714844 9.257812 11.742188 9.285156 11.777344 9.285156 L 11.796875 9.285156 C 11.832031 9.285156 11.859375 9.257812 11.859375 9.222656 Z M 11.859375 9.222656 "/>
<path style=" stroke:none;fill-rule:nonzero;fill:rgb(90.196078%,90.196078%,90.196078%);fill-opacity:1;" d="M 12.121094 9.222656 L 12.121094 8.667969 C 12.121094 8.632812 12.09375 8.605469 12.0625 8.605469 L 12.039062 8.605469 C 12.003906 8.605469 11.976562 8.632812 11.976562 8.667969 L 11.976562 9.222656 C 11.976562 9.257812 12.003906 9.285156 12.039062 9.285156 L 12.0625 9.285156 C 12.09375 9.285156 12.121094 9.257812 12.121094 9.222656 Z M 12.121094 9.222656 "/>
<path style=" stroke:none;fill-rule:nonzero;fill:rgb(12.941176%,20.784314%,32.941176%);fill-opacity:1;" d="M 10.996094 8.464844 C 10.949219 8.441406 10.953125 8.484375 10.953125 7.773438 L 10.953125 7.121094 L 10.972656 7.105469 C 10.980469 7.09375 10.992188 7.082031 11 7.078125 C 11.015625 7.070312 12.292969 7.070312 12.308594 7.078125 C 12.316406 7.082031 12.328125 7.09375 12.335938 7.105469 L 12.355469 7.121094 L 12.355469 7.769531 C 12.355469 8.480469 12.355469 8.441406 12.3125 8.464844 C 12.285156 8.480469 11.027344 8.480469 10.996094 8.464844 Z M 12.246094 8.351562 C 12.257812 8.328125 12.246094 8.296875 12.226562 8.289062 C 12.175781 8.273438 12.144531 8.34375 12.191406 8.367188 C 12.214844 8.378906 12.238281 8.371094 12.246094 8.351562 Z M 11.128906 8.359375 C 11.144531 8.34375 11.136719 8.304688 11.117188 8.292969 C 11.082031 8.269531 11.042969 8.308594 11.0625 8.351562 C 11.070312 8.367188 11.078125 8.371094 11.09375 8.371094 C 11.109375 8.371094 11.125 8.367188 11.128906 8.359375 Z M 11.128906 7.246094 C 11.140625 7.230469 11.140625 7.191406 11.121094 7.183594 C 11.089844 7.164062 11.054688 7.183594 11.054688 7.21875 C 11.054688 7.242188 11.070312 7.253906 11.097656 7.253906 C 11.109375 7.253906 11.125 7.25 11.128906 7.246094 Z M 12.238281 7.242188 C 12.253906 7.230469 12.253906 7.207031 12.238281 7.1875 C 12.207031 7.152344 12.148438 7.195312 12.175781 7.238281 C 12.1875 7.257812 12.222656 7.261719 12.238281 7.242188 Z M 12.238281 7.242188 "/>
<path style=" stroke:none;fill-rule:evenodd;fill:rgb(97.254902%,87.058824%,40.784314%);fill-opacity:1;" d="M 11.03125 9.09375 L 11.257812 9.09375 L 11.257812 9.382812 L 11.03125 9.382812 Z M 11.03125 9.09375 "/>
<path style=" stroke:none;fill-rule:evenodd;fill:rgb(97.254902%,87.058824%,40.784314%);fill-opacity:1;" d="M 11.132812 8.882812 L 11.160156 8.882812 C 11.214844 8.882812 11.257812 8.929688 11.257812 8.984375 L 11.257812 9.089844 C 11.257812 9.144531 11.214844 9.191406 11.160156 9.191406 L 11.132812 9.191406 C 11.078125 9.191406 11.03125 9.144531 11.03125 9.089844 L 11.03125 8.984375 C 11.03125 8.929688 11.078125 8.882812 11.132812 8.882812 Z M 11.132812 8.882812 "/>
<path style=" stroke:none;fill-rule:evenodd;fill:rgb(97.254902%,87.058824%,40.784314%);fill-opacity:1;" d="M 11.339844 9.09375 L 11.566406 9.09375 L 11.566406 9.382812 L 11.339844 9.382812 Z M 11.339844 9.09375 "/>
<path style=" stroke:none;fill-rule:evenodd;fill:rgb(97.254902%,87.058824%,40.784314%);fill-opacity:1;" d="M 11.4375 8.882812 L 11.464844 8.882812 C 11.519531 8.882812 11.566406 8.929688 11.566406 8.984375 L 11.566406 9.089844 C 11.566406 9.144531 11.519531 9.191406 11.464844 9.191406 L 11.4375 9.191406 C 11.382812 9.191406 11.339844 9.144531 11.339844 9.089844 L 11.339844 8.984375 C 11.339844 8.929688 11.382812 8.882812 11.4375 8.882812 Z M 11.4375 8.882812 "/>
<path style=" stroke:none;fill-rule:evenodd;fill:rgb(97.254902%,87.058824%,40.784314%);fill-opacity:1;" d="M 11.746094 9.09375 L 11.972656 9.09375 L 11.972656 9.382812 L 11.746094 9.382812 Z M 11.746094 9.09375 "/>
<path style=" stroke:none;fill-rule:evenodd;fill:rgb(97.254902%,87.058824%,40.784314%);fill-opacity:1;" d="M 11.847656 8.882812 L 11.875 8.882812 C 11.929688 8.882812 11.972656 8.929688 11.972656 8.984375 L 11.972656 9.089844 C 11.972656 9.144531 11.929688 9.191406 11.875 9.191406 L 11.847656 9.191406 C 11.792969 9.191406 11.746094 9.144531 11.746094 9.089844 L 11.746094 8.984375 C 11.746094 8.929688 11.792969 8.882812 11.847656 8.882812 Z M 11.847656 8.882812 "/>
<path style=" stroke:none;fill-rule:evenodd;fill:rgb(97.254902%,87.058824%,40.784314%);fill-opacity:1;" d="M 12.046875 9.09375 L 12.273438 9.09375 L 12.273438 9.382812 L 12.046875 9.382812 Z M 12.046875 9.09375 "/>
<path style=" stroke:none;fill-rule:evenodd;fill:rgb(97.254902%,87.058824%,40.784314%);fill-opacity:1;" d="M 12.144531 8.882812 L 12.171875 8.882812 C 12.226562 8.882812 12.273438 8.929688 12.273438 8.984375 L 12.273438 9.089844 C 12.273438 9.144531 12.226562 9.191406 12.171875 9.191406 L 12.144531 9.191406 C 12.089844 9.191406 12.046875 9.144531 12.046875 9.089844 L 12.046875 8.984375 C 12.046875 8.929688 12.089844 8.882812 12.144531 8.882812 Z M 12.144531 8.882812 "/>
<path style=" stroke:none;fill-rule:nonzero;fill:rgb(90.196078%,90.196078%,90.196078%);fill-opacity:1;" d="M 5.523438 6.648438 L 5.523438 8.984375 L 5.800781 8.984375 L 5.800781 6.648438 Z M 5.945312 6.648438 L 5.945312 8.984375 L 6.222656 8.984375 L 6.222656 6.648438 Z M 6.367188 6.648438 L 6.367188 8.984375 L 6.644531 8.984375 L 6.644531 6.648438 Z M 6.800781 6.648438 L 6.800781 8.984375 L 7.078125 8.984375 L 7.078125 6.648438 Z M 7.230469 6.648438 L 7.230469 8.984375 L 7.507812 8.984375 L 7.507812 6.648438 Z M 7.230469 6.648438 "/>
</g>
</svg>
