
<svg xmlns="http://www.w3.org/2000/svg" xmlns:xlink="http://www.w3.org/1999/xlink" width="16px" height="16px" viewBox="0 0 16 16" version="1.1">
<g id="surface1">
<path style="fill-rule:nonzero;fill:rgb(100%,100%,100%);fill-opacity:1;stroke-width:27.910587;stroke-linecap:butt;stroke-linejoin:miter;stroke:rgb(9.019608%,36.078431%,60%);stroke-opacity:1;stroke-miterlimit:4;" d="M 83.25 27.375 L 428.75 27.375 C 459.625 27.375 484.625 52.375 484.625 83.25 L 484.625 428.75 C 484.625 459.625 459.625 484.625 428.75 484.625 L 83.25 484.625 C 52.375 484.625 27.375 459.625 27.375 428.75 L 27.375 83.25 C 27.375 52.375 52.375 27.375 83.25 27.375 Z M 83.25 27.375 " transform="matrix(0.03125,0,0,0.03125,0,0)"/>
<path style=" stroke:none;fill-rule:nonzero;fill:rgb(12.941176%,39.607843%,69.019608%);fill-opacity:1;" d="M 12.78125 2.085938 L 9.832031 3.34375 L 9.832031 8.441406 C 9.835938 9.507812 12.78125 9.269531 12.78125 8.496094 Z M 12.78125 2.085938 "/>
<path style=" stroke:none;fill-rule:nonzero;fill:rgb(12.941176%,39.607843%,69.019608%);fill-opacity:1;" d="M 5.410156 5.53125 L 2.464844 6.839844 L 2.464844 8.636719 C 2.464844 9.410156 2.5625 10.117188 2.765625 10.753906 C 2.964844 11.394531 3.273438 11.945312 3.691406 12.40625 C 4.046875 12.796875 4.484375 13.117188 5 13.363281 L 5.734375 13.59375 C 8.089844 13.34375 8.925781 11.660156 9.195312 11.128906 L 9.261719 10.957031 C 8.847656 11.394531 8.265625 11.667969 7.621094 11.667969 C 6.351562 11.667969 5.410156 10.613281 5.410156 9.308594 Z M 5.410156 5.53125 "/>
<path style=" stroke:none;fill-rule:nonzero;fill:rgb(49.411765%,75.686275%,51.372549%);fill-opacity:1;" d="M 9.832031 3.863281 L 9.832031 4.136719 C 9.832031 4.140625 9.832031 4.144531 9.832031 4.148438 L 9.832031 9.308594 C 9.832031 9.976562 9.644531 10.578125 9.210938 11.007812 C 9.226562 10.988281 9.246094 10.972656 9.261719 10.957031 L 9.195312 11.128906 C 8.925781 11.660156 7.695312 13.105469 5.339844 13.355469 L 5.035156 13.363281 C 5.109375 13.40625 5.191406 13.449219 5.285156 13.488281 C 5.925781 13.746094 6.691406 13.878906 7.578125 13.878906 L 7.574219 13.875 C 8.472656 13.875 9.25 13.75 9.90625 13.496094 C 10.558594 13.242188 11.097656 12.886719 11.523438 12.421875 C 11.949219 11.960938 12.265625 11.410156 12.472656 10.765625 C 12.675781 10.121094 12.78125 9.410156 12.78125 8.636719 L 12.78125 7.714844 C 12.589844 5.957031 10.996094 4.335938 9.832031 3.863281 Z M 9.191406 11.023438 C 9.136719 11.078125 9.078125 11.128906 9.019531 11.175781 C 9.078125 11.128906 9.136719 11.078125 9.191406 11.023438 Z M 9.191406 11.023438 "/>
</g>
</svg>
