
<svg xmlns="http://www.w3.org/2000/svg" xmlns:xlink="http://www.w3.org/1999/xlink" width="16px" height="16px" viewBox="0 0 16 16" version="1.1">
<g id="surface1">
<path style="fill-rule:nonzero;fill:rgb(100%,100%,100%);fill-opacity:1;stroke-width:27.478176;stroke-linecap:butt;stroke-linejoin:miter;stroke:rgb(100%,80%,0%);stroke-opacity:1;stroke-miterlimit:4;" d="M 85.875 31 L 426.125 31 C 456.5 31 481 55.5 481 85.875 L 481 426.125 C 481 456.5 456.5 481 426.125 481 L 85.875 481 C 55.5 481 31 456.5 31 426.125 L 31 85.875 C 31 55.5 55.5 31 85.875 31 Z M 85.875 31 " transform="matrix(0.03125,0,0,0.03125,0,0)"/>
<path style=" stroke:none;fill-rule:nonzero;fill:rgb(100%,80%,0%);fill-opacity:1;" d="M 8.074219 13.210938 C 8.253906 13.207031 8.480469 13.191406 8.78125 13.15625 C 9.863281 13.03125 10.421875 12.597656 10.671875 12.449219 C 10.921875 12.304688 11.796875 11.515625 11.796875 10.496094 L 11.796875 4.582031 L 12.058594 4.582031 C 12.152344 4.582031 12.246094 4.550781 12.292969 4.5 C 12.339844 4.449219 12.339844 4.382812 12.292969 4.335938 L 10.917969 2.875 C 10.871094 2.828125 10.785156 2.796875 10.695312 2.792969 C 10.6875 2.792969 10.679688 2.792969 10.671875 2.789062 C 10.667969 2.789062 10.667969 2.789062 10.667969 2.789062 C 10.578125 2.792969 10.492188 2.824219 10.445312 2.871094 L 9.066406 4.332031 C 9.019531 4.382812 9.015625 4.449219 9.066406 4.5 C 9.113281 4.550781 9.207031 4.582031 9.304688 4.582031 L 9.550781 4.582031 L 9.550781 10.742188 C 9.550781 11.136719 9.507812 11.433594 9.21875 11.847656 C 8.964844 12.207031 8.355469 12.285156 8.074219 12.300781 L 7.925781 12.300781 C 7.644531 12.285156 7.035156 12.207031 6.78125 11.847656 C 6.492188 11.433594 6.449219 11.136719 6.449219 10.742188 L 6.449219 4.582031 L 6.695312 4.582031 C 6.792969 4.582031 6.886719 4.550781 6.933594 4.5 C 6.984375 4.449219 6.980469 4.382812 6.933594 4.332031 L 5.554688 2.871094 C 5.507812 2.824219 5.421875 2.792969 5.328125 2.789062 C 5.320312 2.792969 5.3125 2.792969 5.304688 2.792969 C 5.214844 2.796875 5.128906 2.828125 5.082031 2.875 L 3.707031 4.335938 C 3.660156 4.382812 3.660156 4.449219 3.707031 4.5 C 3.753906 4.550781 3.847656 4.582031 3.941406 4.582031 L 4.203125 4.582031 L 4.203125 10.496094 C 4.203125 11.515625 5.078125 12.304688 5.328125 12.449219 C 5.578125 12.597656 6.136719 13.03125 7.21875 13.15625 C 7.519531 13.191406 7.746094 13.207031 7.925781 13.210938 Z M 8.074219 13.210938 "/>
</g>
</svg>
