
<svg xmlns="http://www.w3.org/2000/svg" xmlns:xlink="http://www.w3.org/1999/xlink" width="16px" height="16px" viewBox="0 0 16 16" version="1.1">
<g id="surface1">
<path style=" stroke:none;fill-rule:nonzero;fill:rgb(22.745098%,77.254902%,90.196078%);fill-opacity:1;" d="M 2.425781 0.6875 L 13.648438 0.6875 C 14.609375 0.6875 15.386719 1.464844 15.386719 2.425781 L 15.386719 13.648438 C 15.386719 14.609375 14.609375 15.386719 13.648438 15.386719 L 2.425781 15.386719 C 1.464844 15.386719 0.6875 14.609375 0.6875 13.648438 L 0.6875 2.425781 C 0.6875 1.464844 1.464844 0.6875 2.425781 0.6875 Z M 2.425781 0.6875 "/>
<path style=" stroke:none;fill-rule:nonzero;fill:rgb(100%,100%,100%);fill-opacity:1;" d="M 14.90625 8 C 14.90625 11.71875 11.960938 14.769531 8.242188 14.902344 C 4.523438 15.03125 1.371094 12.195312 1.113281 8.484375 C 0.851562 4.773438 3.578125 1.523438 7.273438 1.132812 C 10.972656 0.742188 14.316406 3.351562 14.835938 7.035156 "/>
<path style=" stroke:none;fill-rule:evenodd;fill:rgb(20.784314%,78.039216%,43.921569%);fill-opacity:1;" d="M 8.007812 3.390625 C 7.980469 3.390625 7.957031 3.390625 7.929688 3.394531 C 7.152344 3.453125 6.71875 4.402344 7.042969 5.441406 C 6.648438 4.773438 6.128906 4.261719 5.476562 4.265625 C 5.421875 4.265625 5.371094 4.269531 5.316406 4.277344 C 4.53125 4.382812 4.421875 5.363281 5.242188 5.820312 C 5.421875 5.921875 5.59375 6.042969 5.765625 6.175781 C 5.480469 6.015625 5.191406 5.914062 4.910156 5.914062 C 4.71875 5.914062 4.53125 5.960938 4.355469 6.066406 C 3.789062 6.398438 3.980469 7.164062 4.703125 7.316406 C 4.511719 7.367188 4.335938 7.460938 4.1875 7.617188 C 3.730469 8.101562 4.179688 8.800781 4.960938 8.667969 C 5.03125 8.65625 5.105469 8.644531 5.179688 8.640625 C 4.996094 8.722656 4.84375 8.855469 4.75 9.046875 C 4.523438 9.523438 5.027344 9.945312 5.585938 9.65625 C 6.019531 9.433594 6.585938 9.328125 7.070312 9.277344 L 7.148438 9.320312 L 7.066406 9.367188 L 7.1875 9.574219 L 7.066406 9.777344 L 7.148438 9.828125 L 7.066406 9.875 L 7.1875 10.078125 L 7.066406 10.285156 L 7.148438 10.332031 L 7.066406 10.378906 C 7.066406 10.378906 7.066406 10.382812 7.066406 10.382812 L 7.1875 10.585938 L 7.066406 10.792969 L 7.148438 10.839844 L 7.066406 10.886719 L 7.1875 11.09375 L 7.066406 11.296875 C 7.066406 11.296875 7.066406 11.296875 7.066406 11.300781 L 7.148438 11.347656 L 7.066406 11.394531 L 7.1875 11.601562 L 7.066406 11.804688 L 7.148438 11.851562 L 7.066406 11.898438 C 7.066406 11.902344 7.066406 11.902344 7.066406 11.902344 L 7.1875 12.105469 L 7.066406 12.3125 L 7.148438 12.359375 L 7.066406 12.40625 L 7.1875 12.613281 L 7.167969 12.644531 L 8.808594 12.644531 L 8.789062 12.613281 L 8.914062 12.40625 L 8.828125 12.359375 L 8.914062 12.3125 L 8.789062 12.105469 L 8.914062 11.902344 C 8.914062 11.902344 8.914062 11.902344 8.914062 11.898438 L 8.828125 11.851562 L 8.914062 11.804688 L 8.789062 11.601562 L 8.914062 11.394531 L 8.828125 11.347656 L 8.914062 11.300781 C 8.914062 11.296875 8.914062 11.296875 8.914062 11.296875 L 8.789062 11.09375 L 8.914062 10.886719 L 8.828125 10.839844 L 8.914062 10.792969 L 8.789062 10.585938 L 8.914062 10.382812 C 8.914062 10.382812 8.914062 10.378906 8.914062 10.378906 L 8.828125 10.332031 L 8.914062 10.285156 L 8.789062 10.078125 L 8.914062 9.875 L 8.828125 9.828125 L 8.914062 9.777344 L 8.789062 9.574219 L 8.914062 9.367188 L 8.828125 9.320312 L 8.910156 9.273438 C 9.402344 9.324219 9.976562 9.429688 10.414062 9.65625 C 10.972656 9.945312 11.476562 9.523438 11.25 9.046875 C 11.15625 8.855469 11.003906 8.722656 10.820312 8.640625 C 10.894531 8.644531 10.96875 8.65625 11.039062 8.667969 C 11.820312 8.800781 12.269531 8.101562 11.8125 7.617188 C 11.664062 7.460938 11.488281 7.367188 11.296875 7.316406 C 12.019531 7.164062 12.210938 6.398438 11.644531 6.066406 C 11.207031 5.808594 10.714844 5.90625 10.234375 6.175781 C 10.40625 6.042969 10.578125 5.921875 10.757812 5.820312 C 11.578125 5.363281 11.46875 4.382812 10.683594 4.277344 C 9.910156 4.171875 9.3125 4.789062 8.875 5.582031 C 9.25 4.320312 8.734375 3.398438 8.007812 3.390625 Z M 8.007812 3.390625 "/>
<path style=" stroke:none;fill-rule:evenodd;fill:rgb(22.745098%,77.254902%,90.196078%);fill-opacity:1;" d="M 5.519531 2.003906 C 3.101562 3.003906 1.523438 5.363281 1.523438 7.980469 C 1.527344 11.316406 4.058594 14.101562 7.378906 14.421875 L 7.378906 13.175781 C 4.746094 12.859375 2.765625 10.628906 2.765625 7.980469 C 2.765625 6.058594 3.824219 4.289062 5.519531 3.378906 Z M 10.480469 2.007812 L 10.480469 3.375 C 12.175781 4.289062 13.234375 6.058594 13.234375 7.980469 C 13.230469 10.628906 11.25 12.859375 8.621094 13.171875 L 8.621094 14.425781 C 11.941406 14.105469 14.476562 11.316406 14.476562 7.980469 C 14.472656 5.367188 12.898438 3.007812 10.480469 2.007812 Z M 10.480469 2.007812 "/>
</g>
</svg>
