
<svg xmlns="http://www.w3.org/2000/svg" xmlns:xlink="http://www.w3.org/1999/xlink" width="16px" height="16px" viewBox="0 0 16 16" version="1.1">
<g id="surface1">
<path style=" stroke:none;fill-rule:nonzero;fill:rgb(100%,100%,100%);fill-opacity:1;" d="M 15.085938 8 C 15.085938 11.816406 12.0625 14.945312 8.25 15.082031 C 4.433594 15.214844 1.199219 12.304688 0.933594 8.496094 C 0.664062 4.6875 3.460938 1.355469 7.257812 0.953125 C 11.050781 0.554688 14.480469 3.230469 15.015625 7.011719 "/>
<path style=" stroke:none;fill-rule:evenodd;fill:rgb(20.784314%,78.039216%,43.921569%);fill-opacity:1;" d="M 8.007812 3.269531 C 7.980469 3.269531 7.957031 3.273438 7.929688 3.273438 C 7.132812 3.335938 6.683594 4.308594 7.019531 5.375 C 6.613281 4.6875 6.082031 4.164062 5.410156 4.167969 C 5.355469 4.167969 5.300781 4.171875 5.246094 4.179688 C 4.441406 4.285156 4.328125 5.292969 5.171875 5.765625 C 5.351562 5.867188 5.53125 5.992188 5.707031 6.128906 C 5.414062 5.964844 5.117188 5.863281 4.828125 5.863281 C 4.632812 5.863281 4.441406 5.910156 4.261719 6.015625 C 3.679688 6.355469 3.875 7.140625 4.617188 7.300781 C 4.417969 7.347656 4.238281 7.445312 4.089844 7.605469 C 3.621094 8.101562 4.078125 8.824219 4.882812 8.683594 C 4.957031 8.671875 5.03125 8.664062 5.109375 8.65625 C 4.917969 8.742188 4.761719 8.878906 4.667969 9.074219 C 4.429688 9.5625 4.949219 9.996094 5.523438 9.699219 C 5.96875 9.472656 6.546875 9.363281 7.046875 9.308594 L 7.128906 9.355469 L 7.039062 9.402344 L 7.167969 9.613281 L 7.039062 9.824219 L 7.128906 9.875 L 7.039062 9.921875 L 7.167969 10.132812 L 7.039062 10.34375 L 7.128906 10.394531 L 7.039062 10.441406 C 7.039062 10.441406 7.039062 10.441406 7.039062 10.445312 L 7.167969 10.652344 L 7.039062 10.863281 L 7.128906 10.914062 L 7.039062 10.960938 C 7.039062 10.960938 7.039062 10.960938 7.039062 10.964844 L 7.167969 11.171875 L 7.039062 11.382812 C 7.039062 11.382812 7.039062 11.382812 7.039062 11.386719 L 7.128906 11.433594 L 7.039062 11.480469 C 7.039062 11.480469 7.039062 11.484375 7.039062 11.484375 L 7.167969 11.691406 L 7.039062 11.902344 C 7.039062 11.902344 7.039062 11.90625 7.039062 11.90625 L 7.128906 11.953125 L 7.039062 12 C 7.039062 12.003906 7.039062 12.003906 7.039062 12.003906 L 7.167969 12.214844 L 7.039062 12.421875 C 7.039062 12.425781 7.039062 12.425781 7.039062 12.425781 L 7.128906 12.472656 L 7.039062 12.523438 L 7.167969 12.734375 L 7.148438 12.765625 L 8.828125 12.765625 L 8.808594 12.734375 L 8.9375 12.523438 L 8.847656 12.472656 L 8.9375 12.425781 C 8.9375 12.425781 8.9375 12.425781 8.9375 12.421875 L 8.808594 12.214844 L 8.9375 12.003906 C 8.9375 12.003906 8.9375 12.003906 8.9375 12 L 8.847656 11.953125 L 8.9375 11.90625 C 8.9375 11.90625 8.9375 11.902344 8.9375 11.902344 L 8.808594 11.691406 L 8.9375 11.484375 C 8.9375 11.484375 8.9375 11.480469 8.9375 11.480469 L 8.847656 11.433594 L 8.9375 11.386719 C 8.9375 11.382812 8.9375 11.382812 8.9375 11.382812 L 8.808594 11.171875 L 8.9375 10.964844 C 8.9375 10.960938 8.9375 10.960938 8.9375 10.960938 L 8.847656 10.914062 L 8.9375 10.863281 L 8.808594 10.652344 L 8.9375 10.445312 C 8.9375 10.441406 8.9375 10.441406 8.9375 10.441406 L 8.847656 10.394531 L 8.9375 10.34375 L 8.808594 10.132812 L 8.9375 9.921875 L 8.847656 9.875 L 8.9375 9.824219 L 8.808594 9.613281 L 8.9375 9.402344 L 8.847656 9.355469 L 8.933594 9.308594 C 9.4375 9.359375 10.027344 9.46875 10.476562 9.699219 C 11.050781 9.996094 11.570312 9.5625 11.332031 9.074219 C 11.238281 8.878906 11.082031 8.742188 10.890625 8.65625 C 10.96875 8.664062 11.042969 8.671875 11.117188 8.683594 C 11.921875 8.824219 12.378906 8.101562 11.910156 7.605469 C 11.761719 7.445312 11.582031 7.347656 11.382812 7.300781 C 12.125 7.140625 12.320312 6.355469 11.738281 6.015625 C 11.289062 5.75 10.785156 5.851562 10.292969 6.128906 C 10.46875 5.988281 10.648438 5.867188 10.828125 5.765625 C 11.671875 5.292969 11.558594 4.285156 10.753906 4.179688 C 9.957031 4.074219 9.347656 4.707031 8.898438 5.519531 C 9.28125 4.222656 8.753906 3.277344 8.007812 3.269531 Z M 8.007812 3.269531 "/>
<path style=" stroke:none;fill-rule:evenodd;fill:rgb(22.745098%,77.254902%,90.196078%);fill-opacity:1;" d="M 5.453125 1.847656 C 2.972656 2.875 1.355469 5.296875 1.355469 7.980469 C 1.359375 11.402344 3.957031 14.261719 7.363281 14.589844 L 7.363281 13.308594 C 4.664062 12.988281 2.632812 10.699219 2.628906 7.980469 C 2.632812 6.007812 3.714844 4.195312 5.453125 3.257812 Z M 10.546875 1.851562 L 10.546875 3.253906 C 12.285156 4.191406 13.371094 6.007812 13.371094 7.980469 C 13.367188 10.699219 11.335938 12.984375 8.636719 13.308594 L 8.636719 14.59375 C 12.042969 14.265625 14.644531 11.402344 14.644531 7.980469 C 14.640625 5.296875 13.023438 2.878906 10.546875 1.851562 Z M 10.546875 1.851562 "/>
</g>
</svg>
