
<svg xmlns="http://www.w3.org/2000/svg" xmlns:xlink="http://www.w3.org/1999/xlink" width="16px" height="16px" viewBox="0 0 16 16" version="1.1">
<g id="surface1">
<path style=" stroke:none;fill-rule:evenodd;fill:rgb(80%,61.176471%,41.960784%);fill-opacity:1;" d="M 2.390625 0.765625 L 13.609375 0.765625 C 14.507812 0.765625 15.234375 1.492188 15.234375 2.390625 L 15.234375 13.609375 C 15.234375 14.507812 14.507812 15.234375 13.609375 15.234375 L 2.390625 15.234375 C 1.492188 15.234375 0.765625 14.507812 0.765625 13.609375 L 0.765625 2.390625 C 0.765625 1.492188 1.492188 0.765625 2.390625 0.765625 Z M 2.390625 0.765625 "/>
<path style=" stroke:none;fill-rule:nonzero;fill:rgb(0%,0%,0%);fill-opacity:0.25098;" d="M 4.363281 3.316406 C 4.363281 3.714844 4.039062 4.035156 3.644531 4.035156 C 3.246094 4.035156 2.921875 3.714844 2.921875 3.316406 C 2.921875 2.917969 3.246094 2.597656 3.644531 2.597656 C 4.039062 2.597656 4.363281 2.917969 4.363281 3.316406 M 4.363281 3.316406 "/>
<path style=" stroke:none;fill-rule:nonzero;fill:rgb(0%,0%,0%);fill-opacity:0.25098;" d="M 13.074219 3.367188 C 13.074219 3.765625 12.753906 4.085938 12.355469 4.085938 C 11.960938 4.085938 11.636719 3.765625 11.636719 3.367188 C 11.636719 2.96875 11.960938 2.648438 12.355469 2.648438 C 12.753906 2.648438 13.074219 2.96875 13.074219 3.367188 M 13.074219 3.367188 "/>
<path style=" stroke:none;fill-rule:nonzero;fill:rgb(100%,100%,100%);fill-opacity:1;" d="M 15.625 10.875 C 15.625 13.386719 13.636719 15.445312 11.128906 15.53125 C 8.621094 15.621094 6.496094 13.707031 6.320312 11.203125 C 6.144531 8.699219 7.980469 6.507812 10.476562 6.246094 C 12.972656 5.980469 15.226562 7.742188 15.578125 10.226562 "/>
<path style=" stroke:none;fill-rule:evenodd;fill:rgb(20.784314%,78.039216%,43.921569%);fill-opacity:1;" d="M 10.972656 7.765625 C 10.953125 7.765625 10.9375 7.769531 10.917969 7.769531 C 10.394531 7.808594 10.101562 8.449219 10.320312 9.152344 C 10.054688 8.699219 9.703125 8.355469 9.261719 8.355469 C 9.226562 8.355469 9.191406 8.359375 9.15625 8.363281 C 8.628906 8.433594 8.554688 9.097656 9.105469 9.40625 C 9.226562 9.472656 9.34375 9.554688 9.457031 9.644531 C 9.265625 9.539062 9.070312 9.46875 8.882812 9.46875 C 8.753906 9.46875 8.628906 9.5 8.507812 9.570312 C 8.125 9.796875 8.253906 10.3125 8.742188 10.414062 C 8.613281 10.449219 8.496094 10.511719 8.394531 10.617188 C 8.085938 10.945312 8.390625 11.417969 8.914062 11.328125 C 8.964844 11.320312 9.015625 11.3125 9.066406 11.308594 C 8.9375 11.363281 8.839844 11.453125 8.773438 11.582031 C 8.621094 11.902344 8.960938 12.1875 9.335938 11.996094 C 9.628906 11.84375 10.011719 11.773438 10.339844 11.738281 L 10.394531 11.765625 L 10.335938 11.796875 C 10.335938 11.796875 10.335938 11.800781 10.335938 11.800781 L 10.417969 11.9375 L 10.335938 12.074219 C 10.335938 12.074219 10.335938 12.078125 10.335938 12.078125 L 10.394531 12.109375 L 10.335938 12.140625 L 10.417969 12.28125 L 10.335938 12.417969 L 10.394531 12.449219 L 10.335938 12.480469 C 10.335938 12.480469 10.335938 12.484375 10.335938 12.484375 L 10.417969 12.621094 L 10.335938 12.757812 C 10.335938 12.757812 10.335938 12.761719 10.335938 12.761719 L 10.394531 12.792969 L 10.335938 12.824219 L 10.417969 12.964844 L 10.335938 13.101562 L 10.394531 13.132812 L 10.335938 13.164062 C 10.335938 13.164062 10.335938 13.167969 10.335938 13.167969 L 10.417969 13.304688 L 10.335938 13.441406 C 10.335938 13.441406 10.335938 13.445312 10.335938 13.445312 L 10.394531 13.476562 L 10.335938 13.507812 L 10.417969 13.644531 L 10.335938 13.785156 L 10.394531 13.816406 L 10.335938 13.847656 C 10.335938 13.847656 10.335938 13.851562 10.335938 13.851562 L 10.417969 13.988281 L 10.40625 14.007812 L 11.511719 14.007812 L 11.5 13.988281 L 11.582031 13.851562 C 11.582031 13.851562 11.582031 13.847656 11.582031 13.847656 L 11.523438 13.816406 L 11.582031 13.785156 L 11.5 13.644531 L 11.582031 13.507812 L 11.523438 13.476562 L 11.582031 13.445312 C 11.582031 13.445312 11.582031 13.441406 11.582031 13.441406 L 11.5 13.304688 L 11.582031 13.167969 C 11.582031 13.167969 11.582031 13.164062 11.582031 13.164062 L 11.523438 13.132812 L 11.582031 13.101562 L 11.5 12.960938 L 11.582031 12.824219 L 11.523438 12.792969 L 11.582031 12.761719 C 11.582031 12.761719 11.582031 12.757812 11.582031 12.757812 L 11.5 12.621094 L 11.582031 12.484375 C 11.582031 12.484375 11.582031 12.480469 11.582031 12.480469 L 11.523438 12.449219 L 11.582031 12.417969 L 11.5 12.28125 L 11.582031 12.140625 L 11.523438 12.109375 L 11.582031 12.078125 C 11.582031 12.078125 11.582031 12.074219 11.582031 12.074219 L 11.5 11.9375 L 11.582031 11.800781 C 11.582031 11.800781 11.582031 11.796875 11.582031 11.796875 L 11.523438 11.765625 L 11.582031 11.734375 C 11.910156 11.769531 12.296875 11.839844 12.59375 11.996094 C 12.972656 12.1875 13.3125 11.902344 13.15625 11.582031 C 13.09375 11.453125 12.992188 11.363281 12.867188 11.308594 C 12.917969 11.3125 12.96875 11.320312 13.015625 11.328125 C 13.542969 11.417969 13.847656 10.945312 13.539062 10.617188 C 13.4375 10.511719 13.320312 10.449219 13.191406 10.414062 C 13.675781 10.3125 13.808594 9.796875 13.425781 9.570312 C 13.128906 9.398438 12.796875 9.464844 12.472656 9.644531 C 12.589844 9.554688 12.707031 9.472656 12.828125 9.40625 C 13.378906 9.097656 13.304688 8.433594 12.777344 8.363281 C 12.253906 8.292969 11.851562 8.710938 11.554688 9.246094 C 11.808594 8.394531 11.460938 7.773438 10.972656 7.765625 Z M 10.972656 7.765625 "/>
<path style=" stroke:none;fill-rule:evenodd;fill:rgb(22.745098%,77.254902%,90.196078%);fill-opacity:1;" d="M 9.292969 6.832031 C 7.660156 7.507812 6.597656 9.097656 6.597656 10.863281 C 6.601562 13.113281 8.308594 14.992188 10.546875 15.207031 L 10.546875 14.367188 C 8.773438 14.15625 7.4375 12.652344 7.433594 10.863281 C 7.4375 9.566406 8.148438 8.375 9.292969 7.757812 Z M 12.640625 6.832031 L 12.640625 7.757812 C 13.785156 8.371094 14.496094 9.566406 14.496094 10.863281 C 14.496094 12.652344 13.160156 14.152344 11.386719 14.367188 L 11.386719 15.210938 C 13.625 14.996094 15.335938 13.113281 15.335938 10.863281 C 15.332031 9.101562 14.269531 7.507812 12.640625 6.832031 Z M 12.640625 6.832031 "/>
<path style=" stroke:none;fill-rule:nonzero;fill:rgb(40%,40%,40%);fill-opacity:1;" d="M 3.53125 3.78125 C 4.96875 11.457031 11.207031 11.457031 12.644531 3.78125 C 12.746094 3.136719 12.300781 3.121094 12.164062 3.78125 C 11.207031 10.773438 4.96875 10.734375 4.011719 3.78125 C 3.921875 3.148438 3.445312 3.175781 3.53125 3.78125 M 3.53125 3.78125 "/>
</g>
</svg>
