
<svg xmlns="http://www.w3.org/2000/svg" xmlns:xlink="http://www.w3.org/1999/xlink" width="16px" height="16px" viewBox="0 0 16 16" version="1.1">
<g id="surface1">
<path style=" stroke:none;fill-rule:nonzero;fill:rgb(38.039216%,47.058824%,49.803922%);fill-opacity:1;" d="M 4.570312 3.679688 L 9.148438 3.679688 L 9.148438 0.816406 L 4.570312 0.816406 Z M 4.570312 3.679688 "/>
<path style=" stroke:none;fill-rule:nonzero;fill:rgb(100%,100%,100%);fill-opacity:0.654902;" d="M 5.234375 2.625 L 6.378906 2.625 L 6.378906 1.480469 L 5.234375 1.480469 Z M 5.234375 2.625 "/>
<path style=" stroke:none;fill-rule:nonzero;fill:rgb(0.784314%,20%,23.921569%);fill-opacity:0.654902;" d="M 5.144531 2.53125 L 6.289062 2.53125 L 6.289062 1.390625 L 5.144531 1.390625 Z M 5.144531 2.53125 "/>
<path style=" stroke:none;fill-rule:nonzero;fill:rgb(100%,100%,100%);fill-opacity:0.654902;" d="M 7.523438 2.625 L 8.667969 2.625 L 8.667969 1.480469 L 7.523438 1.480469 Z M 7.523438 2.625 "/>
<path style=" stroke:none;fill-rule:nonzero;fill:rgb(0.784314%,20%,23.921569%);fill-opacity:0.654902;" d="M 7.433594 2.53125 L 8.578125 2.53125 L 8.578125 1.390625 L 7.433594 1.390625 Z M 7.433594 2.53125 "/>
<path style="fill-rule:nonzero;fill:rgb(13.72549%,68.235294%,87.058824%);fill-opacity:1;stroke-width:9.766254;stroke-linecap:butt;stroke-linejoin:miter;stroke:rgb(13.72549%,68.235294%,87.058824%);stroke-opacity:1;stroke-miterlimit:4;" d="M 118.875 122.625 L 320.25 122.625 C 328.625 122.625 335.375 129.25 335.375 137.625 L 335.375 473.75 C 335.375 482.125 328.625 488.875 320.25 488.875 L 118.875 488.875 C 110.5 488.875 103.75 482.125 103.75 473.75 L 103.75 137.625 C 103.75 129.25 110.5 122.625 118.875 122.625 Z M 118.875 122.625 " transform="matrix(0.03125,0,0,0.03125,0,0)"/>
<path style=" stroke:none;fill-rule:nonzero;fill:rgb(92.156863%,94.117647%,94.117647%);fill-opacity:1;" d="M 7.8125 7.019531 L 7.8125 6.085938 L 8.75 6.085938 L 8.75 7.019531 Z M 7.8125 7.019531 "/>
<path style=" stroke:none;fill-rule:nonzero;fill:rgb(92.156863%,94.117647%,94.117647%);fill-opacity:1;" d="M 6.949219 10.554688 C 7.300781 10.554688 7.585938 10.839844 7.585938 11.191406 C 7.585938 11.542969 7.300781 11.828125 6.949219 11.828125 C 6.597656 11.828125 6.3125 11.542969 6.3125 11.191406 C 6.3125 10.839844 6.597656 10.554688 6.949219 10.554688 Z M 6.949219 10.554688 "/>
<path style=" stroke:none;fill-rule:nonzero;fill:rgb(92.156863%,94.117647%,94.117647%);fill-opacity:1;" d="M 5.753906 6.90625 C 6.066406 6.90625 6.320312 7.160156 6.320312 7.472656 C 6.320312 7.785156 6.066406 8.035156 5.753906 8.035156 C 5.441406 8.035156 5.191406 7.785156 5.191406 7.472656 C 5.191406 7.160156 5.441406 6.90625 5.753906 6.90625 Z M 5.753906 6.90625 "/>
<path style=" stroke:none;fill-rule:evenodd;fill:rgb(92.156863%,94.117647%,94.117647%);fill-opacity:1;" d="M 6.449219 5.519531 C 6.449219 5.519531 6.949219 4.386719 6.964844 4.402344 C 6.976562 4.417969 7.460938 5.519531 7.460938 5.519531 Z M 6.449219 5.519531 "/>
<path style="fill:none;stroke-width:5.573362;stroke-linecap:butt;stroke-linejoin:miter;stroke:rgb(92.156863%,94.117647%,94.117647%);stroke-opacity:1;stroke-miterlimit:2.012602;" d="M 222.375 327.875 C 219.625 302.25 182.375 289.5 182.25 274.625 C 182.125 264.5 182.625 260.125 182.5 247.25 " transform="matrix(0.03125,0,0,0.03125,0,0)"/>
<path style="fill:none;stroke-width:5.573362;stroke-linecap:butt;stroke-linejoin:miter;stroke:rgb(92.156863%,94.117647%,94.117647%);stroke-opacity:1;stroke-miterlimit:2.012602;" d="M 222.375 300.5 C 222.375 275.25 250.125 269.375 263.875 250.625 C 266 247.5 264.625 218.875 264.625 217.125 " transform="matrix(0.03125,0,0,0.03125,0,0)"/>
<path style="fill:none;stroke-width:5.573362;stroke-linecap:butt;stroke-linejoin:miter;stroke:rgb(92.156863%,94.117647%,94.117647%);stroke-opacity:1;stroke-miterlimit:2.012602;" d="M 222.25 358.5 L 222.25 168.875 " transform="matrix(0.03125,0,0,0.03125,0,0)"/>
<path style=" stroke:none;fill-rule:nonzero;fill:rgb(100%,100%,100%);fill-opacity:1;" d="M 14.625 11.933594 C 14.625 13.710938 13.214844 15.167969 11.4375 15.230469 C 9.660156 15.292969 8.152344 13.9375 8.027344 12.164062 C 7.902344 10.390625 9.207031 8.835938 10.976562 8.648438 C 12.746094 8.460938 14.34375 9.710938 14.589844 11.472656 "/>
<path style=" stroke:none;fill-rule:evenodd;fill:rgb(20.784314%,78.039216%,43.921569%);fill-opacity:1;" d="M 11.324219 9.726562 C 11.3125 9.726562 11.300781 9.726562 11.289062 9.730469 C 10.917969 9.757812 10.707031 10.210938 10.863281 10.710938 C 10.675781 10.390625 10.425781 10.144531 10.113281 10.144531 C 10.089844 10.144531 10.0625 10.148438 10.039062 10.152344 C 9.664062 10.203125 9.609375 10.671875 10.003906 10.890625 C 10.089844 10.9375 10.171875 10.996094 10.253906 11.058594 C 10.117188 10.984375 9.976562 10.933594 9.84375 10.933594 C 9.753906 10.933594 9.664062 10.957031 9.578125 11.007812 C 9.308594 11.164062 9.398438 11.53125 9.746094 11.605469 C 9.652344 11.628906 9.570312 11.675781 9.5 11.75 C 9.28125 11.980469 9.496094 12.316406 9.867188 12.25 C 9.902344 12.246094 9.9375 12.242188 9.972656 12.238281 C 9.886719 12.277344 9.8125 12.339844 9.769531 12.433594 C 9.660156 12.660156 9.902344 12.863281 10.167969 12.726562 C 10.375 12.617188 10.644531 12.566406 10.878906 12.542969 L 10.914062 12.5625 L 10.875 12.585938 L 10.933594 12.683594 L 10.875 12.78125 L 10.914062 12.804688 L 10.875 12.828125 L 10.933594 12.925781 L 10.875 13.023438 L 10.914062 13.046875 L 10.875 13.070312 L 10.933594 13.167969 L 10.875 13.265625 L 10.914062 13.289062 L 10.875 13.3125 L 10.933594 13.410156 L 10.875 13.507812 L 10.914062 13.53125 L 10.875 13.554688 L 10.933594 13.652344 L 10.875 13.75 C 10.875 13.75 10.875 13.75 10.875 13.753906 L 10.914062 13.773438 L 10.875 13.796875 L 10.933594 13.894531 L 10.875 13.992188 C 10.875 13.992188 10.875 13.996094 10.875 13.996094 L 10.914062 14.015625 L 10.875 14.039062 L 10.933594 14.136719 L 10.925781 14.152344 L 11.707031 14.152344 L 11.699219 14.136719 L 11.757812 14.039062 L 11.71875 14.015625 L 11.757812 13.996094 C 11.757812 13.996094 11.757812 13.992188 11.757812 13.992188 L 11.699219 13.894531 L 11.757812 13.796875 L 11.71875 13.773438 L 11.757812 13.753906 C 11.757812 13.75 11.757812 13.75 11.757812 13.75 L 11.699219 13.652344 L 11.757812 13.554688 L 11.71875 13.53125 L 11.757812 13.507812 L 11.699219 13.410156 L 11.757812 13.3125 L 11.71875 13.289062 L 11.757812 13.265625 L 11.699219 13.167969 L 11.757812 13.070312 L 11.71875 13.046875 L 11.757812 13.023438 L 11.699219 12.925781 L 11.757812 12.828125 L 11.71875 12.804688 L 11.757812 12.78125 L 11.699219 12.683594 L 11.757812 12.585938 L 11.71875 12.5625 L 11.757812 12.542969 C 11.992188 12.566406 12.265625 12.617188 12.476562 12.726562 C 12.742188 12.863281 12.984375 12.660156 12.875 12.433594 C 12.832031 12.339844 12.757812 12.277344 12.667969 12.238281 C 12.707031 12.242188 12.742188 12.246094 12.777344 12.25 C 13.148438 12.316406 13.363281 11.980469 13.144531 11.75 C 13.074219 11.675781 12.992188 11.628906 12.898438 11.605469 C 13.242188 11.53125 13.335938 11.164062 13.066406 11.007812 C 12.855469 10.882812 12.621094 10.929688 12.390625 11.058594 C 12.472656 10.996094 12.554688 10.9375 12.640625 10.890625 C 13.03125 10.671875 12.980469 10.203125 12.605469 10.152344 C 12.234375 10.101562 11.949219 10.398438 11.742188 10.777344 C 11.917969 10.171875 11.671875 9.730469 11.324219 9.726562 Z M 11.324219 9.726562 "/>
<path style=" stroke:none;fill-rule:evenodd;fill:rgb(22.745098%,77.254902%,90.196078%);fill-opacity:1;" d="M 10.136719 9.0625 C 8.980469 9.542969 8.226562 10.671875 8.226562 11.921875 C 8.226562 13.519531 9.4375 14.851562 11.023438 15.003906 L 11.023438 14.40625 C 9.765625 14.257812 8.820312 13.191406 8.820312 11.921875 C 8.820312 11.003906 9.324219 10.15625 10.136719 9.722656 Z M 12.507812 9.066406 L 12.507812 9.71875 C 13.320312 10.15625 13.824219 11.003906 13.824219 11.921875 C 13.824219 13.191406 12.875 14.253906 11.621094 14.40625 L 11.621094 15.003906 C 13.207031 14.851562 14.417969 13.519531 14.417969 11.921875 C 14.417969 10.671875 13.664062 9.546875 12.507812 9.066406 Z M 12.507812 9.066406 "/>
</g>
</svg>
