
<svg xmlns="http://www.w3.org/2000/svg" xmlns:xlink="http://www.w3.org/1999/xlink" width="16px" height="16px" viewBox="0 0 16 16" version="1.1">
<g id="surface1">
<path style="fill-rule:nonzero;fill:rgb(20%,27.843137%,36.078431%);fill-opacity:1;stroke-width:27.936705;stroke-linecap:butt;stroke-linejoin:miter;stroke:rgb(36.862745%,39.607843%,41.568627%);stroke-opacity:1;stroke-miterlimit:4;" d="M 83 24.955509 L 429 24.955509 C 459.75 24.955509 484.875 50.080509 484.875 80.830509 L 484.875 426.830509 C 484.875 457.580509 459.75 482.705509 429 482.705509 L 83 482.705509 C 52.25 482.705509 27.125 457.580509 27.125 426.830509 L 27.125 80.830509 C 27.125 50.080509 52.25 24.955509 83 24.955509 Z M 83 24.955509 " transform="matrix(0.03125,0,0,0.03125,0.0000000115814,0.0677966)"/>
<path style=" stroke:none;fill-rule:nonzero;fill:rgb(15.686275%,20.784314%,24.705882%);fill-opacity:1;" d="M 4.515625 2.023438 L 4.515625 4.738281 L 1.28125 4.738281 L 1.28125 4.945312 L 4.515625 4.945312 L 4.515625 5.992188 L 1.28125 5.992188 L 1.28125 6.199219 L 4.515625 6.199219 L 4.515625 7.660156 L 1.28125 7.660156 L 1.28125 7.871094 L 4.515625 7.871094 L 4.515625 9.125 L 1.28125 9.125 L 1.28125 9.332031 L 4.515625 9.332031 L 4.515625 10.378906 L 1.28125 10.378906 L 1.28125 10.585938 L 4.515625 10.585938 L 4.515625 13.300781 L 4.765625 13.300781 L 4.765625 10.585938 L 6.007812 10.585938 L 6.007812 13.300781 L 6.257812 13.300781 L 6.257812 10.585938 L 8 10.585938 L 8 13.300781 L 8.246094 13.300781 L 8.246094 10.585938 L 9.738281 10.585938 L 9.738281 13.300781 L 9.988281 13.300781 L 9.988281 10.585938 L 11.230469 10.585938 L 11.230469 13.300781 L 11.480469 13.300781 L 11.480469 10.585938 L 14.714844 10.585938 L 14.714844 10.378906 L 11.480469 10.378906 L 11.480469 9.332031 L 14.714844 9.332031 L 14.714844 9.125 L 11.480469 9.125 L 11.480469 7.871094 L 14.714844 7.871094 L 14.714844 7.660156 L 11.480469 7.660156 L 11.480469 6.199219 L 14.714844 6.199219 L 14.714844 5.992188 L 11.480469 5.992188 L 11.480469 4.945312 L 14.714844 4.945312 L 14.714844 4.738281 L 11.480469 4.738281 L 11.480469 2.023438 L 11.230469 2.023438 L 11.230469 4.738281 L 9.988281 4.738281 L 9.988281 2.023438 L 9.738281 2.023438 L 9.738281 4.738281 L 8.246094 4.738281 L 8.246094 2.023438 L 8 2.023438 L 8 4.738281 L 6.257812 4.738281 L 6.257812 2.023438 L 6.007812 2.023438 L 6.007812 4.738281 L 4.765625 4.738281 L 4.765625 2.023438 Z M 4.765625 4.945312 L 6.007812 4.945312 L 6.007812 5.992188 L 4.765625 5.992188 Z M 6.257812 4.945312 L 8 4.945312 L 8 5.992188 L 6.257812 5.992188 Z M 8.246094 4.945312 L 9.738281 4.945312 L 9.738281 5.992188 L 8.246094 5.992188 Z M 9.988281 4.945312 L 11.230469 4.945312 L 11.230469 5.992188 L 9.988281 5.992188 Z M 4.765625 6.199219 L 6.007812 6.199219 L 6.007812 7.660156 L 4.765625 7.660156 Z M 6.257812 6.199219 L 8 6.199219 L 8 7.660156 L 6.257812 7.660156 Z M 8.246094 6.199219 L 9.738281 6.199219 L 9.738281 7.660156 L 8.246094 7.660156 Z M 9.988281 6.199219 L 11.230469 6.199219 L 11.230469 7.660156 L 9.988281 7.660156 Z M 4.765625 7.871094 L 6.007812 7.871094 L 6.007812 9.125 L 4.765625 9.125 Z M 6.257812 7.871094 L 8 7.871094 L 8 9.125 L 6.257812 9.125 Z M 8.246094 7.871094 L 9.738281 7.871094 L 9.738281 9.125 L 8.246094 9.125 Z M 9.988281 7.871094 L 11.230469 7.871094 L 11.230469 9.125 L 9.988281 9.125 Z M 4.765625 9.332031 L 6.007812 9.332031 L 6.007812 10.378906 L 4.765625 10.378906 Z M 6.257812 9.332031 L 8 9.332031 L 8 10.378906 L 6.257812 10.378906 Z M 8.246094 9.332031 L 9.738281 9.332031 L 9.738281 10.378906 L 8.246094 10.378906 Z M 9.988281 9.332031 L 11.230469 9.332031 L 11.230469 10.378906 L 9.988281 10.378906 Z M 9.988281 9.332031 "/>
<path style=" stroke:none;fill-rule:nonzero;fill:rgb(97.254902%,87.058824%,40.784314%);fill-opacity:1;" d="M 12.722656 5.335938 L 10.984375 6.222656 L 9.492188 6 L 8.246094 6.886719 L 7.003906 6.664062 L 6.257812 6.886719 L 5.757812 7.105469 L 5.011719 7.105469 L 4.765625 7.328125 L 3.519531 7.105469 L 2.527344 7.550781 L 2.277344 7.328125 L 1.28125 9.394531 L 1.28125 13.300781 L 14.714844 13.300781 L 14.714844 5.558594 L 13.71875 5.558594 Z M 12.722656 5.335938 "/>
<path style=" stroke:none;fill-rule:nonzero;fill:rgb(9.803922%,63.137255%,52.941176%);fill-opacity:1;" d="M 10.238281 7.992188 L 9.242188 8.210938 L 8.496094 8.875 L 6.753906 8.875 L 6.007812 9.097656 L 5.511719 9.097656 L 4.515625 10.425781 L 4.265625 10.203125 L 3.273438 11.972656 L 2.027344 11.53125 L 1.28125 12.027344 L 1.28125 13.300781 L 14.714844 13.300781 L 14.714844 7.992188 Z M 10.238281 7.992188 "/>
<path style=" stroke:none;fill-rule:nonzero;fill:rgb(30.980392%,72.156863%,76.078431%);fill-opacity:1;" d="M 11.976562 7.328125 L 10.238281 8.433594 L 9.492188 9.097656 L 8.496094 9.320312 L 7.5 9.097656 L 6.503906 9.097656 L 4.765625 11.089844 L 4.265625 10.867188 L 3.273438 11.972656 L 2.773438 11.972656 L 2.527344 12.195312 L 2.027344 11.972656 L 1.28125 12.472656 L 1.28125 13.300781 L 14.714844 13.300781 L 14.714844 7.550781 L 14.464844 7.550781 L 13.96875 7.769531 L 12.972656 7.992188 Z M 11.976562 7.328125 "/>
</g>
</svg>
