
<svg xmlns="http://www.w3.org/2000/svg" xmlns:xlink="http://www.w3.org/1999/xlink" width="16px" height="16px" viewBox="0 0 16 16" version="1.1">
<g id="surface1">
<path style="fill-rule:nonzero;fill:rgb(92.156863%,92.156863%,92.156863%);fill-opacity:1;stroke-width:27.442497;stroke-linecap:butt;stroke-linejoin:miter;stroke:rgb(0%,65.882353%,83.137255%);stroke-opacity:1;stroke-miterlimit:4;" d="M 86.125 31.25 L 425.875 31.25 C 456.25 31.25 480.75 55.75 480.75 86.125 L 480.75 425.875 C 480.75 456.25 456.25 480.75 425.875 480.75 L 86.125 480.75 C 55.75 480.75 31.25 456.25 31.25 425.875 L 31.25 86.125 C 31.25 55.75 55.75 31.25 86.125 31.25 Z M 86.125 31.25 " transform="matrix(0.03125,0,0,0.03125,0,0)"/>
<path style=" stroke:none;fill-rule:evenodd;fill:rgb(49.803922%,49.803922%,49.803922%);fill-opacity:1;" d="M 7.09375 12.363281 L 5.625 13.328125 L 10.402344 13.328125 L 8.933594 12.363281 Z M 7.09375 12.363281 "/>
<path style=" stroke:none;fill-rule:evenodd;fill:rgb(49.803922%,49.803922%,49.803922%);fill-opacity:1;" d="M 7.09375 12.070312 L 5.625 13.035156 L 10.402344 13.035156 L 8.933594 12.070312 Z M 7.09375 12.070312 "/>
<path style=" stroke:none;fill-rule:nonzero;fill:rgb(29.803922%,29.803922%,29.803922%);fill-opacity:1;" d="M 6.992188 10.300781 L 9.039062 10.300781 L 9.039062 12.578125 L 6.992188 12.578125 Z M 6.992188 10.300781 "/>
<path style=" stroke:none;fill-rule:nonzero;fill:rgb(49.803922%,49.803922%,49.803922%);fill-opacity:1;" d="M 2.9375 2.671875 L 13.089844 2.671875 C 13.445312 2.671875 13.734375 2.945312 13.734375 3.285156 L 13.734375 10.398438 C 13.734375 10.734375 13.445312 11.011719 13.089844 11.011719 L 2.9375 11.011719 C 2.582031 11.011719 2.292969 10.734375 2.292969 10.398438 L 2.292969 3.285156 C 2.292969 2.945312 2.582031 2.671875 2.9375 2.671875 Z M 2.9375 2.671875 "/>
<path style=" stroke:none;fill-rule:nonzero;fill:rgb(0%,65.882353%,83.137255%);fill-opacity:1;" d="M 3.367188 3.453125 L 12.664062 3.453125 L 12.664062 10.230469 L 3.367188 10.230469 Z M 3.367188 3.453125 "/>
<path style=" stroke:none;fill-rule:evenodd;fill:rgb(0%,0%,0%);fill-opacity:1;" d="M 5.625 13.035156 L 5.625 13.328125 L 10.40625 13.328125 L 10.40625 13.035156 Z M 5.625 13.035156 "/>
<path style=" stroke:none;fill-rule:nonzero;fill:rgb(100%,100%,100%);fill-opacity:1;" d="M 9.019531 9.015625 L 8.492188 9.015625 L 8.492188 9.574219 L 9.019531 9.574219 Z M 8.230469 9.015625 L 7.703125 9.015625 L 7.703125 9.574219 L 8.230469 9.574219 Z M 7.4375 9.015625 L 6.914062 9.015625 L 6.914062 9.574219 L 7.4375 9.574219 Z M 7.4375 9.015625 "/>
<path style=" stroke:none;fill-rule:evenodd;fill:rgb(20%,20%,20%);fill-opacity:1;" d="M 3.335938 3.46875 L 3.335938 4 L 12.640625 4 L 12.640625 3.46875 Z M 3.335938 3.46875 "/>
<path style=" stroke:none;fill-rule:nonzero;fill:rgb(100%,100%,100%);fill-opacity:1;" d="M 5.726562 4.507812 L 3.785156 5.710938 L 5.722656 6.847656 Z M 5.726562 5.171875 L 5.726562 6.179688 L 10.007812 6.179688 L 10.007812 5.171875 Z M 5.726562 5.171875 "/>
<path style=" stroke:none;fill-rule:nonzero;fill:rgb(100%,100%,100%);fill-opacity:1;" d="M 10.1875 6.671875 L 12.128906 7.878906 L 10.195312 9.015625 Z M 10.1875 7.335938 L 10.1875 8.34375 L 5.90625 8.34375 L 5.90625 7.335938 Z M 10.1875 7.335938 "/>
</g>
</svg>
