
<svg xmlns="http://www.w3.org/2000/svg" xmlns:xlink="http://www.w3.org/1999/xlink" width="16px" height="16px" viewBox="0 0 16 16" version="1.1">
<g id="surface1">
<path style="fill-rule:nonzero;fill:rgb(20%,27.843137%,36.078431%);fill-opacity:1;stroke-width:27.936705;stroke-linecap:butt;stroke-linejoin:miter;stroke:rgb(20%,27.843137%,36.078431%);stroke-opacity:1;stroke-miterlimit:4;" d="M 83 27.125 L 429 27.125 C 459.75 27.125 484.875 52.25 484.875 83 L 484.875 429 C 484.875 459.75 459.75 484.875 429 484.875 L 83 484.875 C 52.25 484.875 27.125 459.75 27.125 429 L 27.125 83 C 27.125 52.25 52.25 27.125 83 27.125 Z M 83 27.125 " transform="matrix(0.03125,0,0,0.03125,0,0)"/>
<path style=" stroke:none;fill-rule:nonzero;fill:rgb(20%,59.215686%,85.098039%);fill-opacity:1;" d="M 2.800781 1.121094 C 1.871094 1.121094 1.121094 1.871094 1.121094 2.800781 L 1.121094 13.199219 C 1.121094 13.257812 1.125 13.316406 1.128906 13.371094 C 1.136719 13.425781 1.144531 13.484375 1.15625 13.539062 C 1.164062 13.59375 1.179688 13.644531 1.195312 13.699219 C 1.277344 13.960938 1.421875 14.199219 1.613281 14.386719 C 1.652344 14.425781 1.691406 14.460938 1.730469 14.496094 C 1.773438 14.53125 1.816406 14.5625 1.859375 14.59375 C 1.890625 14.609375 1.917969 14.628906 1.949219 14.644531 C 2.011719 14.683594 2.078125 14.71875 2.148438 14.746094 C 2.195312 14.769531 2.25 14.789062 2.300781 14.804688 C 2.355469 14.820312 2.40625 14.835938 2.460938 14.84375 C 2.515625 14.855469 2.574219 14.863281 2.628906 14.871094 C 2.683594 14.875 2.742188 14.878906 2.800781 14.878906 L 13.199219 14.878906 C 13.257812 14.878906 13.316406 14.875 13.371094 14.871094 C 13.425781 14.863281 13.484375 14.855469 13.539062 14.84375 C 13.59375 14.835938 13.644531 14.820312 13.699219 14.804688 C 14.085938 14.683594 14.414062 14.425781 14.625 14.085938 C 14.640625 14.058594 14.660156 14.027344 14.679688 13.996094 C 14.707031 13.945312 14.730469 13.886719 14.753906 13.832031 C 14.761719 13.8125 14.769531 13.792969 14.777344 13.777344 C 14.789062 13.734375 14.804688 13.695312 14.816406 13.652344 C 14.820312 13.628906 14.828125 13.609375 14.832031 13.585938 C 14.84375 13.542969 14.851562 13.5 14.859375 13.457031 C 14.859375 13.4375 14.863281 13.414062 14.867188 13.394531 C 14.875 13.332031 14.878906 13.269531 14.878906 13.203125 C 14.878906 13.203125 14.878906 13.199219 14.878906 13.199219 L 14.878906 5.886719 L 10.113281 1.121094 Z M 2.800781 1.121094 "/>
<path style=" stroke:none;fill-rule:nonzero;fill:rgb(100%,100%,100%);fill-opacity:1;" d="M 14.878906 5.886719 L 10.113281 1.121094 L 10.113281 4.207031 C 10.113281 5.132812 10.867188 5.886719 11.792969 5.886719 Z M 14.878906 5.886719 "/>
</g>
</svg>
