
<svg xmlns="http://www.w3.org/2000/svg" xmlns:xlink="http://www.w3.org/1999/xlink" width="16px" height="16px" viewBox="0 0 16 16" version="1.1">
<g id="surface1">
<path style="fill-rule:nonzero;fill:rgb(74.117647%,76.078431%,78.039216%);fill-opacity:1;stroke-width:20.298223;stroke-linecap:butt;stroke-linejoin:miter;stroke:rgb(29.019608%,68.235294%,90.196078%);stroke-opacity:1;stroke-miterlimit:4;" d="M 117.353686 102.771366 L 368.61241 102.771366 C 391.069233 102.771366 409.200357 120.919215 409.200357 143.392457 L 409.200357 394.641424 C 409.200357 417.114666 391.069233 435.262514 368.61241 435.262514 L 117.353686 435.262514 C 94.896863 435.262514 76.765739 417.114666 76.765739 394.641424 L 76.765739 143.392457 C 76.765739 120.919215 94.896863 102.771366 117.353686 102.771366 Z M 117.353686 102.771366 " transform="matrix(0.0424426,0,0,0.0415425,-2.312822,-3.175625)"/>
<path style=" stroke:none;fill-rule:nonzero;fill:rgb(15.686275%,49.803922%,72.156863%);fill-opacity:1;" d="M 8.304688 2.160156 L 8.304688 7.703125 L 13.96875 7.703125 L 13.96875 3.511719 C 13.96875 2.765625 13.347656 2.160156 12.585938 2.160156 Z M 8.304688 2.160156 "/>
<path style=" stroke:none;fill-rule:nonzero;fill:rgb(15.686275%,49.803922%,72.156863%);fill-opacity:1;" d="M 7.695312 13.839844 L 7.695312 8.296875 L 2.03125 8.296875 L 2.03125 12.488281 C 2.03125 13.234375 2.652344 13.839844 3.414062 13.839844 Z M 7.695312 13.839844 "/>
<path style=" stroke:none;fill-rule:nonzero;fill:rgb(54.901961%,25.882353%,67.058824%);fill-opacity:1;" d="M 2.03125 7.703125 L 7.695312 7.703125 L 7.695312 2.160156 L 3.414062 2.160156 C 2.652344 2.160156 2.03125 2.765625 2.03125 3.511719 Z M 2.03125 7.703125 "/>
<path style=" stroke:none;fill-rule:nonzero;fill:rgb(54.901961%,25.882353%,67.058824%);fill-opacity:1;" d="M 13.96875 8.296875 L 8.304688 8.296875 L 8.304688 13.839844 L 12.585938 13.839844 C 13.347656 13.839844 13.96875 13.234375 13.96875 12.488281 Z M 13.96875 8.296875 "/>
</g>
</svg>
