
<svg xmlns="http://www.w3.org/2000/svg" xmlns:xlink="http://www.w3.org/1999/xlink" width="16px" height="16px" viewBox="0 0 16 16" version="1.1">
<defs>
<radialGradient id="radial0" gradientUnits="userSpaceOnUse" cx="-495.98746" cy="-87.834587" fx="-495.98746" fy="-87.834587" r="88.03125" gradientTransform="matrix(0.0421593,0,0,0.0430044,27.747787,8.319297)">
<stop offset="0" style="stop-color:rgb(23.921569%,33.72549%,43.137255%);stop-opacity:1;"/>
<stop offset="1" style="stop-color:rgb(23.921569%,33.72549%,43.137255%);stop-opacity:0;"/>
</radialGradient>
<linearGradient id="linear0" gradientUnits="userSpaceOnUse" x1="-516.70276" y1="20.883038" x2="-518.81342" y2="29.600176" gradientTransform="matrix(0.0421593,0,0,0.0421593,27.747787,7.498211)">
<stop offset="0" style="stop-color:rgb(45.490196%,40.784314%,42.352941%);stop-opacity:1;"/>
<stop offset="1" style="stop-color:rgb(89.411765%,88.235294%,88.627451%);stop-opacity:1;"/>
</linearGradient>
<linearGradient id="linear1" gradientUnits="userSpaceOnUse" x1="-130.89725" y1="16.472939" x2="-128.05614" y2="38.053318" gradientTransform="matrix(0.0421593,0,0,0.0421593,17.207955,7.498211)">
<stop offset="0" style="stop-color:rgb(45.490196%,40.784314%,42.352941%);stop-opacity:1;"/>
<stop offset="1" style="stop-color:rgb(89.411765%,88.235294%,88.627451%);stop-opacity:1;"/>
</linearGradient>
<radialGradient id="radial1" gradientUnits="userSpaceOnUse" cx="-500.14664" cy="-15.092947" fx="-500.14664" fy="-15.092947" r="26.649689" gradientTransform="matrix(0.0421593,0,0,0.0140908,27.747787,7.074574)">
<stop offset="0" style="stop-color:rgb(98.039216%,82.745098%,29.411765%);stop-opacity:1;"/>
<stop offset="1" style="stop-color:rgb(98.039216%,73.72549%,21.568627%);stop-opacity:1;"/>
</radialGradient>
<radialGradient id="radial2" gradientUnits="userSpaceOnUse" cx="-400.11536" cy="-16.508318" fx="-400.11536" fy="-16.508318" r="15.88463" gradientTransform="matrix(0.0421593,0,0,0.0225643,27.747787,7.174731)">
<stop offset="0" style="stop-color:rgb(98.039216%,82.745098%,29.411765%);stop-opacity:1;"/>
<stop offset="1" style="stop-color:rgb(98.039216%,73.72549%,21.568627%);stop-opacity:1;"/>
</radialGradient>
</defs>
<g id="surface2">
<path style="fill-rule:nonzero;fill:rgb(68.235294%,57.647059%,50.588235%);fill-opacity:1;stroke-width:27.565153;stroke-linecap:butt;stroke-linejoin:miter;stroke:rgb(20%,27.843137%,36.078431%);stroke-opacity:1;stroke-miterlimit:4;" d="M 85.375 30.25 L 426.625 30.25 C 457.125 30.25 481.75 54.875 481.75 85.375 L 481.75 426.625 C 481.75 457.125 457.125 481.75 426.625 481.75 L 85.375 481.75 C 54.875 481.75 30.25 457.125 30.25 426.625 L 30.25 85.375 C 30.25 54.875 54.875 30.25 85.375 30.25 Z M 85.375 30.25 " transform="matrix(0.03125,0,0,0.03125,0,0)"/>
<path style=" stroke:none;fill-rule:nonzero;fill:rgb(63.137255%,50.980392%,43.137255%);fill-opacity:1;" d="M 2.808594 1.421875 L 7.890625 8.644531 L 5.757812 1.421875 Z M 7.890625 8.644531 L 10.230469 1.421875 L 7.808594 1.421875 Z M 7.890625 8.644531 L 14.664062 4.988281 L 14.664062 2.335938 C 14.664062 2 14.480469 1.707031 14.210938 1.546875 Z M 7.890625 8.644531 L 14.664062 9.90625 L 14.664062 6.660156 Z M 7.890625 8.644531 L 10.816406 14.648438 L 13.742188 14.648438 C 14.136719 14.648438 14.476562 14.398438 14.605469 14.050781 Z M 7.890625 8.644531 L 5.9375 14.648438 L 8.199219 14.648438 Z M 7.890625 8.644531 L 1.488281 14.234375 C 1.652344 14.484375 1.9375 14.648438 2.257812 14.648438 L 4.179688 14.648438 Z M 7.890625 8.644531 L 1.335938 8.773438 L 1.335938 12.25 Z M 7.890625 8.644531 L 1.335938 5.03125 L 1.335938 7.476562 Z M 7.890625 8.644531 "/>
<path style=" stroke:none;fill-rule:nonzero;fill:rgb(0%,0%,0%);fill-opacity:1;" d="M 9.976562 12.402344 C 9.164062 12.332031 8.789062 12.238281 8.648438 12.070312 C 8.613281 12.03125 8.511719 12.007812 8.339844 12.007812 C 7.972656 12.007812 7.609375 11.914062 7.472656 11.78125 C 7.390625 11.699219 7.316406 11.671875 7.191406 11.671875 C 6.929688 11.671875 6.023438 11.542969 5.96875 11.5 C 5.9375 11.472656 5.902344 11.480469 5.871094 11.519531 C 5.757812 11.65625 5.066406 11.722656 4.675781 11.628906 C 4.578125 11.609375 4.429688 11.578125 4.34375 11.566406 C 4.152344 11.539062 4.097656 11.402344 4.222656 11.269531 C 4.351562 11.132812 4.332031 11.023438 4.160156 10.960938 C 4.015625 10.910156 3.59375 10.617188 3.363281 10.410156 C 3.191406 10.253906 2.976562 9.902344 2.894531 9.640625 C 2.855469 9.519531 2.800781 9.351562 2.773438 9.269531 C 2.746094 9.1875 2.730469 8.90625 2.734375 8.628906 C 2.746094 8.054688 2.84375 7.664062 3.054688 7.34375 C 3.246094 7.054688 3.855469 6.457031 4.558594 5.867188 C 4.949219 5.542969 5.277344 5.222656 5.464844 4.992188 C 6.246094 4.027344 6.40625 3.851562 6.660156 3.675781 C 7.0625 3.402344 7.773438 3.21875 8.398438 3.222656 C 8.871094 3.226562 9.265625 3.347656 9.648438 3.605469 C 9.785156 3.695312 9.949219 3.792969 10.011719 3.820312 C 10.238281 3.921875 10.417969 4.09375 10.734375 4.507812 C 11.085938 4.96875 11.289062 5.347656 11.429688 5.789062 C 11.566406 6.230469 11.828125 6.734375 12.023438 6.949219 C 12.183594 7.125 12.621094 7.746094 12.738281 7.964844 C 12.765625 8.015625 12.804688 8.15625 12.824219 8.273438 C 12.839844 8.390625 12.886719 8.640625 12.925781 8.828125 C 13.070312 9.5625 12.945312 10.285156 12.609375 10.621094 C 12.519531 10.714844 12.445312 10.796875 12.445312 10.808594 C 12.445312 10.820312 12.554688 10.828125 12.6875 10.828125 C 13.097656 10.828125 13.558594 11.113281 13.480469 11.316406 C 13.441406 11.425781 13.09375 11.550781 12.773438 11.566406 C 12.609375 11.578125 12.464844 11.597656 12.453125 11.609375 C 12.441406 11.621094 12.457031 11.628906 12.488281 11.632812 C 12.585938 11.632812 12.75 11.792969 12.726562 11.859375 C 12.664062 12.015625 11.925781 12.234375 11.226562 12.304688 C 10.378906 12.386719 10.085938 12.410156 9.976562 12.402344 Z M 9.976562 12.402344 "/>
<path style=" stroke:none;fill-rule:nonzero;fill:rgb(22.745098%,31.764706%,40.784314%);fill-opacity:1;" d="M 7.503906 3.539062 C 6.957031 3.738281 6.347656 4.007812 6.0625 4.605469 C 5.824219 5.101562 5.324219 5.492188 4.910156 5.828125 C 4.394531 6.113281 3.796875 6.816406 3.449219 7.261719 C 3.113281 7.769531 3.085938 7.949219 2.941406 8.5625 C 2.800781 9.152344 3.160156 9.785156 3.429688 10.257812 C 3.761719 10.621094 4.375 10.824219 4.617188 11.136719 C 4.316406 11.136719 4.105469 11.519531 4.523438 11.542969 C 4.921875 11.59375 5.601562 11.71875 5.824219 11.378906 C 5.480469 10.980469 6.070312 11.507812 6.285156 11.457031 C 6.816406 11.664062 7.347656 11.414062 7.886719 11.460938 C 8.109375 11.445312 8.617188 11.570312 8.125 11.519531 C 7.867188 11.394531 7.359375 11.675781 7.804688 11.839844 C 8.375 11.753906 8.828125 12.027344 9.308594 12.242188 C 10.03125 12.371094 10.523438 12.265625 11.210938 12.234375 C 11.554688 12.058594 12.09375 12.136719 12.34375 11.820312 C 11.816406 11.558594 11.320312 11.257812 10.734375 11.109375 C 10.273438 10.976562 9.558594 11.667969 9.46875 11.667969 C 9.9375 11.300781 10.4375 10.769531 11.097656 11.035156 C 11.664062 11.183594 12.140625 11.496094 12.773438 11.480469 C 13.371094 11.46875 13.402344 10.8125 12.808594 10.839844 C 12.5625 10.777344 11.929688 10.957031 11.925781 10.929688 C 12.496094 10.761719 12.667969 10.144531 12.816406 9.6875 C 12.804688 9.105469 12.792969 8.503906 12.542969 7.972656 C 12.171875 7.554688 11.914062 6.984375 11.519531 6.578125 C 11.300781 6.121094 11.125 5.640625 10.855469 5.203125 C 10.613281 4.835938 10.410156 4.277344 9.996094 4.105469 C 9.617188 3.832031 9.21875 3.535156 8.761719 3.460938 C 8.339844 3.414062 7.902344 3.390625 7.503906 3.539062 Z M 7.503906 3.539062 "/>
<path style=" stroke:none;fill-rule:nonzero;fill:rgb(22.745098%,31.764706%,40.784314%);fill-opacity:1;" d="M 8.125 3.425781 C 7.914062 3.433594 7.703125 3.464844 7.503906 3.539062 C 6.957031 3.738281 6.347656 4.007812 6.0625 4.605469 C 5.824219 5.101562 5.324219 5.488281 4.910156 5.828125 C 4.394531 6.113281 3.796875 6.816406 3.449219 7.261719 C 3.179688 7.671875 3.105469 7.871094 3.011719 8.253906 C 2.953125 8.625 2.945312 8.992188 3.082031 9.363281 C 3.425781 10.089844 4.222656 10.558594 5.023438 10.519531 C 6.058594 10.742188 7.089844 10.441406 8.121094 10.367188 C 8.964844 10.390625 9.886719 10.746094 10.644531 10.191406 C 11.203125 9.664062 11.339844 8.835938 11.460938 8.109375 C 11.636719 7.210938 10.015625 7.128906 10.742188 6.195312 C 10.859375 5.914062 10.914062 5.605469 10.910156 5.292969 C 10.890625 5.261719 10.875 5.230469 10.855469 5.203125 C 10.613281 4.835938 10.410156 4.277344 9.996094 4.105469 C 9.617188 3.832031 9.222656 3.539062 8.761719 3.460938 C 8.550781 3.4375 8.335938 3.417969 8.125 3.425781 Z M 13.078125 10.886719 C 12.949219 10.902344 12.824219 10.941406 12.699219 10.957031 C 12.507812 10.988281 12.480469 11.25 12.65625 11.328125 C 12.722656 11.371094 12.78125 11.425781 12.84375 11.476562 C 13.269531 11.425781 13.355469 11.027344 13.078125 10.886719 Z M 4.757812 11.195312 C 4.628906 11.195312 4.511719 11.199219 4.46875 11.214844 C 4.425781 11.230469 4.371094 11.261719 4.320312 11.292969 C 4.320312 11.292969 4.320312 11.292969 4.320312 11.296875 C 4.25 11.402344 4.289062 11.53125 4.523438 11.542969 C 4.816406 11.582031 5.257812 11.660156 5.558594 11.5625 C 5.515625 11.511719 5.453125 11.464844 5.433594 11.429688 C 5.398438 11.355469 5.351562 11.324219 5.292969 11.265625 C 5.246094 11.214844 4.980469 11.195312 4.757812 11.195312 Z M 10.660156 11.316406 C 10.378906 11.316406 10.097656 11.359375 9.824219 11.429688 C 9.644531 11.554688 9.503906 11.667969 9.46875 11.667969 C 9.554688 11.601562 9.640625 11.53125 9.730469 11.457031 C 9.589844 11.5 9.449219 11.546875 9.308594 11.605469 C 8.84375 11.621094 8.257812 11.320312 7.792969 11.457031 C 7.824219 11.457031 7.855469 11.460938 7.886719 11.460938 C 8.105469 11.445312 8.621094 11.570312 8.125 11.519531 C 7.867188 11.398438 7.359375 11.675781 7.804688 11.84375 C 8.375 11.753906 8.828125 12.027344 9.308594 12.242188 C 10.03125 12.371094 10.523438 12.265625 11.210938 12.234375 C 11.554688 12.058594 12.09375 12.136719 12.34375 11.820312 C 12.089844 11.695312 11.839844 11.558594 11.589844 11.4375 C 11.429688 11.402344 11.269531 11.382812 11.128906 11.359375 C 10.96875 11.332031 10.816406 11.320312 10.660156 11.316406 Z M 10.660156 11.316406 "/>
<path style=" stroke:none;fill-rule:nonzero;fill:rgb(22.745098%,31.764706%,40.784314%);fill-opacity:1;" d="M 8.125 3.425781 C 7.914062 3.433594 7.703125 3.464844 7.503906 3.539062 C 6.957031 3.738281 6.347656 4.007812 6.0625 4.605469 C 5.824219 5.101562 5.324219 5.488281 4.910156 5.828125 C 4.394531 6.113281 3.796875 6.816406 3.449219 7.261719 C 3.113281 7.769531 3.082031 7.949219 2.941406 8.5625 C 2.921875 8.636719 2.914062 8.710938 2.910156 8.785156 C 2.910156 8.785156 2.910156 8.789062 2.910156 8.789062 C 2.953125 9.023438 3.046875 9.242188 3.222656 9.425781 C 3.902344 10.386719 5.09375 10.574219 6.1875 10.449219 C 7.402344 10.035156 8.53125 10.207031 9.734375 10.144531 C 10.785156 10.097656 11.464844 8.675781 11.011719 7.78125 C 10.289062 7.351562 10.164062 6.410156 10.597656 5.742188 C 10.558594 5.4375 10.585938 5.097656 10.597656 4.757812 C 10.441406 4.484375 10.261719 4.214844 9.996094 4.105469 C 9.617188 3.832031 9.222656 3.539062 8.761719 3.460938 C 8.550781 3.4375 8.335938 3.417969 8.125 3.425781 Z M 13.136719 10.925781 C 12.742188 10.953125 12.691406 11.261719 12.816406 11.480469 C 13.230469 11.449219 13.34375 11.09375 13.136719 10.925781 Z M 4.898438 11.242188 C 4.667969 11.246094 4.457031 11.355469 4.335938 11.488281 C 4.375 11.515625 4.433594 11.535156 4.523438 11.542969 C 4.78125 11.578125 5.160156 11.640625 5.453125 11.585938 C 5.457031 11.46875 5.355469 11.351562 5.089844 11.269531 C 5.027344 11.253906 4.960938 11.242188 4.898438 11.242188 Z M 10.882812 11.351562 C 10.414062 11.449219 9.980469 11.558594 9.554688 11.621094 C 9.515625 11.648438 9.484375 11.667969 9.46875 11.667969 C 9.484375 11.652344 9.503906 11.640625 9.519531 11.625 C 9.042969 11.691406 8.574219 11.699219 8.058594 11.566406 C 7.898438 11.65625 7.808594 11.742188 7.765625 11.828125 C 7.777344 11.832031 7.789062 11.835938 7.804688 11.84375 C 8.375 11.753906 8.828125 12.027344 9.308594 12.242188 C 10.03125 12.371094 10.523438 12.265625 11.210938 12.234375 C 11.492188 12.089844 11.90625 12.117188 12.183594 11.957031 C 11.949219 11.582031 11.265625 11.503906 10.882812 11.351562 Z M 10.882812 11.351562 "/>
<path style=" stroke:none;fill-rule:nonzero;fill:rgb(22.745098%,30.980392%,38.823529%);fill-opacity:1;" d="M 8.125 3.425781 C 7.914062 3.433594 7.703125 3.464844 7.503906 3.539062 C 6.957031 3.738281 6.347656 4.007812 6.0625 4.605469 C 5.824219 5.101562 5.324219 5.488281 4.910156 5.828125 C 4.394531 6.113281 3.796875 6.816406 3.449219 7.261719 C 3.128906 7.746094 3.085938 7.9375 2.957031 8.496094 C 2.980469 8.855469 3.101562 9.207031 3.355469 9.472656 C 3.777344 9.839844 4.308594 10.128906 4.859375 10.167969 C 5.515625 10.214844 6.171875 10.019531 6.828125 10.011719 C 7.46875 9.988281 8.078125 9.703125 8.722656 9.804688 C 9.363281 9.8125 9.886719 9.808594 10.410156 9.425781 C 10.824219 9.121094 10.835938 8.488281 10.902344 8.007812 C 10.585938 7.527344 10.015625 6.9375 10.175781 6.339844 C 10.507812 5.761719 10.398438 5 10.34375 4.382812 C 10.246094 4.261719 10.132812 4.160156 9.996094 4.105469 C 9.617188 3.832031 9.222656 3.539062 8.761719 3.460938 C 8.550781 3.4375 8.335938 3.417969 8.125 3.425781 Z M 12.984375 11 C 12.835938 11.175781 12.929688 11.3125 13.089844 11.390625 C 13.21875 11.300781 13.265625 11.164062 13.222656 11.046875 C 13.144531 11.035156 13.0625 11.019531 12.984375 11 Z M 4.710938 11.28125 C 4.554688 11.289062 4.402344 11.355469 4.300781 11.441406 C 4.324219 11.496094 4.394531 11.535156 4.523438 11.542969 C 4.769531 11.574219 5.117188 11.632812 5.402344 11.59375 C 5.390625 11.53125 5.34375 11.457031 5.253906 11.371094 C 5.160156 11.320312 5.050781 11.316406 4.949219 11.324219 C 4.875 11.289062 4.792969 11.277344 4.710938 11.28125 Z M 10.914062 11.511719 C 10.265625 11.566406 9.980469 11.785156 9.332031 11.832031 C 8.78125 11.773438 8.246094 11.609375 7.691406 11.726562 C 7.675781 11.730469 7.664062 11.738281 7.648438 11.746094 C 7.675781 11.777344 7.722656 11.8125 7.804688 11.84375 C 8.375 11.753906 8.828125 12.027344 9.308594 12.242188 C 10.03125 12.371094 10.523438 12.265625 11.210938 12.234375 C 11.496094 12.089844 11.914062 12.117188 12.191406 11.953125 C 11.992188 11.671875 11.171875 11.5625 10.914062 11.511719 Z M 10.914062 11.511719 "/>
<path style=" stroke:none;fill-rule:nonzero;fill:url(#radial0);" d="M 8.125 3.425781 C 7.914062 3.433594 7.703125 3.464844 7.503906 3.539062 C 6.957031 3.738281 6.347656 4.007812 6.0625 4.605469 C 5.824219 5.101562 5.324219 5.488281 4.910156 5.828125 C 4.472656 6.070312 3.980469 6.609375 3.628906 7.042969 C 3.628906 7.101562 3.636719 7.160156 3.65625 7.214844 C 3.914062 7.285156 4.265625 7.164062 4.464844 7.027344 C 4.816406 6.875 5.722656 5.910156 6.070312 5.851562 C 6.226562 6.324219 6.984375 6.382812 7.992188 5.820312 C 8.308594 5.648438 9.128906 5.019531 8.871094 3.976562 C 8.964844 4.078125 9.695312 4.304688 10.253906 4.761719 C 10.476562 4.941406 10.738281 5.367188 11.050781 5.554688 C 10.988281 5.433594 10.925781 5.316406 10.855469 5.203125 C 10.613281 4.835938 10.410156 4.277344 9.996094 4.105469 C 9.617188 3.832031 9.222656 3.539062 8.761719 3.460938 C 8.550781 3.4375 8.335938 3.417969 8.125 3.425781 Z M 8.125 3.425781 "/>
<path style=" stroke:none;fill-rule:nonzero;fill:rgb(0%,0%,0%);fill-opacity:1;" d="M 8.175781 8.359375 C 7.386719 8.445312 6.503906 8.230469 5.734375 8.085938 C 5.234375 7.996094 4.628906 7.882812 4.511719 8.445312 C 4.425781 8.863281 4.648438 9.179688 5.027344 9.277344 C 5.621094 9.433594 6.449219 9.125 7.179688 8.984375 C 7.585938 8.90625 8.113281 8.796875 8.570312 8.765625 C 9.164062 8.71875 9.746094 8.640625 10.359375 8.679688 C 11.03125 8.722656 11.703125 8.878906 12.390625 9.132812 C 12.773438 9.269531 12.652344 8.316406 12.382812 8.078125 C 12.128906 7.855469 11.777344 7.855469 11.441406 7.988281 C 10.417969 8.402344 9.277344 8.234375 8.175781 8.359375 Z M 8.175781 8.359375 "/>
<path style=" stroke:none;fill-rule:nonzero;fill:rgb(9.803922%,7.843137%,11.764706%);fill-opacity:1;" d="M 11.941406 8.082031 C 11.816406 8.074219 11.671875 8.097656 11.527344 8.15625 C 10.441406 8.59375 9.277344 8.417969 8.214844 8.539062 C 7.371094 8.632812 6.472656 8.40625 5.710938 8.265625 C 5.460938 8.21875 5.195312 8.175781 5.015625 8.199219 C 4.925781 8.214844 4.863281 8.238281 4.816406 8.277344 C 4.773438 8.3125 4.734375 8.363281 4.714844 8.472656 C 4.679688 8.636719 4.707031 8.765625 4.769531 8.863281 C 4.832031 8.960938 4.941406 9.039062 5.089844 9.078125 C 5.578125 9.207031 6.398438 8.925781 7.15625 8.78125 C 7.558594 8.703125 8.09375 8.59375 8.566406 8.558594 C 9.15625 8.515625 9.746094 8.433594 10.382812 8.476562 C 11.066406 8.519531 11.746094 8.675781 12.4375 8.925781 C 12.445312 8.890625 12.457031 8.828125 12.449219 8.746094 C 12.4375 8.535156 12.316406 8.257812 12.265625 8.210938 C 12.171875 8.128906 12.070312 8.089844 11.941406 8.082031 Z M 11.941406 8.082031 "/>
<path style=" stroke:none;fill-rule:nonzero;fill:rgb(0%,0%,0%);fill-opacity:0.4;" d="M 11.894531 8.082031 C 11.78125 8.082031 11.65625 8.105469 11.527344 8.15625 C 11 8.367188 10.457031 8.4375 9.914062 8.464844 C 10.070312 8.460938 10.226562 8.464844 10.382812 8.472656 C 10.453125 8.480469 10.519531 8.484375 10.585938 8.492188 C 10.917969 8.445312 11.25 8.371094 11.570312 8.242188 C 11.714844 8.183594 11.859375 8.15625 11.984375 8.167969 C 12.109375 8.175781 12.214844 8.214844 12.308594 8.296875 C 12.316406 8.304688 12.328125 8.320312 12.339844 8.339844 C 12.3125 8.277344 12.285156 8.226562 12.265625 8.210938 C 12.175781 8.128906 12.070312 8.089844 11.941406 8.082031 C 11.925781 8.082031 11.910156 8.082031 11.894531 8.082031 Z M 5.167969 8.195312 C 5.113281 8.191406 5.0625 8.195312 5.015625 8.199219 C 4.925781 8.210938 4.863281 8.238281 4.820312 8.277344 C 4.773438 8.3125 4.738281 8.363281 4.714844 8.46875 C 4.679688 8.636719 4.707031 8.761719 4.769531 8.859375 C 4.738281 8.777344 4.730469 8.675781 4.757812 8.554688 C 4.777344 8.449219 4.816406 8.398438 4.859375 8.359375 C 4.90625 8.324219 4.96875 8.296875 5.058594 8.285156 C 5.238281 8.261719 5.503906 8.304688 5.753906 8.347656 C 6.40625 8.472656 7.160156 8.652344 7.890625 8.644531 C 8.117188 8.605469 8.347656 8.574219 8.566406 8.558594 C 8.917969 8.53125 9.269531 8.492188 9.628906 8.472656 C 9.148438 8.488281 8.671875 8.484375 8.214844 8.539062 C 7.371094 8.632812 6.472656 8.40625 5.710938 8.265625 C 5.523438 8.230469 5.328125 8.199219 5.167969 8.195312 Z M 9.628906 8.472656 C 9.71875 8.472656 9.808594 8.46875 9.898438 8.464844 C 9.808594 8.464844 9.71875 8.46875 9.628906 8.472656 Z M 9.628906 8.472656 "/>
<path style=" stroke:none;fill-rule:nonzero;fill:rgb(0%,0%,0%);fill-opacity:1;" d="M 6.035156 8.234375 C 5.863281 8.21875 5.683594 8.222656 5.511719 8.222656 C 5.386719 8.242188 5.269531 8.253906 5.285156 8.386719 C 5.296875 8.527344 5.410156 8.699219 5.515625 8.792969 C 5.617188 8.882812 5.71875 8.949219 5.859375 8.980469 C 5.972656 8.996094 6.117188 8.921875 6.21875 8.878906 C 6.355469 8.816406 6.542969 8.703125 6.632812 8.578125 C 6.683594 8.507812 6.671875 8.464844 6.625 8.386719 C 6.574219 8.320312 6.449219 8.347656 6.378906 8.3125 C 6.261719 8.261719 6.164062 8.242188 6.035156 8.234375 Z M 6.035156 8.234375 "/>
<path style=" stroke:none;fill-rule:nonzero;fill:url(#linear0);" d="M 5.523438 8.273438 C 5.261719 8.359375 5.738281 8.765625 5.929688 8.839844 C 6.074219 8.808594 6.445312 8.582031 6.457031 8.414062 C 6.125 8.222656 5.910156 8.269531 5.523438 8.273438 Z M 5.523438 8.273438 "/>
<path style=" stroke:none;fill-rule:nonzero;fill:rgb(0%,0%,0%);fill-opacity:1;" d="M 11.976562 8.042969 C 11.976562 8.042969 11.882812 8.039062 11.734375 8.070312 C 11.582031 8.097656 11.433594 8.109375 11.296875 8.210938 C 11.253906 8.242188 11.164062 8.257812 11.175781 8.3125 C 11.210938 8.492188 11.351562 8.601562 11.460938 8.664062 C 11.574219 8.726562 11.675781 8.75 11.675781 8.75 C 11.703125 8.757812 11.734375 8.757812 11.757812 8.746094 C 11.757812 8.746094 11.875 8.707031 11.976562 8.601562 C 12.078125 8.496094 12.164062 8.308594 12.113281 8.070312 C 12.097656 8.003906 12.046875 8.039062 11.976562 8.042969 Z M 11.976562 8.042969 "/>
<path style=" stroke:none;fill-rule:nonzero;fill:url(#linear1);" d="M 11.3125 8.285156 C 11.511719 8.132812 11.976562 8.097656 11.976562 8.097656 C 12.054688 8.492188 11.710938 8.613281 11.710938 8.613281 C 11.710938 8.613281 11.363281 8.527344 11.3125 8.285156 Z M 11.3125 8.285156 "/>
<path style=" stroke:none;fill-rule:nonzero;fill:rgb(0%,0%,0%);fill-opacity:1;" d="M 11.136719 6.300781 C 10.984375 6.300781 10.828125 6.347656 10.679688 6.445312 C 10.5625 6.519531 10.425781 6.640625 10.308594 6.761719 C 10.25 6.820312 10.195312 6.875 10.152344 6.929688 C 10.132812 6.957031 10.117188 6.980469 10.101562 7.003906 C 10.089844 7.027344 10.066406 7.058594 10.066406 7.117188 C 10.066406 7.136719 10.066406 7.15625 10.074219 7.183594 C 10.078125 7.195312 10.082031 7.207031 10.09375 7.226562 C 10.097656 7.238281 10.105469 7.253906 10.125 7.269531 C 10.144531 7.285156 10.179688 7.304688 10.222656 7.304688 C 10.25 7.300781 10.253906 7.300781 10.246094 7.300781 C 10.246094 7.300781 10.25 7.300781 10.253906 7.300781 C 10.261719 7.300781 10.273438 7.296875 10.285156 7.296875 C 10.3125 7.289062 10.347656 7.285156 10.394531 7.277344 C 10.484375 7.261719 10.605469 7.242188 10.738281 7.21875 C 10.871094 7.195312 11.003906 7.171875 11.109375 7.160156 C 11.160156 7.152344 11.210938 7.144531 11.246094 7.140625 C 11.265625 7.140625 11.28125 7.136719 11.292969 7.136719 C 11.300781 7.136719 11.3125 7.132812 11.308594 7.132812 C 11.421875 7.132812 11.527344 7.105469 11.601562 7.027344 C 11.679688 6.953125 11.707031 6.835938 11.679688 6.726562 C 11.613281 6.464844 11.386719 6.304688 11.136719 6.300781 Z M 11.136719 6.300781 "/>
<path style=" stroke:none;fill-rule:nonzero;fill:rgb(34.117647%,13.72549%,4.705882%);fill-opacity:1;" d="M 11.15625 6.476562 C 10.914062 6.472656 10.648438 6.496094 10.476562 6.65625 C 10.339844 6.777344 10.242188 6.867188 10.140625 7.019531 C 10.097656 7.097656 10.089844 7.140625 10.105469 7.234375 C 10.164062 7.253906 10.429688 7.199219 10.484375 7.179688 C 10.90625 7.027344 10.925781 7.089844 11.246094 7.058594 C 11.378906 7.058594 11.472656 7.035156 11.519531 6.898438 C 11.570312 6.753906 11.367188 6.742188 11.265625 6.632812 C 11.167969 6.53125 11.300781 6.476562 11.15625 6.476562 Z M 11.15625 6.476562 "/>
<path style=" stroke:none;fill-rule:nonzero;fill:rgb(0%,0%,0%);fill-opacity:1;" d="M 6.5 6.292969 C 6.191406 6.292969 6.066406 6.332031 5.8125 6.496094 C 5.671875 6.585938 5.558594 6.679688 5.472656 6.769531 C 5.433594 6.816406 5.398438 6.863281 5.371094 6.921875 C 5.34375 6.980469 5.324219 7.082031 5.382812 7.171875 C 5.402344 7.203125 5.421875 7.222656 5.449219 7.238281 C 5.472656 7.253906 5.5 7.257812 5.480469 7.25 C 5.496094 7.257812 5.511719 7.261719 5.523438 7.265625 C 5.542969 7.269531 5.566406 7.273438 5.589844 7.277344 C 5.636719 7.28125 5.703125 7.289062 5.777344 7.296875 C 5.929688 7.308594 6.132812 7.320312 6.351562 7.332031 C 6.785156 7.347656 7.269531 7.378906 7.359375 7.390625 C 7.53125 7.414062 7.625 7.429688 7.703125 7.429688 C 7.738281 7.429688 7.789062 7.425781 7.839844 7.402344 C 7.898438 7.375 7.929688 7.335938 7.949219 7.304688 C 8 7.222656 7.96875 7.132812 7.960938 7.113281 C 7.945312 7.085938 7.929688 7.0625 7.921875 7.054688 C 7.898438 7.023438 7.871094 6.996094 7.84375 6.96875 C 7.785156 6.914062 7.707031 6.847656 7.621094 6.78125 C 7.449219 6.644531 7.242188 6.496094 7.085938 6.414062 C 6.921875 6.324219 6.761719 6.292969 6.5 6.292969 Z M 6.5 6.292969 "/>
<path style=" stroke:none;fill-rule:nonzero;fill:rgb(34.117647%,13.72549%,4.705882%);fill-opacity:1;" d="M 5.847656 6.5 C 5.667969 6.613281 5.5 6.730469 5.394531 6.925781 C 5.304688 7.078125 5.457031 7.191406 5.578125 7.1875 C 5.773438 7.222656 6.035156 7.109375 6.230469 7.121094 C 6.71875 7.148438 7.140625 7.273438 7.625 7.34375 C 7.71875 7.355469 7.839844 7.351562 7.882812 7.253906 C 7.9375 7.132812 7.800781 7.050781 7.730469 6.976562 C 7.53125 6.808594 7.347656 6.65625 7.125 6.519531 C 6.816406 6.410156 6.34375 6.410156 5.847656 6.5 Z M 5.847656 6.5 "/>
<path style=" stroke:none;fill-rule:nonzero;fill:url(#radial1);" d="M 7.785156 7.203125 C 7.8125 7.160156 7.265625 6.730469 6.992188 6.582031 C 6.855469 6.507812 6.75 6.488281 6.5 6.488281 C 6.195312 6.488281 6.164062 6.496094 5.917969 6.65625 C 5.65625 6.824219 5.503906 6.996094 5.546875 7.070312 C 5.558594 7.089844 5.925781 7.121094 6.359375 7.136719 C 6.796875 7.15625 7.257812 7.183594 7.386719 7.203125 C 7.730469 7.25 7.757812 7.25 7.785156 7.203125 Z M 7.785156 7.203125 "/>
<path style=" stroke:none;fill-rule:nonzero;fill:url(#radial2);" d="M 10.714844 7.078125 C 10.980469 7.03125 11.25 6.992188 11.308594 6.992188 C 11.480469 6.992188 11.574219 6.898438 11.542969 6.761719 C 11.460938 6.433594 11.101562 6.34375 10.753906 6.5625 C 10.558594 6.6875 10.210938 7.042969 10.210938 7.117188 C 10.210938 7.140625 10.214844 7.160156 10.21875 7.160156 C 10.226562 7.160156 10.449219 7.121094 10.714844 7.078125 Z M 10.714844 7.078125 "/>
<path style=" stroke:none;fill-rule:nonzero;fill:rgb(0%,0%,0%);fill-opacity:1;" d="M 5.957031 6.429688 C 5.621094 6.539062 5.316406 6.75 5.082031 7.007812 C 4.929688 7.207031 5.375 7.476562 5.371094 7.257812 C 5.152344 7.066406 5.445312 6.816406 5.601562 6.699219 C 5.71875 6.605469 5.859375 6.546875 5.957031 6.429688 Z M 5.957031 6.429688 "/>
<path style=" stroke:none;fill-rule:nonzero;fill:rgb(0%,0%,0%);fill-opacity:1;" d="M 7.59375 6.773438 C 7.820312 6.871094 7.992188 7.09375 8.042969 7.332031 C 8.097656 7.457031 7.824219 7.648438 7.949219 7.4375 C 7.984375 7.160156 7.695312 7 7.59375 6.773438 Z M 7.59375 6.773438 "/>
<path style=" stroke:none;fill-rule:nonzero;fill:rgb(18.039216%,20.784314%,24.705882%);fill-opacity:1;" d="M 9.242188 5.9375 C 9.300781 5.96875 9.367188 6.015625 9.371094 6.089844 C 9.4375 6.355469 9.457031 6.640625 9.367188 6.902344 C 9.320312 7.011719 9.230469 7.089844 9.15625 7.179688 C 9.105469 7.222656 9.035156 7.191406 9.011719 7.136719 C 8.964844 7.066406 8.972656 6.976562 9 6.898438 C 9.03125 6.808594 9.070312 6.722656 9.074219 6.625 C 9.097656 6.480469 9.117188 6.332031 9.171875 6.191406 C 9.199219 6.109375 9.222656 6.023438 9.242188 5.9375 Z M 9.242188 5.9375 "/>
<path style=" stroke:none;fill-rule:nonzero;fill:rgb(0%,0%,0%);fill-opacity:1;" d="M 9.34375 7.015625 C 9.035156 7.125 9.226562 6.65625 9.289062 6.511719 C 9.386719 6.121094 9.390625 6.742188 9.34375 7.015625 Z M 9.34375 7.015625 "/>
<path style=" stroke:none;fill-rule:nonzero;fill:rgb(0%,0%,0%);fill-opacity:1;" d="M 10.480469 6.511719 C 10.605469 6.132812 11.109375 6.035156 11.191406 5.632812 C 11.308594 5.566406 11.242188 6 11.113281 6.042969 C 10.953125 6.253906 10.734375 6.429688 10.480469 6.511719 Z M 10.480469 6.511719 "/>
<path style=" stroke:none;fill-rule:nonzero;fill:rgb(0%,0%,0%);fill-opacity:1;" d="M 11.308594 7.144531 C 11.484375 7.085938 11.972656 7.292969 11.921875 6.914062 C 11.710938 6.90625 11.5 7.050781 11.308594 7.144531 Z M 11.308594 7.144531 "/>
</g>
</svg>
