
<svg xmlns="http://www.w3.org/2000/svg" xmlns:xlink="http://www.w3.org/1999/xlink" width="16px" height="16px" viewBox="0 0 16 16" version="1.1">
<g id="surface1">
<path style="fill-rule:nonzero;fill:rgb(100%,100%,100%);fill-opacity:1;stroke-width:20.298223;stroke-linecap:butt;stroke-linejoin:miter;stroke:rgb(29.019608%,68.235294%,90.196078%);stroke-opacity:1;stroke-miterlimit:4;" d="M 73.968748 22.499999 L 325.218742 22.499999 C 347.624991 22.499999 365.81249 40.687499 365.81249 63.093748 L 365.81249 314.437492 C 365.81249 336.843741 347.624991 355.031241 325.218742 355.031241 L 73.968748 355.031241 C 51.562499 355.031241 33.374999 336.843741 33.374999 314.437492 L 33.374999 63.093748 C 33.374999 40.687499 51.562499 22.499999 73.968748 22.499999 Z M 73.968748 22.499999 " transform="matrix(0.0416667,0,0,0.0416667,0,0)"/>
<path style=" stroke:none;fill-rule:nonzero;fill:rgb(97.254902%,97.254902%,97.254902%);fill-opacity:1;" d="M 14.402344 8.996094 C 14.328125 9.070312 14.25 9.132812 14.164062 9.191406 C 14.121094 9.21875 14.078125 9.246094 14.03125 9.273438 C 14.167969 9.199219 14.292969 9.105469 14.402344 8.996094 Z M 14.402344 8.996094 "/>
<path style=" stroke:none;fill-rule:nonzero;fill:rgb(97.254902%,97.254902%,97.254902%);fill-opacity:1;" d="M 14.675781 8.628906 C 14.652344 8.671875 14.625 8.714844 14.597656 8.757812 C 14.539062 8.84375 14.472656 8.921875 14.402344 8.996094 C 14.511719 8.886719 14.605469 8.761719 14.675781 8.628906 Z M 14.675781 8.628906 "/>
<path style=" stroke:none;fill-rule:nonzero;fill:rgb(97.254902%,97.254902%,97.254902%);fill-opacity:1;" d="M 14.796875 8.339844 C 14.78125 8.390625 14.765625 8.441406 14.746094 8.488281 C 14.722656 8.535156 14.703125 8.582031 14.675781 8.628906 C 14.726562 8.535156 14.765625 8.441406 14.796875 8.339844 Z M 14.796875 8.339844 "/>
<path style=" stroke:none;fill-rule:nonzero;fill:rgb(97.254902%,97.254902%,97.254902%);fill-opacity:1;" d="M 14.871094 7.863281 C 14.871094 7.917969 14.867188 7.972656 14.863281 8.027344 C 14.855469 8.082031 14.847656 8.136719 14.839844 8.1875 C 14.828125 8.238281 14.8125 8.289062 14.796875 8.339844 C 14.84375 8.191406 14.871094 8.03125 14.871094 7.863281 Z M 14.871094 7.863281 "/>
<path style=" stroke:none;fill-rule:nonzero;fill:rgb(16.862745%,22.745098%,29.019608%);fill-opacity:1;" d="M 8.613281 2.007812 L 8.613281 7.566406 L 14.175781 7.566406 L 14.175781 3.363281 C 14.175781 2.613281 13.566406 2.007812 12.816406 2.007812 Z M 8.613281 2.007812 "/>
<path style=" stroke:none;fill-rule:nonzero;fill:rgb(21.960784%,30.980392%,40%);fill-opacity:1;" d="M 8.019531 13.722656 L 8.019531 8.164062 L 2.457031 8.164062 L 2.457031 12.363281 C 2.457031 13.113281 3.066406 13.722656 3.816406 13.722656 Z M 8.019531 13.722656 "/>
<path style=" stroke:none;fill-rule:nonzero;fill:rgb(10.980392%,14.901961%,20%);fill-opacity:1;" d="M 2.457031 7.566406 L 8.019531 7.566406 L 8.019531 2.007812 L 3.816406 2.007812 C 3.066406 2.007812 2.457031 2.613281 2.457031 3.363281 Z M 2.457031 7.566406 "/>
<path style=" stroke:none;fill-rule:nonzero;fill:rgb(27.058824%,38.823529%,49.803922%);fill-opacity:1;" d="M 14.175781 8.164062 L 8.613281 8.164062 L 8.613281 13.722656 L 12.816406 13.722656 C 13.566406 13.722656 14.175781 13.113281 14.175781 12.363281 Z M 14.175781 8.164062 "/>
</g>
</svg>
