
<svg xmlns="http://www.w3.org/2000/svg" xmlns:xlink="http://www.w3.org/1999/xlink" width="16px" height="16px" viewBox="0 0 16 16" version="1.1">
<g id="surface1">
<path style="fill-rule:nonzero;fill:rgb(40%,40%,40%);fill-opacity:1;stroke-width:28.200493;stroke-linecap:butt;stroke-linejoin:miter;stroke:rgb(18.823529%,20.784314%,27.058824%);stroke-opacity:1;stroke-miterlimit:4;" d="M 81.375 25 L 430.625 25 C 461.75 25 487 50.25 487 81.375 L 487 430.625 C 487 461.75 461.75 487 430.625 487 L 81.375 487 C 50.25 487 25 461.75 25 430.625 L 25 81.375 C 25 50.25 50.25 25 81.375 25 Z M 81.375 25 " transform="matrix(0.03125,0,0,0.03125,0,0)"/>
<path style=" stroke:none;fill-rule:nonzero;fill:rgb(0%,0%,0%);fill-opacity:1;" d="M 2.851562 1.15625 C 1.929688 1.15625 1.183594 1.683594 1.183594 2.339844 L 1.183594 4.089844 L 14.851562 4.089844 L 14.851562 2.339844 C 14.851562 1.683594 14.105469 1.15625 13.183594 1.15625 Z M 2.851562 1.15625 "/>
<path style=" stroke:none;fill-rule:nonzero;fill:rgb(100%,100%,100%);fill-opacity:1;" d="M 10.101562 1.417969 L 8.96875 2.753906 L 10.472656 2.753906 L 11.601562 1.417969 Z M 10.101562 1.417969 "/>
<path style=" stroke:none;fill-rule:nonzero;fill:rgb(100%,100%,100%);fill-opacity:1;" d="M 7.46875 1.417969 L 6.335938 2.753906 L 7.839844 2.753906 L 8.96875 1.417969 Z M 7.46875 1.417969 "/>
<path style=" stroke:none;fill-rule:nonzero;fill:rgb(100%,100%,100%);fill-opacity:1;" d="M 12.605469 1.417969 L 11.472656 2.753906 L 12.976562 2.753906 L 14.109375 1.417969 Z M 12.605469 1.417969 "/>
<path style=" stroke:none;fill-rule:nonzero;fill:rgb(100%,100%,100%);fill-opacity:1;" d="M 2.53125 1.417969 L 1.398438 2.753906 L 2.898438 2.753906 L 4.03125 1.417969 Z M 2.53125 1.417969 "/>
<path style=" stroke:none;fill-rule:nonzero;fill:rgb(100%,100%,100%);fill-opacity:1;" d="M 5.035156 1.417969 L 3.902344 2.753906 L 5.40625 2.753906 L 6.535156 1.417969 Z M 5.035156 1.417969 "/>
<path style=" stroke:none;fill-rule:nonzero;fill:rgb(100%,100%,100%);fill-opacity:1;" d="M 10.101562 4.089844 L 8.96875 2.753906 L 10.472656 2.753906 L 11.601562 4.089844 Z M 10.101562 4.089844 "/>
<path style=" stroke:none;fill-rule:nonzero;fill:rgb(100%,100%,100%);fill-opacity:1;" d="M 7.46875 4.089844 L 6.335938 2.753906 L 7.839844 2.753906 L 8.96875 4.089844 Z M 7.46875 4.089844 "/>
<path style=" stroke:none;fill-rule:nonzero;fill:rgb(100%,100%,100%);fill-opacity:1;" d="M 12.605469 4.089844 L 11.472656 2.753906 L 12.976562 2.753906 L 14.109375 4.089844 Z M 12.605469 4.089844 "/>
<path style=" stroke:none;fill-rule:nonzero;fill:rgb(100%,100%,100%);fill-opacity:1;" d="M 1.398438 2.753906 L 2.53125 4.089844 L 4.03125 4.089844 L 2.898438 2.753906 Z M 1.398438 2.753906 "/>
<path style=" stroke:none;fill-rule:nonzero;fill:rgb(100%,100%,100%);fill-opacity:1;" d="M 5.035156 4.089844 L 3.902344 2.753906 L 5.40625 2.753906 L 6.535156 4.089844 Z M 5.035156 4.089844 "/>
<path style=" stroke:none;fill-rule:nonzero;fill:rgb(100%,100%,100%);fill-opacity:1;" d="M 12.113281 9.050781 L 5.769531 12.621094 L 5.769531 5.480469 Z M 12.113281 9.050781 "/>
</g>
</svg>
