
<svg xmlns="http://www.w3.org/2000/svg" xmlns:xlink="http://www.w3.org/1999/xlink" width="16px" height="16px" viewBox="0 0 16 16" version="1.1">
<g id="surface1">
<path style="fill-rule:nonzero;fill:rgb(100%,100%,100%);fill-opacity:1;stroke-width:28.191782;stroke-linecap:butt;stroke-linejoin:miter;stroke:rgb(76.078431%,65.882353%,45.098039%);stroke-opacity:1;stroke-miterlimit:4;" d="M 81.5 25.125 L 430.5 25.125 C 461.625 25.125 486.875 50.375 486.875 81.5 L 486.875 430.5 C 486.875 461.625 461.625 486.875 430.5 486.875 L 81.5 486.875 C 50.375 486.875 25.125 461.625 25.125 430.5 L 25.125 81.5 C 25.125 50.375 50.375 25.125 81.5 25.125 Z M 81.5 25.125 " transform="matrix(0.03125,0,0,0.03125,0,0)"/>
<path style=" stroke:none;fill-rule:evenodd;fill:rgb(65.098039%,58.039216%,40.784314%);fill-opacity:1;" d="M 13.988281 2.785156 L 14.167969 11.273438 L 2.492188 11.523438 L 2.3125 3.035156 Z M 13.988281 2.785156 "/>
<path style=" stroke:none;fill-rule:evenodd;fill:rgb(90.196078%,84.313725%,74.117647%);fill-opacity:1;" d="M 12.890625 4.226562 L 13.023438 10.363281 L 3.226562 10.574219 L 3.09375 4.4375 Z M 12.890625 4.226562 "/>
<path style=" stroke:none;fill-rule:evenodd;fill:rgb(90.196078%,84.313725%,74.117647%);fill-opacity:1;" d="M 12.117188 2.835938 L 13.398438 9.308594 L 3.816406 11.464844 L 2.53125 4.996094 Z M 12.117188 2.835938 "/>
<path style=" stroke:none;fill-rule:evenodd;fill:rgb(52.156863%,87.058824%,80%);fill-opacity:1;" d="M 13.566406 7.292969 L 2.960938 10.078125 L 3.578125 12.066406 L 13.875 9.546875 Z M 13.566406 7.292969 "/>
<path style=" stroke:none;fill-rule:evenodd;fill:rgb(49.803922%,89.019608%,100%);fill-opacity:1;" d="M 2.386719 5.121094 L 12.199219 2.035156 L 12.949219 5.933594 L 2.871094 9.195312 Z M 2.386719 5.121094 "/>
<path style="fill:none;stroke-width:32.285721;stroke-linecap:butt;stroke-linejoin:miter;stroke:rgb(76.078431%,65.882353%,45.098039%);stroke-opacity:1;stroke-miterlimit:4;" d="M 400 73.75 L 446.625 307.75 L 115 382.125 L 68.375 148.125 Z M 400 73.75 " transform="matrix(0.03125,0,0,0.03125,0,0)"/>
<path style=" stroke:none;fill-rule:evenodd;fill:rgb(40%,40%,40%);fill-opacity:1;" d="M 4.742188 9.242188 L 6.113281 6.632812 L 8.335938 8.089844 L 10.046875 4.140625 L 12.511719 7.941406 L 4.164062 9.914062 Z M 4.742188 9.242188 "/>
<path style=" stroke:none;fill-rule:nonzero;fill:rgb(100%,86.27451%,32.941176%);fill-opacity:1;" d="M 5.710938 6.042969 C 5.816406 6.519531 5.515625 6.992188 5.039062 7.097656 C 4.5625 7.199219 4.089844 6.898438 3.984375 6.421875 C 3.882812 5.945312 4.183594 5.472656 4.660156 5.371094 C 5.136719 5.265625 5.609375 5.566406 5.710938 6.042969 Z M 5.710938 6.042969 "/>
<path style="fill-rule:nonzero;fill:rgb(0%,50.196078%,50.196078%);fill-opacity:0.372549;stroke-width:24.14362;stroke-linecap:butt;stroke-linejoin:miter;stroke:rgb(100%,32.941176%,32.941176%);stroke-opacity:1;stroke-miterlimit:4;" d="M 372.5 325.25 C 358 361.875 316.5 379.75 280 365.125 C 243.375 350.625 225.5 309.125 240.125 272.625 C 254.625 236 296.125 218.125 332.625 232.75 C 369.25 247.25 387.125 288.75 372.5 325.25 Z M 372.5 325.25 " transform="matrix(0.03125,0,0,0.03125,0,0)"/>
<path style=" stroke:none;fill-rule:evenodd;fill:rgb(100%,32.941176%,32.941176%);fill-opacity:1;" d="M 10.269531 11.074219 L 10.328125 11.042969 C 10.511719 10.945312 10.742188 11.015625 10.839844 11.199219 L 12.253906 13.859375 C 12.351562 14.042969 12.28125 14.273438 12.097656 14.371094 L 12.039062 14.402344 C 11.851562 14.5 11.625 14.429688 11.527344 14.246094 L 10.113281 11.585938 C 10.015625 11.402344 10.085938 11.171875 10.269531 11.074219 Z M 10.269531 11.074219 "/>
<path style=" stroke:none;fill-rule:evenodd;fill:rgb(100%,100%,100%);fill-opacity:1;" d="M 9.148438 6.1875 L 10.03125 4.15625 L 11.269531 5.96875 L 10.296875 5.660156 L 10.296875 6.367188 L 9.722656 5.921875 Z M 9.148438 6.1875 "/>
<path style=" stroke:none;fill-rule:evenodd;fill:rgb(100%,100%,100%);fill-opacity:1;" d="M 5.390625 7.957031 L 6.097656 6.453125 L 7.425781 7.601562 L 6.585938 7.46875 L 6.585938 8.046875 L 6.1875 7.734375 Z M 5.390625 7.957031 "/>
</g>
</svg>
