
<svg xmlns="http://www.w3.org/2000/svg" xmlns:xlink="http://www.w3.org/1999/xlink" width="32px" height="32px" viewBox="0 0 32 32" version="1.1">
<defs>
<filter id="alpha" filterUnits="objectBoundingBox" x="0%" y="0%" width="100%" height="100%">
  <feColorMatrix type="matrix" in="SourceGraphic" values="0 0 0 0 1 0 0 0 0 1 0 0 0 0 1 0 0 0 1 0"/>
</filter>
<mask id="mask0">
  <g filter="url(#alpha)">
<rect x="0" y="0" width="32" height="32" style="fill:rgb(0%,0%,0%);fill-opacity:0.682353;stroke:none;"/>
  </g>
</mask>
<clipPath id="clip1">
  <rect x="0" y="0" width="32" height="32"/>
</clipPath>
<g id="surface5" clip-path="url(#clip1)">
<path style=" stroke:none;fill-rule:nonzero;fill:rgb(100%,100%,100%);fill-opacity:1;" d="M 27.953125 5.824219 L 16.503906 0.902344 L 16.503906 1.675781 C 16.503906 3.972656 18.355469 5.824219 20.65625 5.824219 Z M 27.953125 5.824219 "/>
</g>
</defs>
<g id="surface1">
<path style=" stroke:none;fill-rule:nonzero;fill:rgb(95.294118%,50.588235%,26.27451%);fill-opacity:1;" d="M 8.015625 0.902344 C 5.714844 0.902344 3.863281 2.753906 3.863281 5.050781 L 3.863281 27.117188 C 3.863281 29.417969 5.714844 31.265625 8.015625 31.265625 L 23.804688 31.265625 C 26.101562 31.265625 27.953125 29.417969 27.953125 27.117188 L 27.953125 5.824219 L 16.503906 0.902344 Z M 24.230469 0.921875 C 24.507812 0.953125 24.78125 1.007812 25.042969 1.089844 C 24.78125 1.007812 24.507812 0.953125 24.230469 0.921875 Z M 25.042969 1.089844 C 25.429688 1.207031 25.796875 1.386719 26.128906 1.609375 C 25.796875 1.386719 25.429688 1.207031 25.042969 1.089844 Z M 26.445312 1.847656 C 26.550781 1.929688 26.648438 2.023438 26.742188 2.117188 C 26.648438 2.023438 26.550781 1.933594 26.445312 1.847656 Z M 26.445312 1.847656 "/>
<use xlink:href="#surface5" mask="url(#mask0)"/>
<path style=" stroke:none;fill-rule:nonzero;fill:rgb(95.686275%,92.54902%,90.588235%);fill-opacity:1;" d="M 7.933594 0.921875 L 7.933594 2.824219 L 10.402344 2.824219 L 10.402344 4.726562 L 7.933594 4.726562 L 7.933594 6.628906 L 10.402344 6.628906 L 10.402344 8.53125 L 7.933594 8.53125 L 7.933594 10.433594 L 10.402344 10.433594 L 10.402344 13.289062 L 7.933594 13.289062 L 7.933594 17.09375 L 12.867188 17.09375 L 12.867188 13.289062 L 10.402344 13.289062 L 10.402344 12.339844 L 12.867188 12.339844 L 12.867188 10.433594 L 10.402344 10.433594 L 10.402344 8.53125 L 12.867188 8.53125 L 12.867188 6.628906 L 10.402344 6.628906 L 10.402344 4.726562 L 12.867188 4.726562 L 12.867188 2.824219 L 10.402344 2.824219 L 10.402344 0.921875 Z M 7.933594 0.921875 "/>
<path style=" stroke:none;fill-rule:nonzero;fill:rgb(95.686275%,92.54902%,90.588235%);fill-opacity:1;" d="M 10.492188 16.582031 C 10.324219 16.582031 9.972656 16.582031 9.71875 16.585938 L 9.253906 16.589844 L 9.253906 17.050781 C 9.253906 17.050781 9.105469 17.203125 9.070312 17.296875 C 8.773438 18.109375 8.730469 19.023438 8.9375 19.859375 C 8.96875 19.984375 9.140625 20.207031 9.140625 20.207031 L 9.179688 19.601562 C 9.257812 19.171875 9.214844 18.703125 9.644531 18.703125 L 9.753906 18.703125 L 9.753906 18.28125 C 9.753906 17.933594 10.050781 17.65625 10.414062 17.65625 L 10.488281 17.65625 C 10.851562 17.65625 11.144531 17.933594 11.144531 18.28125 L 11.144531 18.703125 L 11.261719 18.703125 C 11.722656 18.710938 11.71875 19.417969 11.730469 19.601562 L 11.769531 20.207031 C 11.769531 20.207031 11.960938 19.964844 11.996094 19.824219 C 12.199219 19.019531 12.171875 18.132812 11.878906 17.355469 C 11.847656 17.28125 11.730469 17.167969 11.730469 17.167969 L 11.730469 16.589844 L 11.265625 16.585938 C 11.011719 16.582031 10.664062 16.582031 10.492188 16.582031 Z M 10.417969 17.808594 C 10.101562 17.808594 9.84375 18.054688 9.84375 18.355469 L 9.84375 19.617188 C 9.84375 19.917969 10.101562 20.164062 10.417969 20.164062 L 10.480469 20.164062 C 10.800781 20.164062 11.054688 19.917969 11.054688 19.617188 L 11.054688 18.355469 C 11.054688 18.054688 10.800781 17.808594 10.480469 17.808594 Z M 9.753906 18.84375 C 9.730469 18.84375 9.640625 18.875 9.558594 18.914062 L 9.410156 18.988281 L 9.410156 22.96875 L 9.457031 23.035156 L 9.515625 23.066406 L 11.390625 23.035156 L 11.464844 22.980469 L 11.480469 21.023438 L 11.5 19.019531 L 11.367188 18.929688 C 11.296875 18.882812 11.207031 18.84375 11.171875 18.84375 L 11.144531 18.84375 L 11.144531 19.726562 C 11.144531 20.074219 10.851562 20.351562 10.488281 20.351562 L 10.414062 20.351562 C 10.050781 20.351562 9.753906 20.074219 9.753906 19.726562 Z M 10.417969 21.515625 C 10.773438 21.519531 11.0625 21.78125 11.0625 22.105469 C 11.0625 22.429688 10.773438 22.691406 10.417969 22.691406 C 10.0625 22.691406 9.773438 22.429688 9.773438 22.105469 C 9.773438 21.78125 10.0625 21.515625 10.417969 21.515625 Z M 10.417969 21.515625 "/>
</g>
</svg>
