
<svg xmlns="http://www.w3.org/2000/svg" xmlns:xlink="http://www.w3.org/1999/xlink" width="32px" height="32px" viewBox="0 0 32 32" version="1.1">
<g id="surface1">
<path style=" stroke:none;fill-rule:nonzero;fill:rgb(90.588235%,80.784314%,72.156863%);fill-opacity:1;" d="M 8.578125 1.726562 L 23.421875 1.726562 C 25.578125 1.726562 27.324219 3.472656 27.324219 5.628906 L 27.324219 26.371094 C 27.324219 28.527344 25.578125 30.273438 23.421875 30.273438 L 8.578125 30.273438 C 6.421875 30.273438 4.675781 28.527344 4.675781 26.371094 L 4.675781 5.628906 C 4.675781 3.472656 6.421875 1.726562 8.578125 1.726562 Z M 8.578125 1.726562 "/>
<path style=" stroke:none;fill-rule:nonzero;fill:rgb(80.392157%,61.176471%,42.745098%);fill-opacity:1;" d="M 8.578125 1.726562 C 6.417969 1.726562 4.675781 3.46875 4.675781 5.628906 L 4.675781 21.375 C 4.859375 21.457031 5.1875 21.605469 5.210938 21.609375 C 5.257812 21.621094 5.472656 21.453125 5.726562 21.214844 C 5.96875 20.988281 6.335938 20.679688 6.546875 20.523438 C 6.832031 20.3125 6.933594 20.203125 6.945312 20.097656 C 6.957031 20.015625 6.828125 19.429688 6.664062 18.792969 C 6.34375 17.570312 6.324219 17.367188 6.488281 17.027344 C 6.671875 16.648438 6.820312 16.574219 8.367188 16.097656 L 9.777344 15.660156 L 10.042969 15.734375 C 10.503906 15.863281 10.597656 16.003906 11.117188 17.3125 C 11.371094 17.945312 11.605469 18.507812 11.640625 18.566406 C 11.6875 18.644531 11.824219 18.671875 12.242188 18.683594 C 12.539062 18.691406 13.027344 18.734375 13.324219 18.78125 C 13.621094 18.824219 13.882812 18.855469 13.910156 18.847656 C 13.933594 18.839844 14.230469 18.347656 14.566406 17.757812 C 14.902344 17.164062 15.25 16.609375 15.339844 16.515625 C 15.550781 16.300781 15.929688 16.179688 16.253906 16.226562 C 16.40625 16.246094 16.988281 16.507812 17.738281 16.898438 C 19.023438 17.5625 19.136719 17.652344 19.277344 18.09375 C 19.378906 18.40625 19.308594 18.660156 18.769531 19.84375 C 18.476562 20.484375 18.242188 21.03125 18.25 21.058594 C 18.257812 21.082031 18.464844 21.3125 18.707031 21.566406 C 18.949219 21.820312 19.257812 22.1875 19.390625 22.382812 C 19.558594 22.621094 19.675781 22.738281 19.757812 22.746094 C 19.824219 22.75 20.425781 22.617188 21.09375 22.445312 C 22.421875 22.105469 22.648438 22.089844 22.96875 22.328125 C 23.265625 22.550781 23.363281 22.761719 23.800781 24.1875 L 24.222656 25.546875 L 24.136719 25.824219 C 23.984375 26.320312 23.917969 26.363281 22.503906 26.925781 C 21.8125 27.199219 21.238281 27.4375 21.226562 27.460938 C 21.21875 27.480469 21.203125 27.734375 21.195312 28.023438 C 21.1875 28.3125 21.140625 28.796875 21.097656 29.09375 C 21.050781 29.394531 21.03125 29.667969 21.050781 29.703125 C 21.070312 29.734375 21.515625 30 21.988281 30.273438 L 23.421875 30.273438 C 25.582031 30.273438 27.324219 28.53125 27.324219 26.371094 L 27.324219 15.070312 C 27.179688 15.125 27.074219 15.15625 26.851562 15.261719 C 26.503906 15.421875 25.988281 15.632812 25.707031 15.726562 C 25.316406 15.851562 25.183594 15.925781 25.160156 16.03125 C 25.144531 16.105469 25.085938 16.8125 25.035156 17.609375 C 24.917969 19.351562 24.851562 19.542969 24.242188 19.851562 C 24.066406 19.9375 23.773438 19.953125 22.296875 19.953125 C 20.992188 19.949219 20.511719 19.929688 20.367188 19.863281 C 20.117188 19.75 19.847656 19.460938 19.730469 19.175781 C 19.667969 19.027344 19.605469 18.460938 19.554688 17.558594 C 19.507812 16.789062 19.449219 16.101562 19.421875 16.027344 C 19.386719 15.929688 19.210938 15.835938 18.773438 15.683594 C 18.441406 15.566406 17.945312 15.359375 17.667969 15.21875 C 17.390625 15.078125 17.101562 14.964844 17.027344 14.964844 C 16.945312 14.964844 16.492188 15.332031 15.84375 15.929688 C 15.265625 16.457031 14.699219 16.9375 14.585938 16.996094 C 14.351562 17.117188 13.824219 17.136719 13.550781 17.035156 C 13.332031 16.953125 11.039062 14.695312 10.890625 14.414062 C 10.746094 14.140625 10.761719 13.625 10.925781 13.3125 C 11 13.167969 11.484375 12.59375 12.003906 12.03125 C 12.5625 11.425781 12.945312 10.957031 12.945312 10.878906 C 12.945312 10.808594 12.832031 10.523438 12.691406 10.246094 C 12.554688 9.96875 12.34375 9.472656 12.230469 9.140625 C 12.117188 8.8125 11.972656 8.519531 11.917969 8.488281 C 11.859375 8.460938 11.1875 8.402344 10.417969 8.359375 C 9.527344 8.3125 8.929688 8.246094 8.753906 8.183594 C 8.425781 8.066406 8.042969 7.660156 7.988281 7.371094 C 7.96875 7.253906 7.957031 6.378906 7.96875 5.429688 L 7.988281 3.699219 L 8.1875 3.453125 C 8.539062 3.011719 8.703125 2.96875 10.378906 2.863281 C 11.328125 2.808594 11.90625 2.746094 11.953125 2.695312 C 11.996094 2.65625 12.136719 2.328125 12.269531 1.972656 C 12.300781 1.890625 12.339844 1.816406 12.375 1.726562 Z M 17.058594 1.726562 C 16.5 2.472656 16.09375 3.335938 15.898438 4.273438 C 15.445312 6.433594 16.105469 8.640625 17.683594 10.226562 C 18.511719 11.054688 19.582031 11.664062 20.746094 11.964844 C 21.074219 12.046875 21.546875 12.113281 22.214844 12.167969 C 22.269531 12.171875 22.589844 12.148438 22.925781 12.109375 C 24.492188 11.945312 25.804688 11.324219 26.917969 10.207031 C 27.066406 10.058594 27.191406 9.902344 27.324219 9.746094 L 27.324219 5.628906 C 27.324219 3.46875 25.582031 1.726562 23.421875 1.726562 L 22.773438 1.726562 C 23.59375 1.824219 24.386719 2.183594 25.015625 2.8125 C 26.257812 4.050781 26.554688 5.808594 25.785156 7.351562 C 25.128906 8.664062 23.921875 9.441406 22.441406 9.5 C 21.9375 9.519531 21.6875 9.496094 21.320312 9.394531 C 19.667969 8.945312 18.511719 7.539062 18.410156 5.855469 C 18.335938 4.675781 18.714844 3.679688 19.554688 2.847656 C 20.203125 2.199219 21.015625 1.828125 21.851562 1.726562 Z M 22.410156 3.316406 C 21.691406 3.28125 21.261719 3.429688 20.746094 3.90625 C 20.089844 4.503906 19.828125 5.335938 20.039062 6.160156 C 20.222656 6.871094 20.609375 7.355469 21.257812 7.683594 C 21.863281 7.988281 22.488281 8.015625 23.167969 7.761719 C 23.625 7.589844 24.167969 7.085938 24.398438 6.617188 C 24.722656 5.863281 24.554688 5.160156 24.359375 4.542969 C 23.933594 3.757812 23.300781 3.359375 22.410156 3.316406 Z M 11.828125 22.226562 C 11.351562 22.234375 11.226562 22.257812 10.378906 22.53125 C 9.566406 22.789062 9.402344 22.855469 9.042969 23.089844 C 7.25 24.261719 6.257812 26.328125 6.476562 28.421875 C 6.53125 28.921875 6.65625 29.402344 6.832031 29.859375 C 7.359375 30.121094 7.949219 30.273438 8.578125 30.273438 L 9.773438 30.273438 C 9.417969 29.941406 9.128906 29.53125 8.941406 29.054688 C 8.574219 28.109375 8.621094 27.195312 9.082031 26.296875 C 9.714844 25.066406 10.988281 24.394531 12.269531 24.484375 C 12.699219 24.511719 13.125 24.625 13.53125 24.832031 C 14.867188 25.515625 15.574219 26.871094 15.351562 28.332031 C 15.234375 29.113281 14.878906 29.777344 14.339844 30.273438 L 17.066406 30.273438 C 17.5 29.386719 17.691406 28.488281 17.644531 27.457031 C 17.613281 26.785156 17.175781 25.429688 16.804688 24.863281 C 15.679688 23.136719 13.878906 22.183594 11.828125 22.226562 Z M 12.070312 25.847656 C 11.898438 25.851562 11.722656 25.878906 11.535156 25.929688 C 10.941406 26.089844 10.632812 26.324219 10.335938 26.847656 C 9.957031 27.507812 9.964844 28.257812 10.351562 28.871094 C 10.6875 29.402344 11.128906 29.695312 11.746094 29.792969 C 12.320312 29.882812 12.835938 29.742188 13.324219 29.355469 C 13.652344 29.09375 13.964844 28.539062 14.027344 28.097656 C 14.09375 27.398438 13.769531 26.867188 13.449219 26.417969 C 13.03125 26.019531 12.582031 25.835938 12.070312 25.847656 Z M 12.070312 25.847656 "/>
</g>
</svg>
