
<svg xmlns="http://www.w3.org/2000/svg" xmlns:xlink="http://www.w3.org/1999/xlink" width="32px" height="32px" viewBox="0 0 32 32" version="1.1">
<defs>
<filter id="alpha" filterUnits="objectBoundingBox" x="0%" y="0%" width="100%" height="100%">
  <feColorMatrix type="matrix" in="SourceGraphic" values="0 0 0 0 1 0 0 0 0 1 0 0 0 0 1 0 0 0 1 0"/>
</filter>
<mask id="mask0">
  <g filter="url(#alpha)">
<rect x="0" y="0" width="32" height="32" style="fill:rgb(0%,0%,0%);fill-opacity:0.682353;stroke:none;"/>
  </g>
</mask>
<clipPath id="clip1">
  <rect x="0" y="0" width="32" height="32"/>
</clipPath>
<g id="surface5" clip-path="url(#clip1)">
<path style=" stroke:none;fill-rule:nonzero;fill:rgb(100%,100%,100%);fill-opacity:1;" d="M 16.449219 1.148438 L 16.449219 1.875 C 16.449219 1.925781 16.457031 1.976562 16.457031 2.027344 L 17.121094 2.324219 L 17.121094 2.742188 L 16.546875 2.742188 C 16.6875 3.363281 16.972656 3.925781 17.367188 4.390625 L 17.367188 3 L 18.621094 3 L 19.988281 3.613281 L 19.988281 5.757812 C 20.105469 5.765625 20.226562 5.773438 20.351562 5.773438 L 24.113281 5.773438 L 24.113281 5.660156 L 24.363281 5.773438 L 27.210938 5.773438 Z M 21.941406 1.277344 C 22.039062 1.359375 22.125 1.445312 22.214844 1.535156 C 22.128906 1.445312 22.039062 1.359375 21.941406 1.277344 Z M 21.941406 1.277344 "/>
</g>
<mask id="mask1">
  <g filter="url(#alpha)">
<rect x="0" y="0" width="32" height="32" style="fill:rgb(0%,0%,0%);fill-opacity:0.682353;stroke:none;"/>
  </g>
</mask>
<clipPath id="clip2">
  <rect x="0" y="0" width="32" height="32"/>
</clipPath>
<g id="surface8" clip-path="url(#clip2)">
<path style=" stroke:none;fill-rule:nonzero;fill:rgb(100%,100%,100%);fill-opacity:1;" d="M 27.210938 5.773438 L 16.449219 1.148438 L 16.449219 1.875 C 16.449219 4.035156 18.1875 5.773438 20.351562 5.773438 Z M 27.210938 5.773438 "/>
</g>
</defs>
<g id="surface1">
<path style=" stroke:none;fill-rule:nonzero;fill:rgb(60%,60%,60%);fill-opacity:1;" d="M 8.46875 1.148438 C 6.304688 1.148438 4.566406 2.886719 4.566406 5.050781 L 4.566406 25.792969 C 4.566406 27.953125 6.304688 29.691406 8.46875 29.691406 L 23.3125 29.691406 C 25.472656 29.691406 27.210938 27.953125 27.210938 25.792969 L 27.210938 5.773438 L 16.449219 1.148438 Z M 23.710938 1.167969 C 23.972656 1.195312 24.230469 1.246094 24.472656 1.324219 C 24.230469 1.246094 23.972656 1.195312 23.710938 1.167969 Z M 24.472656 1.324219 C 24.839844 1.4375 25.183594 1.601562 25.496094 1.8125 C 25.183594 1.601562 24.839844 1.4375 24.472656 1.324219 Z M 25.796875 2.035156 C 25.890625 2.117188 25.984375 2.199219 26.070312 2.289062 C 25.984375 2.199219 25.890625 2.117188 25.796875 2.035156 Z M 25.796875 2.035156 "/>
<path style=" stroke:none;fill-rule:nonzero;fill:rgb(92.54902%,91.372549%,84.705882%);fill-opacity:1;" d="M 8.46875 1.148438 C 6.304688 1.148438 4.566406 2.886719 4.566406 5.050781 L 4.566406 25.792969 C 4.566406 27.953125 6.304688 29.691406 8.46875 29.691406 L 14.503906 29.691406 L 14.503906 28.171875 L 17.121094 28.171875 L 17.121094 29.691406 L 23.3125 29.691406 C 25.472656 29.691406 27.210938 27.953125 27.210938 25.792969 L 27.210938 7.054688 L 24.113281 7.054688 L 24.113281 5.660156 L 27.210938 7.054688 L 27.210938 5.773438 L 16.449219 1.148438 L 14.503906 1.148438 L 17.121094 2.324219 L 17.121094 2.742188 L 14.503906 2.742188 L 14.503906 1.148438 Z M 21.941406 1.277344 C 22.039062 1.359375 22.125 1.445312 22.214844 1.535156 C 22.128906 1.445312 22.039062 1.359375 21.941406 1.277344 Z M 25.796875 2.035156 C 25.890625 2.117188 25.984375 2.199219 26.070312 2.289062 C 25.984375 2.199219 25.890625 2.117188 25.796875 2.035156 Z M 17.367188 3 L 18.621094 3 L 19.988281 3.613281 L 19.988281 5.824219 L 17.367188 5.824219 Z M 14.503906 6.082031 L 17.121094 6.082031 L 17.121094 8.5625 L 14.503906 8.5625 Z M 20.234375 6.082031 L 22.445312 6.082031 L 22.445312 8.5625 L 20.234375 8.5625 Z M 17.367188 8.820312 L 19.988281 8.820312 L 19.988281 12.84375 L 17.367188 12.84375 Z M 14.503906 13.101562 L 17.121094 13.101562 L 17.121094 16.613281 L 14.503906 16.613281 Z M 20.234375 13.101562 L 22.445312 13.101562 L 22.445312 16.613281 L 20.234375 16.613281 Z M 24.371094 13.894531 L 26.582031 13.894531 L 26.582031 17.917969 L 24.371094 17.917969 Z M 17.367188 16.871094 L 19.988281 16.871094 L 19.988281 20.378906 L 17.367188 20.378906 Z M 14.503906 20.636719 L 17.121094 20.636719 L 17.121094 24.488281 L 14.503906 24.488281 Z M 20.234375 20.636719 L 22.445312 20.636719 L 22.445312 24.488281 L 20.234375 24.488281 Z M 23.800781 22.648438 L 26.011719 22.648438 L 26.011719 25.820312 L 23.800781 25.820312 Z M 17.367188 24.746094 L 19.988281 24.746094 L 19.988281 27.914062 L 17.367188 27.914062 Z M 17.367188 24.746094 "/>
<use xlink:href="#surface5" mask="url(#mask0)"/>
<use xlink:href="#surface8" mask="url(#mask1)"/>
<path style=" stroke:none;fill-rule:nonzero;fill:rgb(0%,0%,0%);fill-opacity:0.352941;" d="M 10.203125 13.101562 L 10.203125 13.679688 L 17.121094 13.679688 L 17.121094 13.101562 Z M 10.203125 15.421875 L 10.203125 16 L 19.601562 16 L 19.601562 15.421875 Z M 10.203125 17.738281 L 10.203125 18.320312 L 17.121094 18.320312 L 17.121094 17.738281 Z M 10.203125 20.058594 L 10.203125 20.636719 L 18.183594 20.636719 L 18.183594 20.058594 Z M 10.203125 22.375 L 10.203125 22.957031 L 17.050781 22.957031 L 17.050781 22.375 Z M 10.203125 22.375 "/>
</g>
</svg>
