
<svg xmlns="http://www.w3.org/2000/svg" xmlns:xlink="http://www.w3.org/1999/xlink" width="32px" height="32px" viewBox="0 0 32 32" version="1.1">
<g id="surface1">
<path style=" stroke:none;fill-rule:nonzero;fill:rgb(93.333333%,81.960784%,50.980392%);fill-opacity:1;" d="M 8.320312 0.789062 C 6.027344 0.789062 4.183594 2.632812 4.183594 4.921875 L 4.183594 26.914062 C 4.183594 29.207031 6.027344 31.046875 8.320312 31.046875 L 24.054688 31.046875 C 26.347656 31.046875 28.191406 29.207031 28.191406 26.914062 L 28.191406 5.691406 L 16.78125 0.789062 Z M 24.480469 0.808594 C 24.757812 0.835938 25.027344 0.890625 25.289062 0.972656 C 25.027344 0.890625 24.757812 0.835938 24.480469 0.808594 Z M 25.289062 0.972656 C 25.675781 1.09375 26.042969 1.269531 26.371094 1.492188 C 26.042969 1.269531 25.675781 1.09375 25.289062 0.972656 Z M 26.691406 1.726562 C 26.792969 1.8125 26.886719 1.902344 26.980469 1.996094 C 26.886719 1.902344 26.792969 1.8125 26.691406 1.726562 Z M 26.691406 1.726562 "/>
<path style=" stroke:none;fill-rule:nonzero;fill:rgb(99.607843%,75.686275%,9.019608%);fill-opacity:1;" d="M 6.253906 1.359375 C 6.246094 1.363281 6.242188 1.371094 6.234375 1.375 L 6.234375 2.890625 L 7.761719 2.890625 L 7.761719 1.359375 Z M 8.5 1.359375 L 8.5 2.890625 L 10.03125 2.890625 L 10.03125 1.359375 Z M 10.769531 1.359375 L 10.769531 2.890625 L 12.296875 2.890625 L 12.296875 1.359375 Z M 13.035156 1.359375 L 13.035156 2.890625 L 14.5625 2.890625 L 14.5625 1.359375 Z M 15.300781 1.359375 L 15.300781 2.890625 L 16.832031 2.890625 L 16.832031 1.359375 Z M 17.570312 1.359375 L 17.570312 2.890625 L 19.097656 2.890625 L 19.097656 1.804688 L 18.0625 1.359375 Z M 26.691406 1.75 C 26.792969 1.835938 26.886719 1.925781 26.980469 2.019531 C 26.886719 1.921875 26.792969 1.835938 26.691406 1.75 Z M 5.496094 1.921875 C 5.195312 2.203125 4.9375 2.53125 4.730469 2.890625 L 5.496094 2.890625 Z M 19.835938 2.125 L 19.835938 2.890625 L 21.367188 2.890625 L 21.367188 2.78125 Z M 4.398438 3.628906 C 4.261719 4.042969 4.183594 4.484375 4.183594 4.945312 L 4.183594 5.15625 L 5.496094 5.15625 L 5.496094 3.628906 Z M 6.234375 3.628906 L 6.234375 5.15625 L 7.761719 5.15625 L 7.761719 3.628906 Z M 8.5 3.628906 L 8.5 5.15625 L 10.03125 5.15625 L 10.03125 3.628906 Z M 10.769531 3.628906 L 10.769531 5.15625 L 12.296875 5.15625 L 12.296875 3.628906 Z M 13.035156 3.628906 L 13.035156 5.15625 L 14.5625 5.15625 L 14.5625 3.628906 Z M 15.300781 3.628906 L 15.300781 5.15625 L 16.832031 5.15625 L 16.832031 3.628906 Z M 17.570312 3.628906 L 17.570312 5.15625 L 19.097656 5.15625 L 19.097656 3.628906 Z M 19.835938 3.628906 L 19.835938 5.15625 L 21.367188 5.15625 L 21.367188 3.628906 Z M 22.105469 3.628906 L 22.105469 5.15625 L 23.632812 5.15625 L 23.632812 3.753906 L 23.339844 3.628906 Z M 24.371094 4.070312 L 24.371094 5.15625 L 25.902344 5.15625 L 25.902344 4.726562 Z M 26.640625 5.046875 L 26.640625 5.15625 L 26.898438 5.15625 Z M 4.183594 5.894531 L 4.183594 7.425781 L 5.496094 7.425781 L 5.496094 5.894531 Z M 6.234375 5.894531 L 6.234375 7.425781 L 7.761719 7.425781 L 7.761719 5.894531 Z M 8.5 5.894531 L 8.5 7.425781 L 10.03125 7.425781 L 10.03125 5.894531 Z M 10.769531 5.894531 L 10.769531 7.425781 L 12.296875 7.425781 L 12.296875 5.894531 Z M 13.035156 5.894531 L 13.035156 7.425781 L 14.5625 7.425781 L 14.5625 5.894531 Z M 15.300781 5.894531 L 15.300781 7.425781 L 16.832031 7.425781 L 16.832031 5.894531 Z M 17.570312 5.894531 L 17.570312 7.425781 L 19.097656 7.425781 L 19.097656 5.894531 Z M 19.835938 5.894531 L 19.835938 7.425781 L 21.367188 7.425781 L 21.367188 5.894531 Z M 22.105469 5.894531 L 22.105469 7.425781 L 23.632812 7.425781 L 23.632812 5.894531 Z M 24.371094 5.894531 L 24.371094 7.425781 L 25.902344 7.425781 L 25.902344 5.894531 Z M 26.640625 5.894531 L 26.640625 7.425781 L 28.167969 7.425781 L 28.167969 5.894531 Z M 4.183594 8.164062 L 4.183594 9.691406 L 5.496094 9.691406 L 5.496094 8.164062 Z M 6.234375 8.164062 L 6.234375 9.691406 L 7.761719 9.691406 L 7.761719 8.164062 Z M 8.5 8.164062 L 8.5 9.691406 L 10.03125 9.691406 L 10.03125 8.164062 Z M 10.769531 8.164062 L 10.769531 9.691406 L 12.296875 9.691406 L 12.296875 8.164062 Z M 13.035156 8.164062 L 13.035156 9.691406 L 14.5625 9.691406 L 14.5625 8.164062 Z M 15.300781 8.164062 L 15.300781 9.691406 L 16.832031 9.691406 L 16.832031 8.164062 Z M 17.570312 8.164062 L 17.570312 9.691406 L 19.097656 9.691406 L 19.097656 8.164062 Z M 19.835938 8.164062 L 19.835938 9.691406 L 21.367188 9.691406 L 21.367188 8.164062 Z M 22.105469 8.164062 L 22.105469 9.691406 L 23.632812 9.691406 L 23.632812 8.164062 Z M 24.371094 8.164062 L 24.371094 9.691406 L 25.902344 9.691406 L 25.902344 8.164062 Z M 26.640625 8.164062 L 26.640625 9.691406 L 28.167969 9.691406 L 28.167969 8.164062 Z M 4.183594 10.429688 L 4.183594 11.957031 L 5.496094 11.957031 L 5.496094 10.429688 Z M 6.234375 10.429688 L 6.234375 11.957031 L 7.761719 11.957031 L 7.761719 10.429688 Z M 8.5 10.429688 L 8.5 11.957031 L 10.03125 11.957031 L 10.03125 10.429688 Z M 10.769531 10.429688 L 10.769531 11.957031 L 12.296875 11.957031 L 12.296875 10.429688 Z M 13.035156 10.429688 L 13.035156 11.957031 L 14.5625 11.957031 L 14.5625 10.429688 Z M 15.300781 10.429688 L 15.300781 11.957031 L 16.832031 11.957031 L 16.832031 10.429688 Z M 17.570312 10.429688 L 17.570312 11.957031 L 19.097656 11.957031 L 19.097656 10.429688 Z M 19.835938 10.429688 L 19.835938 11.957031 L 21.367188 11.957031 L 21.367188 10.429688 Z M 22.105469 10.429688 L 22.105469 11.957031 L 23.632812 11.957031 L 23.632812 10.429688 Z M 24.371094 10.429688 L 24.371094 11.957031 L 25.902344 11.957031 L 25.902344 10.429688 Z M 26.640625 10.429688 L 26.640625 11.957031 L 28.167969 11.957031 L 28.167969 10.429688 Z M 4.183594 12.699219 L 4.183594 14.226562 L 5.496094 14.226562 L 5.496094 12.699219 Z M 6.234375 12.699219 L 6.234375 14.226562 L 7.761719 14.226562 L 7.761719 12.699219 Z M 8.5 12.699219 L 8.5 14.226562 L 10.03125 14.226562 L 10.03125 12.699219 Z M 10.769531 12.699219 L 10.769531 14.226562 L 12.296875 14.226562 L 12.296875 12.699219 Z M 13.035156 12.699219 L 13.035156 14.226562 L 14.5625 14.226562 L 14.5625 12.699219 Z M 15.300781 12.699219 L 15.300781 14.226562 L 16.832031 14.226562 L 16.832031 12.699219 Z M 17.570312 12.699219 L 17.570312 14.226562 L 19.097656 14.226562 L 19.097656 12.699219 Z M 19.835938 12.699219 L 19.835938 14.226562 L 21.367188 14.226562 L 21.367188 12.699219 Z M 22.105469 12.699219 L 22.105469 14.226562 L 23.632812 14.226562 L 23.632812 12.699219 Z M 24.371094 12.699219 L 24.371094 14.226562 L 25.902344 14.226562 L 25.902344 12.699219 Z M 26.640625 12.699219 L 26.640625 14.226562 L 28.167969 14.226562 L 28.167969 12.699219 Z M 4.183594 14.964844 L 4.183594 16.492188 L 5.496094 16.492188 L 5.496094 14.964844 Z M 6.234375 14.964844 L 6.234375 16.492188 L 7.761719 16.492188 L 7.761719 14.964844 Z M 8.5 14.964844 L 8.5 16.492188 L 10.03125 16.492188 L 10.03125 14.964844 Z M 10.769531 14.964844 L 10.769531 16.492188 L 12.296875 16.492188 L 12.296875 14.964844 Z M 13.035156 14.964844 L 13.035156 16.492188 L 14.5625 16.492188 L 14.5625 14.964844 Z M 15.300781 14.964844 L 15.300781 16.492188 L 16.832031 16.492188 L 16.832031 14.964844 Z M 17.570312 14.964844 L 17.570312 16.492188 L 19.097656 16.492188 L 19.097656 14.964844 Z M 19.835938 14.964844 L 19.835938 16.492188 L 21.367188 16.492188 L 21.367188 14.964844 Z M 22.105469 14.964844 L 22.105469 16.492188 L 23.632812 16.492188 L 23.632812 14.964844 Z M 24.371094 14.964844 L 24.371094 16.492188 L 25.902344 16.492188 L 25.902344 14.964844 Z M 26.640625 14.964844 L 26.640625 16.492188 L 28.167969 16.492188 L 28.167969 14.964844 Z M 4.183594 17.230469 L 4.183594 18.761719 L 5.496094 18.761719 L 5.496094 17.230469 Z M 6.234375 17.230469 L 6.234375 18.761719 L 7.761719 18.761719 L 7.761719 17.230469 Z M 8.5 17.230469 L 8.5 18.761719 L 10.03125 18.761719 L 10.03125 17.230469 Z M 10.769531 17.230469 L 10.769531 18.761719 L 12.296875 18.761719 L 12.296875 17.230469 Z M 13.035156 17.230469 L 13.035156 18.761719 L 14.5625 18.761719 L 14.5625 17.230469 Z M 15.300781 17.230469 L 15.300781 18.761719 L 16.832031 18.761719 L 16.832031 17.230469 Z M 17.570312 17.230469 L 17.570312 18.761719 L 19.097656 18.761719 L 19.097656 17.230469 Z M 19.835938 17.230469 L 19.835938 18.761719 L 21.367188 18.761719 L 21.367188 17.230469 Z M 22.105469 17.230469 L 22.105469 18.761719 L 23.632812 18.761719 L 23.632812 17.230469 Z M 24.371094 17.230469 L 24.371094 18.761719 L 25.902344 18.761719 L 25.902344 17.230469 Z M 26.640625 17.230469 L 26.640625 18.761719 L 28.167969 18.761719 L 28.167969 17.230469 Z M 4.183594 19.5 L 4.183594 21.027344 L 5.496094 21.027344 L 5.496094 19.5 Z M 6.234375 19.5 L 6.234375 21.027344 L 7.761719 21.027344 L 7.761719 19.5 Z M 8.5 19.5 L 8.5 21.027344 L 10.03125 21.027344 L 10.03125 19.5 Z M 10.769531 19.5 L 10.769531 21.027344 L 12.296875 21.027344 L 12.296875 19.5 Z M 13.035156 19.5 L 13.035156 21.027344 L 14.5625 21.027344 L 14.5625 19.5 Z M 15.300781 19.5 L 15.300781 21.027344 L 16.832031 21.027344 L 16.832031 19.5 Z M 17.570312 19.5 L 17.570312 21.027344 L 19.097656 21.027344 L 19.097656 19.5 Z M 19.835938 19.5 L 19.835938 21.027344 L 21.367188 21.027344 L 21.367188 19.5 Z M 22.105469 19.5 L 22.105469 21.027344 L 23.632812 21.027344 L 23.632812 19.5 Z M 24.371094 19.5 L 24.371094 21.027344 L 25.902344 21.027344 L 25.902344 19.5 Z M 26.640625 19.5 L 26.640625 21.027344 L 28.167969 21.027344 L 28.167969 19.5 Z M 4.183594 21.765625 L 4.183594 23.296875 L 5.496094 23.296875 L 5.496094 21.765625 Z M 6.234375 21.765625 L 6.234375 23.296875 L 7.761719 23.296875 L 7.761719 21.765625 Z M 8.5 21.765625 L 8.5 23.296875 L 10.03125 23.296875 L 10.03125 21.765625 Z M 10.769531 21.765625 L 10.769531 23.296875 L 12.296875 23.296875 L 12.296875 21.765625 Z M 13.035156 21.765625 L 13.035156 23.296875 L 14.5625 23.296875 L 14.5625 21.765625 Z M 15.300781 21.765625 L 15.300781 23.296875 L 16.832031 23.296875 L 16.832031 21.765625 Z M 17.570312 21.765625 L 17.570312 23.296875 L 19.097656 23.296875 L 19.097656 21.765625 Z M 19.835938 21.765625 L 19.835938 23.296875 L 21.367188 23.296875 L 21.367188 21.765625 Z M 22.105469 21.765625 L 22.105469 23.296875 L 23.632812 23.296875 L 23.632812 21.765625 Z M 24.371094 21.765625 L 24.371094 23.296875 L 25.902344 23.296875 L 25.902344 21.765625 Z M 26.640625 21.765625 L 26.640625 23.296875 L 28.167969 23.296875 L 28.167969 21.765625 Z M 4.183594 24.035156 L 4.183594 25.5625 L 5.496094 25.5625 L 5.496094 24.035156 Z M 6.234375 24.035156 L 6.234375 25.5625 L 7.761719 25.5625 L 7.761719 24.035156 Z M 8.5 24.035156 L 8.5 25.5625 L 10.03125 25.5625 L 10.03125 24.035156 Z M 10.769531 24.035156 L 10.769531 25.5625 L 12.296875 25.5625 L 12.296875 24.035156 Z M 13.035156 24.035156 L 13.035156 25.5625 L 14.5625 25.5625 L 14.5625 24.035156 Z M 15.300781 24.035156 L 15.300781 25.5625 L 16.832031 25.5625 L 16.832031 24.035156 Z M 17.570312 24.035156 L 17.570312 25.5625 L 19.097656 25.5625 L 19.097656 24.035156 Z M 19.835938 24.035156 L 19.835938 25.5625 L 21.367188 25.5625 L 21.367188 24.035156 Z M 22.105469 24.035156 L 22.105469 25.5625 L 23.632812 25.5625 L 23.632812 24.035156 Z M 24.371094 24.035156 L 24.371094 25.5625 L 25.902344 25.5625 L 25.902344 24.035156 Z M 26.640625 24.035156 L 26.640625 25.5625 L 28.167969 25.5625 L 28.167969 24.035156 Z M 4.183594 26.300781 L 4.183594 26.933594 C 4.183594 27.242188 4.21875 27.542969 4.28125 27.828125 L 5.496094 27.828125 L 5.496094 26.300781 Z M 6.234375 26.300781 L 6.234375 27.828125 L 7.761719 27.828125 L 7.761719 26.300781 Z M 8.5 26.300781 L 8.5 27.828125 L 10.03125 27.828125 L 10.03125 26.300781 Z M 10.769531 26.300781 L 10.769531 27.828125 L 12.296875 27.828125 L 12.296875 26.300781 Z M 13.035156 26.300781 L 13.035156 27.828125 L 14.5625 27.828125 L 14.5625 26.300781 Z M 15.300781 26.300781 L 15.300781 27.828125 L 16.832031 27.828125 L 16.832031 26.300781 Z M 17.570312 26.300781 L 17.570312 27.828125 L 19.097656 27.828125 L 19.097656 26.300781 Z M 19.835938 26.300781 L 19.835938 27.828125 L 21.367188 27.828125 L 21.367188 26.300781 Z M 22.105469 26.300781 L 22.105469 27.828125 L 23.632812 27.828125 L 23.632812 26.300781 Z M 24.371094 26.300781 L 24.371094 27.828125 L 25.902344 27.828125 L 25.902344 26.300781 Z M 26.640625 26.300781 L 26.640625 27.828125 L 28.09375 27.828125 C 28.125 27.679688 28.152344 27.527344 28.167969 27.375 L 28.167969 26.300781 Z M 4.515625 28.566406 C 4.742188 29.097656 5.082031 29.570312 5.496094 29.957031 L 5.496094 28.566406 Z M 6.234375 28.566406 L 6.234375 30.097656 L 7.761719 30.097656 L 7.761719 28.566406 Z M 8.5 28.566406 L 8.5 30.097656 L 10.03125 30.097656 L 10.03125 28.566406 Z M 10.769531 28.566406 L 10.769531 30.097656 L 12.296875 30.097656 L 12.296875 28.566406 Z M 13.035156 28.566406 L 13.035156 30.097656 L 14.5625 30.097656 L 14.5625 28.566406 Z M 15.300781 28.566406 L 15.300781 30.097656 L 16.832031 30.097656 L 16.832031 28.566406 Z M 17.570312 28.566406 L 17.570312 30.097656 L 19.097656 30.097656 L 19.097656 28.566406 Z M 19.835938 28.566406 L 19.835938 30.097656 L 21.367188 30.097656 L 21.367188 28.566406 Z M 22.105469 28.566406 L 22.105469 30.097656 L 23.632812 30.097656 L 23.632812 28.566406 Z M 24.371094 28.566406 L 24.371094 30.097656 L 25.902344 30.097656 L 25.902344 28.566406 Z M 26.640625 28.566406 L 26.640625 30.097656 L 26.726562 30.097656 C 27.210938 29.683594 27.605469 29.164062 27.859375 28.566406 Z M 6.949219 30.835938 C 7.210938 30.925781 7.480469 30.992188 7.761719 31.027344 L 7.761719 30.835938 Z M 8.5 30.835938 L 8.5 31.070312 L 10.03125 31.070312 L 10.03125 30.835938 Z M 10.769531 30.835938 L 10.769531 31.070312 L 12.296875 31.070312 L 12.296875 30.835938 Z M 13.035156 30.835938 L 13.035156 31.070312 L 14.5625 31.070312 L 14.5625 30.835938 Z M 15.300781 30.835938 L 15.300781 31.070312 L 16.832031 31.070312 L 16.832031 30.835938 Z M 17.570312 30.835938 L 17.570312 31.070312 L 19.097656 31.070312 L 19.097656 30.835938 Z M 19.835938 30.835938 L 19.835938 31.070312 L 21.367188 31.070312 L 21.367188 30.835938 Z M 22.105469 30.835938 L 22.105469 31.070312 L 23.632812 31.070312 L 23.632812 30.835938 Z M 24.371094 30.835938 L 24.371094 31.054688 C 24.738281 31.027344 25.089844 30.953125 25.425781 30.835938 Z M 24.371094 30.835938 "/>
<path style=" stroke:none;fill-rule:nonzero;fill:rgb(100%,100%,100%);fill-opacity:1;" d="M 28.191406 5.691406 L 16.78125 0.789062 L 16.78125 1.554688 C 16.78125 3.847656 18.625 5.691406 20.917969 5.691406 Z M 28.191406 5.691406 "/>
<path style=" stroke:none;fill-rule:nonzero;fill:rgb(100%,100%,100%);fill-opacity:1;" d="M 19.535156 12.230469 C 19.179688 12.230469 18.878906 12.417969 18.710938 12.691406 L 15.230469 12.691406 C 15.230469 12.691406 14.539062 12.679688 13.828125 13.023438 C 13.113281 13.367188 12.363281 14.152344 12.363281 15.457031 C 12.363281 16.761719 13.113281 17.546875 13.828125 17.890625 C 14.164062 18.054688 14.496094 18.125 14.753906 18.164062 L 14.753906 18.367188 L 13.4375 19.636719 C 13.398438 19.625 13.363281 19.605469 13.320312 19.605469 C 13.054688 19.605469 12.839844 19.8125 12.839844 20.066406 C 12.839844 20.320312 13.054688 20.527344 13.320312 20.527344 C 13.582031 20.527344 13.796875 20.320312 13.796875 20.066406 C 13.796875 20.023438 13.777344 19.992188 13.765625 19.953125 L 15.082031 18.683594 L 16.664062 18.683594 L 16.664062 18.222656 L 17.144531 18.222656 C 17.144531 18.222656 17.644531 18.234375 18.128906 18.46875 C 18.613281 18.703125 19.054688 19.066406 19.054688 20.066406 C 19.054688 21.066406 18.613281 21.433594 18.128906 21.667969 C 17.644531 21.898438 17.144531 21.910156 17.144531 21.910156 L 13.664062 21.910156 C 13.496094 21.636719 13.195312 21.449219 12.839844 21.449219 C 12.3125 21.449219 11.882812 21.863281 11.882812 22.371094 C 11.882812 22.878906 12.3125 23.292969 12.839844 23.292969 C 13.195312 23.292969 13.496094 23.109375 13.664062 22.832031 L 17.144531 22.832031 C 17.144531 22.832031 17.835938 22.84375 18.546875 22.5 C 19.261719 22.15625 20.011719 21.371094 20.011719 20.066406 C 20.011719 18.761719 19.261719 17.976562 18.546875 17.632812 C 17.835938 17.289062 17.144531 17.300781 17.144531 17.300781 L 16.664062 17.300781 L 16.664062 17.15625 L 17.980469 15.890625 C 18.019531 15.898438 18.054688 15.917969 18.101562 15.917969 C 18.363281 15.917969 18.578125 15.710938 18.578125 15.457031 C 18.578125 15.203125 18.363281 14.996094 18.101562 14.996094 C 17.835938 14.996094 17.621094 15.203125 17.621094 15.457031 C 17.621094 15.5 17.640625 15.535156 17.652344 15.574219 L 16.335938 16.839844 L 14.753906 16.839844 L 14.753906 17.230469 C 14.59375 17.195312 14.425781 17.140625 14.246094 17.058594 C 13.761719 16.824219 13.320312 16.457031 13.320312 15.457031 C 13.320312 14.457031 13.761719 14.09375 14.246094 13.859375 C 14.730469 13.625 15.230469 13.613281 15.230469 13.613281 L 18.710938 13.613281 C 18.878906 13.890625 19.179688 14.074219 19.535156 14.074219 C 20.0625 14.074219 20.488281 13.660156 20.488281 13.152344 C 20.488281 12.644531 20.0625 12.230469 19.535156 12.230469 Z M 19.535156 12.230469 "/>
</g>
</svg>
