
<svg xmlns="http://www.w3.org/2000/svg" xmlns:xlink="http://www.w3.org/1999/xlink" width="32px" height="32px" viewBox="0 0 32 32" version="1.1">
<defs>
<filter id="alpha" filterUnits="objectBoundingBox" x="0%" y="0%" width="100%" height="100%">
  <feColorMatrix type="matrix" in="SourceGraphic" values="0 0 0 0 1 0 0 0 0 1 0 0 0 0 1 0 0 0 1 0"/>
</filter>
<mask id="mask0">
  <g filter="url(#alpha)">
<rect x="0" y="0" width="32" height="32" style="fill:rgb(0%,0%,0%);fill-opacity:0.682353;stroke:none;"/>
  </g>
</mask>
<clipPath id="clip1">
  <rect x="0" y="0" width="32" height="32"/>
</clipPath>
<g id="surface5" clip-path="url(#clip1)">
<path style=" stroke:none;fill-rule:nonzero;fill:rgb(36.862745%,36.470588%,33.72549%);fill-opacity:1;" d="M 27.324219 6.355469 L 16.558594 1.726562 L 16.558594 2.453125 C 16.558594 4.613281 18.300781 6.355469 20.460938 6.355469 Z M 27.324219 6.355469 "/>
</g>
<mask id="mask1">
  <g filter="url(#alpha)">
<rect x="0" y="0" width="32" height="32" style="fill:rgb(0%,0%,0%);fill-opacity:0.6;stroke:none;"/>
  </g>
</mask>
<clipPath id="clip2">
  <rect x="0" y="0" width="32" height="32"/>
</clipPath>
<g id="surface8" clip-path="url(#clip2)">
<path style=" stroke:none;fill-rule:nonzero;fill:rgb(0%,0%,0%);fill-opacity:1;" d="M 8.289062 8.4375 L 8.289062 14.632812 L 18.351562 14.632812 L 18.351562 8.4375 Z M 8.675781 8.828125 L 17.964844 8.828125 L 17.964844 14.246094 L 8.675781 14.246094 Z M 9.0625 9.214844 L 9.0625 13.855469 L 9.839844 13.855469 L 9.839844 10.308594 L 11.386719 11.855469 L 12.933594 10.308594 L 12.933594 13.855469 L 13.707031 13.855469 L 13.707031 9.214844 L 12.933594 9.214844 L 11.386719 10.761719 L 9.839844 9.214844 Z M 15.644531 9.214844 L 15.644531 12.308594 L 14.480469 12.308594 L 16.03125 13.855469 L 17.578125 12.308594 L 16.417969 12.308594 L 16.417969 9.214844 Z M 15.644531 9.214844 "/>
</g>
</defs>
<g id="surface1">
<path style=" stroke:none;fill-rule:nonzero;fill:rgb(92.54902%,91.372549%,84.705882%);fill-opacity:1;" d="M 8.578125 1.726562 C 6.417969 1.726562 4.675781 3.46875 4.675781 5.628906 L 4.675781 26.371094 C 4.675781 28.53125 6.417969 30.273438 8.578125 30.273438 L 23.421875 30.273438 C 25.582031 30.273438 27.324219 28.53125 27.324219 26.371094 L 27.324219 6.355469 L 16.558594 1.726562 Z M 23.820312 1.746094 C 24.085938 1.773438 24.339844 1.828125 24.585938 1.902344 C 24.339844 1.828125 24.085938 1.773438 23.820312 1.746094 Z M 24.585938 1.902344 C 24.953125 2.015625 25.292969 2.183594 25.605469 2.390625 C 25.292969 2.183594 24.953125 2.015625 24.585938 1.902344 Z M 25.90625 2.617188 C 26.003906 2.695312 26.09375 2.78125 26.183594 2.867188 C 26.09375 2.78125 26.003906 2.695312 25.90625 2.617188 Z M 25.90625 2.617188 "/>
<use xlink:href="#surface5" mask="url(#mask0)"/>
<path style=" stroke:none;fill-rule:nonzero;fill:rgb(54.509804%,53.72549%,50.196078%);fill-opacity:1;" d="M 15.476562 16.28125 L 19.441406 16.28125 C 19.628906 16.28125 19.777344 16.4375 19.777344 16.628906 L 19.777344 19.992188 C 19.777344 20.183594 19.628906 20.339844 19.441406 20.339844 L 15.476562 20.339844 C 15.289062 20.339844 15.140625 20.183594 15.140625 19.992188 L 15.140625 16.628906 C 15.140625 16.4375 15.289062 16.28125 15.476562 16.28125 Z M 15.476562 16.28125 "/>
<path style="fill:none;stroke-width:0.869565;stroke-linecap:round;stroke-linejoin:round;stroke:rgb(0%,0%,0%);stroke-opacity:0.298039;stroke-miterlimit:4;" d="M 31.839844 24.855469 L 36.1875 24.855469 " transform="matrix(0.666667,0,0,0.666667,0,0)"/>
<path style="fill:none;stroke-width:0.869565;stroke-linecap:round;stroke-linejoin:round;stroke:rgb(0%,0%,0%);stroke-opacity:0.298039;stroke-miterlimit:4;" d="M 31.839844 27.462891 L 36.1875 27.462891 " transform="matrix(0.666667,0,0,0.666667,0,0)"/>
<path style="fill:none;stroke-width:0.869565;stroke-linecap:round;stroke-linejoin:round;stroke:rgb(0%,0%,0%);stroke-opacity:0.298039;stroke-miterlimit:4;" d="M 31.839844 30.076172 L 36.1875 30.076172 " transform="matrix(0.666667,0,0,0.666667,0,0)"/>
<path style="fill:none;stroke-width:0.869565;stroke-linecap:round;stroke-linejoin:round;stroke:rgb(0%,0%,0%);stroke-opacity:0.298039;stroke-miterlimit:4;" d="M 22.710938 32.683594 L 36.621094 32.683594 " transform="matrix(0.666667,0,0,0.666667,0,0)"/>
<path style="fill:none;stroke-width:0.869565;stroke-linecap:round;stroke-linejoin:round;stroke:rgb(0%,0%,0%);stroke-opacity:0.298039;stroke-miterlimit:4;" d="M 22.710938 35.291016 L 36.621094 35.291016 " transform="matrix(0.666667,0,0,0.666667,0,0)"/>
<path style="fill:none;stroke-width:0.869565;stroke-linecap:round;stroke-linejoin:round;stroke:rgb(0%,0%,0%);stroke-opacity:0.298039;stroke-miterlimit:4;" d="M 22.710938 37.898438 L 36.621094 37.898438 " transform="matrix(0.666667,0,0,0.666667,0,0)"/>
<path style="fill:none;stroke-width:0.869565;stroke-linecap:round;stroke-linejoin:round;stroke:rgb(0%,0%,0%);stroke-opacity:0.298039;stroke-miterlimit:4;" d="M 22.710938 40.505859 L 36.621094 40.505859 " transform="matrix(0.666667,0,0,0.666667,0,0)"/>
<use xlink:href="#surface8" mask="url(#mask1)"/>
</g>
</svg>
