<svg xmlns="http://www.w3.org/2000/svg" width="32" height="32"><path style="stroke:none;fill-rule:nonzero;fill:#1a1a1a;fill-opacity:1" d="M8.207 29.453h4.363c.047 0 .086.07.086.156V31.5c0 .086-.039.156-.086.156H8.207c-.047 0-.082-.07-.082-.156v-1.89c0-.087.035-.157.082-.157zm11.223 0h4.363c.047 0 .082.07.082.156V31.5c0 .086-.035.156-.082.156H19.43c-.047 0-.086-.07-.086-.156v-1.89c0-.087.039-.157.086-.157zm0 0"/><path style="stroke:none;fill-rule:nonzero;fill:#4d4d4d;fill-opacity:1" d="M7.926.344h16.148c.07 0 .125.062.125.14v29.707c0 .079-.054.145-.125.145H7.926c-.07 0-.125-.066-.125-.145V.484c0-.078.054-.14.125-.14zm0 0"/><path style="stroke:none;fill-rule:nonzero;fill:#b3b3b3;fill-opacity:1" d="M8.79 13.313h1.472c.07 0 .129.062.129.144V28.57c0 .078-.059.145-.13.145H8.79c-.07 0-.125-.067-.125-.145V13.457c0-.082.055-.145.125-.145zm2.589 0h1.473c.07 0 .128.062.128.144V28.57c0 .078-.058.145-.128.145h-1.473c-.07 0-.125-.067-.125-.145V13.457c0-.082.055-.145.125-.145zm2.59 0h1.472c.07 0 .125.062.125.144V28.57c0 .078-.054.145-.125.145H13.97c-.07 0-.125-.067-.125-.145V13.457c0-.082.054-.145.125-.145zm2.59 0h1.472c.07 0 .125.062.125.144V28.57c0 .078-.054.145-.125.145H16.56c-.07 0-.13-.067-.13-.145V13.457c0-.082.06-.145.13-.145zm2.589 0h1.473c.07 0 .125.062.125.144V28.57c0 .078-.055.145-.125.145h-1.473c-.07 0-.128-.067-.128-.145V13.457c0-.082.058-.145.128-.145zm2.59 0h1.473c.07 0 .125.062.125.144V28.57c0 .078-.055.145-.125.145h-1.473c-.07 0-.129-.067-.129-.145V13.457c0-.082.059-.145.13-.145zm0 0"/><path style="stroke:none;fill-rule:nonzero;fill:red;fill-opacity:1" d="M23.191 1.96a.433.433 0 0 1-.43.438.436.436 0 0 1-.433-.437c0-.246.195-.441.434-.441.238 0 .43.195.43.44zm0 0"/><path style="stroke:none;fill-rule:nonzero;fill:green;fill-opacity:1" d="M23.336 3.43c0 .324-.258.59-.574.59a.581.581 0 0 1-.575-.59c0-.325.254-.59.575-.59.316 0 .574.265.574.59zm0 0"/><path style="stroke:none;fill-rule:nonzero;fill:#fff;fill-opacity:1" d="M23.336 4.898a.58.58 0 0 1-.574.59.579.579 0 0 1-.575-.59c0-.324.254-.585.575-.585a.58.58 0 0 1 .574.585zm0 0"/><path style="stroke:none;fill-rule:nonzero;fill:#000;fill-opacity:1" d="M21.418 2.125c0 .023-.004.043-.008.063a.426.426 0 0 1-.023.042.14.14 0 0 1-.04.028.146.146 0 0 1-.094 0 .085.085 0 0 1-.034-.028c-.012-.011-.02-.027-.028-.042-.003-.02-.007-.04-.007-.063 0-.02.003-.04.007-.059l.024-.043a.14.14 0 0 1 .039-.027.168.168 0 0 1 .047-.008c.015 0 .031.004.047.008a.14.14 0 0 1 .039.027.426.426 0 0 1 .023.043.31.31 0 0 1 .008.059zm-.188 0c0 .035.004.063.016.078a.068.068 0 0 0 .055.027.063.063 0 0 0 .054-.027c.012-.015.016-.043.016-.078 0-.031-.004-.059-.016-.074a.068.068 0 0 0-.109 0c-.012.015-.016.043-.016.074zm.434.137V2.09c0-.024-.004-.04-.016-.047-.007-.012-.02-.02-.039-.02a.074.074 0 0 0-.03.008.04.04 0 0 0-.024.02.269.269 0 0 0-.012.031c-.004.012-.004.023-.004.04v.14h-.043v-.27h.035l.008.035.016-.015c.004-.004.011-.012.02-.012.007-.004.01-.008.019-.008.008-.004.015-.004.023-.004.031 0 .051.008.067.024.015.015.023.039.023.074v.176zm-.297 2.914c0 .02 0 .039-.008.058a.093.093 0 0 1-.023.043.062.062 0 0 1-.035.028c-.016.008-.031.008-.051.008-.016 0-.031 0-.047-.008-.012-.004-.023-.016-.035-.028a.093.093 0 0 1-.023-.043c-.008-.02-.008-.039-.008-.058 0-.024 0-.043.008-.059a.09.09 0 0 1 .023-.047.057.057 0 0 1 .035-.023.108.108 0 0 1 .098 0 .07.07 0 0 1 .035.023.09.09 0 0 1 .023.047.133.133 0 0 1 .008.059zm-.187 0a.13.13 0 0 0 .02.074c.01.02.027.027.054.027.023 0 .043-.007.05-.027a.13.13 0 0 0 .02-.074.144.144 0 0 0-.02-.078c-.007-.016-.027-.024-.05-.024-.027 0-.043.008-.055.024a.144.144 0 0 0-.02.078zm.383-.102h-.06v.235h-.042v-.235h-.05v-.02l.05-.015v-.023c0-.016 0-.032.004-.043a.063.063 0 0 1 .015-.028c.008-.008.016-.011.024-.015.012 0 .023-.004.035-.004.012 0 .02 0 .027.004.008 0 .016.004.024.004l-.012.035c-.008 0-.012 0-.02-.004h-.035c-.003.004-.007.004-.011.008-.004.004-.004.011-.004.015-.004.008-.004.016-.004.028v.023h.058zm.171 0h-.062v.235h-.043v-.235h-.047v-.02l.047-.015v-.023c0-.016 0-.032.004-.043a.063.063 0 0 1 .015-.028.063.063 0 0 1 .028-.015c.008 0 .02-.004.035-.004a.05.05 0 0 1 .023.004c.008 0 .016.004.024.004l-.012.035c-.004 0-.012 0-.016-.004h-.035c-.008.004-.011.004-.011.008a.03.03 0 0 0-.008.015c-.004.008-.004.016-.004.028v.023h.062zm-.777-1.687h.031l-.008.043c-.003 0-.007 0-.015-.004h-.012a.05.05 0 0 0-.027.008.063.063 0 0 0-.024.015c-.004.008-.011.02-.011.028a.108.108 0 0 0-.008.039v.144h-.043v-.27h.035l.008.051.012-.023c.007-.004.011-.012.015-.016l.02-.011c.008-.004.015-.004.027-.004zm.195.277c-.02 0-.035-.004-.05-.008a.14.14 0 0 1-.04-.027.093.093 0 0 1-.023-.043c-.008-.02-.008-.04-.008-.059 0-.023 0-.043.008-.058a.09.09 0 0 1 .023-.047.085.085 0 0 1 .036-.027.14.14 0 0 1 .043-.008c.015 0 .03 0 .043.008.011.003.023.015.035.023a.143.143 0 0 1 .02.039.196.196 0 0 1 .007.047v.027h-.172c.004.035.008.059.024.07.011.016.027.024.054.024h.024c.004 0 .012-.004.02-.004.003-.004.011-.004.019-.008a.068.068 0 0 0 .02-.008v.04a.066.066 0 0 1-.02.007c-.008.004-.016.004-.02.008-.008 0-.015.004-.02.004h-.023zm-.011-.242a.065.065 0 0 0-.047.02.101.101 0 0 0-.016.054h.117v-.031l-.011-.024a.085.085 0 0 0-.02-.011.056.056 0 0 0-.023-.008zm.339.164a.109.109 0 0 1-.007.035.104.104 0 0 1-.02.024.117.117 0 0 1-.031.015c-.016.004-.027.004-.043.004-.02 0-.035 0-.047-.004a.27.27 0 0 1-.031-.012v-.043c.004.004.008.008.015.008.004.004.012.004.02.008.004 0 .012.004.02.004a.05.05 0 0 0 .023.004c.008 0 .02-.004.027-.004.008-.004.012-.004.016-.008l.012-.012.003-.015c0-.008-.003-.012-.003-.016-.004-.004-.004-.008-.008-.011-.004-.004-.012-.008-.02-.012l-.027-.016c-.012-.004-.024-.008-.031-.012a.06.06 0 0 1-.024-.015.082.082 0 0 1-.015-.024c-.004-.007-.004-.015-.004-.027s0-.02.004-.031a.104.104 0 0 1 .02-.024l.026-.011c.012-.004.028-.004.04-.004.015 0 .03 0 .043.004l.039.011-.016.04-.031-.012a.114.114 0 0 0-.035-.008.098.098 0 0 0-.04.008c-.007.007-.011.015-.011.023s.004.012.004.016c.004.004.004.008.011.011a.054.054 0 0 0 .016.012.27.27 0 0 0 .031.012.12.12 0 0 0 .032.016c.007.003.015.011.023.015l.012.024a.051.051 0 0 1 .007.027zm.176.078a.196.196 0 0 1-.047-.008.14.14 0 0 1-.039-.027.157.157 0 0 1-.027-.043.236.236 0 0 1 0-.117.26.26 0 0 1 .023-.047.17.17 0 0 1 .036-.027c.015-.004.03-.008.046-.008s.032 0 .043.008a.094.094 0 0 1 .032.023.074.074 0 0 1 .02.039.1.1 0 0 1 .007.047v.027h-.168c0 .035.008.059.02.07.011.016.03.024.054.024h.024c.008 0 .015-.004.02-.004.007-.004.015-.004.019-.008a.03.03 0 0 0 .02-.008v.04a.03.03 0 0 1-.02.007c-.004.004-.012.004-.02.008-.004 0-.012.004-.02.004h-.023zm-.011-.242a.063.063 0 0 0-.043.02c-.012.011-.016.03-.02.054h.121c0-.012 0-.02-.004-.031 0-.008-.004-.016-.012-.024-.003-.003-.007-.007-.015-.011a.056.056 0 0 0-.027-.008zm.261.207h.012c.004 0 .004-.004.008-.004h.012c.003 0 .003-.004.007-.004v.035c-.004 0-.008 0-.008.004h-.011c-.004.004-.008.004-.012.004h-.016c-.007 0-.02 0-.027-.004a.082.082 0 0 1-.023-.015.064.064 0 0 1-.012-.024.12.12 0 0 1-.008-.043v-.152h-.035v-.024l.035-.015.02-.059h.027v.063h.066v.035h-.066v.152c0 .016 0 .031.008.04.004.007.012.01.023.01zm0 0"/><path style="stroke:none;fill-rule:nonzero;fill:#2a7fff;fill-opacity:1" d="M8.664 8.941v3.817c0 .086.055.156.125.156h1.473c.07 0 .129-.07.129-.156V8.94zm2.59 0v3.817c0 .086.055.156.125.156h1.473c.07 0 .128-.07.128-.156V8.94zm2.59 0v3.817c0 .086.054.156.125.156h1.472c.07 0 .125-.07.125-.156V8.94zm2.586 0v3.817c0 .086.058.156.129.156h1.472c.07 0 .125-.07.125-.156V8.94zm2.59 0v3.817c0 .086.058.156.128.156h1.473c.07 0 .125-.07.125-.156V8.94zm2.59 0v3.817c0 .086.058.156.128.156h1.473c.07 0 .125-.07.125-.156V8.94zm0 0"/><path style="stroke:none;fill-rule:nonzero;fill:#fff;fill-opacity:1" d="M9.004 9.164c-.066 0-.125.07-.125.156v.57c0 .087.059.157.125.157h1.043c.07 0 .125-.07.125-.156v-.57c0-.087-.055-.157-.125-.157zm2.59 0c-.07 0-.125.07-.125.156v.57c0 .087.054.157.125.157h1.043c.07 0 .125-.07.125-.156v-.57c0-.087-.055-.157-.125-.157zm2.59 0c-.07 0-.125.07-.125.156v.57c0 .087.054.157.125.157h1.043c.07 0 .125-.07.125-.156v-.57c0-.087-.055-.157-.125-.157zm2.59 0c-.07 0-.126.07-.126.156v.57c0 .087.055.157.125.157h1.043c.07 0 .125-.07.125-.156v-.57c0-.087-.054-.157-.125-.157zm2.59 0c-.071 0-.126.07-.126.156v.57c0 .087.055.157.125.157h1.043c.07 0 .125-.07.125-.156v-.57c0-.087-.054-.157-.125-.157zm2.59 0c-.071 0-.13.07-.13.156v.57c0 .087.059.157.13.157h1.038c.07 0 .13-.07.13-.156v-.57c0-.087-.06-.157-.13-.157zm-12.95 2.645c-.066 0-.125.07-.125.156v.57c0 .086.059.156.125.156h1.043c.07 0 .125-.07.125-.156v-.57c0-.086-.055-.156-.125-.156zm2.59 0c-.07 0-.125.07-.125.156v.57c0 .086.054.156.125.156h1.043c.07 0 .125-.07.125-.156v-.57c0-.086-.055-.156-.125-.156zm2.59 0c-.07 0-.125.07-.125.156v.57c0 .086.054.156.125.156h1.043c.07 0 .125-.07.125-.156v-.57c0-.086-.055-.156-.125-.156zm2.59 0c-.07 0-.126.07-.126.156v.57c0 .086.055.156.125.156h1.043c.07 0 .125-.07.125-.156v-.57c0-.086-.054-.156-.125-.156zm2.59 0c-.071 0-.126.07-.126.156v.57c0 .086.055.156.125.156h1.043c.07 0 .125-.07.125-.156v-.57c0-.086-.054-.156-.125-.156zm2.59 0c-.071 0-.13.07-.13.156v.57c0 .086.059.156.13.156h1.038c.07 0 .13-.07.13-.156v-.57c0-.086-.06-.156-.13-.156zm0 0"/><path style="stroke:none;fill-rule:nonzero;fill:#333;fill-opacity:1" d="M8.664 15.781v3.813c0 .086.055.156.125.156h1.473c.07 0 .129-.07.129-.156V15.78zm2.59 0v3.813c0 .086.055.156.125.156h1.473c.07 0 .128-.07.128-.156V15.78zm2.59 0v3.813c0 .086.054.156.125.156h1.472c.07 0 .125-.07.125-.156V15.78zm2.586 0v3.813c0 .086.058.156.129.156h1.472c.07 0 .125-.07.125-.156V15.78zm2.59 0v3.813c0 .086.058.156.128.156h1.473c.07 0 .125-.07.125-.156V15.78zm2.59 0v3.813c0 .086.058.156.128.156h1.473c.07 0 .125-.07.125-.156V15.78zm0 0"/><path style="stroke:none;fill-rule:nonzero;fill:#fff;fill-opacity:1" d="M9.004 16c-.066 0-.125.07-.125.156v.57c0 .087.059.157.125.157h1.043c.07 0 .125-.07.125-.156v-.57c0-.087-.055-.157-.125-.157zm2.59 0c-.07 0-.125.07-.125.156v.57c0 .087.054.157.125.157h1.043c.07 0 .125-.07.125-.156v-.57c0-.087-.055-.157-.125-.157zm2.59 0c-.07 0-.125.07-.125.156v.57c0 .087.054.157.125.157h1.043c.07 0 .125-.07.125-.156v-.57c0-.087-.055-.157-.125-.157zm2.59 0c-.07 0-.126.07-.126.156v.57c0 .087.055.157.125.157h1.043c.07 0 .125-.07.125-.156v-.57c0-.087-.054-.157-.125-.157zm2.59 0c-.071 0-.126.07-.126.156v.57c0 .087.055.157.125.157h1.043c.07 0 .125-.07.125-.156v-.57c0-.087-.054-.157-.125-.157zm2.59 0c-.071 0-.13.07-.13.156v.57c0 .087.059.157.13.157h1.038c.07 0 .13-.07.13-.156v-.57c0-.087-.06-.157-.13-.157zm-12.95 2.648c-.066 0-.125.067-.125.153v.57c0 .09.059.156.125.156h1.043c.07 0 .125-.066.125-.156v-.57c0-.086-.055-.153-.125-.153zm2.59 0c-.07 0-.125.067-.125.153v.57c0 .09.054.156.125.156h1.043c.07 0 .125-.066.125-.156v-.57c0-.086-.055-.153-.125-.153zm2.59 0c-.07 0-.125.067-.125.153v.57c0 .09.054.156.125.156h1.043c.07 0 .125-.066.125-.156v-.57c0-.086-.055-.153-.125-.153zm2.59 0c-.07 0-.126.067-.126.153v.57c0 .09.055.156.125.156h1.043c.07 0 .125-.066.125-.156v-.57c0-.086-.054-.153-.125-.153zm2.59 0c-.071 0-.126.067-.126.153v.57c0 .09.055.156.125.156h1.043c.07 0 .125-.066.125-.156v-.57c0-.086-.054-.153-.125-.153zm2.59 0c-.071 0-.13.067-.13.153v.57c0 .09.059.156.13.156h1.038c.07 0 .13-.066.13-.156v-.57c0-.086-.06-.153-.13-.153zm0 0"/><path style="stroke:none;fill-rule:nonzero;fill:#0f0;fill-opacity:1" d="M12.762 17.324a.215.215 0 0 1-.215.219.221.221 0 0 1 0-.441c.121 0 .215.101.215.222zm-2.59 0a.215.215 0 0 1-.215.219.221.221 0 0 1 0-.441c.121 0 .215.101.215.222zm5.18 0a.215.215 0 1 1-.43 0c0-.12.094-.222.215-.222.12 0 .215.101.215.222zm2.589 0a.218.218 0 0 1-.214.219.215.215 0 0 1-.215-.219c0-.12.093-.222.215-.222a.22.22 0 0 1 .214.222zm2.59 0a.218.218 0 0 1-.215.219.215.215 0 0 1-.214-.219c0-.12.093-.222.214-.222a.22.22 0 0 1 .215.222zm2.59 0a.218.218 0 0 1-.215.219.218.218 0 0 1-.218-.219c0-.12.097-.222.218-.222a.22.22 0 0 1 .215.222zm-10.359-6.836a.215.215 0 0 1-.215.219.218.218 0 0 1-.215-.219c0-.125.098-.222.215-.222.121 0 .215.097.215.222zm-2.59 0a.215.215 0 0 1-.215.219.218.218 0 0 1-.215-.219c0-.125.098-.222.215-.222.121 0 .215.097.215.222zm5.18 0a.215.215 0 1 1-.43 0c0-.125.094-.222.215-.222.12 0 .215.097.215.222zm2.589 0a.218.218 0 0 1-.214.219.215.215 0 0 1-.215-.219c0-.125.093-.222.215-.222.117 0 .214.097.214.222zm2.59 0a.218.218 0 0 1-.215.219.215.215 0 0 1-.214-.219c0-.125.093-.222.214-.222.118 0 .215.097.215.222zm2.59 0a.218.218 0 0 1-.215.219.218.218 0 0 1-.218-.219.22.22 0 0 1 .218-.222c.117 0 .215.097.215.222zm0 0"/><path style="fill-rule:nonzero;fill:#ccc;fill-opacity:1;stroke-width:1;stroke-linecap:butt;stroke-linejoin:miter;stroke:#3b3434;stroke-opacity:1;stroke-miterlimit:4" d="M133.875 26.625h175.188c1.187 0 2.187 1.313 2.187 2.875v100.125c0 1.563-1 2.875-2.188 2.875H133.875c-1.188 0-2.188-1.313-2.188-2.875V29.5c0-1.563 1-2.875 2.188-2.875zm0 0" transform="scale(.0625)"/><path style="stroke:none;fill-rule:nonzero;fill:#0f0;fill-opacity:1" d="M8.79 2.105h10.105c.07 0 .125.07.125.157v5.422c0 .086-.055.156-.125.156H8.789c-.07 0-.125-.07-.125-.156V2.262c0-.086.055-.157.125-.157zm0 0"/><path style="stroke:none;fill-rule:nonzero;fill:#000;fill-opacity:1" d="M11.055 3.758a.838.838 0 0 1-.395.094.51.51 0 0 1-.379-.141.516.516 0 0 1-.14-.379c0-.164.046-.289.14-.383a.538.538 0 0 1 .39-.14.912.912 0 0 1 .352.074v.21a.568.568 0 0 0-.32-.098.306.306 0 0 0-.226.087c-.055.059-.079.14-.079.25 0 .106.024.188.075.246.05.055.125.086.218.086a.433.433 0 0 0 .133-.023v-.196h-.152v-.172h.383zm.242-.93h.277l.348.688v-.688h.234v1.004h-.277l-.348-.687v.687h-.234zm1.125 0h.246v.602c0 .082.016.14.039.175.027.036.07.055.129.055s.101-.02.125-.055c.027-.035.039-.093.039-.175v-.602h.246v.602c0 .14-.031.246-.101.316-.067.07-.172.106-.31.106-.14 0-.241-.036-.312-.106-.066-.07-.101-.176-.101-.316zm1.308 0h.141l-.336 1.129h-.144zm.262-.043h.23v1.047h-.23zm.461.293h.23v.754h-.23zm0-.293h.23v.195h-.23zm1.184.586v.461h-.23V3.48a.867.867 0 0 0-.02-.187c-.008-.016-.024-.027-.04-.04a.098.098 0 0 0-.05-.01.132.132 0 0 0-.113.058.27.27 0 0 0-.04.16v.371h-.23v-.754h.23v.11a.42.42 0 0 1 .11-.098.285.285 0 0 1 .129-.031c.082 0 .144.027.187.082a.36.36 0 0 1 .067.23zm.226.169v-.462h.23v.074c0 .043 0 .094-.003.157v.12c0 .063.004.106.004.134.004.023.011.042.015.054a.138.138 0 0 0 .04.04.108.108 0 0 0 .05.011c.051 0 .086-.02.113-.059a.27.27 0 0 0 .043-.16v-.37h.227v.753h-.227v-.11a.432.432 0 0 1-.113.098.258.258 0 0 1-.125.032.233.233 0 0 1-.191-.082.362.362 0 0 1-.063-.23zm1.145-.095-.262-.367h.246l.145.223.148-.223h.242l-.257.367.273.387h-.242l-.164-.238-.16.238h-.243zm-5.563 1.371V5a.99.99 0 0 0-.14-.047.526.526 0 0 0-.13-.016.21.21 0 0 0-.097.016c-.023.012-.031.027-.031.055 0 .015.008.031.023.043.016.011.043.015.086.023l.04.004c.117.016.199.043.238.078.039.035.062.094.062.168 0 .082-.031.14-.086.18-.058.043-.14.062-.254.062a1.123 1.123 0 0 1-.3-.047v-.183a.554.554 0 0 0 .285.07.222.222 0 0 0 .101-.02.06.06 0 0 0 .035-.058.056.056 0 0 0-.023-.047.2.2 0 0 0-.094-.023l-.039-.008a.401.401 0 0 1-.215-.074c-.043-.035-.062-.09-.062-.164 0-.078.027-.14.078-.176.05-.04.133-.059.238-.059.043 0 .09.004.133.008.047.008.098.02.152.031zm.957.352v.07h-.535c.004.055.024.098.059.125a.204.204 0 0 0 .136.043.49.49 0 0 0 .149-.023.892.892 0 0 0 .156-.067V5.5a.943.943 0 0 1-.16.05c-.055.009-.11.016-.164.016a.425.425 0 0 1-.305-.105c-.07-.066-.105-.164-.105-.29 0-.124.035-.218.105-.288a.396.396 0 0 1 .293-.106c.114 0 .203.035.27.106.066.07.101.168.101.285zm-.234-.078a.18.18 0 0 0-.04-.113.133.133 0 0 0-.1-.04.141.141 0 0 0-.106.04c-.031.023-.047.062-.055.113zm.961-.09c-.02-.012-.04-.016-.059-.023a.304.304 0 0 0-.062-.008c-.059 0-.102.02-.133.062-.035.04-.05.094-.05.168v.348h-.227v-.754h.226v.125a.347.347 0 0 1 .102-.11.311.311 0 0 1 .14-.03h.024a.21.21 0 0 1 .039.003zm.039-.207h.23l.176.52.18-.52h.23l-.28.754h-.255zm.965 0h.23v.754h-.23zm0-.293h.23v.2h-.23zm1.18.668v.07h-.54a.198.198 0 0 0 .059.125.216.216 0 0 0 .14.043.51.51 0 0 0 .15-.023c.05-.016.1-.04.155-.067V5.5a.88.88 0 0 1-.328.066c-.129 0-.23-.035-.3-.105-.075-.066-.11-.164-.11-.29 0-.124.035-.218.106-.288a.396.396 0 0 1 .293-.106c.113 0 .203.035.273.106.066.07.101.168.101.285zm-.239-.078a.16.16 0 0 0-.039-.113.124.124 0 0 0-.098-.04c-.046 0-.082.012-.109.04a.163.163 0 0 0-.05.113zM16.04 5c-.02-.012-.044-.016-.063-.023a.302.302 0 0 0-.059-.008.162.162 0 0 0-.137.062.26.26 0 0 0-.047.168v.348h-.23v-.754h.23v.125a.277.277 0 0 1 .102-.11.306.306 0 0 1 .137-.03h.023c.012 0 .024 0 .04.003zm.687-.184V5a.99.99 0 0 0-.141-.047.526.526 0 0 0-.129-.016.21.21 0 0 0-.098.016c-.023.012-.03.027-.03.055 0 .015.007.031.023.043.015.011.043.015.085.023l.04.004c.117.016.199.043.238.078.039.035.062.094.062.168 0 .082-.03.14-.086.18-.058.043-.14.062-.253.062a1.123 1.123 0 0 1-.3-.047l-.001-.183a.554.554 0 0 0 .285.07.222.222 0 0 0 .101-.02.06.06 0 0 0 .036-.058.056.056 0 0 0-.024-.047.196.196 0 0 0-.094-.023l-.039-.008a.401.401 0 0 1-.215-.074c-.042-.035-.062-.09-.062-.164 0-.078.027-.14.078-.176.05-.04.133-.059.238-.059.043 0 .086.004.133.008.047.008.098.02.153.031zm-5.219 1.899c-.024-.008-.043-.016-.063-.02-.02-.008-.039-.008-.058-.008a.166.166 0 0 0-.137.06.268.268 0 0 0-.047.167v.348h-.23v-.75h.23v.12a.293.293 0 0 1 .102-.105.254.254 0 0 1 .136-.035h.024c.012 0 .023.004.039.004zm.121.254v-.457h.23v.074c0 .039-.004.094-.004.152v.125c0 .059.004.102.004.13a.154.154 0 0 0 .016.058.11.11 0 0 0 .04.035.079.079 0 0 0 .05.016c.047 0 .086-.02.113-.059a.278.278 0 0 0 .043-.16v-.371h.227v.75h-.227v-.11a.323.323 0 0 1-.113.098.27.27 0 0 1-.125.031c-.086 0-.149-.027-.192-.078-.043-.055-.062-.133-.062-.234zm1.684-.164v.457h-.231V6.91c0-.062 0-.11-.004-.133a.153.153 0 0 0-.015-.054.077.077 0 0 0-.036-.035.127.127 0 0 0-.054-.016.132.132 0 0 0-.114.058.278.278 0 0 0-.039.16v.372h-.23v-.75h.23v.11a.36.36 0 0 1 .11-.099.285.285 0 0 1 .129-.03c.082 0 .144.027.187.077a.372.372 0 0 1 .066.235zm.957 0v.457h-.23V6.91a.908.908 0 0 0-.009-.133.103.103 0 0 0-.011-.054.085.085 0 0 0-.04-.035.098.098 0 0 0-.05-.016.132.132 0 0 0-.114.058.278.278 0 0 0-.039.16v.372h-.23v-.75h.23v.11a.285.285 0 0 1 .238-.129c.083 0 .145.027.188.077a.372.372 0 0 1 .067.235zm.234-.293h.226v.75h-.226zm0-.293h.226v.195h-.226zm1.18.586v.457h-.23V6.91c0-.062 0-.11-.005-.133a.153.153 0 0 0-.015-.054.077.077 0 0 0-.036-.035c-.015-.008-.03-.016-.054-.016a.126.126 0 0 0-.11.058.278.278 0 0 0-.043.16v.372h-.23v-.75h.23v.11a.36.36 0 0 1 .11-.099.285.285 0 0 1 .129-.03c.086 0 .148.027.191.077a.374.374 0 0 1 .063.235zm.722.328a.275.275 0 0 1-.105.097.234.234 0 0 1-.13.032.263.263 0 0 1-.218-.11.417.417 0 0 1-.086-.273.42.42 0 0 1 .086-.277.274.274 0 0 1 .348-.079.359.359 0 0 1 .105.098v-.11h.23v.676c0 .122-.034.211-.109.278a.478.478 0 0 1-.316.094.688.688 0 0 1-.129-.012.517.517 0 0 1-.129-.031v-.188a.649.649 0 0 0 .121.055.361.361 0 0 0 .113.015c.079 0 .133-.015.168-.05.036-.035.051-.086.051-.16zm-.152-.465a.122.122 0 0 0-.11.055c-.027.035-.039.09-.039.156s.012.121.04.156c.023.035.062.05.109.05.05 0 .086-.015.113-.054.028-.035.04-.086.04-.152s-.012-.121-.04-.156c-.027-.04-.062-.055-.113-.055zm0 0"/><path style="stroke:none;fill-rule:nonzero;fill:#333;fill-opacity:1" d="M8.664 20.633v3.812c0 .086.055.157.125.157h1.473c.07 0 .129-.07.129-.157v-3.812zm2.59 0v3.812c0 .086.055.157.125.157h1.473c.07 0 .128-.07.128-.157v-3.812zm2.59 0v3.812c0 .086.054.157.125.157h1.472c.07 0 .125-.07.125-.157v-3.812zm2.586 0v3.812c0 .086.058.157.129.157h1.472c.07 0 .125-.07.125-.157v-3.812zm2.59 0v3.812c0 .086.058.157.128.157h1.473c.07 0 .125-.07.125-.157v-3.812zm2.59 0v3.812c0 .086.058.157.128.157h1.473c.07 0 .125-.07.125-.157v-3.812zm0 0"/><path style="stroke:none;fill-rule:nonzero;fill:#fff;fill-opacity:1" d="M9.004 20.852c-.066 0-.125.07-.125.156v.57c0 .086.059.156.125.156h1.043c.07 0 .125-.07.125-.156v-.57c0-.086-.055-.156-.125-.156zm2.59 0c-.07 0-.125.07-.125.156v.57c0 .086.054.156.125.156h1.043c.07 0 .125-.07.125-.156v-.57c0-.086-.055-.156-.125-.156zm2.59 0c-.07 0-.125.07-.125.156v.57c0 .086.054.156.125.156h1.043c.07 0 .125-.07.125-.156v-.57c0-.086-.055-.156-.125-.156zm2.59 0c-.07 0-.126.07-.126.156v.57c0 .086.055.156.125.156h1.043c.07 0 .125-.07.125-.156v-.57c0-.086-.054-.156-.125-.156zm2.59 0c-.071 0-.126.07-.126.156v.57c0 .086.055.156.125.156h1.043c.07 0 .125-.07.125-.156v-.57c0-.086-.054-.156-.125-.156zm2.59 0c-.071 0-.13.07-.13.156v.57c0 .086.059.156.13.156h1.038c.07 0 .13-.07.13-.156v-.57c0-.086-.06-.156-.13-.156zm-12.95 2.644c-.066 0-.125.07-.125.156v.57c0 .09.059.157.125.157h1.043c.07 0 .125-.067.125-.156v-.57c0-.087-.055-.157-.125-.157zm2.59 0c-.07 0-.125.07-.125.156v.57c0 .09.054.157.125.157h1.043c.07 0 .125-.067.125-.156v-.57c0-.087-.055-.157-.125-.157zm2.59 0c-.07 0-.125.07-.125.156v.57c0 .09.054.157.125.157h1.043c.07 0 .125-.067.125-.156v-.57c0-.087-.055-.157-.125-.157zm2.59 0c-.07 0-.126.07-.126.156v.57c0 .09.055.157.125.157h1.043c.07 0 .125-.067.125-.156v-.57c0-.087-.054-.157-.125-.157zm2.59 0c-.071 0-.126.07-.126.156v.57c0 .09.055.157.125.157h1.043c.07 0 .125-.067.125-.156v-.57c0-.087-.054-.157-.125-.157zm2.59 0c-.071 0-.13.07-.13.156v.57c0 .09.059.157.13.157h1.038c.07 0 .13-.067.13-.156v-.57c0-.087-.06-.157-.13-.157zm0 0"/><path style="stroke:none;fill-rule:nonzero;fill:#0f0;fill-opacity:1" d="M12.762 22.176a.215.215 0 0 1-.215.219.221.221 0 0 1 0-.441c.121 0 .215.1.215.222zm-2.59 0a.215.215 0 0 1-.215.219.221.221 0 0 1 0-.441c.121 0 .215.1.215.222zm5.18 0a.215.215 0 1 1-.43 0c0-.121.094-.223.215-.223a.22.22 0 0 1 .215.223zm2.589 0a.218.218 0 0 1-.214.219.215.215 0 0 1-.215-.22c0-.12.093-.222.215-.222a.22.22 0 0 1 .214.223zm2.59 0a.218.218 0 0 1-.215.219.215.215 0 0 1-.214-.22c0-.12.093-.222.214-.222.118 0 .215.102.215.223zm2.59 0a.218.218 0 0 1-.215.219.218.218 0 0 1-.218-.22c0-.12.097-.222.218-.222.117 0 .215.102.215.223zm0 0"/><path style="stroke:none;fill-rule:evenodd;fill:#e6e6e6;fill-opacity:1" d="M15.395 14.852h16.43v14.914h-16.43zm0 0"/><path style="fill:none;stroke-width:.3;stroke-linecap:butt;stroke-linejoin:miter;stroke:#b31d1d;stroke-opacity:1;stroke-miterlimit:4" d="m23.086 23.123.874-1.563.856 1.527" transform="matrix(.63904 0 0 .6573 2.083 1.079)"/><path style="fill:none;stroke-width:.3;stroke-linecap:butt;stroke-linejoin:miter;stroke:#b31d1d;stroke-opacity:1;stroke-miterlimit:4" d="m24.84 1027.485.88-1.563.856 1.528" transform="matrix(.63904 0 0 .6573 2.083 -659.083)"/><path style="fill:none;stroke-width:.3;stroke-linecap:butt;stroke-linejoin:miter;stroke:#b31d1d;stroke-opacity:1;stroke-miterlimit:4" d="m23.087 23.118.874-1.557.856 1.528" transform="matrix(.63904 0 0 .6573 4.352 1.062)"/><path style="fill:none;stroke-width:.3;stroke-linecap:butt;stroke-linejoin:miter;stroke:#b31d1d;stroke-opacity:1;stroke-miterlimit:4" d="m24.841 1027.48.88-1.557.85 1.528" transform="matrix(.63904 0 0 .6573 4.352 -659.099)"/><path style="fill:none;stroke-width:.3;stroke-linecap:butt;stroke-linejoin:miter;stroke:#b31d1d;stroke-opacity:1;stroke-miterlimit:4" d="m23.085 23.12.88-1.563.85 1.533" transform="matrix(.63904 0 0 .6573 6.592 1.045)"/><path style="fill:none;stroke-width:.3;stroke-linecap:butt;stroke-linejoin:miter;stroke:#b31d1d;stroke-opacity:1;stroke-miterlimit:4" d="m24.84 1027.482.88-1.563.855 1.534" transform="matrix(.63904 0 0 .6573 6.592 -659.116)"/><path style="fill:none;stroke-width:.3;stroke-linecap:butt;stroke-linejoin:miter;stroke:#b31d1d;stroke-opacity:1;stroke-miterlimit:4" d="m23.086 23.121.874-1.563.856 1.534" transform="matrix(.63904 0 0 .6573 8.86 1.029)"/><path style="fill:none;stroke-width:.3;stroke-linecap:butt;stroke-linejoin:miter;stroke:#b31d1d;stroke-opacity:1;stroke-miterlimit:4" d="m24.84 1027.484.88-1.563.856 1.533" transform="matrix(.63904 0 0 .6573 8.86 -659.132)"/><path style="fill:none;stroke-width:.3;stroke-linecap:butt;stroke-linejoin:miter;stroke:#b31d1d;stroke-opacity:1;stroke-miterlimit:4" d="m23.083 23.12.88-1.562.856 1.533" transform="matrix(.63904 0 0 .6573 11.1 1.014)"/><path style="fill:none;stroke-width:.3;stroke-linecap:butt;stroke-linejoin:miter;stroke:#b31d1d;stroke-opacity:1;stroke-miterlimit:4" d="m24.844 1027.483.874-1.563.856 1.533" transform="matrix(.63904 0 0 .6573 11.1 -659.147)"/><path style="fill:none;stroke-width:.3;stroke-linecap:butt;stroke-linejoin:miter;stroke:#b31d1d;stroke-opacity:1;stroke-miterlimit:4" d="m23.084 23.122.88-1.563.85 1.533" transform="matrix(.63904 0 0 .6573 13.37 .997)"/><path style="fill:none;stroke-width:.3;stroke-linecap:butt;stroke-linejoin:miter;stroke:#b31d1d;stroke-opacity:1;stroke-miterlimit:4" d="m24.845 1027.484.874-1.563.856 1.533" transform="matrix(.63904 0 0 .6573 13.37 -659.164)"/><path style="fill:none;stroke-width:.3;stroke-linecap:butt;stroke-linejoin:miter;stroke:#b31d1d;stroke-opacity:1;stroke-miterlimit:4" d="m23.088 23.123.873-1.564.86 1.53" transform="matrix(0 -.56835 .66667 0 1.518 41.435)"/><path style="fill:none;stroke-width:.3;stroke-linecap:butt;stroke-linejoin:miter;stroke:#b31d1d;stroke-opacity:1;stroke-miterlimit:4" d="m24.84 1027.486.88-1.565.853 1.53" transform="matrix(0 -.56835 .66667 0 -668.057 41.435)"/><path style="fill:none;stroke-width:.3;stroke-linecap:butt;stroke-linejoin:miter;stroke:#b31d1d;stroke-opacity:1;stroke-miterlimit:4" d="m23.084 23.12.88-1.56.852 1.53" transform="matrix(0 -.56835 .66667 0 1.501 39.417)"/><path style="fill:none;stroke-width:.3;stroke-linecap:butt;stroke-linejoin:miter;stroke:#b31d1d;stroke-opacity:1;stroke-miterlimit:4" d="m24.844 1027.481.873-1.558.859 1.529" transform="matrix(0 -.56835 .66667 0 -668.073 39.417)"/><path style="fill:none;stroke-width:.3;stroke-linecap:butt;stroke-linejoin:miter;stroke:#b31d1d;stroke-opacity:1;stroke-miterlimit:4" d="m23.085 23.121.88-1.564.852 1.535" transform="matrix(0 -.56835 .66667 0 1.484 37.425)"/><path style="fill:none;stroke-width:.3;stroke-linecap:butt;stroke-linejoin:miter;stroke:#b31d1d;stroke-opacity:1;stroke-miterlimit:4" d="m24.844 1027.483.873-1.564.86 1.535" transform="matrix(0 -.56835 .66667 0 -668.09 37.425)"/><path style="fill:none;stroke-width:.3;stroke-linecap:butt;stroke-linejoin:miter;stroke:#b31d1d;stroke-opacity:1;stroke-miterlimit:4" d="m23.088 23.123.873-1.565.859 1.53" transform="matrix(0 -.56835 .66667 0 1.468 35.407)"/><path style="fill:none;stroke-width:.3;stroke-linecap:butt;stroke-linejoin:miter;stroke:#b31d1d;stroke-opacity:1;stroke-miterlimit:4" d="m24.84 1027.485.88-1.564.852 1.529" transform="matrix(0 -.56835 .66667 0 -668.107 35.407)"/><path style="fill:none;stroke-width:.3;stroke-linecap:butt;stroke-linejoin:miter;stroke:#b31d1d;stroke-opacity:1;stroke-miterlimit:4" d="m23.088 23.122.873-1.564.859 1.535" transform="matrix(0 -.56835 .66667 0 1.452 33.415)"/><path style="fill:none;stroke-width:.3;stroke-linecap:butt;stroke-linejoin:miter;stroke:#b31d1d;stroke-opacity:1;stroke-miterlimit:4" d="m24.84 1027.485.88-1.565.852 1.535" transform="matrix(0 -.56835 .66667 0 -668.123 33.415)"/><path style="fill:none;stroke-width:.3;stroke-linecap:butt;stroke-linejoin:miter;stroke:#b31d1d;stroke-opacity:1;stroke-miterlimit:4" d="m23.084 23.124.88-1.564.852 1.529" transform="matrix(0 -.56835 .66667 0 1.436 31.397)"/><path style="fill:none;stroke-width:.3;stroke-linecap:butt;stroke-linejoin:miter;stroke:#b31d1d;stroke-opacity:1;stroke-miterlimit:4" d="m24.843 1027.486.873-1.564.86 1.529" transform="matrix(0 -.56835 .66667 0 -668.14 31.397)"/><path style="fill:none;stroke-width:.3;stroke-linecap:butt;stroke-linejoin:miter;stroke:#b31d1d;stroke-opacity:1;stroke-miterlimit:4" d="m23.086 23.124.874-1.563.856 1.527" transform="matrix(.63904 0 0 -.6573 2.083 43.511)"/><path style="fill:none;stroke-width:.3;stroke-linecap:butt;stroke-linejoin:miter;stroke:#b31d1d;stroke-opacity:1;stroke-miterlimit:4" d="m24.84 1027.486.88-1.563.856 1.527" transform="matrix(.63904 0 0 -.6573 2.083 703.673)"/><path style="fill:none;stroke-width:.3;stroke-linecap:butt;stroke-linejoin:miter;stroke:#b31d1d;stroke-opacity:1;stroke-miterlimit:4" d="m23.087 23.119.874-1.557.856 1.527" transform="matrix(.63904 0 0 -.6573 4.352 43.528)"/><path style="fill:none;stroke-width:.3;stroke-linecap:butt;stroke-linejoin:miter;stroke:#b31d1d;stroke-opacity:1;stroke-miterlimit:4" d="m24.841 1027.481.88-1.557.85 1.527" transform="matrix(.63904 0 0 -.6573 4.352 703.69)"/><path style="fill:none;stroke-width:.3;stroke-linecap:butt;stroke-linejoin:miter;stroke:#b31d1d;stroke-opacity:1;stroke-miterlimit:4" d="m23.085 23.12.88-1.562.85 1.533" transform="matrix(.63904 0 0 -.6573 6.592 43.545)"/><path style="fill:none;stroke-width:.3;stroke-linecap:butt;stroke-linejoin:miter;stroke:#b31d1d;stroke-opacity:1;stroke-miterlimit:4" d="m24.84 1027.483.88-1.563.855 1.533" transform="matrix(.63904 0 0 -.6573 6.592 703.706)"/><path style="fill:none;stroke-width:.3;stroke-linecap:butt;stroke-linejoin:miter;stroke:#b31d1d;stroke-opacity:1;stroke-miterlimit:4" d="m23.086 23.122.874-1.563.856 1.533" transform="matrix(.63904 0 0 -.6573 8.86 43.561)"/><path style="fill:none;stroke-width:.3;stroke-linecap:butt;stroke-linejoin:miter;stroke:#b31d1d;stroke-opacity:1;stroke-miterlimit:4" d="m24.84 1027.484.88-1.563.856 1.533" transform="matrix(.63904 0 0 -.6573 8.86 703.722)"/><path style="fill:none;stroke-width:.3;stroke-linecap:butt;stroke-linejoin:miter;stroke:#b31d1d;stroke-opacity:1;stroke-miterlimit:4" d="m23.083 23.121.88-1.563.856 1.533" transform="matrix(.63904 0 0 -.6573 11.1 43.576)"/><path style="fill:none;stroke-width:.3;stroke-linecap:butt;stroke-linejoin:miter;stroke:#b31d1d;stroke-opacity:1;stroke-miterlimit:4" d="m24.844 1027.483.874-1.563.856 1.534" transform="matrix(.63904 0 0 -.6573 11.1 703.738)"/><path style="fill:none;stroke-width:.3;stroke-linecap:butt;stroke-linejoin:miter;stroke:#b31d1d;stroke-opacity:1;stroke-miterlimit:4" d="m23.084 23.122.88-1.563.85 1.534" transform="matrix(.63904 0 0 -.6573 13.37 43.593)"/><path style="fill:none;stroke-width:.3;stroke-linecap:butt;stroke-linejoin:miter;stroke:#b31d1d;stroke-opacity:1;stroke-miterlimit:4" d="m24.845 1027.484.874-1.562.856 1.533" transform="matrix(.63904 0 0 -.6573 13.37 703.754)"/><path style="fill:none;stroke-width:.3;stroke-linecap:butt;stroke-linejoin:miter;stroke:#b31d1d;stroke-opacity:1;stroke-miterlimit:4" d="m23.085 23.12.88-1.558.851 1.53" transform="matrix(0 -.5778 -.66667 0 45.683 41.753)"/><path style="fill:none;stroke-width:.3;stroke-linecap:butt;stroke-linejoin:miter;stroke:#b31d1d;stroke-opacity:1;stroke-miterlimit:4" d="m24.843 1027.483.88-1.559.85 1.53" transform="matrix(0 -.5778 -.66667 0 715.258 41.753)"/><path style="fill:none;stroke-width:.3;stroke-linecap:butt;stroke-linejoin:miter;stroke:#b31d1d;stroke-opacity:1;stroke-miterlimit:4" d="m23.084 23.122.88-1.564.851 1.535" transform="matrix(0 -.5778 -.66667 0 45.7 39.701)"/><path style="fill:none;stroke-width:.3;stroke-linecap:butt;stroke-linejoin:miter;stroke:#b31d1d;stroke-opacity:1;stroke-miterlimit:4" d="m24.842 1027.484.879-1.564.852 1.535" transform="matrix(0 -.5778 -.66667 0 715.275 39.701)"/><path style="fill:none;stroke-width:.3;stroke-linecap:butt;stroke-linejoin:miter;stroke:#b31d1d;stroke-opacity:1;stroke-miterlimit:4" d="m23.088 23.119.873-1.559.858 1.53" transform="matrix(0 -.5778 -.66667 0 45.717 37.676)"/><path style="fill:none;stroke-width:.3;stroke-linecap:butt;stroke-linejoin:miter;stroke:#b31d1d;stroke-opacity:1;stroke-miterlimit:4" d="m24.84 1027.48.878-1.558.859 1.53" transform="matrix(0 -.5778 -.66667 0 715.292 37.676)"/><path style="fill:none;stroke-width:.3;stroke-linecap:butt;stroke-linejoin:miter;stroke:#b31d1d;stroke-opacity:1;stroke-miterlimit:4" d="m23.087 23.12.88-1.558.851 1.529" transform="matrix(0 -.5778 -.66667 0 45.734 35.625)"/><path style="fill:none;stroke-width:.3;stroke-linecap:butt;stroke-linejoin:miter;stroke:#b31d1d;stroke-opacity:1;stroke-miterlimit:4" d="m24.845 1027.482.872-1.558.859 1.529" transform="matrix(0 -.5778 -.66667 0 715.309 35.625)"/><path style="fill:none;stroke-width:.3;stroke-linecap:butt;stroke-linejoin:miter;stroke:#b31d1d;stroke-opacity:1;stroke-miterlimit:4" d="m23.084 23.12.879-1.559.852 1.53" transform="matrix(0 -.5778 -.66667 0 45.75 33.6)"/><path style="fill:none;stroke-width:.3;stroke-linecap:butt;stroke-linejoin:miter;stroke:#b31d1d;stroke-opacity:1;stroke-miterlimit:4" d="m24.842 1027.482.879-1.559.851 1.53" transform="matrix(0 -.5778 -.66667 0 715.324 33.6)"/><path style="fill:none;stroke-width:.3;stroke-linecap:butt;stroke-linejoin:miter;stroke:#b31d1d;stroke-opacity:1;stroke-miterlimit:4" d="m23.083 23.121.879-1.564.858 1.535" transform="matrix(0 -.5778 -.66667 0 45.766 31.548)"/><path style="fill:none;stroke-width:.3;stroke-linecap:butt;stroke-linejoin:miter;stroke:#b31d1d;stroke-opacity:1;stroke-miterlimit:4" d="m24.84 1027.483.88-1.564.851 1.535" transform="matrix(0 -.5778 -.66667 0 715.34 31.548)"/><path style="stroke:none;fill-rule:nonzero;fill:#1a1a1a;fill-opacity:1" d="M17.95 18.477h6.995v.48H17.95zm0 1.332h4.253v.48H17.95zm0 1.336h6.034v.48H17.95zm0 1.332h7.886v.48h-7.887zm0 0"/><path style="stroke:none;fill-rule:evenodd;fill:#3498db;fill-opacity:1" d="M27.031 23.621c-1.308 0-2.355 1.02-2.355 2.27s1.047 2.25 2.355 2.25c1.309 0 2.375-1 2.375-2.25s-1.066-2.27-2.375-2.27zm0 .457c1.043 0 1.895.817 1.895 1.813s-.852 1.793-1.895 1.793c-1.043 0-1.875-.797-1.875-1.793 0-.996.832-1.813 1.875-1.813zm0 0"/></svg>