<svg xmlns="http://www.w3.org/2000/svg" width="32" height="32"><path style="stroke:none;fill-rule:nonzero;fill:#25aedf;fill-opacity:1" d="M6.355 27.05H25.63v1.665H6.355zm0 0"/><path style="stroke:none;fill-rule:nonzero;fill:#25aedf;fill-opacity:1" d="M29.328 4.465H2.672L12.32 28.57l13.414.086zm0 0"/><path style="stroke:none;fill-rule:nonzero;fill:#25aedf;fill-opacity:1" d="m8.375 28.645-2.094.011C7.238 30.02 11.293 31 16 31c4.727 0 8.793-.988 9.73-2.355zm0 0"/><path style="stroke:none;fill-rule:nonzero;fill:#333;fill-opacity:1" d="M29.332 4.55C29.332 2.59 23.363 1 16 1S2.668 2.59 2.668 4.55c0 1.962 5.969 3.552 13.332 3.552s13.332-1.59 13.332-3.551zm0 0"/><path style="stroke:none;fill-rule:nonzero;fill:#25aedf;fill-opacity:1" d="m2.672 4.465.004.039c0-.016.004-.027.008-.04zm26.648 0c.004.004.004.008.004.012l.004-.012zm-26.59.402 3.536 23.79 13.414-.087 9.293-23.215a2.604 2.604 0 0 1-.368.34l-.007.008c-.141.11-.301.215-.48.32l-.024.012a7.291 7.291 0 0 1-.582.3c-.02.009-.035.017-.055.024-.207.094-.43.184-.668.27-.027.012-.055.02-.082.031-.238.086-.488.168-.754.246l-.082.024c-.266.082-.547.156-.84.226a6.82 6.82 0 0 1-.136.035 36.6 36.6 0 0 1-.868.192l-.21.039c-.286.055-.575.11-.876.156-.093.016-.187.027-.277.043-.289.043-.582.086-.879.125a10.05 10.05 0 0 1-.34.04c-.289.034-.582.07-.879.097l-.406.035c-.273.027-.543.047-.82.066l-.559.036c-.246.011-.492.027-.742.035-.187.008-.375.015-.566.02-.27.007-.54.015-.813.019a37.2 37.2 0 0 1-1.992-.012C8.316 7.91 3.308 6.566 2.73 4.872v-.005zm0 0"/><path style="stroke:none;fill-rule:nonzero;fill:#999;fill-opacity:1" d="M2.742 4.184a.935.935 0 0 0-.074.367C2.664 6.51 8.637 8.1 16 8.1s13.336-1.59 13.332-3.55a.95.95 0 0 0-.074-.34C28.55 6.016 22.828 7.39 16 7.39 9.137 7.39 3.402 6 2.742 4.184zm0 0"/><path style="stroke:none;fill-rule:nonzero;fill:#fff;fill-opacity:1" d="m13.668 12.703-1.68 3.145 2.688 1.609 1.469-2.648.507.921-.472.844h2.738l1.492-2.687-.66.39-.86-1.574zm7.3 4.856-2.687 1.625 1.469 2.66h-1.02l-.472-.856-1.367 2.469 1.492 2.7v-.782h1.742l2.336-4.219.227-.402.046-.102zm-11.206.964.66.387-.871 1.57 2.34 4.223.21.402.063.102 3.445-.05V21.91H12.66l.512-.922h.945l-1.367-2.465zm0 0"/></svg>