<svg xmlns="http://www.w3.org/2000/svg" width="32" height="32"><path style="fill-rule:nonzero;fill:#ccc;fill-opacity:1;stroke-width:1;stroke-linecap:butt;stroke-linejoin:miter;stroke:#3b3434;stroke-opacity:1;stroke-miterlimit:4" d="M309.875 42.438c-22.688 0-41.438 20.937-45.125 48.562h179.813c-3.688-27.625-22.375-48.563-45.125-48.563zm0 0" transform="scale(.0625)"/><path style="stroke:none;fill-rule:nonzero;fill:#25aedf;fill-opacity:1" d="M4.121 6.172H27.88a3.407 3.407 0 0 1 3.402 3.41v11.969a3.407 3.407 0 0 1-3.402 3.41H4.12a3.407 3.407 0 0 1-3.4-3.411V9.582a3.407 3.407 0 0 1 3.402-3.41zm0 0"/><path style="stroke:none;fill-rule:nonzero;fill:#25aedf;fill-opacity:1" d="M4.121 10.559H27.88a3.407 3.407 0 0 1 3.402 3.41v11.969a3.407 3.407 0 0 1-3.402 3.41H4.12a3.407 3.407 0 0 1-3.402-3.41v-11.97a3.407 3.407 0 0 1 3.402-3.41zm0 0"/><path style="stroke:none;fill-rule:evenodd;fill:#fff;fill-opacity:1" d="M16.047 10.906a6.764 6.764 0 0 0-4.73 1.957 6.762 6.762 0 0 0-1.958 4.727c0 1.75.72 3.488 1.957 4.726a6.781 6.781 0 0 0 4.73 1.957c1.75 0 3.493-.718 4.731-1.957a6.766 6.766 0 0 0 1.961-4.726c0-1.75-.722-3.488-1.96-4.727a6.771 6.771 0 0 0-4.731-1.957zm0 1.781c1.285 0 2.562.528 3.469 1.438a4.943 4.943 0 0 1 1.437 3.465 4.95 4.95 0 0 1-1.437 3.465 4.952 4.952 0 0 1-3.47 1.437 4.969 4.969 0 0 1-3.468-1.437 4.95 4.95 0 0 1-1.437-3.465c0-1.285.527-2.559 1.437-3.465a4.969 4.969 0 0 1 3.469-1.438zm-.89.891v4.902h4.905V16.7h-3.12v-3.122zm0 0"/></svg>