<svg xmlns="http://www.w3.org/2000/svg" width="32" height="32"><path style="fill-rule:nonzero;fill:#ccc;fill-opacity:1;stroke-width:1;stroke-linecap:butt;stroke-linejoin:miter;stroke:#3b3434;stroke-opacity:1;stroke-miterlimit:4" d="M309.875 42.438c-22.688 0-41.438 20.937-45.125 48.562h179.813c-3.688-27.625-22.375-48.563-45.125-48.563zm0 0" transform="scale(.0625)"/><path style="stroke:none;fill-rule:nonzero;fill:#25aedf;fill-opacity:1" d="M4.121 6.172H27.88a3.407 3.407 0 0 1 3.402 3.41v11.969a3.407 3.407 0 0 1-3.402 3.41H4.12a3.407 3.407 0 0 1-3.4-3.411V9.582a3.407 3.407 0 0 1 3.402-3.41zm0 0"/><path style="stroke:none;fill-rule:nonzero;fill:#25aedf;fill-opacity:1" d="M4.121 10.559H27.88a3.407 3.407 0 0 1 3.402 3.41v11.969a3.407 3.407 0 0 1-3.402 3.41H4.12a3.407 3.407 0 0 1-3.402-3.41v-11.97a3.407 3.407 0 0 1 3.402-3.41zm0 0"/><path style="stroke:none;fill-rule:nonzero;fill:#fff;fill-opacity:1" d="M13.645 12.215 9.563 14.66l2.765 2.297 4.008-2.43 4.023 2.438-4.023 2.437 2.766 2.305 4.05-2.547-2.77-2.195 2.75-2.297-4.081-2.438-2.692 2.286zM12.3 16.957 9.51 19.16l4.06 2.547 2.757-2.305zm4.027 2.91-2.758 2.305-1.21-.762v.348l3.992 2.734 4.035-2.734v-.39l-1.285.804zm0 0"/></svg>