<svg xmlns="http://www.w3.org/2000/svg" width="32" height="32"><path style="fill-rule:nonzero;fill:#ccc;fill-opacity:1;stroke-width:1;stroke-linecap:butt;stroke-linejoin:miter;stroke:#3b3434;stroke-opacity:1;stroke-miterlimit:4" d="M309.875 42.438c-22.688 0-41.438 20.937-45.125 48.562h179.813c-3.688-27.625-22.375-48.563-45.125-48.563zm0 0" transform="scale(.0625)"/><path style="stroke:none;fill-rule:nonzero;fill:#25aedf;fill-opacity:1" d="M4.121 6.172H27.88a3.407 3.407 0 0 1 3.402 3.41v11.969a3.407 3.407 0 0 1-3.402 3.41H4.12a3.407 3.407 0 0 1-3.4-3.411V9.582a3.407 3.407 0 0 1 3.402-3.41zm0 0"/><path style="stroke:none;fill-rule:nonzero;fill:#25aedf;fill-opacity:1" d="M4.121 10.559H27.88a3.407 3.407 0 0 1 3.402 3.41v11.969a3.407 3.407 0 0 1-3.402 3.41H4.12a3.407 3.407 0 0 1-3.402-3.41v-11.97a3.407 3.407 0 0 1 3.402-3.41zm0 0"/><path style="stroke:none;fill-rule:nonzero;fill:#fff;fill-opacity:1" d="m25.063 18.613-8.348 8.348c-.48.48-1.258.48-1.742 0l-1.73-1.734 2.198-2.2a1.458 1.458 0 0 0 1.852-1.863l2.117-2.117a1.468 1.468 0 0 0 1.516-.348c.57-.574.57-1.5 0-2.074-.574-.57-1.5-.57-2.074 0a1.466 1.466 0 0 0-.317 1.594l-1.976 1.976v-5.199a1.471 1.471 0 0 0 .387-2.352c-.575-.57-1.5-.57-2.075 0a1.471 1.471 0 0 0 .48 2.395v5.246a1.463 1.463 0 0 0-.793 1.922l-2.167 2.168-5.727-5.723a1.233 1.233 0 0 1 0-1.742l8.348-8.348c.48-.48 1.261-.48 1.742 0l8.308 8.31a1.23 1.23 0 0 1 0 1.741"/></svg>