<svg xmlns="http://www.w3.org/2000/svg" width="32" height="32"><path style="fill-rule:nonzero;fill:#ccc;fill-opacity:1;stroke-width:1;stroke-linecap:butt;stroke-linejoin:miter;stroke:#3b3434;stroke-opacity:1;stroke-miterlimit:4" d="M309.875 42.438c-22.688 0-41.438 20.937-45.125 48.562h179.813c-3.688-27.625-22.375-48.563-45.125-48.563zm0 0" transform="scale(.0625)"/><path style="stroke:none;fill-rule:nonzero;fill:#25aedf;fill-opacity:1" d="M4.121 6.172H27.88a3.407 3.407 0 0 1 3.402 3.41v11.969a3.407 3.407 0 0 1-3.402 3.41H4.12a3.407 3.407 0 0 1-3.4-3.411V9.582a3.407 3.407 0 0 1 3.402-3.41zm0 0"/><path style="stroke:none;fill-rule:nonzero;fill:#25aedf;fill-opacity:1" d="M4.121 10.559H27.88a3.407 3.407 0 0 1 3.402 3.41v11.969a3.407 3.407 0 0 1-3.402 3.41H4.12a3.407 3.407 0 0 1-3.402-3.41v-11.97a3.407 3.407 0 0 1 3.402-3.41zm0 0"/><path style="stroke:none;fill-rule:nonzero;fill:#fff;fill-opacity:1" d="M15.5 10.148a7.694 7.694 0 0 0 0 15.387c4.246 0 7.672-3.45 7.672-7.695a7.675 7.675 0 0 0-1.676-4.805c-.164.067-.332.133-.508.219a7.121 7.121 0 0 1 1.657 4.586 7.14 7.14 0 0 1-7.145 7.144c-3.945 0-7.164-3.195-7.164-7.144 0-3.945 3.219-7.14 7.164-7.14 2.07 0 3.918.882 5.223 2.284.25-.043.43-.074.648-.101a7.598 7.598 0 0 0-5.871-2.735zm0 0"/><path style="stroke:none;fill-rule:nonzero;fill:#fff;fill-opacity:1" d="M15.414 12c-.16.008-.242.02-.242.02-4.852.433-6.945 5.777-6.945 5.777l.144 1.523c.969-2.406 6.688.703 6.688.703-2.047-2.082-3.407-2.597-3.407-2.597-.875-.5-1.836-.688-1.836-.688.797-1.824 1.649-2.668 1.649-2.668l.285 1.742c2.055 1.766 3.992 1.586 3.992 1.586 3.02 2.227 3.352 6.614 3.352 6.614l1.203-.649c.504-1.183-1.488-4.84-1.488-4.84-.594-1.117-.774-2.117-.774-2.117.145-.14.969-1.629.969-1.629.719-1.152 4.144-2.14 4.144-2.14-2.546-.285-4.386.355-4.386.355-1.723-.945-2.88-1.015-3.348-.992zm6.79.793c.206-.016.241-.004 0 .02-.653.074-1.599.484-2.317.921-.719.434-.91.797-.914.664-.004-.675-.57-.703-.57-.703.734-.508 3.175-.855 3.8-.902zm-7.099.242c.055-.012.114 0 .176 0 .477 0 .86.383.86.86a.857.857 0 0 1-.86.859.857.857 0 0 1-.86-.86.87.87 0 0 1 .684-.859zm0 0"/><path style="stroke:none;fill-rule:nonzero;fill:#fff;fill-opacity:1" d="M15.5 9.914a7.929 7.929 0 0 0-7.926 7.926c0 4.375 3.551 7.93 7.926 7.93s7.906-3.555 7.906-7.93c0-1.871-.605-3.559-1.691-4.914-.168.07-.38.101-.559.191a7.32 7.32 0 0 1 1.703 4.723A7.355 7.355 0 0 1 15.5 25.2c-4.066 0-7.383-3.294-7.383-7.36 0-4.067 3.317-7.36 7.383-7.36 2.133 0 4.04.91 5.383 2.356.258-.043.441-.074.668-.106A7.847 7.847 0 0 0 15.5 9.914zm0 0"/></svg>