<svg xmlns="http://www.w3.org/2000/svg" width="32" height="32"><path style="fill-rule:nonzero;fill:#ccc;fill-opacity:1;stroke-width:1;stroke-linecap:butt;stroke-linejoin:miter;stroke:#3b3434;stroke-opacity:1;stroke-miterlimit:4" d="M309.875 42.438c-22.688 0-41.438 20.937-45.125 48.562h179.813c-3.688-27.625-22.375-48.563-45.125-48.563zm0 0" transform="scale(.0625)"/><path style="stroke:none;fill-rule:nonzero;fill:#25aedf;fill-opacity:1" d="M4.121 6.172H27.88a3.407 3.407 0 0 1 3.402 3.41v11.969a3.407 3.407 0 0 1-3.402 3.41H4.12a3.407 3.407 0 0 1-3.4-3.411V9.582a3.407 3.407 0 0 1 3.402-3.41zm0 0"/><path style="stroke:none;fill-rule:nonzero;fill:#25aedf;fill-opacity:1" d="M4.121 10.559H27.88a3.407 3.407 0 0 1 3.402 3.41v11.969a3.407 3.407 0 0 1-3.402 3.41H4.12a3.407 3.407 0 0 1-3.402-3.41v-11.97a3.407 3.407 0 0 1 3.402-3.41zm0 0"/><path style="stroke:none;fill-rule:nonzero;fill:#fff;fill-opacity:1" d="M6.82 23.676c-1.148-.598-1.851-1.684-1.984-3.067-.23-2.382 1.191-4.152 3.34-4.152l1.113-.004.11-1.5c.058-.867.3-1.816.57-2.246.984-1.578 2.972-2.062 4.375-1.062 1.304.933 1.515 1.777 1.515 6.043 0 3.722-.011 3.824-.648 4.71-.36.5-1.008 1.079-1.441 1.29-1.051.515-5.954.507-6.95-.012zm6.407-.45c.472-.152 1.125-.609 1.445-1.007.539-.668.594-.992.668-4.016.101-4.027-.145-5.156-1.309-5.996-2.015-1.457-4.199.438-4.199 3.64v1.106l-1.457.121c-1.223.106-1.574.262-2.18.965-1.445 1.691-.93 4.328.992 5.102 1.028.414 4.864.468 6.04.086zm0 0"/><path style="stroke:none;fill-rule:nonzero;fill:#fff;fill-opacity:1" d="M24.836 23.82c1.148-.597 1.852-1.683 1.984-3.066.23-2.383-1.191-4.152-3.34-4.152l-1.113-.004-.11-1.5c-.058-.868-.3-1.817-.57-2.246-.984-1.579-2.972-2.063-4.375-1.063-1.304.934-1.515 1.777-1.515 6.043 0 3.723.012 3.824.648 4.711.36.496 1.008 1.078 1.442 1.289 1.05.516 5.957.508 6.949-.012zm-6.406-.449c-.473-.152-1.125-.61-1.446-1.008-.539-.668-.593-.992-.668-4.015-.101-4.028.145-5.157 1.309-5.996 2.016-1.457 4.2.437 4.2 3.64v1.106l1.456.12c1.223.106 1.574.262 2.18.966 1.445 1.691.934 4.324-.992 5.101-1.028.414-4.864.469-6.04.086zm0 0"/></svg>