<svg xmlns="http://www.w3.org/2000/svg" width="32" height="32"><path style="fill-rule:nonzero;fill:#ccc;fill-opacity:1;stroke-width:1;stroke-linecap:butt;stroke-linejoin:miter;stroke:#3b3434;stroke-opacity:1;stroke-miterlimit:4" d="M309.875 42.438c-22.688 0-41.438 20.937-45.125 48.562h179.813c-3.688-27.625-22.375-48.563-45.125-48.563zm0 0" transform="scale(.0625)"/><path style="stroke:none;fill-rule:nonzero;fill:#25aedf;fill-opacity:1" d="M4.121 6.172H27.88a3.407 3.407 0 0 1 3.402 3.41v11.969a3.407 3.407 0 0 1-3.402 3.41H4.12a3.407 3.407 0 0 1-3.4-3.411V9.582a3.407 3.407 0 0 1 3.402-3.41zm0 0"/><path style="stroke:none;fill-rule:nonzero;fill:#25aedf;fill-opacity:1" d="M4.121 10.559H27.88a3.407 3.407 0 0 1 3.402 3.41v11.969a3.407 3.407 0 0 1-3.402 3.41H4.12a3.407 3.407 0 0 1-3.402-3.41v-11.97a3.407 3.407 0 0 1 3.402-3.41zm0 0"/><path style="stroke:none;fill-rule:nonzero;fill:#fff;fill-opacity:1" d="M8.547 11.21v15.392h15.086V11.21zm.695.708h13.7v13.977h-13.7zm0 0"/><path style="fill:none;stroke-width:6.338936;stroke-linecap:butt;stroke-linejoin:miter;stroke:#fff;stroke-opacity:1;stroke-miterlimit:4" d="m-147.464 1.763 11.183 9.226-16.315 18.652 39.621-15.542-12.425 17.087 25.638-10.867-15.54 20.198 13.207 10.871" transform="matrix(.2194 -.15508 .18583 .18373 38.483 -5.52)"/></svg>