<svg xmlns="http://www.w3.org/2000/svg" width="32" height="32"><path style="fill-rule:nonzero;fill:#ccc;fill-opacity:1;stroke-width:1;stroke-linecap:butt;stroke-linejoin:miter;stroke:#3b3434;stroke-opacity:1;stroke-miterlimit:4" d="M309.875 42.438c-22.688 0-41.438 20.937-45.125 48.562h179.813c-3.688-27.625-22.375-48.563-45.125-48.563zm0 0" transform="scale(.0625)"/><path style="stroke:none;fill-rule:nonzero;fill:#25aedf;fill-opacity:1" d="M4.121 6.172H27.88a3.407 3.407 0 0 1 3.402 3.41v11.969a3.407 3.407 0 0 1-3.402 3.41H4.12a3.407 3.407 0 0 1-3.4-3.411V9.582a3.407 3.407 0 0 1 3.402-3.41zm0 0"/><path style="stroke:none;fill-rule:nonzero;fill:#25aedf;fill-opacity:1" d="M4.121 10.559H27.88a3.407 3.407 0 0 1 3.402 3.41v11.969a3.407 3.407 0 0 1-3.402 3.41H4.12a3.407 3.407 0 0 1-3.402-3.41v-11.97a3.407 3.407 0 0 1 3.402-3.41zm0 0"/><path style="stroke:none;fill-rule:nonzero;fill:#fff;fill-opacity:1" d="M22.27 16.543c.023-.195.035-.398.035-.598 0-2.492-1.75-4.523-3.899-4.523-1.246 0-2.394.683-3.117 1.805a2.97 2.97 0 0 0-.781-.11c-1.883 0-3.414 1.778-3.414 3.961 0 .055.004.11.004.164-1.41.485-2.438 2-2.438 3.793 0 2.184 1.527 3.961 3.41 3.961h8.285c2.149 0 3.899-2.031 3.899-4.527 0-1.649-.781-3.137-1.984-3.926zm-1.915 7.32H12.07c-1.347 0-2.437-1.265-2.437-2.828 0-1.562 1.09-2.828 2.437-2.828.075 0 .145.02.22.027a3.123 3.123 0 0 1-.22-1.156c0-1.562 1.09-2.828 2.438-2.828.437 0 .847.145 1.203.383.441-1.223 1.48-2.078 2.695-2.078 1.614 0 2.922 1.515 2.922 3.39 0 .446-.078.871-.21 1.262 1.241.39 2.16 1.695 2.16 3.262 0 1.875-1.31 3.394-2.923 3.394zm0 0"/></svg>