<svg xmlns="http://www.w3.org/2000/svg" width="32" height="32"><path style="fill-rule:nonzero;fill:#ccc;fill-opacity:1;stroke-width:1;stroke-linecap:butt;stroke-linejoin:miter;stroke:#3b3434;stroke-opacity:1;stroke-miterlimit:4" d="M309.875 42.438c-22.688 0-41.438 20.937-45.125 48.562h179.813c-3.688-27.625-22.375-48.563-45.125-48.563zm0 0" transform="scale(.0625)"/><path style="stroke:none;fill-rule:nonzero;fill:#25aedf;fill-opacity:1" d="M4.121 6.172H27.88a3.407 3.407 0 0 1 3.402 3.41v11.969a3.407 3.407 0 0 1-3.402 3.41H4.12a3.407 3.407 0 0 1-3.4-3.411V9.582a3.407 3.407 0 0 1 3.402-3.41zm0 0"/><path style="stroke:none;fill-rule:nonzero;fill:#25aedf;fill-opacity:1" d="M4.121 10.559H27.88a3.407 3.407 0 0 1 3.402 3.41v11.969a3.407 3.407 0 0 1-3.402 3.41H4.12a3.407 3.407 0 0 1-3.402-3.41v-11.97a3.407 3.407 0 0 1 3.402-3.41zm0 0"/><path style="stroke:none;fill-rule:nonzero;fill:#fff;fill-opacity:1" d="M22.406 14.8c0 1.145-.984 2.075-2.195 2.075-1.215 0-2.2-.93-2.2-2.074 0-1.145.985-2.074 2.2-2.074 1.21 0 2.195.93 2.195 2.074zm0 0"/><path style="stroke:none;fill-rule:nonzero;fill:#fff;fill-opacity:1" d="M20.238 10.934c-2.199 0-3.992 1.765-3.992 3.949 0 2.187 1.793 3.965 3.992 3.965a3.97 3.97 0 0 0 3.977-3.965c0-2.184-1.777-3.95-3.977-3.95zm0 1.336a2.615 2.615 0 0 1 2.633 2.613 2.629 2.629 0 0 1-2.633 2.633 2.642 2.642 0 0 1-2.648-2.633c0-1.45 1.187-2.613 2.648-2.613zm0 0"/><path style="stroke:none;fill-rule:nonzero;fill:#fff;fill-opacity:1" d="m16.262 14.938-2.528 3.73.832.828c.41.211.75.54.965.945l.824.817 3.782-2.512zm-.735 6.628c0 1.004-.746 1.82-1.66 1.82-.918 0-1.66-.816-1.66-1.82 0-1.007.742-1.824 1.66-1.824.914 0 1.66.817 1.66 1.824zm0 0"/><path style="stroke:none;fill-rule:nonzero;fill:#fff;fill-opacity:1" d="M13.523 18.668a2.832 2.832 0 0 0-2.843 2.824c0 1.559 1.273 2.82 2.843 2.82s2.844-1.261 2.844-2.82a2.832 2.832 0 0 0-2.844-2.824zm0 .57a2.26 2.26 0 0 1 2.27 2.254 2.26 2.26 0 0 1-2.27 2.25 2.26 2.26 0 0 1-2.27-2.25 2.26 2.26 0 0 1 2.27-2.254zm0 0"/><path style="stroke:none;fill-rule:nonzero;fill:#fff;fill-opacity:1" d="M8.7 17.16v3.5l4.69 2.434c.02.011.044 0 .055-.024l.992-2.93c.008-.023-.011-.054-.03-.062l-5.708-2.914zm0 0"/></svg>