<svg xmlns="http://www.w3.org/2000/svg" width="32" height="32"><path style="fill-rule:nonzero;fill:#ccc;fill-opacity:1;stroke-width:1;stroke-linecap:butt;stroke-linejoin:miter;stroke:#3b3434;stroke-opacity:1;stroke-miterlimit:4" d="M309.875 42.438c-22.688 0-41.438 20.937-45.125 48.562h179.813c-3.688-27.625-22.375-48.563-45.125-48.563zm0 0" transform="scale(.0625)"/><path style="stroke:none;fill-rule:nonzero;fill:#25aedf;fill-opacity:1" d="M4.121 6.172H27.88a3.407 3.407 0 0 1 3.402 3.41v11.969a3.407 3.407 0 0 1-3.402 3.41H4.12a3.407 3.407 0 0 1-3.4-3.411V9.582a3.407 3.407 0 0 1 3.402-3.41zm0 0"/><path style="stroke:none;fill-rule:nonzero;fill:#25aedf;fill-opacity:1" d="M4.121 10.559H27.88a3.407 3.407 0 0 1 3.402 3.41v11.969a3.407 3.407 0 0 1-3.402 3.41H4.12a3.407 3.407 0 0 1-3.402-3.41v-11.97a3.407 3.407 0 0 1 3.402-3.41zm0 0"/><path style="stroke:none;fill-rule:nonzero;fill:#fff;fill-opacity:1" d="M16.273 11.047A6.73 6.73 0 0 0 11.563 13a6.747 6.747 0 0 0-1.954 4.715c0 1.742.72 3.476 1.954 4.71a6.731 6.731 0 0 0 4.71 1.954c1.747 0 3.48-.719 4.715-1.953a6.75 6.75 0 0 0 1.957-4.711A6.75 6.75 0 0 0 20.988 13a6.747 6.747 0 0 0-4.715-1.953zm0 1.332c2.793 0 5.336 2.543 5.336 5.336s-2.543 5.332-5.336 5.332-5.328-2.543-5.328-5.332c0-2.793 2.535-5.336 5.328-5.336zm-1.328 1.336v3.332h-2.668l4 4.668 4-4.668H17.61v-3.332zm0 0"/></svg>