<svg xmlns="http://www.w3.org/2000/svg" width="32" height="32"><path style="fill-rule:nonzero;fill:#ccc;fill-opacity:1;stroke-width:1;stroke-linecap:butt;stroke-linejoin:miter;stroke:#3b3434;stroke-opacity:1;stroke-miterlimit:4" d="M309.875 42.438c-22.688 0-41.438 20.937-45.125 48.562h179.813c-3.688-27.625-22.375-48.563-45.125-48.563zm0 0" transform="scale(.0625)"/><path style="stroke:none;fill-rule:nonzero;fill:#25aedf;fill-opacity:1" d="M4.121 6.172H27.88a3.407 3.407 0 0 1 3.402 3.41v11.969a3.407 3.407 0 0 1-3.402 3.41H4.12a3.407 3.407 0 0 1-3.4-3.411V9.582a3.407 3.407 0 0 1 3.402-3.41zm0 0"/><path style="stroke:none;fill-rule:nonzero;fill:#25aedf;fill-opacity:1" d="M4.121 10.559H27.88a3.407 3.407 0 0 1 3.402 3.41v11.969a3.407 3.407 0 0 1-3.402 3.41H4.12a3.407 3.407 0 0 1-3.402-3.41v-11.97a3.407 3.407 0 0 1 3.402-3.41zm0 0"/><path style="stroke:none;fill-rule:nonzero;fill:#fff;fill-opacity:1" d="M20.504 10.512H8.644v12.054h.012l2.836 2.602v.086h11.856v-12.05l.007-.009zm-11.137.457h10.684v2.23h-8.29zm11.133.047 2.32 2.183H20.5zm-11.406.191 2.398 2.227v8.675H9.094zm2.87 2.473h8.087v8.43h-8.086zm8.536 0h2.375v10.86L20.5 22.183zM9.187 22.566h2.305v2.114zm2.778 0h8.414l2.223 2.207H11.965zm0 0"/><path style="stroke:none;fill-rule:nonzero;fill:#fff;fill-opacity:1" d="M14.402 17.36a.885.885 0 1 1-1.77-.005.885.885 0 0 1 1.77.004zm2.653 0a.885.885 0 1 1-1.769-.005.885.885 0 0 1 1.769.004zm2.655 0a.885.885 0 1 1-1.77-.005.885.885 0 0 1 1.77.004zm0 0"/></svg>