<svg xmlns="http://www.w3.org/2000/svg" width="32" height="32"><path style="fill-rule:nonzero;fill:#ccc;fill-opacity:1;stroke-width:1;stroke-linecap:butt;stroke-linejoin:miter;stroke:#3b3434;stroke-opacity:1;stroke-miterlimit:4" d="M309.875 42.438c-22.688 0-41.438 20.937-45.125 48.562h179.813c-3.688-27.625-22.375-48.563-45.125-48.563zm0 0" transform="scale(.0625)"/><path style="stroke:none;fill-rule:nonzero;fill:#25aedf;fill-opacity:1" d="M4.121 6.172H27.88a3.407 3.407 0 0 1 3.402 3.41v11.969a3.407 3.407 0 0 1-3.402 3.41H4.12a3.407 3.407 0 0 1-3.4-3.411V9.582a3.407 3.407 0 0 1 3.402-3.41zm0 0"/><path style="stroke:none;fill-rule:nonzero;fill:#25aedf;fill-opacity:1" d="M4.121 10.559H27.88a3.407 3.407 0 0 1 3.402 3.41v11.969a3.407 3.407 0 0 1-3.402 3.41H4.12a3.407 3.407 0 0 1-3.402-3.41v-11.97a3.407 3.407 0 0 1 3.402-3.41zm0 0"/><path style="stroke:none;fill-rule:nonzero;fill:#fff;fill-opacity:1" d="M19.043 24.727a3102.51 3102.51 0 0 1-3.715-.747l-.344-.07v-5.277l2.196.015c1.207.012 2.925.036 3.816.059l1.629.035v3.332c0 3.14-.008 3.336-.105 3.332-.06-.004-1.622-.312-3.477-.68zm-7.34-1.465-2.297-.45-.031-4.242 2.313.028c1.273.011 2.32.03 2.328.039.011.008.011 1.152 0 2.547L14 23.714zM9.38 15.656c0-1.168.008-2.12.016-2.12.011 0 1.023-.2 2.25-.446 1.23-.246 2.27-.45 2.308-.45.063 0 .078.508.078 2.528v2.527l-1.207.04c-.664.019-1.71.038-2.328.038H9.38zm5.605-.574V12.43l3.715-.735a489.57 489.57 0 0 0 3.82-.761c.098-.028.106.16.106 3.343v3.375h-2.02c-1.109 0-2.828.02-3.82.04l-1.8.042zm0 0"/></svg>