<svg xmlns="http://www.w3.org/2000/svg" width="32" height="32"><path style="fill-rule:nonzero;fill:#ccc;fill-opacity:1;stroke-width:1;stroke-linecap:butt;stroke-linejoin:miter;stroke:#3b3434;stroke-opacity:1;stroke-miterlimit:4" d="M309.875 42.438c-22.688 0-41.438 20.937-45.125 48.562h179.813c-3.688-27.625-22.375-48.563-45.125-48.563zm0 0" transform="scale(.0625)"/><path style="stroke:none;fill-rule:nonzero;fill:#25aedf;fill-opacity:1" d="M4.121 6.172H27.88a3.407 3.407 0 0 1 3.402 3.41v11.969a3.407 3.407 0 0 1-3.402 3.41H4.12a3.407 3.407 0 0 1-3.4-3.411V9.582a3.407 3.407 0 0 1 3.402-3.41zm0 0"/><path style="stroke:none;fill-rule:nonzero;fill:#25aedf;fill-opacity:1" d="M4.121 10.559H27.88a3.407 3.407 0 0 1 3.402 3.41v11.969a3.407 3.407 0 0 1-3.402 3.41H4.12a3.407 3.407 0 0 1-3.402-3.41v-11.97a3.407 3.407 0 0 1 3.402-3.41zm0 0"/><path style="stroke:none;fill-rule:nonzero;fill:#fff;fill-opacity:1" d="M8.535 23.344s2.13 1.843 4.57 1.144c2.442-.703 2-1.367 2-1.367s1.332.961 2.485 1.293c1.156.332 3.64 0 3.375-1.512-.266-1.511.844 1.438 3.242 1.657l-3.55-2.579s-.845 1.29-1.735 2.102c-.887.809-3.715-2.273-4.485-1.031-.78 1.258-5.902.293-5.902.293zm4.11-3.024s1.671 1.84 3.585 1.14c1.915-.698 1.567-1.362 1.567-1.362s1.043.957 1.95 1.289c.905.332 2.855 0 2.644-1.512-.207-1.512.664 1.438 2.543 1.66l-2.786-2.582s-.66 1.293-1.359 2.102c-.695.812-2.91-2.27-3.516-1.032-.613 1.258-4.628.297-4.628.297zm6.253-6.324c.02-.11.032-.223.032-.336 0-1.406-1.512-2.55-3.371-2.55-1.079 0-2.067.386-2.692 1.019a3.567 3.567 0 0 0-.676-.063c-1.625 0-2.949 1-2.949 2.23 0 .032.004.063.004.095-1.219.273-2.11 1.129-2.11 2.136 0 1.23 1.325 2.23 2.95 2.23h7.156c1.86 0 3.371-1.14 3.371-2.546 0-.93-.675-1.77-1.715-2.215zm-1.656 4.125h-7.156c-1.164 0-2.106-.71-2.106-1.594 0-.879.942-1.593 2.106-1.593.062 0 .125.011.187.015a1.278 1.278 0 0 1-.187-.652c0-.879.941-1.594 2.105-1.594.38 0 .73.082 1.04.215.382-.688 1.28-1.172 2.328-1.172 1.398 0 2.527.856 2.527 1.914 0 .25-.066.488-.184.711 1.075.219 1.868.957 1.868 1.84 0 1.055-1.13 1.91-2.528 1.91zm0 0"/><path style="stroke:none;fill-rule:nonzero;fill:#fff;fill-opacity:1" d="M24.012 10.941a.684.684 0 0 0 .015-.156c0-.644-.691-1.168-1.543-1.168-.492 0-.949.176-1.234.469a1.621 1.621 0 0 0-.309-.031c-.746 0-1.351.46-1.351 1.023v.043c-.559.125-.965.516-.965.98 0 .563.605 1.024 1.352 1.024h3.277c.851 0 1.547-.527 1.547-1.172 0-.426-.313-.808-.79-1.012zm-.758 1.891h-3.277c-.536 0-.965-.328-.965-.73 0-.403.43-.73.965-.73.027 0 .054.003.085.007a.595.595 0 0 1-.085-.3c0-.403.43-.731.964-.731.172 0 .336.039.477.097.172-.312.586-.535 1.066-.535.641 0 1.157.39 1.157.875a.685.685 0 0 1-.086.328c.496.102.86.438.86.84 0 .485-.52.879-1.161.879zm0 0"/></svg>