<svg xmlns="http://www.w3.org/2000/svg" width="32" height="32"><path style="fill-rule:nonzero;fill:#ccc;fill-opacity:1;stroke-width:1;stroke-linecap:butt;stroke-linejoin:miter;stroke:#3b3434;stroke-opacity:1;stroke-miterlimit:4" d="M309.875 42.438c-22.688 0-41.438 20.937-45.125 48.562h179.813c-3.688-27.625-22.375-48.563-45.125-48.563zm0 0" transform="scale(.0625)"/><path style="stroke:none;fill-rule:nonzero;fill:#25aedf;fill-opacity:1" d="M4.121 6.172H27.88a3.407 3.407 0 0 1 3.402 3.41v11.969a3.407 3.407 0 0 1-3.402 3.41H4.12a3.407 3.407 0 0 1-3.4-3.411V9.582a3.407 3.407 0 0 1 3.402-3.41zm0 0"/><path style="stroke:none;fill-rule:nonzero;fill:#25aedf;fill-opacity:1" d="M4.121 10.559H27.88a3.407 3.407 0 0 1 3.402 3.41v11.969a3.407 3.407 0 0 1-3.402 3.41H4.12a3.407 3.407 0 0 1-3.402-3.41v-11.97a3.407 3.407 0 0 1 3.402-3.41zm0 0"/><path style="stroke:none;fill-rule:nonzero;fill:#fff;fill-opacity:1" d="M16 21.91a1.73 1.73 0 0 0-1.23.52L16 23.66l1.23-1.23a1.733 1.733 0 0 0-1.23-.52zm0-3.504c-1.45 0-2.758.594-3.707 1.547l1.23 1.23a3.5 3.5 0 0 1 4.953 0l1.231-1.23A5.216 5.216 0 0 0 16 18.406zm0 0"/><path style="stroke:none;fill-rule:nonzero;fill:#fff;fill-opacity:1" d="M16 14.902a8.708 8.708 0 0 0-6.184 2.575l1.23 1.23A6.995 6.995 0 0 1 16 16.657a6.99 6.99 0 0 1 4.953 2.05l1.23-1.23A8.708 8.708 0 0 0 16 14.902zm0 0"/><path style="stroke:none;fill-rule:nonzero;fill:#fff;fill-opacity:1" d="M16 11.402A12.21 12.21 0 0 0 7.34 15l1.23 1.23A10.471 10.471 0 0 1 16 13.152c2.898 0 5.527 1.176 7.43 3.078L24.66 15A12.21 12.21 0 0 0 16 11.402zm0 0"/></svg>