<svg xmlns="http://www.w3.org/2000/svg" width="32" height="32"><path style="fill-rule:nonzero;fill:#ccc;fill-opacity:1;stroke-width:1;stroke-linecap:butt;stroke-linejoin:miter;stroke:#3b3434;stroke-opacity:1;stroke-miterlimit:4" d="M309.875 42.438c-22.688 0-41.438 20.937-45.125 48.562h179.813c-3.688-27.625-22.375-48.563-45.125-48.563zm0 0" transform="scale(.0625)"/><path style="stroke:none;fill-rule:nonzero;fill:#25aedf;fill-opacity:1" d="M4.121 6.172H27.88a3.407 3.407 0 0 1 3.402 3.41v11.969a3.407 3.407 0 0 1-3.402 3.41H4.12a3.407 3.407 0 0 1-3.4-3.411V9.582a3.407 3.407 0 0 1 3.402-3.41zm0 0"/><path style="stroke:none;fill-rule:nonzero;fill:#25aedf;fill-opacity:1" d="M4.121 10.559H27.88a3.407 3.407 0 0 1 3.402 3.41v11.969a3.407 3.407 0 0 1-3.402 3.41H4.12a3.407 3.407 0 0 1-3.402-3.41v-11.97a3.407 3.407 0 0 1 3.402-3.41zm0 0"/><path style="stroke:none;fill-rule:nonzero;fill:#fff;fill-opacity:1" d="m21.57 11.523-1.047.977.247 1.48 1.293.508 1.046-.972-.246-1.485zm.262.762c.313.008.574.258.629.594.066.39-.172.766-.527.836a.596.596 0 0 1-.489-.117.713.713 0 0 1-.273-.461c-.067-.39.172-.766.527-.84a.73.73 0 0 1 .133-.012zM16.25 15.89l1.941 2.15-2.882 2.405-1.942-2.144zm0 0"/><path style="stroke:none;fill-rule:nonzero;fill:#fff;fill-opacity:1" d="M20.395 12.43a3.746 3.746 0 0 0-3.84.57c-1.508 1.258-1.684 3.43-.399 4.852 1.29 1.425 3.555 1.558 5.063.3 1.097-.922 1.488-2.328 1.117-3.574l-2.023 1.692-1.942-2.149zm-6.422 5.015c-.215-.168-.512-.144-.887.16l-3.457 2.782-.242.195-1.172.969c-.914.75-.996 2.012-.176 2.832.82.824 2.223.883 3.137.137l1.183-.961.23-.207 3.231-2.633c.528-.434.309-.774.094-1.024l-1.867-2.164c-.027-.031-.047-.062-.074-.086zm-.371 1.73.683.762c.14.157.086.415-.129.586l-3.847 3.118c-.215.175-.5.195-.641.039l-.684-.766c-.144-.156-.078-.422.137-.594l3.848-3.117c.215-.176.488-.187.633-.027zm0 0"/></svg>