<svg xmlns="http://www.w3.org/2000/svg" width="32" height="32"><path style="stroke:none;fill-rule:nonzero;fill:gray;fill-opacity:1" d="M19.367 2.652c-1.418 0-2.59 1.309-2.82 3.035h11.238c-.23-1.726-1.398-3.035-2.82-3.035zm0 0"/><path style="stroke:none;fill-rule:nonzero;fill:#d40000;fill-opacity:1" d="M4.121 6.172H27.88a3.407 3.407 0 0 1 3.402 3.41v11.969a3.407 3.407 0 0 1-3.402 3.41H4.12a3.407 3.407 0 0 1-3.4-3.411V9.582a3.407 3.407 0 0 1 3.402-3.41zm0 0"/><path style="stroke:none;fill-rule:nonzero;fill:#d40000;fill-opacity:1" d="M4.121 10.559H27.88a3.407 3.407 0 0 1 3.402 3.41v11.969a3.407 3.407 0 0 1-3.402 3.41H4.12a3.407 3.407 0 0 1-3.402-3.41v-11.97a3.407 3.407 0 0 1 3.402-3.41zm0 0"/></svg>