<svg xmlns="http://www.w3.org/2000/svg" width="32" height="32"><path style="fill-rule:nonzero;fill:#ccc;fill-opacity:1;stroke-width:1;stroke-linecap:butt;stroke-linejoin:miter;stroke:#3b3434;stroke-opacity:1;stroke-miterlimit:4" d="M309.875 42.438c-22.688 0-41.438 20.937-45.125 48.562h179.813c-3.688-27.625-22.375-48.563-45.125-48.563zm0 0" transform="scale(.0625)"/><path style="stroke:none;fill-rule:nonzero;fill:#25aedf;fill-opacity:1" d="M4.121 6.172H27.88a3.407 3.407 0 0 1 3.402 3.41v11.969a3.407 3.407 0 0 1-3.402 3.41H4.12a3.407 3.407 0 0 1-3.4-3.411V9.582a3.407 3.407 0 0 1 3.402-3.41zm0 0"/><path style="stroke:none;fill-rule:nonzero;fill:#25aedf;fill-opacity:1" d="M4.121 10.559H27.88a3.407 3.407 0 0 1 3.402 3.41v11.969a3.407 3.407 0 0 1-3.402 3.41H4.12a3.407 3.407 0 0 1-3.402-3.41v-11.97a3.407 3.407 0 0 1 3.402-3.41zm0 0"/><path style="stroke:none;fill-rule:evenodd;fill:#fff;fill-opacity:1" d="m19.984 9.445.63.575-.778.457-.563-.696-.058 1.27 1.12.246 1.767 2.086.992-.531-1.84-2.082.23-.915zm-5.437.492c-1.012 0-1.832.672-1.832 1.504 0 .75.68 1.387 1.59 1.489l-2.535 1.082-.524 5.754 1.469-.024.586-4.933.117 4.496-.816 6.746 1.484-.02 1.172-6.508 1.523 6.5h1.532l-1.356-6.695-.21-4.734 4.628-1.649-.883-.902-4.11 1.07-1.6-.183c.913-.094 1.6-.735 1.6-1.489 0-.832-.82-1.504-1.835-1.504zm0 0"/></svg>