<svg xmlns="http://www.w3.org/2000/svg" width="32" height="32"><path style="fill-rule:nonzero;fill:#ccc;fill-opacity:1;stroke-width:1;stroke-linecap:butt;stroke-linejoin:miter;stroke:#3b3434;stroke-opacity:1;stroke-miterlimit:4" d="M309.875 42.438c-22.688 0-41.438 20.937-45.125 48.562h179.813c-3.688-27.625-22.375-48.563-45.125-48.563zm0 0" transform="scale(.0625)"/><path style="stroke:none;fill-rule:nonzero;fill:#25aedf;fill-opacity:1" d="M4.121 6.172H27.88a3.407 3.407 0 0 1 3.402 3.41v11.969a3.407 3.407 0 0 1-3.402 3.41H4.12a3.407 3.407 0 0 1-3.4-3.411V9.582a3.407 3.407 0 0 1 3.402-3.41zm0 0"/><path style="stroke:none;fill-rule:nonzero;fill:#25aedf;fill-opacity:1" d="M4.121 10.559H27.88a3.407 3.407 0 0 1 3.402 3.41v11.969a3.407 3.407 0 0 1-3.402 3.41H4.12a3.407 3.407 0 0 1-3.402-3.41v-11.97a3.407 3.407 0 0 1 3.402-3.41zm0 0"/><path style="stroke:none;fill-rule:nonzero;fill:#fff;fill-opacity:1" d="M11.68 9.715c-.617 0-1.117.574-1.117 1.289v4.738h-.376c-.617 0-1.117.574-1.117 1.29v4.308c0 .715.5 1.289 1.117 1.289h.376v1.293c0 .715.5 1.293 1.117 1.293h8.21c.622 0 1.122-.578 1.122-1.293v-1.293h.37c.622 0 1.122-.574 1.122-1.29v-4.308c0-.715-.5-1.289-1.121-1.289h-.371v-4.738c0-.715-.5-1.29-1.121-1.29zm.265.82h7.54c.855 0 .855 0 .855.82v5.27h-9.121V11.34c0-.805 0-.805.726-.805zm7.2 7.79c.207 0 .375.19.375.429 0 .238-.168.43-.375.43s-.372-.192-.372-.43.165-.43.372-.43zm1.492 0c.207 0 .375.19.375.429 0 .238-.168.43-.375.43s-.371-.192-.371-.43.164-.43.37-.43zm-9.418 3.445h9.12v2.168c0 .44 0 .44-.44.44h-8.215c-.465 0-.465 0-.465-.476zm0 0"/></svg>