<svg xmlns="http://www.w3.org/2000/svg" width="32" height="32"><path style="fill-rule:nonzero;fill:#ccc;fill-opacity:1;stroke-width:1;stroke-linecap:butt;stroke-linejoin:miter;stroke:#3b3434;stroke-opacity:1;stroke-miterlimit:4" d="M309.875 42.438c-22.688 0-41.438 20.937-45.125 48.562h179.813c-3.688-27.625-22.375-48.563-45.125-48.563zm0 0" transform="scale(.0625)"/><path style="stroke:none;fill-rule:nonzero;fill:#25aedf;fill-opacity:1" d="M4.121 6.172H27.88a3.407 3.407 0 0 1 3.402 3.41v11.969a3.407 3.407 0 0 1-3.402 3.41H4.12a3.407 3.407 0 0 1-3.4-3.411V9.582a3.407 3.407 0 0 1 3.402-3.41zm0 0"/><path style="stroke:none;fill-rule:nonzero;fill:#25aedf;fill-opacity:1" d="M4.121 10.559H27.88a3.407 3.407 0 0 1 3.402 3.41v11.969a3.407 3.407 0 0 1-3.402 3.41H4.12a3.407 3.407 0 0 1-3.402-3.41v-11.97a3.407 3.407 0 0 1 3.402-3.41zm0 0"/><path style="stroke:none;fill-rule:nonzero;fill:#fff;fill-opacity:1" d="M16.508 12.727c-.883 0-1.602.668-1.602 1.492.004.094.004.203.016.32-.14.074-.156.363-.035.66.05.114.117.207.183.281 0 .004.004.004.004.008l.047.227c.059.176.305.512.524.8.02.22.023.438-.02.688-.352.29-1 .496-1.504.711a2.058 2.058 0 0 1-.465-.277 2.559 2.559 0 0 1-.008-.457c.149-.227.34-.52.387-.664.02-.078.027-.13.04-.196a.785.785 0 0 0 .116-.195c.09-.207.079-.406-.011-.477.004-.09.015-.171.02-.25 0-.617-.54-1.125-1.2-1.125-.664 0-1.203.508-1.203 1.125.004.07.008.149.015.239-.105.054-.12.27-.027.488a.725.725 0 0 0 .14.223c.016.054.02.101.036.168.043.132.226.382.387.597.015.168.02.332-.012.524-.469.386-1.656.554-1.652.953l-.164 1.047c0 .21.32.402.828.535l.07.281a.165.165 0 0 0 .11.117c.023.008.034.028.097.047.324.094.816.16 1.375.16.523 0 .988-.062 1.313-.148l.085.344a.23.23 0 0 0 .141.152c.031.012.055.035.137.059.433.125 1.09.214 1.832.214.738 0 1.406-.09 1.84-.214.082-.024.105-.047.132-.059a.225.225 0 0 0 .137-.148l.098-.34c.32.082.785.14 1.3.14.555 0 1.06-.066 1.383-.16.059-.02.075-.039.094-.047a.173.173 0 0 0 .106-.11l.09-.296c.492-.133.804-.316.804-.527l-.16-1.047c0-.34-1.2-.555-1.656-.953a2.559 2.559 0 0 1-.008-.457c.148-.227.34-.52.387-.664.02-.078.023-.13.039-.196a.785.785 0 0 0 .117-.195c.086-.207.078-.406-.016-.477.008-.09.02-.171.02-.25 0-.617-.535-1.12-1.2-1.12-.66 0-1.199.503-1.199 1.12l.012.239c-.101.054-.117.27-.023.488a.808.808 0 0 0 .14.223c.012.054.02.101.032.168.046.132.226.382.39.597.016.168.016.332-.015.524-.133.11-.32.199-.528.285-.5-.211-1.11-.43-1.437-.719a3.147 3.147 0 0 1-.016-.605c.195-.301.457-.688.524-.883.023-.102.03-.172.05-.258.059-.07.114-.16.157-.258.117-.281.105-.55-.012-.64a5.42 5.42 0 0 0 .015-.34c0-.824-.714-1.492-1.597-1.492zm0 0"/><path style="fill:none;stroke-width:1;stroke-linecap:butt;stroke-linejoin:miter;stroke:#fff;stroke-opacity:1;stroke-miterlimit:4" d="M14.9 15.844h20.004v19.998H14.9zm0 0" transform="scale(.66667)"/></svg>