<svg xmlns="http://www.w3.org/2000/svg" width="32" height="32"><path style="fill-rule:nonzero;fill:#ccc;fill-opacity:1;stroke-width:1;stroke-linecap:butt;stroke-linejoin:miter;stroke:#3b3434;stroke-opacity:1;stroke-miterlimit:4" d="M309.875 42.438c-22.688 0-41.438 20.937-45.125 48.562h179.813c-3.688-27.625-22.375-48.563-45.125-48.563zm0 0" transform="scale(.0625)"/><path style="stroke:none;fill-rule:nonzero;fill:#25aedf;fill-opacity:1" d="M4.121 6.172H27.88a3.407 3.407 0 0 1 3.402 3.41v11.969a3.407 3.407 0 0 1-3.402 3.41H4.12a3.407 3.407 0 0 1-3.4-3.411V9.582a3.407 3.407 0 0 1 3.402-3.41zm0 0"/><path style="stroke:none;fill-rule:nonzero;fill:#25aedf;fill-opacity:1" d="M4.121 10.559H27.88a3.407 3.407 0 0 1 3.402 3.41v11.969a3.407 3.407 0 0 1-3.402 3.41H4.12a3.407 3.407 0 0 1-3.402-3.41v-11.97a3.407 3.407 0 0 1 3.402-3.41zm0 0"/><path style="stroke:none;fill-rule:nonzero;fill:#fff;fill-opacity:1" d="M8.3 20.656h1.536c.215 0 .383.13.383.29v.577c0 .157-.168.286-.383.286H8.3c-.211 0-.383-.13-.383-.286v-.578c0-.16.172-.289.383-.289zm-.19-1.446c-.102 0-.192.063-.192.145v.868c0 .082.09.144.191.144h.383c.106 0 .195-.062.195-.144v-.145h.575c.105 0 .191-.066.191-.144v-.29c0-.081-.086-.144-.191-.144h-.575v-.145c0-.082-.09-.144-.195-.144zm0-1.733c-.102 0-.192.062-.192.144v.867c0 .082.09.145.191.145h.383c.106 0 .195-.063.195-.145v-.144h.575c.105 0 .191-.067.191-.145v-.289c0-.082-.086-.144-.191-.144h-.575v-.145c0-.082-.09-.144-.195-.144zm0-1.735c-.102 0-.192.063-.192.145v.867c0 .082.09.144.191.144h.383c.106 0 .195-.062.195-.144v-.145h.575c.105 0 .191-.066.191-.144v-.29c0-.077-.086-.144-.191-.144h-.575v-.144c0-.082-.09-.145-.195-.145zm0-1.734c-.102 0-.192.062-.192.144v.868c0 .082.09.144.191.144h.383c.106 0 .195-.062.195-.144v-.145h.575c.105 0 .191-.063.191-.145v-.289c0-.078-.086-.144-.191-.144h-.575v-.145c0-.082-.09-.144-.195-.144zm0-1.735c-.102 0-.192.067-.192.145v.867c0 .082.09.145.191.145h.383c.106 0 .195-.063.195-.145v-.144h.575c.105 0 .191-.063.191-.145v-.289c0-.078-.086-.145-.191-.145h-.575v-.144c0-.078-.09-.145-.195-.145zm0-1.73c-.102 0-.192.062-.192.145v.863c0 .082.09.144.191.144h.383c.106 0 .195-.062.195-.144v-.145h.575c.105 0 .191-.062.191-.14v-.29c0-.081-.086-.144-.191-.144h-.575v-.145c0-.082-.09-.144-.195-.144zm1.917 7.801c.106 0 .192.062.192.144v.867c0 .082-.086.145-.192.145h-.382c-.102 0-.192-.063-.192-.145v-.144H8.88c-.11 0-.191-.066-.191-.145v-.289c0-.082.082-.144.19-.144h.575v-.145c0-.082.09-.144.192-.144zm0-1.734c.106 0 .192.062.192.144v.867c0 .082-.086.145-.192.145h-.382c-.102 0-.192-.063-.192-.145v-.144H8.88c-.11 0-.191-.067-.191-.145v-.289c0-.082.082-.145.19-.145h.575v-.144c0-.082.09-.145.192-.145zm0-1.735c.106 0 .192.063.192.145v.867c0 .082-.086.144-.192.144h-.382c-.102 0-.192-.062-.192-.144v-.145H8.88c-.11 0-.191-.062-.191-.144v-.29c0-.078.082-.144.19-.144h.575v-.144c0-.082.09-.145.192-.145zm0-1.735c.106 0 .192.063.192.145v.867c0 .082-.086.145-.192.145h-.382c-.102 0-.192-.063-.192-.145v-.144H8.88c-.11 0-.191-.063-.191-.145v-.289c0-.078.082-.144.19-.144h.575v-.145c0-.082.09-.144.192-.144zm0-1.734c.106 0 .192.067.192.145v.867c0 .082-.086.145-.192.145h-.382c-.102 0-.192-.063-.192-.145v-.145H8.88c-.11 0-.191-.062-.191-.144v-.285c0-.082.082-.149.19-.149h.575v-.144c0-.078.09-.145.192-.145zm0-1.73c.106 0 .192.062.192.144v.867c0 .079-.086.145-.192.145h-.382c-.102 0-.192-.066-.192-.145v-.144H8.88c-.11 0-.191-.066-.191-.145v-.289c0-.082.082-.144.19-.144h.575V9.82c0-.082.09-.144.192-.144zm0 0"/><path style="stroke:none;fill-rule:nonzero;fill:#fff;fill-opacity:1" d="M6.293 6.207v15.89c0 .637.71 1.157 1.586 1.157h2.383c.87 0 1.586-.52 1.586-1.156V6.207h-.399v15.89c0 .481-.531.868-1.187.868H7.879c-.66 0-1.191-.387-1.191-.867V6.207zm0 0"/><path style="stroke:none;fill-rule:nonzero;fill:#fff;fill-opacity:1" d="M8.262 6.14c-.2 0-.356.13-.356.29v2.863c0 .16.157.289.356.289h1.613c.2 0 .355-.129.355-.289l.004-2.863c0-.16-.16-.29-.355-.29zm.207 2.11h1.183v.824H8.47zm0 0"/></svg>