<svg xmlns="http://www.w3.org/2000/svg" width="32" height="32"><path style="fill-rule:nonzero;fill:#ccc;fill-opacity:1;stroke-width:1;stroke-linecap:butt;stroke-linejoin:miter;stroke:#3b3434;stroke-opacity:1;stroke-miterlimit:4" d="M309.875 42.438c-22.688 0-41.438 20.937-45.125 48.562h179.813c-3.688-27.625-22.375-48.563-45.125-48.563zm0 0" transform="scale(.0625)"/><path style="stroke:none;fill-rule:nonzero;fill:#25aedf;fill-opacity:1" d="M4.121 6.172H27.88a3.407 3.407 0 0 1 3.402 3.41v11.969a3.407 3.407 0 0 1-3.402 3.41H4.12a3.407 3.407 0 0 1-3.4-3.411V9.582a3.407 3.407 0 0 1 3.402-3.41zm0 0"/><path style="stroke:none;fill-rule:nonzero;fill:#25aedf;fill-opacity:1" d="M4.121 10.559H27.88a3.407 3.407 0 0 1 3.402 3.41v11.969a3.407 3.407 0 0 1-3.402 3.41H4.12a3.407 3.407 0 0 1-3.402-3.41v-11.97a3.407 3.407 0 0 1 3.402-3.41zm0 0"/><path style="stroke:none;fill-rule:nonzero;fill:#fff;fill-opacity:1" d="M19.766 10.484a2.338 2.338 0 0 0-2.34 2.336c0 .305.062.606.18.89l-3.848 2.532a2.338 2.338 0 1 0-.063 3.598l3.746 2.465a1.735 1.735 0 0 0-.015.246 2.339 2.339 0 1 0 4.68 0 2.339 2.339 0 0 0-2.34-2.34 2.354 2.354 0 0 0-1.72.758l-3.558-2.344c.055-.2.086-.406.086-.613a2.407 2.407 0 0 0-.066-.528l4.047-2.668c.363.223.78.344 1.21.344a2.339 2.339 0 1 0 0-4.676zm0 0"/></svg>