<svg xmlns="http://www.w3.org/2000/svg" width="32" height="32"><path style="fill-rule:nonzero;fill:#ccc;fill-opacity:1;stroke-width:1;stroke-linecap:butt;stroke-linejoin:miter;stroke:#3b3434;stroke-opacity:1;stroke-miterlimit:4" d="M309.875 42.438c-22.688 0-41.438 20.937-45.125 48.562h179.813c-3.688-27.625-22.375-48.563-45.125-48.563zm0 0" transform="scale(.0625)"/><path style="stroke:none;fill-rule:nonzero;fill:#25aedf;fill-opacity:1" d="M4.121 6.172H27.88a3.407 3.407 0 0 1 3.402 3.41v11.969a3.407 3.407 0 0 1-3.402 3.41H4.12a3.407 3.407 0 0 1-3.4-3.411V9.582a3.407 3.407 0 0 1 3.402-3.41zm0 0"/><path style="stroke:none;fill-rule:nonzero;fill:#25aedf;fill-opacity:1" d="M4.121 10.559H27.88a3.407 3.407 0 0 1 3.402 3.41v11.969a3.407 3.407 0 0 1-3.402 3.41H4.12a3.407 3.407 0 0 1-3.402-3.41v-11.97a3.407 3.407 0 0 1 3.402-3.41zm0 0"/><path style="stroke:none;fill-rule:evenodd;fill:#fff;fill-opacity:1" d="m11.793 16.941.652.004.434.867-1.52-.007zm0 8.419h.648l.43-.864H11.36zm3.547-6.485.32.578-.37.703-.75-1.351zm-6.774 3.973.329.582.804.066-.761-1.355zm7.094-.004-.32.582-.8.074.745-1.36zm-6.754-3.981-.324.575.363.703.758-1.34zm0 0"/><path style="stroke:none;fill-rule:nonzero;fill:#fff;fill-opacity:1" d="M12.113 17.797a3.21 3.21 0 0 0-2.285.984 3.43 3.43 0 0 0 0 4.735 3.21 3.21 0 0 0 2.285.98 3.22 3.22 0 0 0 2.29-.98c.6-.618.949-1.493.949-2.368 0-.878-.348-1.75-.95-2.37a3.23 3.23 0 0 0-2.289-.981zm0 1.34a1.93 1.93 0 0 1 1.375.59c.36.37.57.894.57 1.421 0 .528-.21 1.047-.57 1.422-.36.371-.863.586-1.375.586a1.93 1.93 0 0 1-1.37-.586 2.067 2.067 0 0 1 0-2.844c.359-.37.862-.59 1.37-.59zm0 0"/><path style="stroke:none;fill-rule:evenodd;fill:#fff;fill-opacity:1" d="m18.219 9.484.867.008.578 1.203-2.023-.011zm0 11.7h.863l.578-1.2h-2.02zm4.734-9.012.426.805-.496.972-1-1.875zm-9.039 5.519.434.809 1.078.094-1.016-1.883zm9.465-.007-.426.808-1.074.106 1-1.891zm-9.016-5.528-.43.797.485.977 1.012-1.864zm0 0"/><path style="stroke:none;fill-rule:nonzero;fill:#fff;fill-opacity:1" d="M18.648 10.676c-1.132 0-2.253.5-3.054 1.363-.797.863-1.262 2.074-1.262 3.29 0 1.218.465 2.429 1.262 3.292.8.86 1.922 1.363 3.054 1.363 1.13 0 2.254-.504 3.051-1.363.801-.863 1.266-2.074 1.266-3.293 0-1.219-.465-2.43-1.266-3.289-.797-.863-1.922-1.363-3.05-1.363zm0 1.863c.676 0 1.352.3 1.832.816a2.93 2.93 0 0 1 .758 1.973 2.94 2.94 0 0 1-.758 1.977 2.539 2.539 0 0 1-1.832.816c-.68 0-1.351-.3-1.832-.816a2.94 2.94 0 0 1-.757-1.977c0-.73.277-1.457.757-1.973a2.532 2.532 0 0 1 1.832-.816zm0 0"/></svg>