<svg xmlns="http://www.w3.org/2000/svg" width="32" height="32"><path style="fill-rule:nonzero;fill:#ccc;fill-opacity:1;stroke-width:1;stroke-linecap:butt;stroke-linejoin:miter;stroke:#3b3434;stroke-opacity:1;stroke-miterlimit:4" d="M309.875 42.438c-22.688 0-41.438 20.937-45.125 48.562h179.813c-3.688-27.625-22.375-48.563-45.125-48.563zm0 0" transform="scale(.0625)"/><path style="stroke:none;fill-rule:nonzero;fill:#25aedf;fill-opacity:1" d="M4.121 6.172H27.88a3.407 3.407 0 0 1 3.402 3.41v11.969a3.407 3.407 0 0 1-3.402 3.41H4.12a3.407 3.407 0 0 1-3.4-3.411V9.582a3.407 3.407 0 0 1 3.402-3.41zm0 0"/><path style="stroke:none;fill-rule:nonzero;fill:#25aedf;fill-opacity:1" d="M4.121 10.559H27.88a3.407 3.407 0 0 1 3.402 3.41v11.969a3.407 3.407 0 0 1-3.402 3.41H4.12a3.407 3.407 0 0 1-3.402-3.41v-11.97a3.407 3.407 0 0 1 3.402-3.41zm0 0"/><path style="stroke:none;fill-rule:nonzero;fill:#fff;fill-opacity:1" d="M24.746 17.188 16.81 9.25a1.172 1.172 0 0 0-1.657 0l-1.648 1.648 2.094 2.09a1.392 1.392 0 0 1 1.757 1.774l2.016 2.015a1.394 1.394 0 0 1 1.442 2.301 1.398 1.398 0 0 1-1.973 0 1.4 1.4 0 0 1-.3-1.515l-1.88-1.88-.004 4.946a1.393 1.393 0 1 1-1.145-.04v-4.991a1.396 1.396 0 0 1-.754-1.828l-2.062-2.063-5.441 5.445a1.166 1.166 0 0 0 0 1.657l7.937 7.937c.457.457 1.2.457 1.657 0l7.898-7.902c.461-.457.461-1.2 0-1.657"/></svg>