<svg xmlns="http://www.w3.org/2000/svg" width="32" height="32"><path style="fill-rule:nonzero;fill:#ccc;fill-opacity:1;stroke-width:1;stroke-linecap:butt;stroke-linejoin:miter;stroke:#3b3434;stroke-opacity:1;stroke-miterlimit:4" d="M309.875 42.438c-22.688 0-41.438 20.937-45.125 48.562h179.813c-3.688-27.625-22.375-48.563-45.125-48.563zm0 0" transform="scale(.0625)"/><path style="stroke:none;fill-rule:nonzero;fill:#25aedf;fill-opacity:1" d="M4.121 6.172H27.88a3.407 3.407 0 0 1 3.402 3.41v11.969a3.407 3.407 0 0 1-3.402 3.41H4.12a3.407 3.407 0 0 1-3.4-3.411V9.582a3.407 3.407 0 0 1 3.402-3.41zm0 0"/><path style="stroke:none;fill-rule:nonzero;fill:#25aedf;fill-opacity:1" d="M4.121 10.559H27.88a3.407 3.407 0 0 1 3.402 3.41v11.969a3.407 3.407 0 0 1-3.402 3.41H4.12a3.407 3.407 0 0 1-3.402-3.41v-11.97a3.407 3.407 0 0 1 3.402-3.41zm0 0"/><path style="stroke:none;fill-rule:evenodd;fill:#fff;fill-opacity:1" d="M9.082 11.18v13.312l4.688-6.656zm0 0 6.203 7.543.477.578.476-.578 6.203-7.543zm13.359 0-4.687 6.656 4.687 6.656zm0 0"/><path style="stroke:none;fill-rule:evenodd;fill:#fff;fill-opacity:1" d="M14.512 18.887 9.16 24.492h13.203l-5.351-5.605-1.25 1.496zm0 0"/></svg>