<svg xmlns="http://www.w3.org/2000/svg" width="32" height="32"><path style="stroke:none;fill-rule:nonzero;fill:#3ecdf6;fill-opacity:1" d="M1.543 3.48a.48.48 0 0 0-.48.48v24.095c0 .265.214.48.48.48h28.914a.48.48 0 0 0 .48-.48V3.96a.48.48 0 0 0-.48-.48zm0 0"/><path style="stroke:none;fill-rule:nonzero;fill:#0055d4;fill-opacity:1" d="M1.063 3.578v2.098c0 .39.214.703.48.703h28.914c.266 0 .48-.313.48-.703V3.578zm0 0"/><path style="stroke:none;fill-rule:nonzero;fill:#fff;fill-opacity:1" d="M29.492 4.668a.24.24 0 1 0-.48 0 .24.24 0 1 0 .48 0zm-1.445 0a.24.24 0 1 0-.48 0 .24.24 0 1 0 .48 0zm-1.445 0a.24.24 0 1 0-.48 0 .24.24 0 1 0 .48 0zm0 0"/><path style="stroke:none;fill-rule:nonzero;fill:#a6e7f3;fill-opacity:1" d="M1.063 3.945a.48.48 0 0 1 .48-.48h28.914a.48.48 0 0 1 .48.48zm0 0"/><path style="stroke:none;fill-rule:nonzero;fill:#fff;fill-opacity:1" d="M2.027 4.668a.243.243 0 0 0-.242-.242.243.243 0 0 0-.242.242c0 .133.11.242.242.242.133 0 .242-.11.242-.242zm.961 0a.24.24 0 1 0-.48 0c0 .133.11.242.242.242a.24.24 0 0 0 .238-.242zm0 0"/><path style="fill-rule:nonzero;fill:#ccc;fill-opacity:1;stroke-width:1;stroke-linecap:butt;stroke-linejoin:miter;stroke:#3b3434;stroke-opacity:1;stroke-miterlimit:4" d="M97.438 127.063c-2.938 0-5.376 2.687-5.813 6.25h23.125c-.438-3.563-2.875-6.25-5.813-6.25zm0 0" transform="scale(.0625)"/><path style="stroke:none;fill-rule:nonzero;fill:#25aedf;fill-opacity:1" d="M4.125 8.395h3.059a.44.44 0 0 1 .441.437v1.535c0 .242-.2.442-.441.442H4.125a.44.44 0 0 1-.438-.442V8.832c0-.242.196-.437.438-.437zm0 0"/><path style="stroke:none;fill-rule:nonzero;fill:#25aedf;fill-opacity:1" d="M4.125 8.957h3.059a.44.44 0 0 1 .441.438v1.539a.44.44 0 0 1-.441.437H4.125a.437.437 0 0 1-.438-.437v-1.54c0-.242.196-.437.438-.437zm0 0"/><path style="fill-rule:nonzero;fill:#ccc;fill-opacity:1;stroke-width:1;stroke-linecap:butt;stroke-linejoin:miter;stroke:#3b3434;stroke-opacity:1;stroke-miterlimit:4" d="M97.438 204.375c-2.938 0-5.376 2.688-5.813 6.25h23.125c-.438-3.563-2.875-6.25-5.813-6.25zm0 0" transform="scale(.0625)"/><path style="stroke:none;fill-rule:nonzero;fill:#25aedf;fill-opacity:1" d="M4.125 13.227h3.059a.44.44 0 0 1 .441.437v1.54a.44.44 0 0 1-.441.437H4.125a.437.437 0 0 1-.438-.438v-1.539c0-.242.196-.437.438-.437zm0 0"/><path style="stroke:none;fill-rule:nonzero;fill:#25aedf;fill-opacity:1" d="M4.125 13.79h3.059a.44.44 0 0 1 .441.437v1.539a.44.44 0 0 1-.441.437H4.125a.437.437 0 0 1-.438-.437v-1.54c0-.242.196-.437.438-.437zm0 0"/></svg>