<svg xmlns="http://www.w3.org/2000/svg" width="32" height="32"><path style="stroke:none;fill-rule:nonzero;fill:#fff;fill-opacity:1" d="M31.43 16c0 8.309-6.586 15.129-14.89 15.418-8.307.293-15.35-6.047-15.93-14.336C.026 8.789 6.116 1.532 14.382.656c8.262-.87 15.734 4.961 16.894 13.188"/><path style="stroke:none;fill-rule:evenodd;fill:#35c770;fill-opacity:1" d="M16.016 5.703c-.055 0-.114 0-.168.004-1.739.137-2.715 2.254-1.985 4.578-.886-1.496-2.043-2.64-3.504-2.629-.117 0-.238.008-.359.024-1.746.234-1.992 2.43-.16 3.453a9.74 9.74 0 0 1 1.168.789c-.637-.356-1.285-.578-1.914-.578-.426 0-.84.101-1.239.332-1.265.742-.835 2.453.778 2.797-.43.109-.82.324-1.149.668-1.023 1.082-.02 2.652 1.723 2.351a6.88 6.88 0 0 1 .496-.062c-.418.187-.754.48-.96.914-.516 1.058.616 2.004 1.862 1.36.97-.5 2.235-.735 3.32-.852l.177.097-.192.106v.004l.274.457-.274.457v.004l.192.105-.192.105.274.461-.274.457.192.106-.192.11.274.456-.274.461.192.106-.192.105v.004l.274.457-.274.457v.004l.192.106-.192.105v.004l.274.457-.274.457v.004l.192.105-.192.106v.004l.274.457-.274.457v.004l.192.105-.192.106.274.46-.04.067h3.66l-.038-.066.273-.461-.191-.106.191-.105v-.004l-.273-.457.273-.457v-.004l-.191-.106.191-.105V24.5l-.273-.457.273-.457v-.004l-.191-.105.191-.106v-.004l-.273-.457.273-.457v-.004l-.191-.105.191-.106-.273-.46.273-.458-.191-.11.191-.105-.273-.457.273-.46-.191-.106.191-.105v-.004l-.273-.457.273-.457v-.004l-.191-.106.187-.105c1.094.117 2.38.351 3.36.86 1.246.644 2.378-.302 1.863-1.36-.207-.434-.543-.727-.961-.918.168.02.332.039.496.066 1.742.301 2.746-1.27 1.723-2.351a2.366 2.366 0 0 0-1.149-.668c1.613-.344 2.043-2.055.778-2.797-.98-.57-2.082-.352-3.149.246.379-.297.77-.567 1.164-.79 1.832-1.023 1.59-3.218-.16-3.452-1.734-.23-3.066 1.148-4.043 2.918.832-2.82-.316-4.883-1.941-4.895zm0 0"/><path style="stroke:none;fill-rule:evenodd;fill:#3ac5e6;fill-opacity:1" d="M10.457 2.598A14.471 14.471 0 0 0 1.531 15.96c.008 7.445 5.664 13.672 13.078 14.387v-2.785A11.693 11.693 0 0 1 4.305 15.96c.004-4.3 2.367-8.25 6.152-10.29zm11.086.011v3.055a11.696 11.696 0 0 1 6.152 10.297 11.696 11.696 0 0 1-10.304 11.598v2.8c7.418-.714 13.078-6.949 13.078-14.398a14.463 14.463 0 0 0-8.926-13.352zm0 0"/></svg>