<svg xmlns="http://www.w3.org/2000/svg" width="32" height="32"><path style="fill-rule:nonzero;fill:#fff;fill-opacity:1;stroke-width:2.611469;stroke-linecap:butt;stroke-linejoin:miter;stroke:#999;stroke-opacity:1;stroke-miterlimit:4" d="M7.834 1006.975h32.332a5.221 5.221 0 0 1 5.22 5.221v32.332a5.221 5.221 0 0 1-5.22 5.22H7.834a5.221 5.221 0 0 1-5.22-5.22v-32.332a5.221 5.221 0 0 1 5.22-5.22zm0 0" transform="translate(0 -669.575) scale(.66667)"/><path style="stroke:none;fill-rule:nonzero;fill:#999;fill-opacity:1" d="M22.18 12.719c0-4.418-2.797-7.996-6.246-7.996-3.45 0-6.246 3.578-6.246 7.996 0 4.414 2.796 7.992 6.246 7.992 3.449 0 6.246-3.578 6.246-7.992zm0 0"/><path style="stroke:none;fill-rule:nonzero;fill:#999;fill-opacity:1" d="M21.41 19.828c-1.098 2.559-3.195 4.149-5.476 4.149-2.278-.004-4.371-1.59-5.47-4.145-4.859 1.695-8.081 5.488-8.284 9.75h27.5c-.196-4.262-3.414-8.05-8.27-9.754zm0 0"/></svg>