
<svg xmlns="http://www.w3.org/2000/svg" xmlns:xlink="http://www.w3.org/1999/xlink" width="32px" height="32px" viewBox="0 0 32 32" version="1.1">
<g id="surface1">
<path style="fill-rule:nonzero;fill:rgb(100%,100%,100%);fill-opacity:1;stroke-width:25.317125;stroke-linecap:butt;stroke-linejoin:miter;stroke:rgb(60.784316%,61.56863%,65.098041%);stroke-opacity:1;stroke-miterlimit:4;" d="M 119.668817 38.320075 L 433.098838 38.320075 C 461.09963 38.320075 483.735001 61.011335 483.735001 88.956237 L 483.735001 402.386258 C 483.735001 430.38705 461.09963 453.022421 433.098838 453.022421 L 119.668817 453.022421 C 91.723915 453.022421 69.032654 430.38705 69.032654 402.386258 L 69.032654 88.956237 C 69.032654 61.011335 91.723915 38.320075 119.668817 38.320075 Z M 119.668817 38.320075 " transform="matrix(0.069892,0,0,0.069892,-3.317018,-1.170454)"/>
<path style="fill-rule:evenodd;fill:rgb(37.254903%,87.450981%,88.235295%);fill-opacity:1;stroke-width:10.423985;stroke-linecap:butt;stroke-linejoin:miter;stroke:rgb(100%,100%,100%);stroke-opacity:1;stroke-miterlimit:4;" d="M 75.472226 147.203134 L 378.593528 147.189612 L 378.592675 378.936334 L 75.471373 378.949856 Z M 75.472226 147.203134 " transform="matrix(0.068906,-0.0116981,0.0116981,0.068906,-3.317018,-1.170454)"/>
<path style=" stroke:none;fill-rule:nonzero;fill:rgb(28.235295%,28.235295%,29.803923%);fill-opacity:1;" d="M 10.75 22.914062 C 10.726562 20.796875 10.71875 18.261719 10.726562 17.285156 L 10.746094 15.507812 L 16.679688 15.492188 C 19.945312 15.484375 24.011719 15.492188 25.71875 15.515625 L 28.816406 15.554688 L 28.816406 26.773438 L 10.789062 26.773438 Z M 10.75 22.914062 "/>
<path style="fill-rule:evenodd;fill:rgb(28.235295%,28.235295%,29.803923%);fill-opacity:1;stroke-width:19.656656;stroke-linecap:round;stroke-linejoin:miter;stroke:rgb(100%,100%,100%);stroke-opacity:1;stroke-miterlimit:4;" d="M 426.7274 321.122483 C 426.7274 345.993446 406.551181 366.225555 381.624329 366.225555 C 356.697476 366.225555 336.521257 345.993446 336.521257 321.122483 C 336.521257 296.195631 356.697476 275.963521 381.624329 275.963521 C 406.551181 275.963521 426.7274 296.195631 426.7274 321.122483 Z M 426.7274 321.122483 " transform="matrix(0.069892,0,0,0.069892,-3.317018,-1.170454)"/>
</g>
</svg>
