
<svg xmlns="http://www.w3.org/2000/svg" xmlns:xlink="http://www.w3.org/1999/xlink" width="32px" height="32px" viewBox="0 0 32 32" version="1.1">
<g id="surface1">
<path style="fill-rule:nonzero;fill:rgb(100%,100%,100%);fill-opacity:1;stroke-width:27.910587;stroke-linecap:butt;stroke-linejoin:miter;stroke:rgb(9.019608%,36.862746%,60.000002%);stroke-opacity:1;stroke-miterlimit:4;" d="M 84.918052 32.925085 L 430.465533 32.925085 C 461.278268 32.925085 486.268638 57.915456 486.268638 88.79361 L 486.268638 434.341091 C 486.268638 465.153826 461.278268 490.144197 430.465533 490.144197 L 84.918052 490.144197 C 54.039898 490.144197 29.049527 465.153826 29.049527 434.341091 L 29.049527 88.79361 C 29.049527 57.915456 54.039898 32.925085 84.918052 32.925085 Z M 84.918052 32.925085 " transform="matrix(0.0597105,0,0,0.0597105,0.613095,0.381683)"/>
<path style=" stroke:none;fill-rule:nonzero;fill:rgb(29.019609%,68.235296%,90.980393%);fill-opacity:1;" d="M 6.179688 3.1875 C 4.992188 3.195312 4.078125 4.445312 4.25 5.660156 C 4.257812 12.75 4.242188 19.835938 4.257812 26.921875 C 4.347656 28.121094 5.492188 28.976562 6.59375 28.8125 C 13.410156 28.808594 20.226562 28.828125 27.039062 28.804688 C 28.183594 28.714844 28.988281 27.503906 28.835938 26.339844 C 28.835938 21.992188 28.835938 17.648438 28.835938 13.304688 C 28.375 12.21875 27.265625 11.5625 26.550781 10.648438 C 24.203125 8.214844 21.878906 5.757812 19.515625 3.335938 C 18.859375 3.039062 18.101562 3.25 17.398438 3.1875 C 13.65625 3.1875 9.921875 3.1875 6.179688 3.1875 Z M 22.199219 3.1875 C 21.746094 3.222656 21.726562 3.882812 22.09375 4.074219 C 24.144531 6.191406 26.164062 8.347656 28.226562 10.445312 C 28.628906 10.667969 28.957031 10.160156 28.835938 9.773438 C 28.808594 8.140625 28.890625 6.5 28.789062 4.875 C 28.609375 3.726562 27.46875 3.03125 26.421875 3.1875 C 25.015625 3.1875 23.605469 3.1875 22.199219 3.1875 Z M 22.199219 3.1875 "/>
<path style=" stroke:none;fill-rule:nonzero;fill:rgb(9.019608%,36.862746%,60.000002%);fill-opacity:1;" d="M 2.914062 2.609375 L 7.820312 2.609375 L 7.820312 29.074219 L 2.914062 29.074219 Z M 2.914062 2.609375 "/>
<path style=" stroke:none;fill-rule:nonzero;fill:rgb(100%,100%,100%);fill-opacity:1;" d="M 12.882812 23.644531 L 13.921875 23.644531 L 16.507812 15.121094 L 19.140625 23.644531 L 20.203125 23.644531 L 22.679688 14.035156 L 23.71875 13.816406 L 23.71875 13.191406 L 20.5 13.191406 L 20.5 13.816406 L 21.539062 14.003906 L 21.710938 14.222656 L 19.828125 21.527344 L 17.273438 13.191406 L 16.179688 13.191406 L 13.671875 21.355469 L 11.664062 14.160156 L 11.789062 13.941406 L 12.773438 13.816406 L 12.773438 13.191406 L 9.28125 13.191406 L 9.28125 13.816406 L 10.265625 14.035156 Z M 12.882812 23.644531 "/>
</g>
</svg>
