
<svg xmlns="http://www.w3.org/2000/svg" xmlns:xlink="http://www.w3.org/1999/xlink" width="32px" height="32px" viewBox="0 0 32 32" version="1.1">
<g id="surface1">
<path style="fill-rule:nonzero;fill:rgb(100%,100%,100%);fill-opacity:1;stroke-width:6.815335;stroke-linecap:butt;stroke-linejoin:miter;stroke:rgb(60.784316%,34.901962%,71.372551%);stroke-opacity:1;stroke-miterlimit:4;" d="M 20.745004 935.015869 L 105.120004 935.015869 C 112.651254 935.015869 118.745004 941.125244 118.745004 948.656494 L 118.745004 1033.031494 C 118.745004 1040.562744 112.651254 1046.656494 105.120004 1046.656494 L 20.745004 1046.656494 C 13.213754 1046.656494 7.104379 1040.562744 7.104379 1033.031494 L 7.104379 948.656494 C 7.104379 941.125244 13.213754 935.015869 20.745004 935.015869 Z M 20.745004 935.015869 " transform="matrix(0.25,0,0,0.25,0.266874,-231.710999)"/>
<path style=" stroke:none;fill-rule:nonzero;fill:rgb(60.784316%,34.901962%,71.372551%);fill-opacity:1;" d="M 21.464844 13.316406 C 21.464844 9.992188 17.789062 7.296875 13.25 7.296875 C 8.710938 7.296875 5.03125 9.992188 5.03125 13.316406 C 5.03125 15.363281 6.433594 17.160156 8.5625 18.25 L 6.523438 22.128906 L 10.945312 19.070312 C 11.679688 19.226562 12.445312 19.339844 13.25 19.339844 C 17.789062 19.339844 21.464844 16.640625 21.464844 13.316406 Z M 10.671875 13.96875 L 8.9375 13.96875 L 8.9375 12.234375 L 10.671875 12.234375 Z M 15.9375 12.234375 L 17.671875 12.234375 L 17.671875 13.96875 L 15.9375 13.96875 Z M 12.4375 12.234375 L 14.171875 12.234375 L 14.171875 13.96875 L 12.4375 13.96875 Z M 12.4375 12.234375 "/>
<path style=" stroke:none;fill-rule:nonzero;fill:rgb(26.666668%,8.627451%,31.37255%);fill-opacity:1;" d="M 26.84375 17.105469 C 26.84375 14.921875 25.160156 13.027344 22.695312 12.074219 C 22.816406 12.523438 22.882812 12.988281 22.882812 13.46875 C 22.882812 17.40625 18.53125 20.601562 13.152344 20.601562 C 13.085938 20.601562 13.023438 20.585938 12.957031 20.585938 C 14.375 21.925781 16.589844 22.789062 19.082031 22.789062 C 19.84375 22.789062 20.5625 22.6875 21.257812 22.539062 L 25.4375 25.421875 L 23.507812 21.765625 C 25.523438 20.734375 26.84375 19.035156 26.84375 17.105469 Z M 26.84375 17.105469 "/>
<path style=" stroke:none;fill-rule:nonzero;fill:rgb(100%,100%,100%);fill-opacity:1;" d="M 8.9375 13.125 L 8.9375 12.28125 L 10.625 12.28125 L 10.625 13.96875 L 8.9375 13.96875 Z M 8.9375 13.125 "/>
<path style=" stroke:none;fill-rule:nonzero;fill:rgb(100%,100%,100%);fill-opacity:1;" d="M 12.441406 13.125 L 12.441406 12.28125 L 14.128906 12.28125 L 14.128906 13.96875 L 12.441406 13.96875 Z M 12.441406 13.125 "/>
<path style=" stroke:none;fill-rule:nonzero;fill:rgb(100%,100%,100%);fill-opacity:1;" d="M 15.945312 13.125 L 15.945312 12.28125 L 17.632812 12.28125 L 17.632812 13.96875 L 15.945312 13.96875 Z M 15.945312 13.125 "/>
</g>
</svg>
