
<svg xmlns="http://www.w3.org/2000/svg" xmlns:xlink="http://www.w3.org/1999/xlink" width="32px" height="32px" viewBox="0 0 32 32" version="1.1">
<g id="surface1">
<path style="fill-rule:nonzero;fill:rgb(26.274511%,23.529412%,23.529412%);fill-opacity:1;stroke-width:33.936001;stroke-linecap:butt;stroke-linejoin:miter;stroke:rgb(32.941177%,42.352942%,44.313726%);stroke-opacity:1;stroke-miterlimit:4;" d="M 85.455355 32.214368 L 564.544891 32.214368 C 590.252908 32.214368 611.120836 53.082295 611.120836 78.790313 L 611.120836 571.209932 C 611.120836 596.91795 590.252908 617.785878 564.544891 617.785878 L 85.455355 617.785878 C 59.667991 617.785878 38.800063 596.91795 38.800063 571.209932 L 38.800063 78.790313 C 38.800063 53.082295 59.667991 32.214368 85.455355 32.214368 Z M 85.455355 32.214368 " transform="matrix(0.0492308,0,0,0.0492308,0,0)"/>
<path style="fill-rule:nonzero;fill:rgb(100%,100%,100%);fill-opacity:1;stroke-width:1;stroke-linecap:butt;stroke-linejoin:miter;stroke:rgb(91.37255%,67.058825%,11.372549%);stroke-opacity:1;stroke-miterlimit:4;" d="M 553.119105 322.778442 C 553.119105 447.58928 451.953296 548.675744 327.142457 548.675744 C 202.410965 548.675744 101.245155 447.58928 101.245155 322.778442 C 101.245155 198.04695 202.410965 96.88114 327.142457 96.88114 C 451.953296 96.88114 553.119105 198.04695 553.119105 322.778442 Z M 553.119105 322.778442 " transform="matrix(0.0492308,0,0,0.0492308,0,0)"/>
<path style=" stroke:none;fill-rule:nonzero;fill:rgb(26.274511%,23.529412%,23.529412%);fill-opacity:1;" d="M 14.894531 28.992188 C 9.207031 28.445312 4.574219 24.441406 3.265625 18.953125 C 2.996094 17.828125 2.929688 17.210938 2.929688 15.902344 C 2.929688 14.589844 2.996094 13.976562 3.265625 12.851562 C 4.410156 8.046875 8.183594 4.273438 12.988281 3.125 C 14.109375 2.859375 14.726562 2.789062 16.039062 2.789062 C 17.351562 2.789062 17.96875 2.859375 19.089844 3.125 C 23.894531 4.273438 27.667969 8.046875 28.8125 12.851562 C 29.078125 13.976562 29.148438 14.589844 29.148438 15.902344 C 29.148438 17.210938 29.078125 17.828125 28.8125 18.953125 C 27.5625 24.195312 23.269531 28.105469 17.886719 28.90625 C 17.171875 29.015625 15.570312 29.0625 14.894531 28.992188 Z M 10.570312 22.121094 C 11.296875 21.640625 11.902344 21.210938 11.914062 21.167969 C 11.925781 21.125 11.96875 20.910156 12.011719 20.6875 L 12.085938 20.289062 L 13.195312 19.171875 C 13.804688 18.5625 14.304688 18.03125 14.304688 17.992188 C 14.304688 17.90625 13.542969 17.148438 13.457031 17.148438 C 13.417969 17.148438 12.898438 17.640625 12.296875 18.238281 L 11.210938 19.328125 L 10.875 19.398438 C 10.132812 19.558594 10.304688 19.398438 9.328125 20.878906 C 8.84375 21.605469 8.445312 22.234375 8.433594 22.28125 C 8.402344 22.402344 9.03125 23.039062 9.15625 23.015625 C 9.207031 23.007812 9.84375 22.601562 10.570312 22.121094 Z M 21.691406 22.945312 C 22.234375 22.773438 22.703125 22.359375 22.960938 21.824219 C 23.09375 21.546875 23.097656 21.507812 23.097656 20.976562 C 23.097656 20.417969 23.097656 20.417969 22.921875 20.0625 C 22.757812 19.71875 22.679688 19.640625 19.085938 16.035156 L 15.421875 12.359375 L 15.421875 11.828125 C 15.421875 11.496094 15.398438 11.179688 15.355469 11 C 15.039062 9.648438 14.042969 8.664062 12.675781 8.351562 C 12.050781 8.203125 10.703125 8.355469 10.617188 8.582031 C 10.601562 8.628906 10.921875 8.976562 11.640625 9.703125 C 12.21875 10.28125 12.714844 10.8125 12.742188 10.882812 C 12.800781 11.042969 12.800781 11.273438 12.742188 11.429688 C 12.679688 11.597656 11.78125 12.503906 11.578125 12.609375 C 11.390625 12.703125 11.140625 12.71875 10.992188 12.644531 C 10.9375 12.617188 10.433594 12.136719 9.867188 11.578125 C 9.304688 11.015625 8.804688 10.554688 8.765625 10.554688 C 8.671875 10.554688 8.613281 10.695312 8.53125 11.128906 C 8.359375 12.011719 8.550781 12.921875 9.070312 13.699219 C 9.71875 14.679688 10.78125 15.234375 11.996094 15.234375 L 12.410156 15.234375 L 16.085938 18.910156 C 18.101562 20.929688 19.851562 22.648438 19.96875 22.722656 C 20.4375 23.023438 21.140625 23.117188 21.691406 22.945312 Z M 20.757812 21.9375 C 20.054688 21.617188 19.960938 20.664062 20.59375 20.238281 C 20.847656 20.0625 21.113281 20.019531 21.390625 20.101562 C 21.695312 20.195312 21.851562 20.328125 21.984375 20.601562 C 22.210938 21.0625 22.074219 21.570312 21.648438 21.851562 C 21.425781 22 20.992188 22.039062 20.757812 21.9375 Z M 20.902344 13.015625 C 23.226562 10.691406 23.140625 10.804688 23.140625 10.023438 C 23.140625 9.585938 23.132812 9.535156 23 9.257812 C 22.65625 8.570312 21.929688 8.1875 21.15625 8.292969 C 20.589844 8.371094 20.554688 8.402344 18.433594 10.507812 C 17.359375 11.574219 16.472656 12.484375 16.457031 12.53125 C 16.421875 12.640625 16.902344 13.140625 17.039062 13.140625 C 17.101562 13.140625 17.789062 12.480469 19.089844 11.179688 C 21.09375 9.171875 21.203125 9.078125 21.242188 9.351562 C 21.257812 9.4375 20.929688 9.78125 19.292969 11.421875 C 18.214844 12.503906 17.328125 13.414062 17.328125 13.453125 C 17.328125 13.523438 17.90625 14.117188 17.976562 14.117188 C 18 14.117188 18.914062 13.226562 20.003906 12.140625 C 21.09375 11.046875 22.007812 10.15625 22.039062 10.15625 C 22.105469 10.15625 22.226562 10.28125 22.226562 10.351562 C 22.226562 10.378906 21.355469 11.273438 20.289062 12.335938 C 19.222656 13.40625 18.328125 14.3125 18.304688 14.355469 C 18.269531 14.421875 18.3125 14.484375 18.539062 14.722656 C 18.6875 14.882812 18.835938 15.011719 18.863281 15.011719 C 18.890625 15.011719 19.808594 14.113281 20.902344 13.015625 Z M 20.902344 13.015625 "/>
</g>
</svg>
