
<svg xmlns="http://www.w3.org/2000/svg" xmlns:xlink="http://www.w3.org/1999/xlink" width="32px" height="32px" viewBox="0 0 32 32" version="1.1">
<g id="surface1">
<path style="fill-rule:nonzero;fill:rgb(97.647059%,97.647059%,97.647059%);fill-opacity:1;stroke-width:19.333;stroke-linecap:butt;stroke-linejoin:miter;stroke:rgb(13.333334%,21.176471%,33.725491%);stroke-opacity:1;stroke-miterlimit:4;" d="M 70.43749 641.519592 L 441.62499 641.519592 C 463.37499 641.519592 480.99999 659.144592 480.99999 680.957092 L 480.99999 1052.144592 C 480.99999 1073.894592 463.37499 1091.519592 441.62499 1091.519592 L 70.43749 1091.519592 C 48.62499 1091.519592 30.99999 1073.894592 30.99999 1052.144592 L 30.99999 680.957092 C 30.99999 659.144592 48.62499 641.519592 70.43749 641.519592 Z M 70.43749 641.519592 " transform="matrix(0.0625,0,0,0.0625,0.000000625,-38.157475)"/>
<path style=" stroke:none;fill-rule:evenodd;fill:rgb(13.333334%,21.176471%,33.725491%);fill-opacity:1;" d="M 8.710938 8.710938 C 8.710938 8.710938 23.289062 8.710938 23.289062 8.710938 L 23.289062 19.648438 L 20.164062 19.648438 L 20.164062 21.210938 L 18.601562 21.210938 L 18.601562 23.289062 L 13.398438 23.289062 L 13.398438 21.210938 L 11.835938 21.210938 L 11.835938 19.648438 L 8.710938 19.648438 Z M 8.710938 8.710938 "/>
<path style=" stroke:none;fill-rule:nonzero;fill:rgb(94.509804%,79.607844%,42.745098%);fill-opacity:1;" d="M 10.789062 8.710938 L 10.789062 11.3125 L 11.835938 11.3125 L 11.835938 8.710938 Z M 13.914062 8.710938 L 13.914062 11.3125 L 14.960938 11.3125 L 14.960938 8.710938 Z M 17.039062 8.710938 L 17.039062 11.3125 L 18.085938 11.3125 L 18.085938 8.710938 Z M 20.164062 8.710938 L 20.164062 11.3125 L 21.210938 11.3125 L 21.210938 8.710938 Z M 20.164062 8.710938 "/>
<path style=" stroke:none;fill-rule:nonzero;fill:rgb(58.431375%,64.705884%,65.098041%);fill-opacity:1;" d="M 7.148438 7.148438 L 7.148438 21.210938 L 10.789062 21.210938 L 10.789062 23.289062 L 12.351562 23.289062 L 12.351562 24.851562 L 19.648438 24.851562 L 19.648438 23.289062 L 21.210938 23.289062 L 21.210938 21.210938 L 24.851562 21.210938 L 24.851562 7.148438 Z M 8.710938 8.710938 L 23.289062 8.710938 L 23.289062 19.648438 L 20.164062 19.648438 L 20.164062 21.210938 L 18.601562 21.210938 L 18.601562 23.289062 L 13.398438 23.289062 L 13.398438 21.210938 L 11.835938 21.210938 L 11.835938 19.648438 L 8.710938 19.648438 Z M 8.710938 8.710938 "/>
<path style=" stroke:none;fill-rule:nonzero;fill:rgb(96.862745%,87.058824%,63.921571%);fill-opacity:1;" d="M 10.789062 8.710938 L 10.789062 9.226562 L 11.835938 9.226562 L 11.835938 8.710938 Z M 13.914062 8.710938 L 13.914062 9.226562 L 14.960938 9.226562 L 14.960938 8.710938 Z M 17.039062 8.710938 L 17.039062 9.226562 L 18.085938 9.226562 L 18.085938 8.710938 Z M 20.164062 8.710938 L 20.164062 9.226562 L 21.210938 9.226562 L 21.210938 8.710938 Z M 20.164062 8.710938 "/>
<path style=" stroke:none;fill-rule:nonzero;fill:rgb(92.941177%,73.725492%,26.666668%);fill-opacity:1;" d="M 10.789062 10.789062 L 10.789062 11.3125 L 11.835938 11.3125 L 11.835938 10.789062 Z M 13.914062 10.789062 L 13.914062 11.3125 L 14.960938 11.3125 L 14.960938 10.789062 Z M 17.039062 10.789062 L 17.039062 11.3125 L 18.085938 11.3125 L 18.085938 10.789062 Z M 20.164062 10.789062 L 20.164062 11.3125 L 21.210938 11.3125 L 21.210938 10.789062 Z M 20.164062 10.789062 "/>
</g>
</svg>
