
<svg xmlns="http://www.w3.org/2000/svg" xmlns:xlink="http://www.w3.org/1999/xlink" width="32px" height="32px" viewBox="0 0 32 32" version="1.1">
<g id="surface1">
<path style="fill-rule:nonzero;fill:rgb(100%,100%,100%);fill-opacity:1;stroke-width:28.191782;stroke-linecap:butt;stroke-linejoin:miter;stroke:rgb(0.392157%,59.215689%,99.215686%);stroke-opacity:1;stroke-miterlimit:4;" d="M 148.691734 193.26059 L 497.754234 193.26059 C 528.879234 193.26059 554.129234 218.51059 554.129234 249.63559 L 554.129234 598.69809 C 554.129234 629.82309 528.879234 655.07309 497.754234 655.07309 L 148.691734 655.07309 C 117.566734 655.07309 92.316734 629.82309 92.316734 598.69809 L 92.316734 249.63559 C 92.316734 218.51059 117.566734 193.26059 148.691734 193.26059 Z M 148.691734 193.26059 " transform="matrix(0.0625,0,0,0.0625,-4.20339,-10.508474)"/>
<path style=" stroke:none;fill-rule:nonzero;fill:rgb(43.529412%,48.627451%,56.862748%);fill-opacity:1;" d="M 24.796875 19.71875 L 24.796875 19.007812 L 25.222656 18.683594 C 26.828125 17.246094 27.988281 15.414062 27.460938 13.25 C 26.945312 11.289062 25.4375 9.910156 23.011719 9.1875 C 20.667969 8.492188 17.503906 8.449219 14.320312 9.070312 C 12.078125 9.507812 9.71875 10.289062 7.828125 11.21875 C 7.09375 11.578125 6.40625 11.921875 6.476562 11.625 C 6.515625 11.445312 7.292969 10.972656 8.257812 10.453125 C 12.910156 7.953125 18.859375 7.074219 23.289062 8.242188 C 25.964844 9 28.277344 10.585938 28.875 13.414062 C 28.910156 13.585938 28.835938 13.339844 28.875 13.414062 C 29.367188 15.929688 27.917969 18.085938 26.164062 19.703125 C 25.820312 20.023438 24.9375 20.707031 24.820312 20.707031 C 24.765625 20.707031 24.796875 20.253906 24.796875 19.71875 Z M 24.796875 19.71875 "/>
<path style=" stroke:none;fill-rule:nonzero;fill:rgb(0.392157%,59.215689%,99.215686%);fill-opacity:1;" d="M 24.441406 9.613281 C 24.441406 8.144531 23.238281 6.953125 21.757812 6.953125 C 20.273438 6.953125 19.070312 8.144531 19.070312 9.613281 C 19.070312 11.082031 20.273438 12.273438 21.757812 12.273438 C 23.238281 12.273438 24.441406 11.082031 24.441406 9.613281 Z M 24.441406 9.613281 "/>
<path style=" stroke:none;fill-rule:evenodd;fill:rgb(32.549021%,40.392157%,42.352942%);fill-opacity:1;" d="M 21.738281 9.507812 L 21.820312 9.578125 C 22.09375 9.816406 22.121094 10.269531 21.890625 10.59375 L 18.578125 15.199219 C 18.34375 15.523438 17.9375 15.59375 17.667969 15.359375 L 17.582031 15.28125 C 17.3125 15.046875 17.28125 14.59375 17.515625 14.273438 L 20.828125 9.664062 C 21.0625 9.34375 21.46875 9.269531 21.738281 9.507812 Z M 21.738281 9.507812 "/>
<path style=" stroke:none;fill-rule:nonzero;fill:rgb(0.392157%,59.215689%,99.215686%);fill-opacity:1;" d="M 12.84375 9.03125 C 12.84375 7.203125 11.34375 5.722656 9.5 5.722656 C 7.65625 5.722656 6.160156 7.203125 6.160156 9.03125 C 6.160156 10.859375 7.65625 12.34375 9.5 12.34375 C 11.34375 12.34375 12.84375 10.859375 12.84375 9.03125 Z M 12.84375 9.03125 "/>
<path style=" stroke:none;fill-rule:evenodd;fill:rgb(32.549021%,40.392157%,42.352942%);fill-opacity:1;" d="M 9.773438 9.3125 L 9.796875 9.28125 C 10.046875 8.96875 10.46875 8.945312 10.742188 9.21875 L 14.972656 13.480469 C 15.246094 13.757812 15.265625 14.230469 15.023438 14.539062 L 14.996094 14.570312 C 14.75 14.882812 14.328125 14.910156 14.054688 14.632812 L 9.820312 10.375 C 9.546875 10.097656 9.527344 9.625 9.773438 9.3125 Z M 9.773438 9.3125 "/>
<path style=" stroke:none;fill-rule:nonzero;fill:rgb(0.392157%,59.215689%,99.215686%);fill-opacity:1;" d="M 20.441406 16.609375 C 20.441406 14.617188 18.8125 13 16.796875 13 C 14.785156 13 13.15625 14.617188 13.15625 16.609375 C 13.15625 18.605469 14.785156 20.222656 16.796875 20.222656 C 18.8125 20.222656 20.441406 18.605469 20.441406 16.609375 Z M 20.441406 16.609375 "/>
<path style=" stroke:none;fill-rule:evenodd;fill:rgb(32.549021%,40.392157%,42.352942%);fill-opacity:1;" d="M 15.621094 16.757812 C 15.8125 17.128906 15.667969 17.582031 15.296875 17.773438 L 11.28125 19.84375 C 10.914062 20.035156 10.460938 19.890625 10.269531 19.523438 C 10.078125 19.152344 10.226562 18.695312 10.59375 18.507812 L 14.609375 16.4375 C 14.976562 16.242188 15.429688 16.390625 15.621094 16.757812 Z M 15.621094 16.757812 "/>
<path style=" stroke:none;fill-rule:evenodd;fill:rgb(32.549021%,40.392157%,42.352942%);fill-opacity:1;" d="M 17.78125 17.90625 L 17.871094 17.851562 C 18.21875 17.648438 18.671875 17.761719 18.882812 18.109375 L 22.421875 23.953125 C 22.632812 24.304688 22.523438 24.753906 22.175781 24.960938 L 22.085938 25.015625 C 21.734375 25.21875 21.28125 25.105469 21.070312 24.757812 L 17.53125 18.914062 C 17.320312 18.566406 17.429688 18.117188 17.78125 17.90625 Z M 17.78125 17.90625 "/>
<path style=" stroke:none;fill-rule:nonzero;fill:rgb(0.392157%,59.215689%,99.215686%);fill-opacity:1;" d="M 24.171875 23.082031 C 24.171875 21.375 22.773438 19.992188 21.054688 19.992188 C 19.335938 19.992188 17.9375 21.375 17.9375 23.082031 C 17.9375 24.789062 19.335938 26.171875 21.054688 26.171875 C 22.773438 26.171875 24.171875 24.789062 24.171875 23.082031 Z M 24.171875 23.082031 "/>
<path style=" stroke:none;fill-rule:nonzero;fill:rgb(43.529412%,48.627451%,56.862748%);fill-opacity:1;" d="M 3.625 19.492188 C 3.28125 18.675781 3.09375 17.496094 3.171875 16.710938 C 3.289062 15.539062 3.742188 14.398438 4.507812 13.335938 C 4.804688 12.921875 5.742188 11.898438 5.820312 11.898438 C 5.847656 11.898438 5.867188 12.015625 5.867188 12.15625 C 5.867188 12.375 5.84375 12.4375 5.671875 12.640625 C 5.4375 12.929688 4.976562 13.625 4.796875 13.984375 C 4.257812 15.0625 4 16.34375 4.125 17.359375 C 4.25 18.402344 4.652344 19.242188 5.367188 19.953125 C 10.148438 23.554688 18.210938 22.140625 23.304688 19.726562 C 23.78125 19.492188 24.179688 19.304688 24.1875 19.304688 C 24.195312 19.304688 24.207031 19.710938 24.207031 20.203125 L 24.207031 21.09375 L 23.796875 21.300781 C 18.578125 23.679688 6.539062 25.945312 3.625 19.492188 Z M 3.625 19.492188 "/>
<path style=" stroke:none;fill-rule:nonzero;fill:rgb(0.392157%,59.215689%,99.215686%);fill-opacity:1;" d="M 12.492188 19.6875 C 12.492188 18.109375 11.203125 16.828125 9.609375 16.828125 C 8.015625 16.828125 6.726562 18.109375 6.726562 19.6875 C 6.726562 21.265625 8.015625 22.546875 9.609375 22.546875 C 11.203125 22.546875 12.492188 21.265625 12.492188 19.6875 Z M 12.492188 19.6875 "/>
</g>
</svg>
