
<svg xmlns="http://www.w3.org/2000/svg" xmlns:xlink="http://www.w3.org/1999/xlink" width="32px" height="32px" viewBox="0 0 32 32" version="1.1">
<g id="surface1">
<path style="fill-rule:nonzero;fill:rgb(30.19608%,30.19608%,30.19608%);fill-opacity:1;stroke-width:2.429905;stroke-linecap:butt;stroke-linejoin:miter;stroke:rgb(91.37255%,67.058825%,11.372549%);stroke-opacity:1;stroke-miterlimit:4;" d="M 6.849611 3.035157 L 41.1504 3.035157 C 42.996104 3.035157 44.490245 4.529298 44.490245 6.369142 L 44.490245 41.62501 C 44.490245 43.470713 42.996104 44.964854 41.1504 44.964854 L 6.849611 44.964854 C 5.003907 44.964854 3.509766 43.470713 3.509766 41.62501 L 3.509766 6.369142 C 3.509766 4.529298 5.003907 3.035157 6.849611 3.035157 Z M 6.849611 3.035157 " transform="matrix(0.666667,0,0,0.666667,0,0)"/>
<path style="fill-rule:evenodd;fill:rgb(100%,100%,100%);fill-opacity:1;stroke-width:4.759072;stroke-linecap:butt;stroke-linejoin:miter;stroke:rgb(100%,100%,100%);stroke-opacity:1;stroke-miterlimit:4;" d="M 20.958666 5.072561 L 37.828159 5.071618 C 38.756273 5.07164 39.503742 5.82373 39.50372 6.751844 L 39.502139 27.188863 C 39.507778 28.115461 38.757205 28.868589 37.82909 28.868568 L 20.958081 28.863851 C 20.031483 28.869489 19.284014 28.1174 19.284036 27.189285 L 19.27844 6.748123 C 19.279978 5.825668 20.030551 5.07254 20.958666 5.072561 Z M 20.958666 5.072561 " transform="matrix(0.643951,0.172546,-0.172546,0.643951,0,0)"/>
<path style=" stroke:none;fill-rule:evenodd;fill:rgb(87.843138%,27.450982%,7.450981%);fill-opacity:1;" d="M 16.726562 12.90625 C 18.867188 10.578125 22.476562 13.125 21.402344 15.574219 C 20.339844 18 16.070312 20.34375 14.722656 20.585938 C 13.601562 19.65625 11.164062 15.5625 11.507812 12.945312 C 11.859375 10.226562 15.746094 9.734375 16.726562 12.90625 Z M 16.726562 12.90625 "/>
<path style=" stroke:none;fill-rule:evenodd;fill:rgb(87.843138%,27.450982%,7.450981%);fill-opacity:1;" d="M 13.265625 8.59375 C 13.6875 8.140625 14.398438 8.640625 14.1875 9.121094 C 13.976562 9.601562 13.136719 10.0625 12.875 10.109375 C 12.652344 9.925781 12.171875 9.117188 12.238281 8.601562 C 12.308594 8.070312 13.074219 7.96875 13.265625 8.59375 Z M 13.265625 8.59375 "/>
<path style=" stroke:none;fill-rule:evenodd;fill:rgb(87.843138%,27.450982%,7.450981%);fill-opacity:1;" d="M 18.699219 23.394531 C 18.835938 24 19.703125 23.921875 19.757812 23.398438 C 19.820312 22.882812 19.320312 22.0625 19.113281 21.886719 C 18.828125 21.9375 18.011719 22.394531 17.8125 22.875 C 17.605469 23.375 18.21875 23.839844 18.699219 23.394531 Z M 18.699219 23.394531 "/>
</g>
</svg>
