
<svg xmlns="http://www.w3.org/2000/svg" xmlns:xlink="http://www.w3.org/1999/xlink" width="32px" height="32px" viewBox="0 0 32 32" version="1.1">
<g id="surface1">
<path style="fill-rule:nonzero;fill:rgb(100%,100%,100%);fill-opacity:1;stroke-width:3.131993;stroke-linecap:butt;stroke-linejoin:miter;stroke:rgb(27.058825%,27.058825%,27.058825%);stroke-opacity:0.627451;stroke-miterlimit:4;" d="M 9.890625 4.976562 L 54.109375 4.976562 C 56.484375 4.976562 58.40625 6.898438 58.40625 9.273438 L 58.40625 54.71875 C 58.40625 57.09375 56.484375 59.023438 54.109375 59.023438 L 9.890625 59.023438 C 7.515625 59.023438 5.585938 57.09375 5.585938 54.71875 L 5.585938 9.273438 C 5.585938 6.898438 7.515625 4.976562 9.890625 4.976562 Z M 9.890625 4.976562 " transform="matrix(0.5,0,0,0.5,0,0)"/>
<path style="fill-rule:nonzero;fill:rgb(100%,100%,100%);fill-opacity:1;stroke-width:3.131993;stroke-linecap:butt;stroke-linejoin:miter;stroke:rgb(27.058825%,27.058825%,27.058825%);stroke-opacity:0.627451;stroke-miterlimit:4;" d="M 9.890625 4.976562 C 7.515625 4.976562 5.585938 6.898438 5.585938 9.273438 L 5.585938 54.71875 C 5.585938 57.09375 7.515625 59.023438 9.890625 59.023438 L 54.101562 59.023438 C 56.484375 59.023438 58.40625 57.09375 58.40625 54.71875 L 58.40625 9.273438 C 58.40625 6.898438 56.484375 4.976562 54.101562 4.976562 Z M 22.414062 19.351562 L 25.765625 19.351562 L 34.101562 41.21875 L 31.03125 41.21875 L 29.039062 35.609375 L 19.179688 35.609375 L 17.1875 41.21875 L 14.0625 41.21875 Z M 24.085938 22.265625 L 20.070312 33.148438 L 28.109375 33.148438 Z M 42.921875 24.421875 C 45.296875 24.421875 47.070312 25.03125 48.242188 26.265625 C 49.414062 27.492188 50 29.359375 50 31.859375 L 50 41.21875 L 47.304688 41.21875 L 47.304688 38.734375 C 46.6875 39.726562 45.921875 40.460938 45 40.945312 C 44.085938 41.414062 42.960938 41.648438 41.632812 41.648438 C 39.953125 41.648438 38.617188 41.179688 37.617188 40.242188 C 36.632812 39.289062 36.140625 38.03125 36.140625 36.445312 C 36.140625 34.601562 36.757812 33.210938 37.984375 32.273438 C 39.226562 31.335938 41.070312 30.867188 43.523438 30.867188 L 47.304688 30.867188 L 47.304688 30.601562 C 47.304688 29.359375 46.890625 28.40625 46.070312 27.726562 C 45.257812 27.046875 44.117188 26.703125 42.640625 26.703125 C 41.703125 26.703125 40.796875 26.820312 39.90625 27.039062 C 39.015625 27.265625 38.164062 27.601562 37.34375 28.054688 L 37.34375 25.5625 C 38.328125 25.179688 39.28125 24.898438 40.210938 24.710938 C 41.140625 24.515625 42.046875 24.421875 42.921875 24.421875 Z M 44.625 32.976562 C 42.445312 32.976562 40.9375 33.226562 40.09375 33.71875 C 39.257812 34.21875 38.835938 35.070312 38.835938 36.273438 C 38.835938 37.226562 39.148438 37.992188 39.773438 38.554688 C 40.40625 39.109375 41.265625 39.390625 42.351562 39.390625 C 43.84375 39.390625 45.039062 38.859375 45.9375 37.804688 C 46.851562 36.742188 47.304688 35.335938 47.304688 33.578125 L 47.304688 32.976562 Z M 44.625 32.976562 " transform="matrix(0.5,0,0,0.5,0,0)"/>
</g>
</svg>
