
<svg xmlns="http://www.w3.org/2000/svg" xmlns:xlink="http://www.w3.org/1999/xlink" width="32px" height="32px" viewBox="0 0 32 32" version="1.1">
<g id="surface1">
<path style="fill-rule:nonzero;fill:rgb(21.176471%,30.588236%,34.901962%);fill-opacity:0.921569;stroke-width:53.104534;stroke-linecap:butt;stroke-linejoin:miter;stroke:rgb(0%,34.509805%,41.960785%);stroke-opacity:1;stroke-miterlimit:4;" d="M 137.25 53.75 L 886.75 53.75 C 927.125 53.75 959.75 86.5 959.75 126.75 L 959.75 897.25 C 959.75 937.5 927.125 970.25 886.75 970.25 L 137.25 970.25 C 96.875 970.25 64.25 937.5 64.25 897.25 L 64.25 126.75 C 64.25 86.5 96.875 53.75 137.25 53.75 Z M 137.25 53.75 " transform="matrix(0.03125,0,0,0.03125,0,0)"/>
<path style=" stroke:none;fill-rule:nonzero;fill:rgb(100%,100%,100%);fill-opacity:1;" d="M 19.15625 16.03125 C 19.15625 13.1875 18.871094 10.757812 18.300781 8.75 C 17.671875 6.53125 16.875 5.445312 15.90625 5.5 C 14.9375 5.445312 14.140625 6.53125 13.515625 8.75 C 12.945312 10.757812 12.65625 13.1875 12.65625 16.03125 C 12.65625 18.875 12.945312 21.304688 13.515625 23.316406 C 14.140625 25.539062 14.9375 26.617188 15.90625 26.5625 C 16.875 26.617188 17.671875 25.539062 18.300781 23.316406 C 18.871094 21.304688 19.15625 18.875 19.15625 16.03125 Z M 17.578125 8.953125 C 18.132812 10.90625 18.40625 13.265625 18.40625 16.03125 C 18.40625 18.796875 18.132812 21.15625 17.578125 23.109375 C 17.085938 24.859375 16.527344 25.761719 15.90625 25.8125 C 15.289062 25.761719 14.730469 24.859375 14.234375 23.109375 C 13.683594 21.15625 13.40625 18.796875 13.40625 16.03125 C 13.40625 13.265625 13.683594 10.90625 14.234375 8.953125 C 14.730469 7.203125 15.289062 6.304688 15.90625 6.25 C 16.523438 6.304688 17.085938 7.203125 17.578125 8.953125 Z M 17.578125 8.953125 "/>
<path style=" stroke:none;fill-rule:nonzero;fill:rgb(100%,100%,100%);fill-opacity:1;" d="M 14.28125 18.847656 C 11.820312 17.425781 9.859375 15.964844 8.402344 14.464844 C 6.796875 12.8125 6.257812 11.578125 6.789062 10.765625 C 7.222656 9.90625 8.558594 9.753906 10.796875 10.320312 C 12.824219 10.832031 15.070312 11.796875 17.53125 13.21875 C 19.992188 14.640625 21.953125 16.101562 23.414062 17.601562 C 25.019531 19.257812 25.558594 20.492188 25.027344 21.296875 C 24.589844 22.164062 23.257812 22.3125 21.015625 21.75 C 18.992188 21.234375 16.742188 20.269531 14.28125 18.847656 Z M 8.941406 13.945312 C 10.359375 15.398438 12.265625 16.816406 14.65625 18.199219 C 17.050781 19.582031 19.234375 20.523438 21.203125 21.023438 C 22.960938 21.46875 24.023438 21.4375 24.375 20.921875 C 24.640625 20.359375 24.140625 19.429688 22.875 18.125 C 21.457031 16.671875 19.550781 15.25 17.15625 13.867188 C 14.765625 12.484375 12.582031 11.546875 10.613281 11.046875 C 8.851562 10.601562 7.789062 10.632812 7.4375 11.140625 C 7.171875 11.707031 7.671875 12.640625 8.941406 13.945312 Z M 8.941406 13.945312 "/>
<path style=" stroke:none;fill-rule:nonzero;fill:rgb(100%,100%,100%);fill-opacity:1;" d="M 17.53125 18.847656 C 19.992188 17.425781 21.953125 15.964844 23.410156 14.464844 C 25.015625 12.8125 25.558594 11.578125 25.027344 10.765625 C 24.589844 9.90625 23.253906 9.753906 21.015625 10.320312 C 18.992188 10.832031 16.742188 11.796875 14.28125 13.21875 C 11.820312 14.640625 9.859375 16.101562 8.402344 17.601562 C 6.792969 19.257812 6.257812 20.492188 6.789062 21.296875 C 7.222656 22.164062 8.558594 22.3125 10.796875 21.75 C 12.824219 21.234375 15.070312 20.269531 17.53125 18.847656 Z M 22.875 13.945312 C 21.453125 15.398438 19.550781 16.816406 17.15625 18.199219 C 14.765625 19.582031 12.578125 20.523438 10.609375 21.023438 C 8.851562 21.46875 7.789062 21.4375 7.4375 20.921875 C 7.171875 20.359375 7.671875 19.429688 8.9375 18.125 C 10.359375 16.671875 12.265625 15.25 14.65625 13.867188 C 17.050781 12.484375 19.234375 11.546875 21.203125 11.046875 C 22.960938 10.601562 24.023438 10.632812 24.375 11.140625 C 24.640625 11.707031 24.140625 12.640625 22.875 13.945312 Z M 22.875 13.945312 "/>
<path style=" stroke:none;fill-rule:nonzero;fill:rgb(44.705883%,9.803922%,22.745098%);fill-opacity:1;" d="M 17.078125 17.203125 C 17.398438 16.878906 17.5625 16.488281 17.5625 16.03125 C 17.5625 15.574219 17.398438 15.183594 17.078125 14.859375 C 16.753906 14.539062 16.367188 14.375 15.90625 14.375 C 15.449219 14.375 15.058594 14.539062 14.734375 14.859375 C 14.414062 15.183594 14.25 15.574219 14.25 16.03125 C 14.25 16.492188 14.414062 16.878906 14.734375 17.203125 C 15.058594 17.523438 15.449219 17.6875 15.90625 17.6875 C 16.367188 17.6875 16.753906 17.523438 17.078125 17.203125 Z M 17.078125 17.203125 "/>
<path style=" stroke:none;fill-rule:nonzero;fill:rgb(94.117647%,87.843138%,43.921569%);fill-opacity:1;" d="M 24.296875 14.09375 C 24.296875 13.789062 24.1875 13.527344 23.972656 13.3125 C 23.757812 13.09375 23.492188 12.984375 23.1875 12.984375 C 22.882812 12.984375 22.621094 13.09375 22.40625 13.3125 C 22.1875 13.527344 22.078125 13.789062 22.078125 14.09375 C 22.078125 14.398438 22.1875 14.664062 22.40625 14.878906 C 22.621094 15.09375 22.882812 15.203125 23.1875 15.203125 C 23.492188 15.203125 23.757812 15.09375 23.972656 14.878906 C 24.1875 14.664062 24.296875 14.398438 24.296875 14.09375 Z M 11.625 10.578125 C 11.625 10.273438 11.515625 10.011719 11.300781 9.796875 C 11.085938 9.578125 10.820312 9.46875 10.515625 9.46875 C 10.210938 9.46875 9.949219 9.578125 9.734375 9.796875 C 9.515625 10.011719 9.40625 10.273438 9.40625 10.578125 C 9.40625 10.882812 9.515625 11.148438 9.734375 11.363281 C 9.949219 11.578125 10.210938 11.6875 10.515625 11.6875 C 10.820312 11.6875 11.085938 11.578125 11.300781 11.363281 C 11.515625 11.148438 11.625 10.882812 11.625 10.578125 Z M 19.109375 23.03125 C 19.109375 22.726562 19 22.464844 18.785156 22.25 C 18.570312 22.03125 18.304688 21.921875 18 21.921875 C 17.695312 21.921875 17.433594 22.03125 17.21875 22.25 C 17 22.464844 16.890625 22.726562 16.890625 23.03125 C 16.890625 23.335938 17 23.601562 17.21875 23.816406 C 17.433594 24.03125 17.695312 24.140625 18 24.140625 C 18.304688 24.140625 18.570312 24.03125 18.785156 23.816406 C 19 23.601562 19.109375 23.335938 19.109375 23.03125 Z M 19.109375 23.03125 "/>
</g>
</svg>
