
<svg xmlns="http://www.w3.org/2000/svg" xmlns:xlink="http://www.w3.org/1999/xlink" width="32px" height="32px" viewBox="0 0 32 32" version="1.1">
<g id="surface1">
<path style="fill-rule:nonzero;fill:rgb(68.627453%,86.666667%,91.37255%);fill-opacity:1;stroke-width:25.799629;stroke-linecap:butt;stroke-linejoin:miter;stroke:rgb(100%,100%,0%);stroke-opacity:1;stroke-miterlimit:4;" d="M 51.373433 20.679091 L 415.575841 20.679091 C 435.121587 20.679091 451.018794 36.576298 451.018794 56.122045 L 451.018794 430.488241 C 451.018794 450.033987 435.121587 465.866042 415.575841 465.866042 L 51.373433 465.866042 C 31.762534 465.866042 15.930479 450.033987 15.930479 430.488241 L 15.930479 56.122045 C 15.930479 36.576298 31.762534 20.679091 51.373433 20.679091 Z M 51.373433 20.679091 " transform="matrix(0.0599555,0,0,0.0599555,2.001911,1.412519)"/>
<path style=" stroke:none;fill-rule:nonzero;fill:rgb(100%,100%,0%);fill-opacity:1;" d="M 13.632812 7.394531 C 8.875 7.394531 5.023438 11.25 5.023438 16 C 5.023438 20.75 8.875 24.605469 13.632812 24.605469 C 16.835938 24.601562 19.773438 22.820312 21.253906 19.976562 L 14.539062 16.210938 L 21.785156 13.28125 C 20.617188 9.773438 17.332031 7.398438 13.632812 7.394531 Z M 13.632812 7.394531 "/>
<path style=" stroke:none;fill-rule:nonzero;fill:rgb(100%,100%,0%);fill-opacity:1;" d="M 23.394531 16.648438 C 23.394531 17.375 22.808594 17.960938 22.085938 17.960938 C 21.359375 17.960938 20.773438 17.375 20.773438 16.648438 C 20.773438 15.929688 21.359375 15.339844 22.085938 15.339844 C 22.808594 15.339844 23.394531 15.929688 23.394531 16.648438 Z M 23.394531 16.648438 "/>
<path style=" stroke:none;fill-rule:nonzero;fill:rgb(100%,100%,0%);fill-opacity:1;" d="M 26.886719 16.648438 C 26.886719 17.375 26.300781 17.960938 25.578125 17.960938 C 24.851562 17.960938 24.265625 17.375 24.265625 16.648438 C 24.265625 15.929688 24.851562 15.339844 25.578125 15.339844 C 26.300781 15.339844 26.886719 15.929688 26.886719 16.648438 Z M 26.886719 16.648438 "/>
</g>
</svg>
