
<svg xmlns="http://www.w3.org/2000/svg" xmlns:xlink="http://www.w3.org/1999/xlink" width="32px" height="32px" viewBox="0 0 32 32" version="1.1">
<g id="surface1">
<path style="fill-rule:nonzero;fill:rgb(98.431373%,94.901961%,94.901961%);fill-opacity:1;stroke-width:2.445688;stroke-linecap:butt;stroke-linejoin:miter;stroke:rgb(87.843138%,27.450982%,7.450981%);stroke-opacity:1;stroke-miterlimit:4;" d="M 6.738283 2.894532 L 41.261729 2.894532 C 43.119151 2.894532 44.619151 4.400392 44.619151 6.257814 L 44.619151 41.742197 C 44.619151 43.59376 43.119151 45.09962 41.261729 45.09962 L 6.738283 45.09962 C 4.880861 45.09962 3.375001 43.59376 3.375001 41.742197 L 3.375001 6.257814 C 3.375001 4.400392 4.880861 2.894532 6.738283 2.894532 Z M 6.738283 2.894532 " transform="matrix(0.666667,0,0,0.666667,0,0)"/>
<path style=" stroke:none;fill-rule:evenodd;fill:rgb(87.843138%,27.450982%,7.450981%);fill-opacity:1;" d="M 16 9.703125 C 20.945312 4.757812 26.695312 8.207031 26.648438 12.898438 C 26.609375 17.179688 24.210938 18.050781 16 25.675781 C 7.40625 18.582031 5.304688 17.984375 5.351562 12.898438 C 5.394531 7.632812 10.464844 4.9375 16 9.703125 Z M 16 9.703125 "/>
</g>
</svg>
