
<svg xmlns="http://www.w3.org/2000/svg" xmlns:xlink="http://www.w3.org/1999/xlink" width="32px" height="32px" viewBox="0 0 32 32" version="1.1">
<g id="surface1">
<path style="fill-rule:nonzero;fill:rgb(100%,100%,100%);fill-opacity:1;stroke-width:28.191782;stroke-linecap:butt;stroke-linejoin:miter;stroke:rgb(29.019609%,68.235296%,90.980393%);stroke-opacity:1;stroke-miterlimit:4;" d="M -371.963585 104.301911 L -22.947544 104.301911 C 8.238917 104.301911 33.525236 129.523394 33.525236 160.709854 L 33.525236 509.725895 C 33.525236 540.847518 8.238917 566.133838 -22.947544 566.133838 L -371.963585 566.133838 C -403.085208 566.133838 -428.371527 540.847518 -428.371527 509.725895 L -428.371527 160.709854 C -428.371527 129.523394 -403.085208 104.301911 -371.963585 104.301911 Z M -371.963585 104.301911 " transform="matrix(0.0602475,0,0,0.0602475,27.894251,-4.194086)"/>
<path style=" stroke:none;fill-rule:nonzero;fill:rgb(0%,65.490198%,92.156863%);fill-opacity:1;" d="M 5.570312 24.191406 C 6.066406 23.6875 13.335938 17.53125 13.4375 17.53125 C 13.492188 17.53125 13.992188 17.925781 14.546875 18.40625 C 15.15625 18.9375 15.648438 19.289062 15.792969 19.289062 C 15.933594 19.289062 16.46875 18.914062 17.121094 18.359375 C 17.789062 17.789062 18.257812 17.460938 18.320312 17.515625 C 18.382812 17.566406 19.15625 18.21875 20.035156 18.972656 C 24.496094 22.78125 26.339844 24.367188 26.339844 24.40625 C 26.339844 24.429688 21.609375 24.453125 15.828125 24.453125 L 5.3125 24.453125 Z M 4.121094 16.71875 C 4.121094 12.8125 4.15625 9.621094 4.199219 9.625 C 4.316406 9.625 12.421875 16.582031 12.453125 16.707031 C 12.476562 16.8125 4.5625 23.632812 4.273438 23.753906 C 4.140625 23.808594 4.121094 22.910156 4.121094 16.71875 Z M 23.21875 20.242188 C 21.023438 18.355469 19.195312 16.78125 19.15625 16.742188 C 19.097656 16.679688 27.140625 9.726562 27.375 9.640625 C 27.4375 9.617188 27.476562 12.15625 27.476562 16.640625 C 27.476562 22.203125 27.449219 23.679688 27.347656 23.675781 C 27.273438 23.671875 25.421875 22.125 23.21875 20.242188 Z M 11.613281 14.4375 C 9.339844 12.492188 6.984375 10.480469 6.375 9.960938 L 5.265625 9.015625 L 10.53125 8.988281 C 13.429688 8.972656 18.167969 8.972656 21.0625 8.988281 L 26.328125 9.015625 L 23.117188 11.761719 C 21.351562 13.273438 19 15.289062 17.886719 16.242188 C 16.773438 17.191406 15.839844 17.96875 15.804688 17.96875 C 15.773438 17.96875 13.886719 16.378906 11.613281 14.4375 Z M 11.613281 14.4375 "/>
</g>
</svg>
