
<svg xmlns="http://www.w3.org/2000/svg" xmlns:xlink="http://www.w3.org/1999/xlink" width="32px" height="32px" viewBox="0 0 32 32" version="1.1">
<g id="surface1">
<path style="fill-rule:nonzero;fill:rgb(31.764707%,72.549021%,76.47059%);fill-opacity:1;stroke-width:7.975987;stroke-linecap:butt;stroke-linejoin:miter;stroke:rgb(12.54902%,58.823532%,63.529414%);stroke-opacity:1;stroke-miterlimit:4;" d="M -0.0262843 17.472757 L 98.726343 17.472757 C 107.535178 17.472757 114.668713 24.624306 114.668713 33.433141 L 114.668713 132.185768 C 114.668713 140.994604 107.535178 148.128139 98.726343 148.128139 L -0.0262843 148.128139 C -8.83512 148.128139 -15.968655 140.994604 -15.968655 132.185768 L -15.968655 33.433141 C -15.968655 24.624306 -8.83512 17.472757 -0.0262843 17.472757 Z M -0.0262843 17.472757 " transform="matrix(0.216845,0,0,0.216845,5.298668,-1.956857)"/>
<path style=" stroke:none;fill-rule:nonzero;fill:rgb(0%,0%,0%);fill-opacity:0.2;" d="M 7.761719 13.289062 L 7.761719 18.710938 L 11.421875 18.710938 L 16 23.226562 L 16 8.773438 L 11.421875 13.289062 Z M 20.117188 16 C 20.117188 14.398438 19.1875 13.027344 17.828125 12.359375 L 17.828125 19.632812 C 19.1875 18.972656 20.117188 17.601562 20.117188 16 Z M 17.828125 8.078125 L 17.828125 9.9375 C 20.476562 10.714844 22.40625 13.136719 22.40625 16 C 22.40625 18.863281 20.476562 21.285156 17.828125 22.0625 L 17.828125 23.921875 C 21.5 23.101562 24.238281 19.867188 24.238281 16 C 24.238281 12.132812 21.5 8.898438 17.828125 8.078125 Z M 17.828125 8.078125 "/>
<path style=" stroke:none;fill-rule:nonzero;fill:rgb(96.078432%,96.078432%,96.078432%);fill-opacity:1;" d="M 7.761719 13.289062 L 7.761719 18.710938 L 11.421875 18.710938 L 16 23.226562 L 16 8.773438 L 11.421875 13.289062 Z M 20.117188 16 C 20.117188 14.398438 19.1875 13.027344 17.828125 12.359375 L 17.828125 19.632812 C 19.1875 18.972656 20.117188 17.601562 20.117188 16 Z M 17.828125 8.078125 L 17.828125 9.9375 C 20.476562 10.714844 22.40625 13.136719 22.40625 16 C 22.40625 18.863281 20.476562 21.285156 17.828125 22.0625 L 17.828125 23.921875 C 21.5 23.101562 24.238281 19.867188 24.238281 16 C 24.238281 12.132812 21.5 8.898438 17.828125 8.078125 Z M 17.828125 8.078125 "/>
</g>
</svg>
