
<svg xmlns="http://www.w3.org/2000/svg" xmlns:xlink="http://www.w3.org/1999/xlink" width="32px" height="32px" viewBox="0 0 32 32" version="1.1">
<g id="surface1">
<path style="fill-rule:nonzero;fill:rgb(100%,100%,100%);fill-opacity:1;stroke-width:2.598408;stroke-linecap:butt;stroke-linejoin:miter;stroke:rgb(60.784316%,61.56863%,65.098041%);stroke-opacity:1;stroke-miterlimit:4;" d="M 7.916018 2.718751 L 40.083994 2.718751 C 42.955088 2.718751 45.281261 5.044923 45.281261 7.916018 L 45.281261 40.083994 C 45.281261 42.955088 42.955088 45.281261 40.083994 45.281261 L 7.916018 45.281261 C 5.044923 45.281261 2.718751 42.955088 2.718751 40.083994 L 2.718751 7.916018 C 2.718751 5.044923 5.044923 2.718751 7.916018 2.718751 Z M 7.916018 2.718751 " transform="matrix(0.666667,0,0,0.666667,0,0)"/>
<path style=" stroke:none;fill-rule:nonzero;fill:rgb(18.82353%,18.82353%,18.82353%);fill-opacity:1;" d="M 19.039062 3.914062 C 18.757812 3.992188 18.515625 4.171875 18.363281 4.4375 L 10.132812 18.800781 C 10.054688 18.953125 10.015625 19.117188 10.015625 19.28125 L 9.734375 27.175781 C 9.722656 27.496094 9.859375 27.796875 10.101562 28.007812 C 10.34375 28.21875 10.671875 28.320312 11 28.273438 C 11.1875 28.242188 11.359375 28.15625 11.507812 28.039062 L 17.421875 23.679688 C 17.535156 23.585938 17.625 23.46875 17.695312 23.339844 L 26.21875 8.648438 C 26.527344 8.121094 26.335938 7.453125 25.800781 7.167969 L 19.898438 4 C 19.628906 3.859375 19.3125 3.835938 19.039062 3.914062 Z M 11.070312 19.5 L 13.460938 19.09375 L 16.082031 20.5 L 16.898438 22.414062 L 13.140625 25.460938 L 10.933594 24.195312 Z M 11.070312 19.5 "/>
<path style=" stroke:none;fill-rule:nonzero;fill:rgb(100%,100%,100%);fill-opacity:1;" d="M 13.59375 16.925781 L 15.546875 18.816406 "/>
<path style="fill-rule:nonzero;fill:rgb(100%,100%,100%);fill-opacity:1;stroke-width:0.167935;stroke-linecap:butt;stroke-linejoin:miter;stroke:rgb(100%,100%,100%);stroke-opacity:1;stroke-miterlimit:4;" d="M 17.964848 37.136728 L 16.400395 36.228524 L 16.453129 35.783212 C 16.482426 35.542977 16.53516 33.978524 16.570316 32.314461 L 16.63477 29.291023 L 18.410161 28.998054 L 20.179692 28.705085 L 24.070318 30.779304 L 24.673834 32.191414 L 25.283209 33.603524 L 22.529302 35.830087 C 21.017583 37.054696 19.722661 38.05079 19.652348 38.044931 C 19.582036 38.044931 18.820317 37.628915 17.964848 37.136728 Z M 17.964848 37.136728 " transform="matrix(0.666667,0,0,0.666667,0,0)"/>
</g>
</svg>
