
<svg xmlns="http://www.w3.org/2000/svg" xmlns:xlink="http://www.w3.org/1999/xlink" width="32px" height="32px" viewBox="0 0 32 32" version="1.1">
<g id="surface1">
<path style="fill-rule:nonzero;fill:rgb(100%,100%,100%);fill-opacity:1;stroke-width:28.191782;stroke-linecap:butt;stroke-linejoin:miter;stroke:rgb(60.784316%,61.56863%,65.098041%);stroke-opacity:1;stroke-miterlimit:4;" d="M -185.347473 5.537085 L 163.715027 5.537085 C 194.840027 5.537085 220.090027 30.787085 220.090027 61.912085 L 220.090027 410.974585 C 220.090027 442.099585 194.840027 467.349585 163.715027 467.349585 L -185.347473 467.349585 C -216.472473 467.349585 -241.722473 442.099585 -241.722473 410.974585 L -241.722473 61.912085 C -241.722473 30.787085 -216.472473 5.537085 -185.347473 5.537085 Z M -185.347473 5.537085 " transform="matrix(0.0625,0,0,0.0625,16.677967,1.220338)"/>
<path style=" stroke:none;fill-rule:nonzero;fill:rgb(100%,100%,100%);fill-opacity:1;" d="M 26.03125 16.148438 C 26.03125 10.753906 21.554688 6.382812 16.035156 6.382812 C 10.515625 6.382812 6.035156 10.753906 6.035156 16.148438 C 6.035156 21.539062 10.515625 25.90625 16.035156 25.90625 C 21.554688 25.90625 26.03125 21.539062 26.03125 16.148438 Z M 26.03125 16.148438 "/>
<path style=" stroke:none;fill-rule:nonzero;fill:rgb(52.549022%,56.470591%,58.039218%);fill-opacity:1;" d="M 14.257812 28.625 C 14.039062 28.527344 13.804688 28.273438 13.695312 28.023438 C 13.640625 27.894531 13.589844 27.394531 13.542969 26.597656 C 13.503906 25.921875 13.453125 25.320312 13.429688 25.253906 C 13.398438 25.164062 13.242188 25.085938 12.859375 24.949219 C 12.566406 24.847656 12.128906 24.664062 11.882812 24.542969 C 11.640625 24.421875 11.386719 24.320312 11.320312 24.320312 C 11.25 24.320312 10.851562 24.640625 10.28125 25.164062 C 9.773438 25.632812 9.273438 26.054688 9.175781 26.105469 C 8.96875 26.210938 8.503906 26.226562 8.265625 26.140625 C 8.074219 26.070312 6.054688 24.078125 5.929688 23.835938 C 5.796875 23.59375 5.8125 23.140625 5.957031 22.867188 C 6.023438 22.742188 6.449219 22.234375 6.90625 21.738281 C 7.398438 21.207031 7.734375 20.792969 7.734375 20.726562 C 7.734375 20.664062 7.632812 20.414062 7.511719 20.167969 C 7.390625 19.921875 7.203125 19.488281 7.101562 19.199219 C 7.003906 18.910156 6.878906 18.652344 6.828125 18.625 C 6.777344 18.601562 6.1875 18.546875 5.511719 18.507812 C 4.726562 18.46875 4.203125 18.414062 4.046875 18.359375 C 3.757812 18.253906 3.421875 17.898438 3.375 17.640625 C 3.355469 17.539062 3.347656 16.765625 3.359375 15.933594 L 3.375 14.414062 L 3.546875 14.195312 C 3.859375 13.808594 4 13.769531 5.476562 13.679688 C 6.3125 13.625 6.820312 13.570312 6.859375 13.53125 C 6.898438 13.492188 7.023438 13.207031 7.140625 12.890625 C 7.253906 12.578125 7.4375 12.148438 7.539062 11.9375 C 7.648438 11.726562 7.734375 11.507812 7.734375 11.453125 C 7.734375 11.398438 7.382812 10.96875 6.960938 10.5 C 6.53125 10.03125 6.125 9.570312 6.054688 9.476562 C 5.851562 9.210938 5.78125 8.875 5.859375 8.550781 C 5.921875 8.304688 6.03125 8.171875 6.960938 7.234375 C 7.527344 6.65625 8.085938 6.140625 8.203125 6.078125 C 8.472656 5.9375 8.898438 5.9375 9.167969 6.074219 C 9.28125 6.132812 9.777344 6.546875 10.269531 7 C 10.761719 7.453125 11.195312 7.839844 11.238281 7.863281 C 11.28125 7.890625 11.546875 7.796875 11.867188 7.640625 C 12.171875 7.496094 12.632812 7.308594 12.886719 7.222656 C 13.230469 7.109375 13.363281 7.03125 13.410156 6.929688 C 13.445312 6.859375 13.507812 6.242188 13.546875 5.570312 C 13.617188 4.273438 13.664062 4.070312 13.929688 3.789062 C 14.226562 3.480469 14.398438 3.453125 16.0625 3.472656 L 17.570312 3.492188 L 17.8125 3.648438 C 18.21875 3.914062 18.265625 4.085938 18.359375 5.527344 C 18.40625 6.226562 18.460938 6.851562 18.476562 6.914062 C 18.496094 7.007812 18.621094 7.078125 19.027344 7.21875 C 19.3125 7.320312 19.777344 7.515625 20.054688 7.65625 C 20.328125 7.792969 20.578125 7.90625 20.601562 7.90625 C 20.632812 7.90625 21.070312 7.523438 21.585938 7.046875 C 22.101562 6.578125 22.617188 6.140625 22.734375 6.078125 C 23.007812 5.9375 23.417969 5.9375 23.71875 6.082031 C 23.859375 6.152344 24.34375 6.59375 24.953125 7.210938 C 26 8.265625 26.082031 8.382812 26.085938 8.863281 C 26.085938 9.203125 25.933594 9.421875 25.035156 10.40625 C 24.546875 10.945312 24.148438 11.40625 24.148438 11.433594 C 24.148438 11.460938 24.273438 11.75 24.429688 12.074219 C 24.585938 12.398438 24.773438 12.851562 24.84375 13.085938 C 24.929688 13.375 25.007812 13.523438 25.085938 13.554688 C 25.148438 13.582031 25.78125 13.640625 26.484375 13.683594 C 27.890625 13.773438 28.117188 13.828125 28.351562 14.160156 C 28.574219 14.472656 28.601562 14.707031 28.582031 16.234375 L 28.5625 17.699219 L 28.390625 17.945312 C 28.085938 18.378906 28.007812 18.402344 26.449219 18.503906 C 25.6875 18.554688 25.054688 18.609375 25.039062 18.625 C 25.019531 18.640625 24.925781 18.882812 24.828125 19.164062 C 24.726562 19.445312 24.53125 19.902344 24.390625 20.179688 C 24.253906 20.453125 24.148438 20.71875 24.15625 20.757812 C 24.167969 20.800781 24.546875 21.242188 25 21.734375 C 25.453125 22.230469 25.882812 22.75 25.953125 22.890625 C 26.105469 23.183594 26.117188 23.496094 25.996094 23.792969 C 25.886719 24.054688 24.039062 25.9375 23.734375 26.089844 C 23.484375 26.21875 23.023438 26.234375 22.761719 26.117188 C 22.664062 26.078125 22.15625 25.652344 21.640625 25.179688 C 21.121094 24.707031 20.65625 24.320312 20.609375 24.320312 C 20.554688 24.320312 20.265625 24.4375 19.960938 24.578125 C 19.65625 24.722656 19.203125 24.90625 18.953125 24.984375 C 18.609375 25.101562 18.496094 25.164062 18.476562 25.253906 C 18.460938 25.320312 18.40625 25.945312 18.359375 26.640625 C 18.257812 28.179688 18.203125 28.34375 17.664062 28.617188 C 17.511719 28.695312 17.257812 28.707031 15.957031 28.703125 C 14.808594 28.703125 14.386719 28.683594 14.257812 28.625 Z M 16.507812 21.8125 C 17.890625 21.664062 19.039062 21.117188 20.019531 20.132812 C 20.765625 19.386719 21.25 18.546875 21.539062 17.492188 C 21.71875 16.828125 21.71875 15.363281 21.535156 14.691406 C 20.980469 12.65625 19.523438 11.15625 17.507812 10.546875 C 17.039062 10.40625 16.910156 10.394531 16 10.390625 C 15.125 10.386719 14.9375 10.402344 14.515625 10.515625 C 12.394531 11.097656 10.773438 12.800781 10.328125 14.914062 C 9.929688 16.816406 10.515625 18.757812 11.898438 20.148438 C 12.625 20.882812 13.570312 21.414062 14.589844 21.679688 C 14.882812 21.753906 15.296875 21.8125 15.882812 21.859375 C 15.929688 21.863281 16.210938 21.84375 16.507812 21.8125 Z M 15.097656 19.421875 C 13.644531 19.027344 12.625 17.789062 12.539062 16.304688 C 12.476562 15.273438 12.804688 14.394531 13.542969 13.660156 C 14.882812 12.328125 17.023438 12.3125 18.347656 13.632812 C 19.4375 14.71875 19.699219 16.265625 19.023438 17.625 C 18.445312 18.777344 17.382812 19.460938 16.082031 19.511719 C 15.640625 19.53125 15.421875 19.507812 15.097656 19.421875 Z M 16.722656 17.984375 C 17.125 17.835938 17.601562 17.390625 17.804688 16.976562 C 17.945312 16.6875 17.960938 16.59375 17.960938 16.085938 C 17.960938 15.542969 17.953125 15.496094 17.765625 15.15625 C 17.394531 14.464844 16.835938 14.117188 16.054688 14.074219 C 15.421875 14.042969 15.046875 14.175781 14.59375 14.59375 C 14.015625 15.117188 13.785156 15.851562 13.96875 16.574219 C 14.132812 17.203125 14.46875 17.625 15.042969 17.914062 C 15.578125 18.1875 16.125 18.207031 16.722656 17.984375 Z M 16.722656 17.984375 "/>
</g>
</svg>
