
<svg xmlns="http://www.w3.org/2000/svg" xmlns:xlink="http://www.w3.org/1999/xlink" width="32px" height="32px" viewBox="0 0 32 32" version="1.1">
<g id="surface1">
<path style="fill-rule:nonzero;fill:rgb(98.431373%,94.901961%,94.901961%);fill-opacity:1;stroke-width:13.186199;stroke-linecap:butt;stroke-linejoin:miter;stroke:rgb(41.960785%,2.352941%,0%);stroke-opacity:1;stroke-miterlimit:4;" d="M 34.9375 14.21875 L 221.0625 14.21875 C 231.0625 14.21875 239.1875 22.34375 239.1875 32.34375 L 239.1875 223.65625 C 239.1875 233.65625 231.0625 241.75 221.0625 241.75 L 34.9375 241.75 C 24.9375 241.75 16.8125 233.65625 16.8125 223.65625 L 16.8125 32.34375 C 16.8125 22.34375 24.9375 14.21875 34.9375 14.21875 Z M 34.9375 14.21875 " transform="matrix(0.125,0,0,0.125,0,0)"/>
<path style=" stroke:none;fill-rule:nonzero;fill:rgb(83.137256%,0%,0%);fill-opacity:1;" d="M 20.578125 26.207031 C 17.710938 25.636719 15.128906 25.117188 14.835938 25.058594 L 14.304688 24.949219 L 14.304688 16.789062 L 17.695312 16.820312 C 19.558594 16.835938 22.210938 16.875 23.59375 16.90625 L 26.109375 16.960938 L 26.109375 22.117188 C 26.109375 26.960938 26.097656 27.265625 25.945312 27.257812 C 25.859375 27.25 23.4375 26.78125 20.578125 26.207031 Z M 9.238281 23.949219 L 5.6875 23.25 L 5.664062 19.976562 L 5.640625 16.695312 L 9.210938 16.738281 C 11.179688 16.757812 12.796875 16.789062 12.8125 16.800781 C 12.824219 16.8125 12.824219 18.582031 12.8125 20.734375 L 12.789062 24.644531 Z M 5.640625 12.195312 C 5.640625 10.394531 5.65625 8.921875 5.671875 8.921875 C 5.683594 8.921875 7.25 8.609375 9.144531 8.230469 C 11.042969 7.851562 12.648438 7.539062 12.714844 7.539062 C 12.808594 7.539062 12.832031 8.320312 12.832031 11.445312 L 12.832031 15.34375 L 10.96875 15.40625 C 9.9375 15.4375 8.320312 15.46875 7.371094 15.46875 L 5.640625 15.46875 Z M 14.304688 11.304688 L 14.304688 7.210938 L 20.046875 6.078125 C 23.203125 5.453125 25.859375 4.921875 25.945312 4.898438 C 26.097656 4.855469 26.109375 5.148438 26.109375 10.070312 L 26.109375 15.28125 L 22.988281 15.28125 C 21.273438 15.28125 18.617188 15.3125 17.085938 15.34375 L 14.304688 15.40625 Z M 14.304688 11.304688 "/>
</g>
</svg>
