
<svg xmlns="http://www.w3.org/2000/svg" xmlns:xlink="http://www.w3.org/1999/xlink" width="32px" height="32px" viewBox="0 0 32 32" version="1.1">
<g id="surface1">
<path style="fill-rule:nonzero;fill:rgb(100%,100%,100%);fill-opacity:1;stroke-width:2.598408;stroke-linecap:butt;stroke-linejoin:miter;stroke:rgb(60.784316%,61.56863%,65.098041%);stroke-opacity:1;stroke-miterlimit:4;" d="M 7.916018 2.718751 L 40.083994 2.718751 C 42.955088 2.718751 45.281261 5.044923 45.281261 7.916018 L 45.281261 40.083994 C 45.281261 42.955088 42.955088 45.281261 40.083994 45.281261 L 7.916018 45.281261 C 5.044923 45.281261 2.718751 42.955088 2.718751 40.083994 L 2.718751 7.916018 C 2.718751 5.044923 5.044923 2.718751 7.916018 2.718751 Z M 7.916018 2.718751 " transform="matrix(0.666667,0,0,0.666667,0,0)"/>
<path style=" stroke:none;fill-rule:evenodd;fill:rgb(14.901961%,15.294118%,16.078432%);fill-opacity:1;" d="M 14 18.664062 L 16.664062 20 C 20.429688 17.808594 25.65625 13.761719 27.617188 7.335938 L 20.664062 2.664062 C 16.644531 5.710938 15.253906 11.765625 14 18.664062 Z M 14 18.664062 "/>
<path style=" stroke:none;fill-rule:evenodd;fill:rgb(87.843138%,27.450982%,7.450981%);fill-opacity:1;" d="M 6 28.664062 C 13.335938 29.335938 16.976562 27.335938 16 21.335938 L 13.335938 20 C 8 21.335938 11.335938 26 6 28.664062 Z M 6 28.664062 "/>
</g>
</svg>
