
<svg xmlns="http://www.w3.org/2000/svg" xmlns:xlink="http://www.w3.org/1999/xlink" width="32px" height="32px" viewBox="0 0 32 32" version="1.1">
<g id="surface1">
<path style="fill-rule:nonzero;fill:rgb(20%,20%,20%);fill-opacity:1;stroke-width:2.513725;stroke-linecap:butt;stroke-linejoin:miter;stroke:rgb(0%,34.509805%,41.960785%);stroke-opacity:1;stroke-miterlimit:4;" d="M 370.107998 436.631485 L 405.707607 436.631485 C 407.613569 436.631485 409.153682 438.170243 409.153682 440.073135 L 409.153682 476.457138 C 409.153682 478.36003 407.613569 479.904662 405.707607 479.904662 L 370.107998 479.904662 C 368.207936 479.904662 366.661923 478.36003 366.661923 476.457138 L 366.661923 440.073135 C 366.661923 438.170243 368.207936 436.631485 370.107998 436.631485 Z M 370.107998 436.631485 " transform="matrix(0.661985,0,0,0.665106,-240.791092,-288.796844)"/>
<path style="fill:none;stroke-width:0.0799806;stroke-linecap:butt;stroke-linejoin:miter;stroke:rgb(15.294118%,68.235296%,37.64706%);stroke-opacity:1;stroke-miterlimit:4;" d="M 496.390969 372.427083 L 496.390969 371.23702 " transform="matrix(0.498923,0,0,0.498923,-225.742905,-162.535095)"/>
<path style="fill:none;stroke-width:0.0799806;stroke-linecap:butt;stroke-linejoin:miter;stroke:rgb(15.294118%,68.235296%,37.64706%);stroke-opacity:1;stroke-miterlimit:4;" d="M 497.941183 372.427083 L 497.941183 371.23702 " transform="matrix(0.498923,0,0,0.498923,-225.742905,-162.535095)"/>
<path style="fill:none;stroke-width:0.0799806;stroke-linecap:butt;stroke-linejoin:miter;stroke:rgb(15.294118%,68.235296%,37.64706%);stroke-opacity:1;stroke-miterlimit:4;" d="M 499.491398 372.427083 L 499.491398 371.23702 " transform="matrix(0.498923,0,0,0.498923,-225.742905,-162.535095)"/>
<path style="fill:none;stroke-width:0.0799806;stroke-linecap:butt;stroke-linejoin:miter;stroke:rgb(15.294118%,68.235296%,37.64706%);stroke-opacity:1;stroke-miterlimit:4;" d="M 501.033782 372.427083 L 501.033782 371.23702 " transform="matrix(0.498923,0,0,0.498923,-225.742905,-162.535095)"/>
<path style="fill:none;stroke-width:0.0799806;stroke-linecap:butt;stroke-linejoin:miter;stroke:rgb(15.294118%,68.235296%,37.64706%);stroke-opacity:1;stroke-miterlimit:4;" d="M 482.46253 372.427083 L 482.46253 371.23702 " transform="matrix(0.498923,0,0,0.498923,-225.742905,-162.535095)"/>
<path style="fill:none;stroke-width:0.0799806;stroke-linecap:butt;stroke-linejoin:miter;stroke:rgb(15.294118%,68.235296%,37.64706%);stroke-opacity:1;stroke-miterlimit:4;" d="M 480.912316 372.427083 L 480.912316 371.23702 " transform="matrix(0.498923,0,0,0.498923,-225.742905,-162.535095)"/>
<path style="fill:none;stroke-width:0.0799806;stroke-linecap:butt;stroke-linejoin:miter;stroke:rgb(15.294118%,68.235296%,37.64706%);stroke-opacity:1;stroke-miterlimit:4;" d="M 479.369931 372.427083 L 479.369931 371.23702 " transform="matrix(0.498923,0,0,0.498923,-225.742905,-162.535095)"/>
<path style=" stroke:none;fill-rule:nonzero;fill:rgb(18.039216%,80.000001%,44.313726%);fill-opacity:1;" d="M 5.023438 10.398438 L 5.023438 23.304688 L 26.976562 23.304688 Z M 8.351562 16.332031 L 14.296875 19.828125 L 8.351562 19.871094 Z M 8.351562 16.332031 "/>
<path style=" stroke:none;fill-rule:nonzero;fill:rgb(92.54902%,94.117647%,94.509804%);fill-opacity:1;" d="M 17.8125 14.972656 C 17.8125 14.972656 21.464844 23.597656 23.320312 26.8125 C 24 27.984375 25.003906 22.570312 24.179688 19.492188 C 23.554688 17.15625 20.054688 13.523438 20.054688 13.523438 Z M 17.8125 14.972656 "/>
<path style="fill:none;stroke-width:0.0799806;stroke-linecap:butt;stroke-linejoin:miter;stroke:rgb(15.294118%,68.235296%,37.64706%);stroke-opacity:1;stroke-miterlimit:4;" d="M 477.819717 372.427083 L 477.819717 371.23702 " transform="matrix(0.498923,0,0,0.498923,-225.742905,-162.535095)"/>
<path style=" stroke:none;fill-rule:nonzero;fill:rgb(92.54902%,94.117647%,94.509804%);fill-opacity:1;" d="M 18.976562 14.875 C 18.976562 14.875 15.324219 23.5 13.46875 26.710938 C 12.789062 27.890625 11.785156 22.476562 12.609375 19.390625 C 13.234375 17.054688 16.734375 13.421875 16.734375 13.421875 Z M 18.976562 14.875 "/>
<path style=" stroke:none;fill-rule:nonzero;fill:rgb(92.54902%,94.117647%,94.509804%);fill-opacity:1;" d="M 20.035156 13.296875 C 20.035156 14.242188 19.265625 15.011719 18.320312 15.011719 C 17.375 15.011719 16.605469 14.242188 16.605469 13.296875 C 16.605469 12.351562 17.375 11.582031 18.320312 11.582031 C 19.265625 11.582031 20.035156 12.351562 20.035156 13.296875 Z M 20.035156 13.296875 "/>
<path style=" stroke:none;fill-rule:nonzero;fill:rgb(16.078432%,50.196081%,72.549021%);fill-opacity:1;" d="M 12.984375 5.023438 C 12.1875 5.023438 11.371094 5.34375 10.632812 6.152344 C 8.914062 8.039062 10.414062 11.84375 12.347656 13.398438 C 13.453125 14.292969 16.625 13.625 16.613281 13.480469 C 16.484375 11.898438 18.015625 11.667969 18.21875 11.492188 C 18.335938 11.394531 17.140625 9.648438 16.84375 8.027344 C 16.617188 6.785156 14.867188 5.015625 12.984375 5.023438 Z M 13.070312 7.015625 C 14.015625 7.042969 15.265625 7.882812 15.632812 8.695312 C 15.863281 9.21875 16.265625 10.875 15.585938 11.53125 C 15.054688 12.039062 13.96875 11.929688 13.390625 11.476562 C 12.257812 10.578125 11.40625 8.15625 12.273438 7.289062 C 12.476562 7.085938 12.757812 7.003906 13.070312 7.015625 Z M 13.070312 7.015625 "/>
<path style=" stroke:none;fill-rule:nonzero;fill:rgb(16.078432%,50.196081%,72.549021%);fill-opacity:1;" d="M 23.648438 5.023438 C 21.765625 5.015625 20.015625 6.785156 19.789062 8.027344 C 19.488281 9.648438 18.296875 11.394531 18.414062 11.492188 C 18.617188 11.667969 20.148438 11.898438 20.015625 13.480469 C 20.007812 13.625 23.179688 14.292969 24.285156 13.398438 C 26.21875 11.84375 27.71875 8.039062 26 6.152344 C 25.257812 5.34375 24.445312 5.023438 23.648438 5.023438 Z M 23.820312 7.015625 C 24.132812 7.003906 24.410156 7.085938 24.609375 7.289062 C 25.476562 8.15625 24.628906 10.578125 23.496094 11.476562 C 22.921875 11.929688 21.832031 12.039062 21.304688 11.53125 C 20.621094 10.875 21.023438 9.21875 21.257812 8.695312 C 21.621094 7.882812 22.875 7.042969 23.820312 7.015625 Z M 23.820312 7.015625 "/>
<path style="fill:none;stroke-width:0.0799806;stroke-linecap:butt;stroke-linejoin:miter;stroke:rgb(15.294118%,68.235296%,37.64706%);stroke-opacity:1;stroke-miterlimit:4;" d="M 493.29837 372.427083 L 493.29837 371.23702 " transform="matrix(0.498923,0,0,0.498923,-225.742905,-162.535095)"/>
<path style="fill:none;stroke-width:0.0799806;stroke-linecap:butt;stroke-linejoin:miter;stroke:rgb(15.294118%,68.235296%,37.64706%);stroke-opacity:1;stroke-miterlimit:4;" d="M 491.748156 372.427083 L 491.748156 371.23702 " transform="matrix(0.498923,0,0,0.498923,-225.742905,-162.535095)"/>
<path style="fill:none;stroke-width:0.0799806;stroke-linecap:butt;stroke-linejoin:miter;stroke:rgb(15.294118%,68.235296%,37.64706%);stroke-opacity:1;stroke-miterlimit:4;" d="M 494.848585 372.427083 L 494.848585 371.23702 " transform="matrix(0.498923,0,0,0.498923,-225.742905,-162.535095)"/>
<path style="fill:none;stroke-width:0.0799806;stroke-linecap:butt;stroke-linejoin:miter;stroke:rgb(15.294118%,68.235296%,37.64706%);stroke-opacity:1;stroke-miterlimit:4;" d="M 490.205771 372.427083 L 490.205771 371.23702 " transform="matrix(0.498923,0,0,0.498923,-225.742905,-162.535095)"/>
<path style="fill:none;stroke-width:0.0799806;stroke-linecap:butt;stroke-linejoin:miter;stroke:rgb(15.294118%,68.235296%,37.64706%);stroke-opacity:1;stroke-miterlimit:4;" d="M 488.655557 372.427083 L 488.655557 371.23702 " transform="matrix(0.498923,0,0,0.498923,-225.742905,-162.535095)"/>
<path style="fill:none;stroke-width:0.0799806;stroke-linecap:butt;stroke-linejoin:miter;stroke:rgb(15.294118%,68.235296%,37.64706%);stroke-opacity:1;stroke-miterlimit:4;" d="M 487.105343 372.427083 L 487.105343 371.23702 " transform="matrix(0.498923,0,0,0.498923,-225.742905,-162.535095)"/>
<path style="fill:none;stroke-width:0.0799806;stroke-linecap:butt;stroke-linejoin:miter;stroke:rgb(15.294118%,68.235296%,37.64706%);stroke-opacity:1;stroke-miterlimit:4;" d="M 485.555129 372.427083 L 485.555129 371.23702 " transform="matrix(0.498923,0,0,0.498923,-225.742905,-162.535095)"/>
<path style="fill:none;stroke-width:0.0799806;stroke-linecap:butt;stroke-linejoin:miter;stroke:rgb(15.294118%,68.235296%,37.64706%);stroke-opacity:1;stroke-miterlimit:4;" d="M 476.269503 372.427083 L 476.269503 371.23702 " transform="matrix(0.498923,0,0,0.498923,-225.742905,-162.535095)"/>
<path style="fill:none;stroke-width:0.0799806;stroke-linecap:butt;stroke-linejoin:miter;stroke:rgb(15.294118%,68.235296%,37.64706%);stroke-opacity:1;stroke-miterlimit:4;" d="M 474.727118 372.427083 L 474.727118 371.23702 " transform="matrix(0.498923,0,0,0.498923,-225.742905,-162.535095)"/>
<path style="fill:none;stroke-width:0.0799806;stroke-linecap:butt;stroke-linejoin:miter;stroke:rgb(15.294118%,68.235296%,37.64706%);stroke-opacity:1;stroke-miterlimit:4;" d="M 473.176904 372.427083 L 473.176904 371.23702 " transform="matrix(0.498923,0,0,0.498923,-225.742905,-162.535095)"/>
<path style="fill:none;stroke-width:0.0799806;stroke-linecap:butt;stroke-linejoin:miter;stroke:rgb(15.294118%,68.235296%,37.64706%);stroke-opacity:1;stroke-miterlimit:4;" d="M 471.62669 372.427083 L 471.62669 371.23702 " transform="matrix(0.498923,0,0,0.498923,-225.742905,-162.535095)"/>
<path style="fill:none;stroke-width:0.0799806;stroke-linecap:butt;stroke-linejoin:miter;stroke:rgb(15.294118%,68.235296%,37.64706%);stroke-opacity:1;stroke-miterlimit:4;" d="M 470.084305 372.427083 L 470.084305 371.23702 " transform="matrix(0.498923,0,0,0.498923,-225.742905,-162.535095)"/>
<path style="fill:none;stroke-width:0.0799806;stroke-linecap:butt;stroke-linejoin:miter;stroke:rgb(15.294118%,68.235296%,37.64706%);stroke-opacity:1;stroke-miterlimit:4;" d="M 468.534091 372.427083 L 468.534091 371.23702 " transform="matrix(0.498923,0,0,0.498923,-225.742905,-162.535095)"/>
<path style="fill:none;stroke-width:0.0799806;stroke-linecap:butt;stroke-linejoin:miter;stroke:rgb(15.294118%,68.235296%,37.64706%);stroke-opacity:1;stroke-miterlimit:4;" d="M 466.983877 372.427083 L 466.983877 371.23702 " transform="matrix(0.498923,0,0,0.498923,-225.742905,-162.535095)"/>
<path style="fill:none;stroke-width:0.0799806;stroke-linecap:butt;stroke-linejoin:miter;stroke:rgb(15.294118%,68.235296%,37.64706%);stroke-opacity:1;stroke-miterlimit:4;" d="M 465.441492 372.427083 L 465.441492 371.23702 " transform="matrix(0.498923,0,0,0.498923,-225.742905,-162.535095)"/>
<path style="fill:none;stroke-width:0.0799806;stroke-linecap:butt;stroke-linejoin:miter;stroke:rgb(15.294118%,68.235296%,37.64706%);stroke-opacity:1;stroke-miterlimit:4;" d="M 463.891278 372.427083 L 463.891278 371.23702 " transform="matrix(0.498923,0,0,0.498923,-225.742905,-162.535095)"/>
<path style="fill:none;stroke-width:0.0799806;stroke-linecap:butt;stroke-linejoin:miter;stroke:rgb(15.294118%,68.235296%,37.64706%);stroke-opacity:1;stroke-miterlimit:4;" d="M 502.583997 372.427083 L 502.583997 371.23702 " transform="matrix(0.498923,0,0,0.498923,-225.742905,-162.535095)"/>
<path style="fill:none;stroke-width:0.0799806;stroke-linecap:butt;stroke-linejoin:miter;stroke:rgb(15.294118%,68.235296%,37.64706%);stroke-opacity:1;stroke-miterlimit:4;" d="M 484.012744 372.427083 L 484.012744 371.23702 " transform="matrix(0.498923,0,0,0.498923,-225.742905,-162.535095)"/>
</g>
</svg>
