
<svg xmlns="http://www.w3.org/2000/svg" xmlns:xlink="http://www.w3.org/1999/xlink" width="32px" height="32px" viewBox="0 0 32 32" version="1.1">
<g id="surface1">
<path style="fill-rule:nonzero;fill:rgb(98.431373%,94.901961%,94.901961%);fill-opacity:1;stroke-width:7.991354;stroke-linecap:butt;stroke-linejoin:miter;stroke:rgb(20%,20%,20%);stroke-opacity:1;stroke-miterlimit:4;" d="M -8.413398 6.52147 L 104.404345 6.52147 C 110.465259 6.52147 115.383994 11.421783 115.383994 17.482697 L 115.383994 133.432219 C 115.383994 139.493133 110.465259 144.411869 104.404345 144.411869 L -8.413398 144.411869 C -14.474312 144.411869 -19.393048 139.493133 -19.393048 133.432219 L -19.393048 17.482697 C -19.393048 11.421783 -14.474312 6.52147 -8.413398 6.52147 Z M -8.413398 6.52147 " transform="matrix(0.21204,0,0,0.21204,5.82304,0)"/>
<path style=" stroke:none;fill-rule:nonzero;fill:rgb(20%,20%,20%);fill-opacity:1;" d="M 23.734375 2.878906 C 18.515625 2.878906 17.539062 10.308594 20.476562 10.308594 C 23.40625 10.308594 28.953125 2.878906 23.734375 2.878906 Z M 23.734375 2.878906 "/>
<path style=" stroke:none;fill-rule:nonzero;fill:rgb(20%,20%,20%);fill-opacity:1;" d="M 15.070312 9.390625 C 16.632812 9.484375 18.351562 3.421875 15.414062 3.804688 C 12.476562 4.1875 13.507812 9.292969 15.070312 9.390625 Z M 15.070312 9.390625 "/>
<path style=" stroke:none;fill-rule:nonzero;fill:rgb(20%,20%,20%);fill-opacity:1;" d="M 7.914062 13.152344 C 9.023438 12.664062 8.054688 7.878906 6.164062 9.183594 C 4.273438 10.488281 6.800781 13.640625 7.914062 13.152344 Z M 7.914062 13.152344 "/>
<path style=" stroke:none;fill-rule:nonzero;fill:rgb(20%,20%,20%);fill-opacity:1;" d="M 11.042969 10.648438 C 12.367188 10.378906 12.4375 4.953125 10.078125 5.925781 C 7.71875 6.898438 9.71875 10.917969 11.042969 10.648438 Z M 11.042969 10.648438 "/>
<path style=" stroke:none;fill-rule:nonzero;fill:rgb(20%,20%,20%);fill-opacity:1;" d="M 17.953125 22.789062 C 18.1875 24.585938 16.632812 25.46875 15.117188 24.3125 C 10.285156 20.632812 23.117188 18.800781 22.273438 13.773438 C 21.570312 9.601562 8.769531 10.886719 7.3125 17.414062 C 6.328125 21.828125 11.375 27.953125 16.640625 27.953125 C 19.234375 27.953125 22.21875 25.617188 22.78125 22.648438 C 23.207031 20.390625 17.753906 21.296875 17.953125 22.789062 Z M 17.953125 22.789062 "/>
</g>
</svg>
