
<svg xmlns="http://www.w3.org/2000/svg" xmlns:xlink="http://www.w3.org/1999/xlink" width="32px" height="32px" viewBox="0 0 32 32" version="1.1">
<g id="surface1">
<path style="fill-rule:nonzero;fill:rgb(97.647059%,97.647059%,97.647059%);fill-opacity:1;stroke-width:22.433001;stroke-linecap:butt;stroke-linejoin:miter;stroke:rgb(13.333334%,21.176471%,33.725491%);stroke-opacity:1;stroke-miterlimit:4;" d="M 70.43749 641.519592 L 441.62499 641.519592 C 463.37499 641.519592 480.99999 659.144592 480.99999 680.957092 L 480.99999 1052.144592 C 480.99999 1073.894592 463.37499 1091.519592 441.62499 1091.519592 L 70.43749 1091.519592 C 48.62499 1091.519592 30.99999 1073.894592 30.99999 1052.144592 L 30.99999 680.957092 C 30.99999 659.144592 48.62499 641.519592 70.43749 641.519592 Z M 70.43749 641.519592 " transform="matrix(0.0625,0,0,0.0625,0.000000625,-38.157475)"/>
<path style=" stroke:none;fill-rule:nonzero;fill:rgb(16.470589%,83.137256%,100%);fill-opacity:1;" d="M 16 22.324219 C 15.304688 22.324219 14.679688 22.617188 14.21875 23.074219 L 16 24.851562 L 17.78125 23.074219 C 17.320312 22.617188 16.695312 22.324219 16 22.324219 Z M 16 22.324219 "/>
<path style=" stroke:none;fill-rule:nonzero;fill:rgb(16.470589%,83.137256%,100%);fill-opacity:1;" d="M 16 17.265625 C 13.90625 17.265625 12.015625 18.125 10.644531 19.5 L 12.421875 21.277344 C 13.335938 20.359375 14.601562 19.796875 16 19.796875 C 17.398438 19.796875 18.664062 20.359375 19.578125 21.277344 L 21.355469 19.5 C 19.984375 18.125 18.09375 17.265625 16 17.265625 Z M 16 17.265625 "/>
<path style=" stroke:none;fill-rule:nonzero;fill:rgb(16.470589%,83.137256%,100%);fill-opacity:1;" d="M 16 12.203125 C 12.507812 12.203125 9.359375 13.632812 7.070312 15.921875 L 8.84375 17.699219 C 10.679688 15.867188 13.207031 14.734375 16 14.734375 C 18.792969 14.734375 21.320312 15.867188 23.15625 17.699219 L 24.929688 15.921875 C 22.640625 13.632812 19.492188 12.203125 16 12.203125 Z M 16 12.203125 "/>
<path style=" stroke:none;fill-rule:nonzero;fill:rgb(16.470589%,83.137256%,100%);fill-opacity:1;" d="M 16 7.148438 C 11.113281 7.148438 6.695312 9.140625 3.492188 12.34375 L 5.269531 14.125 C 8.015625 11.375 11.8125 9.675781 16 9.675781 C 20.1875 9.675781 23.984375 11.375 26.730469 14.125 L 28.507812 12.34375 C 25.304688 9.140625 20.886719 7.148438 16 7.148438 Z M 16 7.148438 "/>
</g>
</svg>
