
<svg xmlns="http://www.w3.org/2000/svg" xmlns:xlink="http://www.w3.org/1999/xlink" width="32px" height="32px" viewBox="0 0 32 32" version="1.1">
<g id="surface1">
<path style="fill-rule:nonzero;fill:rgb(100%,100%,100%);fill-opacity:1;stroke-width:26.827003;stroke-linecap:butt;stroke-linejoin:miter;stroke:rgb(16.470589%,49.803922%,100%);stroke-opacity:1;stroke-miterlimit:4;" d="M 37.697956 135.853577 L 369.822956 135.853577 C 399.510456 135.853577 423.510456 159.853577 423.510456 189.478577 L 423.510456 521.603577 C 423.510456 551.291077 399.510456 575.291077 369.822956 575.291077 L 37.697956 575.291077 C 8.072956 575.291077 -15.927044 551.291077 -15.927044 521.603577 L -15.927044 189.478577 C -15.927044 159.853577 8.072956 135.853577 37.697956 135.853577 Z M 37.697956 135.853577 " transform="matrix(0.0625,0,0,0.0625,3.264971,-6.221317)"/>
<path style=" stroke:none;fill-rule:nonzero;fill:rgb(0%,0%,100%);fill-opacity:1;" d="M 16 5.054688 C 14.992188 5.054688 14.175781 5.871094 14.175781 6.878906 C 14.175781 7.886719 14.992188 8.703125 16 8.703125 C 17.007812 8.703125 17.824219 7.886719 17.824219 6.878906 C 17.824219 5.871094 17.007812 5.054688 16 5.054688 Z M 6.878906 9.617188 L 6.878906 11.4375 L 13.265625 11.4375 L 13.265625 26.945312 L 15.085938 26.945312 L 15.085938 19.648438 L 16.914062 19.648438 L 16.914062 26.945312 L 18.734375 26.945312 L 18.734375 11.4375 L 25.121094 11.4375 L 25.121094 9.617188 Z M 6.878906 9.617188 "/>
</g>
</svg>
