
<svg xmlns="http://www.w3.org/2000/svg" xmlns:xlink="http://www.w3.org/1999/xlink" width="32px" height="32px" viewBox="0 0 32 32" version="1.1">
<g id="surface1">
<path style="fill-rule:nonzero;fill:rgb(52.941179%,80.392158%,87.058824%);fill-opacity:1;stroke-width:28.191782;stroke-linecap:butt;stroke-linejoin:miter;stroke:rgb(0%,41.568628%,72.549021%);stroke-opacity:1;stroke-miterlimit:4;" d="M 184.408051 -38.022427 L 533.470551 -38.022427 C 564.595551 -38.022427 589.845551 -12.772427 589.845551 18.352573 L 589.845551 367.415073 C 589.845551 398.540073 564.595551 423.790073 533.470551 423.790073 L 184.408051 423.790073 C 153.283051 423.790073 128.033051 398.540073 128.033051 367.415073 L 128.033051 18.352573 C 128.033051 -12.772427 153.283051 -38.022427 184.408051 -38.022427 Z M 184.408051 -38.022427 " transform="matrix(0.0625,0,0,0.0625,-6.435659,3.942808)"/>
<path style=" stroke:none;fill-rule:nonzero;fill:rgb(100%,100%,100%);fill-opacity:1;" d="M 12.210938 3.613281 C 12.734375 4.3125 12.246094 5.484375 13.03125 5.472656 C 13.414062 6.015625 12.269531 5.632812 13.097656 6.054688 C 13.574219 6.429688 12.59375 6.640625 13.183594 6.976562 C 12.503906 7.328125 13.292969 8.8125 13.796875 9.183594 C 14.628906 9.882812 14.164062 7.703125 15.09375 7.589844 C 15.59375 7.015625 16.480469 6.644531 17.109375 6.066406 C 16.492188 6.015625 16.136719 5.632812 16.71875 5.398438 C 17.789062 6.492188 16.984375 4.878906 16.390625 4.625 C 16.96875 4.4375 17.523438 4.574219 17.445312 4.101562 C 18.050781 3.65625 16.859375 3.515625 16.4375 3.613281 C 15.03125 3.613281 13.617188 3.613281 12.210938 3.613281 Z M 3.421875 4.070312 C 2.648438 4.292969 2.59375 6.140625 3.375 5.117188 C 3.5625 4.695312 4.445312 4.1875 3.421875 4.070312 Z M 7.039062 4.136719 C 6.59375 4.835938 7.109375 5.398438 7.476562 4.542969 C 7.742188 4.1875 7.28125 4.148438 7.039062 4.136719 Z M 8.15625 4.292969 C 7.296875 4.695312 7.945312 5.625 7.96875 5.832031 C 8.875 6.148438 9.378906 5.625 9.722656 6.515625 C 10.585938 7.015625 9.707031 7.882812 9.382812 8.105469 C 9.96875 7.597656 11.089844 9.492188 10.796875 8.492188 C 10.445312 8.234375 11.738281 8.902344 11.066406 8.070312 C 10.449219 7.070312 11.117188 7.625 11.375 7.855469 C 12.265625 7.058594 10.375 6.960938 10.84375 6.144531 C 10.429688 5.8125 9.890625 4.796875 9.15625 4.992188 C 8.667969 5.625 9.089844 3.613281 8.371094 4.621094 C 8.335938 5.1875 8.359375 5.898438 8.148438 4.921875 C 8.007812 4.75 8.390625 4.355469 8.15625 4.292969 Z M 6.398438 4.300781 C 5.820312 4.492188 5.851562 5.273438 6.5625 5.359375 C 6.804688 5.082031 6.660156 4.351562 6.398438 4.300781 Z M 4.140625 4.550781 C 3.386719 4.726562 3.695312 5.335938 3.921875 5.507812 C 2.992188 5.742188 5.34375 5.804688 4.171875 5.953125 C 3.203125 6.34375 5.113281 6.796875 5.425781 6.335938 C 6.628906 6.632812 5.46875 5.375 5.363281 4.695312 C 4.851562 4.148438 5.34375 5.953125 4.882812 4.75 C 4.722656 5.109375 4.210938 4.804688 4.140625 4.550781 Z M 28.03125 4.628906 C 27.023438 5.023438 28.660156 6.515625 28.253906 5.15625 C 28.210938 4.992188 28.34375 4.5625 28.03125 4.628906 Z M 6.960938 5.230469 C 6.238281 5.914062 7.882812 6.476562 6.757812 6.984375 C 6.585938 6.351562 6.296875 7.296875 5.648438 6.789062 C 4.539062 7.25 3.96875 6.546875 3.039062 6.0625 C 2.476562 5.996094 2.6875 6.59375 2.652344 7.15625 C 2.652344 8.710938 2.652344 10.265625 2.652344 11.820312 C 3.199219 12.398438 2.867188 12.078125 2.652344 11.917969 C 2.953125 12.941406 2.519531 14.4375 3.703125 15.035156 C 3.90625 15.410156 4.75 17 4.789062 16.523438 C 4.367188 16.082031 3.929688 14.75 4.648438 15.9375 C 5.289062 17.0625 6.15625 17.796875 7.421875 18.0625 C 8.117188 18.300781 8.6875 19.109375 9.296875 18.929688 C 9.640625 19.839844 8.273438 20.710938 9.339844 21.558594 C 9.898438 22.414062 10.828125 22.976562 10.324219 24.179688 C 9.96875 25.355469 10.125 26.636719 9.816406 27.730469 C 9.722656 28.398438 10.746094 30.089844 10.65625 28.734375 C 10.953125 27.792969 10.945312 26.757812 11.652344 26.089844 C 12.617188 26.097656 11.835938 25.054688 12.789062 25.191406 C 13.375 24.425781 13.542969 23.515625 14.527344 23.210938 C 14.648438 22.28125 16.164062 20.859375 14.59375 20.5 C 14.171875 20.289062 13.070312 20.210938 13.15625 20.109375 C 13.324219 19.1875 11.734375 18.921875 11.058594 18.546875 C 10.171875 17.917969 8.835938 19.59375 8.523438 18.148438 C 8.335938 17.695312 7.652344 17.6875 7.96875 16.984375 C 7.398438 17.546875 6.296875 17.375 6.585938 16.289062 C 7.023438 15.375 8.710938 15.332031 9 16.429688 C 8.601562 15.21875 9.773438 14.273438 10.421875 13.40625 C 10.554688 12.996094 11.34375 12.640625 11.070312 13.1875 C 11.53125 13.171875 12.234375 12.339844 11.414062 12.726562 C 11.402344 11.964844 10.695312 12.179688 10.46875 12.289062 C 10.890625 11.617188 13.070312 11.984375 12.15625 10.882812 C 11.453125 10.59375 11.507812 8.921875 10.792969 9.851562 C 10.851562 9.277344 9.335938 8.15625 9.367188 9.117188 C 9.554688 9.976562 9.40625 10.972656 9.007812 11.539062 C 8.929688 10.273438 6.773438 10.554688 7.050781 9.207031 C 7.453125 8.566406 7.921875 7.679688 7.964844 7.757812 C 8.683594 7.484375 9.261719 6.683594 8.429688 6.160156 C 8.382812 6.617188 7.804688 7.5625 7.882812 6.421875 C 7.34375 7.058594 7.46875 5.402344 6.960938 5.230469 Z M 24.171875 5.671875 C 22.910156 5.984375 22.40625 7.1875 21.78125 8.1875 C 20.863281 8.601562 20.898438 10.386719 21.929688 9.820312 C 22.203125 10.296875 21.734375 11.054688 22.539062 10.429688 C 23.183594 9.570312 22.648438 8.1875 23.75 7.648438 C 23.828125 8.066406 22.734375 9.632812 24.015625 9.375 C 25.171875 9.421875 23.171875 9.492188 23.734375 10.234375 C 23.152344 9.882812 23.453125 11.179688 22.695312 10.878906 C 22.03125 11.238281 21.597656 10.710938 21.75 10.132812 C 21.226562 10.4375 21.914062 11.292969 21.007812 11.34375 C 20.804688 12.0625 19.144531 11.953125 20.089844 12.6875 C 20.507812 13.773438 18.523438 12.757812 19.085938 14.0625 C 19.570312 15.355469 20.578125 13.632812 20.992188 13.304688 C 21.78125 12.6875 22.953125 14.347656 22.242188 14.410156 C 23.039062 14.304688 22.875 13.542969 22.234375 13.25 C 21.890625 12.351562 23.328125 13.6875 23.25 14.140625 C 23.757812 15.089844 23.546875 13.164062 24.0625 14.015625 C 24.003906 14.914062 26.140625 14.226562 25.125 15.375 C 24.242188 15.550781 23.382812 15.148438 22.625 15.40625 C 21.921875 15.398438 21.957031 14.648438 21.703125 14.460938 C 20.804688 14.53125 19.703125 14.523438 19.101562 15.246094 C 18.453125 16.132812 17.523438 17.378906 18.226562 18.515625 C 18.933594 20.195312 20.683594 18.601562 21.691406 19.59375 C 21.992188 20.007812 21.429688 20.5 22.101562 20.949219 C 22.351562 21.90625 21.8125 22.8125 22.433594 23.726562 C 22.753906 24.585938 22.953125 25.867188 24.140625 25.085938 C 25.402344 24.328125 25.066406 22.929688 26.105469 22.15625 C 25.28125 20.5625 27.109375 19.863281 27.570312 18.570312 C 26.570312 18.71875 25.683594 17.722656 25.445312 16.722656 C 25.023438 16.234375 25.132812 15.519531 25.601562 16.429688 C 26.242188 17.054688 26.257812 18.90625 27.445312 17.953125 C 27.992188 17.726562 29.476562 16.859375 28.289062 16.460938 C 27.53125 17.015625 26.6875 14.8125 27.804688 16.089844 C 28.621094 16.4375 29.191406 16.640625 29.191406 15.496094 C 29.191406 12.410156 29.191406 9.28125 29.191406 6.171875 C 28.9375 6.433594 28.289062 6.914062 27.957031 6.59375 C 27.390625 6.671875 26.644531 7.773438 26.820312 6.710938 C 26.328125 6.675781 26.734375 7.664062 26.058594 7.691406 C 25.992188 8.199219 25.375 7.785156 25.609375 8.265625 C 25.132812 7.929688 24.730469 6.867188 25.664062 7.535156 C 27.054688 7.117188 24.75 6.179688 24.570312 5.953125 C 24.871094 5.882812 24.25 5.570312 24.171875 5.671875 Z M 12.71875 5.953125 C 12.257812 6.335938 13.597656 6.410156 12.71875 5.953125 Z M 6.546875 6.160156 C 6.03125 6.699219 7.371094 6.65625 6.546875 6.160156 Z M 9.546875 6.695312 C 9.152344 7.335938 10.125 6.929688 9.546875 6.695312 Z M 18.109375 7.453125 C 17.652344 7.980469 17.046875 7.3125 17.039062 7.765625 C 17.117188 7.90625 17.453125 8.882812 18.179688 8.164062 C 18.570312 7.996094 18.417969 7.578125 18.109375 7.453125 Z M 8.359375 7.765625 C 7.488281 8.527344 9.832031 8.597656 8.539062 7.855469 Z M 19.820312 9.867188 C 19.195312 10.277344 20.117188 11.144531 19.804688 11.550781 C 19.414062 12.234375 21.261719 11.503906 20.273438 10.960938 C 20.203125 10.492188 19.695312 9.917969 19.820312 9.867188 Z M 19.398438 10.691406 C 18.523438 10.9375 19.199219 12.210938 19.507812 11.011719 C 19.523438 10.945312 19.546875 10.6875 19.398438 10.691406 Z M 12.417969 11.617188 C 11.609375 12.167969 12.292969 12.71875 12.886719 12.46875 C 12.765625 12.136719 12.421875 11.929688 12.417969 11.617188 Z M 27.734375 12.542969 C 28.136719 12.75 26.992188 13.097656 27.71875 13.457031 C 28.140625 13.953125 27.980469 15.019531 27.292969 14.265625 C 27.421875 13.421875 26.363281 12.792969 27.734375 12.542969 Z M 25.652344 12.550781 C 25.597656 13.09375 26.820312 13.933594 25.5 13.660156 C 24.804688 13.742188 23.761719 13.640625 24.640625 12.769531 C 24.914062 12.601562 25.644531 13.34375 25.265625 12.648438 C 25.398438 12.640625 25.523438 12.59375 25.652344 12.550781 Z M 21.625 13.722656 C 21.117188 14.050781 21.976562 14.304688 21.625 13.722656 Z M 8.867188 16.777344 C 8.78125 17.0625 10.472656 17.351562 9.304688 16.894531 L 9.128906 16.832031 Z M 10.179688 17.183594 C 9.664062 17.703125 11.238281 17.339844 10.179688 17.183594 Z M 27.351562 21.96875 C 26.238281 21.996094 26.386719 24.875 27.164062 23.171875 C 27.238281 22.804688 27.53125 22.3125 27.351562 21.96875 Z M 27.351562 21.96875 "/>
</g>
</svg>
