
<svg xmlns="http://www.w3.org/2000/svg" xmlns:xlink="http://www.w3.org/1999/xlink" width="32px" height="32px" viewBox="0 0 32 32" version="1.1">
<g id="surface1">
<path style="fill-rule:nonzero;fill:rgb(100%,100%,100%);fill-opacity:1;stroke-width:28.191782;stroke-linecap:butt;stroke-linejoin:miter;stroke:rgb(0%,41.568628%,72.549021%);stroke-opacity:1;stroke-miterlimit:4;" d="M 81.5 25.125 L 430.5 25.125 C 461.625 25.125 486.875 50.375 486.875 81.5 L 486.875 430.5 C 486.875 461.625 461.625 486.875 430.5 486.875 L 81.5 486.875 C 50.375 486.875 25.125 461.625 25.125 430.5 L 25.125 81.5 C 25.125 50.375 50.375 25.125 81.5 25.125 Z M 81.5 25.125 " transform="matrix(0.0625,0,0,0.0625,0,0)"/>
<path style=" stroke:none;fill-rule:evenodd;fill:rgb(16.078432%,50.196081%,72.549021%);fill-opacity:1;" d="M 16.347656 4.242188 C 15.820312 4.242188 15.257812 4.25 14.6875 4.265625 C 14.367188 4.273438 14.015625 4.625 14.015625 4.945312 C 14.015625 5.789062 14.054688 7.625 14.054688 7.625 C 14.054688 7.625 13.109375 7.878906 12.65625 8.0625 C 12.25 8.230469 11.484375 8.65625 11.484375 8.65625 C 11.484375 8.65625 10.4375 7.628906 9.53125 6.734375 C 9.335938 6.546875 8.796875 6.59375 8.601562 6.789062 C 7.007812 8.359375 7.402344 7.921875 6.738281 8.648438 C 6.523438 8.882812 6.558594 9.382812 6.789062 9.609375 C 7.445312 10.242188 8.679688 11.476562 8.679688 11.476562 C 8.679688 11.476562 8.1875 12.277344 8.007812 12.707031 C 7.835938 13.128906 7.609375 14.023438 7.609375 14.023438 C 7.609375 14.023438 5.851562 13.984375 4.972656 14 C 4.640625 14.007812 4.21875 14.28125 4.21875 14.601562 C 4.21875 15.109375 4.210938 16.328125 4.203125 17.039062 C 4.195312 17.746094 4.597656 18 4.96875 18 C 6.042969 17.992188 7.601562 18.007812 7.601562 18.007812 C 7.601562 18.007812 7.84375 18.90625 8.023438 19.335938 C 8.195312 19.757812 8.640625 20.558594 8.640625 20.558594 C 8.640625 20.558594 7.421875 21.726562 6.84375 22.382812 C 6.609375 22.640625 6.554688 23.167969 6.789062 23.429688 C 7.410156 24.121094 8.035156 24.71875 8.625 25.234375 C 8.90625 25.484375 9.46875 25.351562 9.742188 25.097656 C 10.21875 24.648438 11.464844 23.328125 11.464844 23.328125 C 11.464844 23.328125 12.261719 23.75 12.679688 23.925781 C 12.898438 24.015625 13.234375 24.132812 13.515625 24.226562 C 13.792969 24.320312 14.019531 24.390625 14.019531 24.390625 C 14.019531 24.390625 14.019531 24.8125 14.019531 25.34375 C 14.019531 25.875 14.023438 26.511719 14.023438 26.945312 C 14.023438 27.121094 14.101562 27.320312 14.222656 27.480469 C 14.34375 27.640625 14.507812 27.753906 14.683594 27.757812 C 15.511719 27.761719 16.441406 27.757812 17.359375 27.757812 C 17.515625 27.753906 17.675781 27.640625 17.800781 27.484375 C 17.921875 27.328125 18.007812 27.132812 18.007812 26.976562 C 18.007812 26.550781 18.007812 25.871094 18.011719 25.296875 C 18.015625 24.726562 18.015625 24.261719 18.015625 24.261719 C 18.015625 24.261719 18.242188 24.210938 18.515625 24.140625 C 18.789062 24.070312 19.117188 23.972656 19.324219 23.882812 C 19.523438 23.796875 19.796875 23.632812 20.023438 23.492188 C 20.253906 23.34375 20.429688 23.226562 20.429688 23.226562 C 20.429688 23.226562 20.789062 23.585938 21.21875 24.015625 C 21.652344 24.445312 22.15625 24.945312 22.4375 25.214844 C 22.5625 25.335938 22.75 25.398438 22.945312 25.390625 C 23.148438 25.378906 23.355469 25.296875 23.527344 25.128906 C 23.890625 24.773438 24.199219 24.476562 24.476562 24.207031 C 24.75 23.9375 24.992188 23.695312 25.226562 23.457031 C 25.34375 23.335938 25.40625 23.148438 25.414062 22.960938 C 25.421875 22.777344 25.375 22.589844 25.257812 22.472656 C 24.9375 22.140625 24.429688 21.632812 24 21.210938 C 23.570312 20.78125 23.226562 20.4375 23.226562 20.4375 C 23.226562 20.4375 23.347656 20.253906 23.492188 20.015625 C 23.632812 19.773438 23.796875 19.484375 23.882812 19.28125 C 23.96875 19.070312 24.046875 18.746094 24.109375 18.472656 C 24.171875 18.199219 24.210938 17.976562 24.210938 17.976562 C 24.210938 17.976562 26.140625 18.023438 27.023438 17.992188 C 27.347656 17.976562 27.757812 17.679688 27.769531 17.355469 C 27.804688 16.390625 27.804688 15.621094 27.78125 14.75 C 27.765625 14.226562 27.40625 14.011719 26.859375 14.015625 C 26.148438 14.023438 24.257812 14.046875 24.257812 14.046875 C 24.257812 14.046875 24.054688 13.183594 23.890625 12.773438 C 23.71875 12.351562 23.257812 11.570312 23.257812 11.570312 C 23.257812 11.570312 24.539062 10.289062 25.164062 9.632812 C 25.585938 9.1875 25.324219 8.640625 25.179688 8.511719 C 24.578125 7.96875 23.960938 7.28125 23.453125 6.800781 C 23.203125 6.5625 22.675781 6.539062 22.421875 6.769531 C 21.902344 7.242188 21.171875 8.039062 20.492188 8.710938 C 20.492188 8.710938 19.691406 8.242188 19.257812 8.070312 C 18.851562 7.910156 18 7.703125 18 7.703125 C 18 7.703125 18.03125 5.847656 18 4.910156 C 17.988281 4.59375 17.5625 4.273438 17.242188 4.257812 C 16.960938 4.242188 16.664062 4.242188 16.347656 4.242188 Z M 16.066406 12.007812 C 18.023438 12 19.695312 13.710938 19.945312 15.601562 C 20.234375 17.609375 18.625 19.554688 16.6875 19.925781 C 14.5 20.371094 12.21875 18.546875 12.03125 16.351562 C 11.867188 14.164062 13.804688 12.085938 15.972656 12.007812 C 16.003906 12.007812 16.035156 12.007812 16.066406 12.007812 Z M 16.066406 12.007812 "/>
<path style=" stroke:none;fill-rule:evenodd;fill:rgb(0%,41.568628%,72.549021%);fill-opacity:1;" d="M 16.140625 8.773438 C 16.09375 8.773438 16.046875 8.773438 16 8.773438 C 12.195312 8.839844 8.761719 12.269531 8.777344 16.09375 C 8.796875 19.785156 12.042969 23.171875 15.753906 23.257812 C 19.179688 23.355469 22.554688 20.757812 23.132812 17.34375 C 23.742188 13.910156 21.566406 10.140625 18.191406 9.132812 C 17.53125 8.917969 16.835938 8.78125 16.140625 8.773438 Z M 16.078125 11.222656 C 18.421875 11.214844 20.421875 13.261719 20.722656 15.519531 C 21.0625 17.921875 19.140625 20.25 16.820312 20.695312 C 14.210938 21.226562 11.476562 19.039062 11.253906 16.421875 C 11.0625 13.800781 13.375 11.316406 15.96875 11.226562 C 16.007812 11.222656 16.042969 11.222656 16.078125 11.222656 Z M 16.078125 11.222656 "/>
</g>
</svg>
