
<svg xmlns="http://www.w3.org/2000/svg" xmlns:xlink="http://www.w3.org/1999/xlink" width="32px" height="32px" viewBox="0 0 32 32" version="1.1">
<g id="surface1">
<path style="fill-rule:nonzero;fill:rgb(98.431373%,94.901961%,94.901961%);fill-opacity:1;stroke-width:25.1982;stroke-linecap:butt;stroke-linejoin:miter;stroke:rgb(0%,34.509805%,41.960785%);stroke-opacity:1;stroke-miterlimit:4;" d="M 78.123703 38.623176 L 433.87617 38.623176 C 453.007307 38.623176 468.485573 54.101442 468.485573 73.232579 L 468.485573 438.829223 C 468.485573 457.96036 453.007307 473.438626 433.87617 473.438626 L 78.123703 473.438626 C 59.05448 473.438626 43.576214 457.96036 43.576214 438.829223 L 43.576214 73.232579 C 43.576214 54.101442 59.05448 38.623176 78.123703 38.623176 Z M 78.123703 38.623176 " transform="matrix(0.0630925,0,0,0.0630925,-0.151676,-0.151677)"/>
<path style=" stroke:none;fill-rule:evenodd;fill:rgb(26.274511%,31.37255%,36.078432%);fill-opacity:1;" d="M 22.671875 4.539062 C 23.648438 4.539062 24.441406 5.4375 24.441406 6.546875 L 24.441406 26.179688 C 24.441406 27.289062 23.648438 28.1875 22.671875 28.1875 C 21.695312 28.1875 20.90625 27.289062 20.90625 26.179688 L 20.90625 6.546875 C 20.90625 5.4375 21.695312 4.539062 22.671875 4.539062 Z M 22.671875 4.539062 "/>
<path style=" stroke:none;fill-rule:evenodd;fill:rgb(26.274511%,31.37255%,36.078432%);fill-opacity:1;" d="M 22.671875 5.171875 C 23.34375 5.171875 23.890625 5.859375 23.890625 6.703125 L 23.890625 26.035156 C 23.890625 26.882812 23.34375 27.570312 22.671875 27.570312 C 22 27.570312 21.453125 26.882812 21.453125 26.035156 L 21.453125 6.703125 C 21.453125 5.859375 22 5.171875 22.671875 5.171875 Z M 22.671875 5.171875 "/>
<path style=" stroke:none;fill-rule:nonzero;fill:rgb(16.470589%,16.470589%,100%);fill-opacity:1;" d="M 25.960938 11.324219 C 25.960938 13.0625 24.554688 14.476562 22.8125 14.476562 C 21.070312 14.476562 19.664062 13.0625 19.664062 11.324219 C 19.664062 9.585938 21.070312 8.171875 22.8125 8.171875 C 24.554688 8.171875 25.960938 9.585938 25.960938 11.324219 Z M 25.960938 11.324219 "/>
<path style=" stroke:none;fill-rule:evenodd;fill:rgb(26.274511%,31.37255%,36.078432%);fill-opacity:1;" d="M 16.117188 4.539062 C 17.09375 4.539062 17.882812 5.4375 17.882812 6.546875 L 17.882812 26.179688 C 17.882812 27.289062 17.09375 28.1875 16.117188 28.1875 C 15.140625 28.1875 14.347656 27.289062 14.347656 26.179688 L 14.347656 6.546875 C 14.347656 5.4375 15.140625 4.539062 16.117188 4.539062 Z M 16.117188 4.539062 "/>
<path style=" stroke:none;fill-rule:evenodd;fill:rgb(26.274511%,31.37255%,36.078432%);fill-opacity:1;" d="M 16.117188 5.171875 C 16.789062 5.171875 17.332031 5.859375 17.332031 6.703125 L 17.332031 26.035156 C 17.332031 26.882812 16.789062 27.570312 16.117188 27.570312 C 15.445312 27.570312 14.898438 26.882812 14.898438 26.035156 L 14.898438 6.703125 C 14.898438 5.859375 15.445312 5.171875 16.117188 5.171875 Z M 16.117188 5.171875 "/>
<path style=" stroke:none;fill-rule:nonzero;fill:rgb(16.470589%,16.470589%,100%);fill-opacity:1;" d="M 19.21875 18.210938 C 19.21875 19.953125 17.804688 21.359375 16.066406 21.359375 C 14.328125 21.359375 12.914062 19.953125 12.914062 18.210938 C 12.914062 16.46875 14.328125 15.0625 16.066406 15.0625 C 17.804688 15.0625 19.21875 16.46875 19.21875 18.210938 Z M 19.21875 18.210938 "/>
<path style=" stroke:none;fill-rule:evenodd;fill:rgb(26.274511%,31.37255%,36.078432%);fill-opacity:1;" d="M 9.546875 4.539062 C 10.523438 4.539062 11.3125 5.4375 11.3125 6.546875 L 11.3125 26.179688 C 11.3125 27.289062 10.523438 28.1875 9.546875 28.1875 C 8.570312 28.1875 7.777344 27.289062 7.777344 26.179688 L 7.777344 6.546875 C 7.777344 5.4375 8.570312 4.539062 9.546875 4.539062 Z M 9.546875 4.539062 "/>
<path style=" stroke:none;fill-rule:evenodd;fill:rgb(26.274511%,31.37255%,36.078432%);fill-opacity:1;" d="M 9.546875 5.171875 C 10.21875 5.171875 10.761719 5.859375 10.761719 6.703125 L 10.761719 26.035156 C 10.761719 26.882812 10.21875 27.570312 9.546875 27.570312 C 8.875 27.570312 8.328125 26.882812 8.328125 26.035156 L 8.328125 6.703125 C 8.328125 5.859375 8.875 5.171875 9.546875 5.171875 Z M 9.546875 5.171875 "/>
<path style=" stroke:none;fill-rule:nonzero;fill:rgb(16.470589%,16.470589%,100%);fill-opacity:1;" d="M 12.648438 9.34375 C 12.648438 11.085938 11.234375 12.492188 9.496094 12.492188 C 7.757812 12.492188 6.34375 11.085938 6.34375 9.34375 C 6.34375 7.601562 7.757812 6.195312 9.496094 6.195312 C 11.234375 6.195312 12.648438 7.601562 12.648438 9.34375 Z M 12.648438 9.34375 "/>
</g>
</svg>
