<!-- color: #686868 -->
<svg xmlns="http://www.w3.org/2000/svg" xmlns:xlink="http://www.w3.org/1999/xlink" width="32px" height="32px" viewBox="0 0 32 32" version="1.1">
<defs>
<clipPath id="clip1">
  <path d="M 10 8.5 L 22 8.5 L 22 23.5 L 10 23.5 Z M 10 8.5 "/>
</clipPath>
<clipPath id="clip2">
  <path d="M 31.335938 16 C 31.335938 24.46875 24.464844 31.335938 16 31.335938 C 7.535156 31.335938 0.664062 24.46875 0.664062 16 C 0.664062 7.53125 7.535156 0.664062 16 0.664062 C 24.464844 0.664062 31.335938 7.53125 31.335938 16 Z M 31.335938 16 "/>
</clipPath>
</defs>
<g id="surface1">
<path style="fill-rule:nonzero;fill:rgb(39.607844%,39.607844%,39.607844%);fill-opacity:1;stroke-width:2.492126;stroke-linecap:butt;stroke-linejoin:miter;stroke:rgb(0%,34.509805%,41.960785%);stroke-opacity:1;stroke-miterlimit:4;" d="M 6.410158 2.496094 L 41.589854 2.496094 C 43.482432 2.496094 45.011729 4.031251 45.011729 5.91797 L 45.011729 42.076182 C 45.011729 43.96876 43.482432 45.498058 41.589854 45.498058 L 6.410158 45.498058 C 4.517579 45.498058 2.982423 43.96876 2.982423 42.076182 L 2.982423 5.91797 C 2.982423 4.031251 4.517579 2.496094 6.410158 2.496094 Z M 6.410158 2.496094 " transform="matrix(0.666667,0,0,0.666667,0,0)"/>
<g clip-path="url(#clip1)" clip-rule="nonzero">
<g clip-path="url(#clip2)" clip-rule="nonzero">
<path style=" stroke:none;fill-rule:nonzero;fill:rgb(95.686275%,69.01961%,0%);fill-opacity:1;" d="M 16 8.664062 C 16 8.664062 20.664062 8.757812 20.664062 12 L 20.664062 14.664062 C 20.664062 14.664062 22 14.601562 22 15.335938 L 22 22.164062 C 22 22.78125 21.390625 23.335938 20.710938 23.335938 L 11.289062 23.335938 C 10.613281 23.335938 10 22.78125 10 22.164062 L 10 15.335938 C 10 14.601562 11.335938 14.664062 11.335938 14.664062 L 11.335938 12 C 11.367188 8.75 16 8.664062 16 8.664062 M 16 10.664062 C 16 10.664062 13.335938 10.5625 13.335938 13 L 13.335938 14.664062 L 18.664062 14.664062 L 18.664062 13 C 18.664062 10.5625 16 10.664062 16 10.664062 M 16 10.664062 "/>
</g>
</g>
</g>
</svg>
