
<svg xmlns="http://www.w3.org/2000/svg" xmlns:xlink="http://www.w3.org/1999/xlink" width="32px" height="32px" viewBox="0 0 32 32" version="1.1">
<g id="surface1">
<path style="fill-rule:nonzero;fill:rgb(100%,100%,100%);fill-opacity:1;stroke-width:28.191782;stroke-linecap:butt;stroke-linejoin:miter;stroke:rgb(91.764706%,35.686275%,32.549021%);stroke-opacity:1;stroke-miterlimit:4;" d="M -223.035653 -29.344799 L 125.968952 -29.344799 C 157.084552 -29.344799 182.316951 -4.047031 182.316951 27.0032 L 182.316951 376.073174 C 182.316951 407.188775 157.084552 432.486542 125.968952 432.486542 L -223.035653 432.486542 C -254.216623 432.486542 -279.449021 407.188775 -279.449021 376.073174 L -279.449021 27.0032 C -279.449021 -4.047031 -254.216623 -29.344799 -223.035653 -29.344799 Z M -223.035653 -29.344799 " transform="matrix(0.059757,0,0,0.059757,18.913879,3.968401)"/>
<path style=" stroke:none;fill-rule:nonzero;fill:rgb(91.764706%,35.686275%,32.549021%);fill-opacity:1;" d="M 20.265625 5.890625 C 15.945312 3.398438 10.414062 4.875 7.921875 9.199219 C 5.421875 13.523438 6.90625 19.050781 11.226562 21.546875 C 15.550781 24.042969 21.078125 22.5625 23.574219 18.238281 C 26.070312 13.914062 24.589844 8.390625 20.265625 5.890625 M 18.460938 9.023438 C 21.050781 10.519531 21.941406 13.835938 20.445312 16.429688 C 18.945312 19.023438 15.628906 19.914062 13.035156 18.414062 C 10.445312 16.917969 9.554688 13.601562 11.050781 11.007812 C 12.546875 8.414062 15.867188 7.523438 18.460938 9.023438 M 18.460938 9.023438 "/>
<path style=" stroke:none;fill-rule:nonzero;fill:rgb(92.54902%,92.54902%,87.058824%);fill-opacity:1;" d="M 20.265625 5.890625 C 19.109375 5.222656 17.859375 4.851562 16.609375 4.734375 L 16.589844 8.378906 C 17.226562 8.480469 17.867188 8.679688 18.460938 9.023438 C 19.054688 9.367188 19.542969 9.820312 19.953125 10.320312 L 23.097656 8.484375 C 22.367188 7.460938 21.421875 6.5625 20.265625 5.890625 M 20.265625 5.890625 "/>
<path style=" stroke:none;fill-rule:nonzero;fill:rgb(92.54902%,92.54902%,87.058824%);fill-opacity:1;" d="M 10.511719 6.367188 C 9.488281 7.097656 8.585938 8.042969 7.921875 9.199219 C 7.25 10.359375 6.882812 11.609375 6.765625 12.859375 L 10.40625 12.875 C 10.507812 12.238281 10.710938 11.601562 11.050781 11.007812 C 11.390625 10.414062 11.84375 9.921875 12.347656 9.515625 M 10.511719 6.367188 "/>
<path style="fill:none;stroke-width:33.274746;stroke-linecap:butt;stroke-linejoin:miter;stroke:rgb(82.745099%,55.29412%,37.254903%);stroke-opacity:1;stroke-miterlimit:4;" d="M 70.393207 848.577809 C 70.393207 848.577809 60.195657 858.70999 76.668622 925.843859 C 89.480929 977.877511 89.480929 967.810699 112.033202 971.732833 C 170.2769 981.930383 195.44393 886.622514 225.905841 887.929892 C 281.534783 890.217804 241.855855 1049.587204 296.504263 1039.128178 C 352.721525 1028.407677 254.929637 892.440347 306.571075 867.730899 C 358.735464 842.825345 447.767918 968.595126 447.767918 968.595126 " transform="matrix(0.059757,0,0,0.059757,0.715388,-35.767059)"/>
<path style=" stroke:none;fill-rule:nonzero;fill:rgb(92.54902%,92.54902%,87.058824%);fill-opacity:1;" d="M 11.546875 17.117188 L 8.398438 18.953125 C 9.125 19.976562 10.070312 20.875 11.226562 21.546875 C 12.386719 22.214844 13.636719 22.585938 14.886719 22.703125 L 14.90625 19.058594 C 14.265625 18.957031 13.628906 18.757812 13.035156 18.414062 C 12.445312 18.070312 11.953125 17.621094 11.546875 17.117188 M 11.546875 17.117188 "/>
<path style=" stroke:none;fill-rule:nonzero;fill:rgb(92.54902%,92.54902%,87.058824%);fill-opacity:1;" d="M 24.730469 14.578125 L 21.085938 14.5625 C 20.984375 15.199219 20.789062 15.835938 20.445312 16.429688 C 20.101562 17.023438 19.648438 17.515625 19.148438 17.921875 L 20.984375 21.070312 C 22.007812 20.34375 22.90625 19.398438 23.574219 18.238281 C 24.242188 17.078125 24.609375 15.828125 24.730469 14.578125 M 24.730469 14.578125 "/>
</g>
</svg>
