<svg xmlns="http://www.w3.org/2000/svg" width="64" height="64"><path style="stroke:none;fill-rule:nonzero;fill:#1a1a1a;fill-opacity:1" d="M16.414 58.906h8.73c.09 0 .169.137.169.309v3.789c0 .172-.079.312-.168.312h-8.73c-.095 0-.165-.14-.165-.312v-3.79c0-.171.07-.308.164-.308zm22.441 0h8.73c.09 0 .165.137.165.309v3.789c0 .172-.074.312-.164.312h-8.73c-.09 0-.169-.14-.169-.312v-3.79c0-.171.079-.308.168-.308zm0 0"/><path style="stroke:none;fill-rule:nonzero;fill:#4d4d4d;fill-opacity:1" d="M15.855.684h32.29c.14 0 .253.128.253.289v59.41c0 .156-.113.285-.253.285h-32.29c-.14 0-.253-.129-.253-.285V.973c0-.16.113-.29.253-.29zm0 0"/><path style="stroke:none;fill-rule:nonzero;fill:#b3b3b3;fill-opacity:1" d="M17.578 26.625h2.95c.14 0 .25.125.25.285v30.23c0 .157-.11.286-.25.286h-2.95c-.137 0-.25-.13-.25-.285V26.91c0-.161.113-.286.25-.286zm5.18 0h2.945c.14 0 .254.125.254.285v30.23c0 .157-.113.286-.254.286h-2.945c-.14 0-.254-.13-.254-.285V26.91c0-.161.113-.286.254-.286zm5.18 0h2.945c.14 0 .254.125.254.285v30.23c0 .157-.114.286-.254.286h-2.945c-.141 0-.254-.13-.254-.285V26.91c0-.161.113-.286.253-.286zm5.179 0h2.946c.14 0 .253.125.253.285v30.23c0 .157-.113.286-.254.286h-2.945c-.14 0-.254-.13-.254-.285V26.91c0-.161.114-.286.254-.286zm5.18 0h2.945c.14 0 .254.125.254.285v30.23c0 .157-.113.286-.254.286h-2.945c-.14 0-.254-.13-.254-.285V26.91c0-.161.113-.286.254-.286zm5.176 0h2.949c.137 0 .25.125.25.285v30.23c0 .157-.113.286-.25.286h-2.95c-.136 0-.253-.13-.253-.285V26.91c0-.161.117-.286.254-.286zm0 0"/><path style="stroke:none;fill-rule:nonzero;fill:red;fill-opacity:1" d="M46.387 3.918a.873.873 0 0 1-.864.883.873.873 0 0 1-.863-.883c0-.488.387-.883.863-.883.477 0 .864.395.864.883zm0 0"/><path style="stroke:none;fill-rule:nonzero;fill:green;fill-opacity:1" d="M46.672 6.86c0 .648-.516 1.175-1.149 1.175a1.165 1.165 0 0 1-1.152-1.176c0-.648.516-1.175 1.152-1.175.633 0 1.149.527 1.149 1.175zm0 0"/><path style="stroke:none;fill-rule:nonzero;fill:#fff;fill-opacity:1" d="M46.672 9.8c0 .65-.516 1.177-1.149 1.177A1.165 1.165 0 0 1 44.371 9.8c0-.649.516-1.176 1.152-1.176.633 0 1.149.527 1.149 1.176zm0 0"/><path style="stroke:none;fill-rule:nonzero;fill:#000;fill-opacity:1" d="M42.836 4.254a.532.532 0 0 1-.016.117.279.279 0 0 1-.047.09.243.243 0 0 1-.074.055.27.27 0 0 1-.097.015.236.236 0 0 1-.094-.015.204.204 0 0 1-.074-.055.368.368 0 0 1-.066-.207.37.37 0 0 1 .015-.117.279.279 0 0 1 .047-.09.194.194 0 0 1 .074-.05.277.277 0 0 1 .101-.02c.032 0 .063.007.09.02a.194.194 0 0 1 .075.05.368.368 0 0 1 .066.207zm-.375 0c0 .066.008.117.031.152.024.035.059.051.11.051.05 0 .086-.016.109-.05a.317.317 0 0 0 .031-.153.317.317 0 0 0-.031-.152c-.023-.036-.059-.051-.11-.051-.05 0-.085.015-.109.05a.286.286 0 0 0-.031.153zm.863.269v-.347c0-.04-.008-.07-.023-.094-.016-.02-.043-.031-.082-.031a.182.182 0 0 0-.067.011.135.135 0 0 0-.043.04.15.15 0 0 0-.023.062.488.488 0 0 0-.008.082v.277h-.086v-.539h.07l.012.075h.008c.008-.012.016-.024.027-.036a.215.215 0 0 1 .036-.027c.015-.008.03-.012.042-.016.016-.003.032-.003.047-.003.059 0 .106.015.133.046.031.032.047.082.047.149v.351zm-.586 5.825a.38.38 0 0 1-.015.12.258.258 0 0 1-.047.087.204.204 0 0 1-.074.054.272.272 0 0 1-.098.02.236.236 0 0 1-.094-.02.243.243 0 0 1-.074-.054.258.258 0 0 1-.047-.086.375.375 0 0 1-.02-.121c0-.043.008-.082.016-.118a.258.258 0 0 1 .047-.085.243.243 0 0 1 .074-.055.277.277 0 0 1 .102-.02c.031 0 .062.008.09.02a.176.176 0 0 1 .074.055.17.17 0 0 1 .047.085.4.4 0 0 1 .02.118zm-.375 0c0 .07.012.12.032.156.023.035.062.05.109.05.05 0 .09-.015.11-.05a.323.323 0 0 0 .03-.156.317.317 0 0 0-.03-.153.129.129 0 0 0-.11-.05c-.05 0-.086.02-.11.05a.317.317 0 0 0-.03.153zm.766-.2h-.121v.47h-.09v-.47h-.094v-.035l.094-.035v-.047c0-.035.004-.062.012-.086a.126.126 0 0 1 .03-.054.107.107 0 0 1 .052-.028.19.19 0 0 1 .07-.011c.02 0 .035.003.05.007a.64.64 0 0 1 .044.012l-.024.07c-.007-.004-.02-.007-.03-.011-.013 0-.028-.004-.04-.004s-.023.004-.031.004c-.012.004-.02.008-.024.015a.088.088 0 0 0-.015.035c-.004.012-.004.028-.004.051v.051h.12zm.336 0h-.117v.47h-.09v-.47h-.098v-.035l.098-.035v-.047c0-.035 0-.062.008-.086a.183.183 0 0 1 .03-.054.129.129 0 0 1 .052-.028.19.19 0 0 1 .07-.011.23.23 0 0 1 .055.007l.043.012-.024.07-.035-.011c-.012 0-.023-.004-.035-.004-.016 0-.027.004-.035.004a.082.082 0 0 0-.024.015c-.008.008-.011.02-.011.035-.004.012-.004.028-.004.051v.051h.117zM41.91 6.77c.012 0 .024.003.035.003.012 0 .02.004.028.004l-.012.082c-.008 0-.02-.004-.027-.004-.012 0-.02-.003-.028-.003a.117.117 0 0 0-.054.015.107.107 0 0 0-.047.035.179.179 0 0 0-.028.055c-.007.023-.007.047-.007.07v.29h-.09V6.78h.074l.008.098h.004c.007-.012.015-.027.027-.04a.253.253 0 0 1 .031-.034.352.352 0 0 1 .04-.024.083.083 0 0 1 .046-.011zm.39.558a.272.272 0 0 1-.097-.02.208.208 0 0 1-.078-.05.258.258 0 0 1-.047-.086.395.395 0 0 1-.004-.238.258.258 0 0 1 .117-.145.232.232 0 0 1 .09-.02c.032 0 .063.008.086.02a.204.204 0 0 1 .067.047c.02.023.03.047.043.078a.394.394 0 0 1 .011.098v.054h-.336c0 .063.016.11.04.141.023.027.062.043.113.043.015 0 .027 0 .043-.004.015 0 .027 0 .043-.004l.035-.012a.183.183 0 0 0 .039-.02v.083l-.04.016c-.01.003-.023.007-.034.007-.016.004-.028.008-.043.008-.016.004-.032.004-.047.004zm-.019-.484a.114.114 0 0 0-.09.039.184.184 0 0 0-.039.11h.243c0-.02-.004-.04-.008-.06a.13.13 0 0 0-.02-.046.253.253 0 0 0-.035-.032.108.108 0 0 0-.05-.011zm.679.328a.16.16 0 0 1-.015.066.152.152 0 0 1-.105.078.26.26 0 0 1-.082.012.305.305 0 0 1-.094-.012.167.167 0 0 1-.066-.023v-.082c.007.008.02.012.03.016.013.007.028.011.04.015.016.004.027.008.043.008a.19.19 0 0 0 .047.004c.02 0 .035 0 .05-.004a.117.117 0 0 0 .04-.016c.007-.007.015-.015.02-.023a.108.108 0 0 0 .003-.035c0-.008 0-.02-.004-.028a.136.136 0 0 0-.055-.047l-.054-.027c-.024-.008-.047-.02-.067-.027a.243.243 0 0 1-.046-.035.101.101 0 0 1-.028-.043.113.113 0 0 1-.012-.055c0-.023.004-.043.012-.062a.135.135 0 0 1 .04-.043.204.204 0 0 1 .058-.028.305.305 0 0 1 .164 0c.023.008.05.016.074.028l-.031.07-.067-.024a.198.198 0 0 0-.066-.011.12.12 0 0 0-.074.02c-.016.011-.024.023-.024.042 0 .012 0 .024.004.032a.104.104 0 0 0 .02.023.138.138 0 0 0 .039.023l.055.028c.023.008.043.02.062.027.02.012.035.024.047.035a.153.153 0 0 1 .031.04.13.13 0 0 1 .012.058zm.353.156a.272.272 0 0 1-.098-.02.244.244 0 0 1-.078-.05.258.258 0 0 1-.047-.086.368.368 0 0 1-.02-.117c0-.043.008-.086.016-.121a.258.258 0 0 1 .117-.145.232.232 0 0 1 .09-.02c.035 0 .062.008.086.02a.191.191 0 0 1 .11.125.394.394 0 0 1 .011.098v.054h-.336c.004.063.016.11.04.141a.15.15 0 0 0 .112.043c.016 0 .032 0 .043-.004.016 0 .032 0 .043-.004l.035-.012a.122.122 0 0 0 .04-.02v.083c-.012.004-.024.012-.04.016-.011.003-.023.007-.035.007a.14.14 0 0 1-.043.008c-.011.004-.027.004-.047.004zm-.02-.484a.12.12 0 0 0-.09.039.214.214 0 0 0-.039.11h.242c0-.02-.004-.04-.008-.06-.003-.019-.007-.035-.02-.046a.092.092 0 0 0-.034-.032.108.108 0 0 0-.051-.011zm.523.41h.016c.008 0 .016 0 .023-.004.008 0 .012 0 .02-.004.004 0 .008 0 .012-.004v.07c-.004 0-.008.004-.016.004-.008.004-.012.008-.02.008h-.027c-.008.004-.015.004-.023.004a.301.301 0 0 1-.059-.008.101.101 0 0 1-.043-.027.16.16 0 0 1-.031-.05c-.008-.024-.008-.052-.008-.083v-.312h-.078v-.04l.078-.038.04-.114h.05v.125h.133v.067h-.133v.312c0 .031.004.055.016.07.007.016.027.024.05.024zm0 0"/><path style="stroke:none;fill-rule:nonzero;fill:#2a7fff;fill-opacity:1" d="M17.328 17.887v7.625c0 .175.113.312.25.312h2.95c.14 0 .25-.137.25-.312v-7.625zm5.176 0v7.625c0 .175.113.312.254.312h2.945c.14 0 .254-.137.254-.312v-7.625zm5.18 0v7.625c0 .175.113.312.253.312h2.946c.14 0 .254-.137.254-.312v-7.625zm5.18 0v7.625c0 .175.113.312.253.312h2.946c.14 0 .253-.137.253-.312v-7.625zm5.179 0v7.625c0 .175.113.312.254.312h2.945c.14 0 .254-.137.254-.312v-7.625zm5.176 0v7.625c0 .175.113.312.254.312h2.949c.137 0 .25-.137.25-.312v-7.625zm0 0"/><path style="stroke:none;fill-rule:nonzero;fill:#fff;fill-opacity:1" d="M18.012 18.328c-.14 0-.254.137-.254.313v1.136c0 .176.113.313.254.313h2.082c.14 0 .254-.137.254-.313v-1.136c0-.176-.114-.313-.254-.313zm5.18 0c-.141 0-.255.137-.255.313v1.136c0 .176.114.313.254.313h2.082c.141 0 .254-.137.254-.313v-1.136c0-.176-.113-.313-.254-.313zm5.175 0c-.137 0-.25.137-.25.313v1.136c0 .176.113.313.25.313h2.086c.14 0 .25-.137.25-.313v-1.136c0-.176-.11-.313-.25-.313zm5.18 0c-.14 0-.25.137-.25.313v1.136c0 .176.11.313.25.313h2.086c.137 0 .25-.137.25-.313v-1.136c0-.176-.113-.313-.25-.313zm5.18 0c-.141 0-.254.137-.254.313v1.136c0 .176.113.313.254.313h2.082c.14 0 .254-.137.254-.313v-1.136c0-.176-.114-.313-.254-.313zm5.18 0c-.141 0-.255.137-.255.313v1.136c0 .176.114.313.254.313h2.082c.14 0 .254-.137.254-.313v-1.136c0-.176-.113-.313-.254-.313zm-25.895 5.293c-.14 0-.254.137-.254.309v1.14c0 .176.113.313.254.313h2.082c.14 0 .254-.137.254-.313v-1.14c0-.172-.114-.309-.254-.309zm5.18 0c-.141 0-.255.137-.255.309v1.14c0 .176.114.313.254.313h2.082c.141 0 .254-.137.254-.313v-1.14c0-.172-.113-.309-.254-.309zm5.175 0c-.137 0-.25.137-.25.309v1.14c0 .176.113.313.25.313h2.086c.14 0 .25-.137.25-.313v-1.14c0-.172-.11-.309-.25-.309zm5.18 0c-.14 0-.25.137-.25.309v1.14c0 .176.11.313.25.313h2.086c.137 0 .25-.137.25-.313v-1.14c0-.172-.113-.309-.25-.309zm5.18 0c-.141 0-.254.137-.254.309v1.14c0 .176.113.313.254.313h2.082c.14 0 .254-.137.254-.313v-1.14c0-.172-.114-.309-.254-.309zm5.18 0c-.141 0-.255.137-.255.309v1.14c0 .176.114.313.254.313h2.082c.14 0 .254-.137.254-.313v-1.14c0-.172-.113-.309-.254-.309zm0 0"/><path style="stroke:none;fill-rule:nonzero;fill:#333;fill-opacity:1" d="M17.328 31.559v7.628c0 .172.113.31.25.31h2.95c.14 0 .25-.138.25-.31V31.56zm5.176 0v7.628c0 .172.113.31.254.31h2.945c.14 0 .254-.138.254-.31V31.56zm5.18 0v7.628c0 .172.113.31.253.31h2.946c.14 0 .254-.138.254-.31V31.56zm5.18 0v7.628c0 .172.113.31.253.31h2.946c.14 0 .253-.138.253-.31V31.56zm5.179 0v7.628c0 .172.113.31.254.31h2.945c.14 0 .254-.138.254-.31V31.56zm5.176 0v7.628c0 .172.113.31.254.31h2.949c.137 0 .25-.138.25-.31V31.56zm0 0"/><path style="stroke:none;fill-rule:nonzero;fill:#fff;fill-opacity:1" d="M18.012 32c-.14 0-.254.14-.254.313v1.14c0 .172.113.313.254.313h2.082c.14 0 .254-.141.254-.313v-1.14c0-.172-.114-.313-.254-.313zm5.18 0c-.141 0-.255.14-.255.313v1.14c0 .172.114.313.254.313h2.082c.141 0 .254-.141.254-.313v-1.14c0-.172-.113-.313-.254-.313zm5.175 0c-.137 0-.25.14-.25.313v1.14c0 .172.113.313.25.313h2.086c.14 0 .25-.141.25-.313v-1.14c0-.172-.11-.313-.25-.313zm5.18 0c-.14 0-.25.14-.25.313v1.14c0 .172.11.313.25.313h2.086c.137 0 .25-.141.25-.313v-1.14c0-.172-.113-.313-.25-.313zm5.18 0c-.141 0-.254.14-.254.313v1.14c0 .172.113.313.254.313h2.082c.14 0 .254-.141.254-.313v-1.14c0-.172-.114-.313-.254-.313zm5.18 0c-.141 0-.255.14-.255.313v1.14c0 .172.114.313.254.313h2.082c.14 0 .254-.141.254-.313v-1.14c0-.172-.113-.313-.254-.313zm-25.895 5.293c-.14 0-.254.14-.254.312v1.141c0 .172.113.313.254.313h2.082c.14 0 .254-.141.254-.313v-1.14c0-.172-.114-.313-.254-.313zm5.18 0c-.141 0-.255.14-.255.312v1.141c0 .172.114.313.254.313h2.082c.141 0 .254-.141.254-.313v-1.14c0-.172-.113-.313-.254-.313zm5.175 0c-.137 0-.25.14-.25.312v1.141c0 .172.113.313.25.313h2.086c.14 0 .25-.141.25-.313v-1.14c0-.172-.11-.313-.25-.313zm5.18 0c-.14 0-.25.14-.25.312v1.141c0 .172.11.313.25.313h2.086c.137 0 .25-.141.25-.313v-1.14c0-.172-.113-.313-.25-.313zm5.18 0c-.141 0-.254.14-.254.312v1.141c0 .172.113.313.254.313h2.082c.14 0 .254-.141.254-.313v-1.14c0-.172-.114-.313-.254-.313zm5.18 0c-.141 0-.255.14-.255.312v1.141c0 .172.114.313.254.313h2.082c.14 0 .254-.141.254-.313v-1.14c0-.172-.113-.313-.254-.313zm0 0"/><path style="stroke:none;fill-rule:nonzero;fill:#0f0;fill-opacity:1" d="M25.527 34.648a.436.436 0 0 1-.433.438.433.433 0 0 1-.43-.438c0-.246.191-.441.43-.441.238 0 .433.195.433.441zm-5.179 0a.435.435 0 0 1-.43.438.436.436 0 0 1-.434-.438c0-.246.196-.441.434-.441.234 0 .43.195.43.441zm10.355 0a.433.433 0 0 1-.43.438.433.433 0 0 1-.43-.438c0-.246.192-.441.43-.441.239 0 .43.195.43.441zm5.18 0a.433.433 0 0 1-.43.438.436.436 0 0 1-.433-.438c0-.246.195-.441.433-.441s.43.195.43.441zm5.18 0a.433.433 0 0 1-.43.438.436.436 0 0 1-.434-.438c0-.246.196-.441.434-.441s.43.195.43.441zm5.179 0a.436.436 0 0 1-.433.438.433.433 0 0 1-.43-.438c0-.246.191-.441.43-.441.238 0 .433.195.433.441zM25.527 20.973a.44.44 0 0 1-.433.441c-.239 0-.43-.2-.43-.441 0-.243.191-.442.43-.442.238 0 .433.2.433.442zm-5.179 0a.439.439 0 0 1-.43.441.44.44 0 0 1-.434-.441.44.44 0 0 1 .434-.442c.234 0 .43.2.43.442zm10.355 0a.436.436 0 0 1-.43.441c-.238 0-.43-.2-.43-.441 0-.243.192-.442.43-.442.239 0 .43.2.43.442zm5.18 0a.436.436 0 0 1-.43.441.44.44 0 0 1-.433-.441.44.44 0 0 1 .433-.442c.238 0 .43.2.43.442zm5.18 0a.436.436 0 0 1-.43.441.44.44 0 0 1-.434-.441.44.44 0 0 1 .434-.442c.238 0 .43.2.43.442zm5.179 0a.44.44 0 0 1-.433.441c-.239 0-.43-.2-.43-.441 0-.243.191-.442.43-.442.238 0 .433.2.433.442zm0 0"/><path style="fill-rule:nonzero;fill:#ccc;fill-opacity:1;stroke-width:1;stroke-linecap:butt;stroke-linejoin:miter;stroke:#3b3434;stroke-opacity:1;stroke-miterlimit:4" d="M133.906 26.656h175.125c1.219 0 2.219 1.282 2.219 2.875v100.094c0 1.594-1 2.875-2.219 2.875H133.906c-1.219 0-2.187-1.281-2.187-2.875V29.531c0-1.593.969-2.875 2.187-2.875zm0 0" transform="scale(.125)"/><path style="stroke:none;fill-rule:nonzero;fill:#0f0;fill-opacity:1" d="M17.578 4.215H37.79c.14 0 .254.137.254.308v10.844c0 .172-.113.313-.254.313H17.58c-.138 0-.25-.14-.25-.313V4.523c0-.171.112-.308.25-.308zm0 0"/><path style="stroke:none;fill-rule:nonzero;fill:#000;fill-opacity:1" d="M22.113 7.512a1.742 1.742 0 0 1-.793.187c-.32 0-.57-.094-.758-.277-.187-.188-.28-.442-.28-.762s.097-.574.284-.762c.192-.183.45-.277.782-.277a1.512 1.512 0 0 1 .695.148v.415a1.485 1.485 0 0 0-.316-.141 1.156 1.156 0 0 0-.32-.047c-.196 0-.348.055-.454.172-.105.113-.16.277-.16.492 0 .215.05.38.152.492.106.118.25.172.438.172.055 0 .101-.004.144-.008.043-.007.082-.02.121-.03v-.391h-.304v-.348h.77zm.485-1.856h.55l.696 1.375V5.656h.468V7.66h-.55l-.696-1.375V7.66h-.468zm2.246 0h.496V6.86c0 .164.023.282.074.356.05.07.137.105.254.105.117 0 .203-.035.254-.105.05-.074.078-.192.078-.356V5.656h.496V6.86c0 .282-.07.496-.207.633-.137.14-.344.207-.621.207s-.484-.066-.621-.207c-.137-.137-.203-.351-.203-.633zm2.613 0h.285l-.676 2.262h-.28zm.531-.086h.457v2.09h-.457zm.918.586h.461V7.66h-.46zm0-.586h.461v.395h-.46zm2.364 1.176v.914h-.461v-.7c0-.132 0-.218-.008-.269a.316.316 0 0 0-.028-.109.183.183 0 0 0-.074-.07.193.193 0 0 0-.105-.028.265.265 0 0 0-.227.118.54.54 0 0 0-.082.32v.738h-.457V6.156h.457v.223a.711.711 0 0 1 .219-.195.54.54 0 0 1 .262-.063c.164 0 .289.05.375.16.086.106.129.262.129.465zm.453.328v-.918h.46v.703c0 .121 0 .211.008.262a.25.25 0 0 0 .032.117c.02.032.043.055.074.074a.21.21 0 0 0 .105.024c.094 0 .168-.04.223-.113a.56.56 0 0 0 .082-.325v-.742h.461V7.66h-.461v-.215a.661.661 0 0 1-.219.192.52.52 0 0 1-.254.062c-.168 0-.293-.05-.382-.16-.086-.105-.13-.262-.13-.465zm2.293-.184-.52-.734h.484l.293.446.301-.446h.485l-.52.735.547.77h-.488l-.325-.473-.316.472h-.488zM22.895 9.637V10a1.517 1.517 0 0 0-.286-.094 1.07 1.07 0 0 0-.257-.035.414.414 0 0 0-.196.035.112.112 0 0 0-.062.106c0 .039.015.066.047.09a.43.43 0 0 0 .172.043l.082.011c.234.035.39.086.472.156.082.075.121.184.121.336 0 .16-.054.282-.168.364-.113.078-.28.12-.504.12-.097 0-.195-.007-.296-.023a2.326 2.326 0 0 1-.31-.07v-.367a1.223 1.223 0 0 0 .575.14c.09 0 .156-.015.2-.039a.129.129 0 0 0 .07-.117c0-.043-.016-.074-.047-.094a.438.438 0 0 0-.188-.05l-.082-.012c-.203-.023-.343-.074-.425-.148-.083-.07-.125-.184-.125-.329 0-.16.05-.277.156-.355.105-.078.265-.117.48-.117.082 0 .172.008.266.023.094.012.195.031.305.063zm1.91.699v.137H23.73c.012.113.051.199.118.254.066.058.16.085.28.085.095 0 .196-.015.298-.046.101-.028.203-.075.312-.137V11a1.776 1.776 0 0 1-.652.133c-.262 0-.461-.07-.606-.207-.144-.14-.214-.336-.214-.582 0-.246.07-.442.21-.582.141-.14.337-.211.583-.211.226 0 .406.074.543.215.136.144.203.332.203.57zm-.473-.16a.31.31 0 0 0-.074-.219.25.25 0 0 0-.2-.086.312.312 0 0 0-.218.078.371.371 0 0 0-.102.227zM26.258 10a.448.448 0 0 0-.121-.043.403.403 0 0 0-.117-.016.338.338 0 0 0-.274.118.549.549 0 0 0-.094.34v.695h-.46V9.59h.46v.246a.57.57 0 0 1 .203-.215.508.508 0 0 1 .325-.066c.015 0 .043.004.078.008zm.078-.41h.457l.36 1.039.355-1.04h.46l-.566 1.505h-.504zm1.934 0h.457v1.504h-.457zm0-.586h.457v.39h-.457zm2.351 1.332v.137h-1.074c.012.113.05.199.117.254.066.058.16.085.281.085.094 0 .196-.015.297-.046.102-.028.203-.075.313-.137V11a1.823 1.823 0 0 1-.653.133c-.261 0-.46-.07-.605-.207-.145-.14-.215-.336-.215-.582 0-.246.07-.442.211-.582.14-.14.336-.211.582-.211.227 0 .406.074.543.215.137.144.203.332.203.57zm-.473-.16a.31.31 0 0 0-.074-.219.25.25 0 0 0-.199-.086.312.312 0 0 0-.219.078.371.371 0 0 0-.101.227zM32.074 10a.448.448 0 0 0-.12-.043.403.403 0 0 0-.118-.016.338.338 0 0 0-.273.118.549.549 0 0 0-.094.34v.695h-.461V9.59h.46v.246a.518.518 0 0 1 .527-.281c.02 0 .044.004.08.008zm1.383-.363V10a1.517 1.517 0 0 0-.285-.094 1.07 1.07 0 0 0-.258-.035.414.414 0 0 0-.195.035.112.112 0 0 0-.063.106c0 .039.016.066.047.09a.43.43 0 0 0 .172.043l.082.011c.234.035.39.086.473.156.082.075.12.184.12.336 0 .16-.054.282-.167.364-.113.078-.281.12-.504.12-.098 0-.195-.007-.297-.023a2.326 2.326 0 0 1-.309-.07v-.367a1.223 1.223 0 0 0 .575.14c.09 0 .156-.015.199-.039a.129.129 0 0 0 .07-.117c0-.043-.015-.074-.047-.094a.438.438 0 0 0-.187-.05L32.8 10.5c-.203-.023-.344-.074-.426-.148-.082-.07-.125-.184-.125-.329 0-.16.05-.277.156-.355.106-.078.266-.117.48-.117.083 0 .173.008.266.023.094.012.196.031.305.063zM23.012 13.43a.603.603 0 0 0-.238-.059.336.336 0 0 0-.274.121c-.063.078-.094.192-.094.34v.691h-.46V13.02h.46v.246a.57.57 0 0 1 .203-.215.545.545 0 0 1 .274-.067h.047l.078.012zm.242.508v-.918h.46v.703c0 .12 0 .21.009.261a.25.25 0 0 0 .03.118c.02.03.044.054.075.074a.21.21 0 0 0 .106.023.255.255 0 0 0 .222-.113.56.56 0 0 0 .082-.324v-.742h.461v1.503h-.46v-.214a.701.701 0 0 1-.22.191.52.52 0 0 1-.253.063c-.168 0-.297-.051-.383-.16-.086-.106-.13-.262-.13-.466zm3.371-.328v.913h-.46v-.699a1.98 1.98 0 0 0-.013-.27.247.247 0 0 0-.027-.109.162.162 0 0 0-.074-.07.177.177 0 0 0-.106-.027.258.258 0 0 0-.222.117.548.548 0 0 0-.082.32v.738h-.461V13.02h.46v.222a.705.705 0 0 1 .22-.195.525.525 0 0 1 .257-.063c.168 0 .293.055.38.16.085.106.128.262.128.465zm1.91 0v.913h-.46v-.699c0-.129-.005-.219-.009-.27a.44.44 0 0 0-.027-.109.183.183 0 0 0-.074-.07.193.193 0 0 0-.106-.027.26.26 0 0 0-.226.117.548.548 0 0 0-.082.32v.738h-.457V13.02h.457v.222a.766.766 0 0 1 .219-.195.53.53 0 0 1 .261-.063c.164 0 .29.055.375.16.086.106.13.262.13.465zm.469-.59h.46v1.503h-.46zm0-.586h.46v.394h-.46zm2.363 1.176v.913h-.46v-.699c0-.129 0-.219-.009-.27a.316.316 0 0 0-.027-.109.183.183 0 0 0-.074-.07.193.193 0 0 0-.106-.027.265.265 0 0 0-.226.117.547.547 0 0 0-.082.32v.738h-.457V13.02h.457v.222a.766.766 0 0 1 .219-.195.54.54 0 0 1 .261-.063c.164 0 .29.055.375.16.086.106.13.262.13.465zm1.446.66a.646.646 0 0 1-.208.195.578.578 0 0 1-.265.058.526.526 0 0 1-.434-.214c-.117-.145-.172-.329-.172-.555 0-.223.055-.406.172-.55a.526.526 0 0 1 .434-.216c.101 0 .187.02.265.063a.628.628 0 0 1 .208.191v-.222h.46v1.351c0 .242-.07.43-.218.555-.145.129-.356.191-.633.191-.09 0-.176-.008-.262-.02a1.971 1.971 0 0 1-.25-.066v-.375c.078.047.16.086.235.11a.812.812 0 0 0 .234.035c.148 0 .258-.035.328-.106.07-.066.105-.175.105-.324zm-.301-.938a.254.254 0 0 0-.223.113.509.509 0 0 0-.078.309c0 .14.023.246.074.316a.27.27 0 0 0 .227.106.26.26 0 0 0 .222-.11.551.551 0 0 0 .078-.312.537.537 0 0 0-.078-.309.264.264 0 0 0-.222-.113zm0 0"/><path style="stroke:none;fill-rule:nonzero;fill:#333;fill-opacity:1" d="M17.328 41.262v7.629c0 .172.113.312.25.312h2.95c.14 0 .25-.14.25-.312v-7.63zm5.176 0v7.629c0 .172.113.312.254.312h2.945c.14 0 .254-.14.254-.312v-7.63zm5.18 0v7.629c0 .172.113.312.253.312h2.946c.14 0 .254-.14.254-.312v-7.63zm5.18 0v7.629c0 .172.113.312.253.312h2.946c.14 0 .253-.14.253-.312v-7.63zm5.179 0v7.629c0 .172.113.312.254.312h2.945c.14 0 .254-.14.254-.312v-7.63zm5.176 0v7.629c0 .172.113.312.254.312h2.949c.137 0 .25-.14.25-.312v-7.63zm0 0"/><path style="stroke:none;fill-rule:nonzero;fill:#fff;fill-opacity:1" d="M18.012 41.703c-.14 0-.254.14-.254.313v1.14c0 .172.113.313.254.313h2.082c.14 0 .254-.14.254-.313v-1.14c0-.172-.114-.313-.254-.313zm5.18 0c-.141 0-.255.14-.255.313v1.14c0 .172.114.313.254.313h2.082c.141 0 .254-.14.254-.313v-1.14c0-.172-.113-.313-.254-.313zm5.175 0c-.137 0-.25.14-.25.313v1.14c0 .172.113.313.25.313h2.086c.14 0 .25-.14.25-.313v-1.14c0-.172-.11-.313-.25-.313zm5.18 0c-.14 0-.25.14-.25.313v1.14c0 .172.11.313.25.313h2.086c.137 0 .25-.14.25-.313v-1.14c0-.172-.113-.313-.25-.313zm5.18 0c-.141 0-.254.14-.254.313v1.14c0 .172.113.313.254.313h2.082c.14 0 .254-.14.254-.313v-1.14c0-.172-.114-.313-.254-.313zm5.18 0c-.141 0-.255.14-.255.313v1.14c0 .172.114.313.254.313h2.082c.14 0 .254-.14.254-.313v-1.14c0-.172-.113-.313-.254-.313zm-25.895 5.293c-.14 0-.254.14-.254.313v1.14c0 .172.113.313.254.313h2.082c.14 0 .254-.14.254-.313v-1.14c0-.172-.114-.313-.254-.313zm5.18 0c-.141 0-.255.14-.255.313v1.14c0 .172.114.313.254.313h2.082c.141 0 .254-.14.254-.313v-1.14c0-.172-.113-.313-.254-.313zm5.175 0c-.137 0-.25.14-.25.313v1.14c0 .172.113.313.25.313h2.086c.14 0 .25-.14.25-.313v-1.14c0-.172-.11-.313-.25-.313zm5.18 0c-.14 0-.25.14-.25.313v1.14c0 .172.11.313.25.313h2.086c.137 0 .25-.14.25-.313v-1.14c0-.172-.113-.313-.25-.313zm5.18 0c-.141 0-.254.14-.254.313v1.14c0 .172.113.313.254.313h2.082c.14 0 .254-.14.254-.313v-1.14c0-.172-.114-.313-.254-.313zm5.18 0c-.141 0-.255.14-.255.313v1.14c0 .172.114.313.254.313h2.082c.14 0 .254-.14.254-.313v-1.14c0-.172-.113-.313-.254-.313zm0 0"/><path style="stroke:none;fill-rule:nonzero;fill:#0f0;fill-opacity:1" d="M25.527 44.348a.437.437 0 0 1-.433.441.434.434 0 0 1-.43-.441c0-.243.191-.438.43-.438.238 0 .433.195.433.438zm-5.179 0a.436.436 0 0 1-.43.441.437.437 0 0 1-.434-.441c0-.243.196-.438.434-.438.234 0 .43.195.43.438zm10.355 0a.434.434 0 0 1-.43.441.434.434 0 0 1-.43-.441c0-.243.192-.438.43-.438.239 0 .43.195.43.438zm5.18 0a.434.434 0 0 1-.43.441.437.437 0 0 1-.433-.441c0-.243.195-.438.433-.438s.43.195.43.438zm5.18 0a.434.434 0 0 1-.43.441.437.437 0 0 1-.434-.441c0-.243.196-.438.434-.438s.43.195.43.438zm5.179 0a.437.437 0 0 1-.433.441.434.434 0 0 1-.43-.441c0-.243.191-.438.43-.438.238 0 .433.195.433.438zm0 0"/><path style="stroke:none;fill-rule:evenodd;fill:#e6e6e6;fill-opacity:1" d="M30.793 29.7h32.86v29.83h-32.86zm0 0"/><path style="fill:none;stroke-width:.3;stroke-linecap:butt;stroke-linejoin:miter;stroke:#b31d1d;stroke-opacity:1;stroke-miterlimit:4" d="m23.086 23.12.877-1.56.853 1.53" transform="matrix(1.27808 0 0 1.31459 4.166 2.157)"/><path style="fill:none;stroke-width:.3;stroke-linecap:butt;stroke-linejoin:miter;stroke:#b31d1d;stroke-opacity:1;stroke-miterlimit:4" d="m24.843 1027.482.878-1.56.852 1.53" transform="matrix(1.27808 0 0 1.31459 4.166 -1318.165)"/><path style="fill:none;stroke-width:.3;stroke-linecap:butt;stroke-linejoin:miter;stroke:#b31d1d;stroke-opacity:1;stroke-miterlimit:4" d="m23.087 23.121.877-1.563.853 1.534" transform="matrix(1.27808 0 0 1.31459 8.704 2.125)"/><path style="fill:none;stroke-width:.3;stroke-linecap:butt;stroke-linejoin:miter;stroke:#b31d1d;stroke-opacity:1;stroke-miterlimit:4" d="m24.841 1027.483.878-1.562.855 1.533" transform="matrix(1.27808 0 0 1.31459 8.704 -1318.198)"/><path style="fill:none;stroke-width:.3;stroke-linecap:butt;stroke-linejoin:miter;stroke:#b31d1d;stroke-opacity:1;stroke-miterlimit:4" d="m23.085 23.12.877-1.56.856 1.53" transform="matrix(1.27808 0 0 1.31459 13.183 2.09)"/><path style="fill:none;stroke-width:.3;stroke-linecap:butt;stroke-linejoin:miter;stroke:#b31d1d;stroke-opacity:1;stroke-miterlimit:4" d="m24.842 1027.482.878-1.56.855 1.53" transform="matrix(1.27808 0 0 1.31459 13.183 -1318.232)"/><path style="fill:none;stroke-width:.3;stroke-linecap:butt;stroke-linejoin:miter;stroke:#b31d1d;stroke-opacity:1;stroke-miterlimit:4" d="m23.086 23.121.877-1.563.853 1.534" transform="matrix(1.27808 0 0 1.31459 17.72 2.058)"/><path style="fill:none;stroke-width:.3;stroke-linecap:butt;stroke-linejoin:miter;stroke:#b31d1d;stroke-opacity:1;stroke-miterlimit:4" d="m24.843 1027.484.878-1.563.852 1.533" transform="matrix(1.27808 0 0 1.31459 17.72 -1318.264)"/><path style="fill:none;stroke-width:.3;stroke-linecap:butt;stroke-linejoin:miter;stroke:#b31d1d;stroke-opacity:1;stroke-miterlimit:4" d="m23.086 23.12.878-1.562.852 1.533" transform="matrix(1.27808 0 0 1.31459 22.2 2.028)"/><path style="fill:none;stroke-width:.3;stroke-linecap:butt;stroke-linejoin:miter;stroke:#b31d1d;stroke-opacity:1;stroke-miterlimit:4" d="m24.84 1027.483.878-1.563.856 1.533" transform="matrix(1.27808 0 0 1.31459 22.2 -1318.295)"/><path style="fill:none;stroke-width:.3;stroke-linecap:butt;stroke-linejoin:miter;stroke:#b31d1d;stroke-opacity:1;stroke-miterlimit:4" d="m23.084 23.122.878-1.563.855 1.53" transform="matrix(1.27808 0 0 1.31459 26.739 1.995)"/><path style="fill:none;stroke-width:.3;stroke-linecap:butt;stroke-linejoin:miter;stroke:#b31d1d;stroke-opacity:1;stroke-miterlimit:4" d="m24.842 1027.484.877-1.563.856 1.53" transform="matrix(1.27808 0 0 1.31459 26.739 -1318.328)"/><path style="fill:none;stroke-width:.3;stroke-linecap:butt;stroke-linejoin:miter;stroke:#b31d1d;stroke-opacity:1;stroke-miterlimit:4" d="m23.085 23.12.876-1.561.856 1.532" transform="matrix(0 -1.1367 1.33333 0 3.036 82.87)"/><path style="fill:none;stroke-width:.3;stroke-linecap:butt;stroke-linejoin:miter;stroke:#b31d1d;stroke-opacity:1;stroke-miterlimit:4" d="m24.84 1027.483.88-1.562.853 1.532" transform="matrix(0 -1.1367 1.33333 0 -1336.114 82.87)"/><path style="fill:none;stroke-width:.3;stroke-linecap:butt;stroke-linejoin:miter;stroke:#b31d1d;stroke-opacity:1;stroke-miterlimit:4" d="m23.084 23.122.88-1.561.852 1.529" transform="matrix(0 -1.1367 1.33333 0 3.003 78.833)"/><path style="fill:none;stroke-width:.3;stroke-linecap:butt;stroke-linejoin:miter;stroke:#b31d1d;stroke-opacity:1;stroke-miterlimit:4" d="m24.844 1027.484.876-1.561.852 1.529" transform="matrix(0 -1.1367 1.33333 0 -1336.147 78.833)"/><path style="fill:none;stroke-width:.3;stroke-linecap:butt;stroke-linejoin:miter;stroke:#b31d1d;stroke-opacity:1;stroke-miterlimit:4" d="m23.085 23.121.876-1.561.856 1.532" transform="matrix(0 -1.1367 1.33333 0 2.968 74.85)"/><path style="fill:none;stroke-width:.3;stroke-linecap:butt;stroke-linejoin:miter;stroke:#b31d1d;stroke-opacity:1;stroke-miterlimit:4" d="m24.841 1027.483.88-1.561.852 1.532" transform="matrix(0 -1.1367 1.33333 0 -1336.181 74.85)"/><path style="fill:none;stroke-width:.3;stroke-linecap:butt;stroke-linejoin:miter;stroke:#b31d1d;stroke-opacity:1;stroke-miterlimit:4" d="m23.084 23.12.88-1.562.852 1.533" transform="matrix(0 -1.1367 1.33333 0 2.935 70.814)"/><path style="fill:none;stroke-width:.3;stroke-linecap:butt;stroke-linejoin:miter;stroke:#b31d1d;stroke-opacity:1;stroke-miterlimit:4" d="m24.84 1027.482.88-1.561.852 1.532" transform="matrix(0 -1.1367 1.33333 0 -1336.214 70.814)"/><path style="fill:none;stroke-width:.3;stroke-linecap:butt;stroke-linejoin:miter;stroke:#b31d1d;stroke-opacity:1;stroke-miterlimit:4" d="m23.084 23.122.88-1.564.852 1.532" transform="matrix(0 -1.1367 1.33333 0 2.904 66.83)"/><path style="fill:none;stroke-width:.3;stroke-linecap:butt;stroke-linejoin:miter;stroke:#b31d1d;stroke-opacity:1;stroke-miterlimit:4" d="m24.84 1027.485.88-1.565.852 1.532" transform="matrix(0 -1.1367 1.33333 0 -1336.245 66.83)"/><path style="fill:none;stroke-width:.3;stroke-linecap:butt;stroke-linejoin:miter;stroke:#b31d1d;stroke-opacity:1;stroke-miterlimit:4" d="m23.087 23.121.877-1.561.852 1.532" transform="matrix(0 -1.1367 1.33333 0 2.871 62.794)"/><path style="fill:none;stroke-width:.3;stroke-linecap:butt;stroke-linejoin:miter;stroke:#b31d1d;stroke-opacity:1;stroke-miterlimit:4" d="m24.843 1027.483.877-1.561.852 1.532" transform="matrix(0 -1.1367 1.33333 0 -1336.278 62.794)"/><path style="fill:none;stroke-width:.3;stroke-linecap:butt;stroke-linejoin:miter;stroke:#b31d1d;stroke-opacity:1;stroke-miterlimit:4" d="m23.086 23.12.877-1.56.853 1.53" transform="matrix(1.27808 0 0 -1.31459 4.166 87.023)"/><path style="fill:none;stroke-width:.3;stroke-linecap:butt;stroke-linejoin:miter;stroke:#b31d1d;stroke-opacity:1;stroke-miterlimit:4" d="m24.843 1027.483.878-1.563.852 1.533" transform="matrix(1.27808 0 0 -1.31459 4.166 1407.345)"/><path style="fill:none;stroke-width:.3;stroke-linecap:butt;stroke-linejoin:miter;stroke:#b31d1d;stroke-opacity:1;stroke-miterlimit:4" d="m23.087 23.122.877-1.563.853 1.53" transform="matrix(1.27808 0 0 -1.31459 8.704 87.056)"/><path style="fill:none;stroke-width:.3;stroke-linecap:butt;stroke-linejoin:miter;stroke:#b31d1d;stroke-opacity:1;stroke-miterlimit:4" d="m24.841 1027.484.878-1.563.855 1.53" transform="matrix(1.27808 0 0 -1.31459 8.704 1407.378)"/><path style="fill:none;stroke-width:.3;stroke-linecap:butt;stroke-linejoin:miter;stroke:#b31d1d;stroke-opacity:1;stroke-miterlimit:4" d="m23.085 23.12.877-1.562.856 1.533" transform="matrix(1.27808 0 0 -1.31459 13.183 87.09)"/><path style="fill:none;stroke-width:.3;stroke-linecap:butt;stroke-linejoin:miter;stroke:#b31d1d;stroke-opacity:1;stroke-miterlimit:4" d="m24.842 1027.483.878-1.563.855 1.533" transform="matrix(1.27808 0 0 -1.31459 13.183 1407.412)"/><path style="fill:none;stroke-width:.3;stroke-linecap:butt;stroke-linejoin:miter;stroke:#b31d1d;stroke-opacity:1;stroke-miterlimit:4" d="m23.086 23.122.877-1.563.853 1.53" transform="matrix(1.27808 0 0 -1.31459 17.72 87.122)"/><path style="fill:none;stroke-width:.3;stroke-linecap:butt;stroke-linejoin:miter;stroke:#b31d1d;stroke-opacity:1;stroke-miterlimit:4" d="m24.843 1027.484.878-1.563.852 1.53" transform="matrix(1.27808 0 0 -1.31459 17.72 1407.445)"/><path style="fill:none;stroke-width:.3;stroke-linecap:butt;stroke-linejoin:miter;stroke:#b31d1d;stroke-opacity:1;stroke-miterlimit:4" d="m23.086 23.121.878-1.563.852 1.533" transform="matrix(1.27808 0 0 -1.31459 22.2 87.153)"/><path style="fill:none;stroke-width:.3;stroke-linecap:butt;stroke-linejoin:miter;stroke:#b31d1d;stroke-opacity:1;stroke-miterlimit:4" d="m24.84 1027.483.878-1.563.856 1.534" transform="matrix(1.27808 0 0 -1.31459 22.2 1407.475)"/><path style="fill:none;stroke-width:.3;stroke-linecap:butt;stroke-linejoin:miter;stroke:#b31d1d;stroke-opacity:1;stroke-miterlimit:4" d="m23.084 23.122.878-1.563.855 1.53" transform="matrix(1.27808 0 0 -1.31459 26.739 87.185)"/><path style="fill:none;stroke-width:.3;stroke-linecap:butt;stroke-linejoin:miter;stroke:#b31d1d;stroke-opacity:1;stroke-miterlimit:4" d="m24.842 1027.484.877-1.562.856 1.53" transform="matrix(1.27808 0 0 -1.31459 26.739 1407.508)"/><path style="fill:none;stroke-width:.3;stroke-linecap:butt;stroke-linejoin:miter;stroke:#b31d1d;stroke-opacity:1;stroke-miterlimit:4" d="m23.085 23.12.88-1.56.851 1.531" transform="matrix(0 -1.1556 -1.33333 0 91.367 83.505)"/><path style="fill:none;stroke-width:.3;stroke-linecap:butt;stroke-linejoin:miter;stroke:#b31d1d;stroke-opacity:1;stroke-miterlimit:4" d="m24.843 1027.483.876-1.562.855 1.533" transform="matrix(0 -1.1556 -1.33333 0 1430.516 83.505)"/><path style="fill:none;stroke-width:.3;stroke-linecap:butt;stroke-linejoin:miter;stroke:#b31d1d;stroke-opacity:1;stroke-miterlimit:4" d="m23.084 23.122.88-1.561.854 1.529" transform="matrix(0 -1.1556 -1.33333 0 91.4 79.403)"/><path style="fill:none;stroke-width:.3;stroke-linecap:butt;stroke-linejoin:miter;stroke:#b31d1d;stroke-opacity:1;stroke-miterlimit:4" d="m24.842 1027.484.879-1.561.852 1.53" transform="matrix(0 -1.1556 -1.33333 0 1430.55 79.403)"/><path style="fill:none;stroke-width:.3;stroke-linecap:butt;stroke-linejoin:miter;stroke:#b31d1d;stroke-opacity:1;stroke-miterlimit:4" d="m23.085 23.122.879-1.562.852 1.53" transform="matrix(0 -1.1556 -1.33333 0 91.434 75.353)"/><path style="fill:none;stroke-width:.3;stroke-linecap:butt;stroke-linejoin:miter;stroke:#b31d1d;stroke-opacity:1;stroke-miterlimit:4" d="m24.843 1027.484.875-1.562.856 1.53" transform="matrix(0 -1.1556 -1.33333 0 1430.584 75.353)"/><path style="fill:none;stroke-width:.3;stroke-linecap:butt;stroke-linejoin:miter;stroke:#b31d1d;stroke-opacity:1;stroke-miterlimit:4" d="m23.087 23.12.876-1.561.855 1.532" transform="matrix(0 -1.1556 -1.33333 0 91.467 71.25)"/><path style="fill:none;stroke-width:.3;stroke-linecap:butt;stroke-linejoin:miter;stroke:#b31d1d;stroke-opacity:1;stroke-miterlimit:4" d="m24.842 1027.482.879-1.561.851 1.532" transform="matrix(0 -1.1556 -1.33333 0 1430.617 71.25)"/><path style="fill:none;stroke-width:.3;stroke-linecap:butt;stroke-linejoin:miter;stroke:#b31d1d;stroke-opacity:1;stroke-miterlimit:4" d="m23.084 23.123.879-1.565.855 1.532" transform="matrix(0 -1.1556 -1.33333 0 91.498 67.2)"/><path style="fill:none;stroke-width:.3;stroke-linecap:butt;stroke-linejoin:miter;stroke:#b31d1d;stroke-opacity:1;stroke-miterlimit:4" d="m24.842 1027.485.879-1.565.851 1.533" transform="matrix(0 -1.1556 -1.33333 0 1430.648 67.2)"/><path style="fill:none;stroke-width:.3;stroke-linecap:butt;stroke-linejoin:miter;stroke:#b31d1d;stroke-opacity:1;stroke-miterlimit:4" d="m23.086 23.121.876-1.561.855 1.532" transform="matrix(0 -1.1556 -1.33333 0 91.531 63.096)"/><path style="fill:none;stroke-width:.3;stroke-linecap:butt;stroke-linejoin:miter;stroke:#b31d1d;stroke-opacity:1;stroke-miterlimit:4" d="m24.84 1027.483.88-1.561.855 1.532" transform="matrix(0 -1.1556 -1.33333 0 1430.681 63.096)"/><path style="stroke:none;fill-rule:nonzero;fill:#1a1a1a;fill-opacity:1" d="M35.895 36.953H49.89v.961H35.895zm0 2.668h8.507v.961h-8.507zm0 2.664h12.074v.961H35.895zm0 2.668h15.78v.961h-15.78zm0 0"/><path style="stroke:none;fill-rule:evenodd;fill:#3498db;fill-opacity:1" d="M54.063 47.238c-2.614 0-4.708 2.043-4.708 4.543s2.094 4.5 4.708 4.5c2.613 0 4.75-2 4.75-4.5s-2.137-4.543-4.75-4.543zm0 .918c2.085 0 3.792 1.633 3.792 3.625s-1.707 3.582-3.792 3.582c-2.083 0-3.75-1.59-3.75-3.582 0-1.992 1.667-3.625 3.75-3.625zm0 0"/></svg>