<svg xmlns="http://www.w3.org/2000/svg" width="64" height="64"><path style="stroke:none;fill-rule:nonzero;fill:#25aedf;fill-opacity:1" d="M12.71 54.102h38.548v3.328H12.71zm0 0"/><path style="stroke:none;fill-rule:nonzero;fill:#25aedf;fill-opacity:1" d="M58.656 8.926H5.34l19.297 48.21 26.832.18zm0 0"/><path style="stroke:none;fill-rule:nonzero;fill:#25aedf;fill-opacity:1" d="m16.75 57.29-4.188.026C14.477 60.043 22.59 61.996 32 62c9.45-.004 17.586-1.973 19.46-4.71zm0 0"/><path style="stroke:none;fill-rule:nonzero;fill:#333;fill-opacity:1" d="M58.668 9.102C58.668 5.18 46.727 2 32 2 17.273 2 5.332 5.18 5.332 9.102c0 3.921 11.941 7.101 26.668 7.101 14.727 0 26.668-3.18 26.668-7.101zm0 0"/><path style="stroke:none;fill-rule:nonzero;fill:#25aedf;fill-opacity:1" d="m5.34 8.926.012.078a.553.553 0 0 1 .015-.078zm53.305 0c0 .011.003.02.003.027l.008-.027zM5.46 9.734l7.07 47.582 26.828-.18L57.94 10.715a5.395 5.395 0 0 1-.726.676c-.004 0-.004.004-.004.004a.03.03 0 0 1-.016.007 8.373 8.373 0 0 1-.96.641 12.87 12.87 0 0 1-1.21.625c-.037.016-.076.035-.115.05a19.883 19.883 0 0 1-1.496.602c-.473.168-.977.336-1.504.496l-.168.047c-.535.157-1.094.309-1.676.453-.093.02-.183.043-.277.067a44.727 44.727 0 0 1-2.156.46c-.567.11-1.153.216-1.75.313a27.58 27.58 0 0 1-.559.086c-.574.09-1.16.172-1.754.25l-.68.082c-.578.07-1.163.133-1.757.192-.27.027-.543.05-.817.074-.539.047-1.086.09-1.636.129-.371.023-.742.047-1.117.066-.493.031-.985.055-1.481.078-.379.016-.754.028-1.133.035a74.94 74.94 0 0 1-1.629.04c-.437.007-.879.011-1.32.015-.89 0-1.777-.012-2.664-.035-12.703-.344-22.715-3.035-23.871-6.422-.004-.004-.004-.008-.004-.012zm0 0"/><path style="stroke:none;fill-rule:nonzero;fill:#999;fill-opacity:1" d="M5.484 8.363a2.08 2.08 0 0 0-.152.739c0 3.921 11.938 7.101 26.668 7.101 14.727 0 26.668-3.18 26.668-7.101a2.035 2.035 0 0 0-.152-.684c-1.414 3.617-12.86 6.363-26.516 6.363-13.727-.004-25.2-2.777-26.516-6.418zm0 0"/><path style="stroke:none;fill-rule:nonzero;fill:#fff;fill-opacity:1" d="m27.336 25.41-3.356 6.285 5.372 3.22 2.933-5.298 1.024 1.844-.946 1.687h5.473l2.984-5.375-1.32.778-1.715-3.14zm14.602 9.711-5.372 3.246 2.934 5.324h-2.04l-.944-1.714-2.735 4.933 2.985 5.403v-1.56h3.48l4.676-8.437.45-.808.1-.207zm-22.41 1.922 1.316.777-1.739 3.145 4.676 8.437.422.805.125.207 6.89-.102V43.82H25.32l1.02-1.843h1.894l-2.738-4.934zm0 0"/></svg>