<svg xmlns="http://www.w3.org/2000/svg" width="64" height="64"><path style="fill-rule:nonzero;fill:#ccc;fill-opacity:1;stroke-width:1;stroke-linecap:butt;stroke-linejoin:miter;stroke:#3b3434;stroke-opacity:1;stroke-miterlimit:4" d="M309.875 42.438c-22.719 0-41.438 20.906-45.156 48.53h179.875c-3.719-27.624-22.438-48.53-45.156-48.53zm0 0" transform="scale(.125)"/><path style="stroke:none;fill-rule:nonzero;fill:#25aedf;fill-opacity:1" d="M8.242 12.344h47.516c3.758 0 6.804 3.054 6.804 6.824v23.934c0 3.77-3.046 6.824-6.804 6.824H8.242c-3.758 0-6.805-3.055-6.805-6.824V19.168c0-3.77 3.047-6.824 6.805-6.824zm0 0"/><path style="stroke:none;fill-rule:nonzero;fill:#25aedf;fill-opacity:1" d="M8.242 21.113h47.516c3.758 0 6.804 3.055 6.804 6.825V51.87c0 3.77-3.046 6.824-6.804 6.824H8.242c-3.758 0-6.805-3.054-6.805-6.824V27.937c0-3.769 3.047-6.824 6.805-6.824zm0 0"/><path style="stroke:none;fill-rule:nonzero;fill:#fff;fill-opacity:1" d="M33.016 25.453c-1.766 0-3.2 1.332-3.2 2.98.004.192.004.41.024.645-.277.152-.313.73-.063 1.317a2.2 2.2 0 0 0 .36.57l.015.012c.032.156.051.277.09.453.117.355.613 1.023 1.043 1.597.043.446.05.875-.035 1.38-.7.581-1.996.991-3.008 1.421-.363-.168-.695-.351-.93-.555a5.157 5.157 0 0 1-.011-.918c.293-.453.676-1.03.773-1.328.035-.152.051-.254.078-.386.086-.106.168-.235.23-.387.18-.418.157-.82-.023-.957.012-.18.032-.348.04-.5 0-1.238-1.079-2.246-2.403-2.246s-2.398 1.008-2.398 2.246c.004.14.011.3.027.476-.21.11-.242.54-.055.98.075.169.172.313.274.427l.011.011c.024.118.036.207.067.336.086.266.45.77.773 1.2.032.332.04.668-.027 1.046-.93.774-3.305 1.11-3.3 1.91l-.325 2.09c0 .426.64.805 1.652 1.07l.14.567c.032.11.114.195.22.235.047.015.07.05.195.09.648.187 1.637.32 2.746.32 1.047 0 1.984-.125 2.633-.297l.168.683a.45.45 0 0 0 .285.309c.059.023.105.07.27.117.863.254 2.183.426 3.664.426 1.48 0 2.812-.172 3.675-.426.164-.047.211-.094.274-.117.129-.05.23-.16.27-.293l.19-.684c.65.168 1.571.282 2.61.282 1.11 0 2.11-.133 2.758-.32.125-.04.148-.075.195-.09a.355.355 0 0 0 .207-.223l.18-.594c.988-.262 1.613-.637 1.613-1.055l-.324-2.09c-.004-.687-2.394-1.113-3.316-1.91a5.157 5.157 0 0 1-.012-.918c.293-.453.676-1.03.773-1.328.04-.152.051-.254.078-.386.086-.106.168-.235.235-.387.176-.418.152-.82-.027-.957.011-.18.03-.348.039-.5 0-1.238-1.075-2.246-2.399-2.246s-2.402 1.008-2.402 2.246c.004.14.012.3.027.476-.21.11-.238.54-.05.98.07.169.171.313.269.427.004.004.012.008.012.011.023.118.035.207.066.336.09.266.45.77.773 1.2.032.332.04.668-.027 1.046-.266.22-.644.395-1.055.567-.996-.418-2.218-.856-2.878-1.434a6.612 6.612 0 0 1-.028-1.21c.395-.606.914-1.376 1.047-1.766.047-.207.066-.344.106-.52.113-.14.222-.312.308-.515.234-.56.215-1.094-.027-1.278.015-.242.031-.476.039-.683 0-1.649-1.434-2.98-3.2-2.98zm0 0"/><path style="fill:none;stroke-width:1;stroke-linecap:butt;stroke-linejoin:miter;stroke:#fff;stroke-opacity:1;stroke-miterlimit:4" d="M14.9 15.84h20.001v20.002h-20zm0 0" transform="scale(1.33333)"/></svg>