<svg xmlns="http://www.w3.org/2000/svg" width="64" height="64"><path style="fill-rule:nonzero;fill:#ccc;fill-opacity:1;stroke-width:1;stroke-linecap:butt;stroke-linejoin:miter;stroke:#3b3434;stroke-opacity:1;stroke-miterlimit:4" d="M309.875 42.438c-22.719 0-41.438 20.906-45.156 48.53h179.875c-3.719-27.624-22.438-48.53-45.156-48.53zm0 0" transform="scale(.125)"/><path style="stroke:none;fill-rule:nonzero;fill:#25aedf;fill-opacity:1" d="M8.242 12.344h47.516c3.758 0 6.804 3.054 6.804 6.824v23.934c0 3.77-3.046 6.824-6.804 6.824H8.242c-3.758 0-6.805-3.055-6.805-6.824V19.168c0-3.77 3.047-6.824 6.805-6.824zm0 0"/><path style="stroke:none;fill-rule:nonzero;fill:#25aedf;fill-opacity:1" d="M8.242 21.113h47.516c3.758 0 6.804 3.055 6.804 6.825V51.87c0 3.77-3.046 6.824-6.804 6.824H8.242c-3.758 0-6.805-3.054-6.805-6.824V27.937c0-3.769 3.047-6.824 6.805-6.824zm0 0"/><path style="stroke:none;fill-rule:nonzero;fill:#fff;fill-opacity:1" d="M39.531 20.965a4.677 4.677 0 0 0-4.68 4.676 4.7 4.7 0 0 0 .356 1.777l-7.687 5.066a4.676 4.676 0 0 0-7.727 3.543 4.672 4.672 0 0 0 7.602 3.648l7.488 4.934c-.02.164-.031.328-.031.493a4.677 4.677 0 1 0 9.355 0 4.671 4.671 0 0 0-8.113-3.164l-7.114-4.692a4.71 4.71 0 0 0 .168-1.219 4.622 4.622 0 0 0-.132-1.058l8.093-5.332a4.64 4.64 0 0 0 2.422.683 4.675 4.675 0 0 0 4.676-4.68 4.676 4.676 0 0 0-4.676-4.675zm0 0"/></svg>