<svg xmlns="http://www.w3.org/2000/svg" width="64" height="64"><path style="fill-rule:nonzero;fill:#ccc;fill-opacity:1;stroke-width:1;stroke-linecap:butt;stroke-linejoin:miter;stroke:#3b3434;stroke-opacity:1;stroke-miterlimit:4" d="M309.875 42.438c-22.719 0-41.438 20.906-45.156 48.53h179.875c-3.719-27.624-22.438-48.53-45.156-48.53zm0 0" transform="scale(.125)"/><path style="stroke:none;fill-rule:nonzero;fill:#25aedf;fill-opacity:1" d="M8.242 12.344h47.516c3.758 0 6.804 3.054 6.804 6.824v23.934c0 3.77-3.046 6.824-6.804 6.824H8.242c-3.758 0-6.805-3.055-6.805-6.824V19.168c0-3.77 3.047-6.824 6.805-6.824zm0 0"/><path style="stroke:none;fill-rule:nonzero;fill:#25aedf;fill-opacity:1" d="M8.242 21.113h47.516c3.758 0 6.804 3.055 6.804 6.825V51.87c0 3.77-3.046 6.824-6.804 6.824H8.242c-3.758 0-6.805-3.054-6.805-6.824V27.937c0-3.769 3.047-6.824 6.805-6.824zm0 0"/><path style="stroke:none;fill-rule:nonzero;fill:#fff;fill-opacity:1" d="M50.125 37.227 33.43 53.922c-.961.96-2.52.96-3.48 0l-3.47-3.465 4.399-4.398a2.92 2.92 0 0 0 3.008-.704c.82-.816 1.05-2 .695-3.027l4.238-4.238a2.919 2.919 0 0 0 3.028-.695 2.926 2.926 0 0 0 0-4.141 2.93 2.93 0 0 0-4.782 3.184l-3.953 3.953V29.992a2.93 2.93 0 0 0 .773-4.7 2.926 2.926 0 0 0-4.14.001 2.93 2.93 0 0 0 .957 4.781v10.5a2.903 2.903 0 0 0-.957.64 2.926 2.926 0 0 0-.633 3.204l-4.336 4.336-11.445-11.45a2.462 2.462 0 0 1 0-3.48L30.027 17.13a2.46 2.46 0 0 1 3.48 0l16.618 16.617c.965.961.965 2.52 0 3.48"/></svg>