<svg xmlns="http://www.w3.org/2000/svg" width="64" height="64"><path style="fill-rule:nonzero;fill:#ccc;fill-opacity:1;stroke-width:1;stroke-linecap:butt;stroke-linejoin:miter;stroke:#3b3434;stroke-opacity:1;stroke-miterlimit:4" d="M309.875 42.438c-22.719 0-41.438 20.906-45.156 48.53h179.875c-3.719-27.624-22.438-48.53-45.156-48.53zm0 0" transform="scale(.125)"/><path style="stroke:none;fill-rule:nonzero;fill:#25aedf;fill-opacity:1" d="M8.242 12.344h47.516c3.758 0 6.804 3.054 6.804 6.824v23.934c0 3.77-3.046 6.824-6.804 6.824H8.242c-3.758 0-6.805-3.055-6.805-6.824V19.168c0-3.77 3.047-6.824 6.805-6.824zm0 0"/><path style="stroke:none;fill-rule:nonzero;fill:#25aedf;fill-opacity:1" d="M8.242 21.113h47.516c3.758 0 6.804 3.055 6.804 6.825V51.87c0 3.77-3.046 6.824-6.804 6.824H8.242c-3.758 0-6.805-3.054-6.805-6.824V27.937c0-3.769 3.047-6.824 6.805-6.824zm0 0"/><path style="stroke:none;fill-rule:nonzero;fill:#fff;fill-opacity:1" d="M23.363 19.426c-1.238 0-2.238 1.152-2.238 2.582v9.472h-.746c-1.242 0-2.238 1.153-2.238 2.586v8.61c0 1.433.996 2.582 2.238 2.582h.746v2.586c0 1.43 1 2.582 2.238 2.582h16.418c1.242 0 2.239-1.153 2.239-2.582v-2.586h.746c1.242 0 2.242-1.149 2.242-2.582v-8.61c0-1.433-1-2.586-2.242-2.586h-.746v-9.472c0-1.43-.997-2.582-2.239-2.582zm.528 1.644h15.082c1.703 0 1.703 0 1.703 1.637V33.25H22.437V22.68c0-1.61 0-1.61 1.454-1.61zm14.398 15.578c.414 0 .746.387.746.86 0 .476-.332.863-.746.863-.41 0-.746-.387-.746-.863 0-.473.336-.86.746-.86zm2.984 0c.414 0 .747.387.747.86 0 .476-.333.863-.747.863-.41 0-.746-.387-.746-.863 0-.473.336-.86.746-.86zm-18.836 6.887h18.239v4.34c0 .879 0 .879-.88.879H23.368c-.93 0-.93 0-.93-.95zm0 0"/></svg>