<svg xmlns="http://www.w3.org/2000/svg" width="64" height="64"><path style="fill-rule:nonzero;fill:#ccc;fill-opacity:1;stroke-width:1;stroke-linecap:butt;stroke-linejoin:miter;stroke:#3b3434;stroke-opacity:1;stroke-miterlimit:4" d="M309.875 42.438c-22.719 0-41.438 20.906-45.156 48.53h179.875c-3.719-27.624-22.438-48.53-45.156-48.53zm0 0" transform="scale(.125)"/><path style="stroke:none;fill-rule:nonzero;fill:#25aedf;fill-opacity:1" d="M8.242 12.344h47.516c3.758 0 6.804 3.054 6.804 6.824v23.934c0 3.77-3.046 6.824-6.804 6.824H8.242c-3.758 0-6.805-3.055-6.805-6.824V19.168c0-3.77 3.047-6.824 6.805-6.824zm0 0"/><path style="stroke:none;fill-rule:nonzero;fill:#25aedf;fill-opacity:1" d="M8.242 21.113h47.516c3.758 0 6.804 3.055 6.804 6.825V51.87c0 3.77-3.046 6.824-6.804 6.824H8.242c-3.758 0-6.805-3.054-6.805-6.824V27.937c0-3.769 3.047-6.824 6.805-6.824zm0 0"/><path style="stroke:none;fill-rule:nonzero;fill:#fff;fill-opacity:1" d="M44.54 33.086c.046-.395.07-.793.07-1.195 0-4.989-3.5-9.047-7.797-9.047-2.497 0-4.786 1.367-6.235 3.61a5.761 5.761 0 0 0-1.566-.216c-3.758 0-6.82 3.551-6.82 7.914 0 .114 0 .22.003.328-2.816.973-4.879 4.008-4.879 7.59 0 4.367 3.063 7.918 6.825 7.918h16.57c4.297 0 7.797-4.058 7.797-9.047 0-3.296-1.563-6.277-3.969-7.855zm-3.83 14.64H24.14c-2.69 0-4.874-2.53-4.874-5.656 0-3.12 2.183-5.652 4.875-5.652.148 0 .289.035.433.05a6.412 6.412 0 0 1-.433-2.316c0-3.12 2.18-5.652 4.87-5.652.884 0 1.696.293 2.41.762.884-2.442 2.962-4.157 5.392-4.157 3.23 0 5.847 3.04 5.847 6.786 0 .894-.16 1.742-.43 2.523 2.489.781 4.329 3.395 4.329 6.527 0 3.746-2.618 6.786-5.848 6.786zm0 0"/></svg>