<svg xmlns="http://www.w3.org/2000/svg" width="64" height="64"><path style="fill-rule:nonzero;fill:#ccc;fill-opacity:1;stroke-width:1;stroke-linecap:butt;stroke-linejoin:miter;stroke:#3b3434;stroke-opacity:1;stroke-miterlimit:4" d="M309.875 42.438c-22.719 0-41.438 20.906-45.156 48.53h179.875c-3.719-27.624-22.438-48.53-45.156-48.53zm0 0" transform="scale(.125)"/><path style="stroke:none;fill-rule:nonzero;fill:#25aedf;fill-opacity:1" d="M8.242 12.344h47.516c3.758 0 6.804 3.054 6.804 6.824v23.934c0 3.77-3.046 6.824-6.804 6.824H8.242c-3.758 0-6.805-3.055-6.805-6.824V19.168c0-3.77 3.047-6.824 6.805-6.824zm0 0"/><path style="stroke:none;fill-rule:nonzero;fill:#25aedf;fill-opacity:1" d="M8.242 21.113h47.516c3.758 0 6.804 3.055 6.804 6.825V51.87c0 3.77-3.046 6.824-6.804 6.824H8.242c-3.758 0-6.805-3.054-6.805-6.824V27.937c0-3.769 3.047-6.824 6.805-6.824zm0 0"/><path style="stroke:none;fill-rule:nonzero;fill:#fff;fill-opacity:1" d="M31 20.293c-8.488 0-15.387 6.898-15.387 15.387 0 8.492 6.899 15.386 15.387 15.386 8.492 0 15.344-6.894 15.344-15.386 0-3.633-1.246-6.977-3.352-9.61-.328.133-.66.266-1.012.442a14.245 14.245 0 0 1 3.305 9.168c0 7.898-6.387 14.285-14.285 14.285-7.895 0-14.328-6.387-14.328-14.285 0-7.895 6.433-14.285 14.328-14.285 4.14 0 7.836 1.77 10.445 4.574.5-.082.864-.145 1.301-.203-2.812-3.368-7.012-5.473-11.746-5.473zm0 0"/><path style="stroke:none;fill-rule:nonzero;fill:#fff;fill-opacity:1" d="M30.824 23.996a4.26 4.26 0 0 0-.484.047c-9.7.86-13.887 11.55-13.887 11.55l.29 3.048c1.94-4.813 13.378 1.406 13.378 1.406-4.098-4.168-6.812-5.195-6.812-5.195-1.758-1.004-3.676-1.375-3.676-1.375 1.597-3.645 3.3-5.336 3.3-5.336l.567 3.484c4.105 3.527 7.984 3.176 7.984 3.176 6.036 4.453 6.703 13.226 6.703 13.226l2.407-1.297c1.004-2.37-2.98-9.683-2.98-9.683-1.188-2.23-1.544-4.23-1.544-4.23.29-.29 1.942-3.262 1.942-3.262 1.437-2.301 8.289-4.278 8.289-4.278-5.102-.574-8.774.703-8.774.703-3.449-1.886-5.757-2.027-6.703-1.984zm13.578 1.59c.418-.031.493-.012 0 .043-1.304.14-3.191.965-4.629 1.836-1.437.87-1.824 1.598-1.824 1.332-.011-1.352-1.144-1.402-1.144-1.402 1.468-1.016 6.351-1.715 7.597-1.81zm-14.195.484c.113-.023.234 0 .355 0 .95 0 1.72.766 1.72 1.72 0 .952-.77 1.718-1.72 1.718a1.717 1.717 0 0 1-1.722-1.719c0-.832.582-1.559 1.367-1.719zm0 0"/><path style="stroke:none;fill-rule:nonzero;fill:#fff;fill-opacity:1" d="M31 19.828c-8.746 0-15.852 7.106-15.852 15.852 0 8.75 7.106 15.855 15.852 15.855 8.75 0 15.813-7.105 15.813-15.855 0-3.746-1.215-7.114-3.38-9.828-.343.136-.757.199-1.12.378a14.673 14.673 0 0 1 3.406 9.45c0 8.136-6.582 14.718-14.719 14.718-8.133 0-14.762-6.582-14.762-14.718 0-8.133 6.63-14.72 14.762-14.72 4.266 0 8.078 1.821 10.762 4.716.515-.09.89-.153 1.34-.211-2.895-3.469-7.223-5.637-12.102-5.637zm0 0"/></svg>