<svg xmlns="http://www.w3.org/2000/svg" width="64" height="64"><path style="fill-rule:nonzero;fill:#ccc;fill-opacity:1;stroke-width:1;stroke-linecap:butt;stroke-linejoin:miter;stroke:#3b3434;stroke-opacity:1;stroke-miterlimit:4" d="M309.875 42.438c-22.719 0-41.438 20.906-45.156 48.53h179.875c-3.719-27.624-22.438-48.53-45.156-48.53zm0 0" transform="scale(.125)"/><path style="stroke:none;fill-rule:nonzero;fill:#25aedf;fill-opacity:1" d="M8.242 12.344h47.516c3.758 0 6.804 3.054 6.804 6.824v23.934c0 3.77-3.046 6.824-6.804 6.824H8.242c-3.758 0-6.805-3.055-6.805-6.824V19.168c0-3.77 3.047-6.824 6.805-6.824zm0 0"/><path style="stroke:none;fill-rule:nonzero;fill:#25aedf;fill-opacity:1" d="M8.242 21.113h47.516c3.758 0 6.804 3.055 6.804 6.825V51.87c0 3.77-3.046 6.824-6.804 6.824H8.242c-3.758 0-6.805-3.054-6.805-6.824V27.937c0-3.769 3.047-6.824 6.805-6.824zm0 0"/><path style="stroke:none;fill-rule:evenodd;fill:#fff;fill-opacity:1" d="M31.55 17.074c-4.57 0-8.25 3.496-8.25 7.836v7.832H20V48.41h24.2V32.742h-3.298V24.91c0-4.34-3.68-7.836-8.25-7.836zm.548 4.18c2.437 0 4.402 1.863 4.402 4.18 0 .003-.004.011-.004.02h.004v7.288h-8.8v-7.289h.003c0-.008-.004-.015-.004-.02 0-2.316 1.961-4.18 4.399-4.18zm-.07 14.348a3.177 3.177 0 0 1 3.171 3.171 3.18 3.18 0 0 1-1.77 2.848l1.844 5.11H28.84l1.836-5.086a3.172 3.172 0 0 1 1.351-6.043zm0 0"/></svg>