<svg xmlns="http://www.w3.org/2000/svg" width="64" height="64"><path style="fill-rule:nonzero;fill:#ccc;fill-opacity:1;stroke-width:1;stroke-linecap:butt;stroke-linejoin:miter;stroke:#3b3434;stroke-opacity:1;stroke-miterlimit:4" d="M309.875 42.438c-22.719 0-41.438 20.906-45.156 48.53h179.875c-3.719-27.624-22.438-48.53-45.156-48.53zm0 0" transform="scale(.125)"/><path style="stroke:none;fill-rule:nonzero;fill:#25aedf;fill-opacity:1" d="M8.242 12.344h47.516c3.758 0 6.804 3.054 6.804 6.824v23.934c0 3.77-3.046 6.824-6.804 6.824H8.242c-3.758 0-6.805-3.055-6.805-6.824V19.168c0-3.77 3.047-6.824 6.805-6.824zm0 0"/><path style="stroke:none;fill-rule:nonzero;fill:#25aedf;fill-opacity:1" d="M8.242 21.113h47.516c3.758 0 6.804 3.055 6.804 6.825V51.87c0 3.77-3.046 6.824-6.804 6.824H8.242c-3.758 0-6.805-3.054-6.805-6.824V27.937c0-3.769 3.047-6.824 6.805-6.824zm0 0"/><path style="stroke:none;fill-rule:evenodd;fill:#fff;fill-opacity:1" d="M17.879 22.504v24.71h7.062v-1.413H39.06v1.414h7.062V22.504H39.06v1.414H24.94v-1.414zM20 24.62h2.82v2.824H20zm21.176 0H44v2.824h-2.824zM24.94 26.035h14.12v17.649H24.94zM20 30.27h2.82v2.824H20zm21.176 0H44v2.824h-2.824zm-12 .707v7.058l7.058-3.527zM20 35.918h2.82v2.824H20zm21.176 0H44v2.824h-2.824zM20 41.566h2.82v2.825H20zm21.176 0H44v2.825h-2.824zm0 0"/></svg>