<svg xmlns="http://www.w3.org/2000/svg" width="64" height="64"><path style="fill-rule:nonzero;fill:#ccc;fill-opacity:1;stroke-width:1;stroke-linecap:butt;stroke-linejoin:miter;stroke:#3b3434;stroke-opacity:1;stroke-miterlimit:4" d="M309.875 42.438c-22.719 0-41.438 20.906-45.156 48.53h179.875c-3.719-27.624-22.438-48.53-45.156-48.53zm0 0" transform="scale(.125)"/><path style="stroke:none;fill-rule:nonzero;fill:#25aedf;fill-opacity:1" d="M8.242 12.344h47.516c3.758 0 6.804 3.054 6.804 6.824v23.934c0 3.77-3.046 6.824-6.804 6.824H8.242c-3.758 0-6.805-3.055-6.805-6.824V19.168c0-3.77 3.047-6.824 6.805-6.824zm0 0"/><path style="stroke:none;fill-rule:nonzero;fill:#25aedf;fill-opacity:1" d="M8.242 21.113h47.516c3.758 0 6.804 3.055 6.804 6.825V51.87c0 3.77-3.046 6.824-6.804 6.824H8.242c-3.758 0-6.805-3.054-6.805-6.824V27.937c0-3.769 3.047-6.824 6.805-6.824zm0 0"/><path style="stroke:none;fill-rule:nonzero;fill:#fff;fill-opacity:1" d="m43.145 23.05-2.094 1.946.492 2.969 2.582 1.015 2.094-1.949-.492-2.965zm.515 1.524c.625.012 1.153.508 1.266 1.184.129.781-.344 1.531-1.055 1.676-.344.066-.7-.016-.984-.235a1.466 1.466 0 0 1-.543-.93c-.13-.78.343-1.53 1.054-1.671a.99.99 0 0 1 .262-.024zM32.5 31.785l3.887 4.293-5.766 4.813-3.887-4.293zm0 0"/><path style="stroke:none;fill-rule:nonzero;fill:#fff;fill-opacity:1" d="M40.79 24.863c-2.466-1.05-5.481-.703-7.68 1.137-3.016 2.516-3.372 6.863-.794 9.707 2.575 2.844 7.106 3.113 10.118.594 2.199-1.836 2.98-4.656 2.242-7.145l-4.051 3.38-3.887-4.294zM27.941 34.89c-.421-.335-1.02-.285-1.773.32l-6.91 5.563-.485.391-2.343 1.938c-1.828 1.496-1.992 4.02-.352 5.668 1.645 1.644 4.445 1.761 6.274.265l2.367-1.918.46-.41 6.462-5.27c1.054-.867.617-1.542.187-2.046l-3.73-4.328c-.055-.067-.094-.126-.157-.172zm-.742 3.458 1.371 1.527c.285.316.172.828-.258 1.172l-7.695 6.234c-.426.348-1 .39-1.281.074l-1.371-1.523c-.281-.316-.149-.848.281-1.195l7.695-6.235c.426-.343.977-.367 1.258-.054zm0 0"/></svg>