<svg xmlns="http://www.w3.org/2000/svg" width="64" height="64"><path style="fill-rule:nonzero;fill:#ccc;fill-opacity:1;stroke-width:1;stroke-linecap:butt;stroke-linejoin:miter;stroke:#3b3434;stroke-opacity:1;stroke-miterlimit:4" d="M309.875 42.438c-22.719 0-41.438 20.906-45.156 48.53h179.875c-3.719-27.624-22.438-48.53-45.156-48.53zm0 0" transform="scale(.125)"/><path style="stroke:none;fill-rule:nonzero;fill:#25aedf;fill-opacity:1" d="M8.242 12.344h47.516c3.758 0 6.804 3.054 6.804 6.824v23.934c0 3.77-3.046 6.824-6.804 6.824H8.242c-3.758 0-6.805-3.055-6.805-6.824V19.168c0-3.77 3.047-6.824 6.805-6.824zm0 0"/><path style="stroke:none;fill-rule:nonzero;fill:#25aedf;fill-opacity:1" d="M8.242 21.113h47.516c3.758 0 6.804 3.055 6.804 6.825V51.87c0 3.77-3.046 6.824-6.804 6.824H8.242c-3.758 0-6.805-3.054-6.805-6.824V27.937c0-3.769 3.047-6.824 6.805-6.824zm0 0"/><path style="stroke:none;fill-rule:nonzero;fill:#fff;fill-opacity:1" d="M44.813 29.605c0 2.29-1.97 4.145-4.395 4.145-2.426 0-4.39-1.855-4.39-4.145 0-2.293 1.964-4.148 4.39-4.148 2.426 0 4.395 1.855 4.395 4.148zm0 0"/><path style="stroke:none;fill-rule:nonzero;fill:#fff;fill-opacity:1" d="M40.477 21.867c-4.403 0-7.98 3.531-7.98 7.903 0 4.37 3.577 7.925 7.98 7.925 4.398 0 7.953-3.554 7.953-7.925 0-4.372-3.555-7.903-7.953-7.903zm0 2.668c2.918 0 5.265 2.332 5.265 5.235a5.259 5.259 0 0 1-5.265 5.257c-2.922 0-5.297-2.359-5.297-5.257 0-2.903 2.375-5.235 5.297-5.235zm0 0"/><path style="stroke:none;fill-rule:nonzero;fill:#fff;fill-opacity:1" d="m32.523 29.871-5.058 7.461 1.668 1.66a4.465 4.465 0 0 1 1.93 1.89l1.644 1.634 7.563-5.028zM31.05 43.129c0 2.012-1.484 3.644-3.316 3.644-1.832 0-3.32-1.632-3.32-3.644 0-2.012 1.488-3.645 3.32-3.645 1.832 0 3.317 1.633 3.317 3.645zm0 0"/><path style="stroke:none;fill-rule:nonzero;fill:#fff;fill-opacity:1" d="M27.047 37.332c-3.14 0-5.684 2.531-5.684 5.648 0 3.118 2.543 5.649 5.684 5.649 3.14 0 5.687-2.531 5.687-5.649 0-3.117-2.547-5.648-5.687-5.648zm0 1.14c2.508 0 4.539 2.02 4.539 4.508 0 2.489-2.031 4.508-4.54 4.508-2.503 0-4.534-2.02-4.534-4.508s2.031-4.507 4.535-4.507zm0 0"/><path style="stroke:none;fill-rule:nonzero;fill:#fff;fill-opacity:1" d="M17.398 34.324v6.996l9.38 4.867c.042.024.093 0 .109-.05l1.992-5.856c.016-.05-.024-.11-.067-.129zm0 0"/></svg>