<svg xmlns="http://www.w3.org/2000/svg" width="64" height="64"><path style="fill-rule:nonzero;fill:#ccc;fill-opacity:1;stroke-width:1;stroke-linecap:butt;stroke-linejoin:miter;stroke:#3b3434;stroke-opacity:1;stroke-miterlimit:4" d="M309.875 42.438c-22.719 0-41.438 20.906-45.156 48.53h179.875c-3.719-27.624-22.438-48.53-45.156-48.53zm0 0" transform="scale(.125)"/><path style="stroke:none;fill-rule:nonzero;fill:#25aedf;fill-opacity:1" d="M8.242 12.344h47.516c3.758 0 6.804 3.054 6.804 6.824v23.934c0 3.77-3.046 6.824-6.804 6.824H8.242c-3.758 0-6.805-3.055-6.805-6.824V19.168c0-3.77 3.047-6.824 6.805-6.824zm0 0"/><path style="stroke:none;fill-rule:nonzero;fill:#25aedf;fill-opacity:1" d="M8.242 21.113h47.516c3.758 0 6.804 3.055 6.804 6.825V51.87c0 3.77-3.046 6.824-6.804 6.824H8.242c-3.758 0-6.805-3.054-6.805-6.824V27.937c0-3.769 3.047-6.824 6.805-6.824zm0 0"/><path style="stroke:none;fill-rule:nonzero;fill:#fff;fill-opacity:1" d="M17.094 22.422v30.785H47.27V22.422zm1.386 1.418h27.403v27.95H18.48zm0 0"/><path style="fill:none;stroke-width:6.338936;stroke-linecap:butt;stroke-linejoin:miter;stroke:#fff;stroke-opacity:1;stroke-miterlimit:4" d="m-147.464 1.763 11.188 9.23-16.314 18.642 39.626-15.537-12.436 17.088 25.643-10.873-15.54 20.198 13.202 10.877" transform="matrix(.4388 -.31016 .37166 .36747 76.966 -11.042)"/></svg>