<svg xmlns="http://www.w3.org/2000/svg" width="64" height="64"><path style="fill-rule:nonzero;fill:#ccc;fill-opacity:1;stroke-width:1;stroke-linecap:butt;stroke-linejoin:miter;stroke:#3b3434;stroke-opacity:1;stroke-miterlimit:4" d="M309.875 42.438c-22.719 0-41.438 20.906-45.156 48.53h179.875c-3.719-27.624-22.438-48.53-45.156-48.53zm0 0" transform="scale(.125)"/><path style="stroke:none;fill-rule:nonzero;fill:#25aedf;fill-opacity:1" d="M8.242 12.344h47.516c3.758 0 6.804 3.054 6.804 6.824v23.934c0 3.77-3.046 6.824-6.804 6.824H8.242c-3.758 0-6.805-3.055-6.805-6.824V19.168c0-3.77 3.047-6.824 6.805-6.824zm0 0"/><path style="stroke:none;fill-rule:nonzero;fill:#25aedf;fill-opacity:1" d="M8.242 21.113h47.516c3.758 0 6.804 3.055 6.804 6.825V51.87c0 3.77-3.046 6.824-6.804 6.824H8.242c-3.758 0-6.805-3.054-6.805-6.824V27.937c0-3.769 3.047-6.824 6.805-6.824zm0 0"/><path style="stroke:none;fill-rule:evenodd;fill:#fff;fill-opacity:1" d="M32.09 21.813c-3.504 0-6.98 1.44-9.457 3.914-2.477 2.476-3.918 5.953-3.918 9.453 0 3.5 1.441 6.976 3.918 9.449 2.476 2.476 5.953 3.918 9.457 3.918 3.504 0 6.988-1.442 9.465-3.914 2.48-2.477 3.922-5.953 3.922-9.453 0-3.5-1.442-6.98-3.922-9.453-2.477-2.477-5.961-3.915-9.465-3.915zm0 3.562a9.933 9.933 0 0 1 6.941 2.871 9.912 9.912 0 0 1 2.88 6.934 9.896 9.896 0 0 1-2.88 6.93 9.933 9.933 0 0 1-6.941 2.87 9.914 9.914 0 0 1-6.934-2.87 9.905 9.905 0 0 1-2.87-6.93 9.905 9.905 0 0 1 2.87-6.93 9.918 9.918 0 0 1 6.934-2.875zm-1.778 1.785v9.8h9.813v-3.562h-6.242V27.16zm0 0"/></svg>