<svg xmlns="http://www.w3.org/2000/svg" width="64" height="64"><path style="fill-rule:nonzero;fill:#ccc;fill-opacity:1;stroke-width:1;stroke-linecap:butt;stroke-linejoin:miter;stroke:#3b3434;stroke-opacity:1;stroke-miterlimit:4" d="M309.875 42.438c-22.719 0-41.438 20.906-45.156 48.53h179.875c-3.719-27.624-22.438-48.53-45.156-48.53zm0 0" transform="scale(.125)"/><path style="stroke:none;fill-rule:nonzero;fill:#25aedf;fill-opacity:1" d="M8.242 12.344h47.516c3.758 0 6.804 3.054 6.804 6.824v23.934c0 3.77-3.046 6.824-6.804 6.824H8.242c-3.758 0-6.805-3.055-6.805-6.824V19.168c0-3.77 3.047-6.824 6.805-6.824zm0 0"/><path style="stroke:none;fill-rule:nonzero;fill:#25aedf;fill-opacity:1" d="M8.242 21.113h47.516c3.758 0 6.804 3.055 6.804 6.825V51.87c0 3.77-3.046 6.824-6.804 6.824H8.242c-3.758 0-6.805-3.054-6.805-6.824V27.937c0-3.769 3.047-6.824 6.805-6.824zm0 0"/><path style="stroke:none;fill-rule:evenodd;fill:#fff;fill-opacity:1" d="m23.586 33.883 1.3.008.868 1.734-3.031-.02zm0 16.836h1.297l.863-1.723h-3.023zM30.68 37.75l.644 1.156-.746 1.403-1.5-2.704zM17.133 45.7l.652 1.16 1.613.136-1.52-2.71zm14.191-.016-.64 1.164-1.61.152 1.496-2.719zm-13.511-7.957-.653 1.148.735 1.402 1.511-2.675zm0 0"/><path style="stroke:none;fill-rule:nonzero;fill:#fff;fill-opacity:1" d="M24.23 35.598c-1.695 0-3.378.722-4.578 1.96-1.195 1.243-1.894 2.985-1.894 4.739s.699 3.496 1.894 4.734c1.2 1.242 2.883 1.965 4.578 1.965 1.692 0 3.375-.723 4.575-1.96 1.199-1.243 1.898-2.985 1.898-4.74 0-1.753-.7-3.5-1.898-4.737-1.2-1.239-2.883-1.961-4.575-1.961zm0 2.68c1.016 0 2.028.433 2.747 1.175a4.145 4.145 0 0 1 1.136 2.844 4.14 4.14 0 0 1-1.136 2.84 3.86 3.86 0 0 1-2.747 1.18 3.853 3.853 0 0 1-2.746-1.18 4.135 4.135 0 0 1-1.136-2.84c0-1.055.418-2.098 1.136-2.844a3.865 3.865 0 0 1 2.746-1.176zm0 0"/><path style="stroke:none;fill-rule:evenodd;fill:#fff;fill-opacity:1" d="m36.438 18.969 1.738.011 1.156 2.41-4.05-.023zm-.004 23.394h1.73l1.152-2.394h-4.035zm9.468-18.019.86 1.61-.996 1.944-2-3.753zM27.828 35.387 28.695 37l2.153.188-2.028-3.766zm18.934-.02-.856 1.617-2.144.211 1.992-3.777zM28.73 24.313l-.867 1.597.977 1.95 2.02-3.723zm0 0"/><path style="stroke:none;fill-rule:nonzero;fill:#fff;fill-opacity:1" d="M37.293 21.352c-2.258 0-4.504 1.003-6.102 2.726-1.597 1.723-2.53 4.145-2.53 6.582 0 2.438.933 4.86 2.53 6.582 1.598 1.723 3.844 2.727 6.102 2.727 2.262 0 4.508-1.004 6.11-2.727 1.597-1.722 2.53-4.144 2.53-6.582 0-2.437-.933-4.86-2.53-6.582-1.602-1.723-3.848-2.726-6.11-2.726zm.004 3.722c1.355 0 2.703.602 3.664 1.637.957 1.035 1.52 2.488 1.52 3.95 0 1.46-.563 2.913-1.52 3.948-.961 1.032-2.309 1.637-3.664 1.633-1.36 0-2.707-.601-3.664-1.633-.961-1.035-1.516-2.488-1.516-3.949 0-1.46.555-2.914 1.516-3.95.957-1.034 2.304-1.636 3.664-1.636zm0 0"/></svg>