<svg xmlns="http://www.w3.org/2000/svg" width="64" height="64"><path style="fill-rule:nonzero;fill:#ccc;fill-opacity:1;stroke-width:1;stroke-linecap:butt;stroke-linejoin:miter;stroke:#3b3434;stroke-opacity:1;stroke-miterlimit:4" d="M309.875 42.438c-22.719 0-41.438 20.906-45.156 48.53h179.875c-3.719-27.624-22.438-48.53-45.156-48.53zm0 0" transform="scale(.125)"/><path style="stroke:none;fill-rule:nonzero;fill:#25aedf;fill-opacity:1" d="M8.242 12.344h47.516c3.758 0 6.804 3.054 6.804 6.824v23.934c0 3.77-3.046 6.824-6.804 6.824H8.242c-3.758 0-6.805-3.055-6.805-6.824V19.168c0-3.77 3.047-6.824 6.805-6.824zm0 0"/><path style="stroke:none;fill-rule:nonzero;fill:#25aedf;fill-opacity:1" d="M8.242 21.113h47.516c3.758 0 6.804 3.055 6.804 6.825V51.87c0 3.77-3.046 6.824-6.804 6.824H8.242c-3.758 0-6.805-3.054-6.805-6.824V27.937c0-3.769 3.047-6.824 6.805-6.824zm0 0"/><path style="stroke:none;fill-rule:nonzero;fill:#fff;fill-opacity:1" d="M32.55 22.094c-3.491 0-6.96 1.437-9.429 3.906-2.465 2.469-3.898 5.938-3.898 9.426 0 3.492 1.433 6.96 3.898 9.43 2.469 2.464 5.938 3.906 9.43 3.906 3.488 0 6.957-1.442 9.43-3.907 2.468-2.468 3.906-5.937 3.906-9.43 0-3.487-1.438-6.956-3.907-9.425-2.472-2.469-5.94-3.906-9.43-3.906zm0 2.668c5.583-.004 10.673 5.078 10.673 10.664 0 5.586-5.09 10.668-10.672 10.668-5.586 0-10.664-5.082-10.664-10.668 0-5.582 5.078-10.664 10.664-10.664zm-2.663 2.664v6.668h-5.332l8 9.332 8-9.332h-5.332v-6.668zm0 0"/></svg>