<svg xmlns="http://www.w3.org/2000/svg" width="64" height="64"><path style="fill-rule:nonzero;fill:#ccc;fill-opacity:1;stroke-width:1;stroke-linecap:butt;stroke-linejoin:miter;stroke:#3b3434;stroke-opacity:1;stroke-miterlimit:4" d="M309.875 42.438c-22.719 0-41.438 20.906-45.156 48.53h179.875c-3.719-27.624-22.438-48.53-45.156-48.53zm0 0" transform="scale(.125)"/><path style="stroke:none;fill-rule:nonzero;fill:#25aedf;fill-opacity:1" d="M8.242 12.344h47.516c3.758 0 6.804 3.054 6.804 6.824v23.934c0 3.77-3.046 6.824-6.804 6.824H8.242c-3.758 0-6.805-3.055-6.805-6.824V19.168c0-3.77 3.047-6.824 6.805-6.824zm0 0"/><path style="stroke:none;fill-rule:nonzero;fill:#25aedf;fill-opacity:1" d="M8.242 21.113h47.516c3.758 0 6.804 3.055 6.804 6.825V51.87c0 3.77-3.046 6.824-6.804 6.824H8.242c-3.758 0-6.805-3.054-6.805-6.824V27.937c0-3.769 3.047-6.824 6.805-6.824zm0 0"/><path style="stroke:none;fill-rule:nonzero;fill:#fff;fill-opacity:1" d="M17.066 46.688s4.262 3.687 9.149 2.285c4.883-1.403 3.996-2.727 3.996-2.727s2.664 1.914 4.973 2.578c2.308.664 7.28 0 6.746-3.02-.532-3.023 1.687 2.876 6.484 3.317l-7.105-5.16s-1.688 2.578-3.461 4.2c-1.778 1.624-7.43-4.544-8.97-2.063-1.566 2.52-11.812.59-11.812.59zm8.227-6.051s3.34 3.687 7.168 2.285c3.828-1.399 3.133-2.727 3.133-2.727s2.09 1.914 3.898 2.578c1.809.664 5.707 0 5.29-3.02-.419-3.023 1.323 2.876 5.081 3.317l-5.566-5.16s-1.324 2.578-2.715 4.2c-1.395 1.624-5.824-4.54-7.031-2.063-1.227 2.52-9.258.59-9.258.59zm12.504-12.645a3.87 3.87 0 0 0 .058-.672c0-2.812-3.02-5.101-6.734-5.101-2.156 0-4.137.773-5.387 2.035a7.433 7.433 0 0 0-1.351-.121c-3.25 0-5.895 2-5.895 4.46 0 .063 0 .126.004.184-2.437.551-4.215 2.262-4.215 4.278 0 2.46 2.645 4.465 5.895 4.465h14.316c3.715 0 6.739-2.29 6.739-5.102 0-1.855-1.352-3.54-3.43-4.426zm-3.309 8.25H20.172c-2.324 0-4.211-1.426-4.211-3.187 0-1.758 1.887-3.184 4.21-3.184.13 0 .25.02.376.027a2.52 2.52 0 0 1-.375-1.304c0-1.762 1.883-3.188 4.21-3.188a5.17 5.17 0 0 1 2.079.434c.762-1.38 2.562-2.344 4.66-2.344 2.79 0 5.05 1.711 5.05 3.824 0 .504-.136.98-.37 1.422 2.152.442 3.738 1.91 3.738 3.676 0 2.113-2.262 3.824-5.05 3.824zm0 0"/><path style="stroke:none;fill-rule:nonzero;fill:#fff;fill-opacity:1" d="M48.027 21.879c.02-.102.028-.203.028-.305 0-1.289-1.383-2.34-3.086-2.34-.989 0-1.895.356-2.469.934a3.625 3.625 0 0 0-.617-.055c-1.492 0-2.703.918-2.703 2.043v.086c-1.114.25-1.93 1.035-1.93 1.961 0 1.125 1.21 2.043 2.703 2.043h6.559c1.703 0 3.086-1.047 3.086-2.336 0-.851-.618-1.62-1.57-2.031zm-1.515 3.781h-6.559c-1.066 0-1.93-.652-1.93-1.457 0-.808.864-1.46 1.93-1.46.059 0 .113.007.168.01a1.189 1.189 0 0 1-.168-.597c0-.804.863-1.46 1.93-1.46.347 0 .668.077.949.199.352-.633 1.176-1.075 2.137-1.075 1.277 0 2.312.785 2.312 1.754 0 .23-.062.45-.168.649.985.203 1.715.879 1.715 1.687 0 .969-1.039 1.75-2.316 1.75zm0 0"/></svg>