<svg xmlns="http://www.w3.org/2000/svg" width="64" height="64"><path style="fill-rule:nonzero;fill:#ccc;fill-opacity:1;stroke-width:1;stroke-linecap:butt;stroke-linejoin:miter;stroke:#3b3434;stroke-opacity:1;stroke-miterlimit:4" d="M309.875 42.438c-22.719 0-41.438 20.906-45.156 48.53h179.875c-3.719-27.624-22.438-48.53-45.156-48.53zm0 0" transform="scale(.125)"/><path style="stroke:none;fill-rule:nonzero;fill:#25aedf;fill-opacity:1" d="M8.242 12.344h47.516c3.758 0 6.804 3.054 6.804 6.824v23.934c0 3.77-3.046 6.824-6.804 6.824H8.242c-3.758 0-6.805-3.055-6.805-6.824V19.168c0-3.77 3.047-6.824 6.805-6.824zm0 0"/><path style="stroke:none;fill-rule:nonzero;fill:#25aedf;fill-opacity:1" d="M8.242 21.113h47.516c3.758 0 6.804 3.055 6.804 6.825V51.87c0 3.77-3.046 6.824-6.804 6.824H8.242c-3.758 0-6.805-3.054-6.805-6.824V27.937c0-3.769 3.047-6.824 6.805-6.824zm0 0"/><path style="stroke:none;fill-rule:evenodd;fill:#fff;fill-opacity:1" d="m39.965 18.89 1.262 1.145-1.551.918-1.13-1.39-.116 2.535 2.242.496 3.531 4.172 1.984-1.063-3.68-4.16.458-1.832zm-10.871.985c-2.024 0-3.668 1.344-3.668 3.004.004 1.508 1.363 2.781 3.183 2.98l-5.074 2.168-1.043 11.5 2.934-.043 1.176-9.867.234 8.988-1.633 13.5 2.969-.042 2.34-13.02 3.05 13.008h3.063l-2.71-13.395-.423-9.472 9.254-3.297-1.762-1.801-8.218 2.14-3.207-.367c1.832-.191 3.207-1.464 3.207-2.98 0-1.66-1.645-3.008-3.672-3.004zm0 0"/></svg>