<svg xmlns="http://www.w3.org/2000/svg" width="64" height="64"><path style="fill-rule:nonzero;fill:#ccc;fill-opacity:1;stroke-width:1;stroke-linecap:butt;stroke-linejoin:miter;stroke:#3b3434;stroke-opacity:1;stroke-miterlimit:4" d="M309.875 42.438c-22.719 0-41.438 20.906-45.156 48.53h179.875c-3.719-27.624-22.438-48.53-45.156-48.53zm0 0" transform="scale(.125)"/><path style="stroke:none;fill-rule:nonzero;fill:#25aedf;fill-opacity:1" d="M8.242 12.344h47.516c3.758 0 6.804 3.054 6.804 6.824v23.934c0 3.77-3.046 6.824-6.804 6.824H8.242c-3.758 0-6.805-3.055-6.805-6.824V19.168c0-3.77 3.047-6.824 6.805-6.824zm0 0"/><path style="stroke:none;fill-rule:nonzero;fill:#25aedf;fill-opacity:1" d="M8.242 21.113h47.516c3.758 0 6.804 3.055 6.804 6.825V51.87c0 3.77-3.046 6.824-6.804 6.824H8.242c-3.758 0-6.805-3.054-6.805-6.824V27.937c0-3.769 3.047-6.824 6.805-6.824zm0 0"/><path style="stroke:none;fill-rule:nonzero;fill:#fff;fill-opacity:1" d="M16.605 41.309h3.07c.423 0 .766.261.766.578v1.156c0 .32-.343.578-.765.578h-3.07c-.426 0-.77-.258-.77-.578v-1.156c0-.317.344-.578.77-.578zm-.386-2.887c-.207 0-.383.125-.383.289v1.73c0 .164.18.29.383.29h.77c.206 0 .382-.126.382-.29v-.289h1.152c.211 0 .383-.129.383-.289v-.578c0-.16-.172-.289-.383-.289h-1.152v-.285c0-.164-.176-.29-.383-.29zm0-3.469c-.207 0-.383.125-.383.29v1.734c0 .16.18.289.383.289h.77c.206 0 .382-.13.382-.29v-.288h1.152c.211 0 .383-.13.383-.29v-.578c0-.16-.172-.289-.383-.289h-1.152v-.289c0-.164-.176-.289-.383-.289zm0-3.469c-.207 0-.383.125-.383.29v1.734c0 .164.18.289.383.289h.77c.206 0 .382-.125.382-.29v-.288h1.152c.211 0 .383-.13.383-.29v-.577c0-.16-.172-.29-.383-.29h-1.152v-.289c0-.164-.176-.289-.383-.289zm0-3.468c-.207 0-.383.129-.383.289v1.734c0 .164.18.29.383.29h.77c.206 0 .382-.126.382-.29v-.289h1.152c.211 0 .383-.129.383-.29v-.577c0-.16-.172-.29-.383-.29h-1.152v-.288c0-.16-.176-.29-.383-.29zm0-3.466c-.207 0-.383.126-.383.29v1.734c0 .16.18.29.383.29h.77c.206 0 .382-.13.382-.29v-.289h1.152c.211 0 .383-.129.383-.289v-.578c0-.16-.172-.29-.383-.29h-1.152v-.288c0-.164-.176-.29-.383-.29zm0-3.468c-.207 0-.383.125-.383.29v1.733c0 .165.18.29.383.29h.77c.206 0 .382-.125.382-.29v-.289h1.152c.211 0 .383-.128.383-.289v-.578c0-.16-.172-.289-.383-.289h-1.152v-.289c0-.164-.176-.289-.383-.289zm3.84 15.606c.207 0 .382.124.382.289v1.734c0 .16-.175.285-.382.285h-.77c-.207 0-.383-.125-.383-.285v-.29h-1.152c-.211 0-.383-.132-.383-.288v-.578c0-.16.172-.29.383-.29h1.152v-.288c0-.164.176-.29.383-.29zm0-3.469c.207 0 .382.125.382.289v1.734c0 .16-.175.29-.382.29h-.77c-.207 0-.383-.13-.383-.29v-.289h-1.152c-.211 0-.383-.129-.383-.289v-.578c0-.16.172-.29.383-.29h1.152v-.288c0-.164.176-.29.383-.29zm0-3.469c.207 0 .382.129.382.29v1.733c0 .165-.175.29-.382.29h-.77c-.207 0-.383-.126-.383-.29v-.289h-1.152c-.211 0-.383-.129-.383-.289v-.578c0-.16.172-.289.383-.289h1.152v-.289c0-.16.176-.289.383-.289zm0-3.465c.207 0 .382.125.382.29v1.73c0 .164-.175.289-.382.289h-.77c-.207 0-.383-.125-.383-.29v-.288h-1.152c-.211 0-.383-.13-.383-.286v-.578c0-.16.172-.289.383-.289h1.152v-.289c0-.164.176-.289.383-.289zm0-3.469c.207 0 .382.125.382.29v1.734c0 .164-.175.289-.382.289h-.77c-.207 0-.383-.125-.383-.29v-.288h-1.152c-.211 0-.383-.13-.383-.29v-.577c0-.16.172-.29.383-.29h1.152v-.289c0-.164.176-.289.383-.289zm0-3.468c.207 0 .382.129.382.289v1.734c0 .164-.175.29-.382.29h-.77c-.207 0-.383-.126-.383-.29v-.289h-1.152c-.211 0-.383-.129-.383-.289v-.578c0-.16.172-.29.383-.29h1.152v-.288c0-.16.176-.29.383-.29zm0 0"/><path style="stroke:none;fill-rule:nonzero;fill:#fff;fill-opacity:1" d="M12.586 12.414V44.2c0 1.274 1.426 2.313 3.172 2.313h4.762c1.746 0 3.175-1.04 3.175-2.313V12.414h-.797V44.2c0 .961-1.058 1.735-2.378 1.735h-4.762c-1.317 0-2.38-.774-2.38-1.735V12.414zm0 0"/><path style="stroke:none;fill-rule:nonzero;fill:#fff;fill-opacity:1" d="M16.527 12.285c-.398 0-.71.254-.71.57l-.005 5.735c0 .316.313.57.711.57h3.227c.398 0 .71-.254.71-.57l.005-5.735c0-.316-.313-.57-.711-.57zm.407 4.211h2.37v1.652h-2.37zm0 0"/></svg>