<svg xmlns="http://www.w3.org/2000/svg" width="64" height="64"><path style="fill-rule:nonzero;fill:#ccc;fill-opacity:1;stroke-width:1;stroke-linecap:butt;stroke-linejoin:miter;stroke:#3b3434;stroke-opacity:1;stroke-miterlimit:4" d="M309.875 42.438c-22.719 0-41.438 20.906-45.156 48.53h179.875c-3.719-27.624-22.438-48.53-45.156-48.53zm0 0" transform="scale(.125)"/><path style="stroke:none;fill-rule:nonzero;fill:#25aedf;fill-opacity:1" d="M8.242 12.344h47.516c3.758 0 6.804 3.054 6.804 6.824v23.934c0 3.77-3.046 6.824-6.804 6.824H8.242c-3.758 0-6.805-3.055-6.805-6.824V19.168c0-3.77 3.047-6.824 6.805-6.824zm0 0"/><path style="stroke:none;fill-rule:nonzero;fill:#25aedf;fill-opacity:1" d="M8.242 21.113h47.516c3.758 0 6.804 3.055 6.804 6.825V51.87c0 3.77-3.046 6.824-6.804 6.824H8.242c-3.758 0-6.805-3.054-6.805-6.824V27.937c0-3.769 3.047-6.824 6.805-6.824zm0 0"/><path style="stroke:none;fill-rule:nonzero;fill:#fff;fill-opacity:1" d="M13.637 47.352c-2.293-1.196-3.7-3.368-3.965-6.13-.461-4.769 2.383-8.308 6.68-8.312h2.23l.215-3.004c.121-1.73.605-3.633 1.144-4.496 1.965-3.152 5.942-4.117 8.743-2.117 2.613 1.863 3.039 3.555 3.039 12.086 0 7.441-.028 7.644-1.305 9.418-.715.996-2.012 2.16-2.875 2.582-2.105 1.027-11.914 1.008-13.906-.027zm12.816-.899c.95-.308 2.25-1.215 2.895-2.016 1.074-1.34 1.183-1.984 1.332-8.027.203-8.058-.29-10.312-2.614-11.996-4.03-2.914-8.398.871-8.398 7.281v2.207l-2.918.246c-2.441.207-3.152.524-4.355 1.934-2.891 3.383-1.868 8.648 1.984 10.2 2.05.827 9.723.937 12.074.171zm0 0"/><path style="stroke:none;fill-rule:nonzero;fill:#fff;fill-opacity:1" d="M49.676 47.64c2.293-1.195 3.699-3.367 3.969-6.128.457-4.77-2.387-8.305-6.684-8.313h-2.23l-.211-3.004c-.125-1.73-.61-3.633-1.145-4.496-1.969-3.152-5.945-4.117-8.746-2.117-2.613 1.863-3.04 3.555-3.04 12.086 0 7.441.028 7.64 1.306 9.418.714.996 2.011 2.156 2.878 2.582 2.102 1.027 11.91 1.008 13.903-.027zm-12.817-.898c-.949-.308-2.25-1.215-2.894-2.015-1.074-1.34-1.184-1.985-1.332-8.028-.203-8.058.289-10.312 2.613-11.996 4.031-2.914 8.402.871 8.402 7.281v2.207l2.914.246c2.446.208 3.153.524 4.356 1.93 2.89 3.387 1.867 8.653-1.984 10.203-2.051.828-9.723.938-12.075.172zm0 0"/></svg>