<svg xmlns="http://www.w3.org/2000/svg" width="64" height="64"><path style="fill-rule:nonzero;fill:#ccc;fill-opacity:1;stroke-width:1;stroke-linecap:butt;stroke-linejoin:miter;stroke:#3b3434;stroke-opacity:1;stroke-miterlimit:4" d="M309.875 42.438c-22.719 0-41.438 20.906-45.156 48.53h179.875c-3.719-27.624-22.438-48.53-45.156-48.53zm0 0" transform="scale(.125)"/><path style="stroke:none;fill-rule:nonzero;fill:#25aedf;fill-opacity:1" d="M8.242 12.344h47.516c3.758 0 6.804 3.054 6.804 6.824v23.934c0 3.77-3.046 6.824-6.804 6.824H8.242c-3.758 0-6.805-3.055-6.805-6.824V19.168c0-3.77 3.047-6.824 6.805-6.824zm0 0"/><path style="stroke:none;fill-rule:nonzero;fill:#25aedf;fill-opacity:1" d="M8.242 21.113h47.516c3.758 0 6.804 3.055 6.804 6.825V51.87c0 3.77-3.046 6.824-6.804 6.824H8.242c-3.758 0-6.805-3.054-6.805-6.824V27.937c0-3.769 3.047-6.824 6.805-6.824zm0 0"/><path style="stroke:none;fill-rule:evenodd;fill:#fff;fill-opacity:1" d="M25.348 21.742V39.43c-.621-.317-1.297-.516-2-.516-2.434 0-4.649 2.203-4.649 4.621 0 2.422 2.215 4.625 4.649 4.625 2.437 0 4.656-2.203 4.656-4.625V27.023h14.621V39.43c-.617-.317-1.293-.516-1.996-.516-2.434 0-4.649 2.203-4.649 4.621 0 2.422 2.215 4.625 4.649 4.625 2.437 0 4.656-2.203 4.656-4.625V21.742zm0 0"/></svg>