<svg xmlns="http://www.w3.org/2000/svg" width="64" height="64"><path style="fill-rule:nonzero;fill:#ccc;fill-opacity:1;stroke-width:1;stroke-linecap:butt;stroke-linejoin:miter;stroke:#3b3434;stroke-opacity:1;stroke-miterlimit:4" d="M309.875 42.438c-22.719 0-41.438 20.906-45.156 48.53h179.875c-3.719-27.624-22.438-48.53-45.156-48.53zm0 0" transform="scale(.125)"/><path style="stroke:none;fill-rule:nonzero;fill:#25aedf;fill-opacity:1" d="M8.242 12.344h47.516c3.758 0 6.804 3.054 6.804 6.824v23.934c0 3.77-3.046 6.824-6.804 6.824H8.242c-3.758 0-6.805-3.055-6.805-6.824V19.168c0-3.77 3.047-6.824 6.805-6.824zm0 0"/><path style="stroke:none;fill-rule:nonzero;fill:#25aedf;fill-opacity:1" d="M8.242 21.113h47.516c3.758 0 6.804 3.055 6.804 6.825V51.87c0 3.77-3.046 6.824-6.804 6.824H8.242c-3.758 0-6.805-3.054-6.805-6.824V27.937c0-3.769 3.047-6.824 6.805-6.824zm0 0"/><path style="stroke:none;fill-rule:nonzero;fill:#fff;fill-opacity:1" d="m41.008 21.02-.004.003H17.293v24.114h.023-.003l5.671 5.199v.172h23.711V26.406l.012-.015zm-22.274.918h21.371v4.46H23.523zm22.27.093 4.637 4.367h-4.637zm-22.813.38 4.793 4.46V44.22h-4.793zm5.739 4.948h16.175v16.86H23.93zm17.074 0h4.742v21.72l-4.742-4.708zM18.375 45.137h4.61v4.222zm5.555 0h16.828l4.445 4.41H23.93zm0 0"/><path style="stroke:none;fill-rule:nonzero;fill:#fff;fill-opacity:1" d="M28.805 34.715c0 .98-.793 1.77-1.77 1.77a1.77 1.77 0 1 1 1.77-1.77zm5.305 0c0 .98-.79 1.77-1.77 1.77a1.77 1.77 0 1 1 1.77-1.77zm5.308 0c0 .98-.793 1.77-1.77 1.77a1.77 1.77 0 1 1 1.77-1.77zm0 0"/></svg>