<svg xmlns="http://www.w3.org/2000/svg" width="64" height="64"><path style="fill-rule:nonzero;fill:#ccc;fill-opacity:1;stroke-width:1;stroke-linecap:butt;stroke-linejoin:miter;stroke:#3b3434;stroke-opacity:1;stroke-miterlimit:4" d="M309.875 42.438c-22.719 0-41.438 20.906-45.156 48.53h179.875c-3.719-27.624-22.438-48.53-45.156-48.53zm0 0" transform="scale(.125)"/><path style="stroke:none;fill-rule:nonzero;fill:#25aedf;fill-opacity:1" d="M8.242 12.344h47.516c3.758 0 6.804 3.054 6.804 6.824v23.934c0 3.77-3.046 6.824-6.804 6.824H8.242c-3.758 0-6.805-3.055-6.805-6.824V19.168c0-3.77 3.047-6.824 6.805-6.824zm0 0"/><path style="stroke:none;fill-rule:nonzero;fill:#25aedf;fill-opacity:1" d="M8.242 21.113h47.516c3.758 0 6.804 3.055 6.804 6.825V51.87c0 3.77-3.046 6.824-6.804 6.824H8.242c-3.758 0-6.805-3.054-6.805-6.824V27.937c0-3.769 3.047-6.824 6.805-6.824zm0 0"/><path style="stroke:none;fill-rule:nonzero;fill:#fff;fill-opacity:1" d="M32 43.82c-.969 0-1.828.407-2.465 1.04L32 47.32l2.46-2.46A3.473 3.473 0 0 0 32 43.82zm0-7.007c-2.902 0-5.516 1.19-7.418 3.093l2.465 2.461A6.995 6.995 0 0 1 32 40.317c1.934 0 3.684.785 4.953 2.05l2.465-2.46c-1.902-1.903-4.52-3.094-7.418-3.094zm0 0"/><path style="stroke:none;fill-rule:nonzero;fill:#fff;fill-opacity:1" d="M32 29.809c-4.832 0-9.2 1.972-12.371 5.144l2.465 2.461A13.97 13.97 0 0 1 32 33.31a13.97 13.97 0 0 1 9.906 4.105l2.465-2.46C41.2 31.78 36.836 29.808 32 29.808zm0 0"/><path style="stroke:none;fill-rule:nonzero;fill:#fff;fill-opacity:1" d="M32 22.8c-6.766 0-12.883 2.762-17.324 7.2l2.465 2.46A20.95 20.95 0 0 1 32 26.306a20.95 20.95 0 0 1 14.86 6.156L49.323 30C44.883 25.562 38.77 22.8 32 22.8zm0 0"/></svg>