<svg xmlns="http://www.w3.org/2000/svg" width="64" height="64"><path style="fill-rule:nonzero;fill:#ccc;fill-opacity:1;stroke-width:1;stroke-linecap:butt;stroke-linejoin:miter;stroke:#3b3434;stroke-opacity:1;stroke-miterlimit:4" d="M309.875 42.438c-22.719 0-41.438 20.906-45.156 48.53h179.875c-3.719-27.624-22.438-48.53-45.156-48.53zm0 0" transform="scale(.125)"/><path style="stroke:none;fill-rule:nonzero;fill:#25aedf;fill-opacity:1" d="M8.242 12.344h47.516c3.758 0 6.804 3.054 6.804 6.824v23.934c0 3.77-3.046 6.824-6.804 6.824H8.242c-3.758 0-6.805-3.055-6.805-6.824V19.168c0-3.77 3.047-6.824 6.805-6.824zm0 0"/><path style="stroke:none;fill-rule:nonzero;fill:#25aedf;fill-opacity:1" d="M8.242 21.113h47.516c3.758 0 6.804 3.055 6.804 6.825V51.87c0 3.77-3.046 6.824-6.804 6.824H8.242c-3.758 0-6.805-3.054-6.805-6.824V27.937c0-3.769 3.047-6.824 6.805-6.824zm0 0"/><path style="stroke:none;fill-rule:nonzero;fill:#fff;fill-opacity:1" d="M38.086 49.453c-3.707-.742-7.05-1.41-7.426-1.488l-.687-.145V37.262l4.386.039c2.41.02 5.848.07 7.637.11l3.25.073v6.668c0 6.278-.012 6.668-.207 6.657-.113-.008-3.242-.618-6.953-1.356zM23.41 46.527l-4.594-.902-.03-4.242-.036-4.246 4.629.054c2.543.032 4.637.067 4.656.082.016.016.016 2.305 0 5.09l-.031 5.063zM18.754 31.31c0-2.329.016-4.235.035-4.235.02 0 2.043-.402 4.5-.894s4.535-.895 4.621-.895c.121 0 .152 1.012.152 5.05v5.056l-2.414.078c-1.332.043-3.425.078-4.656.078h-2.238zm11.219-1.149v-5.3l7.43-1.47c4.085-.808 7.523-1.492 7.636-1.523.195-.058.207.32.207 6.692v6.75h-4.035c-2.223 0-5.66.035-7.64.078l-3.598.078zm0 0"/></svg>