<svg xmlns="http://www.w3.org/2000/svg" width="64" height="64"><path style="fill-rule:nonzero;fill:#ccc;fill-opacity:1;stroke-width:1;stroke-linecap:butt;stroke-linejoin:miter;stroke:#3b3434;stroke-opacity:1;stroke-miterlimit:4" d="M309.875 42.438c-22.719 0-41.438 20.906-45.156 48.53h179.875c-3.719-27.624-22.438-48.53-45.156-48.53zm0 0" transform="scale(.125)"/><path style="stroke:none;fill-rule:nonzero;fill:#25aedf;fill-opacity:1" d="M8.242 12.344h47.516c3.758 0 6.804 3.054 6.804 6.824v23.934c0 3.77-3.046 6.824-6.804 6.824H8.242c-3.758 0-6.805-3.055-6.805-6.824V19.168c0-3.77 3.047-6.824 6.805-6.824zm0 0"/><path style="stroke:none;fill-rule:nonzero;fill:#25aedf;fill-opacity:1" d="M8.242 21.113h47.516c3.758 0 6.804 3.055 6.804 6.825V51.87c0 3.77-3.046 6.824-6.804 6.824H8.242c-3.758 0-6.805-3.054-6.805-6.824V27.937c0-3.769 3.047-6.824 6.805-6.824zm0 0"/><path style="stroke:none;fill-rule:nonzero;fill:#fff;fill-opacity:1" d="M49.496 34.375 33.617 18.5a2.339 2.339 0 0 0-3.308 0l-3.297 3.297 4.18 4.183a2.787 2.787 0 0 1 2.863.665 2.79 2.79 0 0 1 .66 2.878l4.031 4.032a2.79 2.79 0 0 1 2.879.66 2.791 2.791 0 0 1 0 3.941 2.784 2.784 0 0 1-3.941 0 2.787 2.787 0 0 1-.61-3.031l-3.758-3.758v9.89c.266.134.516.31.739.528a2.791 2.791 0 0 1 0 3.942 2.784 2.784 0 0 1-3.942 0 2.784 2.784 0 0 1 .914-4.547v-9.985a2.79 2.79 0 0 1-1.516-3.656l-4.12-4.121-10.887 10.887a2.339 2.339 0 0 0 0 3.308l15.879 15.88a2.339 2.339 0 0 0 3.308 0L49.496 37.69a2.343 2.343 0 0 0 0-3.312"/></svg>