<svg xmlns="http://www.w3.org/2000/svg" width="64" height="64"><path style="stroke:none;fill-rule:nonzero;fill:#3ecdf6;fill-opacity:1" d="M3.086 6.957a.964.964 0 0 0-.961.965v48.187c0 .536.43.965.96.965h57.83c.53 0 .96-.43.96-.965V7.922a.964.964 0 0 0-.96-.965zm0 0"/><path style="stroke:none;fill-rule:nonzero;fill:#0055d4;fill-opacity:1" d="M2.125 7.156v4.2c0 .773.43 1.398.96 1.398h57.83c.53 0 .96-.625.96-1.399V7.156zm0 0"/><path style="stroke:none;fill-rule:nonzero;fill:#fff;fill-opacity:1" d="M58.984 9.336a.483.483 0 0 0-.48-.484.483.483 0 0 0 0 .964.48.48 0 0 0 .48-.48zm-2.89 0a.483.483 0 1 0-.967-.002.483.483 0 0 0 .967.002zm-2.891 0a.483.483 0 1 0-.963-.002.483.483 0 0 0 .963.002zm0 0"/><path style="stroke:none;fill-rule:nonzero;fill:#a6e7f3;fill-opacity:1" d="M2.125 7.89a.96.96 0 0 1 .96-.964h57.83c.53 0 .96.43.96.965zm0 0"/><path style="stroke:none;fill-rule:nonzero;fill:#fff;fill-opacity:1" d="M4.05 9.336a.483.483 0 0 0-.48-.484.487.487 0 0 0-.484.484.483.483 0 0 0 .965 0zm1.93 0a.487.487 0 0 0-.484-.484.483.483 0 0 0 0 .964.483.483 0 0 0 .484-.48zm0 0"/><path style="fill-rule:nonzero;fill:#ccc;fill-opacity:1;stroke-width:1;stroke-linecap:butt;stroke-linejoin:miter;stroke:#3b3434;stroke-opacity:1;stroke-miterlimit:4" d="M97.438 127.063c-2.938 0-5.344 2.687-5.813 6.25h23.156c-.5-3.563-2.906-6.25-5.812-6.25zm0 0" transform="scale(.125)"/><path style="stroke:none;fill-rule:nonzero;fill:#25aedf;fill-opacity:1" d="M8.254 16.79h6.117c.48 0 .875.39.875.874v3.074a.876.876 0 0 1-.875.875H8.254a.877.877 0 0 1-.879-.875v-3.074c0-.484.395-.875.879-.875zm0 0"/><path style="stroke:none;fill-rule:nonzero;fill:#25aedf;fill-opacity:1" d="M8.254 17.914h6.117c.48 0 .875.39.875.875v3.074a.88.88 0 0 1-.875.88H8.254a.88.88 0 0 1-.879-.88V18.79c0-.484.395-.875.879-.875zm0 0"/><path style="fill-rule:nonzero;fill:#ccc;fill-opacity:1;stroke-width:1;stroke-linecap:butt;stroke-linejoin:miter;stroke:#3b3434;stroke-opacity:1;stroke-miterlimit:4" d="M97.438 204.406c-2.938 0-5.344 2.688-5.813 6.219h23.156c-.5-3.531-2.906-6.219-5.812-6.219zm0 0" transform="scale(.125)"/><path style="stroke:none;fill-rule:nonzero;fill:#25aedf;fill-opacity:1" d="M8.254 26.453h6.117a.88.88 0 0 1 .875.875v3.074a.88.88 0 0 1-.875.88H8.254a.88.88 0 0 1-.879-.88v-3.074a.88.88 0 0 1 .879-.875zm0 0"/><path style="stroke:none;fill-rule:nonzero;fill:#25aedf;fill-opacity:1" d="M8.254 27.582h6.117c.48 0 .875.39.875.875v3.074a.876.876 0 0 1-.875.875H8.254a.877.877 0 0 1-.879-.875v-3.074c0-.484.395-.875.879-.875zm0 0"/></svg>