<svg xmlns="http://www.w3.org/2000/svg" width="64" height="64"><path style="stroke:none;fill-rule:nonzero;fill:#fff;fill-opacity:1" d="M62.855 32c0 16.621-13.164 30.254-29.773 30.836-16.61.582-30.7-12.094-31.863-28.676C.055 17.582 12.234 3.06 28.762 1.316 45.289-.43 60.23 11.23 62.555 27.688"/><path style="stroke:none;fill-rule:evenodd;fill:#35c770;fill-opacity:1" d="M32.031 11.402c-.11 0-.222.004-.34.012-3.472.27-5.421 4.504-3.96 9.16-1.778-2.992-4.09-5.285-7.012-5.265-.235.004-.473.02-.719.05-3.496.47-3.988 4.856-.324 6.907a18.31 18.31 0 0 1 2.336 1.578c-1.274-.711-2.57-1.157-3.825-1.157a4.82 4.82 0 0 0-2.476.668c-2.531 1.48-1.672 4.907 1.559 5.594a4.638 4.638 0 0 0-2.301 1.336c-2.047 2.16-.043 5.297 3.449 4.7.32-.055.652-.098.988-.13-.832.38-1.504.965-1.922 1.829-1.027 2.12 1.235 4.007 3.727 2.722 1.937-1 4.465-1.472 6.637-1.707l.355.2-.379.21c-.004 0-.004.004-.004.004l.551.918-.55.914s0 .004.003.004l.38.211-.38.211c-.004.004-.004.004-.004.008l.551.914-.55.914c0 .004 0 .004.003.008l.38.21-.38.212c-.004 0-.004.004-.004.004l.551.918-.55.914c0 .004 0 .004.003.004l.38.21-.38.215c-.004 0-.004 0-.004.004l.551.914-.55.918s0 .004.003.004l.38.211-.38.211c-.004 0-.004.004-.004.008l.551.914-.55.914c0 .004 0 .004.003.008l.38.21-.38.212c-.004 0-.004.004-.004.004l.551.914-.55.918s0 .004.003.004l.38.21-.38.211c-.004.004-.004.004-.004.008l.551.914-.082.137h7.32l-.082-.137.551-.914v-.008l-.383-.21.383-.211v-.004l-.55-.918.55-.914v-.004l-.383-.211.383-.211V49l-.55-.914.55-.914v-.008l-.383-.21.383-.212v-.004l-.55-.918.55-.914v-.004l-.383-.215.383-.21v-.004l-.55-.914.55-.918v-.004l-.383-.211.383-.211v-.008l-.55-.914.55-.914v-.008l-.383-.21.383-.212v-.004l-.55-.918.55-.914v-.004l-.383-.21.371-.208c2.192.23 4.758.704 6.723 1.715 2.492 1.285 4.754-.601 3.727-2.722-.418-.864-1.09-1.45-1.922-1.829.336.032.668.075.988.13 3.492.597 5.496-2.54 3.45-4.7a4.644 4.644 0 0 0-2.298-1.336c3.227-.687 4.086-4.113 1.555-5.594-1.96-1.148-4.16-.71-6.3.489a18.178 18.178 0 0 1 2.335-1.578c3.664-2.051 3.172-6.438-.324-6.907-3.469-.46-6.133 2.297-8.09 5.84 1.672-5.644-.633-9.765-3.879-9.797zm0 0"/><path style="stroke:none;fill-rule:evenodd;fill:#3ac5e6;fill-opacity:1" d="M20.914 5.2A28.934 28.934 0 0 0 3.062 31.917c.012 14.898 11.333 27.348 26.157 28.781v-5.57c-11.75-1.41-20.602-11.371-20.61-23.211a23.385 23.385 0 0 1 12.305-20.57zm22.172.015v6.117A23.387 23.387 0 0 1 55.39 31.918c-.016 11.832-8.864 21.793-20.61 23.2v5.6c14.832-1.429 26.157-13.894 26.157-28.8A28.933 28.933 0 0 0 43.085 5.215zm0 0"/></svg>