<svg xmlns="http://www.w3.org/2000/svg" width="64" height="64"><path style="fill-rule:nonzero;fill:#fff;fill-opacity:1;stroke-width:2.611469;stroke-linecap:butt;stroke-linejoin:miter;stroke:#999;stroke-opacity:1;stroke-miterlimit:4" d="M7.834 1006.973h32.332a5.223 5.223 0 0 1 5.224 5.223v32.332a5.223 5.223 0 0 1-5.224 5.224H7.834a5.223 5.223 0 0 1-5.224-5.224v-32.332a5.223 5.223 0 0 1 5.224-5.223zm0 0" transform="translate(0 -1339.15) scale(1.33333)"/><path style="stroke:none;fill-rule:nonzero;fill:#999;fill-opacity:1" d="M44.363 25.434c0-8.829-5.593-15.989-12.496-15.989-6.898 0-12.492 7.16-12.492 15.989 0 8.832 5.594 15.988 12.492 15.988 6.903 0 12.496-7.156 12.496-15.988zm0 0"/><path style="stroke:none;fill-rule:nonzero;fill:#999;fill-opacity:1" d="M42.82 39.66c-2.195 5.113-6.39 8.297-10.953 8.297-4.55-.008-8.742-3.187-10.933-8.293-9.727 3.39-16.168 10.973-16.57 19.496h55c-.4-8.52-6.829-16.101-16.544-19.5zm0 0"/></svg>