<svg xmlns="http://www.w3.org/2000/svg" width="16" height="16"><path style="stroke:none;fill-rule:nonzero;fill:#1a1a1a;fill-opacity:1" d="M4.102 14.727h2.183c.024 0 .043.035.043.078v.945c0 .043-.02.078-.043.078H4.102c-.02 0-.04-.035-.04-.078v-.945c0-.043.02-.078.04-.078zm5.613 0h2.183c.02 0 .04.035.04.078v.945c0 .043-.02.078-.04.078H9.715c-.024 0-.043-.035-.043-.078v-.945c0-.043.02-.078.043-.078zm0 0"/><path style="stroke:none;fill-rule:nonzero;fill:#4d4d4d;fill-opacity:1" d="M3.965.172h8.07a.07.07 0 0 1 .067.07v14.852c0 .043-.032.074-.067.074h-8.07c-.035 0-.067-.031-.067-.074V.242a.07.07 0 0 1 .067-.07zm0 0"/><path style="stroke:none;fill-rule:nonzero;fill:#b3b3b3;fill-opacity:1" d="M4.395 6.656h.738c.035 0 .062.032.062.07v7.56c0 .038-.027.07-.062.07h-.738c-.036 0-.063-.032-.063-.07v-7.56c0-.038.027-.07.063-.07zm1.296 0h.735c.035 0 .062.032.062.07v7.56c0 .038-.027.07-.062.07H5.69c-.035 0-.066-.032-.066-.07v-7.56c0-.038.031-.07.066-.07zm1.293 0h.739c.035 0 .062.032.062.07v7.56c0 .038-.027.07-.062.07h-.739c-.035 0-.062-.032-.062-.07v-7.56c0-.038.027-.07.062-.07zm1.293 0h.739c.035 0 .062.032.062.07v7.56c0 .038-.027.07-.062.07h-.739c-.035 0-.062-.032-.062-.07v-7.56c0-.038.027-.07.062-.07zm1.297 0h.735c.035 0 .066.032.066.07v7.56c0 .038-.031.07-.066.07h-.735c-.035 0-.062-.032-.062-.07v-7.56c0-.038.027-.07.062-.07zm1.293 0h.738c.036 0 .063.032.063.07v7.56c0 .038-.027.07-.063.07h-.738c-.035 0-.062-.032-.062-.07v-7.56c0-.038.027-.07.062-.07zm0 0"/><path style="stroke:none;fill-rule:nonzero;fill:red;fill-opacity:1" d="M11.598.98a.218.218 0 0 1-.22.22.221.221 0 0 1 0-.441.22.22 0 0 1 .22.221zm0 0"/><path style="stroke:none;fill-rule:nonzero;fill:green;fill-opacity:1" d="M11.668 1.715a.29.29 0 0 1-.29.293.288.288 0 0 1-.284-.293c0-.164.129-.293.285-.293a.29.29 0 0 1 .289.293zm0 0"/><path style="stroke:none;fill-rule:nonzero;fill:#fff;fill-opacity:1" d="M11.668 2.45a.29.29 0 0 1-.29.292.288.288 0 0 1-.284-.293c0-.16.129-.293.285-.293.16 0 .289.133.289.293zm0 0"/><path style="stroke:none;fill-rule:nonzero;fill:#000;fill-opacity:1" d="M10.707 1.063c0 .011 0 .023-.004.03a.021.021 0 0 1-.012.02c-.004.008-.011.012-.015.016-.008.004-.016.004-.028.004-.007 0-.015 0-.023-.004-.004-.004-.012-.008-.016-.016a.021.021 0 0 1-.011-.02c-.004-.007-.004-.019-.004-.03 0-.012 0-.02.004-.028 0-.012.004-.015.011-.023.004-.004.008-.012.016-.012a.056.056 0 0 1 .027-.008c.008 0 .016.004.024.008.004 0 .011.008.015.012.008.008.012.011.012.023.004.008.004.016.004.028zm-.094 0c0 .019.004.03.012.039.004.007.012.011.027.011.012 0 .02-.004.024-.011.008-.008.011-.02.011-.04a.066.066 0 0 0-.011-.039c-.004-.007-.012-.011-.024-.011-.015 0-.023.004-.027.011a.066.066 0 0 0-.012.04zm.219.066v-.086a.049.049 0 0 0-.008-.023.03.03 0 0 0-.02-.008c-.007 0-.011.004-.015.004-.004.004-.008.004-.012.007-.004.008-.004.012-.007.016v.09h-.024V.996h.02l.004.02c.003-.004.003-.008.007-.012.004 0 .008-.004.008-.004.004-.004.008-.004.012-.004s.008-.004.012-.004c.015 0 .027.004.035.012.008.008.011.023.011.039v.086zm-.148 1.457c0 .012 0 .023-.004.031 0 .008-.004.016-.012.024a.085.085 0 0 1-.02.011c-.003.004-.011.004-.023.004-.008 0-.016 0-.023-.004a.055.055 0 0 1-.016-.011c-.008-.008-.012-.016-.016-.024 0-.008-.004-.02-.004-.031 0-.008.004-.02.004-.027l.012-.024.02-.012c.007-.003.015-.003.023-.003.012 0 .016 0 .023.003a.085.085 0 0 1 .02.012l.012.024c.004.007.004.02.004.027zm-.094 0c0 .02.004.031.008.039a.035.035 0 0 0 .027.012c.016 0 .023-.004.027-.012.008-.008.008-.02.008-.04 0-.015 0-.026-.008-.034-.004-.012-.011-.016-.027-.016-.012 0-.02.004-.027.016a.078.078 0 0 0-.008.035zm.191-.046h-.027v.116h-.024V2.54h-.023v-.012l.023-.007v-.032c.004-.008.008-.011.008-.015.004-.004.008-.004.016-.008h.031c.004 0 .004 0 .008.004l-.004.015h-.008c-.004-.004-.008-.004-.011-.004-.004 0-.004 0-.008.004 0 0-.004 0-.004.004-.004 0-.004.004-.004.008v.024h.027zm.086 0h-.031v.116h-.024V2.54h-.023v-.012l.024-.007v-.012c0-.008.003-.016.003-.02.004-.008.004-.011.008-.015s.008-.004.012-.008h.031c.004 0 .008 0 .012.004l-.008.015h-.008c0-.004-.004-.004-.008-.004-.003 0-.007 0-.007.004-.004 0-.004 0-.008.004 0 0 0 .004-.004.008v.024h.031zm-.39-.849h.007a.012.012 0 0 0 .008.004v.02h-.031c-.004.004-.008.008-.008.012-.004.003-.008.007-.008.011-.004.008-.004.012-.004.02v.07h-.02v-.133h.017l.003.024.008-.008c0-.004.004-.008.008-.008 0-.004.004-.008.008-.008s.008-.004.012-.004zm.097.141c-.008 0-.015 0-.023-.004s-.016-.008-.02-.016a.048.048 0 0 1-.011-.019c-.004-.008-.004-.02-.004-.031 0-.008 0-.02.004-.028l.011-.023c.004-.004.012-.012.016-.012a.056.056 0 0 1 .023-.008c.008 0 .016.004.024.004.004.004.011.008.015.016a.03.03 0 0 1 .008.016c.004.007.004.015.004.027v.012h-.082c0 .015.004.027.008.035a.035.035 0 0 0 .027.012h.012c.004 0 .008 0 .012-.004h.007c.004-.004.008-.004.012-.004v.02c-.004 0-.008 0-.012.003h-.007c-.004.004-.008.004-.012.004h-.012zm-.004-.121c-.011 0-.015.004-.023.012-.004.004-.008.015-.008.027h.059v-.016c0-.004-.004-.007-.008-.011a.008.008 0 0 0-.008-.008c-.004-.004-.008-.004-.012-.004zm.168.082c0 .008 0 .012-.004.016 0 .007-.004.011-.007.011a.03.03 0 0 1-.016.008c-.008.004-.016.004-.024.004-.007 0-.015 0-.023-.004-.004 0-.012 0-.016-.004v-.02c.004 0 .008 0 .008.005h.012c.004.004.008.004.012.004h.023c.004 0 .008-.004.008-.004.004 0 .004-.004.004-.008.004 0 .004-.004.004-.008 0 0 0-.004-.004-.004 0-.004 0-.004-.004-.008 0 0-.004-.004-.008-.004-.004-.004-.008-.007-.015-.007-.004-.004-.008-.004-.016-.008-.004-.004-.008-.004-.012-.008s-.004-.008-.008-.012v-.015c0-.004 0-.008.004-.012 0-.008.004-.012.008-.012.004-.004.008-.008.016-.008.004 0 .011-.004.02-.004.007 0 .01.004.019.004l.02.008-.009.016c-.003 0-.011-.004-.015-.004-.008-.004-.012-.004-.02-.004s-.011 0-.015.004-.008.008-.008.012c0 .003 0 .007.004.007 0 .004 0 .004.004.008 0 0 .004.004.008.004.003.004.007.004.015.008a.03.03 0 0 1 .016.008c.004 0 .008.004.011.008.004 0 .004.003.008.007v.016zm.09.039c-.008 0-.015 0-.023-.004s-.016-.008-.02-.016c-.004-.003-.012-.011-.012-.019-.003-.008-.003-.02-.003-.031 0-.008 0-.02.003-.028 0-.007.004-.015.012-.023.004-.004.008-.012.016-.012a.056.056 0 0 1 .023-.008c.008 0 .016.004.02.004a.069.069 0 0 1 .02.016.03.03 0 0 1 .007.016c.004.007.004.015.004.027v.012h-.086a.182.182 0 0 0 .012.035.035.035 0 0 0 .027.012h.012c.004 0 .008 0 .012-.004h.007c.004-.004.008-.004.012-.004v.02c-.004 0-.008 0-.012.003h-.007c-.004.004-.008.004-.012.004h-.012zm-.004-.121c-.011 0-.02.004-.023.012-.004.004-.008.015-.008.027h.059v-.016l-.008-.011a.008.008 0 0 0-.008-.008c-.004-.004-.008-.004-.012-.004zm.129.102h.02v.015h-.004c-.004.004-.004.004-.008.004h-.012c-.004 0-.008 0-.011-.004-.008 0-.012 0-.012-.004-.004-.004-.008-.008-.008-.015-.004-.004-.004-.012-.004-.02v-.078h-.02v-.008l.02-.012.012-.027h.011v.031h.036v.016h-.036v.078c0 .008 0 .016.004.02s.008.004.012.004zm0 0"/><path style="stroke:none;fill-rule:nonzero;fill:#2a7fff;fill-opacity:1" d="M4.332 4.473v1.906c0 .043.027.078.063.078h.738c.035 0 .062-.035.062-.078V4.473zm1.293 0v1.906c0 .043.031.078.066.078h.735c.035 0 .062-.035.062-.078V4.473zm1.297 0v1.906c0 .043.027.078.062.078h.739c.035 0 .062-.035.062-.078V4.473zm1.293 0v1.906c0 .043.027.078.062.078h.739c.035 0 .062-.035.062-.078V4.473zm1.297 0v1.906c0 .043.027.078.062.078h.735c.035 0 .066-.035.066-.078V4.473zm1.293 0v1.906c0 .043.027.078.062.078h.738c.036 0 .063-.035.063-.078V4.473zm0 0"/><path style="stroke:none;fill-rule:nonzero;fill:#fff;fill-opacity:1" d="M4.504 4.582c-.035 0-.063.035-.063.078v.285c0 .043.028.078.063.078h.52c.035 0 .062-.035.062-.078V4.66c0-.043-.027-.078-.063-.078zm1.293 0c-.035 0-.063.035-.063.078v.285c0 .043.028.078.063.078h.52c.035 0 .066-.035.066-.078V4.66c0-.043-.031-.078-.067-.078zm1.297 0c-.035 0-.067.035-.067.078v.285c0 .043.032.078.067.078h.52c.034 0 .062-.035.062-.078V4.66c0-.043-.028-.078-.063-.078zm1.293 0c-.035 0-.063.035-.063.078v.285c0 .043.028.078.063.078h.52c.034 0 .066-.035.066-.078V4.66c0-.043-.032-.078-.067-.078zm1.297 0c-.036 0-.067.035-.067.078v.285c0 .043.031.078.067.078h.52c.034 0 .062-.035.062-.078V4.66c0-.043-.028-.078-.063-.078zm1.293 0c-.036 0-.063.035-.063.078v.285c0 .043.027.078.063.078h.52c.034 0 .062-.035.062-.078V4.66c0-.043-.028-.078-.063-.078zM4.504 5.906c-.035 0-.063.035-.063.078v.286c0 .043.028.078.063.078h.52c.035 0 .062-.035.062-.078v-.286c0-.043-.027-.078-.063-.078zm1.293 0c-.035 0-.063.035-.063.078v.286c0 .043.028.078.063.078h.52c.035 0 .066-.035.066-.078v-.286c0-.043-.031-.078-.067-.078zm1.297 0c-.035 0-.067.035-.067.078v.286c0 .043.032.078.067.078h.52c.034 0 .062-.035.062-.078v-.286c0-.043-.028-.078-.063-.078zm1.293 0c-.035 0-.063.035-.063.078v.286c0 .043.028.078.063.078h.52c.034 0 .066-.035.066-.078v-.286c0-.043-.032-.078-.067-.078zm1.297 0c-.036 0-.067.035-.067.078v.286c0 .043.031.078.067.078h.52c.034 0 .062-.035.062-.078v-.286c0-.043-.028-.078-.063-.078zm1.293 0c-.036 0-.063.035-.063.078v.286c0 .043.027.078.063.078h.52c.034 0 .062-.035.062-.078v-.286c0-.043-.028-.078-.063-.078zm0 0"/><path style="stroke:none;fill-rule:nonzero;fill:#333;fill-opacity:1" d="M4.332 7.89v1.907c0 .043.027.078.063.078h.738c.035 0 .062-.035.062-.078V7.89zm1.293 0v1.907c0 .043.031.078.066.078h.735c.035 0 .062-.035.062-.078V7.89zm1.297 0v1.907c0 .043.027.078.062.078h.739c.035 0 .062-.035.062-.078V7.89zm1.293 0v1.907c0 .043.027.078.062.078h.739c.035 0 .062-.035.062-.078V7.89zm1.297 0v1.907c0 .043.027.078.062.078h.735c.035 0 .066-.035.066-.078V7.89zm1.293 0v1.907c0 .043.027.078.062.078h.738c.036 0 .063-.035.063-.078V7.89zm0 0"/><path style="stroke:none;fill-rule:nonzero;fill:#fff;fill-opacity:1" d="M4.504 8c-.035 0-.063.035-.063.078v.285c0 .043.028.078.063.078h.52c.035 0 .062-.035.062-.078v-.285c0-.043-.027-.078-.063-.078zm1.293 0c-.035 0-.063.035-.063.078v.285c0 .043.028.078.063.078h.52c.035 0 .066-.035.066-.078v-.285c0-.043-.031-.078-.067-.078zm1.297 0c-.035 0-.067.035-.067.078v.285c0 .043.032.078.067.078h.52c.034 0 .062-.035.062-.078v-.285c0-.043-.028-.078-.063-.078zm1.293 0c-.035 0-.063.035-.063.078v.285c0 .043.028.078.063.078h.52c.034 0 .066-.035.066-.078v-.285c0-.043-.032-.078-.067-.078zm1.297 0c-.036 0-.067.035-.067.078v.285c0 .043.031.078.067.078h.52c.034 0 .062-.035.062-.078v-.285c0-.043-.028-.078-.063-.078zm1.293 0c-.036 0-.063.035-.063.078v.285c0 .043.027.078.063.078h.52c.034 0 .062-.035.062-.078v-.285c0-.043-.028-.078-.063-.078zM4.504 9.324c-.035 0-.063.035-.063.078v.286c0 .042.028.078.063.078h.52c.035 0 .062-.036.062-.079v-.285c0-.043-.027-.078-.063-.078zm1.293 0c-.035 0-.063.035-.063.078v.286c0 .042.028.078.063.078h.52c.035 0 .066-.036.066-.079v-.285c0-.043-.031-.078-.067-.078zm1.297 0c-.035 0-.067.035-.067.078v.286c0 .042.032.078.067.078h.52c.034 0 .062-.036.062-.079v-.285c0-.043-.028-.078-.063-.078zm1.293 0c-.035 0-.063.035-.063.078v.286c0 .042.028.078.063.078h.52c.034 0 .066-.036.066-.079v-.285c0-.043-.032-.078-.067-.078zm1.297 0c-.036 0-.067.035-.067.078v.286c0 .042.031.078.067.078h.52c.034 0 .062-.036.062-.079v-.285c0-.043-.028-.078-.063-.078zm1.293 0c-.036 0-.063.035-.063.078v.286c0 .042.027.078.063.078h.52c.034 0 .062-.036.062-.079v-.285c0-.043-.028-.078-.063-.078zm0 0"/><path style="stroke:none;fill-rule:nonzero;fill:#0f0;fill-opacity:1" d="M6.383 8.66a.112.112 0 0 1-.11.113.113.113 0 0 1-.109-.113c0-.058.05-.11.11-.11.058 0 .109.052.109.11zm-1.297 0c0 .063-.047.113-.106.113a.11.11 0 0 1-.109-.113.11.11 0 0 1 .11-.11c.058 0 .105.052.105.11zm2.59 0c0 .063-.047.113-.106.113a.11.11 0 0 1-.11-.113.11.11 0 0 1 .11-.11.11.11 0 0 1 .106.11zm1.297 0a.112.112 0 0 1-.11.113.113.113 0 0 1-.11-.113c0-.058.052-.11.11-.11.059 0 .11.052.11.11zm1.293 0a.11.11 0 0 1-.11.113c-.058 0-.105-.05-.105-.113 0-.058.047-.11.105-.11a.11.11 0 0 1 .11.11zm1.293 0c0 .063-.047.113-.106.113a.113.113 0 0 1-.11-.113c0-.058.052-.11.11-.11a.11.11 0 0 1 .106.11zM6.383 5.242a.112.112 0 0 1-.11.113.113.113 0 0 1-.109-.113c0-.058.05-.11.11-.11.058 0 .109.052.109.11zm-1.297 0c0 .063-.047.113-.106.113a.11.11 0 0 1-.109-.113.11.11 0 0 1 .11-.11c.058 0 .105.052.105.11zm2.59 0c0 .063-.047.113-.106.113a.11.11 0 0 1-.11-.113.11.11 0 0 1 .11-.11.11.11 0 0 1 .106.11zm1.297 0a.112.112 0 0 1-.11.113.113.113 0 0 1-.11-.113c0-.058.052-.11.11-.11.059 0 .11.052.11.11zm1.293 0a.11.11 0 0 1-.11.113c-.058 0-.105-.05-.105-.113 0-.058.047-.11.105-.11a.11.11 0 0 1 .11.11zm1.293 0c0 .063-.047.113-.106.113a.113.113 0 0 1-.11-.113c0-.058.052-.11.11-.11a.11.11 0 0 1 .106.11zm0 0"/><path style="fill-rule:nonzero;fill:#ccc;fill-opacity:1;stroke-width:1;stroke-linecap:butt;stroke-linejoin:miter;stroke:#3b3434;stroke-opacity:1;stroke-miterlimit:4" d="M133.875 26.625H309c1.25 0 2.25 1.375 2.25 2.875v100.125c0 1.625-1 2.875-2.25 2.875H133.875c-1.125 0-2.125-1.25-2.125-2.875V29.5c0-1.5 1-2.875 2.125-2.875zm0 0" transform="scale(.03125)"/><path style="stroke:none;fill-rule:nonzero;fill:#0f0;fill-opacity:1" d="M4.395 1.055h5.05c.035 0 .067.035.067.078v2.71c0 .044-.032.079-.067.079h-5.05c-.036 0-.063-.035-.063-.078V1.133c0-.043.027-.078.063-.078zm0 0"/><path style="stroke:none;fill-rule:nonzero;fill:#000;fill-opacity:1" d="M5.527 1.879a.458.458 0 0 1-.093.035.46.46 0 0 1-.106.012.253.253 0 0 1-.187-.07.257.257 0 0 1-.07-.192c0-.078.023-.144.07-.187a.266.266 0 0 1 .195-.07.38.38 0 0 1 .094.007.98.98 0 0 1 .082.027v.106a.37.37 0 0 0-.082-.035.252.252 0 0 0-.078-.012c-.047 0-.086.012-.114.043-.027.027-.039.07-.039.121 0 .055.012.094.04.125a.141.141 0 0 0 .109.043c.011 0 .023 0 .035-.004a.05.05 0 0 0 .027-.008v-.097h-.074v-.086h.191zm.121-.465h.141l.172.344v-.344h.117v.5h-.137l-.175-.344v.344h-.118zm.562 0h.126v.3c0 .044.004.071.02.09.011.016.03.024.062.024.027 0 .05-.008.062-.023a.17.17 0 0 0 .02-.09v-.3h.125v.3c0 .07-.02.125-.05.16a.227.227 0 0 1-.157.05.227.227 0 0 1-.156-.05c-.035-.035-.051-.09-.051-.16zm.653 0h.074l-.171.566h-.07zm.133-.019h.117v.52h-.117zm.231.145h.113v.374h-.113zm0-.145h.113v.097h-.113zm.589.293v.226h-.113v-.176c0-.031 0-.054-.004-.066a.05.05 0 0 0-.008-.027.03.03 0 0 0-.015-.016.056.056 0 0 0-.028-.008c-.023 0-.043.008-.054.027a.128.128 0 0 0-.024.082v.184h-.113V1.54h.113v.055c.02-.02.035-.04.055-.047a.128.128 0 0 1 .066-.016c.043 0 .075.012.094.04.024.027.031.066.031.117zm.114.082v-.23h.117v.241c.004.012.004.024.008.028a.047.047 0 0 0 .02.02c.007.003.015.007.027.007a.062.062 0 0 0 .054-.031c.016-.02.02-.047.02-.078v-.188h.117v.375h-.117V1.86a.167.167 0 0 1-.055.051.164.164 0 0 1-.062.016.117.117 0 0 1-.094-.04.175.175 0 0 1-.035-.116zm.574-.047-.129-.184h.121l.074.113.075-.113h.12l-.128.184.133.191h-.122l-.078-.117-.082.117h-.12zm-2.781.687v.09a.248.248 0 0 0-.07-.023c-.024-.004-.044-.008-.067-.008a.146.146 0 0 0-.047.008c-.012.003-.016.015-.016.027 0 .008.004.016.012.02.008.007.024.011.043.011l.02.004c.058.008.097.02.12.04.02.019.028.046.028.085 0 .04-.012.07-.043.09-.027.02-.07.027-.125.027-.023 0-.047 0-.074-.004a.56.56 0 0 1-.078-.02v-.089c.023.012.047.02.07.027.027.004.05.008.074.008.024 0 .04-.004.051-.012.012-.003.016-.015.016-.027s-.004-.02-.012-.023a.207.207 0 0 0-.043-.012l-.023-.004a.234.234 0 0 1-.106-.035.115.115 0 0 1-.031-.086c0-.04.012-.067.039-.086a.204.204 0 0 1 .121-.031c.02 0 .043.004.066.008a.473.473 0 0 1 .075.015zm.48.176v.031h-.27c.005.031.012.051.028.067.02.011.039.02.07.02a.344.344 0 0 0 .152-.047v.093a.324.324 0 0 1-.081.023.29.29 0 0 1-.082.008c-.063 0-.114-.015-.149-.05-.039-.036-.055-.083-.055-.145 0-.063.016-.11.051-.145a.204.204 0 0 1 .149-.054c.054 0 .101.02.136.054a.21.21 0 0 1 .051.145zm-.121-.043c0-.023-.004-.04-.02-.055a.065.065 0 0 0-.046-.02c-.024 0-.043.005-.055.02-.016.012-.024.032-.027.055zm.484-.043c-.011-.004-.023-.008-.03-.012-.013 0-.02-.004-.032-.004a.083.083 0 0 0-.066.032c-.016.02-.024.046-.024.086v.171h-.117v-.375h.117v.059a.127.127 0 0 1 .05-.05c.02-.012.04-.02.067-.02h.012a.035.035 0 0 0 .02.004zm.016-.102h.117l.09.258.09-.258h.113l-.14.375h-.125zm.484 0h.118v.375h-.118zm0-.148h.118v.098h-.118zm.59.336v.031h-.27c.005.031.012.051.032.067.016.011.039.02.066.02a.227.227 0 0 0 .075-.013.282.282 0 0 0 .078-.035v.094a.349.349 0 0 1-.078.023.29.29 0 0 1-.082.008c-.067 0-.118-.015-.153-.05a.194.194 0 0 1-.054-.145c0-.063.02-.11.054-.145a.194.194 0 0 1 .145-.054c.058 0 .101.02.136.054a.21.21 0 0 1 .051.145zm-.117-.043a.085.085 0 0 0-.02-.055.082.082 0 0 0-.05-.02c-.024 0-.04.005-.055.02-.016.012-.023.032-.027.055zM8.02 2.5l-.032-.012c-.008 0-.02-.004-.031-.004a.083.083 0 0 0-.066.032c-.016.02-.024.046-.024.086v.171h-.113v-.375h.113v.059a.157.157 0 0 1 .051-.05.135.135 0 0 1 .07-.02H8c.004.004.012.004.02.004zm.343-.09v.09a.248.248 0 0 0-.07-.023c-.023-.004-.043-.008-.066-.008a.146.146 0 0 0-.047.008c-.012.003-.016.015-.016.027 0 .008.004.016.012.02.008.007.023.011.043.011l.02.004c.058.008.097.02.12.04.02.019.028.046.028.085 0 .04-.012.07-.043.09-.028.02-.07.027-.125.027-.024 0-.047 0-.074-.004a.572.572 0 0 1-.079-.02v-.089c.024.012.047.02.07.027.028.004.052.008.075.008s.039-.004.05-.012c.012-.003.016-.015.016-.027s-.004-.02-.011-.023a.207.207 0 0 0-.043-.012l-.024-.004a.234.234 0 0 1-.105-.035.115.115 0 0 1-.031-.086c0-.04.011-.067.039-.086a.204.204 0 0 1 .12-.031.42.42 0 0 1 .067.008.442.442 0 0 1 .074.015zm-2.609.95c-.012-.008-.02-.012-.031-.012-.012-.004-.02-.004-.032-.004-.027 0-.05.008-.066.027a.149.149 0 0 0-.023.086v.176h-.118v-.38h.118v.063a.173.173 0 0 1 .05-.054.128.128 0 0 1 .067-.016h.015c.004 0 .008 0 .02.004zm.059.124v-.23h.117v.242c.004.016.004.024.008.027a.047.047 0 0 0 .019.02c.008.004.016.008.027.008a.062.062 0 0 0 .055-.031c.016-.02.02-.043.02-.079v-.187h.117v.379h-.117v-.055a.206.206 0 0 1-.055.047.115.115 0 0 1-.063.016c-.043 0-.074-.012-.093-.04a.175.175 0 0 1-.035-.117zm.843-.082v.23H6.54v-.241c0-.016-.004-.024-.008-.028a.047.047 0 0 0-.02-.02c-.007-.003-.015-.007-.023-.007a.074.074 0 0 0-.058.031.144.144 0 0 0-.02.078v.188h-.113v-.38h.113v.056a.206.206 0 0 1 .055-.047.128.128 0 0 1 .066-.016c.04 0 .07.012.094.04a.2.2 0 0 1 .031.116zm.477 0v.23H7.02v-.175c0-.035 0-.055-.004-.066 0-.016-.004-.024-.008-.028a.045.045 0 0 0-.016-.02.056.056 0 0 0-.027-.007.062.062 0 0 0-.055.031.117.117 0 0 0-.023.078v.188h-.114v-.38h.114v.056a.292.292 0 0 1 .054-.047.128.128 0 0 1 .067-.016c.043 0 .074.012.094.04.023.026.03.066.03.116zm.117-.148h.117v.379H7.25zm0-.145h.117v.098H7.25zm.594.293v.23h-.117v-.175c0-.035 0-.055-.004-.066 0-.016 0-.024-.004-.028a.047.047 0 0 0-.02-.02c-.008-.003-.015-.007-.027-.007a.062.062 0 0 0-.055.031c-.015.02-.02.043-.02.078v.188H7.48v-.38h.118v.056a.206.206 0 0 1 .054-.047.115.115 0 0 1 .063-.016c.043 0 .074.012.094.04a.175.175 0 0 1 .035.116zm.359.164a.157.157 0 0 1-.05.051.184.184 0 0 1-.067.016.137.137 0 0 1-.11-.055.232.232 0 0 1-.042-.14.22.22 0 0 1 .043-.137.137.137 0 0 1 .109-.055c.023 0 .047.008.066.016.02.011.036.027.051.05v-.058h.117v.34c0 .058-.02.105-.054.136a.245.245 0 0 1-.16.051c-.024 0-.043-.004-.067-.008a.327.327 0 0 1-.062-.015v-.094c.02.012.039.02.058.027a.31.31 0 0 0 .059.008c.039 0 .066-.008.082-.023.02-.02.027-.047.027-.082zm-.074-.234a.083.083 0 0 0-.059.027.154.154 0 0 0-.02.079.14.14 0 0 0 .02.078c.016.02.032.027.059.027.023 0 .043-.008.055-.027a.144.144 0 0 0 .02-.079.154.154 0 0 0-.02-.078.068.068 0 0 0-.055-.027zm0 0"/><path style="stroke:none;fill-rule:nonzero;fill:#333;fill-opacity:1" d="M4.332 10.316v1.907c0 .043.027.078.063.078h.738c.035 0 .062-.035.062-.078v-1.907zm1.293 0v1.907c0 .043.031.078.066.078h.735c.035 0 .062-.035.062-.078v-1.907zm1.297 0v1.907c0 .043.027.078.062.078h.739c.035 0 .062-.035.062-.078v-1.907zm1.293 0v1.907c0 .043.027.078.062.078h.739c.035 0 .062-.035.062-.078v-1.907zm1.297 0v1.907c0 .043.027.078.062.078h.735c.035 0 .066-.035.066-.078v-1.907zm1.293 0v1.907c0 .043.027.078.062.078h.738c.036 0 .063-.035.063-.078v-1.907zm0 0"/><path style="stroke:none;fill-rule:nonzero;fill:#fff;fill-opacity:1" d="M4.504 10.426c-.035 0-.063.035-.063.078v.285c0 .043.028.078.063.078h.52c.035 0 .062-.035.062-.078v-.285c0-.043-.027-.078-.063-.078zm1.293 0c-.035 0-.063.035-.063.078v.285c0 .043.028.078.063.078h.52c.035 0 .066-.035.066-.078v-.285c0-.043-.031-.078-.067-.078zm1.297 0c-.035 0-.067.035-.067.078v.285c0 .043.032.078.067.078h.52c.034 0 .062-.035.062-.078v-.285c0-.043-.028-.078-.063-.078zm1.293 0c-.035 0-.063.035-.063.078v.285c0 .043.028.078.063.078h.52c.034 0 .066-.035.066-.078v-.285c0-.043-.032-.078-.067-.078zm1.297 0c-.036 0-.067.035-.067.078v.285c0 .043.031.078.067.078h.52c.034 0 .062-.035.062-.078v-.285c0-.043-.028-.078-.063-.078zm1.293 0c-.036 0-.063.035-.063.078v.285c0 .043.027.078.063.078h.52c.034 0 .062-.035.062-.078v-.285c0-.043-.028-.078-.063-.078zM4.504 11.75c-.035 0-.063.035-.063.078v.285c0 .043.028.078.063.078h.52c.035 0 .062-.035.062-.078v-.285c0-.043-.027-.078-.063-.078zm1.293 0c-.035 0-.063.035-.063.078v.285c0 .043.028.078.063.078h.52c.035 0 .066-.035.066-.078v-.285c0-.043-.031-.078-.067-.078zm1.297 0c-.035 0-.067.035-.067.078v.285c0 .043.032.078.067.078h.52c.034 0 .062-.035.062-.078v-.285c0-.043-.028-.078-.063-.078zm1.293 0c-.035 0-.063.035-.063.078v.285c0 .043.028.078.063.078h.52c.034 0 .066-.035.066-.078v-.285c0-.043-.032-.078-.067-.078zm1.297 0c-.036 0-.067.035-.067.078v.285c0 .043.031.078.067.078h.52c.034 0 .062-.035.062-.078v-.285c0-.043-.028-.078-.063-.078zm1.293 0c-.036 0-.063.035-.063.078v.285c0 .043.027.078.063.078h.52c.034 0 .062-.035.062-.078v-.285c0-.043-.028-.078-.063-.078zm0 0"/><path style="stroke:none;fill-rule:nonzero;fill:#0f0;fill-opacity:1" d="M6.383 11.086a.113.113 0 0 1-.11.113.113.113 0 0 1-.109-.113c0-.059.05-.11.11-.11.058 0 .109.051.109.11zm-1.297 0c0 .062-.047.113-.106.113a.11.11 0 0 1-.109-.113.11.11 0 0 1 .11-.11c.058 0 .105.051.105.11zm2.59 0c0 .062-.047.113-.106.113a.11.11 0 0 1-.11-.113.11.11 0 0 1 .11-.11c.059 0 .106.051.106.11zm1.297 0a.113.113 0 0 1-.11.113.113.113 0 0 1-.11-.113c0-.059.052-.11.11-.11.059 0 .11.051.11.11zm1.293 0a.11.11 0 0 1-.11.113c-.058 0-.105-.05-.105-.113 0-.059.047-.11.105-.11a.11.11 0 0 1 .11.11zm1.293 0c0 .062-.047.113-.106.113a.113.113 0 0 1-.11-.113c0-.059.052-.11.11-.11.059 0 .106.051.106.11zm0 0"/><path style="stroke:none;fill-rule:evenodd;fill:#e6e6e6;fill-opacity:1" d="M7.7 7.426h8.214v7.457H7.7zm0 0"/><path style="fill:none;stroke-width:.3;stroke-linecap:butt;stroke-linejoin:miter;stroke:#b31d1d;stroke-opacity:1;stroke-miterlimit:4" d="m23.086 23.117.88-1.557.856 1.533" transform="matrix(.31952 0 0 .32865 1.042 .54)"/><path style="fill:none;stroke-width:.3;stroke-linecap:butt;stroke-linejoin:miter;stroke:#b31d1d;stroke-opacity:1;stroke-miterlimit:4" d="m24.847 1027.48.868-1.558.855 1.534" transform="matrix(.31952 0 0 .32865 1.042 -329.541)"/><path style="fill:none;stroke-width:.3;stroke-linecap:butt;stroke-linejoin:miter;stroke:#b31d1d;stroke-opacity:1;stroke-miterlimit:4" d="m23.081 23.118.88-1.557.856 1.534" transform="matrix(.31952 0 0 .32865 2.176 .531)"/><path style="fill:none;stroke-width:.3;stroke-linecap:butt;stroke-linejoin:miter;stroke:#b31d1d;stroke-opacity:1;stroke-miterlimit:4" d="m24.841 1027.48.88-1.557.856 1.534" transform="matrix(.31952 0 0 .32865 2.176 -329.55)"/><path style="fill:none;stroke-width:.3;stroke-linecap:butt;stroke-linejoin:miter;stroke:#b31d1d;stroke-opacity:1;stroke-miterlimit:4" d="m23.085 23.12.88-1.557.856 1.533" transform="matrix(.31952 0 0 .32865 3.296 .523)"/><path style="fill:none;stroke-width:.3;stroke-linecap:butt;stroke-linejoin:miter;stroke:#b31d1d;stroke-opacity:1;stroke-miterlimit:4" d="m24.845 1027.482.868-1.557.856 1.522" transform="matrix(.31952 0 0 .32865 3.296 -329.558)"/><path style="fill:none;stroke-width:.3;stroke-linecap:butt;stroke-linejoin:miter;stroke:#b31d1d;stroke-opacity:1;stroke-miterlimit:4" d="m23.08 23.121.88-1.557.856 1.522" transform="matrix(.31952 0 0 .32865 4.43 .515)"/><path style="fill:none;stroke-width:.3;stroke-linecap:butt;stroke-linejoin:miter;stroke:#b31d1d;stroke-opacity:1;stroke-miterlimit:4" d="m24.84 1027.484.88-1.557.856 1.52" transform="matrix(.31952 0 0 .32865 4.43 -329.566)"/><path style="fill:none;stroke-width:.3;stroke-linecap:butt;stroke-linejoin:miter;stroke:#b31d1d;stroke-opacity:1;stroke-miterlimit:4" d="m23.083 23.12.88-1.556.856 1.521" transform="matrix(.31952 0 0 .32865 5.55 .507)"/><path style="fill:none;stroke-width:.3;stroke-linecap:butt;stroke-linejoin:miter;stroke:#b31d1d;stroke-opacity:1;stroke-miterlimit:4" d="m24.844 1027.483.88-1.557.844 1.521" transform="matrix(.31952 0 0 .32865 5.55 -329.574)"/><path style="fill:none;stroke-width:.3;stroke-linecap:butt;stroke-linejoin:miter;stroke:#b31d1d;stroke-opacity:1;stroke-miterlimit:4" d="m23.09 23.122.868-1.557.856 1.521" transform="matrix(.31952 0 0 .32865 6.685 .499)"/><path style="fill:none;stroke-width:.3;stroke-linecap:butt;stroke-linejoin:miter;stroke:#b31d1d;stroke-opacity:1;stroke-miterlimit:4" d="m24.839 1027.484.88-1.557.856 1.521" transform="matrix(.31952 0 0 .32865 6.685 -329.582)"/><path style="fill:none;stroke-width:.3;stroke-linecap:butt;stroke-linejoin:miter;stroke:#b31d1d;stroke-opacity:1;stroke-miterlimit:4" d="m23.088 23.118.88-1.559.852 1.535" transform="matrix(0 -.28417 .33333 0 .759 20.717)"/><path style="fill:none;stroke-width:.3;stroke-linecap:butt;stroke-linejoin:miter;stroke:#b31d1d;stroke-opacity:1;stroke-miterlimit:4" d="m24.848 1027.48.866-1.559.866 1.535" transform="matrix(0 -.28417 .33333 0 -334.028 20.717)"/><path style="fill:none;stroke-width:.3;stroke-linecap:butt;stroke-linejoin:miter;stroke:#b31d1d;stroke-opacity:1;stroke-miterlimit:4" d="m23.084 23.12.88-1.56.852 1.536" transform="matrix(0 -.28417 .33333 0 .75 19.708)"/><path style="fill:none;stroke-width:.3;stroke-linecap:butt;stroke-linejoin:miter;stroke:#b31d1d;stroke-opacity:1;stroke-miterlimit:4" d="m24.844 1027.481.88-1.558.852 1.535" transform="matrix(0 -.28417 .33333 0 -334.037 19.708)"/><path style="fill:none;stroke-width:.3;stroke-linecap:butt;stroke-linejoin:miter;stroke:#b31d1d;stroke-opacity:1;stroke-miterlimit:4" d="m23.085 23.121.88-1.558.852 1.523" transform="matrix(0 -.28417 .33333 0 .742 18.712)"/><path style="fill:none;stroke-width:.3;stroke-linecap:butt;stroke-linejoin:miter;stroke:#b31d1d;stroke-opacity:1;stroke-miterlimit:4" d="m24.844 1027.483.88-1.558.852 1.523" transform="matrix(0 -.28417 .33333 0 -334.045 18.712)"/><path style="fill:none;stroke-width:.3;stroke-linecap:butt;stroke-linejoin:miter;stroke:#b31d1d;stroke-opacity:1;stroke-miterlimit:4" d="m23.08 23.123.88-1.559.853 1.524" transform="matrix(0 -.28417 .33333 0 .734 17.704)"/><path style="fill:none;stroke-width:.3;stroke-linecap:butt;stroke-linejoin:miter;stroke:#b31d1d;stroke-opacity:1;stroke-miterlimit:4" d="m24.84 1027.485.88-1.559.852 1.524" transform="matrix(0 -.28417 .33333 0 -334.054 17.704)"/><path style="fill:none;stroke-width:.3;stroke-linecap:butt;stroke-linejoin:miter;stroke:#b31d1d;stroke-opacity:1;stroke-miterlimit:4" d="m23.08 23.122.88-1.558.853 1.523" transform="matrix(0 -.28417 .33333 0 .726 16.707)"/><path style="fill:none;stroke-width:.3;stroke-linecap:butt;stroke-linejoin:miter;stroke:#b31d1d;stroke-opacity:1;stroke-miterlimit:4" d="m24.84 1027.485.88-1.559.852 1.523" transform="matrix(0 -.28417 .33333 0 -334.061 16.707)"/><path style="fill:none;stroke-width:.3;stroke-linecap:butt;stroke-linejoin:miter;stroke:#b31d1d;stroke-opacity:1;stroke-miterlimit:4" d="m23.09 23.124.867-1.57.866 1.535" transform="matrix(0 -.28417 .33333 0 .718 15.698)"/><path style="fill:none;stroke-width:.3;stroke-linecap:butt;stroke-linejoin:miter;stroke:#b31d1d;stroke-opacity:1;stroke-miterlimit:4" d="m24.836 1027.486.88-1.57.852 1.535" transform="matrix(0 -.28417 .33333 0 -334.07 15.698)"/><path style="fill:none;stroke-width:.3;stroke-linecap:butt;stroke-linejoin:miter;stroke:#b31d1d;stroke-opacity:1;stroke-miterlimit:4" d="m23.086 23.124.88-1.57.856 1.534" transform="matrix(.31952 0 0 -.32865 1.042 21.756)"/><path style="fill:none;stroke-width:.3;stroke-linecap:butt;stroke-linejoin:miter;stroke:#b31d1d;stroke-opacity:1;stroke-miterlimit:4" d="m24.847 1027.486.868-1.57.855 1.534" transform="matrix(.31952 0 0 -.32865 1.042 351.836)"/><path style="fill:none;stroke-width:.3;stroke-linecap:butt;stroke-linejoin:miter;stroke:#b31d1d;stroke-opacity:1;stroke-miterlimit:4" d="m23.081 23.125.88-1.57.856 1.534" transform="matrix(.31952 0 0 -.32865 2.176 21.764)"/><path style="fill:none;stroke-width:.3;stroke-linecap:butt;stroke-linejoin:miter;stroke:#b31d1d;stroke-opacity:1;stroke-miterlimit:4" d="m24.841 1027.487.88-1.569.856 1.533" transform="matrix(.31952 0 0 -.32865 2.176 351.845)"/><path style="fill:none;stroke-width:.3;stroke-linecap:butt;stroke-linejoin:miter;stroke:#b31d1d;stroke-opacity:1;stroke-miterlimit:4" d="m23.085 23.127.88-1.57.856 1.534" transform="matrix(.31952 0 0 -.32865 3.296 21.772)"/><path style="fill:none;stroke-width:.3;stroke-linecap:butt;stroke-linejoin:miter;stroke:#b31d1d;stroke-opacity:1;stroke-miterlimit:4" d="m24.845 1027.489.868-1.57.856 1.534" transform="matrix(.31952 0 0 -.32865 3.296 351.853)"/><path style="fill:none;stroke-width:.3;stroke-linecap:butt;stroke-linejoin:miter;stroke:#b31d1d;stroke-opacity:1;stroke-miterlimit:4" d="m23.08 23.116.88-1.557.856 1.533" transform="matrix(.31952 0 0 -.32865 4.43 21.78)"/><path style="fill:none;stroke-width:.3;stroke-linecap:butt;stroke-linejoin:miter;stroke:#b31d1d;stroke-opacity:1;stroke-miterlimit:4" d="m24.84 1027.478.88-1.557.856 1.533" transform="matrix(.31952 0 0 -.32865 4.43 351.861)"/><path style="fill:none;stroke-width:.3;stroke-linecap:butt;stroke-linejoin:miter;stroke:#b31d1d;stroke-opacity:1;stroke-miterlimit:4" d="m23.083 23.115.88-1.557.856 1.533" transform="matrix(.31952 0 0 -.32865 5.55 21.788)"/><path style="fill:none;stroke-width:.3;stroke-linecap:butt;stroke-linejoin:miter;stroke:#b31d1d;stroke-opacity:1;stroke-miterlimit:4" d="m24.844 1027.477.88-1.557.844 1.534" transform="matrix(.31952 0 0 -.32865 5.55 351.869)"/><path style="fill:none;stroke-width:.3;stroke-linecap:butt;stroke-linejoin:miter;stroke:#b31d1d;stroke-opacity:1;stroke-miterlimit:4" d="m23.09 23.116.868-1.557.856 1.534" transform="matrix(.31952 0 0 -.32865 6.685 21.796)"/><path style="fill:none;stroke-width:.3;stroke-linecap:butt;stroke-linejoin:miter;stroke:#b31d1d;stroke-opacity:1;stroke-miterlimit:4" d="m24.839 1027.479.88-1.557.856 1.533" transform="matrix(.31952 0 0 -.32865 6.685 351.877)"/><path style="fill:none;stroke-width:.3;stroke-linecap:butt;stroke-linejoin:miter;stroke:#b31d1d;stroke-opacity:1;stroke-miterlimit:4" d="m23.085 23.127.88-1.57.851 1.534" transform="matrix(0 -.2889 -.33333 0 22.842 20.876)"/><path style="fill:none;stroke-width:.3;stroke-linecap:butt;stroke-linejoin:miter;stroke:#b31d1d;stroke-opacity:1;stroke-miterlimit:4" d="m24.843 1027.489.88-1.57.85 1.535" transform="matrix(0 -.2889 -.33333 0 357.63 20.876)"/><path style="fill:none;stroke-width:.3;stroke-linecap:butt;stroke-linejoin:miter;stroke:#b31d1d;stroke-opacity:1;stroke-miterlimit:4" d="m23.091 23.116.865-1.558.866 1.535" transform="matrix(0 -.2889 -.33333 0 22.85 19.85)"/><path style="fill:none;stroke-width:.3;stroke-linecap:butt;stroke-linejoin:miter;stroke:#b31d1d;stroke-opacity:1;stroke-miterlimit:4" d="m24.849 1027.479.865-1.56.866 1.536" transform="matrix(0 -.2889 -.33333 0 357.637 19.85)"/><path style="fill:none;stroke-width:.3;stroke-linecap:butt;stroke-linejoin:miter;stroke:#b31d1d;stroke-opacity:1;stroke-miterlimit:4" d="m23.088 23.119.88-1.559.851 1.535" transform="matrix(0 -.2889 -.33333 0 22.859 18.838)"/><path style="fill:none;stroke-width:.3;stroke-linecap:butt;stroke-linejoin:miter;stroke:#b31d1d;stroke-opacity:1;stroke-miterlimit:4" d="m24.846 1027.48.879-1.558.852 1.535" transform="matrix(0 -.2889 -.33333 0 357.646 18.838)"/><path style="fill:none;stroke-width:.3;stroke-linecap:butt;stroke-linejoin:miter;stroke:#b31d1d;stroke-opacity:1;stroke-miterlimit:4" d="m23.08 23.12.88-1.558.851 1.523" transform="matrix(0 -.2889 -.33333 0 22.867 17.812)"/><path style="fill:none;stroke-width:.3;stroke-linecap:butt;stroke-linejoin:miter;stroke:#b31d1d;stroke-opacity:1;stroke-miterlimit:4" d="m24.838 1027.482.88-1.558.851 1.523" transform="matrix(0 -.2889 -.33333 0 357.654 17.812)"/><path style="fill:none;stroke-width:.3;stroke-linecap:butt;stroke-linejoin:miter;stroke:#b31d1d;stroke-opacity:1;stroke-miterlimit:4" d="m23.09 23.12.866-1.559.865 1.535" transform="matrix(0 -.2889 -.33333 0 22.875 16.8)"/><path style="fill:none;stroke-width:.3;stroke-linecap:butt;stroke-linejoin:miter;stroke:#b31d1d;stroke-opacity:1;stroke-miterlimit:4" d="m24.849 1027.482.865-1.559.865 1.535" transform="matrix(0 -.2889 -.33333 0 357.662 16.8)"/><path style="fill:none;stroke-width:.3;stroke-linecap:butt;stroke-linejoin:miter;stroke:#b31d1d;stroke-opacity:1;stroke-miterlimit:4" d="m23.083 23.121.879-1.558.852 1.523" transform="matrix(0 -.2889 -.33333 0 22.883 15.774)"/><path style="fill:none;stroke-width:.3;stroke-linecap:butt;stroke-linejoin:miter;stroke:#b31d1d;stroke-opacity:1;stroke-miterlimit:4" d="m24.84 1027.483.88-1.558.851 1.523" transform="matrix(0 -.2889 -.33333 0 357.67 15.774)"/><path style="stroke:none;fill-rule:nonzero;fill:#1a1a1a;fill-opacity:1" d="M8.973 9.238h3.5v.242h-3.5zm0 .668h2.129v.239h-2.13zm0 .664h3.02v.242h-3.02zm0 .668h3.945v.242H8.973zm0 0"/><path style="stroke:none;fill-rule:evenodd;fill:#3498db;fill-opacity:1" d="M13.516 11.809c-.653 0-1.176.511-1.176 1.136 0 .625.523 1.125 1.176 1.125.652 0 1.187-.5 1.187-1.125s-.535-1.136-1.187-1.136zm0 .23c.52 0 .949.406.949.906s-.43.895-.95.895c-.519 0-.937-.395-.937-.895s.418-.906.938-.906zm0 0"/></svg>