<svg xmlns="http://www.w3.org/2000/svg" width="16" height="16"><path style="stroke:none;fill-rule:nonzero;fill:#25aedf;fill-opacity:1" d="M3.18 13.523h9.633v.832H3.18zm0 0"/><path style="stroke:none;fill-rule:nonzero;fill:#25aedf;fill-opacity:1" d="M14.664 2.23H1.336L6.16 14.285l6.707.043zm0 0"/><path style="stroke:none;fill-rule:nonzero;fill:#25aedf;fill-opacity:1" d="m4.188 14.32-1.047.008C3.617 15.012 5.648 15.5 8 15.5c2.363 0 4.395-.492 4.863-1.18zm0 0"/><path style="stroke:none;fill-rule:nonzero;fill:#333;fill-opacity:1" d="M14.668 2.273C14.668 1.293 11.684.5 8 .5s-6.668.793-6.668 1.773c0 .98 2.984 1.778 6.668 1.778s6.668-.797 6.668-1.778zm0 0"/><path style="stroke:none;fill-rule:nonzero;fill:#25aedf;fill-opacity:1" d="M1.336 2.23v.02c.004-.004.004-.012.004-.02zm13.324 0v.008l.004-.008zm-13.297.204 1.77 11.894 6.707-.043L14.484 2.68c-.05.054-.109.113-.18.168h-.003s0 .004-.004.004a2.52 2.52 0 0 1-.25.168c-.086.05-.184.097-.29.148l-.03.012c-.102.047-.211.09-.332.136l-.04.012a7.189 7.189 0 0 1-.421.137c-.133.039-.27.078-.418.113-.024.008-.047.012-.07.016a9.086 9.086 0 0 1-.434.097c-.035.008-.067.012-.102.02-.144.027-.289.055-.441.078a1.41 1.41 0 0 1-.137.02c-.145.023-.289.046-.441.066-.055.004-.11.012-.168.02l-.442.046c-.066.008-.133.012-.203.02-.133.012-.27.023-.406.031-.094.008-.188.012-.281.016a15.36 15.36 0 0 1-.371.02l-.282.011a13.95 13.95 0 0 1-.406.008c-.113.004-.223.004-.332.004-.223 0-.445-.004-.664-.008-3.18-.086-5.68-.762-5.969-1.606 0-.003-.004-.003-.004-.003zm0 0"/><path style="stroke:none;fill-rule:nonzero;fill:#999;fill-opacity:1" d="M1.371 2.09a.535.535 0 0 0-.039.183c0 .98 2.984 1.778 6.668 1.778s6.668-.797 6.668-1.778a.524.524 0 0 0-.04-.168c-.355.903-3.214 1.59-6.628 1.59-3.43 0-6.3-.695-6.629-1.605zm0 0"/><path style="stroke:none;fill-rule:nonzero;fill:#fff;fill-opacity:1" d="m6.836 6.352-.84 1.57 1.344.805.73-1.325.258.461-.238.422h1.367l.746-1.344-.328.196-.43-.785zm3.648 2.43-1.343.808.734 1.332h-.508l-.238-.426-.684 1.23.746 1.352v-.39h.871l1.168-2.11.114-.2.023-.054zm-5.601.48.328.195-.434.785 1.168 2.11.106.199.031.054 1.723-.027v-1.621H6.332l.254-.46h.473l-.684-1.235zm0 0"/></svg>