<svg xmlns="http://www.w3.org/2000/svg" width="16" height="16"><path style="fill-rule:nonzero;fill:#ccc;fill-opacity:1;stroke-width:1;stroke-linecap:butt;stroke-linejoin:miter;stroke:#3b3434;stroke-opacity:1;stroke-miterlimit:4" d="M309.875 42.5c-22.75 0-41.375 20.875-45.125 48.5h179.875c-3.75-27.625-22.5-48.5-45.125-48.5zm0 0" transform="scale(.03125)"/><path style="stroke:none;fill-rule:nonzero;fill:#25aedf;fill-opacity:1" d="M2.063 3.086h11.874c.942 0 1.704.766 1.704 1.707v5.984c0 .942-.762 1.703-1.704 1.703H2.063a1.702 1.702 0 0 1-1.704-1.703V4.793c0-.941.762-1.707 1.704-1.707zm0 0"/><path style="stroke:none;fill-rule:nonzero;fill:#25aedf;fill-opacity:1" d="M2.063 5.277h11.874c.942 0 1.704.766 1.704 1.707v5.985c0 .941-.762 1.703-1.704 1.703H2.063a1.702 1.702 0 0 1-1.704-1.703V6.984c0-.941.762-1.707 1.704-1.707zm0 0"/><path style="stroke:none;fill-rule:nonzero;fill:#fff;fill-opacity:1" d="M8 10.953a.868.868 0 0 0-.617.262l.617.617.617-.617A.868.868 0 0 0 8 10.953zm0-1.75c-.727 0-1.379.297-1.855.774l.617.617c.316-.32.754-.516 1.238-.516s.922.195 1.238.516l.617-.617A2.613 2.613 0 0 0 8 9.203zm0 0"/><path style="stroke:none;fill-rule:nonzero;fill:#fff;fill-opacity:1" d="M8 7.453c-1.207 0-2.3.492-3.094 1.285l.617.617A3.476 3.476 0 0 1 8 8.328c.965 0 1.844.39 2.477 1.027l.617-.617A4.364 4.364 0 0 0 8 7.453zm0 0"/><path style="stroke:none;fill-rule:nonzero;fill:#fff;fill-opacity:1" d="M8 5.7a6.112 6.112 0 0 0-4.332 1.8l.617.617A5.227 5.227 0 0 1 8 6.578c1.45 0 2.766.586 3.715 1.54l.617-.618A6.112 6.112 0 0 0 8 5.7zm0 0"/></svg>