<svg xmlns="http://www.w3.org/2000/svg" width="16" height="16"><path style="fill-rule:nonzero;fill:#ccc;fill-opacity:1;stroke-width:1;stroke-linecap:butt;stroke-linejoin:miter;stroke:#3b3434;stroke-opacity:1;stroke-miterlimit:4" d="M309.875 42.5c-22.75 0-41.375 20.875-45.125 48.5h179.875c-3.75-27.625-22.5-48.5-45.125-48.5zm0 0" transform="scale(.03125)"/><path style="stroke:none;fill-rule:nonzero;fill:#25aedf;fill-opacity:1" d="M2.063 3.086h11.874c.942 0 1.704.766 1.704 1.707v5.984c0 .942-.762 1.703-1.704 1.703H2.063a1.702 1.702 0 0 1-1.704-1.703V4.793c0-.941.762-1.707 1.704-1.707zm0 0"/><path style="stroke:none;fill-rule:nonzero;fill:#25aedf;fill-opacity:1" d="M2.063 5.277h11.874c.942 0 1.704.766 1.704 1.707v5.985c0 .941-.762 1.703-1.704 1.703H2.063a1.702 1.702 0 0 1-1.704-1.703V6.984c0-.941.762-1.707 1.704-1.707zm0 0"/><path style="stroke:none;fill-rule:nonzero;fill:#fff;fill-opacity:1" d="M7.75 5.074a3.85 3.85 0 0 0-3.848 3.848 3.85 3.85 0 0 0 3.848 3.844 3.84 3.84 0 0 0 3.836-3.844 3.86 3.86 0 0 0-.836-2.406c-.086.035-.168.07-.254.113a3.56 3.56 0 0 1 .824 2.293 3.57 3.57 0 0 1-3.57 3.57 3.58 3.58 0 0 1-3.582-3.57A3.58 3.58 0 0 1 7.75 5.348c1.035 0 1.96.441 2.61 1.144.124-.02.218-.035.328-.05A3.81 3.81 0 0 0 7.75 5.073zm0 0"/><path style="stroke:none;fill-rule:nonzero;fill:#fff;fill-opacity:1" d="M7.707 6a1.02 1.02 0 0 0-.121.012c-2.426.215-3.473 2.886-3.473 2.886l.074.762c.485-1.203 3.344.352 3.344.352C6.508 8.969 5.828 8.71 5.828 8.71a3.375 3.375 0 0 0-.918-.34c.399-.914.824-1.336.824-1.336l.141.871c1.027.883 1.996.793 1.996.793 1.508 1.114 1.676 3.309 1.676 3.309l.601-.324c.25-.594-.746-2.422-.746-2.422a3.934 3.934 0 0 1-.382-1.059c.07-.07.484-.816.484-.816.36-.574 2.07-1.067 2.07-1.067-1.273-.144-2.191.176-2.191.176C8.52 6.023 7.94 5.988 7.707 6zm3.395.395c.101-.008.12 0 0 .011-.329.035-.801.242-1.16.461-.36.219-.454.399-.454.332-.004-.336-.289-.351-.289-.351.367-.254 1.59-.426 1.903-.453zm-3.551.12c.027-.003.058 0 .09 0a.43.43 0 0 1 0 .864.432.432 0 0 1-.43-.434.44.44 0 0 1 .34-.43zm0 0"/><path style="stroke:none;fill-rule:nonzero;fill:#fff;fill-opacity:1" d="M7.75 4.957a3.968 3.968 0 0 0-3.965 3.965 3.967 3.967 0 0 0 3.965 3.96 3.957 3.957 0 0 0 3.953-3.96 3.91 3.91 0 0 0-.844-2.461c-.086.035-.191.05-.28.098.534.636.85 1.464.85 2.363a3.678 3.678 0 0 1-3.679 3.68 3.688 3.688 0 0 1-3.691-3.68 3.686 3.686 0 0 1 6.382-2.504c.13-.02.223-.035.336-.05A3.926 3.926 0 0 0 7.75 4.956zm0 0"/></svg>