<svg xmlns="http://www.w3.org/2000/svg" width="16" height="16"><path style="fill-rule:nonzero;fill:#ccc;fill-opacity:1;stroke-width:1;stroke-linecap:butt;stroke-linejoin:miter;stroke:#3b3434;stroke-opacity:1;stroke-miterlimit:4" d="M309.875 42.5c-22.75 0-41.375 20.875-45.125 48.5h179.875c-3.75-27.625-22.5-48.5-45.125-48.5zm0 0" transform="scale(.03125)"/><path style="stroke:none;fill-rule:nonzero;fill:#25aedf;fill-opacity:1" d="M2.063 3.086h11.874c.942 0 1.704.766 1.704 1.707v5.984c0 .942-.762 1.703-1.704 1.703H2.063a1.702 1.702 0 0 1-1.704-1.703V4.793c0-.941.762-1.707 1.704-1.707zm0 0"/><path style="stroke:none;fill-rule:nonzero;fill:#25aedf;fill-opacity:1" d="M2.063 5.277h11.874c.942 0 1.704.766 1.704 1.707v5.985c0 .941-.762 1.703-1.704 1.703H2.063a1.702 1.702 0 0 1-1.704-1.703V6.984c0-.941.762-1.707 1.704-1.707zm0 0"/><path style="stroke:none;fill-rule:nonzero;fill:#fff;fill-opacity:1" d="M5.84 4.855c-.309 0-.559.29-.559.649V7.87h-.187c-.309 0-.559.29-.559.645v2.152c0 .36.25.648.559.648h.187v.645c0 .36.25.644.559.644h4.105c.309 0 .559-.285.559-.644v-.645h.187c.309 0 .559-.289.559-.648V8.516c0-.356-.25-.645-.559-.645h-.187V5.504c0-.36-.25-.649-.559-.649zm.133.415h3.77c.425 0 .425 0 .425.406v2.636H5.609V5.668c0-.398 0-.398.364-.398zM9.57 9.164c.106 0 .188.094.188.215 0 .117-.082.215-.188.215-.101 0-.183-.098-.183-.215 0-.121.082-.215.183-.215zm.75 0c.102 0 .184.094.184.215 0 .117-.082.215-.184.215-.105 0-.187-.098-.187-.215 0-.121.082-.215.187-.215zm-4.71 1.719h4.558v1.086c0 .219 0 .219-.219.219H5.844c-.235 0-.235 0-.235-.239zm0 0"/></svg>