<svg xmlns="http://www.w3.org/2000/svg" width="16" height="16"><path style="fill-rule:nonzero;fill:#ccc;fill-opacity:1;stroke-width:1;stroke-linecap:butt;stroke-linejoin:miter;stroke:#3b3434;stroke-opacity:1;stroke-miterlimit:4" d="M309.875 42.5c-22.75 0-41.375 20.875-45.125 48.5h179.875c-3.75-27.625-22.5-48.5-45.125-48.5zm0 0" transform="scale(.03125)"/><path style="stroke:none;fill-rule:nonzero;fill:#25aedf;fill-opacity:1" d="M2.063 3.086h11.874c.942 0 1.704.766 1.704 1.707v5.984c0 .942-.762 1.703-1.704 1.703H2.063a1.702 1.702 0 0 1-1.704-1.703V4.793c0-.941.762-1.707 1.704-1.707zm0 0"/><path style="stroke:none;fill-rule:nonzero;fill:#25aedf;fill-opacity:1" d="M2.063 5.277h11.874c.942 0 1.704.766 1.704 1.707v5.985c0 .941-.762 1.703-1.704 1.703H2.063a1.702 1.702 0 0 1-1.704-1.703V6.984c0-.941.762-1.707 1.704-1.707zm0 0"/><path style="stroke:none;fill-rule:nonzero;fill:#fff;fill-opacity:1" d="M11.133 8.27c.012-.098.02-.196.02-.297 0-1.246-.876-2.262-1.95-2.262-.625 0-1.195.344-1.558.902a1.473 1.473 0 0 0-.391-.054c-.941 0-1.707.886-1.707 1.98 0 .027 0 .055.004.082-.707.242-1.223 1-1.223 1.899 0 1.09.766 1.976 1.707 1.976h4.14c1.079 0 1.95-1.012 1.95-2.262 0-.824-.39-1.57-.992-1.964zm-.957 3.66h-4.14c-.673 0-1.22-.633-1.22-1.41 0-.782.547-1.415 1.22-1.415.034 0 .073.008.109.012a1.554 1.554 0 0 1-.11-.578c0-.781.547-1.414 1.219-1.414.219 0 .422.074.601.191.22-.613.743-1.039 1.348-1.039.809 0 1.461.758 1.461 1.696 0 .222-.039.433-.105.632.62.196 1.082.848 1.082 1.63 0 .937-.657 1.695-1.465 1.695zm0 0"/></svg>