<svg xmlns="http://www.w3.org/2000/svg" width="16" height="16"><path style="fill-rule:nonzero;fill:#ccc;fill-opacity:1;stroke-width:1;stroke-linecap:butt;stroke-linejoin:miter;stroke:#3b3434;stroke-opacity:1;stroke-miterlimit:4" d="M309.875 42.5c-22.75 0-41.375 20.875-45.125 48.5h179.875c-3.75-27.625-22.5-48.5-45.125-48.5zm0 0" transform="scale(.03125)"/><path style="stroke:none;fill-rule:nonzero;fill:#25aedf;fill-opacity:1" d="M2.063 3.086h11.874c.942 0 1.704.766 1.704 1.707v5.984c0 .942-.762 1.703-1.704 1.703H2.063a1.702 1.702 0 0 1-1.704-1.703V4.793c0-.941.762-1.707 1.704-1.707zm0 0"/><path style="stroke:none;fill-rule:nonzero;fill:#25aedf;fill-opacity:1" d="M2.063 5.277h11.874c.942 0 1.704.766 1.704 1.707v5.985c0 .941-.762 1.703-1.704 1.703H2.063a1.702 1.702 0 0 1-1.704-1.703V6.984c0-.941.762-1.707 1.704-1.707zm0 0"/><path style="stroke:none;fill-rule:nonzero;fill:#fff;fill-opacity:1" d="M9.883 5.242A1.169 1.169 0 0 0 8.8 6.855L6.879 8.121a1.159 1.159 0 0 0-.762-.285 1.17 1.17 0 1 0 .73 2.082l1.872 1.234c-.004.043-.004.082-.004.125a1.169 1.169 0 0 0 2.336 0 1.17 1.17 0 0 0-1.168-1.172c-.328 0-.637.137-.86.38L7.246 9.312a1.165 1.165 0 0 0 .008-.57L9.277 7.41c.184.11.391.168.606.172a1.17 1.17 0 0 0 0-2.34zm0 0"/></svg>