<svg xmlns="http://www.w3.org/2000/svg" width="16" height="16"><path style="fill-rule:nonzero;fill:#ccc;fill-opacity:1;stroke-width:1;stroke-linecap:butt;stroke-linejoin:miter;stroke:#3b3434;stroke-opacity:1;stroke-miterlimit:4" d="M309.875 42.5c-22.75 0-41.375 20.875-45.125 48.5h179.875c-3.75-27.625-22.5-48.5-45.125-48.5zm0 0" transform="scale(.03125)"/><path style="stroke:none;fill-rule:nonzero;fill:#25aedf;fill-opacity:1" d="M2.063 3.086h11.874c.942 0 1.704.766 1.704 1.707v5.984c0 .942-.762 1.703-1.704 1.703H2.063a1.702 1.702 0 0 1-1.704-1.703V4.793c0-.941.762-1.707 1.704-1.707zm0 0"/><path style="stroke:none;fill-rule:nonzero;fill:#25aedf;fill-opacity:1" d="M2.063 5.277h11.874c.942 0 1.704.766 1.704 1.707v5.985c0 .941-.762 1.703-1.704 1.703H2.063a1.702 1.702 0 0 1-1.704-1.703V6.984c0-.941.762-1.707 1.704-1.707zm0 0"/><path style="stroke:none;fill-rule:nonzero;fill:#fff;fill-opacity:1" d="M8.254 6.363c-.441 0-.8.332-.8.746 0 .047.003.102.007.16-.07.04-.078.184-.016.329a.48.48 0 0 0 .09.144h.004l.02.113c.03.09.156.258.261.403.012.11.012.219-.008.344-.175.144-.5.246-.75.355a.886.886 0 0 1-.234-.14 1.463 1.463 0 0 1-.004-.227c.074-.113.168-.258.196-.332.007-.04.011-.067.02-.098a.715.715 0 0 0 .058-.098c.043-.105.035-.203-.008-.238a1.4 1.4 0 0 0 .008-.125c0-.308-.266-.562-.598-.562-.332 0-.602.254-.602.562 0 .035.004.074.008.117-.054.032-.058.137-.011.247a.348.348 0 0 0 .07.109c.004.031.008.05.015.086.024.066.114.191.192.3a.956.956 0 0 1-.004.258c-.234.196-.828.278-.828.48l-.078.52c0 .11.16.204.41.27l.039.14a.085.085 0 0 0 .055.06c.007.003.015.015.046.023.16.046.41.082.688.082.262 0 .496-.036.656-.075l.043.168c.012.036.035.067.07.079.016.007.028.015.067.03.219.063.547.106.918.106s.703-.043.918-.105c.043-.016.055-.024.07-.031a.115.115 0 0 0 .067-.075l.046-.172c.165.043.395.075.653.075.277 0 .527-.036.691-.082.031-.008.035-.02.047-.024.027-.008.043-.027.05-.055l.048-.148c.246-.066.402-.16.402-.266l-.078-.52c-.004-.171-.602-.276-.832-.48a1.098 1.098 0 0 1 0-.226c.07-.113.168-.258.191-.332.008-.04.012-.067.02-.098a.342.342 0 0 0 .058-.098c.043-.105.04-.203-.007-.238a14.4 14.4 0 0 1 .011-.125c0-.308-.27-.562-.601-.562-.332 0-.598.254-.598.562 0 .035 0 .074.004.117-.05.032-.059.137-.012.247a.445.445 0 0 0 .07.109c.008.031.008.05.016.086.024.066.114.191.196.3a.964.964 0 0 1-.008.258.943.943 0 0 1-.266.145c-.246-.106-.555-.215-.719-.36a1.589 1.589 0 0 1-.004-.304c.098-.149.227-.34.258-.442.016-.05.02-.082.028-.128a.514.514 0 0 0 .078-.13c.058-.136.054-.273-.008-.316l.012-.172c0-.414-.36-.746-.801-.746zm0 0"/><path style="fill:none;stroke-width:1;stroke-linecap:butt;stroke-linejoin:miter;stroke:#fff;stroke-opacity:1;stroke-miterlimit:4" d="M14.906 15.844h19.992v19.992H14.906zm0 0" transform="scale(.33333)"/></svg>