<svg xmlns="http://www.w3.org/2000/svg" width="16" height="16"><path style="fill-rule:nonzero;fill:#ccc;fill-opacity:1;stroke-width:1;stroke-linecap:butt;stroke-linejoin:miter;stroke:#3b3434;stroke-opacity:1;stroke-miterlimit:4" d="M309.875 42.5c-22.75 0-41.375 20.875-45.125 48.5h179.875c-3.75-27.625-22.5-48.5-45.125-48.5zm0 0" transform="scale(.03125)"/><path style="stroke:none;fill-rule:nonzero;fill:#25aedf;fill-opacity:1" d="M2.063 3.086h11.874c.942 0 1.704.766 1.704 1.707v5.984c0 .942-.762 1.703-1.704 1.703H2.063a1.702 1.702 0 0 1-1.704-1.703V4.793c0-.941.762-1.707 1.704-1.707zm0 0"/><path style="stroke:none;fill-rule:nonzero;fill:#25aedf;fill-opacity:1" d="M2.063 5.277h11.874c.942 0 1.704.766 1.704 1.707v5.985c0 .941-.762 1.703-1.704 1.703H2.063a1.702 1.702 0 0 1-1.704-1.703V6.984c0-.941.762-1.707 1.704-1.707zm0 0"/><path style="stroke:none;fill-rule:nonzero;fill:#fff;fill-opacity:1" d="m10.785 5.762-.523.488.125.742.644.254.524-.488-.125-.742zm.13.383a.335.335 0 0 1 .315.293c.032.199-.085.382-.261.421a.31.31 0 0 1-.246-.058.362.362 0 0 1-.137-.235c-.031-.195.086-.382.266-.418.02-.003.043-.003.062-.003zm-2.79 1.8.973 1.075-1.442 1.203-.972-1.075zm0 0"/><path style="stroke:none;fill-rule:nonzero;fill:#fff;fill-opacity:1" d="M10.195 6.215a1.866 1.866 0 0 0-1.918.285c-.754.629-.843 1.715-.199 2.426.645.71 1.777.777 2.531.148a1.694 1.694 0 0 0 .559-1.785l-1.012.844-.972-1.07zM6.984 8.723c-.105-.086-.254-.07-.441.082l-1.73 1.386-.118.098-.59.484c-.457.375-.496 1.008-.085 1.418a1.19 1.19 0 0 0 1.566.067l.594-.477.117-.105 1.613-1.317c.262-.214.156-.386.047-.511l-.934-1.082a.205.205 0 0 0-.039-.043zm-.183.863.344.383c.07.078.043.207-.067.293L5.156 11.82c-.11.086-.25.098-.32.02l-.344-.383c-.07-.078-.039-.21.07-.297l1.922-1.558c.11-.086.246-.094.317-.016zm0 0"/></svg>