<svg xmlns="http://www.w3.org/2000/svg" width="16" height="16"><path style="fill-rule:nonzero;fill:#ccc;fill-opacity:1;stroke-width:1;stroke-linecap:butt;stroke-linejoin:miter;stroke:#3b3434;stroke-opacity:1;stroke-miterlimit:4" d="M309.875 42.5c-22.75 0-41.375 20.875-45.125 48.5h179.875c-3.75-27.625-22.5-48.5-45.125-48.5zm0 0" transform="scale(.03125)"/><path style="stroke:none;fill-rule:nonzero;fill:#25aedf;fill-opacity:1" d="M2.063 3.086h11.874c.942 0 1.704.766 1.704 1.707v5.984c0 .942-.762 1.703-1.704 1.703H2.063a1.702 1.702 0 0 1-1.704-1.703V4.793c0-.941.762-1.707 1.704-1.707zm0 0"/><path style="stroke:none;fill-rule:nonzero;fill:#25aedf;fill-opacity:1" d="M2.063 5.277h11.874c.942 0 1.704.766 1.704 1.707v5.985c0 .941-.762 1.703-1.704 1.703H2.063a1.702 1.702 0 0 1-1.704-1.703V6.984c0-.941.762-1.707 1.704-1.707zm0 0"/><path style="stroke:none;fill-rule:nonzero;fill:#fff;fill-opacity:1" d="M9.523 12.363c-.93-.183-1.765-.351-1.859-.37l-.172-.036v-2.64l1.098.007c.601.008 1.46.02 1.91.028l.813.02v1.667c0 1.566-.004 1.668-.055 1.664-.028-.004-.809-.156-1.735-.34zm-3.671-.73-1.149-.227-.008-1.062-.008-1.059 1.157.012c.636.008 1.16.02 1.164.02a56.3 56.3 0 0 1 0 1.273L7 11.855zM4.687 7.828c0-.582.004-1.058.012-1.058l1.125-.227a62.419 62.419 0 0 1 1.153-.223c.03 0 .039.254.039 1.266v1.262l-.606.02c-.332.01-.855.019-1.16.019h-.563zm2.805-.289V6.215l1.86-.367a276.73 276.73 0 0 0 1.906-.383c.05-.012.055.082.055 1.676v1.687H10.3c-.555 0-1.414.008-1.906.02l-.903.02zm0 0"/></svg>