<svg xmlns="http://www.w3.org/2000/svg" width="16" height="16"><path style="fill-rule:nonzero;fill:#ccc;fill-opacity:1;stroke-width:1;stroke-linecap:butt;stroke-linejoin:miter;stroke:#3b3434;stroke-opacity:1;stroke-miterlimit:4" d="M309.875 42.5c-22.75 0-41.375 20.875-45.125 48.5h179.875c-3.75-27.625-22.5-48.5-45.125-48.5zm0 0" transform="scale(.03125)"/><path style="stroke:none;fill-rule:nonzero;fill:#25aedf;fill-opacity:1" d="M2.063 3.086h11.874c.942 0 1.704.766 1.704 1.707v5.984c0 .942-.762 1.703-1.704 1.703H2.063a1.702 1.702 0 0 1-1.704-1.703V4.793c0-.941.762-1.707 1.704-1.707zm0 0"/><path style="stroke:none;fill-rule:nonzero;fill:#25aedf;fill-opacity:1" d="M2.063 5.277h11.874c.942 0 1.704.766 1.704 1.707v5.985c0 .941-.762 1.703-1.704 1.703H2.063a1.702 1.702 0 0 1-1.704-1.703V6.984c0-.941.762-1.707 1.704-1.707zm0 0"/><path style="stroke:none;fill-rule:evenodd;fill:#fff;fill-opacity:1" d="M8.023 5.453a3.39 3.39 0 0 0-2.367.98 3.382 3.382 0 0 0-.976 2.36c0 .875.36 1.746.976 2.363.621.621 1.492.98 2.367.98s1.747-.359 2.368-.98c.617-.617.98-1.488.98-2.363s-.363-1.742-.98-2.363a3.4 3.4 0 0 0-2.368-.977zm0 .89c.641 0 1.282.266 1.735.72a2.48 2.48 0 0 1 .719 1.73 2.48 2.48 0 0 1-.72 1.734 2.488 2.488 0 0 1-1.734.72 2.48 2.48 0 0 1-1.734-.72 2.48 2.48 0 0 1-.719-1.734c0-.64.266-1.277.72-1.73a2.48 2.48 0 0 1 1.733-.72zm-.445.446v2.453h2.453v-.894H8.47V6.789zm0 0"/></svg>