<svg xmlns="http://www.w3.org/2000/svg" width="16" height="16"><path style="fill-rule:nonzero;fill:#ccc;fill-opacity:1;stroke-width:1;stroke-linecap:butt;stroke-linejoin:miter;stroke:#3b3434;stroke-opacity:1;stroke-miterlimit:4" d="M309.875 42.5c-22.75 0-41.375 20.875-45.125 48.5h179.875c-3.75-27.625-22.5-48.5-45.125-48.5zm0 0" transform="scale(.03125)"/><path style="stroke:none;fill-rule:nonzero;fill:#25aedf;fill-opacity:1" d="M2.063 3.086h11.874c.942 0 1.704.766 1.704 1.707v5.984c0 .942-.762 1.703-1.704 1.703H2.063a1.702 1.702 0 0 1-1.704-1.703V4.793c0-.941.762-1.707 1.704-1.707zm0 0"/><path style="stroke:none;fill-rule:nonzero;fill:#25aedf;fill-opacity:1" d="M2.063 5.277h11.874c.942 0 1.704.766 1.704 1.707v5.985c0 .941-.762 1.703-1.704 1.703H2.063a1.702 1.702 0 0 1-1.704-1.703V6.984c0-.941.762-1.707 1.704-1.707zm0 0"/><path style="stroke:none;fill-rule:nonzero;fill:#fff;fill-opacity:1" d="M8.137 5.523c-.871 0-1.739.36-2.356.977a3.373 3.373 0 0 0-.976 2.355c0 .875.36 1.743.976 2.36a3.373 3.373 0 0 0 2.356.976c.875 0 1.742-.359 2.36-.976a3.375 3.375 0 0 0 .976-2.36c0-.87-.36-1.738-.977-2.355a3.375 3.375 0 0 0-2.36-.977zm0 .668c1.398 0 2.668 1.27 2.668 2.664 0 1.399-1.27 2.668-2.668 2.668-1.395 0-2.664-1.27-2.664-2.668 0-1.394 1.27-2.664 2.664-2.664zm-.664.664v1.668H6.137l2 2.332 2-2.332H8.805V6.855zm0 0"/></svg>