<svg xmlns="http://www.w3.org/2000/svg" width="16" height="16"><path style="fill-rule:nonzero;fill:#ccc;fill-opacity:1;stroke-width:1;stroke-linecap:butt;stroke-linejoin:miter;stroke:#3b3434;stroke-opacity:1;stroke-miterlimit:4" d="M309.875 42.5c-22.75 0-41.375 20.875-45.125 48.5h179.875c-3.75-27.625-22.5-48.5-45.125-48.5zm0 0" transform="scale(.03125)"/><path style="stroke:none;fill-rule:nonzero;fill:#25aedf;fill-opacity:1" d="M2.063 3.086h11.874c.942 0 1.704.766 1.704 1.707v5.984c0 .942-.762 1.703-1.704 1.703H2.063a1.702 1.702 0 0 1-1.704-1.703V4.793c0-.941.762-1.707 1.704-1.707zm0 0"/><path style="stroke:none;fill-rule:nonzero;fill:#25aedf;fill-opacity:1" d="M2.063 5.277h11.874c.942 0 1.704.766 1.704 1.707v5.985c0 .941-.762 1.703-1.704 1.703H2.063a1.702 1.702 0 0 1-1.704-1.703V6.984c0-.941.762-1.707 1.704-1.707zm0 0"/><path style="stroke:none;fill-rule:nonzero;fill:#fff;fill-opacity:1" d="M12.531 9.309 8.36 13.48a.613.613 0 0 1-.87 0l-.868-.867 1.098-1.097c.258.086.55.027.754-.176a.733.733 0 0 0 .172-.758l1.062-1.059c.254.086.55.032.754-.175a.726.726 0 0 0 0-1.036.733.733 0 0 0-1.195.797l-.989.989V7.496a.656.656 0 0 0 .196-.137.733.733 0 0 0 0-1.035.726.726 0 0 0-1.036 0 .726.726 0 0 0 0 1.035c.07.07.153.125.239.16v2.626a.732.732 0 0 0-.398.96l-1.083 1.082-2.863-2.859a.62.62 0 0 1 0-.871l4.176-4.176a.62.62 0 0 1 .87 0l4.153 4.157a.613.613 0 0 1 0 .87"/></svg>