<svg xmlns="http://www.w3.org/2000/svg" width="16" height="16"><path style="fill-rule:nonzero;fill:#ccc;fill-opacity:1;stroke-width:1;stroke-linecap:butt;stroke-linejoin:miter;stroke:#3b3434;stroke-opacity:1;stroke-miterlimit:4" d="M309.875 42.5c-22.75 0-41.375 20.875-45.125 48.5h179.875c-3.75-27.625-22.5-48.5-45.125-48.5zm0 0" transform="scale(.03125)"/><path style="stroke:none;fill-rule:nonzero;fill:#25aedf;fill-opacity:1" d="M2.063 3.086h11.874c.942 0 1.704.766 1.704 1.707v5.984c0 .942-.762 1.703-1.704 1.703H2.063a1.702 1.702 0 0 1-1.704-1.703V4.793c0-.941.762-1.707 1.704-1.707zm0 0"/><path style="stroke:none;fill-rule:nonzero;fill:#25aedf;fill-opacity:1" d="M2.063 5.277h11.874c.942 0 1.704.766 1.704 1.707v5.985c0 .941-.762 1.703-1.704 1.703H2.063a1.702 1.702 0 0 1-1.704-1.703V6.984c0-.941.762-1.707 1.704-1.707zm0 0"/><path style="stroke:none;fill-rule:nonzero;fill:#fff;fill-opacity:1" d="M4.266 11.672s1.066.922 2.289.57c1.218-.347.996-.68.996-.68s.668.477 1.246.645c.574.164 1.82 0 1.687-.758-.132-.754.422.719 1.618.832l-1.774-1.293s-.422.649-.867 1.051c-.441.406-1.856-1.133-2.242-.516-.39.63-2.953.149-2.953.149zm2.058-1.512s.832.922 1.793.57c.957-.351.781-.683.781-.683s.524.48.973.648c.453.164 1.43 0 1.324-.758-.105-.753.332.72 1.27.829l-1.39-1.29s-.333.645-.68 1.051c-.348.407-1.457-1.136-1.758-.515-.305.629-2.313.148-2.313.148zM9.45 7a.853.853 0 0 0 .015-.172c0-.7-.758-1.273-1.684-1.273-.539 0-1.035.191-1.347.508a1.929 1.929 0 0 0-.34-.032c-.813 0-1.473.504-1.473 1.117 0 .016 0 .032.004.047-.61.137-1.055.563-1.055 1.07 0 .614.66 1.114 1.473 1.114h3.578c.93 0 1.684-.57 1.684-1.274 0-.464-.336-.886-.856-1.105zm-.83 2.063H5.043c-.582 0-1.05-.36-1.05-.797 0-.442.468-.797 1.05-.797.031 0 .062.004.094.004a.627.627 0 0 1-.094-.325c0-.441.473-.796 1.05-.796.192 0 .368.043.524.109.188-.344.637-.586 1.164-.586.696 0 1.262.426 1.262.953a.742.742 0 0 1-.094.356c.54.113.938.48.938.921 0 .528-.567.957-1.266.957zm0 0"/><path style="stroke:none;fill-rule:nonzero;fill:#fff;fill-opacity:1" d="M12.008 5.469c.004-.024.004-.051.004-.074 0-.325-.344-.586-.77-.586a.879.879 0 0 0-.617.234.684.684 0 0 0-.156-.016c-.371 0-.676.23-.676.512 0 .008.004.016.004.02-.281.066-.485.261-.485.492 0 .281.305.511.676.511h1.64c.427 0 .77-.261.77-.585 0-.211-.152-.407-.39-.508zm-.38.945h-1.64c-.265 0-.484-.16-.484-.363 0-.203.219-.367.484-.367.016 0 .028.003.043.003a.275.275 0 0 1-.043-.148c0-.203.215-.363.48-.363.09 0 .169.015.239.047.09-.157.293-.27.535-.27.32 0 .578.2.578.442a.34.34 0 0 1-.043.16c.246.05.43.218.43.422 0 .242-.258.437-.578.437zm0 0"/></svg>