<svg xmlns="http://www.w3.org/2000/svg" width="16" height="16"><path style="fill-rule:nonzero;fill:#ccc;fill-opacity:1;stroke-width:1;stroke-linecap:butt;stroke-linejoin:miter;stroke:#3b3434;stroke-opacity:1;stroke-miterlimit:4" d="M309.875 42.5c-22.75 0-41.375 20.875-45.125 48.5h179.875c-3.75-27.625-22.5-48.5-45.125-48.5zm0 0" transform="scale(.03125)"/><path style="stroke:none;fill-rule:nonzero;fill:#25aedf;fill-opacity:1" d="M2.063 3.086h11.874c.942 0 1.704.766 1.704 1.707v5.984c0 .942-.762 1.703-1.704 1.703H2.063a1.702 1.702 0 0 1-1.704-1.703V4.793c0-.941.762-1.707 1.704-1.707zm0 0"/><path style="stroke:none;fill-rule:nonzero;fill:#25aedf;fill-opacity:1" d="M2.063 5.277h11.874c.942 0 1.704.766 1.704 1.707v5.985c0 .941-.762 1.703-1.704 1.703H2.063a1.702 1.702 0 0 1-1.704-1.703V6.984c0-.941.762-1.707 1.704-1.707zm0 0"/><path style="stroke:none;fill-rule:evenodd;fill:#fff;fill-opacity:1" d="M7.887 4.27c-1.14 0-2.063.87-2.063 1.957v1.957H5v3.918h6.05V8.184h-.823V6.227c0-1.086-.922-1.957-2.063-1.957zm.136 1.043c.61 0 1.102.468 1.102 1.046v1.824h-2.2V6.36c0-.578.49-1.046 1.098-1.046zm-.015 3.585a.797.797 0 0 1 .793.797.794.794 0 0 1-.446.711l.465 1.278H7.21l.458-1.274a.8.8 0 0 1-.457-.715.8.8 0 0 1 .797-.797zm0 0"/></svg>