<svg xmlns="http://www.w3.org/2000/svg" width="16" height="16"><path style="fill-rule:nonzero;fill:#ccc;fill-opacity:1;stroke-width:1;stroke-linecap:butt;stroke-linejoin:miter;stroke:#3b3434;stroke-opacity:1;stroke-miterlimit:4" d="M309.875 42.5c-22.75 0-41.375 20.875-45.125 48.5h179.875c-3.75-27.625-22.5-48.5-45.125-48.5zm0 0" transform="scale(.03125)"/><path style="stroke:none;fill-rule:nonzero;fill:#25aedf;fill-opacity:1" d="M2.063 3.086h11.874c.942 0 1.704.766 1.704 1.707v5.984c0 .942-.762 1.703-1.704 1.703H2.063a1.702 1.702 0 0 1-1.704-1.703V4.793c0-.941.762-1.707 1.704-1.707zm0 0"/><path style="stroke:none;fill-rule:nonzero;fill:#25aedf;fill-opacity:1" d="M2.063 5.277h11.874c.942 0 1.704.766 1.704 1.707v5.985c0 .941-.762 1.703-1.704 1.703H2.063a1.702 1.702 0 0 1-1.704-1.703V6.984c0-.941.762-1.707 1.704-1.707zm0 0"/><path style="stroke:none;fill-rule:nonzero;fill:#fff;fill-opacity:1" d="M11.203 7.402c0 .57-.492 1.035-1.098 1.035-.605 0-1.097-.464-1.097-1.035 0-.574.492-1.039 1.097-1.039.606 0 1.098.465 1.098 1.04zm0 0"/><path style="stroke:none;fill-rule:nonzero;fill:#fff;fill-opacity:1" d="M10.117 5.469A1.984 1.984 0 0 0 8.125 7.44a1.991 1.991 0 0 0 3.98 0c0-1.09-.886-1.972-1.988-1.972zm0 .664c.73 0 1.32.586 1.32 1.308a1.32 1.32 0 0 1-2.64 0c0-.722.594-1.308 1.32-1.308zm0 0"/><path style="stroke:none;fill-rule:nonzero;fill:#fff;fill-opacity:1" d="M8.133 7.469 6.867 9.332l.418.414c.203.11.371.27.48.473l.41.41 1.891-1.258zm-.371 3.312c0 .504-.371.91-.828.91-.457 0-.829-.406-.829-.91s.372-.91.829-.91c.457 0 .828.406.828.91zm0 0"/><path style="stroke:none;fill-rule:nonzero;fill:#fff;fill-opacity:1" d="M6.762 9.332c-.785 0-1.422.633-1.422 1.414 0 .777.637 1.41 1.422 1.41.785 0 1.422-.633 1.422-1.41 0-.781-.637-1.414-1.422-1.414zm0 .285c.625 0 1.136.504 1.136 1.13 0 .62-.511 1.124-1.136 1.124a1.13 1.13 0 0 1-1.133-1.125 1.13 1.13 0 0 1 1.133-1.129zm0 0"/><path style="stroke:none;fill-rule:nonzero;fill:#fff;fill-opacity:1" d="M4.348 8.582v1.746l2.347 1.219c.012.004.024 0 .028-.012l.496-1.465a.027.027 0 0 0-.016-.03zm0 0"/></svg>