<svg xmlns="http://www.w3.org/2000/svg" width="16" height="16"><path style="fill-rule:nonzero;fill:#ccc;fill-opacity:1;stroke-width:1;stroke-linecap:butt;stroke-linejoin:miter;stroke:#3b3434;stroke-opacity:1;stroke-miterlimit:4" d="M309.875 42.5c-22.75 0-41.375 20.875-45.125 48.5h179.875c-3.75-27.625-22.5-48.5-45.125-48.5zm0 0" transform="scale(.03125)"/><path style="stroke:none;fill-rule:nonzero;fill:#25aedf;fill-opacity:1" d="M2.063 3.086h11.874c.942 0 1.704.766 1.704 1.707v5.984c0 .942-.762 1.703-1.704 1.703H2.063a1.702 1.702 0 0 1-1.704-1.703V4.793c0-.941.762-1.707 1.704-1.707zm0 0"/><path style="stroke:none;fill-rule:nonzero;fill:#25aedf;fill-opacity:1" d="M2.063 5.277h11.874c.942 0 1.704.766 1.704 1.707v5.985c0 .941-.762 1.703-1.704 1.703H2.063a1.702 1.702 0 0 1-1.704-1.703V6.984c0-.941.762-1.707 1.704-1.707zm0 0"/><path style="stroke:none;fill-rule:nonzero;fill:#fff;fill-opacity:1" d="M10.25 5.254v.004H4.324v6.027h.004l1.418 1.3v.04h5.926V6.602l.004-.004zm-5.566.23h5.343v1.114H5.883zm5.566.024 1.16 1.09h-1.16zm-5.703.094 1.2 1.117v4.336h-1.2zM5.98 6.84h4.047v4.215H5.98zm4.27 0h1.188v5.43l-1.188-1.176zm-5.656 4.445h1.152v1.055zm1.386 0h4.207l1.114 1.102H5.98zm0 0"/><path style="stroke:none;fill-rule:nonzero;fill:#fff;fill-opacity:1" d="M7.2 8.68a.44.44 0 1 1-.883 0 .44.44 0 0 1 .882 0zm1.327 0a.44.44 0 1 1-.884 0 .44.44 0 0 1 .884 0zm1.328 0a.443.443 0 0 1-.886 0c0-.246.199-.442.445-.442a.44.44 0 0 1 .441.442zm0 0"/></svg>