<svg xmlns="http://www.w3.org/2000/svg" width="16" height="16"><path style="fill-rule:nonzero;fill:#ccc;fill-opacity:1;stroke-width:1;stroke-linecap:butt;stroke-linejoin:miter;stroke:#3b3434;stroke-opacity:1;stroke-miterlimit:4" d="M309.875 42.5c-22.75 0-41.375 20.875-45.125 48.5h179.875c-3.75-27.625-22.5-48.5-45.125-48.5zm0 0" transform="scale(.03125)"/><path style="stroke:none;fill-rule:nonzero;fill:#25aedf;fill-opacity:1" d="M2.063 3.086h11.874c.942 0 1.704.766 1.704 1.707v5.984c0 .942-.762 1.703-1.704 1.703H2.063a1.702 1.702 0 0 1-1.704-1.703V4.793c0-.941.762-1.707 1.704-1.707zm0 0"/><path style="stroke:none;fill-rule:nonzero;fill:#25aedf;fill-opacity:1" d="M2.063 5.277h11.874c.942 0 1.704.766 1.704 1.707v5.985c0 .941-.762 1.703-1.704 1.703H2.063a1.702 1.702 0 0 1-1.704-1.703V6.984c0-.941.762-1.707 1.704-1.707zm0 0"/><path style="stroke:none;fill-rule:nonzero;fill:#fff;fill-opacity:1" d="M4.152 10.328h.766c.105 0 .191.063.191.145v.289c0 .078-.086.144-.191.144h-.766c-.105 0-.191-.066-.191-.144v-.29c0-.081.086-.144.191-.144zm-.097-.723c-.051 0-.094.032-.094.07v.434c0 .043.043.075.094.075h.191c.05 0 .098-.032.098-.075v-.07h.285c.055 0 .098-.031.098-.074V9.82c0-.039-.043-.07-.098-.07h-.285v-.074c0-.04-.047-.07-.098-.07zm0-.867c-.051 0-.094.032-.094.07v.434c0 .043.043.074.094.074h.191c.05 0 .098-.03.098-.074v-.07h.285c.055 0 .098-.031.098-.074v-.145c0-.039-.043-.07-.098-.07h-.285v-.074c0-.04-.047-.07-.098-.07zm0-.867c-.051 0-.094.031-.094.074v.43c0 .043.043.074.094.074h.191c.05 0 .098-.031.098-.074v-.07h.285c.055 0 .098-.032.098-.075v-.14c0-.043-.043-.074-.098-.074h-.285v-.07c0-.044-.047-.075-.098-.075zm0-.867c-.051 0-.094.031-.094.074v.434c0 .039.043.07.094.07h.191c.05 0 .098-.031.098-.07v-.074h.285c.055 0 .098-.032.098-.07v-.145c0-.043-.043-.075-.098-.075h-.285v-.07c0-.043-.047-.074-.098-.074zm0-.867c-.051 0-.094.031-.094.074v.434c0 .039.043.07.094.07h.191c.05 0 .098-.031.098-.07V6.57h.285c.055 0 .098-.03.098-.07v-.145c0-.043-.043-.074-.098-.074h-.285v-.07c0-.043-.047-.074-.098-.074zm0-.867c-.051 0-.094.03-.094.074v.433c0 .04.043.07.094.07h.191c.05 0 .098-.03.098-.07v-.074h.285c.055 0 .098-.031.098-.07v-.145c0-.039-.043-.074-.098-.074h-.285v-.07c0-.043-.047-.074-.098-.074zm.961 3.902c.05 0 .093.031.093.07v.434c0 .043-.043.074-.093.074h-.192c-.054 0-.097-.031-.097-.074v-.07h-.29c-.05 0-.093-.032-.093-.075v-.144c0-.04.043-.07.093-.07h.29v-.075c0-.039.043-.07.097-.07zm0-.867c.05 0 .093.03.093.07v.434c0 .043-.043.074-.093.074h-.192c-.054 0-.097-.031-.097-.074v-.07h-.29c-.05 0-.093-.032-.093-.075V8.52c0-.04.043-.07.093-.07h.29v-.075c0-.04.043-.07.097-.07zm0-.867c.05 0 .093.03.093.074v.433c0 .04-.043.07-.093.07h-.192c-.054 0-.097-.03-.097-.07v-.074h-.29c-.05 0-.093-.031-.093-.07v-.145c0-.043.043-.074.093-.074h.29v-.07c0-.043.043-.074.097-.074zm0-.868c.05 0 .093.032.093.075v.433c0 .04-.043.07-.093.07h-.192c-.054 0-.097-.03-.097-.07v-.074h-.29c-.05 0-.093-.031-.093-.07v-.145c0-.043.043-.074.093-.074h.29v-.07c0-.043.043-.075.097-.075zm0-.867c.05 0 .093.031.093.074v.434c0 .039-.043.07-.093.07h-.192c-.054 0-.097-.031-.097-.07v-.074h-.29c-.05 0-.093-.032-.093-.07v-.145c0-.04.043-.074.093-.074h.29v-.07c0-.044.043-.075.097-.075zm0-.867c.05 0 .093.031.093.074v.434c0 .039-.043.07-.093.07h-.192c-.054 0-.097-.031-.097-.07V5.27h-.29c-.05 0-.093-.032-.093-.07v-.145c0-.04.043-.075.093-.075h.29v-.07c0-.043.043-.074.097-.074zm0 0"/><path style="stroke:none;fill-rule:nonzero;fill:#fff;fill-opacity:1" d="M3.145 3.105v7.946c0 .316.359.578.796.578H5.13c.437 0 .793-.262.793-.578V3.105h-.195v7.946c0 .238-.266.433-.598.433H3.94c-.332 0-.597-.195-.597-.433V3.105zm0 0"/><path style="stroke:none;fill-rule:nonzero;fill:#fff;fill-opacity:1" d="M4.133 3.07c-.102 0-.18.067-.18.145v1.433c0 .079.078.141.18.141h.804c.102 0 .18-.062.18-.14V3.214c0-.078-.078-.145-.18-.145zm.101 1.055h.594v.414h-.594zm0 0"/></svg>