<svg xmlns="http://www.w3.org/2000/svg" width="16" height="16"><path style="fill-rule:nonzero;fill:#ccc;fill-opacity:1;stroke-width:1;stroke-linecap:butt;stroke-linejoin:miter;stroke:#3b3434;stroke-opacity:1;stroke-miterlimit:4" d="M309.875 42.5c-22.75 0-41.375 20.875-45.125 48.5h179.875c-3.75-27.625-22.5-48.5-45.125-48.5zm0 0" transform="scale(.03125)"/><path style="stroke:none;fill-rule:nonzero;fill:#25aedf;fill-opacity:1" d="M2.063 3.086h11.874c.942 0 1.704.766 1.704 1.707v5.984c0 .942-.762 1.703-1.704 1.703H2.063a1.702 1.702 0 0 1-1.704-1.703V4.793c0-.941.762-1.707 1.704-1.707zm0 0"/><path style="stroke:none;fill-rule:nonzero;fill:#25aedf;fill-opacity:1" d="M2.063 5.277h11.874c.942 0 1.704.766 1.704 1.707v5.985c0 .941-.762 1.703-1.704 1.703H2.063a1.702 1.702 0 0 1-1.704-1.703V6.984c0-.941.762-1.707 1.704-1.707zm0 0"/><path style="stroke:none;fill-rule:nonzero;fill:#fff;fill-opacity:1" d="M3.41 11.84c-.574-.3-.926-.844-.992-1.535-.113-1.192.594-2.075 1.668-2.078h.559l.054-.75c.031-.434.153-.91.285-1.125.493-.79 1.489-1.028 2.188-.528.652.465.758.887.758 3.02 0 1.86-.008 1.91-.325 2.355-.18.25-.503.54-.718.645-.528.258-2.98.254-3.477-.008zm3.203-.227a1.81 1.81 0 0 0 .723-.504c.27-.336.297-.496.336-2.007.05-2.012-.074-2.579-.656-2.997-1.008-.73-2.098.215-2.098 1.817v.555l-.73.062c-.61.05-.79.129-1.09.48-.723.848-.465 2.165.496 2.551.511.207 2.433.235 3.02.043zm0 0"/><path style="stroke:none;fill-rule:nonzero;fill:#fff;fill-opacity:1" d="M12.418 11.91c.574-.297.926-.84.992-1.531.117-1.195-.594-2.078-1.668-2.078h-.558l-.055-.75c-.031-.434-.152-.91-.285-1.125-.492-.79-1.489-1.031-2.188-.531-.652.464-.758.89-.758 3.023 0 1.86.008 1.91.325 2.352.18.25.504.543.718.648.528.254 2.98.25 3.477-.008zm-3.203-.226a1.748 1.748 0 0 1-.723-.504c-.27-.332-.297-.496-.336-2.004-.05-2.016.074-2.578.656-3 1.008-.73 2.098.219 2.098 1.82v.55l.73.063c.61.051.79.13 1.09.485.723.844.465 2.16-.496 2.55-.511.204-2.43.231-3.02.04zm0 0"/></svg>