<svg xmlns="http://www.w3.org/2000/svg" width="16" height="16"><path style="fill-rule:nonzero;fill:#ccc;fill-opacity:1;stroke-width:1;stroke-linecap:butt;stroke-linejoin:miter;stroke:#3b3434;stroke-opacity:1;stroke-miterlimit:4" d="M309.875 42.5c-22.75 0-41.375 20.875-45.125 48.5h179.875c-3.75-27.625-22.5-48.5-45.125-48.5zm0 0" transform="scale(.03125)"/><path style="stroke:none;fill-rule:nonzero;fill:#25aedf;fill-opacity:1" d="M2.063 3.086h11.874c.942 0 1.704.766 1.704 1.707v5.984c0 .942-.762 1.703-1.704 1.703H2.063a1.702 1.702 0 0 1-1.704-1.703V4.793c0-.941.762-1.707 1.704-1.707zm0 0"/><path style="stroke:none;fill-rule:nonzero;fill:#25aedf;fill-opacity:1" d="M2.063 5.277h11.874c.942 0 1.704.766 1.704 1.707v5.985c0 .941-.762 1.703-1.704 1.703H2.063a1.702 1.702 0 0 1-1.704-1.703V6.984c0-.941.762-1.707 1.704-1.707zm0 0"/><path style="stroke:none;fill-rule:nonzero;fill:#fff;fill-opacity:1" d="M2.184 7.895h.734V8.98h1.086V7.895h.734v2.847h-.734V9.535H2.918v1.207h-.734zm2.941 0h2.621v.558h-.941v2.29H6.07v-2.29h-.945zm3.008 0h.937l.649 1.527.652-1.527h.93v2.847h-.692V8.66l-.656 1.535h-.465L8.832 8.66v2.082h-.7zm3.898 0h.735v2.293h1.289v.554H12.03zm0 0"/></svg>