<svg xmlns="http://www.w3.org/2000/svg" width="16" height="16"><path style="fill-rule:nonzero;fill:#ccc;fill-opacity:1;stroke-width:1;stroke-linecap:butt;stroke-linejoin:miter;stroke:#3b3434;stroke-opacity:1;stroke-miterlimit:4" d="M309.875 42.5c-22.75 0-41.375 20.875-45.125 48.5h179.875c-3.75-27.625-22.5-48.5-45.125-48.5zm0 0" transform="scale(.03125)"/><path style="stroke:none;fill-rule:nonzero;fill:#25aedf;fill-opacity:1" d="M2.063 3.086h11.874c.942 0 1.704.766 1.704 1.707v5.984c0 .942-.762 1.703-1.704 1.703H2.063a1.702 1.702 0 0 1-1.704-1.703V4.793c0-.941.762-1.707 1.704-1.707zm0 0"/><path style="stroke:none;fill-rule:nonzero;fill:#25aedf;fill-opacity:1" d="M2.063 5.277h11.874c.942 0 1.704.766 1.704 1.707v5.985c0 .941-.762 1.703-1.704 1.703H2.063a1.702 1.702 0 0 1-1.704-1.703V6.984c0-.941.762-1.707 1.704-1.707zm0 0"/><path style="stroke:none;fill-rule:evenodd;fill:#fff;fill-opacity:1" d="m5.898 8.469.325.004.215.433-.758-.004zm-.003 4.211h.324l.218-.43H5.68zm1.777-3.242.16.289-.187.351-.375-.676zm-3.387 1.988.16.289.403.035-.38-.68zm3.547-.004-.16.289-.402.039.37-.68zM4.453 9.434l-.164.285.184.351.379-.672zm0 0"/><path style="stroke:none;fill-rule:nonzero;fill:#fff;fill-opacity:1" d="M6.059 8.898c-.426 0-.848.18-1.145.493a1.716 1.716 0 0 0 0 2.367 1.61 1.61 0 0 0 1.145.492c.421 0 .843-.18 1.144-.492.297-.309.473-.746.473-1.184 0-.437-.176-.875-.473-1.183a1.608 1.608 0 0 0-1.144-.493zm0 .672c.253 0 .503.106.683.293.18.188.285.45.285.711 0 .262-.105.524-.285.711a.968.968 0 0 1-.683.293.977.977 0 0 1-.688-.293 1.043 1.043 0 0 1-.285-.71c0-.262.105-.524.285-.712a.961.961 0 0 1 .688-.293zm0 0"/><path style="stroke:none;fill-rule:evenodd;fill:#fff;fill-opacity:1" d="m9.11 4.742.433.004.289.602L8.82 5.34zm0 5.848h.433l.285-.598H8.82zm2.367-4.504.214.402-.25.489-.5-.942zm-4.52 2.762.219.402.535.047-.508-.942zm4.734-.004-.214.402-.536.05.496-.94zM7.184 6.078l-.22.399.247.488.504-.93zm0 0"/><path style="stroke:none;fill-rule:nonzero;fill:#fff;fill-opacity:1" d="M9.324 5.336a2.127 2.127 0 0 0-1.527.684 2.453 2.453 0 0 0 0 3.289c.398.433.96.683 1.527.683s1.125-.25 1.528-.683a2.453 2.453 0 0 0 0-3.29 2.118 2.118 0 0 0-1.528-.683zm0 .934c.34 0 .676.148.914.41a1.46 1.46 0 0 1 0 1.973 1.26 1.26 0 0 1-.914.41c-.34 0-.676-.153-.918-.41a1.476 1.476 0 0 1 0-1.973 1.26 1.26 0 0 1 .918-.41zm0 0"/></svg>