<svg xmlns="http://www.w3.org/2000/svg" width="16" height="16"><path style="fill-rule:nonzero;fill:#ccc;fill-opacity:1;stroke-width:1;stroke-linecap:butt;stroke-linejoin:miter;stroke:#3b3434;stroke-opacity:1;stroke-miterlimit:4" d="M309.875 42.5c-22.75 0-41.375 20.875-45.125 48.5h179.875c-3.75-27.625-22.5-48.5-45.125-48.5zm0 0" transform="scale(.03125)"/><path style="stroke:none;fill-rule:nonzero;fill:#25aedf;fill-opacity:1" d="M2.063 3.086h11.874c.942 0 1.704.766 1.704 1.707v5.984c0 .942-.762 1.703-1.704 1.703H2.063a1.702 1.702 0 0 1-1.704-1.703V4.793c0-.941.762-1.707 1.704-1.707zm0 0"/><path style="stroke:none;fill-rule:nonzero;fill:#25aedf;fill-opacity:1" d="M2.063 5.277h11.874c.942 0 1.704.766 1.704 1.707v5.985c0 .941-.762 1.703-1.704 1.703H2.063a1.702 1.702 0 0 1-1.704-1.703V6.984c0-.941.762-1.707 1.704-1.707zm0 0"/><path style="stroke:none;fill-rule:nonzero;fill:#fff;fill-opacity:1" d="M12.375 8.594 8.406 4.625a.59.59 0 0 0-.828 0l-.824.824 1.043 1.047a.695.695 0 0 1 .883.887L9.688 8.39a.69.69 0 0 1 .718.164.693.693 0 0 1 0 .984.693.693 0 0 1-.984 0 .689.689 0 0 1-.152-.758l-.942-.937v2.472a.698.698 0 1 1-.8 1.117.705.705 0 0 1 0-.988.698.698 0 0 1 .23-.152V7.797a.632.632 0 0 1-.23-.149.696.696 0 0 1-.15-.761l-1.03-1.032-2.723 2.72a.59.59 0 0 0 0 .827l3.969 3.97c.23.23.601.23.828 0l3.953-3.95a.59.59 0 0 0 0-.828"/></svg>