<svg xmlns="http://www.w3.org/2000/svg" width="16" height="16"><path style="stroke:none;fill-rule:nonzero;fill:#3ecdf6;fill-opacity:1" d="M.773 1.738a.24.24 0 0 0-.242.242v12.047a.24.24 0 0 0 .242.243h14.454a.24.24 0 0 0 .242-.243V1.98a.24.24 0 0 0-.242-.242zm0 0"/><path style="stroke:none;fill-rule:nonzero;fill:#0055d4;fill-opacity:1" d="M.531 1.79v1.05c0 .191.106.348.242.348h14.454c.136 0 .242-.157.242-.348V1.79zm0 0"/><path style="stroke:none;fill-rule:nonzero;fill:#fff;fill-opacity:1" d="M14.746 2.332a.118.118 0 0 0-.121-.117.118.118 0 0 0-.121.117c0 .066.055.121.121.121a.122.122 0 0 0 .121-.121zm-.723 0a.118.118 0 0 0-.12-.117.118.118 0 0 0-.122.117c0 .066.055.121.121.121a.122.122 0 0 0 .121-.121zm-.723 0a.118.118 0 0 0-.12-.117.118.118 0 0 0-.121.117c0 .066.054.121.12.121a.122.122 0 0 0 .122-.121zm0 0"/><path style="stroke:none;fill-rule:nonzero;fill:#a6e7f3;fill-opacity:1" d="M.531 1.973a.24.24 0 0 1 .242-.243h14.454a.24.24 0 0 1 .242.243zm0 0"/><path style="stroke:none;fill-rule:nonzero;fill:#fff;fill-opacity:1" d="M1.012 2.332a.118.118 0 0 0-.121-.117.115.115 0 0 0-.118.117c0 .066.051.121.118.121a.122.122 0 0 0 .12-.121zm.484 0a.118.118 0 0 0-.121-.117.118.118 0 0 0-.121.117c0 .066.055.121.121.121a.122.122 0 0 0 .121-.121zm0 0"/><path style="fill-rule:nonzero;fill:#ccc;fill-opacity:1;stroke-width:1;stroke-linecap:butt;stroke-linejoin:miter;stroke:#3b3434;stroke-opacity:1;stroke-miterlimit:4" d="M97.375 127.125c-2.875 0-5.25 2.625-5.75 6.125h23.125c-.5-3.5-2.875-6.125-5.75-6.125zm0 0" transform="scale(.03125)"/><path style="stroke:none;fill-rule:nonzero;fill:#25aedf;fill-opacity:1" d="M2.063 4.195h1.53a.22.22 0 0 1 .22.22v.769a.218.218 0 0 1-.22.218h-1.53a.218.218 0 0 1-.22-.218v-.77a.22.22 0 0 1 .22-.219zm0 0"/><path style="stroke:none;fill-rule:nonzero;fill:#25aedf;fill-opacity:1" d="M2.063 4.477h1.53c.122 0 .22.101.22.222v.766a.218.218 0 0 1-.22.219h-1.53a.218.218 0 0 1-.22-.22V4.7c0-.12.098-.222.22-.222zm0 0"/><path style="fill-rule:nonzero;fill:#ccc;fill-opacity:1;stroke-width:1;stroke-linecap:butt;stroke-linejoin:miter;stroke:#3b3434;stroke-opacity:1;stroke-miterlimit:4" d="M97.375 204.375c-2.875 0-5.25 2.75-5.75 6.25h23.125c-.5-3.5-2.875-6.25-5.75-6.25zm0 0" transform="scale(.03125)"/><path style="stroke:none;fill-rule:nonzero;fill:#25aedf;fill-opacity:1" d="M2.063 6.613h1.53a.22.22 0 0 1 .22.219v.77a.218.218 0 0 1-.22.218h-1.53a.218.218 0 0 1-.22-.218v-.77a.22.22 0 0 1 .22-.219zm0 0"/><path style="stroke:none;fill-rule:nonzero;fill:#25aedf;fill-opacity:1" d="M2.063 6.895h1.53c.122 0 .22.097.22.218v.77a.218.218 0 0 1-.22.219h-1.53a.218.218 0 0 1-.22-.22v-.769c0-.12.098-.218.22-.218zm0 0"/></svg>