<svg xmlns="http://www.w3.org/2000/svg" width="16" height="16"><path style="stroke:none;fill-rule:nonzero;fill:#fff;fill-opacity:1" d="M15.715 8a7.718 7.718 0 0 1-7.445 7.71A7.718 7.718 0 0 1 .305 8.54a7.713 7.713 0 0 1 15.332-1.617"/><path style="stroke:none;fill-rule:evenodd;fill:#35c770;fill-opacity:1" d="M8.008 2.852c-.028 0-.055 0-.086.003-.867.067-1.356 1.125-.988 2.29-.446-.75-1.024-1.32-1.754-1.317-.059 0-.117.004-.18.012-.875.117-.996 1.215-.082 1.726.2.114.394.247.586.395-.32-.18-.645-.29-.957-.29-.211 0-.422.052-.617.169-.637.37-.418 1.226.386 1.398a1.18 1.18 0 0 0-.574.332c-.512.543-.012 1.325.863 1.176.079-.016.16-.023.247-.031a.959.959 0 0 0-.48.457c-.259.527.308 1 .929.68.488-.25 1.117-.368 1.66-.426l.09.047-.094.054.137.23-.137.227v.004l.094.051-.094.055.137.23-.137.227v.004l.094.05-.094.055.137.23-.137.227v.004l.094.05-.094.056.137.23-.137.227.094.054-.094.055.137.227-.137.23.094.055-.094.05v.004l.137.227-.137.23.094.055-.094.05v.005l.137.226-.02.036h1.828l-.02-.036.138-.226v-.004l-.094-.05.094-.056-.137-.23.137-.227v-.004l-.094-.05.094-.055-.137-.23.137-.227-.094-.055.094-.054-.137-.227.137-.23-.094-.055.094-.05v-.005l-.137-.226.137-.23-.094-.056.094-.05v-.004l-.137-.227.137-.23-.094-.055.094-.05v-.005l-.137-.226.137-.23-.094-.055.09-.051c.55.058 1.191.176 1.683.43.621.32 1.188-.153.93-.68a.943.943 0 0 0-.48-.457c.085.008.167.015.246.031.875.149 1.375-.633.863-1.176a1.18 1.18 0 0 0-.574-.332c.808-.172 1.023-1.027.386-1.398-.488-.29-1.039-.18-1.574.12a4.53 4.53 0 0 1 .586-.394c.914-.511.793-1.609-.082-1.726-.867-.117-1.531.574-2.023 1.46.418-1.413-.157-2.44-.97-2.448zm0 0"/><path style="stroke:none;fill-rule:evenodd;fill:#3ac5e6;fill-opacity:1" d="M5.227 1.3A7.232 7.232 0 0 0 .766 7.98a7.237 7.237 0 0 0 6.539 7.196V13.78a5.85 5.85 0 0 1-5.153-5.8 5.858 5.858 0 0 1 3.075-5.145zm5.546.005v1.527a5.851 5.851 0 0 1 3.075 5.148 5.846 5.846 0 0 1-5.153 5.797v1.403a7.235 7.235 0 0 0 6.54-7.2 7.233 7.233 0 0 0-4.462-6.675zm0 0"/></svg>