<svg xmlns="http://www.w3.org/2000/svg" width="16" height="16"><path style="fill-rule:nonzero;fill:#fff;fill-opacity:1;stroke-width:2.611469;stroke-linecap:butt;stroke-linejoin:miter;stroke:#999;stroke-opacity:1;stroke-miterlimit:4" d="M7.828 1006.975h32.344a5.211 5.211 0 0 1 5.215 5.215v32.344a5.211 5.211 0 0 1-5.215 5.215H7.828a5.211 5.211 0 0 1-5.215-5.215v-32.344a5.211 5.211 0 0 1 5.215-5.215zm0 0" transform="translate(0 -334.787) scale(.33333)"/><path style="stroke:none;fill-rule:nonzero;fill:#999;fill-opacity:1" d="M11.09 6.36c0-2.208-1.399-4-3.121-4-1.727 0-3.125 1.792-3.125 4 0 2.206 1.398 3.995 3.125 3.995 1.722 0 3.12-1.789 3.12-3.996zm0 0"/><path style="stroke:none;fill-rule:nonzero;fill:#999;fill-opacity:1" d="M10.703 9.914c-.547 1.281-1.598 2.074-2.734 2.074-1.14 0-2.188-.797-2.735-2.074-2.433.848-4.043 2.746-4.144 4.875h13.75c-.098-2.129-1.707-4.023-4.137-4.875zm0 0"/></svg>