<svg xmlns="http://www.w3.org/2000/svg" width="32" height="32"><path style="stroke:none;fill-rule:nonzero;fill:#ccc;fill-opacity:1" d="M19.39 2.547c-1.425 0-2.605 1.316-2.84 3.062h11.33c-.238-1.746-1.414-3.062-2.844-3.062zm0 0"/><path style="stroke:none;fill-rule:nonzero;fill:#25aedf;fill-opacity:1" d="M4.027 6.09h23.946a3.43 3.43 0 0 1 3.43 3.437V21.59a3.433 3.433 0 0 1-3.43 3.445H4.027a3.433 3.433 0 0 1-3.43-3.445V9.527a3.43 3.43 0 0 1 3.43-3.437zm0 0"/><path style="stroke:none;fill-rule:nonzero;fill:#25aedf;fill-opacity:1" d="M4.027 10.516h23.946a3.433 3.433 0 0 1 3.43 3.437v12.063a3.43 3.43 0 0 1-3.43 3.437H4.027a3.43 3.43 0 0 1-3.43-3.437V13.953a3.433 3.433 0 0 1 3.43-3.437zm0 0"/><path style="stroke:none;fill-rule:evenodd;fill:#4caf50;fill-opacity:1" d="M30 21.5c.047 2.129-1.09 4.113-2.965 5.191a6.12 6.12 0 0 1-6.07 0C19.09 25.613 17.953 23.63 18 21.5a5.842 5.842 0 0 1 2.965-5.191 6.12 6.12 0 0 1 6.07 0A5.842 5.842 0 0 1 30 21.5zm0 0"/><path style="stroke:none;fill-rule:nonzero;fill:#fff;fill-opacity:1" d="M27.285 17.727a.642.642 0 0 0-.312.238l-3.27 3.172-2.039-1.95a.624.624 0 0 0-.625-.433.608.608 0 0 0-.574.5.624.624 0 0 0 .363.668l2.457 2.43c.23.214.602.214.836 0l3.688-3.653a.6.6 0 0 0 .05-.652.613.613 0 0 0-.574-.32zm0 0"/></svg>