<svg xmlns="http://www.w3.org/2000/svg" width="32" height="32"><path style="stroke:none;fill-rule:nonzero;fill:#ccc;fill-opacity:1" d="M19.39 2.273c-1.425 0-2.605 1.317-2.84 3.055h11.33c-.238-1.738-1.414-3.055-2.844-3.055zm0 0"/><path style="stroke:none;fill-rule:nonzero;fill:#25aedf;fill-opacity:1" d="M4.027 5.816h23.946a3.433 3.433 0 0 1 3.43 3.438v12.062a3.43 3.43 0 0 1-3.43 3.438H4.027a3.43 3.43 0 0 1-3.43-3.438V9.254a3.433 3.433 0 0 1 3.43-3.438zm0 0"/><path style="stroke:none;fill-rule:nonzero;fill:#25aedf;fill-opacity:1" d="M4.027 10.246h23.946a3.426 3.426 0 0 1 3.43 3.438v12.062a3.433 3.433 0 0 1-3.43 3.438H4.027a3.433 3.433 0 0 1-3.43-3.438V13.684a3.426 3.426 0 0 1 3.43-3.438zm0 0"/><path style="stroke:none;fill-rule:nonzero;fill:#4caf50;fill-opacity:1" d="M30 17.227h-6v-6.5h-6.5v6.5H11v6.5h6.5v6H24v-6h6zm0 0"/></svg>