<svg xmlns="http://www.w3.org/2000/svg" width="32" height="32"><path style="stroke:none;fill-rule:nonzero;fill:#25aedf;fill-opacity:1" d="M5.914.746h20.172a5.166 5.166 0 0 1 5.168 5.168v20.172a5.166 5.166 0 0 1-5.168 5.168H5.914a5.166 5.166 0 0 1-5.168-5.168V5.914A5.166 5.166 0 0 1 5.914.746zm0 0"/><path style="stroke:none;fill-rule:evenodd;fill:#fff;fill-opacity:1" d="M16 6.36 6.36 18.41h2.406L16 8.766l7.234 9.644h-2.172v7.23h2.415v-7.23h2.164zM8.766 18.41v7.23h2.41v-7.23zM20.824 6.36v4.816l2.41 2.89V6.36zM16 13.347a1.688 1.688 0 1 0 0 3.374 1.688 1.688 0 0 0 0-3.374zm-3.621 9.886v2.407h7.242v-2.407zm0 0"/></svg>