<svg xmlns="http://www.w3.org/2000/svg" width="32" height="32"><path style="stroke:none;fill-rule:nonzero;fill:#c19553;fill-opacity:1" d="M2 0c-.871 0-2 1.129-2 2v26c0 .824 1.176 2 2 2h26c.824 0 2-1.176 2-2V2c0-.824-1.176-2-2-2zm0 0"/><path style="stroke:none;fill-rule:nonzero;fill:#fff;fill-opacity:.196078" d="M2 0c-.871 0-2 1.129-2 2v8h30V2c0-.824-1.176-2-2-2zm0 0"/><path style="stroke:none;fill-rule:nonzero;fill:#fff;fill-opacity:.392157" d="M12 4v12h6V4zm0 0"/><path style="stroke:none;fill-rule:evenodd;fill:#dc322f;fill-opacity:1" d="M32 25.75A6.248 6.248 0 0 1 25.75 32a6.248 6.248 0 0 1-6.25-6.25 6.248 6.248 0 0 1 6.25-6.25A6.248 6.248 0 0 1 32 25.75zm0 0"/><path style="stroke:none;fill-rule:nonzero;fill:#fff;fill-opacity:1" d="m22.984 21.86-1.125 1.124 2.77 2.766-2.77 2.766 1.125 1.125 2.766-2.77 2.766 2.77 1.125-1.125-2.77-2.766 2.77-2.766-1.125-1.125-2.766 2.77zm0 0"/></svg>