<svg xmlns="http://www.w3.org/2000/svg" width="32" height="32"><path style="stroke:none;fill-rule:nonzero;fill:#c19553;fill-opacity:1" d="M2 0c-.871 0-2 1.129-2 2v26c0 .816 1.176 2 2 2h26c.816 0 2-1.184 2-2V2c0-.824-1.184-2-2-2zm0 0"/><path style="stroke:none;fill-rule:nonzero;fill:#fff;fill-opacity:.196078" d="M2 0c-.871 0-2 1.129-2 2v8h30V2c0-.824-1.184-2-2-2zm0 0"/><path style="stroke:none;fill-rule:nonzero;fill:#fff;fill-opacity:.392157" d="M12 4v12h6V4zm0 0"/><path style="stroke:none;fill-rule:evenodd;fill:#25aedf;fill-opacity:1" d="M32 25.75A6.248 6.248 0 0 1 25.75 32a6.248 6.248 0 0 1-6.25-6.25 6.248 6.248 0 0 1 6.25-6.25A6.248 6.248 0 0 1 32 25.75zm0 0"/><path style="stroke:none;fill-rule:nonzero;fill:#fff;fill-opacity:1" d="M25.348 22.059v.53a3.011 3.011 0 0 0-1.758.849 3.022 3.022 0 0 0-.852 2.34l.977.261c-.168-.7.031-1.43.539-1.941.297-.297.68-.496 1.094-.563v.656h.093l1.809-1.039zm2.418 1.351-.852.488c.082.055.16.125.227.2.605.601.773 1.511.425 2.28l-.5-.28-.043.086v.918c-.02.011-.027.027-.046.039l.046.03v1.095l1.903-1.094-.555-.324a2.978 2.978 0 0 0-.562-3.41c-.012-.012-.032-.016-.043-.028zm-4.993 2.875.567 2.125.523-.531a2.95 2.95 0 0 0 2.684.512v-.989a2.045 2.045 0 0 1-2.02-.187l.332-.324-.07-.075zm0 0"/></svg>