<svg xmlns="http://www.w3.org/2000/svg" width="32" height="32"><path style="stroke:none;fill-rule:nonzero;fill:#ccc;fill-opacity:1" d="M19.39 2.547c-1.425 0-2.605 1.316-2.84 3.062h11.33c-.238-1.746-1.414-3.062-2.844-3.062zm0 0"/><path style="stroke:none;fill-rule:nonzero;fill:#ab37c8;fill-opacity:1" d="M4.027 6.09h23.946a3.43 3.43 0 0 1 3.43 3.437V21.59a3.433 3.433 0 0 1-3.43 3.445H4.027a3.433 3.433 0 0 1-3.43-3.445V9.527a3.43 3.43 0 0 1 3.43-3.437zm0 0"/><path style="stroke:none;fill-rule:nonzero;fill:#ab37c8;fill-opacity:1" d="M4.027 10.516h23.946a3.433 3.433 0 0 1 3.43 3.437v12.063a3.43 3.43 0 0 1-3.43 3.437H4.027a3.43 3.43 0 0 1-3.43-3.437V13.953a3.433 3.433 0 0 1 3.43-3.437zm0 0"/><path style="stroke:none;fill-rule:nonzero;fill:#4caf50;fill-opacity:1" d="M30 17.5h-6V11h-6.5v6.5H11V24h6.5v6H24v-6h6zm0 0"/></svg>