<svg xmlns="http://www.w3.org/2000/svg" width="32" height="32"><path style="stroke:none;fill-rule:evenodd;fill:#dc322f;fill-opacity:1" d="M28.5 16c0 6.902-5.598 12.5-12.5 12.5S3.5 22.902 3.5 16 9.098 3.5 16 3.5 28.5 9.098 28.5 16zm0 0"/><path style="stroke:none;fill-rule:nonzero;fill:#fff;fill-opacity:1" d="M14.61 7.012h2.78v8.187h-2.78zM16 18.188a3.34 3.34 0 0 0-3.336 3.335A3.334 3.334 0 0 0 16 24.86a3.334 3.334 0 0 0 3.336-3.336A3.34 3.34 0 0 0 16 18.188zm0 .847a2.494 2.494 0 0 1 2.496 2.488A2.495 2.495 0 0 1 16 24.016a2.495 2.495 0 0 1-2.496-2.493A2.494 2.494 0 0 1 16 19.035zm0 0"/></svg>