<svg xmlns="http://www.w3.org/2000/svg" width="32" height="32"><path style="stroke:none;fill-rule:nonzero;fill:#c19553;fill-opacity:1" d="M3.61 2C2.8 2 2 2.8 2 3.61v24.83C2 29.2 2.8 30 3.559 30H28.44c.76 0 1.56-.8 1.56-1.559V3.56C30 2.8 29.2 2 28.441 2zm0 0"/><path style="stroke:none;fill-rule:nonzero;fill:#fff;fill-opacity:.196078" d="M3.61 2C2.8 2 2 2.8 2 3.61V12h28V3.559C30 2.8 29.2 2 28.441 2zm0 0"/><path style="stroke:none;fill-rule:nonzero;fill:#fff;fill-opacity:1" d="M14 2v2h2v2h-2v2h2v2h-2v2l2 .016v4L14 16v4h4v-4l-2 .016V14h2v-2l-2 .016V10h2V8h-2V6h2V4h-2V2zm0 0"/><path style="stroke:none;fill-rule:nonzero;fill:#859900;fill-opacity:1" d="M32 20h-6v-6h-6v6h-6v6h6v6h6v-6h6zm0 0"/></svg>