<svg height="32" viewBox="0 0 8.467 8.467" width="32" xmlns="http://www.w3.org/2000/svg"><path d="M1.058 1.323v.265h3.705v-.265zm0 3.175v.265h3.704v-.265zm0 .794v.264h3.704v-.264zm0 1.852v-.265h3.704v.265zm0-.794v-.265h3.704v.265zM6.35 4.762v2.14l-.607-.607-.187.187.926.926.926-.926-.187-.187-.606.607v-2.14zM1.058 3.704v.265h3.175v-.265zm0-.794v.265h3.704V2.91zm0-.793v.264h3.704v-.264zm4.498 3.439v-2.14l-.606.608-.187-.188.926-.926.926.926-.187.188-.607-.607v2.14z" style="fill:currentColor;fill-opacity:1;stroke:none;color:#dedede"/></svg>