
<svg xmlns="http://www.w3.org/2000/svg" xmlns:xlink="http://www.w3.org/1999/xlink" width="48px" height="48px" viewBox="0 0 48 48" version="1.1">
<g id="surface1">
<path style="fill-rule:nonzero;fill:rgb(100%,100%,100%);fill-opacity:1;stroke-width:27.910587;stroke-linecap:butt;stroke-linejoin:miter;stroke:rgb(0%,67.058824%,93.333333%);stroke-opacity:1;stroke-miterlimit:4;" d="M 83.208333 27.416667 L 428.791667 27.416667 C 459.625 27.416667 484.583333 52.375 484.583333 83.208333 L 484.583333 428.791667 C 484.583333 459.625 459.625 484.583333 428.791667 484.583333 L 83.208333 484.583333 C 52.375 484.583333 27.416667 459.625 27.416667 428.791667 L 27.416667 83.208333 C 27.416667 52.375 52.375 27.416667 83.208333 27.416667 Z M 83.208333 27.416667 " transform="matrix(0.09375,0,0,0.09375,0,0)"/>
<path style=" stroke:none;fill-rule:nonzero;fill:rgb(22.745098%,20.784314%,21.960784%);fill-opacity:1;" d="M 23.5 25.082031 C 24.359375 25.402344 25.175781 25.132812 25.769531 24.328125 C 25.992188 24.03125 26.042969 23.828125 26.046875 23.261719 L 26.054688 22.5625 L 29.777344 18.824219 L 33.496094 15.082031 L 33.507812 14.742188 C 33.515625 14.550781 33.480469 14.324219 33.433594 14.234375 C 33.332031 14.035156 32.792969 13.851562 32.582031 13.945312 C 32.5 13.984375 30.757812 15.6875 28.714844 17.730469 L 25 21.445312 L 24.1875 21.335938 L 17.976562 15.125 L 17.59375 15.054688 C 16.996094 14.941406 16.574219 15.042969 16.234375 15.382812 C 15.855469 15.757812 15.777344 16.199219 15.976562 16.820312 C 16.128906 17.277344 16.140625 17.292969 19.148438 20.292969 L 22.171875 23.308594 L 22.292969 23.78125 C 22.445312 24.359375 22.910156 24.859375 23.5 25.082031 Z M 23.5 25.082031 "/>
<path style="fill:none;stroke-width:35.849998;stroke-linecap:butt;stroke-linejoin:miter;stroke:rgb(0%,67.058824%,93.333333%);stroke-opacity:1;stroke-miterlimit:4;" d="M 425.5 256 C 425.5 349.625 349.625 425.5 256 425.5 C 162.375 425.5 86.5 349.625 86.5 256 C 86.5 162.375 162.375 86.5 256 86.5 C 349.625 86.5 425.5 162.375 425.5 256 Z M 425.5 256 " transform="matrix(0.09375,0,0,0.09375,0,0)"/>
</g>
</svg>
