
<svg xmlns="http://www.w3.org/2000/svg" xmlns:xlink="http://www.w3.org/1999/xlink" width="48px" height="48px" viewBox="0 0 48 48" version="1.1">
<g id="surface1">
<path style="fill-rule:nonzero;fill:rgb(0%,65.882353%,83.137255%);fill-opacity:1;stroke-width:27.442497;stroke-linecap:butt;stroke-linejoin:miter;stroke:rgb(1.176471%,48.235294%,61.176471%);stroke-opacity:1;stroke-miterlimit:4;" d="M 86.125 31.25 L 425.875 31.25 C 456.208333 31.25 480.75 55.791667 480.75 86.125 L 480.75 425.875 C 480.75 456.208333 456.208333 480.75 425.875 480.75 L 86.125 480.75 C 55.791667 480.75 31.25 456.208333 31.25 425.875 L 31.25 86.125 C 31.25 55.791667 55.791667 31.25 86.125 31.25 Z M 86.125 31.25 " transform="matrix(0.09375,0,0,0.09375,0,0)"/>
<path style=" stroke:none;fill-rule:nonzero;fill:rgb(100%,100%,100%);fill-opacity:1;" d="M 14.941406 10.953125 L 8.378906 17.796875 L 22.347656 17.796875 L 22.347656 10.953125 Z M 25.652344 10.953125 L 25.652344 17.796875 L 39.621094 17.796875 L 33.058594 10.953125 Z M 7.492188 19.652344 L 7.492188 37.046875 L 40.507812 37.046875 L 40.507812 19.652344 Z M 7.492188 19.652344 "/>
</g>
</svg>
