
<svg xmlns="http://www.w3.org/2000/svg" xmlns:xlink="http://www.w3.org/1999/xlink" width="48px" height="48px" viewBox="0 0 48 48" version="1.1">
<g id="surface1">
<path style="fill-rule:nonzero;fill:rgb(100%,100%,100%);fill-opacity:1;stroke-width:23.5;stroke-linecap:butt;stroke-linejoin:miter;stroke:rgb(0%,0%,0%);stroke-opacity:1;stroke-miterlimit:4;" d="M 87.125 23.875 L 427.041667 23.875 C 460.791667 23.875 488.125 51.208333 488.125 84.958333 L 488.125 431.375 C 488.125 465.125 460.791667 492.458333 427.041667 492.458333 L 87.125 492.458333 C 53.375 492.458333 26.041667 465.125 26.041667 431.375 L 26.041667 84.958333 C 26.041667 51.208333 53.375 23.875 87.125 23.875 Z M 87.125 23.875 " transform="matrix(0.09375,0,0,0.09375,0,0)"/>
<path style=" stroke:none;fill-rule:nonzero;fill:rgb(20.784314%,30.588235%,34.901961%);fill-opacity:1;" d="M 9.132812 26.78125 L 39.050781 26.78125 C 40.714844 26.78125 42.066406 27.917969 42.066406 29.320312 L 42.066406 36.1875 C 42.066406 37.589844 40.714844 38.726562 39.050781 38.726562 L 9.132812 38.726562 C 7.464844 38.726562 6.117188 37.589844 6.117188 36.1875 L 6.117188 29.320312 C 6.117188 27.917969 7.464844 26.78125 9.132812 26.78125 Z M 9.132812 26.78125 "/>
<path style="fill-rule:nonzero;fill:rgb(60.784314%,81.568627%,94.117647%);fill-opacity:1;stroke-width:0.75;stroke-linecap:butt;stroke-linejoin:miter;stroke:rgb(0%,0%,0%);stroke-opacity:1;stroke-miterlimit:4;" d="M -26.233066 -1131.642354 L 35.311076 -1082.674359 L 88.957154 -1099.50331 L 102.809143 -1163.173854 L 11.495376 -1150.901478 Z M -26.233066 -1131.642354 " transform="matrix(0.0642958,0,0,0.0642958,18.381989,90.591907)"/>
<path style="fill-rule:nonzero;fill:rgb(60.784314%,81.568627%,94.117647%);fill-opacity:1;stroke-width:0.75;stroke-linecap:butt;stroke-linejoin:miter;stroke:rgb(0%,0%,0%);stroke-opacity:1;stroke-miterlimit:4;" d="M 35.311076 -1082.674359 L 35.311076 -1043.548567 L -19.975369 -1011.652541 L -49.076696 -1127.146533 L -16.087092 -1123.31901 Z M 35.311076 -1082.674359 " transform="matrix(0.0642958,0,0,0.0642958,18.381989,90.591907)"/>
<path style="fill-rule:nonzero;fill:rgb(60.784314%,81.568627%,94.117647%);fill-opacity:1;stroke-width:0.75;stroke-linecap:butt;stroke-linejoin:miter;stroke:rgb(0%,0%,0%);stroke-opacity:1;stroke-miterlimit:4;" d="M 35.311076 -1043.548567 L 107.790998 -1024.107179 L 105.057053 -961.469459 L -28.359468 -956.85213 L -41.42165 -994.459064 L -32.186991 -1005.941633 Z M 35.311076 -1043.548567 " transform="matrix(0.0642958,0,0,0.0642958,18.381989,90.591907)"/>
<path style=" stroke:none;fill-rule:nonzero;fill:rgb(16.862745%,60.392157%,85.098039%);fill-opacity:1;" d="M 27.589844 5.363281 L 14.476562 13.175781 L 14.476562 30.890625 L 27.589844 36.332031 Z M 23.542969 16.871094 L 23.542969 26.359375 L 18.519531 24.691406 L 18.519531 19.265625 Z M 23.542969 16.871094 "/>
<path style="fill-rule:nonzero;fill:rgb(60.784314%,81.568627%,94.117647%);fill-opacity:1;stroke-width:0.75;stroke-linecap:butt;stroke-linejoin:miter;stroke:rgb(0%,0%,0%);stroke-opacity:1;stroke-miterlimit:4;" d="M 143.575302 -1325.38793 L 212.956753 -1251.632166 L 212.956753 -874.104725 L 143.575302 -843.727557 Z M 143.575302 -1325.38793 " transform="matrix(0.0642958,0,0,0.0642958,18.381989,90.591907)"/>
</g>
</svg>
