
<svg xmlns="http://www.w3.org/2000/svg" xmlns:xlink="http://www.w3.org/1999/xlink" width="48px" height="48px" viewBox="0 0 48 48" version="1.1">
<g id="surface1">
<path style="fill-rule:nonzero;fill:rgb(74.117647%,76.078431%,78.039216%);fill-opacity:1;stroke-width:27.27438;stroke-linecap:butt;stroke-linejoin:miter;stroke:rgb(48.627451%,53.333333%,57.647059%);stroke-opacity:1;stroke-miterlimit:4;" d="M -506.937837 0.288137 L -165.604503 0.288137 C -135.14617 0.288137 -110.479503 24.454804 -110.479503 54.24647 L -110.479503 388.329804 C -110.479503 418.12147 -135.14617 442.288137 -165.604503 442.288137 L -506.937837 442.288137 C -537.39617 442.288137 -562.062837 418.12147 -562.062837 388.329804 L -562.062837 54.24647 C -562.062837 24.454804 -537.39617 0.288137 -506.937837 0.288137 Z M -506.937837 0.288137 " transform="matrix(0.09375,0,0,0.09375,55.525422,3.254237)"/>
<path style=" stroke:none;fill-rule:nonzero;fill:rgb(29.803922%,29.803922%,29.803922%);fill-opacity:1;" d="M 19.914062 15.832031 C 26.683594 15.832031 32.167969 21.316406 32.167969 28.085938 C 32.167969 34.851562 26.683594 40.339844 19.914062 40.339844 C 13.148438 40.339844 7.660156 34.851562 7.660156 28.085938 C 7.660156 21.316406 13.148438 15.832031 19.914062 15.832031 Z M 19.914062 15.832031 "/>
<path style=" stroke:none;fill-rule:nonzero;fill:rgb(29.803922%,29.803922%,29.803922%);fill-opacity:1;" d="M 27.515625 7.660156 C 24.261719 9.820312 22.320312 11.777344 21.578125 14.304688 C 26.855469 14.929688 31.195312 18.488281 32.953125 23.320312 C 37.558594 20.976562 40.339844 13.367188 40.339844 13.367188 C 40.339844 13.367188 34.207031 11.675781 29.050781 13.816406 C 29.441406 11.433594 27.515625 7.660156 27.515625 7.660156 Z M 27.515625 7.660156 "/>
</g>
</svg>
