
<svg xmlns="http://www.w3.org/2000/svg" xmlns:xlink="http://www.w3.org/1999/xlink" width="48px" height="48px" viewBox="0 0 48 48" version="1.1">
<g id="surface1">
<path style="fill-rule:nonzero;fill:rgb(40%,40%,40%);fill-opacity:1;stroke-width:1.199;stroke-linecap:butt;stroke-linejoin:miter;stroke:rgb(0%,0%,0%);stroke-opacity:1;stroke-miterlimit:4;" d="M 68.375 11.916667 L 443.625 11.916667 C 474.791667 11.916667 500.083333 37.208333 500.083333 68.375 L 500.083333 443.625 C 500.083333 474.791667 474.791667 500.083333 443.625 500.083333 L 68.375 500.083333 C 37.208333 500.083333 11.916667 474.791667 11.916667 443.625 L 11.916667 68.375 C 11.916667 37.208333 37.208333 11.916667 68.375 11.916667 Z M 68.375 11.916667 " transform="matrix(0.09375,0,0,0.09375,0,0)"/>
<path style="fill-rule:nonzero;fill:rgb(20%,20%,20%);fill-opacity:1;stroke-width:1.175939;stroke-linecap:butt;stroke-linejoin:miter;stroke:rgb(0%,0%,0%);stroke-opacity:1;stroke-miterlimit:4;" d="M 56.458333 35.333333 L 455.541667 35.333333 C 467.208333 35.333333 476.666667 44.791667 476.666667 56.458333 L 476.666667 455.541667 C 476.666667 467.208333 467.208333 476.666667 455.541667 476.666667 L 56.458333 476.666667 C 44.791667 476.666667 35.333333 467.208333 35.333333 455.541667 L 35.333333 56.458333 C 35.333333 44.791667 44.791667 35.333333 56.458333 35.333333 Z M 56.458333 35.333333 " transform="matrix(0.09375,0,0,0.09375,0,0)"/>
<path style=" stroke:none;fill-rule:nonzero;fill:rgb(100%,100%,100%);fill-opacity:1;" d="M 7.570312 6.277344 L 7.570312 8.601562 C 7.585938 8.613281 7.601562 8.621094 7.621094 8.632812 L 11.644531 11.257812 C 11.832031 11.378906 11.832031 11.574219 11.644531 11.695312 L 7.621094 14.320312 C 7.601562 14.332031 7.585938 14.339844 7.570312 14.347656 L 7.570312 16.671875 C 7.683594 16.648438 7.789062 16.605469 7.882812 16.542969 L 14.5625 12.1875 L 14.5625 10.828125 C 14.5625 10.808594 14.5625 10.789062 14.5625 10.765625 L 7.882812 6.410156 C 7.789062 6.347656 7.683594 6.304688 7.570312 6.277344 Z M 7.570312 6.277344 "/>
<path style=" stroke:none;fill-rule:nonzero;fill:rgb(100%,100%,100%);fill-opacity:1;" d="M 11.011719 17.328125 L 18.636719 17.328125 L 18.636719 19.484375 L 11.011719 19.484375 Z M 11.011719 17.328125 "/>
<path style=" stroke:none;fill-rule:nonzero;fill:rgb(100%,100%,100%);fill-opacity:1;" d="M 25.078125 6.382812 L 25.078125 41.617188 L 22.921875 41.617188 L 22.921875 6.382812 Z M 25.078125 6.382812 "/>
<path style=" stroke:none;fill-rule:nonzero;fill:rgb(100%,100%,100%);fill-opacity:1;" d="M 30.476562 6.277344 L 30.476562 8.601562 C 30.496094 8.613281 30.511719 8.621094 30.527344 8.632812 L 34.550781 11.257812 C 34.738281 11.378906 34.738281 11.574219 34.550781 11.695312 L 30.527344 14.320312 C 30.511719 14.332031 30.496094 14.339844 30.476562 14.347656 L 30.476562 16.671875 C 30.589844 16.648438 30.699219 16.605469 30.789062 16.542969 L 37.46875 12.1875 L 37.46875 10.828125 C 37.46875 10.808594 37.46875 10.789062 37.472656 10.765625 L 30.789062 6.410156 C 30.699219 6.347656 30.589844 6.304688 30.476562 6.277344 Z M 30.476562 6.277344 "/>
<path style=" stroke:none;fill-rule:nonzero;fill:rgb(100%,100%,100%);fill-opacity:1;" d="M 33.917969 17.328125 L 41.542969 17.328125 L 41.542969 19.484375 L 33.917969 19.484375 Z M 33.917969 17.328125 "/>
</g>
</svg>
