
<svg xmlns="http://www.w3.org/2000/svg" xmlns:xlink="http://www.w3.org/1999/xlink" width="48px" height="48px" viewBox="0 0 48 48" version="1.1">
<g id="surface1">
<path style="fill-rule:nonzero;fill:rgb(20%,20%,20%);fill-opacity:1;stroke-width:28.191782;stroke-linecap:butt;stroke-linejoin:miter;stroke:rgb(29.019608%,68.235294%,90.196078%);stroke-opacity:1;stroke-miterlimit:4;" d="M 81.5 25.083333 L 430.5 25.083333 C 461.666667 25.083333 486.916667 50.333333 486.916667 81.5 L 486.916667 430.5 C 486.916667 461.666667 461.666667 486.916667 430.5 486.916667 L 81.5 486.916667 C 50.333333 486.916667 25.083333 461.666667 25.083333 430.5 L 25.083333 81.5 C 25.083333 50.333333 50.333333 25.083333 81.5 25.083333 Z M 81.5 25.083333 " transform="matrix(0.09375,0,0,0.09375,0,0)"/>
<path style=" stroke:none;fill-rule:nonzero;fill:rgb(100%,100%,100%);fill-opacity:1;" d="M 36.925781 24 C 36.925781 16.863281 31.136719 11.082031 24 11.082031 C 16.859375 11.082031 11.074219 16.863281 11.074219 24 C 11.074219 31.132812 16.859375 36.917969 24 36.917969 C 31.136719 36.917969 36.925781 31.132812 36.925781 24 Z M 36.925781 24 "/>
<path style=" stroke:none;fill-rule:nonzero;fill:rgb(20%,20%,20%);fill-opacity:1;" d="M 22.613281 38.910156 C 20.523438 38.726562 18.230469 37.980469 16.390625 36.890625 C 12.359375 34.5 9.75 30.53125 9.136719 25.847656 C 8.929688 24.265625 9.035156 22.167969 9.398438 20.625 C 9.785156 19 10.589844 17.105469 11.445312 15.808594 C 13.957031 12 17.996094 9.550781 22.542969 9.082031 C 23.558594 8.976562 25.441406 9.039062 26.449219 9.214844 C 32.03125 10.167969 36.5 14.011719 38.269531 19.378906 C 38.746094 20.832031 38.96875 22.296875 38.96875 24.003906 C 38.96875 25.816406 38.714844 27.316406 38.125 29.015625 C 37.640625 30.410156 36.597656 32.277344 35.671875 33.410156 C 32.46875 37.316406 27.636719 39.351562 22.613281 38.910156 Z M 25.828125 33.214844 C 26.769531 33.023438 27.371094 32.816406 28.226562 32.386719 C 29.785156 31.613281 31.132812 30.371094 32.0625 28.855469 C 33.070312 27.207031 33.5625 25.082031 33.375 23.183594 C 33.140625 20.8125 32.191406 18.839844 30.515625 17.222656 C 29.1875 15.945312 27.59375 15.113281 25.78125 14.746094 C 24.960938 14.582031 22.996094 14.582031 22.21875 14.746094 C 20.296875 15.15625 18.691406 16.015625 17.367188 17.347656 C 15.753906 18.960938 14.8125 20.980469 14.628906 23.214844 L 14.578125 23.804688 L 13.757812 23.839844 C 13.023438 23.867188 12.9375 23.882812 12.917969 23.996094 C 12.882812 24.160156 15.5625 26.855469 15.761719 26.855469 C 15.929688 26.855469 18.707031 24.085938 18.664062 23.957031 C 18.640625 23.894531 18.410156 23.867188 17.707031 23.851562 L 16.777344 23.835938 L 16.777344 23.617188 C 16.777344 22.929688 17.160156 21.492188 17.546875 20.726562 C 18.269531 19.292969 19.710938 17.945312 21.164062 17.34375 C 22.140625 16.933594 22.800781 16.804688 23.925781 16.800781 C 25 16.792969 25.359375 16.84375 26.253906 17.132812 C 27.363281 17.488281 28.246094 18.039062 29.109375 18.914062 C 30.539062 20.359375 31.207031 21.980469 31.207031 24 C 31.207031 25.269531 30.972656 26.242188 30.410156 27.328125 C 29.679688 28.726562 28.566406 29.800781 27.136719 30.488281 C 24.359375 31.816406 21.1875 31.300781 18.945312 29.15625 C 18.714844 28.9375 18.503906 28.753906 18.476562 28.753906 C 18.445312 28.753906 18.097656 29.042969 17.699219 29.394531 C 17.246094 29.792969 16.972656 30.078125 16.972656 30.15625 C 16.972656 30.4375 18.410156 31.640625 19.433594 32.214844 C 20.375 32.746094 21.769531 33.203125 22.867188 33.339844 C 23.628906 33.433594 25.035156 33.375 25.828125 33.214844 Z M 25.828125 33.214844 "/>
</g>
</svg>
