<!-- color: #d6e4eb -->
<svg xmlns="http://www.w3.org/2000/svg" xmlns:xlink="http://www.w3.org/1999/xlink" width="48px" height="48px" viewBox="0 0 48 48" version="1.1">
<defs>
<clipPath id="clip1">
  <path d="M 10.121094 11.804688 L 26 11.804688 L 26 23.128906 L 10.121094 23.128906 Z M 10.121094 11.804688 "/>
</clipPath>
<clipPath id="clip2">
  <path d="M 7.335938 5.050781 L 28.785156 5.050781 C 30.03125 5.050781 31.042969 6.0625 31.042969 7.308594 L 31.042969 28.757812 C 31.042969 30.003906 30.03125 31.015625 28.785156 31.015625 L 7.335938 31.015625 C 6.089844 31.015625 5.078125 30.003906 5.078125 28.757812 L 5.078125 7.308594 C 5.078125 6.0625 6.089844 5.050781 7.335938 5.050781 Z M 7.335938 5.050781 "/>
</clipPath>
</defs>
<g id="surface1">
<path style="fill-rule:nonzero;fill:rgb(92.156863%,92.156863%,92.156863%);fill-opacity:1;stroke-width:28.032269;stroke-linecap:butt;stroke-linejoin:miter;stroke:rgb(90.980392%,13.72549%,13.72549%);stroke-opacity:1;stroke-miterlimit:4;" d="M 82.458333 26.416667 L 429.541667 26.416667 C 460.5 26.416667 485.583333 51.5 485.583333 82.458333 L 485.583333 429.541667 C 485.583333 460.5 460.5 485.583333 429.541667 485.583333 L 82.458333 485.583333 C 51.5 485.583333 26.416667 460.5 26.416667 429.541667 L 26.416667 82.458333 C 26.416667 51.5 51.5 26.416667 82.458333 26.416667 Z M 82.458333 26.416667 " transform="matrix(0.09375,0,0,0.09375,0,0)"/>
<g clip-path="url(#clip1)" clip-rule="nonzero">
<g clip-path="url(#clip2)" clip-rule="nonzero">
<path style=" stroke:none;fill-rule:nonzero;fill:rgb(90.980392%,13.72549%,13.72549%);fill-opacity:1;" d="M 25.964844 13.328125 C 24.027344 15.050781 18.238281 21.542969 17.257812 21.542969 C 16.613281 21.542969 16.070312 21.09375 15.890625 20.402344 C 15.785156 19.980469 15.945312 20.515625 10.15625 23.113281 C 10.738281 22.742188 14.796875 19.625 15.324219 19.242188 C 15.851562 18.867188 18.457031 17.039062 19.21875 16.457031 C 20.613281 15.371094 21.152344 14.496094 21.152344 13.304688 C 21.152344 12.378906 20.585938 11.820312 19.683594 11.820312 C 19.121094 11.820312 18.703125 11.953125 18.109375 12.296875 C 17.128906 12.882812 16.253906 13.597656 15.710938 14.230469 C 14.730469 15.453125 13.855469 18.363281 13.855469 20.507812 C 13.855469 22.074219 14.65625 23.050781 15.96875 23.050781 C 17.488281 23.050781 22.839844 17.84375 24.878906 15.75 L 25.964844 13.324219 M 15.839844 17.96875 C 16.277344 15.136719 17.464844 12.933594 18.574219 12.933594 C 19.011719 12.933594 19.296875 13.386719 19.296875 14.023438 C 19.296875 15.347656 18.601562 16.140625 15.839844 17.96875 "/>
</g>
</g>
<path style=" stroke:none;fill-rule:nonzero;fill:rgb(60%,60%,60%);fill-opacity:1;" d="M 30.4375 27.207031 L 28.84375 27.207031 L 28.28125 26.660156 C 30.257812 24.363281 31.445312 21.378906 31.445312 18.132812 C 31.445312 10.890625 25.578125 5.023438 18.339844 5.023438 C 11.101562 5.023438 5.230469 10.890625 5.230469 18.132812 C 5.230469 25.371094 11.101562 31.238281 18.339844 31.238281 C 21.585938 31.238281 24.570312 30.050781 26.867188 28.074219 L 27.414062 28.636719 L 27.414062 30.230469 L 37.496094 40.292969 L 40.5 37.289062 Z M 18.339844 27.207031 C 13.316406 27.207031 9.265625 23.152344 9.265625 18.132812 C 9.265625 13.109375 13.316406 9.058594 18.339844 9.058594 C 23.359375 9.058594 27.414062 13.109375 27.414062 18.132812 C 27.414062 23.152344 23.359375 27.207031 18.339844 27.207031 Z M 18.339844 27.207031 "/>
</g>
</svg>
