
<svg xmlns="http://www.w3.org/2000/svg" xmlns:xlink="http://www.w3.org/1999/xlink" width="48px" height="48px" viewBox="0 0 48 48" version="1.1">
<g id="surface1">
<path style="fill-rule:nonzero;fill:rgb(100%,33.333333%,33.333333%);fill-opacity:1;stroke-width:28.191782;stroke-linecap:butt;stroke-linejoin:miter;stroke:rgb(60%,61.176471%,65.098039%);stroke-opacity:1;stroke-miterlimit:4;" d="M 81.5 25.083333 L 430.5 25.083333 C 461.666667 25.083333 486.916667 50.333333 486.916667 81.5 L 486.916667 430.5 C 486.916667 461.666667 461.666667 486.916667 430.5 486.916667 L 81.5 486.916667 C 50.333333 486.916667 25.083333 461.666667 25.083333 430.5 L 25.083333 81.5 C 25.083333 50.333333 50.333333 25.083333 81.5 25.083333 Z M 81.5 25.083333 " transform="matrix(0.09375,0,0,0.09375,0,0)"/>
<path style=" stroke:none;fill-rule:nonzero;fill:rgb(100%,100%,100%);fill-opacity:1;" d="M 8.398438 3.359375 C 5.617188 3.359375 3.359375 5.617188 3.359375 8.398438 L 3.359375 39.601562 C 3.359375 42.382812 5.617188 44.640625 8.398438 44.640625 L 39.601562 44.640625 C 42.382812 44.640625 44.640625 42.382812 44.640625 39.601562 L 44.640625 8.398438 C 44.640625 5.617188 42.382812 3.359375 39.601562 3.359375 Z M 11.882812 10.402344 L 28.136719 10.402344 L 28.136719 13.625 L 15.707031 13.625 L 15.707031 21.957031 L 26.921875 21.957031 L 26.921875 25.179688 L 15.707031 25.179688 L 15.707031 38.6875 L 11.882812 38.6875 Z M 11.882812 10.402344 "/>
<path style=" stroke:none;fill-rule:nonzero;fill:rgb(15.686275%,49.019608%,100%);fill-opacity:1;" d="M 30.015625 44.414062 C 29.828125 44.328125 29.625 44.113281 29.535156 43.898438 C 29.492188 43.785156 29.445312 43.359375 29.40625 42.679688 C 29.371094 42.101562 29.328125 41.585938 29.308594 41.527344 C 29.28125 41.453125 29.148438 41.382812 28.816406 41.269531 C 28.570312 41.183594 28.195312 41.027344 27.988281 40.921875 C 27.777344 40.816406 27.5625 40.730469 27.507812 40.730469 C 27.441406 40.730469 27.101562 41.007812 26.617188 41.453125 C 26.179688 41.851562 25.753906 42.214844 25.671875 42.257812 C 25.492188 42.347656 25.097656 42.363281 24.890625 42.285156 C 24.726562 42.226562 23.003906 40.527344 22.890625 40.316406 C 22.78125 40.109375 22.792969 39.722656 22.917969 39.488281 C 22.972656 39.378906 23.335938 38.945312 23.726562 38.523438 C 24.148438 38.066406 24.4375 37.714844 24.4375 37.65625 C 24.4375 37.605469 24.351562 37.390625 24.246094 37.179688 C 24.140625 36.972656 23.984375 36.597656 23.898438 36.351562 C 23.8125 36.105469 23.707031 35.882812 23.664062 35.859375 C 23.621094 35.839844 23.113281 35.792969 22.535156 35.761719 C 21.867188 35.726562 21.414062 35.679688 21.285156 35.632812 C 21.035156 35.542969 20.75 35.238281 20.710938 35.019531 C 20.691406 34.929688 20.6875 34.273438 20.695312 33.558594 L 20.710938 32.257812 L 20.859375 32.070312 C 21.121094 31.742188 21.246094 31.707031 22.507812 31.628906 C 23.21875 31.585938 23.652344 31.539062 23.691406 31.503906 C 23.722656 31.472656 23.828125 31.226562 23.925781 30.957031 C 24.027344 30.691406 24.183594 30.324219 24.273438 30.144531 C 24.363281 29.964844 24.4375 29.777344 24.4375 29.726562 C 24.4375 29.679688 24.136719 29.3125 23.773438 28.914062 C 23.410156 28.511719 23.058594 28.117188 23 28.035156 C 22.824219 27.808594 22.765625 27.523438 22.835938 27.246094 C 22.886719 27.035156 22.980469 26.921875 23.773438 26.117188 C 24.257812 25.625 24.738281 25.183594 24.835938 25.128906 C 25.066406 25.011719 25.433594 25.011719 25.664062 25.125 C 25.761719 25.175781 26.183594 25.53125 26.605469 25.917969 C 27.027344 26.304688 27.398438 26.636719 27.433594 26.65625 C 27.46875 26.679688 27.695312 26.597656 27.972656 26.46875 C 28.234375 26.34375 28.625 26.183594 28.84375 26.109375 C 29.136719 26.011719 29.25 25.945312 29.292969 25.859375 C 29.320312 25.796875 29.375 25.273438 29.40625 24.695312 C 29.46875 23.589844 29.507812 23.414062 29.734375 23.175781 C 29.988281 22.910156 30.136719 22.886719 31.558594 22.902344 L 32.851562 22.917969 L 33.054688 23.050781 C 33.402344 23.28125 33.445312 23.425781 33.527344 24.660156 C 33.566406 25.253906 33.609375 25.789062 33.621094 25.847656 C 33.640625 25.925781 33.746094 25.984375 34.09375 26.105469 C 34.339844 26.191406 34.734375 26.359375 34.972656 26.480469 C 35.207031 26.597656 35.417969 26.695312 35.441406 26.695312 C 35.464844 26.695312 35.84375 26.363281 36.285156 25.960938 C 36.722656 25.558594 37.164062 25.183594 37.265625 25.132812 C 37.5 25.007812 37.847656 25.011719 38.105469 25.132812 C 38.230469 25.195312 38.644531 25.570312 39.164062 26.097656 C 40.058594 27 40.128906 27.101562 40.128906 27.511719 C 40.128906 27.800781 40 27.992188 39.230469 28.832031 C 38.816406 29.292969 38.472656 29.6875 38.472656 29.710938 C 38.472656 29.734375 38.582031 29.980469 38.714844 30.257812 C 38.847656 30.535156 39.007812 30.925781 39.066406 31.125 C 39.144531 31.367188 39.210938 31.496094 39.277344 31.523438 C 39.332031 31.546875 39.867188 31.597656 40.472656 31.632812 C 41.675781 31.710938 41.867188 31.757812 42.070312 32.042969 C 42.257812 32.308594 42.28125 32.511719 42.265625 33.816406 L 42.25 35.066406 L 42.101562 35.277344 C 41.839844 35.648438 41.773438 35.667969 40.441406 35.757812 C 39.792969 35.796875 39.246094 35.84375 39.234375 35.859375 C 39.21875 35.871094 39.136719 36.082031 39.054688 36.320312 C 38.96875 36.5625 38.800781 36.953125 38.683594 37.1875 C 38.5625 37.425781 38.472656 37.648438 38.480469 37.683594 C 38.488281 37.71875 38.816406 38.097656 39.203125 38.519531 C 39.59375 38.945312 39.960938 39.386719 40.019531 39.507812 C 40.148438 39.757812 40.160156 40.027344 40.054688 40.28125 C 39.960938 40.503906 38.378906 42.109375 38.121094 42.246094 C 37.90625 42.355469 37.515625 42.367188 37.289062 42.269531 C 37.203125 42.230469 36.769531 41.871094 36.328125 41.464844 C 35.886719 41.0625 35.488281 40.730469 35.445312 40.730469 C 35.402344 40.730469 35.152344 40.828125 34.890625 40.953125 C 34.628906 41.074219 34.242188 41.230469 34.03125 41.300781 C 33.738281 41.398438 33.640625 41.453125 33.621094 41.53125 C 33.609375 41.585938 33.566406 42.121094 33.527344 42.714844 C 33.4375 44.03125 33.386719 44.171875 32.929688 44.402344 C 32.796875 44.46875 32.578125 44.480469 31.46875 44.480469 C 30.488281 44.480469 30.125 44.460938 30.015625 44.414062 Z M 31.941406 38.582031 C 33.121094 38.460938 34.105469 37.992188 34.941406 37.152344 C 35.582031 36.511719 35.992188 35.792969 36.242188 34.890625 C 36.398438 34.324219 36.394531 33.070312 36.238281 32.496094 C 35.765625 30.753906 34.519531 29.472656 32.792969 28.953125 C 32.394531 28.832031 32.285156 28.820312 31.503906 28.816406 C 30.753906 28.816406 30.601562 28.828125 30.238281 28.925781 C 28.421875 29.421875 27.035156 30.878906 26.65625 32.6875 C 26.316406 34.3125 26.8125 35.972656 28 37.164062 C 28.621094 37.789062 29.425781 38.246094 30.300781 38.472656 C 30.550781 38.535156 30.902344 38.585938 31.40625 38.625 C 31.445312 38.628906 31.6875 38.609375 31.941406 38.582031 Z M 30.734375 36.539062 C 29.492188 36.203125 28.621094 35.144531 28.542969 33.878906 C 28.492188 32.992188 28.777344 32.242188 29.40625 31.613281 C 30.550781 30.472656 32.382812 30.460938 33.511719 31.589844 C 34.445312 32.519531 34.667969 33.84375 34.089844 35.003906 C 33.597656 35.992188 32.691406 36.574219 31.578125 36.617188 C 31.199219 36.632812 31.011719 36.617188 30.734375 36.539062 Z M 32.125 35.3125 C 32.46875 35.183594 32.875 34.804688 33.046875 34.453125 C 33.171875 34.203125 33.183594 34.121094 33.183594 33.6875 C 33.183594 33.226562 33.175781 33.183594 33.019531 32.890625 C 32.699219 32.300781 32.222656 32.003906 31.550781 31.96875 C 31.011719 31.941406 30.691406 32.054688 30.300781 32.410156 C 29.808594 32.863281 29.613281 33.488281 29.769531 34.105469 C 29.90625 34.640625 30.199219 35.003906 30.6875 35.253906 C 31.144531 35.484375 31.613281 35.503906 32.125 35.3125 Z M 32.125 35.3125 "/>
</g>
</svg>
