
<svg xmlns="http://www.w3.org/2000/svg" xmlns:xlink="http://www.w3.org/1999/xlink" width="48px" height="48px" viewBox="0 0 48 48" version="1.1">
<g id="surface1">
<path style="fill-rule:nonzero;fill:rgb(41.960784%,61.176471%,67.058824%);fill-opacity:1;stroke-width:28.191782;stroke-linecap:butt;stroke-linejoin:miter;stroke:rgb(9.803922%,9.803922%,9.803922%);stroke-opacity:1;stroke-miterlimit:4;" d="M -659.23263 -125.908887 L -310.23263 -125.908887 C -279.065963 -125.908887 -253.815963 -100.658887 -253.815963 -69.49222 L -253.815963 279.50778 C -253.815963 310.674447 -279.065963 335.924447 -310.23263 335.924447 L -659.23263 335.924447 C -690.399297 335.924447 -715.649297 310.674447 -715.649297 279.50778 L -715.649297 -69.49222 C -715.649297 -100.658887 -690.399297 -125.908887 -659.23263 -125.908887 Z M -659.23263 -125.908887 " transform="matrix(0.09375,0,0,0.09375,69.443684,14.155521)"/>
<path style="fill-rule:nonzero;fill:rgb(100%,33.333333%,33.333333%);fill-opacity:1;stroke-width:28.191753;stroke-linecap:butt;stroke-linejoin:miter;stroke:rgb(9.803922%,9.803922%,9.803922%);stroke-opacity:1;stroke-miterlimit:4;" d="M -659.23263 -125.908887 C -690.399297 -125.908887 -715.649297 -100.658887 -715.649297 -69.49222 L -715.649297 105.00778 L -484.73263 105.00778 L -484.73263 -125.908887 Z M -484.73263 105.00778 L -484.73263 335.924447 L -310.23263 335.924447 C -279.065963 335.924447 -253.815963 310.674447 -253.815963 279.50778 L -253.815963 105.00778 Z M -484.73263 105.00778 " transform="matrix(0.09375,0,0,0.09375,69.443684,14.155521)"/>
</g>
</svg>
