
<svg xmlns="http://www.w3.org/2000/svg" xmlns:xlink="http://www.w3.org/1999/xlink" width="48px" height="48px" viewBox="0 0 48 48" version="1.1">
<g id="surface1">
<path style="fill-rule:nonzero;fill:rgb(100%,100%,100%);fill-opacity:1;stroke-width:26.401737;stroke-linecap:butt;stroke-linejoin:miter;stroke:rgb(18.823529%,27.843137%,32.941176%);stroke-opacity:1;stroke-miterlimit:4;" d="M -48.475273 -16.65678 L 278.399727 -16.65678 C 307.566393 -16.65678 331.23306 7.009887 331.23306 36.134887 L 331.23306 363.009887 C 331.23306 392.176553 307.566393 415.84322 278.399727 415.84322 L -48.475273 415.84322 C -77.600273 415.84322 -101.26694 392.176553 -101.26694 363.009887 L -101.26694 36.134887 C -101.26694 7.009887 -77.600273 -16.65678 -48.475273 -16.65678 Z M -48.475273 -16.65678 " transform="matrix(0.09375,0,0,0.09375,13.220338,5.288136)"/>
<path style=" stroke:none;fill-rule:nonzero;fill:rgb(100%,78.039216%,18.823529%);fill-opacity:1;" d="M 8.675781 3.726562 C 8.285156 3.726562 7.90625 3.773438 7.539062 3.859375 L 17.191406 20.066406 L 17.1875 20.0625 C 16.742188 20.984375 16.339844 21.914062 16.21875 22.890625 C 16.066406 24.082031 16.164062 25.273438 16.472656 26.421875 C 16.777344 27.5625 17.308594 28.679688 18.035156 29.644531 C 18.761719 30.605469 19.699219 31.417969 20.804688 32.058594 C 22.066406 32.789062 23.421875 33.199219 24.785156 33.289062 C 26.148438 33.375 27.414062 32.492188 28.679688 32.003906 L 21.871094 44.273438 L 39.320312 44.273438 C 42.054688 44.273438 44.273438 42.054688 44.273438 39.324219 L 44.273438 8.675781 C 44.273438 5.945312 42.054688 3.726562 39.320312 3.726562 Z M 8.675781 3.726562 "/>
<path style=" stroke:none;fill-rule:nonzero;fill:rgb(83.137255%,9.803922%,9.803922%);fill-opacity:1;" d="M 8.675781 3.726562 C 5.945312 3.726562 3.726562 5.945312 3.726562 8.675781 L 3.726562 39.324219 C 3.726562 42.054688 5.945312 44.273438 8.675781 44.273438 L 17.285156 44.273438 L 23.667969 33.164062 L 23.667969 33.207031 C 24.6875 33.125 25.695312 33.011719 26.597656 32.632812 C 27.707031 32.152344 28.691406 31.472656 29.527344 30.632812 C 30.367188 29.777344 31.070312 28.757812 31.539062 27.648438 C 32.007812 26.558594 32.242188 25.324219 32.242188 24.042969 C 32.242188 22.585938 31.925781 21.210938 31.320312 19.988281 C 30.714844 18.746094 29.75 17.640625 28.691406 16.792969 L 44.273438 16.792969 L 44.273438 8.675781 C 44.273438 5.945312 42.054688 3.726562 39.324219 3.726562 Z M 8.675781 3.726562 "/>
<path style=" stroke:none;fill-rule:nonzero;fill:rgb(4.705882%,63.137255%,36.862745%);fill-opacity:1;" d="M 4.949219 5.425781 C 4.1875 6.296875 3.726562 7.433594 3.726562 8.675781 L 3.726562 39.324219 C 3.726562 42.054688 5.945312 44.273438 8.675781 44.273438 L 21.871094 44.273438 L 28.910156 31.863281 C 27.644531 32.355469 26.300781 32.980469 24.785156 33.289062 C 23.421875 33.199219 22.066406 32.789062 20.804688 32.058594 C 19.699219 31.417969 18.761719 30.605469 18.035156 29.644531 C 17.308594 28.679688 16.777344 27.5625 16.472656 26.421875 C 16.164062 25.273438 16.066406 24.082031 16.21875 22.890625 C 16.339844 21.914062 16.742188 20.984375 17.1875 20.0625 L 17.191406 20.066406 L 16.355469 18.660156 C 16.335938 18.6875 16.316406 18.714844 16.300781 18.742188 C 15.542969 19.875 15.0625 21.167969 14.851562 22.507812 Z M 4.949219 5.425781 "/>
<path style=" stroke:none;fill-rule:nonzero;fill:rgb(97.254902%,97.254902%,97.254902%);fill-opacity:1;" d="M 33.269531 24 C 33.269531 29.121094 29.117188 33.269531 24 33.269531 C 18.882812 33.269531 14.730469 29.117188 14.730469 24 C 14.730469 18.882812 18.882812 14.730469 24 14.730469 C 29.121094 14.730469 33.269531 18.882812 33.269531 24 M 33.269531 24 "/>
<path style=" stroke:none;fill-rule:nonzero;fill:rgb(22.745098%,49.019608%,89.019608%);fill-opacity:1;" d="M 31.207031 24 C 31.207031 27.980469 27.980469 31.207031 24 31.207031 C 20.019531 31.207031 16.792969 27.980469 16.792969 24 C 16.792969 20.019531 20.019531 16.792969 24 16.792969 C 27.980469 16.792969 31.207031 20.019531 31.207031 24 M 31.207031 24 "/>
</g>
</svg>
