
<svg xmlns="http://www.w3.org/2000/svg" xmlns:xlink="http://www.w3.org/1999/xlink" width="48px" height="48px" viewBox="0 0 48 48" version="1.1">
<g id="surface1">
<path style="fill-rule:nonzero;fill:rgb(100%,100%,100%);fill-opacity:1;stroke-width:26.401737;stroke-linecap:butt;stroke-linejoin:miter;stroke:rgb(18.823529%,27.843137%,32.941176%);stroke-opacity:1;stroke-miterlimit:4;" d="M -48.442 -16.642163 L 278.433 -16.642163 C 307.599667 -16.642163 331.224667 6.982837 331.224667 36.149503 L 331.224667 363.024503 C 331.224667 392.19117 307.599667 415.81617 278.433 415.81617 L -48.442 415.81617 C -77.608667 415.81617 -101.275333 392.19117 -101.275333 363.024503 L -101.275333 36.149503 C -101.275333 6.982837 -77.608667 -16.642163 -48.442 -16.642163 Z M -48.442 -16.642163 " transform="matrix(0.09375,0,0,0.09375,13.529719,5.525047)"/>
<path style=" stroke:none;fill-rule:nonzero;fill:rgb(100%,78.039216%,18.823529%);fill-opacity:1;" d="M 8.988281 3.964844 C 8.59375 3.964844 8.214844 4.011719 7.847656 4.097656 L 17.5 20.304688 L 17.496094 20.296875 C 17.050781 21.222656 16.648438 22.152344 16.527344 23.125 C 16.378906 24.320312 16.476562 25.511719 16.78125 26.65625 C 17.085938 27.800781 17.617188 28.917969 18.34375 29.878906 C 19.070312 30.84375 20.007812 31.65625 21.113281 32.292969 C 22.375 33.027344 23.734375 33.4375 25.097656 33.523438 C 26.460938 33.613281 27.726562 32.730469 28.988281 32.238281 L 22.179688 44.507812 L 39.632812 44.507812 C 42.367188 44.507812 44.582031 42.292969 44.582031 39.558594 L 44.582031 8.914062 C 44.582031 6.179688 42.367188 3.964844 39.632812 3.964844 Z M 8.988281 3.964844 "/>
<path style=" stroke:none;fill-rule:nonzero;fill:rgb(83.137255%,9.803922%,9.803922%);fill-opacity:1;" d="M 8.988281 3.964844 C 6.253906 3.964844 4.035156 6.179688 4.035156 8.914062 L 4.035156 39.558594 C 4.035156 42.292969 6.253906 44.507812 8.988281 44.507812 L 17.59375 44.507812 L 23.976562 33.402344 L 23.976562 33.445312 C 25 33.359375 26.003906 33.246094 26.910156 32.867188 C 28.015625 32.390625 29 31.710938 29.835938 30.871094 C 30.675781 30.011719 31.378906 28.996094 31.847656 27.886719 C 32.316406 26.796875 32.554688 25.558594 32.554688 24.28125 C 32.554688 22.820312 32.234375 21.449219 31.632812 20.226562 C 31.023438 18.984375 30.058594 17.878906 29 17.027344 L 44.582031 17.027344 L 44.582031 8.914062 C 44.582031 6.179688 42.367188 3.964844 39.632812 3.964844 Z M 8.988281 3.964844 "/>
<path style=" stroke:none;fill-rule:nonzero;fill:rgb(4.705882%,63.137255%,36.862745%);fill-opacity:1;" d="M 5.257812 5.660156 C 4.496094 6.53125 4.035156 7.667969 4.035156 8.914062 L 4.035156 39.558594 C 4.035156 42.292969 6.253906 44.507812 8.988281 44.507812 L 22.179688 44.507812 L 29.21875 32.101562 C 27.953125 32.589844 26.609375 33.21875 25.097656 33.523438 C 23.734375 33.4375 22.375 33.027344 21.113281 32.292969 C 20.007812 31.65625 19.070312 30.84375 18.34375 29.878906 C 17.617188 28.917969 17.085938 27.800781 16.78125 26.65625 C 16.476562 25.511719 16.378906 24.320312 16.527344 23.125 C 16.648438 22.152344 17.050781 21.222656 17.496094 20.296875 L 17.5 20.304688 L 16.664062 18.898438 C 16.644531 18.925781 16.625 18.953125 16.609375 18.980469 C 15.851562 20.113281 15.371094 21.40625 15.160156 22.746094 Z M 5.257812 5.660156 "/>
<path style=" stroke:none;fill-rule:nonzero;fill:rgb(97.254902%,97.254902%,97.254902%);fill-opacity:1;" d="M 33.578125 24.238281 C 33.578125 29.359375 29.425781 33.503906 24.308594 33.503906 C 19.191406 33.503906 15.042969 29.355469 15.042969 24.238281 C 15.042969 19.121094 19.191406 14.96875 24.308594 14.96875 C 29.429688 14.96875 33.578125 19.117188 33.578125 24.238281 M 33.578125 24.238281 "/>
<path style=" stroke:none;fill-rule:nonzero;fill:rgb(22.745098%,49.019608%,89.019608%);fill-opacity:1;" d="M 31.519531 24.238281 C 31.519531 28.21875 28.292969 31.445312 24.308594 31.445312 C 20.328125 31.445312 17.101562 28.21875 17.101562 24.238281 C 17.101562 20.253906 20.328125 17.027344 24.308594 17.027344 C 28.292969 17.027344 31.519531 20.253906 31.519531 24.238281 M 31.519531 24.238281 "/>
<path style=" stroke:none;fill-rule:nonzero;fill:rgb(23.921569%,23.921569%,24.705882%);fill-opacity:1;" d="M 44.019531 43.9375 C 44.074219 43.84375 44.449219 43.332031 44.851562 42.796875 C 45.257812 42.261719 45.585938 41.726562 45.585938 41.609375 C 45.585938 41.410156 45.09375 41.394531 39.625 41.394531 C 36.347656 41.394531 33.636719 41.421875 33.605469 41.457031 C 33.503906 41.554688 20.8125 41.683594 20.390625 41.585938 L 20.003906 41.5 L 20.035156 35.636719 L 20.070312 29.777344 L 34.292969 29.746094 L 48.515625 29.71875 L 48.480469 35.652344 C 48.460938 39.503906 48.402344 41.585938 48.320312 41.582031 C 48.25 41.582031 47.28125 42.148438 46.164062 42.839844 C 44.148438 44.089844 43.824219 44.257812 44.019531 43.9375 Z M 44.019531 43.9375 "/>
<path style=" stroke:none;fill-rule:nonzero;fill:rgb(100%,100%,100%);fill-opacity:1;" d="M 27.519531 38.738281 C 27.761719 38.59375 28.085938 38.28125 28.246094 38.046875 C 28.714844 37.335938 28.582031 36.113281 27.976562 35.601562 C 27.8125 35.464844 27.828125 35.382812 28.109375 34.96875 C 28.675781 34.125 28.355469 33.011719 27.382812 32.433594 C 27.042969 32.234375 26.644531 32.171875 25.433594 32.128906 C 24.066406 32.078125 23.890625 32.097656 23.738281 32.308594 C 23.609375 32.488281 23.570312 33.257812 23.570312 35.605469 C 23.570312 38.304688 23.59375 38.691406 23.785156 38.882812 C 24.109375 39.214844 26.894531 39.105469 27.519531 38.738281 Z M 27.519531 38.738281 "/>
<path style=" stroke:none;fill-rule:nonzero;fill:rgb(23.921569%,23.921569%,24.705882%);fill-opacity:1;" d="M 25.191406 37.707031 C 25.140625 37.652344 25.097656 37.269531 25.097656 36.855469 L 25.097656 36.105469 L 25.769531 36.105469 C 26.628906 36.105469 27.003906 36.355469 27.003906 36.933594 C 27.003906 37.171875 26.921875 37.429688 26.824219 37.515625 C 26.605469 37.699219 25.328125 37.851562 25.191406 37.707031 Z M 25.191406 37.707031 "/>
<path style=" stroke:none;fill-rule:nonzero;fill:rgb(23.921569%,23.921569%,24.705882%);fill-opacity:1;" d="M 25.097656 34.167969 L 25.097656 33.523438 L 25.832031 33.523438 C 26.628906 33.523438 26.878906 33.667969 26.878906 34.121094 C 26.878906 34.605469 26.546875 34.8125 25.785156 34.8125 L 25.097656 34.8125 Z M 25.097656 34.167969 "/>
<path style=" stroke:none;fill-rule:nonzero;fill:rgb(100%,100%,100%);fill-opacity:1;" d="M 33.46875 38.988281 C 33.722656 38.917969 33.757812 38.839844 33.726562 38.378906 L 33.6875 37.84375 L 30.757812 37.71875 L 30.757812 36.167969 L 31.964844 36.132812 C 33.234375 36.09375 33.363281 36.03125 33.367188 35.453125 C 33.367188 34.90625 33.15625 34.8125 31.878906 34.8125 L 30.695312 34.8125 L 30.695312 33.523438 L 31.976562 33.523438 C 33.488281 33.523438 33.75 33.421875 33.75 32.835938 C 33.75 32.140625 33.636719 32.105469 31.4375 32.105469 C 29.554688 32.105469 29.421875 32.121094 29.292969 32.367188 C 29.203125 32.539062 29.167969 33.671875 29.195312 35.726562 C 29.226562 38.308594 29.261719 38.84375 29.421875 38.945312 C 29.632812 39.078125 33 39.117188 33.46875 38.988281 Z M 33.46875 38.988281 "/>
<path style=" stroke:none;fill-rule:nonzero;fill:rgb(100%,100%,100%);fill-opacity:1;" d="M 37.195312 38.9375 C 37.425781 38.8125 37.441406 38.640625 37.441406 36.164062 L 37.441406 33.523438 L 38.109375 33.523438 C 38.476562 33.523438 38.902344 33.488281 39.050781 33.445312 C 39.382812 33.355469 39.523438 32.890625 39.351562 32.4375 L 39.226562 32.105469 L 36.777344 32.109375 C 35.425781 32.109375 34.246094 32.160156 34.152344 32.21875 C 33.976562 32.332031 33.910156 33.210938 34.0625 33.367188 C 34.109375 33.414062 34.542969 33.476562 35.027344 33.503906 L 35.914062 33.554688 L 35.914062 36.175781 C 35.914062 38.539062 35.933594 38.8125 36.136719 38.933594 C 36.425781 39.101562 36.886719 39.105469 37.195312 38.9375 Z M 37.195312 38.9375 "/>
<path style=" stroke:none;fill-rule:nonzero;fill:rgb(100%,100%,100%);fill-opacity:1;" d="M 39.980469 38.945312 C 40.109375 38.875 40.316406 38.527344 40.445312 38.167969 L 40.675781 37.515625 L 41.816406 37.550781 L 42.953125 37.585938 L 43.160156 38.207031 C 43.382812 38.890625 43.574219 39.066406 44.078125 39.070312 C 44.550781 39.070312 44.820312 38.949219 44.820312 38.730469 C 44.820312 38.425781 42.511719 32.304688 42.355469 32.203125 C 42.117188 32.046875 41.414062 32.09375 41.226562 32.285156 C 41.132812 32.382812 40.519531 33.875 39.871094 35.597656 C 38.765625 38.53125 38.703125 38.746094 38.917969 38.902344 C 39.1875 39.101562 39.65625 39.121094 39.980469 38.945312 Z M 39.980469 38.945312 "/>
<path style=" stroke:none;fill-rule:nonzero;fill:rgb(23.921569%,23.921569%,24.705882%);fill-opacity:1;" d="M 41.230469 36.164062 C 41.191406 36.121094 41.269531 35.789062 41.40625 35.421875 C 41.539062 35.050781 41.683594 34.664062 41.71875 34.554688 C 41.777344 34.394531 42.394531 35.820312 42.402344 36.136719 C 42.402344 36.246094 41.335938 36.269531 41.230469 36.164062 Z M 41.230469 36.164062 "/>
</g>
</svg>
