
<svg xmlns="http://www.w3.org/2000/svg" xmlns:xlink="http://www.w3.org/1999/xlink" width="48px" height="48px" viewBox="0 0 48 48" version="1.1">
<g id="surface1">
<path style="fill-rule:nonzero;fill:rgb(100%,100%,100%);fill-opacity:1;stroke-width:27.987738;stroke-linecap:butt;stroke-linejoin:miter;stroke:rgb(60%,60%,60%);stroke-opacity:1;stroke-miterlimit:4;" d="M 82.75 26.75 L 429.25 26.75 C 460.166667 26.75 485.25 51.833333 485.25 82.75 L 485.25 429.25 C 485.25 460.166667 460.166667 485.25 429.25 485.25 L 82.75 485.25 C 51.833333 485.25 26.75 460.166667 26.75 429.25 L 26.75 82.75 C 26.75 51.833333 51.833333 26.75 82.75 26.75 Z M 82.75 26.75 " transform="matrix(0.09375,0,0,0.09375,0,0)"/>
<path style="fill-rule:nonzero;fill:rgb(60%,60%,60%);fill-opacity:1;stroke-width:10.546;stroke-linecap:butt;stroke-linejoin:miter;stroke:rgb(60%,60%,60%);stroke-opacity:1;stroke-miterlimit:10;" d="M 341.333342 89.666669 C 202.333339 89.666669 89.666669 202.333339 89.666669 341.333342 C 89.666669 480.333346 202.333339 593.000016 341.333342 593.000016 C 480.333346 593.000016 593.000016 480.333346 593.000016 341.333342 C 593.000016 202.333339 480.333346 89.666669 341.333342 89.666669 Z M 312.388897 128.333337 L 370.277788 128.333337 L 370.277788 315.222231 L 364.611121 417.111122 L 318.388897 417.111122 L 312.388897 315.222231 Z M 312.388897 481.833346 L 370.277788 481.833346 L 370.277788 554.333348 L 312.388897 554.333348 Z M 312.388897 481.833346 " transform="matrix(0.0703125,0,0,0.0703125,0,0)"/>
</g>
</svg>
