
<svg xmlns="http://www.w3.org/2000/svg" xmlns:xlink="http://www.w3.org/1999/xlink" width="48px" height="48px" viewBox="0 0 48 48" version="1.1">
<g id="surface1">
<path style="fill-rule:nonzero;fill:rgb(12.54902%,43.921569%,56.862745%);fill-opacity:1;stroke-width:27.285545;stroke-linecap:butt;stroke-linejoin:miter;stroke:rgb(16.470588%,49.803922%,100%);stroke-opacity:1;stroke-miterlimit:4;" d="M 63.416667 20.583333 L 448.583333 20.583333 C 469.291667 20.583333 486.083333 37.375 486.083333 58.041667 L 486.083333 453.958333 C 486.083333 474.625 469.291667 491.416667 448.583333 491.416667 L 63.416667 491.416667 C 42.708333 491.416667 25.916667 474.625 25.916667 453.958333 L 25.916667 58.041667 C 25.916667 37.375 42.708333 20.583333 63.416667 20.583333 Z M 63.416667 20.583333 " transform="matrix(0.09375,0,0,0.09375,0,0)"/>
<path style=" stroke:none;fill-rule:nonzero;fill:rgb(100%,100%,100%);fill-opacity:1;" d="M 29.519531 19.859375 C 31.910156 18.242188 32.066406 15.640625 29.871094 14.050781 C 27.675781 12.457031 23.960938 12.476562 21.570312 14.09375 C 19.179688 15.707031 19.019531 18.308594 21.214844 19.902344 C 23.410156 21.492188 27.128906 21.472656 29.519531 19.859375 Z M 29.519531 19.859375 "/>
<path style=" stroke:none;fill-rule:nonzero;fill:rgb(100%,100%,100%);fill-opacity:1;" d="M 22.320312 21.421875 C 23.796875 22.246094 24.128906 23.976562 23.066406 25.289062 L 13.597656 36.980469 C 12.53125 38.292969 10.476562 38.691406 9 37.867188 C 7.523438 37.042969 7.191406 35.3125 8.253906 34 L 17.726562 22.308594 C 18.789062 20.996094 20.847656 20.601562 22.320312 21.421875 Z M 22.320312 21.421875 "/>
<path style=" stroke:none;fill-rule:nonzero;fill:rgb(100%,100%,100%);fill-opacity:1;" d="M 28.332031 26.382812 C 28.238281 26.359375 28.136719 26.339844 28.035156 26.324219 C 27.453125 26.230469 26.796875 26.25 26.113281 26.378906 C 26.011719 26.277344 25.875 26.203125 25.695312 26.164062 L 25.085938 26.035156 C 24.398438 25.886719 23.417969 26.34375 22.882812 27.058594 L 15.964844 36.273438 C 15.425781 36.988281 15.550781 37.683594 16.238281 37.828125 L 16.847656 37.960938 C 17.535156 38.105469 18.511719 37.652344 19.050781 36.9375 L 21.234375 34.058594 C 22.703125 34.921875 25.195312 34.5625 27.320312 33.183594 C 28.566406 32.378906 29.539062 31.308594 30.023438 30.214844 C 30.511719 29.121094 30.46875 28.089844 29.914062 27.347656 C 29.5625 26.882812 29.019531 26.550781 28.332031 26.382812 Z M 26.855469 28.03125 C 27.332031 28.109375 27.710938 28.316406 27.945312 28.625 C 28.617188 29.519531 27.945312 31.039062 26.441406 32.015625 C 24.933594 32.992188 23.171875 33.058594 22.496094 32.164062 C 21.824219 31.269531 22.5 29.75 24.003906 28.773438 C 24.929688 28.171875 26.003906 27.894531 26.855469 28.03125 Z M 26.855469 28.03125 "/>
<path style=" stroke:none;fill-rule:nonzero;fill:rgb(100%,100%,100%);fill-opacity:1;" d="M 25.996094 4.875 C 17.765625 5.125 9.6875 9.710938 5.648438 16.425781 C 5.589844 16.53125 5.53125 16.632812 5.476562 16.738281 C 11.394531 8.929688 22.515625 5.152344 31.433594 7.925781 C 38.046875 11.234375 40.851562 18.09375 38.492188 25.179688 L 41.265625 27.015625 C 46.054688 18.195312 42.433594 8.863281 33.039062 5.824219 C 30.855469 5.121094 28.46875 4.796875 25.996094 4.875 Z M 25.996094 4.875 "/>
</g>
</svg>
