
<svg xmlns="http://www.w3.org/2000/svg" xmlns:xlink="http://www.w3.org/1999/xlink" width="48px" height="48px" viewBox="0 0 48 48" version="1.1">
<g id="surface1">
<path style="fill-rule:nonzero;fill:rgb(100%,100%,100%);fill-opacity:1;stroke-width:3.131993;stroke-linecap:butt;stroke-linejoin:miter;stroke:rgb(27.058824%,27.058824%,27.058824%);stroke-opacity:0.627451;stroke-miterlimit:4;" d="M 9.895833 4.973958 L 54.104167 4.973958 C 56.484375 4.973958 58.411458 6.901042 58.411458 9.276042 L 58.411458 54.723958 C 58.411458 57.098958 56.484375 59.026042 54.104167 59.026042 L 9.895833 59.026042 C 7.515625 59.026042 5.588542 57.098958 5.588542 54.723958 L 5.588542 9.276042 C 5.588542 6.901042 7.515625 4.973958 9.895833 4.973958 Z M 9.895833 4.973958 " transform="matrix(0.75,0,0,0.75,0,0)"/>
<path style="fill-rule:nonzero;fill:rgb(100%,100%,100%);fill-opacity:1;stroke-width:3.131993;stroke-linecap:butt;stroke-linejoin:miter;stroke:rgb(27.058824%,27.058824%,27.058824%);stroke-opacity:0.627451;stroke-miterlimit:4;" d="M 9.895833 4.973958 C 7.515625 4.973958 5.588542 6.901042 5.588542 9.276042 L 5.588542 54.723958 C 5.588542 57.098958 7.515625 59.020833 9.895833 59.020833 L 54.104167 59.020833 C 56.484375 59.020833 58.411458 57.098958 58.411458 54.723958 L 58.411458 9.276042 C 58.411458 6.901042 56.484375 4.973958 54.104167 4.973958 Z M 22.416667 19.348958 L 25.770833 19.348958 L 34.104167 41.21875 L 31.026042 41.21875 L 29.036458 35.609375 L 19.177083 35.609375 L 17.1875 41.21875 L 14.0625 41.21875 Z M 24.083333 22.265625 L 20.072917 33.151042 L 28.114583 33.151042 Z M 42.921875 24.421875 C 45.296875 24.421875 47.067708 25.036458 48.239583 26.265625 C 49.411458 27.494792 50 29.359375 50 31.859375 L 50 41.21875 L 47.302083 41.21875 L 47.302083 38.729167 C 46.6875 39.729167 45.921875 40.463542 45 40.942708 C 44.083333 41.411458 42.963542 41.645833 41.635417 41.645833 C 39.953125 41.645833 38.614583 41.177083 37.619792 40.239583 C 36.635417 39.291667 36.140625 38.026042 36.140625 36.447917 C 36.140625 34.598958 36.755208 33.208333 37.984375 32.270833 C 39.223958 31.333333 41.072917 30.864583 43.520833 30.864583 L 47.302083 30.864583 L 47.302083 30.598958 C 47.302083 29.359375 46.890625 28.40625 46.072917 27.729167 C 45.260417 27.046875 44.119792 26.703125 42.645833 26.703125 C 41.708333 26.703125 40.791667 26.817708 39.90625 27.041667 C 39.015625 27.265625 38.161458 27.604167 37.34375 28.052083 L 37.34375 25.5625 C 38.328125 25.182292 39.286458 24.895833 40.213542 24.713542 C 41.140625 24.515625 42.041667 24.421875 42.921875 24.421875 Z M 44.619792 32.973958 C 42.442708 32.973958 40.9375 33.223958 40.09375 33.71875 C 39.255208 34.21875 38.833333 35.067708 38.833333 36.270833 C 38.833333 37.229167 39.145833 37.989583 39.770833 38.557292 C 40.40625 39.109375 41.265625 39.390625 42.348958 39.390625 C 43.84375 39.390625 45.041667 38.864583 45.9375 37.807292 C 46.848958 36.744792 47.302083 35.333333 47.302083 33.572917 L 47.302083 32.973958 Z M 44.619792 32.973958 " transform="matrix(0.75,0,0,0.75,0,0)"/>
</g>
</svg>
