<!-- color: #54d160 -->
<svg xmlns="http://www.w3.org/2000/svg" xmlns:xlink="http://www.w3.org/1999/xlink" width="48px" height="48px" viewBox="0 0 48 48" version="1.1">
<g id="surface1">
<path style="fill-rule:nonzero;fill:rgb(100%,100%,100%);fill-opacity:1;stroke-width:28.178816;stroke-linecap:butt;stroke-linejoin:miter;stroke:rgb(56.078431%,85.098039%,0.784314%);stroke-opacity:1;stroke-miterlimit:4;" d="M 81.541667 25.208333 L 430.458333 25.208333 C 461.583333 25.208333 486.791667 50.416667 486.791667 81.541667 L 486.791667 430.458333 C 486.791667 461.583333 461.583333 486.791667 430.458333 486.791667 L 81.541667 486.791667 C 50.416667 486.791667 25.208333 461.583333 25.208333 430.458333 L 25.208333 81.541667 C 25.208333 50.416667 50.416667 25.208333 81.541667 25.208333 Z M 81.541667 25.208333 " transform="matrix(0.09375,0,0,0.09375,0,0)"/>
<path style="fill-rule:nonzero;fill:rgb(56.078431%,85.098039%,0.784314%);fill-opacity:1;stroke-width:40.818562;stroke-linecap:butt;stroke-linejoin:miter;stroke:rgb(56.078431%,85.098039%,0.784314%);stroke-opacity:1;stroke-miterlimit:4;" d="M 411.833333 256 C 411.833333 342.041667 342.083333 411.791667 256.041667 411.791667 C 170 411.791667 100.208333 342.041667 100.208333 256 C 100.208333 169.958333 170 100.208333 256.041667 100.208333 C 342.083333 100.208333 411.833333 169.958333 411.833333 256 Z M 411.833333 256 " transform="matrix(0.09375,0,0,0.09375,0,0)"/>
<path style="fill-rule:nonzero;fill:rgb(56.078431%,85.098039%,0.784314%);fill-opacity:1;stroke-width:40.818562;stroke-linecap:butt;stroke-linejoin:miter;stroke:rgb(56.078431%,85.098039%,0.784314%);stroke-opacity:1;stroke-miterlimit:4;" d="M 411.833333 256 C 411.833333 342.041667 342.083333 411.791667 256.041667 411.791667 C 170 411.791667 100.208333 342.041667 100.208333 256 C 100.208333 169.958333 170 100.208333 256.041667 100.208333 C 342.083333 100.208333 411.833333 169.958333 411.833333 256 Z M 411.833333 256 " transform="matrix(0.09375,0,0,0.09375,0,0)"/>
<path style=" stroke:none;fill-rule:nonzero;fill:rgb(30.196078%,30.196078%,30.196078%);fill-opacity:1;" d="M 7.484375 19.753906 L 7.484375 28.246094 L 13.6875 28.246094 L 13.6875 25.945312 L 40.570312 25.945312 L 40.570312 22.054688 L 13.6875 22.054688 L 13.6875 19.753906 Z M 7.484375 19.753906 "/>
<path style=" stroke:none;fill-rule:nonzero;fill:rgb(56.078431%,85.098039%,0.784314%);fill-opacity:1;" d="M 11.546875 40.519531 L 7.484375 40.519531 L 7.484375 36.457031 L 11.546875 36.457031 Z M 11.546875 40.519531 "/>
<path style=" stroke:none;fill-rule:nonzero;fill:rgb(56.078431%,85.098039%,0.784314%);fill-opacity:1;" d="M 40.523438 40.519531 L 36.460938 40.519531 L 36.460938 36.457031 L 40.523438 36.457031 Z M 40.523438 40.519531 "/>
<path style=" stroke:none;fill-rule:nonzero;fill:rgb(56.078431%,85.098039%,0.784314%);fill-opacity:1;" d="M 40.523438 11.542969 L 36.460938 11.542969 L 36.460938 7.480469 L 40.523438 7.480469 Z M 40.523438 11.542969 "/>
<path style=" stroke:none;fill-rule:nonzero;fill:rgb(56.078431%,85.098039%,0.784314%);fill-opacity:1;" d="M 11.546875 11.542969 L 7.484375 11.542969 L 7.484375 7.480469 L 11.546875 7.480469 Z M 11.546875 11.542969 "/>
</g>
</svg>
