
<svg xmlns="http://www.w3.org/2000/svg" xmlns:xlink="http://www.w3.org/1999/xlink" width="48px" height="48px" viewBox="0 0 48 48" version="1.1">
<g id="surface1">
<path style="fill-rule:nonzero;fill:rgb(16.862745%,23.921569%,30.980392%);fill-opacity:1;stroke-width:27.27438;stroke-linecap:butt;stroke-linejoin:miter;stroke:rgb(16.862745%,23.921569%,30.980392%);stroke-opacity:1;stroke-miterlimit:4;" d="M 83.166667 43.666667 L 424.5 43.666667 C 454.958333 43.666667 479.625 67.833333 479.625 97.625 L 479.625 431.708333 C 479.625 461.541667 454.958333 485.666667 424.5 485.666667 L 83.166667 485.666667 C 52.708333 485.666667 28.041667 461.541667 28.041667 431.708333 L 28.041667 97.625 C 28.041667 67.833333 52.708333 43.666667 83.166667 43.666667 Z M 83.166667 43.666667 " transform="matrix(0.09375,0,0,0.09375,0,0)"/>
<path style=" stroke:none;fill-rule:nonzero;fill:rgb(49.019608%,72.156863%,0%);fill-opacity:1;" d="M 24.710938 7.289062 L 24.710938 23.921875 L 41.699219 23.921875 L 41.699219 11.351562 C 41.699219 9.109375 39.84375 7.289062 37.550781 7.289062 Z M 24.710938 7.289062 "/>
<path style=" stroke:none;fill-rule:nonzero;fill:rgb(0%,63.137255%,93.333333%);fill-opacity:1;" d="M 22.882812 42.335938 L 22.882812 25.707031 L 5.894531 25.707031 L 5.894531 38.277344 C 5.894531 40.519531 7.75 42.335938 10.042969 42.335938 Z M 22.882812 42.335938 "/>
<path style=" stroke:none;fill-rule:nonzero;fill:rgb(94.117647%,29.803922%,11.764706%);fill-opacity:1;" d="M 5.894531 23.921875 L 22.882812 23.921875 L 22.882812 7.289062 L 10.042969 7.289062 C 7.75 7.289062 5.894531 9.109375 5.894531 11.351562 Z M 5.894531 23.921875 "/>
<path style=" stroke:none;fill-rule:nonzero;fill:rgb(99.215686%,72.156863%,0%);fill-opacity:1;" d="M 41.699219 25.707031 L 24.710938 25.707031 L 24.710938 42.335938 L 37.550781 42.335938 C 39.84375 42.335938 41.699219 40.519531 41.699219 38.277344 Z M 41.699219 25.707031 "/>
</g>
</svg>
