
<svg xmlns="http://www.w3.org/2000/svg" xmlns:xlink="http://www.w3.org/1999/xlink" width="48px" height="48px" viewBox="0 0 48 48" version="1.1">
<g id="surface1">
<path style="fill-rule:nonzero;fill:rgb(98.039216%,94.117647%,94.117647%);fill-opacity:1;stroke-width:27.285545;stroke-linecap:butt;stroke-linejoin:miter;stroke:rgb(60%,60%,60%);stroke-opacity:1;stroke-miterlimit:4;" d="M 63.416667 20.583333 L 448.583333 20.583333 C 469.291667 20.583333 486.083333 37.375 486.083333 58.041667 L 486.083333 453.958333 C 486.083333 474.625 469.291667 491.416667 448.583333 491.416667 L 63.416667 491.416667 C 42.708333 491.416667 25.916667 474.625 25.916667 453.958333 L 25.916667 58.041667 C 25.916667 37.375 42.708333 20.583333 63.416667 20.583333 Z M 63.416667 20.583333 " transform="matrix(0.09375,0,0,0.09375,0,0)"/>
<path style=" stroke:none;fill-rule:nonzero;fill:rgb(21.568627%,78.431373%,21.568627%);fill-opacity:1;" d="M 21.191406 15.613281 C 21.191406 12.949219 19.488281 10.792969 17.386719 10.792969 C 15.289062 10.792969 13.585938 12.949219 13.585938 15.613281 C 13.585938 18.273438 15.289062 20.433594 17.386719 20.433594 C 19.488281 20.433594 21.191406 18.273438 21.191406 15.613281 Z M 21.191406 15.613281 "/>
<path style=" stroke:none;fill-rule:nonzero;fill:rgb(21.568627%,78.431373%,21.568627%);fill-opacity:1;" d="M 17.386719 20.433594 C 21.203125 20.433594 25.054688 22.867188 24.269531 25.648438 L 21.269531 36.304688 C 20.484375 39.085938 21.203125 41.519531 17.386719 41.519531 C 13.574219 41.519531 14.472656 39.074219 13.652344 36.304688 L 10.503906 25.648438 C 9.6875 22.878906 13.574219 20.433594 17.386719 20.433594 Z M 17.386719 20.433594 "/>
<path style=" stroke:none;fill-rule:nonzero;fill:rgb(16.470588%,49.803922%,100%);fill-opacity:1;" d="M 32.699219 10.949219 C 32.699219 7.730469 30.644531 5.125 28.105469 5.125 C 25.570312 5.125 23.511719 7.730469 23.511719 10.949219 C 23.511719 14.164062 25.570312 16.769531 28.105469 16.769531 C 30.644531 16.769531 32.699219 14.164062 32.699219 10.949219 Z M 32.699219 10.949219 "/>
<path style=" stroke:none;fill-rule:nonzero;fill:rgb(16.470588%,49.803922%,100%);fill-opacity:1;" d="M 28.105469 16.769531 C 32.710938 16.769531 37.367188 19.710938 36.421875 23.070312 L 32.792969 35.941406 C 31.847656 39.300781 32.710938 42.242188 28.105469 42.242188 C 23.5 42.242188 24.585938 39.289062 23.597656 35.941406 L 19.792969 23.070312 C 18.804688 19.722656 23.5 16.769531 28.105469 16.769531 Z M 28.105469 16.769531 "/>
</g>
</svg>
