<!-- color: #474747 -->
<svg xmlns="http://www.w3.org/2000/svg" xmlns:xlink="http://www.w3.org/1999/xlink" width="48px" height="48px" viewBox="0 0 48 48" version="1.1">
<defs>
<clipPath id="clip1">
  <path d="M 12.375 10.125 L 35.90625 10.125 L 35.90625 35.625 L 12.375 35.625 Z M 12.375 10.125 "/>
</clipPath>
<clipPath id="clip2">
  <path d="M 46.566406 23.820312 C 46.566406 36.226562 36.507812 46.273438 24.113281 46.273438 C 11.71875 46.273438 1.660156 36.226562 1.660156 23.820312 C 1.660156 11.414062 11.71875 1.363281 24.113281 1.363281 C 36.507812 1.363281 46.566406 11.414062 46.566406 23.820312 Z M 46.566406 23.820312 "/>
</clipPath>
</defs>
<g id="surface1">
<path style="fill-rule:nonzero;fill:rgb(100%,100%,100%);fill-opacity:1;stroke-width:28.797188;stroke-linecap:butt;stroke-linejoin:miter;stroke:rgb(50.196078%,50.196078%,50.196078%);stroke-opacity:1;stroke-miterlimit:4;" d="M 77.75 20.125 L 434.25 20.125 C 466.083333 20.125 491.875 45.916667 491.875 77.75 L 491.875 434.25 C 491.875 466.083333 466.083333 491.875 434.25 491.875 L 77.75 491.875 C 45.916667 491.875 20.125 466.083333 20.125 434.25 L 20.125 77.75 C 20.125 45.916667 45.916667 20.125 77.75 20.125 Z M 77.75 20.125 " transform="matrix(0.09375,0,0,0.09375,0,0)"/>
<g clip-path="url(#clip1)" clip-rule="nonzero">
<g clip-path="url(#clip2)" clip-rule="nonzero">
<path style=" stroke:none;fill-rule:nonzero;fill:rgb(50.196078%,50.196078%,50.196078%);fill-opacity:1;" d="M 24.113281 10.152344 C 24.113281 10.152344 32.902344 10.152344 32.902344 15.859375 L 32.902344 20.890625 C 32.902344 20.890625 35.828125 20.890625 35.828125 22.84375 L 35.828125 32.992188 C 35.828125 35.535156 32.902344 35.535156 32.902344 35.535156 L 15.328125 35.535156 C 15.328125 35.535156 12.398438 35.535156 12.398438 32.992188 L 12.398438 22.84375 C 12.398438 20.890625 15.328125 20.890625 15.328125 20.890625 L 15.328125 15.859375 C 15.328125 10.152344 24.113281 10.152344 24.113281 10.152344 M 24.113281 13.324219 C 24.113281 13.324219 19.230469 13.175781 19.230469 16.984375 L 19.230469 20.890625 L 28.996094 20.890625 L 28.996094 16.984375 C 28.996094 13.175781 24.113281 13.324219 24.113281 13.324219 M 24.113281 13.324219 "/>
</g>
</g>
</g>
</svg>
