
<svg xmlns="http://www.w3.org/2000/svg" xmlns:xlink="http://www.w3.org/1999/xlink" width="48px" height="48px" viewBox="0 0 48 48" version="1.1">
<g id="surface1">
<path style="fill-rule:nonzero;fill:rgb(12.941176%,12.941176%,12.941176%);fill-opacity:1;stroke-width:27.27438;stroke-linecap:butt;stroke-linejoin:miter;stroke:rgb(48.627451%,53.333333%,57.647059%);stroke-opacity:1;stroke-miterlimit:4;" d="M 85.333333 35 L 426.666667 35 C 457.125 35 481.791667 59.166667 481.791667 88.958333 L 481.791667 423.041667 C 481.791667 452.833333 457.125 477 426.666667 477 L 85.333333 477 C 54.875 477 30.208333 452.833333 30.208333 423.041667 L 30.208333 88.958333 C 30.208333 59.166667 54.875 35 85.333333 35 Z M 85.333333 35 " transform="matrix(0.09375,0,0,0.09375,0,0)"/>
<path style=" stroke:none;fill-rule:nonzero;fill:rgb(12.941176%,12.941176%,12.941176%);fill-opacity:1;" d="M 5.183594 11.316406 L 42.996094 11.316406 L 42.996094 21.964844 L 5.183594 21.964844 Z M 5.183594 11.316406 "/>
<path style=" stroke:none;fill-rule:nonzero;fill:rgb(11.764706%,18.039216%,21.960784%);fill-opacity:0.992157;" d="M 5.191406 11.125 L 5.191406 22.503906 L 42.828125 22.503906 L 42.828125 11.125 Z M 5.199219 25.542969 L 5.199219 36.921875 L 42.835938 36.921875 L 42.835938 25.542969 Z M 5.199219 25.542969 "/>
<path style="fill-rule:evenodd;fill:rgb(15.686275%,21.960784%,27.058824%);fill-opacity:1;stroke-width:1.871346;stroke-linecap:butt;stroke-linejoin:miter;stroke:rgb(12.941176%,12.941176%,12.941176%);stroke-opacity:1;stroke-miterlimit:4;" d="M 54.87723 119.594494 L 54.87723 240.969494 M 72.335563 119.594494 L 72.335563 240.969494 M 89.793897 119.594494 L 89.793897 240.969494 M 107.25223 119.594494 L 107.25223 240.969494 M 124.75223 119.594494 L 124.75223 240.969494 M 142.210563 119.594494 L 142.210563 240.969494 M 159.668897 119.594494 L 159.668897 240.969494 M 177.12723 119.594494 L 177.12723 240.969494 M 194.585563 119.594494 L 194.585563 240.969494 M 212.085563 119.594494 L 212.085563 240.969494 M 229.543897 119.594494 L 229.543897 240.969494 M 247.00223 119.594494 L 247.00223 240.969494 M 264.460563 119.594494 L 264.460563 240.969494 M 281.918897 119.594494 L 281.918897 240.969494 M 299.37723 119.594494 L 299.37723 240.969494 M 316.87723 119.594494 L 316.87723 240.969494 M 334.335563 119.594494 L 334.335563 240.969494 M 351.793897 119.594494 L 351.793897 240.969494 M 369.25223 119.594494 L 369.25223 240.969494 M 386.710563 119.594494 L 386.710563 240.969494 M 404.210563 119.594494 L 404.210563 240.969494 M 421.668897 119.594494 L 421.668897 240.969494 M 439.12723 119.594494 L 439.12723 240.969494 M 456.585563 119.594494 L 456.585563 240.969494 M 54.87723 119.594494 L 458.168897 119.594494 M 54.87723 136.844494 L 458.168897 136.844494 M 54.87723 154.136161 L 458.168897 154.136161 M 54.87723 171.386161 L 458.168897 171.386161 M 54.87723 188.636161 L 458.168897 188.636161 M 54.87723 205.927828 L 458.168897 205.927828 M 54.87723 223.177828 L 458.168897 223.177828 M 54.87723 240.469494 L 458.168897 240.469494 " transform="matrix(0.09375,0,0,0.09375,-0.0509903,-0.0869838)"/>
<path style="fill-rule:evenodd;fill:rgb(43.137255%,45.098039%,45.098039%);fill-opacity:0.905882;stroke-width:1.871346;stroke-linecap:butt;stroke-linejoin:miter;stroke:rgb(12.941176%,12.941176%,12.941176%);stroke-opacity:1;stroke-miterlimit:4;" d="M 54.960563 273.386161 L 54.960563 394.761161 M 72.418897 273.386161 L 72.418897 394.761161 M 89.87723 273.386161 L 89.87723 394.761161 M 107.335563 273.386161 L 107.335563 394.761161 M 124.835563 273.386161 L 124.835563 394.761161 M 142.293897 273.386161 L 142.293897 394.761161 M 159.75223 273.386161 L 159.75223 394.761161 M 177.210563 273.386161 L 177.210563 394.761161 M 194.668897 273.386161 L 194.668897 394.761161 M 212.12723 273.386161 L 212.12723 394.761161 M 229.62723 273.386161 L 229.62723 394.761161 M 247.085563 273.386161 L 247.085563 394.761161 M 264.543897 273.386161 L 264.543897 394.761161 M 282.00223 273.386161 L 282.00223 394.761161 M 299.460563 273.386161 L 299.460563 394.761161 M 316.960563 273.386161 L 316.960563 394.761161 M 334.418897 273.386161 L 334.418897 394.761161 M 351.87723 273.386161 L 351.87723 394.761161 M 369.335563 273.386161 L 369.335563 394.761161 M 386.793897 273.386161 L 386.793897 394.761161 M 404.25223 273.386161 L 404.25223 394.761161 M 421.75223 273.386161 L 421.75223 394.761161 M 439.210563 273.386161 L 439.210563 394.761161 M 456.668897 273.386161 L 456.668897 394.761161 M 54.960563 273.386161 L 458.25223 273.386161 M 54.960563 290.677828 L 458.25223 290.677828 M 54.960563 307.927828 L 458.25223 307.927828 M 54.960563 325.219494 L 458.25223 325.219494 M 54.960563 342.469494 L 458.25223 342.469494 M 54.960563 359.719494 L 458.25223 359.719494 M 54.960563 377.011161 L 458.25223 377.011161 M 54.960563 394.261161 L 458.25223 394.261161 " transform="matrix(0.09375,0,0,0.09375,-0.0509903,-0.0869838)"/>
<path style=" stroke:none;fill-rule:nonzero;fill:rgb(29.019608%,68.235294%,90.196078%);fill-opacity:0.992157;" d="M 6.824219 12.863281 L 6.824219 14.253906 L 8.214844 14.253906 L 8.214844 12.863281 Z M 8.507812 12.863281 L 8.507812 14.253906 L 9.894531 14.253906 L 9.894531 12.863281 Z M 13.40625 12.863281 L 13.40625 14.253906 L 14.792969 14.253906 L 14.792969 12.863281 Z M 15.011719 12.863281 L 15.011719 14.253906 L 16.402344 14.253906 L 16.402344 12.863281 Z M 16.695312 12.863281 L 16.695312 14.253906 L 18.082031 14.253906 L 18.082031 12.863281 Z M 21.589844 12.863281 L 21.589844 14.253906 L 22.980469 14.253906 L 22.980469 12.863281 Z M 23.199219 12.863281 L 23.199219 14.253906 L 24.589844 14.253906 L 24.589844 12.863281 Z M 24.882812 12.863281 L 24.882812 14.253906 L 26.269531 14.253906 L 26.269531 12.863281 Z M 28.171875 12.863281 L 28.171875 14.253906 L 29.558594 14.253906 L 29.558594 12.863281 Z M 33.066406 12.863281 L 33.066406 14.253906 L 34.457031 14.253906 L 34.457031 12.863281 Z M 37.964844 12.863281 L 37.964844 14.253906 L 39.355469 14.253906 L 39.355469 12.863281 Z M 39.574219 12.863281 L 39.574219 14.253906 L 40.960938 14.253906 L 40.960938 12.863281 Z M 5.21875 14.472656 L 5.21875 15.859375 L 6.605469 15.859375 L 6.605469 14.472656 Z M 10.113281 14.472656 L 10.113281 15.859375 L 11.503906 15.859375 L 11.503906 14.472656 Z M 13.40625 14.472656 L 13.40625 15.859375 L 14.792969 15.859375 L 14.792969 14.472656 Z M 18.300781 14.472656 L 18.300781 15.859375 L 19.691406 15.859375 L 19.691406 14.472656 Z M 23.199219 14.472656 L 23.199219 15.859375 L 24.589844 15.859375 L 24.589844 14.472656 Z M 28.171875 14.472656 L 28.171875 15.859375 L 29.558594 15.859375 L 29.558594 14.472656 Z M 33.066406 14.472656 L 33.066406 15.859375 L 34.457031 15.859375 L 34.457031 14.472656 Z M 36.359375 14.472656 L 36.359375 15.859375 L 37.746094 15.859375 L 37.746094 14.472656 Z M 41.253906 14.472656 L 41.253906 15.859375 L 42.644531 15.859375 L 42.644531 14.472656 Z M 5.21875 16.078125 L 5.21875 17.46875 L 6.605469 17.46875 L 6.605469 16.078125 Z M 10.113281 16.078125 L 10.113281 17.46875 L 11.503906 17.46875 L 11.503906 16.078125 Z M 13.40625 16.078125 L 13.40625 17.46875 L 14.792969 17.46875 L 14.792969 16.078125 Z M 18.300781 16.078125 L 18.300781 17.46875 L 19.691406 17.46875 L 19.691406 16.078125 Z M 23.199219 16.078125 L 23.199219 17.46875 L 24.589844 17.46875 L 24.589844 16.078125 Z M 28.171875 16.078125 L 28.171875 17.46875 L 29.558594 17.46875 L 29.558594 16.078125 Z M 33.066406 16.078125 L 33.066406 17.46875 L 34.457031 17.46875 L 34.457031 16.078125 Z M 36.359375 16.078125 L 36.359375 17.46875 L 37.746094 17.46875 L 37.746094 16.078125 Z M 41.253906 16.078125 L 41.253906 17.46875 L 42.644531 17.46875 L 42.644531 16.078125 Z M 5.21875 17.6875 L 5.21875 19.078125 L 6.605469 19.078125 L 6.605469 17.6875 Z M 6.824219 17.6875 L 6.824219 19.078125 L 8.214844 19.078125 L 8.214844 17.6875 Z M 8.507812 17.6875 L 8.507812 19.078125 L 9.894531 19.078125 L 9.894531 17.6875 Z M 10.113281 17.6875 L 10.113281 19.078125 L 11.503906 19.078125 L 11.503906 17.6875 Z M 13.40625 17.6875 L 13.40625 19.078125 L 14.792969 19.078125 L 14.792969 17.6875 Z M 15.011719 17.6875 L 15.011719 19.078125 L 16.402344 19.078125 L 16.402344 17.6875 Z M 16.695312 17.6875 L 16.695312 19.078125 L 18.082031 19.078125 L 18.082031 17.6875 Z M 23.199219 17.6875 L 23.199219 19.078125 L 24.589844 19.078125 L 24.589844 17.6875 Z M 28.171875 17.6875 L 28.171875 19.078125 L 29.558594 19.078125 L 29.558594 17.6875 Z M 33.066406 17.6875 L 33.066406 19.078125 L 34.457031 19.078125 L 34.457031 17.6875 Z M 36.359375 17.6875 L 36.359375 19.078125 L 37.746094 19.078125 L 37.746094 17.6875 Z M 37.964844 17.6875 L 37.964844 19.078125 L 39.355469 19.078125 L 39.355469 17.6875 Z M 39.574219 17.6875 L 39.574219 19.078125 L 40.960938 19.078125 L 40.960938 17.6875 Z M 41.253906 17.6875 L 41.253906 19.078125 L 42.644531 19.078125 L 42.644531 17.6875 Z M 5.21875 19.371094 L 5.21875 20.683594 L 6.605469 20.683594 L 6.605469 19.371094 Z M 10.113281 19.371094 L 10.113281 20.683594 L 11.503906 20.683594 L 11.503906 19.371094 Z M 13.40625 19.371094 L 13.40625 20.683594 L 14.792969 20.683594 L 14.792969 19.371094 Z M 18.300781 19.371094 L 18.300781 20.683594 L 19.691406 20.683594 L 19.691406 19.371094 Z M 23.199219 19.371094 L 23.199219 20.683594 L 24.589844 20.683594 L 24.589844 19.371094 Z M 29.777344 19.371094 L 29.777344 20.683594 L 31.167969 20.683594 L 31.167969 19.371094 Z M 31.386719 19.371094 L 31.386719 20.683594 L 32.777344 20.683594 L 32.777344 19.371094 Z M 36.359375 19.371094 L 36.359375 20.683594 L 37.746094 20.683594 L 37.746094 19.371094 Z M 41.253906 19.371094 L 41.253906 20.683594 L 42.644531 20.683594 L 42.644531 19.371094 Z M 5.238281 27.28125 L 5.238281 28.667969 L 6.625 28.667969 L 6.625 27.28125 Z M 6.84375 27.28125 L 6.84375 28.667969 L 8.234375 28.667969 L 8.234375 27.28125 Z M 11.742188 27.28125 L 11.742188 28.667969 L 13.132812 28.667969 L 13.132812 27.28125 Z M 16.714844 27.28125 L 16.714844 28.667969 L 18.101562 28.667969 L 18.101562 27.28125 Z M 21.609375 27.28125 L 21.609375 28.667969 L 23 28.667969 L 23 27.28125 Z M 23.21875 27.28125 L 23.21875 28.667969 L 24.609375 28.667969 L 24.609375 27.28125 Z M 31.40625 27.28125 L 31.40625 28.667969 L 32.792969 28.667969 L 32.792969 27.28125 Z M 33.085938 27.28125 L 33.085938 28.667969 L 34.476562 28.667969 L 34.476562 27.28125 Z M 36.304688 27.28125 L 36.304688 28.667969 L 37.691406 28.667969 L 37.691406 27.28125 Z M 37.984375 27.28125 L 37.984375 28.667969 L 39.375 28.667969 L 39.375 27.28125 Z M 39.59375 27.28125 L 39.59375 28.667969 L 40.980469 28.667969 L 40.980469 27.28125 Z M 41.273438 27.28125 L 41.273438 28.667969 L 42.664062 28.667969 L 42.664062 27.28125 Z M 8.527344 28.890625 L 8.527344 30.277344 L 9.914062 30.277344 L 9.914062 28.890625 Z M 11.742188 28.890625 L 11.742188 30.277344 L 13.132812 30.277344 L 13.132812 28.890625 Z M 16.714844 28.890625 L 16.714844 30.277344 L 18.101562 30.277344 L 18.101562 28.890625 Z M 19.929688 28.890625 L 19.929688 30.277344 L 21.316406 30.277344 L 21.316406 28.890625 Z M 24.898438 28.890625 L 24.898438 30.277344 L 26.289062 30.277344 L 26.289062 28.890625 Z M 28.117188 28.890625 L 28.117188 30.277344 L 29.503906 30.277344 L 29.503906 28.890625 Z M 33.085938 28.890625 L 33.085938 30.277344 L 34.476562 30.277344 L 34.476562 28.890625 Z M 41.273438 28.890625 L 41.273438 30.277344 L 42.664062 30.277344 L 42.664062 28.890625 Z M 8.527344 30.496094 L 8.527344 31.886719 L 9.914062 31.886719 L 9.914062 30.496094 Z M 13.421875 30.496094 L 13.421875 31.886719 L 14.8125 31.886719 L 14.8125 30.496094 Z M 15.03125 30.496094 L 15.03125 31.886719 L 16.421875 31.886719 L 16.421875 30.496094 Z M 21.609375 30.496094 L 21.609375 31.886719 L 23 31.886719 L 23 30.496094 Z M 23.21875 30.496094 L 23.21875 31.886719 L 24.609375 31.886719 L 24.609375 30.496094 Z M 33.085938 30.496094 L 33.085938 31.886719 L 34.476562 31.886719 L 34.476562 30.496094 Z M 39.59375 30.496094 L 39.59375 31.886719 L 40.980469 31.886719 L 40.980469 30.496094 Z M 5.238281 32.179688 L 5.238281 33.496094 L 6.625 33.496094 L 6.625 32.179688 Z M 6.84375 32.179688 L 6.84375 33.496094 L 8.234375 33.496094 L 8.234375 32.179688 Z M 8.527344 32.179688 L 8.527344 33.496094 L 9.914062 33.496094 L 9.914062 32.179688 Z M 15.03125 32.179688 L 15.03125 33.496094 L 16.421875 33.496094 L 16.421875 32.179688 Z M 19.929688 32.179688 L 19.929688 33.496094 L 21.316406 33.496094 L 21.316406 32.179688 Z M 24.898438 32.179688 L 24.898438 33.496094 L 26.289062 33.496094 L 26.289062 32.179688 Z M 28.117188 32.179688 L 28.117188 33.496094 L 29.503906 33.496094 L 29.503906 32.179688 Z M 33.085938 32.179688 L 33.085938 33.496094 L 34.476562 33.496094 L 34.476562 32.179688 Z M 37.984375 32.179688 L 37.984375 33.496094 L 39.375 33.496094 L 39.375 32.179688 Z M 8.527344 33.785156 L 8.527344 35.101562 L 9.914062 35.101562 L 9.914062 33.785156 Z M 13.421875 33.785156 L 13.421875 35.101562 L 14.8125 35.101562 L 14.8125 33.785156 Z M 21.609375 33.785156 L 21.609375 35.101562 L 23 35.101562 L 23 33.785156 Z M 23.21875 33.785156 L 23.21875 35.101562 L 24.609375 35.101562 L 24.609375 33.785156 Z M 33.085938 33.785156 L 33.085938 35.101562 L 34.476562 35.101562 L 34.476562 33.785156 Z M 37.984375 33.785156 L 37.984375 35.101562 L 39.375 35.101562 L 39.375 33.785156 Z M 37.984375 33.785156 "/>
<path style=" stroke:none;fill-rule:nonzero;fill:rgb(29.803922%,74.117647%,93.333333%);fill-opacity:1;" d="M 29.777344 20.027344 L 29.777344 19.371094 L 31.167969 19.371094 L 31.167969 20.683594 L 29.777344 20.683594 Z M 29.777344 20.027344 "/>
</g>
</svg>
