
<svg xmlns="http://www.w3.org/2000/svg" xmlns:xlink="http://www.w3.org/1999/xlink" width="48px" height="48px" viewBox="0 0 48 48" version="1.1">
<defs>
<clipPath id="clip1">
  <path d="M 3 3 L 45 3 L 45 45 L 3 45 Z M 3 3 "/>
</clipPath>
<clipPath id="clip2">
  <path d="M 8.46875 3.453125 L 39.53125 3.453125 C 42.300781 3.453125 44.546875 5.699219 44.546875 8.46875 L 44.546875 39.53125 C 44.546875 42.300781 42.300781 44.546875 39.53125 44.546875 L 8.46875 44.546875 C 5.699219 44.546875 3.453125 42.300781 3.453125 39.53125 L 3.453125 8.46875 C 3.453125 5.699219 5.699219 3.453125 8.46875 3.453125 Z M 8.46875 3.453125 "/>
</clipPath>
<clipPath id="clip3">
  <path d="M 3 24 L 24 24 L 24 45 L 3 45 Z M 3 24 "/>
</clipPath>
<clipPath id="clip4">
  <path d="M 8.46875 3.453125 L 39.53125 3.453125 C 42.300781 3.453125 44.546875 5.699219 44.546875 8.46875 L 44.546875 39.53125 C 44.546875 42.300781 42.300781 44.546875 39.53125 44.546875 L 8.46875 44.546875 C 5.699219 44.546875 3.453125 42.300781 3.453125 39.53125 L 3.453125 8.46875 C 3.453125 5.699219 5.699219 3.453125 8.46875 3.453125 Z M 8.46875 3.453125 "/>
</clipPath>
<clipPath id="clip5">
  <path d="M 3 40 L 8 40 L 8 45 L 3 45 Z M 3 40 "/>
</clipPath>
<clipPath id="clip6">
  <path d="M 8.46875 3.453125 L 39.53125 3.453125 C 42.300781 3.453125 44.546875 5.699219 44.546875 8.46875 L 44.546875 39.53125 C 44.546875 42.300781 42.300781 44.546875 39.53125 44.546875 L 8.46875 44.546875 C 5.699219 44.546875 3.453125 42.300781 3.453125 39.53125 L 3.453125 8.46875 C 3.453125 5.699219 5.699219 3.453125 8.46875 3.453125 Z M 8.46875 3.453125 "/>
</clipPath>
<clipPath id="clip7">
  <path d="M 7 40 L 14 40 L 14 45 L 7 45 Z M 7 40 "/>
</clipPath>
<clipPath id="clip8">
  <path d="M 8.46875 3.453125 L 39.53125 3.453125 C 42.300781 3.453125 44.546875 5.699219 44.546875 8.46875 L 44.546875 39.53125 C 44.546875 42.300781 42.300781 44.546875 39.53125 44.546875 L 8.46875 44.546875 C 5.699219 44.546875 3.453125 42.300781 3.453125 39.53125 L 3.453125 8.46875 C 3.453125 5.699219 5.699219 3.453125 8.46875 3.453125 Z M 8.46875 3.453125 "/>
</clipPath>
<clipPath id="clip9">
  <path d="M 13 40 L 19 40 L 19 45 L 13 45 Z M 13 40 "/>
</clipPath>
<clipPath id="clip10">
  <path d="M 8.46875 3.453125 L 39.53125 3.453125 C 42.300781 3.453125 44.546875 5.699219 44.546875 8.46875 L 44.546875 39.53125 C 44.546875 42.300781 42.300781 44.546875 39.53125 44.546875 L 8.46875 44.546875 C 5.699219 44.546875 3.453125 42.300781 3.453125 39.53125 L 3.453125 8.46875 C 3.453125 5.699219 5.699219 3.453125 8.46875 3.453125 Z M 8.46875 3.453125 "/>
</clipPath>
<clipPath id="clip11">
  <path d="M 18 40 L 24 40 L 24 45 L 18 45 Z M 18 40 "/>
</clipPath>
<clipPath id="clip12">
  <path d="M 8.46875 3.453125 L 39.53125 3.453125 C 42.300781 3.453125 44.546875 5.699219 44.546875 8.46875 L 44.546875 39.53125 C 44.546875 42.300781 42.300781 44.546875 39.53125 44.546875 L 8.46875 44.546875 C 5.699219 44.546875 3.453125 42.300781 3.453125 39.53125 L 3.453125 8.46875 C 3.453125 5.699219 5.699219 3.453125 8.46875 3.453125 Z M 8.46875 3.453125 "/>
</clipPath>
<clipPath id="clip13">
  <path d="M 24 40 L 30 40 L 30 45 L 24 45 Z M 24 40 "/>
</clipPath>
<clipPath id="clip14">
  <path d="M 8.46875 3.453125 L 39.53125 3.453125 C 42.300781 3.453125 44.546875 5.699219 44.546875 8.46875 L 44.546875 39.53125 C 44.546875 42.300781 42.300781 44.546875 39.53125 44.546875 L 8.46875 44.546875 C 5.699219 44.546875 3.453125 42.300781 3.453125 39.53125 L 3.453125 8.46875 C 3.453125 5.699219 5.699219 3.453125 8.46875 3.453125 Z M 8.46875 3.453125 "/>
</clipPath>
<clipPath id="clip15">
  <path d="M 29 40 L 35 40 L 35 45 L 29 45 Z M 29 40 "/>
</clipPath>
<clipPath id="clip16">
  <path d="M 8.46875 3.453125 L 39.53125 3.453125 C 42.300781 3.453125 44.546875 5.699219 44.546875 8.46875 L 44.546875 39.53125 C 44.546875 42.300781 42.300781 44.546875 39.53125 44.546875 L 8.46875 44.546875 C 5.699219 44.546875 3.453125 42.300781 3.453125 39.53125 L 3.453125 8.46875 C 3.453125 5.699219 5.699219 3.453125 8.46875 3.453125 Z M 8.46875 3.453125 "/>
</clipPath>
<clipPath id="clip17">
  <path d="M 34 40 L 41 40 L 41 45 L 34 45 Z M 34 40 "/>
</clipPath>
<clipPath id="clip18">
  <path d="M 8.46875 3.453125 L 39.53125 3.453125 C 42.300781 3.453125 44.546875 5.699219 44.546875 8.46875 L 44.546875 39.53125 C 44.546875 42.300781 42.300781 44.546875 39.53125 44.546875 L 8.46875 44.546875 C 5.699219 44.546875 3.453125 42.300781 3.453125 39.53125 L 3.453125 8.46875 C 3.453125 5.699219 5.699219 3.453125 8.46875 3.453125 Z M 8.46875 3.453125 "/>
</clipPath>
<clipPath id="clip19">
  <path d="M 40 40 L 45 40 L 45 45 L 40 45 Z M 40 40 "/>
</clipPath>
<clipPath id="clip20">
  <path d="M 8.46875 3.453125 L 39.53125 3.453125 C 42.300781 3.453125 44.546875 5.699219 44.546875 8.46875 L 44.546875 39.53125 C 44.546875 42.300781 42.300781 44.546875 39.53125 44.546875 L 8.46875 44.546875 C 5.699219 44.546875 3.453125 42.300781 3.453125 39.53125 L 3.453125 8.46875 C 3.453125 5.699219 5.699219 3.453125 8.46875 3.453125 Z M 8.46875 3.453125 "/>
</clipPath>
<clipPath id="clip21">
  <path d="M 3 34 L 8 34 L 8 41 L 3 41 Z M 3 34 "/>
</clipPath>
<clipPath id="clip22">
  <path d="M 8.46875 3.453125 L 39.53125 3.453125 C 42.300781 3.453125 44.546875 5.699219 44.546875 8.46875 L 44.546875 39.53125 C 44.546875 42.300781 42.300781 44.546875 39.53125 44.546875 L 8.46875 44.546875 C 5.699219 44.546875 3.453125 42.300781 3.453125 39.53125 L 3.453125 8.46875 C 3.453125 5.699219 5.699219 3.453125 8.46875 3.453125 Z M 8.46875 3.453125 "/>
</clipPath>
<clipPath id="clip23">
  <path d="M 7 34 L 14 34 L 14 41 L 7 41 Z M 7 34 "/>
</clipPath>
<clipPath id="clip24">
  <path d="M 8.46875 3.453125 L 39.53125 3.453125 C 42.300781 3.453125 44.546875 5.699219 44.546875 8.46875 L 44.546875 39.53125 C 44.546875 42.300781 42.300781 44.546875 39.53125 44.546875 L 8.46875 44.546875 C 5.699219 44.546875 3.453125 42.300781 3.453125 39.53125 L 3.453125 8.46875 C 3.453125 5.699219 5.699219 3.453125 8.46875 3.453125 Z M 8.46875 3.453125 "/>
</clipPath>
<clipPath id="clip25">
  <path d="M 13 34 L 19 34 L 19 41 L 13 41 Z M 13 34 "/>
</clipPath>
<clipPath id="clip26">
  <path d="M 8.46875 3.453125 L 39.53125 3.453125 C 42.300781 3.453125 44.546875 5.699219 44.546875 8.46875 L 44.546875 39.53125 C 44.546875 42.300781 42.300781 44.546875 39.53125 44.546875 L 8.46875 44.546875 C 5.699219 44.546875 3.453125 42.300781 3.453125 39.53125 L 3.453125 8.46875 C 3.453125 5.699219 5.699219 3.453125 8.46875 3.453125 Z M 8.46875 3.453125 "/>
</clipPath>
<clipPath id="clip27">
  <path d="M 18 34 L 24 34 L 24 41 L 18 41 Z M 18 34 "/>
</clipPath>
<clipPath id="clip28">
  <path d="M 8.46875 3.453125 L 39.53125 3.453125 C 42.300781 3.453125 44.546875 5.699219 44.546875 8.46875 L 44.546875 39.53125 C 44.546875 42.300781 42.300781 44.546875 39.53125 44.546875 L 8.46875 44.546875 C 5.699219 44.546875 3.453125 42.300781 3.453125 39.53125 L 3.453125 8.46875 C 3.453125 5.699219 5.699219 3.453125 8.46875 3.453125 Z M 8.46875 3.453125 "/>
</clipPath>
<clipPath id="clip29">
  <path d="M 24 34 L 30 34 L 30 41 L 24 41 Z M 24 34 "/>
</clipPath>
<clipPath id="clip30">
  <path d="M 8.46875 3.453125 L 39.53125 3.453125 C 42.300781 3.453125 44.546875 5.699219 44.546875 8.46875 L 44.546875 39.53125 C 44.546875 42.300781 42.300781 44.546875 39.53125 44.546875 L 8.46875 44.546875 C 5.699219 44.546875 3.453125 42.300781 3.453125 39.53125 L 3.453125 8.46875 C 3.453125 5.699219 5.699219 3.453125 8.46875 3.453125 Z M 8.46875 3.453125 "/>
</clipPath>
<clipPath id="clip31">
  <path d="M 29 34 L 35 34 L 35 41 L 29 41 Z M 29 34 "/>
</clipPath>
<clipPath id="clip32">
  <path d="M 8.46875 3.453125 L 39.53125 3.453125 C 42.300781 3.453125 44.546875 5.699219 44.546875 8.46875 L 44.546875 39.53125 C 44.546875 42.300781 42.300781 44.546875 39.53125 44.546875 L 8.46875 44.546875 C 5.699219 44.546875 3.453125 42.300781 3.453125 39.53125 L 3.453125 8.46875 C 3.453125 5.699219 5.699219 3.453125 8.46875 3.453125 Z M 8.46875 3.453125 "/>
</clipPath>
<clipPath id="clip33">
  <path d="M 34 34 L 41 34 L 41 41 L 34 41 Z M 34 34 "/>
</clipPath>
<clipPath id="clip34">
  <path d="M 8.46875 3.453125 L 39.53125 3.453125 C 42.300781 3.453125 44.546875 5.699219 44.546875 8.46875 L 44.546875 39.53125 C 44.546875 42.300781 42.300781 44.546875 39.53125 44.546875 L 8.46875 44.546875 C 5.699219 44.546875 3.453125 42.300781 3.453125 39.53125 L 3.453125 8.46875 C 3.453125 5.699219 5.699219 3.453125 8.46875 3.453125 Z M 8.46875 3.453125 "/>
</clipPath>
<clipPath id="clip35">
  <path d="M 40 34 L 45 34 L 45 41 L 40 41 Z M 40 34 "/>
</clipPath>
<clipPath id="clip36">
  <path d="M 8.46875 3.453125 L 39.53125 3.453125 C 42.300781 3.453125 44.546875 5.699219 44.546875 8.46875 L 44.546875 39.53125 C 44.546875 42.300781 42.300781 44.546875 39.53125 44.546875 L 8.46875 44.546875 C 5.699219 44.546875 3.453125 42.300781 3.453125 39.53125 L 3.453125 8.46875 C 3.453125 5.699219 5.699219 3.453125 8.46875 3.453125 Z M 8.46875 3.453125 "/>
</clipPath>
<clipPath id="clip37">
  <path d="M 3 29 L 8 29 L 8 35 L 3 35 Z M 3 29 "/>
</clipPath>
<clipPath id="clip38">
  <path d="M 8.46875 3.453125 L 39.53125 3.453125 C 42.300781 3.453125 44.546875 5.699219 44.546875 8.46875 L 44.546875 39.53125 C 44.546875 42.300781 42.300781 44.546875 39.53125 44.546875 L 8.46875 44.546875 C 5.699219 44.546875 3.453125 42.300781 3.453125 39.53125 L 3.453125 8.46875 C 3.453125 5.699219 5.699219 3.453125 8.46875 3.453125 Z M 8.46875 3.453125 "/>
</clipPath>
<clipPath id="clip39">
  <path d="M 7 29 L 14 29 L 14 35 L 7 35 Z M 7 29 "/>
</clipPath>
<clipPath id="clip40">
  <path d="M 8.46875 3.453125 L 39.53125 3.453125 C 42.300781 3.453125 44.546875 5.699219 44.546875 8.46875 L 44.546875 39.53125 C 44.546875 42.300781 42.300781 44.546875 39.53125 44.546875 L 8.46875 44.546875 C 5.699219 44.546875 3.453125 42.300781 3.453125 39.53125 L 3.453125 8.46875 C 3.453125 5.699219 5.699219 3.453125 8.46875 3.453125 Z M 8.46875 3.453125 "/>
</clipPath>
<clipPath id="clip41">
  <path d="M 13 29 L 19 29 L 19 35 L 13 35 Z M 13 29 "/>
</clipPath>
<clipPath id="clip42">
  <path d="M 8.46875 3.453125 L 39.53125 3.453125 C 42.300781 3.453125 44.546875 5.699219 44.546875 8.46875 L 44.546875 39.53125 C 44.546875 42.300781 42.300781 44.546875 39.53125 44.546875 L 8.46875 44.546875 C 5.699219 44.546875 3.453125 42.300781 3.453125 39.53125 L 3.453125 8.46875 C 3.453125 5.699219 5.699219 3.453125 8.46875 3.453125 Z M 8.46875 3.453125 "/>
</clipPath>
<clipPath id="clip43">
  <path d="M 18 29 L 24 29 L 24 35 L 18 35 Z M 18 29 "/>
</clipPath>
<clipPath id="clip44">
  <path d="M 8.46875 3.453125 L 39.53125 3.453125 C 42.300781 3.453125 44.546875 5.699219 44.546875 8.46875 L 44.546875 39.53125 C 44.546875 42.300781 42.300781 44.546875 39.53125 44.546875 L 8.46875 44.546875 C 5.699219 44.546875 3.453125 42.300781 3.453125 39.53125 L 3.453125 8.46875 C 3.453125 5.699219 5.699219 3.453125 8.46875 3.453125 Z M 8.46875 3.453125 "/>
</clipPath>
<clipPath id="clip45">
  <path d="M 24 29 L 30 29 L 30 35 L 24 35 Z M 24 29 "/>
</clipPath>
<clipPath id="clip46">
  <path d="M 8.46875 3.453125 L 39.53125 3.453125 C 42.300781 3.453125 44.546875 5.699219 44.546875 8.46875 L 44.546875 39.53125 C 44.546875 42.300781 42.300781 44.546875 39.53125 44.546875 L 8.46875 44.546875 C 5.699219 44.546875 3.453125 42.300781 3.453125 39.53125 L 3.453125 8.46875 C 3.453125 5.699219 5.699219 3.453125 8.46875 3.453125 Z M 8.46875 3.453125 "/>
</clipPath>
<clipPath id="clip47">
  <path d="M 29 29 L 35 29 L 35 35 L 29 35 Z M 29 29 "/>
</clipPath>
<clipPath id="clip48">
  <path d="M 8.46875 3.453125 L 39.53125 3.453125 C 42.300781 3.453125 44.546875 5.699219 44.546875 8.46875 L 44.546875 39.53125 C 44.546875 42.300781 42.300781 44.546875 39.53125 44.546875 L 8.46875 44.546875 C 5.699219 44.546875 3.453125 42.300781 3.453125 39.53125 L 3.453125 8.46875 C 3.453125 5.699219 5.699219 3.453125 8.46875 3.453125 Z M 8.46875 3.453125 "/>
</clipPath>
<clipPath id="clip49">
  <path d="M 34 29 L 41 29 L 41 35 L 34 35 Z M 34 29 "/>
</clipPath>
<clipPath id="clip50">
  <path d="M 8.46875 3.453125 L 39.53125 3.453125 C 42.300781 3.453125 44.546875 5.699219 44.546875 8.46875 L 44.546875 39.53125 C 44.546875 42.300781 42.300781 44.546875 39.53125 44.546875 L 8.46875 44.546875 C 5.699219 44.546875 3.453125 42.300781 3.453125 39.53125 L 3.453125 8.46875 C 3.453125 5.699219 5.699219 3.453125 8.46875 3.453125 Z M 8.46875 3.453125 "/>
</clipPath>
<clipPath id="clip51">
  <path d="M 40 29 L 45 29 L 45 35 L 40 35 Z M 40 29 "/>
</clipPath>
<clipPath id="clip52">
  <path d="M 8.46875 3.453125 L 39.53125 3.453125 C 42.300781 3.453125 44.546875 5.699219 44.546875 8.46875 L 44.546875 39.53125 C 44.546875 42.300781 42.300781 44.546875 39.53125 44.546875 L 8.46875 44.546875 C 5.699219 44.546875 3.453125 42.300781 3.453125 39.53125 L 3.453125 8.46875 C 3.453125 5.699219 5.699219 3.453125 8.46875 3.453125 Z M 8.46875 3.453125 "/>
</clipPath>
<clipPath id="clip53">
  <path d="M 3 24 L 8 24 L 8 30 L 3 30 Z M 3 24 "/>
</clipPath>
<clipPath id="clip54">
  <path d="M 8.46875 3.453125 L 39.53125 3.453125 C 42.300781 3.453125 44.546875 5.699219 44.546875 8.46875 L 44.546875 39.53125 C 44.546875 42.300781 42.300781 44.546875 39.53125 44.546875 L 8.46875 44.546875 C 5.699219 44.546875 3.453125 42.300781 3.453125 39.53125 L 3.453125 8.46875 C 3.453125 5.699219 5.699219 3.453125 8.46875 3.453125 Z M 8.46875 3.453125 "/>
</clipPath>
<clipPath id="clip55">
  <path d="M 7 24 L 14 24 L 14 30 L 7 30 Z M 7 24 "/>
</clipPath>
<clipPath id="clip56">
  <path d="M 8.46875 3.453125 L 39.53125 3.453125 C 42.300781 3.453125 44.546875 5.699219 44.546875 8.46875 L 44.546875 39.53125 C 44.546875 42.300781 42.300781 44.546875 39.53125 44.546875 L 8.46875 44.546875 C 5.699219 44.546875 3.453125 42.300781 3.453125 39.53125 L 3.453125 8.46875 C 3.453125 5.699219 5.699219 3.453125 8.46875 3.453125 Z M 8.46875 3.453125 "/>
</clipPath>
<clipPath id="clip57">
  <path d="M 13 24 L 19 24 L 19 30 L 13 30 Z M 13 24 "/>
</clipPath>
<clipPath id="clip58">
  <path d="M 8.46875 3.453125 L 39.53125 3.453125 C 42.300781 3.453125 44.546875 5.699219 44.546875 8.46875 L 44.546875 39.53125 C 44.546875 42.300781 42.300781 44.546875 39.53125 44.546875 L 8.46875 44.546875 C 5.699219 44.546875 3.453125 42.300781 3.453125 39.53125 L 3.453125 8.46875 C 3.453125 5.699219 5.699219 3.453125 8.46875 3.453125 Z M 8.46875 3.453125 "/>
</clipPath>
<clipPath id="clip59">
  <path d="M 18 24 L 24 24 L 24 30 L 18 30 Z M 18 24 "/>
</clipPath>
<clipPath id="clip60">
  <path d="M 8.46875 3.453125 L 39.53125 3.453125 C 42.300781 3.453125 44.546875 5.699219 44.546875 8.46875 L 44.546875 39.53125 C 44.546875 42.300781 42.300781 44.546875 39.53125 44.546875 L 8.46875 44.546875 C 5.699219 44.546875 3.453125 42.300781 3.453125 39.53125 L 3.453125 8.46875 C 3.453125 5.699219 5.699219 3.453125 8.46875 3.453125 Z M 8.46875 3.453125 "/>
</clipPath>
<clipPath id="clip61">
  <path d="M 24 24 L 30 24 L 30 30 L 24 30 Z M 24 24 "/>
</clipPath>
<clipPath id="clip62">
  <path d="M 8.46875 3.453125 L 39.53125 3.453125 C 42.300781 3.453125 44.546875 5.699219 44.546875 8.46875 L 44.546875 39.53125 C 44.546875 42.300781 42.300781 44.546875 39.53125 44.546875 L 8.46875 44.546875 C 5.699219 44.546875 3.453125 42.300781 3.453125 39.53125 L 3.453125 8.46875 C 3.453125 5.699219 5.699219 3.453125 8.46875 3.453125 Z M 8.46875 3.453125 "/>
</clipPath>
<clipPath id="clip63">
  <path d="M 29 24 L 35 24 L 35 30 L 29 30 Z M 29 24 "/>
</clipPath>
<clipPath id="clip64">
  <path d="M 8.46875 3.453125 L 39.53125 3.453125 C 42.300781 3.453125 44.546875 5.699219 44.546875 8.46875 L 44.546875 39.53125 C 44.546875 42.300781 42.300781 44.546875 39.53125 44.546875 L 8.46875 44.546875 C 5.699219 44.546875 3.453125 42.300781 3.453125 39.53125 L 3.453125 8.46875 C 3.453125 5.699219 5.699219 3.453125 8.46875 3.453125 Z M 8.46875 3.453125 "/>
</clipPath>
<clipPath id="clip65">
  <path d="M 34 24 L 41 24 L 41 30 L 34 30 Z M 34 24 "/>
</clipPath>
<clipPath id="clip66">
  <path d="M 8.46875 3.453125 L 39.53125 3.453125 C 42.300781 3.453125 44.546875 5.699219 44.546875 8.46875 L 44.546875 39.53125 C 44.546875 42.300781 42.300781 44.546875 39.53125 44.546875 L 8.46875 44.546875 C 5.699219 44.546875 3.453125 42.300781 3.453125 39.53125 L 3.453125 8.46875 C 3.453125 5.699219 5.699219 3.453125 8.46875 3.453125 Z M 8.46875 3.453125 "/>
</clipPath>
<clipPath id="clip67">
  <path d="M 40 24 L 45 24 L 45 30 L 40 30 Z M 40 24 "/>
</clipPath>
<clipPath id="clip68">
  <path d="M 8.46875 3.453125 L 39.53125 3.453125 C 42.300781 3.453125 44.546875 5.699219 44.546875 8.46875 L 44.546875 39.53125 C 44.546875 42.300781 42.300781 44.546875 39.53125 44.546875 L 8.46875 44.546875 C 5.699219 44.546875 3.453125 42.300781 3.453125 39.53125 L 3.453125 8.46875 C 3.453125 5.699219 5.699219 3.453125 8.46875 3.453125 Z M 8.46875 3.453125 "/>
</clipPath>
<clipPath id="clip69">
  <path d="M 3 3 L 24 3 L 24 24 L 3 24 Z M 3 3 "/>
</clipPath>
<clipPath id="clip70">
  <path d="M 8.46875 3.453125 L 39.53125 3.453125 C 42.300781 3.453125 44.546875 5.699219 44.546875 8.46875 L 44.546875 39.53125 C 44.546875 42.300781 42.300781 44.546875 39.53125 44.546875 L 8.46875 44.546875 C 5.699219 44.546875 3.453125 42.300781 3.453125 39.53125 L 3.453125 8.46875 C 3.453125 5.699219 5.699219 3.453125 8.46875 3.453125 Z M 8.46875 3.453125 "/>
</clipPath>
<clipPath id="clip71">
  <path d="M 3 18 L 8 18 L 8 24 L 3 24 Z M 3 18 "/>
</clipPath>
<clipPath id="clip72">
  <path d="M 8.46875 3.453125 L 39.53125 3.453125 C 42.300781 3.453125 44.546875 5.699219 44.546875 8.46875 L 44.546875 39.53125 C 44.546875 42.300781 42.300781 44.546875 39.53125 44.546875 L 8.46875 44.546875 C 5.699219 44.546875 3.453125 42.300781 3.453125 39.53125 L 3.453125 8.46875 C 3.453125 5.699219 5.699219 3.453125 8.46875 3.453125 Z M 8.46875 3.453125 "/>
</clipPath>
<clipPath id="clip73">
  <path d="M 7 18 L 14 18 L 14 24 L 7 24 Z M 7 18 "/>
</clipPath>
<clipPath id="clip74">
  <path d="M 8.46875 3.453125 L 39.53125 3.453125 C 42.300781 3.453125 44.546875 5.699219 44.546875 8.46875 L 44.546875 39.53125 C 44.546875 42.300781 42.300781 44.546875 39.53125 44.546875 L 8.46875 44.546875 C 5.699219 44.546875 3.453125 42.300781 3.453125 39.53125 L 3.453125 8.46875 C 3.453125 5.699219 5.699219 3.453125 8.46875 3.453125 Z M 8.46875 3.453125 "/>
</clipPath>
<clipPath id="clip75">
  <path d="M 13 18 L 19 18 L 19 24 L 13 24 Z M 13 18 "/>
</clipPath>
<clipPath id="clip76">
  <path d="M 8.46875 3.453125 L 39.53125 3.453125 C 42.300781 3.453125 44.546875 5.699219 44.546875 8.46875 L 44.546875 39.53125 C 44.546875 42.300781 42.300781 44.546875 39.53125 44.546875 L 8.46875 44.546875 C 5.699219 44.546875 3.453125 42.300781 3.453125 39.53125 L 3.453125 8.46875 C 3.453125 5.699219 5.699219 3.453125 8.46875 3.453125 Z M 8.46875 3.453125 "/>
</clipPath>
<clipPath id="clip77">
  <path d="M 18 18 L 24 18 L 24 24 L 18 24 Z M 18 18 "/>
</clipPath>
<clipPath id="clip78">
  <path d="M 8.46875 3.453125 L 39.53125 3.453125 C 42.300781 3.453125 44.546875 5.699219 44.546875 8.46875 L 44.546875 39.53125 C 44.546875 42.300781 42.300781 44.546875 39.53125 44.546875 L 8.46875 44.546875 C 5.699219 44.546875 3.453125 42.300781 3.453125 39.53125 L 3.453125 8.46875 C 3.453125 5.699219 5.699219 3.453125 8.46875 3.453125 Z M 8.46875 3.453125 "/>
</clipPath>
<clipPath id="clip79">
  <path d="M 24 18 L 30 18 L 30 24 L 24 24 Z M 24 18 "/>
</clipPath>
<clipPath id="clip80">
  <path d="M 8.46875 3.453125 L 39.53125 3.453125 C 42.300781 3.453125 44.546875 5.699219 44.546875 8.46875 L 44.546875 39.53125 C 44.546875 42.300781 42.300781 44.546875 39.53125 44.546875 L 8.46875 44.546875 C 5.699219 44.546875 3.453125 42.300781 3.453125 39.53125 L 3.453125 8.46875 C 3.453125 5.699219 5.699219 3.453125 8.46875 3.453125 Z M 8.46875 3.453125 "/>
</clipPath>
<clipPath id="clip81">
  <path d="M 29 18 L 35 18 L 35 24 L 29 24 Z M 29 18 "/>
</clipPath>
<clipPath id="clip82">
  <path d="M 8.46875 3.453125 L 39.53125 3.453125 C 42.300781 3.453125 44.546875 5.699219 44.546875 8.46875 L 44.546875 39.53125 C 44.546875 42.300781 42.300781 44.546875 39.53125 44.546875 L 8.46875 44.546875 C 5.699219 44.546875 3.453125 42.300781 3.453125 39.53125 L 3.453125 8.46875 C 3.453125 5.699219 5.699219 3.453125 8.46875 3.453125 Z M 8.46875 3.453125 "/>
</clipPath>
<clipPath id="clip83">
  <path d="M 34 18 L 41 18 L 41 24 L 34 24 Z M 34 18 "/>
</clipPath>
<clipPath id="clip84">
  <path d="M 8.46875 3.453125 L 39.53125 3.453125 C 42.300781 3.453125 44.546875 5.699219 44.546875 8.46875 L 44.546875 39.53125 C 44.546875 42.300781 42.300781 44.546875 39.53125 44.546875 L 8.46875 44.546875 C 5.699219 44.546875 3.453125 42.300781 3.453125 39.53125 L 3.453125 8.46875 C 3.453125 5.699219 5.699219 3.453125 8.46875 3.453125 Z M 8.46875 3.453125 "/>
</clipPath>
<clipPath id="clip85">
  <path d="M 40 18 L 45 18 L 45 24 L 40 24 Z M 40 18 "/>
</clipPath>
<clipPath id="clip86">
  <path d="M 8.46875 3.453125 L 39.53125 3.453125 C 42.300781 3.453125 44.546875 5.699219 44.546875 8.46875 L 44.546875 39.53125 C 44.546875 42.300781 42.300781 44.546875 39.53125 44.546875 L 8.46875 44.546875 C 5.699219 44.546875 3.453125 42.300781 3.453125 39.53125 L 3.453125 8.46875 C 3.453125 5.699219 5.699219 3.453125 8.46875 3.453125 Z M 8.46875 3.453125 "/>
</clipPath>
<clipPath id="clip87">
  <path d="M 3 13 L 8 13 L 8 19 L 3 19 Z M 3 13 "/>
</clipPath>
<clipPath id="clip88">
  <path d="M 8.46875 3.453125 L 39.53125 3.453125 C 42.300781 3.453125 44.546875 5.699219 44.546875 8.46875 L 44.546875 39.53125 C 44.546875 42.300781 42.300781 44.546875 39.53125 44.546875 L 8.46875 44.546875 C 5.699219 44.546875 3.453125 42.300781 3.453125 39.53125 L 3.453125 8.46875 C 3.453125 5.699219 5.699219 3.453125 8.46875 3.453125 Z M 8.46875 3.453125 "/>
</clipPath>
<clipPath id="clip89">
  <path d="M 7 13 L 14 13 L 14 19 L 7 19 Z M 7 13 "/>
</clipPath>
<clipPath id="clip90">
  <path d="M 8.46875 3.453125 L 39.53125 3.453125 C 42.300781 3.453125 44.546875 5.699219 44.546875 8.46875 L 44.546875 39.53125 C 44.546875 42.300781 42.300781 44.546875 39.53125 44.546875 L 8.46875 44.546875 C 5.699219 44.546875 3.453125 42.300781 3.453125 39.53125 L 3.453125 8.46875 C 3.453125 5.699219 5.699219 3.453125 8.46875 3.453125 Z M 8.46875 3.453125 "/>
</clipPath>
<clipPath id="clip91">
  <path d="M 13 13 L 19 13 L 19 19 L 13 19 Z M 13 13 "/>
</clipPath>
<clipPath id="clip92">
  <path d="M 8.46875 3.453125 L 39.53125 3.453125 C 42.300781 3.453125 44.546875 5.699219 44.546875 8.46875 L 44.546875 39.53125 C 44.546875 42.300781 42.300781 44.546875 39.53125 44.546875 L 8.46875 44.546875 C 5.699219 44.546875 3.453125 42.300781 3.453125 39.53125 L 3.453125 8.46875 C 3.453125 5.699219 5.699219 3.453125 8.46875 3.453125 Z M 8.46875 3.453125 "/>
</clipPath>
<clipPath id="clip93">
  <path d="M 18 13 L 24 13 L 24 19 L 18 19 Z M 18 13 "/>
</clipPath>
<clipPath id="clip94">
  <path d="M 8.46875 3.453125 L 39.53125 3.453125 C 42.300781 3.453125 44.546875 5.699219 44.546875 8.46875 L 44.546875 39.53125 C 44.546875 42.300781 42.300781 44.546875 39.53125 44.546875 L 8.46875 44.546875 C 5.699219 44.546875 3.453125 42.300781 3.453125 39.53125 L 3.453125 8.46875 C 3.453125 5.699219 5.699219 3.453125 8.46875 3.453125 Z M 8.46875 3.453125 "/>
</clipPath>
<clipPath id="clip95">
  <path d="M 24 13 L 30 13 L 30 19 L 24 19 Z M 24 13 "/>
</clipPath>
<clipPath id="clip96">
  <path d="M 8.46875 3.453125 L 39.53125 3.453125 C 42.300781 3.453125 44.546875 5.699219 44.546875 8.46875 L 44.546875 39.53125 C 44.546875 42.300781 42.300781 44.546875 39.53125 44.546875 L 8.46875 44.546875 C 5.699219 44.546875 3.453125 42.300781 3.453125 39.53125 L 3.453125 8.46875 C 3.453125 5.699219 5.699219 3.453125 8.46875 3.453125 Z M 8.46875 3.453125 "/>
</clipPath>
<clipPath id="clip97">
  <path d="M 29 13 L 35 13 L 35 19 L 29 19 Z M 29 13 "/>
</clipPath>
<clipPath id="clip98">
  <path d="M 8.46875 3.453125 L 39.53125 3.453125 C 42.300781 3.453125 44.546875 5.699219 44.546875 8.46875 L 44.546875 39.53125 C 44.546875 42.300781 42.300781 44.546875 39.53125 44.546875 L 8.46875 44.546875 C 5.699219 44.546875 3.453125 42.300781 3.453125 39.53125 L 3.453125 8.46875 C 3.453125 5.699219 5.699219 3.453125 8.46875 3.453125 Z M 8.46875 3.453125 "/>
</clipPath>
<clipPath id="clip99">
  <path d="M 34 13 L 41 13 L 41 19 L 34 19 Z M 34 13 "/>
</clipPath>
<clipPath id="clip100">
  <path d="M 8.46875 3.453125 L 39.53125 3.453125 C 42.300781 3.453125 44.546875 5.699219 44.546875 8.46875 L 44.546875 39.53125 C 44.546875 42.300781 42.300781 44.546875 39.53125 44.546875 L 8.46875 44.546875 C 5.699219 44.546875 3.453125 42.300781 3.453125 39.53125 L 3.453125 8.46875 C 3.453125 5.699219 5.699219 3.453125 8.46875 3.453125 Z M 8.46875 3.453125 "/>
</clipPath>
<clipPath id="clip101">
  <path d="M 40 13 L 45 13 L 45 19 L 40 19 Z M 40 13 "/>
</clipPath>
<clipPath id="clip102">
  <path d="M 8.46875 3.453125 L 39.53125 3.453125 C 42.300781 3.453125 44.546875 5.699219 44.546875 8.46875 L 44.546875 39.53125 C 44.546875 42.300781 42.300781 44.546875 39.53125 44.546875 L 8.46875 44.546875 C 5.699219 44.546875 3.453125 42.300781 3.453125 39.53125 L 3.453125 8.46875 C 3.453125 5.699219 5.699219 3.453125 8.46875 3.453125 Z M 8.46875 3.453125 "/>
</clipPath>
<clipPath id="clip103">
  <path d="M 3 7 L 8 7 L 8 14 L 3 14 Z M 3 7 "/>
</clipPath>
<clipPath id="clip104">
  <path d="M 8.46875 3.453125 L 39.53125 3.453125 C 42.300781 3.453125 44.546875 5.699219 44.546875 8.46875 L 44.546875 39.53125 C 44.546875 42.300781 42.300781 44.546875 39.53125 44.546875 L 8.46875 44.546875 C 5.699219 44.546875 3.453125 42.300781 3.453125 39.53125 L 3.453125 8.46875 C 3.453125 5.699219 5.699219 3.453125 8.46875 3.453125 Z M 8.46875 3.453125 "/>
</clipPath>
<clipPath id="clip105">
  <path d="M 7 7 L 14 7 L 14 14 L 7 14 Z M 7 7 "/>
</clipPath>
<clipPath id="clip106">
  <path d="M 8.46875 3.453125 L 39.53125 3.453125 C 42.300781 3.453125 44.546875 5.699219 44.546875 8.46875 L 44.546875 39.53125 C 44.546875 42.300781 42.300781 44.546875 39.53125 44.546875 L 8.46875 44.546875 C 5.699219 44.546875 3.453125 42.300781 3.453125 39.53125 L 3.453125 8.46875 C 3.453125 5.699219 5.699219 3.453125 8.46875 3.453125 Z M 8.46875 3.453125 "/>
</clipPath>
<clipPath id="clip107">
  <path d="M 13 7 L 19 7 L 19 14 L 13 14 Z M 13 7 "/>
</clipPath>
<clipPath id="clip108">
  <path d="M 8.46875 3.453125 L 39.53125 3.453125 C 42.300781 3.453125 44.546875 5.699219 44.546875 8.46875 L 44.546875 39.53125 C 44.546875 42.300781 42.300781 44.546875 39.53125 44.546875 L 8.46875 44.546875 C 5.699219 44.546875 3.453125 42.300781 3.453125 39.53125 L 3.453125 8.46875 C 3.453125 5.699219 5.699219 3.453125 8.46875 3.453125 Z M 8.46875 3.453125 "/>
</clipPath>
<clipPath id="clip109">
  <path d="M 18 7 L 24 7 L 24 14 L 18 14 Z M 18 7 "/>
</clipPath>
<clipPath id="clip110">
  <path d="M 8.46875 3.453125 L 39.53125 3.453125 C 42.300781 3.453125 44.546875 5.699219 44.546875 8.46875 L 44.546875 39.53125 C 44.546875 42.300781 42.300781 44.546875 39.53125 44.546875 L 8.46875 44.546875 C 5.699219 44.546875 3.453125 42.300781 3.453125 39.53125 L 3.453125 8.46875 C 3.453125 5.699219 5.699219 3.453125 8.46875 3.453125 Z M 8.46875 3.453125 "/>
</clipPath>
<clipPath id="clip111">
  <path d="M 24 7 L 30 7 L 30 14 L 24 14 Z M 24 7 "/>
</clipPath>
<clipPath id="clip112">
  <path d="M 8.46875 3.453125 L 39.53125 3.453125 C 42.300781 3.453125 44.546875 5.699219 44.546875 8.46875 L 44.546875 39.53125 C 44.546875 42.300781 42.300781 44.546875 39.53125 44.546875 L 8.46875 44.546875 C 5.699219 44.546875 3.453125 42.300781 3.453125 39.53125 L 3.453125 8.46875 C 3.453125 5.699219 5.699219 3.453125 8.46875 3.453125 Z M 8.46875 3.453125 "/>
</clipPath>
<clipPath id="clip113">
  <path d="M 29 7 L 35 7 L 35 14 L 29 14 Z M 29 7 "/>
</clipPath>
<clipPath id="clip114">
  <path d="M 8.46875 3.453125 L 39.53125 3.453125 C 42.300781 3.453125 44.546875 5.699219 44.546875 8.46875 L 44.546875 39.53125 C 44.546875 42.300781 42.300781 44.546875 39.53125 44.546875 L 8.46875 44.546875 C 5.699219 44.546875 3.453125 42.300781 3.453125 39.53125 L 3.453125 8.46875 C 3.453125 5.699219 5.699219 3.453125 8.46875 3.453125 Z M 8.46875 3.453125 "/>
</clipPath>
<clipPath id="clip115">
  <path d="M 34 7 L 41 7 L 41 14 L 34 14 Z M 34 7 "/>
</clipPath>
<clipPath id="clip116">
  <path d="M 8.46875 3.453125 L 39.53125 3.453125 C 42.300781 3.453125 44.546875 5.699219 44.546875 8.46875 L 44.546875 39.53125 C 44.546875 42.300781 42.300781 44.546875 39.53125 44.546875 L 8.46875 44.546875 C 5.699219 44.546875 3.453125 42.300781 3.453125 39.53125 L 3.453125 8.46875 C 3.453125 5.699219 5.699219 3.453125 8.46875 3.453125 Z M 8.46875 3.453125 "/>
</clipPath>
<clipPath id="clip117">
  <path d="M 40 7 L 45 7 L 45 14 L 40 14 Z M 40 7 "/>
</clipPath>
<clipPath id="clip118">
  <path d="M 8.46875 3.453125 L 39.53125 3.453125 C 42.300781 3.453125 44.546875 5.699219 44.546875 8.46875 L 44.546875 39.53125 C 44.546875 42.300781 42.300781 44.546875 39.53125 44.546875 L 8.46875 44.546875 C 5.699219 44.546875 3.453125 42.300781 3.453125 39.53125 L 3.453125 8.46875 C 3.453125 5.699219 5.699219 3.453125 8.46875 3.453125 Z M 8.46875 3.453125 "/>
</clipPath>
<clipPath id="clip119">
  <path d="M 3 3 L 8 3 L 8 8 L 3 8 Z M 3 3 "/>
</clipPath>
<clipPath id="clip120">
  <path d="M 8.46875 3.453125 L 39.53125 3.453125 C 42.300781 3.453125 44.546875 5.699219 44.546875 8.46875 L 44.546875 39.53125 C 44.546875 42.300781 42.300781 44.546875 39.53125 44.546875 L 8.46875 44.546875 C 5.699219 44.546875 3.453125 42.300781 3.453125 39.53125 L 3.453125 8.46875 C 3.453125 5.699219 5.699219 3.453125 8.46875 3.453125 Z M 8.46875 3.453125 "/>
</clipPath>
<clipPath id="clip121">
  <path d="M 7 3 L 14 3 L 14 8 L 7 8 Z M 7 3 "/>
</clipPath>
<clipPath id="clip122">
  <path d="M 8.46875 3.453125 L 39.53125 3.453125 C 42.300781 3.453125 44.546875 5.699219 44.546875 8.46875 L 44.546875 39.53125 C 44.546875 42.300781 42.300781 44.546875 39.53125 44.546875 L 8.46875 44.546875 C 5.699219 44.546875 3.453125 42.300781 3.453125 39.53125 L 3.453125 8.46875 C 3.453125 5.699219 5.699219 3.453125 8.46875 3.453125 Z M 8.46875 3.453125 "/>
</clipPath>
<clipPath id="clip123">
  <path d="M 13 3 L 19 3 L 19 8 L 13 8 Z M 13 3 "/>
</clipPath>
<clipPath id="clip124">
  <path d="M 8.46875 3.453125 L 39.53125 3.453125 C 42.300781 3.453125 44.546875 5.699219 44.546875 8.46875 L 44.546875 39.53125 C 44.546875 42.300781 42.300781 44.546875 39.53125 44.546875 L 8.46875 44.546875 C 5.699219 44.546875 3.453125 42.300781 3.453125 39.53125 L 3.453125 8.46875 C 3.453125 5.699219 5.699219 3.453125 8.46875 3.453125 Z M 8.46875 3.453125 "/>
</clipPath>
<clipPath id="clip125">
  <path d="M 18 3 L 24 3 L 24 8 L 18 8 Z M 18 3 "/>
</clipPath>
<clipPath id="clip126">
  <path d="M 8.46875 3.453125 L 39.53125 3.453125 C 42.300781 3.453125 44.546875 5.699219 44.546875 8.46875 L 44.546875 39.53125 C 44.546875 42.300781 42.300781 44.546875 39.53125 44.546875 L 8.46875 44.546875 C 5.699219 44.546875 3.453125 42.300781 3.453125 39.53125 L 3.453125 8.46875 C 3.453125 5.699219 5.699219 3.453125 8.46875 3.453125 Z M 8.46875 3.453125 "/>
</clipPath>
<clipPath id="clip127">
  <path d="M 24 3 L 30 3 L 30 8 L 24 8 Z M 24 3 "/>
</clipPath>
<clipPath id="clip128">
  <path d="M 8.46875 3.453125 L 39.53125 3.453125 C 42.300781 3.453125 44.546875 5.699219 44.546875 8.46875 L 44.546875 39.53125 C 44.546875 42.300781 42.300781 44.546875 39.53125 44.546875 L 8.46875 44.546875 C 5.699219 44.546875 3.453125 42.300781 3.453125 39.53125 L 3.453125 8.46875 C 3.453125 5.699219 5.699219 3.453125 8.46875 3.453125 Z M 8.46875 3.453125 "/>
</clipPath>
<clipPath id="clip129">
  <path d="M 29 3 L 35 3 L 35 8 L 29 8 Z M 29 3 "/>
</clipPath>
<clipPath id="clip130">
  <path d="M 8.46875 3.453125 L 39.53125 3.453125 C 42.300781 3.453125 44.546875 5.699219 44.546875 8.46875 L 44.546875 39.53125 C 44.546875 42.300781 42.300781 44.546875 39.53125 44.546875 L 8.46875 44.546875 C 5.699219 44.546875 3.453125 42.300781 3.453125 39.53125 L 3.453125 8.46875 C 3.453125 5.699219 5.699219 3.453125 8.46875 3.453125 Z M 8.46875 3.453125 "/>
</clipPath>
<clipPath id="clip131">
  <path d="M 34 3 L 41 3 L 41 8 L 34 8 Z M 34 3 "/>
</clipPath>
<clipPath id="clip132">
  <path d="M 8.46875 3.453125 L 39.53125 3.453125 C 42.300781 3.453125 44.546875 5.699219 44.546875 8.46875 L 44.546875 39.53125 C 44.546875 42.300781 42.300781 44.546875 39.53125 44.546875 L 8.46875 44.546875 C 5.699219 44.546875 3.453125 42.300781 3.453125 39.53125 L 3.453125 8.46875 C 3.453125 5.699219 5.699219 3.453125 8.46875 3.453125 Z M 8.46875 3.453125 "/>
</clipPath>
<clipPath id="clip133">
  <path d="M 40 3 L 45 3 L 45 8 L 40 8 Z M 40 3 "/>
</clipPath>
<clipPath id="clip134">
  <path d="M 8.46875 3.453125 L 39.53125 3.453125 C 42.300781 3.453125 44.546875 5.699219 44.546875 8.46875 L 44.546875 39.53125 C 44.546875 42.300781 42.300781 44.546875 39.53125 44.546875 L 8.46875 44.546875 C 5.699219 44.546875 3.453125 42.300781 3.453125 39.53125 L 3.453125 8.46875 C 3.453125 5.699219 5.699219 3.453125 8.46875 3.453125 Z M 8.46875 3.453125 "/>
</clipPath>
<clipPath id="clip135">
  <path d="M 3 13 L 45 13 L 45 45 L 3 45 Z M 3 13 "/>
</clipPath>
<clipPath id="clip136">
  <path d="M 8.46875 3.453125 L 39.53125 3.453125 C 42.300781 3.453125 44.546875 5.699219 44.546875 8.46875 L 44.546875 39.53125 C 44.546875 42.300781 42.300781 44.546875 39.53125 44.546875 L 8.46875 44.546875 C 5.699219 44.546875 3.453125 42.300781 3.453125 39.53125 L 3.453125 8.46875 C 3.453125 5.699219 5.699219 3.453125 8.46875 3.453125 Z M 8.46875 3.453125 "/>
</clipPath>
</defs>
<g id="surface1">
<path style="fill-rule:nonzero;fill:rgb(40.784314%,27.843137%,15.686275%);fill-opacity:1;stroke-width:28.071352;stroke-linecap:butt;stroke-linejoin:miter;stroke:rgb(40.784314%,27.843137%,15.686275%);stroke-opacity:1;stroke-miterlimit:4;" d="M 82.208333 26.083333 L 429.791667 26.083333 C 460.791667 26.083333 485.916667 51.208333 485.916667 82.208333 L 485.916667 429.791667 C 485.916667 460.791667 460.791667 485.916667 429.791667 485.916667 L 82.208333 485.916667 C 51.208333 485.916667 26.083333 460.791667 26.083333 429.791667 L 26.083333 82.208333 C 26.083333 51.208333 51.208333 26.083333 82.208333 26.083333 Z M 82.208333 26.083333 " transform="matrix(0.09375,0,0,0.09375,0,0)"/>
<g clip-path="url(#clip1)" clip-rule="nonzero">
<g clip-path="url(#clip2)" clip-rule="nonzero">
<path style=" stroke:none;fill-rule:nonzero;fill:rgb(45.882353%,74.117647%,45.098039%);fill-opacity:1;" d="M 2.558594 2.285156 L 45.441406 2.285156 L 45.441406 45.714844 L 2.558594 45.714844 Z M 2.558594 2.285156 "/>
</g>
</g>
<g clip-path="url(#clip3)" clip-rule="nonzero">
<g clip-path="url(#clip4)" clip-rule="nonzero">
<path style=" stroke:none;fill-rule:nonzero;fill:rgb(34.901961%,69.019608%,34.117647%);fill-opacity:1;" d="M 2.558594 24 L 24 24 L 24 45.714844 L 2.558594 45.714844 Z M 2.558594 24 "/>
</g>
</g>
<g clip-path="url(#clip5)" clip-rule="nonzero">
<g clip-path="url(#clip6)" clip-rule="nonzero">
<path style=" stroke:none;fill-rule:nonzero;fill:rgb(56.078431%,38.039216%,20%);fill-opacity:1;" d="M 2.558594 40.285156 L 7.917969 40.285156 L 7.917969 45.714844 L 2.558594 45.714844 Z M 2.558594 40.285156 "/>
</g>
</g>
<g clip-path="url(#clip7)" clip-rule="nonzero">
<g clip-path="url(#clip8)" clip-rule="nonzero">
<path style=" stroke:none;fill-rule:nonzero;fill:rgb(63.137255%,43.137255%,22.745098%);fill-opacity:1;" d="M 7.917969 40.285156 L 13.277344 40.285156 L 13.277344 45.714844 L 7.917969 45.714844 Z M 7.917969 40.285156 "/>
</g>
</g>
<g clip-path="url(#clip9)" clip-rule="nonzero">
<g clip-path="url(#clip10)" clip-rule="nonzero">
<path style=" stroke:none;fill-rule:nonzero;fill:rgb(52.156863%,36.078431%,18.823529%);fill-opacity:1;" d="M 13.277344 40.285156 L 18.640625 40.285156 L 18.640625 45.714844 L 13.277344 45.714844 Z M 13.277344 40.285156 "/>
</g>
</g>
<g clip-path="url(#clip11)" clip-rule="nonzero">
<g clip-path="url(#clip12)" clip-rule="nonzero">
<path style=" stroke:none;fill-rule:nonzero;fill:rgb(70.980392%,47.058824%,21.960784%);fill-opacity:1;" d="M 18.640625 40.285156 L 24 40.285156 L 24 45.714844 L 18.640625 45.714844 Z M 18.640625 40.285156 "/>
</g>
</g>
<g clip-path="url(#clip13)" clip-rule="nonzero">
<g clip-path="url(#clip14)" clip-rule="nonzero">
<path style=" stroke:none;fill-rule:nonzero;fill:rgb(58.039216%,40%,20.784314%);fill-opacity:1;" d="M 24 40.285156 L 29.359375 40.285156 L 29.359375 45.714844 L 24 45.714844 Z M 24 40.285156 "/>
</g>
</g>
<g clip-path="url(#clip15)" clip-rule="nonzero">
<g clip-path="url(#clip16)" clip-rule="nonzero">
<path style=" stroke:none;fill-rule:nonzero;fill:rgb(63.137255%,43.137255%,22.745098%);fill-opacity:1;" d="M 29.359375 40.285156 L 34.722656 40.285156 L 34.722656 45.714844 L 29.359375 45.714844 Z M 29.359375 40.285156 "/>
</g>
</g>
<g clip-path="url(#clip17)" clip-rule="nonzero">
<g clip-path="url(#clip18)" clip-rule="nonzero">
<path style=" stroke:none;fill-rule:nonzero;fill:rgb(58.039216%,40%,20.784314%);fill-opacity:1;" d="M 34.722656 40.285156 L 40.082031 40.285156 L 40.082031 45.714844 L 34.722656 45.714844 Z M 34.722656 40.285156 "/>
</g>
</g>
<g clip-path="url(#clip19)" clip-rule="nonzero">
<g clip-path="url(#clip20)" clip-rule="nonzero">
<path style=" stroke:none;fill-rule:nonzero;fill:rgb(63.137255%,43.137255%,22.745098%);fill-opacity:1;" d="M 40.082031 40.285156 L 45.441406 40.285156 L 45.441406 45.714844 L 40.082031 45.714844 Z M 40.082031 40.285156 "/>
</g>
</g>
<g clip-path="url(#clip21)" clip-rule="nonzero">
<g clip-path="url(#clip22)" clip-rule="nonzero">
<path style=" stroke:none;fill-rule:nonzero;fill:rgb(63.137255%,43.137255%,22.745098%);fill-opacity:1;" d="M 2.558594 34.859375 L 7.917969 34.859375 L 7.917969 40.285156 L 2.558594 40.285156 Z M 2.558594 34.859375 "/>
</g>
</g>
<g clip-path="url(#clip23)" clip-rule="nonzero">
<g clip-path="url(#clip24)" clip-rule="nonzero">
<path style=" stroke:none;fill-rule:nonzero;fill:rgb(58.039216%,43.137255%,16.862745%);fill-opacity:1;" d="M 7.917969 34.859375 L 13.277344 34.859375 L 13.277344 40.285156 L 7.917969 40.285156 Z M 7.917969 34.859375 "/>
</g>
</g>
<g clip-path="url(#clip25)" clip-rule="nonzero">
<g clip-path="url(#clip26)" clip-rule="nonzero">
<path style=" stroke:none;fill-rule:nonzero;fill:rgb(56.078431%,38.039216%,20%);fill-opacity:1;" d="M 13.277344 34.859375 L 18.640625 34.859375 L 18.640625 40.285156 L 13.277344 40.285156 Z M 13.277344 34.859375 "/>
</g>
</g>
<g clip-path="url(#clip27)" clip-rule="nonzero">
<g clip-path="url(#clip28)" clip-rule="nonzero">
<path style=" stroke:none;fill-rule:nonzero;fill:rgb(65.882353%,43.137255%,20%);fill-opacity:1;" d="M 18.640625 34.859375 L 24 34.859375 L 24 40.285156 L 18.640625 40.285156 Z M 18.640625 34.859375 "/>
</g>
</g>
<g clip-path="url(#clip29)" clip-rule="nonzero">
<g clip-path="url(#clip30)" clip-rule="nonzero">
<path style=" stroke:none;fill-rule:nonzero;fill:rgb(58.039216%,40%,20.784314%);fill-opacity:1;" d="M 24 34.859375 L 29.359375 34.859375 L 29.359375 40.285156 L 24 40.285156 Z M 24 34.859375 "/>
</g>
</g>
<g clip-path="url(#clip31)" clip-rule="nonzero">
<g clip-path="url(#clip32)" clip-rule="nonzero">
<path style=" stroke:none;fill-rule:nonzero;fill:rgb(56.078431%,38.039216%,20%);fill-opacity:1;" d="M 29.359375 34.859375 L 34.722656 34.859375 L 34.722656 40.285156 L 29.359375 40.285156 Z M 29.359375 34.859375 "/>
</g>
</g>
<g clip-path="url(#clip33)" clip-rule="nonzero">
<g clip-path="url(#clip34)" clip-rule="nonzero">
<path style=" stroke:none;fill-rule:nonzero;fill:rgb(56.078431%,38.039216%,20%);fill-opacity:1;" d="M 34.722656 34.859375 L 40.082031 34.859375 L 40.082031 40.285156 L 34.722656 40.285156 Z M 34.722656 34.859375 "/>
</g>
</g>
<g clip-path="url(#clip35)" clip-rule="nonzero">
<g clip-path="url(#clip36)" clip-rule="nonzero">
<path style=" stroke:none;fill-rule:nonzero;fill:rgb(67.058824%,45.882353%,24.705882%);fill-opacity:1;" d="M 40.082031 34.859375 L 45.441406 34.859375 L 45.441406 40.285156 L 40.082031 40.285156 Z M 40.082031 34.859375 "/>
</g>
</g>
<g clip-path="url(#clip37)" clip-rule="nonzero">
<g clip-path="url(#clip38)" clip-rule="nonzero">
<path style=" stroke:none;fill-rule:nonzero;fill:rgb(63.137255%,40.784314%,18.039216%);fill-opacity:1;" d="M 2.558594 29.429688 L 7.917969 29.429688 L 7.917969 34.859375 L 2.558594 34.859375 Z M 2.558594 29.429688 "/>
</g>
</g>
<g clip-path="url(#clip39)" clip-rule="nonzero">
<g clip-path="url(#clip40)" clip-rule="nonzero">
<path style=" stroke:none;fill-rule:nonzero;fill:rgb(63.137255%,43.137255%,22.745098%);fill-opacity:1;" d="M 7.917969 29.429688 L 13.277344 29.429688 L 13.277344 34.859375 L 7.917969 34.859375 Z M 7.917969 29.429688 "/>
</g>
</g>
<g clip-path="url(#clip41)" clip-rule="nonzero">
<g clip-path="url(#clip42)" clip-rule="nonzero">
<path style=" stroke:none;fill-rule:nonzero;fill:rgb(47.843137%,30.980392%,18.039216%);fill-opacity:1;" d="M 13.277344 29.429688 L 18.640625 29.429688 L 18.640625 34.859375 L 13.277344 34.859375 Z M 13.277344 29.429688 "/>
</g>
</g>
<g clip-path="url(#clip43)" clip-rule="nonzero">
<g clip-path="url(#clip44)" clip-rule="nonzero">
<path style=" stroke:none;fill-rule:nonzero;fill:rgb(63.137255%,43.137255%,22.745098%);fill-opacity:1;" d="M 18.640625 29.429688 L 24 29.429688 L 24 34.859375 L 18.640625 34.859375 Z M 18.640625 29.429688 "/>
</g>
</g>
<g clip-path="url(#clip45)" clip-rule="nonzero">
<g clip-path="url(#clip46)" clip-rule="nonzero">
<path style=" stroke:none;fill-rule:nonzero;fill:rgb(72.941176%,50.980392%,29.019608%);fill-opacity:1;" d="M 24 29.429688 L 29.359375 29.429688 L 29.359375 34.859375 L 24 34.859375 Z M 24 29.429688 "/>
</g>
</g>
<g clip-path="url(#clip47)" clip-rule="nonzero">
<g clip-path="url(#clip48)" clip-rule="nonzero">
<path style=" stroke:none;fill-rule:nonzero;fill:rgb(63.137255%,43.137255%,22.745098%);fill-opacity:1;" d="M 29.359375 29.429688 L 34.722656 29.429688 L 34.722656 34.859375 L 29.359375 34.859375 Z M 29.359375 29.429688 "/>
</g>
</g>
<g clip-path="url(#clip49)" clip-rule="nonzero">
<g clip-path="url(#clip50)" clip-rule="nonzero">
<path style=" stroke:none;fill-rule:nonzero;fill:rgb(52.156863%,40.784314%,22.745098%);fill-opacity:1;" d="M 34.722656 29.429688 L 40.082031 29.429688 L 40.082031 34.859375 L 34.722656 34.859375 Z M 34.722656 29.429688 "/>
</g>
</g>
<g clip-path="url(#clip51)" clip-rule="nonzero">
<g clip-path="url(#clip52)" clip-rule="nonzero">
<path style=" stroke:none;fill-rule:nonzero;fill:rgb(63.137255%,43.137255%,22.745098%);fill-opacity:1;" d="M 40.082031 29.429688 L 45.441406 29.429688 L 45.441406 34.859375 L 40.082031 34.859375 Z M 40.082031 29.429688 "/>
</g>
</g>
<g clip-path="url(#clip53)" clip-rule="nonzero">
<g clip-path="url(#clip54)" clip-rule="nonzero">
<path style=" stroke:none;fill-rule:nonzero;fill:rgb(63.137255%,43.137255%,22.745098%);fill-opacity:1;" d="M 2.558594 24 L 7.917969 24 L 7.917969 29.429688 L 2.558594 29.429688 Z M 2.558594 24 "/>
</g>
</g>
<g clip-path="url(#clip55)" clip-rule="nonzero">
<g clip-path="url(#clip56)" clip-rule="nonzero">
<path style=" stroke:none;fill-rule:nonzero;fill:rgb(58.039216%,40%,20.784314%);fill-opacity:1;" d="M 7.917969 24 L 13.277344 24 L 13.277344 29.429688 L 7.917969 29.429688 Z M 7.917969 24 "/>
</g>
</g>
<g clip-path="url(#clip57)" clip-rule="nonzero">
<g clip-path="url(#clip58)" clip-rule="nonzero">
<path style=" stroke:none;fill-rule:nonzero;fill:rgb(63.137255%,40.784314%,18.039216%);fill-opacity:1;" d="M 13.277344 24 L 18.640625 24 L 18.640625 29.429688 L 13.277344 29.429688 Z M 13.277344 24 "/>
</g>
</g>
<g clip-path="url(#clip59)" clip-rule="nonzero">
<g clip-path="url(#clip60)" clip-rule="nonzero">
<path style=" stroke:none;fill-rule:nonzero;fill:rgb(67.058824%,43.137255%,20%);fill-opacity:1;" d="M 18.640625 24 L 24 24 L 24 29.429688 L 18.640625 29.429688 Z M 18.640625 24 "/>
</g>
</g>
<g clip-path="url(#clip61)" clip-rule="nonzero">
<g clip-path="url(#clip62)" clip-rule="nonzero">
<path style=" stroke:none;fill-rule:nonzero;fill:rgb(56.078431%,38.039216%,20%);fill-opacity:1;" d="M 24 24 L 29.359375 24 L 29.359375 29.429688 L 24 29.429688 Z M 24 24 "/>
</g>
</g>
<g clip-path="url(#clip63)" clip-rule="nonzero">
<g clip-path="url(#clip64)" clip-rule="nonzero">
<path style=" stroke:none;fill-rule:nonzero;fill:rgb(50.980392%,32.941176%,18.823529%);fill-opacity:1;" d="M 29.359375 24 L 34.722656 24 L 34.722656 29.429688 L 29.359375 29.429688 Z M 29.359375 24 "/>
</g>
</g>
<g clip-path="url(#clip65)" clip-rule="nonzero">
<g clip-path="url(#clip66)" clip-rule="nonzero">
<path style=" stroke:none;fill-rule:nonzero;fill:rgb(63.137255%,43.137255%,22.745098%);fill-opacity:1;" d="M 34.722656 24 L 40.082031 24 L 40.082031 29.429688 L 34.722656 29.429688 Z M 34.722656 24 "/>
</g>
</g>
<g clip-path="url(#clip67)" clip-rule="nonzero">
<g clip-path="url(#clip68)" clip-rule="nonzero">
<path style=" stroke:none;fill-rule:nonzero;fill:rgb(67.058824%,45.882353%,24.705882%);fill-opacity:1;" d="M 40.082031 24 L 45.441406 24 L 45.441406 29.429688 L 40.082031 29.429688 Z M 40.082031 24 "/>
</g>
</g>
<g clip-path="url(#clip69)" clip-rule="nonzero">
<g clip-path="url(#clip70)" clip-rule="nonzero">
<path style=" stroke:none;fill-rule:nonzero;fill:rgb(34.901961%,69.019608%,34.117647%);fill-opacity:1;" d="M 2.558594 2.285156 L 24 2.285156 L 24 24 L 2.558594 24 Z M 2.558594 2.285156 "/>
</g>
</g>
<g clip-path="url(#clip71)" clip-rule="nonzero">
<g clip-path="url(#clip72)" clip-rule="nonzero">
<path style=" stroke:none;fill-rule:nonzero;fill:rgb(23.921569%,63.137255%,22.745098%);fill-opacity:1;" d="M 2.558594 18.570312 L 7.917969 18.570312 L 7.917969 24 L 2.558594 24 Z M 2.558594 18.570312 "/>
</g>
</g>
<g clip-path="url(#clip73)" clip-rule="nonzero">
<g clip-path="url(#clip74)" clip-rule="nonzero">
<path style=" stroke:none;fill-rule:nonzero;fill:rgb(40%,27.058824%,13.72549%);fill-opacity:1;" d="M 7.917969 18.570312 L 13.277344 18.570312 L 13.277344 24 L 7.917969 24 Z M 7.917969 18.570312 "/>
</g>
</g>
<g clip-path="url(#clip75)" clip-rule="nonzero">
<g clip-path="url(#clip76)" clip-rule="nonzero">
<path style=" stroke:none;fill-rule:nonzero;fill:rgb(63.137255%,40.784314%,18.039216%);fill-opacity:1;" d="M 13.277344 18.570312 L 18.640625 18.570312 L 18.640625 24 L 13.277344 24 Z M 13.277344 18.570312 "/>
</g>
</g>
<g clip-path="url(#clip77)" clip-rule="nonzero">
<g clip-path="url(#clip78)" clip-rule="nonzero">
<path style=" stroke:none;fill-rule:nonzero;fill:rgb(59.215686%,43.137255%,27.058824%);fill-opacity:1;" d="M 18.640625 18.570312 L 24 18.570312 L 24 24 L 18.640625 24 Z M 18.640625 18.570312 "/>
</g>
</g>
<g clip-path="url(#clip79)" clip-rule="nonzero">
<g clip-path="url(#clip80)" clip-rule="nonzero">
<path style=" stroke:none;fill-rule:nonzero;fill:rgb(63.137255%,40.784314%,18.039216%);fill-opacity:1;" d="M 24 18.570312 L 29.359375 18.570312 L 29.359375 24 L 24 24 Z M 24 18.570312 "/>
</g>
</g>
<g clip-path="url(#clip81)" clip-rule="nonzero">
<g clip-path="url(#clip82)" clip-rule="nonzero">
<path style=" stroke:none;fill-rule:nonzero;fill:rgb(22.745098%,50.980392%,21.960784%);fill-opacity:1;" d="M 29.359375 18.570312 L 34.722656 18.570312 L 34.722656 24 L 29.359375 24 Z M 29.359375 18.570312 "/>
</g>
</g>
<g clip-path="url(#clip83)" clip-rule="nonzero">
<g clip-path="url(#clip84)" clip-rule="nonzero">
<path style=" stroke:none;fill-rule:nonzero;fill:rgb(69.019608%,47.058824%,24.705882%);fill-opacity:1;" d="M 34.722656 18.570312 L 40.082031 18.570312 L 40.082031 24 L 34.722656 24 Z M 34.722656 18.570312 "/>
</g>
</g>
<g clip-path="url(#clip85)" clip-rule="nonzero">
<g clip-path="url(#clip86)" clip-rule="nonzero">
<path style=" stroke:none;fill-rule:nonzero;fill:rgb(63.137255%,43.137255%,22.745098%);fill-opacity:1;" d="M 40.082031 18.570312 L 45.441406 18.570312 L 45.441406 24 L 40.082031 24 Z M 40.082031 18.570312 "/>
</g>
</g>
<g clip-path="url(#clip87)" clip-rule="nonzero">
<g clip-path="url(#clip88)" clip-rule="nonzero">
<path style=" stroke:none;fill-rule:nonzero;fill:rgb(29.803922%,72.156863%,29.019608%);fill-opacity:1;" d="M 2.558594 13.140625 L 7.917969 13.140625 L 7.917969 18.570312 L 2.558594 18.570312 Z M 2.558594 13.140625 "/>
</g>
</g>
<g clip-path="url(#clip89)" clip-rule="nonzero">
<g clip-path="url(#clip90)" clip-rule="nonzero">
<path style=" stroke:none;fill-rule:nonzero;fill:rgb(58.039216%,40%,20.784314%);fill-opacity:1;" d="M 7.917969 13.140625 L 13.277344 13.140625 L 13.277344 18.570312 L 7.917969 18.570312 Z M 7.917969 13.140625 "/>
</g>
</g>
<g clip-path="url(#clip91)" clip-rule="nonzero">
<g clip-path="url(#clip92)" clip-rule="nonzero">
<path style=" stroke:none;fill-rule:nonzero;fill:rgb(47.843137%,30.980392%,18.039216%);fill-opacity:1;" d="M 13.277344 13.140625 L 18.640625 13.140625 L 18.640625 18.570312 L 13.277344 18.570312 Z M 13.277344 13.140625 "/>
</g>
</g>
<g clip-path="url(#clip93)" clip-rule="nonzero">
<g clip-path="url(#clip94)" clip-rule="nonzero">
<path style=" stroke:none;fill-rule:nonzero;fill:rgb(30.980392%,65.098039%,36.862745%);fill-opacity:1;" d="M 18.640625 13.140625 L 24 13.140625 L 24 18.570312 L 18.640625 18.570312 Z M 18.640625 13.140625 "/>
</g>
</g>
<g clip-path="url(#clip95)" clip-rule="nonzero">
<g clip-path="url(#clip96)" clip-rule="nonzero">
<path style=" stroke:none;fill-rule:nonzero;fill:rgb(25.882353%,76.078431%,24.705882%);fill-opacity:1;" d="M 24 13.140625 L 29.359375 13.140625 L 29.359375 18.570312 L 24 18.570312 Z M 24 13.140625 "/>
</g>
</g>
<g clip-path="url(#clip97)" clip-rule="nonzero">
<g clip-path="url(#clip98)" clip-rule="nonzero">
<path style=" stroke:none;fill-rule:nonzero;fill:rgb(22.745098%,50.980392%,21.960784%);fill-opacity:1;" d="M 29.359375 13.140625 L 34.722656 13.140625 L 34.722656 18.570312 L 29.359375 18.570312 Z M 29.359375 13.140625 "/>
</g>
</g>
<g clip-path="url(#clip99)" clip-rule="nonzero">
<g clip-path="url(#clip100)" clip-rule="nonzero">
<path style=" stroke:none;fill-rule:nonzero;fill:rgb(60%,47.058824%,21.960784%);fill-opacity:1;" d="M 34.722656 13.140625 L 40.082031 13.140625 L 40.082031 18.570312 L 34.722656 18.570312 Z M 34.722656 13.140625 "/>
</g>
</g>
<g clip-path="url(#clip101)" clip-rule="nonzero">
<g clip-path="url(#clip102)" clip-rule="nonzero">
<path style=" stroke:none;fill-rule:nonzero;fill:rgb(20.784314%,47.843137%,20.784314%);fill-opacity:1;" d="M 40.082031 13.140625 L 45.441406 13.140625 L 45.441406 18.570312 L 40.082031 18.570312 Z M 40.082031 13.140625 "/>
</g>
</g>
<g clip-path="url(#clip103)" clip-rule="nonzero">
<g clip-path="url(#clip104)" clip-rule="nonzero">
<path style=" stroke:none;fill-rule:nonzero;fill:rgb(27.843137%,58.039216%,27.843137%);fill-opacity:1;" d="M 2.558594 7.714844 L 7.917969 7.714844 L 7.917969 13.140625 L 2.558594 13.140625 Z M 2.558594 7.714844 "/>
</g>
</g>
<g clip-path="url(#clip105)" clip-rule="nonzero">
<g clip-path="url(#clip106)" clip-rule="nonzero">
<path style=" stroke:none;fill-rule:nonzero;fill:rgb(27.058824%,65.882353%,25.882353%);fill-opacity:1;" d="M 7.917969 7.714844 L 13.277344 7.714844 L 13.277344 13.140625 L 7.917969 13.140625 Z M 7.917969 7.714844 "/>
</g>
</g>
<g clip-path="url(#clip107)" clip-rule="nonzero">
<g clip-path="url(#clip108)" clip-rule="nonzero">
<path style=" stroke:none;fill-rule:nonzero;fill:rgb(22.745098%,50.980392%,21.960784%);fill-opacity:1;" d="M 13.277344 7.714844 L 18.640625 7.714844 L 18.640625 13.140625 L 13.277344 13.140625 Z M 13.277344 7.714844 "/>
</g>
</g>
<g clip-path="url(#clip109)" clip-rule="nonzero">
<g clip-path="url(#clip110)" clip-rule="nonzero">
<path style=" stroke:none;fill-rule:nonzero;fill:rgb(29.803922%,72.156863%,29.019608%);fill-opacity:1;" d="M 18.640625 7.714844 L 24 7.714844 L 24 13.140625 L 18.640625 13.140625 Z M 18.640625 7.714844 "/>
</g>
</g>
<g clip-path="url(#clip111)" clip-rule="nonzero">
<g clip-path="url(#clip112)" clip-rule="nonzero">
<path style=" stroke:none;fill-rule:nonzero;fill:rgb(27.843137%,58.039216%,27.843137%);fill-opacity:1;" d="M 24 7.714844 L 29.359375 7.714844 L 29.359375 13.140625 L 24 13.140625 Z M 24 7.714844 "/>
</g>
</g>
<g clip-path="url(#clip113)" clip-rule="nonzero">
<g clip-path="url(#clip114)" clip-rule="nonzero">
<path style=" stroke:none;fill-rule:nonzero;fill:rgb(27.058824%,65.882353%,25.882353%);fill-opacity:1;" d="M 29.359375 7.714844 L 34.722656 7.714844 L 34.722656 13.140625 L 29.359375 13.140625 Z M 29.359375 7.714844 "/>
</g>
</g>
<g clip-path="url(#clip115)" clip-rule="nonzero">
<g clip-path="url(#clip116)" clip-rule="nonzero">
<path style=" stroke:none;fill-rule:nonzero;fill:rgb(22.745098%,63.137255%,22.745098%);fill-opacity:1;" d="M 34.722656 7.714844 L 40.082031 7.714844 L 40.082031 13.140625 L 34.722656 13.140625 Z M 34.722656 7.714844 "/>
</g>
</g>
<g clip-path="url(#clip117)" clip-rule="nonzero">
<g clip-path="url(#clip118)" clip-rule="nonzero">
<path style=" stroke:none;fill-rule:nonzero;fill:rgb(27.843137%,58.039216%,27.843137%);fill-opacity:1;" d="M 40.082031 7.714844 L 45.441406 7.714844 L 45.441406 13.140625 L 40.082031 13.140625 Z M 40.082031 7.714844 "/>
</g>
</g>
<g clip-path="url(#clip119)" clip-rule="nonzero">
<g clip-path="url(#clip120)" clip-rule="nonzero">
<path style=" stroke:none;fill-rule:nonzero;fill:rgb(23.921569%,69.019608%,22.745098%);fill-opacity:1;" d="M 2.558594 2.285156 L 7.917969 2.285156 L 7.917969 7.714844 L 2.558594 7.714844 Z M 2.558594 2.285156 "/>
</g>
</g>
<g clip-path="url(#clip121)" clip-rule="nonzero">
<g clip-path="url(#clip122)" clip-rule="nonzero">
<path style=" stroke:none;fill-rule:nonzero;fill:rgb(27.843137%,58.039216%,27.843137%);fill-opacity:1;" d="M 7.917969 2.285156 L 13.277344 2.285156 L 13.277344 7.714844 L 7.917969 7.714844 Z M 7.917969 2.285156 "/>
</g>
</g>
<g clip-path="url(#clip123)" clip-rule="nonzero">
<g clip-path="url(#clip124)" clip-rule="nonzero">
<path style=" stroke:none;fill-rule:nonzero;fill:rgb(31.764706%,54.117647%,31.764706%);fill-opacity:1;" d="M 13.277344 2.285156 L 18.640625 2.285156 L 18.640625 7.714844 L 13.277344 7.714844 Z M 13.277344 2.285156 "/>
</g>
</g>
<g clip-path="url(#clip125)" clip-rule="nonzero">
<g clip-path="url(#clip126)" clip-rule="nonzero">
<path style=" stroke:none;fill-rule:nonzero;fill:rgb(22.745098%,50.980392%,21.960784%);fill-opacity:1;" d="M 18.640625 2.285156 L 24 2.285156 L 24 7.714844 L 18.640625 7.714844 Z M 18.640625 2.285156 "/>
</g>
</g>
<g clip-path="url(#clip127)" clip-rule="nonzero">
<g clip-path="url(#clip128)" clip-rule="nonzero">
<path style=" stroke:none;fill-rule:nonzero;fill:rgb(22.745098%,50.980392%,21.960784%);fill-opacity:1;" d="M 24 2.285156 L 29.359375 2.285156 L 29.359375 7.714844 L 24 7.714844 Z M 24 2.285156 "/>
</g>
</g>
<g clip-path="url(#clip129)" clip-rule="nonzero">
<g clip-path="url(#clip130)" clip-rule="nonzero">
<path style=" stroke:none;fill-rule:nonzero;fill:rgb(27.843137%,58.039216%,27.843137%);fill-opacity:1;" d="M 29.359375 2.285156 L 34.722656 2.285156 L 34.722656 7.714844 L 29.359375 7.714844 Z M 29.359375 2.285156 "/>
</g>
</g>
<g clip-path="url(#clip131)" clip-rule="nonzero">
<g clip-path="url(#clip132)" clip-rule="nonzero">
<path style=" stroke:none;fill-rule:nonzero;fill:rgb(27.058824%,69.019608%,25.882353%);fill-opacity:1;" d="M 34.722656 2.285156 L 40.082031 2.285156 L 40.082031 7.714844 L 34.722656 7.714844 Z M 34.722656 2.285156 "/>
</g>
</g>
<g clip-path="url(#clip133)" clip-rule="nonzero">
<g clip-path="url(#clip134)" clip-rule="nonzero">
<path style=" stroke:none;fill-rule:nonzero;fill:rgb(27.058824%,65.882353%,25.882353%);fill-opacity:1;" d="M 40.082031 2.285156 L 45.441406 2.285156 L 45.441406 7.714844 L 40.082031 7.714844 Z M 40.082031 2.285156 "/>
</g>
</g>
<g clip-path="url(#clip135)" clip-rule="nonzero">
<g clip-path="url(#clip136)" clip-rule="nonzero">
<path style=" stroke:none;fill-rule:nonzero;fill:rgb(61.176471%,41.960784%,24.705882%);fill-opacity:0.756863;" d="M 2.5625 24.003906 L 2.5625 45.714844 L 45.445312 45.714844 L 45.445312 18.570312 L 40.082031 18.566406 L 40.082031 13.140625 L 34.726562 13.140625 L 34.726562 24 L 29.359375 24 L 29.359375 18.558594 L 18.644531 18.570312 L 18.648438 13.125 L 7.929688 13.136719 L 7.921875 23.996094 Z M 2.5625 24.003906 "/>
</g>
</g>
</g>
</svg>
