
<svg xmlns="http://www.w3.org/2000/svg" xmlns:xlink="http://www.w3.org/1999/xlink" width="48px" height="48px" viewBox="0 0 48 48" version="1.1">
<g id="surface1">
<path style="fill-rule:nonzero;fill:rgb(100%,100%,100%);fill-opacity:0.976471;stroke-width:28.636707;stroke-linecap:butt;stroke-linejoin:miter;stroke:rgb(9.803922%,72.941176%,61.176471%);stroke-opacity:1;stroke-miterlimit:4;" d="M 78.708333 21.458333 L 433.291667 21.458333 C 464.916667 21.458333 490.541667 47.083333 490.541667 78.708333 L 490.541667 433.291667 C 490.541667 464.916667 464.916667 490.541667 433.291667 490.541667 L 78.708333 490.541667 C 47.083333 490.541667 21.458333 464.916667 21.458333 433.291667 L 21.458333 78.708333 C 21.458333 47.083333 47.083333 21.458333 78.708333 21.458333 Z M 78.708333 21.458333 " transform="matrix(0.09375,0,0,0.09375,0,0)"/>
<path style=" stroke:none;fill-rule:nonzero;fill:rgb(9.803922%,72.941176%,61.176471%);fill-opacity:1;" d="M 37.136719 12.953125 C 36.867188 12.71875 36.550781 12.601562 36.183594 12.601562 L 11.816406 12.601562 C 11.449219 12.601562 11.132812 12.71875 10.867188 12.953125 C 10.597656 13.183594 10.464844 13.460938 10.464844 13.777344 L 10.464844 27.886719 C 10.464844 28.9375 10.699219 29.984375 11.171875 31.019531 C 11.644531 32.054688 12.230469 32.972656 12.925781 33.773438 C 13.625 34.574219 14.457031 35.355469 15.421875 36.117188 C 16.390625 36.875 17.28125 37.503906 18.097656 38.007812 C 18.917969 38.511719 19.769531 38.984375 20.65625 39.429688 C 21.546875 39.878906 22.175781 40.179688 22.550781 40.339844 C 22.925781 40.5 23.222656 40.621094 23.449219 40.707031 C 23.617188 40.78125 23.800781 40.816406 24 40.816406 C 24.199219 40.816406 24.378906 40.78125 24.550781 40.707031 C 24.777344 40.621094 25.074219 40.5 25.449219 40.339844 C 25.820312 40.179688 26.453125 39.878906 27.34375 39.429688 C 28.230469 38.984375 29.082031 38.511719 29.902344 38.007812 C 30.71875 37.503906 31.609375 36.875 32.578125 36.117188 C 33.542969 35.355469 34.375 34.574219 35.070312 33.773438 C 35.769531 32.972656 36.355469 32.054688 36.828125 31.019531 C 37.300781 29.984375 37.535156 28.9375 37.535156 27.886719 L 37.535156 13.777344 C 37.535156 13.460938 37.402344 13.183594 37.136719 12.953125 Z M 33.476562 27.886719 C 33.476562 30.042969 31.820312 32.246094 28.503906 34.5 C 27.179688 35.40625 25.679688 36.242188 24 37.015625 L 24 16.128906 L 33.476562 16.128906 Z M 33.476562 27.886719 "/>
<path style=" stroke:none;fill-rule:nonzero;fill:rgb(9.803922%,72.941176%,61.176471%);fill-opacity:1;" d="M 23.996094 7.183594 C 23.425781 7.183594 22.851562 7.378906 22.410156 7.761719 L 11.128906 12.507812 C 10.25 13.273438 10.242188 14.507812 11.113281 15.269531 L 11.40625 15.523438 L 36.59375 15.523438 L 36.871094 15.28125 C 37.75 14.511719 37.757812 13.28125 36.886719 12.519531 L 25.574219 7.75 C 25.136719 7.367188 24.566406 7.179688 23.996094 7.183594 Z M 23.996094 7.183594 "/>
<path style=" stroke:none;fill-rule:nonzero;fill:rgb(0%,50.196078%,0%);fill-opacity:1;" d="M 20.101562 27.589844 L 30.425781 18.621094 C 30.988281 18.136719 31.820312 18.066406 32.285156 18.46875 L 32.660156 18.796875 C 33.125 19.203125 33.046875 19.921875 32.484375 20.410156 L 22.164062 29.378906 C 21.601562 29.863281 20.769531 29.933594 20.304688 29.53125 L 19.925781 29.203125 C 19.460938 28.796875 19.542969 28.078125 20.101562 27.589844 Z M 20.101562 27.589844 "/>
<path style=" stroke:none;fill-rule:nonzero;fill:rgb(0%,50.196078%,0%);fill-opacity:1;" d="M 17.464844 23.488281 L 21.84375 27.292969 C 22.351562 27.730469 22.339844 28.453125 21.816406 28.902344 L 21.640625 29.054688 C 21.121094 29.507812 20.289062 29.519531 19.785156 29.078125 L 15.40625 25.277344 C 14.902344 24.835938 14.914062 24.117188 15.433594 23.664062 L 15.609375 23.511719 C 16.128906 23.058594 16.960938 23.050781 17.464844 23.488281 Z M 17.464844 23.488281 "/>
<path style=" stroke:none;fill-rule:nonzero;fill:rgb(0%,50.196078%,0%);fill-opacity:1;" d="M 31.515625 18.207031 C 31.386719 18.207031 31.253906 18.222656 31.125 18.257812 C 32.058594 18.425781 32.773438 19 32.933594 19.71875 C 33.019531 19.375 32.933594 19.035156 32.660156 18.796875 L 32.285156 18.46875 C 32.082031 18.292969 31.808594 18.207031 31.515625 18.207031 Z M 24 24.203125 L 20.101562 27.589844 C 19.539062 28.078125 19.460938 28.796875 19.925781 29.203125 L 20.304688 29.53125 C 20.769531 29.933594 21.597656 29.867188 22.164062 29.378906 L 24 27.78125 Z M 24 24.203125 "/>
<path style=" stroke:none;fill-rule:nonzero;fill:rgb(0%,50.196078%,0%);fill-opacity:1;" d="M 17.464844 23.488281 L 21.84375 27.292969 C 22.351562 27.730469 22.339844 28.453125 21.816406 28.902344 L 21.640625 29.054688 C 21.121094 29.507812 20.289062 29.519531 19.785156 29.078125 L 15.40625 25.277344 C 14.902344 24.835938 14.914062 24.117188 15.433594 23.664062 L 15.609375 23.511719 C 16.128906 23.058594 16.960938 23.050781 17.464844 23.488281 Z M 17.464844 23.488281 "/>
</g>
</svg>
