
<svg xmlns="http://www.w3.org/2000/svg" xmlns:xlink="http://www.w3.org/1999/xlink" width="48px" height="48px" viewBox="0 0 48 48" version="1.1">
<g id="surface1">
<path style="fill-rule:nonzero;fill:rgb(100%,100%,100%);fill-opacity:1;stroke-width:18.73;stroke-linecap:butt;stroke-linejoin:miter;stroke:rgb(23.921569%,32.941176%,24.705882%);stroke-opacity:1;stroke-miterlimit:4;" d="M 78.625 31 L 433.375 31 C 459.666667 31 481 52.333333 481 78.625 L 481 433.375 C 481 459.666667 459.666667 481 433.375 481 L 78.625 481 C 52.333333 481 31 459.666667 31 433.375 L 31 78.625 C 31 52.333333 52.333333 31 78.625 31 Z M 78.625 31 " transform="matrix(0.09375,0,0,0.09375,0,0)"/>
<path style=" stroke:none;fill-rule:nonzero;fill:rgb(84.313725%,84.313725%,84.313725%);fill-opacity:1;" d="M 12.367188 33.792969 L 14.65625 33.792969 L 14.65625 37.800781 L 12.367188 37.800781 Z M 12.367188 33.792969 "/>
<path style=" stroke:none;fill-rule:nonzero;fill:rgb(84.313725%,84.313725%,84.313725%);fill-opacity:1;" d="M 14.324219 33.785156 L 16.613281 33.785156 L 16.613281 37.789062 L 14.324219 37.789062 Z M 14.324219 33.785156 "/>
<path style=" stroke:none;fill-rule:nonzero;fill:rgb(84.313725%,84.313725%,84.313725%);fill-opacity:1;" d="M 15.886719 33.785156 L 18.175781 33.785156 L 18.175781 37.789062 L 15.886719 37.789062 Z M 15.886719 33.785156 "/>
<path style=" stroke:none;fill-rule:nonzero;fill:rgb(97.254902%,87.058824%,40.784314%);fill-opacity:1;" d="M 12.675781 33.785156 L 14.960938 33.785156 L 14.960938 37.789062 L 12.675781 37.789062 Z M 12.675781 33.785156 "/>
<path style=" stroke:none;fill-rule:nonzero;fill:rgb(97.254902%,87.058824%,40.784314%);fill-opacity:1;" d="M 15.554688 33.785156 L 17.84375 33.785156 L 17.84375 37.789062 L 15.554688 37.789062 Z M 15.554688 33.785156 "/>
<path style=" stroke:none;fill-rule:nonzero;fill:rgb(43.921569%,80%,70.196078%);fill-opacity:1;" d="M 10.964844 16.964844 L 40.96875 16.964844 C 41.96875 16.964844 42.78125 17.777344 42.78125 18.777344 L 42.78125 33.113281 C 42.78125 34.113281 41.96875 34.925781 40.96875 34.925781 L 10.964844 34.925781 C 9.964844 34.925781 9.152344 34.113281 9.152344 33.113281 L 9.152344 18.777344 C 9.152344 17.777344 9.964844 16.964844 10.964844 16.964844 Z M 10.964844 16.964844 "/>
<path style=" stroke:none;fill-rule:nonzero;fill:rgb(84.313725%,84.313725%,84.313725%);fill-opacity:1;" d="M 4.59375 11.855469 L 4.59375 13.417969 L 8.957031 13.417969 L 8.957031 34.925781 L 10.582031 34.925781 L 10.582031 11.859375 L 9.878906 11.859375 L 9.878906 11.855469 Z M 4.59375 11.855469 "/>
<path style=" stroke:none;fill-rule:nonzero;fill:rgb(9.803922%,63.137255%,52.941176%);fill-opacity:1;" d="M 28.101562 22.246094 L 28.101562 21.460938 L 26.632812 21.460938 L 26.632812 18.824219 L 13.183594 18.824219 L 13.183594 21.460938 L 11.714844 21.460938 L 11.714844 22.246094 L 13.183594 22.246094 L 13.183594 24.0625 L 11.714844 24.0625 L 11.714844 24.847656 L 13.183594 24.847656 L 13.183594 26.820312 L 11.714844 26.820312 L 11.714844 27.605469 L 13.183594 27.605469 L 13.183594 29.179688 L 11.714844 29.179688 L 11.714844 29.964844 L 13.183594 29.964844 L 13.183594 32.273438 L 26.632812 32.273438 L 26.632812 29.964844 L 28.101562 29.964844 L 28.101562 29.179688 L 26.632812 29.179688 L 26.632812 27.605469 L 28.101562 27.605469 L 28.101562 26.820312 L 26.632812 26.820312 L 26.632812 24.847656 L 28.101562 24.847656 L 28.101562 24.058594 L 26.632812 24.058594 L 26.632812 22.246094 Z M 28.101562 22.246094 "/>
<path style=" stroke:none;fill-rule:nonzero;fill:rgb(9.803922%,63.137255%,52.941176%);fill-opacity:1;" d="M 31.699219 20.921875 L 31.445312 20.929688 C 31.21875 20.9375 31.175781 20.945312 31.058594 21.003906 C 30.894531 21.082031 30.714844 21.261719 30.632812 21.429688 L 30.570312 21.558594 L 30.5625 25.742188 C 30.558594 28.75 30.5625 29.957031 30.578125 30.039062 C 30.632812 30.285156 30.875 30.550781 31.136719 30.644531 C 31.222656 30.675781 31.320312 30.6875 31.484375 30.6875 L 31.710938 30.6875 L 31.742188 30.617188 C 31.796875 30.488281 31.894531 30.417969 32.027344 30.40625 C 32.171875 30.394531 32.277344 30.457031 32.34375 30.59375 L 32.386719 30.6875 L 38.777344 30.6875 L 38.824219 30.597656 C 38.882812 30.476562 38.960938 30.417969 39.09375 30.40625 C 39.273438 30.390625 39.453125 30.515625 39.453125 30.65625 C 39.453125 30.6875 39.472656 30.691406 39.574219 30.683594 C 39.824219 30.664062 40.117188 30.445312 40.246094 30.1875 L 40.308594 30.058594 L 40.316406 25.851562 C 40.320312 21.707031 40.320312 21.644531 40.277344 21.515625 C 40.167969 21.195312 39.828125 20.925781 39.527344 20.925781 C 39.46875 20.925781 39.453125 20.9375 39.453125 20.96875 C 39.453125 21.023438 39.355469 21.140625 39.277344 21.183594 C 39.195312 21.222656 39.070312 21.222656 38.992188 21.183594 C 38.914062 21.144531 38.820312 21.039062 38.800781 20.976562 L 38.785156 20.925781 L 32.386719 20.929688 L 32.34375 21.023438 C 32.222656 21.277344 31.875 21.277344 31.75 21.023438 Z M 31.699219 20.921875 "/>
<path style=" stroke:none;fill-rule:nonzero;fill:rgb(90.196078%,90.196078%,90.196078%);fill-opacity:1;" d="M 34.09375 23.132812 L 36.773438 23.132812 C 37.136719 23.132812 37.429688 23.425781 37.429688 23.789062 L 37.429688 24.015625 C 37.429688 24.378906 37.136719 24.675781 36.773438 24.675781 L 34.09375 24.675781 C 33.730469 24.675781 33.4375 24.378906 33.4375 24.015625 L 33.4375 23.789062 C 33.4375 23.425781 33.730469 23.132812 34.09375 23.132812 Z M 34.09375 23.132812 "/>
<path style=" stroke:none;fill-rule:nonzero;fill:rgb(90.196078%,90.196078%,90.196078%);fill-opacity:1;" d="M 34.445312 21.425781 L 34.445312 23.117188 C 34.445312 23.222656 34.359375 23.304688 34.257812 23.304688 L 34.191406 23.304688 C 34.085938 23.304688 34.003906 23.222656 34.003906 23.117188 L 34.003906 21.425781 C 34.003906 21.320312 34.085938 21.238281 34.191406 21.238281 L 34.257812 21.238281 C 34.359375 21.238281 34.445312 21.320312 34.445312 21.425781 Z M 34.445312 21.425781 "/>
<path style=" stroke:none;fill-rule:nonzero;fill:rgb(90.196078%,90.196078%,90.196078%);fill-opacity:1;" d="M 35.25 21.421875 L 35.25 23.117188 C 35.25 23.222656 35.164062 23.304688 35.0625 23.304688 L 34.996094 23.304688 C 34.894531 23.304688 34.808594 23.222656 34.808594 23.117188 L 34.808594 21.421875 C 34.808594 21.320312 34.894531 21.234375 34.996094 21.234375 L 35.0625 21.234375 C 35.164062 21.234375 35.25 21.320312 35.25 21.421875 Z M 35.25 21.421875 "/>
<path style=" stroke:none;fill-rule:nonzero;fill:rgb(90.196078%,90.196078%,90.196078%);fill-opacity:1;" d="M 36.046875 21.421875 L 36.046875 23.117188 C 36.046875 23.222656 35.960938 23.304688 35.855469 23.304688 L 35.792969 23.304688 C 35.6875 23.304688 35.605469 23.222656 35.605469 23.117188 L 35.605469 21.421875 C 35.605469 21.320312 35.6875 21.234375 35.792969 21.234375 L 35.855469 21.234375 C 35.960938 21.234375 36.046875 21.320312 36.046875 21.421875 Z M 36.046875 21.421875 "/>
<path style=" stroke:none;fill-rule:nonzero;fill:rgb(90.196078%,90.196078%,90.196078%);fill-opacity:1;" d="M 36.847656 21.417969 L 36.847656 23.113281 C 36.847656 23.21875 36.761719 23.304688 36.660156 23.304688 L 36.59375 23.304688 C 36.492188 23.304688 36.40625 23.21875 36.40625 23.113281 L 36.40625 21.417969 C 36.40625 21.316406 36.492188 21.230469 36.59375 21.230469 L 36.660156 21.230469 C 36.761719 21.230469 36.847656 21.316406 36.847656 21.417969 Z M 36.847656 21.417969 "/>
<path style=" stroke:none;fill-rule:nonzero;fill:rgb(90.196078%,90.196078%,90.196078%);fill-opacity:1;" d="M 38.105469 24.421875 L 38.105469 27.097656 C 38.105469 27.460938 37.808594 27.757812 37.445312 27.757812 L 37.21875 27.757812 C 36.855469 27.757812 36.558594 27.460938 36.558594 27.097656 L 36.558594 24.421875 C 36.558594 24.058594 36.855469 23.761719 37.21875 23.761719 L 37.445312 23.761719 C 37.808594 23.761719 38.105469 24.058594 38.105469 24.421875 Z M 38.105469 24.421875 "/>
<path style=" stroke:none;fill-rule:nonzero;fill:rgb(90.196078%,90.196078%,90.196078%);fill-opacity:1;" d="M 39.808594 24.769531 L 38.117188 24.769531 C 38.015625 24.769531 37.929688 24.6875 37.929688 24.582031 L 37.929688 24.519531 C 37.929688 24.414062 38.015625 24.328125 38.117188 24.328125 L 39.808594 24.328125 C 39.914062 24.328125 40 24.414062 40 24.519531 L 40 24.582031 C 40 24.6875 39.914062 24.769531 39.808594 24.769531 Z M 39.808594 24.769531 "/>
<path style=" stroke:none;fill-rule:nonzero;fill:rgb(90.196078%,90.196078%,90.196078%);fill-opacity:1;" d="M 39.8125 25.578125 L 38.117188 25.578125 C 38.015625 25.578125 37.929688 25.492188 37.929688 25.386719 L 37.929688 25.324219 C 37.929688 25.21875 38.015625 25.136719 38.117188 25.136719 L 39.8125 25.136719 C 39.917969 25.136719 40 25.21875 40 25.324219 L 40 25.386719 C 40 25.492188 39.917969 25.578125 39.8125 25.578125 Z M 39.8125 25.578125 "/>
<path style=" stroke:none;fill-rule:nonzero;fill:rgb(90.196078%,90.196078%,90.196078%);fill-opacity:1;" d="M 39.8125 26.371094 L 38.117188 26.371094 C 38.015625 26.371094 37.929688 26.289062 37.929688 26.183594 L 37.929688 26.117188 C 37.929688 26.015625 38.015625 25.929688 38.117188 25.929688 L 39.8125 25.929688 C 39.917969 25.929688 40 26.015625 40 26.117188 L 40 26.183594 C 40 26.289062 39.917969 26.371094 39.8125 26.371094 Z M 39.8125 26.371094 "/>
<path style=" stroke:none;fill-rule:nonzero;fill:rgb(90.196078%,90.196078%,90.196078%);fill-opacity:1;" d="M 39.816406 27.175781 L 38.121094 27.175781 C 38.019531 27.175781 37.933594 27.089844 37.933594 26.984375 L 37.933594 26.921875 C 37.933594 26.816406 38.019531 26.734375 38.121094 26.734375 L 39.816406 26.734375 C 39.921875 26.734375 40.003906 26.816406 40.003906 26.921875 L 40.003906 26.984375 C 40.003906 27.089844 39.921875 27.175781 39.816406 27.175781 Z M 39.816406 27.175781 "/>
<path style=" stroke:none;fill-rule:nonzero;fill:rgb(90.196078%,90.196078%,90.196078%);fill-opacity:1;" d="M 32.765625 24.4375 L 32.765625 27.117188 C 32.765625 27.480469 33.058594 27.773438 33.425781 27.773438 L 33.652344 27.773438 C 34.015625 27.773438 34.308594 27.480469 34.308594 27.117188 L 34.308594 24.4375 C 34.308594 24.074219 34.015625 23.78125 33.652344 23.78125 L 33.425781 23.78125 C 33.058594 23.78125 32.765625 24.074219 32.765625 24.4375 Z M 32.765625 24.4375 "/>
<path style=" stroke:none;fill-rule:nonzero;fill:rgb(90.196078%,90.196078%,90.196078%);fill-opacity:1;" d="M 31.058594 24.789062 L 32.75 24.789062 C 32.855469 24.789062 32.941406 24.703125 32.941406 24.601562 L 32.941406 24.535156 C 32.941406 24.429688 32.855469 24.347656 32.75 24.347656 L 31.058594 24.347656 C 30.957031 24.347656 30.871094 24.429688 30.871094 24.535156 L 30.871094 24.601562 C 30.871094 24.703125 30.957031 24.789062 31.058594 24.789062 Z M 31.058594 24.789062 "/>
<path style=" stroke:none;fill-rule:nonzero;fill:rgb(90.196078%,90.196078%,90.196078%);fill-opacity:1;" d="M 31.054688 25.59375 L 32.75 25.59375 C 32.855469 25.59375 32.941406 25.507812 32.941406 25.40625 L 32.941406 25.339844 C 32.941406 25.238281 32.855469 25.152344 32.75 25.152344 L 31.054688 25.152344 C 30.953125 25.152344 30.867188 25.238281 30.867188 25.339844 L 30.867188 25.40625 C 30.867188 25.507812 30.953125 25.59375 31.054688 25.59375 Z M 31.054688 25.59375 "/>
<path style=" stroke:none;fill-rule:nonzero;fill:rgb(90.196078%,90.196078%,90.196078%);fill-opacity:1;" d="M 31.054688 26.390625 L 32.75 26.390625 C 32.855469 26.390625 32.941406 26.304688 32.941406 26.199219 L 32.941406 26.136719 C 32.941406 26.03125 32.855469 25.949219 32.75 25.949219 L 31.054688 25.949219 C 30.953125 25.949219 30.867188 26.03125 30.867188 26.136719 L 30.867188 26.199219 C 30.867188 26.304688 30.953125 26.390625 31.054688 26.390625 Z M 31.054688 26.390625 "/>
<path style=" stroke:none;fill-rule:nonzero;fill:rgb(90.196078%,90.196078%,90.196078%);fill-opacity:1;" d="M 31.054688 27.191406 L 32.75 27.191406 C 32.851562 27.191406 32.9375 27.105469 32.9375 27.003906 L 32.9375 26.9375 C 32.9375 26.835938 32.851562 26.75 32.75 26.75 L 31.054688 26.75 C 30.949219 26.75 30.867188 26.835938 30.867188 26.9375 L 30.867188 27.003906 C 30.867188 27.105469 30.949219 27.191406 31.054688 27.191406 Z M 31.054688 27.191406 "/>
<path style=" stroke:none;fill-rule:nonzero;fill:rgb(90.196078%,90.196078%,90.196078%);fill-opacity:1;" d="M 34.109375 28.496094 L 36.785156 28.496094 C 37.152344 28.496094 37.445312 28.199219 37.445312 27.835938 L 37.445312 27.609375 C 37.445312 27.246094 37.152344 26.949219 36.785156 26.949219 L 34.109375 26.949219 C 33.746094 26.949219 33.449219 27.246094 33.449219 27.609375 L 33.449219 27.835938 C 33.449219 28.199219 33.746094 28.496094 34.109375 28.496094 Z M 34.109375 28.496094 "/>
<path style=" stroke:none;fill-rule:nonzero;fill:rgb(90.196078%,90.196078%,90.196078%);fill-opacity:1;" d="M 34.457031 30.199219 L 34.457031 28.507812 C 34.457031 28.402344 34.375 28.320312 34.269531 28.320312 L 34.207031 28.320312 C 34.101562 28.320312 34.015625 28.402344 34.015625 28.507812 L 34.015625 30.199219 C 34.015625 30.304688 34.101562 30.386719 34.207031 30.386719 L 34.269531 30.386719 C 34.375 30.386719 34.457031 30.304688 34.457031 30.199219 Z M 34.457031 30.199219 "/>
<path style=" stroke:none;fill-rule:nonzero;fill:rgb(90.196078%,90.196078%,90.196078%);fill-opacity:1;" d="M 35.265625 30.203125 L 35.265625 28.507812 C 35.265625 28.402344 35.179688 28.320312 35.074219 28.320312 L 35.011719 28.320312 C 34.90625 28.320312 34.824219 28.402344 34.824219 28.507812 L 34.824219 30.203125 C 34.824219 30.308594 34.90625 30.390625 35.011719 30.390625 L 35.074219 30.390625 C 35.179688 30.390625 35.265625 30.308594 35.265625 30.203125 Z M 35.265625 30.203125 "/>
<path style=" stroke:none;fill-rule:nonzero;fill:rgb(90.196078%,90.196078%,90.196078%);fill-opacity:1;" d="M 36.058594 30.203125 L 36.058594 28.507812 C 36.058594 28.402344 35.976562 28.320312 35.871094 28.320312 L 35.804688 28.320312 C 35.703125 28.320312 35.617188 28.402344 35.617188 28.507812 L 35.617188 30.203125 C 35.617188 30.308594 35.703125 30.390625 35.804688 30.390625 L 35.871094 30.390625 C 35.976562 30.390625 36.058594 30.308594 36.058594 30.203125 Z M 36.058594 30.203125 "/>
<path style=" stroke:none;fill-rule:nonzero;fill:rgb(90.196078%,90.196078%,90.196078%);fill-opacity:1;" d="M 36.863281 30.207031 L 36.863281 28.511719 C 36.863281 28.40625 36.777344 28.324219 36.671875 28.324219 L 36.609375 28.324219 C 36.503906 28.324219 36.421875 28.40625 36.421875 28.511719 L 36.421875 30.207031 C 36.421875 30.308594 36.503906 30.394531 36.609375 30.394531 L 36.671875 30.394531 C 36.777344 30.394531 36.863281 30.308594 36.863281 30.207031 Z M 36.863281 30.207031 "/>
<path style=" stroke:none;fill-rule:nonzero;fill:rgb(12.941176%,20.784314%,32.941176%);fill-opacity:1;" d="M 33.433594 27.898438 C 33.292969 27.828125 33.300781 27.953125 33.300781 25.785156 L 33.304688 23.804688 L 33.355469 23.75 C 33.382812 23.722656 33.421875 23.6875 33.441406 23.675781 C 33.492188 23.648438 37.375 23.648438 37.425781 23.675781 C 37.445312 23.6875 37.488281 23.722656 37.515625 23.75 L 37.566406 23.804688 L 37.566406 25.78125 C 37.566406 27.9375 37.574219 27.824219 37.445312 27.894531 C 37.359375 27.9375 33.523438 27.941406 33.433594 27.898438 Z M 37.234375 27.550781 C 37.269531 27.480469 37.238281 27.386719 37.179688 27.363281 C 37.027344 27.308594 36.929688 27.523438 37.074219 27.597656 C 37.140625 27.632812 37.207031 27.613281 37.234375 27.550781 Z M 33.832031 27.578125 C 33.882812 27.53125 33.863281 27.410156 33.800781 27.371094 C 33.691406 27.296875 33.574219 27.421875 33.632812 27.554688 C 33.652344 27.59375 33.675781 27.605469 33.730469 27.605469 C 33.773438 27.605469 33.816406 27.59375 33.832031 27.578125 Z M 33.832031 24.183594 C 33.875 24.140625 33.863281 24.015625 33.816406 23.992188 C 33.71875 23.9375 33.613281 23.996094 33.613281 24.101562 C 33.613281 24.175781 33.652344 24.210938 33.738281 24.210938 C 33.773438 24.210938 33.816406 24.199219 33.832031 24.183594 Z M 37.21875 24.175781 C 37.265625 24.132812 37.261719 24.058594 37.21875 24.007812 C 37.113281 23.894531 36.9375 24.03125 37.019531 24.160156 C 37.0625 24.222656 37.164062 24.230469 37.21875 24.175781 Z M 37.21875 24.175781 "/>
<path style=" stroke:none;fill-rule:evenodd;fill:rgb(97.254902%,87.058824%,40.784314%);fill-opacity:1;" d="M 33.542969 29.816406 L 34.230469 29.816406 L 34.230469 30.691406 L 33.542969 30.691406 Z M 33.542969 29.816406 "/>
<path style=" stroke:none;fill-rule:evenodd;fill:rgb(97.254902%,87.058824%,40.784314%);fill-opacity:1;" d="M 33.84375 29.171875 L 33.929688 29.171875 C 34.097656 29.171875 34.230469 29.308594 34.230469 29.472656 L 34.230469 29.800781 C 34.230469 29.96875 34.097656 30.101562 33.929688 30.101562 L 33.84375 30.101562 C 33.679688 30.101562 33.542969 29.96875 33.542969 29.800781 L 33.542969 29.472656 C 33.542969 29.308594 33.679688 29.171875 33.84375 29.171875 Z M 33.84375 29.171875 "/>
<path style=" stroke:none;fill-rule:evenodd;fill:rgb(97.254902%,87.058824%,40.784314%);fill-opacity:1;" d="M 34.476562 29.816406 L 35.164062 29.816406 L 35.164062 30.6875 L 34.476562 30.6875 Z M 34.476562 29.816406 "/>
<path style=" stroke:none;fill-rule:evenodd;fill:rgb(97.254902%,87.058824%,40.784314%);fill-opacity:1;" d="M 34.777344 29.171875 L 34.859375 29.171875 C 35.027344 29.171875 35.164062 29.308594 35.164062 29.472656 L 35.164062 29.800781 C 35.164062 29.96875 35.027344 30.101562 34.859375 30.101562 L 34.777344 30.101562 C 34.609375 30.101562 34.476562 29.96875 34.476562 29.800781 L 34.476562 29.472656 C 34.476562 29.308594 34.609375 29.171875 34.777344 29.171875 Z M 34.777344 29.171875 "/>
<path style=" stroke:none;fill-rule:evenodd;fill:rgb(97.254902%,87.058824%,40.784314%);fill-opacity:1;" d="M 35.71875 29.816406 L 36.40625 29.816406 L 36.40625 30.691406 L 35.71875 30.691406 Z M 35.71875 29.816406 "/>
<path style=" stroke:none;fill-rule:evenodd;fill:rgb(97.254902%,87.058824%,40.784314%);fill-opacity:1;" d="M 36.019531 29.171875 L 36.101562 29.171875 C 36.269531 29.171875 36.40625 29.308594 36.40625 29.476562 L 36.40625 29.800781 C 36.40625 29.96875 36.269531 30.105469 36.101562 30.105469 L 36.019531 30.105469 C 35.851562 30.105469 35.714844 29.96875 35.714844 29.800781 L 35.714844 29.476562 C 35.714844 29.308594 35.851562 29.171875 36.019531 29.171875 Z M 36.019531 29.171875 "/>
<path style=" stroke:none;fill-rule:evenodd;fill:rgb(97.254902%,87.058824%,40.784314%);fill-opacity:1;" d="M 36.625 29.816406 L 37.316406 29.816406 L 37.316406 30.691406 L 36.625 30.691406 Z M 36.625 29.816406 "/>
<path style=" stroke:none;fill-rule:evenodd;fill:rgb(97.254902%,87.058824%,40.784314%);fill-opacity:1;" d="M 36.929688 29.171875 L 37.011719 29.171875 C 37.179688 29.171875 37.316406 29.308594 37.316406 29.472656 L 37.316406 29.800781 C 37.316406 29.96875 37.179688 30.101562 37.011719 30.101562 L 36.929688 30.101562 C 36.761719 30.101562 36.625 29.96875 36.625 29.800781 L 36.625 29.472656 C 36.625 29.308594 36.761719 29.171875 36.929688 29.171875 Z M 36.929688 29.171875 "/>
<path style=" stroke:none;fill-rule:nonzero;fill:rgb(90.196078%,90.196078%,90.196078%);fill-opacity:1;" d="M 16.769531 22.359375 L 16.769531 29.476562 L 17.613281 29.476562 L 17.613281 22.359375 Z M 18.050781 22.359375 L 18.050781 29.476562 L 18.894531 29.476562 L 18.894531 22.359375 Z M 19.335938 22.359375 L 19.335938 29.476562 L 20.179688 29.476562 L 20.179688 22.359375 Z M 20.652344 22.359375 L 20.652344 29.476562 L 21.5 29.476562 L 21.5 22.359375 Z M 21.964844 22.359375 L 21.964844 29.476562 L 22.8125 29.476562 L 22.8125 22.359375 Z M 21.964844 22.359375 "/>
</g>
</svg>
