
<svg xmlns="http://www.w3.org/2000/svg" xmlns:xlink="http://www.w3.org/1999/xlink" width="48px" height="48px" viewBox="0 0 48 48" version="1.1">
<g id="surface1">
<path style="fill-rule:nonzero;fill:rgb(100%,100%,100%);fill-opacity:1;stroke-width:27.389011;stroke-linecap:butt;stroke-linejoin:miter;stroke:rgb(59.215686%,85.098039%,31.764706%);stroke-opacity:1;stroke-miterlimit:4;" d="M 86.458333 31.666667 L 425.541667 31.666667 C 455.791667 31.666667 480.333333 56.208333 480.333333 86.458333 L 480.333333 425.541667 C 480.333333 455.791667 455.791667 480.333333 425.541667 480.333333 L 86.458333 480.333333 C 56.208333 480.333333 31.666667 455.791667 31.666667 425.541667 L 31.666667 86.458333 C 31.666667 56.208333 56.208333 31.666667 86.458333 31.666667 Z M 86.458333 31.666667 " transform="matrix(0.09375,0,0,0.09375,0,0)"/>
<path style="fill-rule:nonzero;fill:rgb(100%,100%,100%);fill-opacity:1;stroke-width:3.6;stroke-linecap:butt;stroke-linejoin:miter;stroke:rgb(58.039216%,85.098039%,31.764706%);stroke-opacity:1;stroke-miterlimit:4;" d="M 50.857017 112.025619 C 38.472464 108.773809 29.491933 100.83109 25.631274 89.705748 L 24.77335 86.038814 L 24.067638 63.663593 C 23.306576 39.337287 23.735538 39.240424 21.327815 37.344688 C 20.345353 36.583626 19.611966 36.431414 16.733768 36.431414 C 14.85187 36.431414 12.319609 36.306877 11.10191 36.154664 L 8.887912 35.891752 L 8.887912 16.076467 L 48.850581 16.256354 C 92.45251 16.463917 91.054924 16.394729 97.558544 18.954665 C 105.778013 22.164962 112.95967 28.889982 116.460555 36.611301 C 119.145028 42.519909 119.089678 41.772685 119.283402 74.692072 C 119.449452 101.951926 119.40794 104.857799 118.785253 106.075498 C 117.609066 108.344847 115.062968 110.821757 112.862807 111.859569 L 110.759509 112.842031 L 82.281956 112.828193 C 56.032238 112.800518 53.583003 112.745168 50.857017 112.025619 Z M 92.037386 98.935354 C 101.100941 97.980567 108.088873 90.992635 109.334248 81.638492 C 109.638672 79.341469 109.735535 73.073086 109.59716 63.912668 C 109.361923 46.878718 109.292735 46.532781 104.671014 41.883385 C 101.253154 38.410175 98.596356 37.275501 93.933122 37.275501 C 90.25235 37.275501 87.623227 37.99505 84.855729 39.780086 L 82.80778 41.094648 L 79.33457 39.295774 C 75.889036 37.496901 75.847523 37.483063 71.378014 37.483063 C 67.503517 37.483063 66.60408 37.621438 64.860556 38.479362 C 61.857821 39.959974 58.841249 43.128759 57.263775 46.449756 L 55.921538 49.314117 L 55.672463 75.273247 L 65.414056 75.273247 L 65.414056 63.345331 C 65.414056 52.192314 65.469406 51.33439 66.244305 50.047504 C 68.153879 46.920231 72.554201 45.951607 75.086461 48.096418 C 77.591047 50.199716 77.646397 50.462628 77.646397 63.428356 L 77.646397 75.273247 L 87.263452 75.273247 L 87.401827 63.054744 C 87.540202 51.431252 87.595552 50.794728 88.439638 49.660054 C 91.165624 45.993119 96.20247 45.979282 98.803918 49.618541 C 99.78638 50.988453 99.78638 51.05764 99.910917 66.098991 L 100.049292 81.195692 L 98.886943 83.326666 C 97.572382 85.734389 95.552108 87.505587 92.549373 88.903174 C 90.529099 89.830286 90.349212 89.844123 71.640926 89.761098 C 50.690967 89.678073 51.369004 89.761098 48.297082 86.786038 C 47.439157 85.941951 46.290646 84.29529 45.750984 83.119103 L 44.740847 80.974292 L 44.740847 28.95917 L 41.516712 28.68242 C 39.731676 28.530207 37.642215 28.40567 36.867315 28.40567 L 35.455891 28.40567 L 35.483566 50.89159 C 35.511241 63.262306 35.663454 76.131171 35.829504 79.493681 C 36.120091 85.319264 36.203116 85.748226 37.531515 88.225137 C 39.122826 91.227872 42.789761 95.102369 45.571096 96.735193 C 49.625481 99.115241 51.299817 99.295128 70.68614 99.308966 C 80.427732 99.322803 90.03095 99.156754 92.037386 98.935354 Z M 92.037386 98.935354 " transform="matrix(0.282295,0,0,0.282295,5.89724,5.805449)"/>
<path style="fill-rule:nonzero;fill:rgb(58.039216%,85.098039%,31.764706%);fill-opacity:1;stroke-width:0.3;stroke-linecap:butt;stroke-linejoin:miter;stroke:rgb(58.039216%,85.098039%,31.764706%);stroke-opacity:1;stroke-miterlimit:4;" d="M 58.439961 99.115241 C 51.521217 98.949191 49.597806 98.644766 46.87182 97.30253 C 44.879222 96.320068 43.661523 95.406794 41.696599 93.44187 C 39.192014 90.923447 37.144065 87.851525 36.549053 85.706714 C 35.857179 83.229803 35.718804 78.345169 35.621941 51.791027 L 35.538916 28.433345 L 35.967879 28.433345 C 36.645916 28.433345 42.997323 28.84847 43.84141 28.95917 L 44.616309 29.042195 L 44.616309 80.863593 L 45.280509 82.302691 C 45.640284 83.091428 46.290646 84.267615 46.719608 84.917977 C 47.64672 86.301726 49.542456 88.169787 50.552592 88.681774 C 52.489841 89.664236 56.184451 89.830286 75.556936 89.761098 C 92.092736 89.705748 90.958062 89.774936 93.130547 88.681774 C 96.188633 87.145813 97.904481 85.416127 99.648005 82.095129 L 100.132317 81.168017 L 99.966267 66.929241 C 99.869405 58.765122 99.73103 52.261502 99.634167 51.694165 C 99.440443 50.393441 99.080668 49.701566 98.070531 48.69143 C 95.621296 46.242194 91.912848 46.228356 89.297563 48.649917 C 88.273589 49.604704 87.941489 50.185878 87.720089 51.417415 C 87.540202 52.427552 87.277289 62.528919 87.277289 69.032539 C 87.277289 71.4541 87.235777 73.82031 87.180427 74.31846 L 87.083565 75.217897 L 77.687909 75.217897 L 77.618722 63.884993 C 77.549534 52.109289 77.521859 51.541952 76.91301 50.130528 C 76.539398 49.258767 75.100299 47.875018 74.090162 47.376868 C 73.121538 46.920231 71.211964 46.809531 70.063453 47.141631 C 68.375279 47.625943 66.590243 49.037367 66.009068 50.338091 C 65.483243 51.541952 65.414056 52.759651 65.331031 64.106393 L 65.248006 75.217897 L 55.672463 75.217897 L 55.741651 74.304623 C 55.783163 73.806473 55.852351 67.98089 55.893863 61.36657 L 55.976888 49.341792 L 57.042375 47.155468 C 58.647524 43.889821 60.584772 41.46826 62.950983 39.766249 C 64.002632 39.032862 65.621618 38.174938 66.521055 37.898188 C 67.309792 37.649113 74.228537 37.524576 75.404723 37.732138 C 76.02741 37.842838 77.217435 38.368662 79.50062 39.503337 C 81.271819 40.388936 82.780105 41.108485 82.835455 41.108485 C 82.904643 41.108485 83.568842 40.707198 84.329904 40.222886 C 87.097402 38.424012 89.048488 37.732138 92.203436 37.427713 C 95.316871 37.137126 98.139719 37.579926 100.381392 38.700762 C 102.235615 39.641711 104.671014 41.731172 106.483725 43.959008 C 109.20971 47.280006 109.444947 49.189579 109.472622 68.077752 C 109.472622 76.781533 109.43111 80.185556 109.292735 81.251042 C 108.088873 90.605185 101.516066 97.537767 92.660073 98.769304 C 89.823387 99.156754 69.537628 99.364316 58.439961 99.115241 Z M 58.439961 99.115241 " transform="matrix(0.282295,0,0,0.282295,5.89724,5.805449)"/>
</g>
</svg>
