
<svg xmlns="http://www.w3.org/2000/svg" xmlns:xlink="http://www.w3.org/1999/xlink" width="48px" height="48px" viewBox="0 0 48 48" version="1.1">
<g id="surface1">
<path style="fill-rule:nonzero;fill:rgb(0%,50.196078%,50.196078%);fill-opacity:1;stroke-width:27.27438;stroke-linecap:butt;stroke-linejoin:miter;stroke:rgb(90.196078%,90.196078%,90.196078%);stroke-opacity:1;stroke-miterlimit:4;" d="M 85.333333 35 L 426.666667 35 C 457.125 35 481.791667 59.166667 481.791667 88.958333 L 481.791667 423.041667 C 481.791667 452.833333 457.125 477 426.666667 477 L 85.333333 477 C 54.875 477 30.208333 452.833333 30.208333 423.041667 L 30.208333 88.958333 C 30.208333 59.166667 54.875 35 85.333333 35 Z M 85.333333 35 " transform="matrix(0.09375,0,0,0.09375,0,0)"/>
<path style=" stroke:none;fill-rule:nonzero;fill:rgb(90.196078%,90.196078%,90.196078%);fill-opacity:1;" d="M 9.058594 43.144531 C 8.976562 42.539062 8.433594 41.199219 8.1875 40.984375 C 8.003906 40.824219 7.871094 40.792969 7.347656 40.792969 C 7.003906 40.792969 6.433594 40.769531 6.074219 40.738281 L 5.421875 40.683594 L 5.339844 40.375 C 5.253906 40.042969 5.113281 38.933594 5.054688 38.105469 L 5.015625 37.585938 L 6.363281 37.257812 L 7.707031 36.929688 L 7.804688 36.113281 C 7.859375 35.664062 7.933594 34.84375 7.964844 34.285156 C 8.015625 33.421875 8.007812 33.269531 7.894531 33.230469 C 7.320312 33.023438 5.664062 32.167969 5.621094 32.054688 C 5.511719 31.773438 6.359375 29.316406 6.59375 29.226562 C 6.664062 29.199219 7.273438 29.28125 7.949219 29.40625 C 8.625 29.535156 9.214844 29.613281 9.257812 29.585938 C 9.378906 29.511719 9.945312 28.65625 10.316406 27.988281 C 10.59375 27.488281 10.621094 27.390625 10.519531 27.265625 C 10.457031 27.183594 10.105469 26.753906 9.738281 26.3125 C 8.851562 25.25 8.832031 25.199219 9.117188 24.824219 C 9.421875 24.421875 10.519531 23.238281 10.773438 23.039062 C 10.992188 22.863281 10.984375 22.855469 12.726562 24.089844 L 13.257812 24.464844 L 13.664062 24.179688 C 15.058594 23.191406 15.304688 22.980469 15.304688 22.789062 C 15.304688 22.679688 15.207031 22.265625 15.089844 21.871094 C 14.667969 20.488281 14.621094 20.203125 14.785156 20.054688 C 15.019531 19.84375 17.058594 18.894531 17.28125 18.894531 C 17.4375 18.894531 17.554688 19.007812 17.78125 19.375 C 18.503906 20.550781 18.890625 21.121094 18.996094 21.160156 C 19.253906 21.257812 21.925781 20.546875 22.03125 20.351562 C 22.070312 20.277344 22.148438 19.851562 22.203125 19.40625 C 22.253906 18.960938 22.339844 18.394531 22.386719 18.148438 L 22.472656 17.699219 L 24.023438 17.722656 L 25.570312 17.746094 L 25.664062 18.597656 C 25.8125 19.949219 25.871094 20.242188 26.023438 20.425781 C 26.132812 20.550781 26.480469 20.664062 27.394531 20.855469 C 28.070312 20.996094 28.726562 21.113281 28.855469 21.113281 C 29.097656 21.113281 29.339844 20.789062 30.21875 19.300781 C 30.378906 19.03125 30.558594 18.8125 30.621094 18.8125 C 30.789062 18.8125 32.503906 19.59375 32.917969 19.859375 C 33.378906 20.152344 33.378906 20.238281 32.933594 21.660156 L 32.582031 22.769531 L 32.949219 23.097656 C 33.152344 23.277344 33.625 23.628906 34 23.878906 C 34.800781 24.414062 34.65625 24.441406 36.066406 23.488281 C 36.542969 23.164062 36.992188 22.902344 37.0625 22.902344 C 37.296875 22.902344 39.074219 24.890625 39.074219 25.152344 C 39.074219 25.238281 38.230469 26.3125 37.480469 27.171875 C 37.375 27.296875 37.386719 27.371094 37.589844 27.769531 C 37.804688 28.195312 38.703125 29.632812 38.753906 29.632812 C 38.765625 29.628906 39.332031 29.515625 40.011719 29.375 C 40.691406 29.234375 41.292969 29.121094 41.351562 29.121094 C 41.410156 29.121094 41.53125 29.265625 41.621094 29.441406 C 41.832031 29.855469 42.398438 31.648438 42.398438 31.902344 C 42.398438 32.070312 42.230469 32.179688 41.246094 32.664062 C 40.609375 32.976562 40.054688 33.296875 40.011719 33.378906 C 39.929688 33.539062 40.214844 36.4375 40.347656 36.75 C 40.40625 36.890625 40.597656 36.964844 41.304688 37.121094 C 43 37.492188 42.949219 37.46875 42.980469 37.855469 C 43.011719 38.210938 42.875 39.515625 42.730469 40.25 L 42.644531 40.683594 L 41.476562 40.742188 C 39.777344 40.828125 39.769531 40.828125 39.582031 41.273438 C 39.277344 41.988281 38.894531 43.21875 38.933594 43.367188 C 38.972656 43.507812 38.859375 43.519531 37.25 43.519531 L 35.523438 43.519531 L 35.972656 42.617188 C 36.5 41.550781 36.863281 40.492188 37.125 39.257812 C 37.382812 38.039062 37.40625 35.628906 37.167969 34.359375 C 36.542969 30.992188 34.679688 27.984375 31.960938 25.945312 C 31.125 25.320312 29.203125 24.320312 28.171875 23.976562 C 26.730469 23.496094 25.878906 23.375 23.996094 23.378906 C 22.023438 23.378906 21.246094 23.5 19.636719 24.058594 C 15.410156 25.523438 12.105469 29.160156 11.015625 33.554688 C 10.289062 36.480469 10.804688 40.550781 12.203125 42.949219 C 12.363281 43.21875 12.492188 43.460938 12.492188 43.480469 C 12.492188 43.5 11.730469 43.519531 10.800781 43.519531 L 9.109375 43.519531 Z M 9.058594 43.144531 "/>
</g>
</svg>
