
<svg xmlns="http://www.w3.org/2000/svg" xmlns:xlink="http://www.w3.org/1999/xlink" width="48px" height="48px" viewBox="0 0 48 48" version="1.1">
<g id="surface1">
<path style=" stroke:none;fill-rule:nonzero;fill:rgb(100%,100%,100%);fill-opacity:1;" d="M 17.628906 6.351562 C 16.910156 6.351562 16.332031 6.738281 16.332031 7.21875 L 16.332031 9.292969 L 11.605469 9.292969 C 10.582031 9.292969 9.761719 9.84375 9.761719 10.527344 L 9.761719 40.414062 C 9.761719 41.097656 10.582031 41.648438 11.605469 41.648438 L 36.394531 41.648438 C 37.417969 41.648438 38.238281 41.097656 38.238281 40.414062 L 38.238281 10.527344 C 38.238281 9.84375 37.417969 9.292969 36.394531 9.292969 L 31.667969 9.292969 L 31.667969 7.21875 C 31.667969 6.738281 31.089844 6.351562 30.371094 6.351562 Z M 17.628906 6.351562 "/>
<path style=" stroke:none;fill-rule:evenodd;fill:rgb(100%,100%,100%);fill-opacity:1;" d="M 24 13.617188 L 16.578125 26.074219 L 24 26.074219 L 24 34.382812 L 31.421875 21.921875 L 24 21.921875 Z M 24 13.617188 "/>
<path style="fill-rule:nonzero;fill:rgb(100%,100%,100%);fill-opacity:1;stroke-width:28.448776;stroke-linecap:butt;stroke-linejoin:miter;stroke:rgb(16.862745%,61.960784%,34.901961%);stroke-opacity:1;stroke-miterlimit:4;" d="M 79.875 23 L 432.125 23 C 463.541667 23 489 48.458333 489 79.875 L 489 432.125 C 489 463.541667 463.541667 489 432.125 489 L 79.875 489 C 48.458333 489 23 463.541667 23 432.125 L 23 79.875 C 23 48.458333 48.458333 23 79.875 23 Z M 79.875 23 " transform="matrix(0.09375,0,0,0.09375,0,0)"/>
<path style=" stroke:none;fill-rule:nonzero;fill:rgb(16.862745%,61.960784%,34.901961%);fill-opacity:1;" d="M 18.929688 7.339844 C 18.359375 7.339844 17.902344 7.648438 17.902344 8.03125 L 17.902344 10.160156 C 17.902344 10.167969 17.902344 10.175781 17.902344 10.183594 L 12.835938 10.183594 C 11.914062 10.183594 11.175781 10.703125 11.175781 11.351562 L 11.175781 39.496094 C 11.175781 40.140625 11.914062 40.660156 12.835938 40.660156 L 35.164062 40.660156 C 36.085938 40.660156 36.824219 40.140625 36.824219 39.496094 L 36.824219 11.351562 C 36.824219 10.703125 36.085938 10.183594 35.164062 10.183594 L 30.097656 10.183594 C 30.097656 10.175781 30.097656 10.167969 30.097656 10.160156 L 30.097656 8.03125 C 30.097656 7.648438 29.640625 7.339844 29.070312 7.339844 Z M 18.929688 7.339844 "/>
<path style=" stroke:none;fill-rule:nonzero;fill:rgb(0%,100%,0%);fill-opacity:1;" d="M 25.886719 35.777344 C 25.5625 35.367188 25.175781 34.039062 22.753906 24.980469 C 20.140625 15.226562 20.328125 15.835938 20.105469 16.257812 C 20.015625 16.433594 19.433594 18.445312 18.816406 20.726562 C 18.179688 23.078125 17.550781 24.988281 17.363281 25.140625 C 17.117188 25.332031 15.785156 25.40625 12.40625 25.40625 C 8.34375 25.40625 7.734375 25.363281 7.421875 25.046875 C 7.082031 24.707031 7.089844 24.664062 7.535156 24.300781 C 7.957031 23.957031 8.476562 23.917969 12.230469 23.917969 L 16.457031 23.917969 L 16.695312 23.011719 C 19.683594 11.820312 19.832031 11.414062 20.613281 12.242188 C 20.765625 12.402344 21.625 15.265625 22.523438 18.597656 C 26.5625 33.589844 26.15625 32.171875 26.375 31.953125 C 26.441406 31.886719 26.964844 30.078125 27.539062 27.929688 C 28.113281 25.78125 28.699219 23.808594 28.839844 23.542969 C 29.09375 23.066406 29.101562 23.066406 34.792969 23.066406 C 40.207031 23.066406 40.503906 23.085938 40.714844 23.476562 C 40.878906 23.785156 40.851562 23.96875 40.601562 24.222656 C 40.316406 24.507812 39.507812 24.554688 35.070312 24.554688 C 32.210938 24.554688 29.871094 24.597656 29.871094 24.652344 C 29.871094 24.90625 27.082031 35.144531 26.898438 35.5625 C 26.667969 36.089844 26.210938 36.1875 25.886719 35.777344 Z M 25.886719 35.777344 "/>
</g>
</svg>
