
<svg xmlns="http://www.w3.org/2000/svg" xmlns:xlink="http://www.w3.org/1999/xlink" width="48px" height="48px" viewBox="0 0 48 48" version="1.1">
<g id="surface1">
<path style=" stroke:none;fill-rule:evenodd;fill:rgb(80%,61.176471%,41.960784%);fill-opacity:1;" d="M 7.171875 2.296875 L 40.828125 2.296875 C 43.523438 2.296875 45.703125 4.480469 45.703125 7.171875 L 45.703125 40.828125 C 45.703125 43.523438 43.523438 45.703125 40.828125 45.703125 L 7.171875 45.703125 C 4.476562 45.703125 2.296875 43.523438 2.296875 40.828125 L 2.296875 7.171875 C 2.296875 4.480469 4.476562 2.296875 7.171875 2.296875 Z M 7.171875 2.296875 "/>
<path style=" stroke:none;fill-rule:nonzero;fill:rgb(0%,0%,0%);fill-opacity:0.25098;" d="M 13.089844 9.949219 C 13.089844 11.140625 12.121094 12.105469 10.929688 12.105469 C 9.738281 12.105469 8.769531 11.140625 8.769531 9.949219 C 8.769531 8.757812 9.738281 7.789062 10.929688 7.789062 C 12.121094 7.789062 13.089844 8.757812 13.089844 9.949219 M 13.089844 9.949219 "/>
<path style=" stroke:none;fill-rule:nonzero;fill:rgb(0%,0%,0%);fill-opacity:0.25098;" d="M 39.226562 10.097656 C 39.226562 11.289062 38.261719 12.257812 37.070312 12.257812 C 35.878906 12.257812 34.910156 11.292969 34.910156 10.097656 C 34.910156 8.90625 35.878906 7.941406 37.070312 7.941406 C 38.261719 7.941406 39.226562 8.90625 39.226562 10.097656 M 39.226562 10.097656 "/>
<path style="fill-rule:nonzero;fill:rgb(0%,47.058824%,67.058824%);fill-opacity:1;stroke-width:7.9095;stroke-linecap:butt;stroke-linejoin:miter;stroke:rgb(100%,97.254902%,92.156863%);stroke-opacity:1;stroke-miterlimit:10;" d="M 1567.625008 96.201847 C 1567.625008 199.461542 1483.900931 283.12624 1380.700616 283.12624 C 1277.440921 283.12624 1193.716845 199.461542 1193.716845 96.201847 C 1193.716845 -7.057847 1277.440921 -90.781924 1380.700616 -90.781924 C 1483.900931 -90.781924 1567.625008 -7.057847 1567.625008 96.201847 Z M 1567.625008 96.201847 " transform="matrix(0.0657853,0,0,0.0657853,-57.689163,25.42524)"/>
<path style=" stroke:none;fill-rule:nonzero;fill:rgb(100%,97.254902%,92.156863%);fill-opacity:1;" d="M 34.332031 22.945312 L 31.390625 23.238281 L 31.390625 35.296875 L 34.300781 34.878906 L 34.300781 29.722656 L 38.179688 35.429688 L 41.214844 34.457031 L 37.242188 28.976562 L 41.25 23.789062 L 38.144531 23.074219 L 34.300781 28.261719 Z M 27.707031 25.894531 C 27.675781 25.894531 27.636719 25.914062 27.613281 25.929688 L 26.480469 27.097656 C 26.433594 27.148438 26.414062 27.230469 26.449219 27.292969 L 27.773438 29.496094 C 27.535156 29.898438 27.359375 30.335938 27.222656 30.792969 L 24.769531 31.3125 C 24.699219 31.332031 24.636719 31.371094 24.636719 31.441406 L 24.636719 33.0625 C 24.636719 33.132812 24.703125 33.207031 24.769531 33.222656 L 27.160156 33.808594 C 27.285156 34.335938 27.480469 34.839844 27.742188 35.300781 L 26.351562 37.40625 C 26.3125 37.464844 26.332031 37.550781 26.382812 37.601562 L 27.515625 38.738281 C 27.5625 38.78125 27.648438 38.808594 27.707031 38.769531 L 29.875 37.441406 C 30.300781 37.6875 30.746094 37.894531 31.230469 38.023438 L 31.746094 40.457031 C 31.761719 40.527344 31.808594 40.585938 31.875 40.585938 L 33.492188 40.585938 C 33.5625 40.585938 33.636719 40.523438 33.652344 40.457031 L 34.234375 38.023438 C 34.734375 37.886719 35.222656 37.664062 35.65625 37.410156 L 37.789062 38.835938 C 37.847656 38.871094 37.933594 38.855469 37.984375 38.800781 L 39.117188 37.667969 C 39.164062 37.617188 39.183594 37.53125 39.148438 37.472656 L 38.371094 36.175781 L 38.113281 36.273438 C 38.078125 36.289062 38.039062 36.273438 38.015625 36.238281 C 38.015625 36.238281 37.527344 35.496094 36.886719 34.550781 C 36.117188 36.058594 34.554688 37.082031 32.75 37.082031 C 30.1875 37.082031 28.097656 35.015625 28.097656 32.445312 C 28.097656 30.554688 29.226562 28.925781 30.84375 28.199219 L 30.84375 26.996094 C 30.550781 27.101562 30.273438 27.207031 30.003906 27.355469 C 30.003906 27.355469 29.972656 27.355469 29.96875 27.355469 L 27.804688 25.929688 C 27.777344 25.910156 27.742188 25.890625 27.707031 25.894531 Z M 27.707031 25.894531 "/>
<path style=" stroke:none;fill-rule:nonzero;fill:rgb(40%,40%,40%);fill-opacity:1;" d="M 10.589844 11.339844 C 14.910156 34.367188 33.617188 34.367188 37.929688 11.339844 C 38.234375 9.40625 36.90625 9.367188 36.496094 11.339844 C 33.617188 32.320312 14.910156 32.207031 12.03125 11.339844 C 11.765625 9.445312 10.332031 9.523438 10.597656 11.339844 M 10.597656 11.339844 "/>
</g>
</svg>
