<!-- color: #5dac36 -->
<svg xmlns="http://www.w3.org/2000/svg" xmlns:xlink="http://www.w3.org/1999/xlink" width="48px" height="48px" viewBox="0 0 48 48" version="1.1">
<g id="surface1">
<path style=" stroke:none;fill-rule:nonzero;fill:rgb(0%,0%,0%);fill-opacity:0.0196078;" d="M 1 21.5 L 1 21.75 C 1 23.964844 2.785156 25.75 5 25.75 L 43 25.75 C 45.214844 25.75 47 23.964844 47 21.75 L 47 21.5 C 47 23.714844 45.214844 25.5 43 25.5 L 5 25.5 C 2.785156 25.5 1 23.714844 1 21.5 Z M 1 22 L 1 22.5 C 1 24.714844 2.785156 26.5 5 26.5 L 43 26.5 C 45.214844 26.5 47 24.714844 47 22.5 L 47 22 C 47 24.214844 45.214844 26 43 26 L 5 26 C 2.785156 26 1 24.214844 1 22 Z M 1 22 "/>
<path style=" stroke:none;fill-rule:nonzero;fill:rgb(0%,0%,0%);fill-opacity:0.0509804;" d="M 1 21.875 L 1 22.125 C 1 24.339844 2.785156 26.125 5 26.125 L 43 26.125 C 45.214844 26.125 47 24.339844 47 22.125 L 47 21.875 C 47 24.089844 45.214844 25.875 43 25.875 L 5 25.875 C 2.785156 25.875 1 24.089844 1 21.875 Z M 1 21.875 "/>
<path style=" stroke:none;fill-rule:nonzero;fill:rgb(0%,0%,0%);fill-opacity:0.101961;" d="M 1 21.875 L 1 22.125 C 1 24.339844 2.785156 26.125 5 26.125 L 43 26.125 C 45.214844 26.125 47 24.339844 47 22.125 L 47 21.875 C 47 24.089844 45.214844 25.875 43 25.875 L 5 25.875 C 2.785156 25.875 1 24.089844 1 21.875 Z M 1 21.875 "/>
<path style="fill-rule:nonzero;fill:rgb(36.078431%,66.666667%,20.784314%);fill-opacity:1;stroke-width:25.912724;stroke-linecap:butt;stroke-linejoin:miter;stroke:rgb(0%,50.196078%,0%);stroke-opacity:1;stroke-miterlimit:4;" d="M 28.958333 443.541667 L 28.958333 68.458333 C 28.958333 46.625 46.625 28.958333 68.458333 28.958333 L 443.541667 28.958333 C 465.375 28.958333 483.041667 46.625 483.041667 68.458333 L 483.041667 443.541667 C 483.041667 465.375 465.375 483.041667 443.541667 483.041667 L 68.458333 483.041667 C 46.625 483.041667 28.958333 465.375 28.958333 443.541667 Z M 28.958333 443.541667 " transform="matrix(0.09375,0,0,0.09375,0,0)"/>
<path style="fill-rule:nonzero;fill:rgb(100%,100%,100%);fill-opacity:1;stroke-width:4.266667;stroke-linecap:butt;stroke-linejoin:miter;stroke:rgb(100%,100%,100%);stroke-opacity:1;stroke-miterlimit:4;" d="M -152.646167 178.717095 C -152.646167 303.928427 -254.213143 405.495403 -379.424475 405.495403 C -504.635807 405.495403 -606.202784 303.928427 -606.202784 178.717095 C -606.202784 53.505763 -504.635807 -48.061214 -379.424475 -48.061214 C -254.213143 -48.061214 -152.646167 53.505763 -152.646167 178.717095 Z M -152.646167 178.717095 " transform="matrix(0.0715353,0,0,0.0715353,51.142247,11.215417)"/>
<path style="fill-rule:nonzero;fill:rgb(36.078431%,66.666667%,20.784314%);fill-opacity:1;stroke-width:4.266667;stroke-linecap:butt;stroke-linejoin:miter;stroke:rgb(100%,100%,100%);stroke-opacity:1;stroke-miterlimit:4;" d="M -379.424475 -48.061214 C -398.481935 -48.061214 -416.93873 -45.658554 -434.631042 -41.235476 L -446.262099 -35.611068 L -456.582614 -32.935379 L -463.29914 -25.945824 L -470.943966 -18.574027 L -478.916428 -19.939175 L -479.790122 -24.689888 C -489.509973 -19.884569 -498.792976 -14.369373 -507.693738 -8.308118 L -507.693738 -0.499474 L -498.683764 -1.810015 L -500.649577 6.872323 L -497.318617 15.554661 C -497.318617 15.554661 -498.192311 18.940227 -500.212729 19.923134 C -502.178542 20.960646 -508.45822 14.953996 -508.45822 14.953996 L -509.113491 6.872323 L -515.720805 5.616387 L -523.420237 10.257889 C -523.420237 10.257889 -526.58738 13.588849 -524.566961 16.919809 C -522.491937 20.250769 -521.181395 23.96397 -523.201814 24.892271 C -525.167626 26.038994 -535.215112 27.622566 -535.215112 27.622566 L -541.76782 34.994362 L -551.815306 40.291135 L -554.709419 46.297784 L -561.152915 54.051822 L -566.449688 60.495318 C -566.449688 60.495318 -573.166214 65.13682 -572.510943 67.157238 C -571.637248 69.123051 -571.364219 76.822483 -571.364219 76.822483 L -572.074096 81.463984 L -577.097838 77.204724 L -576.387962 70.542804 L -577.753109 68.740809 C -582.121581 76.604059 -586.053206 84.740338 -589.438772 93.149647 L -586.27163 96.808243 L -591.786826 102.814892 L -591.786826 107.510999 L -584.469635 114.118313 L -583.432123 118.486786 L -580.756434 128.15203 L -572.456337 126.131612 L -571.910278 131.865231 L -571.309613 126.623065 L -562.627275 121.926957 L -562.518063 121.380898 L -553.180454 121.380898 L -548.484346 123.783558 L -534.068388 126.732277 L -530.300581 133.61262 L -524.730779 139.237028 C -524.730779 139.237028 -518.833342 138.909393 -517.850435 138.909393 C -516.867529 138.909393 -511.78918 147.591731 -511.78918 147.591731 L -508.895068 154.581286 L -494.47911 162.826777 L -485.359924 162.116901 L -480.336181 168.12355 L -474.274926 171.945963 L -475.367044 179.31776 L -483.394112 190.184334 C -483.394112 190.184334 -484.48623 205.037139 -484.48623 206.402287 C -484.48623 207.82204 -487.871796 217.760314 -487.871796 217.760314 L -498.246917 222.784057 L -503.216054 234.578932 L -510.205609 251.615973 L -518.232677 252.708091 L -520.253095 258.05947 L -515.283958 260.407523 L -516.539894 266.741808 L -524.894597 268.816832 L -530.245975 275.697176 L -528.170951 280.775525 C -528.170951 280.775525 -526.478168 284.870967 -527.188045 285.853873 C -527.78871 286.83678 -532.539423 289.840104 -532.539423 289.840104 L -525.495262 293.553305 L -528.225557 301.307343 L -525.495262 308.67914 L -520.198489 315.122637 L -533.2493 309.498229 L -542.586909 294.809241 C -542.586909 294.809241 -547.283016 286.236115 -546.627746 285.307814 C -545.972475 284.379514 -549.030405 272.584639 -549.030405 272.584639 L -553.999542 252.380456 L -555.09166 216.122137 L -555.801537 208.149676 L -569.835254 194.115959 L -575.132026 179.153942 L -580.264981 166.813008 L -580.483404 154.854316 L -574.422149 146.827248 L -572.456337 136.179098 L -572.128701 133.558014 L -576.00572 130.55469 L -581.357099 134.540921 L -590.640102 125.585553 L -592.223673 117.776909 L -597.138204 115.155826 C -603.035642 135.305403 -606.202784 156.656311 -606.202784 178.717095 C -606.202784 253.199544 -570.272101 319.327291 -514.792505 360.663958 L -508.349009 357.496816 L -513.700387 350.834896 L -504.362778 346.52103 L -499.448247 339.094627 C -499.502853 339.040021 -499.66667 338.876204 -499.66667 338.876204 L -499.229823 338.821598 L -499.448247 339.094627 C -498.73837 339.749898 -494.369898 343.736129 -494.369898 345.483518 C -494.369898 347.44933 -487.380342 361.483047 -487.380342 361.483047 L -487.707978 362.192924 L -479.353275 366.23376 L -455.70892 363.831101 L -421.307202 366.23376 L -418.413089 365.906125 L -406.454397 355.585609 L -361.076893 353.565191 L -334.756848 354.548097 C -334.756848 354.548097 -330.33377 348.541448 -327.00281 348.541448 C -323.726456 348.541448 -310.784857 347.503936 -310.784857 347.503936 L -301.119613 340.896622 L -291.454368 348.869084 L -276.11011 347.886177 C -276.11011 347.886177 -284.683236 358.425116 -282.77203 358.861964 C -280.915429 359.298811 -265.079718 350.834896 -265.079718 350.834896 L -232.425389 344.227582 L -224.125292 343.899947 C -180.112935 302.563279 -152.646167 243.861935 -152.646167 178.717095 L -158.325181 172.328204 L -179.676088 140.329146 L -174.97998 139.619269 L -175.143798 139.837693 L -163.348923 153.489168 L -155.977127 159.550423 L -152.809985 171.126875 C -153.301438 155.946434 -155.26725 141.148235 -158.59821 126.896094 L -161.437717 123.838164 L -164.768677 118.814421 L -165.478554 115.483461 L -169.137149 113.135407 L -170.174661 116.466367 L -173.12338 115.811096 L -174.160892 111.77026 L -173.833257 106.145852 L -174.488527 102.432651 L -177.874093 101.77738 L -177.546458 105.763611 L -181.259659 107.401788 L -182.187959 104.398463 L -182.187959 101.77738 L -187.539338 94.897036 L -189.122909 90.528564 L -189.832786 86.869969 L -191.525569 86.869969 L -195.511799 89.218022 L -198.842759 91.238441 L -201.846084 94.951642 C -201.846084 94.951642 -208.016551 101.77738 -208.508004 101.886592 C -208.999457 102.105015 -211.89357 105.872822 -211.89357 105.872822 L -214.623865 109.258388 L -214.241624 116.630185 L -215.552165 124.82107 L -216.535071 128.206636 L -219.920637 130.227054 L -222.323297 127.278336 L -225.272016 120.28878 L -227.292434 112.916984 L -231.060241 104.289251 L -232.589206 95.279277 L -233.681325 90.255535 L -234.718837 93.586495 L -237.667555 93.586495 L -238.868885 90.637776 L -243.237357 84.631127 L -249.244006 79.279748 L -248.916371 78.952113 L -267.919225 79.279748 L -270.594914 76.276424 L -274.854174 77.313936 L -281.297671 73.65534 L -284.956266 67.921721 L -287.959591 62.242707 L -287.959591 70.979651 L -283.263483 75.293518 L -280.36937 79.607384 L -279.113434 82.99295 L -274.690356 85.013368 L -273.052179 82.283073 L -270.37649 80.644896 L -266.390259 85.286397 L -263.496147 88.671963 L -263.71457 94.023342 L -267.482377 100.357626 L -273.871268 104.016222 L -278.567375 109.695235 L -284.956266 111.333412 L -290.580674 116.684791 L -296.914958 110.2959 L -301.611066 102.596468 L -305.924932 94.569401 L -309.911163 87.197604 L -315.262541 77.204724 L -317.992836 71.52571 L -322.634338 72.235587 L -321.651432 77.25933 L -317.28296 84.904156 L -313.952 91.238441 L -311.003281 96.31679 L -309.310498 104.999128 L -302.320943 110.2959 L -299.317618 116.357155 L -295.659023 122.363805 L -289.652373 124.001982 L -286.649049 120.998657 L -280.314764 120.998657 L -280.970035 128.370454 L -283.70033 133.394197 L -285.338507 139.07321 L -289.706979 143.387077 L -301.010401 157.366187 L -307.399291 167.413673 L -306.08875 179.426972 L -304.068331 188.10931 L -304.068331 197.446919 L -312.696064 205.747016 L -316.409265 213.774084 L -316.736901 221.746545 L -323.67185 228.790706 L -324.381727 235.124991 L -334.702242 251.12452 L -340.381256 251.12452 L -349.718865 252.05282 L -353.432066 255.711416 L -354.360367 248.394225 L -355.070243 242.05994 L -361.076893 234.032873 L -361.404528 229.00913 L -364.353247 217.323467 L -366.373665 215.357655 L -368.721719 203.016721 L -368.394083 196.354801 L -365.390759 189.365246 L -365.718394 181.119754 L -367.738812 168.396579 L -372.107285 163.372837 L -375.383639 157.366187 L -374.182309 153.707592 L -372.817161 148.956879 L -372.817161 143.387077 L -376.475757 140.711387 L -382.15477 140.383752 L -383.792947 137.052792 L -389.08972 136.342915 L -393.458192 138.363334 L -410.167598 138.363334 L -411.150504 142.349564 L -415.792006 141.366658 L -420.433507 137.380427 L -428.460575 127.715183 L -430.808629 121.053263 L -434.794859 114.172919 L -434.139589 107.674817 L -432.11917 102.378045 L -431.791535 85.013368 L -425.129615 76.003394 L -415.792006 68.686203 L -412.13341 58.256476 L -406.072155 52.959704 L -397.062182 52.686674 L -392.42068 48.427414 L -377.786298 49.082685 L -377.404057 45.751725 L -371.397408 45.424089 L -371.397408 55.416969 L -362.059799 60.986771 L -352.72219 66.33815 L -349.063594 61.314407 L -345.732634 58.311082 L -343.056945 61.696648 L -328.367958 64.372337 L -326.347539 59.4032 L -322.033673 60.058471 L -318.375078 60.386106 L -317.00993 52.086009 L -317.337565 47.826749 L -321.323796 47.116872 L -324.327121 49.464926 L -326.019904 46.570813 L -332.627218 48.918867 L -336.285813 44.605001 L -338.306232 39.581258 L -333.66473 38.598352 L -332.354188 36.523328 L -326.019904 33.192368 L -319.357984 33.192368 L -311.658552 34.721333 L -306.361779 33.465397 L -308.655227 28.76929 L -312.696064 26.803477 L -317.337565 22.76264 L -314.989512 18.77641 L -322.033673 18.77641 L -320.34089 22.435005 L -323.016579 24.783059 L -325.364633 23.144882 L -326.347539 19.759316 L -332.408794 18.77641 L -333.992365 26.0936 L -336.668055 31.117343 L -336.395025 36.468722 L -338.033202 35.758845 L -342.72931 34.120668 L -344.695122 36.468722 L -345.678028 40.127317 L -344.039851 46.188572 L -346.98857 47.171478 L -351.029407 43.185248 L -352.995219 41.8201 L -352.995219 34.502909 L -357.036056 29.806802 L -365.063123 21.779734 L -368.721719 22.10737 L -369.759231 24.127788 L -358.346597 34.775939 L -357.036056 37.506234 L -359.056474 37.506234 L -358.073568 41.492465 L -361.404528 43.185248 L -362.71507 38.48914 L -374.400732 24.837665 L -376.748786 26.858083 L -387.123907 28.49626 L -392.748315 35.43121 L -399.137206 46.843843 L -405.47149 49.137291 L -413.498558 44.823425 L -413.498558 38.434534 L -411.47814 30.789708 L -406.782032 26.0936 L -405.47149 29.096925 L -398.481935 27.786383 L -397.444423 27.786383 L -395.47861 25.110694 C -395.47861 25.110694 -396.133881 22.76264 -396.461517 22.76264 C -396.789152 22.76264 -398.099694 20.414587 -398.099694 20.414587 L -400.120112 17.083627 L -403.068831 15.063208 L -401.430654 12.660549 L -398.754964 12.332913 C -398.754964 12.332913 -396.734546 11.896066 -396.079275 11.623036 C -395.369399 11.404613 -392.748315 10.64013 -392.748315 10.64013 L -389.08972 9.657224 L -386.359425 6.981535 L -384.721248 4.961117 C -384.721248 4.961117 -383.410706 2.886092 -383.410706 2.012398 C -383.410706 1.084098 -385.48573 0.101191 -385.75876 -0.990927 C -385.977184 -2.083045 -384.065977 -1.646198 -384.065977 -1.646198 L -379.424475 0.701856 C -379.424475 0.701856 -376.421151 -0.226444 -376.093515 -0.663291 C -375.76588 -1.045533 -375.110609 -3.011345 -375.110609 -3.011345 C -375.110609 -3.011345 -376.530363 -5.414005 -376.421151 -6.01467 C -376.366545 -6.506123 -374.455338 -8.963388 -374.455338 -8.963388 L -371.452014 -6.615335 L -373.090191 -3.939645 L -373.417826 -1.536986 L -371.124378 -1.536986 C -370.742137 -1.536986 -366.810512 -1.318562 -364.790094 -1.536986 C -362.71507 -1.700803 -362.114405 -2.246862 -361.404528 -2.792921 C -360.585439 -3.448192 -359.056474 -3.502798 -359.056474 -3.502798 L -356.380785 -2.519892 L -356.05315 -2.519892 L -352.066919 -5.523217 L -351.357042 -6.01467 C -351.24783 -6.560729 -351.084013 -6.997576 -351.193224 -7.216 C -351.466254 -7.87127 -351.193224 -10.546959 -351.193224 -10.546959 C -351.193224 -10.546959 -348.899776 -13.60489 -347.862264 -13.932525 C -346.770146 -14.314767 -343.220763 -13.33186 -342.565492 -13.60489 C -341.910221 -13.932525 -339.889803 -16.00755 -339.889803 -16.00755 L -339.179926 -18.300997 L -342.128645 -19.99378 L -345.459605 -19.283904 L -349.1182 -19.06548 L -351.193224 -20.594445 L -351.193224 -24.416858 L -350.483348 -27.037942 L -348.135294 -29.713631 L -348.135294 -31.078778 L -350.810983 -33.099197 L -353.159037 -31.46102 L -354.797214 -29.385995 L -357.145268 -26.437277 C -357.145268 -26.437277 -359.165686 -24.7991 -359.165686 -24.471464 C -359.165686 -24.034617 -360.476228 -23.32474 -360.476228 -23.32474 L -361.131498 -19.99378 L -359.493321 -19.283904 C -359.493321 -19.283904 -357.582115 -17.208879 -357.472903 -16.93585 C -357.418297 -16.717426 -358.18278 -15.297673 -358.18278 -15.297673 L -361.131498 -13.277255 C -361.131498 -13.277255 -361.24071 -9.236418 -361.404528 -8.908782 C -361.568346 -8.635753 -365.445365 -6.233093 -365.445365 -6.233093 L -366.482877 -8.908782 L -368.830931 -12.239742 L -370.851349 -16.225973 C -370.851349 -16.225973 -372.16189 -16.00755 -373.527038 -15.570702 C -374.892186 -15.188461 -375.165215 -13.932525 -375.165215 -13.932525 C -375.165215 -13.932525 -377.622481 -12.567378 -377.840904 -12.567378 C -378.059328 -12.567378 -379.479081 -14.260161 -379.479081 -14.260161 L -380.789623 -17.918756 L -379.861323 -21.577352 L -377.131028 -21.904987 L -370.141472 -29.604419 L -365.445365 -34.300527 L -355.070243 -42.600624 L -345.022757 -44.621042 L -335.685148 -42.928259 L -326.347539 -39.597299 L -319.685619 -36.266339 L -323.071185 -34.901192 L -330.442982 -35.283433 L -331.098253 -32.553138 L -329.460076 -29.877449 L -326.07451 -27.529395 L -314.60727 -33.645256 L -313.897394 -34.191315 L -313.460546 -34.300527 L -313.078305 -34.464344 L -313.351335 -34.300527 L -305.324267 -35.665674 C -305.433479 -35.665674 -305.542691 -35.72028 -305.651903 -35.774886 L -313.405941 -34.409738 L -313.078305 -34.628162 C -312.805276 -34.682768 -310.293404 -35.72028 -307.94535 -36.539369 C -330.442982 -43.965771 -354.469578 -48.061214 -379.424475 -48.061214 Z M -428.842816 -33.426832 L -428.842816 -33.372226 L -416.611094 -33.372226 L -414.208435 -30.368902 L -417.921636 -26.710306 L -423.546044 -25.399765 C -423.546044 -25.399765 -425.348038 -25.345159 -430.207964 -29.05836 Z M -399.246418 -14.369373 L -397.717452 -10.055506 L -393.949645 -6.069276 L -392.912133 0.811068 L -390.01802 4.797299 L -395.314793 7.254564 L -401.321442 8.292076 L -402.905013 6.599294 L -400.502353 2.613063 L -397.826664 -0.117232 L -398.481935 -3.065951 L -403.560284 -5.414005 C -403.560284 -5.414005 -402.631983 -8.799571 -401.922107 -12.075925 Z M -407.710332 -1.864621 L -405.034643 1.793974 L -406.618214 4.797299 L -410.604445 3.159122 Z M -290.416856 18.121139 C -290.63528 18.121139 -290.853703 18.121139 -291.017521 18.230351 L -291.126733 18.557986 C -292.546486 19.049439 -297.133382 22.817246 -297.133382 22.817246 L -298.443924 28.387048 C -298.443924 28.387048 -297.351806 30.62589 -295.768234 31.335767 C -294.348481 32.10025 -291.126733 36.35951 -291.126733 36.35951 L -288.778679 43.349065 L -283.099665 47.062267 L -278.785799 44.987242 L -282.826636 38.598352 L -285.720749 33.574609 L -288.669467 25.547541 L -289.706979 22.216581 L -287.03129 19.759316 C -287.03129 19.759316 -288.942497 18.121139 -290.416856 18.121139 Z M -375.329033 31.226555 L -373.472432 36.141086 L -373.800068 39.526652 L -376.421151 41.929312 L -379.315264 39.035199 Z M -388.81669 39.144411 L -387.233119 40.946406 L -388.81669 41.219435 Z M -365.882212 44.331971 L -361.568346 48.263596 L -364.57167 50.557044 L -367.957236 44.987242 Z M -580.647222 88.890387 L -571.964884 88.890387 L -564.593087 94.187159 L -563.937816 97.135878 L -568.197077 99.756961 L -571.964884 94.678613 L -578.353774 93.422677 L -583.923576 90.528564 L -580.592616 88.890387 Z M -173.833257 126.623065 L -160.454811 141.912717 L -157.560698 151.031903 C -157.560698 151.031903 -163.239712 150.322026 -164.168012 150.322026 C -165.150918 150.322026 -172.686533 128.042818 -173.833257 126.623065 Z M -212.166599 127.22373 L -210.910664 128.916513 L -210.200787 133.994862 L -213.913988 138.035698 L -215.552165 131.537596 Z M -287.085896 191.767905 L -284.082572 191.986329 L -283.099665 196.682436 L -283.099665 202.689086 L -284.300995 205.69241 L -288.451044 212.026695 L -287.741167 217.323467 L -290.471462 221.691939 L -294.785328 228.353859 L -298.443924 227.370953 L -300.136707 220.872851 L -300.136707 214.866202 L -295.82284 211.153 L -297.461017 209.569429 L -300.136707 205.801622 L -296.423505 202.907509 L -291.290551 200.450244 C -291.290551 200.450244 -287.30432 197.119284 -287.085896 196.464013 Z M -506.000955 292.788823 L -505.782531 292.843429 L -505.946349 292.952641 L -503.980536 297.48493 L -509.331915 294.863847 L -508.185191 294.536212 L -505.946349 292.952641 Z M -515.283958 294.863847 L -515.12014 294.863847 L -515.174746 295.027665 L -512.881298 299.068502 L -517.5228 300.16062 L -515.174746 295.027665 Z M -496.117287 372.950286 L -496.499528 372.950286 C -493.823839 374.533857 -491.14815 376.117428 -488.417855 377.591788 L -481.646723 377.591788 Z M -496.117287 372.950286 " transform="matrix(0.0715353,0,0,0.0715353,51.142247,11.215417)"/>
</g>
</svg>
