
<svg xmlns="http://www.w3.org/2000/svg" xmlns:xlink="http://www.w3.org/1999/xlink" width="48px" height="48px" viewBox="0 0 48 48" version="1.1">
<g id="surface1">
<path style="fill-rule:nonzero;fill:rgb(12.941176%,12.941176%,12.941176%);fill-opacity:1;stroke-width:28.448774;stroke-linecap:butt;stroke-linejoin:miter;stroke:rgb(90.196078%,90.196078%,90.196078%);stroke-opacity:1;stroke-miterlimit:4;" d="M 82.044489 27.338977 L 434.294489 27.338977 C 465.711155 27.338977 491.169489 52.79731 491.169489 84.213977 L 491.169489 436.463977 C 491.169489 467.880644 465.711155 493.338977 434.294489 493.338977 L 82.044489 493.338977 C 50.627822 493.338977 25.169489 467.880644 25.169489 436.463977 L 25.169489 84.213977 C 25.169489 52.79731 50.627822 27.338977 82.044489 27.338977 Z M 82.044489 27.338977 " transform="matrix(0.09375,0,0,0.09375,-0.20339,-0.406779)"/>
<path style=" stroke:none;fill-rule:nonzero;fill:rgb(0%,100%,0%);fill-opacity:1;" d="M 25.386719 35.621094 C 25.0625 35.210938 24.675781 33.882812 22.253906 24.824219 C 19.644531 15.070312 19.828125 15.675781 19.605469 16.101562 C 19.515625 16.277344 18.933594 18.289062 18.320312 20.570312 C 17.683594 22.921875 17.050781 24.832031 16.863281 24.984375 C 16.617188 25.175781 15.285156 25.25 11.90625 25.25 C 7.84375 25.25 7.238281 25.203125 6.921875 24.890625 C 6.582031 24.550781 6.589844 24.503906 7.035156 24.144531 C 7.457031 23.800781 7.976562 23.761719 11.734375 23.761719 L 15.957031 23.761719 L 16.199219 22.855469 C 19.183594 11.664062 19.332031 11.257812 20.113281 12.085938 C 20.265625 12.246094 21.128906 15.109375 22.023438 18.441406 C 26.0625 33.429688 25.65625 32.015625 25.875 31.796875 C 25.941406 31.730469 26.464844 29.921875 27.039062 27.773438 C 27.617188 25.625 28.199219 23.652344 28.339844 23.386719 C 28.59375 22.910156 28.601562 22.910156 34.292969 22.910156 C 39.710938 22.910156 40.007812 22.929688 40.214844 23.320312 C 40.382812 23.628906 40.351562 23.8125 40.101562 24.0625 C 39.816406 24.347656 39.007812 24.398438 34.570312 24.398438 C 31.710938 24.398438 29.375 24.441406 29.375 24.496094 C 29.375 24.75 26.585938 34.988281 26.402344 35.40625 C 26.171875 35.933594 25.710938 36.03125 25.386719 35.621094 Z M 25.386719 35.621094 "/>
</g>
</svg>
