
<svg xmlns="http://www.w3.org/2000/svg" xmlns:xlink="http://www.w3.org/1999/xlink" width="48px" height="48px" viewBox="0 0 48 48" version="1.1">
<g id="surface1">
<path style="fill-rule:nonzero;fill:rgb(92.156863%,94.117647%,94.117647%);fill-opacity:1;stroke-width:24.505194;stroke-linecap:butt;stroke-linejoin:miter;stroke:rgb(27.058824%,27.058824%,27.058824%);stroke-opacity:0.627451;stroke-miterlimit:4;" d="M 83.041667 44.583333 L 428.958333 44.583333 C 447.583333 44.583333 462.625 59.625 462.625 78.208333 L 462.625 433.791667 C 462.625 452.375 447.583333 467.416667 428.958333 467.416667 L 83.041667 467.416667 C 64.416667 467.416667 49.375 452.375 49.375 433.791667 L 49.375 78.208333 C 49.375 59.625 64.416667 44.583333 83.041667 44.583333 Z M 83.041667 44.583333 " transform="matrix(0.09375,0,0,0.09375,0,0)"/>
<path style=" stroke:none;fill-rule:nonzero;fill:rgb(49.019608%,54.117647%,54.901961%);fill-opacity:1;" d="M 24 12.878906 L 12.878906 24 L 12.878906 26.472656 L 18.441406 26.472656 L 18.441406 35.121094 L 29.558594 35.121094 L 29.558594 26.472656 L 35.121094 26.472656 L 35.121094 24 L 25.746094 14.628906 Z M 24 16.375 L 31.625 24 L 27.089844 24 L 27.089844 32.648438 L 20.910156 32.648438 L 20.910156 24 L 16.375 24 Z M 24 16.375 "/>
</g>
</svg>
