
<svg xmlns="http://www.w3.org/2000/svg" xmlns:xlink="http://www.w3.org/1999/xlink" width="48px" height="48px" viewBox="0 0 48 48" version="1.1">
<g id="surface1">
<path style="fill-rule:nonzero;fill:rgb(29.019608%,68.235294%,90.196078%);fill-opacity:1;stroke-width:27.064299;stroke-linecap:butt;stroke-linejoin:miter;stroke:rgb(29.019608%,68.235294%,90.196078%);stroke-opacity:1;stroke-miterlimit:4;" d="M 88.458333 34.333333 L 423.541667 34.333333 C 453.416667 34.333333 477.666667 58.583333 477.666667 88.458333 L 477.666667 423.541667 C 477.666667 453.416667 453.416667 477.666667 423.541667 477.666667 L 88.458333 477.666667 C 58.583333 477.666667 34.333333 453.416667 34.333333 423.541667 L 34.333333 88.458333 C 34.333333 58.583333 58.583333 34.333333 88.458333 34.333333 Z M 88.458333 34.333333 " transform="matrix(0.09375,0,0,0.09375,0,0)"/>
<path style=" stroke:none;fill-rule:nonzero;fill:rgb(100%,100%,100%);fill-opacity:1;" d="M 42.257812 27.394531 C 42.039062 27.613281 41.800781 27.808594 41.546875 27.980469 C 41.417969 28.066406 41.285156 28.148438 41.148438 28.222656 C 41.558594 28 41.929688 27.722656 42.257812 27.394531 Z M 42.257812 27.394531 "/>
<path style=" stroke:none;fill-rule:nonzero;fill:rgb(100%,100%,100%);fill-opacity:1;" d="M 43.082031 26.289062 C 43.007812 26.425781 42.929688 26.558594 42.84375 26.683594 C 42.671875 26.941406 42.472656 27.179688 42.257812 27.394531 C 42.582031 27.070312 42.863281 26.695312 43.082031 26.289062 Z M 43.082031 26.289062 "/>
<path style=" stroke:none;fill-rule:nonzero;fill:rgb(100%,100%,100%);fill-opacity:1;" d="M 43.445312 25.429688 C 43.398438 25.578125 43.347656 25.726562 43.285156 25.867188 C 43.226562 26.011719 43.15625 26.152344 43.082031 26.289062 C 43.230469 26.015625 43.351562 25.726562 43.445312 25.429688 Z M 43.445312 25.429688 "/>
<path style=" stroke:none;fill-rule:nonzero;fill:rgb(100%,100%,100%);fill-opacity:1;" d="M 43.664062 24 C 43.664062 24.164062 43.652344 24.328125 43.636719 24.492188 C 43.621094 24.652344 43.597656 24.8125 43.566406 24.96875 C 43.53125 25.125 43.492188 25.277344 43.445312 25.429688 C 43.585938 24.976562 43.664062 24.496094 43.664062 24 Z M 43.664062 24 "/>
<path style=" stroke:none;fill-rule:nonzero;fill:rgb(52.156863%,81.176471%,89.019608%);fill-opacity:1;" d="M 24 4.335938 L 24 24 L 43.664062 24 L 43.664062 9.140625 C 43.664062 6.488281 41.511719 4.335938 38.859375 4.335938 Z M 24 4.335938 "/>
<path style=" stroke:none;fill-rule:nonzero;fill:rgb(14.901961%,65.882353%,78.039216%);fill-opacity:1;" d="M 24 43.664062 L 24 24 L 4.335938 24 L 4.335938 38.859375 C 4.335938 41.511719 6.488281 43.664062 9.140625 43.664062 Z M 24 43.664062 "/>
<path style=" stroke:none;fill-rule:nonzero;fill:rgb(29.019608%,74.117647%,83.137255%);fill-opacity:1;" d="M 4.335938 24 L 24 24 L 24 4.335938 L 9.140625 4.335938 C 6.488281 4.335938 4.335938 6.488281 4.335938 9.140625 Z M 4.335938 24 "/>
<path style=" stroke:none;fill-rule:nonzero;fill:rgb(95.294118%,72.156863%,36.862745%);fill-opacity:1;" d="M 43.664062 24 L 24 24 L 24 43.664062 L 38.859375 43.664062 C 41.511719 43.664062 43.664062 41.511719 43.664062 38.859375 Z M 43.664062 24 "/>
<path style=" stroke:none;fill-rule:nonzero;fill:rgb(97.254902%,97.254902%,97.254902%);fill-opacity:1;" d="M 35.925781 11.996094 L 35.925781 15.710938 L 30.261719 15.710938 L 29.769531 23.4375 C 29.671875 24.777344 29.625 25.941406 29.625 26.921875 C 29.625 29.277344 29.882812 30.714844 30.40625 31.246094 C 30.945312 31.753906 31.585938 32.007812 32.332031 32.007812 C 33.894531 32.007812 34.824219 30.980469 35.117188 28.929688 L 35.996094 28.929688 C 35.457031 33.644531 33.65625 36 30.574219 36 C 29.144531 36 27.988281 35.542969 27.109375 34.628906 C 26.25 33.714844 25.816406 32.355469 25.816406 30.5625 C 25.816406 29.375 25.988281 26.863281 26.332031 23.035156 L 26.988281 15.714844 L 21.8125 15.714844 C 21.472656 21.882812 21.054688 26.378906 20.570312 29.238281 C 20.097656 32.085938 19.570312 33.925781 18.980469 34.757812 C 18.410156 35.585938 17.632812 36.003906 16.640625 36.003906 C 15.890625 36.003906 15.257812 35.773438 14.738281 35.316406 C 14.234375 34.859375 13.976562 34.257812 13.976562 33.511719 C 13.976562 32.800781 14.417969 31.824219 15.296875 30.589844 C 16.582031 28.792969 17.542969 26.929688 18.175781 24.992188 C 18.8125 23.046875 19.292969 19.953125 19.621094 15.714844 L 17.957031 15.714844 C 16.621094 15.714844 15.597656 16.027344 14.882812 16.652344 C 14.179688 17.261719 13.515625 18.144531 12.882812 19.296875 L 12.003906 19.296875 C 12.476562 17.480469 13.085938 15.992188 13.835938 14.820312 C 14.585938 13.652344 15.351562 12.890625 16.132812 12.53125 C 16.929688 12.179688 18.335938 11.996094 20.355469 11.996094 L 35.933594 11.996094 "/>
</g>
</svg>
