
<svg xmlns="http://www.w3.org/2000/svg" xmlns:xlink="http://www.w3.org/1999/xlink" width="48px" height="48px" viewBox="0 0 48 48" version="1.1">
<g id="surface1">
<path style="fill-rule:nonzero;fill:rgb(81.960784%,85.098039%,90.196078%);fill-opacity:1;stroke-width:27.954165;stroke-linecap:butt;stroke-linejoin:miter;stroke:rgb(0%,25.882353%,32.941176%);stroke-opacity:1;stroke-miterlimit:4;" d="M 82.958333 27.041667 L 429.041667 27.041667 C 459.916667 27.041667 484.958333 52.083333 484.958333 82.958333 L 484.958333 429.041667 C 484.958333 459.916667 459.916667 484.958333 429.041667 484.958333 L 82.958333 484.958333 C 52.083333 484.958333 27.041667 459.916667 27.041667 429.041667 L 27.041667 82.958333 C 27.041667 52.083333 52.083333 27.041667 82.958333 27.041667 Z M 82.958333 27.041667 " transform="matrix(0.09375,0,0,0.09375,0,0)"/>
<path style="fill-rule:nonzero;fill:rgb(74.901961%,86.27451%,69.019608%);fill-opacity:1;stroke-width:3.441855;stroke-linecap:butt;stroke-linejoin:miter;stroke:rgb(0%,25.882353%,32.941176%);stroke-opacity:1;stroke-miterlimit:4;" d="M 435.666667 263.583333 C 435.666667 364.625 353.75 446.5 252.75 446.5 C 151.708333 446.5 69.833333 364.625 69.833333 263.583333 C 69.833333 162.583333 151.708333 80.666667 252.75 80.666667 C 353.75 80.666667 435.666667 162.583333 435.666667 263.583333 Z M 435.666667 263.583333 " transform="matrix(0.09375,0,0,0.09375,0,0)"/>
<path style="fill-rule:nonzero;fill:rgb(0%,25.882353%,32.941176%);fill-opacity:1;stroke-width:3.441855;stroke-linecap:butt;stroke-linejoin:miter;stroke:rgb(100%,100%,100%);stroke-opacity:1;stroke-miterlimit:4;" d="M 252.75 80.666667 C 237.375 80.666667 222.458333 82.583333 208.208333 86.125 L 198.833333 90.708333 L 190.5 92.875 L 185.125 98.5 L 178.916667 104.416667 L 172.458333 103.375 L 171.791667 99.541667 C 163.958333 103.416667 156.458333 107.833333 149.291667 112.708333 L 149.291667 119 L 156.541667 117.958333 L 154.958333 125 L 157.625 132 C 157.625 132 156.916667 134.708333 155.291667 135.458333 C 153.708333 136.333333 148.666667 131.458333 148.666667 131.458333 L 148.125 125 L 142.791667 123.958333 L 136.583333 127.666667 C 136.583333 127.666667 134.041667 130.375 135.666667 133.041667 C 137.333333 135.791667 138.416667 138.75 136.75 139.5 C 135.166667 140.458333 127.083333 141.708333 127.083333 141.708333 L 121.75 147.625 L 113.708333 151.916667 L 111.333333 156.75 L 106.166667 163.041667 L 101.875 168.208333 C 101.875 168.208333 96.458333 171.958333 97 173.583333 C 97.708333 175.208333 97.916667 181.375 97.916667 181.375 L 97.333333 185.166667 L 93.291667 181.708333 L 93.833333 176.333333 L 92.75 174.875 C 89.25 181.208333 86.083333 187.791667 83.333333 194.541667 L 85.916667 197.5 L 81.416667 202.375 L 81.416667 206.166667 L 87.333333 211.5 L 88.208333 215.041667 L 90.333333 222.791667 L 97.041667 221.166667 L 97.458333 225.791667 L 97.958333 221.583333 L 104.958333 217.791667 L 105.041667 217.333333 L 112.583333 217.333333 L 116.333333 219.25 L 128 221.666667 L 131.041667 227.25 L 135.541667 231.75 C 135.541667 231.75 140.291667 231.5 141.083333 231.5 C 141.833333 231.5 145.958333 238.5 145.958333 238.5 L 148.291667 244.125 L 159.958333 250.75 L 167.291667 250.208333 L 171.333333 255.083333 L 176.208333 258.125 L 175.333333 264.083333 L 168.875 272.833333 C 168.875 272.833333 167.958333 284.791667 167.958333 285.958333 C 167.958333 287.041667 165.291667 295.083333 165.291667 295.083333 L 156.916667 299.125 L 152.875 308.625 L 147.25 322.375 L 140.791667 323.291667 L 139.166667 327.583333 L 143.166667 329.458333 L 142.125 334.625 L 135.416667 336.25 L 131.083333 341.833333 L 132.75 345.916667 C 132.75 345.916667 134.125 349.208333 133.541667 350.041667 C 133.041667 350.791667 129.25 353.25 129.25 353.25 L 134.875 356.25 L 132.708333 362.5 L 134.875 368.458333 L 139.208333 373.625 L 128.625 369.083333 L 121.125 357.25 C 121.125 357.25 117.333333 350.333333 117.875 349.541667 C 118.416667 348.833333 115.916667 339.291667 115.916667 339.291667 L 111.916667 323 L 111.041667 293.75 L 110.5 287.333333 L 99.166667 276 L 94.833333 263.958333 L 90.75 254 L 90.541667 244.333333 L 95.416667 237.875 L 97.041667 229.25 L 97.291667 227.166667 L 94.166667 224.75 L 89.875 227.958333 L 82.333333 220.75 L 81.083333 214.458333 L 77.125 212.291667 C 72.375 228.583333 69.833333 245.791667 69.833333 263.583333 C 69.833333 323.708333 98.791667 377 143.541667 410.375 L 148.708333 407.833333 L 144.416667 402.458333 L 151.958333 398.958333 L 155.916667 393 C 155.875 392.958333 155.75 392.791667 155.75 392.791667 L 156.083333 392.75 L 155.916667 393 C 156.5 393.5 160.041667 396.708333 160.041667 398.125 C 160.041667 399.708333 165.666667 411.041667 165.666667 411.041667 L 165.416667 411.625 L 172.125 414.875 L 191.208333 412.916667 L 218.958333 414.875 L 221.291667 414.583333 L 230.958333 406.291667 L 267.541667 404.625 L 288.75 405.458333 C 288.75 405.458333 292.333333 400.583333 295.041667 400.583333 C 297.666667 400.583333 308.125 399.75 308.125 399.75 L 315.916667 394.416667 L 323.708333 400.875 L 336.083333 400.041667 C 336.083333 400.041667 329.166667 408.583333 330.708333 408.916667 C 332.25 409.25 344.958333 402.458333 344.958333 402.458333 L 371.333333 397.083333 L 378.041667 396.833333 C 413.5 363.5 435.666667 316.125 435.666667 263.583333 L 431.083333 258.458333 L 413.875 232.625 L 417.666667 232.083333 L 417.541667 232.25 L 427.041667 243.25 L 433 248.125 L 435.541667 257.5 C 435.166667 245.25 433.541667 233.291667 430.875 221.791667 L 428.583333 219.333333 L 425.916667 215.25 L 425.333333 212.583333 L 422.375 210.666667 L 421.541667 213.375 L 419.166667 212.833333 L 418.333333 209.625 L 418.625 205.041667 L 418.083333 202.083333 L 415.333333 201.5 L 415.625 204.75 L 412.625 206.083333 L 411.833333 203.666667 L 411.833333 201.5 L 407.541667 195.958333 L 406.25 192.458333 L 405.666667 189.5 L 404.333333 189.5 L 401.083333 191.375 L 398.416667 193 L 396 196.041667 C 396 196.041667 391 201.5 390.625 201.625 C 390.25 201.791667 387.875 204.833333 387.875 204.833333 L 385.708333 207.541667 L 385.958333 213.5 L 384.916667 220.125 L 384.125 222.833333 L 381.416667 224.458333 L 379.5 222.125 L 377.125 216.458333 L 375.5 210.541667 L 372.416667 203.541667 L 371.166667 196.25 L 370.291667 192.25 L 369.5 194.916667 L 367.083333 194.916667 L 366.125 192.541667 L 362.625 187.708333 L 357.75 183.416667 L 358 183.083333 L 342.666667 183.416667 L 340.541667 180.958333 L 337.125 181.791667 L 331.916667 178.833333 L 328.958333 174.208333 L 326.541667 169.666667 L 326.541667 176.666667 L 330.333333 180.166667 L 332.625 183.666667 L 333.666667 186.375 L 337.208333 188 L 338.541667 185.833333 L 340.708333 184.458333 L 343.916667 188.25 L 346.25 190.958333 L 346.083333 195.25 L 343.041667 200.375 L 337.875 203.333333 L 334.125 207.916667 L 328.958333 209.25 L 324.416667 213.541667 L 319.291667 208.416667 L 315.5 202.166667 L 312.041667 195.708333 L 308.791667 189.791667 L 304.5 181.708333 L 302.333333 177.125 L 298.583333 177.708333 L 299.333333 181.75 L 302.875 187.916667 L 305.583333 193.041667 L 307.958333 197.125 L 309.291667 204.125 L 314.958333 208.416667 L 317.375 213.291667 L 320.333333 218.125 L 325.166667 219.458333 L 327.583333 217.041667 L 332.708333 217.041667 L 332.166667 223 L 329.958333 227.041667 L 328.625 231.583333 L 325.125 235.083333 L 316 246.375 L 310.833333 254.5 L 311.916667 264.166667 L 313.541667 271.166667 L 313.541667 278.708333 L 306.583333 285.375 L 303.583333 291.875 L 303.291667 298.333333 L 297.708333 303.958333 L 297.125 309.083333 L 288.833333 322 L 284.25 322 L 276.708333 322.75 L 273.75 325.708333 L 272.958333 319.791667 L 272.375 314.666667 L 267.541667 308.25 L 267.291667 304.166667 L 264.916667 294.75 L 263.25 293.125 L 261.375 283.166667 L 261.625 277.791667 L 264.041667 272.166667 L 263.791667 265.5 L 262.166667 255.25 L 258.625 251.208333 L 256 246.375 L 257 243.416667 L 258.083333 239.583333 L 258.083333 235.083333 L 255.125 232.958333 L 250.541667 232.666667 L 249.208333 229.958333 L 244.916667 229.416667 L 241.416667 231.041667 L 227.958333 231.041667 L 227.166667 234.25 L 223.416667 233.458333 L 219.666667 230.25 L 213.208333 222.416667 L 211.291667 217.041667 L 208.083333 211.5 L 208.625 206.291667 L 210.25 202 L 210.5 188 L 215.875 180.75 L 223.416667 174.833333 L 226.375 166.416667 L 231.25 162.125 L 238.5 161.916667 L 242.25 158.458333 L 254.083333 159 L 254.375 156.333333 L 259.208333 156.041667 L 259.208333 164.166667 L 266.75 168.625 L 274.291667 172.916667 L 277.25 168.875 L 279.916667 166.458333 L 282.083333 169.208333 L 293.916667 171.333333 L 295.541667 167.333333 L 299.041667 167.875 L 302 168.166667 L 303.083333 161.458333 L 302.833333 158 L 299.583333 157.416667 L 297.166667 159.333333 L 295.833333 157 L 290.5 158.875 L 287.541667 155.375 L 285.916667 151.333333 L 289.625 150.541667 L 290.708333 148.916667 L 295.833333 146.208333 L 301.208333 146.208333 L 307.416667 147.458333 L 311.708333 146.416667 L 309.833333 142.625 L 306.583333 141.041667 L 302.833333 137.791667 L 304.708333 134.583333 L 299.041667 134.583333 L 300.416667 137.541667 L 298.25 139.416667 L 296.375 138.083333 L 295.541667 135.375 L 290.708333 134.583333 L 289.375 140.5 L 287.208333 144.541667 L 287.458333 148.833333 L 286.166667 148.291667 L 282.375 146.958333 L 280.75 148.833333 L 279.958333 151.791667 L 281.291667 156.666667 L 278.875 157.458333 L 275.666667 154.25 L 274.041667 153.166667 L 274.041667 147.25 L 270.833333 143.458333 L 264.333333 137 L 261.375 137.25 L 260.541667 138.875 L 269.75 147.5 L 270.791667 149.666667 L 269.166667 149.666667 L 269.958333 152.916667 L 267.291667 154.25 L 266.208333 150.458333 L 256.791667 139.458333 L 254.916667 141.083333 L 246.541667 142.416667 L 242 148.041667 L 236.875 157.208333 L 231.708333 159.083333 L 225.25 155.583333 L 225.25 150.458333 L 226.875 144.25 L 230.666667 140.5 L 231.75 142.916667 L 237.375 141.833333 L 238.208333 141.833333 L 239.833333 139.666667 C 239.833333 139.666667 239.291667 137.791667 239 137.791667 C 238.75 137.791667 237.666667 135.875 237.666667 135.875 L 236.041667 133.208333 L 233.666667 131.583333 L 235 129.666667 L 237.166667 129.375 C 237.166667 129.375 238.75 129 239.291667 128.833333 C 239.875 128.625 242 128 242 128 L 244.958333 127.25 L 247.166667 125.041667 L 248.5 123.416667 C 248.5 123.416667 249.541667 121.75 249.541667 121.041667 C 249.541667 120.291667 247.833333 119.5 247.666667 118.625 C 247.458333 117.75 249 118.083333 249 118.083333 L 252.75 119.958333 C 252.75 119.958333 255.166667 119.25 255.416667 118.916667 C 255.666667 118.541667 256.208333 117 256.208333 117 C 256.208333 117 255.083333 115.083333 255.166667 114.583333 C 255.208333 114.166667 256.75 112.166667 256.75 112.166667 L 259.166667 114.083333 L 257.833333 116.25 L 257.583333 118.208333 L 259.458333 118.208333 C 259.708333 118.208333 262.916667 118.375 264.583333 118.208333 C 266.208333 118.041667 266.708333 117.583333 267.25 117.166667 C 267.916667 116.666667 269.166667 116.583333 269.166667 116.583333 L 271.333333 117.416667 L 271.583333 117.416667 L 274.833333 115 L 275.375 114.541667 C 275.458333 114.125 275.583333 113.791667 275.5 113.583333 C 275.291667 113.041667 275.5 110.916667 275.5 110.916667 C 275.5 110.916667 277.375 108.458333 278.208333 108.166667 C 279.083333 107.875 281.958333 108.666667 282.5 108.458333 C 283.041667 108.166667 284.666667 106.541667 284.666667 106.541667 L 285.208333 104.666667 L 282.833333 103.291667 L 280.125 103.875 L 277.166667 104.041667 L 275.541667 102.791667 L 275.541667 99.75 L 276.083333 97.583333 L 278 95.458333 L 278 94.375 L 275.833333 92.75 L 273.958333 94.041667 L 272.625 95.708333 L 270.708333 98.083333 C 270.708333 98.083333 269.083333 99.416667 269.083333 99.708333 C 269.083333 100.041667 268.041667 100.583333 268.041667 100.583333 L 267.5 103.291667 L 268.791667 103.875 C 268.791667 103.875 270.333333 105.541667 270.458333 105.75 C 270.5 105.958333 269.875 107.083333 269.875 107.083333 L 267.5 108.708333 C 267.5 108.708333 267.416667 111.958333 267.25 112.25 C 267.166667 112.458333 264.041667 114.375 264.041667 114.375 L 263.208333 112.25 L 261.291667 109.541667 L 259.666667 106.333333 C 259.666667 106.333333 258.625 106.541667 257.5 106.875 C 256.416667 107.208333 256.208333 108.208333 256.208333 108.208333 C 256.208333 108.208333 254.166667 109.291667 254 109.291667 C 253.833333 109.291667 252.708333 107.916667 252.708333 107.916667 L 251.625 104.958333 L 252.416667 102 L 254.583333 101.75 L 260.25 95.541667 L 264.041667 91.75 L 272.416667 85.083333 L 280.5 83.458333 L 288.041667 84.791667 L 295.541667 87.458333 L 300.916667 90.208333 L 298.208333 91.25 L 292.25 90.958333 L 291.708333 93.166667 L 293.083333 95.291667 L 295.75 97.208333 L 305.041667 92.25 L 305.625 91.833333 L 305.958333 91.75 L 306.25 91.625 L 306.083333 91.75 L 312.541667 90.666667 C 312.458333 90.666667 312.375 90.625 312.25 90.583333 L 306.041667 91.666667 L 306.25 91.458333 C 306.458333 91.416667 308.541667 90.625 310.416667 89.958333 C 292.291667 83.958333 272.875 80.666667 252.75 80.666667 Z M 212.875 92.458333 L 212.875 92.5 L 222.75 92.5 L 224.708333 94.916667 L 221.708333 97.875 L 217.166667 98.958333 C 217.166667 98.958333 215.666667 98.958333 211.791667 96 Z M 236.75 107.833333 L 238 111.291667 L 241.041667 114.541667 L 241.875 120.083333 L 244.208333 123.291667 L 239.916667 125.291667 L 235.083333 126.083333 L 233.791667 124.75 L 235.75 121.541667 L 237.916667 119.333333 L 237.375 116.958333 L 233.291667 115.041667 C 233.291667 115.041667 234.041667 112.333333 234.583333 109.708333 Z M 229.916667 117.916667 L 232.083333 120.875 L 230.791667 123.291667 L 227.583333 121.958333 Z M 324.541667 134.041667 C 324.375 134.041667 324.208333 134.041667 324.041667 134.125 L 324 134.416667 C 322.833333 134.791667 319.125 137.791667 319.125 137.791667 L 318.083333 142.291667 C 318.083333 142.291667 318.958333 144.125 320.208333 144.708333 C 321.375 145.333333 324 148.75 324 148.75 L 325.875 154.375 L 330.458333 157.375 L 333.916667 155.708333 L 330.666667 150.541667 L 328.333333 146.5 L 325.958333 140.041667 L 325.125 137.333333 L 327.291667 135.375 C 327.291667 135.375 325.75 134.041667 324.541667 134.041667 Z M 256.041667 144.625 L 257.583333 148.583333 L 257.291667 151.333333 L 255.166667 153.25 L 252.833333 150.916667 Z M 245.166667 151 L 246.458333 152.458333 L 245.166667 152.666667 Z M 263.666667 155.166667 L 267.125 158.333333 L 264.708333 160.208333 L 262 155.708333 Z M 90.416667 191.125 L 97.416667 191.125 L 103.375 195.416667 L 103.916667 197.75 L 100.458333 199.916667 L 97.458333 195.791667 L 92.25 194.791667 L 87.75 192.458333 L 90.5 191.166667 Z M 418.583333 221.583333 L 429.416667 233.875 L 431.708333 241.25 C 431.708333 241.25 427.125 240.666667 426.375 240.666667 C 425.625 240.666667 419.541667 222.708333 418.583333 221.583333 Z M 387.666667 222.041667 L 388.708333 223.416667 L 389.25 227.541667 L 386.291667 230.75 L 384.916667 225.541667 Z M 327.25 274.125 L 329.666667 274.291667 L 330.416667 278.083333 L 330.416667 282.916667 L 329.5 285.333333 L 326.125 290.458333 L 326.708333 294.75 L 324.5 298.25 L 321 303.625 L 318.041667 302.833333 L 316.708333 297.625 L 316.708333 292.75 L 320.208333 289.75 L 318.875 288.458333 L 316.708333 285.458333 L 319.708333 283.083333 L 323.833333 281.125 C 323.833333 281.125 327.083333 278.458333 327.25 277.916667 Z M 150.625 355.625 L 150.791667 355.666667 L 150.708333 355.75 L 152.25 359.416667 L 147.958333 357.25 L 148.875 357 L 150.708333 355.75 Z M 143.125 357.25 L 143.291667 357.25 L 143.208333 357.416667 L 145.083333 360.708333 L 141.333333 361.583333 L 143.208333 357.416667 Z M 158.625 420.25 L 158.333333 420.291667 C 160.458333 421.583333 162.625 422.833333 164.833333 424.041667 L 170.291667 424.041667 Z M 158.625 420.25 " transform="matrix(0.09375,0,0,0.09375,0,0)"/>
</g>
</svg>
