
<svg xmlns="http://www.w3.org/2000/svg" xmlns:xlink="http://www.w3.org/1999/xlink" width="48px" height="48px" viewBox="0 0 48 48" version="1.1">
<g id="surface1">
<path style="fill-rule:nonzero;fill:rgb(100%,100%,100%);fill-opacity:1;stroke-width:28.808744;stroke-linecap:butt;stroke-linejoin:miter;stroke:rgb(0%,80%,100%);stroke-opacity:1;stroke-miterlimit:4;" d="M 77.666667 20.041667 L 434.333333 20.041667 C 466.166667 20.041667 491.958333 45.833333 491.958333 77.666667 L 491.958333 434.333333 C 491.958333 466.166667 466.166667 491.958333 434.333333 491.958333 L 77.666667 491.958333 C 45.833333 491.958333 20.041667 466.166667 20.041667 434.333333 L 20.041667 77.666667 C 20.041667 45.833333 45.833333 20.041667 77.666667 20.041667 Z M 77.666667 20.041667 " transform="matrix(0.09375,0,0,0.09375,0,0)"/>
<path style="fill-rule:nonzero;fill:rgb(0%,80%,100%);fill-opacity:1;stroke-width:2.441739;stroke-linecap:butt;stroke-linejoin:miter;stroke:rgb(100%,100%,100%);stroke-opacity:1;stroke-miterlimit:4;" d="M -247.722289 112.805254 C -247.722289 184.484179 -305.830489 242.592379 -377.479054 242.592379 C -449.157979 242.592379 -507.266179 184.484179 -507.266179 112.805254 C -507.266179 41.156689 -449.157979 -16.951511 -377.479054 -16.951511 C -305.830489 -16.951511 -247.722289 41.156689 -247.722289 112.805254 Z M -247.722289 112.805254 " transform="matrix(0.128666,0,0,0.128666,72.064897,11.724056)"/>
<path style="fill-rule:nonzero;fill:rgb(7.843137%,25.882353%,30.980392%);fill-opacity:1;stroke-width:2.441739;stroke-linecap:butt;stroke-linejoin:miter;stroke:rgb(100%,100%,100%);stroke-opacity:1;stroke-miterlimit:4;" d="M -377.479054 -16.951511 C -388.378137 -16.951511 -398.973624 -15.615691 -409.083358 -13.065488 L -415.732102 -9.817015 L -421.652216 -8.299036 L -425.477521 -4.291574 L -429.849298 -0.101955 L -434.433591 -0.860944 L -434.919344 -3.562945 C -440.475144 -0.830584 -445.818427 2.29645 -450.888474 5.7878 L -450.888474 10.250656 L -445.727348 9.491667 L -446.881012 14.470635 L -444.968359 19.449603 C -444.968359 19.449603 -445.454112 21.362255 -446.607776 21.939087 C -447.761439 22.515918 -451.343867 19.085288 -451.343867 19.085288 L -451.708182 14.470635 L -455.472768 13.742005 L -459.905264 16.383287 C -459.905264 16.383287 -461.696478 18.295939 -460.542814 20.208592 C -459.358791 22.151604 -458.599802 24.246413 -459.783825 24.792885 C -460.907129 25.460796 -466.645086 26.341223 -466.645086 26.341223 L -470.409672 30.561202 L -476.147629 33.597158 L -477.787045 37.027789 L -481.490912 41.490644 L -484.526868 45.164151 C -484.526868 45.164151 -488.382532 47.805433 -487.987858 48.959096 C -487.471745 50.11276 -487.350307 54.484537 -487.350307 54.484537 L -487.744981 57.186538 L -490.59878 54.727413 L -490.234465 50.902108 L -490.993454 49.869883 C -493.482938 54.363098 -495.729546 59.038471 -497.702917 63.835281 L -495.850984 65.930091 L -499.038738 69.360722 L -499.038738 72.062723 L -494.818759 75.857668 L -494.241927 78.347152 L -492.69359 83.872592 L -487.957498 82.718929 L -487.653903 85.997761 L -487.319947 82.992165 L -482.340979 80.320523 L -482.28026 80.016928 L -476.936977 80.016928 L -474.265336 81.383108 L -465.977176 83.052884 L -463.821647 87.029986 L -460.633893 90.21774 C -460.633893 90.21774 -457.294341 90.035583 -456.71751 90.035583 C -456.171037 90.035583 -453.25652 95.014551 -453.25652 95.014551 L -451.586744 99.022013 L -443.328943 103.697386 L -438.137458 103.333071 L -435.2533 106.763701 L -431.79231 108.91923 L -432.399501 113.139209 L -436.983795 119.362919 C -436.983795 119.362919 -437.621345 127.863597 -437.621345 128.683305 C -437.621345 129.472653 -439.533998 135.149891 -439.533998 135.149891 L -445.484472 138.03405 L -448.338271 144.773872 L -452.345733 154.519291 L -456.930027 155.156842 L -458.08369 158.223158 L -455.229891 159.558979 L -455.958521 163.202126 L -460.755331 164.355789 L -463.791287 168.302532 L -462.637624 171.21705 C -462.637624 171.21705 -461.635759 173.554736 -462.060792 174.131568 C -462.425107 174.67804 -465.096749 176.408535 -465.096749 176.408535 L -461.089286 178.533705 L -462.637624 182.99656 L -461.089286 187.18618 L -458.05333 190.859686 L -465.552142 187.671932 L -470.865065 179.262334 C -470.865065 179.262334 -473.567066 174.344085 -473.172392 173.797613 C -472.777718 173.2815 -474.568932 166.541678 -474.568932 166.541678 L -477.392371 154.974685 L -478.029922 134.208745 L -478.424596 129.654811 L -486.43952 121.639886 L -489.505836 113.07849 L -492.420354 106.004712 L -492.541792 99.143451 L -489.111162 94.559158 L -487.957498 88.456886 L -487.775341 86.969267 L -489.991589 85.238772 L -493.027545 87.546099 L -498.370828 82.415333 L -499.281615 77.952478 L -502.074694 76.434499 C -505.444606 87.971133 -507.266179 100.175676 -507.266179 112.805254 C -507.266179 155.460438 -486.712756 193.288451 -454.956655 216.93855 L -451.283148 215.147336 L -454.349464 211.322031 L -449.006181 208.832547 L -446.182742 204.612568 C -446.213101 204.582208 -446.30418 204.46077 -446.30418 204.46077 L -446.061304 204.46077 L -446.182742 204.612568 C -445.788067 204.976883 -443.268224 207.25385 -443.268224 208.255715 C -443.268224 209.379019 -439.260762 217.424303 -439.260762 217.424303 L -439.442919 217.818977 L -434.676468 220.126304 L -421.166463 218.760123 L -401.463108 220.126304 L -399.793332 219.913787 L -392.962431 214.024032 L -367.005006 212.870368 L -351.946663 213.4472 C -351.946663 213.4472 -349.39646 209.98621 -347.483808 209.98621 C -345.631874 209.98621 -338.193782 209.409378 -338.193782 209.409378 L -332.668342 205.614433 L -327.142901 210.198727 L -318.368988 209.621895 C -318.368988 209.621895 -323.287237 215.663448 -322.163933 215.906325 C -321.101349 216.149201 -312.054199 211.322031 -312.054199 211.322031 L -293.383069 207.527086 L -288.616618 207.344928 C -263.448542 183.69483 -247.722289 150.086795 -247.722289 112.805254 L -250.970762 109.162107 L -263.175306 90.855291 L -260.473305 90.430257 L -260.564383 90.582055 L -253.824561 98.384462 L -249.634941 101.845452 L -247.813367 108.463837 C -248.086604 99.781002 -249.209907 91.341044 -251.12256 83.143963 L -252.731616 81.413468 L -254.644269 78.529309 L -255.038943 76.616657 L -257.164112 75.280836 L -257.740944 77.193488 L -259.41072 76.798814 L -260.017911 74.521847 L -259.835754 71.273374 L -260.200069 69.178564 L -262.14308 68.78389 L -261.960923 71.060857 L -264.055733 72.002003 L -264.632564 70.301868 L -264.632564 68.78389 L -267.668521 64.837147 L -268.609667 62.347663 L -269.004341 60.252853 L -269.945488 60.252853 L -272.252814 61.588674 L -274.165467 62.742337 L -275.865602 64.897866 C -275.865602 64.897866 -279.387311 68.78389 -279.690907 68.844609 C -279.933783 68.966047 -281.603559 71.121576 -281.603559 71.121576 L -283.151897 73.064588 L -282.96974 77.284567 L -283.698369 81.990299 L -284.275201 83.902952 L -286.218213 85.056615 L -287.584393 83.386839 L -289.254169 79.379377 L -290.407832 75.159398 L -292.593721 70.210789 L -293.474148 65.049664 L -294.081339 62.195865 L -294.658171 64.108518 L -296.388666 64.108518 L -297.056576 62.408382 L -299.54606 58.977752 L -303.00705 55.911436 L -302.824893 55.698919 L -313.693616 55.911436 L -315.211594 54.211301 L -317.640359 54.788132 L -321.344225 52.693322 L -323.439035 49.41449 L -325.13917 46.166017 L -325.13917 51.144985 L -322.467529 53.634469 L -320.797753 56.093593 L -320.069124 58.036605 L -317.57964 59.190269 L -316.608134 57.641931 L -315.090156 56.670425 L -312.813188 59.342066 L -311.143413 61.285078 L -311.264851 64.351394 L -313.450739 67.964182 L -317.093887 70.058992 L -319.765528 73.307465 L -323.408675 74.248611 L -326.657148 77.314927 L -330.269936 73.671779 L -332.971937 69.239283 L -335.431062 64.65499 L -337.738388 60.435011 L -340.774345 54.727413 L -342.322682 51.47894 L -344.963964 51.873614 L -344.417492 54.757773 L -341.928008 59.129549 L -340.015355 62.772697 L -338.31522 65.656855 L -337.374074 70.605464 L -333.366612 73.671779 L -331.636117 77.132769 L -329.541307 80.5634 L -326.110676 81.504546 L -324.410541 79.804411 L -320.767394 79.804411 L -321.162068 84.02439 L -322.710405 86.878189 L -323.651552 90.126662 L -326.141036 92.585786 L -332.637982 100.60071 L -336.281129 106.369027 L -335.52214 113.230288 L -334.368477 118.178896 L -334.368477 123.522179 L -339.317086 128.258271 L -341.442255 132.872924 L -341.624412 137.457218 L -345.601515 141.46468 L -345.996189 145.077468 L -351.885944 154.246055 L -355.134417 154.246055 L -360.508059 154.792527 L -362.602869 156.887337 L -363.149341 152.697718 L -363.544016 149.05457 L -366.974646 144.470277 L -367.187163 141.586118 L -368.856939 134.907015 L -370.040962 133.783711 L -371.376782 126.709933 L -371.194625 122.884628 L -369.46413 118.877166 L -369.646287 114.171434 L -370.799951 106.915499 L -373.319794 104.031341 L -375.202087 100.570351 L -374.473458 98.475541 L -373.714469 95.8039 L -373.714469 92.585786 L -375.809278 91.067808 L -379.057751 90.885651 L -379.998898 88.942639 L -383.034854 88.578324 L -385.524338 89.731987 L -395.0876 89.731987 L -395.664432 92.008954 L -398.305713 91.432123 L -400.977355 89.155156 L -405.561649 83.629716 L -406.897469 79.804411 L -409.174436 75.857668 L -408.779762 72.184161 L -407.656458 69.117845 L -407.443941 59.190269 L -403.648996 54.059503 L -398.305713 49.839524 L -396.210904 43.88905 L -392.749914 40.822734 L -387.588788 40.701296 L -384.947506 38.242171 L -376.537908 38.606486 L -376.325391 36.693834 L -372.89476 36.511676 L -372.89476 42.249633 L -367.551478 45.437387 L -362.208195 48.503703 L -360.113385 45.619545 L -358.200733 43.919409 L -356.682755 45.832062 L -348.273156 47.380399 L -347.119493 44.5266 L -344.630009 44.921275 L -342.535199 45.103432 L -341.77621 40.36734 L -341.958367 37.908216 L -344.265694 37.513542 L -345.96583 38.849362 L -346.937335 37.179587 L -350.701921 38.515407 L -352.82709 36.056283 L -353.950394 33.202484 L -351.309112 32.625652 L -350.550123 31.441629 L -346.937335 29.528977 L -343.112031 29.528977 L -338.709894 30.409404 L -335.673938 29.680775 L -337.009759 27.009133 L -339.286726 25.85547 L -341.958367 23.578503 L -340.622547 21.271176 L -344.630009 21.271176 L -343.688862 23.396346 L -345.20684 24.732166 L -346.542661 23.76066 L -347.119493 21.848008 L -350.580483 21.271176 L -351.49127 25.491155 L -353.039607 28.344954 L -352.85745 31.41127 L -353.798596 31.016596 L -356.470238 30.075449 L -357.623901 31.41127 L -358.170373 33.50608 L -357.229227 36.96707 L -358.929362 37.513542 L -361.236689 35.236575 L -362.390352 34.477586 L -362.390352 30.287966 L -364.667319 27.585965 L -369.281973 23.001671 L -371.376782 23.183829 L -371.953614 24.337492 L -365.426308 30.439764 L -364.667319 31.988102 L -365.851342 31.988102 L -365.274511 34.295428 L -367.187163 35.236575 L -367.946152 32.564933 L -374.625255 24.732166 L -375.961076 25.88583 L -381.881191 26.857336 L -385.129664 30.834438 L -388.772811 37.331384 L -392.415958 38.667205 L -397.000252 36.177721 L -397.000252 32.534574 L -395.846589 28.162797 L -393.144588 25.491155 L -392.385599 27.191291 L -388.408496 26.432302 L -387.801305 26.432302 L -386.678001 24.914324 C -386.678001 24.914324 -387.042316 23.578503 -387.224473 23.578503 C -387.43699 23.578503 -388.195979 22.212323 -388.195979 22.212323 L -389.349643 20.33003 L -391.019419 19.146007 L -390.078272 17.779827 L -388.560294 17.597669 C -388.560294 17.597669 -387.406631 17.354793 -387.011957 17.202995 C -386.617282 17.051197 -385.129664 16.626163 -385.129664 16.626163 L -383.004494 16.079691 L -381.456157 14.531354 L -380.51501 13.37769 C -380.51501 13.37769 -379.786381 12.193668 -379.786381 11.677555 C -379.786381 11.161442 -380.970404 10.584611 -381.122202 9.97742 C -381.24364 9.339869 -380.150696 9.582745 -380.150696 9.582745 L -377.479054 10.918566 C -377.479054 10.918566 -375.778919 10.402453 -375.596761 10.159577 C -375.414604 9.9167 -375.01993 8.823756 -375.01993 8.823756 C -375.01993 8.823756 -375.839638 7.457576 -375.778919 7.123621 C -375.748559 6.789666 -374.625255 5.393126 -374.625255 5.393126 L -372.92512 6.759306 L -373.866266 8.277284 L -374.078783 9.673824 L -372.712603 9.673824 C -372.530446 9.673824 -370.283838 9.795262 -369.099815 9.673824 C -367.915792 9.552386 -367.581837 9.24879 -367.187163 8.914835 C -366.70141 8.58088 -365.820983 8.520161 -365.820983 8.520161 L -364.303005 9.096992 L -364.120847 9.096992 L -361.813521 7.396857 L -361.418846 7.093261 C -361.358127 6.789666 -361.297408 6.51643 -361.358127 6.394991 C -361.479565 6.030677 -361.358127 4.482339 -361.358127 4.482339 C -361.358127 4.482339 -360.022306 2.751844 -359.445475 2.569687 C -358.807924 2.35717 -356.773833 2.903642 -356.379159 2.751844 C -356.014844 2.569687 -354.861181 1.385664 -354.861181 1.385664 L -354.466507 0.0498429 L -356.136283 -0.891303 L -358.048935 -0.496629 L -360.174104 -0.375191 L -361.327768 -1.255618 L -361.327768 -3.441507 L -360.933093 -4.959485 L -359.597273 -6.477463 L -359.597273 -7.236452 L -361.115251 -8.390115 L -362.451071 -7.448969 L -363.392218 -6.295305 L -364.728038 -4.59517 C -364.728038 -4.59517 -365.912061 -3.684383 -365.912061 -3.441507 C -365.912061 -3.22899 -366.640691 -2.803956 -366.640691 -2.803956 L -367.035365 -0.891303 L -366.094219 -0.496629 C -366.094219 -0.496629 -365.001275 0.687394 -364.940555 0.839192 C -364.879836 0.96063 -365.33523 1.780338 -365.33523 1.780338 L -367.035365 2.934001 C -367.035365 2.934001 -367.096084 5.241328 -367.187163 5.423485 C -367.278242 5.605643 -369.49449 6.971823 -369.49449 6.971823 L -370.071321 5.423485 L -371.437502 3.510833 L -372.591165 1.233866 C -372.591165 1.233866 -373.319794 1.385664 -374.109143 1.62854 C -374.898492 1.871417 -375.050289 2.569687 -375.050289 2.569687 C -375.050289 2.569687 -376.477189 3.328676 -376.598627 3.328676 C -376.720065 3.328676 -377.509414 2.387529 -377.509414 2.387529 L -378.268403 0.292719 L -377.721931 -1.80209 L -376.173593 -2.014607 L -372.166131 -6.386384 L -369.49449 -9.088385 L -363.544016 -13.824477 L -357.806058 -14.97814 L -352.462776 -14.036994 L -347.119493 -12.124341 L -343.294188 -10.211689 L -345.2372 -9.4527 L -349.457179 -9.665217 L -349.821494 -8.08652 L -348.880347 -6.568541 L -346.967695 -5.202361 L -340.41003 -8.72407 L -339.984996 -9.027666 L -339.742119 -9.088385 L -339.529603 -9.179464 L -339.651041 -9.088385 L -335.066747 -9.847374 C -335.127466 -9.877734 -335.188185 -9.908093 -335.279264 -9.938453 L -339.6814 -9.179464 L -339.529603 -9.300902 C -339.377805 -9.331262 -337.920546 -9.908093 -336.584725 -10.363487 C -349.457179 -14.644185 -363.21006 -16.951511 -377.479054 -16.951511 Z M -405.774166 -8.602632 L -405.774166 -8.572273 L -398.761107 -8.572273 L -397.394927 -6.841778 L -399.520096 -4.746968 L -402.738209 -3.987979 C -402.738209 -3.987979 -403.800794 -3.957619 -406.563514 -6.082788 Z M -388.83353 2.29645 L -387.953103 4.785935 L -385.797574 7.062902 L -385.220742 11.009645 L -383.550967 13.286612 L -386.586923 14.713511 L -390.017553 15.259983 L -390.92834 14.318837 L -389.5318 12.04187 L -388.013822 10.493532 L -388.408496 8.793397 L -391.292655 7.427216 C -391.292655 7.427216 -390.776542 5.484204 -390.351508 3.632271 Z M -393.69106 9.491667 L -392.142722 11.586476 L -393.053509 13.286612 L -395.330476 12.345465 Z M -326.56607 20.906862 C -326.687508 20.906862 -326.808946 20.906862 -326.900025 20.967581 L -326.960744 21.180098 C -327.750093 21.422974 -330.391375 23.578503 -330.391375 23.578503 L -331.150364 26.766257 C -331.150364 26.766257 -330.543172 28.071718 -329.632385 28.466392 C -328.812677 28.921786 -326.960744 31.350551 -326.960744 31.350551 L -325.624923 35.327653 L -322.37645 37.452823 L -319.886966 36.299159 L -322.194293 32.625652 L -323.864069 29.741494 L -325.533845 25.1572 L -326.141036 23.244548 L -324.623058 21.848008 C -324.623058 21.848008 -325.716002 20.906862 -326.56607 20.906862 Z M -375.141368 28.405673 L -374.078783 31.229113 L -374.260941 33.172124 L -375.778919 34.538305 L -377.418335 32.868529 Z M -382.852697 32.959608 L -381.972269 33.961473 L -382.852697 34.113271 Z M -369.767726 35.904485 L -367.278242 38.151093 L -368.978377 39.486913 L -370.921389 36.299159 Z M -492.66323 61.406517 L -487.684262 61.406517 L -483.464283 64.442473 L -483.099968 66.112249 L -485.528733 67.630227 L -487.653903 64.715709 L -491.32741 63.987079 L -494.545523 62.347663 L -492.602511 61.406517 Z M -259.835754 83.022524 L -252.154785 91.735718 L -250.515368 96.957563 C -250.515368 96.957563 -253.794201 96.562889 -254.310314 96.562889 C -254.856786 96.562889 -259.167843 83.811873 -259.835754 83.022524 Z M -281.785717 83.356479 L -281.057087 84.297626 L -280.662413 87.242503 L -282.757223 89.51947 L -283.698369 85.815604 Z M -324.653417 120.273706 L -322.922922 120.395144 L -322.37645 123.097145 L -322.37645 126.527776 L -323.044361 128.258271 L -325.442766 131.871059 L -325.017732 134.937374 L -326.56607 137.396499 L -329.055554 141.221804 L -331.150364 140.644972 L -332.12187 136.941105 L -332.12187 133.510475 L -329.632385 131.354946 L -330.573532 130.474519 L -332.12187 128.31899 L -329.9967 126.649214 L -327.051823 125.252674 C -327.051823 125.252674 -324.774856 123.340022 -324.653417 122.975707 Z M -449.916968 178.108671 L -449.79553 178.13903 L -449.886608 178.199749 L -448.793664 180.810672 L -451.82962 179.262334 L -451.192069 179.080177 L -449.886608 178.199749 Z M -455.260251 179.262334 L -455.138812 179.262334 L -455.199532 179.353413 L -453.863711 181.691099 L -456.535352 182.32865 L -455.199532 179.353413 Z M -444.270089 223.951608 L -444.482606 223.981968 C -442.964628 224.892755 -441.416291 225.773182 -439.867953 226.62325 L -435.981929 226.62325 Z M -444.270089 223.951608 " transform="matrix(0.128666,0,0,0.128666,72.064897,11.724056)"/>
<path style=" stroke:none;fill-rule:nonzero;fill:rgb(60%,60%,60%);fill-opacity:1;" d="M 16.210938 18.359375 L 15.988281 17.421875 L 15.859375 17.246094 C 15.6875 17.003906 15.679688 17 15.601562 17.078125 C 15.476562 17.199219 15.457031 17.207031 15.363281 17.210938 C 15.15625 17.210938 14.839844 16.984375 14.625 16.679688 L 14.5 16.5 L 14.238281 16.5 L 14.226562 16.621094 C 14.199219 16.96875 14.113281 17.371094 14.136719 18.199219 C 14.148438 18.703125 14.148438 19.113281 14.15625 19.125 C 14.167969 19.148438 14.78125 19.292969 15.066406 19.355469 C 15.371094 19.421875 15.4375 19.945312 15.59375 19.632812 C 15.640625 19.542969 15.707031 19.519531 15.761719 19.492188 C 16.476562 19.101562 16.253906 18.835938 16.210938 18.359375 Z M 16.210938 18.359375 "/>
<path style=" stroke:none;fill-rule:nonzero;fill:rgb(59.215686%,59.215686%,59.215686%);fill-opacity:1;" d="M 18.046875 42.507812 C 16.550781 40.527344 15.902344 38.566406 15.917969 34.609375 C 15.925781 31.75 16.925781 28.234375 17.074219 27.746094 C 17.109375 27.628906 17.527344 27.207031 17.800781 27.242188 C 18.046875 27.273438 18.207031 27.648438 18.292969 27.863281 C 18.339844 27.980469 18.703125 28.492188 18.707031 30.230469 C 18.71875 33.925781 19.125 36.929688 19.945312 39.371094 C 20.351562 40.582031 20.6875 41.199219 21.28125 41.816406 C 21.785156 42.34375 22.578125 42.535156 24.246094 42.539062 C 25.175781 42.539062 25.285156 42.566406 25.285156 42.792969 C 23.023438 45.367188 19.367188 43.648438 18.046875 42.507812 Z M 18.046875 42.507812 "/>
<path style=" stroke:none;fill-rule:nonzero;fill:rgb(59.215686%,59.215686%,59.215686%);fill-opacity:1;" d="M 37.375 35.445312 C 37.199219 35.238281 38.902344 32.863281 38.710938 31.667969 C 38.609375 31.046875 38.359375 30.65625 38.0625 30.65625 C 38.011719 30.65625 37.6875 30.925781 37.339844 31.253906 C 36.992188 31.585938 36.21875 32.308594 35.621094 32.863281 C 35.023438 33.417969 34.257812 34.140625 33.917969 34.46875 C 33.578125 34.796875 33.324219 34.871094 33.226562 34.871094 C 33 34.871094 32.363281 34.390625 32.386719 34.210938 C 32.40625 34.042969 32.417969 33.984375 32.585938 33.632812 C 33.34375 32.027344 33.925781 30.777344 34.296875 29.964844 C 34.515625 29.476562 34.867188 28.738281 35.070312 28.316406 L 35.445312 27.554688 L 35.410156 26.914062 L 34.960938 26.421875 L 32.078125 26.070312 C 30.492188 25.878906 29.40625 25.789062 29.035156 25.515625 C 28.832031 25.363281 28.628906 25.394531 28.628906 24.9375 C 28.628906 24.613281 28.886719 24.425781 28.996094 24.339844 C 29.09375 24.257812 30.226562 23.746094 31.738281 23.332031 C 34.402344 22.597656 39.0625 21.132812 39.238281 20.96875 C 39.46875 20.753906 37.992188 17.824219 37.105469 16.726562 C 36.214844 15.628906 35.847656 15.207031 35.574219 14.972656 C 34.953125 14.429688 34.28125 13.652344 34.402344 13.6875 C 38.402344 14.304688 41.488281 18.136719 42.269531 22.558594 C 42.398438 24.945312 42.125 25.253906 42.132812 27.230469 C 41.847656 29.390625 41.800781 29.398438 41.621094 30.21875 C 41.402344 31.058594 41.363281 31.582031 40.40625 32.785156 L 38.636719 35.011719 L 38.101562 35.3125 C 37.871094 35.472656 37.683594 35.539062 37.519531 35.492188 Z M 37.375 35.445312 "/>
<path style=" stroke:none;fill-rule:nonzero;fill:rgb(59.215686%,59.215686%,59.215686%);fill-opacity:1;" d="M 6.453125 29.550781 C 6.375 29.449219 6.371094 28.460938 6.441406 26.871094 C 6.5625 24.101562 6.738281 26.199219 6.222656 26.296875 C 5.746094 26.386719 6.503906 23.492188 6.589844 21.90625 C 6.644531 20.855469 6.8125 19.707031 7.660156 18.011719 C 9.289062 14.746094 9.015625 15.15625 9.289062 14.746094 C 10.03125 13.503906 10.839844 12.277344 11.683594 11.914062 C 13.550781 11.042969 16.292969 10.15625 18.316406 10.746094 C 18.339844 10.816406 18.03125 11.023438 17.632812 11.210938 C 16.511719 11.734375 16.429688 11.820312 16.59375 12.257812 C 16.773438 12.730469 16.921875 12.820312 17.5 12.824219 C 17.871094 12.824219 17.984375 12.769531 18.054688 12.542969 C 19.566406 9.160156 23.359375 7.261719 26.945312 7.453125 C 28.96875 7.753906 30.097656 9.550781 30.527344 11.167969 C 30.574219 11.351562 30.65625 11.335938 30.558594 11.289062 C 30.449219 11.238281 30.160156 11.109375 29.707031 10.949219 C 28.285156 10.449219 26.425781 11.308594 25.039062 13.25 L 24.601562 13.863281 L 24.644531 15.78125 L 24.480469 17.613281 L 23.460938 20.207031 C 22.226562 23.34375 21.21875 23.285156 20.753906 23.859375 C 20.707031 23.917969 20.472656 24.144531 20.1875 24.292969 L 19.683594 24.554688 L 18.746094 24.804688 C 14.675781 25.722656 14.34375 22.4375 14.164062 18.863281 C 14.292969 18.730469 15.125 19.011719 15.433594 19.292969 C 15.609375 19.453125 15.84375 19.414062 15.925781 19.402344 C 16.046875 19.386719 15.964844 19.296875 15.910156 18.90625 C 15.761719 17.808594 15.699219 17.636719 15.378906 17.425781 C 15.078125 17.230469 15.082031 17.273438 14.847656 17.214844 C 14.386719 17.035156 14.550781 17.175781 14.3125 16.949219 C 14.335938 14.300781 13.746094 13.964844 12.90625 14.914062 C 12.75 14.976562 11.671875 16.449219 11.347656 17.042969 C 10.765625 18.117188 10.789062 18.027344 11.003906 18.367188 C 11.113281 18.542969 11.347656 19.074219 11.644531 19.355469 C 12.105469 19.789062 12.402344 20.101562 12.335938 20.386719 C 12.15625 21.121094 11.96875 20.792969 10.9375 20.746094 L 9.996094 20.703125 L 9.886719 21.121094 C 9.816406 21.386719 9.871094 22.503906 10.039062 24.269531 C 10.484375 28.941406 10.511719 28.710938 10.175781 29.117188 C 9.980469 29.347656 9.808594 29.441406 9.675781 29.390625 C 9.5625 29.347656 9.253906 28.804688 8.996094 28.179688 C 8.734375 27.558594 8.464844 27.070312 8.398438 27.09375 C 8.332031 27.113281 8.070312 27.640625 7.816406 28.261719 C 7.566406 28.886719 7.316406 29.464844 7.257812 29.550781 C 7.128906 29.753906 6.609375 29.753906 6.453125 29.550781 Z M 6.453125 29.550781 "/>
<path style=" stroke:none;fill-rule:nonzero;fill:rgb(60%,60%,60%);fill-opacity:1;" d="M 18.808594 20.132812 C 18.789062 19.644531 18.765625 19.242188 18.753906 19.234375 C 18.742188 19.226562 18.484375 19.183594 18.175781 19.136719 L 17.621094 19.050781 L 17.699219 19.957031 C 17.78125 20.941406 17.890625 21.097656 18.472656 21.046875 L 18.839844 21.011719 Z M 18.808594 20.132812 "/>
<path style=" stroke:none;fill-rule:nonzero;fill:rgb(60%,60%,60%);fill-opacity:1;" d="M 20.820312 20.527344 C 21.121094 20.144531 21.378906 20.101562 21.546875 20.40625 C 21.648438 20.585938 21.757812 20.601562 22.28125 20.5 L 22.890625 20.382812 L 22.929688 19.511719 C 22.949219 19.035156 22.933594 18.550781 22.886719 18.441406 C 22.820312 18.269531 22.777344 18.28125 22.582031 18.523438 C 22.28125 18.886719 21.699219 19.117188 21.523438 18.9375 C 21.320312 18.734375 20.738281 18.785156 20.46875 19.027344 C 20.234375 19.234375 19.550781 20.644531 19.550781 20.917969 C 19.550781 21.175781 20.554688 20.863281 20.820312 20.527344 Z M 20.820312 20.527344 "/>
<path style=" stroke:none;fill-rule:nonzero;fill:rgb(60%,60%,60%);fill-opacity:1;" d="M 19.214844 19.917969 C 19.214844 19.886719 19.296875 19.761719 19.4375 19.574219 C 19.644531 19.292969 19.671875 19.265625 19.964844 19.035156 L 20.277344 18.792969 L 20.511719 18.117188 L 20.648438 17.988281 C 20.828125 17.8125 20.832031 17.8125 20.914062 17.867188 C 21.617188 19.5 21.511719 18.585938 20.679688 19.3125 C 20.417969 19.421875 20.074219 19.667969 19.867188 19.773438 C 19.640625 19.882812 19.378906 19.96875 19.269531 19.96875 C 19.226562 19.96875 19.214844 19.960938 19.214844 19.917969 Z M 19.214844 19.917969 "/>
<path style=" stroke:none;fill-rule:nonzero;fill:rgb(60%,60%,60%);fill-opacity:1;" d="M 19.046875 19.949219 C 19.023438 19.9375 19.011719 19.902344 19.011719 19.867188 C 19.011719 19.640625 19.589844 18.417969 19.855469 18.078125 C 19.992188 17.90625 20.253906 17.796875 20.535156 17.792969 C 20.625 17.792969 20.722656 17.796875 20.75 17.808594 C 20.796875 17.820312 20.789062 17.828125 20.644531 17.96875 L 20.492188 18.117188 L 20.269531 18.769531 L 19.953125 19.019531 C 19.65625 19.257812 19.628906 19.285156 19.417969 19.570312 C 19.273438 19.761719 19.195312 19.886719 19.195312 19.917969 C 19.195312 19.960938 19.183594 19.96875 19.136719 19.96875 C 19.105469 19.96875 19.066406 19.960938 19.046875 19.949219 Z M 19.046875 19.949219 "/>
<path style=" stroke:none;fill-rule:nonzero;fill:rgb(56.862745%,47.843137%,47.843137%);fill-opacity:1;" d="M 12.292969 7.628906 C 12.144531 6.261719 12.054688 5.058594 12.09375 4.960938 C 12.132812 4.859375 12.246094 4.253906 12.648438 4.171875 C 13.277344 4.039062 13.632812 4.503906 13.761719 4.675781 C 13.839844 4.785156 14.347656 6.082031 14.886719 7.558594 C 15.421875 9.03125 15.917969 10.308594 15.988281 10.390625 C 16.207031 11.328125 16.03125 10.722656 16.59375 12.257812 C 16.773438 12.726562 16.921875 12.820312 17.5 12.820312 C 17.871094 12.824219 19.949219 13.414062 20.019531 13.1875 C 21.359375 11.152344 21.246094 11.472656 23.21875 7.152344 L 23.875 5.828125 C 24.34375 4.886719 24.621094 4.59375 24.753906 4.507812 C 24.886719 4.425781 25.359375 4.101562 25.664062 4.179688 C 26.457031 4.601562 26.167969 5.632812 26.109375 5.941406 C 25.402344 8.917969 25.300781 9.097656 24.597656 13.859375 L 24.640625 15.777344 L 24.542969 17.722656 C 23.539062 20.101562 22.644531 22.945312 20.464844 24.273438 C 20.027344 24.5625 19.246094 24.667969 18.746094 24.800781 C 14.824219 26.09375 14.246094 22.113281 14.132812 18.941406 C 14.140625 18.5 15.535156 18.964844 15.84375 19.246094 C 16.019531 19.40625 15.84375 19.410156 15.925781 19.398438 C 16.042969 19.382812 15.964844 19.296875 15.910156 18.90625 C 15.757812 17.804688 15.695312 17.632812 15.378906 17.425781 C 15.078125 17.226562 15.078125 17.269531 14.847656 17.214844 C 14.386719 17.03125 14.546875 17.171875 14.308594 16.945312 C 14.21875 16.230469 13.902344 15.445312 13.695312 14.804688 C 13.335938 12.082031 12.582031 10.199219 12.292969 7.628906 Z M 12.292969 7.628906 "/>
<path style=" stroke:none;fill-rule:nonzero;fill:rgb(56.862745%,47.843137%,47.843137%);fill-opacity:1;" d="M 16.230469 18.183594 L 16.003906 17.246094 L 15.875 17.066406 C 15.703125 16.828125 15.699219 16.824219 15.621094 16.898438 C 15.496094 17.019531 15.472656 17.03125 15.382812 17.03125 C 15.171875 17.035156 14.859375 16.808594 14.644531 16.503906 L 14.519531 16.324219 L 14.253906 16.324219 L 14.246094 16.445312 C 14.214844 16.792969 14.132812 17.195312 14.15625 18.023438 C 14.167969 18.527344 14.164062 18.9375 14.171875 18.949219 C 14.1875 18.972656 14.796875 19.117188 15.085938 19.179688 C 15.386719 19.246094 15.453125 19.769531 15.613281 19.453125 C 15.65625 19.367188 15.722656 19.34375 15.777344 19.316406 C 16.492188 18.925781 16.269531 18.660156 16.230469 18.183594 Z M 16.230469 18.183594 "/>
<path style=" stroke:none;fill-rule:nonzero;fill:rgb(56.862745%,47.843137%,47.843137%);fill-opacity:1;" d="M 18.824219 19.957031 C 18.808594 19.46875 18.785156 19.066406 18.773438 19.058594 C 18.757812 19.050781 18.5 19.007812 18.195312 18.960938 L 17.640625 18.875 L 17.71875 19.78125 C 17.800781 20.765625 17.910156 20.921875 18.488281 20.871094 L 18.859375 20.835938 Z M 18.824219 19.957031 "/>
<path style=" stroke:none;fill-rule:nonzero;fill:rgb(56.862745%,47.843137%,47.843137%);fill-opacity:1;" d="M 20.839844 20.351562 C 21.140625 19.96875 21.394531 19.925781 21.566406 20.230469 C 21.667969 20.410156 21.777344 20.425781 22.296875 20.324219 L 22.910156 20.207031 L 22.945312 19.335938 C 22.96875 18.859375 22.949219 18.375 22.90625 18.265625 C 22.839844 18.09375 22.792969 18.105469 22.597656 18.34375 C 22.300781 18.710938 21.71875 18.941406 21.539062 18.761719 C 21.335938 18.558594 20.757812 18.609375 20.484375 18.851562 C 20.253906 19.058594 19.570312 20.46875 19.570312 20.742188 C 19.570312 20.996094 20.574219 20.6875 20.839844 20.351562 Z M 20.839844 20.351562 "/>
<path style=" stroke:none;fill-rule:nonzero;fill:rgb(56.862745%,47.843137%,47.843137%);fill-opacity:1;" d="M 19.234375 19.742188 C 19.234375 19.710938 19.316406 19.585938 19.453125 19.398438 C 19.664062 19.117188 19.6875 19.089844 19.984375 18.859375 L 20.292969 18.617188 L 20.53125 17.9375 L 20.664062 17.8125 C 20.847656 17.636719 20.851562 17.636719 20.933594 17.691406 C 21.632812 19.324219 21.527344 18.40625 20.699219 19.136719 C 20.433594 19.246094 20.09375 19.492188 19.882812 19.597656 C 19.65625 19.707031 19.398438 19.792969 19.289062 19.792969 C 19.242188 19.792969 19.234375 19.785156 19.234375 19.742188 Z M 19.234375 19.742188 "/>
<path style=" stroke:none;fill-rule:nonzero;fill:rgb(56.862745%,47.843137%,47.843137%);fill-opacity:1;" d="M 19.0625 19.773438 C 19.042969 19.757812 19.027344 19.726562 19.027344 19.691406 C 19.027344 19.464844 19.605469 18.238281 19.875 17.898438 C 20.007812 17.730469 20.273438 17.621094 20.554688 17.617188 C 20.644531 17.617188 20.738281 17.621094 20.765625 17.632812 C 20.8125 17.644531 20.808594 17.652344 20.664062 17.792969 L 20.511719 17.9375 L 20.398438 18.265625 L 20.289062 18.59375 L 19.972656 18.84375 C 19.671875 19.082031 19.644531 19.109375 19.433594 19.394531 C 19.292969 19.582031 19.210938 19.710938 19.210938 19.742188 C 19.210938 19.785156 19.203125 19.792969 19.15625 19.792969 C 19.125 19.792969 19.082031 19.78125 19.0625 19.773438 Z M 19.0625 19.773438 "/>
<path style=" stroke:none;fill-rule:nonzero;fill:rgb(56.862745%,47.843137%,47.843137%);fill-opacity:1;" d="M 18.933594 19.789062 L 19.148438 18.949219 L 19.496094 18.375 L 19.980469 18.105469 L 20.539062 18.003906 L 21.0625 18.0625 L 21.273438 18.21875 L 21.292969 18.828125 L 21.082031 19.304688 L 20.9375 19.558594 L 20.421875 19.867188 L 19.90625 19.964844 L 19.378906 19.933594 Z M 18.933594 19.789062 "/>
<path style=" stroke:none;fill-rule:nonzero;fill:rgb(56.862745%,47.843137%,47.843137%);fill-opacity:1;" d="M 18.996094 19.425781 C 18.996094 19.425781 19.410156 18.589844 20.058594 18.429688 C 20.613281 18.292969 21.308594 18.253906 21.308594 18.253906 L 21.117188 18.160156 L 20.53125 17.96875 L 19.703125 18.242188 L 19.351562 18.5625 L 19.140625 18.960938 Z M 18.996094 19.425781 "/>
<path style=" stroke:none;fill-rule:nonzero;fill:rgb(56.862745%,47.843137%,47.843137%);fill-opacity:1;" d="M 19.027344 19.378906 C 19.027344 19.378906 19.355469 18.546875 19.996094 18.300781 C 20.527344 18.09375 21.292969 18.203125 21.292969 18.203125 L 21.109375 18.132812 L 20.53125 17.96875 L 19.703125 18.242188 L 19.347656 18.550781 L 19.0625 19.144531 Z M 19.027344 19.378906 "/>
<path style=" stroke:none;fill-rule:evenodd;fill:rgb(56.862745%,47.843137%,47.843137%);fill-opacity:1;" d="M 19.855469 18.070312 C 20.675781 17.710938 21.402344 18.066406 21.402344 18.066406 L 21.316406 18.148438 C 21.511719 18.679688 21.324219 19.292969 20.867188 19.65625 C 20.410156 20.019531 19.597656 20.167969 18.941406 19.808594 L 18.898438 19.789062 C 18.960938 19.160156 19.140625 18.382812 19.855469 18.070312 Z M 19.921875 18.214844 C 19.550781 18.347656 19.300781 18.734375 19.148438 19.097656 C 19.011719 19.433594 18.960938 19.71875 18.953125 19.757812 C 19.695312 20.074219 20.332031 19.941406 20.75 19.609375 C 21.167969 19.277344 21.367188 18.738281 21.1875 18.238281 C 21.160156 18.21875 20.699219 17.9375 19.921875 18.214844 Z M 19.921875 18.214844 "/>
<path style=" stroke:none;fill-rule:evenodd;fill:rgb(56.862745%,47.843137%,47.843137%);fill-opacity:1;" d="M 20.816406 18.867188 C 20.710938 18.554688 20.328125 18.398438 19.957031 18.523438 C 19.585938 18.644531 19.367188 18.996094 19.46875 19.3125 C 19.574219 19.625 19.957031 19.777344 20.328125 19.65625 C 20.703125 19.535156 20.917969 19.179688 20.816406 18.867188 Z M 20.816406 18.867188 "/>
<path style=" stroke:none;fill-rule:evenodd;fill:rgb(56.862745%,47.843137%,47.843137%);fill-opacity:1;" d="M 20.382812 19.015625 C 20.339844 18.890625 20.183594 18.828125 20.027344 18.878906 C 19.875 18.929688 19.78125 19.074219 19.824219 19.199219 C 19.867188 19.324219 20.023438 19.382812 20.179688 19.332031 C 20.332031 19.28125 20.421875 19.140625 20.382812 19.015625 Z M 20.382812 19.015625 "/>
<path style=" stroke:none;fill-rule:evenodd;fill:rgb(56.862745%,47.843137%,47.843137%);fill-opacity:1;" d="M 20.121094 19.003906 C 20.105469 18.953125 20.035156 18.925781 19.972656 18.949219 C 19.90625 18.96875 19.867188 19.03125 19.882812 19.082031 C 19.902344 19.136719 19.96875 19.164062 20.035156 19.140625 C 20.101562 19.121094 20.140625 19.058594 20.121094 19.003906 Z M 20.121094 19.003906 "/>
<path style=" stroke:none;fill-rule:nonzero;fill:rgb(56.862745%,47.843137%,47.843137%);fill-opacity:1;" d="M 16.324219 19.414062 L 16.421875 18.785156 L 16.324219 18.300781 L 16.03125 17.984375 L 15.621094 17.757812 L 15.1875 17.652344 L 14.972656 17.695312 L 14.769531 18.101562 L 14.785156 18.484375 L 14.820312 18.695312 L 15.128906 19.046875 L 15.507812 19.257812 L 15.929688 19.382812 Z M 16.324219 19.414062 "/>
<path style=" stroke:none;fill-rule:nonzero;fill:rgb(56.862745%,47.843137%,47.843137%);fill-opacity:1;" d="M 16.390625 19.148438 C 16.390625 19.148438 16.328125 18.46875 15.867188 18.179688 C 15.472656 17.929688 14.9375 17.710938 14.9375 17.710938 L 15.117188 17.699219 L 15.640625 17.738281 L 16.203125 18.152344 L 16.382812 18.46875 L 16.425781 18.796875 Z M 16.390625 19.148438 "/>
<path style=" stroke:none;fill-rule:nonzero;fill:rgb(56.862745%,47.843137%,47.843137%);fill-opacity:1;" d="M 16.382812 19.109375 C 16.382812 19.109375 16.382812 18.457031 15.957031 18.109375 C 15.601562 17.824219 14.964844 17.683594 14.964844 17.683594 L 15.132812 17.6875 L 15.640625 17.738281 L 16.203125 18.152344 L 16.390625 18.460938 L 16.425781 18.941406 Z M 16.382812 19.109375 "/>
<path style=" stroke:none;fill-rule:evenodd;fill:rgb(56.862745%,47.843137%,47.843137%);fill-opacity:1;" d="M 16.136719 17.992188 C 15.605469 17.523438 14.921875 17.558594 14.921875 17.558594 L 14.964844 17.636719 C 14.644531 17.941406 14.597656 18.410156 14.84375 18.78125 C 15.089844 19.15625 15.683594 19.484375 16.3125 19.425781 L 16.355469 19.421875 C 16.503906 18.980469 16.605469 18.40625 16.136719 17.992188 Z M 16.039062 18.074219 C 16.292969 18.265625 16.367188 18.597656 16.371094 18.886719 C 16.375 19.152344 16.324219 19.355469 16.320312 19.386719 C 15.636719 19.390625 15.175781 19.125 14.949219 18.78125 C 14.726562 18.441406 14.738281 18.019531 15.035156 17.734375 C 15.0625 17.730469 15.515625 17.667969 16.039062 18.074219 Z M 16.039062 18.074219 "/>
<path style=" stroke:none;fill-rule:evenodd;fill:rgb(56.862745%,47.843137%,47.843137%);fill-opacity:1;" d="M 15.089844 18.414062 C 15.136719 18.199219 15.363281 18.082031 15.59375 18.148438 C 15.824219 18.214844 15.972656 18.441406 15.925781 18.65625 C 15.875 18.871094 15.648438 18.988281 15.417969 18.921875 C 15.1875 18.855469 15.039062 18.628906 15.089844 18.414062 Z M 15.089844 18.414062 "/>
<path style=" stroke:none;fill-rule:evenodd;fill:rgb(56.862745%,47.843137%,47.843137%);fill-opacity:1;" d="M 15.304688 18.496094 C 15.328125 18.410156 15.429688 18.363281 15.535156 18.390625 C 15.636719 18.417969 15.703125 18.511719 15.683594 18.59375 C 15.664062 18.679688 15.5625 18.726562 15.457031 18.699219 C 15.351562 18.671875 15.285156 18.582031 15.304688 18.496094 Z M 15.304688 18.496094 "/>
<path style=" stroke:none;fill-rule:evenodd;fill:rgb(56.862745%,47.843137%,47.843137%);fill-opacity:1;" d="M 15.472656 18.5 C 15.480469 18.464844 15.527344 18.445312 15.570312 18.457031 C 15.613281 18.46875 15.644531 18.507812 15.632812 18.542969 C 15.625 18.578125 15.582031 18.597656 15.539062 18.585938 C 15.492188 18.574219 15.464844 18.535156 15.472656 18.5 Z M 15.472656 18.5 "/>
<path style=" stroke:none;fill-rule:nonzero;fill:rgb(81.960784%,89.019608%,95.294118%);fill-opacity:1;" d="M 18.914062 19.96875 L 19.128906 19.125 L 19.476562 18.550781 L 19.960938 18.28125 L 20.523438 18.179688 L 21.046875 18.242188 L 21.257812 18.394531 L 21.273438 19.003906 L 21.066406 19.480469 L 20.921875 19.734375 L 20.40625 20.042969 L 19.886719 20.140625 L 19.363281 20.109375 Z M 18.914062 19.96875 "/>
<path style=" stroke:none;fill-rule:evenodd;fill:rgb(0%,0%,0%);fill-opacity:1;" d="M 19.839844 18.246094 C 20.65625 17.890625 21.382812 18.242188 21.382812 18.242188 L 21.296875 18.324219 C 21.492188 18.855469 21.304688 19.46875 20.847656 19.832031 C 20.390625 20.195312 19.578125 20.34375 18.925781 19.984375 L 18.878906 19.964844 C 18.941406 19.335938 19.121094 18.558594 19.839844 18.246094 Z M 19.90625 18.390625 C 19.53125 18.523438 19.28125 18.910156 19.132812 19.273438 C 18.992188 19.613281 18.945312 19.894531 18.9375 19.933594 C 19.675781 20.25 20.316406 20.117188 20.730469 19.785156 C 21.152344 19.453125 21.347656 18.914062 21.171875 18.414062 C 21.144531 18.398438 20.683594 18.113281 19.90625 18.390625 Z M 19.90625 18.390625 "/>
<path style=" stroke:none;fill-rule:nonzero;fill:rgb(81.960784%,89.019608%,95.294118%);fill-opacity:1;" d="M 16.308594 19.589844 L 16.40625 18.960938 L 16.308594 18.476562 L 16.011719 18.160156 L 15.601562 17.933594 L 15.171875 17.828125 L 14.957031 17.871094 L 14.75 18.277344 L 14.765625 18.660156 L 14.800781 18.871094 L 15.109375 19.226562 L 15.488281 19.433594 L 15.910156 19.558594 Z M 16.308594 19.589844 "/>
<path style=" stroke:none;fill-rule:evenodd;fill:rgb(0%,0%,0%);fill-opacity:1;" d="M 16.121094 18.167969 C 15.589844 17.699219 14.90625 17.734375 14.90625 17.734375 L 14.945312 17.8125 C 14.625 18.117188 14.582031 18.585938 14.828125 18.957031 C 15.074219 19.332031 15.667969 19.660156 16.296875 19.601562 L 16.335938 19.597656 C 16.484375 19.15625 16.585938 18.582031 16.121094 18.167969 Z M 16.023438 18.25 C 16.273438 18.445312 16.347656 18.777344 16.355469 19.0625 C 16.359375 19.328125 16.308594 19.535156 16.300781 19.5625 C 15.617188 19.570312 15.15625 19.300781 14.933594 18.957031 C 14.707031 18.617188 14.722656 18.199219 15.019531 17.910156 C 15.046875 17.90625 15.496094 17.84375 16.023438 18.25 Z M 16.023438 18.25 "/>
</g>
</svg>
