<?xml version="1.0" encoding="UTF-8"?>
<svg xmlns="http://www.w3.org/2000/svg" xmlns:xlink="http://www.w3.org/1999/xlink" width="48pt" height="48pt" viewBox="0 0 48 48" version="1.1">
<defs>
<clipPath id="clip1">
  <path d="M 1.761719 2 L 28 2 L 28 41 L 1.761719 41 Z M 1.761719 2 "/>
</clipPath>
</defs>
<g id="surface1">
<path style="fill-rule:nonzero;fill:rgb(80%,80%,80%);fill-opacity:1;stroke-width:28.191782;stroke-linecap:butt;stroke-linejoin:miter;stroke:rgb(35.294118%,49.803922%,53.333333%);stroke-opacity:1;stroke-miterlimit:4;" d="M 294.64285 58.016953 L 643.64285 58.016953 C 674.809517 58.016953 700.059517 83.266953 700.059517 114.43362 L 700.059517 463.43362 C 700.059517 494.600287 674.809517 519.850287 643.64285 519.850287 L 294.64285 519.850287 C 263.476183 519.850287 238.226183 494.600287 238.226183 463.43362 L 238.226183 114.43362 C 238.226183 83.266953 263.476183 58.016953 294.64285 58.016953 Z M 294.64285 58.016953 " transform="matrix(0.09375,0,0,0.09375,-19.982142,-3.087527)"/>
<path style=" stroke:none;fill-rule:nonzero;fill:rgb(20%,20%,20%);fill-opacity:1;" d="M 42.398438 24 C 42.398438 33.914062 34.363281 41.949219 24.449219 41.949219 C 14.539062 41.949219 6.503906 33.914062 6.503906 24 C 6.503906 14.085938 14.539062 6.050781 24.449219 6.050781 C 34.363281 6.050781 42.398438 14.085938 42.398438 24 Z M 42.398438 24 "/>
<path style=" stroke:none;fill-rule:nonzero;fill:rgb(29.803922%,29.803922%,29.803922%);fill-opacity:1;" d="M 31.929688 24 C 31.929688 28.128906 28.582031 31.476562 24.449219 31.476562 C 20.320312 31.476562 16.972656 28.128906 16.972656 24 C 16.972656 19.871094 20.320312 16.523438 24.449219 16.523438 C 28.582031 16.523438 31.929688 19.871094 31.929688 24 Z M 31.929688 24 "/>
<path style=" stroke:none;fill-rule:nonzero;fill:rgb(9.803922%,72.941176%,61.176471%);fill-opacity:1;" d="M 29.933594 24 C 29.933594 27.027344 27.480469 29.484375 24.449219 29.484375 C 21.421875 29.484375 18.964844 27.027344 18.964844 24 C 18.964844 20.972656 21.421875 18.515625 24.449219 18.515625 C 27.480469 18.515625 29.933594 20.972656 29.933594 24 Z M 29.933594 24 "/>
<path style=" stroke:none;fill-rule:nonzero;fill:rgb(20%,20%,20%);fill-opacity:1;" d="M 24.949219 24 C 24.949219 24.273438 24.726562 24.5 24.449219 24.5 C 24.175781 24.5 23.953125 24.273438 23.953125 24 C 23.953125 23.726562 24.175781 23.5 24.449219 23.5 C 24.726562 23.5 24.949219 23.726562 24.949219 24 Z M 24.949219 24 "/>
<path style="fill:none;stroke-width:0.814285;stroke-linecap:butt;stroke-linejoin:miter;stroke:rgb(29.803922%,29.803922%,29.803922%);stroke-opacity:1;stroke-miterlimit:4;" d="M 82.060303 116.362195 C 82.060303 197.037363 16.665248 262.432418 -64.00992 262.432418 C -144.653188 262.432418 -210.048243 197.037363 -210.048243 116.362195 C -210.048243 35.687027 -144.653188 -29.708028 -64.00992 -29.708028 C 16.665248 -29.708028 82.060303 35.687027 82.060303 116.362195 Z M 82.060303 116.362195 " transform="matrix(0.122453,0,0,0.122453,32.287417,9.751115)"/>
<path style="fill:none;stroke-width:0.814286;stroke-linecap:butt;stroke-linejoin:miter;stroke:rgb(29.803922%,29.803922%,29.803922%);stroke-opacity:1;stroke-miterlimit:4;" d="M 73.925796 116.362195 C 73.925796 192.539459 12.167344 254.297911 -64.00992 254.297911 C -140.187184 254.297911 -201.913736 192.539459 -201.913736 116.362195 C -201.913736 40.184931 -140.187184 -21.573521 -64.00992 -21.573521 C 12.167344 -21.573521 73.925796 40.184931 73.925796 116.362195 Z M 73.925796 116.362195 " transform="matrix(0.122453,0,0,0.122453,32.287417,9.751115)"/>
<path style="fill:none;stroke-width:0.814286;stroke-linecap:butt;stroke-linejoin:miter;stroke:rgb(29.803922%,29.803922%,29.803922%);stroke-opacity:1;stroke-miterlimit:4;" d="M 69.842593 116.362195 C 69.842593 190.274557 9.934342 250.214708 -64.00992 250.214708 C -137.922282 250.214708 -197.862433 190.274557 -197.862433 116.362195 C -197.862433 42.449833 -137.922282 -17.490318 -64.00992 -17.490318 C 9.934342 -17.490318 69.842593 42.449833 69.842593 116.362195 Z M 69.842593 116.362195 " transform="matrix(0.122453,0,0,0.122453,32.287417,9.751115)"/>
<path style="fill:none;stroke-width:0.814286;stroke-linecap:butt;stroke-linejoin:miter;stroke:rgb(29.803922%,29.803922%,29.803922%);stroke-opacity:1;stroke-miterlimit:4;" d="M 65.791289 116.362195 C 65.791289 188.041555 7.66944 246.131504 -64.00992 246.131504 C -135.68928 246.131504 -193.779229 188.041555 -193.779229 116.362195 C -193.779229 44.682835 -135.68928 -13.407114 -64.00992 -13.407114 C 7.66944 -13.407114 65.791289 44.682835 65.791289 116.362195 Z M 65.791289 116.362195 " transform="matrix(0.122453,0,0,0.122453,32.287417,9.751115)"/>
<path style="fill:none;stroke-width:0.814286;stroke-linecap:butt;stroke-linejoin:miter;stroke:rgb(29.803922%,29.803922%,29.803922%);stroke-opacity:1;stroke-miterlimit:4;" d="M 61.708086 116.362195 C 61.708086 185.776653 5.436438 242.080201 -64.00992 242.080201 C -133.424379 242.080201 -189.696026 185.776653 -189.696026 116.362195 C -189.696026 46.947737 -133.424379 -9.355811 -64.00992 -9.355811 C 5.436438 -9.355811 61.708086 46.947737 61.708086 116.362195 Z M 61.708086 116.362195 " transform="matrix(0.122453,0,0,0.122453,32.287417,9.751115)"/>
<path style="fill:none;stroke-width:0.814286;stroke-linecap:butt;stroke-linejoin:miter;stroke:rgb(29.803922%,29.803922%,29.803922%);stroke-opacity:1;stroke-miterlimit:4;" d="M 57.624882 116.362195 C 57.624882 183.543651 3.171536 237.996997 -64.00992 237.996997 C -131.191377 237.996997 -185.644723 183.543651 -185.644723 116.362195 C -185.644723 49.180738 -131.191377 -5.272607 -64.00992 -5.272607 C 3.171536 -5.272607 57.624882 49.180738 57.624882 116.362195 Z M 57.624882 116.362195 " transform="matrix(0.122453,0,0,0.122453,32.287417,9.751115)"/>
<path style="fill:none;stroke-width:4.071427;stroke-linecap:butt;stroke-linejoin:miter;stroke:rgb(29.803922%,29.803922%,29.803922%);stroke-opacity:1;stroke-miterlimit:4;" d="M 53.573579 116.362195 C 53.573579 181.27875 0.938535 233.913794 -64.00992 233.913794 C -128.926475 233.913794 -181.561519 181.27875 -181.561519 116.362195 C -181.561519 51.44564 -128.926475 -1.189404 -64.00992 -1.189404 C 0.938535 -1.189404 53.573579 51.44564 53.573579 116.362195 Z M 53.573579 116.362195 " transform="matrix(0.122453,0,0,0.122453,32.287417,9.751115)"/>
<path style="fill:none;stroke-width:0.814286;stroke-linecap:butt;stroke-linejoin:miter;stroke:rgb(29.803922%,29.803922%,29.803922%);stroke-opacity:1;stroke-miterlimit:4;" d="M 49.490375 116.362195 C 49.490375 179.045748 -1.326367 229.86249 -64.00992 229.86249 C -126.693473 229.86249 -177.478316 179.045748 -177.478316 116.362195 C -177.478316 53.678642 -126.693473 2.861899 -64.00992 2.861899 C -1.326367 2.861899 49.490375 53.678642 49.490375 116.362195 Z M 49.490375 116.362195 " transform="matrix(0.122453,0,0,0.122453,32.287417,9.751115)"/>
<path style="fill:none;stroke-width:0.814286;stroke-linecap:butt;stroke-linejoin:miter;stroke:rgb(29.803922%,29.803922%,29.803922%);stroke-opacity:1;stroke-miterlimit:4;" d="M 45.407172 116.362195 C 45.407172 176.780846 -3.559369 225.779287 -64.00992 225.779287 C -124.428571 225.779287 -173.427012 176.780846 -173.427012 116.362195 C -173.427012 55.943544 -124.428571 6.945103 -64.00992 6.945103 C -3.559369 6.945103 45.407172 55.943544 45.407172 116.362195 Z M 45.407172 116.362195 " transform="matrix(0.122453,0,0,0.122453,32.287417,9.751115)"/>
<path style="fill:none;stroke-width:0.814286;stroke-linecap:butt;stroke-linejoin:miter;stroke:rgb(29.803922%,29.803922%,29.803922%);stroke-opacity:1;stroke-miterlimit:4;" d="M 41.355869 116.362195 C 41.355869 174.547844 -5.824271 221.727984 -64.00992 221.727984 C -122.195569 221.727984 -169.343809 174.547844 -169.343809 116.362195 C -169.343809 58.176546 -122.195569 10.996406 -64.00992 10.996406 C -5.824271 10.996406 41.355869 58.176546 41.355869 116.362195 Z M 41.355869 116.362195 " transform="matrix(0.122453,0,0,0.122453,32.287417,9.751115)"/>
<path style="fill:none;stroke-width:0.814286;stroke-linecap:butt;stroke-linejoin:miter;stroke:rgb(29.803922%,29.803922%,29.803922%);stroke-opacity:1;stroke-miterlimit:4;" d="M 37.272665 116.362195 C 37.272665 172.314842 -8.057273 217.64478 -64.00992 217.64478 C -119.930667 217.64478 -165.292505 172.314842 -165.292505 116.362195 C -165.292505 60.409548 -119.930667 15.07961 -64.00992 15.07961 C -8.057273 15.07961 37.272665 60.409548 37.272665 116.362195 Z M 37.272665 116.362195 " transform="matrix(0.122453,0,0,0.122453,32.287417,9.751115)"/>
<path style="fill:none;stroke-width:0.814286;stroke-linecap:butt;stroke-linejoin:miter;stroke:rgb(29.803922%,29.803922%,29.803922%);stroke-opacity:1;stroke-miterlimit:4;" d="M 33.221362 116.362195 C 33.221362 170.04994 -10.322175 213.561577 -64.00992 213.561577 C -117.697665 213.561577 -161.209302 170.04994 -161.209302 116.362195 C -161.209302 62.67445 -117.697665 19.162813 -64.00992 19.162813 C -10.322175 19.162813 33.221362 62.67445 33.221362 116.362195 Z M 33.221362 116.362195 " transform="matrix(0.122453,0,0,0.122453,32.287417,9.751115)"/>
<path style="fill:none;stroke-width:0.814285;stroke-linecap:butt;stroke-linejoin:miter;stroke:rgb(29.803922%,29.803922%,29.803922%);stroke-opacity:1;stroke-miterlimit:4;" d="M 29.138158 116.362195 C 29.138158 167.785038 -12.555177 209.510273 -64.00992 209.510273 C -115.432763 209.510273 -157.126099 167.785038 -157.126099 116.362195 C -157.126099 64.939352 -115.432763 23.214117 -64.00992 23.214117 C -12.555177 23.214117 29.138158 64.939352 29.138158 116.362195 Z M 29.138158 116.362195 " transform="matrix(0.122453,0,0,0.122453,32.287417,9.751115)"/>
<path style="fill:none;stroke-width:4.071428;stroke-linecap:butt;stroke-linejoin:miter;stroke:rgb(29.803922%,29.803922%,29.803922%);stroke-opacity:1;stroke-miterlimit:4;" d="M 25.054955 116.362195 C 25.054955 165.552036 -14.820079 205.42707 -64.00992 205.42707 C -113.199762 205.42707 -153.074795 165.552036 -153.074795 116.362195 C -153.074795 67.172354 -113.199762 27.29732 -64.00992 27.29732 C -14.820079 27.29732 25.054955 67.172354 25.054955 116.362195 Z M 25.054955 116.362195 " transform="matrix(0.122453,0,0,0.122453,32.287417,9.751115)"/>
<path style="fill:none;stroke-width:0.814286;stroke-linecap:butt;stroke-linejoin:miter;stroke:rgb(29.803922%,29.803922%,29.803922%);stroke-opacity:1;stroke-miterlimit:4;" d="M 21.003651 116.362195 C 21.003651 163.319034 -17.053081 201.343866 -64.00992 201.343866 C -110.93486 201.343866 -148.991592 163.319034 -148.991592 116.362195 C -148.991592 69.405355 -110.93486 31.380523 -64.00992 31.380523 C -17.053081 31.380523 21.003651 69.405355 21.003651 116.362195 Z M 21.003651 116.362195 " transform="matrix(0.122453,0,0,0.122453,32.287417,9.751115)"/>
<path style="fill:none;stroke-width:0.814286;stroke-linecap:butt;stroke-linejoin:miter;stroke:rgb(29.803922%,29.803922%,29.803922%);stroke-opacity:1;stroke-miterlimit:4;" d="M 16.920448 116.362195 C 16.920448 161.054133 -19.317983 197.292563 -64.00992 197.292563 C -108.701858 197.292563 -144.940288 161.054133 -144.940288 116.362195 C -144.940288 71.670257 -108.701858 35.431827 -64.00992 35.431827 C -19.317983 35.431827 16.920448 71.670257 16.920448 116.362195 Z M 16.920448 116.362195 " transform="matrix(0.122453,0,0,0.122453,32.287417,9.751115)"/>
<path style="fill:none;stroke-width:0.814286;stroke-linecap:butt;stroke-linejoin:miter;stroke:rgb(29.803922%,29.803922%,29.803922%);stroke-opacity:1;stroke-miterlimit:4;" d="M 12.869145 116.362195 C 12.869145 158.821131 -21.550984 193.20936 -64.00992 193.20936 C -106.436956 193.20936 -140.857085 158.821131 -140.857085 116.362195 C -140.857085 73.903259 -106.436956 39.51503 -64.00992 39.51503 C -21.550984 39.51503 12.869145 73.903259 12.869145 116.362195 Z M 12.869145 116.362195 " transform="matrix(0.122453,0,0,0.122453,32.287417,9.751115)"/>
<path style="fill:none;stroke-width:0.814286;stroke-linecap:butt;stroke-linejoin:miter;stroke:rgb(29.803922%,29.803922%,29.803922%);stroke-opacity:1;stroke-miterlimit:4;" d="M 8.785941 116.362195 C 8.785941 156.556229 -23.815886 189.158056 -64.00992 189.158056 C -104.203954 189.158056 -136.773881 156.556229 -136.773881 116.362195 C -136.773881 76.168161 -104.203954 43.566334 -64.00992 43.566334 C -23.815886 43.566334 8.785941 76.168161 8.785941 116.362195 Z M 8.785941 116.362195 " transform="matrix(0.122453,0,0,0.122453,32.287417,9.751115)"/>
<path style="fill:none;stroke-width:0.814286;stroke-linecap:butt;stroke-linejoin:miter;stroke:rgb(29.803922%,29.803922%,29.803922%);stroke-opacity:1;stroke-miterlimit:4;" d="M 4.702738 116.362195 C 4.702738 154.323227 -26.048888 185.074853 -64.00992 185.074853 C -101.939052 185.074853 -132.722578 154.323227 -132.722578 116.362195 C -132.722578 78.401163 -101.939052 47.649537 -64.00992 47.649537 C -26.048888 47.649537 4.702738 78.401163 4.702738 116.362195 Z M 4.702738 116.362195 " transform="matrix(0.122453,0,0,0.122453,32.287417,9.751115)"/>
<path style="fill:none;stroke-width:0.814286;stroke-linecap:butt;stroke-linejoin:miter;stroke:rgb(29.803922%,29.803922%,29.803922%);stroke-opacity:1;stroke-miterlimit:4;" d="M 0.651434 116.362195 C 0.651434 152.058325 -28.31379 180.991649 -64.00992 180.991649 C -99.70605 180.991649 -128.639375 152.058325 -128.639375 116.362195 C -128.639375 80.666065 -99.70605 51.732741 -64.00992 51.732741 C -28.31379 51.732741 0.651434 80.666065 0.651434 116.362195 Z M 0.651434 116.362195 " transform="matrix(0.122453,0,0,0.122453,32.287417,9.751115)"/>
<path style="fill:none;stroke-width:4.071428;stroke-linecap:butt;stroke-linejoin:miter;stroke:rgb(29.803922%,29.803922%,29.803922%);stroke-opacity:1;stroke-miterlimit:4;" d="M 80.529102 116.362195 C 80.529102 196.176062 15.835847 260.901217 -64.00992 260.901217 C -143.823787 260.901217 -208.548942 196.176062 -208.548942 116.362195 C -208.548942 36.548328 -143.823787 -28.176827 -64.00992 -28.176827 C 15.835847 -28.176827 80.529102 36.548328 80.529102 116.362195 Z M 80.529102 116.362195 " transform="matrix(0.122453,0,0,0.122453,32.287417,9.751115)"/>
<path style=" stroke:none;fill-rule:nonzero;fill:rgb(29.019608%,68.235294%,90.196078%);fill-opacity:0.980392;" d="M 11.128906 9.183594 C 11.128906 10.707031 9.890625 11.945312 8.363281 11.945312 C 6.839844 11.945312 5.601562 10.707031 5.601562 9.183594 C 5.601562 7.65625 6.839844 6.417969 8.363281 6.417969 C 9.890625 6.417969 11.128906 7.65625 11.128906 9.183594 Z M 11.128906 9.183594 "/>
<path style=" stroke:none;fill-rule:nonzero;fill:rgb(0%,0%,0%);fill-opacity:0.301961;" d="M 5.617188 8.902344 C 5.605469 8.996094 5.601562 9.089844 5.601562 9.183594 C 5.601562 10.707031 6.839844 11.945312 8.363281 11.945312 C 9.890625 11.945312 11.128906 10.707031 11.128906 9.183594 C 11.125 9.097656 11.121094 9.011719 11.113281 8.925781 C 10.972656 10.339844 9.78125 11.414062 8.363281 11.414062 C 6.9375 11.410156 5.746094 10.324219 5.617188 8.902344 Z M 5.617188 8.902344 "/>
<g clip-path="url(#clip1)" clip-rule="nonzero">
<path style="fill:none;stroke-width:15;stroke-linecap:round;stroke-linejoin:miter;stroke:rgb(0%,0%,0%);stroke-opacity:1;stroke-miterlimit:4;" d="M 722.114136 354.193814 L 754.815858 534.758441 C 754.815858 534.758441 760.501198 570.192651 783.947715 582.929575 C 807.394232 595.710571 842.652153 610.783332 842.652153 610.783332 " transform="matrix(0.0886326,0,0,0.0886326,-54.963767,-21.318888)"/>
</g>
<path style=" stroke:none;fill-rule:nonzero;fill:rgb(0%,0%,0%);fill-opacity:0.996078;" d="M 14.640625 31.882812 L 15.792969 29.476562 L 19.308594 31.164062 L 18.152344 33.570312 Z M 14.640625 31.882812 "/>
<path style=" stroke:none;fill-rule:nonzero;fill:rgb(0%,0%,0%);fill-opacity:0.996078;" d="M 6.933594 8.6875 L 7.816406 13.179688 L 9.378906 16.261719 L 10.589844 16.042969 L 10.914062 12.523438 L 10.03125 8.03125 C 8.972656 7.746094 7.457031 8.214844 6.933594 8.6875 Z M 6.933594 8.6875 "/>
<path style="fill:none;stroke-width:10.857144;stroke-linecap:round;stroke-linejoin:miter;stroke:rgb(29.019608%,68.235294%,90.196078%);stroke-opacity:1;stroke-miterlimit:4;" d="M -194.35343 -1.699804 L -170.71551 128.994606 C -170.71551 128.994606 -166.600406 154.642227 -149.629592 163.861335 C -132.626878 173.112343 -107.138756 184.022152 -107.138756 184.022152 " transform="matrix(0.122453,0,0,0.122453,32.287417,9.751115)"/>
<path style=" stroke:none;fill-rule:nonzero;fill:rgb(0%,0%,0%);fill-opacity:1;" d="M 14.261719 31.707031 L 15.417969 29.300781 L 18.929688 30.988281 L 17.773438 33.394531 Z M 14.261719 31.707031 "/>
<path style=" stroke:none;fill-rule:nonzero;fill:rgb(16.862745%,60%,84.313725%);fill-opacity:0.996078;" d="M 14.085938 31.355469 L 15.242188 28.945312 L 18.753906 30.632812 L 17.597656 33.039062 Z M 14.085938 31.355469 "/>
<path style=" stroke:none;fill-rule:nonzero;fill:rgb(0%,0%,0%);fill-opacity:0.996078;" d="M 6.6875 8.84375 L 7.570312 13.335938 L 9.132812 16.417969 L 10.347656 16.195312 L 10.667969 12.675781 L 9.785156 8.1875 C 8.726562 7.902344 7.210938 8.371094 6.6875 8.84375 Z M 6.6875 8.84375 "/>
<path style=" stroke:none;fill-rule:nonzero;fill:rgb(16.862745%,60%,84.313725%);fill-opacity:0.996078;" d="M 6.550781 8.203125 L 7.433594 12.695312 L 8.996094 15.777344 L 10.207031 15.558594 L 10.53125 12.039062 L 9.648438 7.546875 C 8.589844 7.261719 7.074219 7.730469 6.550781 8.203125 Z M 6.550781 8.203125 "/>
</g>
</svg>
