
<svg xmlns="http://www.w3.org/2000/svg" xmlns:xlink="http://www.w3.org/1999/xlink" width="48px" height="48px" viewBox="0 0 48 48" version="1.1">
<defs>
<filter id="alpha" filterUnits="objectBoundingBox" x="0%" y="0%" width="100%" height="100%">
  <feColorMatrix type="matrix" in="SourceGraphic" values="0 0 0 0 1 0 0 0 0 1 0 0 0 0 1 0 0 0 1 0"/>
</filter>
<mask id="mask0">
  <g filter="url(#alpha)">
<rect x="0" y="0" width="48" height="48" style="fill:rgb(0%,0%,0%);fill-opacity:0.2;stroke:none;"/>
  </g>
</mask>
<clipPath id="clip1">
  <rect x="0" y="0" width="48" height="48"/>
</clipPath>
<g id="surface5" clip-path="url(#clip1)">
<path style=" stroke:none;fill-rule:nonzero;fill:rgb(0%,0%,0%);fill-opacity:1;" d="M 24.292969 12.394531 C 14.585938 12.394531 6.71875 18.015625 6.71875 24.949219 C 6.71875 31.878906 14.585938 37.5 24.292969 37.5 C 33.996094 37.5 41.867188 31.878906 41.867188 24.949219 C 41.867188 18.015625 33.996094 12.394531 24.292969 12.394531 Z M 26.800781 14.90625 C 33.734375 14.90625 39.355469 19.402344 39.355469 24.949219 C 39.355469 30.492188 33.734375 34.988281 26.800781 34.988281 C 19.871094 34.988281 14.25 30.492188 14.25 24.949219 C 14.25 19.402344 19.871094 14.90625 26.800781 14.90625 Z M 26.800781 14.90625 "/>
</g>
</defs>
<g id="surface1">
<path style="fill-rule:nonzero;fill:rgb(100%,100%,100%);fill-opacity:1;stroke-width:27.910587;stroke-linecap:butt;stroke-linejoin:miter;stroke:rgb(0%,67.058824%,93.333333%);stroke-opacity:1;stroke-miterlimit:4;" d="M 83.208333 27.416667 L 428.791667 27.416667 C 459.625 27.416667 484.583333 52.375 484.583333 83.208333 L 484.583333 428.791667 C 484.583333 459.625 459.625 484.583333 428.791667 484.583333 L 83.208333 484.583333 C 52.375 484.583333 27.416667 459.625 27.416667 428.791667 L 27.416667 83.208333 C 27.416667 52.375 52.375 27.416667 83.208333 27.416667 Z M 83.208333 27.416667 " transform="matrix(0.09375,0,0,0.09375,0,0)"/>
<use xlink:href="#surface5" mask="url(#mask0)"/>
<path style=" stroke:none;fill-rule:evenodd;fill:rgb(11.764706%,38.431373%,69.803922%);fill-opacity:1;" d="M 34.835938 29.464844 C 34.835938 29.464844 35.390625 29.308594 35.945312 29.589844 C 36.136719 29.6875 36.46875 29.882812 36.710938 30.140625 C 36.945312 30.394531 37.058594 30.648438 37.058594 30.648438 L 39.355469 37.425781 L 33.078125 37.425781 C 33.078125 37.425781 31.65625 32.742188 30.15625 30.738281 C 29.855469 30.492188 29.605469 29.855469 29.3125 29.894531 L 26.800781 29.894531 L 26.800781 37.421875 L 21.78125 37.421875 L 21.78125 17.34375 L 32.652344 17.34375 C 33.832031 17.34375 37.925781 18.597656 38.097656 23.621094 C 37.925781 28.640625 34.835938 29.535156 34.835938 29.535156 Z M 26.804688 22.292969 L 26.804688 26.058594 L 31.824219 26.058594 C 31.824219 26.058594 33.117188 25.949219 33.078125 24.050781 C 33.042969 22.25 31.824219 22.292969 31.824219 22.292969 Z M 26.804688 22.292969 "/>
</g>
</svg>
