
<svg xmlns="http://www.w3.org/2000/svg" xmlns:xlink="http://www.w3.org/1999/xlink" width="48px" height="48px" viewBox="0 0 48 48" version="1.1">
<g id="surface3">
<path style="fill-rule:nonzero;fill:rgb(19.215686%,63.921569%,76.862745%);fill-opacity:1;stroke-width:28.016188;stroke-linecap:butt;stroke-linejoin:miter;stroke:rgb(23.921569%,80%,96.078431%);stroke-opacity:1;stroke-miterlimit:4;" d="M 82.583333 26.541667 L 429.416667 26.541667 C 460.375 26.541667 485.458333 51.625 485.458333 82.583333 L 485.458333 429.416667 C 485.458333 460.375 460.375 485.458333 429.416667 485.458333 L 82.583333 485.458333 C 51.625 485.458333 26.541667 460.375 26.541667 429.416667 L 26.541667 82.583333 C 26.541667 51.625 51.625 26.541667 82.583333 26.541667 Z M 82.583333 26.541667 " transform="matrix(0.09375,0,0,0.09375,0,0)"/>
<path style=" stroke:none;fill-rule:nonzero;fill:rgb(100%,100%,100%);fill-opacity:1;" d="M 26.5625 10.53125 L 21.152344 10.5625 L 21.300781 28.308594 L 16.820312 24.375 L 13.574219 27.285156 L 20.839844 33.660156 L 13.328125 33.660156 L 13.328125 37.46875 L 34.671875 37.46875 L 34.671875 33.660156 L 27.203125 33.660156 L 34.425781 27.179688 L 31.144531 24.304688 L 26.710938 28.277344 Z M 26.5625 10.53125 "/>
</g>
</svg>
