
<svg xmlns="http://www.w3.org/2000/svg" xmlns:xlink="http://www.w3.org/1999/xlink" width="48px" height="48px" viewBox="0 0 48 48" version="1.1">
<g id="surface1">
<path style="fill-rule:nonzero;fill:rgb(18.823529%,20.784314%,27.058824%);fill-opacity:1;stroke-width:27.936749;stroke-linecap:butt;stroke-linejoin:miter;stroke:rgb(18.823529%,20.784314%,27.058824%);stroke-opacity:1;stroke-miterlimit:4;" d="M 83.041667 27.166667 L 428.958333 27.166667 C 459.791667 27.166667 484.833333 52.208333 484.833333 83.041667 L 484.833333 428.958333 C 484.833333 459.791667 459.791667 484.833333 428.958333 484.833333 L 83.041667 484.833333 C 52.208333 484.833333 27.166667 459.791667 27.166667 428.958333 L 27.166667 83.041667 C 27.166667 52.208333 52.208333 27.166667 83.041667 27.166667 Z M 83.041667 27.166667 " transform="matrix(0.09375,0,0,0.09375,0,0)"/>
<path style=" stroke:none;fill-rule:nonzero;fill:rgb(18.823529%,20.784314%,27.058824%);fill-opacity:1;" d="M 6.519531 3.667969 L 40.429688 3.667969 C 42.300781 3.667969 43.820312 5.183594 43.820312 7.054688 L 43.820312 40.96875 C 43.820312 42.839844 42.300781 44.355469 40.429688 44.355469 L 6.519531 44.355469 C 4.648438 44.355469 3.128906 42.839844 3.128906 40.96875 L 3.128906 7.054688 C 3.128906 5.183594 4.648438 3.667969 6.519531 3.667969 Z M 6.519531 3.667969 "/>
<path style=" stroke:none;fill-rule:nonzero;fill:rgb(90.196078%,49.019608%,12.941176%);fill-opacity:1;" d="M 43.453125 6.722656 C 43.5 6.820312 43.542969 6.921875 43.578125 7.027344 C 43.542969 6.921875 43.5 6.820312 43.453125 6.722656 Z M 43.785156 14.667969 L 3.097656 25.570312 L 3.097656 32.992188 L 43.785156 22.089844 Z M 43.785156 14.667969 "/>
<path style=" stroke:none;fill-rule:nonzero;fill:rgb(95.294118%,61.176471%,6.666667%);fill-opacity:1;" d="M 36.972656 3.667969 L 21.777344 18.863281 L 29.773438 21.003906 L 43.820312 6.957031 C 43.769531 5.125 42.277344 3.667969 40.433594 3.667969 Z M 36.972656 3.667969 "/>
<path style=" stroke:none;fill-rule:nonzero;fill:rgb(74.901961%,21.960784%,15.686275%);fill-opacity:1;" d="M 19.890625 25.726562 L 19.890625 44.355469 L 27.058594 44.355469 L 27.058594 25.726562 Z M 19.890625 25.726562 "/>
<path style=" stroke:none;fill-rule:nonzero;fill:rgb(94.117647%,76.078431%,4.705882%);fill-opacity:1;" d="M 26.242188 3.644531 L 20.570312 24.816406 C 21.925781 24.472656 23.339844 24.273438 24.808594 24.273438 C 25.917969 24.273438 27 24.386719 28.050781 24.585938 L 33.664062 3.644531 Z M 44.792969 4.632812 C 44.832031 4.671875 44.867188 4.710938 44.902344 4.75 C 44.867188 4.710938 44.832031 4.671875 44.792969 4.632812 Z M 44.792969 4.632812 "/>
<path style=" stroke:none;fill-rule:nonzero;fill:rgb(90.196078%,49.019608%,12.941176%);fill-opacity:1;" d="M 13.921875 3.675781 L 19.53125 24.617188 C 20.582031 24.417969 21.664062 24.304688 22.773438 24.304688 C 24.242188 24.304688 25.65625 24.503906 27.015625 24.847656 L 21.34375 3.675781 Z M 42.757812 4.664062 C 42.796875 4.703125 42.835938 4.742188 42.871094 4.78125 C 42.835938 4.742188 42.796875 4.703125 42.757812 4.664062 Z M 42.871094 43.257812 C 42.835938 43.296875 42.796875 43.335938 42.757812 43.375 C 42.796875 43.335938 42.835938 43.296875 42.871094 43.257812 Z M 42.871094 43.257812 "/>
<path style=" stroke:none;fill-rule:nonzero;fill:rgb(95.294118%,61.176471%,6.666667%);fill-opacity:1;" d="M 6.519531 3.667969 C 4.640625 3.667969 3.128906 5.179688 3.128906 7.054688 L 3.128906 8.214844 L 19.53125 24.617188 C 20.605469 24.410156 21.710938 24.292969 22.84375 24.292969 C 26.207031 24.292969 29.328125 25.265625 31.972656 26.917969 L 8.71875 3.667969 Z M 42.828125 4.65625 C 42.867188 4.695312 42.90625 4.734375 42.941406 4.773438 C 42.90625 4.734375 42.867188 4.695312 42.828125 4.65625 Z M 42.941406 43.25 C 42.90625 43.289062 42.867188 43.328125 42.828125 43.367188 C 42.867188 43.328125 42.90625 43.289062 42.941406 43.25 Z M 42.941406 43.25 "/>
<path style=" stroke:none;fill-rule:nonzero;fill:rgb(90.196078%,49.019608%,12.941176%);fill-opacity:1;" d="M 6.519531 5.59375 C 6.40625 5.59375 6.292969 5.601562 6.183594 5.609375 C 6.292969 5.601562 6.40625 5.59375 6.519531 5.59375 Z M 40.433594 5.59375 C 40.550781 5.59375 40.664062 5.601562 40.777344 5.613281 C 40.664062 5.601562 40.550781 5.59375 40.433594 5.59375 Z M 3.128906 15.792969 L 3.128906 23.214844 L 43.820312 34.121094 L 43.820312 26.695312 Z M 3.128906 15.792969 "/>
</g>
</svg>
