
<svg xmlns="http://www.w3.org/2000/svg" xmlns:xlink="http://www.w3.org/1999/xlink" width="48px" height="48px" viewBox="0 0 48 48" version="1.1">
<g id="surface1">
<path style="fill-rule:nonzero;fill:rgb(92.156863%,92.156863%,92.156863%);fill-opacity:1;stroke-width:28.520006;stroke-linecap:butt;stroke-linejoin:miter;stroke:rgb(92.156863%,92.156863%,92.156863%);stroke-opacity:1;stroke-miterlimit:4;" d="M 79.458333 22.416667 L 432.541667 22.416667 C 464.041667 22.416667 489.583333 47.958333 489.583333 79.458333 L 489.583333 432.541667 C 489.583333 464.041667 464.041667 489.583333 432.541667 489.583333 L 79.458333 489.583333 C 47.958333 489.583333 22.416667 464.041667 22.416667 432.541667 L 22.416667 79.458333 C 22.416667 47.958333 47.958333 22.416667 79.458333 22.416667 Z M 79.458333 22.416667 " transform="matrix(0.09375,0,0,0.09375,0,0)"/>
<path style=" stroke:none;fill-rule:nonzero;fill:rgb(25.490196%,25.490196%,25.490196%);fill-opacity:1;" d="M 8.773438 3.851562 C 6.054688 3.851562 3.851562 6.054688 3.851562 8.773438 L 3.851562 16.550781 L 12.25 15.121094 L 10.664062 3.851562 Z M 14.421875 3.851562 L 15.917969 14.496094 L 26.828125 12.640625 L 31.714844 3.851562 Z M 35.972656 3.851562 L 30.238281 14.167969 L 35.992188 24.136719 L 44.148438 20.574219 L 44.148438 8.773438 C 44.148438 6.054688 41.945312 3.851562 39.226562 3.851562 Z M 27.203125 16.351562 L 15.613281 18.324219 L 14.113281 29.328125 L 24.839844 35.082031 L 33 26.394531 Z M 12.121094 18.917969 L 3.851562 20.324219 L 3.851562 38.433594 L 10.546875 30.449219 Z M 44.148438 24.632812 L 37.890625 27.367188 L 44.148438 38.199219 Z M 34.765625 29.453125 L 27.039062 37.679688 L 26.707031 44.148438 L 39.226562 44.148438 C 40.492188 44.148438 41.648438 43.667969 42.519531 42.882812 Z M 13.433594 32.800781 L 5.207031 42.613281 C 6.101562 43.554688 7.367188 44.148438 8.773438 44.148438 L 22.980469 44.148438 L 23.292969 38.089844 Z M 13.433594 32.800781 "/>
<path style="fill:none;stroke-width:12;stroke-linecap:butt;stroke-linejoin:miter;stroke:rgb(93.333333%,0%,0%);stroke-opacity:1;stroke-miterlimit:4;" d="M 11.371244 69.994588 L 30.637273 50.72856 C 36.097881 45.267952 46.072895 45.005752 51.829904 50.76276 L 61.702318 60.635174 " transform="matrix(0.342653,0,0,0.342653,2.326265,4.234894)"/>
<path style="fill:none;stroke-width:12;stroke-linecap:butt;stroke-linejoin:miter;stroke:rgb(93.333333%,0%,0%);stroke-opacity:1;stroke-miterlimit:4;" d="M 111.303791 50.54616 L 92.037763 69.800788 C 86.588555 75.261396 76.60214 75.534996 70.845132 69.777988 L 60.972717 59.905573 " transform="matrix(0.342653,0,0,0.342653,2.326265,4.234894)"/>
<path style="fill-rule:nonzero;fill:rgb(100%,0%,0%);fill-opacity:1;stroke-width:14;stroke-linecap:round;stroke-linejoin:round;stroke:rgb(93.333333%,0%,0%);stroke-opacity:1;stroke-miterlimit:4;" d="M 102.505691 45.038978 C 102.515103 39.063438 99.851313 34.230413 96.58511 34.221346 C 93.309495 34.221346 90.655117 39.063438 90.655117 45.029911 C 90.655117 50.996384 93.309495 55.838476 96.58511 55.838476 C 99.851313 55.847543 102.505691 51.005451 102.505691 45.038978 Z M 102.505691 45.038978 " transform="matrix(0.207499,0.207499,-0.215396,0.215396,28.333726,-6.490608)"/>
</g>
</svg>
