
<svg xmlns="http://www.w3.org/2000/svg" xmlns:xlink="http://www.w3.org/1999/xlink" width="48px" height="48px" viewBox="0 0 48 48" version="1.1">
<g id="surface1">
<path style="fill-rule:nonzero;fill:rgb(9.019608%,36.078431%,60%);fill-opacity:1;stroke-width:27.910587;stroke-linecap:butt;stroke-linejoin:miter;stroke:rgb(9.019608%,36.078431%,60%);stroke-opacity:1;stroke-miterlimit:4;" d="M 83.208333 27.416667 L 428.791667 27.416667 C 459.625 27.416667 484.583333 52.375 484.583333 83.208333 L 484.583333 428.791667 C 484.583333 459.625 459.625 484.583333 428.791667 484.583333 L 83.208333 484.583333 C 52.375 484.583333 27.416667 459.625 27.416667 428.791667 L 27.416667 83.208333 C 27.416667 52.375 52.375 27.416667 83.208333 27.416667 Z M 83.208333 27.416667 " transform="matrix(0.09375,0,0,0.09375,0,0)"/>
<path style=" stroke:none;fill-rule:nonzero;fill:rgb(100%,100%,100%);fill-opacity:1;" d="M 14.933594 5.898438 L 32.660156 5.898438 C 35.179688 5.898438 37.21875 7.554688 37.21875 9.597656 L 37.21875 37.386719 C 37.21875 39.429688 35.179688 41.085938 32.660156 41.085938 L 14.933594 41.085938 C 12.414062 41.085938 10.371094 39.429688 10.371094 37.386719 L 10.371094 9.597656 C 10.371094 7.554688 12.414062 5.898438 14.933594 5.898438 Z M 14.933594 5.898438 "/>
<path style=" stroke:none;fill-rule:nonzero;fill:rgb(13.72549%,54.117647%,81.176471%);fill-opacity:1;" d="M 9.03125 4.195312 C 6.359375 4.195312 4.195312 6.359375 4.195312 9.03125 L 4.195312 38.96875 C 4.195312 41.640625 6.359375 43.804688 9.03125 43.804688 L 38.96875 43.804688 C 41.640625 43.804688 43.804688 41.640625 43.804688 38.96875 L 43.804688 9.03125 C 43.804688 6.359375 41.640625 4.195312 38.96875 4.195312 Z M 23.847656 10.253906 C 26.066406 10.253906 27.84375 10.839844 29.179688 12.007812 C 30.53125 13.179688 31.207031 14.722656 31.207031 16.640625 C 31.207031 17.554688 30.988281 18.429688 30.554688 19.261719 C 30.121094 20.082031 29.363281 21.011719 28.277344 22.046875 L 26.6875 23.601562 C 26.117188 24.167969 25.714844 24.613281 25.472656 24.941406 C 25.246094 25.253906 25.082031 25.5625 24.984375 25.863281 C 24.914062 26.117188 24.859375 26.421875 24.824219 26.785156 C 24.785156 27.148438 24.769531 27.640625 24.769531 28.269531 L 24.769531 30.492188 L 21.3125 30.492188 L 21.3125 27.707031 C 21.3125 26.488281 21.484375 25.488281 21.820312 24.707031 C 22.160156 23.921875 22.871094 23.011719 23.953125 21.972656 L 25.582031 20.363281 C 26.269531 19.726562 26.765625 19.121094 27.066406 18.554688 C 27.378906 17.988281 27.535156 17.410156 27.535156 16.820312 C 27.535156 15.746094 27.136719 14.878906 26.34375 14.214844 C 25.558594 13.550781 24.515625 13.222656 23.214844 13.222656 C 22.261719 13.222656 21.242188 13.433594 20.15625 13.855469 C 19.082031 14.277344 17.960938 14.890625 16.792969 15.699219 L 16.792969 12.296875 C 17.925781 11.613281 19.070312 11.097656 20.230469 10.761719 C 21.398438 10.425781 22.605469 10.253906 23.847656 10.253906 Z M 21.207031 33.152344 L 24.878906 33.152344 L 24.878906 37.746094 L 21.207031 37.746094 Z M 21.207031 33.152344 "/>
</g>
</svg>
