
<svg xmlns="http://www.w3.org/2000/svg" xmlns:xlink="http://www.w3.org/1999/xlink" width="48px" height="48px" viewBox="0 0 48 48" version="1.1">
<g id="surface1">
<path style="fill-rule:nonzero;fill:rgb(20%,27.843137%,36.078431%);fill-opacity:1;stroke-width:27.537834;stroke-linecap:butt;stroke-linejoin:miter;stroke:rgb(20%,27.843137%,36.078431%);stroke-opacity:1;stroke-miterlimit:4;" d="M 85.541667 30.458333 L 426.458333 30.458333 C 456.875 30.458333 481.541667 55.125 481.541667 85.541667 L 481.541667 426.458333 C 481.541667 456.875 456.875 481.541667 426.458333 481.541667 L 85.541667 481.541667 C 55.125 481.541667 30.458333 456.875 30.458333 426.458333 L 30.458333 85.541667 C 30.458333 55.125 55.125 30.458333 85.541667 30.458333 Z M 85.541667 30.458333 " transform="matrix(0.09375,0,0,0.09375,0,0)"/>
<path style=" stroke:none;fill-rule:nonzero;fill:rgb(74.117647%,76.078431%,78.039216%);fill-opacity:1;" d="M 9.066406 4.242188 L 38.933594 4.242188 C 41.597656 4.242188 43.757812 6.402344 43.757812 9.066406 L 43.757812 38.933594 C 43.757812 41.597656 41.597656 43.757812 38.933594 43.757812 L 9.066406 43.757812 C 6.402344 43.757812 4.242188 41.597656 4.242188 38.933594 L 4.242188 9.066406 C 4.242188 6.402344 6.402344 4.242188 9.066406 4.242188 Z M 9.066406 4.242188 "/>
<path style="fill-rule:nonzero;fill:rgb(58.039216%,63.921569%,65.098039%);fill-opacity:1;stroke-width:10.50525;stroke-linecap:butt;stroke-linejoin:miter;stroke:rgb(20%,27.843137%,36.078431%);stroke-opacity:1;stroke-miterlimit:4;" d="M 96.708333 45.25 C 68.291667 45.25 45.25 68.291667 45.25 96.708333 L 45.25 162.5 L 466.75 162.5 L 466.75 96.708333 C 466.75 68.291667 443.708333 45.25 415.291667 45.25 Z M 96.708333 45.25 " transform="matrix(0.09375,0,0,0.09375,0,0)"/>
<path style=" stroke:none;fill-rule:nonzero;fill:rgb(20%,27.843137%,36.078431%);fill-opacity:1;" d="M 23.5 4.238281 L 24.5 4.238281 L 24.5 15.238281 L 23.5 15.238281 Z M 23.5 4.238281 "/>
</g>
</svg>
