
<svg xmlns="http://www.w3.org/2000/svg" xmlns:xlink="http://www.w3.org/1999/xlink" width="48px" height="48px" viewBox="0 0 48 48" version="1.1">
<g id="surface1">
<path style="fill-rule:nonzero;fill:rgb(20%,20%,20%);fill-opacity:1;stroke-width:27.910587;stroke-linecap:butt;stroke-linejoin:miter;stroke:rgb(20%,20%,20%);stroke-opacity:1;stroke-miterlimit:4;" d="M -493.876397 -81.057903 L -148.293063 -81.057903 C -117.45973 -81.057903 -92.501397 -56.09957 -92.501397 -25.266237 L -92.501397 320.317097 C -92.501397 351.15043 -117.45973 376.108763 -148.293063 376.108763 L -493.876397 376.108763 C -524.70973 376.108763 -549.668063 351.15043 -549.668063 320.317097 L -549.668063 -25.266237 C -549.668063 -56.09957 -524.70973 -81.057903 -493.876397 -81.057903 Z M -493.876397 -81.057903 " transform="matrix(0.09375,0,0,0.09375,54.101693,10.169491)"/>
<path style=" stroke:none;fill-rule:nonzero;fill:rgb(95.294118%,87.058824%,77.254902%);fill-opacity:1;" d="M 8.878906 3.992188 L 39.121094 3.992188 C 41.820312 3.992188 44.007812 6.179688 44.007812 8.878906 L 44.007812 39.121094 C 44.007812 41.820312 41.820312 44.007812 39.121094 44.007812 L 8.878906 44.007812 C 6.179688 44.007812 3.992188 41.820312 3.992188 39.121094 L 3.992188 8.878906 C 3.992188 6.179688 6.179688 3.992188 8.878906 3.992188 Z M 8.878906 3.992188 "/>
<path style=" stroke:none;fill-rule:nonzero;fill:rgb(81.176471%,61.176471%,40.784314%);fill-opacity:1;" d="M 3.992188 9.925781 L 43.613281 9.925781 L 43.613281 10.269531 L 3.992188 10.269531 Z M 3.992188 9.925781 "/>
<path style=" stroke:none;fill-rule:nonzero;fill:rgb(81.176471%,61.176471%,40.784314%);fill-opacity:1;" d="M 3.992188 16.046875 L 43.613281 16.046875 L 43.613281 16.386719 L 3.992188 16.386719 Z M 3.992188 16.046875 "/>
<path style=" stroke:none;fill-rule:nonzero;fill:rgb(81.176471%,61.176471%,40.784314%);fill-opacity:1;" d="M 3.992188 22.164062 L 43.613281 22.164062 L 43.613281 22.507812 L 3.992188 22.507812 Z M 3.992188 22.164062 "/>
<path style=" stroke:none;fill-rule:nonzero;fill:rgb(81.176471%,61.176471%,40.784314%);fill-opacity:1;" d="M 3.992188 28.285156 L 43.613281 28.285156 L 43.613281 28.628906 L 3.992188 28.628906 Z M 3.992188 28.285156 "/>
<path style=" stroke:none;fill-rule:nonzero;fill:rgb(81.176471%,61.176471%,40.784314%);fill-opacity:1;" d="M 3.992188 34.40625 L 43.613281 34.40625 L 43.613281 34.746094 L 3.992188 34.746094 Z M 3.992188 34.40625 "/>
<path style=" stroke:none;fill-rule:nonzero;fill:rgb(90.196078%,49.803922%,45.098039%);fill-opacity:1;" d="M 13.023438 44.007812 L 13.023438 3.992188 L 13.605469 3.992188 L 13.605469 44.007812 Z M 13.023438 44.007812 "/>
<path style=" stroke:none;fill-rule:nonzero;fill:rgb(7.843137%,9.019608%,9.019608%);fill-opacity:1;" d="M 18.695312 16.753906 L 6.675781 16.753906 L 6.324219 21.125 L 6.695312 21.125 C 6.964844 17.851562 7.261719 17.277344 10.488281 17.277344 C 10.863281 17.277344 11.472656 17.277344 11.636719 17.277344 C 12.035156 17.335938 12.035156 17.578125 12.035156 18.03125 L 12.035156 28.792969 C 12.035156 29.507812 11.972656 29.726562 10.21875 29.726562 L 9.628906 29.726562 L 9.628906 30.203125 C 10.628906 30.183594 11.667969 30.164062 12.6875 30.164062 C 13.707031 30.164062 14.75 30.183594 15.75 30.203125 L 15.75 29.726562 L 15.167969 29.726562 C 13.441406 29.726562 13.378906 29.507812 13.378906 28.792969 L 13.378906 18.03125 C 13.378906 17.59375 13.378906 17.359375 13.753906 17.277344 L 14.894531 17.277344 C 18.078125 17.277344 18.390625 17.847656 18.660156 21.125 L 19.035156 21.125 "/>
<path style=" stroke:none;fill-rule:nonzero;fill:rgb(7.843137%,9.019608%,9.019608%);fill-opacity:1;" d="M 29.136719 29.511719 L 28.761719 29.511719 C 28.308594 32.445312 28.039062 34.039062 24.375 34.039062 L 21.488281 34.039062 C 20.65625 34.039062 20.617188 33.9375 20.617188 33.257812 L 20.617188 27.734375 L 22.582031 27.734375 C 24.542969 27.734375 24.730469 28.414062 24.730469 30.085938 L 25.066406 30.085938 L 25.066406 24.941406 L 24.730469 24.941406 C 24.730469 26.582031 24.542969 27.253906 22.582031 27.253906 L 20.617188 27.253906 L 20.617188 22.351562 C 20.617188 21.6875 20.65625 21.585938 21.488281 21.585938 L 24.332031 21.585938 C 27.554688 21.585938 27.929688 22.800781 28.222656 25.414062 L 28.597656 25.414062 L 28.097656 21.042969 L 17.558594 21.042969 L 17.558594 21.585938 C 19.03125 21.585938 19.269531 21.585938 19.269531 22.476562 L 19.269531 33.144531 C 19.269531 34.03125 19.035156 34.03125 17.558594 34.03125 L 17.558594 34.507812 L 28.390625 34.507812 "/>
<path style=" stroke:none;fill-rule:nonzero;fill:rgb(7.843137%,9.019608%,9.019608%);fill-opacity:1;" d="M 34.75 22.722656 L 37.828125 18.492188 C 38.136719 18.078125 38.761719 17.222656 40.472656 17.203125 L 40.472656 16.722656 C 39.996094 16.761719 39.203125 16.761719 38.703125 16.761719 C 38.019531 16.761719 37.164062 16.761719 36.644531 16.722656 L 36.644531 17.203125 C 37.3125 17.261719 37.476562 17.65625 37.476562 17.976562 C 37.476562 18.210938 37.375 18.371094 37.226562 18.566406 L 34.480469 22.351562 L 31.398438 18.070312 C 31.253906 17.855469 31.234375 17.792969 31.234375 17.734375 C 31.234375 17.558594 31.460938 17.21875 32.152344 17.203125 L 32.152344 16.722656 C 31.484375 16.761719 30.46875 16.761719 29.78125 16.761719 C 29.242188 16.761719 28.203125 16.761719 27.699219 16.722656 L 27.699219 17.203125 C 28.84375 17.203125 29.214844 17.242188 29.675781 17.855469 L 33.691406 23.457031 L 30.070312 28.480469 C 29.175781 29.710938 27.824219 29.730469 27.425781 29.730469 L 27.425781 30.207031 C 27.902344 30.171875 28.695312 30.171875 29.195312 30.171875 C 29.753906 30.171875 30.734375 30.171875 31.253906 30.207031 L 31.253906 29.730469 C 30.609375 29.671875 30.421875 29.277344 30.421875 28.957031 C 30.421875 28.703125 30.523438 28.5625 30.628906 28.421875 L 33.957031 23.804688 L 37.578125 28.859375 C 37.742188 29.078125 37.742188 29.140625 37.742188 29.199219 C 37.742188 29.355469 37.554688 29.695312 36.828125 29.734375 L 36.828125 30.210938 C 37.492188 30.175781 38.511719 30.175781 39.195312 30.175781 C 39.734375 30.175781 40.777344 30.175781 41.28125 30.210938 L 41.28125 29.734375 C 39.949219 29.734375 39.738281 29.636719 39.324219 29.078125 "/>
<path style=" stroke:none;fill-rule:nonzero;fill:rgb(20%,20%,20%);fill-opacity:1;" d="M 7.199219 3.40625 L 10.519531 3.40625 L 10.519531 8.941406 L 7.199219 8.941406 Z M 7.199219 3.40625 "/>
<path style=" stroke:none;fill-rule:nonzero;fill:rgb(20%,20%,20%);fill-opacity:1;" d="M 17.160156 3.40625 L 20.480469 3.40625 L 20.480469 8.941406 L 17.160156 8.941406 Z M 17.160156 3.40625 "/>
<path style=" stroke:none;fill-rule:nonzero;fill:rgb(20%,20%,20%);fill-opacity:1;" d="M 27.121094 3.40625 L 30.445312 3.40625 L 30.445312 8.941406 L 27.121094 8.941406 Z M 27.121094 3.40625 "/>
<path style=" stroke:none;fill-rule:nonzero;fill:rgb(20%,20%,20%);fill-opacity:1;" d="M 37.085938 3.40625 L 40.40625 3.40625 L 40.40625 8.941406 L 37.085938 8.941406 Z M 37.085938 3.40625 "/>
</g>
</svg>
