<!-- color: #41afd2 -->
<svg xmlns="http://www.w3.org/2000/svg" xmlns:xlink="http://www.w3.org/1999/xlink" width="48px" height="48px" viewBox="0 0 48 48" version="1.1">
<defs>
<clipPath id="clip1">
  <path d="M 7 8.769531 L 28.800781 8.769531 L 28.800781 35.121094 L 7 35.121094 Z M 7 8.769531 "/>
</clipPath>
<clipPath id="clip2">
  <path d="M 38.667969 21.902344 C 38.667969 35.804688 29.367188 47.066406 17.902344 47.066406 C 6.441406 47.066406 -2.859375 35.804688 -2.859375 21.902344 C -2.859375 8 6.441406 -3.261719 17.902344 -3.261719 C 29.367188 -3.261719 38.667969 8 38.667969 21.902344 Z M 38.667969 21.902344 "/>
</clipPath>
<clipPath id="clip3">
  <path d="M 7 8.769531 L 17.988281 8.769531 L 17.988281 35.121094 L 7 35.121094 Z M 7 8.769531 "/>
</clipPath>
<clipPath id="clip4">
  <path d="M 38.667969 21.902344 C 38.667969 35.804688 29.367188 47.066406 17.902344 47.066406 C 6.441406 47.066406 -2.859375 35.804688 -2.859375 21.902344 C -2.859375 8 6.441406 -3.261719 17.902344 -3.261719 C 29.367188 -3.261719 38.667969 8 38.667969 21.902344 Z M 38.667969 21.902344 "/>
</clipPath>
<clipPath id="clip5">
  <path d="M 7 8.769531 L 9.828125 8.769531 L 9.828125 35.121094 L 7 35.121094 Z M 7 8.769531 "/>
</clipPath>
<clipPath id="clip6">
  <path d="M 38.667969 21.902344 C 38.667969 35.804688 29.367188 47.066406 17.902344 47.066406 C 6.441406 47.066406 -2.859375 35.804688 -2.859375 21.902344 C -2.859375 8 6.441406 -3.261719 17.902344 -3.261719 C 29.367188 -3.261719 38.667969 8 38.667969 21.902344 Z M 38.667969 21.902344 "/>
</clipPath>
<clipPath id="clip7">
  <path d="M 26 8.769531 L 28.800781 8.769531 L 28.800781 35.121094 L 26 35.121094 Z M 26 8.769531 "/>
</clipPath>
<clipPath id="clip8">
  <path d="M 38.667969 21.902344 C 38.667969 35.804688 29.367188 47.066406 17.902344 47.066406 C 6.441406 47.066406 -2.859375 35.804688 -2.859375 21.902344 C -2.859375 8 6.441406 -3.261719 17.902344 -3.261719 C 29.367188 -3.261719 38.667969 8 38.667969 21.902344 Z M 38.667969 21.902344 "/>
</clipPath>
<clipPath id="clip9">
  <path d="M 9.726562 10.933594 L 16.121094 10.933594 L 16.121094 13.195312 L 9.726562 13.195312 Z M 9.726562 10.933594 "/>
</clipPath>
<clipPath id="clip10">
  <path d="M 38.667969 21.902344 C 38.667969 35.804688 29.367188 47.066406 17.902344 47.066406 C 6.441406 47.066406 -2.859375 35.804688 -2.859375 21.902344 C -2.859375 8 6.441406 -3.261719 17.902344 -3.261719 C 29.367188 -3.261719 38.667969 8 38.667969 21.902344 Z M 38.667969 21.902344 "/>
</clipPath>
<clipPath id="clip11">
  <path d="M 19.660156 30.597656 L 26.050781 30.597656 L 26.050781 32.859375 L 19.660156 32.859375 Z M 19.660156 30.597656 "/>
</clipPath>
<clipPath id="clip12">
  <path d="M 38.667969 21.902344 C 38.667969 35.804688 29.367188 47.066406 17.902344 47.066406 C 6.441406 47.066406 -2.859375 35.804688 -2.859375 21.902344 C -2.859375 8 6.441406 -3.261719 17.902344 -3.261719 C 29.367188 -3.261719 38.667969 8 38.667969 21.902344 Z M 38.667969 21.902344 "/>
</clipPath>
<clipPath id="clip13">
  <path d="M 9.726562 16.339844 L 26.050781 16.339844 L 26.050781 17.621094 L 9.726562 17.621094 Z M 9.726562 16.339844 "/>
</clipPath>
<clipPath id="clip14">
  <path d="M 38.667969 21.902344 C 38.667969 35.804688 29.367188 47.066406 17.902344 47.066406 C 6.441406 47.066406 -2.859375 35.804688 -2.859375 21.902344 C -2.859375 8 6.441406 -3.261719 17.902344 -3.261719 C 29.367188 -3.261719 38.667969 8 38.667969 21.902344 Z M 38.667969 21.902344 "/>
</clipPath>
<clipPath id="clip15">
  <path d="M 9.726562 19.683594 L 26.050781 19.683594 L 26.050781 20.863281 L 9.726562 20.863281 Z M 9.726562 19.683594 "/>
</clipPath>
<clipPath id="clip16">
  <path d="M 38.667969 21.902344 C 38.667969 35.804688 29.367188 47.066406 17.902344 47.066406 C 6.441406 47.066406 -2.859375 35.804688 -2.859375 21.902344 C -2.859375 8 6.441406 -3.261719 17.902344 -3.261719 C 29.367188 -3.261719 38.667969 8 38.667969 21.902344 Z M 38.667969 21.902344 "/>
</clipPath>
<clipPath id="clip17">
  <path d="M 9.726562 22.929688 L 26.050781 22.929688 L 26.050781 24.109375 L 9.726562 24.109375 Z M 9.726562 22.929688 "/>
</clipPath>
<clipPath id="clip18">
  <path d="M 38.667969 21.902344 C 38.667969 35.804688 29.367188 47.066406 17.902344 47.066406 C 6.441406 47.066406 -2.859375 35.804688 -2.859375 21.902344 C -2.859375 8 6.441406 -3.261719 17.902344 -3.261719 C 29.367188 -3.261719 38.667969 8 38.667969 21.902344 Z M 38.667969 21.902344 "/>
</clipPath>
<clipPath id="clip19">
  <path d="M 9.726562 26.273438 L 26.050781 26.273438 L 26.050781 27.453125 L 9.726562 27.453125 Z M 9.726562 26.273438 "/>
</clipPath>
<clipPath id="clip20">
  <path d="M 38.667969 21.902344 C 38.667969 35.804688 29.367188 47.066406 17.902344 47.066406 C 6.441406 47.066406 -2.859375 35.804688 -2.859375 21.902344 C -2.859375 8 6.441406 -3.261719 17.902344 -3.261719 C 29.367188 -3.261719 38.667969 8 38.667969 21.902344 Z M 38.667969 21.902344 "/>
</clipPath>
</defs>
<g id="surface1">
<path style="fill-rule:nonzero;fill:rgb(100%,100%,100%);fill-opacity:1;stroke-width:28.025423;stroke-linecap:butt;stroke-linejoin:miter;stroke:rgb(36.078431%,36.078431%,36.078431%);stroke-opacity:1;stroke-miterlimit:4;" d="M 82.5 26.458333 L 429.5 26.458333 C 460.458333 26.458333 485.541667 51.541667 485.541667 82.5 L 485.541667 429.5 C 485.541667 460.458333 460.458333 485.541667 429.5 485.541667 L 82.5 485.541667 C 51.541667 485.541667 26.458333 460.458333 26.458333 429.5 L 26.458333 82.5 C 26.458333 51.541667 51.541667 26.458333 82.5 26.458333 Z M 82.5 26.458333 " transform="matrix(0.09375,0,0,0.09375,0,0)"/>
<path style=" stroke:none;fill-rule:nonzero;fill:rgb(78.039216%,43.921569%,20.784314%);fill-opacity:1;" d="M 7.882812 5.679688 L 27.925781 5.679688 C 29.449219 5.679688 30.6875 6.914062 30.6875 8.441406 L 30.6875 33.734375 C 30.6875 35.257812 29.449219 36.496094 27.925781 36.496094 L 7.882812 36.496094 C 6.359375 36.496094 5.121094 35.257812 5.121094 33.734375 L 5.121094 8.441406 C 5.121094 6.914062 6.359375 5.679688 7.882812 5.679688 Z M 7.882812 5.679688 "/>
<g clip-path="url(#clip1)" clip-rule="nonzero">
<g clip-path="url(#clip2)" clip-rule="nonzero">
<path style=" stroke:none;fill-rule:nonzero;fill:rgb(100%,100%,100%);fill-opacity:1;" d="M 8.875 8.773438 L 26.933594 8.773438 C 27.929688 8.773438 28.738281 9.75 28.738281 10.960938 L 28.738281 32.84375 C 28.738281 34.050781 27.929688 35.03125 26.933594 35.03125 L 8.875 35.03125 C 7.878906 35.03125 7.070312 34.050781 7.070312 32.84375 L 7.070312 10.960938 C 7.070312 9.75 7.878906 8.773438 8.875 8.773438 M 8.875 8.773438 "/>
</g>
</g>
<g clip-path="url(#clip3)" clip-rule="nonzero">
<g clip-path="url(#clip4)" clip-rule="nonzero">
<path style=" stroke:none;fill-rule:nonzero;fill:rgb(98.039216%,92.156863%,81.176471%);fill-opacity:1;" d="M 8.875 8.773438 C 7.875 8.773438 7.070312 9.746094 7.070312 10.960938 L 7.070312 32.84375 C 7.070312 34.054688 7.875 35.03125 8.875 35.03125 L 17.902344 35.03125 L 17.902344 8.773438 M 8.875 8.773438 "/>
</g>
</g>
<g clip-path="url(#clip5)" clip-rule="nonzero">
<g clip-path="url(#clip6)" clip-rule="nonzero">
<path style=" stroke:none;fill-rule:nonzero;fill:rgb(100%,100%,100%);fill-opacity:1;" d="M 8.875 8.773438 C 7.875 8.773438 7.070312 9.746094 7.070312 10.960938 L 7.070312 32.84375 C 7.070312 34.054688 7.875 35.03125 8.875 35.03125 L 9.777344 35.03125 C 8.777344 35.03125 7.972656 34.054688 7.972656 32.84375 L 7.972656 10.960938 C 7.972656 9.746094 8.777344 8.773438 9.777344 8.773438 M 8.875 8.773438 "/>
</g>
</g>
<g clip-path="url(#clip7)" clip-rule="nonzero">
<g clip-path="url(#clip8)" clip-rule="nonzero">
<path style=" stroke:none;fill-rule:nonzero;fill:rgb(98.039216%,92.156863%,81.176471%);fill-opacity:1;" d="M 26.03125 8.773438 C 27.03125 8.773438 27.835938 9.746094 27.835938 10.960938 L 27.835938 32.84375 C 27.835938 34.054688 27.03125 35.03125 26.03125 35.03125 L 26.933594 35.03125 C 27.933594 35.03125 28.738281 34.054688 28.738281 32.84375 L 28.738281 10.960938 C 28.738281 9.746094 27.933594 8.773438 26.933594 8.773438 M 26.03125 8.773438 "/>
</g>
</g>
<g clip-path="url(#clip9)" clip-rule="nonzero">
<g clip-path="url(#clip10)" clip-rule="nonzero">
<path style=" stroke:none;fill-rule:nonzero;fill:rgb(16.862745%,16.862745%,16.862745%);fill-opacity:0.4;" d="M 9.777344 10.960938 L 16.097656 10.960938 L 16.097656 13.148438 L 9.777344 13.148438 M 9.777344 10.960938 "/>
</g>
</g>
<g clip-path="url(#clip11)" clip-rule="nonzero">
<g clip-path="url(#clip12)" clip-rule="nonzero">
<path style=" stroke:none;fill-rule:nonzero;fill:rgb(16.862745%,16.862745%,16.862745%);fill-opacity:0.4;" d="M 19.710938 30.65625 L 26.03125 30.65625 L 26.03125 32.84375 L 19.710938 32.84375 M 19.710938 30.65625 "/>
</g>
</g>
<g clip-path="url(#clip13)" clip-rule="nonzero">
<g clip-path="url(#clip14)" clip-rule="nonzero">
<path style=" stroke:none;fill-rule:nonzero;fill:rgb(16.862745%,16.862745%,16.862745%);fill-opacity:0.4;" d="M 9.777344 16.429688 L 26.03125 16.429688 L 26.03125 17.523438 L 9.777344 17.523438 M 9.777344 16.429688 "/>
</g>
</g>
<g clip-path="url(#clip15)" clip-rule="nonzero">
<g clip-path="url(#clip16)" clip-rule="nonzero">
<path style=" stroke:none;fill-rule:nonzero;fill:rgb(16.862745%,16.862745%,16.862745%);fill-opacity:0.4;" d="M 9.777344 19.714844 L 26.03125 19.714844 L 26.03125 20.808594 L 9.777344 20.808594 M 9.777344 19.714844 "/>
</g>
</g>
<g clip-path="url(#clip17)" clip-rule="nonzero">
<g clip-path="url(#clip18)" clip-rule="nonzero">
<path style=" stroke:none;fill-rule:nonzero;fill:rgb(16.862745%,16.862745%,16.862745%);fill-opacity:0.4;" d="M 9.777344 22.996094 L 26.03125 22.996094 L 26.03125 24.089844 L 9.777344 24.089844 M 9.777344 22.996094 "/>
</g>
</g>
<g clip-path="url(#clip19)" clip-rule="nonzero">
<g clip-path="url(#clip20)" clip-rule="nonzero">
<path style=" stroke:none;fill-rule:nonzero;fill:rgb(16.862745%,16.862745%,16.862745%);fill-opacity:0.4;" d="M 9.777344 26.277344 L 26.03125 26.277344 L 26.03125 27.371094 L 9.777344 27.371094 M 9.777344 26.277344 "/>
</g>
</g>
<path style=" stroke:none;fill-rule:nonzero;fill:rgb(27.843137%,20.784314%,20.784314%);fill-opacity:1;" d="M 13.292969 6.734375 L 21.90625 6.734375 L 21.90625 8.121094 L 13.292969 8.121094 Z M 13.292969 6.734375 "/>
<path style=" stroke:none;fill-rule:nonzero;fill:rgb(65.882353%,61.960784%,54.901961%);fill-opacity:1;" d="M 15.429688 4.4375 L 20.074219 4.4375 L 20.074219 7.425781 L 15.429688 7.425781 Z M 15.429688 4.4375 "/>
<path style=" stroke:none;fill-rule:nonzero;fill:rgb(20%,20%,20%);fill-opacity:1;" d="M 32.164062 22.753906 C 29.144531 22.753906 26.679688 25.339844 26.390625 28.671875 L 37.933594 28.671875 C 37.644531 25.339844 35.179688 22.753906 32.164062 22.753906 Z M 23.460938 29.589844 C 22.816406 29.589844 22.300781 30.175781 22.300781 30.90625 C 22.300781 31.632812 22.816406 32.222656 23.460938 32.222656 L 40.863281 32.222656 C 41.507812 32.222656 42.023438 31.632812 42.023438 30.90625 C 42.023438 30.175781 41.507812 29.589844 40.863281 29.589844 Z M 24.039062 34.585938 C 23.398438 34.585938 22.878906 35.171875 22.878906 35.902344 C 22.878906 36.628906 23.398438 37.21875 24.039062 37.21875 L 29.199219 37.21875 L 24.910156 40.019531 C 24.355469 40.386719 24.164062 41.1875 24.488281 41.816406 C 24.808594 42.449219 25.515625 42.664062 26.074219 42.300781 L 31.292969 38.882812 L 31.292969 34.585938 Z M 33.03125 34.585938 L 33.03125 38.882812 L 38.253906 42.300781 C 38.808594 42.664062 39.515625 42.449219 39.835938 41.816406 C 40.160156 41.1875 39.96875 40.386719 39.414062 40.019531 L 35.125 37.21875 L 40.285156 37.21875 C 40.925781 37.21875 41.445312 36.628906 41.445312 35.902344 C 41.445312 35.171875 40.925781 34.585938 40.285156 34.585938 Z M 33.03125 34.585938 "/>
<path style=" stroke:none;fill-rule:nonzero;fill:rgb(83.137255%,9.803922%,9.803922%);fill-opacity:1;" d="M 25.199219 29.589844 L 25.199219 35.507812 L 25.203125 35.507812 C 25.203125 35.53125 25.199219 35.550781 25.199219 35.574219 C 25.199219 39.398438 27.707031 42.476562 30.824219 42.476562 L 31.292969 42.476562 L 31.292969 33.273438 L 33.03125 33.273438 L 33.03125 42.476562 L 33.5 42.476562 C 36.617188 42.476562 39.125 39.398438 39.125 35.574219 C 39.125 35.550781 39.121094 35.53125 39.121094 35.507812 L 39.125 35.507812 L 39.125 29.589844 Z M 25.199219 29.589844 "/>
<path style=" stroke:none;fill-rule:nonzero;fill:rgb(97.254902%,97.254902%,97.254902%);fill-opacity:1;" d="M 36.542969 32.375 C 36.542969 32.839844 36.167969 33.214844 35.703125 33.214844 C 35.238281 33.214844 34.863281 32.839844 34.863281 32.375 C 34.863281 31.910156 35.238281 31.535156 35.703125 31.535156 C 36.167969 31.535156 36.542969 31.910156 36.542969 32.375 Z M 36.542969 32.375 "/>
<path style=" stroke:none;fill-rule:nonzero;fill:rgb(97.254902%,97.254902%,97.254902%);fill-opacity:1;" d="M 29.703125 38.917969 C 29.703125 39.378906 29.324219 39.757812 28.863281 39.757812 C 28.398438 39.757812 28.019531 39.378906 28.019531 38.917969 C 28.019531 38.453125 28.398438 38.078125 28.863281 38.078125 C 29.324219 38.078125 29.703125 38.453125 29.703125 38.917969 Z M 29.703125 38.917969 "/>
<path style=" stroke:none;fill-rule:nonzero;fill:rgb(97.254902%,97.254902%,97.254902%);fill-opacity:1;" d="M 32.820312 31.054688 C 32.820312 31.519531 32.445312 31.894531 31.980469 31.894531 C 31.519531 31.894531 31.140625 31.519531 31.140625 31.054688 C 31.140625 30.589844 31.519531 30.214844 31.980469 30.214844 C 32.445312 30.214844 32.820312 30.589844 32.820312 31.054688 Z M 32.820312 31.054688 "/>
<path style=" stroke:none;fill-rule:nonzero;fill:rgb(97.254902%,97.254902%,97.254902%);fill-opacity:1;" d="M 36.78125 38.617188 C 36.78125 39.082031 36.40625 39.457031 35.941406 39.457031 C 35.480469 39.457031 35.101562 39.082031 35.101562 38.617188 C 35.101562 38.152344 35.480469 37.777344 35.941406 37.777344 C 36.40625 37.777344 36.78125 38.152344 36.78125 38.617188 Z M 36.78125 38.617188 "/>
<path style=" stroke:none;fill-rule:nonzero;fill:rgb(97.254902%,97.254902%,97.254902%);fill-opacity:1;" d="M 38.464844 34.65625 C 38.464844 35.121094 38.085938 35.496094 37.625 35.496094 C 37.160156 35.496094 36.78125 35.121094 36.78125 34.65625 C 36.78125 34.191406 37.160156 33.816406 37.625 33.816406 C 38.085938 33.816406 38.464844 34.191406 38.464844 34.65625 Z M 38.464844 34.65625 "/>
<path style=" stroke:none;fill-rule:nonzero;fill:rgb(97.254902%,97.254902%,97.254902%);fill-opacity:1;" d="M 35.34375 36.097656 C 35.34375 36.558594 34.964844 36.9375 34.503906 36.9375 C 34.039062 36.9375 33.664062 36.558594 33.664062 36.097656 C 33.664062 35.632812 34.039062 35.253906 34.503906 35.253906 C 34.964844 35.253906 35.34375 35.632812 35.34375 36.097656 Z M 35.34375 36.097656 "/>
<path style=" stroke:none;fill-rule:nonzero;fill:rgb(97.254902%,97.254902%,97.254902%);fill-opacity:1;" d="M 28.742188 31.835938 C 28.742188 32.300781 28.367188 32.675781 27.902344 32.675781 C 27.4375 32.675781 27.0625 32.300781 27.0625 31.835938 C 27.0625 31.371094 27.4375 30.996094 27.902344 30.996094 C 28.367188 30.996094 28.742188 31.371094 28.742188 31.835938 Z M 28.742188 31.835938 "/>
<path style=" stroke:none;fill-rule:nonzero;fill:rgb(97.254902%,97.254902%,97.254902%);fill-opacity:1;" d="M 30.300781 35.074219 C 30.300781 35.539062 29.925781 35.914062 29.460938 35.914062 C 28.996094 35.914062 28.621094 35.539062 28.621094 35.074219 C 28.621094 34.613281 28.996094 34.234375 29.460938 34.234375 C 29.925781 34.234375 30.300781 34.613281 30.300781 35.074219 Z M 30.300781 35.074219 "/>
<path style=" stroke:none;fill-rule:nonzero;fill:rgb(97.254902%,97.254902%,97.254902%);fill-opacity:1;" d="M 36.542969 32.375 C 36.542969 32.839844 36.167969 33.214844 35.703125 33.214844 C 35.238281 33.214844 34.863281 32.839844 34.863281 32.375 C 34.863281 31.910156 35.238281 31.535156 35.703125 31.535156 C 36.167969 31.535156 36.542969 31.910156 36.542969 32.375 Z M 36.542969 32.375 "/>
<path style=" stroke:none;fill-rule:nonzero;fill:rgb(97.254902%,97.254902%,97.254902%);fill-opacity:1;" d="M 27.78125 36.335938 C 27.78125 36.800781 27.40625 37.175781 26.941406 37.175781 C 26.476562 37.175781 26.101562 36.800781 26.101562 36.335938 C 26.101562 35.871094 26.476562 35.496094 26.941406 35.496094 C 27.40625 35.496094 27.78125 35.871094 27.78125 36.335938 Z M 27.78125 36.335938 "/>
</g>
</svg>
