<!-- color: #70bdea -->
<svg xmlns="http://www.w3.org/2000/svg" xmlns:xlink="http://www.w3.org/1999/xlink" width="48px" height="48px" viewBox="0 0 48 48" version="1.1">
<g id="surface1">
<path style="fill-rule:nonzero;fill:rgb(29.019608%,68.235294%,90.196078%);fill-opacity:1;stroke-width:28.480503;stroke-linecap:butt;stroke-linejoin:miter;stroke:rgb(18.039216%,45.098039%,60%);stroke-opacity:1;stroke-miterlimit:4;" d="M 79.708333 22.75 L 432.291667 22.75 C 463.75 22.75 489.25 48.25 489.25 79.708333 L 489.25 432.291667 C 489.25 463.75 463.75 489.25 432.291667 489.25 L 79.708333 489.25 C 48.25 489.25 22.75 463.75 22.75 432.291667 L 22.75 79.708333 C 22.75 48.25 48.25 22.75 79.708333 22.75 Z M 79.708333 22.75 " transform="matrix(0.09375,0,0,0.09375,0,0)"/>
<path style=" stroke:none;fill-rule:nonzero;fill:rgb(40%,40%,40%);fill-opacity:1;" d="M 37.949219 25.246094 C 37.949219 18.085938 32.003906 12.28125 24.667969 12.28125 C 17.335938 12.28125 11.390625 18.085938 11.390625 25.246094 C 11.390625 32.40625 17.335938 38.207031 24.667969 38.207031 C 32.003906 38.207031 37.949219 32.40625 37.949219 25.246094 Z M 37.949219 25.246094 "/>
<path style=" stroke:none;fill-rule:nonzero;fill:rgb(40%,40%,40%);fill-opacity:1;" d="M 21.824219 45.394531 C 21.464844 45.234375 21.085938 44.828125 20.917969 44.421875 C 20.832031 44.210938 20.742188 43.40625 20.667969 42.125 C 20.605469 41.035156 20.523438 40.058594 20.484375 39.953125 C 20.433594 39.8125 20.183594 39.679688 19.5625 39.464844 C 19.09375 39.300781 18.386719 39.003906 17.992188 38.804688 C 17.597656 38.609375 17.191406 38.445312 17.085938 38.445312 C 16.96875 38.445312 16.324219 38.96875 15.40625 39.8125 C 14.585938 40.5625 13.785156 41.246094 13.621094 41.328125 C 13.289062 41.5 12.539062 41.527344 12.152344 41.382812 C 11.84375 41.269531 8.589844 38.0625 8.382812 37.667969 C 8.171875 37.277344 8.195312 36.542969 8.429688 36.101562 C 8.535156 35.898438 9.222656 35.082031 9.957031 34.285156 C 10.75 33.425781 11.296875 32.757812 11.296875 32.652344 C 11.296875 32.550781 11.132812 32.144531 10.9375 31.75 C 10.738281 31.355469 10.441406 30.652344 10.28125 30.1875 C 10.117188 29.71875 9.917969 29.304688 9.835938 29.261719 C 9.753906 29.21875 8.796875 29.136719 7.710938 29.074219 C 6.445312 29.007812 5.59375 28.917969 5.347656 28.828125 C 4.878906 28.660156 4.339844 28.085938 4.261719 27.671875 C 4.230469 27.503906 4.21875 26.265625 4.234375 24.917969 L 4.261719 22.46875 L 4.542969 22.113281 C 5.042969 21.488281 5.277344 21.425781 7.65625 21.28125 C 9 21.199219 9.820312 21.109375 9.886719 21.042969 C 9.945312 20.984375 10.148438 20.519531 10.335938 20.015625 C 10.523438 19.507812 10.816406 18.816406 10.984375 18.476562 C 11.15625 18.136719 11.296875 17.785156 11.296875 17.691406 C 11.296875 17.601562 10.734375 16.910156 10.046875 16.15625 C 9.355469 15.398438 8.699219 14.65625 8.582031 14.503906 C 8.253906 14.070312 8.144531 13.535156 8.273438 13.007812 C 8.371094 12.613281 8.550781 12.398438 10.046875 10.882812 C 10.960938 9.957031 11.863281 9.117188 12.050781 9.019531 C 12.488281 8.796875 13.179688 8.792969 13.609375 9.015625 C 13.792969 9.105469 14.59375 9.777344 15.386719 10.507812 C 16.179688 11.238281 16.882812 11.863281 16.949219 11.902344 C 17.019531 11.941406 17.445312 11.789062 17.964844 11.542969 C 18.460938 11.308594 19.199219 11.003906 19.609375 10.867188 C 20.164062 10.679688 20.378906 10.5625 20.457031 10.398438 C 20.511719 10.277344 20.609375 9.289062 20.671875 8.203125 C 20.789062 6.109375 20.859375 5.78125 21.292969 5.332031 C 21.773438 4.828125 22.046875 4.789062 24.726562 4.820312 L 27.167969 4.847656 L 27.550781 5.097656 C 28.207031 5.535156 28.289062 5.804688 28.441406 8.132812 C 28.519531 9.257812 28.601562 10.265625 28.625 10.371094 C 28.660156 10.523438 28.859375 10.632812 29.515625 10.863281 C 29.980469 11.023438 30.726562 11.339844 31.171875 11.5625 C 31.613281 11.789062 32.015625 11.972656 32.058594 11.972656 C 32.101562 11.972656 32.816406 11.347656 33.644531 10.585938 C 34.476562 9.824219 35.308594 9.121094 35.496094 9.023438 C 35.9375 8.792969 36.597656 8.792969 37.085938 9.027344 C 37.3125 9.140625 38.097656 9.851562 39.078125 10.84375 C 40.765625 12.546875 40.898438 12.742188 40.898438 13.511719 C 40.902344 14.058594 40.65625 14.417969 39.207031 16.007812 C 38.421875 16.871094 37.773438 17.613281 37.773438 17.660156 C 37.773438 17.703125 37.980469 18.167969 38.230469 18.695312 C 38.484375 19.21875 38.785156 19.953125 38.898438 20.324219 C 39.042969 20.789062 39.167969 21.027344 39.292969 21.082031 C 39.394531 21.125 40.410156 21.21875 41.550781 21.289062 C 43.816406 21.429688 44.179688 21.523438 44.558594 22.058594 C 44.917969 22.5625 44.960938 22.941406 44.929688 25.40625 L 44.898438 27.765625 L 44.621094 28.160156 C 44.128906 28.863281 44.003906 28.902344 41.492188 29.066406 C 40.261719 29.144531 39.238281 29.230469 39.210938 29.257812 C 39.183594 29.285156 39.03125 29.675781 38.871094 30.128906 C 38.710938 30.582031 38.398438 31.320312 38.171875 31.765625 C 37.949219 32.214844 37.777344 32.632812 37.792969 32.703125 C 37.808594 32.769531 38.421875 33.476562 39.152344 34.277344 C 39.886719 35.078125 40.582031 35.914062 40.695312 36.140625 C 40.9375 36.617188 40.957031 37.121094 40.757812 37.597656 C 40.582031 38.019531 37.597656 41.050781 37.113281 41.304688 C 36.707031 41.511719 35.96875 41.535156 35.542969 41.351562 C 35.378906 41.28125 34.5625 40.597656 33.730469 39.835938 C 32.894531 39.070312 32.144531 38.445312 32.066406 38.445312 C 31.984375 38.445312 31.515625 38.636719 31.019531 38.863281 C 30.527344 39.09375 29.796875 39.390625 29.394531 39.523438 C 28.84375 39.707031 28.65625 39.808594 28.625 39.957031 C 28.601562 40.058594 28.519531 41.066406 28.441406 42.195312 C 28.277344 44.671875 28.183594 44.9375 27.320312 45.375 C 27.070312 45.503906 26.65625 45.523438 24.5625 45.519531 C 22.710938 45.519531 22.03125 45.488281 21.824219 45.394531 Z M 25.453125 34.398438 C 27.675781 34.164062 29.535156 33.277344 31.117188 31.695312 C 32.320312 30.492188 33.097656 29.136719 33.566406 27.429688 C 33.859375 26.363281 33.859375 24 33.5625 22.917969 C 32.667969 19.628906 30.316406 17.210938 27.0625 16.234375 C 26.304688 16.003906 26.101562 15.984375 24.628906 15.976562 C 23.214844 15.96875 22.921875 15.996094 22.238281 16.183594 C 18.816406 17.117188 16.199219 19.867188 15.484375 23.277344 C 14.839844 26.34375 15.78125 29.472656 18.019531 31.722656 C 19.191406 32.898438 20.710938 33.761719 22.359375 34.1875 C 22.828125 34.308594 23.492188 34.402344 24.445312 34.480469 C 24.519531 34.484375 24.972656 34.449219 25.453125 34.398438 Z M 23.175781 30.542969 C 20.832031 29.910156 19.191406 27.914062 19.042969 25.523438 C 18.941406 23.851562 19.480469 22.4375 20.667969 21.253906 C 22.832031 19.097656 26.285156 19.078125 28.421875 21.207031 C 30.179688 22.960938 30.601562 25.453125 29.507812 27.644531 C 28.578125 29.507812 26.867188 30.609375 24.765625 30.691406 C 24.050781 30.71875 23.695312 30.6875 23.175781 30.542969 Z M 25.796875 28.226562 C 26.445312 27.984375 27.21875 27.265625 27.542969 26.605469 C 27.773438 26.136719 27.800781 25.984375 27.800781 25.164062 C 27.800781 24.289062 27.785156 24.214844 27.484375 23.660156 C 26.878906 22.550781 25.984375 21.984375 24.71875 21.921875 C 23.703125 21.871094 23.09375 22.085938 22.359375 22.753906 C 21.429688 23.605469 21.058594 24.789062 21.359375 25.953125 C 21.617188 26.964844 22.164062 27.648438 23.085938 28.117188 C 23.945312 28.550781 24.832031 28.585938 25.796875 28.226562 Z M 25.796875 28.226562 "/>
<path style=" stroke:none;fill-rule:nonzero;fill:rgb(94.117647%,94.117647%,94.117647%);fill-opacity:1;" d="M 37.34375 24.039062 C 37.34375 16.878906 31.398438 11.074219 24.066406 11.074219 C 16.734375 11.074219 10.789062 16.878906 10.789062 24.039062 C 10.789062 31.195312 16.734375 37 24.066406 37 C 31.398438 37 37.34375 31.195312 37.34375 24.039062 Z M 37.34375 24.039062 "/>
<path style=" stroke:none;fill-rule:nonzero;fill:rgb(94.117647%,94.117647%,94.117647%);fill-opacity:1;" d="M 21.21875 44.1875 C 20.863281 44.027344 20.484375 43.621094 20.3125 43.214844 C 20.226562 43.003906 20.140625 42.199219 20.0625 40.914062 C 20 39.828125 19.917969 38.851562 19.878906 38.746094 C 19.828125 38.605469 19.578125 38.472656 18.957031 38.257812 C 18.488281 38.09375 17.78125 37.796875 17.390625 37.597656 C 16.996094 37.398438 16.585938 37.238281 16.480469 37.238281 C 16.363281 37.238281 15.71875 37.761719 14.800781 38.605469 C 13.984375 39.355469 13.179688 40.039062 13.019531 40.121094 C 12.683594 40.292969 11.9375 40.320312 11.550781 40.175781 C 11.242188 40.0625 7.984375 36.851562 7.777344 36.457031 C 7.570312 36.066406 7.59375 35.335938 7.824219 34.894531 C 7.929688 34.691406 8.617188 33.875 9.355469 33.078125 C 10.148438 32.21875 10.691406 31.550781 10.691406 31.441406 C 10.691406 31.339844 10.53125 30.9375 10.332031 30.542969 C 10.132812 30.148438 9.839844 29.445312 9.675781 28.976562 C 9.511719 28.511719 9.3125 28.097656 9.230469 28.054688 C 9.148438 28.011719 8.195312 27.925781 7.105469 27.867188 C 5.84375 27.796875 4.992188 27.710938 4.746094 27.621094 C 4.277344 27.453125 3.734375 26.878906 3.660156 26.464844 C 3.628906 26.296875 3.617188 25.058594 3.628906 23.710938 L 3.660156 21.257812 L 3.941406 20.90625 C 4.4375 20.28125 4.671875 20.21875 7.050781 20.074219 C 8.398438 19.992188 9.214844 19.902344 9.28125 19.835938 C 9.34375 19.773438 9.542969 19.3125 9.730469 18.804688 C 9.917969 18.300781 10.210938 17.609375 10.382812 17.269531 C 10.554688 16.929688 10.691406 16.574219 10.691406 16.484375 C 10.691406 16.394531 10.128906 15.703125 9.441406 14.945312 C 8.753906 14.191406 8.09375 13.449219 7.980469 13.292969 C 7.652344 12.863281 7.542969 12.328125 7.671875 11.800781 C 7.769531 11.40625 7.949219 11.191406 9.441406 9.675781 C 10.359375 8.746094 11.257812 7.910156 11.445312 7.8125 C 11.882812 7.589844 12.574219 7.585938 13.007812 7.804688 C 13.1875 7.898438 13.988281 8.570312 14.78125 9.300781 C 15.574219 10.027344 16.277344 10.65625 16.34375 10.691406 C 16.414062 10.730469 16.84375 10.582031 17.363281 10.335938 C 17.855469 10.101562 18.59375 9.796875 19.003906 9.660156 C 19.558594 9.472656 19.773438 9.351562 19.851562 9.191406 C 19.90625 9.070312 20.003906 8.082031 20.066406 6.992188 C 20.1875 4.902344 20.257812 4.574219 20.6875 4.121094 C 21.167969 3.621094 21.445312 3.582031 24.125 3.609375 L 26.566406 3.636719 L 26.949219 3.890625 C 27.605469 4.328125 27.683594 4.597656 27.839844 6.921875 C 27.914062 8.050781 27.996094 9.058594 28.019531 9.164062 C 28.054688 9.316406 28.257812 9.425781 28.910156 9.65625 C 29.375 9.816406 30.121094 10.132812 30.566406 10.355469 C 31.011719 10.582031 31.410156 10.761719 31.453125 10.761719 C 31.496094 10.761719 32.210938 10.140625 33.042969 9.378906 C 33.871094 8.617188 34.703125 7.914062 34.890625 7.816406 C 35.335938 7.582031 35.996094 7.585938 36.480469 7.820312 C 36.710938 7.933594 37.492188 8.644531 38.476562 9.636719 C 40.160156 11.339844 40.292969 11.535156 40.296875 12.304688 C 40.296875 12.851562 40.054688 13.210938 38.605469 14.796875 C 37.816406 15.664062 37.171875 16.40625 37.171875 16.453125 C 37.171875 16.496094 37.375 16.960938 37.628906 17.484375 C 37.878906 18.011719 38.179688 18.742188 38.292969 19.117188 C 38.4375 19.582031 38.5625 19.820312 38.6875 19.875 C 38.789062 19.917969 39.804688 20.011719 40.945312 20.082031 C 43.210938 20.222656 43.578125 20.316406 43.957031 20.851562 C 44.316406 21.355469 44.355469 21.734375 44.324219 24.199219 L 44.296875 26.558594 L 44.019531 26.953125 C 43.523438 27.65625 43.398438 27.691406 40.886719 27.855469 C 39.660156 27.9375 38.632812 28.023438 38.605469 28.050781 C 38.578125 28.078125 38.429688 28.46875 38.269531 28.921875 C 38.109375 29.375 37.792969 30.113281 37.570312 30.558594 C 37.34375 31.003906 37.171875 31.425781 37.1875 31.492188 C 37.203125 31.5625 37.816406 32.269531 38.550781 33.070312 C 39.28125 33.871094 39.976562 34.707031 40.089844 34.929688 C 40.332031 35.40625 40.355469 35.914062 40.15625 36.390625 C 39.980469 36.808594 36.992188 39.84375 36.507812 40.09375 C 36.101562 40.304688 35.363281 40.328125 34.9375 40.144531 C 34.777344 40.074219 33.960938 39.390625 33.125 38.628906 C 32.292969 37.863281 31.542969 37.238281 31.460938 37.238281 C 31.378906 37.238281 30.910156 37.425781 30.417969 37.65625 C 29.921875 37.886719 29.191406 38.183594 28.792969 38.316406 C 28.238281 38.5 28.054688 38.601562 28.019531 38.746094 C 27.996094 38.851562 27.914062 39.859375 27.839844 40.984375 C 27.675781 43.460938 27.578125 43.730469 26.71875 44.167969 C 26.46875 44.292969 26.054688 44.316406 23.960938 44.3125 C 22.105469 44.308594 21.425781 44.277344 21.21875 44.1875 Z M 24.851562 33.191406 C 27.074219 32.957031 28.929688 32.070312 30.511719 30.488281 C 31.71875 29.28125 32.496094 27.929688 32.960938 26.222656 C 33.253906 25.152344 33.253906 22.792969 32.960938 21.707031 C 32.0625 18.421875 29.710938 16.003906 26.460938 15.023438 C 25.703125 14.796875 25.496094 14.773438 24.023438 14.769531 C 22.613281 14.761719 22.320312 14.789062 21.632812 14.976562 C 18.210938 15.910156 15.59375 18.660156 14.878906 22.070312 C 14.238281 25.136719 15.175781 28.265625 17.414062 30.511719 C 18.585938 31.691406 20.105469 32.554688 21.753906 32.980469 C 22.222656 33.101562 22.890625 33.195312 23.839844 33.269531 C 23.914062 33.277344 24.371094 33.242188 24.851562 33.191406 Z M 22.570312 29.335938 C 20.226562 28.699219 18.585938 26.707031 18.441406 24.3125 C 18.339844 22.640625 18.878906 21.226562 20.066406 20.046875 C 22.226562 17.890625 25.679688 17.871094 27.816406 20 C 29.574219 21.753906 29.996094 24.246094 28.90625 26.4375 C 27.976562 28.300781 26.261719 29.398438 24.160156 29.484375 C 23.445312 29.511719 23.09375 29.476562 22.570312 29.335938 Z M 25.195312 27.019531 C 25.839844 26.777344 26.613281 26.058594 26.9375 25.398438 C 27.167969 24.929688 27.195312 24.773438 27.195312 23.953125 C 27.195312 23.082031 27.179688 23.003906 26.878906 22.453125 C 26.277344 21.339844 25.382812 20.777344 24.117188 20.710938 C 23.097656 20.660156 22.492188 20.878906 21.757812 21.546875 C 20.828125 22.398438 20.457031 23.578125 20.753906 24.746094 C 21.015625 25.753906 21.5625 26.441406 22.484375 26.90625 C 23.34375 27.34375 24.226562 27.378906 25.195312 27.019531 Z M 25.195312 27.019531 "/>
<path style=" stroke:none;fill-rule:nonzero;fill:rgb(100%,100%,100%);fill-opacity:1;" d="M 38.15625 24 C 38.15625 31.625 32.117188 37.878906 24.496094 38.148438 C 16.875 38.414062 10.414062 32.597656 9.878906 24.992188 C 9.34375 17.382812 14.929688 10.722656 22.515625 9.921875 C 30.097656 9.121094 36.953125 14.472656 38.019531 22.023438 "/>
<path style=" stroke:none;fill-rule:evenodd;fill:rgb(20.784314%,78.039216%,43.921569%);fill-opacity:1;" d="M 24.015625 14.550781 C 23.964844 14.550781 23.910156 14.550781 23.859375 14.554688 C 22.265625 14.679688 21.371094 16.621094 22.042969 18.757812 C 21.226562 17.382812 20.164062 16.332031 18.824219 16.34375 C 18.714844 16.34375 18.605469 16.351562 18.496094 16.367188 C 16.890625 16.582031 16.664062 18.59375 18.347656 19.535156 C 18.710938 19.738281 19.070312 19.984375 19.417969 20.257812 C 18.832031 19.929688 18.238281 19.726562 17.664062 19.726562 C 17.273438 19.726562 16.890625 19.820312 16.527344 20.035156 C 15.363281 20.714844 15.757812 22.285156 17.242188 22.601562 C 16.84375 22.699219 16.488281 22.894531 16.1875 23.214844 C 15.246094 24.203125 16.167969 25.644531 17.769531 25.371094 C 17.914062 25.34375 18.066406 25.324219 18.222656 25.308594 C 17.839844 25.484375 17.53125 25.753906 17.339844 26.148438 C 16.867188 27.121094 17.90625 27.988281 19.050781 27.398438 C 19.941406 26.9375 21.097656 26.722656 22.09375 26.617188 L 22.257812 26.707031 L 22.082031 26.804688 L 22.335938 27.226562 L 22.082031 27.644531 C 22.082031 27.644531 22.082031 27.648438 22.082031 27.648438 L 22.257812 27.746094 L 22.082031 27.839844 C 22.082031 27.84375 22.082031 27.84375 22.082031 27.84375 L 22.335938 28.265625 L 22.082031 28.683594 C 22.082031 28.683594 22.082031 28.6875 22.082031 28.6875 L 22.257812 28.785156 L 22.082031 28.878906 C 22.082031 28.878906 22.082031 28.882812 22.082031 28.882812 L 22.335938 29.300781 L 22.082031 29.722656 C 22.082031 29.722656 22.082031 29.722656 22.082031 29.726562 L 22.257812 29.820312 L 22.082031 29.917969 C 22.082031 29.917969 22.082031 29.921875 22.082031 29.921875 L 22.335938 30.339844 L 22.082031 30.761719 L 22.257812 30.859375 L 22.082031 30.957031 C 22.082031 30.957031 22.082031 30.960938 22.082031 30.960938 L 22.335938 31.378906 L 22.082031 31.800781 L 22.257812 31.898438 L 22.082031 31.996094 C 22.082031 31.996094 22.082031 31.996094 22.082031 32 L 22.335938 32.417969 L 22.082031 32.839844 L 22.257812 32.9375 L 22.082031 33.035156 C 22.082031 33.035156 22.082031 33.035156 22.082031 33.039062 L 22.335938 33.457031 L 22.296875 33.519531 L 25.65625 33.519531 L 25.621094 33.457031 L 25.871094 33.039062 C 25.871094 33.035156 25.871094 33.035156 25.871094 33.035156 L 25.695312 32.9375 L 25.871094 32.839844 L 25.621094 32.417969 L 25.871094 32 C 25.871094 31.996094 25.871094 31.996094 25.871094 31.996094 L 25.695312 31.898438 L 25.871094 31.800781 L 25.621094 31.378906 L 25.871094 30.960938 C 25.871094 30.960938 25.871094 30.957031 25.871094 30.957031 L 25.695312 30.859375 L 25.871094 30.761719 L 25.621094 30.339844 L 25.871094 29.921875 C 25.871094 29.921875 25.871094 29.917969 25.871094 29.917969 L 25.695312 29.820312 L 25.871094 29.726562 C 25.871094 29.722656 25.871094 29.722656 25.871094 29.722656 L 25.621094 29.300781 L 25.871094 28.882812 C 25.871094 28.882812 25.871094 28.878906 25.871094 28.878906 L 25.695312 28.785156 L 25.871094 28.6875 C 25.871094 28.6875 25.871094 28.683594 25.871094 28.683594 L 25.621094 28.265625 L 25.871094 27.84375 C 25.871094 27.84375 25.871094 27.84375 25.871094 27.839844 L 25.695312 27.746094 L 25.871094 27.648438 C 25.871094 27.648438 25.871094 27.644531 25.871094 27.644531 L 25.621094 27.226562 L 25.871094 26.804688 L 25.695312 26.707031 L 25.867188 26.609375 C 26.871094 26.714844 28.050781 26.933594 28.949219 27.398438 C 30.09375 27.988281 31.132812 27.121094 30.660156 26.148438 C 30.46875 25.753906 30.160156 25.484375 29.777344 25.308594 C 29.933594 25.324219 30.085938 25.34375 30.230469 25.371094 C 31.832031 25.644531 32.753906 24.203125 31.8125 23.214844 C 31.511719 22.894531 31.15625 22.699219 30.757812 22.597656 C 32.242188 22.285156 32.636719 20.714844 31.472656 20.035156 C 30.574219 19.507812 29.5625 19.707031 28.582031 20.257812 C 28.929688 19.984375 29.289062 19.738281 29.652344 19.535156 C 31.335938 18.59375 31.109375 16.582031 29.503906 16.367188 C 27.914062 16.152344 26.691406 17.417969 25.792969 19.042969 C 26.5625 16.453125 25.503906 14.5625 24.015625 14.550781 Z M 24.015625 14.550781 "/>
<path style=" stroke:none;fill-rule:evenodd;fill:rgb(22.745098%,77.254902%,90.196078%);fill-opacity:1;" d="M 18.914062 11.703125 C 13.957031 13.757812 10.722656 18.597656 10.722656 23.964844 C 10.730469 30.796875 15.921875 36.511719 22.722656 37.167969 L 22.722656 34.609375 C 17.332031 33.964844 13.273438 29.394531 13.269531 23.964844 C 13.273438 20.019531 15.441406 16.394531 18.914062 14.523438 Z M 29.085938 11.710938 L 29.085938 14.515625 C 32.5625 16.386719 34.730469 20.015625 34.730469 23.964844 C 34.726562 29.390625 30.664062 33.960938 25.277344 34.605469 L 25.277344 37.175781 C 32.082031 36.519531 37.277344 30.800781 37.277344 23.964844 C 37.273438 18.601562 34.039062 13.765625 29.085938 11.710938 Z M 29.085938 11.710938 "/>
</g>
</svg>
