
<svg xmlns="http://www.w3.org/2000/svg" xmlns:xlink="http://www.w3.org/1999/xlink" width="48px" height="48px" viewBox="0 0 48 48" version="1.1">
<g id="surface1">
<path style="fill-rule:nonzero;fill:rgb(100%,100%,100%);fill-opacity:1;stroke-width:27.910587;stroke-linecap:butt;stroke-linejoin:miter;stroke:rgb(9.803922%,63.137255%,52.941176%);stroke-opacity:1;stroke-miterlimit:4;" d="M 85.377823 29.586156 L 430.961156 29.586156 C 461.79449 29.586156 486.752823 54.54449 486.752823 85.377823 L 486.752823 430.961156 C 486.752823 461.79449 461.79449 486.752823 430.961156 486.752823 L 85.377823 486.752823 C 54.54449 486.752823 29.586156 461.79449 29.586156 430.961156 L 29.586156 85.377823 C 29.586156 54.54449 54.54449 29.586156 85.377823 29.586156 Z M 85.377823 29.586156 " transform="matrix(0.09375,0,0,0.09375,-0.20339,-0.20339)"/>
<path style=" stroke:none;fill-rule:nonzero;fill:rgb(84.313725%,84.313725%,84.313725%);fill-opacity:1;" d="M 12.238281 31.207031 L 14.492188 31.207031 L 14.492188 35.152344 L 12.238281 35.152344 Z M 12.238281 31.207031 "/>
<path style=" stroke:none;fill-rule:nonzero;fill:rgb(84.313725%,84.313725%,84.313725%);fill-opacity:1;" d="M 14.164062 31.195312 L 16.421875 31.195312 L 16.421875 35.140625 L 14.164062 35.140625 Z M 14.164062 31.195312 "/>
<path style=" stroke:none;fill-rule:nonzero;fill:rgb(84.313725%,84.313725%,84.313725%);fill-opacity:1;" d="M 15.703125 31.195312 L 17.960938 31.195312 L 17.960938 35.140625 L 15.703125 35.140625 Z M 15.703125 31.195312 "/>
<path style=" stroke:none;fill-rule:nonzero;fill:rgb(97.254902%,87.058824%,40.784314%);fill-opacity:1;" d="M 12.539062 31.195312 L 14.792969 31.195312 L 14.792969 35.140625 L 12.539062 35.140625 Z M 12.539062 31.195312 "/>
<path style=" stroke:none;fill-rule:nonzero;fill:rgb(97.254902%,87.058824%,40.784314%);fill-opacity:1;" d="M 15.378906 31.195312 L 17.632812 31.195312 L 17.632812 35.140625 L 15.378906 35.140625 Z M 15.378906 31.195312 "/>
<path style=" stroke:none;fill-rule:nonzero;fill:rgb(43.921569%,80%,70.196078%);fill-opacity:1;" d="M 10.855469 14.628906 L 40.414062 14.628906 C 41.402344 14.628906 42.199219 15.425781 42.199219 16.410156 L 42.199219 30.535156 C 42.199219 31.519531 41.402344 32.320312 40.414062 32.320312 L 10.855469 32.320312 C 9.867188 32.320312 9.070312 31.519531 9.070312 30.535156 L 9.070312 16.410156 C 9.070312 15.425781 9.867188 14.628906 10.855469 14.628906 Z M 10.855469 14.628906 "/>
<path style=" stroke:none;fill-rule:nonzero;fill:rgb(84.313725%,84.313725%,84.313725%);fill-opacity:1;" d="M 4.582031 9.59375 L 4.582031 11.132812 L 8.875 11.132812 L 8.875 32.320312 L 10.480469 32.320312 L 10.480469 9.597656 L 9.785156 9.597656 L 9.785156 9.59375 Z M 4.582031 9.59375 "/>
<path style=" stroke:none;fill-rule:nonzero;fill:rgb(9.803922%,63.137255%,52.941176%);fill-opacity:1;" d="M 27.738281 19.828125 L 27.738281 19.054688 L 26.289062 19.054688 L 26.289062 16.457031 L 13.039062 16.457031 L 13.039062 19.054688 L 11.59375 19.054688 L 11.59375 19.828125 L 13.039062 19.828125 L 13.039062 21.617188 L 11.59375 21.617188 L 11.59375 22.390625 L 13.039062 22.390625 L 13.039062 24.335938 L 11.59375 24.335938 L 11.59375 25.109375 L 13.039062 25.109375 L 13.039062 26.660156 L 11.59375 26.660156 L 11.59375 27.433594 L 13.039062 27.433594 L 13.039062 29.710938 L 26.289062 29.710938 L 26.289062 27.433594 L 27.738281 27.433594 L 27.738281 26.660156 L 26.289062 26.660156 L 26.289062 25.109375 L 27.738281 25.109375 L 27.738281 24.335938 L 26.289062 24.335938 L 26.289062 22.390625 L 27.738281 22.390625 L 27.738281 21.617188 L 26.289062 21.617188 L 26.289062 19.828125 Z M 27.738281 19.828125 "/>
<path style=" stroke:none;fill-rule:nonzero;fill:rgb(9.803922%,63.137255%,52.941176%);fill-opacity:1;" d="M 31.285156 18.523438 L 31.03125 18.535156 C 30.8125 18.539062 30.765625 18.550781 30.652344 18.605469 C 30.488281 18.683594 30.3125 18.859375 30.230469 19.023438 L 30.167969 19.152344 L 30.160156 23.273438 C 30.15625 26.238281 30.164062 27.425781 30.179688 27.507812 C 30.230469 27.75 30.472656 28.011719 30.726562 28.101562 C 30.8125 28.132812 30.910156 28.144531 31.070312 28.144531 L 31.292969 28.148438 L 31.324219 28.074219 C 31.378906 27.949219 31.476562 27.878906 31.605469 27.867188 C 31.75 27.855469 31.851562 27.917969 31.917969 28.054688 L 31.960938 28.144531 L 32.535156 28.144531 L 32.804688 28.148438 L 38.257812 28.148438 L 38.300781 28.054688 C 38.359375 27.9375 38.4375 27.882812 38.566406 27.867188 C 38.746094 27.851562 38.921875 27.976562 38.921875 28.117188 C 38.921875 28.148438 38.941406 28.152344 39.039062 28.144531 C 39.289062 28.121094 39.574219 27.910156 39.703125 27.652344 L 39.765625 27.523438 L 39.769531 23.382812 C 39.777344 19.300781 39.773438 19.238281 39.734375 19.109375 C 39.625 18.792969 39.289062 18.527344 38.996094 18.527344 C 38.9375 18.527344 38.921875 18.539062 38.921875 18.570312 C 38.921875 18.625 38.828125 18.738281 38.746094 18.78125 C 38.667969 18.820312 38.546875 18.824219 38.46875 18.78125 C 38.390625 18.742188 38.296875 18.640625 38.277344 18.578125 L 38.265625 18.527344 L 31.960938 18.53125 L 31.917969 18.621094 C 31.796875 18.875 31.453125 18.875 31.332031 18.625 Z M 31.285156 18.523438 "/>
<path style=" stroke:none;fill-rule:nonzero;fill:rgb(90.196078%,90.196078%,90.196078%);fill-opacity:1;" d="M 33.640625 20.703125 L 36.28125 20.703125 C 36.640625 20.703125 36.929688 20.992188 36.929688 21.351562 L 36.929688 21.574219 C 36.929688 21.933594 36.640625 22.222656 36.28125 22.222656 L 33.640625 22.222656 C 33.285156 22.222656 32.992188 21.933594 32.992188 21.574219 L 32.992188 21.351562 C 32.992188 20.992188 33.285156 20.703125 33.640625 20.703125 Z M 33.640625 20.703125 "/>
<path style=" stroke:none;fill-rule:nonzero;fill:rgb(90.196078%,90.196078%,90.196078%);fill-opacity:1;" d="M 33.988281 19.019531 L 33.988281 20.6875 C 33.988281 20.789062 33.902344 20.875 33.800781 20.875 L 33.738281 20.875 C 33.636719 20.875 33.550781 20.789062 33.550781 20.6875 L 33.550781 19.019531 C 33.550781 18.917969 33.636719 18.835938 33.738281 18.835938 L 33.800781 18.835938 C 33.902344 18.835938 33.988281 18.917969 33.988281 19.019531 Z M 33.988281 19.019531 "/>
<path style=" stroke:none;fill-rule:nonzero;fill:rgb(90.196078%,90.196078%,90.196078%);fill-opacity:1;" d="M 34.78125 19.019531 L 34.78125 20.6875 C 34.78125 20.789062 34.699219 20.875 34.59375 20.875 L 34.53125 20.875 C 34.429688 20.875 34.347656 20.789062 34.347656 20.6875 L 34.347656 19.019531 C 34.347656 18.914062 34.429688 18.832031 34.53125 18.832031 L 34.59375 18.832031 C 34.699219 18.832031 34.78125 18.914062 34.78125 19.019531 Z M 34.78125 19.019531 "/>
<path style=" stroke:none;fill-rule:nonzero;fill:rgb(90.196078%,90.196078%,90.196078%);fill-opacity:1;" d="M 35.566406 19.019531 L 35.566406 20.6875 C 35.566406 20.789062 35.480469 20.875 35.378906 20.875 L 35.316406 20.875 C 35.210938 20.875 35.128906 20.789062 35.128906 20.6875 L 35.128906 19.019531 C 35.128906 18.914062 35.210938 18.832031 35.316406 18.832031 L 35.378906 18.832031 C 35.480469 18.832031 35.566406 18.914062 35.566406 19.019531 Z M 35.566406 19.019531 "/>
<path style=" stroke:none;fill-rule:nonzero;fill:rgb(90.196078%,90.196078%,90.196078%);fill-opacity:1;" d="M 36.355469 19.015625 L 36.355469 20.683594 C 36.355469 20.789062 36.273438 20.871094 36.167969 20.871094 L 36.105469 20.871094 C 36.003906 20.871094 35.921875 20.789062 35.921875 20.683594 L 35.921875 19.015625 C 35.921875 18.914062 36.003906 18.828125 36.105469 18.828125 L 36.167969 18.828125 C 36.273438 18.828125 36.355469 18.914062 36.355469 19.015625 Z M 36.355469 19.015625 "/>
<path style=" stroke:none;fill-rule:nonzero;fill:rgb(90.196078%,90.196078%,90.196078%);fill-opacity:1;" d="M 37.59375 21.972656 L 37.59375 24.609375 C 37.59375 24.96875 37.304688 25.257812 36.945312 25.257812 L 36.722656 25.257812 C 36.363281 25.257812 36.070312 24.96875 36.070312 24.609375 L 36.070312 21.972656 C 36.070312 21.613281 36.363281 21.324219 36.722656 21.324219 L 36.945312 21.324219 C 37.304688 21.324219 37.59375 21.613281 37.59375 21.972656 Z M 37.59375 21.972656 "/>
<path style=" stroke:none;fill-rule:nonzero;fill:rgb(90.196078%,90.196078%,90.196078%);fill-opacity:1;" d="M 39.273438 22.316406 L 37.605469 22.316406 C 37.503906 22.316406 37.421875 22.234375 37.421875 22.132812 L 37.421875 22.066406 C 37.421875 21.964844 37.503906 21.882812 37.605469 21.882812 L 39.273438 21.882812 C 39.375 21.882812 39.460938 21.964844 39.460938 22.066406 L 39.460938 22.132812 C 39.460938 22.234375 39.375 22.316406 39.273438 22.316406 Z M 39.273438 22.316406 "/>
<path style=" stroke:none;fill-rule:nonzero;fill:rgb(90.196078%,90.196078%,90.196078%);fill-opacity:1;" d="M 39.277344 23.109375 L 37.605469 23.109375 C 37.503906 23.109375 37.421875 23.027344 37.421875 22.925781 L 37.421875 22.859375 C 37.421875 22.757812 37.503906 22.675781 37.605469 22.675781 L 39.277344 22.675781 C 39.378906 22.675781 39.460938 22.757812 39.460938 22.859375 L 39.460938 22.925781 C 39.460938 23.027344 39.378906 23.109375 39.277344 23.109375 Z M 39.277344 23.109375 "/>
<path style=" stroke:none;fill-rule:nonzero;fill:rgb(90.196078%,90.196078%,90.196078%);fill-opacity:1;" d="M 39.277344 23.894531 L 37.605469 23.894531 C 37.503906 23.894531 37.421875 23.8125 37.421875 23.707031 L 37.421875 23.644531 C 37.421875 23.542969 37.503906 23.460938 37.605469 23.460938 L 39.277344 23.460938 C 39.378906 23.460938 39.460938 23.542969 39.460938 23.644531 L 39.460938 23.707031 C 39.460938 23.8125 39.378906 23.894531 39.277344 23.894531 Z M 39.277344 23.894531 "/>
<path style=" stroke:none;fill-rule:nonzero;fill:rgb(90.196078%,90.196078%,90.196078%);fill-opacity:1;" d="M 39.28125 24.683594 L 37.609375 24.683594 C 37.507812 24.683594 37.425781 24.601562 37.425781 24.5 L 37.425781 24.433594 C 37.425781 24.332031 37.507812 24.25 37.609375 24.25 L 39.28125 24.25 C 39.382812 24.25 39.464844 24.332031 39.464844 24.433594 L 39.464844 24.5 C 39.464844 24.601562 39.382812 24.683594 39.28125 24.683594 Z M 39.28125 24.683594 "/>
<path style=" stroke:none;fill-rule:nonzero;fill:rgb(90.196078%,90.196078%,90.196078%);fill-opacity:1;" d="M 32.332031 21.988281 L 32.332031 24.628906 C 32.332031 24.984375 32.625 25.277344 32.980469 25.277344 L 33.207031 25.277344 C 33.5625 25.277344 33.855469 24.984375 33.855469 24.628906 L 33.855469 21.988281 C 33.855469 21.628906 33.5625 21.339844 33.207031 21.339844 L 32.980469 21.339844 C 32.625 21.339844 32.332031 21.628906 32.332031 21.988281 Z M 32.332031 21.988281 "/>
<path style=" stroke:none;fill-rule:nonzero;fill:rgb(90.196078%,90.196078%,90.196078%);fill-opacity:1;" d="M 30.652344 22.332031 L 32.320312 22.332031 C 32.421875 22.332031 32.503906 22.25 32.503906 22.148438 L 32.503906 22.085938 C 32.503906 21.980469 32.421875 21.898438 32.320312 21.898438 L 30.652344 21.898438 C 30.550781 21.898438 30.46875 21.980469 30.46875 22.085938 L 30.46875 22.148438 C 30.46875 22.25 30.550781 22.332031 30.652344 22.332031 Z M 30.652344 22.332031 "/>
<path style=" stroke:none;fill-rule:nonzero;fill:rgb(90.196078%,90.196078%,90.196078%);fill-opacity:1;" d="M 30.648438 23.128906 L 32.320312 23.128906 C 32.421875 23.128906 32.503906 23.042969 32.503906 22.941406 L 32.503906 22.878906 C 32.503906 22.777344 32.421875 22.691406 32.320312 22.691406 L 30.648438 22.691406 C 30.546875 22.691406 30.464844 22.777344 30.464844 22.878906 L 30.464844 22.941406 C 30.464844 23.042969 30.546875 23.128906 30.648438 23.128906 Z M 30.648438 23.128906 "/>
<path style=" stroke:none;fill-rule:nonzero;fill:rgb(90.196078%,90.196078%,90.196078%);fill-opacity:1;" d="M 30.648438 23.910156 L 32.320312 23.910156 C 32.421875 23.910156 32.503906 23.828125 32.503906 23.726562 L 32.503906 23.660156 C 32.503906 23.558594 32.421875 23.476562 32.320312 23.476562 L 30.648438 23.476562 C 30.546875 23.476562 30.464844 23.558594 30.464844 23.660156 L 30.464844 23.726562 C 30.464844 23.828125 30.546875 23.910156 30.648438 23.910156 Z M 30.648438 23.910156 "/>
<path style=" stroke:none;fill-rule:nonzero;fill:rgb(90.196078%,90.196078%,90.196078%);fill-opacity:1;" d="M 30.648438 24.703125 L 32.316406 24.703125 C 32.417969 24.703125 32.5 24.617188 32.5 24.515625 L 32.5 24.453125 C 32.5 24.347656 32.417969 24.265625 32.316406 24.265625 L 30.648438 24.265625 C 30.542969 24.265625 30.460938 24.347656 30.460938 24.453125 L 30.460938 24.515625 C 30.460938 24.617188 30.542969 24.703125 30.648438 24.703125 Z M 30.648438 24.703125 "/>
<path style=" stroke:none;fill-rule:nonzero;fill:rgb(90.196078%,90.196078%,90.196078%);fill-opacity:1;" d="M 33.65625 25.984375 L 36.292969 25.984375 C 36.652344 25.984375 36.945312 25.695312 36.945312 25.335938 L 36.945312 25.113281 C 36.945312 24.753906 36.652344 24.464844 36.292969 24.464844 L 33.65625 24.464844 C 33.296875 24.464844 33.007812 24.753906 33.007812 25.113281 L 33.007812 25.335938 C 33.007812 25.695312 33.296875 25.984375 33.65625 25.984375 Z M 33.65625 25.984375 "/>
<path style=" stroke:none;fill-rule:nonzero;fill:rgb(90.196078%,90.196078%,90.196078%);fill-opacity:1;" d="M 34 27.664062 L 34 26 C 34 25.894531 33.917969 25.8125 33.816406 25.8125 L 33.75 25.8125 C 33.648438 25.8125 33.566406 25.894531 33.566406 26 L 33.566406 27.664062 C 33.566406 27.769531 33.648438 27.851562 33.75 27.851562 L 33.816406 27.851562 C 33.917969 27.851562 34 27.769531 34 27.664062 Z M 34 27.664062 "/>
<path style=" stroke:none;fill-rule:nonzero;fill:rgb(90.196078%,90.196078%,90.196078%);fill-opacity:1;" d="M 34.792969 27.667969 L 34.792969 26 C 34.792969 25.894531 34.710938 25.8125 34.609375 25.8125 L 34.546875 25.8125 C 34.441406 25.8125 34.359375 25.894531 34.359375 26 L 34.359375 27.667969 C 34.359375 27.769531 34.441406 27.855469 34.546875 27.855469 L 34.609375 27.855469 C 34.710938 27.855469 34.792969 27.769531 34.792969 27.667969 Z M 34.792969 27.667969 "/>
<path style=" stroke:none;fill-rule:nonzero;fill:rgb(90.196078%,90.196078%,90.196078%);fill-opacity:1;" d="M 35.578125 27.667969 L 35.578125 26 C 35.578125 25.894531 35.496094 25.8125 35.394531 25.8125 L 35.328125 25.8125 C 35.226562 25.8125 35.144531 25.894531 35.144531 26 L 35.144531 27.667969 C 35.144531 27.769531 35.226562 27.855469 35.328125 27.855469 L 35.394531 27.855469 C 35.496094 27.855469 35.578125 27.769531 35.578125 27.667969 Z M 35.578125 27.667969 "/>
<path style=" stroke:none;fill-rule:nonzero;fill:rgb(90.196078%,90.196078%,90.196078%);fill-opacity:1;" d="M 36.367188 27.671875 L 36.367188 26 C 36.367188 25.898438 36.285156 25.816406 36.183594 25.816406 L 36.121094 25.816406 C 36.015625 25.816406 35.933594 25.898438 35.933594 26 L 35.933594 27.671875 C 35.933594 27.773438 36.015625 27.855469 36.121094 27.855469 L 36.183594 27.855469 C 36.285156 27.855469 36.367188 27.773438 36.367188 27.671875 Z M 36.367188 27.671875 "/>
<path style=" stroke:none;fill-rule:nonzero;fill:rgb(12.941176%,20.784314%,32.941176%);fill-opacity:1;" d="M 32.988281 25.394531 C 32.851562 25.328125 32.859375 25.453125 32.863281 23.316406 L 32.863281 21.363281 L 32.914062 21.3125 C 32.941406 21.28125 32.980469 21.25 33 21.238281 C 33.050781 21.210938 36.875 21.210938 36.925781 21.238281 C 36.945312 21.25 36.984375 21.285156 37.011719 21.3125 L 37.0625 21.367188 L 37.0625 23.3125 C 37.0625 25.4375 37.070312 25.324219 36.941406 25.394531 C 36.859375 25.4375 33.078125 25.441406 32.988281 25.394531 Z M 36.738281 25.054688 C 36.769531 24.984375 36.742188 24.894531 36.683594 24.871094 C 36.53125 24.816406 36.433594 25.03125 36.578125 25.101562 C 36.644531 25.136719 36.710938 25.117188 36.738281 25.054688 Z M 33.382812 25.082031 C 33.433594 25.035156 33.414062 24.917969 33.355469 24.878906 C 33.246094 24.804688 33.128906 24.929688 33.1875 25.058594 C 33.207031 25.097656 33.230469 25.109375 33.285156 25.109375 C 33.324219 25.109375 33.371094 25.097656 33.382812 25.082031 Z M 33.382812 21.738281 C 33.425781 21.695312 33.417969 21.574219 33.367188 21.546875 C 33.273438 21.496094 33.167969 21.550781 33.167969 21.65625 C 33.167969 21.730469 33.207031 21.765625 33.289062 21.765625 C 33.328125 21.765625 33.371094 21.753906 33.382812 21.738281 Z M 36.71875 21.730469 C 36.765625 21.6875 36.765625 21.617188 36.71875 21.566406 C 36.617188 21.453125 36.441406 21.589844 36.523438 21.714844 C 36.566406 21.773438 36.667969 21.785156 36.71875 21.730469 Z M 36.71875 21.730469 "/>
<path style=" stroke:none;fill-rule:evenodd;fill:rgb(97.254902%,87.058824%,40.784314%);fill-opacity:1;" d="M 33.097656 27.285156 L 33.777344 27.285156 L 33.777344 28.148438 L 33.097656 28.148438 Z M 33.097656 27.285156 "/>
<path style=" stroke:none;fill-rule:evenodd;fill:rgb(97.254902%,87.058824%,40.784314%);fill-opacity:1;" d="M 33.398438 26.652344 L 33.480469 26.652344 C 33.644531 26.652344 33.777344 26.785156 33.777344 26.949219 L 33.777344 27.273438 C 33.777344 27.4375 33.644531 27.570312 33.480469 27.570312 L 33.398438 27.570312 C 33.230469 27.570312 33.097656 27.4375 33.097656 27.273438 L 33.097656 26.949219 C 33.097656 26.785156 33.230469 26.652344 33.398438 26.652344 Z M 33.398438 26.652344 "/>
<path style=" stroke:none;fill-rule:evenodd;fill:rgb(97.254902%,87.058824%,40.784314%);fill-opacity:1;" d="M 34.019531 27.285156 L 34.695312 27.285156 L 34.695312 28.148438 L 34.019531 28.148438 Z M 34.019531 27.285156 "/>
<path style=" stroke:none;fill-rule:evenodd;fill:rgb(97.254902%,87.058824%,40.784314%);fill-opacity:1;" d="M 34.316406 26.652344 L 34.398438 26.652344 C 34.5625 26.652344 34.695312 26.785156 34.695312 26.949219 L 34.695312 27.269531 C 34.695312 27.4375 34.5625 27.570312 34.398438 27.570312 L 34.316406 27.570312 C 34.152344 27.570312 34.015625 27.4375 34.015625 27.269531 L 34.015625 26.949219 C 34.015625 26.785156 34.152344 26.652344 34.316406 26.652344 Z M 34.316406 26.652344 "/>
<path style=" stroke:none;fill-rule:evenodd;fill:rgb(97.254902%,87.058824%,40.784314%);fill-opacity:1;" d="M 35.242188 27.285156 L 35.917969 27.285156 L 35.917969 28.148438 L 35.242188 28.148438 Z M 35.242188 27.285156 "/>
<path style=" stroke:none;fill-rule:evenodd;fill:rgb(97.254902%,87.058824%,40.784314%);fill-opacity:1;" d="M 35.539062 26.652344 L 35.621094 26.652344 C 35.785156 26.652344 35.917969 26.785156 35.917969 26.949219 L 35.917969 27.273438 C 35.917969 27.4375 35.785156 27.570312 35.621094 27.570312 L 35.539062 27.570312 C 35.375 27.570312 35.242188 27.4375 35.242188 27.273438 L 35.242188 26.949219 C 35.242188 26.785156 35.375 26.652344 35.539062 26.652344 Z M 35.539062 26.652344 "/>
<path style=" stroke:none;fill-rule:evenodd;fill:rgb(97.254902%,87.058824%,40.784314%);fill-opacity:1;" d="M 36.136719 27.285156 L 36.816406 27.285156 L 36.816406 28.148438 L 36.136719 28.148438 Z M 36.136719 27.285156 "/>
<path style=" stroke:none;fill-rule:evenodd;fill:rgb(97.254902%,87.058824%,40.784314%);fill-opacity:1;" d="M 36.433594 26.652344 L 36.515625 26.652344 C 36.683594 26.652344 36.816406 26.785156 36.816406 26.949219 L 36.816406 27.273438 C 36.816406 27.4375 36.683594 27.570312 36.515625 27.570312 L 36.433594 27.570312 C 36.269531 27.570312 36.136719 27.4375 36.136719 27.273438 L 36.136719 26.949219 C 36.136719 26.785156 36.269531 26.652344 36.433594 26.652344 Z M 36.433594 26.652344 "/>
<path style=" stroke:none;fill-rule:nonzero;fill:rgb(90.196078%,90.196078%,90.196078%);fill-opacity:1;" d="M 16.574219 19.941406 L 16.574219 26.953125 L 17.40625 26.953125 L 17.40625 19.941406 Z M 17.835938 19.941406 L 17.835938 26.953125 L 18.667969 26.953125 L 18.667969 19.941406 Z M 19.101562 19.941406 L 19.101562 26.953125 L 19.9375 26.953125 L 19.9375 19.941406 Z M 20.402344 19.941406 L 20.402344 26.953125 L 21.234375 26.953125 L 21.234375 19.941406 Z M 21.691406 19.941406 L 21.691406 26.953125 L 22.527344 26.953125 L 22.527344 19.941406 Z M 21.691406 19.941406 "/>
</g>
</svg>
