
<svg xmlns="http://www.w3.org/2000/svg" xmlns:xlink="http://www.w3.org/1999/xlink" width="48px" height="48px" viewBox="0 0 48 48" version="1.1">
<g id="surface1">
<path style="fill-rule:nonzero;fill:rgb(100%,100%,100%);fill-opacity:1;stroke-width:27.910587;stroke-linecap:butt;stroke-linejoin:miter;stroke:rgb(9.019608%,36.078431%,60%);stroke-opacity:1;stroke-miterlimit:4;" d="M 83.208333 27.416667 L 428.791667 27.416667 C 459.625 27.416667 484.583333 52.375 484.583333 83.208333 L 484.583333 428.791667 C 484.583333 459.625 459.625 484.583333 428.791667 484.583333 L 83.208333 484.583333 C 52.375 484.583333 27.416667 459.625 27.416667 428.791667 L 27.416667 83.208333 C 27.416667 52.375 52.375 27.416667 83.208333 27.416667 Z M 83.208333 27.416667 " transform="matrix(0.09375,0,0,0.09375,0,0)"/>
<path style=" stroke:none;fill-rule:nonzero;fill:rgb(12.941176%,39.607843%,69.019608%);fill-opacity:1;" d="M 38.34375 6.257812 L 29.5 10.035156 L 29.5 25.320312 C 29.511719 28.519531 38.34375 27.808594 38.34375 25.488281 Z M 38.34375 6.257812 "/>
<path style=" stroke:none;fill-rule:nonzero;fill:rgb(12.941176%,39.607843%,69.019608%);fill-opacity:1;" d="M 16.234375 16.59375 L 7.390625 20.523438 L 7.390625 25.914062 C 7.390625 28.226562 7.691406 30.347656 8.292969 32.265625 C 8.890625 34.183594 9.816406 35.835938 11.074219 37.21875 C 12.136719 38.394531 13.449219 39.351562 15.003906 40.089844 L 17.199219 40.78125 C 24.265625 40.027344 26.777344 34.976562 27.582031 33.386719 L 27.789062 32.871094 C 26.542969 34.183594 24.800781 35 22.867188 35 C 19.054688 35 16.234375 31.84375 16.234375 27.925781 Z M 16.234375 16.59375 "/>
<path style=" stroke:none;fill-rule:nonzero;fill:rgb(49.411765%,75.686275%,51.372549%);fill-opacity:1;" d="M 29.496094 11.589844 L 29.496094 12.414062 C 29.496094 12.425781 29.5 12.4375 29.5 12.449219 L 29.5 27.925781 C 29.5 29.933594 28.933594 31.734375 27.632812 33.019531 C 27.683594 32.96875 27.738281 32.921875 27.789062 32.871094 L 27.582031 33.386719 C 26.777344 34.976562 23.085938 39.3125 16.023438 40.0625 L 15.109375 40.085938 C 15.332031 40.222656 15.574219 40.351562 15.851562 40.464844 C 17.78125 41.242188 20.074219 41.632812 22.730469 41.632812 L 22.722656 41.621094 C 25.421875 41.621094 27.75 41.25 29.714844 40.488281 C 31.679688 39.730469 33.296875 38.65625 34.574219 37.269531 C 35.847656 35.886719 36.792969 34.226562 37.414062 32.292969 C 38.03125 30.359375 38.339844 28.230469 38.339844 25.910156 L 38.339844 23.144531 C 37.769531 17.871094 32.992188 13.011719 29.496094 11.589844 Z M 27.578125 33.074219 C 27.410156 33.234375 27.234375 33.386719 27.054688 33.53125 C 27.234375 33.386719 27.410156 33.234375 27.578125 33.074219 Z M 27.578125 33.074219 "/>
</g>
</svg>
