
<svg xmlns="http://www.w3.org/2000/svg" xmlns:xlink="http://www.w3.org/1999/xlink" width="48px" height="48px" viewBox="0 0 48 48" version="1.1">
<g id="surface1">
<path style="fill-rule:nonzero;fill:rgb(100%,100%,100%);fill-opacity:1;stroke-width:27.478176;stroke-linecap:butt;stroke-linejoin:miter;stroke:rgb(100%,80%,0%);stroke-opacity:1;stroke-miterlimit:4;" d="M 85.875 30.958333 L 426.125 30.958333 C 456.458333 30.958333 481.041667 55.541667 481.041667 85.875 L 481.041667 426.125 C 481.041667 456.458333 456.458333 481.041667 426.125 481.041667 L 85.875 481.041667 C 55.541667 481.041667 30.958333 456.458333 30.958333 426.125 L 30.958333 85.875 C 30.958333 55.541667 55.541667 30.958333 85.875 30.958333 Z M 85.875 30.958333 " transform="matrix(0.09375,0,0,0.09375,0,0)"/>
<path style=" stroke:none;fill-rule:nonzero;fill:rgb(100%,80%,0%);fill-opacity:1;" d="M 24.21875 39.628906 C 24.761719 39.617188 25.4375 39.574219 26.339844 39.46875 C 29.585938 39.09375 31.269531 37.789062 32.019531 37.351562 C 32.769531 36.914062 35.390625 34.546875 35.390625 31.484375 L 35.390625 13.742188 L 36.175781 13.742188 C 36.457031 13.746094 36.734375 13.648438 36.878906 13.5 C 37.019531 13.347656 37.023438 13.152344 36.878906 13.003906 L 32.75 8.625 C 32.617188 8.484375 32.359375 8.386719 32.089844 8.378906 C 32.0625 8.375 32.039062 8.375 32.011719 8.371094 C 32.007812 8.371094 32.003906 8.371094 32.003906 8.371094 C 31.734375 8.378906 31.476562 8.476562 31.339844 8.617188 L 27.203125 12.992188 C 27.054688 13.144531 27.050781 13.34375 27.195312 13.496094 C 27.335938 13.648438 27.621094 13.746094 27.910156 13.742188 L 28.648438 13.742188 L 28.648438 32.226562 C 28.648438 33.414062 28.527344 34.296875 27.652344 35.542969 C 26.894531 36.625 25.0625 36.859375 24.21875 36.902344 L 23.78125 36.902344 C 22.9375 36.859375 21.105469 36.625 20.347656 35.542969 C 19.472656 34.296875 19.351562 33.414062 19.351562 32.226562 L 19.351562 13.742188 L 20.089844 13.742188 C 20.378906 13.746094 20.664062 13.648438 20.804688 13.496094 C 20.949219 13.34375 20.945312 13.144531 20.796875 12.992188 L 16.660156 8.617188 C 16.523438 8.472656 16.261719 8.378906 15.988281 8.371094 C 15.960938 8.375 15.9375 8.375 15.910156 8.378906 C 15.640625 8.386719 15.382812 8.484375 15.25 8.625 L 11.121094 13.003906 C 10.976562 13.152344 10.980469 13.347656 11.121094 13.5 C 11.265625 13.648438 11.542969 13.746094 11.824219 13.742188 L 12.609375 13.742188 L 12.609375 31.484375 C 12.609375 34.546875 15.230469 36.914062 15.980469 37.351562 C 16.730469 37.789062 18.414062 39.09375 21.660156 39.46875 C 22.5625 39.574219 23.238281 39.617188 23.78125 39.628906 Z M 24.21875 39.628906 "/>
</g>
</svg>
