
<svg xmlns="http://www.w3.org/2000/svg" xmlns:xlink="http://www.w3.org/1999/xlink" width="48px" height="48px" viewBox="0 0 48 48" version="1.1">
<g id="surface1">
<path style=" stroke:none;fill-rule:nonzero;fill:rgb(100%,100%,100%);fill-opacity:1;" d="M 45.253906 24 C 45.253906 35.449219 36.1875 44.839844 24.746094 45.242188 C 13.304688 45.640625 3.601562 36.910156 2.796875 25.488281 C 1.996094 14.066406 10.382812 4.066406 21.769531 2.863281 C 33.15625 1.660156 43.445312 9.695312 45.046875 21.03125 "/>
<path style=" stroke:none;fill-rule:evenodd;fill:rgb(20.784314%,78.039216%,43.921569%);fill-opacity:1;" d="M 24.023438 9.8125 C 23.945312 9.8125 23.867188 9.816406 23.789062 9.820312 C 21.394531 10.007812 20.050781 12.921875 21.058594 16.128906 C 19.835938 14.066406 18.242188 12.488281 16.230469 12.503906 C 16.066406 12.503906 15.902344 12.515625 15.734375 12.539062 C 13.324219 12.859375 12.988281 15.882812 15.511719 17.296875 C 16.058594 17.601562 16.597656 17.972656 17.121094 18.382812 C 16.242188 17.890625 15.351562 17.585938 14.484375 17.585938 C 13.898438 17.585938 13.328125 17.726562 12.78125 18.046875 C 11.035156 19.066406 11.628906 21.425781 13.851562 21.898438 C 13.257812 22.046875 12.71875 22.339844 12.269531 22.820312 C 10.859375 24.308594 12.238281 26.46875 14.644531 26.054688 C 14.867188 26.019531 15.09375 25.988281 15.324219 25.96875 C 14.75 26.226562 14.289062 26.632812 14 27.226562 C 13.292969 28.6875 14.851562 29.988281 16.566406 29.101562 C 17.902344 28.414062 19.644531 28.085938 21.140625 27.925781 L 21.382812 28.0625 L 21.121094 28.207031 C 21.121094 28.207031 21.121094 28.210938 21.121094 28.210938 L 21.5 28.84375 L 21.121094 29.472656 C 21.121094 29.472656 21.121094 29.476562 21.121094 29.476562 L 21.382812 29.621094 L 21.121094 29.765625 C 21.121094 29.769531 21.121094 29.769531 21.121094 29.769531 L 21.5 30.402344 L 21.121094 31.03125 C 21.121094 31.035156 21.121094 31.035156 21.121094 31.035156 L 21.382812 31.179688 L 21.121094 31.328125 C 21.121094 31.328125 21.121094 31.328125 21.121094 31.332031 L 21.5 31.960938 L 21.121094 32.589844 C 21.121094 32.59375 21.121094 32.59375 21.121094 32.59375 L 21.382812 32.742188 L 21.121094 32.886719 C 21.121094 32.886719 21.121094 32.886719 21.121094 32.890625 L 21.5 33.519531 L 21.121094 34.152344 C 21.121094 34.152344 21.121094 34.152344 21.121094 34.15625 L 21.382812 34.300781 L 21.121094 34.445312 C 21.121094 34.445312 21.121094 34.449219 21.121094 34.449219 L 21.5 35.078125 L 21.121094 35.710938 C 21.121094 35.710938 21.121094 35.714844 21.121094 35.714844 L 21.382812 35.859375 L 21.121094 36.003906 C 21.121094 36.007812 21.121094 36.007812 21.121094 36.007812 L 21.5 36.640625 L 21.121094 37.269531 C 21.121094 37.273438 21.121094 37.273438 21.121094 37.273438 L 21.382812 37.417969 L 21.121094 37.566406 C 21.121094 37.566406 21.121094 37.566406 21.121094 37.570312 L 21.5 38.199219 L 21.445312 38.292969 L 26.488281 38.292969 L 26.429688 38.199219 L 26.808594 37.570312 C 26.808594 37.566406 26.808594 37.566406 26.808594 37.566406 L 26.546875 37.417969 L 26.808594 37.273438 C 26.808594 37.273438 26.808594 37.273438 26.808594 37.269531 L 26.429688 36.640625 L 26.808594 36.007812 C 26.808594 36.007812 26.808594 36.007812 26.808594 36.003906 L 26.546875 35.859375 L 26.808594 35.714844 C 26.808594 35.714844 26.808594 35.710938 26.808594 35.710938 L 26.429688 35.078125 L 26.808594 34.449219 C 26.808594 34.449219 26.808594 34.445312 26.808594 34.445312 L 26.546875 34.300781 L 26.808594 34.15625 C 26.808594 34.152344 26.808594 34.152344 26.808594 34.152344 L 26.429688 33.519531 L 26.808594 32.890625 C 26.808594 32.886719 26.808594 32.886719 26.808594 32.886719 L 26.546875 32.742188 L 26.808594 32.59375 C 26.808594 32.59375 26.808594 32.59375 26.808594 32.589844 L 26.429688 31.960938 L 26.808594 31.332031 C 26.808594 31.328125 26.808594 31.328125 26.808594 31.328125 L 26.546875 31.179688 L 26.808594 31.035156 C 26.808594 31.035156 26.808594 31.035156 26.808594 31.03125 L 26.429688 30.402344 L 26.808594 29.769531 C 26.808594 29.769531 26.808594 29.769531 26.808594 29.765625 L 26.546875 29.621094 L 26.808594 29.476562 C 26.808594 29.476562 26.808594 29.472656 26.808594 29.472656 L 26.429688 28.84375 L 26.808594 28.210938 C 26.808594 28.210938 26.808594 28.207031 26.808594 28.207031 L 26.546875 28.0625 L 26.800781 27.921875 C 28.3125 28.078125 30.078125 28.402344 31.433594 29.101562 C 33.148438 29.988281 34.707031 28.6875 34 27.226562 C 33.710938 26.632812 33.25 26.226562 32.675781 25.96875 C 32.90625 25.988281 33.132812 26.019531 33.355469 26.054688 C 35.761719 26.46875 37.140625 24.308594 35.730469 22.820312 C 35.28125 22.339844 34.742188 22.046875 34.148438 21.898438 C 36.371094 21.421875 36.964844 19.066406 35.21875 18.046875 C 33.871094 17.253906 32.355469 17.554688 30.882812 18.382812 C 31.402344 17.96875 31.941406 17.601562 32.488281 17.296875 C 35.011719 15.882812 34.675781 12.859375 32.265625 12.539062 C 29.875 12.21875 28.042969 14.121094 26.695312 16.558594 C 27.84375 12.671875 26.257812 9.832031 24.023438 9.8125 Z M 24.023438 9.8125 "/>
<path style=" stroke:none;fill-rule:evenodd;fill:rgb(22.745098%,77.254902%,90.196078%);fill-opacity:1;" d="M 16.363281 5.539062 C 8.921875 8.625 4.070312 15.886719 4.066406 23.945312 C 4.074219 34.207031 11.871094 42.78125 22.085938 43.765625 L 22.085938 39.929688 C 13.988281 38.960938 7.894531 32.097656 7.886719 23.945312 C 7.894531 18.023438 11.148438 12.582031 16.363281 9.773438 Z M 31.636719 5.550781 L 31.636719 9.761719 C 36.855469 12.570312 40.109375 18.019531 40.113281 23.945312 C 40.101562 32.09375 34.007812 38.953125 25.914062 39.921875 L 25.914062 43.78125 C 36.132812 42.796875 43.933594 34.210938 43.933594 23.945312 C 43.925781 15.890625 39.074219 8.636719 31.636719 5.550781 Z M 31.636719 5.550781 "/>
</g>
</svg>
