
<svg xmlns="http://www.w3.org/2000/svg" xmlns:xlink="http://www.w3.org/1999/xlink" width="48px" height="48px" viewBox="0 0 48 48" version="1.1">
<g id="surface1">
<path style=" stroke:none;fill-rule:evenodd;fill:rgb(80%,61.176471%,41.960784%);fill-opacity:1;" d="M 7.171875 2.296875 L 40.828125 2.296875 C 43.523438 2.296875 45.703125 4.480469 45.703125 7.171875 L 45.703125 40.828125 C 45.703125 43.523438 43.523438 45.703125 40.828125 45.703125 L 7.171875 45.703125 C 4.476562 45.703125 2.296875 43.523438 2.296875 40.828125 L 2.296875 7.171875 C 2.296875 4.480469 4.476562 2.296875 7.171875 2.296875 Z M 7.171875 2.296875 "/>
<path style=" stroke:none;fill-rule:nonzero;fill:rgb(0%,0%,0%);fill-opacity:0.25098;" d="M 13.089844 9.949219 C 13.089844 11.140625 12.121094 12.105469 10.929688 12.105469 C 9.738281 12.105469 8.769531 11.140625 8.769531 9.949219 C 8.769531 8.757812 9.738281 7.789062 10.929688 7.789062 C 12.121094 7.789062 13.089844 8.757812 13.089844 9.949219 M 13.089844 9.949219 "/>
<path style=" stroke:none;fill-rule:nonzero;fill:rgb(0%,0%,0%);fill-opacity:0.25098;" d="M 39.226562 10.097656 C 39.226562 11.289062 38.261719 12.257812 37.070312 12.257812 C 35.878906 12.257812 34.910156 11.292969 34.910156 10.097656 C 34.910156 8.90625 35.878906 7.941406 37.070312 7.941406 C 38.261719 7.941406 39.226562 8.90625 39.226562 10.097656 M 39.226562 10.097656 "/>
<path style=" stroke:none;fill-rule:nonzero;fill:rgb(100%,100%,100%);fill-opacity:1;" d="M 46.871094 32.628906 C 46.871094 40.15625 40.910156 46.332031 33.386719 46.59375 C 25.867188 46.859375 19.488281 41.117188 18.960938 33.609375 C 18.433594 26.101562 23.945312 19.523438 31.433594 18.734375 C 38.917969 17.941406 45.683594 23.222656 46.734375 30.675781 "/>
<path style=" stroke:none;fill-rule:evenodd;fill:rgb(20.784314%,78.039216%,43.921569%);fill-opacity:1;" d="M 32.914062 23.300781 C 32.863281 23.300781 32.8125 23.304688 32.757812 23.308594 C 31.1875 23.429688 30.304688 25.347656 30.964844 27.453125 C 30.160156 26.097656 29.113281 25.0625 27.789062 25.070312 C 27.683594 25.070312 27.574219 25.078125 27.464844 25.09375 C 25.882812 25.304688 25.660156 27.292969 27.316406 28.222656 C 27.679688 28.421875 28.03125 28.664062 28.375 28.9375 C 27.796875 28.613281 27.210938 28.410156 26.644531 28.410156 C 26.257812 28.410156 25.882812 28.503906 25.523438 28.714844 C 24.375 29.386719 24.765625 30.9375 26.226562 31.246094 C 25.835938 31.34375 25.484375 31.539062 25.183594 31.851562 C 24.257812 32.832031 25.167969 34.25 26.746094 33.980469 C 26.894531 33.957031 27.042969 33.9375 27.195312 33.921875 C 26.816406 34.09375 26.515625 34.359375 26.324219 34.75 C 25.859375 35.710938 26.882812 36.566406 28.011719 35.984375 C 28.890625 35.53125 30.035156 35.316406 31.019531 35.210938 L 31.179688 35.300781 L 31.007812 35.394531 C 31.003906 35.394531 31.003906 35.398438 31.007812 35.398438 L 31.253906 35.8125 L 31.007812 36.226562 C 31.003906 36.226562 31.003906 36.230469 31.007812 36.230469 L 31.179688 36.324219 L 31.007812 36.421875 C 31.003906 36.421875 31.003906 36.421875 31.007812 36.421875 L 31.253906 36.839844 L 31.007812 37.253906 C 31.003906 37.253906 31.003906 37.253906 31.007812 37.253906 L 31.179688 37.351562 L 31.007812 37.445312 C 31.003906 37.445312 31.003906 37.449219 31.007812 37.449219 L 31.253906 37.863281 L 31.007812 38.277344 C 31.003906 38.277344 31.003906 38.28125 31.007812 38.28125 L 31.179688 38.375 L 31.007812 38.472656 C 31.003906 38.472656 31.003906 38.472656 31.007812 38.472656 L 31.253906 38.890625 L 31.007812 39.304688 C 31.003906 39.304688 31.003906 39.304688 31.007812 39.304688 L 31.179688 39.402344 L 31.007812 39.496094 C 31.003906 39.496094 31.003906 39.5 31.007812 39.5 L 31.253906 39.914062 L 31.007812 40.328125 C 31.003906 40.328125 31.003906 40.332031 31.007812 40.332031 L 31.179688 40.425781 L 31.007812 40.523438 C 31.003906 40.523438 31.003906 40.523438 31.007812 40.523438 L 31.253906 40.9375 L 31.007812 41.355469 C 31.003906 41.355469 31.003906 41.355469 31.007812 41.355469 L 31.179688 41.453125 L 31.007812 41.546875 C 31.003906 41.546875 31.003906 41.550781 31.007812 41.550781 L 31.253906 41.964844 L 31.21875 42.027344 L 34.535156 42.027344 L 34.496094 41.964844 L 34.746094 41.550781 C 34.746094 41.550781 34.746094 41.546875 34.746094 41.546875 L 34.574219 41.453125 L 34.746094 41.355469 L 34.496094 40.9375 L 34.746094 40.523438 L 34.574219 40.425781 L 34.746094 40.332031 C 34.746094 40.332031 34.746094 40.328125 34.746094 40.328125 L 34.496094 39.914062 L 34.746094 39.5 C 34.746094 39.5 34.746094 39.496094 34.746094 39.496094 L 34.574219 39.402344 L 34.746094 39.304688 L 34.496094 38.886719 L 34.746094 38.472656 L 34.574219 38.375 L 34.746094 38.28125 C 34.746094 38.28125 34.746094 38.277344 34.746094 38.277344 L 34.496094 37.863281 L 34.746094 37.449219 C 34.746094 37.449219 34.746094 37.445312 34.746094 37.445312 L 34.574219 37.351562 L 34.746094 37.253906 L 34.496094 36.839844 L 34.746094 36.421875 L 34.574219 36.324219 L 34.746094 36.230469 C 34.746094 36.230469 34.746094 36.226562 34.746094 36.226562 L 34.496094 35.8125 L 34.746094 35.398438 C 34.746094 35.398438 34.746094 35.394531 34.746094 35.394531 L 34.574219 35.300781 L 34.742188 35.207031 C 35.734375 35.3125 36.894531 35.523438 37.785156 35.984375 C 38.914062 36.566406 39.9375 35.710938 39.472656 34.75 C 39.28125 34.359375 38.980469 34.09375 38.601562 33.921875 C 38.753906 33.9375 38.902344 33.957031 39.050781 33.980469 C 40.628906 34.25 41.539062 32.832031 40.613281 31.851562 C 40.3125 31.539062 39.960938 31.34375 39.570312 31.246094 C 41.03125 30.9375 41.421875 29.386719 40.273438 28.714844 C 39.386719 28.195312 38.390625 28.394531 37.421875 28.933594 C 37.765625 28.664062 38.121094 28.421875 38.480469 28.222656 C 40.136719 27.292969 39.917969 25.304688 38.332031 25.09375 C 36.761719 24.882812 35.554688 26.132812 34.667969 27.738281 C 35.425781 25.179688 34.382812 23.316406 32.914062 23.300781 Z M 32.914062 23.300781 "/>
<path style=" stroke:none;fill-rule:evenodd;fill:rgb(22.745098%,77.254902%,90.196078%);fill-opacity:1;" d="M 27.878906 20.492188 C 22.984375 22.519531 19.792969 27.296875 19.792969 32.59375 C 19.800781 39.339844 24.925781 44.976562 31.640625 45.625 L 31.640625 43.101562 C 26.316406 42.464844 22.308594 37.953125 22.304688 32.59375 C 22.308594 28.699219 24.449219 25.121094 27.878906 23.277344 Z M 37.917969 20.5 L 37.917969 23.269531 C 41.351562 25.117188 43.492188 28.695312 43.492188 32.59375 C 43.484375 37.953125 39.476562 42.460938 34.15625 43.097656 L 34.15625 45.636719 C 40.875 44.988281 46.003906 39.34375 46.003906 32.59375 C 46 27.300781 42.808594 22.527344 37.917969 20.5 Z M 37.917969 20.5 "/>
<path style=" stroke:none;fill-rule:nonzero;fill:rgb(40%,40%,40%);fill-opacity:1;" d="M 10.589844 11.339844 C 14.910156 34.367188 33.617188 34.367188 37.929688 11.339844 C 38.234375 9.40625 36.90625 9.367188 36.496094 11.339844 C 33.617188 32.320312 14.910156 32.207031 12.03125 11.339844 C 11.765625 9.445312 10.332031 9.523438 10.597656 11.339844 M 10.597656 11.339844 "/>
</g>
</svg>
