
<svg xmlns="http://www.w3.org/2000/svg" xmlns:xlink="http://www.w3.org/1999/xlink" width="48px" height="48px" viewBox="0 0 48 48" version="1.1">
<g id="surface1">
<path style=" stroke:none;fill-rule:nonzero;fill:rgb(22.745098%,77.254902%,90.196078%);fill-opacity:1;" d="M 7.277344 2.0625 L 40.941406 2.0625 C 43.824219 2.0625 46.160156 4.398438 46.160156 7.277344 L 46.160156 40.941406 C 46.160156 43.824219 43.824219 46.160156 40.941406 46.160156 L 7.277344 46.160156 C 4.398438 46.160156 2.0625 43.824219 2.0625 40.941406 L 2.0625 7.277344 C 2.0625 4.398438 4.398438 2.0625 7.277344 2.0625 Z M 7.277344 2.0625 "/>
<path style=" stroke:none;fill-rule:nonzero;fill:rgb(100%,100%,100%);fill-opacity:1;" d="M 44.714844 24 C 44.714844 35.15625 35.878906 44.3125 24.726562 44.703125 C 13.574219 45.09375 4.117188 36.582031 3.335938 25.449219 C 2.554688 14.320312 10.730469 4.570312 21.824219 3.398438 C 32.921875 2.226562 42.953125 10.058594 44.511719 21.105469 "/>
<path style=" stroke:none;fill-rule:evenodd;fill:rgb(20.784314%,78.039216%,43.921569%);fill-opacity:1;" d="M 24.023438 10.171875 C 23.945312 10.171875 23.871094 10.175781 23.792969 10.179688 C 21.460938 10.363281 20.152344 13.203125 21.132812 16.328125 C 19.941406 14.320312 18.386719 12.78125 16.425781 12.796875 C 16.269531 12.796875 16.109375 12.808594 15.945312 12.828125 C 13.597656 13.144531 13.265625 16.089844 15.726562 17.464844 C 16.261719 17.765625 16.785156 18.125 17.296875 18.523438 C 16.441406 18.046875 15.570312 17.746094 14.726562 17.746094 C 14.15625 17.746094 13.597656 17.886719 13.066406 18.195312 C 11.363281 19.191406 11.941406 21.488281 14.109375 21.949219 C 13.53125 22.097656 13.007812 22.382812 12.566406 22.847656 C 11.191406 24.300781 12.539062 26.40625 14.878906 26.003906 C 15.097656 25.964844 15.320312 25.9375 15.542969 25.917969 C 14.984375 26.171875 14.535156 26.566406 14.253906 27.144531 C 13.566406 28.566406 15.085938 29.835938 16.757812 28.972656 C 18.058594 28.300781 19.753906 27.984375 21.210938 27.828125 L 21.449219 27.960938 L 21.195312 28.101562 C 21.195312 28.101562 21.195312 28.101562 21.195312 28.105469 L 21.5625 28.71875 L 21.195312 29.332031 C 21.195312 29.335938 21.195312 29.335938 21.195312 29.335938 L 21.449219 29.480469 L 21.195312 29.621094 C 21.195312 29.621094 21.195312 29.621094 21.195312 29.625 L 21.5625 30.238281 L 21.195312 30.855469 L 21.449219 31 L 21.195312 31.140625 C 21.195312 31.140625 21.195312 31.144531 21.195312 31.144531 L 21.5625 31.757812 L 21.195312 32.375 L 21.449219 32.519531 L 21.195312 32.660156 C 21.195312 32.660156 21.195312 32.664062 21.195312 32.664062 L 21.5625 33.277344 L 21.195312 33.894531 C 21.195312 33.894531 21.195312 33.894531 21.195312 33.898438 L 21.449219 34.039062 L 21.195312 34.179688 C 21.195312 34.179688 21.195312 34.183594 21.195312 34.183594 L 21.5625 34.800781 L 21.195312 35.414062 C 21.195312 35.414062 21.195312 35.417969 21.195312 35.417969 L 21.449219 35.558594 L 21.195312 35.699219 C 21.195312 35.703125 21.195312 35.703125 21.195312 35.703125 L 21.5625 36.320312 L 21.195312 36.933594 C 21.195312 36.933594 21.195312 36.9375 21.195312 36.9375 L 21.449219 37.078125 L 21.195312 37.222656 L 21.5625 37.839844 L 21.507812 37.929688 L 26.421875 37.929688 L 26.371094 37.839844 L 26.738281 37.222656 L 26.480469 37.078125 L 26.738281 36.9375 C 26.738281 36.9375 26.738281 36.933594 26.738281 36.933594 L 26.371094 36.320312 L 26.738281 35.703125 C 26.738281 35.703125 26.738281 35.703125 26.738281 35.699219 L 26.480469 35.558594 L 26.738281 35.417969 C 26.738281 35.417969 26.738281 35.414062 26.738281 35.414062 L 26.371094 34.800781 L 26.738281 34.183594 C 26.738281 34.183594 26.738281 34.179688 26.738281 34.179688 L 26.480469 34.039062 L 26.738281 33.898438 C 26.738281 33.894531 26.738281 33.894531 26.738281 33.894531 L 26.371094 33.277344 L 26.738281 32.664062 C 26.738281 32.664062 26.738281 32.660156 26.738281 32.660156 L 26.480469 32.519531 L 26.738281 32.375 L 26.371094 31.757812 L 26.738281 31.144531 C 26.738281 31.144531 26.738281 31.140625 26.738281 31.140625 L 26.480469 31 L 26.738281 30.855469 L 26.371094 30.238281 L 26.738281 29.625 C 26.738281 29.621094 26.738281 29.621094 26.738281 29.621094 L 26.480469 29.480469 L 26.738281 29.335938 C 26.738281 29.335938 26.738281 29.335938 26.738281 29.332031 L 26.371094 28.71875 L 26.738281 28.105469 C 26.738281 28.101562 26.738281 28.101562 26.738281 28.101562 L 26.480469 27.960938 L 26.730469 27.820312 C 28.203125 27.976562 29.925781 28.292969 31.242188 28.972656 C 32.914062 29.835938 34.433594 28.566406 33.746094 27.144531 C 33.464844 26.566406 33.015625 26.171875 32.457031 25.917969 C 32.679688 25.9375 32.902344 25.964844 33.121094 26.003906 C 35.460938 26.40625 36.808594 24.300781 35.433594 22.847656 C 34.992188 22.382812 34.46875 22.097656 33.890625 21.949219 C 36.058594 21.488281 36.636719 19.191406 34.933594 18.195312 C 33.621094 17.425781 32.140625 17.71875 30.707031 18.523438 C 31.214844 18.125 31.738281 17.765625 32.273438 17.464844 C 34.734375 16.089844 34.402344 13.144531 32.054688 12.828125 C 29.726562 12.519531 27.9375 14.371094 26.625 16.75 C 27.746094 12.957031 26.199219 10.191406 24.023438 10.171875 Z M 24.023438 10.171875 "/>
<path style=" stroke:none;fill-rule:evenodd;fill:rgb(22.745098%,77.254902%,90.196078%);fill-opacity:1;" d="M 16.554688 6.007812 C 9.304688 9.015625 4.574219 16.09375 4.570312 23.945312 C 4.582031 33.945312 12.179688 42.304688 22.132812 43.265625 L 22.132812 39.527344 C 14.242188 38.582031 8.300781 31.890625 8.296875 23.945312 C 8.300781 18.175781 11.472656 12.871094 16.554688 10.132812 Z M 31.445312 6.019531 L 31.445312 10.125 C 36.527344 12.863281 39.703125 18.171875 39.703125 23.945312 C 39.695312 31.890625 33.753906 38.574219 25.867188 39.519531 L 25.867188 43.28125 C 35.824219 42.320312 43.425781 33.953125 43.429688 23.945312 C 43.421875 16.097656 38.691406 9.023438 31.445312 6.019531 Z M 31.445312 6.019531 "/>
</g>
</svg>
