
<svg xmlns="http://www.w3.org/2000/svg" xmlns:xlink="http://www.w3.org/1999/xlink" width="48px" height="48px" viewBox="0 0 48 48" version="1.1">
<g id="surface1">
<path style=" stroke:none;fill-rule:nonzero;fill:rgb(38.039216%,47.058824%,49.803922%);fill-opacity:1;" d="M 13.714844 11.03125 L 27.449219 11.03125 L 27.449219 2.449219 L 13.714844 2.449219 Z M 13.714844 11.03125 "/>
<path style=" stroke:none;fill-rule:nonzero;fill:rgb(100%,100%,100%);fill-opacity:0.654902;" d="M 15.703125 7.871094 L 19.136719 7.871094 L 19.136719 4.4375 L 15.703125 4.4375 Z M 15.703125 7.871094 "/>
<path style=" stroke:none;fill-rule:nonzero;fill:rgb(0.784314%,20%,23.921569%);fill-opacity:0.654902;" d="M 15.433594 7.601562 L 18.867188 7.601562 L 18.867188 4.167969 L 15.433594 4.167969 Z M 15.433594 7.601562 "/>
<path style=" stroke:none;fill-rule:nonzero;fill:rgb(100%,100%,100%);fill-opacity:0.654902;" d="M 22.570312 7.871094 L 26.003906 7.871094 L 26.003906 4.4375 L 22.570312 4.4375 Z M 22.570312 7.871094 "/>
<path style=" stroke:none;fill-rule:nonzero;fill:rgb(0.784314%,20%,23.921569%);fill-opacity:0.654902;" d="M 22.300781 7.601562 L 25.734375 7.601562 L 25.734375 4.167969 L 22.300781 4.167969 Z M 22.300781 7.601562 "/>
<path style="fill-rule:nonzero;fill:rgb(13.72549%,68.235294%,87.058824%);fill-opacity:1;stroke-width:9.766254;stroke-linecap:butt;stroke-linejoin:miter;stroke:rgb(13.72549%,68.235294%,87.058824%);stroke-opacity:1;stroke-miterlimit:4;" d="M 118.833333 122.583333 L 320.291667 122.583333 C 328.583333 122.583333 335.333333 129.291667 335.333333 137.625 L 335.333333 473.791667 C 335.333333 482.083333 328.583333 488.833333 320.291667 488.833333 L 118.833333 488.833333 C 110.5 488.833333 103.791667 482.083333 103.791667 473.791667 L 103.791667 137.625 C 103.791667 129.291667 110.5 122.583333 118.833333 122.583333 Z M 118.833333 122.583333 " transform="matrix(0.09375,0,0,0.09375,0,0)"/>
<path style=" stroke:none;fill-rule:nonzero;fill:rgb(92.156863%,94.117647%,94.117647%);fill-opacity:1;" d="M 23.433594 21.0625 L 23.433594 18.257812 L 26.25 18.257812 L 26.25 21.0625 Z M 23.433594 21.0625 "/>
<path style=" stroke:none;fill-rule:nonzero;fill:rgb(92.156863%,94.117647%,94.117647%);fill-opacity:1;" d="M 20.851562 31.664062 C 21.90625 31.664062 22.761719 32.519531 22.761719 33.574219 C 22.761719 34.628906 21.90625 35.484375 20.851562 35.484375 C 19.792969 35.484375 18.9375 34.628906 18.9375 33.574219 C 18.9375 32.519531 19.792969 31.664062 20.851562 31.664062 Z M 20.851562 31.664062 "/>
<path style=" stroke:none;fill-rule:nonzero;fill:rgb(92.156863%,94.117647%,94.117647%);fill-opacity:1;" d="M 17.265625 20.726562 C 18.199219 20.726562 18.957031 21.480469 18.957031 22.417969 C 18.957031 23.351562 18.199219 24.109375 17.265625 24.109375 C 16.328125 24.109375 15.570312 23.351562 15.570312 22.417969 C 15.570312 21.480469 16.328125 20.726562 17.265625 20.726562 Z M 17.265625 20.726562 "/>
<path style=" stroke:none;fill-rule:evenodd;fill:rgb(92.156863%,94.117647%,94.117647%);fill-opacity:1;" d="M 19.34375 16.5625 C 19.34375 16.5625 20.851562 13.15625 20.890625 13.207031 C 20.925781 13.257812 22.386719 16.5625 22.386719 16.5625 Z M 19.34375 16.5625 "/>
<path style="fill:none;stroke-width:5.573362;stroke-linecap:butt;stroke-linejoin:miter;stroke:rgb(92.156863%,94.117647%,94.117647%);stroke-opacity:1;stroke-miterlimit:2.012602;" d="M 222.333333 327.875 C 219.583333 302.208333 182.333333 289.5 182.25 274.583333 C 182.166667 264.5 182.625 260.083333 182.541667 247.291667 " transform="matrix(0.09375,0,0,0.09375,0,0)"/>
<path style="fill:none;stroke-width:5.573362;stroke-linecap:butt;stroke-linejoin:miter;stroke:rgb(92.156863%,94.117647%,94.117647%);stroke-opacity:1;stroke-miterlimit:2.012602;" d="M 222.333333 300.541667 C 222.333333 275.291667 250.125 269.333333 263.875 250.625 C 266 247.458333 264.625 218.916667 264.625 217.083333 " transform="matrix(0.09375,0,0,0.09375,0,0)"/>
<path style="fill:none;stroke-width:5.573362;stroke-linecap:butt;stroke-linejoin:miter;stroke:rgb(92.156863%,94.117647%,94.117647%);stroke-opacity:1;stroke-miterlimit:2.012602;" d="M 222.291667 358.5 L 222.291667 168.916667 " transform="matrix(0.09375,0,0,0.09375,0,0)"/>
<path style=" stroke:none;fill-rule:nonzero;fill:rgb(100%,100%,100%);fill-opacity:1;" d="M 43.871094 35.796875 C 43.871094 41.132812 39.644531 45.507812 34.3125 45.695312 C 28.980469 45.882812 24.457031 41.8125 24.085938 36.492188 C 23.710938 31.167969 27.621094 26.503906 32.925781 25.945312 C 38.234375 25.386719 43.027344 29.128906 43.773438 34.414062 "/>
<path style=" stroke:none;fill-rule:evenodd;fill:rgb(20.784314%,78.039216%,43.921569%);fill-opacity:1;" d="M 33.976562 29.183594 C 33.941406 29.183594 33.902344 29.183594 33.867188 29.1875 C 32.75 29.273438 32.125 30.632812 32.59375 32.128906 C 32.023438 31.167969 31.28125 30.433594 30.34375 30.4375 C 30.269531 30.4375 30.191406 30.445312 30.113281 30.453125 C 28.992188 30.605469 28.832031 32.015625 30.011719 32.671875 C 30.265625 32.816406 30.515625 32.988281 30.761719 33.179688 C 30.351562 32.949219 29.933594 32.804688 29.53125 32.804688 C 29.257812 32.804688 28.992188 32.871094 28.738281 33.019531 C 27.925781 33.496094 28.199219 34.597656 29.238281 34.816406 C 28.960938 34.886719 28.710938 35.023438 28.5 35.246094 C 27.839844 35.941406 28.484375 36.945312 29.605469 36.753906 C 29.707031 36.738281 29.816406 36.722656 29.921875 36.714844 C 29.65625 36.835938 29.441406 37.023438 29.304688 37.300781 C 28.976562 37.980469 29.703125 38.585938 30.503906 38.175781 C 31.125 37.851562 31.9375 37.703125 32.632812 37.625 L 32.746094 37.691406 L 32.625 37.757812 L 32.800781 38.054688 L 32.625 38.347656 L 32.746094 38.417969 L 32.625 38.484375 L 32.800781 38.78125 L 32.625 39.074219 L 32.746094 39.144531 L 32.625 39.210938 L 32.800781 39.507812 L 32.625 39.800781 L 32.746094 39.871094 L 32.625 39.9375 C 32.625 39.9375 32.625 39.9375 32.625 39.941406 L 32.800781 40.234375 L 32.625 40.527344 L 32.746094 40.597656 L 32.625 40.664062 C 32.625 40.664062 32.625 40.664062 32.625 40.667969 L 32.800781 40.960938 L 32.625 41.253906 C 32.625 41.253906 32.625 41.253906 32.625 41.257812 L 32.746094 41.324219 L 32.625 41.390625 C 32.625 41.390625 32.625 41.394531 32.625 41.394531 L 32.800781 41.6875 L 32.625 41.980469 C 32.625 41.980469 32.625 41.984375 32.625 41.984375 L 32.746094 42.050781 L 32.625 42.117188 C 32.625 42.117188 32.625 42.121094 32.625 42.121094 L 32.800781 42.414062 L 32.773438 42.457031 L 35.125 42.457031 L 35.097656 42.414062 L 35.273438 42.121094 C 35.277344 42.121094 35.277344 42.117188 35.273438 42.117188 L 35.152344 42.050781 L 35.273438 41.984375 C 35.277344 41.984375 35.277344 41.980469 35.273438 41.980469 L 35.097656 41.6875 L 35.273438 41.394531 C 35.277344 41.394531 35.277344 41.390625 35.273438 41.390625 L 35.152344 41.324219 L 35.273438 41.257812 C 35.277344 41.253906 35.277344 41.253906 35.273438 41.253906 L 35.097656 40.960938 L 35.273438 40.667969 C 35.277344 40.664062 35.277344 40.664062 35.273438 40.664062 L 35.152344 40.597656 L 35.273438 40.527344 C 35.277344 40.527344 35.277344 40.527344 35.273438 40.527344 L 35.097656 40.234375 L 35.273438 39.941406 C 35.277344 39.9375 35.277344 39.9375 35.273438 39.9375 L 35.152344 39.871094 L 35.273438 39.800781 C 35.277344 39.800781 35.277344 39.800781 35.273438 39.800781 L 35.097656 39.507812 L 35.273438 39.210938 C 35.277344 39.210938 35.277344 39.210938 35.273438 39.210938 L 35.152344 39.144531 L 35.273438 39.074219 C 35.277344 39.074219 35.277344 39.074219 35.273438 39.074219 L 35.097656 38.78125 L 35.273438 38.484375 C 35.277344 38.484375 35.277344 38.484375 35.273438 38.484375 L 35.152344 38.417969 L 35.273438 38.347656 C 35.277344 38.347656 35.277344 38.347656 35.273438 38.347656 L 35.097656 38.054688 L 35.273438 37.757812 C 35.277344 37.757812 35.277344 37.757812 35.273438 37.757812 L 35.152344 37.691406 L 35.273438 37.625 C 35.976562 37.699219 36.800781 37.847656 37.429688 38.175781 C 38.230469 38.585938 38.957031 37.980469 38.625 37.300781 C 38.492188 37.023438 38.277344 36.835938 38.007812 36.714844 C 38.117188 36.722656 38.222656 36.738281 38.328125 36.753906 C 39.445312 36.945312 40.089844 35.941406 39.433594 35.246094 C 39.222656 35.023438 38.972656 34.886719 38.695312 34.816406 C 39.730469 34.597656 40.007812 33.496094 39.195312 33.019531 C 38.566406 32.652344 37.859375 32.792969 37.171875 33.179688 C 37.417969 32.988281 37.667969 32.816406 37.921875 32.671875 C 39.097656 32.015625 38.941406 30.605469 37.816406 30.453125 C 36.703125 30.304688 35.851562 31.191406 35.222656 32.328125 C 35.757812 30.515625 35.019531 29.195312 33.976562 29.183594 Z M 33.976562 29.183594 "/>
<path style=" stroke:none;fill-rule:evenodd;fill:rgb(22.745098%,77.254902%,90.196078%);fill-opacity:1;" d="M 30.40625 27.191406 C 26.9375 28.632812 24.675781 32.015625 24.675781 35.769531 C 24.679688 40.554688 28.3125 44.550781 33.074219 45.007812 L 33.074219 43.222656 C 29.300781 42.769531 26.460938 39.570312 26.457031 35.769531 C 26.460938 33.011719 27.976562 30.472656 30.40625 29.167969 Z M 37.527344 27.199219 L 37.527344 29.160156 C 39.957031 30.46875 41.472656 33.007812 41.476562 35.769531 C 41.46875 39.570312 38.628906 42.765625 34.859375 43.21875 L 34.859375 45.015625 C 39.621094 44.558594 43.253906 40.554688 43.257812 35.769531 C 43.253906 32.019531 40.992188 28.636719 37.527344 27.199219 Z M 37.527344 27.199219 "/>
</g>
</svg>
