
<svg xmlns="http://www.w3.org/2000/svg" xmlns:xlink="http://www.w3.org/1999/xlink" width="48px" height="48px" viewBox="0 0 48 48" version="1.1">
<g id="surface1">
<path style="fill-rule:nonzero;fill:rgb(20%,27.843137%,36.078431%);fill-opacity:1;stroke-width:27.936705;stroke-linecap:butt;stroke-linejoin:miter;stroke:rgb(36.862745%,39.607843%,41.568627%);stroke-opacity:1;stroke-miterlimit:4;" d="M 83.041666 24.997175 L 428.958333 24.997175 C 459.791666 24.997175 484.833333 50.038842 484.833333 80.872175 L 484.833333 426.788842 C 484.833333 457.622175 459.791666 482.663842 428.958333 482.663842 L 83.041666 482.663842 C 52.208333 482.663842 27.166666 457.622175 27.166666 426.788842 L 27.166666 80.872175 C 27.166666 50.038842 52.208333 24.997175 83.041666 24.997175 Z M 83.041666 24.997175 " transform="matrix(0.09375,0,0,0.09375,0.0000000347443,0.20339)"/>
<path style=" stroke:none;fill-rule:nonzero;fill:rgb(15.686275%,20.784314%,24.705882%);fill-opacity:1;" d="M 13.546875 6.066406 L 13.546875 14.210938 L 3.847656 14.210938 L 3.847656 14.839844 L 13.546875 14.839844 L 13.546875 17.972656 L 3.847656 17.972656 L 3.847656 18.597656 L 13.546875 18.597656 L 13.546875 22.984375 L 3.847656 22.984375 L 3.847656 23.613281 L 13.546875 23.613281 L 13.546875 27.371094 L 3.847656 27.371094 L 3.847656 28 L 13.546875 28 L 13.546875 31.132812 L 3.847656 31.132812 L 3.847656 31.757812 L 13.546875 31.757812 L 13.546875 39.902344 L 14.292969 39.902344 L 14.292969 31.757812 L 18.023438 31.757812 L 18.023438 39.902344 L 18.769531 39.902344 L 18.769531 31.757812 L 23.996094 31.757812 L 23.996094 39.902344 L 24.742188 39.902344 L 24.742188 31.757812 L 29.21875 31.757812 L 29.21875 39.902344 L 29.964844 39.902344 L 29.964844 31.757812 L 33.695312 31.757812 L 33.695312 39.902344 L 34.441406 39.902344 L 34.441406 31.757812 L 44.144531 31.757812 L 44.144531 31.132812 L 34.441406 31.132812 L 34.441406 28 L 44.144531 28 L 44.144531 27.371094 L 34.441406 27.371094 L 34.441406 23.613281 L 44.144531 23.613281 L 44.144531 22.984375 L 34.441406 22.984375 L 34.441406 18.597656 L 44.144531 18.597656 L 44.144531 17.972656 L 34.441406 17.972656 L 34.441406 14.839844 L 44.144531 14.839844 L 44.144531 14.210938 L 34.441406 14.210938 L 34.441406 6.066406 L 33.695312 6.066406 L 33.695312 14.210938 L 29.964844 14.210938 L 29.964844 6.066406 L 29.21875 6.066406 L 29.21875 14.210938 L 24.742188 14.210938 L 24.742188 6.066406 L 23.996094 6.066406 L 23.996094 14.210938 L 18.769531 14.210938 L 18.769531 6.066406 L 18.023438 6.066406 L 18.023438 14.210938 L 14.292969 14.210938 L 14.292969 6.066406 Z M 14.292969 14.839844 L 18.023438 14.839844 L 18.023438 17.972656 L 14.292969 17.972656 Z M 18.769531 14.839844 L 23.996094 14.839844 L 23.996094 17.972656 L 18.769531 17.972656 Z M 24.742188 14.839844 L 29.21875 14.839844 L 29.21875 17.972656 L 24.742188 17.972656 Z M 29.964844 14.839844 L 33.695312 14.839844 L 33.695312 17.972656 L 29.964844 17.972656 Z M 14.292969 18.597656 L 18.023438 18.597656 L 18.023438 22.984375 L 14.292969 22.984375 Z M 18.769531 18.597656 L 23.996094 18.597656 L 23.996094 22.984375 L 18.769531 22.984375 Z M 24.742188 18.597656 L 29.21875 18.597656 L 29.21875 22.984375 L 24.742188 22.984375 Z M 29.964844 18.597656 L 33.695312 18.597656 L 33.695312 22.984375 L 29.964844 22.984375 Z M 14.292969 23.613281 L 18.023438 23.613281 L 18.023438 27.371094 L 14.292969 27.371094 Z M 18.769531 23.613281 L 23.996094 23.613281 L 23.996094 27.371094 L 18.769531 27.371094 Z M 24.742188 23.613281 L 29.21875 23.613281 L 29.21875 27.371094 L 24.742188 27.371094 Z M 29.964844 23.613281 L 33.695312 23.613281 L 33.695312 27.371094 L 29.964844 27.371094 Z M 14.292969 28 L 18.023438 28 L 18.023438 31.132812 L 14.292969 31.132812 Z M 18.769531 28 L 23.996094 28 L 23.996094 31.132812 L 18.769531 31.132812 Z M 24.742188 28 L 29.21875 28 L 29.21875 31.132812 L 24.742188 31.132812 Z M 29.964844 28 L 33.695312 28 L 33.695312 31.132812 L 29.964844 31.132812 Z M 29.964844 28 "/>
<path style=" stroke:none;fill-rule:nonzero;fill:rgb(97.254902%,87.058824%,40.784314%);fill-opacity:1;" d="M 38.171875 16.007812 L 32.949219 18.664062 L 28.472656 18 L 24.742188 20.65625 L 21.011719 19.992188 L 18.769531 20.65625 L 17.277344 21.320312 L 15.039062 21.320312 L 14.292969 21.984375 L 10.5625 21.320312 L 7.578125 22.648438 L 6.832031 21.984375 L 3.847656 28.179688 L 3.847656 39.902344 L 44.144531 39.902344 L 44.144531 16.671875 L 41.15625 16.671875 Z M 38.171875 16.007812 "/>
<path style=" stroke:none;fill-rule:nonzero;fill:rgb(9.803922%,63.137255%,52.941176%);fill-opacity:1;" d="M 30.710938 23.972656 L 27.726562 24.636719 L 25.488281 26.628906 L 20.265625 26.628906 L 18.023438 27.292969 L 16.53125 27.292969 L 13.546875 31.277344 L 12.800781 30.613281 L 9.816406 35.921875 L 6.085938 34.59375 L 3.847656 36.085938 L 3.847656 39.902344 L 44.144531 39.902344 L 44.144531 23.972656 Z M 30.710938 23.972656 "/>
<path style=" stroke:none;fill-rule:nonzero;fill:rgb(30.980392%,72.156863%,76.078431%);fill-opacity:1;" d="M 35.933594 21.984375 L 30.710938 25.300781 L 28.472656 27.292969 L 25.488281 27.957031 L 22.503906 27.292969 L 19.515625 27.292969 L 14.292969 33.265625 L 12.800781 32.601562 L 9.816406 35.921875 L 8.324219 35.921875 L 7.578125 36.585938 L 6.085938 35.921875 L 3.847656 37.414062 L 3.847656 39.902344 L 44.144531 39.902344 L 44.144531 22.648438 L 43.398438 22.648438 L 41.90625 23.308594 L 38.917969 23.972656 Z M 35.933594 21.984375 "/>
</g>
</svg>
