
<svg xmlns="http://www.w3.org/2000/svg" xmlns:xlink="http://www.w3.org/1999/xlink" width="48px" height="48px" viewBox="0 0 48 48" version="1.1">
<g id="surface1">
<path style="fill-rule:nonzero;fill:rgb(92.156863%,92.156863%,92.156863%);fill-opacity:1;stroke-width:27.442497;stroke-linecap:butt;stroke-linejoin:miter;stroke:rgb(0%,65.882353%,83.137255%);stroke-opacity:1;stroke-miterlimit:4;" d="M 86.125 31.25 L 425.875 31.25 C 456.208333 31.25 480.75 55.791667 480.75 86.125 L 480.75 425.875 C 480.75 456.208333 456.208333 480.75 425.875 480.75 L 86.125 480.75 C 55.791667 480.75 31.25 456.208333 31.25 425.875 L 31.25 86.125 C 31.25 55.791667 55.791667 31.25 86.125 31.25 Z M 86.125 31.25 " transform="matrix(0.09375,0,0,0.09375,0,0)"/>
<path style=" stroke:none;fill-rule:evenodd;fill:rgb(49.803922%,49.803922%,49.803922%);fill-opacity:1;" d="M 21.28125 37.09375 L 16.867188 39.984375 L 31.210938 39.984375 L 26.796875 37.09375 Z M 21.28125 37.09375 "/>
<path style=" stroke:none;fill-rule:evenodd;fill:rgb(49.803922%,49.803922%,49.803922%);fill-opacity:1;" d="M 21.28125 36.214844 L 16.867188 39.109375 L 31.210938 39.109375 L 26.796875 36.214844 Z M 21.28125 36.214844 "/>
<path style=" stroke:none;fill-rule:nonzero;fill:rgb(29.803922%,29.803922%,29.803922%);fill-opacity:1;" d="M 20.976562 30.902344 L 27.113281 30.902344 L 27.113281 37.730469 L 20.976562 37.730469 Z M 20.976562 30.902344 "/>
<path style=" stroke:none;fill-rule:nonzero;fill:rgb(49.803922%,49.803922%,49.803922%);fill-opacity:1;" d="M 8.816406 8.015625 L 39.273438 8.015625 C 40.339844 8.015625 41.207031 8.839844 41.207031 9.859375 L 41.207031 31.191406 C 41.207031 32.207031 40.339844 33.035156 39.273438 33.035156 L 8.816406 33.035156 C 7.75 33.035156 6.882812 32.207031 6.882812 31.191406 L 6.882812 9.859375 C 6.882812 8.839844 7.75 8.015625 8.816406 8.015625 Z M 8.816406 8.015625 "/>
<path style=" stroke:none;fill-rule:nonzero;fill:rgb(0%,65.882353%,83.137255%);fill-opacity:1;" d="M 10.09375 10.355469 L 37.992188 10.355469 L 37.992188 30.691406 L 10.09375 30.691406 Z M 10.09375 10.355469 "/>
<path style=" stroke:none;fill-rule:evenodd;fill:rgb(0%,0%,0%);fill-opacity:1;" d="M 16.867188 39.109375 L 16.867188 39.984375 L 31.21875 39.984375 L 31.21875 39.109375 Z M 16.867188 39.109375 "/>
<path style=" stroke:none;fill-rule:nonzero;fill:rgb(100%,100%,100%);fill-opacity:1;" d="M 27.054688 27.042969 L 25.476562 27.042969 L 25.476562 28.722656 L 27.054688 28.722656 Z M 24.6875 27.042969 L 23.109375 27.042969 L 23.109375 28.722656 L 24.6875 28.722656 Z M 22.316406 27.042969 L 20.738281 27.042969 L 20.738281 28.722656 L 22.316406 28.722656 Z M 22.316406 27.042969 "/>
<path style=" stroke:none;fill-rule:evenodd;fill:rgb(20%,20%,20%);fill-opacity:1;" d="M 10.011719 10.40625 L 10.011719 12 L 37.917969 12 L 37.917969 10.40625 Z M 10.011719 10.40625 "/>
<path style=" stroke:none;fill-rule:nonzero;fill:rgb(100%,100%,100%);fill-opacity:1;" d="M 17.179688 13.519531 L 11.355469 17.136719 L 17.164062 20.546875 Z M 17.179688 15.515625 L 17.179688 18.535156 L 30.027344 18.535156 L 30.027344 15.515625 Z M 17.179688 15.515625 "/>
<path style=" stroke:none;fill-rule:nonzero;fill:rgb(100%,100%,100%);fill-opacity:1;" d="M 30.566406 20.019531 L 36.390625 23.636719 L 30.582031 27.042969 Z M 30.566406 22.011719 L 30.566406 25.03125 L 17.71875 25.03125 L 17.71875 22.011719 Z M 30.566406 22.011719 "/>
</g>
</svg>
