
<svg xmlns="http://www.w3.org/2000/svg" xmlns:xlink="http://www.w3.org/1999/xlink" width="48px" height="48px" viewBox="0 0 48 48" version="1.1">
<g id="surface1">
<path style="fill-rule:nonzero;fill:rgb(20%,27.843137%,36.078431%);fill-opacity:1;stroke-width:27.936705;stroke-linecap:butt;stroke-linejoin:miter;stroke:rgb(20%,27.843137%,36.078431%);stroke-opacity:1;stroke-miterlimit:4;" d="M 83.041667 27.166667 L 428.958333 27.166667 C 459.791667 27.166667 484.833333 52.208333 484.833333 83.041667 L 484.833333 428.958333 C 484.833333 459.791667 459.791667 484.833333 428.958333 484.833333 L 83.041667 484.833333 C 52.208333 484.833333 27.166667 459.791667 27.166667 428.958333 L 27.166667 83.041667 C 27.166667 52.208333 52.208333 27.166667 83.041667 27.166667 Z M 83.041667 27.166667 " transform="matrix(0.09375,0,0,0.09375,0,0)"/>
<path style=" stroke:none;fill-rule:nonzero;fill:rgb(20%,59.215686%,85.098039%);fill-opacity:1;" d="M 8.402344 3.363281 C 5.617188 3.363281 3.363281 5.617188 3.363281 8.402344 L 3.363281 39.597656 C 3.363281 39.773438 3.371094 39.945312 3.386719 40.113281 C 3.40625 40.28125 3.429688 40.449219 3.464844 40.613281 C 3.496094 40.777344 3.539062 40.9375 3.589844 41.097656 C 3.832031 41.886719 4.269531 42.59375 4.839844 43.160156 C 4.953125 43.277344 5.070312 43.382812 5.195312 43.488281 C 5.320312 43.589844 5.449219 43.6875 5.582031 43.777344 C 5.667969 43.832031 5.753906 43.882812 5.84375 43.933594 C 6.035156 44.046875 6.230469 44.152344 6.441406 44.242188 C 6.589844 44.304688 6.746094 44.363281 6.902344 44.410156 C 7.0625 44.460938 7.222656 44.503906 7.386719 44.535156 C 7.550781 44.570312 7.71875 44.59375 7.886719 44.613281 C 8.054688 44.628906 8.226562 44.636719 8.402344 44.636719 L 39.597656 44.636719 C 39.773438 44.636719 39.945312 44.628906 40.113281 44.613281 C 40.28125 44.59375 40.449219 44.570312 40.613281 44.535156 C 40.777344 44.503906 40.9375 44.460938 41.097656 44.410156 C 42.261719 44.050781 43.238281 43.273438 43.871094 42.257812 C 43.925781 42.171875 43.984375 42.082031 44.035156 41.992188 C 44.121094 41.832031 44.195312 41.664062 44.265625 41.496094 C 44.289062 41.441406 44.304688 41.382812 44.328125 41.328125 C 44.371094 41.207031 44.414062 41.082031 44.449219 40.957031 C 44.464844 40.890625 44.484375 40.824219 44.5 40.757812 C 44.527344 40.628906 44.554688 40.5 44.574219 40.367188 C 44.582031 40.308594 44.59375 40.246094 44.601562 40.183594 C 44.621094 39.996094 44.636719 39.804688 44.636719 39.609375 C 44.636719 39.605469 44.636719 39.601562 44.636719 39.597656 L 44.636719 17.65625 L 30.34375 3.363281 Z M 8.402344 3.363281 "/>
<path style=" stroke:none;fill-rule:nonzero;fill:rgb(100%,100%,100%);fill-opacity:1;" d="M 44.636719 17.65625 L 30.34375 3.363281 L 30.34375 12.617188 C 30.34375 15.398438 32.601562 17.65625 35.382812 17.65625 Z M 44.636719 17.65625 "/>
</g>
</svg>
