
<svg xmlns="http://www.w3.org/2000/svg" xmlns:xlink="http://www.w3.org/1999/xlink" width="48px" height="48px" viewBox="0 0 48 48" version="1.1">
<g id="surface1">
<path style="fill-rule:nonzero;fill:rgb(74.117647%,76.078431%,78.039216%);fill-opacity:1;stroke-width:20.298223;stroke-linecap:butt;stroke-linejoin:miter;stroke:rgb(29.019608%,68.235294%,90.196078%);stroke-opacity:1;stroke-miterlimit:4;" d="M 117.323008 102.771366 L 368.643089 102.771366 C 391.069233 102.771366 409.231036 120.950558 409.231036 143.361113 L 409.231036 394.672767 C 409.231036 417.083322 391.069233 435.262514 368.643089 435.262514 L 117.323008 435.262514 C 94.896863 435.262514 76.73506 417.083322 76.73506 394.672767 L 76.73506 143.361113 C 76.73506 120.950558 94.896863 102.771366 117.323008 102.771366 Z M 117.323008 102.771366 " transform="matrix(0.127328,0,0,0.124627,-6.938465,-9.526876)"/>
<path style=" stroke:none;fill-rule:nonzero;fill:rgb(15.686275%,49.803922%,72.156863%);fill-opacity:1;" d="M 24.914062 6.476562 L 24.914062 23.105469 L 41.902344 23.105469 L 41.902344 10.539062 C 41.902344 8.296875 40.046875 6.476562 37.753906 6.476562 Z M 24.914062 6.476562 "/>
<path style=" stroke:none;fill-rule:nonzero;fill:rgb(15.686275%,49.803922%,72.156863%);fill-opacity:1;" d="M 23.085938 41.523438 L 23.085938 24.894531 L 6.097656 24.894531 L 6.097656 37.460938 C 6.097656 39.703125 7.953125 41.523438 10.246094 41.523438 Z M 23.085938 41.523438 "/>
<path style=" stroke:none;fill-rule:nonzero;fill:rgb(54.901961%,25.882353%,67.058824%);fill-opacity:1;" d="M 6.097656 23.105469 L 23.085938 23.105469 L 23.085938 6.476562 L 10.246094 6.476562 C 7.953125 6.476562 6.097656 8.296875 6.097656 10.539062 Z M 6.097656 23.105469 "/>
<path style=" stroke:none;fill-rule:nonzero;fill:rgb(54.901961%,25.882353%,67.058824%);fill-opacity:1;" d="M 41.902344 24.894531 L 24.914062 24.894531 L 24.914062 41.523438 L 37.753906 41.523438 C 40.046875 41.523438 41.902344 39.703125 41.902344 37.460938 Z M 41.902344 24.894531 "/>
</g>
</svg>
