
<svg xmlns="http://www.w3.org/2000/svg" xmlns:xlink="http://www.w3.org/1999/xlink" width="48px" height="48px" viewBox="0 0 48 48" version="1.1">
<defs>
<radialGradient id="radial0" gradientUnits="userSpaceOnUse" cx="-495.98746" cy="-87.834587" fx="-495.98746" fy="-87.834587" r="88.03125" gradientTransform="matrix(0.126478,0,0,0.129013,83.24336,24.957893)">
<stop offset="0" style="stop-color:rgb(23.921569%,33.72549%,43.137255%);stop-opacity:1;"/>
<stop offset="1" style="stop-color:rgb(23.921569%,33.72549%,43.137255%);stop-opacity:0;"/>
</radialGradient>
<linearGradient id="linear0" gradientUnits="userSpaceOnUse" x1="-516.70276" y1="20.883038" x2="-518.81342" y2="29.600176" gradientTransform="matrix(0.126478,0,0,0.126478,83.24336,22.494632)">
<stop offset="0" style="stop-color:rgb(45.490196%,40.784314%,42.352941%);stop-opacity:1;"/>
<stop offset="1" style="stop-color:rgb(89.411765%,88.235294%,88.627451%);stop-opacity:1;"/>
</linearGradient>
<linearGradient id="linear1" gradientUnits="userSpaceOnUse" x1="-130.89725" y1="16.472939" x2="-128.05614" y2="38.053318" gradientTransform="matrix(0.126478,0,0,0.126478,51.623866,22.494632)">
<stop offset="0" style="stop-color:rgb(45.490196%,40.784314%,42.352941%);stop-opacity:1;"/>
<stop offset="1" style="stop-color:rgb(89.411765%,88.235294%,88.627451%);stop-opacity:1;"/>
</linearGradient>
<radialGradient id="radial1" gradientUnits="userSpaceOnUse" cx="-500.14664" cy="-15.092947" fx="-500.14664" fy="-15.092947" r="26.649689" gradientTransform="matrix(0.126478,0,0,0.0422723,83.24336,21.223721)">
<stop offset="0" style="stop-color:rgb(98.039216%,82.745098%,29.411765%);stop-opacity:1;"/>
<stop offset="1" style="stop-color:rgb(98.039216%,73.72549%,21.568627%);stop-opacity:1;"/>
</radialGradient>
<radialGradient id="radial2" gradientUnits="userSpaceOnUse" cx="-400.11536" cy="-16.508318" fx="-400.11536" fy="-16.508318" r="15.88463" gradientTransform="matrix(0.126478,0,0,0.067693,83.24336,21.524192)">
<stop offset="0" style="stop-color:rgb(98.039216%,82.745098%,29.411765%);stop-opacity:1;"/>
<stop offset="1" style="stop-color:rgb(98.039216%,73.72549%,21.568627%);stop-opacity:1;"/>
</radialGradient>
</defs>
<g id="surface2">
<path style="fill-rule:nonzero;fill:rgb(68.235294%,57.647059%,50.588235%);fill-opacity:1;stroke-width:27.565153;stroke-linecap:butt;stroke-linejoin:miter;stroke:rgb(20%,27.843137%,36.078431%);stroke-opacity:1;stroke-miterlimit:4;" d="M 85.375 30.208333 L 426.625 30.208333 C 457.083333 30.208333 481.791667 54.916667 481.791667 85.375 L 481.791667 426.625 C 481.791667 457.083333 457.083333 481.791667 426.625 481.791667 L 85.375 481.791667 C 54.916667 481.791667 30.208333 457.083333 30.208333 426.625 L 30.208333 85.375 C 30.208333 54.916667 54.916667 30.208333 85.375 30.208333 Z M 85.375 30.208333 " transform="matrix(0.09375,0,0,0.09375,0,0)"/>
<path style=" stroke:none;fill-rule:nonzero;fill:rgb(63.137255%,50.980392%,43.137255%);fill-opacity:1;" d="M 8.425781 4.261719 L 23.671875 25.933594 L 17.269531 4.261719 Z M 23.671875 25.933594 L 30.691406 4.261719 L 23.425781 4.261719 Z M 23.671875 25.933594 L 43.992188 14.96875 L 43.992188 7.011719 C 43.992188 6.003906 43.445312 5.121094 42.632812 4.644531 Z M 23.671875 25.933594 L 43.992188 29.71875 L 43.992188 19.984375 Z M 23.671875 25.933594 L 32.445312 43.941406 L 41.226562 43.941406 C 42.414062 43.941406 43.425781 43.199219 43.816406 42.152344 Z M 23.671875 25.933594 L 17.808594 43.941406 L 24.601562 43.941406 Z M 23.671875 25.933594 L 4.464844 42.703125 C 4.960938 43.449219 5.808594 43.941406 6.773438 43.941406 L 12.542969 43.941406 Z M 23.671875 25.933594 L 4.007812 26.316406 L 4.007812 36.75 Z M 23.671875 25.933594 L 4.007812 15.097656 L 4.007812 22.425781 Z M 23.671875 25.933594 "/>
<path style=" stroke:none;fill-rule:nonzero;fill:rgb(0%,0%,0%);fill-opacity:1;" d="M 29.933594 37.207031 C 27.496094 37 26.363281 36.714844 25.941406 36.210938 C 25.839844 36.089844 25.53125 36.027344 25.015625 36.027344 C 23.914062 36.023438 22.832031 35.742188 22.421875 35.347656 C 22.167969 35.101562 21.945312 35.015625 21.574219 35.015625 C 20.785156 35.015625 18.066406 34.632812 17.90625 34.5 C 17.8125 34.421875 17.710938 34.441406 17.613281 34.558594 C 17.273438 34.96875 15.203125 35.164062 14.03125 34.890625 C 13.734375 34.824219 13.285156 34.734375 13.03125 34.699219 C 12.457031 34.613281 12.296875 34.210938 12.671875 33.808594 C 13.058594 33.398438 12.992188 33.066406 12.480469 32.882812 C 12.042969 32.726562 10.78125 31.851562 10.09375 31.230469 C 9.570312 30.761719 8.925781 29.707031 8.679688 28.925781 C 8.5625 28.554688 8.402344 28.050781 8.324219 27.808594 C 8.242188 27.558594 8.191406 26.71875 8.207031 25.882812 C 8.234375 24.167969 8.527344 22.996094 9.167969 22.03125 C 9.742188 21.164062 11.566406 19.375 13.679688 17.605469 C 14.851562 16.625 15.835938 15.671875 16.398438 14.972656 C 18.738281 12.082031 19.214844 11.554688 19.984375 11.03125 C 21.191406 10.207031 23.316406 9.652344 25.191406 9.667969 C 26.617188 9.683594 27.796875 10.042969 28.949219 10.816406 C 29.351562 11.085938 29.84375 11.378906 30.039062 11.464844 C 30.714844 11.761719 31.257812 12.277344 32.207031 13.523438 C 33.253906 14.910156 33.867188 16.042969 34.285156 17.371094 C 34.699219 18.6875 35.480469 20.207031 36.074219 20.851562 C 36.554688 21.375 37.867188 23.234375 38.21875 23.890625 C 38.300781 24.042969 38.414062 24.464844 38.46875 24.820312 C 38.523438 25.175781 38.660156 25.925781 38.773438 26.484375 C 39.214844 28.6875 38.832031 30.859375 37.824219 31.867188 C 37.554688 32.140625 37.332031 32.386719 37.332031 32.421875 C 37.332031 32.457031 37.660156 32.488281 38.058594 32.488281 C 39.289062 32.488281 40.679688 33.339844 40.445312 33.945312 C 40.320312 34.277344 39.285156 34.648438 38.324219 34.703125 C 37.828125 34.734375 37.390625 34.789062 37.355469 34.824219 C 37.320312 34.859375 37.371094 34.890625 37.46875 34.894531 C 37.761719 34.902344 38.25 35.378906 38.175781 35.578125 C 37.996094 36.046875 35.777344 36.703125 33.675781 36.914062 C 31.136719 37.164062 30.253906 37.234375 29.933594 37.207031 Z M 29.933594 37.207031 "/>
<path style=" stroke:none;fill-rule:nonzero;fill:rgb(22.745098%,31.764706%,40.784314%);fill-opacity:1;" d="M 22.511719 10.613281 C 20.875 11.21875 19.046875 12.023438 18.1875 13.8125 C 17.472656 15.308594 15.976562 16.472656 14.730469 17.488281 C 13.183594 18.339844 11.394531 20.453125 10.351562 21.789062 C 9.339844 23.304688 9.253906 23.851562 8.824219 25.6875 C 8.40625 27.457031 9.476562 29.355469 10.289062 30.773438 C 11.28125 31.867188 13.128906 32.46875 13.855469 33.40625 C 12.953125 33.414062 12.316406 34.5625 13.570312 34.625 C 14.765625 34.785156 16.800781 35.160156 17.476562 34.140625 C 16.441406 32.941406 18.210938 34.527344 18.859375 34.371094 C 20.445312 34.992188 22.042969 34.238281 23.65625 34.386719 C 24.324219 34.339844 25.855469 34.710938 24.371094 34.554688 C 23.597656 34.1875 22.082031 35.03125 23.414062 35.523438 C 25.125 35.257812 26.480469 36.078125 27.921875 36.722656 C 30.09375 37.109375 31.570312 36.800781 33.628906 36.699219 C 34.660156 36.175781 36.285156 36.410156 37.03125 35.460938 C 35.445312 34.679688 33.960938 33.777344 32.207031 33.332031 C 30.824219 32.925781 28.675781 35.003906 28.410156 35 C 29.816406 33.90625 31.308594 32.3125 33.289062 33.101562 C 34.992188 33.550781 36.421875 34.484375 38.320312 34.445312 C 40.117188 34.40625 40.203125 32.441406 38.429688 32.519531 C 37.683594 32.335938 35.785156 32.867188 35.78125 32.792969 C 37.484375 32.285156 38.003906 30.433594 38.445312 29.066406 C 38.417969 27.316406 38.378906 25.515625 37.632812 23.921875 C 36.511719 22.664062 35.742188 20.949219 34.558594 19.734375 C 33.898438 18.367188 33.378906 16.925781 32.566406 15.605469 C 31.839844 14.507812 31.230469 12.835938 29.988281 12.3125 C 28.851562 11.492188 27.660156 10.609375 26.285156 10.386719 C 25.015625 10.242188 23.707031 10.171875 22.511719 10.613281 Z M 22.511719 10.613281 "/>
<path style=" stroke:none;fill-rule:nonzero;fill:rgb(22.745098%,31.764706%,40.784314%);fill-opacity:1;" d="M 24.371094 10.277344 C 23.738281 10.296875 23.109375 10.394531 22.511719 10.613281 C 20.875 11.21875 19.046875 12.023438 18.191406 13.8125 C 17.472656 15.308594 15.972656 16.46875 14.726562 17.488281 C 13.183594 18.339844 11.394531 20.449219 10.351562 21.785156 C 9.535156 23.011719 9.316406 23.613281 9.039062 24.761719 C 8.859375 25.871094 8.839844 26.980469 9.242188 28.09375 C 10.273438 30.265625 12.664062 31.679688 15.074219 31.558594 C 18.171875 32.226562 21.273438 31.320312 24.359375 31.101562 C 26.890625 31.175781 29.664062 32.234375 31.9375 30.578125 C 33.613281 28.988281 34.023438 26.503906 34.378906 24.324219 C 34.90625 21.628906 30.050781 21.382812 32.226562 18.585938 C 32.582031 17.738281 32.742188 16.8125 32.726562 15.875 C 32.675781 15.785156 32.621094 15.695312 32.566406 15.605469 C 31.839844 14.507812 31.234375 12.832031 29.988281 12.3125 C 28.851562 11.492188 27.664062 10.613281 26.285156 10.386719 C 25.652344 10.316406 25.007812 10.257812 24.371094 10.277344 Z M 39.234375 32.664062 C 38.851562 32.710938 38.472656 32.824219 38.09375 32.871094 C 37.519531 32.960938 37.445312 33.746094 37.96875 33.980469 C 38.164062 34.117188 38.34375 34.277344 38.53125 34.425781 C 39.808594 34.28125 40.070312 33.085938 39.234375 32.664062 Z M 14.277344 33.582031 C 13.882812 33.582031 13.535156 33.601562 13.40625 33.644531 C 13.273438 33.691406 13.117188 33.78125 12.960938 33.882812 C 12.960938 33.882812 12.957031 33.882812 12.957031 33.886719 C 12.753906 34.210938 12.863281 34.589844 13.570312 34.625 C 14.445312 34.742188 15.769531 34.976562 16.679688 34.691406 C 16.542969 34.535156 16.355469 34.398438 16.300781 34.292969 C 16.191406 34.070312 16.058594 33.972656 15.882812 33.796875 C 15.734375 33.648438 14.9375 33.582031 14.277344 33.582031 Z M 31.984375 33.953125 C 31.132812 33.949219 30.296875 34.074219 29.46875 34.292969 C 28.929688 34.667969 28.515625 35 28.40625 35 C 28.664062 34.800781 28.921875 34.589844 29.1875 34.375 C 28.765625 34.5 28.34375 34.644531 27.929688 34.8125 C 26.527344 34.859375 24.777344 33.957031 23.382812 34.367188 C 23.476562 34.371094 23.566406 34.378906 23.65625 34.386719 C 24.320312 34.339844 25.859375 34.714844 24.371094 34.558594 C 23.597656 34.191406 22.082031 35.03125 23.410156 35.527344 C 25.125 35.257812 26.484375 36.078125 27.921875 36.722656 C 30.09375 37.109375 31.574219 36.800781 33.632812 36.699219 C 34.660156 36.175781 36.285156 36.410156 37.03125 35.457031 C 36.265625 35.082031 35.523438 34.679688 34.765625 34.3125 C 34.289062 34.210938 33.8125 34.148438 33.382812 34.082031 C 32.910156 34 32.445312 33.957031 31.984375 33.953125 Z M 31.984375 33.953125 "/>
<path style=" stroke:none;fill-rule:nonzero;fill:rgb(22.745098%,31.764706%,40.784314%);fill-opacity:1;" d="M 24.371094 10.277344 C 23.738281 10.296875 23.109375 10.394531 22.511719 10.613281 C 20.875 11.21875 19.046875 12.023438 18.191406 13.8125 C 17.472656 15.308594 15.972656 16.46875 14.726562 17.488281 C 13.183594 18.339844 11.394531 20.449219 10.351562 21.785156 C 9.34375 23.304688 9.25 23.851562 8.824219 25.6875 C 8.769531 25.910156 8.742188 26.132812 8.730469 26.355469 C 8.734375 26.359375 8.730469 26.363281 8.730469 26.367188 C 8.863281 27.070312 9.140625 27.726562 9.667969 28.277344 C 11.710938 31.15625 15.285156 31.71875 18.566406 31.347656 C 22.207031 30.101562 25.59375 30.617188 29.199219 30.429688 C 32.355469 30.292969 34.394531 26.027344 33.03125 23.34375 C 30.863281 22.058594 30.492188 19.226562 31.796875 17.222656 C 31.679688 16.316406 31.761719 15.292969 31.792969 14.277344 C 31.320312 13.453125 30.785156 12.648438 29.988281 12.3125 C 28.851562 11.492188 27.664062 10.613281 26.285156 10.386719 C 25.652344 10.316406 25.007812 10.257812 24.371094 10.277344 Z M 39.410156 32.777344 C 38.222656 32.855469 38.074219 33.789062 38.453125 34.4375 C 39.695312 34.34375 40.035156 33.28125 39.410156 32.777344 Z M 14.699219 33.730469 C 14.007812 33.734375 13.375 34.0625 13.011719 34.460938 C 13.125 34.550781 13.304688 34.609375 13.570312 34.625 C 14.347656 34.730469 15.476562 34.921875 16.359375 34.761719 C 16.371094 34.410156 16.066406 34.050781 15.273438 33.808594 C 15.082031 33.757812 14.886719 33.730469 14.699219 33.730469 Z M 32.648438 34.058594 C 31.238281 34.347656 29.945312 34.671875 28.664062 34.863281 C 28.542969 34.941406 28.449219 35 28.40625 35 C 28.457031 34.960938 28.511719 34.917969 28.5625 34.878906 C 27.132812 35.078125 25.71875 35.101562 24.175781 34.699219 C 23.699219 34.964844 23.425781 35.230469 23.296875 35.480469 C 23.332031 35.496094 23.371094 35.511719 23.410156 35.527344 C 25.125 35.257812 26.484375 36.078125 27.921875 36.722656 C 30.09375 37.109375 31.574219 36.800781 33.632812 36.699219 C 34.476562 36.269531 35.722656 36.351562 36.554688 35.871094 C 35.851562 34.742188 33.792969 34.515625 32.648438 34.058594 Z M 32.648438 34.058594 "/>
<path style=" stroke:none;fill-rule:nonzero;fill:rgb(22.745098%,30.980392%,38.823529%);fill-opacity:1;" d="M 24.371094 10.277344 C 23.738281 10.296875 23.109375 10.394531 22.511719 10.613281 C 20.875 11.21875 19.046875 12.023438 18.191406 13.8125 C 17.472656 15.308594 15.972656 16.46875 14.726562 17.488281 C 13.183594 18.339844 11.394531 20.449219 10.351562 21.785156 C 9.382812 23.242188 9.257812 23.816406 8.871094 25.484375 C 8.941406 26.570312 9.300781 27.625 10.066406 28.417969 C 11.328125 29.519531 12.925781 30.390625 14.574219 30.507812 C 16.542969 30.644531 18.515625 30.054688 20.484375 30.039062 C 22.402344 29.964844 24.234375 29.105469 26.171875 29.410156 C 28.089844 29.4375 29.660156 29.429688 31.226562 28.277344 C 32.46875 27.359375 32.507812 25.460938 32.707031 24.019531 C 31.761719 22.582031 30.050781 20.816406 30.527344 19.023438 C 31.519531 17.285156 31.191406 15.003906 31.035156 13.144531 C 30.738281 12.785156 30.398438 12.484375 29.988281 12.3125 C 28.851562 11.492188 27.664062 10.613281 26.285156 10.386719 C 25.652344 10.316406 25.007812 10.257812 24.371094 10.277344 Z M 38.957031 33.003906 C 38.503906 33.523438 38.789062 33.933594 39.273438 34.171875 C 39.65625 33.902344 39.792969 33.488281 39.671875 33.140625 C 39.433594 33.101562 39.191406 33.0625 38.957031 33.003906 Z M 14.132812 33.847656 C 13.664062 33.867188 13.210938 34.0625 12.898438 34.320312 C 12.972656 34.484375 13.179688 34.605469 13.570312 34.625 C 14.304688 34.722656 15.351562 34.898438 16.210938 34.785156 C 16.171875 34.59375 16.035156 34.371094 15.757812 34.117188 C 15.484375 33.964844 15.15625 33.953125 14.851562 33.972656 C 14.621094 33.871094 14.375 33.835938 14.132812 33.847656 Z M 32.746094 34.53125 C 30.796875 34.695312 29.941406 35.359375 27.996094 35.496094 C 26.347656 35.320312 24.738281 34.828125 23.070312 35.175781 C 23.027344 35.191406 22.988281 35.214844 22.949219 35.234375 C 23.023438 35.335938 23.171875 35.4375 23.410156 35.527344 C 25.125 35.257812 26.484375 36.078125 27.921875 36.722656 C 30.09375 37.109375 31.574219 36.800781 33.632812 36.699219 C 34.484375 36.265625 35.742188 36.351562 36.574219 35.859375 C 35.980469 35.015625 33.511719 34.6875 32.746094 34.53125 Z M 32.746094 34.53125 "/>
<path style=" stroke:none;fill-rule:nonzero;fill:url(#radial0);" d="M 24.371094 10.277344 C 23.738281 10.296875 23.109375 10.394531 22.511719 10.613281 C 20.875 11.21875 19.046875 12.023438 18.191406 13.8125 C 17.472656 15.308594 15.972656 16.46875 14.726562 17.488281 C 13.417969 18.210938 11.941406 19.832031 10.882812 21.125 C 10.886719 21.300781 10.910156 21.476562 10.96875 21.644531 C 11.738281 21.855469 12.800781 21.488281 13.390625 21.078125 C 14.445312 20.628906 17.167969 17.734375 18.207031 17.550781 C 18.675781 18.976562 20.957031 19.152344 23.980469 17.457031 C 24.929688 16.945312 27.390625 15.058594 26.613281 11.929688 C 26.898438 12.238281 29.089844 12.910156 30.765625 14.28125 C 31.429688 14.824219 32.210938 16.101562 33.148438 16.664062 C 32.96875 16.304688 32.777344 15.949219 32.566406 15.605469 C 31.839844 14.507812 31.234375 12.832031 29.988281 12.3125 C 28.851562 11.492188 27.664062 10.613281 26.285156 10.386719 C 25.652344 10.316406 25.007812 10.257812 24.371094 10.277344 Z M 24.371094 10.277344 "/>
<path style=" stroke:none;fill-rule:nonzero;fill:rgb(0%,0%,0%);fill-opacity:1;" d="M 24.53125 25.074219 C 22.164062 25.339844 19.515625 24.691406 17.203125 24.261719 C 15.699219 23.984375 13.886719 23.648438 13.535156 25.332031 C 13.273438 26.585938 13.941406 27.535156 15.085938 27.835938 C 16.859375 28.300781 19.347656 27.375 21.539062 26.953125 C 22.757812 26.714844 24.34375 26.394531 25.707031 26.292969 C 27.496094 26.160156 29.238281 25.925781 31.082031 26.042969 C 33.097656 26.171875 35.105469 26.640625 37.167969 27.394531 C 38.316406 27.8125 37.960938 24.953125 37.148438 24.238281 C 36.386719 23.570312 35.332031 23.566406 34.328125 23.96875 C 31.257812 25.203125 27.828125 24.699219 24.53125 25.074219 Z M 24.53125 25.074219 "/>
<path style=" stroke:none;fill-rule:nonzero;fill:rgb(9.803922%,7.843137%,11.764706%);fill-opacity:1;" d="M 35.828125 24.246094 C 35.449219 24.21875 35.019531 24.296875 34.582031 24.472656 C 31.320312 25.78125 27.832031 25.253906 24.640625 25.613281 C 22.117188 25.902344 19.421875 25.222656 17.132812 24.796875 C 16.382812 24.65625 15.589844 24.53125 15.050781 24.601562 C 14.78125 24.640625 14.589844 24.714844 14.453125 24.828125 C 14.316406 24.941406 14.207031 25.09375 14.140625 25.414062 C 14.035156 25.914062 14.121094 26.292969 14.3125 26.585938 C 14.5 26.882812 14.820312 27.113281 15.273438 27.230469 C 16.734375 27.617188 19.199219 26.78125 21.464844 26.34375 C 22.679688 26.105469 24.28125 25.78125 25.703125 25.675781 C 27.46875 25.542969 29.238281 25.300781 31.152344 25.425781 C 33.199219 25.554688 35.238281 26.027344 37.308594 26.773438 C 37.332031 26.667969 37.367188 26.484375 37.351562 26.238281 C 37.308594 25.609375 36.949219 24.769531 36.800781 24.636719 C 36.519531 24.390625 36.207031 24.273438 35.828125 24.246094 Z M 35.828125 24.246094 "/>
<path style=" stroke:none;fill-rule:nonzero;fill:rgb(0%,0%,0%);fill-opacity:0.4;" d="M 35.683594 24.242188 C 35.339844 24.242188 34.964844 24.316406 34.585938 24.472656 C 33.003906 25.105469 31.371094 25.308594 29.742188 25.390625 C 30.207031 25.382812 30.675781 25.394531 31.152344 25.421875 C 31.355469 25.4375 31.558594 25.453125 31.761719 25.476562 C 32.757812 25.339844 33.746094 25.113281 34.710938 24.722656 C 35.144531 24.550781 35.578125 24.472656 35.957031 24.5 C 36.332031 24.523438 36.648438 24.644531 36.929688 24.890625 C 36.953125 24.914062 36.988281 24.964844 37.023438 25.023438 C 36.9375 24.832031 36.855469 24.683594 36.800781 24.636719 C 36.523438 24.390625 36.207031 24.273438 35.828125 24.246094 C 35.78125 24.242188 35.734375 24.242188 35.683594 24.242188 Z M 15.5 24.582031 C 15.335938 24.578125 15.1875 24.582031 15.050781 24.601562 C 14.78125 24.636719 14.589844 24.714844 14.457031 24.828125 C 14.320312 24.9375 14.210938 25.09375 14.144531 25.410156 C 14.039062 25.910156 14.121094 26.285156 14.308594 26.582031 C 14.214844 26.332031 14.191406 26.03125 14.269531 25.664062 C 14.335938 25.347656 14.445312 25.191406 14.582031 25.078125 C 14.71875 24.96875 14.910156 24.890625 15.179688 24.855469 C 15.71875 24.78125 16.511719 24.910156 17.261719 25.046875 C 19.222656 25.414062 21.480469 25.960938 23.671875 25.933594 C 24.351562 25.820312 25.046875 25.722656 25.703125 25.671875 C 26.753906 25.59375 27.804688 25.480469 28.886719 25.421875 C 27.441406 25.464844 26.015625 25.457031 24.640625 25.613281 C 22.117188 25.898438 19.421875 25.222656 17.136719 24.796875 C 16.570312 24.691406 15.984375 24.59375 15.5 24.582031 Z M 28.886719 25.421875 C 29.15625 25.414062 29.425781 25.40625 29.695312 25.390625 C 29.425781 25.398438 29.152344 25.410156 28.886719 25.421875 Z M 28.886719 25.421875 "/>
<path style=" stroke:none;fill-rule:nonzero;fill:rgb(0%,0%,0%);fill-opacity:1;" d="M 18.109375 24.699219 C 17.59375 24.660156 17.054688 24.664062 16.539062 24.667969 C 16.15625 24.722656 15.8125 24.765625 15.859375 25.160156 C 15.890625 25.585938 16.234375 26.101562 16.542969 26.375 C 16.855469 26.648438 17.160156 26.851562 17.574219 26.9375 C 17.921875 26.992188 18.347656 26.765625 18.660156 26.636719 C 19.070312 26.445312 19.628906 26.105469 19.898438 25.738281 C 20.050781 25.519531 20.019531 25.398438 19.871094 25.15625 C 19.726562 24.960938 19.347656 25.039062 19.136719 24.933594 C 18.789062 24.785156 18.488281 24.730469 18.109375 24.699219 Z M 18.109375 24.699219 "/>
<path style=" stroke:none;fill-rule:nonzero;fill:url(#linear0);" d="M 16.566406 24.820312 C 15.78125 25.074219 17.210938 26.292969 17.785156 26.523438 C 18.226562 26.425781 19.332031 25.746094 19.367188 25.242188 C 18.371094 24.667969 17.734375 24.8125 16.566406 24.820312 Z M 16.566406 24.820312 "/>
<path style=" stroke:none;fill-rule:nonzero;fill:rgb(0%,0%,0%);fill-opacity:1;" d="M 35.933594 24.128906 C 35.933594 24.128906 35.644531 24.117188 35.199219 24.207031 C 34.75 24.292969 34.304688 24.324219 33.890625 24.632812 C 33.765625 24.726562 33.496094 24.777344 33.527344 24.933594 C 33.636719 25.480469 34.054688 25.804688 34.386719 25.992188 C 34.722656 26.179688 35.03125 26.253906 35.03125 26.253906 C 35.113281 26.273438 35.199219 26.269531 35.277344 26.242188 C 35.277344 26.242188 35.628906 26.117188 35.929688 25.804688 C 36.230469 25.488281 36.488281 24.921875 36.339844 24.207031 C 36.296875 24.007812 36.136719 24.113281 35.933594 24.128906 Z M 35.933594 24.128906 "/>
<path style=" stroke:none;fill-rule:nonzero;fill:url(#linear1);" d="M 33.941406 24.851562 C 34.539062 24.402344 35.925781 24.292969 35.925781 24.292969 C 36.167969 25.476562 35.136719 25.84375 35.136719 25.84375 C 35.136719 25.84375 34.089844 25.582031 33.941406 24.851562 Z M 33.941406 24.851562 "/>
<path style=" stroke:none;fill-rule:nonzero;fill:rgb(0%,0%,0%);fill-opacity:1;" d="M 33.40625 18.90625 C 32.957031 18.902344 32.484375 19.046875 32.035156 19.332031 C 31.683594 19.554688 31.273438 19.925781 30.921875 20.28125 C 30.746094 20.460938 30.585938 20.628906 30.460938 20.789062 C 30.402344 20.867188 30.347656 20.941406 30.304688 21.015625 C 30.265625 21.078125 30.203125 21.175781 30.203125 21.351562 C 30.203125 21.410156 30.203125 21.472656 30.222656 21.546875 C 30.230469 21.582031 30.242188 21.625 30.277344 21.683594 C 30.289062 21.710938 30.316406 21.757812 30.375 21.808594 C 30.4375 21.859375 30.542969 21.914062 30.671875 21.910156 C 30.75 21.90625 30.765625 21.902344 30.734375 21.90625 C 30.742188 21.90625 30.75 21.902344 30.761719 21.902344 C 30.785156 21.898438 30.820312 21.890625 30.859375 21.886719 C 30.9375 21.871094 31.046875 21.855469 31.183594 21.832031 C 31.453125 21.785156 31.816406 21.722656 32.21875 21.652344 C 32.613281 21.585938 33.011719 21.519531 33.328125 21.476562 C 33.484375 21.453125 33.632812 21.433594 33.742188 21.421875 C 33.796875 21.417969 33.839844 21.410156 33.875 21.40625 C 33.90625 21.40625 33.941406 21.402344 33.925781 21.402344 C 34.261719 21.402344 34.578125 21.3125 34.804688 21.085938 C 35.039062 20.859375 35.121094 20.503906 35.039062 20.183594 C 34.84375 19.398438 34.160156 18.914062 33.40625 18.90625 Z M 33.40625 18.90625 "/>
<path style=" stroke:none;fill-rule:nonzero;fill:rgb(34.117647%,13.72549%,4.705882%);fill-opacity:1;" d="M 33.472656 19.429688 C 32.746094 19.421875 31.949219 19.484375 31.429688 19.964844 C 31.019531 20.332031 30.726562 20.601562 30.421875 21.0625 C 30.289062 21.289062 30.273438 21.425781 30.316406 21.703125 C 30.488281 21.765625 31.285156 21.59375 31.453125 21.535156 C 32.714844 21.085938 32.773438 21.265625 33.738281 21.175781 C 34.136719 21.179688 34.421875 21.101562 34.558594 20.699219 C 34.710938 20.257812 34.097656 20.226562 33.800781 19.902344 C 33.503906 19.59375 33.898438 19.433594 33.472656 19.429688 Z M 33.472656 19.429688 "/>
<path style=" stroke:none;fill-rule:nonzero;fill:rgb(0%,0%,0%);fill-opacity:1;" d="M 19.5 18.882812 C 18.570312 18.882812 18.195312 18.992188 17.4375 19.484375 C 17.019531 19.757812 16.671875 20.035156 16.421875 20.308594 C 16.300781 20.445312 16.191406 20.589844 16.117188 20.761719 C 16.035156 20.945312 15.976562 21.242188 16.144531 21.511719 C 16.203125 21.605469 16.265625 21.671875 16.34375 21.714844 C 16.421875 21.757812 16.496094 21.777344 16.445312 21.753906 C 16.488281 21.773438 16.53125 21.78125 16.566406 21.792969 C 16.632812 21.808594 16.695312 21.816406 16.765625 21.828125 C 16.914062 21.847656 17.109375 21.871094 17.335938 21.890625 C 17.792969 21.929688 18.398438 21.964844 19.058594 21.992188 C 20.359375 22.046875 21.804688 22.136719 22.078125 22.175781 C 22.597656 22.246094 22.871094 22.289062 23.105469 22.289062 C 23.21875 22.289062 23.367188 22.28125 23.519531 22.210938 C 23.695312 22.128906 23.789062 22.007812 23.847656 21.917969 C 23.996094 21.671875 23.902344 21.398438 23.878906 21.339844 C 23.839844 21.253906 23.789062 21.191406 23.761719 21.160156 C 23.695312 21.070312 23.617188 20.992188 23.53125 20.90625 C 23.351562 20.738281 23.121094 20.546875 22.863281 20.339844 C 22.34375 19.929688 21.730469 19.492188 21.257812 19.238281 C 20.769531 18.972656 20.289062 18.882812 19.5 18.882812 Z M 19.5 18.882812 "/>
<path style=" stroke:none;fill-rule:nonzero;fill:rgb(34.117647%,13.72549%,4.705882%);fill-opacity:1;" d="M 17.546875 19.5 C 17 19.84375 16.503906 20.195312 16.179688 20.773438 C 15.910156 21.230469 16.371094 21.578125 16.738281 21.566406 C 17.320312 21.664062 18.101562 21.328125 18.6875 21.367188 C 20.15625 21.445312 21.417969 21.820312 22.878906 22.035156 C 23.15625 22.0625 23.515625 22.058594 23.648438 21.757812 C 23.8125 21.402344 23.398438 21.152344 23.195312 20.929688 C 22.589844 20.421875 22.042969 19.972656 21.371094 19.5625 C 20.445312 19.226562 19.027344 19.230469 17.546875 19.5 Z M 17.546875 19.5 "/>
<path style=" stroke:none;fill-rule:nonzero;fill:url(#radial1);" d="M 23.351562 21.613281 C 23.4375 21.476562 21.800781 20.1875 20.980469 19.742188 C 20.570312 19.519531 20.253906 19.460938 19.496094 19.460938 C 18.589844 19.460938 18.492188 19.488281 17.753906 19.96875 C 16.972656 20.476562 16.507812 20.992188 16.636719 21.207031 C 16.675781 21.265625 17.777344 21.363281 19.082031 21.414062 C 20.390625 21.46875 21.773438 21.554688 22.15625 21.605469 C 23.191406 21.746094 23.269531 21.746094 23.351562 21.613281 Z M 23.351562 21.613281 "/>
<path style=" stroke:none;fill-rule:nonzero;fill:url(#radial2);" d="M 32.144531 21.230469 C 32.945312 21.089844 33.746094 20.976562 33.925781 20.976562 C 34.441406 20.976562 34.726562 20.695312 34.625 20.289062 C 34.378906 19.304688 33.300781 19.03125 32.265625 19.691406 C 31.675781 20.066406 30.628906 21.132812 30.628906 21.351562 C 30.628906 21.425781 30.644531 21.480469 30.660156 21.480469 C 30.675781 21.480469 31.347656 21.367188 32.144531 21.230469 Z M 32.144531 21.230469 "/>
<path style=" stroke:none;fill-rule:nonzero;fill:rgb(0%,0%,0%);fill-opacity:1;" d="M 17.875 19.289062 C 16.863281 19.617188 15.953125 20.246094 15.242188 21.019531 C 14.792969 21.617188 16.121094 22.429688 16.117188 21.777344 C 15.460938 21.199219 16.332031 20.453125 16.808594 20.097656 C 17.152344 19.8125 17.582031 19.636719 17.875 19.289062 Z M 17.875 19.289062 "/>
<path style=" stroke:none;fill-rule:nonzero;fill:rgb(0%,0%,0%);fill-opacity:1;" d="M 22.78125 20.324219 C 23.457031 20.609375 23.980469 21.277344 24.125 21.992188 C 24.296875 22.371094 23.476562 22.945312 23.847656 22.308594 C 23.949219 21.476562 23.082031 21.003906 22.78125 20.324219 Z M 22.78125 20.324219 "/>
<path style=" stroke:none;fill-rule:nonzero;fill:rgb(18.039216%,20.784314%,24.705882%);fill-opacity:1;" d="M 27.722656 17.808594 C 27.90625 17.902344 28.105469 18.042969 28.117188 18.265625 C 28.316406 19.0625 28.367188 19.917969 28.101562 20.703125 C 27.964844 21.03125 27.6875 21.269531 27.464844 21.539062 C 27.320312 21.667969 27.109375 21.570312 27.03125 21.414062 C 26.890625 21.203125 26.917969 20.929688 27.003906 20.699219 C 27.09375 20.429688 27.210938 20.167969 27.226562 19.878906 C 27.289062 19.441406 27.355469 18.996094 27.515625 18.578125 C 27.59375 18.324219 27.664062 18.070312 27.722656 17.808594 Z M 27.722656 17.808594 "/>
<path style=" stroke:none;fill-rule:nonzero;fill:rgb(0%,0%,0%);fill-opacity:1;" d="M 28.03125 21.042969 C 27.101562 21.371094 27.679688 19.972656 27.867188 19.539062 C 28.160156 18.367188 28.171875 20.230469 28.03125 21.042969 Z M 28.03125 21.042969 "/>
<path style=" stroke:none;fill-rule:nonzero;fill:rgb(0%,0%,0%);fill-opacity:1;" d="M 31.4375 19.53125 C 31.820312 18.398438 33.328125 18.105469 33.574219 16.894531 C 33.925781 16.699219 33.726562 18.003906 33.34375 18.125 C 32.863281 18.757812 32.199219 19.285156 31.4375 19.53125 Z M 31.4375 19.53125 "/>
<path style=" stroke:none;fill-rule:nonzero;fill:rgb(0%,0%,0%);fill-opacity:1;" d="M 33.925781 21.4375 C 34.449219 21.261719 35.921875 21.878906 35.769531 20.738281 C 35.136719 20.714844 34.5 21.148438 33.925781 21.4375 Z M 33.925781 21.4375 "/>
</g>
</svg>
