
<svg xmlns="http://www.w3.org/2000/svg" xmlns:xlink="http://www.w3.org/1999/xlink" width="48px" height="48px" viewBox="0 0 48 48" version="1.1">
<g id="surface1">
<path style="fill-rule:nonzero;fill:rgb(100%,100%,100%);fill-opacity:1;stroke-width:20.298223;stroke-linecap:butt;stroke-linejoin:miter;stroke:rgb(29.019608%,68.235294%,90.196078%);stroke-opacity:1;stroke-miterlimit:4;" d="M 73.937498 22.499999 L 325.249992 22.499999 C 347.656241 22.499999 365.84374 40.656249 365.84374 63.093748 L 365.84374 314.406242 C 365.84374 336.812491 347.656241 354.999991 325.249992 354.999991 L 73.937498 354.999991 C 51.531249 354.999991 33.343749 336.812491 33.343749 314.406242 L 33.343749 63.093748 C 33.343749 40.656249 51.531249 22.499999 73.937498 22.499999 Z M 73.937498 22.499999 " transform="matrix(0.125,0,0,0.125,0,0)"/>
<path style=" stroke:none;fill-rule:nonzero;fill:rgb(97.254902%,97.254902%,97.254902%);fill-opacity:1;" d="M 43.207031 26.988281 C 42.988281 27.207031 42.75 27.402344 42.496094 27.574219 C 42.367188 27.660156 42.234375 27.742188 42.097656 27.816406 C 42.507812 27.59375 42.878906 27.3125 43.207031 26.988281 Z M 43.207031 26.988281 "/>
<path style=" stroke:none;fill-rule:nonzero;fill:rgb(97.254902%,97.254902%,97.254902%);fill-opacity:1;" d="M 44.03125 25.882812 C 43.957031 26.019531 43.878906 26.148438 43.792969 26.277344 C 43.621094 26.53125 43.421875 26.769531 43.207031 26.988281 C 43.53125 26.664062 43.8125 26.289062 44.03125 25.882812 Z M 44.03125 25.882812 "/>
<path style=" stroke:none;fill-rule:nonzero;fill:rgb(97.254902%,97.254902%,97.254902%);fill-opacity:1;" d="M 44.394531 25.019531 C 44.347656 25.171875 44.296875 25.320312 44.234375 25.460938 C 44.171875 25.605469 44.105469 25.746094 44.03125 25.882812 C 44.179688 25.609375 44.300781 25.320312 44.394531 25.019531 Z M 44.394531 25.019531 "/>
<path style=" stroke:none;fill-rule:nonzero;fill:rgb(97.254902%,97.254902%,97.254902%);fill-opacity:1;" d="M 44.613281 23.59375 C 44.613281 23.757812 44.601562 23.921875 44.585938 24.085938 C 44.570312 24.246094 44.546875 24.40625 44.515625 24.5625 C 44.480469 24.71875 44.441406 24.871094 44.394531 25.019531 C 44.535156 24.570312 44.613281 24.089844 44.613281 23.59375 Z M 44.613281 23.59375 "/>
<path style=" stroke:none;fill-rule:nonzero;fill:rgb(16.862745%,22.745098%,29.019608%);fill-opacity:1;" d="M 25.84375 6.019531 L 25.84375 22.699219 L 42.523438 22.699219 L 42.523438 10.089844 C 42.523438 7.839844 40.699219 6.019531 38.453125 6.019531 Z M 25.84375 6.019531 "/>
<path style=" stroke:none;fill-rule:nonzero;fill:rgb(21.960784%,30.980392%,40%);fill-opacity:1;" d="M 24.054688 41.167969 L 24.054688 24.488281 L 7.375 24.488281 L 7.375 37.09375 C 7.375 39.34375 9.195312 41.167969 11.445312 41.167969 Z M 24.054688 41.167969 "/>
<path style=" stroke:none;fill-rule:nonzero;fill:rgb(10.980392%,14.901961%,20%);fill-opacity:1;" d="M 7.375 22.699219 L 24.054688 22.699219 L 24.054688 6.019531 L 11.445312 6.019531 C 9.195312 6.019531 7.375 7.839844 7.375 10.089844 Z M 7.375 22.699219 "/>
<path style=" stroke:none;fill-rule:nonzero;fill:rgb(27.058824%,38.823529%,49.803922%);fill-opacity:1;" d="M 42.523438 24.488281 L 25.84375 24.488281 L 25.84375 41.167969 L 38.453125 41.167969 C 40.699219 41.167969 42.523438 39.34375 42.523438 37.09375 Z M 42.523438 24.488281 "/>
</g>
</svg>
