
<svg xmlns="http://www.w3.org/2000/svg" xmlns:xlink="http://www.w3.org/1999/xlink" width="48px" height="48px" viewBox="0 0 48 48" version="1.1">
<g id="surface1">
<path style="fill-rule:nonzero;fill:rgb(40%,40%,40%);fill-opacity:1;stroke-width:28.200493;stroke-linecap:butt;stroke-linejoin:miter;stroke:rgb(18.823529%,20.784314%,27.058824%);stroke-opacity:1;stroke-miterlimit:4;" d="M 81.416667 25.041667 L 430.583333 25.041667 C 461.708333 25.041667 486.958333 50.291667 486.958333 81.416667 L 486.958333 430.583333 C 486.958333 461.708333 461.708333 486.958333 430.583333 486.958333 L 81.416667 486.958333 C 50.291667 486.958333 25.041667 461.708333 25.041667 430.583333 L 25.041667 81.416667 C 25.041667 50.291667 50.291667 25.041667 81.416667 25.041667 Z M 81.416667 25.041667 " transform="matrix(0.09375,0,0,0.09375,0,0)"/>
<path style=" stroke:none;fill-rule:nonzero;fill:rgb(0%,0%,0%);fill-opacity:1;" d="M 8.554688 3.464844 C 5.789062 3.464844 3.546875 5.054688 3.546875 7.015625 L 3.546875 12.273438 L 44.554688 12.273438 L 44.554688 7.015625 C 44.554688 5.054688 42.3125 3.464844 39.546875 3.464844 Z M 8.554688 3.464844 "/>
<path style=" stroke:none;fill-rule:nonzero;fill:rgb(100%,100%,100%);fill-opacity:1;" d="M 30.308594 4.253906 L 26.910156 8.265625 L 31.414062 8.265625 L 34.808594 4.253906 Z M 30.308594 4.253906 "/>
<path style=" stroke:none;fill-rule:nonzero;fill:rgb(100%,100%,100%);fill-opacity:1;" d="M 22.40625 4.253906 L 19.011719 8.265625 L 23.515625 8.265625 L 26.910156 4.253906 Z M 22.40625 4.253906 "/>
<path style=" stroke:none;fill-rule:nonzero;fill:rgb(100%,100%,100%);fill-opacity:1;" d="M 37.820312 4.253906 L 34.421875 8.265625 L 38.925781 8.265625 L 42.324219 4.253906 Z M 37.820312 4.253906 "/>
<path style=" stroke:none;fill-rule:nonzero;fill:rgb(100%,100%,100%);fill-opacity:1;" d="M 7.59375 4.253906 L 4.195312 8.265625 L 8.699219 8.265625 L 12.097656 4.253906 Z M 7.59375 4.253906 "/>
<path style=" stroke:none;fill-rule:nonzero;fill:rgb(100%,100%,100%);fill-opacity:1;" d="M 15.105469 4.253906 L 11.710938 8.265625 L 16.214844 8.265625 L 19.609375 4.253906 Z M 15.105469 4.253906 "/>
<path style=" stroke:none;fill-rule:nonzero;fill:rgb(100%,100%,100%);fill-opacity:1;" d="M 30.308594 12.273438 L 26.910156 8.265625 L 31.414062 8.265625 L 34.808594 12.273438 Z M 30.308594 12.273438 "/>
<path style=" stroke:none;fill-rule:nonzero;fill:rgb(100%,100%,100%);fill-opacity:1;" d="M 22.40625 12.273438 L 19.011719 8.265625 L 23.515625 8.265625 L 26.910156 12.273438 Z M 22.40625 12.273438 "/>
<path style=" stroke:none;fill-rule:nonzero;fill:rgb(100%,100%,100%);fill-opacity:1;" d="M 37.820312 12.273438 L 34.421875 8.265625 L 38.925781 8.265625 L 42.324219 12.273438 Z M 37.820312 12.273438 "/>
<path style=" stroke:none;fill-rule:nonzero;fill:rgb(100%,100%,100%);fill-opacity:1;" d="M 4.195312 8.265625 L 7.59375 12.273438 L 12.097656 12.273438 L 8.699219 8.265625 Z M 4.195312 8.265625 "/>
<path style=" stroke:none;fill-rule:nonzero;fill:rgb(100%,100%,100%);fill-opacity:1;" d="M 15.105469 12.273438 L 11.710938 8.265625 L 16.214844 8.265625 L 19.609375 12.273438 Z M 15.105469 12.273438 "/>
<path style=" stroke:none;fill-rule:nonzero;fill:rgb(100%,100%,100%);fill-opacity:1;" d="M 36.339844 27.152344 L 17.304688 37.859375 L 17.304688 16.445312 Z M 36.339844 27.152344 "/>
</g>
</svg>
