<svg xmlns="http://www.w3.org/2000/svg" width="16" height="16"><path style="fill-rule:nonzero;fill:#58785b;fill-opacity:1;stroke-width:18.73;stroke-linecap:butt;stroke-linejoin:miter;stroke:#3f5641;stroke-opacity:1;stroke-miterlimit:4" d="M78.625 31h354.75C459.625 31 481 52.375 481 78.625v354.75c0 26.25-21.375 47.625-47.625 47.625H78.625C52.375 481 31 459.625 31 433.375V78.625C31 52.375 52.375 31 78.625 31zm0 0" transform="scale(.03125)"/><path style="stroke:none;fill-rule:nonzero;fill:#fff;fill-opacity:1" d="M10.563 3.594h.624c.278 0 .504.215.504.484v.277a.496.496 0 0 1-.504.485h-.624a.496.496 0 0 1-.504-.485v-.277c0-.27.226-.484.504-.484zm0 1.812h.624c.278 0 .504.215.504.485v.277a.496.496 0 0 1-.504.484h-.624a.496.496 0 0 1-.504-.484v-.277c0-.27.226-.485.504-.485zm0 1.938h.624c.278 0 .504.215.504.484v.277a.496.496 0 0 1-.504.485h-.624a.496.496 0 0 1-.504-.485v-.277c0-.27.226-.484.504-.484zm0 1.812h.624c.278 0 .504.215.504.485v.277a.496.496 0 0 1-.504.484h-.624a.496.496 0 0 1-.504-.484v-.277c0-.27.226-.485.504-.485zm0 1.875h.624c.278 0 .504.215.504.485v.277a.496.496 0 0 1-.504.484h-.624a.496.496 0 0 1-.504-.484v-.277c0-.27.226-.485.504-.485zm-5.75-7.437h.625c.277 0 .503.215.503.484v.277a.496.496 0 0 1-.503.485h-.625a.496.496 0 0 1-.504-.485v-.277c0-.27.226-.484.503-.484zm0 1.812h.625c.277 0 .503.215.503.485v.277a.496.496 0 0 1-.503.484h-.625a.496.496 0 0 1-.504-.484v-.277c0-.27.226-.485.503-.485zm0 1.938h.625c.277 0 .503.215.503.484v.277a.496.496 0 0 1-.503.485h-.625a.496.496 0 0 1-.504-.485v-.277c0-.27.226-.484.503-.484zm0 1.812h.625c.277 0 .503.215.503.485v.277a.496.496 0 0 1-.503.484h-.625a.496.496 0 0 1-.504-.484v-.277c0-.27.226-.485.503-.485zm0 1.875h.625c.277 0 .503.215.503.485v.277a.496.496 0 0 1-.503.484h-.625a.496.496 0 0 1-.504-.484v-.277c0-.27.226-.485.503-.485zm0 0"/><path style="stroke:none;fill-rule:nonzero;fill:#49494c;fill-opacity:1" d="M10.102 13.508c-.07.039-.188.086-.258.105-.172.04-3.844.004-3.977-.039-.176-.054-.379-.242-.488-.433-.082-.153-.09-.211-.082-.555.004-.215.008-.617.008-.895-.004-.277-.004-.68-.004-.898.004-.215.004-.633.004-.926V7.074c0-.219.004-.633.011-.918.008-.285 0-.527-.011-.543-.016-.011-.02-.195-.012-.41.016-.512.016-1.398 0-1.734-.023-.473.129-.785.484-.98.164-.09.211-.094 2.102-.11 2.156-.02 2.137-.024 2.414.258.203.199.27.386.27.781 0 .176-.008.328-.024.34-.02.023-.016.508.016 1.445.004.215 0 .399-.012.41-.016.016-.02.266-.016.555.008.289.016.695.016.898-.004.204-.004.622-.004.926v2.781c0 1.235.004 1.567.008 1.809.012.426-.152.762-.445.926zm0 0"/><path style="stroke:none;fill-rule:nonzero;fill:#ccc;fill-opacity:1" d="M9.941 12.895zM7.71 2.434h.43V3.3h-.43zm0 0"/><path style="stroke:none;fill-rule:nonzero;fill:#fff;fill-opacity:1" d="M6.57 9.652c-.027-.027-.035-.082-.035-.254 0-.191.008-.23.047-.289.043-.054.059-.062.137-.058.086.008.093.011.101.078.004.043-.004.074-.02.074-.01 0-.042.02-.066.043-.035.035-.043.074-.043.207a.95.95 0 0 1-.015.2c-.016.042-.063.042-.106 0zm2.75.02c-.02-.008-.027-.07-.027-.2 0-.179-.004-.187-.066-.25-.07-.066-.082-.105-.04-.148.047-.047.145-.031.192.031.043.055.047.086.043.317-.008.262-.016.285-.102.25zm0 0"/><path style="stroke:none;fill-rule:nonzero;fill:#fff;fill-opacity:1" d="M6.332 9.496a1.19 1.19 0 0 1-.016-.25v-.23l.098-.106.098-.101.129.011c.171.016.187.02.18.078-.008.043-.028.051-.114.063a.281.281 0 0 0-.176.078c-.039.035-.078.066-.082.07a.972.972 0 0 0-.023.2c-.008.148-.02.191-.047.195-.016.004-.04 0-.047-.008zm3.231-.019a.273.273 0 0 1-.008-.133c.015-.172-.012-.246-.114-.32a.31.31 0 0 0-.16-.063c-.078 0-.133-.05-.113-.102.012-.023.05-.03.168-.03h.152l.09.1c.11.126.117.145.11.383-.008.172-.012.188-.055.196a.076.076 0 0 1-.07-.031zm0 0"/><path style="stroke:none;fill-rule:nonzero;fill:#fff;fill-opacity:1" d="M6.102 9.332c-.02-.02-.028-.102-.028-.25v-.223l.29-.32.214.008.211.004v.066c0 .067 0 .067-.14.074-.157.008-.172.016-.317.188-.082.098-.09.117-.102.285-.011.16-.02.184-.058.188a.089.089 0 0 1-.07-.02zm0 0"/><path style="stroke:none;fill-rule:nonzero;fill:#fff;fill-opacity:1" d="M6.938 9.332c-.02-.02-.028-.16-.028-.535 0-.469 0-.508-.043-.559-.035-.043-.043-.09-.043-.199v-.144l-.422-.43v-.207a.848.848 0 0 0-.02-.235c-.007-.02-.05-.039-.093-.046l-.074-.016v-.637h.101c.094 0 .098 0 .122.086.015.05.042.094.066.102.023.008.05.05.066.101.028.102.082.114.094.02.012-.082.04-.117.102-.125.035-.008.046-.028.058-.098.008-.086.012-.086.11-.086.097 0 .097 0 .113.086.008.05.016.188.016.305.003.23-.02.281-.118.281-.058 0-.078.047-.078.191 0 .102.074.211.297.426l.121.121v.188a.93.93 0 0 0 .02.219c.011.02.086.03.199.039l.184.015.156.172a.905.905 0 0 0 .187.172c.02 0 .11-.082.203-.18l.172-.183.153.008c.214.007.226-.008.226-.266v-.203l.211-.211c.2-.207.211-.219.207-.313 0-.144-.02-.195-.082-.21-.11-.024-.113-.04-.113-.336 0-.317.008-.34.133-.329.066.008.078.02.097.094.02.067.04.094.078.102.043.008.059.031.067.093.015.098.031.114.074.098.023-.008.035-.043.035-.09 0-.062.012-.078.063-.097.054-.02.066-.036.074-.11.008-.078.012-.082.082-.09.117-.011.133.028.133.348 0 .293-.012.332-.102.332-.062 0-.074.05-.074.297v.2l-.203.19-.2.192-.015.148c-.012.145-.012.153-.082.168-.066.016-.07.028-.082.145-.008.07-.02.14-.02.16-.004.027-.05.035-.226.04a1.068 1.068 0 0 0-.235.023c-.02.02-.03.55-.007.57.007.012.113.023.23.027l.211.012.016.187H8.71c-.242 0-.344-.007-.36-.027-.015-.015-.027-.137-.03-.273a1.3 1.3 0 0 0-.024-.262c-.012-.008-.063.035-.117.098-.059.062-.121.113-.14.113a.496.496 0 0 1-.138-.11.489.489 0 0 0-.125-.113c-.02 0-.027.086-.03.281l-.009.282-.152.008c-.086.003-.16-.004-.18-.02-.015-.012-.031-.066-.035-.113-.008-.078-.02-.098-.07-.121-.047-.024-.059-.047-.059-.106 0-.086-.05-.14-.097-.101-.024.02-.036.086-.04.242l-.007.21-.067.009c-.035.003-.078-.004-.093-.02zm0 0"/><path style="stroke:none;fill-rule:nonzero;fill:#fff;fill-opacity:1" d="M7.348 8.59c-.008-.047-.164-.067-.203-.027-.036.035.023.066.125.066.07 0 .085-.008.078-.04zm2.437.754c-.02-.008-.027-.067-.027-.184 0-.164-.004-.172-.09-.277-.133-.164-.168-.188-.285-.192-.16-.004-.211-.023-.211-.086 0-.054.004-.054.215-.058l.21-.008.145.168a.9.9 0 0 1 .149.191c0 .016.004.11.011.211.016.22-.011.274-.117.235zm-3.918-.156a1.21 1.21 0 0 1-.015-.254v-.239l.343-.398.309.004.309.008v.054c0 .055 0 .055-.258.067-.14.008-.262.015-.266.023-.191.211-.281.344-.281.406 0 .04-.008.133-.016.207-.012.121-.02.137-.062.137a.12.12 0 0 1-.063-.015zm0 0"/><path style="stroke:none;fill-rule:nonzero;fill:#fff;fill-opacity:1" d="M9.992 9.188a.917.917 0 0 1-.015-.22v-.206l-.133-.153a.83.83 0 0 0-.168-.164 1.107 1.107 0 0 0-.223-.015c-.258 0-.297-.012-.289-.086.008-.063-.027-.059.39-.051l.22.004.18.21c.097.118.179.235.179.263.004.023.008.105.012.18.011.198-.004.253-.079.253a.165.165 0 0 1-.074-.015zM7.7 8.012C7.651 8 7.647 7.984 7.644 7.8c-.008-.176-.012-.203-.063-.254a.323.323 0 0 1-.066-.125c-.012-.059-.004-.082.054-.137.035-.039.082-.066.102-.066.066 0 .16.062.187.129.032.078.016.148-.058.222-.047.051-.055.078-.047.188l.008.133h.55l.008-.141c.004-.121-.004-.145-.05-.203-.086-.102-.082-.203.003-.281.07-.067.168-.055.243.03.066.075.062.165-.004.247-.051.059-.055.086-.059.238a.653.653 0 0 1-.02.203c-.011.024-.097.032-.347.036-.184 0-.356-.004-.387-.008zm0 0"/></svg>