<svg xmlns="http://www.w3.org/2000/svg" width="16" height="16"><path style="fill-rule:nonzero;fill:#fff;fill-opacity:1;stroke-width:18.73;stroke-linecap:butt;stroke-linejoin:miter;stroke:#0093b8;stroke-opacity:1;stroke-miterlimit:4" d="M78.625 31h354.75C459.625 31 481 52.375 481 78.625v354.75c0 26.25-21.375 47.625-47.625 47.625H78.625C52.375 481 31 459.625 31 433.375V78.625C31 52.375 52.375 31 78.625 31zm0 0" transform="scale(.03125)"/><path style="stroke:none;fill-rule:evenodd;fill:#c4cbcf;fill-opacity:1" d="M7.992 4.64 6.316 3.567l1.547-1.125L9.54 3.52zm0 0"/><path style="stroke:none;fill-rule:evenodd;fill:#f9de69;fill-opacity:1" d="M6.68 6.82V4.05h2.496v2.77zm0 0"/><path style="stroke:none;fill-rule:evenodd;fill:#c4cbcf;fill-opacity:1" d="M6.207 11.031V6.812h3.441v4.22zm0-5.015V4.848h3.441v1.168zm0 0"/><path style="stroke:none;fill-rule:evenodd;fill:#34495e;fill-opacity:1" d="M5.422 13.559V11h5.156v2.559zm0 0"/></svg>