<svg xmlns="http://www.w3.org/2000/svg" width="16" height="16"><path style="fill-rule:nonzero;fill:#fff;fill-opacity:1;stroke-width:28.191782;stroke-linecap:butt;stroke-linejoin:miter;stroke:#223656;stroke-opacity:1;stroke-miterlimit:4" d="M81.5 25.125h349c31.125 0 56.375 25.25 56.375 56.375v349c0 31.125-25.25 56.375-56.375 56.375h-349c-31.125 0-56.375-25.25-56.375-56.375v-349c0-31.125 25.25-56.375 56.375-56.375zm0 0" transform="scale(.03125)"/><path style="stroke:none;fill-rule:evenodd;fill:#223656;fill-opacity:1" d="M8.004 1.992c.91 0 1.652.934 1.652 2.09v3.543c0 1.156-.742 2.094-1.652 2.094-.914 0-1.652-.938-1.652-2.094V4.082c0-1.156.738-2.09 1.652-2.09zm0 0"/><path style="stroke:none;fill-rule:evenodd;fill:#223656;fill-opacity:1" d="m5.52 8.031-1.036.004c.09 2.145 1.504 3.344 3.04 3.555v1.379a3.078 3.078 0 0 0-1.817 1.023l4.606.016a2.943 2.943 0 0 0-1.735-1.031v-1.399c1.473-.238 2.809-1.402 2.938-3.539l-1.051-.008a2.473 2.473 0 0 1-4.945 0zm0 0"/></svg>