<svg xmlns="http://www.w3.org/2000/svg" width="16" height="16"><path style="fill-rule:nonzero;fill:#fff;fill-opacity:1;stroke-width:18.73;stroke-linecap:butt;stroke-linejoin:miter;stroke:#0093b8;stroke-opacity:1;stroke-miterlimit:4" d="M82.99 37.218h354.75c26.25 0 47.626 21.375 47.626 47.625v354.75c0 26.25-21.375 47.625-47.625 47.625H82.99c-26.25 0-47.625-21.375-47.625-47.625V84.843c0-26.25 21.375-47.625 47.625-47.625zm0 0" transform="translate(-.136 -.194) scale(.03125)"/><path style="stroke:none;fill-rule:nonzero;fill:#333;fill-opacity:1" d="M8 3.047a4.62 4.62 0 0 0-4.621 4.621V9.32a.33.33 0 0 0 .328.332.332.332 0 0 0 .332-.332V7.668a3.961 3.961 0 0 1 7.922 0V9.32c0 .184.148.332.332.332a.33.33 0 0 0 .328-.332V7.668A4.62 4.62 0 0 0 8 3.047zm0 0"/><path style="stroke:none;fill-rule:evenodd;fill:#0cf;fill-opacity:1" d="M3.875 8.66c-1.004 0-1.156.813-1.156 1.817 0 1.003.152 1.816 1.156 1.816 1 0 .492-.813.492-1.816 0-1.004.508-1.817-.492-1.817zm8.352 0c-.95 0-.47.813-.47 1.817 0 1.003-.48 1.816.47 1.816.949 0 1.054-.813 1.054-1.816 0-1.004-.105-1.817-1.054-1.817zm0 0"/><path style="stroke:none;fill-rule:evenodd;fill:#ccc;fill-opacity:1" d="m3.664 11.227.172-.098c.734 1.238 1.508 2.219 2.93 1.777l.039.172c-1.66.45-2.446-.621-3.14-1.851zm0 0"/><path style="stroke:none;fill-rule:evenodd;fill:#000;fill-opacity:1" d="M4.7 8a.994.994 0 0 0-.993.992v2.969a.99.99 0 1 0 1.98 0V8.992A.99.99 0 0 0 4.7 8zm6.6 0a.99.99 0 0 0-.988.992v2.969a.99.99 0 1 0 1.981 0V8.992A.994.994 0 0 0 11.301 8zm-4.6 4.766 1.14-.274.156.485-1.144.27zm0 0"/></svg>