<svg xmlns="http://www.w3.org/2000/svg" width="16" height="16"><path style="fill-rule:nonzero;fill:#fff;fill-opacity:1;stroke-width:7.459075;stroke-linecap:butt;stroke-linejoin:miter;stroke:#000506;stroke-opacity:1;stroke-miterlimit:4" d="M-180.348 209.22h92.34c8.235 0 14.916 6.68 14.916 14.915v92.34c0 8.235-6.68 14.916-14.916 14.916h-92.34c-8.235 0-14.916-6.681-14.916-14.916v-92.34c0-8.235 6.681-14.916 14.916-14.916zm0 0" transform="translate(23.848 -23.926) scale(.11811)"/><path style="stroke:none;fill-rule:evenodd;fill:#000;fill-opacity:1" d="M4.758 3.645c0 .613-.496 1.113-1.11 1.113a1.112 1.112 0 0 1 0-2.223c.614 0 1.11.496 1.11 1.11zm0 0"/><path style="stroke:none;fill-rule:evenodd;fill:#000;fill-opacity:1" d="M14.16 8A6.16 6.16 0 1 1 1.84 8a6.16 6.16 0 0 1 12.32 0zm0 0"/><path style="stroke:none;fill-rule:evenodd;fill:#000;fill-opacity:1" d="M13.426 3.645a1.112 1.112 0 1 1-2.224.002 1.112 1.112 0 0 1 2.224-.002zm0 8.695a1.112 1.112 0 1 1-2.223 0 1.111 1.111 0 0 1 2.223 0zm-8.668 0c0 .613-.496 1.113-1.11 1.113a1.112 1.112 0 0 1 0-2.223c.614 0 1.11.5 1.11 1.11zm0 0"/><path style="stroke:none;fill-rule:evenodd;fill:#f9de69;fill-opacity:1" d="M13.133 8A5.131 5.131 0 0 1 8 13.133 5.131 5.131 0 0 1 2.867 8 5.131 5.131 0 0 1 8 2.867 5.131 5.131 0 0 1 13.133 8zm0 0"/><path style="stroke:none;fill-rule:evenodd;fill:#ccc;fill-opacity:1" d="M10.66 8a2.66 2.66 0 1 1-5.321-.001A2.66 2.66 0 0 1 10.66 8zm0 0"/><path style="stroke:none;fill-rule:evenodd;fill:#f9f9f9;fill-opacity:1" d="M9.137 8c0 .629-.508 1.137-1.137 1.137A1.135 1.135 0 0 1 6.863 8c0-.629.508-1.137 1.137-1.137S9.137 7.371 9.137 8zm0 0"/></svg>