<svg xmlns="http://www.w3.org/2000/svg" width="16" height="16"><path style="fill-rule:nonzero;fill:#fff;fill-opacity:1;stroke-width:27.200571;stroke-linecap:butt;stroke-linejoin:miter;stroke:#4eaa07;stroke-opacity:1;stroke-miterlimit:4" d="M81.746-39.377h336.75c30 0 54.375 24.375 54.375 54.375v336.75c0 30-24.375 54.375-54.375 54.375H81.746c-30 0-54.375-24.375-54.375-54.375V14.998c0-30 24.375-54.375 54.375-54.375zm0 0" transform="translate(.184 2.27) scale(.03125)"/><path style="stroke:none;fill-rule:nonzero;fill:#fff;fill-opacity:1" d="M5.875 2.117c-.238 0-.43.13-.43.29v.69H3.867c-.34 0-.613.184-.613.41v9.966c0 .226.273.41.613.41h8.266c.34 0 .613-.184.613-.41V3.508c0-.227-.273-.41-.613-.41h-1.578v-.692c0-.16-.192-.289-.43-.289zm0 0"/><path style="stroke:none;fill-rule:nonzero;fill:#2ca05a;fill-opacity:1" d="M6.309 2.465c-.188 0-.344.101-.344.23v.707c0 .004.004.008.004.008H4.277c-.304 0-.55.176-.55.39v9.38c0 .215.246.39.55.39h7.446c.304 0 .55-.175.55-.39V3.8c0-.214-.246-.39-.55-.39H10.03s.004-.004.004-.008v-.707c0-.129-.156-.23-.344-.23zm0 0"/><path style="stroke:none;fill-rule:evenodd;fill:#fff;fill-opacity:1" d="M8.043 5.023 5.57 9.176h2.473v2.77l2.477-4.153H8.043zm0 0"/></svg>