<svg xmlns="http://www.w3.org/2000/svg" width="16" height="16"><path style="fill-rule:nonzero;fill:#fff;fill-opacity:1;stroke-width:28.191782;stroke-linecap:butt;stroke-linejoin:miter;stroke:#25aedf;stroke-opacity:1;stroke-miterlimit:4" d="M81.5 25.125h349c31.125 0 56.375 25.25 56.375 56.375v349c0 31.125-25.25 56.375-56.375 56.375h-349c-31.125 0-56.375-25.25-56.375-56.375v-349c0-31.125 25.25-56.375 56.375-56.375zm0 0" transform="scale(.03125)"/><path style="stroke:none;fill-rule:nonzero;fill:#25aedf;fill-opacity:1" d="m4.684 5.445 2.488 2.516-2.488 2.516.789.8 2.07-2.047v4.801l3.773-3.558L9.027 7.96l2.286-2.504-3.75-3.488-.02 4.777-2.066-2.094zM8.68 4.32l1.148 1.09L8.68 6.828zm0 5.02 1.152 1.172-1.148 1.093zm0 0"/></svg>