<svg xmlns="http://www.w3.org/2000/svg" xmlns:xlink="http://www.w3.org/1999/xlink" width="16" height="16"><defs><clipPath id="c"><path d="M0 0h16v16H0z"/></clipPath><clipPath id="b"><path d="M0 0h16v16H0z"/></clipPath><clipPath id="h"><path d="M0 0h16v16H0z"/></clipPath><clipPath id="d"><path d="M0 0h16v16H0z"/></clipPath><clipPath id="f"><path d="M0 0h16v16H0z"/></clipPath><mask id="n"><g filter="url(#a)"><path style="fill:#000;fill-opacity:.8;stroke:none" d="M0 0h16v16H0z"/></g></mask><mask id="t"><g filter="url(#a)"><path style="fill:#000;fill-opacity:.8;stroke:none" d="M0 0h16v16H0z"/></g></mask><mask id="p"><g filter="url(#a)"><path style="fill:#000;fill-opacity:.6;stroke:none" d="M0 0h16v16H0z"/></g></mask><mask id="k"><g filter="url(#a)"><path style="fill:#000;fill-opacity:.8;stroke:none" d="M0 0h16v16H0z"/></g></mask><mask id="r"><g filter="url(#a)"><path style="fill:#000;fill-opacity:.6;stroke:none" d="M0 0h16v16H0z"/></g></mask><g id="j" clip-path="url(#b)"><path style="stroke:none;fill-rule:nonzero;fill:#aab3be;fill-opacity:1" d="M1.59 6.367h12.824v3.531H1.59zm0 0"/></g><g id="o" clip-path="url(#c)"><path style="stroke:none;fill-rule:nonzero;fill:#26282a;fill-opacity:1" d="M10.32 6.355C9.117 6.31 8.137 7.602 8.426 8.75c.172.73.836 1.281 1.57 1.398.7.141 1.465-.152 1.863-.746.567-.804.434-2.086-.41-2.652-.324-.238-.722-.402-1.129-.395zm0 0"/></g><g id="m" clip-path="url(#d)"><path style="stroke:none;fill-rule:nonzero;fill:url(#e)" d="M7.84 8.273a2.46 2.46 0 0 0 2.46 2.461 2.457 2.457 0 0 0 2.458-2.46 2.46 2.46 0 0 0-4.918 0zm0 0"/></g><g id="q" clip-path="url(#f)"><path style="stroke:none;fill-rule:nonzero;fill:url(#g)" d="M10.246 6.602c-1.148.003-2 1.425-1.453 2.437.477.918 1.879 1.203 2.64.484.766-.683.68-2.109-.218-2.64a1.732 1.732 0 0 0-.969-.281zm0 0"/></g><g id="s" clip-path="url(#h)"><path style="fill-rule:nonzero;fill:#d41a1a;fill-opacity:1;stroke-width:1.016941;stroke-linecap:butt;stroke-linejoin:miter;stroke:url(#i);stroke-miterlimit:4" d="M399.375 163.625c0-3.75 1.625-7.125 4.375-9.375.875-.75 2-1.5 3.125-2 1.625-.625 3.375-1.125 5.25-1.125s3.625.5 5.25 1.125c1.125.5 2.125 1.25 3.125 2 2.625 2.25 4.25 5.625 4.25 9.375 0 6.75-5.625 12.375-12.625 12.375s-12.75-5.625-12.75-12.375zm0 0" transform="scale(.03125)"/></g><radialGradient id="g" gradientUnits="userSpaceOnUse" cx="297.172" cy="131.448" fx="297.172" fy="131.448" r="69.473" gradientTransform="matrix(.02755 0 0 .02756 1.2 3.849)"><stop offset="0" style="stop-color:#646464;stop-opacity:1"/><stop offset="1" style="stop-color:#4d4d4d;stop-opacity:1"/></radialGradient><radialGradient id="e" gradientUnits="userSpaceOnUse" cx="290.603" cy="111.369" fx="290.603" fy="111.369" r="89.267" gradientTransform="matrix(.02537 .0302 -.0211 .01772 4.143 -3.66)"><stop offset="0" style="stop-color:#828996;stop-opacity:1"/><stop offset="1" style="stop-color:#5a5c64;stop-opacity:1"/></radialGradient><linearGradient id="i" gradientUnits="userSpaceOnUse" x1="272.797" y1="91.316" x2="397.094" y2="220.285" gradientTransform="matrix(.10522 0 0 .1027 377.37 147.093)"><stop offset="0" style="stop-color:#f55;stop-opacity:1"/><stop offset="1" style="stop-color:#ff0505;stop-opacity:1"/></linearGradient><linearGradient id="l" gradientUnits="userSpaceOnUse" x1="272.797" y1="91.316" x2="397.094" y2="220.285" gradientTransform="translate(38.43 123.193) scale(.88158)"><stop offset="0" style="stop-color:#fff;stop-opacity:1"/><stop offset="1" style="stop-color:#828282;stop-opacity:1"/></linearGradient><filter id="a" filterUnits="objectBoundingBox" x="0%" y="0%" width="100%" height="100%"><feColorMatrix in="SourceGraphic" values="0 0 0 0 1 0 0 0 0 1 0 0 0 0 1 0 0 0 1 0"/></filter></defs><path style="fill-rule:nonzero;fill:#fff;fill-opacity:1;stroke-width:18.73;stroke-linecap:butt;stroke-linejoin:miter;stroke:#707c8a;stroke-opacity:1;stroke-miterlimit:4" d="M78.625 31h354.75C459.625 31 481 52.375 481 78.625v354.75c0 26.25-21.375 47.625-47.625 47.625H78.625C52.375 481 31 459.625 31 433.375V78.625C31 52.375 52.375 31 78.625 31zm0 0" transform="scale(.03125)"/><path style="stroke:none;fill-rule:nonzero;fill:#333;fill-opacity:1" d="M3.719 3.516h2.265c.094 0 .168.074.168.168v.289a.17.17 0 0 1-.168.168H3.72a.17.17 0 0 1-.168-.168v-.29c0-.093.074-.167.168-.167zm0 0"/><path style="stroke:none;fill-rule:nonzero;fill:#707c8a;fill-opacity:1" d="M2.805 3.965c-1.477 0-1.215.777-1.215 1.738v4.86c0 .964-.121 1.738 1.36 1.738h9.933c1.48 0 1.531-.774 1.531-1.739V5.704c0-.96.29-1.738-1.191-1.738zm0 0"/><use xlink:href="#j" mask="url(#k)"/><path style="fill-rule:nonzero;fill:#ececec;fill-opacity:1;stroke-width:2.644728;stroke-linecap:butt;stroke-linejoin:miter;stroke:url(#l);stroke-miterlimit:4" d="M250.875 264.75c0 43.5 35.25 78.75 78.75 78.75s78.625-35.25 78.625-78.75c0-43.375-35.125-78.625-78.625-78.625s-78.75 35.25-78.75 78.625zm-28.125 0c0-31.875 14.125-60.5 36.375-80 7.875-6.875 16.625-12.625 26.25-16.875 13.375-6.125 28.25-9.625 43.875-9.625s30.5 3.5 43.875 9.625c9.625 4.25 18.375 10 26.25 16.875 22.25 19.5 36.375 48.125 36.375 80 0 58.75-47.75 106.5-106.5 106.5s-106.5-47.75-106.5-106.5zm0 0" transform="scale(.03125)"/><use xlink:href="#m" mask="url(#n)"/><use xlink:href="#o" mask="url(#p)"/><use xlink:href="#q" mask="url(#r)"/><path style="stroke:none;fill-rule:nonzero;fill:#ccc;fill-opacity:1" d="M9.637 7.156a.55.55 0 1 1-1.1.002.55.55 0 0 1 1.1-.002zm0 0"/><use xlink:href="#s" mask="url(#t)"/></svg>