<svg xmlns="http://www.w3.org/2000/svg" width="16" height="16"><path style="fill-rule:nonzero;fill:#fff;fill-opacity:1;stroke-width:7.459076;stroke-linecap:butt;stroke-linejoin:miter;stroke:#25aedf;stroke-opacity:1;stroke-miterlimit:4" d="M21.564 168.181h92.34c8.234 0 14.915 6.68 14.915 14.916v92.34c0 8.235-6.68 14.915-14.916 14.915h-92.34c-8.235 0-14.915-6.68-14.915-14.916v-92.34c0-8.234 6.68-14.915 14.916-14.915zm0 0" transform="translate(0 -19.079) scale(.11811)"/><path style="stroke:none;fill-rule:nonzero;fill:#2d2d2d;fill-opacity:1" d="M12.848 7.75a4.87 4.87 0 1 1-9.74.003 4.87 4.87 0 0 1 9.74-.003zm0 0"/><path style="stroke:none;fill-rule:nonzero;fill:#2d2d2d;fill-opacity:1" d="M13.766 7.746A5.764 5.764 0 0 1 8 13.512 5.764 5.764 0 1 1 8 1.984a5.763 5.763 0 0 1 5.766 5.762zm0 0"/><path style="stroke:none;fill-rule:nonzero;fill:#173f7e;fill-opacity:1" d="M12.656 7.746a4.656 4.656 0 1 1-9.312 0A4.655 4.655 0 0 1 8 3.09a4.655 4.655 0 0 1 4.656 4.656zm0 0"/><path style="stroke:none;fill-rule:evenodd;fill:#2980b9;fill-opacity:1" d="M8.113 3.973a3.764 3.764 0 1 0-.003 7.526 3.764 3.764 0 0 0 .003-7.526zm.051 1.918a1.806 1.806 0 1 1-.003 3.612 1.806 1.806 0 0 1 .003-3.612zm0 0"/><path style="stroke:none;fill-rule:evenodd;fill:#bdc3c7;fill-opacity:1" d="M10.375 6.633a1.321 1.321 0 1 0-2.642.002 1.321 1.321 0 0 0 2.642-.002"/></svg>