<svg xmlns="http://www.w3.org/2000/svg" width="16" height="16"><path style="stroke:none;fill-rule:nonzero;fill:gray;fill-opacity:1" d="M3.055 2.422h9.886a.63.63 0 0 1 .63.629v7.254a.628.628 0 0 1-.63.625H3.055a.628.628 0 0 1-.63-.625V3.05a.63.63 0 0 1 .63-.63zm0 0"/><path style="stroke:none;fill-rule:nonzero;fill:#25aedf;fill-opacity:1" d="M3.469 3.219h9.058v6.914H3.47zm0 0"/><path style="stroke:none;fill-rule:nonzero;fill:gray;fill-opacity:1" d="M2.426 11.262H13.57l2.25 2.316H4.676zm0 0"/><path style="stroke:none;fill-rule:nonzero;fill:gray;fill-opacity:1" d="M13.574 11.262H2.43L.18 13.578h11.144zm0 0"/><path style="stroke:none;fill-rule:nonzero;fill:#fff;fill-opacity:1" d="M2.758 11.582h10.48v.137H2.758zm-.368.391h11.215v.132H2.391zm-.43.406h12.071v.137H1.961zm0 0"/><path style="stroke:none;fill-rule:nonzero;fill:#fff;fill-opacity:1" d="m13.176 11.652.078-.082.887.887-.082.078zm0 0"/><path style="stroke:none;fill-rule:nonzero;fill:#fff;fill-opacity:1" d="m13.176 11.652.078-.082.887.887-.082.078zm-.895 0 .082-.082.887.887-.082.078zm-.957 0 .078-.082.887.887-.082.078zm-.906 0 .078-.082.887.887-.082.078zm-.949 0 .082-.082.883.887-.079.078zm-1.137 0 .078-.082.887.887-.082.078zm-5.484 0-.082-.082-.887.887.082.078zm0 0"/><path style="stroke:none;fill-rule:nonzero;fill:#fff;fill-opacity:1" d="m2.848 11.652-.082-.082-.887.887.082.078zm.89 0-.082-.082-.883.887.079.078zm.962 0-.083-.082-.883.887.079.078zm.905 0-.082-.082-.886.887.082.078zm.945 0-.081-.082-.883.887.078.078zm1.141 0-.082-.082-.886.887.082.078zm1 .782.102-.051.582 1.105-.102.055zm-1.343 0-.102-.051-.582 1.105.098.055zm0 0"/><path style="stroke:none;fill-rule:nonzero;fill:#fff;fill-opacity:1" d="M6.691 13.426h2.622v.097H6.69zm.176-.348h2.27v.098h-2.27zm0 0"/><path style="stroke:none;fill-rule:nonzero;fill:#fff;fill-opacity:1" d="M8.078 13.145v.312H7.98v-.312zm0 0"/></svg>