<svg xmlns="http://www.w3.org/2000/svg" width="16" height="16"><path style="fill-rule:nonzero;fill:#fff;fill-opacity:1;stroke-width:28.191782;stroke-linecap:butt;stroke-linejoin:miter;stroke:#25aedf;stroke-opacity:1;stroke-miterlimit:4" d="M81.5 25.125h349c31.125 0 56.375 25.25 56.375 56.375v349c0 31.125-25.25 56.375-56.375 56.375h-349c-31.125 0-56.375-25.25-56.375-56.375v-349c0-31.125 25.25-56.375 56.375-56.375zm0 0" transform="scale(.03125)"/><path style="stroke:none;fill-rule:evenodd;fill:gray;fill-opacity:1" d="m7.047 12.512-1.52.996h4.942l-1.52-.996zm0 0"/><path style="stroke:none;fill-rule:evenodd;fill:gray;fill-opacity:1" d="m7.047 12.207-1.52 1h4.942l-1.52-1zm0 0"/><path style="stroke:none;fill-rule:nonzero;fill:#4d4d4d;fill-opacity:1" d="M6.941 10.379H9.06v2.351H6.94zm0 0"/><path style="stroke:none;fill-rule:nonzero;fill:gray;fill-opacity:1" d="M2.754 2.492h10.492c.367 0 .668.285.668.637v7.348c0 .351-.3.636-.668.636H2.754c-.367 0-.668-.285-.668-.636V3.129c0-.352.3-.637.668-.637zm0 0"/><path style="stroke:none;fill-rule:nonzero;fill:#25aedf;fill-opacity:1" d="M3.195 3.3h9.61v7.005h-9.61zm0 0"/><path style="stroke:none;fill-rule:evenodd;fill:#000;fill-opacity:1" d="M5.527 13.207v.3h4.946v-.3zm0 0"/></svg>