<svg xmlns="http://www.w3.org/2000/svg" width="16" height="16"><path style="fill-rule:nonzero;fill:#ececec;fill-opacity:1;stroke-width:27.983692;stroke-linecap:butt;stroke-linejoin:miter;stroke:#25aedf;stroke-opacity:1;stroke-miterlimit:4" d="M82.75 26.75h346.5c30.875 0 56 25.125 56 56v346.5c0 30.875-25.125 56-56 56H82.75c-30.875 0-56-25.125-56-56V82.75c0-30.875 25.125-56 56-56zm0 0" transform="scale(.03125)"/><path style="stroke:none;fill-rule:nonzero;fill:#6d7a7f;fill-opacity:1" d="M3.777 2.23h8.446c.3 0 .543.247.543.547v10.477c0 .3-.243.547-.543.547H3.777a.545.545 0 0 1-.543-.547V2.777c0-.3.243-.547.543-.547zm0 0"/><path style="stroke:none;fill-rule:nonzero;fill:#15495d;fill-opacity:1" d="M3.945 12.754h4.008c.082 0 .149.07.149.152v.293a.15.15 0 0 1-.149.153H3.945a.153.153 0 0 1-.152-.153v-.293c0-.082.07-.152.152-.152zm0 0"/><path style="stroke:none;fill-rule:nonzero;fill:#25aedf;fill-opacity:1" d="M3.777 2.2h8.446c.3 0 .543.214.543.48v9.183c0 .262-.243.477-.543.477H3.777c-.3 0-.543-.215-.543-.477V2.68c0-.266.243-.48.543-.48zm0 0"/><path style="stroke:none;fill-rule:nonzero;fill:#d1d2d3;fill-opacity:1" d="M10.895 13.05c0 .15-.118.27-.266.27a.267.267 0 0 1-.266-.27.266.266 0 0 1 .532 0zm.824 0a.27.27 0 0 1-.266.27.267.267 0 0 1-.265-.27.265.265 0 1 1 .531.001zm0 0"/><path style="stroke:none;fill-rule:nonzero;fill:#ebebeb;fill-opacity:1" d="M10.46 9.734c.68-.68 1.02-1.5 1.02-2.46 0-.962-.34-1.782-1.02-2.462-.679-.68-1.5-1.019-2.46-1.019s-1.781.34-2.46 1.02c-.68.68-1.02 1.5-1.02 2.46 0 .961.34 1.782 1.02 2.461.679.68 1.5 1.02 2.46 1.02s1.781-.34 2.46-1.02zm0 0"/><path style="fill-rule:nonzero;fill:#367bf0;fill-opacity:1;stroke-width:5.063694;stroke-linecap:butt;stroke-linejoin:miter;stroke:#367bf0;stroke-opacity:1;stroke-miterlimit:0" d="M271.972-857.126h23.189v23.34h-23.189zm0 0" transform="matrix(0 -.02577 .02577 0 30.482 13.4)"/><path style="fill-rule:nonzero;fill:#367bf0;fill-opacity:1;stroke-width:5.063694;stroke-linecap:butt;stroke-linejoin:miter;stroke:#367bf0;stroke-opacity:1;stroke-miterlimit:0" d="M-874.707-184.521c9.245 0 16.823 7.578 16.823 16.823 0 9.397-7.578 16.823-16.823 16.823-9.245 0-16.823-7.426-16.823-16.823 0-9.245 7.578-16.823 16.823-16.823zm-29.1-83.814c6.063 0 11.216 5.002 11.216 11.216 0 6.214-5.153 11.215-11.216 11.215a11.19 11.19 0 0 1-11.215-11.215 11.19 11.19 0 0 1 11.215-11.216zm0 0" transform="translate(30.482 13.4) scale(.02577)"/><path style="fill-rule:evenodd;fill:#367bf0;fill-opacity:1;stroke-width:5.063694;stroke-linecap:butt;stroke-linejoin:miter;stroke:#367bf0;stroke-opacity:1;stroke-miterlimit:0" d="M-885.316-309.105s10.458-22.734 10.76-22.43c.304.454 10.458 22.43 10.458 22.43zm0 0" transform="translate(30.482 13.4) scale(.02577)"/><path style="fill:none;stroke-width:9.140924;stroke-linecap:butt;stroke-linejoin:miter;stroke:#367bf0;stroke-opacity:1;stroke-miterlimit:0" d="M-875.162-189.523c-1.818-19.854-28.796-30.009-28.796-41.528 0-7.88.454-11.215.454-21.218m28.646 39.254c0-20.612 19.4-25.462 29.1-40.77 1.363-2.576.454-25.917.454-27.432m-29.706 113.064v-146.71" transform="translate(30.482 13.4) scale(.02577)"/></svg>