<svg xmlns="http://www.w3.org/2000/svg" xmlns:xlink="http://www.w3.org/1999/xlink" width="16" height="16"><defs><symbol overflow="visible" id="a"><path style="stroke:none" d="M.219-1.781h.234v1.078c0 .2.031.34.094.422.07.086.187.125.344.125.156 0 .265-.04.328-.125.07-.082.11-.223.11-.422v-1.078h.25v1.11c0 .241-.06.417-.173.53-.117.118-.289.172-.515.172-.22 0-.387-.054-.5-.172C.273-.254.219-.43.219-.67zm0 0"/></symbol><symbol overflow="visible" id="b"><path style="stroke:none" d="M1.297-1.719v.235a1.077 1.077 0 0 0-.484-.125.534.534 0 0 0-.313.078c-.063.043-.094.11-.094.203 0 .086.02.148.063.187.05.043.14.075.265.094l.157.031c.175.032.304.094.39.188.082.086.125.2.125.344a.479.479 0 0 1-.172.39c-.117.086-.28.125-.5.125A1.51 1.51 0 0 1 .454 0a.844.844 0 0 1-.282-.078v-.25c.094.055.187.094.281.125a.885.885 0 0 0 .281.047.522.522 0 0 0 .313-.078c.07-.063.11-.141.11-.235s-.028-.16-.079-.203a.528.528 0 0 0-.266-.11l-.14-.03C.492-.853.363-.91.282-.984c-.087-.07-.126-.176-.126-.313 0-.156.055-.281.172-.375a.69.69 0 0 1 .453-.14c.082 0 .164.011.25.03.094.012.18.032.266.063zm0 0"/></symbol><symbol overflow="visible" id="c"><path style="stroke:none" d="M.484-.844v.64H.86c.133 0 .235-.023.297-.077.063-.051.094-.133.094-.25 0-.102-.031-.18-.094-.235A.482.482 0 0 0 .86-.844zm0-.734v.531h.344c.125 0 .211-.02.266-.062.062-.04.093-.11.093-.204 0-.093-.03-.16-.093-.203-.055-.039-.14-.062-.266-.062zm-.25-.203H.86c.176 0 .313.043.407.125a.37.37 0 0 1 .156.312.406.406 0 0 1-.078.266c-.043.062-.117.105-.219.125a.429.429 0 0 1 .266.156c.07.086.109.184.109.297a.464.464 0 0 1-.172.375C1.223-.039 1.07 0 .875 0h-.64zm0 0"/></symbol></defs><path style="stroke:none;fill-rule:nonzero;fill:#637a82;fill-opacity:1" d="M5.71 3.57h4.58V.707H5.71zm0 0"/><path style="stroke:none;fill-rule:nonzero;fill:#fff;fill-opacity:.654902" d="M6.375 2.516H7.52V1.37H6.375zm0 0"/><path style="stroke:none;fill-rule:nonzero;fill:#05353f;fill-opacity:.654902" d="M6.285 2.426H7.43V1.28H6.285zm0 0"/><path style="stroke:none;fill-rule:nonzero;fill:#fff;fill-opacity:.654902" d="M8.664 2.516H9.81V1.37H8.664zm0 0"/><path style="stroke:none;fill-rule:nonzero;fill:#05353f;fill-opacity:.654902" d="M8.57 2.426h1.145V1.28H8.57zm0 0"/><path style="fill-rule:nonzero;fill:#25aedf;fill-opacity:1;stroke-width:9.766254;stroke-linecap:butt;stroke-linejoin:miter;stroke:#25aedf;stroke-opacity:1;stroke-miterlimit:4" d="M155.25 119.125h201.5c8.25 0 15 6.75 15 15v336.25c0 8.25-6.75 15-15 15h-201.5c-8.25 0-15-6.75-15-15v-336.25c0-8.25 6.75-15 15-15zm0 0" transform="scale(.03125)"/><g style="fill:#666;fill-opacity:1"><use xlink:href="#a" x="5.715" y="14.295"/><use xlink:href="#b" x="7.496" y="14.295"/><use xlink:href="#c" x="9.059" y="14.295"/></g><g style="fill:#fff;fill-opacity:1"><use xlink:href="#a" x="5.574" y="14.185"/><use xlink:href="#b" x="7.355" y="14.185"/><use xlink:href="#c" x="8.918" y="14.185"/></g><path style="stroke:none;fill-rule:nonzero;fill:#ecf0f1;fill-opacity:1" d="M8.95 6.914v-.937h.937v.937zm-.86 3.531a.637.637 0 1 1 0 1.274.637.637 0 0 1 0-1.274zM6.895 6.8a.56.56 0 0 1 .562.563c0 .313-.25.567-.562.563a.563.563 0 1 1 0-1.125zm0 0"/><path style="stroke:none;fill-rule:evenodd;fill:#ecf0f1;fill-opacity:1" d="M7.586 5.414s.504-1.137.516-1.121c.011.02.5 1.121.5 1.121zm0 0"/><path style="fill:none;stroke-width:6.079651;stroke-linecap:butt;stroke-linejoin:miter;stroke:#ecf0f1;stroke-opacity:1;stroke-miterlimit:2.012602" d="M256.716 269.494c-3-27.953-43.634-41.861-43.77-58.087 0-11.045.545-15.818.409-29.862m43.361 58.223c0-27.543 30.27-34.088 45.406-54.542 2.181-3.409.682-34.497.682-36.543M256.716 302.9V96.187" transform="translate(.732 2.416) scale(.02865)"/></svg>