<svg xmlns="http://www.w3.org/2000/svg" width="16" height="16"><path style="fill-rule:nonzero;fill:#ececec;fill-opacity:1;stroke-width:27.983692;stroke-linecap:butt;stroke-linejoin:miter;stroke:#25aedf;stroke-opacity:1;stroke-miterlimit:4" d="M82.75 26.75h346.5c30.875 0 56 25.125 56 56v346.5c0 30.875-25.125 56-56 56H82.75c-30.875 0-56-25.125-56-56V82.75c0-30.875 25.125-56 56-56zm0 0" transform="scale(.03125)"/><path style="stroke:none;fill-rule:nonzero;fill:#6d7a7f;fill-opacity:1" d="M4.027 4.938h7.946c.28 0 .511.183.511.41v7.902c0 .227-.23.41-.511.41H4.027c-.28 0-.511-.183-.511-.41V5.348c0-.227.23-.41.511-.41zm0 0"/><path style="stroke:none;fill-rule:nonzero;fill:#15495d;fill-opacity:1" d="M4.184 12.875h3.77c.077 0 .144.05.144.113v.223c0 .062-.067.113-.145.113h-3.77c-.078 0-.14-.05-.14-.113v-.223c0-.062.062-.113.14-.113zm0 0"/><path style="stroke:none;fill-rule:nonzero;fill:#d1d2d3;fill-opacity:1" d="M10.723 13.098c0 .113-.11.203-.25.203-.137 0-.25-.09-.25-.203 0-.11.113-.2.25-.2.14 0 .25.09.25.2zm.777 0c0 .113-.113.203-.25.203-.14 0-.254-.09-.254-.203 0-.11.113-.2.254-.2.137 0 .25.09.25.2zm0 0"/><path style="stroke:none;fill-rule:nonzero;fill:#6d7a7f;fill-opacity:1" d="M4.027 4.074h7.946c.28 0 .511.184.511.41v7.903c0 .226-.23.41-.511.41H4.027c-.28 0-.511-.184-.511-.41V4.484c0-.226.23-.41.511-.41zm0 0"/><path style="stroke:none;fill-rule:nonzero;fill:#15495d;fill-opacity:1" d="M4.184 12.012h3.77c.077 0 .144.05.144.113v.223c0 .062-.067.113-.145.113h-3.77c-.078 0-.14-.05-.14-.113v-.223c0-.063.062-.113.14-.113zm0 0"/><path style="stroke:none;fill-rule:nonzero;fill:#d1d2d3;fill-opacity:1" d="M10.723 12.234c0 .114-.11.204-.25.204-.137 0-.25-.09-.25-.204 0-.109.113-.199.25-.199.14 0 .25.09.25.2zm.777 0c0 .11-.113.204-.25.204-.14 0-.254-.094-.254-.204 0-.109.113-.199.254-.199.137 0 .25.09.25.2zm0 0"/><path style="stroke:none;fill-rule:nonzero;fill:#6d7a7f;fill-opacity:1" d="M4.027 3.227h7.946c.28 0 .511.183.511.41v7.902c0 .227-.23.41-.511.41H4.027c-.28 0-.511-.183-.511-.41V3.637c0-.227.23-.41.511-.41zm0 0"/><path style="stroke:none;fill-rule:nonzero;fill:#15495d;fill-opacity:1" d="M4.184 11.16h3.77c.077 0 .144.05.144.113v.223c0 .063-.067.113-.145.113h-3.77c-.078 0-.14-.05-.14-.113v-.223c0-.062.062-.113.14-.113zm0 0"/><path style="stroke:none;fill-rule:nonzero;fill:#d1d2d3;fill-opacity:1" d="M10.723 11.387c0 .11-.11.199-.25.199-.137 0-.25-.09-.25-.2 0-.113.113-.202.25-.202.14 0 .25.09.25.203zm.777 0c0 .11-.113.199-.25.199-.14 0-.254-.09-.254-.2 0-.113.113-.202.254-.202.137 0 .25.09.25.203zm0 0"/><path style="stroke:none;fill-rule:nonzero;fill:#6d7a7f;fill-opacity:1" d="M4.027 2.363h7.946c.28 0 .511.184.511.41v7.903c0 .226-.23.41-.511.41H4.027c-.28 0-.511-.184-.511-.41V2.773c0-.226.23-.41.511-.41zm0 0"/><path style="stroke:none;fill-rule:nonzero;fill:#15495d;fill-opacity:1" d="M4.184 10.297h3.77c.077 0 .144.05.144.113v.223c0 .062-.067.113-.145.113h-3.77c-.078 0-.14-.05-.14-.113v-.223c0-.062.062-.113.14-.113zm0 0"/><path style="stroke:none;fill-rule:nonzero;fill:#d1d2d3;fill-opacity:1" d="M10.723 10.52c0 .113-.11.203-.25.203-.137 0-.25-.09-.25-.203 0-.11.113-.2.25-.2.14 0 .25.09.25.2zm.777 0c0 .113-.113.203-.25.203-.14 0-.254-.09-.254-.203 0-.11.113-.2.254-.2.137 0 .25.09.25.2zm0 0"/><path style="stroke:none;fill-rule:nonzero;fill:#25aedf;fill-opacity:1" d="M4.027 2.34h7.946c.28 0 .511.16.511.36v6.925c0 .2-.23.36-.511.36H4.027c-.28 0-.511-.16-.511-.36V2.699c0-.199.23-.36.511-.36zm0 0"/><path style="stroke:none;fill-rule:nonzero;fill:#ebebeb;fill-opacity:1" d="M10.316 8.016c.637-.512.957-1.13.957-1.856 0-.723-.32-1.344-.957-1.855-.64-.512-1.41-.77-2.316-.77-.902 0-1.676.258-2.316.77-.637.511-.957 1.133-.957 1.855 0 .727.32 1.344.957 1.856.64.511 1.414.77 2.316.77.906 0 1.676-.259 2.316-.77zm0 0"/></svg>