<svg xmlns="http://www.w3.org/2000/svg" width="16" height="16"><path style="fill-rule:nonzero;fill:#ececec;fill-opacity:1;stroke-width:27.983692;stroke-linecap:butt;stroke-linejoin:miter;stroke:#25aedf;stroke-opacity:1;stroke-miterlimit:4" d="M82.75 26.75h346.5c30.875 0 56 25.125 56 56v346.5c0 30.875-25.125 56-56 56H82.75c-30.875 0-56-25.125-56-56V82.75c0-30.875 25.125-56 56-56zm0 0" transform="scale(.03125)"/><path style="stroke:none;fill-rule:nonzero;fill:#6d7a7f;fill-opacity:1" d="M4.367 3.04h7.266c.258 0 .465.21.465.468v9.012a.467.467 0 0 1-.465.468H4.367a.47.47 0 0 1-.469-.468V3.508a.47.47 0 0 1 .47-.469zm0 0"/><path style="stroke:none;fill-rule:nonzero;fill:#15495d;fill-opacity:1" d="M4.512 12.09h3.445c.074 0 .129.058.129.129v.254c0 .07-.055.129-.129.129H4.512a.13.13 0 0 1-.13-.13v-.253a.13.13 0 0 1 .13-.13zm0 0"/><path style="stroke:none;fill-rule:nonzero;fill:#25aedf;fill-opacity:1" d="M4.367 3.012h7.266c.258 0 .469.183.469.41v7.898c0 .227-.211.41-.47.41H4.368c-.258 0-.465-.183-.465-.41V3.422c0-.227.207-.41.465-.41zm0 0"/><path style="stroke:none;fill-rule:nonzero;fill:#d1d2d3;fill-opacity:1" d="M10.492 12.344a.23.23 0 0 1-.46 0c0-.125.1-.227.23-.227a.23.23 0 0 1 .23.227zm.708 0a.23.23 0 0 1-.46 0 .23.23 0 0 1 .229-.227c.129 0 .23.102.23.227zm0 0"/><path style="stroke:none;fill-rule:nonzero;fill:#ebebeb;fill-opacity:1" d="M10.176 9.512c.582-.586.875-1.29.875-2.117 0-.829-.293-1.532-.875-2.118a2.9 2.9 0 0 0-2.117-.875c-.829 0-1.532.293-2.118.875a2.878 2.878 0 0 0-.875 2.118c0 .828.29 1.53.875 2.117.586.582 1.29.875 2.118.875a2.9 2.9 0 0 0 2.117-.875zm0 0"/><path style="stroke:none;fill-rule:nonzero;fill:#367bf0;fill-opacity:1" d="M7.434 9.148V8.95h1.082v.403H7.434zm0-.597v-.196h1.082v.391H7.434zm.32-.43a.779.779 0 0 1-.555-.543 1.126 1.126 0 0 1 0-.457.776.776 0 0 1 .559-.547c.105-.023.316-.027.418-.004.23.059.441.235.531.453a.905.905 0 0 1 .008.641.79.79 0 0 1-.54.461c-.1.027-.32.023-.421-.004zm.32-.3a.522.522 0 0 0 .375-.395c.02-.09.008-.164-.043-.278-.094-.191-.308-.312-.5-.277-.285.05-.476.336-.402.594.05.176.187.305.371.355.07.02.125.02.2 0zM6.707 6.765a.685.685 0 0 1-.117-.141c0-.031.695-.727.723-.727.035 0 .261.23.261.266 0 .04-.683.719-.722.719-.02 0-.055-.031-.145-.117zm1.984-.235c-.23-.23-.304-.308-.304-.328 0-.02.093-.113.386-.406.309-.313.387-.387.41-.387.024 0 .087.059.329.309.187.191.3.316.304.332.004.035-.746.773-.789.777-.027 0-.074-.043-.336-.297zm-2.449-.22c-.09-.09-.11-.114-.11-.141 0-.027.048-.078.348-.379.27-.27.352-.348.372-.348.039 0 .253.22.253.258 0 .02-.074.102-.343.371-.305.301-.352.348-.38.348-.027 0-.05-.02-.14-.11zm0 0"/></svg>