<svg xmlns="http://www.w3.org/2000/svg" width="16" height="16"><defs><clipPath id="a"><path d="M8 7h4v4H8zm0 0"/></clipPath><clipPath id="b"><path d="M9.57 4.844a3.144 3.144 0 0 0-4.293 1.152 3.14 3.14 0 0 0 1.153 4.29 3.14 3.14 0 0 0 4.293-1.15A3.143 3.143 0 0 0 9.57 4.845zm-1.14 1.98c.41.235.55.762.312 1.172a.857.857 0 1 1-.313-1.172zm0 0"/></clipPath><clipPath id="c"><path d="M4 4h4v4H4zm0 0"/></clipPath><clipPath id="d"><path d="M6.441 10.316a3.145 3.145 0 0 0 4.293-1.148 3.143 3.143 0 0 0-5.441-3.145 3.142 3.142 0 0 0 1.148 4.293zm1.145-1.98a.856.856 0 1 1 1.168-.313.851.851 0 0 1-1.168.313zm0 0"/></clipPath></defs><path style="fill-rule:nonzero;fill:#ececec;fill-opacity:1;stroke-width:27.983692;stroke-linecap:butt;stroke-linejoin:miter;stroke:#25aedf;stroke-opacity:1;stroke-miterlimit:4" d="M82.75 26.75h346.5c30.875 0 56 25.125 56 56v346.5c0 30.875-25.125 56-56 56H82.75c-30.875 0-56-25.125-56-56V82.75c0-30.875 25.125-56 56-56zm0 0" transform="scale(.03125)"/><path style="stroke:none;fill-rule:nonzero;fill:#6d7a7f;fill-opacity:1" d="M3.902 2.402h8.196c.293 0 .527.235.527.528v10.172a.525.525 0 0 1-.527.527H3.902a.528.528 0 0 1-.53-.527V2.93c0-.293.237-.528.53-.528zm0 0"/><path style="stroke:none;fill-rule:nonzero;fill:#15495d;fill-opacity:1" d="M4.063 12.617h3.89c.082 0 .145.063.145.145v.285a.145.145 0 0 1-.145.148h-3.89a.148.148 0 0 1-.145-.148v-.285c0-.082.066-.145.144-.145zm0 0"/><path style="stroke:none;fill-rule:nonzero;fill:#25aedf;fill-opacity:1" d="M3.902 2.371h8.196c.293 0 .53.207.53.461v8.918c0 .254-.237.46-.53.46H3.902c-.293 0-.527-.206-.527-.46V2.832c0-.254.234-.46.527-.46zm0 0"/><path style="stroke:none;fill-rule:nonzero;fill:#d1d2d3;fill-opacity:1" d="M10.813 12.902a.262.262 0 0 1-.262.262.26.26 0 1 1 .262-.262zm.797 0a.26.26 0 0 1-.258.262.258.258 0 0 1-.258-.262.258.258 0 1 1 .515 0zm0 0"/><path style="fill-rule:nonzero;fill:gray;fill-opacity:1;stroke-width:1.569832;stroke-linecap:butt;stroke-linejoin:miter;stroke:#d4d4d4;stroke-opacity:1;stroke-miterlimit:4" d="M255.957 113.035c-69.39.038-125.478 56.218-125.575 125.686-.04 69.255 56.218 125.478 125.608 125.44 69.468.097 125.556-56.083 125.653-125.551-.038-69.39-56.296-125.613-125.686-125.575zm.096 91.352c18.882-.085 34.29 15.36 34.238 34.32-.129 18.824-15.438 34.153-34.32 34.238-18.96-.052-34.289-15.36-34.238-34.32.052-18.96 15.36-34.29 34.32-34.238zm0 0" transform="rotate(30.007 4.227 9.745) scale(.02502)"/><g clip-path="url(#a)"><g clip-path="url(#b)"><path style="stroke:none;fill-rule:evenodd;fill:#f2f2f2;fill-opacity:1" d="m8.5 7.496 3.152.535-1.449 2.508L8.11 7.832zm0 0"/></g></g><g clip-path="url(#c)"><g clip-path="url(#d)"><path style="stroke:none;fill-rule:evenodd;fill:#f2f2f2;fill-opacity:1" d="M7.512 7.664 4.359 7.13l1.45-2.504 2.093 2.703zm0 0"/></g></g><path style="fill-rule:nonzero;fill:#fff;fill-opacity:1;stroke-width:2.780315;stroke-linecap:butt;stroke-linejoin:miter;stroke:#e7e7e7;stroke-opacity:1;stroke-miterlimit:4" d="M256.006 184.943c-29.65.17-53.674 24.137-53.581 53.651-.043 29.593 23.924 53.617 53.516 53.66 29.728-.036 53.752-24.003 53.659-53.517-.036-29.728-24.002-53.752-53.594-53.794zm-.024 25.254c15.668-.031 28.468 12.771 28.499 28.439.031 15.667-12.771 28.467-28.439 28.498-15.745-.104-28.467-12.771-28.498-28.439-.031-15.667 12.771-28.467 28.438-28.498zm0 0" transform="rotate(30.007 4.227 9.745) scale(.02502)"/></svg>