<svg xmlns="http://www.w3.org/2000/svg" width="16" height="16"><defs><clipPath id="a"><path d="M8 7h4v4H8zm0 0"/></clipPath><clipPath id="b"><path d="M9.582 4.438a3.16 3.16 0 1 0 1.156 4.316 3.16 3.16 0 0 0-1.156-4.317zM8.43 6.425a.863.863 0 1 1-.861 1.495.863.863 0 0 1 .86-1.495zm0 0"/></clipPath><clipPath id="c"><path d="M4 4h4v4H4zm0 0"/></clipPath><clipPath id="d"><path d="M6.434 9.941A3.162 3.162 0 1 0 9.59 4.464a3.162 3.162 0 0 0-3.157 5.477zM7.582 7.95a.863.863 0 1 1 .863-1.49.863.863 0 0 1-.863 1.49zm0 0"/></clipPath></defs><path style="fill-rule:nonzero;fill:#ececec;fill-opacity:1;stroke-width:27.983692;stroke-linecap:butt;stroke-linejoin:miter;stroke:#25aedf;stroke-opacity:1;stroke-miterlimit:4" d="M82.75 26.75h346.5c30.875 0 56 25.125 56 56v346.5c0 30.875-25.125 56-56 56H82.75c-30.875 0-56-25.125-56-56V82.75c0-30.875 25.125-56 56-56zm0 0" transform="scale(.03125)"/><path style="stroke:none;fill-rule:nonzero;fill:#6d7a7f;fill-opacity:1" d="M4.11 2.363h7.78c.278 0 .505.227.505.504v9.656c0 .278-.227.5-.504.5H4.109a.502.502 0 0 1-.504-.5V2.867c0-.277.227-.504.504-.504zm0 0"/><path style="stroke:none;fill-rule:nonzero;fill:#15495d;fill-opacity:1" d="M4.39 12.063h7.184c.145 0 .266.062.266.14v.27c0 .078-.121.14-.266.14H4.391c-.149 0-.266-.062-.266-.14v-.27c0-.078.117-.14.266-.14zm0 0"/><path style="stroke:none;fill-rule:nonzero;fill:#25aedf;fill-opacity:1" d="M4.11 2.336h7.78c.278 0 .505.195.505.441v8.461c0 .246-.227.442-.504.442H4.109c-.277 0-.504-.196-.504-.442v-8.46c0-.247.227-.442.504-.442zm0 0"/><path style="stroke:none;fill-rule:nonzero;fill:#3ecdf6;fill-opacity:1" d="M5.012 12.242a3.68 3.68 0 0 0 2.894 1.422c1.133 0 2.2-.527 2.895-1.422zm0 0"/><path style="fill-rule:nonzero;fill:gray;fill-opacity:1;stroke-width:1.569832;stroke-linecap:butt;stroke-linejoin:miter;stroke:#d4d4d4;stroke-opacity:1;stroke-miterlimit:4" d="M256.07 113.077c-69.385-.077-125.585 56.202-125.66 125.587.058 69.307 56.201 125.585 125.509 125.527 69.385.076 125.585-56.202 125.661-125.587-.058-69.308-56.201-125.586-125.509-125.527zm-.152 91.288c18.978-.027 34.29 15.322 34.316 34.3.027 18.976-15.321 34.288-34.164 34.237-18.978.027-34.29-15.321-34.316-34.299.05-18.842 15.322-34.289 34.164-34.238zm0 0" transform="matrix(.0218 .01259 -.01259 .0218 5.423 -1.25)"/><g clip-path="url(#a)"><g clip-path="url(#b)"><path style="stroke:none;fill-rule:evenodd;fill:#f2f2f2;fill-opacity:1" d="m8.504 7.105 3.172.536-1.457 2.523-2.106-2.723zm0 0"/></g></g><g clip-path="url(#c)"><g clip-path="url(#d)"><path style="stroke:none;fill-rule:evenodd;fill:#f2f2f2;fill-opacity:1" d="m7.512 7.273-3.176-.535 1.457-2.523 2.11 2.719zm0 0"/></g></g><path style="fill-rule:nonzero;fill:#fff;fill-opacity:1;stroke-width:2.780315;stroke-linecap:butt;stroke-linejoin:miter;stroke:#e7e7e7;stroke-opacity:1;stroke-miterlimit:4" d="M256.005 184.964c-29.678.113-53.61 24.143-53.575 53.687-.099 29.621 23.932 53.553 53.553 53.653 29.678-.113 53.688-24.01 53.575-53.687.099-29.622-23.931-53.554-53.553-53.653zm.055 25.232c15.57-.03 28.37 12.827 28.4 28.398-.026 15.782-12.75 28.503-28.532 28.477-15.57.031-28.291-12.692-28.4-28.397.026-15.783 12.75-28.504 28.532-28.478zm0 0" transform="matrix(.0218 .01259 -.01259 .0218 5.423 -1.25)"/></svg>