<svg xmlns="http://www.w3.org/2000/svg" width="16" height="16"><defs><clipPath id="a"><path d="M8 7h4v4H8zm0 0"/></clipPath><clipPath id="b"><path d="M9.617 4.754a3.233 3.233 0 1 0 1.184 4.418 3.232 3.232 0 0 0-1.184-4.418zM8.441 6.789a.881.881 0 1 1-.882 1.527.881.881 0 1 1 .882-1.527zm0 0"/></clipPath><clipPath id="c"><path d="M4 4h4v4H4zm0 0"/></clipPath><clipPath id="d"><path d="M6.395 10.383a3.232 3.232 0 0 0 4.418-1.184A3.233 3.233 0 1 0 5.21 5.965a3.236 3.236 0 0 0 1.184 4.418zM7.57 8.348a.881.881 0 0 1-.32-1.207.877.877 0 0 1 1.203-.32.881.881 0 1 1-.883 1.527zm0 0"/></clipPath></defs><path style="fill-rule:nonzero;fill:#ececec;fill-opacity:1;stroke-width:27.983692;stroke-linecap:butt;stroke-linejoin:miter;stroke:#25aedf;stroke-opacity:1;stroke-miterlimit:4" d="M82.75 26.75h346.5c30.875 0 56 25.125 56 56v346.5c0 30.875-25.125 56-56 56H82.75c-30.875 0-56-25.125-56-56V82.75c0-30.875 25.125-56 56-56zm0 0" transform="scale(.03125)"/><path style="stroke:none;fill-rule:nonzero;fill:#6d7a7f;fill-opacity:1" d="M3.781 2.238h8.438c.3 0 .543.242.543.543V13.25c0 .3-.242.543-.543.543H3.78a.542.542 0 0 1-.543-.543V2.781c0-.3.242-.543.543-.543zm0 0"/><path style="stroke:none;fill-rule:nonzero;fill:#15495d;fill-opacity:1" d="M3.95 12.75h4.003c.082 0 .149.07.149.152v.293a.152.152 0 0 1-.149.153H3.95a.153.153 0 0 1-.152-.153v-.293c0-.082.066-.152.152-.152zm0 0"/><path style="stroke:none;fill-rule:nonzero;fill:#25aedf;fill-opacity:1" d="M3.781 2.207h8.438c.3 0 .543.211.543.477v9.175c0 .262-.242.477-.543.477H3.78c-.3 0-.543-.215-.543-.477V2.684c0-.266.242-.477.543-.477zm0 0"/><path style="stroke:none;fill-rule:nonzero;fill:#d1d2d3;fill-opacity:1" d="M10.895 13.047a.267.267 0 0 1-.27.265.266.266 0 0 1-.266-.265c0-.145.121-.266.266-.266a.27.27 0 0 1 .27.266zm.82 0a.263.263 0 0 1-.266.265.266.266 0 1 1 .266-.266zm0 0"/><path style="fill-rule:nonzero;fill:gray;fill-opacity:1;stroke-width:1.569832;stroke-linecap:butt;stroke-linejoin:miter;stroke:#d4d4d4;stroke-opacity:1;stroke-miterlimit:4" d="M256.037 113.107c-69.39-.048-125.548 56.196-125.597 125.587-.048 69.39 56.196 125.547 125.586 125.596 69.315-.083 125.548-56.195 125.597-125.586.048-69.39-56.271-125.68-125.586-125.597zm-.027 91.273c18.89-.047 34.218 15.276 34.264 34.166-.084 18.966-15.407 34.294-34.297 34.34-18.89.047-34.218-15.276-34.264-34.166.085-18.966 15.407-34.294 34.297-34.34zm0 0" transform="rotate(29.995 4.668 9.476) scale(.02575)"/><g clip-path="url(#a)"><g clip-path="url(#b)"><path style="stroke:none;fill-rule:evenodd;fill:#f2f2f2;fill-opacity:1" d="m8.516 7.484 3.242.547-1.488 2.582-2.157-2.785zm0 0"/></g></g><g clip-path="url(#c)"><g clip-path="url(#d)"><path style="stroke:none;fill-rule:evenodd;fill:#f2f2f2;fill-opacity:1" d="m7.5 7.652-3.246-.547 1.488-2.582L7.898 7.31zm0 0"/></g></g><path style="fill-rule:nonzero;fill:#fff;fill-opacity:1;stroke-width:2.780315;stroke-linecap:butt;stroke-linejoin:miter;stroke:#e7e7e7;stroke-opacity:1;stroke-miterlimit:4" d="M256 184.944c-29.56.075-53.667 24.153-53.592 53.711-.056 29.634 23.946 53.611 53.58 53.667 29.558-.075 53.666-24.153 53.591-53.711.056-29.634-23.946-53.61-53.58-53.667zm.017 25.212c15.768.005 28.43 12.837 28.35 28.473.126 15.691-12.63 28.486-28.397 28.48-15.767-.004-28.355-12.705-28.35-28.472-.126-15.691 12.63-28.486 28.397-28.48zm0 0" transform="rotate(29.995 4.668 9.476) scale(.02575)"/></svg>