<svg xmlns="http://www.w3.org/2000/svg" width="16" height="16"><path style="fill-rule:nonzero;fill:#fff;fill-opacity:1;stroke-width:28.191782;stroke-linecap:butt;stroke-linejoin:miter;stroke:#666;stroke-opacity:1;stroke-miterlimit:4" d="M81.5 25.125h349c31.125 0 56.375 25.25 56.375 56.375v349c0 31.125-25.25 56.375-56.375 56.375h-349c-31.125 0-56.375-25.25-56.375-56.375v-349c0-31.125 25.25-56.375 56.375-56.375zm0 0" transform="scale(.03125)"/><path style="stroke:none;fill-rule:nonzero;fill:#000;fill-opacity:.0980392" d="m13.398 4.059-1.93-1.93H3.247a.336.336 0 0 0-.25.101.336.336 0 0 0-.101.25v11.332a.348.348 0 0 0 .351.352h9.797a.345.345 0 0 0 .25-.101.34.34 0 0 0 .105-.25zm0 0"/><path style="stroke:none;fill-rule:nonzero;fill:#333;fill-opacity:1" d="m13.105 3.254-1.418-1.418h-.703v3.422c-.004.133-.074.199-.214.199H3.918c-.137 0-.211-.066-.215-.2v-3.42h-.746a.345.345 0 0 0-.355.351V13.56a.37.37 0 0 0 .101.21.35.35 0 0 0 .254.106h.695V8.352c0-.141.07-.211.211-.211h7.98c.141 0 .212.07.212.21v5.524h.699a.34.34 0 0 0 .25-.105.347.347 0 0 0 .101-.211c0-.012.004-.028.004-.04V3.255zm0 0"/><path style="stroke:none;fill-rule:nonzero;fill:#ccc;fill-opacity:1" d="M10.77 5.457c.14 0 .21-.066.214-.2v-3.42H6.016v3.621zm0 0"/><path style="stroke:none;fill-rule:nonzero;fill:#fff;fill-opacity:1" d="M12.055 8.352c0-.141-.07-.211-.211-.211h-7.98c-.141 0-.212.07-.212.21v5.051h8.403zm0 0"/><path style="stroke:none;fill-rule:nonzero;fill:#666;fill-opacity:1" d="M6.016 5.457V1.836H3.703v3.422c.004.133.078.199.215.199zm0 0"/><path style="stroke:none;fill-rule:nonzero;fill:#a8babe;fill-opacity:1" d="M3.652 13.402v.473h8.403v-.473zm0 0"/><path style="stroke:none;fill-rule:nonzero;fill:#666;fill-opacity:1" d="M10.164 2.816c0-.144-.07-.214-.21-.214h-.485c-.14 0-.211.07-.211.214v1.73c0 .141.07.216.21.216h.485c.14 0 .211-.074.211-.215zm0 0"/><path style="stroke:none;fill-rule:nonzero;fill:#fff;fill-opacity:1" d="M3.39 3.773V2.727c0-.082-.042-.125-.128-.125H3.02c-.083 0-.125.043-.125.125v1.046c0 .086.042.125.125.125h.242c.086 0 .129-.039.129-.125zm0 0"/><path style="stroke:none;fill-rule:nonzero;fill:#f9d346;fill-opacity:1" d="M3.145 12.918a.305.305 0 0 0-.215.09.295.295 0 0 0-.086.215c0 .086.027.156.086.214a.29.29 0 0 0 .215.09.292.292 0 0 0 .218-.09.289.289 0 0 0 .086-.214.295.295 0 0 0-.086-.215.307.307 0 0 0-.218-.09zm9.23.09a.298.298 0 0 0-.09.215c0 .086.031.156.09.214.059.063.129.09.215.09a.283.283 0 0 0 .215-.09.292.292 0 0 0 .09-.214.298.298 0 0 0-.09-.215.298.298 0 0 0-.215-.09.292.292 0 0 0-.215.09zm0 0"/></svg>