<svg xmlns="http://www.w3.org/2000/svg" width="16" height="16"><path style="fill-rule:nonzero;fill:#fff;fill-opacity:1;stroke-width:28.282129;stroke-linecap:butt;stroke-linejoin:miter;stroke:#223656;stroke-opacity:1;stroke-miterlimit:4" d="M80.875 24.375h350.25c31.25 0 56.5 25.25 56.5 56.5v350.25c0 31.25-25.25 56.5-56.5 56.5H80.875c-31.25 0-56.5-25.25-56.5-56.5V80.875c0-31.25 25.25-56.5 56.5-56.5zm0 0" transform="scale(.03125)"/><path style="stroke:none;fill-rule:evenodd;fill:#223656;fill-opacity:1" d="M6.031 6.559h3.95v7.027H6.03zm0 0"/><path style="fill:none;stroke-width:26.238472;stroke-linecap:square;stroke-linejoin:miter;stroke:#fff;stroke-opacity:1;stroke-miterlimit:2.012602" d="M302.75 291.125c0-23.25-17.875-42-40.125-42-22.125 0-40.125 18.75-40.125 42 0 23.125 18 41.875 40.125 41.875 22.25 0 40.125-18.75 40.125-41.875" transform="scale(.03125)"/><path style="fill:none;stroke-width:26.394171;stroke-linecap:square;stroke-linejoin:miter;stroke:#d41a1a;stroke-opacity:1;stroke-miterlimit:2.012602" d="M326 164a90.403 90.403 0 0 0-69.625-31.75c-26.875.125-52.125 12.125-69.375 32.625" transform="scale(.03125)"/><path style="fill:none;stroke-width:26.394171;stroke-linecap:square;stroke-linejoin:miter;stroke:#d41a1a;stroke-opacity:1;stroke-miterlimit:2" d="M370.25 125.25c-28.75-33.375-70.625-52.375-114.625-52.125-44 .375-85.625 20-113.875 53.75" transform="scale(.03125)"/></svg>