<svg xmlns="http://www.w3.org/2000/svg" width="16" height="16"><path style="fill-rule:nonzero;fill:#ecf0f1;fill-opacity:1;stroke-width:7.956348;stroke-linecap:butt;stroke-linejoin:miter;stroke:#95a5a6;stroke-opacity:1;stroke-miterlimit:4" d="M-15.118 273.985h98.496c8.784 0 15.91 7.126 15.91 15.91v98.496c0 8.784-7.126 15.91-15.91 15.91h-98.496c-8.784 0-15.91-7.126-15.91-15.91v-98.496c0-8.784 7.126-15.91 15.91-15.91zm0 0" transform="translate(4.22 -29.553) scale(.11073)"/><path style="stroke:none;fill-rule:nonzero;fill:#7f8c8d;fill-opacity:1" d="M5.441 6.191a1.71 1.71 0 0 0-.703.141 1.54 1.54 0 0 0-.554.387c-.153.164-.27.355-.352.578A1.985 1.985 0 0 0 3.711 8c0 .25.039.484.121.703.082.223.2.414.352.578.152.168.34.297.554.39.211.09.446.138.703.138.22 0 .422-.032.614-.098a1.46 1.46 0 0 0 .488-.277 1.35 1.35 0 0 0 .336-.446 1.63 1.63 0 0 0 .148-.597h-.906a.705.705 0 0 1-.203.468c-.121.114-.285.172-.496.172a.756.756 0 0 1-.363-.082.731.731 0 0 1-.254-.234 1.02 1.02 0 0 1-.145-.332A1.534 1.534 0 0 1 4.613 8c0-.133.016-.262.047-.383a1.02 1.02 0 0 1 .145-.332.676.676 0 0 1 .254-.226.715.715 0 0 1 .363-.09.77.77 0 0 1 .476.14c.125.094.2.223.223.395h.906a1.153 1.153 0 0 0-.152-.543 1.333 1.333 0 0 0-.363-.418 1.65 1.65 0 0 0-.508-.262 1.841 1.841 0 0 0-.563-.09zm6.02.075v3.468h.828V6.266zm-3.8.183v.762h-.419v.535h.418v1.125c0 .176.012.324.04.438a.585.585 0 0 0 .14.265.556.556 0 0 0 .27.14c.113.032.257.044.437.044.058 0 .14-.004.254-.012.09-.008.152-.012.195-.012v-.609c-.023 0-.062.004-.11.008-.046.004-.081.004-.105.004a.43.43 0 0 1-.222-.047c-.047-.04-.07-.102-.07-.195V7.746h.507v-.535h-.508v-.762zm3.304.715a.875.875 0 0 0-.469.125.745.745 0 0 0-.293.367h-.008v-.445h-.8v2.523h.824v-1.25a.587.587 0 0 1 .62-.597c.095 0 .2.015.317.05v-.753a.903.903 0 0 0-.191-.02zm0 0"/></svg>