<svg xmlns="http://www.w3.org/2000/svg" xmlns:xlink="http://www.w3.org/1999/xlink" width="16" height="16"><defs><symbol overflow="visible" id="a"><path style="stroke:none" d="M.156-.11H.36v-.687L.141-.75v-.125l.218-.031h.125v.797h.204V0H.155zm0 0"/></symbol><symbol overflow="visible" id="b"><path style="stroke:none" d="M.234-.11h.438V0H.094v-.11L.28-.296l.156-.156a.338.338 0 0 0 .079-.11.179.179 0 0 0 .03-.093.157.157 0 0 0-.062-.125.171.171 0 0 0-.125-.047.282.282 0 0 0-.125.031 1.48 1.48 0 0 0-.14.047v-.125c.05-.008.097-.02.14-.031A.644.644 0 0 1 .36-.922a.31.31 0 0 1 .22.078.2.2 0 0 1 .093.172.2.2 0 0 1-.031.11.553.553 0 0 1-.079.125 1.815 1.815 0 0 0-.093.109C.414-.273.336-.203.234-.11zm0 0"/></symbol><symbol overflow="visible" id="c"><path style="stroke:none" d="M.5-.484c.063.011.11.039.14.078.032.031.047.078.047.14a.267.267 0 0 1-.093.22C.539-.005.457.015.344.015A.644.644 0 0 1 .219 0a.238.238 0 0 1-.125-.031v-.11c.031.024.066.04.11.047h.124a.406.406 0 0 0 .188-.031.172.172 0 0 0 .062-.14.157.157 0 0 0-.062-.126.256.256 0 0 0-.157-.046H.25v-.094h.11c.062 0 .109-.008.14-.031a.148.148 0 0 0 .047-.11c0-.05-.016-.086-.047-.11C.469-.811.422-.827.36-.827c-.032 0-.07.008-.11.015a1.946 1.946 0 0 1-.125.032v-.11A.644.644 0 0 1 .25-.906a.644.644 0 0 1 .125-.016c.094 0 .164.024.219.063.05.043.078.101.078.171a.165.165 0 0 1-.047.125.238.238 0 0 1-.125.079zm0 0"/></symbol><symbol overflow="visible" id="d"><path style="stroke:none" d="m.469-.797-.313.485H.47zm-.031-.11h.156v.595h.125v.093H.594V0H.469v-.219H.063v-.11zm0 0"/></symbol><symbol overflow="visible" id="e"><path style="stroke:none" d="M.14-.906h.485v.094H.25v.234c.02-.008.035-.016.047-.016a.161.161 0 0 1 .062-.015c.102 0 .18.03.235.093a.273.273 0 0 1 .094.22c0 .105-.032.183-.094.233a.369.369 0 0 1-.25.079A.644.644 0 0 1 .219 0a.439.439 0 0 1-.125-.016V-.14a.37.37 0 0 0 .11.047h.124c.07 0 .129-.015.172-.047a.218.218 0 0 0 .063-.156.172.172 0 0 0-.063-.14A.25.25 0 0 0 .328-.5a.392.392 0 0 0-.094.016.179.179 0 0 0-.093.03zm0 0"/></symbol><symbol overflow="visible" id="f"><path style="stroke:none" d="M.406-.5a.152.152 0 0 0-.125.063c-.031.03-.047.078-.047.14 0 .074.016.133.047.172.031.031.07.047.125.047.063 0 .11-.016.14-.047a.273.273 0 0 0 .048-.172c0-.062-.016-.11-.047-.14A.172.172 0 0 0 .407-.5zm.25-.39v.109a.879.879 0 0 1-.094-.031C.532-.82.5-.829.47-.829c-.086 0-.149.031-.188.094A.427.427 0 0 0 .203-.5a.827.827 0 0 1 .094-.078.282.282 0 0 1 .125-.031c.094 0 .164.03.219.093a.31.31 0 0 1 .078.22.318.318 0 0 1-.094.233C.57-.007.5.017.406.017.301.016.223-.02.172-.094.117-.176.094-.297.094-.454a.57.57 0 0 1 .093-.343.353.353 0 0 1 .282-.125c.031 0 .062.008.094.016.03 0 .062.008.093.015zm0 0"/></symbol><symbol overflow="visible" id="g"><path style="stroke:none" d="M.11-.906h.578v.047L.358 0H.234l.313-.813H.109zm0 0"/></symbol><symbol overflow="visible" id="h"><path style="stroke:none" d="M.39-.438a.218.218 0 0 0-.14.047C.219-.359.203-.312.203-.25c0 .055.016.094.047.125.04.031.086.047.14.047.063 0 .11-.016.141-.047A.152.152 0 0 0 .594-.25.172.172 0 0 0 .53-.39C.5-.423.453-.438.391-.438zM.282-.483a.236.236 0 0 1-.14-.063.268.268 0 0 1-.032-.14c0-.07.024-.13.079-.172A.323.323 0 0 1 .39-.922c.093 0 .164.024.218.063a.216.216 0 0 1 .079.171.218.218 0 0 1-.047.141.225.225 0 0 1-.125.063.223.223 0 0 1 .14.078.256.256 0 0 1 .047.156.274.274 0 0 1-.078.203C.57-.004.492.016.391.016a.404.404 0 0 1-.235-.063C.102-.097.078-.164.078-.25c0-.063.016-.113.047-.156a.297.297 0 0 1 .156-.078zM.234-.688c0 .055.008.094.032.125.03.024.07.032.125.032.062 0 .101-.008.125-.031a.165.165 0 0 0 .046-.125c0-.04-.015-.07-.046-.094C.492-.812.453-.828.39-.828a.165.165 0 0 0-.125.047c-.024.023-.032.054-.032.094zm0 0"/></symbol><symbol overflow="visible" id="i"><path style="stroke:none" d="M.14-.016v-.109a.937.937 0 0 0 .094.031h.094c.082 0 .145-.023.188-.078.039-.05.062-.133.062-.25a.217.217 0 0 1-.094.094.322.322 0 0 1-.109.016c-.094 0-.168-.024-.219-.079C.102-.44.078-.52.078-.625c0-.094.024-.164.078-.219a.333.333 0 0 1 .219-.078.28.28 0 0 1 .25.125c.05.074.078.188.078.344a.51.51 0 0 1-.11.344.308.308 0 0 1-.265.125C.297.016.266.008.234 0a.263.263 0 0 1-.093-.016zm.235-.39c.063 0 .11-.016.14-.047a.273.273 0 0 0 .047-.172c0-.063-.015-.11-.046-.14a.172.172 0 0 0-.141-.063.152.152 0 0 0-.125.062c-.031.032-.047.079-.047.141 0 .074.016.133.047.172.031.031.07.047.125.047zm0 0"/></symbol><symbol overflow="visible" id="j"><path style="stroke:none" d="M.39-.828c-.062 0-.109.031-.14.094a.653.653 0 0 0-.047.28c0 .126.016.22.047.282.031.063.078.094.14.094.07 0 .126-.031.157-.094a.653.653 0 0 0 .047-.281.653.653 0 0 0-.047-.281.164.164 0 0 0-.156-.094zm0-.094c.102 0 .18.043.235.125.063.074.094.188.094.344 0 .156-.031.277-.094.36a.272.272 0 0 1-.234.109.292.292 0 0 1-.235-.11C.102-.176.078-.297.078-.454c0-.155.024-.269.078-.343a.286.286 0 0 1 .235-.125zm0 0"/></symbol></defs><path style="fill-rule:nonzero;fill:#fff;fill-opacity:1;stroke-width:7.317885;stroke-linecap:butt;stroke-linejoin:miter;stroke:#909090;stroke-opacity:1;stroke-miterlimit:4" d="M22.423 169.339h90.62c8.07 0 14.618 6.548 14.618 14.618v90.62c0 8.07-6.548 14.618-14.618 14.618h-90.62c-8.07 0-14.618-6.549-14.618-14.618v-90.62c0-8.07 6.549-14.618 14.618-14.618zm0 0" transform="translate(0 -19.079) scale(.11811)"/><path style="stroke:none;fill-rule:evenodd;fill:#ccdade;fill-opacity:1" d="M5.855 9.61a1.073 1.073 0 1 1-2.145-.006 1.073 1.073 0 0 1 2.145.005zm0-3.22a1.073 1.073 0 1 1-2.143.003 1.073 1.073 0 0 1 2.143-.002zm0-3.214A1.073 1.073 0 1 1 3.71 3.17a1.073 1.073 0 0 1 2.145.005zM9.074 9.61c0 .59-.48 1.07-1.074 1.07a1.073 1.073 0 1 1 0-2.145c.594 0 1.074.48 1.074 1.074zm0-3.22a1.074 1.074 0 1 1-2.148 0c0-.59.48-1.07 1.074-1.07.594 0 1.074.48 1.074 1.07zm0-3.214c0 .59-.48 1.07-1.074 1.07a1.073 1.073 0 1 1 0-2.144c.594 0 1.074.48 1.074 1.074zM12.29 9.61a1.072 1.072 0 1 1-2.145-.004 1.072 1.072 0 0 1 2.144.003zm0-3.356a1.072 1.072 0 1 1-2.145-.003 1.072 1.072 0 0 1 2.144.003zm0-3.078a1.072 1.072 0 1 1-2.145-.003 1.072 1.072 0 0 1 2.144.003zm-3.216 9.648a1.074 1.074 0 1 1-2.148 0c0-.59.48-1.07 1.074-1.07.594 0 1.074.48 1.074 1.07zm0 0"/><use xlink:href="#a" x="4.375" y="3.629" style="fill:#000;fill-opacity:1"/><use xlink:href="#b" x="7.621" y="3.637" style="fill:#000;fill-opacity:1"/><use xlink:href="#c" x="10.82" y="3.629" style="fill:#000;fill-opacity:1"/><use xlink:href="#d" x="4.391" y="6.848" style="fill:#000;fill-opacity:1"/><use xlink:href="#e" x="7.609" y="6.84" style="fill:#000;fill-opacity:1"/><use xlink:href="#f" x="10.816" y="6.707" style="fill:#000;fill-opacity:1"/><use xlink:href="#g" x="4.387" y="10.063" style="fill:#000;fill-opacity:1"/><use xlink:href="#h" x="7.602" y="10.063" style="fill:#000;fill-opacity:1"/><use xlink:href="#i" x="10.824" y="10.063" style="fill:#000;fill-opacity:1"/><use xlink:href="#j" x="7.602" y="13.281" style="fill:#000;fill-opacity:1"/></svg>