<svg xmlns="http://www.w3.org/2000/svg" width="16" height="16"><path style="fill-rule:nonzero;fill:#fff;fill-opacity:1;stroke-width:19.492001;stroke-linecap:butt;stroke-linejoin:miter;stroke:#95a5a6;stroke-opacity:1;stroke-miterlimit:4" d="M81.5 25.125h349c31.125 0 56.375 25.25 56.375 56.375v349c0 31.125-25.25 56.375-56.375 56.375h-349c-31.125 0-56.375-25.25-56.375-56.375v-349c0-31.125 25.25-56.375 56.375-56.375zm0 0" transform="scale(.03125)"/><path style="fill:none;stroke-width:26.157541;stroke-linecap:butt;stroke-linejoin:miter;stroke:#223656;stroke-opacity:1;stroke-miterlimit:4" d="M232.875 209.75c-39.875-15-42.5-67.875 0-82 44.625-14.875 72.5 55.5 126.25 19.625 16.875-11.25 23-24.625 23-44.25" transform="scale(.03125)"/><path style="fill-rule:nonzero;fill:#ecf0f1;fill-opacity:1;stroke-width:15.738544;stroke-linecap:butt;stroke-linejoin:miter;stroke:#95a5a6;stroke-opacity:1;stroke-miterlimit:4" d="M116.375 203.25H395.25c30.875 0 55.75 24.875 55.75 55.75v80.375c0 30.75-24.875 55.75-55.75 55.75H116.375c-30.75 0-55.75-25-55.75-55.75V259c0-30.875 25-55.75 55.75-55.75zm0 0" transform="scale(.03125)"/><path style="stroke:none;fill-rule:evenodd;fill:#7f8c8d;fill-opacity:1" d="M9.59 9.348c.004 1.082.805 1.972 1.828 2.03 1.023.06 1.914-.733 2.027-1.808.114-1.074-.59-2.05-1.601-2.23-1.016-.176-1.98.508-2.207 1.562"/><path style="stroke:none;fill-rule:evenodd;fill:#223656;fill-opacity:1" d="M3.871 7.914v.895h-1.02v1.054h1.02v1.075h1.07V9.863h1.024V8.81H4.94v-.895zm3.598.969a.222.222 0 0 0-.157.062l-.468.473a.215.215 0 0 0 0 .312.222.222 0 0 0 .312 0l.469-.472a.222.222 0 0 0 0-.313.215.215 0 0 0-.156-.062zm1.273.015a.219.219 0 0 0-.156.067l-.473.469a.226.226 0 0 0 0 .316.222.222 0 0 0 .313 0l.472-.473a.222.222 0 0 0-.156-.379zm0 0"/><path style="stroke:none;fill-rule:evenodd;fill:#ecf0f1;fill-opacity:1" d="m9.938 8.863 1.222-1.226a.665.665 0 0 1 .938 0 .66.66 0 0 1 0 .933L10.87 9.797a.66.66 0 1 1-.934-.934zm0 0"/><path style="stroke:none;fill-rule:evenodd;fill:#1ba389;fill-opacity:1" d="M10.797 8.945a.538.538 0 1 0-.762.762.538.538 0 1 0 .762-.762"/><path style="stroke:none;fill-rule:evenodd;fill:#2980b9;fill-opacity:1" d="M12.012 7.723a.538.538 0 1 0-.762.761.538.538 0 1 0 .762-.761"/><path style="stroke:none;fill-rule:evenodd;fill:#ecf0f1;fill-opacity:1" d="m11.008 10.086 1.226-1.227a.66.66 0 1 1 .934.934l-1.227 1.227a.66.66 0 1 1-.933-.934zm0 0"/><path style="stroke:none;fill-rule:evenodd;fill:#f9de69;fill-opacity:1" d="M11.867 10.16a.538.538 0 1 0-.762.762.538.538 0 1 0 .762-.762"/><path style="stroke:none;fill-rule:evenodd;fill:#ba174e;fill-opacity:1" d="M13.082 8.945a.538.538 0 1 0 0 .762.538.538 0 0 0 0-.762"/></svg>