<svg xmlns="http://www.w3.org/2000/svg" width="16" height="16"><path style="fill-rule:nonzero;fill:#1ba389;fill-opacity:.984314;stroke-width:27.910587;stroke-linecap:butt;stroke-linejoin:miter;stroke:#2a7063;stroke-opacity:.984314;stroke-miterlimit:4" d="M83.25 27.375h345.5c30.875 0 55.875 25 55.875 55.875v345.5c0 30.875-25 55.875-55.875 55.875H83.25c-30.875 0-55.875-25-55.875-55.875V83.25c0-30.875 25-55.875 55.875-55.875zm0 0" transform="scale(.03125)"/><path style="stroke:none;fill-rule:nonzero;fill:#b3b3b3;fill-opacity:1" d="M7.965 4.2v3.284H5.504V6.5c0-.984 1.23-2.3 2.46-2.3"/><path style="stroke:none;fill-rule:nonzero;fill:#f9f9f9;fill-opacity:1" d="M7.953 4.2v2.507h-2.45V9.75c0 1.332.923 2.336 2.462 2.336 1.539 0 2.46-1.004 2.46-2.336V6.59c0-1.024-1.234-2.39-2.472-2.39zm0 0"/><path style="stroke:none;fill-rule:nonzero;fill:#4d4d4d;fill-opacity:1" d="M7.965 5.844c.172 0 .308.164.308.367v.976c0 .2-.136.364-.308.364-.168 0-.309-.164-.309-.364v-.976c0-.203.14-.367.309-.367m0 0"/></svg>