<svg xmlns="http://www.w3.org/2000/svg" width="16" height="16"><path style="stroke:none;fill-rule:nonzero;fill:#637a82;fill-opacity:1" d="M8.262 3.547h4.578V.687H8.262zm0 0"/><path style="stroke:none;fill-rule:nonzero;fill:#fff;fill-opacity:.654902" d="M8.926 2.496h1.144V1.352H8.926zm0 0"/><path style="stroke:none;fill-rule:nonzero;fill:#05353f;fill-opacity:.654902" d="M8.832 2.402h1.145V1.258H8.832zm0 0"/><path style="stroke:none;fill-rule:nonzero;fill:#fff;fill-opacity:.654902" d="M11.215 2.496h1.144V1.352h-1.144zm0 0"/><path style="stroke:none;fill-rule:nonzero;fill:#05353f;fill-opacity:.654902" d="M11.121 2.402h1.145V1.258H11.12zm0 0"/><path style="fill-rule:nonzero;fill:#25aedf;fill-opacity:1;stroke-width:9.766254;stroke-linecap:butt;stroke-linejoin:miter;stroke:#25aedf;stroke-opacity:1;stroke-miterlimit:4" d="M155.258 119.167h201.5c8.25 0 15 6.625 15 15v336.125c0 8.375-6.75 15.125-15 15.125h-201.5c-8.25 0-15-6.75-15-15.125V134.167c0-8.375 6.75-15 15-15zm0 0" transform="translate(2.55 -.02) scale(.03125)"/><path style="stroke:none;fill-rule:nonzero;fill:#ecf0f1;fill-opacity:1" d="M11.5 8.121v-.934h.938v.934zm-.86 3.535a.637.637 0 1 1 0 1.274.637.637 0 0 1 0-1.274zM9.445 8.008a.563.563 0 1 1-.002 1.127.563.563 0 0 1 .002-1.127zm0 0"/><path style="stroke:none;fill-rule:evenodd;fill:#ecf0f1;fill-opacity:1" d="M10.137 6.621s.504-1.133.515-1.117c.012.016.5 1.117.5 1.117zm0 0"/><path style="fill:none;stroke-width:6.079651;stroke-linecap:butt;stroke-linejoin:miter;stroke:#ecf0f1;stroke-opacity:1;stroke-miterlimit:2.012602" d="M256.724 269.552c-3-28.089-43.634-41.86-43.77-58.087 0-11.045.546-15.817.41-29.862m43.36 58.087c0-27.543 30.271-34.088 45.406-54.405 2.182-3.409.682-34.634.682-36.68M256.724 302.96V96.108" transform="translate(3.282 3.626) scale(.02865)"/><path style="stroke:none;fill-rule:nonzero;fill:#333;fill-opacity:1" d="M3.105 6.52H8.57v6.16H3.105zm0 0"/><path style="stroke:none;fill-rule:nonzero;fill:#f9de69;fill-opacity:1" d="M5.98 5.164c-.035 0-.074.004-.113.004-.265 0-.265 0-.297.027-.015.016-.035.035-.039.051a45.224 45.224 0 0 0-.004 1.785c.008.04.051.082.098.094.02.008.14.008.285.008.23-.004.254-.008.29-.028.019-.011.042-.03.046-.043.008-.027.024-.824.024-1.398l.003-.39-.03-.044c-.024-.03-.044-.05-.071-.054-.02-.008-.09-.008-.192-.012zm-1.375.04-.05.038-.047.04-.004.878c-.004.586 0 .887.008.914.015.047.062.082.12.09.028.004.153.008.286.008.223-.004.238-.004.277-.027.078-.043.075.015.075-.957 0-.481-.004-.891-.012-.903-.004-.015-.028-.039-.051-.055l-.039-.027zm1.97.007-.048.039-.05.04v.855c-.004.472-.004.87 0 .886a.183.183 0 0 0 .039.063c.027.027.046.035.09.043.03.004.16.008.289.004.253 0 .277-.008.324-.07.02-.028.02-.067.02-.9 0-.816 0-.866-.02-.898-.035-.054-.067-.062-.371-.062zm-2.673.02a2.68 2.68 0 0 0-.32.011.132.132 0 0 0-.066.059l-.032.047v.547c0 .296.004.69.008.87l.008.329.04.031a.19.19 0 0 0 .085.04c.059.007.352.01.484 0 .09-.005.102-.009.137-.04l.04-.031.003-.883c.004-.98.008-.938-.078-.965a2.135 2.135 0 0 0-.309-.016zm3.977.46c-.25 0-.266 0-.293.02-.059.043-.055.027-.055.68 0 .336.004.629.008.652.012.047.027.066.082.082.05.02.43.023.488.004a.195.195 0 0 0 .075-.04l.03-.03.009-.301c.004-.168.007-.45.007-.63 0-.327 0-.327-.023-.366-.047-.074-.035-.07-.328-.07zm0 0"/><path style="stroke:none;fill-rule:nonzero;fill:#000;fill-opacity:1" d="M2.977 12.863a.231.231 0 0 1-.141-.11l-.027-.046V4.773l.02-.035a.245.245 0 0 1 .112-.113l.043-.02h2.5l2.5-.003.489.488.492.488v3.547c0 2.387-.004 3.559-.012 3.578a.257.257 0 0 1-.113.145l-.047.027H5.906c-2.34 0-2.894 0-2.93-.012zm5.074-.633a.368.368 0 0 0 .207-.25c.015-.05.015-.207.008-2.183l-.008-2.133c-.008-.012-4.758-.012-4.766 0 0 .004-.008.953-.012 2.113-.003 1.582 0 2.121.008 2.168.02.145.117.258.25.301.051.016.125.016 2.153.016l2.105-.004zM4.133 7.09c.015-.012.031-.031.043-.043.02-.024.02-.031.02-.86.003-.78.003-.835-.012-.867a.227.227 0 0 0-.04-.047c-.023-.015-.039-.02-.261-.02-.27-.003-.278 0-.313.067l-.023.04v.812c0 .504.004.824.012.844a.111.111 0 0 0 .027.05c.039.043.055.047.297.043.215-.004.226-.004.25-.02zm.996 0a.123.123 0 0 0 .055-.055c.02-.031.02-.039.02-.863 0-.832 0-.832-.02-.856a.178.178 0 0 0-.047-.046c-.028-.02-.035-.02-.258-.02s-.23 0-.258.02a.196.196 0 0 0-.05.046c-.016.024-.016.028-.02.84 0 .535 0 .828.008.848.003.02.015.047.027.059.035.046.055.046.289.046.207.004.219 0 .254-.02zm1.016-.004c.062-.043.058.016.062-.899V5.36l-.02-.039c-.035-.066-.042-.07-.316-.066-.219 0-.234.004-.258.02a.227.227 0 0 0-.039.046c-.015.032-.015.09-.015.856 0 .812 0 .824.02.863a.107.107 0 0 0 .054.055c.035.015.047.02.258.015.218-.004.226-.004.254-.023zm.972.016a.133.133 0 0 0 .078-.075c.012-.023.012-.183.012-.855.004-.781 0-.828-.012-.852a.245.245 0 0 0-.043-.047c-.023-.015-.035-.02-.257-.02-.235-.003-.235-.003-.266.017a.266.266 0 0 0-.047.046c-.02.024-.02.028-.02.84-.003.535 0 .828.004.848.012.043.043.082.075.094.035.015.437.02.476.004zm1.024-.012a.216.216 0 0 0 .054-.047c.016-.031.02-.047.02-.594l.004-.562-.02-.04c-.035-.07-.047-.07-.316-.066-.223 0-.235 0-.258.02-.016.008-.031.031-.043.047-.016.023-.016.058-.016.593.004.641 0 .61.07.649.032.02.044.02.247.023.207 0 .219-.004.258-.023zm0 0"/></svg>