<svg xmlns="http://www.w3.org/2000/svg" width="16" height="16"><path style="fill-rule:nonzero;fill:#fff;fill-opacity:1;stroke-width:28.191782;stroke-linecap:butt;stroke-linejoin:miter;stroke:gray;stroke-opacity:1;stroke-miterlimit:4" d="M81.5 25.125h349c31.125 0 56.375 25.25 56.375 56.375v349c0 31.125-25.25 56.375-56.375 56.375h-349c-31.125 0-56.375-25.25-56.375-56.375v-349c0-31.125 25.25-56.375 56.375-56.375zm0 0" transform="scale(.03125)"/><path style="stroke:none;fill-rule:nonzero;fill:#f9de69;fill-opacity:1" d="M8.133 2.89h-.16c-.38.008-.38.008-.422.044a.233.233 0 0 0-.059.07c-.015.039-.02 2.48-.004 2.555.012.058.074.117.14.136.028.008.2.012.407.008.328-.008.36-.008.41-.039.032-.016.063-.043.07-.062.012-.036.036-1.176.036-2l.004-.555-.047-.067a.188.188 0 0 0-.098-.078 1.78 1.78 0 0 0-.277-.011zm-1.965.055L6.098 3l-.07.059-.005 1.253c-.003.84 0 1.27.012 1.305.024.07.086.121.172.133.04.004.223.008.406.008.32-.004.344-.004.399-.035.113-.063.105.02.105-1.368 0-.69-.004-1.273-.012-1.296a.22.22 0 0 0-.074-.075l-.058-.039zm2.82.012-.07.055-.07.058-.004 1.223c-.004.672-.004 1.242.004 1.266a.223.223 0 0 0 .054.09c.04.038.063.05.13.058.042.008.226.012.41.008.367 0 .398-.008.464-.098.028-.043.031-.094.031-1.285 0-1.172-.003-1.242-.03-1.285-.052-.082-.098-.09-.532-.09zm-3.828.027c-.203 0-.41.004-.453.016-.035.012-.066.035-.098.086l-.043.066v.782c0 .425.008.988.012 1.246l.012.468.055.043c.03.028.082.051.12.059.087.012.508.012.692 0 .133-.008.148-.012.2-.055l.058-.047.004-1.261c.004-1.407.011-1.34-.11-1.383a3.274 3.274 0 0 0-.449-.02zm5.692.657c-.36 0-.38 0-.418.03-.082.063-.082.04-.082.974 0 .48.007.898.015.93.016.07.04.093.113.12.075.024.614.032.7.008a.402.402 0 0 0 .105-.058l.047-.043.012-.434c.004-.238.011-.645.011-.902 0-.47 0-.47-.035-.524-.066-.105-.05-.101-.468-.101zm0 0"/><path style="stroke:none;fill-rule:nonzero;fill:gray;fill-opacity:1" d="M4.117 5.773h7.797v7.68H4.117zm0 0"/><path style="stroke:none;fill-rule:nonzero;fill:#000;fill-opacity:1" d="M3.84 13.902a.334.334 0 0 1-.203-.16l-.04-.066V2.328l.028-.05a.36.36 0 0 1 .164-.16l.059-.028 7.156-.008.7.703.698.7v5.07c0 3.41-.004 5.086-.011 5.117a.38.38 0 0 1-.164.203l-.07.04h-4.13c-3.347.003-4.14 0-4.187-.013zm7.258-.91a.543.543 0 0 0 .297-.351c.02-.079.02-.301.011-3.125a303.437 303.437 0 0 0-.015-3.055c-.008-.012-6.805-.012-6.813 0a290.87 290.87 0 0 0-.016 3.023c-.007 2.266-.003 3.036.008 3.102a.526.526 0 0 0 .36.43c.07.023.175.023 3.078.023l3.008-.004zM5.496 5.641a.414.414 0 0 0 .059-.059c.027-.035.027-.047.03-1.23 0-1.118 0-1.196-.019-1.239a.194.194 0 0 0-.058-.066c-.035-.027-.055-.027-.371-.031-.387-.004-.399 0-.45.097l-.027.055v1.164c0 .715.004 1.176.012 1.203a.195.195 0 0 0 .039.074c.059.063.078.063.426.063.304-.004.324-.008.36-.031zm1.422.004A.226.226 0 0 0 7 5.566c.023-.05.023-.058.023-1.238 0-1.187 0-1.187-.027-1.223a.268.268 0 0 0-.066-.066c-.04-.027-.051-.027-.371-.027s-.329 0-.372.027a.533.533 0 0 0-.066.066c-.027.036-.027.04-.027 1.204-.004.765 0 1.183.008 1.214a.317.317 0 0 0 .039.082c.05.063.078.067.414.067.297 0 .308 0 .363-.027zm1.453-.008c.09-.063.082.023.086-1.29l.004-1.179-.027-.055c-.051-.097-.067-.101-.454-.097-.312.004-.335.004-.367.03a.194.194 0 0 0-.058.067c-.02.04-.024.125-.024 1.223 0 1.164 0 1.18.028 1.23.02.04.039.063.078.082.05.024.066.028.37.024.313-.004.325-.004.364-.035zm1.39.023a.195.195 0 0 0 .114-.11c.012-.03.016-.257.016-1.218.004-1.117 0-1.184-.02-1.223a.224.224 0 0 0-.059-.062c-.035-.027-.05-.027-.37-.031-.333-.004-.337-.004-.38.023a.533.533 0 0 0-.066.066c-.027.036-.027.04-.031 1.204 0 .765.004 1.183.012 1.214.015.059.054.11.105.133.047.02.625.024.68.004zm1.462-.015a.244.244 0 0 0 .082-.07c.023-.044.023-.067.027-.848l.004-.805-.027-.055c-.051-.097-.067-.101-.454-.097-.316.003-.335.003-.37.027a.291.291 0 0 0-.055.066c-.024.04-.024.09-.024.852 0 .914-.004.875.098.93.047.027.059.027.355.027.293 0 .309 0 .364-.027zm0 0"/></svg>