<svg xmlns="http://www.w3.org/2000/svg" width="16" height="16"><path style="fill-rule:nonzero;fill:#f2f2f2;fill-opacity:1;stroke-width:3.042594;stroke-linecap:butt;stroke-linejoin:miter;stroke:#d4d4d4;stroke-opacity:1;stroke-miterlimit:4" d="M377.75-338.75c-116.5-67.25-265.375-27.375-332.5 89-67.25 116.5-27.375 265.375 89 332.5 116.5 67.25 265.375 27.375 332.5-89 67.25-116.5 27.375-265.375-89-332.5zm-88.5 153.25c31.75 18.375 42.625 59 24.25 90.75s-59 42.625-90.75 24.25-42.625-59-24.25-90.75 59-42.625 90.75-24.25zm0 0" transform="translate(0 12) scale(.03125)"/><path style="fill-rule:nonzero;fill:gray;fill-opacity:1;stroke-width:3.042594;stroke-linecap:butt;stroke-linejoin:miter;stroke:#d4d4d4;stroke-opacity:1;stroke-miterlimit:4" d="M256.625-371.5c-51.875 0-102.875 16.5-145 47.5l108.5 140.125c20.25-13 46.875-14.5 69.125-1.625 21 12.25 32.875 34.25 33.125 56.875L497.75-99c11.25-93.75-33.125-189.625-120-239.75-38.25-22.125-80-32.625-121.125-32.75zM14.25-157C3-63.25 47.375 32.625 134.25 82.75c86.375 49.875 190.625 40.875 266.125-14.75l-108.5-140.125c-20.25 13-46.875 14.5-69.125 1.625-21-12.125-32.875-34.25-33.125-56.875zm0 0" transform="translate(0 12) scale(.03125)"/><path style="fill-rule:nonzero;fill:#fff;fill-opacity:1;stroke-width:5.388712;stroke-linecap:butt;stroke-linejoin:miter;stroke:#e7e7e7;stroke-opacity:1;stroke-miterlimit:4" d="M308-218c-49.75-28.75-113.25-11.625-142 38-28.75 49.75-11.625 113.25 38 142 49.75 28.75 113.25 11.625 142-38 28.75-49.75 11.625-113.25-38-142zm-24.375 42.25C310-160.5 319-126.75 303.75-100.375S254.75-65 228.375-80.25s-35.375-49-20.125-75.375 49-35.375 75.375-20.125zm0 0" transform="translate(0 12) scale(.03125)"/></svg>