<svg xmlns="http://www.w3.org/2000/svg" width="16" height="16"><path style="fill-rule:nonzero;fill:#fff;fill-opacity:1;stroke-width:28.191782;stroke-linecap:butt;stroke-linejoin:miter;stroke:gray;stroke-opacity:1;stroke-miterlimit:4" d="M81.5 25.125h349c31.125 0 56.375 25.25 56.375 56.375v349c0 31.125-25.25 56.375-56.375 56.375h-349c-31.125 0-56.375-25.25-56.375-56.375v-349c0-31.125 25.25-56.375 56.375-56.375zm0 0" transform="scale(.03125)"/><path style="stroke:none;fill-rule:nonzero;fill:#4d4d4d;fill-opacity:1" d="M3.398 3.668h9.204c.699 0 1.265.566 1.265 1.266v6.132c0 .7-.566 1.266-1.265 1.266H3.398a1.265 1.265 0 0 1-1.265-1.266V4.934c0-.7.566-1.266 1.265-1.266zm0 0"/><path style="stroke:none;fill-rule:nonzero;fill:gray;fill-opacity:1" d="M3.703 3.957h8.594c.652 0 1.18.527 1.18 1.18v5.726c0 .653-.528 1.18-1.18 1.18H3.703c-.652 0-1.18-.527-1.18-1.18V5.137c0-.653.528-1.18 1.18-1.18zm0 0"/><path style="stroke:none;fill-rule:nonzero;fill:#4d4d4d;fill-opacity:1" d="M7.168 7.938a1.954 1.954 0 1 1-3.908-.002 1.954 1.954 0 0 1 3.908.002zm5.187 0a1.478 1.478 0 0 1-2.957 0 1.479 1.479 0 0 1 2.957 0zm0 0"/><path style="stroke:none;fill-rule:nonzero;fill:#fff;fill-opacity:1" d="M12.094 7.938a1.217 1.217 0 0 1-2.434 0 1.217 1.217 0 0 1 2.434 0zm-5.379 0a1.5 1.5 0 1 1-3-.001 1.5 1.5 0 0 1 3 0zm0 0"/><path style="stroke:none;fill-rule:evenodd;fill:#4d4d4d;fill-opacity:1" d="M5.816 3.918 6.441 5h2.567l.652-1.125zm0 0"/><path style="fill:none;stroke-width:8.033507;stroke-linecap:butt;stroke-linejoin:miter;stroke:#4d4d4d;stroke-opacity:1;stroke-miterlimit:4" d="M160.026 199.474 347.65 213.35" transform="translate(.077 -.077) scale(.03125)"/></svg>