<svg xmlns="http://www.w3.org/2000/svg" width="16" height="16"><path style="stroke:none;fill-rule:nonzero;fill:#333;fill-opacity:1" d="M3.879 2.34h.18c.058 0 .105.008.105.015v.641c0 .012-.047.016-.105.016h-.18c-.059 0-.106-.004-.106-.016v-.64c0-.008.047-.016.106-.016zm0 3.144h.18c.058 0 .105.012.105.02v.844c0 .011-.047.023-.105.023h-.18c-.059 0-.106-.012-.106-.023v-.844c0-.008.047-.02.106-.02zM10.586.84v.183c0 .055-.016.102-.027.102H9.41c-.015 0-.027-.047-.027-.102V.84c0-.059.012-.106.027-.106h1.149c.011 0 .027.047.027.106zM3.879 3.984h.18c.058 0 .105.012.105.02v.844c0 .011-.047.023-.105.023h-.18c-.059 0-.106-.012-.106-.023v-.844c0-.008.047-.02.106-.02zm0 0"/><path style="stroke:none;fill-rule:nonzero;fill:#333;fill-opacity:1" d="M4.68.863h6.648c.426 0 .77.367.77.82v12.633c0 .454-.344.82-.77.82H4.68c-.426 0-.77-.366-.77-.82V1.684c0-.454.344-.82.77-.82zm0 0"/><path style="stroke:none;fill-rule:nonzero;fill:#b3b3b3;fill-opacity:1" d="M4.71.926h6.59c.419 0 .762.367.762.816v12.516c0 .449-.343.816-.761.816H4.71c-.422 0-.766-.367-.766-.816V1.742c0-.449.344-.816.766-.816zm0 0"/><path style="stroke:none;fill-rule:nonzero;fill:#fff;fill-opacity:1" d="M4.867 1.082h6.274c.402 0 .726.355.726.797V14.12c0 .441-.324.797-.726.797H4.867c-.402 0-.726-.355-.726-.797V1.88c0-.442.324-.797.726-.797zm0 0"/><path style="stroke:none;fill-rule:nonzero;fill:#000;fill-opacity:1" d="M4.418 2.773h7.172v9.747H4.418zm0 0"/><path style="stroke:none;fill-rule:nonzero;fill:#333;fill-opacity:1" d="M7.04 1.781h1.933c.05 0 .093.063.093.14v.028c0 .082-.043.145-.093.145H7.039c-.055 0-.098-.063-.098-.145v-.027c0-.078.043-.14.098-.14zm0 0"/><path style="stroke:none;fill-rule:nonzero;fill:#666;fill-opacity:1" d="M6.68 1.918a.348.348 0 0 1-.344.348.345.345 0 1 1 .344-.348zm0 0"/><path style="stroke:none;fill-rule:nonzero;fill:#666;fill-opacity:1" d="M6.68 1.918a.348.348 0 0 1-.344.348.345.345 0 1 1 .344-.348zm0 0"/><path style="stroke:none;fill-rule:nonzero;fill:#ccc;fill-opacity:1" d="M6.578 1.918a.244.244 0 1 1-.488.004.244.244 0 0 1 .488-.004zm0 0"/><path style="stroke:none;fill-rule:nonzero;fill:#fff;fill-opacity:1" d="M6.348 1.852a.08.08 0 0 1-.078.082.08.08 0 0 1-.082-.082c0-.043.035-.082.082-.082.043 0 .078.039.078.082zm0 0"/><path style="stroke:none;fill-rule:nonzero;fill:#003380;fill-opacity:1" d="M4.535 2.86h6.938v9.574H4.535zm0 0"/><path style="stroke:none;fill-rule:nonzero;fill:#b3b3b3;fill-opacity:1" d="M8.953 13.645a.952.952 0 1 1-1.906 0 .952.952 0 1 1 1.906 0zm0 0"/><path style="stroke:none;fill-rule:nonzero;fill:#333;fill-opacity:1" d="M7.504 1.48h1c.027 0 .047.036.047.075v.015c0 .04-.02.075-.047.075h-1c-.027 0-.047-.036-.047-.075v-.015c0-.04.02-.075.047-.075zm.062 11.704c-.027 0-.05.03-.05.074v.82c0 .043.023.074.05.074h.868c.027 0 .05-.03.05-.074v-.82c0-.043-.023-.074-.05-.074zm.075.086h.718c.02 0 .04.027.04.062v.676c0 .031-.02.058-.04.058h-.718c-.02 0-.04-.027-.04-.058v-.676c0-.035.02-.062.04-.062zm0 0"/></svg>