<svg xmlns="http://www.w3.org/2000/svg" width="16" height="16"><path style="fill-rule:nonzero;fill:#fff;fill-opacity:1;stroke-width:2.611469;stroke-linecap:butt;stroke-linejoin:miter;stroke:#909090;stroke-opacity:1;stroke-miterlimit:4" d="M7.828 2.613h32.344a5.211 5.211 0 0 1 5.215 5.215v32.344a5.211 5.211 0 0 1-5.215 5.215H7.828a5.211 5.211 0 0 1-5.215-5.215V7.828a5.211 5.211 0 0 1 5.215-5.215zm0 0" transform="scale(.33333)"/><path style="stroke:none;fill-rule:evenodd;fill:#4d4d4d;fill-opacity:1" d="M8.082 8.742a.977.977 0 0 0-.098-1.953.977.977 0 0 0 .036 1.953"/><path style="fill:none;stroke-width:2.26261;stroke-linecap:square;stroke-linejoin:bevel;stroke:#4d4d4d;stroke-opacity:1;stroke-miterlimit:4" d="M24.059 23.25v16.816" transform="scale(.33333)"/><path style="fill-rule:evenodd;fill:#de6143;fill-opacity:1;stroke-width:1.164577;stroke-linecap:square;stroke-linejoin:miter;stroke:#de6143;stroke-opacity:1;stroke-miterlimit:2.012602" d="m21.152 12.035.211-.223L24 14.438l2.613-2.614.223.223-2.613 2.613 2.625 2.637-.211.21L24 14.884l-2.613 2.613-.223-.223 2.613-2.613zm0 0" transform="scale(.33333)"/></svg>