<svg xmlns="http://www.w3.org/2000/svg" width="16" height="16"><path style="fill-rule:nonzero;fill:#fff;fill-opacity:1;stroke-width:2.611469;stroke-linecap:butt;stroke-linejoin:miter;stroke:#909090;stroke-opacity:1;stroke-miterlimit:4" d="M7.828 2.613h32.344a5.211 5.211 0 0 1 5.215 5.215v32.344a5.211 5.211 0 0 1-5.215 5.215H7.828a5.211 5.211 0 0 1-5.215-5.215V7.828a5.211 5.211 0 0 1 5.215-5.215zm0 0" transform="scale(.33333)"/><path style="stroke:none;fill-rule:evenodd;fill:#f2f2f2;fill-opacity:1" d="M8.082 8.742a.977.977 0 0 0-.098-1.953.977.977 0 0 0 .036 1.953"/><path style="fill:none;stroke-width:2.26261;stroke-linecap:square;stroke-linejoin:bevel;stroke:#f2f2f2;stroke-opacity:1;stroke-miterlimit:4" d="M24.059 23.25v16.816" transform="scale(.33333)"/><path style="fill:none;stroke-width:2.26261;stroke-linecap:square;stroke-linejoin:miter;stroke:#f2f2f2;stroke-opacity:1;stroke-miterlimit:2.012602" d="M29.766 27.96a7.224 7.224 0 0 0-.95-9.878 7.207 7.207 0 0 0-9.914.375 7.215 7.215 0 0 0-.199 9.914" transform="scale(.33333)"/><path style="fill:none;stroke-width:2.26261;stroke-linecap:square;stroke-linejoin:miter;stroke:#f2f2f2;stroke-opacity:1;stroke-miterlimit:2.012602" d="M33.152 30.738a11.584 11.584 0 0 0-1.605-15.902c-4.688-4.031-11.707-3.668-15.961.82-4.254 4.489-4.23 11.52.047 15.985" transform="scale(.33333)"/><path style="fill:none;stroke-width:2.26261;stroke-linecap:square;stroke-linejoin:miter;stroke:#4d4d4d;stroke-opacity:1;stroke-miterlimit:2.012602" d="M36.516 33.504c5.168-6.668 4.23-16.207-2.157-21.715-6.375-5.52-15.96-5.074-21.797 1.008-5.835 6.094-5.894 15.68-.117 21.82" transform="scale(.33333)"/></svg>