<svg xmlns="http://www.w3.org/2000/svg" width="16" height="16"><path style="fill-rule:nonzero;fill:#fff;fill-opacity:1;stroke-width:2.611469;stroke-linecap:butt;stroke-linejoin:miter;stroke:#909090;stroke-opacity:1;stroke-miterlimit:4" d="M7.828 2.613h32.344a5.211 5.211 0 0 1 5.215 5.215v32.344a5.211 5.211 0 0 1-5.215 5.215H7.828a5.211 5.211 0 0 1-5.215-5.215V7.828a5.211 5.211 0 0 1 5.215-5.215zm0 0" transform="scale(.33333)"/><path style="stroke:none;fill-rule:evenodd;fill:#4d4d4d;fill-opacity:1" d="M8.105 8.82a.976.976 0 0 0-.098-1.95.971.971 0 0 0-.945.993.976.976 0 0 0 .977.961"/><path style="fill:none;stroke-width:3.131226;stroke-linecap:square;stroke-linejoin:bevel;stroke:#4d4d4d;stroke-opacity:1;stroke-miterlimit:4" d="M-.006-.001V23.27" transform="translate(8.04 7.832) scale(.24086)"/><path style="fill:none;stroke-width:3.131226;stroke-linecap:square;stroke-linejoin:miter;stroke:#4d4d4d;stroke-opacity:1;stroke-miterlimit:2.012602" d="M17.9 16.139c3.26-4.185 2.676-10.169-1.314-13.672a10.006 10.006 0 0 0-13.72.52c-3.714 3.778-3.827 9.81-.276 13.735" transform="translate(5.63 5.511) scale(.24086)"/><path style="fill:none;stroke-width:3.131226;stroke-linecap:square;stroke-linejoin:miter;stroke:#4d4d4d;stroke-opacity:1;stroke-miterlimit:2.012602" d="M28.701 25.887c5.255-6.763 4.281-16.445-2.206-22.024-6.503-5.562-16.217-5.06-22.104 1.152-5.87 6.195-5.855 15.942.065 22.12" transform="translate(4.157 4.093) scale(.24086)"/><path style="fill:none;stroke-width:3.131226;stroke-linecap:square;stroke-linejoin:miter;stroke:#4d4d4d;stroke-opacity:1;stroke-miterlimit:2.012602" d="M39.25 35.384c7.167-9.212 5.854-22.413-2.969-30.051-8.838-7.623-22.088-7.006-30.18 1.41-8.077 8.417-8.142 21.7-.163 30.198" transform="translate(2.738 2.723) scale(.24086)"/></svg>