<svg xmlns="http://www.w3.org/2000/svg" width="16" height="16"><path style="fill-rule:nonzero;fill:#fff;fill-opacity:1;stroke-width:2.611469;stroke-linecap:butt;stroke-linejoin:miter;stroke:#909090;stroke-opacity:1;stroke-miterlimit:4" d="M7.828 1006.975h32.344a5.211 5.211 0 0 1 5.215 5.215v32.344a5.211 5.211 0 0 1-5.215 5.215H7.828a5.211 5.211 0 0 1-5.215-5.215v-32.344a5.211 5.211 0 0 1 5.215-5.215zm0 0" transform="translate(0 -334.787) scale(.33333)"/><path style="stroke:none;fill-rule:evenodd;fill:#e74c3c;fill-opacity:1" d="M5.406 7.059a2.5 2.5 0 1 0 3.535 3.535l1.653-1.653a2.5 2.5 0 1 0-3.535-3.535zm.946.984 1.691-1.691a1.132 1.132 0 0 1 1.605 0 1.13 1.13 0 0 1 0 1.605L7.957 9.648a1.132 1.132 0 0 1-1.605 0 1.132 1.132 0 0 1 0-1.605zm0 0"/><path style="stroke:none;fill-rule:evenodd;fill:#e74c3c;fill-opacity:1" d="m3 12.059.941.941 2.727-2.723-.945-.945zm6.332-6.336.945.945L13 3.941 12.059 3zm0 0"/></svg>