<svg xmlns="http://www.w3.org/2000/svg" width="16" height="16"><path style="fill-rule:nonzero;fill:#b3b3b3;fill-opacity:1;stroke-width:2.611469;stroke-linecap:butt;stroke-linejoin:miter;stroke:#5a5a5a;stroke-opacity:1;stroke-miterlimit:4" d="M7.828 2.613h32.344a5.211 5.211 0 0 1 5.215 5.215v32.344a5.211 5.211 0 0 1-5.215 5.215H7.828a5.211 5.211 0 0 1-5.215-5.215V7.828a5.211 5.211 0 0 1 5.215-5.215zm0 0" transform="scale(.33333)"/><path style="stroke:none;fill-rule:evenodd;fill:#4d4d4d;fill-opacity:1" d="M8.082 8.742a.977.977 0 0 0-.098-1.953.977.977 0 0 0 .036 1.953"/><path style="fill:none;stroke-width:3.131226;stroke-linecap:square;stroke-linejoin:bevel;stroke:#4d4d4d;stroke-opacity:1;stroke-miterlimit:4" d="M-.001-.004V23.27" transform="translate(8.02 7.75) scale(.24086)"/><path style="fill:none;stroke-width:3.131226;stroke-linecap:square;stroke-linejoin:miter;stroke:#4d4d4d;stroke-opacity:1;stroke-miterlimit:2.012602" d="M17.904 16.152a9.998 9.998 0 0 0-1.313-13.671A9.973 9.973 0 0 0 2.87 3c-3.714 3.778-3.844 9.795-.276 13.72" transform="translate(5.61 5.43) scale(.24086)"/><path style="fill:none;stroke-width:3.131226;stroke-linecap:square;stroke-linejoin:miter;stroke:#4d4d4d;stroke-opacity:1;stroke-miterlimit:2.012602" d="M28.706 25.884C33.96 19.121 32.97 9.44 26.484 3.877 19.997-1.702 10.282-1.2 4.396 5.012c-5.887 6.211-5.855 15.942.064 22.12" transform="translate(4.137 4.012) scale(.24086)"/><path style="fill:none;stroke-width:3.131226;stroke-linecap:square;stroke-linejoin:miter;stroke:#4d4d4d;stroke-opacity:1;stroke-miterlimit:2.012602" d="M39.254 35.397c7.152-9.228 5.854-22.429-2.984-30.05C27.447-2.294 14.18-1.677 6.105 6.74c-8.076 8.433-8.157 21.699-.162 30.197" transform="translate(2.717 2.642) scale(.24086)"/></svg>