<svg xmlns="http://www.w3.org/2000/svg" width="16" height="16"><path style="fill-rule:nonzero;fill:#fff;fill-opacity:1;stroke-width:27.583374;stroke-linecap:butt;stroke-linejoin:miter;stroke:#909090;stroke-opacity:1;stroke-miterlimit:4" d="M85.25 30.125h341.5c30.5 0 55.125 24.625 55.125 55.125v341.5c0 30.5-24.625 55.125-55.125 55.125H85.25c-30.5 0-55.125-24.625-55.125-55.125V85.25c0-30.5 24.625-55.125 55.125-55.125zm0 0" transform="scale(.03125)"/><path style="stroke:none;fill-rule:nonzero;fill:#25aedf;fill-opacity:1" d="M6.555 13.79c-.617-.087-1.305-.243-1.735-.4-.898-.316-1.636-.835-1.875-1.324-.12-.238-.125-.28-.125-1.105 0-.48.02-.86.043-.86.024 0 .098.094.168.211.633 1.079 2.88 1.797 5.332 1.7 2.27-.086 4.07-.77 4.559-1.73.066-.126.14-.227.164-.227.082 0 .11.332.09 1.05-.02.641-.035.73-.149.95-.39.761-1.52 1.351-3.191 1.668-.7.132-2.547.172-3.281.066zm.265-2.345c-1.488-.148-2.867-.656-3.52-1.297-.429-.421-.456-.503-.472-1.503-.012-.579 0-.856.035-.856.028 0 .106.082.172.188.418.664 1.508 1.218 2.938 1.496 2.843.547 6.172-.184 6.93-1.524.081-.14.163-.258.187-.258.074 0 .105.43.086 1.082-.02.575-.035.668-.156.91-.606 1.239-3.422 2.04-6.2 1.762zm.145-2.363c-1.91-.168-3.535-.879-3.992-1.746-.121-.234-.13-.293-.145-1.004-.023-.926.008-1.012.235-.664.402.633 1.359 1.117 2.742 1.394 3.03.614 6.425-.136 7.156-1.578.047-.086.098-.156.121-.156.059 0 .105 1.3.055 1.613-.23 1.414-3.102 2.414-6.172 2.141zm.234-2.36C5.215 6.595 3.402 5.82 2.98 4.919c-.574-1.234 1.16-2.441 3.93-2.727.781-.082 2.29-.035 2.973.094.805.152 1.34.32 1.937.61.88.43 1.317.937 1.317 1.535 0 1.422-2.774 2.492-5.938 2.293zm0 0"/></svg>