<svg xmlns="http://www.w3.org/2000/svg" width="16" height="16"><path style="fill-rule:nonzero;fill:#fff;fill-opacity:1;stroke-width:28.191782;stroke-linecap:butt;stroke-linejoin:miter;stroke:#666;stroke-opacity:1;stroke-miterlimit:4" d="M529.975-48.367h349c31.125 0 56.375 25.25 56.375 56.375v349c0 31.125-25.25 56.375-56.375 56.375h-349c-31.125 0-56.375-25.25-56.375-56.375v-349c0-31.125 25.25-56.375 56.375-56.375zm0 0" transform="translate(-14.015 2.297) scale(.03125)"/><path style="stroke:none;fill-rule:nonzero;fill:#666;fill-opacity:1" d="M1.836 5.168v5.492H5.19V7.875h5.618v2.785h3.355V5.168zm3.578-2.656h5.172v2.437H5.414zm0 0"/><path style="stroke:none;fill-rule:nonzero;fill:#666;fill-opacity:1" d="M5.75 8.492h4.5v4.996h-4.5zm0 0"/><path style="stroke:none;fill-rule:nonzero;fill:#ccc;fill-opacity:1" d="M6.117 12.45h3.766v.1H6.117zm0-.493h3.766v.102H6.117zm0-.488h3.766v.101H6.117zm0-.492h3.766v.101H6.117zm0-.493h3.766v.102H6.117zm0-.492h3.766v.106H6.117zm0-.488h3.766v.101H6.117zm0-.492h3.766v.101H6.117zm0 3.929h3.766v.102H6.117zm7.539-6.886c0 .218-.18.394-.402.394a.397.397 0 0 1-.399-.394c0-.215.18-.39.399-.39.223 0 .402.175.402.39zm0 0"/><path style="stroke:none;fill-rule:nonzero;fill:#f55;fill-opacity:1" d="M13.656 7.094c0 .218-.18.394-.402.394a.397.397 0 0 1-.399-.394c0-.219.18-.395.399-.395.223 0 .402.176.402.395zm0 0"/><path style="stroke:none;fill-rule:nonzero;fill:#0f0;fill-opacity:1" d="M13.656 8.133c0 .215-.18.39-.402.39a.396.396 0 0 1-.399-.39c0-.219.18-.395.399-.395.223 0 .402.176.402.395zm0 0"/></svg>