<svg xmlns="http://www.w3.org/2000/svg" width="16" height="16"><path style="fill-rule:nonzero;fill:#58785b;fill-opacity:1;stroke-width:18.73;stroke-linecap:butt;stroke-linejoin:miter;stroke:#3f5641;stroke-opacity:1;stroke-miterlimit:4" d="M71.24 35.923h354.75c26.25 0 47.625 21.375 47.625 47.625v354.75c0 26.25-21.375 47.625-47.625 47.625H71.24c-26.25 0-47.625-21.375-47.625-47.625V83.548c0-26.25 21.375-47.625 47.625-47.625zm0 0" transform="translate(.23 -.154) scale(.03125)"/><path style="stroke:none;fill-rule:nonzero;fill:#fff;fill-opacity:1" d="M10.64 3.703h.626c.277 0 .504.219.504.485v.277c0 .27-.227.484-.504.484h-.625a.49.49 0 0 1-.5-.484v-.277c0-.266.222-.485.5-.485zm0 1.813h.626c.277 0 .504.218.504.484v.277c0 .27-.227.485-.504.485h-.625a.49.49 0 0 1-.5-.485V6c0-.266.222-.484.5-.484zm0 1.937h.626c.277 0 .504.219.504.484v.278c0 .27-.227.484-.504.484h-.625a.49.49 0 0 1-.5-.484v-.277c0-.266.222-.485.5-.485zm0 1.813h.626c.277 0 .504.218.504.484v.277c0 .27-.227.485-.504.485h-.625a.49.49 0 0 1-.5-.485V9.75c0-.266.222-.484.5-.484zm0 1.874h.626c.277 0 .504.22.504.485v.277c0 .27-.227.485-.504.485h-.625a.49.49 0 0 1-.5-.485v-.277c0-.266.222-.484.5-.484zM4.89 3.703h.626c.277 0 .504.219.504.485v.277c0 .27-.227.484-.504.484H4.89a.49.49 0 0 1-.5-.484v-.277c0-.266.222-.485.5-.485zm0 1.813h.626c.277 0 .504.218.504.484v.277c0 .27-.227.485-.504.485H4.89a.49.49 0 0 1-.5-.485V6c0-.266.222-.484.5-.484zm0 1.937h.626c.277 0 .504.219.504.484v.278c0 .27-.227.484-.504.484H4.89a.49.49 0 0 1-.5-.484v-.277c0-.266.222-.485.5-.485zm0 1.813h.626c.277 0 .504.218.504.484v.277c0 .27-.227.485-.504.485H4.89a.49.49 0 0 1-.5-.485V9.75c0-.266.222-.484.5-.484zm0 1.874h.626c.277 0 .504.22.504.485v.277c0 .27-.227.485-.504.485H4.89a.49.49 0 0 1-.5-.485v-.277c0-.266.222-.484.5-.484zm0 0"/><path style="stroke:none;fill-rule:nonzero;fill:#49494c;fill-opacity:1" d="M10.18 13.621c-.07.04-.184.086-.254.102-.176.039-3.844.004-3.98-.04-.173-.054-.38-.238-.489-.433-.082-.152-.09-.21-.082-.555.004-.215.008-.613.008-.89a34.65 34.65 0 0 1 0-.903V7.184c0-.22.004-.63.012-.914.007-.286 0-.532-.012-.543-.012-.016-.02-.2-.012-.41.02-.516.02-1.403 0-1.735-.023-.477.129-.789.484-.984.165-.09.211-.09 2.102-.11 2.156-.02 2.137-.023 2.418.258.2.2.266.387.266.781 0 .176-.008.328-.02.344-.023.02-.02.504.012 1.445.008.211 0 .395-.012.41-.016.012-.02.262-.012.551.008.293.012.696.012.903v3.707c0 1.234 0 1.562.004 1.808.012.426-.152.758-.445.926zm0 0"/><path style="stroke:none;fill-rule:nonzero;fill:#ccc;fill-opacity:1" d="M10.02 13.004a.383.383 0 1 1-.767-.001.383.383 0 0 1 .767 0zM7.79 2.543h.433v.867h-.434zm0 0"/></svg>