<svg xmlns="http://www.w3.org/2000/svg" width="16" height="16"><path style="fill-rule:nonzero;fill:#fff;fill-opacity:1;stroke-width:7.717832;stroke-linecap:butt;stroke-linejoin:miter;stroke:#909090;stroke-opacity:1;stroke-miterlimit:4" d="M-13.636 275.925h95.532c8.537 0 15.452 6.914 15.452 15.452v95.532c0 8.537-6.915 15.452-15.452 15.452h-95.532c-8.538 0-15.452-6.915-15.452-15.452v-95.532c0-8.538 6.914-15.452 15.452-15.452zm0 0" transform="translate(4.22 -29.553) scale(.11073)"/><path style="stroke:none;fill-rule:nonzero;fill:#e6e6e6;fill-opacity:1" d="M8 3.57a2.984 2.984 0 0 0-2.992 2.99v5.87h.664V6.56A2.32 2.32 0 0 1 8 4.234a2.32 2.32 0 0 1 2.328 2.325v5.87h.664V6.56A2.984 2.984 0 0 0 8 3.57zm0 0"/><path style="stroke:none;fill-rule:nonzero;fill:#f9de69;fill-opacity:1" d="M4.234 12.43h7.532V8H4.234zm0 0"/><path style="stroke:none;fill-rule:nonzero;fill:#223656;fill-opacity:1" d="M8 8.887a.554.554 0 0 0-.223 1.062v1.598h.446V9.949A.554.554 0 0 0 8 8.886zm0 0"/></svg>