<svg xmlns="http://www.w3.org/2000/svg" width="16" height="16"><path style="stroke:none;fill-rule:nonzero;fill:#333;fill-opacity:1" d="M11.938 2.137h.18c.058 0 .105.015.105.027v1.148c0 .016-.047.028-.106.028h-.18c-.058 0-.105-.012-.105-.027v-1.15c0-.012.047-.027.105-.027zM3.875 3.453h.18c.058 0 .105.04.105.09v3.644c0 .051-.047.09-.105.09h-.18c-.059 0-.105-.039-.105-.09V3.543c0-.05.046-.09.105-.09zm0 0"/><path style="stroke:none;fill-rule:nonzero;fill:#333;fill-opacity:1" d="M4.676.863h6.648c.426 0 .77.367.77.82v12.633c0 .454-.344.82-.77.82H4.676c-.426 0-.77-.366-.77-.82V1.684c0-.454.344-.82.77-.82zm0 0"/><path style="stroke:none;fill-rule:nonzero;fill:#b3b3b3;fill-opacity:1" d="M4.703.926h6.594c.418 0 .762.367.762.816v12.516c0 .449-.344.816-.762.816H4.703c-.418 0-.762-.367-.762-.816V1.742c0-.449.344-.816.762-.816zm0 0"/><path style="stroke:none;fill-rule:nonzero;fill:#fff;fill-opacity:1" d="M4.863 1.082h6.274c.402 0 .726.355.726.797V14.12c0 .441-.324.797-.726.797H4.863c-.402 0-.726-.355-.726-.797V1.88c0-.442.324-.797.726-.797zm0 0"/><path style="stroke:none;fill-rule:nonzero;fill:#000;fill-opacity:1" d="M4.809 3.125h6.382v10.293H4.81zm0 0"/><path style="stroke:none;fill-rule:nonzero;fill:gray;fill-opacity:1" d="M6.566 1.781h2.868c.078 0 .144.063.144.14v.028a.144.144 0 0 1-.144.145H6.566a.144.144 0 0 1-.144-.145v-.027c0-.078.066-.14.144-.14zm0 0"/><path style="stroke:none;fill-rule:nonzero;fill:#1a1a1a;fill-opacity:1" d="M9.133 1.938a.072.072 0 0 1-.074.074.072.072 0 0 1-.075-.075c0-.042.032-.078.075-.078s.074.036.074.079zm-.262 0c0 .042-.035.074-.078.074a.074.074 0 0 1-.074-.075c0-.042.035-.078.074-.078.043 0 .078.036.078.079zm-.266 0a.074.074 0 0 1-.074.074.076.076 0 0 1-.078-.075c0-.042.035-.078.078-.078.04 0 .074.036.074.079zm-.265 0a.072.072 0 0 1-.074.074c-.043 0-.079-.032-.079-.075a.08.08 0 0 1 .079-.078c.043 0 .074.036.074.079zm-.266 0A.072.072 0 0 1 8 2.011a.072.072 0 0 1-.074-.075c0-.042.031-.078.074-.078s.074.036.074.079zm-.261 0c0 .042-.036.074-.079.074a.072.072 0 0 1-.074-.075c0-.042.031-.078.074-.078s.079.036.079.079zm-.266 0c0 .042-.035.074-.078.074a.074.074 0 0 1-.074-.075c0-.042.035-.078.074-.078.043 0 .078.036.078.079zm-.266 0a.074.074 0 0 1-.074.074.076.076 0 0 1-.078-.075c0-.042.035-.078.078-.078.04 0 .074.036.074.079zm-.265 0a.072.072 0 0 1-.075.074.072.072 0 0 1-.074-.075c0-.042.031-.078.074-.078s.075.036.075.079zm-.262 0c0 .042-.035.074-.078.074a.072.072 0 0 1-.074-.075c0-.042.03-.078.074-.078.043 0 .078.036.078.079zm2.644 0a.072.072 0 0 1-.074.074.076.076 0 0 1-.078-.075c0-.042.035-.078.078-.078s.074.036.074.079zm0 0"/><path style="stroke:none;fill-rule:nonzero;fill:#666;fill-opacity:1" d="M10.09 1.93c0 .086-.07.156-.156.156-.09 0-.16-.07-.16-.156a.158.158 0 0 1 .316 0zm0 0"/><path style="stroke:none;fill-rule:nonzero;fill:#666;fill-opacity:1" d="M10.09 1.93c0 .086-.07.156-.156.156-.09 0-.16-.07-.16-.156a.158.158 0 0 1 .316 0zm0 0"/><path style="stroke:none;fill-rule:nonzero;fill:#ccc;fill-opacity:1" d="M10.043 1.93a.11.11 0 0 1-.11.11.11.11 0 0 1-.113-.11.11.11 0 0 1 .114-.11.11.11 0 0 1 .109.11zm0 0"/><path style="stroke:none;fill-rule:nonzero;fill:#fff;fill-opacity:1" d="M9.938 1.898c0 .024-.016.04-.036.04a.04.04 0 0 1-.039-.04c0-.02.02-.035.04-.035.019 0 .034.016.034.035zm0 0"/><path style="stroke:none;fill-rule:nonzero;fill:#666;fill-opacity:1" d="M10.527 1.93c0 .086-.07.156-.156.156-.09 0-.16-.07-.16-.156a.158.158 0 0 1 .316 0zm0 0"/><path style="stroke:none;fill-rule:nonzero;fill:#666;fill-opacity:1" d="M10.527 1.93c0 .086-.07.156-.156.156-.09 0-.16-.07-.16-.156a.158.158 0 0 1 .316 0zm0 0"/><path style="stroke:none;fill-rule:nonzero;fill:#ccc;fill-opacity:1" d="M10.48 1.93a.11.11 0 0 1-.109.11.11.11 0 0 1-.113-.11c0-.063.05-.11.113-.11a.11.11 0 0 1 .11.11zm0 0"/><path style="stroke:none;fill-rule:nonzero;fill:#fff;fill-opacity:1" d="M10.375 1.898c0 .024-.016.04-.035.04a.04.04 0 0 1-.04-.04c0-.02.02-.035.04-.035s.035.016.035.035zm0 0"/><path style="stroke:none;fill-rule:nonzero;fill:#666;fill-opacity:1" d="M11.426 2.105a.348.348 0 0 1-.348.348.348.348 0 0 1-.344-.348.345.345 0 0 1 .691 0zm0 0"/><path style="stroke:none;fill-rule:nonzero;fill:#666;fill-opacity:1" d="M11.426 2.105a.348.348 0 0 1-.348.348.348.348 0 0 1-.344-.348.345.345 0 0 1 .691 0zm0 0"/><path style="stroke:none;fill-rule:nonzero;fill:#ccc;fill-opacity:1" d="M11.324 2.105a.244.244 0 1 1-.246-.242c.137 0 .246.11.246.242zm0 0"/><path style="stroke:none;fill-rule:nonzero;fill:#fff;fill-opacity:1" d="M11.094 2.04a.08.08 0 0 1-.078.081.08.08 0 0 1-.082-.082c0-.043.035-.082.082-.082.043 0 .078.04.078.082zm0 0"/><path style="stroke:none;fill-rule:nonzero;fill:#4d4d4d;fill-opacity:1" d="M6.848 13.719h2.465c.101 0 .183.11.183.246v.273c0 .137-.082.25-.184.25H6.848c-.102 0-.184-.113-.184-.25v-.273c0-.137.082-.246.184-.246zm0 0"/><path style="stroke:none;fill-rule:nonzero;fill:#999;fill-opacity:1" d="M6.895 13.766h2.37c.098 0 .176.097.176.218v.239c0 .12-.078.218-.175.218H6.895c-.098 0-.176-.097-.176-.218v-.239c0-.12.078-.218.176-.218zm0 0"/><path style="stroke:none;fill-rule:nonzero;fill:#ececec;fill-opacity:1" d="M6.941 13.836h2.274c.094 0 .172.078.172.172v.187a.173.173 0 0 1-.172.172H6.94a.17.17 0 0 1-.168-.172v-.187a.17.17 0 0 1 .168-.172zm0 0"/><path style="stroke:none;fill-rule:nonzero;fill:#003380;fill-opacity:1" d="M4.914 3.215h6.172v10.113H4.914zm0 0"/></svg>