<svg xmlns="http://www.w3.org/2000/svg" width="16" height="16"><path style="fill-rule:nonzero;fill:#fff;fill-opacity:1;stroke-width:18.591999;stroke-linecap:butt;stroke-linejoin:miter;stroke:#979797;stroke-opacity:1;stroke-miterlimit:4" d="M81.5 25.125h349c31.125 0 56.375 25.25 56.375 56.375v349c0 31.125-25.25 56.375-56.375 56.375h-349c-31.125 0-56.375-25.25-56.375-56.375v-349c0-31.125 25.25-56.375 56.375-56.375zm0 0" transform="scale(.03125)"/><path style="stroke:none;fill-rule:nonzero;fill:#4d4d4d;fill-opacity:1" d="M2.45 2.941h10.484c.488 0 .886.395.886.887v7.64a.886.886 0 0 1-.886.887H2.449a.887.887 0 0 1-.89-.886v-7.64c0-.493.398-.888.89-.888zm0 0"/><path style="stroke:none;fill-rule:nonzero;fill:#e6e6e6;fill-opacity:1" d="M3.984 3.535h8.473c.395 0 .715.348.715.774v6.68c0 .429-.32.773-.715.773H3.984c-.398 0-.718-.344-.718-.774v-6.68c0-.425.32-.773.718-.773zm0 0"/><path style="stroke:none;fill-rule:nonzero;fill:#fff;fill-opacity:1" d="M2.75 7.648c0 .247-.2.442-.445.442a.44.44 0 1 1 0-.883c.246 0 .445.195.445.441zm0 0"/><path style="stroke:none;fill-rule:nonzero;fill:#333;fill-opacity:1" d="M14.3 5.46c-.081-.081-.288-.007-.468.177l-6.371 6.37-.465 1.243 1.246-.46 6.371-6.372c.184-.18.258-.387.176-.469zm0 0"/></svg>