<svg xmlns="http://www.w3.org/2000/svg" width="16" height="16"><path style="fill-rule:nonzero;fill:#fff;fill-opacity:1;stroke-width:7.598406;stroke-linecap:butt;stroke-linejoin:miter;stroke:#909090;stroke-opacity:1;stroke-miterlimit:4" d="M20.704 167.023h94.059c8.4 0 15.214 6.813 15.214 15.214v94.06c0 8.4-6.813 15.213-15.214 15.213h-94.06c-8.4 0-15.213-6.813-15.213-15.214v-94.059c0-8.4 6.813-15.214 15.214-15.214zm0 0" transform="translate(0 -19.079) scale(.11811)"/><path style="stroke:none;fill-rule:evenodd;fill:#4d4d4d;fill-opacity:1" d="M5.344 2.078h5.312l.004.004h.004l.004.004v.004s0 .004.004.004c.117.508.433.96.523 1.476.086.485 0 1.477 0 1.477v8.867c-.004 0-.004 0-.004.004h-.004l-.003.004H4.816l-.003-.004h-.004s0-.004-.004-.004V5.046s-.086-.991 0-1.476c.09-.515.523-1.476.523-1.476.004 0 .004-.004.004-.004v-.004l.004-.004h.004l.004-.004zm0 0"/><path style="stroke:none;fill-rule:evenodd;fill:#0fa15f;fill-opacity:1" d="M6.336 4.04h3.328c.188 0 .344.151.344.343v.148c0 .188-.156.34-.344.34H6.336a.343.343 0 0 1-.344-.34v-.148c0-.192.156-.344.344-.344zm0 0"/><path style="stroke:none;fill-rule:evenodd;fill:#999;fill-opacity:1" d="M8.55 11.621a.55.55 0 1 1-1.1.001.55.55 0 0 1 1.1 0zm0 0"/><path style="stroke:none;fill-rule:nonzero;fill:#fff;fill-opacity:1" d="M7.629 12.441h.133v.254a.227.227 0 0 1-.012.075.12.12 0 0 1-.04.058.149.149 0 0 1-.05.035.236.236 0 0 1-.094.016c-.02 0-.043-.004-.07-.004a.206.206 0 0 1-.059-.02.135.135 0 0 1-.046-.035.109.109 0 0 1-.028-.05.265.265 0 0 1-.011-.075v-.254h.132v.262c0 .024.004.043.016.055.016.012.031.02.055.02.023 0 .043-.005.054-.02a.077.077 0 0 0 .02-.055zm.219 0h.222a.16.16 0 0 1 .11.036.13.13 0 0 1 .035.097.149.149 0 0 1-.04.102c-.027.023-.066.035-.12.035h-.07v.16h-.137zm.136.184h.032c.023 0 .043-.004.054-.016.008-.007.016-.02.016-.03 0-.017-.004-.028-.016-.036-.008-.012-.023-.016-.05-.016h-.036zm.278.102.125-.008c.004.023.008.039.015.047a.07.07 0 0 0 .059.027c.02 0 .035-.004.043-.012.012-.011.016-.02.016-.031a.044.044 0 0 0-.012-.031.236.236 0 0 0-.07-.024.313.313 0 0 1-.126-.054.1.1 0 0 1-.035-.082c0-.02.004-.043.02-.063a.13.13 0 0 1 .055-.047.376.376 0 0 1 .105-.015c.059 0 .098.011.129.03.027.02.043.052.05.098l-.124.008c-.004-.02-.012-.035-.024-.043-.008-.007-.023-.011-.043-.011-.015 0-.027 0-.035.007-.008.008-.012.016-.012.024s.004.012.012.02a.12.12 0 0 0 .043.015.391.391 0 0 1 .125.04.13.13 0 0 1 .055.046c.012.02.015.039.015.062a.178.178 0 0 1-.02.079.145.145 0 0 1-.066.05.261.261 0 0 1-.101.02c-.074 0-.125-.016-.152-.043a.166.166 0 0 1-.047-.11zm0 0"/><path style="stroke:none;fill-rule:evenodd;fill:#f2f2f2;fill-opacity:1" d="M8.39 11.621a.39.39 0 0 1-.39.39.392.392 0 0 1-.39-.39.39.39 0 0 1 .78 0zm0 0"/><path style="stroke:none;fill-rule:nonzero;fill:#0f0;fill-opacity:1" d="M7.469 7.586H8.53c.051 0 .09.062.09.137v.105c0 .078-.039.14-.09.14H7.47c-.051 0-.09-.062-.09-.14v-.105c0-.075.039-.137.09-.137zm0 0"/><path style="stroke:none;fill-rule:nonzero;fill:red;fill-opacity:1" d="M7.469 8.16H8.53c.051 0 .09.063.09.14v.102c0 .078-.039.141-.09.141H7.47c-.051 0-.09-.063-.09-.14V8.3c0-.078.039-.14.09-.14zm0 0"/><path style="stroke:none;fill-rule:nonzero;fill:#f60;fill-opacity:1" d="M7.469 8.688H8.53c.051 0 .09.062.09.136v.106c0 .078-.039.14-.09.14H7.47c-.051 0-.09-.062-.09-.14v-.106c0-.074.039-.136.09-.136zm0 0"/><path style="stroke:none;fill-rule:nonzero;fill:#fff;fill-opacity:1" d="M5.484 3.547h4.918c.266 0 .48.015.48.035 0 .023-.214.04-.48.04H5.484c-.265 0-.48-.017-.48-.04 0-.02.215-.035.48-.035zm0 0"/></svg>