<?xml version="1.0" encoding="UTF-8" standalone="no"?>
<!-- Created with Inkscape (http://www.inkscape.org/) -->

<svg
   height="24.000006"
   width="120"
   id="svg3124"
   sodipodi:version="0.32"
   inkscape:version="1.1.1 (3bf5ae0d25, 2021-09-20)"
   version="1.0"
   sodipodi:docname="tasks.svg"
   inkscape:output_extension="org.inkscape.output.svg.inkscape"
   xmlns:inkscape="http://www.inkscape.org/namespaces/inkscape"
   xmlns:sodipodi="http://sodipodi.sourceforge.net/DTD/sodipodi-0.dtd"
   xmlns="http://www.w3.org/2000/svg"
   xmlns:svg="http://www.w3.org/2000/svg"
   xmlns:rdf="http://www.w3.org/1999/02/22-rdf-syntax-ns#"
   xmlns:cc="http://creativecommons.org/ns#"
   xmlns:dc="http://purl.org/dc/elements/1.1/">
  <sodipodi:namedview
     id="base"
     pagecolor="#a060a0"
     bordercolor="#646064"
     borderopacity="1.0"
     inkscape:pageopacity="0.5"
     inkscape:pageshadow="2"
     inkscape:cx="72.522635"
     inkscape:cy="13.832776"
     inkscape:zoom="11.313709"
     inkscape:document-units="px"
     inkscape:current-layer="attention-right"
     showgrid="true"
     gridtolerance="10000"
     inkscape:grid-points="true"
     inkscape:window-width="1920"
     inkscape:window-height="1025"
     inkscape:window-x="0"
     inkscape:window-y="28"
     showguides="true"
     inkscape:guide-bbox="true"
     inkscape:window-maximized="1"
     fit-margin-top="0"
     fit-margin-left="0"
     fit-margin-right="0"
     fit-margin-bottom="0"
     inkscape:pagecheckerboard="0">
    <inkscape:grid
       originy="-35.999999"
       originx="1"
       snapvisiblegridlinesonly="true"
       empspacing="5"
       type="xygrid"
       id="grid3133"
       visible="true"
       enabled="true"
       spacingx="1"
       spacingy="1" />
  </sodipodi:namedview>
  <defs
     id="defs3126">
    <style
       type="text/css"
       id="current-color-scheme">.ColorScheme-NegativeText { color:#cfc447; }
.ColorScheme-Text { color:#000000; }
.ColorScheme-Background { color:#aeaaae; }
.ColorScheme-Highlight { color:#3daee9; }
.ColorScheme-ViewText { color:#000000; }
.ColorScheme-ViewBackground { color:#ffffff; }
.ColorScheme-ViewHover { color:#8ecbe9; }
.ColorScheme-ViewFocus { color:#5c5c7f; }
.ColorScheme-ButtonText { color:#000000; }
.ColorScheme-ButtonBackground { color:#aeaaae; }
.ColorScheme-ButtonHover { color:#8ecbe9; }
.ColorScheme-ButtonFocus { color:#5c5c7f; }
</style>
  </defs>
  <metadata
     id="metadata3129">
    <rdf:RDF>
      <cc:Work
         rdf:about="">
        <dc:format>image/svg+xml</dc:format>
        <dc:type
           rdf:resource="http://purl.org/dc/dcmitype/StillImage" />
        <dc:title />
      </cc:Work>
    </rdf:RDF>
  </metadata>
  <g
     inkscape:groupmode="layer"
     inkscape:label="Warstwa 1"
     id="layer1"
     transform="translate(37.5,21.137824)">
    <rect
       y="-18.137815"
       x="-34.5"
       height="17.999996"
       width="18"
       id="normal-center"
       style="fill:currentColor;fill-opacity:1;stroke:none"
       class="ColorScheme-ButtonBackground" />
    <g
       transform="translate(-5,-4.9999988)"
       id="normal-topleft">
      <rect
         style="opacity:0;fill:#ff00ff;fill-opacity:1;stroke:none"
         id="rect4056-7-7"
         width="3"
         height="3"
         x="4"
         y="5"
         transform="translate(-36.5,-21.13782)" />
      <g
         id="g4355-5-5">
        <rect
           style="fill:currentColor;fill-opacity:1;stroke:none"
           id="rect4000-3-3"
           width="2"
           height="2"
           x="5"
           y="6"
           transform="translate(-36.5,-21.13782)"
           class="ColorScheme-ButtonBackground" />
        <g
           id="g4285-5-5">
          <path
             style="fill:#000000;fill-opacity:0.600;stroke:none"
             d="M 5,6 5,7 5,8 6,8 6,7 7,7 7,6 5,6 z"
             transform="translate(-36.5,-21.13782)"
             id="rect3222-62-6"
             inkscape:connector-curvature="0" />
          <rect
             style="fill:#ffffff;fill-opacity:0.75;stroke:none"
             id="rect3293-9-2"
             width="1"
             height="1"
             x="6"
             y="7"
             transform="translate(-36.5,-21.13782)" />
        </g>
      </g>
    </g>
    <g
       transform="translate(-31,-31)"
       id="normal-bottomright">
      <rect
         style="opacity:0;fill:#ff00ff;fill-opacity:1;stroke:none"
         id="rect4074-2-1"
         width="3"
         height="3"
         x="51"
         y="52"
         transform="translate(-36.5,-21.13782)" />
      <g
         id="g4363-7-2">
        <rect
           style="fill:currentColor;fill-opacity:1;stroke:none"
           id="rect4020-0-7"
           width="2"
           height="2"
           x="51"
           y="52"
           transform="translate(-36.5,-21.13782)"
           class="ColorScheme-ButtonBackground" />
        <g
           id="g4291-9-0">
          <path
             inkscape:connector-curvature="0"
             style="fill:#000000;fill-opacity:0.600;stroke:none"
             d="m 16.5,32.86218 0,-1 0,-1 -1,0 0,1 -1,0 0,1 2,0 z"
             id="rect3222-7-3-9" />
          <rect
             style="fill:#000000;fill-opacity:0.500;stroke:none"
             id="rect3315-9-60-3"
             width="1"
             height="1"
             x="14.5"
             y="30.862181" />
        </g>
      </g>
    </g>
    <g
       transform="translate(-31,-4.9999998)"
       id="normal-topright">
      <rect
         style="opacity:0;fill:#ff00ff;fill-opacity:1;stroke:none"
         id="rect4060-2-0"
         width="3"
         height="3"
         x="51"
         y="5"
         transform="translate(-36.5,-21.13782)" />
      <g
         id="g4371-6-6">
        <rect
           style="fill:currentColor;fill-opacity:1;stroke:none"
           id="rect4004-1-2"
           width="2"
           height="2"
           x="51"
           y="6"
           transform="translate(-36.5,-21.13782)"
           class="ColorScheme-ButtonBackground" />
        <g
           id="g4297-8-6">
          <path
             inkscape:connector-curvature="0"
             style="fill:#000000;fill-opacity:0.600;stroke:none"
             d="m 16.5,-15.13782 0,1 0,1 -1,0 0,-1 -1,0 0,-1 2,0 z"
             id="rect3222-3-7-1" />
          <rect
             style="fill:#000000;fill-opacity:0.500;stroke:none"
             id="rect3315-1-9-8"
             width="1"
             height="1"
             x="14.5"
             y="-14.13782" />
        </g>
      </g>
    </g>
    <g
       transform="translate(-5,-31)"
       id="normal-bottomleft">
      <rect
         style="opacity:0;fill:#ff00ff;fill-opacity:1;stroke:none"
         id="rect4068-0-9"
         width="3"
         height="3"
         x="4"
         y="52"
         transform="translate(-36.5,-21.13782)" />
      <g
         id="g4379-2-2">
        <rect
           style="fill:currentColor;fill-opacity:1;stroke:none"
           id="rect4014-3-0"
           width="2"
           height="2"
           x="5"
           y="52"
           transform="translate(-36.5,-21.13782)"
           class="ColorScheme-ButtonBackground" />
        <g
           id="g4303-7-2">
          <path
             inkscape:connector-curvature="0"
             style="fill:#000000;fill-opacity:0.600;stroke:none"
             d="m -31.5,32.86218 0,-1 0,-1 1,0 0,1 1,0 0,1 -2,0 z"
             id="rect3222-6-5-3" />
          <rect
             style="fill:#000000;fill-opacity:0.500;stroke:none"
             id="rect3315-92-7"
             width="1"
             height="1"
             x="6"
             y="52"
             transform="translate(-36.5,-21.13782)" />
        </g>
      </g>
    </g>
    <g
       transform="matrix(0.40909091,0,0,1,-22.431818,-4.9999988)"
       id="normal-top">
      <rect
         style="opacity:0;fill:#ff00ff;fill-opacity:1;stroke:none"
         id="rect4058-8-9"
         width="44"
         height="3"
         x="7"
         y="5"
         transform="translate(-36.5,-21.13782)" />
      <g
         id="g4387-9-2">
        <rect
           style="fill:currentColor;fill-opacity:1;stroke:none"
           id="rect4002-7-2"
           width="44"
           height="2"
           x="7"
           y="6"
           transform="translate(-36.5,-21.13782)"
           class="ColorScheme-ButtonBackground" />
        <g
           id="g4309-3-8">
          <rect
             style="fill:#000000;fill-opacity:0.600;stroke:none"
             id="rect3259-6-9"
             width="44"
             height="1"
             x="7"
             y="6"
             transform="translate(-36.5,-21.13782)" />
          <rect
             style="fill:#ffffff;fill-opacity:0.75;stroke:none"
             id="rect3295-1-7"
             width="44"
             height="1"
             x="7"
             y="7"
             transform="translate(-36.5,-21.13782)" />
        </g>
      </g>
    </g>
    <g
       transform="matrix(1,0,0,0.40909089,-5,-12.763257)"
       id="normal-left">
      <rect
         style="opacity:0;fill:#ff00ff;fill-opacity:1;stroke:none"
         id="rect4062-9-6"
         width="3"
         height="44"
         x="4"
         y="8"
         transform="translate(-36.5,-21.13782)" />
      <g
         id="g4395-3-1">
        <rect
           style="fill:currentColor;fill-opacity:1;stroke:none"
           id="rect4006-1-2"
           width="2"
           height="44"
           x="5"
           y="8"
           transform="translate(-36.5,-21.13782)"
           class="ColorScheme-ButtonBackground" />
        <g
           id="g4315-9-9">
          <rect
             style="fill:#000000;fill-opacity:0.600;stroke:none"
             id="rect3259-5-4-3"
             width="44"
             height="1"
             x="-13.13782"
             y="30.5"
             transform="matrix(0,1,-1,0,0,0)" />
          <rect
             style="fill:#ffffff;fill-opacity:0.75;stroke:none"
             id="rect3295-2-7-1"
             width="44"
             height="1"
             x="-13.13782"
             y="29.5"
             transform="matrix(0,1,-1,0,0,0)" />
        </g>
      </g>
    </g>
    <g
       transform="matrix(1,0,0,0.40909092,-31,-12.763257)"
       id="normal-right">
      <rect
         style="opacity:0;fill:#ff00ff;fill-opacity:1;stroke:none"
         id="rect4066-4-4"
         width="3"
         height="44"
         x="51"
         y="8"
         transform="translate(-36.5,-21.13782)" />
      <g
         id="g4403-5-7">
        <rect
           style="fill:currentColor;fill-opacity:1;stroke:none"
           id="rect4012-0-8"
           width="2"
           height="44"
           x="51"
           y="8"
           transform="translate(-36.5,-21.13782)"
           class="ColorScheme-ButtonBackground" />
        <g
           id="g4321-3-4">
          <rect
             style="fill:#000000;fill-opacity:0.600;stroke:none"
             id="rect3259-3-6-5"
             width="44"
             height="1"
             x="-13.13782"
             y="-16.5"
             transform="matrix(0,1,-1,0,0,0)" />
          <rect
             style="fill:#000000;fill-opacity:0.500;stroke:none"
             id="rect3342-2-10-0"
             width="44"
             height="1"
             x="-13.13782"
             y="-15.5"
             transform="matrix(0,1,-1,0,0,0)" />
        </g>
      </g>
    </g>
    <g
       transform="matrix(0.40909091,0,0,1,-22.431818,-31)"
       id="normal-bottom">
      <rect
         style="opacity:0;fill:#ff00ff;fill-opacity:1;stroke:none"
         id="rect4072-3-6"
         width="44"
         height="3"
         x="7"
         y="52"
         transform="translate(-36.5,-21.13782)" />
      <g
         id="g4411-2-1">
        <rect
           style="fill:currentColor;fill-opacity:1;stroke:none"
           id="rect4016-0-0"
           width="44"
           height="2"
           x="7"
           y="52"
           transform="translate(-36.5,-21.13782)"
           class="ColorScheme-ButtonBackground" />
        <g
           id="g4327-6-6">
          <rect
             style="fill:#000000;fill-opacity:0.600;stroke:none"
             id="rect3259-56-15-3"
             width="44"
             height="1"
             x="-29.5"
             y="31.862181" />
          <rect
             style="fill:#000000;fill-opacity:0.500;stroke:none"
             id="rect3342-5-2"
             width="44"
             height="1"
             x="7"
             y="52"
             transform="translate(-36.5,-21.13782)" />
        </g>
      </g>
    </g>
    <rect
       y="-18.137821"
       x="61.5"
       height="18.000002"
       width="18"
       id="attention-center"
       style="fill:currentColor;fill-opacity:1;stroke:none"
       class="ColorScheme-NegativeText" />
    <g
       id="attention-topleft"
       transform="translate(91,-5.0000007)">
      <rect
         style="opacity:0;fill:#ff00ff;fill-opacity:1;stroke:none"
         id="rect4056-7-75"
         width="3"
         height="3"
         x="-32.5"
         y="-16.137819" />
      <rect
         y="-15.13782"
         x="-31.5"
         height="2"
         width="2"
         id="rect4000-3-8"
         style="fill:currentColor;fill-opacity:1;stroke:none"
         class="ColorScheme-NegativeText" />
      <g
         id="g4285-5-8">
        <path
           inkscape:connector-curvature="0"
           id="rect3222-62-3"
           transform="translate(-36.5,-21.13782)"
           d="M 5,6 5,7 5,8 6,8 6,7 7,7 7,6 5,6 z"
           style="fill:#000000;fill-opacity:0.600;stroke:none" />
        <rect
           transform="translate(-36.5,-21.13782)"
           y="7"
           x="6"
           height="1"
           width="1"
           id="rect3293-9-1"
           style="fill:#ffffff;fill-opacity:0.75;stroke:none" />
      </g>
    </g>
    <g
       id="attention-bottomright"
       transform="translate(65,-31.000001)">
      <rect
         style="opacity:0;fill:#ff00ff;fill-opacity:1;stroke:none"
         id="rect4074-2-9"
         width="3"
         height="3"
         x="14.5"
         y="30.862181" />
      <rect
         y="30.862181"
         x="14.5"
         height="2"
         width="2"
         id="rect4020-0-4"
         style="fill:currentColor;fill-opacity:1;stroke:none"
         class="ColorScheme-NegativeText" />
      <g
         id="g4291-9-3">
        <path
           id="rect3222-7-3-3"
           d="m 16.5,32.86218 0,-1 0,-1 -1,0 0,1 -1,0 0,1 2,0 z"
           style="fill:#000000;fill-opacity:0.600;stroke:none"
           inkscape:connector-curvature="0" />
        <rect
           y="30.862181"
           x="14.5"
           height="1"
           width="1"
           id="rect3315-9-60-38"
           style="fill:#000000;fill-opacity:0.500;stroke:none" />
      </g>
    </g>
    <g
       id="attention-topright"
       transform="translate(65,-5)">
      <rect
         style="opacity:0;fill:#ff00ff;fill-opacity:1;stroke:none"
         id="rect4060-2-48"
         width="3"
         height="3"
         x="14.5"
         y="-16.137819" />
      <rect
         y="-15.13782"
         x="14.5"
         height="2"
         width="2"
         id="rect4004-1-8"
         style="fill:currentColor;fill-opacity:1;stroke:none"
         class="ColorScheme-NegativeText" />
      <g
         id="g4297-8-9">
        <path
           id="rect3222-3-7-77"
           d="m 16.5,-15.13782 0,1 0,1 -1,0 0,-1 -1,0 0,-1 2,0 z"
           style="fill:#000000;fill-opacity:0.600;stroke:none"
           inkscape:connector-curvature="0" />
        <rect
           y="-14.13782"
           x="14.5"
           height="1"
           width="1"
           id="rect3315-1-9-6"
           style="fill:#000000;fill-opacity:0.500;stroke:none" />
      </g>
    </g>
    <g
       id="attention-bottomleft"
       transform="translate(91,-31)">
      <rect
         style="opacity:0;fill:#ff00ff;fill-opacity:1;stroke:none"
         id="rect4068-0-3"
         width="3"
         height="3"
         x="-32.5"
         y="30.862181" />
      <rect
         y="30.862181"
         x="-31.5"
         height="2"
         width="2"
         id="rect4014-3-09"
         style="fill:currentColor;fill-opacity:1;stroke:none"
         class="ColorScheme-NegativeText" />
      <g
         id="g4303-7-25">
        <path
           id="rect3222-6-5-40"
           d="m -31.5,32.86218 0,-1 0,-1 1,0 0,1 1,0 0,1 -2,0 z"
           style="fill:#000000;fill-opacity:0.600;stroke:none"
           inkscape:connector-curvature="0" />
        <rect
           transform="translate(-36.5,-21.13782)"
           y="52"
           x="6"
           height="1"
           width="1"
           id="rect3315-92-59"
           style="fill:#000000;fill-opacity:0.500;stroke:none" />
      </g>
    </g>
    <g
       id="attention-top"
       transform="matrix(0.40909091,0,0,1,73.568182,-5.0000007)">
      <rect
         style="opacity:0;fill:#ff00ff;fill-opacity:1;stroke:none"
         id="rect4058-8-6"
         width="44"
         height="3"
         x="-29.5"
         y="-16.137819" />
      <rect
         y="-15.13782"
         x="-29.5"
         height="2"
         width="44"
         id="rect4002-7-22"
         style="fill:currentColor;fill-opacity:1;stroke:none"
         class="ColorScheme-NegativeText" />
      <g
         id="g4309-3-4">
        <rect
           transform="translate(-36.5,-21.13782)"
           y="6"
           x="7"
           height="1"
           width="44"
           id="rect3259-6-7"
           style="fill:#000000;fill-opacity:0.6;stroke:none" />
        <rect
           transform="translate(-36.5,-21.13782)"
           y="7"
           x="7"
           height="1"
           width="44"
           id="rect3295-1-75"
           style="fill:#ffffff;fill-opacity:0.75;stroke:none" />
      </g>
    </g>
    <g
       id="attention-left"
       transform="matrix(1,0,0,0.40909094,91,-12.763258)">
      <rect
         style="opacity:0;fill:#ff00ff;fill-opacity:1;stroke:none"
         id="rect4062-9-8"
         width="3"
         height="44"
         x="-32.5"
         y="-13.13782" />
      <rect
         y="-13.13782"
         x="-31.5"
         height="44"
         width="2"
         id="rect4006-1-8"
         style="fill:currentColor;fill-opacity:1;stroke:none"
         class="ColorScheme-NegativeText" />
      <g
         id="g4315-9-93">
        <rect
           transform="matrix(0,1,-1,0,0,0)"
           y="30.5"
           x="-13.13782"
           height="1"
           width="44"
           id="rect3259-5-4-6"
           style="fill:#000000;fill-opacity:0.600;stroke:none" />
        <rect
           transform="matrix(0,1,-1,0,0,0)"
           y="29.5"
           x="-13.13782"
           height="1"
           width="44"
           id="rect3295-2-7-80"
           style="fill:#ffffff;fill-opacity:0.75;stroke:none" />
      </g>
    </g>
    <g
       id="attention-right"
       transform="matrix(1,0,0,0.40909092,65,-12.763257)">
      <rect
         style="opacity:0;fill:#ff00ff;fill-opacity:1;stroke:none"
         id="rect4066-4-10"
         width="3"
         height="44"
         x="14.5"
         y="-13.13782" />
      <rect
         y="-13.13782"
         x="14.5"
         height="44"
         width="2"
         id="rect4012-0-1"
         style="fill:currentColor;fill-opacity:1;stroke:none"
         class="ColorScheme-NegativeText" />
      <g
         id="g4321-3-1">
        <rect
           transform="matrix(0,1,-1,0,0,0)"
           y="-16.5"
           x="-13.13782"
           height="1"
           width="44"
           id="rect3259-3-6-0"
           style="fill:#000000;fill-opacity:0.600;stroke:none" />
        <rect
           transform="matrix(0,1,-1,0,0,0)"
           y="-15.5"
           x="-13.13782"
           height="1"
           width="44"
           id="rect3342-2-10-8"
           style="fill:#000000;fill-opacity:0.500;stroke:none" />
      </g>
    </g>
    <g
       id="attention-bottom"
       transform="matrix(0.40909091,0,0,1,73.568182,-31.000001)">
      <rect
         style="opacity:0;fill:#ff00ff;fill-opacity:1;stroke:none"
         id="rect4072-3-06"
         width="44"
         height="3"
         x="-29.5"
         y="30.862181" />
      <rect
         y="30.862181"
         x="-29.5"
         height="2"
         width="44"
         id="rect4016-0-6"
         style="fill:currentColor;fill-opacity:1;stroke:none"
         class="ColorScheme-NegativeText" />
      <g
         id="g4327-6-2">
        <rect
           y="31.862181"
           x="-29.5"
           height="1"
           width="44"
           id="rect3259-56-15-5"
           style="fill:#000000;fill-opacity:0.600;stroke:none" />
        <rect
           transform="translate(-36.5,-21.13782)"
           y="52"
           x="7"
           height="1"
           width="44"
           id="rect3342-5-86"
           style="fill:#000000;fill-opacity:0.500;stroke:none" />
      </g>
    </g>
    <g
       id="focus-center"
       transform="matrix(0.40909091,0,0,0.40909088,-11.25,-33.217801)">
      <rect
         style="fill:currentColor;fill-opacity:1;stroke:none"
         id="rect7000"
         width="44"
         height="44"
         x="60.5"
         y="36.862179"
         class="ColorScheme-ButtonBackground" />
      <rect
         style="opacity:0.400;fill:#000000;fill-opacity:1;stroke:none"
         id="rect5737"
         width="44"
         height="44"
         x="60.5"
         y="36.862179" />
    </g>
    <g
       id="focus-topleft"
       transform="translate(43,-54.999999)">
      <rect
         style="opacity:0;fill:#ff00ff;fill-opacity:1;stroke:none"
         id="rect4056"
         width="3"
         height="3"
         x="-32.5"
         y="33.862179" />
      <rect
         y="34.862179"
         x="-31.5"
         height="2"
         width="2"
         id="rect4000"
         style="fill:currentColor;fill-opacity:1;stroke:none"
         class="ColorScheme-ButtonBackground" />
      <path
         inkscape:connector-curvature="0"
         style="fill:#000000;fill-opacity:0.600;stroke:none"
         d="m -31.5,34.862177 0,1 0,1 1,0 0,-1 1,0 0,-1 -2,0 z"
         id="rect3222-0" />
      <rect
         style="opacity:0.400;fill:#000000;fill-opacity:1;stroke:none"
         id="rect3293-2"
         width="1"
         height="1"
         x="-30.5"
         y="35.862179" />
    </g>
    <g
       id="focus-bottomright"
       transform="translate(17,-80.999997)">
      <rect
         style="opacity:0;fill:#ff00ff;fill-opacity:1;stroke:none"
         id="rect4074"
         width="3"
         height="3"
         x="14.5"
         y="80.862175" />
      <rect
         y="80.862175"
         x="14.5"
         height="2"
         width="2"
         id="rect4020"
         style="fill:currentColor;fill-opacity:1;stroke:none"
         class="ColorScheme-ButtonBackground" />
      <path
         inkscape:connector-curvature="0"
         style="fill:#000000;fill-opacity:0.600;stroke:none"
         d="m 16.5,82.862177 0,-1 0,-1 -1,0 0,1 -1,0 0,1 2,0 z"
         id="rect3222-7-1" />
      <rect
         style="opacity:0.400;fill:#000000;fill-opacity:1;stroke:none"
         id="rect3315-9-1"
         width="1"
         height="1"
         x="14.5"
         y="80.862175" />
      <path
         id="rect3214-7-0"
         d="m 17.5,83.862177 0,-1 0,-2 -1,0 0,2 -2,0 0,1 3,0 z"
         style="fill:#ffffff;fill-opacity:0.75;stroke:none"
         inkscape:connector-curvature="0" />
    </g>
    <g
       id="focus-topright"
       transform="translate(17,-54.999997)">
      <rect
         style="opacity:0;fill:#ff00ff;fill-opacity:1;stroke:none"
         id="rect4060"
         width="3"
         height="3"
         x="14.5"
         y="33.862179" />
      <rect
         y="34.862179"
         x="14.5"
         height="2"
         width="2"
         id="rect4004"
         style="fill:currentColor;fill-opacity:1;stroke:none"
         class="ColorScheme-ButtonBackground" />
      <path
         inkscape:connector-curvature="0"
         style="fill:#000000;fill-opacity:0.600;stroke:none"
         d="m 16.5,34.862177 0,1 0,1 -1,0 0,-1 -1,0 0,-1 2,0 z"
         id="rect3222-3-0" />
      <rect
         style="opacity:0.400;fill:#000000;fill-opacity:1;stroke:none"
         id="rect3315-1-6"
         width="1"
         height="1"
         x="14.5"
         y="35.862179" />
      <rect
         y="33.862179"
         x="16.5"
         height="3"
         width="1"
         id="rect3251-4"
         style="fill:#ffffff;fill-opacity:0.75;stroke:none" />
    </g>
    <g
       id="focus-bottomleft"
       transform="translate(43,-80.999995)">
      <rect
         style="opacity:0;fill:#ff00ff;fill-opacity:1;stroke:none"
         id="rect4068"
         width="3"
         height="3"
         x="-32.5"
         y="80.862175" />
      <rect
         y="80.862175"
         x="-31.5"
         height="2"
         width="2"
         id="rect4014"
         style="fill:currentColor;fill-opacity:1;stroke:none"
         class="ColorScheme-ButtonBackground" />
      <path
         inkscape:connector-curvature="0"
         style="fill:#000000;fill-opacity:0.600;stroke:none"
         d="m -31.5,82.862177 0,-1 0,-1 1,0 0,1 1,0 0,1 -2,0 z"
         id="rect3222-6-8" />
      <rect
         style="opacity:0.400;fill:#000000;fill-opacity:1;stroke:none"
         id="rect3315-6"
         width="1"
         height="1"
         x="-30.5"
         y="80.862175" />
      <rect
         transform="matrix(0,1,-1,0,0,0)"
         y="29.5"
         x="82.862175"
         height="3"
         width="1"
         id="rect3251-3-2"
         style="fill:#ffffff;fill-opacity:0.75;stroke:none" />
    </g>
    <g
       id="focus-top"
       transform="matrix(0.40909091,0,0,1,25.568182,-54.999999)">
      <rect
         style="opacity:0;fill:#ff00ff;fill-opacity:1;stroke:none"
         id="rect4058"
         width="44"
         height="3"
         x="-29.5"
         y="33.862179" />
      <rect
         y="34.862179"
         x="-29.5"
         height="2"
         width="44"
         id="rect4002"
         style="fill:currentColor;fill-opacity:1;stroke:none"
         class="ColorScheme-ButtonBackground" />
      <rect
         style="fill:#000000;fill-opacity:0.600;stroke:none"
         id="rect3259-2"
         width="44"
         height="1"
         x="-29.5"
         y="34.862179" />
      <rect
         style="opacity:0.400;fill:#000000;fill-opacity:1;stroke:none"
         id="rect3295-4"
         width="44"
         height="1"
         x="-29.5"
         y="35.862179" />
    </g>
    <g
       id="focus-left"
       transform="matrix(1,0,0,0.409091,43,-33.217808)">
      <rect
         style="opacity:0;fill:#ff00ff;fill-opacity:1;stroke:none"
         id="rect4062"
         width="3"
         height="44"
         x="-32.5"
         y="36.862179" />
      <rect
         y="36.862179"
         x="-31.5"
         height="44"
         width="2"
         id="rect4006"
         style="fill:currentColor;fill-opacity:1;stroke:none"
         class="ColorScheme-ButtonBackground" />
      <rect
         style="fill:#000000;fill-opacity:0.600;stroke:none"
         id="rect3259-5-9"
         width="44"
         height="1"
         x="36.862175"
         y="30.5"
         transform="matrix(0,1,-1,0,0,0)" />
      <rect
         style="opacity:0.400;fill:#000000;fill-opacity:1;stroke:none"
         id="rect3295-2-9"
         width="44"
         height="1"
         x="36.862175"
         y="29.5"
         transform="matrix(0,1,-1,0,0,0)" />
    </g>
    <g
       id="focus-right"
       transform="matrix(1,0,0,0.40909088,17,-33.217801)">
      <rect
         style="opacity:0;fill:#ff00ff;fill-opacity:1;stroke:none"
         id="rect4066"
         width="3"
         height="44"
         x="14.5"
         y="36.862179" />
      <rect
         y="36.862179"
         x="14.5"
         height="44"
         width="2"
         id="rect4012"
         style="fill:currentColor;fill-opacity:1;stroke:none"
         class="ColorScheme-ButtonBackground" />
      <rect
         style="fill:#000000;fill-opacity:0.600;stroke:none"
         id="rect3259-3-3"
         width="44"
         height="1"
         x="36.862179"
         y="-16.5"
         transform="matrix(0,1,-1,0,0,0)" />
      <rect
         style="opacity:0.400;fill:#000000;fill-opacity:1;stroke:none"
         id="rect3342-2-1"
         width="44"
         height="1"
         x="36.862179"
         y="-15.5"
         transform="matrix(0,1,-1,0,0,0)" />
      <rect
         transform="matrix(0,1,-1,0,0,0)"
         y="-17.5"
         x="36.862179"
         height="1"
         width="44"
         id="rect3303-2-1"
         style="fill:#ffffff;fill-opacity:0.75;stroke:none" />
    </g>
    <g
       id="focus-bottom"
       transform="matrix(0.40909091,0,0,1,25.568182,-80.999995)">
      <rect
         style="opacity:0;fill:#ff00ff;fill-opacity:1;stroke:none"
         id="rect4072"
         width="44"
         height="3"
         x="-29.5"
         y="80.862175" />
      <rect
         y="80.862175"
         x="-29.5"
         height="2"
         width="44"
         id="rect4016"
         style="fill:currentColor;fill-opacity:1;stroke:none"
         class="ColorScheme-ButtonBackground" />
      <rect
         style="fill:#000000;fill-opacity:0.600;stroke:none"
         id="rect3259-56-4"
         width="44"
         height="1"
         x="-29.5"
         y="81.862175" />
      <rect
         style="opacity:0.400;fill:#000000;fill-opacity:1;stroke:none"
         id="rect3342-0"
         width="44"
         height="1"
         x="-29.5"
         y="80.862175" />
      <rect
         y="82.862175"
         x="-29.5"
         height="1"
         width="44"
         id="rect3303-9-3"
         style="fill:#ffffff;fill-opacity:0.75;stroke:none" />
    </g>
    <rect
       y="-18.137815"
       x="-10.5"
       height="17.999996"
       width="18"
       id="hover-center"
       style="fill:currentColor;fill-opacity:1;stroke:none"
       class="ColorScheme-ButtonBackground" />
    <g
       transform="translate(19,-4.9999982)"
       id="hover-topleft">
      <rect
         style="opacity:0;fill:#ff00ff;fill-opacity:1;stroke:none"
         id="rect4056-7-7-7"
         width="3"
         height="3"
         x="4"
         y="5"
         transform="translate(-36.5,-21.13782)" />
      <g
         id="g4355-5-5-5">
        <rect
           style="fill:currentColor;fill-opacity:1;stroke:none"
           id="rect4000-3-3-3"
           width="2"
           height="2"
           x="5"
           y="6"
           transform="translate(-36.5,-21.13782)"
           class="ColorScheme-ButtonBackground" />
        <g
           id="g4285-5-5-5">
          <path
             style="fill:#000000;fill-opacity:0.600;stroke:none"
             d="M 5,6 5,7 5,8 6,8 6,7 7,7 7,6 5,6 z"
             transform="translate(-36.5,-21.13782)"
             id="rect3222-62-6-6"
             inkscape:connector-curvature="0" />
          <rect
             style="fill:#ffffff;fill-opacity:0.75;stroke:none"
             id="rect3293-9-2-2"
             width="1"
             height="1"
             x="6"
             y="7"
             transform="translate(-36.5,-21.13782)" />
        </g>
      </g>
    </g>
    <g
       transform="translate(-7,-30.999999)"
       id="hover-bottomright">
      <rect
         style="opacity:0;fill:#ff00ff;fill-opacity:1;stroke:none"
         id="rect4074-2-1-1"
         width="3"
         height="3"
         x="51"
         y="52"
         transform="translate(-36.5,-21.13782)" />
      <g
         id="g4363-7-2-2">
        <rect
           style="fill:currentColor;fill-opacity:1;stroke:none"
           id="rect4020-0-7-7"
           width="2"
           height="2"
           x="51"
           y="52"
           transform="translate(-36.5,-21.13782)"
           class="ColorScheme-ButtonBackground" />
        <g
           id="g4291-9-0-0">
          <path
             inkscape:connector-curvature="0"
             style="fill:#000000;fill-opacity:0.600;stroke:none"
             d="m 16.5,32.86218 0,-1 0,-1 -1,0 0,1 -1,0 0,1 2,0 z"
             id="rect3222-7-3-9-9" />
          <rect
             style="fill:#000000;fill-opacity:0.500;stroke:none"
             id="rect3315-9-60-3-3"
             width="1"
             height="1"
             x="14.5"
             y="30.862181" />
        </g>
      </g>
    </g>
    <g
       transform="translate(-7,-4.9999992)"
       id="hover-topright">
      <rect
         style="opacity:0;fill:#ff00ff;fill-opacity:1;stroke:none"
         id="rect4060-2-0-0"
         width="3"
         height="3"
         x="51"
         y="5"
         transform="translate(-36.5,-21.13782)" />
      <g
         id="g4371-6-6-6">
        <rect
           style="fill:currentColor;fill-opacity:1;stroke:none"
           id="rect4004-1-2-2"
           width="2"
           height="2"
           x="51"
           y="6"
           transform="translate(-36.5,-21.13782)"
           class="ColorScheme-ButtonBackground" />
        <g
           id="g4297-8-6-6">
          <path
             inkscape:connector-curvature="0"
             style="fill:#000000;fill-opacity:0.600;stroke:none"
             d="m 16.5,-15.13782 0,1 0,1 -1,0 0,-1 -1,0 0,-1 2,0 z"
             id="rect3222-3-7-1-1" />
          <rect
             style="fill:#000000;fill-opacity:0.500;stroke:none"
             id="rect3315-1-9-8-8"
             width="1"
             height="1"
             x="14.5"
             y="-14.13782" />
        </g>
      </g>
    </g>
    <g
       transform="translate(19,-30.999999)"
       id="hover-bottomleft">
      <rect
         style="opacity:0;fill:#ff00ff;fill-opacity:1;stroke:none"
         id="rect4068-0-9-9"
         width="3"
         height="3"
         x="4"
         y="52"
         transform="translate(-36.5,-21.13782)" />
      <g
         id="g4379-2-2-2">
        <rect
           style="fill:currentColor;fill-opacity:1;stroke:none"
           id="rect4014-3-0-0"
           width="2"
           height="2"
           x="5"
           y="52"
           transform="translate(-36.5,-21.13782)"
           class="ColorScheme-ButtonBackground" />
        <g
           id="g4303-7-2-2">
          <path
             inkscape:connector-curvature="0"
             style="fill:#000000;fill-opacity:0.600;stroke:none"
             d="m -31.5,32.86218 0,-1 0,-1 1,0 0,1 1,0 0,1 -2,0 z"
             id="rect3222-6-5-3-3" />
          <rect
             style="fill:#000000;fill-opacity:0.500;stroke:none"
             id="rect3315-92-7-7"
             width="1"
             height="1"
             x="6"
             y="52"
             transform="translate(-36.5,-21.13782)" />
        </g>
      </g>
    </g>
    <g
       transform="matrix(0.40909091,0,0,1,1.568182,-4.9999982)"
       id="hover-top">
      <rect
         style="opacity:0;fill:#ff00ff;fill-opacity:1;stroke:none"
         id="rect4058-8-9-9"
         width="44"
         height="3"
         x="7"
         y="5"
         transform="translate(-36.5,-21.13782)" />
      <g
         id="g4387-9-2-2">
        <rect
           style="fill:currentColor;fill-opacity:1;stroke:none"
           id="rect4002-7-2-2"
           width="44"
           height="2"
           x="7"
           y="6"
           transform="translate(-36.5,-21.13782)"
           class="ColorScheme-ButtonBackground" />
        <g
           id="g4309-3-8-8">
          <rect
             style="fill:#000000;fill-opacity:0.600;stroke:none"
             id="rect3259-6-9-9"
             width="44"
             height="1"
             x="7"
             y="6"
             transform="translate(-36.5,-21.13782)" />
          <rect
             style="fill:#ffffff;fill-opacity:0.750;stroke:none"
             id="rect3295-1-7-7"
             width="44"
             height="1"
             x="7"
             y="7"
             transform="translate(-36.5,-21.13782)" />
        </g>
      </g>
    </g>
    <g
       transform="matrix(1,0,0,0.40909089,19,-12.763256)"
       id="hover-left">
      <rect
         style="opacity:0;fill:#ff00ff;fill-opacity:1;stroke:none"
         id="rect4062-9-6-6"
         width="3"
         height="44"
         x="4"
         y="8"
         transform="translate(-36.5,-21.13782)" />
      <g
         id="g4395-3-1-1">
        <rect
           style="fill:currentColor;fill-opacity:1;stroke:none"
           id="rect4006-1-2-2"
           width="2"
           height="44"
           x="5"
           y="8"
           transform="translate(-36.5,-21.13782)"
           class="ColorScheme-ButtonBackground" />
        <g
           id="g4315-9-9-9">
          <rect
             style="fill:#000000;fill-opacity:0.600;stroke:none"
             id="rect3259-5-4-3-3"
             width="44"
             height="1"
             x="-13.13782"
             y="30.5"
             transform="matrix(0,1,-1,0,0,0)" />
          <rect
             style="fill:#ffffff;fill-opacity:0.75;stroke:none"
             id="rect3295-2-7-1-1"
             width="44"
             height="1"
             x="-13.13782"
             y="29.5"
             transform="matrix(0,1,-1,0,0,0)" />
        </g>
      </g>
    </g>
    <g
       transform="matrix(1,0,0,0.40909092,-7,-12.763256)"
       id="hover-right">
      <rect
         style="opacity:0;fill:#ff00ff;fill-opacity:1;stroke:none"
         id="rect4066-4-4-4"
         width="3"
         height="44"
         x="51"
         y="8"
         transform="translate(-36.5,-21.13782)" />
      <g
         id="g4403-5-7-7">
        <rect
           style="fill:currentColor;fill-opacity:1;stroke:none"
           id="rect4012-0-8-8"
           width="2"
           height="44"
           x="51"
           y="8"
           transform="translate(-36.5,-21.13782)"
           class="ColorScheme-ButtonBackground" />
        <g
           id="g4321-3-4-4">
          <rect
             style="fill:#000000;fill-opacity:0.600;stroke:none"
             id="rect3259-3-6-5-5"
             width="44"
             height="1"
             x="-13.13782"
             y="-16.5"
             transform="matrix(0,1,-1,0,0,0)" />
          <rect
             style="fill:#000000;fill-opacity:0.500;stroke:none"
             id="rect3342-2-10-0-0"
             width="44"
             height="1"
             x="-13.13782"
             y="-15.5"
             transform="matrix(0,1,-1,0,0,0)" />
        </g>
      </g>
    </g>
    <g
       transform="matrix(0.40909091,0,0,1,1.568182,-30.999999)"
       id="hover-bottom">
      <rect
         style="opacity:0;fill:#ff00ff;fill-opacity:1;stroke:none"
         id="rect4072-3-6-6"
         width="44"
         height="3"
         x="7"
         y="52"
         transform="translate(-36.5,-21.13782)" />
      <g
         id="g4411-2-1-1">
        <rect
           style="fill:currentColor;fill-opacity:1;stroke:none"
           id="rect4016-0-0-0"
           width="44"
           height="2"
           x="7"
           y="52"
           transform="translate(-36.5,-21.13782)"
           class="ColorScheme-ButtonBackground" />
        <g
           id="g4327-6-6-6">
          <rect
             style="fill:#000000;fill-opacity:0.600;stroke:none"
             id="rect3259-56-15-3-3"
             width="44"
             height="1"
             x="-29.5"
             y="31.862181" />
          <rect
             style="fill:#000000;fill-opacity:0.500;stroke:none"
             id="rect3342-5-2-2"
             width="44"
             height="1"
             x="7"
             y="52"
             transform="translate(-36.5,-21.13782)" />
        </g>
      </g>
    </g>
    <rect
       y="-18.137819"
       x="37.5"
       height="17.999996"
       width="18"
       id="minimized-center"
       style="fill:currentColor;fill-opacity:1;stroke:none"
       class="ColorScheme-ButtonBackground" />
    <g
       transform="translate(67,-5.0000035)"
       id="minimized-topleft">
      <rect
         style="opacity:0;fill:#ff00ff;fill-opacity:1;stroke:none"
         id="rect4056-7-7-7-1"
         width="3"
         height="3"
         x="4"
         y="5"
         transform="translate(-36.5,-21.13782)" />
      <g
         id="g4355-5-5-5-5">
        <rect
           style="fill:currentColor;fill-opacity:1;stroke:none"
           id="rect4000-3-3-3-5"
           width="2"
           height="2"
           x="5"
           y="6"
           transform="translate(-36.5,-21.13782)"
           class="ColorScheme-ButtonBackground" />
        <g
           id="g4285-5-5-5-4">
          <path
             style="fill:#000000;fill-opacity:0.600;stroke:none"
             d="M 5,6 5,7 5,8 6,8 6,7 7,7 7,6 5,6 z"
             transform="translate(-36.5,-21.13782)"
             id="rect3222-62-6-6-7"
             inkscape:connector-curvature="0" />
          <rect
             style="fill:#ffffff;fill-opacity:0.75;stroke:none"
             id="rect3293-9-2-2-6"
             width="1"
             height="1"
             x="6"
             y="7"
             transform="translate(-36.5,-21.13782)" />
        </g>
      </g>
    </g>
    <g
       transform="translate(41,-31.000005)"
       id="minimized-bottomright">
      <rect
         style="opacity:0;fill:#ff00ff;fill-opacity:1;stroke:none"
         id="rect4074-2-1-1-6"
         width="3"
         height="3"
         x="51"
         y="52"
         transform="translate(-36.5,-21.13782)" />
      <g
         id="g4363-7-2-2-9">
        <rect
           style="fill:currentColor;fill-opacity:1;stroke:none"
           id="rect4020-0-7-7-3"
           width="2"
           height="2"
           x="51"
           y="52"
           transform="translate(-36.5,-21.13782)"
           class="ColorScheme-ButtonBackground" />
        <g
           id="g4291-9-0-0-7">
          <path
             inkscape:connector-curvature="0"
             style="fill:#000000;fill-opacity:0.600;stroke:none"
             d="m 16.5,32.86218 0,-1 0,-1 -1,0 0,1 -1,0 0,1 2,0 z"
             id="rect3222-7-3-9-9-4" />
          <rect
             style="fill:#000000;fill-opacity:0.500;stroke:none"
             id="rect3315-9-60-3-3-5"
             width="1"
             height="1"
             x="14.5"
             y="30.862181" />
        </g>
      </g>
    </g>
    <g
       transform="translate(41,-5.0000045)"
       id="minimized-topright">
      <rect
         style="opacity:0;fill:#ff00ff;fill-opacity:1;stroke:none"
         id="rect4060-2-0-0-5"
         width="3"
         height="3"
         x="51"
         y="5"
         transform="translate(-36.5,-21.13782)" />
      <g
         id="g4371-6-6-6-4">
        <rect
           style="fill:currentColor;fill-opacity:1;stroke:none"
           id="rect4004-1-2-2-7"
           width="2"
           height="2"
           x="51"
           y="6"
           transform="translate(-36.5,-21.13782)"
           class="ColorScheme-ButtonBackground" />
        <g
           id="g4297-8-6-6-4">
          <path
             inkscape:connector-curvature="0"
             style="fill:#000000;fill-opacity:0.600;stroke:none"
             d="m 16.5,-15.13782 0,1 0,1 -1,0 0,-1 -1,0 0,-1 2,0 z"
             id="rect3222-3-7-1-1-4" />
          <rect
             style="fill:#000000;fill-opacity:0.500;stroke:none"
             id="rect3315-1-9-8-8-3"
             width="1"
             height="1"
             x="14.5"
             y="-14.13782" />
        </g>
      </g>
    </g>
    <g
       transform="translate(67,-31.000005)"
       id="minimized-bottomleft">
      <rect
         style="opacity:0;fill:#ff00ff;fill-opacity:1;stroke:none"
         id="rect4068-0-9-9-7"
         width="3"
         height="3"
         x="4"
         y="52"
         transform="translate(-36.5,-21.13782)" />
      <g
         id="g4379-2-2-2-8">
        <rect
           style="fill:currentColor;fill-opacity:1;stroke:none"
           id="rect4014-3-0-0-6"
           width="2"
           height="2"
           x="5"
           y="52"
           transform="translate(-36.5,-21.13782)"
           class="ColorScheme-ButtonBackground" />
        <g
           id="g4303-7-2-2-8">
          <path
             inkscape:connector-curvature="0"
             style="fill:#000000;fill-opacity:0.600;stroke:none"
             d="m -31.5,32.86218 0,-1 0,-1 1,0 0,1 1,0 0,1 -2,0 z"
             id="rect3222-6-5-3-3-8" />
          <rect
             style="fill:#000000;fill-opacity:0.500;stroke:none"
             id="rect3315-92-7-7-4"
             width="1"
             height="1"
             x="6"
             y="52"
             transform="translate(-36.5,-21.13782)" />
        </g>
      </g>
    </g>
    <g
       transform="matrix(0.40909091,0,0,1,49.568182,-5.0000035)"
       id="minimized-top">
      <rect
         style="opacity:0;fill:#ff00ff;fill-opacity:1;stroke:none"
         id="rect4058-8-9-9-1"
         width="44"
         height="3"
         x="7"
         y="5"
         transform="translate(-36.5,-21.13782)" />
      <g
         id="g4387-9-2-2-4">
        <rect
           style="fill:currentColor;fill-opacity:1;stroke:none"
           id="rect4002-7-2-2-9"
           width="44"
           height="2"
           x="7"
           y="6"
           transform="translate(-36.5,-21.13782)"
           class="ColorScheme-ButtonBackground" />
        <g
           id="g4309-3-8-8-2">
          <rect
             style="fill:#000000;fill-opacity:0.600;stroke:none"
             id="rect3259-6-9-9-0"
             width="44"
             height="1"
             x="7"
             y="6"
             transform="translate(-36.5,-21.13782)" />
          <rect
             style="fill:#ffffff;fill-opacity:0.75;stroke:none"
             id="rect3295-1-7-7-6"
             width="44"
             height="1"
             x="7"
             y="7"
             transform="translate(-36.5,-21.13782)" />
        </g>
      </g>
    </g>
    <g
       transform="matrix(1,0,0,0.40909089,67,-12.763262)"
       id="minimized-left">
      <rect
         style="opacity:0;fill:#ff00ff;fill-opacity:1;stroke:none"
         id="rect4062-9-6-6-9"
         width="3"
         height="44"
         x="4"
         y="8"
         transform="translate(-36.5,-21.13782)" />
      <g
         id="g4395-3-1-1-2">
        <rect
           style="fill:currentColor;fill-opacity:1;stroke:none"
           id="rect4006-1-2-2-6"
           width="2"
           height="44"
           x="5"
           y="8"
           transform="translate(-36.5,-21.13782)"
           class="ColorScheme-ButtonBackground" />
        <g
           id="g4315-9-9-9-6">
          <rect
             style="fill:#000000;fill-opacity:0.600;stroke:none"
             id="rect3259-5-4-3-3-4"
             width="44"
             height="1"
             x="-13.13782"
             y="30.5"
             transform="matrix(0,1,-1,0,0,0)" />
          <rect
             style="fill:#ffffff;fill-opacity:0.75;stroke:none"
             id="rect3295-2-7-1-1-9"
             width="44"
             height="1"
             x="-13.13782"
             y="29.5"
             transform="matrix(0,1,-1,0,0,0)" />
        </g>
      </g>
    </g>
    <g
       transform="matrix(1,0,0,0.40909092,41,-12.763262)"
       id="minimized-right">
      <rect
         style="opacity:0;fill:#ff00ff;fill-opacity:1;stroke:none"
         id="rect4066-4-4-4-0"
         width="3"
         height="44"
         x="51"
         y="8"
         transform="translate(-36.5,-21.13782)" />
      <g
         id="g4403-5-7-7-4">
        <rect
           style="fill:currentColor;fill-opacity:1;stroke:none"
           id="rect4012-0-8-8-8"
           width="2"
           height="44"
           x="51"
           y="8"
           transform="translate(-36.5,-21.13782)"
           class="ColorScheme-ButtonBackground" />
        <g
           id="g4321-3-4-4-7">
          <rect
             style="fill:#000000;fill-opacity:0.600;stroke:none"
             id="rect3259-3-6-5-5-1"
             width="44"
             height="1"
             x="-13.13782"
             y="-16.5"
             transform="matrix(0,1,-1,0,0,0)" />
          <rect
             style="fill:#000000;fill-opacity:0.500;stroke:none"
             id="rect3342-2-10-0-0-7"
             width="44"
             height="1"
             x="-13.13782"
             y="-15.5"
             transform="matrix(0,1,-1,0,0,0)" />
        </g>
      </g>
    </g>
    <g
       transform="matrix(0.40909091,0,0,1,49.568182,-31.000005)"
       id="minimized-bottom">
      <rect
         style="opacity:0;fill:#ff00ff;fill-opacity:1;stroke:none"
         id="rect4072-3-6-6-7"
         width="44"
         height="3"
         x="7"
         y="52"
         transform="translate(-36.5,-21.13782)" />
      <g
         id="g4411-2-1-1-2">
        <rect
           style="fill:currentColor;fill-opacity:1;stroke:none"
           id="rect4016-0-0-0-2"
           width="44"
           height="2"
           x="7"
           y="52"
           transform="translate(-36.5,-21.13782)"
           class="ColorScheme-ButtonBackground" />
        <g
           id="g4327-6-6-6-6">
          <rect
             style="fill:#000000;fill-opacity:0.600;stroke:none"
             id="rect3259-56-15-3-3-1"
             width="44"
             height="1"
             x="-29.5"
             y="31.862181" />
          <rect
             style="fill:#000000;fill-opacity:0.500;stroke:none"
             id="rect3342-5-2-2-0"
             width="44"
             height="1"
             x="7"
             y="52"
             transform="translate(-36.5,-21.13782)" />
        </g>
      </g>
    </g>
  </g>
</svg>
